<svg id="Layer_1" xmlns="http://www.w3.org/2000/svg" viewBox="0 0 300 617"><style>.st0{fill:#f9ae08}.st1{fill:#fff}</style><path class="st0" d="M211 235.9H67.2L83 71.5h143.8z"/><path class="st1" d="M95.3 57.4s.9-40.1 35.9-38.4c0 0 16.2-29 44.4-7.7 0 0 33.3-15.4 47 14.5 0 0 21.3 17.1 7.7 31.6h-135z"/><path d="M101.4 396.5l-9.9-123.9-10.3 131.6 61.5 75.8z"/><path d="M280.4 320c-11.5-26.6-26.1-48.9-43.8-67.1-17.7-18.2-39.5-32.8-65.6-43.9s-53.5-16.6-82.5-16.6l-7.4.1L93 82.7h133.8s32.9 13.2 38 45.8c4.6 29.1-12.2 64.3-30 73.4v3.3c17.9-2.6 54.6-17.4 55.6-76 .9-50.8-52.5-66.6-60.7-66.6H74L56 241.1c10.8-2 21.5-2.9 32.3-2.9 43.8 0 82 15.8 114.7 47.5s49.1 70.3 49.1 115.9c0 43.2-15.4 81.2-46.1 114.1-30.7 32.9-70 49.3-117.7 49.3-23.1 0-44.8-4.4-64.9-13.3L2.7 591.5c25.6 12.8 54.1 19.2 85.6 19.2 37.9 0 73-9.5 105.5-28.4s57.9-44.5 76.4-76.7c18.4-32.2 27.7-67 27.7-104.4-.2-27.6-5.9-54.6-17.5-81.2z"/></svg>