<?xml version="1.0" encoding="utf-8"?>
<!-- Generator: Adobe Illustrator 19.2.0, SVG Export Plug-In . SVG Version: 6.00 Build 0)  -->
<svg version="1.1" id="Layer_1" xmlns="http://www.w3.org/2000/svg" xmlns:xlink="http://www.w3.org/1999/xlink" x="0px" y="0px"
	 viewBox="0 0 300 617" style="enable-background:new 0 0 300 617;" xml:space="preserve">
<style type="text/css">
	.st0{fill:#F9AE08;}
	.st1{fill:#FFFFFF;}
</style>
<polygon class="st0" points="211,235.9 67.2,235.9 83,71.5 226.8,71.5 "/>
<path class="st1" d="M95.3,57.4c0,0,0.9-40.1,35.9-38.4c0,0,16.2-29,44.4-7.7c0,0,33.3-15.4,47,14.5c0,0,21.3,17.1,7.7,31.6H95.3z"
	/>
<polygon points="101.4,396.5 91.5,272.6 81.2,404.2 142.7,480 "/>
<path d="M280.4,320c-11.5-26.6-26.1-48.9-43.8-67.1c-17.7-18.2-39.5-32.8-65.6-43.9s-53.5-16.6-82.5-16.6l-7.4,0.1L93,82.7h133.8
	c0,0,32.9,13.2,38,45.8c4.6,29.1-12.2,64.3-30,73.4v3.3c17.9-2.6,54.6-17.4,55.6-76c0.9-50.8-52.5-66.6-60.7-66.6H74L56,241.1
	c10.8-2,21.5-2.9,32.3-2.9c43.8,0,82,15.8,114.7,47.5c32.7,31.7,49.1,70.3,49.1,115.9c0,43.2-15.4,81.2-46.1,114.1
	c-30.7,32.9-70,49.3-117.7,49.3c-23.1,0-44.8-4.4-64.9-13.3L2.7,591.5c25.6,12.8,54.1,19.2,85.6,19.2c37.9,0,73-9.5,105.5-28.4
	c32.5-18.9,57.9-44.5,76.4-76.7c18.4-32.2,27.7-67,27.7-104.4C297.7,373.6,292,346.6,280.4,320z"/>
</svg>
