<svg id="Layer_1" xmlns="http://www.w3.org/2000/svg" viewBox="0 0 700 700"><style>.st0{fill:none}.st1{fill:url(#SVGID_1_)}.st2{fill:none;stroke:#000;stroke-width:5;stroke-miterlimit:10}</style><path class="st0" d="M0 0h700v700H0z"/><radialGradient id="SVGID_1_" cx="352.582" cy="602.221" r="56.145" gradientUnits="userSpaceOnUse"><stop offset="0" stop-color="#c9ff7f"/><stop offset=".126" stop-color="#ae6"/><stop offset=".298" stop-color="#86da49"/><stop offset=".472" stop-color="#6bcb32"/><stop offset=".647" stop-color="#57c022"/><stop offset=".822" stop-color="#4bb918"/><stop offset="1" stop-color="#47b715"/></radialGradient><path class="st1" d="M401.9 514.1c-.7.2-1.3.3-2 .5-13.5 3.7-42.2 3.1-54.4 3.7-3 .1-34.1-1-38.2-3.7.1 2-.4 4-1.6 6.1-2.1 3.8-5.8 6.2-8.7 9.4-5 5.6-7.3 13.5-5.8 20.9 1 4.9 3.5 9.5 6.1 13.7 6.9 11.1 15.2 21.2 24.6 30.2 5.6 5.3 10.7 8.4 17 12.7 3.8 2.6 7.8 5 12.3 5.9 4.5.9 9.5.1 12.8-2.9 20.3-18.7 59.5-40.5 48.3-73.9-2.2-6.9-8.2-14.9-10.4-22.6z"/><path class="st2" d="M453.3 343.3c-5.7 45.7-17.1 90.3-23.4 135.7-.7 5.2-4.9 15.9-12.7 19.2-4.2 1.8-8.4 5-9.3 9.5-.8 3.7 1 7.4 3.2 10.4 2.3 3 5.1 5.5 7.1 8.7 7.4 12.2 2 29-5.3 39.8-4.5 6.7-24.3 38-28 43.1-.3.4-.1.9.3 1.1l.7.3c7.1 5.4 3.4 10.8-.3 15.1-3.4 4-6.9 7-10 11.2-10.3 14 7.3 22.5 18.2 25.2 12.5 3.1 25.1 6.2 37.6 9.3 4.2 1 7.5 4.4 8.3 8.6 1 5.7-3.9 7-9.8 10.5-6.8 4-43.2 9-81.8 9-10.8 0-53.5-2.4-64-3.7-6.4-.8-14.2-5-11.6-11.8.9-2.3 2.8-4 5-4.9 18.9-7.6 41.7-13.5 53.2-30.9 4.6-7-14-23.3-15.1-27.4-.3-1-1.5-5 .8-7.6 1.1-1.4 2.5-2.3 4.1-2.7.2 0 .3-.2.2-.4-4.4-12.7-13.1-25.1-21.4-35.5-4.8-6-10-11.7-13-18.8-5.7-13.6-.9-31 11.5-39.3 2.6-1.7 3.9-4.8 3.1-7.7-1.9-7.5-11.8-8.9-17.7-14-5.6-4.9-7-12.9-8.1-20.3-6.7-43.5-16.2-86.6-28.6-128.8 12.3-4.1 26.4-2.7 39.3-2.8 39.2-.1 152.8-7.8 167.5-.1z"/><path d="M254.5 353.4s.7 2.3 1.9 6.5c1.2 4.3 3 10.5 5.2 18.5s4.9 17.7 8 28.7c1.6 5.5 3.4 11.4 4.9 17.7 1.5 6.3 2.8 13 4.1 20 1.2 7 2.5 14.3 3.8 21.8.3 1.9.7 3.8 1.1 5.7.4 1.9.7 3.8 1.2 5.7.9 3.7 2.3 7.4 5 10.2 2.6 2.8 6.3 4.7 9.7 7.3.9.6 1.7 1.3 2.5 2.1.7.7 1.5 1.5 2.2 2.4 1.4 1.7 2.7 3.6 3.5 5.7.9 2.1 1.2 4.6.8 7-.2 1.2-.6 2.3-1.1 3.4l-.4.8c-.2.3-.3.5-.4.7-.3.5-.7 1-1 1.5-2.9 3.7-6.7 6-9 9.5-2.4 3.4-3.9 7.5-4.2 11.8-.2 2.1 0 4.3.4 6.4.4 2.1 1.2 4.2 2.1 6.2.9 2 2 4 3.2 5.9l1.8 2.9c.6.9 1.2 1.9 1.9 2.8 2.6 3.8 5.3 7.5 8.2 11 2.9 3.6 6 7 9.3 10.3 1.6 1.6 3.3 3.3 5 4.8 1.7 1.5 3.5 3 5.4 4.4 3.7 2.7 7.7 5.3 11.6 7.9 3.8 2.5 8 4.6 12.3 5 2.2.2 4.3-.1 6.3-.8 1-.4 1.9-.9 2.7-1.5l.6-.5.7-.6 1.3-1.2c3.6-3.2 7.3-6.1 11-9.1 7.3-5.9 14.6-11.8 21-18.3 3.2-3.3 6.2-6.8 8.7-10.5 2.5-3.7 4.6-7.7 5.8-11.9 2.7-8.4 1.5-17.6-2.3-25.3-1.9-3.9-4.2-7.7-6.1-11.7-1-2-1.8-4.1-2.4-6.2-.6-2.2-1-4.5-.8-6.8.1-1.2.3-2.3.7-3.4.4-1.1.9-2.2 1.5-3.1 1.3-1.9 2.9-3.5 4.7-4.7 3.6-2.5 7.4-4.1 10.2-6.7 2.9-2.5 4.2-6.2 5.1-9.9.9-3.8 1.3-7.6 1.9-11.4 1.3-7.6 3-14.8 3.9-21.7.2-1.7.4-3.5.6-5.2.2-1.7.4-3.4.7-5.1.5-3.4 1-6.7 1.7-9.8 1.2-6.4 2.6-12.3 4-17.9 2.7-11.2 5.1-20.9 6.7-29.1 1.6-8.1 2.6-14.5 3-18.9.1-1.1.2-2.1.3-2.9.1-.8.1-1.6.2-2.1.1-1.1.1-1.7.1-1.7s0 .6-.1 1.7c0 .6-.1 1.3-.1 2.1-.1.8-.1 1.8-.2 2.9-.4 4.4-1.1 10.9-2.6 19s-3.7 18-6.2 29.2c-2.5 11.3-5.1 23.9-6.3 38.1-.8 7.1-2.5 14.3-3.7 21.8-.6 3.7-.9 7.6-1.8 11.6-.4 2-1 3.9-1.9 5.9-.2.5-.5 1-.7 1.5l-.4.6-.2.4-.2.3c-.6.9-1.4 1.7-2.2 2.4-3.2 2.9-7.1 4.6-10.3 7-3.2 2.3-5.7 5.6-5.8 9.5-.1 1.9.2 3.9.8 5.9.6 2 1.4 3.9 2.3 5.8 1.8 3.9 4.1 7.6 6.1 11.7.5 1 1 2 1.4 3.1.2.6.4 1.1.6 1.6l.5 1.7.5 1.7.4 1.7c.3 1.1.4 2.3.5 3.4.2 1.2.1 2.3.2 3.5 0 1.2-.1 2.3-.1 3.5-.3 2.3-.7 4.7-1.4 6.9-1.3 4.5-3.5 8.8-6.1 12.7-2.6 3.9-5.7 7.5-9 10.9-6.6 6.8-13.9 12.7-21.2 18.7-3.7 3-7.3 5.9-10.8 9L366 607l-.7.6c-.3.2-.5.4-.8.6-1.1.8-2.2 1.5-3.5 1.9-2.5.9-5.1 1.2-7.6 1-5.2-.5-9.7-2.9-13.7-5.5-3.9-2.7-7.8-5.2-11.7-8.1-1.9-1.4-3.8-2.9-5.6-4.6-1.8-1.6-3.4-3.3-5.1-5-3.3-3.4-6.4-6.9-9.4-10.5-3-3.6-5.8-7.4-8.3-11.3-.7-1-1.3-1.9-1.9-2.9l-1.8-2.9c-1.2-2-2.4-4-3.3-6.2-1-2.1-1.8-4.4-2.3-6.7-.5-2.4-.6-4.8-.4-7.1.4-4.7 2.1-9.3 4.8-13.1 2.7-3.9 6.7-6.3 9.1-9.5.3-.4.6-.8.8-1.2.1-.2.3-.5.4-.7l.3-.7c.4-.9.7-1.8.9-2.7.3-1.9.1-3.8-.6-5.7-.7-1.8-1.8-3.5-3-5.1-.6-.8-1.3-1.5-2.1-2.2-.7-.7-1.5-1.3-2.3-1.9-3.2-2.5-6.9-4.5-9.9-7.6-.4-.4-.7-.8-1-1.2-.4-.5-.7-.9-1-1.3-.6-.9-1.1-1.8-1.5-2.8-.9-1.9-1.4-3.9-1.9-5.9-.5-2-.8-3.9-1.1-5.8-.3-1.9-.7-3.8-1-5.7-1.2-7.5-2.4-14.8-3.6-21.8-1.2-7-2.4-13.6-3.8-19.9-1.4-6.3-3-12.2-4.5-17.8-3-11.1-5.4-20.9-7.5-28.9-2.1-8-3.7-14.3-4.8-18.6-1.5-4.5-2.1-6.8-2.1-6.8z"/><path d="M307.3 510.2s.3.2 1 .4c.6.2 1.6.4 2.9.6 1.3.2 2.8.4 4.5.5 1.8.2 3.8.3 5.9.4 4.3.3 9.4.5 14.9.6 2.7.1 5.5.2 8.4.2 2.8-.1 5.8-.2 8.7-.3 5.8-.1 11.6-.2 17.1-.3 2.7-.1 5.4-.1 7.8-.2 1.2 0 2.5-.1 3.6-.2 1.2 0 2.3-.1 3.4-.2 2.2-.1 4.2-.3 5.9-.4 1.8-.2 3.3-.3 4.5-.5 1.3-.2 2.2-.4 2.9-.5.7-.1 1-.2 1-.2s-.3.1-1 .3c-.7.2-1.6.5-2.9.8-1.2.3-2.8.6-4.5.9-1.8.3-3.7.6-5.9.8-2.2.3-4.5.5-7 .7-2.5.2-5.1.4-7.9.5-2.7.1-5.6.2-8.4.3-2.9.1-5.8.1-8.7.2-2.9.1-5.8.1-8.7.2-2.9-.1-5.7-.2-8.4-.3-5.5-.3-10.5-.8-14.9-1.3-2.2-.2-4.2-.5-5.9-.8-1.8-.3-3.3-.6-4.5-.9-1.2-.3-2.2-.6-2.8-.9-.7-.1-1-.4-1-.4zm19.6-20.8s-.5-3.4-1.5-9.3c-.5-3-1-6.6-1.6-10.7-.6-4.1-1.2-8.8-1.5-14-.3-5.1-.6-10.8.2-16.7.8-5.9 1.8-12 3.4-18.3.8-3.1 1.8-6.3 3.1-9.4 1.3-3.1 3-6.2 5.6-8.7 1.2-1.2 2.5-2.4 3.9-3.5s2.8-2 4.4-2.9c3.1-1.7 6.5-3 10.1-3.3 3.6-.3 7.3.4 10.5 2.1 3.2 1.7 5.8 4.2 7.8 7 2.1 2.8 3.5 6 4.5 9.2 1 3.2 1.6 6.5 2 9.7.8 6.4 1.1 12.7 1.1 18.6 0 5.9-.2 11.5-.5 16.7-.3 5.1-.7 9.9-1.2 14-.4 4.2-.9 7.8-1.2 10.8-.7 6-1.2 9.4-1.2 9.4s.3-3.4.8-9.4 1.2-14.5 1.7-24.8c.2-5.1.3-10.7.1-16.6 0-1.5-.1-3-.2-4.5s-.2-3-.3-4.6c-.1-1.5-.3-3.1-.4-4.7-.1-1.6-.3-3.1-.5-4.7-.9-6.3-2.5-12.8-6.3-18.1-1.9-2.6-4.4-4.9-7.2-6.4-2.9-1.5-6.2-2.2-9.4-1.9-3.3.3-6.4 1.4-9.3 3-1.4.8-2.8 1.7-4.1 2.7-1.3 1-2.5 2.1-3.7 3.3-2.3 2.2-3.9 5.1-5.2 8.1-1.3 3-2.3 6.1-3.1 9.2-1.6 6.2-2.8 12.3-3.7 18.1-.8 5.8-.7 11.3-.5 16.5.3 5.1.7 9.8 1.2 14 .5 4.2.9 7.8 1.3 10.8.5 5.9.9 9.3.9 9.3zm49.7 0s0-.5.1-1.6c.1-1 .1-2.5.2-4.4.2-1.9.3-4.2.6-6.8.1-1.3.3-2.7.4-4.2.2-1.5.4-3 .6-4.6.4-3.2.9-6.7 1.6-10.4.3-1.8.6-3.7 1-5.7.4-1.9.7-3.9 1.2-5.9.8-4 1.8-8.1 2.9-12.2.6-2.1 1.1-4.2 1.7-6.2.6-2.1 1.2-4.2 2-6.2l1.1-3.1 1.2-3c.7-2 1.7-4 2.6-6 .5-1 1-1.9 1.5-2.9l.8-1.4.9-1.3.9-1.3c.2-.2.3-.4.5-.7l.5-.6c.7-.8 1.6-1.6 2.5-2.2 3.5-2.5 7.8-3.4 11.6-3.1 1 .1 1.9.2 2.8.5.4.1.9.3 1.4.5.4.2.9.4 1.3.6 1.6.9 3 2.1 4.1 3.4 2.2 2.6 3.4 5.5 3.9 8.1.6 2.6.6 5 .6 6.9 0 1.9-.2 3.4-.3 4.4-.1 1-.2 1.6-.2 1.6s0-.5.1-1.6c0-1 .1-2.5 0-4.4-.1-1.9-.3-4.2-.9-6.7-.7-2.5-1.9-5.2-4-7.6-1.1-1.1-2.3-2.2-3.8-2.9-1.5-.8-3.1-1.1-4.9-1.2-3.5-.2-7.4.8-10.5 3.1-.8.6-1.5 1.2-2.1 1.9l-.5.6c-.1.1-.3.4-.4.6l-.8 1.3-.8 1.3-.7 1.4c-.5.9-1 1.8-1.5 2.8-.8 1.9-1.8 3.8-2.5 5.9l-1.2 3-1 3.1c-.7 2-1.3 4.1-2 6.2-.7 2-1.2 4.1-1.8 6.2-1.1 4.1-2.1 8.2-3 12.1-.5 2-.9 3.9-1.3 5.8s-.8 3.8-1.1 5.6c-.7 3.6-1.3 7.1-1.9 10.3-.5 3.2-1 6.1-1.4 8.8-.4 2.6-.7 4.9-.9 6.8-.9 3.2-1.1 5.4-1.1 5.4z"/><path d="M327.2 489.4s-.2-2.2-.7-5.9c-.3-1.9-.5-4.2-.9-6.8-.4-2.6-.9-5.6-1.4-8.8-.6-3.2-1.2-6.7-1.9-10.3-.4-1.8-.7-3.7-1.1-5.6-.4-1.9-.8-3.9-1.3-5.8-.9-4-1.9-8-3-12.1-.6-2-1.1-4.1-1.8-6.2-.6-2.1-1.2-4.1-2-6.2l-1-3.1-1.2-3c-.7-2-1.7-3.9-2.5-5.9-.4-1-1-1.9-1.5-2.8l-.7-1.4-.8-1.3-.8-1.3c-.1-.2-.3-.5-.4-.6l-.5-.6c-.6-.7-1.3-1.4-2.1-1.9-3.1-2.3-7-3.2-10.5-3.1-1.8.1-3.5.5-4.9 1.2-1.5.7-2.8 1.8-3.8 2.9-2.1 2.3-3.4 5-4 7.6-.7 2.5-.9 4.8-.9 6.7-.1 1.9 0 3.4 0 4.4 0 1 .1 1.6.1 1.6s-.1-.5-.2-1.6c-.1-1-.3-2.5-.3-4.4 0-1.9 0-4.2.6-6.9.5-2.6 1.7-5.6 3.9-8.1 1.1-1.3 2.4-2.5 4.1-3.4.4-.2.8-.4 1.3-.6.4-.2.9-.4 1.4-.5.9-.3 1.9-.4 2.8-.5 3.9-.3 8.1.6 11.6 3.1.9.6 1.7 1.4 2.5 2.2l.5.6c.2.3.3.5.5.7l.9 1.3.9 1.3.8 1.4c.5 1 1.1 1.9 1.5 2.9.9 2 1.9 3.9 2.6 6l1.2 3 1.1 3.1c.7 2.1 1.3 4.2 2 6.2.7 2.1 1.2 4.2 1.7 6.2 1.1 4.1 2 8.3 2.9 12.2.4 2 .8 4 1.2 5.9.4 1.9.7 3.8 1 5.7.7 3.7 1.1 7.2 1.6 10.4.2 1.6.4 3.2.6 4.6.1 1.5.3 2.9.4 4.2.3 2.6.4 4.9.6 6.8.1 1.9.2 3.4.2 4.4-.4 1.5-.3 2.1-.3 2.1zm-45.1 196.4s.6.1 1.7.4c1.1.2 2.7.5 4.7.9 4.1.8 9.9 1.7 16.9 2.7 3.5.5 7.3 1 11.3 1.4 4 .4 8.3.8 12.7 1.1 4.4.4 9 .6 13.6.8 4.6.1 9.3.2 14 .1 2.4 0 4.7 0 7-.1 1.2 0 2.3-.1 3.5-.1 1.2-.1 2.3-.1 3.5-.2 2.3-.1 4.6-.3 6.9-.5 2.3-.2 4.5-.4 6.7-.7 4.4-.5 8.6-1.1 12.6-1.8 2-.3 3.9-.7 5.8-1.1.9-.2 1.9-.4 2.8-.5.9-.2 1.8-.4 2.6-.6 3.4-.8 6.6-1.6 9.3-2.4 2.8-.8 5.1-1.6 7.1-2.2 3.9-1.4 6.1-2.2 6.1-2.2s-2.2.9-6 2.5c-1.9.7-4.3 1.6-7 2.5-1.4.4-2.8.9-4.4 1.4-1.5.5-3.2.9-4.9 1.4-.9.2-1.7.5-2.6.7-.9.2-1.8.4-2.8.6-1.9.4-3.8.9-5.8 1.3-4 .8-8.2 1.5-12.6 2.1-2.2.3-4.4.6-6.7.7l-6.9.6c-1.2.1-2.3.2-3.5.2-1.2 0-2.4.1-3.5.1-2.4.1-4.7.2-7.1.2-4.7 0-9.5-.1-14.1-.3-4.7-.2-9.2-.5-13.7-.9-4.4-.4-8.7-.9-12.7-1.4-4-.6-7.8-1.1-11.3-1.7-3.5-.6-6.7-1.2-9.5-1.8-2.8-.6-5.3-1.2-7.3-1.6-4.2-1-6.4-1.6-6.4-1.6zm57.3-30.9s1.6.5 4.1.9c.6.1 1.3.2 2 .3.7.1 1.4.2 2.2.3.8.1 1.5.2 2.3.2.4 0 .8 0 1.2.1h1.2c.8 0 1.6 0 2.4-.1.8 0 1.6-.1 2.3-.2.8 0 1.5-.2 2.2-.3.7-.1 1.3-.2 2-.4.6-.1 1.2-.2 1.7-.3.5-.1.9-.2 1.3-.3.7-.2 1.1-.3 1.1-.3s-.3.2-1 .6c-.3.2-.7.4-1.2.7-.5.3-1 .5-1.6.7-.6.3-1.2.5-2 .7-.7.2-1.4.5-2.3.6-.8.1-1.6.4-2.5.4-.8.1-1.7.1-2.6.1h-1.3c-.4 0-.9-.1-1.3-.1-.8 0-1.7-.2-2.5-.4s-1.5-.4-2.2-.6c-.7-.2-1.4-.4-2-.7-1.2-.5-2.1-1-2.8-1.4-.4-.2-.7-.5-.7-.5zm-14.7-35.3s.2.1.6.2c.4.1 1 .3 1.8.5s1.7.5 2.8.7c1.1.3 2.3.5 3.6.8l2.1.3c.7.1 1.5.3 2.2.3l2.4.3c.8.1 1.6.1 2.5.2 1.7.2 3.4.2 5.2.3 1.8.1 3.6 0 5.4 0 1.8-.1 3.6-.1 5.4-.2 1.8-.2 3.5-.3 5.2-.4 1.7-.2 3.3-.4 4.9-.6 1.5-.2 3-.5 4.3-.7 1.3-.2 2.6-.4 3.7-.7 1.1-.2 2-.4 2.8-.6 1.6-.3 2.5-.5 2.5-.5s-.9.3-2.4.9c-.8.3-1.7.6-2.7 1-1.1.4-2.3.7-3.6 1.1-1.3.3-2.8.8-4.3 1.1-1.6.3-3.2.6-4.9.9-1.7.2-3.5.4-5.3.6-1.8.1-3.7.2-5.5.3-1.8 0-3.7 0-5.5-.1-1.8-.1-3.6-.2-5.3-.5-.9-.1-1.7-.2-2.5-.3-.8-.2-1.6-.3-2.4-.5-1.6-.3-3-.7-4.3-1-1.3-.4-2.5-.8-3.6-1.1-1.1-.4-2-.8-2.7-1.1-1.6-.7-2.4-1.2-2.4-1.2z"/></svg>