<?xml version="1.0" encoding="utf-8"?>
<!-- Generator: Adobe Illustrator 19.2.0, SVG Export Plug-In . SVG Version: 6.00 Build 0)  -->
<svg version="1.1" id="Layer_1" xmlns="http://www.w3.org/2000/svg" xmlns:xlink="http://www.w3.org/1999/xlink" x="0px" y="0px"
	 viewBox="0 0 700 700" style="enable-background:new 0 0 700 700;" xml:space="preserve">
<style type="text/css">
	.st0{fill:none;}
	.st1{fill:url(#SVGID_1_);}
	.st2{fill:none;stroke:#000000;stroke-width:5;stroke-miterlimit:10;}
</style>
<rect x="0" y="0" class="st0" width="700" height="700"/>
<g>
	<radialGradient id="SVGID_1_" cx="352.5825" cy="602.2207" r="56.1452" gradientUnits="userSpaceOnUse">
		<stop  offset="0" style="stop-color:#C9FF7F"/>
		<stop  offset="0.1263" style="stop-color:#AAEE66"/>
		<stop  offset="0.2984" style="stop-color:#86DA49"/>
		<stop  offset="0.4725" style="stop-color:#6BCB32"/>
		<stop  offset="0.647" style="stop-color:#57C022"/>
		<stop  offset="0.8224" style="stop-color:#4BB918"/>
		<stop  offset="1" style="stop-color:#47B715"/>
	</radialGradient>
	<path class="st1" d="M401.9,514.1c-0.7,0.2-1.3,0.3-2,0.5c-13.5,3.7-42.2,3.1-54.4,3.7c-3,0.1-34.1-1-38.2-3.7c0.1,2-0.4,4-1.6,6.1
		c-2.1,3.8-5.8,6.2-8.7,9.4c-5,5.6-7.3,13.5-5.8,20.9c1,4.9,3.5,9.5,6.1,13.7c6.9,11.1,15.2,21.2,24.6,30.2
		c5.6,5.3,10.7,8.4,17,12.7c3.8,2.6,7.8,5,12.3,5.9c4.5,0.9,9.5,0.1,12.8-2.9c20.3-18.7,59.5-40.5,48.3-73.9
		C410.1,529.8,404.1,521.8,401.9,514.1z"/>
	<path class="st2" d="M453.3,343.3c-5.7,45.7-17.1,90.3-23.4,135.7c-0.7,5.2-4.9,15.9-12.7,19.2c-4.2,1.8-8.4,5-9.3,9.5
		c-0.8,3.7,1,7.4,3.2,10.4c2.3,3,5.1,5.5,7.1,8.7c7.4,12.2,2,29-5.3,39.8c-4.5,6.7-24.3,38-28,43.1c-0.3,0.4-0.1,0.9,0.3,1.1
		l0.7,0.3c7.1,5.4,3.4,10.8-0.3,15.1c-3.4,4-6.9,7-10,11.2c-10.3,14,7.3,22.5,18.2,25.2c12.5,3.1,25.1,6.2,37.6,9.3
		c4.2,1,7.5,4.4,8.3,8.6c1,5.7-3.9,7-9.8,10.5c-6.8,4-43.2,9-81.8,9c-10.8,0-53.5-2.4-64-3.7c-6.4-0.8-14.2-5-11.6-11.8
		c0.9-2.3,2.8-4,5-4.9c18.9-7.6,41.7-13.5,53.2-30.9c4.6-7-14-23.3-15.1-27.4c-0.3-1-1.5-5,0.8-7.6c1.1-1.4,2.5-2.3,4.1-2.7
		c0.2,0,0.3-0.2,0.2-0.4c-4.4-12.7-13.1-25.1-21.4-35.5c-4.8-6-10-11.7-13-18.8c-5.7-13.6-0.9-31,11.5-39.3c2.6-1.7,3.9-4.8,3.1-7.7
		c-1.9-7.5-11.8-8.9-17.7-14c-5.6-4.9-7-12.9-8.1-20.3c-6.7-43.5-16.2-86.6-28.6-128.8c12.3-4.1,26.4-2.7,39.3-2.8
		C325,343.3,438.6,335.6,453.3,343.3z"/>
	<g>
		<path d="M254.5,353.4c0,0,0.7,2.3,1.9,6.5c1.2,4.3,3,10.5,5.2,18.5c2.2,8,4.9,17.7,8,28.7c1.6,5.5,3.4,11.4,4.9,17.7
			c1.5,6.3,2.8,13,4.1,20c1.2,7,2.5,14.3,3.8,21.8c0.3,1.9,0.7,3.8,1.1,5.7c0.4,1.9,0.7,3.8,1.2,5.7c0.9,3.7,2.3,7.4,5,10.2
			c2.6,2.8,6.3,4.7,9.7,7.3c0.9,0.6,1.7,1.3,2.5,2.1c0.7,0.7,1.5,1.5,2.2,2.4c1.4,1.7,2.7,3.6,3.5,5.7c0.9,2.1,1.2,4.6,0.8,7
			c-0.2,1.2-0.6,2.3-1.1,3.4l-0.4,0.8c-0.2,0.3-0.3,0.5-0.4,0.7c-0.3,0.5-0.7,1-1,1.5c-2.9,3.7-6.7,6-9,9.5
			c-2.4,3.4-3.9,7.5-4.2,11.8c-0.2,2.1,0,4.3,0.4,6.4c0.4,2.1,1.2,4.2,2.1,6.2c0.9,2,2,4,3.2,5.9l1.8,2.9c0.6,0.9,1.2,1.9,1.9,2.8
			c2.6,3.8,5.3,7.5,8.2,11c2.9,3.6,6,7,9.3,10.3c1.6,1.6,3.3,3.3,5,4.8c1.7,1.5,3.5,3,5.4,4.4c3.7,2.7,7.7,5.3,11.6,7.9
			c3.8,2.5,8,4.6,12.3,5c2.2,0.2,4.3-0.1,6.3-0.8c1-0.4,1.9-0.9,2.7-1.5l0.6-0.5l0.7-0.6l1.3-1.2c3.6-3.2,7.3-6.1,11-9.1
			c7.3-5.9,14.6-11.8,21-18.3c3.2-3.3,6.2-6.8,8.7-10.5c2.5-3.7,4.6-7.7,5.8-11.9c2.7-8.4,1.5-17.6-2.3-25.3
			c-1.9-3.9-4.2-7.7-6.1-11.7c-1-2-1.8-4.1-2.4-6.2c-0.6-2.2-1-4.5-0.8-6.8c0.1-1.2,0.3-2.3,0.7-3.4c0.4-1.1,0.9-2.2,1.5-3.1
			c1.3-1.9,2.9-3.5,4.7-4.7c3.6-2.5,7.4-4.1,10.2-6.7c2.9-2.5,4.2-6.2,5.1-9.9c0.9-3.8,1.3-7.6,1.9-11.4c1.3-7.6,3-14.8,3.9-21.7
			c0.2-1.7,0.4-3.5,0.6-5.2c0.2-1.7,0.4-3.4,0.7-5.1c0.5-3.4,1-6.7,1.7-9.8c1.2-6.4,2.6-12.3,4-17.9c2.7-11.2,5.1-20.9,6.7-29.1
			c1.6-8.1,2.6-14.5,3-18.9c0.1-1.1,0.2-2.1,0.3-2.9c0.1-0.8,0.1-1.6,0.2-2.1c0.1-1.1,0.1-1.7,0.1-1.7s0,0.6-0.1,1.7
			c0,0.6-0.1,1.3-0.1,2.1c-0.1,0.8-0.1,1.8-0.2,2.9c-0.4,4.4-1.1,10.9-2.6,19c-1.5,8.1-3.7,18-6.2,29.2c-2.5,11.3-5.1,23.9-6.3,38.1
			c-0.8,7.1-2.5,14.3-3.7,21.8c-0.6,3.7-0.9,7.6-1.8,11.6c-0.4,2-1,3.9-1.9,5.9c-0.2,0.5-0.5,1-0.7,1.5l-0.4,0.6l-0.2,0.4l-0.2,0.3
			c-0.6,0.9-1.4,1.7-2.2,2.4c-3.2,2.9-7.1,4.6-10.3,7c-3.2,2.3-5.7,5.6-5.8,9.5c-0.1,1.9,0.2,3.9,0.8,5.9c0.6,2,1.4,3.9,2.3,5.8
			c1.8,3.9,4.1,7.6,6.1,11.7c0.5,1,1,2,1.4,3.1c0.2,0.6,0.4,1.1,0.6,1.6l0.5,1.7l0.5,1.7l0.4,1.7c0.3,1.1,0.4,2.3,0.5,3.4
			c0.2,1.2,0.1,2.3,0.2,3.5c0,1.2-0.1,2.3-0.1,3.5c-0.3,2.3-0.7,4.7-1.4,6.9c-1.3,4.5-3.5,8.8-6.1,12.7c-2.6,3.9-5.7,7.5-9,10.9
			c-6.6,6.8-13.9,12.7-21.2,18.7c-3.7,3-7.3,5.9-10.8,9l-1.3,1.2l-0.7,0.6c-0.3,0.2-0.5,0.4-0.8,0.6c-1.1,0.8-2.2,1.5-3.5,1.9
			c-2.5,0.9-5.1,1.2-7.6,1c-5.2-0.5-9.7-2.9-13.7-5.5c-3.9-2.7-7.8-5.2-11.7-8.1c-1.9-1.4-3.8-2.9-5.6-4.6c-1.8-1.6-3.4-3.3-5.1-5
			c-3.3-3.4-6.4-6.9-9.4-10.5c-3-3.6-5.8-7.4-8.3-11.3c-0.7-1-1.3-1.9-1.9-2.9l-1.8-2.9c-1.2-2-2.4-4-3.3-6.2
			c-1-2.1-1.8-4.4-2.3-6.7c-0.5-2.4-0.6-4.8-0.4-7.1c0.4-4.7,2.1-9.3,4.8-13.1c2.7-3.9,6.7-6.3,9.1-9.5c0.3-0.4,0.6-0.8,0.8-1.2
			c0.1-0.2,0.3-0.5,0.4-0.7l0.3-0.7c0.4-0.9,0.7-1.8,0.9-2.7c0.3-1.9,0.1-3.8-0.6-5.7c-0.7-1.8-1.8-3.5-3-5.1
			c-0.6-0.8-1.3-1.5-2.1-2.2c-0.7-0.7-1.5-1.3-2.3-1.9c-3.2-2.5-6.9-4.5-9.9-7.6c-0.4-0.4-0.7-0.8-1-1.2c-0.4-0.5-0.7-0.9-1-1.3
			c-0.6-0.9-1.1-1.8-1.5-2.8c-0.9-1.9-1.4-3.9-1.9-5.9c-0.5-2-0.8-3.9-1.1-5.8c-0.3-1.9-0.7-3.8-1-5.7c-1.2-7.5-2.4-14.8-3.6-21.8
			c-1.2-7-2.4-13.6-3.8-19.9c-1.4-6.3-3-12.2-4.5-17.8c-3-11.1-5.4-20.9-7.5-28.9c-2.1-8-3.7-14.3-4.8-18.6
			C255.1,355.7,254.5,353.4,254.5,353.4z"/>
	</g>
	<g>
		<path d="M307.3,510.2c0,0,0.3,0.2,1,0.4c0.6,0.2,1.6,0.4,2.9,0.6c1.3,0.2,2.8,0.4,4.5,0.5c1.8,0.2,3.8,0.3,5.9,0.4
			c4.3,0.3,9.4,0.5,14.9,0.6c2.7,0.1,5.5,0.2,8.4,0.2c2.8-0.1,5.8-0.2,8.7-0.3c5.8-0.1,11.6-0.2,17.1-0.3c2.7-0.1,5.4-0.1,7.8-0.2
			c1.2,0,2.5-0.1,3.6-0.2c1.2,0,2.3-0.1,3.4-0.2c2.2-0.1,4.2-0.3,5.9-0.4c1.8-0.2,3.3-0.3,4.5-0.5c1.3-0.2,2.2-0.4,2.9-0.5
			c0.7-0.1,1-0.2,1-0.2s-0.3,0.1-1,0.3c-0.7,0.2-1.6,0.5-2.9,0.8c-1.2,0.3-2.8,0.6-4.5,0.9c-1.8,0.3-3.7,0.6-5.9,0.8
			c-2.2,0.3-4.5,0.5-7,0.7c-2.5,0.2-5.1,0.4-7.9,0.5c-2.7,0.1-5.6,0.2-8.4,0.3c-2.9,0.1-5.8,0.1-8.7,0.2c-2.9,0.1-5.8,0.1-8.7,0.2
			c-2.9-0.1-5.7-0.2-8.4-0.3c-5.5-0.3-10.5-0.8-14.9-1.3c-2.2-0.2-4.2-0.5-5.9-0.8c-1.8-0.3-3.3-0.6-4.5-0.9
			c-1.2-0.3-2.2-0.6-2.8-0.9C307.6,510.5,307.3,510.2,307.3,510.2z"/>
	</g>
	<g>
		<path d="M326.9,489.4c0,0-0.5-3.4-1.5-9.3c-0.5-3-1-6.6-1.6-10.7c-0.6-4.1-1.2-8.8-1.5-14c-0.3-5.1-0.6-10.8,0.2-16.7
			c0.8-5.9,1.8-12,3.4-18.3c0.8-3.1,1.8-6.3,3.1-9.4c1.3-3.1,3-6.2,5.6-8.7c1.2-1.2,2.5-2.4,3.9-3.5c1.4-1.1,2.8-2,4.4-2.9
			c3.1-1.7,6.5-3,10.1-3.3c3.6-0.3,7.3,0.4,10.5,2.1c3.2,1.7,5.8,4.2,7.8,7c2.1,2.8,3.5,6,4.5,9.2c1,3.2,1.6,6.5,2,9.7
			c0.8,6.4,1.1,12.7,1.1,18.6c0,5.9-0.2,11.5-0.5,16.7c-0.3,5.1-0.7,9.9-1.2,14c-0.4,4.2-0.9,7.8-1.2,10.8c-0.7,6-1.2,9.4-1.2,9.4
			s0.3-3.4,0.8-9.4c0.5-6,1.2-14.5,1.7-24.8c0.2-5.1,0.3-10.7,0.1-16.6c0-1.5-0.1-3-0.2-4.5c-0.1-1.5-0.2-3-0.3-4.6
			c-0.1-1.5-0.3-3.1-0.4-4.7c-0.1-1.6-0.3-3.1-0.5-4.7c-0.9-6.3-2.5-12.8-6.3-18.1c-1.9-2.6-4.4-4.9-7.2-6.4
			c-2.9-1.5-6.2-2.2-9.4-1.9c-3.3,0.3-6.4,1.4-9.3,3c-1.4,0.8-2.8,1.7-4.1,2.7c-1.3,1-2.5,2.1-3.7,3.3c-2.3,2.2-3.9,5.1-5.2,8.1
			c-1.3,3-2.3,6.1-3.1,9.2c-1.6,6.2-2.8,12.3-3.7,18.1c-0.8,5.8-0.7,11.3-0.5,16.5c0.3,5.1,0.7,9.8,1.2,14c0.5,4.2,0.9,7.8,1.3,10.8
			C326.5,486,326.9,489.4,326.9,489.4z"/>
	</g>
	<g>
		<path d="M376.6,489.4c0,0,0-0.5,0.1-1.6c0.1-1,0.1-2.5,0.2-4.4c0.2-1.9,0.3-4.2,0.6-6.8c0.1-1.3,0.3-2.7,0.4-4.2
			c0.2-1.5,0.4-3,0.6-4.6c0.4-3.2,0.9-6.7,1.6-10.4c0.3-1.8,0.6-3.7,1-5.7c0.4-1.9,0.7-3.9,1.2-5.9c0.8-4,1.8-8.1,2.9-12.2
			c0.6-2.1,1.1-4.2,1.7-6.2c0.6-2.1,1.2-4.2,2-6.2l1.1-3.1l1.2-3c0.7-2,1.7-4,2.6-6c0.5-1,1-1.9,1.5-2.9l0.8-1.4l0.9-1.3l0.9-1.3
			c0.2-0.2,0.3-0.4,0.5-0.7l0.5-0.6c0.7-0.8,1.6-1.6,2.5-2.2c3.5-2.5,7.8-3.4,11.6-3.1c1,0.1,1.9,0.2,2.8,0.5
			c0.4,0.1,0.9,0.3,1.4,0.5c0.4,0.2,0.9,0.4,1.3,0.6c1.6,0.9,3,2.1,4.1,3.4c2.2,2.6,3.4,5.5,3.9,8.1c0.6,2.6,0.6,5,0.6,6.9
			c0,1.9-0.2,3.4-0.3,4.4c-0.1,1-0.2,1.6-0.2,1.6s0-0.5,0.1-1.6c0-1,0.1-2.5,0-4.4c-0.1-1.9-0.3-4.2-0.9-6.7c-0.7-2.5-1.9-5.2-4-7.6
			c-1.1-1.1-2.3-2.2-3.8-2.9c-1.5-0.8-3.1-1.1-4.9-1.2c-3.5-0.2-7.4,0.8-10.5,3.1c-0.8,0.6-1.5,1.2-2.1,1.9l-0.5,0.6
			c-0.1,0.1-0.3,0.4-0.4,0.6l-0.8,1.3l-0.8,1.3l-0.7,1.4c-0.5,0.9-1,1.8-1.5,2.8c-0.8,1.9-1.8,3.8-2.5,5.9l-1.2,3l-1,3.1
			c-0.7,2-1.3,4.1-2,6.2c-0.7,2-1.2,4.1-1.8,6.2c-1.1,4.1-2.1,8.2-3,12.1c-0.5,2-0.9,3.9-1.3,5.8c-0.4,1.9-0.8,3.8-1.1,5.6
			c-0.7,3.6-1.3,7.1-1.9,10.3c-0.5,3.2-1,6.1-1.4,8.8c-0.4,2.6-0.7,4.9-0.9,6.8C376.8,487.2,376.6,489.4,376.6,489.4z"/>
	</g>
	<g>
		<path d="M327.2,489.4c0,0-0.2-2.2-0.7-5.9c-0.3-1.9-0.5-4.2-0.9-6.8c-0.4-2.6-0.9-5.6-1.4-8.8c-0.6-3.2-1.2-6.7-1.9-10.3
			c-0.4-1.8-0.7-3.7-1.1-5.6c-0.4-1.9-0.8-3.9-1.3-5.8c-0.9-4-1.9-8-3-12.1c-0.6-2-1.1-4.1-1.8-6.2c-0.6-2.1-1.2-4.1-2-6.2l-1-3.1
			l-1.2-3c-0.7-2-1.7-3.9-2.5-5.9c-0.4-1-1-1.9-1.5-2.8l-0.7-1.4l-0.8-1.3l-0.8-1.3c-0.1-0.2-0.3-0.5-0.4-0.6l-0.5-0.6
			c-0.6-0.7-1.3-1.4-2.1-1.9c-3.1-2.3-7-3.2-10.5-3.1c-1.8,0.1-3.5,0.5-4.9,1.2c-1.5,0.7-2.8,1.8-3.8,2.9c-2.1,2.3-3.4,5-4,7.6
			c-0.7,2.5-0.9,4.8-0.9,6.7c-0.1,1.9,0,3.4,0,4.4c0,1,0.1,1.6,0.1,1.6s-0.1-0.5-0.2-1.6c-0.1-1-0.3-2.5-0.3-4.4
			c0-1.9,0-4.2,0.6-6.9c0.5-2.6,1.7-5.6,3.9-8.1c1.1-1.3,2.4-2.5,4.1-3.4c0.4-0.2,0.8-0.4,1.3-0.6c0.4-0.2,0.9-0.4,1.4-0.5
			c0.9-0.3,1.9-0.4,2.8-0.5c3.9-0.3,8.1,0.6,11.6,3.1c0.9,0.6,1.7,1.4,2.5,2.2l0.5,0.6c0.2,0.3,0.3,0.5,0.5,0.7l0.9,1.3l0.9,1.3
			l0.8,1.4c0.5,1,1.1,1.9,1.5,2.9c0.9,2,1.9,3.9,2.6,6l1.2,3l1.1,3.1c0.7,2.1,1.3,4.2,2,6.2c0.7,2.1,1.2,4.2,1.7,6.2
			c1.1,4.1,2,8.3,2.9,12.2c0.4,2,0.8,4,1.2,5.9c0.4,1.9,0.7,3.8,1,5.7c0.7,3.7,1.1,7.2,1.6,10.4c0.2,1.6,0.4,3.2,0.6,4.6
			c0.1,1.5,0.3,2.9,0.4,4.2c0.3,2.6,0.4,4.9,0.6,6.8c0.1,1.9,0.2,3.4,0.2,4.4C327.1,488.8,327.2,489.4,327.2,489.4z"/>
	</g>
	<g>
		<path d="M282.1,685.8c0,0,0.6,0.1,1.7,0.4c1.1,0.2,2.7,0.5,4.7,0.9c4.1,0.8,9.9,1.7,16.9,2.7c3.5,0.5,7.3,1,11.3,1.4
			c4,0.4,8.3,0.8,12.7,1.1c4.4,0.4,9,0.6,13.6,0.8c4.6,0.1,9.3,0.2,14,0.1c2.4,0,4.7,0,7-0.1c1.2,0,2.3-0.1,3.5-0.1
			c1.2-0.1,2.3-0.1,3.5-0.2c2.3-0.1,4.6-0.3,6.9-0.5c2.3-0.2,4.5-0.4,6.7-0.7c4.4-0.5,8.6-1.1,12.6-1.8c2-0.3,3.9-0.7,5.8-1.1
			c0.9-0.2,1.9-0.4,2.8-0.5c0.9-0.2,1.8-0.4,2.6-0.6c3.4-0.8,6.6-1.6,9.3-2.4c2.8-0.8,5.1-1.6,7.1-2.2c3.9-1.4,6.1-2.2,6.1-2.2
			s-2.2,0.9-6,2.5c-1.9,0.7-4.3,1.6-7,2.5c-1.4,0.4-2.8,0.9-4.4,1.4c-1.5,0.5-3.2,0.9-4.9,1.4c-0.9,0.2-1.7,0.5-2.6,0.7
			c-0.9,0.2-1.8,0.4-2.8,0.6c-1.9,0.4-3.8,0.9-5.8,1.3c-4,0.8-8.2,1.5-12.6,2.1c-2.2,0.3-4.4,0.6-6.7,0.7c-2.3,0.2-4.6,0.4-6.9,0.6
			c-1.2,0.1-2.3,0.2-3.5,0.2c-1.2,0-2.4,0.1-3.5,0.1c-2.4,0.1-4.7,0.2-7.1,0.2c-4.7,0-9.5-0.1-14.1-0.3c-4.7-0.2-9.2-0.5-13.7-0.9
			c-4.4-0.4-8.7-0.9-12.7-1.4c-4-0.6-7.8-1.1-11.3-1.7c-3.5-0.6-6.7-1.2-9.5-1.8c-2.8-0.6-5.3-1.2-7.3-1.6
			C284.3,686.4,282.1,685.8,282.1,685.8z"/>
	</g>
	<g>
		<path d="M339.4,654.9c0,0,1.6,0.5,4.1,0.9c0.6,0.1,1.3,0.2,2,0.3c0.7,0.1,1.4,0.2,2.2,0.3c0.8,0.1,1.5,0.2,2.3,0.2
			c0.4,0,0.8,0,1.2,0.1l1.2,0c0.8,0,1.6,0,2.4-0.1c0.8,0,1.6-0.1,2.3-0.2c0.8,0,1.5-0.2,2.2-0.3c0.7-0.1,1.3-0.2,2-0.4
			c0.6-0.1,1.2-0.2,1.7-0.3c0.5-0.1,0.9-0.2,1.3-0.3c0.7-0.2,1.1-0.3,1.1-0.3s-0.3,0.2-1,0.6c-0.3,0.2-0.7,0.4-1.2,0.7
			c-0.5,0.3-1,0.5-1.6,0.7c-0.6,0.3-1.2,0.5-2,0.7c-0.7,0.2-1.4,0.5-2.3,0.6c-0.8,0.1-1.6,0.4-2.5,0.4c-0.8,0.1-1.7,0.1-2.6,0.1
			l-1.3,0c-0.4,0-0.9-0.1-1.3-0.1c-0.8,0-1.7-0.2-2.5-0.4c-0.8-0.2-1.5-0.4-2.2-0.6c-0.7-0.2-1.4-0.4-2-0.7c-1.2-0.5-2.1-1-2.8-1.4
			C339.7,655.2,339.4,654.9,339.4,654.9z"/>
	</g>
	<g>
		<path d="M324.7,619.6c0,0,0.2,0.1,0.6,0.2c0.4,0.1,1,0.3,1.8,0.5c0.8,0.2,1.7,0.5,2.8,0.7c1.1,0.3,2.3,0.5,3.6,0.8
			c0.7,0.1,1.4,0.2,2.1,0.3c0.7,0.1,1.5,0.3,2.2,0.3c0.8,0.1,1.6,0.2,2.4,0.3c0.8,0.1,1.6,0.1,2.5,0.2c1.7,0.2,3.4,0.2,5.2,0.3
			c1.8,0.1,3.6,0,5.4,0c1.8-0.1,3.6-0.1,5.4-0.2c1.8-0.2,3.5-0.3,5.2-0.4c1.7-0.2,3.3-0.4,4.9-0.6c1.5-0.2,3-0.5,4.3-0.7
			c1.3-0.2,2.6-0.4,3.7-0.7c1.1-0.2,2-0.4,2.8-0.6c1.6-0.3,2.5-0.5,2.5-0.5s-0.9,0.3-2.4,0.9c-0.8,0.3-1.7,0.6-2.7,1
			c-1.1,0.4-2.3,0.7-3.6,1.1c-1.3,0.3-2.8,0.8-4.3,1.1c-1.6,0.3-3.2,0.6-4.9,0.9c-1.7,0.2-3.5,0.4-5.3,0.6c-1.8,0.1-3.7,0.2-5.5,0.3
			c-1.8,0-3.7,0-5.5-0.1c-1.8-0.1-3.6-0.2-5.3-0.5c-0.9-0.1-1.7-0.2-2.5-0.3c-0.8-0.2-1.6-0.3-2.4-0.5c-1.6-0.3-3-0.7-4.3-1
			c-1.3-0.4-2.5-0.8-3.6-1.1c-1.1-0.4-2-0.8-2.7-1.1C325.5,620.1,324.7,619.6,324.7,619.6z"/>
	</g>
</g>
</svg>
