<?xml version="1.0" encoding="utf-8"?>
<!-- Generator: Adobe Illustrator 19.2.0, SVG Export Plug-In . SVG Version: 6.00 Build 0)  -->
<svg version="1.1" id="Layer_1" xmlns="http://www.w3.org/2000/svg" xmlns:xlink="http://www.w3.org/1999/xlink" x="0px" y="0px"
	 viewBox="0 0 460 309.4" style="enable-background:new 0 0 460 309.4;" xml:space="preserve">
<style type="text/css">
	.st0{fill:none;stroke:#000000;stroke-width:5;stroke-miterlimit:10;}
	.st1{opacity:0.9;fill:url(#SVGID_1_);enable-background:new    ;}
	.st2{fill:url(#SVGID_2_);}
</style>
<path class="st0" d="M6588.6-961.2c0.3,38.5,0.2,82.4-5.7,120.5c-2.3,14.7-3.7,31.7-10.6,44.9c-9.4,17.9-18.6,35.9-34,49.5
	c-5.5,4.9-11.5,9.2-17.9,12.8c-4.2,2.3-15.3,5.1-15.9,10.8c-0.4,3.6,3.8,5.7,6.9,7.6c6.9,4.3,10.9,12.3,11.6,20.4
	c1.5,15.4-5.6,30.7-18.9,38.8c-0.8,0.5-1.6,1-1.9,1.8c-0.7,2.1,2.1,3.4,4.2,3.8c12.1,2.1,24,5,35.7,8.7c7.7,2.4,24.3,10.6,12,18.5
	c-7.7,4.9-17,6.2-26,7.3c-24.7,3.1-49.7,6.2-74.5,3.9c-5.6-0.5-11.2-1.4-16.8-2.2l-22.5-3.3c-5.3-0.8-11.8-2.7-12.7-7.9
	c-1.7-10.2,16.6-15.1,23.6-17.2c4.9-1.5,36.5-4.6,35.6-9.3c-0.5-2.4-2.8-3.9-4.8-5.4c-8.9-6.4-15-16.4-16.6-27.2
	c-1.6-10.8,1.3-22.2,7.9-30.9c2.2-2.9,4.9-6,4.4-9.6c-0.2-1.5-1-2.9-2-4.1c-5.1-6.7-15.9-9.5-22.8-14.7c-7.9-6-15.2-12.8-21.6-20.4
	c-12.5-14.5-22.1-31.5-27.6-49.9c-5.2-17.2-6.9-35.3-8.2-53.2c-2.3-31-3.6-62-3.8-93.1c20.2-2.4,42-1.8,62.4-1.4
	C6480.9-960.6,6588.6-963.3,6588.6-961.2L6588.6-961.2z"/>
<path d="M6462-646.3v1.9c0,0.6,0.1,1.3,0.6,1.9c0.4,0.6,1.2,0.8,2.2,0.8c2.1-0.1,4.5-0.2,7.1-0.2c1.3,0,2.7-0.1,4-0.1
	c1.4-0.1,2.8-0.1,4.1-0.2c1.4-0.1,2.8-0.1,4.1-0.2c1.4-0.1,2.7-0.1,4-0.2c2.6-0.1,5-0.2,7.1-0.3c2-0.1,3.7-0.6,4.6-1.3
	c0.4-0.4,0.7-0.8,0.8-1.1c0.1-0.3,0.2-0.5,0.2-0.5v0.5c-0.1,0.3-0.2,0.8-0.6,1.3s-1.1,1-1.9,1.4c-0.8,0.4-1.8,0.7-2.8,0.8
	c-2.1,0.4-4.5,0.7-7.1,0.9c-1.3,0.1-2.7,0.3-4,0.4c-1.4,0.1-2.8,0.2-4.2,0.2c-1.4,0-2.8,0.1-4.2,0.1h-4.1c-2.6-0.1-5.1-0.2-7.2-0.4
	c-0.5-0.1-1.1-0.1-1.6-0.4s-0.9-0.7-1.1-1.1c-0.4-0.9-0.4-1.7-0.3-2.3c0.1-0.6,0.2-1.1,0.3-1.4C6461.9-646.1,6462-646.3,6462-646.3
	L6462-646.3z M6461.6-730.9c0,0,0.6,0.2,1.6,0.5c0.5,0.2,1.2,0.3,1.9,0.5s1.6,0.4,2.4,0.5c0.9,0.2,1.9,0.3,2.9,0.5
	c1,0.1,2.1,0.2,3.3,0.3c1.1,0.1,2.3,0.1,3.5,0.2h3.6c1.2,0,2.5,0,3.7-0.1c1.2,0,2.4-0.1,3.6-0.1c2.3-0.1,4.5-0.1,6.3-0.3
	c1.8-0.2,3.2-0.6,4.1-1.2c0.4-0.3,0.8-0.6,1-0.8l0.3-0.3c0,0-0.1,0.1-0.2,0.4c-0.2,0.3-0.4,0.6-0.8,1c-0.8,0.8-2.3,1.6-4.2,2
	c-0.9,0.2-2,0.4-3,0.5c-1.1,0.1-2.2,0.3-3.3,0.4l-3.6,0.3c-1.2,0.1-2.5,0.1-3.7,0.2c-1.3,0-2.5,0-3.7-0.1c-0.6,0-1.2-0.1-1.8-0.1
	c-0.6-0.1-1.2-0.1-1.8-0.2c-1.2-0.1-2.3-0.4-3.4-0.6c-0.5-0.1-1-0.3-1.5-0.4c-0.5-0.2-1-0.3-1.4-0.4c-1.8-0.6-3.2-1.3-4.2-1.8
	C6462.2-730.6,6461.6-730.9,6461.6-730.9L6461.6-730.9z M6411.5-628.8l0.3,0.3c0.2,0.2,0.5,0.4,1,0.6c0.9,0.5,2.3,1,4.2,1.4
	c1.9,0.4,4.2,0.7,6.8,1.1c2.6,0.4,5.6,0.7,8.9,1.1c3.3,0.3,6.8,0.7,10.6,1c3.7,0.3,7.7,0.5,11.8,0.7c8.2,0.3,17,0.5,25.7,0.6
	c4.4,0.1,8.8,0.1,13.1,0.2c4.3,0,8.5,0.1,12.6,0c4.1-0.1,8-0.4,11.7-0.8c3.7-0.5,7.2-1.1,10.4-1.7c6.4-1.4,11.6-3,15.2-4.3
	c1.8-0.7,3.2-1.2,4.2-1.6l1.5-0.6c0,0-0.5,0.2-1.4,0.7c-0.9,0.4-2.3,1.1-4.1,1.8c-3.5,1.5-8.7,3.5-15.1,5.1
	c-6.4,1.6-14.1,2.9-22.3,3.2c-4.1,0.2-8.4,0.2-12.7,0.2c-4.3,0-8.7-0.1-13.1-0.1c-4.4-0.1-8.8-0.2-13.1-0.3
	c-4.3-0.1-8.6-0.4-12.7-0.6c-4.1-0.3-8.1-0.6-11.8-1c-3.8-0.4-7.3-0.8-10.6-1.3c-1.6-0.3-3.2-0.5-4.7-0.7c-1.5-0.3-2.9-0.5-4.2-0.8
	c-2.6-0.5-4.9-1-6.8-1.5s-3.3-1.1-4.1-1.7c-0.4-0.3-0.7-0.5-0.9-0.7C6411.6-628.7,6411.5-628.8,6411.5-628.8L6411.5-628.8z"/>
<linearGradient id="SVGID_1_" gradientUnits="userSpaceOnUse" x1="6378.7998" y1="1261.2004" x2="6584.7002" y2="1261.2004" gradientTransform="matrix(1 0 0 -1 0 421.8235)">
	<stop  offset="1.800000e-02" style="stop-color:#801FE3"/>
	<stop  offset="1" style="stop-color:#B7A7FF"/>
</linearGradient>
<path class="st1" d="M6378.8-933c1.4,24.4,2.7,48.8,4.1,73.2c0.4,7.9,0.9,15.9,2.2,23.7c1.8,11.1,5.4,21.8,8.9,32.5
	c3,9.1,6,18.2,11.1,26.3c17.8,28.1,51.5,32.7,81.9,31.3c10.6-0.5,21.3-1.5,31.5-4.7c66.9-21.3,65.2-117,66.1-172.7
	c0-2.6,0.1-5.1,0.1-7.7C6516-928.9,6447.2-927.1,6378.8-933L6378.8-933z"/>
<path d="M6373.7-952.7c0,0,0.6,8.1,1.5,22.2c0.5,7.1,1,15.6,1.7,25.5c0.6,9.8,1.4,20.9,2.1,33.1c0.4,6.1,0.7,12.4,1.3,18.9
	c0.5,6.5,1.4,13.2,3,19.9c1.6,6.7,3.7,13.5,6,20.4c2.4,6.9,4.5,14,7.5,20.9c0.8,1.7,1.5,3.4,2.4,5.1c0.9,1.6,1.8,3.3,2.8,4.8
	c1.1,1.6,2.2,3.1,3.4,4.7c1.2,1.4,2.5,2.8,3.7,4.3c5.3,5.5,11.7,10,18.8,13.2c7.1,3.3,14.8,5.4,22.6,6.6c7.9,1.3,15.9,1.7,23.9,1.7
	c8-0.1,16.1-0.4,24-1.5c3.9-0.5,7.9-1.2,11.7-2.2c1-0.3,1.9-0.5,2.8-0.8l0.7-0.2h0.1l0.2-0.1l0.4-0.1l1.4-0.5l2.8-1
	c0.5-0.2,0.9-0.3,1.4-0.5l1.3-0.6c7.1-3.1,13.7-7.4,19.4-12.5c5.7-5.1,10.5-11.1,14.4-17.5c4-6.3,7.1-13.1,9.7-19.8
	c2.6-6.8,4.6-13.6,6.3-20.3c3.2-13.5,5-26.5,6.2-38.5c1.1-12.1,1.7-23.2,2-33c0.3-9.9,0.5-18.4,0.7-25.5c0.2-14.2,0.4-22.2,0.4-22.2
	s0,2,0.1,5.8c0,3.8,0.1,9.4,0.2,16.4c0,7.1,0,15.7-0.2,25.5c-0.1,9.9-0.5,21-1.5,33.1c-1,12.1-2.6,25.2-5.7,38.9
	c-1.6,6.8-3.6,13.7-6.1,20.6c-2.5,6.9-5.7,13.8-9.8,20.3c-4,6.5-9,12.7-14.8,18.1c-5.9,5.4-12.7,9.8-20.2,13.1l-1.4,0.6
	c-0.5,0.2-0.9,0.4-1.4,0.5l-2.8,1l-1.4,0.5l-0.4,0.1l-0.2,0.1l-0.2,0.1l-0.7,0.2c-1,0.3-2,0.6-2.9,0.8c-3.9,1-8,1.8-12,2.4
	c-8.1,1.1-16.2,1.5-24.4,1.6c-8.2,0-16.3-0.5-24.4-1.8c-8-1.3-16-3.5-23.3-7c-7.4-3.4-14.1-8.1-19.6-13.9c-1.3-1.5-2.6-3.1-3.9-4.6
	c-1.1-1.6-2.2-3.2-3.3-4.7c-2.2-3.4-3.9-6.8-5.4-10.4c-3-7.1-5.2-14.2-7.5-21.2c-2.2-7-4.3-13.9-5.8-20.7
	c-1.6-6.9-2.4-13.6-2.8-20.2c-0.5-6.6-0.7-12.9-1-18.9c-0.6-12.1-1.1-23.2-1.6-33.1c-0.5-9.9-0.8-18.4-1.2-25.5
	C6374-944.7,6373.7-952.7,6373.7-952.7L6373.7-952.7z"/>
<path d="M6374.1-937.3c0,0,0.8,0,2.4,0.1s3.8,0.2,6.7,0.3c2.9,0.2,6.4,0.3,10.5,0.5c4,0.2,8.6,0.3,13.6,0.5s10.4,0.3,16.1,0.5
	s11.7,0.2,17.9,0.4c6.2,0.1,12.6,0.1,19.2,0.2c6.5,0.1,13.2,0,19.8,0.1c6.6,0,13.3,0,19.8-0.1s13-0.1,19.2-0.2
	c12.5-0.1,24.1-0.2,34-0.3c10-0.1,18.3-0.1,24.1-0.1h9.1c0,0-0.8,0.1-2.4,0.2c-1.6,0.1-3.8,0.2-6.7,0.4c-5.8,0.3-14.1,0.8-24.1,1.3
	s-21.6,0.9-34,1.3c-6.2,0.1-12.7,0.4-19.2,0.4c-6.5,0.1-13.2,0.1-19.8,0.2c-6.6,0-13.3,0-19.8-0.2c-6.5-0.1-13-0.3-19.2-0.4
	c-6.2-0.2-12.3-0.4-18-0.8c-2.9-0.2-5.6-0.3-8.3-0.5c-2.7-0.2-5.3-0.4-7.8-0.5c-2.5-0.2-4.9-0.3-7.1-0.5c-2.3-0.2-4.4-0.4-6.4-0.6
	c-4-0.4-7.6-0.7-10.4-1c-2.9-0.3-5.2-0.6-6.7-0.7C6374.9-937.2,6374.1-937.3,6374.1-937.3L6374.1-937.3z"/>
<linearGradient id="SVGID_2_" gradientUnits="userSpaceOnUse" x1="166.4814" y1="332.1581" x2="297.5355" y2="332.1581" gradientTransform="matrix(1 0 0 -1 0 421.8235)">
	<stop  offset="0" style="stop-color:#F9D178"/>
	<stop  offset="1" style="stop-color:#FFD265"/>
</linearGradient>
<path class="st2" d="M296.9,34.3c-6.1,27.4-6.3,56-0.7,83.4c1.5,7.2,2.9,16-2.7,20.8c-2.8,2.4-9.8,5.7-13.4,6.2
	c-35.2,5.1-68.9,7.3-102.4-4.6c-4.6-1.6-9.6-4.2-10.9-8.9c-0.7-2.6-0.1-5.3,0.4-8c6.7-30.5,11.7-62.4,4-92.7
	C212.2,31.8,255.9,33.3,296.9,34.3L296.9,34.3z"/>
<path class="st0" d="M303.9,9.7c-1.6,13.3-6.7,27.4-7.5,41.2c-0.8,14.5,0.6,29.1,3.3,43.4c2,10.9,3.5,22,5.6,32.8
	c1.8,8.8,0.9,19.9-5,27.3c-4,4.9-9.9,7.6-15.2,11.1c-24.9,16.2-27.1,42-25.7,69.3c0.7,13.6,9.7,30.9,22.8,35.5
	c4.8,1.7,10,2.2,14.7,4.1c4.7,1.9,9.2,1.7,9.8,6.8c0.4,3.2-0.9,6.4-2.6,9c-4,6-31.6,16.7-71.7,16.2c-20.6-0.3-41.5-0.8-61-7.6
	c-8-2.8-17.3-9.5-14.4-17.5c2.7-7.4,12.8-7.4,20.4-9.2c12-2.8,21.2-13.2,25.4-24.7c4.2-11.6,4.2-24.3,2.9-36.5
	c-0.8-8-2.2-16.1-6.4-22.9c-8.4-13.5-25.6-18.2-38.1-28c-2.7-2.2-5.3-4.7-6.7-7.9c-1.6-3.7-1.3-7.8-1-11.8
	c3.7-40.3,19.1-81.6,6.8-120.2c-1-3.1-3.8-7.6-4-10.9C156.2,8.3,257.6,9,290.9,9.6C295.8,9.7,299.3,10.2,303.9,9.7L303.9,9.7z"/>
<path d="M163.9,13.8c0,0,0.2,0.3,0.4,1c0.3,0.6,0.7,1.6,1.2,2.8c1,2.5,2.4,6.2,3.4,11.2c0.6,2.5,1,5.2,1.5,8.2s0.9,6.3,1.3,9.8
	c0.7,7,0.9,15,0.3,23.6c-0.5,8.6-1.6,18-3.2,27.7c-0.8,4.9-1.7,9.9-2.8,15c-0.5,2.5-1,5.1-1.6,7.7c-0.2,1.2-0.3,2.5-0.3,3.6
	c0,0.6,0.2,1.2,0.3,1.7c0.1,0.3,0.2,0.7,0.3,0.9c0.1,0.2,0.2,0.5,0.4,0.7c1.2,2,3.3,3.5,5.6,4.6c1.2,0.6,2.4,1.1,3.7,1.5
	c1.3,0.4,2.6,0.9,3.9,1.3c2.6,0.9,5.3,1.6,7.9,2.3c1.3,0.4,2.7,0.6,4.1,1c1.4,0.3,2.7,0.7,4.1,0.9c2.8,0.5,5.5,1,8.3,1.4
	s5.6,0.7,8.4,1c5.7,0.5,11.4,0.7,17.1,0.7c11.4,0.1,22.8-0.9,34-2.1c2.8-0.3,5.6-0.7,8.4-1c1.4-0.2,2.8-0.4,4.1-0.6
	c0.7-0.1,1.4-0.2,2-0.3c0.4-0.1,0.6-0.1,0.9-0.2l0.9-0.3c2.5-0.8,5-1.9,7.3-3.2c1.1-0.6,2.3-1.3,3.2-2.1l0.7-0.6
	c0.3-0.2,0.4-0.5,0.6-0.7c0.4-0.4,0.6-0.9,1-1.4c1.1-2.1,1.4-4.6,1.4-7.2c0-2.5-0.4-5.1-0.8-7.6c-0.5-2.5-0.9-5.1-1.4-7.6
	c-0.4-2.5-0.8-5-1.1-7.5c-1.3-9.8-1.9-19.2-1.9-27.9s0.6-16.6,1.5-23.5c0.9-7,2.2-13,3.5-17.8c0.6-2.4,1.2-4.6,1.8-6.5
	c0.5-1.9,1-3.5,1.4-4.8c0.7-2.6,1.1-4,1.1-4s-0.3,1.4-1,4c-0.6,2.6-1.6,6.5-2.7,11.3c-1.1,4.9-2.2,10.9-2.9,17.8
	c-0.7,6.9-1.1,14.8-0.9,23.4s0.9,17.9,2.4,27.6c0.3,2.4,0.8,4.9,1.2,7.3l1.5,7.5c0.5,2.6,0.9,5.2,1,8c0,2.8-0.3,5.7-1.7,8.4
	c-0.4,0.7-0.7,1.3-1.3,1.9c-0.2,0.3-0.5,0.7-0.7,0.9l-0.8,0.8c-1.2,1-2.4,1.7-3.6,2.4c-2.5,1.4-5,2.6-7.8,3.5l-1.1,0.3
	c-0.4,0.1-0.8,0.2-1.1,0.3c-0.8,0.2-1.4,0.2-2.1,0.3l-4.2,0.6c-2.8,0.4-5.6,0.7-8.4,1.1c-11.3,1.3-22.8,2.4-34.4,2.3
	c-5.8,0-11.6-0.3-17.3-0.8c-2.9-0.3-5.7-0.6-8.6-1c-2.8-0.4-5.7-0.9-8.5-1.5c-1.4-0.2-2.8-0.6-4.2-0.9c-1.4-0.3-2.8-0.6-4.1-1
	c-2.7-0.8-5.5-1.5-8.1-2.4c-1.3-0.4-2.6-0.9-4-1.3c-1.3-0.5-2.6-1-3.9-1.7c-2.5-1.3-5.1-3-6.7-5.7c-0.2-0.3-0.4-0.7-0.5-1.1
	c-0.2-0.4-0.3-0.7-0.4-1c-0.3-0.8-0.4-1.5-0.4-2.3c-0.1-1.5,0.1-2.9,0.3-4.3c0.5-2.7,1.1-5.2,1.7-7.7c1.1-5.1,2.1-10,3-14.8
	c1.8-9.7,3-18.9,3.7-27.5c0.6-8.6,0.7-16.4,0.2-23.4c-0.2-3.5-0.6-6.7-1-9.7s-0.8-5.7-1.3-8.2c-0.9-4.9-2.1-8.7-3-11.2
	c-0.5-1.3-0.8-2.2-1.1-2.9C164,14.2,163.9,13.8,163.9,13.8L163.9,13.8z M194.2,275.1c0,0,1.1,0.4,3,1.1c0.9,0.4,2.1,0.6,3.4,1
	c0.7,0.2,1.4,0.4,2.1,0.5c0.8,0.2,1.5,0.4,2.4,0.5c0.8,0.2,1.7,0.3,2.6,0.5c0.9,0.1,1.8,0.4,2.8,0.5c1.9,0.2,3.9,0.6,6.1,0.7
	c1.1,0.1,2.1,0.2,3.2,0.3s2.2,0.1,3.3,0.2c1.1,0.1,2.2,0.1,3.4,0.1c1.1,0,2.3,0.1,3.4,0.1h3.4c1.1,0,2.2-0.1,3.4-0.1
	c2.2,0,4.4-0.2,6.5-0.3c2.1-0.2,4.2-0.3,6.1-0.5s3.8-0.4,5.4-0.7c1.7-0.2,3.2-0.4,4.6-0.7c1.4-0.2,2.6-0.4,3.5-0.7
	c1.9-0.4,3.1-0.6,3.1-0.6s-1.1,0.4-3,1c-0.9,0.3-2.1,0.6-3.5,1l-2.1,0.6c-0.8,0.2-1.6,0.3-2.4,0.5c-1.7,0.4-3.5,0.7-5.4,1
	s-4,0.6-6.1,0.8s-4.3,0.4-6.6,0.5c-1.1,0-2.3,0.1-3.4,0.1H230c-1.1,0-2.3-0.1-3.4-0.1c-1.1-0.1-2.3-0.1-3.4-0.2
	c-2.3-0.2-4.5-0.4-6.6-0.7c-2.1-0.2-4.2-0.7-6.1-1c-1.9-0.4-3.7-0.9-5.4-1.3c-1.6-0.5-3.2-0.9-4.5-1.5c-1.3-0.5-2.5-0.9-3.3-1.4
	C195.2,275.6,194.2,275.1,194.2,275.1L194.2,275.1z M206.9,178.7c0,0,3.1,0.2,7.7,0.6c1.2,0.1,2.4,0.2,3.7,0.3
	c1.3,0.1,2.7,0.1,4.2,0.2c2.9,0.1,6,0.2,9,0.3h9.1c1.4-0.1,2.8-0.1,4.2-0.1c1.3-0.1,2.6-0.1,3.7-0.2c4.6-0.2,7.7-0.4,7.7-0.4
	s-0.8,0.2-2.1,0.5c-0.7,0.2-1.5,0.3-2.4,0.5s-2,0.4-3.1,0.5c-2.3,0.4-5,0.7-7.9,0.9c-1.5,0.1-3,0.2-4.5,0.2c-1.5,0.1-3.1,0-4.7,0.1
	c-1.6-0.1-3.1-0.1-4.7-0.2l-4.5-0.3c-2.9-0.3-5.6-0.7-7.9-1.1c-1.2-0.2-2.2-0.4-3.1-0.6c-0.9-0.2-1.7-0.4-2.4-0.6
	C207.7,178.9,206.9,178.7,206.9,178.7L206.9,178.7z"/>
<path d="M167.8,25.6c0,0,7.9-0.3,19.7-0.3h9.5c3.4,0,6.9,0,10.6,0.1s7.5,0.1,11.4,0.2l11.7,0.3c3.9,0.1,7.9,0.3,11.7,0.4
	c3.9,0.1,7.7,0.3,11.4,0.5c7.4,0.3,14.2,0.7,20.1,1c11.8,0.7,19.6,1.4,19.6,1.4s-7.9,0.3-19.7,0.3c-5.9,0-12.8,0-20.2-0.1
	c-3.7-0.1-7.5-0.1-11.4-0.2l-11.7-0.3c-3.9-0.1-7.9-0.3-11.7-0.4c-3.9-0.1-7.7-0.3-11.4-0.5c-3.7-0.1-7.2-0.3-10.6-0.5
	s-6.6-0.4-9.5-0.5C175.6,26.3,167.8,25.6,167.8,25.6z"/>
</svg>
