<?xml version="1.0" encoding="utf-8"?>
<!-- Generator: Adobe Illustrator 19.2.0, SVG Export Plug-In . SVG Version: 6.00 Build 0)  -->
<svg version="1.1" id="Layer_1" xmlns="http://www.w3.org/2000/svg" xmlns:xlink="http://www.w3.org/1999/xlink" x="0px" y="0px"
	 viewBox="0 0 460 647" style="enable-background:new 0 0 460 647;" xml:space="preserve">
<style type="text/css">
	.st0{fill:none;stroke:#000000;stroke-width:5;stroke-miterlimit:10;}
	.st1{opacity:0.9;fill:url(#SVGID_1_);enable-background:new    ;}
	.st2{fill:url(#SVGID_2_);}
	.st3{fill:none;}
	.st4{fill:#F5F5F5;}
</style>
<path class="st0" d="M6588.6-623.7c0.3,38.5,0.2,82.4-5.7,120.5c-2.3,14.7-3.7,31.7-10.6,44.9c-9.4,17.9-18.6,35.9-34,49.5
	c-5.5,4.9-11.5,9.2-17.9,12.8c-4.2,2.3-15.3,5.1-15.9,10.8c-0.4,3.6,3.8,5.7,6.9,7.6c6.9,4.3,10.9,12.3,11.6,20.4
	c1.5,15.4-5.6,30.7-18.9,38.8c-0.8,0.5-1.6,1-1.9,1.8c-0.7,2.1,2.1,3.4,4.2,3.8c12.1,2.1,24,5,35.7,8.7c7.7,2.4,24.3,10.6,12,18.5
	c-7.7,4.9-17,6.2-26,7.3c-24.7,3.1-49.7,6.2-74.5,3.9c-5.6-0.5-11.2-1.4-16.8-2.2l-22.5-3.3c-5.3-0.8-11.8-2.7-12.7-7.9
	c-1.7-10.2,16.6-15.1,23.6-17.2c4.9-1.5,36.5-4.6,35.6-9.3c-0.5-2.4-2.8-3.9-4.8-5.4c-8.9-6.4-15-16.4-16.6-27.2
	c-1.6-10.8,1.3-22.2,7.9-30.9c2.2-2.9,4.9-6,4.4-9.6c-0.2-1.5-1-2.9-2-4.1c-5.1-6.7-15.9-9.5-22.8-14.7c-7.9-6-15.2-12.8-21.6-20.4
	c-12.5-14.5-22.1-31.5-27.6-49.9c-5.2-17.2-6.9-35.3-8.2-53.2c-2.3-31-3.6-62-3.8-93.1c20.2-2.4,42-1.8,62.4-1.4
	C6480.9-623.1,6588.6-625.8,6588.6-623.7L6588.6-623.7z"/>
<path d="M6462-308.8v1.9c0,0.6,0.1,1.3,0.6,1.9c0.4,0.6,1.2,0.8,2.2,0.8c2.1-0.1,4.5-0.2,7.1-0.2c1.3,0,2.7-0.1,4-0.1
	c1.4-0.1,2.8-0.1,4.1-0.2c1.4-0.1,2.8-0.1,4.1-0.2c1.4-0.1,2.7-0.1,4-0.2c2.6-0.1,5-0.2,7.1-0.3c2-0.1,3.7-0.6,4.6-1.3
	c0.4-0.4,0.7-0.8,0.8-1.1c0.1-0.3,0.2-0.5,0.2-0.5v0.5c-0.1,0.3-0.2,0.8-0.6,1.3s-1.1,1-1.9,1.4s-1.8,0.7-2.8,0.8
	c-2.1,0.4-4.5,0.7-7.1,0.9c-1.3,0.1-2.7,0.3-4,0.4c-1.4,0.1-2.8,0.2-4.2,0.2c-1.4,0-2.8,0.1-4.2,0.1h-4.1c-2.6-0.1-5.1-0.2-7.2-0.4
	c-0.5-0.1-1.1-0.1-1.6-0.4c-0.5-0.3-0.9-0.7-1.1-1.1c-0.4-0.9-0.4-1.7-0.3-2.3s0.2-1.1,0.3-1.4C6461.9-308.6,6462-308.8,6462-308.8
	L6462-308.8z M6461.6-393.4c0,0,0.6,0.2,1.6,0.5c0.5,0.2,1.2,0.3,1.9,0.5s1.6,0.4,2.4,0.5c0.9,0.2,1.9,0.3,2.9,0.5
	c1,0.1,2.1,0.2,3.3,0.3c1.1,0.1,2.3,0.1,3.5,0.2h3.6c1.2,0,2.5,0,3.7-0.1c1.2,0,2.4-0.1,3.6-0.1c2.3-0.1,4.5-0.1,6.3-0.3
	c1.8-0.2,3.2-0.6,4.1-1.2c0.4-0.3,0.8-0.6,1-0.8l0.3-0.3c0,0-0.1,0.1-0.2,0.4c-0.2,0.3-0.4,0.6-0.8,1c-0.8,0.8-2.3,1.6-4.2,2
	c-0.9,0.2-2,0.4-3,0.5c-1.1,0.1-2.2,0.3-3.3,0.4l-3.6,0.3c-1.2,0.1-2.5,0.1-3.7,0.2c-1.3,0-2.5,0-3.7-0.1c-0.6,0-1.2-0.1-1.8-0.1
	c-0.6-0.1-1.2-0.1-1.8-0.2c-1.2-0.1-2.3-0.4-3.4-0.6c-0.5-0.1-1-0.3-1.5-0.4c-0.5-0.2-1-0.3-1.4-0.4c-1.8-0.6-3.2-1.3-4.2-1.8
	C6462.2-393.1,6461.6-393.4,6461.6-393.4L6461.6-393.4z M6411.5-291.3l0.3,0.3c0.2,0.2,0.5,0.4,1,0.6c0.9,0.5,2.3,1,4.2,1.4
	c1.9,0.4,4.2,0.7,6.8,1.1c2.6,0.4,5.6,0.7,8.9,1.1c3.3,0.3,6.8,0.7,10.6,1c3.7,0.3,7.7,0.5,11.8,0.7c8.2,0.3,17,0.5,25.7,0.6
	c4.4,0.1,8.8,0.1,13.1,0.2c4.3,0,8.5,0.1,12.6,0s8-0.4,11.7-0.8c3.7-0.5,7.2-1.1,10.4-1.7c6.4-1.4,11.6-3,15.2-4.3
	c1.8-0.7,3.2-1.2,4.2-1.6l1.5-0.6c0,0-0.5,0.2-1.4,0.7c-0.9,0.4-2.3,1.1-4.1,1.8c-3.5,1.5-8.7,3.5-15.1,5.1s-14.1,2.9-22.3,3.2
	c-4.1,0.2-8.4,0.2-12.7,0.2c-4.3,0-8.7-0.1-13.1-0.1c-4.4-0.1-8.8-0.2-13.1-0.3c-4.3-0.1-8.6-0.4-12.7-0.6c-4.1-0.3-8.1-0.6-11.8-1
	c-3.8-0.4-7.3-0.8-10.6-1.3c-1.6-0.3-3.2-0.5-4.7-0.7c-1.5-0.3-2.9-0.5-4.2-0.8c-2.6-0.5-4.9-1-6.8-1.5s-3.3-1.1-4.1-1.7
	c-0.4-0.3-0.7-0.5-0.9-0.7C6411.6-291.2,6411.5-291.3,6411.5-291.3L6411.5-291.3z"/>
<linearGradient id="SVGID_1_" gradientUnits="userSpaceOnUse" x1="6378.7998" y1="-2020.8413" x2="6584.7002" y2="-2020.8413" gradientTransform="matrix(1 0 0 1 0 1519)">
	<stop  offset="1.800000e-02" style="stop-color:#801FE3"/>
	<stop  offset="1" style="stop-color:#B7A7FF"/>
</linearGradient>
<path class="st1" d="M6378.8-595.5c1.4,24.4,2.7,48.8,4.1,73.2c0.4,7.9,0.9,15.9,2.2,23.7c1.8,11.1,5.4,21.8,8.9,32.5
	c3,9.1,6,18.2,11.1,26.3c17.8,28.1,51.5,32.7,81.9,31.3c10.6-0.5,21.3-1.5,31.5-4.7c66.9-21.3,65.2-117,66.1-172.7
	c0-2.6,0.1-5.1,0.1-7.7C6516-591.4,6447.2-589.6,6378.8-595.5L6378.8-595.5z"/>
<path d="M6373.7-615.2c0,0,0.6,8.1,1.5,22.2c0.5,7.1,1,15.6,1.7,25.5c0.6,9.8,1.4,20.9,2.1,33.1c0.4,6.1,0.7,12.4,1.3,18.9
	c0.5,6.5,1.4,13.2,3,19.9c1.6,6.7,3.7,13.5,6,20.4c2.4,6.9,4.5,14,7.5,20.9c0.8,1.7,1.5,3.4,2.4,5.1c0.9,1.6,1.8,3.3,2.8,4.8
	c1.1,1.6,2.2,3.1,3.4,4.7c1.2,1.4,2.5,2.8,3.7,4.3c5.3,5.5,11.7,10,18.8,13.2c7.1,3.3,14.8,5.4,22.6,6.6c7.9,1.3,15.9,1.7,23.9,1.7
	c8-0.1,16.1-0.4,24-1.5c3.9-0.5,7.9-1.2,11.7-2.2c1-0.3,1.9-0.5,2.8-0.8l0.7-0.2h0.1l0.2-0.1l0.4-0.1l1.4-0.5l2.8-1
	c0.5-0.2,0.9-0.3,1.4-0.5l1.3-0.6c7.1-3.1,13.7-7.4,19.4-12.5c5.7-5.1,10.5-11.1,14.4-17.5c4-6.3,7.1-13.1,9.7-19.8
	c2.6-6.8,4.6-13.6,6.3-20.3c3.2-13.5,5-26.5,6.2-38.5c1.1-12.1,1.7-23.2,2-33c0.3-9.9,0.5-18.4,0.7-25.5c0.2-14.2,0.4-22.2,0.4-22.2
	s0,2,0.1,5.8c0,3.8,0.1,9.4,0.2,16.4c0,7.1,0,15.7-0.2,25.5c-0.1,9.9-0.5,21-1.5,33.1c-1,12.1-2.6,25.2-5.7,38.9
	c-1.6,6.8-3.6,13.7-6.1,20.6s-5.7,13.8-9.8,20.3c-4,6.5-9,12.7-14.8,18.1c-5.9,5.4-12.7,9.8-20.2,13.1l-1.4,0.6
	c-0.5,0.2-0.9,0.4-1.4,0.5l-2.8,1l-1.4,0.5l-0.4,0.1l-0.2,0.1l-0.2,0.1l-0.7,0.2c-1,0.3-2,0.6-2.9,0.8c-3.9,1-8,1.8-12,2.4
	c-8.1,1.1-16.2,1.5-24.4,1.6c-8.2,0-16.3-0.5-24.4-1.8c-8-1.3-16-3.5-23.3-7c-7.4-3.4-14.1-8.1-19.6-13.9c-1.3-1.5-2.6-3.1-3.9-4.6
	c-1.1-1.6-2.2-3.2-3.3-4.7c-2.2-3.4-3.9-6.8-5.4-10.4c-3-7.1-5.2-14.2-7.5-21.2c-2.2-7-4.3-13.9-5.8-20.7
	c-1.6-6.9-2.4-13.6-2.8-20.2c-0.5-6.6-0.7-12.9-1-18.9c-0.6-12.1-1.1-23.2-1.6-33.1c-0.5-9.9-0.8-18.4-1.2-25.5
	C6374-607.2,6373.7-615.2,6373.7-615.2L6373.7-615.2z"/>
<path d="M6374.1-599.8c0,0,0.8,0,2.4,0.1s3.8,0.2,6.7,0.3c2.9,0.2,6.4,0.3,10.5,0.5c4,0.2,8.6,0.3,13.6,0.5s10.4,0.3,16.1,0.5
	s11.7,0.2,17.9,0.4c6.2,0.1,12.6,0.1,19.2,0.2c6.5,0.1,13.2,0,19.8,0.1c6.6,0,13.3,0,19.8-0.1s13-0.1,19.2-0.2
	c12.5-0.1,24.1-0.2,34-0.3c10-0.1,18.3-0.1,24.1-0.1h9.1c0,0-0.8,0.1-2.4,0.2c-1.6,0.1-3.8,0.2-6.7,0.4c-5.8,0.3-14.1,0.8-24.1,1.3
	s-21.6,0.9-34,1.3c-6.2,0.1-12.7,0.4-19.2,0.4c-6.5,0.1-13.2,0.1-19.8,0.2c-6.6,0-13.3,0-19.8-0.2c-6.5-0.1-13-0.3-19.2-0.4
	c-6.2-0.2-12.3-0.4-18-0.8c-2.9-0.2-5.6-0.3-8.3-0.5c-2.7-0.2-5.3-0.4-7.8-0.5c-2.5-0.2-4.9-0.3-7.1-0.5c-2.3-0.2-4.4-0.4-6.4-0.6
	c-4-0.4-7.6-0.7-10.4-1c-2.9-0.3-5.2-0.6-6.7-0.7C6374.9-599.7,6374.1-599.8,6374.1-599.8L6374.1-599.8z"/>
<g>
	
		<linearGradient id="SVGID_2_" gradientUnits="userSpaceOnUse" x1="135.5498" y1="747.4387" x2="336.5695" y2="747.4387" gradientTransform="matrix(1 0 0 -1 0 1095.8949)">
		<stop  offset="0" style="stop-color:#FFC000"/>
		<stop  offset="1" style="stop-color:#FFE015"/>
	</linearGradient>
	<path class="st2" d="M336.6,117.9c-37.1,3-74.1,5.5-111.3,7.2c-13.2,0.6-26.5,1.2-39.8-0.2c-16.3-1.6-32.4-6.2-48.7-5.6l-1.3,0.3
		c1.5,11.1,3,22.2,4.4,33.4c5.6,42.1,8.6,84.9,16.9,126.6c5.7,29.1,2.7,59,8.5,88.1c7.1,35.4,8.7,71.4,13.7,107.2
		c3.6,25.9,1.2,51.6,4.1,77.5c0.5,4.9,1.2,10,4.2,14.1c2.6,3.6,6.7,5.9,10.7,8c8.4,4.4,60.8,6.1,77.9,2.6c5-1,10-2.2,14.4-4.6
		c17-9.2,9.5-39.9,9.2-54.7c-0.4-25,0-50,1.8-75c2.3-32.1,9-61.9,10.7-93.9c1.9-35.5,7.2-70.7,11.4-106.1
		c3.6-30.3,4.3-59.1,8.7-89.3C334.1,141.7,335.5,129.8,336.6,117.9L336.6,117.9z"/>
	<path class="st3" d="M332.7,113.4c-37.1,3-74.1,5.5-111.3,7.2c-13.2,0.6-26.5,1.2-39.8-0.2c-16.3-1.6-32.4-6.2-48.7-5.6l-1.3,0.3
		c1.5,11.1,3,22.2,4.4,33.4c5.6,42.1,8.6,84.9,16.9,126.6c5.7,29.1,2.7,59,8.5,88.1c7.1,35.4,8.7,71.4,13.7,107.2
		c3.6,25.9,1.2,51.6,4.1,77.5c0.5,4.9,1.2,10,4.2,14.1c2.6,3.6,6.7,5.9,10.7,8c8.4,4.4,60.8,6.1,77.9,2.6c5-1,10-2.2,14.4-4.6
		c17-9.2,9.5-39.9,9.2-54.7c-0.4-25,0-50,1.8-75c2.3-32.1,9-61.9,10.7-93.9c1.9-35.5,7.2-70.7,11.4-106.1
		c3.6-30.3,4.3-59.1,8.7-89.3C330.1,137.1,331.6,125.2,332.7,113.4L332.7,113.4z"/>
	<path class="st4" d="M136.9,119.4c16.3-0.7,32.5,3.8,48.7,5.6c13.2,1.4,26.5,0.8,39.8,0.2c37.2-1.7,111.3-7.2,111.3-6.9
		c-0.6,5.6,3.4-39.2,3.7-67.6c-1.8-13.4-16.8-26.4-30.8-30.2c-4.9-1.3-10-1.8-15.1-2.4c-33.9-3.4-67.9-5.8-101.9-3.4
		c-16.1,1.2-32.5,3.6-47.3,9.8c-5.4,2.3-10.6,5.3-14.1,9.7c-4.2,5.4-6.5,14.7-4.1,21c2.9,21.5,5.7,43,8.6,64.5L136.9,119.4
		L136.9,119.4z"/>
	<path class="st0" d="M346.1,40.7c-7.6,149.3-34,306-41.6,455.2c-1.8,35.8-2.8,77.3,19.8,106.7c6.9,8.9,15.1,16.5,14.5,22.2
		c-0.9,10.4-12.8,13.2-24.1,14.6c-52.3,6.2-99.5,6.6-154-2.4c-13.3-2.2-16.5-6.6-18.5-9.3c-4.7-6.3,3.7-14.9,9.3-20.5
		c24.6-24.6,22.2-62.1,18.2-95.1c-18.5-157.3-37.2-314.4-55.8-471.5C161.7,46.2,328.8,43.8,346.1,40.7L346.1,40.7z"/>
	<path d="M123,50.6c0,0,2.4,17.7,6.7,48.6c2.1,15.5,4.7,34.3,7.7,55.8c1.4,10.8,2.8,22.2,4.2,34.4c1.4,12.1,2.9,24.9,4.6,38.1
		c1.8,13.2,3.8,27.1,6.4,41.2c0.7,3.6,1.4,7.1,2,10.8c0.6,3.6,1.1,7.3,1.5,11c0.8,7.4,1.3,14.9,1.7,22.6c0.8,15.3,1.3,31,4.1,46.8
		c0.4,1.9,0.7,3.9,1.1,5.9c0.4,2,0.8,4,1.1,6c0.7,4,1.4,8.1,2,12.1c1.2,8.1,2.2,16.4,3.2,24.7c1.9,16.6,3.4,33.5,5.6,50.6
		c0.5,4.3,1.1,8.5,1.7,12.8c0.6,4.3,0.9,8.7,1.3,13c0.6,8.7,0.7,17.5,0.9,26.2c0.1,8.7,0.3,17.6,0.9,26.3c0.3,4.4,0.7,8.7,1.3,13.1
		c0.6,4.3,1.7,8.5,4.6,11.7c1.4,1.5,3.2,2.9,5.2,4.1c1,0.6,2,1.2,3,1.7l0.8,0.5c0.1,0.1,0.1,0.1,0.3,0.2l0.4,0.2
		c0.6,0.3,0.9,0.4,1.5,0.5c2.2,0.6,4.6,1,6.9,1.4c2.4,0.4,4.8,0.6,7.2,0.8c9.6,0.9,19.4,1.3,29.1,1.4c4.9,0,9.7,0,14.6-0.2
		c4.8-0.2,9.7-0.5,14.4-1.2c2.3-0.4,4.7-0.8,7-1.4s4.5-1.3,6.7-2.2c1-0.5,2.1-0.9,3-1.5l0.8-0.5c0.3-0.2,0.5-0.3,0.7-0.5
		c0.4-0.4,0.8-0.5,1.2-1c1.6-1.5,2.9-3.1,3.9-5c2-3.7,2.9-8.1,3.3-12.4c0.4-4.3,0.3-8.7,0.1-13c-0.3-4.4-0.7-8.7-1.1-13.1
		c-0.2-2.2-0.4-4.4-0.5-6.7s-0.1-4.4-0.1-6.7c-0.2-17.6,0.1-35,0.9-52.2c0.4-8.6,0.9-17.1,1.7-25.6c0.8-8.5,1.9-16.9,3-25.1
		c2.3-16.6,4.8-32.8,6.3-48.8c0.8-8,1.1-15.9,1.7-23.8c0.6-7.8,1.3-15.6,2.2-23.2c3.2-30.5,7.7-59.1,10.3-85.7
		c1.3-13.3,2.2-26.1,3.3-38.2c1.1-12.1,2.3-23.7,3.9-34.4c3.2-21.5,5.2-40.4,6.4-55.9c1.2-15.6,1.7-27.8,2-36.1
		c0.1-4.2,0.2-7.4,0.2-9.6c0-2.2,0.1-3.3,0.1-3.3v3.3c0,2.2-0.1,5.4-0.1,9.6c-0.2,8.4-0.6,20.6-1.6,36.2
		c-1.1,15.6-2.8,34.4-5.9,55.9c-1.5,10.8-2.6,22.2-3.5,34.4c-1,12.1-1.9,24.9-3.1,38.3c-2.5,26.7-6.8,55.3-9.8,85.8
		c-0.8,7.7-1.5,15.3-2,23.1c-0.6,7.8-0.8,15.8-1.6,23.8c-1.4,16-3.9,32.3-6.1,48.9c-1.1,8.3-2.2,16.7-2.9,25.1
		c-0.8,8.5-1.3,16.9-1.7,25.5c-0.8,17.1-1,34.5-0.8,52c0,2.2,0.1,4.4,0.1,6.6c0.1,2.2,0.3,4.4,0.5,6.6c0.4,4.4,0.9,8.7,1.1,13.2
		c0.3,4.5,0.4,8.9-0.1,13.4c-0.4,4.5-1.3,9-3.5,13.3c-1.1,2.1-2.6,4.1-4.5,5.7c-0.4,0.5-1,0.8-1.5,1.2c-0.5,0.5-1,0.6-1.5,1
		c-1.2,0.7-2.2,1.2-3.4,1.6c-2.3,1-4.7,1.7-7.1,2.3c-2.4,0.5-4.8,1.1-7.3,1.5c-4.9,0.7-9.8,1-14.8,1.2c-4.9,0.2-9.8,0.3-14.7,0.2
		c-9.8-0.1-19.6-0.5-29.4-1.4c-2.4-0.3-4.9-0.5-7.3-0.8c-2.4-0.4-4.9-0.7-7.4-1.5c-0.6-0.2-1.4-0.5-1.9-0.6l-0.4-0.2
		c-0.1,0-0.4-0.2-0.5-0.3l-0.8-0.5c-1.1-0.5-2.1-1.2-3.2-1.8c-2.1-1.3-4.1-2.7-5.8-4.6c-0.2-0.3-0.4-0.5-0.6-0.7l-0.5-0.7
		c-0.4-0.5-0.7-1-1-1.5c-0.6-1.1-1.1-2.2-1.5-3.3c-0.8-2.2-1.2-4.5-1.6-6.7c-0.6-4.5-0.9-8.8-1.3-13.3c-0.6-8.8-0.7-17.7-0.8-26.4
		c-0.1-8.7-0.3-17.5-0.8-26.2c-0.3-4.4-0.6-8.6-1.2-12.8c-0.5-4.3-1.2-8.6-1.7-12.8c-2.1-17.1-3.6-34-5.5-50.7
		c-0.9-8.3-1.9-16.5-3.1-24.6c-0.6-4-1.2-8.1-1.9-12.1c-0.3-2-0.7-4-1.1-6c-0.4-2-0.7-3.9-1.1-6c-2.8-15.9-3.2-31.8-3.9-47
		c-0.4-7.7-0.8-15.1-1.6-22.5c-0.4-3.7-0.9-7.3-1.5-10.9s-1.3-7.2-2-10.8c-2.6-14.2-4.5-28.1-6.2-41.4c-3.3-26.5-5.6-50.9-8.2-72.5
		c-2.7-21.6-5.1-40.4-7.1-55.9C125.2,68.3,123,50.6,123,50.6L123,50.6z"/>
	<path d="M132.1,114.9c0,0,0.8,0,2.3-0.1c1.5,0,3.6-0.1,6.4,0.1c2.7,0.1,6.1,0.4,9.9,0.7c3.8,0.4,8.1,1,12.7,1.6
		c4.6,0.6,9.7,1.4,15,2c5.3,0.6,11,1,16.8,1c5.9,0.1,11.9-0.1,18.1-0.4c6.1-0.3,12.4-0.6,18.7-1c12.5-0.7,25-1.6,36.8-2.4
		c5.9-0.4,11.5-0.6,16.9-1c5.4-0.3,10.5-0.5,15.2-0.8c4.7-0.3,9-0.5,12.8-0.6c3.8-0.2,7.1-0.4,9.9-0.5c5.5-0.3,8.6-0.4,8.6-0.4v0.3
		c0,0-3.1,0.5-8.6,1c-2.7,0.4-6,0.7-9.8,1.1s-8.1,0.8-12.8,1.3c-4.7,0.5-9.8,0.9-15.1,1.3c-5.4,0.5-11,0.8-16.9,1.2
		c-11.7,0.7-24.3,1.3-36.9,1.7c-6.3,0.3-12.5,0.5-18.7,0.7c-6.2,0.2-12.3,0.3-18.2,0.1c-5.9-0.2-11.6-0.6-17-1.4
		c-5.3-0.7-10.4-1.5-15-2.4c-4.6-0.7-8.9-1.5-12.6-1.9c-3.8-0.5-7.1-0.8-9.8-0.9c-2.7-0.2-4.9-0.2-6.3-0.2h-2.3L132.1,114.9
		L132.1,114.9z M123,49.7c0,0-0.1-0.2-0.2-0.6c-0.2-0.5-0.3-1.1-0.5-1.9c-0.3-1.6-0.5-4.2,0.1-7.4c0.5-3.1,1.7-6.9,4.4-10.8
		c2.7-3.7,7.2-6.9,12.6-9.4c5.4-2.5,11.5-4.6,18.1-6.3s13.8-2.8,21.2-3.6c7.4-0.8,15.2-1.4,23-1.6c7.9-0.3,15.8-0.4,23.8-0.3
		c16,0.3,32,1.4,46.9,2.7c7.4,0.6,14.6,1.4,21.5,2.1c3.4,0.4,6.7,0.8,9.9,1.5c1.6,0.4,3.1,0.8,4.6,1.4c0.7,0.3,1.4,0.5,2.2,0.8
		c0.7,0.3,1.4,0.6,2,0.9c5.4,2.6,9.6,5.8,13,9c3.4,3.3,5.7,6.5,7.4,9.3c1.7,2.8,2.3,5.3,2.8,6.9c0.3,1.6,0.5,2.6,0.5,2.6
		s-0.2-0.9-0.5-2.6c-0.5-1.6-1.2-4.1-2.9-6.8c-1.6-2.8-4.1-6-7.5-9.1c-1.7-1.5-3.6-3.2-5.8-4.6c-2.1-1.5-4.6-2.9-7.2-4.2
		c-0.7-0.3-1.3-0.6-2-0.9l-2.1-0.8c-1.5-0.5-3-0.9-4.5-1.3c-3.1-0.7-6.4-1.2-9.8-1.5c-6.8-0.7-14-1.4-21.4-2
		c-14.9-1.3-30.8-2.3-46.9-2.5c-8-0.2-15.9-0.1-23.8,0.2c-7.8,0.3-15.6,0.7-23,1.5c-7.4,0.8-14.5,1.9-21.1,3.6s-12.7,3.7-18,6.1
		c-5.3,2.5-9.8,5.5-12.5,9.1c-2.7,3.6-3.9,7.5-4.5,10.6c-0.6,3.1-0.5,5.6-0.2,7.4c0.2,0.8,0.3,1.5,0.5,1.9
		C122.9,49.5,123,49.7,123,49.7L123,49.7z"/>
</g>
</svg>
