<svg id="Layer_1" xmlns="http://www.w3.org/2000/svg" viewBox="0 0 460 647"><style>.st0{fill:none;stroke:#000;stroke-width:5;stroke-miterlimit:10}.st1{opacity:.9;fill:url(#SVGID_1_);enable-background:new}.st2{fill:url(#SVGID_2_)}.st3{fill:none}.st4{fill:#f5f5f5}</style><path class="st0" d="M6588.6-623.7c.3 38.5.2 82.4-5.7 120.5-2.3 14.7-3.7 31.7-10.6 44.9-9.4 17.9-18.6 35.9-34 49.5-5.5 4.9-11.5 9.2-17.9 12.8-4.2 2.3-15.3 5.1-15.9 10.8-.4 3.6 3.8 5.7 6.9 7.6 6.9 4.3 10.9 12.3 11.6 20.4 1.5 15.4-5.6 30.7-18.9 38.8-.8.5-1.6 1-1.9 1.8-.7 2.1 2.1 3.4 4.2 3.8 12.1 2.1 24 5 35.7 8.7 7.7 2.4 24.3 10.6 12 18.5-7.7 4.9-17 6.2-26 7.3-24.7 3.1-49.7 6.2-74.5 3.9-5.6-.5-11.2-1.4-16.8-2.2l-22.5-3.3c-5.3-.8-11.8-2.7-12.7-7.9-1.7-10.2 16.6-15.1 23.6-17.2 4.9-1.5 36.5-4.6 35.6-9.3-.5-2.4-2.8-3.9-4.8-5.4-8.9-6.4-15-16.4-16.6-27.2-1.6-10.8 1.3-22.2 7.9-30.9 2.2-2.9 4.9-6 4.4-9.6-.2-1.5-1-2.9-2-4.1-5.1-6.7-15.9-9.5-22.8-14.7-7.9-6-15.2-12.8-21.6-20.4-12.5-14.5-22.1-31.5-27.6-49.9-5.2-17.2-6.9-35.3-8.2-53.2-2.3-31-3.6-62-3.8-93.1 20.2-2.4 42-1.8 62.4-1.4 52.8 1.1 160.5-1.6 160.5.5z"/><path d="M6462-308.8v1.9c0 .6.1 1.3.6 1.9.4.6 1.2.8 2.2.8 2.1-.1 4.5-.2 7.1-.2 1.3 0 2.7-.1 4-.1 1.4-.1 2.8-.1 4.1-.2 1.4-.1 2.8-.1 4.1-.2 1.4-.1 2.7-.1 4-.2 2.6-.1 5-.2 7.1-.3 2-.1 3.7-.6 4.6-1.3.4-.4.7-.8.8-1.1.1-.3.2-.5.2-.5v.5c-.1.3-.2.8-.6 1.3s-1.1 1-1.9 1.4-1.8.7-2.8.8c-2.1.4-4.5.7-7.1.9-1.3.1-2.7.3-4 .4-1.4.1-2.8.2-4.2.2-1.4 0-2.8.1-4.2.1h-4.1c-2.6-.1-5.1-.2-7.2-.4-.5-.1-1.1-.1-1.6-.4-.5-.3-.9-.7-1.1-1.1-.4-.9-.4-1.7-.3-2.3s.2-1.1.3-1.4c-.1-.3 0-.5 0-.5zm-.4-84.6s.6.2 1.6.5c.5.2 1.2.3 1.9.5s1.6.4 2.4.5c.9.2 1.9.3 2.9.5 1 .1 2.1.2 3.3.3 1.1.1 2.3.1 3.5.2h3.6c1.2 0 2.5 0 3.7-.1 1.2 0 2.4-.1 3.6-.1 2.3-.1 4.5-.1 6.3-.3 1.8-.2 3.2-.6 4.1-1.2.4-.3.8-.6 1-.8l.3-.3s-.1.1-.2.4c-.2.3-.4.6-.8 1-.8.8-2.3 1.6-4.2 2-.9.2-2 .4-3 .5-1.1.1-2.2.3-3.3.4l-3.6.3c-1.2.1-2.5.1-3.7.2-1.3 0-2.5 0-3.7-.1-.6 0-1.2-.1-1.8-.1-.6-.1-1.2-.1-1.8-.2-1.2-.1-2.3-.4-3.4-.6-.5-.1-1-.3-1.5-.4-.5-.2-1-.3-1.4-.4-1.8-.6-3.2-1.3-4.2-1.8-1-.6-1.6-.9-1.6-.9zm-50.1 102.1l.3.3c.2.2.5.4 1 .6.9.5 2.3 1 4.2 1.4 1.9.4 4.2.7 6.8 1.1 2.6.4 5.6.7 8.9 1.1 3.3.3 6.8.7 10.6 1 3.7.3 7.7.5 11.8.7 8.2.3 17 .5 25.7.6 4.4.1 8.8.1 13.1.2 4.3 0 8.5.1 12.6 0s8-.4 11.7-.8c3.7-.5 7.2-1.1 10.4-1.7 6.4-1.4 11.6-3 15.2-4.3 1.8-.7 3.2-1.2 4.2-1.6l1.5-.6s-.5.2-1.4.7c-.9.4-2.3 1.1-4.1 1.8-3.5 1.5-8.7 3.5-15.1 5.1s-14.1 2.9-22.3 3.2c-4.1.2-8.4.2-12.7.2-4.3 0-8.7-.1-13.1-.1-4.4-.1-8.8-.2-13.1-.3-4.3-.1-8.6-.4-12.7-.6-4.1-.3-8.1-.6-11.8-1-3.8-.4-7.3-.8-10.6-1.3-1.6-.3-3.2-.5-4.7-.7-1.5-.3-2.9-.5-4.2-.8-2.6-.5-4.9-1-6.8-1.5s-3.3-1.1-4.1-1.7c-.4-.3-.7-.5-.9-.7-.3-.2-.4-.3-.4-.3z"/><linearGradient id="SVGID_1_" gradientUnits="userSpaceOnUse" x1="6378.8" y1="-2020.841" x2="6584.7" y2="-2020.841" gradientTransform="translate(0 1519)"><stop offset=".018" stop-color="#801fe3"/><stop offset="1" stop-color="#b7a7ff"/></linearGradient><path class="st1" d="M6378.8-595.5c1.4 24.4 2.7 48.8 4.1 73.2.4 7.9.9 15.9 2.2 23.7 1.8 11.1 5.4 21.8 8.9 32.5 3 9.1 6 18.2 11.1 26.3 17.8 28.1 51.5 32.7 81.9 31.3 10.6-.5 21.3-1.5 31.5-4.7 66.9-21.3 65.2-117 66.1-172.7 0-2.6.1-5.1.1-7.7-68.7 2.2-137.5 4-205.9-1.9z"/><path d="M6373.7-615.2s.6 8.1 1.5 22.2c.5 7.1 1 15.6 1.7 25.5.6 9.8 1.4 20.9 2.1 33.1.4 6.1.7 12.4 1.3 18.9.5 6.5 1.4 13.2 3 19.9 1.6 6.7 3.7 13.5 6 20.4 2.4 6.9 4.5 14 7.5 20.9.8 1.7 1.5 3.4 2.4 5.1.9 1.6 1.8 3.3 2.8 4.8 1.1 1.6 2.2 3.1 3.4 4.7 1.2 1.4 2.5 2.8 3.7 4.3 5.3 5.5 11.7 10 18.8 13.2 7.1 3.3 14.8 5.4 22.6 6.6 7.9 1.3 15.9 1.7 23.9 1.7 8-.1 16.1-.4 24-1.5 3.9-.5 7.9-1.2 11.7-2.2 1-.3 1.9-.5 2.8-.8l.7-.2h.1l.2-.1.4-.1 1.4-.5 2.8-1c.5-.2.9-.3 1.4-.5l1.3-.6c7.1-3.1 13.7-7.4 19.4-12.5 5.7-5.1 10.5-11.1 14.4-17.5 4-6.3 7.1-13.1 9.7-19.8 2.6-6.8 4.6-13.6 6.3-20.3 3.2-13.5 5-26.5 6.2-38.5 1.1-12.1 1.7-23.2 2-33 .3-9.9.5-18.4.7-25.5.2-14.2.4-22.2.4-22.2s0 2 .1 5.8c0 3.8.1 9.4.2 16.4 0 7.1 0 15.7-.2 25.5-.1 9.9-.5 21-1.5 33.1-1 12.1-2.6 25.2-5.7 38.9-1.6 6.8-3.6 13.7-6.1 20.6s-5.7 13.8-9.8 20.3c-4 6.5-9 12.7-14.8 18.1-5.9 5.4-12.7 9.8-20.2 13.1l-1.4.6c-.5.2-.9.4-1.4.5l-2.8 1-1.4.5-.4.1-.2.1-.2.1-.7.2c-1 .3-2 .6-2.9.8-3.9 1-8 1.8-12 2.4-8.1 1.1-16.2 1.5-24.4 1.6-8.2 0-16.3-.5-24.4-1.8-8-1.3-16-3.5-23.3-7-7.4-3.4-14.1-8.1-19.6-13.9-1.3-1.5-2.6-3.1-3.9-4.6-1.1-1.6-2.2-3.2-3.3-4.7-2.2-3.4-3.9-6.8-5.4-10.4-3-7.1-5.2-14.2-7.5-21.2-2.2-7-4.3-13.9-5.8-20.7-1.6-6.9-2.4-13.6-2.8-20.2-.5-6.6-.7-12.9-1-18.9-.6-12.1-1.1-23.2-1.6-33.1-.5-9.9-.8-18.4-1.2-25.5-.7-14.2-1-22.2-1-22.2z"/><path d="M6374.1-599.8s.8 0 2.4.1 3.8.2 6.7.3c2.9.2 6.4.3 10.5.5 4 .2 8.6.3 13.6.5s10.4.3 16.1.5 11.7.2 17.9.4c6.2.1 12.6.1 19.2.2 6.5.1 13.2 0 19.8.1 6.6 0 13.3 0 19.8-.1s13-.1 19.2-.2c12.5-.1 24.1-.2 34-.3 10-.1 18.3-.1 24.1-.1h9.1s-.8.1-2.4.2c-1.6.1-3.8.2-6.7.4-5.8.3-14.1.8-24.1 1.3s-21.6.9-34 1.3c-6.2.1-12.7.4-19.2.4-6.5.1-13.2.1-19.8.2-6.6 0-13.3 0-19.8-.2-6.5-.1-13-.3-19.2-.4-6.2-.2-12.3-.4-18-.8-2.9-.2-5.6-.3-8.3-.5-2.7-.2-5.3-.4-7.8-.5-2.5-.2-4.9-.3-7.1-.5-2.3-.2-4.4-.4-6.4-.6-4-.4-7.6-.7-10.4-1-2.9-.3-5.2-.6-6.7-.7-1.7-.4-2.5-.5-2.5-.5z"/><linearGradient id="SVGID_2_" gradientUnits="userSpaceOnUse" x1="135.55" y1="747.439" x2="336.57" y2="747.439" gradientTransform="matrix(1 0 0 -1 0 1095.895)"><stop offset="0" stop-color="#ffc000"/><stop offset="1" stop-color="#ffe015"/></linearGradient><path class="st2" d="M336.6 117.9c-37.1 3-74.1 5.5-111.3 7.2-13.2.6-26.5 1.2-39.8-.2-16.3-1.6-32.4-6.2-48.7-5.6l-1.3.3c1.5 11.1 3 22.2 4.4 33.4 5.6 42.1 8.6 84.9 16.9 126.6 5.7 29.1 2.7 59 8.5 88.1 7.1 35.4 8.7 71.4 13.7 107.2 3.6 25.9 1.2 51.6 4.1 77.5.5 4.9 1.2 10 4.2 14.1 2.6 3.6 6.7 5.9 10.7 8 8.4 4.4 60.8 6.1 77.9 2.6 5-1 10-2.2 14.4-4.6 17-9.2 9.5-39.9 9.2-54.7-.4-25 0-50 1.8-75 2.3-32.1 9-61.9 10.7-93.9 1.9-35.5 7.2-70.7 11.4-106.1 3.6-30.3 4.3-59.1 8.7-89.3 2-11.8 3.4-23.7 4.5-35.6z"/><path class="st3" d="M332.7 113.4c-37.1 3-74.1 5.5-111.3 7.2-13.2.6-26.5 1.2-39.8-.2-16.3-1.6-32.4-6.2-48.7-5.6l-1.3.3c1.5 11.1 3 22.2 4.4 33.4 5.6 42.1 8.6 84.9 16.9 126.6 5.7 29.1 2.7 59 8.5 88.1 7.1 35.4 8.7 71.4 13.7 107.2 3.6 25.9 1.2 51.6 4.1 77.5.5 4.9 1.2 10 4.2 14.1 2.6 3.6 6.7 5.9 10.7 8 8.4 4.4 60.8 6.1 77.9 2.6 5-1 10-2.2 14.4-4.6 17-9.2 9.5-39.9 9.2-54.7-.4-25 0-50 1.8-75 2.3-32.1 9-61.9 10.7-93.9 1.9-35.5 7.2-70.7 11.4-106.1 3.6-30.3 4.3-59.1 8.7-89.3 1.9-11.9 3.4-23.8 4.5-35.6z"/><path class="st4" d="M136.9 119.4c16.3-.7 32.5 3.8 48.7 5.6 13.2 1.4 26.5.8 39.8.2 37.2-1.7 111.3-7.2 111.3-6.9-.6 5.6 3.4-39.2 3.7-67.6-1.8-13.4-16.8-26.4-30.8-30.2-4.9-1.3-10-1.8-15.1-2.4-33.9-3.4-67.9-5.8-101.9-3.4-16.1 1.2-32.5 3.6-47.3 9.8-5.4 2.3-10.6 5.3-14.1 9.7-4.2 5.4-6.5 14.7-4.1 21 2.9 21.5 5.7 43 8.6 64.5l1.2-.3z"/><path class="st0" d="M346.1 40.7c-7.6 149.3-34 306-41.6 455.2-1.8 35.8-2.8 77.3 19.8 106.7 6.9 8.9 15.1 16.5 14.5 22.2-.9 10.4-12.8 13.2-24.1 14.6-52.3 6.2-99.5 6.6-154-2.4-13.3-2.2-16.5-6.6-18.5-9.3-4.7-6.3 3.7-14.9 9.3-20.5 24.6-24.6 22.2-62.1 18.2-95.1-18.5-157.3-37.2-314.4-55.8-471.5 47.8 5.6 214.9 3.2 232.2.1z"/><path d="M123 50.6s2.4 17.7 6.7 48.6c2.1 15.5 4.7 34.3 7.7 55.8 1.4 10.8 2.8 22.2 4.2 34.4 1.4 12.1 2.9 24.9 4.6 38.1 1.8 13.2 3.8 27.1 6.4 41.2.7 3.6 1.4 7.1 2 10.8.6 3.6 1.1 7.3 1.5 11 .8 7.4 1.3 14.9 1.7 22.6.8 15.3 1.3 31 4.1 46.8.4 1.9.7 3.9 1.1 5.9.4 2 .8 4 1.1 6 .7 4 1.4 8.1 2 12.1 1.2 8.1 2.2 16.4 3.2 24.7 1.9 16.6 3.4 33.5 5.6 50.6.5 4.3 1.1 8.5 1.7 12.8.6 4.3.9 8.7 1.3 13 .6 8.7.7 17.5.9 26.2.1 8.7.3 17.6.9 26.3.3 4.4.7 8.7 1.3 13.1.6 4.3 1.7 8.5 4.6 11.7 1.4 1.5 3.2 2.9 5.2 4.1 1 .6 2 1.2 3 1.7l.8.5c.1.1.1.1.3.2l.4.2c.6.3.9.4 1.5.5 2.2.6 4.6 1 6.9 1.4 2.4.4 4.8.6 7.2.8 9.6.9 19.4 1.3 29.1 1.4 4.9 0 9.7 0 14.6-.2 4.8-.2 9.7-.5 14.4-1.2 2.3-.4 4.7-.8 7-1.4s4.5-1.3 6.7-2.2c1-.5 2.1-.9 3-1.5l.8-.5c.3-.2.5-.3.7-.5.4-.4.8-.5 1.2-1 1.6-1.5 2.9-3.1 3.9-5 2-3.7 2.9-8.1 3.3-12.4.4-4.3.3-8.7.1-13-.3-4.4-.7-8.7-1.1-13.1-.2-2.2-.4-4.4-.5-6.7s-.1-4.4-.1-6.7c-.2-17.6.1-35 .9-52.2.4-8.6.9-17.1 1.7-25.6.8-8.5 1.9-16.9 3-25.1 2.3-16.6 4.8-32.8 6.3-48.8.8-8 1.1-15.9 1.7-23.8.6-7.8 1.3-15.6 2.2-23.2 3.2-30.5 7.7-59.1 10.3-85.7 1.3-13.3 2.2-26.1 3.3-38.2 1.1-12.1 2.3-23.7 3.9-34.4 3.2-21.5 5.2-40.4 6.4-55.9 1.2-15.6 1.7-27.8 2-36.1.1-4.2.2-7.4.2-9.6 0-2.2.1-3.3.1-3.3v3.3c0 2.2-.1 5.4-.1 9.6-.2 8.4-.6 20.6-1.6 36.2-1.1 15.6-2.8 34.4-5.9 55.9-1.5 10.8-2.6 22.2-3.5 34.4-1 12.1-1.9 24.9-3.1 38.3-2.5 26.7-6.8 55.3-9.8 85.8-.8 7.7-1.5 15.3-2 23.1-.6 7.8-.8 15.8-1.6 23.8-1.4 16-3.9 32.3-6.1 48.9-1.1 8.3-2.2 16.7-2.9 25.1-.8 8.5-1.3 16.9-1.7 25.5-.8 17.1-1 34.5-.8 52 0 2.2.1 4.4.1 6.6.1 2.2.3 4.4.5 6.6.4 4.4.9 8.7 1.1 13.2.3 4.5.4 8.9-.1 13.4-.4 4.5-1.3 9-3.5 13.3-1.1 2.1-2.6 4.1-4.5 5.7-.4.5-1 .8-1.5 1.2-.5.5-1 .6-1.5 1-1.2.7-2.2 1.2-3.4 1.6-2.3 1-4.7 1.7-7.1 2.3-2.4.5-4.8 1.1-7.3 1.5-4.9.7-9.8 1-14.8 1.2-4.9.2-9.8.3-14.7.2-9.8-.1-19.6-.5-29.4-1.4-2.4-.3-4.9-.5-7.3-.8-2.4-.4-4.9-.7-7.4-1.5-.6-.2-1.4-.5-1.9-.6l-.4-.2c-.1 0-.4-.2-.5-.3l-.8-.5c-1.1-.5-2.1-1.2-3.2-1.8-2.1-1.3-4.1-2.7-5.8-4.6-.2-.3-.4-.5-.6-.7l-.5-.7c-.4-.5-.7-1-1-1.5-.6-1.1-1.1-2.2-1.5-3.3-.8-2.2-1.2-4.5-1.6-6.7-.6-4.5-.9-8.8-1.3-13.3-.6-8.8-.7-17.7-.8-26.4-.1-8.7-.3-17.5-.8-26.2-.3-4.4-.6-8.6-1.2-12.8-.5-4.3-1.2-8.6-1.7-12.8-2.1-17.1-3.6-34-5.5-50.7-.9-8.3-1.9-16.5-3.1-24.6-.6-4-1.2-8.1-1.9-12.1-.3-2-.7-4-1.1-6-.4-2-.7-3.9-1.1-6-2.8-15.9-3.2-31.8-3.9-47-.4-7.7-.8-15.1-1.6-22.5-.4-3.7-.9-7.3-1.5-10.9s-1.3-7.2-2-10.8c-2.6-14.2-4.5-28.1-6.2-41.4-3.3-26.5-5.6-50.9-8.2-72.5-2.7-21.6-5.1-40.4-7.1-55.9-4.1-30.7-6.3-48.4-6.3-48.4z"/><path d="M132.1 114.9s.8 0 2.3-.1c1.5 0 3.6-.1 6.4.1 2.7.1 6.1.4 9.9.7 3.8.4 8.1 1 12.7 1.6 4.6.6 9.7 1.4 15 2 5.3.6 11 1 16.8 1 5.9.1 11.9-.1 18.1-.4 6.1-.3 12.4-.6 18.7-1 12.5-.7 25-1.6 36.8-2.4 5.9-.4 11.5-.6 16.9-1 5.4-.3 10.5-.5 15.2-.8 4.7-.3 9-.5 12.8-.6 3.8-.2 7.1-.4 9.9-.5 5.5-.3 8.6-.4 8.6-.4v.3s-3.1.5-8.6 1c-2.7.4-6 .7-9.8 1.1s-8.1.8-12.8 1.3c-4.7.5-9.8.9-15.1 1.3-5.4.5-11 .8-16.9 1.2-11.7.7-24.3 1.3-36.9 1.7-6.3.3-12.5.5-18.7.7-6.2.2-12.3.3-18.2.1-5.9-.2-11.6-.6-17-1.4-5.3-.7-10.4-1.5-15-2.4-4.6-.7-8.9-1.5-12.6-1.9-3.8-.5-7.1-.8-9.8-.9-2.7-.2-4.9-.2-6.3-.2h-2.3l-.1-.1zM123 49.7s-.1-.2-.2-.6c-.2-.5-.3-1.1-.5-1.9-.3-1.6-.5-4.2.1-7.4.5-3.1 1.7-6.9 4.4-10.8 2.7-3.7 7.2-6.9 12.6-9.4 5.4-2.5 11.5-4.6 18.1-6.3s13.8-2.8 21.2-3.6c7.4-.8 15.2-1.4 23-1.6 7.9-.3 15.8-.4 23.8-.3 16 .3 32 1.4 46.9 2.7 7.4.6 14.6 1.4 21.5 2.1 3.4.4 6.7.8 9.9 1.5 1.6.4 3.1.8 4.6 1.4.7.3 1.4.5 2.2.8.7.3 1.4.6 2 .9 5.4 2.6 9.6 5.8 13 9 3.4 3.3 5.7 6.5 7.4 9.3 1.7 2.8 2.3 5.3 2.8 6.9.3 1.6.5 2.6.5 2.6s-.2-.9-.5-2.6c-.5-1.6-1.2-4.1-2.9-6.8-1.6-2.8-4.1-6-7.5-9.1-1.7-1.5-3.6-3.2-5.8-4.6-2.1-1.5-4.6-2.9-7.2-4.2-.7-.3-1.3-.6-2-.9l-2.1-.8c-1.5-.5-3-.9-4.5-1.3-3.1-.7-6.4-1.2-9.8-1.5-6.8-.7-14-1.4-21.4-2-14.9-1.3-30.8-2.3-46.9-2.5-8-.2-15.9-.1-23.8.2-7.8.3-15.6.7-23 1.5s-14.5 1.9-21.1 3.6-12.7 3.7-18 6.1c-5.3 2.5-9.8 5.5-12.5 9.1-2.7 3.6-3.9 7.5-4.5 10.6-.6 3.1-.5 5.6-.2 7.4.2.8.3 1.5.5 1.9-.2.4-.1.6-.1.6z"/></svg>