<svg id="Layer_1" xmlns="http://www.w3.org/2000/svg" viewBox="0 0 700 700"><style>.st0,.st1{fill:none}.st1{stroke:#000;stroke-width:5;stroke-miterlimit:10}.st2{opacity:.9;fill:url(#SVGID_1_)}.st3{opacity:.76;fill:#f4aa16}.st4{fill:#f5f5f5}</style><path class="st0" d="M0 0h700v700H0z"/><path class="st1" d="M6708.6-568.1c.3 38.5.2 82.4-5.7 120.5-2.3 14.7-3.7 31.7-10.6 44.9-9.4 17.9-18.6 35.9-34 49.5-5.5 4.9-11.5 9.2-17.9 12.8-4.2 2.3-15.3 5.1-15.9 10.8-.4 3.6 3.8 5.7 6.9 7.6 6.9 4.3 10.9 12.3 11.6 20.4 1.5 15.4-5.6 30.7-18.9 38.8-.8.5-1.6 1-1.9 1.8-.7 2.1 2.1 3.4 4.2 3.8 12.1 2.1 24 5 35.7 8.7 7.7 2.4 24.3 10.6 12 18.5-7.7 4.9-17 6.2-26 7.3-24.7 3.1-49.7 6.2-74.5 3.9-5.6-.5-11.2-1.4-16.8-2.2l-22.5-3.3c-5.3-.8-11.8-2.7-12.7-7.9-1.7-10.2 16.6-15.1 23.6-17.2 4.9-1.5 36.5-4.6 35.6-9.3-.5-2.4-2.8-3.9-4.8-5.4-8.9-6.4-15-16.4-16.6-27.2-1.6-10.8 1.3-22.2 7.9-30.9 2.2-2.9 4.9-6 4.4-9.6-.2-1.5-1-2.9-2-4.1-5.1-6.7-15.9-9.5-22.8-14.7-7.9-6-15.2-12.8-21.6-20.4-12.5-14.5-22.1-31.5-27.6-49.9-5.2-17.2-6.9-35.3-8.2-53.2-2.3-31-3.6-62-3.8-93.1 20.2-2.4 42-1.8 62.4-1.4 52.8 1.1 160.5-1.6 160.5.5z"/><path d="M6582-253.2v1.9c0 .6.1 1.3.6 1.9.4.6 1.2.8 2.2.8 2.1-.1 4.5-.2 7.1-.2 1.3 0 2.7-.1 4-.1 1.4-.1 2.8-.1 4.1-.2 1.4-.1 2.8-.1 4.1-.2 1.4-.1 2.7-.1 4-.2 2.6-.1 5-.2 7.1-.3 2-.1 3.7-.6 4.6-1.3.4-.4.7-.8.8-1.1.1-.3.2-.5.2-.5v.5c-.1.3-.2.8-.6 1.3-.4.5-1.1 1-1.9 1.4-.8.4-1.8.7-2.8.8-2.1.4-4.5.7-7.1.9-1.3.1-2.7.3-4 .4-1.4.1-2.8.2-4.2.2-1.4 0-2.8.1-4.2.1h-4.1c-2.6-.1-5.1-.2-7.2-.4-.5-.1-1.1-.1-1.6-.4-.5-.3-.9-.7-1.1-1.1-.4-.9-.4-1.7-.3-2.3.1-.6.2-1.1.3-1.4-.1-.3 0-.5 0-.5zm-.4-84.6s.6.2 1.6.5c.5.2 1.2.3 1.9.5s1.6.4 2.4.5c.9.2 1.9.3 2.9.5 1 .1 2.1.2 3.3.3 1.1.1 2.3.1 3.5.2h3.6c1.2 0 2.5 0 3.7-.1 1.2 0 2.4-.1 3.6-.1 2.3-.1 4.5-.1 6.3-.3 1.8-.2 3.2-.6 4.1-1.2.4-.3.8-.6 1-.8l.3-.3s-.1.1-.2.4c-.2.3-.4.6-.8 1-.8.8-2.3 1.6-4.2 2-.9.2-2 .4-3 .5-1.1.1-2.2.3-3.3.4l-3.6.3c-1.2.1-2.5.1-3.7.2-1.3 0-2.5 0-3.7-.1-.6 0-1.2-.1-1.8-.1-.6-.1-1.2-.1-1.8-.2-1.2-.1-2.3-.4-3.4-.6-.5-.1-1-.3-1.5-.4-.5-.2-1-.3-1.4-.4-1.8-.6-3.2-1.3-4.2-1.8-1-.6-1.6-.9-1.6-.9zm-50.1 102.1l.3.3c.2.2.5.4 1 .6.9.5 2.3 1 4.2 1.4 1.9.4 4.2.7 6.8 1.1 2.6.4 5.6.7 8.9 1.1 3.3.3 6.8.7 10.6 1 3.7.3 7.7.5 11.8.7 8.2.3 17 .5 25.7.6 4.4.1 8.8.1 13.1.2 4.3 0 8.5.1 12.6 0s8-.4 11.7-.8c3.7-.5 7.2-1.1 10.4-1.7 6.4-1.4 11.6-3 15.2-4.3 1.8-.7 3.2-1.2 4.2-1.6l1.5-.6s-.5.2-1.4.7c-.9.4-2.3 1.1-4.1 1.8-3.5 1.5-8.7 3.5-15.1 5.1-6.4 1.6-14.1 2.9-22.3 3.2-4.1.2-8.4.2-12.7.2-4.3 0-8.7-.1-13.1-.1-4.4-.1-8.8-.2-13.1-.3-4.3-.1-8.6-.4-12.7-.6-4.1-.3-8.1-.6-11.8-1-3.8-.4-7.3-.8-10.6-1.3-1.6-.3-3.2-.5-4.7-.7-1.5-.3-2.9-.5-4.2-.8-2.6-.5-4.9-1-6.8-1.5-1.9-.5-3.3-1.1-4.1-1.7-.4-.3-.7-.5-.9-.7-.3-.2-.4-.3-.4-.3z"/><linearGradient id="SVGID_1_" gradientUnits="userSpaceOnUse" x1="6498.813" y1="-446.236" x2="6704.691" y2="-446.236"><stop offset=".018" stop-color="#801fe3"/><stop offset="1" stop-color="#b7a7ff"/></linearGradient><path class="st2" d="M6498.8-539.9c1.4 24.4 2.7 48.8 4.1 73.2.4 7.9.9 15.9 2.2 23.7 1.8 11.1 5.4 21.8 8.9 32.5 3 9.1 6 18.2 11.1 26.3 17.8 28.1 51.5 32.7 81.9 31.3 10.6-.5 21.3-1.5 31.5-4.7 66.9-21.3 65.2-117 66.1-172.7 0-2.6.1-5.1.1-7.7-68.7 2.2-137.5 4-205.9-1.9z"/><path d="M6493.7-559.6s.6 8.1 1.5 22.2c.5 7.1 1 15.6 1.7 25.5.6 9.8 1.4 20.9 2.1 33.1.4 6.1.7 12.4 1.3 18.9.5 6.5 1.4 13.2 3 19.9 1.6 6.7 3.7 13.5 6 20.4 2.4 6.9 4.5 14 7.5 20.9.8 1.7 1.5 3.4 2.4 5.1.9 1.6 1.8 3.3 2.8 4.8 1.1 1.6 2.2 3.1 3.4 4.7 1.2 1.4 2.5 2.8 3.7 4.3 5.3 5.5 11.7 10 18.8 13.2 7.1 3.3 14.8 5.4 22.6 6.6 7.9 1.3 15.9 1.7 23.9 1.7 8-.1 16.1-.4 24-1.5 3.9-.5 7.9-1.2 11.7-2.2 1-.3 1.9-.5 2.8-.8l.7-.2h.1l.2-.1.4-.1 1.4-.5 2.8-1c.5-.2.9-.3 1.4-.5l1.3-.6c7.1-3.1 13.7-7.4 19.4-12.5 5.7-5.1 10.5-11.1 14.4-17.5 4-6.3 7.1-13.1 9.7-19.8 2.6-6.8 4.6-13.6 6.3-20.3 3.2-13.5 5-26.5 6.2-38.5 1.1-12.1 1.7-23.2 2-33 .3-9.9.5-18.4.7-25.5.2-14.2.4-22.2.4-22.2s0 2 .1 5.8c0 3.8.1 9.4.2 16.4 0 7.1 0 15.7-.2 25.5-.1 9.9-.5 21-1.5 33.1-1 12.1-2.6 25.2-5.7 38.9-1.6 6.8-3.6 13.7-6.1 20.6-2.5 6.9-5.7 13.8-9.8 20.3-4 6.5-9 12.7-14.8 18.1-5.9 5.4-12.7 9.8-20.2 13.1l-1.4.6c-.5.2-.9.4-1.4.5l-2.8 1-1.4.5-.4.1-.2.1-.2.1-.7.2c-1 .3-2 .6-2.9.8-3.9 1-8 1.8-12 2.4-8.1 1.1-16.2 1.5-24.4 1.6-8.2 0-16.3-.5-24.4-1.8-8-1.3-16-3.5-23.3-7-7.4-3.4-14.1-8.1-19.6-13.9-1.3-1.5-2.6-3.1-3.9-4.6-1.1-1.6-2.2-3.2-3.3-4.7-2.2-3.4-3.9-6.8-5.4-10.4-3-7.1-5.2-14.2-7.5-21.2-2.2-7-4.3-13.9-5.8-20.7-1.6-6.9-2.4-13.6-2.8-20.2-.5-6.6-.7-12.9-1-18.9-.6-12.1-1.1-23.2-1.6-33.1-.5-9.9-.8-18.4-1.2-25.5-.7-14.2-1-22.2-1-22.2z"/><path d="M6494.1-544.2s.8 0 2.4.1c1.6.1 3.8.2 6.7.3 2.9.2 6.4.3 10.5.5 4 .2 8.6.3 13.6.5s10.4.3 16.1.5c5.7.2 11.7.2 17.9.4 6.2.1 12.6.1 19.2.2 6.5.1 13.2 0 19.8.1 6.6 0 13.3 0 19.8-.1s13-.1 19.2-.2c12.5-.1 24.1-.2 34-.3 10-.1 18.3-.1 24.1-.1h9.1s-.8.1-2.4.2c-1.6.1-3.8.2-6.7.4-5.8.3-14.1.8-24.1 1.3-10 .5-21.6.9-34 1.3-6.2.1-12.7.4-19.2.4-6.5.1-13.2.1-19.8.2-6.6 0-13.3 0-19.8-.2-6.5-.1-13-.3-19.2-.4-6.2-.2-12.3-.4-18-.8-2.9-.2-5.6-.3-8.3-.5-2.7-.2-5.3-.4-7.8-.5-2.5-.2-4.9-.3-7.1-.5-2.3-.2-4.4-.4-6.4-.6-4-.4-7.6-.7-10.4-1-2.9-.3-5.2-.6-6.7-.7-1.7-.4-2.5-.5-2.5-.5z"/><path class="st3" d="M458.2 102.2c-38 3.4-76 6.1-114 8.1-13.6.7-27.3 1.3-40.8-.2-16.7-1.9-33.2-7-49.9-6.2l-1.4.3c1.5 12.5 3 25 4.5 37.6 5.7 47.4 8.9 95.7 17.3 142.6 5.9 32.8 2.8 66.5 8.7 99.3 7.2 39.9 8.9 80.5 14.1 120.7 3.7 29.1 1.2 58.1 4.2 87.4.6 5.5 1.3 11.3 4.3 15.9 2.7 4 6.8 6.6 10.9 9 8.6 5 62.3 6.9 79.9 3 5.1-1.1 10.2-2.5 14.8-5.2 17.4-10.4 9.8-45 9.5-61.6-.5-28.2 0-56.4 1.9-84.5 2.3-36.1 9.2-69.7 11-105.9 2-40.1 7.4-79.6 11.7-119.5 3.7-34.1 4.5-66.6 8.9-100.6 1.8-13.4 3.3-26.8 4.4-40.2z"/><path class="st0" d="M455.2 99.2c-38 3.4-76 6.1-114 8.1-13.6.7-27.3 1.3-40.8-.2-16.7-1.9-33.2-7-49.9-6.2l-1.4.3c1.5 12.5 3 25 4.5 37.6 5.7 47.4 8.9 95.7 17.3 142.6 5.9 32.8 2.8 66.5 8.7 99.3 7.2 39.9 8.9 80.5 14.1 120.7 3.7 29.1 1.2 58.1 4.2 87.4.6 5.5 1.3 11.3 4.3 15.9 2.7 4 6.8 6.6 10.9 9 8.6 5 62.3 6.9 79.9 3 5.1-1.1 10.2-2.5 14.8-5.2 17.4-10.4 9.8-45 9.5-61.6-.5-28.2 0-56.4 1.9-84.5 2.3-36.1 9.2-69.7 11-105.9 2-40.1 7.4-79.6 11.7-119.5 3.7-34.1 4.5-66.6 8.9-100.6 1.8-13.4 3.3-26.8 4.4-40.2z"/><path class="st4" d="M253.5 104.8c16.8-.8 33.2 4.3 49.9 6.2 13.5 1.5 27.2.9 40.8.2 38-2 114-8.1 114-7.8-.6 6.3 3.5-24.1 3.8-56.2-1.9-15.1-17.3-29.8-31.6-34-5-1.5-10.3-2.1-15.5-2.6-34.7-3.8-69.6-6.6-104.4-3.8-16.6 1.3-33.3 4-48.4 11.1-5.5 2.6-10.9 5.9-14.5 11-4.3 6.1-6.7 16.5-4.3 23.6 2.9 24.2 5.9 28.4 8.8 52.6l1.4-.3z"/><path class="st1" d="M469 17.3c-7.8 168.2-34.8 344.8-42.6 513-1.9 40.4-2.8 87.1 20.3 120.2 7.1 10.1 16.7 14.4 12.8 26-3.7 11.1-17.3 14.9-28.9 16.4-53.6 7-96 13-151.6-3.7-13.3-4-15.9-8.5-18-11.6-4.8-7.1 2.8-15.7 8.5-22.1 25.2-27.7 22.7-70 18.7-107.2-19.1-177-38.2-354-57.3-531.1 49.1 6.4 220.3 3.7 238.1.1z"/><path d="M240.3 28.5s2.5 19.9 6.9 54.8c2.2 17.4 4.8 38.6 7.9 62.8 1.5 12.1 2.9 25.1 4.3 38.7 1.5 13.6 2.9 28 4.7 42.9 1.8 14.9 3.9 30.5 6.6 46.4.7 4 1.4 8 2.1 12.1.6 4.1 1.1 8.3 1.6 12.4.9 8.4 1.3 16.9 1.7 25.5.8 17.2 1.3 35 4.2 52.7.4 2.2.7 4.5 1.1 6.7.4 2.2.8 4.5 1.1 6.8.7 4.5 1.4 9.1 2 13.7 1.2 9.2 2.3 18.5 3.3 27.8 1.9 18.7 3.5 37.8 5.7 57 .5 4.8 1.2 9.6 1.7 14.5.6 4.8 1 9.8 1.3 14.7.6 9.8.8 19.7.9 29.5.1 9.9.3 19.8.9 29.7.3 4.9.7 9.9 1.3 14.8.6 4.8 1.8 9.6 4.8 13.1 1.5 1.8 3.3 3.3 5.3 4.6 1 .7 2 1.3 3.1 1.9l.8.5c.1.1.1.1.3.2l.4.2c.6.3 1 .4 1.5.6 2.3.7 4.7 1.1 7.1 1.5 2.4.4 4.9.7 7.4.9 9.9 1 19.9 1.4 29.9 1.5 5 0 10 0 15-.2s10-.5 14.8-1.3c2.4-.4 4.8-1 7.2-1.6 2.4-.6 4.7-1.4 6.8-2.4 1.1-.5 2.2-1.1 3.1-1.7l.8-.5c.3-.2.5-.3.7-.5.4-.4.9-.7 1.3-1.1 1.7-1.6 3-3.5 4-5.7 2.1-4.3 3-9.1 3.4-14 .4-4.9.3-9.8.1-14.7-.3-4.9-.7-9.9-1.1-14.8-.2-2.5-.4-5-.5-7.5-.1-2.5-.1-5-.1-7.4-.2-19.8.1-39.4.9-58.8.4-9.7 1-19.3 1.8-28.8.8-9.6 1.9-19 3.1-28.3 2.3-18.7 4.9-37 6.4-55 .8-9 1.1-17.9 1.8-26.8.6-8.8 1.4-17.6 2.2-26.1 1.7-17.2 3.6-33.8 5.5-50 1.9-16.1 3.8-31.7 5.1-46.7 1.3-15 2.3-29.4 3.4-43 1.1-13.7 2.4-26.6 4-38.8 3.3-24.2 5.4-45.4 6.6-63 1.3-17.5 1.8-31.3 2-40.7.1-4.7.2-8.3.2-10.7 0-2.4.1-3.7.1-3.7v3.7c0 2.4-.1 6-.1 10.7-.2 9.4-.6 23.2-1.7 40.7-1.1 17.5-2.9 38.8-6 63.1-1.5 12.1-2.6 25.1-3.6 38.8-1 13.7-1.9 28.1-3.2 43.1-1.2 15-3.1 30.6-4.8 46.7-1.8 16.1-3.7 32.8-5.3 49.9-.8 8.6-1.5 17.3-2.1 26.1-.6 8.8-.9 17.8-1.6 26.8-1.4 18.1-4 36.5-6.3 55.1-1.1 9.3-2.2 18.7-3 28.2-.8 9.5-1.3 19.1-1.7 28.8-.8 19.3-1.1 38.9-.8 58.6 0 2.5.1 5 .1 7.4.1 2.4.3 4.9.5 7.3.4 4.9.9 9.9 1.2 14.9.3 5 .4 10.1-.1 15.1-.4 5.1-1.4 10.2-3.6 15-1.1 2.4-2.7 4.6-4.6 6.5-.5.5-1.1.9-1.6 1.4-.5.5-1 .7-1.6 1.1-1.2.8-2.3 1.3-3.5 1.9-2.4 1.1-4.8 1.9-7.3 2.6-2.5.7-4.9 1.2-7.5 1.7-5.1.8-10.1 1.1-15.1 1.4-5 .2-10.1.3-15.1.2-10.1-.1-20.1-.5-30.2-1.6-2.5-.3-5-.6-7.5-1s-5-.9-7.5-1.6c-.6-.2-1.4-.5-2-.7l-.4-.2c-.1 0-.4-.2-.5-.3l-.8-.5c-1.1-.6-2.2-1.3-3.3-2-2.1-1.4-4.2-3.1-5.9-5.2-.2-.3-.4-.5-.6-.8l-.5-.8c-.4-.6-.7-1.2-1-1.8-.6-1.2-1.1-2.4-1.5-3.7-.8-2.5-1.3-5.1-1.6-7.6-.6-5-1-10-1.3-15-.6-10-.7-19.9-.9-29.8-.1-9.9-.3-19.7-.8-29.4-.3-4.9-.7-9.7-1.3-14.5-.5-4.8-1.2-9.7-1.7-14.5-2.2-19.3-3.7-38.3-5.6-57-.9-9.3-2-18.6-3.2-27.7-.6-4.6-1.3-9.1-2-13.6-.3-2.3-.7-4.5-1.1-6.7-.4-2.2-.8-4.5-1.1-6.7-2.9-18-3.3-35.8-4-53-.4-8.6-.8-17.1-1.6-25.4-.4-4.2-.9-8.2-1.5-12.3-.6-4.1-1.3-8.1-2-12.1-2.7-16-4.7-31.6-6.4-46.6-3.4-29.9-5.7-57.4-8.4-81.7-2.8-24.3-5.3-45.5-7.3-62.9-4.3-34.9-6.6-54.8-6.6-54.8z"/><path d="M249.7 101s.8 0 2.3-.1c1.5 0 3.7-.1 6.6.1 2.8.1 6.2.4 10.1.8 3.9.5 8.3 1.1 13.1 1.8 4.8.7 9.9 1.6 15.4 2.3 5.5.7 11.3 1.1 17.3 1.2 6 .1 12.2-.1 18.5-.4 6.3-.3 12.7-.7 19.2-1.2 12.8-.8 25.7-1.8 37.7-2.7 6-.4 11.8-.8 17.4-1.1 5.5-.3 10.7-.7 15.6-.9 4.8-.3 9.2-.5 13.2-.7 3.9-.2 7.3-.4 10.1-.5 5.6-.3 8.8-.4 8.8-.4v.3s-3.2.5-8.8 1.2c-2.8.4-6.2.8-10.1 1.2-3.9.4-8.3 1-13.1 1.4-4.8.5-10 1-15.5 1.4-5.5.5-11.3.9-17.4 1.4-12.1.8-24.9 1.4-37.8 2-6.4.3-12.9.6-19.2.8-6.3.2-12.6.3-18.7.1-6.1-.2-11.9-.7-17.4-1.5-5.5-.8-10.6-1.8-15.4-2.6-4.7-.9-9.1-1.6-13-2.1-3.9-.6-7.3-.9-10.1-1.1-2.8-.2-5-.2-6.5-.2h-2.3v-.5zm-6.4-52.5s-.1-.2-.2-.7c-.2-.5-.3-1.2-.5-2.1-.4-1.9-.6-4.7-.1-8.3.2-1.8.6-3.7 1.3-5.8.7-2.1 1.6-4.2 2.9-6.4 1.3-2.1 3.2-4.2 5.3-6 2.2-1.8 4.7-3.4 7.4-4.9 5.4-2.8 11.6-5.5 18.3-7.5 6.7-2.1 14-3.6 21.6-4.5 3.8-.5 7.7-.8 11.6-1.1 1.9-.2 3.9-.3 5.9-.4l6-.3c8-.3 16.1-.4 24.3-.2 8.1.2 16.2.6 24.2 1.2 8 .5 15.8 1.3 23.4 2 7.6.8 14.8 1.6 21.8 2.5 3.5.5 6.9 1.1 10.1 2 1.6.4 3.2 1 4.7 1.6 1.5.6 2.9 1.3 4.3 2.1 5.4 3 9.8 6.7 13.1 10.4 3.4 3.7 5.8 7.4 7.3 10.6 1.6 3.2 2.3 5.9 2.7 7.8.2.9.3 1.7.3 2.1.1.5.1.7.1.7s0-.2-.1-.7c-.1-.5-.2-1.2-.5-2.1-.5-1.8-1.4-4.5-3.1-7.6-1.7-3.1-4.2-6.6-7.6-10.1-3.4-3.5-7.8-6.9-13.1-9.6-1.3-.7-2.7-1.3-4.2-1.9-1.4-.5-2.9-1-4.5-1.4-3.1-.8-6.4-1.3-9.9-1.7-6.9-.7-14.2-1.4-21.8-2.1-7.6-.7-15.4-1.3-23.3-1.8s-16-.9-24.1-1c-8.1-.2-16.1-.2-24.1.1-2 0-4 .2-5.9.2-2 .1-3.9.2-5.9.3-3.9.2-7.7.5-11.5 1-7.5.8-14.7 2.1-21.3 4-6.6 1.9-12.7 4.3-18.1 6.9-5.3 2.7-9.8 6-12.5 10-1.4 2-2.3 4.1-3.1 6-.7 2-1.2 3.9-1.5 5.6-.6 3.5-.6 6.3-.3 8.1.2.9.3 1.6.4 2.1.1.6.2.9.2.9z"/></svg>