<?xml version="1.0" encoding="utf-8"?>
<!-- Generator: Adobe Illustrator 19.2.0, SVG Export Plug-In . SVG Version: 6.00 Build 0)  -->
<svg version="1.1" id="Layer_1" xmlns="http://www.w3.org/2000/svg" xmlns:xlink="http://www.w3.org/1999/xlink" x="0px" y="0px"
	 viewBox="0 0 705 705" style="enable-background:new 0 0 705 705;" xml:space="preserve">
<style type="text/css">
	.st0{fill:none;}
	.st1{fill:none;stroke:#000000;stroke-width:5;stroke-miterlimit:10;}
	.st2{opacity:0.9;fill:url(#SVGID_1_);enable-background:new    ;}
	.st3{fill:url(#SVGID_2_);}
	.st4{fill:#F5F5F5;}
</style>
<path class="st0" d="M122.5,0h460v705h-460L122.5,0L122.5,0z"/>
<path class="st1" d="M6711.1-565.6c0.3,38.5,0.2,82.4-5.7,120.5c-2.3,14.7-3.7,31.7-10.6,44.9c-9.4,17.9-18.6,35.9-34,49.5
	c-5.5,4.9-11.5,9.2-17.9,12.8c-4.2,2.3-15.3,5.1-15.9,10.8c-0.4,3.6,3.8,5.7,6.9,7.6c6.9,4.3,10.9,12.3,11.6,20.4
	c1.5,15.4-5.6,30.7-18.9,38.8c-0.8,0.5-1.6,1-1.9,1.8c-0.7,2.1,2.1,3.4,4.2,3.8c12.1,2.1,24,5,35.7,8.7c7.7,2.4,24.3,10.6,12,18.5
	c-7.7,4.9-17,6.2-26,7.3c-24.7,3.1-49.7,6.2-74.5,3.9c-5.6-0.5-11.2-1.4-16.8-2.2l-22.5-3.3c-5.3-0.8-11.8-2.7-12.7-7.9
	c-1.7-10.2,16.6-15.1,23.6-17.2c4.9-1.5,36.5-4.6,35.6-9.3c-0.5-2.4-2.8-3.9-4.8-5.4c-8.9-6.4-15-16.4-16.6-27.2
	c-1.6-10.8,1.3-22.2,7.9-30.9c2.2-2.9,4.9-6,4.4-9.6c-0.2-1.5-1-2.9-2-4.1c-5.1-6.7-15.9-9.5-22.8-14.7c-7.9-6-15.2-12.8-21.6-20.4
	c-12.5-14.5-22.1-31.5-27.6-49.9c-5.2-17.2-6.9-35.3-8.2-53.2c-2.3-31-3.6-62-3.8-93.1c20.2-2.4,42-1.8,62.4-1.4
	C6603.4-565,6711.1-567.7,6711.1-565.6L6711.1-565.6z"/>
<path d="M6584.5-250.7v1.9c0,0.6,0.1,1.3,0.6,1.9c0.4,0.6,1.2,0.8,2.2,0.8c2.1-0.1,4.5-0.2,7.1-0.2c1.3,0,2.7-0.1,4-0.1
	c1.4-0.1,2.8-0.1,4.1-0.2c1.4-0.1,2.8-0.1,4.1-0.2c1.4-0.1,2.7-0.1,4-0.2c2.6-0.1,5-0.2,7.1-0.3c2-0.1,3.7-0.6,4.6-1.3
	c0.4-0.4,0.7-0.8,0.8-1.1c0.1-0.3,0.2-0.5,0.2-0.5v0.5c-0.1,0.3-0.2,0.8-0.6,1.3s-1.1,1-1.9,1.4s-1.8,0.7-2.8,0.8
	c-2.1,0.4-4.5,0.7-7.1,0.9c-1.3,0.1-2.7,0.3-4,0.4c-1.4,0.1-2.8,0.2-4.2,0.2c-1.4,0-2.8,0.1-4.2,0.1h-4.1c-2.6-0.1-5.1-0.2-7.2-0.4
	c-0.5-0.1-1.1-0.1-1.6-0.4c-0.5-0.3-0.9-0.7-1.1-1.1c-0.4-0.9-0.4-1.7-0.3-2.3s0.2-1.1,0.3-1.4
	C6584.4-250.5,6584.5-250.7,6584.5-250.7L6584.5-250.7z M6584.1-335.3c0,0,0.6,0.2,1.6,0.5c0.5,0.2,1.2,0.3,1.9,0.5s1.6,0.4,2.4,0.5
	c0.9,0.2,1.9,0.3,2.9,0.5c1,0.1,2.1,0.2,3.3,0.3c1.1,0.1,2.3,0.1,3.5,0.2h3.6c1.2,0,2.5,0,3.7-0.1c1.2,0,2.4-0.1,3.6-0.1
	c2.3-0.1,4.5-0.1,6.3-0.3c1.8-0.2,3.2-0.6,4.1-1.2c0.4-0.3,0.8-0.6,1-0.8l0.3-0.3c0,0-0.1,0.1-0.2,0.4c-0.2,0.3-0.4,0.6-0.8,1
	c-0.8,0.8-2.3,1.6-4.2,2c-0.9,0.2-2,0.4-3,0.5c-1.1,0.1-2.2,0.3-3.3,0.4l-3.6,0.3c-1.2,0.1-2.5,0.1-3.7,0.2c-1.3,0-2.5,0-3.7-0.1
	c-0.6,0-1.2-0.1-1.8-0.1c-0.6-0.1-1.2-0.1-1.8-0.2c-1.2-0.1-2.3-0.4-3.4-0.6c-0.5-0.1-1-0.3-1.5-0.4c-0.5-0.2-1-0.3-1.4-0.4
	c-1.8-0.6-3.2-1.3-4.2-1.8C6584.7-335,6584.1-335.3,6584.1-335.3L6584.1-335.3z M6534-233.2l0.3,0.3c0.2,0.2,0.5,0.4,1,0.6
	c0.9,0.5,2.3,1,4.2,1.4c1.9,0.4,4.2,0.7,6.8,1.1c2.6,0.4,5.6,0.7,8.9,1.1c3.3,0.3,6.8,0.7,10.6,1c3.7,0.3,7.7,0.5,11.8,0.7
	c8.2,0.3,17,0.5,25.7,0.6c4.4,0.1,8.8,0.1,13.1,0.2c4.3,0,8.5,0.1,12.6,0s8-0.4,11.7-0.8c3.7-0.5,7.2-1.1,10.4-1.7
	c6.4-1.4,11.6-3,15.2-4.3c1.8-0.7,3.2-1.2,4.2-1.6l1.5-0.6c0,0-0.5,0.2-1.4,0.7c-0.9,0.4-2.3,1.1-4.1,1.8c-3.5,1.5-8.7,3.5-15.1,5.1
	s-14.1,2.9-22.3,3.2c-4.1,0.2-8.4,0.2-12.7,0.2c-4.3,0-8.7-0.1-13.1-0.1c-4.4-0.1-8.8-0.2-13.1-0.3c-4.3-0.1-8.6-0.4-12.7-0.6
	c-4.1-0.3-8.1-0.6-11.8-1c-3.8-0.4-7.3-0.8-10.6-1.3c-1.6-0.3-3.2-0.5-4.7-0.7c-1.5-0.3-2.9-0.5-4.2-0.8c-2.6-0.5-4.9-1-6.8-1.5
	s-3.3-1.1-4.1-1.7c-0.4-0.3-0.7-0.5-0.9-0.7C6534.1-233.1,6534-233.2,6534-233.2L6534-233.2z"/>
<linearGradient id="SVGID_1_" gradientUnits="userSpaceOnUse" x1="6501.2998" y1="1656.7888" x2="6707.2002" y2="1656.7888" gradientTransform="matrix(1 0 0 -1 0 1213)">
	<stop  offset="1.800000e-02" style="stop-color:#801FE3"/>
	<stop  offset="1" style="stop-color:#B7A7FF"/>
</linearGradient>
<path class="st2" d="M6501.3-537.4c1.4,24.4,2.7,48.8,4.1,73.2c0.4,7.9,0.9,15.9,2.2,23.7c1.8,11.1,5.4,21.8,8.9,32.5
	c3,9.1,6,18.2,11.1,26.3c17.8,28.1,51.5,32.7,81.9,31.3c10.6-0.5,21.3-1.5,31.5-4.7c66.9-21.3,65.2-117,66.1-172.7
	c0-2.6,0.1-5.1,0.1-7.7C6638.5-533.3,6569.7-531.5,6501.3-537.4L6501.3-537.4z"/>
<path d="M6496.2-557.1c0,0,0.6,8.1,1.5,22.2c0.5,7.1,1,15.6,1.7,25.5c0.6,9.8,1.4,20.9,2.1,33.1c0.4,6.1,0.7,12.4,1.3,18.9
	c0.5,6.5,1.4,13.2,3,19.9c1.6,6.7,3.7,13.5,6,20.4c2.4,6.9,4.5,14,7.5,20.9c0.8,1.7,1.5,3.4,2.4,5.1c0.9,1.6,1.8,3.3,2.8,4.8
	c1.1,1.6,2.2,3.1,3.4,4.7c1.2,1.4,2.5,2.8,3.7,4.3c5.3,5.5,11.7,10,18.8,13.2c7.1,3.3,14.8,5.4,22.6,6.6c7.9,1.3,15.9,1.7,23.9,1.7
	c8-0.1,16.1-0.4,24-1.5c3.9-0.5,7.9-1.2,11.7-2.2c1-0.3,1.9-0.5,2.8-0.8l0.7-0.2h0.1l0.2-0.1l0.4-0.1l1.4-0.5l2.8-1
	c0.5-0.2,0.9-0.3,1.4-0.5l1.3-0.6c7.1-3.1,13.7-7.4,19.4-12.5c5.7-5.1,10.5-11.1,14.4-17.5c4-6.3,7.1-13.1,9.7-19.8
	c2.6-6.8,4.6-13.6,6.3-20.3c3.2-13.5,5-26.5,6.2-38.5c1.1-12.1,1.7-23.2,2-33c0.3-9.9,0.5-18.4,0.7-25.5c0.2-14.2,0.4-22.2,0.4-22.2
	s0,2,0.1,5.8c0,3.8,0.1,9.4,0.2,16.4c0,7.1,0,15.7-0.2,25.5c-0.1,9.9-0.5,21-1.5,33.1s-2.6,25.2-5.7,38.9
	c-1.6,6.8-3.6,13.7-6.1,20.6s-5.7,13.8-9.8,20.3c-4,6.5-9,12.7-14.8,18.1c-5.9,5.4-12.7,9.8-20.2,13.1l-1.4,0.6
	c-0.5,0.2-0.9,0.4-1.4,0.5l-2.8,1l-1.4,0.5l-0.4,0.1l-0.2,0.1l-0.2,0.1l-0.7,0.2c-1,0.3-2,0.6-2.9,0.8c-3.9,1-8,1.8-12,2.4
	c-8.1,1.1-16.2,1.5-24.4,1.6c-8.2,0-16.3-0.5-24.4-1.8c-8-1.3-16-3.5-23.3-7c-7.4-3.4-14.1-8.1-19.6-13.9c-1.3-1.5-2.6-3.1-3.9-4.6
	c-1.1-1.6-2.2-3.2-3.3-4.7c-2.2-3.4-3.9-6.8-5.4-10.4c-3-7.1-5.2-14.2-7.5-21.2c-2.2-7-4.3-13.9-5.8-20.7
	c-1.6-6.9-2.4-13.6-2.8-20.2c-0.5-6.6-0.7-12.9-1-18.9c-0.6-12.1-1.1-23.2-1.6-33.1c-0.5-9.9-0.8-18.4-1.2-25.5
	C6496.5-549.1,6496.2-557.1,6496.2-557.1L6496.2-557.1z"/>
<path d="M6496.6-541.7c0,0,0.8,0,2.4,0.1s3.8,0.2,6.7,0.3c2.9,0.2,6.4,0.3,10.5,0.5c4,0.2,8.6,0.3,13.6,0.5s10.4,0.3,16.1,0.5
	s11.7,0.2,17.9,0.4c6.2,0.1,12.6,0.1,19.2,0.2c6.5,0.1,13.2,0,19.8,0.1c6.6,0,13.3,0,19.8-0.1s13-0.1,19.2-0.2
	c12.5-0.1,24.1-0.2,34-0.3c10-0.1,18.3-0.1,24.1-0.1h9.1c0,0-0.8,0.1-2.4,0.2c-1.6,0.1-3.8,0.2-6.7,0.4c-5.8,0.3-14.1,0.8-24.1,1.3
	s-21.6,0.9-34,1.3c-6.2,0.1-12.7,0.4-19.2,0.4c-6.5,0.1-13.2,0.1-19.8,0.2c-6.6,0-13.3,0-19.8-0.2c-6.5-0.1-13-0.3-19.2-0.4
	c-6.2-0.2-12.3-0.4-18-0.8c-2.9-0.2-5.6-0.3-8.3-0.5c-2.7-0.2-5.3-0.4-7.8-0.5c-2.5-0.2-4.9-0.3-7.1-0.5c-2.3-0.2-4.4-0.4-6.4-0.6
	c-4-0.4-7.6-0.7-10.4-1c-2.9-0.3-5.2-0.6-6.7-0.7C6497.4-541.6,6496.6-541.7,6496.6-541.7L6496.6-541.7z"/>
<g>
	<linearGradient id="SVGID_2_" gradientUnits="userSpaceOnUse" x1="258.1469" y1="377.6532" x2="458.9514" y2="377.6532">
		<stop  offset="0" style="stop-color:#FFC000"/>
		<stop  offset="0.9998" style="stop-color:#FFE015"/>
	</linearGradient>
	<path class="st3" d="M458.9,124.7c-37,3.3-74,6-111.1,7.9c-13.2,0.7-26.5,1.3-39.7-0.2c-16.3-1.8-32.3-6.8-48.6-6.1l-1.3,0.3
		c1.5,12.2,3,24.4,4.4,36.6c5.6,46.2,8.6,93.2,16.9,138.9c5.7,31.9,2.7,64.8,8.5,96.7c7.1,38.8,8.7,78.4,13.7,117.6
		c3.6,28.4,1.2,56.6,4.1,85.1c0.5,5.4,1.2,11,4.2,15.5c2.6,3.9,6.7,6.5,10.7,8.8c8.4,4.8,60.7,6.7,77.8,2.9c5-1.1,10-2.4,14.4-5.1
		c17-10.1,9.5-43.8,9.2-60c-0.4-27.4,0-54.9,1.8-82.3c2.3-35.2,9-67.9,10.7-103.1c1.9-39,7.2-77.6,11.4-116.4
		c3.6-33.2,4.3-64.9,8.7-98C456.4,150.8,457.8,137.8,458.9,124.7L458.9,124.7z"/>
	<path class="st0" d="M455,119.7c-37,3.3-74,6-111.1,7.9c-13.2,0.7-26.5,1.3-39.7-0.2c-16.3-1.8-32.3-6.8-48.6-6.1l-1.3,0.3
		c1.5,12.2,3,24.4,4.4,36.6c5.6,46.2,8.6,93.2,16.9,138.9c5.7,31.9,2.7,64.8,8.5,96.7c7.1,38.8,8.7,78.4,13.7,117.6
		c3.6,28.4,1.2,56.6,4.1,85.1c0.5,5.4,1.2,11,4.2,15.5c2.6,3.9,6.7,6.5,10.7,8.8c8.4,4.8,60.7,6.7,77.8,2.9c5-1.1,10-2.4,14.4-5.1
		c17-10.1,9.5-43.8,9.2-60c-0.4-27.4,0-54.9,1.8-82.3c2.3-35.2,9-67.9,10.7-103.1c1.9-39,7.2-77.6,11.4-116.4
		c3.6-33.2,4.3-64.9,8.7-98C452.4,145.8,453.9,132.7,455,119.7L455,119.7z"/>
	<path class="st4" d="M259.5,126.3c16.3-0.8,32.4,4.2,48.6,6.1c13.2,1.5,26.5,0.9,39.7,0.2c37.1-1.9,111.1-7.9,111.1-7.6
		c-0.6,6.1,3.4-43,3.7-74.2c-1.8-14.7-16.8-29-30.8-33.1c-4.9-1.4-10-2-15.1-2.6c-33.8-3.7-67.8-6.4-101.7-3.7
		c-16.1,1.3-32.4,3.9-47.2,10.8c-5.4,2.5-10.6,5.8-14.1,10.7c-4.2,5.9-6.5,16.1-4.1,23c2.9,23.6,5.7,47.2,8.6,70.8L259.5,126.3z"/>
	<path class="st1" d="M468.4,40c-7.6,163.8-33.9,335.8-41.5,499.6c-1.8,39.3-2.8,84.8,19.8,117.1c6.9,9.8,15.1,18.1,14.5,24.4
		c-0.9,11.4-12.8,14.5-24.1,16c-52.2,6.8-99.3,7.2-153.8-2.6c-13.3-2.4-16.5-7.2-18.5-10.2c-4.7-6.9,3.7-16.3,9.3-22.5
		c24.6-27,22.2-68.2,18.2-104.4C273.8,384.8,255.2,212.4,236.6,40C284.3,46,451.1,43.4,468.4,40z"/>
	<g>
		<path d="M245.7,50.8c0,0,2.4,19.4,6.7,53.3c2.1,17,4.7,37.6,7.7,61.2c1.4,11.8,2.8,24.4,4.2,37.7c1.4,13.3,2.9,27.3,4.6,41.8
			c1.8,14.5,3.8,29.7,6.4,45.2c0.7,3.9,1.4,7.8,2,11.8c0.6,4,1.1,8,1.5,12.1c0.8,8.1,1.3,16.4,1.7,24.8c0.8,16.8,1.3,34,4.1,51.4
			c0.4,2.1,0.7,4.3,1.1,6.5c0.4,2.2,0.8,4.4,1.1,6.6c0.7,4.4,1.4,8.9,2,13.3c1.2,8.9,2.2,18,3.2,27.1c1.9,18.2,3.4,36.8,5.6,55.5
			c0.5,4.7,1.1,9.3,1.7,14.1c0.6,4.7,0.9,9.5,1.3,14.3c0.6,9.6,0.7,19.2,0.9,28.8c0.1,9.6,0.3,19.3,0.9,28.9
			c0.3,4.8,0.7,9.6,1.3,14.4c0.6,4.7,1.7,9.3,4.6,12.8c1.4,1.7,3.2,3.2,5.2,4.5c1,0.7,2,1.3,3,1.9l0.8,0.5c0.1,0.1,0.1,0.1,0.3,0.2
			l0.4,0.2c0.6,0.3,0.9,0.4,1.5,0.6c2.2,0.7,4.6,1.1,6.9,1.5c2.4,0.4,4.8,0.7,7.2,0.9c9.6,1,19.4,1.4,29.1,1.5c4.9,0,9.7,0,14.6-0.2
			c4.8-0.2,9.7-0.5,14.4-1.3c2.3-0.4,4.7-0.9,7-1.5c2.3-0.6,4.5-1.4,6.7-2.4c1-0.5,2.1-1,3-1.6l0.8-0.5c0.3-0.2,0.5-0.3,0.7-0.5
			c0.4-0.4,0.8-0.6,1.2-1.1c1.6-1.6,2.9-3.4,3.9-5.5c2-4.1,2.9-8.9,3.3-13.6c0.4-4.7,0.3-9.5,0.1-14.3c-0.3-4.8-0.7-9.6-1.1-14.4
			c-0.2-2.4-0.4-4.8-0.5-7.3c-0.1-2.5-0.1-4.8-0.1-7.3c-0.2-19.3,0.1-38.4,0.9-57.3c0.4-9.4,0.9-18.8,1.7-28.1
			c0.8-9.3,1.9-18.5,3-27.6c2.3-18.2,4.8-36,6.3-53.6c0.8-8.8,1.1-17.5,1.7-26.1c0.6-8.6,1.3-17.1,2.2-25.5
			c3.2-33.5,7.7-64.9,10.3-94.1c1.3-14.6,2.2-28.6,3.3-41.9c1.1-13.3,2.3-26,3.9-37.8c3.2-23.6,5.2-44.3,6.4-61.3
			c1.2-17.1,1.7-30.5,2-39.6c0.1-4.6,0.2-8.1,0.2-10.5c0-2.4,0.1-3.6,0.1-3.6s0,1.2,0,3.6c0,2.4-0.1,5.9-0.1,10.5
			c-0.2,9.2-0.6,22.6-1.6,39.7c-1.1,17.1-2.8,37.8-5.9,61.4c-1.5,11.8-2.6,24.4-3.5,37.7c-1,13.3-1.9,27.3-3.1,42
			c-2.5,29.3-6.8,60.7-9.8,94.2c-0.8,8.4-1.5,16.8-2,25.4c-0.6,8.6-0.8,17.3-1.6,26.1c-1.4,17.6-3.9,35.5-6.1,53.7
			c-1.1,9.1-2.2,18.3-2.9,27.5c-0.8,9.3-1.3,18.6-1.7,28c-0.8,18.8-1,37.9-0.8,57.1c0,2.4,0.1,4.8,0.1,7.2c0.1,2.4,0.3,4.8,0.5,7.2
			c0.4,4.8,0.9,9.6,1.1,14.5c0.3,4.9,0.4,9.8-0.1,14.7c-0.4,4.9-1.3,9.9-3.5,14.6c-1.1,2.3-2.6,4.5-4.5,6.3c-0.4,0.5-1,0.9-1.5,1.3
			c-0.5,0.5-1,0.7-1.5,1.1c-1.2,0.8-2.2,1.3-3.4,1.8c-2.3,1.1-4.7,1.9-7.1,2.5c-2.4,0.6-4.8,1.2-7.3,1.6c-4.9,0.8-9.8,1.1-14.8,1.3
			c-4.9,0.2-9.8,0.3-14.7,0.2c-9.8-0.1-19.6-0.5-29.4-1.5c-2.4-0.3-4.9-0.6-7.3-0.9c-2.4-0.4-4.9-0.8-7.4-1.6
			c-0.6-0.2-1.4-0.5-1.9-0.7l-0.4-0.2c-0.1,0-0.4-0.2-0.5-0.3l-0.8-0.5c-1.1-0.6-2.1-1.3-3.2-2c-2.1-1.4-4.1-3-5.8-5.1
			c-0.2-0.3-0.4-0.5-0.6-0.8l-0.5-0.8c-0.4-0.6-0.7-1.1-1-1.7c-0.6-1.2-1.1-2.4-1.5-3.6c-0.8-2.4-1.2-4.9-1.6-7.4
			c-0.6-4.9-0.9-9.7-1.3-14.6c-0.6-9.7-0.7-19.4-0.8-29c-0.1-9.6-0.3-19.2-0.8-28.7c-0.3-4.8-0.6-9.4-1.2-14.1
			c-0.5-4.7-1.2-9.4-1.7-14.1c-2.1-18.8-3.6-37.3-5.5-55.6c-0.9-9.1-1.9-18.1-3.1-27c-0.6-4.4-1.2-8.9-1.9-13.3
			c-0.3-2.2-0.7-4.4-1.1-6.6c-0.4-2.2-0.7-4.3-1.1-6.6c-2.8-17.5-3.2-34.9-3.9-51.6c-0.4-8.4-0.8-16.6-1.6-24.7
			c-0.4-4.1-0.9-8-1.5-12c-0.6-4-1.3-7.9-2-11.8c-2.6-15.6-4.5-30.8-6.2-45.4c-3.3-29.1-5.6-55.9-8.2-79.6
			c-2.7-23.7-5.1-44.3-7.1-61.3C247.9,70.2,245.7,50.8,245.7,50.8z"/>
	</g>
	<g>
		<path d="M254.8,121.4c0,0,0.8,0,2.3-0.1c1.5,0,3.6-0.1,6.4,0.1c2.7,0.1,6.1,0.4,9.9,0.8c3.8,0.4,8.1,1.1,12.7,1.8
			c4.6,0.7,9.7,1.5,15,2.2c5.3,0.7,11,1.1,16.8,1.1c5.9,0.1,11.9-0.1,18.1-0.4c6.1-0.3,12.4-0.7,18.7-1.1c12.5-0.8,25-1.8,36.7-2.6
			c5.9-0.4,11.5-0.7,16.9-1.1c5.4-0.3,10.5-0.6,15.2-0.9c4.7-0.3,9-0.5,12.8-0.7c3.8-0.2,7.1-0.4,9.9-0.5c5.5-0.3,8.6-0.4,8.6-0.4
			l0,0.3c0,0-3.1,0.5-8.6,1.1c-2.7,0.4-6,0.8-9.8,1.2c-3.8,0.4-8.1,0.9-12.8,1.4c-4.7,0.5-9.8,1-15.1,1.4c-5.4,0.5-11,0.9-16.9,1.3
			c-11.7,0.8-24.3,1.4-36.8,1.9c-6.3,0.3-12.5,0.6-18.7,0.8c-6.2,0.2-12.3,0.3-18.2,0.1c-5.9-0.2-11.6-0.7-17-1.5
			c-5.3-0.8-10.4-1.7-15-2.6c-4.6-0.8-8.9-1.6-12.6-2.1c-3.8-0.5-7.1-0.9-9.8-1c-2.7-0.2-4.9-0.2-6.3-0.2c-1.5,0-2.3,0-2.3,0
			L254.8,121.4z"/>
	</g>
	<g>
		<path d="M245.7,49.8c0,0-0.1-0.2-0.2-0.7c-0.2-0.5-0.3-1.2-0.5-2.1c-0.3-1.8-0.5-4.6,0.1-8.1c0.5-3.4,1.7-7.6,4.4-11.8
			c2.7-4.1,7.2-7.6,12.6-10.3c5.4-2.7,11.5-5.1,18.1-6.9c6.6-1.8,13.8-3.1,21.2-4c7.4-0.9,15.2-1.5,23-1.8
			c7.9-0.3,15.8-0.4,23.8-0.3c16,0.3,31.9,1.5,46.8,3c7.4,0.7,14.6,1.5,21.5,2.3c3.4,0.4,6.7,0.9,9.9,1.7c1.6,0.4,3.1,0.9,4.6,1.5
			c0.7,0.3,1.4,0.6,2.2,0.9c0.7,0.3,1.4,0.7,2,1c5.4,2.8,9.6,6.4,13,9.9c3.4,3.6,5.7,7.1,7.4,10.2c1.7,3.1,2.3,5.8,2.8,7.6
			c0.3,1.8,0.5,2.8,0.5,2.8s-0.2-1-0.5-2.8c-0.5-1.8-1.2-4.5-2.9-7.5c-1.6-3.1-4.1-6.6-7.5-10c-1.7-1.7-3.6-3.5-5.8-5.1
			c-2.1-1.7-4.6-3.2-7.2-4.6c-0.7-0.3-1.3-0.7-2-1c-0.7-0.3-1.4-0.6-2.1-0.9c-1.5-0.5-3-1-4.5-1.4c-3.1-0.8-6.4-1.3-9.8-1.7
			c-6.8-0.8-14-1.5-21.4-2.2c-14.9-1.4-30.8-2.5-46.8-2.7c-8-0.2-15.9-0.1-23.8,0.2c-7.8,0.3-15.6,0.8-23,1.7
			c-7.4,0.9-14.5,2.1-21.1,3.9c-6.6,1.8-12.7,4.1-18,6.7c-5.3,2.7-9.8,6-12.5,10c-2.7,4-3.9,8.2-4.5,11.6c-0.6,3.4-0.5,6.2-0.2,8.1
			c0.2,0.9,0.3,1.6,0.5,2.1C245.6,49.6,245.7,49.8,245.7,49.8z"/>
	</g>
</g>
</svg>
