<?xml version="1.0" encoding="utf-8"?>
<!-- Generator: Adobe Illustrator 19.2.0, SVG Export Plug-In . SVG Version: 6.00 Build 0)  -->
<svg version="1.1" id="Layer_1" xmlns="http://www.w3.org/2000/svg" xmlns:xlink="http://www.w3.org/1999/xlink" x="0px" y="0px"
	 viewBox="0 0 460 407.3" style="enable-background:new 0 0 460 407.3;" xml:space="preserve">
<style type="text/css">
	.st0{fill:#D8A36A;}
	.st1{fill:none;stroke:#000000;stroke-width:5;stroke-miterlimit:10;}
</style>
<path class="st0" d="M308.6,323.1c3.2-7,2.6-16.4,3.4-24.9c5-57.1,5.4-98.4,14.8-145.5c3.6-18.1,8.5-36,9.1-54.9
	c0.3-9.6,0.6-19.1,0.9-28.7c-17.2-0.2-34.4-0.3-51.5-0.5c-15.3-0.2-30.7-0.3-46.1-0.5c-35.8-0.4-71.7-0.7-107.5-1.1h-0.8
	c0.6,15.3,1.2,30.7,1.2,46.1c0,6.5-0.1,13,1.1,19.2c1.1,5.6,3.2,10.7,4.6,16.1c2.4,9,3,18.8,3.6,28.4c1.6,26.4,3.2,52.9,4.8,79.3
	c1.1,18.6,2.5,38.2,9.7,53.2c13.7,28.4,36.5,28.5,57.1,31.1c25.9,3.2,52.1,1.6,77.8-4.7C297.4,334.2,304.7,331.6,308.6,323.1
	L308.6,323.1z"/>
<path class="st1" d="M208.8,404.3c20.4-1.6,42.6-2.4,63.1-2c7.4-2.5,14.8-4.9,22.1-7.4l6.2-2.1c4.5-1.5,9.7-2.5,13.8-5.2
	c4.6-2.9,3.6-5,3.8-12.7c0.4-12.9,0.8-25.8,1.6-38.7c1.2-26.2,3.1-52.3,5.3-78.3c4.5-51.1,8.9-97.5,16.4-147.8
	c4.6-31.1,4.2-68.4,5.4-100.1c0.1-2.8-219.2-3.1-233.1-2.7c-0.4,22,2.3,71.7,3.1,81.4c3.3,38.7,10.7,106.1,14.5,144.7
	c4.9,48.5,5.6,98,12.3,146.1c0.3,1.9,0.5,3.8,1.4,5.3c0.6,1.1,1.5,1.9,2.2,2.6c9.2,8.3,18.8,10.3,29.5,11.6
	C184.8,400.1,206.3,404.5,208.8,404.3L208.8,404.3z"/>
<path d="M334.8,26.1c0,0-0.3,12.1-0.7,33.4c-0.2,10.6-0.5,23.5-0.9,38.3c-0.1,3.7-0.1,7.5-0.4,11.5c-0.2,4-0.6,8-1.2,12.1
	c-1.1,8.3-2.9,16.8-4.8,25.7c-0.9,4.5-1.9,9-2.8,13.6c-0.4,2.3-0.9,4.7-1.3,7l-1.2,7.2c-1.5,9.7-2.8,19.7-3.9,30.1
	c-2.2,20.7-3.4,42.7-5,65.4c-0.8,11.3-1.7,22.9-2.6,34.6c-0.5,5.8-0.3,11.7-1.3,17.7c-0.3,1.5-0.6,3-1,4.5c-0.3,0.7-0.5,1.5-0.8,2.2
	c-0.2,0.4-0.3,0.7-0.5,1.1l-0.5,1c-1.5,2.8-3.6,5.3-6.2,7.2s-5.5,3.2-8.5,4.1c-1.5,0.5-3,0.8-4.4,1.2l-4.4,1
	c-5.9,1.3-11.9,2.4-17.9,3.2c-12.1,1.6-24.3,2.2-36.5,1.8c-6.1-0.2-12.2-0.7-18.3-1.5c-6-0.7-12-1.3-18.1-2.4
	c-6-1.1-12.1-2.6-17.6-5.4c-5.6-2.8-10.5-6.7-14.5-11.4c-0.9-1.2-2-2.4-2.8-3.6l-2.5-3.8c-0.8-1.3-1.4-2.7-2.2-4l-0.5-1l-0.1-0.3
	c0-0.1-0.1-0.2-0.1-0.3l-0.2-0.5l-0.9-2c-2.3-5.6-3.9-11.4-5-17.2c-2.2-11.6-2.9-23.3-3.6-34.6c-1.3-22.7-2.5-44.7-3.7-65.5
	c-0.3-5.2-0.6-10.3-0.9-15.4s-0.6-10-1.2-14.8s-1.5-9.5-2.9-14s-3-8.9-3.8-13.5s-1-9.1-1-13.4v-12.8c0-8.3-0.2-16.1-0.4-23.5
	c-0.4-14.8-0.9-27.7-1.3-38.3c-0.4-10.6-0.5-19-0.6-24.6c0-5.7-0.1-8.7-0.1-8.7s0.1,3,0.2,8.7c0.2,5.7,0.5,14,1,24.6
	s1.2,23.5,1.8,38.3c0.3,7.4,0.6,15.3,0.7,23.6c0,4.1,0.1,8.4,0.1,12.8c0.1,4.3,0.2,8.8,1.1,13.2c0.8,4.4,2.4,8.7,3.8,13.3
	c1.5,4.6,2.4,9.4,3.1,14.3s1,9.9,1.4,15c0.3,5.1,0.7,10.2,1,15.4c1.3,20.8,2.7,42.8,4.1,65.5c0.7,11.3,1.4,22.9,3.6,34.3
	c1.1,5.7,2.7,11.3,4.9,16.6l0.9,2l0.2,0.5c0.1,0.1,0.1,0.1,0.1,0.2l0.1,0.2l0.5,1c0.7,1.3,1.4,2.6,2.1,3.8l2.4,3.6
	c0.8,1.2,1.8,2.3,2.7,3.4c3.8,4.4,8.4,8.1,13.6,10.6c5.2,2.6,11,4.1,16.9,5.1s11.9,1.6,17.9,2.3s12,1.2,18,1.4
	c12,0.5,24.1-0.1,36-1.7c5.9-0.8,11.9-1.8,17.7-3.1l4.4-1c1.4-0.3,2.9-0.7,4.3-1.1c2.8-0.9,5.4-2,7.7-3.6s4.1-3.8,5.4-6.2l0.5-1
	c0.1-0.2,0.3-0.6,0.4-0.9c0.3-0.6,0.5-1.3,0.7-2c0.4-1.3,0.7-2.7,1-4.1c0.9-5.7,0.8-11.6,1.3-17.5c1-11.7,1.9-23.2,2.7-34.5
	c1.6-22.7,3.1-44.7,5.5-65.4c1.2-10.4,2.6-20.5,4.2-30.2c0.4-2.4,0.8-4.8,1.3-7.2c0.5-2.4,0.9-4.7,1.4-7c0.9-4.7,1.9-9.2,2.9-13.6
	c2-8.9,3.8-17.4,5-25.6c0.6-4.1,1.1-8.1,1.4-12s0.4-7.7,0.5-11.4c0.5-14.8,1-27.7,1.4-38.3C334.4,38.2,334.8,26.1,334.8,26.1
	L334.8,26.1z"/>
<path d="M137.6,158.8c0,0,0.1-0.2,0.2-0.7s0.3-1.1,0.6-2c0.6-1.7,1.5-4.3,3.4-7.2c1.8-2.9,4.6-6.2,8.8-8.8c4.1-2.6,9.8-4.2,15.8-3.1
	c3,0.5,6,1.6,8.8,3.3c2.8,1.6,5.4,3.8,7.7,6.4c0.6,0.6,1.1,1.3,1.7,2s1.1,1.4,1.6,2.1l0.8,1.1c0.3,0.4,0.5,0.8,0.7,1.2
	c0.4,0.8,0.9,1.5,1.3,2.3c1.7,3.2,3.2,6.6,4.4,10.1c2.4,7.1,3.9,14.6,4.9,22.3c1,7.7,1.5,15.6,1.7,23.5s0.2,15.8,0.3,23.5
	c0,7.7,0.1,15.4,0.1,22.7c0.1,14.7,0,28.5,0,40.3s-0.1,21.6-0.1,28.5c-0.1,6.9-0.1,10.8-0.1,10.8s-0.1-3.9-0.3-10.8
	c-0.1-6.9-0.4-16.7-0.6-28.5s-0.5-25.6-0.6-40.3c-0.1-7.4-0.2-15-0.3-22.7c-0.1-7.7-0.1-15.6-0.4-23.5c-0.2-7.8-0.7-15.7-1.6-23.3
	c-0.9-7.6-2.4-15.1-4.7-22c-0.5-1.7-1.2-3.4-1.9-5.1c-0.3-0.8-0.7-1.6-1.1-2.4s-0.7-1.6-1.1-2.4s-0.9-1.5-1.3-2.3
	c-0.2-0.4-0.4-0.8-0.6-1.1l-0.7-1.1c-0.5-0.7-0.9-1.4-1.5-2.1c-0.5-0.7-1-1.3-1.6-1.9c-4.3-5-9.9-8.5-15.6-9.5
	c-2.8-0.5-5.6-0.5-8.2,0c-1.3,0.2-2.5,0.6-3.7,1c-0.6,0.3-1.2,0.5-1.7,0.8c-0.5,0.2-1.1,0.5-1.6,0.8c-4.1,2.4-6.9,5.6-8.8,8.4
	s-3,5.3-3.6,7.1c-0.3,0.9-0.5,1.5-0.7,2C137.7,158.6,137.6,158.8,137.6,158.8L137.6,158.8z"/>
<path d="M197.6,183.5c0,0,0.1-1.1,0.4-3.1c0.1-1,0.4-2.2,0.7-3.7c0.2-0.7,0.4-1.5,0.7-2.3c0.1-0.4,0.2-0.8,0.4-1.3
	c0.2-0.4,0.3-0.9,0.5-1.3c1.3-3.6,3.5-7.8,6.9-11.9c1.7-2,3.7-4.2,5.9-6.1c2.3-2,4.8-3.8,7.6-5.6c1.4-0.9,2.9-1.7,4.4-2.5
	c0.8-0.4,1.5-0.8,2.3-1.1c0.8-0.4,1.6-0.7,2.4-1.1c3.3-1.3,6.9-2.5,10.7-2.9c3.8-0.5,7.9-0.3,11.7,1.1c3.9,1.3,7.3,4.1,9.9,7.4
	s4.4,7.3,5.8,11.3c1.3,4.1,2.2,8.3,2.9,12.6c1.3,8.5,1.9,17.3,2.1,26s0,17.5-0.2,26.1s-0.4,17-0.6,25.2c-0.4,16.3-1.1,31.6-1.6,44.7
	c-0.6,13.1-1.2,24-1.6,31.6c-0.5,7.6-0.7,12-0.7,12s0.5-17.4,1.2-43.6c0.2-6.5,0.3-13.6,0.5-21.1s0.3-15.4,0.5-23.6
	c0.2-8.2,0.3-16.6,0.5-25.2c0.1-8.6,0.3-17.3,0.1-26c-0.2-8.7-0.7-17.4-1.9-25.8c-0.7-4.2-1.5-8.3-2.8-12.3c-1.3-3.9-3-7.7-5.4-10.8
	c-2.4-3.1-5.5-5.7-9.1-6.9c-3.5-1.3-7.4-1.6-11-1.2s-7.1,1.4-10.4,2.7c-0.8,0.3-1.6,0.7-2.4,1c-0.8,0.4-1.6,0.7-2.3,1.1
	c-1.5,0.7-3,1.5-4.4,2.4c-5.6,3.3-10.2,7.2-13.6,11.2s-5.7,8.1-7.1,11.6c-0.2,0.4-0.4,0.9-0.5,1.3c-0.2,0.4-0.3,0.8-0.4,1.2
	c-0.3,0.8-0.5,1.6-0.7,2.3c-0.3,1.4-0.7,2.6-0.9,3.7C197.8,182.4,197.6,183.5,197.6,183.5L197.6,183.5z"/>
<path d="M270.5,178.6c0,0,0.2-0.3,0.5-0.9l1.3-2.6c0.5-1.1,1.1-2.5,1.6-4.1c0.6-1.6,1.1-3.5,1.8-5.5c0.6-2,1.3-4.2,2.2-6.5
	c0.5-1.2,0.9-2.3,1.5-3.5l0.9-1.8c0.3-0.6,0.6-1.2,1-1.7c1.4-2.3,2.9-4.6,4.8-6.8c1.9-2.1,4-4.1,6.4-5.8c2.4-1.6,5.1-2.9,7.9-3.6
	s5.7-0.8,8.5-0.2c2.7,0.6,5.2,2,7,3.8l0.7,0.7l0.6,0.7c0.4,0.5,0.8,1,1.1,1.5c0.7,1,1.2,2,1.6,3c1.8,4,2.1,7.6,2.2,10.1
	c0,1.2-0.1,2.2-0.2,2.9c-0.1,0.7-0.1,1-0.1,1v-1c0-0.7,0-1.6-0.1-2.8c-0.1-1.2-0.3-2.7-0.8-4.3c-0.4-1.6-1.1-3.4-2-5.3
	c-0.5-0.9-1-1.8-1.7-2.7c-0.3-0.5-0.7-0.8-1-1.3l-0.6-0.6l-0.6-0.6c-1.7-1.5-3.9-2.7-6.4-3.2c-2.4-0.5-5.1-0.3-7.6,0.3
	c-2.6,0.7-5,1.9-7.3,3.4s-4.3,3.4-6.1,5.4c-1.8,2-3.4,4.2-4.7,6.4c-0.3,0.6-0.7,1.1-1,1.7s-0.6,1.1-0.9,1.7
	c-0.6,1.1-1.1,2.3-1.6,3.3c-0.9,2.2-1.8,4.3-2.5,6.3c-1.5,4-2.9,7.2-4.1,9.4c-0.6,1.1-1.1,1.9-1.5,2.4
	C270.7,178.3,270.5,178.6,270.5,178.6L270.5,178.6z M128.2,73.5c0,0,0.8,0,2.3-0.1s3.7-0.2,6.5-0.3c2.8-0.1,6.2-0.2,10.1-0.3
	c3.9-0.1,8.3-0.1,13.1-0.1c4.8,0,10,0,15.5,0.1s11.3,0.4,17.3,0.7c6,0.3,12.2,0.5,18.5,0.5h9.5c3.2-0.1,6.4-0.1,9.6-0.2
	s6.4-0.1,9.6-0.2c3.2,0,6.4-0.1,9.5-0.1h27.4c2.9,0,5.7,0.1,8.5,0.1c5.5,0.1,10.7,0.2,15.5,0.4c4.8,0.2,9.2,0.3,13.1,0.5
	s7.3,0.3,10.1,0.5s5,0.3,6.5,0.4s2.3,0.2,2.3,0.2v0.3c0,0-0.8,0-2.3,0.1s-3.7,0.1-6.5,0.2s-6.2,0.2-10.1,0.3
	c-3.9,0.1-8.3,0.2-13.1,0.2c-4.8,0-10,0.1-15.5,0.1h-8.5c-2.9,0-5.9-0.1-8.9-0.1c-6-0.1-12.2-0.3-18.5-0.4c-3.2-0.1-6.3-0.2-9.5-0.3
	c-3.2-0.1-6.4-0.3-9.6-0.4s-6.4-0.2-9.6-0.4c-3.2-0.1-6.4-0.2-9.5-0.2c-6.3-0.1-12.5,0-18.5,0.2c-6,0.1-11.8,0.3-17.3,0.3
	s-10.7-0.1-15.5-0.2s-9.2-0.2-13.1-0.4c-3.9-0.1-7.3-0.3-10.1-0.5s-5-0.3-6.5-0.4s-2.3-0.2-2.3-0.2V73.5L128.2,73.5z"/>
</svg>
