<svg id="Layer_1" xmlns="http://www.w3.org/2000/svg" viewBox="0 0 705 705"><style>.st0{fill:none}.st1{fill:#d8a36a}.st2{fill:none;stroke:#000;stroke-width:5;stroke-miterlimit:10}</style><path class="st0" d="M122.5 0h460v705h-460V0z"/><path class="st1" d="M431.1 620.8c3.2-7 2.6-16.4 3.4-24.9 5-57.1 5.4-98.4 14.8-145.5 3.6-18.1 8.5-36 9.1-54.9.3-9.6.6-19.1.9-28.7-17.2-.2-34.4-.3-51.5-.5-15.3-.2-30.7-.3-46.1-.5-35.8-.4-71.7-.7-107.5-1.1h-.8c.6 15.3 1.2 30.7 1.2 46.1 0 6.5-.1 13 1.1 19.2 1.1 5.6 3.2 10.7 4.6 16.1 2.4 9 3 18.8 3.6 28.4 1.6 26.4 3.2 52.9 4.8 79.3 1.1 18.6 2.5 38.2 9.7 53.2 13.7 28.4 36.5 28.5 57.1 31.1 25.9 3.2 52.1 1.6 77.8-4.7 6.6-1.5 13.9-4.1 17.8-12.6z"/><path class="st2" d="M332.1 702c19.6-1.6 41-2.4 60.7-2 7.1-2.5 14.2-4.9 21.3-7.4l6-2.1c4.3-1.5 9.3-2.5 13.3-5.2 4.4-2.9 3.5-5 3.7-12.7.4-12.9.8-25.8 1.5-38.7 1.2-26.2 3-52.3 5.1-78.3 4.3-51.1 8.6-97.5 15.8-147.8 4.4-31.1 4-68.4 5.2-100.1.1-2.8-211-3.1-224.3-2.7-.4 22 2.2 71.7 3 81.4 3.2 38.7 10.3 106.1 14 144.7 4.7 48.5 5.4 98 11.8 146.1.3 1.9.5 3.8 1.3 5.3.6 1.1 1.4 1.9 2.1 2.6 8.9 8.3 18.1 10.3 28.4 11.6 8 1.1 28.7 5.5 31.1 5.3z"/><path d="M457.3 323.8s-.3 12.1-.7 33.4c-.2 10.6-.5 23.5-.9 38.3-.1 3.7-.1 7.5-.4 11.5-.2 4-.6 8-1.2 12.1-1.1 8.3-2.9 16.8-4.8 25.7-.9 4.5-1.9 9-2.8 13.6-.4 2.3-.9 4.7-1.3 7l-1.2 7.2c-1.5 9.7-2.8 19.7-3.9 30.1-2.2 20.7-3.4 42.7-5 65.4-.8 11.3-1.7 22.9-2.6 34.6-.5 5.8-.3 11.7-1.3 17.7-.3 1.5-.6 3-1 4.5-.3.7-.5 1.5-.8 2.2-.2.4-.3.7-.5 1.1l-.5 1c-1.5 2.8-3.6 5.3-6.2 7.2s-5.5 3.2-8.5 4.1c-1.5.5-3 .8-4.4 1.2l-4.4 1c-5.9 1.3-11.9 2.4-17.9 3.2-12.1 1.6-24.3 2.2-36.5 1.8-6.1-.2-12.2-.7-18.3-1.5-6-.7-12-1.3-18.1-2.4-6-1.1-12.1-2.6-17.6-5.4-5.6-2.8-10.5-6.7-14.5-11.4-.9-1.2-2-2.4-2.8-3.6l-2.5-3.8c-.8-1.3-1.4-2.7-2.2-4l-.5-1-.1-.3c0-.1-.1-.2-.1-.3l-.2-.5-.9-2c-2.3-5.6-3.9-11.4-5-17.2-2.2-11.6-2.9-23.3-3.6-34.6-1.3-22.7-2.5-44.7-3.7-65.5-.3-5.2-.6-10.3-.9-15.4s-.6-10-1.2-14.8c-.6-4.8-1.5-9.5-2.9-14s-3-8.9-3.8-13.5-1-9.1-1-13.4v-12.8c0-8.3-.2-16.1-.4-23.5-.4-14.8-.9-27.7-1.3-38.3-.4-10.6-.5-19-.6-24.6 0-5.7-.1-8.7-.1-8.7s.1 3 .2 8.7c.2 5.7.5 14 1 24.6s1.2 23.5 1.8 38.3c.3 7.4.6 15.3.7 23.6 0 4.1.1 8.4.1 12.8.1 4.3.2 8.8 1.1 13.2.8 4.4 2.4 8.7 3.8 13.3 1.5 4.6 2.4 9.4 3.1 14.3.7 4.9 1 9.9 1.4 15 .3 5.1.7 10.2 1 15.4 1.3 20.8 2.7 42.8 4.1 65.5.7 11.3 1.4 22.9 3.6 34.3 1.1 5.7 2.7 11.3 4.9 16.6l.9 2 .2.5c.1.1.1.1.1.2l.1.2.5 1c.7 1.3 1.4 2.6 2.1 3.8l2.4 3.6c.8 1.2 1.8 2.3 2.7 3.4 3.8 4.4 8.4 8.1 13.6 10.6 5.2 2.6 11 4.1 16.9 5.1s11.9 1.6 17.9 2.3 12 1.2 18 1.4c12 .5 24.1-.1 36-1.7 5.9-.8 11.9-1.8 17.7-3.1l4.4-1c1.4-.3 2.9-.7 4.3-1.1 2.8-.9 5.4-2 7.7-3.6s4.1-3.8 5.4-6.2l.5-1c.1-.2.3-.6.4-.9.3-.6.5-1.3.7-2 .4-1.3.7-2.7 1-4.1.9-5.7.8-11.6 1.3-17.5 1-11.7 1.9-23.2 2.7-34.5 1.6-22.7 3.1-44.7 5.5-65.4 1.2-10.4 2.6-20.5 4.2-30.2.4-2.4.8-4.8 1.3-7.2.5-2.4.9-4.7 1.4-7 .9-4.7 1.9-9.2 2.9-13.6 2-8.9 3.8-17.4 5-25.6.6-4.1 1.1-8.1 1.4-12s.4-7.7.5-11.4c.5-14.8 1-27.7 1.4-38.3.8-21.6 1.2-33.7 1.2-33.7z"/><path d="M260.1 456.5s.1-.2.2-.7.3-1.1.6-2c.6-1.7 1.5-4.3 3.4-7.2 1.8-2.9 4.6-6.2 8.8-8.8 4.1-2.6 9.8-4.2 15.8-3.1 3 .5 6 1.6 8.8 3.3 2.8 1.6 5.4 3.8 7.7 6.4.6.6 1.1 1.3 1.7 2s1.1 1.4 1.6 2.1l.8 1.1c.3.4.5.8.7 1.2.4.8.9 1.5 1.3 2.3 1.7 3.2 3.2 6.6 4.4 10.1 2.4 7.1 3.9 14.6 4.9 22.3 1 7.7 1.5 15.6 1.7 23.5s.2 15.8.3 23.5c0 7.7.1 15.4.1 22.7.1 14.7 0 28.5 0 40.3s-.1 21.6-.1 28.5c-.1 6.9-.1 10.8-.1 10.8s-.1-3.9-.3-10.8c-.1-6.9-.4-16.7-.6-28.5s-.5-25.6-.6-40.3c-.1-7.4-.2-15-.3-22.7-.1-7.7-.1-15.6-.4-23.5-.2-7.8-.7-15.7-1.6-23.3-.9-7.6-2.4-15.1-4.7-22-.5-1.7-1.2-3.4-1.9-5.1-.3-.8-.7-1.6-1.1-2.4s-.7-1.6-1.1-2.4-.9-1.5-1.3-2.3c-.2-.4-.4-.8-.6-1.1l-.7-1.1c-.5-.7-.9-1.4-1.5-2.1-.5-.7-1-1.3-1.6-1.9-4.3-5-9.9-8.5-15.6-9.5-2.8-.5-5.6-.5-8.2 0-1.3.2-2.5.6-3.7 1-.6.3-1.2.5-1.7.8-.5.2-1.1.5-1.6.8-4.1 2.4-6.9 5.6-8.8 8.4s-3 5.3-3.6 7.1c-.3.9-.5 1.5-.7 2-.3.4-.4.6-.4.6z"/><path d="M320.1 481.2s.1-1.1.4-3.1c.1-1 .4-2.2.7-3.7.2-.7.4-1.5.7-2.3.1-.4.2-.8.4-1.3.2-.4.3-.9.5-1.3 1.3-3.6 3.5-7.8 6.9-11.9 1.7-2 3.7-4.2 5.9-6.1 2.3-2 4.8-3.8 7.6-5.6 1.4-.9 2.9-1.7 4.4-2.5.8-.4 1.5-.8 2.3-1.1.8-.4 1.6-.7 2.4-1.1 3.3-1.3 6.9-2.5 10.7-2.9 3.8-.5 7.9-.3 11.7 1.1 3.9 1.3 7.3 4.1 9.9 7.4s4.4 7.3 5.8 11.3c1.3 4.1 2.2 8.3 2.9 12.6 1.3 8.5 1.9 17.3 2.1 26s0 17.5-.2 26.1-.4 17-.6 25.2c-.4 16.3-1.1 31.6-1.6 44.7-.6 13.1-1.2 24-1.6 31.6-.5 7.6-.7 12-.7 12s.5-17.4 1.2-43.6c.2-6.5.3-13.6.5-21.1s.3-15.4.5-23.6c.2-8.2.3-16.6.5-25.2.1-8.6.3-17.3.1-26-.2-8.7-.7-17.4-1.9-25.8-.7-4.2-1.5-8.3-2.8-12.3-1.3-3.9-3-7.7-5.4-10.8-2.4-3.1-5.5-5.7-9.1-6.9-3.5-1.3-7.4-1.6-11-1.2s-7.1 1.4-10.4 2.7c-.8.3-1.6.7-2.4 1-.8.4-1.6.7-2.3 1.1-1.5.7-3 1.5-4.4 2.4-5.6 3.3-10.2 7.2-13.6 11.2s-5.7 8.1-7.1 11.6c-.2.4-.4.9-.5 1.3-.2.4-.3.8-.4 1.2-.3.8-.5 1.6-.7 2.3-.3 1.4-.7 2.6-.9 3.7-.3 1.8-.5 2.9-.5 2.9z"/><path d="M393 476.3s.2-.3.5-.9l1.3-2.6c.5-1.1 1.1-2.5 1.6-4.1.6-1.6 1.1-3.5 1.8-5.5.6-2 1.3-4.2 2.2-6.5.5-1.2.9-2.3 1.5-3.5l.9-1.8c.3-.6.6-1.2 1-1.7 1.4-2.3 2.9-4.6 4.8-6.8 1.9-2.1 4-4.1 6.4-5.8 2.4-1.6 5.1-2.9 7.9-3.6s5.7-.8 8.5-.2c2.7.6 5.2 2 7 3.8l.7.7.6.7c.4.5.8 1 1.1 1.5.7 1 1.2 2 1.6 3 1.8 4 2.1 7.6 2.2 10.1 0 1.2-.1 2.2-.2 2.9-.1.7-.1 1-.1 1v-1c0-.7 0-1.6-.1-2.8-.1-1.2-.3-2.7-.8-4.3-.4-1.6-1.1-3.4-2-5.3-.5-.9-1-1.8-1.7-2.7-.3-.5-.7-.8-1-1.3l-.6-.6-.6-.6c-1.7-1.5-3.9-2.7-6.4-3.2-2.4-.5-5.1-.3-7.6.3-2.6.7-5 1.9-7.3 3.4s-4.3 3.4-6.1 5.4c-1.8 2-3.4 4.2-4.7 6.4-.3.6-.7 1.1-1 1.7s-.6 1.1-.9 1.7c-.6 1.1-1.1 2.3-1.6 3.3-.9 2.2-1.8 4.3-2.5 6.3-1.5 4-2.9 7.2-4.1 9.4-.6 1.1-1.1 1.9-1.5 2.4-.6.5-.8.8-.8.8zM250.7 371.2s.8 0 2.3-.1 3.7-.2 6.5-.3c2.8-.1 6.2-.2 10.1-.3 3.9-.1 8.3-.1 13.1-.1 4.8 0 10 0 15.5.1s11.3.4 17.3.7c6 .3 12.2.5 18.5.5h9.5c3.2-.1 6.4-.1 9.6-.2s6.4-.1 9.6-.2c3.2 0 6.4-.1 9.5-.1h27.4c2.9 0 5.7.1 8.5.1 5.5.1 10.7.2 15.5.4 4.8.2 9.2.3 13.1.5s7.3.3 10.1.5 5 .3 6.5.4 2.3.2 2.3.2v.3s-.8 0-2.3.1-3.7.1-6.5.2-6.2.2-10.1.3c-3.9.1-8.3.2-13.1.2-4.8 0-10 .1-15.5.1h-8.5c-2.9 0-5.9-.1-8.9-.1-6-.1-12.2-.3-18.5-.4-3.2-.1-6.3-.2-9.5-.3-3.2-.1-6.4-.3-9.6-.4s-6.4-.2-9.6-.4c-3.2-.1-6.4-.2-9.5-.2-6.3-.1-12.5 0-18.5.2-6 .1-11.8.3-17.3.3s-10.7-.1-15.5-.2-9.2-.2-13.1-.4c-3.9-.1-7.3-.3-10.1-.5s-5-.3-6.5-.4-2.3-.2-2.3-.2v-.3z"/></svg>