<?xml version="1.0" encoding="utf-8"?>
<!-- Generator: Adobe Illustrator 19.2.0, SVG Export Plug-In . SVG Version: 6.00 Build 0)  -->
<svg version="1.1" id="Layer_1" xmlns="http://www.w3.org/2000/svg" xmlns:xlink="http://www.w3.org/1999/xlink" x="0px" y="0px"
	 viewBox="0 0 700 700" style="enable-background:new 0 0 700 700;" xml:space="preserve">
<style type="text/css">
	.st0{fill:none;}
	.st1{fill:#D8A36A;}
	.st2{fill:none;stroke:#000000;stroke-width:5;stroke-miterlimit:10;}
</style>
<rect x="0" y="0" class="st0" width="700" height="700"/>
<g>
	<path class="st1" d="M428.6,618.8c3.2-7,2.6-16.4,3.4-24.9c5-57.1,5.4-98.4,14.8-145.5c3.6-18.1,8.5-36,9.1-54.9
		c0.3-9.6,0.6-19.1,0.9-28.7c-17.2-0.2-34.4-0.3-51.5-0.5c-15.3-0.2-30.7-0.3-46.1-0.5c-35.8-0.4-71.7-0.7-107.5-1.1
		c-0.3,0-0.5,0-0.8,0c0.6,15.3,1.2,30.7,1.2,46.1c0,6.5-0.1,13,1.1,19.2c1.1,5.6,3.2,10.7,4.6,16.1c2.4,9,3,18.8,3.6,28.4
		c1.6,26.4,3.2,52.9,4.8,79.3c1.1,18.6,2.5,38.2,9.7,53.2c13.7,28.4,36.5,28.5,57.1,31.1c25.9,3.2,52.1,1.6,77.8-4.7
		C417.4,629.9,424.7,627.3,428.6,618.8z"/>
	<path class="st2" d="M329.6,700c19.6-1.6,41-2.4,60.7-2c7.1-2.5,14.2-4.9,21.3-7.4c2-0.7,4-1.4,6-2.1c4.3-1.5,9.3-2.5,13.3-5.2
		c4.4-2.9,3.5-5,3.7-12.7c0.4-12.9,0.8-25.8,1.5-38.7c1.2-26.2,3-52.3,5.1-78.3c4.3-51.1,8.6-97.5,15.8-147.8
		c4.4-31.1,4-68.4,5.2-100.1c0.1-2.8-211-3.1-224.3-2.7c-0.4,22,2.2,71.7,3,81.4c3.2,38.7,10.3,106.1,14,144.7
		c4.7,48.5,5.4,98,11.8,146.1c0.3,1.9,0.5,3.8,1.3,5.3c0.6,1.1,1.4,1.9,2.1,2.6c8.9,8.3,18.1,10.3,28.4,11.6
		C306.5,695.8,327.2,700.2,329.6,700z"/>
	<g>
		<path d="M454.8,321.8c0,0-0.3,12.1-0.7,33.4c-0.2,10.6-0.5,23.5-0.9,38.3c-0.1,3.7-0.1,7.5-0.4,11.5c-0.2,4-0.6,8-1.2,12.1
			c-1.1,8.3-2.9,16.8-4.8,25.7c-0.9,4.5-1.9,9-2.8,13.6c-0.4,2.3-0.9,4.7-1.3,7c-0.4,2.4-0.8,4.8-1.2,7.2
			c-1.5,9.7-2.8,19.7-3.9,30.1c-2.2,20.7-3.4,42.7-5,65.4c-0.8,11.3-1.7,22.9-2.6,34.6c-0.5,5.8-0.3,11.7-1.3,17.7
			c-0.3,1.5-0.6,3-1,4.5c-0.3,0.7-0.5,1.5-0.8,2.2c-0.2,0.4-0.3,0.7-0.5,1.1l-0.5,1c-1.5,2.8-3.6,5.3-6.2,7.2
			c-2.6,1.9-5.5,3.2-8.5,4.1c-1.5,0.5-3,0.8-4.4,1.2l-4.4,1c-5.9,1.3-11.9,2.4-17.9,3.2c-12.1,1.6-24.3,2.2-36.5,1.8
			c-6.1-0.2-12.2-0.7-18.3-1.5c-6-0.7-12-1.3-18.1-2.4c-6-1.1-12.1-2.6-17.6-5.4c-5.6-2.8-10.5-6.7-14.5-11.4
			c-0.9-1.2-2-2.4-2.8-3.6l-2.5-3.8c-0.8-1.3-1.4-2.7-2.2-4l-0.5-1l-0.1-0.3c0-0.1-0.1-0.2-0.1-0.3l-0.2-0.5l-0.9-2
			c-2.3-5.6-3.9-11.4-5-17.2c-2.2-11.6-2.9-23.3-3.6-34.6c-1.3-22.7-2.5-44.7-3.7-65.5c-0.3-5.2-0.6-10.3-0.9-15.4
			c-0.3-5.1-0.6-10-1.2-14.8c-0.6-4.8-1.5-9.5-2.9-14c-1.4-4.5-3-8.9-3.8-13.5c-0.8-4.6-1-9.1-1-13.4c0-4.4,0-8.6,0-12.8
			c0-8.3-0.2-16.1-0.4-23.5c-0.4-14.8-0.9-27.7-1.3-38.3c-0.4-10.6-0.5-19-0.6-24.6c0-5.7-0.1-8.7-0.1-8.7s0.1,3,0.2,8.7
			c0.2,5.7,0.5,14,1,24.6c0.5,10.6,1.2,23.5,1.8,38.3c0.3,7.4,0.6,15.3,0.7,23.6c0,4.1,0.1,8.4,0.1,12.8c0.1,4.3,0.2,8.8,1.1,13.2
			c0.8,4.4,2.4,8.7,3.8,13.3c1.5,4.6,2.4,9.4,3.1,14.3c0.7,4.9,1,9.9,1.4,15c0.3,5.1,0.7,10.2,1,15.4c1.3,20.8,2.7,42.8,4.1,65.5
			c0.7,11.3,1.4,22.9,3.6,34.3c1.1,5.7,2.7,11.3,4.9,16.6l0.9,2l0.2,0.5c0.1,0.1,0.1,0.1,0.1,0.2l0.1,0.2l0.5,1
			c0.7,1.3,1.4,2.6,2.1,3.8l2.4,3.6c0.8,1.2,1.8,2.3,2.7,3.4c3.8,4.4,8.4,8.1,13.6,10.6c5.2,2.6,11,4.1,16.9,5.1
			c5.9,1,11.9,1.6,17.9,2.3c6,0.7,12,1.2,18,1.4c12,0.5,24.1-0.1,36-1.7c5.9-0.8,11.9-1.8,17.7-3.1l4.4-1c1.4-0.3,2.9-0.7,4.3-1.1
			c2.8-0.9,5.4-2,7.7-3.6c2.3-1.6,4.1-3.8,5.4-6.2l0.5-1c0.1-0.2,0.3-0.6,0.4-0.9c0.3-0.6,0.5-1.3,0.7-2c0.4-1.3,0.7-2.7,1-4.1
			c0.9-5.7,0.8-11.6,1.3-17.5c1-11.7,1.9-23.2,2.7-34.5c1.6-22.7,3.1-44.7,5.5-65.4c1.2-10.4,2.6-20.5,4.2-30.2
			c0.4-2.4,0.8-4.8,1.3-7.2c0.5-2.4,0.9-4.7,1.4-7c0.9-4.7,1.9-9.2,2.9-13.6c2-8.9,3.8-17.4,5-25.6c0.6-4.1,1.1-8.1,1.4-12
			c0.3-3.9,0.4-7.7,0.5-11.4c0.5-14.8,1-27.7,1.4-38.3C454.4,333.9,454.8,321.8,454.8,321.8z"/>
	</g>
	<g>
		<path d="M257.6,454.5c0,0,0.1-0.2,0.2-0.7c0.1-0.5,0.3-1.1,0.6-2c0.6-1.7,1.5-4.3,3.4-7.2c1.8-2.9,4.6-6.2,8.8-8.8
			c4.1-2.6,9.8-4.2,15.8-3.1c3,0.5,6,1.6,8.8,3.3c2.8,1.6,5.4,3.8,7.7,6.4c0.6,0.6,1.1,1.3,1.7,2c0.6,0.7,1.1,1.4,1.6,2.1l0.8,1.1
			c0.3,0.4,0.5,0.8,0.7,1.2c0.4,0.8,0.9,1.5,1.3,2.3c1.7,3.2,3.2,6.6,4.4,10.1c2.4,7.1,3.9,14.6,4.9,22.3c1,7.7,1.5,15.6,1.7,23.5
			c0.2,7.9,0.2,15.8,0.3,23.5c0,7.7,0.1,15.4,0.1,22.7c0.1,14.7,0,28.5,0,40.3c0,11.8-0.1,21.6-0.1,28.5c-0.1,6.9-0.1,10.8-0.1,10.8
			s-0.1-3.9-0.3-10.8c-0.1-6.9-0.4-16.7-0.6-28.5c-0.2-11.8-0.5-25.6-0.6-40.3c-0.1-7.4-0.2-15-0.3-22.7c-0.1-7.7-0.1-15.6-0.4-23.5
			c-0.2-7.8-0.7-15.7-1.6-23.3c-0.9-7.6-2.4-15.1-4.7-22c-0.5-1.7-1.2-3.4-1.9-5.1c-0.3-0.8-0.7-1.6-1.1-2.4
			c-0.4-0.8-0.7-1.6-1.1-2.4c-0.4-0.8-0.9-1.5-1.3-2.3c-0.2-0.4-0.4-0.8-0.6-1.1l-0.7-1.1c-0.5-0.7-0.9-1.4-1.5-2.1
			c-0.5-0.7-1-1.3-1.6-1.9c-4.3-5-9.9-8.5-15.6-9.5c-2.8-0.5-5.6-0.5-8.2,0c-1.3,0.2-2.5,0.6-3.7,1c-0.6,0.3-1.2,0.5-1.7,0.8
			c-0.5,0.2-1.1,0.5-1.6,0.8c-4.1,2.4-6.9,5.6-8.8,8.4c-1.9,2.8-3,5.3-3.6,7.1c-0.3,0.9-0.5,1.5-0.7,2
			C257.7,454.3,257.6,454.5,257.6,454.5z"/>
	</g>
	<g>
		<path d="M317.6,479.2c0,0,0.1-1.1,0.4-3.1c0.1-1,0.4-2.2,0.7-3.7c0.2-0.7,0.4-1.5,0.7-2.3c0.1-0.4,0.2-0.8,0.4-1.3
			c0.2-0.4,0.3-0.9,0.5-1.3c1.3-3.6,3.5-7.8,6.9-11.9c1.7-2,3.7-4.2,5.9-6.1c2.3-2,4.8-3.8,7.6-5.6c1.4-0.9,2.9-1.7,4.4-2.5
			c0.8-0.4,1.5-0.8,2.3-1.1c0.8-0.4,1.6-0.7,2.4-1.1c3.3-1.3,6.9-2.5,10.7-2.9c3.8-0.5,7.9-0.3,11.7,1.1c3.9,1.3,7.3,4.1,9.9,7.4
			c2.6,3.3,4.4,7.3,5.8,11.3c1.3,4.1,2.2,8.3,2.9,12.6c1.3,8.5,1.9,17.3,2.1,26c0.2,8.7,0,17.5-0.2,26.1c-0.2,8.6-0.4,17-0.6,25.2
			c-0.4,16.3-1.1,31.6-1.6,44.7c-0.6,13.1-1.2,24-1.6,31.6c-0.5,7.6-0.7,12-0.7,12s0.5-17.4,1.2-43.6c0.2-6.5,0.3-13.6,0.5-21.1
			c0.2-7.5,0.3-15.4,0.5-23.6c0.2-8.2,0.3-16.6,0.5-25.2c0.1-8.6,0.3-17.3,0.1-26c-0.2-8.7-0.7-17.4-1.9-25.8
			c-0.7-4.2-1.5-8.3-2.8-12.3c-1.3-3.9-3-7.7-5.4-10.8c-2.4-3.1-5.5-5.7-9.1-6.9c-3.5-1.3-7.4-1.6-11-1.2c-3.6,0.4-7.1,1.4-10.4,2.7
			c-0.8,0.3-1.6,0.7-2.4,1c-0.8,0.4-1.6,0.7-2.3,1.1c-1.5,0.7-3,1.5-4.4,2.4c-5.6,3.3-10.2,7.2-13.6,11.2c-3.4,4-5.7,8.1-7.1,11.6
			c-0.2,0.4-0.4,0.9-0.5,1.3c-0.2,0.4-0.3,0.8-0.4,1.2c-0.3,0.8-0.5,1.6-0.7,2.3c-0.3,1.4-0.7,2.6-0.9,3.7
			C317.8,478.1,317.6,479.2,317.6,479.2z"/>
	</g>
	<g>
		<path d="M390.5,474.3c0,0,0.2-0.3,0.5-0.9c0.3-0.6,0.7-1.4,1.3-2.6c0.5-1.1,1.1-2.5,1.6-4.1c0.6-1.6,1.1-3.5,1.8-5.5
			c0.6-2,1.3-4.2,2.2-6.5c0.5-1.2,0.9-2.3,1.5-3.5c0.3-0.6,0.6-1.2,0.9-1.8c0.3-0.6,0.6-1.2,1-1.7c1.4-2.3,2.9-4.6,4.8-6.8
			c1.9-2.1,4-4.1,6.4-5.8c2.4-1.6,5.1-2.9,7.9-3.6c2.8-0.7,5.7-0.8,8.5-0.2c2.7,0.6,5.2,2,7,3.8l0.7,0.7l0.6,0.7
			c0.4,0.5,0.8,1,1.1,1.5c0.7,1,1.2,2,1.6,3c1.8,4,2.1,7.6,2.2,10.1c0,1.2-0.1,2.2-0.2,2.9c-0.1,0.7-0.1,1-0.1,1s0-0.4,0-1
			c0-0.7,0-1.6-0.1-2.8c-0.1-1.2-0.3-2.7-0.8-4.3c-0.4-1.6-1.1-3.4-2-5.3c-0.5-0.9-1-1.8-1.7-2.7c-0.3-0.5-0.7-0.8-1-1.3l-0.6-0.6
			l-0.6-0.6c-1.7-1.5-3.9-2.7-6.4-3.2c-2.4-0.5-5.1-0.3-7.6,0.3c-2.6,0.7-5,1.9-7.3,3.4c-2.3,1.5-4.3,3.4-6.1,5.4
			c-1.8,2-3.4,4.2-4.7,6.4c-0.3,0.6-0.7,1.1-1,1.7c-0.3,0.6-0.6,1.1-0.9,1.7c-0.6,1.1-1.1,2.3-1.6,3.3c-0.9,2.2-1.8,4.3-2.5,6.3
			c-1.5,4-2.9,7.2-4.1,9.4c-0.6,1.1-1.1,1.9-1.5,2.4C390.7,474,390.5,474.3,390.5,474.3z"/>
	</g>
	<g>
		<path d="M248.2,369.2c0,0,0.8,0,2.3-0.1c1.5-0.1,3.7-0.2,6.5-0.3c2.8-0.1,6.2-0.2,10.1-0.3c3.9-0.1,8.3-0.1,13.1-0.1
			c4.8,0,10,0,15.5,0.1c5.5,0.1,11.3,0.4,17.3,0.7c6,0.3,12.2,0.5,18.5,0.5c3.2,0,6.3,0,9.5,0c3.2-0.1,6.4-0.1,9.6-0.2
			c3.2-0.1,6.4-0.1,9.6-0.2c3.2,0,6.4-0.1,9.5-0.1c6.3,0,12.5,0,18.5,0c3,0,6,0,8.9,0c2.9,0,5.7,0.1,8.5,0.1
			c5.5,0.1,10.7,0.2,15.5,0.4c4.8,0.2,9.2,0.3,13.1,0.5c3.9,0.2,7.3,0.3,10.1,0.5c2.8,0.2,5,0.3,6.5,0.4c1.5,0.1,2.3,0.2,2.3,0.2
			l0,0.3c0,0-0.8,0-2.3,0.1c-1.5,0.1-3.7,0.1-6.5,0.2c-2.8,0.1-6.2,0.2-10.1,0.3c-3.9,0.1-8.3,0.2-13.1,0.2c-4.8,0-10,0.1-15.5,0.1
			c-2.8,0-5.6,0-8.5,0c-2.9,0-5.9-0.1-8.9-0.1c-6-0.1-12.2-0.3-18.5-0.4c-3.2-0.1-6.3-0.2-9.5-0.3c-3.2-0.1-6.4-0.3-9.6-0.4
			c-3.2-0.1-6.4-0.2-9.6-0.4c-3.2-0.1-6.4-0.2-9.5-0.2c-6.3-0.1-12.5,0-18.5,0.2c-6,0.1-11.8,0.3-17.3,0.3c-5.5,0-10.7-0.1-15.5-0.2
			c-4.8-0.1-9.2-0.2-13.1-0.4c-3.9-0.1-7.3-0.3-10.1-0.5c-2.8-0.2-5-0.3-6.5-0.4c-1.5-0.1-2.3-0.2-2.3-0.2L248.2,369.2z"/>
	</g>
</g>
</svg>
