<?xml version="1.0" encoding="utf-8"?>
<!-- Generator: Adobe Illustrator 19.2.0, SVG Export Plug-In . SVG Version: 6.00 Build 0)  -->
<svg version="1.1" id="Layer_1" xmlns="http://www.w3.org/2000/svg" xmlns:xlink="http://www.w3.org/1999/xlink" x="0px" y="0px"
	 viewBox="0 0 460 310.9" style="enable-background:new 0 0 460 310.9;" xml:space="preserve">
<style type="text/css">
	.st0{fill:none;stroke:#000000;stroke-width:5;stroke-miterlimit:10;}
	.st1{opacity:0.9;fill:url(#SVGID_1_);enable-background:new    ;}
	.st2{fill:url(#SVGID_2_);}
</style>
<path class="st0" d="M6588.6-959.7c0.3,38.5,0.2,82.4-5.7,120.5c-2.3,14.7-3.7,31.7-10.6,44.9c-9.4,17.9-18.6,35.9-34,49.5
	c-5.5,4.9-11.5,9.2-17.9,12.8c-4.2,2.3-15.3,5.1-15.9,10.8c-0.4,3.6,3.8,5.7,6.9,7.6c6.9,4.3,10.9,12.3,11.6,20.4
	c1.5,15.4-5.6,30.7-18.9,38.8c-0.8,0.5-1.6,1-1.9,1.8c-0.7,2.1,2.1,3.4,4.2,3.8c12.1,2.1,24,5,35.7,8.7c7.7,2.4,24.3,10.6,12,18.5
	c-7.7,4.9-17,6.2-26,7.3c-24.7,3.1-49.7,6.2-74.5,3.9c-5.6-0.5-11.2-1.4-16.8-2.2l-22.5-3.3c-5.3-0.8-11.8-2.7-12.7-7.9
	c-1.7-10.2,16.6-15.1,23.6-17.2c4.9-1.5,36.5-4.6,35.6-9.3c-0.5-2.4-2.8-3.9-4.8-5.4c-8.9-6.4-15-16.4-16.6-27.2
	c-1.6-10.8,1.3-22.2,7.9-30.9c2.2-2.9,4.9-6,4.4-9.6c-0.2-1.5-1-2.9-2-4.1c-5.1-6.7-15.9-9.5-22.8-14.7c-7.9-6-15.2-12.8-21.6-20.4
	c-12.5-14.5-22.1-31.5-27.6-49.9c-5.2-17.2-6.9-35.3-8.2-53.2c-2.3-31-3.6-62-3.8-93.1c20.2-2.4,42-1.8,62.4-1.4
	C6480.9-959.1,6588.6-961.8,6588.6-959.7L6588.6-959.7z"/>
<path d="M6462-644.8v1.9c0,0.6,0.1,1.3,0.6,1.9c0.4,0.6,1.2,0.8,2.2,0.8c2.1-0.1,4.5-0.2,7.1-0.2c1.3,0,2.7-0.1,4-0.1
	c1.4-0.1,2.8-0.1,4.1-0.2c1.4-0.1,2.8-0.1,4.1-0.2c1.4-0.1,2.7-0.1,4-0.2c2.6-0.1,5-0.2,7.1-0.3c2-0.1,3.7-0.6,4.6-1.3
	c0.4-0.4,0.7-0.8,0.8-1.1c0.1-0.3,0.2-0.5,0.2-0.5v0.5c-0.1,0.3-0.2,0.8-0.6,1.3s-1.1,1-1.9,1.4c-0.8,0.4-1.8,0.7-2.8,0.8
	c-2.1,0.4-4.5,0.7-7.1,0.9c-1.3,0.1-2.7,0.3-4,0.4c-1.4,0.1-2.8,0.2-4.2,0.2c-1.4,0-2.8,0.1-4.2,0.1h-4.1c-2.6-0.1-5.1-0.2-7.2-0.4
	c-0.5-0.1-1.1-0.1-1.6-0.4c-0.5-0.3-0.9-0.7-1.1-1.1c-0.4-0.9-0.4-1.7-0.3-2.3s0.2-1.1,0.3-1.4C6461.9-644.6,6462-644.8,6462-644.8
	L6462-644.8z M6461.6-729.4c0,0,0.6,0.2,1.6,0.5c0.5,0.2,1.2,0.3,1.9,0.5c0.7,0.2,1.6,0.4,2.4,0.5c0.9,0.2,1.9,0.3,2.9,0.5
	c1,0.1,2.1,0.2,3.3,0.3c1.1,0.1,2.3,0.1,3.5,0.2h3.6c1.2,0,2.5,0,3.7-0.1c1.2,0,2.4-0.1,3.6-0.1c2.3-0.1,4.5-0.1,6.3-0.3
	c1.8-0.2,3.2-0.6,4.1-1.2c0.4-0.3,0.8-0.6,1-0.8l0.3-0.3c0,0-0.1,0.1-0.2,0.4c-0.2,0.3-0.4,0.6-0.8,1c-0.8,0.8-2.3,1.6-4.2,2
	c-0.9,0.2-2,0.4-3,0.5c-1.1,0.1-2.2,0.3-3.3,0.4l-3.6,0.3c-1.2,0.1-2.5,0.1-3.7,0.2c-1.3,0-2.5,0-3.7-0.1c-0.6,0-1.2-0.1-1.8-0.1
	c-0.6-0.1-1.2-0.1-1.8-0.2c-1.2-0.1-2.3-0.4-3.4-0.6c-0.5-0.1-1-0.3-1.5-0.4c-0.5-0.2-1-0.3-1.4-0.4c-1.8-0.6-3.2-1.3-4.2-1.8
	C6462.2-729.1,6461.6-729.4,6461.6-729.4L6461.6-729.4z M6411.5-627.3l0.3,0.3c0.2,0.2,0.5,0.4,1,0.6c0.9,0.5,2.3,1,4.2,1.4
	c1.9,0.4,4.2,0.7,6.8,1.1c2.6,0.4,5.6,0.7,8.9,1.1c3.3,0.3,6.8,0.7,10.6,1c3.7,0.3,7.7,0.5,11.8,0.7c8.2,0.3,17,0.5,25.7,0.6
	c4.4,0.1,8.8,0.1,13.1,0.2c4.3,0,8.5,0.1,12.6,0s8-0.4,11.7-0.8c3.7-0.5,7.2-1.1,10.4-1.7c6.4-1.4,11.6-3,15.2-4.3
	c1.8-0.7,3.2-1.2,4.2-1.6l1.5-0.6c0,0-0.5,0.2-1.4,0.7c-0.9,0.4-2.3,1.1-4.1,1.8c-3.5,1.5-8.7,3.5-15.1,5.1
	c-6.4,1.6-14.1,2.9-22.3,3.2c-4.1,0.2-8.4,0.2-12.7,0.2c-4.3,0-8.7-0.1-13.1-0.1c-4.4-0.1-8.8-0.2-13.1-0.3
	c-4.3-0.1-8.6-0.4-12.7-0.6c-4.1-0.3-8.1-0.6-11.8-1c-3.8-0.4-7.3-0.8-10.6-1.3c-1.6-0.3-3.2-0.5-4.7-0.7c-1.5-0.3-2.9-0.5-4.2-0.8
	c-2.6-0.5-4.9-1-6.8-1.5s-3.3-1.1-4.1-1.7c-0.4-0.3-0.7-0.5-0.9-0.7C6411.6-627.2,6411.5-627.3,6411.5-627.3L6411.5-627.3z"/>
<linearGradient id="SVGID_1_" gradientUnits="userSpaceOnUse" x1="6378.7998" y1="-1850.8888" x2="6584.7002" y2="-1850.8888" gradientTransform="matrix(1 0 0 1 0 1013)">
	<stop  offset="1.800000e-02" style="stop-color:#801FE3"/>
	<stop  offset="1" style="stop-color:#B7A7FF"/>
</linearGradient>
<path class="st1" d="M6378.8-931.5c1.4,24.4,2.7,48.8,4.1,73.2c0.4,7.9,0.9,15.9,2.2,23.7c1.8,11.1,5.4,21.8,8.9,32.5
	c3,9.1,6,18.2,11.1,26.3c17.8,28.1,51.5,32.7,81.9,31.3c10.6-0.5,21.3-1.5,31.5-4.7c66.9-21.3,65.2-117,66.1-172.7
	c0-2.6,0.1-5.1,0.1-7.7C6516-927.4,6447.2-925.6,6378.8-931.5L6378.8-931.5z"/>
<path d="M6373.7-951.2c0,0,0.6,8.1,1.5,22.2c0.5,7.1,1,15.6,1.7,25.5c0.6,9.8,1.4,20.9,2.1,33.1c0.4,6.1,0.7,12.4,1.3,18.9
	c0.5,6.5,1.4,13.2,3,19.9c1.6,6.7,3.7,13.5,6,20.4c2.4,6.9,4.5,14,7.5,20.9c0.8,1.7,1.5,3.4,2.4,5.1c0.9,1.6,1.8,3.3,2.8,4.8
	c1.1,1.6,2.2,3.1,3.4,4.7c1.2,1.4,2.5,2.8,3.7,4.3c5.3,5.5,11.7,10,18.8,13.2c7.1,3.3,14.8,5.4,22.6,6.6c7.9,1.3,15.9,1.7,23.9,1.7
	c8-0.1,16.1-0.4,24-1.5c3.9-0.5,7.9-1.2,11.7-2.2c1-0.3,1.9-0.5,2.8-0.8l0.7-0.2h0.1l0.2-0.1l0.4-0.1l1.4-0.5l2.8-1
	c0.5-0.2,0.9-0.3,1.4-0.5l1.3-0.6c7.1-3.1,13.7-7.4,19.4-12.5c5.7-5.1,10.5-11.1,14.4-17.5c4-6.3,7.1-13.1,9.7-19.8
	c2.6-6.8,4.6-13.6,6.3-20.3c3.2-13.5,5-26.5,6.2-38.5c1.1-12.1,1.7-23.2,2-33c0.3-9.9,0.5-18.4,0.7-25.5c0.2-14.2,0.4-22.2,0.4-22.2
	s0,2,0.1,5.8c0,3.8,0.1,9.4,0.2,16.4c0,7.1,0,15.7-0.2,25.5c-0.1,9.9-0.5,21-1.5,33.1s-2.6,25.2-5.7,38.9
	c-1.6,6.8-3.6,13.7-6.1,20.6s-5.7,13.8-9.8,20.3c-4,6.5-9,12.7-14.8,18.1c-5.9,5.4-12.7,9.8-20.2,13.1l-1.4,0.6
	c-0.5,0.2-0.9,0.4-1.4,0.5l-2.8,1l-1.4,0.5l-0.4,0.1l-0.2,0.1l-0.2,0.1l-0.7,0.2c-1,0.3-2,0.6-2.9,0.8c-3.9,1-8,1.8-12,2.4
	c-8.1,1.1-16.2,1.5-24.4,1.6c-8.2,0-16.3-0.5-24.4-1.8c-8-1.3-16-3.5-23.3-7c-7.4-3.4-14.1-8.1-19.6-13.9c-1.3-1.5-2.6-3.1-3.9-4.6
	c-1.1-1.6-2.2-3.2-3.3-4.7c-2.2-3.4-3.9-6.8-5.4-10.4c-3-7.1-5.2-14.2-7.5-21.2c-2.2-7-4.3-13.9-5.8-20.7
	c-1.6-6.9-2.4-13.6-2.8-20.2c-0.5-6.6-0.7-12.9-1-18.9c-0.6-12.1-1.1-23.2-1.6-33.1s-0.8-18.4-1.2-25.5
	C6374-943.2,6373.7-951.2,6373.7-951.2L6373.7-951.2z"/>
<path d="M6374.1-935.8c0,0,0.8,0,2.4,0.1s3.8,0.2,6.7,0.3c2.9,0.2,6.4,0.3,10.5,0.5c4,0.2,8.6,0.3,13.6,0.5c5,0.2,10.4,0.3,16.1,0.5
	c5.7,0.2,11.7,0.2,17.9,0.4c6.2,0.1,12.6,0.1,19.2,0.2c6.5,0.1,13.2,0,19.8,0.1c6.6,0,13.3,0,19.8-0.1s13-0.1,19.2-0.2
	c12.5-0.1,24.1-0.2,34-0.3c10-0.1,18.3-0.1,24.1-0.1h9.1c0,0-0.8,0.1-2.4,0.2c-1.6,0.1-3.8,0.2-6.7,0.4c-5.8,0.3-14.1,0.8-24.1,1.3
	s-21.6,0.9-34,1.3c-6.2,0.1-12.7,0.4-19.2,0.4c-6.5,0.1-13.2,0.1-19.8,0.2c-6.6,0-13.3,0-19.8-0.2c-6.5-0.1-13-0.3-19.2-0.4
	c-6.2-0.2-12.3-0.4-18-0.8c-2.9-0.2-5.6-0.3-8.3-0.5c-2.7-0.2-5.3-0.4-7.8-0.5c-2.5-0.2-4.9-0.3-7.1-0.5c-2.3-0.2-4.4-0.4-6.4-0.6
	c-4-0.4-7.6-0.7-10.4-1c-2.9-0.3-5.2-0.6-6.7-0.7C6374.9-935.7,6374.1-935.8,6374.1-935.8L6374.1-935.8z"/>
<linearGradient id="SVGID_2_" gradientUnits="userSpaceOnUse" x1="225.4609" y1="-947" x2="225.4609" y2="-722.5757" gradientTransform="matrix(1 0 0 1 0 1013)">
	<stop  offset="0" style="stop-color:#FFFFFF;stop-opacity:0"/>
	<stop  offset="1" style="stop-color:#730038"/>
</linearGradient>
<path class="st2" d="M345.9,66c-0.6,0.1-1.2,0.2-1.8,0.2c-64.1,5.5-129,0.1-192.8,8.3c-15.1,1.9-30.7,4.6-45.3,0.2
	c-0.4,0.1-0.8,0.1-1.1,0.2c2.3,37.2,6.9,74.2,14.5,110.7c1,4.7,2,9.4,3.6,13.9c0.9,2.7,2,5.3,2.4,8c0.8,6.1-1,12.1,0.4,18.2
	c1.5,6.3,4.8,12,5.4,18.5c0.4,4.6-0.6,9.2-0.4,13.7c0.2,4.6,2.3,9.6,6.6,11.2c2.4,0.9,5.1,0.6,7.7,0.6c14.6,0,26.8,11.9,39.9,16.9
	c3.9,1.5,8,2.6,12.2,2.3c3.8-0.3,7.4-2,11.1-3.2c18.6-6.5,40,0.9,58.7,4.3c1.6,0.3,3.2,0.6,4.8,0.3c2-0.3,3.8-1.5,5.5-2.5
	c10.5-6.1,23.1-15.2,35.9-13.2c2.5,0.4,5.1,1.2,7.5,0.2c1.4-0.5,2.5-1.6,3.6-2.7c7-6.9,14.2-14.2,16.8-23.7c4-14.4-3-28-0.5-42.8
	C348.4,159.4,345.3,112.6,345.9,66L345.9,66z"/>
<path class="st0" d="M119.7,206.3c1.5,5.1,3.2,10.5,2,15.7c-0.6,2.4-1.7,4.6-2.3,7c-3.2,12.9,10,25.1,8.5,38.2
	c-0.6,5.7-4.8,13.2-3.3,18.9c1.6,6.1,10,10.5,15.4,12.4c15.2,5.4,32.1,2.5,48.2,4c11.8,1.2,23.2,4.8,35,5.6
	c17.7,1.2,35.2-3.8,52.9-5.1c10.8-0.8,21.7-0.2,32.4-1.8c11-1.7,21.5-5.7,31.9-9.8c7.4-2.9,10-19.6,11.5-27
	c2.5-11.7,2.7-23.8,0.6-35.5c-2.1-12,2.9-23.7,4.3-35.8c1.6-13.9,1.9-27.9,2.3-41.9L362.4,12C274,22.6,185.4,1.2,97.6,15.8
	C97.6,18.2,102,146.4,119.7,206.3L119.7,206.3z"/>
<path d="M159.6,228.2h0.3c0.2,0,0.5,0,0.8-0.1c0.7-0.2,1.5-0.7,2.4-1.6c0.4-0.4,1-0.9,1.5-1.3c0.6-0.5,1.1-1,1.8-1.4
	c0.6-0.5,1.3-1,2-1.4c0.7-0.5,1.4-0.9,2.1-1.4c0.7-0.4,1.5-0.8,2.2-1.2s1.5-0.7,2.2-1.1c1.4-0.7,2.8-1.2,4-1.6
	c1.2-0.4,2.2-0.7,2.9-0.9c0.7-0.2,1.1-0.2,1.1-0.2s-0.4,0.2-1,0.6c-0.6,0.4-1.5,0.9-2.6,1.5s-2.3,1.4-3.6,2.1
	c-0.7,0.4-1.3,0.8-2,1.2s-1.4,0.8-2.1,1.3c-0.7,0.4-1.4,0.8-2.1,1.3c-0.7,0.4-1.4,0.8-2,1.2c-1.3,0.8-2.5,1.6-3.6,2.2
	c-1.1,0.7-2.2,1-3,1c-0.4,0-0.7-0.1-0.9-0.1C159.7,228.2,159.6,228.2,159.6,228.2L159.6,228.2z M190.7,216.7c0,0,0.5,0,1.3,0.2
	c0.5,0.1,0.9,0.2,1.5,0.4s1.2,0.4,1.9,0.8c0.7,0.3,1.4,0.7,2.1,1.2s1.5,1,2.2,1.5c0.7,0.6,1.5,1.2,2.2,1.8s1.4,1.3,2.2,1.9
	c0.7,0.6,1.4,1.3,2.2,1.9c0.7,0.6,1.4,1.2,2.2,1.7c1.4,1,2.9,1.8,4.1,2.7s2.1,1.8,2.6,2.5c0.3,0.4,0.4,0.7,0.5,0.9s0.2,0.3,0.2,0.3
	s-0.3-0.4-1-0.9c-0.6-0.5-1.6-1.2-2.9-1.8c-0.7-0.3-1.4-0.6-2.1-1c-0.8-0.4-1.6-0.7-2.4-1.2s-1.6-1-2.4-1.6s-1.5-1.2-2.3-1.9
	c-1.4-1.3-2.8-2.6-4.2-3.8c-0.7-0.6-1.3-1.2-1.9-1.7c-0.3-0.3-0.6-0.5-0.9-0.7s-0.6-0.5-0.9-0.7c-0.6-0.4-1.1-0.7-1.6-1.1
	c-0.5-0.3-1-0.6-1.3-0.7C191.1,216.9,190.7,216.7,190.7,216.7L190.7,216.7z M231.8,233.5c0,0,1.8-1.4,4.7-3.2c1.4-0.9,3.1-2,5-3.1
	c0.9-0.5,1.9-1.1,2.8-1.6c1-0.5,2-1.1,3-1.7c1-0.5,2-1.1,3-1.6s2-1,2.9-1.5c1.9-1,3.7-1.8,5.2-2.5c3.1-1.4,5.2-2.2,5.2-2.2
	s-1.8,1.4-4.7,3.2c-1.4,0.9-3.1,2-5,3.1c-0.9,0.5-1.9,1.1-2.8,1.6c-1,0.5-2,1.1-3,1.7c-1,0.5-2,1.1-3,1.6s-2,1-2.9,1.5
	c-1.9,1-3.7,1.8-5.2,2.5C233.9,232.7,231.8,233.5,231.8,233.5z M271.4,215c0,0,0.5,0.2,1.3,0.5s2,0.5,3.4,0.7
	c0.7,0.1,1.5,0.2,2.3,0.3s1.7,0.2,2.7,0.4l0.4,0.1l0.4,0.1l0.7,0.2c0.4,0.1,0.9,0.3,1.4,0.5c0.9,0.4,1.9,0.8,2.8,1.3s1.7,1,2.6,1.5
	c0.8,0.5,1.6,1.1,2.4,1.6c1.5,1.1,2.9,2.1,4.1,2.9c1.2,0.8,2.2,1.5,2.9,2c0.7,0.4,1.2,0.7,1.2,0.7s-0.5-0.1-1.3-0.3
	c-0.4-0.1-0.9-0.3-1.5-0.5s-1.2-0.5-1.9-0.8c-1.4-0.6-2.9-1.5-4.4-2.4c-0.8-0.5-1.6-0.9-2.4-1.4s-1.7-1-2.5-1.4
	c-0.8-0.5-1.7-0.9-2.5-1.2c-0.4-0.2-0.8-0.4-1.3-0.5l-0.7-0.2l-0.3-0.1l-0.3-0.1c-1.7-0.5-3.4-0.9-4.8-1.3s-2.6-1-3.3-1.5
	c-0.4-0.2-0.6-0.5-0.8-0.6C271.5,215.1,271.4,215,271.4,215L271.4,215z M304.1,222.6c0,0,1.4-1.5,3.6-3.5c1.1-1,2.5-2.1,4-3.3
	c0.8-0.6,1.5-1.2,2.3-1.7c0.8-0.6,1.6-1.1,2.5-1.7c0.8-0.5,1.7-1.1,2.5-1.6s1.7-1,2.5-1.5c1.6-0.9,3.2-1.8,4.6-2.4
	c2.7-1.3,4.6-2,4.6-2s-0.4,0.3-1.1,0.8s-1.7,1.3-3,2.1c-1.2,0.9-2.7,1.9-4.2,2.9c-0.8,0.5-1.6,1.1-2.4,1.6s-1.6,1.1-2.5,1.7
	c-1.7,1.1-3.3,2.2-4.9,3.2s-3,2-4.3,2.8s-2.3,1.5-3.1,1.9C304.6,222.4,304.1,222.6,304.1,222.6z M335.4,204.8c0,0,0.9,0.2,2.1,0.8
	c1.2,0.5,2.7,1.4,4,2.4c1.4,1,2.7,2.1,3.5,3.1c0.9,0.9,1.4,1.7,1.4,1.7s-0.9-0.2-2.1-0.8c-1.2-0.5-2.7-1.4-4-2.4
	c-1.4-1-2.7-2.1-3.5-3.1C335.9,205.5,335.4,204.8,335.4,204.8z M308.2,233.6c0,0,0.4,0,1,0.1c0.7,0.1,1.6,0.3,2.7,0.8
	c1.1,0.4,2.3,0.9,3.5,1.6c1.3,0.6,2.6,1.4,3.8,2.2c1.3,0.8,2.5,1.7,3.6,2.6c0.6,0.4,1.1,0.9,1.6,1.3s0.9,0.9,1.3,1.3
	c1.6,1.6,2.5,2.8,2.5,2.8s-0.3-0.2-0.9-0.5s-1.4-0.8-2.3-1.4c-0.9-0.6-2-1.3-3.2-2.1l-3.6-2.4c-1.2-0.8-2.5-1.6-3.6-2.4
	c-1.2-0.7-2.3-1.5-3.2-2.1c-0.9-0.6-1.7-1.1-2.3-1.4C308.5,233.8,308.2,233.6,308.2,233.6L308.2,233.6z M333.5,241.6
	c0,0,0.5-0.8,1.3-1.8c0.9-1,2.1-2.2,3.5-3.3c1.4-1,2.9-1.9,4.1-2.5s2.1-0.8,2.1-0.8s-0.5,0.8-1.4,1.7c-0.9,1-2.2,2.1-3.6,3.1
	s-2.8,2-4,2.6C334.3,241.3,333.5,241.6,333.5,241.6z M290.8,237c0,0-0.4,0.3-1.1,0.8s-1.8,1.2-3,2c-1.3,0.8-2.7,1.8-4.3,2.8
	c-1.6,1-3.3,2.1-4.9,3.2c-1.7,1.1-3.3,2.2-4.9,3.3c-0.7,0.6-1.5,1-2.2,1.6c-0.7,0.5-1.3,1-1.9,1.4c-2.4,1.8-4,3.1-4,3.1
	s0.3-0.4,0.8-1.1c0.3-0.4,0.6-0.8,1-1.2c0.4-0.5,0.9-1,1.4-1.5c1-1.1,2.4-2.3,3.8-3.5c0.8-0.6,1.5-1.2,2.3-1.8s1.7-1.2,2.5-1.7
	c0.9-0.5,1.7-1.1,2.6-1.6s1.7-1,2.6-1.4c1.7-0.9,3.3-1.7,4.7-2.3C288.9,237.7,290.8,237,290.8,237z M236.7,240.8c0,0,0.4,0,1.1,0.1
	c0.4,0,0.8,0.1,1.3,0.2s1,0.2,1.6,0.4c1.2,0.3,2.5,0.8,3.9,1.4c0.7,0.3,1.4,0.6,2.1,1l2.1,1.2c0.7,0.5,1.4,0.9,2,1.4
	c0.7,0.5,1.2,1,1.8,1.5c1.1,1,2.2,2,2.9,3c0.4,0.5,0.7,0.9,1,1.3c0.3,0.4,0.5,0.7,0.7,1l0.6,0.9c0,0-0.3-0.2-0.9-0.7
	c-0.6-0.4-1.3-1-2.3-1.8l-1.5-1.2c-0.5-0.4-1.1-0.8-1.7-1.3c-1.2-0.8-2.5-1.7-3.8-2.6c-1.3-0.9-2.7-1.6-3.9-2.4
	c-0.7-0.3-1.3-0.7-1.9-1s-1.2-0.6-1.7-0.9c-1.1-0.5-2-1-2.6-1.3C237,241,236.7,240.8,236.7,240.8L236.7,240.8z M193.3,252.9
	c0,0,0.9-1,2.5-2.2c0.8-0.6,1.7-1.3,2.7-1.9c1-0.7,2.1-1.3,3.3-2c0.6-0.3,1.1-0.6,1.7-0.9c0.6-0.3,1.1-0.5,1.7-0.8
	c1.1-0.5,2.2-0.9,3.1-1.2c1.8-0.6,3.2-0.9,3.2-0.9s-1,0.9-2.6,1.9c-0.8,0.5-1.8,1.1-2.8,1.8c-1,0.6-2.1,1.3-3.3,1.9
	c-1.1,0.6-2.3,1.2-3.3,1.7c-1.1,0.5-2.1,1-3,1.4C194.6,252.5,193.3,252.9,193.3,252.9L193.3,252.9z M165,234.6c0,0,0.4,0.2,1,0.6
	c0.3,0.2,0.7,0.5,1.1,0.7c0.4,0.3,0.9,0.6,1.4,1c1,0.8,2.2,1.8,3.3,2.9c0.6,0.6,1.2,1.2,1.7,1.8c0.6,0.6,1.1,1.3,1.7,1.9
	c0.5,0.7,1.1,1.4,1.6,2c0.5,0.7,1,1.4,1.4,2c0.9,1.3,1.7,2.6,2.4,3.7c1.3,2.2,2,3.8,2,3.8s-1.3-1.2-3-3.1c-0.9-1-1.8-2.1-2.8-3.3
	s-2.1-2.5-3.2-3.8c-0.5-0.7-1.1-1.3-1.6-1.9c-0.5-0.6-1.1-1.3-1.6-1.9c-0.5-0.6-1-1.2-1.5-1.7s-0.9-1.1-1.3-1.5
	c-0.4-0.5-0.8-0.9-1.2-1.3c-0.4-0.4-0.6-0.7-0.9-1C165.3,234.9,165,234.6,165,234.6z M134.5,210.1c0,0,0.1,0,0.3,0.1
	c0.2,0,0.4,0.1,0.7,0.2c0.6,0.2,1.5,0.5,2.5,1s2.1,1.2,3.3,2c0.6,0.4,1.2,0.8,1.7,1.3c0.6,0.5,1.1,0.9,1.7,1.4c1.1,1,2.2,2,3.1,3
	c1,1,1.9,1.9,2.6,2.8c1.5,1.7,2.3,2.9,2.3,2.9s-1.3-0.7-3.1-2c-0.9-0.6-1.9-1.4-3-2.3c-1.1-0.9-2.2-1.8-3.3-2.8
	c-1.1-1-2.2-2-3.2-2.9c-0.5-0.4-1-0.9-1.5-1.3s-0.9-0.8-1.3-1.1c-0.8-0.7-1.6-1.3-2.1-1.6C134.8,210.3,134.5,210.1,134.5,210.1
	L134.5,210.1z M135.3,238.4c0,0,0.7-0.8,2-1.8c0.6-0.5,1.4-1.1,2.2-1.6c0.8-0.6,1.7-1.1,2.6-1.7l2.7-1.5c0.9-0.4,1.7-0.8,2.5-1.1
	c1.5-0.6,2.6-0.8,2.6-0.8s-0.7,0.8-2,1.8c-0.6,0.5-1.4,1.1-2.2,1.6c-0.8,0.6-1.7,1.1-2.6,1.7l-2.7,1.5c-0.9,0.4-1.7,0.8-2.5,1.1
	C136.4,238.2,135.3,238.4,135.3,238.4z M134.5,252.8c0,0,0.4,0.1,1,0.3c0.3,0.1,0.7,0.2,1.2,0.4l1.5,0.6c1.1,0.5,2.3,1.2,3.5,2
	c0.6,0.4,1.2,0.9,1.8,1.4l1.8,1.5c0.6,0.5,1.1,1.1,1.6,1.7c0.5,0.5,1,1.1,1.5,1.7c0.9,1.1,1.7,2.2,2.4,3.2c1.3,1.9,2,3.3,2,3.3
	s-1.2-1-2.9-2.6c-0.8-0.8-1.8-1.7-2.8-2.7s-2.1-2-3.2-3.1l-3.3-3c-0.6-0.4-1.1-0.9-1.6-1.3s-1-0.8-1.4-1.1c-0.9-0.7-1.7-1.2-2.2-1.6
	C134.8,253,134.5,252.8,134.5,252.8L134.5,252.8z M159.7,270.9c0,0,1-0.8,2.5-2.1c0.7-0.6,1.6-1.4,2.6-2.1c1-0.7,2-1.5,3.1-2.2
	s2.2-1.4,3.2-2s2-1.1,2.9-1.6c1.7-0.9,3-1.3,3-1.3s-0.9,1-2.4,2.3c-0.7,0.6-1.6,1.4-2.6,2.1c-1,0.7-2,1.5-3.1,2.2s-2.2,1.4-3.2,2
	s-2,1.1-2.9,1.6c-0.9,0.4-1.7,0.7-2.2,0.9C160,270.8,159.7,270.9,159.7,270.9L159.7,270.9z M194.3,260.7c0,0,0,0.1,0.1,0.4
	c0.1,0.2,0.3,0.5,0.6,0.8c0.3,0.3,0.8,0.6,1.4,0.8c0.6,0.3,1.3,0.5,2.1,0.7c1.6,0.5,3.4,1.2,5.3,1.9c1,0.4,2,0.7,3,1.2
	c1,0.4,2,0.8,3,1.3s2,0.9,3,1.4c1,0.4,1.9,1,2.9,1.4c0.9,0.5,1.8,1,2.6,1.5s1.6,1,2.3,1.4c1.4,0.9,2.5,1.8,3.3,2.4
	c0.8,0.6,1.2,1,1.2,1s-2-0.9-5-2.3c-0.7-0.3-1.6-0.7-2.4-1.1l-2.7-1.2c-1.9-0.8-3.9-1.7-5.9-2.6c-1-0.4-2-0.9-3-1.3s-2-0.9-2.9-1.3
	c-1.9-0.9-3.6-1.7-5.1-2.5c-0.7-0.4-1.4-0.7-2-1.1c-0.6-0.4-1-0.8-1.3-1.2s-0.4-0.8-0.5-1.1V260.7L194.3,260.7z M234.4,275.8
	c0,0,0.3-0.3,0.8-0.7c0.5-0.5,1.3-1.1,2.2-1.8c0.9-0.7,2-1.6,3.1-2.5s2.4-1.8,3.6-2.8c1.2-0.9,2.5-1.8,3.7-2.7s2.3-1.6,3.2-2.3
	c1-0.7,1.8-1.2,2.4-1.6l0.9-0.6c0,0-0.9,1.3-2.5,3c-0.8,0.9-1.8,1.8-2.9,2.8c-0.6,0.5-1.1,1-1.7,1.5s-1.2,1-1.8,1.4
	c-1.3,0.9-2.6,1.8-3.8,2.6c-1.2,0.8-2.4,1.5-3.5,2C236,275.3,234.4,275.8,234.4,275.8L234.4,275.8z M268.1,260.7
	c0,0,0.4,0.3,1.2,0.7c0.8,0.4,1.9,0.8,3.3,1.3c1.4,0.4,3.1,0.9,4.9,1.5c0.9,0.3,1.8,0.7,2.7,1.1c0.9,0.4,1.8,0.8,2.7,1.3
	c0.9,0.5,1.8,0.9,2.6,1.4c0.9,0.5,1.7,1,2.5,1.4c1.6,0.9,3.1,1.8,4.4,2.6c2.5,1.6,4.2,2.8,4.2,2.8s-1.9-0.6-4.7-1.8
	c-1.4-0.6-3-1.3-4.7-2.1c-0.8-0.4-1.7-0.8-2.6-1.3c-0.9-0.4-1.8-0.9-2.7-1.3c-0.9-0.5-1.8-0.9-2.6-1.3c-0.9-0.4-1.7-0.9-2.6-1.2
	c-1.7-0.8-3.3-1.4-4.7-2.1c-1.4-0.7-2.4-1.4-3.1-2l-0.7-0.7C268.2,260.8,268.1,260.7,268.1,260.7L268.1,260.7z M303,270.9
	c0,0,0.6-1.3,1.8-3.1c0.6-0.9,1.3-1.9,2.2-2.9c0.9-1,1.9-2,2.9-2.9c1.1-0.9,2.2-1.8,3.3-2.5c1.1-0.7,2.1-1.4,2.9-2s1.5-1.1,2-1.5
	s0.8-0.6,0.8-0.6s0,0.1-0.1,0.2l-0.3,0.6c-0.3,0.5-0.8,1.3-1.6,2.1c-0.7,0.8-1.6,1.6-2.6,2.5c-1,0.8-2,1.7-3.1,2.6l-3,2.7
	c-1,0.9-1.8,1.7-2.6,2.4s-1.4,1.3-1.9,1.7C303.3,270.7,303,270.9,303,270.9L303,270.9z"/>
<path d="M106.8,24.7c0,0,0.4,11.2,1.2,30.7c0.4,9.8,1.1,21.6,2.2,35.2c1.1,13.6,2.7,28.8,4.9,45.4c2.2,16.6,5.2,34.5,9.2,53.2
	c1,4.7,2,9.4,3.5,14c0.8,2.3,1.8,4.6,2.4,7.1c0.2,0.7,0.3,1.3,0.4,2c0.1,0.6,0.1,1.2,0.2,1.9c0.1,1.3,0.1,2.6,0,3.9
	c-0.1,2.6-0.3,5.1-0.3,7.5c0,1.2,0.1,2.4,0.3,3.6c0.2,1.1,0.6,2.4,0.9,3.6c1.5,4.8,3.9,9.6,4.6,15.1c0.8,5.6-0.7,10.9-0.2,15.9
	c0.3,2.4,1,4.9,2.5,6.7c0.7,0.9,1.6,1.7,2.6,2.2s2.1,0.7,3.4,0.8c1.2,0.1,2.6,0,4,0h1.1l1,0.1l1,0.1c0.3,0,0.7,0.1,1.1,0.1
	c2.9,0.3,5.6,1.1,8.2,2.1c5.3,2,10.1,4.8,14.8,7.5c4.8,2.8,9.5,5.5,14.6,7.3c2.5,0.9,5.1,1.6,7.7,1.8c1.3,0.1,2.6,0.1,3.9-0.1
	c1.2-0.2,2.5-0.5,3.8-0.9c2.6-0.8,5.1-2,7.9-2.7c0.7-0.2,1.3-0.4,2-0.6l2.1-0.5c1.4-0.4,2.8-0.5,4.3-0.7c5.7-0.7,11.4-0.4,17.1,0.3
	c11.2,1.4,22.1,4.5,32.9,6.4c1.3,0.2,2.5,0.4,3.6,0.1c1.1-0.2,2.2-0.8,3.4-1.4c2.4-1.4,4.8-2.8,7.1-4.2c4.8-2.8,9.6-5.7,14.9-7.7
	c2.6-1,5.4-1.8,8.2-2.2c2.8-0.4,5.8-0.4,8.6,0.1s5.2,1,7-0.1c0.9-0.6,1.8-1.5,2.8-2.4l2.8-2.8c3.7-3.8,7.3-7.7,9.9-12.2
	c1.3-2.2,2.4-4.5,3.1-6.9l0.1-0.5l0.1-0.2l0.1-0.2l0.2-1c0.1-0.6,0.3-1.3,0.4-1.9l0.3-1.8c0.1-0.6,0.1-1.3,0.2-1.9
	c0.7-10.2-2.6-20.3-2.1-30.7l0.1-1.9c0-0.6,0.2-1.3,0.2-1.9l0.1-1l0.1-0.9l0.3-1.8c0.4-2.5,0.8-4.9,1.1-7.3
	c0.6-4.9,1.3-9.7,1.7-14.4c1.9-19.1,2.4-37.2,2.5-53.9c0-16.8,0.1-32.1,0.1-45.7c0.1-13.6,0.4-25.5,0.9-35.3
	c0.4-9.8,1.1-17.4,1.6-22.6s0.8-8,0.8-8s-0.3,2.8-0.7,8c-0.4,5.2-0.9,12.9-1.2,22.7c-0.3,9.8-0.4,21.6-0.3,35.2s0.5,29,0.5,45.7
	c0,16.8-0.3,35-2,54.1c-0.4,4.8-1,9.7-1.6,14.6c-0.4,2.4-0.7,4.9-1.1,7.4l-0.3,1.9l-0.1,0.9l-0.1,0.9c-0.1,0.6-0.2,1.2-0.2,1.8
	l-0.1,1.8c-0.2,4.9,0.5,9.9,1.2,15s1.4,10.4,1,15.8c-0.1,0.7-0.1,1.3-0.2,2l-0.3,2.1c-0.1,0.7-0.3,1.3-0.4,2l-0.2,1l-0.1,0.2
	c0,0.2-0.1,0.2-0.1,0.3l-0.2,0.5c-0.8,2.6-1.9,5.2-3.3,7.5c-2.8,4.8-6.5,8.8-10.3,12.7l-2.9,2.9c-1,0.9-1.9,2-3.3,2.9
	c-0.2,0.1-0.4,0.2-0.5,0.3l-0.6,0.3c-0.4,0.2-0.8,0.3-1.2,0.4c-0.8,0.2-1.6,0.2-2.4,0.2c-1.5-0.1-2.9-0.4-4.2-0.6
	c-5.1-0.8-10.4,0.1-15.4,2.1c-5,1.9-9.7,4.7-14.4,7.5c-2.4,1.4-4.7,2.9-7.2,4.3c-1.2,0.7-2.6,1.4-4.3,1.8c-1.6,0.3-3.2,0.1-4.7-0.1
	c-11.1-2-21.8-5-32.8-6.3c-5.5-0.7-11-1-16.4-0.3c-1.3,0.2-2.7,0.3-4,0.6l-1.9,0.4c-0.7,0.1-1.3,0.4-2,0.6c-2.6,0.7-5.1,1.8-7.9,2.7
	c-1.4,0.4-2.8,0.8-4.3,1c-1.4,0.2-3,0.2-4.5,0.1c-3-0.3-5.8-1-8.4-2c-5.4-1.9-10.2-4.8-15-7.6c-4.7-2.8-9.4-5.5-14.4-7.4
	c-2.5-0.9-5-1.7-7.5-2c-0.3,0-0.6-0.1-0.9-0.1l-1-0.1l-1-0.1h-0.9c-1.3,0-2.7,0.1-4.1,0s-3-0.3-4.4-1s-2.6-1.8-3.5-2.9
	c-0.9-1.2-1.6-2.5-2.1-3.9s-0.8-2.7-0.9-4.2c-0.5-5.6,0.9-10.9,0.2-15.7c-0.7-4.9-2.9-9.6-4.5-14.7c-0.4-1.3-0.7-2.5-1-3.9
	c-0.2-1.3-0.3-2.7-0.3-4c0-2.6,0.2-5.2,0.4-7.7c0.1-1.2,0.1-2.5,0-3.6c0-0.6-0.1-1.2-0.2-1.8c-0.1-0.5-0.2-1.1-0.3-1.7
	c-0.5-2.3-1.5-4.6-2.3-7c-1.5-4.8-2.5-9.6-3.5-14.3c-3.8-18.9-6.6-36.8-8.7-53.5c-1.1-8.3-1.9-16.3-2.6-23.9
	c-0.7-7.6-1.3-14.8-1.7-21.6c-0.9-13.6-1.4-25.5-1.6-35.2c-0.3-9.8-0.4-17.5-0.5-22.7C106.9,27.5,106.8,24.7,106.8,24.7L106.8,24.7z
	"/>
<path d="M110.1,79.5c0,0,0.9,0.2,2.6,0.7c0.9,0.2,1.9,0.4,3.1,0.6c1.2,0.2,2.7,0.4,4.3,0.6c3.2,0.3,7.2,0.4,11.7,0.2
	c4.5-0.2,9.6-0.8,15.1-1.6c2.8-0.4,5.7-0.8,8.7-1.2c3-0.4,6.1-0.8,9.3-1.2c3.2-0.4,6.5-0.7,9.8-1c1.7-0.2,3.4-0.3,5.1-0.5
	c1.7-0.1,3.4-0.3,5.2-0.4c3.5-0.3,7-0.6,10.6-0.8c3.6-0.2,7.2-0.5,10.9-0.6c7.3-0.4,14.8-0.6,22.3-0.9c7.5-0.2,14.9-0.4,22.3-0.6
	c7.3-0.1,14.6-0.3,21.6-0.4s13.7-0.1,20.2-0.2c6.4-0.1,12.5-0.1,18-0.2c5.6-0.1,10.7-0.2,15.3-0.3c4.5-0.1,8.5-0.3,11.8-0.4
	c6.5-0.3,10.3-0.4,10.3-0.4v0.3c0,0-3.7,0.5-10.2,1.1c-3.2,0.4-7.2,0.7-11.7,1c-2.3,0.2-4.7,0.3-7.2,0.5s-5.2,0.4-8,0.5
	s-5.7,0.3-8.7,0.4s-6.1,0.2-9.3,0.3c-3.2,0.1-6.5,0.2-9.9,0.2c-3.4,0.1-6.8,0.1-10.3,0.2c-7,0-14.2,0.1-21.6,0.1
	c-7.3,0-14.8,0.1-22.3,0.1c-7.5,0.1-14.9,0.3-22.2,0.5c-3.7,0.1-7.3,0.3-10.9,0.5c-3.6,0.1-7.1,0.4-10.6,0.6
	c-1.7,0.1-3.5,0.2-5.2,0.3c-1.7,0.1-3.4,0.3-5.1,0.4s-3.3,0.3-5,0.4c-1.6,0.1-3.3,0.3-4.8,0.5c-3.2,0.3-6.3,0.7-9.3,1
	c-3,0.4-5.9,0.7-8.7,1c-5.6,0.6-10.7,1.1-15.3,1.3c-4.6,0.1-8.5-0.1-11.8-0.4c-1.6-0.2-3.1-0.4-4.3-0.7c-1.2-0.3-2.3-0.5-3.2-0.7
	C111,79.8,110.1,79.6,110.1,79.5L110.1,79.5z"/>
</svg>
