<?xml version="1.0" encoding="utf-8"?>
<!-- Generator: Adobe Illustrator 19.2.0, SVG Export Plug-In . SVG Version: 6.00 Build 0)  -->
<svg version="1.1" id="Layer_1" xmlns="http://www.w3.org/2000/svg" xmlns:xlink="http://www.w3.org/1999/xlink" x="0px" y="0px"
	 viewBox="0 0 700 700" style="enable-background:new 0 0 700 700;" xml:space="preserve">
<style type="text/css">
	.st0{fill:none;}
	.st1{fill:none;stroke:#000000;stroke-width:5;stroke-miterlimit:10;}
	.st2{opacity:0.9;fill:url(#SVGID_1_);}
	.st3{fill:url(#SVGID_2_);}
	.st4{fill:#F9F2E4;}
</style>
<rect x="0" y="0" class="st0" width="700" height="700"/>
<path class="st1" d="M6708.6-568.1c0.3,38.5,0.2,82.4-5.7,120.5c-2.3,14.7-3.7,31.7-10.6,44.9c-9.4,17.9-18.6,35.9-34,49.5
	c-5.5,4.9-11.5,9.2-17.9,12.8c-4.2,2.3-15.3,5.1-15.9,10.8c-0.4,3.6,3.8,5.7,6.9,7.6c6.9,4.3,10.9,12.3,11.6,20.4
	c1.5,15.4-5.6,30.7-18.9,38.8c-0.8,0.5-1.6,1-1.9,1.8c-0.7,2.1,2.1,3.4,4.2,3.8c12.1,2.1,24,5,35.7,8.7c7.7,2.4,24.3,10.6,12,18.5
	c-7.7,4.9-17,6.2-26,7.3c-24.7,3.1-49.7,6.2-74.5,3.9c-5.6-0.5-11.2-1.4-16.8-2.2c-7.5-1.1-15-2.2-22.5-3.3
	c-5.3-0.8-11.8-2.7-12.7-7.9c-1.7-10.2,16.6-15.1,23.6-17.2c4.9-1.5,36.5-4.6,35.6-9.3c-0.5-2.4-2.8-3.9-4.8-5.4
	c-8.9-6.4-15-16.4-16.6-27.2c-1.6-10.8,1.3-22.2,7.9-30.9c2.2-2.9,4.9-6,4.4-9.6c-0.2-1.5-1-2.9-2-4.1c-5.1-6.7-15.9-9.5-22.8-14.7
	c-7.9-6-15.2-12.8-21.6-20.4c-12.5-14.5-22.1-31.5-27.6-49.9c-5.2-17.2-6.9-35.3-8.2-53.2c-2.3-31-3.6-62-3.8-93.1
	c20.2-2.4,42-1.8,62.4-1.4C6600.9-567.5,6708.6-570.2,6708.6-568.1z"/>
<g>
	<path d="M6582-253.2c0,0,0,0.2,0,0.5c0,0.3,0,0.8,0,1.4c0,0.6,0.1,1.3,0.6,1.9c0.4,0.6,1.2,0.8,2.2,0.8c2.1-0.1,4.5-0.2,7.1-0.2
		c1.3,0,2.7-0.1,4-0.1c1.4-0.1,2.8-0.1,4.1-0.2c1.4-0.1,2.8-0.1,4.1-0.2c1.4-0.1,2.7-0.1,4-0.2c2.6-0.1,5-0.2,7.1-0.3
		c2-0.1,3.7-0.6,4.6-1.3c0.4-0.4,0.7-0.8,0.8-1.1c0.1-0.3,0.2-0.5,0.2-0.5s0,0.2,0,0.5c-0.1,0.3-0.2,0.8-0.6,1.3
		c-0.4,0.5-1.1,1-1.9,1.4c-0.8,0.4-1.8,0.7-2.8,0.8c-2.1,0.4-4.5,0.7-7.1,0.9c-1.3,0.1-2.7,0.3-4,0.4c-1.4,0.1-2.8,0.2-4.2,0.2
		c-1.4,0-2.8,0.1-4.2,0.1c-1.4,0-2.7,0-4.1,0c-2.6-0.1-5.1-0.2-7.2-0.4c-0.5-0.1-1.1-0.1-1.6-0.4c-0.5-0.3-0.9-0.7-1.1-1.1
		c-0.4-0.9-0.4-1.7-0.3-2.3c0.1-0.6,0.2-1.1,0.3-1.4C6581.9-253,6582-253.2,6582-253.2z"/>
</g>
<g>
	<path d="M6581.6-337.8c0,0,0.6,0.2,1.6,0.5c0.5,0.2,1.2,0.3,1.9,0.5c0.7,0.2,1.6,0.4,2.4,0.5c0.9,0.2,1.9,0.3,2.9,0.5
		c1,0.1,2.1,0.2,3.3,0.3c1.1,0.1,2.3,0.1,3.5,0.2c1.2,0,2.4,0,3.6,0c1.2,0,2.5,0,3.7-0.1c1.2,0,2.4-0.1,3.6-0.1
		c2.3-0.1,4.5-0.1,6.3-0.3c1.8-0.2,3.2-0.6,4.1-1.2c0.4-0.3,0.8-0.6,1-0.8c0.2-0.2,0.3-0.3,0.3-0.3s-0.1,0.1-0.2,0.4
		c-0.2,0.3-0.4,0.6-0.8,1c-0.8,0.8-2.3,1.6-4.2,2c-0.9,0.2-2,0.4-3,0.5c-1.1,0.1-2.2,0.3-3.3,0.4c-1.2,0.1-2.4,0.2-3.6,0.3
		c-1.2,0.1-2.5,0.1-3.7,0.2c-1.3,0-2.5,0-3.7-0.1c-0.6,0-1.2-0.1-1.8-0.1c-0.6-0.1-1.2-0.1-1.8-0.2c-1.2-0.1-2.3-0.4-3.4-0.6
		c-0.5-0.1-1-0.3-1.5-0.4c-0.5-0.2-1-0.3-1.4-0.4c-1.8-0.6-3.2-1.3-4.2-1.8C6582.2-337.5,6581.6-337.8,6581.6-337.8z"/>
</g>
<g>
	<path d="M6531.5-235.7c0,0,0.1,0.1,0.3,0.3c0.2,0.2,0.5,0.4,1,0.6c0.9,0.5,2.3,1,4.2,1.4c1.9,0.4,4.2,0.7,6.8,1.1
		c2.6,0.4,5.6,0.7,8.9,1.1c3.3,0.3,6.8,0.7,10.6,1c3.7,0.3,7.7,0.5,11.8,0.7c8.2,0.3,17,0.5,25.7,0.6c4.4,0.1,8.8,0.1,13.1,0.2
		c4.3,0,8.5,0.1,12.6,0c4.1-0.1,8-0.4,11.7-0.8c3.7-0.5,7.2-1.1,10.4-1.7c6.4-1.4,11.6-3,15.2-4.3c1.8-0.7,3.2-1.2,4.2-1.6
		c1-0.4,1.5-0.6,1.5-0.6s-0.5,0.2-1.4,0.7c-0.9,0.4-2.3,1.1-4.1,1.8c-3.5,1.5-8.7,3.5-15.1,5.1c-6.4,1.6-14.1,2.9-22.3,3.2
		c-4.1,0.2-8.4,0.2-12.7,0.2c-4.3,0-8.7-0.1-13.1-0.1c-4.4-0.1-8.8-0.2-13.1-0.3c-4.3-0.1-8.6-0.4-12.7-0.6c-4.1-0.3-8.1-0.6-11.8-1
		c-3.8-0.4-7.3-0.8-10.6-1.3c-1.6-0.3-3.2-0.5-4.7-0.7c-1.5-0.3-2.9-0.5-4.2-0.8c-2.6-0.5-4.9-1-6.8-1.5c-1.9-0.5-3.3-1.1-4.1-1.7
		c-0.4-0.3-0.7-0.5-0.9-0.7C6531.6-235.6,6531.5-235.7,6531.5-235.7z"/>
</g>
<linearGradient id="SVGID_1_" gradientUnits="userSpaceOnUse" x1="6498.813" y1="-446.2358" x2="6704.6909" y2="-446.2358">
	<stop  offset="1.785714e-02" style="stop-color:#801FE3"/>
	<stop  offset="1" style="stop-color:#B7A7FF"/>
</linearGradient>
<path class="st2" d="M6498.8-539.9c1.4,24.4,2.7,48.8,4.1,73.2c0.4,7.9,0.9,15.9,2.2,23.7c1.8,11.1,5.4,21.8,8.9,32.5
	c3,9.1,6,18.2,11.1,26.3c17.8,28.1,51.5,32.7,81.9,31.3c10.6-0.5,21.3-1.5,31.5-4.7c66.9-21.3,65.2-117,66.1-172.7
	c0-2.6,0.1-5.1,0.1-7.7C6636-535.8,6567.2-534,6498.8-539.9z"/>
<g>
	<path d="M6493.7-559.6c0,0,0.6,8.1,1.5,22.2c0.5,7.1,1,15.6,1.7,25.5c0.6,9.8,1.4,20.9,2.1,33.1c0.4,6.1,0.7,12.4,1.3,18.9
		c0.5,6.5,1.4,13.2,3,19.9c1.6,6.7,3.7,13.5,6,20.4c2.4,6.9,4.5,14,7.5,20.9c0.8,1.7,1.5,3.4,2.4,5.1c0.9,1.6,1.8,3.3,2.8,4.8
		c1.1,1.6,2.2,3.1,3.4,4.7c1.2,1.4,2.5,2.8,3.7,4.3c5.3,5.5,11.7,10,18.8,13.2c7.1,3.3,14.8,5.4,22.6,6.6c7.9,1.3,15.9,1.7,23.9,1.7
		c8-0.1,16.1-0.4,24-1.5c3.9-0.5,7.9-1.2,11.7-2.2c1-0.3,1.9-0.5,2.8-0.8l0.7-0.2c0.1,0,0,0,0.1,0l0.2-0.1l0.4-0.1l1.4-0.5l2.8-1
		c0.5-0.2,0.9-0.3,1.4-0.5l1.3-0.6c7.1-3.1,13.7-7.4,19.4-12.5c5.7-5.1,10.5-11.1,14.4-17.5c4-6.3,7.1-13.1,9.7-19.8
		c2.6-6.8,4.6-13.6,6.3-20.3c3.2-13.5,5-26.5,6.2-38.5c1.1-12.1,1.7-23.2,2-33c0.3-9.9,0.5-18.4,0.7-25.5
		c0.2-14.2,0.4-22.2,0.4-22.2s0,2,0.1,5.8c0,3.8,0.1,9.4,0.2,16.4c0,7.1,0,15.7-0.2,25.5c-0.1,9.9-0.5,21-1.5,33.1
		c-1,12.1-2.6,25.2-5.7,38.9c-1.6,6.8-3.6,13.7-6.1,20.6c-2.5,6.9-5.7,13.8-9.8,20.3c-4,6.5-9,12.7-14.8,18.1
		c-5.9,5.4-12.7,9.8-20.2,13.1l-1.4,0.6c-0.5,0.2-0.9,0.4-1.4,0.5l-2.8,1l-1.4,0.5l-0.4,0.1l-0.2,0.1l-0.2,0.1l-0.7,0.2
		c-1,0.3-2,0.6-2.9,0.8c-3.9,1-8,1.8-12,2.4c-8.1,1.1-16.2,1.5-24.4,1.6c-8.2,0-16.3-0.5-24.4-1.8c-8-1.3-16-3.5-23.3-7
		c-7.4-3.4-14.1-8.1-19.6-13.9c-1.3-1.5-2.6-3.1-3.9-4.6c-1.1-1.6-2.2-3.2-3.3-4.7c-2.2-3.4-3.9-6.8-5.4-10.4
		c-3-7.1-5.2-14.2-7.5-21.2c-2.2-7-4.3-13.9-5.8-20.7c-1.6-6.9-2.4-13.6-2.8-20.2c-0.5-6.6-0.7-12.9-1-18.9
		c-0.6-12.1-1.1-23.2-1.6-33.1c-0.5-9.9-0.8-18.4-1.2-25.5C6494-551.6,6493.7-559.6,6493.7-559.6z"/>
</g>
<g>
	<path d="M6494.1-544.2c0,0,0.8,0,2.4,0.1c1.6,0.1,3.8,0.2,6.7,0.3c2.9,0.2,6.4,0.3,10.5,0.5c4,0.2,8.6,0.3,13.6,0.5
		c5,0.2,10.4,0.3,16.1,0.5c5.7,0.2,11.7,0.2,17.9,0.4c6.2,0.1,12.6,0.1,19.2,0.2c6.5,0.1,13.2,0,19.8,0.1c6.6,0,13.3,0,19.8-0.1
		c6.5-0.1,13-0.1,19.2-0.2c12.5-0.1,24.1-0.2,34-0.3c10-0.1,18.3-0.1,24.1-0.1c2.9,0,5.2,0,6.7,0c1.6,0,2.4,0,2.4,0
		s-0.8,0.1-2.4,0.2c-1.6,0.1-3.8,0.2-6.7,0.4c-5.8,0.3-14.1,0.8-24.1,1.3c-10,0.5-21.6,0.9-34,1.3c-6.2,0.1-12.7,0.4-19.2,0.4
		c-6.5,0.1-13.2,0.1-19.8,0.2c-6.6,0-13.3,0-19.8-0.2c-6.5-0.1-13-0.3-19.2-0.4c-6.2-0.2-12.3-0.4-18-0.8c-2.9-0.2-5.6-0.3-8.3-0.5
		c-2.7-0.2-5.3-0.4-7.8-0.5c-2.5-0.2-4.9-0.3-7.1-0.5c-2.3-0.2-4.4-0.4-6.4-0.6c-4-0.4-7.6-0.7-10.4-1c-2.9-0.3-5.2-0.6-6.7-0.7
		C6494.9-544.1,6494.1-544.2,6494.1-544.2z"/>
</g>
<g>
	<linearGradient id="SVGID_2_" gradientUnits="userSpaceOnUse" x1="352.163" y1="280.8133" x2="352.163" y2="682.9127">
		<stop  offset="0" style="stop-color:#FFC000"/>
		<stop  offset="0.9981" style="stop-color:#AA6300"/>
	</linearGradient>
	<path class="st3" d="M505.3,280.8c-102.1,3.8-205,6.1-307.2,6.8l0.1,2.1c0,0.5,0.1,1.1,0.1,1.6c0.7,8.4,3.2,16.5,5.6,24.6
		c3.9,12.8,7.7,25.6,11.6,38.4c9.6,31.7,10.6,64.5,11.6,97.6c1.8,58.5,0.1,110.8,5.6,166.3c1.1,11.1,2.4,22.4,7.1,32.5
		c4.6,10.1,13,19.1,23.9,21.7c49.5,11.6,102.4,8,153.2,10.3c10.9,0.5,29.3-1.1,40-3.3c16.2-3.4,17.9-23.4,18.2-29.1
		c2-31.4-1.9-62.3,0.1-93.7c1.5-22.9,2.9-45.7,4.4-68.6c1.8-28.5,5.5-57.9,7.5-86.4c1.8-26.8,3.7-53.9,11.5-79.5
		c4.1-13.5,6.5-27.4,7.6-41.4L505.3,280.8z"/>
	<path class="st4" d="M503.7,225.8c-3.7-30.2-8.6-61.4-1.2-90.8c0.6-3.7-2.7-6.9-5.9-9c-17.9-11.4-40.3-12.3-61.6-12.5
		c-68.4-0.7-136.9,1.9-205.1,8.4c-12.3,1.2-26.6,3.8-32.2,14.8c7.9,39.2,8,78.4,2.4,118c-1.4,9.5-3.1,19.1-3,28.7l0,1.2
		c102.2-0.7,205.1-3.1,307.2-6.9l1-0.1C506.5,260.5,505.8,243,503.7,225.8z"/>
	<path class="st4" d="M504.7,228.8c-3.7-30.2-8.6-61.4-1.2-90.8c0.6-3.7-2.7-6.9-5.9-9c-17.9-11.4-40.3-12.3-61.6-12.5
		c-68.4-0.7-136.9,1.9-205.1,8.4c-12.3,1.2-26.6,3.8-32.2,14.8c7.9,39.2,8,78.4,2.4,118c-1.4,9.5-3.1,19.1-3,28.7l0,1.2
		c102.2-0.7,205.1-3.1,307.2-6.9l1-0.1C507.5,263.5,506.8,246,504.7,228.8z"/>
	<path class="st0" d="M502,275.6c-102.1,3.8-205,6.1-307.2,6.8l0.1,2.1c0,0.5,0.1,1.1,0.1,1.6c0.7,8.4,3.2,16.5,5.6,24.6
		c3.9,12.8,7.7,25.6,11.6,38.4c9.6,31.7,10.6,64.5,11.6,97.6c1.8,58.5,0.1,110.8,5.6,166.3c1.1,11.1,2.4,22.4,7.1,32.5
		c4.6,10.1,13,19.1,23.9,21.7c49.5,11.6,102.4,8,153.2,10.3c10.9,0.5,29.3-1.1,40-3.3c16.2-3.4,17.9-23.4,18.2-29.1
		c2-31.4-1.9-62.3,0.1-93.7c1.5-22.9,2.9-45.7,4.4-68.6c1.8-28.5,5.5-57.9,7.5-86.4c1.8-26.8,3.7-53.9,11.5-79.5
		c4.1-13.5,6.5-27.4,7.6-41.4L502,275.6z"/>
	<g>
		<path d="M194.1,133c0,0,0.2,1.2,0.7,3.7c0.2,1.2,0.5,2.7,0.9,4.5c0.3,1.8,0.7,3.9,1.1,6.2c0.4,2.4,0.8,5,1.2,7.9
			c0.4,2.9,0.8,6.1,1.2,9.5c0.8,6.9,1.4,14.8,1.9,23.7c0.8,17.8,0.4,39.5-2.9,64.1c-0.8,6.1-1.9,12.4-2.5,19
			c-0.6,6.5-0.6,13.3,0.6,20c1.2,6.8,3.3,13.6,5.4,20.6c2.1,7,4.3,14.1,6.5,21.4c1.1,3.6,2.2,7.3,3.4,11c1.1,3.7,2.3,7.5,3.3,11.3
			c2.1,7.7,3.7,15.7,5,23.8c2.6,16.3,3.7,33.3,4.4,50.8c0.7,17.5,1.2,35.4,1.5,53.7c0.3,18.3,0.4,37.1,0.9,56.1
			c0.5,19,1.2,38.4,2.8,57.9c0.3,4.9,0.9,9.8,1.3,14.7c0.5,4.9,1,9.8,1.9,14.6c0.8,4.8,2,9.6,3.7,14.1c1.7,4.6,4,8.8,7.1,12.6
			c3,3.8,6.7,7,11,9.3c2.1,1.1,4.4,1.9,6.7,2.5c2.5,0.5,4.9,1.1,7.4,1.6c9.8,1.9,19.8,3.4,29.8,4.5c10,1,20.1,1.7,30.2,2.1
			c10.1,0.4,20.3,0.6,30.4,0.8c10.2,0.2,20.3,0.3,30.5,0.5c5.1,0.1,10.2,0.2,15.2,0.4l7.6,0.3l3.8,0.1c1.2,0,2.5,0,3.7,0
			c5-0.1,10-0.4,15-0.8c5-0.4,10-1,14.9-1.8c1.2-0.2,2.5-0.4,3.6-0.7c0.6-0.2,1.3-0.3,1.8-0.5c0.5-0.2,1.1-0.3,1.6-0.6
			c2.2-0.9,4.1-2.2,5.7-3.9c3.3-3.4,5.3-7.9,6.5-12.6c0.6-2.3,1-4.8,1.3-7.2c0.1-1.2,0.2-2.4,0.3-3.7l0.2-3.7
			c0.1-2.5,0.2-4.9,0.3-7.4c0-2.5,0.1-4.9,0.1-7.4c0-9.9-0.3-19.7-0.6-29.5c-0.3-9.8-0.6-19.6-0.4-29.3c0-4.9,0.2-9.7,0.5-14.5
			c0.3-4.8,0.6-9.6,0.9-14.3c1.3-19,2.5-37.7,3.7-56c1.3-18.3,3.2-36.2,4.8-53.6c0.8-8.7,1.6-17.3,2.3-25.7c0.7-8.4,1.2-16.8,1.9-25
			c1.3-16.4,3.2-32.2,6.6-47.2c0.9-3.7,1.8-7.4,2.8-11c0.5-1.8,1-3.6,1.6-5.3c0.5-1.8,1-3.5,1.5-5.3c1.8-7,3.2-14,4.2-20.8
			c1.9-13.7,2.4-26.9,2-39.2c-0.3-12.4-1.7-23.9-3-34.5c-1.3-10.6-2.4-20.4-3-29.3c-1.3-17.8-0.5-31.8,1-41.2
			c0.2-1.2,0.3-2.3,0.5-3.3c0.2-1,0.4-2,0.6-2.9c0.2-0.9,0.4-1.7,0.5-2.5c0.2-0.7,0.4-1.4,0.5-2c0.6-2.4,0.9-3.6,0.9-3.6
			s-0.3,1.2-0.9,3.6c-0.1,0.6-0.3,1.3-0.5,2c-0.1,0.7-0.3,1.6-0.5,2.5c-0.2,0.9-0.4,1.9-0.6,2.9c-0.2,1-0.3,2.1-0.5,3.3
			c-1.5,9.4-2.2,23.4-0.7,41.1c0.7,8.9,1.9,18.6,3.3,29.2c1.4,10.6,2.9,22.2,3.3,34.6c0.5,12.4,0.1,25.6-1.7,39.5
			c-0.9,6.9-2.3,13.9-4.1,21.1c-0.4,1.8-0.9,3.5-1.4,5.3c-0.5,1.8-1,3.6-1.5,5.3c-1,3.6-1.9,7.2-2.8,10.9c-3.3,14.8-5.1,30.6-6.4,47
			c-0.6,8.2-1.1,16.5-1.7,25c-0.6,8.5-1.4,17.1-2.2,25.8c-1.6,17.4-3.4,35.2-4.6,53.5c-1.2,18.3-2.3,37-3.5,56
			c-0.3,4.8-0.6,9.5-0.9,14.3c-0.3,4.8-0.4,9.6-0.5,14.4c-0.1,9.6,0.2,19.4,0.5,29.2c0.3,9.8,0.6,19.7,0.6,29.6c0,2.5-0.1,5-0.1,7.5
			c-0.1,2.5-0.1,5-0.3,7.5l-0.2,3.7c-0.1,1.3-0.2,2.5-0.3,3.8c-0.3,2.5-0.7,5.1-1.3,7.6c-1.3,5-3.4,10-7.2,13.8
			c-1.9,1.9-4.1,3.5-6.6,4.5c-0.6,0.3-1.3,0.5-1.9,0.7c-0.7,0.2-1.2,0.3-1.9,0.5c-1.4,0.3-2.5,0.5-3.8,0.7c-5,0.8-10.1,1.4-15.1,1.9
			c-5.1,0.5-10.1,0.8-15.2,0.8c-1.3,0-2.6,0-3.9,0L412,679l-7.6-0.3c-5.1-0.1-10.1-0.3-15.2-0.4c-10.1-0.1-20.3-0.3-30.5-0.4
			c-10.2-0.2-20.3-0.4-30.5-0.8c-10.2-0.5-20.3-1.1-30.4-2.2c-10.1-1.1-20.2-2.6-30.1-4.6c-2.5-0.5-4.9-1.1-7.4-1.6
			c-2.6-0.6-5.1-1.5-7.4-2.7c-4.7-2.4-8.6-6-11.8-10c-3.2-4-5.7-8.6-7.5-13.4c-1.8-4.8-3-9.7-3.8-14.7c-0.8-4.9-1.4-9.9-1.9-14.8
			c-0.4-4.9-0.9-9.8-1.3-14.7c-1.5-19.6-2.2-39-2.7-58c-0.4-19.1-0.5-37.8-0.7-56.1c-0.2-18.3-0.6-36.3-1.2-53.7
			c-0.6-17.4-1.7-34.4-4.1-50.6c-1.2-8.1-2.8-16-4.8-23.6c-1-3.8-2.1-7.6-3.2-11.3c-1.1-3.7-2.2-7.4-3.3-11.1
			c-2.2-7.3-4.3-14.4-6.4-21.4c-2.1-7-4.2-13.8-5.3-20.8c-1.2-6.9-1.1-13.8-0.4-20.4c0.7-6.6,1.8-12.9,2.6-19
			c3.5-24.5,4.1-46.1,3.4-63.9c-0.3-8.9-0.9-16.8-1.7-23.7c-0.3-3.4-0.8-6.6-1.1-9.5c-0.4-2.9-0.8-5.5-1.1-7.9
			c-0.4-2.3-0.7-4.4-1-6.2c-0.3-1.8-0.6-3.3-0.8-4.5C194.4,134.3,194.1,133,194.1,133z"/>
	</g>
	<g>
		<path d="M194.8,282.2c0,0,19.2-0.3,48.1-0.8c14.4-0.3,31.3-0.7,49.3-1c18-0.5,37.3-0.9,56.5-1.4c19.2-0.6,38.5-1.2,56.5-1.8
			c9-0.2,17.7-0.5,26-0.6c8.3-0.2,16.1-0.3,23.3-0.5c7.2-0.1,13.8-0.2,19.7-0.3c5.9-0.1,11-0.2,15.2-0.2c8.4-0.1,13.2-0.1,13.2-0.1
			l0,0.3c0,0-4.8,0.3-13.2,0.9c-4.2,0.3-9.3,0.6-15.2,0.9c-5.9,0.3-12.5,0.7-19.7,1c-7.2,0.3-15,0.6-23.3,1c-8.3,0.4-17,0.6-26,0.9
			c-9,0.2-18.3,0.4-27.8,0.6c-9.5,0.2-19.1,0.3-28.7,0.5c-19.2,0.3-38.5,0.5-56.5,0.8c-9,0.1-17.7,0.2-26,0.2
			c-8.3,0-16.1,0.1-23.3,0.1c-28.9,0.1-48.1,0.1-48.1,0.1L194.8,282.2z"/>
	</g>
	<path class="st1" d="M512.6,127.9c-2.7,29.3-5.4,58.9-2.6,88.2c1,10.4,2.7,20.8,3.5,31.2c2.9,40.4-11.8,74.7-17.4,114
		c-1.9,13.5-2.7,27.2-3.4,40.8c-3.3,62.7-7.8,125.6-9.7,188.3c-0.6,18.2-0.6,36.3,0.7,54.4c0.9,12.3-3.4,32.7-12.9,42.8
		c-3.9,4.1-9.5,6-15,7.4c-32.9,8-158.3,5.7-188.1-1.1c-13.3-3-30-7-37-18.4c-3.7-6-4.6-13.2-5.4-20.2c-1.5-12.5-2.4-22.9-3.8-35.4
		c-6.8-60-3.8-120.5-8.5-180.7c-2-26.1-2.6-54.8-8.6-80.2c-4.9-20.7-14.7-40.3-17.4-61.5c-2.7-21.8,2.3-44.7,4.5-66.4
		c3.4-33.6-0.7-67.4-4.8-101C293.4,115.5,405.5,115.9,512.6,127.9z"/>
	<g>
		<path d="M194.3,130.4c0,0,0.2-0.3,0.4-0.8c0.1-0.3,0.3-0.6,0.5-1c0.2-0.4,0.5-0.8,0.9-1.3c1.4-1.9,3.8-4.5,7.7-6.6
			c3.9-2.1,9-3.8,15-4.8c6-1.1,12.8-1.6,20.2-2.4c7.4-0.7,15.5-1.5,24-2.2c8.5-0.7,17.5-1.4,26.8-2c9.3-0.6,18.9-1.2,28.7-1.6
			c9.8-0.4,19.7-0.9,29.6-1.2c9.9-0.3,19.9-0.5,29.7-0.6c9.8-0.2,19.4-0.1,28.7-0.1c4.7,0,9.2,0,13.7,0.1c4.5,0.1,8.9,0.2,13.1,0.2
			c8.5,0.2,16.7,0.5,24.1,1.4c3.7,0.4,7.3,1,10.6,1.7c3.3,0.8,6.5,1.6,9.4,2.6c5.8,1.9,10.6,4.3,14.3,6.6c3.8,2.1,6.3,4.8,7.1,7
			c0.4,1.1,0.5,2,0.4,2.6c0,0.3-0.1,0.5-0.1,0.7c0,0.2,0,0.2,0,0.2s0-0.1,0-0.2c0-0.2,0.1-0.4,0.1-0.7c0-0.6-0.1-1.5-0.5-2.6
			c-0.5-1.1-1.3-2.2-2.6-3.3c-1.2-1.1-2.8-2.2-4.7-3.2c-3.7-2.2-8.6-4.3-14.3-6c-5.8-1.7-12.5-2.9-19.8-3.7
			c-7.4-0.8-15.4-0.9-23.9-0.9c-8.5,0-17.5,0.1-26.8,0.1c-4.7,0-9.4,0.1-14.2,0.2c-4.8,0.1-9.6,0.2-14.5,0.2
			c-9.8,0.2-19.7,0.4-29.6,0.7c-9.9,0.3-19.8,0.6-29.6,1.1c-4.9,0.2-9.7,0.4-14.5,0.7c-4.8,0.2-9.5,0.5-14.1,0.7
			c-9.3,0.5-18.3,1.1-26.8,1.6c-8.5,0.5-16.6,1.1-24,1.7c-3.7,0.3-7.3,0.6-10.7,0.9c-3.4,0.2-6.6,0.5-9.5,1c-6,0.8-11,2.3-14.9,4.2
			c-3.8,1.9-6.4,4.3-7.8,6.1c-0.3,0.5-0.7,0.8-0.9,1.2c-0.2,0.4-0.4,0.7-0.6,1C194.5,130.1,194.3,130.4,194.3,130.4z"/>
	</g>
</g>
</svg>
