<?xml version="1.0" encoding="utf-8"?>
<!-- Generator: Adobe Illustrator 19.2.0, SVG Export Plug-In . SVG Version: 6.00 Build 0)  -->
<svg version="1.1" id="Layer_1" xmlns="http://www.w3.org/2000/svg" xmlns:xlink="http://www.w3.org/1999/xlink" x="0px" y="0px"
	 viewBox="0 0 460 261" style="enable-background:new 0 0 460 261;" xml:space="preserve">
<style type="text/css">
	.st0{fill:none;stroke:#000000;stroke-width:5;stroke-miterlimit:10;}
	.st1{opacity:0.9;fill:url(#SVGID_1_);enable-background:new    ;}
	.st2{fill:#5E2C03;}
	.st3{fill:none;stroke:#000000;stroke-width:2;stroke-miterlimit:10;}
	.st4{fill:none;}
</style>
<path class="st0" d="M6588.6-1009.6c0.3,38.5,0.2,82.4-5.7,120.5c-2.3,14.7-3.7,31.7-10.6,44.9c-9.4,17.9-18.6,35.9-34,49.5
	c-5.5,4.9-11.5,9.2-17.9,12.8c-4.2,2.3-15.3,5.1-15.9,10.8c-0.4,3.6,3.8,5.7,6.9,7.6c6.9,4.3,10.9,12.3,11.6,20.4
	c1.5,15.4-5.6,30.7-18.9,38.8c-0.8,0.5-1.6,1-1.9,1.8c-0.7,2.1,2.1,3.4,4.2,3.8c12.1,2.1,24,5,35.7,8.7c7.7,2.4,24.3,10.6,12,18.5
	c-7.7,4.9-17,6.2-26,7.3c-24.7,3.1-49.7,6.2-74.5,3.9c-5.6-0.5-11.2-1.4-16.8-2.2l-22.5-3.3c-5.3-0.8-11.8-2.7-12.7-7.9
	c-1.7-10.2,16.6-15.1,23.6-17.2c4.9-1.5,36.5-4.6,35.6-9.3c-0.5-2.4-2.8-3.9-4.8-5.4c-8.9-6.4-15-16.4-16.6-27.2s1.3-22.2,7.9-30.9
	c2.2-2.9,4.9-6,4.4-9.6c-0.2-1.5-1-2.9-2-4.1c-5.1-6.7-15.9-9.5-22.8-14.7c-7.9-6-15.2-12.8-21.6-20.4
	c-12.5-14.5-22.1-31.5-27.6-49.9c-5.2-17.2-6.9-35.3-8.2-53.2c-2.3-31-3.6-62-3.8-93.1c20.2-2.4,42-1.8,62.4-1.4
	C6480.9-1009,6588.6-1011.7,6588.6-1009.6L6588.6-1009.6z"/>
<path d="M6462-694.7v1.9c0,0.6,0.1,1.3,0.6,1.9c0.4,0.6,1.2,0.8,2.2,0.8c2.1-0.1,4.5-0.2,7.1-0.2c1.3,0,2.7-0.1,4-0.1
	c1.4-0.1,2.8-0.1,4.1-0.2c1.4-0.1,2.8-0.1,4.1-0.2c1.4-0.1,2.7-0.1,4-0.2c2.6-0.1,5-0.2,7.1-0.3c2-0.1,3.7-0.6,4.6-1.3
	c0.4-0.4,0.7-0.8,0.8-1.1c0.1-0.3,0.2-0.5,0.2-0.5v0.5c-0.1,0.3-0.2,0.8-0.6,1.3s-1.1,1-1.9,1.4c-0.8,0.4-1.8,0.7-2.8,0.8
	c-2.1,0.4-4.5,0.7-7.1,0.9c-1.3,0.1-2.7,0.3-4,0.4c-1.4,0.1-2.8,0.2-4.2,0.2c-1.4,0-2.8,0.1-4.2,0.1h-4.1c-2.6-0.1-5.1-0.2-7.2-0.4
	c-0.5-0.1-1.1-0.1-1.6-0.4s-0.9-0.7-1.1-1.1c-0.4-0.9-0.4-1.7-0.3-2.3c0.1-0.6,0.2-1.1,0.3-1.4C6461.9-694.5,6462-694.7,6462-694.7
	L6462-694.7z M6461.6-779.3c0,0,0.6,0.2,1.6,0.5c0.5,0.2,1.2,0.3,1.9,0.5s1.6,0.4,2.4,0.5c0.9,0.2,1.9,0.3,2.9,0.5
	c1,0.1,2.1,0.2,3.3,0.3c1.1,0.1,2.3,0.1,3.5,0.2h3.6c1.2,0,2.5,0,3.7-0.1c1.2,0,2.4-0.1,3.6-0.1c2.3-0.1,4.5-0.1,6.3-0.3
	s3.2-0.6,4.1-1.2c0.4-0.3,0.8-0.6,1-0.8l0.3-0.3c0,0-0.1,0.1-0.2,0.4c-0.2,0.3-0.4,0.6-0.8,1c-0.8,0.8-2.3,1.6-4.2,2
	c-0.9,0.2-2,0.4-3,0.5c-1.1,0.1-2.2,0.3-3.3,0.4l-3.6,0.3c-1.2,0.1-2.5,0.1-3.7,0.2c-1.3,0-2.5,0-3.7-0.1c-0.6,0-1.2-0.1-1.8-0.1
	c-0.6-0.1-1.2-0.1-1.8-0.2c-1.2-0.1-2.3-0.4-3.4-0.6c-0.5-0.1-1-0.3-1.5-0.4c-0.5-0.2-1-0.3-1.4-0.4c-1.8-0.6-3.2-1.3-4.2-1.8
	C6462.2-779,6461.6-779.3,6461.6-779.3L6461.6-779.3z M6411.5-677.2l0.3,0.3c0.2,0.2,0.5,0.4,1,0.6c0.9,0.5,2.3,1,4.2,1.4
	c1.9,0.4,4.2,0.7,6.8,1.1c2.6,0.4,5.6,0.7,8.9,1.1c3.3,0.3,6.8,0.7,10.6,1c3.7,0.3,7.7,0.5,11.8,0.7c8.2,0.3,17,0.5,25.7,0.6
	c4.4,0.1,8.8,0.1,13.1,0.2c4.3,0,8.5,0.1,12.6,0c4.1-0.1,8-0.4,11.7-0.8c3.7-0.5,7.2-1.1,10.4-1.7c6.4-1.4,11.6-3,15.2-4.3
	c1.8-0.7,3.2-1.2,4.2-1.6l1.5-0.6c0,0-0.5,0.2-1.4,0.7c-0.9,0.4-2.3,1.1-4.1,1.8c-3.5,1.5-8.7,3.5-15.1,5.1
	c-6.4,1.6-14.1,2.9-22.3,3.2c-4.1,0.2-8.4,0.2-12.7,0.2c-4.3,0-8.7-0.1-13.1-0.1c-4.4-0.1-8.8-0.2-13.1-0.3
	c-4.3-0.1-8.6-0.4-12.7-0.6c-4.1-0.3-8.1-0.6-11.8-1c-3.8-0.4-7.3-0.8-10.6-1.3c-1.6-0.3-3.2-0.5-4.7-0.7c-1.5-0.3-2.9-0.5-4.2-0.8
	c-2.6-0.5-4.9-1-6.8-1.5s-3.3-1.1-4.1-1.7c-0.4-0.3-0.7-0.5-0.9-0.7C6411.6-677.1,6411.5-677.2,6411.5-677.2L6411.5-677.2z"/>
<linearGradient id="SVGID_1_" gradientUnits="userSpaceOnUse" x1="6378.7998" y1="1212.7887" x2="6584.7002" y2="1212.7887" gradientTransform="matrix(1 0 0 -1 0 325)">
	<stop  offset="1.800000e-02" style="stop-color:#801FE3"/>
	<stop  offset="1" style="stop-color:#B7A7FF"/>
</linearGradient>
<path class="st1" d="M6378.8-981.4c1.4,24.4,2.7,48.8,4.1,73.2c0.4,7.9,0.9,15.9,2.2,23.7c1.8,11.1,5.4,21.8,8.9,32.5
	c3,9.1,6,18.2,11.1,26.3c17.8,28.1,51.5,32.7,81.9,31.3c10.6-0.5,21.3-1.5,31.5-4.7c66.9-21.3,65.2-117,66.1-172.7
	c0-2.6,0.1-5.1,0.1-7.7C6516-977.3,6447.2-975.5,6378.8-981.4L6378.8-981.4z"/>
<path d="M6373.7-1001.1c0,0,0.6,8.1,1.5,22.2c0.5,7.1,1,15.6,1.7,25.5c0.6,9.8,1.4,20.9,2.1,33.1c0.4,6.1,0.7,12.4,1.3,18.9
	c0.5,6.5,1.4,13.2,3,19.9s3.7,13.5,6,20.4c2.4,6.9,4.5,14,7.5,20.9c0.8,1.7,1.5,3.4,2.4,5.1c0.9,1.6,1.8,3.3,2.8,4.8
	c1.1,1.6,2.2,3.1,3.4,4.7c1.2,1.4,2.5,2.8,3.7,4.3c5.3,5.5,11.7,10,18.8,13.2c7.1,3.3,14.8,5.4,22.6,6.6c7.9,1.3,15.9,1.7,23.9,1.7
	c8-0.1,16.1-0.4,24-1.5c3.9-0.5,7.9-1.2,11.7-2.2c1-0.3,1.9-0.5,2.8-0.8l0.7-0.2h0.1l0.2-0.1l0.4-0.1l1.4-0.5l2.8-1
	c0.5-0.2,0.9-0.3,1.4-0.5l1.3-0.6c7.1-3.1,13.7-7.4,19.4-12.5c5.7-5.1,10.5-11.1,14.4-17.5c4-6.3,7.1-13.1,9.7-19.8
	c2.6-6.8,4.6-13.6,6.3-20.3c3.2-13.5,5-26.5,6.2-38.5c1.1-12.1,1.7-23.2,2-33c0.3-9.9,0.5-18.4,0.7-25.5c0.2-14.2,0.4-22.2,0.4-22.2
	s0,2,0.1,5.8c0,3.8,0.1,9.4,0.2,16.4c0,7.1,0,15.7-0.2,25.5c-0.1,9.9-0.5,21-1.5,33.1c-1,12.1-2.6,25.2-5.7,38.9
	c-1.6,6.8-3.6,13.7-6.1,20.6c-2.5,6.9-5.7,13.8-9.8,20.3c-4,6.5-9,12.7-14.8,18.1c-5.9,5.4-12.7,9.8-20.2,13.1l-1.4,0.6
	c-0.5,0.2-0.9,0.4-1.4,0.5l-2.8,1l-1.4,0.5l-0.4,0.1l-0.2,0.1l-0.2,0.1l-0.7,0.2c-1,0.3-2,0.6-2.9,0.8c-3.9,1-8,1.8-12,2.4
	c-8.1,1.1-16.2,1.5-24.4,1.6c-8.2,0-16.3-0.5-24.4-1.8c-8-1.3-16-3.5-23.3-7c-7.4-3.4-14.1-8.1-19.6-13.9c-1.3-1.5-2.6-3.1-3.9-4.6
	c-1.1-1.6-2.2-3.2-3.3-4.7c-2.2-3.4-3.9-6.8-5.4-10.4c-3-7.1-5.2-14.2-7.5-21.2c-2.2-7-4.3-13.9-5.8-20.7
	c-1.6-6.9-2.4-13.6-2.8-20.2c-0.5-6.6-0.7-12.9-1-18.9c-0.6-12.1-1.1-23.2-1.6-33.1s-0.8-18.4-1.2-25.5
	C6374-993.1,6373.7-1001.1,6373.7-1001.1L6373.7-1001.1z"/>
<path d="M6374.1-985.7c0,0,0.8,0,2.4,0.1s3.8,0.2,6.7,0.3c2.9,0.2,6.4,0.3,10.5,0.5c4,0.2,8.6,0.3,13.6,0.5s10.4,0.3,16.1,0.5
	s11.7,0.2,17.9,0.4c6.2,0.1,12.6,0.1,19.2,0.2c6.5,0.1,13.2,0,19.8,0.1c6.6,0,13.3,0,19.8-0.1s13-0.1,19.2-0.2
	c12.5-0.1,24.1-0.2,34-0.3c10-0.1,18.3-0.1,24.1-0.1h9.1c0,0-0.8,0.1-2.4,0.2c-1.6,0.1-3.8,0.2-6.7,0.4c-5.8,0.3-14.1,0.8-24.1,1.3
	s-21.6,0.9-34,1.3c-6.2,0.1-12.7,0.4-19.2,0.4c-6.5,0.1-13.2,0.1-19.8,0.2c-6.6,0-13.3,0-19.8-0.2c-6.5-0.1-13-0.3-19.2-0.4
	c-6.2-0.2-12.3-0.4-18-0.8c-2.9-0.2-5.6-0.3-8.3-0.5c-2.7-0.2-5.3-0.4-7.8-0.5c-2.5-0.2-4.9-0.3-7.1-0.5c-2.3-0.2-4.4-0.4-6.4-0.6
	c-4-0.4-7.6-0.7-10.4-1c-2.9-0.3-5.2-0.6-6.7-0.7C6374.9-985.6,6374.1-985.7,6374.1-985.7L6374.1-985.7z"/>
<path class="st2" d="M324.2,62.7c-18.1,0.9-38.5,1.4-56.6,2.2c-8.6,0.4-17.3,0.8-25.9,0.6c-10-0.2-20-1.2-30-1.9
	c-24.5-1.8-48-1.3-72.5,0.3c-0.3,11.8-0.6,23.8,2.6,35.1c2.3,8.3,6.5,17,3.6,25.1c-0.6,1.8-1.6,3.5-1.4,5.4c0.4,3.1,2,5,2,8.4
	c0,4.2,0,8.4,0.1,12.6c0,2.1,0,4.2-0.8,6.1c-0.5,1.2-1.4,2.3-1.2,3.6c0.1,0.9,0.7,1.8,1.1,2.6c1.1,2.2,1.2,4.8,1.3,7.3
	c0.1,2.4,0.3,4.9,0.5,7.2c0.2,2.2-1,4.4-1.3,6.6c-0.5,3.8,1.9,7,2.4,10.6c0.6,4.4,0.6,9.2,0.5,13.7c0,9.3,1.4,18.3,2,27.6
	c0.1,1.1,0.1,2.3,0.6,3.4c0.7,1.6,2.1,2.7,3.5,3.8c5,3.9,10.2,7.8,16.1,10.1c5.6,2.1,11.6,2.7,17.5,3.2c8.8,0.8,17.6,1.6,26.5,1.7
	c13.9,0.2,27.8-1.3,41.8-0.8c4.1,0.2,8.3,0.5,12.4-0.3c2.6-0.5,5-1.4,7.4-2.3c4.4-1.7,8.9-3.3,13.3-5c6.8-2.6,14.1-5.4,18.2-11.5
	c6-8.9,3.1-20.7,4-31.4c0.5-5.1-0.5-6.4-0.5-11.5c0-1.7,0-3.5,0.8-4.9c0.5-1,1.5-1.9,1.5-3.1c0-0.9-0.4-1.6-0.8-2.4
	c-1.1-2.8-1.7-17.4,0.4-20.9c0.8-1.3,2.8-2.8,3-4.4c0.3-1.9-1.5-4.1-2-5.9c-0.8-2.9,0.9-9.5,1.7-12.4c1.4-5,5-3,3-8.5
	c-2.7-7.4,0.5-18,1.5-25.4c1-7.1,1.8-11.6,3.1-18.7C323.9,87.1,326.7,62.6,324.2,62.7L324.2,62.7z M152.6,112.8
	c0.6-3.6,3.5-3.5,3.9,0.3c0.5,4.2,0.2,8.4-0.1,12.6c-0.1,0.8-0.2,1.7-0.8,2c-0.7,0.4-1.7,0-2.1-0.7s-0.5-1.6-0.5-2.4
	C152.9,120.9,152,116.5,152.6,112.8L152.6,112.8z M153.2,138.2c0.5-3.1,2.5-4,3.8-0.2c1.7,4.9,1.5,10.2,1.3,15.3
	c0,0.6-0.1,1.4-0.7,1.6c-0.2,0.1-0.5,0.1-0.8,0.1c-1.2,0-2.6-0.1-3.4-1c-0.7-0.8-0.7-2-0.7-3C153,146.9,152.6,142.4,153.2,138.2
	L153.2,138.2z M159.9,208.6c-1.6,0.1-3.1-0.7-4.5-1.4c-0.5-0.2-1-0.5-1.3-0.9c-0.6-0.7-0.6-1.7-0.6-2.6v-10.3c0-0.7,0-1.4,0.5-1.8
	c0.6-0.5,1.5-0.3,2.2-0.1C162.6,193.5,159.9,203.3,159.9,208.6L159.9,208.6z M160.6,187.5c-1.5-0.5-3.1-1-4.4-1.8
	c-1.4-0.9-2.5-2.1-2.9-3.7c-0.2-0.8-0.1-1.7-0.1-2.6c0.3-4.7,0.6-9.3,0.8-14c0-0.6,0.1-1.2,0.5-1.6c0.2-0.2,0.4-0.3,0.7-0.4
	C163.3,160.3,160.5,183.5,160.6,187.5z M165.6,113.5c2.1-2.5,4.5-0.1,5.4,2.3c1,2.5,1.6,5.1,1.8,7.7c0.2,2,0,4.4-1.8,5.3
	c-0.7,0.4-1.4,0.5-2.2,0.5c-0.6,0-1.3,0-1.9-0.3c-1.1-0.5-1.8-1.6-2.1-2.7c-0.3-1.2-0.2-2.4-0.1-3.6
	C164.8,120.6,164.1,115.2,165.6,113.5L165.6,113.5z M165.4,139.6c1.5-6.1,5.7-1.3,6.9,2.5c0.3,1,0.4,2.1,0.5,3.1
	c0.3,3.9,0.5,7.8-0.3,11.6c-0.1,0.5-0.3,1.1-0.7,1.3c-0.3,0.2-0.7,0.1-1,0.1c-1.4-0.2-2.9-0.4-4.3-0.7c-0.4-0.1-0.7-0.2-1-0.4
	c-0.2-0.3-0.3-0.6-0.3-1C164.8,150.8,164.2,144.6,165.4,139.6L165.4,139.6z M172.6,211.5c-1.2-0.5-2.5-1-3.7-1.5
	c-0.9-0.4-1.8-0.8-2.3-1.6c-0.3-0.6-0.3-1.4-0.3-2.1c0.1-2.5-0.4-9.3,1.7-11.1c2.4-2.1,5.1,0.5,5,3.1
	C172.8,202.8,172.7,207.1,172.6,211.5L172.6,211.5z M174.8,184.6c0,0.5,0,1.1-0.3,1.5c-0.2,0.3-0.5,0.6-0.9,0.8
	c-2.3,1.4-5.6,1.6-7.4-0.5c-1.3-1.5-1.3-3.8-1.1-5.8c0.2-3.4-0.2-15.4,5.7-14.6C175.9,166.8,174.9,180.9,174.8,184.6L174.8,184.6z
	 M230.5,160l0.3-7.8c0.1-3.2,0.4-6.7,2.4-9.2c0.3-0.3,0.6-0.7,1-0.8c3.3-1.7,5.9,3.5,6.1,5.9c0.2,3.4,0.5,6.7,0.7,10.1
	c0,0.7,0.1,1.4-0.2,2c-0.5,1-1.8,1.3-2.8,1.4c-2,0.2-4,0.3-6.1,0.1c-0.4,0-0.9-0.1-1.1-0.4C230.4,160.7,230.4,160.3,230.5,160z
	 M187.4,216c-0.7,0.2-1.5,0.3-2.2-0.1c-0.6-0.4-0.9-1.2-1-1.9c-1.2-5.1-2.5-10.2-3.7-15.2c-0.1-0.4-0.2-0.9-0.2-1.3
	c0-3.9,5.1-3.2,7.5-2.5c3.6,1,4.5,3.1,4.6,7l0.3,12.8C191,215.2,189.2,215.6,187.4,216L187.4,216z M195.3,184.7
	c-0.9,1.5-3.1,1.5-4.8,1.3c-0.8-0.1-1.7-0.2-2.5-0.3c-0.3,0-0.7-0.1-1-0.3c-0.5-0.3-0.6-1-0.7-1.6c-0.4-3.8-2.7-11.7,0.5-14.8
	c3.8-3.7,8.8-0.2,8.8,4.3v8.7C195.8,183.1,195.8,184,195.3,184.7L195.3,184.7z M196.3,157.6c-0.4,0.9-0.9,1.7-1.7,2.3
	c-1.5,1.1-3.7,0.8-5.1-0.4s-2.2-3-2.5-4.8s-0.2-3.6-0.4-5.5c-0.1-2-0.4-4,0-5.9c0.8-3.4,4-4.9,7.1-3.3c1.9,1,3.9,2.2,4.6,4.2
	c0.3,0.7,0.3,1.5,0.3,2.3C198.9,150.3,198,154.1,196.3,157.6L196.3,157.6z M199.1,128.9c-0.6,1.4-2,2.2-3.5,2.4s-2.9-0.1-4.3-0.5
	c-0.4-0.1-0.8-0.2-1.1-0.4c-0.7-0.5-0.8-1.4-0.9-2.3c-0.3-3.2-2.4-10.5-1-13.4c1.3-2.8,8-3,9.8-0.6c0.7,1,0.9,2.3,0.9,3.5
	c0.2,2.9,0.3,5.8,0.4,8.6C199.5,127.2,199.5,128.1,199.1,128.9z M212.9,214.5c-3,3.1-7.2,0.5-8-2.9c-1.2-5.1-1.5-10.5-1-15.7
	c0-0.5,0.1-1,0.5-1.3c0.3-0.2,0.7-0.2,1.1-0.2c1.1,0,2.2,0.1,3.2,0.1c1.7,0,3.7,0.2,4.7,1.7c0.5,0.8,0.6,1.9,0.6,2.9
	C214,202.7,215.7,211.5,212.9,214.5L212.9,214.5z M210.6,188.8c-0.9,0-1.8,0.1-2.7-0.3c-1.1-0.5-1.7-1.7-1.9-2.9s0-2.4,0.2-3.6
	c0.5-3.5-0.2-9.2,1.2-12.3c1.5-3.2,5.8-1.6,8.8-1.4c0.5,6.5,0.9,12.9,1.4,19.4C215.4,188.5,213,188.7,210.6,188.8z M220.1,151.3
	c0,2.3-0.1,4.6-0.1,6.9c0,0.6,0,1.3-0.3,1.8c-0.6,1.3-2.3,1.8-3.7,2.1c-2.1,0.4-4.5,0.8-6.1-0.6c-1.4-1.2-1.6-3.3-1.6-5.2
	c-0.1-3.8,0.2-7.6,0.8-11.4c0.2-1.3,0.7-3,2-3.3c2.9-0.7,7.2,0.8,8.4,3.6C220.1,147.2,220.1,149.3,220.1,151.3L220.1,151.3z
	 M220.9,126.1c-0.5,5.5-1.5,5.7-6.6,5.9c-0.6,0-1.2,0.1-1.7-0.1c-0.7-0.3-1-1.2-1.1-2c-1-4.9-1.3-10-1-15c0.3-4.8,12.1-6.2,11.8,1.1
	C222.2,119.4,221.2,122.8,220.9,126.1L220.9,126.1z M236.8,216.3c-0.3,0.4-0.8,0.5-1.2,0.7c-1,0.4-2.1,0.8-3.1,1.1
	c-1.7,0.6-3.7,1.2-5.1,0c-1-0.8-1.2-2.2-1.4-3.5c-0.9-7-4.8-18.6,6-18c1.1,0.1,2.4,0.3,3,1.2c0.4,0.5,0.5,1.2,0.6,1.8
	c0.8,4.9,1.3,9.8,1.6,14.8C237.2,215.2,237.2,215.9,236.8,216.3z M241.2,190.6c0,0.2,0,0.4-0.2,0.5c-0.2,0.2-0.5,0.2-0.8,0.2
	c-2.6-0.1-5.2-0.2-7.7-0.3c-0.8,0-1.7-0.1-2.4-0.4c-2.2-1-2.5-4-2.4-6.5c0.1-4.7-0.1-9.6,0.4-14.3c3.2-0.2,6.6-0.3,9.8-0.5
	c0.6,0,1.1,0,1.6,0.2c1.2,0.5,1.5,2.1,1.6,3.4C241.7,178.8,241.7,184.7,241.2,190.6L241.2,190.6z M242.5,130.9
	c-0.1,0.4-0.2,0.9-0.5,1.2s-0.8,0.3-1.3,0.3h-4.3c-0.5,0-1,0-1.3-0.3c-0.5-0.3-0.6-1-0.7-1.6c-0.6-3.6-0.9-7.3-1.2-11
	c-0.1-1.4-0.2-2.9,0.5-4.1c2-3.3,7.3-4.9,9.2-1.1C245,118.5,243.2,126.4,242.5,130.9L242.5,130.9z M257.5,215
	c-0.1,0.9-0.3,1.8-1,2.3c-1,0.6-2.4-0.2-3.5,0.1c-1,0.2-1.7,1.2-2.7,1.1c-1.2-0.1-1.6-1.6-1.8-2.7c-0.4-2.8-0.5-5.8-1.1-8.6
	c-0.4-2-1.6-3.6-2.1-5.5c-0.6-2.5-0.3-3.8,1.9-4.6c1.3-0.5,5.8-0.9,7.2-0.4c1.9,0.7,2.6,3.1,2.9,5.2
	C257.8,206.1,257.9,210.6,257.5,215L257.5,215z M260.6,189c-2.9,0-5.8,0.1-8.7,0.1c-0.5,0-1,0-1.3-0.3s-0.4-0.7-0.4-1.1
	c-0.6-4.1-1.6-12.1,0.6-15.8c1.2-1.9,7.2-3.9,9.3-2.7c1.4,0.7,1.7,2.5,1.8,4C262.2,178.5,261.8,183.8,260.6,189z M261.7,158.5
	c0,0.4-0.1,0.9-0.4,1.2s-0.8,0.2-1.2,0.2l-3.6-0.3c-0.4,0-0.7-0.1-1-0.3c-0.4-0.3-0.5-0.7-0.6-1.1c-0.9-2.8-1.2-5.8-1.1-8.7
	c0.1-3.3,3.8-9,7.5-5.2C263.7,146.8,261.8,155.3,261.7,158.5L261.7,158.5z M265.3,128.1c-0.2,1-0.4,2.1-1.1,2.8
	c-0.8,0.8-2.1,1-3.2,1.1c-0.9,0.1-1.9,0.2-2.8-0.3c-1-0.6-1.4-1.9-1.7-3.1c-1.1-4.5-2.3-9.1-1.6-13.6c0.1-0.7,0.4-1.5,1-1.7
	c0.4-0.1,0.7,0,1.1,0.1c4.9,1.2,9.3-1.4,9.2,5.7C266.2,122.1,265.7,125.1,265.3,128.1z M291.8,166.2c5.7,2.4,2,17.6,1.3,22.1
	c0,0.2-0.1,0.4-0.2,0.6c-0.2,0.2-0.5,0.2-0.7,0.2c-1.9-0.1-4-0.3-5-1.9c-0.7-1-0.6-2.3-0.6-3.5C286.7,180.3,285.1,163.3,291.8,166.2
	L291.8,166.2z M279.4,215.6c0,0.2-0.1,0.5-0.3,0.6c-0.1,0.1-0.3,0.1-0.5,0.1c-1.5,0-2.9-0.1-4.4-0.1c-0.6,0-1.1,0-1.6-0.4
	s-0.6-1-0.8-1.6c-0.9-3.9-4.4-11.8-1.7-15.3c2.5-3.3,8.8-3.6,9.3,1.2C280.1,205.2,280,210.4,279.4,215.6z M269.8,171.2
	c3.8-0.9,8-4.1,9.2,1.3c1.1,4.9-0.1,11.6-0.5,16.6c0,0.6-0.1,1.3-0.4,1.8c-0.3,0.6-0.9,1-1.5,0.9c-0.4-0.1-0.8-0.4-1.1-0.6
	c-1.3-0.9-3-1.3-4.1-2.5c-1.4-1.5-1.5-3.7-1.5-5.8C269.8,179.1,269.8,175.2,269.8,171.2z M282.4,147.4c-0.1,3.2-0.1,6.3-0.2,9.5
	c0,0.8-0.1,1.7-0.8,2.1c-0.4,0.2-0.8,0.1-1.2,0.1c-1.1-0.1-2.3-0.2-3.4-0.3c-0.7-0.1-1.4-0.1-1.9-0.6c-0.7-0.6-0.8-1.7-0.7-2.7
	c0.1-3.8,0.2-7.6,0.3-11.3c0-0.2,0-0.5,0.2-0.7s0.4-0.2,0.7-0.2c1.7,0,5.3-0.9,6.4,0.9C282.4,145.1,282.4,146.3,282.4,147.4z
	 M285.4,118.9c-0.1,2.9-0.3,5.9-0.4,8.8c-0.1,1.6-0.2,3.2-1,4.6c-1.1,1.7-3.5,2.5-5.4,1.7c-0.3-0.1-0.6-0.3-0.8-0.5
	c-0.3-0.3-0.4-0.8-0.4-1.2c-0.6-4.7,0.8-11.8,2.6-16.1C282.2,110.7,285.6,114.4,285.4,118.9L285.4,118.9z M296.2,214.2
	c-0.2,0.2-0.5,0.3-0.8,0.4c-2.5,0.6-5.1,0.4-7.4-0.6c-0.8-0.3-2-14.1-1.6-15.4c1-3.4,6.1-4.3,8.5-1.6c0.3,0.3,0.5,0.6,0.6,1
	s0.2,0.8,0.2,1.2c0.2,4.7,0.5,9.4,0.7,14.1C296.4,213.5,296.4,213.9,296.2,214.2L296.2,214.2z M297.1,145.7
	c-0.1,3.2-0.3,6.4-0.4,9.6c-0.1,1.7-0.1,3.3-0.5,5c-0.1,0.3-0.2,0.7-0.4,0.8c-0.3,0.2-0.7,0.2-1,0.1c-1.6-0.2-3.3-0.3-4.9-0.5
	c-0.5-0.1-1.1-0.1-1.5-0.5s-0.3-1-0.3-1.6c0.2-3.4,0.5-6.8,0.8-10.2c0.5-4.8,0.9-4.5,5.7-4.8c0.8-0.1,1.8,0,2.3,0.7
	C297.1,144.6,297.1,145.2,297.1,145.7L297.1,145.7z M292.7,132.5c-0.6-0.2-1.3-0.3-1.8-0.8c-0.7-0.7-0.7-1.9-0.7-3
	c0.3-6.6-2.7-21.3,8.4-15.9c0.5,0.2,1,0.5,1.3,0.9c0.3,0.5,0.4,1.1,0.4,1.7c0.1,4.3,0,8.6-0.2,12.8c-0.1,1.2-0.2,2.5-1,3.5
	C297.6,133.5,294.9,133.1,292.7,132.5L292.7,132.5z M305.6,162.1c3.4,0.8,1.2,6.7,0.9,9.5c-0.1,1.2-0.6,13.1-0.9,13.2
	c-1.9,0.5-4,0-5.5-1.2C300,179.8,298.9,160.6,305.6,162.1z M307.5,204.8c-0.1,0.3-0.3,0.6-0.6,0.9c-1.1,1.3-2.1,2.7-3.2,4
	c-0.2,0.2-0.4,0.5-0.7,0.5c-0.5,0-0.8-0.7-0.8-1.2c-0.4-3.7-0.9-7.5-1.3-11.2c-0.1-0.4-0.1-0.9,0.1-1.3c0.2-0.5,0.7-0.8,1.1-1.1
	c1.7-1.2,2.8-3.2,4.4-1.6c1.2,1.2,1,7.6,1.1,9.4C307.6,203.7,307.7,204.3,307.5,204.8L307.5,204.8z M308.9,149.7
	c0,1.4,0.1,2.8-0.5,4.1c-0.7,1.3-2,2.2-3.3,2.7c-0.5,0.2-1.1,0.3-1.5-0.1c-0.2-0.3-0.2-0.6-0.2-0.9c0.2-3.6-0.8-12.6,1.9-15.2
	C309.8,135.9,308.9,147.6,308.9,149.7z M312.8,127.8c0,0.9-0.2,2-0.9,2.5c-1.5,1.2-3.6-0.9-5.5-0.8c-0.2-3.4,0.2-6.8,0.6-10.1
	c0.3-2.4,0.6-4.8,1.8-6.9c2.1-3.6,4.4-1.3,4.6,1.6C313.8,118.6,313,123.4,312.8,127.8z"/>
<path class="st3" d="M136.7,63.9c-0.3,11.8-0.6,23.8,2.6,35.1c2.3,8.3,6.5,17,3.6,25.1c-0.6,1.8-1.6,3.5-1.4,5.4c0.4,3.1,2,5,2,8.4
	c0,4.2,0,8.4,0.1,12.6c0,2.1,0,4.2-0.8,6.1c-0.5,1.2-1.4,2.3-1.2,3.6c0.1,0.9,0.7,1.8,1.1,2.6c1.1,2.2,1.2,4.8,1.3,7.3
	c0.1,2.4,0.3,4.9,0.5,7.2c0.2,2.2-1,4.4-1.3,6.6c-0.5,3.8,1.9,7,2.4,10.6c0.6,4.4,0.6,9.2,0.5,13.7c0,9.3,1.4,18.3,2,27.6
	c0.1,1.1,0.1,2.3,0.6,3.4c0.7,1.6,2.1,2.7,3.5,3.8c5,3.9,10.2,7.8,16.1,10.1c5.6,2.1,11.6,2.7,17.5,3.2c8.8,0.8,17.6,1.6,26.5,1.7
	c13.9,0.2,27.8-1.3,41.8-0.8c4.1,0.2,8.3,0.5,12.4-0.3c2.6-0.5,5-1.4,7.4-2.3c4.4-1.7,8.9-3.3,13.3-5c6.8-2.6,14.1-5.4,18.2-11.5
	c6-8.9,3.1-20.7,4-31.4c0.5-5.1-0.5-6.4-0.5-11.5c0-1.7,0-3.5,0.8-4.9c0.5-1,1.5-1.9,1.5-3.1c0-0.9-0.4-1.6-0.8-2.4
	c-1.1-2.8-1.7-17.4,0.4-20.9c0.8-1.3,2.8-2.8,3-4.4c0.3-1.9-1.5-4.1-2-5.9c-0.8-2.9,0.9-9.5,1.7-12.4c1.4-5,5-3,3-8.5
	c-2.7-7.4,0.5-18,1.5-25.4c1-7.1,1.8-11.6,3.1-18.7c0.3-1.6,3.1-26.2,0.6-26.1c-18.1,0.9-38.5,1.4-56.6,2.2
	c-8.6,0.4-17.3,0.8-25.9,0.6c-10-0.2-20-1.2-30-1.9C184.8,61.9,161.2,62.3,136.7,63.9L136.7,63.9z"/>
<path class="st3" d="M150.6,124.6c0,0.8,0.1,1.7,0.5,2.4s1.4,1.1,2.1,0.7c0.7-0.4,0.8-1.3,0.8-2c0.3-4.2,0.6-8.4,0.1-12.6
	c-0.4-3.8-3.3-3.9-3.9-0.3S150.4,120.9,150.6,124.6L150.6,124.6z M162.2,122.8c-0.1,1.2-0.1,2.4,0.1,3.6c0.3,1.2,1,2.3,2.1,2.7
	c0.6,0.2,1.3,0.3,1.9,0.3c0.8,0,1.5-0.1,2.2-0.5c1.7-1,2-3.4,1.8-5.3c-0.3-2.6-0.9-5.2-1.8-7.7c-0.9-2.4-3.3-4.9-5.4-2.3
	C161.7,115.2,162.4,120.6,162.2,122.8L162.2,122.8z M186.9,128.1c0.1,0.8,0.2,1.8,0.9,2.3c0.3,0.2,0.7,0.3,1.1,0.4
	c1.4,0.3,2.9,0.7,4.3,0.5s2.9-1,3.5-2.4c0.3-0.8,0.3-1.7,0.3-2.6c-0.1-2.9-0.2-5.8-0.4-8.6c-0.1-1.2-0.2-2.6-0.9-3.5
	c-1.8-2.4-8.5-2.2-9.8,0.6C184.5,117.6,186.6,124.9,186.9,128.1z M208.1,114.9c-0.3,5,0,10.1,1,15c0.2,0.8,0.4,1.6,1.1,2
	c0.5,0.2,1.1,0.1,1.7,0.1c5.1-0.2,6.1-0.5,6.6-5.9c0.3-3.3,1.3-6.7,1.4-10C220.2,108.8,208.4,110.1,208.1,114.9L208.1,114.9z
	 M231.3,115.3c-0.7,1.2-0.6,2.7-0.5,4.1c0.3,3.7,0.6,7.3,1.2,11c0.1,0.6,0.2,1.3,0.7,1.6c0.4,0.3,0.9,0.3,1.3,0.3h4.3
	c0.4,0,0.9,0,1.3-0.3c0.3-0.3,0.4-0.8,0.5-1.2c0.6-4.5,2.5-12.3,0.4-16.6C238.6,110.4,233.3,112.1,231.3,115.3L231.3,115.3z
	 M254.6,113.4c-0.4-0.1-0.7-0.2-1.1-0.1c-0.7,0.2-0.9,1-1,1.7c-0.7,4.6,0.4,9.2,1.6,13.6c0.3,1.2,0.7,2.5,1.7,3.1
	c0.8,0.5,1.8,0.4,2.8,0.3c1.2-0.1,2.4-0.3,3.2-1.1c0.7-0.7,0.9-1.8,1.1-2.8c0.5-3,1-6,1-9C263.9,112,259.5,114.6,254.6,113.4
	L254.6,113.4z M150.4,151.1c0,1.1,0,2.2,0.7,3c0.8,0.9,2.2,1.1,3.4,1c0.3,0,0.6,0,0.8-0.1c0.6-0.3,0.6-1,0.7-1.6
	c0.2-5.2,0.4-10.4-1.3-15.3c-1.3-3.8-3.4-3-3.8,0.2C150.1,142.4,150.5,146.9,150.4,151.1L150.4,151.1z M162.7,156
	c0,0.4,0.1,0.7,0.3,1c0.2,0.3,0.6,0.4,1,0.4c1.4,0.3,2.8,0.5,4.3,0.7c0.3,0,0.7,0.1,1-0.1c0.5-0.2,0.6-0.8,0.7-1.3
	c0.8-3.8,0.6-7.7,0.3-11.6c-0.1-1-0.2-2.1-0.5-3.1c-1.2-3.8-5.5-8.6-6.9-2.5C161.7,144.6,162.4,150.8,162.7,156L162.7,156z
	 M184.3,143.3c-0.4,1.9-0.1,3.9,0,5.9c0.1,1.8,0,3.7,0.4,5.5s1.1,3.6,2.5,4.8s3.6,1.5,5.1,0.4c0.8-0.6,1.3-1.4,1.7-2.3
	c1.7-3.4,2.5-7.3,2.5-11.1c0-0.8-0.1-1.6-0.3-2.3c-0.7-2-2.7-3.2-4.6-4.2C188.3,138.4,185.1,139.9,184.3,143.3L184.3,143.3z
	 M208.5,141.7c-1.3,0.3-1.8,1.9-2,3.3c-0.6,3.8-0.8,7.6-0.8,11.4c0,1.9,0.2,4,1.6,5.2c1.6,1.4,4,1.1,6.1,0.6
	c1.4-0.3,3.1-0.7,3.7-2.1c0.3-0.6,0.3-1.2,0.3-1.8c0-2.3,0.1-4.6,0.1-6.9c0-2,0.1-4.2-0.7-6C215.7,142.5,211.4,141,208.5,141.7
	L208.5,141.7z M231.7,142c-0.4,0.2-0.7,0.5-1,0.8c-2,2.5-2.3,6-2.4,9.2l-0.3,7.8c0,0.4,0,0.8,0.2,1.1c0.3,0.3,0.7,0.4,1.1,0.4
	c2,0.2,4.1,0.1,6.1-0.1c1.1-0.1,2.3-0.4,2.8-1.4c0.3-0.6,0.3-1.3,0.2-2c-0.2-3.4-0.5-6.7-0.7-10.1
	C237.6,145.5,235.1,140.3,231.7,142L231.7,142z M251.2,149.5c-0.1,2.9,0.3,5.9,1.1,8.7c0.1,0.4,0.3,0.9,0.6,1.1
	c0.3,0.2,0.7,0.3,1,0.3l3.6,0.3c0.4,0,0.9,0.1,1.2-0.2c0.3-0.3,0.4-0.8,0.4-1.2c0.1-3.3,2-11.7-0.5-14.3
	C255,140.6,251.4,146.2,251.2,149.5L251.2,149.5z M272.9,143.3c-0.2,0-0.5,0-0.7,0.2s-0.2,0.4-0.2,0.7c-0.1,3.8-0.2,7.6-0.3,11.3
	c0,1,0,2.1,0.7,2.7c0.5,0.5,1.3,0.5,1.9,0.6c1.1,0.1,2.3,0.2,3.4,0.3c0.4,0,0.8,0.1,1.2-0.1c0.7-0.3,0.8-1.3,0.8-2.1
	c0.1-3.2,0.1-6.3,0.2-9.5c0-1.1,0-2.4-0.6-3.3C278.2,142.4,274.7,143.3,272.9,143.3L272.9,143.3z M274.8,132.3
	c0.1,0.4,0.1,0.9,0.4,1.2c0.2,0.2,0.5,0.4,0.8,0.5c1.9,0.8,4.3,0,5.4-1.7c0.9-1.3,1-3,1-4.6c0.1-2.9,0.3-5.9,0.4-8.8
	c0.2-4.5-3.1-8.2-5.5-2.7C275.5,120.6,274.1,127.6,274.8,132.3L274.8,132.3z M158.2,187.5c-1.5-0.5-3.1-1-4.4-1.8
	c-1.4-0.9-2.5-2.1-2.9-3.7c-0.2-0.8-0.1-1.7-0.1-2.6c0.3-4.7,0.6-9.3,0.8-14c0-0.6,0.1-1.2,0.5-1.6c0.2-0.2,0.4-0.3,0.7-0.4
	C160.8,160.3,158.1,183.5,158.2,187.5z M157.4,208.6c-1.6,0.1-3.1-0.7-4.5-1.4c-0.5-0.2-1-0.5-1.3-0.9c-0.6-0.7-0.6-1.7-0.6-2.6
	v-10.3c0-0.7,0-1.4,0.5-1.8c0.6-0.5,1.5-0.3,2.2-0.1C160.1,193.5,157.5,203.3,157.4,208.6L157.4,208.6z M163.8,206.4
	c0,0.7,0,1.4,0.3,2.1c0.5,0.8,1.4,1.2,2.3,1.6c1.2,0.5,2.5,1,3.7,1.5c0.1-4.4,0.3-8.8,0.4-13.2c0.1-2.6-2.6-5.2-5-3.1
	C163.4,197.1,163.9,203.8,163.8,206.4L163.8,206.4z M162.7,180.6c-0.1,2-0.2,4.3,1.1,5.8c1.7,2,5.1,1.8,7.4,0.5
	c0.3-0.2,0.7-0.4,0.9-0.8c0.3-0.4,0.3-1,0.3-1.5c0.1-3.7,1.1-17.9-4-18.6C162.5,165.1,162.9,177.2,162.7,180.6L162.7,180.6z
	 M183.9,183.9c0.1,0.6,0.2,1.2,0.7,1.6c0.3,0.2,0.6,0.2,1,0.3c0.8,0.1,1.7,0.2,2.5,0.3c1.8,0.2,3.9,0.2,4.8-1.3
	c0.5-0.7,0.5-1.7,0.5-2.5v-8.7c0-4.5-5-8.1-8.8-4.3C181.2,172.3,183.5,180.1,183.9,183.9L183.9,183.9z M177.8,197.5
	c0,0.4,0.1,0.9,0.2,1.3c1.2,5.1,2.5,10.2,3.7,15.2c0.2,0.7,0.4,1.5,1,1.9s1.4,0.2,2.2,0.1l5.4-1.2L190,202c-0.1-3.9-1-5.9-4.6-7
	C183,194.3,177.9,193.6,177.8,197.5L177.8,197.5z M211.5,199c0-1,0-2.1-0.6-2.9c-0.9-1.4-2.9-1.6-4.7-1.7c-1.1,0-2.2-0.1-3.2-0.1
	c-0.4,0-0.8,0-1.1,0.2c-0.4,0.3-0.5,0.8-0.5,1.3c-0.5,5.2-0.1,10.6,1,15.7c0.8,3.4,5.1,6,8,2.9C213.2,211.5,211.5,202.7,211.5,199
	L211.5,199z M223.5,214.7c0.2,1.3,0.4,2.7,1.4,3.5c1.4,1.1,3.4,0.6,5.1,0c1-0.4,2.1-0.8,3.1-1.1c0.4-0.2,0.9-0.3,1.2-0.7
	c0.4-0.5,0.4-1.2,0.3-1.8c-0.3-5-0.8-9.9-1.6-14.8c-0.1-0.6-0.2-1.3-0.6-1.8c-0.7-0.9-1.9-1.1-3-1.2
	C218.7,196.1,222.7,207.7,223.5,214.7L223.5,214.7z M245.9,215.7c0.2,1.2,0.6,2.6,1.8,2.7c1,0.1,1.8-0.8,2.7-1.1
	c1.2-0.3,2.5,0.5,3.5-0.1c0.7-0.4,0.9-1.4,1-2.3c0.5-4.4,0.3-8.8-0.3-13.2c-0.3-2.1-1-4.4-2.9-5.2c-1.4-0.5-5.9-0.1-7.2,0.4
	c-2.2,0.8-2.5,2.1-1.9,4.6c0.5,1.9,1.7,3.5,2.1,5.5C245.4,209.9,245.5,212.8,245.9,215.7L245.9,215.7z M269.5,214.2
	c0.1,0.6,0.3,1.2,0.8,1.6c0.4,0.3,1,0.4,1.6,0.4c1.5,0,2.9,0.1,4.4,0.1c0.2,0,0.4,0,0.5-0.1c0.2-0.1,0.2-0.4,0.3-0.6
	c0.6-5.1,0.6-10.3,0.1-15.5c-0.5-4.8-6.8-4.5-9.3-1.2C265.1,202.4,268.6,210.4,269.5,214.2z M285.5,213.9c2.3,1,5,1.2,7.4,0.6
	c0.3-0.1,0.6-0.2,0.8-0.4c0.2-0.3,0.2-0.6,0.2-1c-0.2-4.7-0.5-9.4-0.7-14.1c0-0.4,0-0.8-0.2-1.2c-0.1-0.4-0.4-0.7-0.6-1
	c-2.4-2.6-7.5-1.7-8.5,1.6C283.5,199.8,284.8,213.6,285.5,213.9L285.5,213.9z M299.6,195.4c-0.4,0.3-0.9,0.6-1.1,1.1
	c-0.2,0.4-0.1,0.9-0.1,1.3c0.4,3.7,0.9,7.5,1.3,11.2c0.1,0.5,0.3,1.2,0.8,1.2c0.3,0,0.5-0.3,0.7-0.5c1.1-1.3,2.1-2.7,3.2-4l0.6-0.9
	c0.2-0.5,0.1-1,0.1-1.5c-0.2-1.8,0.1-8.1-1.1-9.4C302.3,192.2,301.3,194.2,299.6,195.4L299.6,195.4z M303.1,184.8
	c-1.9,0.5-4,0-5.5-1.2c0-3.8-1.2-23,5.5-21.4c3.4,0.8,1.2,6.7,0.9,9.5C303.9,172.8,303.4,184.7,303.1,184.8L303.1,184.8z
	 M290.7,188.3c0,0.2-0.1,0.4-0.2,0.6c-0.2,0.2-0.5,0.2-0.7,0.2c-1.9-0.1-4-0.3-5-1.9c-0.7-1-0.6-2.3-0.6-3.5
	c0.1-3.3-1.5-20.3,5.2-17.5C295,168.6,291.4,183.8,290.7,188.3L290.7,188.3z M276,189.1c0,0.6-0.1,1.3-0.4,1.8
	c-0.3,0.6-0.9,1-1.5,0.9c-0.4-0.1-0.8-0.4-1.1-0.6c-1.3-0.9-3-1.3-4.1-2.5c-1.4-1.5-1.5-3.7-1.5-5.8c0-3.9-0.1-7.8-0.1-11.8
	c3.8-0.9,8-4.1,9.2,1.3C277.6,177.4,276.4,184.1,276,189.1L276,189.1z M247.8,187.7c0.1,0.4,0.1,0.8,0.4,1.1s0.8,0.3,1.3,0.3
	c2.9,0,5.8-0.1,8.7-0.1c1.1-5.2,1.6-10.5,1.2-15.8c-0.1-1.5-0.4-3.3-1.8-4c-2.1-1.1-8.1,0.8-9.3,2.7
	C246.1,175.7,247.2,183.7,247.8,187.7L247.8,187.7z M225.2,184.1c-0.1,2.4,0.2,5.4,2.4,6.5c0.8,0.4,1.6,0.4,2.4,0.4
	c2.6,0.1,5.2,0.2,7.7,0.3c0.3,0,0.6,0,0.8-0.2c0.1-0.1,0.2-0.4,0.2-0.5c0.5-5.9,0.5-11.8,0-17.7c-0.1-1.3-0.4-2.9-1.6-3.4
	c-0.5-0.2-1.1-0.2-1.6-0.2c-3.3,0.2-6.6,0.3-9.8,0.5C225.1,174.5,225.3,179.4,225.2,184.1L225.2,184.1z M203.8,182
	c-0.2,1.2-0.4,2.4-0.2,3.6c0.2,1.2,0.8,2.4,1.9,2.9c0.8,0.4,1.8,0.3,2.7,0.3c2.4-0.1,4.8-0.3,7-1.2c-0.5-6.5-0.9-12.9-1.4-19.4
	c-3-0.2-7.3-1.8-8.8,1.4C203.6,172.8,204.3,178.5,203.8,182z M285.6,158.6c0,0.5,0,1.2,0.3,1.6c0.3,0.4,0.9,0.5,1.5,0.5
	c1.6,0.2,3.3,0.3,4.9,0.5c0.4,0,0.7,0.1,1-0.1c0.3-0.2,0.4-0.5,0.4-0.8c0.4-1.6,0.5-3.3,0.5-5c0.1-3.2,0.3-6.4,0.4-9.6
	c0-0.5,0-1.1-0.3-1.5c-0.5-0.7-1.5-0.7-2.3-0.7c-4.8,0.3-5.2,0-5.7,4.8C286.1,151.8,285.8,155.2,285.6,158.6L285.6,158.6z
	 M301,155.4c0,0.3,0,0.7,0.2,0.9c0.3,0.4,1,0.3,1.5,0.1c1.4-0.5,2.7-1.4,3.3-2.7c0.6-1.2,0.6-2.7,0.5-4.1c-0.1-2.1,0.9-13.8-3.6-9.5
	C300.1,142.8,301.2,151.8,301,155.4z M310.3,127.8c0,0.9-0.2,2-0.9,2.5c-1.5,1.2-3.6-0.9-5.5-0.8c-0.2-3.4,0.2-6.8,0.6-10.1
	c0.3-2.4,0.6-4.8,1.8-6.9c2.1-3.6,4.4-1.3,4.6,1.6C311.3,118.6,310.5,123.4,310.3,127.8z M287.8,128.8c-0.1,1-0.1,2.2,0.7,3
	c0.5,0.5,1.1,0.6,1.8,0.8c2.2,0.6,4.9,1,6.3-0.8c0.8-0.9,0.9-2.2,1-3.5c0.3-4.3,0.3-8.5,0.2-12.8c0-0.6,0-1.2-0.4-1.7
	c-0.3-0.4-0.8-0.7-1.3-0.9C285.1,107.5,288.1,122.1,287.8,128.8L287.8,128.8z"/>
<path class="st0" d="M139.5,63.7c-2.3-16.7-5.5-34.4-8.3-51c-1.2-7.1,4.1-5.5,9.6-5.8c6.3-0.3,180.2-3.3,185.5-3
	c0.8,0,1.6,0.1,2.2,0.7c0.7,0.7,0.6,1.8,0.4,2.8c-3.1,17.8-6.6,37.5-9.7,55.3"/>
<path d="M141.1,14.5c0,0,0.4,3.1,1,7.7s1.6,10.8,2.6,16.9s2.1,12.2,3,16.8c0.9,4.6,1.5,7.6,1.5,7.6l-3,0.5c0,0-0.4-3.1-1.1-7.7
	c-0.6-4.6-1.4-10.8-2-17c-0.7-6.2-1.2-12.4-1.6-17C141.3,17.6,141.1,14.5,141.1,14.5z M321.1,10.6l-8.5,52l-2.8-0.6l0.2-1.4l3,0.7
	l-0.4,1.4l-2.9-0.6L321.1,10.6L321.1,10.6z M148.5,207.5l0.3,0.3c0.2,0.2,0.5,0.6,0.9,1c0.8,0.8,2.2,1.8,4.1,2.8s4.4,1.8,7.4,2.3
	c2.9,0.5,6.3,0.8,10,1.5s7.6,2,11.6,3.4c2,0.7,4.1,1.4,6.2,1.9s4.3,0.9,6.6,1.1c4.5,0.5,9.3,0.4,14.2,0.3c4.9-0.1,9.8-0.1,14.8-0.2
	c9.9-0.1,19.8-0.2,29-0.6c1.2-0.1,2.3-0.1,3.4-0.2s2.3-0.1,3.4-0.2c2.2-0.1,4.4-0.2,6.5-0.3c4.2-0.2,8.2-0.7,11.9-1.1
	c3.7-0.5,7.1-0.9,10-1.3c3-0.4,5.6-0.7,7.7-1.1c2.1-0.4,3.8-0.7,4.9-1s1.7-0.4,1.7-0.4s-0.6,0.2-1.7,0.6c-1.1,0.3-2.7,0.8-4.9,1.3
	c-2.1,0.5-4.7,1-7.7,1.5s-6.3,1.1-10,1.6s-7.7,1.1-11.9,1.5c-4.2,0.3-8.7,0.8-13.4,1c-9.3,0.4-19.2,0.7-29.1,0.9
	c-4.9,0-9.9,0.1-14.8,0.1s-9.7,0.1-14.4-0.5c-2.3-0.3-4.6-0.7-6.8-1.3c-2.2-0.6-4.3-1.4-6.3-2.1c-4-1.5-7.7-2.9-11.3-3.7
	c-3.6-0.8-7-1.2-9.9-1.9c-3-0.7-5.5-1.6-7.4-2.7c-1.9-1-3.2-2.2-4-3.1c-0.4-0.4-0.7-0.8-0.9-1C148.6,207.6,148.5,207.5,148.5,207.5
	L148.5,207.5z M163.3,223c0,0,0.4,0.1,1.1,0.4c0.7,0.3,1.7,0.7,2.9,1.1c1.2,0.5,2.6,1,4.1,1.6c0.7,0.3,1.5,0.5,2.3,0.8
	s1.6,0.6,2.4,0.8c0.8,0.3,1.6,0.6,2.4,0.8s1.6,0.5,2.3,0.7c1.5,0.4,3,0.9,4.2,1.2c0.6,0.2,1.2,0.3,1.7,0.5c0.5,0.1,0.9,0.3,1.3,0.3
	c0.7,0.1,1.1-0.2,1.1-0.2s-0.3,0.4-1.1,0.6c-0.4,0.1-0.9,0.1-1.4,0.1s-1.1,0-1.8-0.1c-1.3-0.1-2.8-0.3-4.4-0.6
	c-0.8-0.2-1.6-0.3-2.4-0.6c-0.8-0.2-1.7-0.5-2.5-0.7c-1.6-0.6-3.3-1.2-4.7-1.9c-1.5-0.7-2.8-1.5-3.9-2.2s-2-1.4-2.6-1.8
	C163.7,223.3,163.3,223,163.3,223L163.3,223z M173.9,235.8c0,0,1.7,0,4.1,0.6c1.2,0.3,2.6,0.6,4.1,1c0.7,0.2,1.5,0.4,2.2,0.7
	c0.8,0.2,1.5,0.4,2.3,0.6c0.8,0.2,1.5,0.4,2.3,0.6c0.8,0.1,1.5,0.3,2.2,0.4c1.5,0.2,2.8,0.4,4,0.4h1.6c0.5,0,0.9-0.1,1.3-0.1
	c0.7-0.1,1.1-0.1,1.1-0.1s-0.1,0.1-0.3,0.1c-0.2,0.1-0.4,0.3-0.8,0.4c-0.3,0.2-0.7,0.3-1.2,0.5s-1,0.3-1.7,0.4
	c-1.2,0.2-2.7,0.3-4.3,0.2c-0.8-0.1-1.6-0.1-2.4-0.3s-1.6-0.3-2.4-0.5s-1.6-0.5-2.4-0.7c-0.8-0.3-1.5-0.6-2.2-0.8
	c-1.4-0.6-2.7-1.1-3.8-1.6C175.4,236.5,173.9,235.8,173.9,235.8L173.9,235.8z M202.5,230.8c0,0,1.3,0.1,3.2,0.5
	c0.9,0.2,2,0.4,3.2,0.7c1.1,0.3,2.4,0.6,3.6,0.8c1.2,0.3,2.4,0.6,3.6,0.8c0.6,0.1,1.1,0.2,1.7,0.3c0.5,0.1,1,0.2,1.5,0.2
	c0.9,0.1,1.7,0.2,2.3,0.3c0.6,0.1,0.9,0.1,0.9,0.1l-0.9,0.3c-0.3,0.1-0.6,0.2-1,0.2c-0.4,0.1-0.8,0.2-1.3,0.2
	c-1,0.1-2.1,0.1-3.4,0.1c-0.6-0.1-1.2-0.1-1.9-0.2c-0.6-0.1-1.3-0.2-1.9-0.4s-1.3-0.3-1.9-0.5l-1.8-0.6c-1.1-0.4-2.2-0.9-3-1.3
	C203.6,231.5,202.5,230.8,202.5,230.8L202.5,230.8z M211.5,243.8c0,0,1.2-0.4,3-0.7c0.9-0.2,1.9-0.3,3.1-0.4
	c1.1-0.1,2.3-0.1,3.5-0.1c0.6,0,1.2,0,1.8,0.1c0.6,0,1.2,0.1,1.7,0.1c1.1,0.1,2.2,0.3,3.1,0.5c1.8,0.3,3,0.8,3,0.8s-1.2,0.2-3,0.4
	c-0.9,0.1-1.9,0.1-3.1,0.2c-1.1,0-2.3,0.1-3.5,0c-1.2,0-2.4-0.1-3.5-0.1c-1.1-0.1-2.2-0.1-3.1-0.2
	C212.7,244.1,211.5,243.8,211.5,243.8z M237.7,235.9c0,0,1-0.4,2.6-0.7c0.8-0.2,1.7-0.3,2.6-0.5c1-0.2,2-0.3,3-0.4
	c1-0.1,2.1-0.2,3-0.3c1-0.1,1.9-0.1,2.7-0.1c1.6,0,2.7,0.1,2.7,0.1s-1,0.5-2.5,1c-0.8,0.3-1.7,0.5-2.6,0.7l-1.5,0.3
	c-0.5,0.1-1,0.1-1.6,0.2c-1.1,0.1-2.1,0.2-3.1,0.2s-1.9,0-2.7-0.1C238.7,236.2,237.7,235.9,237.7,235.9z M266.8,230.7
	c0,0,0.3-0.1,0.9-0.2c0.6-0.1,1.3-0.3,2.3-0.5c1.8-0.4,4.3-0.8,6.8-1.3s4.9-0.9,6.8-1.3c0.9-0.2,1.7-0.3,2.3-0.4
	c0.6-0.1,0.9-0.1,0.9-0.1s-1.1,0.8-2.8,1.6c-0.9,0.4-1.9,0.8-3.1,1.2c-0.6,0.2-1.2,0.4-1.8,0.5c-0.6,0.2-1.2,0.3-1.9,0.4
	c-0.6,0.1-1.3,0.2-1.9,0.3s-1.3,0.1-1.9,0.2c-1.2,0.1-2.3,0.1-3.3,0s-1.8-0.2-2.3-0.3C267.1,230.8,266.8,230.7,266.8,230.7
	L266.8,230.7z M280.5,232.7c0,0,0.3-0.1,0.7-0.2c0.4-0.1,1.1-0.3,1.8-0.4l1.2-0.3c0.4-0.1,0.9-0.2,1.3-0.3c0.9-0.2,1.9-0.4,2.8-0.7
	c1-0.2,1.9-0.5,2.8-0.7c0.4-0.1,0.9-0.2,1.3-0.3l1.2-0.3c0.7-0.2,1.4-0.3,1.8-0.5c0.4-0.1,0.7-0.1,0.7-0.1l-0.5,0.5
	c-0.3,0.3-0.9,0.7-1.5,1.1c-0.7,0.4-1.5,0.9-2.4,1.3c-0.5,0.2-0.9,0.4-1.4,0.5c-0.5,0.2-1,0.3-1.5,0.4l-1.5,0.3
	c-0.5,0.1-1,0.1-1.5,0.2c-1,0.1-1.9,0.1-2.7,0c-0.8-0.1-1.5-0.2-1.9-0.3C280.7,232.8,280.5,232.7,280.5,232.7L280.5,232.7z
	 M253.2,238.8c0,0,0.3-0.1,0.8-0.1c0.5-0.1,1.2-0.2,2.1-0.3s1.9-0.2,2.9-0.3l3.3-0.3c1.1-0.1,2.3-0.2,3.3-0.3
	c1.1-0.1,2.1-0.2,2.9-0.2c0.9-0.1,1.6-0.1,2.1-0.1h0.8c0,0-1,0.6-2.7,1.3c-0.8,0.3-1.8,0.6-2.9,0.9c-0.5,0.1-1.1,0.3-1.7,0.3
	c-0.6,0.1-1.2,0.2-1.7,0.2c-0.6,0-1.2,0.1-1.7,0.1H259c-1.1,0-2.1-0.1-3-0.3C254.3,239.2,253.2,238.8,253.2,238.8L253.2,238.8z
	 M269.2,242.8c0,0,0.3-0.1,0.7-0.3c0.5-0.2,1.1-0.4,1.9-0.6c0.8-0.2,1.6-0.5,2.6-0.7c0.9-0.3,2-0.5,3-0.8s2-0.5,3-0.7
	s1.9-0.4,2.6-0.6c0.8-0.2,1.4-0.3,1.9-0.4c0.5-0.1,0.7-0.1,0.7-0.1s-0.8,0.7-2.3,1.5c-0.7,0.4-1.6,0.8-2.5,1.2
	c-0.5,0.2-1,0.4-1.5,0.5c-0.5,0.2-1,0.3-1.6,0.5c-0.5,0.1-1.1,0.3-1.6,0.3c-0.5,0.1-1,0.2-1.5,0.2c-1,0.1-2,0.2-2.8,0.1
	C270.3,243.1,269.2,242.8,269.2,242.8L269.2,242.8z M239.5,245.7c0,0-0.1,0-0.1-0.2s0.2-0.4,0.4-0.5c0.1-0.1,0.3-0.1,0.5-0.2
	c0.1,0,0.3-0.1,0.5-0.1c0.3-0.1,0.7-0.2,1.1-0.2c0.8-0.2,1.8-0.3,2.8-0.4c1-0.1,2.2-0.2,3.3-0.3c1.1,0,2.2-0.1,3.3,0
	c1,0,2,0.1,2.9,0.2c0.8,0.1,1.5,0.1,2,0.1h0.8c0,0-0.2,0.2-0.7,0.4s-1.2,0.5-2,0.6c-0.8,0.2-1.8,0.3-2.9,0.4c-1,0.1-2.2,0.2-3.3,0.3
	h-3.3c-1,0-2-0.1-2.9-0.2c-0.4,0-0.8-0.1-1.1-0.1c-0.2,0-0.3,0-0.5-0.1H240C239.8,245.4,239.6,245.5,239.5,245.7
	C239.4,245.6,239.5,245.7,239.5,245.7L239.5,245.7z M222.2,239.7c0,0,0.3-0.1,0.7-0.2c0.5-0.1,1.2-0.3,2-0.4
	c0.8-0.1,1.8-0.1,2.9-0.1c1,0,2.2,0.2,3.2,0.3c1.1,0.2,2.2,0.4,3.2,0.7s1.9,0.5,2.7,0.8c1.6,0.5,2.6,1.1,2.6,1.1s-1.1,0.1-2.8,0.1
	c-0.8,0-1.8-0.1-2.8-0.2c-1-0.1-2.1-0.3-3.2-0.5s-2.1-0.4-3.1-0.6c-1-0.2-1.9-0.4-2.7-0.5c-0.8-0.2-1.5-0.3-1.9-0.4
	C222.4,239.8,222.2,239.7,222.2,239.7L222.2,239.7z M191.2,234.4h0.8c0.5,0,1.2,0.1,2,0.2s1.8,0.2,2.8,0.4c1,0.1,2.1,0.3,3.1,0.5
	c1.1,0.2,2.1,0.3,3.1,0.5s1.9,0.3,2.8,0.5c0.8,0.2,1.5,0.3,2,0.4c0.5,0.1,0.8,0.2,0.8,0.2s-1.1,0.4-2.8,0.5
	c-0.8,0.1-1.8,0.1-2.9,0.1c-0.5,0-1.1,0-1.6-0.1c-0.6,0-1.1-0.1-1.7-0.2c-0.6-0.1-1.1-0.2-1.6-0.3s-1.1-0.3-1.6-0.4
	c-1-0.3-1.9-0.6-2.7-1C192.1,235.1,191.2,234.4,191.2,234.4L191.2,234.4z M158.2,234.4c0,0,0.3,0,0.9,0.2s1.3,0.6,2.1,1
	c0.4,0.2,0.9,0.4,1.4,0.6c0.5,0.2,1,0.5,1.5,0.7c1.1,0.5,2.2,0.9,3.3,1.4c0.6,0.2,1.1,0.4,1.7,0.6c0.6,0.2,1.1,0.4,1.7,0.6
	c1.1,0.4,2.1,0.7,3,1s1.7,0.5,2.2,0.7s0.8,0.3,0.8,0.3s-0.3,0.1-0.9,0.1c-0.6,0.1-1.4,0.1-2.3,0.1c-0.5,0-1-0.1-1.6-0.1
	c-0.6-0.1-1.1-0.1-1.7-0.3c-0.6-0.1-1.2-0.3-1.8-0.4l-1.8-0.6c-0.6-0.2-1.2-0.5-1.8-0.8c-0.6-0.3-1.1-0.6-1.6-0.9
	c-1-0.6-2-1.3-2.7-1.9c-0.7-0.6-1.3-1.2-1.7-1.6C158.5,234.6,158.2,234.4,158.2,234.4L158.2,234.4z M190.9,244.5c0,0,1.4,0,3.6,0.2
	c1.1,0.1,2.3,0.2,3.6,0.4c1.3,0.2,2.7,0.4,4.1,0.7s2.7,0.6,4,1c1.3,0.3,2.4,0.7,3.4,0.9s1.9,0.4,2.5,0.5s1,0.1,1,0.1s-0.3,0.1-1,0.3
	c-0.6,0.1-1.5,0.3-2.6,0.3s-2.4-0.2-3.7-0.4c-1.3-0.2-2.7-0.4-4.1-0.7s-2.7-0.6-4-1c-1.3-0.3-2.5-0.7-3.5-1
	C192.2,245.1,190.9,244.5,190.9,244.5z M149.6,99c0,0,1.4-0.2,3.6-0.3c1.1-0.1,2.3-0.1,3.7-0.1c1.3,0,2.8,0.1,4.2,0.1
	c1.4,0.1,2.8,0.2,4.2,0.4c1.3,0.2,2.6,0.3,3.6,0.5c2.1,0.4,3.5,0.8,3.5,0.8s-1.4,0.2-3.6,0.3c-1.1,0.1-2.3,0.1-3.7,0.1
	c-1.3,0-2.8-0.1-4.2-0.1c-1.4-0.1-2.8-0.2-4.2-0.4c-1.3-0.2-2.6-0.3-3.6-0.5C151,99.5,149.6,99,149.6,99z M185.4,99.2h1.1
	c0.7,0,1.7,0,2.9,0.1c1.2,0,2.5,0.1,4,0.1h4.5c0.8,0,1.5,0,2.3-0.1s1.5,0,2.3-0.1c1.5,0,2.9,0,4.1,0.1s2.2,0.3,2.9,0.4
	c0.7,0.2,1.1,0.3,1.1,0.3s-0.4,0-1.1,0.1s-1.7,0.2-2.8,0.3c-1.2,0.2-2.5,0.4-4,0.5c-0.7,0.1-1.5,0.2-2.3,0.3s-1.6,0.1-2.4,0.1h-2.4
	c-0.8,0-1.6-0.1-2.3-0.2c-1.5-0.2-2.9-0.4-4-0.7C186.8,99.8,185.4,99.2,185.4,99.2L185.4,99.2z M219.1,99.5c0,0,0.4,0,1.2,0.1
	c0.4,0,0.9,0,1.4,0.1h1.8c0.6,0,1.3,0,2.1-0.1c0.7,0,1.5-0.1,2.3-0.2c1.6-0.1,3.3-0.3,5.1-0.4c0.9-0.1,1.7-0.1,2.6-0.2
	c0.9-0.1,1.7,0,2.5-0.1c1.7,0,3.2,0.1,4.5,0.4c0.7,0.1,1.3,0.2,1.8,0.4c0.5,0.1,1,0.3,1.3,0.4c0.7,0.3,1.1,0.5,1.1,0.5
	s-0.4,0-1.2-0.1h-3.2c-0.6,0-1.3,0-2.1,0.1c-0.7,0-1.5,0.1-2.3,0.2c-1.6,0.1-3.3,0.3-5.1,0.4c-0.9,0.1-1.7,0.1-2.6,0.2
	c-0.9,0.1-1.7,0-2.5,0c-1.7,0-3.2-0.1-4.5-0.4c-0.3-0.1-0.6-0.1-0.9-0.2c-0.3-0.1-0.6-0.2-0.8-0.2c-0.5-0.1-1-0.3-1.3-0.4
	C219.5,99.7,219.1,99.5,219.1,99.5L219.1,99.5z M256.5,99.4c0,0,0.4,0,1-0.1c0.7,0,1.6-0.1,2.7-0.1c1.1-0.1,2.4-0.1,3.7-0.2
	c1.4-0.1,2.8-0.1,4.3-0.2c1.5,0,2.9-0.1,4.3-0.1s2.7,0,3.8,0.1c2.2,0.1,3.7,0.4,3.7,0.4s-1.4,0.4-3.6,0.8c-1.1,0.2-2.4,0.4-3.7,0.5
	c-1.4,0.1-2.8,0.3-4.3,0.3s-3,0-4.4-0.1c-0.7,0-1.4-0.1-2-0.2l-1.8-0.3c-1.1-0.2-2-0.4-2.6-0.6C256.9,99.5,256.5,99.4,256.5,99.4
	L256.5,99.4z M288.7,98.7c0,0,0.4-0.1,1-0.1c0.6-0.1,1.6-0.1,2.7-0.2s2.4-0.1,3.7-0.2c1.4,0,2.8-0.1,4.3-0.1h8c1.1,0,2,0.1,2.7,0.1
	c0.6,0,1,0.1,1,0.1s-1.4,0.5-3.6,1c-1.1,0.2-2.4,0.4-3.7,0.6c-0.7,0.1-1.4,0.2-2.1,0.2c-0.7,0.1-1.5,0.1-2.2,0.1c-1.5,0-3,0-4.3-0.1
	c-1.4-0.1-2.7-0.3-3.8-0.5C290.1,99.2,288.7,98.7,288.7,98.7L288.7,98.7z M164.9,92.5c0,0,0.4,0.1,1.2,0.2c0.7,0.1,1.8,0.1,3.1,0.1
	s2.8,0,4.4,0.1c0.8,0,1.6,0,2.5,0.1c0.8,0,1.7,0.1,2.5,0.1s1.7,0.1,2.5,0.1s1.7,0.1,2.5,0.1c1.6,0.1,3.1,0.2,4.4,0.3
	c2.6,0.2,4.3,0.5,4.3,0.5s-1.7,0.4-4.3,0.7c-1.3,0.1-2.8,0.3-4.4,0.3c-0.8,0-1.6,0.1-2.5,0c-0.8,0-1.7,0-2.6-0.1s-1.7-0.1-2.6-0.2
	c-0.8-0.1-1.7-0.2-2.5-0.2c-0.8-0.1-1.6-0.2-2.3-0.3c-0.7-0.1-1.4-0.2-2.1-0.4c-1.3-0.2-2.3-0.6-3-0.9c-0.4-0.1-0.6-0.3-0.8-0.4
	C165,92.5,164.9,92.5,164.9,92.5L164.9,92.5z M205.4,93.2c-0.2-0.1-0.3,0-0.4,0.1s-0.1,0.3,0,0.3l-0.1-0.1c2.2-0.3,4.5-0.5,6.7-0.6
	s4.4-0.2,6.7-0.1c1.1,0,2.2,0,3.3,0.1c1.1,0.1,2.2,0.1,3.3,0.2l3.3,0.3c1.1,0.1,2.2,0.3,3.3,0.5c-1.1,0.2-2.2,0.3-3.3,0.5l-3.3,0.3
	c-1.1,0.1-2.2,0.1-3.3,0.2h-3.3c-2.2,0-4.5-0.1-6.7-0.2s-4.4-0.3-6.7-0.7h-0.1v-0.1c-0.1-0.3,0.1-0.5,0.2-0.6
	C205.1,93.1,205.3,93.1,205.4,93.2L205.4,93.2z M240.7,93.9c0,0,1.7-0.4,4.2-0.7c1.2-0.2,2.7-0.3,4.3-0.4c0.8-0.1,1.6-0.1,2.4-0.2
	c0.8,0,1.7-0.1,2.5-0.1h4.9c1.6,0,3,0.1,4.3,0.2c2.5,0.2,4.2,0.4,4.2,0.4s-1.7,0.4-4.2,0.7c-1.2,0.2-2.7,0.3-4.3,0.4
	c-0.8,0-1.6,0.1-2.4,0.2c-0.8,0-1.7,0.1-2.5,0.1h-4.9c-1.6,0-3-0.1-4.3-0.2C242.4,94.2,240.7,93.9,240.7,93.9z M275.6,93.1
	c0,0,1.5-0.4,3.6-0.6c1.1-0.1,2.4-0.3,3.7-0.4c1.4-0.1,2.8-0.2,4.3-0.2h4.3c1.4,0,2.7,0.1,3.8,0.2c2.2,0.2,3.7,0.5,3.7,0.5
	s-1.5,0.4-3.6,0.6c-1.1,0.2-2.4,0.3-3.7,0.4c-1.4,0.1-2.8,0.2-4.3,0.2h-4.3c-1.4,0-2.7-0.1-3.8-0.2
	C277.1,93.4,275.6,93.1,275.6,93.1z M308.1,91.3c0,0,0.9-0.3,2.2-0.4c1.3-0.2,3-0.3,4.7-0.2c1.7,0,3.4,0.2,4.7,0.4
	c1.3,0.2,2.2,0.5,2.2,0.5s-0.8,0.4-2.1,0.7c-1.3,0.3-3,0.5-4.7,0.5s-3.5-0.3-4.7-0.6C308.9,91.7,308.1,91.3,308.1,91.3L308.1,91.3z
	 M138.9,91.2h0.8c0.5,0,1.2,0,2.1,0.1c0.9,0,1.9,0.1,2.9,0.2l3.3,0.3c1.1,0.1,2.3,0.2,3.3,0.3c1.1,0.1,2.1,0.2,2.9,0.4
	c0.9,0.1,1.6,0.2,2.1,0.3s0.8,0.2,0.8,0.2s-1.1,0.4-2.9,0.7c-0.9,0.1-1.9,0.2-3,0.3h-1.7c-0.6,0-1.2-0.1-1.7-0.1
	c-0.6-0.1-1.2-0.1-1.7-0.2c-0.6-0.1-1.1-0.2-1.7-0.3c-1.1-0.2-2.1-0.5-2.9-0.8C139.9,91.9,138.9,91.2,138.9,91.2L138.9,91.2z
	 M147.4,85.5h0.3c0.2,0,0.4-0.1,0.8,0c0.7,0,1.6,0.1,2.7,0.4c0.5,0.1,1.1,0.3,1.7,0.4c0.6,0.1,1.2,0.2,1.9,0.3
	c1.3,0.2,2.8,0.2,4.2,0.3c1.5,0.1,3,0.3,4.3,0.4c1.4,0.2,2.7,0.4,3.8,0.6c2.2,0.4,3.7,0.8,3.7,0.8s-1.5,0.2-3.7,0.3
	c-1.1,0-2.4,0.1-3.8,0c-1.4,0-2.9-0.1-4.3-0.2c-1.5-0.1-3-0.2-4.4-0.6c-0.7-0.1-1.4-0.4-2-0.6c-0.6-0.2-1.2-0.5-1.7-0.8
	c-1-0.5-1.8-0.9-2.4-1.1C147.8,85.6,147.4,85.5,147.4,85.5L147.4,85.5z M182.4,87h16.1c2,0,4-0.1,5.9-0.1s3.6-0.1,5.1-0.1
	s2.8,0,3.7-0.1h1.4c0,0-0.5,0.2-1.3,0.4c-0.9,0.2-2.1,0.5-3.6,0.8s-3.3,0.5-5.2,0.7c-0.9,0.1-1.9,0.2-2.9,0.2c-1,0.1-2,0.1-3,0.1
	s-2,0-3-0.1c-1,0-2-0.1-2.9-0.2c-1.9-0.2-3.7-0.4-5.2-0.6c-1.5-0.2-2.7-0.5-3.6-0.7C182.9,87.2,182.4,87,182.4,87L182.4,87z
	 M225.8,86.4c0,0,1.5-0.3,3.8-0.4c1.1-0.1,2.5-0.1,3.9-0.1s3,0,4.5,0.1l4.5,0.3c1.4,0.1,2.7,0.3,3.9,0.5c2.3,0.3,3.8,0.8,3.8,0.8
	s-1.5,0.3-3.8,0.4c-1.1,0.1-2.5,0.1-3.9,0.1s-3,0-4.5-0.1l-4.5-0.3c-1.4-0.1-2.7-0.3-3.9-0.5C227.3,86.8,225.8,86.4,225.8,86.4z
	 M261,86.8c0,0,0.4-0.1,1-0.2c0.7-0.1,1.6-0.3,2.7-0.5c0.6-0.1,1.1-0.2,1.8-0.3c0.6-0.1,1.3-0.3,2-0.4c1.4-0.3,2.9-0.5,4.4-0.7
	c0.8-0.1,1.5-0.2,2.3-0.2c0.7-0.1,1.5-0.1,2.2-0.1c1.4,0,2.8,0.1,3.9,0.2c0.6,0.1,1.1,0.2,1.6,0.3s0.9,0.2,1.2,0.3
	c0.6,0.2,1,0.4,1,0.4H284c-0.7,0-1.6,0-2.7,0.1c-0.6,0-1.2,0.1-1.8,0.1c-0.6,0.1-1.3,0.2-2,0.2c-1.4,0.2-2.9,0.4-4.3,0.6
	c-1.5,0.2-3,0.4-4.4,0.5s-2.8,0.2-3.9,0.1c-0.6,0-1.1-0.1-1.6-0.1s-0.9-0.1-1.2-0.2C261.4,86.9,261,86.8,261,86.8L261,86.8z
	 M295.1,84.3h1c0.6,0,1.5,0,2.5,0.1c1,0,2.3,0.1,3.5,0.2c1.3,0.1,2.7,0.2,4,0.3c1.4,0.1,2.7,0.2,4,0.3s2.5,0.2,3.5,0.3
	s1.9,0.2,2.5,0.3s1,0.2,1,0.2s-1.4,0.4-3.5,0.7c-1,0.1-2.3,0.2-3.6,0.3h-2c-0.7,0-1.4-0.1-2.1-0.1c-0.7-0.1-1.4-0.1-2.1-0.2
	c-0.7-0.1-1.4-0.2-2-0.3c-1.3-0.2-2.5-0.5-3.5-0.8C296.4,84.9,295.1,84.3,295.1,84.3L295.1,84.3z M163.8,80.1h8.7
	c0.8,0,1.6,0,2.5,0.1c0.8,0,1.7,0,2.5,0.1c0.9,0,1.7,0.1,2.5,0.1s1.7,0.1,2.5,0.1c1.6,0.1,3.1,0.2,4.4,0.3s2.4,0.2,3.1,0.3
	c0.8,0.1,1.2,0.1,1.2,0.1s-1.7,0.4-4.3,0.7c-1.3,0.2-2.8,0.3-4.4,0.3c-0.8,0-1.6,0.1-2.5,0.1h-2.6c-0.9,0-1.7-0.1-2.6-0.1
	c-0.8,0-1.7-0.1-2.5-0.2c-1.6-0.2-3.1-0.4-4.4-0.7C165.5,80.8,163.8,80.1,163.8,80.1L163.8,80.1z M207.5,79.2c0,0,0.4,0.2,1.1,0.3
	s1.8,0,3.1-0.1s2.8-0.1,4.4-0.1h2.5c0.8,0,1.7,0,2.6,0.1c0.9,0,1.7,0.1,2.6,0.1c0.8,0,1.7,0.1,2.5,0.2c1.6,0.1,3.1,0.3,4.4,0.5
	c2.6,0.3,4.3,0.7,4.3,0.7s-1.7,0.3-4.3,0.4c-1.3,0.1-2.8,0.1-4.4,0.1h-2.5c-0.8,0-1.7,0-2.6-0.1c-0.9,0-1.7-0.1-2.6-0.1
	c-0.8,0-1.7-0.1-2.5-0.2c-1.6-0.1-3.1-0.3-4.4-0.5s-2.4-0.3-3.1-0.7c-0.4-0.1-0.6-0.3-0.8-0.4C207.6,79.3,207.5,79.2,207.5,79.2
	L207.5,79.2z M246.8,80.7c0,0,1.4-0.3,3.6-0.4c1.1-0.1,2.3-0.1,3.7-0.2h4.2c1.4,0,2.8,0.1,4.2,0.2c1.3,0.1,2.6,0.2,3.6,0.3
	c2.1,0.2,3.6,0.5,3.6,0.5s-1.4,0.4-3.6,0.6c-1.1,0.1-2.3,0.2-3.7,0.3c-1.3,0.1-2.8,0.1-4.2,0.1c-1.4,0-2.9-0.1-4.2-0.2
	c-1.3-0.1-2.6-0.3-3.6-0.4C248.2,81.1,246.8,80.7,246.8,80.7L246.8,80.7z M282,79.7c0,0,1.5-0.2,3.8-0.3c1.1,0,2.4-0.1,3.8-0.1
	s2.9,0,4.4,0.1c1.5,0,3,0.1,4.4,0.2c1.4,0.1,2.7,0.2,3.8,0.3c2.2,0.2,3.8,0.5,3.8,0.5s-1.5,0.4-3.8,0.6c-1.1,0.1-2.4,0.2-3.9,0.3
	c-0.7,0-1.4,0.1-2.2,0h-2.3c-1.5-0.1-3-0.2-4.4-0.3s-2.7-0.3-3.8-0.5C283.4,80.2,282,79.7,282,79.7L282,79.7z M139.5,77.3
	c0,0,1.2-0.1,3.1,0c0.9,0,2,0.1,3.1,0.1c1.1,0.1,2.3,0.2,3.5,0.3s2.4,0.3,3.5,0.4c1.1,0.1,2.1,0.3,3,0.5c1.8,0.3,3,0.7,3,0.7
	s-1.2,0.3-3,0.5c-0.9,0.1-2,0.1-3.1,0.1h-1.8c-0.6,0-1.2-0.1-1.8-0.1c-1.2-0.1-2.4-0.3-3.5-0.5s-2.1-0.5-3-0.8
	C140.7,77.9,139.5,77.3,139.5,77.3L139.5,77.3z M150.7,73.2c0,0,0.4,0,1,0.1s1.6,0.2,2.6,0.4c2.2,0.3,5,0.7,7.9,1.1
	c2.9,0.4,5.7,0.8,7.9,1c1.1,0.1,2,0.3,2.6,0.4c0.6,0.1,1,0.2,1,0.2s-0.4,0.1-1,0.2s-1.6,0.3-2.7,0.4c-1.1,0.1-2.4,0.2-3.8,0.1
	c-0.7,0-1.4,0-2.1-0.1c-0.7,0-1.5-0.1-2.2-0.2c-0.7-0.1-1.5-0.2-2.2-0.4c-0.7-0.1-1.4-0.3-2.1-0.5c-1.3-0.4-2.6-0.7-3.6-1.2
	c-1-0.4-1.9-0.8-2.5-1.1L150.7,73.2L150.7,73.2z M185.4,74.7c0,0,0.5,0,1.3-0.1c0.8,0,2-0.1,3.4-0.1s3-0.1,4.8-0.1s3.6-0.1,5.5-0.1
	c1.9-0.1,3.7-0.1,5.5-0.2c1.8-0.1,3.4-0.1,4.8-0.2c1.4,0,2.6-0.1,3.4-0.1h1.3c0,0-1.8,0.6-4.6,1.2c-1.4,0.3-3,0.6-4.8,0.8l-2.7,0.3
	c-0.9,0.1-1.9,0.1-2.8,0.2h-2.8c-0.9,0-1.9-0.1-2.7-0.1c-1.8-0.1-3.4-0.3-4.8-0.5s-2.6-0.4-3.4-0.6
	C185.9,74.8,185.4,74.7,185.4,74.7L185.4,74.7z M231,75.6h16c0.8,0,1.6,0,2.4-0.1c1.6,0,3.1-0.1,4.4-0.1s2.5,0.1,3.2,0.4
	c0.4,0.1,0.6,0.3,0.8,0.4c0.2,0.1,0.3,0.2,0.3,0.2s-0.4-0.1-1.1-0.2c-0.7-0.1-1.7,0.1-3,0.3c-1.2,0.3-2.7,0.5-4.3,0.7
	c-0.8,0.1-1.6,0.2-2.5,0.2c-0.8,0-1.7,0.1-2.6,0.1H242c-0.8,0-1.7-0.1-2.5-0.2c-1.6-0.1-3.1-0.4-4.4-0.6c-1.3-0.2-2.3-0.5-3-0.7
	S231,75.6,231,75.6L231,75.6z M267.7,74.8c0,0,1.4-0.4,3.5-0.7c1.1-0.2,2.3-0.4,3.6-0.5c1.3-0.2,2.7-0.3,4.2-0.4
	c1.4-0.1,2.8-0.2,4.2-0.2c1.3,0,2.6-0.1,3.7,0c2.2,0,3.6,0.2,3.6,0.2s-1.4,0.5-3.5,0.9c-1.1,0.2-2.3,0.5-3.6,0.6
	c-1.3,0.2-2.8,0.3-4.2,0.5c-1.4,0.1-2.9,0.2-4.2,0.2c-1.3,0-2.6,0-3.7-0.1C269.2,75,267.7,74.8,267.7,74.8z M299.9,74.4
	c0,0,0.3,0,0.9-0.1h5.6c1.2,0,2.4,0.1,3.7,0.1c1.3,0,2.5,0.1,3.7,0.2c1.2,0.1,2.3,0.1,3.3,0.2s1.8,0.2,2.3,0.2
	c0.6,0.1,0.9,0.1,0.9,0.1s-1.2,0.5-3.2,0.8c-1,0.2-2.1,0.3-3.3,0.4c-0.6,0-1.2,0.1-1.9,0.1H310c-1.3-0.1-2.6-0.2-3.8-0.4
	c-1.2-0.2-2.3-0.4-3.3-0.7C301.1,74.9,299.9,74.4,299.9,74.4L299.9,74.4z M142.9,67.3c0,0,1.3-0.3,3.2-0.4c0.9-0.1,2.1-0.2,3.2-0.2
	h3.7c1.3,0.1,2.5,0.1,3.7,0.3c1.2,0.1,2.3,0.3,3.2,0.4c0.9,0.2,1.7,0.4,2.3,0.5c0.5,0.2,0.8,0.3,0.8,0.3s-1.3,0.1-3.2,0.3
	c-0.9,0.1-2.1,0.2-3.2,0.2h-3.7c-1.3-0.1-2.5-0.1-3.7-0.3c-1.2-0.1-2.3-0.3-3.2-0.4C144.1,67.7,142.9,67.3,142.9,67.3L142.9,67.3z
	 M169.3,68c0,0-0.1,0.1-0.1,0.2c0.1,0.1,0.3,0.2,0.5,0.2c0.6-0.1,1.5-0.2,2.6-0.3s2.3-0.1,3.7-0.1c1.4,0,2.8,0,4.2,0.1
	c1.4,0.1,2.9,0.2,4.2,0.3c1.3,0.1,2.6,0.3,3.7,0.5c2.1,0.3,3.6,0.7,3.6,0.7s-1.5,0.3-3.6,0.4c-1.1,0.1-2.3,0.1-3.7,0.1
	c-1.4,0-2.8,0-4.2-0.1c-1.4-0.1-2.9-0.2-4.2-0.3c-1.3-0.1-2.6-0.3-3.7-0.5s-2-0.3-2.6-0.5c-0.4-0.1-0.6-0.4-0.6-0.6
	C169.1,68.1,169.2,68,169.3,68L169.3,68z M207.6,68.6c0,0,1.8-0.2,4.6-0.3h4.7c0.9,0,1.7,0,2.6,0.1c0.9,0,1.8,0.1,2.7,0.1
	c0.9,0.1,1.8,0.1,2.7,0.2c0.9,0.1,1.8,0.2,2.6,0.3c1.7,0.2,3.3,0.4,4.6,0.6c2.7,0.4,4.5,0.9,4.5,0.9s-1.8,0.2-4.6,0.3h-4.7
	c-0.9,0-1.7,0-2.6-0.1c-0.9,0-1.8-0.1-2.7-0.1c-0.9-0.1-1.8-0.1-2.7-0.2c-0.9-0.1-1.8-0.2-2.6-0.3c-1.7-0.2-3.3-0.4-4.6-0.6
	C209.4,69,207.6,68.6,207.6,68.6z M251.3,69.9c0,0,1.7-0.4,4.2-0.8c1.3-0.2,2.7-0.4,4.3-0.5c0.8-0.1,1.6-0.1,2.4-0.2
	c0.8,0,1.7-0.1,2.5-0.1h5c1.6,0,3.1,0.1,4.3,0.3c2.5,0.2,4.2,0.6,4.2,0.6s-1.7,0.3-4.2,0.6c-1.3,0.1-2.7,0.3-4.3,0.4
	c-0.8,0-1.6,0.1-2.4,0.1s-1.7,0.1-2.5,0.1h-4.9c-1.6,0-3.1,0-4.3-0.1C253,70.2,251.3,69.9,251.3,69.9L251.3,69.9z M286.6,67.7
	c0,0,0.3,0,0.9-0.1h2.4c1,0,2.1,0,3.3,0.1c1.2,0,2.5,0.1,3.8,0.2c1.3,0.1,2.6,0.2,3.8,0.3c1.2,0.1,2.3,0.2,3.3,0.3s1.8,0.2,2.3,0.3
	c0.6,0.1,0.9,0.2,0.9,0.2s-1.3,0.4-3.2,0.7c-1,0.1-2.1,0.2-3.3,0.3h-1.9c-0.6,0-1.3,0-1.9-0.1c-1.3-0.1-2.6-0.2-3.8-0.4
	c-1.2-0.2-2.3-0.4-3.3-0.7C287.8,68.2,286.6,67.7,286.6,67.7L286.6,67.7z M144.1,104.2c0,0,2.6,0.1,7.3,0.2
	c4.6,0.2,11.3,0.2,19.2,0.4c15.9,0.1,37.1,0.3,58.3,0.5c10.6,0.2,21.2,0.4,31.1,0.5c5,0,9.8,0.1,14.3,0.1s8.9,0,12.8-0.1
	c7.9-0.1,14.6-0.3,19.2-0.5s7.3-0.3,7.3-0.3s-0.7,0.1-1.9,0.2s-3,0.3-5.4,0.5c-2.3,0.2-5.1,0.4-8.3,0.6c-3.2,0.2-6.9,0.4-10.8,0.6
	c-4,0.2-8.3,0.3-12.8,0.4c-4.6,0.1-9.4,0.2-14.3,0.2c-9.9,0-20.5-0.1-31.1-0.2c-10.6-0.2-21.2-0.4-31.1-0.6
	c-9.9-0.2-19.2-0.5-27.1-0.8s-14.6-0.8-19.2-1.1c-2.3-0.2-4.1-0.3-5.4-0.4C144.7,104.3,144.1,104.2,144.1,104.2L144.1,104.2z"/>
<path class="st4" d="M180.7,226c9.5,0.6,18.9,2.9,28.4,3.8c9.5,0.9,19.5,0.3,27.9-4.3"/>
</svg>
