<svg id="Layer_1" xmlns="http://www.w3.org/2000/svg" viewBox="0 0 705 705"><style>.st0,.st1{fill:none}.st1{stroke:#000;stroke-width:5;stroke-miterlimit:10}.st2{opacity:.9;fill:url(#SVGID_1_);enable-background:new}.st3{fill:#5e2c03}.st4{fill:none;stroke:#000;stroke-width:2;stroke-miterlimit:10}</style><path class="st0" d="M122.5 0h460v705h-460V0z"/><path class="st1" d="M6711.1-565.6c.3 38.5.2 82.4-5.7 120.5-2.3 14.7-3.7 31.7-10.6 44.9-9.4 17.9-18.6 35.9-34 49.5-5.5 4.9-11.5 9.2-17.9 12.8-4.2 2.3-15.3 5.1-15.9 10.8-.4 3.6 3.8 5.7 6.9 7.6 6.9 4.3 10.9 12.3 11.6 20.4 1.5 15.4-5.6 30.7-18.9 38.8-.8.5-1.6 1-1.9 1.8-.7 2.1 2.1 3.4 4.2 3.8 12.1 2.1 24 5 35.7 8.7 7.7 2.4 24.3 10.6 12 18.5-7.7 4.9-17 6.2-26 7.3-24.7 3.1-49.7 6.2-74.5 3.9-5.6-.5-11.2-1.4-16.8-2.2l-22.5-3.3c-5.3-.8-11.8-2.7-12.7-7.9-1.7-10.2 16.6-15.1 23.6-17.2 4.9-1.5 36.5-4.6 35.6-9.3-.5-2.4-2.8-3.9-4.8-5.4-8.9-6.4-15-16.4-16.6-27.2-1.6-10.8 1.3-22.2 7.9-30.9 2.2-2.9 4.9-6 4.4-9.6-.2-1.5-1-2.9-2-4.1-5.1-6.7-15.9-9.5-22.8-14.7-7.9-6-15.2-12.8-21.6-20.4-12.5-14.5-22.1-31.5-27.6-49.9-5.2-17.2-6.9-35.3-8.2-53.2-2.3-31-3.6-62-3.8-93.1 20.2-2.4 42-1.8 62.4-1.4 52.8 1.1 160.5-1.6 160.5.5z"/><path d="M6584.5-250.7v1.9c0 .6.1 1.3.6 1.9.4.6 1.2.8 2.2.8 2.1-.1 4.5-.2 7.1-.2 1.3 0 2.7-.1 4-.1 1.4-.1 2.8-.1 4.1-.2 1.4-.1 2.8-.1 4.1-.2 1.4-.1 2.7-.1 4-.2 2.6-.1 5-.2 7.1-.3 2-.1 3.7-.6 4.6-1.3.4-.4.7-.8.8-1.1.1-.3.2-.5.2-.5v.5c-.1.3-.2.8-.6 1.3s-1.1 1-1.9 1.4-1.8.7-2.8.8c-2.1.4-4.5.7-7.1.9-1.3.1-2.7.3-4 .4-1.4.1-2.8.2-4.2.2-1.4 0-2.8.1-4.2.1h-4.1c-2.6-.1-5.1-.2-7.2-.4-.5-.1-1.1-.1-1.6-.4-.5-.3-.9-.7-1.1-1.1-.4-.9-.4-1.7-.3-2.3s.2-1.1.3-1.4c-.1-.3 0-.5 0-.5zm-.4-84.6s.6.2 1.6.5c.5.2 1.2.3 1.9.5s1.6.4 2.4.5c.9.2 1.9.3 2.9.5 1 .1 2.1.2 3.3.3 1.1.1 2.3.1 3.5.2h3.6c1.2 0 2.5 0 3.7-.1 1.2 0 2.4-.1 3.6-.1 2.3-.1 4.5-.1 6.3-.3 1.8-.2 3.2-.6 4.1-1.2.4-.3.8-.6 1-.8l.3-.3s-.1.1-.2.4c-.2.3-.4.6-.8 1-.8.8-2.3 1.6-4.2 2-.9.2-2 .4-3 .5-1.1.1-2.2.3-3.3.4l-3.6.3c-1.2.1-2.5.1-3.7.2-1.3 0-2.5 0-3.7-.1-.6 0-1.2-.1-1.8-.1-.6-.1-1.2-.1-1.8-.2-1.2-.1-2.3-.4-3.4-.6-.5-.1-1-.3-1.5-.4-.5-.2-1-.3-1.4-.4-1.8-.6-3.2-1.3-4.2-1.8-1-.6-1.6-.9-1.6-.9zM6534-233.2l.3.3c.2.2.5.4 1 .6.9.5 2.3 1 4.2 1.4 1.9.4 4.2.7 6.8 1.1 2.6.4 5.6.7 8.9 1.1 3.3.3 6.8.7 10.6 1 3.7.3 7.7.5 11.8.7 8.2.3 17 .5 25.7.6 4.4.1 8.8.1 13.1.2 4.3 0 8.5.1 12.6 0s8-.4 11.7-.8c3.7-.5 7.2-1.1 10.4-1.7 6.4-1.4 11.6-3 15.2-4.3 1.8-.7 3.2-1.2 4.2-1.6l1.5-.6s-.5.2-1.4.7c-.9.4-2.3 1.1-4.1 1.8-3.5 1.5-8.7 3.5-15.1 5.1s-14.1 2.9-22.3 3.2c-4.1.2-8.4.2-12.7.2-4.3 0-8.7-.1-13.1-.1-4.4-.1-8.8-.2-13.1-.3-4.3-.1-8.6-.4-12.7-.6-4.1-.3-8.1-.6-11.8-1-3.8-.4-7.3-.8-10.6-1.3-1.6-.3-3.2-.5-4.7-.7-1.5-.3-2.9-.5-4.2-.8-2.6-.5-4.9-1-6.8-1.5s-3.3-1.1-4.1-1.7c-.4-.3-.7-.5-.9-.7-.3-.2-.4-.3-.4-.3z"/><linearGradient id="SVGID_1_" gradientUnits="userSpaceOnUse" x1="6501.3" y1="1150.789" x2="6707.2" y2="1150.789" gradientTransform="matrix(1 0 0 -1 0 707)"><stop offset=".018" stop-color="#801fe3"/><stop offset="1" stop-color="#b7a7ff"/></linearGradient><path class="st2" d="M6501.3-537.4c1.4 24.4 2.7 48.8 4.1 73.2.4 7.9.9 15.9 2.2 23.7 1.8 11.1 5.4 21.8 8.9 32.5 3 9.1 6 18.2 11.1 26.3 17.8 28.1 51.5 32.7 81.9 31.3 10.6-.5 21.3-1.5 31.5-4.7 66.9-21.3 65.2-117 66.1-172.7 0-2.6.1-5.1.1-7.7-68.7 2.2-137.5 4-205.9-1.9z"/><path d="M6496.2-557.1s.6 8.1 1.5 22.2c.5 7.1 1 15.6 1.7 25.5.6 9.8 1.4 20.9 2.1 33.1.4 6.1.7 12.4 1.3 18.9.5 6.5 1.4 13.2 3 19.9 1.6 6.7 3.7 13.5 6 20.4 2.4 6.9 4.5 14 7.5 20.9.8 1.7 1.5 3.4 2.4 5.1.9 1.6 1.8 3.3 2.8 4.8 1.1 1.6 2.2 3.1 3.4 4.7 1.2 1.4 2.5 2.8 3.7 4.3 5.3 5.5 11.7 10 18.8 13.2 7.1 3.3 14.8 5.4 22.6 6.6 7.9 1.3 15.9 1.7 23.9 1.7 8-.1 16.1-.4 24-1.5 3.9-.5 7.9-1.2 11.7-2.2 1-.3 1.9-.5 2.8-.8l.7-.2h.1l.2-.1.4-.1 1.4-.5 2.8-1c.5-.2.9-.3 1.4-.5l1.3-.6c7.1-3.1 13.7-7.4 19.4-12.5 5.7-5.1 10.5-11.1 14.4-17.5 4-6.3 7.1-13.1 9.7-19.8 2.6-6.8 4.6-13.6 6.3-20.3 3.2-13.5 5-26.5 6.2-38.5 1.1-12.1 1.7-23.2 2-33 .3-9.9.5-18.4.7-25.5.2-14.2.4-22.2.4-22.2s0 2 .1 5.8c0 3.8.1 9.4.2 16.4 0 7.1 0 15.7-.2 25.5-.1 9.9-.5 21-1.5 33.1s-2.6 25.2-5.7 38.9c-1.6 6.8-3.6 13.7-6.1 20.6s-5.7 13.8-9.8 20.3c-4 6.5-9 12.7-14.8 18.1-5.9 5.4-12.7 9.8-20.2 13.1l-1.4.6c-.5.2-.9.4-1.4.5l-2.8 1-1.4.5-.4.1-.2.1-.2.1-.7.2c-1 .3-2 .6-2.9.8-3.9 1-8 1.8-12 2.4-8.1 1.1-16.2 1.5-24.4 1.6-8.2 0-16.3-.5-24.4-1.8-8-1.3-16-3.5-23.3-7-7.4-3.4-14.1-8.1-19.6-13.9-1.3-1.5-2.6-3.1-3.9-4.6-1.1-1.6-2.2-3.2-3.3-4.7-2.2-3.4-3.9-6.8-5.4-10.4-3-7.1-5.2-14.2-7.5-21.2-2.2-7-4.3-13.9-5.8-20.7-1.6-6.9-2.4-13.6-2.8-20.2-.5-6.6-.7-12.9-1-18.9-.6-12.1-1.1-23.2-1.6-33.1-.5-9.9-.8-18.4-1.2-25.5-.7-14.2-1-22.2-1-22.2z"/><path d="M6496.6-541.7s.8 0 2.4.1 3.8.2 6.7.3c2.9.2 6.4.3 10.5.5 4 .2 8.6.3 13.6.5s10.4.3 16.1.5 11.7.2 17.9.4c6.2.1 12.6.1 19.2.2 6.5.1 13.2 0 19.8.1 6.6 0 13.3 0 19.8-.1s13-.1 19.2-.2c12.5-.1 24.1-.2 34-.3 10-.1 18.3-.1 24.1-.1h9.1s-.8.1-2.4.2c-1.6.1-3.8.2-6.7.4-5.8.3-14.1.8-24.1 1.3s-21.6.9-34 1.3c-6.2.1-12.7.4-19.2.4-6.5.1-13.2.1-19.8.2-6.6 0-13.3 0-19.8-.2-6.5-.1-13-.3-19.2-.4-6.2-.2-12.3-.4-18-.8-2.9-.2-5.6-.3-8.3-.5-2.7-.2-5.3-.4-7.8-.5-2.5-.2-4.9-.3-7.1-.5-2.3-.2-4.4-.4-6.4-.6-4-.4-7.6-.7-10.4-1-2.9-.3-5.2-.6-6.7-.7-1.7-.4-2.5-.5-2.5-.5z"/><path class="st3" d="M446.7 506.7c-18.1.9-38.5 1.4-56.6 2.2-8.6.4-17.3.8-25.9.6-10-.2-20-1.2-30-1.9-24.5-1.8-48-1.3-72.5.3-.3 11.8-.6 23.8 2.6 35.1 2.3 8.3 6.5 17 3.6 25.1-.6 1.8-1.6 3.5-1.4 5.4.4 3.1 2 5 2 8.4 0 4.2 0 8.4.1 12.6 0 2.1 0 4.2-.8 6.1-.5 1.2-1.4 2.3-1.2 3.6.1.9.7 1.8 1.1 2.6 1.1 2.2 1.2 4.8 1.3 7.3.1 2.4.3 4.9.5 7.2.2 2.2-1 4.4-1.3 6.6-.5 3.8 1.9 7 2.4 10.6.6 4.4.6 9.2.5 13.7 0 9.3 1.4 18.3 2 27.6.1 1.1.1 2.3.6 3.4.7 1.6 2.1 2.7 3.5 3.8 5 3.9 10.2 7.8 16.1 10.1 5.6 2.1 11.6 2.7 17.5 3.2 8.8.8 17.6 1.6 26.5 1.7 13.9.2 27.8-1.3 41.8-.8 4.1.2 8.3.5 12.4-.3 2.6-.5 5-1.4 7.4-2.3 4.4-1.7 8.9-3.3 13.3-5 6.8-2.6 14.1-5.4 18.2-11.5 6-8.9 3.1-20.7 4-31.4.5-5.1-.5-6.4-.5-11.5 0-1.7 0-3.5.8-4.9.5-1 1.5-1.9 1.5-3.1 0-.9-.4-1.6-.8-2.4-1.1-2.8-1.7-17.4.4-20.9.8-1.3 2.8-2.8 3-4.4.3-1.9-1.5-4.1-2-5.9-.8-2.9.9-9.5 1.7-12.4 1.4-5 5-3 3-8.5-2.7-7.4.5-18 1.5-25.4 1-7.1 1.8-11.6 3.1-18.7.3-1.5 3.1-26 .6-25.9zm-171.6 50.1c.6-3.6 3.5-3.5 3.9.3.5 4.2.2 8.4-.1 12.6-.1.8-.2 1.7-.8 2-.7.4-1.7 0-2.1-.7s-.5-1.6-.5-2.4c-.1-3.7-1-8.1-.4-11.8zm.6 25.4c.5-3.1 2.5-4 3.8-.2 1.7 4.9 1.5 10.2 1.3 15.3 0 .6-.1 1.4-.7 1.6-.2.1-.5.1-.8.1-1.2 0-2.6-.1-3.4-1-.7-.8-.7-2-.7-3 .3-4.1-.1-8.6.5-12.8zm6.7 70.4c-1.6.1-3.1-.7-4.5-1.4-.5-.2-1-.5-1.3-.9-.6-.7-.6-1.7-.6-2.6v-10.3c0-.7 0-1.4.5-1.8.6-.5 1.5-.3 2.2-.1 6.4 2 3.7 11.8 3.7 17.1zm.7-21.1c-1.5-.5-3.1-1-4.4-1.8-1.4-.9-2.5-2.1-2.9-3.7-.2-.8-.1-1.7-.1-2.6.3-4.7.6-9.3.8-14 0-.6.1-1.2.5-1.6.2-.2.4-.3.7-.4 8.1-3.1 5.3 20.1 5.4 24.1zm5-74c2.1-2.5 4.5-.1 5.4 2.3 1 2.5 1.6 5.1 1.8 7.7.2 2 0 4.4-1.8 5.3-.7.4-1.4.5-2.2.5-.6 0-1.3 0-1.9-.3-1.1-.5-1.8-1.6-2.1-2.7-.3-1.2-.2-2.4-.1-3.6.1-2.1-.6-7.5.9-9.2zm-.2 26.1c1.5-6.1 5.7-1.3 6.9 2.5.3 1 .4 2.1.5 3.1.3 3.9.5 7.8-.3 11.6-.1.5-.3 1.1-.7 1.3-.3.2-.7.1-1 .1-1.4-.2-2.9-.4-4.3-.7-.4-.1-.7-.2-1-.4-.2-.3-.3-.6-.3-1-.4-5.3-1-11.5.2-16.5zm7.2 71.9c-1.2-.5-2.5-1-3.7-1.5-.9-.4-1.8-.8-2.3-1.6-.3-.6-.3-1.4-.3-2.1.1-2.5-.4-9.3 1.7-11.1 2.4-2.1 5.1.5 5 3.1-.2 4.5-.3 8.8-.4 13.2zm2.2-26.9c0 .5 0 1.1-.3 1.5-.2.3-.5.6-.9.8-2.3 1.4-5.6 1.6-7.4-.5-1.3-1.5-1.3-3.8-1.1-5.8.2-3.4-.2-15.4 5.7-14.6 5.1.8 4.1 14.9 4 18.6zM353 604l.3-7.8c.1-3.2.4-6.7 2.4-9.2.3-.3.6-.7 1-.8 3.3-1.7 5.9 3.5 6.1 5.9.2 3.4.5 6.7.7 10.1 0 .7.1 1.4-.2 2-.5 1-1.8 1.3-2.8 1.4-2 .2-4 .3-6.1.1-.4 0-.9-.1-1.1-.4-.4-.6-.4-1-.3-1.3zm-43.1 56c-.7.2-1.5.3-2.2-.1-.6-.4-.9-1.2-1-1.9-1.2-5.1-2.5-10.2-3.7-15.2-.1-.4-.2-.9-.2-1.3 0-3.9 5.1-3.2 7.5-2.5 3.6 1 4.5 3.1 4.6 7l.3 12.8c-1.7.4-3.5.8-5.3 1.2zm7.9-31.3c-.9 1.5-3.1 1.5-4.8 1.3-.8-.1-1.7-.2-2.5-.3-.3 0-.7-.1-1-.3-.5-.3-.6-1-.7-1.6-.4-3.8-2.7-11.7.5-14.8 3.8-3.7 8.8-.2 8.8 4.3v8.7c.2 1.1.2 2-.3 2.7zm1-27.1c-.4.9-.9 1.7-1.7 2.3-1.5 1.1-3.7.8-5.1-.4s-2.2-3-2.5-4.8-.2-3.6-.4-5.5c-.1-2-.4-4 0-5.9.8-3.4 4-4.9 7.1-3.3 1.9 1 3.9 2.2 4.6 4.2.3.7.3 1.5.3 2.3.3 3.8-.6 7.6-2.3 11.1zm2.8-28.7c-.6 1.4-2 2.2-3.5 2.4s-2.9-.1-4.3-.5c-.4-.1-.8-.2-1.1-.4-.7-.5-.8-1.4-.9-2.3-.3-3.2-2.4-10.5-1-13.4 1.3-2.8 8-3 9.8-.6.7 1 .9 2.3.9 3.5.2 2.9.3 5.8.4 8.6.1 1 .1 1.9-.3 2.7zm13.8 85.6c-3 3.1-7.2.5-8-2.9-1.2-5.1-1.5-10.5-1-15.7 0-.5.1-1 .5-1.3.3-.2.7-.2 1.1-.2 1.1 0 2.2.1 3.2.1 1.7 0 3.7.2 4.7 1.7.5.8.6 1.9.6 2.9 0 3.6 1.7 12.4-1.1 15.4zm-2.3-25.7c-.9 0-1.8.1-2.7-.3-1.1-.5-1.7-1.7-1.9-2.9s0-2.4.2-3.6c.5-3.5-.2-9.2 1.2-12.3 1.5-3.2 5.8-1.6 8.8-1.4.5 6.5.9 12.9 1.4 19.4-2.2.8-4.6 1-7 1.1zm9.5-37.5c0 2.3-.1 4.6-.1 6.9 0 .6 0 1.3-.3 1.8-.6 1.3-2.3 1.8-3.7 2.1-2.1.4-4.5.8-6.1-.6-1.4-1.2-1.6-3.3-1.6-5.2-.1-3.8.2-7.6.8-11.4.2-1.3.7-3 2-3.3 2.9-.7 7.2.8 8.4 3.6.6 2 .6 4.1.6 6.1zm.8-25.2c-.5 5.5-1.5 5.7-6.6 5.9-.6 0-1.2.1-1.7-.1-.7-.3-1-1.2-1.1-2-1-4.9-1.3-10-1-15 .3-4.8 12.1-6.2 11.8 1.1-.1 3.4-1.1 6.8-1.4 10.1zm15.9 90.2c-.3.4-.8.5-1.2.7-1 .4-2.1.8-3.1 1.1-1.7.6-3.7 1.2-5.1 0-1-.8-1.2-2.2-1.4-3.5-.9-7-4.8-18.6 6-18 1.1.1 2.4.3 3 1.2.4.5.5 1.2.6 1.8.8 4.9 1.3 9.8 1.6 14.8 0 .8 0 1.5-.4 1.9zm4.4-25.7c0 .2 0 .4-.2.5-.2.2-.5.2-.8.2-2.6-.1-5.2-.2-7.7-.3-.8 0-1.7-.1-2.4-.4-2.2-1-2.5-4-2.4-6.5.1-4.7-.1-9.6.4-14.3 3.2-.2 6.6-.3 9.8-.5.6 0 1.1 0 1.6.2 1.2.5 1.5 2.1 1.6 3.4.6 5.9.6 11.8.1 17.7zm1.3-59.7c-.1.4-.2.9-.5 1.2s-.8.3-1.3.3h-4.3c-.5 0-1 0-1.3-.3-.5-.3-.6-1-.7-1.6-.6-3.6-.9-7.3-1.2-11-.1-1.4-.2-2.9.5-4.1 2-3.3 7.3-4.9 9.2-1.1 2.1 4.2.3 12.1-.4 16.6zm15 84.1c-.1.9-.3 1.8-1 2.3-1 .6-2.4-.2-3.5.1-1 .2-1.7 1.2-2.7 1.1-1.2-.1-1.6-1.6-1.8-2.7-.4-2.8-.5-5.8-1.1-8.6-.4-2-1.6-3.6-2.1-5.5-.6-2.5-.3-3.8 1.9-4.6 1.3-.5 5.8-.9 7.2-.4 1.9.7 2.6 3.1 2.9 5.2.5 4.2.6 8.7.2 13.1zm3.1-26c-2.9 0-5.8.1-8.7.1-.5 0-1 0-1.3-.3s-.4-.7-.4-1.1c-.6-4.1-1.6-12.1.6-15.8 1.2-1.9 7.2-3.9 9.3-2.7 1.4.7 1.7 2.5 1.8 4 .3 5.3-.1 10.6-1.3 15.8zm1.1-30.5c0 .4-.1.9-.4 1.2s-.8.2-1.2.2l-3.6-.3c-.4 0-.7-.1-1-.3-.4-.3-.5-.7-.6-1.1-.9-2.8-1.2-5.8-1.1-8.7.1-3.3 3.8-9 7.5-5.2 2.4 2.5.5 11 .4 14.2zm3.6-30.4c-.2 1-.4 2.1-1.1 2.8-.8.8-2.1 1-3.2 1.1-.9.1-1.9.2-2.8-.3-1-.6-1.4-1.9-1.7-3.1-1.1-4.5-2.3-9.1-1.6-13.6.1-.7.4-1.5 1-1.7.4-.1.7 0 1.1.1 4.9 1.2 9.3-1.4 9.2 5.7 0 3-.5 6-.9 9zm26.5 38.1c5.7 2.4 2 17.6 1.3 22.1 0 .2-.1.4-.2.6-.2.2-.5.2-.7.2-1.9-.1-4-.3-5-1.9-.7-1-.6-2.3-.6-3.5.1-3.4-1.5-20.4 5.2-17.5zm-12.4 49.4c0 .2-.1.5-.3.6-.1.1-.3.1-.5.1-1.5 0-2.9-.1-4.4-.1-.6 0-1.1 0-1.6-.4s-.6-1-.8-1.6c-.9-3.9-4.4-11.8-1.7-15.3 2.5-3.3 8.8-3.6 9.3 1.2.7 5.1.6 10.3 0 15.5zm-9.6-44.4c3.8-.9 8-4.1 9.2 1.3 1.1 4.9-.1 11.6-.5 16.6 0 .6-.1 1.3-.4 1.8-.3.6-.9 1-1.5.9-.4-.1-.8-.4-1.1-.6-1.3-.9-3-1.3-4.1-2.5-1.4-1.5-1.5-3.7-1.5-5.8-.1-3.8-.1-7.7-.1-11.7zm12.6-23.8c-.1 3.2-.1 6.3-.2 9.5 0 .8-.1 1.7-.8 2.1-.4.2-.8.1-1.2.1-1.1-.1-2.3-.2-3.4-.3-.7-.1-1.4-.1-1.9-.6-.7-.6-.8-1.7-.7-2.7.1-3.8.2-7.6.3-11.3 0-.2 0-.5.2-.7s.4-.2.7-.2c1.7 0 5.3-.9 6.4.9.6.9.6 2.1.6 3.2zm3-28.5c-.1 2.9-.3 5.9-.4 8.8-.1 1.6-.2 3.2-1 4.6-1.1 1.7-3.5 2.5-5.4 1.7-.3-.1-.6-.3-.8-.5-.3-.3-.4-.8-.4-1.2-.6-4.7.8-11.8 2.6-16.1 2.2-5.5 5.6-1.8 5.4 2.7zm10.8 95.3c-.2.2-.5.3-.8.4-2.5.6-5.1.4-7.4-.6-.8-.3-2-14.1-1.6-15.4 1-3.4 6.1-4.3 8.5-1.6.3.3.5.6.6 1s.2.8.2 1.2c.2 4.7.5 9.4.7 14.1 0 .2 0 .6-.2.9zm.9-68.5c-.1 3.2-.3 6.4-.4 9.6-.1 1.7-.1 3.3-.5 5-.1.3-.2.7-.4.8-.3.2-.7.2-1 .1-1.6-.2-3.3-.3-4.9-.5-.5-.1-1.1-.1-1.5-.5s-.3-1-.3-1.6c.2-3.4.5-6.8.8-10.2.5-4.8.9-4.5 5.7-4.8.8-.1 1.8 0 2.3.7.2.3.2.9.2 1.4zm-4.4-13.2c-.6-.2-1.3-.3-1.8-.8-.7-.7-.7-1.9-.7-3 .3-6.6-2.7-21.3 8.4-15.9.5.2 1 .5 1.3.9.3.5.4 1.1.4 1.7.1 4.3 0 8.6-.2 12.8-.1 1.2-.2 2.5-1 3.5-1.5 1.8-4.2 1.4-6.4.8zm12.9 29.6c3.4.8 1.2 6.7.9 9.5-.1 1.2-.6 13.1-.9 13.2-1.9.5-4 0-5.5-1.2-.1-3.8-1.2-23 5.5-21.5zm1.9 42.7c-.1.3-.3.6-.6.9-1.1 1.3-2.1 2.7-3.2 4-.2.2-.4.5-.7.5-.5 0-.8-.7-.8-1.2-.4-3.7-.9-7.5-1.3-11.2-.1-.4-.1-.9.1-1.3.2-.5.7-.8 1.1-1.1 1.7-1.2 2.8-3.2 4.4-1.6 1.2 1.2 1 7.6 1.1 9.4 0 .5.1 1.1-.1 1.6zm1.4-55.1c0 1.4.1 2.8-.5 4.1-.7 1.3-2 2.2-3.3 2.7-.5.2-1.1.3-1.5-.1-.2-.3-.2-.6-.2-.9.2-3.6-.8-12.6 1.9-15.2 4.5-4.4 3.6 7.3 3.6 9.4zm3.9-21.9c0 .9-.2 2-.9 2.5-1.5 1.2-3.6-.9-5.5-.8-.2-3.4.2-6.8.6-10.1.3-2.4.6-4.8 1.8-6.9 2.1-3.6 4.4-1.3 4.6 1.6.4 4.5-.4 9.3-.6 13.7z"/><path class="st4" d="M259.2 507.9c-.3 11.8-.6 23.8 2.6 35.1 2.3 8.3 6.5 17 3.6 25.1-.6 1.8-1.6 3.5-1.4 5.4.4 3.1 2 5 2 8.4 0 4.2 0 8.4.1 12.6 0 2.1 0 4.2-.8 6.1-.5 1.2-1.4 2.3-1.2 3.6.1.9.7 1.8 1.1 2.6 1.1 2.2 1.2 4.8 1.3 7.3.1 2.4.3 4.9.5 7.2.2 2.2-1 4.4-1.3 6.6-.5 3.8 1.9 7 2.4 10.6.6 4.4.6 9.2.5 13.7 0 9.3 1.4 18.3 2 27.6.1 1.1.1 2.3.6 3.4.7 1.6 2.1 2.7 3.5 3.8 5 3.9 10.2 7.8 16.1 10.1 5.6 2.1 11.6 2.7 17.5 3.2 8.8.8 17.6 1.6 26.5 1.7 13.9.2 27.8-1.3 41.8-.8 4.1.2 8.3.5 12.4-.3 2.6-.5 5-1.4 7.4-2.3 4.4-1.7 8.9-3.3 13.3-5 6.8-2.6 14.1-5.4 18.2-11.5 6-8.9 3.1-20.7 4-31.4.5-5.1-.5-6.4-.5-11.5 0-1.7 0-3.5.8-4.9.5-1 1.5-1.9 1.5-3.1 0-.9-.4-1.6-.8-2.4-1.1-2.8-1.7-17.4.4-20.9.8-1.3 2.8-2.8 3-4.4.3-1.9-1.5-4.1-2-5.9-.8-2.9.9-9.5 1.7-12.4 1.4-5 5-3 3-8.5-2.7-7.4.5-18 1.5-25.4 1-7.1 1.8-11.6 3.1-18.7.3-1.6 3.1-26.2.6-26.1-18.1.9-38.5 1.4-56.6 2.2-8.6.4-17.3.8-25.9.6-10-.2-20-1.2-30-1.9-24.4-1.5-48-1.1-72.5.5z"/><path class="st4" d="M273.1 568.6c0 .8.1 1.7.5 2.4s1.4 1.1 2.1.7c.7-.4.8-1.3.8-2 .3-4.2.6-8.4.1-12.6-.4-3.8-3.3-3.9-3.9-.3s.2 8.1.4 11.8zm11.6-1.8c-.1 1.2-.1 2.4.1 3.6.3 1.2 1 2.3 2.1 2.7.6.2 1.3.3 1.9.3.8 0 1.5-.1 2.2-.5 1.7-1 2-3.4 1.8-5.3-.3-2.6-.9-5.2-1.8-7.7-.9-2.4-3.3-4.9-5.4-2.3-1.4 1.6-.7 7-.9 9.2zm24.7 5.3c.1.8.2 1.8.9 2.3.3.2.7.3 1.1.4 1.4.3 2.9.7 4.3.5s2.9-1 3.5-2.4c.3-.8.3-1.7.3-2.6-.1-2.9-.2-5.8-.4-8.6-.1-1.2-.2-2.6-.9-3.5-1.8-2.4-8.5-2.2-9.8.6-1.4 2.8.7 10.1 1 13.3zm21.2-13.2c-.3 5 0 10.1 1 15 .2.8.4 1.6 1.1 2 .5.2 1.1.1 1.7.1 5.1-.2 6.1-.5 6.6-5.9.3-3.3 1.3-6.7 1.4-10 .3-7.3-11.5-6-11.8-1.2zm23.2.4c-.7 1.2-.6 2.7-.5 4.1.3 3.7.6 7.3 1.2 11 .1.6.2 1.3.7 1.6.4.3.9.3 1.3.3h4.3c.4 0 .9 0 1.3-.3.3-.3.4-.8.5-1.2.6-4.5 2.5-12.3.4-16.6-1.9-3.8-7.2-2.1-9.2 1.1zm23.3-1.9c-.4-.1-.7-.2-1.1-.1-.7.2-.9 1-1 1.7-.7 4.6.4 9.2 1.6 13.6.3 1.2.7 2.5 1.7 3.1.8.5 1.8.4 2.8.3 1.2-.1 2.4-.3 3.2-1.1.7-.7.9-1.8 1.1-2.8.5-3 1-6 1-9 0-7.1-4.4-4.5-9.3-5.7zm-104.2 37.7c0 1.1 0 2.2.7 3 .8.9 2.2 1.1 3.4 1 .3 0 .6 0 .8-.1.6-.3.6-1 .7-1.6.2-5.2.4-10.4-1.3-15.3-1.3-3.8-3.4-3-3.8.2-.8 4.1-.4 8.6-.5 12.8zm12.3 4.9c0 .4.1.7.3 1 .2.3.6.4 1 .4 1.4.3 2.8.5 4.3.7.3 0 .7.1 1-.1.5-.2.6-.8.7-1.3.8-3.8.6-7.7.3-11.6-.1-1-.2-2.1-.5-3.1-1.2-3.8-5.5-8.6-6.9-2.5-1.2 5.1-.5 11.3-.2 16.5zm21.6-12.7c-.4 1.9-.1 3.9 0 5.9.1 1.8 0 3.7.4 5.5s1.1 3.6 2.5 4.8 3.6 1.5 5.1.4c.8-.6 1.3-1.4 1.7-2.3 1.7-3.4 2.5-7.3 2.5-11.1 0-.8-.1-1.6-.3-2.3-.7-2-2.7-3.2-4.6-4.2-3.3-1.6-6.5-.1-7.3 3.3zm24.2-1.6c-1.3.3-1.8 1.9-2 3.3-.6 3.8-.8 7.6-.8 11.4 0 1.9.2 4 1.6 5.2 1.6 1.4 4 1.1 6.1.6 1.4-.3 3.1-.7 3.7-2.1.3-.6.3-1.2.3-1.8 0-2.3.1-4.6.1-6.9 0-2 .1-4.2-.7-6-1.1-2.9-5.4-4.4-8.3-3.7zm23.2.3c-.4.2-.7.5-1 .8-2 2.5-2.3 6-2.4 9.2l-.3 7.8c0 .4 0 .8.2 1.1.3.3.7.4 1.1.4 2 .2 4.1.1 6.1-.1 1.1-.1 2.3-.4 2.8-1.4.3-.6.3-1.3.2-2-.2-3.4-.5-6.7-.7-10.1-.1-2.2-2.6-7.4-6-5.7zm19.5 7.5c-.1 2.9.3 5.9 1.1 8.7.1.4.3.9.6 1.1.3.2.7.3 1 .3l3.6.3c.4 0 .9.1 1.2-.2.3-.3.4-.8.4-1.2.1-3.3 2-11.7-.5-14.3-3.6-3.6-7.2 2-7.4 5.3zm21.7-6.2c-.2 0-.5 0-.7.2s-.2.4-.2.7c-.1 3.8-.2 7.6-.3 11.3 0 1 0 2.1.7 2.7.5.5 1.3.5 1.9.6 1.1.1 2.3.2 3.4.3.4 0 .8.1 1.2-.1.7-.3.8-1.3.8-2.1.1-3.2.1-6.3.2-9.5 0-1.1 0-2.4-.6-3.3-1.1-1.7-4.6-.8-6.4-.8zm1.9-11c.1.4.1.9.4 1.2.2.2.5.4.8.5 1.9.8 4.3 0 5.4-1.7.9-1.3 1-3 1-4.6.1-2.9.3-5.9.4-8.8.2-4.5-3.1-8.2-5.5-2.7-1.8 4.4-3.2 11.4-2.5 16.1zm-116.6 55.2c-1.5-.5-3.1-1-4.4-1.8-1.4-.9-2.5-2.1-2.9-3.7-.2-.8-.1-1.7-.1-2.6.3-4.7.6-9.3.8-14 0-.6.1-1.2.5-1.6.2-.2.4-.3.7-.4 8-3.1 5.3 20.1 5.4 24.1zm-.8 21.1c-1.6.1-3.1-.7-4.5-1.4-.5-.2-1-.5-1.3-.9-.6-.7-.6-1.7-.6-2.6v-10.3c0-.7 0-1.4.5-1.8.6-.5 1.5-.3 2.2-.1 6.4 2 3.8 11.8 3.7 17.1zm6.4-2.2c0 .7 0 1.4.3 2.1.5.8 1.4 1.2 2.3 1.6 1.2.5 2.5 1 3.7 1.5.1-4.4.3-8.8.4-13.2.1-2.6-2.6-5.2-5-3.1-2.1 1.8-1.6 8.5-1.7 11.1zm-1.1-25.8c-.1 2-.2 4.3 1.1 5.8 1.7 2 5.1 1.8 7.4.5.3-.2.7-.4.9-.8.3-.4.3-1 .3-1.5.1-3.7 1.1-17.9-4-18.6-5.9-.9-5.5 11.2-5.7 14.6zm21.2 3.3c.1.6.2 1.2.7 1.6.3.2.6.2 1 .3.8.1 1.7.2 2.5.3 1.8.2 3.9.2 4.8-1.3.5-.7.5-1.7.5-2.5v-8.7c0-4.5-5-8.1-8.8-4.3-3.4 3-1.1 10.8-.7 14.6zm-6.1 13.6c0 .4.1.9.2 1.3 1.2 5.1 2.5 10.2 3.7 15.2.2.7.4 1.5 1 1.9s1.4.2 2.2.1l5.4-1.2-.3-12.8c-.1-3.9-1-5.9-4.6-7-2.4-.7-7.5-1.4-7.6 2.5zM334 643c0-1 0-2.1-.6-2.9-.9-1.4-2.9-1.6-4.7-1.7-1.1 0-2.2-.1-3.2-.1-.4 0-.8 0-1.1.2-.4.3-.5.8-.5 1.3-.5 5.2-.1 10.6 1 15.7.8 3.4 5.1 6 8 2.9 2.8-2.9 1.1-11.7 1.1-15.4zm12 15.7c.2 1.3.4 2.7 1.4 3.5 1.4 1.1 3.4.6 5.1 0 1-.4 2.1-.8 3.1-1.1.4-.2.9-.3 1.2-.7.4-.5.4-1.2.3-1.8-.3-5-.8-9.9-1.6-14.8-.1-.6-.2-1.3-.6-1.8-.7-.9-1.9-1.1-3-1.2-10.7-.7-6.7 10.9-5.9 17.9zm22.4 1c.2 1.2.6 2.6 1.8 2.7 1 .1 1.8-.8 2.7-1.1 1.2-.3 2.5.5 3.5-.1.7-.4.9-1.4 1-2.3.5-4.4.3-8.8-.3-13.2-.3-2.1-1-4.4-2.9-5.2-1.4-.5-5.9-.1-7.2.4-2.2.8-2.5 2.1-1.9 4.6.5 1.9 1.7 3.5 2.1 5.5.7 2.9.8 5.8 1.2 8.7zm23.6-1.5c.1.6.3 1.2.8 1.6.4.3 1 .4 1.6.4 1.5 0 2.9.1 4.4.1.2 0 .4 0 .5-.1.2-.1.2-.4.3-.6.6-5.1.6-10.3.1-15.5-.5-4.8-6.8-4.5-9.3-1.2-2.8 3.5.7 11.5 1.6 15.3zm16-.3c2.3 1 5 1.2 7.4.6.3-.1.6-.2.8-.4.2-.3.2-.6.2-1-.2-4.7-.5-9.4-.7-14.1 0-.4 0-.8-.2-1.2-.1-.4-.4-.7-.6-1-2.4-2.6-7.5-1.7-8.5 1.6-.4 1.4.9 15.2 1.6 15.5zm14.1-18.5c-.4.3-.9.6-1.1 1.1-.2.4-.1.9-.1 1.3.4 3.7.9 7.5 1.3 11.2.1.5.3 1.2.8 1.2.3 0 .5-.3.7-.5 1.1-1.3 2.1-2.7 3.2-4l.6-.9c.2-.5.1-1 .1-1.5-.2-1.8.1-8.1-1.1-9.4-1.7-1.7-2.7.3-4.4 1.5zm3.5-10.6c-1.9.5-4 0-5.5-1.2 0-3.8-1.2-23 5.5-21.4 3.4.8 1.2 6.7.9 9.5-.1 1.1-.6 13-.9 13.1zm-12.4 3.5c0 .2-.1.4-.2.6-.2.2-.5.2-.7.2-1.9-.1-4-.3-5-1.9-.7-1-.6-2.3-.6-3.5.1-3.3-1.5-20.3 5.2-17.5 5.6 2.4 2 17.6 1.3 22.1zm-14.7.8c0 .6-.1 1.3-.4 1.8-.3.6-.9 1-1.5.9-.4-.1-.8-.4-1.1-.6-1.3-.9-3-1.3-4.1-2.5-1.4-1.5-1.5-3.7-1.5-5.8 0-3.9-.1-7.8-.1-11.8 3.8-.9 8-4.1 9.2 1.3 1.1 5-.1 11.7-.5 16.7zm-28.2-1.4c.1.4.1.8.4 1.1s.8.3 1.3.3c2.9 0 5.8-.1 8.7-.1 1.1-5.2 1.6-10.5 1.2-15.8-.1-1.5-.4-3.3-1.8-4-2.1-1.1-8.1.8-9.3 2.7-2.2 3.8-1.1 11.8-.5 15.8zm-22.6-3.6c-.1 2.4.2 5.4 2.4 6.5.8.4 1.6.4 2.4.4 2.6.1 5.2.2 7.7.3.3 0 .6 0 .8-.2.1-.1.2-.4.2-.5.5-5.9.5-11.8 0-17.7-.1-1.3-.4-2.9-1.6-3.4-.5-.2-1.1-.2-1.6-.2-3.3.2-6.6.3-9.8.5-.6 4.7-.4 9.6-.5 14.3zm-21.4-2.1c-.2 1.2-.4 2.4-.2 3.6.2 1.2.8 2.4 1.9 2.9.8.4 1.8.3 2.7.3 2.4-.1 4.8-.3 7-1.2-.5-6.5-.9-12.9-1.4-19.4-3-.2-7.3-1.8-8.8 1.4-1.4 3.2-.7 8.9-1.2 12.4zm81.8-23.4c0 .5 0 1.2.3 1.6.3.4.9.5 1.5.5 1.6.2 3.3.3 4.9.5.4 0 .7.1 1-.1.3-.2.4-.5.4-.8.4-1.6.5-3.3.5-5 .1-3.2.3-6.4.4-9.6 0-.5 0-1.1-.3-1.5-.5-.7-1.5-.7-2.3-.7-4.8.3-5.2 0-5.7 4.8-.2 3.5-.5 6.9-.7 10.3zm15.4-3.2c0 .3 0 .7.2.9.3.4 1 .3 1.5.1 1.4-.5 2.7-1.4 3.3-2.7.6-1.2.6-2.7.5-4.1-.1-2.1.9-13.8-3.6-9.5-2.8 2.7-1.7 11.7-1.9 15.3zm9.3-27.6c0 .9-.2 2-.9 2.5-1.5 1.2-3.6-.9-5.5-.8-.2-3.4.2-6.8.6-10.1.3-2.4.6-4.8 1.8-6.9 2.1-3.6 4.4-1.3 4.6 1.6.4 4.5-.4 9.3-.6 13.7zm-22.5 1c-.1 1-.1 2.2.7 3 .5.5 1.1.6 1.8.8 2.2.6 4.9 1 6.3-.8.8-.9.9-2.2 1-3.5.3-4.3.3-8.5.2-12.8 0-.6 0-1.2-.4-1.7-.3-.4-.8-.7-1.3-.9-11-5.4-8 9.2-8.3 15.9z"/><path class="st1" d="M262 507.7c-2.3-16.7-5.5-34.4-8.3-51-1.2-7.1 4.1-5.5 9.6-5.8 6.3-.3 180.2-3.3 185.5-3 .8 0 1.6.1 2.2.7.7.7.6 1.8.4 2.8-3.1 17.8-6.6 37.5-9.7 55.3"/><path d="M263.6 458.5s.4 3.1 1 7.7 1.6 10.8 2.6 16.9 2.1 12.2 3 16.8c.9 4.6 1.5 7.6 1.5 7.6l-3 .5s-.4-3.1-1.1-7.7c-.6-4.6-1.4-10.8-2-17-.7-6.2-1.2-12.4-1.6-17-.2-4.7-.4-7.8-.4-7.8zm180-3.9l-8.5 52-2.8-.6.2-1.4 3 .7-.4 1.4-2.9-.6 11.4-51.5zM271 651.5l.3.3c.2.2.5.6.9 1 .8.8 2.2 1.8 4.1 2.8s4.4 1.8 7.4 2.3c2.9.5 6.3.8 10 1.5s7.6 2 11.6 3.4c2 .7 4.1 1.4 6.2 1.9s4.3.9 6.6 1.1c4.5.5 9.3.4 14.2.3 4.9-.1 9.8-.1 14.8-.2 9.9-.1 19.8-.2 29-.6 1.2-.1 2.3-.1 3.4-.2s2.3-.1 3.4-.2c2.2-.1 4.4-.2 6.5-.3 4.2-.2 8.2-.7 11.9-1.1 3.7-.5 7.1-.9 10-1.3 3-.4 5.6-.7 7.7-1.1 2.1-.4 3.8-.7 4.9-1s1.7-.4 1.7-.4-.6.2-1.7.6c-1.1.3-2.7.8-4.9 1.3-2.1.5-4.7 1-7.7 1.5s-6.3 1.1-10 1.6-7.7 1.1-11.9 1.5c-4.2.3-8.7.8-13.4 1-9.3.4-19.2.7-29.1.9-4.9 0-9.9.1-14.8.1s-9.7.1-14.4-.5c-2.3-.3-4.6-.7-6.8-1.3-2.2-.6-4.3-1.4-6.3-2.1-4-1.5-7.7-2.9-11.3-3.7-3.6-.8-7-1.2-9.9-1.9-3-.7-5.5-1.6-7.4-2.7-1.9-1-3.2-2.2-4-3.1-.4-.4-.7-.8-.9-1 0-.3-.1-.4-.1-.4zm14.8 15.5s.4.1 1.1.4c.7.3 1.7.7 2.9 1.1 1.2.5 2.6 1 4.1 1.6.7.3 1.5.5 2.3.8s1.6.6 2.4.8c.8.3 1.6.6 2.4.8s1.6.5 2.3.7c1.5.4 3 .9 4.2 1.2.6.2 1.2.3 1.7.5.5.1.9.3 1.3.3.7.1 1.1-.2 1.1-.2s-.3.4-1.1.6c-.4.1-.9.1-1.4.1s-1.1 0-1.8-.1c-1.3-.1-2.8-.3-4.4-.6-.8-.2-1.6-.3-2.4-.6-.8-.2-1.7-.5-2.5-.7-1.6-.6-3.3-1.2-4.7-1.9-1.5-.7-2.8-1.5-3.9-2.2s-2-1.4-2.6-1.8c-.6-.5-1-.8-1-.8zm10.6 12.8s1.7 0 4.1.6c1.2.3 2.6.6 4.1 1 .7.2 1.5.4 2.2.7.8.2 1.5.4 2.3.6.8.2 1.5.4 2.3.6.8.1 1.5.3 2.2.4 1.5.2 2.8.4 4 .4h1.6c.5 0 .9-.1 1.3-.1.7-.1 1.1-.1 1.1-.1s-.1.1-.3.1c-.2.1-.4.3-.8.4-.3.2-.7.3-1.2.5s-1 .3-1.7.4c-1.2.2-2.7.3-4.3.2-.8-.1-1.6-.1-2.4-.3s-1.6-.3-2.4-.5-1.6-.5-2.4-.7c-.8-.3-1.5-.6-2.2-.8-1.4-.6-2.7-1.1-3.8-1.6-2.2-1.1-3.7-1.8-3.7-1.8zm28.6-5s1.3.1 3.2.5c.9.2 2 .4 3.2.7 1.1.3 2.4.6 3.6.8 1.2.3 2.4.6 3.6.8.6.1 1.1.2 1.7.3.5.1 1 .2 1.5.2.9.1 1.7.2 2.3.3.6.1.9.1.9.1l-.9.3c-.3.1-.6.2-1 .2-.4.1-.8.2-1.3.2-1 .1-2.1.1-3.4.1-.6-.1-1.2-.1-1.9-.2-.6-.1-1.3-.2-1.9-.4s-1.3-.3-1.9-.5l-1.8-.6c-1.1-.4-2.2-.9-3-1.3-1.8-.8-2.9-1.5-2.9-1.5zm9 13s1.2-.4 3-.7c.9-.2 1.9-.3 3.1-.4 1.1-.1 2.3-.1 3.5-.1.6 0 1.2 0 1.8.1.6 0 1.2.1 1.7.1 1.1.1 2.2.3 3.1.5 1.8.3 3 .8 3 .8s-1.2.2-3 .4c-.9.1-1.9.1-3.1.2-1.1 0-2.3.1-3.5 0-1.2 0-2.4-.1-3.5-.1-1.1-.1-2.2-.1-3.1-.2-1.8-.3-3-.6-3-.6zm26.2-7.9s1-.4 2.6-.7c.8-.2 1.7-.3 2.6-.5 1-.2 2-.3 3-.4 1-.1 2.1-.2 3-.3 1-.1 1.9-.1 2.7-.1 1.6 0 2.7.1 2.7.1s-1 .5-2.5 1c-.8.3-1.7.5-2.6.7l-1.5.3c-.5.1-1 .1-1.6.2-1.1.1-2.1.2-3.1.2s-1.9 0-2.7-.1c-1.6-.1-2.6-.4-2.6-.4zm29.1-5.2s.3-.1.9-.2c.6-.1 1.3-.3 2.3-.5 1.8-.4 4.3-.8 6.8-1.3s4.9-.9 6.8-1.3c.9-.2 1.7-.3 2.3-.4.6-.1.9-.1.9-.1s-1.1.8-2.8 1.6c-.9.4-1.9.8-3.1 1.2-.6.2-1.2.4-1.8.5-.6.2-1.2.3-1.9.4-.6.1-1.3.2-1.9.3s-1.3.1-1.9.2c-1.2.1-2.3.1-3.3 0s-1.8-.2-2.3-.3c-.7 0-1-.1-1-.1zm13.7 2s.3-.1.7-.2c.4-.1 1.1-.3 1.8-.4l1.2-.3c.4-.1.9-.2 1.3-.3.9-.2 1.9-.4 2.8-.7 1-.2 1.9-.5 2.8-.7.4-.1.9-.2 1.3-.3l1.2-.3c.7-.2 1.4-.3 1.8-.5.4-.1.7-.1.7-.1l-.5.5c-.3.3-.9.7-1.5 1.1-.7.4-1.5.9-2.4 1.3-.5.2-.9.4-1.4.5-.5.2-1 .3-1.5.4l-1.5.3c-.5.1-1 .1-1.5.2-1 .1-1.9.1-2.7 0-.8-.1-1.5-.2-1.9-.3-.5-.1-.7-.2-.7-.2zm-27.3 6.1s.3-.1.8-.1c.5-.1 1.2-.2 2.1-.3s1.9-.2 2.9-.3l3.3-.3c1.1-.1 2.3-.2 3.3-.3 1.1-.1 2.1-.2 2.9-.2.9-.1 1.6-.1 2.1-.1h.8s-1 .6-2.7 1.3c-.8.3-1.8.6-2.9.9-.5.1-1.1.3-1.7.3-.6.1-1.2.2-1.7.2-.6 0-1.2.1-1.7.1h-1.7c-1.1 0-2.1-.1-3-.3-1.7-.5-2.8-.9-2.8-.9zm16 4s.3-.1.7-.3c.5-.2 1.1-.4 1.9-.6.8-.2 1.6-.5 2.6-.7.9-.3 2-.5 3-.8s2-.5 3-.7 1.9-.4 2.6-.6c.8-.2 1.4-.3 1.9-.4.5-.1.7-.1.7-.1s-.8.7-2.3 1.5c-.7.4-1.6.8-2.5 1.2-.5.2-1 .4-1.5.5-.5.2-1 .3-1.6.5-.5.1-1.1.3-1.6.3-.5.1-1 .2-1.5.2-1 .1-2 .2-2.8.1-1.5.2-2.6-.1-2.6-.1zm-29.7 2.9s-.1 0-.1-.2.2-.4.4-.5c.1-.1.3-.1.5-.2.1 0 .3-.1.5-.1.3-.1.7-.2 1.1-.2.8-.2 1.8-.3 2.8-.4 1-.1 2.2-.2 3.3-.3 1.1 0 2.2-.1 3.3 0 1 0 2 .1 2.9.2.8.1 1.5.1 2 .1h.8s-.2.2-.7.4-1.2.5-2 .6c-.8.2-1.8.3-2.9.4-1 .1-2.2.2-3.3.3h-3.3c-1 0-2-.1-2.9-.2-.4 0-.8-.1-1.1-.1-.2 0-.3 0-.5-.1h-.3c-.2 0-.4.1-.5.3-.1-.1 0 0 0 0zm-17.3-6s.3-.1.7-.2c.5-.1 1.2-.3 2-.4.8-.1 1.8-.1 2.9-.1 1 0 2.2.2 3.2.3 1.1.2 2.2.4 3.2.7s1.9.5 2.7.8c1.6.5 2.6 1.1 2.6 1.1s-1.1.1-2.8.1c-.8 0-1.8-.1-2.8-.2-1-.1-2.1-.3-3.2-.5s-2.1-.4-3.1-.6c-1-.2-1.9-.4-2.7-.5-.8-.2-1.5-.3-1.9-.4-.6 0-.8-.1-.8-.1zm-31-5.3h.8c.5 0 1.2.1 2 .2s1.8.2 2.8.4c1 .1 2.1.3 3.1.5 1.1.2 2.1.3 3.1.5s1.9.3 2.8.5c.8.2 1.5.3 2 .4.5.1.8.2.8.2s-1.1.4-2.8.5c-.8.1-1.8.1-2.9.1-.5 0-1.1 0-1.6-.1-.6 0-1.1-.1-1.7-.2-.6-.1-1.1-.2-1.6-.3s-1.1-.3-1.6-.4c-1-.3-1.9-.6-2.7-1-1.6-.6-2.5-1.3-2.5-1.3zm-33 0s.3 0 .9.2 1.3.6 2.1 1c.4.2.9.4 1.4.6.5.2 1 .5 1.5.7 1.1.5 2.2.9 3.3 1.4.6.2 1.1.4 1.7.6.6.2 1.1.4 1.7.6 1.1.4 2.1.7 3 1s1.7.5 2.2.7.8.3.8.3-.3.1-.9.1c-.6.1-1.4.1-2.3.1-.5 0-1-.1-1.6-.1-.6-.1-1.1-.1-1.7-.3-.6-.1-1.2-.3-1.8-.4l-1.8-.6c-.6-.2-1.2-.5-1.8-.8-.6-.3-1.1-.6-1.6-.9-1-.6-2-1.3-2.7-1.9-.7-.6-1.3-1.2-1.7-1.6-.4-.5-.7-.7-.7-.7zm32.7 10.1s1.4 0 3.6.2c1.1.1 2.3.2 3.6.4 1.3.2 2.7.4 4.1.7s2.7.6 4 1c1.3.3 2.4.7 3.4.9s1.9.4 2.5.5 1 .1 1 .1-.3.1-1 .3c-.6.1-1.5.3-2.6.3s-2.4-.2-3.7-.4c-1.3-.2-2.7-.4-4.1-.7s-2.7-.6-4-1c-1.3-.3-2.5-.7-3.5-1-2-.7-3.3-1.3-3.3-1.3zM272.1 543s1.4-.2 3.6-.3c1.1-.1 2.3-.1 3.7-.1 1.3 0 2.8.1 4.2.1 1.4.1 2.8.2 4.2.4 1.3.2 2.6.3 3.6.5 2.1.4 3.5.8 3.5.8s-1.4.2-3.6.3c-1.1.1-2.3.1-3.7.1-1.3 0-2.8-.1-4.2-.1-1.4-.1-2.8-.2-4.2-.4-1.3-.2-2.6-.3-3.6-.5-2.1-.3-3.5-.8-3.5-.8zm35.8.2h1.1c.7 0 1.7 0 2.9.1 1.2 0 2.5.1 4 .1h4.5c.8 0 1.5 0 2.3-.1s1.5 0 2.3-.1c1.5 0 2.9 0 4.1.1s2.2.3 2.9.4c.7.2 1.1.3 1.1.3s-.4 0-1.1.1-1.7.2-2.8.3c-1.2.2-2.5.4-4 .5-.7.1-1.5.2-2.3.3s-1.6.1-2.4.1h-2.4c-.8 0-1.6-.1-2.3-.2-1.5-.2-2.9-.4-4-.7-2.5-.6-3.9-1.2-3.9-1.2zm33.7.3s.4 0 1.2.1c.4 0 .9 0 1.4.1h1.8c.6 0 1.3 0 2.1-.1.7 0 1.5-.1 2.3-.2 1.6-.1 3.3-.3 5.1-.4.9-.1 1.7-.1 2.6-.2.9-.1 1.7 0 2.5-.1 1.7 0 3.2.1 4.5.4.7.1 1.3.2 1.8.4.5.1 1 .3 1.3.4.7.3 1.1.5 1.1.5s-.4 0-1.2-.1h-3.2c-.6 0-1.3 0-2.1.1-.7 0-1.5.1-2.3.2-1.6.1-3.3.3-5.1.4-.9.1-1.7.1-2.6.2-.9.1-1.7 0-2.5 0-1.7 0-3.2-.1-4.5-.4-.3-.1-.6-.1-.9-.2-.3-.1-.6-.2-.8-.2-.5-.1-1-.3-1.3-.4-.8-.3-1.2-.5-1.2-.5zm37.4-.1s.4 0 1-.1c.7 0 1.6-.1 2.7-.1 1.1-.1 2.4-.1 3.7-.2 1.4-.1 2.8-.1 4.3-.2 1.5 0 2.9-.1 4.3-.1s2.7 0 3.8.1c2.2.1 3.7.4 3.7.4s-1.4.4-3.6.8c-1.1.2-2.4.4-3.7.5-1.4.1-2.8.3-4.3.3s-3 0-4.4-.1c-.7 0-1.4-.1-2-.2l-1.8-.3c-1.1-.2-2-.4-2.6-.6-.7-.1-1.1-.2-1.1-.2zm32.2-.7s.4-.1 1-.1c.6-.1 1.6-.1 2.7-.2s2.4-.1 3.7-.2c1.4 0 2.8-.1 4.3-.1h8c1.1 0 2 .1 2.7.1.6 0 1 .1 1 .1s-1.4.5-3.6 1c-1.1.2-2.4.4-3.7.6-.7.1-1.4.2-2.1.2-.7.1-1.5.1-2.2.1-1.5 0-3 0-4.3-.1-1.4-.1-2.7-.3-3.8-.5-2.3-.4-3.7-.9-3.7-.9zm-123.8-6.2s.4.1 1.2.2c.7.1 1.8.1 3.1.1s2.8 0 4.4.1c.8 0 1.6 0 2.5.1.8 0 1.7.1 2.5.1s1.7.1 2.5.1 1.7.1 2.5.1c1.6.1 3.1.2 4.4.3 2.6.2 4.3.5 4.3.5s-1.7.4-4.3.7c-1.3.1-2.8.3-4.4.3-.8 0-1.6.1-2.5 0-.8 0-1.7 0-2.6-.1s-1.7-.1-2.6-.2c-.8-.1-1.7-.2-2.5-.2-.8-.1-1.6-.2-2.3-.3-.7-.1-1.4-.2-2.1-.4-1.3-.2-2.3-.6-3-.9-.4-.1-.6-.3-.8-.4-.2-.1-.3-.1-.3-.1zm40.5.7c-.2-.1-.3 0-.4.1s-.1.3 0 .3l-.1-.1c2.2-.3 4.5-.5 6.7-.6s4.4-.2 6.7-.1c1.1 0 2.2 0 3.3.1 1.1.1 2.2.1 3.3.2l3.3.3c1.1.1 2.2.3 3.3.5-1.1.2-2.2.3-3.3.5l-3.3.3c-1.1.1-2.2.1-3.3.2h-3.3c-2.2 0-4.5-.1-6.7-.2s-4.4-.3-6.7-.7h-.1v-.1c-.1-.3.1-.5.2-.6.1-.2.3-.2.4-.1zm35.3.7s1.7-.4 4.2-.7c1.2-.2 2.7-.3 4.3-.4.8-.1 1.6-.1 2.4-.2.8 0 1.7-.1 2.5-.1h4.9c1.6 0 3 .1 4.3.2 2.5.2 4.2.4 4.2.4s-1.7.4-4.2.7c-1.2.2-2.7.3-4.3.4-.8 0-1.6.1-2.4.2-.8 0-1.7.1-2.5.1h-4.9c-1.6 0-3-.1-4.3-.2-2.5-.1-4.2-.4-4.2-.4zm34.9-.8s1.5-.4 3.6-.6c1.1-.1 2.4-.3 3.7-.4 1.4-.1 2.8-.2 4.3-.2h4.3c1.4 0 2.7.1 3.8.2 2.2.2 3.7.5 3.7.5s-1.5.4-3.6.6c-1.1.2-2.4.3-3.7.4-1.4.1-2.8.2-4.3.2h-4.3c-1.4 0-2.7-.1-3.8-.2-2.2-.2-3.7-.5-3.7-.5zm32.5-1.8s.9-.3 2.2-.4c1.3-.2 3-.3 4.7-.2 1.7 0 3.4.2 4.7.4 1.3.2 2.2.5 2.2.5s-.8.4-2.1.7c-1.3.3-3 .5-4.7.5s-3.5-.3-4.7-.6c-1.5-.5-2.3-.9-2.3-.9zm-169.2-.1h.8c.5 0 1.2 0 2.1.1.9 0 1.9.1 2.9.2l3.3.3c1.1.1 2.3.2 3.3.3 1.1.1 2.1.2 2.9.4.9.1 1.6.2 2.1.3s.8.2.8.2-1.1.4-2.9.7c-.9.1-1.9.2-3 .3H272c-.6 0-1.2-.1-1.7-.1-.6-.1-1.2-.1-1.7-.2-.6-.1-1.1-.2-1.7-.3-1.1-.2-2.1-.5-2.9-.8-1.6-.7-2.6-1.4-2.6-1.4zm8.5-5.7h.3c.2 0 .4-.1.8 0 .7 0 1.6.1 2.7.4.5.1 1.1.3 1.7.4.6.1 1.2.2 1.9.3 1.3.2 2.8.2 4.2.3 1.5.1 3 .3 4.3.4 1.4.2 2.7.4 3.8.6 2.2.4 3.7.8 3.7.8s-1.5.2-3.7.3c-1.1 0-2.4.1-3.8 0-1.4 0-2.9-.1-4.3-.2-1.5-.1-3-.2-4.4-.6-.7-.1-1.4-.4-2-.6-.6-.2-1.2-.5-1.7-.8-1-.5-1.8-.9-2.4-1.1-.7-.1-1.1-.2-1.1-.2zm35 1.5H321c2 0 4-.1 5.9-.1s3.6-.1 5.1-.1 2.8 0 3.7-.1h1.4s-.5.2-1.3.4c-.9.2-2.1.5-3.6.8s-3.3.5-5.2.7c-.9.1-1.9.2-2.9.2-1 .1-2 .1-3 .1s-2 0-3-.1c-1 0-2-.1-2.9-.2-1.9-.2-3.7-.4-5.2-.6-1.5-.2-2.7-.5-3.6-.7-1-.1-1.5-.3-1.5-.3zm43.4-.6s1.5-.3 3.8-.4c1.1-.1 2.5-.1 3.9-.1s3 0 4.5.1l4.5.3c1.4.1 2.7.3 3.9.5 2.3.3 3.8.8 3.8.8s-1.5.3-3.8.4c-1.1.1-2.5.1-3.9.1s-3 0-4.5-.1l-4.5-.3c-1.4-.1-2.7-.3-3.9-.5-2.3-.4-3.8-.8-3.8-.8zm35.2.4s.4-.1 1-.2c.7-.1 1.6-.3 2.7-.5.6-.1 1.1-.2 1.8-.3.6-.1 1.3-.3 2-.4 1.4-.3 2.9-.5 4.4-.7.8-.1 1.5-.2 2.3-.2.7-.1 1.5-.1 2.2-.1 1.4 0 2.8.1 3.9.2.6.1 1.1.2 1.6.3s.9.2 1.2.3c.6.2 1 .4 1 .4h-1.1c-.7 0-1.6 0-2.7.1-.6 0-1.2.1-1.8.1-.6.1-1.3.2-2 .2-1.4.2-2.9.4-4.3.6-1.5.2-3 .4-4.4.5s-2.8.2-3.9.1c-.6 0-1.1-.1-1.6-.1s-.9-.1-1.2-.2c-.7 0-1.1-.1-1.1-.1zm34.1-2.5h1c.6 0 1.5 0 2.5.1 1 0 2.3.1 3.5.2 1.3.1 2.7.2 4 .3 1.4.1 2.7.2 4 .3s2.5.2 3.5.3 1.9.2 2.5.3 1 .2 1 .2-1.4.4-3.5.7c-1 .1-2.3.2-3.6.3h-2c-.7 0-1.4-.1-2.1-.1-.7-.1-1.4-.1-2.1-.2-.7-.1-1.4-.2-2-.3-1.3-.2-2.5-.5-3.5-.8-1.9-.7-3.2-1.3-3.2-1.3zm-131.3-4.2h8.7c.8 0 1.6 0 2.5.1.8 0 1.7 0 2.5.1.9 0 1.7.1 2.5.1s1.7.1 2.5.1c1.6.1 3.1.2 4.4.3s2.4.2 3.1.3c.8.1 1.2.1 1.2.1s-1.7.4-4.3.7c-1.3.2-2.8.3-4.4.3-.8 0-1.6.1-2.5.1h-2.6c-.9 0-1.7-.1-2.6-.1-.8 0-1.7-.1-2.5-.2-1.6-.2-3.1-.4-4.4-.7-2.4-.5-4.1-1.2-4.1-1.2zm43.7-.9s.4.2 1.1.3 1.8 0 3.1-.1 2.8-.1 4.4-.1h2.5c.8 0 1.7 0 2.6.1.9 0 1.7.1 2.6.1.8 0 1.7.1 2.5.2 1.6.1 3.1.3 4.4.5 2.6.3 4.3.7 4.3.7s-1.7.3-4.3.4c-1.3.1-2.8.1-4.4.1h-2.5c-.8 0-1.7 0-2.6-.1-.9 0-1.7-.1-2.6-.1-.8 0-1.7-.1-2.5-.2-1.6-.1-3.1-.3-4.4-.5s-2.4-.3-3.1-.7c-.4-.1-.6-.3-.8-.4-.2-.1-.3-.2-.3-.2zm39.3 1.5s1.4-.3 3.6-.4c1.1-.1 2.3-.1 3.7-.2h4.2c1.4 0 2.8.1 4.2.2 1.3.1 2.6.2 3.6.3 2.1.2 3.6.5 3.6.5s-1.4.4-3.6.6c-1.1.1-2.3.2-3.7.3-1.3.1-2.8.1-4.2.1-1.4 0-2.9-.1-4.2-.2-1.3-.1-2.6-.3-3.6-.4-2.2-.4-3.6-.8-3.6-.8zm35.2-1s1.5-.2 3.8-.3c1.1 0 2.4-.1 3.8-.1s2.9 0 4.4.1c1.5 0 3 .1 4.4.2 1.4.1 2.7.2 3.8.3 2.2.2 3.8.5 3.8.5s-1.5.4-3.8.6c-1.1.1-2.4.2-3.9.3-.7 0-1.4.1-2.2 0h-2.3c-1.5-.1-3-.2-4.4-.3s-2.7-.3-3.8-.5c-2.2-.3-3.6-.8-3.6-.8zM262 521.3s1.2-.1 3.1 0c.9 0 2 .1 3.1.1 1.1.1 2.3.2 3.5.3s2.4.3 3.5.4c1.1.1 2.1.3 3 .5 1.8.3 3 .7 3 .7s-1.2.3-3 .5c-.9.1-2 .1-3.1.1h-1.8c-.6 0-1.2-.1-1.8-.1-1.2-.1-2.4-.3-3.5-.5s-2.1-.5-3-.8c-1.8-.6-3-1.2-3-1.2zm11.2-4.1s.4 0 1 .1 1.6.2 2.6.4c2.2.3 5 .7 7.9 1.1 2.9.4 5.7.8 7.9 1 1.1.1 2 .3 2.6.4.6.1 1 .2 1 .2s-.4.1-1 .2-1.6.3-2.7.4c-1.1.1-2.4.2-3.8.1-.7 0-1.4 0-2.1-.1-.7 0-1.5-.1-2.2-.2-.7-.1-1.5-.2-2.2-.4-.7-.1-1.4-.3-2.1-.5-1.3-.4-2.6-.7-3.6-1.2-1-.4-1.9-.8-2.5-1.1l-.8-.4zm34.7 1.5s.5 0 1.3-.1c.8 0 2-.1 3.4-.1s3-.1 4.8-.1 3.6-.1 5.5-.1c1.9-.1 3.7-.1 5.5-.2 1.8-.1 3.4-.1 4.8-.2 1.4 0 2.6-.1 3.4-.1h1.3s-1.8.6-4.6 1.2c-1.4.3-3 .6-4.8.8l-2.7.3c-.9.1-1.9.1-2.8.2h-2.8c-.9 0-1.9-.1-2.7-.1-1.8-.1-3.4-.3-4.8-.5s-2.6-.4-3.4-.6c-.9-.3-1.4-.4-1.4-.4zm45.6.9h16c.8 0 1.6 0 2.4-.1 1.6 0 3.1-.1 4.4-.1s2.5.1 3.2.4c.4.1.6.3.8.4.2.1.3.2.3.2s-.4-.1-1.1-.2c-.7-.1-1.7.1-3 .3-1.2.3-2.7.5-4.3.7-.8.1-1.6.2-2.5.2-.8 0-1.7.1-2.6.1h-2.6c-.8 0-1.7-.1-2.5-.2-1.6-.1-3.1-.4-4.4-.6-1.3-.2-2.3-.5-3-.7s-1.1-.4-1.1-.4zm36.7-.8s1.4-.4 3.5-.7c1.1-.2 2.3-.4 3.6-.5 1.3-.2 2.7-.3 4.2-.4 1.4-.1 2.8-.2 4.2-.2 1.3 0 2.6-.1 3.7 0 2.2 0 3.6.2 3.6.2s-1.4.5-3.5.9c-1.1.2-2.3.5-3.6.6-1.3.2-2.8.3-4.2.5-1.4.1-2.9.2-4.2.2-1.3 0-2.6 0-3.7-.1-2.1-.3-3.6-.5-3.6-.5zm32.2-.4s.3 0 .9-.1h5.6c1.2 0 2.4.1 3.7.1 1.3 0 2.5.1 3.7.2 1.2.1 2.3.1 3.3.2s1.8.2 2.3.2c.6.1.9.1.9.1s-1.2.5-3.2.8c-1 .2-2.1.3-3.3.4-.6 0-1.2.1-1.9.1h-1.9c-1.3-.1-2.6-.2-3.8-.4-1.2-.2-2.3-.4-3.3-.7-1.8-.4-3-.9-3-.9zm-157-7.1s1.3-.3 3.2-.4c.9-.1 2.1-.2 3.2-.2h3.7c1.3.1 2.5.1 3.7.3 1.2.1 2.3.3 3.2.4.9.2 1.7.4 2.3.5.5.2.8.3.8.3s-1.3.1-3.2.3c-.9.1-2.1.2-3.2.2h-3.7c-1.3-.1-2.5-.1-3.7-.3-1.2-.1-2.3-.3-3.2-.4-1.9-.3-3.1-.7-3.1-.7zm26.4.7s-.1.1-.1.2c.1.1.3.2.5.2.6-.1 1.5-.2 2.6-.3 1.1-.1 2.3-.1 3.7-.1 1.4 0 2.8 0 4.2.1 1.4.1 2.9.2 4.2.3 1.3.1 2.6.3 3.7.5 2.1.3 3.6.7 3.6.7s-1.5.3-3.6.4c-1.1.1-2.3.1-3.7.1-1.4 0-2.8 0-4.2-.1-1.4-.1-2.9-.2-4.2-.3-1.3-.1-2.6-.3-3.7-.5s-2-.3-2.6-.5c-.4-.1-.6-.4-.6-.6 0 0 .1-.1.2-.1zm38.3.6s1.8-.2 4.6-.3h4.7c.9 0 1.7 0 2.6.1.9 0 1.8.1 2.7.1.9.1 1.8.1 2.7.2.9.1 1.8.2 2.6.3 1.7.2 3.3.4 4.6.6 2.7.4 4.5.9 4.5.9s-1.8.2-4.6.3h-4.7c-.9 0-1.7 0-2.6-.1-.9 0-1.8-.1-2.7-.1-.9-.1-1.8-.1-2.7-.2-.9-.1-1.8-.2-2.6-.3-1.7-.2-3.3-.4-4.6-.6-2.7-.5-4.5-.9-4.5-.9zm43.7 1.3s1.7-.4 4.2-.8c1.3-.2 2.7-.4 4.3-.5.8-.1 1.6-.1 2.4-.2.8 0 1.7-.1 2.5-.1h5c1.6 0 3.1.1 4.3.3 2.5.2 4.2.6 4.2.6s-1.7.3-4.2.6c-1.3.1-2.7.3-4.3.4-.8 0-1.6.1-2.4.1s-1.7.1-2.5.1h-4.9c-1.6 0-3.1 0-4.3-.1-2.6-.1-4.3-.4-4.3-.4zm35.3-2.2s.3 0 .9-.1h2.4c1 0 2.1 0 3.3.1 1.2 0 2.5.1 3.8.2s2.6.2 3.8.3c1.2.1 2.3.2 3.3.3 1 .1 1.8.2 2.3.3.6.1.9.2.9.2s-1.3.4-3.2.7c-1 .1-2.1.2-3.3.3h-1.9c-.6 0-1.3 0-1.9-.1-1.3-.1-2.6-.2-3.8-.4-1.2-.2-2.3-.4-3.3-.7-2.1-.6-3.3-1.1-3.3-1.1zm-142.5 36.5s2.6.1 7.3.2c4.6.2 11.3.2 19.2.4 15.9.1 37.1.3 58.3.5 10.6.2 21.2.4 31.1.5 5 0 9.8.1 14.3.1s8.9 0 12.8-.1c7.9-.1 14.6-.3 19.2-.5s7.3-.3 7.3-.3-.7.1-1.9.2-3 .3-5.4.5c-2.3.2-5.1.4-8.3.6-3.2.2-6.9.4-10.8.6-4 .2-8.3.3-12.8.4-4.6.1-9.4.2-14.3.2-9.9 0-20.5-.1-31.1-.2-10.6-.2-21.2-.4-31.1-.6-9.9-.2-19.2-.5-27.1-.8s-14.6-.8-19.2-1.1c-2.3-.2-4.1-.3-5.4-.4-1.5-.1-2.1-.2-2.1-.2z"/><path class="st0" d="M303.2 670c9.5.6 18.9 2.9 28.4 3.8 9.5.9 19.5.3 27.9-4.3"/></svg>