<?xml version="1.0" encoding="utf-8"?>
<!-- Generator: Adobe Illustrator 19.2.0, SVG Export Plug-In . SVG Version: 6.00 Build 0)  -->
<svg version="1.1" id="Layer_1" xmlns="http://www.w3.org/2000/svg" xmlns:xlink="http://www.w3.org/1999/xlink" x="0px" y="0px"
	 viewBox="0 0 700 700" style="enable-background:new 0 0 700 700;" xml:space="preserve">
<style type="text/css">
	.st0{fill:none;}
	.st1{fill:none;stroke:#000000;stroke-width:5;stroke-miterlimit:10;}
	.st2{opacity:0.9;fill:url(#SVGID_1_);}
	.st3{fill:#5E2C03;}
	.st4{fill:none;stroke:#000000;stroke-width:2;stroke-miterlimit:10;}
</style>
<rect x="0" y="0" class="st0" width="700" height="700"/>
<path class="st1" d="M6708.6-568.1c0.3,38.5,0.2,82.4-5.7,120.5c-2.3,14.7-3.7,31.7-10.6,44.9c-9.4,17.9-18.6,35.9-34,49.5
	c-5.5,4.9-11.5,9.2-17.9,12.8c-4.2,2.3-15.3,5.1-15.9,10.8c-0.4,3.6,3.8,5.7,6.9,7.6c6.9,4.3,10.9,12.3,11.6,20.4
	c1.5,15.4-5.6,30.7-18.9,38.8c-0.8,0.5-1.6,1-1.9,1.8c-0.7,2.1,2.1,3.4,4.2,3.8c12.1,2.1,24,5,35.7,8.7c7.7,2.4,24.3,10.6,12,18.5
	c-7.7,4.9-17,6.2-26,7.3c-24.7,3.1-49.7,6.2-74.5,3.9c-5.6-0.5-11.2-1.4-16.8-2.2c-7.5-1.1-15-2.2-22.5-3.3
	c-5.3-0.8-11.8-2.7-12.7-7.9c-1.7-10.2,16.6-15.1,23.6-17.2c4.9-1.5,36.5-4.6,35.6-9.3c-0.5-2.4-2.8-3.9-4.8-5.4
	c-8.9-6.4-15-16.4-16.6-27.2c-1.6-10.8,1.3-22.2,7.9-30.9c2.2-2.9,4.9-6,4.4-9.6c-0.2-1.5-1-2.9-2-4.1c-5.1-6.7-15.9-9.5-22.8-14.7
	c-7.9-6-15.2-12.8-21.6-20.4c-12.5-14.5-22.1-31.5-27.6-49.9c-5.2-17.2-6.9-35.3-8.2-53.2c-2.3-31-3.6-62-3.8-93.1
	c20.2-2.4,42-1.8,62.4-1.4C6600.9-567.5,6708.6-570.2,6708.6-568.1z"/>
<g>
	<path d="M6582-253.2c0,0,0,0.2,0,0.5c0,0.3,0,0.8,0,1.4c0,0.6,0.1,1.3,0.6,1.9c0.4,0.6,1.2,0.8,2.2,0.8c2.1-0.1,4.5-0.2,7.1-0.2
		c1.3,0,2.7-0.1,4-0.1c1.4-0.1,2.8-0.1,4.1-0.2c1.4-0.1,2.8-0.1,4.1-0.2c1.4-0.1,2.7-0.1,4-0.2c2.6-0.1,5-0.2,7.1-0.3
		c2-0.1,3.7-0.6,4.6-1.3c0.4-0.4,0.7-0.8,0.8-1.1c0.1-0.3,0.2-0.5,0.2-0.5s0,0.2,0,0.5c-0.1,0.3-0.2,0.8-0.6,1.3
		c-0.4,0.5-1.1,1-1.9,1.4c-0.8,0.4-1.8,0.7-2.8,0.8c-2.1,0.4-4.5,0.7-7.1,0.9c-1.3,0.1-2.7,0.3-4,0.4c-1.4,0.1-2.8,0.2-4.2,0.2
		c-1.4,0-2.8,0.1-4.2,0.1c-1.4,0-2.7,0-4.1,0c-2.6-0.1-5.1-0.2-7.2-0.4c-0.5-0.1-1.1-0.1-1.6-0.4c-0.5-0.3-0.9-0.7-1.1-1.1
		c-0.4-0.9-0.4-1.7-0.3-2.3c0.1-0.6,0.2-1.1,0.3-1.4C6581.9-253,6582-253.2,6582-253.2z"/>
</g>
<g>
	<path d="M6581.6-337.8c0,0,0.6,0.2,1.6,0.5c0.5,0.2,1.2,0.3,1.9,0.5c0.7,0.2,1.6,0.4,2.4,0.5c0.9,0.2,1.9,0.3,2.9,0.5
		c1,0.1,2.1,0.2,3.3,0.3c1.1,0.1,2.3,0.1,3.5,0.2c1.2,0,2.4,0,3.6,0c1.2,0,2.5,0,3.7-0.1c1.2,0,2.4-0.1,3.6-0.1
		c2.3-0.1,4.5-0.1,6.3-0.3c1.8-0.2,3.2-0.6,4.1-1.2c0.4-0.3,0.8-0.6,1-0.8c0.2-0.2,0.3-0.3,0.3-0.3s-0.1,0.1-0.2,0.4
		c-0.2,0.3-0.4,0.6-0.8,1c-0.8,0.8-2.3,1.6-4.2,2c-0.9,0.2-2,0.4-3,0.5c-1.1,0.1-2.2,0.3-3.3,0.4c-1.2,0.1-2.4,0.2-3.6,0.3
		c-1.2,0.1-2.5,0.1-3.7,0.2c-1.3,0-2.5,0-3.7-0.1c-0.6,0-1.2-0.1-1.8-0.1c-0.6-0.1-1.2-0.1-1.8-0.2c-1.2-0.1-2.3-0.4-3.4-0.6
		c-0.5-0.1-1-0.3-1.5-0.4c-0.5-0.2-1-0.3-1.4-0.4c-1.8-0.6-3.2-1.3-4.2-1.8C6582.2-337.5,6581.6-337.8,6581.6-337.8z"/>
</g>
<g>
	<path d="M6531.5-235.7c0,0,0.1,0.1,0.3,0.3c0.2,0.2,0.5,0.4,1,0.6c0.9,0.5,2.3,1,4.2,1.4c1.9,0.4,4.2,0.7,6.8,1.1
		c2.6,0.4,5.6,0.7,8.9,1.1c3.3,0.3,6.8,0.7,10.6,1c3.7,0.3,7.7,0.5,11.8,0.7c8.2,0.3,17,0.5,25.7,0.6c4.4,0.1,8.8,0.1,13.1,0.2
		c4.3,0,8.5,0.1,12.6,0c4.1-0.1,8-0.4,11.7-0.8c3.7-0.5,7.2-1.1,10.4-1.7c6.4-1.4,11.6-3,15.2-4.3c1.8-0.7,3.2-1.2,4.2-1.6
		c1-0.4,1.5-0.6,1.5-0.6s-0.5,0.2-1.4,0.7c-0.9,0.4-2.3,1.1-4.1,1.8c-3.5,1.5-8.7,3.5-15.1,5.1c-6.4,1.6-14.1,2.9-22.3,3.2
		c-4.1,0.2-8.4,0.2-12.7,0.2c-4.3,0-8.7-0.1-13.1-0.1c-4.4-0.1-8.8-0.2-13.1-0.3c-4.3-0.1-8.6-0.4-12.7-0.6c-4.1-0.3-8.1-0.6-11.8-1
		c-3.8-0.4-7.3-0.8-10.6-1.3c-1.6-0.3-3.2-0.5-4.7-0.7c-1.5-0.3-2.9-0.5-4.2-0.8c-2.6-0.5-4.9-1-6.8-1.5c-1.9-0.5-3.3-1.1-4.1-1.7
		c-0.4-0.3-0.7-0.5-0.9-0.7C6531.6-235.6,6531.5-235.7,6531.5-235.7z"/>
</g>
<linearGradient id="SVGID_1_" gradientUnits="userSpaceOnUse" x1="6498.813" y1="-446.2358" x2="6704.6909" y2="-446.2358">
	<stop  offset="1.785714e-02" style="stop-color:#801FE3"/>
	<stop  offset="1" style="stop-color:#B7A7FF"/>
</linearGradient>
<path class="st2" d="M6498.8-539.9c1.4,24.4,2.7,48.8,4.1,73.2c0.4,7.9,0.9,15.9,2.2,23.7c1.8,11.1,5.4,21.8,8.9,32.5
	c3,9.1,6,18.2,11.1,26.3c17.8,28.1,51.5,32.7,81.9,31.3c10.6-0.5,21.3-1.5,31.5-4.7c66.9-21.3,65.2-117,66.1-172.7
	c0-2.6,0.1-5.1,0.1-7.7C6636-535.8,6567.2-534,6498.8-539.9z"/>
<g>
	<path d="M6493.7-559.6c0,0,0.6,8.1,1.5,22.2c0.5,7.1,1,15.6,1.7,25.5c0.6,9.8,1.4,20.9,2.1,33.1c0.4,6.1,0.7,12.4,1.3,18.9
		c0.5,6.5,1.4,13.2,3,19.9c1.6,6.7,3.7,13.5,6,20.4c2.4,6.9,4.5,14,7.5,20.9c0.8,1.7,1.5,3.4,2.4,5.1c0.9,1.6,1.8,3.3,2.8,4.8
		c1.1,1.6,2.2,3.1,3.4,4.7c1.2,1.4,2.5,2.8,3.7,4.3c5.3,5.5,11.7,10,18.8,13.2c7.1,3.3,14.8,5.4,22.6,6.6c7.9,1.3,15.9,1.7,23.9,1.7
		c8-0.1,16.1-0.4,24-1.5c3.9-0.5,7.9-1.2,11.7-2.2c1-0.3,1.9-0.5,2.8-0.8l0.7-0.2c0.1,0,0,0,0.1,0l0.2-0.1l0.4-0.1l1.4-0.5l2.8-1
		c0.5-0.2,0.9-0.3,1.4-0.5l1.3-0.6c7.1-3.1,13.7-7.4,19.4-12.5c5.7-5.1,10.5-11.1,14.4-17.5c4-6.3,7.1-13.1,9.7-19.8
		c2.6-6.8,4.6-13.6,6.3-20.3c3.2-13.5,5-26.5,6.2-38.5c1.1-12.1,1.7-23.2,2-33c0.3-9.9,0.5-18.4,0.7-25.5
		c0.2-14.2,0.4-22.2,0.4-22.2s0,2,0.1,5.8c0,3.8,0.1,9.4,0.2,16.4c0,7.1,0,15.7-0.2,25.5c-0.1,9.9-0.5,21-1.5,33.1
		c-1,12.1-2.6,25.2-5.7,38.9c-1.6,6.8-3.6,13.7-6.1,20.6c-2.5,6.9-5.7,13.8-9.8,20.3c-4,6.5-9,12.7-14.8,18.1
		c-5.9,5.4-12.7,9.8-20.2,13.1l-1.4,0.6c-0.5,0.2-0.9,0.4-1.4,0.5l-2.8,1l-1.4,0.5l-0.4,0.1l-0.2,0.1l-0.2,0.1l-0.7,0.2
		c-1,0.3-2,0.6-2.9,0.8c-3.9,1-8,1.8-12,2.4c-8.1,1.1-16.2,1.5-24.4,1.6c-8.2,0-16.3-0.5-24.4-1.8c-8-1.3-16-3.5-23.3-7
		c-7.4-3.4-14.1-8.1-19.6-13.9c-1.3-1.5-2.6-3.1-3.9-4.6c-1.1-1.6-2.2-3.2-3.3-4.7c-2.2-3.4-3.9-6.8-5.4-10.4
		c-3-7.1-5.2-14.2-7.5-21.2c-2.2-7-4.3-13.9-5.8-20.7c-1.6-6.9-2.4-13.6-2.8-20.2c-0.5-6.6-0.7-12.9-1-18.9
		c-0.6-12.1-1.1-23.2-1.6-33.1c-0.5-9.9-0.8-18.4-1.2-25.5C6494-551.6,6493.7-559.6,6493.7-559.6z"/>
</g>
<g>
	<path d="M6494.1-544.2c0,0,0.8,0,2.4,0.1c1.6,0.1,3.8,0.2,6.7,0.3c2.9,0.2,6.4,0.3,10.5,0.5c4,0.2,8.6,0.3,13.6,0.5
		c5,0.2,10.4,0.3,16.1,0.5c5.7,0.2,11.7,0.2,17.9,0.4c6.2,0.1,12.6,0.1,19.2,0.2c6.5,0.1,13.2,0,19.8,0.1c6.6,0,13.3,0,19.8-0.1
		c6.5-0.1,13-0.1,19.2-0.2c12.5-0.1,24.1-0.2,34-0.3c10-0.1,18.3-0.1,24.1-0.1c2.9,0,5.2,0,6.7,0c1.6,0,2.4,0,2.4,0
		s-0.8,0.1-2.4,0.2c-1.6,0.1-3.8,0.2-6.7,0.4c-5.8,0.3-14.1,0.8-24.1,1.3c-10,0.5-21.6,0.9-34,1.3c-6.2,0.1-12.7,0.4-19.2,0.4
		c-6.5,0.1-13.2,0.1-19.8,0.2c-6.6,0-13.3,0-19.8-0.2c-6.5-0.1-13-0.3-19.2-0.4c-6.2-0.2-12.3-0.4-18-0.8c-2.9-0.2-5.6-0.3-8.3-0.5
		c-2.7-0.2-5.3-0.4-7.8-0.5c-2.5-0.2-4.9-0.3-7.1-0.5c-2.3-0.2-4.4-0.4-6.4-0.6c-4-0.4-7.6-0.7-10.4-1c-2.9-0.3-5.2-0.6-6.7-0.7
		C6494.9-544.1,6494.1-544.2,6494.1-544.2z"/>
</g>
<g>
	<path class="st3" d="M444.2,504.6c-18.1,0.9-38.5,1.4-56.6,2.2c-8.6,0.4-17.3,0.8-25.9,0.6c-10-0.2-20-1.2-30-1.9
		c-24.5-1.8-48-1.3-72.5,0.3c-0.3,11.8-0.6,23.8,2.6,35.1c2.3,8.3,6.5,17,3.6,25.1c-0.6,1.8-1.6,3.5-1.4,5.4c0.4,3.1,2,5,2,8.4
		c0,4.2,0,8.4,0.1,12.6c0,2.1,0,4.2-0.8,6.1c-0.5,1.2-1.4,2.3-1.2,3.6c0.1,0.9,0.7,1.8,1.1,2.6c1.1,2.2,1.2,4.8,1.3,7.3
		c0.1,2.4,0.3,4.9,0.5,7.2c0.2,2.2-1,4.4-1.3,6.6c-0.5,3.8,1.9,7,2.4,10.6c0.6,4.4,0.6,9.2,0.5,13.7c0,9.3,1.4,18.3,2,27.6
		c0.1,1.1,0.1,2.3,0.6,3.4c0.7,1.6,2.1,2.7,3.5,3.8c5,3.9,10.2,7.8,16.1,10.1c5.6,2.1,11.6,2.7,17.5,3.2c8.8,0.8,17.6,1.6,26.5,1.7
		c13.9,0.2,27.8-1.3,41.8-0.8c4.1,0.2,8.3,0.5,12.4-0.3c2.6-0.5,5-1.4,7.4-2.3c4.4-1.7,8.9-3.3,13.3-5c6.8-2.6,14.1-5.4,18.2-11.5
		c6-8.9,3.1-20.7,4-31.4c0.5-5.1-0.5-6.4-0.5-11.5c0-1.7,0-3.5,0.8-4.9c0.5-1,1.5-1.9,1.5-3.1c0-0.9-0.4-1.6-0.8-2.4
		c-1.1-2.8-1.7-17.4,0.4-20.9c0.8-1.3,2.8-2.8,3-4.4c0.3-1.9-1.5-4.1-2-5.9c-0.8-2.9,0.9-9.5,1.7-12.4c1.4-5,5-3,3-8.5
		c-2.7-7.4,0.5-18,1.5-25.4c1-7.1,1.8-11.6,3.1-18.7C443.9,529,446.7,504.5,444.2,504.6z M272.6,554.7c0.6-3.6,3.5-3.5,3.9,0.3
		c0.5,4.2,0.2,8.4-0.1,12.6c-0.1,0.8-0.2,1.7-0.8,2c-0.7,0.4-1.7,0-2.1-0.7c-0.4-0.7-0.5-1.6-0.5-2.4
		C272.9,562.8,272,558.4,272.6,554.7z M273.2,580.1c0.5-3.1,2.5-4,3.8-0.2c1.7,4.9,1.5,10.2,1.3,15.3c0,0.6-0.1,1.4-0.7,1.6
		c-0.2,0.1-0.5,0.1-0.8,0.1c-1.2,0-2.6-0.1-3.4-1c-0.7-0.8-0.7-2-0.7-3C273,588.8,272.6,584.3,273.2,580.1z M279.9,650.5
		c-1.6,0.1-3.1-0.7-4.5-1.4c-0.5-0.2-1-0.5-1.3-0.9c-0.6-0.7-0.6-1.7-0.6-2.6c0-3.4,0-6.8,0-10.3c0-0.7,0-1.4,0.5-1.8
		c0.6-0.5,1.5-0.3,2.2-0.1C282.6,635.4,279.9,645.2,279.9,650.5z M280.6,629.4c-1.5-0.5-3.1-1-4.4-1.8c-1.4-0.9-2.5-2.1-2.9-3.7
		c-0.2-0.8-0.1-1.7-0.1-2.6c0.3-4.7,0.6-9.3,0.8-14c0-0.6,0.1-1.2,0.5-1.6c0.2-0.2,0.4-0.3,0.7-0.4
		C283.3,602.2,280.5,625.4,280.6,629.4z M285.6,555.4c2.1-2.5,4.5-0.1,5.4,2.3c1,2.5,1.6,5.1,1.8,7.7c0.2,2,0,4.4-1.8,5.3
		c-0.7,0.4-1.4,0.5-2.2,0.5c-0.6,0-1.3,0-1.9-0.3c-1.1-0.5-1.8-1.6-2.1-2.7c-0.3-1.2-0.2-2.4-0.1-3.6
		C284.8,562.5,284.1,557.1,285.6,555.4z M285.4,581.5c1.5-6.1,5.7-1.3,6.9,2.5c0.3,1,0.4,2.1,0.5,3.1c0.3,3.9,0.5,7.8-0.3,11.6
		c-0.1,0.5-0.3,1.1-0.7,1.3c-0.3,0.2-0.7,0.1-1,0.1c-1.4-0.2-2.9-0.4-4.3-0.7c-0.4-0.1-0.7-0.2-1-0.4c-0.2-0.3-0.3-0.6-0.3-1
		C284.8,592.7,284.2,586.5,285.4,581.5z M292.6,653.4c-1.2-0.5-2.5-1-3.7-1.5c-0.9-0.4-1.8-0.8-2.3-1.6c-0.3-0.6-0.3-1.4-0.3-2.1
		c0.1-2.5-0.4-9.3,1.7-11.1c2.4-2.1,5.1,0.5,5,3.1C292.8,644.7,292.7,649,292.6,653.4z M294.8,626.5c0,0.5,0,1.1-0.3,1.5
		c-0.2,0.3-0.5,0.6-0.9,0.8c-2.3,1.4-5.6,1.6-7.4-0.5c-1.3-1.5-1.3-3.8-1.1-5.8c0.2-3.4-0.2-15.4,5.7-14.6
		C295.9,608.7,294.9,622.8,294.8,626.5z M350.5,601.9c0.1-2.6,0.2-5.2,0.3-7.8c0.1-3.2,0.4-6.7,2.4-9.2c0.3-0.3,0.6-0.7,1-0.8
		c3.3-1.7,5.9,3.5,6.1,5.9c0.2,3.4,0.5,6.7,0.7,10.1c0,0.7,0.1,1.4-0.2,2c-0.5,1-1.8,1.3-2.8,1.4c-2,0.2-4,0.3-6.1,0.1
		c-0.4,0-0.9-0.1-1.1-0.4C350.4,602.6,350.4,602.2,350.5,601.9z M307.4,657.9c-0.7,0.2-1.5,0.3-2.2-0.1c-0.6-0.4-0.9-1.2-1-1.9
		c-1.2-5.1-2.5-10.2-3.7-15.2c-0.1-0.4-0.2-0.9-0.2-1.3c0-3.9,5.1-3.2,7.5-2.5c3.6,1,4.5,3.1,4.6,7c0.1,4.3,0.2,8.5,0.3,12.8
		C311,657.1,309.2,657.5,307.4,657.9z M315.3,626.6c-0.9,1.5-3.1,1.5-4.8,1.3c-0.8-0.1-1.7-0.2-2.5-0.3c-0.3,0-0.7-0.1-1-0.3
		c-0.5-0.3-0.6-1-0.7-1.6c-0.4-3.8-2.7-11.7,0.5-14.8c3.8-3.7,8.8-0.2,8.8,4.3c0,2.9,0,5.8,0,8.7C315.8,625,315.8,625.9,315.3,626.6
		z M316.3,599.5c-0.4,0.9-0.9,1.7-1.7,2.3c-1.5,1.1-3.7,0.8-5.1-0.4c-1.4-1.2-2.2-3-2.5-4.8c-0.3-1.8-0.2-3.6-0.4-5.5
		c-0.1-2-0.4-4,0-5.9c0.8-3.4,4-4.9,7.1-3.3c1.9,1,3.9,2.2,4.6,4.2c0.3,0.7,0.3,1.5,0.3,2.3C318.9,592.2,318,596,316.3,599.5z
		 M319.1,570.8c-0.6,1.4-2,2.2-3.5,2.4c-1.5,0.2-2.9-0.1-4.3-0.5c-0.4-0.1-0.8-0.2-1.1-0.4c-0.7-0.5-0.8-1.4-0.9-2.3
		c-0.3-3.2-2.4-10.5-1-13.4c1.3-2.8,8-3,9.8-0.6c0.7,1,0.9,2.3,0.9,3.5c0.2,2.9,0.3,5.8,0.4,8.6C319.5,569.1,319.5,570,319.1,570.8z
		 M332.9,656.4c-3,3.1-7.2,0.5-8-2.9c-1.2-5.1-1.5-10.5-1-15.7c0-0.5,0.1-1,0.5-1.3c0.3-0.2,0.7-0.2,1.1-0.2c1.1,0,2.2,0.1,3.2,0.1
		c1.7,0,3.7,0.2,4.7,1.7c0.5,0.8,0.6,1.9,0.6,2.9C334,644.6,335.7,653.4,332.9,656.4z M330.6,630.7c-0.9,0-1.8,0.1-2.7-0.3
		c-1.1-0.5-1.7-1.7-1.9-2.9s0-2.4,0.2-3.6c0.5-3.5-0.2-9.2,1.2-12.3c1.5-3.2,5.8-1.6,8.8-1.4c0.5,6.5,0.9,12.9,1.4,19.4
		C335.4,630.4,333,630.6,330.6,630.7z M340.1,593.2c0,2.3-0.1,4.6-0.1,6.9c0,0.6,0,1.3-0.3,1.8c-0.6,1.3-2.3,1.8-3.7,2.1
		c-2.1,0.4-4.5,0.8-6.1-0.6c-1.4-1.2-1.6-3.3-1.6-5.2c-0.1-3.8,0.2-7.6,0.8-11.4c0.2-1.3,0.7-3,2-3.3c2.9-0.7,7.2,0.8,8.4,3.6
		C340.1,589.1,340.1,591.2,340.1,593.2z M340.9,568c-0.5,5.5-1.5,5.7-6.6,5.9c-0.6,0-1.2,0.1-1.7-0.1c-0.7-0.3-1-1.2-1.1-2
		c-1-4.9-1.3-10-1-15c0.3-4.8,12.1-6.2,11.8,1.1C342.2,561.3,341.2,564.7,340.9,568z M356.8,658.2c-0.3,0.4-0.8,0.5-1.2,0.7
		c-1,0.4-2.1,0.8-3.1,1.1c-1.7,0.6-3.7,1.2-5.1,0c-1-0.8-1.2-2.2-1.4-3.5c-0.9-7-4.8-18.6,6-18c1.1,0.1,2.4,0.3,3,1.2
		c0.4,0.5,0.5,1.2,0.6,1.8c0.8,4.9,1.3,9.8,1.6,14.8C357.2,657.1,357.2,657.8,356.8,658.2z M361.2,632.5c0,0.2,0,0.4-0.2,0.5
		c-0.2,0.2-0.5,0.2-0.8,0.2c-2.6-0.1-5.2-0.2-7.7-0.3c-0.8,0-1.7-0.1-2.4-0.4c-2.2-1-2.5-4-2.4-6.5c0.1-4.7-0.1-9.6,0.4-14.3
		c3.2-0.2,6.6-0.3,9.8-0.5c0.6,0,1.1,0,1.6,0.2c1.2,0.5,1.5,2.1,1.6,3.4C361.7,620.7,361.7,626.6,361.2,632.5z M362.5,572.8
		c-0.1,0.4-0.2,0.9-0.5,1.2c-0.3,0.3-0.8,0.3-1.3,0.3c-1.4,0-2.9,0-4.3,0c-0.5,0-1,0-1.3-0.3c-0.5-0.3-0.6-1-0.7-1.6
		c-0.6-3.6-0.9-7.3-1.2-11c-0.1-1.4-0.2-2.9,0.5-4.1c2-3.3,7.3-4.9,9.2-1.1C365,560.4,363.2,568.3,362.5,572.8z M377.5,656.9
		c-0.1,0.9-0.3,1.8-1,2.3c-1,0.6-2.4-0.2-3.5,0.1c-1,0.2-1.7,1.2-2.7,1.1c-1.2-0.1-1.6-1.6-1.8-2.7c-0.4-2.8-0.5-5.8-1.1-8.6
		c-0.4-2-1.6-3.6-2.1-5.5c-0.6-2.5-0.3-3.8,1.9-4.6c1.3-0.5,5.8-0.9,7.2-0.4c1.9,0.7,2.6,3.1,2.9,5.2
		C377.8,648,377.9,652.5,377.5,656.9z M380.6,630.9c-2.9,0-5.8,0.1-8.7,0.1c-0.5,0-1,0-1.3-0.3c-0.3-0.3-0.4-0.7-0.4-1.1
		c-0.6-4.1-1.6-12.1,0.6-15.8c1.2-1.9,7.2-3.9,9.3-2.7c1.4,0.7,1.7,2.5,1.8,4C382.2,620.4,381.8,625.7,380.6,630.9z M381.7,600.4
		c0,0.4-0.1,0.9-0.4,1.2c-0.3,0.3-0.8,0.2-1.2,0.2c-1.2-0.1-2.4-0.2-3.6-0.3c-0.4,0-0.7-0.1-1-0.3c-0.4-0.3-0.5-0.7-0.6-1.1
		c-0.9-2.8-1.2-5.8-1.1-8.7c0.1-3.3,3.8-9,7.5-5.2C383.7,588.7,381.8,597.2,381.7,600.4z M385.3,570c-0.2,1-0.4,2.1-1.1,2.8
		c-0.8,0.8-2.1,1-3.2,1.1c-0.9,0.1-1.9,0.2-2.8-0.3c-1-0.6-1.4-1.9-1.7-3.1c-1.1-4.5-2.3-9.1-1.6-13.6c0.1-0.7,0.4-1.5,1-1.7
		c0.4-0.1,0.7,0,1.1,0.1c4.9,1.2,9.3-1.4,9.2,5.7C386.2,564,385.7,567,385.3,570z M411.8,608.1c5.7,2.4,2,17.6,1.3,22.1
		c0,0.2-0.1,0.4-0.2,0.6c-0.2,0.2-0.5,0.2-0.7,0.2c-1.9-0.1-4-0.3-5-1.9c-0.7-1-0.6-2.3-0.6-3.5
		C406.7,622.2,405.1,605.2,411.8,608.1z M399.4,657.5c0,0.2-0.1,0.5-0.3,0.6c-0.1,0.1-0.3,0.1-0.5,0.1c-1.5,0-2.9-0.1-4.4-0.1
		c-0.6,0-1.1,0-1.6-0.4c-0.5-0.4-0.6-1-0.8-1.6c-0.9-3.9-4.4-11.8-1.7-15.3c2.5-3.3,8.8-3.6,9.3,1.2
		C400.1,647.1,400,652.3,399.4,657.5z M389.8,613.1c3.8-0.9,8-4.1,9.2,1.3c1.1,4.9-0.1,11.6-0.5,16.6c0,0.6-0.1,1.3-0.4,1.8
		c-0.3,0.6-0.9,1-1.5,0.9c-0.4-0.1-0.8-0.4-1.1-0.6c-1.3-0.9-3-1.3-4.1-2.5c-1.4-1.5-1.5-3.7-1.5-5.8
		C389.8,621,389.8,617.1,389.8,613.1z M402.4,589.3c-0.1,3.2-0.1,6.3-0.2,9.5c0,0.8-0.1,1.7-0.8,2.1c-0.4,0.2-0.8,0.1-1.2,0.1
		c-1.1-0.1-2.3-0.2-3.4-0.3c-0.7-0.1-1.4-0.1-1.9-0.6c-0.7-0.6-0.8-1.7-0.7-2.7c0.1-3.8,0.2-7.6,0.3-11.3c0-0.2,0-0.5,0.2-0.7
		c0.2-0.2,0.4-0.2,0.7-0.2c1.7,0,5.3-0.9,6.4,0.9C402.4,587,402.4,588.2,402.4,589.3z M405.4,560.8c-0.1,2.9-0.3,5.9-0.4,8.8
		c-0.1,1.6-0.2,3.2-1,4.6c-1.1,1.7-3.5,2.5-5.4,1.7c-0.3-0.1-0.6-0.3-0.8-0.5c-0.3-0.3-0.4-0.8-0.4-1.2c-0.6-4.7,0.8-11.8,2.6-16.1
		C402.2,552.6,405.6,556.3,405.4,560.8z M416.2,656.1c-0.2,0.2-0.5,0.3-0.8,0.4c-2.5,0.6-5.1,0.4-7.4-0.6c-0.8-0.3-2-14.1-1.6-15.4
		c1-3.4,6.1-4.3,8.5-1.6c0.3,0.3,0.5,0.6,0.6,1c0.1,0.4,0.2,0.8,0.2,1.2c0.2,4.7,0.5,9.4,0.7,14.1
		C416.4,655.4,416.4,655.8,416.2,656.1z M417.1,587.6c-0.1,3.2-0.3,6.4-0.4,9.6c-0.1,1.7-0.1,3.3-0.5,5c-0.1,0.3-0.2,0.7-0.4,0.8
		c-0.3,0.2-0.7,0.2-1,0.1c-1.6-0.2-3.3-0.3-4.9-0.5c-0.5-0.1-1.1-0.1-1.5-0.5c-0.4-0.4-0.3-1-0.3-1.6c0.2-3.4,0.5-6.8,0.8-10.2
		c0.5-4.8,0.9-4.5,5.7-4.8c0.8-0.1,1.8,0,2.3,0.7C417.1,586.5,417.1,587.1,417.1,587.6z M412.7,574.4c-0.6-0.2-1.3-0.3-1.8-0.8
		c-0.7-0.7-0.7-1.9-0.7-3c0.3-6.6-2.7-21.3,8.4-15.9c0.5,0.2,1,0.5,1.3,0.9c0.3,0.5,0.4,1.1,0.4,1.7c0.1,4.3,0,8.6-0.2,12.8
		c-0.1,1.2-0.2,2.5-1,3.5C417.6,575.4,414.9,575,412.7,574.4z M425.6,604c3.4,0.8,1.2,6.7,0.9,9.5c-0.1,1.2-0.6,13.1-0.9,13.2
		c-1.9,0.5-4,0-5.5-1.2C420,621.7,418.9,602.5,425.6,604z M427.5,646.7c-0.1,0.3-0.3,0.6-0.6,0.9c-1.1,1.3-2.1,2.7-3.2,4
		c-0.2,0.2-0.4,0.5-0.7,0.5c-0.5,0-0.8-0.7-0.8-1.2c-0.4-3.7-0.9-7.5-1.3-11.2c-0.1-0.4-0.1-0.9,0.1-1.3c0.2-0.5,0.7-0.8,1.1-1.1
		c1.7-1.2,2.8-3.2,4.4-1.6c1.2,1.2,1,7.6,1.1,9.4C427.6,645.6,427.7,646.2,427.5,646.7z M428.9,591.6c0,1.4,0.1,2.8-0.5,4.1
		c-0.7,1.3-2,2.2-3.3,2.7c-0.5,0.2-1.1,0.3-1.5-0.1c-0.2-0.3-0.2-0.6-0.2-0.9c0.2-3.6-0.8-12.6,1.9-15.2
		C429.8,577.8,428.9,589.5,428.9,591.6z M432.8,569.7c0,0.9-0.2,2-0.9,2.5c-1.5,1.2-3.6-0.9-5.5-0.8c-0.2-3.4,0.2-6.8,0.6-10.1
		c0.3-2.4,0.6-4.8,1.8-6.9c2.1-3.6,4.4-1.3,4.6,1.6C433.8,560.5,433,565.3,432.8,569.7z"/>
	<path class="st4" d="M256.7,505.8c-0.3,11.8-0.6,23.8,2.6,35.1c2.3,8.3,6.5,17,3.6,25.1c-0.6,1.8-1.6,3.5-1.4,5.4
		c0.4,3.1,2,5,2,8.4c0,4.2,0,8.4,0.1,12.6c0,2.1,0,4.2-0.8,6.1c-0.5,1.2-1.4,2.3-1.2,3.6c0.1,0.9,0.7,1.8,1.1,2.6
		c1.1,2.2,1.2,4.8,1.3,7.3c0.1,2.4,0.3,4.9,0.5,7.2c0.2,2.2-1,4.4-1.3,6.6c-0.5,3.8,1.9,7,2.4,10.6c0.6,4.4,0.6,9.2,0.5,13.7
		c0,9.3,1.4,18.3,2,27.6c0.1,1.1,0.1,2.3,0.6,3.4c0.7,1.6,2.1,2.7,3.5,3.8c5,3.9,10.2,7.8,16.1,10.1c5.6,2.1,11.6,2.7,17.5,3.2
		c8.8,0.8,17.6,1.6,26.5,1.7c13.9,0.2,27.8-1.3,41.8-0.8c4.1,0.2,8.3,0.5,12.4-0.3c2.6-0.5,5-1.4,7.4-2.3c4.4-1.7,8.9-3.3,13.3-5
		c6.8-2.6,14.1-5.4,18.2-11.5c6-8.9,3.1-20.7,4-31.4c0.5-5.1-0.5-6.4-0.5-11.5c0-1.7,0-3.5,0.8-4.9c0.5-1,1.5-1.9,1.5-3.1
		c0-0.9-0.4-1.6-0.8-2.4c-1.1-2.8-1.7-17.4,0.4-20.9c0.8-1.3,2.8-2.8,3-4.4c0.3-1.9-1.5-4.1-2-5.9c-0.8-2.9,0.9-9.5,1.7-12.4
		c1.4-5,5-3,3-8.5c-2.7-7.4,0.5-18,1.5-25.4c1-7.1,1.8-11.6,3.1-18.7c0.3-1.6,3.1-26.2,0.6-26.1c-18.1,0.9-38.5,1.4-56.6,2.2
		c-8.6,0.4-17.3,0.8-25.9,0.6c-10-0.2-20-1.2-30-1.9C304.8,503.8,281.2,504.2,256.7,505.8z"/>
	<path class="st4" d="M270.6,566.5c0,0.8,0.1,1.7,0.5,2.4c0.4,0.7,1.4,1.1,2.1,0.7c0.7-0.4,0.8-1.3,0.8-2c0.3-4.2,0.6-8.4,0.1-12.6
		c-0.4-3.8-3.3-3.9-3.9-0.3S270.4,562.8,270.6,566.5z"/>
	<path class="st4" d="M282.2,564.7c-0.1,1.2-0.1,2.4,0.1,3.6c0.3,1.2,1,2.3,2.1,2.7c0.6,0.2,1.3,0.3,1.9,0.3c0.8,0,1.5-0.1,2.2-0.5
		c1.7-1,2-3.4,1.8-5.3c-0.3-2.6-0.9-5.2-1.8-7.7c-0.9-2.4-3.3-4.9-5.4-2.3C281.7,557.1,282.4,562.5,282.2,564.7z"/>
	<path class="st4" d="M306.9,570c0.1,0.8,0.2,1.8,0.9,2.3c0.3,0.2,0.7,0.3,1.1,0.4c1.4,0.3,2.9,0.7,4.3,0.5s2.9-1,3.5-2.4
		c0.3-0.8,0.3-1.7,0.3-2.6c-0.1-2.9-0.2-5.8-0.4-8.6c-0.1-1.2-0.2-2.6-0.9-3.5c-1.8-2.4-8.5-2.2-9.8,0.6
		C304.5,559.5,306.6,566.8,306.9,570z"/>
	<path class="st4" d="M328.1,556.8c-0.3,5,0,10.1,1,15c0.2,0.8,0.4,1.6,1.1,2c0.5,0.2,1.1,0.1,1.7,0.1c5.1-0.2,6.1-0.5,6.6-5.9
		c0.3-3.3,1.3-6.7,1.4-10C340.2,550.7,328.4,552,328.1,556.8z"/>
	<path class="st4" d="M351.3,557.2c-0.7,1.2-0.6,2.7-0.5,4.1c0.3,3.7,0.6,7.3,1.2,11c0.1,0.6,0.2,1.3,0.7,1.6
		c0.4,0.3,0.9,0.3,1.3,0.3c1.4,0,2.9,0,4.3,0c0.4,0,0.9,0,1.3-0.3c0.3-0.3,0.4-0.8,0.5-1.2c0.6-4.5,2.5-12.3,0.4-16.6
		C358.6,552.3,353.3,554,351.3,557.2z"/>
	<path class="st4" d="M374.6,555.3c-0.4-0.1-0.7-0.2-1.1-0.1c-0.7,0.2-0.9,1-1,1.7c-0.7,4.6,0.4,9.2,1.6,13.6
		c0.3,1.2,0.7,2.5,1.7,3.1c0.8,0.5,1.8,0.4,2.8,0.3c1.2-0.1,2.4-0.3,3.2-1.1c0.7-0.7,0.9-1.8,1.1-2.8c0.5-3,1-6,1-9
		C383.9,553.9,379.5,556.5,374.6,555.3z"/>
	<path class="st4" d="M270.4,593c0,1.1,0,2.2,0.7,3c0.8,0.9,2.2,1.1,3.4,1c0.3,0,0.6,0,0.8-0.1c0.6-0.3,0.6-1,0.7-1.6
		c0.2-5.2,0.4-10.4-1.3-15.3c-1.3-3.8-3.4-3-3.8,0.2C270.1,584.3,270.5,588.8,270.4,593z"/>
	<path class="st4" d="M282.7,597.9c0,0.4,0.1,0.7,0.3,1c0.2,0.3,0.6,0.4,1,0.4c1.4,0.3,2.8,0.5,4.3,0.7c0.3,0,0.7,0.1,1-0.1
		c0.5-0.2,0.6-0.8,0.7-1.3c0.8-3.8,0.6-7.7,0.3-11.6c-0.1-1-0.2-2.1-0.5-3.1c-1.2-3.8-5.5-8.6-6.9-2.5
		C281.7,586.5,282.4,592.7,282.7,597.9z"/>
	<path class="st4" d="M304.3,585.2c-0.4,1.9-0.1,3.9,0,5.9c0.1,1.8,0,3.7,0.4,5.5s1.1,3.6,2.5,4.8c1.4,1.2,3.6,1.5,5.1,0.4
		c0.8-0.6,1.3-1.4,1.7-2.3c1.7-3.4,2.5-7.3,2.5-11.1c0-0.8-0.1-1.6-0.3-2.3c-0.7-2-2.7-3.2-4.6-4.2
		C308.3,580.3,305.1,581.8,304.3,585.2z"/>
	<path class="st4" d="M328.5,583.6c-1.3,0.3-1.8,1.9-2,3.3c-0.6,3.8-0.8,7.6-0.8,11.4c0,1.9,0.2,4,1.6,5.2c1.6,1.4,4,1.1,6.1,0.6
		c1.4-0.3,3.1-0.7,3.7-2.1c0.3-0.6,0.3-1.2,0.3-1.8c0-2.3,0.1-4.6,0.1-6.9c0-2,0.1-4.2-0.7-6C335.7,584.4,331.4,582.9,328.5,583.6z"
		/>
	<path class="st4" d="M351.7,583.9c-0.4,0.2-0.7,0.5-1,0.8c-2,2.5-2.3,6-2.4,9.2c-0.1,2.6-0.2,5.2-0.3,7.8c0,0.4,0,0.8,0.2,1.1
		c0.3,0.3,0.7,0.4,1.1,0.4c2,0.2,4.1,0.1,6.1-0.1c1.1-0.1,2.3-0.4,2.8-1.4c0.3-0.6,0.3-1.3,0.2-2c-0.2-3.4-0.5-6.7-0.7-10.1
		C357.6,587.4,355.1,582.2,351.7,583.9z"/>
	<path class="st4" d="M371.2,591.4c-0.1,2.9,0.3,5.9,1.1,8.7c0.1,0.4,0.3,0.9,0.6,1.1c0.3,0.2,0.7,0.3,1,0.3
		c1.2,0.1,2.4,0.2,3.6,0.3c0.4,0,0.9,0.1,1.2-0.2c0.3-0.3,0.4-0.8,0.4-1.2c0.1-3.3,2-11.7-0.5-14.3
		C375,582.5,371.4,588.1,371.2,591.4z"/>
	<path class="st4" d="M392.9,585.2c-0.2,0-0.5,0-0.7,0.2c-0.2,0.2-0.2,0.4-0.2,0.7c-0.1,3.8-0.2,7.6-0.3,11.3c0,1,0,2.1,0.7,2.7
		c0.5,0.5,1.3,0.5,1.9,0.6c1.1,0.1,2.3,0.2,3.4,0.3c0.4,0,0.8,0.1,1.2-0.1c0.7-0.3,0.8-1.3,0.8-2.1c0.1-3.2,0.1-6.3,0.2-9.5
		c0-1.1,0-2.4-0.6-3.3C398.2,584.3,394.7,585.2,392.9,585.2z"/>
	<path class="st4" d="M394.8,574.2c0.1,0.4,0.1,0.9,0.4,1.2c0.2,0.2,0.5,0.4,0.8,0.5c1.9,0.8,4.3,0,5.4-1.7c0.9-1.3,1-3,1-4.6
		c0.1-2.9,0.3-5.9,0.4-8.8c0.2-4.5-3.1-8.2-5.5-2.7C395.5,562.5,394.1,569.5,394.8,574.2z"/>
	<path class="st4" d="M278.2,629.4c-1.5-0.5-3.1-1-4.4-1.8c-1.4-0.9-2.5-2.1-2.9-3.7c-0.2-0.8-0.1-1.7-0.1-2.6
		c0.3-4.7,0.6-9.3,0.8-14c0-0.6,0.1-1.2,0.5-1.6c0.2-0.2,0.4-0.3,0.7-0.4C280.8,602.2,278.1,625.4,278.2,629.4z"/>
	<path class="st4" d="M277.4,650.5c-1.6,0.1-3.1-0.7-4.5-1.4c-0.5-0.2-1-0.5-1.3-0.9c-0.6-0.7-0.6-1.7-0.6-2.6c0-3.4,0-6.8,0-10.3
		c0-0.7,0-1.4,0.5-1.8c0.6-0.5,1.5-0.3,2.2-0.1C280.1,635.4,277.5,645.2,277.4,650.5z"/>
	<path class="st4" d="M283.8,648.3c0,0.7,0,1.4,0.3,2.1c0.5,0.8,1.4,1.2,2.3,1.6c1.2,0.5,2.5,1,3.7,1.5c0.1-4.4,0.3-8.8,0.4-13.2
		c0.1-2.6-2.6-5.2-5-3.1C283.4,639,283.9,645.7,283.8,648.3z"/>
	<path class="st4" d="M282.7,622.5c-0.1,2-0.2,4.3,1.1,5.8c1.7,2,5.1,1.8,7.4,0.5c0.3-0.2,0.7-0.4,0.9-0.8c0.3-0.4,0.3-1,0.3-1.5
		c0.1-3.7,1.1-17.9-4-18.6C282.5,607,282.9,619.1,282.7,622.5z"/>
	<path class="st4" d="M303.9,625.8c0.1,0.6,0.2,1.2,0.7,1.6c0.3,0.2,0.6,0.2,1,0.3c0.8,0.1,1.7,0.2,2.5,0.3c1.8,0.2,3.9,0.2,4.8-1.3
		c0.5-0.7,0.5-1.7,0.5-2.5c0-2.9,0-5.8,0-8.7c0-4.5-5-8.1-8.8-4.3C301.2,614.2,303.5,622,303.9,625.8z"/>
	<path class="st4" d="M297.8,639.4c0,0.4,0.1,0.9,0.2,1.3c1.2,5.1,2.5,10.2,3.7,15.2c0.2,0.7,0.4,1.5,1,1.9c0.6,0.4,1.4,0.2,2.2,0.1
		c1.8-0.4,3.6-0.8,5.4-1.2c-0.1-4.3-0.2-8.5-0.3-12.8c-0.1-3.9-1-5.9-4.6-7C303,636.2,297.9,635.5,297.8,639.4z"/>
	<path class="st4" d="M331.5,640.9c0-1,0-2.1-0.6-2.9c-0.9-1.4-2.9-1.6-4.7-1.7c-1.1,0-2.2-0.1-3.2-0.1c-0.4,0-0.8,0-1.1,0.2
		c-0.4,0.3-0.5,0.8-0.5,1.3c-0.5,5.2-0.1,10.6,1,15.7c0.8,3.4,5.1,6,8,2.9C333.2,653.4,331.5,644.6,331.5,640.9z"/>
	<path class="st4" d="M343.5,656.6c0.2,1.3,0.4,2.7,1.4,3.5c1.4,1.1,3.4,0.6,5.1,0c1-0.4,2.1-0.8,3.1-1.1c0.4-0.2,0.9-0.3,1.2-0.7
		c0.4-0.5,0.4-1.2,0.3-1.8c-0.3-5-0.8-9.9-1.6-14.8c-0.1-0.6-0.2-1.3-0.6-1.8c-0.7-0.9-1.9-1.1-3-1.2
		C338.7,638,342.7,649.6,343.5,656.6z"/>
	<path class="st4" d="M365.9,657.6c0.2,1.2,0.6,2.6,1.8,2.7c1,0.1,1.8-0.8,2.7-1.1c1.2-0.3,2.5,0.5,3.5-0.1c0.7-0.4,0.9-1.4,1-2.3
		c0.5-4.4,0.3-8.8-0.3-13.2c-0.3-2.1-1-4.4-2.9-5.2c-1.4-0.5-5.9-0.1-7.2,0.4c-2.2,0.8-2.5,2.1-1.9,4.6c0.5,1.9,1.7,3.5,2.1,5.5
		C365.4,651.8,365.5,654.7,365.9,657.6z"/>
	<path class="st4" d="M389.5,656.1c0.1,0.6,0.3,1.2,0.8,1.6c0.4,0.3,1,0.4,1.6,0.4c1.5,0,2.9,0.1,4.4,0.1c0.2,0,0.4,0,0.5-0.1
		c0.2-0.1,0.2-0.4,0.3-0.6c0.6-5.1,0.6-10.3,0.1-15.5c-0.5-4.8-6.8-4.5-9.3-1.2C385.1,644.3,388.6,652.3,389.5,656.1z"/>
	<path class="st4" d="M405.5,655.8c2.3,1,5,1.2,7.4,0.6c0.3-0.1,0.6-0.2,0.8-0.4c0.2-0.3,0.2-0.6,0.2-1c-0.2-4.7-0.5-9.4-0.7-14.1
		c0-0.4,0-0.8-0.2-1.2c-0.1-0.4-0.4-0.7-0.6-1c-2.4-2.6-7.5-1.7-8.5,1.6C403.5,641.7,404.8,655.5,405.5,655.8z"/>
	<path class="st4" d="M419.6,637.3c-0.4,0.3-0.9,0.6-1.1,1.1c-0.2,0.4-0.1,0.9-0.1,1.3c0.4,3.7,0.9,7.5,1.3,11.2
		c0.1,0.5,0.3,1.2,0.8,1.2c0.3,0,0.5-0.3,0.7-0.5c1.1-1.3,2.1-2.7,3.2-4c0.2-0.3,0.4-0.6,0.6-0.9c0.2-0.5,0.1-1,0.1-1.5
		c-0.2-1.8,0.1-8.1-1.1-9.4C422.3,634.1,421.3,636.1,419.6,637.3z"/>
	<path class="st4" d="M423.1,626.7c-1.9,0.5-4,0-5.5-1.2c0-3.8-1.2-23,5.5-21.4c3.4,0.8,1.2,6.7,0.9,9.5
		C423.9,614.7,423.4,626.6,423.1,626.7z"/>
	<path class="st4" d="M410.7,630.2c0,0.2-0.1,0.4-0.2,0.6c-0.2,0.2-0.5,0.2-0.7,0.2c-1.9-0.1-4-0.3-5-1.9c-0.7-1-0.6-2.3-0.6-3.5
		c0.1-3.3-1.5-20.3,5.2-17.5C415,610.5,411.4,625.7,410.7,630.2z"/>
	<path class="st4" d="M396,631c0,0.6-0.1,1.3-0.4,1.8c-0.3,0.6-0.9,1-1.5,0.9c-0.4-0.1-0.8-0.4-1.1-0.6c-1.3-0.9-3-1.3-4.1-2.5
		c-1.4-1.5-1.5-3.7-1.5-5.8c0-3.9-0.1-7.8-0.1-11.8c3.8-0.9,8-4.1,9.2,1.3C397.6,619.3,396.4,626,396,631z"/>
	<path class="st4" d="M367.8,629.6c0.1,0.4,0.1,0.8,0.4,1.1c0.3,0.3,0.8,0.3,1.3,0.3c2.9,0,5.8-0.1,8.7-0.1
		c1.1-5.2,1.6-10.5,1.2-15.8c-0.1-1.5-0.4-3.3-1.8-4c-2.1-1.1-8.1,0.8-9.3,2.7C366.1,617.6,367.2,625.6,367.8,629.6z"/>
	<path class="st4" d="M345.2,626c-0.1,2.4,0.2,5.4,2.4,6.5c0.8,0.4,1.6,0.4,2.4,0.4c2.6,0.1,5.2,0.2,7.7,0.3c0.3,0,0.6,0,0.8-0.2
		c0.1-0.1,0.2-0.4,0.2-0.5c0.5-5.9,0.5-11.8,0-17.7c-0.1-1.3-0.4-2.9-1.6-3.4c-0.5-0.2-1.1-0.2-1.6-0.2c-3.3,0.2-6.6,0.3-9.8,0.5
		C345.1,616.4,345.3,621.3,345.2,626z"/>
	<path class="st4" d="M323.8,623.9c-0.2,1.2-0.4,2.4-0.2,3.6c0.2,1.2,0.8,2.4,1.9,2.9c0.8,0.4,1.8,0.3,2.7,0.3
		c2.4-0.1,4.8-0.3,7-1.2c-0.5-6.5-0.9-12.9-1.4-19.4c-3-0.2-7.3-1.8-8.8,1.4C323.6,614.7,324.3,620.4,323.8,623.9z"/>
	<path class="st4" d="M405.6,600.5c0,0.5,0,1.2,0.3,1.6c0.3,0.4,0.9,0.5,1.5,0.5c1.6,0.2,3.3,0.3,4.9,0.5c0.4,0,0.7,0.1,1-0.1
		c0.3-0.2,0.4-0.5,0.4-0.8c0.4-1.6,0.5-3.3,0.5-5c0.1-3.2,0.3-6.4,0.4-9.6c0-0.5,0-1.1-0.3-1.5c-0.5-0.7-1.5-0.7-2.3-0.7
		c-4.8,0.3-5.2,0-5.7,4.8C406.1,593.7,405.8,597.1,405.6,600.5z"/>
	<path class="st4" d="M421,597.3c0,0.3,0,0.7,0.2,0.9c0.3,0.4,1,0.3,1.5,0.1c1.4-0.5,2.7-1.4,3.3-2.7c0.6-1.2,0.6-2.7,0.5-4.1
		c-0.1-2.1,0.9-13.8-3.6-9.5C420.1,584.7,421.2,593.7,421,597.3z"/>
	<path class="st4" d="M430.3,569.7c0,0.9-0.2,2-0.9,2.5c-1.5,1.2-3.6-0.9-5.5-0.8c-0.2-3.4,0.2-6.8,0.6-10.1
		c0.3-2.4,0.6-4.8,1.8-6.9c2.1-3.6,4.4-1.3,4.6,1.6C431.3,560.5,430.5,565.3,430.3,569.7z"/>
	<path class="st4" d="M407.8,570.7c-0.1,1-0.1,2.2,0.7,3c0.5,0.5,1.1,0.6,1.8,0.8c2.2,0.6,4.9,1,6.3-0.8c0.8-0.9,0.9-2.2,1-3.5
		c0.3-4.3,0.3-8.5,0.2-12.8c0-0.6,0-1.2-0.4-1.7c-0.3-0.4-0.8-0.7-1.3-0.9C405.1,549.4,408.1,564,407.8,570.7z"/>
	<path class="st1" d="M259.5,505.6c-2.3-16.7-5.5-34.4-8.3-51c-1.2-7.1,4.1-5.5,9.6-5.8c6.3-0.3,180.2-3.3,185.5-3
		c0.8,0,1.6,0.1,2.2,0.7c0.7,0.7,0.6,1.8,0.4,2.8c-3.1,17.8-6.6,37.5-9.7,55.3"/>
	<g>
		<path d="M261.1,456.4c0,0,0.4,3.1,1,7.7c0.6,4.6,1.6,10.8,2.6,16.9c1,6.1,2.1,12.2,3,16.8c0.9,4.6,1.5,7.6,1.5,7.6l-3,0.5
			c0,0-0.4-3.1-1.1-7.7c-0.6-4.6-1.4-10.8-2-17c-0.7-6.2-1.2-12.4-1.6-17C261.3,459.5,261.1,456.4,261.1,456.4z"/>
	</g>
	<g>
		<polygon points="441.1,452.5 432.6,504.5 429.8,503.9 430,502.5 433,503.2 432.6,504.6 429.7,504 		"/>
	</g>
	<g>
		<path d="M268.5,649.4c0,0,0.1,0.1,0.3,0.3c0.2,0.2,0.5,0.6,0.9,1c0.8,0.8,2.2,1.8,4.1,2.8c1.9,1,4.4,1.8,7.4,2.3
			c2.9,0.5,6.3,0.8,10,1.5c3.7,0.7,7.6,2,11.6,3.4c2,0.7,4.1,1.4,6.2,1.9c2.1,0.5,4.3,0.9,6.6,1.1c4.5,0.5,9.3,0.4,14.2,0.3
			c4.9-0.1,9.8-0.1,14.8-0.2c9.9-0.1,19.8-0.2,29-0.6c1.2-0.1,2.3-0.1,3.4-0.2c1.1-0.1,2.3-0.1,3.4-0.2c2.2-0.1,4.4-0.2,6.5-0.3
			c4.2-0.2,8.2-0.7,11.9-1.1c3.7-0.5,7.1-0.9,10-1.3c3-0.4,5.6-0.7,7.7-1.1c2.1-0.4,3.8-0.7,4.9-1c1.1-0.3,1.7-0.4,1.7-0.4
			s-0.6,0.2-1.7,0.6c-1.1,0.3-2.7,0.8-4.9,1.3c-2.1,0.5-4.7,1-7.7,1.5c-3,0.5-6.3,1.1-10,1.6c-3.7,0.5-7.7,1.1-11.9,1.5
			c-4.2,0.3-8.7,0.8-13.4,1c-9.3,0.4-19.2,0.7-29.1,0.9c-4.9,0-9.9,0.1-14.8,0.1c-4.9,0-9.7,0.1-14.4-0.5c-2.3-0.3-4.6-0.7-6.8-1.3
			c-2.2-0.6-4.3-1.4-6.3-2.1c-4-1.5-7.7-2.9-11.3-3.7c-3.6-0.8-7-1.2-9.9-1.9c-3-0.7-5.5-1.6-7.4-2.7c-1.9-1-3.2-2.2-4-3.1
			c-0.4-0.4-0.7-0.8-0.9-1C268.6,649.5,268.5,649.4,268.5,649.4z"/>
	</g>
	<g>
		<path d="M283.3,664.9c0,0,0.4,0.1,1.1,0.4c0.7,0.3,1.7,0.7,2.9,1.1c1.2,0.5,2.6,1,4.1,1.6c0.7,0.3,1.5,0.5,2.3,0.8
			c0.8,0.3,1.6,0.6,2.4,0.8c0.8,0.3,1.6,0.6,2.4,0.8c0.8,0.2,1.6,0.5,2.3,0.7c1.5,0.4,3,0.9,4.2,1.2c0.6,0.2,1.2,0.3,1.7,0.5
			c0.5,0.1,0.9,0.3,1.3,0.3c0.7,0.1,1.1-0.2,1.1-0.2c0,0-0.3,0.4-1.1,0.6c-0.4,0.1-0.9,0.1-1.4,0.1c-0.5,0-1.1,0-1.8-0.1
			c-1.3-0.1-2.8-0.3-4.4-0.6c-0.8-0.2-1.6-0.3-2.4-0.6c-0.8-0.2-1.7-0.5-2.5-0.7c-1.6-0.6-3.3-1.2-4.7-1.9c-1.5-0.7-2.8-1.5-3.9-2.2
			c-1.1-0.7-2-1.4-2.6-1.8C283.7,665.2,283.3,664.9,283.3,664.9z"/>
	</g>
	<g>
		<path d="M293.9,677.7c0,0,1.7,0,4.1,0.6c1.2,0.3,2.6,0.6,4.1,1c0.7,0.2,1.5,0.4,2.2,0.7c0.8,0.2,1.5,0.4,2.3,0.6
			c0.8,0.2,1.5,0.4,2.3,0.6c0.8,0.1,1.5,0.3,2.2,0.4c1.5,0.2,2.8,0.4,4,0.4c0.6,0,1.1,0,1.6,0c0.5,0,0.9-0.1,1.3-0.1
			c0.7-0.1,1.1-0.1,1.1-0.1s-0.1,0.1-0.3,0.1c-0.2,0.1-0.4,0.3-0.8,0.4c-0.3,0.2-0.7,0.3-1.2,0.5c-0.5,0.2-1,0.3-1.7,0.4
			c-1.2,0.2-2.7,0.3-4.3,0.2c-0.8-0.1-1.6-0.1-2.4-0.3c-0.8-0.2-1.6-0.3-2.4-0.5c-0.8-0.2-1.6-0.5-2.4-0.7c-0.8-0.3-1.5-0.6-2.2-0.8
			c-1.4-0.6-2.7-1.1-3.8-1.6C295.4,678.4,293.9,677.7,293.9,677.7z"/>
	</g>
	<g>
		<path d="M322.5,672.7c0,0,1.3,0.1,3.2,0.5c0.9,0.2,2,0.4,3.2,0.7c1.1,0.3,2.4,0.6,3.6,0.8c1.2,0.3,2.4,0.6,3.6,0.8
			c0.6,0.1,1.1,0.2,1.7,0.3c0.5,0.1,1,0.2,1.5,0.2c0.9,0.1,1.7,0.2,2.3,0.3c0.6,0.1,0.9,0.1,0.9,0.1s-0.3,0.1-0.9,0.3
			c-0.3,0.1-0.6,0.2-1,0.2c-0.4,0.1-0.8,0.2-1.3,0.2c-1,0.1-2.1,0.1-3.4,0.1c-0.6-0.1-1.2-0.1-1.9-0.2c-0.6-0.1-1.3-0.2-1.9-0.4
			c-0.6-0.2-1.3-0.3-1.9-0.5c-0.6-0.2-1.2-0.4-1.8-0.6c-1.1-0.4-2.2-0.9-3-1.3C323.6,673.4,322.5,672.7,322.5,672.7z"/>
	</g>
	<g>
		<path d="M331.5,685.7c0,0,1.2-0.4,3-0.7c0.9-0.2,1.9-0.3,3.1-0.4c1.1-0.1,2.3-0.1,3.5-0.1c0.6,0,1.2,0,1.8,0.1
			c0.6,0,1.2,0.1,1.7,0.1c1.1,0.1,2.2,0.3,3.1,0.5c1.8,0.3,3,0.8,3,0.8s-1.2,0.2-3,0.4c-0.9,0.1-1.9,0.1-3.1,0.2
			c-1.1,0-2.3,0.1-3.5,0c-1.2,0-2.4-0.1-3.5-0.1c-1.1-0.1-2.2-0.1-3.1-0.2C332.7,686,331.5,685.7,331.5,685.7z"/>
	</g>
	<g>
		<path d="M357.7,677.8c0,0,1-0.4,2.6-0.7c0.8-0.2,1.7-0.3,2.6-0.5c1-0.2,2-0.3,3-0.4c1-0.1,2.1-0.2,3-0.3c1-0.1,1.9-0.1,2.7-0.1
			c1.6,0,2.7,0.1,2.7,0.1s-1,0.5-2.5,1c-0.8,0.3-1.7,0.5-2.6,0.7c-0.5,0.1-1,0.2-1.5,0.3c-0.5,0.1-1,0.1-1.6,0.2
			c-1.1,0.1-2.1,0.2-3.1,0.2c-1,0-1.9,0-2.7-0.1C358.7,678.1,357.7,677.8,357.7,677.8z"/>
	</g>
	<g>
		<path d="M386.8,672.6c0,0,0.3-0.1,0.9-0.2c0.6-0.1,1.3-0.3,2.3-0.5c1.8-0.4,4.3-0.8,6.8-1.3c2.5-0.5,4.9-0.9,6.8-1.3
			c0.9-0.2,1.7-0.3,2.3-0.4c0.6-0.1,0.9-0.1,0.9-0.1s-1.1,0.8-2.8,1.6c-0.9,0.4-1.9,0.8-3.1,1.2c-0.6,0.2-1.2,0.4-1.8,0.5
			c-0.6,0.2-1.2,0.3-1.9,0.4c-0.6,0.1-1.3,0.2-1.9,0.3c-0.6,0.1-1.3,0.1-1.9,0.2c-1.2,0.1-2.3,0.1-3.3,0c-1-0.1-1.8-0.2-2.3-0.3
			C387.1,672.7,386.8,672.6,386.8,672.6z"/>
	</g>
	<g>
		<path d="M400.5,674.6c0,0,0.3-0.1,0.7-0.2c0.4-0.1,1.1-0.3,1.8-0.4c0.4-0.1,0.8-0.2,1.2-0.3c0.4-0.1,0.9-0.2,1.3-0.3
			c0.9-0.2,1.9-0.4,2.8-0.7c1-0.2,1.9-0.5,2.8-0.7c0.4-0.1,0.9-0.2,1.3-0.3c0.4-0.1,0.8-0.2,1.2-0.3c0.7-0.2,1.4-0.3,1.8-0.5
			c0.4-0.1,0.7-0.1,0.7-0.1s-0.2,0.2-0.5,0.5c-0.3,0.3-0.9,0.7-1.5,1.1c-0.7,0.4-1.5,0.9-2.4,1.3c-0.5,0.2-0.9,0.4-1.4,0.5
			c-0.5,0.2-1,0.3-1.5,0.4c-0.5,0.1-1,0.2-1.5,0.3c-0.5,0.1-1,0.1-1.5,0.2c-1,0.1-1.9,0.1-2.7,0c-0.8-0.1-1.5-0.2-1.9-0.3
			C400.7,674.7,400.5,674.6,400.5,674.6z"/>
	</g>
	<g>
		<path d="M373.2,680.7c0,0,0.3-0.1,0.8-0.1c0.5-0.1,1.2-0.2,2.1-0.3c0.9-0.1,1.9-0.2,2.9-0.3c1.1-0.1,2.2-0.2,3.3-0.3
			c1.1-0.1,2.3-0.2,3.3-0.3c1.1-0.1,2.1-0.2,2.9-0.2c0.9-0.1,1.6-0.1,2.1-0.1c0.5,0,0.8,0,0.8,0s-1,0.6-2.7,1.3
			c-0.8,0.3-1.8,0.6-2.9,0.9c-0.5,0.1-1.1,0.3-1.7,0.3c-0.6,0.1-1.2,0.2-1.7,0.2c-0.6,0-1.2,0.1-1.7,0.1c-0.6,0-1.1,0-1.7,0
			c-1.1,0-2.1-0.1-3-0.3C374.3,681.1,373.2,680.7,373.2,680.7z"/>
	</g>
	<g>
		<path d="M389.2,684.7c0,0,0.3-0.1,0.7-0.3c0.5-0.2,1.1-0.4,1.9-0.6c0.8-0.2,1.6-0.5,2.6-0.7c0.9-0.3,2-0.5,3-0.8
			c1-0.3,2-0.5,3-0.7c1-0.2,1.9-0.4,2.6-0.6c0.8-0.2,1.4-0.3,1.9-0.4c0.5-0.1,0.7-0.1,0.7-0.1s-0.8,0.7-2.3,1.5
			c-0.7,0.4-1.6,0.8-2.5,1.2c-0.5,0.2-1,0.4-1.5,0.5c-0.5,0.2-1,0.3-1.6,0.5c-0.5,0.1-1.1,0.3-1.6,0.3c-0.5,0.1-1,0.2-1.5,0.2
			c-1,0.1-2,0.2-2.8,0.1C390.3,685,389.2,684.7,389.2,684.7z"/>
	</g>
	<g>
		<path d="M359.5,687.6c0,0-0.1,0-0.1-0.2c0-0.2,0.2-0.4,0.4-0.5c0.1-0.1,0.3-0.1,0.5-0.2c0.1,0,0.3-0.1,0.5-0.1
			c0.3-0.1,0.7-0.2,1.1-0.2c0.8-0.2,1.8-0.3,2.8-0.4c1-0.1,2.2-0.2,3.3-0.3c1.1,0,2.2-0.1,3.3,0c1,0,2,0.1,2.9,0.2
			c0.8,0.1,1.5,0.1,2,0.1c0.5,0,0.8,0,0.8,0s-0.2,0.2-0.7,0.4c-0.5,0.2-1.2,0.5-2,0.6c-0.8,0.2-1.8,0.3-2.9,0.4
			c-1,0.1-2.2,0.2-3.3,0.3c-1.1,0-2.2,0-3.3,0c-1,0-2-0.1-2.9-0.2c-0.4,0-0.8-0.1-1.1-0.1c-0.2,0-0.3,0-0.5-0.1c-0.2,0-0.2,0-0.3,0
			c-0.2,0-0.4,0.1-0.4,0.2C359.4,687.5,359.5,687.6,359.5,687.6z"/>
	</g>
	<g>
		<path d="M342.2,681.6c0,0,0.3-0.1,0.7-0.2c0.5-0.1,1.2-0.3,2-0.4c0.8-0.1,1.8-0.1,2.9-0.1c1,0,2.2,0.2,3.2,0.3
			c1.1,0.2,2.2,0.4,3.2,0.7c1,0.3,1.9,0.5,2.7,0.8c1.6,0.5,2.6,1.1,2.6,1.1s-1.1,0.1-2.8,0.1c-0.8,0-1.8-0.1-2.8-0.2
			c-1-0.1-2.1-0.3-3.2-0.5c-1.1-0.2-2.1-0.4-3.1-0.6c-1-0.2-1.9-0.4-2.7-0.5c-0.8-0.2-1.5-0.3-1.9-0.4
			C342.4,681.7,342.2,681.6,342.2,681.6z"/>
	</g>
	<g>
		<path d="M311.2,676.3c0,0,0.3,0,0.8,0c0.5,0,1.2,0.1,2,0.2c0.8,0.1,1.8,0.2,2.8,0.4c1,0.1,2.1,0.3,3.1,0.5
			c1.1,0.2,2.1,0.3,3.1,0.5c1,0.2,1.9,0.3,2.8,0.5c0.8,0.2,1.5,0.3,2,0.4c0.5,0.1,0.8,0.2,0.8,0.2s-1.1,0.4-2.8,0.5
			c-0.8,0.1-1.8,0.1-2.9,0.1c-0.5,0-1.1,0-1.6-0.1c-0.6,0-1.1-0.1-1.7-0.2c-0.6-0.1-1.1-0.2-1.6-0.3c-0.5-0.1-1.1-0.3-1.6-0.4
			c-1-0.3-1.9-0.6-2.7-1C312.1,677,311.2,676.3,311.2,676.3z"/>
	</g>
	<g>
		<path d="M278.2,676.3c0,0,0.3,0,0.9,0.2c0.6,0.2,1.3,0.6,2.1,1c0.4,0.2,0.9,0.4,1.4,0.6c0.5,0.2,1,0.5,1.5,0.7
			c1.1,0.5,2.2,0.9,3.3,1.4c0.6,0.2,1.1,0.4,1.7,0.6c0.6,0.2,1.1,0.4,1.7,0.6c1.1,0.4,2.1,0.7,3,1c0.9,0.3,1.7,0.5,2.2,0.7
			c0.5,0.2,0.8,0.3,0.8,0.3s-0.3,0.1-0.9,0.1c-0.6,0.1-1.4,0.1-2.3,0.1c-0.5,0-1-0.1-1.6-0.1c-0.6-0.1-1.1-0.1-1.7-0.3
			c-0.6-0.1-1.2-0.3-1.8-0.4c-0.6-0.2-1.2-0.4-1.8-0.6c-0.6-0.2-1.2-0.5-1.8-0.8c-0.6-0.3-1.1-0.6-1.6-0.9c-1-0.6-2-1.3-2.7-1.9
			c-0.7-0.6-1.3-1.2-1.7-1.6C278.5,676.5,278.2,676.3,278.2,676.3z"/>
	</g>
	<g>
		<path d="M310.9,686.4c0,0,1.4,0,3.6,0.2c1.1,0.1,2.3,0.2,3.6,0.4c1.3,0.2,2.7,0.4,4.1,0.7c1.4,0.3,2.7,0.6,4,1
			c1.3,0.3,2.4,0.7,3.4,0.9c1,0.2,1.9,0.4,2.5,0.5c0.6,0.1,1,0.1,1,0.1s-0.3,0.1-1,0.3c-0.6,0.1-1.5,0.3-2.6,0.3
			c-1.1,0-2.4-0.2-3.7-0.4c-1.3-0.2-2.7-0.4-4.1-0.7c-1.4-0.3-2.7-0.6-4-1c-1.3-0.3-2.5-0.7-3.5-1
			C312.2,687,310.9,686.4,310.9,686.4z"/>
	</g>
	<g>
		<path d="M269.6,540.9c0,0,1.4-0.2,3.6-0.3c1.1-0.1,2.3-0.1,3.7-0.1c1.3,0,2.8,0.1,4.2,0.1c1.4,0.1,2.8,0.2,4.2,0.4
			c1.3,0.2,2.6,0.3,3.6,0.5c2.1,0.4,3.5,0.8,3.5,0.8s-1.4,0.2-3.6,0.3c-1.1,0.1-2.3,0.1-3.7,0.1c-1.3,0-2.8-0.1-4.2-0.1
			c-1.4-0.1-2.8-0.2-4.2-0.4c-1.3-0.2-2.6-0.3-3.6-0.5C271,541.4,269.6,540.9,269.6,540.9z"/>
	</g>
	<g>
		<path d="M305.4,541.1c0,0,0.4,0,1.1,0c0.7,0,1.7,0,2.9,0.1c1.2,0,2.5,0.1,4,0.1c0.7,0,1.5,0,2.2,0c0.8,0,1.5,0,2.3,0
			c0.8,0,1.5,0,2.3-0.1c0.8-0.1,1.5,0,2.3-0.1c1.5,0,2.9,0,4.1,0.1c1.2,0.1,2.2,0.3,2.9,0.4c0.7,0.2,1.1,0.3,1.1,0.3s-0.4,0-1.1,0.1
			c-0.7,0.1-1.7,0.2-2.8,0.3c-1.2,0.2-2.5,0.4-4,0.5c-0.7,0.1-1.5,0.2-2.3,0.3c-0.8,0.1-1.6,0.1-2.4,0.1c-0.8,0-1.6,0-2.4,0
			c-0.8,0-1.6-0.1-2.3-0.2c-1.5-0.2-2.9-0.4-4-0.7C306.8,541.7,305.4,541.1,305.4,541.1z"/>
	</g>
	<g>
		<path d="M339.1,541.4c0,0,0.4,0,1.2,0.1c0.4,0,0.9,0,1.4,0.1c0.5,0,1.1,0,1.8,0c0.6,0,1.3,0,2.1-0.1c0.7,0,1.5-0.1,2.3-0.2
			c1.6-0.1,3.3-0.3,5.1-0.4c0.9-0.1,1.7-0.1,2.6-0.2c0.9-0.1,1.7,0,2.5-0.1c1.7,0,3.2,0.1,4.5,0.4c0.7,0.1,1.3,0.2,1.8,0.4
			c0.5,0.1,1,0.3,1.3,0.4c0.7,0.3,1.1,0.5,1.1,0.5s-0.4,0-1.2-0.1c-0.4,0-0.8,0-1.4,0c-0.5,0-1.1,0-1.8,0c-0.6,0-1.3,0-2.1,0.1
			c-0.7,0-1.5,0.1-2.3,0.2c-1.6,0.1-3.3,0.3-5.1,0.4c-0.9,0.1-1.7,0.1-2.6,0.2c-0.9,0.1-1.7,0-2.5,0c-1.7,0-3.2-0.1-4.5-0.4
			c-0.3-0.1-0.6-0.1-0.9-0.2c-0.3-0.1-0.6-0.2-0.8-0.2c-0.5-0.1-1-0.3-1.3-0.4C339.5,541.6,339.1,541.4,339.1,541.4z"/>
	</g>
	<g>
		<path d="M376.5,541.3c0,0,0.4,0,1-0.1c0.7,0,1.6-0.1,2.7-0.1c1.1-0.1,2.4-0.1,3.7-0.2c1.4-0.1,2.8-0.1,4.3-0.2
			c1.5,0,2.9-0.1,4.3-0.1c1.4,0,2.7,0,3.8,0.1c2.2,0.1,3.7,0.4,3.7,0.4s-1.4,0.4-3.6,0.8c-1.1,0.2-2.4,0.4-3.7,0.5
			c-1.4,0.1-2.8,0.3-4.3,0.3c-1.5,0-3,0-4.4-0.1c-0.7,0-1.4-0.1-2-0.2c-0.6-0.1-1.2-0.2-1.8-0.3c-1.1-0.2-2-0.4-2.6-0.6
			C376.9,541.4,376.5,541.3,376.5,541.3z"/>
	</g>
	<g>
		<path d="M408.7,540.6c0,0,0.4-0.1,1-0.1c0.6-0.1,1.6-0.1,2.7-0.2c1.1-0.1,2.4-0.1,3.7-0.2c1.4,0,2.8-0.1,4.3-0.1
			c1.4,0,2.9,0,4.3,0c1.4,0,2.6,0,3.7,0c1.1,0,2,0.1,2.7,0.1c0.6,0,1,0.1,1,0.1s-1.4,0.5-3.6,1c-1.1,0.2-2.4,0.4-3.7,0.6
			c-0.7,0.1-1.4,0.2-2.1,0.2c-0.7,0.1-1.5,0.1-2.2,0.1c-1.5,0-3,0-4.3-0.1c-1.4-0.1-2.7-0.3-3.8-0.5
			C410.1,541.1,408.7,540.6,408.7,540.6z"/>
	</g>
	<g>
		<path d="M284.9,534.4c0,0,0.4,0.1,1.2,0.2c0.7,0.1,1.8,0.1,3.1,0.1c1.3,0,2.8,0,4.4,0.1c0.8,0,1.6,0,2.5,0.1
			c0.8,0,1.7,0.1,2.5,0.1c0.8,0,1.7,0.1,2.5,0.1c0.8,0,1.7,0.1,2.5,0.1c1.6,0.1,3.1,0.2,4.4,0.3c2.6,0.2,4.3,0.5,4.3,0.5
			s-1.7,0.4-4.3,0.7c-1.3,0.1-2.8,0.3-4.4,0.3c-0.8,0-1.6,0.1-2.5,0c-0.8,0-1.7,0-2.6-0.1c-0.9-0.1-1.7-0.1-2.6-0.2
			c-0.8-0.1-1.7-0.2-2.5-0.2c-0.8-0.1-1.6-0.2-2.3-0.3c-0.7-0.1-1.4-0.2-2.1-0.4c-1.3-0.2-2.3-0.6-3-0.9c-0.4-0.1-0.6-0.3-0.8-0.4
			C285,534.4,284.9,534.4,284.9,534.4z"/>
	</g>
	<g>
		<path d="M325.4,535.1c-0.2-0.1-0.3,0-0.4,0.1c-0.1,0.1-0.1,0.3,0,0.3l-0.1-0.1c2.2-0.3,4.5-0.5,6.7-0.6c2.2-0.1,4.4-0.2,6.7-0.1
			c1.1,0,2.2,0,3.3,0.1c1.1,0.1,2.2,0.1,3.3,0.2c1.1,0.1,2.2,0.2,3.3,0.3c1.1,0.1,2.2,0.3,3.3,0.5c-1.1,0.2-2.2,0.3-3.3,0.5
			c-1.1,0.1-2.2,0.2-3.3,0.3c-1.1,0.1-2.2,0.1-3.3,0.2c-1.1,0-2.2,0-3.3,0c-2.2,0-4.5-0.1-6.7-0.2c-2.2-0.1-4.4-0.3-6.7-0.7l-0.1,0
			l0-0.1c-0.1-0.3,0.1-0.5,0.2-0.6C325.1,535,325.3,535,325.4,535.1z"/>
	</g>
	<g>
		<path d="M360.7,535.8c0,0,1.7-0.4,4.2-0.7c1.2-0.2,2.7-0.3,4.3-0.4c0.8-0.1,1.6-0.1,2.4-0.2c0.8,0,1.7-0.1,2.5-0.1
			c0.8,0,1.7,0,2.5,0c0.8,0,1.6,0,2.4,0c1.6,0,3,0.1,4.3,0.2c2.5,0.2,4.2,0.4,4.2,0.4s-1.7,0.4-4.2,0.7c-1.2,0.2-2.7,0.3-4.3,0.4
			c-0.8,0-1.6,0.1-2.4,0.2c-0.8,0-1.7,0.1-2.5,0.1c-0.8,0-1.7,0-2.5,0c-0.8,0-1.6,0-2.4,0c-1.6,0-3-0.1-4.3-0.2
			C362.4,536.1,360.7,535.8,360.7,535.8z"/>
	</g>
	<g>
		<path d="M395.6,535c0,0,1.5-0.4,3.6-0.6c1.1-0.1,2.4-0.3,3.7-0.4c1.4-0.1,2.8-0.2,4.3-0.2c1.5,0,2.9,0,4.3,0
			c1.4,0,2.7,0.1,3.8,0.2c2.2,0.2,3.7,0.5,3.7,0.5s-1.5,0.4-3.6,0.6c-1.1,0.2-2.4,0.3-3.7,0.4c-1.4,0.1-2.8,0.2-4.3,0.2
			c-1.5,0-2.9,0-4.3,0c-1.4,0-2.7-0.1-3.8-0.2C397.1,535.3,395.6,535,395.6,535z"/>
	</g>
	<g>
		<path d="M428.1,533.2c0,0,0.9-0.3,2.2-0.4c1.3-0.2,3-0.3,4.7-0.2c1.7,0,3.4,0.2,4.7,0.4c1.3,0.2,2.2,0.5,2.2,0.5s-0.8,0.4-2.1,0.7
			c-1.3,0.3-3,0.5-4.7,0.5c-1.7,0-3.5-0.3-4.7-0.6C428.9,533.6,428.1,533.2,428.1,533.2z"/>
	</g>
	<g>
		<path d="M258.9,533.1c0,0,0.3,0,0.8,0c0.5,0,1.2,0,2.1,0.1c0.9,0,1.9,0.1,2.9,0.2c1.1,0.1,2.2,0.2,3.3,0.3
			c1.1,0.1,2.3,0.2,3.3,0.3c1.1,0.1,2.1,0.2,2.9,0.4c0.9,0.1,1.6,0.2,2.1,0.3c0.5,0.1,0.8,0.2,0.8,0.2s-1.1,0.4-2.9,0.7
			c-0.9,0.1-1.9,0.2-3,0.3c-0.5,0-1.1,0-1.7,0c-0.6,0-1.2-0.1-1.7-0.1c-0.6-0.1-1.2-0.1-1.7-0.2c-0.6-0.1-1.1-0.2-1.7-0.3
			c-1.1-0.2-2.1-0.5-2.9-0.8C259.9,533.8,258.9,533.1,258.9,533.1z"/>
	</g>
	<g>
		<path d="M267.4,527.4c0,0,0.1,0,0.3,0c0.2,0,0.4-0.1,0.8,0c0.7,0,1.6,0.1,2.7,0.4c0.5,0.1,1.1,0.3,1.7,0.4
			c0.6,0.1,1.2,0.2,1.9,0.3c1.3,0.2,2.8,0.2,4.2,0.3c1.5,0.1,3,0.3,4.3,0.4c1.4,0.2,2.7,0.4,3.8,0.6c2.2,0.4,3.7,0.8,3.7,0.8
			s-1.5,0.2-3.7,0.3c-1.1,0-2.4,0.1-3.8,0c-1.4,0-2.9-0.1-4.3-0.2c-1.5-0.1-3-0.2-4.4-0.6c-0.7-0.1-1.4-0.4-2-0.6
			c-0.6-0.2-1.2-0.5-1.7-0.8c-1-0.5-1.8-0.9-2.4-1.1C267.8,527.5,267.4,527.4,267.4,527.4z"/>
	</g>
	<g>
		<path d="M302.4,528.9c0,0,0.5,0,1.4,0c0.9,0,2.1,0,3.7,0c1.5,0,3.3,0,5.1,0c1.9,0,3.9,0,5.9,0c2,0,4-0.1,5.9-0.1
			c1.9,0,3.6-0.1,5.1-0.1c1.5,0,2.8,0,3.7-0.1c0.9,0,1.4,0,1.4,0s-0.5,0.2-1.3,0.4c-0.9,0.2-2.1,0.5-3.6,0.8
			c-1.5,0.3-3.3,0.5-5.2,0.7c-0.9,0.1-1.9,0.2-2.9,0.2c-1,0.1-2,0.1-3,0.1c-1,0-2,0-3-0.1c-1,0-2-0.1-2.9-0.2
			c-1.9-0.2-3.7-0.4-5.2-0.6c-1.5-0.2-2.7-0.5-3.6-0.7C302.9,529.1,302.4,528.9,302.4,528.9z"/>
	</g>
	<g>
		<path d="M345.8,528.3c0,0,1.5-0.3,3.8-0.4c1.1-0.1,2.5-0.1,3.9-0.1c1.4,0,3,0,4.5,0.1c1.5,0.1,3,0.2,4.5,0.3
			c1.4,0.1,2.7,0.3,3.9,0.5c2.3,0.3,3.8,0.8,3.8,0.8s-1.5,0.3-3.8,0.4c-1.1,0.1-2.5,0.1-3.9,0.1c-1.4,0-3,0-4.5-0.1
			c-1.5-0.1-3-0.2-4.5-0.3c-1.4-0.1-2.7-0.3-3.9-0.5C347.3,528.7,345.8,528.3,345.8,528.3z"/>
	</g>
	<g>
		<path d="M381,528.7c0,0,0.4-0.1,1-0.2c0.7-0.1,1.6-0.3,2.7-0.5c0.6-0.1,1.1-0.2,1.8-0.3c0.6-0.1,1.3-0.3,2-0.4
			c1.4-0.3,2.9-0.5,4.4-0.7c0.8-0.1,1.5-0.2,2.3-0.2c0.7-0.1,1.5-0.1,2.2-0.1c1.4,0,2.8,0.1,3.9,0.2c0.6,0.1,1.1,0.2,1.6,0.3
			c0.5,0.1,0.9,0.2,1.2,0.3c0.6,0.2,1,0.4,1,0.4s-0.4,0-1.1,0c-0.7,0-1.6,0-2.7,0.1c-0.6,0-1.2,0.1-1.8,0.1c-0.6,0.1-1.3,0.2-2,0.2
			c-1.4,0.2-2.9,0.4-4.3,0.6c-1.5,0.2-3,0.4-4.4,0.5c-1.4,0.1-2.8,0.2-3.9,0.1c-0.6,0-1.1-0.1-1.6-0.1c-0.5,0-0.9-0.1-1.2-0.2
			C381.4,528.8,381,528.7,381,528.7z"/>
	</g>
	<g>
		<path d="M415.1,526.2c0,0,0.4,0,1,0c0.6,0,1.5,0,2.5,0.1c1,0,2.3,0.1,3.5,0.2c1.3,0.1,2.7,0.2,4,0.3c1.4,0.1,2.7,0.2,4,0.3
			c1.3,0.1,2.5,0.2,3.5,0.3c1,0.1,1.9,0.2,2.5,0.3c0.6,0.1,1,0.2,1,0.2s-1.4,0.4-3.5,0.7c-1,0.1-2.3,0.2-3.6,0.3c-0.7,0-1.3,0-2,0
			c-0.7,0-1.4-0.1-2.1-0.1c-0.7-0.1-1.4-0.1-2.1-0.2c-0.7-0.1-1.4-0.2-2-0.3c-1.3-0.2-2.5-0.5-3.5-0.8
			C416.4,526.8,415.1,526.2,415.1,526.2z"/>
	</g>
	<g>
		<path d="M283.8,522c0,0,1.7,0,4.3,0c1.3,0,2.8,0,4.4,0c0.8,0,1.6,0,2.5,0.1c0.8,0,1.7,0,2.5,0.1c0.9,0,1.7,0.1,2.5,0.1
			c0.8,0,1.7,0.1,2.5,0.1c1.6,0.1,3.1,0.2,4.4,0.3c1.3,0.1,2.4,0.2,3.1,0.3c0.8,0.1,1.2,0.1,1.2,0.1s-1.7,0.4-4.3,0.7
			c-1.3,0.2-2.8,0.3-4.4,0.3c-0.8,0-1.6,0.1-2.5,0.1c-0.8,0-1.7,0-2.6,0c-0.9,0-1.7-0.1-2.6-0.1c-0.8,0-1.7-0.1-2.5-0.2
			c-1.6-0.2-3.1-0.4-4.4-0.7C285.5,522.7,283.8,522,283.8,522z"/>
	</g>
	<g>
		<path d="M327.5,521.1c0,0,0.4,0.2,1.1,0.3c0.7,0.1,1.8,0,3.1-0.1c1.3-0.1,2.8-0.1,4.4-0.1c0.8,0,1.6,0,2.5,0c0.8,0,1.7,0,2.6,0.1
			c0.9,0,1.7,0.1,2.6,0.1c0.8,0,1.7,0.1,2.5,0.2c1.6,0.1,3.1,0.3,4.4,0.5c2.6,0.3,4.3,0.7,4.3,0.7s-1.7,0.3-4.3,0.4
			c-1.3,0.1-2.8,0.1-4.4,0.1c-0.8,0-1.6,0-2.5,0c-0.8,0-1.7,0-2.6-0.1c-0.9,0-1.7-0.1-2.6-0.1c-0.8,0-1.7-0.1-2.5-0.2
			c-1.6-0.1-3.1-0.3-4.4-0.5c-1.3-0.2-2.4-0.3-3.1-0.7c-0.4-0.1-0.6-0.3-0.8-0.4C327.6,521.2,327.5,521.1,327.5,521.1z"/>
	</g>
	<g>
		<path d="M366.8,522.6c0,0,1.4-0.3,3.6-0.4c1.1-0.1,2.3-0.1,3.7-0.2c1.3,0,2.8,0,4.2,0c1.4,0,2.8,0.1,4.2,0.2
			c1.3,0.1,2.6,0.2,3.6,0.3c2.1,0.2,3.6,0.5,3.6,0.5s-1.4,0.4-3.6,0.6c-1.1,0.1-2.3,0.2-3.7,0.3c-1.3,0.1-2.8,0.1-4.2,0.1
			c-1.4,0-2.9-0.1-4.2-0.2c-1.3-0.1-2.6-0.3-3.6-0.4C368.2,523,366.8,522.6,366.8,522.6z"/>
	</g>
	<g>
		<path d="M402,521.6c0,0,1.5-0.2,3.8-0.3c1.1,0,2.4-0.1,3.8-0.1c1.4,0,2.9,0,4.4,0.1c1.5,0,3,0.1,4.4,0.2c1.4,0.1,2.7,0.2,3.8,0.3
			c2.2,0.2,3.8,0.5,3.8,0.5s-1.5,0.4-3.8,0.6c-1.1,0.1-2.4,0.2-3.9,0.3c-0.7,0-1.4,0.1-2.2,0c-0.7,0-1.5,0-2.3,0
			c-1.5-0.1-3-0.2-4.4-0.3c-1.4-0.1-2.7-0.3-3.8-0.5C403.4,522.1,402,521.6,402,521.6z"/>
	</g>
	<g>
		<path d="M259.5,519.2c0,0,1.2-0.1,3.1,0c0.9,0,2,0.1,3.1,0.1c1.1,0.1,2.3,0.2,3.5,0.3c1.2,0.1,2.4,0.3,3.5,0.4
			c1.1,0.1,2.1,0.3,3,0.5c1.8,0.3,3,0.7,3,0.7s-1.2,0.3-3,0.5c-0.9,0.1-2,0.1-3.1,0.1c-0.6,0-1.2,0-1.8,0c-0.6,0-1.2-0.1-1.8-0.1
			c-1.2-0.1-2.4-0.3-3.5-0.5c-1.1-0.2-2.1-0.5-3-0.8C260.7,519.8,259.5,519.2,259.5,519.2z"/>
	</g>
	<g>
		<path d="M270.7,515.1c0,0,0.4,0,1,0.1c0.6,0.1,1.6,0.2,2.6,0.4c2.2,0.3,5,0.7,7.9,1.1c2.9,0.4,5.7,0.8,7.9,1
			c1.1,0.1,2,0.3,2.6,0.4c0.6,0.1,1,0.2,1,0.2s-0.4,0.1-1,0.2c-0.6,0.1-1.6,0.3-2.7,0.4c-1.1,0.1-2.4,0.2-3.8,0.1
			c-0.7,0-1.4,0-2.1-0.1c-0.7,0-1.5-0.1-2.2-0.2c-0.7-0.1-1.5-0.2-2.2-0.4c-0.7-0.1-1.4-0.3-2.1-0.5c-1.3-0.4-2.6-0.7-3.6-1.2
			c-1-0.4-1.9-0.8-2.5-1.1C271.1,515.3,270.7,515.1,270.7,515.1z"/>
	</g>
	<g>
		<path d="M305.4,516.6c0,0,0.5,0,1.3-0.1c0.8,0,2-0.1,3.4-0.1c1.4,0,3-0.1,4.8-0.1c1.8,0,3.6-0.1,5.5-0.1c1.9-0.1,3.7-0.1,5.5-0.2
			c1.8-0.1,3.4-0.1,4.8-0.2c1.4,0,2.6-0.1,3.4-0.1c0.8,0,1.3,0,1.3,0s-1.8,0.6-4.6,1.2c-1.4,0.3-3,0.6-4.8,0.8
			c-0.9,0.1-1.8,0.2-2.7,0.3c-0.9,0.1-1.9,0.1-2.8,0.2c-1,0-1.9,0-2.8,0c-0.9,0-1.9-0.1-2.7-0.1c-1.8-0.1-3.4-0.3-4.8-0.5
			c-1.4-0.2-2.6-0.4-3.4-0.6C305.9,516.7,305.4,516.6,305.4,516.6z"/>
	</g>
	<g>
		<path d="M351,517.5c0,0,0.4,0,1.2,0c0.8,0,1.8,0,3.1,0c1.3,0,2.8,0,4.3,0c0.8,0,1.6,0,2.4,0c0.8,0,1.7,0,2.5,0c0.8,0,1.7,0,2.5,0
			c0.8,0,1.6,0,2.4-0.1c1.6,0,3.1-0.1,4.4-0.1c1.3,0,2.5,0.1,3.2,0.4c0.4,0.1,0.6,0.3,0.8,0.4c0.2,0.1,0.3,0.2,0.3,0.2
			s-0.4-0.1-1.1-0.2c-0.7-0.1-1.7,0.1-3,0.3c-1.2,0.3-2.7,0.5-4.3,0.7c-0.8,0.1-1.6,0.2-2.5,0.2c-0.8,0-1.7,0.1-2.6,0.1
			c-0.9,0-1.7,0-2.6,0c-0.8,0-1.7-0.1-2.5-0.2c-1.6-0.1-3.1-0.4-4.4-0.6c-1.3-0.2-2.3-0.5-3-0.7C351.4,517.7,351,517.5,351,517.5z"
			/>
	</g>
	<g>
		<path d="M387.7,516.7c0,0,1.4-0.4,3.5-0.7c1.1-0.2,2.3-0.4,3.6-0.5c1.3-0.2,2.7-0.3,4.2-0.4c1.4-0.1,2.8-0.2,4.2-0.2
			c1.3,0,2.6-0.1,3.7,0c2.2,0,3.6,0.2,3.6,0.2s-1.4,0.5-3.5,0.9c-1.1,0.2-2.3,0.5-3.6,0.6c-1.3,0.2-2.8,0.3-4.2,0.5
			c-1.4,0.1-2.9,0.2-4.2,0.2c-1.3,0-2.6,0-3.7-0.1C389.2,516.9,387.7,516.7,387.7,516.7z"/>
	</g>
	<g>
		<path d="M419.9,516.3c0,0,0.3,0,0.9-0.1c0.6,0,1.4,0,2.3,0c1,0,2.1,0,3.3,0c1.2,0,2.4,0.1,3.7,0.1c1.3,0,2.5,0.1,3.7,0.2
			c1.2,0.1,2.3,0.1,3.3,0.2c1,0.1,1.8,0.2,2.3,0.2c0.6,0.1,0.9,0.1,0.9,0.1s-1.2,0.5-3.2,0.8c-1,0.2-2.1,0.3-3.3,0.4
			c-0.6,0-1.2,0.1-1.9,0.1c-0.6,0-1.3,0-1.9,0c-1.3-0.1-2.6-0.2-3.8-0.4c-1.2-0.2-2.3-0.4-3.3-0.7
			C421.1,516.8,419.9,516.3,419.9,516.3z"/>
	</g>
	<g>
		<path d="M262.9,509.2c0,0,1.3-0.3,3.2-0.4c0.9-0.1,2.1-0.2,3.2-0.2c1.2,0,2.4,0,3.7,0c1.3,0.1,2.5,0.1,3.7,0.3
			c1.2,0.1,2.3,0.3,3.2,0.4c0.9,0.2,1.7,0.4,2.3,0.5c0.5,0.2,0.8,0.3,0.8,0.3s-1.3,0.1-3.2,0.3c-0.9,0.1-2.1,0.2-3.2,0.2
			c-1.2,0-2.4,0-3.7,0c-1.3-0.1-2.5-0.1-3.7-0.3c-1.2-0.1-2.3-0.3-3.2-0.4C264.1,509.6,262.9,509.2,262.9,509.2z"/>
	</g>
	<g>
		<path d="M289.3,509.9c0,0-0.1,0.1-0.1,0.2c0.1,0.1,0.3,0.2,0.5,0.2c0.6-0.1,1.5-0.2,2.6-0.3c1.1-0.1,2.3-0.1,3.7-0.1
			c1.4,0,2.8,0,4.2,0.1c1.4,0.1,2.9,0.2,4.2,0.3c1.3,0.1,2.6,0.3,3.7,0.5c2.1,0.3,3.6,0.7,3.6,0.7s-1.5,0.3-3.6,0.4
			c-1.1,0.1-2.3,0.1-3.7,0.1c-1.4,0-2.8,0-4.2-0.1c-1.4-0.1-2.9-0.2-4.2-0.3c-1.3-0.1-2.6-0.3-3.7-0.5c-1.1-0.2-2-0.3-2.6-0.5
			c-0.4-0.1-0.6-0.4-0.6-0.6C289.1,510,289.2,509.9,289.3,509.9C289.3,509.9,289.3,509.9,289.3,509.9z"/>
	</g>
	<g>
		<path d="M327.6,510.5c0,0,1.8-0.2,4.6-0.3c1.4,0,3,0,4.7,0c0.9,0,1.7,0,2.6,0.1c0.9,0,1.8,0.1,2.7,0.1c0.9,0.1,1.8,0.1,2.7,0.2
			c0.9,0.1,1.8,0.2,2.6,0.3c1.7,0.2,3.3,0.4,4.6,0.6c2.7,0.4,4.5,0.9,4.5,0.9s-1.8,0.2-4.6,0.3c-1.4,0-3,0-4.7,0
			c-0.9,0-1.7,0-2.6-0.1c-0.9,0-1.8-0.1-2.7-0.1c-0.9-0.1-1.8-0.1-2.7-0.2c-0.9-0.1-1.8-0.2-2.6-0.3c-1.7-0.2-3.3-0.4-4.6-0.6
			C329.4,510.9,327.6,510.5,327.6,510.5z"/>
	</g>
	<g>
		<path d="M371.3,511.8c0,0,1.7-0.4,4.2-0.8c1.3-0.2,2.7-0.4,4.3-0.5c0.8-0.1,1.6-0.1,2.4-0.2c0.8,0,1.7-0.1,2.5-0.1
			c0.8,0,1.7,0,2.5,0c0.8,0,1.7,0,2.5,0c1.6,0,3.1,0.1,4.3,0.3c2.5,0.2,4.2,0.6,4.2,0.6s-1.7,0.3-4.2,0.6c-1.3,0.1-2.7,0.3-4.3,0.4
			c-0.8,0-1.6,0.1-2.4,0.1c-0.8,0-1.7,0.1-2.5,0.1c-0.8,0-1.7,0-2.5,0c-0.8,0-1.6,0-2.4,0c-1.6,0-3.1,0-4.3-0.1
			C373,512.1,371.3,511.8,371.3,511.8z"/>
	</g>
	<g>
		<path d="M406.6,509.6c0,0,0.3,0,0.9-0.1c0.6,0,1.4,0,2.4,0c1,0,2.1,0,3.3,0.1c1.2,0,2.5,0.1,3.8,0.2c1.3,0.1,2.6,0.2,3.8,0.3
			c1.2,0.1,2.3,0.2,3.3,0.3c1,0.1,1.8,0.2,2.3,0.3c0.6,0.1,0.9,0.2,0.9,0.2s-1.3,0.4-3.2,0.7c-1,0.1-2.1,0.2-3.3,0.3
			c-0.6,0-1.2,0-1.9,0c-0.6,0-1.3,0-1.9-0.1c-1.3-0.1-2.6-0.2-3.8-0.4c-1.2-0.2-2.3-0.4-3.3-0.7
			C407.8,510.1,406.6,509.6,406.6,509.6z"/>
	</g>
	<g>
		<path d="M264.1,546.1c0,0,2.6,0.1,7.3,0.2c4.6,0.2,11.3,0.2,19.2,0.4c15.9,0.1,37.1,0.3,58.3,0.5c10.6,0.2,21.2,0.4,31.1,0.5
			c5,0,9.8,0.1,14.3,0.1c4.5,0,8.9,0,12.8-0.1c7.9-0.1,14.6-0.3,19.2-0.5c4.6-0.2,7.3-0.3,7.3-0.3s-0.7,0.1-1.9,0.2
			c-1.2,0.1-3,0.3-5.4,0.5c-2.3,0.2-5.1,0.4-8.3,0.6c-3.2,0.2-6.9,0.4-10.8,0.6c-4,0.2-8.3,0.3-12.8,0.4c-4.6,0.1-9.4,0.2-14.3,0.2
			c-9.9,0-20.5-0.1-31.1-0.2c-10.6-0.2-21.2-0.4-31.1-0.6c-9.9-0.2-19.2-0.5-27.1-0.8c-7.9-0.3-14.6-0.8-19.2-1.1
			c-2.3-0.2-4.1-0.3-5.4-0.4C264.7,546.2,264.1,546.1,264.1,546.1z"/>
	</g>
	<path class="st0" d="M300.7,667.9c9.5,0.6,18.9,2.9,28.4,3.8c9.5,0.9,19.5,0.3,27.9-4.3"/>
</g>
</svg>
