<?xml version="1.0" encoding="utf-8"?>
<!-- Generator: Adobe Illustrator 19.2.0, SVG Export Plug-In . SVG Version: 6.00 Build 0)  -->
<svg version="1.1" id="Layer_1" xmlns="http://www.w3.org/2000/svg" xmlns:xlink="http://www.w3.org/1999/xlink" x="0px" y="0px"
	 viewBox="0 0 460 472" style="enable-background:new 0 0 460 472;" xml:space="preserve">
<style type="text/css">
	.st0{fill:url(#SVGID_1_);}
	.st1{fill:none;stroke:#000000;stroke-width:5;stroke-miterlimit:10;}
	.st2{opacity:0.9;fill:url(#SVGID_2_);enable-background:new    ;}
</style>
<linearGradient id="SVGID_1_" gradientUnits="userSpaceOnUse" x1="174.9" y1="-379.1843" x2="278.0999" y2="-379.1843" gradientTransform="matrix(1 0 0 1 0 506)">
	<stop  offset="0" style="stop-color:#340715"/>
	<stop  offset="1" style="stop-color:#490715"/>
</linearGradient>
<path class="st0" d="M175.8,64.7l-0.9,0.1v-0.1H175.8z M275.8,84.3c-0.4,4.4-0.8,9-1.1,13.7c-0.4,4.7-0.7,9.6-1.2,14.6
	c-1,10-2.5,20.5-5,31.2c-1.2,5.3-2.7,10.7-4.6,16c-0.5,1.4-0.9,2.7-1.4,4s-1,2.7-1.5,4c-0.9,2.5-2.4,4.9-4.2,7.1
	c-3.5,4.4-8.1,7.9-13.2,10.5s-10.8,4.3-16.4,4.8c-2.8,0.2-5.7,0.2-8.5-0.2c-2.7-0.4-5.6-1.2-8-2.4c-5.2-2.5-9.3-6.4-12.8-10.9
	c-1.7-2.2-3.1-4.6-4.5-7.1c-0.6-1.3-1.2-2.5-1.7-3.8c-0.3-0.7-0.5-1.3-0.8-2l-0.2-0.5l-0.2-0.5l-0.3-1c-1.9-5.3-3-10.7-4-16.1
	c-0.9-5.4-1.5-10.8-2.2-16c-0.7-5.3-1.4-10.4-2.1-15.4c-1.4-10-2.6-19.5-3.9-28.2c-1.1-7.7-2.1-14.8-3-21.2c0.8,0,2.8-0.1,5-0.2
	c1.4-0.1,3.1-0.2,5.1-0.2c1.9,0,4.1-0.1,6.5-0.1c4.8,0,10.4,0,16.3,0.1c6,0.1,12.4,0.3,18.8,0.5c3.1,0.1,6.4,0.2,9.5,0.3
	c3.1,0.1,6.2,0.1,9.2,0.2c2.9-0.1,5.9-0.1,8.6-0.2c1.4-0.1,2.7-0.1,4.1-0.2c1.3,0,2.5-0.1,3.8-0.2c2.4-0.1,4.7-0.3,6.6-0.5
	c1-0.1,1.9-0.2,2.7-0.3c0.9-0.1,1.6-0.2,2.3-0.3c1.8-0.2,3.6-0.4,4.6-0.5C277.3,69.7,276.5,76.7,275.8,84.3L275.8,84.3z"/>
<path class="st1" d="M6588.6-798.6c0.3,38.5,0.2,82.4-5.7,120.5c-2.3,14.7-3.7,31.7-10.6,44.9c-9.4,17.9-18.6,35.9-34,49.5
	c-5.5,4.9-11.5,9.2-17.9,12.8c-4.2,2.3-15.3,5.1-15.9,10.8c-0.4,3.6,3.8,5.7,6.9,7.6c6.9,4.3,10.9,12.3,11.6,20.4
	c1.5,15.4-5.6,30.7-18.9,38.8c-0.8,0.5-1.6,1-1.9,1.8c-0.7,2.1,2.1,3.4,4.2,3.8c12.1,2.1,24,5,35.7,8.7c7.7,2.4,24.3,10.6,12,18.5
	c-7.7,4.9-17,6.2-26,7.3c-24.7,3.1-49.7,6.2-74.5,3.9c-5.6-0.5-11.2-1.4-16.8-2.2l-22.5-3.3c-5.3-0.8-11.8-2.7-12.7-7.9
	c-1.7-10.2,16.6-15.1,23.6-17.2c4.9-1.5,36.5-4.6,35.6-9.3c-0.5-2.4-2.8-3.9-4.8-5.4c-8.9-6.4-15-16.4-16.6-27.2
	c-1.6-10.8,1.3-22.2,7.9-30.9c2.2-2.9,4.9-6,4.4-9.6c-0.2-1.5-1-2.9-2-4.1c-5.1-6.7-15.9-9.5-22.8-14.7c-7.9-6-15.2-12.8-21.6-20.4
	c-12.5-14.5-22.1-31.5-27.6-49.9c-5.2-17.2-6.9-35.3-8.2-53.2c-2.3-31-3.6-62-3.8-93.1c20.2-2.4,42-1.8,62.4-1.4
	C6480.9-798,6588.6-800.7,6588.6-798.6L6588.6-798.6z"/>
<path d="M6462-483.7v1.9c0,0.6,0.1,1.3,0.6,1.9c0.4,0.6,1.2,0.8,2.2,0.8c2.1-0.1,4.5-0.2,7.1-0.2c1.3,0,2.7-0.1,4-0.1
	c1.4-0.1,2.8-0.1,4.1-0.2c1.4-0.1,2.8-0.1,4.1-0.2c1.4-0.1,2.7-0.1,4-0.2c2.6-0.1,5-0.2,7.1-0.3c2-0.1,3.7-0.6,4.6-1.3
	c0.4-0.4,0.7-0.8,0.8-1.1c0.1-0.3,0.2-0.5,0.2-0.5v0.5c-0.1,0.3-0.2,0.8-0.6,1.3s-1.1,1-1.9,1.4c-0.8,0.4-1.8,0.7-2.8,0.8
	c-2.1,0.4-4.5,0.7-7.1,0.9c-1.3,0.1-2.7,0.3-4,0.4c-1.4,0.1-2.8,0.2-4.2,0.2c-1.4,0-2.8,0.1-4.2,0.1h-4.1c-2.6-0.1-5.1-0.2-7.2-0.4
	c-0.5-0.1-1.1-0.1-1.6-0.4s-0.9-0.7-1.1-1.1c-0.4-0.9-0.4-1.7-0.3-2.3s0.2-1.1,0.3-1.4C6461.9-483.5,6462-483.7,6462-483.7
	L6462-483.7z M6461.6-568.3c0,0,0.6,0.2,1.6,0.5c0.5,0.2,1.2,0.3,1.9,0.5s1.6,0.4,2.4,0.5c0.9,0.2,1.9,0.3,2.9,0.5
	c1,0.1,2.1,0.2,3.3,0.3c1.1,0.1,2.3,0.1,3.5,0.2h3.6c1.2,0,2.5,0,3.7-0.1c1.2,0,2.4-0.1,3.6-0.1c2.3-0.1,4.5-0.1,6.3-0.3
	s3.2-0.6,4.1-1.2c0.4-0.3,0.8-0.6,1-0.8l0.3-0.3c0,0-0.1,0.1-0.2,0.4c-0.2,0.3-0.4,0.6-0.8,1c-0.8,0.8-2.3,1.6-4.2,2
	c-0.9,0.2-2,0.4-3,0.5c-1.1,0.1-2.2,0.3-3.3,0.4l-3.6,0.3c-1.2,0.1-2.5,0.1-3.7,0.2c-1.3,0-2.5,0-3.7-0.1c-0.6,0-1.2-0.1-1.8-0.1
	c-0.6-0.1-1.2-0.1-1.8-0.2c-1.2-0.1-2.3-0.4-3.4-0.6c-0.5-0.1-1-0.3-1.5-0.4c-0.5-0.2-1-0.3-1.4-0.4c-1.8-0.6-3.2-1.3-4.2-1.8
	C6462.2-568,6461.6-568.3,6461.6-568.3L6461.6-568.3z M6411.5-466.2l0.3,0.3c0.2,0.2,0.5,0.4,1,0.6c0.9,0.5,2.3,1,4.2,1.4
	c1.9,0.4,4.2,0.7,6.8,1.1c2.6,0.4,5.6,0.7,8.9,1.1c3.3,0.3,6.8,0.7,10.6,1c3.7,0.3,7.7,0.5,11.8,0.7c8.2,0.3,17,0.5,25.7,0.6
	c4.4,0.1,8.8,0.1,13.1,0.2c4.3,0,8.5,0.1,12.6,0s8-0.4,11.7-0.8c3.7-0.5,7.2-1.1,10.4-1.7c6.4-1.4,11.6-3,15.2-4.3
	c1.8-0.7,3.2-1.2,4.2-1.6l1.5-0.6c0,0-0.5,0.2-1.4,0.7c-0.9,0.4-2.3,1.1-4.1,1.8c-3.5,1.5-8.7,3.5-15.1,5.1
	c-6.4,1.6-14.1,2.9-22.3,3.2c-4.1,0.2-8.4,0.2-12.7,0.2c-4.3,0-8.7-0.1-13.1-0.1c-4.4-0.1-8.8-0.2-13.1-0.3
	c-4.3-0.1-8.6-0.4-12.7-0.6c-4.1-0.3-8.1-0.6-11.8-1c-3.8-0.4-7.3-0.8-10.6-1.3c-1.6-0.3-3.2-0.5-4.7-0.7c-1.5-0.3-2.9-0.5-4.2-0.8
	c-2.6-0.5-4.9-1-6.8-1.5s-3.3-1.1-4.1-1.7c-0.4-0.3-0.7-0.5-0.9-0.7C6411.6-466.1,6411.5-466.2,6411.5-466.2L6411.5-466.2z"/>
<linearGradient id="SVGID_2_" gradientUnits="userSpaceOnUse" x1="6378.7998" y1="-689.7888" x2="6584.7002" y2="-689.7888" gradientTransform="matrix(1 0 0 1 0 13)">
	<stop  offset="1.800000e-02" style="stop-color:#801FE3"/>
	<stop  offset="1" style="stop-color:#B7A7FF"/>
</linearGradient>
<path class="st2" d="M6378.8-770.4c1.4,24.4,2.7,48.8,4.1,73.2c0.4,7.9,0.9,15.9,2.2,23.7c1.8,11.1,5.4,21.8,8.9,32.5
	c3,9.1,6,18.2,11.1,26.3c17.8,28.1,51.5,32.7,81.9,31.3c10.6-0.5,21.3-1.5,31.5-4.7c66.9-21.3,65.2-117,66.1-172.7
	c0-2.6,0.1-5.1,0.1-7.7C6516-766.3,6447.2-764.5,6378.8-770.4L6378.8-770.4z"/>
<path d="M6373.7-790.1c0,0,0.6,8.1,1.5,22.2c0.5,7.1,1,15.6,1.7,25.5c0.6,9.8,1.4,20.9,2.1,33.1c0.4,6.1,0.7,12.4,1.3,18.9
	c0.5,6.5,1.4,13.2,3,19.9c1.6,6.7,3.7,13.5,6,20.4c2.4,6.9,4.5,14,7.5,20.9c0.8,1.7,1.5,3.4,2.4,5.1c0.9,1.6,1.8,3.3,2.8,4.8
	c1.1,1.6,2.2,3.1,3.4,4.7c1.2,1.4,2.5,2.8,3.7,4.3c5.3,5.5,11.7,10,18.8,13.2c7.1,3.3,14.8,5.4,22.6,6.6c7.9,1.3,15.9,1.7,23.9,1.7
	c8-0.1,16.1-0.4,24-1.5c3.9-0.5,7.9-1.2,11.7-2.2c1-0.3,1.9-0.5,2.8-0.8l0.7-0.2h0.1l0.2-0.1l0.4-0.1l1.4-0.5l2.8-1
	c0.5-0.2,0.9-0.3,1.4-0.5l1.3-0.6c7.1-3.1,13.7-7.4,19.4-12.5c5.7-5.1,10.5-11.1,14.4-17.5c4-6.3,7.1-13.1,9.7-19.8
	c2.6-6.8,4.6-13.6,6.3-20.3c3.2-13.5,5-26.5,6.2-38.5c1.1-12.1,1.7-23.2,2-33c0.3-9.9,0.5-18.4,0.7-25.5c0.2-14.2,0.4-22.2,0.4-22.2
	s0,2,0.1,5.8c0,3.8,0.1,9.4,0.2,16.4c0,7.1,0,15.7-0.2,25.5c-0.1,9.9-0.5,21-1.5,33.1c-1,12.1-2.6,25.2-5.7,38.9
	c-1.6,6.8-3.6,13.7-6.1,20.6c-2.5,6.9-5.7,13.8-9.8,20.3c-4,6.5-9,12.7-14.8,18.1c-5.9,5.4-12.7,9.8-20.2,13.1l-1.4,0.6
	c-0.5,0.2-0.9,0.4-1.4,0.5l-2.8,1l-1.4,0.5l-0.4,0.1l-0.2,0.1l-0.2,0.1l-0.7,0.2c-1,0.3-2,0.6-2.9,0.8c-3.9,1-8,1.8-12,2.4
	c-8.1,1.1-16.2,1.5-24.4,1.6c-8.2,0-16.3-0.5-24.4-1.8c-8-1.3-16-3.5-23.3-7c-7.4-3.4-14.1-8.1-19.6-13.9c-1.3-1.5-2.6-3.1-3.9-4.6
	c-1.1-1.6-2.2-3.2-3.3-4.7c-2.2-3.4-3.9-6.8-5.4-10.4c-3-7.1-5.2-14.2-7.5-21.2c-2.2-7-4.3-13.9-5.8-20.7
	c-1.6-6.9-2.4-13.6-2.8-20.2c-0.5-6.6-0.7-12.9-1-18.9c-0.6-12.1-1.1-23.2-1.6-33.1c-0.5-9.9-0.8-18.4-1.2-25.5
	C6374-782.1,6373.7-790.1,6373.7-790.1L6373.7-790.1z"/>
<path d="M6374.1-774.7c0,0,0.8,0,2.4,0.1s3.8,0.2,6.7,0.3c2.9,0.2,6.4,0.3,10.5,0.5c4,0.2,8.6,0.3,13.6,0.5s10.4,0.3,16.1,0.5
	s11.7,0.2,17.9,0.4c6.2,0.1,12.6,0.1,19.2,0.2c6.5,0.1,13.2,0,19.8,0.1c6.6,0,13.3,0,19.8-0.1s13-0.1,19.2-0.2
	c12.5-0.1,24.1-0.2,34-0.3c10-0.1,18.3-0.1,24.1-0.1h9.1c0,0-0.8,0.1-2.4,0.2c-1.6,0.1-3.8,0.2-6.7,0.4c-5.8,0.3-14.1,0.8-24.1,1.3
	s-21.6,0.9-34,1.3c-6.2,0.1-12.7,0.4-19.2,0.4c-6.5,0.1-13.2,0.1-19.8,0.2c-6.6,0-13.3,0-19.8-0.2c-6.5-0.1-13-0.3-19.2-0.4
	c-6.2-0.2-12.3-0.4-18-0.8c-2.9-0.2-5.6-0.3-8.3-0.5c-2.7-0.2-5.3-0.4-7.8-0.5c-2.5-0.2-4.9-0.3-7.1-0.5c-2.3-0.2-4.4-0.4-6.4-0.6
	c-4-0.4-7.6-0.7-10.4-1c-2.9-0.3-5.2-0.6-6.7-0.7C6374.9-774.6,6374.1-774.7,6374.1-774.7L6374.1-774.7z"/>
<path class="st1" d="M299.4,10c-1.3,33.4-6.2,62.5-12.6,95.2c-3.4,17.3-6.7,34.6-10.1,51.9c-1.4,7.3-2.9,14.8-6.1,21.5
	c-5.2,10.9-14.2,20.1-17.9,31.7c-4.4,13.7,5.3,20.6,10.1,32.2c1,2.5,1.9,5.1,1.9,7.8c0.1,9.2-8.9,15.7-12.7,24.2
	c-8,17.9,9.7,36.5,18.3,50.5c8.6,14.1,4.7,33.1-5.2,46.2c-3,4-6.6,7.6-9.1,12c-2.7,4.6-4.1,9.9-4.1,15.1c-0.1,6.3,8.4,18.6,10,20.4
	c4.4,4.9,10.6,8.9,17.1,10.2c4.1,0.8,16.7,3.1,19,3.8c1.3,0.4,2.6,0.8,3.7,1.4c3.8,2.1,7.1,8.4,5.3,12.7c-1.6,4-7.6,8.2-11.2,10.3
	c-5.4,3.1-11.6,4.8-17.7,6.4c-30.2,8-68.9,6.4-99.6,0.5c-9-1.7-18.9-4.1-23.9-11.7c-1.3-2-2.2-4.2-2.3-6.6c-0.3-4.3,1.9-8.5,5-11.6
	c11.1-10.7,31.5-7.6,40.9-19.8c7.3-9.5,12-26.2,3.2-34.4c-9.6-8.9-19.8-19.2-20.5-32.3c-0.7-13.5,8.9-25,16.9-35.8
	s15.2-25.1,9.4-37.3c-4.2-8.8-14.7-15.2-14.2-24.9c0.4-6.4,5.6-11.4,8.5-17.1c8.6-17-3.7-36.4-11.3-53.9
	c-7.9-18.1-10.7-37.8-13.5-57.3c-5.2-36.2-10.3-72.4-15.5-108.6C172.3,9.3,272.8,12.4,299.4,10L299.4,10z"/>
<path d="M210.8,226.5c0,0,2.4,0.4,5.8,1.4c1.7,0.4,3.7,1,5.8,1.5c1.1,0.3,2.2,0.5,3.3,0.7c1.1,0.2,2.3,0.4,3.4,0.5
	c1.2,0.1,2.2,0.1,3.4,0c1.1-0.1,2.2-0.3,3.3-0.5c1-0.3,2.1-0.5,3-0.8c1-0.3,1.9-0.6,2.7-0.9c1.7-0.6,3-1.1,4-1.5l1.5-0.6
	c0,0-0.5,0.4-1.3,0.9c-0.9,0.6-2.1,1.4-3.7,2.2c-1.6,0.8-3.5,1.7-5.7,2.3c-1.1,0.3-2.3,0.6-3.5,0.7s-2.6,0.2-3.7,0.1
	c-1.3-0.1-2.4-0.3-3.6-0.6c-1.2-0.2-2.3-0.6-3.4-0.9s-2.1-0.7-3.1-1.1s-1.9-0.7-2.7-1.1C212.9,227.6,210.8,226.5,210.8,226.5
	L210.8,226.5z M212.2,270.2c0,0,0.5,0.3,1.5,0.7c0.5,0.2,1.1,0.4,1.7,0.7c0.7,0.2,1.5,0.5,2.3,0.7c1.7,0.4,3.7,0.8,5.9,1
	c1.1,0.1,2.2,0.2,3.4,0.2c1.2,0.1,2.3,0.1,3.5,0.1h3.5c0.6,0,1.1-0.1,1.7-0.1s1.1-0.1,1.7-0.1c1.1-0.1,2.1-0.2,3.1-0.4
	s1.9-0.4,2.7-0.6c0.8-0.3,1.5-0.6,2.1-0.9s1.1-0.7,1.5-1.1c0.4-0.3,0.7-0.7,0.8-0.9l0.3-0.3c0,0-0.1,0.1-0.2,0.4
	c-0.1,0.2-0.3,0.6-0.6,1.1c-0.3,0.4-0.7,1-1.3,1.4c-0.6,0.5-1.3,1-2.1,1.4c-0.8,0.4-1.8,0.8-2.8,1c-1,0.3-2.1,0.5-3.2,0.7
	s-2.3,0.3-3.5,0.4c-1.2,0-2.3,0.1-3.6,0.1c-1.2,0-2.4-0.1-3.6-0.2s-2.4-0.2-3.5-0.4s-2.2-0.4-3.2-0.7c-1-0.3-2-0.6-2.8-0.9
	c-1.7-0.7-3-1.5-3.9-2.1c-0.4-0.3-0.8-0.6-1-0.7C212.3,270.3,212.2,270.2,212.2,270.2L212.2,270.2z M205.2,311.7
	c0,0,0.2-0.1,0.5-0.2c0.3-0.2,0.8-0.4,1.4-0.7s1.4-0.6,2.2-0.9c0.9-0.3,1.9-0.7,3-1c2.2-0.6,4.8-1.2,7.7-1.6c2.9-0.4,5.9-0.5,9-0.6
	c1.5,0,3.1,0.1,4.6,0.2c1.5,0.1,3,0.3,4.4,0.4c2.9,0.4,5.5,0.9,7.7,1.5s4,1.2,5.3,1.7c0.6,0.3,1.1,0.5,1.4,0.8
	c0.3,0.2,0.4,0.3,0.4,0.3s-0.7-0.4-1.9-0.7c-1.3-0.3-3.2-0.6-5.4-1c-2.2-0.3-4.8-0.7-7.7-0.9c-1.4-0.1-2.9-0.2-4.3-0.3
	c-1.5-0.1-3-0.1-4.5-0.1s-3,0-4.5,0.1s-2.9,0.1-4.3,0.2s-2.8,0.2-4,0.4c-1.3,0.2-2.5,0.4-3.6,0.5c-1.1,0.2-2.1,0.4-3,0.6
	c-0.9,0.2-1.7,0.4-2.3,0.5C205.9,311.5,205.2,311.7,205.2,311.7L205.2,311.7z M206.9,380.6c0,0,0.2,0,0.5,0.1s0.8,0.2,1.4,0.3
	c1.2,0.3,3,0.6,5.2,0.8c2.2,0.3,4.7,0.5,7.4,0.8c1.3,0.1,2.7,0.2,4.2,0.3c1.4,0.1,2.8,0.1,4.3,0.1c1.4,0,2.9-0.1,4.2-0.2
	c1.4-0.1,2.8-0.2,4.1-0.4c2.7-0.3,5.2-0.7,7.3-1.2c0.5-0.1,1-0.2,1.5-0.4c0.5-0.1,0.9-0.2,1.3-0.4c0.4-0.1,0.8-0.3,1.2-0.4
	c0.4-0.1,0.7-0.2,1-0.4c0.3-0.1,0.6-0.2,0.8-0.3l0.6-0.3c0.3-0.2,0.5-0.2,0.5-0.2s-0.1,0.1-0.4,0.3s-0.7,0.5-1.2,0.9
	c-0.5,0.3-1.2,0.7-2.1,1.1c-0.8,0.4-1.8,0.8-2.8,1.1c-1,0.4-2.2,0.7-3.4,1c-1.2,0.3-2.5,0.6-3.9,0.8l-4.2,0.6
	c-1.5,0.1-2.9,0.2-4.4,0.2c-3,0-5.9-0.3-8.6-0.7c-1.4-0.2-2.7-0.4-3.9-0.6c-1.2-0.2-2.4-0.5-3.5-0.8s-2-0.5-2.9-0.8
	s-1.6-0.5-2.2-0.8c-0.6-0.2-1.1-0.5-1.4-0.6C207.1,380.7,206.9,380.6,206.9,380.6L206.9,380.6z M197.2,426.6l2.1-2.1
	c0.7-0.7,1.6-1.4,2.7-2.3c0.5-0.5,1.1-0.8,1.7-1.3c0.6-0.4,1.3-0.9,2-1.3s1.5-0.8,2.3-1.3s1.6-0.8,2.5-1.2c0.4-0.2,0.9-0.4,1.3-0.6
	c0.5-0.2,0.9-0.3,1.4-0.5c0.9-0.4,1.9-0.7,2.9-1c2-0.6,4.1-1.1,6.3-1.4c1.1-0.1,2.2-0.3,3.3-0.4c1.1,0,2.2-0.1,3.3-0.1
	c1.1,0,2.2,0.1,3.3,0.1c1.1,0.1,2.2,0.3,3.3,0.4c2.2,0.3,4.3,0.8,6.3,1.4c1,0.3,2,0.6,2.9,1c0.5,0.2,0.9,0.4,1.4,0.5
	c0.4,0.2,0.9,0.4,1.3,0.6c0.9,0.4,1.7,0.8,2.5,1.3s1.5,0.9,2.2,1.4c2.8,1.9,4.6,4.1,5.5,5.9c0.5,0.8,0.7,1.6,0.9,2.1
	c0.1,0.5,0.2,0.8,0.2,0.8s-0.1-0.3-0.3-0.7c-0.2-0.5-0.6-1.1-1.1-1.9c-0.5-0.8-1.3-1.7-2.2-2.5c-1-0.9-2.2-1.7-3.5-2.6
	c-1.4-0.8-3-1.6-4.7-2.3c-0.4-0.2-0.9-0.4-1.3-0.5s-0.9-0.3-1.4-0.5c-0.9-0.3-1.8-0.7-2.8-0.9c-1.9-0.6-4-0.9-6.1-1.2
	c-1-0.1-2.1-0.2-3.2-0.3c-1.1,0-2.1-0.1-3.2-0.1s-2.1,0.1-3.2,0.1c-1.1,0.1-2.1,0.2-3.2,0.3c-2.1,0.3-4.1,0.6-6.1,1.2
	c-1,0.2-1.9,0.5-2.8,0.8c-0.5,0.1-0.9,0.3-1.4,0.4c-0.5,0.1-0.9,0.3-1.3,0.5c-0.9,0.4-1.7,0.6-2.5,1s-1.6,0.7-2.3,1.1
	c-0.7,0.3-1.4,0.8-2,1.1c-0.6,0.4-1.3,0.7-1.8,1.1c-1.1,0.7-2.1,1.3-2.8,1.9C198,426,197.2,426.6,197.2,426.6L197.2,426.6z
	 M168.6,437.3c0,0,1.7,0.8,4.7,2.3c0.7,0.4,1.5,0.8,2.5,1.2c0.9,0.4,1.9,0.8,3,1.2s2.2,0.9,3.4,1.4c1.2,0.5,2.5,0.9,3.8,1.4
	s2.7,1,4.2,1.4s3,0.8,4.5,1.3c0.8,0.2,1.6,0.5,2.4,0.7s1.6,0.4,2.5,0.5c1.7,0.3,3.3,0.8,5.1,1.1c3.5,0.5,7,1.2,10.7,1.5
	c3.7,0.5,7.4,0.5,11.1,0.6c3.7-0.1,7.5-0.1,11.2-0.5c3.7-0.2,7.3-0.8,10.7-1.3c1.7-0.3,3.4-0.7,5.1-1c0.8-0.2,1.6-0.3,2.5-0.5
	l2.4-0.6c1.6-0.4,3.1-0.8,4.5-1.2c1.5-0.4,2.8-0.9,4.2-1.4c1.3-0.5,2.6-0.9,3.8-1.3c1.2-0.5,2.3-0.9,3.4-1.4c1.1-0.4,2.1-0.8,3-1.2
	s1.7-0.8,2.5-1.2c3-1.4,4.7-2.2,4.7-2.2s-1.6,0.9-4.5,2.6c-0.7,0.4-1.5,0.9-2.4,1.3c-0.9,0.4-1.9,0.9-2.9,1.4s-2.2,1-3.3,1.6
	c-1.2,0.5-2.5,1-3.8,1.5s-2.7,1.1-4.2,1.6c-1.5,0.4-3,0.9-4.5,1.4c-0.8,0.2-1.6,0.5-2.4,0.7s-1.6,0.4-2.5,0.6
	c-1.7,0.4-3.4,0.8-5.1,1.1c-3.5,0.5-7.1,1.3-10.9,1.5c-3.7,0.4-7.5,0.4-11.3,0.5c-3.8-0.2-7.6-0.2-11.3-0.7
	c-3.7-0.3-7.4-1.1-10.9-1.6l-5.1-1.2c-0.8-0.2-1.7-0.4-2.5-0.6c-0.8-0.2-1.6-0.5-2.4-0.7c-1.6-0.5-3.1-1-4.5-1.5
	c-1.5-0.5-2.8-1.1-4.1-1.6c-1.3-0.5-2.6-1-3.8-1.5c-1.2-0.6-2.3-1.1-3.3-1.6s-2-1-2.9-1.4c-0.9-0.5-1.7-0.9-2.4-1.4
	C170.2,438.2,168.6,437.3,168.6,437.3L168.6,437.3z M173.7,22.9c0,0,0.8,5.8,2.3,16c0.7,5.1,1.6,11.3,2.6,18.4s2.1,15.1,3.3,23.8
	c1.2,8.7,2.4,18.2,3.8,28.2c0.7,5,1.4,10.1,2.1,15.4c0.7,5.2,1.3,10.6,2.2,16c0.9,5.4,2,10.8,3.9,16.1l0.3,1l0.2,0.5l0.2,0.5
	c0.3,0.7,0.5,1.3,0.8,2c0.5,1.3,1.1,2.5,1.7,3.8c1.3,2.5,2.7,4.9,4.4,7.1c3.4,4.5,7.5,8.4,12.6,10.9c2.4,1.2,5.2,2,7.9,2.4
	c2.8,0.4,5.6,0.4,8.4,0.2c5.6-0.5,11.2-2.2,16.2-4.8c5-2.6,9.6-6.1,13-10.5c1.7-2.2,3.2-4.6,4.1-7.1c0.5-1.3,1-2.7,1.5-4
	s0.9-2.6,1.4-4c1.8-5.3,3.3-10.7,4.5-16c2.4-10.7,3.9-21.2,4.9-31.2c0.5-5,0.8-9.9,1.2-14.6c0.3-4.7,0.7-9.3,1.1-13.7
	c0.8-8.8,1.7-16.8,2.7-23.9c0.9-7.1,1.9-13.3,2.7-18.4c0.8-5.1,1.5-9.1,2-11.8s0.8-4.2,0.8-4.2s-0.2,1.5-0.6,4.2
	c-0.4,2.7-0.9,6.7-1.6,11.8c-1.3,10.2-2.9,24.8-4.2,42.3c-0.3,4.4-0.6,9-0.9,13.7s-0.5,9.7-0.9,14.7c-0.8,10.1-2.1,20.7-4.6,31.5
	c-1.2,5.4-2.7,10.9-4.5,16.3c-0.5,1.4-0.9,2.7-1.4,4.1c-0.5,1.3-1,2.7-1.5,4c-1.1,2.8-2.6,5.4-4.5,7.8c-3.7,4.7-8.6,8.5-13.9,11.3
	s-11.2,4.6-17.3,5.2c-6.1,0.6-12.3-0.2-18-3c-5.5-2.7-10-7-13.5-11.8s-6.1-10.2-7.9-15.6c-1.8-5.5-3-11-3.9-16.5s-1.5-10.9-2.1-16.1
	c-0.6-5.3-1.2-10.4-1.8-15.4c-1.2-10-2.3-19.5-3.3-28.2s-1.9-16.8-2.7-23.9c-0.8-7.1-1.5-13.3-2-18.4
	C174.3,28.7,173.7,22.9,173.7,22.9L173.7,22.9z"/>
<path d="M179.8,59.7c0,0,1.6-0.1,4.3-0.4c1.4-0.1,3-0.3,5-0.4c1.9-0.1,4.1-0.3,6.4-0.4c2.4-0.1,4.9-0.3,7.6-0.4s5.6-0.2,8.5-0.3
	c5.9-0.1,12.2-0.2,18.5-0.2c6.3-0.1,12.6-0.1,18.5-0.2c5.9,0,11.4,0.1,16.1,0.2c2.4,0,4.5,0.1,6.4,0.1s3.6,0.1,5,0.1
	c2.8,0,4.3,0.1,4.3,0.1v0.3c0,0-1.6,0.3-4.3,0.6c-0.7,0.1-1.4,0.2-2.3,0.3c-0.8,0.1-1.7,0.2-2.7,0.3c-1.9,0.2-4.1,0.4-6.5,0.5
	c-1.2,0.1-2.4,0.2-3.7,0.2c-1.3,0.1-2.6,0.1-4,0.2c-2.7,0.1-5.6,0.1-8.5,0.2c-3-0.1-6-0.1-9.1-0.2s-6.3-0.2-9.4-0.3
	c-6.3-0.2-12.6-0.4-18.5-0.5s-11.4-0.1-16.1-0.1c-2.4,0-4.5,0.1-6.4,0.1s-3.6,0.1-5,0.2c-2.8,0.1-4.3,0.2-4.3,0.2L179.8,59.7
	L179.8,59.7z"/>
</svg>
