<?xml version="1.0" encoding="utf-8"?>
<!-- Generator: Adobe Illustrator 19.2.0, SVG Export Plug-In . SVG Version: 6.00 Build 0)  -->
<svg version="1.1" id="Layer_1" xmlns="http://www.w3.org/2000/svg" xmlns:xlink="http://www.w3.org/1999/xlink" x="0px" y="0px"
	 viewBox="0 0 700 700" style="enable-background:new 0 0 700 700;" xml:space="preserve">
<style type="text/css">
	.st0{fill:none;}
	.st1{fill:none;stroke:#000000;stroke-width:5;stroke-miterlimit:10;}
	.st2{opacity:0.9;fill:url(#SVGID_1_);}
	.st3{fill:url(#SVGID_2_);}
</style>
<rect x="0" y="0" class="st0" width="700" height="700"/>
<path class="st1" d="M6708.6-568.1c0.3,38.5,0.2,82.4-5.7,120.5c-2.3,14.7-3.7,31.7-10.6,44.9c-9.4,17.9-18.6,35.9-34,49.5
	c-5.5,4.9-11.5,9.2-17.9,12.8c-4.2,2.3-15.3,5.1-15.9,10.8c-0.4,3.6,3.8,5.7,6.9,7.6c6.9,4.3,10.9,12.3,11.6,20.4
	c1.5,15.4-5.6,30.7-18.9,38.8c-0.8,0.5-1.6,1-1.9,1.8c-0.7,2.1,2.1,3.4,4.2,3.8c12.1,2.1,24,5,35.7,8.7c7.7,2.4,24.3,10.6,12,18.5
	c-7.7,4.9-17,6.2-26,7.3c-24.7,3.1-49.7,6.2-74.5,3.9c-5.6-0.5-11.2-1.4-16.8-2.2c-7.5-1.1-15-2.2-22.5-3.3
	c-5.3-0.8-11.8-2.7-12.7-7.9c-1.7-10.2,16.6-15.1,23.6-17.2c4.9-1.5,36.5-4.6,35.6-9.3c-0.5-2.4-2.8-3.9-4.8-5.4
	c-8.9-6.4-15-16.4-16.6-27.2c-1.6-10.8,1.3-22.2,7.9-30.9c2.2-2.9,4.9-6,4.4-9.6c-0.2-1.5-1-2.9-2-4.1c-5.1-6.7-15.9-9.5-22.8-14.7
	c-7.9-6-15.2-12.8-21.6-20.4c-12.5-14.5-22.1-31.5-27.6-49.9c-5.2-17.2-6.9-35.3-8.2-53.2c-2.3-31-3.6-62-3.8-93.1
	c20.2-2.4,42-1.8,62.4-1.4C6600.9-567.5,6708.6-570.2,6708.6-568.1z"/>
<g>
	<path d="M6582-253.2c0,0,0,0.2,0,0.5c0,0.3,0,0.8,0,1.4c0,0.6,0.1,1.3,0.6,1.9c0.4,0.6,1.2,0.8,2.2,0.8c2.1-0.1,4.5-0.2,7.1-0.2
		c1.3,0,2.7-0.1,4-0.1c1.4-0.1,2.8-0.1,4.1-0.2c1.4-0.1,2.8-0.1,4.1-0.2c1.4-0.1,2.7-0.1,4-0.2c2.6-0.1,5-0.2,7.1-0.3
		c2-0.1,3.7-0.6,4.6-1.3c0.4-0.4,0.7-0.8,0.8-1.1c0.1-0.3,0.2-0.5,0.2-0.5s0,0.2,0,0.5c-0.1,0.3-0.2,0.8-0.6,1.3
		c-0.4,0.5-1.1,1-1.9,1.4c-0.8,0.4-1.8,0.7-2.8,0.8c-2.1,0.4-4.5,0.7-7.1,0.9c-1.3,0.1-2.7,0.3-4,0.4c-1.4,0.1-2.8,0.2-4.2,0.2
		c-1.4,0-2.8,0.1-4.2,0.1c-1.4,0-2.7,0-4.1,0c-2.6-0.1-5.1-0.2-7.2-0.4c-0.5-0.1-1.1-0.1-1.6-0.4c-0.5-0.3-0.9-0.7-1.1-1.1
		c-0.4-0.9-0.4-1.7-0.3-2.3c0.1-0.6,0.2-1.1,0.3-1.4C6581.9-253,6582-253.2,6582-253.2z"/>
</g>
<g>
	<path d="M6581.6-337.8c0,0,0.6,0.2,1.6,0.5c0.5,0.2,1.2,0.3,1.9,0.5c0.7,0.2,1.6,0.4,2.4,0.5c0.9,0.2,1.9,0.3,2.9,0.5
		c1,0.1,2.1,0.2,3.3,0.3c1.1,0.1,2.3,0.1,3.5,0.2c1.2,0,2.4,0,3.6,0c1.2,0,2.5,0,3.7-0.1c1.2,0,2.4-0.1,3.6-0.1
		c2.3-0.1,4.5-0.1,6.3-0.3c1.8-0.2,3.2-0.6,4.1-1.2c0.4-0.3,0.8-0.6,1-0.8c0.2-0.2,0.3-0.3,0.3-0.3s-0.1,0.1-0.2,0.4
		c-0.2,0.3-0.4,0.6-0.8,1c-0.8,0.8-2.3,1.6-4.2,2c-0.9,0.2-2,0.4-3,0.5c-1.1,0.1-2.2,0.3-3.3,0.4c-1.2,0.1-2.4,0.2-3.6,0.3
		c-1.2,0.1-2.5,0.1-3.7,0.2c-1.3,0-2.5,0-3.7-0.1c-0.6,0-1.2-0.1-1.8-0.1c-0.6-0.1-1.2-0.1-1.8-0.2c-1.2-0.1-2.3-0.4-3.4-0.6
		c-0.5-0.1-1-0.3-1.5-0.4c-0.5-0.2-1-0.3-1.4-0.4c-1.8-0.6-3.2-1.3-4.2-1.8C6582.2-337.5,6581.6-337.8,6581.6-337.8z"/>
</g>
<g>
	<path d="M6531.5-235.7c0,0,0.1,0.1,0.3,0.3c0.2,0.2,0.5,0.4,1,0.6c0.9,0.5,2.3,1,4.2,1.4c1.9,0.4,4.2,0.7,6.8,1.1
		c2.6,0.4,5.6,0.7,8.9,1.1c3.3,0.3,6.8,0.7,10.6,1c3.7,0.3,7.7,0.5,11.8,0.7c8.2,0.3,17,0.5,25.7,0.6c4.4,0.1,8.8,0.1,13.1,0.2
		c4.3,0,8.5,0.1,12.6,0c4.1-0.1,8-0.4,11.7-0.8c3.7-0.5,7.2-1.1,10.4-1.7c6.4-1.4,11.6-3,15.2-4.3c1.8-0.7,3.2-1.2,4.2-1.6
		c1-0.4,1.5-0.6,1.5-0.6s-0.5,0.2-1.4,0.7c-0.9,0.4-2.3,1.1-4.1,1.8c-3.5,1.5-8.7,3.5-15.1,5.1c-6.4,1.6-14.1,2.9-22.3,3.2
		c-4.1,0.2-8.4,0.2-12.7,0.2c-4.3,0-8.7-0.1-13.1-0.1c-4.4-0.1-8.8-0.2-13.1-0.3c-4.3-0.1-8.6-0.4-12.7-0.6c-4.1-0.3-8.1-0.6-11.8-1
		c-3.8-0.4-7.3-0.8-10.6-1.3c-1.6-0.3-3.2-0.5-4.7-0.7c-1.5-0.3-2.9-0.5-4.2-0.8c-2.6-0.5-4.9-1-6.8-1.5c-1.9-0.5-3.3-1.1-4.1-1.7
		c-0.4-0.3-0.7-0.5-0.9-0.7C6531.6-235.6,6531.5-235.7,6531.5-235.7z"/>
</g>
<linearGradient id="SVGID_1_" gradientUnits="userSpaceOnUse" x1="6498.813" y1="-446.2358" x2="6704.6909" y2="-446.2358">
	<stop  offset="1.785714e-02" style="stop-color:#801FE3"/>
	<stop  offset="1" style="stop-color:#B7A7FF"/>
</linearGradient>
<path class="st2" d="M6498.8-539.9c1.4,24.4,2.7,48.8,4.1,73.2c0.4,7.9,0.9,15.9,2.2,23.7c1.8,11.1,5.4,21.8,8.9,32.5
	c3,9.1,6,18.2,11.1,26.3c17.8,28.1,51.5,32.7,81.9,31.3c10.6-0.5,21.3-1.5,31.5-4.7c66.9-21.3,65.2-117,66.1-172.7
	c0-2.6,0.1-5.1,0.1-7.7C6636-535.8,6567.2-534,6498.8-539.9z"/>
<g>
	<path d="M6493.7-559.6c0,0,0.6,8.1,1.5,22.2c0.5,7.1,1,15.6,1.7,25.5c0.6,9.8,1.4,20.9,2.1,33.1c0.4,6.1,0.7,12.4,1.3,18.9
		c0.5,6.5,1.4,13.2,3,19.9c1.6,6.7,3.7,13.5,6,20.4c2.4,6.9,4.5,14,7.5,20.9c0.8,1.7,1.5,3.4,2.4,5.1c0.9,1.6,1.8,3.3,2.8,4.8
		c1.1,1.6,2.2,3.1,3.4,4.7c1.2,1.4,2.5,2.8,3.7,4.3c5.3,5.5,11.7,10,18.8,13.2c7.1,3.3,14.8,5.4,22.6,6.6c7.9,1.3,15.9,1.7,23.9,1.7
		c8-0.1,16.1-0.4,24-1.5c3.9-0.5,7.9-1.2,11.7-2.2c1-0.3,1.9-0.5,2.8-0.8l0.7-0.2c0.1,0,0,0,0.1,0l0.2-0.1l0.4-0.1l1.4-0.5l2.8-1
		c0.5-0.2,0.9-0.3,1.4-0.5l1.3-0.6c7.1-3.1,13.7-7.4,19.4-12.5c5.7-5.1,10.5-11.1,14.4-17.5c4-6.3,7.1-13.1,9.7-19.8
		c2.6-6.8,4.6-13.6,6.3-20.3c3.2-13.5,5-26.5,6.2-38.5c1.1-12.1,1.7-23.2,2-33c0.3-9.9,0.5-18.4,0.7-25.5
		c0.2-14.2,0.4-22.2,0.4-22.2s0,2,0.1,5.8c0,3.8,0.1,9.4,0.2,16.4c0,7.1,0,15.7-0.2,25.5c-0.1,9.9-0.5,21-1.5,33.1
		c-1,12.1-2.6,25.2-5.7,38.9c-1.6,6.8-3.6,13.7-6.1,20.6c-2.5,6.9-5.7,13.8-9.8,20.3c-4,6.5-9,12.7-14.8,18.1
		c-5.9,5.4-12.7,9.8-20.2,13.1l-1.4,0.6c-0.5,0.2-0.9,0.4-1.4,0.5l-2.8,1l-1.4,0.5l-0.4,0.1l-0.2,0.1l-0.2,0.1l-0.7,0.2
		c-1,0.3-2,0.6-2.9,0.8c-3.9,1-8,1.8-12,2.4c-8.1,1.1-16.2,1.5-24.4,1.6c-8.2,0-16.3-0.5-24.4-1.8c-8-1.3-16-3.5-23.3-7
		c-7.4-3.4-14.1-8.1-19.6-13.9c-1.3-1.5-2.6-3.1-3.9-4.6c-1.1-1.6-2.2-3.2-3.3-4.7c-2.2-3.4-3.9-6.8-5.4-10.4
		c-3-7.1-5.2-14.2-7.5-21.2c-2.2-7-4.3-13.9-5.8-20.7c-1.6-6.9-2.4-13.6-2.8-20.2c-0.5-6.6-0.7-12.9-1-18.9
		c-0.6-12.1-1.1-23.2-1.6-33.1c-0.5-9.9-0.8-18.4-1.2-25.5C6494-551.6,6493.7-559.6,6493.7-559.6z"/>
</g>
<g>
	<path d="M6494.1-544.2c0,0,0.8,0,2.4,0.1c1.6,0.1,3.8,0.2,6.7,0.3c2.9,0.2,6.4,0.3,10.5,0.5c4,0.2,8.6,0.3,13.6,0.5
		c5,0.2,10.4,0.3,16.1,0.5c5.7,0.2,11.7,0.2,17.9,0.4c6.2,0.1,12.6,0.1,19.2,0.2c6.5,0.1,13.2,0,19.8,0.1c6.6,0,13.3,0,19.8-0.1
		c6.5-0.1,13-0.1,19.2-0.2c12.5-0.1,24.1-0.2,34-0.3c10-0.1,18.3-0.1,24.1-0.1c2.9,0,5.2,0,6.7,0c1.6,0,2.4,0,2.4,0
		s-0.8,0.1-2.4,0.2c-1.6,0.1-3.8,0.2-6.7,0.4c-5.8,0.3-14.1,0.8-24.1,1.3c-10,0.5-21.6,0.9-34,1.3c-6.2,0.1-12.7,0.4-19.2,0.4
		c-6.5,0.1-13.2,0.1-19.8,0.2c-6.6,0-13.3,0-19.8-0.2c-6.5-0.1-13-0.3-19.2-0.4c-6.2-0.2-12.3-0.4-18-0.8c-2.9-0.2-5.6-0.3-8.3-0.5
		c-2.7-0.2-5.3-0.4-7.8-0.5c-2.5-0.2-4.9-0.3-7.1-0.5c-2.3-0.2-4.4-0.4-6.4-0.6c-4-0.4-7.6-0.7-10.4-1c-2.9-0.3-5.2-0.6-6.7-0.7
		C6494.9-544.1,6494.1-544.2,6494.1-544.2z"/>
</g>
<g>
	<radialGradient id="SVGID_2_" cx="354.6733" cy="630.925" r="56.9965" gradientUnits="userSpaceOnUse">
		<stop  offset="0" style="stop-color:#EF9120"/>
		<stop  offset="1" style="stop-color:#943E00"/>
	</radialGradient>
	<path class="st3" d="M428.8,565.4c-19,1-38.5,1.6-57.5,2.2c-6.7,0.2-13.4,0.4-20.1,0.6c-21.5,0.7-67.2-2.6-71-1.8
		c1.3,6.9,3.6,13.5,7.2,19.1c6.9,10.5,16,19.9,24.3,29.2c1.7,1.9,3.5,3.9,5.6,5.4c2.5,1.8,5.4,2.8,8.4,3.6c5.4,1.5,11,2.3,16.6,2.4
		c12.7,0.2,27,3,39.3-0.8c4.3-1.3,8.5-2.8,11.8-6c3.7-3.6,14.9-15.1,17-17.2c4.9-4.8,8.6-10.8,12.1-16.9c3.4-5.9,5.6-12.9,6.5-20
		C429,565.4,428.9,565.4,428.8,565.4z"/>
	<path class="st1" d="M409.3,413.9c1.5,36.2,3.6,46.6,10.8,84c5.4,28.1,27.7,69.4,0.8,103.8c-8.5,10.9-22.9,17.3-28.3,30.8
		c-3.9,9.9-0.1,18.2,5.1,26.8c5.2,8.7,9.7,15.7,11.5,25.7c0.2,1.1,0.4,2.2,0.3,3.2c-0.2,2.2-1.7,4.1-3.4,5.4c-3,2.2-7.6,4-11.4,4.4
		c-5.5,0.6-11,1.5-16.6,1.8c-10,0.6-63.7,0.4-79.8-4.5c-1.7-0.5-3.5-1.1-4.8-2.4c-2.2-2.3-0.8-9.4-0.2-12.2
		c1.9-8.8,7.3-16.5,11.4-24.5s7-17.6,3.5-26c-1.7-3.9-4.6-7.2-7.8-10.2c-7.2-6.7-15.5-12.3-21.7-19.9c-9-11.1-12.5-25.5-12.6-39.6
		c-0.1-24.2,8.6-47.7,13.5-71.2c5.2-25.1,9.8-50.5,12-76C316.8,411.2,396.2,409.8,409.3,413.9z"/>
	<g>
		<path d="M299.7,415.6c-0.2,3.2-0.4,6.5-0.6,9.7c-0.3,3.2-0.5,6.4-0.9,9.7c-0.3,3.2-0.7,6.4-1.1,9.6c-0.4,3.2-0.9,6.4-1.4,9.6
			c-0.5,3.2-1,6.4-1.6,9.6c-0.6,3.2-1.2,6.4-1.8,9.5c-0.7,3.2-1.4,6.3-2.1,9.5c-0.7,3.1-1.5,6.3-2.3,9.4l-1.6-0.4l0.4-2.3l1.6,0.4
			c-1.2,4.5-1.9,9.1-3,13.7c-1.2,4.6-2.5,9.1-3.6,13.6c-2.3,9-4.3,18.2-5.1,27.4c-0.9,9.2-0.6,18.6,1.4,27.6c1,4.5,2.5,8.9,4.5,12.9
			c1,2,2.2,3.9,3.6,5.8c1.3,1.9,2.7,3.7,4.1,5.6c5.7,7.3,12.2,14,18.5,21.1c1.6,1.7,3.1,3.5,4.8,4.8c0.4,0.4,0.8,0.6,1.3,1
			c0.4,0.3,0.9,0.6,1.4,0.8c1,0.5,2,0.9,3,1.3c2.1,0.7,4.3,1.3,6.6,1.8c2.2,0.5,4.5,0.8,6.8,1.1c2.3,0.3,4.5,0.3,6.9,0.4
			c2.3,0,4.7,0.2,7.1,0.3c4.7,0.3,9.3,0.7,14,0.8c4.6,0.1,9.2-0.1,13.6-1c0.6-0.1,1.1-0.2,1.6-0.4l1.5-0.4l0.8-0.3l0.6-0.4l0.3-0.2
			l0.4-0.2l0.7-0.4c1.9-1.2,3.7-2.6,5.6-4.1c3.6-2.9,7.2-5.9,10.7-9l2.6-2.3c0.9-0.8,1.8-1.6,2.7-2.3c1.8-1.5,3.5-3,5.1-4.7
			c3.1-3.3,5.7-7.1,8.2-11l1.8-3l0.9-1.5l0.8-1.5c1-2,1.9-4.1,2.7-6.2c1.5-4.3,2.5-8.8,2.9-13.4c0.2-2.3,0.3-4.6,0.2-6.8
			c-0.1-2.3-0.3-4.6-0.6-6.9c-0.9-9.3-2.5-18.5-4.7-27.5c-2.3-9-4.9-18.1-6.9-27.3c-0.5-2.3-0.9-4.6-1.3-6.9c-0.4-2.3-0.7-4.7-1-7
			l-2-13.9c-1.3-9.3-2.6-18.6-3.5-27.9c-0.5-4.7-0.9-9.3-1.1-14c-0.2-4.7-0.4-9.4-0.4-14c0.2,9.4,1.1,18.7,2.2,28
			c1.1,9.3,2.6,18.5,4.1,27.8l2.2,13.9c0.4,2.3,0.7,4.6,1.1,6.9c0.4,2.3,0.9,4.6,1.4,6.8c2,9.1,4.7,18,7.2,27.1
			c2.4,9.1,4.1,18.4,5.1,27.8c0.2,2.4,0.5,4.6,0.6,7.1c0.1,2.4,0.1,4.8-0.2,7.2c-0.4,4.8-1.4,9.5-3,14c-0.8,2.3-1.7,4.5-2.9,6.6
			l-0.8,1.5l-0.9,1.6l-1.8,3c-2.5,4-5.1,8-8.5,11.5c-1.6,1.8-3.5,3.4-5.2,4.9c-0.9,0.8-1.7,1.5-2.6,2.3l-2.6,2.4
			c-3.5,3.1-7.1,6.2-10.8,9.1c-1.9,1.5-3.7,2.9-5.8,4.2l-0.8,0.5l-0.4,0.2L380,630c-0.3,0.2-0.6,0.3-0.9,0.5l-0.8,0.3
			c0.1,0-0.2,0.1-0.2,0.1l-0.1,0l-0.2,0.1l-0.4,0.1l-0.9,0.2c-0.6,0.2-1.2,0.3-1.8,0.4c-4.7,1-9.6,1.2-14.3,1.2
			c-4.7-0.1-9.4-0.4-14.1-0.8c-2.3-0.2-4.6-0.3-7-0.4c-2.3,0-4.8-0.2-7.1-0.4c-2.4-0.3-4.7-0.7-7.1-1.2c-2.3-0.5-4.6-1.1-6.9-1.9
			c-1.1-0.4-2.3-0.9-3.4-1.5c-0.6-0.3-1.1-0.6-1.6-1c-0.5-0.3-1-0.7-1.5-1.1c-2-1.6-3.5-3.4-5.1-5.2c-6.2-7-12.7-13.8-18.5-21.3
			c-1.4-1.9-2.9-3.8-4.2-5.7c-1.3-1.9-2.6-4-3.7-6.1c-2.2-4.3-3.7-8.9-4.7-13.6c-1-4.7-1.6-9.4-1.7-14.2c-0.2-4.7,0.1-9.5,0.6-14.2
			c1-9.4,3.1-18.6,5.5-27.7c1.2-4.5,2.5-9.1,3.8-13.5c1.1-4.5,1.8-9.1,3.1-13.7l1.6,0.4l-0.5,2.3l-1.6-0.4c0.9-3.1,1.7-6.2,2.5-9.4
			c0.8-3.1,1.5-6.3,2.3-9.4c0.7-3.1,1.4-6.3,2-9.5c0.6-3.2,1.2-6.3,1.8-9.5c0.6-3.2,1.1-6.4,1.6-9.6c0.5-3.2,0.9-6.4,1.3-9.6
			l0.6-4.8l0.5-4.8C299.1,422.1,299.4,418.9,299.7,415.6z"/>
	</g>
	<g>
		<path d="M276,570.4c0,0,0.1-0.1,0.4-0.1c0.3-0.1,0.7-0.1,1.3-0.1c1.1,0,2.7-0.1,4.7,0c4.1,0,9.9,0.2,16.9,0.4
			c7,0.2,15.1,0.4,23.8,0.6c4.4,0.1,8.9,0.1,13.4,0.1c4.6,0,9.2-0.1,13.8-0.3c9.3-0.4,18.6-0.9,27.3-1.3c4.4-0.2,8.6-0.3,12.6-0.4
			c4-0.1,7.8-0.1,11.3-0.2c14-0.1,23.3,0.2,23.3,0.2l0,0.3c0,0-9.3,1-23.2,1.9c-3.5,0.2-7.3,0.5-11.2,0.7c-4,0.2-8.2,0.4-12.6,0.6
			c-4.4,0.1-8.8,0.3-13.5,0.3c-4.6,0.1-9.2,0.2-13.9,0.2c-4.6,0.1-9.4,0.1-13.9,0c-4.6-0.1-9.1-0.3-13.5-0.5
			c-8.7-0.4-16.9-0.9-23.8-1.3c-7-0.4-12.8-0.8-16.8-0.9c-2-0.1-3.6-0.1-4.7-0.1c-0.5,0-1,0-1.2,0.1c-0.3,0-0.4,0.1-0.4,0.1
			L276,570.4z"/>
	</g>
	<g>
		<path d="M309.7,685.6c0,0,1.3,0.2,3.5,0.7c1.1,0.3,2.4,0.5,4,0.8c1.5,0.3,3.3,0.6,5.2,0.9c1.9,0.3,3.9,0.6,6.1,0.9
			c1.1,0.2,2.2,0.3,3.3,0.4c1.1,0.1,2.3,0.2,3.5,0.4c2.4,0.2,4.8,0.4,7.3,0.5c2.5,0.2,5,0.2,7.6,0.2c2.5,0,5.1,0,7.6-0.1
			c2.5-0.1,5-0.2,7.4-0.4c1.2-0.1,2.4-0.2,3.5-0.3c1.1-0.1,2.3-0.2,3.4-0.3c2.2-0.3,4.2-0.5,6.1-0.8c1.9-0.3,3.6-0.5,5.2-0.8
			c1.5-0.3,2.9-0.5,4-0.7c2.2-0.4,3.5-0.7,3.5-0.7s-1.2,0.4-3.4,1c-1.1,0.3-2.4,0.7-3.9,1.1c-0.8,0.2-1.6,0.4-2.4,0.6
			c-0.9,0.2-1.8,0.4-2.7,0.6c-0.9,0.2-1.9,0.4-2.9,0.6c-1,0.2-2.1,0.4-3.2,0.5c-2.2,0.4-4.5,0.6-6.9,0.9c-2.4,0.2-4.9,0.5-7.4,0.6
			c-2.5,0.2-5.1,0.2-7.7,0.2c-2.6-0.1-5.2-0.1-7.7-0.3c-2.5-0.1-5-0.4-7.4-0.7c-2.4-0.3-4.7-0.6-6.9-1c-1.1-0.2-2.1-0.4-3.2-0.6
			c-1-0.2-2-0.4-2.9-0.6c-0.9-0.2-1.8-0.4-2.7-0.6c-0.8-0.2-1.7-0.5-2.4-0.7c-1.5-0.4-2.8-0.8-3.9-1.1
			C310.9,686,309.7,685.6,309.7,685.6z"/>
	</g>
	<g>
		<path d="M321.4,635.3c0,0,0.9,0.1,2.5,0.4c0.8,0.1,1.7,0.3,2.8,0.4c1.1,0.2,2.3,0.3,3.7,0.5c1.3,0.2,2.8,0.3,4.4,0.5
			c1.5,0.2,3.2,0.2,4.9,0.4c1.7,0.1,3.4,0.2,5.2,0.3c1.8,0.1,3.6,0.1,5.4,0.1c1.8,0,3.6,0,5.4-0.1c1.8,0,3.5-0.1,5.2-0.2
			c1.7-0.1,3.3-0.2,4.9-0.4c1.5-0.1,3-0.3,4.4-0.4c1.4-0.1,2.6-0.3,3.7-0.4c1.1-0.1,2.1-0.3,2.8-0.4c1.6-0.2,2.5-0.3,2.5-0.3
			s-0.9,0.3-2.4,0.7c-0.8,0.2-1.7,0.5-2.8,0.7c-1.1,0.3-2.3,0.6-3.6,0.8c-1.3,0.3-2.8,0.6-4.4,0.8c-1.6,0.3-3.2,0.5-4.9,0.6
			c-1.7,0.1-3.5,0.3-5.3,0.4c-1.8,0.1-3.6,0.1-5.5,0.2c-1.8,0-3.7-0.1-5.5-0.2c-1.8-0.1-3.6-0.3-5.3-0.4c-1.7-0.2-3.4-0.4-4.9-0.7
			c-1.6-0.2-3-0.5-4.4-0.8c-1.3-0.3-2.6-0.6-3.6-0.8c-1.1-0.3-2-0.5-2.8-0.8C322.2,635.6,321.4,635.3,321.4,635.3z"/>
	</g>
	<g>
		<path d="M323.2,660.6c0,0,0.8-0.3,2.2-0.8c0.7-0.3,1.6-0.6,2.6-0.9c1-0.3,2.1-0.7,3.4-1c1.2-0.3,2.6-0.6,4.1-0.9
			c1.4-0.3,3-0.5,4.6-0.8c1.6-0.2,3.3-0.4,5-0.5c1.7-0.1,3.4-0.2,5.1-0.2c1.7,0,3.5,0,5.2,0.2c1.7,0.1,3.4,0.3,5,0.4
			c1.6,0.2,3.2,0.4,4.6,0.7c1.5,0.3,2.8,0.6,4.1,0.9c0.6,0.2,1.2,0.3,1.8,0.5c0.6,0.2,1.1,0.3,1.6,0.5c1,0.3,1.9,0.6,2.6,0.8
			c1.4,0.5,2.2,0.8,2.2,0.8s-0.8-0.2-2.3-0.4c-0.7-0.2-1.6-0.3-2.7-0.5c-1-0.2-2.2-0.4-3.4-0.5c-1.3-0.2-2.6-0.4-4.1-0.5
			c-1.4-0.2-3-0.3-4.6-0.4c-1.6-0.1-3.2-0.2-4.9-0.3c-1.7-0.1-3.4-0.1-5-0.1c-1.7,0-3.4,0-5,0.1c-1.7,0.1-3.3,0.2-4.9,0.3
			c-1.6,0.2-3.1,0.3-4.6,0.5c-1.4,0.2-2.8,0.4-4.1,0.6c-1.3,0.2-2.4,0.4-3.4,0.6c-1,0.2-1.9,0.3-2.6,0.5
			C324.1,660.4,323.2,660.6,323.2,660.6z"/>
	</g>
</g>
</svg>
