<?xml version="1.0" encoding="utf-8"?>
<!-- Generator: Adobe Illustrator 19.2.0, SVG Export Plug-In . SVG Version: 6.00 Build 0)  -->
<svg version="1.1" id="Layer_1" xmlns="http://www.w3.org/2000/svg" xmlns:xlink="http://www.w3.org/1999/xlink" x="0px" y="0px"
	 viewBox="0 0 460 574" style="enable-background:new 0 0 460 574;" xml:space="preserve">
<style type="text/css">
	.st0{fill:none;stroke:#000000;stroke-width:5;stroke-miterlimit:10;}
	.st1{opacity:0.9;fill:url(#SVGID_1_);enable-background:new    ;}
	.st2{opacity:0.9;fill:url(#SVGID_2_);enable-background:new    ;}
</style>
<path class="st0" d="M6588.6-696.6c0.3,38.5,0.2,82.4-5.7,120.5c-2.3,14.7-3.7,31.7-10.6,44.9c-9.4,17.9-18.6,35.9-34,49.5
	c-5.5,4.9-11.5,9.2-17.9,12.8c-4.2,2.3-15.3,5.1-15.9,10.8c-0.4,3.6,3.8,5.7,6.9,7.6c6.9,4.3,10.9,12.3,11.6,20.4
	c1.5,15.4-5.6,30.7-18.9,38.8c-0.8,0.5-1.6,1-1.9,1.8c-0.7,2.1,2.1,3.4,4.2,3.8c12.1,2.1,24,5,35.7,8.7c7.7,2.4,24.3,10.6,12,18.5
	c-7.7,4.9-17,6.2-26,7.3c-24.7,3.1-49.7,6.2-74.5,3.9c-5.6-0.5-11.2-1.4-16.8-2.2l-22.5-3.3c-5.3-0.8-11.8-2.7-12.7-7.9
	c-1.7-10.2,16.6-15.1,23.6-17.2c4.9-1.5,36.5-4.6,35.6-9.3c-0.5-2.4-2.8-3.9-4.8-5.4c-8.9-6.4-15-16.4-16.6-27.2
	c-1.6-10.8,1.3-22.2,7.9-30.9c2.2-2.9,4.9-6,4.4-9.6c-0.2-1.5-1-2.9-2-4.1c-5.1-6.7-15.9-9.5-22.8-14.7c-7.9-6-15.2-12.8-21.6-20.4
	c-12.5-14.5-22.1-31.5-27.6-49.9c-5.2-17.2-6.9-35.3-8.2-53.2c-2.3-31-3.6-62-3.8-93.1c20.2-2.4,42-1.8,62.4-1.4
	C6480.9-696,6588.6-698.7,6588.6-696.6L6588.6-696.6z"/>
<path d="M6462-381.7v1.9c0,0.6,0.1,1.3,0.6,1.9c0.4,0.6,1.2,0.8,2.2,0.8c2.1-0.1,4.5-0.2,7.1-0.2c1.3,0,2.7-0.1,4-0.1
	c1.4-0.1,2.8-0.1,4.1-0.2c1.4-0.1,2.8-0.1,4.1-0.2c1.4-0.1,2.7-0.1,4-0.2c2.6-0.1,5-0.2,7.1-0.3c2-0.1,3.7-0.6,4.6-1.3
	c0.4-0.4,0.7-0.8,0.8-1.1c0.1-0.3,0.2-0.5,0.2-0.5v0.5c-0.1,0.3-0.2,0.8-0.6,1.3s-1.1,1-1.9,1.4c-0.8,0.4-1.8,0.7-2.8,0.8
	c-2.1,0.4-4.5,0.7-7.1,0.9c-1.3,0.1-2.7,0.3-4,0.4c-1.4,0.1-2.8,0.2-4.2,0.2c-1.4,0-2.8,0.1-4.2,0.1h-4.1c-2.6-0.1-5.1-0.2-7.2-0.4
	c-0.5-0.1-1.1-0.1-1.6-0.4s-0.9-0.7-1.1-1.1c-0.4-0.9-0.4-1.7-0.3-2.3s0.2-1.1,0.3-1.4C6461.9-381.5,6462-381.7,6462-381.7
	L6462-381.7z M6461.6-466.3c0,0,0.6,0.2,1.6,0.5c0.5,0.2,1.2,0.3,1.9,0.5s1.6,0.4,2.4,0.5c0.9,0.2,1.9,0.3,2.9,0.5
	c1,0.1,2.1,0.2,3.3,0.3c1.1,0.1,2.3,0.1,3.5,0.2h3.6c1.2,0,2.5,0,3.7-0.1c1.2,0,2.4-0.1,3.6-0.1c2.3-0.1,4.5-0.1,6.3-0.3
	c1.8-0.2,3.2-0.6,4.1-1.2c0.4-0.3,0.8-0.6,1-0.8l0.3-0.3c0,0-0.1,0.1-0.2,0.4c-0.2,0.3-0.4,0.6-0.8,1c-0.8,0.8-2.3,1.6-4.2,2
	c-0.9,0.2-2,0.4-3,0.5c-1.1,0.1-2.2,0.3-3.3,0.4l-3.6,0.3c-1.2,0.1-2.5,0.1-3.7,0.2c-1.3,0-2.5,0-3.7-0.1c-0.6,0-1.2-0.1-1.8-0.1
	c-0.6-0.1-1.2-0.1-1.8-0.2c-1.2-0.1-2.3-0.4-3.4-0.6c-0.5-0.1-1-0.3-1.5-0.4c-0.5-0.2-1-0.3-1.4-0.4c-1.8-0.6-3.2-1.3-4.2-1.8
	C6462.2-466,6461.6-466.3,6461.6-466.3L6461.6-466.3z M6411.5-364.2l0.3,0.3c0.2,0.2,0.5,0.4,1,0.6c0.9,0.5,2.3,1,4.2,1.4
	c1.9,0.4,4.2,0.7,6.8,1.1c2.6,0.4,5.6,0.7,8.9,1.1c3.3,0.3,6.8,0.7,10.6,1c3.7,0.3,7.7,0.5,11.8,0.7c8.2,0.3,17,0.5,25.7,0.6
	c4.4,0.1,8.8,0.1,13.1,0.2c4.3,0,8.5,0.1,12.6,0s8-0.4,11.7-0.8c3.7-0.5,7.2-1.1,10.4-1.7c6.4-1.4,11.6-3,15.2-4.3
	c1.8-0.7,3.2-1.2,4.2-1.6l1.5-0.6c0,0-0.5,0.2-1.4,0.7c-0.9,0.4-2.3,1.1-4.1,1.8c-3.5,1.5-8.7,3.5-15.1,5.1
	c-6.4,1.6-14.1,2.9-22.3,3.2c-4.1,0.2-8.4,0.2-12.7,0.2c-4.3,0-8.7-0.1-13.1-0.1c-4.4-0.1-8.8-0.2-13.1-0.3
	c-4.3-0.1-8.6-0.4-12.7-0.6c-4.1-0.3-8.1-0.6-11.8-1c-3.8-0.4-7.3-0.8-10.6-1.3c-1.6-0.3-3.2-0.5-4.7-0.7c-1.5-0.3-2.9-0.5-4.2-0.8
	c-2.6-0.5-4.9-1-6.8-1.5s-3.3-1.1-4.1-1.7c-0.4-0.3-0.7-0.5-0.9-0.7C6411.6-364.1,6411.5-364.2,6411.5-364.2L6411.5-364.2z"/>
<linearGradient id="SVGID_1_" gradientUnits="userSpaceOnUse" x1="6378.7998" y1="1525.7887" x2="6584.7002" y2="1525.7887" gradientTransform="matrix(1 0 0 -1 0 951)">
	<stop  offset="1.800000e-02" style="stop-color:#801FE3"/>
	<stop  offset="1" style="stop-color:#B7A7FF"/>
</linearGradient>
<path class="st1" d="M6378.8-668.4c1.4,24.4,2.7,48.8,4.1,73.2c0.4,7.9,0.9,15.9,2.2,23.7c1.8,11.1,5.4,21.8,8.9,32.5
	c3,9.1,6,18.2,11.1,26.3c17.8,28.1,51.5,32.7,81.9,31.3c10.6-0.5,21.3-1.5,31.5-4.7c66.9-21.3,65.2-117,66.1-172.7
	c0-2.6,0.1-5.1,0.1-7.7C6516-664.3,6447.2-662.5,6378.8-668.4L6378.8-668.4z"/>
<path d="M6373.7-688.1c0,0,0.6,8.1,1.5,22.2c0.5,7.1,1,15.6,1.7,25.5c0.6,9.8,1.4,20.9,2.1,33.1c0.4,6.1,0.7,12.4,1.3,18.9
	c0.5,6.5,1.4,13.2,3,19.9c1.6,6.7,3.7,13.5,6,20.4c2.4,6.9,4.5,14,7.5,20.9c0.8,1.7,1.5,3.4,2.4,5.1c0.9,1.6,1.8,3.3,2.8,4.8
	c1.1,1.6,2.2,3.1,3.4,4.7c1.2,1.4,2.5,2.8,3.7,4.3c5.3,5.5,11.7,10,18.8,13.2c7.1,3.3,14.8,5.4,22.6,6.6c7.9,1.3,15.9,1.7,23.9,1.7
	c8-0.1,16.1-0.4,24-1.5c3.9-0.5,7.9-1.2,11.7-2.2c1-0.3,1.9-0.5,2.8-0.8l0.7-0.2h0.1l0.2-0.1l0.4-0.1l1.4-0.5l2.8-1
	c0.5-0.2,0.9-0.3,1.4-0.5l1.3-0.6c7.1-3.1,13.7-7.4,19.4-12.5c5.7-5.1,10.5-11.1,14.4-17.5c4-6.3,7.1-13.1,9.7-19.8
	c2.6-6.8,4.6-13.6,6.3-20.3c3.2-13.5,5-26.5,6.2-38.5c1.1-12.1,1.7-23.2,2-33c0.3-9.9,0.5-18.4,0.7-25.5c0.2-14.2,0.4-22.2,0.4-22.2
	s0,2,0.1,5.8c0,3.8,0.1,9.4,0.2,16.4c0,7.1,0,15.7-0.2,25.5c-0.1,9.9-0.5,21-1.5,33.1c-1,12.1-2.6,25.2-5.7,38.9
	c-1.6,6.8-3.6,13.7-6.1,20.6c-2.5,6.9-5.7,13.8-9.8,20.3c-4,6.5-9,12.7-14.8,18.1c-5.9,5.4-12.7,9.8-20.2,13.1l-1.4,0.6
	c-0.5,0.2-0.9,0.4-1.4,0.5l-2.8,1l-1.4,0.5l-0.4,0.1l-0.2,0.1l-0.2,0.1l-0.7,0.2c-1,0.3-2,0.6-2.9,0.8c-3.9,1-8,1.8-12,2.4
	c-8.1,1.1-16.2,1.5-24.4,1.6c-8.2,0-16.3-0.5-24.4-1.8c-8-1.3-16-3.5-23.3-7c-7.4-3.4-14.1-8.1-19.6-13.9c-1.3-1.5-2.6-3.1-3.9-4.6
	c-1.1-1.6-2.2-3.2-3.3-4.7c-2.2-3.4-3.9-6.8-5.4-10.4c-3-7.1-5.2-14.2-7.5-21.2c-2.2-7-4.3-13.9-5.8-20.7
	c-1.6-6.9-2.4-13.6-2.8-20.2c-0.5-6.6-0.7-12.9-1-18.9c-0.6-12.1-1.1-23.2-1.6-33.1c-0.5-9.9-0.8-18.4-1.2-25.5
	C6374-680.1,6373.7-688.1,6373.7-688.1L6373.7-688.1z"/>
<path d="M6374.1-672.7c0,0,0.8,0,2.4,0.1s3.8,0.2,6.7,0.3c2.9,0.2,6.4,0.3,10.5,0.5c4,0.2,8.6,0.3,13.6,0.5s10.4,0.3,16.1,0.5
	s11.7,0.2,17.9,0.4c6.2,0.1,12.6,0.1,19.2,0.2c6.5,0.1,13.2,0,19.8,0.1c6.6,0,13.3,0,19.8-0.1s13-0.1,19.2-0.2
	c12.5-0.1,24.1-0.2,34-0.3c10-0.1,18.3-0.1,24.1-0.1h9.1c0,0-0.8,0.1-2.4,0.2c-1.6,0.1-3.8,0.2-6.7,0.4c-5.8,0.3-14.1,0.8-24.1,1.3
	s-21.6,0.9-34,1.3c-6.2,0.1-12.7,0.4-19.2,0.4c-6.5,0.1-13.2,0.1-19.8,0.2c-6.6,0-13.3,0-19.8-0.2c-6.5-0.1-13-0.3-19.2-0.4
	c-6.2-0.2-12.3-0.4-18-0.8c-2.9-0.2-5.6-0.3-8.3-0.5c-2.7-0.2-5.3-0.4-7.8-0.5c-2.5-0.2-4.9-0.3-7.1-0.5c-2.3-0.2-4.4-0.4-6.4-0.6
	c-4-0.4-7.6-0.7-10.4-1c-2.9-0.3-5.2-0.6-6.7-0.7C6374.9-672.6,6374.1-672.7,6374.1-672.7L6374.1-672.7z"/>
<linearGradient id="SVGID_2_" gradientUnits="userSpaceOnUse" x1="54" y1="656.7482" x2="281.2892" y2="656.7482" gradientTransform="matrix(1 0 0 -1 0 951)">
	<stop  offset="0" style="stop-color:#AA8900"/>
	<stop  offset="1" style="stop-color:#FCEDC5"/>
</linearGradient>
<path class="st2" d="M116.7,76.8c-20.5,0.8-41.1,1.5-61.6,2.3H54c0.7,32,1.4,64,2.3,96c0.1,5.5,0.3,11.1,1.4,16.6
	c2.1,10.8,4,20.2,3.8,31.3l-0.6,37.1c-0.5,28.8-2.4,56.2-0.8,85c2.5,42.4,4.2,82.8,9.4,125c2,16.3,6.9,27.9,22.4,35.4
	c25.9,12.5,58.7,13.3,86.8,11.9c24.4-1.2,49.4-4.4,70.8-16.2c2.2-1.2,2.1-1.8,3.9-3.5c8.8-8.7,11.8-21.6,13.6-33.9
	c3.2-23,4.4-46.3,4.3-69.5c-0.1-23.8,2-47,1.9-70.9c-0.2-33,2.7-65.1,1.3-98.1c-0.2-4.8,0.8-8.9,1.7-13.7c6.1-32.3,5.4-94.8,4.5-141
	C225.9,72.7,171.3,74.8,116.7,76.8L116.7,76.8z"/>
<path class="st0" d="M46.8,9.2c0.8,41.6,1.1,159.8,2.6,178.1c1.3,15.6,3.6,23.5,3.8,39.7c0.5,42.4-1.2,217.6-1.7,264.2
	c-0.2,19.1,0.2,70.6,4,73.4c2.5,1.8,9.6,3.6,12.7,3.8c69.4,3.8,144.6,2.8,211.2,0.6c2.2-0.1,4.5-0.2,6.6-1.1
	c4.4-2.1,6.1-7.5,6.2-12.3s-0.6-82.2,0.3-116.4c19.6-4.8,38.3-13.5,54.7-25.3c15.3-11,28.6-23.5,38.9-39.3
	c13.5-20.9,17.8-46.2,21.8-70.8c7-43.3,6-81.4,2.7-125.2c-1.2-16.4-10.1-30.4-24.6-38.4c-17-9.3-36.3-13.2-55.3-8.9
	c-12.8,2.9-28.3,12-35-4.7c-4.4-10.9,5.2-118.5-1.7-119.7c-19.8-3.4-42.9,0.1-62.8,0.9c-24.2,1-48.4,1.4-72.6,1.7
	C123.1,9.7,82.5,9.6,46.8,9.2L46.8,9.2z"/>
<path class="st0" d="M326,385.4c-8.4,4.6-24.9,12.1-34.1,9.5c-0.7-55.6-2-110.2-1.1-166.1c0.2-9.9-1-11.2,1.8-20.8
	c2.3-7.9,7.5-27.5,6.8-40.8c10.9-3.6,42.9-7.7,49.6-6.8c8.6,1.1,16,7.1,20.6,14.5s6.6,16,7.9,24.6
	C383.1,236.5,390.8,349.8,326,385.4L326,385.4z"/>
<path d="M56.6,10.8c0,0,0.5,17.8,1.4,49c0.4,15.6,1,34.5,1.6,56.3c0.3,10.9,0.7,22.4,1,34.6c0.2,6.1,0.4,12.3,0.6,18.7
	c0.1,3.2,0.3,6.4,0.8,9.6c0.2,1.6,0.6,3.2,0.9,4.8c0.3,1.6,0.6,3.3,1,4.9c1.3,6.6,2.3,13.4,2.5,20.4c0.1,3.5,0,7-0.1,10.6
	c-0.1,3.5-0.1,7.1-0.2,10.7c-0.1,7.2-0.2,14.5-0.3,22s-0.3,15-0.6,22.7c-0.4,15.3-0.9,31.1-0.5,47.1c0.2,8,0.8,16.1,1.2,24.3
	c0.5,8.2,0.9,16.5,1.4,24.8c1,16.7,2.1,33.6,3.5,50.8c0.7,8.6,1.6,17.2,2.5,25.8c0.5,4.3,1,8.7,1.5,13c0.6,4.3,1.4,8.5,2.8,12.5
	s3.3,7.8,6,11.1s6.1,5.9,9.8,8c1.8,1.1,3.8,2,5.8,2.9s4,1.7,6.1,2.4c4.1,1.5,8.3,2.7,12.6,3.8c17.1,4.1,35,5,52.7,4.6
	c17.7-0.5,35.6-1.5,52.8-5.5c4.3-1,8.5-2.2,12.7-3.6c4.1-1.5,8.2-3.1,12.1-5c1-0.5,1.9-1,2.9-1.5c0.9-0.5,2-1,2.7-1.5
	c0.4-0.3,0.6-0.5,1-0.9c0.3-0.4,0.7-0.9,1.2-1.3c0.7-0.8,1.6-1.6,2.2-2.4c1.3-1.5,2.6-3.3,3.6-5.1c1.1-1.8,2-3.8,2.8-5.7
	c3.2-8,4.5-16.6,5.6-25.2c1.1-8.6,1.9-17.2,2.5-25.8s0.9-17.1,1.1-25.6s0-16.9,0.2-25.3c0.4-16.8,1.5-33.2,1.8-49.2
	c0.1-8,0-16,0.2-23.9s0.4-15.6,0.7-23.3c0.6-15.3,1.1-30.2,1-44.6c0-3.6-0.1-7.2-0.2-10.7c-0.1-1.8-0.1-3.5-0.2-5.3s0.1-3.6,0.3-5.4
	c0.5-3.5,1.3-6.9,1.8-10.2c0.1-0.8,0.3-1.7,0.4-2.5s0.2-1.7,0.4-2.5c0.3-1.7,0.5-3.3,0.7-5c1.6-13.2,2.3-26,2.8-38.2
	s0.7-23.7,0.8-34.6c0.2-21.7-0.1-40.7-0.4-56.3s-0.5-27.9-0.6-36.2c-0.1-8.4,0-12.8,0-12.8s0,4.5,0.2,12.8c0.2,8.4,0.6,20.6,1,36.2
	s0.9,34.6,0.9,56.3c0,10.9,0,22.4-0.4,34.6s-1,25-2.6,38.4c-0.2,1.7-0.4,3.3-0.6,5c-0.1,0.8-0.2,1.7-0.4,2.5
	c-0.1,0.8-0.3,1.7-0.4,2.5c-0.5,3.4-1.4,6.8-1.8,10.1c-0.2,1.7-0.3,3.4-0.3,5.1c0.1,1.8,0.1,3.5,0.2,5.3c0.1,3.5,0.2,7.1,0.2,10.7
	c0.2,14.5-0.3,29.4-0.8,44.7c-0.2,7.7-0.4,15.4-0.6,23.3c-0.1,7.8,0,15.8-0.1,23.9c-0.2,16.1-1.3,32.6-1.6,49.2
	c-0.2,8.3,0,16.8-0.2,25.3c-0.1,8.5-0.5,17.1-1,25.7c-0.6,8.6-1.4,17.3-2.5,25.9c-1.1,8.6-2.4,17.5-5.7,25.9c-0.9,2.1-1.8,4.1-3,6.1
	s-2.4,3.8-4,5.6c-0.8,0.9-1.5,1.6-2.3,2.5c-0.4,0.4-0.7,0.7-1.1,1.2c-0.4,0.4-0.9,0.9-1.4,1.3c-1.1,0.8-2.1,1.2-3.1,1.8
	c-1,0.5-2,1.1-3,1.5c-4,2-8.2,3.6-12.4,5.1c-4.2,1.4-8.6,2.7-12.9,3.7c-8.7,2-17.6,3.3-26.6,4.2c-8.9,0.8-17.9,1.3-26.8,1.5
	c-17.9,0.3-36-0.6-53.5-4.8c-4.4-1.1-8.7-2.3-12.9-3.9c-2.1-0.8-4.2-1.6-6.3-2.5c-2-0.9-4.1-1.9-6.1-3c-3.9-2.3-7.6-5.1-10.5-8.7
	c-2.9-3.5-5.1-7.7-6.5-12s-2.3-8.7-2.9-13.1c-0.5-4.4-1-8.7-1.5-13c-0.9-8.7-1.8-17.3-2.5-25.9c-1.4-17.2-2.5-34.2-3.4-50.9
	c-0.5-8.3-0.9-16.6-1.4-24.8c-0.4-8.2-1-16.3-1.1-24.4c-0.4-16.1,0.2-31.9,0.7-47.2c0.3-7.7,0.5-15.2,0.7-22.6s0.3-14.8,0.4-22
	c0.1-3.6,0.1-7.2,0.2-10.7c0.1-3.5,0.2-7.1,0.1-10.5c-0.1-6.9-1.1-13.6-2.3-20.2c-0.3-1.6-0.6-3.3-0.9-4.9c-0.3-1.6-0.7-3.2-0.9-4.9
	c-0.5-3.3-0.7-6.6-0.8-9.8c-0.2-6.4-0.3-12.7-0.4-18.8c-0.2-12.2-0.5-23.8-0.7-34.6c-0.4-21.7-0.7-40.7-1-56.3
	C56.9,28.6,56.6,10.8,56.6,10.8L56.6,10.8z"/>
<path d="M59.1,68.9c0,0,14.1-0.7,35.2-1.7s49.3-2.2,77.5-3.5c14.1-0.7,28.2-1.4,41.4-1.9c6.6-0.2,13-0.5,19-0.6
	c6.1-0.2,11.8-0.3,17.1-0.4c5.3-0.1,10.1-0.1,14.4-0.2c4.3-0.1,8-0.1,11.1-0.1h9.7v0.3c0,0-3.5,0.3-9.7,0.7
	c-3.1,0.2-6.8,0.5-11.1,0.7c-4.3,0.3-9.1,0.6-14.4,0.9c-5.3,0.3-11,0.6-17,0.9c-6,0.3-12.4,0.5-19,0.8c-13.2,0.4-27.3,0.8-41.4,1.2
	c-28.2,0.8-56.4,1.6-77.5,2.2c-21.1,0.6-35.2,0.9-35.2,0.9L59.1,68.9L59.1,68.9z"/>
</svg>
