<svg id="Layer_1" xmlns="http://www.w3.org/2000/svg" viewBox="0 0 700 700"><style>.st0,.st1{fill:none}.st1{stroke:#000;stroke-width:5;stroke-miterlimit:10}.st2{opacity:.9;fill:url(#SVGID_1_)}.st3{opacity:.77;fill:url(#SVGID_2_)}.st4{stroke-width:2}.st4,.st5{fill:none;stroke:#000;stroke-miterlimit:10}</style><path class="st0" d="M0 0h700v700H0z"/><path class="st1" d="M6708.6-568.1c.3 38.5.2 82.4-5.7 120.5-2.3 14.7-3.7 31.7-10.6 44.9-9.4 17.9-18.6 35.9-34 49.5-5.5 4.9-11.5 9.2-17.9 12.8-4.2 2.3-15.3 5.1-15.9 10.8-.4 3.6 3.8 5.7 6.9 7.6 6.9 4.3 10.9 12.3 11.6 20.4 1.5 15.4-5.6 30.7-18.9 38.8-.8.5-1.6 1-1.9 1.8-.7 2.1 2.1 3.4 4.2 3.8 12.1 2.1 24 5 35.7 8.7 7.7 2.4 24.3 10.6 12 18.5-7.7 4.9-17 6.2-26 7.3-24.7 3.1-49.7 6.2-74.5 3.9-5.6-.5-11.2-1.4-16.8-2.2l-22.5-3.3c-5.3-.8-11.8-2.7-12.7-7.9-1.7-10.2 16.6-15.1 23.6-17.2 4.9-1.5 36.5-4.6 35.6-9.3-.5-2.4-2.8-3.9-4.8-5.4-8.9-6.4-15-16.4-16.6-27.2-1.6-10.8 1.3-22.2 7.9-30.9 2.2-2.9 4.9-6 4.4-9.6-.2-1.5-1-2.9-2-4.1-5.1-6.7-15.9-9.5-22.8-14.7-7.9-6-15.2-12.8-21.6-20.4-12.5-14.5-22.1-31.5-27.6-49.9-5.2-17.2-6.9-35.3-8.2-53.2-2.3-31-3.6-62-3.8-93.1 20.2-2.4 42-1.8 62.4-1.4 52.8 1.1 160.5-1.6 160.5.5z"/><path d="M6582-253.2v1.9c0 .6.1 1.3.6 1.9.4.6 1.2.8 2.2.8 2.1-.1 4.5-.2 7.1-.2 1.3 0 2.7-.1 4-.1 1.4-.1 2.8-.1 4.1-.2 1.4-.1 2.8-.1 4.1-.2 1.4-.1 2.7-.1 4-.2 2.6-.1 5-.2 7.1-.3 2-.1 3.7-.6 4.6-1.3.4-.4.7-.8.8-1.1.1-.3.2-.5.2-.5v.5c-.1.3-.2.8-.6 1.3-.4.5-1.1 1-1.9 1.4-.8.4-1.8.7-2.8.8-2.1.4-4.5.7-7.1.9-1.3.1-2.7.3-4 .4-1.4.1-2.8.2-4.2.2-1.4 0-2.8.1-4.2.1h-4.1c-2.6-.1-5.1-.2-7.2-.4-.5-.1-1.1-.1-1.6-.4-.5-.3-.9-.7-1.1-1.1-.4-.9-.4-1.7-.3-2.3.1-.6.2-1.1.3-1.4-.1-.3 0-.5 0-.5zm-.4-84.6s.6.2 1.6.5c.5.2 1.2.3 1.9.5s1.6.4 2.4.5c.9.2 1.9.3 2.9.5 1 .1 2.1.2 3.3.3 1.1.1 2.3.1 3.5.2h3.6c1.2 0 2.5 0 3.7-.1 1.2 0 2.4-.1 3.6-.1 2.3-.1 4.5-.1 6.3-.3 1.8-.2 3.2-.6 4.1-1.2.4-.3.8-.6 1-.8l.3-.3s-.1.1-.2.4c-.2.3-.4.6-.8 1-.8.8-2.3 1.6-4.2 2-.9.2-2 .4-3 .5-1.1.1-2.2.3-3.3.4l-3.6.3c-1.2.1-2.5.1-3.7.2-1.3 0-2.5 0-3.7-.1-.6 0-1.2-.1-1.8-.1-.6-.1-1.2-.1-1.8-.2-1.2-.1-2.3-.4-3.4-.6-.5-.1-1-.3-1.5-.4-.5-.2-1-.3-1.4-.4-1.8-.6-3.2-1.3-4.2-1.8-1-.6-1.6-.9-1.6-.9zm-50.1 102.1l.3.3c.2.2.5.4 1 .6.9.5 2.3 1 4.2 1.4 1.9.4 4.2.7 6.8 1.1 2.6.4 5.6.7 8.9 1.1 3.3.3 6.8.7 10.6 1 3.7.3 7.7.5 11.8.7 8.2.3 17 .5 25.7.6 4.4.1 8.8.1 13.1.2 4.3 0 8.5.1 12.6 0s8-.4 11.7-.8c3.7-.5 7.2-1.1 10.4-1.7 6.4-1.4 11.6-3 15.2-4.3 1.8-.7 3.2-1.2 4.2-1.6l1.5-.6s-.5.2-1.4.7c-.9.4-2.3 1.1-4.1 1.8-3.5 1.5-8.7 3.5-15.1 5.1-6.4 1.6-14.1 2.9-22.3 3.2-4.1.2-8.4.2-12.7.2-4.3 0-8.7-.1-13.1-.1-4.4-.1-8.8-.2-13.1-.3-4.3-.1-8.6-.4-12.7-.6-4.1-.3-8.1-.6-11.8-1-3.8-.4-7.3-.8-10.6-1.3-1.6-.3-3.2-.5-4.7-.7-1.5-.3-2.9-.5-4.2-.8-2.6-.5-4.9-1-6.8-1.5-1.9-.5-3.3-1.1-4.1-1.7-.4-.3-.7-.5-.9-.7-.3-.2-.4-.3-.4-.3z"/><linearGradient id="SVGID_1_" gradientUnits="userSpaceOnUse" x1="6498.813" y1="-446.236" x2="6704.691" y2="-446.236"><stop offset=".018" stop-color="#801fe3"/><stop offset="1" stop-color="#b7a7ff"/></linearGradient><path class="st2" d="M6498.8-539.9c1.4 24.4 2.7 48.8 4.1 73.2.4 7.9.9 15.9 2.2 23.7 1.8 11.1 5.4 21.8 8.9 32.5 3 9.1 6 18.2 11.1 26.3 17.8 28.1 51.5 32.7 81.9 31.3 10.6-.5 21.3-1.5 31.5-4.7 66.9-21.3 65.2-117 66.1-172.7 0-2.6.1-5.1.1-7.7-68.7 2.2-137.5 4-205.9-1.9z"/><path d="M6493.7-559.6s.6 8.1 1.5 22.2c.5 7.1 1 15.6 1.7 25.5.6 9.8 1.4 20.9 2.1 33.1.4 6.1.7 12.4 1.3 18.9.5 6.5 1.4 13.2 3 19.9 1.6 6.7 3.7 13.5 6 20.4 2.4 6.9 4.5 14 7.5 20.9.8 1.7 1.5 3.4 2.4 5.1.9 1.6 1.8 3.3 2.8 4.8 1.1 1.6 2.2 3.1 3.4 4.7 1.2 1.4 2.5 2.8 3.7 4.3 5.3 5.5 11.7 10 18.8 13.2 7.1 3.3 14.8 5.4 22.6 6.6 7.9 1.3 15.9 1.7 23.9 1.7 8-.1 16.1-.4 24-1.5 3.9-.5 7.9-1.2 11.7-2.2 1-.3 1.9-.5 2.8-.8l.7-.2h.1l.2-.1.4-.1 1.4-.5 2.8-1c.5-.2.9-.3 1.4-.5l1.3-.6c7.1-3.1 13.7-7.4 19.4-12.5 5.7-5.1 10.5-11.1 14.4-17.5 4-6.3 7.1-13.1 9.7-19.8 2.6-6.8 4.6-13.6 6.3-20.3 3.2-13.5 5-26.5 6.2-38.5 1.1-12.1 1.7-23.2 2-33 .3-9.9.5-18.4.7-25.5.2-14.2.4-22.2.4-22.2s0 2 .1 5.8c0 3.8.1 9.4.2 16.4 0 7.1 0 15.7-.2 25.5-.1 9.9-.5 21-1.5 33.1-1 12.1-2.6 25.2-5.7 38.9-1.6 6.8-3.6 13.7-6.1 20.6-2.5 6.9-5.7 13.8-9.8 20.3-4 6.5-9 12.7-14.8 18.1-5.9 5.4-12.7 9.8-20.2 13.1l-1.4.6c-.5.2-.9.4-1.4.5l-2.8 1-1.4.5-.4.1-.2.1-.2.1-.7.2c-1 .3-2 .6-2.9.8-3.9 1-8 1.8-12 2.4-8.1 1.1-16.2 1.5-24.4 1.6-8.2 0-16.3-.5-24.4-1.8-8-1.3-16-3.5-23.3-7-7.4-3.4-14.1-8.1-19.6-13.9-1.3-1.5-2.6-3.1-3.9-4.6-1.1-1.6-2.2-3.2-3.3-4.7-2.2-3.4-3.9-6.8-5.4-10.4-3-7.1-5.2-14.2-7.5-21.2-2.2-7-4.3-13.9-5.8-20.7-1.6-6.9-2.4-13.6-2.8-20.2-.5-6.6-.7-12.9-1-18.9-.6-12.1-1.1-23.2-1.6-33.1-.5-9.9-.8-18.4-1.2-25.5-.7-14.2-1-22.2-1-22.2z"/><path d="M6494.1-544.2s.8 0 2.4.1c1.6.1 3.8.2 6.7.3 2.9.2 6.4.3 10.5.5 4 .2 8.6.3 13.6.5s10.4.3 16.1.5c5.7.2 11.7.2 17.9.4 6.2.1 12.6.1 19.2.2 6.5.1 13.2 0 19.8.1 6.6 0 13.3 0 19.8-.1s13-.1 19.2-.2c12.5-.1 24.1-.2 34-.3 10-.1 18.3-.1 24.1-.1h9.1s-.8.1-2.4.2c-1.6.1-3.8.2-6.7.4-5.8.3-14.1.8-24.1 1.3-10 .5-21.6.9-34 1.3-6.2.1-12.7.4-19.2.4-6.5.1-13.2.1-19.8.2-6.6 0-13.3 0-19.8-.2-6.5-.1-13-.3-19.2-.4-6.2-.2-12.3-.4-18-.8-2.9-.2-5.6-.3-8.3-.5-2.7-.2-5.3-.4-7.8-.5-2.5-.2-4.9-.3-7.1-.5-2.3-.2-4.4-.4-6.4-.6-4-.4-7.6-.7-10.4-1-2.9-.3-5.2-.6-6.7-.7-1.7-.4-2.5-.5-2.5-.5z"/><linearGradient id="SVGID_2_" gradientUnits="userSpaceOnUse" x1="195.617" y1="522.481" x2="451.994" y2="522.481"><stop offset="0" stop-color="#fff"/><stop offset="1" stop-color="#f1ffde"/></linearGradient><path class="st3" d="M451.8 427.3c-56-6.5-109.8 1.1-166.2 2.4-29.8.7-60.1-.9-89.8-2.4h-.2c16.7 37.4 33.4 74.9 50.2 112.3 8.1 18.1 15.1 35.5 22.3 53.9 1.5 3.7 2.9 7.5 5.2 10.8 8.1 11.6 24 14.1 38 15.4-.3 1 1.4.2 2.5.2 19.4.8 36.6-.1 53.8-9.5 14.2-7.7 64-134.4 84.3-183.1h-.1z"/><path class="st1" d="M460.3 411.8c1.5 0 2.6 1.4 2.2 2.8-3 12-8.3 23.4-13.5 34.6-11.7 25.2-21.6 51.1-33.3 76.3-5.7 12.4-10.5 24.9-17.2 37-1.9 3.4-1.9 5-3.6 8.5-6.5 13.6-13.1 28-11.6 43 .9 8.5 4.2 17.2 7.5 25 3.4 8.1 9.3 15.2 10.7 24 .2 1.2.2 2.4.2 3.5-.5 13.2-5.7 18-15.8 25-4.3 2.9-15.9 3.3-21.3 4.2-7.9 1.3-15.8 2.1-23.8 2.6-14.6 1-29.2 1.1-43.8 1.6-10.3.4-26.3-2.9-35.5-7.4-3.9-1.9-7.8-4.1-10.9-7.1-15.4-14.8-3.5-31.5 3.3-46.9 4.4-9.9 6.2-20.8 5.4-31.6-2-27.3-19.9-52.8-28.6-77.6-7.2-20.8-16.1-40.9-25.9-60.6-8.2-16.5-14.6-33.4-22.6-49.8-.7-1.5.3-3.2 2-3.3 38.8-1 247.2-3.8 276.1-3.8z"/><path d="M188.4 418.6l13 28.2 13 28.2 25.7 56.6 6.4 14.2c2.1 4.7 4.2 9.5 6.2 14.3 4.1 9.5 8 19.2 11.8 28.8l2.9 7.2c.9 2.4 1.9 4.8 3 7 .6 1.1 1.2 2.2 1.9 3.2l.1.2.1.1c-.1-.1 0 0 0 0l.3.4.6.8.6.8.6.6c1.6 1.8 3.6 3.3 5.7 4.6 2.1 1.3 4.4 2.3 6.7 3.2 2.3.9 4.8 1.5 7.3 2.1 5 1.1 10.1 1.7 15.2 2.2l1.3 1.9v-.3c0-.1-.1-.3-.2-.5s-.3-.3-.5-.4c-.1-.1-.2-.1-.3-.1h-.1.1c.2 0 .6-.1 1-.2.2 0 .4-.1.7-.1h1.7c1.4 0 2.8.1 4.2.1 2.8.1 5.6.1 8.3 0 5.5-.1 11.1-.6 16.5-1.5 5.4-1 10.7-2.5 15.8-4.6 1.3-.5 2.5-1.1 3.8-1.7l1.8-.9.9-.5.5-.2.4-.2c.3-.2.5-.4.7-.5.2-.1.4-.4.7-.6.5-.4.9-1 1.3-1.5.8-1 1.6-2.1 2.4-3.3 3.1-4.6 5.8-9.5 8.4-14.4 2.6-4.9 5.1-9.9 7.5-15 2.4-5 4.8-10.1 7.1-15.2l6.9-15.3c9.1-20.4 17.9-41 26.5-61.6l13.1-30.9c4.3-10.3 8.7-20.6 13.3-30.9l-6.3 15.6-6.2 15.6-12.4 31.2c-8.4 20.7-16.9 41.5-25.8 62-2.2 5.1-4.5 10.3-6.8 15.4s-4.7 10.2-7.1 15.3c-2.4 5.1-4.9 10.1-7.5 15.1-2.6 5-5.3 9.9-8.5 14.7-.8 1.2-1.6 2.4-2.5 3.5-.5.6-.9 1.1-1.5 1.7-.3.3-.5.5-.9.8-.3.3-.7.6-1 .7l-.2.1-.1.1h-.1s-.2.1-.1.1l-.5.2-.9.5-1.9 1c-1.3.6-2.6 1.2-3.9 1.7-5.3 2.2-10.8 3.8-16.4 4.8-5.6 1-11.3 1.5-16.9 1.6-2.8.1-5.6.1-8.5 0-1.4 0-2.8-.1-4.2-.1H311.7c-.1 0-.2 0-.4.1-.3.1-.6.1-1.1.2h-.9c-.1 0-.4-.1-.5-.2-.3-.1-.5-.3-.7-.6-.2-.3-.3-.6-.3-.7 0-.5 0-.6.1-.9l1.3 1.9c-5.2-.5-10.4-1.1-15.5-2.3-2.6-.6-5.1-1.3-7.6-2.2-2.5-.9-5-2-7.2-3.5-2.3-1.4-4.4-3.1-6.3-5.2-.2-.3-.5-.5-.7-.8l-.6-.8-.6-.8-.3-.4-.1-.2-.1-.1-.1-.2c-.8-1.1-1.4-2.3-2.1-3.5-1.2-2.4-2.2-4.9-3.1-7.3l-2.8-7.2c-3.8-9.6-7.6-19.2-11.7-28.8l-6.1-14.3-6.2-14.2-25-56.9-12.4-28.5-12.3-28.5zm75.9 223.9s-.1.1-.2.3c-.2.2-.4.5-.6 1-.5.9-1 2.4-.9 4.3.1 1.9.8 4.2 2.5 6.2 1.6 2 4.3 3.6 7.3 4.5 3.1.9 6.6 1.3 10.4 1.6 1.9.2 3.8.3 5.8.4 2 .1 4 .2 6.1.3 2.1.1 4.2.1 6.3.1h6.4c4.3 0 8.7-.2 13.1-.4s8.8-.5 13.1-.8c4.3-.3 8.6-.6 12.7-1s8.1-.7 11.9-1c3.8-.3 7.3-.6 10.5-1.3 3.2-.7 6-1.8 8.1-3.4 2.1-1.6 3.5-3.5 4.3-5.2.8-1.7 1-3.2 1.1-4.3v-1.6s0 .1.1.4c0 .3.1.7.1 1.2 0 1 0 2.6-.8 4.4-.7 1.8-2.1 3.8-4.2 5.6-2.1 1.8-5 3.1-8.3 4-3.3.9-6.9 1.3-10.6 1.7-3.8.4-7.7.9-11.9 1.3-4.1.4-8.4.8-12.7 1.2-4.3.4-8.8.6-13.2.9-4.4.2-8.8.3-13.2.3-4.4 0-8.7-.1-12.8-.3-4.1-.2-8.2-.5-11.9-.9-3.8-.4-7.4-.9-10.6-2-3.2-1.1-6-2.9-7.6-5.2-1.6-2.3-2.3-4.7-2.3-6.7-.1-2 .6-3.5 1.2-4.3.3-.4.5-.7.7-.9 0-.3.1-.4.1-.4z"/><path d="M193.9 430h2.9c1.9 0 4.6.1 8.1.2 3.5 0 7.8.2 12.6.3 4.9.1 10.4.3 16.4.4 6 .2 12.5.3 19.4.5 6.9.2 14.1.5 21.6.6 7.5.2 15.3.1 23.1-.3 7.9-.3 15.9-.9 23.8-1.6 4-.3 8-.7 12-1 4-.3 7.9-.6 11.9-.9 7.9-.5 15.6-1 23.1-1.4 3.8-.2 7.4-.4 11.1-.5 3.6-.1 7.2-.2 10.6-.2 6.9-.1 13.4 0 19.4.2 3 .1 5.9.2 8.6.4 2.7.2 5.3.4 7.8.6 2.4.2 4.7.4 6.8.6 2.1.2 4 .4 5.8.6 7 .9 10.9 1.5 10.9 1.5v.3s-4-.2-11-.7c-3.5-.1-7.7-.4-12.6-.5-2.4-.1-5-.1-7.8-.2-2.7 0-5.6 0-8.6-.1-6 0-12.5.1-19.3.3-6.9.2-14.1.4-21.6.7-7.5.2-15.2.6-23.1 1-3.9.2-7.9.3-11.9.5-4 .1-8 .3-12 .4-4 .1-8 .3-12 .4-4 .1-8 .3-11.9.4-7.9.3-15.6.7-23.1 1-7.5.3-14.8.5-21.7.4-6.9-.1-13.4-.3-19.4-.6-6-.3-11.5-.6-16.4-1-4.9-.3-9.1-.7-12.6-1-3.5-.3-6.2-.6-8.1-.7-1.9-.2-2.9-.4-2.9-.4l.1-.2z"/><path class="st4" d="M394.8 482.9c-3-7.3-17.2-15.3-24.3-17.9-12.2-4.3-24.5-8.5-36.7-12.7-2.6-.9-5.4-1.8-8.2-1.3-4.9.9-7.8 5.7-10 10.1-5 9.8-9.5 19.9-13.6 30.1-3.7 9.1-3 18.3-2.5 28.1.2 3.1.5 6.4 2.5 8.8 1.4 1.7 3.6 2.6 5.6 3.5 11.1 4.9 22.3 9.8 33.9 13.1 6.8 1.9 14.1 3.3 20.7.8 8.4-3.2 13.3-11.8 17.4-19.8 5.5-10.5 11-20.9 16.5-31.4 1.1-2.1 2.2-4.3 1.8-6.6-.5-1.9-1.8-3.4-3.1-4.8z"/><path d="M302.9 497.1h3.7c.6 0 1.2 0 1.9.1.7 0 1.5.1 2.3.2 1.6.2 3.4.4 5.4.8 4 .7 8.5 1.8 13.3 3 2.4.6 4.9 1.2 7.4 1.8 2.5.6 5.1 1.2 7.6 1 1.2-.1 2.4-.3 3.4-.8s1.9-1.4 2.6-2.3c.7-1 1.4-2.1 2.1-3.2.7-1.1 1.3-2.2 2-3.2 2.6-4.2 4.9-8.3 6.8-11.8 1.9-3.5 3.5-6.4 4.5-8.5 1.1-2.1 1.7-3.3 1.7-3.3l-.3.9c-.2.6-.5 1.4-1 2.5-.9 2.2-2.1 5.2-3.9 8.9-1.7 3.6-3.8 7.8-6.3 12.1-.6 1.1-1.3 2.2-1.9 3.3-.7 1.1-1.3 2.2-2.1 3.4-.8 1.1-1.8 2.2-3.2 2.9-1.3.7-2.8 1-4.2 1.1-2.9.1-5.6-.6-8.1-1.1-2.6-.6-5.1-1.3-7.5-1.9-2.4-.7-4.7-1.3-6.9-1.9-2.2-.6-4.3-1.2-6.2-1.6-1.9-.4-3.7-.9-5.3-1.1-.8-.2-1.5-.3-2.2-.4-.7-.1-1.3-.2-1.9-.3-1.1-.1-2.1-.2-2.7-.3-.7-.3-1-.3-1-.3z"/><path d="M348.3 505.2s.1-.2.4-.3c.3-.1.8.1 1.2.5.2.2.4.4.6.8.1.3.3.6.5.9.3.7.7 1.4 1.1 2.2.8 1.6 1.7 3.6 2.6 5.7.5 1.1.9 2.1 1.4 3.2.5 1.1.9 2.2 1.4 3.4.4 1.1.9 2.3 1.3 3.4l1.2 3.3c.8 2.1 1.5 4.2 2 5.9 1.1 3.5 1.7 5.9 1.7 5.9s-1.2-2.1-2.8-5.4c-.8-1.6-1.7-3.6-2.6-5.7-.5-1.1-.9-2.1-1.4-3.2-.5-1.1-.9-2.2-1.4-3.4-.4-1.1-.9-2.3-1.3-3.4l-1.2-3.3c-.8-2.1-1.5-4.2-2-5.9-.3-.9-.5-1.7-.8-2.4-.1-.4-.2-.7-.3-1-.1-.3-.2-.5-.3-.7-.3-.4-.6-.7-.9-.7-.3 0-.4.2-.4.2z"/><path class="st4" d="M282 520.2c-1.6 13.4-4.1 26.8-7.4 40.1-.9 3.5-1.8 7.1-1.8 10.7 0 3.4.9 6.6 1.9 9.6 3.4 10.3 8.8 20.4 17.4 22.6 2.9.8 6 .5 9.1.6 14.1.1 27.4 5.1 41.5 5.2 3.2 0 6.6-.3 9.7-2.4 5.5-3.8 8.2-12.3 9.8-20 2.3-11.5 3.4-23.3 7-34.5 1.2-3.7 2.7-7.9 1.7-11.3-1.1-3.6-4.5-4.5-7.4-5.7-5.3-2.2-9.6-6.7-14.5-9.8-8.1-5.2-17.8-6.6-27.4-4-12.8 3.4-24.4-3.6-37-4.1-.5 0-1.1 0-1.6.4s-1.3 2-1 2.6z"/><path d="M282.5 521.7s1.1 1.1 2.9 3c1.8 1.9 4.5 4.7 7.6 8 1.6 1.7 3.2 3.5 5 5.3 1.8 1.8 3.8 3.7 6 5.4 2.2 1.7 4.7 3.1 7.4 4 2.7.9 5.7 1.2 8.6 1.2 3 0 6-.2 8.9-.4 3-.2 5.9-.4 8.7-.6 5.7-.4 11-.7 15.5-1.2 4.5-.6 8.2-1.4 10.7-2.1 2.5-.7 4-1.3 4-1.3s-.3.2-1 .5-1.6.7-2.9 1.2c-2.5.9-6.2 2.1-10.7 2.9-4.5.8-9.8 1.3-15.5 1.9-2.8.3-5.8.5-8.7.8-3 .3-6 .5-9.1.5-3.1 0-6.2-.4-9.2-1.4-3-1-5.6-2.6-7.9-4.4-2.3-1.8-4.2-3.8-6-5.7-1.8-1.9-3.4-3.8-4.8-5.6-2.9-3.5-5.3-6.5-7-8.5-1.5-2.3-2.5-3.5-2.5-3.5zm26.2 27s-.2.8-.6 2.1c-.4 1.3-1 3.2-1.7 5.4s-1.5 4.9-2.4 7.7c-.9 2.8-1.8 5.8-2.7 8.8-.9 3-1.8 6-2.6 8.8-.8 2.8-1.6 5.5-2.3 7.7-.7 2.3-1.2 4.1-1.6 5.5-.4 1.3-.6 2.1-.6 2.1s.1-.8.3-2.2c.2-1.4.5-3.3.9-5.6s1-5 1.7-7.9c.4-1.4.7-2.9 1.1-4.4.4-1.5.9-3 1.3-4.5.5-1.5 1-3 1.4-4.5.5-1.5 1-2.9 1.5-4.3 1-2.8 2-5.3 3-7.5.9-2.2 1.8-4 2.4-5.2.6-1.3.9-2 .9-2z"/><path class="st4" d="M435.5 465.3c-19.5-12.1-33.4-41.5-26.3-63.8 13.7-43.4 74.9-52.5 98.5-12.8 5.6 9.4 9.7 17.8 10.4 28.7.1 2.1-1.7 6.9-1.9 9-1.1 10.9-9.1 22.8-17.2 29.7-16.1 13.6-38.9 17.6-58.1 11.2"/><path class="st5" d="M467.7 420.9c-3.2 1.3-7.2.6-9.8-1.6-.9-.7-1.6-1.6-2-2.7-.4-1-.4-2.1-.3-3.1.7-5.6 8.5-11.8 14.1-8.4 6 3.5 3.7 13.4-2 15.8z"/><path d="M459.4 421.1s-1.3 1.2-3.7 3.2c-2.4 2-5.8 4.9-10 8.2-2.1 1.7-4.4 3.4-6.9 5.3-2.5 1.8-5 3.8-7.9 5.6-.7.4-1.6.8-2.5.9-.9.1-1.8-.1-2.7-.3-1.7-.5-3.4-1.3-4.8-2.4-2.9-2.2-5.1-5.3-6.3-8.7-1.2-3.4-1.7-7.2-1.1-10.7.3-1.8 1-3.5 2-5s2.4-2.7 3.9-3.5c3-1.7 6.4-2.2 9.5-2.3 3.1 0 6 .3 8.7.4 5.3.4 9.8.7 12.9 1 3.1.3 4.9.4 4.9.4s-1.8-.1-4.9-.2c-3.1-.1-7.6-.4-12.9-.6-2.7-.1-5.6-.4-8.6-.3-3 .1-6.2.6-9.1 2.3-1.4.8-2.7 1.9-3.6 3.3-.9 1.4-1.5 3-1.8 4.6-.6 3.4-.1 7 1.1 10.2 1.2 3.3 3.2 6.3 5.9 8.3 1.4 1 2.9 1.8 4.5 2.2.8.2 1.6.3 2.4.3.8-.1 1.5-.4 2.2-.8 2.7-1.8 5.4-3.7 7.9-5.5 2.5-1.8 4.8-3.5 7-5.1 4.3-3.2 7.8-6 10.2-7.9 2.3-1.8 3.7-2.9 3.7-2.9zm-2.8-12.7s-.1 0-.3.1c-.2 0-.5.1-.9 0-.8 0-1.8-.4-3.2-.9-2.6-1-6.5-2.4-11.2-3.6-2.3-.6-4.9-1.2-7.6-1.7-1.4-.2-2.8-.5-4.2-.9-1.4-.4-2.9-1.1-4.1-2.2-.3-.3-.6-.6-.8-.9-.2-.4-.5-.7-.6-1.1-.4-.7-.6-1.5-.7-2.4-.2-1.6 0-3.3.6-4.9.6-1.6 1.5-3 2.4-4.3 1-1.3 2.1-2.5 3.3-3.7 2.4-2.3 5.1-4.2 8-5.6 1.5-.7 3-1.3 4.5-1.8.7-.2 1.6-.5 2.5-.4.9.1 1.6.6 2.2 1.1 2.4 1.9 4.5 4.1 6.2 6.3 1.7 2.2 3.1 4.5 4.3 6.6 2.4 4.3 3.9 8.1 4.9 10.7 1.1 2.6 1.6 4.2 1.6 4.2s-.7-1.5-1.8-4.1c-1.2-2.6-2.8-6.3-5.3-10.5-1.2-2.1-2.7-4.3-4.4-6.5-1.7-2.2-3.8-4.2-6.1-6.1-.6-.4-1.2-.8-1.9-.9-.6-.1-1.4.1-2.1.4-1.5.5-2.9 1-4.3 1.7-2.8 1.4-5.5 3.2-7.8 5.5-2.3 2.2-4.4 4.7-5.5 7.6-.6 1.4-.8 3-.6 4.4.2 1.5.8 2.8 1.8 3.9 1 1 2.3 1.6 3.7 2.1 1.4.4 2.8.7 4.1 1 2.7.5 5.3 1.2 7.7 1.8 4.7 1.3 8.5 2.8 11.1 3.9 1.3.6 2.3 1 3.1 1.1h.9c.4.1.5.1.5.1zm11.1-6.3s-.4-1.4-1.1-3.8c-.7-2.4-1.7-5.8-2.9-9.9-.6-2.1-1.3-4.3-1.9-6.7-.3-1.2-.5-2.5-.6-3.8-.1-1.3.1-2.7.8-4 .6-1.3 1.7-2.4 3-3 1.3-.7 2.7-1 4.2-1 3-.1 5.8 1 8.4 1.9 2.7 1 5.4 2 8 2.9 1.3.5 2.7 1.2 3.5 2.6.2.3.3.7.4 1 .1.4.2.7.2 1.1 0 .7-.1 1.4-.2 2.1-.3 1.4-.9 2.6-1.4 3.8-.5 1.2-1.1 2.3-1.7 3.4-1.1 2.2-2.3 4.2-3.5 6-1.2 1.8-2.3 3.4-3.4 4.8s-2.1 2.5-2.9 3.5c-.8.9-1.5 1.6-2 2.1l-.7.7s1-1 2.6-3c1.6-1.9 3.7-4.8 6-8.4 1.1-1.8 2.2-3.8 3.3-6 .5-1.1 1.1-2.2 1.6-3.4.5-1.2 1-2.4 1.3-3.6.3-1.2.3-2.6-.3-3.6s-1.8-1.7-3.1-2.2c-2.6-.9-5.3-1.9-8-2.9s-5.3-2-8.1-1.9c-2.7 0-5.4 1.2-6.5 3.5-.6 1.1-.7 2.4-.7 3.6 0 1.2.2 2.5.5 3.7.6 2.4 1.2 4.6 1.7 6.7 1.1 4.1 2 7.6 2.6 10 .5 2.4.9 3.8.9 3.8zm6.6 7.7s1.4-.6 3.7-1.6c2.4-1 5.8-2.5 9.9-4.2 2.1-.9 4.2-1.8 6.6-2.8 2.4-.9 5.1-1.8 8-1.6 1.4.1 2.9.4 4.2 1.1 1.3.7 2.6 1.7 3.3 3 .8 1.4 1.2 2.9 1.4 4.4.2 1.5.3 3 .3 4.5 0 3-.3 6.1-1.9 8.8-.8 1.3-1.9 2.5-3.2 3.2-1.3.8-2.8 1.1-4.2 1.2-2.9.2-5.6-.6-8-1.5-2.4-.9-4.6-1.8-6.7-2.4-2.1-.5-4.2-.8-5.9-1.2-1.8-.4-3.3-.8-4.5-1.2-1.2-.4-2.2-.9-2.8-1.2-.6-.3-.9-.5-.9-.5s.3.2 1 .5c.6.3 1.6.7 2.8 1 1.2.4 2.8.7 4.5 1 1.8.3 3.8.5 6 1s4.5 1.4 6.9 2.2c2.4.8 5 1.5 7.7 1.3 1.3-.1 2.7-.4 3.8-1.1 1.2-.7 2.2-1.7 2.9-2.9 1.4-2.4 1.7-5.4 1.7-8.3 0-1.4-.1-2.9-.2-4.4-.2-1.4-.5-2.8-1.2-4-1.4-2.4-4.2-3.6-6.9-3.8-2.7-.2-5.3.5-7.7 1.4-2.4.9-4.6 1.8-6.7 2.6-4.1 1.6-7.6 3-10 3.9-2.5 1-3.9 1.6-3.9 1.6zm-2.7 9.7s1.3.7 3.6 2.1c2.3 1.3 5.5 3.3 9.3 5.8 1.9 1.3 3.9 2.7 6 4.2 1 .8 2.1 1.6 3.2 2.4 1.1.8 2.2 1.6 3.3 2.7.5.5 1 1.2 1.2 2 .1.3.2.8.2 1.2v1.2c-.2 1.6-1.1 2.9-2 4.1-2 2.4-4.2 4.4-6.6 6.2-2.4 1.8-5.1 3.4-7.8 4.7-1.3.6-2.8 1.3-4.4 1.3-.4 0-.8 0-1.2-.1l-.3-.1h-.3c-.2-.1-.3-.1-.5-.2-.8-.3-1.4-.8-1.9-1.3-2.1-2.2-2.7-5.1-3.4-7.5-.7-2.5-1.2-4.9-1.6-7.1-.8-4.5-1.2-8.2-1.3-10.9-.1-1.3-.1-2.4-.1-3.1V426s.1 1.5.3 4.1c.2 2.6.8 6.4 1.7 10.8.5 2.2 1.1 4.6 1.8 7 .4 1.2.7 2.5 1.2 3.7.5 1.2 1.1 2.4 2.1 3.4.5.5 1 .9 1.6 1.1.1.1.3.1.5.2h.4c.3.1.7.1 1 0 1.3-.1 2.7-.6 4-1.3 2.6-1.3 5.2-2.9 7.6-4.7 2.4-1.8 4.7-3.8 6.5-6 .9-1.1 1.6-2.4 1.8-3.7.1-.3.1-.7 0-1 0-.3-.1-.6-.2-1-.2-.6-.6-1.2-1-1.6-.9-1-2.1-1.8-3.1-2.6-1.1-.8-2.1-1.7-3.1-2.4-2.1-1.6-4-3-5.9-4.3-3.7-2.6-6.8-4.7-9-6.1-2.3-1.3-3.6-2.1-3.6-2.1zm-5.8 3.1s-.2.3-.6 1c-.4.6-.9 1.6-1.3 2.9-.5 1.3-.8 3-1 4.9-.2 1.9-.3 4.1-.4 6.5-.1 2.4-.2 5-.8 7.7-.6 2.7-1.5 5.5-2.6 8.3-.6 1.4-1.1 2.8-1.9 4.2-.8 1.4-1.8 2.7-3.3 3.5-.7.4-1.7.6-2.5.6-.9 0-1.7-.3-2.5-.6-1.5-.7-2.8-1.6-4.2-2.5-2.7-1.7-5.4-3.4-8-5.2-.6-.5-1.3-1.2-1.5-2.1-.2-1 .2-1.9.6-2.5.5-.7 1-1.3 1.4-1.8.5-.6 1-1.2 1.5-1.7 3.9-4.6 7.9-8.5 11.3-11.9 1.7-1.7 3.3-3.2 4.6-4.6 1.4-1.4 2.6-2.6 3.5-3.6 1.9-2 3-3.2 3-3.2s-.3.3-.7.9c-.5.6-1.2 1.4-2.1 2.4-1.9 2.1-4.6 5-7.9 8.4-3.3 3.4-7.2 7.5-11 12-.5.6-1 1.1-1.4 1.7-.5.6-1 1.2-1.4 1.8-.4.6-.6 1.2-.5 1.8.1.6.6 1.1 1.2 1.6 2.6 1.7 5.3 3.4 8 5.1 1.4.8 2.7 1.8 4 2.4.7.3 1.4.5 2.1.6.7 0 1.4-.1 2.1-.5 1.3-.7 2.2-1.9 3-3.2.8-1.3 1.3-2.7 1.9-4.1 1.1-2.8 2.1-5.4 2.7-8.1.6-2.6.8-5.2 1-7.6.1-2.4.3-4.6.6-6.5.3-1.9.7-3.6 1.2-4.9.5-1.3 1.1-2.3 1.5-2.9.2-.5.4-.8.4-.8z"/><path class="st5" d="M442.3 464c8.3 2.1 28.6 2.1 38.8-2.2 17-7.1 33.6-27.6 31.3-47.4-.5-4.7-2.2-9.2-4-13.6-3.8-8.9-8.8-17.7-16.3-23.8-13.4-10.8-33.5-12.9-49.9-7.3-7.3 2.5-14.1 6.7-18.9 12.6-7.1 8.9-11.3 19-12.2 30.4-2.5 31.1 20 44.6 25.3 48.9"/></svg>