<?xml version="1.0" encoding="utf-8"?>
<!-- Generator: Adobe Illustrator 19.2.0, SVG Export Plug-In . SVG Version: 6.00 Build 0)  -->
<svg version="1.1" id="Layer_1" xmlns="http://www.w3.org/2000/svg" xmlns:xlink="http://www.w3.org/1999/xlink" x="0px" y="0px"
	 viewBox="0 0 700 700" style="enable-background:new 0 0 700 700;" xml:space="preserve">
<style type="text/css">
	.st0{fill:none;}
	.st1{fill:none;stroke:#000000;stroke-width:5;stroke-miterlimit:10;}
	.st2{opacity:0.9;fill:url(#SVGID_1_);}
	.st3{opacity:0.77;fill:url(#SVGID_2_);}
	.st4{fill:none;stroke:#000000;stroke-width:2;stroke-miterlimit:10;}
	.st5{fill:none;stroke:#000000;stroke-miterlimit:10;}
</style>
<rect x="0" y="0" class="st0" width="700" height="700"/>
<path class="st1" d="M6708.6-568.1c0.3,38.5,0.2,82.4-5.7,120.5c-2.3,14.7-3.7,31.7-10.6,44.9c-9.4,17.9-18.6,35.9-34,49.5
	c-5.5,4.9-11.5,9.2-17.9,12.8c-4.2,2.3-15.3,5.1-15.9,10.8c-0.4,3.6,3.8,5.7,6.9,7.6c6.9,4.3,10.9,12.3,11.6,20.4
	c1.5,15.4-5.6,30.7-18.9,38.8c-0.8,0.5-1.6,1-1.9,1.8c-0.7,2.1,2.1,3.4,4.2,3.8c12.1,2.1,24,5,35.7,8.7c7.7,2.4,24.3,10.6,12,18.5
	c-7.7,4.9-17,6.2-26,7.3c-24.7,3.1-49.7,6.2-74.5,3.9c-5.6-0.5-11.2-1.4-16.8-2.2c-7.5-1.1-15-2.2-22.5-3.3
	c-5.3-0.8-11.8-2.7-12.7-7.9c-1.7-10.2,16.6-15.1,23.6-17.2c4.9-1.5,36.5-4.6,35.6-9.3c-0.5-2.4-2.8-3.9-4.8-5.4
	c-8.9-6.4-15-16.4-16.6-27.2c-1.6-10.8,1.3-22.2,7.9-30.9c2.2-2.9,4.9-6,4.4-9.6c-0.2-1.5-1-2.9-2-4.1c-5.1-6.7-15.9-9.5-22.8-14.7
	c-7.9-6-15.2-12.8-21.6-20.4c-12.5-14.5-22.1-31.5-27.6-49.9c-5.2-17.2-6.9-35.3-8.2-53.2c-2.3-31-3.6-62-3.8-93.1
	c20.2-2.4,42-1.8,62.4-1.4C6600.9-567.5,6708.6-570.2,6708.6-568.1z"/>
<g>
	<path d="M6582-253.2c0,0,0,0.2,0,0.5c0,0.3,0,0.8,0,1.4c0,0.6,0.1,1.3,0.6,1.9c0.4,0.6,1.2,0.8,2.2,0.8c2.1-0.1,4.5-0.2,7.1-0.2
		c1.3,0,2.7-0.1,4-0.1c1.4-0.1,2.8-0.1,4.1-0.2c1.4-0.1,2.8-0.1,4.1-0.2c1.4-0.1,2.7-0.1,4-0.2c2.6-0.1,5-0.2,7.1-0.3
		c2-0.1,3.7-0.6,4.6-1.3c0.4-0.4,0.7-0.8,0.8-1.1c0.1-0.3,0.2-0.5,0.2-0.5s0,0.2,0,0.5c-0.1,0.3-0.2,0.8-0.6,1.3
		c-0.4,0.5-1.1,1-1.9,1.4c-0.8,0.4-1.8,0.7-2.8,0.8c-2.1,0.4-4.5,0.7-7.1,0.9c-1.3,0.1-2.7,0.3-4,0.4c-1.4,0.1-2.8,0.2-4.2,0.2
		c-1.4,0-2.8,0.1-4.2,0.1c-1.4,0-2.7,0-4.1,0c-2.6-0.1-5.1-0.2-7.2-0.4c-0.5-0.1-1.1-0.1-1.6-0.4c-0.5-0.3-0.9-0.7-1.1-1.1
		c-0.4-0.9-0.4-1.7-0.3-2.3c0.1-0.6,0.2-1.1,0.3-1.4C6581.9-253,6582-253.2,6582-253.2z"/>
</g>
<g>
	<path d="M6581.6-337.8c0,0,0.6,0.2,1.6,0.5c0.5,0.2,1.2,0.3,1.9,0.5c0.7,0.2,1.6,0.4,2.4,0.5c0.9,0.2,1.9,0.3,2.9,0.5
		c1,0.1,2.1,0.2,3.3,0.3c1.1,0.1,2.3,0.1,3.5,0.2c1.2,0,2.4,0,3.6,0c1.2,0,2.5,0,3.7-0.1c1.2,0,2.4-0.1,3.6-0.1
		c2.3-0.1,4.5-0.1,6.3-0.3c1.8-0.2,3.2-0.6,4.1-1.2c0.4-0.3,0.8-0.6,1-0.8c0.2-0.2,0.3-0.3,0.3-0.3s-0.1,0.1-0.2,0.4
		c-0.2,0.3-0.4,0.6-0.8,1c-0.8,0.8-2.3,1.6-4.2,2c-0.9,0.2-2,0.4-3,0.5c-1.1,0.1-2.2,0.3-3.3,0.4c-1.2,0.1-2.4,0.2-3.6,0.3
		c-1.2,0.1-2.5,0.1-3.7,0.2c-1.3,0-2.5,0-3.7-0.1c-0.6,0-1.2-0.1-1.8-0.1c-0.6-0.1-1.2-0.1-1.8-0.2c-1.2-0.1-2.3-0.4-3.4-0.6
		c-0.5-0.1-1-0.3-1.5-0.4c-0.5-0.2-1-0.3-1.4-0.4c-1.8-0.6-3.2-1.3-4.2-1.8C6582.2-337.5,6581.6-337.8,6581.6-337.8z"/>
</g>
<g>
	<path d="M6531.5-235.7c0,0,0.1,0.1,0.3,0.3c0.2,0.2,0.5,0.4,1,0.6c0.9,0.5,2.3,1,4.2,1.4c1.9,0.4,4.2,0.7,6.8,1.1
		c2.6,0.4,5.6,0.7,8.9,1.1c3.3,0.3,6.8,0.7,10.6,1c3.7,0.3,7.7,0.5,11.8,0.7c8.2,0.3,17,0.5,25.7,0.6c4.4,0.1,8.8,0.1,13.1,0.2
		c4.3,0,8.5,0.1,12.6,0c4.1-0.1,8-0.4,11.7-0.8c3.7-0.5,7.2-1.1,10.4-1.7c6.4-1.4,11.6-3,15.2-4.3c1.8-0.7,3.2-1.2,4.2-1.6
		c1-0.4,1.5-0.6,1.5-0.6s-0.5,0.2-1.4,0.7c-0.9,0.4-2.3,1.1-4.1,1.8c-3.5,1.5-8.7,3.5-15.1,5.1c-6.4,1.6-14.1,2.9-22.3,3.2
		c-4.1,0.2-8.4,0.2-12.7,0.2c-4.3,0-8.7-0.1-13.1-0.1c-4.4-0.1-8.8-0.2-13.1-0.3c-4.3-0.1-8.6-0.4-12.7-0.6c-4.1-0.3-8.1-0.6-11.8-1
		c-3.8-0.4-7.3-0.8-10.6-1.3c-1.6-0.3-3.2-0.5-4.7-0.7c-1.5-0.3-2.9-0.5-4.2-0.8c-2.6-0.5-4.9-1-6.8-1.5c-1.9-0.5-3.3-1.1-4.1-1.7
		c-0.4-0.3-0.7-0.5-0.9-0.7C6531.6-235.6,6531.5-235.7,6531.5-235.7z"/>
</g>
<linearGradient id="SVGID_1_" gradientUnits="userSpaceOnUse" x1="6498.813" y1="-446.2358" x2="6704.6909" y2="-446.2358">
	<stop  offset="1.785714e-02" style="stop-color:#801FE3"/>
	<stop  offset="1" style="stop-color:#B7A7FF"/>
</linearGradient>
<path class="st2" d="M6498.8-539.9c1.4,24.4,2.7,48.8,4.1,73.2c0.4,7.9,0.9,15.9,2.2,23.7c1.8,11.1,5.4,21.8,8.9,32.5
	c3,9.1,6,18.2,11.1,26.3c17.8,28.1,51.5,32.7,81.9,31.3c10.6-0.5,21.3-1.5,31.5-4.7c66.9-21.3,65.2-117,66.1-172.7
	c0-2.6,0.1-5.1,0.1-7.7C6636-535.8,6567.2-534,6498.8-539.9z"/>
<g>
	<path d="M6493.7-559.6c0,0,0.6,8.1,1.5,22.2c0.5,7.1,1,15.6,1.7,25.5c0.6,9.8,1.4,20.9,2.1,33.1c0.4,6.1,0.7,12.4,1.3,18.9
		c0.5,6.5,1.4,13.2,3,19.9c1.6,6.7,3.7,13.5,6,20.4c2.4,6.9,4.5,14,7.5,20.9c0.8,1.7,1.5,3.4,2.4,5.1c0.9,1.6,1.8,3.3,2.8,4.8
		c1.1,1.6,2.2,3.1,3.4,4.7c1.2,1.4,2.5,2.8,3.7,4.3c5.3,5.5,11.7,10,18.8,13.2c7.1,3.3,14.8,5.4,22.6,6.6c7.9,1.3,15.9,1.7,23.9,1.7
		c8-0.1,16.1-0.4,24-1.5c3.9-0.5,7.9-1.2,11.7-2.2c1-0.3,1.9-0.5,2.8-0.8l0.7-0.2c0.1,0,0,0,0.1,0l0.2-0.1l0.4-0.1l1.4-0.5l2.8-1
		c0.5-0.2,0.9-0.3,1.4-0.5l1.3-0.6c7.1-3.1,13.7-7.4,19.4-12.5c5.7-5.1,10.5-11.1,14.4-17.5c4-6.3,7.1-13.1,9.7-19.8
		c2.6-6.8,4.6-13.6,6.3-20.3c3.2-13.5,5-26.5,6.2-38.5c1.1-12.1,1.7-23.2,2-33c0.3-9.9,0.5-18.4,0.7-25.5
		c0.2-14.2,0.4-22.2,0.4-22.2s0,2,0.1,5.8c0,3.8,0.1,9.4,0.2,16.4c0,7.1,0,15.7-0.2,25.5c-0.1,9.9-0.5,21-1.5,33.1
		c-1,12.1-2.6,25.2-5.7,38.9c-1.6,6.8-3.6,13.7-6.1,20.6c-2.5,6.9-5.7,13.8-9.8,20.3c-4,6.5-9,12.7-14.8,18.1
		c-5.9,5.4-12.7,9.8-20.2,13.1l-1.4,0.6c-0.5,0.2-0.9,0.4-1.4,0.5l-2.8,1l-1.4,0.5l-0.4,0.1l-0.2,0.1l-0.2,0.1l-0.7,0.2
		c-1,0.3-2,0.6-2.9,0.8c-3.9,1-8,1.8-12,2.4c-8.1,1.1-16.2,1.5-24.4,1.6c-8.2,0-16.3-0.5-24.4-1.8c-8-1.3-16-3.5-23.3-7
		c-7.4-3.4-14.1-8.1-19.6-13.9c-1.3-1.5-2.6-3.1-3.9-4.6c-1.1-1.6-2.2-3.2-3.3-4.7c-2.2-3.4-3.9-6.8-5.4-10.4
		c-3-7.1-5.2-14.2-7.5-21.2c-2.2-7-4.3-13.9-5.8-20.7c-1.6-6.9-2.4-13.6-2.8-20.2c-0.5-6.6-0.7-12.9-1-18.9
		c-0.6-12.1-1.1-23.2-1.6-33.1c-0.5-9.9-0.8-18.4-1.2-25.5C6494-551.6,6493.7-559.6,6493.7-559.6z"/>
</g>
<g>
	<path d="M6494.1-544.2c0,0,0.8,0,2.4,0.1c1.6,0.1,3.8,0.2,6.7,0.3c2.9,0.2,6.4,0.3,10.5,0.5c4,0.2,8.6,0.3,13.6,0.5
		c5,0.2,10.4,0.3,16.1,0.5c5.7,0.2,11.7,0.2,17.9,0.4c6.2,0.1,12.6,0.1,19.2,0.2c6.5,0.1,13.2,0,19.8,0.1c6.6,0,13.3,0,19.8-0.1
		c6.5-0.1,13-0.1,19.2-0.2c12.5-0.1,24.1-0.2,34-0.3c10-0.1,18.3-0.1,24.1-0.1c2.9,0,5.2,0,6.7,0c1.6,0,2.4,0,2.4,0
		s-0.8,0.1-2.4,0.2c-1.6,0.1-3.8,0.2-6.7,0.4c-5.8,0.3-14.1,0.8-24.1,1.3c-10,0.5-21.6,0.9-34,1.3c-6.2,0.1-12.7,0.4-19.2,0.4
		c-6.5,0.1-13.2,0.1-19.8,0.2c-6.6,0-13.3,0-19.8-0.2c-6.5-0.1-13-0.3-19.2-0.4c-6.2-0.2-12.3-0.4-18-0.8c-2.9-0.2-5.6-0.3-8.3-0.5
		c-2.7-0.2-5.3-0.4-7.8-0.5c-2.5-0.2-4.9-0.3-7.1-0.5c-2.3-0.2-4.4-0.4-6.4-0.6c-4-0.4-7.6-0.7-10.4-1c-2.9-0.3-5.2-0.6-6.7-0.7
		C6494.9-544.1,6494.1-544.2,6494.1-544.2z"/>
</g>
<g>
	<linearGradient id="SVGID_2_" gradientUnits="userSpaceOnUse" x1="195.6165" y1="522.4812" x2="451.9944" y2="522.4812">
		<stop  offset="0" style="stop-color:#FFFFFF"/>
		<stop  offset="1" style="stop-color:#F1FFDE"/>
	</linearGradient>
	<path class="st3" d="M451.8,427.3c-56-6.5-109.8,1.1-166.2,2.4c-29.8,0.7-60.1-0.9-89.8-2.4c-0.1,0-0.2,0-0.2,0
		c16.7,37.4,33.4,74.9,50.2,112.3c8.1,18.1,15.1,35.5,22.3,53.9c1.5,3.7,2.9,7.5,5.2,10.8c8.1,11.6,24,14.1,38,15.4
		c-0.3,1,1.4,0.2,2.5,0.2c19.4,0.8,36.6-0.1,53.8-9.5c14.2-7.7,64-134.4,84.3-183.1C451.9,427.3,451.9,427.3,451.8,427.3z"/>
	<path class="st1" d="M460.3,411.8c1.5,0,2.6,1.4,2.2,2.8c-3,12-8.3,23.4-13.5,34.6c-11.7,25.2-21.6,51.1-33.3,76.3
		c-5.7,12.4-10.5,24.9-17.2,37c-1.9,3.4-1.9,5-3.6,8.5c-6.5,13.6-13.1,28-11.6,43c0.9,8.5,4.2,17.2,7.5,25c3.4,8.1,9.3,15.2,10.7,24
		c0.2,1.2,0.2,2.4,0.2,3.5c-0.5,13.2-5.7,18-15.8,25c-4.3,2.9-15.9,3.3-21.3,4.2c-7.9,1.3-15.8,2.1-23.8,2.6
		c-14.6,1-29.2,1.1-43.8,1.6c-10.3,0.4-26.3-2.9-35.5-7.4c-3.9-1.9-7.8-4.1-10.9-7.1c-15.4-14.8-3.5-31.5,3.3-46.9
		c4.4-9.9,6.2-20.8,5.4-31.6c-2-27.3-19.9-52.8-28.6-77.6c-7.2-20.8-16.1-40.9-25.9-60.6c-8.2-16.5-14.6-33.4-22.6-49.8
		c-0.7-1.5,0.3-3.2,2-3.3C223,414.6,431.4,411.8,460.3,411.8z"/>
	<g>
		<path d="M188.4,418.6l13,28.2l13,28.2l25.7,56.6l6.4,14.2c2.1,4.7,4.2,9.5,6.2,14.3c4.1,9.5,8,19.2,11.8,28.8l2.9,7.2
			c0.9,2.4,1.9,4.8,3,7c0.6,1.1,1.2,2.2,1.9,3.2l0.1,0.2l0.1,0.1c-0.1-0.1,0,0,0,0l0,0l0.3,0.4l0.6,0.8l0.6,0.8
			c0.2,0.2,0.4,0.4,0.6,0.6c1.6,1.8,3.6,3.3,5.7,4.6c2.1,1.3,4.4,2.3,6.7,3.2c2.3,0.9,4.8,1.5,7.3,2.1c5,1.1,10.1,1.7,15.2,2.2
			l1.3,1.9c0-0.1,0,0,0-0.3c0-0.1-0.1-0.3-0.2-0.5c-0.1-0.2-0.3-0.3-0.5-0.4c-0.1-0.1-0.2-0.1-0.3-0.1c0,0-0.1,0-0.1,0
			c0,0,0,0,0.1,0c0.2,0,0.6-0.1,1-0.2c0.2,0,0.4-0.1,0.7-0.1c0.1,0,0.3,0,0.4,0l0.3,0l1,0c1.4,0,2.8,0.1,4.2,0.1
			c2.8,0.1,5.6,0.1,8.3,0c5.5-0.1,11.1-0.6,16.5-1.5c5.4-1,10.7-2.5,15.8-4.6c1.3-0.5,2.5-1.1,3.8-1.7l1.8-0.9l0.9-0.5l0.5-0.2
			l0.4-0.2c0.3-0.2,0.5-0.4,0.7-0.5c0.2-0.1,0.4-0.4,0.7-0.6c0.5-0.4,0.9-1,1.3-1.5c0.8-1,1.6-2.1,2.4-3.3c3.1-4.6,5.8-9.5,8.4-14.4
			c2.6-4.9,5.1-9.9,7.5-15c2.4-5,4.8-10.1,7.1-15.2l6.9-15.3c9.1-20.4,17.9-41,26.5-61.6l13.1-30.9c4.3-10.3,8.7-20.6,13.3-30.9
			c-2.1,5.2-4.2,10.4-6.3,15.6l-6.2,15.6l-12.4,31.2c-8.4,20.7-16.9,41.5-25.8,62c-2.2,5.1-4.5,10.3-6.8,15.4
			c-2.3,5.1-4.7,10.2-7.1,15.3c-2.4,5.1-4.9,10.1-7.5,15.1c-2.6,5-5.3,9.9-8.5,14.7c-0.8,1.2-1.6,2.4-2.5,3.5
			c-0.5,0.6-0.9,1.1-1.5,1.7c-0.3,0.3-0.5,0.5-0.9,0.8c-0.3,0.3-0.7,0.6-1,0.7l-0.2,0.1l-0.1,0.1l-0.1,0c0,0-0.2,0.1-0.1,0.1
			l-0.5,0.2l-0.9,0.5l-1.9,1c-1.3,0.6-2.6,1.2-3.9,1.7c-5.3,2.2-10.8,3.8-16.4,4.8c-5.6,1-11.3,1.5-16.9,1.6c-2.8,0.1-5.6,0.1-8.5,0
			c-1.4,0-2.8-0.1-4.2-0.1l-1,0l-0.3,0c0,0,0,0-0.1,0c-0.1,0-0.2,0-0.4,0.1c-0.3,0.1-0.6,0.1-1.1,0.2c-0.1,0-0.3,0-0.5,0
			c-0.1,0-0.2,0-0.4,0c-0.1,0-0.4-0.1-0.5-0.2c-0.3-0.1-0.5-0.3-0.7-0.6c-0.2-0.3-0.3-0.6-0.3-0.7c0-0.5,0-0.6,0.1-0.9l1.3,1.9
			c-5.2-0.5-10.4-1.1-15.5-2.3c-2.6-0.6-5.1-1.3-7.6-2.2c-2.5-0.9-5-2-7.2-3.5c-2.3-1.4-4.4-3.1-6.3-5.2c-0.2-0.3-0.5-0.5-0.7-0.8
			l-0.6-0.8l-0.6-0.8l-0.3-0.4l-0.1-0.2l-0.1-0.1l-0.1-0.2c-0.8-1.1-1.4-2.3-2.1-3.5c-1.2-2.4-2.2-4.9-3.1-7.3l-2.8-7.2
			c-3.8-9.6-7.6-19.2-11.7-28.8l-6.1-14.3l-6.2-14.2l-25-56.9l-12.4-28.5L188.4,418.6z"/>
	</g>
	<g>
		<path d="M264.3,642.5c0,0-0.1,0.1-0.2,0.3c-0.2,0.2-0.4,0.5-0.6,1c-0.5,0.9-1,2.4-0.9,4.3c0.1,1.9,0.8,4.2,2.5,6.2
			c1.6,2,4.3,3.6,7.3,4.5c3.1,0.9,6.6,1.3,10.4,1.6c1.9,0.2,3.8,0.3,5.8,0.4c2,0.1,4,0.2,6.1,0.3c2.1,0.1,4.2,0.1,6.3,0.1
			c2.1,0,4.3,0,6.4,0c4.3,0,8.7-0.2,13.1-0.4c4.4-0.2,8.8-0.5,13.1-0.8c4.3-0.3,8.6-0.6,12.7-1c4.1-0.4,8.1-0.7,11.9-1
			c3.8-0.3,7.3-0.6,10.5-1.3c3.2-0.7,6-1.8,8.1-3.4c2.1-1.6,3.5-3.5,4.3-5.2c0.8-1.7,1-3.2,1.1-4.3c0-0.5,0-0.9,0-1.2
			c0-0.3,0-0.4,0-0.4s0,0.1,0.1,0.4c0,0.3,0.1,0.7,0.1,1.2c0,1,0,2.6-0.8,4.4c-0.7,1.8-2.1,3.8-4.2,5.6c-2.1,1.8-5,3.1-8.3,4
			c-3.3,0.9-6.9,1.3-10.6,1.7c-3.8,0.4-7.7,0.9-11.9,1.3c-4.1,0.4-8.4,0.8-12.7,1.2c-4.3,0.4-8.8,0.6-13.2,0.9
			c-4.4,0.2-8.8,0.3-13.2,0.3c-4.4,0-8.7-0.1-12.8-0.3c-4.1-0.2-8.2-0.5-11.9-0.9c-3.8-0.4-7.4-0.9-10.6-2c-3.2-1.1-6-2.9-7.6-5.2
			c-1.6-2.3-2.3-4.7-2.3-6.7c-0.1-2,0.6-3.5,1.2-4.3c0.3-0.4,0.5-0.7,0.7-0.9C264.2,642.6,264.3,642.5,264.3,642.5z"/>
	</g>
	<g>
		<path d="M193.9,430c0,0,1,0,2.9,0c1.9,0,4.6,0.1,8.1,0.2c3.5,0,7.8,0.2,12.6,0.3c4.9,0.1,10.4,0.3,16.4,0.4
			c6,0.2,12.5,0.3,19.4,0.5c6.9,0.2,14.1,0.5,21.6,0.6c7.5,0.2,15.3,0.1,23.1-0.3c7.9-0.3,15.9-0.9,23.8-1.6c4-0.3,8-0.7,12-1
			c4-0.3,7.9-0.6,11.9-0.9c7.9-0.5,15.6-1,23.1-1.4c3.8-0.2,7.4-0.4,11.1-0.5c3.6-0.1,7.2-0.2,10.6-0.2c6.9-0.1,13.4,0,19.4,0.2
			c3,0.1,5.9,0.2,8.6,0.4c2.7,0.2,5.3,0.4,7.8,0.6c2.4,0.2,4.7,0.4,6.8,0.6c2.1,0.2,4,0.4,5.8,0.6c7,0.9,10.9,1.5,10.9,1.5l0,0.3
			c0,0-4-0.2-11-0.7c-3.5-0.1-7.7-0.4-12.6-0.5c-2.4-0.1-5-0.1-7.8-0.2c-2.7,0-5.6,0-8.6-0.1c-6,0-12.5,0.1-19.3,0.3
			c-6.9,0.2-14.1,0.4-21.6,0.7c-7.5,0.2-15.2,0.6-23.1,1c-3.9,0.2-7.9,0.3-11.9,0.5c-4,0.1-8,0.3-12,0.4c-4,0.1-8,0.3-12,0.4
			c-4,0.1-8,0.3-11.9,0.4c-7.9,0.3-15.6,0.7-23.1,1c-7.5,0.3-14.8,0.5-21.7,0.4c-6.9-0.1-13.4-0.3-19.4-0.6c-6-0.3-11.5-0.6-16.4-1
			c-4.9-0.3-9.1-0.7-12.6-1c-3.5-0.3-6.2-0.6-8.1-0.7c-1.9-0.2-2.9-0.4-2.9-0.4L193.9,430z"/>
	</g>
	<path class="st4" d="M394.8,482.9c-3-7.3-17.2-15.3-24.3-17.9c-12.2-4.3-24.5-8.5-36.7-12.7c-2.6-0.9-5.4-1.8-8.2-1.3
		c-4.9,0.9-7.8,5.7-10,10.1c-5,9.8-9.5,19.9-13.6,30.1c-3.7,9.1-3,18.3-2.5,28.1c0.2,3.1,0.5,6.4,2.5,8.8c1.4,1.7,3.6,2.6,5.6,3.5
		c11.1,4.9,22.3,9.8,33.9,13.1c6.8,1.9,14.1,3.3,20.7,0.8c8.4-3.2,13.3-11.8,17.4-19.8c5.5-10.5,11-20.9,16.5-31.4
		c1.1-2.1,2.2-4.3,1.8-6.6C397.4,485.8,396.1,484.3,394.8,482.9z"/>
	<g>
		<path d="M302.9,497.1c0,0,0.3,0,1,0c0.6,0,1.5,0,2.7,0c0.6,0,1.2,0,1.9,0.1c0.7,0,1.5,0.1,2.3,0.2c1.6,0.2,3.4,0.4,5.4,0.8
			c4,0.7,8.5,1.8,13.3,3c2.4,0.6,4.9,1.2,7.4,1.8c2.5,0.6,5.1,1.2,7.6,1c1.2-0.1,2.4-0.3,3.4-0.8c1-0.5,1.9-1.4,2.6-2.3
			c0.7-1,1.4-2.1,2.1-3.2c0.7-1.1,1.3-2.2,2-3.2c2.6-4.2,4.9-8.3,6.8-11.8c1.9-3.5,3.5-6.4,4.5-8.5c1.1-2.1,1.7-3.3,1.7-3.3
			s-0.1,0.3-0.3,0.9c-0.2,0.6-0.5,1.4-1,2.5c-0.9,2.2-2.1,5.2-3.9,8.9c-1.7,3.6-3.8,7.8-6.3,12.1c-0.6,1.1-1.3,2.2-1.9,3.3
			c-0.7,1.1-1.3,2.2-2.1,3.4c-0.8,1.1-1.8,2.2-3.2,2.9c-1.3,0.7-2.8,1-4.2,1.1c-2.9,0.1-5.6-0.6-8.1-1.1c-2.6-0.6-5.1-1.3-7.5-1.9
			c-2.4-0.7-4.7-1.3-6.9-1.9c-2.2-0.6-4.3-1.2-6.2-1.6c-1.9-0.4-3.7-0.9-5.3-1.1c-0.8-0.2-1.5-0.3-2.2-0.4c-0.7-0.1-1.3-0.2-1.9-0.3
			c-1.1-0.1-2.1-0.2-2.7-0.3C303.2,497.1,302.9,497.1,302.9,497.1z"/>
	</g>
	<g>
		<path d="M348.3,505.2c0,0,0.1-0.2,0.4-0.3c0.3-0.1,0.8,0.1,1.2,0.5c0.2,0.2,0.4,0.4,0.6,0.8c0.1,0.3,0.3,0.6,0.5,0.9
			c0.3,0.7,0.7,1.4,1.1,2.2c0.8,1.6,1.7,3.6,2.6,5.7c0.5,1.1,0.9,2.1,1.4,3.2c0.5,1.1,0.9,2.2,1.4,3.4c0.4,1.1,0.9,2.3,1.3,3.4
			c0.4,1.1,0.8,2.2,1.2,3.3c0.8,2.1,1.5,4.2,2,5.9c1.1,3.5,1.7,5.9,1.7,5.9s-1.2-2.1-2.8-5.4c-0.8-1.6-1.7-3.6-2.6-5.7
			c-0.5-1.1-0.9-2.1-1.4-3.2c-0.5-1.1-0.9-2.2-1.4-3.4c-0.4-1.1-0.9-2.3-1.3-3.4c-0.4-1.1-0.8-2.2-1.2-3.3c-0.8-2.1-1.5-4.2-2-5.9
			c-0.3-0.9-0.5-1.7-0.8-2.4c-0.1-0.4-0.2-0.7-0.3-1c-0.1-0.3-0.2-0.5-0.3-0.7c-0.3-0.4-0.6-0.7-0.9-0.7
			C348.4,505,348.3,505.2,348.3,505.2z"/>
	</g>
	<path class="st4" d="M282,520.2c-1.6,13.4-4.1,26.8-7.4,40.1c-0.9,3.5-1.8,7.1-1.8,10.7c0,3.4,0.9,6.6,1.9,9.6
		c3.4,10.3,8.8,20.4,17.4,22.6c2.9,0.8,6,0.5,9.1,0.6c14.1,0.1,27.4,5.1,41.5,5.2c3.2,0,6.6-0.3,9.7-2.4c5.5-3.8,8.2-12.3,9.8-20
		c2.3-11.5,3.4-23.3,7-34.5c1.2-3.7,2.7-7.9,1.7-11.3c-1.1-3.6-4.5-4.5-7.4-5.7c-5.3-2.2-9.6-6.7-14.5-9.8c-8.1-5.2-17.8-6.6-27.4-4
		c-12.8,3.4-24.4-3.6-37-4.1c-0.5,0-1.1,0-1.6,0.4S281.7,519.6,282,520.2z"/>
	<g>
		<path d="M282.5,521.7c0,0,1.1,1.1,2.9,3c1.8,1.9,4.5,4.7,7.6,8c1.6,1.7,3.2,3.5,5,5.3c1.8,1.8,3.8,3.7,6,5.4
			c2.2,1.7,4.7,3.1,7.4,4c2.7,0.9,5.7,1.2,8.6,1.2c3,0,6-0.2,8.9-0.4c3-0.2,5.9-0.4,8.7-0.6c5.7-0.4,11-0.7,15.5-1.2
			c4.5-0.6,8.2-1.4,10.7-2.1c2.5-0.7,4-1.3,4-1.3s-0.3,0.2-1,0.5c-0.7,0.3-1.6,0.7-2.9,1.2c-2.5,0.9-6.2,2.1-10.7,2.9
			c-4.5,0.8-9.8,1.3-15.5,1.9c-2.8,0.3-5.8,0.5-8.7,0.8c-3,0.3-6,0.5-9.1,0.5c-3.1,0-6.2-0.4-9.2-1.4c-3-1-5.6-2.6-7.9-4.4
			c-2.3-1.8-4.2-3.8-6-5.7c-1.8-1.9-3.4-3.8-4.8-5.6c-2.9-3.5-5.3-6.5-7-8.5C283.5,522.9,282.5,521.7,282.5,521.7z"/>
	</g>
	<g>
		<path d="M308.7,548.7c0,0-0.2,0.8-0.6,2.1c-0.4,1.3-1,3.2-1.7,5.4c-0.7,2.2-1.5,4.9-2.4,7.7c-0.9,2.8-1.8,5.8-2.7,8.8
			c-0.9,3-1.8,6-2.6,8.8c-0.8,2.8-1.6,5.5-2.3,7.7c-0.7,2.3-1.2,4.1-1.6,5.5c-0.4,1.3-0.6,2.1-0.6,2.1s0.1-0.8,0.3-2.2
			c0.2-1.4,0.5-3.3,0.9-5.6c0.4-2.3,1-5,1.7-7.9c0.4-1.4,0.7-2.9,1.1-4.4c0.4-1.5,0.9-3,1.3-4.5c0.5-1.5,1-3,1.4-4.5
			c0.5-1.5,1-2.9,1.5-4.3c1-2.8,2-5.3,3-7.5c0.9-2.2,1.8-4,2.4-5.2C308.4,549.4,308.7,548.7,308.7,548.7z"/>
	</g>
	<path class="st4" d="M435.5,465.3c-19.5-12.1-33.4-41.5-26.3-63.8c13.7-43.4,74.9-52.5,98.5-12.8c5.6,9.4,9.7,17.8,10.4,28.7
		c0.1,2.1-1.7,6.9-1.9,9c-1.1,10.9-9.1,22.8-17.2,29.7c-16.1,13.6-38.9,17.6-58.1,11.2"/>
	<path class="st5" d="M467.7,420.9c-3.2,1.3-7.2,0.6-9.8-1.6c-0.9-0.7-1.6-1.6-2-2.7c-0.4-1-0.4-2.1-0.3-3.1
		c0.7-5.6,8.5-11.8,14.1-8.4C475.7,408.6,473.4,418.5,467.7,420.9z"/>
	<g>
		<path d="M459.4,421.1c0,0-1.3,1.2-3.7,3.2c-2.4,2-5.8,4.9-10,8.2c-2.1,1.7-4.4,3.4-6.9,5.3c-2.5,1.8-5,3.8-7.9,5.6
			c-0.7,0.4-1.6,0.8-2.5,0.9c-0.9,0.1-1.8-0.1-2.7-0.3c-1.7-0.5-3.4-1.3-4.8-2.4c-2.9-2.2-5.1-5.3-6.3-8.7
			c-1.2-3.4-1.7-7.2-1.1-10.7c0.3-1.8,1-3.5,2-5c1-1.5,2.4-2.7,3.9-3.5c3-1.7,6.4-2.2,9.5-2.3c3.1,0,6,0.3,8.7,0.4
			c5.3,0.4,9.8,0.7,12.9,1c3.1,0.3,4.9,0.4,4.9,0.4s-1.8-0.1-4.9-0.2c-3.1-0.1-7.6-0.4-12.9-0.6c-2.7-0.1-5.6-0.4-8.6-0.3
			c-3,0.1-6.2,0.6-9.1,2.3c-1.4,0.8-2.7,1.9-3.6,3.3c-0.9,1.4-1.5,3-1.8,4.6c-0.6,3.4-0.1,7,1.1,10.2c1.2,3.3,3.2,6.3,5.9,8.3
			c1.4,1,2.9,1.8,4.5,2.2c0.8,0.2,1.6,0.3,2.4,0.3c0.8-0.1,1.5-0.4,2.2-0.8c2.7-1.8,5.4-3.7,7.9-5.5c2.5-1.8,4.8-3.5,7-5.1
			c4.3-3.2,7.8-6,10.2-7.9C458,422.2,459.4,421.1,459.4,421.1z"/>
	</g>
	<g>
		<path d="M456.6,408.4c0,0-0.1,0-0.3,0.1c-0.2,0-0.5,0.1-0.9,0c-0.8,0-1.8-0.4-3.2-0.9c-2.6-1-6.5-2.4-11.2-3.6
			c-2.3-0.6-4.9-1.2-7.6-1.7c-1.4-0.2-2.8-0.5-4.2-0.9c-1.4-0.4-2.9-1.1-4.1-2.2c-0.3-0.3-0.6-0.6-0.8-0.9c-0.2-0.4-0.5-0.7-0.6-1.1
			c-0.4-0.7-0.6-1.5-0.7-2.4c-0.2-1.6,0-3.3,0.6-4.9c0.6-1.6,1.5-3,2.4-4.3c1-1.3,2.1-2.5,3.3-3.7c2.4-2.3,5.1-4.2,8-5.6
			c1.5-0.7,3-1.3,4.5-1.8c0.7-0.2,1.6-0.5,2.5-0.4c0.9,0.1,1.6,0.6,2.2,1.1c2.4,1.9,4.5,4.1,6.2,6.3c1.7,2.2,3.1,4.5,4.3,6.6
			c2.4,4.3,3.9,8.1,4.9,10.7c1.1,2.6,1.6,4.2,1.6,4.2s-0.7-1.5-1.8-4.1c-1.2-2.6-2.8-6.3-5.3-10.5c-1.2-2.1-2.7-4.3-4.4-6.5
			c-1.7-2.2-3.8-4.2-6.1-6.1c-0.6-0.4-1.2-0.8-1.9-0.9c-0.6-0.1-1.4,0.1-2.1,0.4c-1.5,0.5-2.9,1-4.3,1.7c-2.8,1.4-5.5,3.2-7.8,5.5
			c-2.3,2.2-4.4,4.7-5.5,7.6c-0.6,1.4-0.8,3-0.6,4.4c0.2,1.5,0.8,2.8,1.8,3.9c1,1,2.3,1.6,3.7,2.1c1.4,0.4,2.8,0.7,4.1,1
			c2.7,0.5,5.3,1.2,7.7,1.8c4.7,1.3,8.5,2.8,11.1,3.9c1.3,0.6,2.3,1,3.1,1.1c0.4,0,0.7,0,0.9,0C456.5,408.4,456.6,408.4,456.6,408.4
			z"/>
	</g>
	<g>
		<path d="M467.7,402.1c0,0-0.4-1.4-1.1-3.8c-0.7-2.4-1.7-5.8-2.9-9.9c-0.6-2.1-1.3-4.3-1.9-6.7c-0.3-1.2-0.5-2.5-0.6-3.8
			c-0.1-1.3,0.1-2.7,0.8-4c0.6-1.3,1.7-2.4,3-3c1.3-0.7,2.7-1,4.2-1c3-0.1,5.8,1,8.4,1.9c2.7,1,5.4,2,8,2.9c1.3,0.5,2.7,1.2,3.5,2.6
			c0.2,0.3,0.3,0.7,0.4,1c0.1,0.4,0.2,0.7,0.2,1.1c0,0.7-0.1,1.4-0.2,2.1c-0.3,1.4-0.9,2.6-1.4,3.8c-0.5,1.2-1.1,2.3-1.7,3.4
			c-1.1,2.2-2.3,4.2-3.5,6c-1.2,1.8-2.3,3.4-3.4,4.8c-1.1,1.4-2.1,2.5-2.9,3.5c-0.8,0.9-1.5,1.6-2,2.1c-0.5,0.5-0.7,0.7-0.7,0.7
			s1-1,2.6-3c1.6-1.9,3.7-4.8,6-8.4c1.1-1.8,2.2-3.8,3.3-6c0.5-1.1,1.1-2.2,1.6-3.4c0.5-1.2,1-2.4,1.3-3.6c0.3-1.2,0.3-2.6-0.3-3.6
			c-0.6-1-1.8-1.7-3.1-2.2c-2.6-0.9-5.3-1.9-8-2.9c-2.7-1-5.3-2-8.1-1.9c-2.7,0-5.4,1.2-6.5,3.5c-0.6,1.1-0.7,2.4-0.7,3.6
			c0,1.2,0.2,2.5,0.5,3.7c0.6,2.4,1.2,4.6,1.7,6.7c1.1,4.1,2,7.6,2.6,10C467.3,400.7,467.7,402.1,467.7,402.1z"/>
	</g>
	<g>
		<path d="M474.3,409.8c0,0,1.4-0.6,3.7-1.6c2.4-1,5.8-2.5,9.9-4.2c2.1-0.9,4.2-1.8,6.6-2.8c2.4-0.9,5.1-1.8,8-1.6
			c1.4,0.1,2.9,0.4,4.2,1.1c1.3,0.7,2.6,1.7,3.3,3c0.8,1.4,1.2,2.9,1.4,4.4c0.2,1.5,0.3,3,0.3,4.5c0,3-0.3,6.1-1.9,8.8
			c-0.8,1.3-1.9,2.5-3.2,3.2c-1.3,0.8-2.8,1.1-4.2,1.2c-2.9,0.2-5.6-0.6-8-1.5c-2.4-0.9-4.6-1.8-6.7-2.4c-2.1-0.5-4.2-0.8-5.9-1.2
			c-1.8-0.4-3.3-0.8-4.5-1.2c-1.2-0.4-2.2-0.9-2.8-1.2c-0.6-0.3-0.9-0.5-0.9-0.5s0.3,0.2,1,0.5c0.6,0.3,1.6,0.7,2.8,1
			c1.2,0.4,2.8,0.7,4.5,1c1.8,0.3,3.8,0.5,6,1c2.2,0.5,4.5,1.4,6.9,2.2c2.4,0.8,5,1.5,7.7,1.3c1.3-0.1,2.7-0.4,3.8-1.1
			c1.2-0.7,2.2-1.7,2.9-2.9c1.4-2.4,1.7-5.4,1.7-8.3c0-1.4-0.1-2.9-0.2-4.4c-0.2-1.4-0.5-2.8-1.2-4c-1.4-2.4-4.2-3.6-6.9-3.8
			c-2.7-0.2-5.3,0.5-7.7,1.4c-2.4,0.9-4.6,1.8-6.7,2.6c-4.1,1.6-7.6,3-10,3.9C475.7,409.2,474.3,409.8,474.3,409.8z"/>
	</g>
	<g>
		<path d="M471.6,419.5c0,0,1.3,0.7,3.6,2.1c2.3,1.3,5.5,3.3,9.3,5.8c1.9,1.3,3.9,2.7,6,4.2c1,0.8,2.1,1.6,3.2,2.4
			c1.1,0.8,2.2,1.6,3.3,2.7c0.5,0.5,1,1.2,1.2,2c0.1,0.3,0.2,0.8,0.2,1.2c0,0.4,0,0.8,0,1.2c-0.2,1.6-1.1,2.9-2,4.1
			c-2,2.4-4.2,4.4-6.6,6.2c-2.4,1.8-5.1,3.4-7.8,4.7c-1.3,0.6-2.8,1.3-4.4,1.3c-0.4,0-0.8,0-1.2-0.1l-0.3-0.1c-0.1,0-0.1,0-0.2,0
			l-0.1,0c-0.2-0.1-0.3-0.1-0.5-0.2c-0.8-0.3-1.4-0.8-1.9-1.3c-2.1-2.2-2.7-5.1-3.4-7.5c-0.7-2.5-1.2-4.9-1.6-7.1
			c-0.8-4.5-1.2-8.2-1.3-10.9c-0.1-1.3-0.1-2.4-0.1-3.1c0-0.7,0-1.1,0-1.1s0.1,1.5,0.3,4.1c0.2,2.6,0.8,6.4,1.7,10.8
			c0.5,2.2,1.1,4.6,1.8,7c0.4,1.2,0.7,2.5,1.2,3.7c0.5,1.2,1.1,2.4,2.1,3.4c0.5,0.5,1,0.9,1.6,1.1c0.1,0.1,0.3,0.1,0.5,0.2l0.1,0
			c0,0,0.1,0,0.1,0l0.2,0c0.3,0.1,0.7,0.1,1,0c1.3-0.1,2.7-0.6,4-1.3c2.6-1.3,5.2-2.9,7.6-4.7c2.4-1.8,4.7-3.8,6.5-6
			c0.9-1.1,1.6-2.4,1.8-3.7c0.1-0.3,0.1-0.7,0-1c0-0.3-0.1-0.6-0.2-1c-0.2-0.6-0.6-1.2-1-1.6c-0.9-1-2.1-1.8-3.1-2.6
			c-1.1-0.8-2.1-1.7-3.1-2.4c-2.1-1.6-4-3-5.9-4.3c-3.7-2.6-6.8-4.7-9-6.1C472.9,420.3,471.6,419.5,471.6,419.5z"/>
	</g>
	<g>
		<path d="M465.8,422.6c0,0-0.2,0.3-0.6,1c-0.4,0.6-0.9,1.6-1.3,2.9c-0.5,1.3-0.8,3-1,4.9c-0.2,1.9-0.3,4.1-0.4,6.5
			c-0.1,2.4-0.2,5-0.8,7.7c-0.6,2.7-1.5,5.5-2.6,8.3c-0.6,1.4-1.1,2.8-1.9,4.2c-0.8,1.4-1.8,2.7-3.3,3.5c-0.7,0.4-1.7,0.6-2.5,0.6
			c-0.9,0-1.7-0.3-2.5-0.6c-1.5-0.7-2.8-1.6-4.2-2.5c-2.7-1.7-5.4-3.4-8-5.2c-0.6-0.5-1.3-1.2-1.5-2.1c-0.2-1,0.2-1.9,0.6-2.5
			c0.5-0.7,1-1.3,1.4-1.8c0.5-0.6,1-1.2,1.5-1.7c3.9-4.6,7.9-8.5,11.3-11.9c1.7-1.7,3.3-3.2,4.6-4.6c1.4-1.4,2.6-2.6,3.5-3.6
			c1.9-2,3-3.2,3-3.2s-0.3,0.3-0.7,0.9c-0.5,0.6-1.2,1.4-2.1,2.4c-1.9,2.1-4.6,5-7.9,8.4c-3.3,3.4-7.2,7.5-11,12
			c-0.5,0.6-1,1.1-1.4,1.7c-0.5,0.6-1,1.2-1.4,1.8c-0.4,0.6-0.6,1.2-0.5,1.8c0.1,0.6,0.6,1.1,1.2,1.6c2.6,1.7,5.3,3.4,8,5.1
			c1.4,0.8,2.7,1.8,4,2.4c0.7,0.3,1.4,0.5,2.1,0.6c0.7,0,1.4-0.1,2.1-0.5c1.3-0.7,2.2-1.9,3-3.2c0.8-1.3,1.3-2.7,1.9-4.1
			c1.1-2.8,2.1-5.4,2.7-8.1c0.6-2.6,0.8-5.2,1-7.6c0.1-2.4,0.3-4.6,0.6-6.5c0.3-1.9,0.7-3.6,1.2-4.9c0.5-1.3,1.1-2.3,1.5-2.9
			C465.6,422.9,465.8,422.6,465.8,422.6z"/>
	</g>
	<path class="st5" d="M442.3,464c8.3,2.1,28.6,2.1,38.8-2.2c17-7.1,33.6-27.6,31.3-47.4c-0.5-4.7-2.2-9.2-4-13.6
		c-3.8-8.9-8.8-17.7-16.3-23.8c-13.4-10.8-33.5-12.9-49.9-7.3c-7.3,2.5-14.1,6.7-18.9,12.6c-7.1,8.9-11.3,19-12.2,30.4
		c-2.5,31.1,20,44.6,25.3,48.9"/>
</g>
</svg>
