<svg id="Layer_1" xmlns="http://www.w3.org/2000/svg" viewBox="0 0 700 700"><style>.st0,.st1{fill:none}.st1{stroke:#000;stroke-width:5;stroke-miterlimit:10}.st2{opacity:.9;fill:url(#SVGID_1_)}.st3{fill:#c90606}.st4,.st5{fill:none;stroke:#000;stroke-width:2;stroke-miterlimit:10}.st5{stroke-width:3}</style><path class="st0" d="M0 0h700v700H0z"/><path class="st1" d="M6708.6-568.1c.3 38.5.2 82.4-5.7 120.5-2.3 14.7-3.7 31.7-10.6 44.9-9.4 17.9-18.6 35.9-34 49.5-5.5 4.9-11.5 9.2-17.9 12.8-4.2 2.3-15.3 5.1-15.9 10.8-.4 3.6 3.8 5.7 6.9 7.6 6.9 4.3 10.9 12.3 11.6 20.4 1.5 15.4-5.6 30.7-18.9 38.8-.8.5-1.6 1-1.9 1.8-.7 2.1 2.1 3.4 4.2 3.8 12.1 2.1 24 5 35.7 8.7 7.7 2.4 24.3 10.6 12 18.5-7.7 4.9-17 6.2-26 7.3-24.7 3.1-49.7 6.2-74.5 3.9-5.6-.5-11.2-1.4-16.8-2.2l-22.5-3.3c-5.3-.8-11.8-2.7-12.7-7.9-1.7-10.2 16.6-15.1 23.6-17.2 4.9-1.5 36.5-4.6 35.6-9.3-.5-2.4-2.8-3.9-4.8-5.4-8.9-6.4-15-16.4-16.6-27.2-1.6-10.8 1.3-22.2 7.9-30.9 2.2-2.9 4.9-6 4.4-9.6-.2-1.5-1-2.9-2-4.1-5.1-6.7-15.9-9.5-22.8-14.7-7.9-6-15.2-12.8-21.6-20.4-12.5-14.5-22.1-31.5-27.6-49.9-5.2-17.2-6.9-35.3-8.2-53.2-2.3-31-3.6-62-3.8-93.1 20.2-2.4 42-1.8 62.4-1.4 52.8 1.1 160.5-1.6 160.5.5z"/><path d="M6582-253.2v1.9c0 .6.1 1.3.6 1.9.4.6 1.2.8 2.2.8 2.1-.1 4.5-.2 7.1-.2 1.3 0 2.7-.1 4-.1 1.4-.1 2.8-.1 4.1-.2 1.4-.1 2.8-.1 4.1-.2 1.4-.1 2.7-.1 4-.2 2.6-.1 5-.2 7.1-.3 2-.1 3.7-.6 4.6-1.3.4-.4.7-.8.8-1.1.1-.3.2-.5.2-.5v.5c-.1.3-.2.8-.6 1.3-.4.5-1.1 1-1.9 1.4-.8.4-1.8.7-2.8.8-2.1.4-4.5.7-7.1.9-1.3.1-2.7.3-4 .4-1.4.1-2.8.2-4.2.2-1.4 0-2.8.1-4.2.1h-4.1c-2.6-.1-5.1-.2-7.2-.4-.5-.1-1.1-.1-1.6-.4-.5-.3-.9-.7-1.1-1.1-.4-.9-.4-1.7-.3-2.3.1-.6.2-1.1.3-1.4-.1-.3 0-.5 0-.5zm-.4-84.6s.6.2 1.6.5c.5.2 1.2.3 1.9.5s1.6.4 2.4.5c.9.2 1.9.3 2.9.5 1 .1 2.1.2 3.3.3 1.1.1 2.3.1 3.5.2h3.6c1.2 0 2.5 0 3.7-.1 1.2 0 2.4-.1 3.6-.1 2.3-.1 4.5-.1 6.3-.3 1.8-.2 3.2-.6 4.1-1.2.4-.3.8-.6 1-.8l.3-.3s-.1.1-.2.4c-.2.3-.4.6-.8 1-.8.8-2.3 1.6-4.2 2-.9.2-2 .4-3 .5-1.1.1-2.2.3-3.3.4l-3.6.3c-1.2.1-2.5.1-3.7.2-1.3 0-2.5 0-3.7-.1-.6 0-1.2-.1-1.8-.1-.6-.1-1.2-.1-1.8-.2-1.2-.1-2.3-.4-3.4-.6-.5-.1-1-.3-1.5-.4-.5-.2-1-.3-1.4-.4-1.8-.6-3.2-1.3-4.2-1.8-1-.6-1.6-.9-1.6-.9zm-50.1 102.1l.3.3c.2.2.5.4 1 .6.9.5 2.3 1 4.2 1.4 1.9.4 4.2.7 6.8 1.1 2.6.4 5.6.7 8.9 1.1 3.3.3 6.8.7 10.6 1 3.7.3 7.7.5 11.8.7 8.2.3 17 .5 25.7.6 4.4.1 8.8.1 13.1.2 4.3 0 8.5.1 12.6 0s8-.4 11.7-.8c3.7-.5 7.2-1.1 10.4-1.7 6.4-1.4 11.6-3 15.2-4.3 1.8-.7 3.2-1.2 4.2-1.6l1.5-.6s-.5.2-1.4.7c-.9.4-2.3 1.1-4.1 1.8-3.5 1.5-8.7 3.5-15.1 5.1-6.4 1.6-14.1 2.9-22.3 3.2-4.1.2-8.4.2-12.7.2-4.3 0-8.7-.1-13.1-.1-4.4-.1-8.8-.2-13.1-.3-4.3-.1-8.6-.4-12.7-.6-4.1-.3-8.1-.6-11.8-1-3.8-.4-7.3-.8-10.6-1.3-1.6-.3-3.2-.5-4.7-.7-1.5-.3-2.9-.5-4.2-.8-2.6-.5-4.9-1-6.8-1.5-1.9-.5-3.3-1.1-4.1-1.7-.4-.3-.7-.5-.9-.7-.3-.2-.4-.3-.4-.3z"/><linearGradient id="SVGID_1_" gradientUnits="userSpaceOnUse" x1="6498.813" y1="-446.236" x2="6704.691" y2="-446.236"><stop offset=".018" stop-color="#801fe3"/><stop offset="1" stop-color="#b7a7ff"/></linearGradient><path class="st2" d="M6498.8-539.9c1.4 24.4 2.7 48.8 4.1 73.2.4 7.9.9 15.9 2.2 23.7 1.8 11.1 5.4 21.8 8.9 32.5 3 9.1 6 18.2 11.1 26.3 17.8 28.1 51.5 32.7 81.9 31.3 10.6-.5 21.3-1.5 31.5-4.7 66.9-21.3 65.2-117 66.1-172.7 0-2.6.1-5.1.1-7.7-68.7 2.2-137.5 4-205.9-1.9z"/><path d="M6493.7-559.6s.6 8.1 1.5 22.2c.5 7.1 1 15.6 1.7 25.5.6 9.8 1.4 20.9 2.1 33.1.4 6.1.7 12.4 1.3 18.9.5 6.5 1.4 13.2 3 19.9 1.6 6.7 3.7 13.5 6 20.4 2.4 6.9 4.5 14 7.5 20.9.8 1.7 1.5 3.4 2.4 5.1.9 1.6 1.8 3.3 2.8 4.8 1.1 1.6 2.2 3.1 3.4 4.7 1.2 1.4 2.5 2.8 3.7 4.3 5.3 5.5 11.7 10 18.8 13.2 7.1 3.3 14.8 5.4 22.6 6.6 7.9 1.3 15.9 1.7 23.9 1.7 8-.1 16.1-.4 24-1.5 3.9-.5 7.9-1.2 11.7-2.2 1-.3 1.9-.5 2.8-.8l.7-.2h.1l.2-.1.4-.1 1.4-.5 2.8-1c.5-.2.9-.3 1.4-.5l1.3-.6c7.1-3.1 13.7-7.4 19.4-12.5 5.7-5.1 10.5-11.1 14.4-17.5 4-6.3 7.1-13.1 9.7-19.8 2.6-6.8 4.6-13.6 6.3-20.3 3.2-13.5 5-26.5 6.2-38.5 1.1-12.1 1.7-23.2 2-33 .3-9.9.5-18.4.7-25.5.2-14.2.4-22.2.4-22.2s0 2 .1 5.8c0 3.8.1 9.4.2 16.4 0 7.1 0 15.7-.2 25.5-.1 9.9-.5 21-1.5 33.1-1 12.1-2.6 25.2-5.7 38.9-1.6 6.8-3.6 13.7-6.1 20.6-2.5 6.9-5.7 13.8-9.8 20.3-4 6.5-9 12.7-14.8 18.1-5.9 5.4-12.7 9.8-20.2 13.1l-1.4.6c-.5.2-.9.4-1.4.5l-2.8 1-1.4.5-.4.1-.2.1-.2.1-.7.2c-1 .3-2 .6-2.9.8-3.9 1-8 1.8-12 2.4-8.1 1.1-16.2 1.5-24.4 1.6-8.2 0-16.3-.5-24.4-1.8-8-1.3-16-3.5-23.3-7-7.4-3.4-14.1-8.1-19.6-13.9-1.3-1.5-2.6-3.1-3.9-4.6-1.1-1.6-2.2-3.2-3.3-4.7-2.2-3.4-3.9-6.8-5.4-10.4-3-7.1-5.2-14.2-7.5-21.2-2.2-7-4.3-13.9-5.8-20.7-1.6-6.9-2.4-13.6-2.8-20.2-.5-6.6-.7-12.9-1-18.9-.6-12.1-1.1-23.2-1.6-33.1-.5-9.9-.8-18.4-1.2-25.5-.7-14.2-1-22.2-1-22.2z"/><path d="M6494.1-544.2s.8 0 2.4.1c1.6.1 3.8.2 6.7.3 2.9.2 6.4.3 10.5.5 4 .2 8.6.3 13.6.5s10.4.3 16.1.5c5.7.2 11.7.2 17.9.4 6.2.1 12.6.1 19.2.2 6.5.1 13.2 0 19.8.1 6.6 0 13.3 0 19.8-.1s13-.1 19.2-.2c12.5-.1 24.1-.2 34-.3 10-.1 18.3-.1 24.1-.1h9.1s-.8.1-2.4.2c-1.6.1-3.8.2-6.7.4-5.8.3-14.1.8-24.1 1.3-10 .5-21.6.9-34 1.3-6.2.1-12.7.4-19.2.4-6.5.1-13.2.1-19.8.2-6.6 0-13.3 0-19.8-.2-6.5-.1-13-.3-19.2-.4-6.2-.2-12.3-.4-18-.8-2.9-.2-5.6-.3-8.3-.5-2.7-.2-5.3-.4-7.8-.5-2.5-.2-4.9-.3-7.1-.5-2.3-.2-4.4-.4-6.4-.6-4-.4-7.6-.7-10.4-1-2.9-.3-5.2-.6-6.7-.7-1.7-.4-2.5-.5-2.5-.5z"/><path class="st3" d="M219.9 379.5c23.3-1.1 46.7-1.8 70.2-1.8 32.9 0 71.5 3.1 103.1-2.8-.4 0 1.2 83 .5 137.5-.4 30.7 5.5 31.8 1.3 99-1.6 25.6-8 57.4-34 68.8-24.3 10.6-57.1 13.8-83.4 10.9-25-2.8-58.7-8.5-80.5-21.4-4.9-2.9-9.6-5.3-13.6-9.6-10.3-11-13.1-32.7-15-46.8-2.1-15.2-.2-31.3-1.8-46.6-2-19.3-1.7-38.8-.9-58.4.8-20.5.5-40.7 2.5-60.9.7-7.4 2.7-16.9 1.7-24.3-1.1-7.8-4-35.4-5.4-43.3 2.2 2 11.2 1.7 14 1.9 4.7.4 9.5.4 14.2.1 9-.6 18-1.9 27.1-2.3z"/><path class="st0" d="M214.7 374.3c23.3-1.1 46.7-1.8 70.2-1.8 32.9 0 71.5 3.1 103.1-2.8-.4 0 1.2 83 .5 137.5-.4 30.7 5.5 31.8 1.3 99-1.6 25.6-8 57.4-34 68.8-24.3 10.6-57.1 13.8-83.4 10.9-25-2.8-58.7-8.5-80.5-21.4-4.9-2.9-9.6-5.3-13.6-9.6-10.3-11-13.1-32.7-15-46.8-2.1-15.2-.2-31.3-1.8-46.6-2-19.3-1.7-38.8-.9-58.4.8-20.5.5-40.7 2.5-60.9.7-7.4 2.7-16.9 1.7-24.3-1.1-7.8-4-35.4-5.4-43.3 2.2 2 11.2 1.7 14 1.9 4.7.4 9.5.4 14.2.1 9-.6 18-1.9 27.1-2.3z"/><path class="st4" d="M337.5 24.6c-3.7 1.4-7.4 4.1-11.3 5.3-1-4.2-.6-8.8-.1-12.9-4.7-.5-9.8 1.4-13.8 3.2-2.1-14.5-7.3-8.6-17.1-3.5.1-1.7-.8-3.9-.8-5.6-21.7-7.8-2.6 17.5-1.2 23.7-12.4-4.9-53.9-17.5-63.3-5.7 5.8 3.8 14.7 3.7 19.9 9-8.2.3-17.1 5-20 12.6 1.9-.4 3.9-.4 5.8-.8-4.4 10.6-16 19.4-23.4 28.3 4.7-.3 8.8-3.1 12.7-5.6.5 10.1 5.4 21.1 15.4 10-1.1 2.3-1.1 5.3-1.6 6.9 3.6-2.2 7.2-5.7 10.8-7.9 2.6 7.5 23.9-8.2 33-8.5-2 19.5-22.6 36.2-22.7 56.3 8.6-4.9 12-17.8 23.1-19.3-.3 3.3 1.5 7.3 1.1 10.6 3.1-1.9 5.6-6.2 8.5-8.9 1.5 4.8 2.4 9.5 6.8 11.2.7-2.2 2.6-4 3.4-6 3.2 1.5 5.8 4.9 6.9 8.8.7 0 2-.8 2.2-.8-.3 3.5 1.2 7.9 1.6 10.2-.8-5.3-3.6-23.6-.1-28.2 2.1-2.7 19.4-4.7 19.4-3.3.1-16.3-6.7-32.8-5.4-48.9.4-5.4 4.2-28 10.2-30.2zm82.1 188.1c5.3-4.9 11.2-11.8 11.7-19.5.1-1.7-4.4-18.3-7.6-11.2 4.7-10.3 5.6-25 6.4-36.2.8-10.9-1.3-24.3 1.2-34.7 5.3 3.9 10.7 9.4 13 16.5 1.4-7.9.9-15.4 5.6-22.5 1.6 4.9 1.2 11.3 3.5 15.8 2.4-5.2 4.8-11.4 9.5-14.6 1.5 7.5-.5 14.9-.6 22.4 2.3-5.1 5-9.8 9.7-12.3-.3 7.2-5.1 14.2-5.2 21.7 10.9-7.3 20.6-17.5 31.8-25.1 8.9-6.1 20.4-8.6 28.3-16-5.4 8.3-11.4 18.2-13.3 28 9.9-3.8 16.6-3.2 26.4.7-6.3 6.4-16.2 6.9-23.9 11.5 10.3 2.3 32.4 1.6 39.5 9.9-7.4.5-23.6-.9-24 8.7 8 1.9 21 .4 22.1 11.6-18.2 1.5-37.2.8-55.6 2 11.1 3.3 35.9 2.1 39.2 17.2-26.6 3.6-52.9 2.4-79.5 3.8 9.5 7 20.8 15.5 28.9 24-10.9 3.9-21.8 4.9-33.2 1.7 2.9 6.8 6.1 17.4-.8 22.6-1.4-3.1-4.9-5.5-6.6-8-3.7 4.1-10.9 27.4-16 26.4-6.6-1.2-3.3-29.3-3.9-34.2-6.1 3.2-4.8 11.7-8.1 17.2-14.8-7.4-6.6-19.9 1.5-27.4z"/><path class="st4" d="M368.7 235.5c8.5-17.4 36.5-37.3 52.9-48.1 7.9-5.2 48.4-19.7 49-26.4-10.2 5.7-23.3 7.3-34.6 11.5-12.1 4.6-19.8 10.8-29.9 18.4-7.5 5.6-45.8 39.8-42.3 42.5"/><path class="st5" d="M401.5 120.1c4-15 14.2-24.4 1.2-36.6-9.3-8.8-15.7-8.7-20.2 4.7-8.4 25.5-15.6 51.2-21.7 77.2-2.5 10.8-6.6 21.9-10.6 32.9-5 13.6-8.7 27.8-12 41.9-5.5 22.9-10.8 44-15.8 67.1-2.9 13.8-5.8 27.6-9.3 41.3-11.2 43.2-28.1 84.8-39.9 127.8-9 33-21.2 65.1-30.7 97.8-5.1 17.6-13.5 39.1-13.4 57.2 7.3-9.4 19.1-23.2 32.8-20.1 9.2 2 13.9 11.6 19.3 18.6 18.5-34 22.8-80.4 30.2-118.1 7.9-40 13.8-80.6 21.9-120.3 11.2-54.3 23.5-110.3 39.2-162.3 7.2-24 11.2-49.2 18.9-73.3 4-11.9 6.9-24.1 10.1-35.8z"/><path class="st4" d="M363.2 156.6c-11.1-18-16-39.2-31.6-56.3-10.5-11.5-25.7-26.2-40.5-27.3 17.5 11.4 34.6 24.8 43.9 43.7 8.6 17.3 17.1 38.2 25.7 54.4"/><path class="st1" d="M519 508.9c.5-26.7-3.1-52.2-8.3-78.6-5.9-30.1-11.3-64.4-44.8-76.4-19.2-6.9-62.2-15.3-69.6-38.5 0 0-.4-2-.8-3.1-.7-4.1-2.5-14.8-2.5-14.8-.1-7 1.1-34.7.7-41.5-.5-9.7 7.2-24.7-5.8-27.3-12.1-2.5-177.7-1.5-194.9-1.1-16 .3-22.8 2-25.2 12.2-1 2.8-1.2 6.3-1.1 10v3.1l.2.1c.5 6.5 1.8 13.3 2 17.4.7 13.3 1.4 27.2 1.2 40.4-.2 11.4-3.7 21.8-10.4 31-20.4 28.1-14.6 69.2-14.6 101.9 0 12.2 1.2 23.5 1.8 35.6 2.7 57.9-9.1 118.9 11.7 174.8 5 13.5 15.6 23.9 28 30.8 9.5 5.2 20.6 12.9 31.2 13.8 7.3.7 14.7 1.4 22.2 1.1 15.1-.6 26.6-2.7 42.1-1.8 33 2.1 66.3 1 96.6-10.9 16.1-6.4 28-22.4 34.9-37.5 10.1-22.1 22.4-36.2 45.9-42.9 6.5-1.8 13.1-1 19.5-2.9 11.5-3.4 24.4-15.7 30-25.8 11.8-20.9 9.6-45.9 10-69.1zM486.5 545c-7.3 26-40.5 41.6-60.2 16.4-9.6-12.2-9.8-30-10.5-44.8-.7-15.1-.9-29.8-.9-45 0-20.6-6.7-47.6 2.3-66.9 8.5-18.2 29.9-27.2 47-14.6 8.2 6 12.7 26.2 15.4 35.8 4.1 14.2 6.3 28.2 7.8 43 2.4 24.7 5.9 51.7-.9 76.1z"/><path d="M176.6 237.8s0 1.4.1 3.8c0 2.4 0 5.9-.2 10.1-.1 4.2-.3 9-.3 14.2 0 2.6 0 5.3.2 8 .1 2.7.4 5.4.8 8.2.4 2.7.8 5.5 1.3 8.2.5 2.7.9 5.4 1.4 7.9.4 2.6.8 5.1 1.2 7.5.3 2.4.6 4.7.8 6.8.2 2.1.3 4.1.3 5.8v4.5c0 1.3-.1 2.3-.2 2.9-.1.7-.1 1-.1 1-.1 1.4-1.3 2.4-2.7 2.3-1.4-.1-2.4-1.3-2.3-2.7v-.2s0-.3.1-.9c.1-.6.2-1.5.3-2.7.1-1.2.2-2.6.3-4.2v-5.6c-.1-2-.2-4.3-.4-6.6-.2-2.4-.4-4.8-.7-7.4-.3-2.6-.6-5.3-.9-8-.3-2.7-.6-5.5-.8-8.3-.2-2.8-.3-5.6-.3-8.4 0-2.8.1-5.5.3-8.1.3-5.2.8-10.1 1.1-14.2.4-4.2.6-7.6.7-10v-3.9zm208.9 0s.1.6.2 1.8c.1 1.2.3 2.9.5 5.2.1 1.1.2 2.4.2 3.7.1 1.3.1 2.8.2 4.3.1 3.1.1 6.6.1 10.4-.1 3.8-.1 7.9-.3 12.3-.2 4.3-.7 8.9-1.1 13.7-.4 4.7-.6 9.7-.3 14.6.2 5 .8 10 1.7 15 .2 1.1.5 2.5.8 3.6.3 1.2.7 2.3 1.1 3.5.8 2.3 1.7 4.6 2.6 6.9 1.9 4.5 4 9 5.8 13.6.9 2.3 1.6 4.6 2.2 6.9.1.6.3 1.2.4 1.7l.1.4.1.5.1.8c.1.6.2 1.1.3 1.7.1.6.1 1.2.2 1.8.5 4.6.3 8.8.1 12.7-.3 3.9-.7 7.4-1.1 10.4-.4 3.1-.8 5.7-1.1 7.9-.6 4.4-1 6.9-1 6.9h-.5s-.1-.6-.2-1.8c-.1-1.2-.3-2.9-.3-5.2-.1-2.2-.1-4.9-.1-8 0-3.1 0-6.6-.1-10.3-.1-3.7-.2-7.8-.8-11.9-.1-.5-.1-1-.2-1.5s-.2-1.1-.3-1.6l-.2-.8-.1-.3-.1-.4c-.1-.5-.2-1.1-.4-1.6-.5-2.1-1.2-4.3-1.9-6.5-1.5-4.4-3.3-8.9-5-13.7-.8-2.4-1.6-4.9-2.1-7.5-.2-1.3-.5-2.6-.6-3.9l-.1-1-.1-1c0-.7-.1-1.2-.1-1.9-.2-5.1-.3-10.2-.5-15.2-.1-5-.5-9.9-.8-14.7-.3-4.8-.6-9.4-.6-13.8s.3-8.5.5-12.3c.3-3.8.5-7.3.8-10.4.3-3.1.6-5.8.8-8 .3-2.2.5-4 .6-5.1l.3-1.8.3-.1z"/><path d="M352 244.8s-1.9.1-5.6.3c-3.6.2-9 .5-15.8.7-6.8.2-15.1.6-24.6.9-9.5.3-20.2.6-31.9.8-11.7.2-24.3.5-37.7.7-13.4.3-27.5.7-42 1.5-3.6.2-7.3.4-11 .7-1.8.1-3.7.2-5.5.4-1.8.2-3.7.5-5.5.9-1.8.4-3.6.8-5.4 1.4-1.7.6-3.5 1.4-4.7 2.8-.5.7-.7 1.6-.5 2.4.3.8.9 1.5 1.5 2.2l.5.5c.1.1.4.3.6.4.4.2.8.4 1.2.5.9.2 1.8.3 2.8.4 3.8.2 7.6-.3 11.5-.6 3.9-.1 7.7 0 11.6-.1 7.7-.1 15.5-.3 23.3-1 7.8-.8 15.5-1.2 23.3-1.5 7.7-.4 15.5-.8 23.1-1.2 15.3-.7 30.4-1.2 45-1.7 14.6-.5 28.7-.9 42-1.3 6.7-.3 13.2-.5 19.5-.8 1.6-.1 3.1-.1 4.7-.2 1.7-.1 3.2.1 4.7.3 3 .3 6 .5 8.9.7 2.9.1 5.7.2 8.5 0 2.7-.2 5.4-.6 7.6-1.8 1.1-.6 1.9-1.5 2.2-2.5.2-.5.2-1.1.2-1.7v-.4c0-.2-.1-.3-.1-.4-.1-.2-.2-.5-.4-.7-.7-.9-1.7-1.5-2.8-1.9-1.1-.4-2.2-.8-3.4-1-4.6-1-9-1.2-13.1-1.3-4.1-.1-7.9 0-11.3.1-6.8.3-12.1.7-15.8 1-3.7.3-5.6.5-5.6.5zm0-.2s1.9-.2 5.6-.5c3.6-.3 9-.8 15.8-1.2 3.4-.2 7.2-.3 11.3-.3 4.1 0 8.6.1 13.3 1 1.2.2 2.4.5 3.6 1 1.2.5 2.4 1 3.3 2.2.2.3.4.6.6 1 .1.2.1.4.2.5 0 .1 0 .1.1.3v.3c.1.7.1 1.4-.1 2.1-.4 1.4-1.5 2.6-2.7 3.3-1.2.7-2.6 1.2-4 1.5-1.4.3-2.8.5-4.2.7-2.8.3-5.7.3-8.7.2-2.9-.1-5.9-.3-8.9-.6-1.5-.1-3-.3-4.5-.2-1.5.1-3.1.2-4.7.3-6.3.4-12.8.6-19.5.9-13.4.5-27.5 1-42.1 1.4-14.6.4-29.7.8-45 1.4l-23.1.9c-7.7.3-15.5.6-23.3 1.2-7.8.6-15.6.7-23.3.6-3.9 0-7.8-.1-11.6 0-3.8.2-7.7.7-11.5.5-1-.1-1.9-.2-2.9-.4-.5-.1-1-.3-1.4-.6-.2-.1-.4-.2-.6-.4l-.5-.5c-.7-.7-1.4-1.5-1.7-2.4-.4-1-.1-2.2.6-3 .6-.8 1.5-1.4 2.3-1.8.9-.5 1.7-.8 2.6-1.2 1.8-.6 3.6-1.1 5.5-1.5 1.8-.4 3.7-.7 5.6-.9 1.9-.2 3.7-.3 5.6-.5 3.7-.3 7.4-.7 11-.9 14.6-1.1 28.7-1.8 42-2.1 6.7-.2 13.2-.4 19.5-.4 6.3 0 12.4-.1 18.2-.1 11.7 0 22.4-.1 31.9-.1 9.5-.1 17.8-.1 24.6-.4 6.8-.2 12.2-.4 15.8-.6 3.4-.6 5.3-.7 5.3-.7zm-112.5 55.7c7.1.3 14.1 1.2 21.2 1.6 3.5.2 7.1.3 10.6.2 3.5-.1 7.1-.4 10.6-.6l21.2-1.2c7.1-.4 14.2-.7 21.3-.9 7.1-.2 14.2-.5 21.3-.5 7.1-.1 14.2-.1 21.3 0l21.3.2h5.3c1.8 0 3.5 0 5.2-.3 1.7-.3 3.3-.9 4.4-2.1 1.1-1.2 1.6-2.9 1.6-4.6v.1c-.2-1.2-1-2.1-2.2-2.5-1.1-.4-2.4-.3-3.7-.3-2.5.2-5.1.7-7.6 1-5.2.5-10.3.1-15.4-.3s-10.2-.9-15.3-.9c-2.5 0-5.1.2-7.7.3l-7.7.3c-10.3.4-20.5.6-30.8.7-5.1 0-10.3.1-15.4.1s-10.3-.1-15.4-.2c-10.3-.3-20.5-.9-30.8-1.3-5.1-.2-10.2-.4-15.4-.5-5.1-.1-10.2-.2-15.3-.1-5.1 0-10.2.2-15.3.4-5.1.3-10.3.4-15.4.6-5.1.1-10.2.3-15.3.6-2.5.1-5.1.3-7.6.6-1.2.2-2.5.4-3.7.7-.6.1-1.1.4-1.6.6-.2.1-.4.3-.6.4-.1.1-.1.2-.2.2v.2c-.3 1.2-.3 2.5 0 3.8v-.1c.2.5.6 1 1.2 1.3.6.4 1.3.6 2.1.9 1.5.5 3.1.8 4.7 1 3.2.5 6.5.7 9.8.9l9.9.6c1.6.1 3.3.1 4.9.2h4.9c6.6-.1 13.2-.4 19.7-.7 3.3-.1 6.6-.3 9.9-.3h4.9c1.8-.2 3.4-.1 5.1-.1zm0 .2c-1.6 0-3.3-.1-4.9-.1h-4.9c-3.3.1-6.6.2-9.9.4-6.6.3-13.1.9-19.7 1.1-1.6 0-3.3.1-4.9.1h-5l-9.9-.3c-3.3-.1-6.6-.3-9.9-.6-1.7-.2-3.3-.4-5-.9-.8-.2-1.7-.5-2.5-1-.8-.4-1.6-1.2-2-2.2v-.1c-.3-1.5-.3-3 0-4.5v.2c0-.6.3-1.1.6-1.5.3-.3.7-.5 1-.7.7-.3 1.3-.6 2-.7 1.3-.4 2.6-.6 3.9-.8 2.6-.4 5.2-.6 7.7-.8 5.1-.3 10.3-.5 15.4-.6 5.1-.2 10.2-.3 15.3-.6 5.1-.3 10.3-.4 15.4-.5 5.1-.1 10.3 0 15.4.2s10.3.4 15.4.6c10.3.5 20.5 1.1 30.7 1.5 5.1.2 10.2.4 15.4.4 5.1.1 10.3.1 15.4.1 10.3 0 20.5 0 30.8-.3 2.6-.1 5.1-.1 7.7-.2 2.6-.1 5.1-.3 7.7-.2 5.2 0 10.3.6 15.4 1s10.2.7 15.3.2c2.5-.3 5-.8 7.6-1 1.3-.1 2.6-.2 4 .3.7.2 1.3.6 1.8 1.1l.6.9.4 1v.1c0 1.8-.5 3.8-1.8 5.2-.3.4-.7.7-1.1 1-.4.2-.8.5-1.2.7-.8.4-1.8.6-2.6.8-1.8.3-3.6.4-5.4.4l-5.3.1-21.3.2c-7.1 0-14.2 0-21.3.2l-21.2.4-21.2.6-21.3.7c-3.5.1-7.1.3-10.6.4-3.6 0-7.1-.1-10.6-.4-7.3-.6-14.4-1.5-21.4-1.9zm-80.2 74.6s.2.1.6.4c.4.2 1 .4 1.8.6 1.6.4 4.1.5 7.2.5 1.6 0 3.3 0 5.2.1 1.9.1 3.9.1 6.1.1 4.3-.1 9.2-.5 14.6-1 5.3-.6 11.1-1.3 17.3-1.8 6.2-.4 12.6-.8 19.4-1.1 6.7-.3 13.7-.6 20.7-.8 7.1-.2 14.2-.3 21.4-.4 7.2-.1 14.3 0 21.4.1 7.1.1 14 .4 20.7.5 6.7.2 13.2.4 19.3.5 6.1.1 12 .1 17.3.1 2.7 0 5.3-.1 7.7-.2 2.4-.1 4.8-.2 6.9-.3 2.2-.1 4.2-.3 6.1-.4.9-.1 1.8-.1 2.7-.2.9-.1 1.7-.2 2.5-.3 1.6-.2 2.9-.3 4.2-.5 1.2-.2 2.2-.3 3.1-.4 1.7-.2 2.6-.3 2.6-.3s-.9.2-2.5.5c-.8.2-1.8.4-3 .6-1.2.2-2.6.4-4.1.7-.8.1-1.6.2-2.5.4l-2.7.3c-1.9.2-3.9.5-6.1.7-2.2.2-4.5.4-6.9.6-2.4.2-5 .3-7.7.5s-5.5.2-8.4.3c-2.9.1-5.9.1-9 .1-6.2.1-12.7 0-19.4-.1-6.7-.1-13.6-.2-20.7-.3-7-.1-14.2-.1-21.4 0-7.2 0-14.3.2-21.4.3-7 .2-14 .4-20.7.5-6.7.2-13.2.4-19.3.6-6.1.3-11.9.9-17.3 1.3s-10.3.5-14.7.4c-2.2-.1-4.2-.2-6.1-.4-1.9-.2-3.6-.3-5.2-.4-3.1-.2-5.6-.5-7.2-.9-.8-.2-1.4-.5-1.8-.7-.6-.1-.7-.2-.7-.2z"/><path d="M350.3 347h1c.6 0 1.6 0 2.8.1 2.5.1 6.1.3 10.7 1.2 2.3.5 4.8 1.1 7.4 2.1 2.6 1 5.4 2.3 8 4.4.3.3.6.5 1 .8l.9.9.9.9c.3.3.5.7.8 1 1.1 1.4 1.9 3.1 2.6 4.8 1.4 3.4 2.3 7.2 2.9 11.2 1.2 8 1.1 16.7.8 25.7-.1 4.6-.2 9.2-.2 13.9v14.6c-.1 9.9-.2 20.2-.4 30.6-.1 10.4-.1 21 .3 31.5.1 5.3.4 10.5.7 15.8l.6 7.8.3 3.9c.1 1.3.2 2.6.2 3.9.6 10.4.6 20.7.6 30.7-.1 9.9-.4 19.5-.6 28.6-.1 4.5-.1 9-.2 13.2-.1 4.3-.4 8.5-.8 12.4-.8 7.9-2.3 15.1-3.9 21.4-1.6 6.3-3.5 11.6-5.8 15.7-2.2 4.1-4.5 7-6 8.9-.8 1-1.4 1.7-1.8 2.2-.4.5-.6.7-.6.7s.2-.3.6-.8c.4-.5 1-1.3 1.7-2.3 1.4-2 3.6-5 5.6-9.1 2.1-4.1 3.8-9.4 5.2-15.7 1.4-6.3 2.6-13.4 3.3-21.3.3-3.9.5-8 .5-12.3 0-4.3 0-8.7-.1-13.2 0-9.1.1-18.7.1-28.6 0-9.9-.2-20.1-.8-30.5l-.3-3.9-.3-3.9c-.2-2.6-.4-5.2-.6-7.9-.3-5.3-.6-10.6-.8-15.9-.3-10.6-.3-21.2-.2-31.6.1-10.4.4-20.7.6-30.6.1-5 .2-9.8.2-14.6 0-4.8.2-9.5.4-14 .4-9.1.7-17.6-.3-25.4-.5-3.9-1.4-7.5-2.6-10.9-.2-.4-.3-.8-.5-1.3l-.2-.6-.3-.5c-.4-.7-.7-1.5-1.3-2.1-.2-.3-.5-.7-.7-1-.2-.3-.5-.6-.8-.9-.3-.3-.6-.6-.8-.9-.3-.3-.6-.5-.9-.8-2.4-2-5.1-3.4-7.6-4.5-2.6-1.1-5-1.7-7.2-2.3-4.5-1-8.1-1.4-10.6-1.6-1.2-.1-2.2-.2-2.8-.2-.3.3-.7.3-.7.3zm-154 2.7s-.5.1-1.5.2-2.5.3-4.4.7c-1.9.3-4.3.8-7 1.6s-5.8 1.8-9.1 3.4c-.8.4-1.7.8-2.4 1.3-.4.2-.8.5-1.2.8l-1.2.9c-.8.6-1.6 1.3-2.4 2-.4.3-.7.8-1.1 1.1-.4.4-.8.8-1.1 1.2-.3.4-.6.9-1 1.3-.3.4-.6 1-.9 1.4l-.4.7c-.1.2-.2.5-.3.8-.2.5-.5 1.1-.7 1.6-.8 2.2-1.1 4.6-1.2 7.1-.1 5 .9 10.4 2 16 .6 2.8 1.1 5.7 1.5 8.7.3 3 .6 6.1.8 9.2.9 12.6.7 26.2.4 40.6-.1 7.2-.2 14.6-.4 22.2s-.6 15.3-.9 23.1c-.8 15.7-1.6 31.9-2.4 48.4-.7 16.4-1.1 33.2.6 49.7.8 8.3 2.2 16.5 4.2 24.5l.8 3 .9 3 .9 2.9c.3.9.7 1.9 1 2.9 1.4 3.8 3 7.6 4.9 11.2 3.8 7.2 8.6 13.7 14.3 19.2 2.9 2.7 6 5.2 9.2 7.3.8.5 1.7 1.1 2.5 1.6l2.5 1.4c.8.5 1.7.8 2.6 1.2.9.4 1.7.8 2.7 1.1 7.2 2.9 14.7 4.3 22.1 5.3 7.4.9 14.8 1.4 22 2.1 7.2.7 14.1 1.7 20.8 2.7 6.7 1 13.2 1.8 19.4 2.3 1.5.1 3.1.2 4.6.3 1.5 0 3.1 0 4.6.1 1.5 0 3-.1 4.4-.1 1.5-.1 2.9-.2 4.3-.3 5.7-.5 11-1.2 16-2.2 10-2 18.5-4.6 25.2-7.5 6.7-2.9 11.8-5.7 15-8 .8-.5 1.5-1 2.1-1.5.6-.5 1.1-.9 1.5-1.2.8-.6 1.2-1 1.2-1s-.4.3-1.2 1c-.4.3-.9.7-1.5 1.2s-1.3 1-2.1 1.6c-3.1 2.4-8.1 5.4-14.8 8.4-6.7 3-15.2 5.8-25.2 8-5 1-10.4 2-16.1 2.5-1.4.1-2.9.2-4.4.4-1.5.1-3 .1-4.5.2h-4.6c-1.6-.1-3.1-.1-4.7-.2-6.3-.4-12.8-1.2-19.5-2.1-6.7-.9-13.6-1.9-20.8-2.4-7.1-.6-14.5-1-22.1-1.8-7.6-.9-15.3-2.3-22.8-5.3-.9-.3-1.9-.8-2.8-1.2-.9-.4-1.8-.8-2.7-1.3-.9-.5-1.8-1-2.7-1.4-.9-.5-1.7-1-2.6-1.6-3.5-2.2-6.7-4.7-9.7-7.5-6-5.7-11-12.5-14.9-19.9-2-3.7-3.7-7.5-5.1-11.5-.3-1-.7-1.9-1-3l-.9-3-.9-3-.8-3.1c-2.1-8.2-3.5-16.5-4.4-24.9-1.7-16.8-1.2-33.7-.4-50.2.9-16.5 1.8-32.7 2.6-48.4.4-7.8.8-15.5 1.1-23.1.3-7.5.5-14.9.7-22.1.4-14.4.8-28 .1-40.5-.2-3.1-.4-6.2-.7-9.2-.3-2.9-.8-5.8-1.3-8.6-1-5.6-2-11.1-1.7-16.3.1-2.6.5-5.1 1.4-7.4.2-.6.5-1.1.7-1.6.1-.3.2-.5.4-.8l.5-.8.9-1.5c.3-.5.7-.9 1-1.4.3-.5.7-.8 1.1-1.2.4-.4.7-.8 1.2-1.2.8-.7 1.6-1.4 2.5-2l1.2-.9c.4-.3.9-.5 1.3-.7.8-.5 1.7-.9 2.5-1.3 3.3-1.6 6.5-2.5 9.3-3.2 2.8-.7 5.2-1.1 7.1-1.4 1.9-.3 3.4-.5 4.4-.6 1 .1 1.5 0 1.5 0z"/></svg>