<?xml version="1.0" encoding="utf-8"?>
<!-- Generator: Adobe Illustrator 19.2.0, SVG Export Plug-In . SVG Version: 6.00 Build 0)  -->
<svg version="1.1" id="Layer_1" xmlns="http://www.w3.org/2000/svg" xmlns:xlink="http://www.w3.org/1999/xlink" x="0px" y="0px"
	 viewBox="0 0 700 700" style="enable-background:new 0 0 700 700;" xml:space="preserve">
<style type="text/css">
	.st0{fill:none;}
	.st1{fill:none;stroke:#000000;stroke-width:5;stroke-miterlimit:10;}
	.st2{opacity:0.9;fill:url(#SVGID_1_);}
	.st3{fill:#C90606;}
	.st4{fill:none;stroke:#000000;stroke-width:2;stroke-miterlimit:10;}
	.st5{fill:none;stroke:#000000;stroke-width:3;stroke-miterlimit:10;}
</style>
<rect x="0" y="0" class="st0" width="700" height="700"/>
<path class="st1" d="M6708.6-568.1c0.3,38.5,0.2,82.4-5.7,120.5c-2.3,14.7-3.7,31.7-10.6,44.9c-9.4,17.9-18.6,35.9-34,49.5
	c-5.5,4.9-11.5,9.2-17.9,12.8c-4.2,2.3-15.3,5.1-15.9,10.8c-0.4,3.6,3.8,5.7,6.9,7.6c6.9,4.3,10.9,12.3,11.6,20.4
	c1.5,15.4-5.6,30.7-18.9,38.8c-0.8,0.5-1.6,1-1.9,1.8c-0.7,2.1,2.1,3.4,4.2,3.8c12.1,2.1,24,5,35.7,8.7c7.7,2.4,24.3,10.6,12,18.5
	c-7.7,4.9-17,6.2-26,7.3c-24.7,3.1-49.7,6.2-74.5,3.9c-5.6-0.5-11.2-1.4-16.8-2.2c-7.5-1.1-15-2.2-22.5-3.3
	c-5.3-0.8-11.8-2.7-12.7-7.9c-1.7-10.2,16.6-15.1,23.6-17.2c4.9-1.5,36.5-4.6,35.6-9.3c-0.5-2.4-2.8-3.9-4.8-5.4
	c-8.9-6.4-15-16.4-16.6-27.2c-1.6-10.8,1.3-22.2,7.9-30.9c2.2-2.9,4.9-6,4.4-9.6c-0.2-1.5-1-2.9-2-4.1c-5.1-6.7-15.9-9.5-22.8-14.7
	c-7.9-6-15.2-12.8-21.6-20.4c-12.5-14.5-22.1-31.5-27.6-49.9c-5.2-17.2-6.9-35.3-8.2-53.2c-2.3-31-3.6-62-3.8-93.1
	c20.2-2.4,42-1.8,62.4-1.4C6600.9-567.5,6708.6-570.2,6708.6-568.1z"/>
<g>
	<path d="M6582-253.2c0,0,0,0.2,0,0.5c0,0.3,0,0.8,0,1.4c0,0.6,0.1,1.3,0.6,1.9c0.4,0.6,1.2,0.8,2.2,0.8c2.1-0.1,4.5-0.2,7.1-0.2
		c1.3,0,2.7-0.1,4-0.1c1.4-0.1,2.8-0.1,4.1-0.2c1.4-0.1,2.8-0.1,4.1-0.2c1.4-0.1,2.7-0.1,4-0.2c2.6-0.1,5-0.2,7.1-0.3
		c2-0.1,3.7-0.6,4.6-1.3c0.4-0.4,0.7-0.8,0.8-1.1c0.1-0.3,0.2-0.5,0.2-0.5s0,0.2,0,0.5c-0.1,0.3-0.2,0.8-0.6,1.3
		c-0.4,0.5-1.1,1-1.9,1.4c-0.8,0.4-1.8,0.7-2.8,0.8c-2.1,0.4-4.5,0.7-7.1,0.9c-1.3,0.1-2.7,0.3-4,0.4c-1.4,0.1-2.8,0.2-4.2,0.2
		c-1.4,0-2.8,0.1-4.2,0.1c-1.4,0-2.7,0-4.1,0c-2.6-0.1-5.1-0.2-7.2-0.4c-0.5-0.1-1.1-0.1-1.6-0.4c-0.5-0.3-0.9-0.7-1.1-1.1
		c-0.4-0.9-0.4-1.7-0.3-2.3c0.1-0.6,0.2-1.1,0.3-1.4C6581.9-253,6582-253.2,6582-253.2z"/>
</g>
<g>
	<path d="M6581.6-337.8c0,0,0.6,0.2,1.6,0.5c0.5,0.2,1.2,0.3,1.9,0.5c0.7,0.2,1.6,0.4,2.4,0.5c0.9,0.2,1.9,0.3,2.9,0.5
		c1,0.1,2.1,0.2,3.3,0.3c1.1,0.1,2.3,0.1,3.5,0.2c1.2,0,2.4,0,3.6,0c1.2,0,2.5,0,3.7-0.1c1.2,0,2.4-0.1,3.6-0.1
		c2.3-0.1,4.5-0.1,6.3-0.3c1.8-0.2,3.2-0.6,4.1-1.2c0.4-0.3,0.8-0.6,1-0.8c0.2-0.2,0.3-0.3,0.3-0.3s-0.1,0.1-0.2,0.4
		c-0.2,0.3-0.4,0.6-0.8,1c-0.8,0.8-2.3,1.6-4.2,2c-0.9,0.2-2,0.4-3,0.5c-1.1,0.1-2.2,0.3-3.3,0.4c-1.2,0.1-2.4,0.2-3.6,0.3
		c-1.2,0.1-2.5,0.1-3.7,0.2c-1.3,0-2.5,0-3.7-0.1c-0.6,0-1.2-0.1-1.8-0.1c-0.6-0.1-1.2-0.1-1.8-0.2c-1.2-0.1-2.3-0.4-3.4-0.6
		c-0.5-0.1-1-0.3-1.5-0.4c-0.5-0.2-1-0.3-1.4-0.4c-1.8-0.6-3.2-1.3-4.2-1.8C6582.2-337.5,6581.6-337.8,6581.6-337.8z"/>
</g>
<g>
	<path d="M6531.5-235.7c0,0,0.1,0.1,0.3,0.3c0.2,0.2,0.5,0.4,1,0.6c0.9,0.5,2.3,1,4.2,1.4c1.9,0.4,4.2,0.7,6.8,1.1
		c2.6,0.4,5.6,0.7,8.9,1.1c3.3,0.3,6.8,0.7,10.6,1c3.7,0.3,7.7,0.5,11.8,0.7c8.2,0.3,17,0.5,25.7,0.6c4.4,0.1,8.8,0.1,13.1,0.2
		c4.3,0,8.5,0.1,12.6,0c4.1-0.1,8-0.4,11.7-0.8c3.7-0.5,7.2-1.1,10.4-1.7c6.4-1.4,11.6-3,15.2-4.3c1.8-0.7,3.2-1.2,4.2-1.6
		c1-0.4,1.5-0.6,1.5-0.6s-0.5,0.2-1.4,0.7c-0.9,0.4-2.3,1.1-4.1,1.8c-3.5,1.5-8.7,3.5-15.1,5.1c-6.4,1.6-14.1,2.9-22.3,3.2
		c-4.1,0.2-8.4,0.2-12.7,0.2c-4.3,0-8.7-0.1-13.1-0.1c-4.4-0.1-8.8-0.2-13.1-0.3c-4.3-0.1-8.6-0.4-12.7-0.6c-4.1-0.3-8.1-0.6-11.8-1
		c-3.8-0.4-7.3-0.8-10.6-1.3c-1.6-0.3-3.2-0.5-4.7-0.7c-1.5-0.3-2.9-0.5-4.2-0.8c-2.6-0.5-4.9-1-6.8-1.5c-1.9-0.5-3.3-1.1-4.1-1.7
		c-0.4-0.3-0.7-0.5-0.9-0.7C6531.6-235.6,6531.5-235.7,6531.5-235.7z"/>
</g>
<linearGradient id="SVGID_1_" gradientUnits="userSpaceOnUse" x1="6498.813" y1="-446.2358" x2="6704.6909" y2="-446.2358">
	<stop  offset="1.785714e-02" style="stop-color:#801FE3"/>
	<stop  offset="1" style="stop-color:#B7A7FF"/>
</linearGradient>
<path class="st2" d="M6498.8-539.9c1.4,24.4,2.7,48.8,4.1,73.2c0.4,7.9,0.9,15.9,2.2,23.7c1.8,11.1,5.4,21.8,8.9,32.5
	c3,9.1,6,18.2,11.1,26.3c17.8,28.1,51.5,32.7,81.9,31.3c10.6-0.5,21.3-1.5,31.5-4.7c66.9-21.3,65.2-117,66.1-172.7
	c0-2.6,0.1-5.1,0.1-7.7C6636-535.8,6567.2-534,6498.8-539.9z"/>
<g>
	<path d="M6493.7-559.6c0,0,0.6,8.1,1.5,22.2c0.5,7.1,1,15.6,1.7,25.5c0.6,9.8,1.4,20.9,2.1,33.1c0.4,6.1,0.7,12.4,1.3,18.9
		c0.5,6.5,1.4,13.2,3,19.9c1.6,6.7,3.7,13.5,6,20.4c2.4,6.9,4.5,14,7.5,20.9c0.8,1.7,1.5,3.4,2.4,5.1c0.9,1.6,1.8,3.3,2.8,4.8
		c1.1,1.6,2.2,3.1,3.4,4.7c1.2,1.4,2.5,2.8,3.7,4.3c5.3,5.5,11.7,10,18.8,13.2c7.1,3.3,14.8,5.4,22.6,6.6c7.9,1.3,15.9,1.7,23.9,1.7
		c8-0.1,16.1-0.4,24-1.5c3.9-0.5,7.9-1.2,11.7-2.2c1-0.3,1.9-0.5,2.8-0.8l0.7-0.2c0.1,0,0,0,0.1,0l0.2-0.1l0.4-0.1l1.4-0.5l2.8-1
		c0.5-0.2,0.9-0.3,1.4-0.5l1.3-0.6c7.1-3.1,13.7-7.4,19.4-12.5c5.7-5.1,10.5-11.1,14.4-17.5c4-6.3,7.1-13.1,9.7-19.8
		c2.6-6.8,4.6-13.6,6.3-20.3c3.2-13.5,5-26.5,6.2-38.5c1.1-12.1,1.7-23.2,2-33c0.3-9.9,0.5-18.4,0.7-25.5
		c0.2-14.2,0.4-22.2,0.4-22.2s0,2,0.1,5.8c0,3.8,0.1,9.4,0.2,16.4c0,7.1,0,15.7-0.2,25.5c-0.1,9.9-0.5,21-1.5,33.1
		c-1,12.1-2.6,25.2-5.7,38.9c-1.6,6.8-3.6,13.7-6.1,20.6c-2.5,6.9-5.7,13.8-9.8,20.3c-4,6.5-9,12.7-14.8,18.1
		c-5.9,5.4-12.7,9.8-20.2,13.1l-1.4,0.6c-0.5,0.2-0.9,0.4-1.4,0.5l-2.8,1l-1.4,0.5l-0.4,0.1l-0.2,0.1l-0.2,0.1l-0.7,0.2
		c-1,0.3-2,0.6-2.9,0.8c-3.9,1-8,1.8-12,2.4c-8.1,1.1-16.2,1.5-24.4,1.6c-8.2,0-16.3-0.5-24.4-1.8c-8-1.3-16-3.5-23.3-7
		c-7.4-3.4-14.1-8.1-19.6-13.9c-1.3-1.5-2.6-3.1-3.9-4.6c-1.1-1.6-2.2-3.2-3.3-4.7c-2.2-3.4-3.9-6.8-5.4-10.4
		c-3-7.1-5.2-14.2-7.5-21.2c-2.2-7-4.3-13.9-5.8-20.7c-1.6-6.9-2.4-13.6-2.8-20.2c-0.5-6.6-0.7-12.9-1-18.9
		c-0.6-12.1-1.1-23.2-1.6-33.1c-0.5-9.9-0.8-18.4-1.2-25.5C6494-551.6,6493.7-559.6,6493.7-559.6z"/>
</g>
<g>
	<path d="M6494.1-544.2c0,0,0.8,0,2.4,0.1c1.6,0.1,3.8,0.2,6.7,0.3c2.9,0.2,6.4,0.3,10.5,0.5c4,0.2,8.6,0.3,13.6,0.5
		c5,0.2,10.4,0.3,16.1,0.5c5.7,0.2,11.7,0.2,17.9,0.4c6.2,0.1,12.6,0.1,19.2,0.2c6.5,0.1,13.2,0,19.8,0.1c6.6,0,13.3,0,19.8-0.1
		c6.5-0.1,13-0.1,19.2-0.2c12.5-0.1,24.1-0.2,34-0.3c10-0.1,18.3-0.1,24.1-0.1c2.9,0,5.2,0,6.7,0c1.6,0,2.4,0,2.4,0
		s-0.8,0.1-2.4,0.2c-1.6,0.1-3.8,0.2-6.7,0.4c-5.8,0.3-14.1,0.8-24.1,1.3c-10,0.5-21.6,0.9-34,1.3c-6.2,0.1-12.7,0.4-19.2,0.4
		c-6.5,0.1-13.2,0.1-19.8,0.2c-6.6,0-13.3,0-19.8-0.2c-6.5-0.1-13-0.3-19.2-0.4c-6.2-0.2-12.3-0.4-18-0.8c-2.9-0.2-5.6-0.3-8.3-0.5
		c-2.7-0.2-5.3-0.4-7.8-0.5c-2.5-0.2-4.9-0.3-7.1-0.5c-2.3-0.2-4.4-0.4-6.4-0.6c-4-0.4-7.6-0.7-10.4-1c-2.9-0.3-5.2-0.6-6.7-0.7
		C6494.9-544.1,6494.1-544.2,6494.1-544.2z"/>
</g>
<path class="st3" d="M219.9,379.5c23.3-1.1,46.7-1.8,70.2-1.8c32.9,0,71.5,3.1,103.1-2.8c-0.4,0,1.2,83,0.5,137.5
	c-0.4,30.7,5.5,31.8,1.3,99c-1.6,25.6-8,57.4-34,68.8c-24.3,10.6-57.1,13.8-83.4,10.9c-25-2.8-58.7-8.5-80.5-21.4
	c-4.9-2.9-9.6-5.3-13.6-9.6c-10.3-11-13.1-32.7-15-46.8c-2.1-15.2-0.2-31.3-1.8-46.6c-2-19.3-1.7-38.8-0.9-58.4
	c0.8-20.5,0.5-40.7,2.5-60.9c0.7-7.4,2.7-16.9,1.7-24.3c-1.1-7.8-4-35.4-5.4-43.3c2.2,2,11.2,1.7,14,1.9c4.7,0.4,9.5,0.4,14.2,0.1
	C201.8,381.2,210.8,379.9,219.9,379.5z"/>
<path class="st0" d="M214.7,374.3c23.3-1.1,46.7-1.8,70.2-1.8c32.9,0,71.5,3.1,103.1-2.8c-0.4,0,1.2,83,0.5,137.5
	c-0.4,30.7,5.5,31.8,1.3,99c-1.6,25.6-8,57.4-34,68.8c-24.3,10.6-57.1,13.8-83.4,10.9c-25-2.8-58.7-8.5-80.5-21.4
	c-4.9-2.9-9.6-5.3-13.6-9.6c-10.3-11-13.1-32.7-15-46.8c-2.1-15.2-0.2-31.3-1.8-46.6c-2-19.3-1.7-38.8-0.9-58.4
	c0.8-20.5,0.5-40.7,2.5-60.9c0.7-7.4,2.7-16.9,1.7-24.3c-1.1-7.8-4-35.4-5.4-43.3c2.2,2,11.2,1.7,14,1.9c4.7,0.4,9.5,0.4,14.2,0.1
	C196.6,376,205.6,374.7,214.7,374.3z"/>
<path class="st4" d="M337.5,24.6c-3.7,1.4-7.4,4.1-11.3,5.3c-1-4.2-0.6-8.8-0.1-12.9c-4.7-0.5-9.8,1.4-13.8,3.2
	c-2.1-14.5-7.3-8.6-17.1-3.5c0.1-1.7-0.8-3.9-0.8-5.6c-21.7-7.8-2.6,17.5-1.2,23.7c-12.4-4.9-53.9-17.5-63.3-5.7
	c5.8,3.8,14.7,3.7,19.9,9c-8.2,0.3-17.1,5-20,12.6c1.9-0.4,3.9-0.4,5.8-0.8c-4.4,10.6-16,19.4-23.4,28.3c4.7-0.3,8.8-3.1,12.7-5.6
	c0.5,10.1,5.4,21.1,15.4,10c-1.1,2.3-1.1,5.3-1.6,6.9c3.6-2.2,7.2-5.7,10.8-7.9c2.6,7.5,23.9-8.2,33-8.5
	c-2,19.5-22.6,36.2-22.7,56.3c8.6-4.9,12-17.8,23.1-19.3c-0.3,3.3,1.5,7.3,1.1,10.6c3.1-1.9,5.6-6.2,8.5-8.9
	c1.5,4.8,2.4,9.5,6.8,11.2c0.7-2.2,2.6-4,3.4-6c3.2,1.5,5.8,4.9,6.9,8.8c0.7,0,2-0.8,2.2-0.8c-0.3,3.5,1.2,7.9,1.6,10.2
	c-0.8-5.3-3.6-23.6-0.1-28.2c2.1-2.7,19.4-4.7,19.4-3.3c0.1-16.3-6.7-32.8-5.4-48.9C327.7,49.4,331.5,26.8,337.5,24.6z"/>
<path class="st4" d="M419.6,212.7c5.3-4.9,11.2-11.8,11.7-19.5c0.1-1.7-4.4-18.3-7.6-11.2c4.7-10.3,5.6-25,6.4-36.2
	c0.8-10.9-1.3-24.3,1.2-34.7c5.3,3.9,10.7,9.4,13,16.5c1.4-7.9,0.9-15.4,5.6-22.5c1.6,4.9,1.2,11.3,3.5,15.8
	c2.4-5.2,4.8-11.4,9.5-14.6c1.5,7.5-0.5,14.9-0.6,22.4c2.3-5.1,5-9.8,9.7-12.3c-0.3,7.2-5.1,14.2-5.2,21.7
	c10.9-7.3,20.6-17.5,31.8-25.1c8.9-6.1,20.4-8.6,28.3-16c-5.4,8.3-11.4,18.2-13.3,28c9.9-3.8,16.6-3.2,26.4,0.7
	c-6.3,6.4-16.2,6.9-23.9,11.5c10.3,2.3,32.4,1.6,39.5,9.9c-7.4,0.5-23.6-0.9-24,8.7c8,1.9,21,0.4,22.1,11.6
	c-18.2,1.5-37.2,0.8-55.6,2c11.1,3.3,35.9,2.1,39.2,17.2c-26.6,3.6-52.9,2.4-79.5,3.8c9.5,7,20.8,15.5,28.9,24
	c-10.9,3.9-21.8,4.9-33.2,1.7c2.9,6.8,6.1,17.4-0.8,22.6c-1.4-3.1-4.9-5.5-6.6-8c-3.7,4.1-10.9,27.4-16,26.4
	c-6.6-1.2-3.3-29.3-3.9-34.2c-6.1,3.2-4.8,11.7-8.1,17.2C403.3,232.7,411.5,220.2,419.6,212.7z"/>
<path class="st4" d="M368.7,235.5c8.5-17.4,36.5-37.3,52.9-48.1c7.9-5.2,48.4-19.7,49-26.4c-10.2,5.7-23.3,7.3-34.6,11.5
	c-12.1,4.6-19.8,10.8-29.9,18.4c-7.5,5.6-45.8,39.8-42.3,42.5"/>
<path class="st5" d="M401.5,120.1c4-15,14.2-24.4,1.2-36.6c-9.3-8.8-15.7-8.7-20.2,4.7c-8.4,25.5-15.6,51.2-21.7,77.2
	c-2.5,10.8-6.6,21.9-10.6,32.9c-5,13.6-8.7,27.8-12,41.9c-5.5,22.9-10.8,44-15.8,67.1c-2.9,13.8-5.8,27.6-9.3,41.3
	c-11.2,43.2-28.1,84.8-39.9,127.8c-9,33-21.2,65.1-30.7,97.8c-5.1,17.6-13.5,39.1-13.4,57.2c7.3-9.4,19.1-23.2,32.8-20.1
	c9.2,2,13.9,11.6,19.3,18.6c18.5-34,22.8-80.4,30.2-118.1c7.9-40,13.8-80.6,21.9-120.3c11.2-54.3,23.5-110.3,39.2-162.3
	c7.2-24,11.2-49.2,18.9-73.3C395.4,144,398.3,131.8,401.5,120.1z"/>
<path class="st4" d="M363.2,156.6c-11.1-18-16-39.2-31.6-56.3c-10.5-11.5-25.7-26.2-40.5-27.3c17.5,11.4,34.6,24.8,43.9,43.7
	c8.6,17.3,17.1,38.2,25.7,54.4"/>
<path class="st1" d="M519,508.9c0.5-26.7-3.1-52.2-8.3-78.6c-5.9-30.1-11.3-64.4-44.8-76.4c-19.2-6.9-62.2-15.3-69.6-38.5
	c0,0-0.4-2-0.8-3.1c-0.7-4.1-2.5-14.8-2.5-14.8c-0.1-7,1.1-34.7,0.7-41.5c-0.5-9.7,7.2-24.7-5.8-27.3c-12.1-2.5-177.7-1.5-194.9-1.1
	c-16,0.3-22.8,2-25.2,12.2c-1,2.8-1.2,6.3-1.1,10c0,1,0,2,0,3.1l0.2,0.1c0.5,6.5,1.8,13.3,2,17.4c0.7,13.3,1.4,27.2,1.2,40.4
	c-0.2,11.4-3.7,21.8-10.4,31c-20.4,28.1-14.6,69.2-14.6,101.9c0,12.2,1.2,23.5,1.8,35.6c2.7,57.9-9.1,118.9,11.7,174.8
	c5,13.5,15.6,23.9,28,30.8c9.5,5.2,20.6,12.9,31.2,13.8c7.3,0.7,14.7,1.4,22.2,1.1c15.1-0.6,26.6-2.7,42.1-1.8
	c33,2.1,66.3,1,96.6-10.9c16.1-6.4,28-22.4,34.9-37.5c10.1-22.1,22.4-36.2,45.9-42.9c6.5-1.8,13.1-1,19.5-2.9
	c11.5-3.4,24.4-15.7,30-25.8C520.8,557.1,518.6,532.1,519,508.9z M486.5,545c-7.3,26-40.5,41.6-60.2,16.4
	c-9.6-12.2-9.8-30-10.5-44.8c-0.7-15.1-0.9-29.8-0.9-45c0-20.6-6.7-47.6,2.3-66.9c8.5-18.2,29.9-27.2,47-14.6
	c8.2,6,12.7,26.2,15.4,35.8c4.1,14.2,6.3,28.2,7.8,43C489.8,493.6,493.3,520.6,486.5,545z"/>
<g>
	<path d="M176.6,237.8c0,0,0,1.4,0.1,3.8c0,2.4,0,5.9-0.2,10.1c-0.1,4.2-0.3,9-0.3,14.2c0,2.6,0,5.3,0.2,8c0.1,2.7,0.4,5.4,0.8,8.2
		c0.4,2.7,0.8,5.5,1.3,8.2c0.5,2.7,0.9,5.4,1.4,7.9c0.4,2.6,0.8,5.1,1.2,7.5c0.3,2.4,0.6,4.7,0.8,6.8c0.2,2.1,0.3,4.1,0.3,5.8
		c0,1.7,0,3.3,0,4.5c0,1.3-0.1,2.3-0.2,2.9c-0.1,0.7-0.1,1-0.1,1c-0.1,1.4-1.3,2.4-2.7,2.3c-1.4-0.1-2.4-1.3-2.3-2.7
		c0,0,0-0.1,0-0.1l0-0.1c0,0,0-0.3,0.1-0.9c0.1-0.6,0.2-1.5,0.3-2.7c0.1-1.2,0.2-2.6,0.3-4.2c0-1.6,0-3.5,0-5.6
		c-0.1-2-0.2-4.3-0.4-6.6c-0.2-2.4-0.4-4.8-0.7-7.4c-0.3-2.6-0.6-5.3-0.9-8c-0.3-2.7-0.6-5.5-0.8-8.3c-0.2-2.8-0.3-5.6-0.3-8.4
		c0-2.8,0.1-5.5,0.3-8.1c0.3-5.2,0.8-10.1,1.1-14.2c0.4-4.2,0.6-7.6,0.7-10C176.6,239.2,176.6,237.8,176.6,237.8z"/>
</g>
<g>
	<path d="M385.5,237.8c0,0,0.1,0.6,0.2,1.8c0.1,1.2,0.3,2.9,0.5,5.2c0.1,1.1,0.2,2.4,0.2,3.7c0.1,1.3,0.1,2.8,0.2,4.3
		c0.1,3.1,0.1,6.6,0.1,10.4c-0.1,3.8-0.1,7.9-0.3,12.3c-0.2,4.3-0.7,8.9-1.1,13.7c-0.4,4.7-0.6,9.7-0.3,14.6c0.2,5,0.8,10,1.7,15
		c0.2,1.1,0.5,2.5,0.8,3.6c0.3,1.2,0.7,2.3,1.1,3.5c0.8,2.3,1.7,4.6,2.6,6.9c1.9,4.5,4,9,5.8,13.6c0.9,2.3,1.6,4.6,2.2,6.9
		c0.1,0.6,0.3,1.2,0.4,1.7l0.1,0.4l0.1,0.5l0.1,0.8c0.1,0.6,0.2,1.1,0.3,1.7c0.1,0.6,0.1,1.2,0.2,1.8c0.5,4.6,0.3,8.8,0.1,12.7
		c-0.3,3.9-0.7,7.4-1.1,10.4c-0.4,3.1-0.8,5.7-1.1,7.9c-0.6,4.4-1,6.9-1,6.9h-0.5c0,0-0.1-0.6-0.2-1.8c-0.1-1.2-0.3-2.9-0.3-5.2
		c-0.1-2.2-0.1-4.9-0.1-8c0-3.1,0-6.6-0.1-10.3c-0.1-3.7-0.2-7.8-0.8-11.9c-0.1-0.5-0.1-1-0.2-1.5c-0.1-0.5-0.2-1.1-0.3-1.6
		l-0.2-0.8l-0.1-0.3l-0.1-0.4c-0.1-0.5-0.2-1.1-0.4-1.6c-0.5-2.1-1.2-4.3-1.9-6.5c-1.5-4.4-3.3-8.9-5-13.7c-0.8-2.4-1.6-4.9-2.1-7.5
		c-0.2-1.3-0.5-2.6-0.6-3.9l-0.1-1l-0.1-1c0-0.7-0.1-1.2-0.1-1.9c-0.2-5.1-0.3-10.2-0.5-15.2c-0.1-5-0.5-9.9-0.8-14.7
		c-0.3-4.8-0.6-9.4-0.6-13.8c0-4.4,0.3-8.5,0.5-12.3c0.3-3.8,0.5-7.3,0.8-10.4c0.3-3.1,0.6-5.8,0.8-8c0.3-2.2,0.5-4,0.6-5.1
		c0.2-1.2,0.3-1.8,0.3-1.8L385.5,237.8z"/>
</g>
<g>
	<path d="M352,244.8c0,0-1.9,0.1-5.6,0.3c-3.6,0.2-9,0.5-15.8,0.7c-6.8,0.2-15.1,0.6-24.6,0.9c-9.5,0.3-20.2,0.6-31.9,0.8
		c-11.7,0.2-24.3,0.5-37.7,0.7c-13.4,0.3-27.5,0.7-42,1.5c-3.6,0.2-7.3,0.4-11,0.7c-1.8,0.1-3.7,0.2-5.5,0.4
		c-1.8,0.2-3.7,0.5-5.5,0.9c-1.8,0.4-3.6,0.8-5.4,1.4c-1.7,0.6-3.5,1.4-4.7,2.8c-0.5,0.7-0.7,1.6-0.5,2.4c0.3,0.8,0.9,1.5,1.5,2.2
		l0.5,0.5c0.1,0.1,0.4,0.3,0.6,0.4c0.4,0.2,0.8,0.4,1.2,0.5c0.9,0.2,1.8,0.3,2.8,0.4c3.8,0.2,7.6-0.3,11.5-0.6
		c3.9-0.1,7.7,0,11.6-0.1c7.7-0.1,15.5-0.3,23.3-1c7.8-0.8,15.5-1.2,23.3-1.5c7.7-0.4,15.5-0.8,23.1-1.2c15.3-0.7,30.4-1.2,45-1.7
		c14.6-0.5,28.7-0.9,42-1.3c6.7-0.3,13.2-0.5,19.5-0.8c1.6-0.1,3.1-0.1,4.7-0.2c1.7-0.1,3.2,0.1,4.7,0.3c3,0.3,6,0.5,8.9,0.7
		c2.9,0.1,5.7,0.2,8.5,0c2.7-0.2,5.4-0.6,7.6-1.8c1.1-0.6,1.9-1.5,2.2-2.5c0.2-0.5,0.2-1.1,0.2-1.7l0-0.2c0,0,0-0.1,0-0.2
		c0-0.2-0.1-0.3-0.1-0.4c-0.1-0.2-0.2-0.5-0.4-0.7c-0.7-0.9-1.7-1.5-2.8-1.9c-1.1-0.4-2.2-0.8-3.4-1c-4.6-1-9-1.2-13.1-1.3
		c-4.1-0.1-7.9,0-11.3,0.1c-6.8,0.3-12.1,0.7-15.8,1C353.9,244.6,352,244.8,352,244.8z M352,244.6c0,0,1.9-0.2,5.6-0.5
		c3.6-0.3,9-0.8,15.8-1.2c3.4-0.2,7.2-0.3,11.3-0.3c4.1,0,8.6,0.1,13.3,1c1.2,0.2,2.4,0.5,3.6,1c1.2,0.5,2.4,1,3.3,2.2
		c0.2,0.3,0.4,0.6,0.6,1c0.1,0.2,0.1,0.4,0.2,0.5c0,0.1,0,0.1,0.1,0.3l0,0.3c0.1,0.7,0.1,1.4-0.1,2.1c-0.4,1.4-1.5,2.6-2.7,3.3
		c-1.2,0.7-2.6,1.2-4,1.5c-1.4,0.3-2.8,0.5-4.2,0.7c-2.8,0.3-5.7,0.3-8.7,0.2c-2.9-0.1-5.9-0.3-8.9-0.6c-1.5-0.1-3-0.3-4.5-0.2
		c-1.5,0.1-3.1,0.2-4.7,0.3c-6.3,0.4-12.8,0.6-19.5,0.9c-13.4,0.5-27.5,1-42.1,1.4c-14.6,0.4-29.7,0.8-45,1.4
		c-7.7,0.3-15.4,0.6-23.1,0.9c-7.7,0.3-15.5,0.6-23.3,1.2c-7.8,0.6-15.6,0.7-23.3,0.6c-3.9,0-7.8-0.1-11.6,0
		c-3.8,0.2-7.7,0.7-11.5,0.5c-1-0.1-1.9-0.2-2.9-0.4c-0.5-0.1-1-0.3-1.4-0.6c-0.2-0.1-0.4-0.2-0.6-0.4l-0.5-0.5
		c-0.7-0.7-1.4-1.5-1.7-2.4c-0.4-1-0.1-2.2,0.6-3c0.6-0.8,1.5-1.4,2.3-1.8c0.9-0.5,1.7-0.8,2.6-1.2c1.8-0.6,3.6-1.1,5.5-1.5
		c1.8-0.4,3.7-0.7,5.6-0.9c1.9-0.2,3.7-0.3,5.6-0.5c3.7-0.3,7.4-0.7,11-0.9c14.6-1.1,28.7-1.8,42-2.1c6.7-0.2,13.2-0.4,19.5-0.4
		c6.3,0,12.4-0.1,18.2-0.1c11.7,0,22.4-0.1,31.9-0.1c9.5-0.1,17.8-0.1,24.6-0.4c6.8-0.2,12.2-0.4,15.8-0.6
		C350.1,244.7,352,244.6,352,244.6z"/>
</g>
<g>
	<path d="M239.5,300.3c7.1,0.3,14.1,1.2,21.2,1.6c3.5,0.2,7.1,0.3,10.6,0.2c3.5-0.1,7.1-0.4,10.6-0.6l21.2-1.2
		c7.1-0.4,14.2-0.7,21.3-0.9c7.1-0.2,14.2-0.5,21.3-0.5c7.1-0.1,14.2-0.1,21.3,0l21.3,0.2l5.3,0c1.8,0,3.5,0,5.2-0.3
		c1.7-0.3,3.3-0.9,4.4-2.1c1.1-1.2,1.6-2.9,1.6-4.6l0,0.1c-0.2-1.2-1-2.1-2.2-2.5c-1.1-0.4-2.4-0.3-3.7-0.3c-2.5,0.2-5.1,0.7-7.6,1
		c-5.2,0.5-10.3,0.1-15.4-0.3c-5.1-0.4-10.2-0.9-15.3-0.9c-2.5,0-5.1,0.2-7.7,0.3l-7.7,0.3c-10.3,0.4-20.5,0.6-30.8,0.7
		c-5.1,0-10.3,0.1-15.4,0.1c-5.1,0-10.3-0.1-15.4-0.2c-10.3-0.3-20.5-0.9-30.8-1.3c-5.1-0.2-10.2-0.4-15.4-0.5
		c-5.1-0.1-10.2-0.2-15.3-0.1c-5.1,0-10.2,0.2-15.3,0.4c-5.1,0.3-10.3,0.4-15.4,0.6c-5.1,0.1-10.2,0.3-15.3,0.6
		c-2.5,0.1-5.1,0.3-7.6,0.6c-1.2,0.2-2.5,0.4-3.7,0.7c-0.6,0.1-1.1,0.4-1.6,0.6c-0.2,0.1-0.4,0.3-0.6,0.4c-0.1,0.1-0.1,0.2-0.2,0.2
		l0,0.2c-0.3,1.2-0.3,2.5,0,3.8l0-0.1c0.2,0.5,0.6,1,1.2,1.3c0.6,0.4,1.3,0.6,2.1,0.9c1.5,0.5,3.1,0.8,4.7,1
		c3.2,0.5,6.5,0.7,9.8,0.9l9.9,0.6c1.6,0.1,3.3,0.1,4.9,0.2c1.6,0,3.3,0,4.9,0c6.6-0.1,13.2-0.4,19.7-0.7c3.3-0.1,6.6-0.3,9.9-0.3
		c1.6,0,3.3,0,4.9,0C236.2,300.2,237.8,300.3,239.5,300.3z M239.5,300.5c-1.6,0-3.3-0.1-4.9-0.1c-1.6,0-3.3,0-4.9,0
		c-3.3,0.1-6.6,0.2-9.9,0.4c-6.6,0.3-13.1,0.9-19.7,1.1c-1.6,0-3.3,0.1-4.9,0.1c-1.6,0-3.3,0-5,0l-9.9-0.3c-3.3-0.1-6.6-0.3-9.9-0.6
		c-1.7-0.2-3.3-0.4-5-0.9c-0.8-0.2-1.7-0.5-2.5-1c-0.8-0.4-1.6-1.2-2-2.2l0,0l0-0.1c-0.3-1.5-0.3-3,0-4.5l0,0.2
		c0-0.6,0.3-1.1,0.6-1.5c0.3-0.3,0.7-0.5,1-0.7c0.7-0.3,1.3-0.6,2-0.7c1.3-0.4,2.6-0.6,3.9-0.8c2.6-0.4,5.2-0.6,7.7-0.8
		c5.1-0.3,10.3-0.5,15.4-0.6c5.1-0.2,10.2-0.3,15.3-0.6c5.1-0.3,10.3-0.4,15.4-0.5c5.1-0.1,10.3,0,15.4,0.2
		c5.1,0.2,10.3,0.4,15.4,0.6c10.3,0.5,20.5,1.1,30.7,1.5c5.1,0.2,10.2,0.4,15.4,0.4c5.1,0.1,10.3,0.1,15.4,0.1
		c10.3,0,20.5,0,30.8-0.3c2.6-0.1,5.1-0.1,7.7-0.2c2.6-0.1,5.1-0.3,7.7-0.2c5.2,0,10.3,0.6,15.4,1c5.1,0.4,10.2,0.7,15.3,0.2
		c2.5-0.3,5-0.8,7.6-1c1.3-0.1,2.6-0.2,4,0.3c0.7,0.2,1.3,0.6,1.8,1.1c0.2,0.3,0.4,0.6,0.6,0.9l0.4,1l0,0l0,0.1
		c0,1.8-0.5,3.8-1.8,5.2c-0.3,0.4-0.7,0.7-1.1,1c-0.4,0.2-0.8,0.5-1.2,0.7c-0.8,0.4-1.8,0.6-2.6,0.8c-1.8,0.3-3.6,0.4-5.4,0.4
		l-5.3,0.1l-21.3,0.2c-7.1,0-14.2,0-21.3,0.2l-21.2,0.4l-21.2,0.6l-21.3,0.7c-3.5,0.1-7.1,0.3-10.6,0.4c-3.6,0-7.1-0.1-10.6-0.4
		C253.6,301.8,246.5,300.9,239.5,300.5z"/>
</g>
<g>
	<path d="M159.3,375.1c0,0,0.2,0.1,0.6,0.4c0.4,0.2,1,0.4,1.8,0.6c1.6,0.4,4.1,0.5,7.2,0.5c1.6,0,3.3,0,5.2,0.1
		c1.9,0.1,3.9,0.1,6.1,0.1c4.3-0.1,9.2-0.5,14.6-1c5.3-0.6,11.1-1.3,17.3-1.8c6.2-0.4,12.6-0.8,19.4-1.1c6.7-0.3,13.7-0.6,20.7-0.8
		c7.1-0.2,14.2-0.3,21.4-0.4c7.2-0.1,14.3,0,21.4,0.1c7.1,0.1,14,0.4,20.7,0.5c6.7,0.2,13.2,0.4,19.3,0.5c6.1,0.1,12,0.1,17.3,0.1
		c2.7,0,5.3-0.1,7.7-0.2c2.4-0.1,4.8-0.2,6.9-0.3c2.2-0.1,4.2-0.3,6.1-0.4c0.9-0.1,1.8-0.1,2.7-0.2c0.9-0.1,1.7-0.2,2.5-0.3
		c1.6-0.2,2.9-0.3,4.2-0.5c1.2-0.2,2.2-0.3,3.1-0.4c1.7-0.2,2.6-0.3,2.6-0.3s-0.9,0.2-2.5,0.5c-0.8,0.2-1.8,0.4-3,0.6
		c-1.2,0.2-2.6,0.4-4.1,0.7c-0.8,0.1-1.6,0.2-2.5,0.4c-0.9,0.1-1.8,0.2-2.7,0.3c-1.9,0.2-3.9,0.5-6.1,0.7c-2.2,0.2-4.5,0.4-6.9,0.6
		c-2.4,0.2-5,0.3-7.7,0.5c-2.7,0.2-5.5,0.2-8.4,0.3c-2.9,0.1-5.9,0.1-9,0.1c-6.2,0.1-12.7,0-19.4-0.1c-6.7-0.1-13.6-0.2-20.7-0.3
		c-7-0.1-14.2-0.1-21.4,0c-7.2,0-14.3,0.2-21.4,0.3c-7,0.2-14,0.4-20.7,0.5c-6.7,0.2-13.2,0.4-19.3,0.6c-6.1,0.3-11.9,0.9-17.3,1.3
		c-5.4,0.4-10.3,0.5-14.7,0.4c-2.2-0.1-4.2-0.2-6.1-0.4c-1.9-0.2-3.6-0.3-5.2-0.4c-3.1-0.2-5.6-0.5-7.2-0.9
		c-0.8-0.2-1.4-0.5-1.8-0.7C159.4,375.2,159.3,375.1,159.3,375.1z"/>
</g>
<g>
	<path d="M350.3,347c0,0,0.3,0,1,0c0.6,0,1.6,0,2.8,0.1c2.5,0.1,6.1,0.3,10.7,1.2c2.3,0.5,4.8,1.1,7.4,2.1c2.6,1,5.4,2.3,8,4.4
		c0.3,0.3,0.6,0.5,1,0.8c0.3,0.3,0.6,0.6,0.9,0.9c0.3,0.3,0.6,0.6,0.9,0.9c0.3,0.3,0.5,0.7,0.8,1c1.1,1.4,1.9,3.1,2.6,4.8
		c1.4,3.4,2.3,7.2,2.9,11.2c1.2,8,1.1,16.7,0.8,25.7c-0.1,4.6-0.2,9.2-0.2,13.9c0,4.8,0,9.7,0,14.6c-0.1,9.9-0.2,20.2-0.4,30.6
		c-0.1,10.4-0.1,21,0.3,31.5c0.1,5.3,0.4,10.5,0.7,15.8c0.2,2.6,0.4,5.2,0.6,7.8c0.1,1.3,0.2,2.6,0.3,3.9c0.1,1.3,0.2,2.6,0.2,3.9
		c0.6,10.4,0.6,20.7,0.6,30.7c-0.1,9.9-0.4,19.5-0.6,28.6c-0.1,4.5-0.1,9-0.2,13.2c-0.1,4.3-0.4,8.5-0.8,12.4
		c-0.8,7.9-2.3,15.1-3.9,21.4c-1.6,6.3-3.5,11.6-5.8,15.7c-2.2,4.1-4.5,7-6,8.9c-0.8,1-1.4,1.7-1.8,2.2c-0.4,0.5-0.6,0.7-0.6,0.7
		s0.2-0.3,0.6-0.8c0.4-0.5,1-1.3,1.7-2.3c1.4-2,3.6-5,5.6-9.1c2.1-4.1,3.8-9.4,5.2-15.7c1.4-6.3,2.6-13.4,3.3-21.3
		c0.3-3.9,0.5-8,0.5-12.3c0-4.3,0-8.7-0.1-13.2c0-9.1,0.1-18.7,0.1-28.6c0-9.9-0.2-20.1-0.8-30.5c-0.1-1.3-0.2-2.6-0.3-3.9
		c-0.1-1.3-0.2-2.6-0.3-3.9c-0.2-2.6-0.4-5.2-0.6-7.9c-0.3-5.3-0.6-10.6-0.8-15.9c-0.3-10.6-0.3-21.2-0.2-31.6
		c0.1-10.4,0.4-20.7,0.6-30.6c0.1-5,0.2-9.8,0.2-14.6c0-4.8,0.2-9.5,0.4-14c0.4-9.1,0.7-17.6-0.3-25.4c-0.5-3.9-1.4-7.5-2.6-10.9
		c-0.2-0.4-0.3-0.8-0.5-1.3l-0.2-0.6l-0.3-0.5c-0.4-0.7-0.7-1.5-1.3-2.1c-0.2-0.3-0.5-0.7-0.7-1c-0.2-0.3-0.5-0.6-0.8-0.9
		c-0.3-0.3-0.6-0.6-0.8-0.9c-0.3-0.3-0.6-0.5-0.9-0.8c-2.4-2-5.1-3.4-7.6-4.5c-2.6-1.1-5-1.7-7.2-2.3c-4.5-1-8.1-1.4-10.6-1.6
		c-1.2-0.1-2.2-0.2-2.8-0.2C350.7,347,350.3,347,350.3,347z"/>
</g>
<g>
	<path d="M196.3,349.7c0,0-0.5,0.1-1.5,0.2c-1,0.1-2.5,0.3-4.4,0.7c-1.9,0.3-4.3,0.8-7,1.6c-2.7,0.8-5.8,1.8-9.1,3.4
		c-0.8,0.4-1.7,0.8-2.4,1.3c-0.4,0.2-0.8,0.5-1.2,0.8c-0.4,0.3-0.8,0.6-1.2,0.9c-0.8,0.6-1.6,1.3-2.4,2c-0.4,0.3-0.7,0.8-1.1,1.1
		c-0.4,0.4-0.8,0.8-1.1,1.2c-0.3,0.4-0.6,0.9-1,1.3c-0.3,0.4-0.6,1-0.9,1.4l-0.4,0.7c-0.1,0.2-0.2,0.5-0.3,0.8
		c-0.2,0.5-0.5,1.1-0.7,1.6c-0.8,2.2-1.1,4.6-1.2,7.1c-0.1,5,0.9,10.4,2,16c0.6,2.8,1.1,5.7,1.5,8.7c0.3,3,0.6,6.1,0.8,9.2
		c0.9,12.6,0.7,26.2,0.4,40.6c-0.1,7.2-0.2,14.6-0.4,22.2c-0.2,7.6-0.6,15.3-0.9,23.1c-0.8,15.7-1.6,31.9-2.4,48.4
		c-0.7,16.4-1.1,33.2,0.6,49.7c0.8,8.3,2.2,16.5,4.2,24.5l0.8,3l0.9,3l0.9,2.9c0.3,0.9,0.7,1.9,1,2.9c1.4,3.8,3,7.6,4.9,11.2
		c3.8,7.2,8.6,13.7,14.3,19.2c2.9,2.7,6,5.2,9.2,7.3c0.8,0.5,1.7,1.1,2.5,1.6l2.5,1.4c0.8,0.5,1.7,0.8,2.6,1.2
		c0.9,0.4,1.7,0.8,2.7,1.1c7.2,2.9,14.7,4.3,22.1,5.3c7.4,0.9,14.8,1.4,22,2.1c7.2,0.7,14.1,1.7,20.8,2.7c6.7,1,13.2,1.8,19.4,2.3
		c1.5,0.1,3.1,0.2,4.6,0.3c1.5,0,3.1,0,4.6,0.1c1.5,0,3-0.1,4.4-0.1c1.5-0.1,2.9-0.2,4.3-0.3c5.7-0.5,11-1.2,16-2.2
		c10-2,18.5-4.6,25.2-7.5c6.7-2.9,11.8-5.7,15-8c0.8-0.5,1.5-1,2.1-1.5c0.6-0.5,1.1-0.9,1.5-1.2c0.8-0.6,1.2-1,1.2-1s-0.4,0.3-1.2,1
		c-0.4,0.3-0.9,0.7-1.5,1.2c-0.6,0.5-1.3,1-2.1,1.6c-3.1,2.4-8.1,5.4-14.8,8.4c-6.7,3-15.2,5.8-25.2,8c-5,1-10.4,2-16.1,2.5
		c-1.4,0.1-2.9,0.2-4.4,0.4c-1.5,0.1-3,0.1-4.5,0.2c-1.5,0-3,0-4.6,0c-1.6-0.1-3.1-0.1-4.7-0.2c-6.3-0.4-12.8-1.2-19.5-2.1
		c-6.7-0.9-13.6-1.9-20.8-2.4c-7.1-0.6-14.5-1-22.1-1.8c-7.6-0.9-15.3-2.3-22.8-5.3c-0.9-0.3-1.9-0.8-2.8-1.2
		c-0.9-0.4-1.8-0.8-2.7-1.3c-0.9-0.5-1.8-1-2.7-1.4c-0.9-0.5-1.7-1-2.6-1.6c-3.5-2.2-6.7-4.7-9.7-7.5c-6-5.7-11-12.5-14.9-19.9
		c-2-3.7-3.7-7.5-5.1-11.5c-0.3-1-0.7-1.9-1-3l-0.9-3l-0.9-3l-0.8-3.1c-2.1-8.2-3.5-16.5-4.4-24.9c-1.7-16.8-1.2-33.7-0.4-50.2
		c0.9-16.5,1.8-32.7,2.6-48.4c0.4-7.8,0.8-15.5,1.1-23.1c0.3-7.5,0.5-14.9,0.7-22.1c0.4-14.4,0.8-28,0.1-40.5
		c-0.2-3.1-0.4-6.2-0.7-9.2c-0.3-2.9-0.8-5.8-1.3-8.6c-1-5.6-2-11.1-1.7-16.3c0.1-2.6,0.5-5.1,1.4-7.4c0.2-0.6,0.5-1.1,0.7-1.6
		c0.1-0.3,0.2-0.5,0.4-0.8l0.5-0.8c0.3-0.5,0.6-1,0.9-1.5c0.3-0.5,0.7-0.9,1-1.4c0.3-0.5,0.7-0.8,1.1-1.2c0.4-0.4,0.7-0.8,1.2-1.2
		c0.8-0.7,1.6-1.4,2.5-2c0.4-0.3,0.8-0.6,1.2-0.9c0.4-0.3,0.9-0.5,1.3-0.7c0.8-0.5,1.7-0.9,2.5-1.3c3.3-1.6,6.5-2.5,9.3-3.2
		c2.8-0.7,5.2-1.1,7.1-1.4c1.9-0.3,3.4-0.5,4.4-0.6C195.8,349.8,196.3,349.7,196.3,349.7z"/>
</g>
</svg>
