<?xml version="1.0" encoding="utf-8"?>
<!-- Generator: Adobe Illustrator 19.2.0, SVG Export Plug-In . SVG Version: 6.00 Build 0)  -->
<svg version="1.1" id="Layer_1" xmlns="http://www.w3.org/2000/svg" xmlns:xlink="http://www.w3.org/1999/xlink" x="0px" y="0px"
	 viewBox="0 0 460 645" style="enable-background:new 0 0 460 645;" xml:space="preserve">
<style type="text/css">
	.st0{fill:none;stroke:#000000;stroke-width:5;stroke-miterlimit:10;}
	.st1{opacity:0.9;fill:url(#SVGID_1_);enable-background:new    ;}
	.st2{fill:#C90606;}
	.st3{fill:none;}
	.st4{fill:none;stroke:#000000;stroke-width:2;stroke-miterlimit:10;}
	.st5{fill:none;stroke:#000000;stroke-width:3;stroke-miterlimit:10;}
</style>
<path class="st0" d="M6588.6-625.6c0.3,38.5,0.2,82.4-5.7,120.5c-2.3,14.7-3.7,31.7-10.6,44.9c-9.4,17.9-18.6,35.9-34,49.5
	c-5.5,4.9-11.5,9.2-17.9,12.8c-4.2,2.3-15.3,5.1-15.9,10.8c-0.4,3.6,3.8,5.7,6.9,7.6c6.9,4.3,10.9,12.3,11.6,20.4
	c1.5,15.4-5.6,30.7-18.9,38.8c-0.8,0.5-1.6,1-1.9,1.8c-0.7,2.1,2.1,3.4,4.2,3.8c12.1,2.1,24,5,35.7,8.7c7.7,2.4,24.3,10.6,12,18.5
	c-7.7,4.9-17,6.2-26,7.3c-24.7,3.1-49.7,6.2-74.5,3.9c-5.6-0.5-11.2-1.4-16.8-2.2l-22.5-3.3c-5.3-0.8-11.8-2.7-12.7-7.9
	c-1.7-10.2,16.6-15.1,23.6-17.2c4.9-1.5,36.5-4.6,35.6-9.3c-0.5-2.4-2.8-3.9-4.8-5.4c-8.9-6.4-15-16.4-16.6-27.2
	c-1.6-10.8,1.3-22.2,7.9-30.9c2.2-2.9,4.9-6,4.4-9.6c-0.2-1.5-1-2.9-2-4.1c-5.1-6.7-15.9-9.5-22.8-14.7c-7.9-6-15.2-12.8-21.6-20.4
	c-12.5-14.5-22.1-31.5-27.6-49.9c-5.2-17.2-6.9-35.3-8.2-53.2c-2.3-31-3.6-62-3.8-93.1c20.2-2.4,42-1.8,62.4-1.4
	C6480.9-625,6588.6-627.7,6588.6-625.6L6588.6-625.6z"/>
<path d="M6462-310.7v1.9c0,0.6,0.1,1.3,0.6,1.9c0.4,0.6,1.2,0.8,2.2,0.8c2.1-0.1,4.5-0.2,7.1-0.2c1.3,0,2.7-0.1,4-0.1
	c1.4-0.1,2.8-0.1,4.1-0.2c1.4-0.1,2.8-0.1,4.1-0.2c1.4-0.1,2.7-0.1,4-0.2c2.6-0.1,5-0.2,7.1-0.3c2-0.1,3.7-0.6,4.6-1.3
	c0.4-0.4,0.7-0.8,0.8-1.1c0.1-0.3,0.2-0.5,0.2-0.5v0.5c-0.1,0.3-0.2,0.8-0.6,1.3s-1.1,1-1.9,1.4c-0.8,0.4-1.8,0.7-2.8,0.8
	c-2.1,0.4-4.5,0.7-7.1,0.9c-1.3,0.1-2.7,0.3-4,0.4c-1.4,0.1-2.8,0.2-4.2,0.2c-1.4,0-2.8,0.1-4.2,0.1h-4.1c-2.6-0.1-5.1-0.2-7.2-0.4
	c-0.5-0.1-1.1-0.1-1.6-0.4s-0.9-0.7-1.1-1.1c-0.4-0.9-0.4-1.7-0.3-2.3s0.2-1.1,0.3-1.4C6461.9-310.5,6462-310.7,6462-310.7
	L6462-310.7z M6461.6-395.3c0,0,0.6,0.2,1.6,0.5c0.5,0.2,1.2,0.3,1.9,0.5s1.6,0.4,2.4,0.5c0.9,0.2,1.9,0.3,2.9,0.5
	c1,0.1,2.1,0.2,3.3,0.3c1.1,0.1,2.3,0.1,3.5,0.2h3.6c1.2,0,2.5,0,3.7-0.1c1.2,0,2.4-0.1,3.6-0.1c2.3-0.1,4.5-0.1,6.3-0.3
	c1.8-0.2,3.2-0.6,4.1-1.2c0.4-0.3,0.8-0.6,1-0.8l0.3-0.3c0,0-0.1,0.1-0.2,0.4c-0.2,0.3-0.4,0.6-0.8,1c-0.8,0.8-2.3,1.6-4.2,2
	c-0.9,0.2-2,0.4-3,0.5c-1.1,0.1-2.2,0.3-3.3,0.4l-3.6,0.3c-1.2,0.1-2.5,0.1-3.7,0.2c-1.3,0-2.5,0-3.7-0.1c-0.6,0-1.2-0.1-1.8-0.1
	c-0.6-0.1-1.2-0.1-1.8-0.2c-1.2-0.1-2.3-0.4-3.4-0.6c-0.5-0.1-1-0.3-1.5-0.4c-0.5-0.2-1-0.3-1.4-0.4c-1.8-0.6-3.2-1.3-4.2-1.8
	C6462.2-395,6461.6-395.3,6461.6-395.3L6461.6-395.3z M6411.5-293.2l0.3,0.3c0.2,0.2,0.5,0.4,1,0.6c0.9,0.5,2.3,1,4.2,1.4
	c1.9,0.4,4.2,0.7,6.8,1.1c2.6,0.4,5.6,0.7,8.9,1.1c3.3,0.3,6.8,0.7,10.6,1c3.7,0.3,7.7,0.5,11.8,0.7c8.2,0.3,17,0.5,25.7,0.6
	c4.4,0.1,8.8,0.1,13.1,0.2c4.3,0,8.5,0.1,12.6,0s8-0.4,11.7-0.8c3.7-0.5,7.2-1.1,10.4-1.7c6.4-1.4,11.6-3,15.2-4.3
	c1.8-0.7,3.2-1.2,4.2-1.6l1.5-0.6c0,0-0.5,0.2-1.4,0.7c-0.9,0.4-2.3,1.1-4.1,1.8c-3.5,1.5-8.7,3.5-15.1,5.1
	c-6.4,1.6-14.1,2.9-22.3,3.2c-4.1,0.2-8.4,0.2-12.7,0.2c-4.3,0-8.7-0.1-13.1-0.1c-4.4-0.1-8.8-0.2-13.1-0.3
	c-4.3-0.1-8.6-0.4-12.7-0.6c-4.1-0.3-8.1-0.6-11.8-1c-3.8-0.4-7.3-0.8-10.6-1.3c-1.6-0.3-3.2-0.5-4.7-0.7c-1.5-0.3-2.9-0.5-4.2-0.8
	c-2.6-0.5-4.9-1-6.8-1.5s-3.3-1.1-4.1-1.7c-0.4-0.3-0.7-0.5-0.9-0.7C6411.6-293.1,6411.5-293.2,6411.5-293.2L6411.5-293.2z"/>
<linearGradient id="SVGID_1_" gradientUnits="userSpaceOnUse" x1="6378.7998" y1="1596.7887" x2="6584.7002" y2="1596.7887" gradientTransform="matrix(1 0 0 -1 0 1093)">
	<stop  offset="1.800000e-02" style="stop-color:#801FE3"/>
	<stop  offset="1" style="stop-color:#B7A7FF"/>
</linearGradient>
<path class="st1" d="M6378.8-597.4c1.4,24.4,2.7,48.8,4.1,73.2c0.4,7.9,0.9,15.9,2.2,23.7c1.8,11.1,5.4,21.8,8.9,32.5
	c3,9.1,6,18.2,11.1,26.3c17.8,28.1,51.5,32.7,81.9,31.3c10.6-0.5,21.3-1.5,31.5-4.7c66.9-21.3,65.2-117,66.1-172.7
	c0-2.6,0.1-5.1,0.1-7.7C6516-593.3,6447.2-591.5,6378.8-597.4L6378.8-597.4z"/>
<path d="M6373.7-617.1c0,0,0.6,8.1,1.5,22.2c0.5,7.1,1,15.6,1.7,25.5c0.6,9.8,1.4,20.9,2.1,33.1c0.4,6.1,0.7,12.4,1.3,18.9
	c0.5,6.5,1.4,13.2,3,19.9c1.6,6.7,3.7,13.5,6,20.4c2.4,6.9,4.5,14,7.5,20.9c0.8,1.7,1.5,3.4,2.4,5.1c0.9,1.6,1.8,3.3,2.8,4.8
	c1.1,1.6,2.2,3.1,3.4,4.7c1.2,1.4,2.5,2.8,3.7,4.3c5.3,5.5,11.7,10,18.8,13.2c7.1,3.3,14.8,5.4,22.6,6.6c7.9,1.3,15.9,1.7,23.9,1.7
	c8-0.1,16.1-0.4,24-1.5c3.9-0.5,7.9-1.2,11.7-2.2c1-0.3,1.9-0.5,2.8-0.8l0.7-0.2h0.1l0.2-0.1l0.4-0.1l1.4-0.5l2.8-1
	c0.5-0.2,0.9-0.3,1.4-0.5l1.3-0.6c7.1-3.1,13.7-7.4,19.4-12.5c5.7-5.1,10.5-11.1,14.4-17.5c4-6.3,7.1-13.1,9.7-19.8
	c2.6-6.8,4.6-13.6,6.3-20.3c3.2-13.5,5-26.5,6.2-38.5c1.1-12.1,1.7-23.2,2-33c0.3-9.9,0.5-18.4,0.7-25.5c0.2-14.2,0.4-22.2,0.4-22.2
	s0,2,0.1,5.8c0,3.8,0.1,9.4,0.2,16.4c0,7.1,0,15.7-0.2,25.5c-0.1,9.9-0.5,21-1.5,33.1c-1,12.1-2.6,25.2-5.7,38.9
	c-1.6,6.8-3.6,13.7-6.1,20.6s-5.7,13.8-9.8,20.3c-4,6.5-9,12.7-14.8,18.1c-5.9,5.4-12.7,9.8-20.2,13.1l-1.4,0.6
	c-0.5,0.2-0.9,0.4-1.4,0.5l-2.8,1l-1.4,0.5l-0.4,0.1l-0.2,0.1l-0.2,0.1l-0.7,0.2c-1,0.3-2,0.6-2.9,0.8c-3.9,1-8,1.8-12,2.4
	c-8.1,1.1-16.2,1.5-24.4,1.6c-8.2,0-16.3-0.5-24.4-1.8c-8-1.3-16-3.5-23.3-7c-7.4-3.4-14.1-8.1-19.6-13.9c-1.3-1.5-2.6-3.1-3.9-4.6
	c-1.1-1.6-2.2-3.2-3.3-4.7c-2.2-3.4-3.9-6.8-5.4-10.4c-3-7.1-5.2-14.2-7.5-21.2c-2.2-7-4.3-13.9-5.8-20.7
	c-1.6-6.9-2.4-13.6-2.8-20.2c-0.5-6.6-0.7-12.9-1-18.9c-0.6-12.1-1.1-23.2-1.6-33.1c-0.5-9.9-0.8-18.4-1.2-25.5
	C6374-609.1,6373.7-617.1,6373.7-617.1L6373.7-617.1z"/>
<path d="M6374.1-601.7c0,0,0.8,0,2.4,0.1s3.8,0.2,6.7,0.3c2.9,0.2,6.4,0.3,10.5,0.5c4,0.2,8.6,0.3,13.6,0.5s10.4,0.3,16.1,0.5
	s11.7,0.2,17.9,0.4c6.2,0.1,12.6,0.1,19.2,0.2c6.5,0.1,13.2,0,19.8,0.1c6.6,0,13.3,0,19.8-0.1s13-0.1,19.2-0.2
	c12.5-0.1,24.1-0.2,34-0.3c10-0.1,18.3-0.1,24.1-0.1h9.1c0,0-0.8,0.1-2.4,0.2c-1.6,0.1-3.8,0.2-6.7,0.4c-5.8,0.3-14.1,0.8-24.1,1.3
	s-21.6,0.9-34,1.3c-6.2,0.1-12.7,0.4-19.2,0.4c-6.5,0.1-13.2,0.1-19.8,0.2c-6.6,0-13.3,0-19.8-0.2c-6.5-0.1-13-0.3-19.2-0.4
	c-6.2-0.2-12.3-0.4-18-0.8c-2.9-0.2-5.6-0.3-8.3-0.5c-2.7-0.2-5.3-0.4-7.8-0.5c-2.5-0.2-4.9-0.3-7.1-0.5c-2.3-0.2-4.4-0.4-6.4-0.6
	c-4-0.4-7.6-0.7-10.4-1c-2.9-0.3-5.2-0.6-6.7-0.7C6374.9-601.6,6374.1-601.7,6374.1-601.7L6374.1-601.7z"/>
<path class="st2" d="M111.9,321.6c23.3-1.1,46.7-1.8,70.2-1.8c32.9,0,71.5,3.1,103.1-2.8c-0.4,0,1.2,83,0.5,137.5
	c-0.4,30.7,5.5,31.8,1.3,99c-1.6,25.6-8,57.4-34,68.8c-24.3,10.6-57.1,13.8-83.4,10.9c-25-2.8-58.7-8.5-80.5-21.4
	c-4.9-2.9-9.6-5.3-13.6-9.6c-10.3-11-13.1-32.7-15-46.8c-2.1-15.2-0.2-31.3-1.8-46.6c-2-19.3-1.7-38.8-0.9-58.4
	c0.8-20.5,0.5-40.7,2.5-60.9c0.7-7.4,2.7-16.9,1.7-24.3c-1.1-7.8-4-35.4-5.4-43.3c2.2,2,11.2,1.7,14,1.9c4.7,0.4,9.5,0.4,14.2,0.1
	C93.8,323.3,102.8,322,111.9,321.6L111.9,321.6z"/>
<path class="st3" d="M106.7,316.4c23.3-1.1,46.7-1.8,70.2-1.8c32.9,0,71.5,3.1,103.1-2.8c-0.4,0,1.2,83,0.5,137.5
	c-0.4,30.7,5.5,31.8,1.3,99c-1.6,25.6-8,57.4-34,68.8c-24.3,10.6-57.1,13.8-83.4,10.9c-25-2.8-58.7-8.5-80.5-21.4
	c-4.9-2.9-9.6-5.3-13.6-9.6c-10.3-11-13.1-32.7-15-46.8c-2.1-15.2-0.2-31.3-1.8-46.6c-2-19.3-1.7-38.8-0.9-58.4
	c0.8-20.5,0.5-40.7,2.5-60.9c0.7-7.4,2.7-16.9,1.7-24.3c-1.1-7.8-4-35.4-5.4-43.3c2.2,2,11.2,1.7,14,1.9c4.7,0.4,9.5,0.4,14.2,0.1
	C88.6,318.1,97.6,316.8,106.7,316.4L106.7,316.4z"/>
<path class="st4" d="M214.1,19.4c-3.7,1.4-7.4,4.1-11.3,5.3c-1-4.2-0.6-8.8-0.1-12.9c-4.7-0.5-9.8,1.4-13.8,3.2
	c-2.1-14.5-7.3-8.6-17.1-3.5c0.1-1.7-0.8-3.9-0.8-5.6c-21.7-7.8-2.6,17.5-1.2,23.7c-12.4-4.9-53.9-17.5-63.3-5.7
	c5.8,3.8,14.7,3.7,19.9,9c-8.2,0.3-17.1,5-20,12.6c1.9-0.4,3.9-0.4,5.8-0.8c-4.4,10.6-16,19.4-23.4,28.3c4.7-0.3,8.8-3.1,12.7-5.6
	c0.5,10.1,5.4,21.1,15.4,10c-1.1,2.3-1.1,5.3-1.6,6.9c3.6-2.2,7.2-5.7,10.8-7.9c2.6,7.5,23.9-8.2,33-8.5
	c-2,19.5-22.6,36.2-22.7,56.3c8.6-4.9,12-17.8,23.1-19.3c-0.3,3.3,1.5,7.3,1.1,10.6c3.1-1.9,5.6-6.2,8.5-8.9
	c1.5,4.8,2.4,9.5,6.8,11.2c0.7-2.2,2.6-4,3.4-6c3.2,1.5,5.8,4.9,6.9,8.8c0.7,0,2-0.8,2.2-0.8c-0.3,3.5,1.2,7.9,1.6,10.2
	c-0.8-5.3-3.6-23.6-0.1-28.2c2.1-2.7,19.4-4.7,19.4-3.3c0.1-16.3-6.7-32.8-5.4-48.9C204.3,44.2,208.1,21.6,214.1,19.4L214.1,19.4z"
	/>
<path class="st4" d="M267.8,137.7c8.5-17.4,36.5-37.3,52.9-48.1c7.9-5.2,48.4-19.7,49-26.4c-10.2,5.7-23.3,7.3-34.6,11.5
	c-12.1,4.6-19.8,10.8-29.9,18.4c-7.5,5.6-45.8,39.8-42.3,42.5"/>
<path class="st5" d="M293.5,62.2c4-15,14.2-24.4,1.2-36.6c-9.3-8.8-15.7-8.7-20.2,4.7c-8.4,25.5-15.6,51.2-21.7,77.2
	c-2.5,10.8-6.6,21.9-10.6,32.9c-5,13.6-8.7,27.8-12,41.9c-5.5,22.9-10.8,44-15.8,67.1c-2.9,13.8-5.8,27.6-9.3,41.3
	c-11.2,43.2-28.1,84.8-39.9,127.8c-9,33-21.2,65.1-30.7,97.8c-5.1,17.6-13.5,39.1-13.4,57.2c7.3-9.4,19.1-23.2,32.8-20.1
	c9.2,2,13.9,11.6,19.3,18.6c18.5-34,22.8-80.4,30.2-118.1c7.9-40,13.8-80.6,21.9-120.3c11.2-54.3,23.5-110.3,39.2-162.3
	c7.2-24,11.2-49.2,18.9-73.3C287.4,86.1,290.3,73.9,293.5,62.2L293.5,62.2z"/>
<path class="st4" d="M241.5,146.1c-11.1-18-16-39.2-31.6-56.3c-10.5-11.5-25.7-26.2-40.5-27.3c17.5,11.4,34.6,24.8,43.9,43.7
	c8.6,17.3,17.1,38.2,25.7,54.4"/>
<path class="st0" d="M411,451c0.5-26.7-3.1-52.2-8.3-78.6c-5.9-30.1-11.3-64.4-44.8-76.4c-19.2-6.9-62.2-15.3-69.6-38.5
	c0,0-0.4-2-0.8-3.1c-0.7-4.1-2.5-14.8-2.5-14.8c-0.1-7,1.1-34.7,0.7-41.5c-0.5-9.7,7.2-24.7-5.8-27.3c-12.1-2.5-177.7-1.5-194.9-1.1
	c-16,0.3-22.8,2-25.2,12.2c-1,2.8-1.2,6.3-1.1,10v3.1l0.2,0.1c0.5,6.5,1.8,13.3,2,17.4c0.7,13.3,1.4,27.2,1.2,40.4
	c-0.2,11.4-3.7,21.8-10.4,31C31.3,312,37.1,353.1,37.1,385.8c0,12.2,1.2,23.5,1.8,35.6c2.7,57.9-9.1,118.9,11.7,174.8
	c5,13.5,15.6,23.9,28,30.8c9.5,5.2,20.6,12.9,31.2,13.8c7.3,0.7,14.7,1.4,22.2,1.1c15.1-0.6,26.6-2.7,42.1-1.8
	c33,2.1,66.3,1,96.6-10.9c16.1-6.4,28-22.4,34.9-37.5c10.1-22.1,22.4-36.2,45.9-42.9c6.5-1.8,13.1-1,19.5-2.9
	c11.5-3.4,24.4-15.7,30-25.8C412.8,499.2,410.6,474.2,411,451L411,451z M378.5,487.1c-7.3,26-40.5,41.6-60.2,16.4
	c-9.6-12.2-9.8-30-10.5-44.8c-0.7-15.1-0.9-29.8-0.9-45c0-20.6-6.7-47.6,2.3-66.9c8.5-18.2,29.9-27.2,47-14.6
	c8.2,6,12.7,26.2,15.4,35.8c4.1,14.2,6.3,28.2,7.8,43C381.8,435.7,385.3,462.7,378.5,487.1L378.5,487.1z"/>
<path d="M68.6,179.9c0,0,0,1.4,0.1,3.8c0,2.4,0,5.9-0.2,10.1c-0.1,4.2-0.3,9-0.3,14.2c0,2.6,0,5.3,0.2,8c0.1,2.7,0.4,5.4,0.8,8.2
	c0.4,2.7,0.8,5.5,1.3,8.2s0.9,5.4,1.4,7.9c0.4,2.6,0.8,5.1,1.2,7.5c0.3,2.4,0.6,4.7,0.8,6.8c0.2,2.1,0.3,4.1,0.3,5.8v4.5
	c0,1.3-0.1,2.3-0.2,2.9c-0.1,0.7-0.1,1-0.1,1c-0.1,1.4-1.3,2.4-2.7,2.3s-2.4-1.3-2.3-2.7v-0.2c0,0,0-0.3,0.1-0.9s0.2-1.5,0.3-2.7
	s0.2-2.6,0.3-4.2v-5.6c-0.1-2-0.2-4.3-0.4-6.6c-0.2-2.4-0.4-4.8-0.7-7.4s-0.6-5.3-0.9-8s-0.6-5.5-0.8-8.3s-0.3-5.6-0.3-8.4
	s0.1-5.5,0.3-8.1c0.3-5.2,0.8-10.1,1.1-14.2c0.4-4.2,0.6-7.6,0.7-10L68.6,179.9L68.6,179.9z M277.5,179.9c0,0,0.1,0.6,0.2,1.8
	s0.3,2.9,0.5,5.2c0.1,1.1,0.2,2.4,0.2,3.7c0.1,1.3,0.1,2.8,0.2,4.3c0.1,3.1,0.1,6.6,0.1,10.4c-0.1,3.8-0.1,7.9-0.3,12.3
	c-0.2,4.3-0.7,8.9-1.1,13.7c-0.4,4.7-0.6,9.7-0.3,14.6c0.2,5,0.8,10,1.7,15c0.2,1.1,0.5,2.5,0.8,3.6c0.3,1.2,0.7,2.3,1.1,3.5
	c0.8,2.3,1.7,4.6,2.6,6.9c1.9,4.5,4,9,5.8,13.6c0.9,2.3,1.6,4.6,2.2,6.9c0.1,0.6,0.3,1.2,0.4,1.7l0.1,0.4l0.1,0.5l0.1,0.8
	c0.1,0.6,0.2,1.1,0.3,1.7c0.1,0.6,0.1,1.2,0.2,1.8c0.5,4.6,0.3,8.8,0.1,12.7c-0.3,3.9-0.7,7.4-1.1,10.4c-0.4,3.1-0.8,5.7-1.1,7.9
	c-0.6,4.4-1,6.9-1,6.9h-0.5c0,0-0.1-0.6-0.2-1.8c-0.1-1.2-0.3-2.9-0.3-5.2c-0.1-2.2-0.1-4.9-0.1-8s0-6.6-0.1-10.3
	c-0.1-3.7-0.2-7.8-0.8-11.9c-0.1-0.5-0.1-1-0.2-1.5s-0.2-1.1-0.3-1.6l-0.2-0.8l-0.1-0.3l-0.1-0.4c-0.1-0.5-0.2-1.1-0.4-1.6
	c-0.5-2.1-1.2-4.3-1.9-6.5c-1.5-4.4-3.3-8.9-5-13.7c-0.8-2.4-1.6-4.9-2.1-7.5c-0.2-1.3-0.5-2.6-0.6-3.9l-0.1-1l-0.1-1
	c0-0.7-0.1-1.2-0.1-1.9c-0.2-5.1-0.3-10.2-0.5-15.2c-0.1-5-0.5-9.9-0.8-14.7c-0.3-4.8-0.6-9.4-0.6-13.8s0.3-8.5,0.5-12.3
	c0.3-3.8,0.5-7.3,0.8-10.4s0.6-5.8,0.8-8c0.3-2.2,0.5-4,0.6-5.1l0.3-1.8L277.5,179.9L277.5,179.9z"/>
<path d="M244,186.9c0,0-1.9,0.1-5.6,0.3c-3.6,0.2-9,0.5-15.8,0.7s-15.1,0.6-24.6,0.9c-9.5,0.3-20.2,0.6-31.9,0.8s-24.3,0.5-37.7,0.7
	c-13.4,0.3-27.5,0.7-42,1.5c-3.6,0.2-7.3,0.4-11,0.7c-1.8,0.1-3.7,0.2-5.5,0.4s-3.7,0.5-5.5,0.9s-3.6,0.8-5.4,1.4
	c-1.7,0.6-3.5,1.4-4.7,2.8c-0.5,0.7-0.7,1.6-0.5,2.4c0.3,0.8,0.9,1.5,1.5,2.2l0.5,0.5c0.1,0.1,0.4,0.3,0.6,0.4
	c0.4,0.2,0.8,0.4,1.2,0.5c0.9,0.2,1.8,0.3,2.8,0.4c3.8,0.2,7.6-0.3,11.5-0.6c3.9-0.1,7.7,0,11.6-0.1c7.7-0.1,15.5-0.3,23.3-1
	c7.8-0.8,15.5-1.2,23.3-1.5c7.7-0.4,15.5-0.8,23.1-1.2c15.3-0.7,30.4-1.2,45-1.7s28.7-0.9,42-1.3c6.7-0.3,13.2-0.5,19.5-0.8
	c1.6-0.1,3.1-0.1,4.7-0.2c1.7-0.1,3.2,0.1,4.7,0.3c3,0.3,6,0.5,8.9,0.7c2.9,0.1,5.7,0.2,8.5,0c2.7-0.2,5.4-0.6,7.6-1.8
	c1.1-0.6,1.9-1.5,2.2-2.5c0.2-0.5,0.2-1.1,0.2-1.7v-0.4c0-0.2-0.1-0.3-0.1-0.4c-0.1-0.2-0.2-0.5-0.4-0.7c-0.7-0.9-1.7-1.5-2.8-1.9
	c-1.1-0.4-2.2-0.8-3.4-1c-4.6-1-9-1.2-13.1-1.3s-7.9,0-11.3,0.1c-6.8,0.3-12.1,0.7-15.8,1C245.9,186.7,244,186.9,244,186.9
	L244,186.9z M244,186.7c0,0,1.9-0.2,5.6-0.5c3.6-0.3,9-0.8,15.8-1.2c3.4-0.2,7.2-0.3,11.3-0.3c4.1,0,8.6,0.1,13.3,1
	c1.2,0.2,2.4,0.5,3.6,1s2.4,1,3.3,2.2c0.2,0.3,0.4,0.6,0.6,1c0.1,0.2,0.1,0.4,0.2,0.5c0,0.1,0,0.1,0.1,0.3v0.3
	c0.1,0.7,0.1,1.4-0.1,2.1c-0.4,1.4-1.5,2.6-2.7,3.3c-1.2,0.7-2.6,1.2-4,1.5s-2.8,0.5-4.2,0.7c-2.8,0.3-5.7,0.3-8.7,0.2
	c-2.9-0.1-5.9-0.3-8.9-0.6c-1.5-0.1-3-0.3-4.5-0.2c-1.5,0.1-3.1,0.2-4.7,0.3c-6.3,0.4-12.8,0.6-19.5,0.9c-13.4,0.5-27.5,1-42.1,1.4
	s-29.7,0.8-45,1.4l-23.1,0.9c-7.7,0.3-15.5,0.6-23.3,1.2s-15.6,0.7-23.3,0.6c-3.9,0-7.8-0.1-11.6,0c-3.8,0.2-7.7,0.7-11.5,0.5
	c-1-0.1-1.9-0.2-2.9-0.4c-0.5-0.1-1-0.3-1.4-0.6c-0.2-0.1-0.4-0.2-0.6-0.4l-0.5-0.5c-0.7-0.7-1.4-1.5-1.7-2.4c-0.4-1-0.1-2.2,0.6-3
	c0.6-0.8,1.5-1.4,2.3-1.8c0.9-0.5,1.7-0.8,2.6-1.2c1.8-0.6,3.6-1.1,5.5-1.5c1.8-0.4,3.7-0.7,5.6-0.9s3.7-0.3,5.6-0.5
	c3.7-0.3,7.4-0.7,11-0.9c14.6-1.1,28.7-1.8,42-2.1c6.7-0.2,13.2-0.4,19.5-0.4s12.4-0.1,18.2-0.1c11.7,0,22.4-0.1,31.9-0.1
	c9.5-0.1,17.8-0.1,24.6-0.4c6.8-0.2,12.2-0.4,15.8-0.6C242.1,186.8,244,186.7,244,186.7L244,186.7z M131.5,242.4
	c7.1,0.3,14.1,1.2,21.2,1.6c3.5,0.2,7.1,0.3,10.6,0.2c3.5-0.1,7.1-0.4,10.6-0.6l21.2-1.2c7.1-0.4,14.2-0.7,21.3-0.9
	c7.1-0.2,14.2-0.5,21.3-0.5c7.1-0.1,14.2-0.1,21.3,0l21.3,0.2h5.3c1.8,0,3.5,0,5.2-0.3s3.3-0.9,4.4-2.1s1.6-2.9,1.6-4.6v0.1
	c-0.2-1.2-1-2.1-2.2-2.5c-1.1-0.4-2.4-0.3-3.7-0.3c-2.5,0.2-5.1,0.7-7.6,1c-5.2,0.5-10.3,0.1-15.4-0.3s-10.2-0.9-15.3-0.9
	c-2.5,0-5.1,0.2-7.7,0.3l-7.7,0.3c-10.3,0.4-20.5,0.6-30.8,0.7c-5.1,0-10.3,0.1-15.4,0.1s-10.3-0.1-15.4-0.2
	c-10.3-0.3-20.5-0.9-30.8-1.3c-5.1-0.2-10.2-0.4-15.4-0.5c-5.1-0.1-10.2-0.2-15.3-0.1c-5.1,0-10.2,0.2-15.3,0.4
	c-5.1,0.3-10.3,0.4-15.4,0.6c-5.1,0.1-10.2,0.3-15.3,0.6c-2.5,0.1-5.1,0.3-7.6,0.6c-1.2,0.2-2.5,0.4-3.7,0.7
	c-0.6,0.1-1.1,0.4-1.6,0.6c-0.2,0.1-0.4,0.3-0.6,0.4c-0.1,0.1-0.1,0.2-0.2,0.2v0.2c-0.3,1.2-0.3,2.5,0,3.8v-0.1
	c0.2,0.5,0.6,1,1.2,1.3c0.6,0.4,1.3,0.6,2.1,0.9c1.5,0.5,3.1,0.8,4.7,1c3.2,0.5,6.5,0.7,9.8,0.9l9.9,0.6c1.6,0.1,3.3,0.1,4.9,0.2
	h4.9c6.6-0.1,13.2-0.4,19.7-0.7c3.3-0.1,6.6-0.3,9.9-0.3h4.9C128.2,242.3,129.8,242.4,131.5,242.4L131.5,242.4z M131.5,242.6
	c-1.6,0-3.3-0.1-4.9-0.1h-4.9c-3.3,0.1-6.6,0.2-9.9,0.4c-6.6,0.3-13.1,0.9-19.7,1.1c-1.6,0-3.3,0.1-4.9,0.1h-5l-9.9-0.3
	c-3.3-0.1-6.6-0.3-9.9-0.6c-1.7-0.2-3.3-0.4-5-0.9c-0.8-0.2-1.7-0.5-2.5-1c-0.8-0.4-1.6-1.2-2-2.2V239c-0.3-1.5-0.3-3,0-4.5v0.2
	c0-0.6,0.3-1.1,0.6-1.5c0.3-0.3,0.7-0.5,1-0.7c0.7-0.3,1.3-0.6,2-0.7c1.3-0.4,2.6-0.6,3.9-0.8c2.6-0.4,5.2-0.6,7.7-0.8
	c5.1-0.3,10.3-0.5,15.4-0.6c5.1-0.2,10.2-0.3,15.3-0.6c5.1-0.3,10.3-0.4,15.4-0.5s10.3,0,15.4,0.2s10.3,0.4,15.4,0.6
	c10.3,0.5,20.5,1.1,30.7,1.5c5.1,0.2,10.2,0.4,15.4,0.4c5.1,0.1,10.3,0.1,15.4,0.1c10.3,0,20.5,0,30.8-0.3c2.6-0.1,5.1-0.1,7.7-0.2
	s5.1-0.3,7.7-0.2c5.2,0,10.3,0.6,15.4,1s10.2,0.7,15.3,0.2c2.5-0.3,5-0.8,7.6-1c1.3-0.1,2.6-0.2,4,0.3c0.7,0.2,1.3,0.6,1.8,1.1
	l0.6,0.9l0.4,1v0.1c0,1.8-0.5,3.8-1.8,5.2c-0.3,0.4-0.7,0.7-1.1,1c-0.4,0.2-0.8,0.5-1.2,0.7c-0.8,0.4-1.8,0.6-2.6,0.8
	c-1.8,0.3-3.6,0.4-5.4,0.4l-5.3,0.1l-21.3,0.2c-7.1,0-14.2,0-21.3,0.2l-21.2,0.4l-21.2,0.6l-21.3,0.7c-3.5,0.1-7.1,0.3-10.6,0.4
	c-3.6,0-7.1-0.1-10.6-0.4C145.6,243.9,138.5,243,131.5,242.6L131.5,242.6z M51.3,317.2c0,0,0.2,0.1,0.6,0.4c0.4,0.2,1,0.4,1.8,0.6
	c1.6,0.4,4.1,0.5,7.2,0.5c1.6,0,3.3,0,5.2,0.1s3.9,0.1,6.1,0.1c4.3-0.1,9.2-0.5,14.6-1c5.3-0.6,11.1-1.3,17.3-1.8
	c6.2-0.4,12.6-0.8,19.4-1.1c6.7-0.3,13.7-0.6,20.7-0.8c7.1-0.2,14.2-0.3,21.4-0.4s14.3,0,21.4,0.1s14,0.4,20.7,0.5
	c6.7,0.2,13.2,0.4,19.3,0.5s12,0.1,17.3,0.1c2.7,0,5.3-0.1,7.7-0.2s4.8-0.2,6.9-0.3c2.2-0.1,4.2-0.3,6.1-0.4
	c0.9-0.1,1.8-0.1,2.7-0.2c0.9-0.1,1.7-0.2,2.5-0.3c1.6-0.2,2.9-0.3,4.2-0.5c1.2-0.2,2.2-0.3,3.1-0.4c1.7-0.2,2.6-0.3,2.6-0.3
	s-0.9,0.2-2.5,0.5c-0.8,0.2-1.8,0.4-3,0.6s-2.6,0.4-4.1,0.7c-0.8,0.1-1.6,0.2-2.5,0.4l-2.7,0.3c-1.9,0.2-3.9,0.5-6.1,0.7
	s-4.5,0.4-6.9,0.6s-5,0.3-7.7,0.5s-5.5,0.2-8.4,0.3c-2.9,0.1-5.9,0.1-9,0.1c-6.2,0.1-12.7,0-19.4-0.1s-13.6-0.2-20.7-0.3
	c-7-0.1-14.2-0.1-21.4,0c-7.2,0-14.3,0.2-21.4,0.3c-7,0.2-14,0.4-20.7,0.5c-6.7,0.2-13.2,0.4-19.3,0.6c-6.1,0.3-11.9,0.9-17.3,1.3
	s-10.3,0.5-14.7,0.4c-2.2-0.1-4.2-0.2-6.1-0.4c-1.9-0.2-3.6-0.3-5.2-0.4c-3.1-0.2-5.6-0.5-7.2-0.9c-0.8-0.2-1.4-0.5-1.8-0.7
	C51.4,317.3,51.3,317.2,51.3,317.2L51.3,317.2z"/>
<path d="M242.3,289.1h1c0.6,0,1.6,0,2.8,0.1c2.5,0.1,6.1,0.3,10.7,1.2c2.3,0.5,4.8,1.1,7.4,2.1s5.4,2.3,8,4.4c0.3,0.3,0.6,0.5,1,0.8
	l0.9,0.9l0.9,0.9c0.3,0.3,0.5,0.7,0.8,1c1.1,1.4,1.9,3.1,2.6,4.8c1.4,3.4,2.3,7.2,2.9,11.2c1.2,8,1.1,16.7,0.8,25.7
	c-0.1,4.6-0.2,9.2-0.2,13.9v14.6c-0.1,9.9-0.2,20.2-0.4,30.6c-0.1,10.4-0.1,21,0.3,31.5c0.1,5.3,0.4,10.5,0.7,15.8l0.6,7.8l0.3,3.9
	c0.1,1.3,0.2,2.6,0.2,3.9c0.6,10.4,0.6,20.7,0.6,30.7c-0.1,9.9-0.4,19.5-0.6,28.6c-0.1,4.5-0.1,9-0.2,13.2
	c-0.1,4.3-0.4,8.5-0.8,12.4c-0.8,7.9-2.3,15.1-3.9,21.4c-1.6,6.3-3.5,11.6-5.8,15.7c-2.2,4.1-4.5,7-6,8.9c-0.8,1-1.4,1.7-1.8,2.2
	s-0.6,0.7-0.6,0.7s0.2-0.3,0.6-0.8s1-1.3,1.7-2.3c1.4-2,3.6-5,5.6-9.1c2.1-4.1,3.8-9.4,5.2-15.7c1.4-6.3,2.6-13.4,3.3-21.3
	c0.3-3.9,0.5-8,0.5-12.3s0-8.7-0.1-13.2c0-9.1,0.1-18.7,0.1-28.6c0-9.9-0.2-20.1-0.8-30.5l-0.3-3.9l-0.3-3.9
	c-0.2-2.6-0.4-5.2-0.6-7.9c-0.3-5.3-0.6-10.6-0.8-15.9c-0.3-10.6-0.3-21.2-0.2-31.6c0.1-10.4,0.4-20.7,0.6-30.6
	c0.1-5,0.2-9.8,0.2-14.6c0-4.8,0.2-9.5,0.4-14c0.4-9.1,0.7-17.6-0.3-25.4c-0.5-3.9-1.4-7.5-2.6-10.9c-0.2-0.4-0.3-0.8-0.5-1.3
	l-0.2-0.6l-0.3-0.5c-0.4-0.7-0.7-1.5-1.3-2.1c-0.2-0.3-0.5-0.7-0.7-1s-0.5-0.6-0.8-0.9s-0.6-0.6-0.8-0.9c-0.3-0.3-0.6-0.5-0.9-0.8
	c-2.4-2-5.1-3.4-7.6-4.5c-2.6-1.1-5-1.7-7.2-2.3c-4.5-1-8.1-1.4-10.6-1.6c-1.2-0.1-2.2-0.2-2.8-0.2
	C242.7,289.1,242.3,289.1,242.3,289.1L242.3,289.1z M88.3,291.8c0,0-0.5,0.1-1.5,0.2s-2.5,0.3-4.4,0.7c-1.9,0.3-4.3,0.8-7,1.6
	s-5.8,1.8-9.1,3.4c-0.8,0.4-1.7,0.8-2.4,1.3c-0.4,0.2-0.8,0.5-1.2,0.8l-1.2,0.9c-0.8,0.6-1.6,1.3-2.4,2c-0.4,0.3-0.7,0.8-1.1,1.1
	c-0.4,0.4-0.8,0.8-1.1,1.2c-0.3,0.4-0.6,0.9-1,1.3c-0.3,0.4-0.6,1-0.9,1.4l-0.4,0.7c-0.1,0.2-0.2,0.5-0.3,0.8
	c-0.2,0.5-0.5,1.1-0.7,1.6c-0.8,2.2-1.1,4.6-1.2,7.1c-0.1,5,0.9,10.4,2,16c0.6,2.8,1.1,5.7,1.5,8.7c0.3,3,0.6,6.1,0.8,9.2
	c0.9,12.6,0.7,26.2,0.4,40.6c-0.1,7.2-0.2,14.6-0.4,22.2s-0.6,15.3-0.9,23.1c-0.8,15.7-1.6,31.9-2.4,48.4
	c-0.7,16.4-1.1,33.2,0.6,49.7c0.8,8.3,2.2,16.5,4.2,24.5l0.8,3l0.9,3l0.9,2.9c0.3,0.9,0.7,1.9,1,2.9c1.4,3.8,3,7.6,4.9,11.2
	c3.8,7.2,8.6,13.7,14.3,19.2c2.9,2.7,6,5.2,9.2,7.3c0.8,0.5,1.7,1.1,2.5,1.6l2.5,1.4c0.8,0.5,1.7,0.8,2.6,1.2s1.7,0.8,2.7,1.1
	c7.2,2.9,14.7,4.3,22.1,5.3c7.4,0.9,14.8,1.4,22,2.1c7.2,0.7,14.1,1.7,20.8,2.7s13.2,1.8,19.4,2.3c1.5,0.1,3.1,0.2,4.6,0.3
	c1.5,0,3.1,0,4.6,0.1c1.5,0,3-0.1,4.4-0.1c1.5-0.1,2.9-0.2,4.3-0.3c5.7-0.5,11-1.2,16-2.2c10-2,18.5-4.6,25.2-7.5s11.8-5.7,15-8
	c0.8-0.5,1.5-1,2.1-1.5s1.1-0.9,1.5-1.2c0.8-0.6,1.2-1,1.2-1s-0.4,0.3-1.2,1c-0.4,0.3-0.9,0.7-1.5,1.2s-1.3,1-2.1,1.6
	c-3.1,2.4-8.1,5.4-14.8,8.4s-15.2,5.8-25.2,8c-5,1-10.4,2-16.1,2.5c-1.4,0.1-2.9,0.2-4.4,0.4c-1.5,0.1-3,0.1-4.5,0.2h-4.6
	c-1.6-0.1-3.1-0.1-4.7-0.2c-6.3-0.4-12.8-1.2-19.5-2.1c-6.7-0.9-13.6-1.9-20.8-2.4c-7.1-0.6-14.5-1-22.1-1.8
	c-7.6-0.9-15.3-2.3-22.8-5.3c-0.9-0.3-1.9-0.8-2.8-1.2s-1.8-0.8-2.7-1.3s-1.8-1-2.7-1.4c-0.9-0.5-1.7-1-2.6-1.6
	c-3.5-2.2-6.7-4.7-9.7-7.5c-6-5.7-11-12.5-14.9-19.9c-2-3.7-3.7-7.5-5.1-11.5c-0.3-1-0.7-1.9-1-3l-0.9-3l-0.9-3l-0.8-3.1
	c-2.1-8.2-3.5-16.5-4.4-24.9c-1.7-16.8-1.2-33.7-0.4-50.2c0.9-16.5,1.8-32.7,2.6-48.4c0.4-7.8,0.8-15.5,1.1-23.1
	c0.3-7.5,0.5-14.9,0.7-22.1c0.4-14.4,0.8-28,0.1-40.5c-0.2-3.1-0.4-6.2-0.7-9.2c-0.3-2.9-0.8-5.8-1.3-8.6c-1-5.6-2-11.1-1.7-16.3
	c0.1-2.6,0.5-5.1,1.4-7.4c0.2-0.6,0.5-1.1,0.7-1.6c0.1-0.3,0.2-0.5,0.4-0.8l0.5-0.8l0.9-1.5c0.3-0.5,0.7-0.9,1-1.4s0.7-0.8,1.1-1.2
	c0.4-0.4,0.7-0.8,1.2-1.2c0.8-0.7,1.6-1.4,2.5-2l1.2-0.9c0.4-0.3,0.9-0.5,1.3-0.7c0.8-0.5,1.7-0.9,2.5-1.3c3.3-1.6,6.5-2.5,9.3-3.2
	s5.2-1.1,7.1-1.4s3.4-0.5,4.4-0.6C87.8,291.9,88.3,291.8,88.3,291.8L88.3,291.8z"/>
<path class="st4" d="M317,120.1c5.3-4.9,11.2-11.8,11.7-19.5c0.1-1.7-4.4-18.3-7.6-11.2c4.7-10.3,5.6-25,6.4-36.2
	c0.8-10.9-1.3-24.3,1.2-34.7c5.3,3.9,10.7,9.4,13,16.5c1.4-7.9,0.9-15.4,5.6-22.5c1.6,4.9,1.2,11.3,3.5,15.8
	c2.4-5.2,4.8-11.4,9.5-14.6c1.5,7.5-0.5,14.9-0.6,22.4c2.3-5.1,5-9.8,9.7-12.3c-0.3,7.2-5.1,14.2-5.2,21.7
	c10.9-7.3,20.6-17.5,31.8-25.1c8.9-6.1,20.4-8.6,28.3-16c-5.4,8.3-11.4,18.2-13.3,28c9.9-3.8,16.6-3.2,26.4,0.7
	c-6.3,6.4-16.2,6.9-23.9,11.5c10.3,2.3,32.4,1.6,39.5,9.9c-7.4,0.5-23.6-0.9-24,8.7c8,1.9,21,0.4,22.1,11.6
	c-18.2,1.5-37.2,0.8-55.6,2c11.1,3.3,35.9,2.1,39.2,17.2c-26.6,3.6-52.9,2.4-79.5,3.8c9.5,7,20.8,15.5,28.9,24
	c-10.9,3.9-21.8,4.9-33.2,1.7c2.9,6.8,6.1,17.4-0.8,22.6c-1.4-3.1-4.9-5.5-6.6-8c-3.7,4.1-10.9,27.4-16,26.4
	c-6.6-1.2-3.3-29.3-3.9-34.2c-6.1,3.2-4.8,11.7-8.1,17.2C300.7,140.1,308.9,127.6,317,120.1L317,120.1z"/>
</svg>
