<?xml version="1.0" encoding="utf-8"?>
<!-- Generator: Adobe Illustrator 19.2.0, SVG Export Plug-In . SVG Version: 6.00 Build 0)  -->
<svg version="1.1" id="Layer_1" xmlns="http://www.w3.org/2000/svg" xmlns:xlink="http://www.w3.org/1999/xlink" x="0px" y="0px"
	 viewBox="0 0 460 378.4" style="enable-background:new 0 0 460 378.4;" xml:space="preserve">
<style type="text/css">
	.st0{fill:none;stroke:#000000;stroke-width:5;stroke-miterlimit:10;}
	.st1{opacity:0.9;fill:url(#SVGID_1_);enable-background:new    ;}
	.st2{fill:url(#SVGID_2_);}
	.st3{fill:none;stroke:#000000;stroke-width:2;stroke-miterlimit:10;}
	.st4{fill:none;stroke:#000000;stroke-miterlimit:10;}
	.st5{fill:none;stroke:#000000;stroke-width:3;stroke-miterlimit:10;}
	.st6{fill:none;stroke:#000000;stroke-width:1.292;stroke-miterlimit:10;}
</style>
<path class="st0" d="M6588.6-892.2c0.3,38.5,0.2,82.4-5.7,120.5c-2.3,14.7-3.7,31.7-10.6,44.9c-9.4,17.9-18.6,35.9-34,49.5
	c-5.5,4.9-11.5,9.2-17.9,12.8c-4.2,2.3-15.3,5.1-15.9,10.8c-0.4,3.6,3.8,5.7,6.9,7.6c6.9,4.3,10.9,12.3,11.6,20.4
	c1.5,15.4-5.6,30.7-18.9,38.8c-0.8,0.5-1.6,1-1.9,1.8c-0.7,2.1,2.1,3.4,4.2,3.8c12.1,2.1,24,5,35.7,8.7c7.7,2.4,24.3,10.6,12,18.5
	c-7.7,4.9-17,6.2-26,7.3c-24.7,3.1-49.7,6.2-74.5,3.9c-5.6-0.5-11.2-1.4-16.8-2.2l-22.5-3.3c-5.3-0.8-11.8-2.7-12.7-7.9
	c-1.7-10.2,16.6-15.1,23.6-17.2c4.9-1.5,36.5-4.6,35.6-9.3c-0.5-2.4-2.8-3.9-4.8-5.4c-8.9-6.4-15-16.4-16.6-27.2s1.3-22.2,7.9-30.9
	c2.2-2.9,4.9-6,4.4-9.6c-0.2-1.5-1-2.9-2-4.1c-5.1-6.7-15.9-9.5-22.8-14.7c-7.9-6-15.2-12.8-21.6-20.4
	c-12.5-14.5-22.1-31.5-27.6-49.9c-5.2-17.2-6.9-35.3-8.2-53.2c-2.3-31-3.6-62-3.8-93.1c20.2-2.4,42-1.8,62.4-1.4
	C6480.9-891.6,6588.6-894.3,6588.6-892.2L6588.6-892.2z"/>
<path d="M6462-577.3v1.9c0,0.6,0.1,1.3,0.6,1.9c0.4,0.6,1.2,0.8,2.2,0.8c2.1-0.1,4.5-0.2,7.1-0.2c1.3,0,2.7-0.1,4-0.1
	c1.4-0.1,2.8-0.1,4.1-0.2c1.4-0.1,2.8-0.1,4.1-0.2c1.4-0.1,2.7-0.1,4-0.2c2.6-0.1,5-0.2,7.1-0.3c2-0.1,3.7-0.6,4.6-1.3
	c0.4-0.4,0.7-0.8,0.8-1.1c0.1-0.3,0.2-0.5,0.2-0.5v0.5c-0.1,0.3-0.2,0.8-0.6,1.3s-1.1,1-1.9,1.4c-0.8,0.4-1.8,0.7-2.8,0.8
	c-2.1,0.4-4.5,0.7-7.1,0.9c-1.3,0.1-2.7,0.3-4,0.4c-1.4,0.1-2.8,0.2-4.2,0.2c-1.4,0-2.8,0.1-4.2,0.1h-4.1c-2.6-0.1-5.1-0.2-7.2-0.4
	c-0.5-0.1-1.1-0.1-1.6-0.4c-0.5-0.3-0.9-0.7-1.1-1.1c-0.4-0.9-0.4-1.7-0.3-2.3c0.1-0.6,0.2-1.1,0.3-1.4
	C6461.9-577.1,6462-577.3,6462-577.3L6462-577.3z M6461.6-661.9c0,0,0.6,0.2,1.6,0.5c0.5,0.2,1.2,0.3,1.9,0.5s1.6,0.4,2.4,0.5
	c0.9,0.2,1.9,0.3,2.9,0.5c1,0.1,2.1,0.2,3.3,0.3c1.1,0.1,2.3,0.1,3.5,0.2h3.6c1.2,0,2.5,0,3.7-0.1c1.2,0,2.4-0.1,3.6-0.1
	c2.3-0.1,4.5-0.1,6.3-0.3s3.2-0.6,4.1-1.2c0.4-0.3,0.8-0.6,1-0.8l0.3-0.3c0,0-0.1,0.1-0.2,0.4c-0.2,0.3-0.4,0.6-0.8,1
	c-0.8,0.8-2.3,1.6-4.2,2c-0.9,0.2-2,0.4-3,0.5c-1.1,0.1-2.2,0.3-3.3,0.4l-3.6,0.3c-1.2,0.1-2.5,0.1-3.7,0.2c-1.3,0-2.5,0-3.7-0.1
	c-0.6,0-1.2-0.1-1.8-0.1c-0.6-0.1-1.2-0.1-1.8-0.2c-1.2-0.1-2.3-0.4-3.4-0.6c-0.5-0.1-1-0.3-1.5-0.4c-0.5-0.2-1-0.3-1.4-0.4
	c-1.8-0.6-3.2-1.3-4.2-1.8C6462.2-661.6,6461.6-661.9,6461.6-661.9L6461.6-661.9z M6411.5-559.8l0.3,0.3c0.2,0.2,0.5,0.4,1,0.6
	c0.9,0.5,2.3,1,4.2,1.4c1.9,0.4,4.2,0.7,6.8,1.1c2.6,0.4,5.6,0.7,8.9,1.1c3.3,0.3,6.8,0.7,10.6,1c3.7,0.3,7.7,0.5,11.8,0.7
	c8.2,0.3,17,0.5,25.7,0.6c4.4,0.1,8.8,0.1,13.1,0.2c4.3,0,8.5,0.1,12.6,0c4.1-0.1,8-0.4,11.7-0.8c3.7-0.5,7.2-1.1,10.4-1.7
	c6.4-1.4,11.6-3,15.2-4.3c1.8-0.7,3.2-1.2,4.2-1.6l1.5-0.6c0,0-0.5,0.2-1.4,0.7c-0.9,0.4-2.3,1.1-4.1,1.8c-3.5,1.5-8.7,3.5-15.1,5.1
	c-6.4,1.6-14.1,2.9-22.3,3.2c-4.1,0.2-8.4,0.2-12.7,0.2c-4.3,0-8.7-0.1-13.1-0.1c-4.4-0.1-8.8-0.2-13.1-0.3
	c-4.3-0.1-8.6-0.4-12.7-0.6c-4.1-0.3-8.1-0.6-11.8-1c-3.8-0.4-7.3-0.8-10.6-1.3c-1.6-0.3-3.2-0.5-4.7-0.7c-1.5-0.3-2.9-0.5-4.2-0.8
	c-2.6-0.5-4.9-1-6.8-1.5s-3.3-1.1-4.1-1.7c-0.4-0.3-0.7-0.5-0.9-0.7C6411.6-559.7,6411.5-559.8,6411.5-559.8L6411.5-559.8z"/>
<linearGradient id="SVGID_1_" gradientUnits="userSpaceOnUse" x1="6378.7998" y1="829.197" x2="6584.7002" y2="829.197" gradientTransform="matrix(1 0 0 -1 0 58.8166)">
	<stop  offset="1.800000e-02" style="stop-color:#801FE3"/>
	<stop  offset="1" style="stop-color:#B7A7FF"/>
</linearGradient>
<path class="st1" d="M6378.8-864c1.4,24.4,2.7,48.8,4.1,73.2c0.4,7.9,0.9,15.9,2.2,23.7c1.8,11.1,5.4,21.8,8.9,32.5
	c3,9.1,6,18.2,11.1,26.3c17.8,28.1,51.5,32.7,81.9,31.3c10.6-0.5,21.3-1.5,31.5-4.7c66.9-21.3,65.2-117,66.1-172.7
	c0-2.6,0.1-5.1,0.1-7.7C6516-859.9,6447.2-858.1,6378.8-864L6378.8-864z"/>
<linearGradient id="SVGID_2_" gradientUnits="userSpaceOnUse" x1="122.8" y1="-166.8813" x2="341.7" y2="-166.8813" gradientTransform="matrix(1 0 0 -1 0 52.8166)">
	<stop  offset="0" style="stop-color:#C6FF94"/>
	<stop  offset="0.9981" style="stop-color:#FFFFFF"/>
</linearGradient>
<path class="st2" d="M340.3,113.7c-48.7-5.5-102.8-6.7-151.7-3.8c-21.6,1.3-43.3,3.5-65,2.2c-0.3,0-0.5-0.1-0.8-0.1
	c3.8,55.6,14.1,169.1,16.6,191c0.6,5.2,1.3,10.5,6.9,15.1c6.6,5.3,19.2,8.9,32.5,10.6c13.3,1.8,27.3,2,41.2,2.2
	c12.1,0.2,22.3,0.1,34.3-0.1c19.9-0.4,46.6-2.8,58.4-9.8c7.9-4.7,10.2-10.7,12.2-16.4c2.5-7,7.3-78.2,9.9-108.8
	c2.3-27.3,4.6-54.7,6.9-82C341.4,113.7,340.8,113.7,340.3,113.7z"/>
<path d="M6373.7-883.7c0,0,0.6,8.1,1.5,22.2c0.5,7.1,1,15.6,1.7,25.5c0.6,9.8,1.4,20.9,2.1,33.1c0.4,6.1,0.7,12.4,1.3,18.9
	c0.5,6.5,1.4,13.2,3,19.9s3.7,13.5,6,20.4c2.4,6.9,4.5,14,7.5,20.9c0.8,1.7,1.5,3.4,2.4,5.1c0.9,1.6,1.8,3.3,2.8,4.8
	c1.1,1.6,2.2,3.1,3.4,4.7c1.2,1.4,2.5,2.8,3.7,4.3c5.3,5.5,11.7,10,18.8,13.2c7.1,3.3,14.8,5.4,22.6,6.6c7.9,1.3,15.9,1.7,23.9,1.7
	c8-0.1,16.1-0.4,24-1.5c3.9-0.5,7.9-1.2,11.7-2.2c1-0.3,1.9-0.5,2.8-0.8l0.7-0.2h0.1l0.2-0.1l0.4-0.1l1.4-0.5l2.8-1
	c0.5-0.2,0.9-0.3,1.4-0.5l1.3-0.6c7.1-3.1,13.7-7.4,19.4-12.5c5.7-5.1,10.5-11.1,14.4-17.5c4-6.3,7.1-13.1,9.7-19.8
	c2.6-6.8,4.6-13.6,6.3-20.3c3.2-13.5,5-26.5,6.2-38.5c1.1-12.1,1.7-23.2,2-33c0.3-9.9,0.5-18.4,0.7-25.5c0.2-14.2,0.4-22.2,0.4-22.2
	s0,2,0.1,5.8c0,3.8,0.1,9.4,0.2,16.4c0,7.1,0,15.7-0.2,25.5c-0.1,9.9-0.5,21-1.5,33.1c-1,12.1-2.6,25.2-5.7,38.9
	c-1.6,6.8-3.6,13.7-6.1,20.6c-2.5,6.9-5.7,13.8-9.8,20.3c-4,6.5-9,12.7-14.8,18.1c-5.9,5.4-12.7,9.8-20.2,13.1l-1.4,0.6
	c-0.5,0.2-0.9,0.4-1.4,0.5l-2.8,1l-1.4,0.5l-0.4,0.1l-0.2,0.1l-0.2,0.1l-0.7,0.2c-1,0.3-2,0.6-2.9,0.8c-3.9,1-8,1.8-12,2.4
	c-8.1,1.1-16.2,1.5-24.4,1.6c-8.2,0-16.3-0.5-24.4-1.8c-8-1.3-16-3.5-23.3-7c-7.4-3.4-14.1-8.1-19.6-13.9c-1.3-1.5-2.6-3.1-3.9-4.6
	c-1.1-1.6-2.2-3.2-3.3-4.7c-2.2-3.4-3.9-6.8-5.4-10.4c-3-7.1-5.2-14.2-7.5-21.2c-2.2-7-4.3-13.9-5.8-20.7
	c-1.6-6.9-2.4-13.6-2.8-20.2c-0.5-6.6-0.7-12.9-1-18.9c-0.6-12.1-1.1-23.2-1.6-33.1s-0.8-18.4-1.2-25.5
	C6374-875.7,6373.7-883.7,6373.7-883.7L6373.7-883.7z"/>
<path d="M6374.1-868.3c0,0,0.8,0,2.4,0.1s3.8,0.2,6.7,0.3c2.9,0.2,6.4,0.3,10.5,0.5c4,0.2,8.6,0.3,13.6,0.5s10.4,0.3,16.1,0.5
	s11.7,0.2,17.9,0.4c6.2,0.1,12.6,0.1,19.2,0.2c6.5,0.1,13.2,0,19.8,0.1c6.6,0,13.3,0,19.8-0.1s13-0.1,19.2-0.2
	c12.5-0.1,24.1-0.2,34-0.3c10-0.1,18.3-0.1,24.1-0.1h9.1c0,0-0.8,0.1-2.4,0.2c-1.6,0.1-3.8,0.2-6.7,0.4c-5.8,0.3-14.1,0.8-24.1,1.3
	s-21.6,0.9-34,1.3c-6.2,0.1-12.7,0.4-19.2,0.4c-6.5,0.1-13.2,0.1-19.8,0.2c-6.6,0-13.3,0-19.8-0.2c-6.5-0.1-13-0.3-19.2-0.4
	c-6.2-0.2-12.3-0.4-18-0.8c-2.9-0.2-5.6-0.3-8.3-0.5c-2.7-0.2-5.3-0.4-7.8-0.5c-2.5-0.2-4.9-0.3-7.1-0.5c-2.3-0.2-4.4-0.4-6.4-0.6
	c-4-0.4-7.6-0.7-10.4-1c-2.9-0.3-5.2-0.6-6.7-0.7C6374.9-868.2,6374.1-868.3,6374.1-868.3L6374.1-868.3z"/>
<g>
	<path class="st3" d="M328.3,225.2c-16,7.4-16,5.9-32,13.5c-15.4,7.3-30.8,14.8-44.3,24.9c-13.4,10-25.1,22.5-40.5,29.1
		c-3.4,1.4-7.1,2.7-9.6,5.3c19.5,12,40.6,19.5,61,21.6c4.2,0.5,22.6-3,27.3-5.3c11-5.2,18.6-11.4,26-21.2
		c9.8-13.2,15-23.1,13.4-42.2C328.9,244.3,329.2,232.5,328.3,225.2L328.3,225.2z"/>
	<path class="st4" d="M322.1,227.5c0.4,1.6,0.6,2.8,1,4.4c0.8,3.2,0.7,6.4,0.6,9.5c-0.4,16.8-2.7,31.2-11,43.9
		c-5.4,7.5-12.6,13.1-19.7,18.7c-3.9,3-7.9,6.1-12.6,7.7c-7,2.4-15.3,1.5-23.3,0c-13.8-2.4-28-5.9-40.8-15.2
		c-1.6-1.1-2.1-2.5-3.1-4.2"/>
	<path class="st4" d="M257.1,260c0.5,1.5,2,2.5,3.6,2.9s3.2,0.1,4.7-0.3c2.5-0.7,5.1-2,6.7-4c1.6-2.1,2.2-5.2,0.8-7.4"/>
	<path d="M266.2,263c0.6,2,1.2,4.1,1.8,6.1l1.7,6.1l0.8,3.1c0.3,1,0.6,2.1,0.8,3.1l1.5,6.2c0.5,2.1,1,4.1,1.4,6.2
		c0.2,1,0.4,2.1,0.6,3.1c0.2,1.1,0.4,2.1,0.5,3.2c0.1,1.1,0.1,2.2,0,3.3c0,1.1-0.3,2.2-0.7,3.2c-0.4,1-0.9,2-1.6,2.9
		s-1.6,1.6-2.5,2.2c-0.2,0.1-0.3,0.2-0.4,0.2s-0.2,0.1-0.3,0.1c-0.1,0.1-0.3,0.1-0.4,0.2c-0.1,0-0.3,0.1-0.4,0.1h0.1
		c-1.4,0.5-2.9,0.4-4.3,0.3c-1.4-0.1-2.8-0.4-4.1-0.7c-2.7-0.6-5.4-1.2-8-2.5c-0.6-0.3-1.2-0.7-1.8-1.1c-0.6-0.4-1.1-0.9-1.6-1.4
		c-1-1-1.8-2.2-2.4-3.5s-0.9-2.8-0.8-4.2s0.4-2.8,0.8-4.1l0.3-1l0.1-0.2c0-0.1,0.1-0.2,0.1-0.3l0.2-0.5l0.7-1.9l1.4-3.9l1.4-3.9
		c0.5-1.3,0.9-2.6,1.5-3.9c0.7-1.2,1.3-2.4,1.9-3.7l1.7-3.7c0.6-1.2,1.2-2.5,1.6-3.8c0.5-1.3,0.9-2.6,1.2-3.9c-0.2,1.4-0.6,2.7-1,4
		s-1,2.6-1.5,3.8l-1.6,3.8c-0.3,0.6-0.5,1.3-0.8,1.9l-0.9,1.8c-0.6,1.2-1,2.5-1.4,3.8l-1.4,3.9l-1.4,3.9l-0.7,1.9l-0.2,0.5
		c0,0.1-0.1,0.2-0.1,0.2l-0.1,0.2l-0.3,1c-0.4,1.3-0.7,2.6-0.8,3.9c0,1.3,0.2,2.6,0.8,3.8c0.5,1.2,1.3,2.3,2.3,3.2
		c0.9,0.9,2,1.7,3.2,2.3c2.4,1.2,5,1.9,7.7,2.4c1.3,0.3,2.7,0.6,4,0.7c1.3,0.1,2.7,0.2,3.9-0.2h0.1c0.1,0,0.2,0,0.3-0.1
		c0.1,0,0.2-0.1,0.3-0.1c0.3-0.1,0.5-0.2,0.6-0.3c1.8-1,3.1-2.6,3.8-4.6c0.3-1,0.6-1.9,0.6-3c0.1-1,0.1-2.1,0-3.1s-0.3-2.1-0.4-3.1
		l-0.6-3.1c-0.4-2.1-0.9-4.2-1.3-6.2l-1.4-6.2c-0.2-1-0.5-2-0.7-3.1l-0.8-3.1l-1.5-6.2L266.2,263L266.2,263z M254.6,264.7l1.5-2.3
		l0.2,0.1l-2.1,3.6l-2.1,3.6c-1.4,2.4-2.7,4.8-3.9,7.2c-0.6,1.2-1.2,2.5-1.7,3.7l-1.5,3.8l-0.4,1l-0.2,0.5l-0.1,0.5l-0.6,2l-1.1,4
		c-0.4,1.3-0.8,2.7-1.5,4l-0.6,0.9l-0.3,0.4c-0.1,0.1-0.2,0.3-0.3,0.4c-0.5,0.6-1,1.1-1.6,1.5c-1.2,0.8-2.6,1.3-4,1.6
		c-1.4,0.2-2.9,0-4.2-0.3c-1.4-0.3-2.7-0.9-3.8-1.7c-1.2-0.8-2.2-1.8-3.1-2.8s-1.7-2.2-2.5-3.3c-0.7-1.2-1.4-2.4-2-3.6
		c0.8,1.1,1.5,2.3,2.3,3.4c0.8,1.1,1.6,2.2,2.6,3.1c1,1,2,1.9,3.1,2.6s2.4,1.2,3.7,1.5c1.3,0.3,2.7,0.4,3.9,0.2
		c1.3-0.2,2.6-0.7,3.6-1.5c0.5-0.4,1-0.8,1.4-1.3c0.1-0.1,0.2-0.2,0.3-0.4l0.3-0.4c0.2-0.3,0.3-0.6,0.5-0.8c0.6-1.2,1-2.4,1.4-3.8
		c0.3-1.4,0.8-2.6,1.1-4l0.6-2c0.1-0.2,0.1-0.3,0.2-0.5l0.2-0.5l0.4-1l1.5-3.8c0.6-1.3,1.2-2.5,1.8-3.8c1.3-2.4,2.7-4.8,4.2-7.1
		c1.4-2.3,2.9-4.7,4.5-6.9l0.2,0.1L254.6,264.7L254.6,264.7z M272.8,256.3l9,7.4l4.5,3.7l4.4,3.8c1.5,1.3,2.9,2.5,4.3,3.9
		s2.7,2.8,3.9,4.3c2.4,3.1,4.4,6.6,5.3,10.4c0.1,0.7,0.2,1.5,0,2.3c-0.1,0.4-0.2,0.8-0.4,1.1c-0.2,0.4-0.4,0.7-0.7,1
		c-0.5,0.6-1.1,1-1.6,1.4l-1.6,1.4c-1.1,0.9-2.1,1.8-3.2,2.7s-2.2,1.8-3.5,2.5s-2.7,1.2-4.2,1.3s-3-0.5-4.2-1.3
		c-0.6-0.4-1.2-0.9-1.6-1.5c-0.5-0.6-0.9-1.2-1.2-1.8c-0.7-1.2-1.3-2.6-1.8-3.9l-6.1-15.7c-1-2.6-2-5.3-3-7.9
		c-0.5-1.3-0.7-2.7-1.1-4c-0.4-1.4-0.8-2.7-0.8-4.1l-0.1-1.1l0.1,1.1c0,1.4,0.6,2.7,1,4c0.5,1.3,0.9,2.6,1.4,4l3.1,7.8l6.4,15.6
		c0.5,1.3,1,2.6,1.7,3.8c0.4,0.6,0.7,1.2,1.2,1.7c0.4,0.5,0.9,1,1.5,1.3c1.1,0.8,2.4,1.2,3.7,1.1c1.3,0,2.6-0.5,3.8-1.2
		c1.2-0.7,2.3-1.5,3.3-2.4l3.2-2.7l1.6-1.4c0.5-0.5,1.1-0.9,1.5-1.3c0.2-0.2,0.4-0.5,0.6-0.7c0.2-0.3,0.3-0.6,0.3-0.9
		c0.1-0.6,0.1-1.3,0-1.9c-0.4-1.8-1.1-3.6-2-5.3s-1.9-3.3-3.1-4.8s-2.5-2.9-3.8-4.3c-1.3-1.4-2.8-2.7-4.2-4l-4.3-3.9l-4.4-3.8
		C278.6,261.5,275.7,258.9,272.8,256.3L272.8,256.3z M275.6,249.6c0,0,1.6,0,4.4,0.1c1.4,0.1,3.1,0.1,5.1,0.2c2,0.1,4.2,0.2,6.6,0.3
		c2.4,0.2,5,0.5,7.8,0.8s5.6,0.7,8.6,1.2c3,0.6,6,1.1,9.2,1.7l1.2,0.3c0.4,0.1,0.8,0.2,1.2,0.5c0.4,0.3,0.8,0.7,0.9,1.1
		c0.2,0.5,0.2,0.9,0.3,1.3c0.1,1.7-0.2,3.4-0.9,4.9c-1.5,3-4.1,5.3-7,6.8c-1.5,0.8-3.1,1.2-4.7,1.2c-1.7,0-3.2-0.5-4.6-1.1
		c-2.8-1.2-5.4-2.5-7.9-3.7s-4.9-2.3-7-3.3c-4.3-2.1-7.9-3.9-10.4-5.2c-2.5-1.3-4-2-4-2s1.5,0.7,4,1.8c2.6,1.2,6.2,2.8,10.6,4.9
		c4.4,2,9.5,4.3,15,6.7c1.4,0.6,2.8,1,4.3,1s3-0.5,4.3-1.2c2.7-1.4,5.1-3.7,6.5-6.4c0.6-1.4,1-2.9,0.9-4.4c-0.1-0.7-0.3-1.4-0.8-1.7
		c-0.2-0.2-0.6-0.3-1-0.4c-0.4-0.1-0.7-0.2-1.1-0.3c-3.1-0.6-6.2-1.2-9.1-1.8c-5.9-1-11.5-1.7-16.3-2.3c-4.8-0.4-8.8-0.7-11.6-0.9
		C277.2,249.6,275.6,249.6,275.6,249.6z M280.7,246.8c0,0,0.2-0.1,0.3-0.2c0.2-0.1,0.3-0.1,0.5-0.1s0.4,0.1,0.5,0.3
		c0.1,0.1,0.2,0.3,0.2,0.3s-0.1,0.2-0.3,0.3c-0.2,0.1-0.4,0.2-0.6,0.1c-0.2,0-0.4-0.1-0.5-0.3S280.7,246.8,280.7,246.8L280.7,246.8z
		"/>
	<path class="st0" d="M354.7,85.7c-1.7,22.1-17.6,214.4-20.9,242.1c-1.4,11.3,2,31.6-17.2,40.1c-6.4,2.8-15.3,4.1-24,5
		c-28.1,3-56.8,3.2-85.3,1.2c-19.7-1.4-44.9-0.8-59.1-8.5c-7.8-4.2-8.8-10.1-9.5-15.6c-5-41.7-9.1-82-11.9-123.8
		c-3.1-45.9-9.6-139.2-11.2-139.4S276.4,86.3,354.7,85.7L354.7,85.7z"/>
	<path d="M126.3,93.4c0,0,0.2,2.4,0.5,7c0.3,4.5,0.9,11.2,1.6,19.7c0.7,8.5,1.6,18.7,2.6,30.5c1.1,11.8,2.3,25.1,3.6,39.6
		c2.6,29,5.9,62.9,9.6,99.1c0.2,2.3,0.5,4.5,0.7,6.8c0.3,2.3,0.5,4.5,1.1,6.6s1.5,4,2.9,5.7c0.7,0.8,1.4,1.6,2.3,2.3l0.2,0.1
		l0.1,0.1l0.4,0.3l0.7,0.5c0.5,0.3,0.9,0.6,1.4,0.9c3.8,2.3,8.2,3.9,12.7,5.2s9.1,2.2,13.8,2.9c9.4,1.4,19,1.9,28.6,2.2l14.5,0.3
		c4.8,0,9.7,0,14.5-0.1h21.8c2.4,0,4.8-0.1,7.2-0.2c9.6-0.4,19.2-1.3,28.5-2.8c4.7-0.8,9.3-1.8,13.7-3.3c1.1-0.4,2.2-0.7,3.2-1.2
		l1.6-0.7l1.5-0.8l0.7-0.4l0.7-0.4l0.7-0.5l0.7-0.5c0.9-0.6,1.7-1.4,2.6-2.1c1.6-1.5,2.9-3.3,4-5.2s1.9-4,2.7-6.2l0.3-0.8v-0.1
		l0.1-0.2l0.1-0.4c0.1-0.6,0.3-1.1,0.4-1.7c0.2-1.1,0.4-2.1,0.5-3.3c0.3-2.3,0.6-4.5,0.8-6.8c1-9,1.8-17.9,2.6-26.7
		c0.7-8.7,1.5-17.3,2.2-25.6c1.4-16.6,2.6-32.4,4-46.9c1.3-14.5,2.6-27.8,3.6-39.6c1.1-11.8,2.1-22.1,2.8-30.5
		c1.6-16.9,2.5-26.6,2.5-26.6s-0.7,9.7-2,26.6c-0.6,8.5-1.4,18.8-2.3,30.6c-0.9,11.8-1.9,25.1-3.1,39.6c-1.2,14.5-2.2,30.3-3.4,46.9
		c-1.2,16.7-2.4,34.2-4.4,52.4c-0.2,2.3-0.5,4.6-0.8,6.8l-0.6,3.6c-0.1,0.6-0.3,1.1-0.4,1.7l-0.1,0.4l-0.1,0.2c0,0.1,0,0-0.1,0.3
		l-0.3,0.8c-0.8,2.2-1.7,4.4-2.9,6.6c-1.2,2.1-2.7,4.1-4.5,5.9c-0.9,0.8-1.8,1.6-2.9,2.4l-0.8,0.5l-0.7,0.5l-0.8,0.5l-0.8,0.4
		l-1.6,0.9l-1.7,0.7c-1.1,0.5-2.3,0.9-3.4,1.3c-4.6,1.6-9.3,2.6-14.1,3.4c-9.5,1.6-19.2,2.5-28.9,3c-2.4,0.1-4.9,0.2-7.3,0.3
		c-2.5,0.1-4.9,0-7.3,0.1c-4.9,0-9.7,0-14.6,0.1h-14.6l-14.6-0.3c-9.7-0.3-19.4-0.9-28.9-2.3c-4.8-0.7-9.5-1.7-14.1-3
		c-4.6-1.4-9.2-3-13.4-5.6c-0.5-0.3-1.1-0.7-1.6-1l-0.7-0.5l-0.3-0.3l-0.2-0.2l-0.2-0.2c-1-0.8-1.8-1.7-2.6-2.7
		c-1.6-2-2.7-4.3-3.4-6.7c-0.7-2.4-0.9-4.8-1.2-7c-0.2-2.3-0.5-4.6-0.7-6.8c-1.8-18.1-3.3-35.7-4.7-52.3s-2.7-32.4-3.9-46.9
		c-1.2-14.5-2.2-27.8-3-39.6c-0.8-11.8-1.5-22.1-2.1-30.6s-0.9-15.1-1.2-19.7C126.4,95.8,126.3,93.4,126.3,93.4L126.3,93.4z"/>
	<path class="st3" d="M164,243.4c-1.9,2.9-2.6,7.1-3.3,10.1c-1.7,7.5-3.7,14.9-5.9,22.2c-0.9,2.9-1.9,5.8-2,8.8
		c-0.2,2.9,0.4,5.5,1.1,8.1c2.3,8.8,6.3,17.4,13.4,19.7c2.4,0.8,5,0.8,7.5,0.9c11.7,0.8,22.6,5.6,34.3,6.4c2.7,0.2,5.5,0.1,8.2-1.5
		c4.8-2.9,7.4-9.8,9.1-16.1c2.5-9.5,4-19.2,7.5-28.4c1.2-3,2.6-6.4,1.9-9.3c-0.7-3.1-13.5-11.1-17.4-14c-3.3-2.4-8.2-3.1-12-4
		c-6.3-1.4-12.6-2.4-19-3.3c-5.6-0.8-11.8-2.5-17.4-2.7C167.1,240.1,165.3,241.4,164,243.4L164,243.4z"/>
	<path d="M163.2,244c0,0,0.8,0.9,2.3,2.6c1.4,1.7,3.5,4.1,5.9,7c2.4,2.9,5.2,6.4,8.7,9.4c1.8,1.5,3.7,2.8,5.9,3.7
		c2.2,0.9,4.6,1.3,7.1,1.4c2.5,0.2,5,0.1,7.5,0.1c2.5-0.1,4.9,0,7.3-0.1c4.7,0,9.2,0,12.9-0.2c3.8-0.2,6.9-0.7,9-1.2
		c2.2-0.5,3.4-0.8,3.4-0.8s-0.3,0.1-0.8,0.3c-0.6,0.2-1.4,0.5-2.4,0.9c-2.1,0.7-5.2,1.5-9,1.9c-3.8,0.5-8.3,0.6-13,0.8
		c-2.4,0.1-4.8,0.2-7.3,0.2c-2.5,0.1-5,0.1-7.6,0c-2.6-0.2-5.2-0.6-7.7-1.6c-2.4-1-4.5-2.5-6.4-4.1c-1.8-1.6-3.3-3.4-4.7-5.1
		c-1.4-1.7-2.6-3.4-3.7-4.9c-2.2-3.1-4-5.7-5.3-7.5C164,245.1,163.2,244,163.2,244L163.2,244z M183.7,267.8c0,0-0.2,0.6-0.6,1.7
		c-0.4,1.1-0.9,2.6-1.6,4.5c-1.4,3.7-3.2,8.6-5,13.5s-3.6,9.8-5,13.5c-0.7,1.8-1.3,3.4-1.7,4.5c-0.4,1.1-0.7,1.7-0.7,1.7
		s0.4-2.6,1.3-6.5c0.4-1.9,1-4.2,1.7-6.5c0.4-1.2,0.7-2.4,1.2-3.6c0.4-1.2,0.9-2.5,1.3-3.7c0.5-1.2,1-2.5,1.4-3.7
		c0.5-1.2,1-2.4,1.5-3.5c1-2.3,2-4.3,2.9-6.1C182.3,270,183.7,267.8,183.7,267.8L183.7,267.8z"/>
	<path class="st3" d="M287.3,183.2c0.4,0.4,0.8,0.7,1.2,1.2c0.9,1.2,1.5,2.6,2.1,4c4.4,11.2,4.7,19.8,6.2,31.5
		c0.3,2.7,0.6,5.5-0.3,8c-1.4,4-5.4,6.4-8.4,9.4c-4.2,4.1-6.6,9.6-9.8,14.5c-3.2,4.9-7.7,9.6-13.5,10.3c-2.3,0.3-4.7-0.1-7-0.4
		c-5.1-0.8-10.3-1.6-15.4-2.4c-5.9-0.9-12.1-2-16.9-5.5c-7.1-5.3-9.5-14.7-11.3-23.3c-1.5-6.9-3-14.4-0.1-20.8
		c1.3-2.9,3.4-5.4,5.4-7.9c3.8-4.5,7.6-8.9,11.3-13.4c12-14.2,35.4-13.4,51.3-7.7C283.9,181.2,285.8,181.9,287.3,183.2L287.3,183.2z
		"/>
	<path d="M246.1,183.7c0,0,1.8,3.4,4.4,8.7c1.3,2.6,2.7,5.7,4.2,9c0.7,1.7,1.5,3.4,2.3,5.1c0.8,1.7,1.5,3.5,2.3,5.3
		c0.8,1.7,1.7,3.3,2.9,4.5c1.2,1.1,2.9,1.9,4.5,2.4c1.7,0.5,3.4,0.8,5,1.2s3.2,0.7,4.6,1.1c5.7,1.3,9.4,2.4,9.4,2.4
		s-3.9-0.4-9.6-1.3c-1.4-0.2-3-0.5-4.6-0.7c-1.6-0.3-3.4-0.5-5.2-1c-1.8-0.5-3.8-1.2-5.4-2.6c-1.6-1.4-2.6-3.3-3.4-5.1
		s-1.5-3.6-2.3-5.3c-0.8-1.8-1.4-3.5-2.1-5.2c-1.4-3.4-2.6-6.5-3.7-9.2C247.3,187.4,246.1,183.7,246.1,183.7L246.1,183.7z"/>
	<path d="M261.5,217.7c0,0-1.3,2.1-3.5,5.1c-1.1,1.5-2.4,3.2-3.8,5c-0.7,0.9-1.5,1.8-2.3,2.7s-1.6,1.9-2.4,2.8
		c-0.8,0.9-1.7,1.8-2.5,2.7s-1.7,1.7-2.4,2.6c-1.6,1.7-3.1,3.2-4.5,4.4c-2.7,2.5-4.6,4.1-4.6,4.1s1.5-2,3.8-4.8
		c1.2-1.4,2.5-3.1,4-4.8c0.8-0.9,1.5-1.8,2.3-2.7s1.6-1.8,2.4-2.8l2.4-2.7c0.8-0.9,1.6-1.8,2.4-2.6c1.5-1.7,3-3.3,4.3-4.6
		C259.7,219.4,261.5,217.7,261.5,217.7L261.5,217.7z"/>
	<path class="st3" d="M138.9,185.9c-1.5,4.6-0.1,9.7,1.3,14.3c3.6,11.8,7.7,24.5,17.6,31.9c7.1,5.3,16.1,7.1,24.8,8.7
		c2.6,0.5,5.4,1,7.8-0.1c2.3-1,3.8-3.2,5.2-5.3c4.2-6.4,8.4-12.7,12.5-19.1c3.3-5,6.7-10.4,6.4-16.4c-0.2-4.3-2.3-8.4-4.3-12.2
		c-3.1-5.9-6.3-11.7-9.4-17.6c-0.9-1.7-1.8-3.4-3.3-4.7c-1.7-1.5-4-2.3-6.3-2.9c-9.4-2.6-22.5-6.9-31.1-0.6
		C153.4,167,141.5,178,138.9,185.9z"/>
	<path d="M146.6,189.4c0,0,0.1,0.2,0.4,0.6c0.3,0.4,0.7,0.9,1.4,1.5s1.6,1.2,2.7,1.7s2.4,1.1,3.8,1.7c1.4,0.6,3,1.3,4.5,2.4
		c1.5,1.1,2.9,2.3,4.4,3.4c1.5,1.1,3.1,2,4.8,2c1.8,0.1,3.5-0.7,5-1.8c1.5-1.2,2.8-2.7,4-4.3s2.3-3.3,3.4-4.8
		c2.2-3.1,4.3-6.1,6.1-8.5c1.8-2.5,3.4-4.5,4.5-5.9s1.7-2.2,1.7-2.2s-0.5,0.9-1.4,2.4s-2.2,3.8-3.8,6.4c-1.6,2.6-3.5,5.6-5.6,8.9
		c-1.1,1.6-2.1,3.3-3.3,5c-1.2,1.7-2.6,3.3-4.3,4.7c-0.9,0.7-1.8,1.3-2.9,1.7l-0.8,0.3l-0.8,0.2c-0.6,0.1-1.2,0.1-1.7,0.1
		c-2.4-0.1-4.3-1.3-5.8-2.6c-1.6-1.2-2.8-2.6-4.2-3.6c-1.3-1.1-2.7-1.9-4.1-2.6c-1.4-0.7-2.6-1.4-3.7-2.1c-1.1-0.7-1.9-1.4-2.6-2.1
		c-0.6-0.7-1-1.3-1.2-1.7C146.7,189.6,146.6,189.4,146.6,189.4L146.6,189.4z M170,205.9c0,0,0.4,0.3,1.2,0.7c0.4,0.2,0.8,0.6,1.3,1
		c0.2,0.2,0.5,0.4,0.8,0.6l0.8,0.8c0.5,0.5,1.1,1.2,1.6,1.9s1.1,1.4,1.6,2.2s1,1.6,1.5,2.5s0.9,1.7,1.4,2.6c0.9,1.8,1.8,3.5,2.6,5.1
		c0.5,0.8,0.8,1.6,1.3,2.3c0.4,0.7,0.8,1.4,1.3,2l0.6,0.9c0.2,0.3,0.4,0.5,0.6,0.7c0.4,0.5,0.7,0.9,1,1.2c0.6,0.6,0.9,1,0.9,1
		s-0.4-0.3-1.2-0.7c-0.4-0.2-0.8-0.6-1.3-1c-0.2-0.2-0.5-0.4-0.8-0.6l-0.8-0.8c-0.5-0.5-1.1-1.2-1.6-1.9s-1.1-1.4-1.6-2.2
		s-1-1.6-1.5-2.5s-0.9-1.7-1.4-2.6c-0.9-1.8-1.8-3.5-2.6-5.1c-0.5-0.8-0.8-1.6-1.3-2.3c-0.4-0.7-0.8-1.4-1.3-2l-0.6-0.9
		c-0.2-0.3-0.4-0.5-0.6-0.7c-0.4-0.5-0.7-0.9-1-1.2C170.3,206.3,170,205.9,170,205.9z M127.8,105.7h9.3c3,0,6.6-0.1,10.7-0.3
		c4.1-0.2,8.8-0.5,13.8-0.8c5.1-0.4,10.6-0.8,16.4-1.3s11.9-1,18.3-1.4c3.2-0.2,6.4-0.4,9.7-0.6c3.3-0.2,6.6-0.3,9.9-0.4
		s6.7-0.2,10.1-0.3c3.4-0.1,6.8-0.1,10.2-0.2c6.8-0.1,13.6,0,20.3,0.1c6.7,0.1,13.3,0.3,19.6,0.6c6.4,0.2,12.5,0.6,18.3,1
		s11.3,0.8,16.4,1.3c5.1,0.4,9.7,0.9,13.8,1.4c4.1,0.5,7.7,0.9,10.6,1.3s5.3,0.7,6.8,0.9l2.4,0.3c0,0-3.4-0.3-9.3-0.7
		c-3-0.2-6.6-0.4-10.7-0.7c-4.1-0.2-8.8-0.5-13.8-0.8c-2.5-0.1-5.2-0.3-7.9-0.4c-2.7-0.1-5.6-0.2-8.5-0.4c-5.8-0.2-12-0.4-18.3-0.6
		s-12.9-0.2-19.6-0.3c-6.7-0.1-13.4-0.1-20.2,0c-3.4,0-6.8,0.1-10.1,0.1c-3.4,0.1-6.7,0.1-10.1,0.2L206,104
		c-3.3,0.1-6.5,0.3-9.7,0.4c-12.7,0.6-24.5,1.4-34.7,1.7c-5.1,0.2-9.8,0.2-13.9,0.2s-7.7-0.1-10.7-0.3c-3-0.1-5.3-0.3-6.9-0.4
		C128.7,105.8,127.8,105.7,127.8,105.7L127.8,105.7z"/>
	<g>
		<path class="st3" d="M328.3,225.2c-16,7.4-16,5.9-32,13.5c-15.4,7.3-30.8,14.8-44.3,24.9c-13.4,10-25.1,22.5-40.5,29.1
			c-3.4,1.4-7.1,2.7-9.6,5.3c19.5,12,40.6,19.5,61,21.6c4.2,0.5,22.6-3,27.3-5.3c11-5.2,18.6-11.4,26-21.2
			c9.8-13.2,15-23.1,13.4-42.2C328.9,244.3,329.2,232.5,328.3,225.2L328.3,225.2z"/>
		<path class="st4" d="M322.1,227.5c0.4,1.6,0.6,2.8,1,4.4c0.8,3.2,0.7,6.4,0.6,9.5c-0.4,16.8-2.7,31.2-11,43.9
			c-5.4,7.5-12.6,13.1-19.7,18.7c-3.9,3-7.9,6.1-12.6,7.7c-7,2.4-15.3,1.5-23.3,0c-13.8-2.4-28-5.9-40.8-15.2
			c-1.6-1.1-2.1-2.5-3.1-4.2"/>
		<path class="st4" d="M257.1,260c0.5,1.5,2,2.5,3.6,2.9s3.2,0.1,4.7-0.3c2.5-0.7,5.1-2,6.7-4c1.6-2.1,2.2-5.2,0.8-7.4"/>
		<g>
			<path d="M266.2,263c0.6,2,1.2,4.1,1.8,6.1l1.7,6.1l0.8,3.1c0.3,1,0.6,2.1,0.8,3.1l1.5,6.2c0.5,2.1,1,4.1,1.4,6.2
				c0.2,1,0.4,2.1,0.6,3.1c0.2,1.1,0.4,2.1,0.5,3.2c0.1,1.1,0.1,2.2,0,3.3c0,1.1-0.3,2.2-0.7,3.2c-0.4,1-0.9,2-1.6,2.9
				s-1.6,1.6-2.5,2.2c-0.2,0.1-0.3,0.2-0.4,0.2s-0.2,0.1-0.3,0.1c-0.1,0.1-0.3,0.1-0.4,0.2c-0.1,0-0.3,0.1-0.4,0.1h0.1
				c-1.4,0.5-2.9,0.4-4.3,0.3c-1.4-0.1-2.8-0.4-4.1-0.7c-2.7-0.6-5.4-1.2-8-2.5c-0.6-0.3-1.2-0.7-1.8-1.1c-0.6-0.4-1.1-0.9-1.6-1.4
				c-1-1-1.8-2.2-2.4-3.5s-0.9-2.8-0.8-4.2s0.4-2.8,0.8-4.1l0.3-1l0.1-0.2c0-0.1,0.1-0.2,0.1-0.3l0.2-0.5l0.7-1.9l1.4-3.9l1.4-3.9
				c0.5-1.3,0.9-2.6,1.5-3.9c0.7-1.2,1.3-2.4,1.9-3.7l1.7-3.7c0.6-1.2,1.2-2.5,1.6-3.8c0.5-1.3,0.9-2.6,1.2-3.9
				c-0.2,1.4-0.6,2.7-1,4s-1,2.6-1.5,3.8l-1.6,3.8c-0.3,0.6-0.5,1.3-0.8,1.9l-0.9,1.8c-0.6,1.2-1,2.5-1.4,3.8l-1.4,3.9l-1.4,3.9
				l-0.7,1.9l-0.2,0.5c0,0.1-0.1,0.2-0.1,0.2l-0.1,0.2l-0.3,1c-0.4,1.3-0.7,2.6-0.8,3.9c0,1.3,0.2,2.6,0.8,3.8
				c0.5,1.2,1.3,2.3,2.3,3.2c0.9,0.9,2,1.7,3.2,2.3c2.4,1.2,5,1.9,7.7,2.4c1.3,0.3,2.7,0.6,4,0.7c1.3,0.1,2.7,0.2,3.9-0.2h0.1
				c0.1,0,0.2,0,0.3-0.1c0.1,0,0.2-0.1,0.3-0.1c0.3-0.1,0.5-0.2,0.6-0.3c1.8-1,3.1-2.6,3.8-4.6c0.3-1,0.6-1.9,0.6-3
				c0.1-1,0.1-2.1,0-3.1s-0.3-2.1-0.4-3.1l-0.6-3.1c-0.4-2.1-0.9-4.2-1.3-6.2l-1.4-6.2c-0.2-1-0.5-2-0.7-3.1l-0.8-3.1l-1.5-6.2
				L266.2,263L266.2,263z M254.6,264.7l1.5-2.3l0.2,0.1l-2.1,3.6l-2.1,3.6c-1.4,2.4-2.7,4.8-3.9,7.2c-0.6,1.2-1.2,2.5-1.7,3.7
				l-1.5,3.8l-0.4,1l-0.2,0.5l-0.1,0.5l-0.6,2l-1.1,4c-0.4,1.3-0.8,2.7-1.5,4l-0.6,0.9l-0.3,0.4c-0.1,0.1-0.2,0.3-0.3,0.4
				c-0.5,0.6-1,1.1-1.6,1.5c-1.2,0.8-2.6,1.3-4,1.6c-1.4,0.2-2.9,0-4.2-0.3c-1.4-0.3-2.7-0.9-3.8-1.7c-1.2-0.8-2.2-1.8-3.1-2.8
				s-1.7-2.2-2.5-3.3c-0.7-1.2-1.4-2.4-2-3.6c0.8,1.1,1.5,2.3,2.3,3.4c0.8,1.1,1.6,2.2,2.6,3.1c1,1,2,1.9,3.1,2.6s2.4,1.2,3.7,1.5
				c1.3,0.3,2.7,0.4,3.9,0.2c1.3-0.2,2.6-0.7,3.6-1.5c0.5-0.4,1-0.8,1.4-1.3c0.1-0.1,0.2-0.2,0.3-0.4l0.3-0.4
				c0.2-0.3,0.3-0.6,0.5-0.8c0.6-1.2,1-2.4,1.4-3.8c0.3-1.4,0.8-2.6,1.1-4l0.6-2c0.1-0.2,0.1-0.3,0.2-0.5l0.2-0.5l0.4-1l1.5-3.8
				c0.6-1.3,1.2-2.5,1.8-3.8c1.3-2.4,2.7-4.8,4.2-7.1c1.4-2.3,2.9-4.7,4.5-6.9l0.2,0.1L254.6,264.7L254.6,264.7z M272.8,256.3l9,7.4
				l4.5,3.7l4.4,3.8c1.5,1.3,2.9,2.5,4.3,3.9s2.7,2.8,3.9,4.3c2.4,3.1,4.4,6.6,5.3,10.4c0.1,0.7,0.2,1.5,0,2.3
				c-0.1,0.4-0.2,0.8-0.4,1.1c-0.2,0.4-0.4,0.7-0.7,1c-0.5,0.6-1.1,1-1.6,1.4l-1.6,1.4c-1.1,0.9-2.1,1.8-3.2,2.7s-2.2,1.8-3.5,2.5
				s-2.7,1.2-4.2,1.3s-3-0.5-4.2-1.3c-0.6-0.4-1.2-0.9-1.6-1.5c-0.5-0.6-0.9-1.2-1.2-1.8c-0.7-1.2-1.3-2.6-1.8-3.9l-6.1-15.7
				c-1-2.6-2-5.3-3-7.9c-0.5-1.3-0.7-2.7-1.1-4c-0.4-1.4-0.8-2.7-0.8-4.1l-0.1-1.1l0.1,1.1c0,1.4,0.6,2.7,1,4c0.5,1.3,0.9,2.6,1.4,4
				l3.1,7.8l6.4,15.6c0.5,1.3,1,2.6,1.7,3.8c0.4,0.6,0.7,1.2,1.2,1.7c0.4,0.5,0.9,1,1.5,1.3c1.1,0.8,2.4,1.2,3.7,1.1
				c1.3,0,2.6-0.5,3.8-1.2c1.2-0.7,2.3-1.5,3.3-2.4l3.2-2.7l1.6-1.4c0.5-0.5,1.1-0.9,1.5-1.3c0.2-0.2,0.4-0.5,0.6-0.7
				c0.2-0.3,0.3-0.6,0.3-0.9c0.1-0.6,0.1-1.3,0-1.9c-0.4-1.8-1.1-3.6-2-5.3s-1.9-3.3-3.1-4.8s-2.5-2.9-3.8-4.3
				c-1.3-1.4-2.8-2.7-4.2-4l-4.3-3.9l-4.4-3.8C278.6,261.5,275.7,258.9,272.8,256.3L272.8,256.3z M275.6,249.6c0,0,1.6,0,4.4,0.1
				c1.4,0.1,3.1,0.1,5.1,0.2c2,0.1,4.2,0.2,6.6,0.3c2.4,0.2,5,0.5,7.8,0.8s5.6,0.7,8.6,1.2c3,0.6,6,1.1,9.2,1.7l1.2,0.3
				c0.4,0.1,0.8,0.2,1.2,0.5c0.4,0.3,0.8,0.7,0.9,1.1c0.2,0.5,0.2,0.9,0.3,1.3c0.1,1.7-0.2,3.4-0.9,4.9c-1.5,3-4.1,5.3-7,6.8
				c-1.5,0.8-3.1,1.2-4.7,1.2c-1.7,0-3.2-0.5-4.6-1.1c-2.8-1.2-5.4-2.5-7.9-3.7s-4.9-2.3-7-3.3c-4.3-2.1-7.9-3.9-10.4-5.2
				c-2.5-1.3-4-2-4-2s1.5,0.7,4,1.8c2.6,1.2,6.2,2.8,10.6,4.9c4.4,2,9.5,4.3,15,6.7c1.4,0.6,2.8,1,4.3,1s3-0.5,4.3-1.2
				c2.7-1.4,5.1-3.7,6.5-6.4c0.6-1.4,1-2.9,0.9-4.4c-0.1-0.7-0.3-1.4-0.8-1.7c-0.2-0.2-0.6-0.3-1-0.4c-0.4-0.1-0.7-0.2-1.1-0.3
				c-3.1-0.6-6.2-1.2-9.1-1.8c-5.9-1-11.5-1.7-16.3-2.3c-4.8-0.4-8.8-0.7-11.6-0.9C277.2,249.6,275.6,249.6,275.6,249.6z
				 M280.7,246.8c0,0,0.2-0.1,0.3-0.2c0.2-0.1,0.3-0.1,0.5-0.1s0.4,0.1,0.5,0.3c0.1,0.1,0.2,0.3,0.2,0.3s-0.1,0.2-0.3,0.3
				c-0.2,0.1-0.4,0.2-0.6,0.1c-0.2,0-0.4-0.1-0.5-0.3S280.7,246.8,280.7,246.8L280.7,246.8z"/>
			<path d="M318.6,231.4l0.7,2.3c0.2,0.9,0.3,1.8,0.2,2.7c0,0.9-0.4,1.8-0.8,2.7c-0.2,0.4-0.5,0.8-0.9,1.1l-0.5,0.5
				c-0.2,0.2-0.4,0.3-0.6,0.4c-0.8,0.6-1.6,1-2.5,1.2c-0.9,0.3-1.8,0.4-2.7,0.5l-2.7,0.5c-1.8,0.3-3.5,0.6-5.3,0.9l-5.3,0.8
				l-2.7,0.4c-0.9,0.1-1.8,0.3-2.7,0.4l-2.7,0.3c-0.9,0.1-1.8,0.2-2.7,0.4l-2.7,0.4c-0.9,0.1-1.8,0.1-2.7,0.1
				c-0.5,0-1.1-0.2-1.6-0.4c0.5,0.2,1,0.4,1.6,0.4c0.9,0,1.8-0.2,2.6-0.4l2.6-0.6c0.9-0.2,1.8-0.4,2.6-0.5l2.6-0.5l2.6-0.5l2.7-0.4
				l5.3-0.9l5.3-0.9l2.6-0.4c0.9-0.2,1.8-0.2,2.6-0.5c0.8-0.2,1.6-0.6,2.3-1c0.2-0.1,0.3-0.2,0.5-0.4c0.2-0.1,0.4-0.3,0.5-0.4
				c0.3-0.3,0.6-0.6,0.8-1c0.5-0.7,0.8-1.5,0.9-2.4s0.1-1.8,0-2.6L318.6,231.4L318.6,231.4z"/>
		</g>
	</g>
	<g>
		<path class="st3" d="M223.5,127.9c11.8,13.1,10.4,13.5,22.4,26.5c11.6,12.5,23.3,25,37,34.9c13.5,9.8,29,17.2,39.9,30
			c2.4,2.8,4.7,6,7.9,7.6c5.6-22.2,6.5-44.6,2.4-64.7c-0.8-4.2-9.6-20.7-13.2-24.5c-8.2-8.9-16.4-14.4-28-18.5
			c-15.5-5.4-26.5-7.4-44.3-0.2C241.6,121.7,230.2,124.9,223.5,127.9L223.5,127.9z"/>
		<path class="st4" d="M227.5,133.2c1.4-0.9,2.5-1.4,3.9-2.3c2.8-1.7,5.9-2.6,8.9-3.4c16.2-4.6,30.6-6.7,45.2-2.6
			c8.8,2.9,16.3,8.1,23.7,13.2c4,2.8,8.2,5.7,11.1,9.7c4.4,6,6,14.2,6.9,22.2c1.8,13.9,2.7,28.5-2.3,43.5c-0.6,1.9-1.8,2.7-3.1,4.2"
			/>
		<path class="st4" d="M277.9,185.5c1.3-0.9,1.8-2.7,1.7-4.3c-0.1-1.6-0.9-3.1-1.7-4.4c-1.4-2.2-3.4-4.3-5.8-5.2
			c-2.5-0.9-5.6-0.5-7.3,1.4"/>
		<g>
			<path d="M278.1,175.9c1.7-1.2,3.6-2.4,5.3-3.5l5.3-3.4l2.7-1.7c0.9-0.6,1.8-1.2,2.7-1.7l5.5-3.3c1.9-1.1,3.6-2.2,5.5-3.2
				c0.9-0.5,1.9-1,2.8-1.5c1-0.5,1.9-1,2.9-1.4s2.1-0.8,3.1-1c1-0.3,2.2-0.4,3.3-0.3c1.1,0.1,2.2,0.3,3.2,0.7c1.1,0.4,2,1.1,2.8,1.7
				c0.2,0.2,0.3,0.2,0.3,0.3s0.2,0.2,0.2,0.3c0.1,0.1,0.2,0.3,0.3,0.3c0,0.1,0.2,0.3,0.2,0.4v-0.1c0.9,1.2,1.2,2.6,1.6,4
				c0.3,1.4,0.5,2.8,0.6,4.1c0.2,2.8,0.5,5.5,0,8.4c-0.1,0.7-0.3,1.4-0.5,2c-0.2,0.7-0.5,1.3-0.9,1.9c-0.7,1.3-1.6,2.4-2.6,3.3
				s-2.4,1.7-3.8,2s-2.8,0.5-4.2,0.5h-1h-0.2c-0.1,0-0.2,0-0.3,0h-0.5l-2-0.1l-4.1-0.2l-4.1-0.2c-1.4-0.1-2.8-0.1-4.2-0.3
				c-1.4-0.3-2.7-0.5-4.1-0.7l-4-0.5c-1.3-0.2-2.7-0.4-4.1-0.4c-1.4-0.1-2.8-0.1-4.1,0c1.4-0.2,2.8-0.2,4.1-0.2
				c1.4,0,2.8,0.2,4.1,0.3l4.1,0.4c0.7,0.1,1.4,0.1,2.1,0.2l2,0.3c1.3,0.2,2.7,0.2,4,0.2l4.1,0.2l4.1,0.2l2,0.1h0.5
				c0.1,0,0.2,0,0.2,0h0.2h1c1.4,0,2.7-0.1,4-0.4c1.2-0.4,2.4-1,3.4-1.9c1-0.8,1.8-1.9,2.4-3.1c0.6-1.1,1-2.4,1.2-3.7
				c0.4-2.6,0.3-5.3,0-8.1c-0.1-1.3-0.2-2.8-0.5-4c-0.3-1.3-0.6-2.6-1.4-3.7V159c0-0.1-0.1-0.2-0.2-0.3c0-0.1-0.2-0.2-0.2-0.3
				c-0.2-0.3-0.3-0.4-0.5-0.5c-1.5-1.4-3.4-2.2-5.5-2.3c-1,0-2,0-3,0.3c-1,0.2-2,0.5-3,0.9c-0.9,0.4-1.9,0.9-2.8,1.3l-2.8,1.5
				c-1.9,1-3.7,2.1-5.5,3.1l-5.5,3.2c-0.9,0.5-1.8,1.1-2.8,1.6l-2.7,1.7l-5.5,3.3L278.1,175.9L278.1,175.9z M283.2,186.5l-2.6-0.7
				v-0.2l4.1,0.9l4.1,0.9c2.7,0.6,5.4,1.1,8,1.6c1.3,0.2,2.7,0.4,4,0.5l4.1,0.3l1.1,0.1h0.5l0.5-0.1h2.1l4.1-0.1
				c1.4,0,2.8,0,4.3,0.2l1,0.3l0.5,0.2c0.1,0.1,0.3,0.1,0.5,0.2c0.7,0.3,1.3,0.6,1.9,1.1c1.1,0.9,2,2.1,2.7,3.3
				c0.6,1.3,0.9,2.8,1,4.1c0.1,1.4-0.1,2.8-0.5,4.1c-0.4,1.4-1.1,2.6-1.7,3.8c-0.7,1.2-1.6,2.3-2.4,3.4c-0.9,1-1.9,2.1-2.8,3
				c0.8-1.1,1.7-2.1,2.6-3.2s1.6-2.2,2.2-3.4c0.7-1.3,1.2-2.5,1.6-3.7c0.3-1.3,0.4-2.6,0.3-4c-0.1-1.3-0.4-2.7-1-3.8
				c-0.6-1.2-1.4-2.3-2.5-3c-0.5-0.4-1.1-0.7-1.7-0.9c-0.1-0.1-0.3-0.1-0.5-0.2l-0.5-0.2c-0.3-0.1-0.7-0.1-0.9-0.2
				c-1.3-0.2-2.6-0.2-4-0.2c-1.4,0.1-2.7,0-4.1,0.1h-2.1c-0.2,0-0.3,0-0.5,0h-0.5l-1.1-0.1l-4.1-0.3c-1.4-0.2-2.7-0.4-4.2-0.6
				c-2.7-0.5-5.4-1.1-8-1.9c-2.6-0.7-5.4-1.4-7.9-2.2v-0.2L283.2,186.5L283.2,186.5z M269.7,171.6l4.4-10.8l2.2-5.4l2.3-5.3
				c0.8-1.8,1.5-3.5,2.4-5.3s1.9-3.4,2.9-5c2.2-3.2,5-6.2,8.3-8.2c0.6-0.3,1.4-0.6,2.2-0.7c0.4,0,0.8,0,1.2,0.1
				c0.4,0.1,0.8,0.2,1.2,0.4c0.7,0.3,1.3,0.8,1.8,1.1l1.8,1.1c1.2,0.8,2.3,1.5,3.5,2.2c1.2,0.8,2.4,1.6,3.4,2.6s2,2.2,2.5,3.6
				s0.4,3,0,4.4c-0.2,0.7-0.5,1.4-1,2c-0.4,0.7-0.9,1.2-1.4,1.7c-0.9,1-2.1,2-3.2,2.9L291,163.5c-2.2,1.7-4.5,3.5-6.6,5.2
				c-1.1,0.9-2.4,1.5-3.5,2.2c-1.2,0.8-2.3,1.6-3.7,2l-1,0.4l1-0.4c1.3-0.4,2.4-1.4,3.5-2.1c1.1-0.9,2.2-1.6,3.4-2.5l6.5-5.3
				l13-10.8c1.1-0.9,2.2-1.7,3.1-2.8c0.5-0.6,0.9-1,1.3-1.7c0.4-0.5,0.7-1.2,0.8-1.8c0.4-1.3,0.4-2.6-0.1-3.9
				c-0.4-1.2-1.3-2.3-2.3-3.3c-1-0.9-2.1-1.7-3.3-2.4l-3.5-2.2l-1.8-1.1c-0.6-0.3-1.2-0.8-1.7-1c-0.3-0.1-0.6-0.2-0.8-0.4
				c-0.3-0.1-0.7-0.1-0.9,0c-0.6,0.1-1.3,0.3-1.8,0.6c-1.6,0.9-3.1,2.1-4.5,3.5s-2.6,2.8-3.7,4.4s-2,3.3-3,4.9
				c-0.9,1.7-1.7,3.5-2.6,5.2l-2.4,5.3l-2.3,5.3C273,164.6,271.4,168.1,269.7,171.6L269.7,171.6z M262.5,171c0,0-0.5-1.5-1.2-4.2
				c-0.3-1.4-0.8-3-1.3-4.9s-1.1-4.1-1.7-6.4c-0.5-2.4-1-4.9-1.6-7.7s-1-5.6-1.4-8.6c-0.3-3-0.7-6.1-1.1-9.3l-0.1-1.2
				c0-0.4,0-0.8,0.1-1.3s0.4-1,0.8-1.2c0.4-0.3,0.8-0.5,1.2-0.7c1.6-0.6,3.3-0.8,4.9-0.6c3.3,0.5,6.3,2.3,8.6,4.7
				c1.2,1.2,2.1,2.6,2.5,4.1c0.5,1.6,0.5,3.2,0.3,4.7c-0.3,3-0.8,5.9-1.2,8.6c-0.4,2.7-0.7,5.4-1.1,7.7c-0.7,4.7-1.4,8.7-1.9,11.5
				s-0.7,4.4-0.7,4.4s0.2-1.6,0.5-4.4c0.4-2.8,0.8-6.8,1.5-11.6c0.6-4.8,1.3-10.4,1.9-16.3c0.2-1.5,0.1-3-0.3-4.4s-1.4-2.7-2.4-3.7
				c-2.1-2.2-5.1-3.8-8-4.3c-1.5-0.2-3.1-0.1-4.5,0.5c-0.6,0.3-1.2,0.7-1.4,1.3c-0.1,0.3-0.1,0.7-0.1,1.1s0,0.7,0,1.1
				c0.4,3.1,0.7,6.3,1,9.2c0.8,5.9,1.8,11.5,2.7,16.2c1,4.7,2,8.6,2.6,11.3C262,169.4,262.5,171,262.5,171z M258.3,166.9
				c0,0-0.2-0.2-0.3-0.2c-0.2-0.2-0.2-0.3-0.2-0.4s0-0.4,0.1-0.6c0.1-0.1,0.2-0.3,0.2-0.3s0.2,0,0.4,0.2c0.2,0.2,0.3,0.3,0.3,0.5
				c0.1,0.2,0,0.4-0.1,0.6C258.5,166.9,258.3,166.9,258.3,166.9L258.3,166.9z"/>
			<path d="M232.3,135.3l2-1.4c0.8-0.5,1.6-0.8,2.5-1c0.9-0.3,1.8-0.2,2.8,0c0.4,0.1,0.9,0.2,1.3,0.5l0.6,0.3
				c0.3,0.1,0.4,0.3,0.6,0.5c0.8,0.6,1.4,1.2,1.9,2c0.6,0.8,0.9,1.6,1.3,2.4l1.3,2.4c0.8,1.6,1.6,3.2,2.4,4.8l2.3,4.8l1.2,2.5
				c0.4,0.8,0.8,1.6,1.2,2.5l1.1,2.5c0.4,0.8,0.7,1.7,1.2,2.5l1.2,2.5c0.4,0.8,0.6,1.7,0.9,2.5c0.1,0.5,0.1,1.1,0.1,1.6
				c0-0.5,0.1-1.1-0.1-1.6c-0.3-0.9-0.7-1.7-1.2-2.4l-1.3-2.3c-0.5-0.8-0.9-1.6-1.3-2.3l-1.3-2.3l-1.3-2.3l-1.2-2.5l-2.4-4.8
				l-2.4-4.8l-1.2-2.4c-0.5-0.8-0.7-1.7-1.3-2.3c-0.4-0.7-1-1.3-1.6-1.9c-0.2-0.2-0.3-0.2-0.5-0.4c-0.2-0.2-0.4-0.3-0.5-0.4
				c-0.4-0.2-0.8-0.4-1.2-0.5c-0.8-0.3-1.7-0.3-2.6-0.1s-1.7,0.4-2.5,0.8L232.3,135.3L232.3,135.3z"/>
		</g>
	</g>
	<g>
		<path class="st5" d="M130.2,148.1c29.6-0.8,58-24.1,64.7-53.6C207.8,37.1,145.5-12.9,93.3,16c-12.4,6.8-22.4,13.6-30.2,25.4
			c-1.5,2.3-2.7,8.8-3.8,11.4c-5.9,12.9-4.7,31.4-0.1,44.3c9.2,25.7,34,45.3,59.7,50.8"/>
		<path class="st6" d="M117,78c2.7,3.6,7.6,5.4,12,4.6c1.5-0.3,2.9-0.7,4-1.7c1.1-0.9,1.8-2.1,2.3-3.3c2.9-6.7-1.8-18.7-10.3-18.5
			C116.1,59.1,112.2,71.5,117,78L117,78z"/>
		<path d="M126.2,83.7c0,0,0.8,2.2,2.3,5.9c1.5,3.8,3.7,9.1,6.4,15.4c1.4,3.2,2.8,6.6,4.5,10.2c0.8,1.8,1.7,3.7,2.5,5.5
			c0.5,0.9,0.9,1.9,1.3,2.8s0.9,2,1.4,2.8c0.5,0.9,1.1,1.6,1.8,2.2c0.8,0.6,1.7,0.9,2.7,1.1c2.1,0.5,4.2,0.7,6.4,0.4
			c4.3-0.5,8.5-2.5,11.8-5.3c3.4-2.9,6.2-6.5,7.7-10.6c0.7-2.1,1.1-4.2,1-6.2c-0.1-0.3,0-0.5,0-0.8l-0.1-0.8c-0.1-0.5-0.2-1-0.4-1.5
			c-0.3-1-0.8-1.9-1.2-2.8c-2-3.6-5.2-6.3-8.5-8.4c-3.3-2-6.7-3.8-9.7-5.3c-6.1-3.3-11.2-6-14.8-7.9c-3.5-1.9-5.5-3.1-5.5-3.1
			s2.1,0.9,5.8,2.7s8.9,4.2,15.1,7.2c3.1,1.6,6.6,3.1,10,5.1s7,4.8,9.2,8.8c0.6,1,1.1,2,1.4,3.1c0.2,0.6,0.3,1.2,0.4,1.8l0.1,0.8
			c0.1,0.3,0.1,0.6,0.1,0.9c0.2,2.4-0.2,4.8-1.1,7c-1.6,4.5-4.6,8.4-8.3,11.5c-3.7,3-8.2,5.2-12.9,5.7c-1.2,0.1-2.4,0.1-3.6,0
			c-0.6-0.1-1.2-0.1-1.8-0.2l-0.8-0.2l-0.4-0.1c-0.2-0.1-0.3,0-0.4-0.1c-1.2-0.3-2.3-0.8-3.3-1.5s-1.8-1.8-2.3-2.8c-0.6-1-1-2-1.4-3
			c-0.4-0.9-0.9-2-1.2-2.9c-0.9-1.9-1.6-3.8-2.5-5.7c-1.6-3.7-2.9-7.2-4.1-10.4c-2.5-6.5-4.4-11.9-5.7-15.7
			c-0.7-1.9-1.1-3.5-1.4-4.4C126.4,84.2,126.2,83.7,126.2,83.7L126.2,83.7z M137.5,71.3l0.3,0.2c0.2,0.2,0.6,0.3,1,0.5
			c0.9,0.4,2.3,0.6,4.1,0.8c3.6,0.5,8.8,1.1,15,2.6c3.1,0.8,6.3,1.7,9.8,2.9c1.7,0.6,3.5,1.2,5.2,1.6c1.8,0.4,3.7,0.6,5.3,0
			c0.5-0.1,0.8-0.2,1.2-0.4c0.4-0.2,0.7-0.4,1.1-0.6c0.7-0.5,1.4-1.2,2-1.9c0.6-0.7,1-1.6,1.4-2.5c0.2-0.4,0.3-0.9,0.5-1.4
			c0.1-0.4,0.2-1,0.3-1.4c0.6-3.9-0.1-8-1.3-11.9c-1.1-4-2.8-7.7-5.1-11.1c-1.1-1.6-2.3-3.2-3.7-4.7c-0.6-0.7-1.3-1.4-1.9-1.7
			c-0.8-0.3-1.6-0.3-2.5-0.3c-0.9,0.1-1.9,0.3-2.9,0.5c-0.9,0.2-1.9,0.4-2.7,0.6l-2.6,0.8c-0.9,0.3-1.7,0.6-2.6,0.9
			c-3.3,1.3-6.3,2.8-9.1,4.3c-5.4,3-9.8,6.1-12.7,8.1s-4.7,3.3-4.7,3.3s0.4-0.4,1.2-0.9c0.8-0.7,1.8-1.6,3.3-2.6
			c1.4-1.1,3.2-2.5,5.3-4c2.1-1.5,4.4-3.1,7.1-4.9c2.8-1.6,5.7-3.3,9.1-4.7c0.8-0.4,1.7-0.6,2.6-1c0.9-0.3,1.8-0.5,2.7-0.9
			c1-0.3,1.9-0.6,2.8-0.7l3-0.5c1-0.2,2.2-0.2,3.4,0.3c1.2,0.5,2,1.4,2.6,2.2c1.4,1.5,2.7,3.2,3.9,4.9c2.4,3.5,4.2,7.5,5.4,11.5
			c0.6,2,1,4.2,1.2,6.3c0.3,2.1,0.3,4.3,0,6.5l-0.3,1.6c-0.1,0.4-0.3,1.1-0.5,1.5c-0.4,1-1,2-1.6,2.8c-0.7,0.8-1.4,1.6-2.4,2.3
			c-0.5,0.3-0.9,0.6-1.5,0.8c-0.5,0.2-1,0.4-1.5,0.5c-2.1,0.5-4.2,0.3-6.1-0.2s-3.7-1.2-5.3-1.8c-3.4-1.2-6.5-2.4-9.5-3.2
			c-6-1.7-11.1-2.9-14.8-3.4c-1.8-0.3-3.3-0.6-4.2-1.1c-0.4-0.2-0.8-0.5-0.9-0.6C137.7,71.4,137.5,71.3,137.5,71.3L137.5,71.3z
			 M129.2,57c0,0,1.3-1.4,3.5-3.7c2.2-2.3,5.4-5.7,9.3-9.6c1.9-2,4-4.1,6.3-6.3c1-1.1,2.1-2.4,2.9-3.7c0.8-1.4,1.4-2.8,1.5-4.3
			c0-0.4,0-0.8,0-1.1l-0.2-1.1c-0.2-0.8-0.6-1.4-1-2.2c-0.9-1.4-2.1-2.6-3.6-3.4c-3-1.8-6.5-2.4-10.1-3c-3.6-0.7-7.3-1.3-10.7-2
			c-1.7-0.3-3.4-0.3-4.6,0.3c-1.4,0.8-2.2,2.1-2.7,3.6s-0.6,3.2-0.9,4.8c-0.2,1.7-0.4,3.2-0.5,4.8c-0.2,3.1-0.3,6.2-0.3,8.9
			c0.1,5.5,0.5,10.1,1,13.2c0.5,3.2,0.8,5,0.8,5s-0.1-0.5-0.3-1.3c-0.3-0.9-0.6-2-0.9-3.6c-0.4-1.6-0.7-3.5-1-5.7
			c-0.3-2.3-0.7-4.8-0.8-7.6c-0.2-2.8-0.2-5.8,0-8.9c0.1-1.5,0.2-3.3,0.3-4.9c0.2-1.7,0.3-3.4,0.9-5.1c0.2-0.9,0.6-1.7,1.1-2.6
			c0.3-0.5,0.6-0.8,1-1.2c0.2-0.1,0.4-0.4,0.6-0.5c0.3-0.2,0.4-0.3,0.5-0.4c1.9-1.1,4.1-1,5.9-0.7c3.7,0.6,7.3,1.3,10.8,2
			c3.6,0.7,7.5,1.3,10.8,3.4c1.6,1,3.1,2.4,4.1,4c0.6,0.8,0.9,1.8,1.2,2.6l0.3,1.5c0,0.5,0.1,1,0,1.4c-0.2,2-1,3.6-1.8,5.1
			c-0.9,1.5-2,2.7-3.2,3.8c-2.3,2.3-4.5,4.3-6.5,6.2c-4,3.8-7.5,6.9-9.8,9C130.6,55.8,129.2,57,129.2,57L129.2,57z M116.9,61.3
			c0,0-1.2-1.5-3.4-4.1c-2.1-2.6-5.1-6.3-8.8-10.8c-1.8-2.2-3.7-4.7-5.8-7.2s-4.6-5-7.6-6.4c-3-1.5-6.8-1.9-9.8-0.2
			c-1.5,0.8-2.8,2.1-3.8,3.5c-1.1,1.4-2.2,3.1-3.1,4.6c-1.9,3.2-3.4,6.7-3.5,10.2c0,1.7,0.4,3.4,1.3,4.8c0.8,1.5,2.1,2.7,3.4,3.6
			c2.8,1.9,6.1,2.9,9.3,3.6c3.2,0.6,6.3,1.2,9.1,2.1s5.1,2,7.3,2.8s4.1,1.5,5.7,1.9c1.6,0.4,3,0.6,3.8,0.7c0.9,0.1,1.4,0.2,1.4,0.2
			s-0.5,0-1.3-0.1c-0.9,0-2.3-0.1-3.8-0.4c-1.7-0.3-3.6-0.9-5.9-1.6c-1.1-0.4-2.3-0.8-3.6-1.2c-1.2-0.4-2.5-1-3.9-1.3
			c-2.7-0.7-5.8-1.1-9.1-1.7c-3.2-0.5-6.9-1.5-10-3.6c-1.6-1-3-2.4-4.1-4.1c-1-1.6-1.6-3.8-1.6-5.8c0.1-4.1,1.7-7.8,3.7-11.3
			c1-1.7,2.1-3.2,3.3-4.9c1.2-1.5,2.6-3,4.5-4.1c1.7-1,3.9-1.4,5.9-1.3c2,0.2,3.9,0.7,5.6,1.6c3.5,1.7,5.9,4.5,7.9,7.1
			c2.1,2.6,3.9,5.2,5.5,7.4c3.4,4.7,6.1,8.5,8.2,11.2C115.8,59.7,116.9,61.3,116.9,61.3L116.9,61.3z M113.6,73.9c0,0-1.9,0-5.3,0.3
			c-3.4,0.1-8.2,0.5-14,1c-2.9,0.3-6.1,0.6-9.4,1.1c-1.7,0.2-3.4,0.4-5.1,0.7c-1.7,0.3-3.6,0.5-5.1,0.9c-0.8,0.2-1.5,0.6-2,1.1
			c-0.3,0.4-0.6,0.5-0.8,0.9c-0.2,0.3-0.4,0.7-0.5,1c-0.5,1.5-0.6,3.4-0.3,5.1c0.2,1.8,0.8,3.6,1.4,5.4c0.5,1.8,1.2,3.6,2,5.4
			c1.5,3.5,3.3,6.9,5.4,10.1c1,1.5,2.2,3.1,3.5,3.9c0.3,0.2,0.7,0.4,1,0.5h0.3l0.1,0.1l0.2,0.1c0.2,0.1,0.4,0.1,0.6,0.1
			c0.7,0.1,1.5,0,2.3-0.1c1.6-0.4,3.1-1.4,4.5-2.3c1.3-1.1,2.5-2.2,3.9-3.3c2.4-2.3,4.7-4.5,6.6-6.6c3.9-4.3,7-8.1,9-10.8
			s3.2-4.3,3.2-4.3s-0.2,0.4-0.7,1.2c-0.5,0.8-1.2,1.9-2.1,3.3c-1.9,2.9-4.6,6.8-8.5,11.3c-1.9,2.3-4,4.6-6.5,7
			c-0.6,0.6-1.2,1.1-1.8,1.8s-1.3,1.2-2,1.8c-1.4,1.2-3.1,2.2-5,2.7c-1,0.3-2,0.4-3.1,0.3c-0.3,0-0.5-0.1-0.7-0.2h-0.2
			c-0.1-0.1-0.1-0.1-0.2-0.1l-0.4-0.1c-0.5-0.2-1-0.4-1.5-0.7c-1.8-1.2-3.1-2.8-4.1-4.4c-2.2-3.3-4.1-6.8-5.6-10.4
			c-0.7-1.8-1.4-3.7-2-5.6s-1.1-3.8-1.4-5.7c-0.3-2-0.3-4.1,0.5-6.1c0.2-0.5,0.4-1,0.7-1.5s0.7-0.9,1.1-1.2c0.9-0.8,1.8-1.1,2.8-1.4
			c1.9-0.6,3.7-0.7,5.4-0.9c1.8-0.2,3.5-0.4,5.2-0.5c3.3-0.3,6.5-0.6,9.4-0.7c5.8-0.4,10.7-0.3,14.2-0.4c1.7,0,3.1,0.1,4,0.1
			C113.1,73.8,113.6,73.9,113.6,73.9L113.6,73.9z M118,81.2c0,0,0.1,0.5,0.2,1.5s0.1,2.4-0.2,4.2c-0.3,1.8-0.9,3.9-1.8,6.3
			c-0.9,2.4-2.1,5-3.6,7.7c-1.3,2.8-2.8,5.8-3.8,9.1c-1,3.3-1.7,7-2.2,10.8c-0.1,0.9-0.3,1.9-0.4,2.9c-0.1,0.9-0.2,1.9-0.2,2.9
			c0,1.9,0.3,3.8,1.2,5.3c0.4,0.7,1.1,1.3,1.8,1.7c0.7,0.4,1.6,0.6,2.6,0.7c1.9,0.2,4,0,6.1-0.1c2-0.1,4.1-0.1,6.2-0.2
			c1,0,2-0.1,3,0c1-0.1,2-0.1,2.9-0.1c0.9-0.1,1.7-0.3,2.2-0.8c0.4-0.5,0.6-1.2,0.5-2.1s-0.2-1.9-0.3-2.9c-0.2-1-0.2-1.9-0.4-2.9
			c-1.3-7.6-3-14.6-4.4-20.5c-1.4-6-2.5-11-3.2-14.6l-1-5.6c0,0,0.5,2,1.4,5.4c0.4,1.8,1,3.9,1.7,6.3c0.6,2.4,1.4,5.1,2.3,8.1
			c1.6,6,3.6,12.9,5,20.5l0.5,2.9c0.2,1,0.4,2,0.5,3.1c0,0.5,0,1.1-0.1,1.7s-0.5,1.3-0.9,1.8c-0.9,1-2.3,1.3-3.3,1.4
			c-1.1,0.1-2.1,0.1-3.1,0.2s-2,0.1-3,0.1c-2,0.1-4.1,0.1-6.2,0.2l-3.1,0.1c-1,0-2.1,0.1-3.2,0c-1.1-0.1-2.2-0.3-3.3-0.9
			c-1-0.5-1.9-1.4-2.5-2.4c-1.3-2-1.5-4.2-1.5-6.3c0-1,0.1-2.1,0.2-3.1c0.1-0.9,0.2-2,0.4-2.9c0.6-3.9,1.4-7.6,2.5-10.9
			c1.1-3.5,2.7-6.4,4.2-9.2c1.4-2.7,2.8-5.2,3.8-7.4s1.8-4.3,2.1-6.1c0.1-0.4,0.2-0.8,0.2-1.3c0-0.4,0.2-0.7,0.2-1.2
			c0.1-0.7,0.1-1.2,0.1-1.7C118,81.7,118,81.2,118,81.2L118,81.2z"/>
		<path class="st4" d="M126.4,136.3c-9.1,2.8-19.3,0.4-27.7-4.5c-8.3-4.9-14.8-12.1-20.8-19.7c-14.7-18.7-22-49.9-6.6-70.6
			c3.7-4.9,8.4-8.9,13.4-12.5c10-7.5,21.2-13.9,33.7-15.9c22.1-3.3,45.8,7.5,60.4,24.3c6.5,7.6,11.4,16.6,12.9,26.4
			c2.2,14.6-3.2,29.2-9.5,42.4c-5.5,11.6-12.8,23.8-25.1,27.6c-8.6,2.6-14.5,7.9-23.3,9.2"/>
	</g>
</g>
</svg>
