<svg id="Layer_1" xmlns="http://www.w3.org/2000/svg" viewBox="0 0 460 378.4"><style>.st0{fill:none;stroke:#000;stroke-width:5;stroke-miterlimit:10}.st1{opacity:.9;fill:url(#SVGID_1_);enable-background:new}.st2{fill:url(#SVGID_2_)}.st3{stroke-width:2}.st3,.st4,.st5,.st6{fill:none;stroke:#000;stroke-miterlimit:10}.st5,.st6{stroke-width:3}.st6{stroke-width:1.292}</style><path class="st0" d="M6588.6-892.2c.3 38.5.2 82.4-5.7 120.5-2.3 14.7-3.7 31.7-10.6 44.9-9.4 17.9-18.6 35.9-34 49.5-5.5 4.9-11.5 9.2-17.9 12.8-4.2 2.3-15.3 5.1-15.9 10.8-.4 3.6 3.8 5.7 6.9 7.6 6.9 4.3 10.9 12.3 11.6 20.4 1.5 15.4-5.6 30.7-18.9 38.8-.8.5-1.6 1-1.9 1.8-.7 2.1 2.1 3.4 4.2 3.8 12.1 2.1 24 5 35.7 8.7 7.7 2.4 24.3 10.6 12 18.5-7.7 4.9-17 6.2-26 7.3-24.7 3.1-49.7 6.2-74.5 3.9-5.6-.5-11.2-1.4-16.8-2.2l-22.5-3.3c-5.3-.8-11.8-2.7-12.7-7.9-1.7-10.2 16.6-15.1 23.6-17.2 4.9-1.5 36.5-4.6 35.6-9.3-.5-2.4-2.8-3.9-4.8-5.4-8.9-6.4-15-16.4-16.6-27.2s1.3-22.2 7.9-30.9c2.2-2.9 4.9-6 4.4-9.6-.2-1.5-1-2.9-2-4.1-5.1-6.7-15.9-9.5-22.8-14.7-7.9-6-15.2-12.8-21.6-20.4-12.5-14.5-22.1-31.5-27.6-49.9-5.2-17.2-6.9-35.3-8.2-53.2-2.3-31-3.6-62-3.8-93.1 20.2-2.4 42-1.8 62.4-1.4 52.8 1.1 160.5-1.6 160.5.5z"/><path d="M6462-577.3v1.9c0 .6.1 1.3.6 1.9.4.6 1.2.8 2.2.8 2.1-.1 4.5-.2 7.1-.2 1.3 0 2.7-.1 4-.1 1.4-.1 2.8-.1 4.1-.2 1.4-.1 2.8-.1 4.1-.2 1.4-.1 2.7-.1 4-.2 2.6-.1 5-.2 7.1-.3 2-.1 3.7-.6 4.6-1.3.4-.4.7-.8.8-1.1.1-.3.2-.5.2-.5v.5c-.1.3-.2.8-.6 1.3s-1.1 1-1.9 1.4c-.8.4-1.8.7-2.8.8-2.1.4-4.5.7-7.1.9-1.3.1-2.7.3-4 .4-1.4.1-2.8.2-4.2.2-1.4 0-2.8.1-4.2.1h-4.1c-2.6-.1-5.1-.2-7.2-.4-.5-.1-1.1-.1-1.6-.4-.5-.3-.9-.7-1.1-1.1-.4-.9-.4-1.7-.3-2.3.1-.6.2-1.1.3-1.4-.1-.3 0-.5 0-.5zm-.4-84.6s.6.2 1.6.5c.5.2 1.2.3 1.9.5s1.6.4 2.4.5c.9.2 1.9.3 2.9.5 1 .1 2.1.2 3.3.3 1.1.1 2.3.1 3.5.2h3.6c1.2 0 2.5 0 3.7-.1 1.2 0 2.4-.1 3.6-.1 2.3-.1 4.5-.1 6.3-.3s3.2-.6 4.1-1.2c.4-.3.8-.6 1-.8l.3-.3s-.1.1-.2.4c-.2.3-.4.6-.8 1-.8.8-2.3 1.6-4.2 2-.9.2-2 .4-3 .5-1.1.1-2.2.3-3.3.4l-3.6.3c-1.2.1-2.5.1-3.7.2-1.3 0-2.5 0-3.7-.1-.6 0-1.2-.1-1.8-.1-.6-.1-1.2-.1-1.8-.2-1.2-.1-2.3-.4-3.4-.6-.5-.1-1-.3-1.5-.4-.5-.2-1-.3-1.4-.4-1.8-.6-3.2-1.3-4.2-1.8-1-.6-1.6-.9-1.6-.9zm-50.1 102.1l.3.3c.2.2.5.4 1 .6.9.5 2.3 1 4.2 1.4 1.9.4 4.2.7 6.8 1.1 2.6.4 5.6.7 8.9 1.1 3.3.3 6.8.7 10.6 1 3.7.3 7.7.5 11.8.7 8.2.3 17 .5 25.7.6 4.4.1 8.8.1 13.1.2 4.3 0 8.5.1 12.6 0s8-.4 11.7-.8c3.7-.5 7.2-1.1 10.4-1.7 6.4-1.4 11.6-3 15.2-4.3 1.8-.7 3.2-1.2 4.2-1.6l1.5-.6s-.5.2-1.4.7c-.9.4-2.3 1.1-4.1 1.8-3.5 1.5-8.7 3.5-15.1 5.1-6.4 1.6-14.1 2.9-22.3 3.2-4.1.2-8.4.2-12.7.2-4.3 0-8.7-.1-13.1-.1-4.4-.1-8.8-.2-13.1-.3-4.3-.1-8.6-.4-12.7-.6-4.1-.3-8.1-.6-11.8-1-3.8-.4-7.3-.8-10.6-1.3-1.6-.3-3.2-.5-4.7-.7-1.5-.3-2.9-.5-4.2-.8-2.6-.5-4.9-1-6.8-1.5s-3.3-1.1-4.1-1.7c-.4-.3-.7-.5-.9-.7-.3-.2-.4-.3-.4-.3z"/><linearGradient id="SVGID_1_" gradientUnits="userSpaceOnUse" x1="6378.8" y1="829.197" x2="6584.7" y2="829.197" gradientTransform="matrix(1 0 0 -1 0 58.817)"><stop offset=".018" stop-color="#801fe3"/><stop offset="1" stop-color="#b7a7ff"/></linearGradient><path class="st1" d="M6378.8-864c1.4 24.4 2.7 48.8 4.1 73.2.4 7.9.9 15.9 2.2 23.7 1.8 11.1 5.4 21.8 8.9 32.5 3 9.1 6 18.2 11.1 26.3 17.8 28.1 51.5 32.7 81.9 31.3 10.6-.5 21.3-1.5 31.5-4.7 66.9-21.3 65.2-117 66.1-172.7 0-2.6.1-5.1.1-7.7-68.7 2.2-137.5 4-205.9-1.9z"/><linearGradient id="SVGID_2_" gradientUnits="userSpaceOnUse" x1="122.8" y1="-166.881" x2="341.7" y2="-166.881" gradientTransform="matrix(1 0 0 -1 0 52.817)"><stop offset="0" stop-color="#c6ff94"/><stop offset=".998" stop-color="#fff"/></linearGradient><path class="st2" d="M340.3 113.7c-48.7-5.5-102.8-6.7-151.7-3.8-21.6 1.3-43.3 3.5-65 2.2-.3 0-.5-.1-.8-.1 3.8 55.6 14.1 169.1 16.6 191 .6 5.2 1.3 10.5 6.9 15.1 6.6 5.3 19.2 8.9 32.5 10.6 13.3 1.8 27.3 2 41.2 2.2 12.1.2 22.3.1 34.3-.1 19.9-.4 46.6-2.8 58.4-9.8 7.9-4.7 10.2-10.7 12.2-16.4 2.5-7 7.3-78.2 9.9-108.8 2.3-27.3 4.6-54.7 6.9-82-.3-.1-.9-.1-1.4-.1z"/><path d="M6373.7-883.7s.6 8.1 1.5 22.2c.5 7.1 1 15.6 1.7 25.5.6 9.8 1.4 20.9 2.1 33.1.4 6.1.7 12.4 1.3 18.9.5 6.5 1.4 13.2 3 19.9s3.7 13.5 6 20.4c2.4 6.9 4.5 14 7.5 20.9.8 1.7 1.5 3.4 2.4 5.1.9 1.6 1.8 3.3 2.8 4.8 1.1 1.6 2.2 3.1 3.4 4.7 1.2 1.4 2.5 2.8 3.7 4.3 5.3 5.5 11.7 10 18.8 13.2 7.1 3.3 14.8 5.4 22.6 6.6 7.9 1.3 15.9 1.7 23.9 1.7 8-.1 16.1-.4 24-1.5 3.9-.5 7.9-1.2 11.7-2.2 1-.3 1.9-.5 2.8-.8l.7-.2h.1l.2-.1.4-.1 1.4-.5 2.8-1c.5-.2.9-.3 1.4-.5l1.3-.6c7.1-3.1 13.7-7.4 19.4-12.5 5.7-5.1 10.5-11.1 14.4-17.5 4-6.3 7.1-13.1 9.7-19.8 2.6-6.8 4.6-13.6 6.3-20.3 3.2-13.5 5-26.5 6.2-38.5 1.1-12.1 1.7-23.2 2-33 .3-9.9.5-18.4.7-25.5.2-14.2.4-22.2.4-22.2s0 2 .1 5.8c0 3.8.1 9.4.2 16.4 0 7.1 0 15.7-.2 25.5-.1 9.9-.5 21-1.5 33.1-1 12.1-2.6 25.2-5.7 38.9-1.6 6.8-3.6 13.7-6.1 20.6-2.5 6.9-5.7 13.8-9.8 20.3-4 6.5-9 12.7-14.8 18.1-5.9 5.4-12.7 9.8-20.2 13.1l-1.4.6c-.5.2-.9.4-1.4.5l-2.8 1-1.4.5-.4.1-.2.1-.2.1-.7.2c-1 .3-2 .6-2.9.8-3.9 1-8 1.8-12 2.4-8.1 1.1-16.2 1.5-24.4 1.6-8.2 0-16.3-.5-24.4-1.8-8-1.3-16-3.5-23.3-7-7.4-3.4-14.1-8.1-19.6-13.9-1.3-1.5-2.6-3.1-3.9-4.6-1.1-1.6-2.2-3.2-3.3-4.7-2.2-3.4-3.9-6.8-5.4-10.4-3-7.1-5.2-14.2-7.5-21.2-2.2-7-4.3-13.9-5.8-20.7-1.6-6.9-2.4-13.6-2.8-20.2-.5-6.6-.7-12.9-1-18.9-.6-12.1-1.1-23.2-1.6-33.1s-.8-18.4-1.2-25.5c-.7-14.2-1-22.2-1-22.2z"/><path d="M6374.1-868.3s.8 0 2.4.1 3.8.2 6.7.3c2.9.2 6.4.3 10.5.5 4 .2 8.6.3 13.6.5s10.4.3 16.1.5 11.7.2 17.9.4c6.2.1 12.6.1 19.2.2 6.5.1 13.2 0 19.8.1 6.6 0 13.3 0 19.8-.1s13-.1 19.2-.2c12.5-.1 24.1-.2 34-.3 10-.1 18.3-.1 24.1-.1h9.1s-.8.1-2.4.2c-1.6.1-3.8.2-6.7.4-5.8.3-14.1.8-24.1 1.3s-21.6.9-34 1.3c-6.2.1-12.7.4-19.2.4-6.5.1-13.2.1-19.8.2-6.6 0-13.3 0-19.8-.2-6.5-.1-13-.3-19.2-.4-6.2-.2-12.3-.4-18-.8-2.9-.2-5.6-.3-8.3-.5-2.7-.2-5.3-.4-7.8-.5-2.5-.2-4.9-.3-7.1-.5-2.3-.2-4.4-.4-6.4-.6-4-.4-7.6-.7-10.4-1-2.9-.3-5.2-.6-6.7-.7-1.7-.4-2.5-.5-2.5-.5z"/><path class="st3" d="M328.3 225.2c-16 7.4-16 5.9-32 13.5-15.4 7.3-30.8 14.8-44.3 24.9-13.4 10-25.1 22.5-40.5 29.1-3.4 1.4-7.1 2.7-9.6 5.3 19.5 12 40.6 19.5 61 21.6 4.2.5 22.6-3 27.3-5.3 11-5.2 18.6-11.4 26-21.2 9.8-13.2 15-23.1 13.4-42.2-.7-6.6-.4-18.4-1.3-25.7z"/><path class="st4" d="M322.1 227.5c.4 1.6.6 2.8 1 4.4.8 3.2.7 6.4.6 9.5-.4 16.8-2.7 31.2-11 43.9-5.4 7.5-12.6 13.1-19.7 18.7-3.9 3-7.9 6.1-12.6 7.7-7 2.4-15.3 1.5-23.3 0-13.8-2.4-28-5.9-40.8-15.2-1.6-1.1-2.1-2.5-3.1-4.2"/><path class="st4" d="M257.1 260c.5 1.5 2 2.5 3.6 2.9s3.2.1 4.7-.3c2.5-.7 5.1-2 6.7-4 1.6-2.1 2.2-5.2.8-7.4"/><path d="M266.2 263c.6 2 1.2 4.1 1.8 6.1l1.7 6.1.8 3.1c.3 1 .6 2.1.8 3.1l1.5 6.2c.5 2.1 1 4.1 1.4 6.2.2 1 .4 2.1.6 3.1.2 1.1.4 2.1.5 3.2.1 1.1.1 2.2 0 3.3 0 1.1-.3 2.2-.7 3.2-.4 1-.9 2-1.6 2.9s-1.6 1.6-2.5 2.2c-.2.1-.3.2-.4.2s-.2.1-.3.1c-.1.1-.3.1-.4.2-.1 0-.3.1-.4.1h.1c-1.4.5-2.9.4-4.3.3-1.4-.1-2.8-.4-4.1-.7-2.7-.6-5.4-1.2-8-2.5-.6-.3-1.2-.7-1.8-1.1-.6-.4-1.1-.9-1.6-1.4-1-1-1.8-2.2-2.4-3.5s-.9-2.8-.8-4.2.4-2.8.8-4.1l.3-1 .1-.2c0-.1.1-.2.1-.3l.2-.5.7-1.9 1.4-3.9 1.4-3.9c.5-1.3.9-2.6 1.5-3.9.7-1.2 1.3-2.4 1.9-3.7l1.7-3.7c.6-1.2 1.2-2.5 1.6-3.8.5-1.3.9-2.6 1.2-3.9-.2 1.4-.6 2.7-1 4s-1 2.6-1.5 3.8l-1.6 3.8c-.3.6-.5 1.3-.8 1.9l-.9 1.8c-.6 1.2-1 2.5-1.4 3.8l-1.4 3.9-1.4 3.9-.7 1.9-.2.5c0 .1-.1.2-.1.2l-.1.2-.3 1c-.4 1.3-.7 2.6-.8 3.9 0 1.3.2 2.6.8 3.8.5 1.2 1.3 2.3 2.3 3.2.9.9 2 1.7 3.2 2.3 2.4 1.2 5 1.9 7.7 2.4 1.3.3 2.7.6 4 .7 1.3.1 2.7.2 3.9-.2h.1c.1 0 .2 0 .3-.1.1 0 .2-.1.3-.1.3-.1.5-.2.6-.3 1.8-1 3.1-2.6 3.8-4.6.3-1 .6-1.9.6-3 .1-1 .1-2.1 0-3.1s-.3-2.1-.4-3.1l-.6-3.1c-.4-2.1-.9-4.2-1.3-6.2l-1.4-6.2c-.2-1-.5-2-.7-3.1l-.8-3.1-1.5-6.2-1.5-6zm-11.6 1.7l1.5-2.3.2.1-2.1 3.6-2.1 3.6c-1.4 2.4-2.7 4.8-3.9 7.2-.6 1.2-1.2 2.5-1.7 3.7l-1.5 3.8-.4 1-.2.5-.1.5-.6 2-1.1 4c-.4 1.3-.8 2.7-1.5 4l-.6.9-.3.4c-.1.1-.2.3-.3.4-.5.6-1 1.1-1.6 1.5-1.2.8-2.6 1.3-4 1.6-1.4.2-2.9 0-4.2-.3-1.4-.3-2.7-.9-3.8-1.7-1.2-.8-2.2-1.8-3.1-2.8s-1.7-2.2-2.5-3.3c-.7-1.2-1.4-2.4-2-3.6.8 1.1 1.5 2.3 2.3 3.4.8 1.1 1.6 2.2 2.6 3.1 1 1 2 1.9 3.1 2.6s2.4 1.2 3.7 1.5c1.3.3 2.7.4 3.9.2 1.3-.2 2.6-.7 3.6-1.5.5-.4 1-.8 1.4-1.3.1-.1.2-.2.3-.4l.3-.4c.2-.3.3-.6.5-.8.6-1.2 1-2.4 1.4-3.8.3-1.4.8-2.6 1.1-4l.6-2c.1-.2.1-.3.2-.5l.2-.5.4-1 1.5-3.8c.6-1.3 1.2-2.5 1.8-3.8 1.3-2.4 2.7-4.8 4.2-7.1 1.4-2.3 2.9-4.7 4.5-6.9l.2.1-1.9 2.1zm18.2-8.4l9 7.4 4.5 3.7 4.4 3.8c1.5 1.3 2.9 2.5 4.3 3.9s2.7 2.8 3.9 4.3c2.4 3.1 4.4 6.6 5.3 10.4.1.7.2 1.5 0 2.3-.1.4-.2.8-.4 1.1-.2.4-.4.7-.7 1-.5.6-1.1 1-1.6 1.4l-1.6 1.4c-1.1.9-2.1 1.8-3.2 2.7s-2.2 1.8-3.5 2.5-2.7 1.2-4.2 1.3-3-.5-4.2-1.3c-.6-.4-1.2-.9-1.6-1.5-.5-.6-.9-1.2-1.2-1.8-.7-1.2-1.3-2.6-1.8-3.9l-6.1-15.7c-1-2.6-2-5.3-3-7.9-.5-1.3-.7-2.7-1.1-4-.4-1.4-.8-2.7-.8-4.1l-.1-1.1.1 1.1c0 1.4.6 2.7 1 4 .5 1.3.9 2.6 1.4 4l3.1 7.8 6.4 15.6c.5 1.3 1 2.6 1.7 3.8.4.6.7 1.2 1.2 1.7.4.5.9 1 1.5 1.3 1.1.8 2.4 1.2 3.7 1.1 1.3 0 2.6-.5 3.8-1.2 1.2-.7 2.3-1.5 3.3-2.4l3.2-2.7 1.6-1.4c.5-.5 1.1-.9 1.5-1.3.2-.2.4-.5.6-.7.2-.3.3-.6.3-.9.1-.6.1-1.3 0-1.9-.4-1.8-1.1-3.6-2-5.3s-1.9-3.3-3.1-4.8-2.5-2.9-3.8-4.3c-1.3-1.4-2.8-2.7-4.2-4l-4.3-3.9-4.4-3.8c-3.1-2.5-6-5.1-8.9-7.7zm2.8-6.7s1.6 0 4.4.1c1.4.1 3.1.1 5.1.2 2 .1 4.2.2 6.6.3 2.4.2 5 .5 7.8.8s5.6.7 8.6 1.2c3 .6 6 1.1 9.2 1.7l1.2.3c.4.1.8.2 1.2.5.4.3.8.7.9 1.1.2.5.2.9.3 1.3.1 1.7-.2 3.4-.9 4.9-1.5 3-4.1 5.3-7 6.8-1.5.8-3.1 1.2-4.7 1.2-1.7 0-3.2-.5-4.6-1.1-2.8-1.2-5.4-2.5-7.9-3.7s-4.9-2.3-7-3.3c-4.3-2.1-7.9-3.9-10.4-5.2-2.5-1.3-4-2-4-2s1.5.7 4 1.8c2.6 1.2 6.2 2.8 10.6 4.9 4.4 2 9.5 4.3 15 6.7 1.4.6 2.8 1 4.3 1s3-.5 4.3-1.2c2.7-1.4 5.1-3.7 6.5-6.4.6-1.4 1-2.9.9-4.4-.1-.7-.3-1.4-.8-1.7-.2-.2-.6-.3-1-.4-.4-.1-.7-.2-1.1-.3-3.1-.6-6.2-1.2-9.1-1.8-5.9-1-11.5-1.7-16.3-2.3-4.8-.4-8.8-.7-11.6-.9-2.9-.1-4.5-.1-4.5-.1zm5.1-2.8s.2-.1.3-.2c.2-.1.3-.1.5-.1s.4.1.5.3c.1.1.2.3.2.3s-.1.2-.3.3c-.2.1-.4.2-.6.1-.2 0-.4-.1-.5-.3s-.1-.4-.1-.4z"/><path class="st0" d="M354.7 85.7c-1.7 22.1-17.6 214.4-20.9 242.1-1.4 11.3 2 31.6-17.2 40.1-6.4 2.8-15.3 4.1-24 5-28.1 3-56.8 3.2-85.3 1.2-19.7-1.4-44.9-.8-59.1-8.5-7.8-4.2-8.8-10.1-9.5-15.6-5-41.7-9.1-82-11.9-123.8-3.1-45.9-9.6-139.2-11.2-139.4s160.8-.5 239.1-1.1z"/><path d="M126.3 93.4s.2 2.4.5 7c.3 4.5.9 11.2 1.6 19.7.7 8.5 1.6 18.7 2.6 30.5 1.1 11.8 2.3 25.1 3.6 39.6 2.6 29 5.9 62.9 9.6 99.1.2 2.3.5 4.5.7 6.8.3 2.3.5 4.5 1.1 6.6s1.5 4 2.9 5.7c.7.8 1.4 1.6 2.3 2.3l.2.1.1.1.4.3.7.5c.5.3.9.6 1.4.9 3.8 2.3 8.2 3.9 12.7 5.2s9.1 2.2 13.8 2.9c9.4 1.4 19 1.9 28.6 2.2l14.5.3c4.8 0 9.7 0 14.5-.1h21.8c2.4 0 4.8-.1 7.2-.2 9.6-.4 19.2-1.3 28.5-2.8 4.7-.8 9.3-1.8 13.7-3.3 1.1-.4 2.2-.7 3.2-1.2l1.6-.7 1.5-.8.7-.4.7-.4.7-.5.7-.5c.9-.6 1.7-1.4 2.6-2.1 1.6-1.5 2.9-3.3 4-5.2s1.9-4 2.7-6.2l.3-.8v-.1l.1-.2.1-.4c.1-.6.3-1.1.4-1.7.2-1.1.4-2.1.5-3.3.3-2.3.6-4.5.8-6.8 1-9 1.8-17.9 2.6-26.7.7-8.7 1.5-17.3 2.2-25.6 1.4-16.6 2.6-32.4 4-46.9 1.3-14.5 2.6-27.8 3.6-39.6 1.1-11.8 2.1-22.1 2.8-30.5 1.6-16.9 2.5-26.6 2.5-26.6s-.7 9.7-2 26.6c-.6 8.5-1.4 18.8-2.3 30.6-.9 11.8-1.9 25.1-3.1 39.6-1.2 14.5-2.2 30.3-3.4 46.9-1.2 16.7-2.4 34.2-4.4 52.4-.2 2.3-.5 4.6-.8 6.8l-.6 3.6c-.1.6-.3 1.1-.4 1.7l-.1.4-.1.2c0 .1 0 0-.1.3l-.3.8c-.8 2.2-1.7 4.4-2.9 6.6-1.2 2.1-2.7 4.1-4.5 5.9-.9.8-1.8 1.6-2.9 2.4l-.8.5-.7.5-.8.5-.8.4-1.6.9-1.7.7c-1.1.5-2.3.9-3.4 1.3-4.6 1.6-9.3 2.6-14.1 3.4-9.5 1.6-19.2 2.5-28.9 3-2.4.1-4.9.2-7.3.3-2.5.1-4.9 0-7.3.1-4.9 0-9.7 0-14.6.1h-14.6l-14.6-.3c-9.7-.3-19.4-.9-28.9-2.3-4.8-.7-9.5-1.7-14.1-3-4.6-1.4-9.2-3-13.4-5.6-.5-.3-1.1-.7-1.6-1l-.7-.5-.3-.3-.2-.2-.2-.2c-1-.8-1.8-1.7-2.6-2.7-1.6-2-2.7-4.3-3.4-6.7-.7-2.4-.9-4.8-1.2-7-.2-2.3-.5-4.6-.7-6.8-1.8-18.1-3.3-35.7-4.7-52.3s-2.7-32.4-3.9-46.9c-1.2-14.5-2.2-27.8-3-39.6-.8-11.8-1.5-22.1-2.1-30.6s-.9-15.1-1.2-19.7c.1-4.6 0-7 0-7z"/><path class="st3" d="M164 243.4c-1.9 2.9-2.6 7.1-3.3 10.1-1.7 7.5-3.7 14.9-5.9 22.2-.9 2.9-1.9 5.8-2 8.8-.2 2.9.4 5.5 1.1 8.1 2.3 8.8 6.3 17.4 13.4 19.7 2.4.8 5 .8 7.5.9 11.7.8 22.6 5.6 34.3 6.4 2.7.2 5.5.1 8.2-1.5 4.8-2.9 7.4-9.8 9.1-16.1 2.5-9.5 4-19.2 7.5-28.4 1.2-3 2.6-6.4 1.9-9.3-.7-3.1-13.5-11.1-17.4-14-3.3-2.4-8.2-3.1-12-4-6.3-1.4-12.6-2.4-19-3.3-5.6-.8-11.8-2.5-17.4-2.7-2.9-.2-4.7 1.1-6 3.1z"/><path d="M163.2 244s.8.9 2.3 2.6c1.4 1.7 3.5 4.1 5.9 7 2.4 2.9 5.2 6.4 8.7 9.4 1.8 1.5 3.7 2.8 5.9 3.7 2.2.9 4.6 1.3 7.1 1.4 2.5.2 5 .1 7.5.1 2.5-.1 4.9 0 7.3-.1 4.7 0 9.2 0 12.9-.2 3.8-.2 6.9-.7 9-1.2 2.2-.5 3.4-.8 3.4-.8s-.3.1-.8.3c-.6.2-1.4.5-2.4.9-2.1.7-5.2 1.5-9 1.9-3.8.5-8.3.6-13 .8-2.4.1-4.8.2-7.3.2-2.5.1-5 .1-7.6 0-2.6-.2-5.2-.6-7.7-1.6-2.4-1-4.5-2.5-6.4-4.1-1.8-1.6-3.3-3.4-4.7-5.1-1.4-1.7-2.6-3.4-3.7-4.9-2.2-3.1-4-5.7-5.3-7.5-1.3-1.7-2.1-2.8-2.1-2.8zm20.5 23.8s-.2.6-.6 1.7c-.4 1.1-.9 2.6-1.6 4.5-1.4 3.7-3.2 8.6-5 13.5s-3.6 9.8-5 13.5c-.7 1.8-1.3 3.4-1.7 4.5-.4 1.1-.7 1.7-.7 1.7s.4-2.6 1.3-6.5c.4-1.9 1-4.2 1.7-6.5.4-1.2.7-2.4 1.2-3.6.4-1.2.9-2.5 1.3-3.7.5-1.2 1-2.5 1.4-3.7.5-1.2 1-2.4 1.5-3.5 1-2.3 2-4.3 2.9-6.1 1.9-3.6 3.3-5.8 3.3-5.8z"/><path class="st3" d="M287.3 183.2c.4.4.8.7 1.2 1.2.9 1.2 1.5 2.6 2.1 4 4.4 11.2 4.7 19.8 6.2 31.5.3 2.7.6 5.5-.3 8-1.4 4-5.4 6.4-8.4 9.4-4.2 4.1-6.6 9.6-9.8 14.5-3.2 4.9-7.7 9.6-13.5 10.3-2.3.3-4.7-.1-7-.4-5.1-.8-10.3-1.6-15.4-2.4-5.9-.9-12.1-2-16.9-5.5-7.1-5.3-9.5-14.7-11.3-23.3-1.5-6.9-3-14.4-.1-20.8 1.3-2.9 3.4-5.4 5.4-7.9 3.8-4.5 7.6-8.9 11.3-13.4 12-14.2 35.4-13.4 51.3-7.7 1.8.5 3.7 1.2 5.2 2.5z"/><path d="M246.1 183.7s1.8 3.4 4.4 8.7c1.3 2.6 2.7 5.7 4.2 9 .7 1.7 1.5 3.4 2.3 5.1.8 1.7 1.5 3.5 2.3 5.3.8 1.7 1.7 3.3 2.9 4.5 1.2 1.1 2.9 1.9 4.5 2.4 1.7.5 3.4.8 5 1.2s3.2.7 4.6 1.1c5.7 1.3 9.4 2.4 9.4 2.4s-3.9-.4-9.6-1.3c-1.4-.2-3-.5-4.6-.7-1.6-.3-3.4-.5-5.2-1-1.8-.5-3.8-1.2-5.4-2.6-1.6-1.4-2.6-3.3-3.4-5.1s-1.5-3.6-2.3-5.3c-.8-1.8-1.4-3.5-2.1-5.2-1.4-3.4-2.6-6.5-3.7-9.2-2.1-5.6-3.3-9.3-3.3-9.3z"/><path d="M261.5 217.7s-1.3 2.1-3.5 5.1c-1.1 1.5-2.4 3.2-3.8 5-.7.9-1.5 1.8-2.3 2.7s-1.6 1.9-2.4 2.8c-.8.9-1.7 1.8-2.5 2.7s-1.7 1.7-2.4 2.6c-1.6 1.7-3.1 3.2-4.5 4.4-2.7 2.5-4.6 4.1-4.6 4.1s1.5-2 3.8-4.8c1.2-1.4 2.5-3.1 4-4.8.8-.9 1.5-1.8 2.3-2.7s1.6-1.8 2.4-2.8l2.4-2.7c.8-.9 1.6-1.8 2.4-2.6 1.5-1.7 3-3.3 4.3-4.6 2.6-2.7 4.4-4.4 4.4-4.4z"/><path class="st3" d="M138.9 185.9c-1.5 4.6-.1 9.7 1.3 14.3 3.6 11.8 7.7 24.5 17.6 31.9 7.1 5.3 16.1 7.1 24.8 8.7 2.6.5 5.4 1 7.8-.1 2.3-1 3.8-3.2 5.2-5.3 4.2-6.4 8.4-12.7 12.5-19.1 3.3-5 6.7-10.4 6.4-16.4-.2-4.3-2.3-8.4-4.3-12.2-3.1-5.9-6.3-11.7-9.4-17.6-.9-1.7-1.8-3.4-3.3-4.7-1.7-1.5-4-2.3-6.3-2.9-9.4-2.6-22.5-6.9-31.1-.6-6.7 5.1-18.6 16.1-21.2 24z"/><path d="M146.6 189.4s.1.2.4.6c.3.4.7.9 1.4 1.5s1.6 1.2 2.7 1.7 2.4 1.1 3.8 1.7c1.4.6 3 1.3 4.5 2.4 1.5 1.1 2.9 2.3 4.4 3.4 1.5 1.1 3.1 2 4.8 2 1.8.1 3.5-.7 5-1.8 1.5-1.2 2.8-2.7 4-4.3s2.3-3.3 3.4-4.8c2.2-3.1 4.3-6.1 6.1-8.5 1.8-2.5 3.4-4.5 4.5-5.9s1.7-2.2 1.7-2.2-.5.9-1.4 2.4-2.2 3.8-3.8 6.4c-1.6 2.6-3.5 5.6-5.6 8.9-1.1 1.6-2.1 3.3-3.3 5-1.2 1.7-2.6 3.3-4.3 4.7-.9.7-1.8 1.3-2.9 1.7l-.8.3-.8.2c-.6.1-1.2.1-1.7.1-2.4-.1-4.3-1.3-5.8-2.6-1.6-1.2-2.8-2.6-4.2-3.6-1.3-1.1-2.7-1.9-4.1-2.6-1.4-.7-2.6-1.4-3.7-2.1-1.1-.7-1.9-1.4-2.6-2.1-.6-.7-1-1.3-1.2-1.7-.4-.6-.5-.8-.5-.8zm23.4 16.5s.4.3 1.2.7c.4.2.8.6 1.3 1 .2.2.5.4.8.6l.8.8c.5.5 1.1 1.2 1.6 1.9s1.1 1.4 1.6 2.2 1 1.6 1.5 2.5.9 1.7 1.4 2.6c.9 1.8 1.8 3.5 2.6 5.1.5.8.8 1.6 1.3 2.3.4.7.8 1.4 1.3 2l.6.9c.2.3.4.5.6.7.4.5.7.9 1 1.2.6.6.9 1 .9 1s-.4-.3-1.2-.7c-.4-.2-.8-.6-1.3-1-.2-.2-.5-.4-.8-.6l-.8-.8c-.5-.5-1.1-1.2-1.6-1.9s-1.1-1.4-1.6-2.2-1-1.6-1.5-2.5-.9-1.7-1.4-2.6c-.9-1.8-1.8-3.5-2.6-5.1-.5-.8-.8-1.6-1.3-2.3-.4-.7-.8-1.4-1.3-2l-.6-.9c-.2-.3-.4-.5-.6-.7-.4-.5-.7-.9-1-1.2-.6-.6-.9-1-.9-1zm-42.2-100.2h9.3c3 0 6.6-.1 10.7-.3 4.1-.2 8.8-.5 13.8-.8 5.1-.4 10.6-.8 16.4-1.3s11.9-1 18.3-1.4c3.2-.2 6.4-.4 9.7-.6 3.3-.2 6.6-.3 9.9-.4s6.7-.2 10.1-.3c3.4-.1 6.8-.1 10.2-.2 6.8-.1 13.6 0 20.3.1 6.7.1 13.3.3 19.6.6 6.4.2 12.5.6 18.3 1s11.3.8 16.4 1.3c5.1.4 9.7.9 13.8 1.4 4.1.5 7.7.9 10.6 1.3s5.3.7 6.8.9l2.4.3s-3.4-.3-9.3-.7c-3-.2-6.6-.4-10.7-.7-4.1-.2-8.8-.5-13.8-.8-2.5-.1-5.2-.3-7.9-.4-2.7-.1-5.6-.2-8.5-.4-5.8-.2-12-.4-18.3-.6s-12.9-.2-19.6-.3c-6.7-.1-13.4-.1-20.2 0-3.4 0-6.8.1-10.1.1-3.4.1-6.7.1-10.1.2l-9.9.3c-3.3.1-6.5.3-9.7.4-12.7.6-24.5 1.4-34.7 1.7-5.1.2-9.8.2-13.9.2s-7.7-.1-10.7-.3c-3-.1-5.3-.3-6.9-.4-1.4.2-2.3.1-2.3.1z"/><path class="st3" d="M328.3 225.2c-16 7.4-16 5.9-32 13.5-15.4 7.3-30.8 14.8-44.3 24.9-13.4 10-25.1 22.5-40.5 29.1-3.4 1.4-7.1 2.7-9.6 5.3 19.5 12 40.6 19.5 61 21.6 4.2.5 22.6-3 27.3-5.3 11-5.2 18.6-11.4 26-21.2 9.8-13.2 15-23.1 13.4-42.2-.7-6.6-.4-18.4-1.3-25.7z"/><path class="st4" d="M322.1 227.5c.4 1.6.6 2.8 1 4.4.8 3.2.7 6.4.6 9.5-.4 16.8-2.7 31.2-11 43.9-5.4 7.5-12.6 13.1-19.7 18.7-3.9 3-7.9 6.1-12.6 7.7-7 2.4-15.3 1.5-23.3 0-13.8-2.4-28-5.9-40.8-15.2-1.6-1.1-2.1-2.5-3.1-4.2"/><path class="st4" d="M257.1 260c.5 1.5 2 2.5 3.6 2.9s3.2.1 4.7-.3c2.5-.7 5.1-2 6.7-4 1.6-2.1 2.2-5.2.8-7.4"/><path d="M266.2 263c.6 2 1.2 4.1 1.8 6.1l1.7 6.1.8 3.1c.3 1 .6 2.1.8 3.1l1.5 6.2c.5 2.1 1 4.1 1.4 6.2.2 1 .4 2.1.6 3.1.2 1.1.4 2.1.5 3.2.1 1.1.1 2.2 0 3.3 0 1.1-.3 2.2-.7 3.2-.4 1-.9 2-1.6 2.9s-1.6 1.6-2.5 2.2c-.2.1-.3.2-.4.2s-.2.1-.3.1c-.1.1-.3.1-.4.2-.1 0-.3.1-.4.1h.1c-1.4.5-2.9.4-4.3.3-1.4-.1-2.8-.4-4.1-.7-2.7-.6-5.4-1.2-8-2.5-.6-.3-1.2-.7-1.8-1.1-.6-.4-1.1-.9-1.6-1.4-1-1-1.8-2.2-2.4-3.5s-.9-2.8-.8-4.2.4-2.8.8-4.1l.3-1 .1-.2c0-.1.1-.2.1-.3l.2-.5.7-1.9 1.4-3.9 1.4-3.9c.5-1.3.9-2.6 1.5-3.9.7-1.2 1.3-2.4 1.9-3.7l1.7-3.7c.6-1.2 1.2-2.5 1.6-3.8.5-1.3.9-2.6 1.2-3.9-.2 1.4-.6 2.7-1 4s-1 2.6-1.5 3.8l-1.6 3.8c-.3.6-.5 1.3-.8 1.9l-.9 1.8c-.6 1.2-1 2.5-1.4 3.8l-1.4 3.9-1.4 3.9-.7 1.9-.2.5c0 .1-.1.2-.1.2l-.1.2-.3 1c-.4 1.3-.7 2.6-.8 3.9 0 1.3.2 2.6.8 3.8.5 1.2 1.3 2.3 2.3 3.2.9.9 2 1.7 3.2 2.3 2.4 1.2 5 1.9 7.7 2.4 1.3.3 2.7.6 4 .7 1.3.1 2.7.2 3.9-.2h.1c.1 0 .2 0 .3-.1.1 0 .2-.1.3-.1.3-.1.5-.2.6-.3 1.8-1 3.1-2.6 3.8-4.6.3-1 .6-1.9.6-3 .1-1 .1-2.1 0-3.1s-.3-2.1-.4-3.1l-.6-3.1c-.4-2.1-.9-4.2-1.3-6.2l-1.4-6.2c-.2-1-.5-2-.7-3.1l-.8-3.1-1.5-6.2-1.5-6zm-11.6 1.7l1.5-2.3.2.1-2.1 3.6-2.1 3.6c-1.4 2.4-2.7 4.8-3.9 7.2-.6 1.2-1.2 2.5-1.7 3.7l-1.5 3.8-.4 1-.2.5-.1.5-.6 2-1.1 4c-.4 1.3-.8 2.7-1.5 4l-.6.9-.3.4c-.1.1-.2.3-.3.4-.5.6-1 1.1-1.6 1.5-1.2.8-2.6 1.3-4 1.6-1.4.2-2.9 0-4.2-.3-1.4-.3-2.7-.9-3.8-1.7-1.2-.8-2.2-1.8-3.1-2.8s-1.7-2.2-2.5-3.3c-.7-1.2-1.4-2.4-2-3.6.8 1.1 1.5 2.3 2.3 3.4.8 1.1 1.6 2.2 2.6 3.1 1 1 2 1.9 3.1 2.6s2.4 1.2 3.7 1.5c1.3.3 2.7.4 3.9.2 1.3-.2 2.6-.7 3.6-1.5.5-.4 1-.8 1.4-1.3.1-.1.2-.2.3-.4l.3-.4c.2-.3.3-.6.5-.8.6-1.2 1-2.4 1.4-3.8.3-1.4.8-2.6 1.1-4l.6-2c.1-.2.1-.3.2-.5l.2-.5.4-1 1.5-3.8c.6-1.3 1.2-2.5 1.8-3.8 1.3-2.4 2.7-4.8 4.2-7.1 1.4-2.3 2.9-4.7 4.5-6.9l.2.1-1.9 2.1zm18.2-8.4l9 7.4 4.5 3.7 4.4 3.8c1.5 1.3 2.9 2.5 4.3 3.9s2.7 2.8 3.9 4.3c2.4 3.1 4.4 6.6 5.3 10.4.1.7.2 1.5 0 2.3-.1.4-.2.8-.4 1.1-.2.4-.4.7-.7 1-.5.6-1.1 1-1.6 1.4l-1.6 1.4c-1.1.9-2.1 1.8-3.2 2.7s-2.2 1.8-3.5 2.5-2.7 1.2-4.2 1.3-3-.5-4.2-1.3c-.6-.4-1.2-.9-1.6-1.5-.5-.6-.9-1.2-1.2-1.8-.7-1.2-1.3-2.6-1.8-3.9l-6.1-15.7c-1-2.6-2-5.3-3-7.9-.5-1.3-.7-2.7-1.1-4-.4-1.4-.8-2.7-.8-4.1l-.1-1.1.1 1.1c0 1.4.6 2.7 1 4 .5 1.3.9 2.6 1.4 4l3.1 7.8 6.4 15.6c.5 1.3 1 2.6 1.7 3.8.4.6.7 1.2 1.2 1.7.4.5.9 1 1.5 1.3 1.1.8 2.4 1.2 3.7 1.1 1.3 0 2.6-.5 3.8-1.2 1.2-.7 2.3-1.5 3.3-2.4l3.2-2.7 1.6-1.4c.5-.5 1.1-.9 1.5-1.3.2-.2.4-.5.6-.7.2-.3.3-.6.3-.9.1-.6.1-1.3 0-1.9-.4-1.8-1.1-3.6-2-5.3s-1.9-3.3-3.1-4.8-2.5-2.9-3.8-4.3c-1.3-1.4-2.8-2.7-4.2-4l-4.3-3.9-4.4-3.8c-3.1-2.5-6-5.1-8.9-7.7zm2.8-6.7s1.6 0 4.4.1c1.4.1 3.1.1 5.1.2 2 .1 4.2.2 6.6.3 2.4.2 5 .5 7.8.8s5.6.7 8.6 1.2c3 .6 6 1.1 9.2 1.7l1.2.3c.4.1.8.2 1.2.5.4.3.8.7.9 1.1.2.5.2.9.3 1.3.1 1.7-.2 3.4-.9 4.9-1.5 3-4.1 5.3-7 6.8-1.5.8-3.1 1.2-4.7 1.2-1.7 0-3.2-.5-4.6-1.1-2.8-1.2-5.4-2.5-7.9-3.7s-4.9-2.3-7-3.3c-4.3-2.1-7.9-3.9-10.4-5.2-2.5-1.3-4-2-4-2s1.5.7 4 1.8c2.6 1.2 6.2 2.8 10.6 4.9 4.4 2 9.5 4.3 15 6.7 1.4.6 2.8 1 4.3 1s3-.5 4.3-1.2c2.7-1.4 5.1-3.7 6.5-6.4.6-1.4 1-2.9.9-4.4-.1-.7-.3-1.4-.8-1.7-.2-.2-.6-.3-1-.4-.4-.1-.7-.2-1.1-.3-3.1-.6-6.2-1.2-9.1-1.8-5.9-1-11.5-1.7-16.3-2.3-4.8-.4-8.8-.7-11.6-.9-2.9-.1-4.5-.1-4.5-.1zm5.1-2.8s.2-.1.3-.2c.2-.1.3-.1.5-.1s.4.1.5.3c.1.1.2.3.2.3s-.1.2-.3.3c-.2.1-.4.2-.6.1-.2 0-.4-.1-.5-.3s-.1-.4-.1-.4z"/><path d="M318.6 231.4l.7 2.3c.2.9.3 1.8.2 2.7 0 .9-.4 1.8-.8 2.7-.2.4-.5.8-.9 1.1l-.5.5c-.2.2-.4.3-.6.4-.8.6-1.6 1-2.5 1.2-.9.3-1.8.4-2.7.5l-2.7.5c-1.8.3-3.5.6-5.3.9l-5.3.8-2.7.4c-.9.1-1.8.3-2.7.4l-2.7.3c-.9.1-1.8.2-2.7.4l-2.7.4c-.9.1-1.8.1-2.7.1-.5 0-1.1-.2-1.6-.4.5.2 1 .4 1.6.4.9 0 1.8-.2 2.6-.4l2.6-.6c.9-.2 1.8-.4 2.6-.5l2.6-.5 2.6-.5 2.7-.4 5.3-.9 5.3-.9 2.6-.4c.9-.2 1.8-.2 2.6-.5.8-.2 1.6-.6 2.3-1 .2-.1.3-.2.5-.4.2-.1.4-.3.5-.4.3-.3.6-.6.8-1 .5-.7.8-1.5.9-2.4s.1-1.8 0-2.6l.1-2.2z"/><g><path class="st3" d="M223.5 127.9c11.8 13.1 10.4 13.5 22.4 26.5 11.6 12.5 23.3 25 37 34.9 13.5 9.8 29 17.2 39.9 30 2.4 2.8 4.7 6 7.9 7.6 5.6-22.2 6.5-44.6 2.4-64.7-.8-4.2-9.6-20.7-13.2-24.5-8.2-8.9-16.4-14.4-28-18.5-15.5-5.4-26.5-7.4-44.3-.2-6 2.7-17.4 5.9-24.1 8.9z"/><path class="st4" d="M227.5 133.2c1.4-.9 2.5-1.4 3.9-2.3 2.8-1.7 5.9-2.6 8.9-3.4 16.2-4.6 30.6-6.7 45.2-2.6 8.8 2.9 16.3 8.1 23.7 13.2 4 2.8 8.2 5.7 11.1 9.7 4.4 6 6 14.2 6.9 22.2 1.8 13.9 2.7 28.5-2.3 43.5-.6 1.9-1.8 2.7-3.1 4.2"/><path class="st4" d="M277.9 185.5c1.3-.9 1.8-2.7 1.7-4.3-.1-1.6-.9-3.1-1.7-4.4-1.4-2.2-3.4-4.3-5.8-5.2-2.5-.9-5.6-.5-7.3 1.4"/><path d="M278.1 175.9c1.7-1.2 3.6-2.4 5.3-3.5l5.3-3.4 2.7-1.7c.9-.6 1.8-1.2 2.7-1.7l5.5-3.3c1.9-1.1 3.6-2.2 5.5-3.2.9-.5 1.9-1 2.8-1.5 1-.5 1.9-1 2.9-1.4s2.1-.8 3.1-1c1-.3 2.2-.4 3.3-.3 1.1.1 2.2.3 3.2.7 1.1.4 2 1.1 2.8 1.7.2.2.3.2.3.3s.2.2.2.3c.1.1.2.3.3.3 0 .1.2.3.2.4v-.1c.9 1.2 1.2 2.6 1.6 4 .3 1.4.5 2.8.6 4.1.2 2.8.5 5.5 0 8.4-.1.7-.3 1.4-.5 2-.2.7-.5 1.3-.9 1.9-.7 1.3-1.6 2.4-2.6 3.3s-2.4 1.7-3.8 2-2.8.5-4.2.5h-2l-2-.1-4.1-.2-4.1-.2c-1.4-.1-2.8-.1-4.2-.3-1.4-.3-2.7-.5-4.1-.7l-4-.5c-1.3-.2-2.7-.4-4.1-.4-1.4-.1-2.8-.1-4.1 0 1.4-.2 2.8-.2 4.1-.2 1.4 0 2.8.2 4.1.3l4.1.4c.7.1 1.4.1 2.1.2l2 .3c1.3.2 2.7.2 4 .2l4.1.2 4.1.2 2 .1h1.9c1.4 0 2.7-.1 4-.4 1.2-.4 2.4-1 3.4-1.9 1-.8 1.8-1.9 2.4-3.1.6-1.1 1-2.4 1.2-3.7.4-2.6.3-5.3 0-8.1-.1-1.3-.2-2.8-.5-4-.3-1.3-.6-2.6-1.4-3.7v-.1c0-.1-.1-.2-.2-.3 0-.1-.2-.2-.2-.3-.2-.3-.3-.4-.5-.5-1.5-1.4-3.4-2.2-5.5-2.3-1 0-2 0-3 .3-1 .2-2 .5-3 .9-.9.4-1.9.9-2.8 1.3l-2.8 1.5c-1.9 1-3.7 2.1-5.5 3.1l-5.5 3.2c-.9.5-1.8 1.1-2.8 1.6l-2.7 1.7-5.5 3.3-5.2 3.4zm5.1 10.6l-2.6-.7v-.2l4.1.9 4.1.9c2.7.6 5.4 1.1 8 1.6 1.3.2 2.7.4 4 .5l4.1.3 1.1.1h.5l.5-.1h2.1l4.1-.1c1.4 0 2.8 0 4.3.2l1 .3.5.2c.1.1.3.1.5.2.7.3 1.3.6 1.9 1.1 1.1.9 2 2.1 2.7 3.3.6 1.3.9 2.8 1 4.1.1 1.4-.1 2.8-.5 4.1-.4 1.4-1.1 2.6-1.7 3.8-.7 1.2-1.6 2.3-2.4 3.4-.9 1-1.9 2.1-2.8 3 .8-1.1 1.7-2.1 2.6-3.2s1.6-2.2 2.2-3.4c.7-1.3 1.2-2.5 1.6-3.7.3-1.3.4-2.6.3-4-.1-1.3-.4-2.7-1-3.8-.6-1.2-1.4-2.3-2.5-3-.5-.4-1.1-.7-1.7-.9-.1-.1-.3-.1-.5-.2l-.5-.2c-.3-.1-.7-.1-.9-.2-1.3-.2-2.6-.2-4-.2-1.4.1-2.7 0-4.1.1h-3.1l-1.1-.1-4.1-.3c-1.4-.2-2.7-.4-4.2-.6-2.7-.5-5.4-1.1-8-1.9-2.6-.7-5.4-1.4-7.9-2.2v-.2l2.4 1.1zm-13.5-14.9l4.4-10.8 2.2-5.4 2.3-5.3c.8-1.8 1.5-3.5 2.4-5.3s1.9-3.4 2.9-5c2.2-3.2 5-6.2 8.3-8.2.6-.3 1.4-.6 2.2-.7.4 0 .8 0 1.2.1.4.1.8.2 1.2.4.7.3 1.3.8 1.8 1.1l1.8 1.1c1.2.8 2.3 1.5 3.5 2.2 1.2.8 2.4 1.6 3.4 2.6s2 2.2 2.5 3.6.4 3 0 4.4c-.2.7-.5 1.4-1 2-.4.7-.9 1.2-1.4 1.7-.9 1-2.1 2-3.2 2.9L291 163.5c-2.2 1.7-4.5 3.5-6.6 5.2-1.1.9-2.4 1.5-3.5 2.2-1.2.8-2.3 1.6-3.7 2l-1 .4 1-.4c1.3-.4 2.4-1.4 3.5-2.1 1.1-.9 2.2-1.6 3.4-2.5l6.5-5.3 13-10.8c1.1-.9 2.2-1.7 3.1-2.8.5-.6.9-1 1.3-1.7.4-.5.7-1.2.8-1.8.4-1.3.4-2.6-.1-3.9-.4-1.2-1.3-2.3-2.3-3.3-1-.9-2.1-1.7-3.3-2.4l-3.5-2.2-1.8-1.1c-.6-.3-1.2-.8-1.7-1-.3-.1-.6-.2-.8-.4-.3-.1-.7-.1-.9 0-.6.1-1.3.3-1.8.6-1.6.9-3.1 2.1-4.5 3.5s-2.6 2.8-3.7 4.4-2 3.3-3 4.9c-.9 1.7-1.7 3.5-2.6 5.2l-2.4 5.3-2.3 5.3c-1.1 3.8-2.7 7.3-4.4 10.8zm-7.2-.6s-.5-1.5-1.2-4.2c-.3-1.4-.8-3-1.3-4.9s-1.1-4.1-1.7-6.4c-.5-2.4-1-4.9-1.6-7.7s-1-5.6-1.4-8.6c-.3-3-.7-6.1-1.1-9.3l-.1-1.2c0-.4 0-.8.1-1.3s.4-1 .8-1.2c.4-.3.8-.5 1.2-.7 1.6-.6 3.3-.8 4.9-.6 3.3.5 6.3 2.3 8.6 4.7 1.2 1.2 2.1 2.6 2.5 4.1.5 1.6.5 3.2.3 4.7-.3 3-.8 5.9-1.2 8.6-.4 2.7-.7 5.4-1.1 7.7-.7 4.7-1.4 8.7-1.9 11.5s-.7 4.4-.7 4.4.2-1.6.5-4.4c.4-2.8.8-6.8 1.5-11.6.6-4.8 1.3-10.4 1.9-16.3.2-1.5.1-3-.3-4.4s-1.4-2.7-2.4-3.7c-2.1-2.2-5.1-3.8-8-4.3-1.5-.2-3.1-.1-4.5.5-.6.3-1.2.7-1.4 1.3-.1.3-.1.7-.1 1.1v1.1c.4 3.1.7 6.3 1 9.2.8 5.9 1.8 11.5 2.7 16.2 1 4.7 2 8.6 2.6 11.3.9 2.8 1.4 4.4 1.4 4.4zm-4.2-4.1s-.2-.2-.3-.2c-.2-.2-.2-.3-.2-.4s0-.4.1-.6c.1-.1.2-.3.2-.3s.2 0 .4.2.3.3.3.5c.1.2 0 .4-.1.6-.2.2-.4.2-.4.2z"/><path d="M232.3 135.3l2-1.4c.8-.5 1.6-.8 2.5-1 .9-.3 1.8-.2 2.8 0 .4.1.9.2 1.3.5l.6.3c.3.1.4.3.6.5.8.6 1.4 1.2 1.9 2 .6.8.9 1.6 1.3 2.4l1.3 2.4 2.4 4.8 2.3 4.8 1.2 2.5c.4.8.8 1.6 1.2 2.5l1.1 2.5c.4.8.7 1.7 1.2 2.5l1.2 2.5c.4.8.6 1.7.9 2.5.1.5.1 1.1.1 1.6 0-.5.1-1.1-.1-1.6-.3-.9-.7-1.7-1.2-2.4l-1.3-2.3c-.5-.8-.9-1.6-1.3-2.3l-1.3-2.3-1.3-2.3-1.2-2.5-2.4-4.8-2.4-4.8-1.2-2.4c-.5-.8-.7-1.7-1.3-2.3-.4-.7-1-1.3-1.6-1.9-.2-.2-.3-.2-.5-.4s-.4-.3-.5-.4c-.4-.2-.8-.4-1.2-.5-.8-.3-1.7-.3-2.6-.1s-1.7.4-2.5.8l-2 .6z"/></g><g><path class="st5" d="M130.2 148.1c29.6-.8 58-24.1 64.7-53.6C207.8 37.1 145.5-12.9 93.3 16c-12.4 6.8-22.4 13.6-30.2 25.4-1.5 2.3-2.7 8.8-3.8 11.4-5.9 12.9-4.7 31.4-.1 44.3 9.2 25.7 34 45.3 59.7 50.8"/><path class="st6" d="M117 78c2.7 3.6 7.6 5.4 12 4.6 1.5-.3 2.9-.7 4-1.7 1.1-.9 1.8-2.1 2.3-3.3 2.9-6.7-1.8-18.7-10.3-18.5-8.9 0-12.8 12.4-8 18.9z"/><path d="M126.2 83.7s.8 2.2 2.3 5.9c1.5 3.8 3.7 9.1 6.4 15.4 1.4 3.2 2.8 6.6 4.5 10.2.8 1.8 1.7 3.7 2.5 5.5.5.9.9 1.9 1.3 2.8s.9 2 1.4 2.8c.5.9 1.1 1.6 1.8 2.2.8.6 1.7.9 2.7 1.1 2.1.5 4.2.7 6.4.4 4.3-.5 8.5-2.5 11.8-5.3 3.4-2.9 6.2-6.5 7.7-10.6.7-2.1 1.1-4.2 1-6.2-.1-.3 0-.5 0-.8l-.1-.8c-.1-.5-.2-1-.4-1.5-.3-1-.8-1.9-1.2-2.8-2-3.6-5.2-6.3-8.5-8.4-3.3-2-6.7-3.8-9.7-5.3-6.1-3.3-11.2-6-14.8-7.9-3.5-1.9-5.5-3.1-5.5-3.1s2.1.9 5.8 2.7 8.9 4.2 15.1 7.2c3.1 1.6 6.6 3.1 10 5.1s7 4.8 9.2 8.8c.6 1 1.1 2 1.4 3.1.2.6.3 1.2.4 1.8l.1.8c.1.3.1.6.1.9.2 2.4-.2 4.8-1.1 7-1.6 4.5-4.6 8.4-8.3 11.5-3.7 3-8.2 5.2-12.9 5.7-1.2.1-2.4.1-3.6 0-.6-.1-1.2-.1-1.8-.2l-.8-.2-.4-.1c-.2-.1-.3 0-.4-.1-1.2-.3-2.3-.8-3.3-1.5s-1.8-1.8-2.3-2.8c-.6-1-1-2-1.4-3-.4-.9-.9-2-1.2-2.9-.9-1.9-1.6-3.8-2.5-5.7-1.6-3.7-2.9-7.2-4.1-10.4-2.5-6.5-4.4-11.9-5.7-15.7-.7-1.9-1.1-3.5-1.4-4.4-.3-.7-.5-1.2-.5-1.2zm11.3-12.4l.3.2c.2.2.6.3 1 .5.9.4 2.3.6 4.1.8 3.6.5 8.8 1.1 15 2.6 3.1.8 6.3 1.7 9.8 2.9 1.7.6 3.5 1.2 5.2 1.6 1.8.4 3.7.6 5.3 0 .5-.1.8-.2 1.2-.4.4-.2.7-.4 1.1-.6.7-.5 1.4-1.2 2-1.9.6-.7 1-1.6 1.4-2.5.2-.4.3-.9.5-1.4.1-.4.2-1 .3-1.4.6-3.9-.1-8-1.3-11.9-1.1-4-2.8-7.7-5.1-11.1-1.1-1.6-2.3-3.2-3.7-4.7-.6-.7-1.3-1.4-1.9-1.7-.8-.3-1.6-.3-2.5-.3-.9.1-1.9.3-2.9.5-.9.2-1.9.4-2.7.6l-2.6.8c-.9.3-1.7.6-2.6.9-3.3 1.3-6.3 2.8-9.1 4.3-5.4 3-9.8 6.1-12.7 8.1s-4.7 3.3-4.7 3.3.4-.4 1.2-.9c.8-.7 1.8-1.6 3.3-2.6 1.4-1.1 3.2-2.5 5.3-4 2.1-1.5 4.4-3.1 7.1-4.9 2.8-1.6 5.7-3.3 9.1-4.7.8-.4 1.7-.6 2.6-1 .9-.3 1.8-.5 2.7-.9 1-.3 1.9-.6 2.8-.7l3-.5c1-.2 2.2-.2 3.4.3 1.2.5 2 1.4 2.6 2.2 1.4 1.5 2.7 3.2 3.9 4.9 2.4 3.5 4.2 7.5 5.4 11.5.6 2 1 4.2 1.2 6.3.3 2.1.3 4.3 0 6.5l-.3 1.6c-.1.4-.3 1.1-.5 1.5-.4 1-1 2-1.6 2.8-.7.8-1.4 1.6-2.4 2.3-.5.3-.9.6-1.5.8-.5.2-1 .4-1.5.5-2.1.5-4.2.3-6.1-.2s-3.7-1.2-5.3-1.8c-3.4-1.2-6.5-2.4-9.5-3.2-6-1.7-11.1-2.9-14.8-3.4-1.8-.3-3.3-.6-4.2-1.1-.4-.2-.8-.5-.9-.6-.2.2-.4.1-.4.1zM129.2 57s1.3-1.4 3.5-3.7c2.2-2.3 5.4-5.7 9.3-9.6 1.9-2 4-4.1 6.3-6.3 1-1.1 2.1-2.4 2.9-3.7.8-1.4 1.4-2.8 1.5-4.3v-1.1l-.2-1.1c-.2-.8-.6-1.4-1-2.2-.9-1.4-2.1-2.6-3.6-3.4-3-1.8-6.5-2.4-10.1-3-3.6-.7-7.3-1.3-10.7-2-1.7-.3-3.4-.3-4.6.3-1.4.8-2.2 2.1-2.7 3.6s-.6 3.2-.9 4.8c-.2 1.7-.4 3.2-.5 4.8-.2 3.1-.3 6.2-.3 8.9.1 5.5.5 10.1 1 13.2.5 3.2.8 5 .8 5s-.1-.5-.3-1.3c-.3-.9-.6-2-.9-3.6-.4-1.6-.7-3.5-1-5.7-.3-2.3-.7-4.8-.8-7.6-.2-2.8-.2-5.8 0-8.9.1-1.5.2-3.3.3-4.9.2-1.7.3-3.4.9-5.1.2-.9.6-1.7 1.1-2.6.3-.5.6-.8 1-1.2.2-.1.4-.4.6-.5.3-.2.4-.3.5-.4 1.9-1.1 4.1-1 5.9-.7 3.7.6 7.3 1.3 10.8 2 3.6.7 7.5 1.3 10.8 3.4 1.6 1 3.1 2.4 4.1 4 .6.8.9 1.8 1.2 2.6l.3 1.5c0 .5.1 1 0 1.4-.2 2-1 3.6-1.8 5.1-.9 1.5-2 2.7-3.2 3.8-2.3 2.3-4.5 4.3-6.5 6.2-4 3.8-7.5 6.9-9.8 9-2.5 2.1-3.9 3.3-3.9 3.3zm-12.3 4.3s-1.2-1.5-3.4-4.1c-2.1-2.6-5.1-6.3-8.8-10.8-1.8-2.2-3.7-4.7-5.8-7.2s-4.6-5-7.6-6.4c-3-1.5-6.8-1.9-9.8-.2-1.5.8-2.8 2.1-3.8 3.5-1.1 1.4-2.2 3.1-3.1 4.6-1.9 3.2-3.4 6.7-3.5 10.2 0 1.7.4 3.4 1.3 4.8.8 1.5 2.1 2.7 3.4 3.6 2.8 1.9 6.1 2.9 9.3 3.6 3.2.6 6.3 1.2 9.1 2.1s5.1 2 7.3 2.8 4.1 1.5 5.7 1.9c1.6.4 3 .6 3.8.7.9.1 1.4.2 1.4.2s-.5 0-1.3-.1c-.9 0-2.3-.1-3.8-.4-1.7-.3-3.6-.9-5.9-1.6-1.1-.4-2.3-.8-3.6-1.2-1.2-.4-2.5-1-3.9-1.3-2.7-.7-5.8-1.1-9.1-1.7-3.2-.5-6.9-1.5-10-3.6-1.6-1-3-2.4-4.1-4.1-1-1.6-1.6-3.8-1.6-5.8.1-4.1 1.7-7.8 3.7-11.3 1-1.7 2.1-3.2 3.3-4.9 1.2-1.5 2.6-3 4.5-4.1 1.7-1 3.9-1.4 5.9-1.3 2 .2 3.9.7 5.6 1.6 3.5 1.7 5.9 4.5 7.9 7.1 2.1 2.6 3.9 5.2 5.5 7.4 3.4 4.7 6.1 8.5 8.2 11.2 2.1 3.2 3.2 4.8 3.2 4.8zm-3.3 12.6s-1.9 0-5.3.3c-3.4.1-8.2.5-14 1-2.9.3-6.1.6-9.4 1.1-1.7.2-3.4.4-5.1.7-1.7.3-3.6.5-5.1.9-.8.2-1.5.6-2 1.1-.3.4-.6.5-.8.9-.2.3-.4.7-.5 1-.5 1.5-.6 3.4-.3 5.1.2 1.8.8 3.6 1.4 5.4.5 1.8 1.2 3.6 2 5.4 1.5 3.5 3.3 6.9 5.4 10.1 1 1.5 2.2 3.1 3.5 3.9.3.2.7.4 1 .5h.3l.1.1.2.1c.2.1.4.1.6.1.7.1 1.5 0 2.3-.1 1.6-.4 3.1-1.4 4.5-2.3 1.3-1.1 2.5-2.2 3.9-3.3 2.4-2.3 4.7-4.5 6.6-6.6 3.9-4.3 7-8.1 9-10.8s3.2-4.3 3.2-4.3-.2.4-.7 1.2c-.5.8-1.2 1.9-2.1 3.3-1.9 2.9-4.6 6.8-8.5 11.3-1.9 2.3-4 4.6-6.5 7-.6.6-1.2 1.1-1.8 1.8s-1.3 1.2-2 1.8c-1.4 1.2-3.1 2.2-5 2.7-1 .3-2 .4-3.1.3-.3 0-.5-.1-.7-.2h-.2c-.1-.1-.1-.1-.2-.1l-.4-.1c-.5-.2-1-.4-1.5-.7-1.8-1.2-3.1-2.8-4.1-4.4-2.2-3.3-4.1-6.8-5.6-10.4-.7-1.8-1.4-3.7-2-5.6s-1.1-3.8-1.4-5.7c-.3-2-.3-4.1.5-6.1.2-.5.4-1 .7-1.5s.7-.9 1.1-1.2c.9-.8 1.8-1.1 2.8-1.4 1.9-.6 3.7-.7 5.4-.9 1.8-.2 3.5-.4 5.2-.5 3.3-.3 6.5-.6 9.4-.7 5.8-.4 10.7-.3 14.2-.4 1.7 0 3.1.1 4 .1.5 0 1 .1 1 .1zm4.4 7.3s.1.5.2 1.5.1 2.4-.2 4.2c-.3 1.8-.9 3.9-1.8 6.3s-2.1 5-3.6 7.7c-1.3 2.8-2.8 5.8-3.8 9.1s-1.7 7-2.2 10.8c-.1.9-.3 1.9-.4 2.9-.1.9-.2 1.9-.2 2.9 0 1.9.3 3.8 1.2 5.3.4.7 1.1 1.3 1.8 1.7.7.4 1.6.6 2.6.7 1.9.2 4 0 6.1-.1 2-.1 4.1-.1 6.2-.2 1 0 2-.1 3 0 1-.1 2-.1 2.9-.1.9-.1 1.7-.3 2.2-.8.4-.5.6-1.2.5-2.1s-.2-1.9-.3-2.9c-.2-1-.2-1.9-.4-2.9-1.3-7.6-3-14.6-4.4-20.5-1.4-6-2.5-11-3.2-14.6l-1-5.6s.5 2 1.4 5.4c.4 1.8 1 3.9 1.7 6.3.6 2.4 1.4 5.1 2.3 8.1 1.6 6 3.6 12.9 5 20.5l.5 2.9c.2 1 .4 2 .5 3.1 0 .5 0 1.1-.1 1.7s-.5 1.3-.9 1.8c-.9 1-2.3 1.3-3.3 1.4-1.1.1-2.1.1-3.1.2s-2 .1-3 .1c-2 .1-4.1.1-6.2.2l-3.1.1c-1 0-2.1.1-3.2 0s-2.2-.3-3.3-.9c-1-.5-1.9-1.4-2.5-2.4-1.3-2-1.5-4.2-1.5-6.3 0-1 .1-2.1.2-3.1.1-.9.2-2 .4-2.9.6-3.9 1.4-7.6 2.5-10.9 1.1-3.5 2.7-6.4 4.2-9.2 1.4-2.7 2.8-5.2 3.8-7.4s1.8-4.3 2.1-6.1c.1-.4.2-.8.2-1.3 0-.4.2-.7.2-1.2.1-.7.1-1.2.1-1.7-.1-1.2-.1-1.7-.1-1.7z"/><path class="st4" d="M126.4 136.3c-9.1 2.8-19.3.4-27.7-4.5-8.3-4.9-14.8-12.1-20.8-19.7-14.7-18.7-22-49.9-6.6-70.6 3.7-4.9 8.4-8.9 13.4-12.5 10-7.5 21.2-13.9 33.7-15.9 22.1-3.3 45.8 7.5 60.4 24.3 6.5 7.6 11.4 16.6 12.9 26.4 2.2 14.6-3.2 29.2-9.5 42.4-5.5 11.6-12.8 23.8-25.1 27.6-8.6 2.6-14.5 7.9-23.3 9.2"/></g></svg>