<?xml version="1.0" encoding="utf-8"?>
<!-- Generator: Adobe Illustrator 19.2.0, SVG Export Plug-In . SVG Version: 6.00 Build 0)  -->
<svg version="1.1" id="Layer_1" xmlns="http://www.w3.org/2000/svg" xmlns:xlink="http://www.w3.org/1999/xlink" x="0px" y="0px"
	 viewBox="0 0 700 700" style="enable-background:new 0 0 700 700;" xml:space="preserve">
<style type="text/css">
	.st0{fill:none;}
	.st1{fill:none;stroke:#000000;stroke-width:5;stroke-miterlimit:10;}
	.st2{opacity:0.9;fill:url(#SVGID_1_);enable-background:new    ;}
	.st3{fill:url(#SVGID_2_);}
	.st4{fill:none;stroke:#000000;stroke-width:2;stroke-miterlimit:10;}
	.st5{fill:none;stroke:#000000;stroke-width:3;stroke-miterlimit:10;}
	.st6{fill:none;stroke:#000000;stroke-width:1.292;stroke-miterlimit:10;}
	.st7{fill:none;stroke:#000000;stroke-miterlimit:10;}
	.st8{fill:none;stroke:#000000;stroke-width:2.508;stroke-miterlimit:10;}
	.st9{fill:none;stroke:#000000;stroke-width:1.0801;stroke-miterlimit:10;}
</style>
<rect class="st0" width="700" height="700"/>
<path class="st1" d="M6708.6-568.1c0.3,38.5,0.2,82.4-5.7,120.5c-2.3,14.7-3.7,31.7-10.6,44.9c-9.4,17.9-18.6,35.9-34,49.5
	c-5.5,4.9-11.5,9.2-17.9,12.8c-4.2,2.3-15.3,5.1-15.9,10.8c-0.4,3.6,3.8,5.7,6.9,7.6c6.9,4.3,10.9,12.3,11.6,20.4
	c1.5,15.4-5.6,30.7-18.9,38.8c-0.8,0.5-1.6,1-1.9,1.8c-0.7,2.1,2.1,3.4,4.2,3.8c12.1,2.1,24,5,35.7,8.7c7.7,2.4,24.3,10.6,12,18.5
	c-7.7,4.9-17,6.2-26,7.3c-24.7,3.1-49.7,6.2-74.5,3.9c-5.6-0.5-11.2-1.4-16.8-2.2c-7.5-1.1-15-2.2-22.5-3.3
	c-5.3-0.8-11.8-2.7-12.7-7.9c-1.7-10.2,16.6-15.1,23.6-17.2c4.9-1.5,36.5-4.6,35.6-9.3c-0.5-2.4-2.8-3.9-4.8-5.4
	c-8.9-6.4-15-16.4-16.6-27.2c-1.6-10.8,1.3-22.2,7.9-30.9c2.2-2.9,4.9-6,4.4-9.6c-0.2-1.5-1-2.9-2-4.1c-5.1-6.7-15.9-9.5-22.8-14.7
	c-7.9-6-15.2-12.8-21.6-20.4c-12.5-14.5-22.1-31.5-27.6-49.9c-5.2-17.2-6.9-35.3-8.2-53.2c-2.3-31-3.6-62-3.8-93.1
	c20.2-2.4,42-1.8,62.4-1.4C6600.9-567.5,6708.6-570.2,6708.6-568.1z"/>
<g>
	<path d="M6582-253.2c0,0,0,0.2,0,0.5s0,0.8,0,1.4c0,0.6,0.1,1.3,0.6,1.9c0.4,0.6,1.2,0.8,2.2,0.8c2.1-0.1,4.5-0.2,7.1-0.2
		c1.3,0,2.7-0.1,4-0.1c1.4-0.1,2.8-0.1,4.1-0.2c1.4-0.1,2.8-0.1,4.1-0.2c1.4-0.1,2.7-0.1,4-0.2c2.6-0.1,5-0.2,7.1-0.3
		c2-0.1,3.7-0.6,4.6-1.3c0.4-0.4,0.7-0.8,0.8-1.1c0.1-0.3,0.2-0.5,0.2-0.5s0,0.2,0,0.5c-0.1,0.3-0.2,0.8-0.6,1.3s-1.1,1-1.9,1.4
		s-1.8,0.7-2.8,0.8c-2.1,0.4-4.5,0.7-7.1,0.9c-1.3,0.1-2.7,0.3-4,0.4c-1.4,0.1-2.8,0.2-4.2,0.2c-1.4,0-2.8,0.1-4.2,0.1
		c-1.4,0-2.7,0-4.1,0c-2.6-0.1-5.1-0.2-7.2-0.4c-0.5-0.1-1.1-0.1-1.6-0.4c-0.5-0.3-0.9-0.7-1.1-1.1c-0.4-0.9-0.4-1.7-0.3-2.3
		s0.2-1.1,0.3-1.4C6581.9-253,6582-253.2,6582-253.2z"/>
</g>
<g>
	<path d="M6581.6-337.8c0,0,0.6,0.2,1.6,0.5c0.5,0.2,1.2,0.3,1.9,0.5c0.7,0.2,1.6,0.4,2.4,0.5c0.9,0.2,1.9,0.3,2.9,0.5
		c1,0.1,2.1,0.2,3.3,0.3c1.1,0.1,2.3,0.1,3.5,0.2c1.2,0,2.4,0,3.6,0s2.5,0,3.7-0.1c1.2,0,2.4-0.1,3.6-0.1c2.3-0.1,4.5-0.1,6.3-0.3
		c1.8-0.2,3.2-0.6,4.1-1.2c0.4-0.3,0.8-0.6,1-0.8c0.2-0.2,0.3-0.3,0.3-0.3s-0.1,0.1-0.2,0.4c-0.2,0.3-0.4,0.6-0.8,1
		c-0.8,0.8-2.3,1.6-4.2,2c-0.9,0.2-2,0.4-3,0.5c-1.1,0.1-2.2,0.3-3.3,0.4c-1.2,0.1-2.4,0.2-3.6,0.3c-1.2,0.1-2.5,0.1-3.7,0.2
		c-1.3,0-2.5,0-3.7-0.1c-0.6,0-1.2-0.1-1.8-0.1c-0.6-0.1-1.2-0.1-1.8-0.2c-1.2-0.1-2.3-0.4-3.4-0.6c-0.5-0.1-1-0.3-1.5-0.4
		c-0.5-0.2-1-0.3-1.4-0.4c-1.8-0.6-3.2-1.3-4.2-1.8C6582.2-337.5,6581.6-337.8,6581.6-337.8z"/>
</g>
<g>
	<path d="M6531.5-235.7c0,0,0.1,0.1,0.3,0.3c0.2,0.2,0.5,0.4,1,0.6c0.9,0.5,2.3,1,4.2,1.4c1.9,0.4,4.2,0.7,6.8,1.1
		c2.6,0.4,5.6,0.7,8.9,1.1c3.3,0.3,6.8,0.7,10.6,1c3.7,0.3,7.7,0.5,11.8,0.7c8.2,0.3,17,0.5,25.7,0.6c4.4,0.1,8.8,0.1,13.1,0.2
		c4.3,0,8.5,0.1,12.6,0s8-0.4,11.7-0.8c3.7-0.5,7.2-1.1,10.4-1.7c6.4-1.4,11.6-3,15.2-4.3c1.8-0.7,3.2-1.2,4.2-1.6
		c1-0.4,1.5-0.6,1.5-0.6s-0.5,0.2-1.4,0.7c-0.9,0.4-2.3,1.1-4.1,1.8c-3.5,1.5-8.7,3.5-15.1,5.1s-14.1,2.9-22.3,3.2
		c-4.1,0.2-8.4,0.2-12.7,0.2c-4.3,0-8.7-0.1-13.1-0.1c-4.4-0.1-8.8-0.2-13.1-0.3c-4.3-0.1-8.6-0.4-12.7-0.6c-4.1-0.3-8.1-0.6-11.8-1
		c-3.8-0.4-7.3-0.8-10.6-1.3c-1.6-0.3-3.2-0.5-4.7-0.7c-1.5-0.3-2.9-0.5-4.2-0.8c-2.6-0.5-4.9-1-6.8-1.5s-3.3-1.1-4.1-1.7
		c-0.4-0.3-0.7-0.5-0.9-0.7C6531.6-235.6,6531.5-235.7,6531.5-235.7z"/>
</g>
<linearGradient id="SVGID_1_" gradientUnits="userSpaceOnUse" x1="6498.7998" y1="1146.2887" x2="6704.7002" y2="1146.2887" gradientTransform="matrix(1 0 0 -1 0 700)">
	<stop  offset="1.785714e-02" style="stop-color:#801FE3"/>
	<stop  offset="1" style="stop-color:#B7A7FF"/>
</linearGradient>
<path class="st2" d="M6498.8-539.9c1.4,24.4,2.7,48.8,4.1,73.2c0.4,7.9,0.9,15.9,2.2,23.7c1.8,11.1,5.4,21.8,8.9,32.5
	c3,9.1,6,18.2,11.1,26.3c17.8,28.1,51.5,32.7,81.9,31.3c10.6-0.5,21.3-1.5,31.5-4.7c66.9-21.3,65.2-117,66.1-172.7
	c0-2.6,0.1-5.1,0.1-7.7C6636-535.8,6567.2-534,6498.8-539.9z"/>
<g>
	<path d="M6493.7-559.6c0,0,0.6,8.1,1.5,22.2c0.5,7.1,1,15.6,1.7,25.5c0.6,9.8,1.4,20.9,2.1,33.1c0.4,6.1,0.7,12.4,1.3,18.9
		c0.5,6.5,1.4,13.2,3,19.9c1.6,6.7,3.7,13.5,6,20.4c2.4,6.9,4.5,14,7.5,20.9c0.8,1.7,1.5,3.4,2.4,5.1c0.9,1.6,1.8,3.3,2.8,4.8
		c1.1,1.6,2.2,3.1,3.4,4.7c1.2,1.4,2.5,2.8,3.7,4.3c5.3,5.5,11.7,10,18.8,13.2c7.1,3.3,14.8,5.4,22.6,6.6c7.9,1.3,15.9,1.7,23.9,1.7
		c8-0.1,16.1-0.4,24-1.5c3.9-0.5,7.9-1.2,11.7-2.2c1-0.3,1.9-0.5,2.8-0.8l0.7-0.2c0.1,0,0,0,0.1,0l0.2-0.1l0.4-0.1l1.4-0.5l2.8-1
		c0.5-0.2,0.9-0.3,1.4-0.5l1.3-0.6c7.1-3.1,13.7-7.4,19.4-12.5c5.7-5.1,10.5-11.1,14.4-17.5c4-6.3,7.1-13.1,9.7-19.8
		c2.6-6.8,4.6-13.6,6.3-20.3c3.2-13.5,5-26.5,6.2-38.5c1.1-12.1,1.7-23.2,2-33c0.3-9.9,0.5-18.4,0.7-25.5
		c0.2-14.2,0.4-22.2,0.4-22.2s0,2,0.1,5.8c0,3.8,0.1,9.4,0.2,16.4c0,7.1,0,15.7-0.2,25.5c-0.1,9.9-0.5,21-1.5,33.1
		s-2.6,25.2-5.7,38.9c-1.6,6.8-3.6,13.7-6.1,20.6s-5.7,13.8-9.8,20.3c-4,6.5-9,12.7-14.8,18.1c-5.9,5.4-12.7,9.8-20.2,13.1l-1.4,0.6
		c-0.5,0.2-0.9,0.4-1.4,0.5l-2.8,1l-1.4,0.5l-0.4,0.1l-0.2,0.1l-0.2,0.1l-0.7,0.2c-1,0.3-2,0.6-2.9,0.8c-3.9,1-8,1.8-12,2.4
		c-8.1,1.1-16.2,1.5-24.4,1.6c-8.2,0-16.3-0.5-24.4-1.8c-8-1.3-16-3.5-23.3-7c-7.4-3.4-14.1-8.1-19.6-13.9c-1.3-1.5-2.6-3.1-3.9-4.6
		c-1.1-1.6-2.2-3.2-3.3-4.7c-2.2-3.4-3.9-6.8-5.4-10.4c-3-7.1-5.2-14.2-7.5-21.2c-2.2-7-4.3-13.9-5.8-20.7
		c-1.6-6.9-2.4-13.6-2.8-20.2c-0.5-6.6-0.7-12.9-1-18.9c-0.6-12.1-1.1-23.2-1.6-33.1c-0.5-9.9-0.8-18.4-1.2-25.5
		C6494-551.6,6493.7-559.6,6493.7-559.6z"/>
</g>
<g>
	<path d="M6494.1-544.2c0,0,0.8,0,2.4,0.1s3.8,0.2,6.7,0.3c2.9,0.2,6.4,0.3,10.5,0.5c4,0.2,8.6,0.3,13.6,0.5s10.4,0.3,16.1,0.5
		s11.7,0.2,17.9,0.4c6.2,0.1,12.6,0.1,19.2,0.2c6.5,0.1,13.2,0,19.8,0.1c6.6,0,13.3,0,19.8-0.1s13-0.1,19.2-0.2
		c12.5-0.1,24.1-0.2,34-0.3c10-0.1,18.3-0.1,24.1-0.1c2.9,0,5.2,0,6.7,0c1.6,0,2.4,0,2.4,0s-0.8,0.1-2.4,0.2
		c-1.6,0.1-3.8,0.2-6.7,0.4c-5.8,0.3-14.1,0.8-24.1,1.3s-21.6,0.9-34,1.3c-6.2,0.1-12.7,0.4-19.2,0.4c-6.5,0.1-13.2,0.1-19.8,0.2
		c-6.6,0-13.3,0-19.8-0.2c-6.5-0.1-13-0.3-19.2-0.4c-6.2-0.2-12.3-0.4-18-0.8c-2.9-0.2-5.6-0.3-8.3-0.5c-2.7-0.2-5.3-0.4-7.8-0.5
		c-2.5-0.2-4.9-0.3-7.1-0.5c-2.3-0.2-4.4-0.4-6.4-0.6c-4-0.4-7.6-0.7-10.4-1c-2.9-0.3-5.2-0.6-6.7-0.7
		C6494.9-544.1,6494.1-544.2,6494.1-544.2z"/>
</g>
<g>
	<linearGradient id="SVGID_2_" gradientUnits="userSpaceOnUse" x1="357.554" y1="649.2023" x2="357.554" y2="430.1703">
		<stop  offset="0" style="stop-color:#C6FF94"/>
		<stop  offset="0.9981" style="stop-color:#FFFFFF"/>
	</linearGradient>
	<path class="st3" d="M489.2,430.5c-26.7,1.8-53.5,3-80.3,3.8c-46.6,1.3-93.2,1.2-139.7-0.5c-12.3-0.4-29.3,0.9-45.9-0.1
		c-4,52.5-5.2,122.9-2.7,170.4c0.5,9.3,5.2,27.3,18.9,36.7c8.4,5.8,57.4,6.4,72.4,7c25,1.1,49.8-0.1,74.7,0.3
		c18.7,0.3,41.5,1,60.2,1.2c15.3,0.1,30.6-8.7,39.9-23.3c8.5-13.3,9.2-104.3,9.2-112.6c0.1-30-0.7-54.1-2.6-83.1
		C491.9,430.3,490.5,430.4,489.2,430.5z"/>
	<path class="st4" d="M436.5,517c-1.2,13.5-1.5,27.1-1,40.7c0.1,3.6,0.3,7.3-0.4,10.8c-0.7,3.4-2.2,6.3-3.8,9
		c-5.5,9.4-12.8,18.1-21.7,18.5c-3,0.1-6-0.7-9-1.3c-13.8-2.8-27.9-0.6-41.7-3.4c-3.2-0.6-6.4-1.6-9-4.3c-4.6-4.9-5.5-13.7-5.5-21.6
		c0.1-11.8,1.5-23.5,0.3-35.2c-0.4-3.9-1-8.3,0.7-11.4c1.8-3.3,5.3-3.5,8.4-4.1c5.6-1.1,10.7-4.6,16.2-6.6c9-3.4,18.8-2.8,27.7,1.7
		c11.8,6,24.6,1.5,37,3.6c0.5,0.1,1.1,0.2,1.5,0.7S436.9,516.6,436.5,517z"/>
	<g>
		<path d="M435.7,518.4c0,0-1.2,1-3.2,2.7c-2.1,1.7-5,4.1-8.6,6.9c-1.8,1.4-3.7,3-5.9,4.5c-2.1,1.5-4.5,3.1-7.1,4.4
			c-2.6,1.3-5.5,2.4-8.6,2.7c-3.1,0.4-6.3,0.1-9.3-0.5c-3-0.6-6-1.5-8.8-2.4c-2.9-0.9-5.7-1.7-8.4-2.6c-5.4-1.7-10.5-3.3-14.8-5
			c-4.3-1.7-7.6-3.6-9.9-5c-1.1-0.7-2-1.3-2.6-1.7c-0.6-0.4-0.9-0.6-0.9-0.6s1.3,0.8,3.6,2.1c2.3,1.3,5.8,2.8,10.1,4.3
			c4.3,1.5,9.4,2.8,14.9,4.4c2.7,0.8,5.6,1.6,8.4,2.4c2.9,0.8,5.8,1.7,8.7,2.3c2.9,0.6,5.9,0.9,8.7,0.6c2.9-0.3,5.6-1.2,8.1-2.4
			c2.5-1.2,4.8-2.6,7-4c2.2-1.4,4.2-2.9,6-4.2c3.7-2.6,6.9-4.8,9-6.3C434.4,519.3,435.7,518.4,435.7,518.4z"/>
	</g>
	<g>
		<path d="M404.5,539.5c0,0,0.2,0.8,0.6,2.1c0.3,1.3,0.8,3.3,1.3,5.6c0.5,2.3,1,5,1.4,8c0.2,1.5,0.4,3,0.6,4.5
			c0.2,1.5,0.3,3.1,0.5,4.7c0.1,1.6,0.2,3.1,0.3,4.7c0.1,1.5,0.1,3.1,0.2,4.6c0.1,3,0.1,5.7,0,8.1c-0.1,2.4-0.2,4.3-0.3,5.7
			c-0.1,1.4-0.2,2.2-0.2,2.2s-0.1-0.8-0.2-2.2c-0.1-1.4-0.3-3.3-0.5-5.7c-0.2-2.3-0.4-5.1-0.6-8c-0.2-2.9-0.5-6.1-0.8-9.2
			c-0.3-3.1-0.6-6.2-0.8-9.2c-0.3-2.9-0.6-5.7-0.8-8c-0.2-2.4-0.4-4.3-0.5-5.7C404.5,540.2,404.5,539.5,404.5,539.5z"/>
	</g>
	<g>
		<path class="st4" d="M337.5,402.1c0.6-0.3,1.2-0.6,1.9-0.7c1.7-0.5,3.6-0.4,5.4-0.4c14.4,0.5,24,4.2,37.6,8.2
			c3.1,0.9,6.3,1.9,8.7,4.1c3.7,3.5,4.4,9,6.3,13.7c2.6,6.5,7.4,11.8,11.3,17.7c3.9,5.8,6.9,13,4.9,19.8c-0.8,2.7-2.3,5.1-3.8,7.5
			c-3.3,5.3-6.7,10.5-10,15.8c-3.8,6.1-7.9,12.4-14.1,16c-9.2,5.3-20.7,3.4-31.1,1.4c-8.3-1.6-17.2-3.5-23-9.8
			c-2.6-2.8-4.3-6.3-6.1-9.7c-3.1-6.3-6.3-12.6-9.4-18.9c-10-20,2.1-45.3,15.9-60.2C333.7,404.8,335.5,403.1,337.5,402.1z"/>
		<g>
			<path d="M318.5,447.7c0,0,1.2-0.1,3.2-0.2c2-0.1,4.9-0.3,8.4-0.4c3.5-0.1,7.6-0.2,11.9-0.3c2.2,0,4.4-0.1,6.7-0.1
				c2.3,0,4.6,0,6.9-0.1c2.3,0,4.5-0.3,6.4-1.1c1.9-0.8,3.5-2.3,4.8-3.9c1.3-1.6,2.5-3.4,3.7-5c1.2-1.6,2.3-3.1,3.3-4.5
				c2.1-2.8,3.9-5.1,5.1-6.7c1.2-1.6,2-2.5,2-2.5s-0.6,1-1.6,2.7c-1.1,1.7-2.6,4.2-4.4,7.2c-0.9,1.5-2,3.1-3,4.7
				c-1.1,1.7-2.2,3.5-3.6,5.2c-1.4,1.7-3.1,3.5-5.4,4.6c-2.3,1-4.8,1.3-7.1,1.4c-2.4,0-4.7,0-7,0c-2.3,0-4.5-0.1-6.7-0.1
				c-4.4-0.1-8.4-0.2-11.9-0.3c-3.5-0.1-6.4-0.3-8.4-0.4C319.7,447.7,318.5,447.7,318.5,447.7z"/>
		</g>
		<g>
			<path d="M363.3,446.8c0,0,1.7,2.4,3.9,6.3c1.1,1.9,2.4,4.2,3.6,6.6c0.6,1.2,1.3,2.5,1.9,3.8c0.6,1.3,1.3,2.6,1.9,4
				c0.6,1.3,1.2,2.7,1.8,4c0.6,1.3,1.1,2.6,1.7,3.9c1.1,2.5,2,4.9,2.8,7c1.5,4.1,2.4,7,2.4,7s-0.4-0.6-1-1.8
				c-0.6-1.1-1.5-2.8-2.5-4.7c-1-2-2.1-4.3-3.3-6.8c-0.6-1.2-1.2-2.5-1.8-3.8c-0.6-1.3-1.3-2.6-1.9-4c-1.2-2.7-2.5-5.3-3.6-7.8
				c-1.2-2.5-2.2-4.9-3.1-6.9C364.3,449.6,363.3,446.8,363.3,446.8z"/>
		</g>
	</g>
	<g>
		<path class="st4" d="M237.5,438.2c-4.6,3.7-6.4,9.7-8.1,15.3c-4.2,14.2-8.3,29.6-3.2,43.6c3.6,10,11.5,17.7,19.2,25
			c2.3,2.2,4.8,4.5,7.9,5c3,0.5,6-0.8,8.7-2c8.4-3.7,16.7-7.3,25.1-11c6.6-2.9,13.5-6.1,17.2-12.2c2.7-4.5,3.2-9.9,3.7-15.1
			c0.7-7.9,1.4-15.9,2.1-23.8c0.2-2.3,0.4-4.6-0.2-6.9c-0.7-2.7-2.6-4.9-4.4-7c-7.7-8.8-18.1-21.7-30.9-21
			C264.4,428.6,245.3,431.9,237.5,438.2z"/>
		<g>
			<path d="M243,446.7c0,0,0,0.3,0,0.9c0,0.6,0.1,1.4,0.4,2.4c0.3,1,0.8,2.2,1.5,3.5c0.7,1.3,1.7,2.7,2.7,4.2c1,1.5,2.1,3.3,2.9,5.3
				c0.8,2,1.3,4.2,2.1,6.3c0.7,2.1,1.9,4.1,3.6,5.3c1.7,1.3,4,1.7,6.3,1.4c2.3-0.2,4.6-0.9,6.8-1.7c2.2-0.9,4.4-1.8,6.5-2.6
				c4.3-1.7,8.3-3.3,11.7-4.6c3.4-1.3,6.3-2.4,8.3-3.1c2-0.7,3.2-1.1,3.2-1.1s-1.1,0.6-3,1.5c-1.9,0.9-4.7,2.3-8,3.8
				c-3.3,1.6-7.3,3.3-11.5,5.2c-2.1,0.9-4.2,1.9-6.5,2.8c-2.3,0.9-4.7,1.7-7.3,1.9c-1.3,0.1-2.6,0.1-3.9-0.2l-1-0.3l-0.9-0.4
				c-0.6-0.3-1.3-0.7-1.7-1c-2.3-1.6-3.4-4.1-4.1-6.3c-0.8-2.2-1.2-4.4-1.8-6.4c-0.6-2-1.6-3.7-2.5-5.3c-0.9-1.6-1.7-3.1-2.4-4.5
				c-0.6-1.4-1.1-2.7-1.3-3.7c-0.2-1.1-0.2-1.9-0.2-2.5C243,447,243,446.7,243,446.7z"/>
		</g>
		<g>
			<path d="M255.7,478.7c0,0,0.2,0.5,0.6,1.5c0.2,0.5,0.4,1.1,0.6,1.8c0.1,0.4,0.2,0.7,0.3,1.1c0.1,0.4,0.1,0.8,0.2,1.3
				c0.2,0.9,0.3,1.9,0.3,2.9c0.1,1,0.1,2.1,0.1,3.3c0,1.1-0.1,2.3-0.2,3.5c-0.1,1.2-0.2,2.4-0.3,3.5c-0.3,2.4-0.5,4.7-0.7,6.9
				c-0.1,1.1-0.2,2.2-0.2,3.2c0,1-0.1,2,0,2.8c0,0.4,0,0.9,0,1.3c0,0.4,0.1,0.8,0.1,1.1c0.1,0.7,0.1,1.3,0.2,1.8
				c0.2,1,0.3,1.6,0.3,1.6s-0.2-0.5-0.6-1.5c-0.2-0.5-0.4-1.1-0.6-1.8c-0.1-0.4-0.2-0.7-0.3-1.1c-0.1-0.4-0.1-0.8-0.2-1.3
				c-0.2-0.9-0.3-1.9-0.3-2.9c-0.1-1-0.1-2.1-0.1-3.3c0-1.1,0.1-2.3,0.2-3.5c0.1-1.2,0.2-2.4,0.3-3.5c0.3-2.4,0.5-4.7,0.7-6.9
				c0.1-1.1,0.2-2.2,0.2-3.2c0-1,0.1-2,0-2.8c0-0.4,0-0.9,0-1.3c0-0.4-0.1-0.8-0.1-1.1c-0.1-0.7-0.1-1.3-0.2-1.9
				C255.7,479.3,255.7,478.7,255.7,478.7z"/>
		</g>
	</g>
	<path class="st4" d="M445.8,548.4c5.1,0.1,7.9-4,12-6.9c6-4.3,12.2-8.4,18.5-12.2c3.2-2,7.5-4,9.2-7.6c1-2.1,1.4-4.5,1.7-6.9
		c0.8-5.8,1.7-11.6,2.5-17.4c0.4-2.7,0.8-5.4,0.3-8.1c-0.7-3.6-3.6-6.1-5.8-8.9c-2.6-3.2-5.2-6.4-7.5-9.8
		c-4.7-6.8-9.2-13.8-14.9-19.8c-2.1-2.2-4.6-4.4-8-5c-6.1-1.2-13.3,2.4-19.3,6.4c-8.9,5.9-17.2,13-26.7,17.9
		c-3.2,1.6-6.8,3.3-8.3,6.3c-1.6,3.1,3.5,27.6,4.8,33c1.5,6.4,8.5,12.4,12.9,16.9c6.5,6.7,13.4,14.8,21.4,19.7
		c1.5,0.9,3.2,1.7,4.9,2.2C444.3,548.3,445,548.4,445.8,548.4z"/>
	<path class="st5" d="M501.3,454.5c29.3,4.5,61.4-13.3,73.3-41.1c23-54.1-29.3-114.5-85.8-95.5c-13.4,4.5-24.5,9.3-34.3,19.5
		c-1.9,2-4.2,8.2-5.8,10.5c-8.1,11.6-10.3,30-8.1,43.6c4.4,26.9,25.3,50.7,49.6,60.7"/>
	<path class="st6" d="M500.9,383.1c2,4,6.5,6.7,11,6.7c1.5,0,3-0.2,4.2-1c1.2-0.7,2.1-1.7,2.9-2.8c4.1-6.1,1.6-18.7-6.8-20.1
		C503.4,364.4,497.3,375.9,500.9,383.1z"/>
	<g>
		<path d="M508.9,390.4c0,0,0.4,2.3,1.2,6.2c0.8,4,2,9.6,3.5,16.3c0.8,3.4,1.6,7,2.6,10.8c0.5,1.9,1,3.9,1.5,5.9c0.3,1,0.5,2,0.8,3
			c0.3,1,0.5,2.1,0.9,3c0.3,1,0.8,1.8,1.4,2.5c0.7,0.7,1.5,1.2,2.5,1.6c2,0.9,4,1.4,6.2,1.5c4.3,0.3,8.8-0.9,12.6-3.1
			c3.9-2.2,7.3-5.3,9.5-9c1.1-1.9,1.8-3.9,2.1-5.9c0-0.3,0.1-0.5,0.1-0.8c0-0.3,0-0.6,0-0.8c0-0.5,0-1-0.1-1.5c-0.1-1-0.4-2-0.7-3
			c-1.3-3.9-4-7.1-6.8-9.8c-2.9-2.6-5.9-4.9-8.6-7c-5.4-4.3-9.9-7.9-13.1-10.4c-3.1-2.5-4.9-4-4.9-4s1.9,1.3,5.2,3.7
			c3.3,2.4,8,5.7,13.6,9.8c2.8,2.1,5.9,4.2,8.9,6.8c3,2.6,6,6,7.5,10.3c0.4,1.1,0.7,2.2,0.8,3.3c0.1,0.6,0.1,1.2,0.1,1.8
			c0,0.3,0,0.6,0,0.8c0,0.3,0,0.6-0.1,0.9c-0.2,2.4-1.1,4.7-2.3,6.7c-2.4,4.1-6,7.4-10.2,9.8c-4.2,2.3-9,3.6-13.7,3.3
			c-1.2-0.1-2.4-0.3-3.5-0.6c-0.6-0.2-1.2-0.3-1.7-0.5l-0.8-0.3l-0.4-0.2c-0.2-0.1-0.3-0.1-0.4-0.2c-1.1-0.5-2.1-1.2-3-2.1
			c-0.9-0.9-1.4-2.1-1.8-3.2c-0.4-1.1-0.6-2.1-0.8-3.2c-0.2-1-0.5-2.1-0.7-3.1c-0.5-2-0.9-4-1.4-6c-0.9-3.9-1.6-7.6-2.2-11
			c-1.3-6.8-2.2-12.5-2.8-16.5c-0.3-2-0.5-3.6-0.6-4.6C509,390.9,508.9,390.4,508.9,390.4z"/>
	</g>
	<g>
		<path d="M522.3,380.2c0,0,0.1,0.1,0.3,0.3c0.2,0.2,0.5,0.4,0.9,0.7c0.8,0.6,2.2,1,3.9,1.5c3.5,1.1,8.5,2.7,14.3,5.3
			c2.9,1.3,5.9,2.8,9.1,4.6c1.6,0.9,3.2,1.8,4.8,2.5c1.7,0.7,3.5,1.2,5.2,1c0.5,0,0.8-0.1,1.3-0.2c0.4-0.1,0.8-0.3,1.2-0.4
			c0.8-0.4,1.6-0.9,2.3-1.5c0.7-0.6,1.3-1.4,1.8-2.2c0.3-0.4,0.5-0.8,0.7-1.3c0.2-0.4,0.4-0.9,0.5-1.3c1.3-3.7,1.3-7.9,0.9-11.9
			c-0.4-4.1-1.4-8.1-3-11.8c-0.8-1.8-1.7-3.6-2.8-5.3c-0.5-0.8-1-1.6-1.6-2c-0.7-0.4-1.5-0.6-2.4-0.7c-0.9-0.1-1.9,0-2.9,0
			c-0.9,0-1.9,0.1-2.8,0.1c-0.9,0.1-1.8,0.2-2.7,0.3c-0.9,0.1-1.8,0.3-2.7,0.4c-3.5,0.7-6.7,1.6-9.7,2.6c-5.9,2-10.7,4.2-14,5.7
			c-3.3,1.5-5.2,2.4-5.2,2.4s0.5-0.3,1.3-0.7c0.9-0.5,2.1-1.2,3.7-2c1.6-0.8,3.6-1.9,5.9-3c2.3-1.1,4.9-2.3,7.9-3.5
			c3-1.1,6.2-2.2,9.8-3c0.9-0.2,1.8-0.3,2.7-0.5c0.9-0.1,1.9-0.2,2.8-0.4c1-0.1,2-0.2,2.9-0.2c1,0,1.9,0,3,0c1,0,2.2,0.2,3.3,0.9
			c1.1,0.7,1.7,1.7,2.2,2.6c1.1,1.7,2.1,3.6,3,5.5c1.7,3.9,2.8,8.1,3.2,12.3c0.2,2.1,0.2,4.3,0.1,6.4c-0.1,2.1-0.5,4.3-1.2,6.4
			c-0.2,0.5-0.4,1-0.6,1.5c-0.2,0.4-0.5,1-0.8,1.4c-0.6,0.9-1.3,1.8-2.1,2.5c-0.8,0.7-1.7,1.3-2.8,1.8c-0.5,0.2-1,0.4-1.6,0.5
			c-0.5,0.1-1.1,0.2-1.6,0.2c-2.2,0.1-4.2-0.5-6-1.3c-1.8-0.8-3.4-1.8-4.9-2.7c-3.1-1.8-6-3.5-8.8-4.9c-5.6-2.8-10.4-4.8-13.9-6
			c-1.7-0.6-3.1-1.2-3.9-1.8c-0.4-0.3-0.7-0.6-0.8-0.8C522.4,380.3,522.3,380.2,522.3,380.2z"/>
	</g>
	<g>
		<path d="M516.7,364.7c0,0,1.5-1.1,4.1-3c2.6-1.9,6.3-4.6,10.9-7.8c2.2-1.6,4.7-3.3,7.3-5.1c1.2-0.9,2.5-2,3.5-3.1
			c1-1.2,1.9-2.5,2.3-4c0.1-0.4,0.1-0.8,0.2-1.1c0-0.2,0-0.4,0-0.6c0-0.2,0-0.4,0-0.5c-0.1-0.8-0.3-1.5-0.6-2.3
			c-0.6-1.5-1.6-2.9-2.9-4c-2.6-2.3-6-3.5-9.4-4.8c-3.4-1.3-6.9-2.6-10.2-3.9c-1.6-0.6-3.3-0.9-4.6-0.5c-1.5,0.5-2.5,1.7-3.3,3.1
			c-0.8,1.4-1.2,3-1.8,4.6c-0.5,1.6-1,3.1-1.4,4.6c-0.8,3-1.4,6-1.9,8.7c-0.9,5.4-1.3,10-1.4,13.2c-0.1,3.2-0.1,5.1-0.1,5.1
			s0-0.5-0.1-1.3c-0.1-0.9-0.2-2.1-0.2-3.7c-0.1-1.6-0.1-3.6,0-5.8c0.1-2.3,0.2-4.8,0.6-7.6c0.3-2.8,0.8-5.7,1.6-8.8
			c0.4-1.5,0.8-3.2,1.2-4.8c0.5-1.6,0.9-3.3,1.8-4.9c0.4-0.8,0.9-1.6,1.6-2.4c0.4-0.4,0.7-0.7,1.2-1c0.2-0.1,0.5-0.3,0.7-0.4
			c0.3-0.1,0.4-0.2,0.6-0.3c2.1-0.7,4.2-0.2,5.9,0.4c3.5,1.3,6.9,2.6,10.3,3.9c3.4,1.3,7.1,2.6,10,5.3c1.4,1.3,2.6,2.9,3.3,4.7
			c0.4,0.9,0.6,1.9,0.7,2.8c0,0.2,0,0.5,0,0.8c0,0.2,0,0.4,0,0.7c-0.1,0.5-0.1,1-0.3,1.4c-0.5,1.9-1.6,3.4-2.7,4.7
			c-1.2,1.3-2.5,2.3-3.8,3.2c-2.7,1.8-5.2,3.4-7.5,4.9c-4.6,3-8.6,5.4-11.3,7.1C518.3,363.7,516.7,364.7,516.7,364.7z"/>
	</g>
	<g>
		<path d="M503.8,366.7c0,0-0.9-1.7-2.6-4.6c-1.6-2.9-3.9-7.1-6.7-12.2c-1.4-2.5-2.8-5.3-4.4-8.1c-1.6-2.8-3.6-5.7-6.3-7.7
			c-2.7-2-6.3-3.1-9.6-2c-1.6,0.5-3.1,1.6-4.4,2.8c-1.3,1.2-2.7,2.7-3.9,4c-2.4,2.8-4.6,6-5.3,9.4c-0.3,1.7-0.2,3.4,0.4,5
			c0.5,1.6,1.6,3,2.7,4.2c2.4,2.4,5.5,4,8.5,5.2c3,1.2,6,2.3,8.6,3.7c2.6,1.4,4.7,2.9,6.7,4.1c2,1.2,3.8,2.2,5.3,2.9
			c1.5,0.7,2.8,1.1,3.6,1.4c0.9,0.3,1.3,0.4,1.3,0.4s-0.5-0.1-1.3-0.3c-0.9-0.2-2.2-0.5-3.7-1.1c-1.6-0.6-3.4-1.5-5.5-2.6
			c-1-0.6-2.1-1.2-3.3-1.8c-1.1-0.6-2.3-1.4-3.6-2c-2.5-1.2-5.5-2.1-8.6-3.3c-3.1-1.1-6.5-2.7-9.2-5.3c-1.4-1.3-2.5-2.9-3.3-4.8
			c-0.7-1.8-0.9-4-0.5-6c0.8-4,3.1-7.4,5.7-10.4c1.3-1.5,2.6-2.8,4.1-4.2c1.5-1.3,3.1-2.5,5.2-3.2c1.9-0.7,4.1-0.7,6-0.2
			c1.9,0.5,3.7,1.4,5.2,2.6c3.1,2.3,5,5.5,6.5,8.4c1.6,2.9,2.9,5.8,4.1,8.3c2.5,5.2,4.5,9.5,6,12.5
			C503,364.9,503.8,366.7,503.8,366.7z"/>
	</g>
	<g>
		<path d="M498.3,378.5c0,0-1.9-0.3-5.3-0.7c-3.4-0.5-8.2-1-14-1.5c-2.9-0.2-6.1-0.5-9.4-0.6c-1.7-0.1-3.4-0.2-5.1-0.2
			c-1.7,0-3.6-0.2-5.2,0c-0.8,0.1-1.6,0.3-2.2,0.7c-0.4,0.3-0.7,0.4-0.9,0.7c-0.3,0.3-0.5,0.6-0.7,0.9c-0.8,1.4-1.2,3.2-1.2,5
			c-0.1,1.8,0.1,3.7,0.4,5.6c0.2,1.9,0.5,3.8,1,5.7c0.8,3.7,2,7.4,3.5,10.9c0.7,1.7,1.6,3.4,2.7,4.5c0.3,0.3,0.6,0.5,0.9,0.7
			l0.3,0.1c0,0,0.1,0.1,0.1,0.1l0.2,0.1c0.2,0.1,0.4,0.2,0.6,0.2c0.7,0.2,1.5,0.3,2.3,0.3c1.6-0.1,3.3-0.8,4.8-1.5
			c1.5-0.8,2.9-1.7,4.4-2.6c2.8-1.8,5.4-3.6,7.7-5.3c4.6-3.5,8.3-6.7,10.8-9c2.5-2.3,3.9-3.7,3.9-3.7s-0.3,0.4-0.9,1.1
			c-0.6,0.7-1.5,1.7-2.7,2.9c-2.4,2.5-5.8,5.9-10.4,9.6c-2.3,1.9-4.8,3.8-7.6,5.7c-0.7,0.5-1.4,0.9-2.1,1.4
			c-0.7,0.5-1.5,0.9-2.3,1.4c-1.6,0.9-3.4,1.6-5.4,1.8c-1,0.1-2,0-3.1-0.3c-0.3-0.1-0.5-0.2-0.7-0.3l-0.2-0.1
			c-0.1-0.1-0.1-0.1-0.2-0.1l-0.4-0.2c-0.5-0.3-0.9-0.6-1.3-1c-1.6-1.5-2.5-3.3-3.2-5.1c-1.6-3.6-2.8-7.4-3.6-11.2
			c-0.4-1.9-0.7-3.9-1-5.9c-0.2-2-0.4-3.9-0.3-5.9c0.1-2,0.4-4.1,1.6-5.9c0.3-0.5,0.6-0.9,1-1.3c0.4-0.4,0.9-0.8,1.3-1
			c1-0.6,2-0.8,3-0.9c2-0.2,3.8,0,5.5,0.1c1.8,0.1,3.5,0.2,5.2,0.4c3.3,0.3,6.5,0.6,9.4,1c5.8,0.7,10.6,1.6,14,2.2
			c1.7,0.3,3,0.6,3.9,0.8C497.8,378.3,498.3,378.5,498.3,378.5z"/>
	</g>
	<g>
		<path d="M501.3,386.4c0,0,0,0.5-0.1,1.5c-0.1,1-0.3,2.4-1,4.1c-0.6,1.7-1.6,3.7-2.9,5.9c-1.3,2.2-3,4.5-4.9,6.9
			c-1.8,2.5-3.8,5.2-5.4,8.3c-1.6,3.1-2.9,6.6-4.1,10.2c-0.3,0.9-0.6,1.8-0.9,2.8c-0.3,0.9-0.5,1.8-0.7,2.8
			c-0.3,1.9-0.4,3.8,0.2,5.4c0.3,0.8,0.8,1.5,1.5,2c0.6,0.5,1.5,0.9,2.4,1.1c1.8,0.5,3.9,0.7,6,1c2,0.3,4.1,0.6,6.1,0.9
			c1,0.2,2,0.3,3,0.5c1,0.1,2,0.3,2.9,0.4c0.9,0.1,1.7,0,2.3-0.4c0.5-0.4,0.8-1.1,0.9-2c0.1-0.9,0.1-1.9,0.2-2.9
			c0-1,0.1-1.9,0.1-2.9c0.1-7.7-0.3-14.9-0.6-21c-0.3-6.2-0.5-11.3-0.5-14.9c0-1.8,0-3.2,0-4.2c0-1,0-1.5,0-1.5s0.1,2.1,0.4,5.6
			c0.1,1.8,0.3,4,0.5,6.5c0.2,2.5,0.5,5.3,0.8,8.4c0.5,6.2,1.2,13.3,1.2,21.1c0,1,0,2,0,2.9c0,1,0,2-0.1,3.1
			c-0.1,0.5-0.2,1.1-0.4,1.7c-0.2,0.6-0.7,1.2-1.2,1.6c-1.1,0.8-2.5,0.9-3.5,0.8c-1.1-0.1-2.1-0.3-3.1-0.4c-1-0.1-2-0.3-3-0.4
			c-2-0.3-4.1-0.6-6.1-0.9l-3.1-0.5c-1-0.2-2.1-0.3-3.1-0.6c-1.1-0.3-2.1-0.7-3.1-1.5c-0.9-0.7-1.6-1.7-2-2.8
			c-0.9-2.2-0.7-4.4-0.3-6.5c0.2-1,0.5-2,0.8-3c0.3-0.9,0.6-1.9,0.9-2.8c1.3-3.7,2.7-7.2,4.4-10.3c1.7-3.2,3.8-5.8,5.8-8.3
			c1.9-2.4,3.7-4.6,5.1-6.6c1.4-2,2.5-3.9,3.2-5.6c0.2-0.4,0.3-0.8,0.4-1.2c0.1-0.4,0.3-0.7,0.4-1.1c0.2-0.7,0.3-1.2,0.4-1.7
			C501.2,386.9,501.3,386.4,501.3,386.4z"/>
	</g>
	<path class="st7" d="M499.6,442.2c-9.5,1.1-19.1-3.1-26.4-9.4s-12.4-14.6-16.9-23.1c-11.1-21-12.7-53.1,6.2-70.6
		c4.5-4.2,9.9-7.2,15.4-9.9c11.2-5.6,23.4-9.9,36-9.6c22.3,0.7,43.7,15.6,55,34.8c5,8.6,8.2,18.4,7.9,28.3c-0.5,14.7-8.4,28.1-17,40
		c-7.5,10.4-16.9,21.1-29.6,22.6c-8.9,1-15.7,5.2-24.6,4.9"/>
	<path class="st8" d="M332,605.3c13.3-20.9,10.4-51.5-7-69.9c-33.7-35.8-97.5-16-101.9,33.8c-1,11.7-1,21.8,3.4,32.8
		c5,12.3,25.6,25.9,36.7,28.7c22.1,5.7,47.3-2.4,63.1-17.6L332,605.3z"/>
	<path class="st9" d="M277.2,581.7c3.8-0.2,7.3-2.7,8.8-6.2c0.5-1.1,0.8-2.4,0.7-3.6c-0.1-1.1-0.6-2.2-1.2-3.1
		c-3.3-5.2-13.8-7.5-17.7-1.6C263.7,573.5,270.5,582,277.2,581.7z"/>
	<g>
		<path d="M285.4,578c0,0,1.9,0.4,5.2,1.1c3.3,0.7,8,1.7,13.7,2.7c2.8,0.5,5.9,1.1,9.2,1.6c1.6,0.3,3.3,0.5,5,0.8
			c0.9,0.1,1.7,0.3,2.6,0.4c0.9,0.1,1.8,0.3,2.6,0.4c0.8,0.1,1.6,0,2.3-0.3c0.7-0.3,1.4-0.7,2-1.3c1.3-1.2,2.4-2.6,3.2-4.2
			c1.7-3.2,2.2-7,1.8-10.6c-0.3-3.7-1.6-7.3-3.7-10.2c-1.1-1.4-2.3-2.7-3.8-3.5c-0.2-0.1-0.4-0.2-0.5-0.3c-0.2-0.1-0.4-0.2-0.6-0.3
			c-0.4-0.2-0.8-0.3-1.2-0.4c-0.8-0.2-1.7-0.4-2.5-0.5c-3.4-0.3-6.7,0.6-9.7,1.9c-3,1.3-5.7,2.9-8.3,4.2c-5.1,2.7-9.4,4.9-12.4,6.5
			c-3,1.5-4.7,2.4-4.7,2.4s1.6-1,4.5-2.8c2.9-1.7,7-4.2,12-7.2c2.5-1.4,5.1-3.1,8.2-4.6c3-1.4,6.6-2.6,10.5-2.3
			c1,0.1,1.9,0.2,2.9,0.5c0.5,0.1,0.9,0.3,1.4,0.5c0.2,0.1,0.4,0.2,0.7,0.3c0.3,0.1,0.5,0.2,0.7,0.4c1.8,1,3.3,2.4,4.4,4
			c2.4,3.3,3.7,7.2,4.1,11.2c0.4,4-0.2,8.1-2.1,11.7c-0.5,0.9-1,1.7-1.6,2.5c-0.3,0.4-0.7,0.8-1,1.1l-0.5,0.5l-0.2,0.2
			c-0.1,0.1-0.2,0.2-0.3,0.3c-0.8,0.6-1.6,1.2-2.6,1.6c-1,0.4-2.1,0.4-3.1,0.3c-1-0.1-1.8-0.3-2.7-0.4c-0.9-0.2-1.7-0.3-2.6-0.5
			c-1.7-0.3-3.4-0.7-5-1c-3.3-0.6-6.3-1.3-9.1-2c-5.6-1.3-10.3-2.6-13.5-3.5c-1.6-0.4-2.9-0.8-3.8-1.1
			C285.9,578.1,285.4,578,285.4,578z"/>
	</g>
	<g>
		<path d="M282.1,564.3c0,0,0.1,0,0.3-0.1c0.2-0.1,0.5-0.2,0.8-0.4c0.7-0.4,1.5-1.3,2.5-2.5c2-2.3,4.9-5.6,8.8-9.2
			c2-1.8,4.1-3.6,6.6-5.5c1.2-0.9,2.4-1.8,3.5-2.9c1.1-1,2-2.2,2.5-3.6c0.1-0.4,0.2-0.6,0.3-1.1c0-0.3,0.1-0.7,0.1-1.1
			c0-0.7-0.2-1.5-0.4-2.2c-0.3-0.7-0.6-1.4-1-2c-0.2-0.3-0.4-0.6-0.7-0.9c-0.2-0.3-0.5-0.6-0.8-0.8c-2.3-2.2-5.6-3.6-8.8-4.7
			c-3.2-1.1-6.6-1.6-10-1.6c-1.7,0-3.3,0.1-5,0.3c-0.8,0.1-1.6,0.3-2,0.5c-0.5,0.3-0.9,0.9-1.3,1.6c-0.3,0.6-0.7,1.5-1,2.2
			c-0.3,0.7-0.6,1.4-0.8,2.2c-0.2,0.7-0.5,1.5-0.7,2.2c-0.2,0.7-0.4,1.5-0.6,2.2c-0.7,2.9-1.1,5.7-1.3,8.3
			c-0.4,5.2-0.4,9.6-0.4,12.6c0,3.1,0.1,4.8,0.1,4.8s0-0.4-0.1-1.3c-0.1-0.8-0.2-2-0.3-3.5c-0.1-1.5-0.3-3.4-0.3-5.5
			c-0.1-2.1-0.2-4.6,0-7.2c0.1-2.6,0.4-5.5,1-8.5c0.1-0.8,0.3-1.5,0.5-2.3c0.2-0.8,0.4-1.5,0.7-2.3c0.3-0.8,0.5-1.6,0.8-2.3
			c0.3-0.8,0.6-1.5,1-2.3c0.4-0.8,0.9-1.7,1.8-2.3c1-0.6,1.9-0.8,2.8-0.9c1.7-0.3,3.5-0.4,5.2-0.4c3.5,0,7.1,0.6,10.6,1.7
			c1.7,0.6,3.4,1.3,5,2.1c1.6,0.8,3.2,1.8,4.5,3.1c0.3,0.3,0.6,0.7,1,1c0.3,0.3,0.6,0.7,0.8,1.1c0.5,0.8,0.9,1.6,1.2,2.5
			c0.3,0.9,0.5,1.8,0.5,2.8c0,0.5,0,0.9-0.1,1.4c-0.1,0.4-0.2,0.9-0.4,1.3c-0.6,1.7-1.8,3.1-3,4.2c-1.2,1.1-2.5,2-3.8,2.9
			c-2.4,1.7-4.7,3.5-6.7,5.1c-4,3.3-7.2,6.4-9.3,8.6c-1,1.1-1.9,2-2.7,2.4c-0.4,0.2-0.7,0.3-0.9,0.4
			C282.2,564.3,282.1,564.3,282.1,564.3z"/>
	</g>
	<g>
		<path d="M268.4,563.4c0,0-0.4-1.5-0.9-4.1c-0.6-2.6-1.4-6.4-2.4-10.9c-0.5-2.2-1-4.7-1.5-7.3c-0.6-2.5-1.5-5.2-3.5-6.7
			c-2-1.6-5-1.5-7.5-0.3c-2.5,1.2-4.7,3.4-6.8,5.6c-2.2,2.2-4.3,4.4-6.4,6.5c-1,1-1.8,2.2-1.9,3.3c-0.1,1.3,0.4,2.4,1.2,3.4
			c0.8,1.1,1.9,1.9,2.9,2.9c1,0.9,2.1,1.8,3.1,2.6c2.1,1.6,4.1,3.1,6,4.4c3.8,2.5,7.2,4.4,9.6,5.5c2.4,1.2,3.8,1.8,3.8,1.8
			s-0.4-0.1-1.1-0.4c-0.7-0.2-1.7-0.6-2.9-1.1c-1.3-0.5-2.8-1.1-4.5-1.9c-1.7-0.8-3.6-1.8-5.6-3c-2-1.2-4.1-2.6-6.3-4.1
			c-1.1-0.8-2.2-1.6-3.2-2.5c-1.1-0.9-2.2-1.8-3.2-3c-0.5-0.6-0.9-1.3-1.3-2.1c-0.2-0.4-0.3-0.8-0.4-1.2c0-0.2-0.1-0.5-0.1-0.7
			c0-0.3,0-0.4,0-0.6c0.2-2,1.3-3.4,2.3-4.5c2.1-2.2,4.3-4.4,6.4-6.6c2.1-2.2,4.4-4.5,7.4-5.9c1.5-0.7,3.1-1,4.8-1
			c0.8,0,1.7,0.2,2.4,0.5c0.2,0.1,0.4,0.2,0.6,0.2c0.2,0.1,0.3,0.2,0.5,0.3c0.4,0.2,0.7,0.4,1,0.7c1.3,1,2.1,2.4,2.7,3.7
			c0.6,1.4,0.9,2.7,1.2,4.1c0.5,2.7,0.8,5.1,1.2,7.4c0.7,4.6,1.2,8.4,1.6,11.1C268.2,561.8,268.4,563.4,268.4,563.4z"/>
	</g>
	<g>
		<path d="M265.5,573.9c0,0-1.6,0.2-4.4,0.5c-2.8,0.3-6.8,0.7-11.6,1.1c-2.4,0.2-5,0.4-7.7,0.7c-2.7,0.3-5.5,0.8-7.9,2.2
			c-2.4,1.4-4.4,3.8-4.6,6.6c-0.2,2.7,1.2,5.8,2.5,8.6c1.3,2.8,3,5.5,5.4,7.1c1.2,0.8,2.5,1.3,3.9,1.4c1.3,0.1,2.8-0.2,4.1-0.7
			c2.6-1,4.8-2.8,6.8-4.7c1.9-1.9,3.8-3.8,5.7-5.3c2-1.5,3.8-2.6,5.4-3.7c1.6-1.1,2.9-2.1,4-3.1c1-0.9,1.8-1.7,2.3-2.3
			c0.5-0.6,0.7-0.9,0.7-0.9s-0.2,0.3-0.7,0.9c-0.4,0.6-1.1,1.5-2.1,2.5c-1,1-2.3,2.2-3.8,3.4c-0.8,0.6-1.6,1.2-2.5,1.9
			c-0.9,0.7-1.8,1.3-2.7,2.1c-1.8,1.5-3.4,3.5-5.4,5.5c-1.9,2-4.2,4.1-7.2,5.3c-1.5,0.6-3.1,1-4.9,0.9c-1.7-0.1-3.4-0.7-4.8-1.6
			c-2.9-2-4.7-4.9-6.1-7.9c-0.7-1.5-1.3-3-1.8-4.6c-0.5-1.6-0.9-3.3-0.7-5.1c0.1-1.7,0.9-3.4,1.9-4.7c1-1.3,2.3-2.4,3.7-3.2
			c2.8-1.6,5.9-2,8.7-2.2c2.8-0.2,5.4-0.2,7.8-0.3c4.8-0.2,8.8-0.2,11.6-0.3C263.9,574,265.5,573.9,265.5,573.9z"/>
	</g>
	<g>
		<path d="M272.7,582.1c0,0-0.8,1.4-2.3,3.9c-1.5,2.4-3.5,6-5.8,10.3c-1.1,2.1-2.4,4.5-3.6,7c-0.6,1.3-1.2,2.5-1.9,3.9
			c-0.6,1.3-1.4,2.7-1.7,4c-0.2,0.6-0.3,1.3-0.2,1.9c0.1,0.4,0.1,0.6,0.2,0.9c0.1,0.3,0.3,0.6,0.5,0.8c0.8,1.1,2,1.9,3.4,2.6
			c1.3,0.6,2.9,1.1,4.4,1.6c1.5,0.5,3.1,0.8,4.6,1.1c3.1,0.6,6.3,1,9.5,1c1.6,0,3.1-0.1,4.3-0.6c0.3-0.1,0.6-0.3,0.9-0.5l0.2-0.1
			c0,0,0.1-0.1,0.1,0l0.1-0.1c0.1-0.1,0.3-0.3,0.4-0.4c0.4-0.4,0.7-1,1-1.6c0.4-1.3,0.5-2.7,0.4-4.1c-0.1-1.4-0.3-2.8-0.5-4.2
			c-0.4-2.7-0.9-5.3-1.5-7.7c-1.1-4.7-2.3-8.6-3.2-11.3c-0.9-2.7-1.5-4.2-1.5-4.2s0.2,0.4,0.5,1.1c0.3,0.7,0.8,1.7,1.4,3
			c1.1,2.6,2.6,6.4,4,11.2c0.7,2.4,1.3,5,1.8,7.7c0.5,2.7,1.3,5.8,0.3,9.1c-0.3,0.8-0.7,1.6-1.3,2.3c-0.2,0.2-0.3,0.3-0.4,0.4
			l-0.1,0.1c-0.1,0.1-0.1,0.1-0.2,0.1l-0.3,0.2c-0.4,0.3-0.8,0.5-1.2,0.7c-1.7,0.7-3.4,0.8-5.1,0.8c-3.3,0-6.6-0.3-9.8-1
			c-1.6-0.3-3.2-0.7-4.8-1.2c-1.6-0.5-3.1-1-4.7-1.7c-1.5-0.7-3-1.7-4-3.3c-0.3-0.4-0.5-0.8-0.6-1.2c-0.2-0.4-0.3-1-0.3-1.3
			c-0.1-1,0.1-1.9,0.3-2.7c0.5-1.6,1.3-2.9,2-4.2c0.7-1.3,1.4-2.6,2-3.8c1.3-2.5,2.7-4.8,3.9-6.9c2.5-4.2,4.8-7.6,6.4-9.9
			c0.8-1.2,1.5-2.1,1.9-2.7C272.5,582.4,272.7,582.1,272.7,582.1z"/>
	</g>
	<g>
		<path d="M279.8,582.5c0,0,0.4,0.2,1.1,0.6c0.7,0.4,1.7,1,2.8,2.1c1.1,1,2.3,2.4,3.6,4.2c1.2,1.7,2.4,3.8,3.7,6
			c1.3,2.2,2.7,4.6,4.6,6.8c1.8,2.2,4.1,4.4,6.5,6.5c0.6,0.5,1.2,1.1,1.8,1.6c0.6,0.5,1.2,1,1.9,1.4c1.3,0.9,2.7,1.6,4.1,1.6
			c0.7,0,1.3-0.1,2-0.5c0.5-0.3,1.1-0.8,1.6-1.4c1-1.2,1.8-2.8,2.7-4.2c0.9-1.5,1.8-2.9,2.7-4.4c0.5-0.7,0.9-1.5,1.4-2.2
			c0.4-0.7,0.9-1.5,1.3-2.1c0.7-1.4,0.6-2.3-0.7-3c-0.6-0.4-1.4-0.7-2.1-1.1c-0.7-0.4-1.5-0.7-2.2-1c-5.8-2.7-11.5-4.8-16.3-6.7
			c-4.8-1.8-8.8-3.5-11.6-4.7c-1.4-0.6-2.5-1.1-3.2-1.4c-0.7-0.3-1.1-0.5-1.1-0.5s1.6,0.6,4.5,1.6c1.4,0.5,3.2,1.1,5.1,1.7
			c2,0.7,4.2,1.4,6.7,2.2c4.9,1.6,10.6,3.6,16.6,6.1c0.8,0.3,1.5,0.7,2.2,1c0.7,0.3,1.5,0.6,2.3,1.1c0.4,0.2,0.8,0.5,1.2,0.9
			c0.4,0.4,0.7,0.9,0.8,1.5c0.3,1.2-0.1,2.3-0.6,3.1c-0.4,0.8-0.9,1.5-1.3,2.3c-0.4,0.7-0.9,1.5-1.3,2.2c-0.9,1.5-1.8,2.9-2.7,4.4
			c-0.9,1.4-1.7,2.9-2.9,4.4c-0.6,0.7-1.3,1.4-2.3,1.9c-0.9,0.4-1.9,0.7-2.9,0.6c-2-0.1-3.7-1-5.1-2c-0.7-0.5-1.4-1-2-1.6
			c-0.6-0.6-1.2-1.1-1.8-1.7c-2.4-2.2-4.6-4.5-6.4-6.9c-1.9-2.4-3.2-4.9-4.4-7.2c-1.2-2.3-2.3-4.4-3.3-6.2c-1.1-1.8-2.2-3.2-3.2-4.3
			c-0.5-0.5-1-1-1.4-1.4c-0.5-0.4-0.8-0.7-1.2-0.9C280.2,582.7,279.8,582.5,279.8,582.5z"/>
	</g>
	<path class="st7" d="M330.1,600.7c4.5-5.9,13.3-34.9-2-53.1c-7.9-9.4-14.7-16.8-25.8-22.1c-7.5-3.6-16.1-4.4-24.3-3.4
		c-18.5,2.2-37.1,11.6-45.1,28.5c-4.5,9.5-5.2,20.3-4.7,30.8c0.2,5.1,0.8,10.3,2.4,15.1c7,20.3,32.2,29.9,52,28.4
		c8-0.6,16.1-1.8,23.4-5.2C305.9,619.5,321.6,611.7,330.1,600.7z"/>
	<g>
		<path class="st4" d="M485.2,554.6c-16.9,5-16.7,3.5-33.6,8.7c-16.3,5-32.6,10.1-47.5,18.1c-14.7,7.9-28.1,18.6-44.3,22.9
			c-3.6,0.9-7.4,1.6-10.3,3.8c17.5,14.7,37.3,25.2,57.2,30.3c4.1,1.1,22.8,0.3,27.8-1.2c11.6-3.5,20.1-8.5,28.8-17.2
			c11.6-11.6,18.2-20.7,19.4-39.8C483,573.6,485.1,562,485.2,554.6z"/>
		<path class="st7" d="M478.8,556c0.2,1.6,0.2,2.9,0.3,4.5c0.3,3.3-0.2,6.4-0.8,9.5c-2.9,16.6-7.2,30.5-17.3,41.8
			c-6.4,6.6-14.4,11.1-22.2,15.6c-4.3,2.4-8.7,4.9-13.6,5.8c-7.3,1.3-15.3-0.8-23.1-3.4c-13.3-4.4-26.8-9.9-38.1-21
			c-1.4-1.3-1.7-2.8-2.5-4.6"/>
		<path class="st7" d="M409.7,578.6c0.3,1.6,1.6,2.8,3.1,3.4c1.5,0.6,3.1,0.6,4.7,0.4c2.6-0.3,5.3-1.2,7.2-3s2.9-4.8,1.9-7.2"/>
		<g>
			<path d="M410.4,582.3c0,0-0.8,1.6-2.2,4.5c-1.4,2.9-3.5,6.9-6,11.8c-1.2,2.4-2.6,5.1-4,7.9c-0.7,1.4-1.4,2.8-2.2,4.3
				c-0.7,1.5-1.5,3-1.8,4.6c-0.4,1.6-0.2,3.3,0.5,4.9c0.6,1.6,1.7,3,3,4.1c2.6,2.3,6.1,3.3,9.5,4.5c1.7,0.6,3.4,1,5.2,1
				c0.4,0,0.9,0,1.3,0c0.2,0,0.4,0.2,0.6,0.2c0.2-0.1,0.5,0,0.6-0.1c0.8-0.3,1.5-0.6,2.2-1.2c1.3-1.1,2.2-2.7,2.7-4.2
				c0.5-1.6,0.7-3.3,0.7-5s-0.1-3.4-0.1-5c-0.1-1.6-0.2-3.3-0.2-4.8c-0.2-3.1-0.3-6.1-0.5-8.8c-0.4-5.5-0.7-10-1-13.2
				c-0.3-3.2-0.4-5-0.4-5s0.2,1.8,0.6,5c0.4,3.2,0.9,7.7,1.4,13.2c0.2,2.7,0.5,5.7,0.7,8.8c0.2,3.1,0.5,6.4,0.5,9.9
				c0,1.7-0.2,3.5-0.7,5.3c-0.6,1.8-1.5,3.4-3,4.7c-0.7,0.6-1.5,1.1-2.5,1.5c-0.2,0.1-0.4,0.1-0.7,0.2c-0.3,0.1-0.5,0.1-0.7,0.1
				c-0.5,0.1-1,0.1-1.4,0.1c-1.9-0.1-3.7-0.7-5.4-1.3c-3.4-1.2-7-2.5-9.8-5c-1.4-1.2-2.5-2.8-3.2-4.5c-0.7-1.7-0.9-3.6-0.5-5.4
				s1.2-3.3,1.9-4.8c0.8-1.5,1.5-2.9,2.3-4.3c1.5-2.8,2.9-5.4,4.2-7.8c2.6-4.8,4.8-8.9,6.3-11.7
				C409.5,583.9,410.4,582.3,410.4,582.3z"/>
		</g>
		<g>
			<path d="M408.4,580.9c0,0-0.7,0.8-1.8,2.1c-1.2,1.4-2.8,3.3-4.7,5.7s-4.1,5.2-6.1,8.4c-1,1.6-2,3.3-2.9,5
				c-0.9,1.8-1.7,3.6-2.5,5.5c-0.8,1.9-1.7,3.8-3.2,5.3c-0.7,0.8-1.6,1.4-2.6,1.8c-1,0.4-2,0.6-3,0.7c-2,0.1-3.9-0.5-5.5-1.3
				s-2.9-2-3.9-3.2s-1.8-2.4-2.4-3.5c-0.6-1.1-1.1-2.1-1.4-2.9c-0.7-1.6-1.1-2.6-1.1-2.6s0.5,0.9,1.3,2.5c0.8,1.6,2.1,3.8,4.1,6.1
				c1,1.1,2.3,2.2,3.8,2.9s3.3,1.2,5.1,1.1c0.9,0,1.8-0.2,2.6-0.6c0.9-0.4,1.6-0.9,2.3-1.6c1.3-1.4,2.2-3.2,3-5.1
				c0.8-1.9,1.6-3.8,2.6-5.5c1-1.8,2-3.5,3-5.1c2.1-3.2,4.4-5.9,6.4-8.3c2-2.3,3.8-4.1,5-5.4C407.7,581.7,408.4,580.9,408.4,580.9z"
				/>
		</g>
		<g>
			<path d="M420.7,582.5c0,0,0.1,1.8,0.7,4.8c0.6,3.1,1.7,7.3,3.1,12.5c1.3,5.2,2.9,11.2,4.5,17.6c0.4,1.6,0.9,3.2,1.7,4.6
				c0.8,1.4,2,2.6,3.6,3c1.5,0.4,3.3,0,4.8-0.6c1.6-0.7,3.1-1.6,4.6-2.5c1.5-0.9,3-1.9,4.5-2.8c0.8-0.5,1.5-0.9,1.9-1.5
				c0.4-0.6,0.6-1.4,0.6-2.2s-0.2-1.6-0.4-2.5c-0.2-0.9-0.4-1.6-0.7-2.5c-0.5-1.6-1.2-3.1-1.9-4.6c-1.5-2.9-3.3-5.6-5.2-8
				c-1.8-2.4-3.7-4.6-5.4-6.7c-3.4-4.1-6.2-7.6-8.2-10c-2-2.4-3.1-3.8-3.1-3.8s1.2,1.3,3.2,3.7c2,2.3,5,5.7,8.5,9.7
				c1.7,2,3.6,4.2,5.5,6.6c1.9,2.4,3.8,5,5.4,8c1.6,3,2.8,6.3,3.1,9.9c0,0.9-0.1,1.9-0.7,2.8c-0.6,0.9-1.4,1.3-2.2,1.8
				c-1.5,0.9-3,1.9-4.5,2.8c-1.5,0.9-3,1.9-4.7,2.6c-1.7,0.7-3.6,1.1-5.5,0.6c-1.8-0.5-3.3-1.9-4.2-3.4c-0.9-1.6-1.4-3.2-1.8-4.9
				c-1.5-6.5-3-12.5-4.2-17.7c-1.2-5.2-2.2-9.5-2.7-12.6c-0.2-1.5-0.4-2.8-0.4-3.6C420.7,582.9,420.7,582.5,420.7,582.5z"/>
		</g>
		<g>
			<path d="M427.5,576c0,0,1.3,0.8,3.7,2.3s5.7,3.6,9.7,6.1s8.7,5.5,13.7,8.6c1.3,0.8,2.5,1.5,4,1.7c1.4,0.2,2.9,0,4.3-0.4
				c1.4-0.5,2.8-1.2,4.1-2c1.2-0.9,2.4-2,3.2-3.2c0.8-1.2,1.4-2.7,1.5-4.2c0-0.4,0-0.7-0.1-1c-0.1-0.2-0.3-0.4-0.6-0.6
				c-0.6-0.3-1.4-0.6-2.1-0.8c-2.9-1.1-5.8-2.1-8.6-3c-5.6-1.9-10.9-3.5-15.5-4.7s-8.4-2.2-11.1-2.8s-4.2-1-4.2-1s0.4,0.1,1.1,0.2
				c0.7,0.1,1.8,0.3,3.2,0.6c2.7,0.5,6.6,1.3,11.2,2.4c4.6,1.2,10,2.6,15.6,4.4c2.8,0.9,5.7,1.9,8.7,3c0.7,0.3,1.4,0.5,2.2,0.9
				c0.4,0.2,0.8,0.5,1,1s0.2,1,0.2,1.4c-0.1,1.7-0.7,3.3-1.6,4.7c-1.9,2.7-4.8,4.6-7.8,5.6c-1.5,0.5-3.2,0.7-4.8,0.4s-3-1.1-4.3-1.9
				c-2.5-1.6-4.9-3.2-7.2-4.7c-2.3-1.5-4.4-2.9-6.4-4.2c-3.9-2.6-7.2-4.8-9.5-6.4C428.8,576.9,427.5,576,427.5,576z"/>
		</g>
		<g>
			<path d="M434.5,568.7c0,0,0.2,0.1,0.5,0.3c0.3,0.2,0.8,0.3,1.5,0.5c0.7,0.1,1.5,0.1,2.4,0.1c0.9-0.1,2-0.3,3.1-0.3
				c2.3-0.2,5-0.3,7.9-0.4c2.9-0.1,5.9-0.2,9-0.3c1.5,0,3.1,0,4.6-0.1c1.5,0,3,0,4.4-0.1c1.4-0.1,2.7-0.5,3.8-1.1
				c1.1-0.6,1.7-1.6,2.1-2.6s0.3-2.1,0.3-3c0-0.9,0-1.7,0-2.4c0-0.7,0.3-1.2,0.3-1.6c0-0.4,0.2-0.5,0.2-0.5s0,0.8,0.1,2.1
				c0,0.7,0.1,1.5,0.2,2.4c0,0.9,0,2-0.4,3.2c-0.4,1.1-1.2,2.3-2.4,3c-1.2,0.8-2.6,1.2-4.1,1.3c-1.5,0.1-2.9,0.1-4.5,0.1
				c-1.5,0-3,0.1-4.6,0.1c-3.1,0-6.1,0.1-9,0.1c-2.9,0.1-5.6,0-7.9,0.1c-1.1,0-2.2,0.1-3.1,0.1s-1.8-0.1-2.4-0.2
				c-0.7-0.2-1.1-0.4-1.5-0.6C434.6,568.8,434.5,568.7,434.5,568.7z"/>
		</g>
	</g>
	<g>
		<path d="M405.6,479.5c0,0,1.2,0.8,3.2,2.3c2,1.5,5,3.6,8.6,6.1c3.6,2.5,7.7,5.4,12.2,8.4c2.2,1.5,4.6,2.9,7.1,4.1
			c1.3,0.6,2.5,1,4,1.6c1.4,0.6,2.6,1.4,3.9,2c1.3,0.6,2.5,1.2,3.8,1.4c0.6,0.1,1.3,0.1,1.9,0.1c0.4,0,0.7-0.1,1-0.1
			c0.3,0,0.7-0.1,1-0.2c2.6-0.5,5.2-1.7,7.6-2.8c5-2.2,9.6-4.2,13.6-6c4-1.7,7.3-3.1,9.7-4.1c2.3-1,3.7-1.5,3.7-1.5
			s-1.3,0.7-3.5,1.8c-2.3,1.1-5.5,2.8-9.4,4.8c-3.9,1.9-8.4,4.2-13.3,6.5c-2.4,1.2-5,2.5-8,3.1c-0.4,0.1-0.7,0.1-1.1,0.2
			c-0.4,0.1-0.8,0.1-1.1,0.1c-0.8,0-1.6,0-2.4-0.1c-1.6-0.3-3-0.9-4.3-1.5c-1.3-0.7-2.6-1.4-3.8-2c-1.2-0.6-2.7-1-4-1.7
			c-2.6-1.3-5-2.8-7.3-4.4c-2.3-1.6-4.3-3.1-6.3-4.6c-2-1.5-3.9-2.9-5.6-4.3c-3.4-2.7-6.2-5-8.1-6.7
			C406.7,480.5,405.6,479.5,405.6,479.5z"/>
	</g>
	<g>
		<path d="M448.8,507.1c0,0,0.1,0.5,0.3,1.5c0.1,0.5,0.2,1,0.2,1.7c0.1,0.7,0.2,1.4,0.2,2.2c0.1,1.7,0.1,3.6,0,5.6
			c-0.1,1-0.1,2.1-0.2,3.2c-0.1,1.1-0.2,2.1-0.3,3.2c-0.3,2.1-0.5,4.3-0.8,6.3c-0.1,1-0.2,2-0.3,2.9c-0.1,0.9-0.2,1.8-0.2,2.6
			c-0.1,0.8-0.1,1.5-0.1,2.2c0,0.7-0.1,1.2-0.1,1.7c0,1-0.1,1.5-0.1,1.5s-0.1-0.5-0.3-1.5c-0.1-0.5-0.2-1-0.3-1.7
			c-0.1-0.7-0.2-1.4-0.2-2.2c-0.1-1.6-0.1-3.6,0-5.6c0.1-1,0.1-2.1,0.2-3.2c0.1-1.1,0.2-2.2,0.3-3.2c0.3-2.1,0.6-4.3,0.8-6.3
			c0.1-1,0.3-2,0.4-2.9c0.1-0.9,0.2-1.8,0.3-2.6c0.2-1.6,0.3-2.9,0.3-3.9C448.8,507.6,448.8,507.1,448.8,507.1z"/>
	</g>
	<path class="st1" d="M497.7,406.5c1.1,0.1,1.5,1.4,1.5,2.5c3.2,47.1,3,191.1,1.2,211.7c-2.8,32.7-11.3,53.5-13.2,57.3
		c-3,6-11.4,12.6-19.3,15.8c-2.6,1.1-10.8,4.8-28,5.8c-19.9,1.2-156.5-0.9-173.3-1.1c-18.6-0.1-40.6-10.6-48.2-25.8
		c-4.4-8.8-5.4-18.7-7.5-28.1c-2.9-13-5.3-180.7,0.3-237.7c0.1-0.6,0.7-1,1.3-1C271.6,404.8,496.6,406.4,497.7,406.5z"/>
	<g>
		<path d="M221.8,410.9c0,0-0.2,2.7-0.6,7.8c-0.4,5.1-0.9,12.6-1.4,22.1c-0.5,9.5-1.1,21.1-1.5,34.4c-0.4,13.3-0.8,28.3-0.9,44.6
			c-0.1,16.3-0.1,34.1,0.4,52.8c0.1,4.7,0.3,9.4,0.5,14.2c0.1,2.4,0.2,4.8,0.3,7.2c0.1,2.4,0.2,4.9,0.5,7.2
			c0.6,4.8,1.8,9.5,3.6,14.1c1.8,4.5,4.3,8.9,7.4,12.7c1.6,1.9,3.3,3.7,5.3,5.2c1,0.7,2,1.6,2.9,2c1.1,0.5,2.3,0.8,3.5,1.1
			c4.9,1.2,10.1,1.8,15.3,2.4c10.4,1,21,1.5,31.8,1.9c5.4,0.2,10.7,0.3,16.1,0.5c5.4,0.2,10.8,0.4,16.2,0.5
			c10.8,0.2,21.7,0,32.6-0.1c10.9-0.1,21.8-0.2,32.7,0.1c10.9,0.3,21.7,0.5,32.4,0.8c5.4,0.1,10.7,0.2,16,0.3c2.7,0,5.3,0.1,7.9,0.1
			l1,0l1,0c0.7,0,1.3,0,1.9-0.1c1.3-0.1,2.5-0.3,3.8-0.4c10.1-1.7,19.2-7.2,26-14.4c1.7-1.8,3.3-3.8,4.7-5.8c0.7-1,1.4-2.1,1.9-3
			c0.5-1,0.9-2.2,1.2-3.4c1.3-4.7,2.1-9.6,2.7-14.5c1.3-9.7,2-19.3,2.7-28.6c1.2-18.7,1.7-36.4,2.1-52.7c0.3-16.3,0.3-31.3,0.1-44.6
			c-0.2-13.3-0.6-24.9-1-34.4c-0.5-9.5-0.9-17-1.1-22.1c-0.3-5.1-0.4-7.8-0.4-7.8s0.2,2.7,0.6,7.8c0.4,5.1,1,12.6,1.6,22.1
			c1.2,19,2.5,46.3,2.1,79.1c-0.2,16.4-0.6,34.1-1.6,52.8c-0.5,9.4-1.2,19-2.4,28.8c-0.7,4.9-1.4,9.9-2.8,14.8
			c-0.4,1.2-0.8,2.5-1.3,3.7c-0.2,0.3-0.3,0.7-0.5,0.9l-0.2,0.4l-0.3,0.5c-0.4,0.5-0.7,1.1-1.1,1.6c-1.5,2.1-3.1,4.2-4.9,6.1
			c-7.1,7.7-16.7,13.5-27.5,15.3c-1.3,0.2-2.7,0.4-4.1,0.5c-0.7,0.1-1.4,0.1-2.1,0.1l-1,0l-1,0c-2.6,0-5.3-0.1-8-0.1
			c-5.3-0.1-10.7-0.2-16-0.3c-10.7-0.2-21.5-0.4-32.4-0.7c-10.8-0.2-21.7-0.1-32.6,0c-10.9,0.1-21.8,0.2-32.7,0
			c-5.4-0.1-10.9-0.3-16.3-0.5c-5.4-0.2-10.8-0.4-16.2-0.6c-10.7-0.4-21.4-0.9-31.9-2c-5.3-0.6-10.5-1.2-15.7-2.5
			c-1.3-0.3-2.6-0.7-3.9-1.3c-0.3-0.1-0.7-0.3-1-0.5c-0.2-0.1-0.3-0.2-0.4-0.3c-0.2-0.1-0.3-0.2-0.4-0.3c-0.5-0.4-1.1-0.8-1.6-1.2
			c-2.1-1.7-4-3.5-5.7-5.6c-3.4-4.1-5.9-8.7-7.8-13.4c-1.9-4.8-3.2-9.7-3.7-14.7c-0.3-2.6-0.3-5-0.4-7.4c-0.1-2.4-0.2-4.9-0.3-7.3
			c-0.1-4.8-0.3-9.6-0.4-14.3c-0.3-18.8-0.2-36.5,0.1-52.9c0.3-16.4,0.9-31.4,1.5-44.6c0.6-13.3,1.4-24.8,2.1-34.4
			c0.7-9.5,1.4-17,1.9-22.1C221.5,413.6,221.8,410.9,221.8,410.9z"/>
	</g>
	<g>
		<path d="M493.3,430.2c0,0-1,0.1-3,0.3c-2,0.2-4.9,0.5-8.5,0.8c-3.7,0.3-8.2,0.6-13.3,1.1c-5.1,0.4-10.9,0.8-17.2,1.2
			c-6.3,0.4-13.2,0.8-20.4,1.1c-7.2,0.4-14.9,0.7-22.8,1c-7.9,0.3-16.1,0.5-24.4,0.7c-8.3,0.1-16.8,0.3-25.2,0.3
			c-8.4,0-16.9,0-25.2-0.1c-8.3-0.1-16.5-0.2-24.4-0.4c-7.9-0.2-15.6-0.5-22.8-0.7c-7.2-0.3-14.1-0.7-20.4-0.9
			c-6.3-0.1-12.1-0.1-17.3-0.1c-5.1,0-9.6-0.1-13.3-0.2c-3.7-0.1-6.6-0.3-8.6-0.4c-2-0.2-3-0.2-3-0.2s1.1,0,3,0.1c2,0,4.9,0,8.6,0
			c3.7,0,8.2-0.2,13.3-0.4c5.1-0.2,10.9-0.5,17.3-0.5c6.4,0,13.2,0.3,20.5,0.4c7.2,0.1,14.9,0.2,22.8,0.3c7.9,0.1,16.1,0.1,24.4,0.2
			c8.3,0,16.7,0,25.2,0c8.4,0,16.9-0.1,25.2-0.2c8.3-0.1,16.5-0.3,24.4-0.4c15.8-0.3,30.6-0.7,43.2-1.2c12.6-0.5,23.2-0.8,30.6-1.1
			c3.7-0.1,6.6-0.3,8.6-0.3C492.2,430.2,493.3,430.2,493.3,430.2z"/>
	</g>
</g>
</svg>
