<?xml version="1.0" encoding="utf-8"?>
<!-- Generator: Adobe Illustrator 19.2.0, SVG Export Plug-In . SVG Version: 6.00 Build 0)  -->
<svg version="1.1" id="Layer_1" xmlns="http://www.w3.org/2000/svg" xmlns:xlink="http://www.w3.org/1999/xlink" x="0px" y="0px"
	 viewBox="0 0 460 352.5" style="enable-background:new 0 0 460 352.5;" xml:space="preserve">
<style type="text/css">
	.st0{fill:none;stroke:#000000;stroke-width:5;stroke-miterlimit:10;}
	.st1{fill:url(#SVGID_1_);}
</style>
<path class="st0" d="M344.5,10.6c1,0.2,1.2,1.7,1.3,2.8c2.7,54.2,2.5,224.1,1,247.8c-2.4,37.7-4.6,61.6-6.2,66
	c-2.6,7-0.2,17.5-45.2,21c-16.9,1.3-132.9-1.1-147.1-1.2c-15.8-0.1-34.5-1.2-40.9-18.7c-3.7-10.2-4.6-21.6-6.4-32.3
	c-2.5-15-4.5-219.1,0.2-284.7c0-0.7,0.6-1.2,1.1-1.2C152.5,8.7,343.5,10.4,344.5,10.6L344.5,10.6z"/>
<linearGradient id="SVGID_1_" gradientUnits="userSpaceOnUse" x1="217.8008" y1="-462.0001" x2="217.8008" y2="-206.2462" gradientTransform="matrix(1 0 0 1 0 506)">
	<stop  offset="0" style="stop-color:#FFFF68"/>
	<stop  offset="1" style="stop-color:#FFD700"/>
</linearGradient>
<path class="st1" d="M332.2,44.2c-22.7,2-45.4,3.5-68.2,4.3c-39.5,1.5-79.1,1.3-118.6-0.6c-10.4-0.5-24.9,1-39-0.1
	c-1-0.1-1.9-0.2-2.9-0.5c-1.9,34.7-2.7,69.5-3,104.2c-0.2,17.8-0.1,35.7,0.1,53.5c0.1,8.2,0.3,16.3,0.6,24.5
	c0.3,9.7,2.3,18.6,4.4,28.2c1.5,6.6,3,13.3,6.3,19.2s8.8,11,15.5,12.1c3.5,0.6,7.4,0,10.2-2.2c-2.5,2,10,4.3,10.7,4.4
	c5,0.5,10.3,0.2,14.4-3.2c9,8.5,18,8.5,23.8,5.5c4.6,3.6,11,4.1,16.5,2.8c3.1-0.8,5.5-2.2,8.2-3.8c4.2-2.4,7.5,2.4,8.2,2.7
	c4.3,1.5,8.9,2.4,13.5,2.2c3.3-0.2,5.9-1.8,9-2.4c3.6-0.7,3.8,1.1,7,2.6c1.9,0.9,4,1.2,6.1,1.6c2.2,0.3,4.4,0.7,6.7,0.5
	c5.7-0.6,10-5.9,15.5-5.3c6.6,0.7,12.2,3.9,19,2.3c4.1-0.9,8.2-3.1,9.8-6.9c3.2,1.3,6.6-1.3,8.9-3.8c19.1-20.7,17.8-57,18.9-83.3
	c0.9-22.3,1.3-44.6,1.4-66.9v-2.1c0.1-32.4-0.5-58.9-1.9-89.7C333.1,44.1,332.6,44.1,332.2,44.2L332.2,44.2z"/>
<path d="M110.2,15.7c-1.4,24-2.4,47.9-3,71.9c-0.3,12-0.4,24-0.6,36c-0.1,12-0.2,24-0.2,36c0,12,0.1,24,0.3,36c0.1,6,0.3,12,0.5,18
	l0.2,9c0.1,3,0.3,5.9,0.7,8.9c0.7,5.9,2,11.7,3.2,17.6c1.3,5.9,2.5,11.7,4.7,17.1c1.1,2.7,2.5,5.3,4.2,7.5c1.7,2.3,3.8,4.3,6.2,5.8
	s5.1,2.4,7.8,2.6c2.7,0.2,5.5-0.5,7.5-2.1l1.7,2.1l0.1-0.2c0.1-0.2,0.1-0.5,0-0.7s0-0.1,0.1,0c0.3,0.2,0.8,0.4,1.3,0.6
	c1,0.4,2.1,0.7,3.2,1s2.2,0.5,3.3,0.8l1.7,0.3c0.3,0.1,0.4,0.1,0.7,0.1l0.9,0.1c2.2,0.1,4.4,0.1,6.5-0.3c0.5-0.1,1-0.2,1.5-0.4
	s1-0.3,1.5-0.6c0.5-0.2,0.9-0.5,1.4-0.7c0.4-0.3,0.9-0.6,1.3-0.9l1-0.7l0.9,0.8l1.2,1c0.4,0.4,0.8,0.7,1.2,1l1.2,0.9
	c0.4,0.3,0.9,0.6,1.3,0.8l1.3,0.8c0.5,0.2,0.9,0.4,1.4,0.7c0.5,0.2,0.9,0.4,1.4,0.6c0.5,0.2,1,0.3,1.4,0.5c0.5,0.2,1,0.2,1.5,0.3
	s1,0.1,1.5,0.2s1,0.1,1.5,0.1h1.5c0.5-0.1,1-0.1,1.5-0.2l1.5-0.3c0.5-0.1,0.9-0.3,1.4-0.5s0.9-0.4,1.4-0.6l0.9-0.4l0.7,0.5
	c1.9,1.5,4.2,2.4,6.7,2.8c2.4,0.4,5,0.4,7.4-0.1c0.6-0.1,1.2-0.2,1.8-0.4c0.5-0.2,1.2-0.4,1.7-0.6c1.1-0.5,2.3-1.1,3.4-1.7l1.7-1
	l0.2-0.1l0.3-0.1l0.2-0.1l0.3-0.1c0.4-0.2,0.8-0.3,1.3-0.4c0.9-0.2,1.8-0.1,2.6,0.1s1.6,0.6,2.2,1c0.7,0.4,1.2,0.9,1.8,1.4l0.7,0.7
	c0.1,0.1,0.2,0.2,0.3,0.2l-0.1-0.1H225l0.2,0.1c1.3,0.4,2.5,0.8,3.7,1.1c2.5,0.6,5,1,7.6,1h1.8c0.5-0.1,1.1-0.2,1.7-0.3
	c1.2-0.3,2.4-0.8,3.7-1.2c1.3-0.4,2.7-0.9,4.3-1c0.8-0.1,1.8,0.1,2.6,0.5s1.4,0.9,1.9,1.2c0.5,0.4,1,0.7,1.5,1
	c0.3,0.1,0.5,0.3,0.8,0.4c0.2,0.1,0.5,0.2,0.8,0.3c1.1,0.4,2.4,0.6,3.7,0.8c2.6,0.4,5.2,0.9,7.5,0.6c2.3-0.3,4.5-1.6,6.9-2.8
	c1.2-0.6,2.4-1.3,3.8-1.8s3-0.8,4.5-0.6c2.8,0.3,5.5,1,8,1.7c2.6,0.6,5.1,1.2,7.5,1.1c2.4,0,4.9-0.7,7.1-1.7s4.1-2.7,4.9-4.7
	l0.5-1.2l1.2,0.5c1,0.4,2.1,0.3,3.2-0.2s2.2-1.3,3.2-2.2l0.7-0.7l0.3-0.3l0.4-0.4c0.5-0.5,1-1.1,1.4-1.6l1.3-1.6
	c0.4-0.6,0.8-1.2,1.2-1.7c1.6-2.3,3-4.8,4.2-7.4c1.2-2.6,2.3-5.2,3.2-7.9c1.8-5.4,3.1-11,4-16.7s1.4-11.4,1.8-17.2
	s0.6-11.6,0.8-17.4c0.2-5.8,0.4-11.6,0.7-17.4c0.5-11.6,0.8-23.2,1.1-34.8c0.2-11.6,0.4-23.2,0.4-34.8c0-11.6,0-23.2-0.1-34.8
	c-0.2-11.6-0.4-23.2-0.8-34.8c-0.4-11.6-0.8-23.2-1.3-34.8c0.7,11.6,1.4,23.2,1.9,34.8c0.5,11.6,1,23.2,1.3,34.8
	c0.3,11.6,0.5,23.2,0.6,34.8c0.1,11.6,0,23.2-0.1,34.8s-0.4,23.2-0.8,34.8c-0.2,5.8-0.4,11.6-0.5,17.4c-0.1,5.8-0.3,11.6-0.7,17.4
	c-0.3,5.8-0.9,11.6-1.8,17.4c-0.9,5.8-2.2,11.5-4,17.1c-0.9,2.8-2,5.6-3.3,8.2c-1.3,2.7-2.7,5.3-4.4,7.7c-0.4,0.6-0.8,1.2-1.3,1.8
	l-1.4,1.8L321,281l-0.4,0.4l-0.4,0.4c-0.3,0.3-0.5,0.6-0.8,0.8c-1.1,1.1-2.4,2-4,2.7c-1.5,0.7-3.5,0.9-5.3,0.2l1.8-0.7
	c-0.6,1.4-1.5,2.7-2.6,3.7s-2.3,1.8-3.6,2.5c-2.6,1.2-5.4,2-8.3,2c-2.9,0.1-5.6-0.5-8.2-1.2c-2.6-0.6-5.1-1.3-7.6-1.6
	c-2.2-0.2-4.5,0.8-6.8,2.1c-2.3,1.2-4.8,2.7-7.8,3.2c-3,0.4-5.8-0.2-8.4-0.5c-1.3-0.2-2.7-0.5-4.1-0.9c-0.3-0.1-0.7-0.2-1.1-0.4
	c-0.3-0.1-0.7-0.3-1-0.5c-0.7-0.3-1.3-0.8-1.9-1.2s-1-0.8-1.4-0.9c-0.4-0.2-0.8-0.2-1.3-0.2c-1.1,0.1-2.3,0.4-3.5,0.9
	c-1.2,0.4-2.5,0.9-3.9,1.3c-0.7,0.2-1.4,0.3-2.2,0.4H236c-2.8,0-5.6-0.4-8.3-1.1c-1.3-0.3-2.7-0.7-4-1.1l-0.2-0.1l-0.1-0.1
	c-0.1,0-0.2-0.1-0.3-0.1c-0.1-0.1-0.2-0.1-0.2-0.2c-0.2-0.2-0.3-0.3-0.5-0.4l-0.7-0.7c-0.5-0.4-0.9-0.8-1.4-1.1
	c-0.9-0.6-1.9-0.9-2.7-0.7c-0.2,0-0.5,0.1-0.6,0.2c0,0-0.1,0-0.1,0.1l-0.2,0.1l-0.2,0.1l-0.2,0.1l-1.8,1c-1.2,0.7-2.4,1.3-3.8,1.9
	c-0.7,0.3-1.3,0.5-2.1,0.7c-0.6,0.2-1.4,0.3-2.1,0.5c-2.8,0.5-5.7,0.6-8.5,0.1s-5.6-1.6-7.9-3.4l1.5,0.1c-0.5,0.2-1.1,0.5-1.6,0.7
	c-0.6,0.2-1.1,0.4-1.7,0.5c-0.6,0.2-1.1,0.3-1.7,0.4c-0.6,0.1-1.2,0.1-1.7,0.2c-0.6,0-1.2,0.1-1.8,0.1c-0.6,0-1.2,0-1.8-0.1
	c-0.6-0.1-1.2-0.1-1.7-0.3c-0.6-0.1-1.1-0.2-1.7-0.4s-1.1-0.3-1.7-0.5c-0.5-0.2-1.1-0.4-1.6-0.6c-0.5-0.2-1-0.5-1.6-0.8l-1.5-0.9
	c-0.5-0.3-1-0.6-1.4-0.9c-0.5-0.3-0.9-0.7-1.4-1c-0.4-0.3-0.9-0.7-1.3-1.1l-1.3-1.1l1.9,0.1c-0.5,0.4-1,0.8-1.6,1.1
	c-0.5,0.3-1.1,0.6-1.7,0.9c-0.6,0.3-1.2,0.5-1.8,0.7c-0.6,0.2-1.2,0.4-1.8,0.5c-1.2,0.3-2.5,0.4-3.7,0.4c-1.2,0.1-2.4,0-3.6-0.1
	l-0.9-0.1h-0.5l-0.5-0.1c-0.6-0.1-1.2-0.2-1.7-0.3c-1.2-0.2-2.3-0.5-3.5-0.8c-1.1-0.3-2.3-0.6-3.5-1.1c-0.6-0.2-1.2-0.5-1.8-0.9
	c-0.3-0.3-0.7-0.4-1.1-1.2c-0.2-0.4-0.2-1.1,0-1.5s0.5-0.7,0.7-0.9l1.7,2.1c-2.7,2.1-6.2,2.9-9.4,2.7c-3.3-0.2-6.4-1.3-9.1-3.1
	c-5.4-3.4-9.1-8.9-11.4-14.6c-2.3-5.7-3.5-11.7-4.8-17.6c-1.3-5.9-2.5-11.8-3.2-17.8c-0.4-3-0.6-6.1-0.6-9.1l-0.2-9
	c-0.1-6-0.3-12-0.3-18c-0.1-12-0.1-24,0-36s0.3-24,0.5-36s0.6-24,1-36s1-24,1.7-36C108.4,39.6,109.3,27.6,110.2,15.7L110.2,15.7z"/>
<path d="M340.7,37.8c0,0-0.9,0.1-2.6,0.3c-1.7,0.2-4.1,0.5-7.2,0.8c-6.2,0.7-15.2,1.6-25.9,2.5c-5.4,0.4-11.2,0.9-17.3,1.3
	c-6.2,0.4-12.6,0.8-19.4,1.1c-6.7,0.3-13.7,0.6-20.7,0.8c-7.1,0.2-14.2,0.3-21.4,0.4c-7.2,0-14.4,0-21.4-0.1
	c-7.1-0.1-14-0.3-20.7-0.5s-13.2-0.5-19.4-0.8c-3.1-0.2-6.1-0.3-9-0.5s-5.7-0.4-8.4-0.5c-5.3-0.1-10.3-0.1-14.6-0.1
	c-4.4,0-8.2,0-11.3-0.1s-5.6-0.3-7.3-0.5s-2.6-0.3-2.6-0.3s0.9,0,2.6,0.1c1.7,0,4.1,0.1,7.3,0c3.1,0,6.9-0.2,11.3-0.4
	c4.4-0.2,9.3-0.5,14.7-0.6c5.4,0,11.2,0.3,17.4,0.4c6.2,0.1,12.6,0.3,19.4,0.4c6.7,0.1,13.7,0.1,20.7,0.2c7.1,0.1,14.2,0,21.4,0
	c7.2,0,14.3-0.1,21.4-0.3c7.1-0.2,14-0.3,20.7-0.5c13.4-0.4,26-0.9,36.7-1.4s19.7-1,26-1.4c3.1-0.2,5.6-0.3,7.3-0.4
	C339.8,37.9,340.7,37.8,340.7,37.8z M133.7,55.7c0,0-0.3,3.5-0.7,9.8c-0.4,6.2-1.1,15.1-1.8,25.7c-0.3,5.3-0.7,11.1-1,17.2
	s-0.7,12.5-1,19.2s-0.5,13.5-0.7,20.5s-0.3,14.1-0.3,21.2s0.1,14.2,0.4,21.2c0.2,7,0.5,13.9,0.8,20.5s0.7,13,1.3,19
	c0.3,3,0.7,5.9,1.2,8.7c0.2,1.4,0.5,2.8,0.7,4.1c0.2,1.4,0.5,2.7,0.8,4c0.5,2.6,1.1,5.1,1.6,7.4c0.6,2.4,1.1,4.6,1.6,6.7
	c1,4.2,1.9,7.9,2.6,10.9c1.4,6.1,2.2,9.6,2.2,9.6l-0.5,0.1l-0.9-2.4c-0.6-1.6-1.5-3.9-2.5-6.8c-0.5-1.5-1.1-3.1-1.7-4.9
	c-0.6-1.8-1.3-3.7-2-5.8c-1.3-4.1-2.9-8.8-4.2-14c-0.4-1.3-0.7-2.6-1-4s-0.7-2.8-1-4.2c-0.6-2.9-1.1-5.8-1.6-8.9
	c-0.9-6.1-1.5-12.7-1.7-19.4c-0.3-6.7-0.3-13.6-0.3-20.6c0-3.5,0.1-7.1,0.1-10.6c0.1-3.6,0.1-7.1,0.2-10.7
	c0.2-7.1,0.5-14.3,0.8-21.3c0.4-7,0.8-13.9,1.2-20.6c0.5-6.7,1-13.1,1.5-19.2s1.1-11.9,1.6-17.2c1-10.6,2-19.5,2.7-25.7
	s1.1-9.7,1.1-9.7L133.7,55.7L133.7,55.7z M159.5,59.5v9.6c0,6.1-0.1,14.8-0.2,25.3s-0.2,22.7-0.3,35.7v10c0,3.4,0,6.8,0.1,10.2
	c0,6.9,0.2,13.8,0.4,20.8c0.3,7,0.5,13.9,1,20.7l0.3,5.1c0.1,1.7,0.3,3.4,0.4,5c0.3,3.3,0.4,6.7,0.7,9.9c0.2,3.2,0.5,6.4,0.7,9.6
	c0.3,3.1,0.5,6.2,0.8,9.2c0.2,3,0.4,5.9,0.7,8.7c0.3,2.8,0.5,5.5,0.7,8.1c0.4,5.2,1,10,1.4,14.2s0.8,7.9,1.1,11
	c0.6,6.1,0.9,9.6,0.9,9.6l-0.5,0.1c0,0-0.8-3.4-2.1-9.4c-0.3-1.5-0.7-3.2-1.1-5s-0.7-3.8-1.1-5.9c-0.4-2.1-0.8-4.3-1.2-6.7l-0.6-3.6
	c-0.2-1.2-0.4-2.5-0.6-3.8c-0.4-2.6-0.8-5.3-1.2-8.1c-0.4-2.8-0.7-5.7-1.1-8.7s-0.7-6.1-1-9.2c-0.3-3.1-0.5-6.4-0.8-9.6
	c-0.3-3.3-0.4-6.6-0.6-10c-0.1-1.7-0.2-3.4-0.2-5.1c0-1.7-0.1-3.4-0.1-5.1c-0.1-3.4-0.2-6.9-0.2-10.4s-0.1-7-0.1-10.5
	c0-7,0-14,0.2-20.9c0-3.4,0.1-6.8,0.2-10.2c0.1-3.4,0.2-6.7,0.3-10c0.2-6.5,0.4-12.9,0.7-18.9c0.3-6,0.5-11.7,0.7-16.9
	c0.9-20.9,1.5-34.9,1.5-34.9L159.5,59.5L159.5,59.5z M187.9,59.1c0,0-0.2,3.6-0.5,9.9s-0.7,15.4-1.1,26.2
	c-0.4,10.8-0.7,23.5-0.9,37.1c-0.2,13.6-0.3,28-0.1,42.5c0.1,7.2,0.3,14.4,0.6,21.6c0.2,3.5,0.3,7.1,0.5,10.6s0.3,6.9,0.5,10.3
	c0.3,6.8,0.7,13.3,1,19.5c0.4,6.2,0.8,12,1.2,17.4c0.2,2.7,0.5,5.3,0.7,7.7c0.3,2.4,0.5,4.8,0.7,7c0.5,4.4,1,8.2,1.5,11.3
	c0.3,1.6,0.4,3,0.6,4.2s0.4,2.2,0.5,3.1c0.3,1.7,0.4,2.6,0.4,2.6l-0.5,0.1c0,0-0.3-0.9-0.8-2.5s-1.3-4-2.1-7.1
	c-0.9-3.1-1.7-6.8-2.6-11.2c-0.4-2.2-0.8-4.5-1.3-6.9c-0.4-2.5-0.8-5-1.2-7.7c-0.4-2.7-0.7-5.5-1.1-8.4c-0.3-2.9-0.6-5.9-1-9.1
	c-0.6-6.2-1.1-12.8-1.4-19.6s-0.4-13.8-0.4-21c0-7.1,0-14.4,0.1-21.6c0.2-14.5,0.6-29,1.2-42.6c0.3-6.8,0.6-13.3,1-19.6
	c0.4-6.2,0.7-12.1,1.1-17.5c0.7-10.8,1.4-19.9,2-26.2c0.5-6.3,0.9-9.9,0.9-9.9L187.9,59.1L187.9,59.1z M217.8,55.1
	c0,0,0.1,0.9,0.3,2.6c0.2,1.7,0.4,4.1,0.7,7.3c0.2,3.2,0.4,7,0.6,11.4s0.3,9.3,0.5,14.7c0.1,5.4,0.2,11.3,0.4,17.5
	c0.1,6.2,0.1,12.7,0.2,19.5c0,6.8,0.1,13.7,0.2,20.8c0.1,7.1,0.1,14.3,0.2,21.5c0.1,3.6,0.2,7.2,0.3,10.7c0.2,3.6,0.4,7.1,0.6,10.7
	c0.4,7.1,0.8,14.1,1,20.8c0.2,6.8,0.3,13.3,0.2,19.5c-0.1,3.1-0.1,6.1-0.1,9c-0.1,2.9-0.2,5.7-0.3,8.4c-0.2,5.4-0.5,10.4-0.8,14.8
	c-0.3,4.4-0.6,8.2-0.9,11.4c-0.3,3.1-0.5,5.6-0.7,7.3s-0.3,2.6-0.3,2.6h-0.5c0,0-0.2-3.6-0.3-9.9c-0.1-3.2-0.1-7-0.2-11.4
	s-0.2-9.3-0.3-14.7c-0.1-5.4-0.2-11.2-0.4-17.4c-0.2-6.2-0.4-12.7-0.6-19.4s-0.3-13.7-0.5-20.8c-0.1-3.5-0.2-7.1-0.3-10.7
	c-0.1-3.6,0-7.2,0-10.9l0.3-21.5c0.1-7.1,0.3-14.1,0.4-20.8c0.1-6.8,0.2-13.3,0.3-19.5c0.1-6.2,0.2-12,0.2-17.4V76.5
	c0-2.2,0-4.2-0.1-6.1c0-1.9,0-3.6-0.1-5.2c-0.1-3.1-0.2-5.6-0.4-7.3c-0.1-1.7-0.2-2.6-0.2-2.6L217.8,55.1L217.8,55.1z M244.7,63
	c0,0,0.1,0.2,0.2,0.6s0.3,1,0.5,1.8c0.5,1.6,1,4,1.5,7.1s0.9,6.9,1.1,11.2c0.2,4.4,0.2,9.3,0.3,14.6c0.1,5.3,0.3,11.1,0.4,17.2
	c0.2,6.1,0.4,12.6,0.7,19.2c0.5,13.3,1.1,27.6,1.7,41.8c0.3,7.1,0.6,14.2,0.9,21.2s0.6,13.9,0.8,20.6c0.1,6.7,0.3,13.1,0.2,19.3v8.9
	c-0.1,2.9-0.1,5.7-0.2,8.3c0,2.7-0.1,5.2-0.2,7.7c-0.1,2.4-0.2,4.8-0.3,6.9c-0.3,4.4-0.5,8.1-0.9,11.3c-0.2,1.6-0.3,2.9-0.5,4.2
	c-0.1,1.2-0.4,2.2-0.5,3.1c-0.3,1.6-0.5,2.5-0.5,2.5l-0.5-0.1c0,0,0-0.9,0.1-2.6c0-0.8,0.1-1.8,0.1-3v-4.1c0-1.5,0-3.3-0.1-5.1
	c0-1.9-0.1-3.9-0.2-6.1c-0.2-4.3-0.3-9.2-0.5-14.5c-0.4-10.7-0.9-23.1-1.2-36.4c-0.2-6.7-0.2-13.6-0.3-20.6
	c-0.1-7-0.2-14.1-0.3-21.3c-0.2-14.2-0.4-28.5-0.6-41.8c-0.1-6.7-0.1-13.1-0.1-19.3c0-6.1,0-11.9,0.1-17.3s0.2-10.2,0.1-14.6
	c-0.1-4.3-0.3-8.1-0.7-11.2c-0.4-3.1-0.8-5.5-1.2-7.1c-0.2-0.8-0.4-1.4-0.5-1.8s-0.2-0.6-0.2-0.6L244.7,63L244.7,63z M280.9,63.1
	l2,14.1c0.6,4.7,1.1,9.4,1.6,14.1s0.9,9.4,1.3,14.2c0.2,2.4,0.4,4.7,0.5,7.1l0.4,7.1c0.2,2.4,0.2,4.7,0.3,7.1l0.3,7.1
	c0.2,4.7,0.2,9.5,0.3,14.2v14.2l-0.2,14.2l-0.4,14.2l-0.5,14.2c-0.2,4.7-0.4,9.5-0.6,14.2s-0.5,9.5-0.8,14.2l-1,14.2l-1,14.2
	l-1.1,14.2c-0.3,4.7-0.7,9.4-1.2,14.2h-1l-0.1-3.4l0.5-0.1l0.6,3.4h-1c-0.2-4.7-0.3-9.5-0.4-14.2s-0.1-9.5-0.1-14.2
	s0.1-9.5,0.2-14.2s0.3-9.5,0.5-14.2c0.4-9.5,0.9-18.9,1.6-28.4l1-14.2l0.8-14.2l0.6-14.2c0.1-4.7,0.3-9.4,0.4-14.2
	c0-4.7,0.1-9.5,0.1-14.2c-0.1-4.7,0-9.5-0.2-14.2l-0.2-7.1c-0.1-2.4-0.1-4.7-0.3-7.1c-0.3-4.7-0.4-9.4-0.8-14.2
	c-0.4-4.7-0.7-9.4-1.1-14.1L280.5,63L280.9,63.1L280.9,63.1z M315.1,63.1c0,0,0.4,3.4,1.1,9.4c0.3,3,0.6,6.7,1,10.9s0.7,9,1,14.1
	c0.3,5.2,0.6,10.8,1,16.7c0.2,5.9,0.5,12.2,0.7,18.7s0.4,13.2,0.5,20c0.1,3.4,0.1,6.8,0.2,10.3c0,3.4,0.1,6.9,0.1,10.4
	c0.1,6.9,0,13.8,0.1,20.7c0,6.8-0.1,13.5-0.3,20c-0.3,6.5-0.5,12.8-1.1,18.7c-0.2,3-0.5,5.9-0.7,8.7c-0.3,2.8-0.6,5.5-0.9,8.1
	c-0.5,5.2-1.3,9.9-1.9,14.1c-0.3,2.1-0.7,4-1,5.8c-0.4,1.8-0.7,3.4-1,4.9s-0.7,2.8-1,3.9c-0.3,1.1-0.6,2.1-0.8,2.9
	c-0.5,1.6-0.7,2.4-0.7,2.4l-0.5-0.1c0,0,0.1-0.9,0.3-2.5c0.1-0.8,0.3-1.8,0.4-2.9c0.2-1.2,0.4-2.5,0.5-4s0.3-3.2,0.4-5
	c0.2-1.8,0.4-3.8,0.5-5.9c0.2-4.2,0.6-8.9,0.8-14.1c0.1-2.6,0.3-5.3,0.4-8.1s0.2-5.7,0.3-8.6c0.2-5.9,0.4-12.2,0.7-18.6
	c0.3-6.5,0.6-13.1,0.8-19.9c0.1-3.4,0.2-6.8,0.3-10.3l0.3-10.3c0.1-3.5,0.1-6.9,0.2-10.3c0-3.4,0.1-6.9,0.1-10.3
	c0.1-6.8,0.1-13.5,0-20c0-6.5-0.2-12.7-0.2-18.7c-0.1-5.9-0.2-11.5-0.4-16.7c-0.2-5.2-0.3-9.9-0.6-14.1c-0.2-4.2-0.4-7.9-0.6-10.9
	c-0.5-6-0.8-9.5-0.8-9.5L315.1,63.1L315.1,63.1z"/>
<path d="M110.2,15.7c-1.4,24-2.4,47.9-3,71.9c-0.3,12-0.4,24-0.6,36c-0.1,12-0.2,24-0.2,36c0,12,0.1,24,0.3,36c0.1,6,0.3,12,0.5,18
	l0.2,9c0.1,3,0.3,5.9,0.7,8.9c0.7,5.9,2,11.7,3.2,17.6c1.3,5.9,2.5,11.7,4.7,17.1c1.1,2.7,2.5,5.3,4.2,7.5c1.7,2.3,3.8,4.3,6.2,5.8
	s5.1,2.4,7.8,2.6c2.7,0.2,5.5-0.5,7.5-2.1l1.7,2.1l0.1-0.2c0.1-0.2,0.1-0.5,0-0.7s0-0.1,0.1,0c0.3,0.2,0.8,0.4,1.3,0.6
	c1,0.4,2.1,0.7,3.2,1s2.2,0.5,3.3,0.8l1.7,0.3c0.3,0.1,0.4,0.1,0.7,0.1l0.9,0.1c2.2,0.1,4.4,0.1,6.5-0.3c0.5-0.1,1-0.2,1.5-0.4
	s1-0.3,1.5-0.6c0.5-0.2,0.9-0.5,1.4-0.7c0.4-0.3,0.9-0.6,1.3-0.9l1-0.7l0.9,0.8l1.2,1c0.4,0.4,0.8,0.7,1.2,1l1.2,0.9
	c0.4,0.3,0.9,0.6,1.3,0.8l1.3,0.8c0.5,0.2,0.9,0.4,1.4,0.7c0.5,0.2,0.9,0.4,1.4,0.6c0.5,0.2,1,0.3,1.4,0.5c0.5,0.2,1,0.2,1.5,0.3
	s1,0.1,1.5,0.2s1,0.1,1.5,0.1h1.5c0.5-0.1,1-0.1,1.5-0.2l1.5-0.3c0.5-0.1,0.9-0.3,1.4-0.5s0.9-0.4,1.4-0.6l0.9-0.4l0.7,0.5
	c1.9,1.5,4.2,2.4,6.7,2.8c2.4,0.4,5,0.4,7.4-0.1c0.6-0.1,1.2-0.2,1.8-0.4c0.5-0.2,1.2-0.4,1.7-0.6c1.1-0.5,2.3-1.1,3.4-1.7l1.7-1
	l0.2-0.1l0.3-0.1l0.2-0.1l0.3-0.1c0.4-0.2,0.8-0.3,1.3-0.4c0.9-0.2,1.8-0.1,2.6,0.1s1.6,0.6,2.2,1c0.7,0.4,1.2,0.9,1.8,1.4l0.7,0.7
	c0.1,0.1,0.2,0.2,0.3,0.2l-0.1-0.1H225l0.2,0.1c1.3,0.4,2.5,0.8,3.7,1.1c2.5,0.6,5,1,7.6,1h1.8c0.5-0.1,1.1-0.2,1.7-0.3
	c1.2-0.3,2.4-0.8,3.7-1.2c1.3-0.4,2.7-0.9,4.3-1c0.8-0.1,1.8,0.1,2.6,0.5s1.4,0.9,1.9,1.2c0.5,0.4,1,0.7,1.5,1
	c0.3,0.1,0.5,0.3,0.8,0.4c0.2,0.1,0.5,0.2,0.8,0.3c1.1,0.4,2.4,0.6,3.7,0.8c2.6,0.4,5.2,0.9,7.5,0.6c2.3-0.3,4.5-1.6,6.9-2.8
	c1.2-0.6,2.4-1.3,3.8-1.8s3-0.8,4.5-0.6c2.8,0.3,5.5,1,8,1.7c2.6,0.6,5.1,1.2,7.5,1.1c2.4,0,4.9-0.7,7.1-1.7s4.1-2.7,4.9-4.7
	l0.5-1.2l1.2,0.5c1,0.4,2.1,0.3,3.2-0.2s2.2-1.3,3.2-2.2l0.7-0.7l0.3-0.3l0.4-0.4c0.5-0.5,1-1.1,1.4-1.6l1.3-1.6
	c0.4-0.6,0.8-1.2,1.2-1.7c1.6-2.3,3-4.8,4.2-7.4c1.2-2.6,2.3-5.2,3.2-7.9c1.8-5.4,3.1-11,4-16.7s1.4-11.4,1.8-17.2
	s0.6-11.6,0.8-17.4c0.2-5.8,0.4-11.6,0.7-17.4c0.5-11.6,0.8-23.2,1.1-34.8c0.2-11.6,0.4-23.2,0.4-34.8c0-11.6,0-23.2-0.1-34.8
	c-0.2-11.6-0.4-23.2-0.8-34.8c-0.4-11.6-0.8-23.2-1.3-34.8c0.7,11.6,1.4,23.2,1.9,34.8c0.5,11.6,1,23.2,1.3,34.8
	c0.3,11.6,0.5,23.2,0.6,34.8c0.1,11.6,0,23.2-0.1,34.8s-0.4,23.2-0.8,34.8c-0.2,5.8-0.4,11.6-0.5,17.4c-0.1,5.8-0.3,11.6-0.7,17.4
	c-0.3,5.8-0.9,11.6-1.8,17.4c-0.9,5.8-2.2,11.5-4,17.1c-0.9,2.8-2,5.6-3.3,8.2c-1.3,2.7-2.7,5.3-4.4,7.7c-0.4,0.6-0.8,1.2-1.3,1.8
	l-1.4,1.8L321,281l-0.4,0.4l-0.4,0.4c-0.3,0.3-0.5,0.6-0.8,0.8c-1.1,1.1-2.4,2-4,2.7c-1.5,0.7-3.5,0.9-5.3,0.2l1.8-0.7
	c-0.6,1.4-1.5,2.7-2.6,3.7s-2.3,1.8-3.6,2.5c-2.6,1.2-5.4,2-8.3,2c-2.9,0.1-5.6-0.5-8.2-1.2c-2.6-0.6-5.1-1.3-7.6-1.6
	c-2.2-0.2-4.5,0.8-6.8,2.1c-2.3,1.2-4.8,2.7-7.8,3.2c-3,0.4-5.8-0.2-8.4-0.5c-1.3-0.2-2.7-0.5-4.1-0.9c-0.3-0.1-0.7-0.2-1.1-0.4
	c-0.3-0.1-0.7-0.3-1-0.5c-0.7-0.3-1.3-0.8-1.9-1.2s-1-0.8-1.4-0.9c-0.4-0.2-0.8-0.2-1.3-0.2c-1.1,0.1-2.3,0.4-3.5,0.9
	c-1.2,0.4-2.5,0.9-3.9,1.3c-0.7,0.2-1.4,0.3-2.2,0.4H236c-2.8,0-5.6-0.4-8.3-1.1c-1.3-0.3-2.7-0.7-4-1.1l-0.2-0.1l-0.1-0.1
	c-0.1,0-0.2-0.1-0.3-0.1c-0.1-0.1-0.2-0.1-0.2-0.2c-0.2-0.2-0.3-0.3-0.5-0.4l-0.7-0.7c-0.5-0.4-0.9-0.8-1.4-1.1
	c-0.9-0.6-1.9-0.9-2.7-0.7c-0.2,0-0.5,0.1-0.6,0.2c0,0-0.1,0-0.1,0.1l-0.2,0.1l-0.2,0.1l-0.2,0.1l-1.8,1c-1.2,0.7-2.4,1.3-3.8,1.9
	c-0.7,0.3-1.3,0.5-2.1,0.7c-0.6,0.2-1.4,0.3-2.1,0.5c-2.8,0.5-5.7,0.6-8.5,0.1s-5.6-1.6-7.9-3.4l1.5,0.1c-0.5,0.2-1.1,0.5-1.6,0.7
	c-0.6,0.2-1.1,0.4-1.7,0.5c-0.6,0.2-1.1,0.3-1.7,0.4c-0.6,0.1-1.2,0.1-1.7,0.2c-0.6,0-1.2,0.1-1.8,0.1c-0.6,0-1.2,0-1.8-0.1
	c-0.6-0.1-1.2-0.1-1.7-0.3c-0.6-0.1-1.1-0.2-1.7-0.4s-1.1-0.3-1.7-0.5c-0.5-0.2-1.1-0.4-1.6-0.6c-0.5-0.2-1-0.5-1.6-0.8l-1.5-0.9
	c-0.5-0.3-1-0.6-1.4-0.9c-0.5-0.3-0.9-0.7-1.4-1c-0.4-0.3-0.9-0.7-1.3-1.1l-1.3-1.1l1.9,0.1c-0.5,0.4-1,0.8-1.6,1.1
	c-0.5,0.3-1.1,0.6-1.7,0.9c-0.6,0.3-1.2,0.5-1.8,0.7c-0.6,0.2-1.2,0.4-1.8,0.5c-1.2,0.3-2.5,0.4-3.7,0.4c-1.2,0.1-2.4,0-3.6-0.1
	l-0.9-0.1h-0.5l-0.5-0.1c-0.6-0.1-1.2-0.2-1.7-0.3c-1.2-0.2-2.3-0.5-3.5-0.8c-1.1-0.3-2.3-0.6-3.5-1.1c-0.6-0.2-1.2-0.5-1.8-0.9
	c-0.3-0.3-0.7-0.4-1.1-1.2c-0.2-0.4-0.2-1.1,0-1.5s0.5-0.7,0.7-0.9l1.7,2.1c-2.7,2.1-6.2,2.9-9.4,2.7c-3.3-0.2-6.4-1.3-9.1-3.1
	c-5.4-3.4-9.1-8.9-11.4-14.6c-2.3-5.7-3.5-11.7-4.8-17.6c-1.3-5.9-2.5-11.8-3.2-17.8c-0.4-3-0.6-6.1-0.6-9.1l-0.2-9
	c-0.1-6-0.3-12-0.3-18c-0.1-12-0.1-24,0-36s0.3-24,0.5-36s0.6-24,1-36s1-24,1.7-36C108.4,39.6,109.3,27.6,110.2,15.7L110.2,15.7z"/>
</svg>
