<svg id="Layer_1" xmlns="http://www.w3.org/2000/svg" viewBox="0 0 460 352.5"><style>.st0{fill:none;stroke:#000;stroke-width:5;stroke-miterlimit:10}.st1{fill:url(#SVGID_1_)}</style><path class="st0" d="M344.5 10.6c1 .2 1.2 1.7 1.3 2.8 2.7 54.2 2.5 224.1 1 247.8-2.4 37.7-4.6 61.6-6.2 66-2.6 7-.2 17.5-45.2 21-16.9 1.3-132.9-1.1-147.1-1.2-15.8-.1-34.5-1.2-40.9-18.7-3.7-10.2-4.6-21.6-6.4-32.3-2.5-15-4.5-219.1.2-284.7 0-.7.6-1.2 1.1-1.2 50.2-1.4 241.2.3 242.2.5z"/><linearGradient id="SVGID_1_" gradientUnits="userSpaceOnUse" x1="217.801" y1="-462" x2="217.801" y2="-206.246" gradientTransform="translate(0 506)"><stop offset="0" stop-color="#ffff68"/><stop offset="1" stop-color="gold"/></linearGradient><path class="st1" d="M332.2 44.2c-22.7 2-45.4 3.5-68.2 4.3-39.5 1.5-79.1 1.3-118.6-.6-10.4-.5-24.9 1-39-.1-1-.1-1.9-.2-2.9-.5-1.9 34.7-2.7 69.5-3 104.2-.2 17.8-.1 35.7.1 53.5.1 8.2.3 16.3.6 24.5.3 9.7 2.3 18.6 4.4 28.2 1.5 6.6 3 13.3 6.3 19.2s8.8 11 15.5 12.1c3.5.6 7.4 0 10.2-2.2-2.5 2 10 4.3 10.7 4.4 5 .5 10.3.2 14.4-3.2 9 8.5 18 8.5 23.8 5.5 4.6 3.6 11 4.1 16.5 2.8 3.1-.8 5.5-2.2 8.2-3.8 4.2-2.4 7.5 2.4 8.2 2.7 4.3 1.5 8.9 2.4 13.5 2.2 3.3-.2 5.9-1.8 9-2.4 3.6-.7 3.8 1.1 7 2.6 1.9.9 4 1.2 6.1 1.6 2.2.3 4.4.7 6.7.5 5.7-.6 10-5.9 15.5-5.3 6.6.7 12.2 3.9 19 2.3 4.1-.9 8.2-3.1 9.8-6.9 3.2 1.3 6.6-1.3 8.9-3.8 19.1-20.7 17.8-57 18.9-83.3.9-22.3 1.3-44.6 1.4-66.9v-2.1c.1-32.4-.5-58.9-1.9-89.7-.2.1-.7.1-1.1.2z"/><path d="M110.2 15.7c-1.4 24-2.4 47.9-3 71.9-.3 12-.4 24-.6 36-.1 12-.2 24-.2 36s.1 24 .3 36c.1 6 .3 12 .5 18l.2 9c.1 3 .3 5.9.7 8.9.7 5.9 2 11.7 3.2 17.6 1.3 5.9 2.5 11.7 4.7 17.1 1.1 2.7 2.5 5.3 4.2 7.5 1.7 2.3 3.8 4.3 6.2 5.8s5.1 2.4 7.8 2.6c2.7.2 5.5-.5 7.5-2.1l1.7 2.1.1-.2c.1-.2.1-.5 0-.7s0-.1.1 0c.3.2.8.4 1.3.6 1 .4 2.1.7 3.2 1s2.2.5 3.3.8l1.7.3c.3.1.4.1.7.1l.9.1c2.2.1 4.4.1 6.5-.3.5-.1 1-.2 1.5-.4s1-.3 1.5-.6c.5-.2.9-.5 1.4-.7.4-.3.9-.6 1.3-.9l1-.7.9.8 1.2 1c.4.4.8.7 1.2 1l1.2.9c.4.3.9.6 1.3.8l1.3.8c.5.2.9.4 1.4.7.5.2.9.4 1.4.6.5.2 1 .3 1.4.5.5.2 1 .2 1.5.3s1 .1 1.5.2 1 .1 1.5.1h1.5c.5-.1 1-.1 1.5-.2l1.5-.3c.5-.1.9-.3 1.4-.5s.9-.4 1.4-.6l.9-.4.7.5c1.9 1.5 4.2 2.4 6.7 2.8 2.4.4 5 .4 7.4-.1.6-.1 1.2-.2 1.8-.4.5-.2 1.2-.4 1.7-.6 1.1-.5 2.3-1.1 3.4-1.7l1.7-1 .2-.1.3-.1.2-.1.3-.1c.4-.2.8-.3 1.3-.4.9-.2 1.8-.1 2.6.1s1.6.6 2.2 1c.7.4 1.2.9 1.8 1.4l.7.7c.1.1.2.2.3.2l-.1-.1h-.1l.2.1c1.3.4 2.5.8 3.7 1.1 2.5.6 5 1 7.6 1h1.8c.5-.1 1.1-.2 1.7-.3 1.2-.3 2.4-.8 3.7-1.2 1.3-.4 2.7-.9 4.3-1 .8-.1 1.8.1 2.6.5s1.4.9 1.9 1.2c.5.4 1 .7 1.5 1 .3.1.5.3.8.4.2.1.5.2.8.3 1.1.4 2.4.6 3.7.8 2.6.4 5.2.9 7.5.6 2.3-.3 4.5-1.6 6.9-2.8 1.2-.6 2.4-1.3 3.8-1.8s3-.8 4.5-.6c2.8.3 5.5 1 8 1.7 2.6.6 5.1 1.2 7.5 1.1 2.4 0 4.9-.7 7.1-1.7s4.1-2.7 4.9-4.7l.5-1.2 1.2.5c1 .4 2.1.3 3.2-.2s2.2-1.3 3.2-2.2l.7-.7.3-.3.4-.4c.5-.5 1-1.1 1.4-1.6l1.3-1.6c.4-.6.8-1.2 1.2-1.7 1.6-2.3 3-4.8 4.2-7.4 1.2-2.6 2.3-5.2 3.2-7.9 1.8-5.4 3.1-11 4-16.7s1.4-11.4 1.8-17.2.6-11.6.8-17.4c.2-5.8.4-11.6.7-17.4.5-11.6.8-23.2 1.1-34.8.2-11.6.4-23.2.4-34.8 0-11.6 0-23.2-.1-34.8-.2-11.6-.4-23.2-.8-34.8-.4-11.6-.8-23.2-1.3-34.8.7 11.6 1.4 23.2 1.9 34.8.5 11.6 1 23.2 1.3 34.8.3 11.6.5 23.2.6 34.8.1 11.6 0 23.2-.1 34.8s-.4 23.2-.8 34.8c-.2 5.8-.4 11.6-.5 17.4-.1 5.8-.3 11.6-.7 17.4-.3 5.8-.9 11.6-1.8 17.4-.9 5.8-2.2 11.5-4 17.1-.9 2.8-2 5.6-3.3 8.2-1.3 2.7-2.7 5.3-4.4 7.7-.4.6-.8 1.2-1.3 1.8l-1.4 1.8-1.4 1.7-.4.4-.4.4c-.3.3-.5.6-.8.8-1.1 1.1-2.4 2-4 2.7-1.5.7-3.5.9-5.3.2l1.8-.7c-.6 1.4-1.5 2.7-2.6 3.7s-2.3 1.8-3.6 2.5c-2.6 1.2-5.4 2-8.3 2-2.9.1-5.6-.5-8.2-1.2-2.6-.6-5.1-1.3-7.6-1.6-2.2-.2-4.5.8-6.8 2.1-2.3 1.2-4.8 2.7-7.8 3.2-3 .4-5.8-.2-8.4-.5-1.3-.2-2.7-.5-4.1-.9-.3-.1-.7-.2-1.1-.4-.3-.1-.7-.3-1-.5-.7-.3-1.3-.8-1.9-1.2s-1-.8-1.4-.9c-.4-.2-.8-.2-1.3-.2-1.1.1-2.3.4-3.5.9-1.2.4-2.5.9-3.9 1.3-.7.2-1.4.3-2.2.4H236c-2.8 0-5.6-.4-8.3-1.1-1.3-.3-2.7-.7-4-1.1l-.2-.1-.1-.1c-.1 0-.2-.1-.3-.1-.1-.1-.2-.1-.2-.2-.2-.2-.3-.3-.5-.4l-.7-.7c-.5-.4-.9-.8-1.4-1.1-.9-.6-1.9-.9-2.7-.7-.2 0-.5.1-.6.2 0 0-.1 0-.1.1l-.2.1-.2.1-.2.1-1.8 1c-1.2.7-2.4 1.3-3.8 1.9-.7.3-1.3.5-2.1.7-.6.2-1.4.3-2.1.5-2.8.5-5.7.6-8.5.1s-5.6-1.6-7.9-3.4l1.5.1c-.5.2-1.1.5-1.6.7-.6.2-1.1.4-1.7.5-.6.2-1.1.3-1.7.4-.6.1-1.2.1-1.7.2-.6 0-1.2.1-1.8.1-.6 0-1.2 0-1.8-.1-.6-.1-1.2-.1-1.7-.3-.6-.1-1.1-.2-1.7-.4s-1.1-.3-1.7-.5c-.5-.2-1.1-.4-1.6-.6-.5-.2-1-.5-1.6-.8l-1.5-.9c-.5-.3-1-.6-1.4-.9-.5-.3-.9-.7-1.4-1-.4-.3-.9-.7-1.3-1.1l-1.3-1.1 1.9.1c-.5.4-1 .8-1.6 1.1-.5.3-1.1.6-1.7.9-.6.3-1.2.5-1.8.7-.6.2-1.2.4-1.8.5-1.2.3-2.5.4-3.7.4-1.2.1-2.4 0-3.6-.1l-.9-.1h-.5l-.5-.1c-.6-.1-1.2-.2-1.7-.3-1.2-.2-2.3-.5-3.5-.8-1.1-.3-2.3-.6-3.5-1.1-.6-.2-1.2-.5-1.8-.9-.3-.3-.7-.4-1.1-1.2-.2-.4-.2-1.1 0-1.5s.5-.7.7-.9l1.7 2.1c-2.7 2.1-6.2 2.9-9.4 2.7-3.3-.2-6.4-1.3-9.1-3.1-5.4-3.4-9.1-8.9-11.4-14.6-2.3-5.7-3.5-11.7-4.8-17.6-1.3-5.9-2.5-11.8-3.2-17.8-.4-3-.6-6.1-.6-9.1l-.2-9c-.1-6-.3-12-.3-18-.1-12-.1-24 0-36s.3-24 .5-36 .6-24 1-36 1-24 1.7-36c1.5-12.3 2.4-24.3 3.3-36.2z"/><path d="M340.7 37.8s-.9.1-2.6.3c-1.7.2-4.1.5-7.2.8-6.2.7-15.2 1.6-25.9 2.5-5.4.4-11.2.9-17.3 1.3-6.2.4-12.6.8-19.4 1.1-6.7.3-13.7.6-20.7.8-7.1.2-14.2.3-21.4.4-7.2 0-14.4 0-21.4-.1-7.1-.1-14-.3-20.7-.5s-13.2-.5-19.4-.8c-3.1-.2-6.1-.3-9-.5s-5.7-.4-8.4-.5c-5.3-.1-10.3-.1-14.6-.1-4.4 0-8.2 0-11.3-.1s-5.6-.3-7.3-.5-2.6-.3-2.6-.3.9 0 2.6.1c1.7 0 4.1.1 7.3 0 3.1 0 6.9-.2 11.3-.4s9.3-.5 14.7-.6c5.4 0 11.2.3 17.4.4 6.2.1 12.6.3 19.4.4 6.7.1 13.7.1 20.7.2 7.1.1 14.2 0 21.4 0 7.2 0 14.3-.1 21.4-.3 7.1-.2 14-.3 20.7-.5 13.4-.4 26-.9 36.7-1.4s19.7-1 26-1.4c3.1-.2 5.6-.3 7.3-.4 1.4.2 2.3.1 2.3.1zm-207 17.9s-.3 3.5-.7 9.8c-.4 6.2-1.1 15.1-1.8 25.7-.3 5.3-.7 11.1-1 17.2s-.7 12.5-1 19.2-.5 13.5-.7 20.5-.3 14.1-.3 21.2.1 14.2.4 21.2c.2 7 .5 13.9.8 20.5s.7 13 1.3 19c.3 3 .7 5.9 1.2 8.7.2 1.4.5 2.8.7 4.1.2 1.4.5 2.7.8 4 .5 2.6 1.1 5.1 1.6 7.4.6 2.4 1.1 4.6 1.6 6.7 1 4.2 1.9 7.9 2.6 10.9 1.4 6.1 2.2 9.6 2.2 9.6l-.5.1-.9-2.4c-.6-1.6-1.5-3.9-2.5-6.8-.5-1.5-1.1-3.1-1.7-4.9-.6-1.8-1.3-3.7-2-5.8-1.3-4.1-2.9-8.8-4.2-14-.4-1.3-.7-2.6-1-4s-.7-2.8-1-4.2c-.6-2.9-1.1-5.8-1.6-8.9-.9-6.1-1.5-12.7-1.7-19.4-.3-6.7-.3-13.6-.3-20.6 0-3.5.1-7.1.1-10.6.1-3.6.1-7.1.2-10.7.2-7.1.5-14.3.8-21.3.4-7 .8-13.9 1.2-20.6.5-6.7 1-13.1 1.5-19.2s1.1-11.9 1.6-17.2c1-10.6 2-19.5 2.7-25.7s1.1-9.7 1.1-9.7l.5.2zm25.8 3.8v9.6c0 6.1-.1 14.8-.2 25.3s-.2 22.7-.3 35.7v10c0 3.4 0 6.8.1 10.2 0 6.9.2 13.8.4 20.8.3 7 .5 13.9 1 20.7l.3 5.1c.1 1.7.3 3.4.4 5 .3 3.3.4 6.7.7 9.9.2 3.2.5 6.4.7 9.6.3 3.1.5 6.2.8 9.2.2 3 .4 5.9.7 8.7.3 2.8.5 5.5.7 8.1.4 5.2 1 10 1.4 14.2s.8 7.9 1.1 11c.6 6.1.9 9.6.9 9.6l-.5.1s-.8-3.4-2.1-9.4c-.3-1.5-.7-3.2-1.1-5s-.7-3.8-1.1-5.9c-.4-2.1-.8-4.3-1.2-6.7l-.6-3.6c-.2-1.2-.4-2.5-.6-3.8-.4-2.6-.8-5.3-1.2-8.1-.4-2.8-.7-5.7-1.1-8.7s-.7-6.1-1-9.2c-.3-3.1-.5-6.4-.8-9.6-.3-3.3-.4-6.6-.6-10-.1-1.7-.2-3.4-.2-5.1 0-1.7-.1-3.4-.1-5.1-.1-3.4-.2-6.9-.2-10.4s-.1-7-.1-10.5c0-7 0-14 .2-20.9 0-3.4.1-6.8.2-10.2.1-3.4.2-6.7.3-10 .2-6.5.4-12.9.7-18.9.3-6 .5-11.7.7-16.9.9-20.9 1.5-34.9 1.5-34.9l.2.1zm28.4-.4s-.2 3.6-.5 9.9-.7 15.4-1.1 26.2c-.4 10.8-.7 23.5-.9 37.1-.2 13.6-.3 28-.1 42.5.1 7.2.3 14.4.6 21.6.2 3.5.3 7.1.5 10.6s.3 6.9.5 10.3c.3 6.8.7 13.3 1 19.5.4 6.2.8 12 1.2 17.4.2 2.7.5 5.3.7 7.7.3 2.4.5 4.8.7 7 .5 4.4 1 8.2 1.5 11.3.3 1.6.4 3 .6 4.2s.4 2.2.5 3.1c.3 1.7.4 2.6.4 2.6l-.5.1s-.3-.9-.8-2.5-1.3-4-2.1-7.1c-.9-3.1-1.7-6.8-2.6-11.2-.4-2.2-.8-4.5-1.3-6.9-.4-2.5-.8-5-1.2-7.7-.4-2.7-.7-5.5-1.1-8.4-.3-2.9-.6-5.9-1-9.1-.6-6.2-1.1-12.8-1.4-19.6s-.4-13.8-.4-21c0-7.1 0-14.4.1-21.6.2-14.5.6-29 1.2-42.6.3-6.8.6-13.3 1-19.6.4-6.2.7-12.1 1.1-17.5.7-10.8 1.4-19.9 2-26.2.5-6.3.9-9.9.9-9.9l.5-.2zm29.9-4s.1.9.3 2.6c.2 1.7.4 4.1.7 7.3.2 3.2.4 7 .6 11.4s.3 9.3.5 14.7c.1 5.4.2 11.3.4 17.5.1 6.2.1 12.7.2 19.5 0 6.8.1 13.7.2 20.8.1 7.1.1 14.3.2 21.5.1 3.6.2 7.2.3 10.7.2 3.6.4 7.1.6 10.7.4 7.1.8 14.1 1 20.8.2 6.8.3 13.3.2 19.5-.1 3.1-.1 6.1-.1 9-.1 2.9-.2 5.7-.3 8.4-.2 5.4-.5 10.4-.8 14.8-.3 4.4-.6 8.2-.9 11.4-.3 3.1-.5 5.6-.7 7.3s-.3 2.6-.3 2.6h-.5s-.2-3.6-.3-9.9c-.1-3.2-.1-7-.2-11.4s-.2-9.3-.3-14.7c-.1-5.4-.2-11.2-.4-17.4-.2-6.2-.4-12.7-.6-19.4s-.3-13.7-.5-20.8c-.1-3.5-.2-7.1-.3-10.7-.1-3.6 0-7.2 0-10.9l.3-21.5c.1-7.1.3-14.1.4-20.8.1-6.8.2-13.3.3-19.5.1-6.2.2-12 .2-17.4V76.5c0-2.2 0-4.2-.1-6.1 0-1.9 0-3.6-.1-5.2-.1-3.1-.2-5.6-.4-7.3-.1-1.7-.2-2.6-.2-2.6l.6-.2zm26.9 7.9s.1.2.2.6.3 1 .5 1.8c.5 1.6 1 4 1.5 7.1s.9 6.9 1.1 11.2c.2 4.4.2 9.3.3 14.6.1 5.3.3 11.1.4 17.2.2 6.1.4 12.6.7 19.2.5 13.3 1.1 27.6 1.7 41.8.3 7.1.6 14.2.9 21.2s.6 13.9.8 20.6c.1 6.7.3 13.1.2 19.3v8.9c-.1 2.9-.1 5.7-.2 8.3 0 2.7-.1 5.2-.2 7.7-.1 2.4-.2 4.8-.3 6.9-.3 4.4-.5 8.1-.9 11.3-.2 1.6-.3 2.9-.5 4.2-.1 1.2-.4 2.2-.5 3.1-.3 1.6-.5 2.5-.5 2.5l-.5-.1s0-.9.1-2.6c0-.8.1-1.8.1-3v-4.1c0-1.5 0-3.3-.1-5.1 0-1.9-.1-3.9-.2-6.1-.2-4.3-.3-9.2-.5-14.5-.4-10.7-.9-23.1-1.2-36.4-.2-6.7-.2-13.6-.3-20.6-.1-7-.2-14.1-.3-21.3-.2-14.2-.4-28.5-.6-41.8-.1-6.7-.1-13.1-.1-19.3 0-6.1 0-11.9.1-17.3s.2-10.2.1-14.6c-.1-4.3-.3-8.1-.7-11.2-.4-3.1-.8-5.5-1.2-7.1-.2-.8-.4-1.4-.5-1.8s-.2-.6-.2-.6h.8zm36.2.1l2 14.1c.6 4.7 1.1 9.4 1.6 14.1s.9 9.4 1.3 14.2c.2 2.4.4 4.7.5 7.1l.4 7.1c.2 2.4.2 4.7.3 7.1l.3 7.1c.2 4.7.2 9.5.3 14.2v14.2l-.2 14.2-.4 14.2-.5 14.2c-.2 4.7-.4 9.5-.6 14.2s-.5 9.5-.8 14.2l-1 14.2-1 14.2-1.1 14.2c-.3 4.7-.7 9.4-1.2 14.2h-1l-.1-3.4.5-.1.6 3.4h-1c-.2-4.7-.3-9.5-.4-14.2s-.1-9.5-.1-14.2.1-9.5.2-14.2.3-9.5.5-14.2c.4-9.5.9-18.9 1.6-28.4l1-14.2.8-14.2.6-14.2c.1-4.7.3-9.4.4-14.2 0-4.7.1-9.5.1-14.2-.1-4.7 0-9.5-.2-14.2l-.2-7.1c-.1-2.4-.1-4.7-.3-7.1-.3-4.7-.4-9.4-.8-14.2-.4-4.7-.7-9.4-1.1-14.1L280.5 63l.4.1zm34.2 0s.4 3.4 1.1 9.4c.3 3 .6 6.7 1 10.9s.7 9 1 14.1c.3 5.2.6 10.8 1 16.7.2 5.9.5 12.2.7 18.7s.4 13.2.5 20c.1 3.4.1 6.8.2 10.3 0 3.4.1 6.9.1 10.4.1 6.9 0 13.8.1 20.7 0 6.8-.1 13.5-.3 20-.3 6.5-.5 12.8-1.1 18.7-.2 3-.5 5.9-.7 8.7-.3 2.8-.6 5.5-.9 8.1-.5 5.2-1.3 9.9-1.9 14.1-.3 2.1-.7 4-1 5.8-.4 1.8-.7 3.4-1 4.9s-.7 2.8-1 3.9c-.3 1.1-.6 2.1-.8 2.9-.5 1.6-.7 2.4-.7 2.4l-.5-.1s.1-.9.3-2.5c.1-.8.3-1.8.4-2.9.2-1.2.4-2.5.5-4s.3-3.2.4-5c.2-1.8.4-3.8.5-5.9.2-4.2.6-8.9.8-14.1.1-2.6.3-5.3.4-8.1s.2-5.7.3-8.6c.2-5.9.4-12.2.7-18.6.3-6.5.6-13.1.8-19.9.1-3.4.2-6.8.3-10.3l.3-10.3c.1-3.5.1-6.9.2-10.3 0-3.4.1-6.9.1-10.3.1-6.8.1-13.5 0-20 0-6.5-.2-12.7-.2-18.7-.1-5.9-.2-11.5-.4-16.7-.2-5.2-.3-9.9-.6-14.1-.2-4.2-.4-7.9-.6-10.9-.5-6-.8-9.5-.8-9.5l.8.1z"/><path d="M110.2 15.7c-1.4 24-2.4 47.9-3 71.9-.3 12-.4 24-.6 36-.1 12-.2 24-.2 36s.1 24 .3 36c.1 6 .3 12 .5 18l.2 9c.1 3 .3 5.9.7 8.9.7 5.9 2 11.7 3.2 17.6 1.3 5.9 2.5 11.7 4.7 17.1 1.1 2.7 2.5 5.3 4.2 7.5 1.7 2.3 3.8 4.3 6.2 5.8s5.1 2.4 7.8 2.6c2.7.2 5.5-.5 7.5-2.1l1.7 2.1.1-.2c.1-.2.1-.5 0-.7s0-.1.1 0c.3.2.8.4 1.3.6 1 .4 2.1.7 3.2 1s2.2.5 3.3.8l1.7.3c.3.1.4.1.7.1l.9.1c2.2.1 4.4.1 6.5-.3.5-.1 1-.2 1.5-.4s1-.3 1.5-.6c.5-.2.9-.5 1.4-.7.4-.3.9-.6 1.3-.9l1-.7.9.8 1.2 1c.4.4.8.7 1.2 1l1.2.9c.4.3.9.6 1.3.8l1.3.8c.5.2.9.4 1.4.7.5.2.9.4 1.4.6.5.2 1 .3 1.4.5.5.2 1 .2 1.5.3s1 .1 1.5.2 1 .1 1.5.1h1.5c.5-.1 1-.1 1.5-.2l1.5-.3c.5-.1.9-.3 1.4-.5s.9-.4 1.4-.6l.9-.4.7.5c1.9 1.5 4.2 2.4 6.7 2.8 2.4.4 5 .4 7.4-.1.6-.1 1.2-.2 1.8-.4.5-.2 1.2-.4 1.7-.6 1.1-.5 2.3-1.1 3.4-1.7l1.7-1 .2-.1.3-.1.2-.1.3-.1c.4-.2.8-.3 1.3-.4.9-.2 1.8-.1 2.6.1s1.6.6 2.2 1c.7.4 1.2.9 1.8 1.4l.7.7c.1.1.2.2.3.2l-.1-.1h-.1l.2.1c1.3.4 2.5.8 3.7 1.1 2.5.6 5 1 7.6 1h1.8c.5-.1 1.1-.2 1.7-.3 1.2-.3 2.4-.8 3.7-1.2 1.3-.4 2.7-.9 4.3-1 .8-.1 1.8.1 2.6.5s1.4.9 1.9 1.2c.5.4 1 .7 1.5 1 .3.1.5.3.8.4.2.1.5.2.8.3 1.1.4 2.4.6 3.7.8 2.6.4 5.2.9 7.5.6 2.3-.3 4.5-1.6 6.9-2.8 1.2-.6 2.4-1.3 3.8-1.8s3-.8 4.5-.6c2.8.3 5.5 1 8 1.7 2.6.6 5.1 1.2 7.5 1.1 2.4 0 4.9-.7 7.1-1.7s4.1-2.7 4.9-4.7l.5-1.2 1.2.5c1 .4 2.1.3 3.2-.2s2.2-1.3 3.2-2.2l.7-.7.3-.3.4-.4c.5-.5 1-1.1 1.4-1.6l1.3-1.6c.4-.6.8-1.2 1.2-1.7 1.6-2.3 3-4.8 4.2-7.4 1.2-2.6 2.3-5.2 3.2-7.9 1.8-5.4 3.1-11 4-16.7s1.4-11.4 1.8-17.2.6-11.6.8-17.4c.2-5.8.4-11.6.7-17.4.5-11.6.8-23.2 1.1-34.8.2-11.6.4-23.2.4-34.8 0-11.6 0-23.2-.1-34.8-.2-11.6-.4-23.2-.8-34.8-.4-11.6-.8-23.2-1.3-34.8.7 11.6 1.4 23.2 1.9 34.8.5 11.6 1 23.2 1.3 34.8.3 11.6.5 23.2.6 34.8.1 11.6 0 23.2-.1 34.8s-.4 23.2-.8 34.8c-.2 5.8-.4 11.6-.5 17.4-.1 5.8-.3 11.6-.7 17.4-.3 5.8-.9 11.6-1.8 17.4-.9 5.8-2.2 11.5-4 17.1-.9 2.8-2 5.6-3.3 8.2-1.3 2.7-2.7 5.3-4.4 7.7-.4.6-.8 1.2-1.3 1.8l-1.4 1.8-1.4 1.7-.4.4-.4.4c-.3.3-.5.6-.8.8-1.1 1.1-2.4 2-4 2.7-1.5.7-3.5.9-5.3.2l1.8-.7c-.6 1.4-1.5 2.7-2.6 3.7s-2.3 1.8-3.6 2.5c-2.6 1.2-5.4 2-8.3 2-2.9.1-5.6-.5-8.2-1.2-2.6-.6-5.1-1.3-7.6-1.6-2.2-.2-4.5.8-6.8 2.1-2.3 1.2-4.8 2.7-7.8 3.2-3 .4-5.8-.2-8.4-.5-1.3-.2-2.7-.5-4.1-.9-.3-.1-.7-.2-1.1-.4-.3-.1-.7-.3-1-.5-.7-.3-1.3-.8-1.9-1.2s-1-.8-1.4-.9c-.4-.2-.8-.2-1.3-.2-1.1.1-2.3.4-3.5.9-1.2.4-2.5.9-3.9 1.3-.7.2-1.4.3-2.2.4H236c-2.8 0-5.6-.4-8.3-1.1-1.3-.3-2.7-.7-4-1.1l-.2-.1-.1-.1c-.1 0-.2-.1-.3-.1-.1-.1-.2-.1-.2-.2-.2-.2-.3-.3-.5-.4l-.7-.7c-.5-.4-.9-.8-1.4-1.1-.9-.6-1.9-.9-2.7-.7-.2 0-.5.1-.6.2 0 0-.1 0-.1.1l-.2.1-.2.1-.2.1-1.8 1c-1.2.7-2.4 1.3-3.8 1.9-.7.3-1.3.5-2.1.7-.6.2-1.4.3-2.1.5-2.8.5-5.7.6-8.5.1s-5.6-1.6-7.9-3.4l1.5.1c-.5.2-1.1.5-1.6.7-.6.2-1.1.4-1.7.5-.6.2-1.1.3-1.7.4-.6.1-1.2.1-1.7.2-.6 0-1.2.1-1.8.1-.6 0-1.2 0-1.8-.1-.6-.1-1.2-.1-1.7-.3-.6-.1-1.1-.2-1.7-.4s-1.1-.3-1.7-.5c-.5-.2-1.1-.4-1.6-.6-.5-.2-1-.5-1.6-.8l-1.5-.9c-.5-.3-1-.6-1.4-.9-.5-.3-.9-.7-1.4-1-.4-.3-.9-.7-1.3-1.1l-1.3-1.1 1.9.1c-.5.4-1 .8-1.6 1.1-.5.3-1.1.6-1.7.9-.6.3-1.2.5-1.8.7-.6.2-1.2.4-1.8.5-1.2.3-2.5.4-3.7.4-1.2.1-2.4 0-3.6-.1l-.9-.1h-.5l-.5-.1c-.6-.1-1.2-.2-1.7-.3-1.2-.2-2.3-.5-3.5-.8-1.1-.3-2.3-.6-3.5-1.1-.6-.2-1.2-.5-1.8-.9-.3-.3-.7-.4-1.1-1.2-.2-.4-.2-1.1 0-1.5s.5-.7.7-.9l1.7 2.1c-2.7 2.1-6.2 2.9-9.4 2.7-3.3-.2-6.4-1.3-9.1-3.1-5.4-3.4-9.1-8.9-11.4-14.6-2.3-5.7-3.5-11.7-4.8-17.6-1.3-5.9-2.5-11.8-3.2-17.8-.4-3-.6-6.1-.6-9.1l-.2-9c-.1-6-.3-12-.3-18-.1-12-.1-24 0-36s.3-24 .5-36 .6-24 1-36 1-24 1.7-36c1.5-12.3 2.4-24.3 3.3-36.2z"/></svg>