<?xml version="1.0" encoding="utf-8"?>
<!-- Generator: Adobe Illustrator 19.2.0, SVG Export Plug-In . SVG Version: 6.00 Build 0)  -->
<svg version="1.1" id="Layer_1" xmlns="http://www.w3.org/2000/svg" xmlns:xlink="http://www.w3.org/1999/xlink" x="0px" y="0px"
	 viewBox="0 0 460 652" style="enable-background:new 0 0 460 652;" xml:space="preserve">
<style type="text/css">
	.st0{fill:none;stroke:#000000;stroke-width:5;stroke-miterlimit:10;}
	.st1{opacity:0.9;fill:url(#SVGID_1_);enable-background:new    ;}
	.st2{opacity:0.74;fill:#FCE481;enable-background:new    ;}
</style>
<path class="st0" d="M6588.6-618.6c0.3,38.5,0.2,82.4-5.7,120.5c-2.3,14.7-3.7,31.7-10.6,44.9c-9.4,17.9-18.6,35.9-34,49.5
	c-5.5,4.9-11.5,9.2-17.9,12.8c-4.2,2.3-15.3,5.1-15.9,10.8c-0.4,3.6,3.8,5.7,6.9,7.6c6.9,4.3,10.9,12.3,11.6,20.4
	c1.5,15.4-5.6,30.7-18.9,38.8c-0.8,0.5-1.6,1-1.9,1.8c-0.7,2.1,2.1,3.4,4.2,3.8c12.1,2.1,24,5,35.7,8.7c7.7,2.4,24.3,10.6,12,18.5
	c-7.7,4.9-17,6.2-26,7.3c-24.7,3.1-49.7,6.2-74.5,3.9c-5.6-0.5-11.2-1.4-16.8-2.2l-22.5-3.3c-5.3-0.8-11.8-2.7-12.7-7.9
	c-1.7-10.2,16.6-15.1,23.6-17.2c4.9-1.5,36.5-4.6,35.6-9.3c-0.5-2.4-2.8-3.9-4.8-5.4c-8.9-6.4-15-16.4-16.6-27.2
	c-1.6-10.8,1.3-22.2,7.9-30.9c2.2-2.9,4.9-6,4.4-9.6c-0.2-1.5-1-2.9-2-4.1c-5.1-6.7-15.9-9.5-22.8-14.7c-7.9-6-15.2-12.8-21.6-20.4
	c-12.5-14.5-22.1-31.5-27.6-49.9c-5.2-17.2-6.9-35.3-8.2-53.2c-2.3-31-3.6-62-3.8-93.1c20.2-2.4,42-1.8,62.4-1.4
	C6480.9-618,6588.6-620.7,6588.6-618.6L6588.6-618.6z"/>
<path d="M6462-303.7v1.9c0,0.6,0.1,1.3,0.6,1.9c0.4,0.6,1.2,0.8,2.2,0.8c2.1-0.1,4.5-0.2,7.1-0.2c1.3,0,2.7-0.1,4-0.1
	c1.4-0.1,2.8-0.1,4.1-0.2c1.4-0.1,2.8-0.1,4.1-0.2c1.4-0.1,2.7-0.1,4-0.2c2.6-0.1,5-0.2,7.1-0.3c2-0.1,3.7-0.6,4.6-1.3
	c0.4-0.4,0.7-0.8,0.8-1.1c0.1-0.3,0.2-0.5,0.2-0.5v0.5c-0.1,0.3-0.2,0.8-0.6,1.3s-1.1,1-1.9,1.4c-0.8,0.4-1.8,0.7-2.8,0.8
	c-2.1,0.4-4.5,0.7-7.1,0.9c-1.3,0.1-2.7,0.3-4,0.4c-1.4,0.1-2.8,0.2-4.2,0.2c-1.4,0-2.8,0.1-4.2,0.1h-4.1c-2.6-0.1-5.1-0.2-7.2-0.4
	c-0.5-0.1-1.1-0.1-1.6-0.4s-0.9-0.7-1.1-1.1c-0.4-0.9-0.4-1.7-0.3-2.3s0.2-1.1,0.3-1.4C6461.9-303.5,6462-303.7,6462-303.7
	L6462-303.7z M6461.6-388.3c0,0,0.6,0.2,1.6,0.5c0.5,0.2,1.2,0.3,1.9,0.5s1.6,0.4,2.4,0.5c0.9,0.2,1.9,0.3,2.9,0.5
	c1,0.1,2.1,0.2,3.3,0.3c1.1,0.1,2.3,0.1,3.5,0.2h3.6c1.2,0,2.5,0,3.7-0.1c1.2,0,2.4-0.1,3.6-0.1c2.3-0.1,4.5-0.1,6.3-0.3
	c1.8-0.2,3.2-0.6,4.1-1.2c0.4-0.3,0.8-0.6,1-0.8l0.3-0.3c0,0-0.1,0.1-0.2,0.4c-0.2,0.3-0.4,0.6-0.8,1c-0.8,0.8-2.3,1.6-4.2,2
	c-0.9,0.2-2,0.4-3,0.5c-1.1,0.1-2.2,0.3-3.3,0.4l-3.6,0.3c-1.2,0.1-2.5,0.1-3.7,0.2c-1.3,0-2.5,0-3.7-0.1c-0.6,0-1.2-0.1-1.8-0.1
	c-0.6-0.1-1.2-0.1-1.8-0.2c-1.2-0.1-2.3-0.4-3.4-0.6c-0.5-0.1-1-0.3-1.5-0.4c-0.5-0.2-1-0.3-1.4-0.4c-1.8-0.6-3.2-1.3-4.2-1.8
	C6462.2-388,6461.6-388.3,6461.6-388.3L6461.6-388.3z M6411.5-286.2l0.3,0.3c0.2,0.2,0.5,0.4,1,0.6c0.9,0.5,2.3,1,4.2,1.4
	c1.9,0.4,4.2,0.7,6.8,1.1c2.6,0.4,5.6,0.7,8.9,1.1c3.3,0.3,6.8,0.7,10.6,1c3.7,0.3,7.7,0.5,11.8,0.7c8.2,0.3,17,0.5,25.7,0.6
	c4.4,0.1,8.8,0.1,13.1,0.2c4.3,0,8.5,0.1,12.6,0s8-0.4,11.7-0.8c3.7-0.5,7.2-1.1,10.4-1.7c6.4-1.4,11.6-3,15.2-4.3
	c1.8-0.7,3.2-1.2,4.2-1.6l1.5-0.6c0,0-0.5,0.2-1.4,0.7c-0.9,0.4-2.3,1.1-4.1,1.8c-3.5,1.5-8.7,3.5-15.1,5.1
	c-6.4,1.6-14.1,2.9-22.3,3.2c-4.1,0.2-8.4,0.2-12.7,0.2c-4.3,0-8.7-0.1-13.1-0.1c-4.4-0.1-8.8-0.2-13.1-0.3
	c-4.3-0.1-8.6-0.4-12.7-0.6c-4.1-0.3-8.1-0.6-11.8-1c-3.8-0.4-7.3-0.8-10.6-1.3c-1.6-0.3-3.2-0.5-4.7-0.7c-1.5-0.3-2.9-0.5-4.2-0.8
	c-2.6-0.5-4.9-1-6.8-1.5s-3.3-1.1-4.1-1.7c-0.4-0.3-0.7-0.5-0.9-0.7C6411.6-286.1,6411.5-286.2,6411.5-286.2L6411.5-286.2z"/>
<linearGradient id="SVGID_1_" gradientUnits="userSpaceOnUse" x1="6378.7998" y1="1603.7887" x2="6584.7002" y2="1603.7887" gradientTransform="matrix(1 0 0 -1 0 1107)">
	<stop  offset="1.800000e-02" style="stop-color:#801FE3"/>
	<stop  offset="1" style="stop-color:#B7A7FF"/>
</linearGradient>
<path class="st1" d="M6378.8-590.4c1.4,24.4,2.7,48.8,4.1,73.2c0.4,7.9,0.9,15.9,2.2,23.7c1.8,11.1,5.4,21.8,8.9,32.5
	c3,9.1,6,18.2,11.1,26.3c17.8,28.1,51.5,32.7,81.9,31.3c10.6-0.5,21.3-1.5,31.5-4.7c66.9-21.3,65.2-117,66.1-172.7
	c0-2.6,0.1-5.1,0.1-7.7C6516-586.3,6447.2-584.5,6378.8-590.4L6378.8-590.4z"/>
<path d="M6373.7-610.1c0,0,0.6,8.1,1.5,22.2c0.5,7.1,1,15.6,1.7,25.5c0.6,9.8,1.4,20.9,2.1,33.1c0.4,6.1,0.7,12.4,1.3,18.9
	c0.5,6.5,1.4,13.2,3,19.9c1.6,6.7,3.7,13.5,6,20.4c2.4,6.9,4.5,14,7.5,20.9c0.8,1.7,1.5,3.4,2.4,5.1c0.9,1.6,1.8,3.3,2.8,4.8
	c1.1,1.6,2.2,3.1,3.4,4.7c1.2,1.4,2.5,2.8,3.7,4.3c5.3,5.5,11.7,10,18.8,13.2c7.1,3.3,14.8,5.4,22.6,6.6c7.9,1.3,15.9,1.7,23.9,1.7
	c8-0.1,16.1-0.4,24-1.5c3.9-0.5,7.9-1.2,11.7-2.2c1-0.3,1.9-0.5,2.8-0.8l0.7-0.2h0.1l0.2-0.1l0.4-0.1l1.4-0.5l2.8-1
	c0.5-0.2,0.9-0.3,1.4-0.5l1.3-0.6c7.1-3.1,13.7-7.4,19.4-12.5c5.7-5.1,10.5-11.1,14.4-17.5c4-6.3,7.1-13.1,9.7-19.8
	c2.6-6.8,4.6-13.6,6.3-20.3c3.2-13.5,5-26.5,6.2-38.5c1.1-12.1,1.7-23.2,2-33c0.3-9.9,0.5-18.4,0.7-25.5c0.2-14.2,0.4-22.2,0.4-22.2
	s0,2,0.1,5.8c0,3.8,0.1,9.4,0.2,16.4c0,7.1,0,15.7-0.2,25.5c-0.1,9.9-0.5,21-1.5,33.1c-1,12.1-2.6,25.2-5.7,38.9
	c-1.6,6.8-3.6,13.7-6.1,20.6s-5.7,13.8-9.8,20.3c-4,6.5-9,12.7-14.8,18.1c-5.9,5.4-12.7,9.8-20.2,13.1l-1.4,0.6
	c-0.5,0.2-0.9,0.4-1.4,0.5l-2.8,1l-1.4,0.5l-0.4,0.1l-0.2,0.1l-0.2,0.1l-0.7,0.2c-1,0.3-2,0.6-2.9,0.8c-3.9,1-8,1.8-12,2.4
	c-8.1,1.1-16.2,1.5-24.4,1.6c-8.2,0-16.3-0.5-24.4-1.8c-8-1.3-16-3.5-23.3-7c-7.4-3.4-14.1-8.1-19.6-13.9c-1.3-1.5-2.6-3.1-3.9-4.6
	c-1.1-1.6-2.2-3.2-3.3-4.7c-2.2-3.4-3.9-6.8-5.4-10.4c-3-7.1-5.2-14.2-7.5-21.2c-2.2-7-4.3-13.9-5.8-20.7
	c-1.6-6.9-2.4-13.6-2.8-20.2c-0.5-6.6-0.7-12.9-1-18.9c-0.6-12.1-1.1-23.2-1.6-33.1c-0.5-9.9-0.8-18.4-1.2-25.5
	C6374-602.1,6373.7-610.1,6373.7-610.1L6373.7-610.1z"/>
<path d="M6374.1-594.7c0,0,0.8,0,2.4,0.1s3.8,0.2,6.7,0.3c2.9,0.2,6.4,0.3,10.5,0.5c4,0.2,8.6,0.3,13.6,0.5s10.4,0.3,16.1,0.5
	s11.7,0.2,17.9,0.4c6.2,0.1,12.6,0.1,19.2,0.2c6.5,0.1,13.2,0,19.8,0.1c6.6,0,13.3,0,19.8-0.1s13-0.1,19.2-0.2
	c12.5-0.1,24.1-0.2,34-0.3c10-0.1,18.3-0.1,24.1-0.1h9.1c0,0-0.8,0.1-2.4,0.2c-1.6,0.1-3.8,0.2-6.7,0.4c-5.8,0.3-14.1,0.8-24.1,1.3
	s-21.6,0.9-34,1.3c-6.2,0.1-12.7,0.4-19.2,0.4c-6.5,0.1-13.2,0.1-19.8,0.2c-6.6,0-13.3,0-19.8-0.2c-6.5-0.1-13-0.3-19.2-0.4
	c-6.2-0.2-12.3-0.4-18-0.8c-2.9-0.2-5.6-0.3-8.3-0.5c-2.7-0.2-5.3-0.4-7.8-0.5c-2.5-0.2-4.9-0.3-7.1-0.5c-2.3-0.2-4.4-0.4-6.4-0.6
	c-4-0.4-7.6-0.7-10.4-1c-2.9-0.3-5.2-0.6-6.7-0.7C6374.9-594.6,6374.1-594.7,6374.1-594.7L6374.1-594.7z"/>
<path class="st2" d="M224.1,85.8c-18.7,0.2-33,1.7-49.7,1.2h-0.1c-0.2,3.5-0.5,7.1-0.7,10.6c-4,57.1-7.8,116.3,11.8,169.8
	c3.9,10.6,8.7,21,16.2,29.2c9.8,10.6,30.2,20.8,44.4,9.2c45.4-36.9,42.6-115.2,40.3-171.1c-0.7-17.3-1.5-33.5-2.5-49.6l-1.2-0.2
	C264.9,85,241.3,85.7,224.1,85.8L224.1,85.8z"/>
<path class="st0" d="M281.8,4.5c6.1,39.3,9.3,79,9.5,118.7c0.1,19.5,1.4,39.4,0.1,58.9c-1.1,15.9-0.8,32.2-4,48
	c-6.6,32.6-17.3,46.4-28.1,67.6c-27.1,53.4-23.3,114.7-25.1,174.6c-1.3,44.3-0.8,91.3,20.2,130.4c17,2.6,31,4.4,43.8,9.3
	c4.7,1.8,9.5,3.7,12.9,7.4s4.8,8.7,1.8,12.8c-1.8,2.5-4.8,3.7-7.7,4.8c-17.3,6.5-45.2,9.9-63.7,11.4c-24.5,1.9-50.1-0.7-74.4-4.9
	c-5.1-0.9-21.7-6-21.7-11.1c-0.1-8.6,8.9-13.2,16.8-16.5c11.6-4.9,18.2-6,30.5-8.9c2.5-0.6,8.9-2.3,11.2-3.5
	c11.7-24.4,14.5-52,16-79c0.9-17.1,1.3-33,1.4-50.8c0.2-30.2-0.2-60.3-1.6-90.5c-1.2-25.7-4.2-52-19.5-77.8
	c-13.8-23.3-27.6-47.5-32.8-74.2c-4.5-22.8-5.7-46.3-5.6-69.5c0.3-51.6,4.2-103.2,9.8-154.5C212.1,7.2,240.4,7.2,281.8,4.5
	L281.8,4.5z"/>
<path d="M177.4,11.7c0,0-0.6,9.9-1.6,27.4c-1.1,17.4-2.6,42.3-4.5,72.1c-0.9,14.9-1.7,31.1-1.7,48.2c0,4.3,0,8.6,0.2,13
	c0.1,2.2,0.1,4.4,0.2,6.6c0.1,2.2,0.2,4.4,0.4,6.7c0.1,2.2,0.2,4.5,0.4,6.7c0.2,2.3,0.4,4.5,0.5,6.8c0.2,2.3,0.5,4.6,0.7,6.8
	c0.3,2.3,0.5,4.6,0.9,6.9c0.3,2.3,0.7,4.6,1,6.9s0.8,4.6,1.3,6.9c0.8,4.7,2,9.3,3.1,13.9c2.5,9.2,5.3,18.5,9,27.5
	c1.9,4.5,4,8.9,6.5,13s5.5,8,8.9,11.3c3.5,3.3,7.5,6.1,11.9,8.2c4.3,2.1,9,3.5,13.7,3.7c2.4,0.1,4.7-0.1,7-0.7
	c2.2-0.6,4.4-1.6,6.3-2.9c0.5-0.3,0.9-0.7,1.4-1l0.2-0.1c0.1,0,0,0,0.1-0.1l0.4-0.3l0.7-0.6l2.8-2.4l2.6-2.5l1.3-1.3l1.2-1.4
	l2.4-2.7l2.3-2.9c0.8-0.9,1.5-1.9,2.2-2.9l2.1-3c1.3-2.1,2.6-4.1,3.7-6.3c0.6-1.1,1.2-2.1,1.7-3.2l1.6-3.3c4.1-8.8,7.1-18,9.3-27.3
	c2.2-9.3,3.7-18.6,4.7-27.9c1-9.2,1.5-18.4,1.8-27.3c0.3-9,0.3-17.7,0.2-26.3c-0.1-8.5-0.4-16.9-0.7-24.9c-0.3-8-0.6-15.8-0.9-23.3
	c-0.7-14.9-1.4-28.6-2.1-40.7s-1.4-22.7-2-31.4c-1.3-17.4-2-27.3-2-27.3s0.2,2.5,0.7,7.1c0.4,4.6,1.1,11.5,1.9,20.2
	c1.5,17.4,3.6,42.2,5.2,72.1c0.4,7.5,0.8,15.2,1.2,23.3c0.4,8.1,0.7,16.4,0.9,25c0.4,17.1,0.4,35.3-1.6,54c-1,9.3-2.5,18.8-4.7,28.2
	c-2.3,9.4-5.2,18.8-9.4,27.8l-1.6,3.4c-0.5,1.1-1.2,2.2-1.7,3.3c-1.1,2.2-2.5,4.3-3.8,6.5c-0.7,1.1-1.4,2.1-2.1,3.1s-1.4,2.1-2.2,3
	l-2.3,3c-0.8,1-1.7,1.9-2.5,2.8l-1.3,1.4l-1.4,1.3l-2.7,2.7l-2.8,2.5l-0.7,0.6l-0.4,0.3c0,0-0.2,0.1-0.2,0.2l-0.2,0.1
	c-0.5,0.4-1,0.8-1.6,1.2c-2.2,1.5-4.7,2.6-7.2,3.3c-2.6,0.7-5.2,0.9-7.8,0.8c-5.2-0.3-10.3-1.8-14.9-4.1s-8.8-5.2-12.6-8.7
	c-7.4-7.2-12.3-16.2-16-25.4c-3.8-9.2-6.5-18.6-9-27.9c-1.1-4.7-2.3-9.4-3-14.1c-0.4-2.3-0.9-4.7-1.3-7c-0.3-2.3-0.7-4.7-1-7
	c-0.4-2.3-0.6-4.6-0.8-7c-0.2-2.3-0.5-4.6-0.7-6.9c-0.3-4.6-0.8-9.1-0.9-13.6c-0.1-2.3-0.2-4.5-0.3-6.7c0-2.2-0.1-4.4-0.1-6.6
	c-0.1-4.4,0-8.8,0-13c0.2-17.2,1.2-33.3,2.2-48.3c1-14.9,2.2-28.6,3.1-40.7c1-12.1,1.8-22.7,2.5-31.4
	C176.6,21.7,177.4,11.7,177.4,11.7L177.4,11.7z"/>
<path d="M172.5,81.9h4.7c3,0,7.2-0.2,12.3-0.5c5.1-0.3,11.1-0.7,17.4-1.1c3.2-0.2,6.5-0.4,9.9-0.5l10.2-0.3
	c3.4-0.1,6.8-0.2,10.2-0.4c3.4-0.1,6.7-0.2,9.9-0.3c3.2,0,6.3-0.1,9.2,0c2.9,0,5.7,0.1,8.3,0.1c10.2,0.2,17.1,0.8,17.1,0.8V80
	c0,0-6.8,0.8-17,1.3c-2.6,0.1-5.3,0.3-8.3,0.4c-2.9,0.1-6,0.2-9.2,0.2h-9.9c-3.4,0-6.8,0-10.2-0.1h-10.2c-3.3,0-6.6,0.1-9.8,0.2
	c-6.4,0.2-12.4,0.3-17.5,0.4c-5.1,0.1-9.4,0-12.4-0.1c-1.5,0-2.7-0.1-3.5-0.1h-1.2V81.9L172.5,81.9z M207.1,606.2
	c0,0,0.1,0.2,0.2,0.5c0.2,0.3,0.5,0.7,0.9,1.1c0.9,0.9,2.4,1.7,4.5,2.4c0.5,0.1,1.1,0.3,1.6,0.5c0.6,0.2,1.1,0.3,1.7,0.5
	c1.2,0.3,2.5,0.5,3.8,0.8c1.3,0.2,2.7,0.4,4.1,0.6c0.7,0.1,1.4,0.1,2.1,0.2c0.7,0.1,1.4,0.1,2.1,0.1c1.4,0,2.8,0,4.2-0.1
	c0.7-0.1,1.4-0.1,2.1-0.2c0.7-0.1,1.3-0.2,2-0.3c1.3-0.3,2.6-0.5,3.7-0.8c0.6-0.1,1.2-0.3,1.7-0.5s1.1-0.4,1.6-0.5
	c1-0.4,1.9-0.7,2.7-1.1c0.8-0.4,1.5-0.7,2.1-1c1.1-0.6,1.8-1,1.8-1s-0.6,0.5-1.5,1.3c-0.5,0.4-1.2,0.8-1.9,1.3s-1.7,1-2.6,1.5
	c-1,0.5-2.1,1-3.3,1.4c-1.2,0.5-2.5,0.8-3.9,1.1c-0.7,0.1-1.4,0.3-2.1,0.4c-0.7,0.1-1.4,0.2-2.2,0.3c-1.5,0.1-2.9,0.2-4.4,0.2
	c-0.7,0-1.5,0-2.2-0.1s-1.5-0.1-2.2-0.2c-1.5-0.2-2.9-0.5-4.2-0.8c-1.3-0.3-2.6-0.7-3.9-1.1c-1.2-0.4-2.3-0.9-3.3-1.3
	s-1.9-1-2.7-1.5c-0.8-0.5-1.3-1.1-1.7-1.7c-0.4-0.5-0.6-1-0.7-1.3C207.2,606.4,207.1,606.2,207.1,606.2L207.1,606.2z M154,628.3
	c0,0,0.1,0.1,0.2,0.4c0.1,0.3,0.4,0.6,0.8,1c0.8,0.8,2.2,1.8,4.1,2.7s4.3,1.9,7.1,2.7c2.8,0.9,6.1,1.7,9.6,2.4
	c3.6,0.7,7.5,1.4,11.6,1.9s8.5,0.8,13.1,1.1c4.6,0.2,9.2,0.3,14,0.1c4.8-0.1,9.6-0.4,14.5-0.8c9.7-0.7,19.4-1.8,28.4-3.1
	c4.5-0.6,8.9-1.2,13.1-1.6c4.2-0.4,8.1-0.6,11.7-1s6.9-0.9,9.8-1.5s5.4-1.3,7.3-2.1c1-0.3,1.9-0.7,2.6-1.1c0.8-0.3,1.4-0.6,1.9-0.9
	l1.6-0.8l-1.5,0.9c-0.5,0.3-1.1,0.7-1.8,1c-0.7,0.4-1.6,0.8-2.6,1.2c-2,0.9-4.4,1.7-7.3,2.5s-6.2,1.4-9.8,1.9
	c-3.6,0.5-7.6,0.9-11.7,1.4s-8.5,1.2-13,1.8c-9,1.3-18.7,2.6-28.5,3.3c-4.9,0.3-9.8,0.6-14.6,0.6c-4.8,0.1-9.6,0-14.1-0.3
	c-4.6-0.2-9-0.7-13.2-1.4c-4.2-0.6-8.1-1.4-11.6-2.2c-7.1-1.7-12.9-3.8-16.7-5.9c-1.9-1-3.2-2.1-4-3c-0.4-0.4-0.6-0.8-0.7-1.1
	C154,628.4,154,628.3,154,628.3L154,628.3z"/>
</svg>
