<svg id="Layer_1" xmlns="http://www.w3.org/2000/svg" viewBox="0 0 705 705"><style>.st0,.st1{fill:none}.st1{stroke:#000;stroke-width:5;stroke-miterlimit:10}.st2,.st3{opacity:.9;fill:url(#SVGID_1_);enable-background:new}.st3{opacity:.74;fill:#fce481}</style><path class="st0" d="M122.5 0h460v705h-460V0z"/><path class="st1" d="M6711.1-565.6c.3 38.5.2 82.4-5.7 120.5-2.3 14.7-3.7 31.7-10.6 44.9-9.4 17.9-18.6 35.9-34 49.5-5.5 4.9-11.5 9.2-17.9 12.8-4.2 2.3-15.3 5.1-15.9 10.8-.4 3.6 3.8 5.7 6.9 7.6 6.9 4.3 10.9 12.3 11.6 20.4 1.5 15.4-5.6 30.7-18.9 38.8-.8.5-1.6 1-1.9 1.8-.7 2.1 2.1 3.4 4.2 3.8 12.1 2.1 24 5 35.7 8.7 7.7 2.4 24.3 10.6 12 18.5-7.7 4.9-17 6.2-26 7.3-24.7 3.1-49.7 6.2-74.5 3.9-5.6-.5-11.2-1.4-16.8-2.2l-22.5-3.3c-5.3-.8-11.8-2.7-12.7-7.9-1.7-10.2 16.6-15.1 23.6-17.2 4.9-1.5 36.5-4.6 35.6-9.3-.5-2.4-2.8-3.9-4.8-5.4-8.9-6.4-15-16.4-16.6-27.2-1.6-10.8 1.3-22.2 7.9-30.9 2.2-2.9 4.9-6 4.4-9.6-.2-1.5-1-2.9-2-4.1-5.1-6.7-15.9-9.5-22.8-14.7-7.9-6-15.2-12.8-21.6-20.4-12.5-14.5-22.1-31.5-27.6-49.9-5.2-17.2-6.9-35.3-8.2-53.2-2.3-31-3.6-62-3.8-93.1 20.2-2.4 42-1.8 62.4-1.4 52.8 1.1 160.5-1.6 160.5.5z"/><path d="M6584.5-250.7v1.9c0 .6.1 1.3.6 1.9.4.6 1.2.8 2.2.8 2.1-.1 4.5-.2 7.1-.2 1.3 0 2.7-.1 4-.1 1.4-.1 2.8-.1 4.1-.2 1.4-.1 2.8-.1 4.1-.2 1.4-.1 2.7-.1 4-.2 2.6-.1 5-.2 7.1-.3 2-.1 3.7-.6 4.6-1.3.4-.4.7-.8.8-1.1.1-.3.2-.5.2-.5v.5c-.1.3-.2.8-.6 1.3s-1.1 1-1.9 1.4-1.8.7-2.8.8c-2.1.4-4.5.7-7.1.9-1.3.1-2.7.3-4 .4-1.4.1-2.8.2-4.2.2-1.4 0-2.8.1-4.2.1h-4.1c-2.6-.1-5.1-.2-7.2-.4-.5-.1-1.1-.1-1.6-.4-.5-.3-.9-.7-1.1-1.1-.4-.9-.4-1.7-.3-2.3s.2-1.1.3-1.4c-.1-.3 0-.5 0-.5zm-.4-84.6s.6.2 1.6.5c.5.2 1.2.3 1.9.5s1.6.4 2.4.5c.9.2 1.9.3 2.9.5 1 .1 2.1.2 3.3.3 1.1.1 2.3.1 3.5.2h3.6c1.2 0 2.5 0 3.7-.1 1.2 0 2.4-.1 3.6-.1 2.3-.1 4.5-.1 6.3-.3 1.8-.2 3.2-.6 4.1-1.2.4-.3.8-.6 1-.8l.3-.3s-.1.1-.2.4c-.2.3-.4.6-.8 1-.8.8-2.3 1.6-4.2 2-.9.2-2 .4-3 .5-1.1.1-2.2.3-3.3.4l-3.6.3c-1.2.1-2.5.1-3.7.2-1.3 0-2.5 0-3.7-.1-.6 0-1.2-.1-1.8-.1-.6-.1-1.2-.1-1.8-.2-1.2-.1-2.3-.4-3.4-.6-.5-.1-1-.3-1.5-.4-.5-.2-1-.3-1.4-.4-1.8-.6-3.2-1.3-4.2-1.8-1-.6-1.6-.9-1.6-.9zM6534-233.2l.3.3c.2.2.5.4 1 .6.9.5 2.3 1 4.2 1.4 1.9.4 4.2.7 6.8 1.1 2.6.4 5.6.7 8.9 1.1 3.3.3 6.8.7 10.6 1 3.7.3 7.7.5 11.8.7 8.2.3 17 .5 25.7.6 4.4.1 8.8.1 13.1.2 4.3 0 8.5.1 12.6 0s8-.4 11.7-.8c3.7-.5 7.2-1.1 10.4-1.7 6.4-1.4 11.6-3 15.2-4.3 1.8-.7 3.2-1.2 4.2-1.6l1.5-.6s-.5.2-1.4.7c-.9.4-2.3 1.1-4.1 1.8-3.5 1.5-8.7 3.5-15.1 5.1s-14.1 2.9-22.3 3.2c-4.1.2-8.4.2-12.7.2-4.3 0-8.7-.1-13.1-.1-4.4-.1-8.8-.2-13.1-.3-4.3-.1-8.6-.4-12.7-.6-4.1-.3-8.1-.6-11.8-1-3.8-.4-7.3-.8-10.6-1.3-1.6-.3-3.2-.5-4.7-.7-1.5-.3-2.9-.5-4.2-.8-2.6-.5-4.9-1-6.8-1.5s-3.3-1.1-4.1-1.7c-.4-.3-.7-.5-.9-.7-.3-.2-.4-.3-.4-.3z"/><linearGradient id="SVGID_1_" gradientUnits="userSpaceOnUse" x1="6501.3" y1="1150.789" x2="6707.2" y2="1150.789" gradientTransform="matrix(1 0 0 -1 0 707)"><stop offset=".018" stop-color="#801fe3"/><stop offset="1" stop-color="#b7a7ff"/></linearGradient><path class="st2" d="M6501.3-537.4c1.4 24.4 2.7 48.8 4.1 73.2.4 7.9.9 15.9 2.2 23.7 1.8 11.1 5.4 21.8 8.9 32.5 3 9.1 6 18.2 11.1 26.3 17.8 28.1 51.5 32.7 81.9 31.3 10.6-.5 21.3-1.5 31.5-4.7 66.9-21.3 65.2-117 66.1-172.7 0-2.6.1-5.1.1-7.7-68.7 2.2-137.5 4-205.9-1.9z"/><path d="M6496.2-557.1s.6 8.1 1.5 22.2c.5 7.1 1 15.6 1.7 25.5.6 9.8 1.4 20.9 2.1 33.1.4 6.1.7 12.4 1.3 18.9.5 6.5 1.4 13.2 3 19.9 1.6 6.7 3.7 13.5 6 20.4 2.4 6.9 4.5 14 7.5 20.9.8 1.7 1.5 3.4 2.4 5.1.9 1.6 1.8 3.3 2.8 4.8 1.1 1.6 2.2 3.1 3.4 4.7 1.2 1.4 2.5 2.8 3.7 4.3 5.3 5.5 11.7 10 18.8 13.2 7.1 3.3 14.8 5.4 22.6 6.6 7.9 1.3 15.9 1.7 23.9 1.7 8-.1 16.1-.4 24-1.5 3.9-.5 7.9-1.2 11.7-2.2 1-.3 1.9-.5 2.8-.8l.7-.2h.1l.2-.1.4-.1 1.4-.5 2.8-1c.5-.2.9-.3 1.4-.5l1.3-.6c7.1-3.1 13.7-7.4 19.4-12.5 5.7-5.1 10.5-11.1 14.4-17.5 4-6.3 7.1-13.1 9.7-19.8 2.6-6.8 4.6-13.6 6.3-20.3 3.2-13.5 5-26.5 6.2-38.5 1.1-12.1 1.7-23.2 2-33 .3-9.9.5-18.4.7-25.5.2-14.2.4-22.2.4-22.2s0 2 .1 5.8c0 3.8.1 9.4.2 16.4 0 7.1 0 15.7-.2 25.5-.1 9.9-.5 21-1.5 33.1s-2.6 25.2-5.7 38.9c-1.6 6.8-3.6 13.7-6.1 20.6s-5.7 13.8-9.8 20.3c-4 6.5-9 12.7-14.8 18.1-5.9 5.4-12.7 9.8-20.2 13.1l-1.4.6c-.5.2-.9.4-1.4.5l-2.8 1-1.4.5-.4.1-.2.1-.2.1-.7.2c-1 .3-2 .6-2.9.8-3.9 1-8 1.8-12 2.4-8.1 1.1-16.2 1.5-24.4 1.6-8.2 0-16.3-.5-24.4-1.8-8-1.3-16-3.5-23.3-7-7.4-3.4-14.1-8.1-19.6-13.9-1.3-1.5-2.6-3.1-3.9-4.6-1.1-1.6-2.2-3.2-3.3-4.7-2.2-3.4-3.9-6.8-5.4-10.4-3-7.1-5.2-14.2-7.5-21.2-2.2-7-4.3-13.9-5.8-20.7-1.6-6.9-2.4-13.6-2.8-20.2-.5-6.6-.7-12.9-1-18.9-.6-12.1-1.1-23.2-1.6-33.1-.5-9.9-.8-18.4-1.2-25.5-.7-14.2-1-22.2-1-22.2z"/><path d="M6496.6-541.7s.8 0 2.4.1 3.8.2 6.7.3c2.9.2 6.4.3 10.5.5 4 .2 8.6.3 13.6.5s10.4.3 16.1.5 11.7.2 17.9.4c6.2.1 12.6.1 19.2.2 6.5.1 13.2 0 19.8.1 6.6 0 13.3 0 19.8-.1s13-.1 19.2-.2c12.5-.1 24.1-.2 34-.3 10-.1 18.3-.1 24.1-.1h9.1s-.8.1-2.4.2c-1.6.1-3.8.2-6.7.4-5.8.3-14.1.8-24.1 1.3s-21.6.9-34 1.3c-6.2.1-12.7.4-19.2.4-6.5.1-13.2.1-19.8.2-6.6 0-13.3 0-19.8-.2-6.5-.1-13-.3-19.2-.4-6.2-.2-12.3-.4-18-.8-2.9-.2-5.6-.3-8.3-.5-2.7-.2-5.3-.4-7.8-.5-2.5-.2-4.9-.3-7.1-.5-2.3-.2-4.4-.4-6.4-.6-4-.4-7.6-.7-10.4-1-2.9-.3-5.2-.6-6.7-.7-1.7-.4-2.5-.5-2.5-.5z"/><path class="st3" d="M346.6 138.8c-18.7.2-33 1.7-49.7 1.2h-.1c-.2 3.5-.5 7.1-.7 10.6-4 57.1-7.8 116.3 11.8 169.8 3.9 10.6 8.7 21 16.2 29.2 9.8 10.6 30.2 20.8 44.4 9.2 45.4-36.9 42.6-115.2 40.3-171.1-.7-17.3-1.5-33.5-2.5-49.6l-1.2-.2c-17.7.1-41.3.8-58.5.9z"/><path class="st1" d="M404.3 57.5c6.1 39.3 9.3 79 9.5 118.7.1 19.5 1.4 39.4.1 58.9-1.1 15.9-.8 32.2-4 48-6.6 32.6-17.3 46.4-28.1 67.6-27.1 53.4-23.3 114.7-25.1 174.6-1.3 44.3-.8 91.3 20.2 130.4 17 2.6 31 4.4 43.8 9.3 4.7 1.8 9.5 3.7 12.9 7.4s4.8 8.7 1.8 12.8c-1.8 2.5-4.8 3.7-7.7 4.8-17.3 6.5-45.2 9.9-63.7 11.4-24.5 1.9-50.1-.7-74.4-4.9-5.1-.9-21.7-6-21.7-11.1-.1-8.6 8.9-13.2 16.8-16.5 11.6-4.9 18.2-6 30.5-8.9 2.5-.6 8.9-2.3 11.2-3.5 11.7-24.4 14.5-52 16-79 .9-17.1 1.3-33 1.4-50.8.2-30.2-.2-60.3-1.6-90.5-1.2-25.7-4.2-52-19.5-77.8-13.8-23.3-27.6-47.5-32.8-74.2-4.5-22.8-5.7-46.3-5.6-69.5.3-51.6 4.2-103.2 9.8-154.5 40.5 0 68.8 0 110.2-2.7z"/><path d="M299.9 64.7s-.6 9.9-1.6 27.4c-1.1 17.4-2.6 42.3-4.5 72.1-.9 14.9-1.7 31.1-1.7 48.2 0 4.3 0 8.6.2 13 .1 2.2.1 4.4.2 6.6.1 2.2.2 4.4.4 6.7.1 2.2.2 4.5.4 6.7.2 2.3.4 4.5.5 6.8.2 2.3.5 4.6.7 6.8.3 2.3.5 4.6.9 6.9.3 2.3.7 4.6 1 6.9s.8 4.6 1.3 6.9c.8 4.7 2 9.3 3.1 13.9 2.5 9.2 5.3 18.5 9 27.5 1.9 4.5 4 8.9 6.5 13s5.5 8 8.9 11.3c3.5 3.3 7.5 6.1 11.9 8.2 4.3 2.1 9 3.5 13.7 3.7 2.4.1 4.7-.1 7-.7 2.2-.6 4.4-1.6 6.3-2.9.5-.3.9-.7 1.4-1l.2-.1c.1 0 0 0 .1-.1l.4-.3.7-.6 2.8-2.4 2.6-2.5 1.3-1.3 1.2-1.4 2.4-2.7 2.3-2.9c.8-.9 1.5-1.9 2.2-2.9l2.1-3c1.3-2.1 2.6-4.1 3.7-6.3.6-1.1 1.2-2.1 1.7-3.2l1.6-3.3c4.1-8.8 7.1-18 9.3-27.3 2.2-9.3 3.7-18.6 4.7-27.9 1-9.2 1.5-18.4 1.8-27.3.3-9 .3-17.7.2-26.3-.1-8.5-.4-16.9-.7-24.9-.3-8-.6-15.8-.9-23.3-.7-14.9-1.4-28.6-2.1-40.7-.7-12.1-1.4-22.7-2-31.4-1.3-17.4-2-27.3-2-27.3s.2 2.5.7 7.1c.4 4.6 1.1 11.5 1.9 20.2 1.5 17.4 3.6 42.2 5.2 72.1.4 7.5.8 15.2 1.2 23.3.4 8.1.7 16.4.9 25 .4 17.1.4 35.3-1.6 54-1 9.3-2.5 18.8-4.7 28.2-2.3 9.4-5.2 18.8-9.4 27.8l-1.6 3.4c-.5 1.1-1.2 2.2-1.7 3.3-1.1 2.2-2.5 4.3-3.8 6.5-.7 1.1-1.4 2.1-2.1 3.1s-1.4 2.1-2.2 3l-2.3 3c-.8 1-1.7 1.9-2.5 2.8l-1.3 1.4-1.4 1.3-2.7 2.7-2.8 2.5-.7.6-.4.3s-.2.1-.2.2l-.2.1c-.5.4-1 .8-1.6 1.2-2.2 1.5-4.7 2.6-7.2 3.3-2.6.7-5.2.9-7.8.8-5.2-.3-10.3-1.8-14.9-4.1s-8.8-5.2-12.6-8.7c-7.4-7.2-12.3-16.2-16-25.4-3.8-9.2-6.5-18.6-9-27.9-1.1-4.7-2.3-9.4-3-14.1-.4-2.3-.9-4.7-1.3-7-.3-2.3-.7-4.7-1-7-.4-2.3-.6-4.6-.8-7-.2-2.3-.5-4.6-.7-6.9-.3-4.6-.8-9.1-.9-13.6-.1-2.3-.2-4.5-.3-6.7 0-2.2-.1-4.4-.1-6.6-.1-4.4 0-8.8 0-13 .2-17.2 1.2-33.3 2.2-48.3 1-14.9 2.2-28.6 3.1-40.7 1-12.1 1.8-22.7 2.5-31.4 1.1-17.4 1.9-27.4 1.9-27.4z"/><path d="M295 134.9h4.7c3 0 7.2-.2 12.3-.5 5.1-.3 11.1-.7 17.4-1.1 3.2-.2 6.5-.4 9.9-.5l10.2-.3c3.4-.1 6.8-.2 10.2-.4 3.4-.1 6.7-.2 9.9-.3 3.2 0 6.3-.1 9.2 0 2.9 0 5.7.1 8.3.1 10.2.2 17.1.8 17.1.8v.3s-6.8.8-17 1.3c-2.6.1-5.3.3-8.3.4-2.9.1-6 .2-9.2.2h-9.9c-3.4 0-6.8 0-10.2-.1h-10.2c-3.3 0-6.6.1-9.8.2-6.4.2-12.4.3-17.5.4-5.1.1-9.4 0-12.4-.1-1.5 0-2.7-.1-3.5-.1H295v-.3zm34.6 524.3s.1.2.2.5c.2.3.5.7.9 1.1.9.9 2.4 1.7 4.5 2.4.5.1 1.1.3 1.6.5.6.2 1.1.3 1.7.5 1.2.3 2.5.5 3.8.8 1.3.2 2.7.4 4.1.6.7.1 1.4.1 2.1.2.7.1 1.4.1 2.1.1 1.4 0 2.8 0 4.2-.1.7-.1 1.4-.1 2.1-.2.7-.1 1.3-.2 2-.3 1.3-.3 2.6-.5 3.7-.8.6-.1 1.2-.3 1.7-.5s1.1-.4 1.6-.5c1-.4 1.9-.7 2.7-1.1.8-.4 1.5-.7 2.1-1 1.1-.6 1.8-1 1.8-1s-.6.5-1.5 1.3c-.5.4-1.2.8-1.9 1.3s-1.7 1-2.6 1.5c-1 .5-2.1 1-3.3 1.4-1.2.5-2.5.8-3.9 1.1-.7.1-1.4.3-2.1.4-.7.1-1.4.2-2.2.3-1.5.1-2.9.2-4.4.2-.7 0-1.5 0-2.2-.1s-1.5-.1-2.2-.2c-1.5-.2-2.9-.5-4.2-.8-1.3-.3-2.6-.7-3.9-1.1-1.2-.4-2.3-.9-3.3-1.3s-1.9-1-2.7-1.5c-.8-.5-1.3-1.1-1.7-1.7-.4-.5-.6-1-.7-1.3 0-.5-.1-.7-.1-.7zm-53.1 22.1s.1.1.2.4c.1.3.4.6.8 1 .8.8 2.2 1.8 4.1 2.7s4.3 1.9 7.1 2.7c2.8.9 6.1 1.7 9.6 2.4 3.6.7 7.5 1.4 11.6 1.9s8.5.8 13.1 1.1c4.6.2 9.2.3 14 .1 4.8-.1 9.6-.4 14.5-.8 9.7-.7 19.4-1.8 28.4-3.1 4.5-.6 8.9-1.2 13.1-1.6 4.2-.4 8.1-.6 11.7-1s6.9-.9 9.8-1.5 5.4-1.3 7.3-2.1c1-.3 1.9-.7 2.6-1.1.8-.3 1.4-.6 1.9-.9l1.6-.8-1.5.9c-.5.3-1.1.7-1.8 1-.7.4-1.6.8-2.6 1.2-2 .9-4.4 1.7-7.3 2.5s-6.2 1.4-9.8 1.9c-3.6.5-7.6.9-11.7 1.4s-8.5 1.2-13 1.8c-9 1.3-18.7 2.6-28.5 3.3-4.9.3-9.8.6-14.6.6-4.8.1-9.6 0-14.1-.3-4.6-.2-9-.7-13.2-1.4-4.2-.6-8.1-1.4-11.6-2.2-7.1-1.7-12.9-3.8-16.7-5.9-1.9-1-3.2-2.1-4-3-.4-.4-.6-.8-.7-1.1-.3 0-.3-.1-.3-.1z"/></svg>