<?xml version="1.0" encoding="utf-8"?>
<!-- Generator: Adobe Illustrator 19.2.0, SVG Export Plug-In . SVG Version: 6.00 Build 0)  -->
<svg version="1.1" id="Layer_1" xmlns="http://www.w3.org/2000/svg" xmlns:xlink="http://www.w3.org/1999/xlink" x="0px" y="0px"
	 viewBox="0 0 460 603.5" style="enable-background:new 0 0 460 603.5;" xml:space="preserve">
<style type="text/css">
	.st0{fill:none;stroke:#000000;stroke-width:5;stroke-miterlimit:10;}
	.st1{opacity:0.9;fill:url(#SVGID_1_);enable-background:new    ;}
	.st2{fill:#F7CF89;}
</style>
<path class="st0" d="M6588.6-667.1c0.3,38.5,0.2,82.4-5.7,120.5c-2.3,14.7-3.7,31.7-10.6,44.9c-9.4,17.9-18.6,35.9-34,49.5
	c-5.5,4.9-11.5,9.2-17.9,12.8c-4.2,2.3-15.3,5.1-15.9,10.8c-0.4,3.6,3.8,5.7,6.9,7.6c6.9,4.3,10.9,12.3,11.6,20.4
	c1.5,15.4-5.6,30.7-18.9,38.8c-0.8,0.5-1.6,1-1.9,1.8c-0.7,2.1,2.1,3.4,4.2,3.8c12.1,2.1,24,5,35.7,8.7c7.7,2.4,24.3,10.6,12,18.5
	c-7.7,4.9-17,6.2-26,7.3c-24.7,3.1-49.7,6.2-74.5,3.9c-5.6-0.5-11.2-1.4-16.8-2.2l-22.5-3.3c-5.3-0.8-11.8-2.7-12.7-7.9
	c-1.7-10.2,16.6-15.1,23.6-17.2c4.9-1.5,36.5-4.6,35.6-9.3c-0.5-2.4-2.8-3.9-4.8-5.4c-8.9-6.4-15-16.4-16.6-27.2
	c-1.6-10.8,1.3-22.2,7.9-30.9c2.2-2.9,4.9-6,4.4-9.6c-0.2-1.5-1-2.9-2-4.1c-5.1-6.7-15.9-9.5-22.8-14.7c-7.9-6-15.2-12.8-21.6-20.4
	c-12.5-14.5-22.1-31.5-27.6-49.9c-5.2-17.2-6.9-35.3-8.2-53.2c-2.3-31-3.6-62-3.8-93.1c20.2-2.4,42-1.8,62.4-1.4
	C6480.9-666.5,6588.6-669.2,6588.6-667.1L6588.6-667.1z"/>
<path d="M6462-352.2v1.9c0,0.6,0.1,1.3,0.6,1.9c0.4,0.6,1.2,0.8,2.2,0.8c2.1-0.1,4.5-0.2,7.1-0.2c1.3,0,2.7-0.1,4-0.1
	c1.4-0.1,2.8-0.1,4.1-0.2c1.4-0.1,2.8-0.1,4.1-0.2c1.4-0.1,2.7-0.1,4-0.2c2.6-0.1,5-0.2,7.1-0.3c2-0.1,3.7-0.6,4.6-1.3
	c0.4-0.4,0.7-0.8,0.8-1.1c0.1-0.3,0.2-0.5,0.2-0.5v0.5c-0.1,0.3-0.2,0.8-0.6,1.3s-1.1,1-1.9,1.4c-0.8,0.4-1.8,0.7-2.8,0.8
	c-2.1,0.4-4.5,0.7-7.1,0.9c-1.3,0.1-2.7,0.3-4,0.4c-1.4,0.1-2.8,0.2-4.2,0.2c-1.4,0-2.8,0.1-4.2,0.1h-4.1c-2.6-0.1-5.1-0.2-7.2-0.4
	c-0.5-0.1-1.1-0.1-1.6-0.4s-0.9-0.7-1.1-1.1c-0.4-0.9-0.4-1.7-0.3-2.3s0.2-1.1,0.3-1.4C6461.9-352,6462-352.2,6462-352.2L6462-352.2
	z M6461.6-436.8c0,0,0.6,0.2,1.6,0.5c0.5,0.2,1.2,0.3,1.9,0.5s1.6,0.4,2.4,0.5c0.9,0.2,1.9,0.3,2.9,0.5c1,0.1,2.1,0.2,3.3,0.3
	c1.1,0.1,2.3,0.1,3.5,0.2h3.6c1.2,0,2.5,0,3.7-0.1c1.2,0,2.4-0.1,3.6-0.1c2.3-0.1,4.5-0.1,6.3-0.3c1.8-0.2,3.2-0.6,4.1-1.2
	c0.4-0.3,0.8-0.6,1-0.8l0.3-0.3c0,0-0.1,0.1-0.2,0.4c-0.2,0.3-0.4,0.6-0.8,1c-0.8,0.8-2.3,1.6-4.2,2c-0.9,0.2-2,0.4-3,0.5
	c-1.1,0.1-2.2,0.3-3.3,0.4l-3.6,0.3c-1.2,0.1-2.5,0.1-3.7,0.2c-1.3,0-2.5,0-3.7-0.1c-0.6,0-1.2-0.1-1.8-0.1
	c-0.6-0.1-1.2-0.1-1.8-0.2c-1.2-0.1-2.3-0.4-3.4-0.6c-0.5-0.1-1-0.3-1.5-0.4c-0.5-0.2-1-0.3-1.4-0.4c-1.8-0.6-3.2-1.3-4.2-1.8
	C6462.2-436.5,6461.6-436.8,6461.6-436.8L6461.6-436.8z M6411.5-334.7l0.3,0.3c0.2,0.2,0.5,0.4,1,0.6c0.9,0.5,2.3,1,4.2,1.4
	c1.9,0.4,4.2,0.7,6.8,1.1c2.6,0.4,5.6,0.7,8.9,1.1c3.3,0.3,6.8,0.7,10.6,1c3.7,0.3,7.7,0.5,11.8,0.7c8.2,0.3,17,0.5,25.7,0.6
	c4.4,0.1,8.8,0.1,13.1,0.2c4.3,0,8.5,0.1,12.6,0s8-0.4,11.7-0.8c3.7-0.5,7.2-1.1,10.4-1.7c6.4-1.4,11.6-3,15.2-4.3
	c1.8-0.7,3.2-1.2,4.2-1.6l1.5-0.6c0,0-0.5,0.2-1.4,0.7c-0.9,0.4-2.3,1.1-4.1,1.8c-3.5,1.5-8.7,3.5-15.1,5.1
	c-6.4,1.6-14.1,2.9-22.3,3.2c-4.1,0.2-8.4,0.2-12.7,0.2c-4.3,0-8.7-0.1-13.1-0.1c-4.4-0.1-8.8-0.2-13.1-0.3
	c-4.3-0.1-8.6-0.4-12.7-0.6c-4.1-0.3-8.1-0.6-11.8-1c-3.8-0.4-7.3-0.8-10.6-1.3c-1.6-0.3-3.2-0.5-4.7-0.7c-1.5-0.3-2.9-0.5-4.2-0.8
	c-2.6-0.5-4.9-1-6.8-1.5s-3.3-1.1-4.1-1.7c-0.4-0.3-0.7-0.5-0.9-0.7C6411.6-334.6,6411.5-334.7,6411.5-334.7L6411.5-334.7z"/>
<linearGradient id="SVGID_1_" gradientUnits="userSpaceOnUse" x1="6378.7998" y1="1555.2887" x2="6584.7002" y2="1555.2887" gradientTransform="matrix(1 0 0 -1 0 1010)">
	<stop  offset="1.800000e-02" style="stop-color:#801FE3"/>
	<stop  offset="1" style="stop-color:#B7A7FF"/>
</linearGradient>
<path class="st1" d="M6378.8-638.9c1.4,24.4,2.7,48.8,4.1,73.2c0.4,7.9,0.9,15.9,2.2,23.7c1.8,11.1,5.4,21.8,8.9,32.5
	c3,9.1,6,18.2,11.1,26.3c17.8,28.1,51.5,32.7,81.9,31.3c10.6-0.5,21.3-1.5,31.5-4.7c66.9-21.3,65.2-117,66.1-172.7
	c0-2.6,0.1-5.1,0.1-7.7C6516-634.8,6447.2-633,6378.8-638.9L6378.8-638.9z"/>
<path d="M6373.7-658.6c0,0,0.6,8.1,1.5,22.2c0.5,7.1,1,15.6,1.7,25.5c0.6,9.8,1.4,20.9,2.1,33.1c0.4,6.1,0.7,12.4,1.3,18.9
	c0.5,6.5,1.4,13.2,3,19.9c1.6,6.7,3.7,13.5,6,20.4c2.4,6.9,4.5,14,7.5,20.9c0.8,1.7,1.5,3.4,2.4,5.1c0.9,1.6,1.8,3.3,2.8,4.8
	c1.1,1.6,2.2,3.1,3.4,4.7c1.2,1.4,2.5,2.8,3.7,4.3c5.3,5.5,11.7,10,18.8,13.2c7.1,3.3,14.8,5.4,22.6,6.6c7.9,1.3,15.9,1.7,23.9,1.7
	c8-0.1,16.1-0.4,24-1.5c3.9-0.5,7.9-1.2,11.7-2.2c1-0.3,1.9-0.5,2.8-0.8l0.7-0.2h0.1l0.2-0.1l0.4-0.1l1.4-0.5l2.8-1
	c0.5-0.2,0.9-0.3,1.4-0.5l1.3-0.6c7.1-3.1,13.7-7.4,19.4-12.5c5.7-5.1,10.5-11.1,14.4-17.5c4-6.3,7.1-13.1,9.7-19.8
	c2.6-6.8,4.6-13.6,6.3-20.3c3.2-13.5,5-26.5,6.2-38.5c1.1-12.1,1.7-23.2,2-33c0.3-9.9,0.5-18.4,0.7-25.5c0.2-14.2,0.4-22.2,0.4-22.2
	s0,2,0.1,5.8c0,3.8,0.1,9.4,0.2,16.4c0,7.1,0,15.7-0.2,25.5c-0.1,9.9-0.5,21-1.5,33.1c-1,12.1-2.6,25.2-5.7,38.9
	c-1.6,6.8-3.6,13.7-6.1,20.6c-2.5,6.9-5.7,13.8-9.8,20.3c-4,6.5-9,12.7-14.8,18.1c-5.9,5.4-12.7,9.8-20.2,13.1l-1.4,0.6
	c-0.5,0.2-0.9,0.4-1.4,0.5l-2.8,1l-1.4,0.5l-0.4,0.1l-0.2,0.1l-0.2,0.1l-0.7,0.2c-1,0.3-2,0.6-2.9,0.8c-3.9,1-8,1.8-12,2.4
	c-8.1,1.1-16.2,1.5-24.4,1.6c-8.2,0-16.3-0.5-24.4-1.8c-8-1.3-16-3.5-23.3-7c-7.4-3.4-14.1-8.1-19.6-13.9c-1.3-1.5-2.6-3.1-3.9-4.6
	c-1.1-1.6-2.2-3.2-3.3-4.7c-2.2-3.4-3.9-6.8-5.4-10.4c-3-7.1-5.2-14.2-7.5-21.2c-2.2-7-4.3-13.9-5.8-20.7
	c-1.6-6.9-2.4-13.6-2.8-20.2c-0.5-6.6-0.7-12.9-1-18.9c-0.6-12.1-1.1-23.2-1.6-33.1c-0.5-9.9-0.8-18.4-1.2-25.5
	C6374-650.6,6373.7-658.6,6373.7-658.6L6373.7-658.6z"/>
<path d="M6374.1-643.2c0,0,0.8,0,2.4,0.1s3.8,0.2,6.7,0.3c2.9,0.2,6.4,0.3,10.5,0.5c4,0.2,8.6,0.3,13.6,0.5s10.4,0.3,16.1,0.5
	s11.7,0.2,17.9,0.4c6.2,0.1,12.6,0.1,19.2,0.2c6.5,0.1,13.2,0,19.8,0.1c6.6,0,13.3,0,19.8-0.1s13-0.1,19.2-0.2
	c12.5-0.1,24.1-0.2,34-0.3c10-0.1,18.3-0.1,24.1-0.1h9.1c0,0-0.8,0.1-2.4,0.2c-1.6,0.1-3.8,0.2-6.7,0.4c-5.8,0.3-14.1,0.8-24.1,1.3
	s-21.6,0.9-34,1.3c-6.2,0.1-12.7,0.4-19.2,0.4c-6.5,0.1-13.2,0.1-19.8,0.2c-6.6,0-13.3,0-19.8-0.2c-6.5-0.1-13-0.3-19.2-0.4
	c-6.2-0.2-12.3-0.4-18-0.8c-2.9-0.2-5.6-0.3-8.3-0.5c-2.7-0.2-5.3-0.4-7.8-0.5c-2.5-0.2-4.9-0.3-7.1-0.5c-2.3-0.2-4.4-0.4-6.4-0.6
	c-4-0.4-7.6-0.7-10.4-1c-2.9-0.3-5.2-0.6-6.7-0.7C6374.9-643.1,6374.1-643.2,6374.1-643.2L6374.1-643.2z"/>
<path class="st2" d="M337.3,226.5c7.7-13.1,12.3-28,13.5-43.6c0.6-8.8,0.8-16.3-0.4-24.3c-20.7,4.8-42.1,4.8-63.3,4.7
	c-42.7-0.2-85.5-0.3-128.2-0.5c-7.4,0-14.8-0.1-22.1-0.8c-7.8-0.8-15.6-2.3-23.1-4.5c-0.4,13.6-1.4,27.4,1.6,40.7
	c4.1,18.6,14.1,35.2,26.4,48.9c2.7,3,6.1,5.6,8.8,8.5c17.2,17.8,34.3,35.6,51.5,53.4c4.6,4.8,9,10,14.5,13.6
	c5.2,3.5,15.4,2.9,15.4,2.9c7.2-0.9,14.8-2,20.8-6.5c4.3-3.2,7.5-7.8,10.9-12c14.3-17.1,31.7-30.1,47.4-45.6
	C321.4,251,329.6,239.6,337.3,226.5L337.3,226.5z"/>
<path class="st0" d="M145.3,5.1c-12.2,33.9-24,73.7-32.1,109c-7.6,33-15.9,69.9-5,101.8c18.5,54.1,81.3,76.7,101.5,130.1
	c6.5,17.1,8.1,39.1,9.2,57.8c1.7,30,2.1,60,0.6,90c-0.6,11.6-0.5,23.1-1.5,34.6c-0.9,10.8-0.2,21-6.1,30.5
	c-0.1,0.1-19.4,1.9-23.3,2.6c-8.5,1.5-43.1,6.3-51.1,10.9c-1.2,0.7-2.4,1.4-3.1,2.5c-1.1,1.6-1,3.8-0.9,5.8c0.1,2.4,0.3,4.9,1.8,6.7
	c1,1.1,2.4,1.8,3.7,2.4c9.3,4,29.6,8.7,47.1,9.6c9.6,0.5,41.7,0.7,63.5,1.1c21.3,0.4,61.8-2.8,75.3-12.9c2.2-5.5,0.4-9.6,0-11.2
	c-1.7-1.6-12-11.4-48.3-16c-5.1-0.7-10.2-0.9-15.3-1.1c-4.9-0.1-15.2,0.3-15.4,0.1c-0.2-0.1-5.7-8.8-7.7-23.7
	c-3-22.4-2.1-45.5-2.3-68.2c-0.7-67.1,3.5-131.9,48.3-169.5c23.6-19.8,51-46.2,65.3-77.2c13.3-28.7,5.7-60.1-0.9-90.7
	C339.4,87.6,324.3,46.2,316.5,4c-0.1-0.3-0.3-0.5-0.6-0.5C230.7,7.6,144,4.6,145.3,5.1L145.3,5.1z"/>
<path d="M310.7,12.3c0,0,0,0.2,0.1,0.5c0,0.4,0.1,0.9,0.3,1.6c0.3,1.4,0.7,3.5,1.4,6.1c1.3,5.3,3.5,13.1,6.3,23s6.2,21.9,10.1,35.7
	c1,3.4,1.9,7,2.9,10.7c0.5,1.8,0.9,3.7,1.4,5.7c0.4,1.9,0.8,3.8,1.2,5.8c1.7,7.8,3.5,16.1,5.4,24.7c1.9,8.6,3.9,17.6,6.1,26.8
	c0.5,2.3,1.2,4.6,1.7,7s1,4.8,1.3,7.3c0.6,4.9,0.7,10,0.6,15.1c-0.2,5.1-0.5,10.2-1.2,15.4c-0.8,5.2-1.9,10.4-3.5,15.5
	s-3.6,10.2-6.1,15.1c-1.2,2.4-2.6,4.9-4,7.2s-2.9,4.7-4.4,7c-6,9.3-12.9,18.3-21,26.4c-8.1,8-16.8,15.5-25.3,23.3s-16.8,15.9-24,25
	c-1.8,2.3-3.7,4.6-5.8,6.8c-1.1,1.1-2.2,2.1-3.5,3l-0.9,0.6l-1,0.6c-0.7,0.4-1.4,0.8-2.1,1.1c-2.8,1.4-5.7,2.2-8.7,2.8
	c-1.5,0.3-2.9,0.6-4.4,0.8l-2.2,0.3l-1.1,0.1l-0.5,0.1h-0.7c-3,0.1-6.1-0.1-9.1-0.7c-1.5-0.3-3-0.7-4.5-1.3
	c-0.7-0.3-1.5-0.7-2.2-1.2c-0.6-0.4-1.2-0.8-1.8-1.3c-4.8-3.7-8.7-8.2-12.7-12.4c-8.1-8.5-16.1-16.9-24.1-25.2
	c-8-8.4-15.9-16.6-23.8-24.8l-2.9-3.1c-1-1-1.9-2-3-2.9c-2-1.9-4.2-3.8-6.1-5.9c-3.7-4.2-7.3-8.6-10.4-13.2
	c-6.3-9.1-11.3-19.1-14.4-29.4c-0.4-1.3-0.7-2.6-1.1-3.9l-0.9-3.9l-0.4-1.9l-0.3-2c-0.2-1.3-0.4-2.6-0.5-3.9
	c-0.5-5.2-0.6-10.4-0.6-15.5c0.1-5.1,0.3-10.1,0.5-14.9c0-1.2,0.1-2.4,0.1-3.7c0.1-1.3,0.3-2.6,0.5-3.7c0.4-2.4,0.9-4.7,1.4-7.1
	c2-9.3,4.1-18.2,6.1-26.8c4.1-17.1,8.1-32.8,11.8-46.6c3.7-13.8,7-25.9,9.9-35.7c2.9-9.9,5.3-17.6,7-22.8c0.9-2.6,1.5-4.6,2-6
	c0.5-1.3,0.7-2,0.7-2s-0.2,0.7-0.7,2.1c-0.4,1.4-1.1,3.4-1.9,6c-1.6,5.3-3.9,13-6.6,22.9c-5.5,19.8-12.7,48.3-20.7,82.6
	c-2,8.6-4,17.5-5.9,26.8c-0.5,2.3-0.9,4.7-1.3,7c-0.1,0.6-0.2,1.2-0.3,1.7c0,0.3-0.1,0.6-0.1,0.9l-0.1,0.9c0,1.2-0.1,2.4-0.1,3.7
	c-0.1,4.9-0.3,9.9-0.3,14.9s0.1,10.1,0.7,15.2c0.1,1.3,0.3,2.5,0.5,3.8l0.3,1.9l0.4,1.9c0.3,1.2,0.6,2.5,0.9,3.8
	c0.3,1.3,0.7,2.5,1.1,3.8c3.1,10,8,19.7,14.2,28.6c3.1,4.5,6.5,8.8,10.2,12.9c1.8,2,3.9,3.8,6,5.7c1,1,2.1,2,3.1,3l2.9,3.1
	c7.9,8.2,15.8,16.4,23.8,24.8c8,8.3,16.1,16.7,24.2,25.1c4.1,4.2,7.9,8.7,12.4,12.1c0.5,0.4,1.1,0.8,1.7,1.2
	c0.5,0.3,1.1,0.6,1.7,0.9c1.2,0.5,2.5,0.9,3.9,1.1c2.7,0.5,5.6,0.7,8.4,0.6h0.5l0.5-0.1l1.1-0.1l2.2-0.3c1.4-0.2,2.9-0.5,4.3-0.7
	c2.8-0.6,5.5-1.4,8-2.6c0.6-0.3,1.2-0.6,1.8-1l0.9-0.5l0.9-0.6c1.1-0.8,2.2-1.7,3.1-2.7c2-2,3.8-4.2,5.6-6.5
	c7.3-9.3,15.8-17.5,24.4-25.2c8.6-7.8,17.3-15.2,25.3-23.2c8-7.9,14.8-16.7,20.8-25.9c1.5-2.3,2.9-4.6,4.3-6.9s2.7-4.7,3.9-7
	c1.2-2.4,2.3-4.8,3.3-7.2c1-2.5,1.9-4.9,2.7-7.4c1.6-5,2.8-10,3.5-15.1c0.4-2.5,0.7-5,0.9-7.6c0.2-2.5,0.4-5.1,0.5-7.6
	c0.2-5,0.1-9.9-0.4-14.7c-0.3-2.4-0.7-4.8-1.2-7.1s-1.1-4.7-1.6-7c-2.1-9.3-4-18.2-5.9-26.9c-1.8-8.6-3.6-16.9-5.2-24.8
	c-0.4-2-0.8-3.9-1.2-5.8c-0.4-1.9-0.8-3.8-1.3-5.6c-0.9-3.7-1.8-7.3-2.7-10.7c-3.7-13.8-7-25.9-9.6-35.8c-2.7-9.9-4.6-17.8-5.9-23.1
	c-0.6-2.7-1-4.8-1.3-6.2c-0.1-0.7-0.2-1.2-0.2-1.6C310.8,12.5,310.7,12.3,310.7,12.3L310.7,12.3z"/>
<path d="M110.6,163.9c0,0,0.9,0.2,2.6,0.7c1.7,0.4,4.2,1,7.4,1.6s7.1,1.2,11.6,1.6s9.6,0.6,15.2,0.6c11.2-0.1,24.2-0.2,38.2-0.3
	h43.7c7.5,0,14.9,0.1,22.2,0.1c7.3,0.1,14.6,0.1,21.5,0.2c7,0.1,13.7,0.2,20.1,0.3c6.4,0.1,12.4,0.1,18,0s10.7-0.3,15.2-0.7
	c4.5-0.3,8.4-0.8,11.7-1.2c1.6-0.2,3-0.4,4.3-0.6s2.3-0.4,3.2-0.5c1.7-0.3,2.6-0.5,2.6-0.5s-0.9,0.2-2.6,0.7
	c-0.8,0.2-1.9,0.5-3.1,0.7c-0.6,0.1-1.3,0.3-2,0.4s-1.5,0.3-2.3,0.4c-6.4,1.2-15.7,2.5-26.9,3.1c-5.6,0.3-11.7,0.5-18.1,0.5
	c-6.4,0.1-13.2,0.1-20.1,0.1h-43.7c-7.5,0-14.9-0.1-22.2-0.1c-7.3-0.1-14.6-0.1-21.5-0.2c-7-0.1-13.7-0.2-20.1-0.3
	c-6.4-0.1-12.5-0.2-18.1-0.4c-5.6-0.2-10.8-0.6-15.3-1.2s-8.4-1.4-11.6-2.2c-3.2-0.7-5.6-1.5-7.3-2S110.6,163.9,110.6,163.9
	L110.6,163.9z M215.7,562.4v-0.3h0.1c-0.1,0.6,0.2,1.1,0.7,1.4c0.4,0.3,1,0.5,1.5,0.6c0.6,0.1,1.2,0.2,1.8,0.2
	c0.6,0.1,1.2,0.1,1.8,0.2c2.4,0.2,4.8,0.3,7.2,0.3l3.6,0.1l3.6,0.1c1.2,0,2.3,0,3.4-0.3s2.2-0.9,3.1-1.6c-0.6,1.1-1.6,1.9-2.8,2.5
	c-1.2,0.6-2.5,0.8-3.7,1c-1.3,0.1-2.5,0.2-3.7,0.2c-1.2,0.1-2.5,0.1-3.7,0.1s-2.5-0.1-3.7-0.2c-1.2-0.1-2.5-0.3-3.7-0.6
	c-0.6-0.1-1.2-0.3-1.8-0.4l-1.8-0.6c-0.7-0.2-1.2-0.6-1.7-1.1c-0.2-0.3-0.4-0.6-0.5-0.9c-0.1-0.3,0-0.7,0.1-1l0.2-0.4l-0.1,0.4
	L215.7,562.4z M142.5,580.4c0,0,0.1,0.1,0.3,0.4c0.2,0.3,0.5,0.7,0.9,1.2c0.9,1,2.4,2.2,4.6,3.2c1.1,0.5,2.4,0.9,3.8,1.1
	c1.4,0.2,3,0.4,4.7,0.7c3.4,0.4,7.2,0.9,11.4,1.4c4.2,0.5,8.7,1,13.5,1.5c2.4,0.2,4.9,0.5,7.4,0.7c2.5,0.1,5.1,0.3,7.7,0.5
	c10.5,0.6,21.7,1.3,32.9,2c2.8,0.2,5.6,0.5,8.3,0.5c2.8,0,5.6,0,8.3-0.1c2.8-0.1,5.5-0.1,8.2-0.3c1.3-0.1,2.7-0.1,4-0.2
	c1.3-0.1,2.6-0.3,3.9-0.4c10.5-1.2,20.2-2.2,28.6-3.1c4.2-0.5,8-1,11.3-1.7s6.1-1.7,8.3-2.8c2.2-1.1,3.8-2.1,4.9-2.9
	c1-0.8,1.6-1.3,1.6-1.3s-0.5,0.5-1.5,1.4c-1,0.8-2.6,2-4.8,3.2c-2.2,1.2-5,2.3-8.3,3.2s-7.2,1.5-11.4,2.1
	c-8.4,1.1-18.1,2.5-28.5,3.8c-1.3,0.2-2.6,0.3-4,0.5c-1.4,0.1-2.7,0.2-4.1,0.3c-2.7,0.1-5.5,0.2-8.2,0.3c-2.8,0.1-5.6,0.1-8.4,0.1
	c-2.9,0-5.6-0.3-8.5-0.4c-11.2-0.8-22.4-1.5-32.9-2.3c-2.6-0.2-5.2-0.4-7.7-0.6c-2.6-0.2-5-0.5-7.4-0.8c-4.8-0.6-9.3-1.2-13.5-1.8
	s-8-1.2-11.4-1.8c-1.7-0.3-3.3-0.6-4.7-0.9c-1.5-0.3-2.8-0.8-3.9-1.3c-2.3-1.1-3.7-2.5-4.5-3.5c-0.4-0.5-0.7-0.9-0.9-1.2
	C142.6,580.5,142.5,580.4,142.5,580.4L142.5,580.4z"/>
</svg>
