<svg id="Layer_1" xmlns="http://www.w3.org/2000/svg" viewBox="0 0 460 603.5"><style>.st0{fill:none;stroke:#000;stroke-width:5;stroke-miterlimit:10}.st1{opacity:.9;fill:url(#SVGID_1_);enable-background:new}.st2{fill:#f7cf89}</style><path class="st0" d="M6588.6-667.1c.3 38.5.2 82.4-5.7 120.5-2.3 14.7-3.7 31.7-10.6 44.9-9.4 17.9-18.6 35.9-34 49.5-5.5 4.9-11.5 9.2-17.9 12.8-4.2 2.3-15.3 5.1-15.9 10.8-.4 3.6 3.8 5.7 6.9 7.6 6.9 4.3 10.9 12.3 11.6 20.4 1.5 15.4-5.6 30.7-18.9 38.8-.8.5-1.6 1-1.9 1.8-.7 2.1 2.1 3.4 4.2 3.8 12.1 2.1 24 5 35.7 8.7 7.7 2.4 24.3 10.6 12 18.5-7.7 4.9-17 6.2-26 7.3-24.7 3.1-49.7 6.2-74.5 3.9-5.6-.5-11.2-1.4-16.8-2.2l-22.5-3.3c-5.3-.8-11.8-2.7-12.7-7.9-1.7-10.2 16.6-15.1 23.6-17.2 4.9-1.5 36.5-4.6 35.6-9.3-.5-2.4-2.8-3.9-4.8-5.4-8.9-6.4-15-16.4-16.6-27.2-1.6-10.8 1.3-22.2 7.9-30.9 2.2-2.9 4.9-6 4.4-9.6-.2-1.5-1-2.9-2-4.1-5.1-6.7-15.9-9.5-22.8-14.7-7.9-6-15.2-12.8-21.6-20.4-12.5-14.5-22.1-31.5-27.6-49.9-5.2-17.2-6.9-35.3-8.2-53.2-2.3-31-3.6-62-3.8-93.1 20.2-2.4 42-1.8 62.4-1.4 52.8 1.1 160.5-1.6 160.5.5z"/><path d="M6462-352.2v1.9c0 .6.1 1.3.6 1.9.4.6 1.2.8 2.2.8 2.1-.1 4.5-.2 7.1-.2 1.3 0 2.7-.1 4-.1 1.4-.1 2.8-.1 4.1-.2 1.4-.1 2.8-.1 4.1-.2 1.4-.1 2.7-.1 4-.2 2.6-.1 5-.2 7.1-.3 2-.1 3.7-.6 4.6-1.3.4-.4.7-.8.8-1.1.1-.3.2-.5.2-.5v.5c-.1.3-.2.8-.6 1.3s-1.1 1-1.9 1.4c-.8.4-1.8.7-2.8.8-2.1.4-4.5.7-7.1.9-1.3.1-2.7.3-4 .4-1.4.1-2.8.2-4.2.2-1.4 0-2.8.1-4.2.1h-4.1c-2.6-.1-5.1-.2-7.2-.4-.5-.1-1.1-.1-1.6-.4s-.9-.7-1.1-1.1c-.4-.9-.4-1.7-.3-2.3s.2-1.1.3-1.4c-.1-.3 0-.5 0-.5zm-.4-84.6s.6.2 1.6.5c.5.2 1.2.3 1.9.5s1.6.4 2.4.5c.9.2 1.9.3 2.9.5 1 .1 2.1.2 3.3.3 1.1.1 2.3.1 3.5.2h3.6c1.2 0 2.5 0 3.7-.1 1.2 0 2.4-.1 3.6-.1 2.3-.1 4.5-.1 6.3-.3 1.8-.2 3.2-.6 4.1-1.2.4-.3.8-.6 1-.8l.3-.3s-.1.1-.2.4c-.2.3-.4.6-.8 1-.8.8-2.3 1.6-4.2 2-.9.2-2 .4-3 .5-1.1.1-2.2.3-3.3.4l-3.6.3c-1.2.1-2.5.1-3.7.2-1.3 0-2.5 0-3.7-.1-.6 0-1.2-.1-1.8-.1-.6-.1-1.2-.1-1.8-.2-1.2-.1-2.3-.4-3.4-.6-.5-.1-1-.3-1.5-.4-.5-.2-1-.3-1.4-.4-1.8-.6-3.2-1.3-4.2-1.8-1-.6-1.6-.9-1.6-.9zm-50.1 102.1l.3.3c.2.2.5.4 1 .6.9.5 2.3 1 4.2 1.4 1.9.4 4.2.7 6.8 1.1 2.6.4 5.6.7 8.9 1.1 3.3.3 6.8.7 10.6 1 3.7.3 7.7.5 11.8.7 8.2.3 17 .5 25.7.6 4.4.1 8.8.1 13.1.2 4.3 0 8.5.1 12.6 0s8-.4 11.7-.8c3.7-.5 7.2-1.1 10.4-1.7 6.4-1.4 11.6-3 15.2-4.3 1.8-.7 3.2-1.2 4.2-1.6l1.5-.6s-.5.2-1.4.7c-.9.4-2.3 1.1-4.1 1.8-3.5 1.5-8.7 3.5-15.1 5.1-6.4 1.6-14.1 2.9-22.3 3.2-4.1.2-8.4.2-12.7.2-4.3 0-8.7-.1-13.1-.1-4.4-.1-8.8-.2-13.1-.3-4.3-.1-8.6-.4-12.7-.6-4.1-.3-8.1-.6-11.8-1-3.8-.4-7.3-.8-10.6-1.3-1.6-.3-3.2-.5-4.7-.7-1.5-.3-2.9-.5-4.2-.8-2.6-.5-4.9-1-6.8-1.5s-3.3-1.1-4.1-1.7c-.4-.3-.7-.5-.9-.7-.3-.2-.4-.3-.4-.3z"/><linearGradient id="SVGID_1_" gradientUnits="userSpaceOnUse" x1="6378.8" y1="1555.289" x2="6584.7" y2="1555.289" gradientTransform="matrix(1 0 0 -1 0 1010)"><stop offset=".018" stop-color="#801fe3"/><stop offset="1" stop-color="#b7a7ff"/></linearGradient><path class="st1" d="M6378.8-638.9c1.4 24.4 2.7 48.8 4.1 73.2.4 7.9.9 15.9 2.2 23.7 1.8 11.1 5.4 21.8 8.9 32.5 3 9.1 6 18.2 11.1 26.3 17.8 28.1 51.5 32.7 81.9 31.3 10.6-.5 21.3-1.5 31.5-4.7 66.9-21.3 65.2-117 66.1-172.7 0-2.6.1-5.1.1-7.7-68.7 2.2-137.5 4-205.9-1.9z"/><path d="M6373.7-658.6s.6 8.1 1.5 22.2c.5 7.1 1 15.6 1.7 25.5.6 9.8 1.4 20.9 2.1 33.1.4 6.1.7 12.4 1.3 18.9.5 6.5 1.4 13.2 3 19.9 1.6 6.7 3.7 13.5 6 20.4 2.4 6.9 4.5 14 7.5 20.9.8 1.7 1.5 3.4 2.4 5.1.9 1.6 1.8 3.3 2.8 4.8 1.1 1.6 2.2 3.1 3.4 4.7 1.2 1.4 2.5 2.8 3.7 4.3 5.3 5.5 11.7 10 18.8 13.2 7.1 3.3 14.8 5.4 22.6 6.6 7.9 1.3 15.9 1.7 23.9 1.7 8-.1 16.1-.4 24-1.5 3.9-.5 7.9-1.2 11.7-2.2 1-.3 1.9-.5 2.8-.8l.7-.2h.1l.2-.1.4-.1 1.4-.5 2.8-1c.5-.2.9-.3 1.4-.5l1.3-.6c7.1-3.1 13.7-7.4 19.4-12.5 5.7-5.1 10.5-11.1 14.4-17.5 4-6.3 7.1-13.1 9.7-19.8 2.6-6.8 4.6-13.6 6.3-20.3 3.2-13.5 5-26.5 6.2-38.5 1.1-12.1 1.7-23.2 2-33 .3-9.9.5-18.4.7-25.5.2-14.2.4-22.2.4-22.2s0 2 .1 5.8c0 3.8.1 9.4.2 16.4 0 7.1 0 15.7-.2 25.5-.1 9.9-.5 21-1.5 33.1-1 12.1-2.6 25.2-5.7 38.9-1.6 6.8-3.6 13.7-6.1 20.6-2.5 6.9-5.7 13.8-9.8 20.3-4 6.5-9 12.7-14.8 18.1-5.9 5.4-12.7 9.8-20.2 13.1l-1.4.6c-.5.2-.9.4-1.4.5l-2.8 1-1.4.5-.4.1-.2.1-.2.1-.7.2c-1 .3-2 .6-2.9.8-3.9 1-8 1.8-12 2.4-8.1 1.1-16.2 1.5-24.4 1.6-8.2 0-16.3-.5-24.4-1.8-8-1.3-16-3.5-23.3-7-7.4-3.4-14.1-8.1-19.6-13.9-1.3-1.5-2.6-3.1-3.9-4.6-1.1-1.6-2.2-3.2-3.3-4.7-2.2-3.4-3.9-6.8-5.4-10.4-3-7.1-5.2-14.2-7.5-21.2-2.2-7-4.3-13.9-5.8-20.7-1.6-6.9-2.4-13.6-2.8-20.2-.5-6.6-.7-12.9-1-18.9-.6-12.1-1.1-23.2-1.6-33.1-.5-9.9-.8-18.4-1.2-25.5-.7-14.2-1-22.2-1-22.2z"/><path d="M6374.1-643.2s.8 0 2.4.1 3.8.2 6.7.3c2.9.2 6.4.3 10.5.5 4 .2 8.6.3 13.6.5s10.4.3 16.1.5 11.7.2 17.9.4c6.2.1 12.6.1 19.2.2 6.5.1 13.2 0 19.8.1 6.6 0 13.3 0 19.8-.1s13-.1 19.2-.2c12.5-.1 24.1-.2 34-.3 10-.1 18.3-.1 24.1-.1h9.1s-.8.1-2.4.2c-1.6.1-3.8.2-6.7.4-5.8.3-14.1.8-24.1 1.3s-21.6.9-34 1.3c-6.2.1-12.7.4-19.2.4-6.5.1-13.2.1-19.8.2-6.6 0-13.3 0-19.8-.2-6.5-.1-13-.3-19.2-.4-6.2-.2-12.3-.4-18-.8-2.9-.2-5.6-.3-8.3-.5-2.7-.2-5.3-.4-7.8-.5-2.5-.2-4.9-.3-7.1-.5-2.3-.2-4.4-.4-6.4-.6-4-.4-7.6-.7-10.4-1-2.9-.3-5.2-.6-6.7-.7-1.7-.4-2.5-.5-2.5-.5z"/><path class="st2" d="M337.3 226.5c7.7-13.1 12.3-28 13.5-43.6.6-8.8.8-16.3-.4-24.3-20.7 4.8-42.1 4.8-63.3 4.7-42.7-.2-85.5-.3-128.2-.5-7.4 0-14.8-.1-22.1-.8-7.8-.8-15.6-2.3-23.1-4.5-.4 13.6-1.4 27.4 1.6 40.7 4.1 18.6 14.1 35.2 26.4 48.9 2.7 3 6.1 5.6 8.8 8.5 17.2 17.8 34.3 35.6 51.5 53.4 4.6 4.8 9 10 14.5 13.6 5.2 3.5 15.4 2.9 15.4 2.9 7.2-.9 14.8-2 20.8-6.5 4.3-3.2 7.5-7.8 10.9-12 14.3-17.1 31.7-30.1 47.4-45.6 10.4-10.4 18.6-21.8 26.3-34.9z"/><path class="st0" d="M145.3 5.1c-12.2 33.9-24 73.7-32.1 109-7.6 33-15.9 69.9-5 101.8 18.5 54.1 81.3 76.7 101.5 130.1 6.5 17.1 8.1 39.1 9.2 57.8 1.7 30 2.1 60 .6 90-.6 11.6-.5 23.1-1.5 34.6-.9 10.8-.2 21-6.1 30.5-.1.1-19.4 1.9-23.3 2.6-8.5 1.5-43.1 6.3-51.1 10.9-1.2.7-2.4 1.4-3.1 2.5-1.1 1.6-1 3.8-.9 5.8.1 2.4.3 4.9 1.8 6.7 1 1.1 2.4 1.8 3.7 2.4 9.3 4 29.6 8.7 47.1 9.6 9.6.5 41.7.7 63.5 1.1 21.3.4 61.8-2.8 75.3-12.9 2.2-5.5.4-9.6 0-11.2-1.7-1.6-12-11.4-48.3-16-5.1-.7-10.2-.9-15.3-1.1-4.9-.1-15.2.3-15.4.1-.2-.1-5.7-8.8-7.7-23.7-3-22.4-2.1-45.5-2.3-68.2-.7-67.1 3.5-131.9 48.3-169.5 23.6-19.8 51-46.2 65.3-77.2 13.3-28.7 5.7-60.1-.9-90.7-9.2-42.5-24.3-83.9-32.1-126.1-.1-.3-.3-.5-.6-.5C230.7 7.6 144 4.6 145.3 5.1z"/><path d="M310.7 12.3s0 .2.1.5c0 .4.1.9.3 1.6.3 1.4.7 3.5 1.4 6.1 1.3 5.3 3.5 13.1 6.3 23s6.2 21.9 10.1 35.7c1 3.4 1.9 7 2.9 10.7.5 1.8.9 3.7 1.4 5.7.4 1.9.8 3.8 1.2 5.8 1.7 7.8 3.5 16.1 5.4 24.7 1.9 8.6 3.9 17.6 6.1 26.8.5 2.3 1.2 4.6 1.7 7s1 4.8 1.3 7.3c.6 4.9.7 10 .6 15.1-.2 5.1-.5 10.2-1.2 15.4-.8 5.2-1.9 10.4-3.5 15.5s-3.6 10.2-6.1 15.1c-1.2 2.4-2.6 4.9-4 7.2s-2.9 4.7-4.4 7c-6 9.3-12.9 18.3-21 26.4-8.1 8-16.8 15.5-25.3 23.3s-16.8 15.9-24 25c-1.8 2.3-3.7 4.6-5.8 6.8-1.1 1.1-2.2 2.1-3.5 3l-.9.6-1 .6c-.7.4-1.4.8-2.1 1.1-2.8 1.4-5.7 2.2-8.7 2.8-1.5.3-2.9.6-4.4.8l-2.2.3-1.1.1-.5.1h-.7c-3 .1-6.1-.1-9.1-.7-1.5-.3-3-.7-4.5-1.3-.7-.3-1.5-.7-2.2-1.2-.6-.4-1.2-.8-1.8-1.3-4.8-3.7-8.7-8.2-12.7-12.4-8.1-8.5-16.1-16.9-24.1-25.2-8-8.4-15.9-16.6-23.8-24.8l-2.9-3.1c-1-1-1.9-2-3-2.9-2-1.9-4.2-3.8-6.1-5.9-3.7-4.2-7.3-8.6-10.4-13.2-6.3-9.1-11.3-19.1-14.4-29.4-.4-1.3-.7-2.6-1.1-3.9l-.9-3.9-.4-1.9-.3-2c-.2-1.3-.4-2.6-.5-3.9-.5-5.2-.6-10.4-.6-15.5.1-5.1.3-10.1.5-14.9 0-1.2.1-2.4.1-3.7.1-1.3.3-2.6.5-3.7.4-2.4.9-4.7 1.4-7.1 2-9.3 4.1-18.2 6.1-26.8 4.1-17.1 8.1-32.8 11.8-46.6 3.7-13.8 7-25.9 9.9-35.7 2.9-9.9 5.3-17.6 7-22.8.9-2.6 1.5-4.6 2-6 .5-1.3.7-2 .7-2s-.2.7-.7 2.1c-.4 1.4-1.1 3.4-1.9 6-1.6 5.3-3.9 13-6.6 22.9-5.5 19.8-12.7 48.3-20.7 82.6-2 8.6-4 17.5-5.9 26.8-.5 2.3-.9 4.7-1.3 7-.1.6-.2 1.2-.3 1.7 0 .3-.1.6-.1.9l-.1.9c0 1.2-.1 2.4-.1 3.7-.1 4.9-.3 9.9-.3 14.9s.1 10.1.7 15.2c.1 1.3.3 2.5.5 3.8l.3 1.9.4 1.9c.3 1.2.6 2.5.9 3.8.3 1.3.7 2.5 1.1 3.8 3.1 10 8 19.7 14.2 28.6 3.1 4.5 6.5 8.8 10.2 12.9 1.8 2 3.9 3.8 6 5.7 1 1 2.1 2 3.1 3l2.9 3.1c7.9 8.2 15.8 16.4 23.8 24.8 8 8.3 16.1 16.7 24.2 25.1 4.1 4.2 7.9 8.7 12.4 12.1.5.4 1.1.8 1.7 1.2.5.3 1.1.6 1.7.9 1.2.5 2.5.9 3.9 1.1 2.7.5 5.6.7 8.4.6h.5l.5-.1 1.1-.1 2.2-.3c1.4-.2 2.9-.5 4.3-.7 2.8-.6 5.5-1.4 8-2.6.6-.3 1.2-.6 1.8-1l.9-.5.9-.6c1.1-.8 2.2-1.7 3.1-2.7 2-2 3.8-4.2 5.6-6.5 7.3-9.3 15.8-17.5 24.4-25.2 8.6-7.8 17.3-15.2 25.3-23.2 8-7.9 14.8-16.7 20.8-25.9 1.5-2.3 2.9-4.6 4.3-6.9s2.7-4.7 3.9-7c1.2-2.4 2.3-4.8 3.3-7.2 1-2.5 1.9-4.9 2.7-7.4 1.6-5 2.8-10 3.5-15.1.4-2.5.7-5 .9-7.6.2-2.5.4-5.1.5-7.6.2-5 .1-9.9-.4-14.7-.3-2.4-.7-4.8-1.2-7.1s-1.1-4.7-1.6-7c-2.1-9.3-4-18.2-5.9-26.9-1.8-8.6-3.6-16.9-5.2-24.8-.4-2-.8-3.9-1.2-5.8-.4-1.9-.8-3.8-1.3-5.6-.9-3.7-1.8-7.3-2.7-10.7-3.7-13.8-7-25.9-9.6-35.8-2.7-9.9-4.6-17.8-5.9-23.1-.6-2.7-1-4.8-1.3-6.2-.1-.7-.2-1.2-.2-1.6.1-.6 0-.8 0-.8z"/><path d="M110.6 163.9s.9.2 2.6.7c1.7.4 4.2 1 7.4 1.6s7.1 1.2 11.6 1.6 9.6.6 15.2.6c11.2-.1 24.2-.2 38.2-.3h43.7c7.5 0 14.9.1 22.2.1 7.3.1 14.6.1 21.5.2 7 .1 13.7.2 20.1.3 6.4.1 12.4.1 18 0s10.7-.3 15.2-.7c4.5-.3 8.4-.8 11.7-1.2 1.6-.2 3-.4 4.3-.6s2.3-.4 3.2-.5c1.7-.3 2.6-.5 2.6-.5s-.9.2-2.6.7c-.8.2-1.9.5-3.1.7-.6.1-1.3.3-2 .4s-1.5.3-2.3.4c-6.4 1.2-15.7 2.5-26.9 3.1-5.6.3-11.7.5-18.1.5-6.4.1-13.2.1-20.1.1h-43.7c-7.5 0-14.9-.1-22.2-.1-7.3-.1-14.6-.1-21.5-.2-7-.1-13.7-.2-20.1-.3-6.4-.1-12.5-.2-18.1-.4-5.6-.2-10.8-.6-15.3-1.2s-8.4-1.4-11.6-2.2c-3.2-.7-5.6-1.5-7.3-2s-2.6-.8-2.6-.8zm105.1 398.5v-.3h.1c-.1.6.2 1.1.7 1.4.4.3 1 .5 1.5.6.6.1 1.2.2 1.8.2.6.1 1.2.1 1.8.2 2.4.2 4.8.3 7.2.3l3.6.1 3.6.1c1.2 0 2.3 0 3.4-.3s2.2-.9 3.1-1.6c-.6 1.1-1.6 1.9-2.8 2.5-1.2.6-2.5.8-3.7 1-1.3.1-2.5.2-3.7.2-1.2.1-2.5.1-3.7.1s-2.5-.1-3.7-.2c-1.2-.1-2.5-.3-3.7-.6-.6-.1-1.2-.3-1.8-.4l-1.8-.6c-.7-.2-1.2-.6-1.7-1.1-.2-.3-.4-.6-.5-.9-.1-.3 0-.7.1-1l.2-.4-.1.4.1.3zm-73.2 18s.1.1.3.4c.2.3.5.7.9 1.2.9 1 2.4 2.2 4.6 3.2 1.1.5 2.4.9 3.8 1.1 1.4.2 3 .4 4.7.7 3.4.4 7.2.9 11.4 1.4 4.2.5 8.7 1 13.5 1.5 2.4.2 4.9.5 7.4.7 2.5.1 5.1.3 7.7.5 10.5.6 21.7 1.3 32.9 2 2.8.2 5.6.5 8.3.5 2.8 0 5.6 0 8.3-.1 2.8-.1 5.5-.1 8.2-.3 1.3-.1 2.7-.1 4-.2 1.3-.1 2.6-.3 3.9-.4 10.5-1.2 20.2-2.2 28.6-3.1 4.2-.5 8-1 11.3-1.7s6.1-1.7 8.3-2.8c2.2-1.1 3.8-2.1 4.9-2.9 1-.8 1.6-1.3 1.6-1.3s-.5.5-1.5 1.4c-1 .8-2.6 2-4.8 3.2-2.2 1.2-5 2.3-8.3 3.2s-7.2 1.5-11.4 2.1c-8.4 1.1-18.1 2.5-28.5 3.8-1.3.2-2.6.3-4 .5-1.4.1-2.7.2-4.1.3-2.7.1-5.5.2-8.2.3-2.8.1-5.6.1-8.4.1-2.9 0-5.6-.3-8.5-.4-11.2-.8-22.4-1.5-32.9-2.3-2.6-.2-5.2-.4-7.7-.6-2.6-.2-5-.5-7.4-.8-4.8-.6-9.3-1.2-13.5-1.8s-8-1.2-11.4-1.8c-1.7-.3-3.3-.6-4.7-.9-1.5-.3-2.8-.8-3.9-1.3-2.3-1.1-3.7-2.5-4.5-3.5-.4-.5-.7-.9-.9-1.2.1-.6 0-.7 0-.7z"/></svg>