<?xml version="1.0" encoding="utf-8"?>
<!-- Generator: Adobe Illustrator 19.2.0, SVG Export Plug-In . SVG Version: 6.00 Build 0)  -->
<svg version="1.1" id="Layer_1" xmlns="http://www.w3.org/2000/svg" xmlns:xlink="http://www.w3.org/1999/xlink" x="0px" y="0px"
	 viewBox="0 0 700 700" style="enable-background:new 0 0 700 700;" xml:space="preserve">
<style type="text/css">
	.st0{fill:none;}
	.st1{fill:none;stroke:#000000;stroke-width:5;stroke-miterlimit:10;}
	.st2{opacity:0.9;fill:url(#SVGID_1_);}
	.st3{fill:url(#SVGID_2_);}
	.st4{fill:#FFFFFF;}
</style>
<rect x="0" y="0" class="st0" width="700" height="700"/>
<path class="st1" d="M6708.6-568.1c0.3,38.5,0.2,82.4-5.7,120.5c-2.3,14.7-3.7,31.7-10.6,44.9c-9.4,17.9-18.6,35.9-34,49.5
	c-5.5,4.9-11.5,9.2-17.9,12.8c-4.2,2.3-15.3,5.1-15.9,10.8c-0.4,3.6,3.8,5.7,6.9,7.6c6.9,4.3,10.9,12.3,11.6,20.4
	c1.5,15.4-5.6,30.7-18.9,38.8c-0.8,0.5-1.6,1-1.9,1.8c-0.7,2.1,2.1,3.4,4.2,3.8c12.1,2.1,24,5,35.7,8.7c7.7,2.4,24.3,10.6,12,18.5
	c-7.7,4.9-17,6.2-26,7.3c-24.7,3.1-49.7,6.2-74.5,3.9c-5.6-0.5-11.2-1.4-16.8-2.2c-7.5-1.1-15-2.2-22.5-3.3
	c-5.3-0.8-11.8-2.7-12.7-7.9c-1.7-10.2,16.6-15.1,23.6-17.2c4.9-1.5,36.5-4.6,35.6-9.3c-0.5-2.4-2.8-3.9-4.8-5.4
	c-8.9-6.4-15-16.4-16.6-27.2c-1.6-10.8,1.3-22.2,7.9-30.9c2.2-2.9,4.9-6,4.4-9.6c-0.2-1.5-1-2.9-2-4.1c-5.1-6.7-15.9-9.5-22.8-14.7
	c-7.9-6-15.2-12.8-21.6-20.4c-12.5-14.5-22.1-31.5-27.6-49.9c-5.2-17.2-6.9-35.3-8.2-53.2c-2.3-31-3.6-62-3.8-93.1
	c20.2-2.4,42-1.8,62.4-1.4C6600.9-567.5,6708.6-570.2,6708.6-568.1z"/>
<g>
	<path d="M6582-253.2c0,0,0,0.2,0,0.5c0,0.3,0,0.8,0,1.4c0,0.6,0.1,1.3,0.6,1.9c0.4,0.6,1.2,0.8,2.2,0.8c2.1-0.1,4.5-0.2,7.1-0.2
		c1.3,0,2.7-0.1,4-0.1c1.4-0.1,2.8-0.1,4.1-0.2c1.4-0.1,2.8-0.1,4.1-0.2c1.4-0.1,2.7-0.1,4-0.2c2.6-0.1,5-0.2,7.1-0.3
		c2-0.1,3.7-0.6,4.6-1.3c0.4-0.4,0.7-0.8,0.8-1.1c0.1-0.3,0.2-0.5,0.2-0.5s0,0.2,0,0.5c-0.1,0.3-0.2,0.8-0.6,1.3
		c-0.4,0.5-1.1,1-1.9,1.4c-0.8,0.4-1.8,0.7-2.8,0.8c-2.1,0.4-4.5,0.7-7.1,0.9c-1.3,0.1-2.7,0.3-4,0.4c-1.4,0.1-2.8,0.2-4.2,0.2
		c-1.4,0-2.8,0.1-4.2,0.1c-1.4,0-2.7,0-4.1,0c-2.6-0.1-5.1-0.2-7.2-0.4c-0.5-0.1-1.1-0.1-1.6-0.4c-0.5-0.3-0.9-0.7-1.1-1.1
		c-0.4-0.9-0.4-1.7-0.3-2.3c0.1-0.6,0.2-1.1,0.3-1.4C6581.9-253,6582-253.2,6582-253.2z"/>
</g>
<g>
	<path d="M6581.6-337.8c0,0,0.6,0.2,1.6,0.5c0.5,0.2,1.2,0.3,1.9,0.5c0.7,0.2,1.6,0.4,2.4,0.5c0.9,0.2,1.9,0.3,2.9,0.5
		c1,0.1,2.1,0.2,3.3,0.3c1.1,0.1,2.3,0.1,3.5,0.2c1.2,0,2.4,0,3.6,0c1.2,0,2.5,0,3.7-0.1c1.2,0,2.4-0.1,3.6-0.1
		c2.3-0.1,4.5-0.1,6.3-0.3c1.8-0.2,3.2-0.6,4.1-1.2c0.4-0.3,0.8-0.6,1-0.8c0.2-0.2,0.3-0.3,0.3-0.3s-0.1,0.1-0.2,0.4
		c-0.2,0.3-0.4,0.6-0.8,1c-0.8,0.8-2.3,1.6-4.2,2c-0.9,0.2-2,0.4-3,0.5c-1.1,0.1-2.2,0.3-3.3,0.4c-1.2,0.1-2.4,0.2-3.6,0.3
		c-1.2,0.1-2.5,0.1-3.7,0.2c-1.3,0-2.5,0-3.7-0.1c-0.6,0-1.2-0.1-1.8-0.1c-0.6-0.1-1.2-0.1-1.8-0.2c-1.2-0.1-2.3-0.4-3.4-0.6
		c-0.5-0.1-1-0.3-1.5-0.4c-0.5-0.2-1-0.3-1.4-0.4c-1.8-0.6-3.2-1.3-4.2-1.8C6582.2-337.5,6581.6-337.8,6581.6-337.8z"/>
</g>
<g>
	<path d="M6531.5-235.7c0,0,0.1,0.1,0.3,0.3c0.2,0.2,0.5,0.4,1,0.6c0.9,0.5,2.3,1,4.2,1.4c1.9,0.4,4.2,0.7,6.8,1.1
		c2.6,0.4,5.6,0.7,8.9,1.1c3.3,0.3,6.8,0.7,10.6,1c3.7,0.3,7.7,0.5,11.8,0.7c8.2,0.3,17,0.5,25.7,0.6c4.4,0.1,8.8,0.1,13.1,0.2
		c4.3,0,8.5,0.1,12.6,0c4.1-0.1,8-0.4,11.7-0.8c3.7-0.5,7.2-1.1,10.4-1.7c6.4-1.4,11.6-3,15.2-4.3c1.8-0.7,3.2-1.2,4.2-1.6
		c1-0.4,1.5-0.6,1.5-0.6s-0.5,0.2-1.4,0.7c-0.9,0.4-2.3,1.1-4.1,1.8c-3.5,1.5-8.7,3.5-15.1,5.1c-6.4,1.6-14.1,2.9-22.3,3.2
		c-4.1,0.2-8.4,0.2-12.7,0.2c-4.3,0-8.7-0.1-13.1-0.1c-4.4-0.1-8.8-0.2-13.1-0.3c-4.3-0.1-8.6-0.4-12.7-0.6c-4.1-0.3-8.1-0.6-11.8-1
		c-3.8-0.4-7.3-0.8-10.6-1.3c-1.6-0.3-3.2-0.5-4.7-0.7c-1.5-0.3-2.9-0.5-4.2-0.8c-2.6-0.5-4.9-1-6.8-1.5c-1.9-0.5-3.3-1.1-4.1-1.7
		c-0.4-0.3-0.7-0.5-0.9-0.7C6531.6-235.6,6531.5-235.7,6531.5-235.7z"/>
</g>
<linearGradient id="SVGID_1_" gradientUnits="userSpaceOnUse" x1="6498.813" y1="-446.2358" x2="6704.6909" y2="-446.2358">
	<stop  offset="1.785714e-02" style="stop-color:#801FE3"/>
	<stop  offset="1" style="stop-color:#B7A7FF"/>
</linearGradient>
<path class="st2" d="M6498.8-539.9c1.4,24.4,2.7,48.8,4.1,73.2c0.4,7.9,0.9,15.9,2.2,23.7c1.8,11.1,5.4,21.8,8.9,32.5
	c3,9.1,6,18.2,11.1,26.3c17.8,28.1,51.5,32.7,81.9,31.3c10.6-0.5,21.3-1.5,31.5-4.7c66.9-21.3,65.2-117,66.1-172.7
	c0-2.6,0.1-5.1,0.1-7.7C6636-535.8,6567.2-534,6498.8-539.9z"/>
<g>
	<path d="M6493.7-559.6c0,0,0.6,8.1,1.5,22.2c0.5,7.1,1,15.6,1.7,25.5c0.6,9.8,1.4,20.9,2.1,33.1c0.4,6.1,0.7,12.4,1.3,18.9
		c0.5,6.5,1.4,13.2,3,19.9c1.6,6.7,3.7,13.5,6,20.4c2.4,6.9,4.5,14,7.5,20.9c0.8,1.7,1.5,3.4,2.4,5.1c0.9,1.6,1.8,3.3,2.8,4.8
		c1.1,1.6,2.2,3.1,3.4,4.7c1.2,1.4,2.5,2.8,3.7,4.3c5.3,5.5,11.7,10,18.8,13.2c7.1,3.3,14.8,5.4,22.6,6.6c7.9,1.3,15.9,1.7,23.9,1.7
		c8-0.1,16.1-0.4,24-1.5c3.9-0.5,7.9-1.2,11.7-2.2c1-0.3,1.9-0.5,2.8-0.8l0.7-0.2c0.1,0,0,0,0.1,0l0.2-0.1l0.4-0.1l1.4-0.5l2.8-1
		c0.5-0.2,0.9-0.3,1.4-0.5l1.3-0.6c7.1-3.1,13.7-7.4,19.4-12.5c5.7-5.1,10.5-11.1,14.4-17.5c4-6.3,7.1-13.1,9.7-19.8
		c2.6-6.8,4.6-13.6,6.3-20.3c3.2-13.5,5-26.5,6.2-38.5c1.1-12.1,1.7-23.2,2-33c0.3-9.9,0.5-18.4,0.7-25.5
		c0.2-14.2,0.4-22.2,0.4-22.2s0,2,0.1,5.8c0,3.8,0.1,9.4,0.2,16.4c0,7.1,0,15.7-0.2,25.5c-0.1,9.9-0.5,21-1.5,33.1
		c-1,12.1-2.6,25.2-5.7,38.9c-1.6,6.8-3.6,13.7-6.1,20.6c-2.5,6.9-5.7,13.8-9.8,20.3c-4,6.5-9,12.7-14.8,18.1
		c-5.9,5.4-12.7,9.8-20.2,13.1l-1.4,0.6c-0.5,0.2-0.9,0.4-1.4,0.5l-2.8,1l-1.4,0.5l-0.4,0.1l-0.2,0.1l-0.2,0.1l-0.7,0.2
		c-1,0.3-2,0.6-2.9,0.8c-3.9,1-8,1.8-12,2.4c-8.1,1.1-16.2,1.5-24.4,1.6c-8.2,0-16.3-0.5-24.4-1.8c-8-1.3-16-3.5-23.3-7
		c-7.4-3.4-14.1-8.1-19.6-13.9c-1.3-1.5-2.6-3.1-3.9-4.6c-1.1-1.6-2.2-3.2-3.3-4.7c-2.2-3.4-3.9-6.8-5.4-10.4
		c-3-7.1-5.2-14.2-7.5-21.2c-2.2-7-4.3-13.9-5.8-20.7c-1.6-6.9-2.4-13.6-2.8-20.2c-0.5-6.6-0.7-12.9-1-18.9
		c-0.6-12.1-1.1-23.2-1.6-33.1c-0.5-9.9-0.8-18.4-1.2-25.5C6494-551.6,6493.7-559.6,6493.7-559.6z"/>
</g>
<g>
	<path d="M6494.1-544.2c0,0,0.8,0,2.4,0.1c1.6,0.1,3.8,0.2,6.7,0.3c2.9,0.2,6.4,0.3,10.5,0.5c4,0.2,8.6,0.3,13.6,0.5
		c5,0.2,10.4,0.3,16.1,0.5c5.7,0.2,11.7,0.2,17.9,0.4c6.2,0.1,12.6,0.1,19.2,0.2c6.5,0.1,13.2,0,19.8,0.1c6.6,0,13.3,0,19.8-0.1
		c6.5-0.1,13-0.1,19.2-0.2c12.5-0.1,24.1-0.2,34-0.3c10-0.1,18.3-0.1,24.1-0.1c2.9,0,5.2,0,6.7,0c1.6,0,2.4,0,2.4,0
		s-0.8,0.1-2.4,0.2c-1.6,0.1-3.8,0.2-6.7,0.4c-5.8,0.3-14.1,0.8-24.1,1.3c-10,0.5-21.6,0.9-34,1.3c-6.2,0.1-12.7,0.4-19.2,0.4
		c-6.5,0.1-13.2,0.1-19.8,0.2c-6.6,0-13.3,0-19.8-0.2c-6.5-0.1-13-0.3-19.2-0.4c-6.2-0.2-12.3-0.4-18-0.8c-2.9-0.2-5.6-0.3-8.3-0.5
		c-2.7-0.2-5.3-0.4-7.8-0.5c-2.5-0.2-4.9-0.3-7.1-0.5c-2.3-0.2-4.4-0.4-6.4-0.6c-4-0.4-7.6-0.7-10.4-1c-2.9-0.3-5.2-0.6-6.7-0.7
		C6494.9-544.1,6494.1-544.2,6494.1-544.2z"/>
</g>
<g>
	<path class="st1" d="M454.8,98.3c-4.6,69.4,7.5,116,15.5,174.3c7.5,55,8.5,111-19.9,160.6c-9,15.8-15.3,23-32,42.9
		c-9.7,11.5-21.1,20.3-30.6,31.9c-4.3,5.3-7.5,11.3-9.9,17.7c-10.5,26.9-7.6,48.8-6.3,80.9c0.9,24,19.7,47.1,42.3,55.4
		c12.2,4.5,24.2,10.2,37.1,11.3c7,0.6,7.5,6.1,5.6,9.9c-1.2,2.3-4,3.2-6.5,3.8c-42.3,10.6-84.2,14-127.8,12.6
		c-24.8-0.8-70-5.2-79.8-13.4c-3.4-2.8-3.8-6.7-0.6-9.7c1.9-1.9,6.8-1.7,9.4-2.1c26.7-4,54.3-14,68.7-36.8
		c12.1-19.3,10.6-40.4,8.9-66.5c-1.3-20.2-2.8-46.5-17.2-62.2c-5.1-5.5-42.3-44-51.5-61.1c-14.9-27.6-27.4-56.9-32.5-87.8
		c-14.2-87.1,32.5-175.2,20.5-262.6C315.1,88.7,387.9,90.1,454.8,98.3z"/>
	<g>
		<path d="M303.3,663.2c0,0,1.3,0.4,3.7,1.3c0.6,0.2,1.2,0.5,1.9,0.7c0.7,0.2,1.5,0.4,2.3,0.7c0.8,0.2,1.7,0.5,2.6,0.8
			c0.9,0.2,1.9,0.5,2.9,0.8c1,0.3,2.1,0.6,3.2,0.8c1.1,0.2,2.2,0.5,3.4,0.7c0.6,0.1,1.2,0.3,1.8,0.4c0.6,0.1,1.2,0.2,1.8,0.3
			c1.2,0.2,2.5,0.4,3.8,0.6c2.6,0.3,5.3,0.7,8,0.8c2.7,0.3,5.5,0.3,8.3,0.3c2.8-0.1,5.6,0,8.3-0.3c2.7-0.1,5.4-0.5,8-0.7
			c1.3-0.2,2.6-0.4,3.8-0.6c0.6-0.1,1.2-0.2,1.8-0.3c0.6-0.1,1.2-0.2,1.8-0.3c1.2-0.2,2.3-0.5,3.4-0.7c1.1-0.2,2.2-0.5,3.2-0.8
			c1-0.3,2-0.5,2.9-0.7c0.9-0.3,1.8-0.5,2.6-0.8c0.8-0.2,1.6-0.5,2.3-0.7c0.7-0.2,1.3-0.5,1.9-0.7c2.3-0.8,3.7-1.2,3.7-1.2
			s-1.3,0.6-3.5,1.6c-0.6,0.2-1.2,0.5-1.9,0.8c-0.7,0.3-1.4,0.5-2.2,0.9c-0.8,0.3-1.7,0.6-2.6,1c-0.9,0.3-1.9,0.6-2.9,0.9
			c-1,0.3-2.1,0.7-3.2,1c-1.1,0.3-2.3,0.6-3.4,0.8c-0.6,0.1-1.2,0.3-1.8,0.4c-0.6,0.1-1.2,0.2-1.9,0.4c-1.3,0.2-2.5,0.5-3.8,0.7
			c-2.6,0.3-5.3,0.8-8.1,0.9c-2.8,0.3-5.6,0.3-8.4,0.3c-2.8-0.1-5.7-0.1-8.4-0.4c-2.8-0.2-5.5-0.6-8.1-1c-1.3-0.2-2.6-0.5-3.8-0.7
			c-0.6-0.1-1.2-0.3-1.9-0.4c-0.6-0.1-1.2-0.3-1.8-0.4c-1.2-0.3-2.3-0.6-3.4-0.9c-1.1-0.3-2.1-0.7-3.2-1c-1-0.3-2-0.6-2.9-0.9
			c-0.9-0.4-1.8-0.7-2.6-1c-0.8-0.3-1.5-0.6-2.2-0.9c-0.7-0.3-1.3-0.6-1.9-0.8C304.6,663.8,303.3,663.2,303.3,663.2z"/>
	</g>
	<g>
		<path d="M329,637.2c0,0,0.7,0.1,1.9,0.3c1.2,0.2,2.9,0.5,5,0.7c1,0.1,2.2,0.2,3.3,0.4c1.2,0.1,2.4,0.2,3.7,0.3
			c1.3,0.1,2.6,0.1,4,0.2c1.4,0.1,2.7,0,4.1,0.1c1.4,0,2.8,0,4.1-0.1c1.4-0.1,2.7-0.1,4-0.2c1.3-0.1,2.5-0.2,3.7-0.4
			c1.2-0.1,2.3-0.3,3.3-0.4c2.1-0.3,3.8-0.6,5-0.8c1.2-0.2,1.9-0.3,1.9-0.3s-0.6,0.3-1.8,0.7c-0.6,0.2-1.3,0.5-2.1,0.7
			c-0.8,0.3-1.7,0.5-2.8,0.8c-1,0.3-2.1,0.5-3.3,0.8c-1.2,0.3-2.5,0.4-3.8,0.6c-1.3,0.1-2.7,0.3-4.1,0.4c-1.4,0.1-2.8,0.1-4.2,0.2
			c-1.4,0-2.8,0-4.2-0.1c-1.4,0-2.8-0.2-4.1-0.4c-1.3-0.2-2.6-0.3-3.8-0.6c-1.2-0.2-2.3-0.5-3.3-0.7c-1-0.2-2-0.5-2.8-0.8
			c-0.8-0.2-1.5-0.5-2.1-0.7C329.6,637.5,329,637.2,329,637.2z"/>
	</g>
	<g>
		<path d="M249.6,678.5c0,0,0.7,0.3,2.1,0.8c1.4,0.6,3.5,1.1,6.1,1.9c1.3,0.3,2.8,0.7,4.4,1.1c1.6,0.3,3.4,0.7,5.3,1.1
			c1.9,0.3,3.9,0.7,6,1.1c2.1,0.3,4.3,0.7,6.7,1.1c4.7,0.7,9.7,1.4,15.1,2.1c5.4,0.7,11,1.3,16.9,1.9c5.8,0.6,11.9,1.2,18.1,1.5
			c6.2,0.2,12.4,0.2,18.7,0.1c6.3-0.1,12.5-0.4,18.7-0.8c6.2-0.4,12.2-0.9,18.1-1.4c5.9-0.6,11.5-1.1,16.9-1.8
			c5.4-0.6,10.4-1.3,15.1-2.1c2.3-0.4,4.6-0.7,6.7-1.1c2.1-0.3,4.1-0.7,6-1c3.8-0.7,7.1-1.3,9.7-1.8c2.7-0.5,4.8-1,6.3-1.3
			c1.4-0.3,2.2-0.5,2.2-0.5s-0.8,0.2-2.2,0.6c-1.4,0.4-3.5,0.9-6.2,1.6c-2.7,0.6-5.9,1.4-9.7,2.2c-3.8,0.8-8,1.7-12.7,2.5
			c-4.7,0.8-9.7,1.6-15.1,2.4c-5.4,0.8-11,1.5-16.9,2.1c-5.9,0.6-12,1.1-18.1,1.6c-6.2,0.4-12.5,0.8-18.8,1
			c-6.3,0.1-12.6,0.1-18.8-0.2c-6.2-0.4-12.3-1-18.2-1.7c-11.7-1.3-22.6-3-31.9-4.6c-2.3-0.4-4.6-0.8-6.7-1.2
			c-2.1-0.5-4.1-0.9-6-1.3c-1.9-0.4-3.6-0.9-5.2-1.3c-1.6-0.4-3.1-0.9-4.4-1.2c-1.3-0.4-2.5-0.8-3.5-1.1c-1-0.3-1.9-0.7-2.5-1
			C250.3,678.9,249.6,678.5,249.6,678.5z"/>
	</g>
	<linearGradient id="SVGID_2_" gradientUnits="userSpaceOnUse" x1="351.869" y1="184.8069" x2="351.869" y2="501.6228">
		<stop  offset="0" style="stop-color:#FFB920"/>
		<stop  offset="1" style="stop-color:#FF6B00"/>
	</linearGradient>
	<path class="st3" d="M300.6,479.1c8.8,9.3,19,18,31.4,20.9c22.4,5.2,48.4-2.2,66.4-16.5c49.6-39.4,72.8-110.2,69.7-171.8
		c-1.4-28.4-4.6-55.7-9.1-83.8c-2.1-13-3.8-26-5.3-39c-66.1-10.6-134.4,2.6-201.2-1.1l-0.2,0c-6.6,34.8-13.8,69.8-16.3,105
		c-3.5,49.5,3.9,97.5,29.6,140C276.3,450.4,286.6,464.3,300.6,479.1z"/>
	<path class="st4" d="M452.3,180.8c-6.6-2.9-19.5-4.7-28.4-5.3c-6.5-0.4-13.2-0.1-19.4-0.9c-4-0.5-7.6-1.5-11.4-2.3
		c-9.1-1.8-19.2-2.3-28.9-1.5c-9.7,0.8-19.2,3-29.1,2.5c-5.2-0.3-10.2-1.3-15.5-1.4c-14.5-0.3-25.6,6-39.6,7.8
		c-4.4,0.5-8.9,0.6-13.3,1.2c-4.4,0.5-11.4,1.6-13.4,3.6c0.1,1.6-0.1,3-0.4,4.6c4.3,0.8,8.8,1.6,13.1,1.1c1.3-0.2,2.7-0.5,4-0.6
		c1.6-0.1,3.2,0.1,4.8,0.2c8.7,0.7,17.4,0.2,26-0.4c0.9-0.1,1.7-0.1,2.6-0.2c8.9-0.6,17.4-0.1,26.3-1.1c2.2-0.2,4.4-0.5,6.6-0.7
		c3.8-0.2,7.6,0,11.4,0.2c3.1,0.2,6.1,0.4,9.2,0.5c14.4,0.9,28.4-1.6,42.8-1.3c3.5,0.1,7.2-0.4,10.7-0.2c14.4,1,28.8,1.9,43.1,3.5
		c-0.3-2.2-0.4-4.4-0.7-6.6C452.7,182.6,452.2,181.6,452.3,180.8z"/>
	<g>
		<path d="M258.6,103.9c0,0,0.1,0.9,0.4,2.6c0.2,1.7,0.5,4.3,0.5,7.6c0.1,3.4-0.1,7.5-0.4,12.4c-0.3,4.9-0.9,10.4-1.3,16.7
			c-0.2,3.1-0.4,6.4-0.8,9.9c-0.4,3.4-1,7-1.6,10.8c-1.2,7.4-2.6,15.5-4.2,24.1c-3.1,17.2-6.9,36.5-10.4,57.7
			c-1.7,10.6-3.4,21.6-4.7,33.1c-1.3,11.5-2.3,23.4-2.5,35.6c-0.2,12.2,0.2,24.9,1.7,37.6c0.3,3.2,0.9,6.4,1.3,9.6
			c0.5,3.2,1.1,6.4,1.7,9.6c0.7,3.2,1.4,6.4,2.1,9.6c0.4,1.6,0.8,3.2,1.3,4.8c0.4,1.6,0.8,3.2,1.3,4.8c3.8,12.8,8.8,25.4,15.2,37.6
			c3.2,6,6.8,12,10.5,17.8c3.8,5.8,7.7,11.6,12,17.2c4.2,5.6,8.8,11,13.5,16.2c4.8,5.2,9.6,10.4,15.1,14.8c5.4,4.4,11.5,8.1,18.1,10
			c0.8,0.2,1.7,0.5,2.5,0.6l2.6,0.5c0.9,0.2,1.7,0.3,2.6,0.4l2.6,0.3c3.5,0.2,7,0.4,10.5,0.1c14-0.8,27.8-5.4,39.7-12.9
			c2.9-1.9,5.8-3.9,8.5-6.2c2.8-2.2,5.4-4.6,7.9-7c5.1-4.8,9.9-10,14.3-15.4c8.8-10.9,16.3-22.7,22.3-35c6.1-12.3,10.9-25,14.5-37.9
			c7.2-25.7,9.9-51.7,8.6-76.2c-1.2-24.5-3.7-47.7-6.8-68.9c-1.5-10.6-3.3-20.8-4.5-30.5c-1.3-9.7-2.3-18.9-3.1-27.6
			c-1.6-17.4-2.5-32.6-3-45.1c-0.5-12.5-0.6-22.4-0.7-29.1c0-6.7,0-10.3,0-10.3s0.1,3.6,0.2,10.3c0.1,6.7,0.5,16.5,1.1,29
			c0.6,12.5,1.7,27.7,3.5,45c0.9,8.7,2,17.9,3.4,27.6c0.7,4.8,1.4,9.8,2.3,14.9c0.8,5.1,1.7,10.3,2.5,15.6c3.2,21.2,5.9,44.4,7.3,69
			c0.8,12.3,0.5,25.1-0.8,38c-1.4,12.9-3.8,26-7.5,39c-3.6,13-8.5,25.9-14.6,38.4c-6.1,12.5-13.7,24.5-22.6,35.5
			c-4.5,5.5-9.3,10.8-14.5,15.7c-2.6,2.4-5.3,4.9-8.1,7.1c-2.7,2.3-5.7,4.5-8.7,6.4c-6.1,3.9-12.8,7-19.7,9.3
			c-6.9,2.3-14.1,3.7-21.4,4.1c-3.6,0.3-7.3,0.1-10.9-0.2l-2.8-0.3c-0.9-0.1-1.8-0.2-2.7-0.4l-2.6-0.5c-1-0.2-1.8-0.5-2.7-0.7
			c-7.2-2.1-13.5-6-19.1-10.6c-5.6-4.6-10.6-9.8-15.4-15.1c-4.8-5.3-9.3-10.8-13.6-16.4c-4.3-5.6-8.3-11.5-12.1-17.4
			c-3.8-5.9-7.3-11.9-10.6-18.1c-6.5-12.3-11.6-25.1-15.4-38.1c-3.8-13-6.3-26-7.7-38.9c-1.4-12.9-1.8-25.6-1.4-38
			c0.3-12.3,1.4-24.3,2.8-35.8c1.4-11.5,3.1-22.6,4.9-33.2c3.6-21.2,7.7-40.5,11-57.6c1.7-8.6,3.1-16.6,4.5-24
			c0.7-3.7,1.3-7.3,1.7-10.7c0.5-3.4,0.7-6.7,0.9-9.8c0.5-6.3,1.2-11.8,1.6-16.6c0.4-4.8,0.6-9,0.6-12.3c0-3.4-0.2-5.9-0.4-7.6
			C258.7,104.7,258.6,103.9,258.6,103.9z"/>
	</g>
</g>
</svg>
