<svg id="Layer_1" xmlns="http://www.w3.org/2000/svg" viewBox="0 0 705 705"><style>.st0,.st1{fill:none}.st1{stroke:#000;stroke-width:5;stroke-miterlimit:10}.st2{fill:url(#SVGID_1_)}.st3{fill:#fff}</style><path class="st0" d="M122.5 0h460v705h-460V0z"/><path class="st1" d="M457.3 100.4c-4.6 69.4 7.5 116 15.5 174.3 7.5 55 8.5 111-19.9 160.6-9 15.8-15.3 23-32 42.9-9.7 11.5-21.1 20.3-30.6 31.9-4.3 5.3-7.5 11.3-9.9 17.7-10.5 26.9-7.6 48.8-6.3 80.9.9 24 19.7 47.1 42.3 55.4 12.2 4.5 24.2 10.2 37.1 11.3 7 .6 7.5 6.1 5.6 9.9-1.2 2.3-4 3.2-6.5 3.8-42.3 10.6-84.2 14-127.8 12.6-24.8-.8-70-5.2-79.8-13.4-3.4-2.8-3.8-6.7-.6-9.7 1.9-1.9 6.8-1.7 9.4-2.1 26.7-4 54.3-14 68.7-36.8 12.1-19.3 10.6-40.4 8.9-66.5-1.3-20.2-2.8-46.5-17.2-62.2-5.1-5.5-42.3-44-51.5-61.1-14.9-27.6-27.4-56.9-32.5-87.8C216 275 262.7 186.9 250.7 99.5c66.9-8.7 139.7-7.3 206.6.9z"/><path d="M305.8 665.3s1.3.4 3.7 1.3c.6.2 1.2.5 1.9.7.7.2 1.5.4 2.3.7.8.2 1.7.5 2.6.8.9.2 1.9.5 2.9.8s2.1.6 3.2.8 2.2.5 3.4.7c.6.1 1.2.3 1.8.4l1.8.3c1.2.2 2.5.4 3.8.6 2.6.3 5.3.7 8 .8 2.7.3 5.5.3 8.3.3 2.8-.1 5.6 0 8.3-.3 2.7-.1 5.4-.5 8-.7 1.3-.2 2.6-.4 3.8-.6l1.8-.3 1.8-.3c1.2-.2 2.3-.5 3.4-.7s2.2-.5 3.2-.8 2-.5 2.9-.7c.9-.3 1.8-.5 2.6-.8.8-.2 1.6-.5 2.3-.7.7-.2 1.3-.5 1.9-.7 2.3-.8 3.7-1.2 3.7-1.2s-1.3.6-3.5 1.6c-.6.2-1.2.5-1.9.8-.7.3-1.4.5-2.2.9-.8.3-1.7.6-2.6 1-.9.3-1.9.6-2.9.9-1 .3-2.1.7-3.2 1s-2.3.6-3.4.8c-.6.1-1.2.3-1.8.4-.6.1-1.2.2-1.9.4-1.3.2-2.5.5-3.8.7-2.6.3-5.3.8-8.1.9-2.8.3-5.6.3-8.4.3-2.8-.1-5.7-.1-8.4-.4-2.8-.2-5.5-.6-8.1-1-1.3-.2-2.6-.5-3.8-.7-.6-.1-1.2-.3-1.9-.4-.6-.1-1.2-.3-1.8-.4-1.2-.3-2.3-.6-3.4-.9-1.1-.3-2.1-.7-3.2-1-1-.3-2-.6-2.9-.9-.9-.4-1.8-.7-2.6-1-.8-.3-1.5-.6-2.2-.9-.7-.3-1.3-.6-1.9-.8-2.2-1.1-3.5-1.7-3.5-1.7zm25.7-26s.7.1 1.9.3c1.2.2 2.9.5 5 .7 1 .1 2.2.2 3.3.4 1.2.1 2.4.2 3.7.3 1.3.1 2.6.1 4 .2s2.7 0 4.1.1c1.4 0 2.8 0 4.1-.1 1.4-.1 2.7-.1 4-.2 1.3-.1 2.5-.2 3.7-.4 1.2-.1 2.3-.3 3.3-.4 2.1-.3 3.8-.6 5-.8s1.9-.3 1.9-.3-.6.3-1.8.7c-.6.2-1.3.5-2.1.7-.8.3-1.7.5-2.8.8-1 .3-2.1.5-3.3.8-1.2.3-2.5.4-3.8.6-1.3.1-2.7.3-4.1.4-1.4.1-2.8.1-4.2.2-1.4 0-2.8 0-4.2-.1-1.4 0-2.8-.2-4.1-.4-1.3-.2-2.6-.3-3.8-.6-1.2-.2-2.3-.5-3.3-.7s-2-.5-2.8-.8c-.8-.2-1.5-.5-2.1-.7-1-.4-1.6-.7-1.6-.7zm-79.4 41.3s.7.3 2.1.8c1.4.6 3.5 1.1 6.1 1.9 1.3.3 2.8.7 4.4 1.1 1.6.3 3.4.7 5.3 1.1 1.9.3 3.9.7 6 1.1 2.1.3 4.3.7 6.7 1.1 4.7.7 9.7 1.4 15.1 2.1 5.4.7 11 1.3 16.9 1.9 5.8.6 11.9 1.2 18.1 1.5 6.2.2 12.4.2 18.7.1 6.3-.1 12.5-.4 18.7-.8 6.2-.4 12.2-.9 18.1-1.4 5.9-.6 11.5-1.1 16.9-1.8 5.4-.6 10.4-1.3 15.1-2.1 2.3-.4 4.6-.7 6.7-1.1 2.1-.3 4.1-.7 6-1 3.8-.7 7.1-1.3 9.7-1.8 2.7-.5 4.8-1 6.3-1.3 1.4-.3 2.2-.5 2.2-.5s-.8.2-2.2.6c-1.4.4-3.5.9-6.2 1.6-2.7.6-5.9 1.4-9.7 2.2-3.8.8-8 1.7-12.7 2.5s-9.7 1.6-15.1 2.4c-5.4.8-11 1.5-16.9 2.1s-12 1.1-18.1 1.6c-6.2.4-12.5.8-18.8 1-6.3.1-12.6.1-18.8-.2-6.2-.4-12.3-1-18.2-1.7-11.7-1.3-22.6-3-31.9-4.6-2.3-.4-4.6-.8-6.7-1.2-2.1-.5-4.1-.9-6-1.3-1.9-.4-3.6-.9-5.2-1.3s-3.1-.9-4.4-1.2c-1.3-.4-2.5-.8-3.5-1.1s-1.9-.7-2.5-1c-1.5-.9-2.2-1.3-2.2-1.3z"/><linearGradient id="SVGID_1_" gradientUnits="userSpaceOnUse" x1="354.28" y1="520.212" x2="354.28" y2="203.236" gradientTransform="matrix(1 0 0 -1 0 707)"><stop offset="0" stop-color="#ffb920"/><stop offset="1" stop-color="#ff6b00"/></linearGradient><path class="st2" d="M303.1 481.2c8.8 9.3 19 18 31.4 20.9 22.4 5.2 48.4-2.2 66.4-16.5 49.6-39.4 72.8-110.2 69.7-171.8-1.4-28.4-4.6-55.7-9.1-83.8-2.1-13-3.8-26-5.3-39-66.1-10.6-134.4 2.6-201.2-1.1h-.2c-6.6 34.8-13.8 69.8-16.3 105-3.5 49.5 3.9 97.5 29.6 140 10.7 17.6 21 31.5 35 46.3z"/><path class="st3" d="M454.8 182.9c-6.6-2.9-19.5-4.7-28.4-5.3-6.5-.4-13.2-.1-19.4-.9-4-.5-7.6-1.5-11.4-2.3-9.1-1.8-19.2-2.3-28.9-1.5-9.7.8-19.2 3-29.1 2.5-5.2-.3-10.2-1.3-15.5-1.4-14.5-.3-25.6 6-39.6 7.8-4.4.5-8.9.6-13.3 1.2-4.4.5-11.4 1.6-13.4 3.6.1 1.6-.1 3-.4 4.6 4.3.8 8.8 1.6 13.1 1.1 1.3-.2 2.7-.5 4-.6 1.6-.1 3.2.1 4.8.2 8.7.7 17.4.2 26-.4.9-.1 1.7-.1 2.6-.2 8.9-.6 17.4-.1 26.3-1.1 2.2-.2 4.4-.5 6.6-.7 3.8-.2 7.6 0 11.4.2 3.1.2 6.1.4 9.2.5 14.4.9 28.4-1.6 42.8-1.3 3.5.1 7.2-.4 10.7-.2 14.4 1 28.8 1.9 43.1 3.5-.3-2.2-.4-4.4-.7-6.6-.1-.9-.6-1.9-.5-2.7z"/><path d="M242.9 393c-3.8-13-6.3-26-7.7-38.9s-1.8-25.6-1.4-38c.3-12.3 1.4-24.3 2.8-35.8 1.4-11.5 3.1-22.6 4.9-33.2 3.6-21.2 7.7-40.5 11-57.6 1.7-8.6 3.1-16.6 4.5-24 .7-3.7 1.3-7.3 1.7-10.7.5-3.4.7-6.7.9-9.8.5-6.3 1.2-11.8 1.6-16.6.4-4.8.6-9 .6-12.3 0-3.4-.2-5.9-.4-7.6-.2-1.7-.3-2.5-.3-2.5s.1.9.4 2.6c.2 1.7.5 4.3.5 7.6.1 3.4-.1 7.5-.4 12.4-.3 4.9-.9 10.4-1.3 16.7-.2 3.1-.4 6.4-.8 9.9-.4 3.4-1 7-1.6 10.8-1.2 7.4-2.6 15.5-4.2 24.1-3.1 17.2-6.9 36.5-10.4 57.7-1.7 10.6-3.4 21.6-4.7 33.1s-2.3 23.4-2.5 35.6.2 24.9 1.7 37.6c.3 3.2.9 6.4 1.3 9.6.5 3.2 1.1 6.4 1.7 9.6l4.7 19.2c3.8 12.8 8.8 25.4 15.2 37.6 3.2 6 6.8 12 10.5 17.8 3.8 5.8 7.7 11.6 12 17.2 4.2 5.6 8.8 11 13.5 16.2 4.8 5.2 9.6 10.4 15.1 14.8 5.4 4.4 11.5 8.1 18.1 10 .8.2 1.7.5 2.5.6l2.6.5c.9.2 1.7.3 2.6.4l2.6.3c3.5.2 7 .4 10.5.1 14-.8 27.8-5.4 39.7-12.9 2.9-1.9 5.8-3.9 8.5-6.2 2.8-2.2 5.4-4.6 7.9-7 5.1-4.8 9.9-10 14.3-15.4 8.8-10.9 16.3-22.7 22.3-35 6.1-12.3 10.9-25 14.5-37.9 7.2-25.7 9.9-51.7 8.6-76.2-1.2-24.5-3.7-47.7-6.8-68.9-1.5-10.6-3.3-20.8-4.5-30.5-1.3-9.7-2.3-18.9-3.1-27.6-1.6-17.4-2.5-32.6-3-45.1s-.6-22.4-.7-29.1v-10.3s.1 3.6.2 10.3c.1 6.7.5 16.5 1.1 29s1.7 27.7 3.5 45c.9 8.7 2 17.9 3.4 27.6.7 4.8 1.4 9.8 2.3 14.9.8 5.1 1.7 10.3 2.5 15.6 3.2 21.2 5.9 44.4 7.3 69 .8 12.3.5 25.1-.8 38-1.4 12.9-3.8 26-7.5 39-3.6 13-8.5 25.9-14.6 38.4s-13.7 24.5-22.6 35.5c-4.5 5.5-9.3 10.8-14.5 15.7-2.6 2.4-5.3 4.9-8.1 7.1-2.7 2.3-5.7 4.5-8.7 6.4-6.1 3.9-12.8 7-19.7 9.3-6.9 2.3-14.1 3.7-21.4 4.1-3.6.3-7.3.1-10.9-.2l-2.8-.3c-.9-.1-1.8-.2-2.7-.4l-2.6-.5c-1-.2-1.8-.5-2.7-.7-7.2-2.1-13.5-6-19.1-10.6s-10.6-9.8-15.4-15.1c-4.8-5.3-9.3-10.8-13.6-16.4-4.3-5.6-8.3-11.5-12.1-17.4-3.8-5.9-7.3-11.9-10.6-18.1-6.5-12.3-11.6-25.1-15.4-38.1z"/><path d="M454.7 182s-.2-.1-.6-.2c-.4-.1-.9-.3-1.6-.5-1.4-.4-3.5-.9-6.2-1.4-2.7-.5-6-.9-9.8-1.3-3.8-.4-8.1-.8-12.8-.9-4.7-.2-9.8 0-15.3-.6l-4.2-.6c-1.4-.3-2.8-.6-4.2-1-2.8-.7-5.5-1.5-8.4-2-5.8-1.1-11.9-1.7-18-1.5-3.1.1-6.2.3-9.3.7-3.1.4-6.2.9-9.3 1.4-3.1.5-6.3 1-9.4 1.3-3.2.3-6.4.4-9.5.2-3.2-.2-6.2-.6-9.2-.9-1.5-.1-3-.2-4.4-.2-1.4 0-3 0-4.4.1-2.8.2-5.6.6-8.4 1.2-2.7.6-5.4 1.3-8 2-5.2 1.4-10.2 2.8-15 3.6-2.4.4-4.7.7-6.9.8-2.2.1-4.2.2-6.1.3-1.9.1-3.7.2-5.3.4-1.6.1-3.1.3-4.5.5-2.7.4-4.8.8-6.2 1.3a5.287 5.287 0 0 0-1.9 1l-.2-.2s.2-.1.4-.4c.3-.2.8-.6 1.5-.9 1.4-.7 3.5-1.4 6.2-2 1.4-.3 2.9-.6 4.5-.9 1.6-.3 3.5-.6 5.4-.8 1.9-.2 3.9-.4 6.1-.7 2.1-.2 4.3-.6 6.6-1.1 4.6-.9 9.4-2.5 14.6-4 5.2-1.5 10.9-3 17-3.3 1.6-.1 3-.1 4.6 0 1.5.1 3.1.2 4.6.4 3.1.3 6.1.8 9.1 1.1 3 .3 6.1.3 9.2.2 3.1-.1 6.2-.4 9.4-.7 6.3-.7 12.6-1.3 18.8-1.4 6.2-.1 12.4.2 18.3.9 3 .3 5.9.9 8.6 1.5 2.8.5 5.4 1 8.1 1.2 5.3.4 10.4.4 15.2.6 4.8.3 9.1.8 12.9 1.5 3.8.6 7.1 1.4 9.8 2.1 2.7.7 4.7 1.5 6.1 2 .7.3 1.2.5 1.5.7.3.2.5.3.5.3l.1.2zm-199.3 11.1s.8.1 2.2.3c1.5.2 3.6.4 6.3.5 1.4 0 2.8-.1 4.4-.3 1.5-.3 3.4-.8 5.4-.8 1 0 2 .1 3 .1s2.1.1 3.1.1c2.1.1 4.4.1 6.7 0 4.7 0 9.7-.4 15.1-.7 5.4-.4 11.2-.3 17-.2 2.9 0 5.9.1 8.9 0l4.5-.3c1.5-.2 3.1-.3 4.6-.5.8-.1 1.5-.2 2.3-.2.8 0 1.6-.1 2.3-.1h4.7c3.1.1 6.3.2 9.4.2 6.3.2 12.5.1 18.6-.3 6.1-.4 12.2-1 18.1-1.3 3-.2 5.9-.3 8.8-.2h4.1c1.4 0 2.8-.1 4.1-.1 1.4 0 2.8 0 4.1.1l3.9.3c2.5.2 5 .4 7.3.6 4.7.4 9 .9 12.8 1.3 3.8.5 7.1.8 9.9 1.2 5.5.8 8.6 1.3 8.6 1.3v.3s-3.1-.2-8.6-.4c-5.5-.3-13.3-.6-22.7-1.1-2.4-.1-4.8-.2-7.3-.4-1.3-.1-2.6-.1-3.9-.2-1.3-.1-2.5-.1-3.8 0-1.3.1-2.7.1-4.1.2-1.4.1-2.9 0-4.3 0-2.8 0-5.7 0-8.6.1-5.8.2-11.9.7-18.1.9-3.1.1-6.3.1-9.4 0-3.2-.1-6.3-.4-9.4-.7-6.3-.4-12.5-1.3-18.6-.7-3.1.3-6.1.7-9.2 1l-9 .6c-2.9.2-5.8.3-8.6.5l-4.2.3c-1.4.1-2.7.3-4.1.4-5.4.4-10.5.6-15.3.6-2.4 0-4.7-.1-6.8-.3-2.2-.1-4.2-.4-6-.5-1.8-.1-3.4.3-5.2.4-1.7.1-3.3.1-4.7-.1-2.8-.3-4.9-.8-6.3-1.1-1.4-.4-2.2-.6-2.2-.6l.2-.2z"/></svg>