<?xml version="1.0" encoding="utf-8"?>
<!-- Generator: Adobe Illustrator 19.2.0, SVG Export Plug-In . SVG Version: 6.00 Build 0)  -->
<svg version="1.1" id="Layer_1" xmlns="http://www.w3.org/2000/svg" xmlns:xlink="http://www.w3.org/1999/xlink" x="0px" y="0px"
	 viewBox="0 0 460 618.4" style="enable-background:new 0 0 460 618.4;" xml:space="preserve">
<style type="text/css">
	.st0{fill:none;stroke:#000000;stroke-width:5;stroke-miterlimit:10;}
	.st1{fill:url(#SVGID_1_);}
	.st2{fill:#FFFFFF;}
</style>
<path class="st0" d="M334.8,13.8c-4.6,69.4,7.5,116,15.5,174.3c7.5,55,8.5,111-19.9,160.6c-9,15.8-15.3,23-32,42.9
	c-9.7,11.5-21.1,20.3-30.6,31.9c-4.3,5.3-7.5,11.3-9.9,17.7c-10.5,26.9-7.6,48.8-6.3,80.9c0.9,24,19.7,47.1,42.3,55.4
	c12.2,4.5,24.2,10.2,37.1,11.3c7,0.6,7.5,6.1,5.6,9.9c-1.2,2.3-4,3.2-6.5,3.8c-42.3,10.6-84.2,14-127.8,12.6
	c-24.8-0.8-70-5.2-79.8-13.4c-3.4-2.8-3.8-6.7-0.6-9.7c1.9-1.9,6.8-1.7,9.4-2.1c26.7-4,54.3-14,68.7-36.8
	c12.1-19.3,10.6-40.4,8.9-66.5c-1.3-20.2-2.8-46.5-17.2-62.2c-5.1-5.5-42.3-44-51.5-61.1c-14.9-27.6-27.4-56.9-32.5-87.8
	c-14.2-87.1,32.5-175.2,20.5-262.6C195.1,4.2,267.9,5.6,334.8,13.8z"/>
<path d="M183.3,578.7c0,0,1.3,0.4,3.7,1.3c0.6,0.2,1.2,0.5,1.9,0.7c0.7,0.2,1.5,0.4,2.3,0.7c0.8,0.2,1.7,0.5,2.6,0.8
	c0.9,0.2,1.9,0.5,2.9,0.8s2.1,0.6,3.2,0.8s2.2,0.5,3.4,0.7c0.6,0.1,1.2,0.3,1.8,0.4l1.8,0.3c1.2,0.2,2.5,0.4,3.8,0.6
	c2.6,0.3,5.3,0.7,8,0.8c2.7,0.3,5.5,0.3,8.3,0.3c2.8-0.1,5.6,0,8.3-0.3c2.7-0.1,5.4-0.5,8-0.7c1.3-0.2,2.6-0.4,3.8-0.6l1.8-0.3
	l1.8-0.3c1.2-0.2,2.3-0.5,3.4-0.7s2.2-0.5,3.2-0.8s2-0.5,2.9-0.7c0.9-0.3,1.8-0.5,2.6-0.8c0.8-0.2,1.6-0.5,2.3-0.7
	c0.7-0.2,1.3-0.5,1.9-0.7c2.3-0.8,3.7-1.2,3.7-1.2s-1.3,0.6-3.5,1.6c-0.6,0.2-1.2,0.5-1.9,0.8c-0.7,0.3-1.4,0.5-2.2,0.9
	c-0.8,0.3-1.7,0.6-2.6,1c-0.9,0.3-1.9,0.6-2.9,0.9c-1,0.3-2.1,0.7-3.2,1s-2.3,0.6-3.4,0.8c-0.6,0.1-1.2,0.3-1.8,0.4
	c-0.6,0.1-1.2,0.2-1.9,0.4c-1.3,0.2-2.5,0.5-3.8,0.7c-2.6,0.3-5.3,0.8-8.1,0.9c-2.8,0.3-5.6,0.3-8.4,0.3c-2.8-0.1-5.7-0.1-8.4-0.4
	c-2.8-0.2-5.5-0.6-8.1-1c-1.3-0.2-2.6-0.5-3.8-0.7c-0.6-0.1-1.2-0.3-1.9-0.4c-0.6-0.1-1.2-0.3-1.8-0.4c-1.2-0.3-2.3-0.6-3.4-0.9
	c-1.1-0.3-2.1-0.7-3.2-1c-1-0.3-2-0.6-2.9-0.9c-0.9-0.4-1.8-0.7-2.6-1c-0.8-0.3-1.5-0.6-2.2-0.9c-0.7-0.3-1.3-0.6-1.9-0.8
	C184.6,579.3,183.3,578.7,183.3,578.7L183.3,578.7z M209,552.7c0,0,0.7,0.1,1.9,0.3c1.2,0.2,2.9,0.5,5,0.7c1,0.1,2.2,0.2,3.3,0.4
	c1.2,0.1,2.4,0.2,3.7,0.3c1.3,0.1,2.6,0.1,4,0.2s2.7,0,4.1,0.1c1.4,0,2.8,0,4.1-0.1c1.4-0.1,2.7-0.1,4-0.2c1.3-0.1,2.5-0.2,3.7-0.4
	c1.2-0.1,2.3-0.3,3.3-0.4c2.1-0.3,3.8-0.6,5-0.8s1.9-0.3,1.9-0.3s-0.6,0.3-1.8,0.7c-0.6,0.2-1.3,0.5-2.1,0.7
	c-0.8,0.3-1.7,0.5-2.8,0.8c-1,0.3-2.1,0.5-3.3,0.8c-1.2,0.3-2.5,0.4-3.8,0.6c-1.3,0.1-2.7,0.3-4.1,0.4c-1.4,0.1-2.8,0.1-4.2,0.2
	c-1.4,0-2.8,0-4.2-0.1c-1.4,0-2.8-0.2-4.1-0.4c-1.3-0.2-2.6-0.3-3.8-0.6c-1.2-0.2-2.3-0.5-3.3-0.7s-2-0.5-2.8-0.8
	c-0.8-0.2-1.5-0.5-2.1-0.7C209.6,553,209,552.7,209,552.7L209,552.7z M129.6,594c0,0,0.7,0.3,2.1,0.8c1.4,0.6,3.5,1.1,6.1,1.9
	c1.3,0.3,2.8,0.7,4.4,1.1c1.6,0.3,3.4,0.7,5.3,1.1c1.9,0.3,3.9,0.7,6,1.1c2.1,0.3,4.3,0.7,6.7,1.1c4.7,0.7,9.7,1.4,15.1,2.1
	c5.4,0.7,11,1.3,16.9,1.9c5.8,0.6,11.9,1.2,18.1,1.5c6.2,0.2,12.4,0.2,18.7,0.1c6.3-0.1,12.5-0.4,18.7-0.8
	c6.2-0.4,12.2-0.9,18.1-1.4c5.9-0.6,11.5-1.1,16.9-1.8c5.4-0.6,10.4-1.3,15.1-2.1c2.3-0.4,4.6-0.7,6.7-1.1c2.1-0.3,4.1-0.7,6-1
	c3.8-0.7,7.1-1.3,9.7-1.8c2.7-0.5,4.8-1,6.3-1.3c1.4-0.3,2.2-0.5,2.2-0.5s-0.8,0.2-2.2,0.6c-1.4,0.4-3.5,0.9-6.2,1.6
	c-2.7,0.6-5.9,1.4-9.7,2.2c-3.8,0.8-8,1.7-12.7,2.5s-9.7,1.6-15.1,2.4c-5.4,0.8-11,1.5-16.9,2.1s-12,1.1-18.1,1.6
	c-6.2,0.4-12.5,0.8-18.8,1c-6.3,0.1-12.6,0.1-18.8-0.2c-6.2-0.4-12.3-1-18.2-1.7c-11.7-1.3-22.6-3-31.9-4.6
	c-2.3-0.4-4.6-0.8-6.7-1.2c-2.1-0.5-4.1-0.9-6-1.3c-1.9-0.4-3.6-0.9-5.2-1.3s-3.1-0.9-4.4-1.2c-1.3-0.4-2.5-0.8-3.5-1.1
	s-1.9-0.7-2.5-1C130.3,594.4,129.6,594,129.6,594L129.6,594z"/>
<linearGradient id="SVGID_1_" gradientUnits="userSpaceOnUse" x1="231.7797" y1="939.6092" x2="231.7797" y2="622.6328" gradientTransform="matrix(1 0 0 -1 0 1039.7926)">
	<stop  offset="0" style="stop-color:#FFB920"/>
	<stop  offset="1" style="stop-color:#FF6B00"/>
</linearGradient>
<path class="st1" d="M180.6,394.6c8.8,9.3,19,18,31.4,20.9c22.4,5.2,48.4-2.2,66.4-16.5c49.6-39.4,72.8-110.2,69.7-171.8
	c-1.4-28.4-4.6-55.7-9.1-83.8c-2.1-13-3.8-26-5.3-39c-66.1-10.6-134.4,2.6-201.2-1.1h-0.2c-6.6,34.8-13.8,69.8-16.3,105
	c-3.5,49.5,3.9,97.5,29.6,140C156.3,365.9,166.6,379.8,180.6,394.6L180.6,394.6z"/>
<path class="st2" d="M332.3,96.3c-6.6-2.9-19.5-4.7-28.4-5.3c-6.5-0.4-13.2-0.1-19.4-0.9c-4-0.5-7.6-1.5-11.4-2.3
	c-9.1-1.8-19.2-2.3-28.9-1.5c-9.7,0.8-19.2,3-29.1,2.5c-5.2-0.3-10.2-1.3-15.5-1.4c-14.5-0.3-25.6,6-39.6,7.8
	c-4.4,0.5-8.9,0.6-13.3,1.2c-4.4,0.5-11.4,1.6-13.4,3.6c0.1,1.6-0.1,3-0.4,4.6c4.3,0.8,8.8,1.6,13.1,1.1c1.3-0.2,2.7-0.5,4-0.6
	c1.6-0.1,3.2,0.1,4.8,0.2c8.7,0.7,17.4,0.2,26-0.4c0.9-0.1,1.7-0.1,2.6-0.2c8.9-0.6,17.4-0.1,26.3-1.1c2.2-0.2,4.4-0.5,6.6-0.7
	c3.8-0.2,7.6,0,11.4,0.2c3.1,0.2,6.1,0.4,9.2,0.5c14.4,0.9,28.4-1.6,42.8-1.3c3.5,0.1,7.2-0.4,10.7-0.2c14.4,1,28.8,1.9,43.1,3.5
	c-0.3-2.2-0.4-4.4-0.7-6.6C332.7,98.1,332.2,97.1,332.3,96.3L332.3,96.3z"/>
<path d="M120.4,306.4c-3.8-13-6.3-26-7.7-38.9c-1.4-12.9-1.8-25.6-1.4-38c0.3-12.3,1.4-24.3,2.8-35.8c1.4-11.5,3.1-22.6,4.9-33.2
	c3.6-21.2,7.7-40.5,11-57.6c1.7-8.6,3.1-16.6,4.5-24c0.7-3.7,1.3-7.3,1.7-10.7c0.5-3.4,0.7-6.7,0.9-9.8c0.5-6.3,1.2-11.8,1.6-16.6
	s0.6-9,0.6-12.3c0-3.4-0.2-5.9-0.4-7.6c-0.2-1.7-0.3-2.5-0.3-2.5s0.1,0.9,0.4,2.6c0.2,1.7,0.5,4.3,0.5,7.6c0.1,3.4-0.1,7.5-0.4,12.4
	c-0.3,4.9-0.9,10.4-1.3,16.7c-0.2,3.1-0.4,6.4-0.8,9.9c-0.4,3.4-1,7-1.6,10.8c-1.2,7.4-2.6,15.5-4.2,24.1
	c-3.1,17.2-6.9,36.5-10.4,57.7c-1.7,10.6-3.4,21.6-4.7,33.1s-2.3,23.4-2.5,35.6s0.2,24.9,1.7,37.6c0.3,3.2,0.9,6.4,1.3,9.6
	c0.5,3.2,1.1,6.4,1.7,9.6l4.7,19.2c3.8,12.8,8.8,25.4,15.2,37.6c3.2,6,6.8,12,10.5,17.8c3.8,5.8,7.7,11.6,12,17.2
	c4.2,5.6,8.8,11,13.5,16.2c4.8,5.2,9.6,10.4,15.1,14.8c5.4,4.4,11.5,8.1,18.1,10c0.8,0.2,1.7,0.5,2.5,0.6l2.6,0.5
	c0.9,0.2,1.7,0.3,2.6,0.4l2.6,0.3c3.5,0.2,7,0.4,10.5,0.1c14-0.8,27.8-5.4,39.7-12.9c2.9-1.9,5.8-3.9,8.5-6.2c2.8-2.2,5.4-4.6,7.9-7
	c5.1-4.8,9.9-10,14.3-15.4c8.8-10.9,16.3-22.7,22.3-35c6.1-12.3,10.9-25,14.5-37.9c7.2-25.7,9.9-51.7,8.6-76.2
	c-1.2-24.5-3.7-47.7-6.8-68.9c-1.5-10.6-3.3-20.8-4.5-30.5c-1.3-9.7-2.3-18.9-3.1-27.6c-1.6-17.4-2.5-32.6-3-45.1
	s-0.6-22.4-0.7-29.1V19.3c0,0,0.1,3.6,0.2,10.3c0.1,6.7,0.5,16.5,1.1,29s1.7,27.7,3.5,45c0.9,8.7,2,17.9,3.4,27.6
	c0.7,4.8,1.4,9.8,2.3,14.9c0.8,5.1,1.7,10.3,2.5,15.6c3.2,21.2,5.9,44.4,7.3,69c0.8,12.3,0.5,25.1-0.8,38c-1.4,12.9-3.8,26-7.5,39
	c-3.6,13-8.5,25.9-14.6,38.4s-13.7,24.5-22.6,35.5c-4.5,5.5-9.3,10.8-14.5,15.7c-2.6,2.4-5.3,4.9-8.1,7.1c-2.7,2.3-5.7,4.5-8.7,6.4
	c-6.1,3.9-12.8,7-19.7,9.3c-6.9,2.3-14.1,3.7-21.4,4.1c-3.6,0.3-7.3,0.1-10.9-0.2l-2.8-0.3c-0.9-0.1-1.8-0.2-2.7-0.4l-2.6-0.5
	c-1-0.2-1.8-0.5-2.7-0.7c-7.2-2.1-13.5-6-19.1-10.6s-10.6-9.8-15.4-15.1c-4.8-5.3-9.3-10.8-13.6-16.4c-4.3-5.6-8.3-11.5-12.1-17.4
	c-3.8-5.9-7.3-11.9-10.6-18.1C129.3,332.2,124.2,319.4,120.4,306.4L120.4,306.4z"/>
<path d="M332.2,95.4c0,0-0.2-0.1-0.6-0.2c-0.4-0.1-0.9-0.3-1.6-0.5c-1.4-0.4-3.5-0.9-6.2-1.4s-6-0.9-9.8-1.3
	c-3.8-0.4-8.1-0.8-12.8-0.9c-4.7-0.2-9.8,0-15.3-0.6l-4.2-0.6c-1.4-0.3-2.8-0.6-4.2-1c-2.8-0.7-5.5-1.5-8.4-2
	c-5.8-1.1-11.9-1.7-18-1.5c-3.1,0.1-6.2,0.3-9.3,0.7c-3.1,0.4-6.2,0.9-9.3,1.4c-3.1,0.5-6.3,1-9.4,1.3c-3.2,0.3-6.4,0.4-9.5,0.2
	c-3.2-0.2-6.2-0.6-9.2-0.9c-1.5-0.1-3-0.2-4.4-0.2s-3,0-4.4,0.1c-2.8,0.2-5.6,0.6-8.4,1.2c-2.7,0.6-5.4,1.3-8,2
	c-5.2,1.4-10.2,2.8-15,3.6c-2.4,0.4-4.7,0.7-6.9,0.8c-2.2,0.1-4.2,0.2-6.1,0.3s-3.7,0.2-5.3,0.4c-1.6,0.1-3.1,0.3-4.5,0.5
	c-2.7,0.4-4.8,0.8-6.2,1.3c-0.7,0.2-1.3,0.5-1.9,1l-0.2-0.2c0,0,0.2-0.1,0.4-0.4c0.3-0.2,0.8-0.6,1.5-0.9c1.4-0.7,3.5-1.4,6.2-2
	c1.4-0.3,2.9-0.6,4.5-0.9c1.6-0.3,3.5-0.6,5.4-0.8s3.9-0.4,6.1-0.7c2.1-0.2,4.3-0.6,6.6-1.1c4.6-0.9,9.4-2.5,14.6-4s10.9-3,17-3.3
	c1.6-0.1,3-0.1,4.6,0c1.5,0.1,3.1,0.2,4.6,0.4c3.1,0.3,6.1,0.8,9.1,1.1s6.1,0.3,9.2,0.2s6.2-0.4,9.4-0.7c6.3-0.7,12.6-1.3,18.8-1.4
	c6.2-0.1,12.4,0.2,18.3,0.9c3,0.3,5.9,0.9,8.6,1.5c2.8,0.5,5.4,1,8.1,1.2c5.3,0.4,10.4,0.4,15.2,0.6c4.8,0.3,9.1,0.8,12.9,1.5
	c3.8,0.6,7.1,1.4,9.8,2.1c2.7,0.7,4.7,1.5,6.1,2c0.7,0.3,1.2,0.5,1.5,0.7s0.5,0.3,0.5,0.3L332.2,95.4L332.2,95.4z M132.9,106.5
	c0,0,0.8,0.1,2.2,0.3c1.5,0.2,3.6,0.4,6.3,0.5c1.4,0,2.8-0.1,4.4-0.3c1.5-0.3,3.4-0.8,5.4-0.8c1,0,2,0.1,3,0.1s2.1,0.1,3.1,0.1
	c2.1,0.1,4.4,0.1,6.7,0c4.7,0,9.7-0.4,15.1-0.7c5.4-0.4,11.2-0.3,17-0.2c2.9,0,5.9,0.1,8.9,0l4.5-0.3c1.5-0.2,3.1-0.3,4.6-0.5
	c0.8-0.1,1.5-0.2,2.3-0.2s1.6-0.1,2.3-0.1h4.7c3.1,0.1,6.3,0.2,9.4,0.2c6.3,0.2,12.5,0.1,18.6-0.3c6.1-0.4,12.2-1,18.1-1.3
	c3-0.2,5.9-0.3,8.8-0.2h4.1c1.4,0,2.8-0.1,4.1-0.1c1.4,0,2.8,0,4.1,0.1l3.9,0.3c2.5,0.2,5,0.4,7.3,0.6c4.7,0.4,9,0.9,12.8,1.3
	c3.8,0.5,7.1,0.8,9.9,1.2c5.5,0.8,8.6,1.3,8.6,1.3v0.3c0,0-3.1-0.2-8.6-0.4c-5.5-0.3-13.3-0.6-22.7-1.1c-2.4-0.1-4.8-0.2-7.3-0.4
	c-1.3-0.1-2.6-0.1-3.9-0.2c-1.3-0.1-2.5-0.1-3.8,0s-2.7,0.1-4.1,0.2c-1.4,0.1-2.9,0-4.3,0c-2.8,0-5.7,0-8.6,0.1
	c-5.8,0.2-11.9,0.7-18.1,0.9c-3.1,0.1-6.3,0.1-9.4,0c-3.2-0.1-6.3-0.4-9.4-0.7c-6.3-0.4-12.5-1.3-18.6-0.7c-3.1,0.3-6.1,0.7-9.2,1
	l-9,0.6c-2.9,0.2-5.8,0.3-8.6,0.5l-4.2,0.3c-1.4,0.1-2.7,0.3-4.1,0.4c-5.4,0.4-10.5,0.6-15.3,0.6c-2.4,0-4.7-0.1-6.8-0.3
	c-2.2-0.1-4.2-0.4-6-0.5s-3.4,0.3-5.2,0.4c-1.7,0.1-3.3,0.1-4.7-0.1c-2.8-0.3-4.9-0.8-6.3-1.1c-1.4-0.4-2.2-0.6-2.2-0.6L132.9,106.5
	L132.9,106.5z"/>
</svg>
