<svg id="Layer_1" xmlns="http://www.w3.org/2000/svg" viewBox="0 0 705 705"><style>.st0,.st1{fill:none}.st1{stroke:#000;stroke-width:5;stroke-miterlimit:10}.st2{opacity:.9;fill:url(#SVGID_1_);enable-background:new}.st3{fill:#231f20}.st4{fill:#f5f5f5}.st5{fill:url(#SVGID_2_)}</style><path class="st0" d="M119.4 0h460v705h-460V0z"/><path class="st1" d="M6711.1-565.6c.3 38.5.2 82.4-5.7 120.5-2.3 14.7-3.7 31.7-10.6 44.9-9.4 17.9-18.6 35.9-34 49.5-5.5 4.9-11.5 9.2-17.9 12.8-4.2 2.3-15.3 5.1-15.9 10.8-.4 3.6 3.8 5.7 6.9 7.6 6.9 4.3 10.9 12.3 11.6 20.4 1.5 15.4-5.6 30.7-18.9 38.8-.8.5-1.6 1-1.9 1.8-.7 2.1 2.1 3.4 4.2 3.8 12.1 2.1 24 5 35.7 8.7 7.7 2.4 24.3 10.6 12 18.5-7.7 4.9-17 6.2-26 7.3-24.7 3.1-49.7 6.2-74.5 3.9-5.6-.5-11.2-1.4-16.8-2.2l-22.5-3.3c-5.3-.8-11.8-2.7-12.7-7.9-1.7-10.2 16.6-15.1 23.6-17.2 4.9-1.5 36.5-4.6 35.6-9.3-.5-2.4-2.8-3.9-4.8-5.4-8.9-6.4-15-16.4-16.6-27.2-1.6-10.8 1.3-22.2 7.9-30.9 2.2-2.9 4.9-6 4.4-9.6-.2-1.5-1-2.9-2-4.1-5.1-6.7-15.9-9.5-22.8-14.7-7.9-6-15.2-12.8-21.6-20.4-12.5-14.5-22.1-31.5-27.6-49.9-5.2-17.2-6.9-35.3-8.2-53.2-2.3-31-3.6-62-3.8-93.1 20.2-2.4 42-1.8 62.4-1.4 52.8 1.1 160.5-1.6 160.5.5z"/><path d="M6584.5-250.7v1.9c0 .6.1 1.3.6 1.9.4.6 1.2.8 2.2.8 2.1-.1 4.5-.2 7.1-.2 1.3 0 2.7-.1 4-.1 1.4-.1 2.8-.1 4.1-.2 1.4-.1 2.8-.1 4.1-.2 1.4-.1 2.7-.1 4-.2 2.6-.1 5-.2 7.1-.3 2-.1 3.7-.6 4.6-1.3.4-.4.7-.8.8-1.1.1-.3.2-.5.2-.5v.5c-.1.3-.2.8-.6 1.3s-1.1 1-1.9 1.4-1.8.7-2.8.8c-2.1.4-4.5.7-7.1.9-1.3.1-2.7.3-4 .4-1.4.1-2.8.2-4.2.2-1.4 0-2.8.1-4.2.1h-4.1c-2.6-.1-5.1-.2-7.2-.4-.5-.1-1.1-.1-1.6-.4-.5-.3-.9-.7-1.1-1.1-.4-.9-.4-1.7-.3-2.3s.2-1.1.3-1.4c-.1-.3 0-.5 0-.5zm-.4-84.6s.6.2 1.6.5c.5.2 1.2.3 1.9.5s1.6.4 2.4.5c.9.2 1.9.3 2.9.5 1 .1 2.1.2 3.3.3 1.1.1 2.3.1 3.5.2h3.6c1.2 0 2.5 0 3.7-.1 1.2 0 2.4-.1 3.6-.1 2.3-.1 4.5-.1 6.3-.3 1.8-.2 3.2-.6 4.1-1.2.4-.3.8-.6 1-.8l.3-.3s-.1.1-.2.4c-.2.3-.4.6-.8 1-.8.8-2.3 1.6-4.2 2-.9.2-2 .4-3 .5-1.1.1-2.2.3-3.3.4l-3.6.3c-1.2.1-2.5.1-3.7.2-1.3 0-2.5 0-3.7-.1-.6 0-1.2-.1-1.8-.1-.6-.1-1.2-.1-1.8-.2-1.2-.1-2.3-.4-3.4-.6-.5-.1-1-.3-1.5-.4-.5-.2-1-.3-1.4-.4-1.8-.6-3.2-1.3-4.2-1.8-1-.6-1.6-.9-1.6-.9zM6534-233.2l.3.3c.2.2.5.4 1 .6.9.5 2.3 1 4.2 1.4 1.9.4 4.2.7 6.8 1.1 2.6.4 5.6.7 8.9 1.1 3.3.3 6.8.7 10.6 1 3.7.3 7.7.5 11.8.7 8.2.3 17 .5 25.7.6 4.4.1 8.8.1 13.1.2 4.3 0 8.5.1 12.6 0s8-.4 11.7-.8c3.7-.5 7.2-1.1 10.4-1.7 6.4-1.4 11.6-3 15.2-4.3 1.8-.7 3.2-1.2 4.2-1.6l1.5-.6s-.5.2-1.4.7c-.9.4-2.3 1.1-4.1 1.8-3.5 1.5-8.7 3.5-15.1 5.1s-14.1 2.9-22.3 3.2c-4.1.2-8.4.2-12.7.2-4.3 0-8.7-.1-13.1-.1-4.4-.1-8.8-.2-13.1-.3-4.3-.1-8.6-.4-12.7-.6-4.1-.3-8.1-.6-11.8-1-3.8-.4-7.3-.8-10.6-1.3-1.6-.3-3.2-.5-4.7-.7-1.5-.3-2.9-.5-4.2-.8-2.6-.5-4.9-1-6.8-1.5s-3.3-1.1-4.1-1.7c-.4-.3-.7-.5-.9-.7-.3-.2-.4-.3-.4-.3z"/><linearGradient id="SVGID_1_" gradientUnits="userSpaceOnUse" x1="6501.3" y1="-950.789" x2="6707.2" y2="-950.789" gradientTransform="translate(0 507)"><stop offset=".018" stop-color="#801fe3"/><stop offset="1" stop-color="#b7a7ff"/></linearGradient><path class="st2" d="M6501.3-537.4c1.4 24.4 2.7 48.8 4.1 73.2.4 7.9.9 15.9 2.2 23.7 1.8 11.1 5.4 21.8 8.9 32.5 3 9.1 6 18.2 11.1 26.3 17.8 28.1 51.5 32.7 81.9 31.3 10.6-.5 21.3-1.5 31.5-4.7 66.9-21.3 65.2-117 66.1-172.7 0-2.6.1-5.1.1-7.7-68.7 2.2-137.5 4-205.9-1.9z"/><path d="M6496.2-557.1s.6 8.1 1.5 22.2c.5 7.1 1 15.6 1.7 25.5.6 9.8 1.4 20.9 2.1 33.1.4 6.1.7 12.4 1.3 18.9.5 6.5 1.4 13.2 3 19.9 1.6 6.7 3.7 13.5 6 20.4 2.4 6.9 4.5 14 7.5 20.9.8 1.7 1.5 3.4 2.4 5.1.9 1.6 1.8 3.3 2.8 4.8 1.1 1.6 2.2 3.1 3.4 4.7 1.2 1.4 2.5 2.8 3.7 4.3 5.3 5.5 11.7 10 18.8 13.2 7.1 3.3 14.8 5.4 22.6 6.6 7.9 1.3 15.9 1.7 23.9 1.7 8-.1 16.1-.4 24-1.5 3.9-.5 7.9-1.2 11.7-2.2 1-.3 1.9-.5 2.8-.8l.7-.2h.1l.2-.1.4-.1 1.4-.5 2.8-1c.5-.2.9-.3 1.4-.5l1.3-.6c7.1-3.1 13.7-7.4 19.4-12.5 5.7-5.1 10.5-11.1 14.4-17.5 4-6.3 7.1-13.1 9.7-19.8 2.6-6.8 4.6-13.6 6.3-20.3 3.2-13.5 5-26.5 6.2-38.5 1.1-12.1 1.7-23.2 2-33 .3-9.9.5-18.4.7-25.5.2-14.2.4-22.2.4-22.2s0 2 .1 5.8c0 3.8.1 9.4.2 16.4 0 7.1 0 15.7-.2 25.5-.1 9.9-.5 21-1.5 33.1s-2.6 25.2-5.7 38.9c-1.6 6.8-3.6 13.7-6.1 20.6s-5.7 13.8-9.8 20.3c-4 6.5-9 12.7-14.8 18.1-5.9 5.4-12.7 9.8-20.2 13.1l-1.4.6c-.5.2-.9.4-1.4.5l-2.8 1-1.4.5-.4.1-.2.1-.2.1-.7.2c-1 .3-2 .6-2.9.8-3.9 1-8 1.8-12 2.4-8.1 1.1-16.2 1.5-24.4 1.6-8.2 0-16.3-.5-24.4-1.8-8-1.3-16-3.5-23.3-7-7.4-3.4-14.1-8.1-19.6-13.9-1.3-1.5-2.6-3.1-3.9-4.6-1.1-1.6-2.2-3.2-3.3-4.7-2.2-3.4-3.9-6.8-5.4-10.4-3-7.1-5.2-14.2-7.5-21.2-2.2-7-4.3-13.9-5.8-20.7-1.6-6.9-2.4-13.6-2.8-20.2-.5-6.6-.7-12.9-1-18.9-.6-12.1-1.1-23.2-1.6-33.1-.5-9.9-.8-18.4-1.2-25.5-.7-14.2-1-22.2-1-22.2z"/><path d="M6496.6-541.7s.8 0 2.4.1 3.8.2 6.7.3c2.9.2 6.4.3 10.5.5 4 .2 8.6.3 13.6.5s10.4.3 16.1.5 11.7.2 17.9.4c6.2.1 12.6.1 19.2.2 6.5.1 13.2 0 19.8.1 6.6 0 13.3 0 19.8-.1s13-.1 19.2-.2c12.5-.1 24.1-.2 34-.3 10-.1 18.3-.1 24.1-.1h9.1s-.8.1-2.4.2c-1.6.1-3.8.2-6.7.4-5.8.3-14.1.8-24.1 1.3s-21.6.9-34 1.3c-6.2.1-12.7.4-19.2.4-6.5.1-13.2.1-19.8.2-6.6 0-13.3 0-19.8-.2-6.5-.1-13-.3-19.2-.4-6.2-.2-12.3-.4-18-.8-2.9-.2-5.6-.3-8.3-.5-2.7-.2-5.3-.4-7.8-.5-2.5-.2-4.9-.3-7.1-.5-2.3-.2-4.4-.4-6.4-.6-4-.4-7.6-.7-10.4-1-2.9-.3-5.2-.6-6.7-.7-1.7-.4-2.5-.5-2.5-.5z"/><path class="st3" d="M300.9 661.1s.4.1 1.1.3c.7.2 1.7.4 3 .7 1.3.3 2.9.7 4.7 1 1.8.3 3.9.8 6.1 1.1 2.2.4 4.7.8 7.3 1.1 1.3.2 2.6.3 4 .5 1.4.1 2.8.3 4.2.5 1.4.1 2.9.2 4.3.4.7.1 1.5.1 2.2.2.7 0 1.5.1 2.2.1 1.5.1 3 .1 4.5.2s3 0 4.5.1c1.5 0 3 .1 4.5 0s3-.1 4.5-.2c.7 0 1.5-.1 2.2-.1.7 0 1.5 0 2.2-.1 1.5-.1 2.9-.2 4.3-.4 2.8-.2 5.6-.6 8.2-1 1.3-.2 2.6-.3 3.8-.5 1.2-.2 2.4-.5 3.5-.7 2.2-.5 4.3-.8 6.1-1.2 1.8-.5 3.4-.9 4.7-1.2 2.6-.7 4.1-1 4.1-1s-1.4.5-4 1.4c-1.3.4-2.8 1-4.6 1.6-1.8.5-3.8 1-6.1 1.6-1.1.3-2.3.6-3.5.9-1.2.2-2.5.4-3.8.7-1.3.2-2.6.5-4 .7-.3.1-.7.1-1 .2-.3 0-.7.1-1 .1-.7.1-1.4.2-2.1.2-2.9.3-5.8.7-8.8.8-1.5.1-3 .1-4.6.2H349c-1.5 0-3.1 0-4.6-.1-1.5-.1-3-.2-4.6-.3-.8 0-1.5-.1-2.3-.1-.7-.1-1.5-.2-2.2-.2-1.5-.2-2.9-.3-4.4-.5-2.9-.4-5.6-.8-8.2-1.3-1.3-.2-2.6-.5-3.8-.7-1.2-.2-2.4-.5-3.5-.8-2.2-.5-4.3-1.1-6.1-1.5-1.8-.5-3.4-1-4.6-1.4-1.3-.4-2.3-.8-2.9-1l-.9-.3z"/><path class="st4" d="M432.2 99.6c-.5 4.8 1.9-44.2-1.4-68.8-1.5-11.5-19.9-16.3-35.5-20.2-27.1-6.8-55.2-4.4-83-2.3-13.3 1-25.1 4.6-37.3 10.1-4.4 2-8.7 4.5-11.6 8.4-3.5 4.6-5.3 54.9-3 73.4 0 0 171.8-.8 171.8-.6z"/><linearGradient id="SVGID_2_" gradientUnits="userSpaceOnUse" x1="346.495" y1="539.075" x2="346.495" y2="98.63"><stop offset="0" stop-color="#ffc000"/><stop offset="1" stop-color="#ffe015"/></linearGradient><path class="st5" d="M260.8 100.4c.5 18.8 1.7 37.5 3.7 56.2 5.1 47.9 18.4 329.2 26.7 366.2.9 4.2 2.2 8.8 5.7 11.2 2.4 1.7 5.3 2 8.2 2.3 25.9 2.7 55.4 4 81.4 1.5 3.6-.3 7.4-.9 10.1-3.4 3-2.8 3.7-7.3 4.2-11.5 4.2-35.6 5.6-72.2 7.7-107.8 2.6-44.1 16.1-225.6 20.7-272.4 1.4-14.4 2.5-28.7 3.2-43.1-57.3-1.5-114.5-1.3-171.6.8z"/><path d="M265.2 49.2s-.1 1.1-.2 3.1c-.1 2.1-.3 5.1-.4 9.1-.3 8-.7 19.7-.5 34.6.2 14.9.9 33 2.8 53.6.3 2.6.5 5.2.8 7.9l.9 8.1c.6 5.5 1.1 11.1 1.5 16.9.9 11.6 1.8 23.8 2.6 36.5 3.3 50.9 7.1 110.4 11.2 174.1 2.1 31.8 4.3 64.7 7.3 98.1.7 8.3 1.6 16.7 2.6 25 .3 2.1.5 4.2.8 6.2l.5 3.1c.2 1 .4 2 .6 3.1l.3 1.5.4 1.5c.2 1 .5 2 .8 2.9.6 1.9 1.5 3.6 2.8 4.9 1.2 1.3 2.9 2 4.8 2.4 1.9.4 4 .5 6.2.8 4.2.4 8.4.8 12.7 1.1 8.5.6 16.9 1.1 25.4 1.3 8.5.2 17 .2 25.4-.1 4.2-.2 8.4-.4 12.7-.8 2.1-.2 4.2-.3 6.2-.7 2-.4 3.8-1 5.2-2.1.2-.1.4-.3.5-.4l.5-.5c.2-.3.5-.7.8-1.1.5-.8.9-1.6 1.2-2.6.6-1.8.9-3.9 1.2-5.9.5-4.2 1-8.4 1.4-12.6.8-8.4 1.6-16.7 2.2-25.1 1.3-16.7 2.2-33.3 3.1-49.7.9-16.4 1.9-32.6 3-48.5 2.2-31.8 4.6-62.6 6.8-91.8 2.3-29.2 4.5-56.7 6.5-82.2 2.1-25.4 4.1-48.8 6.1-69.4 2.1-20.6 3.4-38.7 4.1-53.5.7-14.9.8-26.6.9-34.5V51.3s0 1.1.1 3.1c0 2.1.1 5.1.1 9.1 0 8 0 19.7-.5 34.6-.5 14.9-1.6 33-3.5 53.6-.9 10.3-1.8 21.3-2.7 32.9-.9 11.6-1.8 23.8-2.8 36.5-3.9 50.9-8.1 110.3-12.5 174-1.1 15.9-2.1 32.1-2.9 48.5-.9 16.4-1.8 33-3 49.7-.6 8.4-1.3 16.8-2.1 25.2-.4 4.2-.9 8.4-1.4 12.6-.3 2.1-.6 4.3-1.3 6.5-.4 1.1-.8 2.2-1.5 3.2-.3.5-.7 1-1.1 1.5-.2.3-.4.4-.6.6-.3.3-.5.4-.7.6-1.9 1.5-4.3 2.3-6.5 2.7-2.2.4-4.4.6-6.5.7-4.3.4-8.5.6-12.8.8-8.5.3-17.1.4-25.6.2s-17.1-.7-25.6-1.4c-4.2-.3-8.5-.7-12.7-1.1-2.1-.2-4.2-.4-6.5-.8-1.1-.2-2.3-.6-3.3-1.1-.3-.1-.5-.3-.8-.5-.3-.2-.4-.3-.7-.5-.5-.4-1-.8-1.4-1.2-1.7-1.8-2.7-3.9-3.4-6-.4-1.1-.7-2.1-.9-3.2l-.4-1.6-.3-1.6c-.2-1.1-.4-2.1-.6-3.2l-.5-3.2c-.3-2.1-.6-4.2-.8-6.3-1-8.4-1.8-16.8-2.5-25.1-2.9-33.4-5-66.3-7.1-98.2-2-31.8-3.8-62.6-5.5-91.8-1.7-29.2-3.3-56.8-4.8-82.3-.8-12.7-1.6-24.9-2.4-36.5-.4-5.8-.8-11.4-1.4-16.9-.3-2.7-.5-5.4-.8-8.1-.2-2.7-.5-5.3-.7-7.9-1.7-20.7-2.2-38.8-2.2-53.7 0-14.9.4-26.6.8-34.6.2-4 .4-7 .5-9.1 0-1.7.1-2.8.1-2.8zm170-10.7s0-.2-.1-.5-.2-.8-.4-1.4c-.4-1.2-1.4-2.9-3-4.7-1.7-1.7-4.1-3.4-7.2-4.9-3-1.5-6.7-2.8-10.7-4-4-1.2-8.4-2.3-13.1-3.4l-.9-.2-.9-.2c-.6-.1-1.2-.3-1.8-.4-1.2-.2-2.4-.6-3.7-.8-1.2-.2-2.5-.4-3.7-.7-1.3-.2-2.5-.4-3.8-.6-10.3-1.4-21.5-1.8-32.7-1.6-5.6.1-11.2.4-16.7.7-5.5.3-10.9.7-16.2 1-5.3.3-10.2.7-14.9 1.6-4.7.9-9.1 2-13.1 3.2-4 1.3-7.6 2.6-10.8 3.8-3.2 1.2-5.9 2.5-7.9 3.8-2.1 1.3-3.6 2.5-4.5 3.4-.5.5-.8.8-1 1.1-.2.3-.3.4-.3.4s.1-.1.3-.4c.2-.3.5-.7.9-1.2.9-1 2.2-2.4 4.3-3.8 2-1.4 4.7-2.9 7.8-4.3 3.1-1.5 6.7-3 10.7-4.4 4-1.4 8.4-2.8 13.2-3.8 2.4-.5 4.9-.9 7.4-1.3 1.3-.2 2.6-.3 3.8-.4l3.9-.3c5.2-.4 10.7-.9 16.2-1.3s11.2-.6 16.8-.8c5.6-.1 11.3 0 16.9.3 5.6.3 11 .9 16.3 1.7l3.9.6c1.3.3 2.6.5 3.8.8 1.3.2 2.5.6 3.7.9.6.1 1.2.3 1.8.4l.9.2.9.2c4.7 1.2 9.1 2.5 13.1 3.9S422 24 425 25.7c3 1.7 5.5 3.6 7.1 5.5 1.7 1.9 2.4 3.8 2.8 5 .2.6.3 1.1.3 1.5v.8z"/><path class="st3" d="M263.9 108s2.7-.1 7.4-.4c2.4-.1 5.2-.2 8.5-.4s7-.3 11.1-.4c4.1-.1 8.5-.3 13.1-.3 4.7-.1 9.6-.1 14.6-.1 5.1 0 10.3-.1 15.6-.1 5.3-.1 10.7-.2 16.2-.2 5.4-.1 10.8-.1 16.2-.2h15.6c5.1 0 10 .1 14.6.2 4.7.1 9 .2 13.1.3 4.1.1 7.8.2 11.1.3 3.3.1 6.2.2 8.5.3 4.7.2 7.4.3 7.4.3v.1s-10.8-.1-27.1-.2c-16.2-.1-37.9-.3-59.5-.5-5.4 0-10.8-.1-16.2 0-5.3.1-10.6.2-15.6.3-5.1.1-10 .3-14.6.4-4.6.1-9 .2-13.1.3-16.1.3-26.9.4-26.9.3z"/><path class="st1" d="M444.2 37.6c1.1 24.7-1.5 86.2-3 108.6-1.7 25.4-36.8 467.7-36 509 .2 10.1 6.5 16.9 10.5 19.8 5.8 4.2 18.3 5.8 25.5 5.8 13.6-.1 13.7 10.8 11 14.6-1.7 2.4-4.7 3.5-7.5 4.2-14.4 3.7-25 1.4-39.9 1.7-14 .3-28 .4-42.1.5-28.3.2-56.7.3-84.9-.9-7.3-.3-15-.2-22.1-1.9-4.3-1-9.1-3-10.2-7.3-1.1-4.2 2.3-8.5 6.4-10.2s8.5-1.7 12.9-2.2c8.7-1 19.2-2.2 23.9-9.7 6.5-10.2 4.7-23.4 3.3-35.4-1.2-10.8-33.4-453.2-35-490.3-1.6-35.9-4.4-71.8-1.1-107.7 19.2 1.1 145.6-5.7 188.3 1.4z"/></svg>