<?xml version="1.0" encoding="utf-8"?>
<!-- Generator: Adobe Illustrator 19.2.0, SVG Export Plug-In . SVG Version: 6.00 Build 0)  -->
<svg version="1.1" id="Layer_1" xmlns="http://www.w3.org/2000/svg" xmlns:xlink="http://www.w3.org/1999/xlink" x="0px" y="0px"
	 viewBox="0 0 460 647" style="enable-background:new 0 0 460 647;" xml:space="preserve">
<style type="text/css">
	.st0{fill:none;stroke:#000000;stroke-width:5;stroke-miterlimit:10;}
	.st1{opacity:0.9;fill:url(#SVGID_1_);enable-background:new    ;}
	.st2{fill:#231F20;}
	.st3{fill:#F5F5F5;}
	.st4{fill:url(#SVGID_2_);}
</style>
<path class="st0" d="M6588.6-594.6c0.3,38.5,0.2,82.4-5.7,120.5c-2.3,14.7-3.7,31.7-10.6,44.9c-9.4,17.9-18.6,35.9-34,49.5
	c-5.5,4.9-11.5,9.2-17.9,12.8c-4.2,2.3-15.3,5.1-15.9,10.8c-0.4,3.6,3.8,5.7,6.9,7.6c6.9,4.3,10.9,12.3,11.6,20.4
	c1.5,15.4-5.6,30.7-18.9,38.8c-0.8,0.5-1.6,1-1.9,1.8c-0.7,2.1,2.1,3.4,4.2,3.8c12.1,2.1,24,5,35.7,8.7c7.7,2.4,24.3,10.6,12,18.5
	c-7.7,4.9-17,6.2-26,7.3c-24.7,3.1-49.7,6.2-74.5,3.9c-5.6-0.5-11.2-1.4-16.8-2.2l-22.5-3.3c-5.3-0.8-11.8-2.7-12.7-7.9
	c-1.7-10.2,16.6-15.1,23.6-17.2c4.9-1.5,36.5-4.6,35.6-9.3c-0.5-2.4-2.8-3.9-4.8-5.4c-8.9-6.4-15-16.4-16.6-27.2
	c-1.6-10.8,1.3-22.2,7.9-30.9c2.2-2.9,4.9-6,4.4-9.6c-0.2-1.5-1-2.9-2-4.1c-5.1-6.7-15.9-9.5-22.8-14.7c-7.9-6-15.2-12.8-21.6-20.4
	c-12.5-14.5-22.1-31.5-27.6-49.9c-5.2-17.2-6.9-35.3-8.2-53.2c-2.3-31-3.6-62-3.8-93.1c20.2-2.4,42-1.8,62.4-1.4
	C6480.9-594,6588.6-596.7,6588.6-594.6L6588.6-594.6z"/>
<path d="M6462-279.7v1.9c0,0.6,0.1,1.3,0.6,1.9c0.4,0.6,1.2,0.8,2.2,0.8c2.1-0.1,4.5-0.2,7.1-0.2c1.3,0,2.7-0.1,4-0.1
	c1.4-0.1,2.8-0.1,4.1-0.2c1.4-0.1,2.8-0.1,4.1-0.2c1.4-0.1,2.7-0.1,4-0.2c2.6-0.1,5-0.2,7.1-0.3c2-0.1,3.7-0.6,4.6-1.3
	c0.4-0.4,0.7-0.8,0.8-1.1c0.1-0.3,0.2-0.5,0.2-0.5v0.5c-0.1,0.3-0.2,0.8-0.6,1.3s-1.1,1-1.9,1.4c-0.8,0.4-1.8,0.7-2.8,0.8
	c-2.1,0.4-4.5,0.7-7.1,0.9c-1.3,0.1-2.7,0.3-4,0.4c-1.4,0.1-2.8,0.2-4.2,0.2c-1.4,0-2.8,0.1-4.2,0.1h-4.1c-2.6-0.1-5.1-0.2-7.2-0.4
	c-0.5-0.1-1.1-0.1-1.6-0.4s-0.9-0.7-1.1-1.1c-0.4-0.9-0.4-1.7-0.3-2.3s0.2-1.1,0.3-1.4C6461.9-279.5,6462-279.7,6462-279.7
	L6462-279.7z M6461.6-364.3c0,0,0.6,0.2,1.6,0.5c0.5,0.2,1.2,0.3,1.9,0.5s1.6,0.4,2.4,0.5c0.9,0.2,1.9,0.3,2.9,0.5
	c1,0.1,2.1,0.2,3.3,0.3c1.1,0.1,2.3,0.1,3.5,0.2h3.6c1.2,0,2.5,0,3.7-0.1c1.2,0,2.4-0.1,3.6-0.1c2.3-0.1,4.5-0.1,6.3-0.3
	c1.8-0.2,3.2-0.6,4.1-1.2c0.4-0.3,0.8-0.6,1-0.8l0.3-0.3c0,0-0.1,0.1-0.2,0.4c-0.2,0.3-0.4,0.6-0.8,1c-0.8,0.8-2.3,1.6-4.2,2
	c-0.9,0.2-2,0.4-3,0.5c-1.1,0.1-2.2,0.3-3.3,0.4l-3.6,0.3c-1.2,0.1-2.5,0.1-3.7,0.2c-1.3,0-2.5,0-3.7-0.1c-0.6,0-1.2-0.1-1.8-0.1
	c-0.6-0.1-1.2-0.1-1.8-0.2c-1.2-0.1-2.3-0.4-3.4-0.6c-0.5-0.1-1-0.3-1.5-0.4c-0.5-0.2-1-0.3-1.4-0.4c-1.8-0.6-3.2-1.3-4.2-1.8
	C6462.2-364,6461.6-364.3,6461.6-364.3L6461.6-364.3z M6411.5-262.2l0.3,0.3c0.2,0.2,0.5,0.4,1,0.6c0.9,0.5,2.3,1,4.2,1.4
	c1.9,0.4,4.2,0.7,6.8,1.1c2.6,0.4,5.6,0.7,8.9,1.1c3.3,0.3,6.8,0.7,10.6,1c3.7,0.3,7.7,0.5,11.8,0.7c8.2,0.3,17,0.5,25.7,0.6
	c4.4,0.1,8.8,0.1,13.1,0.2c4.3,0,8.5,0.1,12.6,0s8-0.4,11.7-0.8c3.7-0.5,7.2-1.1,10.4-1.7c6.4-1.4,11.6-3,15.2-4.3
	c1.8-0.7,3.2-1.2,4.2-1.6l1.5-0.6c0,0-0.5,0.2-1.4,0.7c-0.9,0.4-2.3,1.1-4.1,1.8c-3.5,1.5-8.7,3.5-15.1,5.1
	c-6.4,1.6-14.1,2.9-22.3,3.2c-4.1,0.2-8.4,0.2-12.7,0.2c-4.3,0-8.7-0.1-13.1-0.1c-4.4-0.1-8.8-0.2-13.1-0.3
	c-4.3-0.1-8.6-0.4-12.7-0.6c-4.1-0.3-8.1-0.6-11.8-1c-3.8-0.4-7.3-0.8-10.6-1.3c-1.6-0.3-3.2-0.5-4.7-0.7c-1.5-0.3-2.9-0.5-4.2-0.8
	c-2.6-0.5-4.9-1-6.8-1.5s-3.3-1.1-4.1-1.7c-0.4-0.3-0.7-0.5-0.9-0.7C6411.6-262.1,6411.5-262.2,6411.5-262.2L6411.5-262.2z"/>
<linearGradient id="SVGID_1_" gradientUnits="userSpaceOnUse" x1="6378.7998" y1="-1485.7887" x2="6584.7002" y2="-1485.7887" gradientTransform="matrix(1 0 0 1 0 1013)">
	<stop  offset="1.800000e-02" style="stop-color:#801FE3"/>
	<stop  offset="1" style="stop-color:#B7A7FF"/>
</linearGradient>
<path class="st1" d="M6378.8-566.4c1.4,24.4,2.7,48.8,4.1,73.2c0.4,7.9,0.9,15.9,2.2,23.7c1.8,11.1,5.4,21.8,8.9,32.5
	c3,9.1,6,18.2,11.1,26.3c17.8,28.1,51.5,32.7,81.9,31.3c10.6-0.5,21.3-1.5,31.5-4.7c66.9-21.3,65.2-117,66.1-172.7
	c0-2.6,0.1-5.1,0.1-7.7C6516-562.3,6447.2-560.5,6378.8-566.4L6378.8-566.4z"/>
<path d="M6373.7-586.1c0,0,0.6,8.1,1.5,22.2c0.5,7.1,1,15.6,1.7,25.5c0.6,9.8,1.4,20.9,2.1,33.1c0.4,6.1,0.7,12.4,1.3,18.9
	c0.5,6.5,1.4,13.2,3,19.9c1.6,6.7,3.7,13.5,6,20.4c2.4,6.9,4.5,14,7.5,20.9c0.8,1.7,1.5,3.4,2.4,5.1c0.9,1.6,1.8,3.3,2.8,4.8
	c1.1,1.6,2.2,3.1,3.4,4.7c1.2,1.4,2.5,2.8,3.7,4.3c5.3,5.5,11.7,10,18.8,13.2c7.1,3.3,14.8,5.4,22.6,6.6c7.9,1.3,15.9,1.7,23.9,1.7
	c8-0.1,16.1-0.4,24-1.5c3.9-0.5,7.9-1.2,11.7-2.2c1-0.3,1.9-0.5,2.8-0.8l0.7-0.2h0.1l0.2-0.1l0.4-0.1l1.4-0.5l2.8-1
	c0.5-0.2,0.9-0.3,1.4-0.5l1.3-0.6c7.1-3.1,13.7-7.4,19.4-12.5c5.7-5.1,10.5-11.1,14.4-17.5c4-6.3,7.1-13.1,9.7-19.8
	c2.6-6.8,4.6-13.6,6.3-20.3c3.2-13.5,5-26.5,6.2-38.5c1.1-12.1,1.7-23.2,2-33c0.3-9.9,0.5-18.4,0.7-25.5c0.2-14.2,0.4-22.2,0.4-22.2
	s0,2,0.1,5.8c0,3.8,0.1,9.4,0.2,16.4c0,7.1,0,15.7-0.2,25.5c-0.1,9.9-0.5,21-1.5,33.1s-2.6,25.2-5.7,38.9
	c-1.6,6.8-3.6,13.7-6.1,20.6s-5.7,13.8-9.8,20.3c-4,6.5-9,12.7-14.8,18.1c-5.9,5.4-12.7,9.8-20.2,13.1l-1.4,0.6
	c-0.5,0.2-0.9,0.4-1.4,0.5l-2.8,1l-1.4,0.5l-0.4,0.1l-0.2,0.1l-0.2,0.1l-0.7,0.2c-1,0.3-2,0.6-2.9,0.8c-3.9,1-8,1.8-12,2.4
	c-8.1,1.1-16.2,1.5-24.4,1.6c-8.2,0-16.3-0.5-24.4-1.8c-8-1.3-16-3.5-23.3-7c-7.4-3.4-14.1-8.1-19.6-13.9c-1.3-1.5-2.6-3.1-3.9-4.6
	c-1.1-1.6-2.2-3.2-3.3-4.7c-2.2-3.4-3.9-6.8-5.4-10.4c-3-7.1-5.2-14.2-7.5-21.2c-2.2-7-4.3-13.9-5.8-20.7
	c-1.6-6.9-2.4-13.6-2.8-20.2c-0.5-6.6-0.7-12.9-1-18.9c-0.6-12.1-1.1-23.2-1.6-33.1c-0.5-9.9-0.8-18.4-1.2-25.5
	C6374-578.1,6373.7-586.1,6373.7-586.1L6373.7-586.1z"/>
<path d="M6374.1-570.7c0,0,0.8,0,2.4,0.1s3.8,0.2,6.7,0.3c2.9,0.2,6.4,0.3,10.5,0.5c4,0.2,8.6,0.3,13.6,0.5s10.4,0.3,16.1,0.5
	s11.7,0.2,17.9,0.4c6.2,0.1,12.6,0.1,19.2,0.2c6.5,0.1,13.2,0,19.8,0.1c6.6,0,13.3,0,19.8-0.1s13-0.1,19.2-0.2
	c12.5-0.1,24.1-0.2,34-0.3c10-0.1,18.3-0.1,24.1-0.1h9.1c0,0-0.8,0.1-2.4,0.2c-1.6,0.1-3.8,0.2-6.7,0.4c-5.8,0.3-14.1,0.8-24.1,1.3
	s-21.6,0.9-34,1.3c-6.2,0.1-12.7,0.4-19.2,0.4c-6.5,0.1-13.2,0.1-19.8,0.2c-6.6,0-13.3,0-19.8-0.2c-6.5-0.1-13-0.3-19.2-0.4
	c-6.2-0.2-12.3-0.4-18-0.8c-2.9-0.2-5.6-0.3-8.3-0.5c-2.7-0.2-5.3-0.4-7.8-0.5c-2.5-0.2-4.9-0.3-7.1-0.5c-2.3-0.2-4.4-0.4-6.4-0.6
	c-4-0.4-7.6-0.7-10.4-1c-2.9-0.3-5.2-0.6-6.7-0.7C6374.9-570.6,6374.1-570.7,6374.1-570.7L6374.1-570.7z"/>
<path class="st2" d="M178.4,602.2c0,0,0.4,0.1,1.1,0.3s1.7,0.4,3,0.7s2.9,0.7,4.7,1s3.9,0.8,6.1,1.1c2.2,0.4,4.7,0.8,7.3,1.1
	c1.3,0.2,2.6,0.3,4,0.5c1.4,0.1,2.8,0.3,4.2,0.5c1.4,0.1,2.9,0.2,4.3,0.4c0.7,0.1,1.5,0.1,2.2,0.2c0.7,0,1.5,0.1,2.2,0.1
	c1.5,0.1,3,0.1,4.5,0.2s3,0,4.5,0.1c1.5,0,3,0.1,4.5,0s3-0.1,4.5-0.2c0.7,0,1.5-0.1,2.2-0.1s1.5,0,2.2-0.1c1.5-0.1,2.9-0.2,4.3-0.4
	c2.8-0.2,5.6-0.6,8.2-1c1.3-0.2,2.6-0.3,3.8-0.5c1.2-0.2,2.4-0.5,3.5-0.7c2.2-0.5,4.3-0.8,6.1-1.2c1.8-0.5,3.4-0.9,4.7-1.2
	c2.6-0.7,4.1-1,4.1-1s-1.4,0.5-4,1.4c-1.3,0.4-2.8,1-4.6,1.6c-1.8,0.5-3.8,1-6.1,1.6c-1.1,0.3-2.3,0.6-3.5,0.9
	c-1.2,0.2-2.5,0.4-3.8,0.7c-1.3,0.2-2.6,0.5-4,0.7c-0.3,0.1-0.7,0.1-1,0.2c-0.3,0-0.7,0.1-1,0.1c-0.7,0.1-1.4,0.2-2.1,0.2
	c-2.9,0.3-5.8,0.7-8.8,0.8c-1.5,0.1-3,0.1-4.6,0.2h-4.6c-1.5,0-3.1,0-4.6-0.1s-3-0.2-4.6-0.3c-0.8,0-1.5-0.1-2.3-0.1
	c-0.7-0.1-1.5-0.2-2.2-0.2c-1.5-0.2-2.9-0.3-4.4-0.5c-2.9-0.4-5.6-0.8-8.2-1.3c-1.3-0.2-2.6-0.5-3.8-0.7s-2.4-0.5-3.5-0.8
	c-2.2-0.5-4.3-1.1-6.1-1.5c-1.8-0.5-3.4-1-4.6-1.4c-1.3-0.4-2.3-0.8-2.9-1L178.4,602.2z"/>
<path class="st3" d="M309.7,98.5c-0.5,4.8,1.9-44.2-1.4-68.8c-1.5-11.5-19.9-16.3-35.5-20.2c-27.1-6.8-55.2-4.4-83-2.3
	c-13.3,1-25.1,4.6-37.3,10.1c-4.4,2-8.7,4.5-11.6,8.4c-3.5,4.6-5.3,54.9-3,73.4C137.9,99.1,309.7,98.3,309.7,98.5z"/>
<linearGradient id="SVGID_2_" gradientUnits="userSpaceOnUse" x1="224.1" y1="4.136" x2="224.1" y2="-408.4885" gradientTransform="matrix(1 0 0 1 0 506)">
	<stop  offset="0" style="stop-color:#FFC000"/>
	<stop  offset="1" style="stop-color:#FFE015"/>
</linearGradient>
<path class="st4" d="M138.3,99.3c0.5,18.8,1.7,37.5,3.7,56.2c5.1,47.9,18.4,301.3,26.7,338.3c0.9,4.2,2.2,8.8,5.7,11.2
	c2.4,1.7,5.3,2,8.2,2.3c25.9,2.7,55.4,4,81.4,1.5c3.6-0.3,7.4-0.9,10.1-3.4c3-2.8,3.7-7.3,4.2-11.5c4.2-35.6,5.6-72.2,7.7-107.8
	c2.6-44.1,16.1-197.7,20.7-244.5c1.4-14.4,2.5-28.7,3.2-43.1C252.6,97,195.4,97.2,138.3,99.3L138.3,99.3z"/>
<path d="M142.7,48.1c0,0-0.1,1.1-0.2,3.1c-0.1,2.1-0.3,5.1-0.4,9.1c-0.3,8-0.7,19.7-0.5,34.6s0.9,33,2.8,53.6
	c0.3,2.6,0.5,5.2,0.8,7.9l0.9,8.1c0.6,5.5,1.1,11.1,1.5,16.9c0.9,11.6,1.8,23.8,2.6,36.5c3.3,50.9,7.1,82.5,11.2,146.2
	c2.1,31.8,4.3,64.7,7.3,98.1c0.7,8.3,1.6,16.7,2.6,25c0.3,2.1,0.5,4.2,0.8,6.2l0.5,3.1c0.2,1,0.4,2,0.6,3.1l0.3,1.5l0.4,1.5
	c0.2,1,0.5,2,0.8,2.9c0.6,1.9,1.5,3.6,2.8,4.9c1.2,1.3,2.9,2,4.8,2.4s4,0.5,6.2,0.8c4.2,0.4,8.4,0.8,12.7,1.1
	c8.5,0.6,16.9,1.1,25.4,1.3s17,0.2,25.4-0.1c4.2-0.2,8.4-0.4,12.7-0.8c2.1-0.2,4.2-0.3,6.2-0.7s3.8-1,5.2-2.1
	c0.2-0.1,0.4-0.3,0.5-0.4l0.5-0.5c0.2-0.3,0.5-0.7,0.8-1.1c0.5-0.8,0.9-1.6,1.2-2.6c0.6-1.8,0.9-3.9,1.2-5.9c0.5-4.2,1-8.4,1.4-12.6
	c0.8-8.4,1.6-16.7,2.2-25.1c1.3-16.7,2.2-33.3,3.1-49.7c0.9-16.4,1.9-32.6,3-48.5c2.2-31.8,4.6-34.7,6.8-63.9
	c2.3-29.2,4.5-56.7,6.5-82.2c2.1-25.4,4.1-48.8,6.1-69.4c2.1-20.6,3.4-38.7,4.1-53.5c0.7-14.9,0.8-26.6,0.9-34.5V50.2
	c0,0,0,1.1,0.1,3.1c0,2.1,0.1,5.1,0.1,9.1c0,8,0,19.7-0.5,34.6s-1.6,33-3.5,53.6c-0.9,10.3-1.8,21.3-2.7,32.9
	c-0.9,11.6-1.8,23.8-2.8,36.5c-3.9,50.9-8.1,82.4-12.5,146.1c-1.1,15.9-2.1,32.1-2.9,48.5c-0.9,16.4-1.8,33-3,49.7
	c-0.6,8.4-1.3,16.8-2.1,25.2c-0.4,4.2-0.9,8.4-1.4,12.6c-0.3,2.1-0.6,4.3-1.3,6.5c-0.4,1.1-0.8,2.2-1.5,3.2c-0.3,0.5-0.7,1-1.1,1.5
	c-0.2,0.3-0.4,0.4-0.6,0.6c-0.3,0.3-0.5,0.4-0.7,0.6c-1.9,1.5-4.3,2.3-6.5,2.7s-4.4,0.6-6.5,0.7c-4.3,0.4-8.5,0.6-12.8,0.8
	c-8.5,0.3-17.1,0.4-25.6,0.2s-17.1-0.7-25.6-1.4c-4.2-0.3-8.5-0.7-12.7-1.1c-2.1-0.2-4.2-0.4-6.5-0.8c-1.1-0.2-2.3-0.6-3.3-1.1
	c-0.3-0.1-0.5-0.3-0.8-0.5s-0.4-0.3-0.7-0.5c-0.5-0.4-1-0.8-1.4-1.2c-1.7-1.8-2.7-3.9-3.4-6c-0.4-1.1-0.7-2.1-0.9-3.2l-0.4-1.6
	l-0.3-1.6c-0.2-1.1-0.4-2.1-0.6-3.2l-0.5-3.2c-0.3-2.1-0.6-4.2-0.8-6.3c-1-8.4-1.8-16.8-2.5-25.1c-2.9-33.4-5-66.3-7.1-98.2
	c-2-31.8-3.8-34.7-5.5-63.9c-1.7-29.2-3.3-56.8-4.8-82.3c-0.8-12.7-1.6-24.9-2.4-36.5c-0.4-5.8-0.8-11.4-1.4-16.9
	c-0.3-2.7-0.5-5.4-0.8-8.1c-0.2-2.7-0.5-5.3-0.7-7.9c-1.7-20.7-2.2-38.8-2.2-53.7s0.4-26.6,0.8-34.6c0.2-4,0.4-7,0.5-9.1
	C142.6,49.2,142.7,48.1,142.7,48.1L142.7,48.1z M312.7,37.4c0,0,0-0.2-0.1-0.5s-0.2-0.8-0.4-1.4c-0.4-1.2-1.4-2.9-3-4.7
	c-1.7-1.7-4.1-3.4-7.2-4.9c-3-1.5-6.7-2.8-10.7-4s-8.4-2.3-13.1-3.4l-0.9-0.2l-0.9-0.2c-0.6-0.1-1.2-0.3-1.8-0.4
	c-1.2-0.2-2.4-0.6-3.7-0.8c-1.2-0.2-2.5-0.4-3.7-0.7c-1.3-0.2-2.5-0.4-3.8-0.6c-10.3-1.4-21.5-1.8-32.7-1.6
	c-5.6,0.1-11.2,0.4-16.7,0.7s-10.9,0.7-16.2,1s-10.2,0.7-14.9,1.6s-9.1,2-13.1,3.2c-4,1.3-7.6,2.6-10.8,3.8
	c-3.2,1.2-5.9,2.5-7.9,3.8c-2.1,1.3-3.6,2.5-4.5,3.4c-0.5,0.5-0.8,0.8-1,1.1s-0.3,0.4-0.3,0.4s0.1-0.1,0.3-0.4
	c0.2-0.3,0.5-0.7,0.9-1.2c0.9-1,2.2-2.4,4.3-3.8c2-1.4,4.7-2.9,7.8-4.3c3.1-1.5,6.7-3,10.7-4.4s8.4-2.8,13.2-3.8
	c2.4-0.5,4.9-0.9,7.4-1.3c1.3-0.2,2.6-0.3,3.8-0.4l3.9-0.3c5.2-0.4,10.7-0.9,16.2-1.3s11.2-0.6,16.8-0.8c5.6-0.1,11.3,0,16.9,0.3
	s11,0.9,16.3,1.7l3.9,0.6c1.3,0.3,2.6,0.5,3.8,0.8c1.3,0.2,2.5,0.6,3.7,0.9c0.6,0.1,1.2,0.3,1.8,0.4l0.9,0.2l0.9,0.2
	c4.7,1.2,9.1,2.5,13.1,3.9s7.6,2.9,10.6,4.6s5.5,3.6,7.1,5.5c1.7,1.9,2.4,3.8,2.8,5c0.2,0.6,0.3,1.1,0.3,1.5L312.7,37.4L312.7,37.4z
	"/>
<path class="st2" d="M141.4,106.9c0,0,2.7-0.1,7.4-0.4c2.4-0.1,5.2-0.2,8.5-0.4s7-0.3,11.1-0.4s8.5-0.3,13.1-0.3
	c4.7-0.1,9.6-0.1,14.6-0.1c5.1,0,10.3-0.1,15.6-0.1c5.3-0.1,10.7-0.2,16.2-0.2c5.4-0.1,10.8-0.1,16.2-0.2h15.6
	c5.1,0,10,0.1,14.6,0.2c4.7,0.1,9,0.2,13.1,0.3c4.1,0.1,7.8,0.2,11.1,0.3c3.3,0.1,6.2,0.2,8.5,0.3c4.7,0.2,7.4,0.3,7.4,0.3v0.1
	c0,0-10.8-0.1-27.1-0.2c-16.2-0.1-37.9-0.3-59.5-0.5c-5.4,0-10.8-0.1-16.2,0c-5.3,0.1-10.6,0.2-15.6,0.3c-5.1,0.1-10,0.3-14.6,0.4
	s-9,0.2-13.1,0.3C152.2,106.9,141.4,107,141.4,106.9L141.4,106.9z"/>
<path class="st0" d="M321.7,36.5c1.1,24.7-1.5,86.2-3,108.6c-1.7,25.4-36.8,409.9-36,451.2c0.2,10.1,6.5,16.9,10.5,19.8
	c5.8,4.2,18.3,5.8,25.5,5.8c13.6-0.1,13.7,10.8,11,14.6c-1.7,2.4-4.7,3.5-7.5,4.2c-14.4,3.7-25,1.4-39.9,1.7
	c-14,0.3-28,0.4-42.1,0.5c-28.3,0.2-56.7,0.3-84.9-0.9c-7.3-0.3-15-0.2-22.1-1.9c-4.3-1-9.1-3-10.2-7.3c-1.1-4.2,2.3-8.5,6.4-10.2
	s8.5-1.7,12.9-2.2c8.7-1,19.2-2.2,23.9-9.7c6.5-10.2,4.7-23.4,3.3-35.4c-1.2-10.8-33.4-395.4-35-432.5c-1.6-35.9-4.4-71.8-1.1-107.7
	C152.6,36.2,279,29.4,321.7,36.5L321.7,36.5z"/>
</svg>
