<svg id="Layer_1" xmlns="http://www.w3.org/2000/svg" viewBox="0 0 705 705"><style>.st0,.st1{fill:none}.st1{stroke:#000;stroke-width:5;stroke-miterlimit:10}.st2{opacity:.77;fill:url(#SVGID_1_)}.st3{stroke-width:3}.st3,.st4{fill:none;stroke:#000;stroke-miterlimit:10}</style><path class="st0" d="M114.4 0h460v705h-460V0z"/><path class="st1" d="M393.1 489.6c-6.4 24.1-18.3 47.1-29.2 69.4-5.4 10.9-29.2 50.6-29.3 61.9-.1 6 .1 12.5 3.9 17 7 8.4 14.4 14.7 24.5 19.5 13.3 6.4 27.9 9.6 42.2 13.2 4.1 1 9 3 9.5 7.2.5 4.9-5.2 7.8-9.9 9.2-52 14.9-131.2 22.3-183.5 5-3.1-1-6.5-2.4-7.9-5.4-1.6-3.4.2-7.6 3-10.1 2.9-2.4 6.6-3.6 10.2-4.8 85.2-30.2 138.1-132.6 148.2-210.8 4.2-32.8-3.8-71.7-32.6-87.8-3.3-1.8-6.8-2.7-9.5-.1-2.2 2.1-4.3 4.2-6.5 6.3-2.8 2.7-13.6 12.5-21.4 12-7-.5-9.6-3.8-13.5-6.8-5.4-4.3-149.6-183.7-151.8-192.4 46.1-.1 333.6.9 333.6.9-14.1 26.2-115.5 149.6-119.8 154.6 10.1 1.3 29.3 20.4 35 29 26.2 39.9 13.6 80.3 4.8 113z"/><linearGradient id="SVGID_1_" gradientUnits="userSpaceOnUse" x1="302.587" y1="361.635" x2="302.587" y2="204.737"><stop offset="0" stop-color="#d4001b"/><stop offset=".997" stop-color="#ff3f6c"/></linearGradient><path class="st2" d="M440.2 204.9c-15 1.8-30 3.6-45 5.5-17.1 2.1-93 .6-113.8.1-38.6-.9-79.8-2.6-115.4-3.4-.9.1-1.9.2-2.8.3 37.6 47.9 72.6 89.1 115.2 134.7 4.5 4.8 16.2 17.2 22.5 19.1 6.3 2 15.9-1.9 33.2-22.1 37.6-43.8 70.2-91.3 107.9-134.4-.6.1-1.2.2-1.8.2z"/><path d="M283.9 652.4s.8.1 2.3.3c.7.1 1.6.2 2.6.4 1 .1 2.1.3 3.4.4 1.2.2 2.6.3 4 .4 1.4.2 2.9.2 4.5.3 1.6.1 3.2.2 4.8.2 1.6.1 3.3.1 4.9.1 1.7 0 3.3 0 4.9-.1l4.8-.3c1.5-.1 3-.2 4.5-.4 1.4-.2 2.8-.3 4-.5 1.2-.1 2.4-.3 3.4-.5 1-.1 1.9-.3 2.6-.4 1.4-.2 2.3-.3 2.3-.3s-.8.3-2.2.7c-.7.2-1.5.5-2.5.8-1 .3-2.1.6-3.3.8-1.2.3-2.6.6-4 .8-1.4.3-2.9.5-4.5.7-1.6.2-3.2.4-4.8.4-1.7.1-3.3.1-5 .2-1.7 0-3.4 0-5-.1-1.7 0-3.3-.2-4.8-.4-1.6-.2-3.1-.4-4.5-.6-1.4-.2-2.8-.5-4-.8-1.2-.2-2.4-.5-3.3-.8-1-.2-1.8-.5-2.5-.7-1.8-.4-2.6-.6-2.6-.6zm-60.3 27.5s.6.2 1.9.7c1.2.5 3.1 1 5.4 1.7 1.2.3 2.5.6 3.9 1 1.4.3 3 .6 4.6 1 1.7.3 3.4.6 5.3 1 1.9.3 3.8.6 5.9 1 4.1.6 8.6 1.3 13.3 1.9 4.7.6 9.7 1.1 14.9 1.7 5.2.5 10.5 1.1 15.9 1.4 5.4.2 11 .2 16.5.1s11-.4 16.5-.8c5.4-.4 10.8-.8 16-1.3 5.2-.5 10.2-1 14.9-1.6 4.7-.6 9.2-1.2 13.3-1.9 2.1-.3 4-.6 5.9-1 1.9-.3 3.6-.6 5.3-.9 3.3-.6 6.2-1.2 8.6-1.7 2.4-.5 4.2-.9 5.5-1.2 1.3-.3 2-.4 2-.4s-.7.2-1.9.5c-1.3.3-3.1.9-5.5 1.4-2.4.6-5.2 1.3-8.5 2s-7 1.5-11.2 2.2c-4.1.7-8.6 1.5-13.3 2.2-4.7.7-9.7 1.4-14.9 1.9-5.2.5-10.5 1-16 1.4-5.4.4-11 .8-16.6.9-5.6.1-11.1 0-16.6-.2-5.5-.3-10.8-.9-16-1.5-10.4-1.2-20-2.7-28.2-4.2-2-.4-4-.8-5.9-1.1-1.9-.4-3.6-.8-5.3-1.2-1.6-.4-3.2-.8-4.6-1.2-1.4-.4-2.7-.8-3.9-1.1-1.2-.4-2.2-.7-3.1-1-.9-.3-1.6-.6-2.2-.9-1.2-.5-1.9-.8-1.9-.8zm-66.9-481s1.1 1.4 3.2 4 5.1 6.4 8.9 11.2c7.6 9.7 18.5 23.7 31.5 40.4 6.5 8.4 13.6 17.4 21.2 26.8 7.6 9.5 15.8 19.3 24.3 29.4 8.6 10.1 17.7 20.3 27.1 30.5 4.7 5.1 9.5 10.2 14.6 15 2.6 2.4 5.2 4.7 8 6.5 1.4.9 2.8 1.8 4.3 2.1.6.1 1.5.2 2.3.2.8 0 1.6 0 2.4-.2 3.3-.4 6.5-1.6 9.6-3.1 3.1-1.5 6-3.3 8.8-5.4 5.5-4.1 10.5-9 14.9-14.3 9.1-10.6 17.7-21.1 25.9-31.5 8.2-10.4 16.1-20.5 23.6-30 7.5-9.6 14.6-18.6 21.2-26.9 6.6-8.3 12.8-15.8 18.3-22.4 2.8-3.3 5.4-6.4 7.8-9.2 2.4-2.8 4.7-5.4 6.7-7.7 2.1-2.3 3.9-4.4 5.5-6.2 1.6-1.8 3-3.3 4.1-4.5 2.2-2.4 3.4-3.7 3.4-3.7s-1.2 1.3-3.3 3.8c-1.1 1.3-2.4 2.8-4 4.6-1.5 1.8-3.3 3.9-5.3 6.3-2 2.3-4.2 5-6.5 7.9-2.4 2.9-4.9 6-7.6 9.4-5.4 6.7-11.3 14.4-17.9 22.7-6.5 8.4-13.4 17.5-20.8 27.2s-15.1 19.9-23.3 30.3c-8.2 10.4-16.8 21.1-25.8 31.7-4.5 5.4-9.6 10.5-15.3 14.8-2.9 2.1-5.9 4.1-9.2 5.7-3.3 1.6-6.8 2.9-10.5 3.4-.9.1-1.9.2-2.9.2s-1.9-.1-3-.3l-.7-.2c-.2-.1-.5-.2-.7-.3-.5-.2-.9-.4-1.3-.6-.8-.4-1.6-.9-2.4-1.5-3-2.1-5.7-4.4-8.3-6.9-5.2-4.9-10-10.1-14.7-15.2-9.4-10.3-18.5-20.6-27-30.7-8.6-10.1-16.6-20.2-24.1-29.7-7.5-9.6-14.4-18.7-20.9-27.2-6.4-8.4-12.2-16.3-17.3-23.2-5.1-6.9-9.6-12.9-13.3-17.9-7.3-9.6-11.5-15.3-11.5-15.3z"/><path d="M170 211.9h11.8c3.8 0 8.3 0 13.5.1 5.2.1 11.1.2 17.6.3 6.4.2 13.4.3 20.8.6s15.1.7 23.2 1.1c8 .4 16.3.8 24.8.9 4.2.1 8.5.1 12.8.2h12.9c4.3 0 8.6-.1 12.9-.1h12.8c8.4 0 16.8 0 24.8-.1s15.8-.1 23.2-.2c3.7 0 7.3-.1 10.7-.2 1.7-.1 3.4-.1 5.1-.2.8-.1 1.6-.1 2.4-.2l2.4-.3c6.4-.7 12.3-1.3 17.5-1.8 5.2-.5 9.7-1 13.5-1.3 3.7-.3 6.7-.6 8.7-.7 2-.2 3.1-.2 3.1-.2v.3s-1.1.2-3 .5c-2 .3-4.9.8-8.6 1.4-3.7.6-8.2 1.2-13.4 2-5.2.8-11 1.6-17.4 2.5l-2.4.3c-.8.1-1.7.2-2.5.3-1.7.2-3.4.3-5.2.4-3.5.2-7.1.3-10.8.4-7.4.2-15.2.2-23.2.2-8.1-.1-16.4-.2-24.8-.4-4.2-.1-8.5-.2-12.8-.4-4.3-.2-8.6-.3-12.9-.5-4.3-.2-8.6-.3-12.8-.5-4.3-.1-8.5-.3-12.8-.4-8.4-.2-16.8-.3-24.8-.3s-15.8 0-23.2-.1c-7.4-.1-14.3-.4-20.8-.7-6.4-.3-12.3-.5-17.5-.8-5.2-.3-9.8-.6-13.5-.9-3.7-.3-6.7-.5-8.7-.7-2-.2-3.1-.3-3.1-.3l-.3-.2z"/><path class="st3" d="M447 226.4c25.8 14.6 62.2 9.3 83.1-12.5 40.7-42.4 13.3-117.5-46.4-119.7-14.1-.5-26.2 0-39 6-2.5 1.2-6.8 6.2-9.1 7.7-11.7 8-20.3 24.4-23 37.9-5.5 26.7 5.7 56.4 24.8 74.3"/><path class="st4" d="M471.9 159.6c.5 4.5 3.7 8.5 7.9 10.2 1.4.5 2.9.8 4.3.6 1.3-.2 2.6-.8 3.7-1.6 6-4.2 8.1-16.9.8-21.2-7.7-4.7-17.6 4-16.7 12z"/><path d="M476.8 169.2s-.4 2.3-1.1 6.3c-.7 4-1.6 9.7-2.5 16.5-.5 3.4-1 7.1-1.4 11.1-.2 2-.5 4-.7 6-.1 1-.2 2.1-.3 3.1-.1 1.1-.2 2.1-.3 3.1 0 1 .1 2 .5 2.8.4.9 1 1.7 1.7 2.4 1.5 1.5 3.2 2.7 5.2 3.6 3.9 1.8 8.5 2.2 12.9 1.6 4.4-.6 8.7-2.3 12.1-5 1.7-1.4 3.1-3 4-4.8.1-.2.2-.5.3-.7.1-.3.2-.5.3-.8.2-.5.3-1 .4-1.5.2-1 .4-2 .4-3.1.1-4.1-1.2-8.1-2.9-11.6s-3.8-6.6-5.6-9.6c-3.6-5.9-6.5-10.9-8.6-14.4-2-3.5-3.2-5.5-3.2-5.5s1.3 1.9 3.5 5.3 5.4 8.2 9.2 14c1.9 2.9 4 6 5.9 9.5 1.9 3.5 3.5 7.7 3.4 12.3 0 1.1-.1 2.3-.4 3.4-.1.6-.3 1.1-.5 1.7-.1.3-.2.5-.3.8-.1.3-.3.5-.4.8-1.1 2.1-2.6 4-4.5 5.5-3.7 3-8.3 4.8-13 5.5-4.7.7-9.7.2-14-1.8-1.1-.5-2.1-1.1-3.1-1.8-.5-.4-1-.7-1.4-1.1l-.6-.6-.3-.3-.3-.3c-.8-.9-1.6-1.8-2-3-.5-1.2-.6-2.5-.6-3.6.1-1.2.2-2.2.3-3.3.1-1.1.3-2.1.4-3.1.3-2.1.6-4.1.8-6 .6-3.9 1.2-7.6 1.8-11 1.2-6.8 2.4-12.5 3.3-16.4.4-2 .8-3.5 1.1-4.6.4-.9.5-1.4.5-1.4zm16.1-4.8s0 .1.1.4c.1.2.3.6.6 1 .6.8 1.7 1.7 3.1 2.8 2.9 2.3 7 5.6 11.4 10 2.2 2.2 4.6 4.7 6.9 7.5 1.2 1.4 2.3 2.8 3.6 4.1 1.3 1.2 2.8 2.3 4.5 2.8.4.1.8.2 1.3.3.4 0 .9.1 1.3 0 .9-.1 1.8-.3 2.6-.6.9-.4 1.7-.8 2.4-1.4.4-.3.7-.6 1.1-.9l1-1c2.5-3 4-6.9 5.1-10.8 1.1-3.9 1.5-8.1 1.4-12.1-.1-2-.3-4-.7-5.9-.2-1-.4-1.9-.8-2.4-.5-.6-1.2-1.1-2-1.5-.8-.4-1.8-.7-2.7-1.1-.9-.3-1.8-.6-2.6-.9-.9-.2-1.8-.5-2.7-.7-.9-.2-1.8-.4-2.6-.5-3.5-.6-6.9-.9-10-1-6.2-.2-11.5.1-15.1.4-3.7.3-5.7.4-5.7.4s.5-.1 1.5-.2 2.4-.4 4.2-.6c1.8-.2 4-.5 6.6-.7 2.5-.2 5.4-.4 8.6-.4 3.2 0 6.6.2 10.2.7.9.1 1.8.3 2.7.5.9.2 1.8.4 2.8.7.9.3 1.9.5 2.8.9.9.4 1.8.6 2.8 1.1.9.4 2 1 2.7 2 .8 1.1 1 2.2 1.2 3.2.4 2 .7 4.1.8 6.2.2 4.2-.2 8.5-1.4 12.7-.6 2.1-1.3 4.1-2.2 6-.9 2-2 3.9-3.4 5.5-.4.4-.7.8-1.1 1.2-.4.3-.8.7-1.3 1-.9.7-1.9 1.2-2.9 1.6-1 .4-2.1.6-3.2.7-.5 0-1.1 0-1.7-.1-.5-.1-1.1-.2-1.6-.3-2.1-.6-3.8-2-5.1-3.3-1.4-1.4-2.5-2.9-3.6-4.3-2.2-2.8-4.4-5.4-6.6-7.7-4.2-4.6-8.1-8.2-10.9-10.5-1.4-1.2-2.5-2.2-3-3-.3-.4-.4-.8-.5-1 .1-.7.1-.8.1-.8zm.3-16.4s1.8-.5 4.9-1.3c3.1-.8 7.6-2 12.9-3.4 2.7-.7 5.6-1.4 8.6-2.2 1.5-.4 3-1 4.4-1.7 1.4-.7 2.7-1.7 3.5-3 .2-.3.4-.7.6-1 .1-.2.2-.4.2-.6.1-.2.1-.3.2-.5.2-.7.3-1.5.3-2.3-.1-1.6-.5-3.3-1.3-4.7-1.6-3-4.3-5.4-7.1-7.8-2.7-2.4-5.5-4.9-8.2-7.3-1.3-1.1-2.8-2-4.2-2.1-1.6-.1-2.9.7-4.1 1.8-1.2 1.1-2.2 2.4-3.3 3.7-1 1.3-2 2.6-2.9 3.8-1.8 2.6-3.4 5.1-4.8 7.4-2.8 4.7-4.7 8.9-6 11.9-1.2 3-1.9 4.7-1.9 4.7s.1-.4.4-1.3c.2-.8.6-2.1 1.1-3.6.5-1.5 1.2-3.4 2.1-5.5.9-2.1 1.9-4.4 3.2-6.9 1.3-2.5 2.8-5.1 4.6-7.7.9-1.3 1.8-2.7 2.8-4 1-1.3 2.1-2.7 3.4-4 .7-.6 1.5-1.2 2.4-1.6.5-.2.9-.4 1.4-.5.2-.1.5-.1.8-.1h.7c2.3.1 4 1.3 5.4 2.4 2.8 2.4 5.5 4.8 8.3 7.3 2.7 2.4 5.7 5 7.5 8.5.9 1.7 1.4 3.6 1.4 5.6 0 1-.1 2-.4 2.9-.1.2-.2.5-.2.7l-.3.6c-.3.5-.5.9-.8 1.3-1.1 1.6-2.7 2.7-4.2 3.4-1.6.8-3.2 1.3-4.7 1.7-3.1.8-6 1.3-8.7 1.9-5.4 1.2-9.9 2-13.1 2.7-3.1.4-4.9.8-4.9.8zm-12.8-2.8s-.3-1.9-.8-5.2c-.5-3.3-1.2-8.1-1.9-13.8-.4-2.8-.8-6-1.2-9.2-.5-3.2-1.3-6.6-3.2-9.4-1.8-2.8-4.8-5.2-8.3-5.2-1.7-.1-3.4.4-5.1 1.1-1.7.7-3.4 1.5-5.1 2.4-3.3 1.8-6.4 3.9-8.3 6.9-.9 1.5-1.4 3.1-1.4 4.8 0 1.6.4 3.4 1.1 4.9 1.4 3.1 3.7 5.7 6.1 7.9 2.4 2.2 4.8 4.3 6.7 6.5 1.9 2.3 3.3 4.4 4.8 6.2 1.4 1.8 2.7 3.4 3.9 4.5 1.2 1.2 2.2 2 2.9 2.6.7.6 1.1.8 1.1.8s-.4-.2-1.2-.7c-.7-.5-1.8-1.3-3.1-2.4-1.3-1.1-2.7-2.6-4.2-4.4-.8-.9-1.6-1.8-2.4-2.8-.8-1-1.7-2.1-2.6-3.1-1.9-2-4.4-3.9-6.9-6.1-2.5-2.2-5.1-4.8-6.7-8.2-.8-1.7-1.4-3.6-1.3-5.7 0-2 .6-4 1.7-5.8 2.1-3.5 5.6-5.8 9-7.7 1.8-.9 3.5-1.7 5.3-2.5 1.8-.7 3.8-1.2 6-1.2 2 .1 4.1.8 5.7 2 1.6 1.1 2.9 2.6 4 4.2 2 3.3 2.7 6.9 3.2 10.1.4 3.3.6 6.4.9 9.3.5 5.7.9 10.5 1.2 13.8 0 3.5.1 5.4.1 5.4zm-9.3 9.1s-1.7-.9-4.7-2.5-7.3-3.8-12.6-6.3c-2.6-1.3-5.5-2.6-8.6-3.9-1.5-.7-3.1-1.4-4.7-2-1.6-.6-3.3-1.5-4.9-1.9-.8-.2-1.6-.3-2.3-.1-.5.1-.8.2-1.1.4-.4.2-.7.4-1 .6-1.3 1-2.2 2.6-2.9 4.2-.7 1.7-1.2 3.5-1.7 5.4-.5 1.9-.8 3.7-1.1 5.6-.6 3.8-.8 7.6-.6 11.4.1 1.9.3 3.7 1 5.2.2.4.4.7.6 1l.2.2.1.1.1.1c.2.2.3.4.5.4.6.5 1.3.8 2.1 1.1 1.6.5 3.3.4 5 .3 1.7-.2 3.4-.5 5-.9 3.2-.7 6.3-1.5 9.1-2.3 5.6-1.6 10.2-3.3 13.3-4.6 3.2-1.3 4.9-2.1 4.9-2.1s-.4.2-1.2.7c-.8.4-2 1.1-3.5 1.8-3.1 1.5-7.5 3.5-13.1 5.3-2.8.9-5.8 1.8-9.1 2.6-.8.2-1.6.4-2.5.6-.9.2-1.7.4-2.6.5-1.8.2-3.7.3-5.7-.2-1-.3-1.9-.7-2.8-1.4-.2-.2-.4-.3-.6-.5l-.1-.1-.2-.2-.3-.3c-.3-.4-.6-.9-.8-1.4-.9-1.9-1.1-4-1.2-5.9-.2-3.9 0-7.9.6-11.8.3-2 .7-3.9 1.2-5.8s1-3.8 1.8-5.7c.8-1.8 1.9-3.7 3.6-5 .4-.3.9-.6 1.4-.8.5-.2 1.1-.4 1.5-.5 1.1-.2 2.2-.1 3.1.2 1.9.5 3.5 1.4 5.1 2.1 1.6.7 3.2 1.5 4.7 2.2 3 1.4 5.9 2.9 8.4 4.3 5.2 2.7 9.4 5.3 12.3 7 1.5.9 2.6 1.6 3.3 2.1.6.5 1 .8 1 .8zm0 8.5s-.2.5-.6 1.3c-.4.9-1.2 2.1-2.3 3.5-1.2 1.4-2.8 2.9-4.8 4.5-2 1.5-4.4 3.1-7 4.8-2.6 1.7-5.4 3.5-7.9 5.8-2.6 2.3-5 5.1-7.4 8.1-.6.8-1.2 1.5-1.8 2.3-.6.7-1.1 1.5-1.6 2.4-1 1.6-1.7 3.4-1.7 5.1 0 .9.2 1.7.7 2.5.4.7 1.1 1.3 1.8 1.9 1.5 1.1 3.4 2 5.2 3l5.4 3 2.7 1.5c.9.5 1.8 1 2.6 1.4.8.4 1.6.6 2.3.4.6-.2 1.1-.7 1.6-1.5.4-.8.8-1.7 1.2-2.6.4-.9.7-1.8 1.1-2.7 2.8-7.1 5-14 6.9-19.9 1.9-5.9 3.6-10.8 4.8-14.1.6-1.7 1.1-3 1.5-3.9.4-.9.5-1.4.5-1.4s-.6 2-1.7 5.4c-.5 1.7-1.1 3.8-1.8 6.2-.7 2.4-1.4 5.1-2.3 8.1-1.7 5.9-3.7 12.9-6.4 20.2-.3.9-.7 1.8-1.1 2.7-.4.9-.7 1.8-1.2 2.8-.3.5-.6 1-1 1.4-.4.4-1 .9-1.7 1-1.3.4-2.6 0-3.6-.5s-1.9-1-2.8-1.5l-2.7-1.5-5.4-3-2.7-1.5c-.9-.5-1.8-1-2.7-1.7-.9-.7-1.7-1.4-2.4-2.5-.6-1-.9-2.2-.9-3.4 0-2.4 1-4.4 2-6.1.5-.9 1.1-1.7 1.8-2.5.6-.8 1.2-1.5 1.9-2.3 2.5-3 5-5.8 7.8-8.1 2.7-2.4 5.7-4.1 8.3-5.7 2.7-1.6 5.1-3 7.2-4.4 2.1-1.4 3.7-2.8 4.9-4.1.3-.3.6-.6.8-.9.2-.3.5-.6.7-.9.4-.6.8-1 1-1.5.5-.7.8-1.1.8-1.1z"/><path class="st4" d="M443.3 211.8c-6.3-3.4-11.5-9.2-14.9-15.6-4.5-8.5-6.4-18.1-7.6-27.6-3-23.6 7-54.2 30.8-63.8 5.7-2.3 11.8-3.2 17.9-3.8 12.5-1.2 25.4-1 37 3.8 20.6 8.5 35.4 30.1 39.1 52.1 1.6 9.8 1.2 20.1-2.7 29.3-5.7 13.6-17.8 23.3-30.1 31.4-10.7 7.1-23.3 13.7-35.7 10.6-8.6-2.2-16.6-.7-24.8-4.1"/></svg>