<?xml version="1.0" encoding="utf-8"?>
<!-- Generator: Adobe Illustrator 19.2.0, SVG Export Plug-In . SVG Version: 6.00 Build 0)  -->
<svg version="1.1" id="Layer_1" xmlns="http://www.w3.org/2000/svg" xmlns:xlink="http://www.w3.org/1999/xlink" x="0px" y="0px"
	 viewBox="0 0 460 616.5" style="enable-background:new 0 0 460 616.5;" xml:space="preserve">
<style type="text/css">
	.st0{fill:none;stroke:#000000;stroke-width:5;stroke-miterlimit:10;}
	.st1{opacity:0.77;fill:url(#SVGID_1_);enable-background:new    ;}
	.st2{fill:none;stroke:#000000;stroke-width:3;stroke-miterlimit:10;}
	.st3{fill:none;stroke:#000000;stroke-miterlimit:10;}
</style>
<path class="st0" d="M296.6,401.1c-6.4,24.1-18.3,47.1-29.2,69.4c-5.4,10.9-29.2,50.6-29.3,61.9c-0.1,6,0.1,12.5,3.9,17
	c7,8.4,14.4,14.7,24.5,19.5c13.3,6.4,27.9,9.6,42.2,13.2c4.1,1,9,3,9.5,7.2c0.5,4.9-5.2,7.8-9.9,9.2c-52,14.9-131.2,22.3-183.5,5
	c-3.1-1-6.5-2.4-7.9-5.4c-1.6-3.4,0.2-7.6,3-10.1c2.9-2.4,6.6-3.6,10.2-4.8c85.2-30.2,138.1-132.6,148.2-210.8
	c4.2-32.8-3.8-71.7-32.6-87.8c-3.3-1.8-6.8-2.7-9.5-0.1c-2.2,2.1-4.3,4.2-6.5,6.3c-2.8,2.7-13.6,12.5-21.4,12
	c-7-0.5-9.6-3.8-13.5-6.8C189.4,291.7,45.2,112.3,43,103.6c46.1-0.1,333.6,0.9,333.6,0.9c-14.1,26.2-115.5,149.6-119.8,154.6
	c10.1,1.3,29.3,20.4,35,29C318,328,305.4,368.4,296.6,401.1L296.6,401.1z"/>
<linearGradient id="SVGID_1_" gradientUnits="userSpaceOnUse" x1="206.1" y1="-232.8333" x2="206.1" y2="-389.8" gradientTransform="matrix(1 0 0 1 0 506)">
	<stop  offset="0" style="stop-color:#D4001B"/>
	<stop  offset="0.997" style="stop-color:#FF3F6C"/>
</linearGradient>
<path class="st1" d="M343.7,116.4c-15,1.8-30,3.6-45,5.5c-17.1,2.1-93,0.6-113.8,0.1c-38.6-0.9-79.8-2.6-115.4-3.4
	c-0.9,0.1-1.9,0.2-2.8,0.3c37.6,47.9,72.6,89.1,115.2,134.7c4.5,4.8,16.2,17.2,22.5,19.1c6.3,2,15.9-1.9,33.2-22.1
	c37.6-43.8,70.2-91.3,107.9-134.4C344.9,116.3,344.3,116.4,343.7,116.4L343.7,116.4z"/>
<path d="M187.4,563.9c0,0,0.8,0.1,2.3,0.3c0.7,0.1,1.6,0.2,2.6,0.4c1,0.1,2.1,0.3,3.4,0.4c1.2,0.2,2.6,0.3,4,0.4
	c1.4,0.2,2.9,0.2,4.5,0.3s3.2,0.2,4.8,0.2c1.6,0.1,3.3,0.1,4.9,0.1c1.7,0,3.3,0,4.9-0.1l4.8-0.3c1.5-0.1,3-0.2,4.5-0.4
	c1.4-0.2,2.8-0.3,4-0.5c1.2-0.1,2.4-0.3,3.4-0.5c1-0.1,1.9-0.3,2.6-0.4c1.4-0.2,2.3-0.3,2.3-0.3s-0.8,0.3-2.2,0.7
	c-0.7,0.2-1.5,0.5-2.5,0.8s-2.1,0.6-3.3,0.8c-1.2,0.3-2.6,0.6-4,0.8c-1.4,0.3-2.9,0.5-4.5,0.7s-3.2,0.4-4.8,0.4
	c-1.7,0.1-3.3,0.1-5,0.2c-1.7,0-3.4,0-5-0.1c-1.7,0-3.3-0.2-4.8-0.4c-1.6-0.2-3.1-0.4-4.5-0.6c-1.4-0.2-2.8-0.5-4-0.8
	c-1.2-0.2-2.4-0.5-3.3-0.8c-1-0.2-1.8-0.5-2.5-0.7C188.2,564.1,187.4,563.9,187.4,563.9L187.4,563.9z M127.1,591.4
	c0,0,0.6,0.2,1.9,0.7c1.2,0.5,3.1,1,5.4,1.7c1.2,0.3,2.5,0.6,3.9,1c1.4,0.3,3,0.6,4.6,1c1.7,0.3,3.4,0.6,5.3,1
	c1.9,0.3,3.8,0.6,5.9,1c4.1,0.6,8.6,1.3,13.3,1.9c4.7,0.6,9.7,1.1,14.9,1.7c5.2,0.5,10.5,1.1,15.9,1.4c5.4,0.2,11,0.2,16.5,0.1
	s11-0.4,16.5-0.8c5.4-0.4,10.8-0.8,16-1.3s10.2-1,14.9-1.6c4.7-0.6,9.2-1.2,13.3-1.9c2.1-0.3,4-0.6,5.9-1c1.9-0.3,3.6-0.6,5.3-0.9
	c3.3-0.6,6.2-1.2,8.6-1.7s4.2-0.9,5.5-1.2s2-0.4,2-0.4s-0.7,0.2-1.9,0.5c-1.3,0.3-3.1,0.9-5.5,1.4c-2.4,0.6-5.2,1.3-8.5,2
	s-7,1.5-11.2,2.2c-4.1,0.7-8.6,1.5-13.3,2.2c-4.7,0.7-9.7,1.4-14.9,1.9c-5.2,0.5-10.5,1-16,1.4c-5.4,0.4-11,0.8-16.6,0.9
	c-5.6,0.1-11.1,0-16.6-0.2c-5.5-0.3-10.8-0.9-16-1.5c-10.4-1.2-20-2.7-28.2-4.2c-2-0.4-4-0.8-5.9-1.1c-1.9-0.4-3.6-0.8-5.3-1.2
	c-1.6-0.4-3.2-0.8-4.6-1.2c-1.4-0.4-2.7-0.8-3.9-1.1c-1.2-0.4-2.2-0.7-3.1-1c-0.9-0.3-1.6-0.6-2.2-0.9
	C127.8,591.7,127.1,591.4,127.1,591.4L127.1,591.4z M60.2,110.4c0,0,1.1,1.4,3.2,4s5.1,6.4,8.9,11.2c7.6,9.7,18.5,23.7,31.5,40.4
	c6.5,8.4,13.6,17.4,21.2,26.8c7.6,9.5,15.8,19.3,24.3,29.4c8.6,10.1,17.7,20.3,27.1,30.5c4.7,5.1,9.5,10.2,14.6,15
	c2.6,2.4,5.2,4.7,8,6.5c1.4,0.9,2.8,1.8,4.3,2.1c0.6,0.1,1.5,0.2,2.3,0.2s1.6,0,2.4-0.2c3.3-0.4,6.5-1.6,9.6-3.1s6-3.3,8.8-5.4
	c5.5-4.1,10.5-9,14.9-14.3c9.1-10.6,17.7-21.1,25.9-31.5c8.2-10.4,16.1-20.5,23.6-30c7.5-9.6,14.6-18.6,21.2-26.9
	c6.6-8.3,12.8-15.8,18.3-22.4c2.8-3.3,5.4-6.4,7.8-9.2s4.7-5.4,6.7-7.7c2.1-2.3,3.9-4.4,5.5-6.2s3-3.3,4.1-4.5
	c2.2-2.4,3.4-3.7,3.4-3.7s-1.2,1.3-3.3,3.8c-1.1,1.3-2.4,2.8-4,4.6c-1.5,1.8-3.3,3.9-5.3,6.3c-2,2.3-4.2,5-6.5,7.9
	c-2.4,2.9-4.9,6-7.6,9.4c-5.4,6.7-11.3,14.4-17.9,22.7c-6.5,8.4-13.4,17.5-20.8,27.2s-15.1,19.9-23.3,30.3
	c-8.2,10.4-16.8,21.1-25.8,31.7c-4.5,5.4-9.6,10.5-15.3,14.8c-2.9,2.1-5.9,4.1-9.2,5.7c-3.3,1.6-6.8,2.9-10.5,3.4
	c-0.9,0.1-1.9,0.2-2.9,0.2s-1.9-0.1-3-0.3l-0.7-0.2c-0.2-0.1-0.5-0.2-0.7-0.3c-0.5-0.2-0.9-0.4-1.3-0.6c-0.8-0.4-1.6-0.9-2.4-1.5
	c-3-2.1-5.7-4.4-8.3-6.9c-5.2-4.9-10-10.1-14.7-15.2c-9.4-10.3-18.5-20.6-27-30.7c-8.6-10.1-16.6-20.2-24.1-29.7
	c-7.5-9.6-14.4-18.7-20.9-27.2c-6.4-8.4-12.2-16.3-17.3-23.2s-9.6-12.9-13.3-17.9C64.4,116.1,60.2,110.4,60.2,110.4L60.2,110.4z"/>
<path d="M73.5,123.4h11.8c3.8,0,8.3,0,13.5,0.1s11.1,0.2,17.6,0.3c6.4,0.2,13.4,0.3,20.8,0.6s15.1,0.7,23.2,1.1
	c8,0.4,16.3,0.8,24.8,0.9c4.2,0.1,8.5,0.1,12.8,0.2h12.9c4.3,0,8.6-0.1,12.9-0.1h12.8c8.4,0,16.8,0,24.8-0.1s15.8-0.1,23.2-0.2
	c3.7,0,7.3-0.1,10.7-0.2c1.7-0.1,3.4-0.1,5.1-0.2c0.8-0.1,1.6-0.1,2.4-0.2l2.4-0.3c6.4-0.7,12.3-1.3,17.5-1.8s9.7-1,13.5-1.3
	c3.7-0.3,6.7-0.6,8.7-0.7c2-0.2,3.1-0.2,3.1-0.2v0.3c0,0-1.1,0.2-3,0.5c-2,0.3-4.9,0.8-8.6,1.4c-3.7,0.6-8.2,1.2-13.4,2
	c-5.2,0.8-11,1.6-17.4,2.5l-2.4,0.3c-0.8,0.1-1.7,0.2-2.5,0.3c-1.7,0.2-3.4,0.3-5.2,0.4c-3.5,0.2-7.1,0.3-10.8,0.4
	c-7.4,0.2-15.2,0.2-23.2,0.2c-8.1-0.1-16.4-0.2-24.8-0.4c-4.2-0.1-8.5-0.2-12.8-0.4s-8.6-0.3-12.9-0.5s-8.6-0.3-12.8-0.5
	c-4.3-0.1-8.5-0.3-12.8-0.4c-8.4-0.2-16.8-0.3-24.8-0.3s-15.8,0-23.2-0.1s-14.3-0.4-20.8-0.7c-6.4-0.3-12.3-0.5-17.5-0.8
	s-9.8-0.6-13.5-0.9c-3.7-0.3-6.7-0.5-8.7-0.7s-3.1-0.3-3.1-0.3L73.5,123.4L73.5,123.4z"/>
<path class="st2" d="M350.5,137.9c25.8,14.6,62.2,9.3,83.1-12.5C474.3,83,446.9,7.9,387.2,5.7c-14.1-0.5-26.2,0-39,6
	c-2.5,1.2-6.8,6.2-9.1,7.7c-11.7,8-20.3,24.4-23,37.9c-5.5,26.7,5.7,56.4,24.8,74.3"/>
<path class="st3" d="M375.4,71.1c0.5,4.5,3.7,8.5,7.9,10.2c1.4,0.5,2.9,0.8,4.3,0.6c1.3-0.2,2.6-0.8,3.7-1.6
	c6-4.2,8.1-16.9,0.8-21.2C384.4,54.4,374.5,63.1,375.4,71.1L375.4,71.1z"/>
<path d="M380.3,80.7c0,0-0.4,2.3-1.1,6.3s-1.6,9.7-2.5,16.5c-0.5,3.4-1,7.1-1.4,11.1c-0.2,2-0.5,4-0.7,6c-0.1,1-0.2,2.1-0.3,3.1
	c-0.1,1.1-0.2,2.1-0.3,3.1c0,1,0.1,2,0.5,2.8c0.4,0.9,1,1.7,1.7,2.4c1.5,1.5,3.2,2.7,5.2,3.6c3.9,1.8,8.5,2.2,12.9,1.6
	c4.4-0.6,8.7-2.3,12.1-5c1.7-1.4,3.1-3,4-4.8c0.1-0.2,0.2-0.5,0.3-0.7c0.1-0.3,0.2-0.5,0.3-0.8c0.2-0.5,0.3-1,0.4-1.5
	c0.2-1,0.4-2,0.4-3.1c0.1-4.1-1.2-8.1-2.9-11.6s-3.8-6.6-5.6-9.6c-3.6-5.9-6.5-10.9-8.6-14.4c-2-3.5-3.2-5.5-3.2-5.5
	s1.3,1.9,3.5,5.3s5.4,8.2,9.2,14c1.9,2.9,4,6,5.9,9.5s3.5,7.7,3.4,12.3c0,1.1-0.1,2.3-0.4,3.4c-0.1,0.6-0.3,1.1-0.5,1.7
	c-0.1,0.3-0.2,0.5-0.3,0.8c-0.1,0.3-0.3,0.5-0.4,0.8c-1.1,2.1-2.6,4-4.5,5.5c-3.7,3-8.3,4.8-13,5.5s-9.7,0.2-14-1.8
	c-1.1-0.5-2.1-1.1-3.1-1.8c-0.5-0.4-1-0.7-1.4-1.1l-0.6-0.6l-0.3-0.3l-0.3-0.3c-0.8-0.9-1.6-1.8-2-3c-0.5-1.2-0.6-2.5-0.6-3.6
	c0.1-1.2,0.2-2.2,0.3-3.3c0.1-1.1,0.3-2.1,0.4-3.1c0.3-2.1,0.6-4.1,0.8-6c0.6-3.9,1.2-7.6,1.8-11c1.2-6.8,2.4-12.5,3.3-16.4
	c0.4-2,0.8-3.5,1.1-4.6C380.2,81.2,380.3,80.7,380.3,80.7L380.3,80.7z M396.4,75.9c0,0,0,0.1,0.1,0.4c0.1,0.2,0.3,0.6,0.6,1
	c0.6,0.8,1.7,1.7,3.1,2.8c2.9,2.3,7,5.6,11.4,10c2.2,2.2,4.6,4.7,6.9,7.5c1.2,1.4,2.3,2.8,3.6,4.1c1.3,1.2,2.8,2.3,4.5,2.8
	c0.4,0.1,0.8,0.2,1.3,0.3c0.4,0,0.9,0.1,1.3,0c0.9-0.1,1.8-0.3,2.6-0.6c0.9-0.4,1.7-0.8,2.4-1.4c0.4-0.3,0.7-0.6,1.1-0.9l1-1
	c2.5-3,4-6.9,5.1-10.8c1.1-3.9,1.5-8.1,1.4-12.1c-0.1-2-0.3-4-0.7-5.9c-0.2-1-0.4-1.9-0.8-2.4c-0.5-0.6-1.2-1.1-2-1.5
	s-1.8-0.7-2.7-1.1c-0.9-0.3-1.8-0.6-2.6-0.9c-0.9-0.2-1.8-0.5-2.7-0.7s-1.8-0.4-2.6-0.5c-3.5-0.6-6.9-0.9-10-1
	c-6.2-0.2-11.5,0.1-15.1,0.4c-3.7,0.3-5.7,0.4-5.7,0.4s0.5-0.1,1.5-0.2s2.4-0.4,4.2-0.6c1.8-0.2,4-0.5,6.6-0.7
	c2.5-0.2,5.4-0.4,8.6-0.4c3.2,0,6.6,0.2,10.2,0.7c0.9,0.1,1.8,0.3,2.7,0.5s1.8,0.4,2.8,0.7c0.9,0.3,1.9,0.5,2.8,0.9
	c0.9,0.4,1.8,0.6,2.8,1.1c0.9,0.4,2,1,2.7,2c0.8,1.1,1,2.2,1.2,3.2c0.4,2,0.7,4.1,0.8,6.2c0.2,4.2-0.2,8.5-1.4,12.7
	c-0.6,2.1-1.3,4.1-2.2,6c-0.9,2-2,3.9-3.4,5.5c-0.4,0.4-0.7,0.8-1.1,1.2c-0.4,0.3-0.8,0.7-1.3,1c-0.9,0.7-1.9,1.2-2.9,1.6
	c-1,0.4-2.1,0.6-3.2,0.7c-0.5,0-1.1,0-1.7-0.1c-0.5-0.1-1.1-0.2-1.6-0.3c-2.1-0.6-3.8-2-5.1-3.3c-1.4-1.4-2.5-2.9-3.6-4.3
	c-2.2-2.8-4.4-5.4-6.6-7.7c-4.2-4.6-8.1-8.2-10.9-10.5c-1.4-1.2-2.5-2.2-3-3c-0.3-0.4-0.4-0.8-0.5-1C396.4,76,396.4,75.9,396.4,75.9
	L396.4,75.9z M396.7,59.5c0,0,1.8-0.5,4.9-1.3s7.6-2,12.9-3.4c2.7-0.7,5.6-1.4,8.6-2.2c1.5-0.4,3-1,4.4-1.7s2.7-1.7,3.5-3
	c0.2-0.3,0.4-0.7,0.6-1c0.1-0.2,0.2-0.4,0.2-0.6c0.1-0.2,0.1-0.3,0.2-0.5c0.2-0.7,0.3-1.5,0.3-2.3c-0.1-1.6-0.5-3.3-1.3-4.7
	c-1.6-3-4.3-5.4-7.1-7.8c-2.7-2.4-5.5-4.9-8.2-7.3c-1.3-1.1-2.8-2-4.2-2.1c-1.6-0.1-2.9,0.7-4.1,1.8c-1.2,1.1-2.2,2.4-3.3,3.7
	c-1,1.3-2,2.6-2.9,3.8c-1.8,2.6-3.4,5.1-4.8,7.4c-2.8,4.7-4.7,8.9-6,11.9c-1.2,3-1.9,4.7-1.9,4.7s0.1-0.4,0.4-1.3
	c0.2-0.8,0.6-2.1,1.1-3.6s1.2-3.4,2.1-5.5s1.9-4.4,3.2-6.9c1.3-2.5,2.8-5.1,4.6-7.7c0.9-1.3,1.8-2.7,2.8-4s2.1-2.7,3.4-4
	c0.7-0.6,1.5-1.2,2.4-1.6c0.5-0.2,0.9-0.4,1.4-0.5c0.2-0.1,0.5-0.1,0.8-0.1h0.7c2.3,0.1,4,1.3,5.4,2.4c2.8,2.4,5.5,4.8,8.3,7.3
	c2.7,2.4,5.7,5,7.5,8.5c0.9,1.7,1.4,3.6,1.4,5.6c0,1-0.1,2-0.4,2.9c-0.1,0.2-0.2,0.5-0.2,0.7l-0.3,0.6c-0.3,0.5-0.5,0.9-0.8,1.3
	c-1.1,1.6-2.7,2.7-4.2,3.4c-1.6,0.8-3.2,1.3-4.7,1.7c-3.1,0.8-6,1.3-8.7,1.9c-5.4,1.2-9.9,2-13.1,2.7
	C398.5,59.1,396.7,59.5,396.7,59.5L396.7,59.5z M383.9,56.7c0,0-0.3-1.9-0.8-5.2s-1.2-8.1-1.9-13.8c-0.4-2.8-0.8-6-1.2-9.2
	c-0.5-3.2-1.3-6.6-3.2-9.4c-1.8-2.8-4.8-5.2-8.3-5.2c-1.7-0.1-3.4,0.4-5.1,1.1s-3.4,1.5-5.1,2.4c-3.3,1.8-6.4,3.9-8.3,6.9
	c-0.9,1.5-1.4,3.1-1.4,4.8c0,1.6,0.4,3.4,1.1,4.9c1.4,3.1,3.7,5.7,6.1,7.9s4.8,4.3,6.7,6.5c1.9,2.3,3.3,4.4,4.8,6.2
	c1.4,1.8,2.7,3.4,3.9,4.5c1.2,1.2,2.2,2,2.9,2.6c0.7,0.6,1.1,0.8,1.1,0.8s-0.4-0.2-1.2-0.7c-0.7-0.5-1.8-1.3-3.1-2.4
	c-1.3-1.1-2.7-2.6-4.2-4.4c-0.8-0.9-1.6-1.8-2.4-2.8s-1.7-2.1-2.6-3.1c-1.9-2-4.4-3.9-6.9-6.1c-2.5-2.2-5.1-4.8-6.7-8.2
	c-0.8-1.7-1.4-3.6-1.3-5.7c0-2,0.6-4,1.7-5.8c2.1-3.5,5.6-5.8,9-7.7c1.8-0.9,3.5-1.7,5.3-2.5c1.8-0.7,3.8-1.2,6-1.2
	c2,0.1,4.1,0.8,5.7,2c1.6,1.1,2.9,2.6,4,4.2c2,3.3,2.7,6.9,3.2,10.1c0.4,3.3,0.6,6.4,0.9,9.3c0.5,5.7,0.9,10.5,1.2,13.8
	C383.8,54.8,383.9,56.7,383.9,56.7L383.9,56.7z M374.6,65.8c0,0-1.7-0.9-4.7-2.5s-7.3-3.8-12.6-6.3c-2.6-1.3-5.5-2.6-8.6-3.9
	c-1.5-0.7-3.1-1.4-4.7-2s-3.3-1.5-4.9-1.9c-0.8-0.2-1.6-0.3-2.3-0.1c-0.5,0.1-0.8,0.2-1.1,0.4c-0.4,0.2-0.7,0.4-1,0.6
	c-1.3,1-2.2,2.6-2.9,4.2c-0.7,1.7-1.2,3.5-1.7,5.4s-0.8,3.7-1.1,5.6c-0.6,3.8-0.8,7.6-0.6,11.4c0.1,1.9,0.3,3.7,1,5.2
	c0.2,0.4,0.4,0.7,0.6,1l0.2,0.2l0.1,0.1l0.1,0.1c0.2,0.2,0.3,0.4,0.5,0.4c0.6,0.5,1.3,0.8,2.1,1.1c1.6,0.5,3.3,0.4,5,0.3
	c1.7-0.2,3.4-0.5,5-0.9c3.2-0.7,6.3-1.5,9.1-2.3c5.6-1.6,10.2-3.3,13.3-4.6c3.2-1.3,4.9-2.1,4.9-2.1s-0.4,0.2-1.2,0.7
	c-0.8,0.4-2,1.1-3.5,1.8c-3.1,1.5-7.5,3.5-13.1,5.3c-2.8,0.9-5.8,1.8-9.1,2.6c-0.8,0.2-1.6,0.4-2.5,0.6c-0.9,0.2-1.7,0.4-2.6,0.5
	c-1.8,0.2-3.7,0.3-5.7-0.2c-1-0.3-1.9-0.7-2.8-1.4c-0.2-0.2-0.4-0.3-0.6-0.5l-0.1-0.1l-0.2-0.2l-0.3-0.3c-0.3-0.4-0.6-0.9-0.8-1.4
	c-0.9-1.9-1.1-4-1.2-5.9c-0.2-3.9,0-7.9,0.6-11.8c0.3-2,0.7-3.9,1.2-5.8s1-3.8,1.8-5.7c0.8-1.8,1.9-3.7,3.6-5
	c0.4-0.3,0.9-0.6,1.4-0.8s1.1-0.4,1.5-0.5c1.1-0.2,2.2-0.1,3.1,0.2c1.9,0.5,3.5,1.4,5.1,2.1c1.6,0.7,3.2,1.5,4.7,2.2
	c3,1.4,5.9,2.9,8.4,4.3c5.2,2.7,9.4,5.3,12.3,7c1.5,0.9,2.6,1.6,3.3,2.1C374.2,65.5,374.6,65.8,374.6,65.8L374.6,65.8z M374.6,74.3
	c0,0-0.2,0.5-0.6,1.3c-0.4,0.9-1.2,2.1-2.3,3.5c-1.2,1.4-2.8,2.9-4.8,4.5c-2,1.5-4.4,3.1-7,4.8s-5.4,3.5-7.9,5.8
	c-2.6,2.3-5,5.1-7.4,8.1c-0.6,0.8-1.2,1.5-1.8,2.3c-0.6,0.7-1.1,1.5-1.6,2.4c-1,1.6-1.7,3.4-1.7,5.1c0,0.9,0.2,1.7,0.7,2.5
	c0.4,0.7,1.1,1.3,1.8,1.9c1.5,1.1,3.4,2,5.2,3l5.4,3l2.7,1.5c0.9,0.5,1.8,1,2.6,1.4c0.8,0.4,1.6,0.6,2.3,0.4
	c0.6-0.2,1.1-0.7,1.6-1.5c0.4-0.8,0.8-1.7,1.2-2.6c0.4-0.9,0.7-1.8,1.1-2.7c2.8-7.1,5-14,6.9-19.9s3.6-10.8,4.8-14.1
	c0.6-1.7,1.1-3,1.5-3.9s0.5-1.4,0.5-1.4s-0.6,2-1.7,5.4c-0.5,1.7-1.1,3.8-1.8,6.2c-0.7,2.4-1.4,5.1-2.3,8.1
	c-1.7,5.9-3.7,12.9-6.4,20.2c-0.3,0.9-0.7,1.8-1.1,2.7s-0.7,1.8-1.2,2.8c-0.3,0.5-0.6,1-1,1.4s-1,0.9-1.7,1c-1.3,0.4-2.6,0-3.6-0.5
	s-1.9-1-2.8-1.5l-2.7-1.5l-5.4-3l-2.7-1.5c-0.9-0.5-1.8-1-2.7-1.7c-0.9-0.7-1.7-1.4-2.4-2.5c-0.6-1-0.9-2.2-0.9-3.4
	c0-2.4,1-4.4,2-6.1c0.5-0.9,1.1-1.7,1.8-2.5c0.6-0.8,1.2-1.5,1.9-2.3c2.5-3,5-5.8,7.8-8.1c2.7-2.4,5.7-4.1,8.3-5.7
	c2.7-1.6,5.1-3,7.2-4.4s3.7-2.8,4.9-4.1c0.3-0.3,0.6-0.6,0.8-0.9c0.2-0.3,0.5-0.6,0.7-0.9c0.4-0.6,0.8-1,1-1.5
	C374.3,74.7,374.6,74.3,374.6,74.3L374.6,74.3z"/>
<path class="st3" d="M346.8,123.3c-6.3-3.4-11.5-9.2-14.9-15.6c-4.5-8.5-6.4-18.1-7.6-27.6c-3-23.6,7-54.2,30.8-63.8
	c5.7-2.3,11.8-3.2,17.9-3.8c12.5-1.2,25.4-1,37,3.8c20.6,8.5,35.4,30.1,39.1,52.1c1.6,9.8,1.2,20.1-2.7,29.3
	c-5.7,13.6-17.8,23.3-30.1,31.4c-10.7,7.1-23.3,13.7-35.7,10.6c-8.6-2.2-16.6-0.7-24.8-4.1"/>
</svg>
