<?xml version="1.0" encoding="utf-8"?>
<!-- Generator: Adobe Illustrator 19.2.0, SVG Export Plug-In . SVG Version: 6.00 Build 0)  -->
<svg version="1.1" id="Layer_1" xmlns="http://www.w3.org/2000/svg" xmlns:xlink="http://www.w3.org/1999/xlink" x="0px" y="0px"
	 viewBox="0 0 460 586.9" style="enable-background:new 0 0 460 586.9;" xml:space="preserve">
<style type="text/css">
	.st0{fill:none;stroke:#000000;stroke-width:5;stroke-miterlimit:10;}
	.st1{opacity:0.9;fill:url(#SVGID_1_);enable-background:new    ;}
	.st2{fill:url(#SVGID_2_);}
	.st3{fill:none;}
	.st4{fill:none;stroke:#000000;stroke-width:3;stroke-miterlimit:10;}
	.st5{fill:none;stroke:#000000;stroke-width:1.292;stroke-miterlimit:10;}
	.st6{fill:none;stroke:#000000;stroke-miterlimit:10;}
	.st7{fill:none;stroke:#000000;stroke-width:2;stroke-miterlimit:10;}
</style>
<path class="st0" d="M6588.6-683.7c0.3,38.5,0.2,82.4-5.7,120.5c-2.3,14.7-3.7,31.7-10.6,44.9c-9.4,17.9-18.6,35.9-34,49.5
	c-5.5,4.9-11.5,9.2-17.9,12.8c-4.2,2.3-15.3,5.1-15.9,10.8c-0.4,3.6,3.8,5.7,6.9,7.6c6.9,4.3,10.9,12.3,11.6,20.4
	c1.5,15.4-5.6,30.7-18.9,38.8c-0.8,0.5-1.6,1-1.9,1.8c-0.7,2.1,2.1,3.4,4.2,3.8c12.1,2.1,24,5,35.7,8.7c7.7,2.4,24.3,10.6,12,18.5
	c-7.7,4.9-17,6.2-26,7.3c-24.7,3.1-49.7,6.2-74.5,3.9c-5.6-0.5-11.2-1.4-16.8-2.2l-22.5-3.3c-5.3-0.8-11.8-2.7-12.7-7.9
	c-1.7-10.2,16.6-15.1,23.6-17.2c4.9-1.5,36.5-4.6,35.6-9.3c-0.5-2.4-2.8-3.9-4.8-5.4c-8.9-6.4-15-16.4-16.6-27.2
	c-1.6-10.8,1.3-22.2,7.9-30.9c2.2-2.9,4.9-6,4.4-9.6c-0.2-1.5-1-2.9-2-4.1c-5.1-6.7-15.9-9.5-22.8-14.7c-7.9-6-15.2-12.8-21.6-20.4
	c-12.5-14.5-22.1-31.5-27.6-49.9c-5.2-17.2-6.9-35.3-8.2-53.2c-2.3-31-3.6-62-3.8-93.1c20.2-2.4,42-1.8,62.4-1.4
	C6480.9-683.1,6588.6-685.8,6588.6-683.7L6588.6-683.7z"/>
<path d="M6462-368.8v1.9c0,0.6,0.1,1.3,0.6,1.9c0.4,0.6,1.2,0.8,2.2,0.8c2.1-0.1,4.5-0.2,7.1-0.2c1.3,0,2.7-0.1,4-0.1
	c1.4-0.1,2.8-0.1,4.1-0.2c1.4-0.1,2.8-0.1,4.1-0.2c1.4-0.1,2.7-0.1,4-0.2c2.6-0.1,5-0.2,7.1-0.3c2-0.1,3.7-0.6,4.6-1.3
	c0.4-0.4,0.7-0.8,0.8-1.1c0.1-0.3,0.2-0.5,0.2-0.5v0.5c-0.1,0.3-0.2,0.8-0.6,1.3s-1.1,1-1.9,1.4s-1.8,0.7-2.8,0.8
	c-2.1,0.4-4.5,0.7-7.1,0.9c-1.3,0.1-2.7,0.3-4,0.4c-1.4,0.1-2.8,0.2-4.2,0.2c-1.4,0-2.8,0.1-4.2,0.1h-4.1c-2.6-0.1-5.1-0.2-7.2-0.4
	c-0.5-0.1-1.1-0.1-1.6-0.4s-0.9-0.7-1.1-1.1c-0.4-0.9-0.4-1.7-0.3-2.3s0.2-1.1,0.3-1.4C6461.9-368.6,6462-368.8,6462-368.8
	L6462-368.8z M6461.6-453.4c0,0,0.6,0.2,1.6,0.5c0.5,0.2,1.2,0.3,1.9,0.5s1.6,0.4,2.4,0.5c0.9,0.2,1.9,0.3,2.9,0.5
	c1,0.1,2.1,0.2,3.3,0.3c1.1,0.1,2.3,0.1,3.5,0.2h3.6c1.2,0,2.5,0,3.7-0.1c1.2,0,2.4-0.1,3.6-0.1c2.3-0.1,4.5-0.1,6.3-0.3
	c1.8-0.2,3.2-0.6,4.1-1.2c0.4-0.3,0.8-0.6,1-0.8l0.3-0.3c0,0-0.1,0.1-0.2,0.4c-0.2,0.3-0.4,0.6-0.8,1c-0.8,0.8-2.3,1.6-4.2,2
	c-0.9,0.2-2,0.4-3,0.5c-1.1,0.1-2.2,0.3-3.3,0.4l-3.6,0.3c-1.2,0.1-2.5,0.1-3.7,0.2c-1.3,0-2.5,0-3.7-0.1c-0.6,0-1.2-0.1-1.8-0.1
	c-0.6-0.1-1.2-0.1-1.8-0.2c-1.2-0.1-2.3-0.4-3.4-0.6c-0.5-0.1-1-0.3-1.5-0.4c-0.5-0.2-1-0.3-1.4-0.4c-1.8-0.6-3.2-1.3-4.2-1.8
	C6462.2-453.1,6461.6-453.4,6461.6-453.4L6461.6-453.4z M6411.5-351.3l0.3,0.3c0.2,0.2,0.5,0.4,1,0.6c0.9,0.5,2.3,1,4.2,1.4
	c1.9,0.4,4.2,0.7,6.8,1.1c2.6,0.4,5.6,0.7,8.9,1.1c3.3,0.3,6.8,0.7,10.6,1c3.7,0.3,7.7,0.5,11.8,0.7c8.2,0.3,17,0.5,25.7,0.6
	c4.4,0.1,8.8,0.1,13.1,0.2c4.3,0,8.5,0.1,12.6,0s8-0.4,11.7-0.8c3.7-0.5,7.2-1.1,10.4-1.7c6.4-1.4,11.6-3,15.2-4.3
	c1.8-0.7,3.2-1.2,4.2-1.6l1.5-0.6c0,0-0.5,0.2-1.4,0.7c-0.9,0.4-2.3,1.1-4.1,1.8c-3.5,1.5-8.7,3.5-15.1,5.1s-14.1,2.9-22.3,3.2
	c-4.1,0.2-8.4,0.2-12.7,0.2c-4.3,0-8.7-0.1-13.1-0.1c-4.4-0.1-8.8-0.2-13.1-0.3c-4.3-0.1-8.6-0.4-12.7-0.6c-4.1-0.3-8.1-0.6-11.8-1
	c-3.8-0.4-7.3-0.8-10.6-1.3c-1.6-0.3-3.2-0.5-4.7-0.7c-1.5-0.3-2.9-0.5-4.2-0.8c-2.6-0.5-4.9-1-6.8-1.5s-3.3-1.1-4.1-1.7
	c-0.4-0.3-0.7-0.5-0.9-0.7C6411.6-351.2,6411.5-351.3,6411.5-351.3L6411.5-351.3z"/>
<linearGradient id="SVGID_1_" gradientUnits="userSpaceOnUse" x1="6378.7998" y1="1538.6866" x2="6584.7002" y2="1538.6866" gradientTransform="matrix(1 0 0 -1 0 976.7957)">
	<stop  offset="1.800000e-02" style="stop-color:#801FE3"/>
	<stop  offset="1" style="stop-color:#B7A7FF"/>
</linearGradient>
<path class="st1" d="M6378.8-655.5c1.4,24.4,2.7,48.8,4.1,73.2c0.4,7.9,0.9,15.9,2.2,23.7c1.8,11.1,5.4,21.8,8.9,32.5
	c3,9.1,6,18.2,11.1,26.3c17.8,28.1,51.5,32.7,81.9,31.3c10.6-0.5,21.3-1.5,31.5-4.7c66.9-21.3,65.2-117,66.1-172.7
	c0-2.6,0.1-5.1,0.1-7.7C6516-651.4,6447.2-649.6,6378.8-655.5L6378.8-655.5z"/>
<path d="M6373.7-675.2c0,0,0.6,8.1,1.5,22.2c0.5,7.1,1,15.6,1.7,25.5c0.6,9.8,1.4,20.9,2.1,33.1c0.4,6.1,0.7,12.4,1.3,18.9
	c0.5,6.5,1.4,13.2,3,19.9s3.7,13.5,6,20.4c2.4,6.9,4.5,14,7.5,20.9c0.8,1.7,1.5,3.4,2.4,5.1c0.9,1.6,1.8,3.3,2.8,4.8
	c1.1,1.6,2.2,3.1,3.4,4.7c1.2,1.4,2.5,2.8,3.7,4.3c5.3,5.5,11.7,10,18.8,13.2c7.1,3.3,14.8,5.4,22.6,6.6c7.9,1.3,15.9,1.7,23.9,1.7
	c8-0.1,16.1-0.4,24-1.5c3.9-0.5,7.9-1.2,11.7-2.2c1-0.3,1.9-0.5,2.8-0.8l0.7-0.2h0.1l0.2-0.1l0.4-0.1l1.4-0.5l2.8-1
	c0.5-0.2,0.9-0.3,1.4-0.5l1.3-0.6c7.1-3.1,13.7-7.4,19.4-12.5c5.7-5.1,10.5-11.1,14.4-17.5c4-6.3,7.1-13.1,9.7-19.8
	c2.6-6.8,4.6-13.6,6.3-20.3c3.2-13.5,5-26.5,6.2-38.5c1.1-12.1,1.7-23.2,2-33c0.3-9.9,0.5-18.4,0.7-25.5c0.2-14.2,0.4-22.2,0.4-22.2
	s0,2,0.1,5.8c0,3.8,0.1,9.4,0.2,16.4c0,7.1,0,15.7-0.2,25.5c-0.1,9.9-0.5,21-1.5,33.1c-1,12.1-2.6,25.2-5.7,38.9
	c-1.6,6.8-3.6,13.7-6.1,20.6c-2.5,6.9-5.7,13.8-9.8,20.3c-4,6.5-9,12.7-14.8,18.1c-5.9,5.4-12.7,9.8-20.2,13.1l-1.4,0.6
	c-0.5,0.2-0.9,0.4-1.4,0.5l-2.8,1l-1.4,0.5l-0.4,0.1l-0.2,0.1l-0.2,0.1l-0.7,0.2c-1,0.3-2,0.6-2.9,0.8c-3.9,1-8,1.8-12,2.4
	c-8.1,1.1-16.2,1.5-24.4,1.6c-8.2,0-16.3-0.5-24.4-1.8c-8-1.3-16-3.5-23.3-7c-7.4-3.4-14.1-8.1-19.6-13.9c-1.3-1.5-2.6-3.1-3.9-4.6
	c-1.1-1.6-2.2-3.2-3.3-4.7c-2.2-3.4-3.9-6.8-5.4-10.4c-3-7.1-5.2-14.2-7.5-21.2c-2.2-7-4.3-13.9-5.8-20.7
	c-1.6-6.9-2.4-13.6-2.8-20.2c-0.5-6.6-0.7-12.9-1-18.9c-0.6-12.1-1.1-23.2-1.6-33.1s-0.8-18.4-1.2-25.5
	C6374-667.2,6373.7-675.2,6373.7-675.2L6373.7-675.2z"/>
<path d="M6374.1-659.8c0,0,0.8,0,2.4,0.1s3.8,0.2,6.7,0.3c2.9,0.2,6.4,0.3,10.5,0.5c4,0.2,8.6,0.3,13.6,0.5s10.4,0.3,16.1,0.5
	s11.7,0.2,17.9,0.4c6.2,0.1,12.6,0.1,19.2,0.2c6.5,0.1,13.2,0,19.8,0.1c6.6,0,13.3,0,19.8-0.1s13-0.1,19.2-0.2
	c12.5-0.1,24.1-0.2,34-0.3c10-0.1,18.3-0.1,24.1-0.1h9.1c0,0-0.8,0.1-2.4,0.2c-1.6,0.1-3.8,0.2-6.7,0.4c-5.8,0.3-14.1,0.8-24.1,1.3
	s-21.6,0.9-34,1.3c-6.2,0.1-12.7,0.4-19.2,0.4c-6.5,0.1-13.2,0.1-19.8,0.2c-6.6,0-13.3,0-19.8-0.2c-6.5-0.1-13-0.3-19.2-0.4
	c-6.2-0.2-12.3-0.4-18-0.8c-2.9-0.2-5.6-0.3-8.3-0.5c-2.7-0.2-5.3-0.4-7.8-0.5c-2.5-0.2-4.9-0.3-7.1-0.5c-2.3-0.2-4.4-0.4-6.4-0.6
	c-4-0.4-7.6-0.7-10.4-1c-2.9-0.3-5.2-0.6-6.7-0.7C6374.9-659.7,6374.1-659.8,6374.1-659.8L6374.1-659.8z"/>
<linearGradient id="SVGID_2_" gradientUnits="userSpaceOnUse" x1="232.2582" y1="400.8806" x2="232.2582" y2="718.0978" gradientTransform="matrix(1 0 0 -1 0 976.7957)">
	<stop  offset="0" style="stop-color:#E0DB99"/>
	<stop  offset="4.400000e-02" style="stop-color:#BFB47D"/>
	<stop  offset="9.300000e-02" style="stop-color:#9F9062"/>
	<stop  offset="0.15" style="stop-color:#83704A"/>
	<stop  offset="0.212" style="stop-color:#6B5436"/>
	<stop  offset="0.282" style="stop-color:#583E26"/>
	<stop  offset="0.363" style="stop-color:#4A2D19"/>
	<stop  offset="0.465" style="stop-color:#402210"/>
	<stop  offset="0.606" style="stop-color:#3A1B0B"/>
	<stop  offset="1" style="stop-color:#38190A"/>
</linearGradient>
<path class="st2" d="M171.6,263.3c23.3-1.1,46.7-1.8,70.2-1.8c32.9,0,71.5,3.1,103.1-2.8c-0.4,0,1.2,83,0.5,137.5
	c-0.4,30.7,5.5,31.8,1.3,99c-1.6,25.6-8,57.4-34,68.8c-24.3,10.6-57.1,13.8-83.4,10.9c-25-2.8-58.7-8.5-80.5-21.4
	c-4.9-2.9-9.6-5.3-13.6-9.6c-10.3-11-13.1-32.7-15-46.8c-2.1-15.2-0.2-31.3-1.8-46.6c-2-19.3-1.7-38.8-0.9-58.4
	c0.8-20.5,0.5-40.7,2.5-60.9c0.7-7.4,2.7-16.9,1.7-24.3c-1.1-7.8-4-35.4-5.4-43.3c2.2,2,11.2,1.7,14,1.9c4.7,0.4,9.5,0.4,14.2,0.1
	C153.5,265,162.5,263.7,171.6,263.3L171.6,263.3z"/>
<path class="st3" d="M111,258.3c2.2,2,11.2,1.7,14,1.9c4.7,0.4,9.5,0.4,14.2,0.1c9.1-0.5,18.1-1.8,27.2-2.2
	c23.3-1.1,46.7-1.8,70.2-1.8c32.9,0,71.5,3.1,103.1-2.8c-0.4,0,1.2,83,0.5,137.5c-0.4,30.7,5.5,31.8,1.3,99
	c-1.6,25.6-8,57.4-34,68.8c-24.3,10.6-57.1,13.8-83.4,10.9c-25-2.8-58.7-8.5-80.5-21.4c-4.9-2.9-9.6-5.3-13.6-9.6
	c-10.3-11-13.1-32.7-15-46.8c-2.1-15.2-0.2-31.3-1.8-46.6c-2-19.3-1.7-38.8-0.9-58.4c0.8-20.5,0.5-40.7,2.5-60.9"/>
<path class="st0" d="M366.3,276.3c0-3.1,0.1-6.2,0.1-9.3c0-11.8,0-24.1-4.8-34.9c-8-18.3-22.1-29.3-23.3-50.3
	c-0.8-13.9,1.3-27.9,0.6-41.8c-0.5-9.7,7.2-24.7-5.8-27.3c-12.1-2.5-177.7-1.5-194.9-1.1c-16,0.3-22.8,2-25.2,12.2
	c-1,2.8-1.2,6.3-1.1,10v3.1l0.2,0.1c0.5,6.5,1.8,13.3,2,17.4c0.7,13.3,1.4,27.2,1.2,40.4c-0.2,11.4-3.7,21.8-10.4,31
	C84.5,253.9,90.3,295,90.3,327.7c0,12.2,1.2,23.5,1.8,35.6c2.7,57.9-9.1,118.9,11.7,174.8c5,13.5,15.6,23.9,28,30.8
	c9.5,5.2,20.6,12.9,31.2,13.8c7.3,0.7,14.7,1.4,22.2,1.1c15.1-0.6,26.6-2.7,42.1-1.8c33,2.1,66.3,1,96.6-10.9
	c34.9-13.8,38.6-55.5,43.1-87.5c5.1-36.6,3-71.6-0.4-108C363.8,343,365.9,309.1,366.3,276.3L366.3,276.3z"/>
<path d="M121.8,121.6c0,0,0,1.4,0.1,3.8c0,2.4,0,5.9-0.2,10.1c-0.1,4.2-0.3,9-0.3,14.2c0,2.6,0,5.3,0.2,8c0.1,2.7,0.4,5.4,0.8,8.2
	c0.4,2.7,0.8,5.5,1.3,8.2s0.9,5.4,1.4,7.9c0.4,2.6,0.8,5.1,1.2,7.5c0.3,2.4,0.6,4.7,0.8,6.8c0.2,2.1,0.3,4.1,0.3,5.8v4.5
	c0,1.3-0.1,2.3-0.2,2.9c-0.1,0.7-0.1,1-0.1,1c-0.1,1.4-1.3,2.4-2.7,2.3s-2.4-1.3-2.3-2.7v-0.2c0,0,0-0.3,0.1-0.9s0.2-1.5,0.3-2.7
	s0.2-2.6,0.3-4.2v-5.6c-0.1-2-0.2-4.3-0.4-6.6c-0.2-2.4-0.4-4.8-0.7-7.4s-0.6-5.3-0.9-8c-0.3-2.7-0.6-5.5-0.8-8.3s-0.3-5.6-0.3-8.4
	s0.1-5.5,0.3-8.1c0.3-5.2,0.8-10.1,1.1-14.2c0.4-4.2,0.6-7.6,0.7-10L121.8,121.6L121.8,121.6z M330.8,121.6c0,0,0.4,1.3,0.8,3.5
	c0.2,1.1,0.4,2.5,0.5,4c0.2,1.6,0.3,3.3,0.3,5.2s0.1,4-0.1,6.2s-0.7,4.5-1.1,6.9c-0.5,2.4-0.8,4.8-0.8,7.3c-0.1,2.5,0.1,5.1,0.4,7.6
	c0.3,2.6,0.6,5.1,0.7,7.6s0.2,5,0.4,7.3c0.1,2.4,0.2,4.7,0.1,6.8c0,2.2-0.1,4.2-0.2,6.1s-0.2,3.6-0.3,5.2c0,0.8-0.1,1.5-0.2,2.2
	s-0.1,1.3-0.1,1.9c-0.2,2.2-0.4,3.6-0.4,3.6l-0.5,0.1c0,0-0.5-1.2-1.1-3.4c-0.3-1.1-0.7-2.4-1-4c-0.3-1.5-0.6-3.3-0.9-5.2
	c-0.1-1-0.3-2-0.4-3s-0.2-2.1-0.3-3.2c-0.2-2.2-0.2-4.5-0.1-6.9s0.2-4.9,0.4-7.4c0.1-1.3,0.2-2.5,0.4-3.8c0.2-1.3,0.4-2.5,0.6-3.8
	c0.4-2.5,0.7-5.1,0.8-7.6c0.1-2.5,0-5-0.3-7.4s-0.6-4.7-0.6-6.9s0.1-4.3,0.3-6.2c0.3-3.8,0.8-7,1.3-9.2c0.4-2.2,0.8-3.5,0.8-3.5
	L330.8,121.6L330.8,121.6z"/>
<path d="M297.2,128.6c0,0-1.9,0.1-5.6,0.3c-3.6,0.2-9,0.5-15.8,0.7s-15.1,0.6-24.6,0.9c-9.5,0.3-20.2,0.6-31.9,0.8
	c-11.7,0.2-24.3,0.5-37.7,0.7c-13.4,0.3-27.5,0.7-42,1.5c-3.6,0.2-7.3,0.4-11,0.7c-1.8,0.1-3.7,0.2-5.5,0.4s-3.7,0.5-5.5,0.9
	s-3.6,0.8-5.4,1.4c-1.7,0.6-3.5,1.4-4.7,2.8c-0.5,0.7-0.7,1.6-0.5,2.4c0.3,0.8,0.9,1.5,1.5,2.2l0.5,0.5c0.1,0.1,0.4,0.3,0.6,0.4
	c0.4,0.2,0.8,0.4,1.2,0.5c0.9,0.2,1.8,0.3,2.8,0.4c3.8,0.2,7.6-0.3,11.5-0.6c3.9-0.1,7.7,0,11.6-0.1c7.7-0.1,15.5-0.3,23.3-1
	c7.8-0.8,15.5-1.2,23.3-1.5c7.7-0.4,15.5-0.8,23.1-1.2c15.3-0.7,30.4-1.2,45-1.7s28.7-0.9,42-1.3c6.7-0.3,13.2-0.5,19.5-0.8
	c1.6-0.1,3.1-0.1,4.7-0.2c1.7-0.1,3.2,0.1,4.7,0.3c3,0.3,6,0.5,8.9,0.7c2.9,0.1,5.7,0.2,8.5,0c2.7-0.2,5.4-0.6,7.6-1.8
	c1.1-0.6,1.9-1.5,2.2-2.5c0.2-0.5,0.2-1.1,0.2-1.7v-0.4c0-0.2-0.1-0.3-0.1-0.4c-0.1-0.2-0.2-0.5-0.4-0.7c-0.7-0.9-1.7-1.5-2.8-1.9
	c-1.1-0.4-2.2-0.8-3.4-1c-4.6-1-9-1.2-13.1-1.3s-7.9,0-11.3,0.1C311.5,127.4,304.3,127.9,297.2,128.6L297.2,128.6z M297.2,128.4
	c0,0,1.9-0.2,5.6-0.5c3.6-0.3,9-0.8,15.8-1.2c3.4-0.2,7.2-0.3,11.3-0.3c4.1,0,8.6,0.1,13.3,1c1.2,0.2,2.4,0.5,3.6,1s2.4,1,3.3,2.2
	c0.2,0.3,0.4,0.6,0.6,1c0.1,0.2,0.1,0.4,0.2,0.5c0,0.1,0,0.1,0.1,0.3v0.3c0.1,0.7,0.1,1.4-0.1,2.1c-0.4,1.4-1.5,2.6-2.7,3.3
	c-1.2,0.7-2.6,1.2-4,1.5s-2.8,0.5-4.2,0.7c-2.8,0.3-5.7,0.3-8.7,0.2c-2.9-0.1-5.9-0.3-8.9-0.6c-1.5-0.1-3-0.3-4.5-0.2
	c-1.5,0.1-3.1,0.2-4.7,0.3c-6.3,0.4-12.8,0.6-19.5,0.9c-13.4,0.5-27.5,1-42.1,1.4s-29.7,0.8-45,1.4l-23.1,0.9
	c-7.7,0.3-15.5,0.6-23.3,1.2s-15.6,0.7-23.3,0.6c-3.9,0-7.8-0.1-11.6,0c-3.8,0.2-7.7,0.7-11.5,0.5c-1-0.1-1.9-0.2-2.9-0.4
	c-0.5-0.1-1-0.3-1.4-0.6c-0.2-0.1-0.4-0.2-0.6-0.4l-0.5-0.5c-0.7-0.7-1.4-1.5-1.7-2.4c-0.4-1-0.1-2.2,0.6-3c0.6-0.8,1.5-1.4,2.3-1.8
	c0.9-0.5,1.7-0.8,2.6-1.2c1.8-0.6,3.6-1.1,5.5-1.5c1.8-0.4,3.7-0.7,5.6-0.9c1.9-0.2,3.7-0.3,5.6-0.5c3.7-0.3,7.4-0.7,11-0.9
	c14.6-1.1,28.7-1.8,42-2.1c6.7-0.2,13.2-0.4,19.5-0.4s12.4-0.1,18.2-0.1c11.7,0,22.4-0.1,31.9-0.1c9.5-0.1,17.8-0.1,24.6-0.4
	c6.8-0.2,12.2-0.4,15.8-0.6C295.3,128.5,297.2,128.4,297.2,128.4L297.2,128.4z M184.7,184.1c7.1,0.3,14.1,1.2,21.2,1.6
	c3.5,0.2,7.1,0.3,10.6,0.2c3.5-0.1,7.1-0.4,10.6-0.6l21.2-1.2c7.1-0.4,14.2-0.7,21.3-0.9c7.1-0.2,14.2-0.5,21.3-0.5
	c7.1-0.1,14.2-0.1,21.3,0l21.3,0.2h5.3c1.8,0,3.5,0,5.2-0.3s3.3-0.9,4.4-2.1s1.6-2.9,1.6-4.6v0.1c-0.2-1.2-1-2.1-2.2-2.5
	c-1.1-0.4-2.4-0.3-3.7-0.3c-2.5,0.2-5.1,0.7-7.6,1c-5.2,0.5-10.3,0.1-15.4-0.3s-10.2-0.9-15.3-0.9c-2.5,0-5.1,0.2-7.7,0.3l-7.7,0.3
	c-10.3,0.4-20.5,0.6-30.8,0.7c-5.1,0-10.3,0.1-15.4,0.1s-10.3-0.1-15.4-0.2c-10.3-0.3-20.5-0.9-30.8-1.3c-5.1-0.2-10.2-0.4-15.4-0.5
	c-5.1-0.1-10.2-0.2-15.3-0.1c-5.1,0-10.2,0.2-15.3,0.4c-5.1,0.3-10.3,0.4-15.4,0.6c-5.1,0.1-10.2,0.3-15.3,0.6
	c-2.5,0.1-5.1,0.3-7.6,0.6c-1.2,0.2-2.5,0.4-3.7,0.7c-0.6,0.1-1.1,0.4-1.6,0.6c-0.2,0.1-0.4,0.3-0.6,0.4c-0.1,0.1-0.1,0.2-0.2,0.2
	v0.2c-0.3,1.2-0.3,2.5,0,3.8v-0.1c0.2,0.5,0.6,1,1.2,1.3c0.6,0.4,1.3,0.6,2.1,0.9c1.5,0.5,3.1,0.8,4.7,1c3.2,0.5,6.5,0.7,9.8,0.9
	l9.9,0.6c1.6,0.1,3.3,0.1,4.9,0.2h4.9c6.6-0.1,13.2-0.4,19.7-0.7c3.3-0.1,6.6-0.3,9.9-0.3h4.9C181.4,184,183.1,184.1,184.7,184.1
	L184.7,184.1z M184.7,184.3c-1.6,0-3.3-0.1-4.9-0.1h-4.9c-3.3,0.1-6.6,0.2-9.9,0.4c-6.6,0.3-13.1,0.9-19.7,1.1
	c-1.6,0-3.3,0.1-4.9,0.1h-5l-9.9-0.3c-3.3-0.1-6.6-0.3-9.9-0.6c-1.7-0.2-3.3-0.4-5-0.9c-0.8-0.2-1.7-0.5-2.5-1
	c-0.8-0.4-1.6-1.2-2-2.2v-0.1c-0.3-1.5-0.3-3,0-4.5v0.2c0-0.6,0.3-1.1,0.6-1.5c0.3-0.3,0.7-0.5,1-0.7c0.7-0.3,1.3-0.6,2-0.7
	c1.3-0.4,2.6-0.6,3.9-0.8c2.6-0.4,5.2-0.6,7.7-0.8c5.1-0.3,10.3-0.5,15.4-0.6c5.1-0.2,10.2-0.3,15.3-0.6c5.1-0.3,10.3-0.4,15.4-0.5
	s10.3,0,15.4,0.2s10.3,0.4,15.4,0.6c10.3,0.5,20.5,1.1,30.7,1.5c5.1,0.2,10.2,0.4,15.4,0.4c5.1,0.1,10.3,0.1,15.4,0.1
	c10.3,0,20.5,0,30.8-0.3c2.6-0.1,5.1-0.1,7.7-0.2s5.1-0.3,7.7-0.2c5.2,0,10.3,0.6,15.4,1s10.2,0.7,15.3,0.2c2.5-0.3,5-0.8,7.6-1
	c1.3-0.1,2.6-0.2,4,0.3c0.7,0.2,1.3,0.6,1.8,1.1l0.6,0.9l0.4,1v0.1c0,1.8-0.5,3.8-1.8,5.2c-0.3,0.4-0.7,0.7-1.1,1
	c-0.4,0.2-0.8,0.5-1.2,0.7c-0.8,0.4-1.8,0.6-2.6,0.8c-1.8,0.3-3.6,0.4-5.4,0.4l-5.3,0.1l-21.3,0.2c-7.1,0-14.2,0-21.3,0.2l-21.2,0.4
	l-21.2,0.6l-21.3,0.7c-3.5,0.1-7.1,0.3-10.6,0.4c-3.6,0-7.1-0.1-10.6-0.4C198.8,185.6,191.8,184.7,184.7,184.3L184.7,184.3z
	 M111.1,258.8c0,0,0.2,0.1,0.5,0.4c0.4,0.2,0.9,0.4,1.8,0.6c1.6,0.4,4.1,0.6,7.2,0.7c1.6,0.1,3.3,0,5.2,0.2c1.9,0.1,3.9,0.2,6.1,0.2
	c4.4,0,9.3-0.3,14.6-0.9c5.3-0.5,11.1-1.2,17.3-1.7c6.2-0.4,12.6-0.7,19.4-1c13.4-0.6,27.8-1.1,42.1-1.4c7.2-0.1,14.3-0.2,21.4-0.2
	s14,0.2,20.7,0.3c6.7,0.2,13.2,0.3,19.3,0.4c6.1,0.1,12,0.1,17.3,0.1c2.7,0,5.2-0.1,7.7-0.2c2.4,0,4.8-0.2,6.9-0.3
	c2.2-0.1,4.2-0.2,6.1-0.4c0.9-0.1,1.8-0.1,2.7-0.2c0.9-0.1,1.7-0.2,2.5-0.2c1.6-0.2,3-0.3,4.2-0.4c1.2-0.2,2.2-0.3,3.1-0.4
	c1.7-0.2,2.6-0.3,2.6-0.3l0.1,0.3c0,0-0.9,0.2-2.5,0.5c-0.8,0.2-1.8,0.4-3,0.6s-2.6,0.4-4.1,0.7c-0.8,0.1-1.6,0.3-2.5,0.4
	s-1.8,0.2-2.7,0.4c-1.9,0.2-3.9,0.5-6.1,0.7s-4.5,0.5-7,0.6c-1.2,0.1-2.5,0.2-3.8,0.3c-1.3,0.1-2.6,0.1-4,0.2
	c-2.7,0.2-5.5,0.2-8.4,0.3c-2.9,0-5.9,0.1-9,0.1c-6.2,0.1-12.7-0.1-19.4-0.2c-6.7-0.2-13.6-0.4-20.7-0.6c-7-0.2-14.2-0.2-21.4-0.2
	c-14.3,0-28.6,0.3-42.1,0.7c-6.7,0.2-13.2,0.4-19.3,0.7c-6.1,0.3-11.9,0.9-17.3,1.3s-10.3,0.6-14.7,0.6c-2.2,0-4.2-0.1-6.1-0.3
	c-1.9-0.2-3.6-0.2-5.2-0.3c-3.1-0.1-5.6-0.4-7.3-0.8c-0.8-0.2-1.4-0.5-1.9-0.7c-0.4-0.2-0.5-0.4-0.5-0.4L111.1,258.8L111.1,258.8z"
	/>
<path d="M302,230.8h1c0.6,0,1.6,0,2.8,0.1c2.5,0.1,6.1,0.3,10.7,1.2c2.3,0.5,4.8,1.1,7.4,2.1s5.4,2.3,8,4.4c0.3,0.3,0.6,0.5,1,0.8
	l0.9,0.9l0.9,0.9c0.3,0.3,0.5,0.7,0.8,1c1.1,1.4,1.9,3.1,2.6,4.8c1.4,3.4,2.3,7.2,2.9,11.2c1.2,8,1.1,16.7,0.8,25.7
	c-0.1,4.6-0.2,9.2-0.2,13.9v14.6c-0.1,9.9-0.2,20.2-0.4,30.6c-0.1,10.4-0.1,21,0.3,31.5c0.1,5.3,0.4,10.5,0.7,15.8l0.6,7.8l0.3,3.9
	c0.1,1.3,0.2,2.6,0.2,3.9c0.6,10.4,0.6,20.7,0.6,30.7c-0.1,9.9-0.4,19.5-0.6,28.6c-0.1,4.5-0.1,9-0.2,13.2
	c-0.1,4.3-0.4,8.5-0.8,12.4c-0.8,7.9-2.3,15.1-3.9,21.4c-1.6,6.3-3.5,11.6-5.8,15.7c-2.2,4.1-4.5,7-6,8.9c-0.8,1-1.4,1.7-1.8,2.2
	s-0.6,0.7-0.6,0.7s0.2-0.3,0.6-0.8s1-1.3,1.7-2.3c1.4-2,3.6-5,5.6-9.1c2.1-4.1,3.8-9.4,5.2-15.7c1.4-6.3,2.6-13.4,3.3-21.3
	c0.3-3.9,0.5-8,0.5-12.3s0-8.7-0.1-13.2c0-9.1,0.1-18.7,0.1-28.6c0-9.9-0.2-20.1-0.8-30.5L340,402l-0.3-3.9
	c-0.2-2.6-0.4-5.2-0.6-7.9c-0.3-5.3-0.6-10.6-0.8-15.9c-0.3-10.6-0.3-21.2-0.2-31.6c0.1-10.4,0.4-20.7,0.6-30.6
	c0.1-5,0.2-9.8,0.2-14.6c0-4.8,0.2-9.5,0.4-14c0.4-9.1,0.7-17.6-0.3-25.4c-0.5-3.9-1.4-7.5-2.6-10.9c-0.2-0.4-0.3-0.8-0.5-1.3
	l-0.2-0.6l-0.3-0.5c-0.4-0.7-0.7-1.5-1.3-2.1c-0.2-0.3-0.5-0.7-0.7-1s-0.5-0.6-0.8-0.9s-0.6-0.6-0.8-0.9c-0.3-0.3-0.6-0.5-0.9-0.8
	c-2.4-2-5.1-3.4-7.6-4.5c-2.6-1.1-5-1.7-7.2-2.3c-4.5-1-8.1-1.4-10.6-1.6c-1.2-0.1-2.2-0.2-2.8-0.2C302.4,230.8,302,230.8,302,230.8
	L302,230.8z"/>
<path class="st4" d="M338.4,146.8c29.3,4.5,61.4-13.3,73.3-41.1c23-54.1-29.3-114.5-85.8-95.5c-13.4,4.5-24.5,9.3-34.3,19.5
	c-1.9,2-4.2,8.2-5.8,10.5c-8.1,11.6-10.3,30-8.1,43.6c4.4,26.9,25.3,50.7,49.6,60.7"/>
<path class="st5" d="M238.3,427.2c0.8-0.4,1.6-0.7,2.4-0.9c2.3-0.6,4.6-0.6,7-0.5c18.6,0.6,31,5.5,48.6,10.6c4,1.2,8.1,2.4,11.2,5.3
	c4.8,4.5,5.7,11.6,8.1,17.7c3.3,8.4,9.6,15.3,14.7,22.8c5,7.5,8.9,16.8,6.4,25.5c-1,3.5-3,6.6-4.9,9.7l-12.9,20.4
	c-5,7.8-10.2,16-18.3,20.6c-11.9,6.8-26.7,4.4-40.1,1.8c-10.7-2.1-22.2-4.6-29.7-12.6c-3.4-3.6-5.6-8.1-7.8-12.6
	c-4-8.1-8.1-16.2-12.1-24.4c-12.9-25.9,2.7-58.5,20.5-77.8C233.4,430.8,235.7,428.6,238.3,427.2L238.3,427.2z"/>
<path d="M213.7,486.1c0,0,1.5,0,4.1-0.1s6.4-0.2,10.9-0.3s9.8-0.2,15.4-0.2c2.8,0,5.7,0,8.7-0.1c2.9,0,6,0,8.9-0.1
	c3-0.1,5.9-0.3,8.5-1.5c2.6-1.1,4.7-3.2,6.4-5.3c1.7-2.2,3.2-4.4,4.8-6.5c1.5-2.1,2.9-4.1,4.2-5.9c2.6-3.7,4.8-6.7,6.3-8.8
	s2.4-3.3,2.4-3.3s-0.8,1.3-2.2,3.5c-1.4,2.2-3.5,5.4-5.9,9.1c-1.2,1.9-2.6,3.9-4,6.1c-1.4,2.1-2.9,4.5-4.7,6.7
	c-1.8,2.2-4,4.4-6.8,5.7s-6,1.6-9,1.7H244c-5.6,0-10.9-0.1-15.4-0.2s-8.3-0.2-10.9-0.2C215.2,486.2,213.7,486.1,213.7,486.1
	L213.7,486.1z M271.5,485.1c0,0,0.5,0.8,1.3,2.3s2,3.5,3.4,6c1.3,2.5,2.9,5.4,4.5,8.6c1.6,3.2,3.3,6.6,4.9,10
	c0.8,1.7,1.6,3.5,2.4,5.2s1.5,3.4,2.2,5c1.4,3.3,2.7,6.4,3.8,9c1.1,2.6,1.9,4.9,2.5,6.4c0.6,1.6,0.9,2.5,0.9,2.5s-0.4-0.9-1.1-2.4
	s-1.7-3.7-2.9-6.2c-2.4-5.2-5.6-12-8.9-18.9c-3.2-6.9-6.5-13.7-8.9-18.9c-1.2-2.6-2.2-4.7-2.9-6.2L271.5,485.1L271.5,485.1z"/>
<path class="st6" d="M338.1,75.4c2,4,6.5,6.7,11,6.7c1.5,0,3-0.2,4.2-1c1.2-0.7,2.1-1.7,2.9-2.8c4.1-6.1,1.6-18.7-6.8-20.1
	C340.5,56.7,334.4,68.2,338.1,75.4L338.1,75.4z"/>
<path d="M346,82.7c0,0,0.4,2.3,1.2,6.2c0.8,4,2,9.6,3.5,16.3c0.8,3.4,1.6,7,2.6,10.8c0.5,1.9,1,3.9,1.5,5.9c0.3,1,0.5,2,0.8,3
	s0.5,2.1,0.9,3c0.3,1,0.8,1.8,1.4,2.5c0.7,0.7,1.5,1.2,2.5,1.6c2,0.9,4,1.4,6.2,1.5c4.3,0.3,8.8-0.9,12.6-3.1c3.9-2.2,7.3-5.3,9.5-9
	c1.1-1.9,1.8-3.9,2.1-5.9c0-0.3,0.1-0.5,0.1-0.8v-0.8c0-0.5,0-1-0.1-1.5c-0.1-1-0.4-2-0.7-3c-1.3-3.9-4-7.1-6.8-9.8
	c-2.9-2.6-5.9-4.9-8.6-7c-5.4-4.3-9.9-7.9-13.1-10.4c-3.1-2.5-4.9-4-4.9-4s1.9,1.3,5.2,3.7c3.3,2.4,8,5.7,13.6,9.8
	c2.8,2.1,5.9,4.2,8.9,6.8s6,6,7.5,10.3c0.4,1.1,0.7,2.2,0.8,3.3c0.1,0.6,0.1,1.2,0.1,1.8v0.8c0,0.3,0,0.6-0.1,0.9
	c-0.2,2.4-1.1,4.7-2.3,6.7c-2.4,4.1-6,7.4-10.2,9.8c-4.2,2.3-9,3.6-13.7,3.3c-1.2-0.1-2.4-0.3-3.5-0.6c-0.6-0.2-1.2-0.3-1.7-0.5
	l-0.8-0.3l-0.4-0.2c-0.2-0.1-0.3-0.1-0.4-0.2c-1.1-0.5-2.1-1.2-3-2.1c-0.9-0.9-1.4-2.1-1.8-3.2c-0.4-1.1-0.6-2.1-0.8-3.2
	c-0.2-1-0.5-2.1-0.7-3.1c-0.5-2-0.9-4-1.4-6c-0.9-3.9-1.6-7.6-2.2-11c-1.3-6.8-2.2-12.5-2.8-16.5c-0.3-2-0.5-3.6-0.6-4.6
	C346.1,83.2,346,82.7,346,82.7L346,82.7z M359.4,72.5l0.3,0.3c0.2,0.2,0.5,0.4,0.9,0.7c0.8,0.6,2.2,1,3.9,1.5
	c3.5,1.1,8.5,2.7,14.3,5.3c2.9,1.3,5.9,2.8,9.1,4.6c1.6,0.9,3.2,1.8,4.8,2.5c1.7,0.7,3.5,1.2,5.2,1c0.5,0,0.8-0.1,1.3-0.2
	c0.4-0.1,0.8-0.3,1.2-0.4c0.8-0.4,1.6-0.9,2.3-1.5s1.3-1.4,1.8-2.2c0.3-0.4,0.5-0.8,0.7-1.3c0.2-0.4,0.4-0.9,0.5-1.3
	c1.3-3.7,1.3-7.9,0.9-11.9c-0.4-4.1-1.4-8.1-3-11.8c-0.8-1.8-1.7-3.6-2.8-5.3c-0.5-0.8-1-1.6-1.6-2c-0.7-0.4-1.5-0.6-2.4-0.7
	c-0.9-0.1-1.9,0-2.9,0c-0.9,0-1.9,0.1-2.8,0.1l-2.7,0.3c-0.9,0.1-1.8,0.3-2.7,0.4c-3.5,0.7-6.7,1.6-9.7,2.6c-5.9,2-10.7,4.2-14,5.7
	s-5.2,2.4-5.2,2.4s0.5-0.3,1.3-0.7c0.9-0.5,2.1-1.2,3.7-2s3.6-1.9,5.9-3s4.9-2.3,7.9-3.5c3-1.1,6.2-2.2,9.8-3
	c0.9-0.2,1.8-0.3,2.7-0.5c0.9-0.1,1.9-0.2,2.8-0.4c1-0.1,2-0.2,2.9-0.2h3c1,0,2.2,0.2,3.3,0.9s1.7,1.7,2.2,2.6
	c1.1,1.7,2.1,3.6,3,5.5c1.7,3.9,2.8,8.1,3.2,12.3c0.2,2.1,0.2,4.3,0.1,6.4c-0.1,2.1-0.5,4.3-1.2,6.4l-0.6,1.5
	c-0.2,0.4-0.5,1-0.8,1.4c-0.6,0.9-1.3,1.8-2.1,2.5s-1.7,1.3-2.8,1.8c-0.5,0.2-1,0.4-1.6,0.5c-0.5,0.1-1.1,0.2-1.6,0.2
	c-2.2,0.1-4.2-0.5-6-1.3s-3.4-1.8-4.9-2.7c-3.1-1.8-6-3.5-8.8-4.9c-5.6-2.8-10.4-4.8-13.9-6c-1.7-0.6-3.1-1.2-3.9-1.8
	c-0.4-0.3-0.7-0.6-0.8-0.8C359.5,72.6,359.4,72.5,359.4,72.5L359.4,72.5z M353.9,57c0,0,1.5-1.1,4.1-3s6.3-4.6,10.9-7.8
	c2.2-1.6,4.7-3.3,7.3-5.1c1.2-0.9,2.5-2,3.5-3.1c1-1.2,1.9-2.5,2.3-4c0.1-0.4,0.1-0.8,0.2-1.1v-1.1c-0.1-0.8-0.3-1.5-0.6-2.3
	c-0.6-1.5-1.6-2.9-2.9-4c-2.6-2.3-6-3.5-9.4-4.8s-6.9-2.6-10.2-3.9c-1.6-0.6-3.3-0.9-4.6-0.5c-1.5,0.5-2.5,1.7-3.3,3.1
	c-0.8,1.4-1.2,3-1.8,4.6c-0.5,1.6-1,3.1-1.4,4.6c-0.8,3-1.4,6-1.9,8.7c-0.9,5.4-1.3,10-1.4,13.2s-0.1,5.1-0.1,5.1s0-0.5-0.1-1.3
	c-0.1-0.9-0.2-2.1-0.2-3.7c-0.1-1.6-0.1-3.6,0-5.8c0.1-2.3,0.2-4.8,0.6-7.6c0.3-2.8,0.8-5.7,1.6-8.8c0.4-1.5,0.8-3.2,1.2-4.8
	c0.5-1.6,0.9-3.3,1.8-4.9c0.4-0.8,0.9-1.6,1.6-2.4c0.4-0.4,0.7-0.7,1.2-1c0.2-0.1,0.5-0.3,0.7-0.4c0.3-0.1,0.4-0.2,0.6-0.3
	c2.1-0.7,4.2-0.2,5.9,0.4c3.5,1.3,6.9,2.6,10.3,3.9c3.4,1.3,7.1,2.6,10,5.3c1.4,1.3,2.6,2.9,3.3,4.7c0.4,0.9,0.6,1.9,0.7,2.8v1.5
	c-0.1,0.5-0.1,1-0.3,1.4c-0.5,1.9-1.6,3.4-2.7,4.7c-1.2,1.3-2.5,2.3-3.8,3.2c-2.7,1.8-5.2,3.4-7.5,4.9c-4.6,3-8.6,5.4-11.3,7.1
	C355.4,56,353.9,57,353.9,57L353.9,57z M340.9,59c0,0-0.9-1.7-2.6-4.6c-1.6-2.9-3.9-7.1-6.7-12.2c-1.4-2.5-2.8-5.3-4.4-8.1
	s-3.6-5.7-6.3-7.7c-2.7-2-6.3-3.1-9.6-2c-1.6,0.5-3.1,1.6-4.4,2.8s-2.7,2.7-3.9,4c-2.4,2.8-4.6,6-5.3,9.4c-0.3,1.7-0.2,3.4,0.4,5
	c0.5,1.6,1.6,3,2.7,4.2c2.4,2.4,5.5,4,8.5,5.2s6,2.3,8.6,3.7s4.7,2.9,6.7,4.1c2,1.2,3.8,2.2,5.3,2.9s2.8,1.1,3.6,1.4
	c0.9,0.3,1.3,0.4,1.3,0.4s-0.5-0.1-1.3-0.3c-0.9-0.2-2.2-0.5-3.7-1.1c-1.6-0.6-3.4-1.5-5.5-2.6c-1-0.6-2.1-1.2-3.3-1.8
	c-1.1-0.6-2.3-1.4-3.6-2c-2.5-1.2-5.5-2.1-8.6-3.3c-3.1-1.1-6.5-2.7-9.2-5.3c-1.4-1.3-2.5-2.9-3.3-4.8c-0.7-1.8-0.9-4-0.5-6
	c0.8-4,3.1-7.4,5.7-10.4c1.3-1.5,2.6-2.8,4.1-4.2c1.5-1.3,3.1-2.5,5.2-3.2c1.9-0.7,4.1-0.7,6-0.2s3.7,1.4,5.2,2.6
	c3.1,2.3,5,5.5,6.5,8.4c1.6,2.9,2.9,5.8,4.1,8.3c2.5,5.2,4.5,9.5,6,12.5C340.1,57.2,340.9,59,340.9,59L340.9,59z M335.4,70.7
	c0,0-1.9-0.3-5.3-0.7c-3.4-0.5-8.2-1-14-1.5c-2.9-0.2-6.1-0.5-9.4-0.6c-1.7-0.1-3.4-0.2-5.1-0.2s-3.6-0.2-5.2,0
	c-0.8,0.1-1.6,0.3-2.2,0.7c-0.4,0.3-0.7,0.4-0.9,0.7c-0.3,0.3-0.5,0.6-0.7,0.9c-0.8,1.4-1.2,3.2-1.2,5c-0.1,1.8,0.1,3.7,0.4,5.6
	c0.2,1.9,0.5,3.8,1,5.7c0.8,3.7,2,7.4,3.5,10.9c0.7,1.7,1.6,3.4,2.7,4.5c0.3,0.3,0.6,0.5,0.9,0.7l0.3,0.1l0.1,0.1l0.2,0.1
	c0.2,0.1,0.4,0.2,0.6,0.2c0.7,0.2,1.5,0.3,2.3,0.3c1.6-0.1,3.3-0.8,4.8-1.5c1.5-0.8,2.9-1.7,4.4-2.6c2.8-1.8,5.4-3.6,7.7-5.3
	c4.6-3.5,8.3-6.7,10.8-9s3.9-3.7,3.9-3.7s-0.3,0.4-0.9,1.1c-0.6,0.7-1.5,1.7-2.7,2.9c-2.4,2.5-5.8,5.9-10.4,9.6
	c-2.3,1.9-4.8,3.8-7.6,5.7c-0.7,0.5-1.4,0.9-2.1,1.4s-1.5,0.9-2.3,1.4c-1.6,0.9-3.4,1.6-5.4,1.8c-1,0.1-2,0-3.1-0.3
	c-0.3-0.1-0.5-0.2-0.7-0.3l-0.2-0.1c-0.1-0.1-0.1-0.1-0.2-0.1L299,104c-0.5-0.3-0.9-0.6-1.3-1c-1.6-1.5-2.5-3.3-3.2-5.1
	c-1.6-3.6-2.8-7.4-3.6-11.2c-0.4-1.9-0.7-3.9-1-5.9c-0.2-2-0.4-3.9-0.3-5.9s0.4-4.1,1.6-5.9c0.3-0.5,0.6-0.9,1-1.3s0.9-0.8,1.3-1
	c1-0.6,2-0.8,3-0.9c2-0.2,3.8,0,5.5,0.1c1.8,0.1,3.5,0.2,5.2,0.4c3.3,0.3,6.5,0.6,9.4,1c5.8,0.7,10.6,1.6,14,2.2
	c1.7,0.3,3,0.6,3.9,0.8C334.9,70.6,335.4,70.7,335.4,70.7L335.4,70.7z M338.4,78.7c0,0,0,0.5-0.1,1.5s-0.3,2.4-1,4.1
	c-0.6,1.7-1.6,3.7-2.9,5.9s-3,4.5-4.9,6.9c-1.8,2.5-3.8,5.2-5.4,8.3s-2.9,6.6-4.1,10.2c-0.3,0.9-0.6,1.8-0.9,2.8
	c-0.3,0.9-0.5,1.8-0.7,2.8c-0.3,1.9-0.4,3.8,0.2,5.4c0.3,0.8,0.8,1.5,1.5,2c0.6,0.5,1.5,0.9,2.4,1.1c1.8,0.5,3.9,0.7,6,1
	c2,0.3,4.1,0.6,6.1,0.9c1,0.2,2,0.3,3,0.5c1,0.1,2,0.3,2.9,0.4c0.9,0.1,1.7,0,2.3-0.4c0.5-0.4,0.8-1.1,0.9-2s0.1-1.9,0.2-2.9
	c0-1,0.1-1.9,0.1-2.9c0.1-7.7-0.3-14.9-0.6-21c-0.3-6.2-0.5-11.3-0.5-14.9v-5.7c0,0,0.1,2.1,0.4,5.6c0.1,1.8,0.3,4,0.5,6.5
	s0.5,5.3,0.8,8.4c0.5,6.2,1.2,13.3,1.2,21.1v2.9c0,1,0,2-0.1,3.1c-0.1,0.5-0.2,1.1-0.4,1.7c-0.2,0.6-0.7,1.2-1.2,1.6
	c-1.1,0.8-2.5,0.9-3.5,0.8c-1.1-0.1-2.1-0.3-3.1-0.4c-1-0.1-2-0.3-3-0.4c-2-0.3-4.1-0.6-6.1-0.9l-3.1-0.5c-1-0.2-2.1-0.3-3.1-0.6
	c-1.1-0.3-2.1-0.7-3.1-1.5c-0.9-0.7-1.6-1.7-2-2.8c-0.9-2.2-0.7-4.4-0.3-6.5c0.2-1,0.5-2,0.8-3c0.3-0.9,0.6-1.9,0.9-2.8
	c1.3-3.7,2.7-7.2,4.4-10.3c1.7-3.2,3.8-5.8,5.8-8.3c1.9-2.4,3.7-4.6,5.1-6.6s2.5-3.9,3.2-5.6c0.2-0.4,0.3-0.8,0.4-1.2
	s0.3-0.7,0.4-1.1c0.2-0.7,0.3-1.2,0.4-1.7C338.4,79.2,338.4,78.7,338.4,78.7L338.4,78.7z"/>
<path class="st6" d="M336.8,134.4c-9.5,1.1-19.1-3.1-26.4-9.4s-12.4-14.6-16.9-23.1c-11.1-21-12.7-53.1,6.2-70.6
	c4.5-4.2,9.9-7.2,15.4-9.9c11.2-5.6,23.4-9.9,36-9.6c22.3,0.7,43.7,15.6,55,34.8c5,8.6,8.2,18.4,7.9,28.3c-0.5,14.7-8.4,28.1-17,40
	c-7.5,10.4-16.9,21.1-29.6,22.6c-8.9,1-15.7,5.2-24.6,4.9"/>
<path class="st7" d="M147.1,537.5c15-16.9,15.8-15.1,30.7-32.2c14.3-16.5,28.6-33,39.4-51.8c10.6-18.5,18-39.2,32.7-54.9
	c3.3-3.4,7-6.7,8.6-11.1c-29-4.2-57.6-2.2-82.7,5.7c-5.2,1.6-25,15.1-29.4,20.1c-10.3,11.7-16.1,22.8-19.7,38.2
	c-4.8,20.5-5.8,34.8,5.8,56.4C136.6,515.3,142.2,529.3,147.1,537.5L147.1,537.5z"/>
<path class="st6" d="M153.1,531.6c-1.3-1.6-2.2-3-3.4-4.7c-2.6-3.4-4.1-7.1-5.6-10.9c-8.1-20-12.8-38-9.5-57.2
	c2.5-11.5,8.2-21.8,13.6-32c3.1-5.5,6.1-11.2,10.9-15.5c7.1-6.4,17.2-9.5,27.4-11.9c17.4-4.2,35.9-7.4,55.7-2.9
	c2.4,0.5,3.7,1.9,5.8,3.3"/>
<path class="st6" d="M213,460.3c-1.4-1.5-3.6-2-5.7-1.6c-2,0.4-3.8,1.4-5.4,2.7c-2.6,2.1-5,4.9-5.8,8.1s0.1,7.2,2.8,9.1"/>
<path d="M200.7,461.4c-1.7-2.1-3.5-4.2-5.2-6.3l-5.1-6.4l-2.5-3.2c-0.8-1.1-1.7-2.1-2.5-3.2l-4.9-6.5l-4.8-6.6
	c-0.8-1.1-1.6-2.2-2.3-3.4c-0.8-1.1-1.5-2.3-2.2-3.5s-1.2-2.5-1.7-3.8s-0.8-2.7-0.8-4.1c-0.1-1.4,0-2.8,0.4-4.2s1-2.7,1.9-3.8
	c0.1-0.2,0.3-0.3,0.4-0.4l0.3-0.3c0.1-0.1,0.2-0.3,0.4-0.4c0.1-0.1,0.3-0.2,0.4-0.3l-0.1,0.1c1.4-1.3,3.1-2,4.8-2.5
	c1.7-0.5,3.4-0.9,5.2-1.3c3.4-0.7,7-1.3,10.6-1.1c0.9,0.1,1.8,0.2,2.7,0.4c0.9,0.2,1.8,0.4,2.6,0.8c1.7,0.7,3.3,1.6,4.6,2.8
	c1.3,1.2,2.4,2.8,3.1,4.5s0.9,3.5,1.1,5.3l0.1,1.3v1.4l0.2,2.6l0.3,5.3l0.3,5.3l0.1,2.6c0.1,0.9,0.1,1.8,0,2.7s-0.2,1.8-0.2,2.6
	c-0.1,0.9-0.1,1.7-0.1,2.6l-0.1,5.3c0,1.8-0.1,3.5,0,5.3s0.3,3.5,0.6,5.2c-0.4-1.7-0.6-3.5-0.8-5.2c-0.2-1.8-0.1-3.5-0.1-5.3v-8
	c0-0.9,0.1-1.8,0.2-2.6c0-0.9,0-1.7-0.1-2.6l-0.2-2.6l-0.4-5.3l-0.4-5.3l-0.2-2.6v-1.3l-0.2-1.3c-0.2-1.7-0.5-3.4-1.1-5
	s-1.6-3-2.9-4.1s-2.8-2-4.3-2.6c-0.8-0.3-1.6-0.6-2.4-0.7c-0.9-0.2-1.7-0.3-2.6-0.3c-3.4-0.2-6.9,0.4-10.3,1.1
	c-1.7,0.4-3.4,0.7-5.1,1.2c-1.6,0.5-3.3,1.2-4.5,2.3c-0.1,0.1-0.2,0.1-0.3,0.2l-0.3,0.3c-0.2,0.3-0.5,0.5-0.6,0.6
	c-1.6,2.1-2.3,4.7-2.1,7.4c0,0.7,0.1,1.3,0.2,2c0.1,0.3,0.1,0.7,0.2,0.9c0.1,0.3,0.2,0.6,0.3,1c0.4,1.3,1,2.5,1.6,3.7
	s1.4,2.3,2.1,3.4c0.7,1.1,1.5,2.3,2.3,3.4c1.6,2.2,3.1,4.4,4.7,6.6l4.8,6.6c0.8,1.1,1.6,2.2,2.5,3.2l2.5,3.2l4.9,6.5
	C197.3,457.1,199,459.3,200.7,461.4L200.7,461.4z M213.5,453.4l-0.6,3.5h-0.2c0.2-1.7,0.5-3.5,0.7-5.2l0.6-5.2c0.4-3.5,0.8-7,1-10.5
	c0.1-1.7,0.2-3.5,0.2-5.2l-0.2-5.3v-2l-0.1-0.6l-0.4-2.6l-0.7-5.2c-0.3-1.8-0.4-3.6-0.3-5.4c0-0.5,0.1-0.9,0.2-1.4l0.1-0.6
	c0-0.2,0.1-0.5,0.2-0.7c0.2-0.9,0.6-1.8,1.1-2.5c1-1.5,2.3-2.8,3.9-3.8s3.3-1.5,5.1-1.8c1.8-0.3,3.6-0.3,5.4,0.1
	c1.8,0.3,3.4,1,5.1,1.7c1.6,0.7,3.1,1.7,4.6,2.6c1.5,1,2.8,2.1,4.3,3.1l-2.2-1.5c-0.7-0.5-1.4-1-2.2-1.5c-1.5-0.9-3-1.8-4.7-2.4
	c-1.6-0.7-3.3-1.2-5-1.5s-3.4-0.3-5.1,0.1c-1.7,0.3-3.3,0.9-4.8,1.8c-1.4,0.9-2.7,2.2-3.6,3.6c-0.4,0.7-0.8,1.5-1,2.3
	c-0.1,0.2-0.1,0.4-0.1,0.6l-0.1,0.6c-0.1,0.4-0.1,0.8-0.2,1.3c-0.1,1.7,0,3.4,0.3,5.1c0.3,1.8,0.5,3.5,0.7,5.2l0.3,2.6
	c0,0.2,0.1,0.4,0.1,0.7v2l0.1,5.3c0,1.8-0.1,3.5-0.2,5.3c-0.3,3.5-0.7,7-1.2,10.5l-0.8,5.2c-0.3,1.7-0.6,3.5-0.9,5.2h-0.2
	L213.5,453.4L213.5,453.4z M196.3,472.6l-14.3-4.2l-7.1-2.1c-1.2-0.4-2.4-0.8-3.6-1.1l-3.5-1.1l-3.5-1.1c-1.2-0.4-2.4-0.8-3.5-1.3
	c-2.3-0.9-4.6-1.9-6.8-3.1c-4.4-2.3-8.5-5.4-11.6-9.5c-0.5-0.8-0.9-1.7-1.1-2.6c-0.1-0.5-0.1-1-0.1-1.5s0.2-1,0.3-1.4
	c0.3-0.9,0.8-1.7,1.2-2.5l1.2-2.4l2.4-4.8c0.8-1.6,1.7-3.2,2.8-4.7s2.5-2.8,4.3-3.6c1.7-0.9,3.7-1,5.6-0.6c0.9,0.2,1.8,0.5,2.7,0.9
	c0.8,0.4,1.6,0.9,2.4,1.5c1.5,1.1,2.8,2.4,4.1,3.7l15.3,15.3c2.5,2.6,5.1,5.2,7.5,7.8c1.2,1.3,2.5,2.6,3.7,4s2.3,2.8,3.3,4.3
	l0.6,1.3l-0.7-1.3c-0.5-0.7-1.1-1.4-1.7-2.1c-0.6-0.7-1.2-1.4-1.8-2c-1.2-1.3-2.5-2.6-3.7-3.9l-7.7-7.6l-15.5-15.1
	c-1.3-1.3-2.5-2.5-4-3.6c-0.7-0.5-1.5-1-2.2-1.4c-0.8-0.4-1.6-0.7-2.5-0.8c-1.7-0.3-3.5-0.2-5,0.6c-1.5,0.7-2.8,2-3.9,3.3
	c-1.1,1.4-1.9,3-2.7,4.6l-2.4,4.8l-1.2,2.4c-0.4,0.8-0.8,1.6-1.1,2.4l-0.3,1.2c0,0.4,0,0.8,0.1,1.2c0.1,0.8,0.5,1.6,1,2.3
	c1.5,2,3.2,3.7,5.1,5.3c1.9,1.5,4,2.9,6.1,4c2.2,1.2,4.4,2.2,6.7,3.1c1.1,0.5,2.3,0.9,3.5,1.3l3.5,1.2l3.5,1.2
	c1.2,0.4,2.4,0.8,3.5,1.2l7.1,2.2l7.1,2.2L196.3,472.6L196.3,472.6z M196.6,481.9c0,0-1.9,0.8-5.2,2.2c-1.7,0.6-3.7,1.4-6.1,2.3
	c-2.4,0.9-5,1.9-7.9,2.9c-2.9,0.9-6.1,2-9.5,3s-7,2.1-10.8,3s-7.6,1.8-11.6,2.6l-1.5,0.3c-0.5,0.1-1.1,0.2-1.7,0.1
	c-0.6-0.1-1.2-0.4-1.6-0.8c-0.4-0.4-0.7-0.9-1-1.4c-1-1.9-1.4-4.1-1.4-6.2c0.2-4.3,2.1-8.3,4.7-11.5c1.3-1.6,3-3,4.9-3.8
	c1.9-0.9,4-1,5.9-1.1c3.9,0,7.6,0.2,11.1,0.3s6.9,0.2,10,0.3c6.2,0.3,11.3,0.5,14.9,0.7s5.7,0.3,5.7,0.3s-2.1,0-5.7-0.1
	s-8.7-0.2-14.9-0.4c-6.2-0.1-13.4-0.2-21.1-0.3c-1.9,0-3.8,0.2-5.6,1c-1.7,0.8-3.3,2.1-4.5,3.6c-2.5,3.1-4.2,7-4.4,10.9
	c0,2,0.4,4,1.3,5.7c0.5,0.8,1.1,1.6,1.9,1.7c0.4,0.1,0.9,0,1.4-0.1l1.5-0.3c3.9-0.8,7.8-1.7,11.6-2.6c7.5-1.8,14.4-3.9,20.3-5.7
	c5.8-2,10.7-3.7,14.1-4.9C194.6,482.6,196.6,481.9,196.6,481.9L196.6,481.9z M192,487.8c0,0-0.1,0.2-0.3,0.3
	c-0.1,0.1-0.3,0.3-0.6,0.4c-0.2,0.1-0.5,0.1-0.7,0l-0.4-0.2l0.2-0.4c0.1-0.2,0.4-0.3,0.6-0.4c0.3-0.1,0.5-0.1,0.8,0
	C191.8,487.7,192,487.8,192,487.8L192,487.8z"/>
<path d="M155.3,525.3l-1.9-2.4c-0.6-1-1.3-2-1.6-3.1c-0.4-1.1-0.5-2.3-0.4-3.5c0.1-0.6,0.2-1.2,0.4-1.7c0.1-0.3,0.2-0.5,0.4-0.8
	c0.1-0.3,0.3-0.5,0.4-0.8c0.6-1,1.4-1.9,2.3-2.7c0.4-0.4,0.9-0.7,1.4-1l1.4-1l2.9-1.9c1.9-1.3,3.8-2.5,5.8-3.8l5.8-3.7l2.9-1.8
	c0.9-0.6,1.9-1.3,2.9-1.8l3-1.8c1-0.6,1.9-1.2,2.9-1.8l2.9-1.8c1-0.6,2-1.3,3.1-1.7V488c0.7,0,1.4,0,2.1-0.1c-0.7,0.1-1.4,0.3-2,0.5
	c-1,0.5-2,1-3,1.7l-2.8,2c-0.9,0.7-1.9,1.3-2.9,1.9l-2.9,1.9l-2.9,1.9l-2.9,1.9l-5.8,3.7l-5.8,3.7l-2.9,1.9c-1,0.6-2,1.2-2.8,1.9
	c-0.9,0.7-1.6,1.5-2.2,2.4c-0.2,0.2-0.3,0.5-0.4,0.7c-0.1,0.3-0.3,0.5-0.4,0.8c-0.2,0.5-0.4,1-0.5,1.6c-0.2,1.1-0.1,2.2,0.2,3.3
	c0.3,1.1,0.8,2.1,1.4,3.1L155.3,525.3L155.3,525.3z"/>
<path d="M148,233.5c0,0-0.5,0.1-1.5,0.2s-2.5,0.3-4.4,0.7c-1.9,0.3-4.3,0.8-7,1.6s-5.8,1.8-9.1,3.4c-0.8,0.4-1.7,0.8-2.4,1.3
	c-0.4,0.2-0.8,0.5-1.2,0.8l-1.2,0.9c-0.8,0.6-1.6,1.3-2.4,2c-0.4,0.3-0.7,0.8-1.1,1.1c-0.4,0.4-0.8,0.8-1.1,1.2
	c-0.3,0.4-0.6,0.9-1,1.3c-0.3,0.4-0.6,1-0.9,1.4l-0.4,0.7c-0.1,0.2-0.2,0.5-0.3,0.8c-0.2,0.5-0.5,1.1-0.7,1.6
	c-0.8,2.2-1.1,4.6-1.2,7.1c-0.1,5,0.9,10.4,2,16c0.6,2.8,1.1,5.7,1.5,8.7c0.3,3,0.6,6.1,0.8,9.2c0.9,12.6,0.7,26.2,0.4,40.6
	c-0.1,7.2-0.2,14.6-0.4,22.2s-0.6,15.3-0.9,23.1c-0.8,15.7-1.6,31.9-2.4,48.4c-0.7,16.4-1.1,33.2,0.6,49.7
	c0.8,8.3,2.2,16.5,4.2,24.5l0.8,3l0.9,3l0.9,2.9c0.3,0.9,0.7,1.9,1,2.9c1.4,3.8,3,7.6,4.9,11.2c3.8,7.2,8.6,13.7,14.3,19.2
	c2.9,2.7,6,5.2,9.2,7.3c0.8,0.5,1.7,1.1,2.5,1.6l2.5,1.4c0.8,0.5,1.7,0.8,2.6,1.2s1.7,0.8,2.7,1.1c7.1,2.9,14.7,4.3,22.1,5.3
	c7.4,0.9,14.8,1.4,22,2.1c7.2,0.7,14.1,1.7,20.8,2.7c6.7,1,13.2,1.8,19.4,2.3c1.5,0.1,3.1,0.2,4.6,0.3c1.5,0,3.1,0,4.6,0.1
	c1.5,0,3-0.1,4.4-0.1c1.5-0.1,2.9-0.2,4.3-0.3c5.7-0.5,11-1.2,16-2.2c10-2,18.5-4.6,25.2-7.5s11.8-5.7,15-8c0.8-0.5,1.5-1,2.1-1.5
	s1.1-0.9,1.5-1.2c0.8-0.6,1.2-1,1.2-1s-0.4,0.3-1.2,1c-0.4,0.3-0.9,0.7-1.5,1.2s-1.3,1-2.1,1.6c-3.1,2.4-8.1,5.4-14.8,8.4
	c-6.7,3-15.2,5.8-25.2,8c-5,1-10.4,2-16.1,2.5c-1.4,0.1-2.9,0.2-4.4,0.4c-1.5,0.1-3,0.1-4.5,0.2H249c-1.6-0.1-3.1-0.1-4.7-0.2
	c-6.3-0.4-12.8-1.2-19.5-2.1c-6.7-0.9-13.6-1.9-20.8-2.4c-7.1-0.6-14.5-1-22.1-1.8c-7.6-0.9-15.3-2.3-22.8-5.3
	c-0.9-0.3-1.9-0.8-2.8-1.2s-1.8-0.8-2.7-1.3s-1.8-1-2.7-1.4c-0.9-0.5-1.7-1-2.6-1.6c-3.5-2.2-6.7-4.7-9.7-7.5
	c-6-5.7-11-12.5-14.9-19.9c-2-3.7-3.7-7.5-5.1-11.5c-0.3-1-0.7-1.9-1-3l-0.9-3l-0.9-3l-0.8-3.1c-2.1-8.2-3.5-16.5-4.4-24.9
	c-1.7-16.8-1.2-33.7-0.4-50.2c0.9-16.5,1.8-32.7,2.6-48.4c0.4-7.8,0.8-15.5,1.1-23.1c0.3-7.5,0.5-14.9,0.7-22.1
	c0.4-14.4,0.8-28,0.1-40.5c-0.2-3.1-0.4-6.2-0.7-9.2c-0.3-2.9-0.8-5.8-1.3-8.6c-1-5.6-2-11.1-1.7-16.3c0.1-2.6,0.5-5.1,1.4-7.4
	c0.2-0.6,0.5-1.1,0.7-1.6c0.1-0.3,0.2-0.5,0.4-0.8l0.5-0.8l0.9-1.5c0.3-0.5,0.7-0.9,1-1.4s0.7-0.8,1.1-1.2c0.4-0.4,0.7-0.8,1.2-1.2
	c0.8-0.7,1.6-1.4,2.5-2l1.2-0.9c0.4-0.3,0.9-0.5,1.3-0.7c0.8-0.5,1.7-0.9,2.5-1.3c3.3-1.6,6.5-2.5,9.3-3.2c2.8-0.7,5.2-1.1,7.1-1.4
	s3.4-0.5,4.4-0.6C147.5,233.6,148,233.5,148,233.5L148,233.5z"/>
</svg>
