<svg id="Layer_1" xmlns="http://www.w3.org/2000/svg" viewBox="0 0 460 586.9"><style>.st0{fill:none;stroke:#000;stroke-width:5;stroke-miterlimit:10}.st1{opacity:.9;fill:url(#SVGID_1_);enable-background:new}.st2{fill:url(#SVGID_2_)}.st3,.st4{fill:none}.st4{stroke:#000;stroke-width:3;stroke-miterlimit:10}.st5{stroke-width:1.292}.st5,.st6,.st7{fill:none;stroke:#000;stroke-miterlimit:10}.st7{stroke-width:2}</style><path class="st0" d="M6588.6-683.7c.3 38.5.2 82.4-5.7 120.5-2.3 14.7-3.7 31.7-10.6 44.9-9.4 17.9-18.6 35.9-34 49.5-5.5 4.9-11.5 9.2-17.9 12.8-4.2 2.3-15.3 5.1-15.9 10.8-.4 3.6 3.8 5.7 6.9 7.6 6.9 4.3 10.9 12.3 11.6 20.4 1.5 15.4-5.6 30.7-18.9 38.8-.8.5-1.6 1-1.9 1.8-.7 2.1 2.1 3.4 4.2 3.8 12.1 2.1 24 5 35.7 8.7 7.7 2.4 24.3 10.6 12 18.5-7.7 4.9-17 6.2-26 7.3-24.7 3.1-49.7 6.2-74.5 3.9-5.6-.5-11.2-1.4-16.8-2.2l-22.5-3.3c-5.3-.8-11.8-2.7-12.7-7.9-1.7-10.2 16.6-15.1 23.6-17.2 4.9-1.5 36.5-4.6 35.6-9.3-.5-2.4-2.8-3.9-4.8-5.4-8.9-6.4-15-16.4-16.6-27.2-1.6-10.8 1.3-22.2 7.9-30.9 2.2-2.9 4.9-6 4.4-9.6-.2-1.5-1-2.9-2-4.1-5.1-6.7-15.9-9.5-22.8-14.7-7.9-6-15.2-12.8-21.6-20.4-12.5-14.5-22.1-31.5-27.6-49.9-5.2-17.2-6.9-35.3-8.2-53.2-2.3-31-3.6-62-3.8-93.1 20.2-2.4 42-1.8 62.4-1.4 52.8 1.1 160.5-1.6 160.5.5z"/><path d="M6462-368.8v1.9c0 .6.1 1.3.6 1.9.4.6 1.2.8 2.2.8 2.1-.1 4.5-.2 7.1-.2 1.3 0 2.7-.1 4-.1 1.4-.1 2.8-.1 4.1-.2 1.4-.1 2.8-.1 4.1-.2 1.4-.1 2.7-.1 4-.2 2.6-.1 5-.2 7.1-.3 2-.1 3.7-.6 4.6-1.3.4-.4.7-.8.8-1.1.1-.3.2-.5.2-.5v.5c-.1.3-.2.8-.6 1.3s-1.1 1-1.9 1.4-1.8.7-2.8.8c-2.1.4-4.5.7-7.1.9-1.3.1-2.7.3-4 .4-1.4.1-2.8.2-4.2.2-1.4 0-2.8.1-4.2.1h-4.1c-2.6-.1-5.1-.2-7.2-.4-.5-.1-1.1-.1-1.6-.4s-.9-.7-1.1-1.1c-.4-.9-.4-1.7-.3-2.3s.2-1.1.3-1.4c-.1-.3 0-.5 0-.5zm-.4-84.6s.6.2 1.6.5c.5.2 1.2.3 1.9.5s1.6.4 2.4.5c.9.2 1.9.3 2.9.5 1 .1 2.1.2 3.3.3 1.1.1 2.3.1 3.5.2h3.6c1.2 0 2.5 0 3.7-.1 1.2 0 2.4-.1 3.6-.1 2.3-.1 4.5-.1 6.3-.3 1.8-.2 3.2-.6 4.1-1.2.4-.3.8-.6 1-.8l.3-.3s-.1.1-.2.4c-.2.3-.4.6-.8 1-.8.8-2.3 1.6-4.2 2-.9.2-2 .4-3 .5-1.1.1-2.2.3-3.3.4l-3.6.3c-1.2.1-2.5.1-3.7.2-1.3 0-2.5 0-3.7-.1-.6 0-1.2-.1-1.8-.1-.6-.1-1.2-.1-1.8-.2-1.2-.1-2.3-.4-3.4-.6-.5-.1-1-.3-1.5-.4-.5-.2-1-.3-1.4-.4-1.8-.6-3.2-1.3-4.2-1.8-1-.6-1.6-.9-1.6-.9zm-50.1 102.1l.3.3c.2.2.5.4 1 .6.9.5 2.3 1 4.2 1.4 1.9.4 4.2.7 6.8 1.1 2.6.4 5.6.7 8.9 1.1 3.3.3 6.8.7 10.6 1 3.7.3 7.7.5 11.8.7 8.2.3 17 .5 25.7.6 4.4.1 8.8.1 13.1.2 4.3 0 8.5.1 12.6 0s8-.4 11.7-.8c3.7-.5 7.2-1.1 10.4-1.7 6.4-1.4 11.6-3 15.2-4.3 1.8-.7 3.2-1.2 4.2-1.6l1.5-.6s-.5.2-1.4.7c-.9.4-2.3 1.1-4.1 1.8-3.5 1.5-8.7 3.5-15.1 5.1s-14.1 2.9-22.3 3.2c-4.1.2-8.4.2-12.7.2-4.3 0-8.7-.1-13.1-.1-4.4-.1-8.8-.2-13.1-.3-4.3-.1-8.6-.4-12.7-.6-4.1-.3-8.1-.6-11.8-1-3.8-.4-7.3-.8-10.6-1.3-1.6-.3-3.2-.5-4.7-.7-1.5-.3-2.9-.5-4.2-.8-2.6-.5-4.9-1-6.8-1.5s-3.3-1.1-4.1-1.7c-.4-.3-.7-.5-.9-.7-.3-.2-.4-.3-.4-.3z"/><linearGradient id="SVGID_1_" gradientUnits="userSpaceOnUse" x1="6378.8" y1="1538.687" x2="6584.7" y2="1538.687" gradientTransform="matrix(1 0 0 -1 0 976.796)"><stop offset=".018" stop-color="#801fe3"/><stop offset="1" stop-color="#b7a7ff"/></linearGradient><path class="st1" d="M6378.8-655.5c1.4 24.4 2.7 48.8 4.1 73.2.4 7.9.9 15.9 2.2 23.7 1.8 11.1 5.4 21.8 8.9 32.5 3 9.1 6 18.2 11.1 26.3 17.8 28.1 51.5 32.7 81.9 31.3 10.6-.5 21.3-1.5 31.5-4.7 66.9-21.3 65.2-117 66.1-172.7 0-2.6.1-5.1.1-7.7-68.7 2.2-137.5 4-205.9-1.9z"/><path d="M6373.7-675.2s.6 8.1 1.5 22.2c.5 7.1 1 15.6 1.7 25.5.6 9.8 1.4 20.9 2.1 33.1.4 6.1.7 12.4 1.3 18.9.5 6.5 1.4 13.2 3 19.9s3.7 13.5 6 20.4c2.4 6.9 4.5 14 7.5 20.9.8 1.7 1.5 3.4 2.4 5.1.9 1.6 1.8 3.3 2.8 4.8 1.1 1.6 2.2 3.1 3.4 4.7 1.2 1.4 2.5 2.8 3.7 4.3 5.3 5.5 11.7 10 18.8 13.2 7.1 3.3 14.8 5.4 22.6 6.6 7.9 1.3 15.9 1.7 23.9 1.7 8-.1 16.1-.4 24-1.5 3.9-.5 7.9-1.2 11.7-2.2 1-.3 1.9-.5 2.8-.8l.7-.2h.1l.2-.1.4-.1 1.4-.5 2.8-1c.5-.2.9-.3 1.4-.5l1.3-.6c7.1-3.1 13.7-7.4 19.4-12.5 5.7-5.1 10.5-11.1 14.4-17.5 4-6.3 7.1-13.1 9.7-19.8 2.6-6.8 4.6-13.6 6.3-20.3 3.2-13.5 5-26.5 6.2-38.5 1.1-12.1 1.7-23.2 2-33 .3-9.9.5-18.4.7-25.5.2-14.2.4-22.2.4-22.2s0 2 .1 5.8c0 3.8.1 9.4.2 16.4 0 7.1 0 15.7-.2 25.5-.1 9.9-.5 21-1.5 33.1-1 12.1-2.6 25.2-5.7 38.9-1.6 6.8-3.6 13.7-6.1 20.6-2.5 6.9-5.7 13.8-9.8 20.3-4 6.5-9 12.7-14.8 18.1-5.9 5.4-12.7 9.8-20.2 13.1l-1.4.6c-.5.2-.9.4-1.4.5l-2.8 1-1.4.5-.4.1-.2.1-.2.1-.7.2c-1 .3-2 .6-2.9.8-3.9 1-8 1.8-12 2.4-8.1 1.1-16.2 1.5-24.4 1.6-8.2 0-16.3-.5-24.4-1.8-8-1.3-16-3.5-23.3-7-7.4-3.4-14.1-8.1-19.6-13.9-1.3-1.5-2.6-3.1-3.9-4.6-1.1-1.6-2.2-3.2-3.3-4.7-2.2-3.4-3.9-6.8-5.4-10.4-3-7.1-5.2-14.2-7.5-21.2-2.2-7-4.3-13.9-5.8-20.7-1.6-6.9-2.4-13.6-2.8-20.2-.5-6.6-.7-12.9-1-18.9-.6-12.1-1.1-23.2-1.6-33.1s-.8-18.4-1.2-25.5c-.7-14.2-1-22.2-1-22.2z"/><path d="M6374.1-659.8s.8 0 2.4.1 3.8.2 6.7.3c2.9.2 6.4.3 10.5.5 4 .2 8.6.3 13.6.5s10.4.3 16.1.5 11.7.2 17.9.4c6.2.1 12.6.1 19.2.2 6.5.1 13.2 0 19.8.1 6.6 0 13.3 0 19.8-.1s13-.1 19.2-.2c12.5-.1 24.1-.2 34-.3 10-.1 18.3-.1 24.1-.1h9.1s-.8.1-2.4.2c-1.6.1-3.8.2-6.7.4-5.8.3-14.1.8-24.1 1.3s-21.6.9-34 1.3c-6.2.1-12.7.4-19.2.4-6.5.1-13.2.1-19.8.2-6.6 0-13.3 0-19.8-.2-6.5-.1-13-.3-19.2-.4-6.2-.2-12.3-.4-18-.8-2.9-.2-5.6-.3-8.3-.5-2.7-.2-5.3-.4-7.8-.5-2.5-.2-4.9-.3-7.1-.5-2.3-.2-4.4-.4-6.4-.6-4-.4-7.6-.7-10.4-1-2.9-.3-5.2-.6-6.7-.7-1.7-.4-2.5-.5-2.5-.5z"/><linearGradient id="SVGID_2_" gradientUnits="userSpaceOnUse" x1="232.258" y1="400.881" x2="232.258" y2="718.098" gradientTransform="matrix(1 0 0 -1 0 976.796)"><stop offset="0" stop-color="#e0db99"/><stop offset=".044" stop-color="#bfb47d"/><stop offset=".093" stop-color="#9f9062"/><stop offset=".15" stop-color="#83704a"/><stop offset=".212" stop-color="#6b5436"/><stop offset=".282" stop-color="#583e26"/><stop offset=".363" stop-color="#4a2d19"/><stop offset=".465" stop-color="#402210"/><stop offset=".606" stop-color="#3a1b0b"/><stop offset="1" stop-color="#38190a"/></linearGradient><path class="st2" d="M171.6 263.3c23.3-1.1 46.7-1.8 70.2-1.8 32.9 0 71.5 3.1 103.1-2.8-.4 0 1.2 83 .5 137.5-.4 30.7 5.5 31.8 1.3 99-1.6 25.6-8 57.4-34 68.8-24.3 10.6-57.1 13.8-83.4 10.9-25-2.8-58.7-8.5-80.5-21.4-4.9-2.9-9.6-5.3-13.6-9.6-10.3-11-13.1-32.7-15-46.8-2.1-15.2-.2-31.3-1.8-46.6-2-19.3-1.7-38.8-.9-58.4.8-20.5.5-40.7 2.5-60.9.7-7.4 2.7-16.9 1.7-24.3-1.1-7.8-4-35.4-5.4-43.3 2.2 2 11.2 1.7 14 1.9 4.7.4 9.5.4 14.2.1 9-.6 18-1.9 27.1-2.3z"/><path class="st3" d="M111 258.3c2.2 2 11.2 1.7 14 1.9 4.7.4 9.5.4 14.2.1 9.1-.5 18.1-1.8 27.2-2.2 23.3-1.1 46.7-1.8 70.2-1.8 32.9 0 71.5 3.1 103.1-2.8-.4 0 1.2 83 .5 137.5-.4 30.7 5.5 31.8 1.3 99-1.6 25.6-8 57.4-34 68.8-24.3 10.6-57.1 13.8-83.4 10.9-25-2.8-58.7-8.5-80.5-21.4-4.9-2.9-9.6-5.3-13.6-9.6-10.3-11-13.1-32.7-15-46.8-2.1-15.2-.2-31.3-1.8-46.6-2-19.3-1.7-38.8-.9-58.4.8-20.5.5-40.7 2.5-60.9"/><path class="st0" d="M366.3 276.3c0-3.1.1-6.2.1-9.3 0-11.8 0-24.1-4.8-34.9-8-18.3-22.1-29.3-23.3-50.3-.8-13.9 1.3-27.9.6-41.8-.5-9.7 7.2-24.7-5.8-27.3-12.1-2.5-177.7-1.5-194.9-1.1-16 .3-22.8 2-25.2 12.2-1 2.8-1.2 6.3-1.1 10v3.1l.2.1c.5 6.5 1.8 13.3 2 17.4.7 13.3 1.4 27.2 1.2 40.4-.2 11.4-3.7 21.8-10.4 31-20.4 28.1-14.6 69.2-14.6 101.9 0 12.2 1.2 23.5 1.8 35.6 2.7 57.9-9.1 118.9 11.7 174.8 5 13.5 15.6 23.9 28 30.8 9.5 5.2 20.6 12.9 31.2 13.8 7.3.7 14.7 1.4 22.2 1.1 15.1-.6 26.6-2.7 42.1-1.8 33 2.1 66.3 1 96.6-10.9 34.9-13.8 38.6-55.5 43.1-87.5 5.1-36.6 3-71.6-.4-108-2.8-32.6-.7-66.5-.3-99.3z"/><path d="M121.8 121.6s0 1.4.1 3.8c0 2.4 0 5.9-.2 10.1-.1 4.2-.3 9-.3 14.2 0 2.6 0 5.3.2 8 .1 2.7.4 5.4.8 8.2.4 2.7.8 5.5 1.3 8.2s.9 5.4 1.4 7.9c.4 2.6.8 5.1 1.2 7.5.3 2.4.6 4.7.8 6.8.2 2.1.3 4.1.3 5.8v4.5c0 1.3-.1 2.3-.2 2.9-.1.7-.1 1-.1 1-.1 1.4-1.3 2.4-2.7 2.3s-2.4-1.3-2.3-2.7v-.2s0-.3.1-.9.2-1.5.3-2.7.2-2.6.3-4.2v-5.6c-.1-2-.2-4.3-.4-6.6-.2-2.4-.4-4.8-.7-7.4s-.6-5.3-.9-8c-.3-2.7-.6-5.5-.8-8.3s-.3-5.6-.3-8.4.1-5.5.3-8.1c.3-5.2.8-10.1 1.1-14.2.4-4.2.6-7.6.7-10v-3.9zm209 0s.4 1.3.8 3.5c.2 1.1.4 2.5.5 4 .2 1.6.3 3.3.3 5.2s.1 4-.1 6.2-.7 4.5-1.1 6.9c-.5 2.4-.8 4.8-.8 7.3-.1 2.5.1 5.1.4 7.6.3 2.6.6 5.1.7 7.6s.2 5 .4 7.3c.1 2.4.2 4.7.1 6.8 0 2.2-.1 4.2-.2 6.1s-.2 3.6-.3 5.2c0 .8-.1 1.5-.2 2.2s-.1 1.3-.1 1.9c-.2 2.2-.4 3.6-.4 3.6l-.5.1s-.5-1.2-1.1-3.4c-.3-1.1-.7-2.4-1-4-.3-1.5-.6-3.3-.9-5.2-.1-1-.3-2-.4-3s-.2-2.1-.3-3.2c-.2-2.2-.2-4.5-.1-6.9s.2-4.9.4-7.4c.1-1.3.2-2.5.4-3.8.2-1.3.4-2.5.6-3.8.4-2.5.7-5.1.8-7.6.1-2.5 0-5-.3-7.4s-.6-4.7-.6-6.9.1-4.3.3-6.2c.3-3.8.8-7 1.3-9.2.4-2.2.8-3.5.8-3.5h.6z"/><path d="M297.2 128.6s-1.9.1-5.6.3c-3.6.2-9 .5-15.8.7s-15.1.6-24.6.9c-9.5.3-20.2.6-31.9.8-11.7.2-24.3.5-37.7.7-13.4.3-27.5.7-42 1.5-3.6.2-7.3.4-11 .7-1.8.1-3.7.2-5.5.4s-3.7.5-5.5.9-3.6.8-5.4 1.4c-1.7.6-3.5 1.4-4.7 2.8-.5.7-.7 1.6-.5 2.4.3.8.9 1.5 1.5 2.2l.5.5c.1.1.4.3.6.4.4.2.8.4 1.2.5.9.2 1.8.3 2.8.4 3.8.2 7.6-.3 11.5-.6 3.9-.1 7.7 0 11.6-.1 7.7-.1 15.5-.3 23.3-1 7.8-.8 15.5-1.2 23.3-1.5 7.7-.4 15.5-.8 23.1-1.2 15.3-.7 30.4-1.2 45-1.7s28.7-.9 42-1.3c6.7-.3 13.2-.5 19.5-.8 1.6-.1 3.1-.1 4.7-.2 1.7-.1 3.2.1 4.7.3 3 .3 6 .5 8.9.7 2.9.1 5.7.2 8.5 0 2.7-.2 5.4-.6 7.6-1.8 1.1-.6 1.9-1.5 2.2-2.5.2-.5.2-1.1.2-1.7v-.4c0-.2-.1-.3-.1-.4-.1-.2-.2-.5-.4-.7-.7-.9-1.7-1.5-2.8-1.9-1.1-.4-2.2-.8-3.4-1-4.6-1-9-1.2-13.1-1.3s-7.9 0-11.3.1c-7.1.3-14.3.8-21.4 1.5zm0-.2s1.9-.2 5.6-.5c3.6-.3 9-.8 15.8-1.2 3.4-.2 7.2-.3 11.3-.3 4.1 0 8.6.1 13.3 1 1.2.2 2.4.5 3.6 1s2.4 1 3.3 2.2c.2.3.4.6.6 1 .1.2.1.4.2.5 0 .1 0 .1.1.3v.3c.1.7.1 1.4-.1 2.1-.4 1.4-1.5 2.6-2.7 3.3-1.2.7-2.6 1.2-4 1.5s-2.8.5-4.2.7c-2.8.3-5.7.3-8.7.2-2.9-.1-5.9-.3-8.9-.6-1.5-.1-3-.3-4.5-.2-1.5.1-3.1.2-4.7.3-6.3.4-12.8.6-19.5.9-13.4.5-27.5 1-42.1 1.4s-29.7.8-45 1.4l-23.1.9c-7.7.3-15.5.6-23.3 1.2s-15.6.7-23.3.6c-3.9 0-7.8-.1-11.6 0-3.8.2-7.7.7-11.5.5-1-.1-1.9-.2-2.9-.4-.5-.1-1-.3-1.4-.6-.2-.1-.4-.2-.6-.4l-.5-.5c-.7-.7-1.4-1.5-1.7-2.4-.4-1-.1-2.2.6-3 .6-.8 1.5-1.4 2.3-1.8.9-.5 1.7-.8 2.6-1.2 1.8-.6 3.6-1.1 5.5-1.5 1.8-.4 3.7-.7 5.6-.9 1.9-.2 3.7-.3 5.6-.5 3.7-.3 7.4-.7 11-.9 14.6-1.1 28.7-1.8 42-2.1 6.7-.2 13.2-.4 19.5-.4s12.4-.1 18.2-.1c11.7 0 22.4-.1 31.9-.1 9.5-.1 17.8-.1 24.6-.4 6.8-.2 12.2-.4 15.8-.6 3.4-.6 5.3-.7 5.3-.7zm-112.5 55.7c7.1.3 14.1 1.2 21.2 1.6 3.5.2 7.1.3 10.6.2 3.5-.1 7.1-.4 10.6-.6l21.2-1.2c7.1-.4 14.2-.7 21.3-.9 7.1-.2 14.2-.5 21.3-.5 7.1-.1 14.2-.1 21.3 0l21.3.2h5.3c1.8 0 3.5 0 5.2-.3s3.3-.9 4.4-2.1 1.6-2.9 1.6-4.6v.1c-.2-1.2-1-2.1-2.2-2.5-1.1-.4-2.4-.3-3.7-.3-2.5.2-5.1.7-7.6 1-5.2.5-10.3.1-15.4-.3s-10.2-.9-15.3-.9c-2.5 0-5.1.2-7.7.3l-7.7.3c-10.3.4-20.5.6-30.8.7-5.1 0-10.3.1-15.4.1s-10.3-.1-15.4-.2c-10.3-.3-20.5-.9-30.8-1.3-5.1-.2-10.2-.4-15.4-.5-5.1-.1-10.2-.2-15.3-.1-5.1 0-10.2.2-15.3.4-5.1.3-10.3.4-15.4.6-5.1.1-10.2.3-15.3.6-2.5.1-5.1.3-7.6.6-1.2.2-2.5.4-3.7.7-.6.1-1.1.4-1.6.6-.2.1-.4.3-.6.4-.1.1-.1.2-.2.2v.2c-.3 1.2-.3 2.5 0 3.8v-.1c.2.5.6 1 1.2 1.3.6.4 1.3.6 2.1.9 1.5.5 3.1.8 4.7 1 3.2.5 6.5.7 9.8.9l9.9.6c1.6.1 3.3.1 4.9.2h4.9c6.6-.1 13.2-.4 19.7-.7 3.3-.1 6.6-.3 9.9-.3h4.9c1.8-.2 3.5-.1 5.1-.1zm0 .2c-1.6 0-3.3-.1-4.9-.1h-4.9c-3.3.1-6.6.2-9.9.4-6.6.3-13.1.9-19.7 1.1-1.6 0-3.3.1-4.9.1h-5l-9.9-.3c-3.3-.1-6.6-.3-9.9-.6-1.7-.2-3.3-.4-5-.9-.8-.2-1.7-.5-2.5-1-.8-.4-1.6-1.2-2-2.2v-.1c-.3-1.5-.3-3 0-4.5v.2c0-.6.3-1.1.6-1.5.3-.3.7-.5 1-.7.7-.3 1.3-.6 2-.7 1.3-.4 2.6-.6 3.9-.8 2.6-.4 5.2-.6 7.7-.8 5.1-.3 10.3-.5 15.4-.6 5.1-.2 10.2-.3 15.3-.6 5.1-.3 10.3-.4 15.4-.5s10.3 0 15.4.2 10.3.4 15.4.6c10.3.5 20.5 1.1 30.7 1.5 5.1.2 10.2.4 15.4.4 5.1.1 10.3.1 15.4.1 10.3 0 20.5 0 30.8-.3 2.6-.1 5.1-.1 7.7-.2s5.1-.3 7.7-.2c5.2 0 10.3.6 15.4 1s10.2.7 15.3.2c2.5-.3 5-.8 7.6-1 1.3-.1 2.6-.2 4 .3.7.2 1.3.6 1.8 1.1l.6.9.4 1v.1c0 1.8-.5 3.8-1.8 5.2-.3.4-.7.7-1.1 1-.4.2-.8.5-1.2.7-.8.4-1.8.6-2.6.8-1.8.3-3.6.4-5.4.4l-5.3.1-21.3.2c-7.1 0-14.2 0-21.3.2l-21.2.4-21.2.6-21.3.7c-3.5.1-7.1.3-10.6.4-3.6 0-7.1-.1-10.6-.4-7.3-.6-14.3-1.5-21.4-1.9zm-73.6 74.5s.2.1.5.4c.4.2.9.4 1.8.6 1.6.4 4.1.6 7.2.7 1.6.1 3.3 0 5.2.2 1.9.1 3.9.2 6.1.2 4.4 0 9.3-.3 14.6-.9 5.3-.5 11.1-1.2 17.3-1.7 6.2-.4 12.6-.7 19.4-1 13.4-.6 27.8-1.1 42.1-1.4 7.2-.1 14.3-.2 21.4-.2s14 .2 20.7.3c6.7.2 13.2.3 19.3.4 6.1.1 12 .1 17.3.1 2.7 0 5.2-.1 7.7-.2 2.4 0 4.8-.2 6.9-.3 2.2-.1 4.2-.2 6.1-.4.9-.1 1.8-.1 2.7-.2.9-.1 1.7-.2 2.5-.2 1.6-.2 3-.3 4.2-.4 1.2-.2 2.2-.3 3.1-.4 1.7-.2 2.6-.3 2.6-.3l.1.3s-.9.2-2.5.5c-.8.2-1.8.4-3 .6s-2.6.4-4.1.7c-.8.1-1.6.3-2.5.4s-1.8.2-2.7.4c-1.9.2-3.9.5-6.1.7s-4.5.5-7 .6c-1.2.1-2.5.2-3.8.3-1.3.1-2.6.1-4 .2-2.7.2-5.5.2-8.4.3-2.9 0-5.9.1-9 .1-6.2.1-12.7-.1-19.4-.2-6.7-.2-13.6-.4-20.7-.6-7-.2-14.2-.2-21.4-.2-14.3 0-28.6.3-42.1.7-6.7.2-13.2.4-19.3.7-6.1.3-11.9.9-17.3 1.3s-10.3.6-14.7.6c-2.2 0-4.2-.1-6.1-.3-1.9-.2-3.6-.2-5.2-.3-3.1-.1-5.6-.4-7.3-.8-.8-.2-1.4-.5-1.9-.7-.4-.2-.5-.4-.5-.4l.2-.2z"/><path d="M302 230.8h1c.6 0 1.6 0 2.8.1 2.5.1 6.1.3 10.7 1.2 2.3.5 4.8 1.1 7.4 2.1s5.4 2.3 8 4.4c.3.3.6.5 1 .8l.9.9.9.9c.3.3.5.7.8 1 1.1 1.4 1.9 3.1 2.6 4.8 1.4 3.4 2.3 7.2 2.9 11.2 1.2 8 1.1 16.7.8 25.7-.1 4.6-.2 9.2-.2 13.9v14.6c-.1 9.9-.2 20.2-.4 30.6-.1 10.4-.1 21 .3 31.5.1 5.3.4 10.5.7 15.8l.6 7.8.3 3.9c.1 1.3.2 2.6.2 3.9.6 10.4.6 20.7.6 30.7-.1 9.9-.4 19.5-.6 28.6-.1 4.5-.1 9-.2 13.2-.1 4.3-.4 8.5-.8 12.4-.8 7.9-2.3 15.1-3.9 21.4-1.6 6.3-3.5 11.6-5.8 15.7-2.2 4.1-4.5 7-6 8.9-.8 1-1.4 1.7-1.8 2.2s-.6.7-.6.7.2-.3.6-.8 1-1.3 1.7-2.3c1.4-2 3.6-5 5.6-9.1 2.1-4.1 3.8-9.4 5.2-15.7 1.4-6.3 2.6-13.4 3.3-21.3.3-3.9.5-8 .5-12.3s0-8.7-.1-13.2c0-9.1.1-18.7.1-28.6 0-9.9-.2-20.1-.8-30.5l-.3-3.9-.3-3.9c-.2-2.6-.4-5.2-.6-7.9-.3-5.3-.6-10.6-.8-15.9-.3-10.6-.3-21.2-.2-31.6.1-10.4.4-20.7.6-30.6.1-5 .2-9.8.2-14.6 0-4.8.2-9.5.4-14 .4-9.1.7-17.6-.3-25.4-.5-3.9-1.4-7.5-2.6-10.9-.2-.4-.3-.8-.5-1.3l-.2-.6-.3-.5c-.4-.7-.7-1.5-1.3-2.1-.2-.3-.5-.7-.7-1s-.5-.6-.8-.9-.6-.6-.8-.9c-.3-.3-.6-.5-.9-.8-2.4-2-5.1-3.4-7.6-4.5-2.6-1.1-5-1.7-7.2-2.3-4.5-1-8.1-1.4-10.6-1.6-1.2-.1-2.2-.2-2.8-.2-.3.3-.7.3-.7.3z"/><path class="st4" d="M338.4 146.8c29.3 4.5 61.4-13.3 73.3-41.1 23-54.1-29.3-114.5-85.8-95.5-13.4 4.5-24.5 9.3-34.3 19.5-1.9 2-4.2 8.2-5.8 10.5-8.1 11.6-10.3 30-8.1 43.6 4.4 26.9 25.3 50.7 49.6 60.7"/><path class="st5" d="M238.3 427.2c.8-.4 1.6-.7 2.4-.9 2.3-.6 4.6-.6 7-.5 18.6.6 31 5.5 48.6 10.6 4 1.2 8.1 2.4 11.2 5.3 4.8 4.5 5.7 11.6 8.1 17.7 3.3 8.4 9.6 15.3 14.7 22.8 5 7.5 8.9 16.8 6.4 25.5-1 3.5-3 6.6-4.9 9.7l-12.9 20.4c-5 7.8-10.2 16-18.3 20.6-11.9 6.8-26.7 4.4-40.1 1.8-10.7-2.1-22.2-4.6-29.7-12.6-3.4-3.6-5.6-8.1-7.8-12.6-4-8.1-8.1-16.2-12.1-24.4-12.9-25.9 2.7-58.5 20.5-77.8 2-2 4.3-4.2 6.9-5.6z"/><path d="M213.7 486.1s1.5 0 4.1-.1 6.4-.2 10.9-.3 9.8-.2 15.4-.2c2.8 0 5.7 0 8.7-.1 2.9 0 6 0 8.9-.1 3-.1 5.9-.3 8.5-1.5 2.6-1.1 4.7-3.2 6.4-5.3 1.7-2.2 3.2-4.4 4.8-6.5 1.5-2.1 2.9-4.1 4.2-5.9 2.6-3.7 4.8-6.7 6.3-8.8s2.4-3.3 2.4-3.3-.8 1.3-2.2 3.5c-1.4 2.2-3.5 5.4-5.9 9.1-1.2 1.9-2.6 3.9-4 6.1-1.4 2.1-2.9 4.5-4.7 6.7-1.8 2.2-4 4.4-6.8 5.7s-6 1.6-9 1.7H244c-5.6 0-10.9-.1-15.4-.2s-8.3-.2-10.9-.2c-2.5-.2-4-.3-4-.3zm57.8-1s.5.8 1.3 2.3 2 3.5 3.4 6c1.3 2.5 2.9 5.4 4.5 8.6 1.6 3.2 3.3 6.6 4.9 10 .8 1.7 1.6 3.5 2.4 5.2s1.5 3.4 2.2 5c1.4 3.3 2.7 6.4 3.8 9 1.1 2.6 1.9 4.9 2.5 6.4.6 1.6.9 2.5.9 2.5s-.4-.9-1.1-2.4-1.7-3.7-2.9-6.2c-2.4-5.2-5.6-12-8.9-18.9-3.2-6.9-6.5-13.7-8.9-18.9-1.2-2.6-2.2-4.7-2.9-6.2l-1.2-2.4z"/><path class="st6" d="M338.1 75.4c2 4 6.5 6.7 11 6.7 1.5 0 3-.2 4.2-1 1.2-.7 2.1-1.7 2.9-2.8 4.1-6.1 1.6-18.7-6.8-20.1-8.9-1.5-15 10-11.3 17.2z"/><path d="M346 82.7s.4 2.3 1.2 6.2c.8 4 2 9.6 3.5 16.3.8 3.4 1.6 7 2.6 10.8.5 1.9 1 3.9 1.5 5.9.3 1 .5 2 .8 3s.5 2.1.9 3c.3 1 .8 1.8 1.4 2.5.7.7 1.5 1.2 2.5 1.6 2 .9 4 1.4 6.2 1.5 4.3.3 8.8-.9 12.6-3.1 3.9-2.2 7.3-5.3 9.5-9 1.1-1.9 1.8-3.9 2.1-5.9 0-.3.1-.5.1-.8v-.8c0-.5 0-1-.1-1.5-.1-1-.4-2-.7-3-1.3-3.9-4-7.1-6.8-9.8-2.9-2.6-5.9-4.9-8.6-7-5.4-4.3-9.9-7.9-13.1-10.4-3.1-2.5-4.9-4-4.9-4s1.9 1.3 5.2 3.7c3.3 2.4 8 5.7 13.6 9.8 2.8 2.1 5.9 4.2 8.9 6.8s6 6 7.5 10.3c.4 1.1.7 2.2.8 3.3.1.6.1 1.2.1 1.8v.8c0 .3 0 .6-.1.9-.2 2.4-1.1 4.7-2.3 6.7-2.4 4.1-6 7.4-10.2 9.8-4.2 2.3-9 3.6-13.7 3.3-1.2-.1-2.4-.3-3.5-.6-.6-.2-1.2-.3-1.7-.5l-.8-.3-.4-.2c-.2-.1-.3-.1-.4-.2-1.1-.5-2.1-1.2-3-2.1-.9-.9-1.4-2.1-1.8-3.2-.4-1.1-.6-2.1-.8-3.2-.2-1-.5-2.1-.7-3.1-.5-2-.9-4-1.4-6-.9-3.9-1.6-7.6-2.2-11-1.3-6.8-2.2-12.5-2.8-16.5-.3-2-.5-3.6-.6-4.6-.3-.7-.4-1.2-.4-1.2zm13.4-10.2l.3.3c.2.2.5.4.9.7.8.6 2.2 1 3.9 1.5 3.5 1.1 8.5 2.7 14.3 5.3 2.9 1.3 5.9 2.8 9.1 4.6 1.6.9 3.2 1.8 4.8 2.5 1.7.7 3.5 1.2 5.2 1 .5 0 .8-.1 1.3-.2.4-.1.8-.3 1.2-.4.8-.4 1.6-.9 2.3-1.5s1.3-1.4 1.8-2.2c.3-.4.5-.8.7-1.3.2-.4.4-.9.5-1.3 1.3-3.7 1.3-7.9.9-11.9-.4-4.1-1.4-8.1-3-11.8-.8-1.8-1.7-3.6-2.8-5.3-.5-.8-1-1.6-1.6-2-.7-.4-1.5-.6-2.4-.7-.9-.1-1.9 0-2.9 0-.9 0-1.9.1-2.8.1l-2.7.3c-.9.1-1.8.3-2.7.4-3.5.7-6.7 1.6-9.7 2.6-5.9 2-10.7 4.2-14 5.7s-5.2 2.4-5.2 2.4.5-.3 1.3-.7c.9-.5 2.1-1.2 3.7-2s3.6-1.9 5.9-3 4.9-2.3 7.9-3.5c3-1.1 6.2-2.2 9.8-3 .9-.2 1.8-.3 2.7-.5.9-.1 1.9-.2 2.8-.4 1-.1 2-.2 2.9-.2h3c1 0 2.2.2 3.3.9s1.7 1.7 2.2 2.6c1.1 1.7 2.1 3.6 3 5.5 1.7 3.9 2.8 8.1 3.2 12.3.2 2.1.2 4.3.1 6.4-.1 2.1-.5 4.3-1.2 6.4l-.6 1.5c-.2.4-.5 1-.8 1.4-.6.9-1.3 1.8-2.1 2.5s-1.7 1.3-2.8 1.8c-.5.2-1 .4-1.6.5-.5.1-1.1.2-1.6.2-2.2.1-4.2-.5-6-1.3s-3.4-1.8-4.9-2.7c-3.1-1.8-6-3.5-8.8-4.9-5.6-2.8-10.4-4.8-13.9-6-1.7-.6-3.1-1.2-3.9-1.8-.4-.3-.7-.6-.8-.8-.1.1-.2 0-.2 0zM353.9 57s1.5-1.1 4.1-3 6.3-4.6 10.9-7.8c2.2-1.6 4.7-3.3 7.3-5.1 1.2-.9 2.5-2 3.5-3.1 1-1.2 1.9-2.5 2.3-4 .1-.4.1-.8.2-1.1v-1.1c-.1-.8-.3-1.5-.6-2.3-.6-1.5-1.6-2.9-2.9-4-2.6-2.3-6-3.5-9.4-4.8s-6.9-2.6-10.2-3.9c-1.6-.6-3.3-.9-4.6-.5-1.5.5-2.5 1.7-3.3 3.1-.8 1.4-1.2 3-1.8 4.6-.5 1.6-1 3.1-1.4 4.6-.8 3-1.4 6-1.9 8.7-.9 5.4-1.3 10-1.4 13.2s-.1 5.1-.1 5.1 0-.5-.1-1.3c-.1-.9-.2-2.1-.2-3.7-.1-1.6-.1-3.6 0-5.8.1-2.3.2-4.8.6-7.6.3-2.8.8-5.7 1.6-8.8.4-1.5.8-3.2 1.2-4.8.5-1.6.9-3.3 1.8-4.9.4-.8.9-1.6 1.6-2.4.4-.4.7-.7 1.2-1 .2-.1.5-.3.7-.4.3-.1.4-.2.6-.3 2.1-.7 4.2-.2 5.9.4 3.5 1.3 6.9 2.6 10.3 3.9 3.4 1.3 7.1 2.6 10 5.3 1.4 1.3 2.6 2.9 3.3 4.7.4.9.6 1.9.7 2.8v1.5c-.1.5-.1 1-.3 1.4-.5 1.9-1.6 3.4-2.7 4.7-1.2 1.3-2.5 2.3-3.8 3.2-2.7 1.8-5.2 3.4-7.5 4.9-4.6 3-8.6 5.4-11.3 7.1-2.8 1.5-4.3 2.5-4.3 2.5zm-13 2s-.9-1.7-2.6-4.6c-1.6-2.9-3.9-7.1-6.7-12.2-1.4-2.5-2.8-5.3-4.4-8.1s-3.6-5.7-6.3-7.7c-2.7-2-6.3-3.1-9.6-2-1.6.5-3.1 1.6-4.4 2.8s-2.7 2.7-3.9 4c-2.4 2.8-4.6 6-5.3 9.4-.3 1.7-.2 3.4.4 5 .5 1.6 1.6 3 2.7 4.2 2.4 2.4 5.5 4 8.5 5.2s6 2.3 8.6 3.7 4.7 2.9 6.7 4.1c2 1.2 3.8 2.2 5.3 2.9s2.8 1.1 3.6 1.4c.9.3 1.3.4 1.3.4s-.5-.1-1.3-.3c-.9-.2-2.2-.5-3.7-1.1-1.6-.6-3.4-1.5-5.5-2.6-1-.6-2.1-1.2-3.3-1.8-1.1-.6-2.3-1.4-3.6-2-2.5-1.2-5.5-2.1-8.6-3.3-3.1-1.1-6.5-2.7-9.2-5.3-1.4-1.3-2.5-2.9-3.3-4.8-.7-1.8-.9-4-.5-6 .8-4 3.1-7.4 5.7-10.4 1.3-1.5 2.6-2.8 4.1-4.2 1.5-1.3 3.1-2.5 5.2-3.2 1.9-.7 4.1-.7 6-.2s3.7 1.4 5.2 2.6c3.1 2.3 5 5.5 6.5 8.4 1.6 2.9 2.9 5.8 4.1 8.3 2.5 5.2 4.5 9.5 6 12.5 1.5 3.1 2.3 4.9 2.3 4.9zm-5.5 11.7s-1.9-.3-5.3-.7c-3.4-.5-8.2-1-14-1.5-2.9-.2-6.1-.5-9.4-.6-1.7-.1-3.4-.2-5.1-.2s-3.6-.2-5.2 0c-.8.1-1.6.3-2.2.7-.4.3-.7.4-.9.7-.3.3-.5.6-.7.9-.8 1.4-1.2 3.2-1.2 5-.1 1.8.1 3.7.4 5.6.2 1.9.5 3.8 1 5.7.8 3.7 2 7.4 3.5 10.9.7 1.7 1.6 3.4 2.7 4.5.3.3.6.5.9.7l.3.1.1.1.2.1c.2.1.4.2.6.2.7.2 1.5.3 2.3.3 1.6-.1 3.3-.8 4.8-1.5 1.5-.8 2.9-1.7 4.4-2.6 2.8-1.8 5.4-3.6 7.7-5.3 4.6-3.5 8.3-6.7 10.8-9s3.9-3.7 3.9-3.7-.3.4-.9 1.1c-.6.7-1.5 1.7-2.7 2.9-2.4 2.5-5.8 5.9-10.4 9.6-2.3 1.9-4.8 3.8-7.6 5.7-.7.5-1.4.9-2.1 1.4s-1.5.9-2.3 1.4c-1.6.9-3.4 1.6-5.4 1.8-1 .1-2 0-3.1-.3-.3-.1-.5-.2-.7-.3l-.2-.1c-.1-.1-.1-.1-.2-.1l-.4-.2c-.5-.3-.9-.6-1.3-1-1.6-1.5-2.5-3.3-3.2-5.1-1.6-3.6-2.8-7.4-3.6-11.2-.4-1.9-.7-3.9-1-5.9-.2-2-.4-3.9-.3-5.9s.4-4.1 1.6-5.9c.3-.5.6-.9 1-1.3s.9-.8 1.3-1c1-.6 2-.8 3-.9 2-.2 3.8 0 5.5.1 1.8.1 3.5.2 5.2.4 3.3.3 6.5.6 9.4 1 5.8.7 10.6 1.6 14 2.2 1.7.3 3 .6 3.9.8.4.3.9.4.9.4zm3 8s0 .5-.1 1.5-.3 2.4-1 4.1c-.6 1.7-1.6 3.7-2.9 5.9s-3 4.5-4.9 6.9c-1.8 2.5-3.8 5.2-5.4 8.3s-2.9 6.6-4.1 10.2c-.3.9-.6 1.8-.9 2.8-.3.9-.5 1.8-.7 2.8-.3 1.9-.4 3.8.2 5.4.3.8.8 1.5 1.5 2 .6.5 1.5.9 2.4 1.1 1.8.5 3.9.7 6 1 2 .3 4.1.6 6.1.9 1 .2 2 .3 3 .5 1 .1 2 .3 2.9.4.9.1 1.7 0 2.3-.4.5-.4.8-1.1.9-2s.1-1.9.2-2.9c0-1 .1-1.9.1-2.9.1-7.7-.3-14.9-.6-21-.3-6.2-.5-11.3-.5-14.9v-5.7s.1 2.1.4 5.6c.1 1.8.3 4 .5 6.5s.5 5.3.8 8.4c.5 6.2 1.2 13.3 1.2 21.1v2.9c0 1 0 2-.1 3.1-.1.5-.2 1.1-.4 1.7-.2.6-.7 1.2-1.2 1.6-1.1.8-2.5.9-3.5.8-1.1-.1-2.1-.3-3.1-.4-1-.1-2-.3-3-.4-2-.3-4.1-.6-6.1-.9l-3.1-.5c-1-.2-2.1-.3-3.1-.6-1.1-.3-2.1-.7-3.1-1.5-.9-.7-1.6-1.7-2-2.8-.9-2.2-.7-4.4-.3-6.5.2-1 .5-2 .8-3 .3-.9.6-1.9.9-2.8 1.3-3.7 2.7-7.2 4.4-10.3 1.7-3.2 3.8-5.8 5.8-8.3 1.9-2.4 3.7-4.6 5.1-6.6s2.5-3.9 3.2-5.6c.2-.4.3-.8.4-1.2s.3-.7.4-1.1c.2-.7.3-1.2.4-1.7.2-1 .2-1.5.2-1.5z"/><path class="st6" d="M336.8 134.4c-9.5 1.1-19.1-3.1-26.4-9.4s-12.4-14.6-16.9-23.1c-11.1-21-12.7-53.1 6.2-70.6 4.5-4.2 9.9-7.2 15.4-9.9 11.2-5.6 23.4-9.9 36-9.6 22.3.7 43.7 15.6 55 34.8 5 8.6 8.2 18.4 7.9 28.3-.5 14.7-8.4 28.1-17 40-7.5 10.4-16.9 21.1-29.6 22.6-8.9 1-15.7 5.2-24.6 4.9"/><path class="st7" d="M147.1 537.5c15-16.9 15.8-15.1 30.7-32.2 14.3-16.5 28.6-33 39.4-51.8 10.6-18.5 18-39.2 32.7-54.9 3.3-3.4 7-6.7 8.6-11.1-29-4.2-57.6-2.2-82.7 5.7-5.2 1.6-25 15.1-29.4 20.1-10.3 11.7-16.1 22.8-19.7 38.2-4.8 20.5-5.8 34.8 5.8 56.4 4.1 7.4 9.7 21.4 14.6 29.6z"/><path class="st6" d="M153.1 531.6c-1.3-1.6-2.2-3-3.4-4.7-2.6-3.4-4.1-7.1-5.6-10.9-8.1-20-12.8-38-9.5-57.2 2.5-11.5 8.2-21.8 13.6-32 3.1-5.5 6.1-11.2 10.9-15.5 7.1-6.4 17.2-9.5 27.4-11.9 17.4-4.2 35.9-7.4 55.7-2.9 2.4.5 3.7 1.9 5.8 3.3"/><path class="st6" d="M213 460.3c-1.4-1.5-3.6-2-5.7-1.6-2 .4-3.8 1.4-5.4 2.7-2.6 2.1-5 4.9-5.8 8.1s.1 7.2 2.8 9.1"/><path d="M200.7 461.4c-1.7-2.1-3.5-4.2-5.2-6.3l-5.1-6.4-2.5-3.2c-.8-1.1-1.7-2.1-2.5-3.2l-4.9-6.5-4.8-6.6c-.8-1.1-1.6-2.2-2.3-3.4-.8-1.1-1.5-2.3-2.2-3.5s-1.2-2.5-1.7-3.8-.8-2.7-.8-4.1c-.1-1.4 0-2.8.4-4.2s1-2.7 1.9-3.8c.1-.2.3-.3.4-.4l.3-.3c.1-.1.2-.3.4-.4.1-.1.3-.2.4-.3l-.1.1c1.4-1.3 3.1-2 4.8-2.5 1.7-.5 3.4-.9 5.2-1.3 3.4-.7 7-1.3 10.6-1.1.9.1 1.8.2 2.7.4.9.2 1.8.4 2.6.8 1.7.7 3.3 1.6 4.6 2.8 1.3 1.2 2.4 2.8 3.1 4.5s.9 3.5 1.1 5.3l.1 1.3v1.4l.2 2.6.3 5.3.3 5.3.1 2.6c.1.9.1 1.8 0 2.7s-.2 1.8-.2 2.6c-.1.9-.1 1.7-.1 2.6l-.1 5.3c0 1.8-.1 3.5 0 5.3s.3 3.5.6 5.2c-.4-1.7-.6-3.5-.8-5.2-.2-1.8-.1-3.5-.1-5.3v-8c0-.9.1-1.8.2-2.6 0-.9 0-1.7-.1-2.6l-.2-2.6-.4-5.3-.4-5.3-.2-2.6v-1.3l-.2-1.3c-.2-1.7-.5-3.4-1.1-5s-1.6-3-2.9-4.1-2.8-2-4.3-2.6c-.8-.3-1.6-.6-2.4-.7-.9-.2-1.7-.3-2.6-.3-3.4-.2-6.9.4-10.3 1.1-1.7.4-3.4.7-5.1 1.2-1.6.5-3.3 1.2-4.5 2.3-.1.1-.2.1-.3.2l-.3.3c-.2.3-.5.5-.6.6-1.6 2.1-2.3 4.7-2.1 7.4 0 .7.1 1.3.2 2 .1.3.1.7.2.9.1.3.2.6.3 1 .4 1.3 1 2.5 1.6 3.7s1.4 2.3 2.1 3.4c.7 1.1 1.5 2.3 2.3 3.4 1.6 2.2 3.1 4.4 4.7 6.6l4.8 6.6c.8 1.1 1.6 2.2 2.5 3.2l2.5 3.2 4.9 6.5c1.6 2.1 3.3 4.3 5 6.4zm12.8-8l-.6 3.5h-.2c.2-1.7.5-3.5.7-5.2l.6-5.2c.4-3.5.8-7 1-10.5.1-1.7.2-3.5.2-5.2l-.2-5.3v-2l-.1-.6-.4-2.6-.7-5.2c-.3-1.8-.4-3.6-.3-5.4 0-.5.1-.9.2-1.4l.1-.6c0-.2.1-.5.2-.7.2-.9.6-1.8 1.1-2.5 1-1.5 2.3-2.8 3.9-3.8s3.3-1.5 5.1-1.8c1.8-.3 3.6-.3 5.4.1 1.8.3 3.4 1 5.1 1.7 1.6.7 3.1 1.7 4.6 2.6 1.5 1 2.8 2.1 4.3 3.1l-2.2-1.5c-.7-.5-1.4-1-2.2-1.5-1.5-.9-3-1.8-4.7-2.4-1.6-.7-3.3-1.2-5-1.5s-3.4-.3-5.1.1c-1.7.3-3.3.9-4.8 1.8-1.4.9-2.7 2.2-3.6 3.6-.4.7-.8 1.5-1 2.3-.1.2-.1.4-.1.6l-.1.6c-.1.4-.1.8-.2 1.3-.1 1.7 0 3.4.3 5.1.3 1.8.5 3.5.7 5.2l.3 2.6c0 .2.1.4.1.7v2l.1 5.3c0 1.8-.1 3.5-.2 5.3-.3 3.5-.7 7-1.2 10.5l-.8 5.2c-.3 1.7-.6 3.5-.9 5.2h-.2l.8-3.5zm-17.2 19.2l-14.3-4.2-7.1-2.1c-1.2-.4-2.4-.8-3.6-1.1l-3.5-1.1-3.5-1.1c-1.2-.4-2.4-.8-3.5-1.3-2.3-.9-4.6-1.9-6.8-3.1-4.4-2.3-8.5-5.4-11.6-9.5-.5-.8-.9-1.7-1.1-2.6-.1-.5-.1-1-.1-1.5s.2-1 .3-1.4c.3-.9.8-1.7 1.2-2.5l1.2-2.4 2.4-4.8c.8-1.6 1.7-3.2 2.8-4.7s2.5-2.8 4.3-3.6c1.7-.9 3.7-1 5.6-.6.9.2 1.8.5 2.7.9.8.4 1.6.9 2.4 1.5 1.5 1.1 2.8 2.4 4.1 3.7l15.3 15.3c2.5 2.6 5.1 5.2 7.5 7.8 1.2 1.3 2.5 2.6 3.7 4s2.3 2.8 3.3 4.3l.6 1.3-.7-1.3c-.5-.7-1.1-1.4-1.7-2.1-.6-.7-1.2-1.4-1.8-2-1.2-1.3-2.5-2.6-3.7-3.9l-7.7-7.6-15.5-15.1c-1.3-1.3-2.5-2.5-4-3.6-.7-.5-1.5-1-2.2-1.4-.8-.4-1.6-.7-2.5-.8-1.7-.3-3.5-.2-5 .6-1.5.7-2.8 2-3.9 3.3-1.1 1.4-1.9 3-2.7 4.6l-2.4 4.8-1.2 2.4c-.4.8-.8 1.6-1.1 2.4l-.3 1.2c0 .4 0 .8.1 1.2.1.8.5 1.6 1 2.3 1.5 2 3.2 3.7 5.1 5.3 1.9 1.5 4 2.9 6.1 4 2.2 1.2 4.4 2.2 6.7 3.1 1.1.5 2.3.9 3.5 1.3l3.5 1.2 3.5 1.2c1.2.4 2.4.8 3.5 1.2l7.1 2.2 7.1 2.2 6.9 2.1zm.3 9.3s-1.9.8-5.2 2.2c-1.7.6-3.7 1.4-6.1 2.3-2.4.9-5 1.9-7.9 2.9-2.9.9-6.1 2-9.5 3s-7 2.1-10.8 3-7.6 1.8-11.6 2.6l-1.5.3c-.5.1-1.1.2-1.7.1-.6-.1-1.2-.4-1.6-.8-.4-.4-.7-.9-1-1.4-1-1.9-1.4-4.1-1.4-6.2.2-4.3 2.1-8.3 4.7-11.5 1.3-1.6 3-3 4.9-3.8 1.9-.9 4-1 5.9-1.1 3.9 0 7.6.2 11.1.3s6.9.2 10 .3c6.2.3 11.3.5 14.9.7s5.7.3 5.7.3-2.1 0-5.7-.1-8.7-.2-14.9-.4c-6.2-.1-13.4-.2-21.1-.3-1.9 0-3.8.2-5.6 1-1.7.8-3.3 2.1-4.5 3.6-2.5 3.1-4.2 7-4.4 10.9 0 2 .4 4 1.3 5.7.5.8 1.1 1.6 1.9 1.7.4.1.9 0 1.4-.1l1.5-.3c3.9-.8 7.8-1.7 11.6-2.6 7.5-1.8 14.4-3.9 20.3-5.7 5.8-2 10.7-3.7 14.1-4.9 3.2-1 5.2-1.7 5.2-1.7zm-4.6 5.9s-.1.2-.3.3c-.1.1-.3.3-.6.4-.2.1-.5.1-.7 0l-.4-.2.2-.4c.1-.2.4-.3.6-.4.3-.1.5-.1.8 0 .2.2.4.3.4.3z"/><path d="M155.3 525.3l-1.9-2.4c-.6-1-1.3-2-1.6-3.1-.4-1.1-.5-2.3-.4-3.5.1-.6.2-1.2.4-1.7.1-.3.2-.5.4-.8.1-.3.3-.5.4-.8.6-1 1.4-1.9 2.3-2.7.4-.4.9-.7 1.4-1l1.4-1 2.9-1.9c1.9-1.3 3.8-2.5 5.8-3.8l5.8-3.7 2.9-1.8c.9-.6 1.9-1.3 2.9-1.8l3-1.8c1-.6 1.9-1.2 2.9-1.8l2.9-1.8c1-.6 2-1.3 3.1-1.7v-.2c.7 0 1.4 0 2.1-.1-.7.1-1.4.3-2 .5-1 .5-2 1-3 1.7l-2.8 2c-.9.7-1.9 1.3-2.9 1.9l-2.9 1.9-2.9 1.9-2.9 1.9-5.8 3.7-5.8 3.7-2.9 1.9c-1 .6-2 1.2-2.8 1.9-.9.7-1.6 1.5-2.2 2.4-.2.2-.3.5-.4.7-.1.3-.3.5-.4.8-.2.5-.4 1-.5 1.6-.2 1.1-.1 2.2.2 3.3.3 1.1.8 2.1 1.4 3.1l1.9 2.5z"/><path d="M148 233.5s-.5.1-1.5.2-2.5.3-4.4.7c-1.9.3-4.3.8-7 1.6s-5.8 1.8-9.1 3.4c-.8.4-1.7.8-2.4 1.3-.4.2-.8.5-1.2.8l-1.2.9c-.8.6-1.6 1.3-2.4 2-.4.3-.7.8-1.1 1.1-.4.4-.8.8-1.1 1.2-.3.4-.6.9-1 1.3-.3.4-.6 1-.9 1.4l-.4.7c-.1.2-.2.5-.3.8-.2.5-.5 1.1-.7 1.6-.8 2.2-1.1 4.6-1.2 7.1-.1 5 .9 10.4 2 16 .6 2.8 1.1 5.7 1.5 8.7.3 3 .6 6.1.8 9.2.9 12.6.7 26.2.4 40.6-.1 7.2-.2 14.6-.4 22.2s-.6 15.3-.9 23.1c-.8 15.7-1.6 31.9-2.4 48.4-.7 16.4-1.1 33.2.6 49.7.8 8.3 2.2 16.5 4.2 24.5l.8 3 .9 3 .9 2.9c.3.9.7 1.9 1 2.9 1.4 3.8 3 7.6 4.9 11.2 3.8 7.2 8.6 13.7 14.3 19.2 2.9 2.7 6 5.2 9.2 7.3.8.5 1.7 1.1 2.5 1.6l2.5 1.4c.8.5 1.7.8 2.6 1.2s1.7.8 2.7 1.1c7.1 2.9 14.7 4.3 22.1 5.3 7.4.9 14.8 1.4 22 2.1 7.2.7 14.1 1.7 20.8 2.7 6.7 1 13.2 1.8 19.4 2.3 1.5.1 3.1.2 4.6.3 1.5 0 3.1 0 4.6.1 1.5 0 3-.1 4.4-.1 1.5-.1 2.9-.2 4.3-.3 5.7-.5 11-1.2 16-2.2 10-2 18.5-4.6 25.2-7.5s11.8-5.7 15-8c.8-.5 1.5-1 2.1-1.5s1.1-.9 1.5-1.2c.8-.6 1.2-1 1.2-1s-.4.3-1.2 1c-.4.3-.9.7-1.5 1.2s-1.3 1-2.1 1.6c-3.1 2.4-8.1 5.4-14.8 8.4-6.7 3-15.2 5.8-25.2 8-5 1-10.4 2-16.1 2.5-1.4.1-2.9.2-4.4.4-1.5.1-3 .1-4.5.2H249c-1.6-.1-3.1-.1-4.7-.2-6.3-.4-12.8-1.2-19.5-2.1-6.7-.9-13.6-1.9-20.8-2.4-7.1-.6-14.5-1-22.1-1.8-7.6-.9-15.3-2.3-22.8-5.3-.9-.3-1.9-.8-2.8-1.2s-1.8-.8-2.7-1.3-1.8-1-2.7-1.4c-.9-.5-1.7-1-2.6-1.6-3.5-2.2-6.7-4.7-9.7-7.5-6-5.7-11-12.5-14.9-19.9-2-3.7-3.7-7.5-5.1-11.5-.3-1-.7-1.9-1-3l-.9-3-.9-3-.8-3.1c-2.1-8.2-3.5-16.5-4.4-24.9-1.7-16.8-1.2-33.7-.4-50.2.9-16.5 1.8-32.7 2.6-48.4.4-7.8.8-15.5 1.1-23.1.3-7.5.5-14.9.7-22.1.4-14.4.8-28 .1-40.5-.2-3.1-.4-6.2-.7-9.2-.3-2.9-.8-5.8-1.3-8.6-1-5.6-2-11.1-1.7-16.3.1-2.6.5-5.1 1.4-7.4.2-.6.5-1.1.7-1.6.1-.3.2-.5.4-.8l.5-.8.9-1.5c.3-.5.7-.9 1-1.4s.7-.8 1.1-1.2c.4-.4.7-.8 1.2-1.2.8-.7 1.6-1.4 2.5-2l1.2-.9c.4-.3.9-.5 1.3-.7.8-.5 1.7-.9 2.5-1.3 3.3-1.6 6.5-2.5 9.3-3.2 2.8-.7 5.2-1.1 7.1-1.4s3.4-.5 4.4-.6c1 .1 1.5 0 1.5 0z"/></svg>