<svg id="Layer_1" xmlns="http://www.w3.org/2000/svg" viewBox="0 0 705 705"><style>.st0,.st1{fill:none}.st1{stroke:#000;stroke-width:5;stroke-miterlimit:10}.st2{opacity:.9;fill:url(#SVGID_1_);enable-background:new}.st3{fill:url(#SVGID_2_)}</style><path class="st0" d="M122.5 0h460v705h-460V0z"/><path class="st1" d="M6711.1-565.6c.3 38.5.2 82.4-5.7 120.5-2.3 14.7-3.7 31.7-10.6 44.9-9.4 17.9-18.6 35.9-34 49.5-5.5 4.9-11.5 9.2-17.9 12.8-4.2 2.3-15.3 5.1-15.9 10.8-.4 3.6 3.8 5.7 6.9 7.6 6.9 4.3 10.9 12.3 11.6 20.4 1.5 15.4-5.6 30.7-18.9 38.8-.8.5-1.6 1-1.9 1.8-.7 2.1 2.1 3.4 4.2 3.8 12.1 2.1 24 5 35.7 8.7 7.7 2.4 24.3 10.6 12 18.5-7.7 4.9-17 6.2-26 7.3-24.7 3.1-49.7 6.2-74.5 3.9-5.6-.5-11.2-1.4-16.8-2.2l-22.5-3.3c-5.3-.8-11.8-2.7-12.7-7.9-1.7-10.2 16.6-15.1 23.6-17.2 4.9-1.5 36.5-4.6 35.6-9.3-.5-2.4-2.8-3.9-4.8-5.4-8.9-6.4-15-16.4-16.6-27.2-1.6-10.8 1.3-22.2 7.9-30.9 2.2-2.9 4.9-6 4.4-9.6-.2-1.5-1-2.9-2-4.1-5.1-6.7-15.9-9.5-22.8-14.7-7.9-6-15.2-12.8-21.6-20.4-12.5-14.5-22.1-31.5-27.6-49.9-5.2-17.2-6.9-35.3-8.2-53.2-2.3-31-3.6-62-3.8-93.1 20.2-2.4 42-1.8 62.4-1.4 52.8 1.1 160.5-1.6 160.5.5z"/><path d="M6584.5-250.7v1.9c0 .6.1 1.3.6 1.9.4.6 1.2.8 2.2.8 2.1-.1 4.5-.2 7.1-.2 1.3 0 2.7-.1 4-.1 1.4-.1 2.8-.1 4.1-.2 1.4-.1 2.8-.1 4.1-.2 1.4-.1 2.7-.1 4-.2 2.6-.1 5-.2 7.1-.3 2-.1 3.7-.6 4.6-1.3.4-.4.7-.8.8-1.1.1-.3.2-.5.2-.5v.5c-.1.3-.2.8-.6 1.3s-1.1 1-1.9 1.4-1.8.7-2.8.8c-2.1.4-4.5.7-7.1.9-1.3.1-2.7.3-4 .4-1.4.1-2.8.2-4.2.2-1.4 0-2.8.1-4.2.1h-4.1c-2.6-.1-5.1-.2-7.2-.4-.5-.1-1.1-.1-1.6-.4-.5-.3-.9-.7-1.1-1.1-.4-.9-.4-1.7-.3-2.3s.2-1.1.3-1.4c-.1-.3 0-.5 0-.5zm-.4-84.6s.6.2 1.6.5c.5.2 1.2.3 1.9.5s1.6.4 2.4.5c.9.2 1.9.3 2.9.5 1 .1 2.1.2 3.3.3 1.1.1 2.3.1 3.5.2h3.6c1.2 0 2.5 0 3.7-.1 1.2 0 2.4-.1 3.6-.1 2.3-.1 4.5-.1 6.3-.3 1.8-.2 3.2-.6 4.1-1.2.4-.3.8-.6 1-.8l.3-.3s-.1.1-.2.4c-.2.3-.4.6-.8 1-.8.8-2.3 1.6-4.2 2-.9.2-2 .4-3 .5-1.1.1-2.2.3-3.3.4l-3.6.3c-1.2.1-2.5.1-3.7.2-1.3 0-2.5 0-3.7-.1-.6 0-1.2-.1-1.8-.1-.6-.1-1.2-.1-1.8-.2-1.2-.1-2.3-.4-3.4-.6-.5-.1-1-.3-1.5-.4-.5-.2-1-.3-1.4-.4-1.8-.6-3.2-1.3-4.2-1.8-1-.6-1.6-.9-1.6-.9zM6534-233.2l.3.3c.2.2.5.4 1 .6.9.5 2.3 1 4.2 1.4 1.9.4 4.2.7 6.8 1.1 2.6.4 5.6.7 8.9 1.1 3.3.3 6.8.7 10.6 1 3.7.3 7.7.5 11.8.7 8.2.3 17 .5 25.7.6 4.4.1 8.8.1 13.1.2 4.3 0 8.5.1 12.6 0s8-.4 11.7-.8c3.7-.5 7.2-1.1 10.4-1.7 6.4-1.4 11.6-3 15.2-4.3 1.8-.7 3.2-1.2 4.2-1.6l1.5-.6s-.5.2-1.4.7c-.9.4-2.3 1.1-4.1 1.8-3.5 1.5-8.7 3.5-15.1 5.1s-14.1 2.9-22.3 3.2c-4.1.2-8.4.2-12.7.2-4.3 0-8.7-.1-13.1-.1-4.4-.1-8.8-.2-13.1-.3-4.3-.1-8.6-.4-12.7-.6-4.1-.3-8.1-.6-11.8-1-3.8-.4-7.3-.8-10.6-1.3-1.6-.3-3.2-.5-4.7-.7-1.5-.3-2.9-.5-4.2-.8-2.6-.5-4.9-1-6.8-1.5s-3.3-1.1-4.1-1.7c-.4-.3-.7-.5-.9-.7-.3-.2-.4-.3-.4-.3z"/><linearGradient id="SVGID_1_" gradientUnits="userSpaceOnUse" x1="6501.3" y1="1150.789" x2="6707.2" y2="1150.789" gradientTransform="matrix(1 0 0 -1 0 707)"><stop offset=".018" stop-color="#801fe3"/><stop offset="1" stop-color="#b7a7ff"/></linearGradient><path class="st2" d="M6501.3-537.4c1.4 24.4 2.7 48.8 4.1 73.2.4 7.9.9 15.9 2.2 23.7 1.8 11.1 5.4 21.8 8.9 32.5 3 9.1 6 18.2 11.1 26.3 17.8 28.1 51.5 32.7 81.9 31.3 10.6-.5 21.3-1.5 31.5-4.7 66.9-21.3 65.2-117 66.1-172.7 0-2.6.1-5.1.1-7.7-68.7 2.2-137.5 4-205.9-1.9z"/><path d="M6496.2-557.1s.6 8.1 1.5 22.2c.5 7.1 1 15.6 1.7 25.5.6 9.8 1.4 20.9 2.1 33.1.4 6.1.7 12.4 1.3 18.9.5 6.5 1.4 13.2 3 19.9 1.6 6.7 3.7 13.5 6 20.4 2.4 6.9 4.5 14 7.5 20.9.8 1.7 1.5 3.4 2.4 5.1.9 1.6 1.8 3.3 2.8 4.8 1.1 1.6 2.2 3.1 3.4 4.7 1.2 1.4 2.5 2.8 3.7 4.3 5.3 5.5 11.7 10 18.8 13.2 7.1 3.3 14.8 5.4 22.6 6.6 7.9 1.3 15.9 1.7 23.9 1.7 8-.1 16.1-.4 24-1.5 3.9-.5 7.9-1.2 11.7-2.2 1-.3 1.9-.5 2.8-.8l.7-.2h.1l.2-.1.4-.1 1.4-.5 2.8-1c.5-.2.9-.3 1.4-.5l1.3-.6c7.1-3.1 13.7-7.4 19.4-12.5 5.7-5.1 10.5-11.1 14.4-17.5 4-6.3 7.1-13.1 9.7-19.8 2.6-6.8 4.6-13.6 6.3-20.3 3.2-13.5 5-26.5 6.2-38.5 1.1-12.1 1.7-23.2 2-33 .3-9.9.5-18.4.7-25.5.2-14.2.4-22.2.4-22.2s0 2 .1 5.8c0 3.8.1 9.4.2 16.4 0 7.1 0 15.7-.2 25.5-.1 9.9-.5 21-1.5 33.1s-2.6 25.2-5.7 38.9c-1.6 6.8-3.6 13.7-6.1 20.6s-5.7 13.8-9.8 20.3c-4 6.5-9 12.7-14.8 18.1-5.9 5.4-12.7 9.8-20.2 13.1l-1.4.6c-.5.2-.9.4-1.4.5l-2.8 1-1.4.5-.4.1-.2.1-.2.1-.7.2c-1 .3-2 .6-2.9.8-3.9 1-8 1.8-12 2.4-8.1 1.1-16.2 1.5-24.4 1.6-8.2 0-16.3-.5-24.4-1.8-8-1.3-16-3.5-23.3-7-7.4-3.4-14.1-8.1-19.6-13.9-1.3-1.5-2.6-3.1-3.9-4.6-1.1-1.6-2.2-3.2-3.3-4.7-2.2-3.4-3.9-6.8-5.4-10.4-3-7.1-5.2-14.2-7.5-21.2-2.2-7-4.3-13.9-5.8-20.7-1.6-6.9-2.4-13.6-2.8-20.2-.5-6.6-.7-12.9-1-18.9-.6-12.1-1.1-23.2-1.6-33.1-.5-9.9-.8-18.4-1.2-25.5-.7-14.2-1-22.2-1-22.2z"/><path d="M6496.6-541.7s.8 0 2.4.1 3.8.2 6.7.3c2.9.2 6.4.3 10.5.5 4 .2 8.6.3 13.6.5s10.4.3 16.1.5 11.7.2 17.9.4c6.2.1 12.6.1 19.2.2 6.5.1 13.2 0 19.8.1 6.6 0 13.3 0 19.8-.1s13-.1 19.2-.2c12.5-.1 24.1-.2 34-.3 10-.1 18.3-.1 24.1-.1h9.1s-.8.1-2.4.2c-1.6.1-3.8.2-6.7.4-5.8.3-14.1.8-24.1 1.3s-21.6.9-34 1.3c-6.2.1-12.7.4-19.2.4-6.5.1-13.2.1-19.8.2-6.6 0-13.3 0-19.8-.2-6.5-.1-13-.3-19.2-.4-6.2-.2-12.3-.4-18-.8-2.9-.2-5.6-.3-8.3-.5-2.7-.2-5.3-.4-7.8-.5-2.5-.2-4.9-.3-7.1-.5-2.3-.2-4.4-.4-6.4-.6-4-.4-7.6-.7-10.4-1-2.9-.3-5.2-.6-6.7-.7-1.7-.4-2.5-.5-2.5-.5z"/><linearGradient id="SVGID_2_" gradientUnits="userSpaceOnUse" x1="208.577" y1="161.883" x2="491.075" y2="161.883" gradientTransform="matrix(1 0 0 -1 0 707)"><stop offset="0" stop-color="#a3ff7f"/><stop offset=".998" stop-color="#ebffdd"/></linearGradient><path class="st3" d="M487.4 400.9c.2-1.1.3-2.3.5-3.4-1.4.2-2.8.3-4.3.4-88.3 3.6-176.9 3.9-265.3 1h-1.1c.7 3.3 1.1 6.5 1.1 9.9 0 3.6-4.4 6.8-6.4 10.3-6.3 11.3-2.2 23.4.9 35.1 19.1 71.2 20.2 145 28.9 216.8.5 4.1 1.1 8.5 5.3 12 3.4 2.9 8.9 4.7 14.5 6.1 24.9 6 51.9 3 77.9 2.3 32.7-.8 65.3-1.7 98-2.5 7.1-.2 14.9-.5 20.1-3.2 2.7-1.4 4.4-3.2 6-5.1 16-17.8 9.8-44.6 11.4-64.4 1.9-23.1 2.5-46.2 4.4-69.3 1.7-20.9-3.6-41.5.7-62.6 3.1-14.8 8.9-29.5 10.8-44.4 1.8-13.5-5.3-26-3.4-39z"/><path class="st1" d="M198.1 371.5c2 11.5 9.9 37.2 9.1 39.2-.6 1.7-2.4 3.2-3.7 4.8-5.8 7.1-1.4 18.3-.9 25.9.6 10.8 10.4 51.8 11.2 62.5 5.3 68.4 12.4 106 13.5 174.6.1 5.1.4 10.8 6.4 14.6 3.6 2.3 8.7 3.7 13.8 4.7 13.9 2.9 28.7 4.4 43.5 4.2 40.2-.4 79.2-.8 119.4-1.5 18.7-.3 37.3-.7 56-1 8.8-.2 12.5-2.3 16.1-6.8s7.9-116.8 9.2-133.4c3.3-41.7-1.6-71 11.8-112.2 1.3-3.9 4.1-13.1 3.3-25.7-.5-8.6-7.9-24.2-7.5-27.5 1.2-10.5 2.4-14.9 3.5-25.4-13.8-.5-230-2.5-304.7 3z"/><path d="M377.8 455s1-.7 2.7-1.8c1.7-1.1 4.2-2.8 7.2-4.7 3-1.9 6.5-4.1 10.3-6.5 1.9-1.2 3.9-2.4 5.9-3.6s4-2.4 6.1-3.6 4.1-2.4 6.1-3.6 4-2.3 6-3.4c3.9-2.2 7.5-4.2 10.6-5.9 3.1-1.7 5.8-3.1 7.6-4 1.8-1 2.9-1.5 2.9-1.5s-1 .7-2.7 1.8c-1.7 1.1-4.2 2.8-7.2 4.7-3 1.9-6.5 4.1-10.3 6.5-1.9 1.2-3.9 2.4-5.9 3.6s-4 2.4-6.1 3.6-4.1 2.4-6.1 3.6-4 2.3-6 3.4c-3.9 2.2-7.5 4.2-10.6 5.9-3.1 1.7-5.8 3.1-7.6 4.1-1.8.8-2.9 1.4-2.9 1.4zm10.8 8.6s.9-.7 2.5-1.9 3.9-2.9 6.8-4.8c2.8-2 6.2-4.2 9.8-6.5 1.8-1.1 3.7-2.4 5.6-3.5 1.9-1.2 3.9-2.4 5.9-3.6s4-2.3 5.9-3.5c1.9-1.1 3.9-2.2 5.8-3.3 3.8-2.1 7.3-4 10.4-5.5 3.1-1.6 5.7-2.8 7.5-3.7 1.8-.9 2.9-1.3 2.9-1.3s-1 .6-2.7 1.7-4.2 2.6-7.1 4.4-6.4 3.8-10.1 6.1c-3.7 2.2-7.6 4.6-11.6 6.9-3.9 2.3-7.9 4.7-11.6 6.9-3.7 2.2-7.2 4.2-10.1 6-3 1.7-5.5 3.2-7.2 4.2-1.7.8-2.7 1.4-2.7 1.4zm10.6 7.8s.8-.7 2.3-2c.7-.6 1.7-1.4 2.7-2.2 1-.9 2.2-1.8 3.5-2.8s2.7-2.1 4.3-3.2c1.5-1.1 3.2-2.3 4.9-3.5 1.7-1.2 3.5-2.4 5.3-3.6s3.7-2.4 5.6-3.6 3.8-2.3 5.7-3.4c1.9-1.1 3.8-2.1 5.6-3.2 1.8-1 3.6-2 5.3-2.8 1.7-.9 3.3-1.7 4.8-2.4s2.9-1.4 4.1-1.9c1.2-.6 2.3-1 3.2-1.4 1.8-.8 2.8-1.2 2.8-1.2s-.9.6-2.6 1.6-4.1 2.4-6.9 4.1c-2.9 1.7-6.2 3.6-9.7 5.8-1.8 1.1-3.6 2.2-5.5 3.3-1.9 1.1-3.7 2.3-5.6 3.4-1.9 1.2-3.8 2.3-5.6 3.5-1.8 1.2-3.6 2.3-5.4 3.4-3.5 2.2-6.7 4.4-9.5 6.2-5.6 3.4-9.3 5.9-9.3 5.9zm12.5 7.2s.8-.7 2.2-1.9c.7-.6 1.6-1.3 2.6-2.1s2.1-1.7 3.4-2.7 2.6-2 4.1-3.1 3-2.2 4.7-3.3c1.6-1.1 3.3-2.3 5.1-3.4 1.7-1.1 3.5-2.3 5.3-3.4l5.4-3.3c1.8-1.1 3.5-2.1 5.2-3.1 3.4-2 6.6-3.8 9.4-5.3s5.1-2.7 6.8-3.6l2.6-1.3-2.4 1.6c-1.5 1-3.7 2.5-6.4 4.2-2.6 1.7-5.8 3.7-9.1 5.8-3.3 2.1-6.9 4.3-10.5 6.6-3.6 2.2-7.1 4.5-10.4 6.6s-6.4 4.1-9.1 5.8c-5.3 3.6-8.9 5.9-8.9 5.9zm15.4 7.4s2.7-2.6 7.1-6.1c2.1-1.8 4.7-3.9 7.4-6 1.4-1.1 2.8-2.2 4.3-3.3l4.5-3.3 4.5-3.3c1.5-1.1 3-2.1 4.4-3.1 2.9-2 5.6-3.8 7.9-5.3 4.7-3.1 7.9-4.9 7.9-4.9s-2.9 2.4-7.3 5.9c-2.2 1.7-4.8 3.7-7.6 5.8-1.4 1.1-2.8 2.2-4.3 3.2l-4.5 3.3-4.5 3.3c-1.5 1.1-3 2.1-4.4 3.2-2.8 2-5.5 3.9-7.8 5.5-4.5 3.1-7.6 5.1-7.6 5.1zm10 6.9s2.2-2.3 5.7-5.6c1.8-1.6 3.8-3.5 6.1-5.4 1.2-1 2.3-2 3.6-2.9 1.2-1 2.5-2 3.7-3 1.3-1 2.6-1.9 3.8-2.9 1.2-1 2.5-1.8 3.7-2.7 2.4-1.7 4.8-3.3 6.8-4.6 4-2.6 6.8-4.1 6.8-4.1s-.6.5-1.7 1.4-2.6 2.2-4.5 3.6c-1.9 1.5-4.1 3.2-6.4 5-2.4 1.8-4.9 3.8-7.4 5.7-2.5 1.9-5 3.9-7.4 5.7-2.4 1.8-4.6 3.5-6.5 4.9s-3.5 2.6-4.6 3.4c-1.1 1-1.7 1.5-1.7 1.5zm23.3-79.4s1.9 1.2 4.5 3.1c1.3 1 2.8 2.1 4.4 3.4.8.6 1.6 1.3 2.4 2s1.7 1.4 2.5 2.1 1.6 1.4 2.4 2.2c.8.7 1.6 1.4 2.3 2.1 1.5 1.4 2.9 2.7 4 3.9 2.3 2.3 3.7 4 3.7 4s-1.9-1.2-4.5-3.1c-1.3-1-2.8-2.1-4.4-3.4-.8-.6-1.6-1.3-2.4-2s-1.6-1.4-2.5-2.1c-.8-.7-1.6-1.4-2.4-2.2-.8-.7-1.6-1.4-2.3-2.1-1.5-1.4-2.9-2.7-4-3.9-2.3-2.4-3.7-4-3.7-4zm10.6-4.2s1.3.5 3.1 1.5c.9.5 1.9 1.1 3 1.8s2.2 1.4 3.3 2.2c1.1.8 2.2 1.6 3.1 2.4 1 .8 1.9 1.6 2.6 2.3 1.5 1.4 2.4 2.4 2.4 2.4s-1.3-.5-3.1-1.5c-.9-.5-1.9-1.1-3-1.8s-2.2-1.4-3.3-2.2c-1.1-.8-2.2-1.6-3.1-2.4-1-.8-1.9-1.6-2.6-2.3-1.5-1.4-2.4-2.4-2.4-2.4zm-75.4-1.4s1.3.5 3.1 1.5c.9.5 1.9 1.1 3 1.7 1.1.7 2.2 1.4 3.3 2.2 1.1.8 2.2 1.6 3.2 2.4s1.9 1.5 2.6 2.2c1.5 1.4 2.4 2.4 2.4 2.4s-1.3-.5-3.1-1.5c-.9-.5-1.9-1.1-3-1.7-1.1-.7-2.2-1.4-3.3-2.2-1.1-.8-2.2-1.6-3.2-2.4s-1.9-1.5-2.6-2.2l-2.4-2.4zm-27.5 1.3s2.2.7 5.4 2.1c1.6.7 3.4 1.5 5.4 2.5l3 1.5c1 .5 2 1.1 3 1.6 1 .6 2 1.1 3 1.7s1.9 1.2 2.9 1.7c1.8 1.1 3.5 2.2 5 3.2 2.9 1.9 4.7 3.4 4.7 3.4s-2.1-.9-5.2-2.4c-1.6-.8-3.3-1.7-5.3-2.7-.9-.5-1.9-1-2.9-1.6-1-.5-2-1.1-3-1.6-2-1.1-4-2.2-5.9-3.3-1.9-1.1-3.6-2.1-5.1-3-3.1-1.8-5-3.1-5-3.1zm-46 3.7s3.6 1.4 8.9 3.7c2.6 1.2 5.7 2.6 9 4.1 1.6.8 3.3 1.6 5 2.4s3.4 1.7 5.1 2.6 3.4 1.8 5.1 2.6c1.7.9 3.3 1.8 4.9 2.6 3.2 1.7 6.1 3.4 8.6 4.8 5 2.9 8.2 5 8.2 5s-3.6-1.5-8.8-4c-2.6-1.2-5.6-2.7-8.9-4.3-1.6-.8-3.3-1.6-5-2.5s-3.4-1.7-5.1-2.6-3.4-1.8-5.1-2.6c-1.7-.9-3.3-1.7-4.9-2.6-3.2-1.7-6.2-3.3-8.7-4.7-5-2.5-8.3-4.5-8.3-4.5zm-27.3-1.2s-.3.3-.1.8c.2.5.8 1.1 1.7 1.8.9.7 1.9 1.5 3.1 2.4.6.4 1.3.9 2 1.4s1.4 1 2.2 1.5c.8.5 1.6 1 2.4 1.6.9.5 1.7 1.1 2.7 1.6 1.8 1.1 3.8 2.2 5.8 3.4 2 1.1 4.2 2.3 6.4 3.4s4.4 2.2 6.7 3.3c2.2 1.1 4.5 2.2 6.7 3.2l6.6 3c4.3 1.9 8.3 3.7 11.7 5.2 3.4 1.5 6.3 2.8 8.3 3.7 2 .9 3.1 1.4 3.1 1.4l-3.3-1.1c-2.1-.7-5-1.7-8.6-3-3.5-1.3-7.6-2.9-12-4.6-2.2-.9-4.4-1.8-6.7-2.8-2.3-1-4.5-2.1-6.8-3.1-2.2-1.1-4.5-2.2-6.7-3.4-2.2-1.1-4.3-2.4-6.3-3.6s-4-2.4-5.7-3.6c-.9-.6-1.8-1.2-2.6-1.8l-2.4-1.8c-1.5-1.1-2.8-2.3-4-3.2-1.1-1-2.1-1.9-2.9-2.7-.8-.7-1.4-1.4-1.6-2-.1-.3 0-.5.1-.7.1-.3.2-.3.2-.3zM284.6 494s.9-.5 2.5-1.4 3.8-2.2 6.6-3.8c1.3-.8 2.8-1.7 4.3-2.6s3.1-1.9 4.8-2.9c1.7-1 3.3-2.1 5.1-3.2 1.7-1.1 3.4-2.3 5.2-3.4l5.1-3.6c1.6-1.2 3.3-2.4 4.8-3.6 3.1-2.3 5.9-4.7 8.6-6.4 2.6-1.8 5-3 6.6-3.8.8-.4 1.5-.6 2-.8.5-.2.7-.3.7-.3s-.9.5-2.5 1.4-3.7 2.4-6.1 4.3-5.1 4.4-8.2 6.9c-1.5 1.2-3.1 2.5-4.8 3.7-1.7 1.2-3.4 2.5-5.1 3.6-3.5 2.3-7 4.6-10.5 6.5-1.7 1-3.4 1.9-5 2.7-1.6.8-3.1 1.6-4.5 2.3-2.8 1.4-5.2 2.4-6.9 3.1-1.7.9-2.7 1.3-2.7 1.3zm-13.2-7.4s.8-.5 2.3-1.5c1.5-.9 3.6-2.3 6.1-3.9s5.5-3.4 8.6-5.4c3.2-2 6.5-4 9.9-6.1 6.7-4.2 13.5-8.3 18.6-11.4 2.5-1.5 4.7-2.8 6.2-3.7 1.5-.9 2.4-1.4 2.4-1.4s-3.1 2.5-7.9 6.1c-2.4 1.8-5.2 3.8-8.3 5.8-1.6 1-3.1 2.1-4.8 3.2-1.7 1-3.3 2.1-5 3.2-1.7 1-3.4 2.1-5.1 3.1s-3.4 1.9-5 2.9c-3.2 1.8-6.3 3.5-9 4.8-5.4 2.6-9 4.3-9 4.3zm-14-8s.9-.6 2.4-1.5 3.7-2.3 6.4-3.8c2.6-1.6 5.7-3.4 9-5.4s6.8-4.1 10.3-6.3c1.7-1.1 3.5-2.2 5.2-3.2 1.7-1.1 3.4-2.1 5-3.2 3.2-2.1 6.3-4 8.8-5.7 2.6-1.7 4.7-3.1 6.2-4.1s2.4-1.5 2.4-1.5-.8.7-2.1 1.9c-.7.6-1.5 1.3-2.5 2.1s-2.1 1.7-3.3 2.6c-1.2 1-2.6 2-4 3s-2.9 2.1-4.5 3.2-3.2 2.2-4.9 3.3c-1.7 1.1-3.4 2.2-5.2 3.3-1.8 1.1-3.5 2.1-5.3 3.2-1.7 1-3.5 2-5.2 3-3.4 1.9-6.6 3.5-9.4 4.9s-5.1 2.4-6.8 3.2c-1.6.6-2.5 1-2.5 1zm-11.9-3.9s.2-.2.5-.6.8-.9 1.5-1.6c1.3-1.3 3.3-3.2 5.8-5.2s5.6-4.2 8.9-6.5c1.7-1.1 3.4-2.3 5.2-3.4 1.8-1.1 3.6-2.3 5.4-3.4s3.6-2.3 5.4-3.4 3.6-2.2 5.3-3.2c3.4-2.1 6.7-4 9.5-5.6s5.1-2.9 6.8-3.8c1.6-.9 2.6-1.4 2.6-1.4s-.9.6-2.4 1.7-3.7 2.7-6.4 4.5c-2.7 1.8-5.8 3.9-9.1 6.1-1.7 1.1-3.4 2.3-5.2 3.4-1.8 1.1-3.6 2.3-5.4 3.4-3.6 2.3-7.3 4.5-10.7 6.6-3.4 2.1-6.6 4.1-9.2 5.9s-4.8 3.4-6.3 4.6c-.7.6-1.3 1-1.7 1.4-.2.4-.5.5-.5.5zm-7.5-12.6s.8-.5 2.1-1.5c1.3-.9 3.3-2.3 5.6-3.8 2.3-1.6 5-3.4 8-5.3 2.9-1.9 6.1-3.9 9.2-6 3.1-2 6.3-4 9.2-5.9 2.9-1.9 5.7-3.6 8.1-5.1s4.4-2.7 5.8-3.5 2.2-1.3 2.2-1.3-2.8 2.4-7.3 5.8c-2.2 1.7-4.9 3.6-7.8 5.6-1.4 1-2.9 2-4.5 3.1-1.5 1-3.1 2-4.7 3.1-1.6 1-3.2 2-4.7 3-1.6 1-3.1 1.9-4.6 2.8-3 1.8-5.9 3.4-8.3 4.8-4.9 2.6-8.3 4.2-8.3 4.2zm39.7-40.9s-2.9 2.2-7.4 5.4c-2.2 1.6-4.9 3.4-7.8 5.3-1.4.9-2.9 1.9-4.4 2.9s-3.1 2-4.6 2.9c-1.6 1-3.1 1.9-4.6 2.9s-3.1 1.9-4.5 2.8c-2.9 1.8-5.7 3.4-8.1 4.8-2.4 1.4-4.4 2.5-5.8 3.3-.7.4-1.2.7-1.6.9l-.6.3s.2-.1.5-.4.8-.7 1.4-1.2c1.3-1 3.1-2.4 5.4-3.9 2.2-1.6 4.9-3.4 7.7-5.3 1.4-.9 2.9-1.9 4.4-2.9s3.1-2 4.6-2.9c1.6-1 3.1-1.9 4.6-2.9 1.5-1 3.1-1.9 4.5-2.7 2.9-1.8 5.7-3.4 8.1-4.7 4.9-2.9 8.2-4.6 8.2-4.6zm-45-18.6s.5.2 1.4.7 2.1 1.1 3.6 1.9 3.2 1.8 5.1 2.8c.9.5 1.9 1.1 2.8 1.6 1 .6 1.9 1.1 2.9 1.7s1.9 1.2 2.9 1.8l2.7 1.8c1.8 1.2 3.4 2.3 4.7 3.4 2.7 2 4.4 3.6 4.4 3.6s-.5-.2-1.4-.7-2.1-1.1-3.6-1.9-3.2-1.8-5-2.8c-.9-.5-1.9-1.1-2.8-1.6-1-.6-1.9-1.2-2.9-1.7-1-.6-1.9-1.2-2.9-1.8l-2.7-1.8c-1.8-1.2-3.4-2.3-4.7-3.3-2.8-2.1-4.5-3.7-4.5-3.7zm-2.1 9.8l1.2.3c.4.1.8.2 1.4.4.5.2 1.1.4 1.7.6.6.2 1.3.5 2 .8s1.5.6 2.2 1c1.5.7 3.1 1.7 4.6 2.7s3 2.1 4.2 3.2c.7.5 1.2 1.1 1.8 1.7.5.6 1 1.1 1.5 1.6.9 1 1.5 2 2 2.6.4.7.7 1.1.7 1.1s-.4-.3-1-.8c-.3-.3-.7-.5-1.1-.9-.4-.4-.9-.7-1.4-1.2-1-.8-2.2-1.8-3.6-2.7-.6-.5-1.4-1-2.1-1.5-.7-.5-1.4-1-2.2-1.5-.7-.5-1.5-1-2.2-1.4s-1.4-.9-2.2-1.4c-1.4-.9-2.7-1.7-3.9-2.4-1.1-.7-2.1-1.3-2.8-1.7-.4-.2-.8-.5-.8-.5zm-4.8 4.8s1.4.7 3.4 2c1 .6 2.1 1.4 3.3 2.2 1.2.8 2.4 1.8 3.7 2.7 1.2 1 2.4 2 3.5 2.9 1.1 1 2.1 1.9 2.9 2.7 1.7 1.6 2.7 2.9 2.7 2.9s-1.4-.7-3.4-2c-1-.6-2.1-1.4-3.3-2.2-1.2-.8-2.4-1.8-3.7-2.7-1.2-1-2.4-2-3.5-2.9-1.1-1-2.1-1.9-2.9-2.7-1.7-1.7-2.7-2.9-2.7-2.9zm-5.3 16.8s.8.3 1.9 1c1.1.6 2.5 1.5 3.8 2.5s2.5 2.1 3.4 3 1.4 1.6 1.4 1.6-.9-.2-2.1-.7c-1.2-.5-2.7-1.3-4-2.4-1.3-1-2.5-2.2-3.3-3.3-.8-.9-1.1-1.7-1.1-1.7zm12.1 43s2.7 1.6 6.5 4.3c1 .6 2 1.3 3.2 2 1.1.7 2.3 1.4 3.6 2.2 2.5 1.5 5.1 3.1 7.8 4.7 1.3.8 2.6 1.6 3.9 2.5 1.3.8 2.6 1.6 3.8 2.4 2.5 1.6 4.7 3.1 6.6 4.4 3.9 2.6 6.3 4.6 6.3 4.6s-2.8-1.3-6.9-3.6c-2.1-1.1-4.4-2.4-7-3.9-1.3-.7-2.6-1.5-3.9-2.3-1.3-.8-2.6-1.6-4-2.4-1.3-.8-2.6-1.7-3.9-2.5-1.3-.8-2.6-1.7-3.8-2.5s-2.4-1.6-3.5-2.4-2.1-1.6-3-2.3c-3.4-3.1-5.7-5.2-5.7-5.2zm.8 12.5s1.9.9 4.7 2.3c1.4.7 3 1.6 4.7 2.6.9.5 1.7 1 2.6 1.5.9.5 1.8 1 2.7 1.6.9.5 1.8 1.1 2.7 1.6s1.7 1.1 2.6 1.6c1.7 1 3.2 2 4.5 2.9 2.6 1.7 4.3 3 4.3 3s-2-.7-4.9-2c-1.4-.6-3.1-1.4-4.8-2.4-.9-.5-1.8-.9-2.7-1.4l-2.7-1.5c-.9-.5-1.8-1.1-2.7-1.6s-1.7-1.1-2.6-1.6c-1.6-1.1-3.2-2.1-4.4-3.1l-4-3.5zm4.4 11.3s1.3.4 3 1.3c.9.4 1.9 1 2.9 1.6s2.1 1.3 3.2 2 2.1 1.5 3.1 2.2 1.8 1.4 2.6 2.1c1.5 1.3 2.4 2.3 2.4 2.3s-1.3-.4-3-1.3c-.9-.4-1.9-1-2.9-1.6s-2.1-1.3-3.2-2-2.1-1.5-3.1-2.2-1.8-1.4-2.6-2.1c-1.5-1.3-2.4-2.3-2.4-2.3zm2.3 10.3s.6 0 1.5.3c.8.2 1.8.7 2.7 1.3s1.7 1.4 2.3 2.1c.5.7.8 1.2.8 1.2s-.6 0-1.5-.3c-.8-.2-1.8-.7-2.7-1.3-.9-.6-1.7-1.4-2.3-2.1-.6-.6-.8-1.2-.8-1.2zm3.6 21.3s1.9-1.9 5-4.5c1.5-1.3 3.4-2.8 5.3-4.3 1-.8 2-1.6 3.1-2.3 1.1-.8 2.2-1.5 3.3-2.3 1.1-.7 2.2-1.5 3.3-2.2l3.3-2.1c2.1-1.3 4.2-2.5 5.9-3.5 3.5-1.9 6-3.1 6-3.1s-2.1 1.7-5.3 4c-1.6 1.2-3.5 2.5-5.6 4-2.1 1.4-4.2 2.9-6.4 4.4-2.2 1.5-4.4 3-6.5 4.4-2.1 1.4-4 2.7-5.7 3.8-3.4 2.3-5.7 3.7-5.7 3.7zm0 11.5s2.4-2.1 6.2-5.1c1.9-1.5 4.1-3.2 6.5-5 1.2-.9 2.4-1.8 3.7-2.7s2.6-1.9 3.9-2.8l3.9-2.7c1.3-.9 2.6-1.8 3.8-2.6 2.5-1.7 4.8-3.2 6.9-4.5 1-.6 1.9-1.2 2.8-1.7s1.6-.9 2.3-1.1c.7-.3 1.2-.4 1.6-.4.4-.1.6-.1.6-.1s-.2.1-.5.2-.8.4-1.5.7c-.6.3-1.3.8-2.1 1.4-.8.6-1.6 1.3-2.6 2-1.9 1.5-4.1 3.2-6.5 5-1.2.9-2.4 1.8-3.7 2.7-1.3.9-2.6 1.9-3.9 2.8l-3.9 2.7c-1.3.9-2.6 1.8-3.8 2.6-2.5 1.7-4.8 3.2-6.9 4.5-4 2.6-6.8 4.1-6.8 4.1zm0 12.5s3-2.6 7.6-6.2c2.3-1.8 5-3.9 7.9-6.2 1.5-1.1 3-2.3 4.5-3.4s3.1-2.3 4.7-3.5c1.6-1.1 3.2-2.3 4.7-3.4 1.6-1.1 3.1-2.2 4.6-3.3 3-2.1 5.8-4 8.3-5.7 4.9-3.3 8.2-5.3 8.2-5.3s-3 2.6-7.6 6.2c-2.3 1.8-5 3.9-7.9 6.2-1.5 1.1-3 2.3-4.5 3.4s-3.1 2.3-4.7 3.5c-1.6 1.1-3.2 2.3-4.7 3.4-1.6 1.1-3.1 2.2-4.6 3.3-3 2.1-5.8 4-8.3 5.7-4.9 3.3-8.2 5.3-8.2 5.3zm6.7 9.6s.7-.8 2.1-2.1c1.4-1.3 3.3-3.2 5.6-5.3 2.4-2.2 5.2-4.7 8.2-7.3 1.5-1.3 3.1-2.6 4.8-4 1.6-1.3 3.3-2.7 5-4l5.1-3.9c1.7-1.3 3.4-2.5 5-3.7 3.3-2.3 6.3-4.5 9-6.3s4.9-3.2 6.5-4.2 2.5-1.5 2.5-1.5-.8.7-2.3 1.9-3.6 2.8-6.1 4.8c-5 3.9-11.8 9.2-18.5 14.5s-13.4 10.6-18.5 14.5c-2.5 2-4.6 3.6-6.1 4.8-1.4 1.2-2.3 1.8-2.3 1.8zm12.8 4.8s2.9-2.7 7.5-6.6c2.3-1.9 5-4.1 8-6.4 1.5-1.1 3-2.3 4.6-3.5s3.2-2.3 4.8-3.5c1.6-1.1 3.3-2.3 4.9-3.4 1.6-1.1 3.2-2.2 4.8-3.2 3.1-2.1 6.1-3.9 8.6-5.5 5.1-3.1 8.6-5 8.6-5s-.8.6-2.2 1.7c-1.4 1-3.4 2.5-5.8 4.3s-5.2 3.8-8.3 6c-3 2.2-6.3 4.5-9.5 6.8s-6.5 4.6-9.5 6.8-5.9 4.2-8.3 5.9c-2.5 1.7-4.5 3.1-5.9 4.1-1.4.9-2.3 1.5-2.3 1.5zm11.2 7.5s.8-.7 2.2-1.8c1.4-1.1 3.5-2.8 6-4.8 2.5-1.9 5.4-4.2 8.6-6.5 1.6-1.2 3.2-2.4 4.9-3.6 1.7-1.2 3.4-2.5 5.1-3.7l5.1-3.6c1.7-1.2 3.4-2.3 5-3.5 3.2-2.2 6.3-4.3 8.9-6 1.3-.9 2.5-1.7 3.6-2.3 1.1-.7 2.1-1.3 3-1.5.9-.3 1.7-.3 2.2-.2s.7.2.7.2-.3-.1-.8-.1-1.2.1-2 .5c-.8.3-1.7 1-2.7 1.8s-2.1 1.7-3.4 2.7c-2.5 1.9-5.4 4.2-8.6 6.5-1.6 1.2-3.2 2.4-4.9 3.6-1.7 1.2-3.4 2.5-5.1 3.7l-5.1 3.6c-1.7 1.2-3.4 2.3-5 3.5-3.3 2.2-6.3 4.3-8.9 6s-4.9 3.1-6.4 4.1c-1.5.8-2.4 1.4-2.4 1.4zm11.4 7.7s.8-.8 2.3-2c.7-.6 1.6-1.4 2.7-2.3 1-.9 2.2-1.9 3.5-2.9 1.3-1.1 2.7-2.2 4.2-3.3 1.5-1.2 3.1-2.4 4.8-3.6 1.7-1.2 3.4-2.5 5.3-3.7 1.8-1.2 3.7-2.5 5.5-3.7 1.9-1.2 3.8-2.4 5.6-3.6 1.9-1.2 3.7-2.2 5.5-3.3s3.6-2.1 5.2-3c1.7-.9 3.3-1.8 4.8-2.6s2.8-1.5 4.1-2.1c1.2-.6 2.3-1.1 3.2-1.5 1.8-.8 2.8-1.3 2.8-1.3s-.9.6-2.6 1.6-4 2.5-6.8 4.3-6.1 3.8-9.6 6-7.3 4.6-11 7c-1.9 1.2-3.7 2.4-5.5 3.6-1.8 1.2-3.6 2.4-5.3 3.6-3.4 2.3-6.6 4.5-9.4 6.4-5.6 3.8-9.3 6.4-9.3 6.4zm-35.4-13.2l1.2 1.2c.4.4.8.9 1.3 1.4s1.1 1.1 1.8 1.7c.7.6 1.4 1.2 2.2 1.8l1.2.9c.4.3.9.6 1.3.9.9.6 1.9 1.2 2.9 1.8s2 1.2 3.1 1.7c2.1 1.2 4.2 2.4 6 3.8.9.6 1.8 1.4 2.6 2 .8.7 1.5 1.4 2.1 2 .6.7 1.2 1.3 1.7 1.8s.9 1.1 1.2 1.5c.6.8 1 1.3 1 1.3s-.5-.4-1.3-1.1c-.4-.3-.9-.8-1.4-1.2-.6-.5-1.2-1-1.9-1.5s-1.5-1.1-2.3-1.7c-.8-.6-1.7-1.2-2.7-1.8-.9-.6-1.9-1.1-2.9-1.7-1-.6-2.1-1.1-3.1-1.7-1-.6-2.1-1.2-3.1-1.8-.5-.3-1-.6-1.5-1-.5-.3-1-.7-1.4-1-.4-.4-.9-.7-1.3-1.1-.4-.4-.8-.8-1.2-1.1-.8-.7-1.4-1.5-2-2.2s-1.1-1.4-1.5-2c-.5-.6-.8-1.1-1-1.6-.6-.8-1-1.3-1-1.3zm-3.1 11.7s1.8 1 4.3 2.7c1.3.8 2.7 1.9 4.2 3 .8.6 1.5 1.1 2.3 1.7l2.4 1.8 2.4 1.8c.8.6 1.6 1.2 2.3 1.8 1.5 1.2 2.9 2.3 4 3.2 2.3 1.9 3.8 3.4 3.8 3.4s-1.8-.9-4.4-2.4c-1.3-.8-2.8-1.7-4.4-2.7-.8-.5-1.6-1-2.4-1.6l-2.4-1.8c-1.6-1.2-3.2-2.5-4.6-3.7-1.4-1.2-2.7-2.4-3.8-3.5-2.3-2.2-3.7-3.7-3.7-3.7zm.9 13s1.4.6 3.3 1.7c1 .5 2.1 1.2 3.2 2 1.2.8 2.4 1.6 3.5 2.5 1.2.9 2.3 1.8 3.4 2.7s2 1.7 2.8 2.5c1.6 1.5 2.6 2.6 2.6 2.6s-1.4-.6-3.3-1.7c-1-.5-2.1-1.2-3.2-2-1.2-.8-2.4-1.6-3.5-2.5-1.2-.9-2.3-1.8-3.4-2.7-1.1-.9-2-1.7-2.8-2.5-1.6-1.4-2.6-2.6-2.6-2.6zm-.3 11.9s.9.2 2 .7 2.6 1.3 3.9 2.3c1.3 1 2.6 2 3.4 3 .9.9 1.3 1.7 1.3 1.7s-.9-.2-2-.7c-1.1-.5-2.6-1.3-3.9-2.3-1.3-1-2.6-2-3.4-3-.8-.9-1.3-1.7-1.3-1.7zm46.5-108.2l3.2 1.6c2 1 5 2.4 8.5 4.2 3.5 1.8 7.6 3.9 11.9 6.2 2.2 1.2 4.4 2.3 6.7 3.6 2.3 1.2 4.6 2.5 6.9 3.7 2.3 1.3 4.6 2.5 6.8 3.8 2.3 1.2 4.5 2.5 6.6 3.7s4.2 2.4 6.1 3.5 3.8 2.2 5.5 3.2 3.2 2.1 4.4 3.2c.6.5 1.2 1 1.7 1.5s.9 1 1.3 1.4.8.6 1.3.6c.4.1.8-.1.8-.4 0-.3-.3-.4-.4-.4h-.2s.1 0 .2-.1c.1 0 .5 0 .5.4 0 .2-.1.4-.2.5-.2.1-.4.1-.6.1-.5 0-1-.2-1.5-.6-.5-.4-.9-.9-1.4-1.3-.5-.4-1.1-.9-1.7-1.4-1.3-.9-2.8-1.8-4.5-2.7s-3.6-1.9-5.6-2.9-4.1-2.1-6.3-3.3c-2.2-1.2-4.4-2.3-6.7-3.6-2.3-1.2-4.6-2.5-6.9-3.7-2.3-1.3-4.6-2.5-6.8-3.8-2.2-1.3-4.5-2.5-6.6-3.7-4.3-2.4-8.2-4.7-11.6-6.7s-6.2-3.7-8.1-4.9c-2.1-1-3.3-1.7-3.3-1.7zm12.2-6.4s1.1.5 3 1.4 4.6 2.3 7.8 3.9 7 3.6 11 5.7c2 1.1 4.1 2.2 6.1 3.3 2.1 1.1 4.2 2.3 6.3 3.5 2.1 1.2 4.2 2.4 6.3 3.5 2.1 1.2 4.1 2.3 6.1 3.5 3.9 2.3 7.6 4.4 10.7 6.3 3.1 1.9 5.7 3.5 7.5 4.6s2.8 1.8 2.8 1.8-1.1-.5-3-1.4-4.6-2.3-7.8-3.9-7-3.6-11-5.7c-2-1.1-4.1-2.2-6.1-3.3-2.1-1.1-4.2-2.3-6.3-3.5-2.1-1.2-4.2-2.4-6.3-3.5-2.1-1.2-4.1-2.3-6.1-3.5-3.9-2.3-7.6-4.4-10.7-6.3s-5.7-3.5-7.5-4.6c-1.7-1.1-2.8-1.8-2.8-1.8zm14.7-7.6s1.1.5 3.1 1.5c1.9 1 4.8 2.4 8.1 4.1 3.3 1.7 7.2 3.8 11.2 6.2 2 1.2 4.1 2.4 6.2 3.7 2.1 1.3 4.2 2.6 6.3 4 2.1 1.4 4.2 2.8 6.2 4.2 2 1.4 4 2.9 5.9 4.2 3.8 2.7 7.4 5.2 10.6 7 3.2 1.9 6 3.3 8 4.2 1 .5 1.8.8 2.3 1s.8.4.8.4l-.9-.3c-.6-.2-1.4-.4-2.4-.8-2.1-.7-5-1.8-8.4-3.5s-7.2-4-11.1-6.6c-1.9-1.3-4-2.7-6-4.1-2-1.4-4.1-2.8-6.2-4.1-2.1-1.4-4.2-2.7-6.3-4-2.1-1.3-4.1-2.6-6.1-3.8-4-2.5-7.7-4.7-10.9-6.7s-5.8-3.6-7.7-4.8c-1.6-1.2-2.7-1.8-2.7-1.8zm11-7s1.1.5 3.1 1.4c1.9.9 4.7 2.2 8 3.8 3.3 1.6 7.2 3.5 11.3 5.6 2 1 4.2 2.1 6.3 3.2 2.1 1.1 4.3 2.3 6.5 3.4 2.2 1.2 4.3 2.3 6.5 3.5 2.1 1.1 4.2 2.4 6.2 3.5 2 1.2 3.9 2.4 5.6 3.6 1.8 1.2 3.4 2.4 4.9 3.5 1.5 1.1 2.8 2.2 3.9 3.3.6.5 1.1 1 1.5 1.5.5.5.9.9 1.2 1.3.7.8 1.3 1.5 1.6 1.9.4.4.6.7.6.7l-.6-.6c-.4-.4-1-1-1.8-1.7-.4-.4-.8-.8-1.3-1.2s-1-.9-1.6-1.3c-1.2-.9-2.5-1.9-4.1-2.9-1.5-1-3.2-2.1-5-3.2s-3.7-2.2-5.7-3.3c-2-1.1-4.1-2.2-6.2-3.4-2.1-1.1-4.3-2.3-6.5-3.4-2.2-1.2-4.3-2.3-6.5-3.4-2.1-1.2-4.2-2.3-6.2-3.4-4-2.2-7.8-4.3-11-6.1-3.2-1.8-5.8-3.4-7.7-4.5-1.9-1.1-3-1.8-3-1.8zm13.3-6.8s1.1.5 3 1.5 4.6 2.3 7.9 4c3.2 1.7 7 3.7 11 5.9 2 1.1 4.1 2.2 6.2 3.4l6.3 3.6 6.3 3.6c2.1 1.2 4.1 2.4 6.1 3.6 3.9 2.3 7.6 4.4 10.9 6.1 3.2 1.7 6 3 8 3.8 1 .4 1.8.7 2.3 1 .5.2.8.3.8.3s-.3-.1-.8-.2c-.6-.2-1.4-.4-2.4-.7-2-.7-4.9-1.7-8.3-3.1-3.4-1.5-7.2-3.4-11.2-5.6-2-1.1-4.1-2.2-6.2-3.4l-6.3-3.6-6.3-3.6c-2.1-1.2-4.1-2.4-6.1-3.6-3.9-2.3-7.6-4.5-10.7-6.4s-5.7-3.6-7.5-4.7c-2-1.3-3-1.9-3-1.9zm13.4-8.2s.3.1.8.3c.5.2 1.3.4 2.3.8 1.9.8 4.7 1.8 7.9 3.4 3.2 1.5 6.9 3.4 10.8 5.5l6 3.3c2 1.1 4.1 2.3 6.2 3.4 2.1 1.2 4.1 2.3 6.2 3.5 2 1.1 4 2.3 5.9 3.4 3.8 2.2 7.4 4.3 10.5 6.2 3 1.8 5.5 3.4 7.3 4.5s2.8 1.8 2.8 1.8-1.1-.5-2.9-1.4c-1.9-.9-4.5-2.2-7.7-3.9-3.2-1.6-6.8-3.6-10.8-5.7-2-1.1-4-2.1-6-3.3-2-1.1-4.1-2.3-6.2-3.4-2.1-1.2-4.1-2.3-6.2-3.5-2-1.2-4-2.3-5.9-3.4-3.8-2.2-7.4-4.3-10.5-6.1-3.1-1.7-5.7-3.1-7.6-4-1.8-.9-2.9-1.4-2.9-1.4zm88.4 36.8s.5.3 1.4.9c.8.6 2.1 1.5 3.4 2.6 1.4 1.1 2.9 2.5 4.5 4 .8.8 1.6 1.5 2.5 2.3l2.5 2.5c1.6 1.7 3.3 3.3 4.8 4.9l2.2 2.2 2 2c2.5 2.5 4.2 4.1 4.2 4.1s-.5-.3-1.4-.8c-.4-.3-1-.6-1.6-1s-1.3-.9-2-1.4-1.5-1.1-2.3-1.8c-.8-.6-1.6-1.3-2.4-2.1-.8-.7-1.7-1.5-2.5-2.3s-1.7-1.6-2.5-2.5c-.8-.8-1.6-1.7-2.4-2.5s-1.6-1.7-2.3-2.5c-1.5-1.6-2.9-3.1-4.1-4.4s-2.2-2.4-2.9-3.1c-.7-.6-1.1-1.1-1.1-1.1zm9-4.3s1.4.5 3.3 1.5c1 .5 2 1.1 3.2 1.8 1.1.7 2.3 1.4 3.5 2.2 1.2.8 2.3 1.6 3.4 2.4s2 1.6 2.8 2.3c1.6 1.4 2.6 2.4 2.6 2.4s-1.4-.5-3.3-1.5c-1-.5-2-1.1-3.2-1.8-1.1-.7-2.3-1.4-3.5-2.2-1.2-.8-2.3-1.6-3.4-2.4s-2-1.6-2.8-2.3c-1.7-1.4-2.6-2.4-2.6-2.4zm7.7-5.8s1 .1 2.4.7c.7.3 1.5.6 2.3 1s1.6.9 2.4 1.4 1.6 1.1 2.3 1.6c.7.6 1.4 1.1 1.9 1.6 1.1 1 1.7 1.8 1.7 1.8s-1-.2-2.3-.8c-.7-.3-1.4-.7-2.2-1.1-.8-.4-1.6-.9-2.4-1.4s-1.6-1.1-2.3-1.6c-.7-.5-1.4-1.1-1.9-1.5-1.2-1-1.9-1.7-1.9-1.7zm10.9-7.4s.5 0 1.1.1c.3.1.6.2 1 .3.2.1.3.2.5.3l.1.1c-2.4 3.2-.7.9-1.2 1.6h-.1l-.2-.2-.2-.2h-.1c.5-.7-1.2 1.6 1.2-1.6l.1.1.4.4c.2.3.5.6.6.8.3.5.4 1 .4 1s-.5 0-1.1-.1c-.3-.1-.6-.2-1-.3-.2-.1-.3-.2-.5-.3l-.1-.1c2.4-3.2.7-.9 1.2-1.6h.1l.2.2.2.2h.1c-.5.7 1.2-1.6-1.2 1.6l-.1-.1-.4-.4c-.2-.3-.4-.6-.6-.8-.3-.5-.4-1-.4-1zm-96.9 66.2s1-.6 2.7-1.7c1.7-1.1 4.2-2.7 7.1-4.5 2.9-1.9 6.4-4.1 10-6.4 3.6-2.4 7.6-4.9 11.4-7.5 1.9-1.3 3.9-2.6 5.8-3.8 1.9-1.3 3.8-2.5 5.6-3.8 3.6-2.5 6.9-4.8 9.8-6.8 5.7-4 9.5-6.7 9.5-6.7s-.9.8-2.4 2.1c-.8.7-1.7 1.5-2.8 2.4-1.1.9-2.3 2-3.7 3-1.4 1.1-2.8 2.3-4.4 3.5s-3.3 2.5-5 3.8c-1.8 1.3-3.6 2.6-5.5 3.9-1.9 1.3-3.8 2.6-5.8 3.9-2 1.3-3.9 2.5-5.9 3.8-1.9 1.2-3.9 2.4-5.7 3.5-3.8 2.2-7.3 4.3-10.4 5.9-1.5.8-3 1.6-4.2 2.2-1.3.6-2.4 1.2-3.3 1.7-1.8 1-2.8 1.5-2.8 1.5zm11.5 5.8s.8-.7 2.2-1.8c1.4-1.1 3.4-2.8 5.9-4.7 2.4-1.9 5.3-4.1 8.5-6.4 1.6-1.1 3.2-2.3 4.9-3.5 1.7-1.2 3.4-2.3 5.1-3.5s3.4-2.3 5.1-3.4c1.7-1.1 3.4-2.2 5-3.3 3.3-2.1 6.3-4 9-5.6 2.6-1.6 4.9-2.9 6.5-3.8 1.6-.9 2.5-1.4 2.5-1.4s-.8.6-2.3 1.7c-1.5 1.1-3.5 2.6-6 4.4-2.5 1.8-5.5 3.9-8.6 6.1-1.6 1.1-3.2 2.2-4.9 3.4-1.7 1.2-3.4 2.3-5.1 3.5s-3.4 2.3-5.1 3.5c-1.7 1.1-3.3 2.3-4.9 3.3-3.2 2.2-6.2 4.2-8.8 5.8-2.6 1.7-4.8 3.1-6.3 4-1.8 1.2-2.7 1.7-2.7 1.7zm12.3 7.1s2.9-2.7 7.4-6.4c2.3-1.9 5-4 7.9-6.2 1.5-1.1 3-2.3 4.5-3.4 1.6-1.1 3.1-2.3 4.7-3.4l4.8-3.3c1.6-1.1 3.2-2.1 4.7-3.2 3.1-2 5.9-3.9 8.5-5.4 5-3.1 8.5-5 8.5-5s-.8.6-2.1 1.7c-1.4 1-3.3 2.5-5.7 4.3-2.4 1.7-5.1 3.8-8.1 5.9-3 2.1-6.1 4.4-9.3 6.7-3.2 2.3-6.4 4.5-9.4 6.6s-5.8 4.1-8.2 5.7c-2.4 1.7-4.4 3-5.9 4-1.4.8-2.3 1.4-2.3 1.4zm5.9 6.4s3-2.6 7.7-6.2c2.4-1.8 5.2-3.9 8.2-6 1.5-1.1 3.1-2.2 4.7-3.3s3.3-2.2 4.9-3.3c1.7-1.1 3.3-2.1 5-3.2 1.6-1.1 3.3-2 4.9-3 3.2-1.9 6.2-3.6 8.8-5.1 5.2-2.9 8.8-4.6 8.8-4.6s-.8.6-2.2 1.6c-1.4 1-3.5 2.3-6 4-2.5 1.6-5.4 3.5-8.5 5.6-3.1 2-6.4 4.2-9.7 6.3-3.3 2.1-6.6 4.3-9.7 6.3s-6 3.9-8.5 5.5-4.6 2.9-6.1 3.8c-1.4 1-2.3 1.6-2.3 1.6zm13.6 5.9s2.6-2.3 6.6-5.6c2-1.6 4.4-3.5 7.1-5.4 1.3-1 2.7-2 4.1-2.9l4.2-3c1.4-1 2.9-1.9 4.3-2.9s2.8-1.8 4.2-2.7c2.8-1.7 5.3-3.3 7.6-4.6 4.5-2.6 7.6-4.2 7.6-4.2s-.7.5-1.9 1.4c-1.2.9-3 2.2-5.1 3.7s-4.6 3.3-7.3 5.1c-2.7 1.9-5.5 3.8-8.4 5.8-2.9 1.9-5.7 3.9-8.4 5.7-2.7 1.8-5.2 3.5-7.4 4.9-2.2 1.4-4 2.6-5.3 3.4-1.2.8-1.9 1.3-1.9 1.3zm10 7.5s.7-.5 2-1.5c1.3-.9 3.1-2.2 5.3-3.8 2.2-1.5 4.8-3.3 7.6-5.2 2.8-1.9 5.8-3.9 8.7-5.9 3-2 6-4 8.8-5.8 2.8-1.9 5.4-3.6 7.7-5 2.3-1.5 4.2-2.7 5.5-3.5s2.1-1.3 2.1-1.3-2.7 2.4-6.9 5.7c-2.1 1.7-4.6 3.6-7.3 5.6l-4.2 3c-1.5 1-2.9 2-4.4 3s-3 2-4.5 2.9c-1.5 1-3 1.9-4.4 2.8-2.9 1.8-5.6 3.4-7.9 4.7-4.8 2.7-8.1 4.3-8.1 4.3zm15.3 7.3s1.9 1.1 4.5 3l2.1 1.5c.7.6 1.5 1.1 2.3 1.8 1.6 1.3 3.2 2.7 4.8 4.2l2.3 2.3c.7.8 1.4 1.6 2.1 2.3 1.3 1.5 2.5 3 3.4 4.3 1.9 2.6 3 4.4 3 4.4s-1.6-1.4-3.9-3.7l-1.8-1.8-2-2-4.4-4.4c-.8-.7-1.5-1.5-2.3-2.2s-1.5-1.4-2.2-2.1c-1.5-1.4-2.8-2.6-4-3.8-2.5-2.2-3.9-3.8-3.9-3.8zm9.5-7.3s.3.2.8.6c.5.4 1.2.9 1.9 1.7.8.7 1.6 1.6 2.5 2.6s1.7 2.1 2.5 3.2 1.7 2.1 2.6 3 1.7 1.8 2.4 2.6 1.3 1.4 1.7 1.9c.4.5.6.8.6.8s-1.3-.6-3-1.8c-.9-.6-1.9-1.3-2.9-2.2-.5-.4-1-.9-1.5-1.4s-1-1.1-1.4-1.6c-.9-1.1-1.6-2.3-2.3-3.3-.7-1.1-1.4-2.1-2-2.9-.6-.9-1-1.6-1.4-2.1-.3-.8-.5-1.1-.5-1.1zm7.8-7.2s1 .6 2.2 1.6c.6.5 1.3 1.1 2.1 1.8.7.7 1.5 1.4 2.3 2 .8.7 1.6 1.3 2.4 2 .8.6 1.5 1.3 2.1 1.8 1.2 1.1 1.9 2 1.9 2s-1.1-.3-2.5-1.1c-.7-.4-1.6-.8-2.4-1.4-.4-.3-.9-.5-1.3-.9-.4-.3-.9-.6-1.3-1-.9-.7-1.6-1.6-2.3-2.4l-.9-1.2c-.3-.4-.5-.7-.7-1.1-1.1-1-1.6-2.1-1.6-2.1zm9-6.2s.5 0 1.2.2c.6.2 1.4.6 2 1.1s1.2 1.2 1.5 1.8.4 1.1.4 1.1-.5 0-1.2-.2c-.6-.2-1.4-.6-2-1.1s-1.2-1.2-1.5-1.8-.4-1.1-.4-1.1zm-222.2 64.9s2.5-2.1 6.4-5.1c1-.7 2-1.5 3.2-2.4 1.1-.8 2.3-1.7 3.5-2.7 2.5-1.8 5.1-3.8 7.7-5.7 2.6-2 5.2-3.9 7.7-5.8 2.4-1.8 4.7-3.6 6.7-5 2-1.5 3.6-2.7 4.8-3.5 1.2-.8 1.9-1.3 1.9-1.3s-2.3 2.4-5.9 5.7c-1.8 1.7-4 3.5-6.4 5.5-1.2 1-2.4 2-3.7 3l-3.9 3c-1.3 1-2.7 1.9-4 2.9l-3.9 2.7c-2.5 1.7-5 3.3-7.1 4.6-4.1 2.5-7 4.1-7 4.1zm2.3 11.3s.8-.6 2.1-1.5c1.4-1 3.3-2.3 5.7-3.9 2.3-1.6 5.1-3.5 8-5.4 3-2 6.1-4.1 9.2-6.2 3.2-2.1 6.3-4.2 9.3-6.1 3-1.9 5.7-3.8 8.1-5.3s4.4-2.8 5.8-3.7 2.2-1.4 2.2-1.4-2.8 2.5-7.3 6c-2.2 1.8-4.9 3.7-7.8 5.8-1.5 1-2.9 2.1-4.5 3.2-1.5 1-3.1 2.1-4.7 3.2-1.6 1-3.2 2.1-4.8 3.1-1.6 1-3.1 2-4.7 2.9-3 1.8-5.9 3.5-8.4 4.9-4.8 2.7-8.2 4.4-8.2 4.4zm9.3 5.3s.7-.5 2-1.5c1.3-.9 3.1-2.3 5.4-3.9 2.2-1.6 4.9-3.4 7.7-5.3s5.8-4 8.8-6 6-4.1 8.9-6c2.8-1.9 5.5-3.7 7.8-5.2s4.2-2.7 5.6-3.6c1.4-.8 2.1-1.3 2.1-1.3s-2.7 2.5-7 5.8c-2.1 1.7-4.7 3.6-7.4 5.7-1.4 1-2.8 2.1-4.3 3.1s-3 2.1-4.5 3.1l-4.5 3c-1.5 1-3 1.9-4.4 2.8-2.9 1.8-5.6 3.5-8 4.8-4.9 2.8-8.2 4.5-8.2 4.5zm9.4 7.1s.7-.6 1.9-1.7c1.2-1 2.9-2.5 5.1-4.2 1.1-.9 2.2-1.8 3.5-2.7 1.2-.9 2.6-1.9 3.9-2.9 1.4-1 2.8-2 4.3-3l4.5-3c1.5-1 3.1-1.9 4.6-2.9s3-1.8 4.5-2.7c2.9-1.7 5.7-3.2 8.1-4.5s4.4-2.3 5.9-2.9c1.4-.7 2.3-1 2.3-1s-.8.5-2.1 1.4c-1.3.9-3.2 2.1-5.5 3.6-4.6 2.9-10.6 6.8-16.7 10.8-3 2-6.1 3.9-8.9 5.8-2.8 1.9-5.5 3.6-7.7 5.1-2.3 1.5-4.2 2.7-5.5 3.6-1.5.7-2.2 1.2-2.2 1.2zm11 6.3s2.8-2.2 7.3-5.3c2.2-1.6 4.8-3.3 7.7-5.2 1.4-.9 2.9-1.9 4.4-2.8 1.5-.9 3-1.9 4.6-2.8 1.6-.9 3.1-1.8 4.6-2.7s3.1-1.7 4.5-2.6c3-1.7 5.7-3.1 8.1-4.4 4.8-2.5 8.1-4 8.1-4s-3 2.1-7.5 5c-2.3 1.5-4.9 3.1-7.8 4.9-1.4.9-2.9 1.8-4.4 2.7s-3.1 1.9-4.6 2.8c-1.5.9-3.1 1.8-4.6 2.8-1.5.9-3 1.8-4.5 2.6-2.9 1.7-5.6 3.3-8 4.6-4.7 2.7-7.9 4.4-7.9 4.4zm7.1 10.2s.8-.6 2.2-1.7c1.4-1 3.5-2.6 6-4.3 2.5-1.8 5.5-3.8 8.7-5.9 1.6-1 3.2-2.1 4.9-3.2 1.7-1.1 3.4-2.2 5.2-3.3 1.7-1.1 3.5-2.1 5.2-3.2 1.7-1.1 3.4-2 5.1-3 3.3-1.9 6.4-3.7 9.1-5.1 2.7-1.5 5-2.6 6.6-3.5 1.6-.8 2.5-1.3 2.5-1.3s-.8.6-2.3 1.6-3.6 2.4-6.2 4.1c-2.6 1.7-5.6 3.6-8.8 5.7-1.6 1-3.3 2.1-5 3.1-1.7 1.1-3.4 2.1-5.2 3.2-1.7 1.1-3.5 2.1-5.2 3.2-1.7 1-3.4 2.1-5 3.1-3.3 2-6.3 3.8-9 5.4-2.6 1.6-4.9 2.8-6.4 3.7-1.5 1-2.4 1.4-2.4 1.4zm-36.8-16.5s.5.3 1.2.8c.8.5 1.9 1.2 3.2 2.1 1.3.9 2.8 1.9 4.4 3 .8.6 1.6 1.1 2.4 1.7.8.6 1.7 1.2 2.5 1.8s1.7 1.3 2.5 1.9c.8.6 1.6 1.3 2.3 1.9 1.5 1.2 2.9 2.5 4 3.5 2.3 2.1 3.7 3.7 3.7 3.7s-.5-.3-1.2-.8c-.8-.5-1.9-1.2-3.2-2.1-1.3-.9-2.8-1.9-4.4-3-.8-.6-1.6-1.1-2.4-1.7-.8-.6-1.7-1.2-2.5-1.8s-1.7-1.3-2.5-1.9c-.8-.6-1.6-1.3-2.3-1.9-1.5-1.2-2.9-2.5-4-3.5-2.4-2.1-3.7-3.7-3.7-3.7zm-1.4 10.1s1.2.5 2.8 1.4c.8.5 1.7 1 2.7 1.7l3 2.1c1 .8 1.9 1.5 2.8 2.3s1.7 1.5 2.3 2.2c1.3 1.3 2.1 2.3 2.1 2.3s-1.2-.5-2.8-1.4c-.8-.5-1.7-1-2.7-1.7-1-.6-2-1.4-3-2.1-1-.8-1.9-1.6-2.8-2.3-.9-.8-1.7-1.5-2.3-2.2-1.3-1.3-2.1-2.3-2.1-2.3zm54 10.9s.9.1 2 .4c1.2.3 2.7 1 4.1 1.7s2.8 1.4 3.8 2c.5.3 1 .6 1.3.8s.5.4.5.4-.9.1-2.1-.1c-1.2-.1-2.8-.5-4.3-1.3s-2.8-1.7-3.7-2.5c-1-.7-1.6-1.4-1.6-1.4zm9.1-5.2s1.5.2 3.6.8c1.1.3 2.3.7 3.6 1.1 1.3.5 2.6 1 4 1.7 1.3.6 2.6 1.4 3.8 2.1 1.2.7 2.2 1.5 3.1 2.1 1.7 1.3 2.8 2.4 2.8 2.4s-.4-.1-.9-.4c-.6-.2-1.4-.6-2.4-1s-2.1-1-3.3-1.6c-1.2-.6-2.5-1.2-3.8-1.8s-2.6-1.3-3.8-1.8c-1.2-.6-2.3-1.2-3.3-1.7-2.2-1.1-3.4-1.9-3.4-1.9zm11.5-8.2s.5.2 1.4.6c.4.2 1 .4 1.6.7s1.3.5 2.1.8c1.6.6 3.4 1.3 5.3 2.1l3 1.2c1 .4 2 .9 3.1 1.3 1 .5 2 .9 3 1.4 1 .4 2 .9 2.9 1.4s1.8.9 2.7 1.4c.9.4 1.7.9 2.4 1.3s1.4.8 2 1.2 1.1.8 1.4 1c.4.3.7.6.9.8l.3.3s-.1-.1-.4-.2l-1-.5c-.5-.2-1-.5-1.6-.7-.6-.3-1.3-.5-2.1-.9-1.5-.6-3.4-1.3-5.3-2.1l-3-1.2c-1-.4-2-.9-3.1-1.3-1-.5-2-.9-3-1.4-1-.4-2-.9-2.9-1.4-1.9-.9-3.6-1.8-5.1-2.7-1.5-.8-2.6-1.6-3.4-2.2-.8-.5-1.2-.9-1.2-.9zm12.3-5.3s.6.1 1.8.4c.6.1 1.2.3 2 .5s1.6.5 2.6.8c.9.4 1.9.7 3 1.2 1 .5 2.1 1 3.2 1.7.5.3 1.1.6 1.6 1 .5.3 1.1.7 1.6 1.1 1.1.7 2.1 1.5 3.2 2.3 1 .8 2.1 1.6 3.1 2.4 1 .7 2 1.5 3 2.2s2 1.3 2.9 1.9c.9.6 1.9 1.1 2.7 1.6.9.5 1.6.9 2.3 1.2.7.4 1.3.7 1.8.9l1.6.8s-.6-.1-1.8-.4c-.6-.2-1.2-.3-2-.6s-1.6-.5-2.5-.9-1.9-.8-2.9-1.3c-.5-.3-1-.5-1.6-.8-.5-.3-1-.6-1.6-.9-.5-.3-1.1-.7-1.6-1-.5-.4-1.1-.7-1.6-1.1-1.1-.8-2.1-1.5-3.1-2.3s-2.1-1.6-3.1-2.3-2-1.5-3-2.1c-1-.7-2-1.3-2.9-1.8-.9-.6-1.9-1-2.7-1.5-.9-.4-1.7-.8-2.4-1.2-.7-.4-1.4-.6-1.9-.9-1.1-.6-1.7-.9-1.7-.9zm13.4-9.3s3.2 1.6 7.7 4.4c2.3 1.4 4.9 3 7.7 4.8 1.4.9 2.8 1.8 4.3 2.8 1.5.9 3 1.9 4.5 2.8 3 1.9 6 3.8 8.8 5.5 1.4.8 2.8 1.7 4.1 2.4 1.3.7 2.6 1.5 3.7 2.1 1.2.6 2.2 1.2 3.2 1.7s1.8.9 2.5 1.3l2.2 1.1s-.9-.3-2.3-.7c-.8-.2-1.6-.5-2.7-.9-.5-.2-1.1-.4-1.6-.6-.6-.2-1.2-.5-1.8-.8-1.2-.5-2.6-1.1-3.9-1.8-1.4-.7-2.8-1.4-4.3-2.2s-3-1.6-4.5-2.6c-1.5-.9-3-1.8-4.5-2.8-3-1.9-6-3.9-8.7-5.8-2.7-1.9-5.2-3.8-7.4-5.4-2.1-1.6-3.9-2.9-5.1-3.9-1.2-.9-1.9-1.4-1.9-1.4zm9.9-4.4s3.4 1.7 8.4 4.5c2.5 1.4 5.4 3 8.4 4.8 1.5.9 3.1 1.8 4.7 2.8s3.2 2 4.8 2.9l4.8 3c1.6 1 3.1 2 4.6 3 3 1.9 5.8 3.8 8.1 5.4 4.7 3.2 7.8 5.5 7.8 5.5s-3.4-1.7-8.4-4.5c-2.5-1.4-5.4-3-8.4-4.8-1.5-.9-3.1-1.8-4.7-2.8s-3.2-2-4.8-2.9l-4.8-3c-1.6-1-3.1-2-4.6-3-3-1.9-5.8-3.8-8.1-5.4-4.8-3.2-7.8-5.5-7.8-5.5zm-64.1-55.7s1 .5 2.7 1.5c.8.5 1.9 1.1 3 1.8 1.2.7 2.5 1.5 3.9 2.5 2.8 1.8 6.1 4 9.5 6.4 1.7 1.2 3.5 2.4 5.3 3.7s3.6 2.5 5.5 3.8c1.8 1.3 3.7 2.5 5.5 3.7s3.6 2.4 5.4 3.5 3.5 2.2 5.1 3.1c1.6 1 3.2 1.9 4.7 2.7 1.4.8 2.8 1.5 4 2.2s2.3 1.2 3.1 1.6c1.7.9 2.7 1.4 2.7 1.4s-1.1-.4-2.9-1.1c-.9-.3-2-.8-3.3-1.3s-2.7-1.1-4.2-1.8-3.2-1.5-4.9-2.4c-1.7-.9-3.5-1.9-5.3-2.9-.9-.5-1.8-1.1-2.8-1.6-.9-.6-1.9-1.1-2.8-1.7-1.9-1.2-3.7-2.4-5.6-3.7-1.8-1.3-3.7-2.6-5.5-3.8-1.8-1.3-3.5-2.6-5.2-3.8-3.4-2.5-6.5-4.9-9.1-6.9-5.2-4.2-8.8-6.9-8.8-6.9zm12.5-6.3s1.1.5 2.9 1.4 4.5 2.2 7.6 3.8 6.8 3.5 10.6 5.6c1.9 1.1 3.9 2.1 5.9 3.3s4 2.3 6.1 3.5l6 3.6c2 1.2 3.9 2.4 5.8 3.5 3.7 2.3 7.2 4.5 10.1 6.5 2.9 1.9 5.3 3.6 7 4.8s2.6 1.9 2.6 1.9-1-.5-2.8-1.5-4.3-2.4-7.4-4.1c-3-1.7-6.6-3.8-10.4-6s-7.8-4.6-11.9-6.9c-4-2.4-8.1-4.8-11.8-7-3.8-2.2-7.3-4.3-10.3-6.2-3-1.8-5.5-3.4-7.2-4.5-1.9-1-2.8-1.7-2.8-1.7zm12.4-5.8s1 .5 2.8 1.5 4.3 2.3 7.4 3.9c3 1.6 6.6 3.6 10.4 5.6 3.8 2.1 7.8 4.3 11.9 6.5 2 1.1 4 2.3 6 3.4s3.9 2.2 5.8 3.3c3.8 2.2 7.2 4.2 10.2 6s5.4 3.3 7.1 4.4c1.7 1.1 2.7 1.7 2.7 1.7s-1.1-.5-2.9-1.4-4.4-2.1-7.5-3.7c-3.1-1.6-6.7-3.4-10.5-5.4-1.9-1-3.9-2-5.9-3.1l-6-3.3c-2-1.1-4-2.3-6-3.4s-3.9-2.3-5.8-3.4c-3.7-2.2-7.2-4.3-10.1-6.2-2.9-1.8-5.3-3.5-7-4.6-1.6-1.1-2.6-1.8-2.6-1.8zm12.9-9.1s1 .6 2.8 1.6c1.8 1.1 4.4 2.6 7.4 4.4 6.1 3.7 14.3 8.6 22.4 13.5 4.1 2.5 8.1 4.9 11.9 7.2s7.4 4.5 10.4 6.3c3 1.9 5.6 3.5 7.3 4.6 1.8 1.1 2.8 1.8 2.8 1.8s-1.1-.5-3-1.4-4.6-2.2-7.7-3.9c-3.2-1.6-6.8-3.6-10.7-5.8-1.9-1.1-4-2.2-6-3.4s-4.1-2.4-6.1-3.6c-2-1.3-4.1-2.5-6.1-3.7s-3.9-2.5-5.8-3.7c-3.7-2.4-7.2-4.8-10.1-6.8s-5.3-3.8-7-5c-1.5-1.4-2.5-2.1-2.5-2.1zm10.1-7s1 .6 2.8 1.8c1.8 1.1 4.4 2.8 7.4 4.7 6.1 4 14.3 9.2 22.5 14.5 4.1 2.6 8.2 5.3 12 7.7 3.8 2.5 7.4 4.8 10.5 6.6 3.2 1.8 5.9 3 7.9 3.7s3.2 1.1 3.2 1.1-.3-.1-.9-.2c-.6-.1-1.4-.3-2.4-.5-2.1-.5-5-1.5-8.3-3.1-1.7-.8-3.4-1.7-5.2-2.8-1.8-1-3.7-2.1-5.7-3.3s-4-2.4-6-3.7-4.1-2.6-6.1-3.9c-4.1-2.7-8.1-5.3-11.9-8-3.8-2.6-7.2-5.1-10.1-7.3s-5.3-4.1-7-5.4c-1.8-1.2-2.7-1.9-2.7-1.9zm12.6-6s.3 0 .8.1 1.3.2 2.2.5c1.9.5 4.6 1.5 7.5 3.3 1.5.9 3 1.9 4.5 3 1.6 1.1 3.2 2.2 5 3.4 1.7 1.2 3.5 2.4 5.4 3.6 1.8 1.2 3.7 2.4 5.6 3.6 1.9 1.2 3.8 2.4 5.6 3.5 1.9 1.1 3.7 2.3 5.5 3.4 1.8 1.1 3.5 2.1 5.2 3.1s3.2 1.9 4.7 2.7c5.8 3.4 9.7 5.6 9.7 5.6s-1-.4-2.8-1.2-4.4-1.9-7.4-3.4c-1.5-.7-3.1-1.5-4.8-2.4-1.7-.9-3.5-1.8-5.3-2.9-1.8-1-3.7-2.1-5.6-3.2-1.9-1.1-3.8-2.3-5.7-3.5-1.9-1.2-3.8-2.5-5.6-3.7-1.8-1.2-3.6-2.5-5.3-3.7-1.7-1.2-3.3-2.5-4.8-3.7s-2.9-2.3-4.3-3.3-2.6-1.8-3.8-2.4c-1.2-.7-2.3-1.1-3.2-1.5-.9-.4-1.6-.6-2.1-.8-.7 0-1-.1-1-.1zm18.9 81.1l2.1-2.1c.7-.6 1.5-1.4 2.5-2.3 1-.9 2.1-1.9 3.3-3 1.2-1.1 2.6-2.2 4-3.4 1.5-1.2 3-2.4 4.6-3.7 1.6-1.2 3.3-2.5 5-3.8s3.5-2.5 5.3-3.7l5.4-3.6c1.8-1.2 3.6-2.3 5.3-3.3 1.7-1.1 3.4-2.1 5.1-3 1.6-.9 3.2-1.8 4.6-2.6s2.8-1.5 3.9-2.1c1.2-.6 2.2-1.1 3.1-1.5 1.7-.8 2.7-1.3 2.7-1.3s-.9.6-2.5 1.6-3.9 2.5-6.6 4.2c-2.7 1.8-5.9 3.8-9.3 6-1.7 1.1-3.4 2.3-5.2 3.5-1.8 1.2-3.6 2.4-5.3 3.6-1.8 1.2-3.6 2.4-5.3 3.7-1.7 1.2-3.5 2.4-5.1 3.6-3.3 2.4-6.3 4.6-8.9 6.5s-4.8 3.5-6.3 4.7c-1.5 1.4-2.4 2-2.4 2zm11.8 5.4s.9-.5 2.6-1.3c.8-.4 1.8-1 2.9-1.6s2.3-1.4 3.7-2.2c1.3-.8 2.7-1.8 4.3-2.8 1.5-1 3-2.1 4.7-3.2 1.6-1.1 3.3-2.3 5-3.5s3.4-2.4 5.1-3.7c3.4-2.5 6.8-4.9 10-7.3 3.2-2.3 6.2-4.4 8.8-6.2 1.3-.9 2.5-1.7 3.6-2.4s2-1.3 2.9-1.7c.4-.2.8-.4 1.1-.6.3-.1.6-.3.8-.4.5-.2.7-.3.7-.3s-.2.1-.6.4c-.2.1-.5.3-.8.5s-.6.5-1 .7c-.8.5-1.6 1.2-2.6 2s-2.1 1.7-3.4 2.7c-2.5 2-5.3 4.3-8.5 6.7-1.6 1.2-3.2 2.5-4.8 3.7-1.7 1.2-3.4 2.5-5.1 3.8l-5.1 3.6c-1.7 1.2-3.4 2.3-5.1 3.4-1.7 1.1-3.3 2.1-4.9 3s-3.1 1.8-4.5 2.5c-.7.4-1.4.7-2 1.1-.6.3-1.3.6-1.9.9-1.2.5-2.2 1-3.1 1.3-1.8.5-2.8.9-2.8.9zm7.7 9.8s3-2.7 7.6-6.5c2.3-1.9 5-4.1 8-6.5l4.5-3.6c1.6-1.2 3.1-2.4 4.7-3.6l4.8-3.6c1.6-1.2 3.1-2.3 4.6-3.4 3-2.2 5.9-4.3 8.3-6 4.9-3.4 8.3-5.6 8.3-5.6s-3 2.7-7.6 6.5c-2.3 1.9-5 4.1-8 6.5l-4.5 3.6c-1.6 1.2-3.1 2.4-4.7 3.6l-4.8 3.6c-1.6 1.2-3.1 2.3-4.6 3.4-3 2.2-5.9 4.3-8.3 6-5 3.5-8.3 5.6-8.3 5.6zm11.4 8.4s2.9-2.6 7.5-6.4c2.3-1.9 4.9-4.1 7.8-6.4 2.9-2.3 5.9-4.8 9-7.2 1.5-1.2 3.1-2.4 4.6-3.6 1.5-1.2 3-2.4 4.5-3.5 2.9-2.3 5.6-4.3 8-6.1 4.7-3.6 7.9-5.8 7.9-5.8s-2.8 2.8-7.2 6.7c-2.2 2-4.8 4.2-7.6 6.6-1.4 1.2-2.9 2.4-4.4 3.6-1.5 1.2-3 2.4-4.6 3.7-1.6 1.2-3.1 2.4-4.6 3.6-1.5 1.2-3.1 2.3-4.5 3.4-3 2.2-5.7 4.2-8.2 5.9-4.9 3.4-8.2 5.5-8.2 5.5zm12 4.8s2.7-2.5 7-6c2.1-1.8 4.6-3.8 7.3-5.9 1.4-1.1 2.7-2.2 4.2-3.3 1.4-1.1 2.9-2.2 4.4-3.3s2.9-2.2 4.4-3.3c1.4-1.1 2.9-2.1 4.3-3.1 2.8-2 5.4-3.9 7.7-5.4 2.3-1.6 4.2-2.8 5.6-3.6s2.2-1.2 2.2-1.2-.7.6-2 1.6-3 2.5-5.2 4.2c-2.1 1.8-4.6 3.8-7.3 5.9-1.4 1.1-2.7 2.2-4.2 3.3-1.4 1.1-2.9 2.2-4.4 3.3s-2.9 2.2-4.4 3.3c-1.4 1.1-2.9 2.1-4.3 3.1-2.8 2-5.4 3.9-7.7 5.4-4.4 3.1-7.6 5-7.6 5zm6.8 6.9s2.4-2.1 6-5.1c1.8-1.5 4-3.2 6.3-5 1.2-.9 2.4-1.8 3.6-2.8 1.2-.9 2.5-1.9 3.7-2.8 1.3-.9 2.5-1.8 3.8-2.8 1.2-.9 2.5-1.8 3.7-2.6 2.4-1.7 4.7-3.3 6.6-4.6 3.9-2.7 6.5-4.4 6.5-4.4s-2.2 2.2-5.8 5.3c-1.8 1.5-3.9 3.3-6.2 5.1-1.2.9-2.4 1.9-3.6 2.8-1.2.9-2.5 1.9-3.7 2.8-1.3.9-2.5 1.8-3.8 2.8-1.2.9-2.5 1.8-3.7 2.6-2.4 1.7-4.7 3.2-6.7 4.5-4 2.7-6.7 4.2-6.7 4.2zM221.2 425.4s1.1.4 2.7 1.2c.8.4 1.7.9 2.6 1.5.4.3.9.6 1.4.9s.9.7 1.4 1c.9.7 1.8 1.5 2.6 2.2s1.5 1.5 2.1 2.1c1.1 1.3 1.8 2.3 1.8 2.3s-1.1-.5-2.5-1.4c-.7-.5-1.6-1-2.4-1.6-.9-.6-1.8-1.3-2.7-2s-1.8-1.4-2.6-2.1-1.6-1.4-2.2-1.9c-1.5-1.3-2.2-2.2-2.2-2.2zm259-19.7s.6 0 1.5.2c.8.2 1.8.7 2.8 1.2.9.6 1.8 1.3 2.3 2 .6.6.8 1.2.8 1.2s-.6 0-1.5-.2c-.8-.2-1.8-.7-2.8-1.2-.9-.6-1.7-1.3-2.3-2-.6-.6-.8-1.2-.8-1.2zm-133.7 4.2s.7.3 1.9.9c1.2.6 2.9 1.4 4.9 2.4s4.3 2.1 6.9 3.4c2.5 1.3 5.2 2.6 7.8 3.9 1.3.7 2.7 1.4 4 2 1.3.7 2.6 1.4 3.8 2 2.5 1.3 4.8 2.6 6.7 3.7 3.9 2.2 6.4 3.8 6.4 3.8s-2.8-1-6.9-2.8c-2.1-.9-4.5-1.9-7-3.1-1.3-.6-2.6-1.2-3.9-1.9-1.3-.7-2.7-1.3-4-2s-2.7-1.4-4-2.1-2.6-1.4-3.8-2.1c-2.4-1.4-4.7-2.7-6.6-3.9-1.9-1.2-3.4-2.3-4.5-3s-1.7-1.2-1.7-1.2zm92.9 263.8s.8.1 2 .4c1.1.3 2.6.9 3.9 1.6 1.4.7 2.7 1.6 3.5 2.4.2.2.5.4.6.5s.3.2.4.2v.1c0 .1 0 0 0 0s0-.1-.1-.1c-.1-.1-.1 0-.1 0s0-.1.1-.1h.2s.1 0 .1.2c0 .1-.1.1-.1.2-.2.1-.5.1-.8.1-.3-.1-.5-.1-.8-.2-1.1-.3-2.6-.9-3.9-1.6-1.4-.7-2.6-1.6-3.5-2.4-1-.7-1.5-1.3-1.5-1.3zm7.3-5.8s1 .1 2.3.5 3 1.1 4.7 1.9c1.6.8 3.2 1.8 4.3 2.7 1.1.8 1.8 1.6 1.8 1.6s-1-.1-2.3-.5-3-1.1-4.7-1.9c-1.6-.8-3.2-1.8-4.3-2.7-1.1-.9-1.8-1.6-1.8-1.6zm8.8-5.8s.7 0 1.7.3 2.2.8 3.4 1.4c1.2.7 2.2 1.4 3 2.2.8.7 1.2 1.3 1.2 1.3s-.7 0-1.7-.3-2.2-.8-3.4-1.4c-1.2-.7-2.2-1.5-3-2.2s-1.2-1.3-1.2-1.3zm8.1-5.7s.6-.1 1.3-.1c.8 0 1.7.3 2.6.8s1.7 1.1 2.1 1.7c.5.6.7 1.2.7 1.2s-.6 0-1.3-.2c-.7-.2-1.6-.5-2.4-.9s-1.6-1-2.2-1.5c-.5-.5-.8-1-.8-1zM218.8 395.2s4.3.1 11.8.4c3.7.1 8.3.2 13.5.3 5.2.1 11.1.1 17.5.2 6.4 0 13.4.1 20.7.1h23.1c8 0 16.3 0 24.7-.1 8.4-.1 17-.1 25.5-.2s17.1-.2 25.5-.2c8.4-.1 16.7-.2 24.7-.3 8-.1 15.8-.2 23.1-.3 7.3-.1 14.3-.3 20.7-.4 6.4-.2 12.3-.3 17.5-.5s9.7-.3 13.5-.5c7.5-.3 11.7-.5 11.7-.5s-4.3.4-11.7 1.1c-3.7.3-8.3.6-13.5 1s-11.1.7-17.5 1.1c-6.4.3-13.3.7-20.7.9-7.3.3-15.1.6-23.1.8-8 .2-16.3.4-24.7.6-8.4.2-17 .2-25.5.3-8.6 0-17.1 0-25.5.1-8.4 0-16.7-.1-24.7-.2s-15.8-.3-23.1-.4c-7.3-.2-14.3-.4-20.7-.6-6.4-.2-12.3-.5-17.5-.8s-9.7-.6-13.5-.8c-7.5-.8-11.8-1.1-11.8-1.1z"/><path d="M214.2 378.2s.3.8.9 2.2c.6 1.5 1.5 3.6 2.9 6.4.7 1.4 1.4 2.9 2.3 4.6.8 1.7 1.8 3.5 2.5 5.7.7 2.1 1 4.6 1.1 7.1 0 .6 0 1.3-.2 2s-.5 1.3-.8 1.9c-.7 1.2-1.6 2.3-2.5 3.4s-1.9 2.2-2.6 3.5c-.7 1.3-1.4 2.7-1.9 4.1-1 2.9-1.5 6.2-1.5 9.6.1 6.8 2.3 14 4.4 21.7 1 3.9 2 7.8 3.1 11.9 1 4.1 1.9 8.4 2.9 12.7 1 4.4 1.8 8.9 2.7 13.5s1.7 9.3 2.5 14.2c3.3 19.3 5.9 40.4 8.2 62.8 2.3 22.3 4.3 45.9 6.7 70.3.6 6.1 1.3 12.2 1.9 18.4.4 3.1.7 6.2 1.1 9.3.4 3.1.6 6.3 1.5 9 .4 1.4 1.1 2.6 2 3.7.5.5.9 1.1 1.5 1.5l.2.2.2.2.5.4.9.6c2.5 1.6 5.4 2.7 8.4 3.6 1.5.4 3 .9 4.5 1.2 1.6.3 3.1.7 4.7 1s3.1.6 4.7.8 3.1.4 4.7.6c12.7 1.4 25.6 1.2 38.6.7 6.5-.3 13-.6 19.5-.8s13.1-.4 19.6-.6c26.1-.6 52.2-1.3 77.9-1.9 6.4-.2 12.9-.1 18.9-1.2 3-.6 5.9-1.5 8.2-3.3 1.2-.9 2.2-2 3.2-3.1.5-.5 1-1.2 1.5-1.8s.9-1.2 1.4-1.8c3.5-4.9 5.7-10.8 6.9-16.7 1.2-6 1.5-12.1 1.5-18.2s-.2-12.1-.2-18.2c0-3 .2-6.1.4-9 .2-3 .4-5.9.7-8.8.8-11.7 1.4-23.2 2.1-34.5.3-5.6.7-11.1 1.1-16.6l.6-8.1c.1-1.3.2-2.7.2-4s.1-2.6.1-3.9c.1-10.5-1-20.7-1.2-30.5-.1-4.9 0-9.8.4-14.5s1.3-9.3 2.4-13.6c2.1-8.7 4.8-16.8 6.8-24.4 1-3.8 1.9-7.6 2.6-11.2.3-1.8.6-3.6.8-5.4.2-1.7.2-3.5.1-5.2-.3-6.8-2-13-3-18.6-.5-2.8-.8-5.5-.9-8.1s.1-5 .5-7.2c.7-4.4 1.4-8.1 2-11.1s1-5.3 1.2-6.9.4-2.4.4-2.4l-.3 2.4c-.2 1.6-.5 3.9-1 6.9s-1.1 6.7-1.7 11.1c-.3 2.2-.5 4.5-.4 7.1.1 2.5.5 5.2 1 8 1 5.6 2.8 11.7 3.2 18.7.1 1.7.1 3.5-.1 5.3s-.4 3.6-.8 5.5c-.6 3.7-1.5 7.5-2.4 11.3-1.9 7.7-4.5 15.8-6.5 24.5-1 4.3-1.8 8.8-2.2 13.4-.4 4.6-.5 9.4-.3 14.3.3 9.7 1.4 19.9 1.4 30.5 0 1.3 0 2.7-.1 4 0 1.3-.1 2.7-.2 4l-.6 8.1c-.4 5.4-.7 11-1 16.6-.6 11.2-1.1 22.7-1.9 34.5-.2 2.9-.4 5.9-.6 8.9s-.4 5.9-.4 8.9c0 6 .2 12 .2 18.2s-.3 12.4-1.5 18.7c-1.2 6.2-3.5 12.4-7.3 17.8-.5.7-1 1.3-1.5 2-.5.6-1 1.2-1.6 1.8-1.1 1.2-2.2 2.4-3.6 3.5-2.8 2.2-6.1 3.2-9.3 3.8-6.5 1.2-13 1.1-19.4 1.3-25.7.7-51.8 1.4-77.9 2.1-6.5.2-13 .3-19.6.5-6.5.3-13 .5-19.5.8-13 .5-26.1.7-39-.8l-4.8-.6c-1.6-.2-3.2-.6-4.8-.8-1.6-.3-3.1-.7-4.7-1-1.6-.4-3.2-.8-4.7-1.3-3.1-1-6.2-2.1-9.1-4-.4-.2-.7-.5-1.1-.7l-.5-.4c-.1 0-.2-.1-.3-.2l-.2-.2c-.7-.6-1.2-1.2-1.8-1.9-1.1-1.4-1.9-3-2.4-4.6s-.8-3.3-1-4.9c-.2-1.6-.4-3.1-.6-4.7-.4-3.1-.7-6.2-1.1-9.3-.6-6.2-1.3-12.3-1.9-18.4-2.4-24.4-4.2-48-6.3-70.3s-4.5-43.4-7.7-62.7c-.8-4.8-1.6-9.6-2.4-14.2-.9-4.6-1.7-9.1-2.6-13.5-1-4.4-1.8-8.6-2.8-12.7s-2-8.1-2.9-12c-2-7.6-4.2-14.9-4.2-21.9 0-3.5.5-6.9 1.6-9.9.5-1.5 1.2-2.9 2-4.2.8-1.3 1.8-2.4 2.7-3.5s1.8-2.1 2.5-3.3c.3-.6.6-1.1.8-1.7s.2-1.2.2-1.8c0-2.5-.3-4.9-.9-7-.6-2.1-1.5-4-2.3-5.7s-1.5-3.2-2.2-4.6c-1.3-2.8-2.2-5-2.7-6.4-.4-1.8-.7-2.5-.7-2.5z"/></svg>