<?xml version="1.0" encoding="utf-8"?>
<!-- Generator: Adobe Illustrator 19.2.0, SVG Export Plug-In . SVG Version: 6.00 Build 0)  -->
<svg version="1.1" id="Layer_1" xmlns="http://www.w3.org/2000/svg" xmlns:xlink="http://www.w3.org/1999/xlink" x="0px" y="0px"
	 viewBox="0 0 700 700" style="enable-background:new 0 0 700 700;" xml:space="preserve">
<style type="text/css">
	.st0{fill:none;}
	.st1{fill:none;stroke:#000000;stroke-width:5;stroke-miterlimit:10;}
	.st2{opacity:0.9;fill:url(#SVGID_1_);}
	.st3{fill:url(#SVGID_2_);}
</style>
<rect x="0" y="0" class="st0" width="700" height="700"/>
<path class="st1" d="M6708.6-568.1c0.3,38.5,0.2,82.4-5.7,120.5c-2.3,14.7-3.7,31.7-10.6,44.9c-9.4,17.9-18.6,35.9-34,49.5
	c-5.5,4.9-11.5,9.2-17.9,12.8c-4.2,2.3-15.3,5.1-15.9,10.8c-0.4,3.6,3.8,5.7,6.9,7.6c6.9,4.3,10.9,12.3,11.6,20.4
	c1.5,15.4-5.6,30.7-18.9,38.8c-0.8,0.5-1.6,1-1.9,1.8c-0.7,2.1,2.1,3.4,4.2,3.8c12.1,2.1,24,5,35.7,8.7c7.7,2.4,24.3,10.6,12,18.5
	c-7.7,4.9-17,6.2-26,7.3c-24.7,3.1-49.7,6.2-74.5,3.9c-5.6-0.5-11.2-1.4-16.8-2.2c-7.5-1.1-15-2.2-22.5-3.3
	c-5.3-0.8-11.8-2.7-12.7-7.9c-1.7-10.2,16.6-15.1,23.6-17.2c4.9-1.5,36.5-4.6,35.6-9.3c-0.5-2.4-2.8-3.9-4.8-5.4
	c-8.9-6.4-15-16.4-16.6-27.2c-1.6-10.8,1.3-22.2,7.9-30.9c2.2-2.9,4.9-6,4.4-9.6c-0.2-1.5-1-2.9-2-4.1c-5.1-6.7-15.9-9.5-22.8-14.7
	c-7.9-6-15.2-12.8-21.6-20.4c-12.5-14.5-22.1-31.5-27.6-49.9c-5.2-17.2-6.9-35.3-8.2-53.2c-2.3-31-3.6-62-3.8-93.1
	c20.2-2.4,42-1.8,62.4-1.4C6600.9-567.5,6708.6-570.2,6708.6-568.1z"/>
<g>
	<path d="M6582-253.2c0,0,0,0.2,0,0.5c0,0.3,0,0.8,0,1.4c0,0.6,0.1,1.3,0.6,1.9c0.4,0.6,1.2,0.8,2.2,0.8c2.1-0.1,4.5-0.2,7.1-0.2
		c1.3,0,2.7-0.1,4-0.1c1.4-0.1,2.8-0.1,4.1-0.2c1.4-0.1,2.8-0.1,4.1-0.2c1.4-0.1,2.7-0.1,4-0.2c2.6-0.1,5-0.2,7.1-0.3
		c2-0.1,3.7-0.6,4.6-1.3c0.4-0.4,0.7-0.8,0.8-1.1c0.1-0.3,0.2-0.5,0.2-0.5s0,0.2,0,0.5c-0.1,0.3-0.2,0.8-0.6,1.3
		c-0.4,0.5-1.1,1-1.9,1.4c-0.8,0.4-1.8,0.7-2.8,0.8c-2.1,0.4-4.5,0.7-7.1,0.9c-1.3,0.1-2.7,0.3-4,0.4c-1.4,0.1-2.8,0.2-4.2,0.2
		c-1.4,0-2.8,0.1-4.2,0.1c-1.4,0-2.7,0-4.1,0c-2.6-0.1-5.1-0.2-7.2-0.4c-0.5-0.1-1.1-0.1-1.6-0.4c-0.5-0.3-0.9-0.7-1.1-1.1
		c-0.4-0.9-0.4-1.7-0.3-2.3c0.1-0.6,0.2-1.1,0.3-1.4C6581.9-253,6582-253.2,6582-253.2z"/>
</g>
<g>
	<path d="M6581.6-337.8c0,0,0.6,0.2,1.6,0.5c0.5,0.2,1.2,0.3,1.9,0.5c0.7,0.2,1.6,0.4,2.4,0.5c0.9,0.2,1.9,0.3,2.9,0.5
		c1,0.1,2.1,0.2,3.3,0.3c1.1,0.1,2.3,0.1,3.5,0.2c1.2,0,2.4,0,3.6,0c1.2,0,2.5,0,3.7-0.1c1.2,0,2.4-0.1,3.6-0.1
		c2.3-0.1,4.5-0.1,6.3-0.3c1.8-0.2,3.2-0.6,4.1-1.2c0.4-0.3,0.8-0.6,1-0.8c0.2-0.2,0.3-0.3,0.3-0.3s-0.1,0.1-0.2,0.4
		c-0.2,0.3-0.4,0.6-0.8,1c-0.8,0.8-2.3,1.6-4.2,2c-0.9,0.2-2,0.4-3,0.5c-1.1,0.1-2.2,0.3-3.3,0.4c-1.2,0.1-2.4,0.2-3.6,0.3
		c-1.2,0.1-2.5,0.1-3.7,0.2c-1.3,0-2.5,0-3.7-0.1c-0.6,0-1.2-0.1-1.8-0.1c-0.6-0.1-1.2-0.1-1.8-0.2c-1.2-0.1-2.3-0.4-3.4-0.6
		c-0.5-0.1-1-0.3-1.5-0.4c-0.5-0.2-1-0.3-1.4-0.4c-1.8-0.6-3.2-1.3-4.2-1.8C6582.2-337.5,6581.6-337.8,6581.6-337.8z"/>
</g>
<g>
	<path d="M6531.5-235.7c0,0,0.1,0.1,0.3,0.3c0.2,0.2,0.5,0.4,1,0.6c0.9,0.5,2.3,1,4.2,1.4c1.9,0.4,4.2,0.7,6.8,1.1
		c2.6,0.4,5.6,0.7,8.9,1.1c3.3,0.3,6.8,0.7,10.6,1c3.7,0.3,7.7,0.5,11.8,0.7c8.2,0.3,17,0.5,25.7,0.6c4.4,0.1,8.8,0.1,13.1,0.2
		c4.3,0,8.5,0.1,12.6,0c4.1-0.1,8-0.4,11.7-0.8c3.7-0.5,7.2-1.1,10.4-1.7c6.4-1.4,11.6-3,15.2-4.3c1.8-0.7,3.2-1.2,4.2-1.6
		c1-0.4,1.5-0.6,1.5-0.6s-0.5,0.2-1.4,0.7c-0.9,0.4-2.3,1.1-4.1,1.8c-3.5,1.5-8.7,3.5-15.1,5.1c-6.4,1.6-14.1,2.9-22.3,3.2
		c-4.1,0.2-8.4,0.2-12.7,0.2c-4.3,0-8.7-0.1-13.1-0.1c-4.4-0.1-8.8-0.2-13.1-0.3c-4.3-0.1-8.6-0.4-12.7-0.6c-4.1-0.3-8.1-0.6-11.8-1
		c-3.8-0.4-7.3-0.8-10.6-1.3c-1.6-0.3-3.2-0.5-4.7-0.7c-1.5-0.3-2.9-0.5-4.2-0.8c-2.6-0.5-4.9-1-6.8-1.5c-1.9-0.5-3.3-1.1-4.1-1.7
		c-0.4-0.3-0.7-0.5-0.9-0.7C6531.6-235.6,6531.5-235.7,6531.5-235.7z"/>
</g>
<linearGradient id="SVGID_1_" gradientUnits="userSpaceOnUse" x1="6498.813" y1="-446.2358" x2="6704.6909" y2="-446.2358">
	<stop  offset="1.785714e-02" style="stop-color:#801FE3"/>
	<stop  offset="1" style="stop-color:#B7A7FF"/>
</linearGradient>
<path class="st2" d="M6498.8-539.9c1.4,24.4,2.7,48.8,4.1,73.2c0.4,7.9,0.9,15.9,2.2,23.7c1.8,11.1,5.4,21.8,8.9,32.5
	c3,9.1,6,18.2,11.1,26.3c17.8,28.1,51.5,32.7,81.9,31.3c10.6-0.5,21.3-1.5,31.5-4.7c66.9-21.3,65.2-117,66.1-172.7
	c0-2.6,0.1-5.1,0.1-7.7C6636-535.8,6567.2-534,6498.8-539.9z"/>
<g>
	<path d="M6493.7-559.6c0,0,0.6,8.1,1.5,22.2c0.5,7.1,1,15.6,1.7,25.5c0.6,9.8,1.4,20.9,2.1,33.1c0.4,6.1,0.7,12.4,1.3,18.9
		c0.5,6.5,1.4,13.2,3,19.9c1.6,6.7,3.7,13.5,6,20.4c2.4,6.9,4.5,14,7.5,20.9c0.8,1.7,1.5,3.4,2.4,5.1c0.9,1.6,1.8,3.3,2.8,4.8
		c1.1,1.6,2.2,3.1,3.4,4.7c1.2,1.4,2.5,2.8,3.7,4.3c5.3,5.5,11.7,10,18.8,13.2c7.1,3.3,14.8,5.4,22.6,6.6c7.9,1.3,15.9,1.7,23.9,1.7
		c8-0.1,16.1-0.4,24-1.5c3.9-0.5,7.9-1.2,11.7-2.2c1-0.3,1.9-0.5,2.8-0.8l0.7-0.2c0.1,0,0,0,0.1,0l0.2-0.1l0.4-0.1l1.4-0.5l2.8-1
		c0.5-0.2,0.9-0.3,1.4-0.5l1.3-0.6c7.1-3.1,13.7-7.4,19.4-12.5c5.7-5.1,10.5-11.1,14.4-17.5c4-6.3,7.1-13.1,9.7-19.8
		c2.6-6.8,4.6-13.6,6.3-20.3c3.2-13.5,5-26.5,6.2-38.5c1.1-12.1,1.7-23.2,2-33c0.3-9.9,0.5-18.4,0.7-25.5
		c0.2-14.2,0.4-22.2,0.4-22.2s0,2,0.1,5.8c0,3.8,0.1,9.4,0.2,16.4c0,7.1,0,15.7-0.2,25.5c-0.1,9.9-0.5,21-1.5,33.1
		c-1,12.1-2.6,25.2-5.7,38.9c-1.6,6.8-3.6,13.7-6.1,20.6c-2.5,6.9-5.7,13.8-9.8,20.3c-4,6.5-9,12.7-14.8,18.1
		c-5.9,5.4-12.7,9.8-20.2,13.1l-1.4,0.6c-0.5,0.2-0.9,0.4-1.4,0.5l-2.8,1l-1.4,0.5l-0.4,0.1l-0.2,0.1l-0.2,0.1l-0.7,0.2
		c-1,0.3-2,0.6-2.9,0.8c-3.9,1-8,1.8-12,2.4c-8.1,1.1-16.2,1.5-24.4,1.6c-8.2,0-16.3-0.5-24.4-1.8c-8-1.3-16-3.5-23.3-7
		c-7.4-3.4-14.1-8.1-19.6-13.9c-1.3-1.5-2.6-3.1-3.9-4.6c-1.1-1.6-2.2-3.2-3.3-4.7c-2.2-3.4-3.9-6.8-5.4-10.4
		c-3-7.1-5.2-14.2-7.5-21.2c-2.2-7-4.3-13.9-5.8-20.7c-1.6-6.9-2.4-13.6-2.8-20.2c-0.5-6.6-0.7-12.9-1-18.9
		c-0.6-12.1-1.1-23.2-1.6-33.1c-0.5-9.9-0.8-18.4-1.2-25.5C6494-551.6,6493.7-559.6,6493.7-559.6z"/>
</g>
<g>
	<path d="M6494.1-544.2c0,0,0.8,0,2.4,0.1c1.6,0.1,3.8,0.2,6.7,0.3c2.9,0.2,6.4,0.3,10.5,0.5c4,0.2,8.6,0.3,13.6,0.5
		c5,0.2,10.4,0.3,16.1,0.5c5.7,0.2,11.7,0.2,17.9,0.4c6.2,0.1,12.6,0.1,19.2,0.2c6.5,0.1,13.2,0,19.8,0.1c6.6,0,13.3,0,19.8-0.1
		c6.5-0.1,13-0.1,19.2-0.2c12.5-0.1,24.1-0.2,34-0.3c10-0.1,18.3-0.1,24.1-0.1c2.9,0,5.2,0,6.7,0c1.6,0,2.4,0,2.4,0
		s-0.8,0.1-2.4,0.2c-1.6,0.1-3.8,0.2-6.7,0.4c-5.8,0.3-14.1,0.8-24.1,1.3c-10,0.5-21.6,0.9-34,1.3c-6.2,0.1-12.7,0.4-19.2,0.4
		c-6.5,0.1-13.2,0.1-19.8,0.2c-6.6,0-13.3,0-19.8-0.2c-6.5-0.1-13-0.3-19.2-0.4c-6.2-0.2-12.3-0.4-18-0.8c-2.9-0.2-5.6-0.3-8.3-0.5
		c-2.7-0.2-5.3-0.4-7.8-0.5c-2.5-0.2-4.9-0.3-7.1-0.5c-2.3-0.2-4.4-0.4-6.4-0.6c-4-0.4-7.6-0.7-10.4-1c-2.9-0.3-5.2-0.6-6.7-0.7
		C6494.9-544.1,6494.1-544.2,6494.1-544.2z"/>
</g>
<g>
	<linearGradient id="SVGID_2_" gradientUnits="userSpaceOnUse" x1="206.1294" y1="543.0108" x2="488.5558" y2="543.0108">
		<stop  offset="0" style="stop-color:#A3FF7F"/>
		<stop  offset="0.9981" style="stop-color:#EBFFDD"/>
	</linearGradient>
	<path class="st3" d="M484.8,398.8c0.2-1.1,0.3-2.3,0.5-3.4c-1.4,0.2-2.8,0.3-4.3,0.4c-88.3,3.6-176.9,3.9-265.3,1
		c-0.4,0-0.7,0-1.1,0c0.7,3.3,1.1,6.5,1.1,9.9c0,3.6-4.4,6.8-6.4,10.3c-6.3,11.3-2.2,23.4,0.9,35.1c19.1,71.2,20.2,145,28.9,216.8
		c0.5,4.1,1.1,8.5,5.3,12c3.4,2.9,8.9,4.7,14.5,6.1c24.9,6,51.9,3,77.9,2.3c32.7-0.8,65.3-1.7,98-2.5c7.1-0.2,14.9-0.5,20.1-3.2
		c2.7-1.4,4.4-3.2,6-5.1c16-17.8,9.8-44.6,11.4-64.4c1.9-23.1,2.5-46.2,4.4-69.3c1.7-20.9-3.6-41.5,0.7-62.6
		c3.1-14.8,8.9-29.5,10.8-44.4C490,424.3,482.9,411.8,484.8,398.8z"/>
	<path class="st1" d="M195.5,369.4c2,11.5,9.9,37.2,9.1,39.2c-0.6,1.7-2.4,3.2-3.7,4.8c-5.8,7.1-1.4,18.3-0.9,25.9
		c0.6,10.8,10.4,51.8,11.2,62.5c5.3,68.4,12.4,106,13.5,174.6c0.1,5.1,0.4,10.8,6.4,14.6c3.6,2.3,8.7,3.7,13.8,4.7
		c13.9,2.9,28.7,4.4,43.5,4.2c40.2-0.4,79.2-0.8,119.4-1.5c18.7-0.3,37.3-0.7,56-1c8.8-0.2,12.5-2.3,16.1-6.8
		c3.6-4.5,7.9-116.8,9.2-133.4c3.3-41.7-1.6-71,11.8-112.2c1.3-3.9,4.1-13.1,3.3-25.7c-0.5-8.6-7.9-24.2-7.5-27.5
		c1.2-10.5,2.4-14.9,3.5-25.4C486.4,365.9,270.2,363.9,195.5,369.4z"/>
	<g>
		<g>
			<path d="M375.2,452.9c0,0,1-0.7,2.7-1.8c1.7-1.1,4.2-2.8,7.2-4.7c3-1.9,6.5-4.1,10.3-6.5c1.9-1.2,3.9-2.4,5.9-3.6
				c2-1.2,4-2.4,6.1-3.6c2.1-1.2,4.1-2.4,6.1-3.6c2-1.2,4-2.3,6-3.4c3.9-2.2,7.5-4.2,10.6-5.9c3.1-1.7,5.8-3.1,7.6-4
				c1.8-1,2.9-1.5,2.9-1.5s-1,0.7-2.7,1.8c-1.7,1.1-4.2,2.8-7.2,4.7c-3,1.9-6.5,4.1-10.3,6.5c-1.9,1.2-3.9,2.4-5.9,3.6
				c-2,1.2-4,2.4-6.1,3.6c-2.1,1.2-4.1,2.4-6.1,3.6c-2,1.2-4,2.3-6,3.4c-3.9,2.2-7.5,4.2-10.6,5.9c-3.1,1.7-5.8,3.1-7.6,4.1
				C376.3,452.3,375.2,452.9,375.2,452.9z"/>
		</g>
		<g>
			<path d="M386,461.5c0,0,0.9-0.7,2.5-1.9c1.6-1.2,3.9-2.9,6.8-4.8c2.8-2,6.2-4.2,9.8-6.5c1.8-1.1,3.7-2.4,5.6-3.5
				c1.9-1.2,3.9-2.4,5.9-3.6c2-1.2,4-2.3,5.9-3.5c1.9-1.1,3.9-2.2,5.8-3.3c3.8-2.1,7.3-4,10.4-5.5c3.1-1.6,5.7-2.8,7.5-3.7
				c1.8-0.9,2.9-1.3,2.9-1.3s-1,0.6-2.7,1.7c-1.7,1.1-4.2,2.6-7.1,4.4c-2.9,1.8-6.4,3.8-10.1,6.1c-3.7,2.2-7.6,4.6-11.6,6.9
				c-3.9,2.3-7.9,4.7-11.6,6.9c-3.7,2.2-7.2,4.2-10.1,6c-3,1.7-5.5,3.2-7.2,4.2C387,460.9,386,461.5,386,461.5z"/>
		</g>
		<g>
			<path d="M396.6,469.3c0,0,0.8-0.7,2.3-2c0.7-0.6,1.7-1.4,2.7-2.2c1-0.9,2.2-1.8,3.5-2.8c1.3-1,2.7-2.1,4.3-3.2
				c1.5-1.1,3.2-2.3,4.9-3.5c1.7-1.2,3.5-2.4,5.3-3.6c1.8-1.2,3.7-2.4,5.6-3.6c1.9-1.2,3.8-2.3,5.7-3.4c1.9-1.1,3.8-2.1,5.6-3.2
				c1.8-1,3.6-2,5.3-2.8c1.7-0.9,3.3-1.7,4.8-2.4c1.5-0.7,2.9-1.4,4.1-1.9c1.2-0.6,2.3-1,3.2-1.4c1.8-0.8,2.8-1.2,2.8-1.2
				s-0.9,0.6-2.6,1.6c-1.7,1-4.1,2.4-6.9,4.1c-2.9,1.7-6.2,3.6-9.7,5.8c-1.8,1.1-3.6,2.2-5.5,3.3c-1.9,1.1-3.7,2.3-5.6,3.4
				c-1.9,1.2-3.8,2.3-5.6,3.5c-1.8,1.2-3.6,2.3-5.4,3.4c-3.5,2.2-6.7,4.4-9.5,6.2C400.3,466.8,396.6,469.3,396.6,469.3z"/>
		</g>
		<g>
			<path d="M409.1,476.5c0,0,0.8-0.7,2.2-1.9c0.7-0.6,1.6-1.3,2.6-2.1c1-0.8,2.1-1.7,3.4-2.7c1.3-1,2.6-2,4.1-3.1
				c1.5-1.1,3-2.2,4.7-3.3c1.6-1.1,3.3-2.3,5.1-3.4c1.7-1.1,3.5-2.3,5.3-3.4c1.8-1.1,3.6-2.2,5.4-3.3c1.8-1.1,3.5-2.1,5.2-3.1
				c3.4-2,6.6-3.8,9.4-5.3c2.8-1.5,5.1-2.7,6.8-3.6c1.6-0.8,2.6-1.3,2.6-1.3s-0.9,0.6-2.4,1.6c-1.5,1-3.7,2.5-6.4,4.2
				c-2.6,1.7-5.8,3.7-9.1,5.8c-3.3,2.1-6.9,4.3-10.5,6.6c-3.6,2.2-7.1,4.5-10.4,6.6c-3.3,2.1-6.4,4.1-9.1,5.8
				C412.7,474.2,409.1,476.5,409.1,476.5z"/>
		</g>
		<g>
			<path d="M424.5,483.9c0,0,2.7-2.6,7.1-6.1c2.1-1.8,4.7-3.9,7.4-6c1.4-1.1,2.8-2.2,4.3-3.3c1.5-1.1,3-2.2,4.5-3.3
				c1.5-1.1,3-2.2,4.5-3.3c1.5-1.1,3-2.1,4.4-3.1c2.9-2,5.6-3.8,7.9-5.3c4.7-3.1,7.9-4.9,7.9-4.9s-2.9,2.4-7.3,5.9
				c-2.2,1.7-4.8,3.7-7.6,5.8c-1.4,1.1-2.8,2.2-4.3,3.2c-1.5,1.1-3,2.2-4.5,3.3c-1.5,1.1-3,2.2-4.5,3.3c-1.5,1.1-3,2.1-4.4,3.2
				c-2.8,2-5.5,3.9-7.8,5.5C427.6,481.9,424.5,483.9,424.5,483.9z"/>
		</g>
		<g>
			<path d="M434.5,490.8c0,0,2.2-2.3,5.7-5.6c1.8-1.6,3.8-3.5,6.1-5.4c1.2-1,2.3-2,3.6-2.9c1.2-1,2.5-2,3.7-3c1.3-1,2.6-1.9,3.8-2.9
				c1.2-1,2.5-1.8,3.7-2.7c2.4-1.7,4.8-3.3,6.8-4.6c4-2.6,6.8-4.1,6.8-4.1s-0.6,0.5-1.7,1.4c-1.1,0.9-2.6,2.2-4.5,3.6
				c-1.9,1.5-4.1,3.2-6.4,5c-2.4,1.8-4.9,3.8-7.4,5.7c-2.5,1.9-5,3.9-7.4,5.7c-2.4,1.8-4.6,3.5-6.5,4.9c-1.9,1.4-3.5,2.6-4.6,3.4
				C435.1,490.3,434.5,490.8,434.5,490.8z"/>
		</g>
		<g>
			<path d="M457.8,411.4c0,0,1.9,1.2,4.5,3.1c1.3,1,2.8,2.1,4.4,3.4c0.8,0.6,1.6,1.3,2.4,2c0.8,0.7,1.7,1.4,2.5,2.1
				c0.8,0.7,1.6,1.4,2.4,2.2c0.8,0.7,1.6,1.4,2.3,2.1c1.5,1.4,2.9,2.7,4,3.9c2.3,2.3,3.7,4,3.7,4s-1.9-1.2-4.5-3.1
				c-1.3-1-2.8-2.1-4.4-3.4c-0.8-0.6-1.6-1.3-2.4-2c-0.8-0.7-1.6-1.4-2.5-2.1c-0.8-0.7-1.6-1.4-2.4-2.2c-0.8-0.7-1.6-1.4-2.3-2.1
				c-1.5-1.4-2.9-2.7-4-3.9C459.2,413,457.8,411.4,457.8,411.4z"/>
		</g>
		<g>
			<path d="M468.4,407.2c0,0,1.3,0.5,3.1,1.5c0.9,0.5,1.9,1.1,3,1.8c1.1,0.7,2.2,1.4,3.3,2.2c1.1,0.8,2.2,1.6,3.1,2.4
				c1,0.8,1.9,1.6,2.6,2.3c1.5,1.4,2.4,2.4,2.4,2.4s-1.3-0.5-3.1-1.5c-0.9-0.5-1.9-1.1-3-1.8c-1.1-0.7-2.2-1.4-3.3-2.2
				c-1.1-0.8-2.2-1.6-3.1-2.4c-1-0.8-1.9-1.6-2.6-2.3C469.3,408.2,468.4,407.2,468.4,407.2z"/>
		</g>
		<g>
			<path d="M393,405.8c0,0,1.3,0.5,3.1,1.5c0.9,0.5,1.9,1.1,3,1.7c1.1,0.7,2.2,1.4,3.3,2.2c1.1,0.8,2.2,1.6,3.2,2.4
				c1,0.8,1.9,1.5,2.6,2.2c1.5,1.4,2.4,2.4,2.4,2.4s-1.3-0.5-3.1-1.5c-0.9-0.5-1.9-1.1-3-1.7c-1.1-0.7-2.2-1.4-3.3-2.2
				c-1.1-0.8-2.2-1.6-3.2-2.4c-1-0.8-1.9-1.5-2.6-2.2C394,406.8,393,405.8,393,405.8z"/>
		</g>
		<g>
			<path d="M365.5,407.1c0,0,2.2,0.7,5.4,2.1c1.6,0.7,3.4,1.5,5.4,2.5c1,0.5,2,1,3,1.5c1,0.5,2,1.1,3,1.6c1,0.6,2,1.1,3,1.7
				c1,0.6,1.9,1.2,2.9,1.7c1.8,1.1,3.5,2.2,5,3.2c2.9,1.9,4.7,3.4,4.7,3.4s-2.1-0.9-5.2-2.4c-1.6-0.8-3.3-1.7-5.3-2.7
				c-0.9-0.5-1.9-1-2.9-1.6c-1-0.5-2-1.1-3-1.6c-2-1.1-4-2.2-5.9-3.3c-1.9-1.1-3.6-2.1-5.1-3C367.4,408.4,365.5,407.1,365.5,407.1z"
				/>
		</g>
		<g>
			<path d="M319.5,410.8c0,0,3.6,1.4,8.9,3.7c2.6,1.2,5.7,2.6,9,4.1c1.6,0.8,3.3,1.6,5,2.4c1.7,0.8,3.4,1.7,5.1,2.6
				c1.7,0.9,3.4,1.8,5.1,2.6c1.7,0.9,3.3,1.8,4.9,2.6c3.2,1.7,6.1,3.4,8.6,4.8c5,2.9,8.2,5,8.2,5s-3.6-1.5-8.8-4
				c-2.6-1.2-5.6-2.7-8.9-4.3c-1.6-0.8-3.3-1.6-5-2.5c-1.7-0.9-3.4-1.7-5.1-2.6c-1.7-0.9-3.4-1.8-5.1-2.6c-1.7-0.9-3.3-1.7-4.9-2.6
				c-3.2-1.7-6.2-3.3-8.7-4.7C322.8,412.8,319.5,410.8,319.5,410.8z"/>
		</g>
		<g>
			<path d="M292.2,409.6c0,0-0.3,0.3-0.1,0.8c0.2,0.5,0.8,1.1,1.7,1.8c0.9,0.7,1.9,1.5,3.1,2.4c0.6,0.4,1.3,0.9,2,1.4
				c0.7,0.5,1.4,1,2.2,1.5c0.8,0.5,1.6,1,2.4,1.6c0.9,0.5,1.7,1.1,2.7,1.6c1.8,1.1,3.8,2.2,5.8,3.4c2,1.1,4.2,2.3,6.4,3.4
				c2.2,1.1,4.4,2.2,6.7,3.3c2.2,1.1,4.5,2.2,6.7,3.2c2.2,1,4.4,2,6.6,3c4.3,1.9,8.3,3.7,11.7,5.2c3.4,1.5,6.3,2.8,8.3,3.7
				c2,0.9,3.1,1.4,3.1,1.4s-1.2-0.4-3.3-1.1c-2.1-0.7-5-1.7-8.6-3c-3.5-1.3-7.6-2.9-12-4.6c-2.2-0.9-4.4-1.8-6.7-2.8
				c-2.3-1-4.5-2.1-6.8-3.1c-2.2-1.1-4.5-2.2-6.7-3.4c-2.2-1.1-4.3-2.4-6.3-3.6c-2-1.2-4-2.4-5.7-3.6c-0.9-0.6-1.8-1.2-2.6-1.8
				c-0.8-0.6-1.6-1.2-2.4-1.8c-1.5-1.1-2.8-2.3-4-3.2c-1.1-1-2.1-1.9-2.9-2.7c-0.8-0.7-1.4-1.4-1.6-2c-0.1-0.3,0-0.5,0.1-0.7
				C292.1,409.6,292.2,409.6,292.2,409.6z"/>
		</g>
		<g>
			<path d="M282,491.9c0,0,0.9-0.5,2.5-1.4c1.6-0.9,3.8-2.2,6.6-3.8c1.3-0.8,2.8-1.7,4.3-2.6c1.5-0.9,3.1-1.9,4.8-2.9
				c1.7-1,3.3-2.1,5.1-3.2c1.7-1.1,3.4-2.3,5.2-3.4c1.7-1.2,3.4-2.4,5.1-3.6c1.6-1.2,3.3-2.4,4.8-3.6c3.1-2.3,5.9-4.7,8.6-6.4
				c2.6-1.8,5-3,6.6-3.8c0.8-0.4,1.5-0.6,2-0.8c0.5-0.2,0.7-0.3,0.7-0.3s-0.9,0.5-2.5,1.4c-1.6,0.9-3.7,2.4-6.1,4.3
				c-2.4,1.9-5.1,4.4-8.2,6.9c-1.5,1.2-3.1,2.5-4.8,3.7c-1.7,1.2-3.4,2.5-5.1,3.6c-3.5,2.3-7,4.6-10.5,6.5c-1.7,1-3.4,1.9-5,2.7
				c-1.6,0.8-3.1,1.6-4.5,2.3c-2.8,1.4-5.2,2.4-6.9,3.1C283,491.5,282,491.9,282,491.9z"/>
		</g>
		<g>
			<path d="M268.8,484.5c0,0,0.8-0.5,2.3-1.5c1.5-0.9,3.6-2.3,6.1-3.9c2.5-1.6,5.5-3.4,8.6-5.4c3.2-2,6.5-4,9.9-6.1
				c6.7-4.2,13.5-8.3,18.6-11.4c2.5-1.5,4.7-2.8,6.2-3.7c1.5-0.9,2.4-1.4,2.4-1.4s-3.1,2.5-7.9,6.1c-2.4,1.8-5.2,3.8-8.3,5.8
				c-1.6,1-3.1,2.1-4.8,3.2c-1.7,1-3.3,2.1-5,3.2c-1.7,1-3.4,2.1-5.1,3.1c-1.7,1-3.4,1.9-5,2.9c-3.2,1.8-6.3,3.5-9,4.8
				C272.4,482.8,268.8,484.5,268.8,484.5z"/>
		</g>
		<g>
			<path d="M254.8,476.5c0,0,0.9-0.6,2.4-1.5c1.5-0.9,3.7-2.3,6.4-3.8c2.6-1.6,5.7-3.4,9-5.4c3.3-2,6.8-4.1,10.3-6.3
				c1.7-1.1,3.5-2.2,5.2-3.2c1.7-1.1,3.4-2.1,5-3.2c3.2-2.1,6.3-4,8.8-5.7c2.6-1.7,4.7-3.1,6.2-4.1c1.5-1,2.4-1.5,2.4-1.5
				s-0.8,0.7-2.1,1.9c-0.7,0.6-1.5,1.3-2.5,2.1c-1,0.8-2.1,1.7-3.3,2.6c-1.2,1-2.6,2-4,3c-1.4,1-2.9,2.1-4.5,3.2
				c-1.6,1.1-3.2,2.2-4.9,3.3c-1.7,1.1-3.4,2.2-5.2,3.3c-1.8,1.1-3.5,2.1-5.3,3.2c-1.7,1-3.5,2-5.2,3c-3.4,1.9-6.6,3.5-9.4,4.9
				c-2.8,1.4-5.1,2.4-6.8,3.2C255.7,476.1,254.8,476.5,254.8,476.5z"/>
		</g>
		<g>
			<path d="M242.9,472.6c0,0,0.2-0.2,0.5-0.6c0.3-0.4,0.8-0.9,1.5-1.6c1.3-1.3,3.3-3.2,5.8-5.2c2.5-2,5.6-4.2,8.9-6.5
				c1.7-1.1,3.4-2.3,5.2-3.4c1.8-1.1,3.6-2.3,5.4-3.4c1.8-1.1,3.6-2.3,5.4-3.4c1.8-1.1,3.6-2.2,5.3-3.2c3.4-2.1,6.7-4,9.5-5.6
				c2.8-1.6,5.1-2.9,6.8-3.8c1.6-0.9,2.6-1.4,2.6-1.4s-0.9,0.6-2.4,1.7c-1.5,1.1-3.7,2.7-6.4,4.5c-2.7,1.8-5.8,3.9-9.1,6.1
				c-1.7,1.1-3.4,2.3-5.2,3.4c-1.8,1.1-3.6,2.3-5.4,3.4c-3.6,2.3-7.3,4.5-10.7,6.6c-3.4,2.1-6.6,4.1-9.2,5.9
				c-2.6,1.8-4.8,3.4-6.3,4.6c-0.7,0.6-1.3,1-1.7,1.4C243.2,472.5,242.9,472.6,242.9,472.6z"/>
		</g>
		<g>
			<path d="M235.4,460c0,0,0.8-0.5,2.1-1.5c1.3-0.9,3.3-2.3,5.6-3.8c2.3-1.6,5-3.4,8-5.3c2.9-1.9,6.1-3.9,9.2-6c3.1-2,6.3-4,9.2-5.9
				c2.9-1.9,5.7-3.6,8.1-5.1c2.4-1.5,4.4-2.7,5.8-3.5c1.4-0.8,2.2-1.3,2.2-1.3s-2.8,2.4-7.3,5.8c-2.2,1.7-4.9,3.6-7.8,5.6
				c-1.4,1-2.9,2-4.5,3.1c-1.5,1-3.1,2-4.7,3.1c-1.6,1-3.2,2-4.7,3c-1.6,1-3.1,1.9-4.6,2.8c-3,1.8-5.9,3.4-8.3,4.8
				C238.8,458.4,235.4,460,235.4,460z"/>
		</g>
		<g>
			<path d="M275.1,419.1c0,0-2.9,2.2-7.4,5.4c-2.2,1.6-4.9,3.4-7.8,5.3c-1.4,0.9-2.9,1.9-4.4,2.9c-1.5,1-3.1,2-4.6,2.9
				c-1.6,1-3.1,1.9-4.6,2.9c-1.5,1-3.1,1.9-4.5,2.8c-2.9,1.8-5.7,3.4-8.1,4.8c-2.4,1.4-4.4,2.5-5.8,3.3c-0.7,0.4-1.2,0.7-1.6,0.9
				c-0.4,0.2-0.6,0.3-0.6,0.3s0.2-0.1,0.5-0.4c0.3-0.3,0.8-0.7,1.4-1.2c1.3-1,3.1-2.4,5.4-3.9c2.2-1.6,4.9-3.4,7.7-5.3
				c1.4-0.9,2.9-1.9,4.4-2.9c1.5-1,3.1-2,4.6-2.9c1.6-1,3.1-1.9,4.6-2.9c1.5-1,3.1-1.9,4.5-2.7c2.9-1.8,5.7-3.4,8.1-4.7
				C271.8,420.8,275.1,419.1,275.1,419.1z"/>
		</g>
		<g>
			<path d="M230.1,400.5c0,0,0.5,0.2,1.4,0.7c0.9,0.5,2.1,1.1,3.6,1.9c1.5,0.8,3.2,1.8,5.1,2.8c0.9,0.5,1.9,1.1,2.8,1.6
				c1,0.6,1.9,1.1,2.9,1.7c1,0.6,1.9,1.2,2.9,1.8c0.9,0.6,1.8,1.2,2.7,1.8c1.8,1.2,3.4,2.3,4.7,3.4c2.7,2,4.4,3.6,4.4,3.6
				s-0.5-0.2-1.4-0.7c-0.9-0.5-2.1-1.1-3.6-1.9c-1.5-0.8-3.2-1.8-5-2.8c-0.9-0.5-1.9-1.1-2.8-1.6c-1-0.6-1.9-1.2-2.9-1.7
				c-1-0.6-1.9-1.2-2.9-1.8c-0.9-0.6-1.8-1.2-2.7-1.8c-1.8-1.2-3.4-2.3-4.7-3.3C231.8,402.1,230.1,400.5,230.1,400.5z"/>
		</g>
		<g>
			<path d="M228,410.3c0,0,0.4,0.1,1.2,0.3c0.4,0.1,0.8,0.2,1.4,0.4c0.5,0.2,1.1,0.4,1.7,0.6c0.6,0.2,1.3,0.5,2,0.8
				c0.7,0.3,1.5,0.6,2.2,1c1.5,0.7,3.1,1.7,4.6,2.7c1.5,1,3,2.1,4.2,3.2c0.7,0.5,1.2,1.1,1.8,1.7c0.5,0.6,1,1.1,1.5,1.6
				c0.9,1,1.5,2,2,2.6c0.4,0.7,0.7,1.1,0.7,1.1s-0.4-0.3-1-0.8c-0.3-0.3-0.7-0.5-1.1-0.9c-0.4-0.4-0.9-0.7-1.4-1.2
				c-1-0.8-2.2-1.8-3.6-2.7c-0.6-0.5-1.4-1-2.1-1.5c-0.7-0.5-1.4-1-2.2-1.5c-0.7-0.5-1.5-1-2.2-1.4c-0.7-0.4-1.4-0.9-2.2-1.4
				c-1.4-0.9-2.7-1.7-3.9-2.4c-1.1-0.7-2.1-1.3-2.8-1.7C228.4,410.6,228,410.3,228,410.3z"/>
		</g>
		<g>
			<path d="M223.2,415.1c0,0,1.4,0.7,3.4,2c1,0.6,2.1,1.4,3.3,2.2c1.2,0.8,2.4,1.8,3.7,2.7c1.2,1,2.4,2,3.5,2.9
				c1.1,1,2.1,1.9,2.9,2.7c1.7,1.6,2.7,2.9,2.7,2.9s-1.4-0.7-3.4-2c-1-0.6-2.1-1.4-3.3-2.2c-1.2-0.8-2.4-1.8-3.7-2.7
				c-1.2-1-2.4-2-3.5-2.9c-1.1-1-2.1-1.9-2.9-2.7C224.2,416.3,223.2,415.1,223.2,415.1z"/>
		</g>
		<g>
			<path d="M217.9,431.9c0,0,0.8,0.3,1.9,1c1.1,0.6,2.5,1.5,3.8,2.5c1.3,1,2.5,2.1,3.4,3c0.9,0.9,1.4,1.6,1.4,1.6s-0.9-0.2-2.1-0.7
				c-1.2-0.5-2.7-1.3-4-2.4c-1.3-1-2.5-2.2-3.3-3.3C218.2,432.7,217.9,431.9,217.9,431.9z"/>
		</g>
		<g>
			<path d="M230,474.9c0,0,2.7,1.6,6.5,4.3c1,0.6,2,1.3,3.2,2c1.1,0.7,2.3,1.4,3.6,2.2c2.5,1.5,5.1,3.1,7.8,4.7
				c1.3,0.8,2.6,1.6,3.9,2.5c1.3,0.8,2.6,1.6,3.8,2.4c2.5,1.6,4.7,3.1,6.6,4.4c3.9,2.6,6.3,4.6,6.3,4.6s-2.8-1.3-6.9-3.6
				c-2.1-1.1-4.4-2.4-7-3.9c-1.3-0.7-2.6-1.5-3.9-2.3c-1.3-0.8-2.6-1.6-4-2.4c-1.3-0.8-2.6-1.7-3.9-2.5c-1.3-0.8-2.6-1.7-3.8-2.5
				c-1.2-0.8-2.4-1.6-3.5-2.4c-1.1-0.8-2.1-1.6-3-2.3C232.3,477,230,474.9,230,474.9z"/>
		</g>
		<g>
			<path d="M230.8,487.4c0,0,1.9,0.9,4.7,2.3c1.4,0.7,3,1.6,4.7,2.6c0.9,0.5,1.7,1,2.6,1.5c0.9,0.5,1.8,1,2.7,1.6
				c0.9,0.5,1.8,1.1,2.7,1.6c0.9,0.5,1.7,1.1,2.6,1.6c1.7,1,3.2,2,4.5,2.9c2.6,1.7,4.3,3,4.3,3s-2-0.7-4.9-2
				c-1.4-0.6-3.1-1.4-4.8-2.4c-0.9-0.5-1.8-0.9-2.7-1.4c-0.9-0.5-1.8-1-2.7-1.5c-0.9-0.5-1.8-1.1-2.7-1.6c-0.9-0.5-1.7-1.1-2.6-1.6
				c-1.6-1.1-3.2-2.1-4.4-3.1C232.4,488.8,230.8,487.4,230.8,487.4z"/>
		</g>
		<g>
			<path d="M235.2,498.7c0,0,1.3,0.4,3,1.3c0.9,0.4,1.9,1,2.9,1.6c1,0.6,2.1,1.3,3.2,2c1.1,0.7,2.1,1.5,3.1,2.2
				c1,0.7,1.8,1.4,2.6,2.1c1.5,1.3,2.4,2.3,2.4,2.3s-1.3-0.4-3-1.3c-0.9-0.4-1.9-1-2.9-1.6c-1-0.6-2.1-1.3-3.2-2
				c-1.1-0.7-2.1-1.5-3.1-2.2c-1-0.7-1.8-1.4-2.6-2.1C236.1,499.7,235.2,498.7,235.2,498.7z"/>
		</g>
		<g>
			<path d="M237.5,509c0,0,0.6,0,1.5,0.3c0.8,0.2,1.8,0.7,2.7,1.3c0.9,0.6,1.7,1.4,2.3,2.1c0.5,0.7,0.8,1.2,0.8,1.2s-0.6,0-1.5-0.3
				c-0.8-0.2-1.8-0.7-2.7-1.3c-0.9-0.6-1.7-1.4-2.3-2.1C237.7,509.6,237.5,509,237.5,509z"/>
		</g>
		<g>
			<path d="M241.1,530.3c0,0,1.9-1.9,5-4.5c1.5-1.3,3.4-2.8,5.3-4.3c1-0.8,2-1.6,3.1-2.3c1.1-0.8,2.2-1.5,3.3-2.3
				c1.1-0.7,2.2-1.5,3.3-2.2c1.1-0.7,2.2-1.4,3.3-2.1c2.1-1.3,4.2-2.5,5.9-3.5c3.5-1.9,6-3.1,6-3.1s-2.1,1.7-5.3,4
				c-1.6,1.2-3.5,2.5-5.6,4c-2.1,1.4-4.2,2.9-6.4,4.4c-2.2,1.5-4.4,3-6.5,4.4c-2.1,1.4-4,2.7-5.7,3.8
				C243.4,528.9,241.1,530.3,241.1,530.3z"/>
		</g>
		<g>
			<path d="M241.1,541.8c0,0,2.4-2.1,6.2-5.1c1.9-1.5,4.1-3.2,6.5-5c1.2-0.9,2.4-1.8,3.7-2.7c1.3-0.9,2.6-1.9,3.9-2.8
				c1.3-0.9,2.6-1.8,3.9-2.7c1.3-0.9,2.6-1.8,3.8-2.6c2.5-1.7,4.8-3.2,6.9-4.5c1-0.6,1.9-1.2,2.8-1.7c0.9-0.5,1.6-0.9,2.3-1.1
				c0.7-0.3,1.2-0.4,1.6-0.4c0.4-0.1,0.6-0.1,0.6-0.1s-0.2,0.1-0.5,0.2c-0.3,0.1-0.8,0.4-1.5,0.7c-0.6,0.3-1.3,0.8-2.1,1.4
				c-0.8,0.6-1.6,1.3-2.6,2c-1.9,1.5-4.1,3.2-6.5,5c-1.2,0.9-2.4,1.8-3.7,2.7c-1.3,0.9-2.6,1.9-3.9,2.8c-1.3,0.9-2.6,1.8-3.9,2.7
				c-1.3,0.9-2.6,1.8-3.8,2.6c-2.5,1.7-4.8,3.2-6.9,4.5C243.9,540.3,241.1,541.8,241.1,541.8z"/>
		</g>
		<g>
			<path d="M241.1,554.3c0,0,3-2.6,7.6-6.2c2.3-1.8,5-3.9,7.9-6.2c1.5-1.1,3-2.3,4.5-3.4c1.5-1.1,3.1-2.3,4.7-3.5
				c1.6-1.1,3.2-2.3,4.7-3.4c1.6-1.1,3.1-2.2,4.6-3.3c3-2.1,5.8-4,8.3-5.7c4.9-3.3,8.2-5.3,8.2-5.3s-3,2.6-7.6,6.2
				c-2.3,1.8-5,3.9-7.9,6.2c-1.5,1.1-3,2.3-4.5,3.4c-1.5,1.1-3.1,2.3-4.7,3.5c-1.6,1.1-3.2,2.3-4.7,3.4c-1.6,1.1-3.1,2.2-4.6,3.3
				c-3,2.1-5.8,4-8.3,5.7C244.4,552.3,241.1,554.3,241.1,554.3z"/>
		</g>
		<g>
			<path d="M247.8,563.9c0,0,0.7-0.8,2.1-2.1c1.4-1.3,3.3-3.2,5.6-5.3c2.4-2.2,5.2-4.7,8.2-7.3c1.5-1.3,3.1-2.6,4.8-4
				c1.6-1.3,3.3-2.7,5-4c1.7-1.3,3.4-2.6,5.1-3.9c1.7-1.3,3.4-2.5,5-3.7c3.3-2.3,6.3-4.5,9-6.3c2.7-1.8,4.9-3.2,6.5-4.2
				c1.6-1,2.5-1.5,2.5-1.5s-0.8,0.7-2.3,1.9c-1.5,1.2-3.6,2.8-6.1,4.8c-5,3.9-11.8,9.2-18.5,14.5c-6.7,5.3-13.4,10.6-18.5,14.5
				c-2.5,2-4.6,3.6-6.1,4.8C248.7,563.3,247.8,563.9,247.8,563.9z"/>
		</g>
		<g>
			<path d="M260.6,568.7c0,0,2.9-2.7,7.5-6.6c2.3-1.9,5-4.1,8-6.4c1.5-1.1,3-2.3,4.6-3.5c1.6-1.2,3.2-2.3,4.8-3.5
				c1.6-1.1,3.3-2.3,4.9-3.4c1.6-1.1,3.2-2.2,4.8-3.2c3.1-2.1,6.1-3.9,8.6-5.5c5.1-3.1,8.6-5,8.6-5s-0.8,0.6-2.2,1.7
				c-1.4,1-3.4,2.5-5.8,4.3c-2.4,1.8-5.2,3.8-8.3,6c-3,2.2-6.3,4.5-9.5,6.8c-3.2,2.3-6.5,4.6-9.5,6.8c-3,2.2-5.9,4.2-8.3,5.9
				c-2.5,1.7-4.5,3.1-5.9,4.1C261.5,568.1,260.6,568.7,260.6,568.7z"/>
		</g>
		<g>
			<path d="M271.8,576.2c0,0,0.8-0.7,2.2-1.8c1.4-1.1,3.5-2.8,6-4.8c2.5-1.9,5.4-4.2,8.6-6.5c1.6-1.2,3.2-2.4,4.9-3.6
				c1.7-1.2,3.4-2.5,5.1-3.7c1.7-1.2,3.4-2.4,5.1-3.6c1.7-1.2,3.4-2.3,5-3.5c3.2-2.2,6.3-4.3,8.9-6c1.3-0.9,2.5-1.7,3.6-2.3
				c1.1-0.7,2.1-1.3,3-1.5c0.9-0.3,1.7-0.3,2.2-0.2c0.5,0.1,0.7,0.2,0.7,0.2s-0.3-0.1-0.8-0.1c-0.5,0-1.2,0.1-2,0.5
				c-0.8,0.3-1.7,1-2.7,1.8c-1,0.8-2.1,1.7-3.4,2.7c-2.5,1.9-5.4,4.2-8.6,6.5c-1.6,1.2-3.2,2.4-4.9,3.6c-1.7,1.2-3.4,2.5-5.1,3.7
				c-1.7,1.2-3.4,2.4-5.1,3.6c-1.7,1.2-3.4,2.3-5,3.5c-3.3,2.2-6.3,4.3-8.9,6c-2.6,1.7-4.9,3.1-6.4,4.1
				C272.7,575.6,271.8,576.2,271.8,576.2z"/>
		</g>
		<g>
			<path d="M283.2,583.9c0,0,0.8-0.8,2.3-2c0.7-0.6,1.6-1.4,2.7-2.3c1-0.9,2.2-1.9,3.5-2.9c1.3-1.1,2.7-2.2,4.2-3.3
				c1.5-1.2,3.1-2.4,4.8-3.6c1.7-1.2,3.4-2.5,5.3-3.7c1.8-1.2,3.7-2.5,5.5-3.7c1.9-1.2,3.8-2.4,5.6-3.6c1.9-1.2,3.7-2.2,5.5-3.3
				c1.8-1.1,3.6-2.1,5.2-3c1.7-0.9,3.3-1.8,4.8-2.6c1.5-0.8,2.8-1.5,4.1-2.1c1.2-0.6,2.3-1.1,3.2-1.5c1.8-0.8,2.8-1.3,2.8-1.3
				s-0.9,0.6-2.6,1.6c-1.7,1-4,2.5-6.8,4.3c-2.8,1.8-6.1,3.8-9.6,6c-3.5,2.2-7.3,4.6-11,7c-1.9,1.2-3.7,2.4-5.5,3.6
				c-1.8,1.2-3.6,2.4-5.3,3.6c-3.4,2.3-6.6,4.5-9.4,6.4C286.9,581.3,283.2,583.9,283.2,583.9z"/>
		</g>
		<g>
			<path d="M247.8,570.7c0,0,0.4,0.4,1.2,1.2c0.4,0.4,0.8,0.9,1.3,1.4c0.5,0.5,1.1,1.1,1.8,1.7c0.7,0.6,1.4,1.2,2.2,1.8
				c0.4,0.3,0.8,0.6,1.2,0.9c0.4,0.3,0.9,0.6,1.3,0.9c0.9,0.6,1.9,1.2,2.9,1.8c1,0.6,2,1.2,3.1,1.7c2.1,1.2,4.2,2.4,6,3.8
				c0.9,0.6,1.8,1.4,2.6,2c0.8,0.7,1.5,1.4,2.1,2c0.6,0.7,1.2,1.3,1.7,1.8c0.5,0.5,0.9,1.1,1.2,1.5c0.6,0.8,1,1.3,1,1.3
				s-0.5-0.4-1.3-1.1c-0.4-0.3-0.9-0.8-1.4-1.2c-0.6-0.5-1.2-1-1.9-1.5c-0.7-0.5-1.5-1.1-2.3-1.7c-0.8-0.6-1.7-1.2-2.7-1.8
				c-0.9-0.6-1.9-1.1-2.9-1.7c-1-0.6-2.1-1.1-3.1-1.7c-1-0.6-2.1-1.2-3.1-1.8c-0.5-0.3-1-0.6-1.5-1c-0.5-0.3-1-0.7-1.4-1
				c-0.4-0.4-0.9-0.7-1.3-1.1c-0.4-0.4-0.8-0.8-1.2-1.1c-0.8-0.7-1.4-1.5-2-2.2c-0.6-0.7-1.1-1.4-1.5-2c-0.5-0.6-0.8-1.1-1-1.6
				C248.2,571.2,247.8,570.7,247.8,570.7z"/>
		</g>
		<g>
			<path d="M244.7,582.4c0,0,1.8,1,4.3,2.7c1.3,0.8,2.7,1.9,4.2,3c0.8,0.6,1.5,1.1,2.3,1.7c0.8,0.6,1.6,1.2,2.4,1.8
				c0.8,0.6,1.6,1.2,2.4,1.8c0.8,0.6,1.6,1.2,2.3,1.8c1.5,1.2,2.9,2.3,4,3.2c2.3,1.9,3.8,3.4,3.8,3.4s-1.8-0.9-4.4-2.4
				c-1.3-0.8-2.8-1.7-4.4-2.7c-0.8-0.5-1.6-1-2.4-1.6c-0.8-0.6-1.6-1.2-2.4-1.8c-1.6-1.2-3.2-2.5-4.6-3.7c-1.4-1.2-2.7-2.4-3.8-3.5
				C246.1,583.9,244.7,582.4,244.7,582.4z"/>
		</g>
		<g>
			<path d="M245.6,595.4c0,0,1.4,0.6,3.3,1.7c1,0.5,2.1,1.2,3.2,2c1.2,0.8,2.4,1.6,3.5,2.5c1.2,0.9,2.3,1.8,3.4,2.7
				c1.1,0.9,2,1.7,2.8,2.5c1.6,1.5,2.6,2.6,2.6,2.6s-1.4-0.6-3.3-1.7c-1-0.5-2.1-1.2-3.2-2c-1.2-0.8-2.4-1.6-3.5-2.5
				c-1.2-0.9-2.3-1.8-3.4-2.7c-1.1-0.9-2-1.7-2.8-2.5C246.6,596.6,245.6,595.4,245.6,595.4z"/>
		</g>
		<g>
			<path d="M245.3,607.3c0,0,0.9,0.2,2,0.7c1.1,0.5,2.6,1.3,3.9,2.3c1.3,1,2.6,2,3.4,3c0.9,0.9,1.3,1.7,1.3,1.7s-0.9-0.2-2-0.7
				c-1.1-0.5-2.6-1.3-3.9-2.3c-1.3-1-2.6-2-3.4-3C245.8,608.1,245.3,607.3,245.3,607.3z"/>
		</g>
		<g>
			<path d="M291.8,499.1c0,0,1.2,0.6,3.2,1.6c2,1,5,2.4,8.5,4.2c3.5,1.8,7.6,3.9,11.9,6.2c2.2,1.2,4.4,2.3,6.7,3.6
				c2.3,1.2,4.6,2.5,6.9,3.7c2.3,1.3,4.6,2.5,6.8,3.8c2.3,1.2,4.5,2.5,6.6,3.7c2.1,1.2,4.2,2.4,6.1,3.5c1.9,1.1,3.8,2.2,5.5,3.2
				c1.7,1,3.2,2.1,4.4,3.2c0.6,0.5,1.2,1,1.7,1.5c0.5,0.5,0.9,1,1.3,1.4c0.4,0.4,0.8,0.6,1.3,0.6c0.4,0.1,0.8-0.1,0.8-0.4
				c0-0.3-0.3-0.4-0.4-0.4c-0.2,0-0.2,0-0.2,0c0,0,0.1,0,0.2-0.1c0.1,0,0.5,0,0.5,0.4c0,0.2-0.1,0.4-0.2,0.5
				c-0.2,0.1-0.4,0.1-0.6,0.1c-0.5,0-1-0.2-1.5-0.6c-0.5-0.4-0.9-0.9-1.4-1.3c-0.5-0.4-1.1-0.9-1.7-1.4c-1.3-0.9-2.8-1.8-4.5-2.7
				c-1.7-0.9-3.6-1.9-5.6-2.9c-2-1-4.1-2.1-6.3-3.3c-2.2-1.2-4.4-2.3-6.7-3.6c-2.3-1.2-4.6-2.5-6.9-3.7c-2.3-1.3-4.6-2.5-6.8-3.8
				c-2.2-1.3-4.5-2.5-6.6-3.7c-4.3-2.4-8.2-4.7-11.6-6.7c-3.4-2-6.2-3.7-8.1-4.9C293,499.8,291.8,499.1,291.8,499.1z"/>
		</g>
		<g>
			<path d="M304,492.7c0,0,1.1,0.5,3,1.4c1.9,0.9,4.6,2.3,7.8,3.9c3.2,1.6,7,3.6,11,5.7c2,1.1,4.1,2.2,6.1,3.3
				c2.1,1.1,4.2,2.3,6.3,3.5c2.1,1.2,4.2,2.4,6.3,3.5c2.1,1.2,4.1,2.3,6.1,3.5c3.9,2.3,7.6,4.4,10.7,6.3c3.1,1.9,5.7,3.5,7.5,4.6
				c1.8,1.1,2.8,1.8,2.8,1.8s-1.1-0.5-3-1.4c-1.9-0.9-4.6-2.3-7.8-3.9c-3.2-1.6-7-3.6-11-5.7c-2-1.1-4.1-2.2-6.1-3.3
				c-2.1-1.1-4.2-2.3-6.3-3.5c-2.1-1.2-4.2-2.4-6.3-3.5c-2.1-1.2-4.1-2.3-6.1-3.5c-3.9-2.3-7.6-4.4-10.7-6.3
				c-3.1-1.9-5.7-3.5-7.5-4.6C305.1,493.4,304,492.7,304,492.7z"/>
		</g>
		<g>
			<path d="M318.7,485.1c0,0,1.1,0.5,3.1,1.5c1.9,1,4.8,2.4,8.1,4.1c3.3,1.7,7.2,3.8,11.2,6.2c2,1.2,4.1,2.4,6.2,3.7
				c2.1,1.3,4.2,2.6,6.3,4c2.1,1.4,4.2,2.8,6.2,4.2c2,1.4,4,2.9,5.9,4.2c3.8,2.7,7.4,5.2,10.6,7c3.2,1.9,6,3.3,8,4.2
				c1,0.5,1.8,0.8,2.3,1c0.5,0.2,0.8,0.4,0.8,0.4s-0.3-0.1-0.9-0.3c-0.6-0.2-1.4-0.4-2.4-0.8c-2.1-0.7-5-1.8-8.4-3.5
				c-3.4-1.7-7.2-4-11.1-6.6c-1.9-1.3-4-2.7-6-4.1c-2-1.4-4.1-2.8-6.2-4.1c-2.1-1.4-4.2-2.7-6.3-4c-2.1-1.3-4.1-2.6-6.1-3.8
				c-4-2.5-7.7-4.7-10.9-6.7c-3.2-2-5.8-3.6-7.7-4.8C319.8,485.7,318.7,485.1,318.7,485.1z"/>
		</g>
		<g>
			<path d="M329.7,478.1c0,0,1.1,0.5,3.1,1.4c1.9,0.9,4.7,2.2,8,3.8c3.3,1.6,7.2,3.5,11.3,5.6c2,1,4.2,2.1,6.3,3.2
				c2.1,1.1,4.3,2.3,6.5,3.4c2.2,1.2,4.3,2.3,6.5,3.5c2.1,1.1,4.2,2.4,6.2,3.5c2,1.2,3.9,2.4,5.6,3.6c1.8,1.2,3.4,2.4,4.9,3.5
				c1.5,1.1,2.8,2.2,3.9,3.3c0.6,0.5,1.1,1,1.5,1.5c0.5,0.5,0.9,0.9,1.2,1.3c0.7,0.8,1.3,1.5,1.6,1.9c0.4,0.4,0.6,0.7,0.6,0.7
				s-0.2-0.2-0.6-0.6c-0.4-0.4-1-1-1.8-1.7c-0.4-0.4-0.8-0.8-1.3-1.2c-0.5-0.4-1-0.9-1.6-1.3c-1.2-0.9-2.5-1.9-4.1-2.9
				c-1.5-1-3.2-2.1-5-3.2c-1.8-1.1-3.7-2.2-5.7-3.3c-2-1.1-4.1-2.2-6.2-3.4c-2.1-1.1-4.3-2.3-6.5-3.4c-2.2-1.2-4.3-2.3-6.5-3.4
				c-2.1-1.2-4.2-2.3-6.2-3.4c-4-2.2-7.8-4.3-11-6.1c-3.2-1.8-5.8-3.4-7.7-4.5C330.8,478.8,329.7,478.1,329.7,478.1z"/>
		</g>
		<g>
			<path d="M343,471.3c0,0,1.1,0.5,3,1.5c1.9,1,4.6,2.3,7.9,4c3.2,1.7,7,3.7,11,5.9c2,1.1,4.1,2.2,6.2,3.4c2.1,1.2,4.2,2.4,6.3,3.6
				c2.1,1.2,4.2,2.4,6.3,3.6c2.1,1.2,4.1,2.4,6.1,3.6c3.9,2.3,7.6,4.4,10.9,6.1c3.2,1.7,6,3,8,3.8c1,0.4,1.8,0.7,2.3,1
				c0.5,0.2,0.8,0.3,0.8,0.3s-0.3-0.1-0.8-0.2c-0.6-0.2-1.4-0.4-2.4-0.7c-2-0.7-4.9-1.7-8.3-3.1c-3.4-1.5-7.2-3.4-11.2-5.6
				c-2-1.1-4.1-2.2-6.2-3.4c-2.1-1.2-4.2-2.4-6.3-3.6c-2.1-1.2-4.2-2.4-6.3-3.6c-2.1-1.2-4.1-2.4-6.1-3.6c-3.9-2.3-7.6-4.5-10.7-6.4
				c-3.1-1.9-5.7-3.6-7.5-4.7C344,471.9,343,471.3,343,471.3z"/>
		</g>
		<g>
			<path d="M356.4,463.1c0,0,0.3,0.1,0.8,0.3c0.5,0.2,1.3,0.4,2.3,0.8c1.9,0.8,4.7,1.8,7.9,3.4c3.2,1.5,6.9,3.4,10.8,5.5
				c2,1.1,4,2.2,6,3.3c2,1.1,4.1,2.3,6.2,3.4c2.1,1.2,4.1,2.3,6.2,3.5c2,1.1,4,2.3,5.9,3.4c3.8,2.2,7.4,4.3,10.5,6.2
				c3,1.8,5.5,3.4,7.3,4.5c1.8,1.1,2.8,1.8,2.8,1.8s-1.1-0.5-2.9-1.4c-1.9-0.9-4.5-2.2-7.7-3.9c-3.2-1.6-6.8-3.6-10.8-5.7
				c-2-1.1-4-2.1-6-3.3c-2-1.1-4.1-2.3-6.2-3.4c-2.1-1.2-4.1-2.3-6.2-3.5c-2-1.2-4-2.3-5.9-3.4c-3.8-2.2-7.4-4.3-10.5-6.1
				c-3.1-1.7-5.7-3.1-7.6-4C357.5,463.6,356.4,463.1,356.4,463.1z"/>
		</g>
		<g>
			<path d="M444.8,499.9c0,0,0.5,0.3,1.4,0.9c0.8,0.6,2.1,1.5,3.4,2.6c1.4,1.1,2.9,2.5,4.5,4c0.8,0.8,1.6,1.5,2.5,2.3
				c0.8,0.8,1.6,1.6,2.5,2.5c1.6,1.7,3.3,3.3,4.8,4.9c0.8,0.8,1.5,1.5,2.2,2.2c0.7,0.7,1.4,1.4,2,2c2.5,2.5,4.2,4.1,4.2,4.1
				s-0.5-0.3-1.4-0.8c-0.4-0.3-1-0.6-1.6-1c-0.6-0.4-1.3-0.9-2-1.4c-0.7-0.5-1.5-1.1-2.3-1.8c-0.8-0.6-1.6-1.3-2.4-2.1
				c-0.8-0.7-1.7-1.5-2.5-2.3c-0.8-0.8-1.7-1.6-2.5-2.5c-0.8-0.8-1.6-1.7-2.4-2.5c-0.8-0.8-1.6-1.7-2.3-2.5
				c-1.5-1.6-2.9-3.1-4.1-4.4c-1.2-1.3-2.2-2.4-2.9-3.1C445.2,500.4,444.8,499.9,444.8,499.9z"/>
		</g>
		<g>
			<path d="M453.8,495.6c0,0,1.4,0.5,3.3,1.5c1,0.5,2,1.1,3.2,1.8c1.1,0.7,2.3,1.4,3.5,2.2c1.2,0.8,2.3,1.6,3.4,2.4
				c1.1,0.8,2,1.6,2.8,2.3c1.6,1.4,2.6,2.4,2.6,2.4s-1.4-0.5-3.3-1.5c-1-0.5-2-1.1-3.2-1.8c-1.1-0.7-2.3-1.4-3.5-2.2
				c-1.2-0.8-2.3-1.6-3.4-2.4c-1.1-0.8-2-1.6-2.8-2.3C454.7,496.6,453.8,495.6,453.8,495.6z"/>
		</g>
		<g>
			<path d="M461.5,489.8c0,0,1,0.1,2.4,0.7c0.7,0.3,1.5,0.6,2.3,1c0.8,0.4,1.6,0.9,2.4,1.4c0.8,0.5,1.6,1.1,2.3,1.6
				c0.7,0.6,1.4,1.1,1.9,1.6c1.1,1,1.7,1.8,1.7,1.8s-1-0.2-2.3-0.8c-0.7-0.3-1.4-0.7-2.2-1.1c-0.8-0.4-1.6-0.9-2.4-1.4
				c-0.8-0.5-1.6-1.1-2.3-1.6c-0.7-0.5-1.4-1.1-1.9-1.5C462.2,490.5,461.5,489.8,461.5,489.8z"/>
		</g>
		<g>
			<path d="M472.4,482.4c0,0,0.5,0,1.1,0.1c0.3,0.1,0.6,0.2,1,0.3c0.2,0.1,0.3,0.2,0.5,0.3l0.1,0.1l0,0c0,0,0,0,0,0l0,0l0,0l0,0
				c-2.4,3.2-0.7,0.9-1.2,1.6l-0.1,0l-0.2-0.2l-0.2-0.2l-0.1,0c0.5-0.7-1.2,1.6,1.2-1.6l0,0l0,0l0,0c0,0,0,0,0,0l0,0l0.1,0.1
				c0.1,0.1,0.3,0.3,0.4,0.4c0.2,0.3,0.5,0.6,0.6,0.8c0.3,0.5,0.4,1,0.4,1s-0.5,0-1.1-0.1c-0.3-0.1-0.6-0.2-1-0.3
				c-0.2-0.1-0.3-0.2-0.5-0.3l-0.1-0.1l0,0c0,0,0,0,0,0l0,0l0,0l0,0c2.4-3.2,0.7-0.9,1.2-1.6l0.1,0l0.2,0.2l0.2,0.2l0.1,0
				c-0.5,0.7,1.2-1.6-1.2,1.6l0,0l0,0l0,0c0,0,0,0,0,0l0,0l-0.1-0.1c-0.1-0.1-0.3-0.3-0.4-0.4c-0.2-0.3-0.4-0.6-0.6-0.8
				C472.5,482.9,472.4,482.4,472.4,482.4z"/>
		</g>
		<g>
			<path d="M375.5,548.6c0,0,1-0.6,2.7-1.7c1.7-1.1,4.2-2.7,7.1-4.5c2.9-1.9,6.4-4.1,10-6.4c3.6-2.4,7.6-4.9,11.4-7.5
				c1.9-1.3,3.9-2.6,5.8-3.8c1.9-1.3,3.8-2.5,5.6-3.8c3.6-2.5,6.9-4.8,9.8-6.8c5.7-4,9.5-6.7,9.5-6.7s-0.9,0.8-2.4,2.1
				c-0.8,0.7-1.7,1.5-2.8,2.4c-1.1,0.9-2.3,2-3.7,3c-1.4,1.1-2.8,2.3-4.4,3.5c-1.6,1.2-3.3,2.5-5,3.8c-1.8,1.3-3.6,2.6-5.5,3.9
				c-1.9,1.3-3.8,2.6-5.8,3.9c-2,1.3-3.9,2.5-5.9,3.8c-1.9,1.2-3.9,2.4-5.7,3.5c-3.8,2.2-7.3,4.3-10.4,5.9c-1.5,0.8-3,1.6-4.2,2.2
				c-1.3,0.6-2.4,1.2-3.3,1.7C376.5,548.1,375.5,548.6,375.5,548.6z"/>
		</g>
		<g>
			<path d="M387,554.4c0,0,0.8-0.7,2.2-1.8c1.4-1.1,3.4-2.8,5.9-4.7c2.4-1.9,5.3-4.1,8.5-6.4c1.6-1.1,3.2-2.3,4.9-3.5
				c1.7-1.2,3.4-2.3,5.1-3.5c1.7-1.2,3.4-2.3,5.1-3.4c1.7-1.1,3.4-2.2,5-3.3c3.3-2.1,6.3-4,9-5.6c2.6-1.6,4.9-2.9,6.5-3.8
				c1.6-0.9,2.5-1.4,2.5-1.4s-0.8,0.6-2.3,1.7c-1.5,1.1-3.5,2.6-6,4.4c-2.5,1.8-5.5,3.9-8.6,6.1c-1.6,1.1-3.2,2.2-4.9,3.4
				c-1.7,1.2-3.4,2.3-5.1,3.5c-1.7,1.2-3.4,2.3-5.1,3.5c-1.7,1.1-3.3,2.3-4.9,3.3c-3.2,2.2-6.2,4.2-8.8,5.8c-2.6,1.7-4.8,3.1-6.3,4
				C387.9,553.9,387,554.4,387,554.4z"/>
		</g>
		<g>
			<path d="M399.3,561.5c0,0,2.9-2.7,7.4-6.4c2.3-1.9,5-4,7.9-6.2c1.5-1.1,3-2.3,4.5-3.4c1.6-1.1,3.1-2.3,4.7-3.4
				c1.6-1.1,3.2-2.2,4.8-3.3c1.6-1.1,3.2-2.1,4.7-3.2c3.1-2,5.9-3.9,8.5-5.4c5-3.1,8.5-5,8.5-5s-0.8,0.6-2.1,1.7
				c-1.4,1-3.3,2.5-5.7,4.3c-2.4,1.7-5.1,3.8-8.1,5.9c-3,2.1-6.1,4.4-9.3,6.7c-3.2,2.3-6.4,4.5-9.4,6.6c-3,2.1-5.8,4.1-8.2,5.7
				c-2.4,1.7-4.4,3-5.9,4C400.2,560.9,399.3,561.5,399.3,561.5z"/>
		</g>
		<g>
			<path d="M405.2,567.9c0,0,3-2.6,7.7-6.2c2.4-1.8,5.2-3.9,8.2-6c1.5-1.1,3.1-2.2,4.7-3.3c1.6-1.1,3.3-2.2,4.9-3.3
				c1.7-1.1,3.3-2.1,5-3.2c1.6-1.1,3.3-2,4.9-3c3.2-1.9,6.2-3.6,8.8-5.1c5.2-2.9,8.8-4.6,8.8-4.6s-0.8,0.6-2.2,1.6
				c-1.4,1-3.5,2.3-6,4c-2.5,1.6-5.4,3.5-8.5,5.6c-3.1,2-6.4,4.2-9.7,6.3c-3.3,2.1-6.6,4.3-9.7,6.3c-3.1,2-6,3.9-8.5,5.5
				c-2.5,1.6-4.6,2.9-6.1,3.8C406.1,567.3,405.2,567.9,405.2,567.9z"/>
		</g>
		<g>
			<path d="M418.8,573.8c0,0,2.6-2.3,6.6-5.6c2-1.6,4.4-3.5,7.1-5.4c1.3-1,2.7-2,4.1-2.9c1.4-1,2.8-2,4.2-3c1.4-1,2.9-1.9,4.3-2.9
				c1.4-1,2.8-1.8,4.2-2.7c2.8-1.7,5.3-3.3,7.6-4.6c4.5-2.6,7.6-4.2,7.6-4.2s-0.7,0.5-1.9,1.4c-1.2,0.9-3,2.2-5.1,3.7
				c-2.1,1.5-4.6,3.3-7.3,5.1c-2.7,1.9-5.5,3.8-8.4,5.8c-2.9,1.9-5.7,3.9-8.4,5.7c-2.7,1.8-5.2,3.5-7.4,4.9c-2.2,1.4-4,2.6-5.3,3.4
				C419.5,573.3,418.8,573.8,418.8,573.8z"/>
		</g>
		<g>
			<path d="M428.8,581.3c0,0,0.7-0.5,2-1.5c1.3-0.9,3.1-2.2,5.3-3.8c2.2-1.5,4.8-3.3,7.6-5.2c2.8-1.9,5.8-3.9,8.7-5.9
				c3-2,6-4,8.8-5.8c2.8-1.9,5.4-3.6,7.7-5c2.3-1.5,4.2-2.7,5.5-3.5c1.3-0.8,2.1-1.3,2.1-1.3s-2.7,2.4-6.9,5.7
				c-2.1,1.7-4.6,3.6-7.3,5.6c-1.4,1-2.8,2-4.2,3c-1.5,1-2.9,2-4.4,3c-1.5,1-3,2-4.5,2.9c-1.5,1-3,1.9-4.4,2.8
				c-2.9,1.8-5.6,3.4-7.9,4.7C432.1,579.7,428.8,581.3,428.8,581.3z"/>
		</g>
		<g>
			<path d="M444.1,588.6c0,0,1.9,1.1,4.5,3c0.7,0.5,1.4,1,2.1,1.5c0.7,0.6,1.5,1.1,2.3,1.8c1.6,1.3,3.2,2.7,4.8,4.2
				c0.8,0.8,1.5,1.5,2.3,2.3c0.7,0.8,1.4,1.6,2.1,2.3c1.3,1.5,2.5,3,3.4,4.3c1.9,2.6,3,4.4,3,4.4s-1.6-1.4-3.9-3.7
				c-0.6-0.6-1.2-1.2-1.8-1.8c-0.6-0.6-1.3-1.3-2-2c-1.4-1.4-2.9-2.9-4.4-4.4c-0.8-0.7-1.5-1.5-2.3-2.2c-0.8-0.7-1.5-1.4-2.2-2.1
				c-1.5-1.4-2.8-2.6-4-3.8C445.5,590.2,444.1,588.6,444.1,588.6z"/>
		</g>
		<g>
			<path d="M453.6,581.3c0,0,0.3,0.2,0.8,0.6c0.5,0.4,1.2,0.9,1.9,1.7c0.8,0.7,1.6,1.6,2.5,2.6c0.9,1,1.7,2.1,2.5,3.2
				c0.8,1.1,1.7,2.1,2.6,3c0.9,0.9,1.7,1.8,2.4,2.6c0.7,0.8,1.3,1.4,1.7,1.9c0.4,0.5,0.6,0.8,0.6,0.8s-1.3-0.6-3-1.8
				c-0.9-0.6-1.9-1.3-2.9-2.2c-0.5-0.4-1-0.9-1.5-1.4c-0.5-0.5-1-1.1-1.4-1.6c-0.9-1.1-1.6-2.3-2.3-3.3c-0.7-1.1-1.4-2.1-2-2.9
				c-0.6-0.9-1-1.6-1.4-2.1C453.8,581.6,453.6,581.3,453.6,581.3z"/>
		</g>
		<g>
			<path d="M461.4,574.1c0,0,1,0.6,2.2,1.6c0.6,0.5,1.3,1.1,2.1,1.8c0.7,0.7,1.5,1.4,2.3,2c0.8,0.7,1.6,1.3,2.4,2
				c0.8,0.6,1.5,1.3,2.1,1.8c1.2,1.1,1.9,2,1.9,2s-1.1-0.3-2.5-1.1c-0.7-0.4-1.6-0.8-2.4-1.4c-0.4-0.3-0.9-0.5-1.3-0.9
				c-0.4-0.3-0.9-0.6-1.3-1c-0.9-0.7-1.6-1.6-2.3-2.4c-0.3-0.4-0.6-0.8-0.9-1.2c-0.3-0.4-0.5-0.7-0.7-1.1
				C461.9,575.2,461.4,574.1,461.4,574.1z"/>
		</g>
		<g>
			<path d="M470.4,567.9c0,0,0.5,0,1.2,0.2c0.6,0.2,1.4,0.6,2,1.1c0.6,0.5,1.2,1.2,1.5,1.8c0.3,0.6,0.4,1.1,0.4,1.1s-0.5,0-1.2-0.2
				c-0.6-0.2-1.4-0.6-2-1.1c-0.6-0.5-1.2-1.2-1.5-1.8C470.5,568.4,470.4,567.9,470.4,567.9z"/>
		</g>
		<g>
			<path d="M248.2,632.8c0,0,2.5-2.1,6.4-5.1c1-0.7,2-1.5,3.2-2.4c1.1-0.8,2.3-1.7,3.5-2.7c2.5-1.8,5.1-3.8,7.7-5.7
				c2.6-2,5.2-3.9,7.7-5.8c2.4-1.8,4.7-3.6,6.7-5c2-1.5,3.6-2.7,4.8-3.5c1.2-0.8,1.9-1.3,1.9-1.3s-2.3,2.4-5.9,5.7
				c-1.8,1.7-4,3.5-6.4,5.5c-1.2,1-2.4,2-3.7,3c-1.3,1-2.6,2-3.9,3c-1.3,1-2.7,1.9-4,2.9c-1.3,0.9-2.6,1.8-3.9,2.7
				c-2.5,1.7-5,3.3-7.1,4.6C251.1,631.2,248.2,632.8,248.2,632.8z"/>
		</g>
		<g>
			<path d="M250.5,644.1c0,0,0.8-0.6,2.1-1.5c1.4-1,3.3-2.3,5.7-3.9c2.3-1.6,5.1-3.5,8-5.4c3-2,6.1-4.1,9.2-6.2
				c3.2-2.1,6.3-4.2,9.3-6.1c3-1.9,5.7-3.8,8.1-5.3c2.4-1.5,4.4-2.8,5.8-3.7c1.4-0.9,2.2-1.4,2.2-1.4s-2.8,2.5-7.3,6
				c-2.2,1.8-4.9,3.7-7.8,5.8c-1.5,1-2.9,2.1-4.5,3.2c-1.5,1-3.1,2.1-4.7,3.2c-1.6,1-3.2,2.1-4.8,3.1c-1.6,1-3.1,2-4.7,2.9
				c-3,1.8-5.9,3.5-8.4,4.9C253.9,642.4,250.5,644.1,250.5,644.1z"/>
		</g>
		<g>
			<path d="M259.8,649.4c0,0,0.7-0.5,2-1.5c1.3-0.9,3.1-2.3,5.4-3.9c2.2-1.6,4.9-3.4,7.7-5.3c2.8-1.9,5.8-4,8.8-6c3-2,6-4.1,8.9-6
				c2.8-1.9,5.5-3.7,7.8-5.2c2.3-1.5,4.2-2.7,5.6-3.6c1.4-0.8,2.1-1.3,2.1-1.3s-2.7,2.5-7,5.8c-2.1,1.7-4.7,3.6-7.4,5.7
				c-1.4,1-2.8,2.1-4.3,3.1c-1.5,1-3,2.1-4.5,3.1c-1.5,1-3,2-4.5,3c-1.5,1-3,1.9-4.4,2.8c-2.9,1.8-5.6,3.5-8,4.8
				C263.1,647.7,259.8,649.4,259.8,649.4z"/>
		</g>
		<g>
			<path d="M269.2,656.5c0,0,0.7-0.6,1.9-1.7c1.2-1,2.9-2.5,5.1-4.2c1.1-0.9,2.2-1.8,3.5-2.7c1.2-0.9,2.6-1.9,3.9-2.9
				c1.4-1,2.8-2,4.3-3c1.5-1,3-2,4.5-3c1.5-1,3.1-1.9,4.6-2.9c1.5-1,3-1.8,4.5-2.7c2.9-1.7,5.7-3.2,8.1-4.5c2.4-1.3,4.4-2.3,5.9-2.9
				c1.4-0.7,2.3-1,2.3-1s-0.8,0.5-2.1,1.4c-1.3,0.9-3.2,2.1-5.5,3.6c-4.6,2.9-10.6,6.8-16.7,10.8c-3,2-6.1,3.9-8.9,5.8
				c-2.8,1.9-5.5,3.6-7.7,5.1c-2.3,1.5-4.2,2.7-5.5,3.6C269.9,656,269.2,656.5,269.2,656.5z"/>
		</g>
		<g>
			<path d="M280.2,662.8c0,0,2.8-2.2,7.3-5.3c2.2-1.6,4.8-3.3,7.7-5.2c1.4-0.9,2.9-1.9,4.4-2.8c1.5-0.9,3-1.9,4.6-2.8
				c1.6-0.9,3.1-1.8,4.6-2.7c1.5-0.9,3.1-1.7,4.5-2.6c3-1.7,5.7-3.1,8.1-4.4c4.8-2.5,8.1-4,8.1-4s-3,2.1-7.5,5
				c-2.3,1.5-4.9,3.1-7.8,4.9c-1.4,0.9-2.9,1.8-4.4,2.7c-1.5,0.9-3.1,1.9-4.6,2.8c-1.5,0.9-3.1,1.8-4.6,2.8c-1.5,0.9-3,1.8-4.5,2.6
				c-2.9,1.7-5.6,3.3-8,4.6C283.4,661.1,280.2,662.8,280.2,662.8z"/>
		</g>
		<g>
			<path d="M287.3,673c0,0,0.8-0.6,2.2-1.7c1.4-1,3.5-2.6,6-4.3c2.5-1.8,5.5-3.8,8.7-5.9c1.6-1,3.2-2.1,4.9-3.2
				c1.7-1.1,3.4-2.2,5.2-3.3c1.7-1.1,3.5-2.1,5.2-3.2c1.7-1.1,3.4-2,5.1-3c3.3-1.9,6.4-3.7,9.1-5.1c2.7-1.5,5-2.6,6.6-3.5
				c1.6-0.8,2.5-1.3,2.5-1.3s-0.8,0.6-2.3,1.6c-1.5,1-3.6,2.4-6.2,4.1c-2.6,1.7-5.6,3.6-8.8,5.7c-1.6,1-3.3,2.1-5,3.1
				c-1.7,1.1-3.4,2.1-5.2,3.2c-1.7,1.1-3.5,2.1-5.2,3.2c-1.7,1-3.4,2.1-5,3.1c-3.3,2-6.3,3.8-9,5.4c-2.6,1.6-4.9,2.8-6.4,3.7
				C288.2,672.6,287.3,673,287.3,673z"/>
		</g>
		<g>
			<path d="M250.5,656.5c0,0,0.5,0.3,1.2,0.8c0.8,0.5,1.9,1.2,3.2,2.1c1.3,0.9,2.8,1.9,4.4,3c0.8,0.6,1.6,1.1,2.4,1.7
				c0.8,0.6,1.7,1.2,2.5,1.8c0.8,0.6,1.7,1.3,2.5,1.9c0.8,0.6,1.6,1.3,2.3,1.9c1.5,1.2,2.9,2.5,4,3.5c2.3,2.1,3.7,3.7,3.7,3.7
				s-0.5-0.3-1.2-0.8c-0.8-0.5-1.9-1.2-3.2-2.1c-1.3-0.9-2.8-1.9-4.4-3c-0.8-0.6-1.6-1.1-2.4-1.7c-0.8-0.6-1.7-1.2-2.5-1.8
				c-0.8-0.6-1.7-1.3-2.5-1.9c-0.8-0.6-1.6-1.3-2.3-1.9c-1.5-1.2-2.9-2.5-4-3.5C251.8,658.1,250.5,656.5,250.5,656.5z"/>
		</g>
		<g>
			<path d="M249.1,666.6c0,0,1.2,0.5,2.8,1.4c0.8,0.5,1.7,1,2.7,1.7c1,0.7,2,1.4,3,2.1c1,0.8,1.9,1.5,2.8,2.3
				c0.9,0.8,1.7,1.5,2.3,2.2c1.3,1.3,2.1,2.3,2.1,2.3s-1.2-0.5-2.8-1.4c-0.8-0.5-1.7-1-2.7-1.7c-1-0.6-2-1.4-3-2.1
				c-1-0.8-1.9-1.6-2.8-2.3c-0.9-0.8-1.7-1.5-2.3-2.2C249.9,667.6,249.1,666.6,249.1,666.6z"/>
		</g>
		<g>
			<path d="M303.1,677.5c0,0,0.9,0.1,2,0.4c1.2,0.3,2.7,1,4.1,1.7c1.4,0.7,2.8,1.4,3.8,2c0.5,0.3,1,0.6,1.3,0.8
				c0.3,0.2,0.5,0.4,0.5,0.4s-0.9,0.1-2.1-0.1c-1.2-0.1-2.8-0.5-4.3-1.3c-1.5-0.8-2.8-1.7-3.7-2.5
				C303.7,678.2,303.1,677.5,303.1,677.5z"/>
		</g>
		<g>
			<path d="M312.2,672.3c0,0,1.5,0.2,3.6,0.8c1.1,0.3,2.3,0.7,3.6,1.1c1.3,0.5,2.6,1,4,1.7c1.3,0.6,2.6,1.4,3.8,2.1
				c1.2,0.7,2.2,1.5,3.1,2.1c1.7,1.3,2.8,2.4,2.8,2.4s-0.4-0.1-0.9-0.4c-0.6-0.2-1.4-0.6-2.4-1c-1-0.4-2.1-1-3.3-1.6
				c-1.2-0.6-2.5-1.2-3.8-1.8c-1.3-0.6-2.6-1.3-3.8-1.8c-1.2-0.6-2.3-1.2-3.3-1.7C313.4,673.1,312.2,672.3,312.2,672.3z"/>
		</g>
		<g>
			<path d="M323.7,664.1c0,0,0.5,0.2,1.4,0.6c0.4,0.2,1,0.4,1.6,0.7c0.6,0.3,1.3,0.5,2.1,0.8c1.6,0.6,3.4,1.3,5.3,2.1
				c1,0.4,2,0.8,3,1.2c1,0.4,2,0.9,3.1,1.3c1,0.5,2,0.9,3,1.4c1,0.4,2,0.9,2.9,1.4c0.9,0.5,1.8,0.9,2.7,1.4c0.9,0.4,1.7,0.9,2.4,1.3
				c0.7,0.4,1.4,0.8,2,1.2c0.6,0.4,1.1,0.8,1.4,1c0.4,0.3,0.7,0.6,0.9,0.8c0.2,0.2,0.3,0.3,0.3,0.3s-0.1-0.1-0.4-0.2
				c-0.2-0.1-0.6-0.3-1-0.5c-0.5-0.2-1-0.5-1.6-0.7c-0.6-0.3-1.3-0.5-2.1-0.9c-1.5-0.6-3.4-1.3-5.3-2.1c-1-0.4-2-0.8-3-1.2
				c-1-0.4-2-0.9-3.1-1.3c-1-0.5-2-0.9-3-1.4c-1-0.4-2-0.9-2.9-1.4c-1.9-0.9-3.6-1.8-5.1-2.7c-1.5-0.8-2.6-1.6-3.4-2.2
				C324.1,664.5,323.7,664.1,323.7,664.1z"/>
		</g>
		<g>
			<path d="M336,658.8c0,0,0.6,0.1,1.8,0.4c0.6,0.1,1.2,0.3,2,0.5c0.8,0.2,1.6,0.5,2.6,0.8c0.9,0.4,1.9,0.7,3,1.2
				c1,0.5,2.1,1,3.2,1.7c0.5,0.3,1.1,0.6,1.6,1c0.5,0.3,1.1,0.7,1.6,1.1c1.1,0.7,2.1,1.5,3.2,2.3c1,0.8,2.1,1.6,3.1,2.4
				c1,0.7,2,1.5,3,2.2c1,0.7,2,1.3,2.9,1.9c0.9,0.6,1.9,1.1,2.7,1.6c0.9,0.5,1.6,0.9,2.3,1.2c0.7,0.4,1.3,0.7,1.8,0.9
				c1,0.5,1.6,0.8,1.6,0.8s-0.6-0.1-1.8-0.4c-0.6-0.2-1.2-0.3-2-0.6c-0.8-0.3-1.6-0.5-2.5-0.9c-0.9-0.4-1.9-0.8-2.9-1.3
				c-0.5-0.3-1-0.5-1.6-0.8c-0.5-0.3-1-0.6-1.6-0.9c-0.5-0.3-1.1-0.7-1.6-1c-0.5-0.4-1.1-0.7-1.6-1.1c-1.1-0.8-2.1-1.5-3.1-2.3
				c-1-0.8-2.1-1.6-3.1-2.3c-1-0.7-2-1.5-3-2.1c-1-0.7-2-1.3-2.9-1.8c-0.9-0.6-1.9-1-2.7-1.5c-0.9-0.4-1.7-0.8-2.4-1.2
				c-0.7-0.4-1.4-0.6-1.9-0.9C336.6,659.1,336,658.8,336,658.8z"/>
		</g>
		<g>
			<path d="M349.4,649.5c0,0,3.2,1.6,7.7,4.4c2.3,1.4,4.9,3,7.7,4.8c1.4,0.9,2.8,1.8,4.3,2.8c1.5,0.9,3,1.9,4.5,2.8
				c3,1.9,6,3.8,8.8,5.5c1.4,0.8,2.8,1.7,4.1,2.4c1.3,0.7,2.6,1.5,3.7,2.1c1.2,0.6,2.2,1.2,3.2,1.7c1,0.5,1.8,0.9,2.5,1.3
				c1.4,0.7,2.2,1.1,2.2,1.1s-0.9-0.3-2.3-0.7c-0.8-0.2-1.6-0.5-2.7-0.9c-0.5-0.2-1.1-0.4-1.6-0.6c-0.6-0.2-1.2-0.5-1.8-0.8
				c-1.2-0.5-2.6-1.1-3.9-1.8c-1.4-0.7-2.8-1.4-4.3-2.2c-1.5-0.8-3-1.6-4.5-2.6c-1.5-0.9-3-1.8-4.5-2.8c-3-1.9-6-3.9-8.7-5.8
				c-2.7-1.9-5.2-3.8-7.4-5.4c-2.1-1.6-3.9-2.9-5.1-3.9C350.1,650,349.4,649.5,349.4,649.5z"/>
		</g>
		<g>
			<path d="M359.3,645.1c0,0,3.4,1.7,8.4,4.5c2.5,1.4,5.4,3,8.4,4.8c1.5,0.9,3.1,1.8,4.7,2.8c1.6,1,3.2,2,4.8,2.9c1.6,1,3.2,2,4.8,3
				c1.6,1,3.1,2,4.6,3c3,1.9,5.8,3.8,8.1,5.4c4.7,3.2,7.8,5.5,7.8,5.5s-3.4-1.7-8.4-4.5c-2.5-1.4-5.4-3-8.4-4.8
				c-1.5-0.9-3.1-1.8-4.7-2.8c-1.6-1-3.2-2-4.8-2.9c-1.6-1-3.2-2-4.8-3c-1.6-1-3.1-2-4.6-3c-3-1.9-5.8-3.8-8.1-5.4
				C362.3,647.4,359.3,645.1,359.3,645.1z"/>
		</g>
		<g>
			<path d="M295.2,589.4c0,0,1,0.5,2.7,1.5c0.8,0.5,1.9,1.1,3,1.8c1.2,0.7,2.5,1.5,3.9,2.5c2.8,1.8,6.1,4,9.5,6.4
				c1.7,1.2,3.5,2.4,5.3,3.7c1.8,1.3,3.6,2.5,5.5,3.8c1.8,1.3,3.7,2.5,5.5,3.7c1.8,1.2,3.6,2.4,5.4,3.5c1.8,1.1,3.5,2.2,5.1,3.1
				c1.6,1,3.2,1.9,4.7,2.7c1.4,0.8,2.8,1.5,4,2.2c1.2,0.7,2.3,1.2,3.1,1.6c1.7,0.9,2.7,1.4,2.7,1.4s-1.1-0.4-2.9-1.1
				c-0.9-0.3-2-0.8-3.3-1.3c-1.3-0.5-2.7-1.1-4.2-1.8c-1.5-0.7-3.2-1.5-4.9-2.4c-1.7-0.9-3.5-1.9-5.3-2.9c-0.9-0.5-1.8-1.1-2.8-1.6
				c-0.9-0.6-1.9-1.1-2.8-1.7c-1.9-1.2-3.7-2.4-5.6-3.7c-1.8-1.3-3.7-2.6-5.5-3.8c-1.8-1.3-3.5-2.6-5.2-3.8
				c-3.4-2.5-6.5-4.9-9.1-6.9C298.8,592.1,295.2,589.4,295.2,589.4z"/>
		</g>
		<g>
			<path d="M307.7,583.1c0,0,1.1,0.5,2.9,1.4c1.8,0.9,4.5,2.2,7.6,3.8c3.1,1.6,6.8,3.5,10.6,5.6c1.9,1.1,3.9,2.1,5.9,3.3
				c2,1.2,4,2.3,6.1,3.5c2,1.2,4,2.4,6,3.6c2,1.2,3.9,2.4,5.8,3.5c3.7,2.3,7.2,4.5,10.1,6.5c2.9,1.9,5.3,3.6,7,4.8
				c1.7,1.2,2.6,1.9,2.6,1.9s-1-0.5-2.8-1.5c-1.8-1-4.3-2.4-7.4-4.1c-3-1.7-6.6-3.8-10.4-6c-3.8-2.2-7.8-4.6-11.9-6.9
				c-4-2.4-8.1-4.8-11.8-7c-3.8-2.2-7.3-4.3-10.3-6.2c-3-1.8-5.5-3.4-7.2-4.5C308.6,583.8,307.7,583.1,307.7,583.1z"/>
		</g>
		<g>
			<path d="M320.1,577.3c0,0,1,0.5,2.8,1.5c1.8,1,4.3,2.3,7.4,3.9c3,1.6,6.6,3.6,10.4,5.6c3.8,2.1,7.8,4.3,11.9,6.5
				c2,1.1,4,2.3,6,3.4c2,1.1,3.9,2.2,5.8,3.3c3.8,2.2,7.2,4.2,10.2,6c3,1.8,5.4,3.3,7.1,4.4c1.7,1.1,2.7,1.7,2.7,1.7
				s-1.1-0.5-2.9-1.4c-1.8-0.9-4.4-2.1-7.5-3.7c-3.1-1.6-6.7-3.4-10.5-5.4c-1.9-1-3.9-2-5.9-3.1c-2-1.1-4-2.2-6-3.3
				c-2-1.1-4-2.3-6-3.4c-2-1.1-3.9-2.3-5.8-3.4c-3.7-2.2-7.2-4.3-10.1-6.2c-2.9-1.8-5.3-3.5-7-4.6
				C321.1,578,320.1,577.3,320.1,577.3z"/>
		</g>
		<g>
			<path d="M333,568.2c0,0,1,0.6,2.8,1.6c1.8,1.1,4.4,2.6,7.4,4.4c6.1,3.7,14.3,8.6,22.4,13.5c4.1,2.5,8.1,4.9,11.9,7.2
				c3.8,2.3,7.4,4.5,10.4,6.3c3,1.9,5.6,3.5,7.3,4.6c1.8,1.1,2.8,1.8,2.8,1.8s-1.1-0.5-3-1.4c-1.9-0.9-4.6-2.2-7.7-3.9
				c-3.2-1.6-6.8-3.6-10.7-5.8c-1.9-1.1-4-2.2-6-3.4c-2-1.2-4.1-2.4-6.1-3.6c-2-1.3-4.1-2.5-6.1-3.7c-2-1.2-3.9-2.5-5.8-3.7
				c-3.7-2.4-7.2-4.8-10.1-6.8c-2.9-2-5.3-3.8-7-5C334,568.9,333,568.2,333,568.2z"/>
		</g>
		<g>
			<path d="M343.1,561.2c0,0,1,0.6,2.8,1.8c1.8,1.1,4.4,2.8,7.4,4.7c6.1,4,14.3,9.2,22.5,14.5c4.1,2.6,8.2,5.3,12,7.7
				c3.8,2.5,7.4,4.8,10.5,6.6c3.2,1.8,5.9,3,7.9,3.7c2,0.7,3.2,1.1,3.2,1.1s-0.3-0.1-0.9-0.2c-0.6-0.1-1.4-0.3-2.4-0.5
				c-2.1-0.5-5-1.5-8.3-3.1c-1.7-0.8-3.4-1.7-5.2-2.8c-1.8-1-3.7-2.1-5.7-3.3c-2-1.2-4-2.4-6-3.7c-2-1.3-4.1-2.6-6.1-3.9
				c-4.1-2.7-8.1-5.3-11.9-8c-3.8-2.6-7.2-5.1-10.1-7.3c-2.9-2.2-5.3-4.1-7-5.4C344,561.9,343.1,561.2,343.1,561.2z"/>
		</g>
		<g>
			<path d="M355.7,555.2c0,0,0.3,0,0.8,0.1c0.5,0.1,1.3,0.2,2.2,0.5c1.9,0.5,4.6,1.5,7.5,3.3c1.5,0.9,3,1.9,4.5,3
				c1.6,1.1,3.2,2.2,5,3.4c1.7,1.2,3.5,2.4,5.4,3.6c1.8,1.2,3.7,2.4,5.6,3.6c1.9,1.2,3.8,2.4,5.6,3.5c1.9,1.1,3.7,2.3,5.5,3.4
				c1.8,1.1,3.5,2.1,5.2,3.1c1.7,1,3.2,1.9,4.7,2.7c5.8,3.4,9.7,5.6,9.7,5.6s-1-0.4-2.8-1.2c-1.8-0.8-4.4-1.9-7.4-3.4
				c-1.5-0.7-3.1-1.5-4.8-2.4c-1.7-0.9-3.5-1.8-5.3-2.9c-1.8-1-3.7-2.1-5.6-3.2c-1.9-1.1-3.8-2.3-5.7-3.5c-1.9-1.2-3.8-2.5-5.6-3.7
				c-1.8-1.2-3.6-2.5-5.3-3.7c-1.7-1.2-3.3-2.5-4.8-3.7c-1.5-1.2-2.9-2.3-4.3-3.3c-1.4-1-2.6-1.8-3.8-2.4c-1.2-0.7-2.3-1.1-3.2-1.5
				c-0.9-0.4-1.6-0.6-2.1-0.8C356,555.3,355.7,555.2,355.7,555.2z"/>
		</g>
		<g>
			<path d="M374.6,636.3c0,0,0.8-0.8,2.1-2.1c0.7-0.6,1.5-1.4,2.5-2.3c1-0.9,2.1-1.9,3.3-3c1.2-1.1,2.6-2.2,4-3.4
				c1.5-1.2,3-2.4,4.6-3.7c1.6-1.2,3.3-2.5,5-3.8c1.7-1.3,3.5-2.5,5.3-3.7c1.8-1.2,3.6-2.4,5.4-3.6c1.8-1.2,3.6-2.3,5.3-3.3
				c1.7-1.1,3.4-2.1,5.1-3c1.6-0.9,3.2-1.8,4.6-2.6c1.4-0.8,2.8-1.5,3.9-2.1c1.2-0.6,2.2-1.1,3.1-1.5c1.7-0.8,2.7-1.3,2.7-1.3
				s-0.9,0.6-2.5,1.6c-1.6,1-3.9,2.5-6.6,4.2c-2.7,1.8-5.9,3.8-9.3,6c-1.7,1.1-3.4,2.3-5.2,3.5c-1.8,1.2-3.6,2.4-5.3,3.6
				c-1.8,1.2-3.6,2.4-5.3,3.7c-1.7,1.2-3.5,2.4-5.1,3.6c-3.3,2.4-6.3,4.6-8.9,6.5c-2.6,1.9-4.8,3.5-6.3,4.7
				C375.5,635.7,374.6,636.3,374.6,636.3z"/>
		</g>
		<g>
			<path d="M386.4,641.7c0,0,0.9-0.5,2.6-1.3c0.8-0.4,1.8-1,2.9-1.6c1.1-0.6,2.3-1.4,3.7-2.2c1.3-0.8,2.7-1.8,4.3-2.8
				c1.5-1,3-2.1,4.7-3.2c1.6-1.1,3.3-2.3,5-3.5c1.7-1.2,3.4-2.4,5.1-3.7c3.4-2.5,6.8-4.9,10-7.3c3.2-2.3,6.2-4.4,8.8-6.2
				c1.3-0.9,2.5-1.7,3.6-2.4c1.1-0.7,2-1.3,2.9-1.7c0.4-0.2,0.8-0.4,1.1-0.6c0.3-0.1,0.6-0.3,0.8-0.4c0.5-0.2,0.7-0.3,0.7-0.3
				s-0.2,0.1-0.6,0.4c-0.2,0.1-0.5,0.3-0.8,0.5c-0.3,0.2-0.6,0.5-1,0.7c-0.8,0.5-1.6,1.2-2.6,2c-1,0.8-2.1,1.7-3.4,2.7
				c-2.5,2-5.3,4.3-8.5,6.7c-1.6,1.2-3.2,2.5-4.8,3.7c-1.7,1.2-3.4,2.5-5.1,3.8c-1.7,1.2-3.4,2.4-5.1,3.6c-1.7,1.2-3.4,2.3-5.1,3.4
				c-1.7,1.1-3.3,2.1-4.9,3c-1.6,0.9-3.1,1.8-4.5,2.5c-0.7,0.4-1.4,0.7-2,1.1c-0.6,0.3-1.3,0.6-1.9,0.9c-1.2,0.5-2.2,1-3.1,1.3
				C387.4,641.3,386.4,641.7,386.4,641.7z"/>
		</g>
		<g>
			<path d="M394.1,651.5c0,0,3-2.7,7.6-6.5c2.3-1.9,5-4.1,8-6.5c1.5-1.2,3-2.4,4.5-3.6c1.6-1.2,3.1-2.4,4.7-3.6
				c1.6-1.2,3.2-2.4,4.8-3.6c1.6-1.2,3.1-2.3,4.6-3.4c3-2.2,5.9-4.3,8.3-6c4.9-3.4,8.3-5.6,8.3-5.6s-3,2.7-7.6,6.5
				c-2.3,1.9-5,4.1-8,6.5c-1.5,1.2-3,2.4-4.5,3.6c-1.6,1.2-3.1,2.4-4.7,3.6c-1.6,1.2-3.2,2.4-4.8,3.6c-1.6,1.2-3.1,2.3-4.6,3.4
				c-3,2.2-5.9,4.3-8.3,6C397.4,649.4,394.1,651.5,394.1,651.5z"/>
		</g>
		<g>
			<path d="M405.5,659.9c0,0,2.9-2.6,7.5-6.4c2.3-1.9,4.9-4.1,7.8-6.4c2.9-2.3,5.9-4.8,9-7.2c1.5-1.2,3.1-2.4,4.6-3.6
				c1.5-1.2,3-2.4,4.5-3.5c2.9-2.3,5.6-4.3,8-6.1c4.7-3.6,7.9-5.8,7.9-5.8s-2.8,2.8-7.2,6.7c-2.2,2-4.8,4.2-7.6,6.6
				c-1.4,1.2-2.9,2.4-4.4,3.6c-1.5,1.2-3,2.4-4.6,3.7c-1.6,1.2-3.1,2.4-4.6,3.6c-1.5,1.2-3.1,2.3-4.5,3.4c-3,2.2-5.7,4.2-8.2,5.9
				C408.8,657.8,405.5,659.9,405.5,659.9z"/>
		</g>
		<g>
			<path d="M417.5,664.7c0,0,2.7-2.5,7-6c2.1-1.8,4.6-3.8,7.3-5.9c1.4-1.1,2.7-2.2,4.2-3.3c1.4-1.1,2.9-2.2,4.4-3.3
				c1.5-1.1,2.9-2.2,4.4-3.3c1.4-1.1,2.9-2.1,4.3-3.1c2.8-2,5.4-3.9,7.7-5.4c2.3-1.6,4.2-2.8,5.6-3.6c1.4-0.8,2.2-1.2,2.2-1.2
				s-0.7,0.6-2,1.6c-1.3,1-3,2.5-5.2,4.2c-2.1,1.8-4.6,3.8-7.3,5.9c-1.4,1.1-2.7,2.2-4.2,3.3c-1.4,1.1-2.9,2.2-4.4,3.3
				c-1.5,1.1-2.9,2.2-4.4,3.3c-1.4,1.1-2.9,2.1-4.3,3.1c-2.8,2-5.4,3.9-7.7,5.4C420.7,662.8,417.5,664.7,417.5,664.7z"/>
		</g>
		<g>
			<path d="M424.3,671.6c0,0,2.4-2.1,6-5.1c1.8-1.5,4-3.2,6.3-5c1.2-0.9,2.4-1.8,3.6-2.8c1.2-0.9,2.5-1.9,3.7-2.8
				c1.3-0.9,2.5-1.8,3.8-2.8c1.2-0.9,2.5-1.8,3.7-2.6c2.4-1.7,4.7-3.3,6.6-4.6c3.9-2.7,6.5-4.4,6.5-4.4s-2.2,2.2-5.8,5.3
				c-1.8,1.5-3.9,3.3-6.2,5.1c-1.2,0.9-2.4,1.9-3.6,2.8c-1.2,0.9-2.5,1.9-3.7,2.8c-1.3,0.9-2.5,1.8-3.8,2.8
				c-1.2,0.9-2.5,1.8-3.7,2.6c-2.4,1.7-4.7,3.2-6.7,4.5C427,670.1,424.3,671.6,424.3,671.6z"/>
		</g>
		<g>
			<path class="st0" d="M463.2,682"/>
		</g>
		<g>
			<path d="M218.6,423.3c0,0,1.1,0.4,2.7,1.2c0.8,0.4,1.7,0.9,2.6,1.5c0.4,0.3,0.9,0.6,1.4,0.9c0.5,0.3,0.9,0.7,1.4,1
				c0.9,0.7,1.8,1.5,2.6,2.2c0.8,0.7,1.5,1.5,2.1,2.1c1.1,1.3,1.8,2.3,1.8,2.3s-1.1-0.5-2.5-1.4c-0.7-0.5-1.6-1-2.4-1.6
				c-0.9-0.6-1.8-1.3-2.7-2c-0.9-0.7-1.8-1.4-2.6-2.1c-0.8-0.7-1.6-1.4-2.2-1.9C219.3,424.2,218.6,423.3,218.6,423.3z"/>
		</g>
		<g>
			<path d="M477.6,403.6c0,0,0.6,0,1.5,0.2c0.8,0.2,1.8,0.7,2.8,1.2c0.9,0.6,1.8,1.3,2.3,2c0.6,0.6,0.8,1.2,0.8,1.2s-0.6,0-1.5-0.2
				c-0.8-0.2-1.8-0.7-2.8-1.2c-0.9-0.6-1.7-1.3-2.3-2C477.8,404.2,477.6,403.6,477.6,403.6z"/>
		</g>
		<g>
			<path d="M343.9,407.8c0,0,0.7,0.3,1.9,0.9c1.2,0.6,2.9,1.4,4.9,2.4c2,1,4.3,2.1,6.9,3.4c2.5,1.3,5.2,2.6,7.8,3.9
				c1.3,0.7,2.7,1.4,4,2c1.3,0.7,2.6,1.4,3.8,2c2.5,1.3,4.8,2.6,6.7,3.7c3.9,2.2,6.4,3.8,6.4,3.8s-2.8-1-6.9-2.8
				c-2.1-0.9-4.5-1.9-7-3.1c-1.3-0.6-2.6-1.2-3.9-1.9c-1.3-0.7-2.7-1.3-4-2c-1.3-0.7-2.7-1.4-4-2.1c-1.3-0.7-2.6-1.4-3.8-2.1
				c-2.4-1.4-4.7-2.7-6.6-3.9c-1.9-1.2-3.4-2.3-4.5-3C344.5,408.3,343.9,407.8,343.9,407.8z"/>
		</g>
		<g>
			<path d="M436.8,671.6c0,0,0.8,0.1,2,0.4c1.1,0.3,2.6,0.9,3.9,1.6c1.4,0.7,2.7,1.6,3.5,2.4c0.2,0.2,0.5,0.4,0.6,0.5
				c0.1,0.1,0.3,0.2,0.4,0.2l0,0c0,0,0,0,0,0l0,0l0,0c0,0,0,0,0,0.1c0,0.1,0,0,0,0c0,0,0-0.1-0.1-0.1c-0.1-0.1-0.1,0-0.1,0
				c0,0,0-0.1,0.1-0.1c0.1,0,0.1,0,0.2,0c0,0,0.1,0,0.1,0.2c0,0.1-0.1,0.1-0.1,0.2l0,0l0,0l0,0l0,0c-0.2,0.1-0.5,0.1-0.8,0.1
				c-0.3-0.1-0.5-0.1-0.8-0.2c-1.1-0.3-2.6-0.9-3.9-1.6c-1.4-0.7-2.6-1.6-3.5-2.4C437.3,672.2,436.8,671.6,436.8,671.6z"/>
		</g>
		<g>
			<path d="M444.1,665.8c0,0,1,0.1,2.3,0.5c1.3,0.4,3,1.1,4.7,1.9c1.6,0.8,3.2,1.8,4.3,2.7c1.1,0.8,1.8,1.6,1.8,1.6s-1-0.1-2.3-0.5
				c-1.3-0.4-3-1.1-4.7-1.9c-1.6-0.8-3.2-1.8-4.3-2.7C444.8,666.5,444.1,665.8,444.1,665.8z"/>
		</g>
		<g>
			<path d="M452.9,660c0,0,0.7,0,1.7,0.3c1,0.3,2.2,0.8,3.4,1.4c1.2,0.7,2.2,1.4,3,2.2c0.8,0.7,1.2,1.3,1.2,1.3s-0.7,0-1.7-0.3
				c-1-0.3-2.2-0.8-3.4-1.4c-1.2-0.7-2.2-1.5-3-2.2C453.3,660.6,452.9,660,452.9,660z"/>
		</g>
		<g>
			<path d="M461,654.3c0,0,0.6-0.1,1.3-0.1c0.8,0,1.7,0.3,2.6,0.8c0.9,0.5,1.7,1.1,2.1,1.7c0.5,0.6,0.7,1.2,0.7,1.2s-0.6,0-1.3-0.2
				c-0.7-0.2-1.6-0.5-2.4-0.9c-0.8-0.4-1.6-1-2.2-1.5C461.3,654.8,461,654.3,461,654.3z"/>
		</g>
	</g>
	<g>
		<path d="M216.2,393.1c0,0,4.3,0.1,11.8,0.4c3.7,0.1,8.3,0.2,13.5,0.3c5.2,0.1,11.1,0.1,17.5,0.2c6.4,0,13.4,0.1,20.7,0.1
			c7.3,0,15.1,0,23.1,0c8,0,16.3,0,24.7-0.1c8.4-0.1,17-0.1,25.5-0.2c8.5-0.1,17.1-0.2,25.5-0.2c8.4-0.1,16.7-0.2,24.7-0.3
			c8-0.1,15.8-0.2,23.1-0.3c7.3-0.1,14.3-0.3,20.7-0.4c6.4-0.2,12.3-0.3,17.5-0.5c5.2-0.2,9.7-0.3,13.5-0.5
			c7.5-0.3,11.7-0.5,11.7-0.5s-4.3,0.4-11.7,1.1c-3.7,0.3-8.3,0.6-13.5,1c-5.2,0.4-11.1,0.7-17.5,1.1c-6.4,0.3-13.3,0.7-20.7,0.9
			c-7.3,0.3-15.1,0.6-23.1,0.8c-8,0.2-16.3,0.4-24.7,0.6c-8.4,0.2-17,0.2-25.5,0.3c-8.6,0-17.1,0-25.5,0.1c-8.4,0-16.7-0.1-24.7-0.2
			c-8-0.1-15.8-0.3-23.1-0.4c-7.3-0.2-14.3-0.4-20.7-0.6c-6.4-0.2-12.3-0.5-17.5-0.8c-5.2-0.3-9.7-0.6-13.5-0.8
			C220.5,393.4,216.2,393.1,216.2,393.1z"/>
	</g>
	<g>
		<path d="M211.6,376.1c0,0,0.3,0.8,0.9,2.2c0.6,1.5,1.5,3.6,2.9,6.4c0.7,1.4,1.4,2.9,2.3,4.6c0.8,1.7,1.8,3.5,2.5,5.7
			c0.7,2.1,1,4.6,1.1,7.1c0,0.6,0,1.3-0.2,2c-0.2,0.7-0.5,1.3-0.8,1.9c-0.7,1.2-1.6,2.3-2.5,3.4c-0.9,1.1-1.9,2.2-2.6,3.5
			c-0.7,1.3-1.4,2.7-1.9,4.1c-1,2.9-1.5,6.2-1.5,9.6c0.1,6.8,2.3,14,4.4,21.7c1,3.9,2,7.8,3.1,11.9c1,4.1,1.9,8.4,2.9,12.7
			c1,4.4,1.8,8.9,2.7,13.5c0.9,4.6,1.7,9.3,2.5,14.2c3.3,19.3,5.9,40.4,8.2,62.8c2.3,22.3,4.3,45.9,6.7,70.3
			c0.6,6.1,1.3,12.2,1.9,18.4c0.4,3.1,0.7,6.2,1.1,9.3c0.4,3.1,0.6,6.3,1.5,9c0.4,1.4,1.1,2.6,2,3.7c0.5,0.5,0.9,1.1,1.5,1.5
			l0.2,0.2c0.1,0.1,0.1,0.1,0.2,0.2l0.5,0.4c0.3,0.2,0.6,0.4,0.9,0.6c2.5,1.6,5.4,2.7,8.4,3.6c1.5,0.4,3,0.9,4.5,1.2
			c1.6,0.3,3.1,0.7,4.7,1c1.6,0.3,3.1,0.6,4.7,0.8c1.6,0.2,3.1,0.4,4.7,0.6c12.7,1.4,25.6,1.2,38.6,0.7c6.5-0.3,13-0.6,19.5-0.8
			c6.5-0.2,13.1-0.4,19.6-0.6c26.1-0.6,52.2-1.3,77.9-1.9c6.4-0.2,12.9-0.1,18.9-1.2c3-0.6,5.9-1.5,8.2-3.3c1.2-0.9,2.2-2,3.2-3.1
			c0.5-0.5,1-1.2,1.5-1.8c0.5-0.6,0.9-1.2,1.4-1.8c3.5-4.9,5.7-10.8,6.9-16.7c1.2-6,1.5-12.1,1.5-18.2c0-6.1-0.2-12.1-0.2-18.2
			c0-3,0.2-6.1,0.4-9c0.2-3,0.4-5.9,0.7-8.8c0.8-11.7,1.4-23.2,2.1-34.5c0.3-5.6,0.7-11.1,1.1-16.6c0.2-2.7,0.4-5.4,0.6-8.1
			c0.1-1.3,0.2-2.7,0.2-4c0-1.3,0.1-2.6,0.1-3.9c0.1-10.5-1-20.7-1.2-30.5c-0.1-4.9,0-9.8,0.4-14.5c0.4-4.7,1.3-9.3,2.4-13.6
			c2.1-8.7,4.8-16.8,6.8-24.4c1-3.8,1.9-7.6,2.6-11.2c0.3-1.8,0.6-3.6,0.8-5.4c0.2-1.7,0.2-3.5,0.1-5.2c-0.3-6.8-2-13-3-18.6
			c-0.5-2.8-0.8-5.5-0.9-8.1c-0.1-2.6,0.1-5,0.5-7.2c0.7-4.4,1.4-8.1,2-11.1c0.6-3,1-5.3,1.2-6.9c0.2-1.6,0.4-2.4,0.4-2.4
			s-0.1,0.8-0.3,2.4c-0.2,1.6-0.5,3.9-1,6.9c-0.5,3-1.1,6.7-1.7,11.1c-0.3,2.2-0.5,4.5-0.4,7.1c0.1,2.5,0.5,5.2,1,8
			c1,5.6,2.8,11.7,3.2,18.7c0.1,1.7,0.1,3.5-0.1,5.3c-0.2,1.8-0.4,3.6-0.8,5.5c-0.6,3.7-1.5,7.5-2.4,11.3
			c-1.9,7.7-4.5,15.8-6.5,24.5c-1,4.3-1.8,8.8-2.2,13.4c-0.4,4.6-0.5,9.4-0.3,14.3c0.3,9.7,1.4,19.9,1.4,30.5c0,1.3,0,2.7-0.1,4
			c0,1.3-0.1,2.7-0.2,4c-0.2,2.7-0.4,5.4-0.6,8.1c-0.4,5.4-0.7,11-1,16.6c-0.6,11.2-1.1,22.7-1.9,34.5c-0.2,2.9-0.4,5.9-0.6,8.9
			c-0.2,3-0.4,5.9-0.4,8.9c0,6,0.2,12,0.2,18.2c0,6.2-0.3,12.4-1.5,18.7c-1.2,6.2-3.5,12.4-7.3,17.8c-0.5,0.7-1,1.3-1.5,2
			c-0.5,0.6-1,1.2-1.6,1.8c-1.1,1.2-2.2,2.4-3.6,3.5c-2.8,2.2-6.1,3.2-9.3,3.8c-6.5,1.2-13,1.1-19.4,1.3
			c-25.7,0.7-51.8,1.4-77.9,2.1c-6.5,0.2-13,0.3-19.6,0.5c-6.5,0.3-13,0.5-19.5,0.8c-13,0.5-26.1,0.7-39-0.8
			c-1.6-0.2-3.2-0.4-4.8-0.6c-1.6-0.2-3.2-0.6-4.8-0.8c-1.6-0.3-3.1-0.7-4.7-1c-1.6-0.4-3.2-0.8-4.7-1.3c-3.1-1-6.2-2.1-9.1-4
			c-0.4-0.2-0.7-0.5-1.1-0.7l-0.5-0.4c-0.1,0-0.2-0.1-0.3-0.2l-0.2-0.2c-0.7-0.6-1.2-1.2-1.8-1.9c-1.1-1.4-1.9-3-2.4-4.6
			c-0.5-1.6-0.8-3.3-1-4.9c-0.2-1.6-0.4-3.1-0.6-4.7c-0.4-3.1-0.7-6.2-1.1-9.3c-0.6-6.2-1.3-12.3-1.9-18.4
			c-2.4-24.4-4.2-48-6.3-70.3c-2.1-22.3-4.5-43.4-7.7-62.7c-0.8-4.8-1.6-9.6-2.4-14.2c-0.9-4.6-1.7-9.1-2.6-13.5
			c-1-4.4-1.8-8.6-2.8-12.7c-1-4.1-2-8.1-2.9-12c-2-7.6-4.2-14.9-4.2-21.9c0-3.5,0.5-6.9,1.6-9.9c0.5-1.5,1.2-2.9,2-4.2
			c0.8-1.3,1.8-2.4,2.7-3.5c0.9-1.1,1.8-2.1,2.5-3.3c0.3-0.6,0.6-1.1,0.8-1.7c0.2-0.6,0.2-1.2,0.2-1.8c0-2.5-0.3-4.9-0.9-7
			c-0.6-2.1-1.5-4-2.3-5.7c-0.8-1.7-1.5-3.2-2.2-4.6c-1.3-2.8-2.2-5-2.7-6.4C211.9,376.8,211.6,376.1,211.6,376.1z"/>
	</g>
</g>
</svg>
