<?xml version="1.0" encoding="utf-8"?>
<!-- Generator: Adobe Illustrator 19.2.0, SVG Export Plug-In . SVG Version: 6.00 Build 0)  -->
<svg version="1.1" id="Layer_1" xmlns="http://www.w3.org/2000/svg" xmlns:xlink="http://www.w3.org/1999/xlink" x="0px" y="0px"
	 viewBox="0 0 460 343.9" style="enable-background:new 0 0 460 343.9;" xml:space="preserve">
<style type="text/css">
	.st0{fill:none;stroke:#000000;stroke-width:5;stroke-miterlimit:10;}
	.st1{opacity:0.9;fill:url(#SVGID_1_);enable-background:new    ;}
	.st2{fill:url(#SVGID_2_);}
</style>
<path class="st0" d="M6588.6-926.7c0.3,38.5,0.2,82.4-5.7,120.5c-2.3,14.7-3.7,31.7-10.6,44.9c-9.4,17.9-18.6,35.9-34,49.5
	c-5.5,4.9-11.5,9.2-17.9,12.8c-4.2,2.3-15.3,5.1-15.9,10.8c-0.4,3.6,3.8,5.7,6.9,7.6c6.9,4.3,10.9,12.3,11.6,20.4
	c1.5,15.4-5.6,30.7-18.9,38.8c-0.8,0.5-1.6,1-1.9,1.8c-0.7,2.1,2.1,3.4,4.2,3.8c12.1,2.1,24,5,35.7,8.7c7.7,2.4,24.3,10.6,12,18.5
	c-7.7,4.9-17,6.2-26,7.3c-24.7,3.1-49.7,6.2-74.5,3.9c-5.6-0.5-11.2-1.4-16.8-2.2l-22.5-3.3c-5.3-0.8-11.8-2.7-12.7-7.9
	c-1.7-10.2,16.6-15.1,23.6-17.2c4.9-1.5,36.5-4.6,35.6-9.3c-0.5-2.4-2.8-3.9-4.8-5.4c-8.9-6.4-15-16.4-16.6-27.2
	c-1.6-10.8,1.3-22.2,7.9-30.9c2.2-2.9,4.9-6,4.4-9.6c-0.2-1.5-1-2.9-2-4.1c-5.1-6.7-15.9-9.5-22.8-14.7c-7.9-6-15.2-12.8-21.6-20.4
	c-12.5-14.5-22.1-31.5-27.6-49.9c-5.2-17.2-6.9-35.3-8.2-53.2c-2.3-31-3.6-62-3.8-93.1c20.2-2.4,42-1.8,62.4-1.4
	C6480.9-926.1,6588.6-928.8,6588.6-926.7L6588.6-926.7z"/>
<path d="M6462-611.8v1.9c0,0.6,0.1,1.3,0.6,1.9c0.4,0.6,1.2,0.8,2.2,0.8c2.1-0.1,4.5-0.2,7.1-0.2c1.3,0,2.7-0.1,4-0.1
	c1.4-0.1,2.8-0.1,4.1-0.2c1.4-0.1,2.8-0.1,4.1-0.2c1.4-0.1,2.7-0.1,4-0.2c2.6-0.1,5-0.2,7.1-0.3c2-0.1,3.7-0.6,4.6-1.3
	c0.4-0.4,0.7-0.8,0.8-1.1c0.1-0.3,0.2-0.5,0.2-0.5v0.5c-0.1,0.3-0.2,0.8-0.6,1.3s-1.1,1-1.9,1.4c-0.8,0.4-1.8,0.7-2.8,0.8
	c-2.1,0.4-4.5,0.7-7.1,0.9c-1.3,0.1-2.7,0.3-4,0.4c-1.4,0.1-2.8,0.2-4.2,0.2c-1.4,0-2.8,0.1-4.2,0.1h-4.1c-2.6-0.1-5.1-0.2-7.2-0.4
	c-0.5-0.1-1.1-0.1-1.6-0.4s-0.9-0.7-1.1-1.1c-0.4-0.9-0.4-1.7-0.3-2.3c0.1-0.6,0.2-1.1,0.3-1.4C6461.9-611.6,6462-611.8,6462-611.8
	L6462-611.8z M6461.6-696.4c0,0,0.6,0.2,1.6,0.5c0.5,0.2,1.2,0.3,1.9,0.5s1.6,0.4,2.4,0.5c0.9,0.2,1.9,0.3,2.9,0.5
	c1,0.1,2.1,0.2,3.3,0.3c1.1,0.1,2.3,0.1,3.5,0.2h3.6c1.2,0,2.5,0,3.7-0.1c1.2,0,2.4-0.1,3.6-0.1c2.3-0.1,4.5-0.1,6.3-0.3
	c1.8-0.2,3.2-0.6,4.1-1.2c0.4-0.3,0.8-0.6,1-0.8l0.3-0.3c0,0-0.1,0.1-0.2,0.4c-0.2,0.3-0.4,0.6-0.8,1c-0.8,0.8-2.3,1.6-4.2,2
	c-0.9,0.2-2,0.4-3,0.5c-1.1,0.1-2.2,0.3-3.3,0.4l-3.6,0.3c-1.2,0.1-2.5,0.1-3.7,0.2c-1.3,0-2.5,0-3.7-0.1c-0.6,0-1.2-0.1-1.8-0.1
	c-0.6-0.1-1.2-0.1-1.8-0.2c-1.2-0.1-2.3-0.4-3.4-0.6c-0.5-0.1-1-0.3-1.5-0.4c-0.5-0.2-1-0.3-1.4-0.4c-1.8-0.6-3.2-1.3-4.2-1.8
	C6462.2-696.1,6461.6-696.4,6461.6-696.4L6461.6-696.4z M6411.5-594.3l0.3,0.3c0.2,0.2,0.5,0.4,1,0.6c0.9,0.5,2.3,1,4.2,1.4
	c1.9,0.4,4.2,0.7,6.8,1.1c2.6,0.4,5.6,0.7,8.9,1.1c3.3,0.3,6.8,0.7,10.6,1c3.7,0.3,7.7,0.5,11.8,0.7c8.2,0.3,17,0.5,25.7,0.6
	c4.4,0.1,8.8,0.1,13.1,0.2c4.3,0,8.5,0.1,12.6,0c4.1-0.1,8-0.4,11.7-0.8c3.7-0.5,7.2-1.1,10.4-1.7c6.4-1.4,11.6-3,15.2-4.3
	c1.8-0.7,3.2-1.2,4.2-1.6l1.5-0.6c0,0-0.5,0.2-1.4,0.7c-0.9,0.4-2.3,1.1-4.1,1.8c-3.5,1.5-8.7,3.5-15.1,5.1
	c-6.4,1.6-14.1,2.9-22.3,3.2c-4.1,0.2-8.4,0.2-12.7,0.2c-4.3,0-8.7-0.1-13.1-0.1c-4.4-0.1-8.8-0.2-13.1-0.3
	c-4.3-0.1-8.6-0.4-12.7-0.6c-4.1-0.3-8.1-0.6-11.8-1c-3.8-0.4-7.3-0.8-10.6-1.3c-1.6-0.3-3.2-0.5-4.7-0.7c-1.5-0.3-2.9-0.5-4.2-0.8
	c-2.6-0.5-4.9-1-6.8-1.5s-3.3-1.1-4.1-1.7c-0.4-0.3-0.7-0.5-0.9-0.7C6411.6-594.2,6411.5-594.3,6411.5-594.3L6411.5-594.3z"/>
<linearGradient id="SVGID_1_" gradientUnits="userSpaceOnUse" x1="6378.7998" y1="1295.6987" x2="6584.7002" y2="1295.6987" gradientTransform="matrix(1 0 0 -1 0 490.82)">
	<stop  offset="1.800000e-02" style="stop-color:#801FE3"/>
	<stop  offset="1" style="stop-color:#B7A7FF"/>
</linearGradient>
<path class="st1" d="M6378.8-898.5c1.4,24.4,2.7,48.8,4.1,73.2c0.4,7.9,0.9,15.9,2.2,23.7c1.8,11.1,5.4,21.8,8.9,32.5
	c3,9.1,6,18.2,11.1,26.3c17.8,28.1,51.5,32.7,81.9,31.3c10.6-0.5,21.3-1.5,31.5-4.7c66.9-21.3,65.2-117,66.1-172.7
	c0-2.6,0.1-5.1,0.1-7.7C6516-894.4,6447.2-892.6,6378.8-898.5L6378.8-898.5z"/>
<path d="M6373.7-918.2c0,0,0.6,8.1,1.5,22.2c0.5,7.1,1,15.6,1.7,25.5c0.6,9.8,1.4,20.9,2.1,33.1c0.4,6.1,0.7,12.4,1.3,18.9
	c0.5,6.5,1.4,13.2,3,19.9c1.6,6.7,3.7,13.5,6,20.4c2.4,6.9,4.5,14,7.5,20.9c0.8,1.7,1.5,3.4,2.4,5.1c0.9,1.6,1.8,3.3,2.8,4.8
	c1.1,1.6,2.2,3.1,3.4,4.7c1.2,1.4,2.5,2.8,3.7,4.3c5.3,5.5,11.7,10,18.8,13.2c7.1,3.3,14.8,5.4,22.6,6.6c7.9,1.3,15.9,1.7,23.9,1.7
	c8-0.1,16.1-0.4,24-1.5c3.9-0.5,7.9-1.2,11.7-2.2c1-0.3,1.9-0.5,2.8-0.8l0.7-0.2h0.1l0.2-0.1l0.4-0.1l1.4-0.5l2.8-1
	c0.5-0.2,0.9-0.3,1.4-0.5l1.3-0.6c7.1-3.1,13.7-7.4,19.4-12.5c5.7-5.1,10.5-11.1,14.4-17.5c4-6.3,7.1-13.1,9.7-19.8
	c2.6-6.8,4.6-13.6,6.3-20.3c3.2-13.5,5-26.5,6.2-38.5c1.1-12.1,1.7-23.2,2-33c0.3-9.9,0.5-18.4,0.7-25.5c0.2-14.2,0.4-22.2,0.4-22.2
	s0,2,0.1,5.8c0,3.8,0.1,9.4,0.2,16.4c0,7.1,0,15.7-0.2,25.5c-0.1,9.9-0.5,21-1.5,33.1c-1,12.1-2.6,25.2-5.7,38.9
	c-1.6,6.8-3.6,13.7-6.1,20.6c-2.5,6.9-5.7,13.8-9.8,20.3c-4,6.5-9,12.7-14.8,18.1c-5.9,5.4-12.7,9.8-20.2,13.1l-1.4,0.6
	c-0.5,0.2-0.9,0.4-1.4,0.5l-2.8,1l-1.4,0.5l-0.4,0.1l-0.2,0.1l-0.2,0.1l-0.7,0.2c-1,0.3-2,0.6-2.9,0.8c-3.9,1-8,1.8-12,2.4
	c-8.1,1.1-16.2,1.5-24.4,1.6c-8.2,0-16.3-0.5-24.4-1.8c-8-1.3-16-3.5-23.3-7c-7.4-3.4-14.1-8.1-19.6-13.9c-1.3-1.5-2.6-3.1-3.9-4.6
	c-1.1-1.6-2.2-3.2-3.3-4.7c-2.2-3.4-3.9-6.8-5.4-10.4c-3-7.1-5.2-14.2-7.5-21.2c-2.2-7-4.3-13.9-5.8-20.7
	c-1.6-6.9-2.4-13.6-2.8-20.2c-0.5-6.6-0.7-12.9-1-18.9c-0.6-12.1-1.1-23.2-1.6-33.1c-0.5-9.9-0.8-18.4-1.2-25.5
	C6374-910.2,6373.7-918.2,6373.7-918.2L6373.7-918.2z"/>
<path d="M6374.1-902.8c0,0,0.8,0,2.4,0.1s3.8,0.2,6.7,0.3c2.9,0.2,6.4,0.3,10.5,0.5c4,0.2,8.6,0.3,13.6,0.5s10.4,0.3,16.1,0.5
	s11.7,0.2,17.9,0.4c6.2,0.1,12.6,0.1,19.2,0.2c6.5,0.1,13.2,0,19.8,0.1c6.6,0,13.3,0,19.8-0.1s13-0.1,19.2-0.2
	c12.5-0.1,24.1-0.2,34-0.3c10-0.1,18.3-0.1,24.1-0.1h9.1c0,0-0.8,0.1-2.4,0.2c-1.6,0.1-3.8,0.2-6.7,0.4c-5.8,0.3-14.1,0.8-24.1,1.3
	s-21.6,0.9-34,1.3c-6.2,0.1-12.7,0.4-19.2,0.4c-6.5,0.1-13.2,0.1-19.8,0.2c-6.6,0-13.3,0-19.8-0.2c-6.5-0.1-13-0.3-19.2-0.4
	c-6.2-0.2-12.3-0.4-18-0.8c-2.9-0.2-5.6-0.3-8.3-0.5c-2.7-0.2-5.3-0.4-7.8-0.5c-2.5-0.2-4.9-0.3-7.1-0.5c-2.3-0.2-4.4-0.4-6.4-0.6
	c-4-0.4-7.6-0.7-10.4-1c-2.9-0.3-5.2-0.6-6.7-0.7C6374.9-902.7,6374.1-902.8,6374.1-902.8L6374.1-902.8z"/>
<linearGradient id="SVGID_2_" gradientUnits="userSpaceOnUse" x1="86.0975" y1="306.7754" x2="368.5951" y2="306.7754" gradientTransform="matrix(1 0 0 -1 0 490.82)">
	<stop  offset="0" style="stop-color:#A3FF7F"/>
	<stop  offset="0.998" style="stop-color:#EBFFDD"/>
</linearGradient>
<path class="st2" d="M364.9,39.8c0.2-1.1,0.3-2.3,0.5-3.4c-1.4,0.2-2.8,0.3-4.3,0.4c-88.3,3.6-176.9,3.9-265.3,1h-1.1
	c0.7,3.3,1.1,6.5,1.1,9.9c0,3.6-4.4,6.8-6.4,10.3c-6.3,11.3-2.2,23.4,0.9,35.1c19.1,71.2,20.2,145,28.9,216.8
	c0.5,4.1,1.1,8.5,5.3,12c3.4,2.9,8.9,4.7,14.5,6.1c24.9,6,51.9,3,77.9,2.3c32.7-0.8,65.3-1.7,98-2.5c7.1-0.2,14.9-0.5,20.1-3.2
	c2.7-1.4,4.4-3.2,6-5.1c16-17.8,9.8-44.6,11.4-64.4c1.9-23.1,2.5-46.2,4.4-69.3c1.7-20.9-3.6-41.5,0.7-62.6
	c3.1-14.8,8.9-29.5,10.8-44.4C370.1,65.3,363,52.8,364.9,39.8L364.9,39.8z"/>
<path class="st0" d="M75.6,10.4c2,11.5,9.9,37.2,9.1,39.2c-0.6,1.7-2.4,3.2-3.7,4.8c-5.8,7.1-1.4,18.3-0.9,25.9
	c0.6,10.8,10.4,51.8,11.2,62.5c5.3,68.4,12.4,106,13.5,174.6c0.1,5.1,0.4,10.8,6.4,14.6c3.6,2.3,8.7,3.7,13.8,4.7
	c13.9,2.9,28.7,4.4,43.5,4.2c40.2-0.4,79.2-0.8,119.4-1.5c18.7-0.3,37.3-0.7,56-1c8.8-0.2,12.5-2.3,16.1-6.8s7.9-116.8,9.2-133.4
	c3.3-41.7-1.6-71,11.8-112.2c1.3-3.9,4.1-13.1,3.3-25.7c-0.5-8.6-7.9-24.2-7.5-27.5c1.2-10.5,2.4-14.9,3.5-25.4
	C366.5,6.9,150.3,4.9,75.6,10.4L75.6,10.4z"/>
<path d="M255.3,93.9c0,0,1-0.7,2.7-1.8c1.7-1.1,4.2-2.8,7.2-4.7c3-1.9,6.5-4.1,10.3-6.5c1.9-1.2,3.9-2.4,5.9-3.6s4-2.4,6.1-3.6
	s4.1-2.4,6.1-3.6s4-2.3,6-3.4c3.9-2.2,7.5-4.2,10.6-5.9c3.1-1.7,5.8-3.1,7.6-4c1.8-1,2.9-1.5,2.9-1.5s-1,0.7-2.7,1.8
	c-1.7,1.1-4.2,2.8-7.2,4.7c-3,1.9-6.5,4.1-10.3,6.5c-1.9,1.2-3.9,2.4-5.9,3.6s-4,2.4-6.1,3.6s-4.1,2.4-6.1,3.6s-4,2.3-6,3.4
	c-3.9,2.2-7.5,4.2-10.6,5.9c-3.1,1.7-5.8,3.1-7.6,4.1C256.4,93.3,255.3,93.9,255.3,93.9z M266.1,102.5c0,0,0.9-0.7,2.5-1.9
	s3.9-2.9,6.8-4.8c2.8-2,6.2-4.2,9.8-6.5c1.8-1.1,3.7-2.4,5.6-3.5c1.9-1.2,3.9-2.4,5.9-3.6s4-2.3,5.9-3.5c1.9-1.1,3.9-2.2,5.8-3.3
	c3.8-2.1,7.3-4,10.4-5.5c3.1-1.6,5.7-2.8,7.5-3.7c1.8-0.9,2.9-1.3,2.9-1.3s-1,0.6-2.7,1.7s-4.2,2.6-7.1,4.4s-6.4,3.8-10.1,6.1
	c-3.7,2.2-7.6,4.6-11.6,6.9c-3.9,2.3-7.9,4.7-11.6,6.9c-3.7,2.2-7.2,4.2-10.1,6c-3,1.7-5.5,3.2-7.2,4.2
	C267.1,101.9,266.1,102.5,266.1,102.5L266.1,102.5z M276.7,110.3c0,0,0.8-0.7,2.3-2c0.7-0.6,1.7-1.4,2.7-2.2c1-0.9,2.2-1.8,3.5-2.8
	s2.7-2.1,4.3-3.2c1.5-1.1,3.2-2.3,4.9-3.5c1.7-1.2,3.5-2.4,5.3-3.6s3.7-2.4,5.6-3.6s3.8-2.3,5.7-3.4c1.9-1.1,3.8-2.1,5.6-3.2
	c1.8-1,3.6-2,5.3-2.8c1.7-0.9,3.3-1.7,4.8-2.4s2.9-1.4,4.1-1.9c1.2-0.6,2.3-1,3.2-1.4c1.8-0.8,2.8-1.2,2.8-1.2s-0.9,0.6-2.6,1.6
	s-4.1,2.4-6.9,4.1c-2.9,1.7-6.2,3.6-9.7,5.8c-1.8,1.1-3.6,2.2-5.5,3.3c-1.9,1.1-3.7,2.3-5.6,3.4c-1.9,1.2-3.8,2.3-5.6,3.5
	c-1.8,1.2-3.6,2.3-5.4,3.4c-3.5,2.2-6.7,4.4-9.5,6.2C280.4,107.8,276.7,110.3,276.7,110.3L276.7,110.3z M289.2,117.5
	c0,0,0.8-0.7,2.2-1.9c0.7-0.6,1.6-1.3,2.6-2.1s2.1-1.7,3.4-2.7s2.6-2,4.1-3.1s3-2.2,4.7-3.3c1.6-1.1,3.3-2.3,5.1-3.4
	c1.7-1.1,3.5-2.3,5.3-3.4l5.4-3.3c1.8-1.1,3.5-2.1,5.2-3.1c3.4-2,6.6-3.8,9.4-5.3s5.1-2.7,6.8-3.6L346,81l-2.4,1.6
	c-1.5,1-3.7,2.5-6.4,4.2c-2.6,1.7-5.8,3.7-9.1,5.8c-3.3,2.1-6.9,4.3-10.5,6.6c-3.6,2.2-7.1,4.5-10.4,6.6s-6.4,4.1-9.1,5.8
	C292.8,115.2,289.2,117.5,289.2,117.5L289.2,117.5z M304.6,124.9c0,0,2.7-2.6,7.1-6.1c2.1-1.8,4.7-3.9,7.4-6
	c1.4-1.1,2.8-2.2,4.3-3.3l4.5-3.3l4.5-3.3c1.5-1.1,3-2.1,4.4-3.1c2.9-2,5.6-3.8,7.9-5.3c4.7-3.1,7.9-4.9,7.9-4.9s-2.9,2.4-7.3,5.9
	c-2.2,1.7-4.8,3.7-7.6,5.8c-1.4,1.1-2.8,2.2-4.3,3.2l-4.5,3.3l-4.5,3.3c-1.5,1.1-3,2.1-4.4,3.2c-2.8,2-5.5,3.9-7.8,5.5
	C307.7,122.9,304.6,124.9,304.6,124.9L304.6,124.9z M314.6,131.8c0,0,2.2-2.3,5.7-5.6c1.8-1.6,3.8-3.5,6.1-5.4c1.2-1,2.3-2,3.6-2.9
	c1.2-1,2.5-2,3.7-3c1.3-1,2.6-1.9,3.8-2.9c1.2-1,2.5-1.8,3.7-2.7c2.4-1.7,4.8-3.3,6.8-4.6c4-2.6,6.8-4.1,6.8-4.1s-0.6,0.5-1.7,1.4
	s-2.6,2.2-4.5,3.6c-1.9,1.5-4.1,3.2-6.4,5c-2.4,1.8-4.9,3.8-7.4,5.7c-2.5,1.9-5,3.9-7.4,5.7c-2.4,1.8-4.6,3.5-6.5,4.9
	s-3.5,2.6-4.6,3.4C315.2,131.3,314.6,131.8,314.6,131.8z M337.9,52.4c0,0,1.9,1.2,4.5,3.1c1.3,1,2.8,2.1,4.4,3.4
	c0.8,0.6,1.6,1.3,2.4,2s1.7,1.4,2.5,2.1s1.6,1.4,2.4,2.2c0.8,0.7,1.6,1.4,2.3,2.1c1.5,1.4,2.9,2.7,4,3.9c2.3,2.3,3.7,4,3.7,4
	s-1.9-1.2-4.5-3.1c-1.3-1-2.8-2.1-4.4-3.4c-0.8-0.6-1.6-1.3-2.4-2s-1.6-1.4-2.5-2.1c-0.8-0.7-1.6-1.4-2.4-2.2
	c-0.8-0.7-1.6-1.4-2.3-2.1c-1.5-1.4-2.9-2.7-4-3.9C339.3,54,337.9,52.4,337.9,52.4z M348.5,48.2c0,0,1.3,0.5,3.1,1.5
	c0.9,0.5,1.9,1.1,3,1.8s2.2,1.4,3.3,2.2c1.1,0.8,2.2,1.6,3.1,2.4c1,0.8,1.9,1.6,2.6,2.3c1.5,1.4,2.4,2.4,2.4,2.4s-1.3-0.5-3.1-1.5
	c-0.9-0.5-1.9-1.1-3-1.8s-2.2-1.4-3.3-2.2c-1.1-0.8-2.2-1.6-3.1-2.4c-1-0.8-1.9-1.6-2.6-2.3C349.4,49.2,348.5,48.2,348.5,48.2z
	 M273.1,46.8c0,0,1.3,0.5,3.1,1.5c0.9,0.5,1.9,1.1,3,1.7c1.1,0.7,2.2,1.4,3.3,2.2c1.1,0.8,2.2,1.6,3.2,2.4s1.9,1.5,2.6,2.2
	c1.5,1.4,2.4,2.4,2.4,2.4s-1.3-0.5-3.1-1.5c-0.9-0.5-1.9-1.1-3-1.7c-1.1-0.7-2.2-1.4-3.3-2.2c-1.1-0.8-2.2-1.6-3.2-2.4
	s-1.9-1.5-2.6-2.2L273.1,46.8z M245.6,48.1c0,0,2.2,0.7,5.4,2.1c1.6,0.7,3.4,1.5,5.4,2.5l3,1.5c1,0.5,2,1.1,3,1.6c1,0.6,2,1.1,3,1.7
	s1.9,1.2,2.9,1.7c1.8,1.1,3.5,2.2,5,3.2c2.9,1.9,4.7,3.4,4.7,3.4s-2.1-0.9-5.2-2.4c-1.6-0.8-3.3-1.7-5.3-2.7c-0.9-0.5-1.9-1-2.9-1.6
	c-1-0.5-2-1.1-3-1.6c-2-1.1-4-2.2-5.9-3.3c-1.9-1.1-3.6-2.1-5.1-3C247.5,49.4,245.6,48.1,245.6,48.1L245.6,48.1z M199.6,51.8
	c0,0,3.6,1.4,8.9,3.7c2.6,1.2,5.7,2.6,9,4.1c1.6,0.8,3.3,1.6,5,2.4s3.4,1.7,5.1,2.6s3.4,1.8,5.1,2.6c1.7,0.9,3.3,1.8,4.9,2.6
	c3.2,1.7,6.1,3.4,8.6,4.8c5,2.9,8.2,5,8.2,5s-3.6-1.5-8.8-4c-2.6-1.2-5.6-2.7-8.9-4.3c-1.6-0.8-3.3-1.6-5-2.5s-3.4-1.7-5.1-2.6
	s-3.4-1.8-5.1-2.6c-1.7-0.9-3.3-1.7-4.9-2.6c-3.2-1.7-6.2-3.3-8.7-4.7C202.9,53.8,199.6,51.8,199.6,51.8L199.6,51.8z M172.3,50.6
	c0,0-0.3,0.3-0.1,0.8c0.2,0.5,0.8,1.1,1.7,1.8c0.9,0.7,1.9,1.5,3.1,2.4c0.6,0.4,1.3,0.9,2,1.4s1.4,1,2.2,1.5c0.8,0.5,1.6,1,2.4,1.6
	c0.9,0.5,1.7,1.1,2.7,1.6c1.8,1.1,3.8,2.2,5.8,3.4c2,1.1,4.2,2.3,6.4,3.4s4.4,2.2,6.7,3.3c2.2,1.1,4.5,2.2,6.7,3.2l6.6,3
	c4.3,1.9,8.3,3.7,11.7,5.2c3.4,1.5,6.3,2.8,8.3,3.7c2,0.9,3.1,1.4,3.1,1.4l-3.3-1.1c-2.1-0.7-5-1.7-8.6-3c-3.5-1.3-7.6-2.9-12-4.6
	c-2.2-0.9-4.4-1.8-6.7-2.8c-2.3-1-4.5-2.1-6.8-3.1c-2.2-1.1-4.5-2.2-6.7-3.4c-2.2-1.1-4.3-2.4-6.3-3.6s-4-2.4-5.7-3.6
	c-0.9-0.6-1.8-1.2-2.6-1.8l-2.4-1.8c-1.5-1.1-2.8-2.3-4-3.2c-1.1-1-2.1-1.9-2.9-2.7c-0.8-0.7-1.4-1.4-1.6-2c-0.1-0.3,0-0.5,0.1-0.7
	C172.2,50.6,172.3,50.6,172.3,50.6L172.3,50.6z M162.1,132.9c0,0,0.9-0.5,2.5-1.4s3.8-2.2,6.6-3.8c1.3-0.8,2.8-1.7,4.3-2.6
	s3.1-1.9,4.8-2.9c1.7-1,3.3-2.1,5.1-3.2c1.7-1.1,3.4-2.3,5.2-3.4l5.1-3.6c1.6-1.2,3.3-2.4,4.8-3.6c3.1-2.3,5.9-4.7,8.6-6.4
	c2.6-1.8,5-3,6.6-3.8c0.8-0.4,1.5-0.6,2-0.8c0.5-0.2,0.7-0.3,0.7-0.3s-0.9,0.5-2.5,1.4s-3.7,2.4-6.1,4.3s-5.1,4.4-8.2,6.9
	c-1.5,1.2-3.1,2.5-4.8,3.7c-1.7,1.2-3.4,2.5-5.1,3.6c-3.5,2.3-7,4.6-10.5,6.5c-1.7,1-3.4,1.9-5,2.7c-1.6,0.8-3.1,1.6-4.5,2.3
	c-2.8,1.4-5.2,2.4-6.9,3.1C163.1,132.5,162.1,132.9,162.1,132.9L162.1,132.9z M148.9,125.5c0,0,0.8-0.5,2.3-1.5
	c1.5-0.9,3.6-2.3,6.1-3.9s5.5-3.4,8.6-5.4c3.2-2,6.5-4,9.9-6.1c6.7-4.2,13.5-8.3,18.6-11.4c2.5-1.5,4.7-2.8,6.2-3.7
	c1.5-0.9,2.4-1.4,2.4-1.4s-3.1,2.5-7.9,6.1c-2.4,1.8-5.2,3.8-8.3,5.8c-1.6,1-3.1,2.1-4.8,3.2c-1.7,1-3.3,2.1-5,3.2
	c-1.7,1-3.4,2.1-5.1,3.1s-3.4,1.9-5,2.9c-3.2,1.8-6.3,3.5-9,4.8C152.5,123.8,148.9,125.5,148.9,125.5L148.9,125.5z M134.9,117.5
	c0,0,0.9-0.6,2.4-1.5s3.7-2.3,6.4-3.8c2.6-1.6,5.7-3.4,9-5.4s6.8-4.1,10.3-6.3c1.7-1.1,3.5-2.2,5.2-3.2c1.7-1.1,3.4-2.1,5-3.2
	c3.2-2.1,6.3-4,8.8-5.7c2.6-1.7,4.7-3.1,6.2-4.1s2.4-1.5,2.4-1.5s-0.8,0.7-2.1,1.9c-0.7,0.6-1.5,1.3-2.5,2.1s-2.1,1.7-3.3,2.6
	c-1.2,1-2.6,2-4,3s-2.9,2.1-4.5,3.2s-3.2,2.2-4.9,3.3c-1.7,1.1-3.4,2.2-5.2,3.3c-1.8,1.1-3.5,2.1-5.3,3.2c-1.7,1-3.5,2-5.2,3
	c-3.4,1.9-6.6,3.5-9.4,4.9s-5.1,2.4-6.8,3.2C135.8,117.1,134.9,117.5,134.9,117.5z M123,113.6c0,0,0.2-0.2,0.5-0.6s0.8-0.9,1.5-1.6
	c1.3-1.3,3.3-3.2,5.8-5.2s5.6-4.2,8.9-6.5c1.7-1.1,3.4-2.3,5.2-3.4c1.8-1.1,3.6-2.3,5.4-3.4s3.6-2.3,5.4-3.4s3.6-2.2,5.3-3.2
	c3.4-2.1,6.7-4,9.5-5.6s5.1-2.9,6.8-3.8c1.6-0.9,2.6-1.4,2.6-1.4s-0.9,0.6-2.4,1.7s-3.7,2.7-6.4,4.5c-2.7,1.8-5.8,3.9-9.1,6.1
	c-1.7,1.1-3.4,2.3-5.2,3.4c-1.8,1.1-3.6,2.3-5.4,3.4c-3.6,2.3-7.3,4.5-10.7,6.6c-3.4,2.1-6.6,4.1-9.2,5.9s-4.8,3.4-6.3,4.6
	c-0.7,0.6-1.3,1-1.7,1.4C123.3,113.5,123,113.6,123,113.6L123,113.6z M115.5,101c0,0,0.8-0.5,2.1-1.5c1.3-0.9,3.3-2.3,5.6-3.8
	c2.3-1.6,5-3.4,8-5.3c2.9-1.9,6.1-3.9,9.2-6c3.1-2,6.3-4,9.2-5.9c2.9-1.9,5.7-3.6,8.1-5.1s4.4-2.7,5.8-3.5s2.2-1.3,2.2-1.3
	s-2.8,2.4-7.3,5.8c-2.2,1.7-4.9,3.6-7.8,5.6c-1.4,1-2.9,2-4.5,3.1c-1.5,1-3.1,2-4.7,3.1c-1.6,1-3.2,2-4.7,3c-1.6,1-3.1,1.9-4.6,2.8
	c-3,1.8-5.9,3.4-8.3,4.8C118.9,99.4,115.5,101,115.5,101L115.5,101z M155.2,60.1c0,0-2.9,2.2-7.4,5.4c-2.2,1.6-4.9,3.4-7.8,5.3
	c-1.4,0.9-2.9,1.9-4.4,2.9s-3.1,2-4.6,2.9c-1.6,1-3.1,1.9-4.6,2.9s-3.1,1.9-4.5,2.8c-2.9,1.8-5.7,3.4-8.1,4.8
	c-2.4,1.4-4.4,2.5-5.8,3.3c-0.7,0.4-1.2,0.7-1.6,0.9l-0.6,0.3c0,0,0.2-0.1,0.5-0.4s0.8-0.7,1.4-1.2c1.3-1,3.1-2.4,5.4-3.9
	c2.2-1.6,4.9-3.4,7.7-5.3c1.4-0.9,2.9-1.9,4.4-2.9s3.1-2,4.6-2.9c1.6-1,3.1-1.9,4.6-2.9s3.1-1.9,4.5-2.7c2.9-1.8,5.7-3.4,8.1-4.7
	C151.9,61.8,155.2,60.1,155.2,60.1L155.2,60.1z M110.2,41.5c0,0,0.5,0.2,1.4,0.7s2.1,1.1,3.6,1.9s3.2,1.8,5.1,2.8
	c0.9,0.5,1.9,1.1,2.8,1.6c1,0.6,1.9,1.1,2.9,1.7s1.9,1.2,2.9,1.8l2.7,1.8c1.8,1.2,3.4,2.3,4.7,3.4c2.7,2,4.4,3.6,4.4,3.6
	s-0.5-0.2-1.4-0.7s-2.1-1.1-3.6-1.9s-3.2-1.8-5-2.8c-0.9-0.5-1.9-1.1-2.8-1.6c-1-0.6-1.9-1.2-2.9-1.7c-1-0.6-1.9-1.2-2.9-1.8
	l-2.7-1.8c-1.8-1.2-3.4-2.3-4.7-3.3C111.9,43.1,110.2,41.5,110.2,41.5L110.2,41.5z M108.1,51.3l1.2,0.3c0.4,0.1,0.8,0.2,1.4,0.4
	c0.5,0.2,1.1,0.4,1.7,0.6c0.6,0.2,1.3,0.5,2,0.8s1.5,0.6,2.2,1c1.5,0.7,3.1,1.7,4.6,2.7s3,2.1,4.2,3.2c0.7,0.5,1.2,1.1,1.8,1.7
	c0.5,0.6,1,1.1,1.5,1.6c0.9,1,1.5,2,2,2.6c0.4,0.7,0.7,1.1,0.7,1.1s-0.4-0.3-1-0.8c-0.3-0.3-0.7-0.5-1.1-0.9
	c-0.4-0.4-0.9-0.7-1.4-1.2c-1-0.8-2.2-1.8-3.6-2.7c-0.6-0.5-1.4-1-2.1-1.5c-0.7-0.5-1.4-1-2.2-1.5c-0.7-0.5-1.5-1-2.2-1.4
	s-1.4-0.9-2.2-1.4c-1.4-0.9-2.7-1.7-3.9-2.4c-1.1-0.7-2.1-1.3-2.8-1.7C108.5,51.6,108.1,51.3,108.1,51.3L108.1,51.3z M103.3,56.1
	c0,0,1.4,0.7,3.4,2c1,0.6,2.1,1.4,3.3,2.2c1.2,0.8,2.4,1.8,3.7,2.7c1.2,1,2.4,2,3.5,2.9c1.1,1,2.1,1.9,2.9,2.7
	c1.7,1.6,2.7,2.9,2.7,2.9s-1.4-0.7-3.4-2c-1-0.6-2.1-1.4-3.3-2.2c-1.2-0.8-2.4-1.8-3.7-2.7c-1.2-1-2.4-2-3.5-2.9
	c-1.1-1-2.1-1.9-2.9-2.7C104.3,57.3,103.3,56.1,103.3,56.1z M98,72.9c0,0,0.8,0.3,1.9,1c1.1,0.6,2.5,1.5,3.8,2.5s2.5,2.1,3.4,3
	s1.4,1.6,1.4,1.6s-0.9-0.2-2.1-0.7c-1.2-0.5-2.7-1.3-4-2.4c-1.3-1-2.5-2.2-3.3-3.3C98.3,73.7,98,72.9,98,72.9L98,72.9z M110.1,115.9
	c0,0,2.7,1.6,6.5,4.3c1,0.6,2,1.3,3.2,2c1.1,0.7,2.3,1.4,3.6,2.2c2.5,1.5,5.1,3.1,7.8,4.7c1.3,0.8,2.6,1.6,3.9,2.5
	c1.3,0.8,2.6,1.6,3.8,2.4c2.5,1.6,4.7,3.1,6.6,4.4c3.9,2.6,6.3,4.6,6.3,4.6s-2.8-1.3-6.9-3.6c-2.1-1.1-4.4-2.4-7-3.9
	c-1.3-0.7-2.6-1.5-3.9-2.3c-1.3-0.8-2.6-1.6-4-2.4c-1.3-0.8-2.6-1.7-3.9-2.5c-1.3-0.8-2.6-1.7-3.8-2.5s-2.4-1.6-3.5-2.4
	s-2.1-1.6-3-2.3C112.4,118,110.1,115.9,110.1,115.9L110.1,115.9z M110.9,128.4c0,0,1.9,0.9,4.7,2.3c1.4,0.7,3,1.6,4.7,2.6
	c0.9,0.5,1.7,1,2.6,1.5c0.9,0.5,1.8,1,2.7,1.6c0.9,0.5,1.8,1.1,2.7,1.6s1.7,1.1,2.6,1.6c1.7,1,3.2,2,4.5,2.9c2.6,1.7,4.3,3,4.3,3
	s-2-0.7-4.9-2c-1.4-0.6-3.1-1.4-4.8-2.4c-0.9-0.5-1.8-0.9-2.7-1.4l-2.7-1.5c-0.9-0.5-1.8-1.1-2.7-1.6s-1.7-1.1-2.6-1.6
	c-1.6-1.1-3.2-2.1-4.4-3.1L110.9,128.4L110.9,128.4z M115.3,139.7c0,0,1.3,0.4,3,1.3c0.9,0.4,1.9,1,2.9,1.6s2.1,1.3,3.2,2
	s2.1,1.5,3.1,2.2s1.8,1.4,2.6,2.1c1.5,1.3,2.4,2.3,2.4,2.3s-1.3-0.4-3-1.3c-0.9-0.4-1.9-1-2.9-1.6s-2.1-1.3-3.2-2s-2.1-1.5-3.1-2.2
	s-1.8-1.4-2.6-2.1C116.2,140.7,115.3,139.7,115.3,139.7L115.3,139.7z M117.6,150c0,0,0.6,0,1.5,0.3c0.8,0.2,1.8,0.7,2.7,1.3
	s1.7,1.4,2.3,2.1c0.5,0.7,0.8,1.2,0.8,1.2s-0.6,0-1.5-0.3c-0.8-0.2-1.8-0.7-2.7-1.3s-1.7-1.4-2.3-2.1
	C117.8,150.6,117.6,150,117.6,150L117.6,150z M121.2,171.3c0,0,1.9-1.9,5-4.5c1.5-1.3,3.4-2.8,5.3-4.3c1-0.8,2-1.6,3.1-2.3
	c1.1-0.8,2.2-1.5,3.3-2.3c1.1-0.7,2.2-1.5,3.3-2.2l3.3-2.1c2.1-1.3,4.2-2.5,5.9-3.5c3.5-1.9,6-3.1,6-3.1s-2.1,1.7-5.3,4
	c-1.6,1.2-3.5,2.5-5.6,4c-2.1,1.4-4.2,2.9-6.4,4.4c-2.2,1.5-4.4,3-6.5,4.4s-4,2.7-5.7,3.8C123.5,169.9,121.2,171.3,121.2,171.3
	L121.2,171.3z M121.2,182.8c0,0,2.4-2.1,6.2-5.1c1.9-1.5,4.1-3.2,6.5-5c1.2-0.9,2.4-1.8,3.7-2.7s2.6-1.9,3.9-2.8l3.9-2.7
	c1.3-0.9,2.6-1.8,3.8-2.6c2.5-1.7,4.8-3.2,6.9-4.5c1-0.6,1.9-1.2,2.8-1.7s1.6-0.9,2.3-1.1c0.7-0.3,1.2-0.4,1.6-0.4
	c0.4-0.1,0.6-0.1,0.6-0.1s-0.2,0.1-0.5,0.2s-0.8,0.4-1.5,0.7c-0.6,0.3-1.3,0.8-2.1,1.4c-0.8,0.6-1.6,1.3-2.6,2
	c-1.9,1.5-4.1,3.2-6.5,5c-1.2,0.9-2.4,1.8-3.7,2.7c-1.3,0.9-2.6,1.9-3.9,2.8l-3.9,2.7c-1.3,0.9-2.6,1.8-3.8,2.6
	c-2.5,1.7-4.8,3.2-6.9,4.5C124,181.3,121.2,182.8,121.2,182.8L121.2,182.8z M121.2,195.3c0,0,3-2.6,7.6-6.2c2.3-1.8,5-3.9,7.9-6.2
	c1.5-1.1,3-2.3,4.5-3.4s3.1-2.3,4.7-3.5c1.6-1.1,3.2-2.3,4.7-3.4c1.6-1.1,3.1-2.2,4.6-3.3c3-2.1,5.8-4,8.3-5.7
	c4.9-3.3,8.2-5.3,8.2-5.3s-3,2.6-7.6,6.2c-2.3,1.8-5,3.9-7.9,6.2c-1.5,1.1-3,2.3-4.5,3.4s-3.1,2.3-4.7,3.5c-1.6,1.1-3.2,2.3-4.7,3.4
	c-1.6,1.1-3.1,2.2-4.6,3.3c-3,2.1-5.8,4-8.3,5.7C124.5,193.3,121.2,195.3,121.2,195.3z M127.9,204.9c0,0,0.7-0.8,2.1-2.1
	c1.4-1.3,3.3-3.2,5.6-5.3c2.4-2.2,5.2-4.7,8.2-7.3c1.5-1.3,3.1-2.6,4.8-4c1.6-1.3,3.3-2.7,5-4l5.1-3.9c1.7-1.3,3.4-2.5,5-3.7
	c3.3-2.3,6.3-4.5,9-6.3s4.9-3.2,6.5-4.2s2.5-1.5,2.5-1.5s-0.8,0.7-2.3,1.9s-3.6,2.8-6.1,4.8c-5,3.9-11.8,9.2-18.5,14.5
	s-13.4,10.6-18.5,14.5c-2.5,2-4.6,3.6-6.1,4.8C128.8,204.3,127.9,204.9,127.9,204.9z M140.7,209.7c0,0,2.9-2.7,7.5-6.6
	c2.3-1.9,5-4.1,8-6.4c1.5-1.1,3-2.3,4.6-3.5s3.2-2.3,4.8-3.5c1.6-1.1,3.3-2.3,4.9-3.4c1.6-1.1,3.2-2.2,4.8-3.2
	c3.1-2.1,6.1-3.9,8.6-5.5c5.1-3.1,8.6-5,8.6-5s-0.8,0.6-2.2,1.7c-1.4,1-3.4,2.5-5.8,4.3s-5.2,3.8-8.3,6c-3,2.2-6.3,4.5-9.5,6.8
	s-6.5,4.6-9.5,6.8s-5.9,4.2-8.3,5.9c-2.5,1.7-4.5,3.1-5.9,4.1C141.6,209.1,140.7,209.7,140.7,209.7L140.7,209.7z M151.9,217.2
	c0,0,0.8-0.7,2.2-1.8c1.4-1.1,3.5-2.8,6-4.8c2.5-1.9,5.4-4.2,8.6-6.5c1.6-1.2,3.2-2.4,4.9-3.6c1.7-1.2,3.4-2.5,5.1-3.7l5.1-3.6
	c1.7-1.2,3.4-2.3,5-3.5c3.2-2.2,6.3-4.3,8.9-6c1.3-0.9,2.5-1.7,3.6-2.3c1.1-0.7,2.1-1.3,3-1.5c0.9-0.3,1.7-0.3,2.2-0.2
	s0.7,0.2,0.7,0.2s-0.3-0.1-0.8-0.1s-1.2,0.1-2,0.5c-0.8,0.3-1.7,1-2.7,1.8s-2.1,1.7-3.4,2.7c-2.5,1.9-5.4,4.2-8.6,6.5
	c-1.6,1.2-3.2,2.4-4.9,3.6c-1.7,1.2-3.4,2.5-5.1,3.7l-5.1,3.6c-1.7,1.2-3.4,2.3-5,3.5c-3.3,2.2-6.3,4.3-8.9,6s-4.9,3.1-6.4,4.1
	C152.8,216.6,151.9,217.2,151.9,217.2L151.9,217.2z M163.3,224.9c0,0,0.8-0.8,2.3-2c0.7-0.6,1.6-1.4,2.7-2.3c1-0.9,2.2-1.9,3.5-2.9
	c1.3-1.1,2.7-2.2,4.2-3.3c1.5-1.2,3.1-2.4,4.8-3.6c1.7-1.2,3.4-2.5,5.3-3.7c1.8-1.2,3.7-2.5,5.5-3.7c1.9-1.2,3.8-2.4,5.6-3.6
	c1.9-1.2,3.7-2.2,5.5-3.3s3.6-2.1,5.2-3c1.7-0.9,3.3-1.8,4.8-2.6s2.8-1.5,4.1-2.1c1.2-0.6,2.3-1.1,3.2-1.5c1.8-0.8,2.8-1.3,2.8-1.3
	s-0.9,0.6-2.6,1.6s-4,2.5-6.8,4.3s-6.1,3.8-9.6,6s-7.3,4.6-11,7c-1.9,1.2-3.7,2.4-5.5,3.6c-1.8,1.2-3.6,2.4-5.3,3.6
	c-3.4,2.3-6.6,4.5-9.4,6.4C167,222.3,163.3,224.9,163.3,224.9L163.3,224.9z M127.9,211.7l1.2,1.2c0.4,0.4,0.8,0.9,1.3,1.4
	s1.1,1.1,1.8,1.7c0.7,0.6,1.4,1.2,2.2,1.8l1.2,0.9c0.4,0.3,0.9,0.6,1.3,0.9c0.9,0.6,1.9,1.2,2.9,1.8s2,1.2,3.1,1.7
	c2.1,1.2,4.2,2.4,6,3.8c0.9,0.6,1.8,1.4,2.6,2c0.8,0.7,1.5,1.4,2.1,2c0.6,0.7,1.2,1.3,1.7,1.8s0.9,1.1,1.2,1.5c0.6,0.8,1,1.3,1,1.3
	s-0.5-0.4-1.3-1.1c-0.4-0.3-0.9-0.8-1.4-1.2c-0.6-0.5-1.2-1-1.9-1.5s-1.5-1.1-2.3-1.7c-0.8-0.6-1.7-1.2-2.7-1.8
	c-0.9-0.6-1.9-1.1-2.9-1.7c-1-0.6-2.1-1.1-3.1-1.7c-1-0.6-2.1-1.2-3.1-1.8c-0.5-0.3-1-0.6-1.5-1c-0.5-0.3-1-0.7-1.4-1
	c-0.4-0.4-0.9-0.7-1.3-1.1c-0.4-0.4-0.8-0.8-1.2-1.1c-0.8-0.7-1.4-1.5-2-2.2s-1.1-1.4-1.5-2c-0.5-0.6-0.8-1.1-1-1.6
	C128.3,212.2,127.9,211.7,127.9,211.7L127.9,211.7z M124.8,223.4c0,0,1.8,1,4.3,2.7c1.3,0.8,2.7,1.9,4.2,3c0.8,0.6,1.5,1.1,2.3,1.7
	l2.4,1.8l2.4,1.8c0.8,0.6,1.6,1.2,2.3,1.8c1.5,1.2,2.9,2.3,4,3.2c2.3,1.9,3.8,3.4,3.8,3.4s-1.8-0.9-4.4-2.4
	c-1.3-0.8-2.8-1.7-4.4-2.7c-0.8-0.5-1.6-1-2.4-1.6l-2.4-1.8c-1.6-1.2-3.2-2.5-4.6-3.7s-2.7-2.4-3.8-3.5
	C126.2,224.9,124.8,223.4,124.8,223.4L124.8,223.4z M125.7,236.4c0,0,1.4,0.6,3.3,1.7c1,0.5,2.1,1.2,3.2,2c1.2,0.8,2.4,1.6,3.5,2.5
	c1.2,0.9,2.3,1.8,3.4,2.7s2,1.7,2.8,2.5c1.6,1.5,2.6,2.6,2.6,2.6s-1.4-0.6-3.3-1.7c-1-0.5-2.1-1.2-3.2-2c-1.2-0.8-2.4-1.6-3.5-2.5
	c-1.2-0.9-2.3-1.8-3.4-2.7c-1.1-0.9-2-1.7-2.8-2.5C126.7,237.6,125.7,236.4,125.7,236.4L125.7,236.4z M125.4,248.3
	c0,0,0.9,0.2,2,0.7s2.6,1.3,3.9,2.3c1.3,1,2.6,2,3.4,3c0.9,0.9,1.3,1.7,1.3,1.7s-0.9-0.2-2-0.7s-2.6-1.3-3.9-2.3c-1.3-1-2.6-2-3.4-3
	C125.9,249.1,125.4,248.3,125.4,248.3z M171.9,140.1l3.2,1.6c2,1,5,2.4,8.5,4.2c3.5,1.8,7.6,3.9,11.9,6.2c2.2,1.2,4.4,2.3,6.7,3.6
	c2.3,1.2,4.6,2.5,6.9,3.7c2.3,1.3,4.6,2.5,6.8,3.8c2.3,1.2,4.5,2.5,6.6,3.7s4.2,2.4,6.1,3.5s3.8,2.2,5.5,3.2s3.2,2.1,4.4,3.2
	c0.6,0.5,1.2,1,1.7,1.5s0.9,1,1.3,1.4s0.8,0.6,1.3,0.6c0.4,0.1,0.8-0.1,0.8-0.4c0-0.3-0.3-0.4-0.4-0.4H243c0,0,0.1,0,0.2-0.1
	c0.1,0,0.5,0,0.5,0.4c0,0.2-0.1,0.4-0.2,0.5c-0.2,0.1-0.4,0.1-0.6,0.1c-0.5,0-1-0.2-1.5-0.6c-0.5-0.4-0.9-0.9-1.4-1.3
	c-0.5-0.4-1.1-0.9-1.7-1.4c-1.3-0.9-2.8-1.8-4.5-2.7s-3.6-1.9-5.6-2.9s-4.1-2.1-6.3-3.3c-2.2-1.2-4.4-2.3-6.7-3.6
	c-2.3-1.2-4.6-2.5-6.9-3.7c-2.3-1.3-4.6-2.5-6.8-3.8c-2.2-1.3-4.5-2.5-6.6-3.7c-4.3-2.4-8.2-4.7-11.6-6.7s-6.2-3.7-8.1-4.9
	C173.1,140.8,171.9,140.1,171.9,140.1L171.9,140.1z M184.1,133.7c0,0,1.1,0.5,3,1.4s4.6,2.3,7.8,3.9s7,3.6,11,5.7
	c2,1.1,4.1,2.2,6.1,3.3c2.1,1.1,4.2,2.3,6.3,3.5c2.1,1.2,4.2,2.4,6.3,3.5c2.1,1.2,4.1,2.3,6.1,3.5c3.9,2.3,7.6,4.4,10.7,6.3
	c3.1,1.9,5.7,3.5,7.5,4.6s2.8,1.8,2.8,1.8s-1.1-0.5-3-1.4s-4.6-2.3-7.8-3.9s-7-3.6-11-5.7c-2-1.1-4.1-2.2-6.1-3.3
	c-2.1-1.1-4.2-2.3-6.3-3.5c-2.1-1.2-4.2-2.4-6.3-3.5c-2.1-1.2-4.1-2.3-6.1-3.5c-3.9-2.3-7.6-4.4-10.7-6.3s-5.7-3.5-7.5-4.6
	C185.2,134.4,184.1,133.7,184.1,133.7L184.1,133.7z M198.8,126.1c0,0,1.1,0.5,3.1,1.5c1.9,1,4.8,2.4,8.1,4.1
	c3.3,1.7,7.2,3.8,11.2,6.2c2,1.2,4.1,2.4,6.2,3.7c2.1,1.3,4.2,2.6,6.3,4c2.1,1.4,4.2,2.8,6.2,4.2c2,1.4,4,2.9,5.9,4.2
	c3.8,2.7,7.4,5.2,10.6,7c3.2,1.9,6,3.3,8,4.2c1,0.5,1.8,0.8,2.3,1s0.8,0.4,0.8,0.4l-0.9-0.3c-0.6-0.2-1.4-0.4-2.4-0.8
	c-2.1-0.7-5-1.8-8.4-3.5s-7.2-4-11.1-6.6c-1.9-1.3-4-2.7-6-4.1c-2-1.4-4.1-2.8-6.2-4.1c-2.1-1.4-4.2-2.7-6.3-4
	c-2.1-1.3-4.1-2.6-6.1-3.8c-4-2.5-7.7-4.7-10.9-6.7s-5.8-3.6-7.7-4.8C199.9,126.7,198.8,126.1,198.8,126.1L198.8,126.1z
	 M209.8,119.1c0,0,1.1,0.5,3.1,1.4c1.9,0.9,4.7,2.2,8,3.8c3.3,1.6,7.2,3.5,11.3,5.6c2,1,4.2,2.1,6.3,3.2c2.1,1.1,4.3,2.3,6.5,3.4
	c2.2,1.2,4.3,2.3,6.5,3.5c2.1,1.1,4.2,2.4,6.2,3.5c2,1.2,3.9,2.4,5.6,3.6c1.8,1.2,3.4,2.4,4.9,3.5c1.5,1.1,2.8,2.2,3.9,3.3
	c0.6,0.5,1.1,1,1.5,1.5c0.5,0.5,0.9,0.9,1.2,1.3c0.7,0.8,1.3,1.5,1.6,1.9c0.4,0.4,0.6,0.7,0.6,0.7l-0.6-0.6c-0.4-0.4-1-1-1.8-1.7
	c-0.4-0.4-0.8-0.8-1.3-1.2s-1-0.9-1.6-1.3c-1.2-0.9-2.5-1.9-4.1-2.9c-1.5-1-3.2-2.1-5-3.2s-3.7-2.2-5.7-3.3c-2-1.1-4.1-2.2-6.2-3.4
	c-2.1-1.1-4.3-2.3-6.5-3.4c-2.2-1.2-4.3-2.3-6.5-3.4c-2.1-1.2-4.2-2.3-6.2-3.4c-4-2.2-7.8-4.3-11-6.1c-3.2-1.8-5.8-3.4-7.7-4.5
	C210.9,119.8,209.8,119.1,209.8,119.1L209.8,119.1z M223.1,112.3c0,0,1.1,0.5,3,1.5s4.6,2.3,7.9,4c3.2,1.7,7,3.7,11,5.9
	c2,1.1,4.1,2.2,6.2,3.4l6.3,3.6l6.3,3.6c2.1,1.2,4.1,2.4,6.1,3.6c3.9,2.3,7.6,4.4,10.9,6.1c3.2,1.7,6,3,8,3.8c1,0.4,1.8,0.7,2.3,1
	c0.5,0.2,0.8,0.3,0.8,0.3s-0.3-0.1-0.8-0.2c-0.6-0.2-1.4-0.4-2.4-0.7c-2-0.7-4.9-1.7-8.3-3.1c-3.4-1.5-7.2-3.4-11.2-5.6
	c-2-1.1-4.1-2.2-6.2-3.4l-6.3-3.6l-6.3-3.6c-2.1-1.2-4.1-2.4-6.1-3.6c-3.9-2.3-7.6-4.5-10.7-6.4s-5.7-3.6-7.5-4.7
	C224.1,112.9,223.1,112.3,223.1,112.3L223.1,112.3z M236.5,104.1c0,0,0.3,0.1,0.8,0.3c0.5,0.2,1.3,0.4,2.3,0.8
	c1.9,0.8,4.7,1.8,7.9,3.4c3.2,1.5,6.9,3.4,10.8,5.5l6,3.3c2,1.1,4.1,2.3,6.2,3.4c2.1,1.2,4.1,2.3,6.2,3.5c2,1.1,4,2.3,5.9,3.4
	c3.8,2.2,7.4,4.3,10.5,6.2c3,1.8,5.5,3.4,7.3,4.5s2.8,1.8,2.8,1.8s-1.1-0.5-2.9-1.4c-1.9-0.9-4.5-2.2-7.7-3.9
	c-3.2-1.6-6.8-3.6-10.8-5.7c-2-1.1-4-2.1-6-3.3c-2-1.1-4.1-2.3-6.2-3.4c-2.1-1.2-4.1-2.3-6.2-3.5c-2-1.2-4-2.3-5.9-3.4
	c-3.8-2.2-7.4-4.3-10.5-6.1c-3.1-1.7-5.7-3.1-7.6-4C237.6,104.6,236.5,104.1,236.5,104.1L236.5,104.1z M324.9,140.9
	c0,0,0.5,0.3,1.4,0.9c0.8,0.6,2.1,1.5,3.4,2.6c1.4,1.1,2.9,2.5,4.5,4c0.8,0.8,1.6,1.5,2.5,2.3l2.5,2.5c1.6,1.7,3.3,3.3,4.8,4.9
	l2.2,2.2l2,2c2.5,2.5,4.2,4.1,4.2,4.1s-0.5-0.3-1.4-0.8c-0.4-0.3-1-0.6-1.6-1s-1.3-0.9-2-1.4s-1.5-1.1-2.3-1.8
	c-0.8-0.6-1.6-1.3-2.4-2.1c-0.8-0.7-1.7-1.5-2.5-2.3s-1.7-1.6-2.5-2.5c-0.8-0.8-1.6-1.7-2.4-2.5s-1.6-1.7-2.3-2.5
	c-1.5-1.6-2.9-3.1-4.1-4.4s-2.2-2.4-2.9-3.1C325.3,141.4,324.9,140.9,324.9,140.9L324.9,140.9z M333.9,136.6c0,0,1.4,0.5,3.3,1.5
	c1,0.5,2,1.1,3.2,1.8c1.1,0.7,2.3,1.4,3.5,2.2c1.2,0.8,2.3,1.6,3.4,2.4s2,1.6,2.8,2.3c1.6,1.4,2.6,2.4,2.6,2.4s-1.4-0.5-3.3-1.5
	c-1-0.5-2-1.1-3.2-1.8c-1.1-0.7-2.3-1.4-3.5-2.2c-1.2-0.8-2.3-1.6-3.4-2.4s-2-1.6-2.8-2.3C334.8,137.6,333.9,136.6,333.9,136.6z
	 M341.6,130.8c0,0,1,0.1,2.4,0.7c0.7,0.3,1.5,0.6,2.3,1s1.6,0.9,2.4,1.4s1.6,1.1,2.3,1.6c0.7,0.6,1.4,1.1,1.9,1.6
	c1.1,1,1.7,1.8,1.7,1.8s-1-0.2-2.3-0.8c-0.7-0.3-1.4-0.7-2.2-1.1c-0.8-0.4-1.6-0.9-2.4-1.4s-1.6-1.1-2.3-1.6
	c-0.7-0.5-1.4-1.1-1.9-1.5C342.3,131.5,341.6,130.8,341.6,130.8z M352.5,123.4c0,0,0.5,0,1.1,0.1c0.3,0.1,0.6,0.2,1,0.3
	c0.2,0.1,0.3,0.2,0.5,0.3l0.1,0.1c-2.4,3.2-0.7,0.9-1.2,1.6h-0.1l-0.2-0.2l-0.2-0.2h-0.1c0.5-0.7-1.2,1.6,1.2-1.6l0.1,0.1l0.4,0.4
	c0.2,0.3,0.5,0.6,0.6,0.8c0.3,0.5,0.4,1,0.4,1s-0.5,0-1.1-0.1c-0.3-0.1-0.6-0.2-1-0.3c-0.2-0.1-0.3-0.2-0.5-0.3l-0.1-0.1
	c2.4-3.2,0.7-0.9,1.2-1.6h0.1l0.2,0.2l0.2,0.2h0.1c-0.5,0.7,1.2-1.6-1.2,1.6l-0.1-0.1l-0.4-0.4c-0.2-0.3-0.4-0.6-0.6-0.8
	C352.6,123.9,352.5,123.4,352.5,123.4z M255.6,189.6c0,0,1-0.6,2.7-1.7c1.7-1.1,4.2-2.7,7.1-4.5c2.9-1.9,6.4-4.1,10-6.4
	c3.6-2.4,7.6-4.9,11.4-7.5c1.9-1.3,3.9-2.6,5.8-3.8c1.9-1.3,3.8-2.5,5.6-3.8c3.6-2.5,6.9-4.8,9.8-6.8c5.7-4,9.5-6.7,9.5-6.7
	s-0.9,0.8-2.4,2.1c-0.8,0.7-1.7,1.5-2.8,2.4c-1.1,0.9-2.3,2-3.7,3c-1.4,1.1-2.8,2.3-4.4,3.5s-3.3,2.5-5,3.8
	c-1.8,1.3-3.6,2.6-5.5,3.9c-1.9,1.3-3.8,2.6-5.8,3.9c-2,1.3-3.9,2.5-5.9,3.8c-1.9,1.2-3.9,2.4-5.7,3.5c-3.8,2.2-7.3,4.3-10.4,5.9
	c-1.5,0.8-3,1.6-4.2,2.2c-1.3,0.6-2.4,1.2-3.3,1.7C256.6,189.1,255.6,189.6,255.6,189.6L255.6,189.6z M267.1,195.4
	c0,0,0.8-0.7,2.2-1.8c1.4-1.1,3.4-2.8,5.9-4.7c2.4-1.9,5.3-4.1,8.5-6.4c1.6-1.1,3.2-2.3,4.9-3.5c1.7-1.2,3.4-2.3,5.1-3.5
	s3.4-2.3,5.1-3.4c1.7-1.1,3.4-2.2,5-3.3c3.3-2.1,6.3-4,9-5.6c2.6-1.6,4.9-2.9,6.5-3.8c1.6-0.9,2.5-1.4,2.5-1.4s-0.8,0.6-2.3,1.7
	c-1.5,1.1-3.5,2.6-6,4.4c-2.5,1.8-5.5,3.9-8.6,6.1c-1.6,1.1-3.2,2.2-4.9,3.4c-1.7,1.2-3.4,2.3-5.1,3.5s-3.4,2.3-5.1,3.5
	c-1.7,1.1-3.3,2.3-4.9,3.3c-3.2,2.2-6.2,4.2-8.8,5.8c-2.6,1.7-4.8,3.1-6.3,4C268,194.9,267.1,195.4,267.1,195.4L267.1,195.4z
	 M279.4,202.5c0,0,2.9-2.7,7.4-6.4c2.3-1.9,5-4,7.9-6.2c1.5-1.1,3-2.3,4.5-3.4c1.6-1.1,3.1-2.3,4.7-3.4l4.8-3.3
	c1.6-1.1,3.2-2.1,4.7-3.2c3.1-2,5.9-3.9,8.5-5.4c5-3.1,8.5-5,8.5-5s-0.8,0.6-2.1,1.7c-1.4,1-3.3,2.5-5.7,4.3
	c-2.4,1.7-5.1,3.8-8.1,5.9c-3,2.1-6.1,4.4-9.3,6.7c-3.2,2.3-6.4,4.5-9.4,6.6s-5.8,4.1-8.2,5.7c-2.4,1.7-4.4,3-5.9,4
	C280.3,201.9,279.4,202.5,279.4,202.5L279.4,202.5z M285.3,208.9c0,0,3-2.6,7.7-6.2c2.4-1.8,5.2-3.9,8.2-6c1.5-1.1,3.1-2.2,4.7-3.3
	s3.3-2.2,4.9-3.3c1.7-1.1,3.3-2.1,5-3.2c1.6-1.1,3.3-2,4.9-3c3.2-1.9,6.2-3.6,8.8-5.1c5.2-2.9,8.8-4.6,8.8-4.6s-0.8,0.6-2.2,1.6
	c-1.4,1-3.5,2.3-6,4c-2.5,1.6-5.4,3.5-8.5,5.6c-3.1,2-6.4,4.2-9.7,6.3c-3.3,2.1-6.6,4.3-9.7,6.3s-6,3.9-8.5,5.5s-4.6,2.9-6.1,3.8
	C286.2,208.3,285.3,208.9,285.3,208.9L285.3,208.9z M298.9,214.8c0,0,2.6-2.3,6.6-5.6c2-1.6,4.4-3.5,7.1-5.4c1.3-1,2.7-2,4.1-2.9
	l4.2-3c1.4-1,2.9-1.9,4.3-2.9s2.8-1.8,4.2-2.7c2.8-1.7,5.3-3.3,7.6-4.6c4.5-2.6,7.6-4.2,7.6-4.2s-0.7,0.5-1.9,1.4
	c-1.2,0.9-3,2.2-5.1,3.7s-4.6,3.3-7.3,5.1c-2.7,1.9-5.5,3.8-8.4,5.8c-2.9,1.9-5.7,3.9-8.4,5.7c-2.7,1.8-5.2,3.5-7.4,4.9
	c-2.2,1.4-4,2.6-5.3,3.4C299.6,214.3,298.9,214.8,298.9,214.8L298.9,214.8z M308.9,222.3c0,0,0.7-0.5,2-1.5c1.3-0.9,3.1-2.2,5.3-3.8
	c2.2-1.5,4.8-3.3,7.6-5.2c2.8-1.9,5.8-3.9,8.7-5.9c3-2,6-4,8.8-5.8c2.8-1.9,5.4-3.6,7.7-5c2.3-1.5,4.2-2.7,5.5-3.5s2.1-1.3,2.1-1.3
	s-2.7,2.4-6.9,5.7c-2.1,1.7-4.6,3.6-7.3,5.6l-4.2,3c-1.5,1-2.9,2-4.4,3s-3,2-4.5,2.9c-1.5,1-3,1.9-4.4,2.8c-2.9,1.8-5.6,3.4-7.9,4.7
	C312.2,220.7,308.9,222.3,308.9,222.3L308.9,222.3z M324.2,229.6c0,0,1.9,1.1,4.5,3l2.1,1.5c0.7,0.6,1.5,1.1,2.3,1.8
	c1.6,1.3,3.2,2.7,4.8,4.2l2.3,2.3c0.7,0.8,1.4,1.6,2.1,2.3c1.3,1.5,2.5,3,3.4,4.3c1.9,2.6,3,4.4,3,4.4s-1.6-1.4-3.9-3.7l-1.8-1.8
	l-2-2l-4.4-4.4c-0.8-0.7-1.5-1.5-2.3-2.2s-1.5-1.4-2.2-2.1c-1.5-1.4-2.8-2.6-4-3.8C325.6,231.2,324.2,229.6,324.2,229.6z
	 M333.7,222.3c0,0,0.3,0.2,0.8,0.6c0.5,0.4,1.2,0.9,1.9,1.7c0.8,0.7,1.6,1.6,2.5,2.6s1.7,2.1,2.5,3.2s1.7,2.1,2.6,3s1.7,1.8,2.4,2.6
	s1.3,1.4,1.7,1.9c0.4,0.5,0.6,0.8,0.6,0.8s-1.3-0.6-3-1.8c-0.9-0.6-1.9-1.3-2.9-2.2c-0.5-0.4-1-0.9-1.5-1.4s-1-1.1-1.4-1.6
	c-0.9-1.1-1.6-2.3-2.3-3.3c-0.7-1.1-1.4-2.1-2-2.9c-0.6-0.9-1-1.6-1.4-2.1C333.9,222.6,333.7,222.3,333.7,222.3L333.7,222.3z
	 M341.5,215.1c0,0,1,0.6,2.2,1.6c0.6,0.5,1.3,1.1,2.1,1.8c0.7,0.7,1.5,1.4,2.3,2c0.8,0.7,1.6,1.3,2.4,2c0.8,0.6,1.5,1.3,2.1,1.8
	c1.2,1.1,1.9,2,1.9,2s-1.1-0.3-2.5-1.1c-0.7-0.4-1.6-0.8-2.4-1.4c-0.4-0.3-0.9-0.5-1.3-0.9c-0.4-0.3-0.9-0.6-1.3-1
	c-0.9-0.7-1.6-1.6-2.3-2.4l-0.9-1.2c-0.3-0.4-0.5-0.7-0.7-1.1C342,216.2,341.5,215.1,341.5,215.1L341.5,215.1z M350.5,208.9
	c0,0,0.5,0,1.2,0.2c0.6,0.2,1.4,0.6,2,1.1s1.2,1.2,1.5,1.8s0.4,1.1,0.4,1.1s-0.5,0-1.2-0.2c-0.6-0.2-1.4-0.6-2-1.1s-1.2-1.2-1.5-1.8
	S350.5,208.9,350.5,208.9z M128.3,273.8c0,0,2.5-2.1,6.4-5.1c1-0.7,2-1.5,3.2-2.4c1.1-0.8,2.3-1.7,3.5-2.7c2.5-1.8,5.1-3.8,7.7-5.7
	c2.6-2,5.2-3.9,7.7-5.8c2.4-1.8,4.7-3.6,6.7-5c2-1.5,3.6-2.7,4.8-3.5c1.2-0.8,1.9-1.3,1.9-1.3s-2.3,2.4-5.9,5.7
	c-1.8,1.7-4,3.5-6.4,5.5c-1.2,1-2.4,2-3.7,3l-3.9,3c-1.3,1-2.7,1.9-4,2.9l-3.9,2.7c-2.5,1.7-5,3.3-7.1,4.6
	C131.2,272.2,128.3,273.8,128.3,273.8L128.3,273.8z M130.6,285.1c0,0,0.8-0.6,2.1-1.5c1.4-1,3.3-2.3,5.7-3.9c2.3-1.6,5.1-3.5,8-5.4
	c3-2,6.1-4.1,9.2-6.2c3.2-2.1,6.3-4.2,9.3-6.1c3-1.9,5.7-3.8,8.1-5.3s4.4-2.8,5.8-3.7s2.2-1.4,2.2-1.4s-2.8,2.5-7.3,6
	c-2.2,1.8-4.9,3.7-7.8,5.8c-1.5,1-2.9,2.1-4.5,3.2c-1.5,1-3.1,2.1-4.7,3.2c-1.6,1-3.2,2.1-4.8,3.1c-1.6,1-3.1,2-4.7,2.9
	c-3,1.8-5.9,3.5-8.4,4.9C134,283.4,130.6,285.1,130.6,285.1L130.6,285.1z M139.9,290.4c0,0,0.7-0.5,2-1.5c1.3-0.9,3.1-2.3,5.4-3.9
	c2.2-1.6,4.9-3.4,7.7-5.3s5.8-4,8.8-6s6-4.1,8.9-6c2.8-1.9,5.5-3.7,7.8-5.2s4.2-2.7,5.6-3.6c1.4-0.8,2.1-1.3,2.1-1.3s-2.7,2.5-7,5.8
	c-2.1,1.7-4.7,3.6-7.4,5.7c-1.4,1-2.8,2.1-4.3,3.1s-3,2.1-4.5,3.1l-4.5,3c-1.5,1-3,1.9-4.4,2.8c-2.9,1.8-5.6,3.5-8,4.8
	C143.2,288.7,139.9,290.4,139.9,290.4L139.9,290.4z M149.3,297.5c0,0,0.7-0.6,1.9-1.7c1.2-1,2.9-2.5,5.1-4.2
	c1.1-0.9,2.2-1.8,3.5-2.7c1.2-0.9,2.6-1.9,3.9-2.9c1.4-1,2.8-2,4.3-3l4.5-3c1.5-1,3.1-1.9,4.6-2.9s3-1.8,4.5-2.7
	c2.9-1.7,5.7-3.2,8.1-4.5s4.4-2.3,5.9-2.9c1.4-0.7,2.3-1,2.3-1s-0.8,0.5-2.1,1.4c-1.3,0.9-3.2,2.1-5.5,3.6
	c-4.6,2.9-10.6,6.8-16.7,10.8c-3,2-6.1,3.9-8.9,5.8c-2.8,1.9-5.5,3.6-7.7,5.1c-2.3,1.5-4.2,2.7-5.5,3.6
	C150,297,149.3,297.5,149.3,297.5L149.3,297.5z M160.3,303.8c0,0,2.8-2.2,7.3-5.3c2.2-1.6,4.8-3.3,7.7-5.2c1.4-0.9,2.9-1.9,4.4-2.8
	c1.5-0.9,3-1.9,4.6-2.8c1.6-0.9,3.1-1.8,4.6-2.7s3.1-1.7,4.5-2.6c3-1.7,5.7-3.1,8.1-4.4c4.8-2.5,8.1-4,8.1-4s-3,2.1-7.5,5
	c-2.3,1.5-4.9,3.1-7.8,4.9c-1.4,0.9-2.9,1.8-4.4,2.7s-3.1,1.9-4.6,2.8c-1.5,0.9-3.1,1.8-4.6,2.8c-1.5,0.9-3,1.8-4.5,2.6
	c-2.9,1.7-5.6,3.3-8,4.6C163.5,302.1,160.3,303.8,160.3,303.8L160.3,303.8z M167.4,314c0,0,0.8-0.6,2.2-1.7c1.4-1,3.5-2.6,6-4.3
	c2.5-1.8,5.5-3.8,8.7-5.9c1.6-1,3.2-2.1,4.9-3.2c1.7-1.1,3.4-2.2,5.2-3.3c1.7-1.1,3.5-2.1,5.2-3.2c1.7-1.1,3.4-2,5.1-3
	c3.3-1.9,6.4-3.7,9.1-5.1c2.7-1.5,5-2.6,6.6-3.5c1.6-0.8,2.5-1.3,2.5-1.3s-0.8,0.6-2.3,1.6s-3.6,2.4-6.2,4.1
	c-2.6,1.7-5.6,3.6-8.8,5.7c-1.6,1-3.3,2.1-5,3.1c-1.7,1.1-3.4,2.1-5.2,3.2c-1.7,1.1-3.5,2.1-5.2,3.2c-1.7,1-3.4,2.1-5,3.1
	c-3.3,2-6.3,3.8-9,5.4c-2.6,1.6-4.9,2.8-6.4,3.7C168.3,313.6,167.4,314,167.4,314L167.4,314z M130.6,297.5c0,0,0.5,0.3,1.2,0.8
	c0.8,0.5,1.9,1.2,3.2,2.1c1.3,0.9,2.8,1.9,4.4,3c0.8,0.6,1.6,1.1,2.4,1.7c0.8,0.6,1.7,1.2,2.5,1.8s1.7,1.3,2.5,1.9
	c0.8,0.6,1.6,1.3,2.3,1.9c1.5,1.2,2.9,2.5,4,3.5c2.3,2.1,3.7,3.7,3.7,3.7s-0.5-0.3-1.2-0.8c-0.8-0.5-1.9-1.2-3.2-2.1
	c-1.3-0.9-2.8-1.9-4.4-3c-0.8-0.6-1.6-1.1-2.4-1.7c-0.8-0.6-1.7-1.2-2.5-1.8s-1.7-1.3-2.5-1.9c-0.8-0.6-1.6-1.3-2.3-1.9
	c-1.5-1.2-2.9-2.5-4-3.5C131.9,299.1,130.6,297.5,130.6,297.5z M129.2,307.6c0,0,1.2,0.5,2.8,1.4c0.8,0.5,1.7,1,2.7,1.7l3,2.1
	c1,0.8,1.9,1.5,2.8,2.3s1.7,1.5,2.3,2.2c1.3,1.3,2.1,2.3,2.1,2.3s-1.2-0.5-2.8-1.4c-0.8-0.5-1.7-1-2.7-1.7c-1-0.6-2-1.4-3-2.1
	c-1-0.8-1.9-1.6-2.8-2.3c-0.9-0.8-1.7-1.5-2.3-2.2C130,308.6,129.2,307.6,129.2,307.6z M183.2,318.5c0,0,0.9,0.1,2,0.4
	c1.2,0.3,2.7,1,4.1,1.7s2.8,1.4,3.8,2c0.5,0.3,1,0.6,1.3,0.8s0.5,0.4,0.5,0.4s-0.9,0.1-2.1-0.1c-1.2-0.1-2.8-0.5-4.3-1.3
	s-2.8-1.7-3.7-2.5C183.8,319.2,183.2,318.5,183.2,318.5L183.2,318.5z M192.3,313.3c0,0,1.5,0.2,3.6,0.8c1.1,0.3,2.3,0.7,3.6,1.1
	c1.3,0.5,2.6,1,4,1.7c1.3,0.6,2.6,1.4,3.8,2.1c1.2,0.7,2.2,1.5,3.1,2.1c1.7,1.3,2.8,2.4,2.8,2.4s-0.4-0.1-0.9-0.4
	c-0.6-0.2-1.4-0.6-2.4-1s-2.1-1-3.3-1.6c-1.2-0.6-2.5-1.2-3.8-1.8s-2.6-1.3-3.8-1.8c-1.2-0.6-2.3-1.2-3.3-1.7
	C193.5,314.1,192.3,313.3,192.3,313.3L192.3,313.3z M203.8,305.1c0,0,0.5,0.2,1.4,0.6c0.4,0.2,1,0.4,1.6,0.7s1.3,0.5,2.1,0.8
	c1.6,0.6,3.4,1.3,5.3,2.1l3,1.2c1,0.4,2,0.9,3.1,1.3c1,0.5,2,0.9,3,1.4c1,0.4,2,0.9,2.9,1.4s1.8,0.9,2.7,1.4
	c0.9,0.4,1.7,0.9,2.4,1.3s1.4,0.8,2,1.2s1.1,0.8,1.4,1c0.4,0.3,0.7,0.6,0.9,0.8l0.3,0.3c0,0-0.1-0.1-0.4-0.2l-1-0.5
	c-0.5-0.2-1-0.5-1.6-0.7c-0.6-0.3-1.3-0.5-2.1-0.9c-1.5-0.6-3.4-1.3-5.3-2.1l-3-1.2c-1-0.4-2-0.9-3.1-1.3c-1-0.5-2-0.9-3-1.4
	c-1-0.4-2-0.9-2.9-1.4c-1.9-0.9-3.6-1.8-5.1-2.7c-1.5-0.8-2.6-1.6-3.4-2.2C204.2,305.5,203.8,305.1,203.8,305.1L203.8,305.1z
	 M216.1,299.8c0,0,0.6,0.1,1.8,0.4c0.6,0.1,1.2,0.3,2,0.5s1.6,0.5,2.6,0.8c0.9,0.4,1.9,0.7,3,1.2c1,0.5,2.1,1,3.2,1.7
	c0.5,0.3,1.1,0.6,1.6,1c0.5,0.3,1.1,0.7,1.6,1.1c1.1,0.7,2.1,1.5,3.2,2.3c1,0.8,2.1,1.6,3.1,2.4c1,0.7,2,1.5,3,2.2s2,1.3,2.9,1.9
	c0.9,0.6,1.9,1.1,2.7,1.6c0.9,0.5,1.6,0.9,2.3,1.2c0.7,0.4,1.3,0.7,1.8,0.9l1.6,0.8c0,0-0.6-0.1-1.8-0.4c-0.6-0.2-1.2-0.3-2-0.6
	s-1.6-0.5-2.5-0.9s-1.9-0.8-2.9-1.3c-0.5-0.3-1-0.5-1.6-0.8c-0.5-0.3-1-0.6-1.6-0.9c-0.5-0.3-1.1-0.7-1.6-1
	c-0.5-0.4-1.1-0.7-1.6-1.1c-1.1-0.8-2.1-1.5-3.1-2.3s-2.1-1.6-3.1-2.3s-2-1.5-3-2.1c-1-0.7-2-1.3-2.9-1.8c-0.9-0.6-1.9-1-2.7-1.5
	c-0.9-0.4-1.7-0.8-2.4-1.2c-0.7-0.4-1.4-0.6-1.9-0.9C216.7,300.1,216.1,299.8,216.1,299.8L216.1,299.8z M229.5,290.5
	c0,0,3.2,1.6,7.7,4.4c2.3,1.4,4.9,3,7.7,4.8c1.4,0.9,2.8,1.8,4.3,2.8c1.5,0.9,3,1.9,4.5,2.8c3,1.9,6,3.8,8.8,5.5
	c1.4,0.8,2.8,1.7,4.1,2.4c1.3,0.7,2.6,1.5,3.7,2.1c1.2,0.6,2.2,1.2,3.2,1.7s1.8,0.9,2.5,1.3l2.2,1.1c0,0-0.9-0.3-2.3-0.7
	c-0.8-0.2-1.6-0.5-2.7-0.9c-0.5-0.2-1.1-0.4-1.6-0.6c-0.6-0.2-1.2-0.5-1.8-0.8c-1.2-0.5-2.6-1.1-3.9-1.8c-1.4-0.7-2.8-1.4-4.3-2.2
	s-3-1.6-4.5-2.6c-1.5-0.9-3-1.8-4.5-2.8c-3-1.9-6-3.9-8.7-5.8c-2.7-1.9-5.2-3.8-7.4-5.4c-2.1-1.6-3.9-2.9-5.1-3.9
	C230.2,291,229.5,290.5,229.5,290.5L229.5,290.5z M239.4,286.1c0,0,3.4,1.7,8.4,4.5c2.5,1.4,5.4,3,8.4,4.8c1.5,0.9,3.1,1.8,4.7,2.8
	s3.2,2,4.8,2.9l4.8,3c1.6,1,3.1,2,4.6,3c3,1.9,5.8,3.8,8.1,5.4c4.7,3.2,7.8,5.5,7.8,5.5s-3.4-1.7-8.4-4.5c-2.5-1.4-5.4-3-8.4-4.8
	c-1.5-0.9-3.1-1.8-4.7-2.8s-3.2-2-4.8-2.9l-4.8-3c-1.6-1-3.1-2-4.6-3c-3-1.9-5.8-3.8-8.1-5.4C242.4,288.4,239.4,286.1,239.4,286.1z
	 M175.3,230.4c0,0,1,0.5,2.7,1.5c0.8,0.5,1.9,1.1,3,1.8c1.2,0.7,2.5,1.5,3.9,2.5c2.8,1.8,6.1,4,9.5,6.4c1.7,1.2,3.5,2.4,5.3,3.7
	s3.6,2.5,5.5,3.8c1.8,1.3,3.7,2.5,5.5,3.7s3.6,2.4,5.4,3.5s3.5,2.2,5.1,3.1c1.6,1,3.2,1.9,4.7,2.7c1.4,0.8,2.8,1.5,4,2.2
	s2.3,1.2,3.1,1.6c1.7,0.9,2.7,1.4,2.7,1.4s-1.1-0.4-2.9-1.1c-0.9-0.3-2-0.8-3.3-1.3s-2.7-1.1-4.2-1.8s-3.2-1.5-4.9-2.4
	c-1.7-0.9-3.5-1.9-5.3-2.9c-0.9-0.5-1.8-1.1-2.8-1.6c-0.9-0.6-1.9-1.1-2.8-1.7c-1.9-1.2-3.7-2.4-5.6-3.7c-1.8-1.3-3.7-2.6-5.5-3.8
	c-1.8-1.3-3.5-2.6-5.2-3.8c-3.4-2.5-6.5-4.9-9.1-6.9C178.9,233.1,175.3,230.4,175.3,230.4L175.3,230.4z M187.8,224.1
	c0,0,1.1,0.5,2.9,1.4s4.5,2.2,7.6,3.8s6.8,3.5,10.6,5.6c1.9,1.1,3.9,2.1,5.9,3.3s4,2.3,6.1,3.5l6,3.6c2,1.2,3.9,2.4,5.8,3.5
	c3.7,2.3,7.2,4.5,10.1,6.5c2.9,1.9,5.3,3.6,7,4.8s2.6,1.9,2.6,1.9s-1-0.5-2.8-1.5s-4.3-2.4-7.4-4.1c-3-1.7-6.6-3.8-10.4-6
	s-7.8-4.6-11.9-6.9c-4-2.4-8.1-4.8-11.8-7c-3.8-2.2-7.3-4.3-10.3-6.2c-3-1.8-5.5-3.4-7.2-4.5C188.7,224.8,187.8,224.1,187.8,224.1
	L187.8,224.1z M200.2,218.3c0,0,1,0.5,2.8,1.5s4.3,2.3,7.4,3.9c3,1.6,6.6,3.6,10.4,5.6c3.8,2.1,7.8,4.3,11.9,6.5c2,1.1,4,2.3,6,3.4
	s3.9,2.2,5.8,3.3c3.8,2.2,7.2,4.2,10.2,6s5.4,3.3,7.1,4.4c1.7,1.1,2.7,1.7,2.7,1.7s-1.1-0.5-2.9-1.4s-4.4-2.1-7.5-3.7
	c-3.1-1.6-6.7-3.4-10.5-5.4c-1.9-1-3.9-2-5.9-3.1l-6-3.3c-2-1.1-4-2.3-6-3.4s-3.9-2.3-5.8-3.4c-3.7-2.2-7.2-4.3-10.1-6.2
	c-2.9-1.8-5.3-3.5-7-4.6C201.2,219,200.2,218.3,200.2,218.3z M213.1,209.2c0,0,1,0.6,2.8,1.6c1.8,1.1,4.4,2.6,7.4,4.4
	c6.1,3.7,14.3,8.6,22.4,13.5c4.1,2.5,8.1,4.9,11.9,7.2s7.4,4.5,10.4,6.3c3,1.9,5.6,3.5,7.3,4.6c1.8,1.1,2.8,1.8,2.8,1.8
	s-1.1-0.5-3-1.4s-4.6-2.2-7.7-3.9c-3.2-1.6-6.8-3.6-10.7-5.8c-1.9-1.1-4-2.2-6-3.4s-4.1-2.4-6.1-3.6c-2-1.3-4.1-2.5-6.1-3.7
	s-3.9-2.5-5.8-3.7c-3.7-2.4-7.2-4.8-10.1-6.8s-5.3-3.8-7-5C214.1,209.9,213.1,209.2,213.1,209.2L213.1,209.2z M223.2,202.2
	c0,0,1,0.6,2.8,1.8c1.8,1.1,4.4,2.8,7.4,4.7c6.1,4,14.3,9.2,22.5,14.5c4.1,2.6,8.2,5.3,12,7.7c3.8,2.5,7.4,4.8,10.5,6.6
	c3.2,1.8,5.9,3,7.9,3.7s3.2,1.1,3.2,1.1s-0.3-0.1-0.9-0.2c-0.6-0.1-1.4-0.3-2.4-0.5c-2.1-0.5-5-1.5-8.3-3.1
	c-1.7-0.8-3.4-1.7-5.2-2.8c-1.8-1-3.7-2.1-5.7-3.3s-4-2.4-6-3.7s-4.1-2.6-6.1-3.9c-4.1-2.7-8.1-5.3-11.9-8
	c-3.8-2.6-7.2-5.1-10.1-7.3s-5.3-4.1-7-5.4C224.1,202.9,223.2,202.2,223.2,202.2L223.2,202.2z M235.8,196.2c0,0,0.3,0,0.8,0.1
	s1.3,0.2,2.2,0.5c1.9,0.5,4.6,1.5,7.5,3.3c1.5,0.9,3,1.9,4.5,3c1.6,1.1,3.2,2.2,5,3.4c1.7,1.2,3.5,2.4,5.4,3.6
	c1.8,1.2,3.7,2.4,5.6,3.6c1.9,1.2,3.8,2.4,5.6,3.5c1.9,1.1,3.7,2.3,5.5,3.4c1.8,1.1,3.5,2.1,5.2,3.1s3.2,1.9,4.7,2.7
	c5.8,3.4,9.7,5.6,9.7,5.6s-1-0.4-2.8-1.2s-4.4-1.9-7.4-3.4c-1.5-0.7-3.1-1.5-4.8-2.4c-1.7-0.9-3.5-1.8-5.3-2.9
	c-1.8-1-3.7-2.1-5.6-3.2c-1.9-1.1-3.8-2.3-5.7-3.5c-1.9-1.2-3.8-2.5-5.6-3.7c-1.8-1.2-3.6-2.5-5.3-3.7c-1.7-1.2-3.3-2.5-4.8-3.7
	s-2.9-2.3-4.3-3.3s-2.6-1.8-3.8-2.4c-1.2-0.7-2.3-1.1-3.2-1.5c-0.9-0.4-1.6-0.6-2.1-0.8C236.1,196.3,235.8,196.2,235.8,196.2
	L235.8,196.2z M254.7,277.3l2.1-2.1c0.7-0.6,1.5-1.4,2.5-2.3c1-0.9,2.1-1.9,3.3-3c1.2-1.1,2.6-2.2,4-3.4c1.5-1.2,3-2.4,4.6-3.7
	c1.6-1.2,3.3-2.5,5-3.8s3.5-2.5,5.3-3.7l5.4-3.6c1.8-1.2,3.6-2.3,5.3-3.3c1.7-1.1,3.4-2.1,5.1-3c1.6-0.9,3.2-1.8,4.6-2.6
	s2.8-1.5,3.9-2.1c1.2-0.6,2.2-1.1,3.1-1.5c1.7-0.8,2.7-1.3,2.7-1.3s-0.9,0.6-2.5,1.6s-3.9,2.5-6.6,4.2c-2.7,1.8-5.9,3.8-9.3,6
	c-1.7,1.1-3.4,2.3-5.2,3.5c-1.8,1.2-3.6,2.4-5.3,3.6c-1.8,1.2-3.6,2.4-5.3,3.7c-1.7,1.2-3.5,2.4-5.1,3.6c-3.3,2.4-6.3,4.6-8.9,6.5
	s-4.8,3.5-6.3,4.7C255.6,276.7,254.7,277.3,254.7,277.3L254.7,277.3z M266.5,282.7c0,0,0.9-0.5,2.6-1.3c0.8-0.4,1.8-1,2.9-1.6
	s2.3-1.4,3.7-2.2c1.3-0.8,2.7-1.8,4.3-2.8c1.5-1,3-2.1,4.7-3.2c1.6-1.1,3.3-2.3,5-3.5s3.4-2.4,5.1-3.7c3.4-2.5,6.8-4.9,10-7.3
	c3.2-2.3,6.2-4.4,8.8-6.2c1.3-0.9,2.5-1.7,3.6-2.4s2-1.3,2.9-1.7c0.4-0.2,0.8-0.4,1.1-0.6c0.3-0.1,0.6-0.3,0.8-0.4
	c0.5-0.2,0.7-0.3,0.7-0.3s-0.2,0.1-0.6,0.4c-0.2,0.1-0.5,0.3-0.8,0.5s-0.6,0.5-1,0.7c-0.8,0.5-1.6,1.2-2.6,2s-2.1,1.7-3.4,2.7
	c-2.5,2-5.3,4.3-8.5,6.7c-1.6,1.2-3.2,2.5-4.8,3.7c-1.7,1.2-3.4,2.5-5.1,3.8l-5.1,3.6c-1.7,1.2-3.4,2.3-5.1,3.4
	c-1.7,1.1-3.3,2.1-4.9,3s-3.1,1.8-4.5,2.5c-0.7,0.4-1.4,0.7-2,1.1c-0.6,0.3-1.3,0.6-1.9,0.9c-1.2,0.5-2.2,1-3.1,1.3
	C267.5,282.3,266.5,282.7,266.5,282.7L266.5,282.7z M274.2,292.5c0,0,3-2.7,7.6-6.5c2.3-1.9,5-4.1,8-6.5l4.5-3.6
	c1.6-1.2,3.1-2.4,4.7-3.6l4.8-3.6c1.6-1.2,3.1-2.3,4.6-3.4c3-2.2,5.9-4.3,8.3-6c4.9-3.4,8.3-5.6,8.3-5.6s-3,2.7-7.6,6.5
	c-2.3,1.9-5,4.1-8,6.5l-4.5,3.6c-1.6,1.2-3.1,2.4-4.7,3.6l-4.8,3.6c-1.6,1.2-3.1,2.3-4.6,3.4c-3,2.2-5.9,4.3-8.3,6
	C277.5,290.4,274.2,292.5,274.2,292.5z M285.6,300.9c0,0,2.9-2.6,7.5-6.4c2.3-1.9,4.9-4.1,7.8-6.4c2.9-2.3,5.9-4.8,9-7.2
	c1.5-1.2,3.1-2.4,4.6-3.6c1.5-1.2,3-2.4,4.5-3.5c2.9-2.3,5.6-4.3,8-6.1c4.7-3.6,7.9-5.8,7.9-5.8s-2.8,2.8-7.2,6.7
	c-2.2,2-4.8,4.2-7.6,6.6c-1.4,1.2-2.9,2.4-4.4,3.6c-1.5,1.2-3,2.4-4.6,3.7c-1.6,1.2-3.1,2.4-4.6,3.6c-1.5,1.2-3.1,2.3-4.5,3.4
	c-3,2.2-5.7,4.2-8.2,5.9C288.9,298.8,285.6,300.9,285.6,300.9L285.6,300.9z M297.6,305.7c0,0,2.7-2.5,7-6c2.1-1.8,4.6-3.8,7.3-5.9
	c1.4-1.1,2.7-2.2,4.2-3.3c1.4-1.1,2.9-2.2,4.4-3.3s2.9-2.2,4.4-3.3c1.4-1.1,2.9-2.1,4.3-3.1c2.8-2,5.4-3.9,7.7-5.4
	c2.3-1.6,4.2-2.8,5.6-3.6s2.2-1.2,2.2-1.2s-0.7,0.6-2,1.6s-3,2.5-5.2,4.2c-2.1,1.8-4.6,3.8-7.3,5.9c-1.4,1.1-2.7,2.2-4.2,3.3
	c-1.4,1.1-2.9,2.2-4.4,3.3s-2.9,2.2-4.4,3.3c-1.4,1.1-2.9,2.1-4.3,3.1c-2.8,2-5.4,3.9-7.7,5.4C300.8,303.8,297.6,305.7,297.6,305.7z
	 M304.4,312.6c0,0,2.4-2.1,6-5.1c1.8-1.5,4-3.2,6.3-5c1.2-0.9,2.4-1.8,3.6-2.8c1.2-0.9,2.5-1.9,3.7-2.8c1.3-0.9,2.5-1.8,3.8-2.8
	c1.2-0.9,2.5-1.8,3.7-2.6c2.4-1.7,4.7-3.3,6.6-4.6c3.9-2.7,6.5-4.4,6.5-4.4s-2.2,2.2-5.8,5.3c-1.8,1.5-3.9,3.3-6.2,5.1
	c-1.2,0.9-2.4,1.9-3.6,2.8c-1.2,0.9-2.5,1.9-3.7,2.8c-1.3,0.9-2.5,1.8-3.8,2.8c-1.2,0.9-2.5,1.8-3.7,2.6c-2.4,1.7-4.7,3.2-6.7,4.5
	C307.1,311.1,304.4,312.6,304.4,312.6L304.4,312.6z M98.7,64.3c0,0,1.1,0.4,2.7,1.2c0.8,0.4,1.7,0.9,2.6,1.5
	c0.4,0.3,0.9,0.6,1.4,0.9s0.9,0.7,1.4,1c0.9,0.7,1.8,1.5,2.6,2.2s1.5,1.5,2.1,2.1c1.1,1.3,1.8,2.3,1.8,2.3s-1.1-0.5-2.5-1.4
	c-0.7-0.5-1.6-1-2.4-1.6c-0.9-0.6-1.8-1.3-2.7-2s-1.8-1.4-2.6-2.1s-1.6-1.4-2.2-1.9C99.4,65.2,98.7,64.3,98.7,64.3L98.7,64.3z
	 M357.7,44.6c0,0,0.6,0,1.5,0.2C360,45,361,45.5,362,46c0.9,0.6,1.8,1.3,2.3,2c0.6,0.6,0.8,1.2,0.8,1.2s-0.6,0-1.5-0.2
	c-0.8-0.2-1.8-0.7-2.8-1.2c-0.9-0.6-1.7-1.3-2.3-2C357.9,45.2,357.7,44.6,357.7,44.6z M224,48.8c0,0,0.7,0.3,1.9,0.9
	c1.2,0.6,2.9,1.4,4.9,2.4s4.3,2.1,6.9,3.4c2.5,1.3,5.2,2.6,7.8,3.9c1.3,0.7,2.7,1.4,4,2c1.3,0.7,2.6,1.4,3.8,2
	c2.5,1.3,4.8,2.6,6.7,3.7c3.9,2.2,6.4,3.8,6.4,3.8s-2.8-1-6.9-2.8c-2.1-0.9-4.5-1.9-7-3.1c-1.3-0.6-2.6-1.2-3.9-1.9
	c-1.3-0.7-2.7-1.3-4-2s-2.7-1.4-4-2.1s-2.6-1.4-3.8-2.1c-2.4-1.4-4.7-2.7-6.6-3.9c-1.9-1.2-3.4-2.3-4.5-3S224,48.8,224,48.8
	L224,48.8z M316.9,312.6c0,0,0.8,0.1,2,0.4c1.1,0.3,2.6,0.9,3.9,1.6c1.4,0.7,2.7,1.6,3.5,2.4c0.2,0.2,0.5,0.4,0.6,0.5
	s0.3,0.2,0.4,0.2v0.1c0,0.1,0,0,0,0s0-0.1-0.1-0.1c-0.1-0.1-0.1,0-0.1,0s0-0.1,0.1-0.1h0.2c0,0,0.1,0,0.1,0.2c0,0.1-0.1,0.1-0.1,0.2
	c-0.2,0.1-0.5,0.1-0.8,0.1c-0.3-0.1-0.5-0.1-0.8-0.2c-1.1-0.3-2.6-0.9-3.9-1.6c-1.4-0.7-2.6-1.6-3.5-2.4
	C317.4,313.2,316.9,312.6,316.9,312.6L316.9,312.6z M324.2,306.8c0,0,1,0.1,2.3,0.5s3,1.1,4.7,1.9c1.6,0.8,3.2,1.8,4.3,2.7
	c1.1,0.8,1.8,1.6,1.8,1.6s-1-0.1-2.3-0.5s-3-1.1-4.7-1.9c-1.6-0.8-3.2-1.8-4.3-2.7C324.9,307.5,324.2,306.8,324.2,306.8z M333,301
	c0,0,0.7,0,1.7,0.3s2.2,0.8,3.4,1.4c1.2,0.7,2.2,1.4,3,2.2c0.8,0.7,1.2,1.3,1.2,1.3s-0.7,0-1.7-0.3s-2.2-0.8-3.4-1.4
	c-1.2-0.7-2.2-1.5-3-2.2S333,301,333,301z M341.1,295.3c0,0,0.6-0.1,1.3-0.1c0.8,0,1.7,0.3,2.6,0.8s1.7,1.1,2.1,1.7
	c0.5,0.6,0.7,1.2,0.7,1.2s-0.6,0-1.3-0.2c-0.7-0.2-1.6-0.5-2.4-0.9s-1.6-1-2.2-1.5C341.4,295.8,341.1,295.3,341.1,295.3L341.1,295.3
	z M96.3,34.1c0,0,4.3,0.1,11.8,0.4c3.7,0.1,8.3,0.2,13.5,0.3c5.2,0.1,11.1,0.1,17.5,0.2c6.4,0,13.4,0.1,20.7,0.1h23.1
	c8,0,16.3,0,24.7-0.1c8.4-0.1,17-0.1,25.5-0.2s17.1-0.2,25.5-0.2c8.4-0.1,16.7-0.2,24.7-0.3c8-0.1,15.8-0.2,23.1-0.3
	c7.3-0.1,14.3-0.3,20.7-0.4c6.4-0.2,12.3-0.3,17.5-0.5s9.7-0.3,13.5-0.5c7.5-0.3,11.7-0.5,11.7-0.5s-4.3,0.4-11.7,1.1
	c-3.7,0.3-8.3,0.6-13.5,1s-11.1,0.7-17.5,1.1c-6.4,0.3-13.3,0.7-20.7,0.9c-7.3,0.3-15.1,0.6-23.1,0.8c-8,0.2-16.3,0.4-24.7,0.6
	c-8.4,0.2-17,0.2-25.5,0.3c-8.6,0-17.1,0-25.5,0.1c-8.4,0-16.7-0.1-24.7-0.2s-15.8-0.3-23.1-0.4c-7.3-0.2-14.3-0.4-20.7-0.6
	c-6.4-0.2-12.3-0.5-17.5-0.8s-9.7-0.6-13.5-0.8C100.6,34.4,96.3,34.1,96.3,34.1z"/>
<path d="M91.7,17.1c0,0,0.3,0.8,0.9,2.2c0.6,1.5,1.5,3.6,2.9,6.4c0.7,1.4,1.4,2.9,2.3,4.6c0.8,1.7,1.8,3.5,2.5,5.7
	c0.7,2.1,1,4.6,1.1,7.1c0,0.6,0,1.3-0.2,2s-0.5,1.3-0.8,1.9c-0.7,1.2-1.6,2.3-2.5,3.4s-1.9,2.2-2.6,3.5c-0.7,1.3-1.4,2.7-1.9,4.1
	c-1,2.9-1.5,6.2-1.5,9.6c0.1,6.8,2.3,14,4.4,21.7c1,3.9,2,7.8,3.1,11.9c1,4.1,1.9,8.4,2.9,12.7c1,4.4,1.8,8.9,2.7,13.5
	s1.7,9.3,2.5,14.2c3.3,19.3,5.9,40.4,8.2,62.8c2.3,22.3,4.3,45.9,6.7,70.3c0.6,6.1,1.3,12.2,1.9,18.4c0.4,3.1,0.7,6.2,1.1,9.3
	c0.4,3.1,0.6,6.3,1.5,9c0.4,1.4,1.1,2.6,2,3.7c0.5,0.5,0.9,1.1,1.5,1.5l0.2,0.2l0.2,0.2l0.5,0.4l0.9,0.6c2.5,1.6,5.4,2.7,8.4,3.6
	c1.5,0.4,3,0.9,4.5,1.2c1.6,0.3,3.1,0.7,4.7,1s3.1,0.6,4.7,0.8s3.1,0.4,4.7,0.6c12.7,1.4,25.6,1.2,38.6,0.7c6.5-0.3,13-0.6,19.5-0.8
	s13.1-0.4,19.6-0.6c26.1-0.6,52.2-1.3,77.9-1.9c6.4-0.2,12.9-0.1,18.9-1.2c3-0.6,5.9-1.5,8.2-3.3c1.2-0.9,2.2-2,3.2-3.1
	c0.5-0.5,1-1.2,1.5-1.8s0.9-1.2,1.4-1.8c3.5-4.9,5.7-10.8,6.9-16.7c1.2-6,1.5-12.1,1.5-18.2s-0.2-12.1-0.2-18.2c0-3,0.2-6.1,0.4-9
	c0.2-3,0.4-5.9,0.7-8.8c0.8-11.7,1.4-23.2,2.1-34.5c0.3-5.6,0.7-11.1,1.1-16.6l0.6-8.1c0.1-1.3,0.2-2.7,0.2-4s0.1-2.6,0.1-3.9
	c0.1-10.5-1-20.7-1.2-30.5c-0.1-4.9,0-9.8,0.4-14.5s1.3-9.3,2.4-13.6c2.1-8.7,4.8-16.8,6.8-24.4c1-3.8,1.9-7.6,2.6-11.2
	c0.3-1.8,0.6-3.6,0.8-5.4c0.2-1.7,0.2-3.5,0.1-5.2c-0.3-6.8-2-13-3-18.6c-0.5-2.8-0.8-5.5-0.9-8.1s0.1-5,0.5-7.2
	c0.7-4.4,1.4-8.1,2-11.1s1-5.3,1.2-6.9s0.4-2.4,0.4-2.4l-0.3,2.4c-0.2,1.6-0.5,3.9-1,6.9s-1.1,6.7-1.7,11.1
	c-0.3,2.2-0.5,4.5-0.4,7.1c0.1,2.5,0.5,5.2,1,8c1,5.6,2.8,11.7,3.2,18.7c0.1,1.7,0.1,3.5-0.1,5.3s-0.4,3.6-0.8,5.5
	c-0.6,3.7-1.5,7.5-2.4,11.3c-1.9,7.7-4.5,15.8-6.5,24.5c-1,4.3-1.8,8.8-2.2,13.4c-0.4,4.6-0.5,9.4-0.3,14.3
	c0.3,9.7,1.4,19.9,1.4,30.5c0,1.3,0,2.7-0.1,4c0,1.3-0.1,2.7-0.2,4l-0.6,8.1c-0.4,5.4-0.7,11-1,16.6c-0.6,11.2-1.1,22.7-1.9,34.5
	c-0.2,2.9-0.4,5.9-0.6,8.9s-0.4,5.9-0.4,8.9c0,6,0.2,12,0.2,18.2s-0.3,12.4-1.5,18.7c-1.2,6.2-3.5,12.4-7.3,17.8
	c-0.5,0.7-1,1.3-1.5,2c-0.5,0.6-1,1.2-1.6,1.8c-1.1,1.2-2.2,2.4-3.6,3.5c-2.8,2.2-6.1,3.2-9.3,3.8c-6.5,1.2-13,1.1-19.4,1.3
	c-25.7,0.7-51.8,1.4-77.9,2.1c-6.5,0.2-13,0.3-19.6,0.5c-6.5,0.3-13,0.5-19.5,0.8c-13,0.5-26.1,0.7-39-0.8l-4.8-0.6
	c-1.6-0.2-3.2-0.6-4.8-0.8c-1.6-0.3-3.1-0.7-4.7-1c-1.6-0.4-3.2-0.8-4.7-1.3c-3.1-1-6.2-2.1-9.1-4c-0.4-0.2-0.7-0.5-1.1-0.7
	l-0.5-0.4c-0.1,0-0.2-0.1-0.3-0.2l-0.2-0.2c-0.7-0.6-1.2-1.2-1.8-1.9c-1.1-1.4-1.9-3-2.4-4.6s-0.8-3.3-1-4.9
	c-0.2-1.6-0.4-3.1-0.6-4.7c-0.4-3.1-0.7-6.2-1.1-9.3c-0.6-6.2-1.3-12.3-1.9-18.4c-2.4-24.4-4.2-48-6.3-70.3s-4.5-43.4-7.7-62.7
	c-0.8-4.8-1.6-9.6-2.4-14.2c-0.9-4.6-1.7-9.1-2.6-13.5c-1-4.4-1.8-8.6-2.8-12.7s-2-8.1-2.9-12c-2-7.6-4.2-14.9-4.2-21.9
	c0-3.5,0.5-6.9,1.6-9.9c0.5-1.5,1.2-2.9,2-4.2c0.8-1.3,1.8-2.4,2.7-3.5s1.8-2.1,2.5-3.3c0.3-0.6,0.6-1.1,0.8-1.7s0.2-1.2,0.2-1.8
	c0-2.5-0.3-4.9-0.9-7c-0.6-2.1-1.5-4-2.3-5.7s-1.5-3.2-2.2-4.6c-1.3-2.8-2.2-5-2.7-6.4C92,17.8,91.7,17.1,91.7,17.1L91.7,17.1z"/>
</svg>
