<?xml version="1.0" encoding="utf-8"?>
<!-- Generator: Adobe Illustrator 19.2.0, SVG Export Plug-In . SVG Version: 6.00 Build 0)  -->
<svg version="1.1" id="Layer_1" xmlns="http://www.w3.org/2000/svg" xmlns:xlink="http://www.w3.org/1999/xlink" x="0px" y="0px"
	 viewBox="0 0 460 234" style="enable-background:new 0 0 460 234;" xml:space="preserve">
<style type="text/css">
	.st0{fill:url(#SVGID_1_);}
	.st1{fill:none;stroke:#000000;stroke-width:5;stroke-miterlimit:10;}
</style>
<linearGradient id="SVGID_1_" gradientUnits="userSpaceOnUse" x1="227.25" y1="-319.2343" x2="227.25" y2="-479.3" gradientTransform="matrix(1 0 0 1 0 506)">
	<stop  offset="0" style="stop-color:#EFBF20"/>
	<stop  offset="1" style="stop-color:#AA3800"/>
</linearGradient>
<path class="st0" d="M275.9,26.7c-14.8,1.9-38.1,2.1-53,2.1c-12.6,0-31.8-0.9-44.3-2.1c1.7,28,9.1,55.7,9,83.8
	c-0.1,18.4,1.9,36.2,2.9,54.6c0.2,4,0.5,8.2,2.6,11.7c2.5,4.2,7.3,6.9,12.4,8.2c5.1,1.4,10.4,1.5,15.7,1.7c4.6,0.1,8.5,0.1,13.1-0.1
	c7.6-0.3,15.8-2.1,20.3-7.6c3-3.6,3.9-8.3,4.7-12.7c1-5.4,1.7-7.6,2.6-13.1C265.6,129.6,275.1,45.6,275.9,26.7L275.9,26.7z"/>
<path class="st1" d="M292.1,6.7c2-0.1-3.3,15-4.9,23c-3.3,16.8-11.9,79.1-12.7,93.3c-1.5,25.8-3,51.7-5.9,77.5
	c-0.2,1.7-1.8,24.6-4.9,24.6c-2.7,2.2-6.5,3.2-10.2,3.9c-12,2.3-24.3,2.5-36.4,1c-8.4-1.1-19.2-0.6-25.2-6.6
	c-3.3-3.3-3.8-7.9-4.1-12.1c-2.1-32.4-3.9-63.7-5.1-96.2c-0.6-15.6-7.8-77.5-12.6-93.6c-0.6-2.8-3-10.6-2.4-14.4
	c0-0.2,41.6-0.6,50.5-0.6C229.5,6.4,283.2,7.3,292.1,6.7L292.1,6.7z"/>
<path d="M176.4,14.6c0,0,0.4,1.6,1,4.5c0.3,1.5,0.7,3.3,1.2,5.4s0.9,4.6,1.5,7.3c1,5.5,2.2,12.2,3.3,19.9c1.2,7.7,2.3,16.4,3.3,25.9
	s2.1,19.8,3.2,30.7c0.6,5.4,1.2,11.1,1.7,16.8c0.4,5.8,0.7,11.6,1,17.6c0.2,6,0.5,12.1,0.8,18.2c0.1,3.1,0.3,6.2,0.5,9.3
	s0.4,6.1,1.5,8.8c0.3,0.6,0.6,1.3,0.9,1.9c0.5,0.7,0.8,1.2,1.3,1.7c0.9,1.1,2.1,2,3.3,2.8c2.5,1.6,5.3,2.7,8.3,3.3
	c3,0.7,6.1,0.9,9.2,1.1c3.1,0.1,6.3,0.2,9.5,0.2s6.3-0.1,9.5-0.2c3.1-0.2,6.2-0.6,9-1.5c2.9-0.9,5.6-2.2,7.7-4.1
	c2.1-1.9,3.5-4.5,4.4-7.4s1.3-5.9,1.9-9.1c0.6-3.1,1.4-6.1,1.9-9c1-6,1.7-12.1,2.5-18c2.9-23.8,5.5-45.9,7.8-64.9
	c1.1-9.5,2.2-18.2,3.3-25.9c1-7.7,1.9-14.4,2.7-20c0.4-2.8,0.8-5.2,1.1-7.4c0.3-2.1,0.6-4,0.9-5.4c0.5-2.9,0.8-4.5,0.8-4.5
	s-0.2,1.6-0.6,4.5c-0.4,3-0.9,7.3-1.6,12.9c-0.6,5.5-1.4,12.3-2.2,20c-0.8,7.7-1.7,16.5-2.7,26s-2,19.8-3.2,30.7
	c-1.1,10.9-2.3,22.4-3.7,34.3c-0.7,5.9-1.4,12-2.4,18.1c-0.5,3.1-1.2,6.2-1.8,9.2c-0.6,3-1,6.1-1.9,9.3s-2.5,6.4-5.1,8.7
	c-2.5,2.4-5.7,3.9-8.8,4.8c-3.2,1-6.4,1.5-9.7,1.7c-3.2,0.2-6.4,0.3-9.6,0.2c-3.2,0-6.4-0.1-9.6-0.3s-6.5-0.5-9.7-1.2
	s-6.4-1.9-9.2-3.8c-1.4-0.9-2.7-2-3.9-3.3c-0.6-0.6-1.1-1.4-1.5-2.1c-0.5-0.8-0.9-1.5-1.2-2.3c-1.3-3.2-1.5-6.5-1.7-9.6
	s-0.3-6.2-0.4-9.3c-0.2-6.2-0.4-12.2-0.7-18.2c-0.2-6-0.5-11.8-0.9-17.6c-0.3-5.7-0.9-11.3-1.4-16.8c-1-10.9-1.9-21.3-2.7-30.8
	c-0.9-9.5-1.8-18.2-2.7-26c-0.9-7.7-1.9-14.4-2.8-19.9S178,22,177.5,19C176.7,16.1,176.4,14.6,176.4,14.6L176.4,14.6z"/>
<path d="M178.9,29.9c0,0,1.6,0.2,4.3,0.5c2.7,0.3,6.6,0.7,11.3,1.1c4.7,0.4,10.2,0.8,16,1c5.9,0.2,12.1,0,18.4-0.3
	c3.1-0.2,6.3-0.4,9.3-0.5c3.1-0.2,6.1-0.4,9-0.6s5.8-0.4,8.4-0.6c2.7-0.2,5.2-0.4,7.6-0.6c2.3-0.2,4.5-0.4,6.4-0.5
	c1.9-0.2,3.6-0.3,4.9-0.5c1.4-0.1,2.4-0.3,3.2-0.4c0.7-0.1,1.1-0.1,1.1-0.1v0.1c0,0-0.4,0.1-1.1,0.2s-1.8,0.3-3.1,0.5
	c-1.4,0.2-3,0.5-4.9,0.7s-4,0.5-6.4,0.8c-2.3,0.3-4.9,0.5-7.6,0.8c-2.7,0.2-5.5,0.5-8.5,0.7c-2.9,0.2-6,0.4-9.1,0.6
	s-6.2,0.3-9.4,0.4c-6.3,0.2-12.6,0.4-18.4,0.1c-5.9-0.2-11.4-0.7-16-1.2c-4.7-0.5-8.6-1-11.3-1.3C180.5,30.2,178.9,30,178.9,29.9
	L178.9,29.9z"/>
</svg>
