<svg id="Layer_1" xmlns="http://www.w3.org/2000/svg" viewBox="0 0 460 234"><style>.st0{fill:url(#SVGID_1_)}.st1{fill:none;stroke:#000;stroke-width:5;stroke-miterlimit:10}</style><linearGradient id="SVGID_1_" gradientUnits="userSpaceOnUse" x1="227.25" y1="-319.234" x2="227.25" y2="-479.3" gradientTransform="translate(0 506)"><stop offset="0" stop-color="#efbf20"/><stop offset="1" stop-color="#aa3800"/></linearGradient><path class="st0" d="M275.9 26.7c-14.8 1.9-38.1 2.1-53 2.1-12.6 0-31.8-.9-44.3-2.1 1.7 28 9.1 55.7 9 83.8-.1 18.4 1.9 36.2 2.9 54.6.2 4 .5 8.2 2.6 11.7 2.5 4.2 7.3 6.9 12.4 8.2 5.1 1.4 10.4 1.5 15.7 1.7 4.6.1 8.5.1 13.1-.1 7.6-.3 15.8-2.1 20.3-7.6 3-3.6 3.9-8.3 4.7-12.7 1-5.4 1.7-7.6 2.6-13.1 3.7-23.6 13.2-107.6 14-126.5z"/><path class="st1" d="M292.1 6.7c2-.1-3.3 15-4.9 23-3.3 16.8-11.9 79.1-12.7 93.3-1.5 25.8-3 51.7-5.9 77.5-.2 1.7-1.8 24.6-4.9 24.6-2.7 2.2-6.5 3.2-10.2 3.9-12 2.3-24.3 2.5-36.4 1-8.4-1.1-19.2-.6-25.2-6.6-3.3-3.3-3.8-7.9-4.1-12.1-2.1-32.4-3.9-63.7-5.1-96.2-.6-15.6-7.8-77.5-12.6-93.6-.6-2.8-3-10.6-2.4-14.4 0-.2 41.6-.6 50.5-.6 11.3-.1 65 .8 73.9.2z"/><path d="M176.4 14.6s.4 1.6 1 4.5c.3 1.5.7 3.3 1.2 5.4s.9 4.6 1.5 7.3c1 5.5 2.2 12.2 3.3 19.9 1.2 7.7 2.3 16.4 3.3 25.9s2.1 19.8 3.2 30.7c.6 5.4 1.2 11.1 1.7 16.8.4 5.8.7 11.6 1 17.6.2 6 .5 12.1.8 18.2.1 3.1.3 6.2.5 9.3s.4 6.1 1.5 8.8c.3.6.6 1.3.9 1.9.5.7.8 1.2 1.3 1.7.9 1.1 2.1 2 3.3 2.8 2.5 1.6 5.3 2.7 8.3 3.3 3 .7 6.1.9 9.2 1.1 3.1.1 6.3.2 9.5.2s6.3-.1 9.5-.2c3.1-.2 6.2-.6 9-1.5 2.9-.9 5.6-2.2 7.7-4.1 2.1-1.9 3.5-4.5 4.4-7.4s1.3-5.9 1.9-9.1c.6-3.1 1.4-6.1 1.9-9 1-6 1.7-12.1 2.5-18 2.9-23.8 5.5-45.9 7.8-64.9 1.1-9.5 2.2-18.2 3.3-25.9 1-7.7 1.9-14.4 2.7-20 .4-2.8.8-5.2 1.1-7.4.3-2.1.6-4 .9-5.4.5-2.9.8-4.5.8-4.5s-.2 1.6-.6 4.5c-.4 3-.9 7.3-1.6 12.9-.6 5.5-1.4 12.3-2.2 20-.8 7.7-1.7 16.5-2.7 26s-2 19.8-3.2 30.7c-1.1 10.9-2.3 22.4-3.7 34.3-.7 5.9-1.4 12-2.4 18.1-.5 3.1-1.2 6.2-1.8 9.2-.6 3-1 6.1-1.9 9.3s-2.5 6.4-5.1 8.7c-2.5 2.4-5.7 3.9-8.8 4.8-3.2 1-6.4 1.5-9.7 1.7-3.2.2-6.4.3-9.6.2-3.2 0-6.4-.1-9.6-.3s-6.5-.5-9.7-1.2-6.4-1.9-9.2-3.8c-1.4-.9-2.7-2-3.9-3.3-.6-.6-1.1-1.4-1.5-2.1-.5-.8-.9-1.5-1.2-2.3-1.3-3.2-1.5-6.5-1.7-9.6s-.3-6.2-.4-9.3c-.2-6.2-.4-12.2-.7-18.2-.2-6-.5-11.8-.9-17.6-.3-5.7-.9-11.3-1.4-16.8-1-10.9-1.9-21.3-2.7-30.8-.9-9.5-1.8-18.2-2.7-26-.9-7.7-1.9-14.4-2.8-19.9S178 22 177.5 19c-.8-2.9-1.1-4.4-1.1-4.4z"/><path d="M178.9 29.9s1.6.2 4.3.5c2.7.3 6.6.7 11.3 1.1 4.7.4 10.2.8 16 1 5.9.2 12.1 0 18.4-.3 3.1-.2 6.3-.4 9.3-.5 3.1-.2 6.1-.4 9-.6a1105.23 1105.23 0 0 0 16-1.2c2.3-.2 4.5-.4 6.4-.5 1.9-.2 3.6-.3 4.9-.5 1.4-.1 2.4-.3 3.2-.4.7-.1 1.1-.1 1.1-.1v.1s-.4.1-1.1.2-1.8.3-3.1.5c-1.4.2-3 .5-4.9.7s-4 .5-6.4.8c-2.3.3-4.9.5-7.6.8-2.7.2-5.5.5-8.5.7-2.9.2-6 .4-9.1.6s-6.2.3-9.4.4c-6.3.2-12.6.4-18.4.1-5.9-.2-11.4-.7-16-1.2-4.7-.5-8.6-1-11.3-1.3-2.5-.6-4.1-.8-4.1-.9z"/></svg>