<svg id="Layer_1" xmlns="http://www.w3.org/2000/svg" viewBox="0 0 705 705"><style>.st0{fill:none}.st1{fill:url(#SVGID_1_)}.st2{fill:#f9f2e4}.st3{fill:none;stroke:#000;stroke-width:5;stroke-miterlimit:10}</style><path class="st0" d="M122.5 0h460v705h-460V0z"/><linearGradient id="SVGID_1_" gradientUnits="userSpaceOnUse" x1="279.514" y1="472.572" x2="279.514" y2="42.204" gradientTransform="matrix(1 0 0 -1 0 707)"><stop offset="0" stop-color="#ffc000"/><stop offset=".998" stop-color="#aa6300"/></linearGradient><path class="st1" d="M413 235.7c-9.6 5.1-24 2.7-33.9 3-31 .9-62 .6-93 .2-32-.4-64.1-1-96.1-2-10.4-.3-20.9-.6-31.3-1.2-2.7-.1-5.7.1-8.3-.5-.8-.2-1.5-.4-2.2-.7-.1 0-.1-.1-.2-.1v.5c3.9 51-5.5 102.1-4.4 153.3.7 31.7 2.1 60.4 2.6 92.1.2 10.8.4 21.5.5 32.3.6 37.3 5.4 73 10.7 110 1.6 11.6 4.6 25.1 15.3 30 12.4 5.7 30.7 5.7 44.2 7 5.8.6 11.7 1 17.5-.1 4.4-.9 8.6-2.7 12.9-3.7 20-4.6 43.6 4.3 63.2 7.8 11.4 2 24 2 33.6-4.6 14.7-10.2 30.7-16.4 48.4-13.4 3.1.5 6.4 1.3 9.3.1 2.7-1.1 4.5-3.7 5.7-6.4 3.3-7.2 3.3-15.4 3.3-23.3-.1-44.8-.9-90 .3-134.7.7-25.5 3-50.9 4.1-76.3 1.3-29.5-3.5-59.1-3.7-88.3-.2-27 .8-54 1.5-81z"/><path d="M288.2 335.2l.6.6c.4.4 1 .9 1.8 1.6 1.6 1.4 4.1 3.3 7.5 5.4s7.7 4.3 12.9 6.5c2.6 1.1 5.3 2.1 8.4 3 3 .9 6.2 1.5 9.6 1.7 6.8.4 14.3-1.6 20.5-6.4s11-11.7 13.9-19.7c1.4-4 2.4-8.2 2.7-12.5.1-1.1.1-2.2.2-3.3.1-.6 0-1.1 0-1.6v-1.6c0-2.2-.3-4.4-.6-6.6-.1-1.1-.5-2.2-.7-3.2l-.4-1.6c-.2-.5-.3-1.1-.5-1.6-.4-1-.7-2.1-1.1-3.2l-1.4-3.1c-2-4-4.5-7.8-7.5-11.1s-6.4-6.3-10.1-8.9c-.9-.7-1.9-1.2-2.8-1.8-1-.6-1.9-1.2-2.9-1.7l-3-1.6c-1-.5-2-.9-3.1-1.4l-1.5-.7-1.6-.6c-1-.4-2.1-.8-3.1-1.1-2.1-.7-4.2-1.1-6.3-1.4-2.1-.2-4.3-.2-6.4 0s-4.2.7-6.2 1.2c-8.1 2.4-15 7.5-20.1 13.3-5.2 5.8-8.8 12.5-10.5 19.1s-1.5 13.1-.5 18.5c1 5.5 2.8 10.1 4.7 13.6 1.9 3.5 3.8 6.1 5.2 7.7.7.8 1.3 1.4 1.6 1.8l.7.7zm0 0l-.6-.6c-.4-.4-1-1-1.7-1.8-1.4-1.6-3.3-4.1-5.2-7.7-1.9-3.5-3.7-8.1-4.8-13.6-1-5.5-1.2-11.9.3-18.7 1.6-6.7 5.1-13.6 10.2-19.6 5.2-6 12-11.3 20.4-14 2.1-.6 4.2-1.1 6.5-1.4 2.2-.3 4.5-.3 6.7-.1 2.3.2 4.5.7 6.7 1.4 1.1.4 2.1.8 3.2 1.1l1.6.6 1.6.7c1 .5 2.1.9 3.1 1.4s2 1 3.1 1.6c1 .5 2 1.1 3 1.7s2 1.1 2.9 1.8l2.8 2c.9.7 1.8 1.5 2.7 2.2l1.3 1.1 1.2 1.2c.8.8 1.7 1.6 2.4 2.5 3.1 3.5 5.7 7.4 7.7 11.6l1.4 3.2c.4 1.1.7 2.2 1.1 3.3.2.6.4 1.1.5 1.7l.4 1.7c.2 1.1.5 2.2.7 3.4.2 2.3.6 4.5.5 6.8v3.4l-.3 3.3c-.4 4.5-1.5 8.8-3.1 12.9-3.1 8.1-8.2 15.2-14.6 19.9-3.2 2.4-6.7 4.1-10.4 5.1-.9.3-1.8.4-2.7.6-.5.1-.9.2-1.3.3-.5 0-.9.1-1.3.1-1.8.1-3.6.2-5.3 0-6.9-.5-12.9-2.7-18.1-4.9-5.1-2.2-9.5-4.5-12.9-6.6s-5.9-4.1-7.5-5.5c-.8-.7-1.4-1.3-1.8-1.7l-.4-.4zm56.2 39.6s-.6.8-1.6 2.3c-1 1.6-2.3 4-3.5 7.2-.6 1.6-1.2 3.5-1.7 5.5-.2 1-.5 2.1-.7 3.2s-.4 2.3-.6 3.5c-.6 4.8-.7 10.3.2 16.1.9 5.8 2.8 12.1 6 18 .9 1.5 1.7 3 2.7 4.4.5.7 1 1.5 1.5 2.1.6.7 1.1 1.4 1.7 2 2.4 2.6 5 5.1 8 7.2 6 4.1 13.4 6.7 21 6.6 3.8-.1 7.6-1.1 10.9-2.8l1.3-.7c.4-.2.8-.5 1.2-.8.4-.2.8-.6 1.1-.8.4-.3.8-.6 1.1-.9 1.4-1.3 2.7-2.7 3.8-4.3 2.3-3.1 3.9-6.6 5-10.3.5-1.9.9-3.7 1.1-5.7.3-1.9.5-3.9.8-5.8.5-3.9.9-7.7.9-11.5s-.3-7.5-1.4-10.9c-1.2-3.4-3-6.6-4.8-9.6-1.9-3-3.9-5.8-6.1-8.5-4.3-5.3-8.8-9.9-13.5-13.5-1.2-.9-2.4-1.7-3.6-2.4-.6-.3-1.3-.7-1.9-.9-.7-.2-1.3-.4-1.9-.6-2.6-.6-5.2-.5-7.6-.1s-4.5 1.2-6.4 2-3.6 1.8-5 2.7c-2.9 1.9-4.9 3.8-6.2 5.1-.7.6-1.1 1.2-1.4 1.6-.2.4-.4.6-.4.6zm0 0s.2-.2.5-.6.7-.9 1.4-1.6c1.3-1.4 3.3-3.2 6.2-5.2 1.5-.9 3.1-1.9 5-2.8s4.1-1.6 6.4-2.1c2.4-.5 5-.6 7.7 0 .7.2 1.3.4 2 .6.7.3 1.3.6 1.9.9 1.3.7 2.5 1.5 3.7 2.4 4.8 3.5 9.5 8.1 13.9 13.3 2.2 2.6 4.3 5.4 6.3 8.4s3.9 6.2 5.2 9.8c1.3 3.6 1.7 7.5 1.8 11.4 0 3.9-.4 7.8-.8 11.7-.2 1.9-.5 3.9-.7 5.8-.2 2-.6 4-1.1 5.9-1.1 3.9-2.8 7.7-5.2 11-1.2 1.6-2.6 3.2-4.1 4.5-.4.4-.8.7-1.2 1l-1.2.9c-.4.3-.9.6-1.3.8l-1.3.7c-3.7 1.9-7.7 2.8-11.8 2.9-4 .1-8-.6-11.7-1.9s-7.1-3.1-10.2-5.3c-3.1-2.2-5.7-4.9-8-7.6-.6-.7-1.1-1.4-1.7-2.1s-1-1.5-1.5-2.2c-1-1.4-1.8-3-2.7-4.5-3.1-6.1-4.9-12.5-5.7-18.4-.8-5.9-.6-11.4 0-16.2.2-1.2.4-2.3.6-3.5.2-1.1.5-2.2.7-3.2.5-2 1.1-3.9 1.7-5.5 1.2-3.3 2.6-5.6 3.6-7.2 1-1.3 1.6-2.1 1.6-2.1zm61.2 82.8l-1.2.6c-.4.2-.9.4-1.5.7-.6.3-1.2.7-1.9 1.1-.4.2-.7.4-1.1.7-.4.3-.8.5-1.2.8-.4.3-.8.6-1.3.9-.4.3-.8.7-1.3 1.1-1.8 1.4-3.6 3.3-5.4 5.5s-3.5 4.7-5 7.5c-1.6 2.8-2.9 5.9-4.2 9.2-1.2 3.3-2.3 6.8-3.2 10.4-.9 3.6-1.6 7.2-1.9 11-.3 3.7-.3 7.5-.1 11.1.1 1.8.3 3.7.6 5.4.2.9.3 1.8.5 2.7.1.9.5 1.7.7 2.5 1 3.3 2.4 6.4 4.2 9.1 1.7 2.7 3.7 5 5.7 7 2 1.9 4 3.6 5.9 4.8 1.9 1.3 3.7 2.3 5.1 3 1.5.7 2.7 1.2 3.5 1.5s1.3.4 1.3.4-.5-.1-1.3-.3c-.9-.2-2.1-.6-3.6-1.3s-3.4-1.5-5.4-2.7c-1-.6-2-1.3-3.1-2-.5-.4-1-.8-1.6-1.2-.5-.4-1.1-.9-1.6-1.4-2.2-1.9-4.3-4.2-6.2-7-.4-.7-1-1.4-1.4-2.1-.4-.8-.8-1.5-1.2-2.3-.4-.8-.7-1.6-1.1-2.4-.2-.4-.4-.8-.5-1.2s-.3-.9-.4-1.3c-.2-.9-.6-1.8-.8-2.7l-.6-2.7c-.3-1.9-.5-3.7-.7-5.6-.3-3.8-.3-7.6 0-11.5.3-3.8 1-7.7 2-11.3 1-3.7 2.1-7.2 3.5-10.5 1.3-3.3 2.8-6.5 4.5-9.3s3.5-5.4 5.5-7.5c1.9-2.1 3.9-3.9 5.8-5.3.5-.3.9-.7 1.4-1s.9-.6 1.3-.8c.4-.3.8-.5 1.2-.8l1.2-.6c.7-.4 1.4-.7 2-1 .6-.2 1.1-.5 1.5-.6.9-.4 1.4-.6 1.4-.6zm-129.5 45.3s-.2 1.2-.5 3.3c-.3 2.2-.9 5.3-1.3 9.4-.4 4.1-.7 9.1 0 14.7.3 2.8 1 5.8 2 8.8s2.6 6 4.6 8.8c2.1 2.8 4.7 5.4 8 7.2 3.2 1.9 7 3 10.9 3.7 7.9 1.3 16.4.9 25.2 1.2 2.2 0 4.4.1 6.6 0 2.2 0 4.4-.2 6.4-.8 2.2-.7 4.1-1.4 6-2.7 1.8-1.2 3.5-2.7 5-4.4s2.8-3.5 3.9-5.5c1.2-2 2.1-4 3-6.1 1.8-4.2 3.1-8.7 4.3-13.2 1.2-4.5 2.2-9 2.6-13.6.4-4.5-.1-9.1-1.7-13.3-1.6-4.2-4.3-7.8-7.3-11.2-2.9-3.4-6-6.6-9.2-9.5-6.4-5.9-13.4-10.8-21-13.2-3.8-1.2-7.7-1.8-11.4-1.6-.9.1-1.9.1-2.8.2s-1.8.3-2.7.4c-.9.2-1.8.4-2.6.6-.4.1-.9.2-1.3.3-.4.1-.8.3-1.2.4-3.3 1-6.4 2.5-9 4.3-1.4.8-2.5 1.9-3.7 2.9-1 1.1-2.1 2.1-3 3.2-3.6 4.4-5.5 9.1-6.8 13s-1.9 7-2.4 9.2c-.4 2.3-.6 3.5-.6 3.5zm0 0s.2-1.2.6-3.3c.5-2.1 1.1-5.3 2.3-9.2 1.3-3.9 3.1-8.6 6.7-13.1.8-1.2 1.9-2.2 3-3.3 1.2-1 2.3-2 3.7-2.9 2.6-1.8 5.7-3.4 9-4.5.4-.1.8-.3 1.3-.4.4-.1.9-.2 1.3-.3.9-.2 1.7-.5 2.6-.7s1.8-.3 2.7-.5c.9-.2 1.9-.2 2.8-.3 3.8-.2 7.8.3 11.7 1.5 7.8 2.3 15.1 7.2 21.7 13 3.3 2.9 6.5 6.1 9.5 9.5s5.9 7.2 7.7 11.6c1.8 4.5 2.2 9.3 1.9 14.1-.3 4.8-1.4 9.4-2.6 13.9s-2.6 9.1-4.5 13.4c-.9 2.2-2 4.3-3.2 6.3-1.2 2.1-2.6 4-4.1 5.8s-3.4 3.3-5.4 4.6l-1.5.9c-.5.3-1.1.5-1.6.8l-.8.4c-.3.1-.5.2-.8.3l-1.6.5c-2.4.6-4.6.7-6.9.7s-4.5-.1-6.7-.2c-4.4-.2-8.7-.3-12.9-.5-4.2-.2-8.4-.5-12.4-1.2s-7.8-2-11.1-4-5.9-4.7-8-7.5c-2-2.9-3.5-6-4.5-9-1.1-3-1.7-6-2-8.9-.6-5.7-.3-10.7.1-14.7.4-4.1 1-7.2 1.3-9.4.5-2.3.7-3.4.7-3.4zm-54.6-128s-.4 1.2-1 3.4c-.6 2.3-1.5 5.6-2.2 9.9s-1.4 9.6-1.4 15.7c-.1 6.1.4 12.9 1.8 20.3.7 3.7 1.8 7.4 3.4 11.1.8 1.8 1.8 3.6 2.9 5.3 1.1 1.7 2.5 3.3 4 4.8 1.5 1.4 3.3 2.6 5.2 3.6 2 .9 4.1 1.5 6.2 1.9 2.2.4 4.4.6 6.7.7 2.3.1 4.6.3 6.9.3 4.7.1 9.4 0 14.1-.5s9.5-1.4 14.1-3c4.5-1.6 9-3.8 12.8-6.7 3.9-2.9 7.3-6.5 9.7-10.7 2.5-4.2 3.9-8.9 4.5-13.7.6-4.8.4-9.7-.5-14.5-.1-.6-.3-1.2-.4-1.8-.1-.5-.3-1.2-.5-1.7-.3-1.2-.6-2.4-1-3.5-.7-2.3-1.6-4.5-2.5-6.7-1.9-4.4-4.1-8.6-6.5-12.5-2.4-4-5.1-7.7-8-11.1-2.8-3.5-6-6.5-9.3-9.2s-6.9-4.9-10.5-6.5c-.9-.4-1.8-.8-2.8-1.1-.9-.3-1.9-.6-2.8-.8-1.9-.4-3.8-.7-5.6-.7-3.7-.1-7.3.4-10.5 1.5-3.3 1-6.2 2.4-8.8 4-5.2 3.2-9 7-11.7 10.4s-4.3 6.5-5.2 8.6c-.5 1.1-.8 1.9-1 2.5 0 .4-.1.7-.1.7zm0 0l.3-.9c.2-.6.5-1.4 1-2.5.9-2.1 2.5-5.2 5.2-8.7 2.7-3.4 6.5-7.3 11.6-10.5 5.2-3.2 11.8-5.8 19.4-5.7 3.8.1 7.7.8 11.5 2.4 3.7 1.6 7.4 3.7 10.8 6.4 3.4 2.7 6.7 5.7 9.6 9.2 3 3.4 5.8 7.1 8.3 11.1s4.9 8.2 6.8 12.6c1 2.2 1.9 4.5 2.6 6.9.4 1.2.7 2.3 1.1 3.5.2.6.3 1.1.5 1.8.1.6.3 1.2.4 1.8 1 4.9 1.2 10 .6 15s-2.1 10-4.7 14.5-6.2 8.2-10.3 11.3c-4.1 3-8.7 5.3-13.4 6.9-4.7 1.6-9.6 2.5-14.5 3-4.8.4-9.6.5-14.3.3-2.3-.1-4.7-.3-7-.5s-4.6-.4-6.8-.9c-2.2-.4-4.4-1.1-6.5-2.1-2-1-3.8-2.3-5.4-3.8-1.6-1.5-2.9-3.2-4.1-5-1.1-1.8-2.1-3.6-2.9-5.5-1.6-3.8-2.6-7.6-3.2-11.3-1.3-7.4-1.8-14.3-1.6-20.4.1-6.1.8-11.4 1.6-15.7.8-4.3 1.6-7.6 2.3-9.9l1.1-3.3zm-2.6-108.5s-1-.3-2.9-.9c-1-.3-2.2-.6-3.6-.9-.7-.2-1.5-.3-2.3-.5-.8-.1-1.7-.3-2.6-.4-3.7-.5-8.3-.5-13.4.9-2.5.6-5.1 1.8-7.5 3.4l-1.8 1.2c-.6.4-1.2 1-1.7 1.5l-.9.8-.8.9c-.5.6-1.1 1.1-1.6 1.7-4 4.9-7.2 11.3-9.1 18.3-1.9 7.1-2.6 14.8-2 22.8.3 4 1 8 2 11.9 1.1 3.9 2.4 7.9 4.5 11.4.3.4.5.9.8 1.3l.2.3.1.1.1.2.5.6c.6.9 1.3 1.6 2 2.3 1.4 1.5 3 2.8 4.8 3.9 3.5 2.3 7.4 3.8 11.5 4.7 8.2 1.9 16.8 1 24.6-1.8 3.9-1.4 7.6-3.3 10.9-5.7 3.3-2.3 6.4-5 8.9-8 5.1-6 8.3-13.3 9.6-20.5 1.3-7.2.7-14.3-1.1-20.4-1.8-6.1-5.1-11.2-8.5-15.1-3.4-4-7-6.8-10.1-8.8s-5.8-3.3-7.7-4.1c-.9-.4-1.6-.7-2.1-.9-.6-.1-.8-.2-.8-.2zm0 0s.3.1.7.3c.5.2 1.2.4 2.1.8 1.9.8 4.5 2 7.7 4 3.1 2 6.8 4.8 10.3 8.8 3.5 3.9 6.7 9 8.7 15.1s2.7 13.3 1.5 20.7c-1.1 7.3-4.2 14.9-9.4 21.2-5.1 6.4-12.2 11.4-20.3 14.4-8 3-17.1 4-25.7 2.1-4.3-1-8.4-2.7-12.1-5.1-1.8-1.2-3.5-2.7-5-4.2-.7-.8-1.5-1.7-2.1-2.5l-.5-.6-.1-.2c-.1-.1-.1-.1-.1-.2l-.2-.3c-.3-.5-.6-.9-.9-1.4-2.2-3.8-3.5-7.8-4.5-11.9s-1.6-8.2-1.8-12.2c-.5-8.1.4-16 2.5-23.1s5.4-13.4 9.6-18.4c.5-.6 1.1-1.2 1.7-1.7l.8-.8c.3-.2.6-.5.9-.7.6-.5 1.2-1 1.8-1.4s1.2-.8 1.9-1.2c2.5-1.5 5.1-2.7 7.6-3.3 5.1-1.4 9.7-1.3 13.4-.8.9.1 1.8.3 2.6.4.8.2 1.6.3 2.3.5 1.4.4 2.6.6 3.6 1 2 .4 3 .7 3 .7zM147 346.9s.5.3 1.5.8 2.4 1.3 4.1 2.3c3.5 2.1 8.4 5.4 13.6 10.2 2.6 2.4 5.3 5.1 7.9 8.2 2.6 3.1 5.2 6.5 7.4 10.4 1.1 1.9 2.1 4 3 6.1.4 1.1.8 2.1 1.1 3.3.3 1.1.6 2.2.8 3.4.9 4.7.9 9.5.4 14.2s-1.6 9.4-2.9 13.8l-2.1 6.6-2.1 6.3c-1.5 4.2-3.2 8.1-5.3 11.6-1 1.8-2.1 3.4-3.2 5-1.1 1.5-2.3 3-3.6 4.3-2.4 2.6-5 4.6-7.4 6.2s-4.7 2.6-6.6 3.3c-1 .4-1.8.7-2.6.9-.8.2-1.4.4-2 .5-1.1.2-1.6.4-1.6.4s.6-.2 1.6-.5c.5-.1 1.2-.4 1.9-.6.8-.3 1.6-.6 2.5-1 1.9-.8 4.1-2 6.4-3.6 2.3-1.6 4.7-3.7 7-6.3 2.3-2.6 4.4-5.7 6.3-9.2 1.9-3.5 3.5-7.4 4.9-11.5.7-2 1.3-4.2 2-6.4.7-2.1 1.4-4.3 2-6.5 1.3-4.4 2.3-8.9 2.8-13.5s.5-9.2-.3-13.6c-.2-1.1-.5-2.2-.8-3.3-.3-1-.6-2.1-1-3.1-.8-2.1-1.7-4-2.8-5.9-2.1-3.8-4.6-7.2-7.1-10.3-2.5-3.1-5.1-5.9-7.6-8.3s-4.9-4.5-7.1-6.3c-2.2-1.8-4.2-3.2-5.9-4.4-1.7-1.1-3-2-4-2.6-.7-.6-1.2-.9-1.2-.9zm28.2 134.2s-.2.2-.5.7-.8 1.1-1.4 2c-1.2 1.8-2.8 4.5-4.3 8.2-1.6 3.7-3.1 8.3-4.2 13.7-.6 2.7-1 5.6-1.3 8.7s-.5 6.4-.4 9.8c.1 3.4.4 7 1.4 10.5s2.6 7 4.8 10.2c4.4 6.3 11.3 11.5 19.3 14.2 4 1.4 8.2 2.1 12.5 2.3s8.7-.1 13.1-.8c.5-.1 1.1-.2 1.6-.3l1.6-.4c.5-.1 1.1-.3 1.6-.4l1.6-.5c.5-.2 1.1-.3 1.6-.5l1.6-.6c.5-.2 1-.4 1.6-.6l1.5-.7c4-1.9 7.9-4.3 11.3-7.2s6.4-6.2 8.8-10c2.3-3.8 3.9-8 4.5-12.3l.1-.8.1-.8c0-.6.1-1.1.1-1.7v-1.6l-.1-1.6c-.1-2.2-.5-4.3-.9-6.4-1-4.2-2.6-8.2-4.6-11.9-2-3.7-4.5-7.1-7.1-10.3-2.6-3.2-5.2-6.2-7.9-9-5.4-5.6-11-10.5-16.9-14-2.9-1.7-5.9-3.3-8.9-3.7-3.1-.5-6-.2-8.7.5-1.4.3-2.6.8-3.8 1.3-1.2.6-2.3 1-3.4 1.6-2.1 1.1-3.9 2.4-5.5 3.6-3.1 2.5-5.3 4.7-6.7 6.4-.7.8-1.2 1.5-1.6 1.9l-.5.5zm0 0s.2-.2.5-.7c.3-.4.8-1.1 1.5-1.9 1.4-1.6 3.5-3.9 6.7-6.4 1.6-1.2 3.4-2.5 5.5-3.7 1-.6 2.2-1.1 3.4-1.7 1.2-.5 2.5-1 3.8-1.3 2.7-.7 5.7-1.1 8.8-.6s6.1 1.9 9.1 3.6c6 3.4 11.7 8.3 17.3 13.8 2.8 2.8 5.5 5.8 8.2 8.9 2.6 3.2 5.2 6.5 7.4 10.3 2.2 3.7 3.9 7.8 5 12.2.5 2.2.9 4.4 1.1 6.7l.1 1.7v1.7c0 .6-.1 1.1-.1 1.7l-.1.9-.1.9c-.6 4.6-2.3 9-4.7 13-2.4 4-5.5 7.5-9.1 10.5-7.1 6-16 9.8-24.9 11.4-9 1.6-18.2 1-26.4-2-8.2-2.9-15.1-8.4-19.5-15-2.2-3.3-3.8-6.9-4.7-10.5s-1.2-7.2-1.2-10.6c0-3.4.3-6.7.6-9.8s.8-6 1.4-8.8c1.1-5.4 2.7-10.1 4.3-13.7 1.6-3.7 3.2-6.4 4.4-8.2.6-.9 1.1-1.6 1.4-2 .2-.1.3-.4.3-.4zm126.2 171.1s.6-.6 1.7-1.6c.5-.6 1.2-1.3 1.9-2.1.7-.9 1.5-1.9 2.3-3.1 1.6-2.4 3.2-5.6 4.3-9.4.3-1 .5-2 .8-3 .2-1.1.4-2.1.5-3.2.3-2.2.4-4.6.3-7s-.4-5-1-7.6-1.5-5.2-2.6-7.8c-2.2-5.2-5.6-10.1-9.7-14.7-2.1-2.3-4.3-4.4-6.8-6.4-1.2-1-2.5-2-3.8-2.9l-2-1.4-2-1.2c-5.5-3.2-11.7-5.7-18.1-6.6-6.4-1-13-.3-18.8 2.3s-10.6 6.9-14.3 11.8c-3.7 4.9-6.2 10.3-7.9 15.7s-2.7 10.7-3.4 15.6c-.7 4.9-1 9.4-.6 13.4.3 4 1.2 7.4 2.5 10s2.9 4.3 4.1 5.2c.1.1.3.2.4.4.1.1.3.2.4.3.2.2.5.3.6.4.3.2.5.3.5.3s-.2-.1-.5-.3c-.2-.1-.4-.2-.6-.4-.1-.1-.3-.2-.4-.3-.1-.1-.3-.2-.4-.3-1.3-.9-3-2.6-4.3-5.2-1.4-2.6-2.5-6-2.9-10.1-.2-2-.3-4.2-.3-6.5s.3-4.7.5-7.2c.6-5 1.4-10.3 3.1-15.9 1.7-5.5 4.1-11.2 7.9-16.3 3.8-5.1 8.8-9.7 14.9-12.5l1.2-.5 1.1-.4c.8-.3 1.6-.5 2.4-.8 1.6-.5 3.3-.8 5-1 3.4-.4 6.8-.3 10.2.2 6.7 1 13.1 3.6 18.8 7l2.1 1.3 2 1.4c1.4 1 2.6 2 3.9 3 2.5 2.1 4.8 4.3 6.9 6.7 4.2 4.7 7.5 9.9 9.7 15.3 1.1 2.7 2 5.4 2.5 8 .6 2.7.8 5.3.9 7.8.1 5-.7 9.7-2.1 13.5-1.3 3.9-3 7-4.7 9.4-.8 1.2-1.7 2.2-2.4 3.1l-2 2c-1.2 1.1-1.8 1.6-1.8 1.6z"/><path class="st2" d="M148 234.9c-7.1-61.1 11.8-119.2 58.6-140.9 7-3.3 14.9-2 22.5-1.4 9.2.7 13.9-1.8 21.7-6 6.6-3.5 14.1-6.5 21.5-5.1 1.8.4 3.7 1 5.5.7 1.8-.2 3.4-1.3 5.1-1.9 6.7-2.5 14 .9 21 2.7 5 1.3 10.3 1.7 15.4 1.2 11.2-1.1 22.1-.2 32.2 4.9 4.1 2.1 8 4.6 12.4 5.7 2.5.6 5.2.8 7.6 1.7 2.9 1.1 5.3 3.2 7.6 5.3 13.6 12.1 16.9 26.2 24.2 42.5 3.3 7.2 4.8 15.1 6 22.9 2.8 17.9 3.9 36.1 3.4 54.3-.3 9.6.1 9.1 0 13.8 0 8.1-264.5 1.7-264.7-.4z"/><path d="M155.3 579.7l.2-.2c.1-.2.3-.4.6-.7.6-.6 1.5-1.4 2.8-2.2s3-1.6 5.1-2.1 4.5-.8 7.2-.6c2.6.2 5.5.7 8.4 1.6 2.9.9 5.9 1.9 8.8 3.5 2.9 1.6 5.8 3.9 7.7 6.9s3.1 6.4 3.9 9.9c.4 1.7.7 3.4 1 5.2.1.9.2 1.7.3 2.6.1.9.1 1.7.2 2.6.2 3.5.2 6.9-.2 10.2-.1 1.6-.4 3.2-.7 4.8-.1.8-.4 1.5-.5 2.3-.2.8-.3 1.5-.6 2.2-.5 1.4-.8 2.9-1.4 4.2-.3.7-.5 1.3-.8 1.9l-.9 1.8c-.3.6-.6 1.2-.9 1.7-.3.5-.7 1.1-1 1.6s-.7 1-1 1.5-.7.9-1 1.3c-.7.8-1.3 1.6-1.9 2.3-.6.7-1.2 1.3-1.8 1.8-.5.6-1.1 1-1.5 1.3-.5.4-.9.7-1.2.9-.6.5-1 .8-1 .8l.9-.9c.3-.3.7-.6 1.1-1l1.4-1.4c.5-.6 1-1.2 1.6-1.9s1.1-1.5 1.7-2.4c.3-.4.6-.9.9-1.3l.9-1.5c.3-.5.6-1 .9-1.6.3-.6.5-1.1.8-1.7.3-.6.6-1.2.8-1.8s.5-1.3.7-1.9c.5-1.3.8-2.7 1.3-4.1.2-.7.3-1.4.5-2.2.1-.7.3-1.5.4-2.2.2-1.5.5-3.1.6-4.7.3-3.2.2-6.5 0-9.9-.1-.8-.1-1.7-.2-2.5s-.2-1.7-.3-2.5c-.3-1.7-.6-3.3-1-5-.7-3.3-1.9-6.5-3.6-9.3-.4-.7-.9-1.3-1.4-2-.2-.3-.5-.6-.8-.9-.3-.3-.5-.6-.8-.8-1.2-1.1-2.5-2-3.9-2.8-2.8-1.5-5.7-2.7-8.5-3.6-2.8-1-5.5-1.6-8-1.9-2.5-.3-4.9-.2-6.9.2s-3.8 1-5.1 1.7-2.3 1.4-2.9 1.9c-.3.2-.5.5-.7.6l-.2.3zm189.6 62.9s-.5-.3-1.6-.9c-1-.6-2.5-1.5-4.3-2.8s-3.9-3-6-5.3-4.1-5.2-5.4-8.9c-1.2-3.7-1.5-7.9-1.5-12.3 0-4.3-.1-8.9.5-13.7.3-2.4.7-4.8 1.3-7.2.6-2.4 1.4-4.8 2.6-7.1 1.1-2.3 2.6-4.5 4.2-6.4l1.3-1.4c.5-.5.9-.9 1.4-1.3 1-.9 2.1-1.7 3.2-2.4 4.4-2.8 9.5-4.3 14.4-5.2s9.9-1.3 14.7-.7c2.4.3 4.8.7 7 1.6.3.1.5.2.8.3l.8.3c.5.2 1 .5 1.5.7 1 .6 2 1.1 2.9 1.7 3.7 2.5 6.6 5.5 8.9 8.5s4.1 6.1 5.5 8.8 2.5 5.2 3.4 7.2 1.5 3.6 1.9 4.7c.4 1.1.7 1.7.7 1.7s-1-2.3-3-6.3c-1-2-2.2-4.4-3.7-7s-3.4-5.6-5.7-8.5c-2.3-2.9-5.3-5.8-8.8-8-.9-.6-1.8-1-2.8-1.5l-1.5-.6-.8-.3c-.2-.1-.5-.2-.7-.3-2.1-.7-4.3-1.2-6.6-1.4-4.6-.5-9.4 0-14.2.9-4.8.9-9.6 2.4-13.7 5-1 .6-2 1.4-2.9 2.1-.4.4-1 .9-1.3 1.3l-1.3 1.3c-1.6 1.8-2.9 3.9-4 6s-1.9 4.4-2.5 6.7-1 4.6-1.3 6.9c-.6 4.6-.7 9.2-.8 13.5-.1 4.3 0 8.4 1.1 11.9s2.9 6.5 4.9 8.8c1.9 2.3 3.9 4.1 5.6 5.5s3.1 2.4 4.1 3.1c1.2.6 1.7 1 1.7 1z"/><path d="M158.4 134.8s-.6 1.1-1.7 3.2c-.5 1.1-1.2 2.4-1.9 4s-1.6 3.5-2.4 5.7c-1.7 4.3-3.6 9.7-5.3 16.3-1.7 6.5-3.1 14.2-3.7 22.8-.4 4.3-.4 8.9-.3 13.7.1 4.8.5 9.8 1 15s1.1 10.6 1.5 16.3c.2 2.8.4 5.7.5 8.6.1 2.9.2 5.9.3 8.9.3 12.1 0 25-.7 38.5-.7 13.6-1.7 27.8-2.6 42.6-.9 14.8-1.7 30.3-1.6 46.3 0 8 .3 16.2.6 24.4.3 8.3.6 16.7.9 25.2.6 17 1.2 34.5 1.5 52.5.4 17.9.3 36.2 1.6 54.7 1.2 18.5 3.3 37.3 5.8 56.2 1.2 9.5 2.6 19 4 28.6.7 4.7 1.6 9.5 3.1 13.9 1.6 4.4 3.8 8.7 7.3 11.6l.6.6.7.5c.5.3.9.7 1.4.9s1 .6 1.5.8l1.7.7c2.2.8 4.4 1.5 6.8 2.1 4.7 1.1 9.5 1.8 14.3 2.3 4.9.5 9.8.8 14.7 1.2 2.5.2 5 .4 7.4.6 2.4.2 4.9.4 7.3.4 2.4 0 4.8-.1 7.1-.5s4.6-1 7-1.8c2.4-.7 4.7-1.5 7.3-2.1l3.6-.7 3.8-.4c10.2-.7 20.2 1 29.9 3 9.7 2.1 19.3 4.8 29 6.3 4.8.7 9.7.9 14.4.5 4.8-.5 9.4-1.8 13.5-4.1l1.5-.9c.5-.3 1-.7 1.5-1l1.5-1 1.6-1c2.1-1.3 4.3-2.6 6.5-3.7 4.4-2.3 9.1-4.2 14-5.6 4.8-1.3 9.9-2.1 14.9-2.2 2.5 0 5 .1 7.5.5 2.5.3 4.9.9 7.1 1 1.1 0 2.2-.1 3.1-.4.5-.1 1-.4 1.4-.6l1.2-.9c.8-.7 1.4-1.6 2-2.6s1-2 1.5-3.1c.8-2.1 1.4-4.4 1.8-6.7s.6-4.7.7-7.1c.2-4.8.1-9.6.1-14.4 0-4.8 0-9.6-.1-14.4-.1-19.1-.2-38-.2-56.6s.2-36.9.7-54.8 1.8-35.4 2.9-52.4c.6-8.5 1.1-16.9 1.5-25.1.4-8.3.3-16.3 0-24.4-.6-16-2.1-31.4-2.9-46.3-.4-7.4-.6-14.7-.5-21.9 0-7.1.1-14.1.2-20.9.3-13.6.7-26.4 1.1-38.5s.8-23.4 1-33.8c.3-10.5.5-20.1.1-28.7-.3-8.7-1.1-16.4-2.3-23-1.2-6.6-2.8-12.2-4.3-16.5-.8-2.2-1.5-4.1-2.3-5.7-.7-1.6-1.3-3-1.9-4 .6 1 1.2 2.4 1.9 4 .8 1.6 1.5 3.5 2.3 5.7 1.6 4.4 3.2 9.9 4.5 16.5s2.1 14.4 2.5 23c.4 8.7.3 18.3.2 28.8-.2 10.5-.4 21.8-.7 33.9-.3 12.1-.6 24.9-.8 38.5-.1 13.6-.4 27.8.5 42.6.8 14.8 2.4 30.3 3.1 46.3.3 8 .5 16.3.1 24.5-.4 8.3-.8 16.7-1.3 25.2-1 17-2.2 34.5-2.6 52.3-.4 17.9-.6 36.2-.6 54.7 0 18.6.2 37.5.3 56.6 0 4.8.1 9.6.1 14.4 0 4.8.1 9.6-.1 14.5s-.8 9.9-2.6 14.7c-.9 2.3-2.1 4.7-4.1 6.7-.5.5-1.1.9-1.7 1.3-.7.4-1.2.7-1.9.9-1.4.4-2.8.6-4.1.5-2.7-.1-5-.8-7.4-1-2.4-.3-4.7-.4-7.1-.4-4.8 0-9.5.8-14.1 2.1s-9.1 3.1-13.4 5.4c-2.1 1.1-4.3 2.3-6.3 3.6l-1.5 1-1.5 1c-.5.3-1 .7-1.5 1l-1.6 1c-4.5 2.6-9.6 4-14.7 4.5s-10.2.3-15.2-.5c-9.9-1.5-19.5-4.2-29.2-6.3-9.6-2.1-19.4-3.7-29-3l-3.5.4-3.6.7c-2.2.5-4.6 1.3-7 2-2.4.8-4.8 1.5-7.4 1.9-2.5.4-5.1.5-7.6.5s-5-.2-7.5-.4-4.9-.5-7.3-.6c-4.9-.4-9.8-.7-14.8-1.2-4.9-.5-9.9-1.2-14.7-2.4-2.4-.6-4.8-1.3-7.2-2.2l-1.7-.7-1.8-.9c-.6-.3-1.1-.7-1.7-1l-.8-.6c-.3-.2-.5-.4-.7-.6-2-1.7-3.7-3.7-5-5.9s-2.3-4.5-3.1-6.9c-1.6-4.7-2.5-9.6-3.2-14.4-1.4-9.6-2.7-19.1-3.9-28.6-2.5-19-4.5-37.8-5.7-56.4-.6-9.3-1-18.6-1.1-27.7s-.3-18.2-.4-27.1c-.2-17.9-.7-35.4-1.2-52.4-.2-8.5-.5-16.9-.7-25.2-.2-8.3-.5-16.4-.5-24.5-.1-16.1.8-31.6 1.8-46.4s2.1-29.1 2.9-42.6c.8-13.5 1.2-26.4 1.1-38.4-.1-3-.2-6-.2-8.9-.1-2.9-.3-5.8-.5-8.6-.3-5.6-.9-11-1.3-16.3-.4-5.2-.8-10.2-.9-15-.1-4.8.1-9.4.4-13.7.7-8.7 2.2-16.3 4-22.8 1.7-6.5 3.7-11.9 5.4-16.2.8-2.2 1.7-4 2.4-5.6.8-1.6 1.4-2.9 1.9-4 1.2-2.8 1.8-3.9 1.8-3.9z"/><path class="st3" d="M566.9 364.8c-3.2-19.3-6.7-40.2-21.7-54.3-8.9-8.3-21.1-12.2-33.2-13.9-12.1-1.7-24.3-1.7-36.3-3.6-17.2 1.4-33.1 3.3-48.1-5.2-12.4-7-9.4-25.1-9.4-37.7-.1-42.9.1-83.6-15.8-124.4-42.5.6-86.6-5.8-128.9-1.8-12.8 1.2-25.7 2.8-38.6 3.4-26.8 1.4-54 .6-80.6-1.9-4.6 11.9-9.2 23.8-12.2 36.1-9.5 38.7-2.8 79.4-5 119.2-3 54.9.1 110.7-2.7 165.6-2 39.9-.2 80 4.1 119.7 1.9 17.6 7.6 37.3 6.2 54.9-1.3 17.1-9 34-6.8 51.5.4 2.8 1 5.7 2.6 8 1.7 2.6 4.4 4.3 7.1 5.9 8.3 4.8 17.3 8.1 26.7 9.8 40.9 7.4 82.7 6.2 124.2 4.9 34.2-1.1 69.5-2.5 100.5-16.9 6.2-2.9 12.5-6.6 15.3-12.9 3.3-7.3.8-15.7 1.1-23.7.5-16.7 14.5-32 31.1-33.8 20-2.2 37.1-10.8 55.3-19.2 20.1-9.3 37.6-30.4 48.8-49.6 11.9-20.4 17.3-46.6 18.9-70 1.1-15.9 1.7-31.8 1.8-47.7.2-20.9-1.1-41.8-4.4-62.4zm-33.4 99c-2.7 32-8 63.7-28.8 88.2-2.6 3-37.8 19.4-54.6 18.1-12.1-.9-25.8-6-29.3-17.6-1-3.3-1-6.9-1.1-10.4-.4-54.4-.7-108.8-1.1-163.3-.1-9.9-.1-20 3.6-29.2 3.6-9.2 11.8-17.3 21.7-17.7 19.7-.9 37-.9 56.7-.2 6.5.2 13.6.7 18.3 5.2 3.6 3.4 5 8.6 6.2 13.4 8.7 37.1 11.6 75.6 8.4 113.5z"/><path d="M162.6 127s.5-.9 1.5-2.6 2.5-4.2 4.6-7.2 4.9-6.5 8.4-10.3c3.5-3.7 7.9-7.7 13-11.3 2.6-1.8 5.4-3.6 8.4-5.2 1.5-.9 3-1.6 4.7-2.4l1.2-.5 1.3-.5c.9-.3 1.8-.5 2.7-.7 3.7-.7 7.5-.7 11.3-.4 3.8.2 7.7.8 11.4.5 3.7-.3 7.3-1.5 10.9-3.3 3.5-1.8 7.1-3.9 11-5.5 3.9-1.6 8.2-2.8 12.7-2.7 1.1 0 2.2.1 3.3.3 1.1.2 2.2.5 3.1.6 1 .2 1.8.2 2.6.1.7-.1 1.6-.5 2.6-.9.5-.2 1-.4 1.5-.7l.4-.2.4-.1.7-.2c.5-.2 1.2-.3 1.7-.4.6-.1 1.1-.2 1.7-.2 2.3-.1 4.5.2 6.6.6 4.2 1 8.1 2.5 12 3.4s7.9 1.2 11.8 1c.5 0 1-.1 1.5-.1l1.8-.3c1-.1 2-.1 3-.2 2-.1 4-.1 6 0 8 .2 15.8 2.1 22.3 5.5 3.3 1.7 6.2 3.6 9.2 4.8 1.5.6 3 1.1 4.6 1.4s3.2.5 4.8 1c1.6.4 3.1 1.2 4.4 2 1.3.9 2.5 1.8 3.5 2.8 1.1 1 2.1 1.9 3.1 2.9s1.9 2 2.7 2.9c3.4 3.9 5.7 7.8 7.5 11 1.7 3.2 2.8 5.9 3.6 7.7.7 1.8 1.1 2.8 1.1 2.8s-.4-.9-1.3-2.7c-.9-1.8-2.1-4.4-4-7.5s-4.3-6.8-7.8-10.5c-.9-.9-1.8-1.8-2.8-2.7-1-.9-2-1.8-3.1-2.7-2.2-1.8-4.5-3.6-7.4-4.3-1.5-.4-3-.6-4.7-.8-1.7-.3-3.4-.8-5-1.4-3.3-1.3-6.3-3.1-9.5-4.7-6.3-3.1-13.7-4.6-21.4-4.8-1.9 0-3.9 0-5.8.1-1 .1-1.9.1-2.9.2l-1.5.1c-.5.1-1 .1-1.6.1-4.2.3-8.4 0-12.6-1-4.2-.9-8.1-2.4-12-3.3-2-.4-3.9-.7-5.8-.6-.5 0-.9.1-1.4.2-.4.1-.8.2-1.3.3l-.7.2-.2.2-.3.1c-.4.2-.9.4-1.4.6-1 .4-2 .9-3.3 1.2-1.2.2-2.5.1-3.6-.1s-2.1-.5-3.1-.6c-1-.2-1.9-.3-2.9-.3-3.9-.1-7.8 1-11.5 2.5s-7.2 3.6-10.9 5.3c-1.9.9-3.8 1.7-5.8 2.3-2 .6-4.1 1-6.1 1.1-4.2.3-8-.3-11.7-.6-3.7-.3-7.4-.5-10.8.1-.8.1-1.7.3-2.5.6l-1.2.4-1.2.5c-1.5.7-3.1 1.4-4.6 2.2-3 1.5-5.8 3.2-8.3 4.9-5.1 3.5-9.6 7.2-13.2 10.7-3.6 3.6-6.5 6.9-8.8 9.8-2.2 2.9-3.9 5.3-5 6.9-1 1.7-1.6 2.6-1.6 2.6zM410 230.3l-.1.2c-.1.2-.2.3-.5.5-.5.3-1.2.6-2.1.8-1.9.5-4.7 1-8.4 1.4-3.6.4-8 .8-13.1 1.2-5.1.3-10.8.6-17 .8s-13 .3-20.1.3-14.7-.2-22.4-.4c-7.8-.2-15.8-.4-24-.5H290c-4.1 0-8.3.1-12.4.1-4.2 0-8.3.1-12.4.1h-12.3c-8.2-.1-16.2-.2-24-.2-3.9 0-7.7-.1-11.5-.2-3.7-.1-7.4-.2-11-.3-7.1-.2-13.9-.5-20.1-.8-6.2-.3-11.9-.6-17-.9-5-.3-9.5-.6-13.1-.9-3.6-.3-6.5-.6-8.4-.8-1-.1-1.7-.2-2.2-.3s-.8-.1-.8-.4h.4c.1 0 .3.1.5.1.5 0 1.2.1 2.2.1 1.9.1 4.8.2 8.4.2 7.3.1 17.6.2 30.1.4 6.2.1 13 .2 20.1.3 3.6.1 7.2.1 11 .2 3.7.1 7.6.2 11.5.3 7.8.2 15.8.5 24 .7 4.1.1 8.2.3 12.3.4 4.1.2 8.3.3 12.4.5 4.1.1 8.3.3 12.4.4 4.1.1 8.2.2 12.3.2 8.2.1 16.2 0 24-.2s15.3-.5 22.4-.6 13.9-.2 20.1-.2c6.2-.1 11.9-.1 17-.2 5-.1 9.4-.2 13.1-.4 3.6-.2 6.4-.4 8.3-.8.9-.2 1.7-.4 2.1-.6.4-.2.4-.4.4-.4l.2-.1z"/></svg>