<?xml version="1.0" encoding="utf-8"?>
<!-- Generator: Adobe Illustrator 19.2.0, SVG Export Plug-In . SVG Version: 6.00 Build 0)  -->
<svg version="1.1" id="Layer_1" xmlns="http://www.w3.org/2000/svg" xmlns:xlink="http://www.w3.org/1999/xlink" x="0px" y="0px"
	 viewBox="0 0 460 637.9" style="enable-background:new 0 0 460 637.9;" xml:space="preserve">
<style type="text/css">
	.st0{fill:url(#SVGID_1_);}
	.st1{fill:#F9F2E4;}
	.st2{fill:none;stroke:#000000;stroke-width:5;stroke-miterlimit:10;}
</style>
<linearGradient id="SVGID_1_" gradientUnits="userSpaceOnUse" x1="156.9664" y1="911.4953" x2="156.9664" y2="481.1272" gradientTransform="matrix(1 0 0 -1 0 1078.7906)">
	<stop  offset="0" style="stop-color:#FFC000"/>
	<stop  offset="0.998" style="stop-color:#AA6300"/>
</linearGradient>
<path class="st0" d="M290.5,168.6c-9.6,5.1-24,2.7-33.9,3c-31,0.9-62,0.6-93,0.2c-32-0.4-64.1-1-96.1-2c-10.4-0.3-20.9-0.6-31.3-1.2
	c-2.7-0.1-5.7,0.1-8.3-0.5c-0.8-0.2-1.5-0.4-2.2-0.7c-0.1,0-0.1-0.1-0.2-0.1v0.5c3.9,51-5.5,102.1-4.4,153.3
	c0.7,31.7,2.1,60.4,2.6,92.1c0.2,10.8,0.4,21.5,0.5,32.3c0.6,37.3,5.4,73,10.7,110c1.6,11.6,4.6,25.1,15.3,30
	c12.4,5.7,30.7,5.7,44.2,7c5.8,0.6,11.7,1,17.5-0.1c4.4-0.9,8.6-2.7,12.9-3.7c20-4.6,43.6,4.3,63.2,7.8c11.4,2,24,2,33.6-4.6
	c14.7-10.2,30.7-16.4,48.4-13.4c3.1,0.5,6.4,1.3,9.3,0.1c2.7-1.1,4.5-3.7,5.7-6.4c3.3-7.2,3.3-15.4,3.3-23.3
	c-0.1-44.8-0.9-90,0.3-134.7c0.7-25.5,3-50.9,4.1-76.3c1.3-29.5-3.5-59.1-3.7-88.3C288.8,222.6,289.8,195.6,290.5,168.6L290.5,168.6
	z"/>
<path d="M165.7,268.1l0.6,0.6c0.4,0.4,1,0.9,1.8,1.6c1.6,1.4,4.1,3.3,7.5,5.4s7.7,4.3,12.9,6.5c2.6,1.1,5.3,2.1,8.4,3
	c3,0.9,6.2,1.5,9.6,1.7c6.8,0.4,14.3-1.6,20.5-6.4s11-11.7,13.9-19.7c1.4-4,2.4-8.2,2.7-12.5c0.1-1.1,0.1-2.2,0.2-3.3
	c0.1-0.6,0-1.1,0-1.6v-1.6c0-2.2-0.3-4.4-0.6-6.6c-0.1-1.1-0.5-2.2-0.7-3.2l-0.4-1.6c-0.2-0.5-0.3-1.1-0.5-1.6
	c-0.4-1-0.7-2.1-1.1-3.2l-1.4-3.1c-2-4-4.5-7.8-7.5-11.1s-6.4-6.3-10.1-8.9c-0.9-0.7-1.9-1.2-2.8-1.8c-1-0.6-1.9-1.2-2.9-1.7l-3-1.6
	c-1-0.5-2-0.9-3.1-1.4l-1.5-0.7l-1.6-0.6c-1-0.4-2.1-0.8-3.1-1.1c-2.1-0.7-4.2-1.1-6.3-1.4c-2.1-0.2-4.3-0.2-6.4,0s-4.2,0.7-6.2,1.2
	c-8.1,2.4-15,7.5-20.1,13.3c-5.2,5.8-8.8,12.5-10.5,19.1s-1.5,13.1-0.5,18.5c1,5.5,2.8,10.1,4.7,13.6c1.9,3.5,3.8,6.1,5.2,7.7
	c0.7,0.8,1.3,1.4,1.6,1.8L165.7,268.1L165.7,268.1z M165.7,268.1l-0.6-0.6c-0.4-0.4-1-1-1.7-1.8c-1.4-1.6-3.3-4.1-5.2-7.7
	c-1.9-3.5-3.7-8.1-4.8-13.6c-1-5.5-1.2-11.9,0.3-18.7c1.6-6.7,5.1-13.6,10.2-19.6c5.2-6,12-11.3,20.4-14c2.1-0.6,4.2-1.1,6.5-1.4
	c2.2-0.3,4.5-0.3,6.7-0.1c2.3,0.2,4.5,0.7,6.7,1.4c1.1,0.4,2.1,0.8,3.2,1.1l1.6,0.6l1.6,0.7c1,0.5,2.1,0.9,3.1,1.4s2,1,3.1,1.6
	c1,0.5,2,1.1,3,1.7s2,1.1,2.9,1.8l2.8,2c0.9,0.7,1.8,1.5,2.7,2.2l1.3,1.1l1.2,1.2c0.8,0.8,1.7,1.6,2.4,2.5c3.1,3.5,5.7,7.4,7.7,11.6
	l1.4,3.2c0.4,1.1,0.7,2.2,1.1,3.3c0.2,0.6,0.4,1.1,0.5,1.7l0.4,1.7c0.2,1.1,0.5,2.2,0.7,3.4c0.2,2.3,0.6,4.5,0.5,6.8v3.4l-0.3,3.3
	c-0.4,4.5-1.5,8.8-3.1,12.9c-3.1,8.1-8.2,15.2-14.6,19.9c-3.2,2.4-6.7,4.1-10.4,5.1c-0.9,0.3-1.8,0.4-2.7,0.6
	c-0.5,0.1-0.9,0.2-1.3,0.3c-0.5,0-0.9,0.1-1.3,0.1c-1.8,0.1-3.6,0.2-5.3,0c-6.9-0.5-12.9-2.7-18.1-4.9c-5.1-2.2-9.5-4.5-12.9-6.6
	s-5.9-4.1-7.5-5.5c-0.8-0.7-1.4-1.3-1.8-1.7L165.7,268.1L165.7,268.1z M221.9,307.7c0,0-0.6,0.8-1.6,2.3c-1,1.6-2.3,4-3.5,7.2
	c-0.6,1.6-1.2,3.5-1.7,5.5c-0.2,1-0.5,2.1-0.7,3.2s-0.4,2.3-0.6,3.5c-0.6,4.8-0.7,10.3,0.2,16.1c0.9,5.8,2.8,12.1,6,18
	c0.9,1.5,1.7,3,2.7,4.4c0.5,0.7,1,1.5,1.5,2.1c0.6,0.7,1.1,1.4,1.7,2c2.4,2.6,5,5.1,8,7.2c6,4.1,13.4,6.7,21,6.6
	c3.8-0.1,7.6-1.1,10.9-2.8l1.3-0.7c0.4-0.2,0.8-0.5,1.2-0.8c0.4-0.2,0.8-0.6,1.1-0.8c0.4-0.3,0.8-0.6,1.1-0.9
	c1.4-1.3,2.7-2.7,3.8-4.3c2.3-3.1,3.9-6.6,5-10.3c0.5-1.9,0.9-3.7,1.1-5.7c0.3-1.9,0.5-3.9,0.8-5.8c0.5-3.9,0.9-7.7,0.9-11.5
	s-0.3-7.5-1.4-10.9c-1.2-3.4-3-6.6-4.8-9.6c-1.9-3-3.9-5.8-6.1-8.5c-4.3-5.3-8.8-9.9-13.5-13.5c-1.2-0.9-2.4-1.7-3.6-2.4
	c-0.6-0.3-1.3-0.7-1.9-0.9c-0.7-0.2-1.3-0.4-1.9-0.6c-2.6-0.6-5.2-0.5-7.6-0.1s-4.5,1.2-6.4,2s-3.6,1.8-5,2.7
	c-2.9,1.9-4.9,3.8-6.2,5.1c-0.7,0.6-1.1,1.2-1.4,1.6C222.1,307.5,221.9,307.7,221.9,307.7L221.9,307.7z M221.9,307.7
	c0,0,0.2-0.2,0.5-0.6s0.7-0.9,1.4-1.6c1.3-1.4,3.3-3.2,6.2-5.2c1.5-0.9,3.1-1.9,5-2.8s4.1-1.6,6.4-2.1c2.4-0.5,5-0.6,7.7,0
	c0.7,0.2,1.3,0.4,2,0.6c0.7,0.3,1.3,0.6,1.9,0.9c1.3,0.7,2.5,1.5,3.7,2.4c4.8,3.5,9.5,8.1,13.9,13.3c2.2,2.6,4.3,5.4,6.3,8.4
	s3.9,6.2,5.2,9.8c1.3,3.6,1.7,7.5,1.8,11.4c0,3.9-0.4,7.8-0.8,11.7c-0.2,1.9-0.5,3.9-0.7,5.8c-0.2,2-0.6,4-1.1,5.9
	c-1.1,3.9-2.8,7.7-5.2,11c-1.2,1.6-2.6,3.2-4.1,4.5c-0.4,0.4-0.8,0.7-1.2,1l-1.2,0.9c-0.4,0.3-0.9,0.6-1.3,0.8l-1.3,0.7
	c-3.7,1.9-7.7,2.8-11.8,2.9c-4,0.1-8-0.6-11.7-1.9s-7.1-3.1-10.2-5.3c-3.1-2.2-5.7-4.9-8-7.6c-0.6-0.7-1.1-1.4-1.7-2.1
	s-1-1.5-1.5-2.2c-1-1.4-1.8-3-2.7-4.5c-3.1-6.1-4.9-12.5-5.7-18.4c-0.8-5.9-0.6-11.4,0-16.2c0.2-1.2,0.4-2.3,0.6-3.5
	c0.2-1.1,0.5-2.2,0.7-3.2c0.5-2,1.1-3.9,1.7-5.5c1.2-3.3,2.6-5.6,3.6-7.2C221.3,308.5,221.9,307.7,221.9,307.7L221.9,307.7z
	 M283.1,390.5l-1.2,0.6c-0.4,0.2-0.9,0.4-1.5,0.7c-0.6,0.3-1.2,0.7-1.9,1.1c-0.4,0.2-0.7,0.4-1.1,0.7c-0.4,0.3-0.8,0.5-1.2,0.8
	c-0.4,0.3-0.8,0.6-1.3,0.9c-0.4,0.3-0.8,0.7-1.3,1.1c-1.8,1.4-3.6,3.3-5.4,5.5s-3.5,4.7-5,7.5c-1.6,2.8-2.9,5.9-4.2,9.2
	c-1.2,3.3-2.3,6.8-3.2,10.4c-0.9,3.6-1.6,7.2-1.9,11c-0.3,3.7-0.3,7.5-0.1,11.1c0.1,1.8,0.3,3.7,0.6,5.4c0.2,0.9,0.3,1.8,0.5,2.7
	c0.1,0.9,0.5,1.7,0.7,2.5c1,3.3,2.4,6.4,4.2,9.1c1.7,2.7,3.7,5,5.7,7c2,1.9,4,3.6,5.9,4.8c1.9,1.3,3.7,2.3,5.1,3
	c1.5,0.7,2.7,1.2,3.5,1.5s1.3,0.4,1.3,0.4s-0.5-0.1-1.3-0.3c-0.9-0.2-2.1-0.6-3.6-1.3s-3.4-1.5-5.4-2.7c-1-0.6-2-1.3-3.1-2
	c-0.5-0.4-1-0.8-1.6-1.2c-0.5-0.4-1.1-0.9-1.6-1.4c-2.2-1.9-4.3-4.2-6.2-7c-0.4-0.7-1-1.4-1.4-2.1c-0.4-0.8-0.8-1.5-1.2-2.3
	c-0.4-0.8-0.7-1.6-1.1-2.4c-0.2-0.4-0.4-0.8-0.5-1.2s-0.3-0.9-0.4-1.3c-0.2-0.9-0.6-1.8-0.8-2.7l-0.6-2.7c-0.3-1.9-0.5-3.7-0.7-5.6
	c-0.3-3.8-0.3-7.6,0-11.5c0.3-3.8,1-7.7,2-11.3c1-3.7,2.1-7.2,3.5-10.5c1.3-3.3,2.8-6.5,4.5-9.3s3.5-5.4,5.5-7.5
	c1.9-2.1,3.9-3.9,5.8-5.3c0.5-0.3,0.9-0.7,1.4-1s0.9-0.6,1.3-0.8c0.4-0.3,0.8-0.5,1.2-0.8l1.2-0.6c0.7-0.4,1.4-0.7,2-1
	c0.6-0.2,1.1-0.5,1.5-0.6C282.6,390.7,283.1,390.5,283.1,390.5L283.1,390.5z M153.6,435.8c0,0-0.2,1.2-0.5,3.3
	c-0.3,2.2-0.9,5.3-1.3,9.4c-0.4,4.1-0.7,9.1,0,14.7c0.3,2.8,1,5.8,2,8.8s2.6,6,4.6,8.8c2.1,2.8,4.7,5.4,8,7.2c3.2,1.9,7,3,10.9,3.7
	c7.9,1.3,16.4,0.9,25.2,1.2c2.2,0,4.4,0.1,6.6,0c2.2,0,4.4-0.2,6.4-0.8c2.2-0.7,4.1-1.4,6-2.7c1.8-1.2,3.5-2.7,5-4.4
	s2.8-3.5,3.9-5.5c1.2-2,2.1-4,3-6.1c1.8-4.2,3.1-8.7,4.3-13.2c1.2-4.5,2.2-9,2.6-13.6c0.4-4.5-0.1-9.1-1.7-13.3
	c-1.6-4.2-4.3-7.8-7.3-11.2c-2.9-3.4-6-6.6-9.2-9.5c-6.4-5.9-13.4-10.8-21-13.2c-3.8-1.2-7.7-1.8-11.4-1.6c-0.9,0.1-1.9,0.1-2.8,0.2
	s-1.8,0.3-2.7,0.4c-0.9,0.2-1.8,0.4-2.6,0.6c-0.4,0.1-0.9,0.2-1.3,0.3c-0.4,0.1-0.8,0.3-1.2,0.4c-3.3,1-6.4,2.5-9,4.3
	c-1.4,0.8-2.5,1.9-3.7,2.9c-1,1.1-2.1,2.1-3,3.2c-3.6,4.4-5.5,9.1-6.8,13s-1.9,7-2.4,9.2C153.8,434.6,153.6,435.8,153.6,435.8
	L153.6,435.8z M153.6,435.8c0,0,0.2-1.2,0.6-3.3c0.5-2.1,1.1-5.3,2.3-9.2c1.3-3.9,3.1-8.6,6.7-13.1c0.8-1.2,1.9-2.2,3-3.3
	c1.2-1,2.3-2,3.7-2.9c2.6-1.8,5.7-3.4,9-4.5c0.4-0.1,0.8-0.3,1.3-0.4c0.4-0.1,0.9-0.2,1.3-0.3c0.9-0.2,1.7-0.5,2.6-0.7
	s1.8-0.3,2.7-0.5c0.9-0.2,1.9-0.2,2.8-0.3c3.8-0.2,7.8,0.3,11.7,1.5c7.8,2.3,15.1,7.2,21.7,13c3.3,2.9,6.5,6.1,9.5,9.5
	s5.9,7.2,7.7,11.6c1.8,4.5,2.2,9.3,1.9,14.1c-0.3,4.8-1.4,9.4-2.6,13.9s-2.6,9.1-4.5,13.4c-0.9,2.2-2,4.3-3.2,6.3
	c-1.2,2.1-2.6,4-4.1,5.8s-3.4,3.3-5.4,4.6l-1.5,0.9c-0.5,0.3-1.1,0.5-1.6,0.8l-0.8,0.4c-0.3,0.1-0.5,0.2-0.8,0.3l-1.6,0.5
	c-2.4,0.6-4.6,0.7-6.9,0.7s-4.5-0.1-6.7-0.2c-4.4-0.2-8.7-0.3-12.9-0.5c-4.2-0.2-8.4-0.5-12.4-1.2s-7.8-2-11.1-4s-5.9-4.7-8-7.5
	c-2-2.9-3.5-6-4.5-9c-1.1-3-1.7-6-2-8.9c-0.6-5.7-0.3-10.7,0.1-14.7c0.4-4.1,1-7.2,1.3-9.4C153.4,436.9,153.6,435.8,153.6,435.8
	L153.6,435.8z M99,307.8c0,0-0.4,1.2-1,3.4c-0.6,2.3-1.5,5.6-2.2,9.9s-1.4,9.6-1.4,15.7c-0.1,6.1,0.4,12.9,1.8,20.3
	c0.7,3.7,1.8,7.4,3.4,11.1c0.8,1.8,1.8,3.6,2.9,5.3c1.1,1.7,2.5,3.3,4,4.8c1.5,1.4,3.3,2.6,5.2,3.6c2,0.9,4.1,1.5,6.2,1.9
	c2.2,0.4,4.4,0.6,6.7,0.7s4.6,0.3,6.9,0.3c4.7,0.1,9.4,0,14.1-0.5s9.5-1.4,14.1-3c4.5-1.6,9-3.8,12.8-6.7c3.9-2.9,7.3-6.5,9.7-10.7
	c2.5-4.2,3.9-8.9,4.5-13.7c0.6-4.8,0.4-9.7-0.5-14.5c-0.1-0.6-0.3-1.2-0.4-1.8c-0.1-0.5-0.3-1.2-0.5-1.7c-0.3-1.2-0.6-2.4-1-3.5
	c-0.7-2.3-1.6-4.5-2.5-6.7c-1.9-4.4-4.1-8.6-6.5-12.5c-2.4-4-5.1-7.7-8-11.1c-2.8-3.5-6-6.5-9.3-9.2s-6.9-4.9-10.5-6.5
	c-0.9-0.4-1.8-0.8-2.8-1.1c-0.9-0.3-1.9-0.6-2.8-0.8c-1.9-0.4-3.8-0.7-5.6-0.7c-3.7-0.1-7.3,0.4-10.5,1.5c-3.3,1-6.2,2.4-8.8,4
	c-5.2,3.2-9,7-11.7,10.4s-4.3,6.5-5.2,8.6c-0.5,1.1-0.8,1.9-1,2.5C99.1,307.5,99,307.8,99,307.8L99,307.8z M99,307.8l0.3-0.9
	c0.2-0.6,0.5-1.4,1-2.5c0.9-2.1,2.5-5.2,5.2-8.7c2.7-3.4,6.5-7.3,11.6-10.5c5.2-3.2,11.8-5.8,19.4-5.7c3.8,0.1,7.7,0.8,11.5,2.4
	c3.7,1.6,7.4,3.7,10.8,6.4c3.4,2.7,6.7,5.7,9.6,9.2c3,3.4,5.8,7.1,8.3,11.1s4.9,8.2,6.8,12.6c1,2.2,1.9,4.5,2.6,6.9
	c0.4,1.2,0.7,2.3,1.1,3.5c0.2,0.6,0.3,1.1,0.5,1.8c0.1,0.6,0.3,1.2,0.4,1.8c1,4.9,1.2,10,0.6,15s-2.1,10-4.7,14.5
	s-6.2,8.2-10.3,11.3c-4.1,3-8.7,5.3-13.4,6.9c-4.7,1.6-9.6,2.5-14.5,3c-4.8,0.4-9.6,0.5-14.3,0.3c-2.3-0.1-4.7-0.3-7-0.5
	s-4.6-0.4-6.8-0.9c-2.2-0.4-4.4-1.1-6.5-2.1c-2-1-3.8-2.3-5.4-3.8c-1.6-1.5-2.9-3.2-4.1-5c-1.1-1.8-2.1-3.6-2.9-5.5
	c-1.6-3.8-2.6-7.6-3.2-11.3c-1.3-7.4-1.8-14.3-1.6-20.4c0.1-6.1,0.8-11.4,1.6-15.7c0.8-4.3,1.6-7.6,2.3-9.9L99,307.8L99,307.8z
	 M96.4,199.3c0,0-1-0.3-2.9-0.9c-1-0.3-2.2-0.6-3.6-0.9c-0.7-0.2-1.5-0.3-2.3-0.5c-0.8-0.1-1.7-0.3-2.6-0.4
	c-3.7-0.5-8.3-0.5-13.4,0.9c-2.5,0.6-5.1,1.8-7.5,3.4l-1.8,1.2c-0.6,0.4-1.2,1-1.7,1.5l-0.9,0.8l-0.8,0.9c-0.5,0.6-1.1,1.1-1.6,1.7
	c-4,4.9-7.2,11.3-9.1,18.3c-1.9,7.1-2.6,14.8-2,22.8c0.3,4,1,8,2,11.9c1.1,3.9,2.4,7.9,4.5,11.4c0.3,0.4,0.5,0.9,0.8,1.3l0.2,0.3
	l0.1,0.1l0.1,0.2l0.5,0.6c0.6,0.9,1.3,1.6,2,2.3c1.4,1.5,3,2.8,4.8,3.9c3.5,2.3,7.4,3.8,11.5,4.7c8.2,1.9,16.8,1,24.6-1.8
	c3.9-1.4,7.6-3.3,10.9-5.7c3.3-2.3,6.4-5,8.9-8c5.1-6,8.3-13.3,9.6-20.5s0.7-14.3-1.1-20.4s-5.1-11.2-8.5-15.1
	c-3.4-4-7-6.8-10.1-8.8s-5.8-3.3-7.7-4.1c-0.9-0.4-1.6-0.7-2.1-0.9C96.6,199.4,96.4,199.3,96.4,199.3L96.4,199.3z M96.4,199.3
	c0,0,0.3,0.1,0.7,0.3c0.5,0.2,1.2,0.4,2.1,0.8c1.9,0.8,4.5,2,7.7,4c3.1,2,6.8,4.8,10.3,8.8c3.5,3.9,6.7,9,8.7,15.1
	s2.7,13.3,1.5,20.7c-1.1,7.3-4.2,14.9-9.4,21.2c-5.1,6.4-12.2,11.4-20.3,14.4c-8,3-17.1,4-25.7,2.1c-4.3-1-8.4-2.7-12.1-5.1
	c-1.8-1.2-3.5-2.7-5-4.2c-0.7-0.8-1.5-1.7-2.1-2.5l-0.5-0.6l-0.1-0.2c-0.1-0.1-0.1-0.1-0.1-0.2l-0.2-0.3c-0.3-0.5-0.6-0.9-0.9-1.4
	c-2.2-3.8-3.5-7.8-4.5-11.9s-1.6-8.2-1.8-12.2c-0.5-8.1,0.4-16,2.5-23.1s5.4-13.4,9.6-18.4c0.5-0.6,1.1-1.2,1.7-1.7l0.8-0.8
	c0.3-0.2,0.6-0.5,0.9-0.7c0.6-0.5,1.2-1,1.8-1.4s1.2-0.8,1.9-1.2c2.5-1.5,5.1-2.7,7.6-3.3c5.1-1.4,9.7-1.3,13.4-0.8
	c0.9,0.1,1.8,0.3,2.6,0.4c0.8,0.2,1.6,0.3,2.3,0.5c1.4,0.4,2.6,0.6,3.6,1C95.4,199,96.4,199.3,96.4,199.3L96.4,199.3z M24.5,279.8
	c0,0,0.5,0.3,1.5,0.8s2.4,1.3,4.1,2.3c3.5,2.1,8.4,5.4,13.6,10.2c2.6,2.4,5.3,5.1,7.9,8.2c2.6,3.1,5.2,6.5,7.4,10.4
	c1.1,1.9,2.1,4,3,6.1c0.4,1.1,0.8,2.1,1.1,3.3c0.3,1.1,0.6,2.2,0.8,3.4c0.9,4.7,0.9,9.5,0.4,14.2s-1.6,9.4-2.9,13.8l-2.1,6.6
	l-2.1,6.3c-1.5,4.2-3.2,8.1-5.3,11.6c-1,1.8-2.1,3.4-3.2,5c-1.1,1.5-2.3,3-3.6,4.3c-2.4,2.6-5,4.6-7.4,6.2s-4.7,2.6-6.6,3.3
	c-1,0.4-1.8,0.7-2.6,0.9c-0.8,0.2-1.4,0.4-2,0.5c-1.1,0.2-1.6,0.4-1.6,0.4s0.6-0.2,1.6-0.5c0.5-0.1,1.2-0.4,1.9-0.6
	c0.8-0.3,1.6-0.6,2.5-1c1.9-0.8,4.1-2,6.4-3.6c2.3-1.6,4.7-3.7,7-6.3c2.3-2.6,4.4-5.7,6.3-9.2c1.9-3.5,3.5-7.4,4.9-11.5
	c0.7-2,1.3-4.2,2-6.4c0.7-2.1,1.4-4.3,2-6.5c1.3-4.4,2.3-8.9,2.8-13.5s0.5-9.2-0.3-13.6c-0.2-1.1-0.5-2.2-0.8-3.3
	c-0.3-1-0.6-2.1-1-3.1c-0.8-2.1-1.7-4-2.8-5.9c-2.1-3.8-4.6-7.2-7.1-10.3c-2.5-3.1-5.1-5.9-7.6-8.3s-4.9-4.5-7.1-6.3
	c-2.2-1.8-4.2-3.2-5.9-4.4c-1.7-1.1-3-2-4-2.6C25,280.1,24.5,279.8,24.5,279.8L24.5,279.8z M52.7,414c0,0-0.2,0.2-0.5,0.7
	s-0.8,1.1-1.4,2c-1.2,1.8-2.8,4.5-4.3,8.2c-1.6,3.7-3.1,8.3-4.2,13.7c-0.6,2.7-1,5.6-1.3,8.7s-0.5,6.4-0.4,9.8
	c0.1,3.4,0.4,7,1.4,10.5s2.6,7,4.8,10.2c4.4,6.3,11.3,11.5,19.3,14.2c4,1.4,8.2,2.1,12.5,2.3s8.7-0.1,13.1-0.8
	c0.5-0.1,1.1-0.2,1.6-0.3l1.6-0.4c0.5-0.1,1.1-0.3,1.6-0.4l1.6-0.5c0.5-0.2,1.1-0.3,1.6-0.5l1.6-0.6c0.5-0.2,1-0.4,1.6-0.6l1.5-0.7
	c4-1.9,7.9-4.3,11.3-7.2s6.4-6.2,8.8-10c2.3-3.8,3.9-8,4.5-12.3l0.1-0.8l0.1-0.8c0-0.6,0.1-1.1,0.1-1.7v-1.6l-0.1-1.6
	c-0.1-2.2-0.5-4.3-0.9-6.4c-1-4.2-2.6-8.2-4.6-11.9c-2-3.7-4.5-7.1-7.1-10.3c-2.6-3.2-5.2-6.2-7.9-9c-5.4-5.6-11-10.5-16.9-14
	c-2.9-1.7-5.9-3.3-8.9-3.7c-3.1-0.5-6-0.2-8.7,0.5c-1.4,0.3-2.6,0.8-3.8,1.3c-1.2,0.6-2.3,1-3.4,1.6c-2.1,1.1-3.9,2.4-5.5,3.6
	c-3.1,2.5-5.3,4.7-6.7,6.4c-0.7,0.8-1.2,1.5-1.6,1.9L52.7,414L52.7,414z M52.7,414c0,0,0.2-0.2,0.5-0.7c0.3-0.4,0.8-1.1,1.5-1.9
	c1.4-1.6,3.5-3.9,6.7-6.4c1.6-1.2,3.4-2.5,5.5-3.7c1-0.6,2.2-1.1,3.4-1.7c1.2-0.5,2.5-1,3.8-1.3c2.7-0.7,5.7-1.1,8.8-0.6
	s6.1,1.9,9.1,3.6c6,3.4,11.7,8.3,17.3,13.8c2.8,2.8,5.5,5.8,8.2,8.9c2.6,3.2,5.2,6.5,7.4,10.3c2.2,3.7,3.9,7.8,5,12.2
	c0.5,2.2,0.9,4.4,1.1,6.7l0.1,1.7v1.7c0,0.6-0.1,1.1-0.1,1.7l-0.1,0.9l-0.1,0.9c-0.6,4.6-2.3,9-4.7,13s-5.5,7.5-9.1,10.5
	c-7.1,6-16,9.8-24.9,11.4c-9,1.6-18.2,1-26.4-2c-8.2-2.9-15.1-8.4-19.5-15c-2.2-3.3-3.8-6.9-4.7-10.5s-1.2-7.2-1.2-10.6
	c0-3.4,0.3-6.7,0.6-9.8s0.8-6,1.4-8.8c1.1-5.4,2.7-10.1,4.3-13.7c1.6-3.7,3.2-6.4,4.4-8.2c0.6-0.9,1.1-1.6,1.4-2
	C52.6,414.3,52.7,414,52.7,414L52.7,414z M178.9,585.1c0,0,0.6-0.6,1.7-1.6c0.5-0.6,1.2-1.3,1.9-2.1c0.7-0.9,1.5-1.9,2.3-3.1
	c1.6-2.4,3.2-5.6,4.3-9.4c0.3-1,0.5-2,0.8-3c0.2-1.1,0.4-2.1,0.5-3.2c0.3-2.2,0.4-4.6,0.3-7s-0.4-5-1-7.6s-1.5-5.2-2.6-7.8
	c-2.2-5.2-5.6-10.1-9.7-14.7c-2.1-2.3-4.3-4.4-6.8-6.4c-1.2-1-2.5-2-3.8-2.9l-2-1.4l-2-1.2c-5.5-3.2-11.7-5.7-18.1-6.6
	c-6.4-1-13-0.3-18.8,2.3s-10.6,6.9-14.3,11.8c-3.7,4.9-6.2,10.3-7.9,15.7s-2.7,10.7-3.4,15.6c-0.7,4.9-1,9.4-0.6,13.4
	c0.3,4,1.2,7.4,2.5,10s2.9,4.3,4.1,5.2c0.1,0.1,0.3,0.2,0.4,0.4c0.1,0.1,0.3,0.2,0.4,0.3c0.2,0.2,0.5,0.3,0.6,0.4
	c0.3,0.2,0.5,0.3,0.5,0.3s-0.2-0.1-0.5-0.3c-0.2-0.1-0.4-0.2-0.6-0.4c-0.1-0.1-0.3-0.2-0.4-0.3c-0.1-0.1-0.3-0.2-0.4-0.3
	c-1.3-0.9-3-2.6-4.3-5.2c-1.4-2.6-2.5-6-2.9-10.1c-0.2-2-0.3-4.2-0.3-6.5s0.3-4.7,0.5-7.2c0.6-5,1.4-10.3,3.1-15.9
	c1.7-5.5,4.1-11.2,7.9-16.3c3.8-5.1,8.8-9.7,14.9-12.5l1.2-0.5l1.1-0.4c0.8-0.3,1.6-0.5,2.4-0.8c1.6-0.5,3.3-0.8,5-1
	c3.4-0.4,6.8-0.3,10.2,0.2c6.7,1,13.1,3.6,18.8,7l2.1,1.3l2,1.4c1.4,1,2.6,2,3.9,3c2.5,2.1,4.8,4.3,6.9,6.7
	c4.2,4.7,7.5,9.9,9.7,15.3c1.1,2.7,2,5.4,2.5,8c0.6,2.7,0.8,5.3,0.9,7.8c0.1,5-0.7,9.7-2.1,13.5c-1.3,3.9-3,7-4.7,9.4
	c-0.8,1.2-1.7,2.2-2.4,3.1l-2,2C179.5,584.6,178.9,585.1,178.9,585.1L178.9,585.1z"/>
<path class="st1" d="M25.5,167.8C18.4,106.7,37.3,48.6,84.1,26.9c7-3.3,14.9-2,22.5-1.4c9.2,0.7,13.9-1.8,21.7-6
	c6.6-3.5,14.1-6.5,21.5-5.1c1.8,0.4,3.7,1,5.5,0.7c1.8-0.2,3.4-1.3,5.1-1.9c6.7-2.5,14,0.9,21,2.7c5,1.3,10.3,1.7,15.4,1.2
	C208,16,218.9,16.9,229,22c4.1,2.1,8,4.6,12.4,5.7c2.5,0.6,5.2,0.8,7.6,1.7c2.9,1.1,5.3,3.2,7.6,5.3c13.6,12.1,16.9,26.2,24.2,42.5
	c3.3,7.2,4.8,15.1,6,22.9c2.8,17.9,3.9,36.1,3.4,54.3c-0.3,9.6,0.1,9.1,0,13.8C290.2,176.3,25.7,169.9,25.5,167.8z"/>
<path d="M32.8,512.6l0.2-0.2c0.1-0.2,0.3-0.4,0.6-0.7c0.6-0.6,1.5-1.4,2.8-2.2s3-1.6,5.1-2.1s4.5-0.8,7.2-0.6
	c2.6,0.2,5.5,0.7,8.4,1.6c2.9,0.9,5.9,1.9,8.8,3.5c2.9,1.6,5.8,3.9,7.7,6.9s3.1,6.4,3.9,9.9c0.4,1.7,0.7,3.4,1,5.2
	c0.1,0.9,0.2,1.7,0.3,2.6c0.1,0.9,0.1,1.7,0.2,2.6c0.2,3.5,0.2,6.9-0.2,10.2c-0.1,1.6-0.4,3.2-0.7,4.8c-0.1,0.8-0.4,1.5-0.5,2.3
	c-0.2,0.8-0.3,1.5-0.6,2.2c-0.5,1.4-0.8,2.9-1.4,4.2c-0.3,0.7-0.5,1.3-0.8,1.9l-0.9,1.8c-0.3,0.6-0.6,1.2-0.9,1.7
	c-0.3,0.5-0.7,1.1-1,1.6s-0.7,1-1,1.5s-0.7,0.9-1,1.3c-0.7,0.8-1.3,1.6-1.9,2.3c-0.6,0.7-1.2,1.3-1.8,1.8c-0.5,0.6-1.1,1-1.5,1.3
	c-0.5,0.4-0.9,0.7-1.2,0.9c-0.6,0.5-1,0.8-1,0.8l0.9-0.9c0.3-0.3,0.7-0.6,1.1-1l1.4-1.4c0.5-0.6,1-1.2,1.6-1.9s1.1-1.5,1.7-2.4
	c0.3-0.4,0.6-0.9,0.9-1.3l0.9-1.5c0.3-0.5,0.6-1,0.9-1.6c0.3-0.6,0.5-1.1,0.8-1.7c0.3-0.6,0.6-1.2,0.8-1.8s0.5-1.3,0.7-1.9
	c0.5-1.3,0.8-2.7,1.3-4.1c0.2-0.7,0.3-1.4,0.5-2.2c0.1-0.7,0.3-1.5,0.4-2.2c0.2-1.5,0.5-3.1,0.6-4.7c0.3-3.2,0.2-6.5,0-9.9
	c-0.1-0.8-0.1-1.7-0.2-2.5s-0.2-1.7-0.3-2.5c-0.3-1.7-0.6-3.3-1-5c-0.7-3.3-1.9-6.5-3.6-9.3c-0.4-0.7-0.9-1.3-1.4-2
	c-0.2-0.3-0.5-0.6-0.8-0.9c-0.3-0.3-0.5-0.6-0.8-0.8c-1.2-1.1-2.5-2-3.9-2.8c-2.8-1.5-5.7-2.7-8.5-3.6c-2.8-1-5.5-1.6-8-1.9
	c-2.5-0.3-4.9-0.2-6.9,0.2s-3.8,1-5.1,1.7s-2.3,1.4-2.9,1.9c-0.3,0.2-0.5,0.5-0.7,0.6L32.8,512.6L32.8,512.6z M222.4,575.5
	c0,0-0.5-0.3-1.6-0.9c-1-0.6-2.5-1.5-4.3-2.8s-3.9-3-6-5.3s-4.1-5.2-5.4-8.9c-1.2-3.7-1.5-7.9-1.5-12.3c0-4.3-0.1-8.9,0.5-13.7
	c0.3-2.4,0.7-4.8,1.3-7.2c0.6-2.4,1.4-4.8,2.6-7.1c1.1-2.3,2.6-4.5,4.2-6.4l1.3-1.4c0.5-0.5,0.9-0.9,1.4-1.3c1-0.9,2.1-1.7,3.2-2.4
	c4.4-2.8,9.5-4.3,14.4-5.2s9.9-1.3,14.7-0.7c2.4,0.3,4.8,0.7,7,1.6c0.3,0.1,0.5,0.2,0.8,0.3l0.8,0.3c0.5,0.2,1,0.5,1.5,0.7
	c1,0.6,2,1.1,2.9,1.7c3.7,2.5,6.6,5.5,8.9,8.5c2.3,3,4.1,6.1,5.5,8.8s2.5,5.2,3.4,7.2s1.5,3.6,1.9,4.7c0.4,1.1,0.7,1.7,0.7,1.7
	s-1-2.3-3-6.3c-1-2-2.2-4.4-3.7-7s-3.4-5.6-5.7-8.5c-2.3-2.9-5.3-5.8-8.8-8c-0.9-0.6-1.8-1-2.8-1.5l-1.5-0.6l-0.8-0.3
	c-0.2-0.1-0.5-0.2-0.7-0.3c-2.1-0.7-4.3-1.2-6.6-1.4c-4.6-0.5-9.4,0-14.2,0.9c-4.8,0.9-9.6,2.4-13.7,5c-1,0.6-2,1.4-2.9,2.1
	c-0.4,0.4-1,0.9-1.3,1.3l-1.3,1.3c-1.6,1.8-2.9,3.9-4,6s-1.9,4.4-2.5,6.7s-1,4.6-1.3,6.9c-0.6,4.6-0.7,9.2-0.8,13.5
	c-0.1,4.3,0,8.4,1.1,11.9s2.9,6.5,4.9,8.8c1.9,2.3,3.9,4.1,5.6,5.5s3.1,2.4,4.1,3.1C221.9,575.1,222.4,575.5,222.4,575.5
	L222.4,575.5z"/>
<path d="M35.9,67.7c0,0-0.6,1.1-1.7,3.2c-0.5,1.1-1.2,2.4-1.9,4s-1.6,3.5-2.4,5.7c-1.7,4.3-3.6,9.7-5.3,16.3
	c-1.7,6.5-3.1,14.2-3.7,22.8c-0.4,4.3-0.4,8.9-0.3,13.7c0.1,4.8,0.5,9.8,1,15s1.1,10.6,1.5,16.3c0.2,2.8,0.4,5.7,0.5,8.6
	c0.1,2.9,0.2,5.9,0.3,8.9c0.3,12.1,0,25-0.7,38.5c-0.7,13.6-1.7,27.8-2.6,42.6c-0.9,14.8-1.7,30.3-1.6,46.3c0,8,0.3,16.2,0.6,24.4
	c0.3,8.3,0.6,16.7,0.9,25.2c0.6,17,1.2,34.5,1.5,52.5c0.4,17.9,0.3,36.2,1.6,54.7c1.2,18.5,3.3,37.3,5.8,56.2c1.2,9.5,2.6,19,4,28.6
	c0.7,4.7,1.6,9.5,3.1,13.9c1.6,4.4,3.8,8.7,7.3,11.6l0.6,0.6l0.7,0.5c0.5,0.3,0.9,0.7,1.4,0.9s1,0.6,1.5,0.8l1.7,0.7
	c2.2,0.8,4.4,1.5,6.8,2.1c4.7,1.1,9.5,1.8,14.3,2.3c4.9,0.5,9.8,0.8,14.7,1.2c2.5,0.2,5,0.4,7.4,0.6c2.4,0.2,4.9,0.4,7.3,0.4
	c2.4,0,4.8-0.1,7.1-0.5s4.6-1,7-1.8c2.4-0.7,4.7-1.5,7.3-2.1l3.6-0.7l3.8-0.4c10.2-0.7,20.2,1,29.9,3c9.7,2.1,19.3,4.8,29,6.3
	c4.8,0.7,9.7,0.9,14.4,0.5c4.8-0.5,9.4-1.8,13.5-4.1l1.5-0.9c0.5-0.3,1-0.7,1.5-1l1.5-1l1.6-1c2.1-1.3,4.3-2.6,6.5-3.7
	c4.4-2.3,9.1-4.2,14-5.6c4.8-1.3,9.9-2.1,14.9-2.2c2.5,0,5,0.1,7.5,0.5c2.5,0.3,4.9,0.9,7.1,1c1.1,0,2.2-0.1,3.1-0.4
	c0.5-0.1,1-0.4,1.4-0.6l1.2-0.9c0.8-0.7,1.4-1.6,2-2.6s1-2,1.5-3.1c0.8-2.1,1.4-4.4,1.8-6.7s0.6-4.7,0.7-7.1
	c0.2-4.8,0.1-9.6,0.1-14.4c0-4.8,0-9.6-0.1-14.4c-0.1-19.1-0.2-38-0.2-56.6s0.2-36.9,0.7-54.8s1.8-35.4,2.9-52.4
	c0.6-8.5,1.1-16.9,1.5-25.1c0.4-8.3,0.3-16.3,0-24.4c-0.6-16-2.1-31.4-2.9-46.3c-0.4-7.4-0.6-14.7-0.5-21.9c0-7.1,0.1-14.1,0.2-20.9
	c0.3-13.6,0.7-26.4,1.1-38.5s0.8-23.4,1-33.8c0.3-10.5,0.5-20.1,0.1-28.7c-0.3-8.7-1.1-16.4-2.3-23c-1.2-6.6-2.8-12.2-4.3-16.5
	c-0.8-2.2-1.5-4.1-2.3-5.7c-0.7-1.6-1.3-3-1.9-4c0.6,1,1.2,2.4,1.9,4c0.8,1.6,1.5,3.5,2.3,5.7c1.6,4.4,3.2,9.9,4.5,16.5
	s2.1,14.4,2.5,23c0.4,8.7,0.3,18.3,0.2,28.8c-0.2,10.5-0.4,21.8-0.7,33.9c-0.3,12.1-0.6,24.9-0.8,38.5c-0.1,13.6-0.4,27.8,0.5,42.6
	c0.8,14.8,2.4,30.3,3.1,46.3c0.3,8,0.5,16.3,0.1,24.5c-0.4,8.3-0.8,16.7-1.3,25.2c-1,17-2.2,34.5-2.6,52.3
	c-0.4,17.9-0.6,36.2-0.6,54.7c0,18.6,0.2,37.5,0.3,56.6c0,4.8,0.1,9.6,0.1,14.4c0,4.8,0.1,9.6-0.1,14.5s-0.8,9.9-2.6,14.7
	c-0.9,2.3-2.1,4.7-4.1,6.7c-0.5,0.5-1.1,0.9-1.7,1.3c-0.7,0.4-1.2,0.7-1.9,0.9c-1.4,0.4-2.8,0.6-4.1,0.5c-2.7-0.1-5-0.8-7.4-1
	c-2.4-0.3-4.7-0.4-7.1-0.4c-4.8,0-9.5,0.8-14.1,2.1s-9.1,3.1-13.4,5.4c-2.1,1.1-4.3,2.3-6.3,3.6l-1.5,1l-1.5,1c-0.5,0.3-1,0.7-1.5,1
	l-1.6,1c-4.5,2.6-9.6,4-14.7,4.5s-10.2,0.3-15.2-0.5c-9.9-1.5-19.5-4.2-29.2-6.3c-9.6-2.1-19.4-3.7-29-3l-3.5,0.4l-3.6,0.7
	c-2.2,0.5-4.6,1.3-7,2c-2.4,0.8-4.8,1.5-7.4,1.9c-2.5,0.4-5.1,0.5-7.6,0.5s-5-0.2-7.5-0.4s-4.9-0.5-7.3-0.6
	c-4.9-0.4-9.8-0.7-14.8-1.2c-4.9-0.5-9.9-1.2-14.7-2.4c-2.4-0.6-4.8-1.3-7.2-2.2l-1.7-0.7l-1.8-0.9c-0.6-0.3-1.1-0.7-1.7-1l-0.8-0.6
	c-0.3-0.2-0.5-0.4-0.7-0.6c-2-1.7-3.7-3.7-5-5.9s-2.3-4.5-3.1-6.9c-1.6-4.7-2.5-9.6-3.2-14.4c-1.4-9.6-2.7-19.1-3.9-28.6
	c-2.5-19-4.5-37.8-5.7-56.4c-0.6-9.3-1-18.6-1.1-27.7s-0.3-18.2-0.4-27.1c-0.2-17.9-0.7-35.4-1.2-52.4c-0.2-8.5-0.5-16.9-0.7-25.2
	c-0.2-8.3-0.5-16.4-0.5-24.5c-0.1-16.1,0.8-31.6,1.8-46.4c1-14.8,2.1-29.1,2.9-42.6c0.8-13.5,1.2-26.4,1.1-38.4
	c-0.1-3-0.2-6-0.2-8.9c-0.1-2.9-0.3-5.8-0.5-8.6c-0.3-5.6-0.9-11-1.3-16.3c-0.4-5.2-0.8-10.2-0.9-15c-0.1-4.8,0.1-9.4,0.4-13.7
	c0.7-8.7,2.2-16.3,4-22.8c1.7-6.5,3.7-11.9,5.4-16.2c0.8-2.2,1.7-4,2.4-5.6c0.8-1.6,1.4-2.9,1.9-4C35.3,68.8,35.9,67.7,35.9,67.7
	L35.9,67.7z"/>
<path class="st2" d="M444.4,297.7c-3.2-19.3-6.7-40.2-21.7-54.3c-8.9-8.3-21.1-12.2-33.2-13.9c-12.1-1.7-24.3-1.7-36.3-3.6
	c-17.2,1.4-33.1,3.3-48.1-5.2c-12.4-7-9.4-25.1-9.4-37.7c-0.1-42.9,0.1-83.6-15.8-124.4c-42.5,0.6-86.6-5.8-128.9-1.8
	c-12.8,1.2-25.7,2.8-38.6,3.4c-26.8,1.4-54,0.6-80.6-1.9c-4.6,11.9-9.2,23.8-12.2,36.1c-9.5,38.7-2.8,79.4-5,119.2
	c-3,54.9,0.1,110.7-2.7,165.6c-2,39.9-0.2,80,4.1,119.7c1.9,17.6,7.6,37.3,6.2,54.9c-1.3,17.1-9,34-6.8,51.5c0.4,2.8,1,5.7,2.6,8
	c1.7,2.6,4.4,4.3,7.1,5.9c8.3,4.8,17.3,8.1,26.7,9.8c40.9,7.4,82.7,6.2,124.2,4.9c34.2-1.1,69.5-2.5,100.5-16.9
	c6.2-2.9,12.5-6.6,15.3-12.9c3.3-7.3,0.8-15.7,1.1-23.7c0.5-16.7,14.5-32,31.1-33.8c20-2.2,37.1-10.8,55.3-19.2
	c20.1-9.3,37.6-30.4,48.8-49.6c11.9-20.4,17.3-46.6,18.9-70c1.1-15.9,1.7-31.8,1.8-47.7C449,339.2,447.7,318.3,444.4,297.7
	L444.4,297.7z M411,396.7c-2.7,32-8,63.7-28.8,88.2c-2.6,3-37.8,19.4-54.6,18.1c-12.1-0.9-25.8-6-29.3-17.6c-1-3.3-1-6.9-1.1-10.4
	c-0.4-54.4-0.7-108.8-1.1-163.3c-0.1-9.9-0.1-20,3.6-29.2c3.6-9.2,11.8-17.3,21.7-17.7c19.7-0.9,37-0.9,56.7-0.2
	c6.5,0.2,13.6,0.7,18.3,5.2c3.6,3.4,5,8.6,6.2,13.4C411.3,320.3,414.2,358.8,411,396.7L411,396.7z"/>
<path d="M40.1,59.9c0,0,0.5-0.9,1.5-2.6s2.5-4.2,4.6-7.2s4.9-6.5,8.4-10.3c3.5-3.7,7.9-7.7,13-11.3c2.6-1.8,5.4-3.6,8.4-5.2
	c1.5-0.9,3-1.6,4.7-2.4l1.2-0.5l1.3-0.5c0.9-0.3,1.8-0.5,2.7-0.7c3.7-0.7,7.5-0.7,11.3-0.4c3.8,0.2,7.7,0.8,11.4,0.5
	s7.3-1.5,10.9-3.3c3.5-1.8,7.1-3.9,11-5.5c3.9-1.6,8.2-2.8,12.7-2.7c1.1,0,2.2,0.1,3.3,0.3c1.1,0.2,2.2,0.5,3.1,0.6
	c1,0.2,1.8,0.2,2.6,0.1c0.7-0.1,1.6-0.5,2.6-0.9c0.5-0.2,1-0.4,1.5-0.7l0.4-0.2l0.4-0.1l0.7-0.2c0.5-0.2,1.2-0.3,1.7-0.4
	c0.6-0.1,1.1-0.2,1.7-0.2c2.3-0.1,4.5,0.2,6.6,0.6c4.2,1,8.1,2.5,12,3.4s7.9,1.2,11.8,1c0.5,0,1-0.1,1.5-0.1l1.8-0.3
	c1-0.1,2-0.1,3-0.2c2-0.1,4-0.1,6,0c8,0.2,15.8,2.1,22.3,5.5c3.3,1.7,6.2,3.6,9.2,4.8c1.5,0.6,3,1.1,4.6,1.4s3.2,0.5,4.8,1
	c1.6,0.4,3.1,1.2,4.4,2c1.3,0.9,2.5,1.8,3.5,2.8c1.1,1,2.1,1.9,3.1,2.9s1.9,2,2.7,2.9c3.4,3.9,5.7,7.8,7.5,11
	c1.7,3.2,2.8,5.9,3.6,7.7c0.7,1.8,1.1,2.8,1.1,2.8s-0.4-0.9-1.3-2.7c-0.9-1.8-2.1-4.4-4-7.5s-4.3-6.8-7.8-10.5
	c-0.9-0.9-1.8-1.8-2.8-2.7c-1-0.9-2-1.8-3.1-2.7c-2.2-1.8-4.5-3.6-7.4-4.3c-1.5-0.4-3-0.6-4.7-0.8c-1.7-0.3-3.4-0.8-5-1.4
	c-3.3-1.3-6.3-3.1-9.5-4.7c-6.3-3.1-13.7-4.6-21.4-4.8c-1.9,0-3.9,0-5.8,0.1c-1,0.1-1.9,0.1-2.9,0.2l-1.5,0.1
	c-0.5,0.1-1,0.1-1.6,0.1c-4.2,0.3-8.4,0-12.6-1c-4.2-0.9-8.1-2.4-12-3.3c-2-0.4-3.9-0.7-5.8-0.6c-0.5,0-0.9,0.1-1.4,0.2
	c-0.4,0.1-0.8,0.2-1.3,0.3l-0.7,0.2l-0.2,0.2l-0.3,0.1c-0.4,0.2-0.9,0.4-1.4,0.6c-1,0.4-2,0.9-3.3,1.2c-1.2,0.2-2.5,0.1-3.6-0.1
	s-2.1-0.5-3.1-0.6c-1-0.2-1.9-0.3-2.9-0.3c-3.9-0.1-7.8,1-11.5,2.5s-7.2,3.6-10.9,5.3c-1.9,0.9-3.8,1.7-5.8,2.3
	c-2,0.6-4.1,1-6.1,1.1c-4.2,0.3-8-0.3-11.7-0.6c-3.7-0.3-7.4-0.5-10.8,0.1c-0.8,0.1-1.7,0.3-2.5,0.6l-1.2,0.4l-1.2,0.5
	c-1.5,0.7-3.1,1.4-4.6,2.2c-3,1.5-5.8,3.2-8.3,4.9c-5.1,3.5-9.6,7.2-13.2,10.7c-3.6,3.6-6.5,6.9-8.8,9.8c-2.2,2.9-3.9,5.3-5,6.9
	C40.7,59,40.1,59.9,40.1,59.9L40.1,59.9z M287.5,163.2l-0.1,0.2c-0.1,0.2-0.2,0.3-0.5,0.5c-0.5,0.3-1.2,0.6-2.1,0.8
	c-1.9,0.5-4.7,1-8.4,1.4c-3.6,0.4-8,0.8-13.1,1.2c-5.1,0.3-10.8,0.6-17,0.8s-13,0.3-20.1,0.3s-14.7-0.2-22.4-0.4
	c-7.8-0.2-15.8-0.4-24-0.5h-12.3c-4.1,0-8.3,0.1-12.4,0.1c-4.2,0-8.3,0.1-12.4,0.1h-12.3c-8.2-0.1-16.2-0.2-24-0.2
	c-3.9,0-7.7-0.1-11.5-0.2c-3.7-0.1-7.4-0.2-11-0.3c-7.1-0.2-13.9-0.5-20.1-0.8c-6.2-0.3-11.9-0.6-17-0.9c-5-0.3-9.5-0.6-13.1-0.9
	c-3.6-0.3-6.5-0.6-8.4-0.8c-1-0.1-1.7-0.2-2.2-0.3s-0.8-0.1-0.8-0.4h0.4c0.1,0,0.3,0.1,0.5,0.1c0.5,0,1.2,0.1,2.2,0.1
	c1.9,0.1,4.8,0.2,8.4,0.2c7.3,0.1,17.6,0.2,30.1,0.4c6.2,0.1,13,0.2,20.1,0.3c3.6,0.1,7.2,0.1,11,0.2c3.7,0.1,7.6,0.2,11.5,0.3
	c7.8,0.2,15.8,0.5,24,0.7c4.1,0.1,8.2,0.3,12.3,0.4c4.1,0.2,8.3,0.3,12.4,0.5c4.1,0.1,8.3,0.3,12.4,0.4c4.1,0.1,8.2,0.2,12.3,0.2
	c8.2,0.1,16.2,0,24-0.2s15.3-0.5,22.4-0.6s13.9-0.2,20.1-0.2c6.2-0.1,11.9-0.1,17-0.2c5-0.1,9.4-0.2,13.1-0.4
	c3.6-0.2,6.4-0.4,8.3-0.8c0.9-0.2,1.7-0.4,2.1-0.6c0.4-0.2,0.4-0.4,0.4-0.4L287.5,163.2L287.5,163.2z"/>
</svg>
