<svg id="Layer_1" xmlns="http://www.w3.org/2000/svg" viewBox="0 0 460 306"><style>.st0{fill:none;stroke:#000;stroke-width:5;stroke-miterlimit:10}.st1{opacity:.9;fill:url(#SVGID_1_);enable-background:new}.st2{fill:none;stroke:#000;stroke-width:2;stroke-miterlimit:10}.st3{fill:url(#SVGID_2_)}.st4{fill:none;stroke:#000;stroke-miterlimit:10}</style><path class="st0" d="M6588.6-964.6c.3 38.5.2 82.4-5.7 120.5-2.3 14.7-3.7 31.7-10.6 44.9-9.4 17.9-18.6 35.9-34 49.5-5.5 4.9-11.5 9.2-17.9 12.8-4.2 2.3-15.3 5.1-15.9 10.8-.4 3.6 3.8 5.7 6.9 7.6 6.9 4.3 10.9 12.3 11.6 20.4 1.5 15.4-5.6 30.7-18.9 38.8-.8.5-1.6 1-1.9 1.8-.7 2.1 2.1 3.4 4.2 3.8 12.1 2.1 24 5 35.7 8.7 7.7 2.4 24.3 10.6 12 18.5-7.7 4.9-17 6.2-26 7.3-24.7 3.1-49.7 6.2-74.5 3.9-5.6-.5-11.2-1.4-16.8-2.2l-22.5-3.3c-5.3-.8-11.8-2.7-12.7-7.9-1.7-10.2 16.6-15.1 23.6-17.2 4.9-1.5 36.5-4.6 35.6-9.3-.5-2.4-2.8-3.9-4.8-5.4-8.9-6.4-15-16.4-16.6-27.2-1.6-10.8 1.3-22.2 7.9-30.9 2.2-2.9 4.9-6 4.4-9.6-.2-1.5-1-2.9-2-4.1-5.1-6.7-15.9-9.5-22.8-14.7-7.9-6-15.2-12.8-21.6-20.4-12.5-14.5-22.1-31.5-27.6-49.9-5.2-17.2-6.9-35.3-8.2-53.2-2.3-31-3.6-62-3.8-93.1 20.2-2.4 42-1.8 62.4-1.4 52.8 1.1 160.5-1.6 160.5.5z"/><path d="M6462-649.7v1.9c0 .6.1 1.3.6 1.9.4.6 1.2.8 2.2.8 2.1-.1 4.5-.2 7.1-.2 1.3 0 2.7-.1 4-.1 1.4-.1 2.8-.1 4.1-.2 1.4-.1 2.8-.1 4.1-.2 1.4-.1 2.7-.1 4-.2 2.6-.1 5-.2 7.1-.3 2-.1 3.7-.6 4.6-1.3.4-.4.7-.8.8-1.1.1-.3.2-.5.2-.5v.5c-.1.3-.2.8-.6 1.3s-1.1 1-1.9 1.4c-.8.4-1.8.7-2.8.8-2.1.4-4.5.7-7.1.9-1.3.1-2.7.3-4 .4-1.4.1-2.8.2-4.2.2-1.4 0-2.8.1-4.2.1h-4.1c-2.6-.1-5.1-.2-7.2-.4-.5-.1-1.1-.1-1.6-.4s-.9-.7-1.1-1.1c-.4-.9-.4-1.7-.3-2.3.1-.6.2-1.1.3-1.4-.1-.3 0-.5 0-.5zm-.4-84.6s.6.2 1.6.5c.5.2 1.2.3 1.9.5s1.6.4 2.4.5c.9.2 1.9.3 2.9.5 1 .1 2.1.2 3.3.3 1.1.1 2.3.1 3.5.2h3.6c1.2 0 2.5 0 3.7-.1 1.2 0 2.4-.1 3.6-.1 2.3-.1 4.5-.1 6.3-.3s3.2-.6 4.1-1.2c.4-.3.8-.6 1-.8l.3-.3s-.1.1-.2.4c-.2.3-.4.6-.8 1-.8.8-2.3 1.6-4.2 2-.9.2-2 .4-3 .5-1.1.1-2.2.3-3.3.4l-3.6.3c-1.2.1-2.5.1-3.7.2-1.3 0-2.5 0-3.7-.1-.6 0-1.2-.1-1.8-.1-.6-.1-1.2-.1-1.8-.2-1.2-.1-2.3-.4-3.4-.6-.5-.1-1-.3-1.5-.4-.5-.2-1-.3-1.4-.4-1.8-.6-3.2-1.3-4.2-1.8-1-.6-1.6-.9-1.6-.9zm-50.1 102.1l.3.3c.2.2.5.4 1 .6.9.5 2.3 1 4.2 1.4 1.9.4 4.2.7 6.8 1.1 2.6.4 5.6.7 8.9 1.1 3.3.3 6.8.7 10.6 1 3.7.3 7.7.5 11.8.7 8.2.3 17 .5 25.7.6 4.4.1 8.8.1 13.1.2 4.3 0 8.5.1 12.6 0s8-.4 11.7-.8c3.7-.5 7.2-1.1 10.4-1.7 6.4-1.4 11.6-3 15.2-4.3 1.8-.7 3.2-1.2 4.2-1.6l1.5-.6s-.5.2-1.4.7c-.9.4-2.3 1.1-4.1 1.8-3.5 1.5-8.7 3.5-15.1 5.1-6.4 1.6-14.1 2.9-22.3 3.2-4.1.2-8.4.2-12.7.2-4.3 0-8.7-.1-13.1-.1-4.4-.1-8.8-.2-13.1-.3-4.3-.1-8.6-.4-12.7-.6-4.1-.3-8.1-.6-11.8-1-3.8-.4-7.3-.8-10.6-1.3-1.6-.3-3.2-.5-4.7-.7-1.5-.3-2.9-.5-4.2-.8-2.6-.5-4.9-1-6.8-1.5s-3.3-1.1-4.1-1.7c-.4-.3-.7-.5-.9-.7-.3-.2-.4-.3-.4-.3z"/><linearGradient id="SVGID_1_" gradientUnits="userSpaceOnUse" x1="6378.8" y1="1257.789" x2="6584.7" y2="1257.789" gradientTransform="matrix(1 0 0 -1 0 415)"><stop offset=".018" stop-color="#801fe3"/><stop offset="1" stop-color="#b7a7ff"/></linearGradient><path class="st1" d="M6378.8-936.4c1.4 24.4 2.7 48.8 4.1 73.2.4 7.9.9 15.9 2.2 23.7 1.8 11.1 5.4 21.8 8.9 32.5 3 9.1 6 18.2 11.1 26.3 17.8 28.1 51.5 32.7 81.9 31.3 10.6-.5 21.3-1.5 31.5-4.7 66.9-21.3 65.2-117 66.1-172.7 0-2.6.1-5.1.1-7.7-68.7 2.2-137.5 4-205.9-1.9z"/><path d="M6373.7-956.1s.6 8.1 1.5 22.2c.5 7.1 1 15.6 1.7 25.5.6 9.8 1.4 20.9 2.1 33.1.4 6.1.7 12.4 1.3 18.9.5 6.5 1.4 13.2 3 19.9 1.6 6.7 3.7 13.5 6 20.4 2.4 6.9 4.5 14 7.5 20.9.8 1.7 1.5 3.4 2.4 5.1.9 1.6 1.8 3.3 2.8 4.8 1.1 1.6 2.2 3.1 3.4 4.7 1.2 1.4 2.5 2.8 3.7 4.3 5.3 5.5 11.7 10 18.8 13.2 7.1 3.3 14.8 5.4 22.6 6.6 7.9 1.3 15.9 1.7 23.9 1.7 8-.1 16.1-.4 24-1.5 3.9-.5 7.9-1.2 11.7-2.2 1-.3 1.9-.5 2.8-.8l.7-.2h.1l.2-.1.4-.1 1.4-.5 2.8-1c.5-.2.9-.3 1.4-.5l1.3-.6c7.1-3.1 13.7-7.4 19.4-12.5 5.7-5.1 10.5-11.1 14.4-17.5 4-6.3 7.1-13.1 9.7-19.8 2.6-6.8 4.6-13.6 6.3-20.3 3.2-13.5 5-26.5 6.2-38.5 1.1-12.1 1.7-23.2 2-33 .3-9.9.5-18.4.7-25.5.2-14.2.4-22.2.4-22.2s0 2 .1 5.8c0 3.8.1 9.4.2 16.4 0 7.1 0 15.7-.2 25.5-.1 9.9-.5 21-1.5 33.1-1 12.1-2.6 25.2-5.7 38.9-1.6 6.8-3.6 13.7-6.1 20.6-2.5 6.9-5.7 13.8-9.8 20.3-4 6.5-9 12.7-14.8 18.1-5.9 5.4-12.7 9.8-20.2 13.1l-1.4.6c-.5.2-.9.4-1.4.5l-2.8 1-1.4.5-.4.1-.2.1-.2.1-.7.2c-1 .3-2 .6-2.9.8-3.9 1-8 1.8-12 2.4-8.1 1.1-16.2 1.5-24.4 1.6-8.2 0-16.3-.5-24.4-1.8-8-1.3-16-3.5-23.3-7-7.4-3.4-14.1-8.1-19.6-13.9-1.3-1.5-2.6-3.1-3.9-4.6-1.1-1.6-2.2-3.2-3.3-4.7-2.2-3.4-3.9-6.8-5.4-10.4-3-7.1-5.2-14.2-7.5-21.2-2.2-7-4.3-13.9-5.8-20.7-1.6-6.9-2.4-13.6-2.8-20.2-.5-6.6-.7-12.9-1-18.9-.6-12.1-1.1-23.2-1.6-33.1-.5-9.9-.8-18.4-1.2-25.5-.7-14.2-1-22.2-1-22.2z"/><path d="M6374.1-940.7s.8 0 2.4.1 3.8.2 6.7.3c2.9.2 6.4.3 10.5.5 4 .2 8.6.3 13.6.5s10.4.3 16.1.5 11.7.2 17.9.4c6.2.1 12.6.1 19.2.2 6.5.1 13.2 0 19.8.1 6.6 0 13.3 0 19.8-.1s13-.1 19.2-.2c12.5-.1 24.1-.2 34-.3 10-.1 18.3-.1 24.1-.1h9.1s-.8.1-2.4.2c-1.6.1-3.8.2-6.7.4-5.8.3-14.1.8-24.1 1.3s-21.6.9-34 1.3c-6.2.1-12.7.4-19.2.4-6.5.1-13.2.1-19.8.2-6.6 0-13.3 0-19.8-.2-6.5-.1-13-.3-19.2-.4-6.2-.2-12.3-.4-18-.8-2.9-.2-5.6-.3-8.3-.5-2.7-.2-5.3-.4-7.8-.5-2.5-.2-4.9-.3-7.1-.5-2.3-.2-4.4-.4-6.4-.6-4-.4-7.6-.7-10.4-1-2.9-.3-5.2-.6-6.7-.7-1.7-.4-2.5-.5-2.5-.5z"/><path class="st2" d="M119.5 42.3c.5-.3 1.1-.5 1.7-.6 1.5-.4 3.2-.4 4.8-.4 12.7.4 21.2 3.7 33.2 7.2 2.7.8 5.6 1.7 7.7 3.6 3.3 3.1 3.9 7.9 5.6 12.1 2.3 5.7 6.5 10.4 10 15.6 3.4 5.1 6.1 11.5 4.3 17.5-.7 2.4-2 4.5-3.4 6.6-2.9 4.7-5.9 9.3-8.8 13.9-3.4 5.4-7 10.9-12.4 14.1-8.1 4.7-18.3 3-27.4 1.2-7.3-1.4-15.2-3.1-20.3-8.6-2.3-2.5-3.8-5.6-5.4-8.6-2.7-5.6-5.6-11.1-8.3-16.7-8.8-17.6 1.9-40 14-53.1 1.4-1.5 3-3 4.7-3.8z"/><path d="M102.8 82.5s1.1-.1 2.8-.2 4.3-.3 7.4-.4c3.1-.1 6.7-.2 10.5-.3 1.9 0 3.9-.1 5.9-.1s4.1 0 6.1-.1c2 0 4-.3 5.6-1 1.7-.7 3.1-2 4.2-3.4s2.2-3 3.3-4.4c1.1-1.4 2-2.7 2.9-4 1.9-2.5 3.4-4.5 4.5-5.9s1.8-2.2 1.8-2.2-.5.9-1.4 2.4c-1 1.5-2.3 3.7-3.9 6.4-.8 1.3-1.8 2.7-2.6 4.1-1 1.5-1.9 3.1-3.2 4.6-1.2 1.5-2.7 3.1-4.8 4.1-2 .9-4.2 1.1-6.3 1.2h-6.1c-2 0-4-.1-5.9-.1-3.9-.1-7.4-.2-10.5-.3-3.1-.1-5.6-.3-7.4-.4h-2.9z"/><path d="M142.3 81.7s1.5 2.1 3.4 5.6c1 1.7 2.1 3.7 3.2 5.8.5 1.1 1.1 2.2 1.7 3.4s1.1 2.3 1.7 3.5c.5 1.1 1.1 2.4 1.6 3.5s1 2.3 1.5 3.4c1 2.2 1.8 4.3 2.5 6.2 1.3 3.6 2.1 6.2 2.1 6.2s-.4-.5-.9-1.6c-.5-1-1.3-2.5-2.2-4.1-.9-1.8-1.9-3.8-2.9-6-.5-1.1-1.1-2.2-1.6-3.4-.5-1.1-1.1-2.3-1.7-3.5-1.1-2.4-2.2-4.7-3.2-6.9-1.1-2.2-1.9-4.3-2.7-6.1-1.6-3.5-2.5-6-2.5-6z"/><path class="st2" d="M112.7 147c-4.6 3.7-6.4 9.7-8.1 15.3-4.2 14.2-8.3 29.6-3.2 43.6 3.6 10 11.5 17.7 19.2 25 2.3 2.2 4.8 4.5 7.9 5 3 .5 6-.8 8.7-2 8.4-3.7 16.7-7.3 25.1-11 6.6-2.9 13.5-6.1 17.2-12.2 2.7-4.5 3.2-9.9 3.7-15.1.7-7.9 1.4-15.9 2.1-23.8.2-2.3.4-4.6-.2-6.9-.7-2.7-2.6-4.9-4.4-7-7.7-8.8-18.1-21.7-30.9-21-10.2.5-29.3 3.8-37.1 10.1z"/><path d="M118.2 155.5v.9c0 .6.1 1.4.4 2.4.3 1 .8 2.2 1.5 3.5s1.7 2.7 2.7 4.2 2.1 3.3 2.9 5.3c.8 2 1.3 4.2 2.1 6.3.7 2.1 1.9 4.1 3.6 5.3 1.7 1.3 4 1.7 6.3 1.4 2.3-.2 4.6-.9 6.8-1.7 2.2-.9 4.4-1.8 6.5-2.6 4.3-1.7 8.3-3.3 11.7-4.6 3.4-1.3 6.3-2.4 8.3-3.1s3.2-1.1 3.2-1.1-1.1.6-3 1.5-4.7 2.3-8 3.8c-3.3 1.6-7.3 3.3-11.5 5.2-2.1.9-4.2 1.9-6.5 2.8-2.3.9-4.7 1.7-7.3 1.9-1.3.1-2.6.1-3.9-.2l-1-.3-.9-.4c-.6-.3-1.3-.7-1.7-1-2.3-1.6-3.4-4.1-4.1-6.3-.8-2.2-1.2-4.4-1.8-6.4s-1.6-3.7-2.5-5.3-1.7-3.1-2.4-4.5c-.6-1.4-1.1-2.7-1.3-3.7-.2-1.1-.2-1.9-.2-2.5.1-.5.1-.8.1-.8zm12.7 32l.6 1.5c.2.5.4 1.1.6 1.8.1.4.2.7.3 1.1.1.4.1.8.2 1.3.2.9.3 1.9.3 2.9.1 1 .1 2.1.1 3.3 0 1.1-.1 2.3-.2 3.5s-.2 2.4-.3 3.5c-.3 2.4-.5 4.7-.7 6.9-.1 1.1-.2 2.2-.2 3.2s-.1 2 0 2.8v1.3c0 .4.1.8.1 1.1.1.7.1 1.3.2 1.8.2 1 .3 1.6.3 1.6l-.6-1.5c-.2-.5-.4-1.1-.6-1.8-.1-.4-.2-.7-.3-1.1-.1-.4-.1-.8-.2-1.3-.2-.9-.3-1.9-.3-2.9-.1-1-.1-2.1-.1-3.3 0-1.1.1-2.3.2-3.5.1-1.2.2-2.4.3-3.5.3-2.4.5-4.7.7-6.9.1-1.1.2-2.2.2-3.2s.1-2 0-2.8V192c0-.4-.1-.8-.1-1.1-.1-.7-.1-1.3-.2-1.9-.3-.9-.3-1.5-.3-1.5z"/><radialGradient id="SVGID_2_" cx="324.748" cy="349.73" r="58.97" gradientTransform="scale(1 -1) rotate(5.906 4514.715 -41.416)" gradientUnits="userSpaceOnUse"><stop offset="0" stop-color="#7ac000"/><stop offset=".998" stop-color="#2c9400"/></radialGradient><path class="st3" d="M244.1 127.8c20.6 9.9 42.4 15.2 62.9 15.2 4.2.1 22.2-5.3 26.6-8.1 10.4-6.3 17.3-13.3 23.7-23.8 8.4-14.1 12.5-24.5 9-43.4-1.4-6.5-2.2-18.3-3.9-25.4"/><path class="st2" d="M362.5 39.8c-15.2 9-15.4 7.5-30.5 16.6-14.6 8.8-29.2 17.7-41.7 29.1-12.3 11.2-22.7 24.9-37.4 33-3.3 1.7-6.8 3.3-9.1 6.2 20.5 10 42.3 15.4 62.8 15.5 4.2.1 22.2-5.2 26.7-7.9 10.4-6.2 17.4-13.1 23.8-23.7 8.4-14.1 12.6-24.5 9.2-43.3-1.3-6.5-2.1-18.3-3.8-25.5z"/><path class="st4" d="M356.7 42.7c.6 1.5.9 2.8 1.4 4.3 1.1 3.1 1.4 6.3 1.5 9.4 1.2 16.8.4 31.3-6.6 44.7-4.6 8-11.3 14.3-17.7 20.5-3.6 3.4-7.2 6.9-11.8 8.9-6.8 3-15 2.9-23.2 2.3-14-1-28.4-3.1-42.1-11.1-1.7-.9-2.3-2.3-3.5-3.9"/><path class="st4" d="M295.1 81.4c.7 1.5 2.2 2.3 3.8 2.5 1.6.2 3.2-.2 4.7-.8 2.4-.9 4.8-2.5 6.3-4.7 1.4-2.2 1.6-5.4.1-7.4"/><path d="M296.7 84.9s-.4 1.7-1 4.9c-.7 3.2-1.7 7.5-3 12.9-.6 2.6-1.3 5.6-2 8.6-.3 1.5-.7 3.1-1.1 4.7-.3 1.6-.7 3.3-.6 4.9 0 1.6.6 3.2 1.7 4.6 1 1.4 2.4 2.5 3.9 3.2 3.1 1.6 6.7 1.7 10.3 2.1 1.8.2 3.5.1 5.3-.3l1.3-.3c.2 0 .4.1.6 0s.5-.1.6-.2c.7-.5 1.3-.9 1.8-1.7 1-1.4 1.5-3.2 1.6-4.7.1-1.7-.1-3.4-.5-5s-.9-3.3-1.3-4.8c-.5-1.5-1-3.2-1.4-4.6-.9-3-1.8-5.8-2.6-8.4-1.7-5.2-3.1-9.5-4.2-12.6s-1.6-4.8-1.6-4.8.6 1.7 1.8 4.7c1.2 3 2.7 7.3 4.6 12.5.8 2.6 1.9 5.4 2.8 8.4s2 6.1 2.9 9.5c.4 1.6.7 3.4.6 5.3-.1 1.9-.6 3.7-1.8 5.3-.5.8-1.2 1.4-2.1 2.1-.2.1-.4.2-.6.4-.3.2-.5.2-.7.3-.5.2-.9.3-1.3.4-1.9.4-3.8.2-5.6.1-3.6-.3-7.4-.7-10.7-2.5-1.6-.8-3.1-2.1-4.2-3.6s-1.7-3.3-1.8-5.1c0-1.8.4-3.5.7-5.1.4-1.6.8-3.2 1.2-4.7.8-3.1 1.5-5.9 2.2-8.6 1.4-5.3 2.5-9.8 3.3-12.9.4-3.3.9-5 .9-5zm-2.3-.9s-.5.9-1.2 2.5c-.8 1.6-1.9 3.9-3.2 6.7-1.3 2.8-2.7 6-3.9 9.6-.6 1.8-1.1 3.7-1.6 5.6-.4 2-.8 3.9-1.1 5.9-.3 2-.7 4.1-1.8 5.9-.5.9-1.2 1.7-2.1 2.4-.9.6-1.8 1.1-2.7 1.4-1.9.6-3.9.5-5.7.1-1.7-.4-3.3-1.2-4.6-2.2-1.3-.9-2.3-1.9-3.2-2.8-.8-.9-1.6-1.8-2.1-2.5-1.1-1.4-1.7-2.3-1.7-2.3s.7.8 1.9 2.1c1.2 1.4 3 3.2 5.5 4.9 1.2.8 2.8 1.6 4.4 1.9 1.6.3 3.5.4 5.2-.2.9-.2 1.7-.6 2.4-1.2.8-.6 1.3-1.3 1.8-2.1.9-1.7 1.4-3.6 1.7-5.7.3-2 .6-4.1 1.2-6 .5-2 1.1-3.9 1.7-5.7 1.3-3.6 2.8-6.8 4.2-9.6 1.4-2.7 2.7-4.9 3.5-6.5.9-1.3 1.4-2.2 1.4-2.2zm12.3-1.5s.5 1.7 1.8 4.5c1.3 2.9 3.4 6.7 6 11.4 2.5 4.7 5.5 10.2 8.6 16 .8 1.5 1.7 2.9 2.8 4 1.1 1.2 2.6 2 4.2 2s3.2-.8 4.5-1.7c1.4-1.1 2.6-2.3 3.9-3.5 1.2-1.2 2.4-2.6 3.7-3.8.7-.7 1.2-1.2 1.5-1.9.2-.7.2-1.5 0-2.3s-.6-1.5-1-2.3-.8-1.5-1.3-2.3c-.9-1.4-1.9-2.7-3-4-2.2-2.4-4.6-4.6-7-6.5-2.3-1.9-4.7-3.6-6.9-5.2-4.3-3.2-7.9-5.9-10.4-7.7-2.5-1.8-3.9-2.9-3.9-2.9s1.5 1 4 2.8c2.5 1.7 6.2 4.3 10.6 7.3 2.1 1.5 4.5 3.2 6.9 5.1s4.9 3.9 7.2 6.4c2.3 2.5 4.2 5.4 5.4 8.9.2.9.4 1.9 0 2.9s-1 1.6-1.7 2.3c-1.2 1.2-2.4 2.6-3.7 3.8-1.2 1.2-2.4 2.6-3.9 3.7s-3.2 1.9-5.2 1.9c-1.9 0-3.7-1-4.9-2.3-1.3-1.3-2.1-2.8-2.9-4.3-3-5.9-5.9-11.4-8.4-16.2s-4.4-8.7-5.7-11.6c-.6-1.4-1.1-2.6-1.3-3.4.2-.7.1-1.1.1-1.1zm5.1-7.9s1.5.5 4.1 1.3c2.7.9 6.4 2.1 10.9 3.6s9.8 3.2 15.4 5c1.5.5 2.8.8 4.3.7 1.4-.1 2.8-.7 4.1-1.4 1.2-.8 2.4-1.8 3.5-2.9.9-1.2 1.8-2.5 2.3-3.9s.7-3 .4-4.4c-.1-.4-.2-.7-.3-.9-.1-.2-.4-.3-.7-.4-.7-.1-1.5-.2-2.2-.3-3.1-.4-6.1-.6-9.1-.8-5.9-.5-11.4-.7-16.2-.8-4.8 0-8.7-.1-11.4 0s-4.3 0-4.3 0 .4 0 1.1-.1 1.8-.1 3.2-.2c2.7-.2 6.7-.3 11.4-.4 4.8 0 10.3.1 16.2.5 2.9.2 6 .5 9.2.8.8.1 1.5.1 2.4.3.4.1.9.3 1.2.7.3.4.4.9.5 1.3.3 1.7.1 3.4-.4 4.9-1.2 3.1-3.5 5.6-6.2 7.3-1.3.8-2.9 1.5-4.6 1.6-1.6.1-3.2-.3-4.6-.8-2.8-.9-5.5-1.9-8.1-2.8s-5-1.7-7.2-2.5c-4.4-1.6-8.2-2.9-10.8-3.9-2.7-1-4.1-1.5-4.1-1.5zm5-8.8s.2 0 .6.2.8.1 1.6.1c.7-.1 1.5-.3 2.4-.5.8-.3 1.9-.8 2.9-1 2.2-.8 4.8-1.5 7.6-2.3 2.8-.8 5.7-1.6 8.7-2.5 1.5-.4 3-.8 4.4-1.2 1.5-.4 2.9-.7 4.2-1.2 1.3-.4 2.5-1.1 3.4-2 .9-.8 1.3-2 1.4-3s-.2-2.1-.4-3l-.6-2.3c-.2-.7 0-1.2-.1-1.6s.1-.5.1-.5.2.8.6 2c.2.7.5 1.4.8 2.3.2.9.5 1.9.4 3.2-.1 1.2-.6 2.5-1.6 3.5-1 1.1-2.2 1.8-3.7 2.3s-2.8.8-4.3 1.2c-1.5.4-2.9.8-4.4 1.2-3 .8-5.9 1.6-8.7 2.3-2.8.8-5.4 1.4-7.6 2-1.1.3-2.1.6-3 .8-.9.2-1.8.3-2.4.4-.7 0-1.2-.1-1.6-.2-.6-.1-.7-.2-.7-.2z"/><path class="st0" d="M372.9 9.5c1.1.1 1.5 1.4 1.5 2.5 3.2 47.1 3 191.1 1.2 211.7-2.8 32.7-11.3 53.5-13.2 57.3-3 6-11.4 12.6-19.3 15.8-2.6 1.1-10.8 4.8-28 5.8-19.9 1.2-156.5-.9-173.3-1.1-18.6-.1-40.6-10.6-48.2-25.8-4.4-8.8-5.4-18.7-7.5-28.1-2.9-13-5.3-180.7.3-237.7.1-.6.7-1 1.3-1 59.1-1.1 284.1.5 285.2.6z"/><path d="M97 13.9s-.2 2.7-.6 7.8c-.4 5.1-.9 12.6-1.4 22.1s-1.1 21.1-1.5 34.4-.8 28.3-.9 44.6c-.1 16.3-.1 34.1.4 52.8.1 4.7.3 9.4.5 14.2l.3 7.2c.1 2.4.2 4.9.5 7.2.6 4.8 1.8 9.5 3.6 14.1 1.8 4.5 4.3 8.9 7.4 12.7 1.6 1.9 3.3 3.7 5.3 5.2 1 .7 2 1.6 2.9 2 1.1.5 2.3.8 3.5 1.1 4.9 1.2 10.1 1.8 15.3 2.4 10.4 1 21 1.5 31.8 1.9 5.4.2 10.7.3 16.1.5s10.8.4 16.2.5c10.8.2 21.7 0 32.6-.1s21.8-.2 32.7.1c10.9.3 21.7.5 32.4.8 5.4.1 10.7.2 16 .3 2.7 0 5.3.1 7.9.1h2c.7 0 1.3 0 1.9-.1 1.3-.1 2.5-.3 3.8-.4 10.1-1.7 19.2-7.2 26-14.4 1.7-1.8 3.3-3.8 4.7-5.8.7-1 1.4-2.1 1.9-3 .5-1 .9-2.2 1.2-3.4 1.3-4.7 2.1-9.6 2.7-14.5 1.3-9.7 2-19.3 2.7-28.6 1.2-18.7 1.7-36.4 2.1-52.7.3-16.3.3-31.3.1-44.6-.2-13.3-.6-24.9-1-34.4-.5-9.5-.9-17-1.1-22.1-.3-5.1-.4-7.8-.4-7.8s.2 2.7.6 7.8c.4 5.1 1 12.6 1.6 22.1 1.2 19 2.5 46.3 2.1 79.1-.2 16.4-.6 34.1-1.6 52.8-.5 9.4-1.2 19-2.4 28.8-.7 4.9-1.4 9.9-2.8 14.8-.4 1.2-.8 2.5-1.3 3.7-.2.3-.3.7-.5.9l-.2.4-.3.5c-.4.5-.7 1.1-1.1 1.6-1.5 2.1-3.1 4.2-4.9 6.1-7.1 7.7-16.7 13.5-27.5 15.3-1.3.2-2.7.4-4.1.5-.7.1-1.4.1-2.1.1h-2c-2.6 0-5.3-.1-8-.1l-16-.3c-10.7-.2-21.5-.4-32.4-.7-10.8-.2-21.7-.1-32.6 0s-21.8.2-32.7 0c-5.4-.1-10.9-.3-16.3-.5l-16.2-.6c-10.7-.4-21.4-.9-31.9-2-5.3-.6-10.5-1.2-15.7-2.5-1.3-.3-2.6-.7-3.9-1.3-.3-.1-.7-.3-1-.5-.2-.1-.3-.2-.4-.3-.2-.1-.3-.2-.4-.3-.5-.4-1.1-.8-1.6-1.2-2.1-1.7-4-3.5-5.7-5.6-3.4-4.1-5.9-8.7-7.8-13.4-1.9-4.8-3.2-9.7-3.7-14.7-.3-2.6-.3-5-.4-7.4-.1-2.4-.2-4.9-.3-7.3-.1-4.8-.3-9.6-.4-14.3-.3-18.8-.2-36.5.1-52.9.3-16.4.9-31.4 1.5-44.6.6-13.3 1.4-24.8 2.1-34.4.7-9.5 1.4-17 1.9-22.1.4-4.9.7-7.6.7-7.6z"/><path d="M368.5 33.2l-3 .3c-2 .2-4.9.5-8.5.8-3.7.3-8.2.6-13.3 1.1-5.1.4-10.9.8-17.2 1.2-6.3.4-13.2.8-20.4 1.1-7.2.4-14.9.7-22.8 1s-16.1.5-24.4.7c-8.3.1-16.8.3-25.2.3-8.4 0-16.9 0-25.2-.1s-16.5-.2-24.4-.4c-7.9-.2-15.6-.5-22.8-.7-7.2-.3-14.1-.7-20.4-.9-6.3-.1-12.1-.1-17.3-.1-5.1 0-9.6-.1-13.3-.2s-6.6-.3-8.6-.4c-2-.2-3-.2-3-.2s1.1 0 3 .1h8.6c3.7 0 8.2-.2 13.3-.4 5.1-.2 10.9-.5 17.3-.5s13.2.3 20.5.4c7.2.1 14.9.2 22.8.3 7.9.1 16.1.1 24.4.2h25.2c8.4 0 16.9-.1 25.2-.2s16.5-.3 24.4-.4c15.8-.3 30.6-.7 43.2-1.2s23.2-.8 30.6-1.1c3.7-.1 6.6-.3 8.6-.3 1.6-.4 2.7-.4 2.7-.4z"/><g><path class="st2" d="M210.2 170.7c5.1.1 7.9-4 12-6.9 6-4.3 12.2-8.4 18.5-12.2 3.2-2 7.5-4 9.2-7.6 1-2.1 1.4-4.5 1.7-6.9.8-5.8 1.7-11.6 2.5-17.4.4-2.7.8-5.4.3-8.1-.7-3.6-3.6-6.1-5.8-8.9-2.6-3.2-5.2-6.4-7.5-9.8-4.7-6.8-9.2-13.8-14.9-19.8-2.1-2.2-4.6-4.4-8-5-6.1-1.2-13.3 2.4-19.3 6.4-8.9 5.9-17.2 13-26.7 17.9-3.2 1.6-6.8 3.3-8.3 6.3-1.6 3.1 3.5 27.6 4.8 33 1.5 6.4 8.5 12.4 12.9 16.9 6.5 6.7 13.4 14.8 21.4 19.7 1.5.9 3.2 1.7 4.9 2.2.8.1 1.5.2 2.3.2z"/><path d="M213.2 129.4l.3 1.5c.1.5.2 1 .2 1.7.1.7.2 1.4.2 2.2.1 1.7.1 3.6 0 5.6-.1 1-.1 2.1-.2 3.2s-.2 2.1-.3 3.2c-.3 2.1-.5 4.3-.8 6.3-.1 1-.2 2-.3 2.9-.1.9-.2 1.8-.2 2.6-.1.8-.1 1.5-.1 2.2s-.1 1.2-.1 1.7c0 1-.1 1.5-.1 1.5l-.3-1.5c-.1-.5-.2-1-.3-1.7-.1-.7-.2-1.4-.2-2.2-.1-1.6-.1-3.6 0-5.6.1-1 .1-2.1.2-3.2s.2-2.2.3-3.2c.3-2.1.6-4.3.8-6.3.1-1 .3-2 .4-2.9s.2-1.8.3-2.6c.2-1.6.3-2.9.3-3.9"/><path d="M170 101.8s1.2.8 3.2 2.3 5 3.6 8.6 6.1 7.7 5.4 12.2 8.4c2.2 1.5 4.6 2.9 7.1 4.1 1.3.6 2.5 1 4 1.6 1.4.6 2.6 1.4 3.9 2s2.5 1.2 3.8 1.4c.6.1 1.3.1 1.9.1.4 0 .7-.1 1-.1s.7-.1 1-.2c2.6-.5 5.2-1.7 7.6-2.8 5-2.2 9.6-4.2 13.6-6 4-1.7 7.3-3.1 9.7-4.1 2.3-1 3.7-1.5 3.7-1.5s-1.3.7-3.5 1.8c-2.3 1.1-5.5 2.8-9.4 4.8-3.9 1.9-8.4 4.2-13.3 6.5-2.4 1.2-5 2.5-8 3.1-.4.1-.7.1-1.1.2-.4.1-.8.1-1.1.1-.8 0-1.6 0-2.4-.1-1.6-.3-3-.9-4.3-1.5-1.3-.7-2.6-1.4-3.8-2-1.2-.6-2.7-1-4-1.7-2.6-1.3-5-2.8-7.3-4.4-2.3-1.6-4.3-3.1-6.3-4.6s-3.9-2.9-5.6-4.3c-3.4-2.7-6.2-5-8.1-6.7-2-1.5-3.1-2.5-3.1-2.5zM213.3 130.9c-.1-1-.1-1.5-.1-1.5"/></g><g><path class="st2" d="M322.8 140.3c.6.1 1.2.2 1.8.5 1.5.5 2.9 1.6 4.2 2.6 10.3 8 15.5 15.8 23.4 25.9 1.8 2.3 3.6 4.7 4.2 7.6.9 4.5-1.5 9-2.6 13.4-1.5 6.2-.8 12.6-1 19-.2 6.3-1.8 13.2-6.8 17.2-2 1.6-4.4 2.5-6.8 3.5-5.2 2.2-10.5 4.2-15.7 6.4-6 2.5-12.4 5-18.8 4.3-9.6-1-17-8.4-23.6-15.4-5.3-5.6-10.8-11.7-11.8-19.4-.4-3.4.2-6.9.6-10.4 1-6.3 2-12.6 3.1-18.9 3.2-20 25.5-32.3 43.5-36 2.1-.3 4.3-.6 6.3-.3z"/><path d="M284.7 163.9s.9.6 2.5 1.5 3.8 2.4 6.4 4.1c2.6 1.8 5.7 3.9 8.9 6.1 1.6 1.2 3.3 2.2 5 3.5l5.1 3.6c1.7 1.2 3.5 2.2 5.3 2.6 1.8.4 3.8.2 5.6-.3 1.8-.5 3.6-1.2 5.4-1.7 1.7-.5 3.3-1.1 4.8-1.6 3-1 5.6-1.7 7.3-2.2 1.7-.5 2.8-.8 2.8-.8s-1 .4-2.6 1.1c-1.7.7-4.1 1.7-7 3-1.5.6-3.1 1.2-4.7 1.9-1.7.7-3.5 1.4-5.4 1.9s-4.1.9-6.4.5c-2.2-.5-4.2-1.6-6-2.7l-5.2-3.7c-1.7-1.2-3.3-2.4-4.9-3.6-3.2-2.4-6.1-4.6-8.6-6.5s-4.6-3.6-6-4.7c-1.4-1.4-2.3-2-2.3-2z"/><path d="M318.2 186.9s0 2.7-.5 6.7c-.2 2-.4 4.4-.8 6.8-.2 1.2-.4 2.5-.6 3.8s-.4 2.6-.7 3.9c-.2 1.3-.5 2.6-.8 3.9s-.6 2.5-.8 3.8c-.5 2.4-1.1 4.7-1.6 6.6-1.1 3.8-1.9 6.4-1.9 6.4s0-.7.2-1.9c.1-1.1.4-2.9.6-4.8.3-2 .7-4.3 1.2-6.8.2-1.2.4-2.5.7-3.7.2-1.3.4-2.6.7-3.9.5-2.6 1-5.2 1.5-7.6.4-2.5 1-4.8 1.4-6.7.6-4 1.4-6.5 1.4-6.5z"/></g><g><path d="M273.1 166.8s-1.2 1-3.2 2.7c-2.1 1.7-5 4.1-8.6 6.9-1.8 1.4-3.7 3-5.9 4.5-2.1 1.5-4.5 3.1-7.1 4.4-2.6 1.3-5.5 2.4-8.6 2.7-3.1.4-6.3.1-9.3-.5s-6-1.5-8.8-2.4c-2.9-.9-5.7-1.7-8.4-2.6-5.4-1.7-10.5-3.3-14.8-5s-7.6-3.6-9.9-5c-1.1-.7-2-1.3-2.6-1.7l-.9-.6s1.3.8 3.6 2.1 5.8 2.8 10.1 4.3 9.4 2.8 14.9 4.4c2.7.8 5.6 1.6 8.4 2.4 2.9.8 5.8 1.7 8.7 2.3 2.9.6 5.9.9 8.7.6 2.9-.3 5.6-1.2 8.1-2.4s4.8-2.6 7-4 4.2-2.9 6-4.2c3.7-2.6 6.9-4.8 9-6.3 2.3-1.7 3.6-2.6 3.6-2.6zm-31.2 21.1s.2.8.6 2.1c.3 1.3.8 3.3 1.3 5.6s1 5 1.4 8l.6 4.5c.2 1.5.3 3.1.5 4.7.1 1.6.2 3.1.3 4.7.1 1.5.1 3.1.2 4.6.1 3 .1 5.7 0 8.1-.1 2.4-.2 4.3-.3 5.7-.1 1.4-.2 2.2-.2 2.2s-.1-.8-.2-2.2-.3-3.3-.5-5.7c-.2-2.3-.4-5.1-.6-8s-.5-6.1-.8-9.2c-.3-3.1-.6-6.2-.8-9.2-.3-2.9-.6-5.7-.8-8-.2-2.4-.4-4.3-.5-5.7-.2-1.5-.2-2.2-.2-2.2z"/><path class="st2" d="M273.9 165.4c-1.2 13.5-1.5 27.1-1 40.7.1 3.6.3 7.3-.4 10.8-.7 3.4-2.2 6.3-3.8 9-5.5 9.4-12.8 18.1-21.7 18.5-3 .1-6-.7-9-1.3-13.8-2.8-27.9-.6-41.7-3.4-3.2-.6-6.4-1.6-9-4.3-4.6-4.9-5.5-13.7-5.5-21.6.1-11.8 1.5-23.5.3-35.2-.4-3.9-1-8.3.7-11.4 1.8-3.3 5.3-3.5 8.4-4.1 5.6-1.1 10.7-4.6 16.2-6.6 9-3.4 18.8-2.8 27.7 1.7 11.8 6 24.6 1.5 37 3.6.5.1 1.1.2 1.5.7s.7 2.5.3 2.9z"/></g></svg>