<svg id="Layer_1" xmlns="http://www.w3.org/2000/svg" viewBox="0 0 705 705"><style>.st0,.st1{fill:none}.st1{stroke:#000;stroke-width:5;stroke-miterlimit:10}.st2,.st3{opacity:.9;fill:url(#SVGID_1_);enable-background:new}.st3{opacity:.51;fill:url(#SVGID_2_)}.st4{stroke-width:2}.st4,.st5{fill:none;stroke:#000;stroke-miterlimit:10}.st6{opacity:.51;fill:url(#SVGID_3_);enable-background:new}</style><path class="st0" d="M122.5 0h460v705h-460V0z"/><path class="st1" d="M6711.1-565.6c.3 38.5.2 82.4-5.7 120.5-2.3 14.7-3.7 31.7-10.6 44.9-9.4 17.9-18.6 35.9-34 49.5-5.5 4.9-11.5 9.2-17.9 12.8-4.2 2.3-15.3 5.1-15.9 10.8-.4 3.6 3.8 5.7 6.9 7.6 6.9 4.3 10.9 12.3 11.6 20.4 1.5 15.4-5.6 30.7-18.9 38.8-.8.5-1.6 1-1.9 1.8-.7 2.1 2.1 3.4 4.2 3.8 12.1 2.1 24 5 35.7 8.7 7.7 2.4 24.3 10.6 12 18.5-7.7 4.9-17 6.2-26 7.3-24.7 3.1-49.7 6.2-74.5 3.9-5.6-.5-11.2-1.4-16.8-2.2l-22.5-3.3c-5.3-.8-11.8-2.7-12.7-7.9-1.7-10.2 16.6-15.1 23.6-17.2 4.9-1.5 36.5-4.6 35.6-9.3-.5-2.4-2.8-3.9-4.8-5.4-8.9-6.4-15-16.4-16.6-27.2-1.6-10.8 1.3-22.2 7.9-30.9 2.2-2.9 4.9-6 4.4-9.6-.2-1.5-1-2.9-2-4.1-5.1-6.7-15.9-9.5-22.8-14.7-7.9-6-15.2-12.8-21.6-20.4-12.5-14.5-22.1-31.5-27.6-49.9-5.2-17.2-6.9-35.3-8.2-53.2-2.3-31-3.6-62-3.8-93.1 20.2-2.4 42-1.8 62.4-1.4 52.8 1.1 160.5-1.6 160.5.5z"/><path d="M6584.5-250.7v1.9c0 .6.1 1.3.6 1.9.4.6 1.2.8 2.2.8 2.1-.1 4.5-.2 7.1-.2 1.3 0 2.7-.1 4-.1 1.4-.1 2.8-.1 4.1-.2 1.4-.1 2.8-.1 4.1-.2 1.4-.1 2.7-.1 4-.2 2.6-.1 5-.2 7.1-.3 2-.1 3.7-.6 4.6-1.3.4-.4.7-.8.8-1.1.1-.3.2-.5.2-.5v.5c-.1.3-.2.8-.6 1.3s-1.1 1-1.9 1.4-1.8.7-2.8.8c-2.1.4-4.5.7-7.1.9-1.3.1-2.7.3-4 .4-1.4.1-2.8.2-4.2.2-1.4 0-2.8.1-4.2.1h-4.1c-2.6-.1-5.1-.2-7.2-.4-.5-.1-1.1-.1-1.6-.4-.5-.3-.9-.7-1.1-1.1-.4-.9-.4-1.7-.3-2.3s.2-1.1.3-1.4c-.1-.3 0-.5 0-.5zm-.4-84.6s.6.2 1.6.5c.5.2 1.2.3 1.9.5s1.6.4 2.4.5c.9.2 1.9.3 2.9.5 1 .1 2.1.2 3.3.3 1.1.1 2.3.1 3.5.2h3.6c1.2 0 2.5 0 3.7-.1 1.2 0 2.4-.1 3.6-.1 2.3-.1 4.5-.1 6.3-.3 1.8-.2 3.2-.6 4.1-1.2.4-.3.8-.6 1-.8l.3-.3s-.1.1-.2.4c-.2.3-.4.6-.8 1-.8.8-2.3 1.6-4.2 2-.9.2-2 .4-3 .5-1.1.1-2.2.3-3.3.4l-3.6.3c-1.2.1-2.5.1-3.7.2-1.3 0-2.5 0-3.7-.1-.6 0-1.2-.1-1.8-.1-.6-.1-1.2-.1-1.8-.2-1.2-.1-2.3-.4-3.4-.6-.5-.1-1-.3-1.5-.4-.5-.2-1-.3-1.4-.4-1.8-.6-3.2-1.3-4.2-1.8-1-.6-1.6-.9-1.6-.9zM6534-233.2l.3.3c.2.2.5.4 1 .6.9.5 2.3 1 4.2 1.4 1.9.4 4.2.7 6.8 1.1 2.6.4 5.6.7 8.9 1.1 3.3.3 6.8.7 10.6 1 3.7.3 7.7.5 11.8.7 8.2.3 17 .5 25.7.6 4.4.1 8.8.1 13.1.2 4.3 0 8.5.1 12.6 0s8-.4 11.7-.8c3.7-.5 7.2-1.1 10.4-1.7 6.4-1.4 11.6-3 15.2-4.3 1.8-.7 3.2-1.2 4.2-1.6l1.5-.6s-.5.2-1.4.7c-.9.4-2.3 1.1-4.1 1.8-3.5 1.5-8.7 3.5-15.1 5.1s-14.1 2.9-22.3 3.2c-4.1.2-8.4.2-12.7.2-4.3 0-8.7-.1-13.1-.1-4.4-.1-8.8-.2-13.1-.3-4.3-.1-8.6-.4-12.7-.6-4.1-.3-8.1-.6-11.8-1-3.8-.4-7.3-.8-10.6-1.3-1.6-.3-3.2-.5-4.7-.7-1.5-.3-2.9-.5-4.2-.8-2.6-.5-4.9-1-6.8-1.5s-3.3-1.1-4.1-1.7c-.4-.3-.7-.5-.9-.7-.3-.2-.4-.3-.4-.3z"/><linearGradient id="SVGID_1_" gradientUnits="userSpaceOnUse" x1="6501.3" y1="1150.789" x2="6707.2" y2="1150.789" gradientTransform="matrix(1 0 0 -1 0 707)"><stop offset=".018" stop-color="#801fe3"/><stop offset="1" stop-color="#b7a7ff"/></linearGradient><path class="st2" d="M6501.3-537.4c1.4 24.4 2.7 48.8 4.1 73.2.4 7.9.9 15.9 2.2 23.7 1.8 11.1 5.4 21.8 8.9 32.5 3 9.1 6 18.2 11.1 26.3 17.8 28.1 51.5 32.7 81.9 31.3 10.6-.5 21.3-1.5 31.5-4.7 66.9-21.3 65.2-117 66.1-172.7 0-2.6.1-5.1.1-7.7-68.7 2.2-137.5 4-205.9-1.9z"/><path d="M6496.2-557.1s.6 8.1 1.5 22.2c.5 7.1 1 15.6 1.7 25.5.6 9.8 1.4 20.9 2.1 33.1.4 6.1.7 12.4 1.3 18.9.5 6.5 1.4 13.2 3 19.9 1.6 6.7 3.7 13.5 6 20.4 2.4 6.9 4.5 14 7.5 20.9.8 1.7 1.5 3.4 2.4 5.1.9 1.6 1.8 3.3 2.8 4.8 1.1 1.6 2.2 3.1 3.4 4.7 1.2 1.4 2.5 2.8 3.7 4.3 5.3 5.5 11.7 10 18.8 13.2 7.1 3.3 14.8 5.4 22.6 6.6 7.9 1.3 15.9 1.7 23.9 1.7 8-.1 16.1-.4 24-1.5 3.9-.5 7.9-1.2 11.7-2.2 1-.3 1.9-.5 2.8-.8l.7-.2h.1l.2-.1.4-.1 1.4-.5 2.8-1c.5-.2.9-.3 1.4-.5l1.3-.6c7.1-3.1 13.7-7.4 19.4-12.5 5.7-5.1 10.5-11.1 14.4-17.5 4-6.3 7.1-13.1 9.7-19.8 2.6-6.8 4.6-13.6 6.3-20.3 3.2-13.5 5-26.5 6.2-38.5 1.1-12.1 1.7-23.2 2-33 .3-9.9.5-18.4.7-25.5.2-14.2.4-22.2.4-22.2s0 2 .1 5.8c0 3.8.1 9.4.2 16.4 0 7.1 0 15.7-.2 25.5-.1 9.9-.5 21-1.5 33.1s-2.6 25.2-5.7 38.9c-1.6 6.8-3.6 13.7-6.1 20.6s-5.7 13.8-9.8 20.3c-4 6.5-9 12.7-14.8 18.1-5.9 5.4-12.7 9.8-20.2 13.1l-1.4.6c-.5.2-.9.4-1.4.5l-2.8 1-1.4.5-.4.1-.2.1-.2.1-.7.2c-1 .3-2 .6-2.9.8-3.9 1-8 1.8-12 2.4-8.1 1.1-16.2 1.5-24.4 1.6-8.2 0-16.3-.5-24.4-1.8-8-1.3-16-3.5-23.3-7-7.4-3.4-14.1-8.1-19.6-13.9-1.3-1.5-2.6-3.1-3.9-4.6-1.1-1.6-2.2-3.2-3.3-4.7-2.2-3.4-3.9-6.8-5.4-10.4-3-7.1-5.2-14.2-7.5-21.2-2.2-7-4.3-13.9-5.8-20.7-1.6-6.9-2.4-13.6-2.8-20.2-.5-6.6-.7-12.9-1-18.9-.6-12.1-1.1-23.2-1.6-33.1-.5-9.9-.8-18.4-1.2-25.5-.7-14.2-1-22.2-1-22.2z"/><path d="M6496.6-541.7s.8 0 2.4.1 3.8.2 6.7.3c2.9.2 6.4.3 10.5.5 4 .2 8.6.3 13.6.5s10.4.3 16.1.5 11.7.2 17.9.4c6.2.1 12.6.1 19.2.2 6.5.1 13.2 0 19.8.1 6.6 0 13.3 0 19.8-.1s13-.1 19.2-.2c12.5-.1 24.1-.2 34-.3 10-.1 18.3-.1 24.1-.1h9.1s-.8.1-2.4.2c-1.6.1-3.8.2-6.7.4-5.8.3-14.1.8-24.1 1.3s-21.6.9-34 1.3c-6.2.1-12.7.4-19.2.4-6.5.1-13.2.1-19.8.2-6.6 0-13.3 0-19.8-.2-6.5-.1-13-.3-19.2-.4-6.2-.2-12.3-.4-18-.8-2.9-.2-5.6-.3-8.3-.5-2.7-.2-5.3-.4-7.8-.5-2.5-.2-4.9-.3-7.1-.5-2.3-.2-4.4-.4-6.4-.6-4-.4-7.6-.7-10.4-1-2.9-.3-5.2-.6-6.7-.7-1.7-.4-2.5-.5-2.5-.5z"/><radialGradient id="SVGID_2_" cx="384.297" cy="261.622" r="58.97" gradientTransform="matrix(1 0 0 -1 0 707)" gradientUnits="userSpaceOnUse"><stop offset="0" stop-color="#7ac000"/><stop offset=".998" stop-color="#2c9400"/></radialGradient><path class="st3" d="M317.4 483c19.5 12 40.6 19.5 61 21.6 4.2.5 22.6-3 27.3-5.3 11-5.2 18.6-11.4 26-21.2 9.8-13.2 15-23.1 13.4-42.2-.7-6.6-.3-18.4-1.3-25.7"/><path class="st4" d="M444.8 407.2c-16 7.4-16 5.9-32 13.5-15.4 7.3-30.8 14.8-44.3 24.9-13.4 10-25.1 22.5-40.5 29.1-3.4 1.4-7.1 2.7-9.6 5.3 19.5 12 40.6 19.5 61 21.6 4.2.5 22.6-3 27.3-5.3 11-5.2 18.6-11.4 26-21.2 9.8-13.2 15-23.1 13.4-42.2-.7-6.6-.4-18.4-1.3-25.7z"/><path class="st5" d="M438.6 409.5c.4 1.6.6 2.8 1 4.4.8 3.2.7 6.4.6 9.5-.4 16.8-2.7 31.2-11 43.9-5.4 7.5-12.6 13.1-19.7 18.7-3.9 3-7.9 6.1-12.6 7.7-7 2.4-15.3 1.5-23.3 0-13.8-2.4-28-5.9-40.8-15.2-1.6-1.1-2.1-2.5-3.1-4.2"/><path class="st5" d="M373.6 442c.5 1.5 2 2.5 3.6 2.9s3.2.1 4.7-.3c2.5-.7 5.1-2 6.7-4 1.6-2.1 2.2-5.2.8-7.4"/><path d="M382.7 445c.6 2 1.2 4.1 1.8 6.1l1.7 6.1.8 3.1c.3 1 .6 2.1.8 3.1l1.5 6.2c.5 2.1 1 4.1 1.4 6.2.2 1 .4 2.1.6 3.1.2 1.1.4 2.1.5 3.2s.1 2.2 0 3.3c0 1.1-.3 2.2-.7 3.2-.4 1-.9 2-1.6 2.9s-1.6 1.6-2.5 2.2c-.2.1-.3.2-.4.2s-.2.1-.3.1c-.1.1-.3.1-.4.2-.1 0-.3.1-.4.1h.1c-1.4.5-2.9.4-4.3.3s-2.8-.4-4.1-.7c-2.7-.6-5.4-1.2-8-2.5-.6-.3-1.2-.7-1.8-1.1-.6-.4-1.1-.9-1.6-1.4-1-1-1.8-2.2-2.4-3.5s-.9-2.8-.8-4.2c.1-1.4.4-2.8.8-4.1l.3-1 .1-.2c0-.1.1-.2.1-.3l.2-.5.7-1.9 1.4-3.9 1.4-3.9c.5-1.3.9-2.6 1.5-3.9.7-1.2 1.3-2.4 1.9-3.7l1.7-3.7c.6-1.2 1.2-2.5 1.6-3.8.5-1.3.9-2.6 1.2-3.9-.2 1.4-.6 2.7-1 4s-1 2.6-1.5 3.8l-1.6 3.8c-.3.6-.5 1.3-.8 1.9l-.9 1.8c-.6 1.2-1 2.5-1.4 3.8l-1.4 3.9-1.4 3.9-.7 1.9-.2.5c0 .1-.1.2-.1.2l-.1.2-.3 1c-.4 1.3-.7 2.6-.8 3.9 0 1.3.2 2.6.8 3.8.5 1.2 1.3 2.3 2.3 3.2.9.9 2 1.7 3.2 2.3 2.4 1.2 5 1.9 7.7 2.4 1.3.3 2.7.6 4 .7s2.7.2 3.9-.2h.1c.1 0 .2 0 .3-.1.1 0 .2-.1.3-.1.3-.1.5-.2.6-.3 1.8-1 3.1-2.6 3.8-4.6.3-1 .6-1.9.6-3 .1-1 .1-2.1 0-3.1s-.3-2.1-.4-3.1l-.6-3.1c-.4-2.1-.9-4.2-1.3-6.2l-1.4-6.2c-.2-1-.5-2-.7-3.1l-.8-3.1-1.5-6.2-1.5-6zm-11.6 1.7l1.5-2.3.2.1-2.1 3.6-2.1 3.6c-1.4 2.4-2.7 4.8-3.9 7.2-.6 1.2-1.2 2.5-1.7 3.7l-1.5 3.8-.4 1-.2.5-.1.5-.6 2-1.1 4c-.4 1.3-.8 2.7-1.5 4l-.6.9-.3.4c-.1.1-.2.3-.3.4-.5.6-1 1.1-1.6 1.5-1.2.8-2.6 1.3-4 1.6-1.4.2-2.9 0-4.2-.3-1.4-.3-2.7-.9-3.8-1.7-1.2-.8-2.2-1.8-3.1-2.8s-1.7-2.2-2.5-3.3c-.7-1.2-1.4-2.4-2-3.6.8 1.1 1.5 2.3 2.3 3.4s1.6 2.2 2.6 3.1c1 1 2 1.9 3.1 2.6s2.4 1.2 3.7 1.5c1.3.3 2.7.4 3.9.2 1.3-.2 2.6-.7 3.6-1.5.5-.4 1-.8 1.4-1.3.1-.1.2-.2.3-.4l.3-.4c.2-.3.3-.6.5-.8.6-1.2 1-2.4 1.4-3.8.3-1.4.8-2.6 1.1-4l.6-2c.1-.2.1-.3.2-.5l.2-.5.4-1 1.5-3.8c.6-1.3 1.2-2.5 1.8-3.8 1.3-2.4 2.7-4.8 4.2-7.1 1.4-2.3 2.9-4.7 4.5-6.9l.2.1-1.9 2.1zm18.2-8.4l9 7.4 4.5 3.7 4.4 3.8c1.5 1.3 2.9 2.5 4.3 3.9s2.7 2.8 3.9 4.3c2.4 3.1 4.4 6.6 5.3 10.4.1.7.2 1.5 0 2.3-.1.4-.2.8-.4 1.1-.2.4-.4.7-.7 1-.5.6-1.1 1-1.6 1.4l-1.6 1.4c-1.1.9-2.1 1.8-3.2 2.7-1.1.9-2.2 1.8-3.5 2.5s-2.7 1.2-4.2 1.3c-1.5.1-3-.5-4.2-1.3-.6-.4-1.2-.9-1.6-1.5-.5-.6-.9-1.2-1.2-1.8-.7-1.2-1.3-2.6-1.8-3.9l-6.1-15.7c-1-2.6-2-5.3-3-7.9-.5-1.3-.7-2.7-1.1-4-.4-1.4-.8-2.7-.8-4.1l-.1-1.1.1 1.1c0 1.4.6 2.7 1 4 .5 1.3.9 2.6 1.4 4l3.1 7.8 6.4 15.6c.5 1.3 1 2.6 1.7 3.8.4.6.7 1.2 1.2 1.7.4.5.9 1 1.5 1.3 1.1.8 2.4 1.2 3.7 1.1 1.3 0 2.6-.5 3.8-1.2 1.2-.7 2.3-1.5 3.3-2.4l3.2-2.7 1.6-1.4c.5-.5 1.1-.9 1.5-1.3.2-.2.4-.5.6-.7.2-.3.3-.6.3-.9.1-.6.1-1.3 0-1.9-.4-1.8-1.1-3.6-2-5.3-.9-1.7-1.9-3.3-3.1-4.8s-2.5-2.9-3.8-4.3-2.8-2.7-4.2-4l-4.3-3.9-4.4-3.8c-3.1-2.5-6-5.1-8.9-7.7zm2.8-6.7s1.6 0 4.4.1c1.4.1 3.1.1 5.1.2s4.2.2 6.6.3c2.4.2 5 .5 7.8.8s5.6.7 8.6 1.2c3 .6 6 1.1 9.2 1.7l1.2.3c.4.1.8.2 1.2.5.4.3.8.7.9 1.1.2.5.2.9.3 1.3.1 1.7-.2 3.4-.9 4.9-1.5 3-4.1 5.3-7 6.8-1.5.8-3.1 1.2-4.7 1.2-1.7 0-3.2-.5-4.6-1.1-2.8-1.2-5.4-2.5-7.9-3.7s-4.9-2.3-7-3.3c-4.3-2.1-7.9-3.9-10.4-5.2-2.5-1.3-4-2-4-2s1.5.7 4 1.8c2.6 1.2 6.2 2.8 10.6 4.9 4.4 2 9.5 4.3 15 6.7 1.4.6 2.8 1 4.3 1s3-.5 4.3-1.2c2.7-1.4 5.1-3.7 6.5-6.4.6-1.4 1-2.9.9-4.4-.1-.7-.3-1.4-.8-1.7-.2-.2-.6-.3-1-.4s-.7-.2-1.1-.3c-3.1-.6-6.2-1.2-9.1-1.8-5.9-1-11.5-1.7-16.3-2.3-4.8-.4-8.8-.7-11.6-.9-2.9-.1-4.5-.1-4.5-.1zm5.1-2.8s.2-.1.3-.2c.2-.1.3-.1.5-.1s.4.1.5.3c.1.1.2.3.2.3s-.1.2-.3.3c-.2.1-.4.2-.6.1-.2 0-.4-.1-.5-.3-.1-.2-.1-.4-.1-.4z"/><path d="M435.1 413.4l.7 2.3c.2.9.3 1.8.2 2.7 0 .9-.4 1.8-.8 2.7-.2.4-.5.8-.9 1.1l-.5.5c-.2.2-.4.3-.6.4-.8.6-1.6 1-2.5 1.2-.9.3-1.8.4-2.7.5l-2.7.5c-1.8.3-3.5.6-5.3.9l-5.3.8-2.7.4c-.9.1-1.8.3-2.7.4l-2.7.3c-.9.1-1.8.2-2.7.4l-2.7.4c-.9.1-1.8.1-2.7.1-.5 0-1.1-.2-1.6-.4.5.2 1 .4 1.6.4.9 0 1.8-.2 2.6-.4l2.6-.6c.9-.2 1.8-.4 2.6-.5l2.6-.5 2.6-.5 2.7-.4 5.3-.9 5.3-.9 2.6-.4c.9-.2 1.8-.2 2.6-.5.8-.2 1.6-.6 2.3-1 .2-.1.3-.2.5-.4.2-.1.4-.3.5-.4.3-.3.6-.6.8-1 .5-.7.8-1.5.9-2.4s.1-1.8 0-2.6l.1-2.2z"/><path class="st1" d="M472.1 412.3c-1.7 22.1-17.6 214.4-20.9 242.1-1.4 11.3 2 31.6-17.2 40.1-6.4 2.8-15.3 4.1-24 5-28.1 3-56.8 3.2-85.3 1.2-19.7-1.4-44.9-.8-59.1-8.5-7.8-4.2-8.8-10.1-9.5-15.6-5-41.7-9.1-82-11.9-123.8-3.1-45.9-9.6-139.2-11.2-139.4s160.8-.5 239.1-1.1z"/><path d="M243.7 420s.2 2.4.5 7c.3 4.5.9 11.2 1.6 19.7.7 8.5 1.6 18.7 2.6 30.5 1.1 11.8 2.3 25.1 3.6 39.6 2.6 29 5.9 62.9 9.6 99.1.2 2.3.5 4.5.7 6.8.3 2.3.5 4.5 1.1 6.6s1.5 4 2.9 5.7c.7.8 1.4 1.6 2.3 2.3l.2.1.1.1.4.3.7.5c.5.3.9.6 1.4.9 3.8 2.3 8.2 3.9 12.7 5.2s9.1 2.2 13.8 2.9c9.4 1.4 19 1.9 28.6 2.2l14.5.3c4.8 0 9.7 0 14.5-.1h21.8c2.4 0 4.8-.1 7.2-.2 9.6-.4 19.2-1.3 28.5-2.8 4.7-.8 9.3-1.8 13.7-3.3 1.1-.4 2.2-.7 3.2-1.2l1.6-.7 1.5-.8.7-.4.7-.4.7-.5.7-.5c.9-.6 1.7-1.4 2.6-2.1 1.6-1.5 2.9-3.3 4-5.2s1.9-4 2.7-6.2l.3-.8v-.1l.1-.2.1-.4c.1-.6.3-1.1.4-1.7.2-1.1.4-2.1.5-3.3.3-2.3.6-4.5.8-6.8 1-9 1.8-17.9 2.6-26.7.7-8.7 1.5-17.3 2.2-25.6 1.4-16.6 2.6-32.4 4-46.9 1.3-14.5 2.6-27.8 3.6-39.6 1.1-11.8 2.1-22.1 2.8-30.5 1.6-16.9 2.5-26.6 2.5-26.6s-.7 9.7-2 26.6c-.6 8.5-1.4 18.8-2.3 30.6-.9 11.8-1.9 25.1-3.1 39.6s-2.2 30.3-3.4 46.9c-1.2 16.7-2.4 34.2-4.4 52.4-.2 2.3-.5 4.6-.8 6.8l-.6 3.6c-.1.6-.3 1.1-.4 1.7l-.1.4-.1.2c0 .1 0 0-.1.3l-.3.8c-.8 2.2-1.7 4.4-2.9 6.6-1.2 2.1-2.7 4.1-4.5 5.9-.9.8-1.8 1.6-2.9 2.4l-.8.5-.7.5-.8.5-.8.4-1.6.9-1.7.7c-1.1.5-2.3.9-3.4 1.3-4.6 1.6-9.3 2.6-14.1 3.4-9.5 1.6-19.2 2.5-28.9 3-2.4.1-4.9.2-7.3.3-2.5.1-4.9 0-7.3.1-4.9 0-9.7 0-14.6.1h-14.6l-14.6-.3c-9.7-.3-19.4-.9-28.9-2.3-4.8-.7-9.5-1.7-14.1-3-4.6-1.4-9.2-3-13.4-5.6-.5-.3-1.1-.7-1.6-1l-.7-.5-.3-.3-.2-.2-.2-.2c-1-.8-1.8-1.7-2.6-2.7-1.6-2-2.7-4.3-3.4-6.7-.7-2.4-.9-4.8-1.2-7-.2-2.3-.5-4.6-.7-6.8-1.8-18.1-3.3-35.7-4.7-52.3s-2.7-32.4-3.9-46.9-2.2-27.8-3-39.6c-.8-11.8-1.5-22.1-2.1-30.6s-.9-15.1-1.2-19.7c.1-4.6 0-7 0-7z"/><path class="st4" d="M430.9 636.8c5.1-4.1 8.3-17.3 8.7-23.6.6-10.8 1.1-21.6 1.7-32.3.1-2.3.2-4.8-.8-6.8-1.8-3.7-6.4-4.9-10.4-5.7-9-1.7-18.1-3-27.3-4-8.1-.8-15.3 1.9-23.1 4.5-2.4.8-5 1.9-6.4 4-1 1.5-1.3 3.5-1.5 5.3-1.3 10-2.7 20.1-2.6 30.2 0 5.9.6 12.1 4.1 16.7 4.5 6 12.5 7.9 19.9 9.4 9.7 2 19.3 3.9 29 5.9 1.9.4 4 .8 5.7-.1 1.3-.7 2.2-2.1 3-3.5z"/><path d="M398.3 566.5s.1.3.2.8c.2.5.4 1.2.6 2.2.3.9.5 2.1.8 3.4.3 1.3.5 2.9.7 4.5.4 3.3.6 7.2.8 11.4.1 2.1.2 4.2.3 6.4.1 2.2.3 4.3.9 6.3.3 1 .8 1.8 1.4 2.5s1.5 1.1 2.4 1.5c.9.3 2 .6 3 .9l3 .9c4 1.1 7.7 2 11 2.8 3.2.7 5.9 1.3 7.8 1.7s3 .6 3 .6-.3 0-.8-.1c-.5 0-1.3-.1-2.3-.2-1.9-.2-4.7-.5-8-1s-7.1-1.2-11.2-2.2c-1-.3-2-.5-3.1-.8-1-.3-2.1-.5-3.2-.9s-2.2-1-3.2-1.9c-.9-.9-1.5-2.1-1.9-3.2-.8-2.3-.8-4.6-1-6.8-.1-2.2-.1-4.4-.2-6.4 0-4.2 0-8-.1-11.3-.1-1.7-.2-3.2-.3-4.5-.1-1.3-.3-2.5-.4-3.5s-.3-1.7-.4-2.2c.2-.6.2-.9.2-.9z"/><path d="M402.3 604.8s.1 0 .3.2c.1.2.1.7-.1 1.1-.1.2-.3.4-.5.7l-.6.6c-.4.4-1 .9-1.5 1.4-1.1 1-2.5 2.2-3.9 3.5-.7.6-1.5 1.3-2.3 1.9-.8.6-1.6 1.3-2.4 1.9l-2.4 1.8c-.8.6-1.6 1.2-2.4 1.7-1.5 1.1-3 2.1-4.3 3-2.6 1.7-4.4 2.7-4.4 2.7s1.4-1.5 3.7-3.6c1.1-1 2.5-2.2 3.9-3.5.7-.6 1.5-1.3 2.3-1.9.8-.6 1.6-1.3 2.4-1.9l2.4-1.8c.8-.6 1.6-1.2 2.4-1.7 1.5-1.1 3-2.1 4.3-3 .6-.4 1.2-.8 1.8-1.1.3-.2.5-.3.7-.5.2-.1.4-.3.5-.4.3-.3.4-.6.3-.8s-.2-.3-.2-.3z"/><path class="st4" d="M281.4 570c-1.9 2.9-2.6 7.1-3.3 10.1-1.7 7.5-3.7 14.9-5.9 22.2-.9 2.9-1.9 5.8-2 8.8-.2 2.9.4 5.5 1.1 8.1 2.3 8.8 6.3 17.4 13.4 19.7 2.4.8 5 .8 7.5.9 11.7.8 22.6 5.6 34.3 6.4 2.7.2 5.5.1 8.2-1.5 4.8-2.9 7.4-9.8 9.1-16.1 2.5-9.5 4-19.2 7.5-28.4 1.2-3 2.6-6.4 1.9-9.3-.7-3.1-13.5-11.1-17.4-14-3.3-2.4-8.2-3.1-12-4-6.3-1.4-12.6-2.4-19-3.3-5.6-.8-11.8-2.5-17.4-2.7-2.9-.2-4.7 1.1-6 3.1z"/><path d="M280.6 570.6s.8.9 2.3 2.6c1.4 1.7 3.5 4.1 5.9 7s5.2 6.4 8.7 9.4c1.8 1.5 3.7 2.8 5.9 3.7 2.2.9 4.6 1.3 7.1 1.4 2.5.2 5 .1 7.5.1 2.5-.1 4.9 0 7.3-.1 4.7 0 9.2 0 12.9-.2 3.8-.2 6.9-.7 9-1.2 2.2-.5 3.4-.8 3.4-.8s-.3.1-.8.3c-.6.2-1.4.5-2.4.9-2.1.7-5.2 1.5-9 1.9-3.8.5-8.3.6-13 .8-2.4.1-4.8.2-7.3.2-2.5.1-5 .1-7.6 0-2.6-.2-5.2-.6-7.7-1.6-2.4-1-4.5-2.5-6.4-4.1-1.8-1.6-3.3-3.4-4.7-5.1-1.4-1.7-2.6-3.4-3.7-4.9-2.2-3.1-4-5.7-5.3-7.5-1.3-1.7-2.1-2.8-2.1-2.8zm20.5 23.8s-.2.6-.6 1.7c-.4 1.1-.9 2.6-1.6 4.5-1.4 3.7-3.2 8.6-5 13.5s-3.6 9.8-5 13.5c-.7 1.8-1.3 3.4-1.7 4.5-.4 1.1-.7 1.7-.7 1.7s.4-2.6 1.3-6.5c.4-1.9 1-4.2 1.7-6.5.4-1.2.7-2.4 1.2-3.6.4-1.2.9-2.5 1.3-3.7.5-1.2 1-2.5 1.4-3.7.5-1.2 1-2.4 1.5-3.5 1-2.3 2-4.3 2.9-6.1 1.9-3.6 3.3-5.8 3.3-5.8z"/><path class="st4" d="M404.7 509.8c.4.4.8.7 1.2 1.2.9 1.2 1.5 2.6 2.1 4 4.4 11.2 4.7 19.8 6.2 31.5.3 2.7.6 5.5-.3 8-1.4 4-5.4 6.4-8.4 9.4-4.2 4.1-6.6 9.6-9.8 14.5-3.2 4.9-7.7 9.6-13.5 10.3-2.3.3-4.7-.1-7-.4-5.1-.8-10.3-1.6-15.4-2.4-5.9-.9-12.1-2-16.9-5.5-7.1-5.3-9.5-14.7-11.3-23.3-1.5-6.9-3-14.4-.1-20.8 1.3-2.9 3.4-5.4 5.4-7.9 3.8-4.5 7.6-8.9 11.3-13.4 12-14.2 35.4-13.4 51.3-7.7 1.8.5 3.7 1.2 5.2 2.5z"/><path d="M363.5 510.3s1.8 3.4 4.4 8.7c1.3 2.6 2.7 5.7 4.2 9 .7 1.7 1.5 3.4 2.3 5.1.8 1.7 1.5 3.5 2.3 5.3.8 1.7 1.7 3.3 2.9 4.5 1.2 1.1 2.9 1.9 4.5 2.4 1.7.5 3.4.8 5 1.2s3.2.7 4.6 1.1c5.7 1.3 9.4 2.4 9.4 2.4s-3.9-.4-9.6-1.3c-1.4-.2-3-.5-4.6-.7-1.6-.3-3.4-.5-5.2-1-1.8-.5-3.8-1.2-5.4-2.6-1.6-1.4-2.6-3.3-3.4-5.1s-1.5-3.6-2.3-5.3c-.8-1.8-1.4-3.5-2.1-5.2-1.4-3.4-2.6-6.5-3.7-9.2-2.1-5.6-3.3-9.3-3.3-9.3z"/><path d="M378.9 544.3s-1.3 2.1-3.5 5.1c-1.1 1.5-2.4 3.2-3.8 5-.7.9-1.5 1.8-2.3 2.7s-1.6 1.9-2.4 2.8c-.8.9-1.7 1.8-2.5 2.7s-1.7 1.7-2.4 2.6c-1.6 1.7-3.1 3.2-4.5 4.4-2.7 2.5-4.6 4.1-4.6 4.1s1.5-2 3.8-4.8c1.2-1.4 2.5-3.1 4-4.8.8-.9 1.5-1.8 2.3-2.7s1.6-1.8 2.4-2.8l2.4-2.7c.8-.9 1.6-1.8 2.4-2.6 1.5-1.7 3-3.3 4.3-4.6 2.6-2.7 4.4-4.4 4.4-4.4z"/><path class="st4" d="M256.3 512.5c-1.5 4.6-.1 9.7 1.3 14.3 3.6 11.8 7.7 24.5 17.6 31.9 7.1 5.3 16.1 7.1 24.8 8.7 2.6.5 5.4 1 7.8-.1 2.3-1 3.8-3.2 5.2-5.3 4.2-6.4 8.4-12.7 12.5-19.1 3.3-5 6.7-10.4 6.4-16.4-.2-4.3-2.3-8.4-4.3-12.2-3.1-5.9-6.3-11.7-9.4-17.6-.9-1.7-1.8-3.4-3.3-4.7-1.7-1.5-4-2.3-6.3-2.9-9.4-2.6-22.5-6.9-31.1-.6-6.7 5.1-18.6 16.1-21.2 24z"/><path d="M264 516s.1.2.4.6c.3.4.7.9 1.4 1.5s1.6 1.2 2.7 1.7 2.4 1.1 3.8 1.7c1.4.6 3 1.3 4.5 2.4 1.5 1.1 2.9 2.3 4.4 3.4 1.5 1.1 3.1 2 4.8 2 1.8.1 3.5-.7 5-1.8 1.5-1.2 2.8-2.7 4-4.3s2.3-3.3 3.4-4.8c2.2-3.1 4.3-6.1 6.1-8.5 1.8-2.5 3.4-4.5 4.5-5.9s1.7-2.2 1.7-2.2-.5.9-1.4 2.4-2.2 3.8-3.8 6.4c-1.6 2.6-3.5 5.6-5.6 8.9-1.1 1.6-2.1 3.3-3.3 5-1.2 1.7-2.6 3.3-4.3 4.7-.9.7-1.8 1.3-2.9 1.7l-.8.3-.8.2c-.6.1-1.2.1-1.7.1-2.4-.1-4.3-1.3-5.8-2.6-1.6-1.2-2.8-2.6-4.2-3.6-1.3-1.1-2.7-1.9-4.1-2.6-1.4-.7-2.6-1.4-3.7-2.1-1.1-.7-1.9-1.4-2.6-2.1-.6-.7-1-1.3-1.2-1.7-.4-.6-.5-.8-.5-.8zm23.4 16.5s.4.3 1.2.7c.4.2.8.6 1.3 1 .2.2.5.4.8.6l.8.8c.5.5 1.1 1.2 1.6 1.9s1.1 1.4 1.6 2.2 1 1.6 1.5 2.5.9 1.7 1.4 2.6c.9 1.8 1.8 3.5 2.6 5.1.5.8.8 1.6 1.3 2.3.4.7.8 1.4 1.3 2l.6.9c.2.3.4.5.6.7.4.5.7.9 1 1.2.6.6.9 1 .9 1s-.4-.3-1.2-.7c-.4-.2-.8-.6-1.3-1-.2-.2-.5-.4-.8-.6l-.8-.8c-.5-.5-1.1-1.2-1.6-1.9s-1.1-1.4-1.6-2.2-1-1.6-1.5-2.5-.9-1.7-1.4-2.6c-.9-1.8-1.8-3.5-2.6-5.1-.5-.8-.8-1.6-1.3-2.3-.4-.7-.8-1.4-1.3-2l-.6-.9c-.2-.3-.4-.5-.6-.7-.4-.5-.7-.9-1-1.2-.6-.6-.9-1-.9-1zm-42.2-100.2h9.3c3 0 6.6-.1 10.7-.3 4.1-.2 8.8-.5 13.8-.8 5.1-.4 10.6-.8 16.4-1.3s11.9-1 18.3-1.4c3.2-.2 6.4-.4 9.7-.6 3.3-.2 6.6-.3 9.9-.4s6.7-.2 10.1-.3c3.4-.1 6.8-.1 10.2-.2 6.8-.1 13.6 0 20.3.1 6.7.1 13.3.3 19.6.6 6.4.2 12.5.6 18.3 1s11.3.8 16.4 1.3c5.1.4 9.7.9 13.8 1.4 4.1.5 7.7.9 10.6 1.3s5.3.7 6.8.9l2.4.3s-3.4-.3-9.3-.7c-3-.2-6.6-.4-10.7-.7-4.1-.2-8.8-.5-13.8-.8-2.5-.1-5.2-.3-7.9-.4-2.7-.1-5.6-.2-8.5-.4-5.8-.2-12-.4-18.3-.6s-12.9-.2-19.6-.3c-6.7-.1-13.4-.1-20.2 0-3.4 0-6.8.1-10.1.1-3.4.1-6.7.1-10.1.2l-9.9.3c-3.3.1-6.5.3-9.7.4-12.7.6-24.5 1.4-34.7 1.7-5.1.2-9.8.2-13.9.2s-7.7-.1-10.7-.3c-3-.1-5.3-.3-6.9-.4-1.4.2-2.3.1-2.3.1z"/><radialGradient id="SVGID_3_" cx="384.297" cy="261.622" r="58.97" gradientTransform="matrix(1 0 0 -1 0 707)" gradientUnits="userSpaceOnUse"><stop offset="0" stop-color="#7ac000"/><stop offset=".998" stop-color="#2c9400"/></radialGradient><path class="st6" d="M317.4 483c19.5 12 40.6 19.5 61 21.6 4.2.5 22.6-3 27.3-5.3 11-5.2 18.6-11.4 26-21.2 9.8-13.2 15-23.1 13.4-42.2-.7-6.6-.3-18.4-1.3-25.7"/><path class="st4" d="M444.8 407.2c-16 7.4-16 5.9-32 13.5-15.4 7.3-30.8 14.8-44.3 24.9-13.4 10-25.1 22.5-40.5 29.1-3.4 1.4-7.1 2.7-9.6 5.3 19.5 12 40.6 19.5 61 21.6 4.2.5 22.6-3 27.3-5.3 11-5.2 18.6-11.4 26-21.2 9.8-13.2 15-23.1 13.4-42.2-.7-6.6-.4-18.4-1.3-25.7z"/><path class="st5" d="M438.6 409.5c.4 1.6.6 2.8 1 4.4.8 3.2.7 6.4.6 9.5-.4 16.8-2.7 31.2-11 43.9-5.4 7.5-12.6 13.1-19.7 18.7-3.9 3-7.9 6.1-12.6 7.7-7 2.4-15.3 1.5-23.3 0-13.8-2.4-28-5.9-40.8-15.2-1.6-1.1-2.1-2.5-3.1-4.2"/><path class="st5" d="M373.6 442c.5 1.5 2 2.5 3.6 2.9s3.2.1 4.7-.3c2.5-.7 5.1-2 6.7-4 1.6-2.1 2.2-5.2.8-7.4"/><path d="M382.7 445c.6 2 1.2 4.1 1.8 6.1l1.7 6.1.8 3.1c.3 1 .6 2.1.8 3.1l1.5 6.2c.5 2.1 1 4.1 1.4 6.2.2 1 .4 2.1.6 3.1.2 1.1.4 2.1.5 3.2s.1 2.2 0 3.3c0 1.1-.3 2.2-.7 3.2-.4 1-.9 2-1.6 2.9s-1.6 1.6-2.5 2.2c-.2.1-.3.2-.4.2s-.2.1-.3.1c-.1.1-.3.1-.4.2-.1 0-.3.1-.4.1h.1c-1.4.5-2.9.4-4.3.3s-2.8-.4-4.1-.7c-2.7-.6-5.4-1.2-8-2.5-.6-.3-1.2-.7-1.8-1.1-.6-.4-1.1-.9-1.6-1.4-1-1-1.8-2.2-2.4-3.5s-.9-2.8-.8-4.2c.1-1.4.4-2.8.8-4.1l.3-1 .1-.2c0-.1.1-.2.1-.3l.2-.5.7-1.9 1.4-3.9 1.4-3.9c.5-1.3.9-2.6 1.5-3.9.7-1.2 1.3-2.4 1.9-3.7l1.7-3.7c.6-1.2 1.2-2.5 1.6-3.8.5-1.3.9-2.6 1.2-3.9-.2 1.4-.6 2.7-1 4s-1 2.6-1.5 3.8l-1.6 3.8c-.3.6-.5 1.3-.8 1.9l-.9 1.8c-.6 1.2-1 2.5-1.4 3.8l-1.4 3.9-1.4 3.9-.7 1.9-.2.5c0 .1-.1.2-.1.2l-.1.2-.3 1c-.4 1.3-.7 2.6-.8 3.9 0 1.3.2 2.6.8 3.8.5 1.2 1.3 2.3 2.3 3.2.9.9 2 1.7 3.2 2.3 2.4 1.2 5 1.9 7.7 2.4 1.3.3 2.7.6 4 .7s2.7.2 3.9-.2h.1c.1 0 .2 0 .3-.1.1 0 .2-.1.3-.1.3-.1.5-.2.6-.3 1.8-1 3.1-2.6 3.8-4.6.3-1 .6-1.9.6-3 .1-1 .1-2.1 0-3.1s-.3-2.1-.4-3.1l-.6-3.1c-.4-2.1-.9-4.2-1.3-6.2l-1.4-6.2c-.2-1-.5-2-.7-3.1l-.8-3.1-1.5-6.2-1.5-6zm-11.6 1.7l1.5-2.3.2.1-2.1 3.6-2.1 3.6c-1.4 2.4-2.7 4.8-3.9 7.2-.6 1.2-1.2 2.5-1.7 3.7l-1.5 3.8-.4 1-.2.5-.1.5-.6 2-1.1 4c-.4 1.3-.8 2.7-1.5 4l-.6.9-.3.4c-.1.1-.2.3-.3.4-.5.6-1 1.1-1.6 1.5-1.2.8-2.6 1.3-4 1.6-1.4.2-2.9 0-4.2-.3-1.4-.3-2.7-.9-3.8-1.7-1.2-.8-2.2-1.8-3.1-2.8s-1.7-2.2-2.5-3.3c-.7-1.2-1.4-2.4-2-3.6.8 1.1 1.5 2.3 2.3 3.4s1.6 2.2 2.6 3.1c1 1 2 1.9 3.1 2.6s2.4 1.2 3.7 1.5c1.3.3 2.7.4 3.9.2 1.3-.2 2.6-.7 3.6-1.5.5-.4 1-.8 1.4-1.3.1-.1.2-.2.3-.4l.3-.4c.2-.3.3-.6.5-.8.6-1.2 1-2.4 1.4-3.8.3-1.4.8-2.6 1.1-4l.6-2c.1-.2.1-.3.2-.5l.2-.5.4-1 1.5-3.8c.6-1.3 1.2-2.5 1.8-3.8 1.3-2.4 2.7-4.8 4.2-7.1 1.4-2.3 2.9-4.7 4.5-6.9l.2.1-1.9 2.1zm18.2-8.4l9 7.4 4.5 3.7 4.4 3.8c1.5 1.3 2.9 2.5 4.3 3.9s2.7 2.8 3.9 4.3c2.4 3.1 4.4 6.6 5.3 10.4.1.7.2 1.5 0 2.3-.1.4-.2.8-.4 1.1-.2.4-.4.7-.7 1-.5.6-1.1 1-1.6 1.4l-1.6 1.4c-1.1.9-2.1 1.8-3.2 2.7-1.1.9-2.2 1.8-3.5 2.5s-2.7 1.2-4.2 1.3c-1.5.1-3-.5-4.2-1.3-.6-.4-1.2-.9-1.6-1.5-.5-.6-.9-1.2-1.2-1.8-.7-1.2-1.3-2.6-1.8-3.9l-6.1-15.7c-1-2.6-2-5.3-3-7.9-.5-1.3-.7-2.7-1.1-4-.4-1.4-.8-2.7-.8-4.1l-.1-1.1.1 1.1c0 1.4.6 2.7 1 4 .5 1.3.9 2.6 1.4 4l3.1 7.8 6.4 15.6c.5 1.3 1 2.6 1.7 3.8.4.6.7 1.2 1.2 1.7.4.5.9 1 1.5 1.3 1.1.8 2.4 1.2 3.7 1.1 1.3 0 2.6-.5 3.8-1.2 1.2-.7 2.3-1.5 3.3-2.4l3.2-2.7 1.6-1.4c.5-.5 1.1-.9 1.5-1.3.2-.2.4-.5.6-.7.2-.3.3-.6.3-.9.1-.6.1-1.3 0-1.9-.4-1.8-1.1-3.6-2-5.3-.9-1.7-1.9-3.3-3.1-4.8s-2.5-2.9-3.8-4.3-2.8-2.7-4.2-4l-4.3-3.9-4.4-3.8c-3.1-2.5-6-5.1-8.9-7.7zm2.8-6.7s1.6 0 4.4.1c1.4.1 3.1.1 5.1.2s4.2.2 6.6.3c2.4.2 5 .5 7.8.8s5.6.7 8.6 1.2c3 .6 6 1.1 9.2 1.7l1.2.3c.4.1.8.2 1.2.5.4.3.8.7.9 1.1.2.5.2.9.3 1.3.1 1.7-.2 3.4-.9 4.9-1.5 3-4.1 5.3-7 6.8-1.5.8-3.1 1.2-4.7 1.2-1.7 0-3.2-.5-4.6-1.1-2.8-1.2-5.4-2.5-7.9-3.7s-4.9-2.3-7-3.3c-4.3-2.1-7.9-3.9-10.4-5.2-2.5-1.3-4-2-4-2s1.5.7 4 1.8c2.6 1.2 6.2 2.8 10.6 4.9 4.4 2 9.5 4.3 15 6.7 1.4.6 2.8 1 4.3 1s3-.5 4.3-1.2c2.7-1.4 5.1-3.7 6.5-6.4.6-1.4 1-2.9.9-4.4-.1-.7-.3-1.4-.8-1.7-.2-.2-.6-.3-1-.4s-.7-.2-1.1-.3c-3.1-.6-6.2-1.2-9.1-1.8-5.9-1-11.5-1.7-16.3-2.3-4.8-.4-8.8-.7-11.6-.9-2.9-.1-4.5-.1-4.5-.1zm5.1-2.8s.2-.1.3-.2c.2-.1.3-.1.5-.1s.4.1.5.3c.1.1.2.3.2.3s-.1.2-.3.3c-.2.1-.4.2-.6.1-.2 0-.4-.1-.5-.3-.1-.2-.1-.4-.1-.4z"/><path d="M435.1 413.4l.7 2.3c.2.9.3 1.8.2 2.7 0 .9-.4 1.8-.8 2.7-.2.4-.5.8-.9 1.1l-.5.5c-.2.2-.4.3-.6.4-.8.6-1.6 1-2.5 1.2-.9.3-1.8.4-2.7.5l-2.7.5c-1.8.3-3.5.6-5.3.9l-5.3.8-2.7.4c-.9.1-1.8.3-2.7.4l-2.7.3c-.9.1-1.8.2-2.7.4l-2.7.4c-.9.1-1.8.1-2.7.1-.5 0-1.1-.2-1.6-.4.5.2 1 .4 1.6.4.9 0 1.8-.2 2.6-.4l2.6-.6c.9-.2 1.8-.4 2.6-.5l2.6-.5 2.6-.5 2.7-.4 5.3-.9 5.3-.9 2.6-.4c.9-.2 1.8-.2 2.6-.5.8-.2 1.6-.6 2.3-1 .2-.1.3-.2.5-.4.2-.1.4-.3.5-.4.3-.3.6-.6.8-1 .5-.7.8-1.5.9-2.4s.1-1.8 0-2.6l.1-2.2z"/></svg>