<?xml version="1.0" encoding="utf-8"?>
<!-- Generator: Adobe Illustrator 19.2.0, SVG Export Plug-In . SVG Version: 6.00 Build 0)  -->
<svg version="1.1" id="Layer_1" xmlns="http://www.w3.org/2000/svg" xmlns:xlink="http://www.w3.org/1999/xlink" x="0px" y="0px"
	 viewBox="0 0 460 306" style="enable-background:new 0 0 460 306;" xml:space="preserve">
<style type="text/css">
	.st0{fill:none;stroke:#000000;stroke-width:5;stroke-miterlimit:10;}
	.st1{opacity:0.9;fill:url(#SVGID_1_);enable-background:new    ;}
	.st2{fill:none;stroke:#000000;stroke-width:2;stroke-miterlimit:10;}
	.st3{fill:url(#SVGID_2_);}
	.st4{fill:none;stroke:#000000;stroke-miterlimit:10;}
</style>
<path class="st0" d="M6588.6-964.6c0.3,38.5,0.2,82.4-5.7,120.5c-2.3,14.7-3.7,31.7-10.6,44.9c-9.4,17.9-18.6,35.9-34,49.5
	c-5.5,4.9-11.5,9.2-17.9,12.8c-4.2,2.3-15.3,5.1-15.9,10.8c-0.4,3.6,3.8,5.7,6.9,7.6c6.9,4.3,10.9,12.3,11.6,20.4
	c1.5,15.4-5.6,30.7-18.9,38.8c-0.8,0.5-1.6,1-1.9,1.8c-0.7,2.1,2.1,3.4,4.2,3.8c12.1,2.1,24,5,35.7,8.7c7.7,2.4,24.3,10.6,12,18.5
	c-7.7,4.9-17,6.2-26,7.3c-24.7,3.1-49.7,6.2-74.5,3.9c-5.6-0.5-11.2-1.4-16.8-2.2l-22.5-3.3c-5.3-0.8-11.8-2.7-12.7-7.9
	c-1.7-10.2,16.6-15.1,23.6-17.2c4.9-1.5,36.5-4.6,35.6-9.3c-0.5-2.4-2.8-3.9-4.8-5.4c-8.9-6.4-15-16.4-16.6-27.2
	c-1.6-10.8,1.3-22.2,7.9-30.9c2.2-2.9,4.9-6,4.4-9.6c-0.2-1.5-1-2.9-2-4.1c-5.1-6.7-15.9-9.5-22.8-14.7c-7.9-6-15.2-12.8-21.6-20.4
	c-12.5-14.5-22.1-31.5-27.6-49.9c-5.2-17.2-6.9-35.3-8.2-53.2c-2.3-31-3.6-62-3.8-93.1c20.2-2.4,42-1.8,62.4-1.4
	C6480.9-964,6588.6-966.7,6588.6-964.6L6588.6-964.6z"/>
<path d="M6462-649.7v1.9c0,0.6,0.1,1.3,0.6,1.9c0.4,0.6,1.2,0.8,2.2,0.8c2.1-0.1,4.5-0.2,7.1-0.2c1.3,0,2.7-0.1,4-0.1
	c1.4-0.1,2.8-0.1,4.1-0.2c1.4-0.1,2.8-0.1,4.1-0.2c1.4-0.1,2.7-0.1,4-0.2c2.6-0.1,5-0.2,7.1-0.3c2-0.1,3.7-0.6,4.6-1.3
	c0.4-0.4,0.7-0.8,0.8-1.1c0.1-0.3,0.2-0.5,0.2-0.5v0.5c-0.1,0.3-0.2,0.8-0.6,1.3s-1.1,1-1.9,1.4c-0.8,0.4-1.8,0.7-2.8,0.8
	c-2.1,0.4-4.5,0.7-7.1,0.9c-1.3,0.1-2.7,0.3-4,0.4c-1.4,0.1-2.8,0.2-4.2,0.2c-1.4,0-2.8,0.1-4.2,0.1h-4.1c-2.6-0.1-5.1-0.2-7.2-0.4
	c-0.5-0.1-1.1-0.1-1.6-0.4s-0.9-0.7-1.1-1.1c-0.4-0.9-0.4-1.7-0.3-2.3c0.1-0.6,0.2-1.1,0.3-1.4C6461.9-649.5,6462-649.7,6462-649.7
	L6462-649.7z M6461.6-734.3c0,0,0.6,0.2,1.6,0.5c0.5,0.2,1.2,0.3,1.9,0.5s1.6,0.4,2.4,0.5c0.9,0.2,1.9,0.3,2.9,0.5
	c1,0.1,2.1,0.2,3.3,0.3c1.1,0.1,2.3,0.1,3.5,0.2h3.6c1.2,0,2.5,0,3.7-0.1c1.2,0,2.4-0.1,3.6-0.1c2.3-0.1,4.5-0.1,6.3-0.3
	s3.2-0.6,4.1-1.2c0.4-0.3,0.8-0.6,1-0.8l0.3-0.3c0,0-0.1,0.1-0.2,0.4c-0.2,0.3-0.4,0.6-0.8,1c-0.8,0.8-2.3,1.6-4.2,2
	c-0.9,0.2-2,0.4-3,0.5c-1.1,0.1-2.2,0.3-3.3,0.4l-3.6,0.3c-1.2,0.1-2.5,0.1-3.7,0.2c-1.3,0-2.5,0-3.7-0.1c-0.6,0-1.2-0.1-1.8-0.1
	c-0.6-0.1-1.2-0.1-1.8-0.2c-1.2-0.1-2.3-0.4-3.4-0.6c-0.5-0.1-1-0.3-1.5-0.4c-0.5-0.2-1-0.3-1.4-0.4c-1.8-0.6-3.2-1.3-4.2-1.8
	C6462.2-734,6461.6-734.3,6461.6-734.3L6461.6-734.3z M6411.5-632.2l0.3,0.3c0.2,0.2,0.5,0.4,1,0.6c0.9,0.5,2.3,1,4.2,1.4
	c1.9,0.4,4.2,0.7,6.8,1.1c2.6,0.4,5.6,0.7,8.9,1.1c3.3,0.3,6.8,0.7,10.6,1c3.7,0.3,7.7,0.5,11.8,0.7c8.2,0.3,17,0.5,25.7,0.6
	c4.4,0.1,8.8,0.1,13.1,0.2c4.3,0,8.5,0.1,12.6,0c4.1-0.1,8-0.4,11.7-0.8c3.7-0.5,7.2-1.1,10.4-1.7c6.4-1.4,11.6-3,15.2-4.3
	c1.8-0.7,3.2-1.2,4.2-1.6l1.5-0.6c0,0-0.5,0.2-1.4,0.7c-0.9,0.4-2.3,1.1-4.1,1.8c-3.5,1.5-8.7,3.5-15.1,5.1
	c-6.4,1.6-14.1,2.9-22.3,3.2c-4.1,0.2-8.4,0.2-12.7,0.2c-4.3,0-8.7-0.1-13.1-0.1c-4.4-0.1-8.8-0.2-13.1-0.3
	c-4.3-0.1-8.6-0.4-12.7-0.6c-4.1-0.3-8.1-0.6-11.8-1c-3.8-0.4-7.3-0.8-10.6-1.3c-1.6-0.3-3.2-0.5-4.7-0.7c-1.5-0.3-2.9-0.5-4.2-0.8
	c-2.6-0.5-4.9-1-6.8-1.5s-3.3-1.1-4.1-1.7c-0.4-0.3-0.7-0.5-0.9-0.7C6411.6-632.1,6411.5-632.2,6411.5-632.2L6411.5-632.2z"/>
<linearGradient id="SVGID_1_" gradientUnits="userSpaceOnUse" x1="6378.7998" y1="1257.7887" x2="6584.7002" y2="1257.7887" gradientTransform="matrix(1 0 0 -1 0 415)">
	<stop  offset="1.800000e-02" style="stop-color:#801FE3"/>
	<stop  offset="1" style="stop-color:#B7A7FF"/>
</linearGradient>
<path class="st1" d="M6378.8-936.4c1.4,24.4,2.7,48.8,4.1,73.2c0.4,7.9,0.9,15.9,2.2,23.7c1.8,11.1,5.4,21.8,8.9,32.5
	c3,9.1,6,18.2,11.1,26.3c17.8,28.1,51.5,32.7,81.9,31.3c10.6-0.5,21.3-1.5,31.5-4.7c66.9-21.3,65.2-117,66.1-172.7
	c0-2.6,0.1-5.1,0.1-7.7C6516-932.3,6447.2-930.5,6378.8-936.4L6378.8-936.4z"/>
<path d="M6373.7-956.1c0,0,0.6,8.1,1.5,22.2c0.5,7.1,1,15.6,1.7,25.5c0.6,9.8,1.4,20.9,2.1,33.1c0.4,6.1,0.7,12.4,1.3,18.9
	c0.5,6.5,1.4,13.2,3,19.9c1.6,6.7,3.7,13.5,6,20.4c2.4,6.9,4.5,14,7.5,20.9c0.8,1.7,1.5,3.4,2.4,5.1c0.9,1.6,1.8,3.3,2.8,4.8
	c1.1,1.6,2.2,3.1,3.4,4.7c1.2,1.4,2.5,2.8,3.7,4.3c5.3,5.5,11.7,10,18.8,13.2c7.1,3.3,14.8,5.4,22.6,6.6c7.9,1.3,15.9,1.7,23.9,1.7
	c8-0.1,16.1-0.4,24-1.5c3.9-0.5,7.9-1.2,11.7-2.2c1-0.3,1.9-0.5,2.8-0.8l0.7-0.2h0.1l0.2-0.1l0.4-0.1l1.4-0.5l2.8-1
	c0.5-0.2,0.9-0.3,1.4-0.5l1.3-0.6c7.1-3.1,13.7-7.4,19.4-12.5c5.7-5.1,10.5-11.1,14.4-17.5c4-6.3,7.1-13.1,9.7-19.8
	c2.6-6.8,4.6-13.6,6.3-20.3c3.2-13.5,5-26.5,6.2-38.5c1.1-12.1,1.7-23.2,2-33c0.3-9.9,0.5-18.4,0.7-25.5c0.2-14.2,0.4-22.2,0.4-22.2
	s0,2,0.1,5.8c0,3.8,0.1,9.4,0.2,16.4c0,7.1,0,15.7-0.2,25.5c-0.1,9.9-0.5,21-1.5,33.1c-1,12.1-2.6,25.2-5.7,38.9
	c-1.6,6.8-3.6,13.7-6.1,20.6c-2.5,6.9-5.7,13.8-9.8,20.3c-4,6.5-9,12.7-14.8,18.1c-5.9,5.4-12.7,9.8-20.2,13.1l-1.4,0.6
	c-0.5,0.2-0.9,0.4-1.4,0.5l-2.8,1l-1.4,0.5l-0.4,0.1l-0.2,0.1l-0.2,0.1l-0.7,0.2c-1,0.3-2,0.6-2.9,0.8c-3.9,1-8,1.8-12,2.4
	c-8.1,1.1-16.2,1.5-24.4,1.6c-8.2,0-16.3-0.5-24.4-1.8c-8-1.3-16-3.5-23.3-7c-7.4-3.4-14.1-8.1-19.6-13.9c-1.3-1.5-2.6-3.1-3.9-4.6
	c-1.1-1.6-2.2-3.2-3.3-4.7c-2.2-3.4-3.9-6.8-5.4-10.4c-3-7.1-5.2-14.2-7.5-21.2c-2.2-7-4.3-13.9-5.8-20.7
	c-1.6-6.9-2.4-13.6-2.8-20.2c-0.5-6.6-0.7-12.9-1-18.9c-0.6-12.1-1.1-23.2-1.6-33.1c-0.5-9.9-0.8-18.4-1.2-25.5
	C6374-948.1,6373.7-956.1,6373.7-956.1L6373.7-956.1z"/>
<path d="M6374.1-940.7c0,0,0.8,0,2.4,0.1s3.8,0.2,6.7,0.3c2.9,0.2,6.4,0.3,10.5,0.5c4,0.2,8.6,0.3,13.6,0.5s10.4,0.3,16.1,0.5
	s11.7,0.2,17.9,0.4c6.2,0.1,12.6,0.1,19.2,0.2c6.5,0.1,13.2,0,19.8,0.1c6.6,0,13.3,0,19.8-0.1s13-0.1,19.2-0.2
	c12.5-0.1,24.1-0.2,34-0.3c10-0.1,18.3-0.1,24.1-0.1h9.1c0,0-0.8,0.1-2.4,0.2c-1.6,0.1-3.8,0.2-6.7,0.4c-5.8,0.3-14.1,0.8-24.1,1.3
	s-21.6,0.9-34,1.3c-6.2,0.1-12.7,0.4-19.2,0.4c-6.5,0.1-13.2,0.1-19.8,0.2c-6.6,0-13.3,0-19.8-0.2c-6.5-0.1-13-0.3-19.2-0.4
	c-6.2-0.2-12.3-0.4-18-0.8c-2.9-0.2-5.6-0.3-8.3-0.5c-2.7-0.2-5.3-0.4-7.8-0.5c-2.5-0.2-4.9-0.3-7.1-0.5c-2.3-0.2-4.4-0.4-6.4-0.6
	c-4-0.4-7.6-0.7-10.4-1c-2.9-0.3-5.2-0.6-6.7-0.7C6374.9-940.6,6374.1-940.7,6374.1-940.7L6374.1-940.7z"/>
<path class="st2" d="M119.5,42.3c0.5-0.3,1.1-0.5,1.7-0.6c1.5-0.4,3.2-0.4,4.8-0.4c12.7,0.4,21.2,3.7,33.2,7.2
	c2.7,0.8,5.6,1.7,7.7,3.6c3.3,3.1,3.9,7.9,5.6,12.1c2.3,5.7,6.5,10.4,10,15.6c3.4,5.1,6.1,11.5,4.3,17.5c-0.7,2.4-2,4.5-3.4,6.6
	c-2.9,4.7-5.9,9.3-8.8,13.9c-3.4,5.4-7,10.9-12.4,14.1c-8.1,4.7-18.3,3-27.4,1.2c-7.3-1.4-15.2-3.1-20.3-8.6
	c-2.3-2.5-3.8-5.6-5.4-8.6c-2.7-5.6-5.6-11.1-8.3-16.7c-8.8-17.6,1.9-40,14-53.1C116.2,44.6,117.8,43.1,119.5,42.3L119.5,42.3z"/>
<path d="M102.8,82.5c0,0,1.1-0.1,2.8-0.2s4.3-0.3,7.4-0.4c3.1-0.1,6.7-0.2,10.5-0.3c1.9,0,3.9-0.1,5.9-0.1s4.1,0,6.1-0.1
	c2,0,4-0.3,5.6-1c1.7-0.7,3.1-2,4.2-3.4s2.2-3,3.3-4.4c1.1-1.4,2-2.7,2.9-4c1.9-2.5,3.4-4.5,4.5-5.9s1.8-2.2,1.8-2.2
	s-0.5,0.9-1.4,2.4c-1,1.5-2.3,3.7-3.9,6.4c-0.8,1.3-1.8,2.7-2.6,4.1c-1,1.5-1.9,3.1-3.2,4.6c-1.2,1.5-2.7,3.1-4.8,4.1
	c-2,0.9-4.2,1.1-6.3,1.2h-6.1c-2,0-4-0.1-5.9-0.1c-3.9-0.1-7.4-0.2-10.5-0.3c-3.1-0.1-5.6-0.3-7.4-0.4
	C103.8,82.5,102.8,82.5,102.8,82.5L102.8,82.5z"/>
<path d="M142.3,81.7c0,0,1.5,2.1,3.4,5.6c1,1.7,2.1,3.7,3.2,5.8c0.5,1.1,1.1,2.2,1.7,3.4s1.1,2.3,1.7,3.5c0.5,1.1,1.1,2.4,1.6,3.5
	s1,2.3,1.5,3.4c1,2.2,1.8,4.3,2.5,6.2c1.3,3.6,2.1,6.2,2.1,6.2s-0.4-0.5-0.9-1.6c-0.5-1-1.3-2.5-2.2-4.1c-0.9-1.8-1.9-3.8-2.9-6
	c-0.5-1.1-1.1-2.2-1.6-3.4c-0.5-1.1-1.1-2.3-1.7-3.5c-1.1-2.4-2.2-4.7-3.2-6.9c-1.1-2.2-1.9-4.3-2.7-6.1
	C143.2,84.2,142.3,81.7,142.3,81.7L142.3,81.7z"/>
<path class="st2" d="M112.7,147c-4.6,3.7-6.4,9.7-8.1,15.3c-4.2,14.2-8.3,29.6-3.2,43.6c3.6,10,11.5,17.7,19.2,25
	c2.3,2.2,4.8,4.5,7.9,5c3,0.5,6-0.8,8.7-2c8.4-3.7,16.7-7.3,25.1-11c6.6-2.9,13.5-6.1,17.2-12.2c2.7-4.5,3.2-9.9,3.7-15.1
	c0.7-7.9,1.4-15.9,2.1-23.8c0.2-2.3,0.4-4.6-0.2-6.9c-0.7-2.7-2.6-4.9-4.4-7c-7.7-8.8-18.1-21.7-30.9-21
	C139.6,137.4,120.5,140.7,112.7,147L112.7,147z"/>
<path d="M118.2,155.5v0.9c0,0.6,0.1,1.4,0.4,2.4c0.3,1,0.8,2.2,1.5,3.5s1.7,2.7,2.7,4.2s2.1,3.3,2.9,5.3c0.8,2,1.3,4.2,2.1,6.3
	c0.7,2.1,1.9,4.1,3.6,5.3c1.7,1.3,4,1.7,6.3,1.4c2.3-0.2,4.6-0.9,6.8-1.7c2.2-0.9,4.4-1.8,6.5-2.6c4.3-1.7,8.3-3.3,11.7-4.6
	c3.4-1.3,6.3-2.4,8.3-3.1s3.2-1.1,3.2-1.1s-1.1,0.6-3,1.5s-4.7,2.3-8,3.8c-3.3,1.6-7.3,3.3-11.5,5.2c-2.1,0.9-4.2,1.9-6.5,2.8
	c-2.3,0.9-4.7,1.7-7.3,1.9c-1.3,0.1-2.6,0.1-3.9-0.2l-1-0.3l-0.9-0.4c-0.6-0.3-1.3-0.7-1.7-1c-2.3-1.6-3.4-4.1-4.1-6.3
	c-0.8-2.2-1.2-4.4-1.8-6.4s-1.6-3.7-2.5-5.3s-1.7-3.1-2.4-4.5c-0.6-1.4-1.1-2.7-1.3-3.7c-0.2-1.1-0.2-1.9-0.2-2.5
	C118.2,155.8,118.2,155.5,118.2,155.5L118.2,155.5z M130.9,187.5l0.6,1.5c0.2,0.5,0.4,1.1,0.6,1.8c0.1,0.4,0.2,0.7,0.3,1.1
	c0.1,0.4,0.1,0.8,0.2,1.3c0.2,0.9,0.3,1.9,0.3,2.9c0.1,1,0.1,2.1,0.1,3.3c0,1.1-0.1,2.3-0.2,3.5s-0.2,2.4-0.3,3.5
	c-0.3,2.4-0.5,4.7-0.7,6.9c-0.1,1.1-0.2,2.2-0.2,3.2s-0.1,2,0,2.8v1.3c0,0.4,0.1,0.8,0.1,1.1c0.1,0.7,0.1,1.3,0.2,1.8
	c0.2,1,0.3,1.6,0.3,1.6l-0.6-1.5c-0.2-0.5-0.4-1.1-0.6-1.8c-0.1-0.4-0.2-0.7-0.3-1.1c-0.1-0.4-0.1-0.8-0.2-1.3
	c-0.2-0.9-0.3-1.9-0.3-2.9c-0.1-1-0.1-2.1-0.1-3.3c0-1.1,0.1-2.3,0.2-3.5c0.1-1.2,0.2-2.4,0.3-3.5c0.3-2.4,0.5-4.7,0.7-6.9
	c0.1-1.1,0.2-2.2,0.2-3.2s0.1-2,0-2.8V192c0-0.4-0.1-0.8-0.1-1.1c-0.1-0.7-0.1-1.3-0.2-1.9C130.9,188.1,130.9,187.5,130.9,187.5z"/>
<g>
	
		<radialGradient id="SVGID_2_" cx="324.748" cy="349.7304" r="58.97" gradientTransform="matrix(0.9947 -0.1029 -0.1029 -0.9947 19.7035 464.784)" gradientUnits="userSpaceOnUse">
		<stop  offset="0" style="stop-color:#7AC000"/>
		<stop  offset="0.998" style="stop-color:#2C9400"/>
	</radialGradient>
	<path class="st3" d="M244.1,127.8c20.6,9.9,42.4,15.2,62.9,15.2c4.2,0.1,22.2-5.3,26.6-8.1c10.4-6.3,17.3-13.3,23.7-23.8
		c8.4-14.1,12.5-24.5,9-43.4c-1.4-6.5-2.2-18.3-3.9-25.4"/>
	<path class="st2" d="M362.5,39.8c-15.2,9-15.4,7.5-30.5,16.6c-14.6,8.8-29.2,17.7-41.7,29.1c-12.3,11.2-22.7,24.9-37.4,33
		c-3.3,1.7-6.8,3.3-9.1,6.2c20.5,10,42.3,15.4,62.8,15.5c4.2,0.1,22.2-5.2,26.7-7.9c10.4-6.2,17.4-13.1,23.8-23.7
		c8.4-14.1,12.6-24.5,9.2-43.3C365,58.8,364.2,47,362.5,39.8z"/>
	<path class="st4" d="M356.7,42.7c0.6,1.5,0.9,2.8,1.4,4.3c1.1,3.1,1.4,6.3,1.5,9.4c1.2,16.8,0.4,31.3-6.6,44.7
		c-4.6,8-11.3,14.3-17.7,20.5c-3.6,3.4-7.2,6.9-11.8,8.9c-6.8,3-15,2.9-23.2,2.3c-14-1-28.4-3.1-42.1-11.1c-1.7-0.9-2.3-2.3-3.5-3.9
		"/>
	<path class="st4" d="M295.1,81.4c0.7,1.5,2.2,2.3,3.8,2.5c1.6,0.2,3.2-0.2,4.7-0.8c2.4-0.9,4.8-2.5,6.3-4.7
		c1.4-2.2,1.6-5.4,0.1-7.4"/>
	<path d="M296.7,84.9c0,0-0.4,1.7-1,4.9c-0.7,3.2-1.7,7.5-3,12.9c-0.6,2.6-1.3,5.6-2,8.6c-0.3,1.5-0.7,3.1-1.1,4.7
		c-0.3,1.6-0.7,3.3-0.6,4.9c0,1.6,0.6,3.2,1.7,4.6c1,1.4,2.4,2.5,3.9,3.2c3.1,1.6,6.7,1.7,10.3,2.1c1.8,0.2,3.5,0.1,5.3-0.3l1.3-0.3
		c0.2,0,0.4,0.1,0.6,0s0.5-0.1,0.6-0.2c0.7-0.5,1.3-0.9,1.8-1.7c1-1.4,1.5-3.2,1.6-4.7c0.1-1.7-0.1-3.4-0.5-5s-0.9-3.3-1.3-4.8
		c-0.5-1.5-1-3.2-1.4-4.6c-0.9-3-1.8-5.8-2.6-8.4c-1.7-5.2-3.1-9.5-4.2-12.6s-1.6-4.8-1.6-4.8s0.6,1.7,1.8,4.7
		c1.2,3,2.7,7.3,4.6,12.5c0.8,2.6,1.9,5.4,2.8,8.4s2,6.1,2.9,9.5c0.4,1.6,0.7,3.4,0.6,5.3c-0.1,1.9-0.6,3.7-1.8,5.3
		c-0.5,0.8-1.2,1.4-2.1,2.1c-0.2,0.1-0.4,0.2-0.6,0.4c-0.3,0.2-0.5,0.2-0.7,0.3c-0.5,0.2-0.9,0.3-1.3,0.4c-1.9,0.4-3.8,0.2-5.6,0.1
		c-3.6-0.3-7.4-0.7-10.7-2.5c-1.6-0.8-3.1-2.1-4.2-3.6s-1.7-3.3-1.8-5.1c0-1.8,0.4-3.5,0.7-5.1c0.4-1.6,0.8-3.2,1.2-4.7
		c0.8-3.1,1.5-5.9,2.2-8.6c1.4-5.3,2.5-9.8,3.3-12.9C296.2,86.6,296.7,84.9,296.7,84.9z M294.4,84c0,0-0.5,0.9-1.2,2.5
		c-0.8,1.6-1.9,3.9-3.2,6.7c-1.3,2.8-2.7,6-3.9,9.6c-0.6,1.8-1.1,3.7-1.6,5.6c-0.4,2-0.8,3.9-1.1,5.9c-0.3,2-0.7,4.1-1.8,5.9
		c-0.5,0.9-1.2,1.7-2.1,2.4c-0.9,0.6-1.8,1.1-2.7,1.4c-1.9,0.6-3.9,0.5-5.7,0.1c-1.7-0.4-3.3-1.2-4.6-2.2c-1.3-0.9-2.3-1.9-3.2-2.8
		c-0.8-0.9-1.6-1.8-2.1-2.5c-1.1-1.4-1.7-2.3-1.7-2.3s0.7,0.8,1.9,2.1c1.2,1.4,3,3.2,5.5,4.9c1.2,0.8,2.8,1.6,4.4,1.9
		c1.6,0.3,3.5,0.4,5.2-0.2c0.9-0.2,1.7-0.6,2.4-1.2c0.8-0.6,1.3-1.3,1.8-2.1c0.9-1.7,1.4-3.6,1.7-5.7c0.3-2,0.6-4.1,1.2-6
		c0.5-2,1.1-3.9,1.7-5.7c1.3-3.6,2.8-6.8,4.2-9.6c1.4-2.7,2.7-4.9,3.5-6.5C293.9,84.9,294.4,84,294.4,84L294.4,84z M306.7,82.5
		c0,0,0.5,1.7,1.8,4.5c1.3,2.9,3.4,6.7,6,11.4c2.5,4.7,5.5,10.2,8.6,16c0.8,1.5,1.7,2.9,2.8,4c1.1,1.2,2.6,2,4.2,2s3.2-0.8,4.5-1.7
		c1.4-1.1,2.6-2.3,3.9-3.5c1.2-1.2,2.4-2.6,3.7-3.8c0.7-0.7,1.2-1.2,1.5-1.9c0.2-0.7,0.2-1.5,0-2.3s-0.6-1.5-1-2.3s-0.8-1.5-1.3-2.3
		c-0.9-1.4-1.9-2.7-3-4c-2.2-2.4-4.6-4.6-7-6.5c-2.3-1.9-4.7-3.6-6.9-5.2c-4.3-3.2-7.9-5.9-10.4-7.7c-2.5-1.8-3.9-2.9-3.9-2.9
		s1.5,1,4,2.8c2.5,1.7,6.2,4.3,10.6,7.3c2.1,1.5,4.5,3.2,6.9,5.1s4.9,3.9,7.2,6.4c2.3,2.5,4.2,5.4,5.4,8.9c0.2,0.9,0.4,1.9,0,2.9
		s-1,1.6-1.7,2.3c-1.2,1.2-2.4,2.6-3.7,3.8c-1.2,1.2-2.4,2.6-3.9,3.7c-1.5,1.1-3.2,1.9-5.2,1.9c-1.9,0-3.7-1-4.9-2.3
		c-1.3-1.3-2.1-2.8-2.9-4.3c-3-5.9-5.9-11.4-8.4-16.2s-4.4-8.7-5.7-11.6c-0.6-1.4-1.1-2.6-1.3-3.4C306.8,82.9,306.7,82.5,306.7,82.5
		L306.7,82.5z M311.8,74.6c0,0,1.5,0.5,4.1,1.3c2.7,0.9,6.4,2.1,10.9,3.6s9.8,3.2,15.4,5c1.5,0.5,2.8,0.8,4.3,0.7
		c1.4-0.1,2.8-0.7,4.1-1.4c1.2-0.8,2.4-1.8,3.5-2.9c0.9-1.2,1.8-2.5,2.3-3.9s0.7-3,0.4-4.4c-0.1-0.4-0.2-0.7-0.3-0.9
		c-0.1-0.2-0.4-0.3-0.7-0.4c-0.7-0.1-1.5-0.2-2.2-0.3c-3.1-0.4-6.1-0.6-9.1-0.8c-5.9-0.5-11.4-0.7-16.2-0.8c-4.8,0-8.7-0.1-11.4,0
		s-4.3,0-4.3,0s0.4,0,1.1-0.1s1.8-0.1,3.2-0.2c2.7-0.2,6.7-0.3,11.4-0.4c4.8,0,10.3,0.1,16.2,0.5c2.9,0.2,6,0.5,9.2,0.8
		c0.8,0.1,1.5,0.1,2.4,0.3c0.4,0.1,0.9,0.3,1.2,0.7c0.3,0.4,0.4,0.9,0.5,1.3c0.3,1.7,0.1,3.4-0.4,4.9c-1.2,3.1-3.5,5.6-6.2,7.3
		c-1.3,0.8-2.9,1.5-4.6,1.6c-1.6,0.1-3.2-0.3-4.6-0.8c-2.8-0.9-5.5-1.9-8.1-2.8s-5-1.7-7.2-2.5c-4.4-1.6-8.2-2.9-10.8-3.9
		C313.2,75.1,311.8,74.6,311.8,74.6L311.8,74.6z M316.8,65.8c0,0,0.2,0,0.6,0.2s0.8,0.1,1.6,0.1c0.7-0.1,1.5-0.3,2.4-0.5
		c0.8-0.3,1.9-0.8,2.9-1c2.2-0.8,4.8-1.5,7.6-2.3c2.8-0.8,5.7-1.6,8.7-2.5c1.5-0.4,3-0.8,4.4-1.2c1.5-0.4,2.9-0.7,4.2-1.2
		c1.3-0.4,2.5-1.1,3.4-2c0.9-0.8,1.3-2,1.4-3s-0.2-2.1-0.4-3l-0.6-2.3c-0.2-0.7,0-1.2-0.1-1.6S353,45,353,45s0.2,0.8,0.6,2
		c0.2,0.7,0.5,1.4,0.8,2.3c0.2,0.9,0.5,1.9,0.4,3.2c-0.1,1.2-0.6,2.5-1.6,3.5c-1,1.1-2.2,1.8-3.7,2.3s-2.8,0.8-4.3,1.2
		c-1.5,0.4-2.9,0.8-4.4,1.2c-3,0.8-5.9,1.6-8.7,2.3c-2.8,0.8-5.4,1.4-7.6,2c-1.1,0.3-2.1,0.6-3,0.8c-0.9,0.2-1.8,0.3-2.4,0.4
		c-0.7,0-1.2-0.1-1.6-0.2C316.9,65.9,316.8,65.8,316.8,65.8L316.8,65.8z"/>
</g>
<path class="st0" d="M372.9,9.5c1.1,0.1,1.5,1.4,1.5,2.5c3.2,47.1,3,191.1,1.2,211.7c-2.8,32.7-11.3,53.5-13.2,57.3
	c-3,6-11.4,12.6-19.3,15.8c-2.6,1.1-10.8,4.8-28,5.8c-19.9,1.2-156.5-0.9-173.3-1.1c-18.6-0.1-40.6-10.6-48.2-25.8
	c-4.4-8.8-5.4-18.7-7.5-28.1c-2.9-13-5.3-180.7,0.3-237.7c0.1-0.6,0.7-1,1.3-1C146.8,7.8,371.8,9.4,372.9,9.5L372.9,9.5z"/>
<path d="M97,13.9c0,0-0.2,2.7-0.6,7.8C96,26.8,95.5,34.3,95,43.8s-1.1,21.1-1.5,34.4s-0.8,28.3-0.9,44.6
	c-0.1,16.3-0.1,34.1,0.4,52.8c0.1,4.7,0.3,9.4,0.5,14.2l0.3,7.2c0.1,2.4,0.2,4.9,0.5,7.2c0.6,4.8,1.8,9.5,3.6,14.1
	c1.8,4.5,4.3,8.9,7.4,12.7c1.6,1.9,3.3,3.7,5.3,5.2c1,0.7,2,1.6,2.9,2c1.1,0.5,2.3,0.8,3.5,1.1c4.9,1.2,10.1,1.8,15.3,2.4
	c10.4,1,21,1.5,31.8,1.9c5.4,0.2,10.7,0.3,16.1,0.5s10.8,0.4,16.2,0.5c10.8,0.2,21.7,0,32.6-0.1s21.8-0.2,32.7,0.1
	c10.9,0.3,21.7,0.5,32.4,0.8c5.4,0.1,10.7,0.2,16,0.3c2.7,0,5.3,0.1,7.9,0.1h2c0.7,0,1.3,0,1.9-0.1c1.3-0.1,2.5-0.3,3.8-0.4
	c10.1-1.7,19.2-7.2,26-14.4c1.7-1.8,3.3-3.8,4.7-5.8c0.7-1,1.4-2.1,1.9-3c0.5-1,0.9-2.2,1.2-3.4c1.3-4.7,2.1-9.6,2.7-14.5
	c1.3-9.7,2-19.3,2.7-28.6c1.2-18.7,1.7-36.4,2.1-52.7c0.3-16.3,0.3-31.3,0.1-44.6c-0.2-13.3-0.6-24.9-1-34.4
	c-0.5-9.5-0.9-17-1.1-22.1c-0.3-5.1-0.4-7.8-0.4-7.8s0.2,2.7,0.6,7.8c0.4,5.1,1,12.6,1.6,22.1c1.2,19,2.5,46.3,2.1,79.1
	c-0.2,16.4-0.6,34.1-1.6,52.8c-0.5,9.4-1.2,19-2.4,28.8c-0.7,4.9-1.4,9.9-2.8,14.8c-0.4,1.2-0.8,2.5-1.3,3.7
	c-0.2,0.3-0.3,0.7-0.5,0.9l-0.2,0.4l-0.3,0.5c-0.4,0.5-0.7,1.1-1.1,1.6c-1.5,2.1-3.1,4.2-4.9,6.1c-7.1,7.7-16.7,13.5-27.5,15.3
	c-1.3,0.2-2.7,0.4-4.1,0.5c-0.7,0.1-1.4,0.1-2.1,0.1h-2c-2.6,0-5.3-0.1-8-0.1l-16-0.3c-10.7-0.2-21.5-0.4-32.4-0.7
	c-10.8-0.2-21.7-0.1-32.6,0s-21.8,0.2-32.7,0c-5.4-0.1-10.9-0.3-16.3-0.5l-16.2-0.6c-10.7-0.4-21.4-0.9-31.9-2
	c-5.3-0.6-10.5-1.2-15.7-2.5c-1.3-0.3-2.6-0.7-3.9-1.3c-0.3-0.1-0.7-0.3-1-0.5c-0.2-0.1-0.3-0.2-0.4-0.3c-0.2-0.1-0.3-0.2-0.4-0.3
	c-0.5-0.4-1.1-0.8-1.6-1.2c-2.1-1.7-4-3.5-5.7-5.6c-3.4-4.1-5.9-8.7-7.8-13.4c-1.9-4.8-3.2-9.7-3.7-14.7c-0.3-2.6-0.3-5-0.4-7.4
	c-0.1-2.4-0.2-4.9-0.3-7.3c-0.1-4.8-0.3-9.6-0.4-14.3c-0.3-18.8-0.2-36.5,0.1-52.9c0.3-16.4,0.9-31.4,1.5-44.6
	c0.6-13.3,1.4-24.8,2.1-34.4c0.7-9.5,1.4-17,1.9-22.1C96.7,16.6,97,13.9,97,13.9L97,13.9z"/>
<path d="M368.5,33.2l-3,0.3c-2,0.2-4.9,0.5-8.5,0.8c-3.7,0.3-8.2,0.6-13.3,1.1c-5.1,0.4-10.9,0.8-17.2,1.2
	c-6.3,0.4-13.2,0.8-20.4,1.1c-7.2,0.4-14.9,0.7-22.8,1s-16.1,0.5-24.4,0.7c-8.3,0.1-16.8,0.3-25.2,0.3c-8.4,0-16.9,0-25.2-0.1
	s-16.5-0.2-24.4-0.4c-7.9-0.2-15.6-0.5-22.8-0.7c-7.2-0.3-14.1-0.7-20.4-0.9c-6.3-0.1-12.1-0.1-17.3-0.1c-5.1,0-9.6-0.1-13.3-0.2
	s-6.6-0.3-8.6-0.4c-2-0.2-3-0.2-3-0.2s1.1,0,3,0.1h8.6c3.7,0,8.2-0.2,13.3-0.4c5.1-0.2,10.9-0.5,17.3-0.5s13.2,0.3,20.5,0.4
	c7.2,0.1,14.9,0.2,22.8,0.3c7.9,0.1,16.1,0.1,24.4,0.2h25.2c8.4,0,16.9-0.1,25.2-0.2s16.5-0.3,24.4-0.4c15.8-0.3,30.6-0.7,43.2-1.2
	s23.2-0.8,30.6-1.1c3.7-0.1,6.6-0.3,8.6-0.3C367.4,33.2,368.5,33.2,368.5,33.2L368.5,33.2z"/>
<g>
	<path class="st2" d="M210.2,170.7c5.1,0.1,7.9-4,12-6.9c6-4.3,12.2-8.4,18.5-12.2c3.2-2,7.5-4,9.2-7.6c1-2.1,1.4-4.5,1.7-6.9
		c0.8-5.8,1.7-11.6,2.5-17.4c0.4-2.7,0.8-5.4,0.3-8.1c-0.7-3.6-3.6-6.1-5.8-8.9c-2.6-3.2-5.2-6.4-7.5-9.8
		c-4.7-6.8-9.2-13.8-14.9-19.8c-2.1-2.2-4.6-4.4-8-5c-6.1-1.2-13.3,2.4-19.3,6.4c-8.9,5.9-17.2,13-26.7,17.9
		c-3.2,1.6-6.8,3.3-8.3,6.3c-1.6,3.1,3.5,27.6,4.8,33c1.5,6.4,8.5,12.4,12.9,16.9c6.5,6.7,13.4,14.8,21.4,19.7
		c1.5,0.9,3.2,1.7,4.9,2.2C208.7,170.6,209.4,170.7,210.2,170.7z"/>
	<path d="M213.2,129.4l0.3,1.5c0.1,0.5,0.2,1,0.2,1.7c0.1,0.7,0.2,1.4,0.2,2.2c0.1,1.7,0.1,3.6,0,5.6c-0.1,1-0.1,2.1-0.2,3.2
		s-0.2,2.1-0.3,3.2c-0.3,2.1-0.5,4.3-0.8,6.3c-0.1,1-0.2,2-0.3,2.9c-0.1,0.9-0.2,1.8-0.2,2.6c-0.1,0.8-0.1,1.5-0.1,2.2
		s-0.1,1.2-0.1,1.7c0,1-0.1,1.5-0.1,1.5l-0.3-1.5c-0.1-0.5-0.2-1-0.3-1.7c-0.1-0.7-0.2-1.4-0.2-2.2c-0.1-1.6-0.1-3.6,0-5.6
		c0.1-1,0.1-2.1,0.2-3.2s0.2-2.2,0.3-3.2c0.3-2.1,0.6-4.3,0.8-6.3c0.1-1,0.3-2,0.4-2.9s0.2-1.8,0.3-2.6c0.2-1.6,0.3-2.9,0.3-3.9"/>
	<path d="M170,101.8c0,0,1.2,0.8,3.2,2.3s5,3.6,8.6,6.1s7.7,5.4,12.2,8.4c2.2,1.5,4.6,2.9,7.1,4.1c1.3,0.6,2.5,1,4,1.6
		c1.4,0.6,2.6,1.4,3.9,2s2.5,1.2,3.8,1.4c0.6,0.1,1.3,0.1,1.9,0.1c0.4,0,0.7-0.1,1-0.1s0.7-0.1,1-0.2c2.6-0.5,5.2-1.7,7.6-2.8
		c5-2.2,9.6-4.2,13.6-6c4-1.7,7.3-3.1,9.7-4.1c2.3-1,3.7-1.5,3.7-1.5s-1.3,0.7-3.5,1.8c-2.3,1.1-5.5,2.8-9.4,4.8
		c-3.9,1.9-8.4,4.2-13.3,6.5c-2.4,1.2-5,2.5-8,3.1c-0.4,0.1-0.7,0.1-1.1,0.2c-0.4,0.1-0.8,0.1-1.1,0.1c-0.8,0-1.6,0-2.4-0.1
		c-1.6-0.3-3-0.9-4.3-1.5c-1.3-0.7-2.6-1.4-3.8-2c-1.2-0.6-2.7-1-4-1.7c-2.6-1.3-5-2.8-7.3-4.4c-2.3-1.6-4.3-3.1-6.3-4.6
		s-3.9-2.9-5.6-4.3c-3.4-2.7-6.2-5-8.1-6.7C171.1,102.8,170,101.8,170,101.8L170,101.8z"/>
	<path d="M213.3,130.9c-0.1-1-0.1-1.5-0.1-1.5l0,0"/>
</g>
<g>
	<path class="st2" d="M322.8,140.3c0.6,0.1,1.2,0.2,1.8,0.5c1.5,0.5,2.9,1.6,4.2,2.6c10.3,8,15.5,15.8,23.4,25.9
		c1.8,2.3,3.6,4.7,4.2,7.6c0.9,4.5-1.5,9-2.6,13.4c-1.5,6.2-0.8,12.6-1,19c-0.2,6.3-1.8,13.2-6.8,17.2c-2,1.6-4.4,2.5-6.8,3.5
		c-5.2,2.2-10.5,4.2-15.7,6.4c-6,2.5-12.4,5-18.8,4.3c-9.6-1-17-8.4-23.6-15.4c-5.3-5.6-10.8-11.7-11.8-19.4
		c-0.4-3.4,0.2-6.9,0.6-10.4c1-6.3,2-12.6,3.1-18.9c3.2-20,25.5-32.3,43.5-36C318.6,140.3,320.8,140,322.8,140.3L322.8,140.3z"/>
	<path d="M284.7,163.9c0,0,0.9,0.6,2.5,1.5s3.8,2.4,6.4,4.1c2.6,1.8,5.7,3.9,8.9,6.1c1.6,1.2,3.3,2.2,5,3.5c1.7,1.2,3.4,2.4,5.1,3.6
		c1.7,1.2,3.5,2.2,5.3,2.6c1.8,0.4,3.8,0.2,5.6-0.3c1.8-0.5,3.6-1.2,5.4-1.7c1.7-0.5,3.3-1.1,4.8-1.6c3-1,5.6-1.7,7.3-2.2
		c1.7-0.5,2.8-0.8,2.8-0.8s-1,0.4-2.6,1.1c-1.7,0.7-4.1,1.7-7,3c-1.5,0.6-3.1,1.2-4.7,1.9c-1.7,0.7-3.5,1.4-5.4,1.9
		s-4.1,0.9-6.4,0.5c-2.2-0.5-4.2-1.6-6-2.7l-5.2-3.7c-1.7-1.2-3.3-2.4-4.9-3.6c-3.2-2.4-6.1-4.6-8.6-6.5s-4.6-3.6-6-4.7
		C285.6,164.5,284.7,163.9,284.7,163.9L284.7,163.9z"/>
	<path d="M318.2,186.9c0,0,0,2.7-0.5,6.7c-0.2,2-0.4,4.4-0.8,6.8c-0.2,1.2-0.4,2.5-0.6,3.8s-0.4,2.6-0.7,3.9
		c-0.2,1.3-0.5,2.6-0.8,3.9s-0.6,2.5-0.8,3.8c-0.5,2.4-1.1,4.7-1.6,6.6c-1.1,3.8-1.9,6.4-1.9,6.4s0-0.7,0.2-1.9
		c0.1-1.1,0.4-2.9,0.6-4.8c0.3-2,0.7-4.3,1.2-6.8c0.2-1.2,0.4-2.5,0.7-3.7c0.2-1.3,0.4-2.6,0.7-3.9c0.5-2.6,1-5.2,1.5-7.6
		c0.4-2.5,1-4.8,1.4-6.7C317.4,189.4,318.2,186.9,318.2,186.9L318.2,186.9z"/>
</g>
<g>
	<path d="M273.1,166.8c0,0-1.2,1-3.2,2.7c-2.1,1.7-5,4.1-8.6,6.9c-1.8,1.4-3.7,3-5.9,4.5c-2.1,1.5-4.5,3.1-7.1,4.4
		c-2.6,1.3-5.5,2.4-8.6,2.7c-3.1,0.4-6.3,0.1-9.3-0.5s-6-1.5-8.8-2.4c-2.9-0.9-5.7-1.7-8.4-2.6c-5.4-1.7-10.5-3.3-14.8-5
		s-7.6-3.6-9.9-5c-1.1-0.7-2-1.3-2.6-1.7l-0.9-0.6c0,0,1.3,0.8,3.6,2.1s5.8,2.8,10.1,4.3s9.4,2.8,14.9,4.4c2.7,0.8,5.6,1.6,8.4,2.4
		c2.9,0.8,5.8,1.7,8.7,2.3c2.9,0.6,5.9,0.9,8.7,0.6c2.9-0.3,5.6-1.2,8.1-2.4s4.8-2.6,7-4s4.2-2.9,6-4.2c3.7-2.6,6.9-4.8,9-6.3
		C271.8,167.7,273.1,166.8,273.1,166.8L273.1,166.8z M241.9,187.9c0,0,0.2,0.8,0.6,2.1c0.3,1.3,0.8,3.3,1.3,5.6s1,5,1.4,8l0.6,4.5
		c0.2,1.5,0.3,3.1,0.5,4.7c0.1,1.6,0.2,3.1,0.3,4.7c0.1,1.5,0.1,3.1,0.2,4.6c0.1,3,0.1,5.7,0,8.1c-0.1,2.4-0.2,4.3-0.3,5.7
		c-0.1,1.4-0.2,2.2-0.2,2.2s-0.1-0.8-0.2-2.2s-0.3-3.3-0.5-5.7c-0.2-2.3-0.4-5.1-0.6-8s-0.5-6.1-0.8-9.2c-0.3-3.1-0.6-6.2-0.8-9.2
		c-0.3-2.9-0.6-5.7-0.8-8c-0.2-2.4-0.4-4.3-0.5-5.7C241.9,188.6,241.9,187.9,241.9,187.9L241.9,187.9z"/>
	<path class="st2" d="M273.9,165.4c-1.2,13.5-1.5,27.1-1,40.7c0.1,3.6,0.3,7.3-0.4,10.8c-0.7,3.4-2.2,6.3-3.8,9
		c-5.5,9.4-12.8,18.1-21.7,18.5c-3,0.1-6-0.7-9-1.3c-13.8-2.8-27.9-0.6-41.7-3.4c-3.2-0.6-6.4-1.6-9-4.3c-4.6-4.9-5.5-13.7-5.5-21.6
		c0.1-11.8,1.5-23.5,0.3-35.2c-0.4-3.9-1-8.3,0.7-11.4c1.8-3.3,5.3-3.5,8.4-4.1c5.6-1.1,10.7-4.6,16.2-6.6c9-3.4,18.8-2.8,27.7,1.7
		c11.8,6,24.6,1.5,37,3.6c0.5,0.1,1.1,0.2,1.5,0.7S274.3,165,273.9,165.4L273.9,165.4z"/>
</g>
</svg>
