<?xml version="1.0" encoding="utf-8"?>
<!-- Generator: Adobe Illustrator 19.2.0, SVG Export Plug-In . SVG Version: 6.00 Build 0)  -->
<svg version="1.1" id="Layer_1" xmlns="http://www.w3.org/2000/svg" xmlns:xlink="http://www.w3.org/1999/xlink" x="0px" y="0px"
	 viewBox="0 0 700 700" style="enable-background:new 0 0 700 700;" xml:space="preserve">
<style type="text/css">
	.st0{fill:none;}
	.st1{fill:none;stroke:#000000;stroke-width:5;stroke-miterlimit:10;}
	.st2{opacity:0.9;fill:url(#SVGID_1_);}
	.st3{fill:url(#SVGID_2_);}
	.st4{fill:none;stroke:#000000;stroke-width:2;stroke-miterlimit:10;}
</style>
<rect x="0" y="0" class="st0" width="700" height="700"/>
<path class="st1" d="M6708.6-568.1c0.3,38.5,0.2,82.4-5.7,120.5c-2.3,14.7-3.7,31.7-10.6,44.9c-9.4,17.9-18.6,35.9-34,49.5
	c-5.5,4.9-11.5,9.2-17.9,12.8c-4.2,2.3-15.3,5.1-15.9,10.8c-0.4,3.6,3.8,5.7,6.9,7.6c6.9,4.3,10.9,12.3,11.6,20.4
	c1.5,15.4-5.6,30.7-18.9,38.8c-0.8,0.5-1.6,1-1.9,1.8c-0.7,2.1,2.1,3.4,4.2,3.8c12.1,2.1,24,5,35.7,8.7c7.7,2.4,24.3,10.6,12,18.5
	c-7.7,4.9-17,6.2-26,7.3c-24.7,3.1-49.7,6.2-74.5,3.9c-5.6-0.5-11.2-1.4-16.8-2.2c-7.5-1.1-15-2.2-22.5-3.3
	c-5.3-0.8-11.8-2.7-12.7-7.9c-1.7-10.2,16.6-15.1,23.6-17.2c4.9-1.5,36.5-4.6,35.6-9.3c-0.5-2.4-2.8-3.9-4.8-5.4
	c-8.9-6.4-15-16.4-16.6-27.2c-1.6-10.8,1.3-22.2,7.9-30.9c2.2-2.9,4.9-6,4.4-9.6c-0.2-1.5-1-2.9-2-4.1c-5.1-6.7-15.9-9.5-22.8-14.7
	c-7.9-6-15.2-12.8-21.6-20.4c-12.5-14.5-22.1-31.5-27.6-49.9c-5.2-17.2-6.9-35.3-8.2-53.2c-2.3-31-3.6-62-3.8-93.1
	c20.2-2.4,42-1.8,62.4-1.4C6600.9-567.5,6708.6-570.2,6708.6-568.1z"/>
<g>
	<path d="M6582-253.2c0,0,0,0.2,0,0.5c0,0.3,0,0.8,0,1.4c0,0.6,0.1,1.3,0.6,1.9c0.4,0.6,1.2,0.8,2.2,0.8c2.1-0.1,4.5-0.2,7.1-0.2
		c1.3,0,2.7-0.1,4-0.1c1.4-0.1,2.8-0.1,4.1-0.2c1.4-0.1,2.8-0.1,4.1-0.2c1.4-0.1,2.7-0.1,4-0.2c2.6-0.1,5-0.2,7.1-0.3
		c2-0.1,3.7-0.6,4.6-1.3c0.4-0.4,0.7-0.8,0.8-1.1c0.1-0.3,0.2-0.5,0.2-0.5s0,0.2,0,0.5c-0.1,0.3-0.2,0.8-0.6,1.3
		c-0.4,0.5-1.1,1-1.9,1.4c-0.8,0.4-1.8,0.7-2.8,0.8c-2.1,0.4-4.5,0.7-7.1,0.9c-1.3,0.1-2.7,0.3-4,0.4c-1.4,0.1-2.8,0.2-4.2,0.2
		c-1.4,0-2.8,0.1-4.2,0.1c-1.4,0-2.7,0-4.1,0c-2.6-0.1-5.1-0.2-7.2-0.4c-0.5-0.1-1.1-0.1-1.6-0.4c-0.5-0.3-0.9-0.7-1.1-1.1
		c-0.4-0.9-0.4-1.7-0.3-2.3c0.1-0.6,0.2-1.1,0.3-1.4C6581.9-253,6582-253.2,6582-253.2z"/>
</g>
<g>
	<path d="M6581.6-337.8c0,0,0.6,0.2,1.6,0.5c0.5,0.2,1.2,0.3,1.9,0.5c0.7,0.2,1.6,0.4,2.4,0.5c0.9,0.2,1.9,0.3,2.9,0.5
		c1,0.1,2.1,0.2,3.3,0.3c1.1,0.1,2.3,0.1,3.5,0.2c1.2,0,2.4,0,3.6,0c1.2,0,2.5,0,3.7-0.1c1.2,0,2.4-0.1,3.6-0.1
		c2.3-0.1,4.5-0.1,6.3-0.3c1.8-0.2,3.2-0.6,4.1-1.2c0.4-0.3,0.8-0.6,1-0.8c0.2-0.2,0.3-0.3,0.3-0.3s-0.1,0.1-0.2,0.4
		c-0.2,0.3-0.4,0.6-0.8,1c-0.8,0.8-2.3,1.6-4.2,2c-0.9,0.2-2,0.4-3,0.5c-1.1,0.1-2.2,0.3-3.3,0.4c-1.2,0.1-2.4,0.2-3.6,0.3
		c-1.2,0.1-2.5,0.1-3.7,0.2c-1.3,0-2.5,0-3.7-0.1c-0.6,0-1.2-0.1-1.8-0.1c-0.6-0.1-1.2-0.1-1.8-0.2c-1.2-0.1-2.3-0.4-3.4-0.6
		c-0.5-0.1-1-0.3-1.5-0.4c-0.5-0.2-1-0.3-1.4-0.4c-1.8-0.6-3.2-1.3-4.2-1.8C6582.2-337.5,6581.6-337.8,6581.6-337.8z"/>
</g>
<g>
	<path d="M6531.5-235.7c0,0,0.1,0.1,0.3,0.3c0.2,0.2,0.5,0.4,1,0.6c0.9,0.5,2.3,1,4.2,1.4c1.9,0.4,4.2,0.7,6.8,1.1
		c2.6,0.4,5.6,0.7,8.9,1.1c3.3,0.3,6.8,0.7,10.6,1c3.7,0.3,7.7,0.5,11.8,0.7c8.2,0.3,17,0.5,25.7,0.6c4.4,0.1,8.8,0.1,13.1,0.2
		c4.3,0,8.5,0.1,12.6,0c4.1-0.1,8-0.4,11.7-0.8c3.7-0.5,7.2-1.1,10.4-1.7c6.4-1.4,11.6-3,15.2-4.3c1.8-0.7,3.2-1.2,4.2-1.6
		c1-0.4,1.5-0.6,1.5-0.6s-0.5,0.2-1.4,0.7c-0.9,0.4-2.3,1.1-4.1,1.8c-3.5,1.5-8.7,3.5-15.1,5.1c-6.4,1.6-14.1,2.9-22.3,3.2
		c-4.1,0.2-8.4,0.2-12.7,0.2c-4.3,0-8.7-0.1-13.1-0.1c-4.4-0.1-8.8-0.2-13.1-0.3c-4.3-0.1-8.6-0.4-12.7-0.6c-4.1-0.3-8.1-0.6-11.8-1
		c-3.8-0.4-7.3-0.8-10.6-1.3c-1.6-0.3-3.2-0.5-4.7-0.7c-1.5-0.3-2.9-0.5-4.2-0.8c-2.6-0.5-4.9-1-6.8-1.5c-1.9-0.5-3.3-1.1-4.1-1.7
		c-0.4-0.3-0.7-0.5-0.9-0.7C6531.6-235.6,6531.5-235.7,6531.5-235.7z"/>
</g>
<linearGradient id="SVGID_1_" gradientUnits="userSpaceOnUse" x1="6498.813" y1="-446.2358" x2="6704.6909" y2="-446.2358">
	<stop  offset="1.785714e-02" style="stop-color:#801FE3"/>
	<stop  offset="1" style="stop-color:#B7A7FF"/>
</linearGradient>
<path class="st2" d="M6498.8-539.9c1.4,24.4,2.7,48.8,4.1,73.2c0.4,7.9,0.9,15.9,2.2,23.7c1.8,11.1,5.4,21.8,8.9,32.5
	c3,9.1,6,18.2,11.1,26.3c17.8,28.1,51.5,32.7,81.9,31.3c10.6-0.5,21.3-1.5,31.5-4.7c66.9-21.3,65.2-117,66.1-172.7
	c0-2.6,0.1-5.1,0.1-7.7C6636-535.8,6567.2-534,6498.8-539.9z"/>
<g>
	<path d="M6493.7-559.6c0,0,0.6,8.1,1.5,22.2c0.5,7.1,1,15.6,1.7,25.5c0.6,9.8,1.4,20.9,2.1,33.1c0.4,6.1,0.7,12.4,1.3,18.9
		c0.5,6.5,1.4,13.2,3,19.9c1.6,6.7,3.7,13.5,6,20.4c2.4,6.9,4.5,14,7.5,20.9c0.8,1.7,1.5,3.4,2.4,5.1c0.9,1.6,1.8,3.3,2.8,4.8
		c1.1,1.6,2.2,3.1,3.4,4.7c1.2,1.4,2.5,2.8,3.7,4.3c5.3,5.5,11.7,10,18.8,13.2c7.1,3.3,14.8,5.4,22.6,6.6c7.9,1.3,15.9,1.7,23.9,1.7
		c8-0.1,16.1-0.4,24-1.5c3.9-0.5,7.9-1.2,11.7-2.2c1-0.3,1.9-0.5,2.8-0.8l0.7-0.2c0.1,0,0,0,0.1,0l0.2-0.1l0.4-0.1l1.4-0.5l2.8-1
		c0.5-0.2,0.9-0.3,1.4-0.5l1.3-0.6c7.1-3.1,13.7-7.4,19.4-12.5c5.7-5.1,10.5-11.1,14.4-17.5c4-6.3,7.1-13.1,9.7-19.8
		c2.6-6.8,4.6-13.6,6.3-20.3c3.2-13.5,5-26.5,6.2-38.5c1.1-12.1,1.7-23.2,2-33c0.3-9.9,0.5-18.4,0.7-25.5
		c0.2-14.2,0.4-22.2,0.4-22.2s0,2,0.1,5.8c0,3.8,0.1,9.4,0.2,16.4c0,7.1,0,15.7-0.2,25.5c-0.1,9.9-0.5,21-1.5,33.1
		c-1,12.1-2.6,25.2-5.7,38.9c-1.6,6.8-3.6,13.7-6.1,20.6c-2.5,6.9-5.7,13.8-9.8,20.3c-4,6.5-9,12.7-14.8,18.1
		c-5.9,5.4-12.7,9.8-20.2,13.1l-1.4,0.6c-0.5,0.2-0.9,0.4-1.4,0.5l-2.8,1l-1.4,0.5l-0.4,0.1l-0.2,0.1l-0.2,0.1l-0.7,0.2
		c-1,0.3-2,0.6-2.9,0.8c-3.9,1-8,1.8-12,2.4c-8.1,1.1-16.2,1.5-24.4,1.6c-8.2,0-16.3-0.5-24.4-1.8c-8-1.3-16-3.5-23.3-7
		c-7.4-3.4-14.1-8.1-19.6-13.9c-1.3-1.5-2.6-3.1-3.9-4.6c-1.1-1.6-2.2-3.2-3.3-4.7c-2.2-3.4-3.9-6.8-5.4-10.4
		c-3-7.1-5.2-14.2-7.5-21.2c-2.2-7-4.3-13.9-5.8-20.7c-1.6-6.9-2.4-13.6-2.8-20.2c-0.5-6.6-0.7-12.9-1-18.9
		c-0.6-12.1-1.1-23.2-1.6-33.1c-0.5-9.9-0.8-18.4-1.2-25.5C6494-551.6,6493.7-559.6,6493.7-559.6z"/>
</g>
<g>
	<path d="M6494.1-544.2c0,0,0.8,0,2.4,0.1c1.6,0.1,3.8,0.2,6.7,0.3c2.9,0.2,6.4,0.3,10.5,0.5c4,0.2,8.6,0.3,13.6,0.5
		c5,0.2,10.4,0.3,16.1,0.5c5.7,0.2,11.7,0.2,17.9,0.4c6.2,0.1,12.6,0.1,19.2,0.2c6.5,0.1,13.2,0,19.8,0.1c6.6,0,13.3,0,19.8-0.1
		c6.5-0.1,13-0.1,19.2-0.2c12.5-0.1,24.1-0.2,34-0.3c10-0.1,18.3-0.1,24.1-0.1c2.9,0,5.2,0,6.7,0c1.6,0,2.4,0,2.4,0
		s-0.8,0.1-2.4,0.2c-1.6,0.1-3.8,0.2-6.7,0.4c-5.8,0.3-14.1,0.8-24.1,1.3c-10,0.5-21.6,0.9-34,1.3c-6.2,0.1-12.7,0.4-19.2,0.4
		c-6.5,0.1-13.2,0.1-19.8,0.2c-6.6,0-13.3,0-19.8-0.2c-6.5-0.1-13-0.3-19.2-0.4c-6.2-0.2-12.3-0.4-18-0.8c-2.9-0.2-5.6-0.3-8.3-0.5
		c-2.7-0.2-5.3-0.4-7.8-0.5c-2.5-0.2-4.9-0.3-7.1-0.5c-2.3-0.2-4.4-0.4-6.4-0.6c-4-0.4-7.6-0.7-10.4-1c-2.9-0.3-5.2-0.6-6.7-0.7
		C6494.9-544.1,6494.1-544.2,6494.1-544.2z"/>
</g>
<g>
	<radialGradient id="SVGID_2_" cx="297.1348" cy="675.0649" r="216.8647" gradientUnits="userSpaceOnUse">
		<stop  offset="0" style="stop-color:#C12E00"/>
		<stop  offset="0.1859" style="stop-color:#B62901"/>
		<stop  offset="0.5174" style="stop-color:#971A03"/>
		<stop  offset="0.9534" style="stop-color:#660307"/>
		<stop  offset="1" style="stop-color:#600007"/>
	</radialGradient>
	<path class="st3" d="M408,452.2c-40.9,4.2-82.2,4.5-123.3,3.7c-14.2-0.3-28.4-0.6-42.5-1.4c-23.9-1.2-47.9-3.5-71.4-7.9
		c4.7,62.3,2.9,74.7,66.2,180.8c3.9,6.5,5,6,11.1,10.4c5.3,3.8,12,5.3,18.4,6.4c21.3,3.8,42.6-0.5,64-2.5c4-0.4,8.1-0.8,12-1.8
		c16.9-4.1,29.6-8.9,37.1-24.7c16.8-35.5,20.4-60.2,36.7-97.2c9.6-21.6,14.6-46.7,15.9-69.3C424.3,450.4,416.1,451.4,408,452.2z"/>
	<path class="st1" d="M433,418.5c4.6,0.4,8.7,4.5,9.1,9.1c0.4,3.6,0,7.4,1.6,10.6c1.5,3.2,3.2,7.4,6.5,6.1c17.6-6.9,37.3-8.2,55.7-4
		c6.6,1.5,14.7,3.8,20.6,7.4c2.9,1.8,5.4,2.3,5.9,6.4c0,0.4-0.5,3.3-1.2,5c-0.3,0.9-0.2,1.9,0.5,2.6c13.7,14.2,17.1,36.9,10.5,55.6
		c-6.2,17.7-18.2,33.4-33.7,44c-6.3,4.3-13,7.8-19.8,11.2c-8.9,4.6-17.3,10.1-26.3,14.3c-18.7,8.6-37.7,18.5-56.6,26.9
		c-8.6,3.9-17.4,7.8-24.5,14c-7.1,6.2-12.5,15.2-12.1,24.6c0.4,8.9,5.8,17.1,12.4,22.9c0.9,0.8,1.8,1.6,2.6,2.5
		c18.9,21.8-23.1,19-32.1,19.4c-19.5,0.8-39.2-0.7-58.7-0.7c-15.6,0.7-31.2,1.3-46.8,2c-11.6,0.5-26.1,4.2-36.6-1.5
		c-0.9-0.5-1.9-1.1-2.5-1.9c-1.1-1.3-1.4-3-1.4-4.7c0.2-5.4,3.9-10,7.8-13.8s8.2-7.4,10.2-12.5c1.5-3.9,1.5-8.3,1.4-12.5
		c-0.1-5-0.7-13.5-1.1-13.5c-5.7-35.6-32.9-62.3-48.3-93.7c-17.4-35.7-22.3-82.6-21.8-122c0-2.1,1.7-3.9,3.9-4
		c35.3-1.5,70.6-3.1,105.9-4.6C319.8,411.4,366.6,412.6,433,418.5z"/>
	<path class="st1" d="M401.9,571.1c10.6-19.7,19-40.6,25.1-62.1c1.7-6.1,3.4-12.5,7.6-17.3c2.9-3.2,6.7-5.5,10.5-7.5
		c15.9-8.6,38.7-19.1,56.2-9c2.6,1.5,5.9,3.5,8.5,2c0.2-0.1,0.4-0.1,0.6,0.1c15,14.8,5.1,33.5,4.3,35.2c-4.2,8.6-9.8,16.5-16.6,23.2
		c-19.6,19.5-47.6,24.9-73.6,34.1c-7.2,2.5-14.3,5.1-21.8,6.5C400.8,573.8,400.4,573.8,401.9,571.1z"/>
	<g>
		<path d="M345.9,602.7c0,0,0.1-0.1,0.2-0.3c0.1-0.2,0.3-0.5,0.5-0.9c0.5-0.8,1.1-1.8,2.1-3.1c0.9-1.2,2.1-2.6,3.5-3.9
			c0.7-0.7,1.4-1.4,2.2-2c0.8-0.7,1.6-1.3,2.4-1.9c0.8-0.6,1.7-1.2,2.5-1.7c0.8-0.6,1.7-1,2.5-1.5c1.6-1,3.1-1.8,4.4-2.6
			c1.3-0.8,2.3-1.5,3-2c0.7-0.5,1.1-0.9,1.1-0.9s-0.1,0.1-0.2,0.3c-0.1,0.2-0.3,0.5-0.6,0.8c-0.6,0.7-1.4,1.7-2.6,2.7
			c-1.1,1-2.6,2.1-4.1,3.2c-0.8,0.5-1.6,1.1-2.4,1.6c-0.8,0.6-1.6,1.1-2.4,1.7c-1.6,1.2-3.1,2.4-4.6,3.6c-0.7,0.6-1.4,1.2-2,1.8
			c-0.6,0.6-1.2,1.1-1.8,1.6c-1.1,1-2,1.9-2.6,2.5C346.2,602.4,345.9,602.7,345.9,602.7z"/>
	</g>
	<g>
		<path d="M346.5,612.1c0,0,0.9,0.5,2,1.3c0.6,0.4,1.2,0.9,1.9,1.5c0.7,0.6,1.4,1.2,2.1,1.8c0.3,0.3,0.7,0.6,1,0.9
			c0.4,0.3,0.7,0.6,1,0.9c0.7,0.6,1.3,1.2,1.8,1.7c1,1,1.6,1.9,1.6,1.9s-1-0.3-2.3-0.9c-0.7-0.3-1.4-0.7-2.1-1.2
			c-0.8-0.5-1.6-1.1-2.3-1.7c-0.7-0.6-1.4-1.4-2-2c-0.6-0.7-1.1-1.4-1.5-2C346.9,613.1,346.5,612.1,346.5,612.1z"/>
	</g>
	<g>
		<path d="M321.3,578.5c0,0,0.3,0.2,0.9,0.7c0.3,0.2,0.6,0.5,0.9,0.8c0.4,0.3,0.8,0.7,1.1,1.2c0.8,0.9,1.7,2,2.5,3.2
			c0.4,0.6,0.8,1.2,1.2,1.9c0.4,0.7,0.8,1.3,1.2,2c0.4,0.7,0.8,1.3,1.2,2c0.4,0.6,0.8,1.3,1.2,1.8c0.4,0.6,0.8,1.2,1.2,1.6
			c0.4,0.5,0.8,1,1.2,1.4c0.4,0.4,0.8,0.8,1.1,1.1c0.3,0.3,0.6,0.6,0.9,0.8c0.5,0.4,0.8,0.7,0.8,0.7s-0.4-0.1-1-0.4
			c-0.3-0.1-0.7-0.3-1.1-0.5c-0.4-0.2-0.9-0.5-1.4-0.9c-0.2-0.2-0.5-0.4-0.8-0.6c-0.2-0.2-0.5-0.4-0.8-0.7c-0.5-0.5-1-1-1.5-1.6
			c-0.5-0.6-1-1.2-1.4-1.8c-0.5-0.6-0.9-1.3-1.3-2c-0.4-0.7-0.8-1.4-1.2-2c-0.4-0.7-0.7-1.3-1.1-2c-0.3-0.6-0.7-1.3-1-1.8
			c-0.3-0.6-0.6-1.1-0.9-1.6c-0.6-1-1.1-1.8-1.5-2.4C321.5,578.9,321.3,578.5,321.3,578.5z"/>
	</g>
	<g>
		<path d="M323,627.6c0,0,0.7-1.5,2.1-3.5c0.7-1,1.5-2.2,2.5-3.4c0.5-0.6,1-1.2,1.5-1.8c0.5-0.6,1.1-1.2,1.6-1.8
			c0.6-0.6,1.1-1.2,1.7-1.7c0.6-0.6,1.2-1.1,1.7-1.6c1.1-1,2.2-1.9,3.2-2.7c2-1.5,3.4-2.3,3.4-2.3s-0.2,0.3-0.7,0.9
			c-0.5,0.6-1.1,1.3-1.9,2.2c-0.8,0.9-1.7,2-2.8,3.1c-0.5,0.6-1,1.1-1.6,1.7c-0.5,0.6-1.1,1.2-1.6,1.8c-0.6,0.6-1.1,1.2-1.6,1.7
			c-0.5,0.6-1.1,1.1-1.6,1.7c-1,1.1-2,2.1-2.9,3c-0.9,0.9-1.6,1.6-2.1,2.1C323.3,627.4,323,627.6,323,627.6z"/>
	</g>
	<g>
		<path d="M297.1,599.9c0,0,0.8-1.4,2.2-3.4c0.7-1,1.5-2.1,2.5-3.3c0.5-0.6,0.9-1.2,1.5-1.8c0.5-0.6,1-1.2,1.6-1.8
			c0.5-0.6,1.1-1.2,1.6-1.8c0.5-0.6,1.1-1.1,1.6-1.7c1-1.1,2.1-2.1,2.9-2.9c1.8-1.6,3.1-2.6,3.1-2.6s-0.8,1.4-2.2,3.4
			c-0.7,1-1.5,2.1-2.5,3.3c-0.5,0.6-0.9,1.2-1.5,1.8c-0.5,0.6-1,1.2-1.6,1.8c-0.5,0.6-1.1,1.2-1.6,1.8c-0.5,0.6-1.1,1.1-1.6,1.7
			c-1,1.1-2.1,2.1-2.9,2.9C298.4,598.9,297.1,599.9,297.1,599.9z"/>
	</g>
	<g>
		<path d="M299.1,615.4c0,0,1.1,0.6,2.6,1.8c0.8,0.6,1.6,1.3,2.5,2.1c0.9,0.8,1.8,1.6,2.7,2.5c0.9,0.9,1.8,1.8,2.5,2.7
			c0.8,0.9,1.5,1.7,2.1,2.5c1.2,1.5,1.8,2.6,1.8,2.6s-1.1-0.6-2.6-1.8c-0.8-0.6-1.6-1.3-2.5-2.1c-0.9-0.8-1.8-1.6-2.7-2.5
			c-0.9-0.9-1.8-1.8-2.5-2.7c-0.8-0.9-1.5-1.7-2.1-2.5C299.8,616.5,299.1,615.4,299.1,615.4z"/>
	</g>
	<g>
		<path d="M274,586.7c0,0,1.2,0.7,2.9,2c0.9,0.6,1.8,1.4,2.8,2.2c1,0.8,2.1,1.8,3.1,2.7c1,1,2,1.9,2.9,2.9c0.9,1,1.7,1.9,2.4,2.7
			c1.4,1.6,2.2,2.8,2.2,2.8s-1.2-0.7-2.9-2c-0.9-0.6-1.8-1.4-2.8-2.2c-1-0.8-2.1-1.8-3.1-2.7c-1-1-2-2-2.9-2.9
			c-0.9-1-1.7-1.9-2.4-2.7C274.8,587.9,274,586.7,274,586.7z"/>
	</g>
	<g>
		<path d="M279.7,630.3c0,0,0-0.1,0-0.2c0-0.1,0-0.4,0.1-0.7c0.1-0.3,0.2-0.6,0.4-0.9c0.2-0.3,0.4-0.7,0.6-1.1
			c0.5-0.8,1-1.7,1.7-2.7c0.6-0.9,1.4-1.9,2.1-2.9c0.7-1,1.5-1.9,2.3-2.8c0.8-0.9,1.5-1.6,2.2-2.3c1.3-1.3,2.3-2.1,2.3-2.1
			s-0.5,1.2-1.4,2.8c-0.5,0.8-1,1.7-1.7,2.7c-0.6,1-1.4,1.9-2.1,2.9c-0.7,1-1.5,1.9-2.3,2.8c-0.8,0.9-1.5,1.6-2.2,2.3
			c-0.6,0.7-1.3,1.1-1.6,1.5C279.8,630,279.7,630.3,279.7,630.3z"/>
	</g>
	<g>
		<path d="M258.9,606.4c0,0,0.4-0.9,1.2-2.2c0.4-0.6,0.9-1.3,1.5-2c0.6-0.7,1.2-1.5,1.8-2.2c0.7-0.7,1.3-1.4,2-2
			c0.7-0.6,1.3-1.2,1.9-1.6c1.2-0.9,2.1-1.4,2.1-1.4s-0.4,0.9-1.2,2.2c-0.4,0.6-0.9,1.3-1.5,2c-0.6,0.7-1.2,1.5-1.8,2.2
			c-0.7,0.7-1.3,1.4-2,2c-0.7,0.6-1.3,1.2-1.9,1.6C259.9,605.9,258.9,606.4,258.9,606.4z"/>
	</g>
	<g>
		<path d="M256.8,613.3c0,0,1.2,0.6,2.9,1.8c0.8,0.6,1.8,1.3,2.8,2c1,0.8,2,1.6,3,2.5c1,0.9,2,1.8,2.9,2.7c0.9,0.9,1.7,1.7,2.4,2.5
			c1.3,1.5,2.1,2.6,2.1,2.6s-1.2-0.6-2.9-1.8c-0.8-0.6-1.8-1.3-2.8-2c-1-0.8-2-1.6-3-2.5c-1-0.9-2-1.8-2.9-2.7
			c-0.9-0.9-1.7-1.7-2.4-2.5C257.6,614.4,256.8,613.3,256.8,613.3z"/>
	</g>
	<g>
		<path d="M238.2,590.6c0,0,1.1,0.7,2.5,2c0.7,0.6,1.6,1.4,2.4,2.2c0.9,0.8,1.7,1.8,2.6,2.7c0.8,1,1.7,1.9,2.4,2.9
			c0.7,0.9,1.4,1.8,1.9,2.6c1.1,1.6,1.7,2.8,1.7,2.8s-1.1-0.7-2.5-2c-0.7-0.6-1.6-1.4-2.4-2.2c-0.9-0.8-1.7-1.8-2.6-2.7
			c-0.8-1-1.7-1.9-2.4-2.9c-0.7-0.9-1.4-1.8-1.9-2.6C238.8,591.8,238.2,590.6,238.2,590.6z"/>
	</g>
	<g>
		<path d="M243.1,624.7c0,0,0.1-0.2,0.2-0.5c0.1-0.3,0.3-0.8,0.6-1.3c0.5-1,1.3-2.3,2.1-3.6c0.9-1.3,2-2.4,2.9-3.2
			c0.9-0.7,1.7-1.1,1.7-1.1s-0.1,0.2-0.2,0.5c-0.1,0.3-0.3,0.8-0.6,1.3c-0.5,1-1.3,2.3-2.2,3.6c-0.9,1.3-2,2.4-2.9,3.2
			C243.9,624.4,243.1,624.7,243.1,624.7z"/>
	</g>
	<g>
		<path d="M276.8,578.2c0,0,0.4-1.6,1.4-3.9c0.5-1.2,1-2.5,1.7-3.9c0.4-0.7,0.7-1.4,1.1-2.1c0.4-0.7,0.8-1.4,1.3-2.2
			c0.5-0.7,0.9-1.4,1.4-2.1c0.5-0.7,1-1.3,1.5-1.9c1-1.2,2-2.3,2.9-3.2c1.8-1.8,3.2-2.7,3.2-2.7s-0.2,0.4-0.6,1
			c-0.4,0.6-1,1.5-1.7,2.5c-0.7,1-1.5,2.2-2.3,3.5c-0.4,0.6-0.9,1.3-1.3,2c-0.4,0.7-0.9,1.4-1.3,2.1c-0.4,0.7-0.9,1.4-1.3,2.1
			c-0.4,0.7-0.8,1.4-1.3,2c-0.8,1.3-1.6,2.5-2.3,3.6C277.8,576.8,276.8,578.2,276.8,578.2z"/>
	</g>
	<g>
		<path d="M297,558.3c0,0,1.1,0.4,2.7,1.2c0.8,0.4,1.7,0.9,2.6,1.5c0.9,0.6,1.9,1.3,2.8,2c0.9,0.7,1.8,1.5,2.6,2.3
			c0.8,0.8,1.5,1.5,2.1,2.2c1.1,1.3,1.8,2.4,1.8,2.4s-1.1-0.5-2.5-1.5c-0.7-0.5-1.6-1-2.4-1.7c-0.9-0.6-1.8-1.3-2.7-2
			c-0.9-0.7-1.8-1.5-2.6-2.2c-0.8-0.7-1.6-1.4-2.2-2C297.8,559.3,297,558.3,297,558.3z"/>
	</g>
	<g>
		<path d="M331.1,571.1c0,0,1.2-1.3,3.2-3.1c1-0.9,2.2-1.9,3.5-2.9c0.7-0.5,1.3-1.1,2-1.6c0.7-0.5,1.4-1.1,2.1-1.6
			c0.7-0.5,1.4-1,2.1-1.5c0.3-0.3,0.7-0.5,1-0.7c0.3-0.2,0.7-0.5,1-0.7c1.4-1,2.7-1.8,3.8-2.5c2.3-1.4,3.9-2.2,3.9-2.2
			s-1.2,1.3-3.2,3.1c-1,0.9-2.1,1.9-3.4,3c-0.3,0.3-0.6,0.5-1,0.8c-0.4,0.3-0.7,0.5-1,0.8c-0.7,0.5-1.4,1.1-2.1,1.6
			c-0.7,0.5-1.4,1-2.1,1.5c-0.7,0.5-1.4,1-2.1,1.4c-1.4,0.9-2.7,1.8-3.8,2.4C332.7,570.4,331.1,571.1,331.1,571.1z"/>
	</g>
	<g>
		<path class="st0" d="M363.3,574.6"/>
	</g>
	<g>
		<path d="M357.9,560.3c0,0,0.9,0.7,2.2,1.8c0.6,0.6,1.3,1.3,2,2c0.7,0.8,1.4,1.6,2.1,2.5c0.7,0.9,1.3,1.8,1.9,2.6
			c0.6,0.9,1.1,1.7,1.5,2.4c0.8,1.5,1.3,2.5,1.3,2.5s-0.9-0.7-2.2-1.8c-0.6-0.6-1.3-1.3-2-2c-0.7-0.8-1.4-1.6-2.1-2.5
			c-0.7-0.9-1.3-1.8-1.9-2.6c-0.6-0.9-1.1-1.7-1.5-2.4C358.3,561.4,357.9,560.3,357.9,560.3z"/>
	</g>
	<g>
		<path d="M264.4,580c0,0-0.3-0.2-0.8-0.4c-0.5-0.3-1.1-0.7-1.9-1.3c-0.8-0.6-1.6-1.3-2.4-2.2c-0.4-0.4-0.8-0.9-1.2-1.3
			c-0.4-0.5-0.8-1-1.2-1.5c-0.8-1-1.5-2.1-2.1-3.1c-0.6-1-1.1-2-1.4-2.9c-0.7-1.8-1-3-1-3s0.2,0.2,0.6,0.7c0.3,0.4,0.8,1,1.4,1.8
			c1.1,1.5,2.6,3.4,4.1,5.4c1.5,2,3,3.9,4.1,5.4c0.6,0.7,1,1.4,1.3,1.8C264.3,579.7,264.4,580,264.4,580z"/>
	</g>
	<g>
		<path d="M237.8,579.8c0,0,0.1-1,0.6-2.3c0.4-1.3,1.3-3,2.3-4.5c1-1.5,2.3-2.9,3.3-3.8c1-0.9,1.9-1.4,1.9-1.4s-0.3,0.9-1,2.1
			c-0.6,1.2-1.6,2.7-2.6,4.2c-1,1.5-2.1,2.9-3,3.9C238.5,579.1,237.8,579.8,237.8,579.8z"/>
	</g>
	<g>
		<path d="M282.2,491.6c0.1-1.3,0.1-2.6,0.2-3.9c0.1-1.3,0.2-2.6,0.4-3.9c0.2-1.3,0.4-2.6,0.6-3.9c0.3-1.3,0.6-2.6,0.9-3.9
			c0.4-1.3,0.8-2.5,1.3-3.8c0.2-0.6,0.5-1.2,0.8-1.8c0.3-0.6,0.6-1.2,0.9-1.8c0.3-0.6,0.7-1.1,1-1.7l1.1-1.6l1.3-1.5l1.4-1.4
			l0.4,0.4c0.1,0,0.2,0,0.2,0l0.1,0.3l0.2,0.5l0.4,1.1l0.7,2.1l1.5,4.3l2.9,8.5c0.9,2.9,1.9,5.7,2.8,8.6c0.1,0.4,0.2,0.8,0.3,1.2
			l0.2,1.1l0.4,2.2c0.2,1.5,0.4,3,0.6,4.5c0.7,6,0.8,12.1,0.5,18.1c-0.2,3-0.5,6-0.9,9c-0.4,3-1,6-1.7,8.9c-0.6,2.9-1,5.9-2,8.9
			c-0.3,0.7-0.5,1.5-0.9,2.2c-0.4,0.7-0.9,1.5-1.7,2c-0.2,0.2-0.8,0.5-1.3,0.5c-0.3,0-0.5,0-0.8,0c-0.2-0.1-0.5-0.1-0.7-0.3
			c-0.9-0.5-1.4-1.2-1.8-1.9c-0.8-1.4-1.3-2.9-1.8-4.3c-0.4-1.4-1-2.8-1.5-4.2c-1-2.8-1.9-5.7-2.6-8.7c-1.5-5.8-2.4-11.8-2.9-17.8
			C282,503.6,281.9,497.6,282.2,491.6z M282.2,491.6c-0.2,6-0.1,12,0.5,18c0.6,6,1.8,11.9,3.4,17.6c0.8,2.9,1.8,5.7,2.9,8.5
			c0.5,1.4,1.2,2.8,1.7,4.2c0.5,1.4,1,2.8,1.8,4c0.4,0.6,0.8,1.1,1.3,1.3c0.1,0.1,0.2,0.1,0.3,0.1c0.1,0,0.2,0,0.3,0
			c0.2-0.1,0.4-0.1,0.7-0.4c0.5-0.3,0.8-0.8,1.1-1.4c0.3-0.6,0.5-1.3,0.8-2c0.8-2.8,1.2-5.7,1.7-8.7c0.6-3,1.2-5.9,1.6-8.8
			c0.4-2.9,0.7-5.9,0.9-8.9c0.2-3,0.3-5.9,0.2-8.9c0-3-0.2-5.9-0.5-8.9c-0.1-1.5-0.3-3-0.5-4.4c-0.1-0.7-0.2-1.5-0.3-2.2l-0.2-1.1
			c-0.1-0.3-0.1-0.7-0.2-1c-0.7-2.9-1.6-5.8-2.5-8.6l-2.6-8.6l-1.3-4.3l-0.7-2.2l-0.3-1.1l-0.2-0.5l-0.1-0.3c-0.1-0.2,0-0.4,0-0.6
			l0.4,0.4l-1.4,1.4l-1.3,1.5l-1.2,1.6c-0.4,0.6-0.7,1.1-1.1,1.7c-0.3,0.6-0.6,1.1-0.9,1.7c-0.3,0.6-0.6,1.2-0.8,1.8
			c-0.5,1.2-1,2.5-1.3,3.7c-0.4,1.3-0.7,2.5-1,3.8c-0.3,1.3-0.5,2.6-0.7,3.9c-0.2,1.3-0.3,2.6-0.4,3.9
			C282.3,488.9,282.2,490.3,282.2,491.6z"/>
	</g>
	<g>
		<path d="M308.5,517.9c1.6-2.7,3.1-5.3,4.8-7.9c0.4-0.6,0.9-1.3,1.3-1.9c0.5-0.6,0.9-1.2,1.4-1.9c1-1.2,2-2.4,3.1-3.5l0.5-0.5
			l0,0.7l0.1,2.5l0,2.5l-0.2,2.5l-0.3,2.5l-0.4,2.5c-0.2,0.8-0.4,1.6-0.6,2.4c-0.2,0.8-0.5,1.6-0.7,2.4c-0.3,0.8-0.5,1.6-0.8,2.4
			c-0.6,1.6-1.2,3.1-2,4.6c-0.7,1.5-1.5,3-2.4,4.4c-1.8,2.8-3.7,5.5-6,8c-1.1,1.2-2.1,2.5-3.3,3.7c-0.6,0.6-1.2,1.2-2,1.7
			c-0.4,0.3-0.8,0.5-1.3,0.6c-0.3,0-0.6,0.1-0.9,0l-0.1,0l-0.1,0c-0.2-0.1-0.1,0-0.1,0l0,0l-0.1-0.1l-0.3-0.1
			c-1.1-0.8-1.2-1.9-1.2-2.7c0-0.9,0.2-1.8,0.4-2.6c0.5-1.6,1.1-3.1,1.7-4.6c1.3-3,2.8-5.9,4.4-8.8
			C305.1,523.5,306.8,520.7,308.5,517.9z M308.5,517.9c-1.6,2.8-3.3,5.6-4.8,8.6c-1.5,2.9-2.8,5.9-3.9,9c-0.5,1.5-1.1,3.1-1.4,4.6
			c-0.2,0.8-0.3,1.6-0.3,2.3c0,0.4,0.1,0.7,0.2,1c0.1,0.3,0.3,0.5,0.5,0.6c0.5,0.2,0.4,0.2,0.7,0.1c0.3-0.1,0.6-0.3,0.9-0.5
			c0.6-0.4,1.1-1,1.7-1.6c1.1-1.2,2.1-2.5,3.1-3.7c1-1.2,2-2.5,3-3.8c0.9-1.3,1.8-2.7,2.7-4c0.8-1.4,1.6-2.8,2.4-4.2
			c0.3-0.7,0.7-1.4,1.1-2.2c0.3-0.7,0.7-1.5,1-2.2c0.6-1.5,1.2-3,1.7-4.5c0.2-0.8,0.5-1.5,0.7-2.3l0.6-2.4l0.4-2.4l0.3-2.4l0.2-2.4
			l0.1-2.4l0.5,0.2c-1.1,1-2.2,2.1-3.2,3.3c-1,1.2-1.9,2.4-2.9,3.6C311.6,512.6,310.1,515.3,308.5,517.9z"/>
	</g>
	<g>
		<path d="M352.6,503.2l0.5-2.8l0.6-2.8l0.7-2.7l0.7-2.7l0.8-2.7l0.8-2.7l0.9-2.7l1-2.7l1-2.6l1.1-2.6c0.7-1.7,1.5-3.5,2.3-5.2
			c0.8-1.7,1.6-3.4,2.5-5.1c0.9-1.7,1.7-3.3,2.7-5l0.8-1.4l0.2,1.6l0.5,4.1l0.4,4.1c0.2,2.8,0.4,5.5,0.6,8.3
			c0.1,2.8,0.2,5.6,0.2,8.3c0,2.8,0,5.6-0.1,8.3c-0.2,5.6-0.7,11.1-1.4,16.6c-0.4,2.8-0.8,5.5-1.2,8.3c-0.5,2.7-1,5.5-1.6,8.2
			c-0.6,2.7-1.2,5.4-2.1,8.1c-0.9,2.7-2,5.3-3.5,7.7c-0.8,1.2-1.5,2.4-2.9,3.3c-0.3,0.2-0.8,0.4-1.3,0.4c-0.5,0-0.9-0.3-1.2-0.6
			c-0.6-0.6-0.9-1.3-1.1-2c-0.5-1.3-0.8-2.7-1.1-4.1c-0.3-1.4-0.6-2.7-0.8-4.1C350.4,525.3,350.7,514.1,352.6,503.2z M352.6,503.2
			c-0.9,5.5-1.5,11-1.4,16.5c0,5.5,0.6,11.1,1.7,16.5c0.3,1.4,0.6,2.7,0.9,4c0.3,1.3,0.7,2.7,1.2,3.9c0.3,0.6,0.6,1.2,1,1.6
			c0.4,0.4,0.8,0.4,1.3,0c0.5-0.3,0.9-0.8,1.3-1.3c0.4-0.5,0.7-1.1,1.1-1.7c1.4-2.3,2.3-4.9,3.1-7.5c0.8-2.6,1.3-5.3,1.8-8
			c0.5-2.7,1-5.4,1.4-8.2c0.4-2.7,0.8-5.5,1.2-8.2c0.3-2.7,0.6-5.5,0.9-8.2c0.2-2.7,0.4-5.5,0.6-8.3c0.1-2.8,0.2-5.5,0.3-8.3
			c0-2.8,0-5.5,0-8.3c0-2.8-0.2-5.5-0.3-8.3l-0.3-4.1l-0.4-4.1l0.9,0.2c-1,1.6-1.9,3.2-2.8,4.9c-0.9,1.6-1.8,3.3-2.6,5
			c-0.8,1.7-1.7,3.4-2.4,5.1c-0.8,1.7-1.5,3.4-2.2,5.2l-1,2.6l-1,2.7c-0.6,1.8-1.2,3.6-1.7,5.4l-0.7,2.7l-0.7,2.7l-0.6,2.8
			L352.6,503.2z"/>
	</g>
	<g>
		<path d="M219.2,473.7c0,0,0.3,0.6,0.9,1.7c0.6,1.1,1.4,2.7,2.4,4.7c1,2.1,2.2,4.6,3.4,7.5c0.7,1.5,1.3,3,2,4.7
			c0.7,1.7,1.3,3.4,2,5.3c1.3,3.7,2.6,7.7,3.8,12.1c1.2,4.3,2.3,9,3.1,13.8c0.2,1.2,0.4,2.4,0.6,3.7c0.2,1.2,0.4,2.5,0.5,3.7
			c0.3,2.5,0.5,5.1,0.7,7.6c0.3,2.5,0.7,5.1,0.6,7.8c0,1.4-0.1,2.7-0.6,4.2c-0.3,0.7-0.7,1.5-1.5,2c-0.9,0.5-1.9,0.5-2.6,0.3
			c-0.2,0-0.4-0.1-0.6-0.2l-0.3-0.1l-0.1-0.1l-0.1,0c0,0-0.2-0.1-0.1-0.1l-0.9-0.5l-0.9-0.7l-0.8-0.7c-1-1-1.8-2.1-2.5-3.3
			c-1.4-2.3-2.5-4.7-3.5-7.1c-1-2.4-1.9-4.7-2.9-7.1c-0.9-2.4-1.7-4.7-2.5-7.1c-0.7-2.4-1.3-4.7-1.8-7c-0.5-2.3-0.9-4.6-1.2-6.8
			c-0.6-4.5-0.9-8.7-0.9-12.7c0-3.9,0.2-7.5,0.6-10.7c0.2-1.6,0.4-3.1,0.7-4.4c0.3-1.4,0.8-2.5,1.1-3.6c0.7-2.2,1.2-3.9,1.4-5.1
			c0.1-0.6,0.1-1.1,0.1-1.4C219.3,473.8,219.2,473.7,219.2,473.7z M219.2,473.7c0,0,0.1,0.1,0.1,0.5c0,0.3,0,0.8,0,1.4
			c-0.1,1.2-0.5,3-1.1,5.2c-0.3,1.1-0.7,2.3-0.9,3.6c-0.2,1.3-0.3,2.8-0.5,4.4c-0.2,3.2-0.3,6.7-0.2,10.6c0.1,3.9,0.5,8.1,1.2,12.5
			c0.7,4.4,1.8,9,3.2,13.6c0.7,2.3,1.5,4.6,2.5,6.9c1,2.3,2,4.7,3,7c1,2.3,2.1,4.7,3.4,6.8c0.7,1.1,1.4,2.1,2.2,2.9l0.6,0.6
			c0.2,0.2,0.4,0.3,0.6,0.5l0.9,0.5c0.1,0-0.1,0,0,0l0,0l0.1,0l0.2,0.1c0.1,0.1,0.2,0.1,0.4,0.1c0.5,0.1,0.9,0.1,1.1-0.1
			c0.3-0.2,0.5-0.5,0.7-1c0.4-1,0.5-2.3,0.5-3.5c0-2.5-0.3-5-0.6-7.6c-0.3-2.6-0.4-5.1-0.7-7.6c-0.1-1.2-0.3-2.5-0.4-3.7
			c-0.2-1.2-0.3-2.4-0.5-3.6c-0.8-4.8-1.7-9.4-2.8-13.7c-1.1-4.3-2.2-8.4-3.5-12.1c-1.2-3.7-2.4-7.1-3.6-10c-1.1-3-2.2-5.5-3.1-7.6
			c-0.9-2.1-1.6-3.7-2.1-4.8C219.5,474.3,219.2,473.7,219.2,473.7z"/>
	</g>
	<g>
		<path d="M267.7,507.1c0,0,0.1,0.1,0.2,0.2c0.1,0.1,0.2,0.3,0.4,0.5c0.3,0.5,0.7,1.3,1.1,2.4c0.8,2.1,1.7,5.1,2.9,8.8
			c1.1,3.6,2.4,7.9,4.2,12.2c0.9,2.2,2,4.3,3.4,6.2c0.7,0.9,1.6,1.7,2.5,1.9c0.9,0.3,1.8,0,2.7-0.7l0.2-0.1l0,0l0,0c0,0,0.1-0.1,0,0
			l0.1-0.1l0.3-0.3c0.1-0.1,0.2-0.2,0.3-0.3l0.2-0.3l0.2-0.3l0.2-0.4l0.2-0.3l0.1-0.4c0.3-1,0.3-2.2,0.1-3.3
			c-0.5-2.3-1.5-4.5-2.6-6.5c-2.3-4-5.1-7.5-7.6-10.4c-2.5-2.9-4.7-5.1-6.3-6.6c-0.8-0.7-1.5-1.3-1.9-1.7
			C267.9,507.3,267.7,507.1,267.7,507.1z M267.7,507.1c0,0,1.1,0.6,2.9,2c1.7,1.4,4.2,3.4,6.9,6.2c1.3,1.4,2.8,2.9,4.2,4.6
			c1.4,1.7,2.8,3.6,4.1,5.6c1.2,2.1,2.5,4.4,3,7c0.2,1.3,0.3,2.8-0.1,4.2l-0.2,0.5l-0.2,0.5l-0.2,0.5l-0.3,0.5l-0.4,0.5
			c-0.1,0.1-0.2,0.2-0.3,0.3l-0.3,0.3l-0.1,0.1c-0.1,0.1-0.1,0-0.1,0.1l0,0l-0.1,0l-0.2,0.2c-0.3,0.2-0.6,0.4-0.9,0.6
			c-0.4,0.1-0.7,0.3-1.1,0.4c-0.8,0.2-1.6,0.2-2.4-0.1c-1.5-0.5-2.6-1.6-3.4-2.6c-1.6-2.2-2.6-4.5-3.5-6.7c-0.9-2.3-1.5-4.5-2.2-6.6
			c-0.6-2.1-1.1-4.1-1.6-6c-0.9-3.7-1.5-6.8-2.1-9c-0.3-1.1-0.6-1.9-0.8-2.4c-0.1-0.2-0.2-0.5-0.3-0.6
			C267.7,507.2,267.7,507.1,267.7,507.1z"/>
	</g>
	<g>
		<path d="M242.5,520.5c0.8-1.8,1.8-3.5,2.7-5.2c0.9-1.7,1.8-3.5,2.3-5.4l0.4,0.1c-0.3,1.3-0.1,2.6,0.1,4c0.2,1.3,0.5,2.7,0.9,4
			c0.3,1.3,0.6,2.7,0.9,4c0.3,1.4,0.5,2.7,0.5,4.3c-0.1,1.4-0.2,2.8-0.3,4.1c-0.1,1.4-0.4,2.8-0.6,4.1c-0.3,1.4-0.6,2.7-1,4.1
			c-0.4,1.3-1,2.7-1.7,3.9c-0.2,0.3-0.4,0.6-0.6,0.9c-0.2,0.3-0.5,0.6-0.8,0.9l-0.4,0.4l-0.4,0.3c-0.3,0.2-0.5,0.4-0.9,0.6l-0.5,0.3
			l-0.6,0.2c-0.2,0.1-0.4,0.1-0.6,0.2c-0.2,0-0.4,0.1-0.7,0.1c-0.5,0-1-0.2-1.4-0.5c-0.4-0.3-0.6-0.7-0.8-1.1
			c-0.6-1.5-0.7-2.9-0.6-4.3c0-1.4,0.2-2.8,0.4-4.1c0.4-2.7,1-5.4,1.6-8.1c0.3-1.3,0.7-2.7,1-4C241.6,523,242,521.7,242.5,520.5z
			 M242.5,520.5c-0.5,1.3-0.9,2.6-1.3,3.9c-0.4,1.3-0.6,2.7-0.9,4c-0.5,2.7-0.9,5.4-1,8.1c-0.1,1.4-0.1,2.7,0,4.1
			c0.1,1.3,0.3,2.7,0.8,3.7c0.3,0.5,0.6,0.7,1,0.7c0.4,0,0.9-0.3,1.4-0.6c1.1-0.7,1.9-1.6,2.5-2.7c0.6-1.1,1.1-2.3,1.5-3.6
			c0.4-1.3,0.7-2.6,1-3.9c0.3-1.3,0.5-2.6,0.7-4c0.2-1.3,0.4-2.7,0.5-4c0.1-1.2,0-2.6-0.2-3.9c-0.2-1.3-0.4-2.7-0.6-4
			c-0.2-1.4-0.4-2.7-0.6-4.1c-0.1-1.4-0.2-2.8,0.2-4.2l0.4,0.1c-0.7,1.8-1.7,3.6-2.6,5.3C244.3,517,243.4,518.7,242.5,520.5z"/>
	</g>
	<g>
		<path d="M197.4,528.6c0.7,0.6,1.4,1.1,2,1.8c0.6,0.6,1.2,1.3,1.8,2c1.1,1.4,2.2,2.8,3.2,4.2c1,1.4,2,2.9,3.1,4.3
			c0.5,0.7,1.1,1.4,1.6,2.1c0.6,0.7,1.1,1.3,1.7,1.9c0.3,0.3,0.6,0.6,0.9,0.9l1,0.8c0.3,0.3,0.7,0.5,1,0.7c0.3,0.2,0.7,0.5,1.1,0.7
			c0.4,0.2,0.7,0.4,1.1,0.6l1.2,0.4c0.4,0.2,0.8,0.3,1.2,0.4l1.2,0.3c3.4,0.8,6.8,1.4,10.3,1.7l-1.1,1.2l-0.6-2.5
			c-0.3-0.8-0.6-1.6-0.9-2.4c-0.4-0.8-0.8-1.5-1.2-2.3c-0.5-0.7-0.9-1.5-1.4-2.1c-0.5-0.7-1.1-1.4-1.6-2c-0.6-0.6-1.2-1.3-1.8-1.9
			c-0.7-0.6-1.3-1.2-2-1.7l-2.1-1.6l-2.2-1.5l-2.3-1.3c-0.8-0.4-1.6-0.8-2.4-1.2c-0.8-0.4-1.6-0.7-2.5-1c-0.8-0.3-1.7-0.6-2.5-0.9
			c-0.8-0.3-1.7-0.5-2.6-0.7c-0.9-0.2-1.7-0.3-2.6-0.5C199.2,528.8,198.3,528.7,197.4,528.6z M197.4,528.6c0.9,0,1.8,0,2.7,0
			c0.9,0.1,1.8,0.1,2.7,0.3c0.9,0.2,1.8,0.3,2.7,0.5c0.9,0.2,1.8,0.4,2.6,0.7c0.9,0.3,1.7,0.6,2.6,0.9c0.8,0.4,1.7,0.7,2.5,1.1
			l2.4,1.2l2.4,1.4l2.3,1.6c0.7,0.6,1.4,1.2,2.1,1.8c0.7,0.6,1.3,1.3,2,1.9c0.6,0.7,1.2,1.4,1.8,2.1c0.6,0.7,1.1,1.5,1.6,2.3
			c0.5,0.8,0.9,1.6,1.3,2.5c0.4,0.9,0.7,1.7,1,2.6c0.2,0.9,0.4,1.8,0.7,2.7l0.3,1.3l-1.4-0.2c-1.8-0.2-3.5-0.4-5.3-0.7
			c-1.8-0.3-3.5-0.7-5.2-1.1c-0.4-0.1-0.9-0.2-1.3-0.4c-0.4-0.1-0.8-0.2-1.3-0.4l-1.3-0.5c-0.4-0.2-0.8-0.4-1.2-0.7
			c-0.4-0.2-0.8-0.5-1.2-0.8c-0.4-0.3-0.8-0.5-1.1-0.8l-1-0.9c-0.3-0.3-0.6-0.7-0.9-1c-2.5-2.7-4.2-5.8-6.1-8.8
			c-0.9-1.5-1.8-3-2.9-4.4c-0.5-0.7-1-1.4-1.6-2.1C198.7,529.9,198,529.3,197.4,528.6z"/>
	</g>
	<g>
		<path d="M384.4,510.1c0.6,0.8,1.1,1.6,1.5,2.6c0.4,0.9,0.7,1.9,0.8,2.8c0.2,1,0.2,2,0.2,3c0,1-0.1,2-0.3,3c-0.2,1-0.4,1.9-0.7,2.9
			c-0.3,0.9-0.7,1.9-1.2,2.8c-0.5,0.9-1,1.7-1.6,2.6c-0.6,0.8-1.2,1.6-1.8,2.4c-2.6,3-5.7,5.6-8.9,8c-1.6,1.2-3.1,2.4-4.7,3.5
			c-1.6,1.2-3.3,2.3-5,3.3l-1.5,0.8l0-1.7c0-0.7,0.1-1.1,0.3-1.6c0.1-0.5,0.3-0.9,0.5-1.3c0.3-0.9,0.7-1.7,1.2-2.5
			c0.8-1.6,1.7-3.2,2.6-4.7c1.9-3,3.8-6,5.8-8.9c2-2.9,4.1-5.8,6.2-8.7c1-1.4,2.1-2.9,3.2-4.3c0.5-0.7,1.1-1.4,1.6-2.1
			c0.3-0.3,0.6-0.7,0.9-1c0.1-0.2,0.3-0.3,0.5-0.5c0.1-0.1,0.2-0.2,0.3-0.2C384.2,510.2,384.3,510.1,384.4,510.1z M384.4,510.1
			c-0.1-0.1-0.2,0-0.3,0.1c-0.1,0.1-0.2,0.1-0.2,0.2c-0.2,0.2-0.3,0.3-0.5,0.5c-0.3,0.3-0.6,0.7-0.8,1c-0.5,0.7-1.1,1.4-1.6,2.1
			c-1,1.4-2,2.9-3,4.4c-1,1.5-1.9,3-2.8,4.5c-0.9,1.5-1.8,3-2.7,4.5c-1.8,3-3.6,6.1-5.2,9.2c-0.8,1.6-1.6,3.1-2.4,4.7
			c-0.4,0.8-0.7,1.6-1,2.4c-0.3,0.8-0.6,1.7-0.6,2.2l-1.5-0.8c1.7-1,3.3-2.1,4.9-3.2c1.6-1.1,3.2-2.3,4.8-3.4
			c3.2-2.3,6.4-4.5,9.1-7.3c0.7-0.7,1.3-1.4,1.9-2.2c0.6-0.7,1.2-1.6,1.7-2.4c0.5-0.8,0.9-1.7,1.3-2.6c0.4-0.9,0.7-1.8,0.9-2.8
			c0.2-1,0.4-1.9,0.4-2.9c0-1,0-2-0.1-2.9c-0.2-1-0.4-1.9-0.8-2.8C385.5,511.8,384.9,510.9,384.4,510.1z"/>
	</g>
	<g>
		<path d="M337.8,504.9c0,0,0,0.1-0.1,0.2c-0.1,0.1-0.2,0.3-0.3,0.6c-0.3,0.5-0.5,1.4-0.6,2.5c-0.1,1.1,0,2.4,0.4,3.9
			c0.3,1.5,0.9,3.2,1.6,4.9c1.4,3.6,3.1,7.7,5.2,11.9c1.1,2.1,2.3,4.3,3.6,6.3c0.7,1,1.5,2,2.3,2.7c0.8,0.8,1.8,1.3,2.5,1.2
			c0.4-0.1,0.7-0.3,1.1-0.7l0.1-0.1l0,0l0,0c0,0-0.1,0.2-0.1,0.1l0.1-0.2c0.1-0.1,0.2-0.3,0.2-0.3c0-0.1,0-0.1,0.1-0.2l0-0.4
			c0.1-1-0.2-2.2-0.5-3.4c-0.7-2.3-1.7-4.6-2.7-6.7c-2.1-4.3-4.3-8.1-6.2-11.4c-1.9-3.3-3.6-6-4.8-7.9
			C338.5,506,337.8,504.9,337.8,504.9z M337.8,504.9c0,0,0.8,1,2.2,2.8c1.3,1.8,3.3,4.3,5.4,7.5c2.2,3.2,4.6,7,6.8,11.3
			c1.1,2.2,2.2,4.4,3,6.9c0.4,1.3,0.7,2.6,0.6,4.1l-0.1,0.6c-0.1,0.2-0.1,0.5-0.2,0.7c-0.1,0.3-0.2,0.3-0.3,0.5l-0.1,0.2
			c0.1-0.1-0.1,0.2-0.1,0.1l0,0l-0.1,0.1l-0.1,0.1c-0.5,0.6-1.3,1.1-2.1,1.3c-0.9,0.1-1.8-0.1-2.5-0.4c-0.7-0.4-1.3-0.8-1.8-1.3
			c-1-1-1.8-2-2.6-3.1c-1.5-2.2-2.6-4.4-3.6-6.6c-1-2.2-1.9-4.4-2.7-6.4c-0.8-2.1-1.5-4-2-5.9c-0.6-1.9-1-3.6-1.2-5.2
			c-0.2-1.6-0.2-3,0-4.1c0.2-1.1,0.6-2,0.9-2.5c0.1-0.3,0.3-0.4,0.4-0.6C337.8,505,337.8,504.9,337.8,504.9z"/>
	</g>
	<g>
		<path d="M167.1,439.6c0,0,0.7,8.5,2,23.3c0.7,7.4,1.5,16.4,3.2,26.7c1.7,10.2,4.6,21.6,9.1,33.5c4.5,11.9,10.5,24.4,17.2,37.3
			c1.7,3.2,3.5,6.5,5.3,9.8c1.8,3.3,3.7,6.6,5.5,9.9c3.7,6.7,7.7,13.5,11.7,20.4c4,6.9,8.2,13.9,12.4,20.9c1.1,1.8,2.1,3.6,3.2,5.1
			c1.1,1.6,2.5,2.8,4.2,3.9c1.7,1.1,3.5,2.3,5.2,3.5c1.6,1.1,3.4,2,5.3,2.7c3.8,1.5,7.8,2.3,11.9,3c4.1,0.7,8.2,1.1,12.4,1.3
			c8.4,0.4,16.8-0.2,25.3-1c8.4-0.8,16.9-2,25.4-2.8c4.2-0.4,8.4-0.8,12.4-1.7c4.1-1,8.1-2,12-3.4c3.9-1.3,7.6-3,11-5.1
			c3.4-2.1,6.4-4.8,8.8-7.9c0.6-0.8,1.2-1.6,1.7-2.4c0.5-0.8,1.1-1.7,1.5-2.5l1.4-2.6l1.3-2.8c1.7-3.7,3.3-7.3,4.8-11
			c6.1-14.7,10.9-29.4,15.6-43.2c2.4-6.9,4.7-13.7,7.2-20.1c2.5-6.4,5-12.6,7.6-18.5c5.2-11.6,8.8-22.7,11.3-32.8
			c1.3-5,2.2-9.8,3-14.2c0.7-4.4,1.4-8.5,1.8-12.2c0.9-7.4,1.3-13.2,1.4-17.2c0.1-2,0.1-3.5,0.1-4.6c0-1,0-1.6,0-1.6s0,0.5,0,1.6
			c0,1,0,2.6,0,4.6c-0.1,4-0.3,9.9-1,17.3c-0.4,3.7-0.9,7.8-1.6,12.3c-0.7,4.4-1.6,9.2-2.7,14.3c-1.2,5.1-2.5,10.5-4.3,16
			c-1.8,5.6-4,11.3-6.5,17.2c-2.5,5.9-5,12-7.4,18.5c-2.4,6.5-4.7,13.2-6.9,20.1c-4.5,13.9-9.1,28.7-15.3,43.5
			c-1.5,3.7-3.1,7.4-4.8,11.1l-1.3,2.8l-1.4,2.8c-0.5,0.9-1.1,1.8-1.6,2.7c-0.6,0.9-1.2,1.7-1.8,2.6c-2.6,3.4-5.9,6.3-9.5,8.6
			c-3.6,2.3-7.6,4.1-11.6,5.5c-4,1.4-8.2,2.5-12.3,3.5c-4.2,1-8.5,1.4-12.7,1.8c-8.4,0.8-16.8,2-25.4,2.9
			c-8.5,0.9-17.1,1.4-25.7,0.9c-4.3-0.2-8.6-0.7-12.8-1.4c-4.2-0.8-8.4-1.6-12.5-3.2c-2-0.8-4-1.8-5.8-3c-1.8-1.2-3.4-2.3-5.2-3.5
			c-0.9-0.6-1.8-1.2-2.6-2c-0.8-0.8-1.6-1.6-2.2-2.5c-1.3-1.8-2.3-3.6-3.3-5.4c-4.1-7.1-8.3-14.1-12.3-21c-4-6.9-7.9-13.7-11.6-20.5
			c-1.8-3.4-3.7-6.7-5.4-10c-1.7-3.3-3.5-6.6-5.2-9.9c-6.6-13.1-12.5-25.7-16.9-37.8c-0.5-1.5-1-3-1.6-4.5c-0.5-1.5-1.1-2.9-1.4-4.4
			c-0.4-1.5-0.8-2.9-1.3-4.4c-0.4-1.4-0.9-2.9-1.2-4.3c-0.6-2.9-1.3-5.6-1.8-8.3c-0.5-2.7-0.9-5.4-1.4-7.9
			c-1.5-10.3-2.1-19.3-2.6-26.8C167.7,448.1,167.1,439.6,167.1,439.6z"/>
	</g>
	<g>
		<path d="M213.5,569.6c0,0,1.3,0.4,3.1,1.3c0.9,0.4,1.9,1,3,1.7c1.1,0.6,2.2,1.4,3.2,2.1c1.1,0.8,2.1,1.6,3.1,2.4
			c0.9,0.8,1.8,1.6,2.5,2.3c1.4,1.4,2.2,2.5,2.2,2.5s-1.2-0.6-2.9-1.6c-0.9-0.5-1.8-1.1-2.9-1.8c-1-0.7-2.1-1.4-3.2-2.2
			c-1.1-0.8-2.1-1.6-3.1-2.3c-1-0.8-1.9-1.5-2.6-2.1C214.4,570.6,213.5,569.6,213.5,569.6z"/>
	</g>
	<g>
		<path d="M226.2,596.8c0,0,0.2-0.7,0.6-1.5c0.4-0.8,1.1-1.8,1.9-2.7c0.8-0.9,1.7-1.7,2.6-2.2c0.8-0.5,1.4-0.7,1.4-0.7
			s-0.2,0.7-0.6,1.5c-0.4,0.8-1.1,1.8-1.9,2.7c-0.8,0.9-1.7,1.7-2.6,2.2C226.9,596.6,226.2,596.8,226.2,596.8z"/>
	</g>
	<g>
		<path d="M377,569.7c0,0,0.4-0.9,1.3-2c0.8-1.1,2.2-2.5,3.7-3.6c1.5-1.1,3.2-2,4.5-2.4c1.3-0.5,2.3-0.6,2.3-0.6s-0.2,0.2-0.5,0.5
			c-0.3,0.3-0.7,0.7-1.2,1.1c-1,0.9-2.5,2-3.9,3c-1.4,1-2.9,2.1-4.1,2.8c-0.6,0.4-1.1,0.7-1.4,0.9C377.2,569.6,377,569.7,377,569.7z
			"/>
	</g>
	<g>
		<path d="M377.6,580c0,0,0.5,0.1,1.1,0.4c0.6,0.3,1.2,0.7,1.7,1.3c0.5,0.6,0.9,1.3,1.1,1.9c0.2,0.6,0.2,1.1,0.2,1.1
			s-0.5-0.1-1.1-0.4c-0.6-0.3-1.2-0.7-1.7-1.3c-0.5-0.6-0.9-1.3-1.1-1.9C377.6,580.5,377.6,580,377.6,580z"/>
	</g>
	<g>
		<path d="M429,445.6c0,0-1,0.2-2.9,0.6c-1.9,0.4-4.7,0.9-8.2,1.5c-3.5,0.6-7.9,1.2-12.8,1.8c-2.5,0.3-5.1,0.6-7.9,0.9
			c-2.8,0.3-5.7,0.6-8.8,0.9c-6.1,0.5-12.8,1.1-19.8,1.5c-7,0.4-14.5,0.9-22.2,1.1c-7.7,0.3-15.6,0.5-23.7,0.5
			c-8.1,0.1-16.3,0.1-24.5,0c-4.1-0.1-8.2-0.1-12.3-0.2l-3.1-0.1l-1.6,0l-1.5-0.1c-2-0.1-4.1-0.1-6.1-0.2c-8.1-0.3-16-0.6-23.7-0.9
			c-3.9-0.2-7.6-0.3-11.3-0.5c-3.7-0.2-7.3-0.5-10.8-0.8c-7-0.6-13.7-1.2-19.8-1.9c-6.1-0.7-11.7-1.4-16.7-2.2
			c-4.9-0.7-9.3-1.5-12.8-2.1c-3.5-0.6-6.3-1.2-8.2-1.6c-1.9-0.4-2.9-0.6-2.9-0.6s1,0.2,2.9,0.4c1.9,0.3,4.7,0.7,8.2,1.2
			c7.1,1,17.3,2.1,29.5,3.2c6.1,0.5,12.8,1,19.8,1.4c3.5,0.2,7.1,0.4,10.8,0.5c3.7,0.1,7.5,0.2,11.3,0.3c7.7,0.2,15.6,0.4,23.7,0.6
			c2,0.1,4,0.1,6.1,0.2l1.5,0l1.5,0l3.1,0c4.1,0,8.2,0.1,12.3,0.1c8.2,0.1,16.4,0.1,24.5,0.1c8.1,0,16-0.1,23.7-0.3
			c7.7-0.2,15.1-0.4,22.1-0.6c7-0.3,13.7-0.6,19.8-1c6.1-0.4,11.8-0.8,16.7-1.2c5-0.4,9.3-0.8,12.9-1.3c3.6-0.4,6.4-0.8,8.3-1.1
			C428,445.7,429,445.6,429,445.6z"/>
	</g>
	<path class="st4" d="M343.5,607c-13.5,6.8-11-10.3-9.7-17c2.4-12.5,7.4-24.4,12.3-36.1c35-83.4,70-166.9,105-250.3
		c-0.4-0.2-0.2-1.2,0.2-1.5c1.5-1,3.5-0.4,5.2,0.2c2.9,1.1,5.9,2.2,8.5,3.8s5,4,6.1,6.9c2.2,5.5-4,13-6.4,17.6
		c-4.1,7.9-7.2,16.3-10.7,24.5c-13.7,32.4-32.6,62.6-44.5,95.8c-10.2,28.4-21.6,54.9-34.4,82.1C363.5,557.3,356.5,583.3,343.5,607z"
		/>
	<g>
		<path d="M456,310.8c0,0-0.5,1.1-1.3,3.2c-0.9,2.1-2.1,5.2-3.8,9.1c-3.2,7.9-7.8,19.1-13.3,32.6c-5.5,13.5-12,29.2-18.9,46.1
			c-6.9,16.8-14.4,34.8-21.8,52.7c-7.5,17.9-14.9,35.9-21.9,52.7c-7,16.8-13.6,32.5-19.3,45.9c-11.3,26.9-18.8,44.8-18.8,44.8
			s0.4-1.1,1.2-3.3c0.8-2.1,2-5.2,3.6-9.2c3.1-7.9,7.5-19.2,13-32.7c2.7-6.8,5.7-14.1,8.8-21.8c3.1-7.7,6.5-15.9,9.9-24.3
			c6.9-16.8,14.3-34.8,21.7-52.8c7.5-17.9,15-35.8,22-52.6c3.5-8.4,7-16.5,10.2-24.2c3.3-7.7,6.4-14.9,9.2-21.6
			c2.8-6.7,5.5-12.8,7.9-18.3c2.4-5.4,4.4-10.2,6.1-14.1c1.7-3.9,3.1-6.9,4-9C455.5,311.9,456,310.8,456,310.8z"/>
	</g>
	<g>
		<path d="M461.4,311.9c0,0-0.5,1.1-1.3,3.2c-0.9,2.1-2.1,5.2-3.8,9.1c-3.2,7.9-7.8,19.1-13.3,32.6c-5.5,13.5-12,29.2-18.9,46.1
			c-6.9,16.8-14.4,34.8-21.8,52.7c-7.5,17.9-14.9,35.9-21.9,52.7c-7,16.8-13.6,32.5-19.3,45.9c-11.3,26.9-18.8,44.8-18.8,44.8
			s0.4-1.1,1.2-3.3c0.8-2.1,2-5.2,3.6-9.2c3.1-7.9,7.5-19.2,13-32.7c2.7-6.8,5.7-14.1,8.8-21.8c3.1-7.7,6.5-15.9,9.9-24.3
			c6.9-16.8,14.3-34.8,21.7-52.8c7.5-17.9,15-35.8,22-52.6c3.5-8.4,7-16.5,10.2-24.2c3.3-7.7,6.4-14.9,9.2-21.6
			c2.8-6.7,5.5-12.8,7.9-18.3c2.4-5.4,4.4-10.2,6.1-14.1c1.7-3.9,3.1-6.9,4-9C460.9,313,461.4,311.9,461.4,311.9z"/>
	</g>
</g>
</svg>
