<?xml version="1.0" encoding="utf-8"?>
<!-- Generator: Adobe Illustrator 19.2.0, SVG Export Plug-In . SVG Version: 6.00 Build 0)  -->
<svg version="1.1" id="Layer_1" xmlns="http://www.w3.org/2000/svg" xmlns:xlink="http://www.w3.org/1999/xlink" x="0px" y="0px"
	 viewBox="0 0 460 406" style="enable-background:new 0 0 460 406;" xml:space="preserve">
<style type="text/css">
	.st0{fill:none;stroke:#000000;stroke-width:5;stroke-miterlimit:10;}
	.st1{opacity:0.9;fill:url(#SVGID_1_);enable-background:new    ;}
	.st2{fill:url(#SVGID_2_);}
	.st3{fill:none;stroke:#000000;stroke-width:2;stroke-miterlimit:10;}
</style>
<path class="st0" d="M6588.6-864.6c0.3,38.5,0.2,82.4-5.7,120.5c-2.3,14.7-3.7,31.7-10.6,44.9c-9.4,17.9-18.6,35.9-34,49.5
	c-5.5,4.9-11.5,9.2-17.9,12.8c-4.2,2.3-15.3,5.1-15.9,10.8c-0.4,3.6,3.8,5.7,6.9,7.6c6.9,4.3,10.9,12.3,11.6,20.4
	c1.5,15.4-5.6,30.7-18.9,38.8c-0.8,0.5-1.6,1-1.9,1.8c-0.7,2.1,2.1,3.4,4.2,3.8c12.1,2.1,24,5,35.7,8.7c7.7,2.4,24.3,10.6,12,18.5
	c-7.7,4.9-17,6.2-26,7.3c-24.7,3.1-49.7,6.2-74.5,3.9c-5.6-0.5-11.2-1.4-16.8-2.2l-22.5-3.3c-5.3-0.8-11.8-2.7-12.7-7.9
	c-1.7-10.2,16.6-15.1,23.6-17.2c4.9-1.5,36.5-4.6,35.6-9.3c-0.5-2.4-2.8-3.9-4.8-5.4c-8.9-6.4-15-16.4-16.6-27.2
	c-1.6-10.8,1.3-22.2,7.9-30.9c2.2-2.9,4.9-6,4.4-9.6c-0.2-1.5-1-2.9-2-4.1c-5.1-6.7-15.9-9.5-22.8-14.7c-7.9-6-15.2-12.8-21.6-20.4
	c-12.5-14.5-22.1-31.5-27.6-49.9c-5.2-17.2-6.9-35.3-8.2-53.2c-2.3-31-3.6-62-3.8-93.1c20.2-2.4,42-1.8,62.4-1.4
	C6480.9-864,6588.6-866.7,6588.6-864.6L6588.6-864.6z"/>
<path d="M6462-549.7v1.9c0,0.6,0.1,1.3,0.6,1.9c0.4,0.6,1.2,0.8,2.2,0.8c2.1-0.1,4.5-0.2,7.1-0.2c1.3,0,2.7-0.1,4-0.1
	c1.4-0.1,2.8-0.1,4.1-0.2c1.4-0.1,2.8-0.1,4.1-0.2c1.4-0.1,2.7-0.1,4-0.2c2.6-0.1,5-0.2,7.1-0.3c2-0.1,3.7-0.6,4.6-1.3
	c0.4-0.4,0.7-0.8,0.8-1.1c0.1-0.3,0.2-0.5,0.2-0.5v0.5c-0.1,0.3-0.2,0.8-0.6,1.3s-1.1,1-1.9,1.4c-0.8,0.4-1.8,0.7-2.8,0.8
	c-2.1,0.4-4.5,0.7-7.1,0.9c-1.3,0.1-2.7,0.3-4,0.4c-1.4,0.1-2.8,0.2-4.2,0.2c-1.4,0-2.8,0.1-4.2,0.1h-4.1c-2.6-0.1-5.1-0.2-7.2-0.4
	c-0.5-0.1-1.1-0.1-1.6-0.4s-0.9-0.7-1.1-1.1c-0.4-0.9-0.4-1.7-0.3-2.3c0.1-0.6,0.2-1.1,0.3-1.4C6461.9-549.5,6462-549.7,6462-549.7
	L6462-549.7z M6461.6-634.3c0,0,0.6,0.2,1.6,0.5c0.5,0.2,1.2,0.3,1.9,0.5s1.6,0.4,2.4,0.5c0.9,0.2,1.9,0.3,2.9,0.5
	c1,0.1,2.1,0.2,3.3,0.3c1.1,0.1,2.3,0.1,3.5,0.2h3.6c1.2,0,2.5,0,3.7-0.1c1.2,0,2.4-0.1,3.6-0.1c2.3-0.1,4.5-0.1,6.3-0.3
	s3.2-0.6,4.1-1.2c0.4-0.3,0.8-0.6,1-0.8l0.3-0.3c0,0-0.1,0.1-0.2,0.4c-0.2,0.3-0.4,0.6-0.8,1c-0.8,0.8-2.3,1.6-4.2,2
	c-0.9,0.2-2,0.4-3,0.5c-1.1,0.1-2.2,0.3-3.3,0.4l-3.6,0.3c-1.2,0.1-2.5,0.1-3.7,0.2c-1.3,0-2.5,0-3.7-0.1c-0.6,0-1.2-0.1-1.8-0.1
	c-0.6-0.1-1.2-0.1-1.8-0.2c-1.2-0.1-2.3-0.4-3.4-0.6c-0.5-0.1-1-0.3-1.5-0.4c-0.5-0.2-1-0.3-1.4-0.4c-1.8-0.6-3.2-1.3-4.2-1.8
	C6462.2-634,6461.6-634.3,6461.6-634.3L6461.6-634.3z M6411.5-532.2l0.3,0.3c0.2,0.2,0.5,0.4,1,0.6c0.9,0.5,2.3,1,4.2,1.4
	c1.9,0.4,4.2,0.7,6.8,1.1c2.6,0.4,5.6,0.7,8.9,1.1c3.3,0.3,6.8,0.7,10.6,1c3.7,0.3,7.7,0.5,11.8,0.7c8.2,0.3,17,0.5,25.7,0.6
	c4.4,0.1,8.8,0.1,13.1,0.2c4.3,0,8.5,0.1,12.6,0c4.1-0.1,8-0.4,11.7-0.8c3.7-0.5,7.2-1.1,10.4-1.7c6.4-1.4,11.6-3,15.2-4.3
	c1.8-0.7,3.2-1.2,4.2-1.6l1.5-0.6c0,0-0.5,0.2-1.4,0.7c-0.9,0.4-2.3,1.1-4.1,1.8c-3.5,1.5-8.7,3.5-15.1,5.1
	c-6.4,1.6-14.1,2.9-22.3,3.2c-4.1,0.2-8.4,0.2-12.7,0.2c-4.3,0-8.7-0.1-13.1-0.1c-4.4-0.1-8.8-0.2-13.1-0.3
	c-4.3-0.1-8.6-0.4-12.7-0.6c-4.1-0.3-8.1-0.6-11.8-1c-3.8-0.4-7.3-0.8-10.6-1.3c-1.6-0.3-3.2-0.5-4.7-0.7c-1.5-0.3-2.9-0.5-4.2-0.8
	c-2.6-0.5-4.9-1-6.8-1.5s-3.3-1.1-4.1-1.7c-0.4-0.3-0.7-0.5-0.9-0.7C6411.6-532.1,6411.5-532.2,6411.5-532.2L6411.5-532.2z"/>
<linearGradient id="SVGID_1_" gradientUnits="userSpaceOnUse" x1="6378.7998" y1="1357.7887" x2="6584.7002" y2="1357.7887" gradientTransform="matrix(1 0 0 -1 0 615)">
	<stop  offset="1.800000e-02" style="stop-color:#801FE3"/>
	<stop  offset="1" style="stop-color:#B7A7FF"/>
</linearGradient>
<path class="st1" d="M6378.8-836.4c1.4,24.4,2.7,48.8,4.1,73.2c0.4,7.9,0.9,15.9,2.2,23.7c1.8,11.1,5.4,21.8,8.9,32.5
	c3,9.1,6,18.2,11.1,26.3c17.8,28.1,51.5,32.7,81.9,31.3c10.6-0.5,21.3-1.5,31.5-4.7c66.9-21.3,65.2-117,66.1-172.7
	c0-2.6,0.1-5.1,0.1-7.7C6516-832.3,6447.2-830.5,6378.8-836.4L6378.8-836.4z"/>
<path d="M6373.7-856.1c0,0,0.6,8.1,1.5,22.2c0.5,7.1,1,15.6,1.7,25.5c0.6,9.8,1.4,20.9,2.1,33.1c0.4,6.1,0.7,12.4,1.3,18.9
	c0.5,6.5,1.4,13.2,3,19.9c1.6,6.7,3.7,13.5,6,20.4c2.4,6.9,4.5,14,7.5,20.9c0.8,1.7,1.5,3.4,2.4,5.1c0.9,1.6,1.8,3.3,2.8,4.8
	c1.1,1.6,2.2,3.1,3.4,4.7c1.2,1.4,2.5,2.8,3.7,4.3c5.3,5.5,11.7,10,18.8,13.2c7.1,3.3,14.8,5.4,22.6,6.6c7.9,1.3,15.9,1.7,23.9,1.7
	c8-0.1,16.1-0.4,24-1.5c3.9-0.5,7.9-1.2,11.7-2.2c1-0.3,1.9-0.5,2.8-0.8l0.7-0.2h0.1l0.2-0.1l0.4-0.1l1.4-0.5l2.8-1
	c0.5-0.2,0.9-0.3,1.4-0.5l1.3-0.6c7.1-3.1,13.7-7.4,19.4-12.5c5.7-5.1,10.5-11.1,14.4-17.5c4-6.3,7.1-13.1,9.7-19.8
	c2.6-6.8,4.6-13.6,6.3-20.3c3.2-13.5,5-26.5,6.2-38.5c1.1-12.1,1.7-23.2,2-33c0.3-9.9,0.5-18.4,0.7-25.5c0.2-14.2,0.4-22.2,0.4-22.2
	s0,2,0.1,5.8c0,3.8,0.1,9.4,0.2,16.4c0,7.1,0,15.7-0.2,25.5c-0.1,9.9-0.5,21-1.5,33.1c-1,12.1-2.6,25.2-5.7,38.9
	c-1.6,6.8-3.6,13.7-6.1,20.6c-2.5,6.9-5.7,13.8-9.8,20.3c-4,6.5-9,12.7-14.8,18.1c-5.9,5.4-12.7,9.8-20.2,13.1l-1.4,0.6
	c-0.5,0.2-0.9,0.4-1.4,0.5l-2.8,1l-1.4,0.5l-0.4,0.1l-0.2,0.1l-0.2,0.1l-0.7,0.2c-1,0.3-2,0.6-2.9,0.8c-3.9,1-8,1.8-12,2.4
	c-8.1,1.1-16.2,1.5-24.4,1.6c-8.2,0-16.3-0.5-24.4-1.8c-8-1.3-16-3.5-23.3-7c-7.4-3.4-14.1-8.1-19.6-13.9c-1.3-1.5-2.6-3.1-3.9-4.6
	c-1.1-1.6-2.2-3.2-3.3-4.7c-2.2-3.4-3.9-6.8-5.4-10.4c-3-7.1-5.2-14.2-7.5-21.2c-2.2-7-4.3-13.9-5.8-20.7
	c-1.6-6.9-2.4-13.6-2.8-20.2c-0.5-6.6-0.7-12.9-1-18.9c-0.6-12.1-1.1-23.2-1.6-33.1c-0.5-9.9-0.8-18.4-1.2-25.5
	C6374-848.1,6373.7-856.1,6373.7-856.1L6373.7-856.1z"/>
<path d="M6374.1-840.7c0,0,0.8,0,2.4,0.1s3.8,0.2,6.7,0.3c2.9,0.2,6.4,0.3,10.5,0.5c4,0.2,8.6,0.3,13.6,0.5s10.4,0.3,16.1,0.5
	s11.7,0.2,17.9,0.4c6.2,0.1,12.6,0.1,19.2,0.2c6.5,0.1,13.2,0,19.8,0.1c6.6,0,13.3,0,19.8-0.1s13-0.1,19.2-0.2
	c12.5-0.1,24.1-0.2,34-0.3c10-0.1,18.3-0.1,24.1-0.1h9.1c0,0-0.8,0.1-2.4,0.2c-1.6,0.1-3.8,0.2-6.7,0.4c-5.8,0.3-14.1,0.8-24.1,1.3
	s-21.6,0.9-34,1.3c-6.2,0.1-12.7,0.4-19.2,0.4c-6.5,0.1-13.2,0.1-19.8,0.2c-6.6,0-13.3,0-19.8-0.2c-6.5-0.1-13-0.3-19.2-0.4
	c-6.2-0.2-12.3-0.4-18-0.8c-2.9-0.2-5.6-0.3-8.3-0.5c-2.7-0.2-5.3-0.4-7.8-0.5c-2.5-0.2-4.9-0.3-7.1-0.5c-2.3-0.2-4.4-0.4-6.4-0.6
	c-4-0.4-7.6-0.7-10.4-1c-2.9-0.3-5.2-0.6-6.7-0.7C6374.9-840.6,6374.1-840.7,6374.1-840.7L6374.1-840.7z"/>
<radialGradient id="SVGID_2_" cx="177.135" cy="236.976" r="216.865" gradientTransform="matrix(1 0 0 -1 0 615)" gradientUnits="userSpaceOnUse">
	<stop  offset="0" style="stop-color:#C12E00"/>
	<stop  offset="0.186" style="stop-color:#B62901"/>
	<stop  offset="0.517" style="stop-color:#971A03"/>
	<stop  offset="0.953" style="stop-color:#660307"/>
	<stop  offset="1" style="stop-color:#600007"/>
</radialGradient>
<path class="st2" d="M288,155.2c-40.9,4.2-82.2,4.5-123.3,3.7c-14.2-0.3-28.4-0.6-42.5-1.4c-23.9-1.2-47.9-3.5-71.4-7.9
	c4.7,62.3,2.9,74.7,66.2,180.8c3.9,6.5,5,6,11.1,10.4c5.3,3.8,12,5.3,18.4,6.4c21.3,3.8,42.6-0.5,64-2.5c4-0.4,8.1-0.8,12-1.8
	c16.9-4.1,29.6-8.9,37.1-24.7c16.8-35.5,20.4-60.2,36.7-97.2c9.6-21.6,14.6-46.7,15.9-69.3C304.3,153.4,296.1,154.4,288,155.2
	L288,155.2z"/>
<path class="st0" d="M313,121.5c4.6,0.4,8.7,4.5,9.1,9.1c0.4,3.6,0,7.4,1.6,10.6c1.5,3.2,3.2,7.4,6.5,6.1c17.6-6.9,37.3-8.2,55.7-4
	c6.6,1.5,14.7,3.8,20.6,7.4c2.9,1.8,5.4,2.3,5.9,6.4c0,0.4-0.5,3.3-1.2,5c-0.3,0.9-0.2,1.9,0.5,2.6c13.7,14.2,17.1,36.9,10.5,55.6
	c-6.2,17.7-18.2,33.4-33.7,44c-6.3,4.3-13,7.8-19.8,11.2c-8.9,4.6-17.3,10.1-26.3,14.3c-18.7,8.6-37.7,18.5-56.6,26.9
	c-8.6,3.9-17.4,7.8-24.5,14s-12.5,15.2-12.1,24.6c0.4,8.9,5.8,17.1,12.4,22.9c0.9,0.8,1.8,1.6,2.6,2.5c18.9,21.8-23.1,19-32.1,19.4
	c-19.5,0.8-39.2-0.7-58.7-0.7c-15.6,0.7-31.2,1.3-46.8,2c-11.6,0.5-26.1,4.2-36.6-1.5c-0.9-0.5-1.9-1.1-2.5-1.9
	c-1.1-1.3-1.4-3-1.4-4.7c0.2-5.4,3.9-10,7.8-13.8s8.2-7.4,10.2-12.5c1.5-3.9,1.5-8.3,1.4-12.5c-0.1-5-0.7-13.5-1.1-13.5
	c-5.7-35.6-32.9-62.3-48.3-93.7c-17.4-35.7-22.3-82.6-21.8-122c0-2.1,1.7-3.9,3.9-4c35.3-1.5,70.6-3.1,105.9-4.6
	C199.8,114.4,246.6,115.6,313,121.5L313,121.5z"/>
<path class="st0" d="M281.9,274.1c10.6-19.7,19-40.6,25.1-62.1c1.7-6.1,3.4-12.5,7.6-17.3c2.9-3.2,6.7-5.5,10.5-7.5
	c15.9-8.6,38.7-19.1,56.2-9c2.6,1.5,5.9,3.5,8.5,2c0.2-0.1,0.4-0.1,0.6,0.1c15,14.8,5.1,33.5,4.3,35.2c-4.2,8.6-9.8,16.5-16.6,23.2
	c-19.6,19.5-47.6,24.9-73.6,34.1c-7.2,2.5-14.3,5.1-21.8,6.5C280.8,276.8,280.4,276.8,281.9,274.1L281.9,274.1z"/>
<path d="M225.9,305.7c0,0,0.1-0.1,0.2-0.3s0.3-0.5,0.5-0.9c0.5-0.8,1.1-1.8,2.1-3.1c0.9-1.2,2.1-2.6,3.5-3.9c0.7-0.7,1.4-1.4,2.2-2
	c0.8-0.7,1.6-1.3,2.4-1.9c0.8-0.6,1.7-1.2,2.5-1.7c0.8-0.6,1.7-1,2.5-1.5c1.6-1,3.1-1.8,4.4-2.6s2.3-1.5,3-2s1.1-0.9,1.1-0.9
	s-0.1,0.1-0.2,0.3s-0.3,0.5-0.6,0.8c-0.6,0.7-1.4,1.7-2.6,2.7c-1.1,1-2.6,2.1-4.1,3.2c-0.8,0.5-1.6,1.1-2.4,1.6
	c-0.8,0.6-1.6,1.1-2.4,1.7c-1.6,1.2-3.1,2.4-4.6,3.6c-0.7,0.6-1.4,1.2-2,1.8s-1.2,1.1-1.8,1.6c-1.1,1-2,1.9-2.6,2.5
	C226.2,305.4,225.9,305.7,225.9,305.7L225.9,305.7z M226.5,315.1c0,0,0.9,0.5,2,1.3c0.6,0.4,1.2,0.9,1.9,1.5l2.1,1.8
	c0.3,0.3,0.7,0.6,1,0.9c0.4,0.3,0.7,0.6,1,0.9c0.7,0.6,1.3,1.2,1.8,1.7c1,1,1.6,1.9,1.6,1.9s-1-0.3-2.3-0.9
	c-0.7-0.3-1.4-0.7-2.1-1.2c-0.8-0.5-1.6-1.1-2.3-1.7c-0.7-0.6-1.4-1.4-2-2c-0.6-0.7-1.1-1.4-1.5-2
	C226.9,316.1,226.5,315.1,226.5,315.1z M201.3,281.5c0,0,0.3,0.2,0.9,0.7c0.3,0.2,0.6,0.5,0.9,0.8c0.4,0.3,0.8,0.7,1.1,1.2
	c0.8,0.9,1.7,2,2.5,3.2c0.4,0.6,0.8,1.2,1.2,1.9c0.4,0.7,0.8,1.3,1.2,2c0.4,0.7,0.8,1.3,1.2,2c0.4,0.6,0.8,1.3,1.2,1.8
	c0.4,0.6,0.8,1.2,1.2,1.6c0.4,0.5,0.8,1,1.2,1.4l1.1,1.1c0.3,0.3,0.6,0.6,0.9,0.8c0.5,0.4,0.8,0.7,0.8,0.7s-0.4-0.1-1-0.4
	c-0.3-0.1-0.7-0.3-1.1-0.5s-0.9-0.5-1.4-0.9c-0.2-0.2-0.5-0.4-0.8-0.6c-0.2-0.2-0.5-0.4-0.8-0.7c-0.5-0.5-1-1-1.5-1.6
	s-1-1.2-1.4-1.8c-0.5-0.6-0.9-1.3-1.3-2s-0.8-1.4-1.2-2c-0.4-0.7-0.7-1.3-1.1-2c-0.3-0.6-0.7-1.3-1-1.8c-0.3-0.6-0.6-1.1-0.9-1.6
	c-0.6-1-1.1-1.8-1.5-2.4C201.5,281.9,201.3,281.5,201.3,281.5L201.3,281.5z M203,330.6c0,0,0.7-1.5,2.1-3.5c0.7-1,1.5-2.2,2.5-3.4
	l1.5-1.8c0.5-0.6,1.1-1.2,1.6-1.8c0.6-0.6,1.1-1.2,1.7-1.7c0.6-0.6,1.2-1.1,1.7-1.6c1.1-1,2.2-1.9,3.2-2.7c2-1.5,3.4-2.3,3.4-2.3
	s-0.2,0.3-0.7,0.9c-0.5,0.6-1.1,1.3-1.9,2.2s-1.7,2-2.8,3.1c-0.5,0.6-1,1.1-1.6,1.7c-0.5,0.6-1.1,1.2-1.6,1.8
	c-0.6,0.6-1.1,1.2-1.6,1.7c-0.5,0.6-1.1,1.1-1.6,1.7c-1,1.1-2,2.1-2.9,3l-2.1,2.1L203,330.6L203,330.6z M177.1,302.9
	c0,0,0.8-1.4,2.2-3.4c0.7-1,1.5-2.1,2.5-3.3c0.5-0.6,0.9-1.2,1.5-1.8c0.5-0.6,1-1.2,1.6-1.8c0.5-0.6,1.1-1.2,1.6-1.8
	s1.1-1.1,1.6-1.7c1-1.1,2.1-2.1,2.9-2.9c1.8-1.6,3.1-2.6,3.1-2.6s-0.8,1.4-2.2,3.4c-0.7,1-1.5,2.1-2.5,3.3c-0.5,0.6-0.9,1.2-1.5,1.8
	c-0.5,0.6-1,1.2-1.6,1.8c-0.5,0.6-1.1,1.2-1.6,1.8s-1.1,1.1-1.6,1.7c-1,1.1-2.1,2.1-2.9,2.9C178.4,301.9,177.1,302.9,177.1,302.9z
	 M179.1,318.4c0,0,1.1,0.6,2.6,1.8c0.8,0.6,1.6,1.3,2.5,2.1s1.8,1.6,2.7,2.5c0.9,0.9,1.8,1.8,2.5,2.7c0.8,0.9,1.5,1.7,2.1,2.5
	c1.2,1.5,1.8,2.6,1.8,2.6s-1.1-0.6-2.6-1.8c-0.8-0.6-1.6-1.3-2.5-2.1s-1.8-1.6-2.7-2.5c-0.9-0.9-1.8-1.8-2.5-2.7
	c-0.8-0.9-1.5-1.7-2.1-2.5C179.8,319.5,179.1,318.4,179.1,318.4z M154,289.7c0,0,1.2,0.7,2.9,2c0.9,0.6,1.8,1.4,2.8,2.2
	s2.1,1.8,3.1,2.7c1,1,2,1.9,2.9,2.9s1.7,1.9,2.4,2.7c1.4,1.6,2.2,2.8,2.2,2.8s-1.2-0.7-2.9-2c-0.9-0.6-1.8-1.4-2.8-2.2
	s-2.1-1.8-3.1-2.7l-2.9-2.9c-0.9-1-1.7-1.9-2.4-2.7C154.8,290.9,154,289.7,154,289.7z M159.7,333.3v-0.2c0-0.1,0-0.4,0.1-0.7
	s0.2-0.6,0.4-0.9c0.2-0.3,0.4-0.7,0.6-1.1c0.5-0.8,1-1.7,1.7-2.7c0.6-0.9,1.4-1.9,2.1-2.9s1.5-1.9,2.3-2.8c0.8-0.9,1.5-1.6,2.2-2.3
	c1.3-1.3,2.3-2.1,2.3-2.1s-0.5,1.2-1.4,2.8c-0.5,0.8-1,1.7-1.7,2.7c-0.6,1-1.4,1.9-2.1,2.9s-1.5,1.9-2.3,2.8
	c-0.8,0.9-1.5,1.6-2.2,2.3c-0.6,0.7-1.3,1.1-1.6,1.5S159.7,333.3,159.7,333.3z M138.9,309.4c0,0,0.4-0.9,1.2-2.2
	c0.4-0.6,0.9-1.3,1.5-2s1.2-1.5,1.8-2.2c0.7-0.7,1.3-1.4,2-2s1.3-1.2,1.9-1.6c1.2-0.9,2.1-1.4,2.1-1.4s-0.4,0.9-1.2,2.2
	c-0.4,0.6-0.9,1.3-1.5,2s-1.2,1.5-1.8,2.2c-0.7,0.7-1.3,1.4-2,2s-1.3,1.2-1.9,1.6C139.9,308.9,138.9,309.4,138.9,309.4z
	 M136.8,316.3c0,0,1.2,0.6,2.9,1.8c0.8,0.6,1.8,1.3,2.8,2c1,0.8,2,1.6,3,2.5s2,1.8,2.9,2.7s1.7,1.7,2.4,2.5c1.3,1.5,2.1,2.6,2.1,2.6
	s-1.2-0.6-2.9-1.8c-0.8-0.6-1.8-1.3-2.8-2c-1-0.8-2-1.6-3-2.5s-2-1.8-2.9-2.7s-1.7-1.7-2.4-2.5C137.6,317.4,136.8,316.3,136.8,316.3
	z M118.2,293.6c0,0,1.1,0.7,2.5,2c0.7,0.6,1.6,1.4,2.4,2.2c0.9,0.8,1.7,1.8,2.6,2.7c0.8,1,1.7,1.9,2.4,2.9c0.7,0.9,1.4,1.8,1.9,2.6
	c1.1,1.6,1.7,2.8,1.7,2.8s-1.1-0.7-2.5-2c-0.7-0.6-1.6-1.4-2.4-2.2c-0.9-0.8-1.7-1.8-2.6-2.7c-0.8-1-1.7-1.9-2.4-2.9
	c-0.7-0.9-1.4-1.8-1.9-2.6C118.8,294.8,118.2,293.6,118.2,293.6z M123.1,327.7c0,0,0.1-0.2,0.2-0.5s0.3-0.8,0.6-1.3
	c0.5-1,1.3-2.3,2.1-3.6c0.9-1.3,2-2.4,2.9-3.2c0.9-0.7,1.7-1.1,1.7-1.1s-0.1,0.2-0.2,0.5s-0.3,0.8-0.6,1.3c-0.5,1-1.3,2.3-2.2,3.6
	s-2,2.4-2.9,3.2C123.9,327.4,123.1,327.7,123.1,327.7z M156.8,281.2c0,0,0.4-1.6,1.4-3.9c0.5-1.2,1-2.5,1.7-3.9
	c0.4-0.7,0.7-1.4,1.1-2.1c0.4-0.7,0.8-1.4,1.3-2.2c0.5-0.7,0.9-1.4,1.4-2.1c0.5-0.7,1-1.3,1.5-1.9c1-1.2,2-2.3,2.9-3.2
	c1.8-1.8,3.2-2.7,3.2-2.7s-0.2,0.4-0.6,1s-1,1.5-1.7,2.5s-1.5,2.2-2.3,3.5c-0.4,0.6-0.9,1.3-1.3,2s-0.9,1.4-1.3,2.1
	c-0.4,0.7-0.9,1.4-1.3,2.1c-0.4,0.7-0.8,1.4-1.3,2c-0.8,1.3-1.6,2.5-2.3,3.6C157.8,279.8,156.8,281.2,156.8,281.2L156.8,281.2z
	 M177,261.3c0,0,1.1,0.4,2.7,1.2c0.8,0.4,1.7,0.9,2.6,1.5s1.9,1.3,2.8,2s1.8,1.5,2.6,2.3c0.8,0.8,1.5,1.5,2.1,2.2
	c1.1,1.3,1.8,2.4,1.8,2.4s-1.1-0.5-2.5-1.5c-0.7-0.5-1.6-1-2.4-1.7c-0.9-0.6-1.8-1.3-2.7-2c-0.9-0.7-1.8-1.5-2.6-2.2
	c-0.8-0.7-1.6-1.4-2.2-2C177.8,262.3,177,261.3,177,261.3L177,261.3z M211.1,274.1c0,0,1.2-1.3,3.2-3.1c1-0.9,2.2-1.9,3.5-2.9
	c0.7-0.5,1.3-1.1,2-1.6s1.4-1.1,2.1-1.6l2.1-1.5c0.3-0.3,0.7-0.5,1-0.7s0.7-0.5,1-0.7c1.4-1,2.7-1.8,3.8-2.5
	c2.3-1.4,3.9-2.2,3.9-2.2s-1.2,1.3-3.2,3.1c-1,0.9-2.1,1.9-3.4,3c-0.3,0.3-0.6,0.5-1,0.8s-0.7,0.5-1,0.8c-0.7,0.5-1.4,1.1-2.1,1.6
	l-2.1,1.5c-0.7,0.5-1.4,1-2.1,1.4c-1.4,0.9-2.7,1.8-3.8,2.4C212.7,273.4,211.1,274.1,211.1,274.1z M237.9,263.3c0,0,0.9,0.7,2.2,1.8
	l2,2c0.7,0.8,1.4,1.6,2.1,2.5s1.3,1.8,1.9,2.6c0.6,0.9,1.1,1.7,1.5,2.4c0.8,1.5,1.3,2.5,1.3,2.5s-0.9-0.7-2.2-1.8l-2-2
	c-0.7-0.8-1.4-1.6-2.1-2.5s-1.3-1.8-1.9-2.6c-0.6-0.9-1.1-1.7-1.5-2.4C238.3,264.4,237.9,263.3,237.9,263.3z M144.4,283
	c0,0-0.3-0.2-0.8-0.4c-0.5-0.3-1.1-0.7-1.9-1.3s-1.6-1.3-2.4-2.2c-0.4-0.4-0.8-0.9-1.2-1.3l-1.2-1.5c-0.8-1-1.5-2.1-2.1-3.1
	s-1.1-2-1.4-2.9c-0.7-1.8-1-3-1-3s0.2,0.2,0.6,0.7c0.3,0.4,0.8,1,1.4,1.8c1.1,1.5,2.6,3.4,4.1,5.4s3,3.9,4.1,5.4
	c0.6,0.7,1,1.4,1.3,1.8C144.3,282.7,144.4,283,144.4,283z M117.8,282.8c0,0,0.1-1,0.6-2.3c0.4-1.3,1.3-3,2.3-4.5s2.3-2.9,3.3-3.8
	c1-0.9,1.9-1.4,1.9-1.4s-0.3,0.9-1,2.1c-0.6,1.2-1.6,2.7-2.6,4.2s-2.1,2.9-3,3.9C118.5,282.1,117.8,282.8,117.8,282.8z M162.2,194.6
	c0.1-1.3,0.1-2.6,0.2-3.9s0.2-2.6,0.4-3.9l0.6-3.9l0.9-3.9c0.4-1.3,0.8-2.5,1.3-3.8c0.2-0.6,0.5-1.2,0.8-1.8l0.9-1.8
	c0.3-0.6,0.7-1.1,1-1.7l1.1-1.6l1.3-1.5l1.4-1.4l0.4,0.4h0.2l0.1,0.3l0.2,0.5l0.4,1.1l0.7,2.1l1.5,4.3l2.9,8.5
	c0.9,2.9,1.9,5.7,2.8,8.6l0.3,1.2l0.2,1.1l0.4,2.2l0.6,4.5c0.7,6,0.8,12.1,0.5,18.1c-0.2,3-0.5,6-0.9,9s-1,6-1.7,8.9
	c-0.6,2.9-1,5.9-2,8.9c-0.3,0.7-0.5,1.5-0.9,2.2s-0.9,1.5-1.7,2c-0.2,0.2-0.8,0.5-1.3,0.5H174c-0.2-0.1-0.5-0.1-0.7-0.3
	c-0.9-0.5-1.4-1.2-1.8-1.9c-0.8-1.4-1.3-2.9-1.8-4.3c-0.4-1.4-1-2.8-1.5-4.2c-1-2.8-1.9-5.7-2.6-8.7c-1.5-5.8-2.4-11.8-2.9-17.8
	C162,206.6,161.9,200.6,162.2,194.6L162.2,194.6z M162.2,194.6c-0.2,6-0.1,12,0.5,18c0.6,6,1.8,11.9,3.4,17.6
	c0.8,2.9,1.8,5.7,2.9,8.5c0.5,1.4,1.2,2.8,1.7,4.2s1,2.8,1.8,4c0.4,0.6,0.8,1.1,1.3,1.3c0.1,0.1,0.2,0.1,0.3,0.1h0.3
	c0.2-0.1,0.4-0.1,0.7-0.4c0.5-0.3,0.8-0.8,1.1-1.4c0.3-0.6,0.5-1.3,0.8-2c0.8-2.8,1.2-5.7,1.7-8.7c0.6-3,1.2-5.9,1.6-8.8
	c0.4-2.9,0.7-5.9,0.9-8.9c0.2-3,0.3-5.9,0.2-8.9c0-3-0.2-5.9-0.5-8.9c-0.1-1.5-0.3-3-0.5-4.4c-0.1-0.7-0.2-1.5-0.3-2.2l-0.2-1.1
	c-0.1-0.3-0.1-0.7-0.2-1c-0.7-2.9-1.6-5.8-2.5-8.6l-2.6-8.6l-1.3-4.3l-0.7-2.2l-0.3-1.1l-0.2-0.5L172,166c-0.1-0.2,0-0.4,0-0.6
	l0.4,0.4l-1.4,1.4l-1.3,1.5l-1.2,1.6c-0.4,0.6-0.7,1.1-1.1,1.7c-0.3,0.6-0.6,1.1-0.9,1.7s-0.6,1.2-0.8,1.8c-0.5,1.2-1,2.5-1.3,3.7
	c-0.4,1.3-0.7,2.5-1,3.8s-0.5,2.6-0.7,3.9s-0.3,2.6-0.4,3.9C162.3,191.9,162.2,193.3,162.2,194.6L162.2,194.6z"/>
<path d="M188.5,220.9c1.6-2.7,3.1-5.3,4.8-7.9c0.4-0.6,0.9-1.3,1.3-1.9c0.5-0.6,0.9-1.2,1.4-1.9c1-1.2,2-2.4,3.1-3.5l0.5-0.5v0.7
	l0.1,2.5v2.5l-0.2,2.5l-0.3,2.5l-0.4,2.5l-0.6,2.4c-0.2,0.8-0.5,1.6-0.7,2.4c-0.3,0.8-0.5,1.6-0.8,2.4c-0.6,1.6-1.2,3.1-2,4.6
	c-0.7,1.5-1.5,3-2.4,4.4c-1.8,2.8-3.7,5.5-6,8c-1.1,1.2-2.1,2.5-3.3,3.7c-0.6,0.6-1.2,1.2-2,1.7c-0.4,0.3-0.8,0.5-1.3,0.6
	c-0.3,0-0.6,0.1-0.9,0h-0.2c-0.2-0.1-0.1,0-0.1,0l-0.1-0.1l-0.3-0.1c-1.1-0.8-1.2-1.9-1.2-2.7c0-0.9,0.2-1.8,0.4-2.6
	c0.5-1.6,1.1-3.1,1.7-4.6c1.3-3,2.8-5.9,4.4-8.8C185.1,226.5,186.8,223.7,188.5,220.9L188.5,220.9z M188.5,220.9
	c-1.6,2.8-3.3,5.6-4.8,8.6c-1.5,2.9-2.8,5.9-3.9,9c-0.5,1.5-1.1,3.1-1.4,4.6c-0.2,0.8-0.3,1.6-0.3,2.3c0,0.4,0.1,0.7,0.2,1
	s0.3,0.5,0.5,0.6c0.5,0.2,0.4,0.2,0.7,0.1c0.3-0.1,0.6-0.3,0.9-0.5c0.6-0.4,1.1-1,1.7-1.6c1.1-1.2,2.1-2.5,3.1-3.7s2-2.5,3-3.8
	c0.9-1.3,1.8-2.7,2.7-4l2.4-4.2c0.3-0.7,0.7-1.4,1.1-2.2c0.3-0.7,0.7-1.5,1-2.2c0.6-1.5,1.2-3,1.7-4.5c0.2-0.8,0.5-1.5,0.7-2.3
	l0.6-2.4l0.4-2.4l0.3-2.4l0.2-2.4l0.1-2.4l0.5,0.2c-1.1,1-2.2,2.1-3.2,3.3c-1,1.2-1.9,2.4-2.9,3.6
	C191.6,215.6,190.1,218.3,188.5,220.9L188.5,220.9z M232.6,206.2l0.5-2.8l0.6-2.8l0.7-2.7l0.7-2.7l0.8-2.7l0.8-2.7l0.9-2.7l1-2.7
	l1-2.6l1.1-2.6c0.7-1.7,1.5-3.5,2.3-5.2s1.6-3.4,2.5-5.1s1.7-3.3,2.7-5l0.8-1.4l0.2,1.6l0.5,4.1l0.4,4.1c0.2,2.8,0.4,5.5,0.6,8.3
	c0.1,2.8,0.2,5.6,0.2,8.3c0,2.8,0,5.6-0.1,8.3c-0.2,5.6-0.7,11.1-1.4,16.6c-0.4,2.8-0.8,5.5-1.2,8.3c-0.5,2.7-1,5.5-1.6,8.2
	s-1.2,5.4-2.1,8.1c-0.9,2.7-2,5.3-3.5,7.7c-0.8,1.2-1.5,2.4-2.9,3.3c-0.3,0.2-0.8,0.4-1.3,0.4s-0.9-0.3-1.2-0.6
	c-0.6-0.6-0.9-1.3-1.1-2c-0.5-1.3-0.8-2.7-1.1-4.1c-0.3-1.4-0.6-2.7-0.8-4.1C230.4,228.3,230.7,217.1,232.6,206.2z M232.6,206.2
	c-0.9,5.5-1.5,11-1.4,16.5c0,5.5,0.6,11.1,1.7,16.5c0.3,1.4,0.6,2.7,0.9,4s0.7,2.7,1.2,3.9c0.3,0.6,0.6,1.2,1,1.6
	c0.4,0.4,0.8,0.4,1.3,0c0.5-0.3,0.9-0.8,1.3-1.3s0.7-1.1,1.1-1.7c1.4-2.3,2.3-4.9,3.1-7.5c0.8-2.6,1.3-5.3,1.8-8s1-5.4,1.4-8.2
	c0.4-2.7,0.8-5.5,1.2-8.2c0.3-2.7,0.6-5.5,0.9-8.2c0.2-2.7,0.4-5.5,0.6-8.3c0.1-2.8,0.2-5.5,0.3-8.3v-8.3c0-2.8-0.2-5.5-0.3-8.3
	l-0.3-4.1l-0.4-4.1l0.9,0.2c-1,1.6-1.9,3.2-2.8,4.9c-0.9,1.6-1.8,3.3-2.6,5c-0.8,1.7-1.7,3.4-2.4,5.1c-0.8,1.7-1.5,3.4-2.2,5.2
	l-1,2.6l-1,2.7c-0.6,1.8-1.2,3.6-1.7,5.4l-0.7,2.7l-0.7,2.7l-0.6,2.8L232.6,206.2L232.6,206.2z M99.2,176.7c0,0,0.3,0.6,0.9,1.7
	c0.6,1.1,1.4,2.7,2.4,4.7c1,2.1,2.2,4.6,3.4,7.5c0.7,1.5,1.3,3,2,4.7s1.3,3.4,2,5.3c1.3,3.7,2.6,7.7,3.8,12.1
	c1.2,4.3,2.3,9,3.1,13.8c0.2,1.2,0.4,2.4,0.6,3.7c0.2,1.2,0.4,2.5,0.5,3.7c0.3,2.5,0.5,5.1,0.7,7.6c0.3,2.5,0.7,5.1,0.6,7.8
	c0,1.4-0.1,2.7-0.6,4.2c-0.3,0.7-0.7,1.5-1.5,2c-0.9,0.5-1.9,0.5-2.6,0.3c-0.2,0-0.4-0.1-0.6-0.2l-0.3-0.1l-0.1-0.1h-0.1
	c0,0-0.2-0.1-0.1-0.1l-0.9-0.5l-0.9-0.7l-0.8-0.7c-1-1-1.8-2.1-2.5-3.3c-1.4-2.3-2.5-4.7-3.5-7.1c-1-2.4-1.9-4.7-2.9-7.1
	c-0.9-2.4-1.7-4.7-2.5-7.1c-0.7-2.4-1.3-4.7-1.8-7s-0.9-4.6-1.2-6.8c-0.6-4.5-0.9-8.7-0.9-12.7c0-3.9,0.2-7.5,0.6-10.7
	c0.2-1.6,0.4-3.1,0.7-4.4c0.3-1.4,0.8-2.5,1.1-3.6c0.7-2.2,1.2-3.9,1.4-5.1c0.1-0.6,0.1-1.1,0.1-1.4S99.2,176.7,99.2,176.7
	L99.2,176.7z M99.2,176.7c0,0,0.1,0.1,0.1,0.5v1.4c-0.1,1.2-0.5,3-1.1,5.2c-0.3,1.1-0.7,2.3-0.9,3.6c-0.2,1.3-0.3,2.8-0.5,4.4
	c-0.2,3.2-0.3,6.7-0.2,10.6s0.5,8.1,1.2,12.5c0.7,4.4,1.8,9,3.2,13.6c0.7,2.3,1.5,4.6,2.5,6.9c1,2.3,2,4.7,3,7s2.1,4.7,3.4,6.8
	c0.7,1.1,1.4,2.1,2.2,2.9l0.6,0.6c0.2,0.2,0.4,0.3,0.6,0.5l0.9,0.5c0.1,0-0.1,0,0,0h0.1l0.2,0.1c0.1,0.1,0.2,0.1,0.4,0.1
	c0.5,0.1,0.9,0.1,1.1-0.1c0.3-0.2,0.5-0.5,0.7-1c0.4-1,0.5-2.3,0.5-3.5c0-2.5-0.3-5-0.6-7.6s-0.4-5.1-0.7-7.6
	c-0.1-1.2-0.3-2.5-0.4-3.7c-0.2-1.2-0.3-2.4-0.5-3.6c-0.8-4.8-1.7-9.4-2.8-13.7s-2.2-8.4-3.5-12.1c-1.2-3.7-2.4-7.1-3.6-10
	c-1.1-3-2.2-5.5-3.1-7.6c-0.9-2.1-1.6-3.7-2.1-4.8C99.5,177.3,99.2,176.7,99.2,176.7L99.2,176.7z M147.7,210.1l0.2,0.2
	c0.1,0.1,0.2,0.3,0.4,0.5c0.3,0.5,0.7,1.3,1.1,2.4c0.8,2.1,1.7,5.1,2.9,8.8c1.1,3.6,2.4,7.9,4.2,12.2c0.9,2.2,2,4.3,3.4,6.2
	c0.7,0.9,1.6,1.7,2.5,1.9c0.9,0.3,1.8,0,2.7-0.7l0.2-0.1c0,0,0.1-0.1,0,0l0.1-0.1l0.3-0.3l0.3-0.3l0.2-0.3l0.2-0.3l0.2-0.4l0.2-0.3
	l0.1-0.4c0.3-1,0.3-2.2,0.1-3.3c-0.5-2.3-1.5-4.5-2.6-6.5c-2.3-4-5.1-7.5-7.6-10.4s-4.7-5.1-6.3-6.6c-0.8-0.7-1.5-1.3-1.9-1.7
	C147.9,210.3,147.7,210.1,147.7,210.1L147.7,210.1z M147.7,210.1c0,0,1.1,0.6,2.9,2c1.7,1.4,4.2,3.4,6.9,6.2
	c1.3,1.4,2.8,2.9,4.2,4.6c1.4,1.7,2.8,3.6,4.1,5.6c1.2,2.1,2.5,4.4,3,7c0.2,1.3,0.3,2.8-0.1,4.2l-0.2,0.5l-0.2,0.5l-0.2,0.5
	l-0.3,0.5l-0.4,0.5l-0.3,0.3l-0.3,0.3l-0.1,0.1c-0.1,0.1-0.1,0-0.1,0.1h-0.1l-0.2,0.2l-0.9,0.6c-0.4,0.1-0.7,0.3-1.1,0.4
	c-0.8,0.2-1.6,0.2-2.4-0.1c-1.5-0.5-2.6-1.6-3.4-2.6c-1.6-2.2-2.6-4.5-3.5-6.7c-0.9-2.3-1.5-4.5-2.2-6.6c-0.6-2.1-1.1-4.1-1.6-6
	c-0.9-3.7-1.5-6.8-2.1-9c-0.3-1.1-0.6-1.9-0.8-2.4c-0.1-0.2-0.2-0.5-0.3-0.6C147.7,210.2,147.7,210.1,147.7,210.1L147.7,210.1z"/>
<path d="M122.5,223.5c0.8-1.8,1.8-3.5,2.7-5.2s1.8-3.5,2.3-5.4l0.4,0.1c-0.3,1.3-0.1,2.6,0.1,4c0.2,1.3,0.5,2.7,0.9,4
	c0.3,1.3,0.6,2.7,0.9,4c0.3,1.4,0.5,2.7,0.5,4.3c-0.1,1.4-0.2,2.8-0.3,4.1c-0.1,1.4-0.4,2.8-0.6,4.1c-0.3,1.4-0.6,2.7-1,4.1
	c-0.4,1.3-1,2.7-1.7,3.9l-0.6,0.9c-0.2,0.3-0.5,0.6-0.8,0.9l-0.4,0.4l-0.4,0.3c-0.3,0.2-0.5,0.4-0.9,0.6l-0.5,0.3l-0.6,0.2
	c-0.2,0.1-0.4,0.1-0.6,0.2c-0.2,0-0.4,0.1-0.7,0.1c-0.5,0-1-0.2-1.4-0.5s-0.6-0.7-0.8-1.1c-0.6-1.5-0.7-2.9-0.6-4.3
	c0-1.4,0.2-2.8,0.4-4.1c0.4-2.7,1-5.4,1.6-8.1c0.3-1.3,0.7-2.7,1-4C121.6,226,122,224.7,122.5,223.5L122.5,223.5z M122.5,223.5
	c-0.5,1.3-0.9,2.6-1.3,3.9c-0.4,1.3-0.6,2.7-0.9,4c-0.5,2.7-0.9,5.4-1,8.1c-0.1,1.4-0.1,2.7,0,4.1c0.1,1.3,0.3,2.7,0.8,3.7
	c0.3,0.5,0.6,0.7,1,0.7s0.9-0.3,1.4-0.6c1.1-0.7,1.9-1.6,2.5-2.7c0.6-1.1,1.1-2.3,1.5-3.6s0.7-2.6,1-3.9c0.3-1.3,0.5-2.6,0.7-4
	c0.2-1.3,0.4-2.7,0.5-4c0.1-1.2,0-2.6-0.2-3.9c-0.2-1.3-0.4-2.7-0.6-4c-0.2-1.4-0.4-2.7-0.6-4.1c-0.1-1.4-0.2-2.8,0.2-4.2l0.4,0.1
	c-0.7,1.8-1.7,3.6-2.6,5.3C124.3,220,123.4,221.7,122.5,223.5L122.5,223.5z M77.4,231.6c0.7,0.6,1.4,1.1,2,1.8
	c0.6,0.6,1.2,1.3,1.8,2c1.1,1.4,2.2,2.8,3.2,4.2s2,2.9,3.1,4.3c0.5,0.7,1.1,1.4,1.6,2.1c0.6,0.7,1.1,1.3,1.7,1.9l0.9,0.9l1,0.8
	c0.3,0.3,0.7,0.5,1,0.7s0.7,0.5,1.1,0.7c0.4,0.2,0.7,0.4,1.1,0.6l1.2,0.4c0.4,0.2,0.8,0.3,1.2,0.4l1.2,0.3c3.4,0.8,6.8,1.4,10.3,1.7
	l-1.1,1.2l-0.6-2.5l-0.9-2.4c-0.4-0.8-0.8-1.5-1.2-2.3c-0.5-0.7-0.9-1.5-1.4-2.1c-0.5-0.7-1.1-1.4-1.6-2c-0.6-0.6-1.2-1.3-1.8-1.9
	c-0.7-0.6-1.3-1.2-2-1.7l-2.1-1.6l-2.2-1.5l-2.3-1.3l-2.4-1.2c-0.8-0.4-1.6-0.7-2.5-1c-0.8-0.3-1.7-0.6-2.5-0.9
	c-0.8-0.3-1.7-0.5-2.6-0.7c-0.9-0.2-1.7-0.3-2.6-0.5C79.2,231.8,78.3,231.7,77.4,231.6L77.4,231.6z M77.4,231.6h2.7
	c0.9,0.1,1.8,0.1,2.7,0.3s1.8,0.3,2.7,0.5s1.8,0.4,2.6,0.7c0.9,0.3,1.7,0.6,2.6,0.9c0.8,0.4,1.7,0.7,2.5,1.1l2.4,1.2l2.4,1.4
	l2.3,1.6l2.1,1.8c0.7,0.6,1.3,1.3,2,1.9l1.8,2.1c0.6,0.7,1.1,1.5,1.6,2.3s0.9,1.6,1.3,2.5c0.4,0.9,0.7,1.7,1,2.6
	c0.2,0.9,0.4,1.8,0.7,2.7l0.3,1.3l-1.4-0.2c-1.8-0.2-3.5-0.4-5.3-0.7s-3.5-0.7-5.2-1.1c-0.4-0.1-0.9-0.2-1.3-0.4
	c-0.4-0.1-0.8-0.2-1.3-0.4l-1.3-0.5c-0.4-0.2-0.8-0.4-1.2-0.7c-0.4-0.2-0.8-0.5-1.2-0.8s-0.8-0.5-1.1-0.8l-1-0.9
	c-0.3-0.3-0.6-0.7-0.9-1c-2.5-2.7-4.2-5.8-6.1-8.8c-0.9-1.5-1.8-3-2.9-4.4c-0.5-0.7-1-1.4-1.6-2.1C78.7,232.9,78,232.3,77.4,231.6
	L77.4,231.6z M264.4,213.1c0.6,0.8,1.1,1.6,1.5,2.6c0.4,0.9,0.7,1.9,0.8,2.8c0.2,1,0.2,2,0.2,3s-0.1,2-0.3,3c-0.2,1-0.4,1.9-0.7,2.9
	c-0.3,0.9-0.7,1.9-1.2,2.8c-0.5,0.9-1,1.7-1.6,2.6l-1.8,2.4c-2.6,3-5.7,5.6-8.9,8c-1.6,1.2-3.1,2.4-4.7,3.5c-1.6,1.2-3.3,2.3-5,3.3
	l-1.5,0.8v-1.7c0-0.7,0.1-1.1,0.3-1.6c0.1-0.5,0.3-0.9,0.5-1.3c0.3-0.9,0.7-1.7,1.2-2.5c0.8-1.6,1.7-3.2,2.6-4.7
	c1.9-3,3.8-6,5.8-8.9s4.1-5.8,6.2-8.7c1-1.4,2.1-2.9,3.2-4.3c0.5-0.7,1.1-1.4,1.6-2.1c0.3-0.3,0.6-0.7,0.9-1
	c0.1-0.2,0.3-0.3,0.5-0.5c0.1-0.1,0.2-0.2,0.3-0.2C264.2,213.2,264.3,213.1,264.4,213.1L264.4,213.1z M264.4,213.1
	c-0.1-0.1-0.2,0-0.3,0.1c-0.1,0.1-0.2,0.1-0.2,0.2l-0.5,0.5c-0.3,0.3-0.6,0.7-0.8,1c-0.5,0.7-1.1,1.4-1.6,2.1c-1,1.4-2,2.9-3,4.4
	s-1.9,3-2.8,4.5l-2.7,4.5c-1.8,3-3.6,6.1-5.2,9.2c-0.8,1.6-1.6,3.1-2.4,4.7c-0.4,0.8-0.7,1.6-1,2.4c-0.3,0.8-0.6,1.7-0.6,2.2
	l-1.5-0.8c1.7-1,3.3-2.1,4.9-3.2c1.6-1.1,3.2-2.3,4.8-3.4c3.2-2.3,6.4-4.5,9.1-7.3c0.7-0.7,1.3-1.4,1.9-2.2c0.6-0.7,1.2-1.6,1.7-2.4
	c0.5-0.8,0.9-1.7,1.3-2.6c0.4-0.9,0.7-1.8,0.9-2.8c0.2-1,0.4-1.9,0.4-2.9s0-2-0.1-2.9c-0.2-1-0.4-1.9-0.8-2.8
	C265.5,214.8,264.9,213.9,264.4,213.1L264.4,213.1z M217.8,207.9c0,0,0,0.1-0.1,0.2s-0.2,0.3-0.3,0.6c-0.3,0.5-0.5,1.4-0.6,2.5
	s0,2.4,0.4,3.9c0.3,1.5,0.9,3.2,1.6,4.9c1.4,3.6,3.1,7.7,5.2,11.9c1.1,2.1,2.3,4.3,3.6,6.3c0.7,1,1.5,2,2.3,2.7
	c0.8,0.8,1.8,1.3,2.5,1.2c0.4-0.1,0.7-0.3,1.1-0.7l0.1-0.1c0,0-0.1,0.2-0.1,0.1l0.1-0.2c0.1-0.1,0.2-0.3,0.2-0.3
	c0-0.1,0-0.1,0.1-0.2v-0.4c0.1-1-0.2-2.2-0.5-3.4c-0.7-2.3-1.7-4.6-2.7-6.7c-2.1-4.3-4.3-8.1-6.2-11.4c-1.9-3.3-3.6-6-4.8-7.9
	C218.5,209,217.8,207.9,217.8,207.9L217.8,207.9z M217.8,207.9c0,0,0.8,1,2.2,2.8c1.3,1.8,3.3,4.3,5.4,7.5c2.2,3.2,4.6,7,6.8,11.3
	c1.1,2.2,2.2,4.4,3,6.9c0.4,1.3,0.7,2.6,0.6,4.1l-0.1,0.6c-0.1,0.2-0.1,0.5-0.2,0.7c-0.1,0.3-0.2,0.3-0.3,0.5l-0.1,0.2
	c0.1-0.1-0.1,0.2-0.1,0.1l-0.1,0.1l-0.1,0.1c-0.5,0.6-1.3,1.1-2.1,1.3c-0.9,0.1-1.8-0.1-2.5-0.4c-0.7-0.4-1.3-0.8-1.8-1.3
	c-1-1-1.8-2-2.6-3.1c-1.5-2.2-2.6-4.4-3.6-6.6c-1-2.2-1.9-4.4-2.7-6.4c-0.8-2.1-1.5-4-2-5.9c-0.6-1.9-1-3.6-1.2-5.2
	c-0.2-1.6-0.2-3,0-4.1s0.6-2,0.9-2.5c0.1-0.3,0.3-0.4,0.4-0.6C217.8,208,217.8,207.9,217.8,207.9L217.8,207.9z"/>
<path d="M47.1,142.6c0,0,0.7,8.5,2,23.3c0.7,7.4,1.5,16.4,3.2,26.7c1.7,10.2,4.6,21.6,9.1,33.5c4.5,11.9,10.5,24.4,17.2,37.3
	c1.7,3.2,3.5,6.5,5.3,9.8s3.7,6.6,5.5,9.9c3.7,6.7,7.7,13.5,11.7,20.4s8.2,13.9,12.4,20.9c1.1,1.8,2.1,3.6,3.2,5.1
	c1.1,1.6,2.5,2.8,4.2,3.9c1.7,1.1,3.5,2.3,5.2,3.5c1.6,1.1,3.4,2,5.3,2.7c3.8,1.5,7.8,2.3,11.9,3s8.2,1.1,12.4,1.3
	c8.4,0.4,16.8-0.2,25.3-1c8.4-0.8,16.9-2,25.4-2.8c4.2-0.4,8.4-0.8,12.4-1.7c4.1-1,8.1-2,12-3.4c3.9-1.3,7.6-3,11-5.1
	s6.4-4.8,8.8-7.9c0.6-0.8,1.2-1.6,1.7-2.4c0.5-0.8,1.1-1.7,1.5-2.5l1.4-2.6l1.3-2.8c1.7-3.7,3.3-7.3,4.8-11
	c6.1-14.7,10.9-29.4,15.6-43.2c2.4-6.9,4.7-13.7,7.2-20.1c2.5-6.4,5-12.6,7.6-18.5c5.2-11.6,8.8-22.7,11.3-32.8
	c1.3-5,2.2-9.8,3-14.2c0.7-4.4,1.4-8.5,1.8-12.2c0.9-7.4,1.3-13.2,1.4-17.2c0.1-2,0.1-3.5,0.1-4.6v-1.6v6.2c-0.1,4-0.3,9.9-1,17.3
	c-0.4,3.7-0.9,7.8-1.6,12.3c-0.7,4.4-1.6,9.2-2.7,14.3c-1.2,5.1-2.5,10.5-4.3,16c-1.8,5.6-4,11.3-6.5,17.2s-5,12-7.4,18.5
	s-4.7,13.2-6.9,20.1c-4.5,13.9-9.1,28.7-15.3,43.5c-1.5,3.7-3.1,7.4-4.8,11.1l-1.3,2.8l-1.4,2.8c-0.5,0.9-1.1,1.8-1.6,2.7
	c-0.6,0.9-1.2,1.7-1.8,2.6c-2.6,3.4-5.9,6.3-9.5,8.6s-7.6,4.1-11.6,5.5s-8.2,2.5-12.3,3.5c-4.2,1-8.5,1.4-12.7,1.8
	c-8.4,0.8-16.8,2-25.4,2.9c-8.5,0.9-17.1,1.4-25.7,0.9c-4.3-0.2-8.6-0.7-12.8-1.4c-4.2-0.8-8.4-1.6-12.5-3.2c-2-0.8-4-1.8-5.8-3
	s-3.4-2.3-5.2-3.5c-0.9-0.6-1.8-1.2-2.6-2s-1.6-1.6-2.2-2.5c-1.3-1.8-2.3-3.6-3.3-5.4c-4.1-7.1-8.3-14.1-12.3-21
	s-7.9-13.7-11.6-20.5c-1.8-3.4-3.7-6.7-5.4-10s-3.5-6.6-5.2-9.9c-6.6-13.1-12.5-25.7-16.9-37.8c-0.5-1.5-1-3-1.6-4.5
	c-0.5-1.5-1.1-2.9-1.4-4.4c-0.4-1.5-0.8-2.9-1.3-4.4c-0.4-1.4-0.9-2.9-1.2-4.3c-0.6-2.9-1.3-5.6-1.8-8.3c-0.5-2.7-0.9-5.4-1.4-7.9
	c-1.5-10.3-2.1-19.3-2.6-26.8C47.7,151.1,47.1,142.6,47.1,142.6L47.1,142.6z"/>
<path d="M93.5,272.6c0,0,1.3,0.4,3.1,1.3c0.9,0.4,1.9,1,3,1.7c1.1,0.6,2.2,1.4,3.2,2.1c1.1,0.8,2.1,1.6,3.1,2.4
	c0.9,0.8,1.8,1.6,2.5,2.3c1.4,1.4,2.2,2.5,2.2,2.5s-1.2-0.6-2.9-1.6c-0.9-0.5-1.8-1.1-2.9-1.8c-1-0.7-2.1-1.4-3.2-2.2
	c-1.1-0.8-2.1-1.6-3.1-2.3c-1-0.8-1.9-1.5-2.6-2.1C94.4,273.6,93.5,272.6,93.5,272.6L93.5,272.6z M106.2,299.8c0,0,0.2-0.7,0.6-1.5
	c0.4-0.8,1.1-1.8,1.9-2.7c0.8-0.9,1.7-1.7,2.6-2.2c0.8-0.5,1.4-0.7,1.4-0.7s-0.2,0.7-0.6,1.5c-0.4,0.8-1.1,1.8-1.9,2.7
	c-0.8,0.9-1.7,1.7-2.6,2.2C106.9,299.6,106.2,299.8,106.2,299.8z M257,272.7c0,0,0.4-0.9,1.3-2c0.8-1.1,2.2-2.5,3.7-3.6
	s3.2-2,4.5-2.4c1.3-0.5,2.3-0.6,2.3-0.6l-0.5,0.5c-0.3,0.3-0.7,0.7-1.2,1.1c-1,0.9-2.5,2-3.9,3s-2.9,2.1-4.1,2.8
	c-0.6,0.4-1.1,0.7-1.4,0.9C257.2,272.6,257,272.7,257,272.7L257,272.7z M257.6,283c0,0,0.5,0.1,1.1,0.4c0.6,0.3,1.2,0.7,1.7,1.3
	s0.9,1.3,1.1,1.9c0.2,0.6,0.2,1.1,0.2,1.1s-0.5-0.1-1.1-0.4c-0.6-0.3-1.2-0.7-1.7-1.3s-0.9-1.3-1.1-1.9
	C257.6,283.5,257.6,283,257.6,283z M309,148.6c0,0-1,0.2-2.9,0.6s-4.7,0.9-8.2,1.5s-7.9,1.2-12.8,1.8c-2.5,0.3-5.1,0.6-7.9,0.9
	s-5.7,0.6-8.8,0.9c-6.1,0.5-12.8,1.1-19.8,1.5s-14.5,0.9-22.2,1.1c-7.7,0.3-15.6,0.5-23.7,0.5c-8.1,0.1-16.3,0.1-24.5,0
	c-4.1-0.1-8.2-0.1-12.3-0.2l-3.1-0.1h-1.6l-1.5-0.1c-2-0.1-4.1-0.1-6.1-0.2c-8.1-0.3-16-0.6-23.7-0.9c-3.9-0.2-7.6-0.3-11.3-0.5
	s-7.3-0.5-10.8-0.8c-7-0.6-13.7-1.2-19.8-1.9c-6.1-0.7-11.7-1.4-16.7-2.2c-4.9-0.7-9.3-1.5-12.8-2.1s-6.3-1.2-8.2-1.6
	s-2.9-0.6-2.9-0.6s1,0.2,2.9,0.4c1.9,0.3,4.7,0.7,8.2,1.2c7.1,1,17.3,2.1,29.5,3.2c6.1,0.5,12.8,1,19.8,1.4
	c3.5,0.2,7.1,0.4,10.8,0.5s7.5,0.2,11.3,0.3c7.7,0.2,15.6,0.4,23.7,0.6c2,0.1,4,0.1,6.1,0.2h6.1c4.1,0,8.2,0.1,12.3,0.1
	c8.2,0.1,16.4,0.1,24.5,0.1s16-0.1,23.7-0.3c7.7-0.2,15.1-0.4,22.1-0.6c7-0.3,13.7-0.6,19.8-1c6.1-0.4,11.8-0.8,16.7-1.2
	c5-0.4,9.3-0.8,12.9-1.3c3.6-0.4,6.4-0.8,8.3-1.1C308,148.7,309,148.6,309,148.6L309,148.6z"/>
<path class="st3" d="M223.5,310c-13.5,6.8-11-10.3-9.7-17c2.4-12.5,7.4-24.4,12.3-36.1c35-83.4,70-166.9,105-250.3
	c-0.4-0.2-0.2-1.2,0.2-1.5c1.5-1,3.5-0.4,5.2,0.2c2.9,1.1,5.9,2.2,8.5,3.8s5,4,6.1,6.9c2.2,5.5-4,13-6.4,17.6
	c-4.1,7.9-7.2,16.3-10.7,24.5c-13.7,32.4-32.6,62.6-44.5,95.8c-10.2,28.4-21.6,54.9-34.4,82.1C243.5,260.3,236.5,286.3,223.5,310z"
	/>
<path d="M336,13.8c0,0-0.5,1.1-1.3,3.2c-0.9,2.1-2.1,5.2-3.8,9.1c-3.2,7.9-7.8,19.1-13.3,32.6s-12,29.2-18.9,46.1
	c-6.9,16.8-14.4,34.8-21.8,52.7c-7.5,17.9-14.9,35.9-21.9,52.7s-13.6,32.5-19.3,45.9c-11.3,26.9-18.8,44.8-18.8,44.8l1.2-3.3
	c0.8-2.1,2-5.2,3.6-9.2c3.1-7.9,7.5-19.2,13-32.7c2.7-6.8,5.7-14.1,8.8-21.8c3.1-7.7,6.5-15.9,9.9-24.3
	c6.9-16.8,14.3-34.8,21.7-52.8c7.5-17.9,15-35.8,22-52.6c3.5-8.4,7-16.5,10.2-24.2c3.3-7.7,6.4-14.9,9.2-21.6
	c2.8-6.7,5.5-12.8,7.9-18.3c2.4-5.4,4.4-10.2,6.1-14.1s3.1-6.9,4-9C335.5,14.9,336,13.8,336,13.8L336,13.8z M341.4,14.9
	c0,0-0.5,1.1-1.3,3.2c-0.9,2.1-2.1,5.2-3.8,9.1c-3.2,7.9-7.8,19.1-13.3,32.6s-12,29.2-18.9,46.1c-6.9,16.8-14.4,34.8-21.8,52.7
	c-7.5,17.9-14.9,35.9-21.9,52.7c-7,16.8-13.6,32.5-19.3,45.9c-11.3,26.9-18.8,44.8-18.8,44.8l1.2-3.3c0.8-2.1,2-5.2,3.6-9.2
	c3.1-7.9,7.5-19.2,13-32.7c2.7-6.8,5.7-14.1,8.8-21.8c3.1-7.7,6.5-15.9,9.9-24.3c6.9-16.8,14.3-34.8,21.7-52.8
	c7.5-17.9,15-35.8,22-52.6c3.5-8.4,7-16.5,10.2-24.2c3.3-7.7,6.4-14.9,9.2-21.6c2.8-6.7,5.5-12.8,7.9-18.3
	c2.4-5.4,4.4-10.2,6.1-14.1s3.1-6.9,4-9C340.9,16,341.4,14.9,341.4,14.9L341.4,14.9z"/>
</svg>
