<svg id="Layer_1" xmlns="http://www.w3.org/2000/svg" viewBox="0 0 705 705"><style>.st0,.st1{fill:none}.st1{stroke:#000;stroke-width:5;stroke-miterlimit:10}.st2{opacity:.9;fill:url(#SVGID_1_);enable-background:new}.st3{fill:url(#SVGID_2_)}.st4{fill:none;stroke:#000;stroke-width:2;stroke-miterlimit:10}</style><path class="st0" d="M122.5 0h460v705h-460V0z"/><path class="st1" d="M6711.1-565.6c.3 38.5.2 82.4-5.7 120.5-2.3 14.7-3.7 31.7-10.6 44.9-9.4 17.9-18.6 35.9-34 49.5-5.5 4.9-11.5 9.2-17.9 12.8-4.2 2.3-15.3 5.1-15.9 10.8-.4 3.6 3.8 5.7 6.9 7.6 6.9 4.3 10.9 12.3 11.6 20.4 1.5 15.4-5.6 30.7-18.9 38.8-.8.5-1.6 1-1.9 1.8-.7 2.1 2.1 3.4 4.2 3.8 12.1 2.1 24 5 35.7 8.7 7.7 2.4 24.3 10.6 12 18.5-7.7 4.9-17 6.2-26 7.3-24.7 3.1-49.7 6.2-74.5 3.9-5.6-.5-11.2-1.4-16.8-2.2l-22.5-3.3c-5.3-.8-11.8-2.7-12.7-7.9-1.7-10.2 16.6-15.1 23.6-17.2 4.9-1.5 36.5-4.6 35.6-9.3-.5-2.4-2.8-3.9-4.8-5.4-8.9-6.4-15-16.4-16.6-27.2-1.6-10.8 1.3-22.2 7.9-30.9 2.2-2.9 4.9-6 4.4-9.6-.2-1.5-1-2.9-2-4.1-5.1-6.7-15.9-9.5-22.8-14.7-7.9-6-15.2-12.8-21.6-20.4-12.5-14.5-22.1-31.5-27.6-49.9-5.2-17.2-6.9-35.3-8.2-53.2-2.3-31-3.6-62-3.8-93.1 20.2-2.4 42-1.8 62.4-1.4 52.8 1.1 160.5-1.6 160.5.5z"/><path d="M6584.5-250.7v1.9c0 .6.1 1.3.6 1.9.4.6 1.2.8 2.2.8 2.1-.1 4.5-.2 7.1-.2 1.3 0 2.7-.1 4-.1 1.4-.1 2.8-.1 4.1-.2 1.4-.1 2.8-.1 4.1-.2 1.4-.1 2.7-.1 4-.2 2.6-.1 5-.2 7.1-.3 2-.1 3.7-.6 4.6-1.3.4-.4.7-.8.8-1.1.1-.3.2-.5.2-.5v.5c-.1.3-.2.8-.6 1.3s-1.1 1-1.9 1.4-1.8.7-2.8.8c-2.1.4-4.5.7-7.1.9-1.3.1-2.7.3-4 .4-1.4.1-2.8.2-4.2.2-1.4 0-2.8.1-4.2.1h-4.1c-2.6-.1-5.1-.2-7.2-.4-.5-.1-1.1-.1-1.6-.4-.5-.3-.9-.7-1.1-1.1-.4-.9-.4-1.7-.3-2.3s.2-1.1.3-1.4c-.1-.3 0-.5 0-.5zm-.4-84.6s.6.2 1.6.5c.5.2 1.2.3 1.9.5s1.6.4 2.4.5c.9.2 1.9.3 2.9.5 1 .1 2.1.2 3.3.3 1.1.1 2.3.1 3.5.2h3.6c1.2 0 2.5 0 3.7-.1 1.2 0 2.4-.1 3.6-.1 2.3-.1 4.5-.1 6.3-.3 1.8-.2 3.2-.6 4.1-1.2.4-.3.8-.6 1-.8l.3-.3s-.1.1-.2.4c-.2.3-.4.6-.8 1-.8.8-2.3 1.6-4.2 2-.9.2-2 .4-3 .5-1.1.1-2.2.3-3.3.4l-3.6.3c-1.2.1-2.5.1-3.7.2-1.3 0-2.5 0-3.7-.1-.6 0-1.2-.1-1.8-.1-.6-.1-1.2-.1-1.8-.2-1.2-.1-2.3-.4-3.4-.6-.5-.1-1-.3-1.5-.4-.5-.2-1-.3-1.4-.4-1.8-.6-3.2-1.3-4.2-1.8-1-.6-1.6-.9-1.6-.9zM6534-233.2l.3.3c.2.2.5.4 1 .6.9.5 2.3 1 4.2 1.4 1.9.4 4.2.7 6.8 1.1 2.6.4 5.6.7 8.9 1.1 3.3.3 6.8.7 10.6 1 3.7.3 7.7.5 11.8.7 8.2.3 17 .5 25.7.6 4.4.1 8.8.1 13.1.2 4.3 0 8.5.1 12.6 0s8-.4 11.7-.8c3.7-.5 7.2-1.1 10.4-1.7 6.4-1.4 11.6-3 15.2-4.3 1.8-.7 3.2-1.2 4.2-1.6l1.5-.6s-.5.2-1.4.7c-.9.4-2.3 1.1-4.1 1.8-3.5 1.5-8.7 3.5-15.1 5.1s-14.1 2.9-22.3 3.2c-4.1.2-8.4.2-12.7.2-4.3 0-8.7-.1-13.1-.1-4.4-.1-8.8-.2-13.1-.3-4.3-.1-8.6-.4-12.7-.6-4.1-.3-8.1-.6-11.8-1-3.8-.4-7.3-.8-10.6-1.3-1.6-.3-3.2-.5-4.7-.7-1.5-.3-2.9-.5-4.2-.8-2.6-.5-4.9-1-6.8-1.5s-3.3-1.1-4.1-1.7c-.4-.3-.7-.5-.9-.7-.3-.2-.4-.3-.4-.3z"/><linearGradient id="SVGID_1_" gradientUnits="userSpaceOnUse" x1="6501.3" y1="1150.789" x2="6707.2" y2="1150.789" gradientTransform="matrix(1 0 0 -1 0 707)"><stop offset=".018" stop-color="#801fe3"/><stop offset="1" stop-color="#b7a7ff"/></linearGradient><path class="st2" d="M6501.3-537.4c1.4 24.4 2.7 48.8 4.1 73.2.4 7.9.9 15.9 2.2 23.7 1.8 11.1 5.4 21.8 8.9 32.5 3 9.1 6 18.2 11.1 26.3 17.8 28.1 51.5 32.7 81.9 31.3 10.6-.5 21.3-1.5 31.5-4.7 66.9-21.3 65.2-117 66.1-172.7 0-2.6.1-5.1.1-7.7-68.7 2.2-137.5 4-205.9-1.9z"/><path d="M6496.2-557.1s.6 8.1 1.5 22.2c.5 7.1 1 15.6 1.7 25.5.6 9.8 1.4 20.9 2.1 33.1.4 6.1.7 12.4 1.3 18.9.5 6.5 1.4 13.2 3 19.9 1.6 6.7 3.7 13.5 6 20.4 2.4 6.9 4.5 14 7.5 20.9.8 1.7 1.5 3.4 2.4 5.1.9 1.6 1.8 3.3 2.8 4.8 1.1 1.6 2.2 3.1 3.4 4.7 1.2 1.4 2.5 2.8 3.7 4.3 5.3 5.5 11.7 10 18.8 13.2 7.1 3.3 14.8 5.4 22.6 6.6 7.9 1.3 15.9 1.7 23.9 1.7 8-.1 16.1-.4 24-1.5 3.9-.5 7.9-1.2 11.7-2.2 1-.3 1.9-.5 2.8-.8l.7-.2h.1l.2-.1.4-.1 1.4-.5 2.8-1c.5-.2.9-.3 1.4-.5l1.3-.6c7.1-3.1 13.7-7.4 19.4-12.5 5.7-5.1 10.5-11.1 14.4-17.5 4-6.3 7.1-13.1 9.7-19.8 2.6-6.8 4.6-13.6 6.3-20.3 3.2-13.5 5-26.5 6.2-38.5 1.1-12.1 1.7-23.2 2-33 .3-9.9.5-18.4.7-25.5.2-14.2.4-22.2.4-22.2s0 2 .1 5.8c0 3.8.1 9.4.2 16.4 0 7.1 0 15.7-.2 25.5-.1 9.9-.5 21-1.5 33.1s-2.6 25.2-5.7 38.9c-1.6 6.8-3.6 13.7-6.1 20.6s-5.7 13.8-9.8 20.3c-4 6.5-9 12.7-14.8 18.1-5.9 5.4-12.7 9.8-20.2 13.1l-1.4.6c-.5.2-.9.4-1.4.5l-2.8 1-1.4.5-.4.1-.2.1-.2.1-.7.2c-1 .3-2 .6-2.9.8-3.9 1-8 1.8-12 2.4-8.1 1.1-16.2 1.5-24.4 1.6-8.2 0-16.3-.5-24.4-1.8-8-1.3-16-3.5-23.3-7-7.4-3.4-14.1-8.1-19.6-13.9-1.3-1.5-2.6-3.1-3.9-4.6-1.1-1.6-2.2-3.2-3.3-4.7-2.2-3.4-3.9-6.8-5.4-10.4-3-7.1-5.2-14.2-7.5-21.2-2.2-7-4.3-13.9-5.8-20.7-1.6-6.9-2.4-13.6-2.8-20.2-.5-6.6-.7-12.9-1-18.9-.6-12.1-1.1-23.2-1.6-33.1-.5-9.9-.8-18.4-1.2-25.5-.7-14.2-1-22.2-1-22.2z"/><path d="M6496.6-541.7s.8 0 2.4.1 3.8.2 6.7.3c2.9.2 6.4.3 10.5.5 4 .2 8.6.3 13.6.5s10.4.3 16.1.5 11.7.2 17.9.4c6.2.1 12.6.1 19.2.2 6.5.1 13.2 0 19.8.1 6.6 0 13.3 0 19.8-.1s13-.1 19.2-.2c12.5-.1 24.1-.2 34-.3 10-.1 18.3-.1 24.1-.1h9.1s-.8.1-2.4.2c-1.6.1-3.8.2-6.7.4-5.8.3-14.1.8-24.1 1.3s-21.6.9-34 1.3c-6.2.1-12.7.4-19.2.4-6.5.1-13.2.1-19.8.2-6.6 0-13.3 0-19.8-.2-6.5-.1-13-.3-19.2-.4-6.2-.2-12.3-.4-18-.8-2.9-.2-5.6-.3-8.3-.5-2.7-.2-5.3-.4-7.8-.5-2.5-.2-4.9-.3-7.1-.5-2.3-.2-4.4-.4-6.4-.6-4-.4-7.6-.7-10.4-1-2.9-.3-5.2-.6-6.7-.7-1.7-.4-2.5-.5-2.5-.5z"/><radialGradient id="SVGID_2_" cx="299.635" cy="29.976" r="216.865" gradientTransform="matrix(1 0 0 -1 0 707)" gradientUnits="userSpaceOnUse"><stop offset="0" stop-color="#c12e00"/><stop offset=".186" stop-color="#b62901"/><stop offset=".517" stop-color="#971a03"/><stop offset=".953" stop-color="#660307"/><stop offset="1" stop-color="#600007"/></radialGradient><path class="st3" d="M410.5 454.2c-40.9 4.2-82.2 4.5-123.3 3.7-14.2-.3-28.4-.6-42.5-1.4-23.9-1.2-47.9-3.5-71.4-7.9 4.7 62.3 2.9 74.7 66.2 180.8 3.9 6.5 5 6 11.1 10.4 5.3 3.8 12 5.3 18.4 6.4 21.3 3.8 42.6-.5 64-2.5 4-.4 8.1-.8 12-1.8 16.9-4.1 29.6-8.9 37.1-24.7 16.8-35.5 20.4-60.2 36.7-97.2 9.6-21.6 14.6-46.7 15.9-69.3-7.9 1.7-16.1 2.7-24.2 3.5z"/><path class="st1" d="M435.5 420.5c4.6.4 8.7 4.5 9.1 9.1.4 3.6 0 7.4 1.6 10.6 1.5 3.2 3.2 7.4 6.5 6.1 17.6-6.9 37.3-8.2 55.7-4 6.6 1.5 14.7 3.8 20.6 7.4 2.9 1.8 5.4 2.3 5.9 6.4 0 .4-.5 3.3-1.2 5-.3.9-.2 1.9.5 2.6 13.7 14.2 17.1 36.9 10.5 55.6-6.2 17.7-18.2 33.4-33.7 44-6.3 4.3-13 7.8-19.8 11.2-8.9 4.6-17.3 10.1-26.3 14.3-18.7 8.6-37.7 18.5-56.6 26.9-8.6 3.9-17.4 7.8-24.5 14s-12.5 15.2-12.1 24.6c.4 8.9 5.8 17.1 12.4 22.9.9.8 1.8 1.6 2.6 2.5 18.9 21.8-23.1 19-32.1 19.4-19.5.8-39.2-.7-58.7-.7-15.6.7-31.2 1.3-46.8 2-11.6.5-26.1 4.2-36.6-1.5-.9-.5-1.9-1.1-2.5-1.9-1.1-1.3-1.4-3-1.4-4.7.2-5.4 3.9-10 7.8-13.8s8.2-7.4 10.2-12.5c1.5-3.9 1.5-8.3 1.4-12.5-.1-5-.7-13.5-1.1-13.5-5.7-35.6-32.9-62.3-48.3-93.7-17.4-35.7-22.3-82.6-21.8-122 0-2.1 1.7-3.9 3.9-4 35.3-1.5 70.6-3.1 105.9-4.6 55.7-2.3 102.5-1.1 168.9 4.8z"/><path class="st1" d="M404.4 573.1c10.6-19.7 19-40.6 25.1-62.1 1.7-6.1 3.4-12.5 7.6-17.3 2.9-3.2 6.7-5.5 10.5-7.5 15.9-8.6 38.7-19.1 56.2-9 2.6 1.5 5.9 3.5 8.5 2 .2-.1.4-.1.6.1 15 14.8 5.1 33.5 4.3 35.2-4.2 8.6-9.8 16.5-16.6 23.2-19.6 19.5-47.6 24.9-73.6 34.1-7.2 2.5-14.3 5.1-21.8 6.5-1.9-2.5-2.3-2.5-.8-5.2z"/><path d="M348.4 604.7s.1-.1.2-.3.3-.5.5-.9c.5-.8 1.1-1.8 2.1-3.1.9-1.2 2.1-2.6 3.5-3.9.7-.7 1.4-1.4 2.2-2 .8-.7 1.6-1.3 2.4-1.9.8-.6 1.7-1.2 2.5-1.7.8-.6 1.7-1 2.5-1.5 1.6-1 3.1-1.8 4.4-2.6s2.3-1.5 3-2 1.1-.9 1.1-.9-.1.1-.2.3-.3.5-.6.8c-.6.7-1.4 1.7-2.6 2.7-1.1 1-2.6 2.1-4.1 3.2-.8.5-1.6 1.1-2.4 1.6-.8.6-1.6 1.1-2.4 1.7-1.6 1.2-3.1 2.4-4.6 3.6-.7.6-1.4 1.2-2 1.8s-1.2 1.1-1.8 1.6c-1.1 1-2 1.9-2.6 2.5-.8.7-1.1 1-1.1 1zm.6 9.4s.9.5 2 1.3c.6.4 1.2.9 1.9 1.5l2.1 1.8c.3.3.7.6 1 .9.4.3.7.6 1 .9.7.6 1.3 1.2 1.8 1.7 1 1 1.6 1.9 1.6 1.9s-1-.3-2.3-.9c-.7-.3-1.4-.7-2.1-1.2-.8-.5-1.6-1.1-2.3-1.7-.7-.6-1.4-1.4-2-2-.6-.7-1.1-1.4-1.5-2-.8-1.2-1.2-2.2-1.2-2.2zm-25.2-33.6s.3.2.9.7c.3.2.6.5.9.8.4.3.8.7 1.1 1.2.8.9 1.7 2 2.5 3.2.4.6.8 1.2 1.2 1.9.4.7.8 1.3 1.2 2 .4.7.8 1.3 1.2 2 .4.6.8 1.3 1.2 1.8.4.6.8 1.2 1.2 1.6.4.5.8 1 1.2 1.4l1.1 1.1c.3.3.6.6.9.8.5.4.8.7.8.7s-.4-.1-1-.4c-.3-.1-.7-.3-1.1-.5s-.9-.5-1.4-.9c-.2-.2-.5-.4-.8-.6-.2-.2-.5-.4-.8-.7-.5-.5-1-1-1.5-1.6s-1-1.2-1.4-1.8c-.5-.6-.9-1.3-1.3-2s-.8-1.4-1.2-2c-.4-.7-.7-1.3-1.1-2-.3-.6-.7-1.3-1-1.8-.3-.6-.6-1.1-.9-1.6-.6-1-1.1-1.8-1.5-2.4-.2-.5-.4-.9-.4-.9zm1.7 49.1s.7-1.5 2.1-3.5c.7-1 1.5-2.2 2.5-3.4l1.5-1.8c.5-.6 1.1-1.2 1.6-1.8.6-.6 1.1-1.2 1.7-1.7.6-.6 1.2-1.1 1.7-1.6 1.1-1 2.2-1.9 3.2-2.7 2-1.5 3.4-2.3 3.4-2.3s-.2.3-.7.9c-.5.6-1.1 1.3-1.9 2.2s-1.7 2-2.8 3.1c-.5.6-1 1.1-1.6 1.7-.5.6-1.1 1.2-1.6 1.8-.6.6-1.1 1.2-1.6 1.7-.5.6-1.1 1.1-1.6 1.7-1 1.1-2 2.1-2.9 3l-2.1 2.1-.9.6zm-25.9-27.7s.8-1.4 2.2-3.4c.7-1 1.5-2.1 2.5-3.3.5-.6.9-1.2 1.5-1.8.5-.6 1-1.2 1.6-1.8.5-.6 1.1-1.2 1.6-1.8s1.1-1.1 1.6-1.7c1-1.1 2.1-2.1 2.9-2.9 1.8-1.6 3.1-2.6 3.1-2.6s-.8 1.4-2.2 3.4c-.7 1-1.5 2.1-2.5 3.3-.5.6-.9 1.2-1.5 1.8-.5.6-1 1.2-1.6 1.8-.5.6-1.1 1.2-1.6 1.8s-1.1 1.1-1.6 1.7c-1 1.1-2.1 2.1-2.9 2.9-1.8 1.6-3.1 2.6-3.1 2.6zm2 15.5s1.1.6 2.6 1.8c.8.6 1.6 1.3 2.5 2.1s1.8 1.6 2.7 2.5c.9.9 1.8 1.8 2.5 2.7.8.9 1.5 1.7 2.1 2.5 1.2 1.5 1.8 2.6 1.8 2.6s-1.1-.6-2.6-1.8c-.8-.6-1.6-1.3-2.5-2.1s-1.8-1.6-2.7-2.5c-.9-.9-1.8-1.8-2.5-2.7-.8-.9-1.5-1.7-2.1-2.5-1.1-1.5-1.8-2.6-1.8-2.6zm-25.1-28.7s1.2.7 2.9 2c.9.6 1.8 1.4 2.8 2.2s2.1 1.8 3.1 2.7c1 1 2 1.9 2.9 2.9s1.7 1.9 2.4 2.7c1.4 1.6 2.2 2.8 2.2 2.8s-1.2-.7-2.9-2c-.9-.6-1.8-1.4-2.8-2.2s-2.1-1.8-3.1-2.7l-2.9-2.9c-.9-1-1.7-1.9-2.4-2.7-1.4-1.6-2.2-2.8-2.2-2.8zm5.7 43.6v-.2c0-.1 0-.4.1-.7s.2-.6.4-.9c.2-.3.4-.7.6-1.1.5-.8 1-1.7 1.7-2.7.6-.9 1.4-1.9 2.1-2.9s1.5-1.9 2.3-2.8c.8-.9 1.5-1.6 2.2-2.3 1.3-1.3 2.3-2.1 2.3-2.1s-.5 1.2-1.4 2.8c-.5.8-1 1.7-1.7 2.7-.6 1-1.4 1.9-2.1 2.9s-1.5 1.9-2.3 2.8c-.8.9-1.5 1.6-2.2 2.3-.6.7-1.3 1.1-1.6 1.5-.3.4-.4.7-.4.7zm-20.8-23.9s.4-.9 1.2-2.2c.4-.6.9-1.3 1.5-2s1.2-1.5 1.8-2.2c.7-.7 1.3-1.4 2-2s1.3-1.2 1.9-1.6c1.2-.9 2.1-1.4 2.1-1.4s-.4.9-1.2 2.2c-.4.6-.9 1.3-1.5 2s-1.2 1.5-1.8 2.2c-.7.7-1.3 1.4-2 2s-1.3 1.2-1.9 1.6c-1.1.9-2.1 1.4-2.1 1.4zm-2.1 6.9s1.2.6 2.9 1.8c.8.6 1.8 1.3 2.8 2 1 .8 2 1.6 3 2.5s2 1.8 2.9 2.7 1.7 1.7 2.4 2.5c1.3 1.5 2.1 2.6 2.1 2.6s-1.2-.6-2.9-1.8c-.8-.6-1.8-1.3-2.8-2-1-.8-2-1.6-3-2.5s-2-1.8-2.9-2.7-1.7-1.7-2.4-2.5c-1.3-1.5-2.1-2.6-2.1-2.6zm-18.6-22.7s1.1.7 2.5 2c.7.6 1.6 1.4 2.4 2.2.9.8 1.7 1.8 2.6 2.7.8 1 1.7 1.9 2.4 2.9.7.9 1.4 1.8 1.9 2.6 1.1 1.6 1.7 2.8 1.7 2.8s-1.1-.7-2.5-2c-.7-.6-1.6-1.4-2.4-2.2-.9-.8-1.7-1.8-2.6-2.7-.8-1-1.7-1.9-2.4-2.9-.7-.9-1.4-1.8-1.9-2.6-1.1-1.6-1.7-2.8-1.7-2.8zm4.9 34.1s.1-.2.2-.5.3-.8.6-1.3c.5-1 1.3-2.3 2.1-3.6.9-1.3 2-2.4 2.9-3.2.9-.7 1.7-1.1 1.7-1.1s-.1.2-.2.5-.3.8-.6 1.3c-.5 1-1.3 2.3-2.2 3.6s-2 2.4-2.9 3.2c-.8.8-1.6 1.1-1.6 1.1zm33.7-46.5s.4-1.6 1.4-3.9c.5-1.2 1-2.5 1.7-3.9.4-.7.7-1.4 1.1-2.1.4-.7.8-1.4 1.3-2.2.5-.7.9-1.4 1.4-2.1.5-.7 1-1.3 1.5-1.9 1-1.2 2-2.3 2.9-3.2 1.8-1.8 3.2-2.7 3.2-2.7s-.2.4-.6 1-1 1.5-1.7 2.5-1.5 2.2-2.3 3.5c-.4.6-.9 1.3-1.3 2s-.9 1.4-1.3 2.1c-.4.7-.9 1.4-1.3 2.1-.4.7-.8 1.4-1.3 2-.8 1.3-1.6 2.5-2.3 3.6-1.4 1.8-2.4 3.2-2.4 3.2zm20.2-19.9s1.1.4 2.7 1.2c.8.4 1.7.9 2.6 1.5s1.9 1.3 2.8 2 1.8 1.5 2.6 2.3c.8.8 1.5 1.5 2.1 2.2 1.1 1.3 1.8 2.4 1.8 2.4s-1.1-.5-2.5-1.5c-.7-.5-1.6-1-2.4-1.7-.9-.6-1.8-1.3-2.7-2-.9-.7-1.8-1.5-2.6-2.2-.8-.7-1.6-1.4-2.2-2-1.4-1.2-2.2-2.2-2.2-2.2zm34.1 12.8s1.2-1.3 3.2-3.1c1-.9 2.2-1.9 3.5-2.9.7-.5 1.3-1.1 2-1.6s1.4-1.1 2.1-1.6l2.1-1.5c.3-.3.7-.5 1-.7s.7-.5 1-.7c1.4-1 2.7-1.8 3.8-2.5 2.3-1.4 3.9-2.2 3.9-2.2s-1.2 1.3-3.2 3.1c-1 .9-2.1 1.9-3.4 3-.3.3-.6.5-1 .8s-.7.5-1 .8c-.7.5-1.4 1.1-2.1 1.6l-2.1 1.5c-.7.5-1.4 1-2.1 1.4-1.4.9-2.7 1.8-3.8 2.4-2.3 1.5-3.9 2.2-3.9 2.2zm26.8-10.8s.9.7 2.2 1.8l2 2c.7.8 1.4 1.6 2.1 2.5s1.3 1.8 1.9 2.6c.6.9 1.1 1.7 1.5 2.4.8 1.5 1.3 2.5 1.3 2.5s-.9-.7-2.2-1.8l-2-2c-.7-.8-1.4-1.6-2.1-2.5s-1.3-1.8-1.9-2.6c-.6-.9-1.1-1.7-1.5-2.4-.9-1.4-1.3-2.5-1.3-2.5zM266.9 582s-.3-.2-.8-.4c-.5-.3-1.1-.7-1.9-1.3s-1.6-1.3-2.4-2.2c-.4-.4-.8-.9-1.2-1.3l-1.2-1.5c-.8-1-1.5-2.1-2.1-3.1s-1.1-2-1.4-2.9c-.7-1.8-1-3-1-3s.2.2.6.7c.3.4.8 1 1.4 1.8 1.1 1.5 2.6 3.4 4.1 5.4s3 3.9 4.1 5.4c.6.7 1 1.4 1.3 1.8.4.3.5.6.5.6zm-26.6-.2s.1-1 .6-2.3c.4-1.3 1.3-3 2.3-4.5s2.3-2.9 3.3-3.8c1-.9 1.9-1.4 1.9-1.4s-.3.9-1 2.1c-.6 1.2-1.6 2.7-2.6 4.2s-2.1 2.9-3 3.9c-.8 1.1-1.5 1.8-1.5 1.8zm44.4-88.2c.1-1.3.1-2.6.2-3.9s.2-2.6.4-3.9l.6-3.9.9-3.9c.4-1.3.8-2.5 1.3-3.8.2-.6.5-1.2.8-1.8l.9-1.8c.3-.6.7-1.1 1-1.7l1.1-1.6 1.3-1.5 1.4-1.4.4.4h.2l.1.3.2.5.4 1.1.7 2.1 1.5 4.3 2.9 8.5c.9 2.9 1.9 5.7 2.8 8.6l.3 1.2.2 1.1.4 2.2.6 4.5c.7 6 .8 12.1.5 18.1-.2 3-.5 6-.9 9s-1 6-1.7 8.9c-.6 2.9-1 5.9-2 8.9-.3.7-.5 1.5-.9 2.2s-.9 1.5-1.7 2c-.2.2-.8.5-1.3.5h-.8c-.2-.1-.5-.1-.7-.3-.9-.5-1.4-1.2-1.8-1.9-.8-1.4-1.3-2.9-1.8-4.3-.4-1.4-1-2.8-1.5-4.2-1-2.8-1.9-5.7-2.6-8.7-1.5-5.8-2.4-11.8-2.9-17.8-.7-6-.8-12-.5-18zm0 0c-.2 6-.1 12 .5 18s1.8 11.9 3.4 17.6c.8 2.9 1.8 5.7 2.9 8.5.5 1.4 1.2 2.8 1.7 4.2s1 2.8 1.8 4c.4.6.8 1.1 1.3 1.3.1.1.2.1.3.1h.3c.2-.1.4-.1.7-.4.5-.3.8-.8 1.1-1.4.3-.6.5-1.3.8-2 .8-2.8 1.2-5.7 1.7-8.7.6-3 1.2-5.9 1.6-8.8.4-2.9.7-5.9.9-8.9.2-3 .3-5.9.2-8.9 0-3-.2-5.9-.5-8.9-.1-1.5-.3-3-.5-4.4-.1-.7-.2-1.5-.3-2.2l-.2-1.1c-.1-.3-.1-.7-.2-1-.7-2.9-1.6-5.8-2.5-8.6l-2.6-8.6-1.3-4.3-.7-2.2-.3-1.1-.2-.5-.1-.3c-.1-.2 0-.4 0-.6l.4.4-1.4 1.4-1.3 1.5-1.2 1.6c-.4.6-.7 1.1-1.1 1.7-.3.6-.6 1.1-.9 1.7s-.6 1.2-.8 1.8c-.5 1.2-1 2.5-1.3 3.7-.4 1.3-.7 2.5-1 3.8s-.5 2.6-.7 3.9-.3 2.6-.4 3.9c0 1.1-.1 2.5-.1 3.8z"/><path d="M311 519.9c1.6-2.7 3.1-5.3 4.8-7.9.4-.6.9-1.3 1.3-1.9.5-.6.9-1.2 1.4-1.9 1-1.2 2-2.4 3.1-3.5l.5-.5v.7l.1 2.5v2.5l-.2 2.5-.3 2.5-.4 2.5-.6 2.4c-.2.8-.5 1.6-.7 2.4-.3.8-.5 1.6-.8 2.4-.6 1.6-1.2 3.1-2 4.6-.7 1.5-1.5 3-2.4 4.4-1.8 2.8-3.7 5.5-6 8-1.1 1.2-2.1 2.5-3.3 3.7-.6.6-1.2 1.2-2 1.7-.4.3-.8.5-1.3.6-.3 0-.6.1-.9 0h-.2c-.2-.1-.1 0-.1 0l-.1-.1-.3-.1c-1.1-.8-1.2-1.9-1.2-2.7 0-.9.2-1.8.4-2.6.5-1.6 1.1-3.1 1.7-4.6 1.3-3 2.8-5.9 4.4-8.8 1.7-3.2 3.4-6 5.1-8.8zm0 0c-1.6 2.8-3.3 5.6-4.8 8.6-1.5 2.9-2.8 5.9-3.9 9-.5 1.5-1.1 3.1-1.4 4.6-.2.8-.3 1.6-.3 2.3 0 .4.1.7.2 1s.3.5.5.6c.5.2.4.2.7.1.3-.1.6-.3.9-.5.6-.4 1.1-1 1.7-1.6 1.1-1.2 2.1-2.5 3.1-3.7s2-2.5 3-3.8c.9-1.3 1.8-2.7 2.7-4l2.4-4.2c.3-.7.7-1.4 1.1-2.2.3-.7.7-1.5 1-2.2.6-1.5 1.2-3 1.7-4.5.2-.8.5-1.5.7-2.3l.6-2.4.4-2.4.3-2.4.2-2.4.1-2.4.5.2c-1.1 1-2.2 2.1-3.2 3.3-1 1.2-1.9 2.4-2.9 3.6-2.2 2.4-3.7 5.1-5.3 7.7zm44.1-14.7l.5-2.8.6-2.8.7-2.7.7-2.7.8-2.7.8-2.7.9-2.7 1-2.7 1-2.6 1.1-2.6c.7-1.7 1.5-3.5 2.3-5.2s1.6-3.4 2.5-5.1 1.7-3.3 2.7-5l.8-1.4.2 1.6.5 4.1.4 4.1c.2 2.8.4 5.5.6 8.3.1 2.8.2 5.6.2 8.3 0 2.8 0 5.6-.1 8.3-.2 5.6-.7 11.1-1.4 16.6-.4 2.8-.8 5.5-1.2 8.3-.5 2.7-1 5.5-1.6 8.2s-1.2 5.4-2.1 8.1c-.9 2.7-2 5.3-3.5 7.7-.8 1.2-1.5 2.4-2.9 3.3-.3.2-.8.4-1.3.4s-.9-.3-1.2-.6c-.6-.6-.9-1.3-1.1-2-.5-1.3-.8-2.7-1.1-4.1-.3-1.4-.6-2.7-.8-4.1-2.2-10.7-1.9-21.9 0-32.8zm0 0c-.9 5.5-1.5 11-1.4 16.5 0 5.5.6 11.1 1.7 16.5.3 1.4.6 2.7.9 4s.7 2.7 1.2 3.9c.3.6.6 1.2 1 1.6.4.4.8.4 1.3 0 .5-.3.9-.8 1.3-1.3s.7-1.1 1.1-1.7c1.4-2.3 2.3-4.9 3.1-7.5.8-2.6 1.3-5.3 1.8-8s1-5.4 1.4-8.2c.4-2.7.8-5.5 1.2-8.2.3-2.7.6-5.5.9-8.2.2-2.7.4-5.5.6-8.3.1-2.8.2-5.5.3-8.3v-8.3c0-2.8-.2-5.5-.3-8.3l-.3-4.1-.4-4.1.9.2c-1 1.6-1.9 3.2-2.8 4.9-.9 1.6-1.8 3.3-2.6 5-.8 1.7-1.7 3.4-2.4 5.1-.8 1.7-1.5 3.4-2.2 5.2l-1 2.6-1 2.7c-.6 1.8-1.2 3.6-1.7 5.4l-.7 2.7-.7 2.7-.6 2.8-.6 2.7zm-133.4-29.5s.3.6.9 1.7c.6 1.1 1.4 2.7 2.4 4.7 1 2.1 2.2 4.6 3.4 7.5.7 1.5 1.3 3 2 4.7s1.3 3.4 2 5.3c1.3 3.7 2.6 7.7 3.8 12.1 1.2 4.3 2.3 9 3.1 13.8.2 1.2.4 2.4.6 3.7.2 1.2.4 2.5.5 3.7.3 2.5.5 5.1.7 7.6.3 2.5.7 5.1.6 7.8 0 1.4-.1 2.7-.6 4.2-.3.7-.7 1.5-1.5 2-.9.5-1.9.5-2.6.3-.2 0-.4-.1-.6-.2l-.3-.1-.1-.1h-.1s-.2-.1-.1-.1l-.9-.5-.9-.7-.8-.7c-1-1-1.8-2.1-2.5-3.3-1.4-2.3-2.5-4.7-3.5-7.1-1-2.4-1.9-4.7-2.9-7.1-.9-2.4-1.7-4.7-2.5-7.1-.7-2.4-1.3-4.7-1.8-7s-.9-4.6-1.2-6.8c-.6-4.5-.9-8.7-.9-12.7 0-3.9.2-7.5.6-10.7.2-1.6.4-3.1.7-4.4.3-1.4.8-2.5 1.1-3.6.7-2.2 1.2-3.9 1.4-5.1.1-.6.1-1.1.1-1.4s-.1-.4-.1-.4zm0 0s.1.1.1.5v1.4c-.1 1.2-.5 3-1.1 5.2-.3 1.1-.7 2.3-.9 3.6-.2 1.3-.3 2.8-.5 4.4-.2 3.2-.3 6.7-.2 10.6s.5 8.1 1.2 12.5 1.8 9 3.2 13.6c.7 2.3 1.5 4.6 2.5 6.9 1 2.3 2 4.7 3 7s2.1 4.7 3.4 6.8c.7 1.1 1.4 2.1 2.2 2.9l.6.6c.2.2.4.3.6.5l.9.5c.1 0-.1 0 0 0h.1l.2.1c.1.1.2.1.4.1.5.1.9.1 1.1-.1.3-.2.5-.5.7-1 .4-1 .5-2.3.5-3.5 0-2.5-.3-5-.6-7.6s-.4-5.1-.7-7.6c-.1-1.2-.3-2.5-.4-3.7-.2-1.2-.3-2.4-.5-3.6-.8-4.8-1.7-9.4-2.8-13.7s-2.2-8.4-3.5-12.1c-1.2-3.7-2.4-7.1-3.6-10-1.1-3-2.2-5.5-3.1-7.6-.9-2.1-1.6-3.7-2.1-4.8-.4-1.3-.7-1.9-.7-1.9zm48.5 33.4l.2.2c.1.1.2.3.4.5.3.5.7 1.3 1.1 2.4.8 2.1 1.7 5.1 2.9 8.8 1.1 3.6 2.4 7.9 4.2 12.2.9 2.2 2 4.3 3.4 6.2.7.9 1.6 1.7 2.5 1.9.9.3 1.8 0 2.7-.7l.2-.1s.1-.1 0 0l.1-.1.3-.3.3-.3.2-.3.2-.3.2-.4.2-.3.1-.4c.3-1 .3-2.2.1-3.3-.5-2.3-1.5-4.5-2.6-6.5-2.3-4-5.1-7.5-7.6-10.4s-4.7-5.1-6.3-6.6c-.8-.7-1.5-1.3-1.9-1.7-.7-.3-.9-.5-.9-.5zm0 0s1.1.6 2.9 2c1.7 1.4 4.2 3.4 6.9 6.2 1.3 1.4 2.8 2.9 4.2 4.6 1.4 1.7 2.8 3.6 4.1 5.6 1.2 2.1 2.5 4.4 3 7 .2 1.3.3 2.8-.1 4.2l-.2.5-.2.5-.2.5-.3.5-.4.5-.3.3-.3.3-.1.1c-.1.1-.1 0-.1.1h-.1l-.2.2-.9.6c-.4.1-.7.3-1.1.4-.8.2-1.6.2-2.4-.1-1.5-.5-2.6-1.6-3.4-2.6-1.6-2.2-2.6-4.5-3.5-6.7-.9-2.3-1.5-4.5-2.2-6.6-.6-2.1-1.1-4.1-1.6-6-.9-3.7-1.5-6.8-2.1-9-.3-1.1-.6-1.9-.8-2.4-.1-.2-.2-.5-.3-.6-.3 0-.3-.1-.3-.1z"/><path d="M245 522.5c.8-1.8 1.8-3.5 2.7-5.2s1.8-3.5 2.3-5.4l.4.1c-.3 1.3-.1 2.6.1 4 .2 1.3.5 2.7.9 4 .3 1.3.6 2.7.9 4 .3 1.4.5 2.7.5 4.3-.1 1.4-.2 2.8-.3 4.1-.1 1.4-.4 2.8-.6 4.1-.3 1.4-.6 2.7-1 4.1-.4 1.3-1 2.7-1.7 3.9l-.6.9c-.2.3-.5.6-.8.9l-.4.4-.4.3c-.3.2-.5.4-.9.6l-.5.3-.6.2c-.2.1-.4.1-.6.2-.2 0-.4.1-.7.1-.5 0-1-.2-1.4-.5s-.6-.7-.8-1.1c-.6-1.5-.7-2.9-.6-4.3 0-1.4.2-2.8.4-4.1.4-2.7 1-5.4 1.6-8.1.3-1.3.7-2.7 1-4 .2-1.3.6-2.6 1.1-3.8zm0 0c-.5 1.3-.9 2.6-1.3 3.9-.4 1.3-.6 2.7-.9 4-.5 2.7-.9 5.4-1 8.1-.1 1.4-.1 2.7 0 4.1.1 1.3.3 2.7.8 3.7.3.5.6.7 1 .7s.9-.3 1.4-.6c1.1-.7 1.9-1.6 2.5-2.7.6-1.1 1.1-2.3 1.5-3.6s.7-2.6 1-3.9c.3-1.3.5-2.6.7-4 .2-1.3.4-2.7.5-4 .1-1.2 0-2.6-.2-3.9-.2-1.3-.4-2.7-.6-4-.2-1.4-.4-2.7-.6-4.1-.1-1.4-.2-2.8.2-4.2l.4.1c-.7 1.8-1.7 3.6-2.6 5.3-1 1.6-1.9 3.3-2.8 5.1zm-45.1 8.1c.7.6 1.4 1.1 2 1.8.6.6 1.2 1.3 1.8 2 1.1 1.4 2.2 2.8 3.2 4.2s2 2.9 3.1 4.3c.5.7 1.1 1.4 1.6 2.1.6.7 1.1 1.3 1.7 1.9l.9.9 1 .8c.3.3.7.5 1 .7s.7.5 1.1.7c.4.2.7.4 1.1.6l1.2.4c.4.2.8.3 1.2.4l1.2.3c3.4.8 6.8 1.4 10.3 1.7l-1.1 1.2-.6-2.5-.9-2.4c-.4-.8-.8-1.5-1.2-2.3-.5-.7-.9-1.5-1.4-2.1-.5-.7-1.1-1.4-1.6-2-.6-.6-1.2-1.3-1.8-1.9-.7-.6-1.3-1.2-2-1.7l-2.1-1.6-2.2-1.5-2.3-1.3-2.4-1.2c-.8-.4-1.6-.7-2.5-1-.8-.3-1.7-.6-2.5-.9-.8-.3-1.7-.5-2.6-.7-.9-.2-1.7-.3-2.6-.5-.8-.2-1.7-.3-2.6-.4zm0 0h2.7c.9.1 1.8.1 2.7.3s1.8.3 2.7.5 1.8.4 2.6.7c.9.3 1.7.6 2.6.9.8.4 1.7.7 2.5 1.1l2.4 1.2 2.4 1.4 2.3 1.6 2.1 1.8c.7.6 1.3 1.3 2 1.9l1.8 2.1c.6.7 1.1 1.5 1.6 2.3s.9 1.6 1.3 2.5c.4.9.7 1.7 1 2.6.2.9.4 1.8.7 2.7l.3 1.3-1.4-.2c-1.8-.2-3.5-.4-5.3-.7s-3.5-.7-5.2-1.1c-.4-.1-.9-.2-1.3-.4-.4-.1-.8-.2-1.3-.4l-1.3-.5c-.4-.2-.8-.4-1.2-.7-.4-.2-.8-.5-1.2-.8s-.8-.5-1.1-.8l-1-.9c-.3-.3-.6-.7-.9-1-2.5-2.7-4.2-5.8-6.1-8.8-.9-1.5-1.8-3-2.9-4.4-.5-.7-1-1.4-1.6-2.1-.6-.8-1.3-1.4-1.9-2.1zm187-18.5c.6.8 1.1 1.6 1.5 2.6.4.9.7 1.9.8 2.8.2 1 .2 2 .2 3s-.1 2-.3 3c-.2 1-.4 1.9-.7 2.9-.3.9-.7 1.9-1.2 2.8-.5.9-1 1.7-1.6 2.6l-1.8 2.4c-2.6 3-5.7 5.6-8.9 8-1.6 1.2-3.1 2.4-4.7 3.5-1.6 1.2-3.3 2.3-5 3.3l-1.5.8v-1.7c0-.7.1-1.1.3-1.6.1-.5.3-.9.5-1.3.3-.9.7-1.7 1.2-2.5.8-1.6 1.7-3.2 2.6-4.7 1.9-3 3.8-6 5.8-8.9s4.1-5.8 6.2-8.7c1-1.4 2.1-2.9 3.2-4.3.5-.7 1.1-1.4 1.6-2.1.3-.3.6-.7.9-1 .1-.2.3-.3.5-.5.1-.1.2-.2.3-.2-.1-.1 0-.2.1-.2zm0 0c-.1-.1-.2 0-.3.1-.1.1-.2.1-.2.2l-.5.5c-.3.3-.6.7-.8 1-.5.7-1.1 1.4-1.6 2.1-1 1.4-2 2.9-3 4.4s-1.9 3-2.8 4.5l-2.7 4.5c-1.8 3-3.6 6.1-5.2 9.2-.8 1.6-1.6 3.1-2.4 4.7-.4.8-.7 1.6-1 2.4-.3.8-.6 1.7-.6 2.2l-1.5-.8c1.7-1 3.3-2.1 4.9-3.2 1.6-1.1 3.2-2.3 4.8-3.4 3.2-2.3 6.4-4.5 9.1-7.3.7-.7 1.3-1.4 1.9-2.2.6-.7 1.2-1.6 1.7-2.4.5-.8.9-1.7 1.3-2.6.4-.9.7-1.8.9-2.8.2-1 .4-1.9.4-2.9s0-2-.1-2.9c-.2-1-.4-1.9-.8-2.8-.4-.8-1-1.7-1.5-2.5zm-46.6-5.2s0 .1-.1.2-.2.3-.3.6c-.3.5-.5 1.4-.6 2.5s0 2.4.4 3.9c.3 1.5.9 3.2 1.6 4.9 1.4 3.6 3.1 7.7 5.2 11.9 1.1 2.1 2.3 4.3 3.6 6.3.7 1 1.5 2 2.3 2.7.8.8 1.8 1.3 2.5 1.2.4-.1.7-.3 1.1-.7l.1-.1s-.1.2-.1.1l.1-.2c.1-.1.2-.3.2-.3 0-.1 0-.1.1-.2v-.4c.1-1-.2-2.2-.5-3.4-.7-2.3-1.7-4.6-2.7-6.7-2.1-4.3-4.3-8.1-6.2-11.4-1.9-3.3-3.6-6-4.8-7.9-1.2-1.9-1.9-3-1.9-3zm0 0s.8 1 2.2 2.8c1.3 1.8 3.3 4.3 5.4 7.5 2.2 3.2 4.6 7 6.8 11.3 1.1 2.2 2.2 4.4 3 6.9.4 1.3.7 2.6.6 4.1l-.1.6c-.1.2-.1.5-.2.7-.1.3-.2.3-.3.5l-.1.2c.1-.1-.1.2-.1.1l-.1.1-.1.1c-.5.6-1.3 1.1-2.1 1.3-.9.1-1.8-.1-2.5-.4-.7-.4-1.3-.8-1.8-1.3-1-1-1.8-2-2.6-3.1-1.5-2.2-2.6-4.4-3.6-6.6-1-2.2-1.9-4.4-2.7-6.4-.8-2.1-1.5-4-2-5.9-.6-1.9-1-3.6-1.2-5.2-.2-1.6-.2-3 0-4.1s.6-2 .9-2.5c.1-.3.3-.4.4-.6.2 0 .2-.1.2-.1z"/><path d="M169.6 441.6s.7 8.5 2 23.3c.7 7.4 1.5 16.4 3.2 26.7 1.7 10.2 4.6 21.6 9.1 33.5 4.5 11.9 10.5 24.4 17.2 37.3 1.7 3.2 3.5 6.5 5.3 9.8s3.7 6.6 5.5 9.9c3.7 6.7 7.7 13.5 11.7 20.4s8.2 13.9 12.4 20.9c1.1 1.8 2.1 3.6 3.2 5.1 1.1 1.6 2.5 2.8 4.2 3.9 1.7 1.1 3.5 2.3 5.2 3.5 1.6 1.1 3.4 2 5.3 2.7 3.8 1.5 7.8 2.3 11.9 3s8.2 1.1 12.4 1.3c8.4.4 16.8-.2 25.3-1 8.4-.8 16.9-2 25.4-2.8 4.2-.4 8.4-.8 12.4-1.7 4.1-1 8.1-2 12-3.4 3.9-1.3 7.6-3 11-5.1s6.4-4.8 8.8-7.9c.6-.8 1.2-1.6 1.7-2.4.5-.8 1.1-1.7 1.5-2.5l1.4-2.6 1.3-2.8c1.7-3.7 3.3-7.3 4.8-11 6.1-14.7 10.9-29.4 15.6-43.2 2.4-6.9 4.7-13.7 7.2-20.1 2.5-6.4 5-12.6 7.6-18.5 5.2-11.6 8.8-22.7 11.3-32.8 1.3-5 2.2-9.8 3-14.2.7-4.4 1.4-8.5 1.8-12.2.9-7.4 1.3-13.2 1.4-17.2.1-2 .1-3.5.1-4.6v-1.6 6.2c-.1 4-.3 9.9-1 17.3-.4 3.7-.9 7.8-1.6 12.3-.7 4.4-1.6 9.2-2.7 14.3-1.2 5.1-2.5 10.5-4.3 16-1.8 5.6-4 11.3-6.5 17.2s-5 12-7.4 18.5-4.7 13.2-6.9 20.1c-4.5 13.9-9.1 28.7-15.3 43.5-1.5 3.7-3.1 7.4-4.8 11.1l-1.3 2.8-1.4 2.8c-.5.9-1.1 1.8-1.6 2.7-.6.9-1.2 1.7-1.8 2.6-2.6 3.4-5.9 6.3-9.5 8.6s-7.6 4.1-11.6 5.5-8.2 2.5-12.3 3.5c-4.2 1-8.5 1.4-12.7 1.8-8.4.8-16.8 2-25.4 2.9-8.5.9-17.1 1.4-25.7.9-4.3-.2-8.6-.7-12.8-1.4-4.2-.8-8.4-1.6-12.5-3.2-2-.8-4-1.8-5.8-3s-3.4-2.3-5.2-3.5c-.9-.6-1.8-1.2-2.6-2s-1.6-1.6-2.2-2.5c-1.3-1.8-2.3-3.6-3.3-5.4-4.1-7.1-8.3-14.1-12.3-21s-7.9-13.7-11.6-20.5c-1.8-3.4-3.7-6.7-5.4-10s-3.5-6.6-5.2-9.9c-6.6-13.1-12.5-25.7-16.9-37.8-.5-1.5-1-3-1.6-4.5-.5-1.5-1.1-2.9-1.4-4.4-.4-1.5-.8-2.9-1.3-4.4-.4-1.4-.9-2.9-1.2-4.3-.6-2.9-1.3-5.6-1.8-8.3-.5-2.7-.9-5.4-1.4-7.9-1.5-10.3-2.1-19.3-2.6-26.8-.7-15-1.3-23.5-1.3-23.5z"/><path d="M216 571.6s1.3.4 3.1 1.3c.9.4 1.9 1 3 1.7 1.1.6 2.2 1.4 3.2 2.1 1.1.8 2.1 1.6 3.1 2.4.9.8 1.8 1.6 2.5 2.3 1.4 1.4 2.2 2.5 2.2 2.5s-1.2-.6-2.9-1.6c-.9-.5-1.8-1.1-2.9-1.8-1-.7-2.1-1.4-3.2-2.2-1.1-.8-2.1-1.6-3.1-2.3-1-.8-1.9-1.5-2.6-2.1-1.5-1.3-2.4-2.3-2.4-2.3zm12.7 27.2s.2-.7.6-1.5c.4-.8 1.1-1.8 1.9-2.7.8-.9 1.7-1.7 2.6-2.2.8-.5 1.4-.7 1.4-.7s-.2.7-.6 1.5c-.4.8-1.1 1.8-1.9 2.7-.8.9-1.7 1.7-2.6 2.2-.7.5-1.4.7-1.4.7zm150.8-27.1s.4-.9 1.3-2c.8-1.1 2.2-2.5 3.7-3.6s3.2-2 4.5-2.4c1.3-.5 2.3-.6 2.3-.6l-.5.5c-.3.3-.7.7-1.2 1.1-1 .9-2.5 2-3.9 3s-2.9 2.1-4.1 2.8c-.6.4-1.1.7-1.4.9-.5.2-.7.3-.7.3zm.6 10.3s.5.1 1.1.4c.6.3 1.2.7 1.7 1.3s.9 1.3 1.1 1.9c.2.6.2 1.1.2 1.1s-.5-.1-1.1-.4c-.6-.3-1.2-.7-1.7-1.3s-.9-1.3-1.1-1.9c-.2-.6-.2-1.1-.2-1.1zm51.4-134.4s-1 .2-2.9.6-4.7.9-8.2 1.5-7.9 1.2-12.8 1.8c-2.5.3-5.1.6-7.9.9s-5.7.6-8.8.9c-6.1.5-12.8 1.1-19.8 1.5s-14.5.9-22.2 1.1c-7.7.3-15.6.5-23.7.5-8.1.1-16.3.1-24.5 0-4.1-.1-8.2-.1-12.3-.2l-3.1-.1h-1.6l-1.5-.1c-2-.1-4.1-.1-6.1-.2-8.1-.3-16-.6-23.7-.9-3.9-.2-7.6-.3-11.3-.5s-7.3-.5-10.8-.8c-7-.6-13.7-1.2-19.8-1.9-6.1-.7-11.7-1.4-16.7-2.2-4.9-.7-9.3-1.5-12.8-2.1s-6.3-1.2-8.2-1.6-2.9-.6-2.9-.6 1 .2 2.9.4c1.9.3 4.7.7 8.2 1.2 7.1 1 17.3 2.1 29.5 3.2 6.1.5 12.8 1 19.8 1.4 3.5.2 7.1.4 10.8.5s7.5.2 11.3.3c7.7.2 15.6.4 23.7.6 2 .1 4 .1 6.1.2h6.1c4.1 0 8.2.1 12.3.1 8.2.1 16.4.1 24.5.1s16-.1 23.7-.3c7.7-.2 15.1-.4 22.1-.6 7-.3 13.7-.6 19.8-1 6.1-.4 11.8-.8 16.7-1.2 5-.4 9.3-.8 12.9-1.3 3.6-.4 6.4-.8 8.3-1.1 1.9 0 2.9-.1 2.9-.1z"/><path class="st4" d="M346 609c-13.5 6.8-11-10.3-9.7-17 2.4-12.5 7.4-24.4 12.3-36.1 35-83.4 70-166.9 105-250.3-.4-.2-.2-1.2.2-1.5 1.5-1 3.5-.4 5.2.2 2.9 1.1 5.9 2.2 8.5 3.8s5 4 6.1 6.9c2.2 5.5-4 13-6.4 17.6-4.1 7.9-7.2 16.3-10.7 24.5-13.7 32.4-32.6 62.6-44.5 95.8-10.2 28.4-21.6 54.9-34.4 82.1-11.6 24.3-18.6 50.3-31.6 74z"/><path d="M458.5 312.8s-.5 1.1-1.3 3.2c-.9 2.1-2.1 5.2-3.8 9.1-3.2 7.9-7.8 19.1-13.3 32.6s-12 29.2-18.9 46.1c-6.9 16.8-14.4 34.8-21.8 52.7-7.5 17.9-14.9 35.9-21.9 52.7s-13.6 32.5-19.3 45.9c-11.3 26.9-18.8 44.8-18.8 44.8l1.2-3.3c.8-2.1 2-5.2 3.6-9.2 3.1-7.9 7.5-19.2 13-32.7 2.7-6.8 5.7-14.1 8.8-21.8 3.1-7.7 6.5-15.9 9.9-24.3 6.9-16.8 14.3-34.8 21.7-52.8 7.5-17.9 15-35.8 22-52.6 3.5-8.4 7-16.5 10.2-24.2 3.3-7.7 6.4-14.9 9.2-21.6 2.8-6.7 5.5-12.8 7.9-18.3 2.4-5.4 4.4-10.2 6.1-14.1s3.1-6.9 4-9c1-2.1 1.5-3.2 1.5-3.2zm5.4 1.1s-.5 1.1-1.3 3.2c-.9 2.1-2.1 5.2-3.8 9.1-3.2 7.9-7.8 19.1-13.3 32.6s-12 29.2-18.9 46.1c-6.9 16.8-14.4 34.8-21.8 52.7-7.5 17.9-14.9 35.9-21.9 52.7-7 16.8-13.6 32.5-19.3 45.9-11.3 26.9-18.8 44.8-18.8 44.8l1.2-3.3c.8-2.1 2-5.2 3.6-9.2 3.1-7.9 7.5-19.2 13-32.7 2.7-6.8 5.7-14.1 8.8-21.8 3.1-7.7 6.5-15.9 9.9-24.3 6.9-16.8 14.3-34.8 21.7-52.8 7.5-17.9 15-35.8 22-52.6 3.5-8.4 7-16.5 10.2-24.2 3.3-7.7 6.4-14.9 9.2-21.6 2.8-6.7 5.5-12.8 7.9-18.3 2.4-5.4 4.4-10.2 6.1-14.1s3.1-6.9 4-9c1-2.1 1.5-3.2 1.5-3.2z"/></svg>