<?xml version="1.0" encoding="utf-8"?>
<!-- Generator: Adobe Illustrator 19.2.0, SVG Export Plug-In . SVG Version: 6.00 Build 0)  -->
<svg version="1.1" id="Layer_1" xmlns="http://www.w3.org/2000/svg" xmlns:xlink="http://www.w3.org/1999/xlink" x="0px" y="0px"
	 viewBox="0 0 460 479" style="enable-background:new 0 0 460 479;" xml:space="preserve">
<style type="text/css">
	.st0{fill:none;stroke:#000000;stroke-width:5;stroke-miterlimit:10;}
	.st1{opacity:0.9;fill:url(#SVGID_1_);enable-background:new    ;}
	.st2{opacity:5.000000e-02;fill:#FFFBC7;enable-background:new    ;}
</style>
<path class="st0" d="M6588.6-791.6c0.3,38.5,0.2,82.4-5.7,120.5c-2.3,14.7-3.7,31.7-10.6,44.9c-9.4,17.9-18.6,35.9-34,49.5
	c-5.5,4.9-11.5,9.2-17.9,12.8c-4.2,2.3-15.3,5.1-15.9,10.8c-0.4,3.6,3.8,5.7,6.9,7.6c6.9,4.3,10.9,12.3,11.6,20.4
	c1.5,15.4-5.6,30.7-18.9,38.8c-0.8,0.5-1.6,1-1.9,1.8c-0.7,2.1,2.1,3.4,4.2,3.8c12.1,2.1,24,5,35.7,8.7c7.7,2.4,24.3,10.6,12,18.5
	c-7.7,4.9-17,6.2-26,7.3c-24.7,3.1-49.7,6.2-74.5,3.9c-5.6-0.5-11.2-1.4-16.8-2.2l-22.5-3.3c-5.3-0.8-11.8-2.7-12.7-7.9
	c-1.7-10.2,16.6-15.1,23.6-17.2c4.9-1.5,36.5-4.6,35.6-9.3c-0.5-2.4-2.8-3.9-4.8-5.4c-8.9-6.4-15-16.4-16.6-27.2
	c-1.6-10.8,1.3-22.2,7.9-30.9c2.2-2.9,4.9-6,4.4-9.6c-0.2-1.5-1-2.9-2-4.1c-5.1-6.7-15.9-9.5-22.8-14.7c-7.9-6-15.2-12.8-21.6-20.4
	c-12.5-14.5-22.1-31.5-27.6-49.9c-5.2-17.2-6.9-35.3-8.2-53.2c-2.3-31-3.6-62-3.8-93.1c20.2-2.4,42-1.8,62.4-1.4
	C6480.9-791,6588.6-793.7,6588.6-791.6L6588.6-791.6z"/>
<path d="M6462-476.7v1.9c0,0.6,0.1,1.3,0.6,1.9c0.4,0.6,1.2,0.8,2.2,0.8c2.1-0.1,4.5-0.2,7.1-0.2c1.3,0,2.7-0.1,4-0.1
	c1.4-0.1,2.8-0.1,4.1-0.2c1.4-0.1,2.8-0.1,4.1-0.2c1.4-0.1,2.7-0.1,4-0.2c2.6-0.1,5-0.2,7.1-0.3c2-0.1,3.7-0.6,4.6-1.3
	c0.4-0.4,0.7-0.8,0.8-1.1c0.1-0.3,0.2-0.5,0.2-0.5v0.5c-0.1,0.3-0.2,0.8-0.6,1.3s-1.1,1-1.9,1.4c-0.8,0.4-1.8,0.7-2.8,0.8
	c-2.1,0.4-4.5,0.7-7.1,0.9c-1.3,0.1-2.7,0.3-4,0.4c-1.4,0.1-2.8,0.2-4.2,0.2c-1.4,0-2.8,0.1-4.2,0.1h-4.1c-2.6-0.1-5.1-0.2-7.2-0.4
	c-0.5-0.1-1.1-0.1-1.6-0.4s-0.9-0.7-1.1-1.1c-0.4-0.9-0.4-1.7-0.3-2.3s0.2-1.1,0.3-1.4C6461.9-476.5,6462-476.7,6462-476.7
	L6462-476.7z M6461.6-561.3c0,0,0.6,0.2,1.6,0.5c0.5,0.2,1.2,0.3,1.9,0.5s1.6,0.4,2.4,0.5c0.9,0.2,1.9,0.3,2.9,0.5
	c1,0.1,2.1,0.2,3.3,0.3c1.1,0.1,2.3,0.1,3.5,0.2h3.6c1.2,0,2.5,0,3.7-0.1c1.2,0,2.4-0.1,3.6-0.1c2.3-0.1,4.5-0.1,6.3-0.3
	s3.2-0.6,4.1-1.2c0.4-0.3,0.8-0.6,1-0.8l0.3-0.3c0,0-0.1,0.1-0.2,0.4c-0.2,0.3-0.4,0.6-0.8,1c-0.8,0.8-2.3,1.6-4.2,2
	c-0.9,0.2-2,0.4-3,0.5c-1.1,0.1-2.2,0.3-3.3,0.4l-3.6,0.3c-1.2,0.1-2.5,0.1-3.7,0.2c-1.3,0-2.5,0-3.7-0.1c-0.6,0-1.2-0.1-1.8-0.1
	c-0.6-0.1-1.2-0.1-1.8-0.2c-1.2-0.1-2.3-0.4-3.4-0.6c-0.5-0.1-1-0.3-1.5-0.4c-0.5-0.2-1-0.3-1.4-0.4c-1.8-0.6-3.2-1.3-4.2-1.8
	C6462.2-561,6461.6-561.3,6461.6-561.3L6461.6-561.3z M6411.5-459.2l0.3,0.3c0.2,0.2,0.5,0.4,1,0.6c0.9,0.5,2.3,1,4.2,1.4
	c1.9,0.4,4.2,0.7,6.8,1.1c2.6,0.4,5.6,0.7,8.9,1.1c3.3,0.3,6.8,0.7,10.6,1c3.7,0.3,7.7,0.5,11.8,0.7c8.2,0.3,17,0.5,25.7,0.6
	c4.4,0.1,8.8,0.1,13.1,0.2c4.3,0,8.5,0.1,12.6,0s8-0.4,11.7-0.8c3.7-0.5,7.2-1.1,10.4-1.7c6.4-1.4,11.6-3,15.2-4.3
	c1.8-0.7,3.2-1.2,4.2-1.6l1.5-0.6c0,0-0.5,0.2-1.4,0.7c-0.9,0.4-2.3,1.1-4.1,1.8c-3.5,1.5-8.7,3.5-15.1,5.1
	c-6.4,1.6-14.1,2.9-22.3,3.2c-4.1,0.2-8.4,0.2-12.7,0.2c-4.3,0-8.7-0.1-13.1-0.1c-4.4-0.1-8.8-0.2-13.1-0.3
	c-4.3-0.1-8.6-0.4-12.7-0.6c-4.1-0.3-8.1-0.6-11.8-1c-3.8-0.4-7.3-0.8-10.6-1.3c-1.6-0.3-3.2-0.5-4.7-0.7c-1.5-0.3-2.9-0.5-4.2-0.8
	c-2.6-0.5-4.9-1-6.8-1.5s-3.3-1.1-4.1-1.7c-0.4-0.3-0.7-0.5-0.9-0.7C6411.6-459.1,6411.5-459.2,6411.5-459.2L6411.5-459.2z"/>
<linearGradient id="SVGID_1_" gradientUnits="userSpaceOnUse" x1="6378.7998" y1="1430.7887" x2="6584.7002" y2="1430.7887" gradientTransform="matrix(1 0 0 -1 0 761)">
	<stop  offset="1.800000e-02" style="stop-color:#801FE3"/>
	<stop  offset="1" style="stop-color:#B7A7FF"/>
</linearGradient>
<path class="st1" d="M6378.8-763.4c1.4,24.4,2.7,48.8,4.1,73.2c0.4,7.9,0.9,15.9,2.2,23.7c1.8,11.1,5.4,21.8,8.9,32.5
	c3,9.1,6,18.2,11.1,26.3c17.8,28.1,51.5,32.7,81.9,31.3c10.6-0.5,21.3-1.5,31.5-4.7c66.9-21.3,65.2-117,66.1-172.7
	c0-2.6,0.1-5.1,0.1-7.7C6516-759.3,6447.2-757.5,6378.8-763.4L6378.8-763.4z"/>
<path d="M6373.7-783.1c0,0,0.6,8.1,1.5,22.2c0.5,7.1,1,15.6,1.7,25.5c0.6,9.8,1.4,20.9,2.1,33.1c0.4,6.1,0.7,12.4,1.3,18.9
	c0.5,6.5,1.4,13.2,3,19.9c1.6,6.7,3.7,13.5,6,20.4c2.4,6.9,4.5,14,7.5,20.9c0.8,1.7,1.5,3.4,2.4,5.1c0.9,1.6,1.8,3.3,2.8,4.8
	c1.1,1.6,2.2,3.1,3.4,4.7c1.2,1.4,2.5,2.8,3.7,4.3c5.3,5.5,11.7,10,18.8,13.2c7.1,3.3,14.8,5.4,22.6,6.6c7.9,1.3,15.9,1.7,23.9,1.7
	c8-0.1,16.1-0.4,24-1.5c3.9-0.5,7.9-1.2,11.7-2.2c1-0.3,1.9-0.5,2.8-0.8l0.7-0.2h0.1l0.2-0.1l0.4-0.1l1.4-0.5l2.8-1
	c0.5-0.2,0.9-0.3,1.4-0.5l1.3-0.6c7.1-3.1,13.7-7.4,19.4-12.5c5.7-5.1,10.5-11.1,14.4-17.5c4-6.3,7.1-13.1,9.7-19.8
	c2.6-6.8,4.6-13.6,6.3-20.3c3.2-13.5,5-26.5,6.2-38.5c1.1-12.1,1.7-23.2,2-33c0.3-9.9,0.5-18.4,0.7-25.5c0.2-14.2,0.4-22.2,0.4-22.2
	s0,2,0.1,5.8c0,3.8,0.1,9.4,0.2,16.4c0,7.1,0,15.7-0.2,25.5c-0.1,9.9-0.5,21-1.5,33.1c-1,12.1-2.6,25.2-5.7,38.9
	c-1.6,6.8-3.6,13.7-6.1,20.6c-2.5,6.9-5.7,13.8-9.8,20.3c-4,6.5-9,12.7-14.8,18.1c-5.9,5.4-12.7,9.8-20.2,13.1l-1.4,0.6
	c-0.5,0.2-0.9,0.4-1.4,0.5l-2.8,1l-1.4,0.5l-0.4,0.1l-0.2,0.1l-0.2,0.1l-0.7,0.2c-1,0.3-2,0.6-2.9,0.8c-3.9,1-8,1.8-12,2.4
	c-8.1,1.1-16.2,1.5-24.4,1.6c-8.2,0-16.3-0.5-24.4-1.8c-8-1.3-16-3.5-23.3-7c-7.4-3.4-14.1-8.1-19.6-13.9c-1.3-1.5-2.6-3.1-3.9-4.6
	c-1.1-1.6-2.2-3.2-3.3-4.7c-2.2-3.4-3.9-6.8-5.4-10.4c-3-7.1-5.2-14.2-7.5-21.2c-2.2-7-4.3-13.9-5.8-20.7
	c-1.6-6.9-2.4-13.6-2.8-20.2c-0.5-6.6-0.7-12.9-1-18.9c-0.6-12.1-1.1-23.2-1.6-33.1c-0.5-9.9-0.8-18.4-1.2-25.5
	C6374-775.1,6373.7-783.1,6373.7-783.1L6373.7-783.1z"/>
<path d="M6374.1-767.7c0,0,0.8,0,2.4,0.1s3.8,0.2,6.7,0.3c2.9,0.2,6.4,0.3,10.5,0.5c4,0.2,8.6,0.3,13.6,0.5s10.4,0.3,16.1,0.5
	s11.7,0.2,17.9,0.4c6.2,0.1,12.6,0.1,19.2,0.2c6.5,0.1,13.2,0,19.8,0.1c6.6,0,13.3,0,19.8-0.1s13-0.1,19.2-0.2
	c12.5-0.1,24.1-0.2,34-0.3c10-0.1,18.3-0.1,24.1-0.1h9.1c0,0-0.8,0.1-2.4,0.2c-1.6,0.1-3.8,0.2-6.7,0.4c-5.8,0.3-14.1,0.8-24.1,1.3
	s-21.6,0.9-34,1.3c-6.2,0.1-12.7,0.4-19.2,0.4c-6.5,0.1-13.2,0.1-19.8,0.2c-6.6,0-13.3,0-19.8-0.2c-6.5-0.1-13-0.3-19.2-0.4
	c-6.2-0.2-12.3-0.4-18-0.8c-2.9-0.2-5.6-0.3-8.3-0.5c-2.7-0.2-5.3-0.4-7.8-0.5c-2.5-0.2-4.9-0.3-7.1-0.5c-2.3-0.2-4.4-0.4-6.4-0.6
	c-4-0.4-7.6-0.7-10.4-1c-2.9-0.3-5.2-0.6-6.7-0.7C6374.9-767.6,6374.1-767.7,6374.1-767.7L6374.1-767.7z"/>
<path class="st0" d="M184.5,111.4c-33,32.5-19.8,80.5,3.2,102.1c5.7,5.4,12.5,9.1,18.7,13c6.5,4.1,11.7,9.1,14.4,16.5
	c1.6,4.4,3.7,12.2,3.5,16.9c-0.3,6.9-1.4,111.8-2.5,135.9c-0.8,17.1-8.3,33.8-17.6,48.2c-4.5,6.9-12.4,7.8-20.2,10.3
	c-10.1,3.2-32.6,8.3-33.3,8.9c-1.5,1.3-1,3.9,0.5,5.2s3.6,1.6,5.6,1.9c30,4.5,60.1,6.6,90.5,5.4c17.8-0.7,36.1-0.1,53.7-2.6
	c2.4-0.3,5-0.8,6.9-2.2s3.1-4.4,1.8-6.4c-6.5-1.4-37.3-9.9-43.8-13.4c-9.9-5.3-13.6-13.8-18-24.1s-6.8-21.5-7.6-32.6
	c-0.6-8.6-0.5-121.3,0-130.6c0.4-6.7,1.6-13.6,3.8-20c2.2-6.4,6.5-12.4,12.7-15.2c14.9-6.7,27.9-20.5,36.1-34.4
	c4.2-7,7.1-18.5,7.6-26.5c1.3-21.3,1.1-41-17.2-56.2c-0.2-1.9-0.7-3.6-0.7-5.5V43.2c0-10.1,0.1-22.2-0.1-32.3
	c-0.1-3.6-0.1-4.8-4-5.3c-5.8-0.6-11.8-0.4-17.6-0.4C249.7,5.1,201.8,4.9,186,5c-0.7,0-1.3,0.6-1.3,1.3L184.5,111.4z"/>
<path d="M274.9,9.8c0,16.3,0.3,32.6,1.1,48.9c0.4,8.1,0.5,16.3,0.6,24.5c0,8.2,0.1,16.3,0.4,24.4l0.1,3c0.1,1,0.2,1.8,0.7,2.4
	c0.5,0.7,1.2,1.3,1.9,2.1c0.7,0.7,1.5,1.4,2.2,2.2c2.8,3,5.3,6.4,7.3,10c4,7.3,6,15.7,6.4,23.9c0.4,8.2,0.1,16.6-2,24.7
	c-1.1,4-2.5,8-4.7,11.6c-0.6,0.9-1.1,1.8-1.8,2.6l-1,1.3l-0.2,0.3c0,0.1-0.1,0.1-0.1,0.2l-0.1,0.1l-0.5,0.6
	c-0.7,0.8-1.4,1.5-2.1,2.3l-2.2,2.2c-6,5.7-13.2,10.2-21.3,12.1l-1.6,0.3l-1.6,0.2c-0.3,0-0.5,0.1-0.8,0.1l-0.8,0.1l-1.6,0.1
	c-2.1,0.1-4,0.2-6.1,0.2c-4,0.1-8,0-12,0c-2.1,0-4,0-6.1-0.1c-2-0.1-4-0.1-6.1-0.3c-4-0.3-8-0.8-12-1.6s-7.9-1.7-11.7-3.1
	c-2-0.6-3.8-1.4-5.7-2.2c-1-0.4-1.9-0.8-2.7-1.3c-0.9-0.4-2-1-2.8-1.6c-1.8-1.3-3.3-2.8-4.6-4.4c-0.7-0.9-1.3-1.6-2-2.4
	c-0.6-0.8-1.2-1.7-1.9-2.5c-2.3-3.5-4.2-7.2-5.8-11c-3-7.7-4.5-16.1-4.6-24.4c0-2.1,0.1-4.2,0.2-6.2c0.1-2.1,0.4-4.2,0.9-6.2
	c0.5-2.1,1.3-4.1,2.3-6s2.1-3.6,3.1-5.3c4.2-6.9,8.6-13.9,14.5-19.7l-0.3,0.8l-0.5-6.5l-0.3-6.5l-0.2-6.5v-6.5l0.1-6.5l0.1-6.5
	l0.5-12.9l0.5-12.9l0.2-6.5l0.1-6.5v-6.5l-0.1-6.5l-0.3-6.5L189.4,9l0.7,6.4l0.5,6.5l0.3,6.5l0.2,6.5l0.1,6.5v6.5L191,60.8
	l-0.2,12.9v13l0.1,6.4l0.3,6.4l0.4,6.4l0.6,6.4v0.5l-0.3,0.3c-5.6,5.7-9.8,12.6-14,19.5c-2.1,3.5-4.2,6.8-5,10.6
	c-0.4,1.9-0.7,3.9-0.8,5.9c-0.1,2-0.2,4-0.2,6c0.1,8,1.6,16,4.5,23.4c1.5,3.7,3.3,7.2,5.6,10.5c0.6,0.8,1.1,1.6,1.8,2.4
	c0.6,0.8,1.3,1.6,1.9,2.3c1.3,1.5,2.6,2.8,4.1,3.9c0.8,0.5,1.5,0.9,2.4,1.4l2.7,1.2c1.8,0.8,3.6,1.5,5.5,2.1
	c3.7,1.2,7.5,2.2,11.4,2.9c3.8,0.7,7.8,1.2,11.7,1.5c2,0.2,3.9,0.2,6,0.3l6,0.1c4,0.1,7.9,0.1,11.9,0.1c2,0,4-0.1,6-0.2l1.5-0.1
	l0.8-0.1c0.2,0,0.5-0.1,0.7-0.1l1.5-0.2l1.4-0.3c7.5-1.7,14.4-5.9,20.2-11.3l2.1-2.1c0.7-0.7,1.4-1.4,2-2.2l0.5-0.6l0.1-0.1l0.1-0.1
	l0.2-0.3l0.9-1.1c0.6-0.8,1.1-1.6,1.7-2.4c2-3.4,3.4-7.1,4.5-10.9c2-7.7,2.3-15.8,2-23.9c-0.4-8-2.1-16-5.8-23
	c-1.9-3.5-4.2-6.7-6.8-9.7c-0.6-0.7-1.4-1.5-2.1-2.2s-1.5-1.4-2.2-2.4c-0.3-0.5-0.6-1.1-0.7-1.7s-0.2-1.2-0.2-1.7
	c-0.1-1.1-0.1-2.1-0.1-3.1c-0.4-16.4,0.3-32.7-0.2-48.9C274.5,42.4,274.5,26.1,274.9,9.8L274.9,9.8z"/>
<path d="M181.6,126.1c0,0,1.6-0.2,4.5-0.4c1.4-0.1,3.2-0.3,5.2-0.4s4.3-0.3,6.7-0.4c2.5-0.1,5.1-0.2,8-0.2h8.9
	c3.1,0.1,6.3,0.1,9.5,0.2s6.5,0.3,9.8,0.4c6.5,0.3,13.1,0.6,19.2,0.9c3.1,0.1,6,0.2,8.8,0.3c2.8,0.1,5.5,0.1,7.9,0.2
	c2.5,0.1,4.7,0,6.7,0.1h9.7c0,0-1.6,0.2-4.5,0.4c-1.4,0.1-3.2,0.3-5.2,0.4s-4.2,0.3-6.7,0.3c-2.5,0.1-5.1,0.2-8,0.2h-8.9
	c-3.1-0.1-6.3-0.1-9.5-0.3c-3.2-0.1-6.5-0.3-9.8-0.4c-6.5-0.3-13.1-0.6-19.2-0.9c-3.1-0.1-6-0.2-8.8-0.3c-2.8-0.1-5.5-0.1-7.9-0.2
	h-11.9C183.2,126.1,181.6,126.1,181.6,126.1L181.6,126.1z M205.2,446.4c0,0,0.2,0.1,0.5,0.4c0.3,0.2,0.8,0.5,1.4,0.8
	s1.4,0.5,2.4,0.7c0.9,0.2,2,0.3,3.2,0.5s2.5,0.3,3.9,0.5s2.8,0.3,4.3,0.4c1.5,0.1,3,0.2,4.6,0.3s3.2,0.2,4.8,0.2
	c1.6,0.1,3.2,0.1,4.8,0.1c1.6,0,3.1,0,4.6-0.1s3-0.1,4.3-0.2c1.4-0.1,2.7-0.2,3.9-0.3c2.4-0.3,4.3-0.8,5.5-1.4
	c0.6-0.3,1.1-0.6,1.4-0.8s0.5-0.4,0.5-0.4s-0.1,0.2-0.4,0.4c-0.3,0.3-0.7,0.7-1.3,1.1c-1.2,0.9-3.1,1.7-5.5,2.2
	c-1.2,0.3-2.5,0.5-3.9,0.7s-2.8,0.4-4.4,0.5c-1.5,0.1-3.1,0.2-4.7,0.3h-4.9c-1.6-0.1-3.3-0.1-4.9-0.3c-1.6-0.1-3.2-0.3-4.7-0.5
	s-3-0.5-4.3-0.7c-1.4-0.3-2.7-0.5-3.8-0.8c-1.2-0.3-2.3-0.6-3.2-0.9c-1-0.3-1.8-0.7-2.4-1.1c-0.6-0.4-1-0.8-1.3-1
	C205.3,446.5,205.2,446.4,205.2,446.4L205.2,446.4z M161.2,463.8c0,0,2.1,0.3,5.7,0.8c1.8,0.3,4,0.6,6.6,0.9
	c2.6,0.3,5.4,0.6,8.6,0.9c3.1,0.3,6.5,0.6,10.1,0.9c1.8,0.1,3.7,0.2,5.5,0.4c1.9,0.1,3.8,0.3,5.8,0.3c3.9,0.2,8,0.4,12.1,0.5
	c2.1,0.1,4.2,0.1,6.2,0.2c2.1,0,4.2,0,6.3,0.1c4.2,0.1,8.4,0,12.5,0c4.1-0.1,8.2-0.1,12.2-0.3c2-0.1,3.9-0.1,5.8-0.2
	s3.8-0.2,5.6-0.2c1.8-0.1,3.6-0.2,5.3-0.3c1.7-0.1,3.3-0.2,4.9-0.3c3.1-0.3,6-0.4,8.6-0.6c1.3-0.1,2.5-0.2,3.6-0.3s2.1-0.2,3-0.3
	c1.8-0.2,3.3-0.4,4.2-0.5c1-0.1,1.5-0.2,1.5-0.2l-1.5,0.3c-1,0.2-2.4,0.6-4.2,0.8c-0.9,0.2-1.9,0.3-3,0.5s-2.3,0.3-3.6,0.5
	c-2.5,0.4-5.4,0.7-8.6,1.1c-3.1,0.3-6.6,0.7-10.2,0.9c-1.8,0.1-3.7,0.3-5.6,0.4c-1.9,0.1-3.8,0.2-5.8,0.3c-4,0.2-8,0.3-12.2,0.4
	c-4.2,0-8.4,0.1-12.6,0.1c-2.1,0-4.2-0.1-6.3-0.1c-2.1,0-4.2-0.1-6.3-0.2c-4.2-0.1-8.2-0.4-12.2-0.6c-4-0.2-7.8-0.7-11.4-1
	s-7-0.8-10.2-1.2c-3.1-0.4-6-0.9-8.5-1.3s-4.7-0.9-6.5-1.2C163.3,464.3,161.2,463.8,161.2,463.8L161.2,463.8z M217.4,433.2
	c0,0,0.4,0.1,1.2,0.2c0.8,0.1,1.8,0.3,3.1,0.5c0.6,0.1,1.3,0.2,2.1,0.3c0.7,0.1,1.5,0.2,2.3,0.3s1.6,0.1,2.4,0.2
	c0.8,0.1,1.7,0.1,2.5,0.1s1.7,0.1,2.5,0c0.8,0,1.7,0,2.5-0.1s1.6-0.1,2.3-0.1c0.7-0.1,1.4-0.1,2.1-0.2c1.3-0.1,2.4-0.2,3.1-0.3
	c0.8-0.1,1.2-0.1,1.2-0.1s-0.4,0.2-1.1,0.5c-0.4,0.2-0.8,0.3-1.3,0.5s-1.1,0.4-1.7,0.6c-1.3,0.4-2.8,0.7-4.4,0.9
	c-0.8,0.1-1.7,0.2-2.6,0.2c-0.9,0.1-1.8,0-2.6,0c-0.9-0.1-1.8-0.1-2.6-0.2c-0.9-0.1-1.7-0.2-2.5-0.4c-1.6-0.3-3.1-0.7-4.4-1.2
	c-0.6-0.2-1.2-0.4-1.7-0.7c-0.5-0.2-0.9-0.4-1.3-0.6C217.8,433.5,217.4,433.2,217.4,433.2z"/>
<path class="st2" d="M290.4,131.2c-0.7,0.1-1.4,0.2-2.1,0.2c-39.3,2.3-65.5-3.1-104.8-0.7c-0.6-0.1-1.2-0.3-1.8-0.4l-4.8,7.5
	c-1.6,2.6-3.2,5.2-4.2,8c-0.8,2.4-1.2,4.9-1.4,7.4c-1.4,16.3,2.8,33.3,13.6,45.9c2,2.3,4.2,4.5,7,5.8c2.9,1.3,16.1,8,39.7,8.5
	c5,0.1,21.3,0.4,26.3-0.2c11.6-1.4,22.2-8.6,29.8-17.5c8.5-9.9,10.2-24.8,9.8-37.3C297.2,147.8,295.1,139.1,290.4,131.2L290.4,131.2
	z"/>
</svg>
