<?xml version="1.0" encoding="utf-8"?>
<!-- Generator: Adobe Illustrator 19.2.0, SVG Export Plug-In . SVG Version: 6.00 Build 0)  -->
<svg version="1.1" id="Layer_1" xmlns="http://www.w3.org/2000/svg" xmlns:xlink="http://www.w3.org/1999/xlink" x="0px" y="0px"
	 viewBox="0 0 460 177" style="enable-background:new 0 0 460 177;" xml:space="preserve">
<style type="text/css">
	.st0{fill:none;stroke:#000000;stroke-width:5;stroke-miterlimit:10;}
	.st1{opacity:0.86;fill:url(#SVGID_1_);enable-background:new    ;}
	.st2{fill:none;stroke:#000000;stroke-miterlimit:10;}
</style>
<g>
	<path class="st0" d="M128.2,167.3c9.8,1.4,19.6,2.3,29.3,3.5c9,1.1,35.1,3.3,39.2,3.2c10.6-0.3,21.3,0.4,31.9-0.4
		c6.4-0.5,12.8-1.6,19.1-2.7c5.6-1,11.3-1.9,16.9-2.9c2.6-0.5,5.5-1,7.2-3.1c1.4-1.7,1.8-4,2.2-6.1c2-9.5,6.9-18.7,14.1-25.3
		c7.6-7,18.2-11.8,26.7-17.9c15-10.6,30.7-22.5,41.7-37.4c7.6-10.3,13.8-21.7,18.9-33.5c2-4.5,28.2-14.6,33.7-16
		c10-2.5,20.1-4.9,30.2-6.9c3.1-0.6,6.2-1.3,9.1-2.7s5.4-3.7,6.3-6.7c0.3-0.8,0.4-1.7,0.1-2.5c-0.6-1.5-2.5-2.1-4.1-2.3
		c-25.2-3.9-61.7-3.3-87.1-3.2c-7.8,0-15.8,0.8-23.6,1c-33.6,1.2-68.4,2-102,2.5C170.8,8.9,103.5,8.8,36.3,9H24.2
		c-4.1,0-11.6-1.4-16,0.3c-1.3,0.5-2.3,1.3-2.9,2.4C3.6,14.8,9,26.6,10,30c3.9,12.4,8.8,24.5,14.9,35.9c12.3,23,29.6,43.8,52.2,57.2
		c8.4,5,17.2,9.4,26.2,13.3c4.5,2,9.3,3.4,13.8,5.3c4.1,1.7,5.4,5.9,6,10.2c0.5,4,0.3,8.1,0.9,12c0.1,0.7,0.3,1.4,0.7,2
		C125.8,166.9,127,167.2,128.2,167.3L128.2,167.3z"/>
	
		<linearGradient id="SVGID_1_" gradientUnits="userSpaceOnUse" x1="31.8237" y1="64.3319" x2="368.1237" y2="64.3319" gradientTransform="matrix(1 0 0 -1 0 157)">
		<stop  offset="7.000001e-03" style="stop-color:#FFA200"/>
		<stop  offset="1" style="stop-color:#5D0007"/>
	</linearGradient>
	<path class="st1" d="M368.1,46C353,46,65.2,46.5,33.3,44c-0.5,0-1-0.3-1.5-0.4c2.8,8.3,6,16.3,10.3,23.9
		c12.7,22.3,34,38.6,57.1,49.8c19.5,9.4,40.4,15.8,61.4,20.9C214,151.4,295.2,125.5,328.8,96C347.6,79.7,359,63,368.1,46L368.1,46z"
		/>
	<path d="M21,19.9c0,0,0.5,1.7,1.5,4.9s2.4,7.9,4.4,13.8c2,5.9,4.6,13,8.6,20.7c0.5,1,1,1.9,1.6,2.9c0.3,0.5,0.6,1,0.8,1.5l0.9,1.5
		c0.6,1,1.2,2,1.9,3s1.3,1.9,2,2.9c2.8,3.9,6.1,7.9,9.7,11.7c7.3,7.7,16.4,15,26.8,21.3c5.2,3.2,10.7,6.2,16.5,8.9
		s11.8,5.5,17.9,8.1c6.2,2.6,12.5,4.9,19,7c6.5,2,13.2,3.7,20.1,4.8c3.4,0.6,6.9,0.9,10.4,1.3c3.5,0.3,7,0.7,10.5,0.9
		c7.1,0.5,14.2,0.7,21.3,0.6c7.1-0.1,14.2-0.4,21.2-1.1c7-0.7,14-1.7,20.9-3c13.7-2.6,26.9-6.6,39.2-11.7
		c12.3-5.1,23.6-11.3,33.6-18.2c5-3.5,9.7-7.1,14-10.9c2.1-1.9,4.3-3.8,6.2-5.7c1-1,2-1.9,2.9-2.9s1.9-2,2.8-2.9s1.8-1.9,2.7-2.9
		c0.9-1,1.7-1.9,2.6-2.9c1.6-2,3.2-3.9,4.7-5.8c0.7-1,1.5-1.9,2.2-2.8c0.7-1,1.4-1.9,2-2.8c1.4-1.8,2.6-3.7,3.8-5.5
		c4.8-7.3,8.4-13.9,11.3-19.4s5-10,6.5-13s2.2-4.6,2.2-4.6s-0.7,1.6-2.1,4.7c-1.4,3-3.4,7.5-6.1,13.1c-2.8,5.6-6.2,12.4-10.9,19.8
		c-4.6,7.4-10.4,15.5-17.7,23.4c-0.9,1-1.8,2-2.8,3c-0.9,1-2,2-2.9,3c-2,2-4.1,3.9-6.2,5.9c-4.3,3.9-9,7.7-14,11.3
		c-10.1,7.2-21.5,13.6-33.9,18.9c-12.4,5.2-25.8,9.3-39.7,12.1c-6.9,1.4-14,2.4-21.1,3.2c-7.1,0.7-14.3,1.1-21.5,1.2
		c-7.2,0.1-14.4-0.2-21.5-0.7c-3.6-0.2-7.1-0.6-10.7-1c-3.5-0.5-7-0.8-10.5-1.4c-7-1.1-13.9-2.9-20.5-5s-13-4.5-19.2-7.2
		c-6.2-2.6-12.2-5.4-18-8.3c-5.8-2.9-11.4-5.9-16.6-9.3c-10.4-6.6-19.5-14.1-26.9-22c-3.7-4-6.9-8-9.7-12.1c-0.7-1-1.3-2-2-3.1
		c-0.7-1-1.2-2-1.8-3l-0.9-1.5c-0.3-0.5-0.5-1-0.8-1.5l-1.5-3c-3.9-7.9-6.3-15.1-8.2-21c-1.9-6-3.1-10.7-4-14
		C21.5,21.6,21,19.9,21,19.9L21,19.9z"/>
	<path class="st2" d="M28.4,39.9c31.9,2.4,319.7,2.1,334.8,1.5"/>
</g>
</svg>
