<svg id="Layer_1" xmlns="http://www.w3.org/2000/svg" viewBox="0 0 705 705"><style>.st0,.st1{fill:none}.st1{stroke:#000;stroke-width:5;stroke-miterlimit:10}.st2{opacity:.86;fill:url(#SVGID_1_);enable-background:new}.st3{fill:none;stroke:#000;stroke-miterlimit:10}</style><path class="st0" d="M122.5 0h460v705h-460V0z"/><path class="st1" d="M250.7 695.3c9.8 1.4 19.6 2.3 29.3 3.5 9 1.1 35.1 3.3 39.2 3.2 10.6-.3 21.3.4 31.9-.4 6.4-.5 12.8-1.6 19.1-2.7 5.6-1 11.3-1.9 16.9-2.9 2.6-.5 5.5-1 7.2-3.1 1.4-1.7 1.8-4 2.2-6.1 2-9.5 6.9-18.7 14.1-25.3 7.6-7 18.2-11.8 26.7-17.9 15-10.6 30.7-22.5 41.7-37.4 7.6-10.3 13.8-21.7 18.9-33.5 2-4.5 28.2-14.6 33.7-16 10-2.5 20.1-4.9 30.2-6.9 3.1-.6 6.2-1.3 9.1-2.7s5.4-3.7 6.3-6.7c.3-.8.4-1.7.1-2.5-.6-1.5-2.5-2.1-4.1-2.3-25.2-3.9-61.7-3.3-87.1-3.2-7.8 0-15.8.8-23.6 1-33.6 1.2-68.4 2-102 2.5-67.2 1-134.5.9-201.7 1.1h-12.1c-4.1 0-11.6-1.4-16 .3-1.3.5-2.3 1.3-2.9 2.4-1.7 3.1 3.7 14.9 4.7 18.3 3.9 12.4 8.8 24.5 14.9 35.9 12.3 23 29.6 43.8 52.2 57.2 8.4 5 17.2 9.4 26.2 13.3 4.5 2 9.3 3.4 13.8 5.3 4.1 1.7 5.4 5.9 6 10.2.5 4 .3 8.1.9 12 .1.7.3 1.4.7 2 1.1 1 2.3 1.3 3.5 1.4z"/><linearGradient id="SVGID_1_" gradientUnits="userSpaceOnUse" x1="154.324" y1="86.335" x2="490.624" y2="86.335" gradientTransform="matrix(1 0 0 -1 0 707)"><stop offset=".007" stop-color="#ffa200"/><stop offset="1" stop-color="#5d0007"/></linearGradient><path class="st2" d="M490.6 574c-15.1 0-302.9.5-334.8-2-.5 0-1-.3-1.5-.4 2.8 8.3 6 16.3 10.3 23.9 12.7 22.3 34 38.6 57.1 49.8 19.5 9.4 40.4 15.8 61.4 20.9 53.4 13.2 134.6-12.7 168.2-42.2 18.8-16.3 30.2-33 39.3-50z"/><path d="M143.5 547.9s.5 1.7 1.5 4.9 2.4 7.9 4.4 13.8c2 5.9 4.6 13 8.6 20.7.5 1 1 1.9 1.6 2.9.3.5.6 1 .8 1.5l.9 1.5c.6 1 1.2 2 1.9 3s1.3 1.9 2 2.9c2.8 3.9 6.1 7.9 9.7 11.7 7.3 7.7 16.4 15 26.8 21.3 5.2 3.2 10.7 6.2 16.5 8.9s11.8 5.5 17.9 8.1c6.2 2.6 12.5 4.9 19 7 6.5 2 13.2 3.7 20.1 4.8 3.4.6 6.9.9 10.4 1.3 3.5.3 7 .7 10.5.9 7.1.5 14.2.7 21.3.6 7.1-.1 14.2-.4 21.2-1.1 7-.7 14-1.7 20.9-3 13.7-2.6 26.9-6.6 39.2-11.7 12.3-5.1 23.6-11.3 33.6-18.2 5-3.5 9.7-7.1 14-10.9 2.1-1.9 4.3-3.8 6.2-5.7 1-1 2-1.9 2.9-2.9s1.9-2 2.8-2.9 1.8-1.9 2.7-2.9c.9-1 1.7-1.9 2.6-2.9 1.6-2 3.2-3.9 4.7-5.8.7-1 1.5-1.9 2.2-2.8.7-1 1.4-1.9 2-2.8 1.4-1.8 2.6-3.7 3.8-5.5 4.8-7.3 8.4-13.9 11.3-19.4s5-10 6.5-13 2.2-4.6 2.2-4.6-.7 1.6-2.1 4.7c-1.4 3-3.4 7.5-6.1 13.1-2.8 5.6-6.2 12.4-10.9 19.8-4.6 7.4-10.4 15.5-17.7 23.4-.9 1-1.8 2-2.8 3-.9 1-2 2-2.9 3-2 2-4.1 3.9-6.2 5.9-4.3 3.9-9 7.7-14 11.3-10.1 7.2-21.5 13.6-33.9 18.9-12.4 5.2-25.8 9.3-39.7 12.1-6.9 1.4-14 2.4-21.1 3.2-7.1.7-14.3 1.1-21.5 1.2-7.2.1-14.4-.2-21.5-.7-3.6-.2-7.1-.6-10.7-1-3.5-.5-7-.8-10.5-1.4-7-1.1-13.9-2.9-20.5-5s-13-4.5-19.2-7.2c-6.2-2.6-12.2-5.4-18-8.3-5.8-2.9-11.4-5.9-16.6-9.3-10.4-6.6-19.5-14.1-26.9-22-3.7-4-6.9-8-9.7-12.1-.7-1-1.3-2-2-3.1-.7-1-1.2-2-1.8-3l-.9-1.5c-.3-.5-.5-1-.8-1.5l-1.5-3c-3.9-7.9-6.3-15.1-8.2-21-1.9-6-3.1-10.7-4-14-.5-3.5-1-5.2-1-5.2z"/><path class="st3" d="M150.9 567.9c31.9 2.4 319.7 2.1 334.8 1.5"/></svg>