<?xml version="1.0" encoding="utf-8"?>
<!-- Generator: Adobe Illustrator 19.2.0, SVG Export Plug-In . SVG Version: 6.00 Build 0)  -->
<svg version="1.1" id="Layer_1" xmlns="http://www.w3.org/2000/svg" xmlns:xlink="http://www.w3.org/1999/xlink" x="0px" y="0px"
	 viewBox="0 0 700 700" style="enable-background:new 0 0 700 700;" xml:space="preserve">
<style type="text/css">
	.st0{fill:none;}
	.st1{fill:none;stroke:#000000;stroke-width:5;stroke-miterlimit:10;}
	.st2{opacity:0.86;fill:url(#SVGID_1_);}
	.st3{fill:none;stroke:#000000;stroke-miterlimit:10;}
</style>
<rect x="0" y="0" class="st0" width="700" height="700"/>
<g>
	<path class="st1" d="M248,693.3c9.8,1.4,19.6,2.3,29.3,3.5c9,1.1,35.1,3.3,39.2,3.2c10.6-0.3,21.3,0.4,31.9-0.4
		c6.4-0.5,12.8-1.6,19.1-2.7c5.6-1,11.3-1.9,16.9-2.9c2.6-0.5,5.5-1,7.2-3.1c1.4-1.7,1.8-4,2.2-6.1c2-9.5,6.9-18.7,14.1-25.3
		c7.6-7,18.2-11.8,26.7-17.9c15-10.6,30.7-22.5,41.7-37.4c7.6-10.3,13.8-21.7,18.9-33.5c2-4.5,28.2-14.6,33.7-16
		c10-2.5,20.1-4.9,30.2-6.9c3.1-0.6,6.2-1.3,9.1-2.7s5.4-3.7,6.3-6.7c0.3-0.8,0.4-1.7,0.1-2.5c-0.6-1.5-2.5-2.1-4.1-2.3
		c-25.2-3.9-61.7-3.3-87.1-3.2c-7.8,0-15.8,0.8-23.6,1c-33.6,1.2-68.4,2-102,2.5c-67.2,1-134.5,0.9-201.7,1.1c-4,0-8.1,0-12.1,0
		c-4.1,0-11.6-1.4-16,0.3c-1.3,0.5-2.3,1.3-2.9,2.4c-1.7,3.1,3.7,14.9,4.7,18.3c3.9,12.4,8.8,24.5,14.9,35.9
		c12.3,23,29.6,43.8,52.2,57.2c8.4,5,17.2,9.4,26.2,13.3c4.5,2,9.3,3.4,13.8,5.3c4.1,1.7,5.4,5.9,6,10.2c0.5,4,0.3,8.1,0.9,12
		c0.1,0.7,0.3,1.4,0.7,2C245.6,692.9,246.8,693.2,248,693.3z"/>
	<linearGradient id="SVGID_1_" gradientUnits="userSpaceOnUse" x1="151.5484" y1="618.7879" x2="487.8562" y2="618.7879">
		<stop  offset="6.636639e-03" style="stop-color:#FFA200"/>
		<stop  offset="0.9996" style="stop-color:#5D0007"/>
	</linearGradient>
	<path class="st2" d="M487.9,572c-15.1,0-302.9,0.5-334.8-2c-0.5,0-1-0.3-1.5-0.4c2.8,8.3,6,16.3,10.3,23.9
		c12.7,22.3,34,38.6,57.1,49.8c19.5,9.4,40.4,15.8,61.4,20.9c53.4,13.2,134.6-12.7,168.2-42.2C467.4,605.7,478.8,589,487.9,572
		C487.9,572,487.9,572,487.9,572z"/>
	<g>
		<path d="M140.8,545.9c0,0,0.5,1.7,1.5,4.9c1,3.2,2.4,7.9,4.4,13.8c2,5.9,4.6,13,8.6,20.7c0.5,1,1,1.9,1.6,2.9
			c0.3,0.5,0.6,1,0.8,1.5c0.3,0.5,0.6,1,0.9,1.5c0.6,1,1.2,2,1.9,3c0.7,1,1.3,1.9,2,2.9c2.8,3.9,6.1,7.9,9.7,11.7
			c7.3,7.7,16.4,15,26.8,21.3c5.2,3.2,10.7,6.2,16.5,8.9c5.8,2.7,11.8,5.5,17.9,8.1c6.2,2.6,12.5,4.9,19,7c6.5,2,13.2,3.7,20.1,4.8
			c3.4,0.6,6.9,0.9,10.4,1.3c3.5,0.3,7,0.7,10.5,0.9c7.1,0.5,14.2,0.7,21.3,0.6c7.1-0.1,14.2-0.4,21.2-1.1c7-0.7,14-1.7,20.9-3
			c13.7-2.6,26.9-6.6,39.2-11.7c12.3-5.1,23.6-11.3,33.6-18.2c5-3.5,9.7-7.1,14-10.9c2.1-1.9,4.3-3.8,6.2-5.7c1-1,2-1.9,2.9-2.9
			c0.9-1,1.9-2,2.8-2.9c0.9-0.9,1.8-1.9,2.7-2.9c0.9-1,1.7-1.9,2.6-2.9c1.6-2,3.2-3.9,4.7-5.8c0.7-1,1.5-1.9,2.2-2.8
			c0.7-1,1.4-1.9,2-2.8c1.4-1.8,2.6-3.7,3.8-5.5c4.8-7.3,8.4-13.9,11.3-19.4c2.9-5.5,5-10,6.5-13c1.5-3,2.2-4.6,2.2-4.6
			s-0.7,1.6-2.1,4.7c-1.4,3-3.4,7.5-6.1,13.1c-2.8,5.6-6.2,12.4-10.9,19.8c-4.6,7.4-10.4,15.5-17.7,23.4c-0.9,1-1.8,2-2.8,3
			c-0.9,1-2,2-2.9,3c-2,2-4.1,3.9-6.2,5.9c-4.3,3.9-9,7.7-14,11.3c-10.1,7.2-21.5,13.6-33.9,18.9c-12.4,5.2-25.8,9.3-39.7,12.1
			c-6.9,1.4-14,2.4-21.1,3.2c-7.1,0.7-14.3,1.1-21.5,1.2c-7.2,0.1-14.4-0.2-21.5-0.7c-3.6-0.2-7.1-0.6-10.7-1
			c-3.5-0.5-7-0.8-10.5-1.4c-7-1.1-13.9-2.9-20.5-5c-6.6-2.1-13-4.5-19.2-7.2c-6.2-2.6-12.2-5.4-18-8.3c-5.8-2.9-11.4-5.9-16.6-9.3
			c-10.4-6.6-19.5-14.1-26.9-22c-3.7-4-6.9-8-9.7-12.1c-0.7-1-1.3-2-2-3.1c-0.7-1-1.2-2-1.8-3c-0.3-0.5-0.6-1-0.9-1.5
			c-0.3-0.5-0.5-1-0.8-1.5c-0.5-1-1-2-1.5-3c-3.9-7.9-6.3-15.1-8.2-21c-1.9-6-3.1-10.7-4-14C141.3,547.6,140.8,545.9,140.8,545.9z"
			/>
	</g>
	<path class="st3" d="M148.2,565.9c31.9,2.4,319.7,2.1,334.8,1.5"/>
</g>
</svg>
