<svg id="Layer_1" xmlns="http://www.w3.org/2000/svg" viewBox="0 0 705 705"><style>.st0,.st1{fill:none}.st1{stroke:#000;stroke-width:5;stroke-miterlimit:10}.st2,.st3{opacity:.9;fill:url(#SVGID_1_);enable-background:new}.st3{opacity:.86;fill:url(#SVGID_2_)}</style><path class="st0" d="M122.5 0h460v705h-460V0z"/><path class="st1" d="M6711.1-565.6c.3 38.5.2 82.4-5.7 120.5-2.3 14.7-3.7 31.7-10.6 44.9-9.4 17.9-18.6 35.9-34 49.5-5.5 4.9-11.5 9.2-17.9 12.8-4.2 2.3-15.3 5.1-15.9 10.8-.4 3.6 3.8 5.7 6.9 7.6 6.9 4.3 10.9 12.3 11.6 20.4 1.5 15.4-5.6 30.7-18.9 38.8-.8.5-1.6 1-1.9 1.8-.7 2.1 2.1 3.4 4.2 3.8 12.1 2.1 24 5 35.7 8.7 7.7 2.4 24.3 10.6 12 18.5-7.7 4.9-17 6.2-26 7.3-24.7 3.1-49.7 6.2-74.5 3.9-5.6-.5-11.2-1.4-16.8-2.2l-22.5-3.3c-5.3-.8-11.8-2.7-12.7-7.9-1.7-10.2 16.6-15.1 23.6-17.2 4.9-1.5 36.5-4.6 35.6-9.3-.5-2.4-2.8-3.9-4.8-5.4-8.9-6.4-15-16.4-16.6-27.2-1.6-10.8 1.3-22.2 7.9-30.9 2.2-2.9 4.9-6 4.4-9.6-.2-1.5-1-2.9-2-4.1-5.1-6.7-15.9-9.5-22.8-14.7-7.9-6-15.2-12.8-21.6-20.4-12.5-14.5-22.1-31.5-27.6-49.9-5.2-17.2-6.9-35.3-8.2-53.2-2.3-31-3.6-62-3.8-93.1 20.2-2.4 42-1.8 62.4-1.4 52.8 1.1 160.5-1.6 160.5.5z"/><path d="M6584.5-250.7v1.9c0 .6.1 1.3.6 1.9.4.6 1.2.8 2.2.8 2.1-.1 4.5-.2 7.1-.2 1.3 0 2.7-.1 4-.1 1.4-.1 2.8-.1 4.1-.2 1.4-.1 2.8-.1 4.1-.2 1.4-.1 2.7-.1 4-.2 2.6-.1 5-.2 7.1-.3 2-.1 3.7-.6 4.6-1.3.4-.4.7-.8.8-1.1.1-.3.2-.5.2-.5v.5c-.1.3-.2.8-.6 1.3s-1.1 1-1.9 1.4-1.8.7-2.8.8c-2.1.4-4.5.7-7.1.9-1.3.1-2.7.3-4 .4-1.4.1-2.8.2-4.2.2-1.4 0-2.8.1-4.2.1h-4.1c-2.6-.1-5.1-.2-7.2-.4-.5-.1-1.1-.1-1.6-.4-.5-.3-.9-.7-1.1-1.1-.4-.9-.4-1.7-.3-2.3s.2-1.1.3-1.4c-.1-.3 0-.5 0-.5zm-.4-84.6s.6.2 1.6.5c.5.2 1.2.3 1.9.5s1.6.4 2.4.5c.9.2 1.9.3 2.9.5 1 .1 2.1.2 3.3.3 1.1.1 2.3.1 3.5.2h3.6c1.2 0 2.5 0 3.7-.1 1.2 0 2.4-.1 3.6-.1 2.3-.1 4.5-.1 6.3-.3 1.8-.2 3.2-.6 4.1-1.2.4-.3.8-.6 1-.8l.3-.3s-.1.1-.2.4c-.2.3-.4.6-.8 1-.8.8-2.3 1.6-4.2 2-.9.2-2 .4-3 .5-1.1.1-2.2.3-3.3.4l-3.6.3c-1.2.1-2.5.1-3.7.2-1.3 0-2.5 0-3.7-.1-.6 0-1.2-.1-1.8-.1-.6-.1-1.2-.1-1.8-.2-1.2-.1-2.3-.4-3.4-.6-.5-.1-1-.3-1.5-.4-.5-.2-1-.3-1.4-.4-1.8-.6-3.2-1.3-4.2-1.8-1-.6-1.6-.9-1.6-.9zM6534-233.2l.3.3c.2.2.5.4 1 .6.9.5 2.3 1 4.2 1.4 1.9.4 4.2.7 6.8 1.1 2.6.4 5.6.7 8.9 1.1 3.3.3 6.8.7 10.6 1 3.7.3 7.7.5 11.8.7 8.2.3 17 .5 25.7.6 4.4.1 8.8.1 13.1.2 4.3 0 8.5.1 12.6 0s8-.4 11.7-.8c3.7-.5 7.2-1.1 10.4-1.7 6.4-1.4 11.6-3 15.2-4.3 1.8-.7 3.2-1.2 4.2-1.6l1.5-.6s-.5.2-1.4.7c-.9.4-2.3 1.1-4.1 1.8-3.5 1.5-8.7 3.5-15.1 5.1s-14.1 2.9-22.3 3.2c-4.1.2-8.4.2-12.7.2-4.3 0-8.7-.1-13.1-.1-4.4-.1-8.8-.2-13.1-.3-4.3-.1-8.6-.4-12.7-.6-4.1-.3-8.1-.6-11.8-1-3.8-.4-7.3-.8-10.6-1.3-1.6-.3-3.2-.5-4.7-.7-1.5-.3-2.9-.5-4.2-.8-2.6-.5-4.9-1-6.8-1.5s-3.3-1.1-4.1-1.7c-.4-.3-.7-.5-.9-.7-.3-.2-.4-.3-.4-.3z"/><linearGradient id="SVGID_1_" gradientUnits="userSpaceOnUse" x1="6501.3" y1="1150.789" x2="6707.2" y2="1150.789" gradientTransform="matrix(1 0 0 -1 0 707)"><stop offset=".018" stop-color="#801fe3"/><stop offset="1" stop-color="#b7a7ff"/></linearGradient><path class="st2" d="M6501.3-537.4c1.4 24.4 2.7 48.8 4.1 73.2.4 7.9.9 15.9 2.2 23.7 1.8 11.1 5.4 21.8 8.9 32.5 3 9.1 6 18.2 11.1 26.3 17.8 28.1 51.5 32.7 81.9 31.3 10.6-.5 21.3-1.5 31.5-4.7 66.9-21.3 65.2-117 66.1-172.7 0-2.6.1-5.1.1-7.7-68.7 2.2-137.5 4-205.9-1.9z"/><path d="M6496.2-557.1s.6 8.1 1.5 22.2c.5 7.1 1 15.6 1.7 25.5.6 9.8 1.4 20.9 2.1 33.1.4 6.1.7 12.4 1.3 18.9.5 6.5 1.4 13.2 3 19.9 1.6 6.7 3.7 13.5 6 20.4 2.4 6.9 4.5 14 7.5 20.9.8 1.7 1.5 3.4 2.4 5.1.9 1.6 1.8 3.3 2.8 4.8 1.1 1.6 2.2 3.1 3.4 4.7 1.2 1.4 2.5 2.8 3.7 4.3 5.3 5.5 11.7 10 18.8 13.2 7.1 3.3 14.8 5.4 22.6 6.6 7.9 1.3 15.9 1.7 23.9 1.7 8-.1 16.1-.4 24-1.5 3.9-.5 7.9-1.2 11.7-2.2 1-.3 1.9-.5 2.8-.8l.7-.2h.1l.2-.1.4-.1 1.4-.5 2.8-1c.5-.2.9-.3 1.4-.5l1.3-.6c7.1-3.1 13.7-7.4 19.4-12.5 5.7-5.1 10.5-11.1 14.4-17.5 4-6.3 7.1-13.1 9.7-19.8 2.6-6.8 4.6-13.6 6.3-20.3 3.2-13.5 5-26.5 6.2-38.5 1.1-12.1 1.7-23.2 2-33 .3-9.9.5-18.4.7-25.5.2-14.2.4-22.2.4-22.2s0 2 .1 5.8c0 3.8.1 9.4.2 16.4 0 7.1 0 15.7-.2 25.5-.1 9.9-.5 21-1.5 33.1s-2.6 25.2-5.7 38.9c-1.6 6.8-3.6 13.7-6.1 20.6s-5.7 13.8-9.8 20.3c-4 6.5-9 12.7-14.8 18.1-5.9 5.4-12.7 9.8-20.2 13.1l-1.4.6c-.5.2-.9.4-1.4.5l-2.8 1-1.4.5-.4.1-.2.1-.2.1-.7.2c-1 .3-2 .6-2.9.8-3.9 1-8 1.8-12 2.4-8.1 1.1-16.2 1.5-24.4 1.6-8.2 0-16.3-.5-24.4-1.8-8-1.3-16-3.5-23.3-7-7.4-3.4-14.1-8.1-19.6-13.9-1.3-1.5-2.6-3.1-3.9-4.6-1.1-1.6-2.2-3.2-3.3-4.7-2.2-3.4-3.9-6.8-5.4-10.4-3-7.1-5.2-14.2-7.5-21.2-2.2-7-4.3-13.9-5.8-20.7-1.6-6.9-2.4-13.6-2.8-20.2-.5-6.6-.7-12.9-1-18.9-.6-12.1-1.1-23.2-1.6-33.1-.5-9.9-.8-18.4-1.2-25.5-.7-14.2-1-22.2-1-22.2z"/><path d="M6496.6-541.7s.8 0 2.4.1 3.8.2 6.7.3c2.9.2 6.4.3 10.5.5 4 .2 8.6.3 13.6.5s10.4.3 16.1.5 11.7.2 17.9.4c6.2.1 12.6.1 19.2.2 6.5.1 13.2 0 19.8.1 6.6 0 13.3 0 19.8-.1s13-.1 19.2-.2c12.5-.1 24.1-.2 34-.3 10-.1 18.3-.1 24.1-.1h9.1s-.8.1-2.4.2c-1.6.1-3.8.2-6.7.4-5.8.3-14.1.8-24.1 1.3s-21.6.9-34 1.3c-6.2.1-12.7.4-19.2.4-6.5.1-13.2.1-19.8.2-6.6 0-13.3 0-19.8-.2-6.5-.1-13-.3-19.2-.4-6.2-.2-12.3-.4-18-.8-2.9-.2-5.6-.3-8.3-.5-2.7-.2-5.3-.4-7.8-.5-2.5-.2-4.9-.3-7.1-.5-2.3-.2-4.4-.4-6.4-.6-4-.4-7.6-.7-10.4-1-2.9-.3-5.2-.6-6.7-.7-1.7-.4-2.5-.5-2.5-.5z"/><radialGradient id="SVGID_2_" cx="345.906" cy="62.38" r="101.822" gradientTransform="matrix(1 0 0 -1 0 707)" gradientUnits="userSpaceOnUse"><stop offset=".007" stop-color="#ff6500"/><stop offset=".325" stop-color="#c43e03"/><stop offset=".636" stop-color="#901d05"/><stop offset=".87" stop-color="#710806"/><stop offset="1" stop-color="#650007"/></radialGradient><path class="st3" d="M264.4 586.6c-6.7-22.7-3.2-99.6-6.1-145.8 42.7-2.7 85.7-5.4 128.3-1.5 21.7 2 43.8 5.6 64.9.2-3.6 22.2-4.4 44.2-5.9 66.6-2 29.2-2.4 59-12.5 86.4s-32.2 52.6-61.1 56.9c-16.3 2.4-30.9 1.6-47.1-1.3-29.8-5.1-51.9-32.3-60.5-61.5z"/><path class="st1" d="M527.6 466.5c-2.8-14.1-12.4-26.6-25.3-33-7.8-3.9-16.8-5.5-25.5-4.8-4.1.4-23.6 8.2-18-1.8 4.9-8.8 4.4-20.3-7-22.5-27.4-5.3-192.6-8.3-209.4 2.2-4.5 2.8-2.8 9.6-1.5 14.7 5.9 23.5 2 53 2.7 77.3.8 29.1 1 44.2 1.8 73.3.4 16.2 9.2 41.5 20.1 53.5 8.1 8.9 18.6 17 21 28.8-4.7 1.3-9.3 2.5-14 3.8-9.7 2.6-21.1 6.9-23.2 16.7-.5 2.2 3.1 12.8 27.8 18.9 11.5 2.8 94 19.1 151.5-3 6.1-2.4 13.2-6.6 12.8-13.1-.2-3.5-2.7-6.4-5.3-8.7-8.4-7.7-20.6-11.2-31.9-12.2 1.3-14 14.8-23 24.3-33.4 10.9-11.9 17.4-27.6 18.2-43.7.2-3.1.1-6.4 1.7-9.1 1.1-1.9 2.8-3.2 4.6-4.6 17.6-13.3 37-24.3 52.4-40 15.4-15.6 26.6-37.7 22.2-59.3zm-25.3 23.4c-4.2 8.9-10.7 16.6-17.4 23.9-9.9 10.8-20.1 22-32.7 29.2-.3-16.3 1.9-36.7 2.9-53.1.6-9.7 1.3-19.7 5.3-28.6 4.1-8.9 12.4-16.5 22.1-16.8 9.9-.3 18.9 7.2 22.2 16.5 3.4 9.4 1.7 19.9-2.4 28.9z"/><path d="M453.7 415.6s-.6 2.2-1.7 6.4c-1 4.2-2.4 10.3-3.7 18.2-1.3 7.9-2.5 17.5-3.4 28.6s-1.5 23.7-2.3 37.4c-.9 13.7-1.4 28.5-2.8 44.2-.7 7.8-1.8 15.9-3.3 24.1-1.6 8.2-3.8 16.4-6.9 24.5l-1.2 3c-.4 1-.9 2-1.3 3-.5 1-.9 2-1.4 3s-1 2-1.5 2.9l-.8 1.5-.8 1.4-1.7 2.9c-1.2 1.9-2.4 3.7-3.7 5.6-5.2 7.3-11.4 14-18.7 19.6-7.3 5.5-15.7 9.8-24.8 12.1l-3.4.7c-1.1.2-2.3.5-3.4.6-2.2.3-4.6.6-6.9.8-4.6.4-9.2.6-13.9.5-4.6-.1-9.2-.4-13.8-1-2.3-.3-4.6-.6-6.8-.9-1.1-.2-2.3-.4-3.4-.6l-.8-.1-.4-.1-.3-.1h-.2l-1.7-.4-3.3-.8c-1.1-.3-2.2-.7-3.4-1.1-2.3-.7-4.4-1.6-6.5-2.5-1.1-.4-2.1-1-3.1-1.5l-3.1-1.6-2.9-1.9c-1-.6-2-1.2-2.8-1.9-7.4-5.4-13.8-12-19-19.3-5.3-7.2-9.4-15.1-12.5-23.2l-1.2-3c-.3-1-.7-2.1-1-3.1-.3-1-.7-2-.9-3.1-.2-1-.6-2-.7-3.1-.9-4.3-1.3-8.4-1.7-12.6-.7-8.3-1-16.4-1.2-24.2-.4-15.7-.4-30.6-.4-44.3 0-13.7 0-26.3-.2-37.4s-.5-20.8-1.1-28.8c-.5-8-1.3-14.2-2.1-18.4-.5-2.1-.8-3.7-1.1-4.8-.3-1.1-.5-1.6-.5-1.6s.2.5.5 1.6c.4 1 .7 2.6 1.2 4.7.9 4.2 1.8 10.4 2.5 18.4s1.2 17.7 1.6 28.8c.4 11.1.6 23.7.8 37.4.2 13.7.3 28.6.9 44.3.3 7.8.7 15.9 1.5 24.1.4 4.1.9 8.2 1.7 12.2.2 1 .5 2 .7 3.1.2.9.6 2 .9 3 .3 1 .7 2 1 3 .4 1 .8 2 1.1 3 3.1 7.9 7.2 15.5 12.3 22.6 5.1 7 11.3 13.4 18.5 18.6.9.7 1.8 1.3 2.7 1.9l2.8 1.8 2.9 1.5c1 .5 1.9 1.1 3 1.5 2 .9 4.1 1.8 6.2 2.4 1.1.3 2.1.7 3.1 1l3.3.7 1.7.4h.3l.4.1.8.1c1.1.2 2.2.4 3.4.5 2.2.3 4.5.6 6.7.9 4.5.5 9 .8 13.5.9 4.5.1 9 0 13.5-.4 2.3-.2 4.5-.4 6.7-.7 1.1-.1 2.2-.3 3.3-.6l3.3-.6c8.6-2.2 16.7-6.2 23.8-11.5 7-5.4 13.1-11.9 18.2-18.9 1.2-1.8 2.5-3.6 3.6-5.4l1.7-2.8.8-1.4.7-1.4c.5-1 1-1.9 1.5-2.9.5-.9.9-1.9 1.4-2.9.4-1 .9-1.9 1.3-2.9l1.2-3c3.1-7.9 5.3-16 6.9-24 1.7-8 2.8-16 3.6-23.8 1.6-15.6 2.3-30.5 3.3-44.1.5-6.8.9-13.4 1.3-19.6.5-6.2 1-12.2 1.5-17.7 1.1-11.1 2.4-20.7 3.9-28.6 1.4-7.9 3-14 4.1-18.1 1.5-4.6 2.1-6.8 2.1-6.8z"/><path d="M447.5 443.5l-2.1.6c-1.4.4-3.4.9-6.1 1.4-2.6.4-5.9 1-9.6 1.2-3.7.3-8 .5-12.6.4s-9.6-.3-14.8-.7c-5.2-.4-10.8-.9-16.5-1.4s-11.6-.9-17.6-1.3-12.1-.6-18.2-.7c-3-.1-6.1-.1-9.1-.2-3 0-6.1-.1-9.1 0-6 0-11.9.1-17.6.2s-11.2.2-16.5.4c-5.2.2-10.2.3-14.8.5-9.2.3-16.8.6-22.1.8-2.7.1-4.8.1-6.2.2-1.4 0-2.2.1-2.2.1s.8-.1 2.2-.2 3.5-.4 6.2-.6c2.7-.2 5.9-.5 9.6-.9 3.7-.3 7.9-.7 12.5-1s9.5-.7 14.8-1c5.2-.3 10.8-.6 16.5-.8 5.7-.2 11.7-.4 17.7-.4 6-.1 12.1 0 18.3.1 6.1.2 12.2.4 18.3.8 3 .2 6 .4 8.9.7 2.9.3 5.8.5 8.7.8 5.7.6 11.2 1.3 16.4 1.8 5.2.5 10.1 1 14.7 1.2s8.7.3 12.4.2c3.7-.1 6.9-.4 9.6-.7 2.6-.4 4.7-.7 6.1-1 1.5-.3 2.2-.5 2.2-.5zM258.3 673.3s2.6 1 7.2 2.5 11.2 3.5 19.2 5.5c4 1 8.4 2 13 3s9.6 1.8 14.7 2.7c5.1.8 10.4 1.6 15.8 2.1 1.3.1 2.7.3 4.1.4 1.4.1 2.7.2 4.1.3 2.7.3 5.5.4 8.2.5 2.7.2 5.5.2 8.2.3 2.7 0 5.5.1 8.2.1 2.7-.1 5.4-.1 8.1-.2 2.7-.2 5.3-.3 7.9-.5s5.1-.5 7.6-.7c2.5-.3 4.9-.6 7.2-.8 2.3-.4 4.6-.7 6.8-1 2.2-.4 4.3-.8 6.3-1.2s4-.8 5.8-1.2 3.6-.8 5.2-1.2c3.2-.9 6.1-1.6 8.4-2.3 4.6-1.4 7.3-2.2 7.3-2.2s-2.6.9-7.2 2.6c-2.3.8-5.1 1.6-8.3 2.6-1.6.5-3.4.9-5.2 1.4-1.8.5-3.8 1-5.8 1.4s-4.1.9-6.4 1.3c-2.2.4-4.5.8-6.8 1.2-2.4.3-4.8.7-7.3 1s-5 .5-7.6.8c-2.6.2-5.2.3-7.9.5l-8.1.3h-8.3c-2.8-.1-5.5-.1-8.3-.3s-5.5-.3-8.3-.6c-1.4-.1-2.8-.2-4.1-.4-1.4-.2-2.7-.3-4.1-.5-5.4-.6-10.7-1.4-15.9-2.3-5.1-.9-10.1-1.9-14.7-3s-9-2.2-13-3.3c-8-2.2-14.5-4.6-19.1-6.2-4.4-1.4-6.9-2.6-6.9-2.6z"/></svg>