<svg id="Layer_1" xmlns="http://www.w3.org/2000/svg" viewBox="0 0 700 700"><style>.st0,.st1{fill:none}.st1{stroke:#000;stroke-width:5;stroke-miterlimit:10}.st2{opacity:.9;fill:url(#SVGID_1_)}.st3{fill:url(#SVGID_2_)}.st4{fill:none;stroke:#000;stroke-width:2;stroke-miterlimit:10}</style><path class="st0" d="M0 0h700v700H0z"/><path class="st1" d="M6708.6-568.1c.3 38.5.2 82.4-5.7 120.5-2.3 14.7-3.7 31.7-10.6 44.9-9.4 17.9-18.6 35.9-34 49.5-5.5 4.9-11.5 9.2-17.9 12.8-4.2 2.3-15.3 5.1-15.9 10.8-.4 3.6 3.8 5.7 6.9 7.6 6.9 4.3 10.9 12.3 11.6 20.4 1.5 15.4-5.6 30.7-18.9 38.8-.8.5-1.6 1-1.9 1.8-.7 2.1 2.1 3.4 4.2 3.8 12.1 2.1 24 5 35.7 8.7 7.7 2.4 24.3 10.6 12 18.5-7.7 4.9-17 6.2-26 7.3-24.7 3.1-49.7 6.2-74.5 3.9-5.6-.5-11.2-1.4-16.8-2.2l-22.5-3.3c-5.3-.8-11.8-2.7-12.7-7.9-1.7-10.2 16.6-15.1 23.6-17.2 4.9-1.5 36.5-4.6 35.6-9.3-.5-2.4-2.8-3.9-4.8-5.4-8.9-6.4-15-16.4-16.6-27.2-1.6-10.8 1.3-22.2 7.9-30.9 2.2-2.9 4.9-6 4.4-9.6-.2-1.5-1-2.9-2-4.1-5.1-6.7-15.9-9.5-22.8-14.7-7.9-6-15.2-12.8-21.6-20.4-12.5-14.5-22.1-31.5-27.6-49.9-5.2-17.2-6.9-35.3-8.2-53.2-2.3-31-3.6-62-3.8-93.1 20.2-2.4 42-1.8 62.4-1.4 52.8 1.1 160.5-1.6 160.5.5z"/><path d="M6582-253.2v1.9c0 .6.1 1.3.6 1.9.4.6 1.2.8 2.2.8 2.1-.1 4.5-.2 7.1-.2 1.3 0 2.7-.1 4-.1 1.4-.1 2.8-.1 4.1-.2 1.4-.1 2.8-.1 4.1-.2 1.4-.1 2.7-.1 4-.2 2.6-.1 5-.2 7.1-.3 2-.1 3.7-.6 4.6-1.3.4-.4.7-.8.8-1.1.1-.3.2-.5.2-.5v.5c-.1.3-.2.8-.6 1.3-.4.5-1.1 1-1.9 1.4-.8.4-1.8.7-2.8.8-2.1.4-4.5.7-7.1.9-1.3.1-2.7.3-4 .4-1.4.1-2.8.2-4.2.2-1.4 0-2.8.1-4.2.1h-4.1c-2.6-.1-5.1-.2-7.2-.4-.5-.1-1.1-.1-1.6-.4-.5-.3-.9-.7-1.1-1.1-.4-.9-.4-1.7-.3-2.3.1-.6.2-1.1.3-1.4-.1-.3 0-.5 0-.5zm-.4-84.6s.6.2 1.6.5c.5.2 1.2.3 1.9.5s1.6.4 2.4.5c.9.2 1.9.3 2.9.5 1 .1 2.1.2 3.3.3 1.1.1 2.3.1 3.5.2h3.6c1.2 0 2.5 0 3.7-.1 1.2 0 2.4-.1 3.6-.1 2.3-.1 4.5-.1 6.3-.3 1.8-.2 3.2-.6 4.1-1.2.4-.3.8-.6 1-.8l.3-.3s-.1.1-.2.4c-.2.3-.4.6-.8 1-.8.8-2.3 1.6-4.2 2-.9.2-2 .4-3 .5-1.1.1-2.2.3-3.3.4l-3.6.3c-1.2.1-2.5.1-3.7.2-1.3 0-2.5 0-3.7-.1-.6 0-1.2-.1-1.8-.1-.6-.1-1.2-.1-1.8-.2-1.2-.1-2.3-.4-3.4-.6-.5-.1-1-.3-1.5-.4-.5-.2-1-.3-1.4-.4-1.8-.6-3.2-1.3-4.2-1.8-1-.6-1.6-.9-1.6-.9zm-50.1 102.1l.3.3c.2.2.5.4 1 .6.9.5 2.3 1 4.2 1.4 1.9.4 4.2.7 6.8 1.1 2.6.4 5.6.7 8.9 1.1 3.3.3 6.8.7 10.6 1 3.7.3 7.7.5 11.8.7 8.2.3 17 .5 25.7.6 4.4.1 8.8.1 13.1.2 4.3 0 8.5.1 12.6 0s8-.4 11.7-.8c3.7-.5 7.2-1.1 10.4-1.7 6.4-1.4 11.6-3 15.2-4.3 1.8-.7 3.2-1.2 4.2-1.6l1.5-.6s-.5.2-1.4.7c-.9.4-2.3 1.1-4.1 1.8-3.5 1.5-8.7 3.5-15.1 5.1-6.4 1.6-14.1 2.9-22.3 3.2-4.1.2-8.4.2-12.7.2-4.3 0-8.7-.1-13.1-.1-4.4-.1-8.8-.2-13.1-.3-4.3-.1-8.6-.4-12.7-.6-4.1-.3-8.1-.6-11.8-1-3.8-.4-7.3-.8-10.6-1.3-1.6-.3-3.2-.5-4.7-.7-1.5-.3-2.9-.5-4.2-.8-2.6-.5-4.9-1-6.8-1.5-1.9-.5-3.3-1.1-4.1-1.7-.4-.3-.7-.5-.9-.7-.3-.2-.4-.3-.4-.3z"/><linearGradient id="SVGID_1_" gradientUnits="userSpaceOnUse" x1="6498.813" y1="-446.236" x2="6704.691" y2="-446.236"><stop offset=".018" stop-color="#801fe3"/><stop offset="1" stop-color="#b7a7ff"/></linearGradient><path class="st2" d="M6498.8-539.9c1.4 24.4 2.7 48.8 4.1 73.2.4 7.9.9 15.9 2.2 23.7 1.8 11.1 5.4 21.8 8.9 32.5 3 9.1 6 18.2 11.1 26.3 17.8 28.1 51.5 32.7 81.9 31.3 10.6-.5 21.3-1.5 31.5-4.7 66.9-21.3 65.2-117 66.1-172.7 0-2.6.1-5.1.1-7.7-68.7 2.2-137.5 4-205.9-1.9z"/><path d="M6493.7-559.6s.6 8.1 1.5 22.2c.5 7.1 1 15.6 1.7 25.5.6 9.8 1.4 20.9 2.1 33.1.4 6.1.7 12.4 1.3 18.9.5 6.5 1.4 13.2 3 19.9 1.6 6.7 3.7 13.5 6 20.4 2.4 6.9 4.5 14 7.5 20.9.8 1.7 1.5 3.4 2.4 5.1.9 1.6 1.8 3.3 2.8 4.8 1.1 1.6 2.2 3.1 3.4 4.7 1.2 1.4 2.5 2.8 3.7 4.3 5.3 5.5 11.7 10 18.8 13.2 7.1 3.3 14.8 5.4 22.6 6.6 7.9 1.3 15.9 1.7 23.9 1.7 8-.1 16.1-.4 24-1.5 3.9-.5 7.9-1.2 11.7-2.2 1-.3 1.9-.5 2.8-.8l.7-.2h.1l.2-.1.4-.1 1.4-.5 2.8-1c.5-.2.9-.3 1.4-.5l1.3-.6c7.1-3.1 13.7-7.4 19.4-12.5 5.7-5.1 10.5-11.1 14.4-17.5 4-6.3 7.1-13.1 9.7-19.8 2.6-6.8 4.6-13.6 6.3-20.3 3.2-13.5 5-26.5 6.2-38.5 1.1-12.1 1.7-23.2 2-33 .3-9.9.5-18.4.7-25.5.2-14.2.4-22.2.4-22.2s0 2 .1 5.8c0 3.8.1 9.4.2 16.4 0 7.1 0 15.7-.2 25.5-.1 9.9-.5 21-1.5 33.1-1 12.1-2.6 25.2-5.7 38.9-1.6 6.8-3.6 13.7-6.1 20.6-2.5 6.9-5.7 13.8-9.8 20.3-4 6.5-9 12.7-14.8 18.1-5.9 5.4-12.7 9.8-20.2 13.1l-1.4.6c-.5.2-.9.4-1.4.5l-2.8 1-1.4.5-.4.1-.2.1-.2.1-.7.2c-1 .3-2 .6-2.9.8-3.9 1-8 1.8-12 2.4-8.1 1.1-16.2 1.5-24.4 1.6-8.2 0-16.3-.5-24.4-1.8-8-1.3-16-3.5-23.3-7-7.4-3.4-14.1-8.1-19.6-13.9-1.3-1.5-2.6-3.1-3.9-4.6-1.1-1.6-2.2-3.2-3.3-4.7-2.2-3.4-3.9-6.8-5.4-10.4-3-7.1-5.2-14.2-7.5-21.2-2.2-7-4.3-13.9-5.8-20.7-1.6-6.9-2.4-13.6-2.8-20.2-.5-6.6-.7-12.9-1-18.9-.6-12.1-1.1-23.2-1.6-33.1-.5-9.9-.8-18.4-1.2-25.5-.7-14.2-1-22.2-1-22.2z"/><path d="M6494.1-544.2s.8 0 2.4.1c1.6.1 3.8.2 6.7.3 2.9.2 6.4.3 10.5.5 4 .2 8.6.3 13.6.5s10.4.3 16.1.5c5.7.2 11.7.2 17.9.4 6.2.1 12.6.1 19.2.2 6.5.1 13.2 0 19.8.1 6.6 0 13.3 0 19.8-.1s13-.1 19.2-.2c12.5-.1 24.1-.2 34-.3 10-.1 18.3-.1 24.1-.1h9.1s-.8.1-2.4.2c-1.6.1-3.8.2-6.7.4-5.8.3-14.1.8-24.1 1.3-10 .5-21.6.9-34 1.3-6.2.1-12.7.4-19.2.4-6.5.1-13.2.1-19.8.2-6.6 0-13.3 0-19.8-.2-6.5-.1-13-.3-19.2-.4-6.2-.2-12.3-.4-18-.8-2.9-.2-5.6-.3-8.3-.5-2.7-.2-5.3-.4-7.8-.5-2.5-.2-4.9-.3-7.1-.5-2.3-.2-4.4-.4-6.4-.6-4-.4-7.6-.7-10.4-1-2.9-.3-5.2-.6-6.7-.7-1.7-.4-2.5-.5-2.5-.5z"/><linearGradient id="SVGID_2_" gradientUnits="userSpaceOnUse" x1="394.492" y1="456.136" x2="394.492" y2="643.002"><stop offset="0" stop-color="#fff"/><stop offset=".038" stop-color="#f8f2e4"/><stop offset=".101" stop-color="#eddfbd"/><stop offset=".17" stop-color="#e4ce9a"/><stop offset=".246" stop-color="#dcc07c"/><stop offset=".329" stop-color="#d6b565"/><stop offset=".423" stop-color="#d1ac52"/><stop offset=".536" stop-color="#cea646"/><stop offset=".683" stop-color="#cca23e"/><stop offset="1" stop-color="#cba13c"/></linearGradient><path class="st3" d="M509.1 459.9c-25.4-6.2-192-2.2-228-3.7h-1.2c0 17.7 0 35.4.1 53.1 0 16.4.3 33.9 9.1 47.8 4.1 6.5 9.8 11.8 13.3 18.7 4.8 9.5 4.7 20.8 9.6 30.3 6.4 12.3 20.6 19.2 34.4 19.4 2.5 0 2.6.1 4.8 1.3 11.2 6 21.9 13.9 34.4 15.9 14.1 2.3 28.3-3.3 40.7-10.3 8.9-4.9 19.1-3.2 28.4-7.3 7.7-3.3 14.2-9.5 17.8-17.1 4.1-8.7 4.9-18.6 10.5-26.7 5.5-8 12.1-13.4 15-23.3 2.4-8.3 2.9-17.1 3.5-25.8 1.6-24.5 3.4-48.3 7.6-72.3z"/><path class="st1" d="M273.3 423.8c-.4 36.8-.8 73.6 2.2 110.3.5 6.1 1.1 12.3 2.7 18.2 1.9 7.1 5.2 13.7 7.8 20.5 6.9 17.9 9.3 37.1 11.7 56.2 2.5 19.7 4.9 39.3 7.4 59 5.1 6.4 13.3 7.7 21.4 9.2 8.1 1.4 16.4 1 24.6.7 31-1.2 62.6-.9 93.4 1.8 2.6.2 5.2.5 7.8.4 7.4-.2 25.5-3.4 28.8-11.3 1.1-2.6 1-5.6 1-8.5-.3-25 3.2-49.8 6.6-74.6 2-14.3 5.6-26.2 10.9-39.4 5.4-13.5 5.3-31.3 7.2-45.8 4.3-32.9 8.2-62.2 11.4-95.2-23.1 1.9-185.2-2.3-244.9-1.5z"/><path d="M278.9 431.2s.1 8.4.3 23.1c.1 7.3.2 16.2.3 26.5.1 5.1.1 10.5.2 16.3.1 5.7 0 11.8.2 18 .2 6.3.6 12.8 1.9 19.4 1.3 6.6 3.5 13.2 7.3 19.1 3.8 5.9 9.3 11.1 13.1 18 .5.9.9 1.7 1.3 2.6.4.9.8 1.8 1.1 2.8.7 1.9 1.2 3.7 1.7 5.6 1 3.8 1.7 7.6 2.8 11.3 1 3.7 2.4 7.3 4.4 10.6 2.1 3.2 4.7 6.1 7.9 8.4 6.2 4.7 14.1 7.4 22 7.9 1 .1 2 .1 3 .1.5 0 1.1 0 1.8.2s1.3.5 1.7.7c1 .5 1.9 1 2.8 1.5l2.7 1.5c3.6 2.1 7.2 4.2 10.8 6.2 7.2 4 14.9 7.1 23.1 7.4 4 .2 8.1-.2 12.1-1.1 4-.9 7.9-2.1 11.7-3.7 3.8-1.6 7.5-3.4 11.1-5.4l.7-.4.7-.4.7-.4.8-.3c1-.5 2.1-.8 3.1-1.1 2.1-.6 4.2-1 6.2-1.4 4.1-.7 8.2-1.1 12-2 3.8-.9 7.4-2.6 10.6-4.8 3.2-2.2 6-5 8.2-8.1 1.1-1.6 2.1-3.2 2.9-4.9.8-1.8 1.5-3.5 2.2-5.3 1.3-3.6 2.3-7.4 3.5-11.1.6-1.9 1.3-3.7 2.2-5.5.9-1.8 1.8-3.5 3-5.1 4.4-6.3 9.9-11.5 12.9-17.8.8-1.6 1.4-3.2 1.9-4.8.5-1.7.9-3.3 1.3-5 .7-3.4 1.2-6.8 1.5-10.1.3-3.4.6-6.7.8-9.9.3-3.3.5-6.5.8-9.6 1.1-12.6 2.4-24 3.7-34.2 1.3-10.1 2.5-19 3.6-26.2 1-7.3 1.9-13 2.5-16.8.6-3.9.9-6 .9-6s-1.1 8.3-2.9 22.9c-.9 7.3-2 16.1-3.1 26.3s-2.2 21.6-3.1 34.2c-.2 3.1-.4 6.3-.7 9.6-.2 3.3-.4 6.6-.7 10-.3 3.4-.7 6.9-1.4 10.3-.4 1.7-.8 3.5-1.3 5.2-.5 1.8-1.2 3.5-2 5.2-1.6 3.4-3.8 6.4-6.1 9.4-2.3 2.9-4.7 5.8-6.8 8.9-2 3-3.5 6.4-4.7 10-1.2 3.6-2.2 7.4-3.5 11.2-.7 1.9-1.4 3.8-2.3 5.6-.9 1.9-1.9 3.6-3.2 5.3-2.4 3.4-5.4 6.3-8.9 8.8-3.4 2.4-7.3 4.3-11.5 5.3-4.1 1-8.3 1.4-12.3 2.1-2 .3-4 .7-5.9 1.3-.9.3-1.9.6-2.7 1l-.7.3-.7.4-.7.4-.6.3c-3.7 2-7.4 3.9-11.4 5.6-3.9 1.6-8 3-12.2 3.9-4.2.9-8.5 1.4-12.9 1.2-4.3-.2-8.6-1.1-12.7-2.5s-7.9-3.3-11.6-5.3c-3.7-2-7.3-4.2-10.9-6.2l-2.7-1.5-2.7-1.5c-.9-.5-1.3-.6-2.4-.6-1 0-2.1 0-3.1-.1-8.5-.6-16.8-3.5-23.5-8.6-3.3-2.5-6.3-5.6-8.5-9.1s-3.6-7.4-4.7-11.3c-1.1-3.9-1.8-7.7-2.7-11.4-.5-1.9-1-3.7-1.6-5.4-.3-.9-.6-1.7-1-2.6-.4-.8-.8-1.8-1.2-2.5-3.4-6.5-8.8-11.7-12.7-18-4-6.3-6.2-13.2-7.4-19.9-1.2-6.8-1.6-13.4-1.7-19.7-.1-12.6.1-24.1.2-34.3.1-10.2.2-19.1.2-26.5.9-15.1 1-23.5 1-23.5zm42.5 254.5c.2-5.1.8-10.3 2.3-15.3 1.5-5 3.9-9.8 7.5-13.6 1.8-1.9 3.9-3.6 6.2-4.8 1.1-.6 2.4-1.2 3.8-1.5.4-.1.7-.1 1.1-.1.3 0 .6 0 1 .1.8.1 1.5.3 2.1.7 1.3.7 2.3 1.7 3.1 2.8.8 1.1 1.5 2.2 2.2 3.3.7 1.1 1.4 2.2 2.2 2.9.3.3.8.5 1.3.6.5.1.8-.1 1-.3l-.2.7c-.1-.9 0-1.8.3-2.6s.8-1.6 1.3-2.2c.6-.6 1.2-1.1 2-1.6l.6-.3c.2-.1.3-.1.5-.2.4-.2.8-.3 1.2-.4 1.6-.4 3.1-.4 4.7-.4h4.5l17.9-.1c6-.1 11.9 0 17.9.1 3 0 6 .1 8.9.2 1.5 0 3 .1 4.5.2.7 0 1.5.1 2.3.1.4 0 .8.1 1.1.1.4.1.7.1 1.3.2 1.1.5 1.6 1.4 1.9 2.1.3.8.5 1.5.8 2.1.1.3.3.5.4.7.2.1.3.1.5.1.1 0 .2-.2.4-.2h.1l-.1.2.1.1h.3c.2 0 .2-.1.4-.1.1 0 .3-.1.4-.2 1.1-.7 2.2-1.7 3.2-2.7 1-1 2-2.1 3.1-3.2.3-.3.6-.5.8-.8.3-.2.6-.5.9-.7.6-.5 1.4-1 2.2-1.2h1.4c.5 0 .9.1 1.3.2.8.2 1.5.6 2.2.9 1.4.7 2.6 1.6 3.8 2.5 1.2.8 2.5 1.7 3.6 2.7 2.3 2 4.2 4.5 5.7 7.1 1.5 2.6 2.7 5.4 3.6 8.3.9 2.9 1.5 5.8 1.8 8.8.3 3 .3 6 0 8.9.2-3 0-6-.4-8.9-.4-2.9-1.1-5.8-2.1-8.6s-2.2-5.5-3.8-8c-1.5-2.5-3.4-4.8-5.6-6.7-1.1-1-2.3-1.7-3.6-2.5-1.2-.8-2.5-1.6-3.7-2.3-1.3-.6-2.6-1.2-3.7-.9-1.1.3-2.2 1.4-3.2 2.4l-3 3.3c-1.1 1.1-2.1 2.2-3.6 3-.2.1-.3.2-.6.3-.2.1-.5.2-.7.2l-.3.1h-1.1c-.5-.1-1.1-.4-1.4-.7-.4-.4-.6-.8-.8-1.2-.3-.8-.5-1.5-.8-2.1-.2-.6-.6-1.1-.9-1.2-.2 0-.6-.1-.9-.1-.3 0-.7-.1-1.1-.1-.7-.1-1.5-.1-2.2-.1-1.5-.1-3-.1-4.4-.1-3-.1-5.9-.1-8.9-.1h-40.3c-1.5 0-2.9 0-4.2.4-.3.1-.7.2-1 .3-.1 0-.3.1-.5.2l-.4.2c-.6.3-1.1.7-1.5 1.2-.9.9-1.4 2.2-1.2 3.4l.1.4-.3.3c-.7.7-1.7 1-2.5.8-.8-.1-1.5-.4-2.2-1-1-1.1-1.7-2.2-2.4-3.3-.7-1.1-1.3-2.2-2-3.2s-1.6-1.9-2.6-2.4c-.5-.3-1-.5-1.6-.6-.3-.1-.6-.1-.9-.1h-.8c-1.1.2-2.3.6-3.4 1.2-2.2 1.1-4.2 2.7-6 4.5-3.5 3.6-6.1 8.2-7.7 13-1.9 4.5-2.7 9.6-3.2 14.8z"/><path class="st4" d="M258.9 373.4c-12.3 2.4-20.9 14.9-21.5 27.4-.5 12.5 5.8 24.5 14.5 33.5 4.8 5 11.2 9.5 18.2 8.8m-.4-73.1c5.1-1.9 10.7-2.3 16.1-1.2 1.6.3 3.1.8 4.6 1.4 9.5 3.6 17.3 11.4 20.7 21 3.5 9.5 2.5 20.6-2.5 29.4-5.1 9-12.1 16.2-21.5 20.4-2.6 1.1-5.6 2-8.2.9"/><path class="st4" d="M258.1 380.4c1.3 4.6 7.2 6.1 12 6.2 2.2.1 4.6 0 6.5-1.1 2.8-1.6 4.1-5.4 2.9-8.4"/><path d="M260.8 383.6s0-.2.1-.6c0-.4.1-1 0-1.8-.1-1.6-.6-4-2.3-6.5-.8-1.2-1.9-2.6-3.2-3.7-1.4-1.2-3-2.2-4.8-3.3-.9-.6-1.9-1.2-2.8-1.8-1-.7-1.9-1.4-2.8-2.2-1.9-1.5-3.8-3-5.9-4.6-4.1-3.2-8.7-6.5-13.7-9.9-5-3.4-10.3-6.8-16-9.9-5.7-3.2-11.8-6.1-18.2-8.7l-2.4-1c-.8-.3-1.6-.7-2.4-1.2-1.5-1-2.8-2.3-3.8-3.8s-1.5-3.5-1-5.3c.2-.9.7-1.8 1.4-2.5l.1-.1.2-.1c.1-.1.2-.1.3-.2.1-.1.3-.1.4-.2l.4-.1c.5-.1 1-.1 1.5 0 1.9.3 3.5 1.2 5 2.1 1.5.9 3 1.9 4.5 2.9 1.4 1 2.8 2 4.3 3 .7.5 1.4.9 2.2 1.3l2.3 1.2c6 3.3 11.9 6.7 17.6 10.1 5.6 3.4 11 6.8 16 10.2 2.5 1.7 4.9 3.3 7.2 5 2.3 1.6 4.5 3.2 6.7 4.7 4.3 2.9 8.4 5.5 11.9 8s6.4 4.8 8.7 6.9c2.3 2.1 3.9 3.9 5 5.1 1 1.3 1.5 2 1.5 2l-.2.1s-.6-.7-1.7-1.9-2.8-2.9-5.2-4.8c-2.4-1.9-5.4-4.1-8.9-6.4-3.6-2.3-7.7-4.8-12.1-7.7-4.4-2.9-9.1-6.1-14.1-9.4-5-3.3-10.3-6.7-15.9-10.1-5.6-3.4-11.4-6.8-17.4-10.3l-2.2-1.3c-.4-.2-.8-.4-1.1-.7-.4-.2-.7-.5-1.1-.8-1.4-1-2.8-2.1-4.2-3.1-1.4-1-2.8-2.1-4.2-3-1.4-.9-3-1.8-4.5-2.1-.4-.1-.8-.1-1.1 0h-.3c-.1 0-.1.1-.2.1s-.2.1-.3.1l-.1.1-.1.1c-.6.5-1 1.2-1.2 1.9-.4 1.5-.1 3.3.8 4.7.9 1.4 2.1 2.7 3.5 3.6.7.5 1.4.9 2.2 1.2l2.4 1c6.4 2.6 12.6 5.4 18.5 8.4s11.4 6.1 16.5 9.4c5.1 3.3 9.6 6.7 13.8 10 2.1 1.6 4 3.2 5.8 4.8.9.8 1.8 1.5 2.7 2.2.9.7 1.8 1.3 2.7 1.9 1.8 1.2 3.5 2.3 4.8 3.6 1.4 1.3 2.4 2.7 3.2 4.1 1.5 2.8 2 5.3 1.9 6.9 0 .8-.1 1.5-.2 1.9-.1.4-.1.6-.1.6l-.4-.1zm18.3 69.4s.9 0 2.6.1c1.7 0 4.1.1 7.3.1 6.3 0 15.2 0 26-.2l78.9-1.1 21.4-.3c7.1-.1 14-.1 20.7-.1 6.7.1 13.2.1 19.4.3 6.2.1 12 .4 17.4.6 5.4.2 10.3.6 14.7.9 2.2.2 4.2.4 6.1.5 1.9.2 3.6.4 5.2.6 3.1.4 5.6.8 7.2 1.2 1.6.4 2.5.6 2.5.6l-.1.3s-.9-.1-2.5-.4c-.8-.1-1.9-.2-3.1-.3-1.2-.1-2.6-.2-4.2-.3-3.1-.2-6.9-.3-11.3-.5-2.2 0-4.5-.1-7-.1-2.4 0-5-.1-7.7-.1-5.4 0-11.2-.1-17.4-.1-6.2 0-12.7-.1-19.4-.1-13.4-.1-27.8-.3-42.1-.4-28.7-.1-57.4 0-78.9-.2-10.8-.1-19.7-.2-26-.4-3.1-.1-5.6-.2-7.3-.2-1.7-.1-2.6-.1-2.6-.1l.2-.3z"/></svg>