<svg id="Layer_1" xmlns="http://www.w3.org/2000/svg" viewBox="0 0 460 519.4"><style>.st0{fill:none;stroke:#000;stroke-width:5;stroke-miterlimit:10}.st1,.st2{opacity:.9;fill:url(#SVGID_1_);enable-background:new}.st2{opacity:.83;fill:#f7b30b}</style><path class="st0" d="M6588.6-751.2c.3 38.5.2 82.4-5.7 120.5-2.3 14.7-3.7 31.7-10.6 44.9-9.4 17.9-18.6 35.9-34 49.5-5.5 4.9-11.5 9.2-17.9 12.8-4.2 2.3-15.3 5.1-15.9 10.8-.4 3.6 3.8 5.7 6.9 7.6 6.9 4.3 10.9 12.3 11.6 20.4 1.5 15.4-5.6 30.7-18.9 38.8-.8.5-1.6 1-1.9 1.8-.7 2.1 2.1 3.4 4.2 3.8 12.1 2.1 24 5 35.7 8.7 7.7 2.4 24.3 10.6 12 18.5-7.7 4.9-17 6.2-26 7.3-24.7 3.1-49.7 6.2-74.5 3.9-5.6-.5-11.2-1.4-16.8-2.2l-22.5-3.3c-5.3-.8-11.8-2.7-12.7-7.9-1.7-10.2 16.6-15.1 23.6-17.2 4.9-1.5 36.5-4.6 35.6-9.3-.5-2.4-2.8-3.9-4.8-5.4-8.9-6.4-15-16.4-16.6-27.2-1.6-10.8 1.3-22.2 7.9-30.9 2.2-2.9 4.9-6 4.4-9.6-.2-1.5-1-2.9-2-4.1-5.1-6.7-15.9-9.5-22.8-14.7-7.9-6-15.2-12.8-21.6-20.4-12.5-14.5-22.1-31.5-27.6-49.9-5.2-17.2-6.9-35.3-8.2-53.2-2.3-31-3.6-62-3.8-93.1 20.2-2.4 42-1.8 62.4-1.4 52.8 1.1 160.5-1.6 160.5.5z"/><path d="M6462-436.3v1.9c0 .6.1 1.3.6 1.9.4.6 1.2.8 2.2.8 2.1-.1 4.5-.2 7.1-.2 1.3 0 2.7-.1 4-.1 1.4-.1 2.8-.1 4.1-.2 1.4-.1 2.8-.1 4.1-.2 1.4-.1 2.7-.1 4-.2 2.6-.1 5-.2 7.1-.3 2-.1 3.7-.6 4.6-1.3.4-.4.7-.8.8-1.1.1-.3.2-.5.2-.5v.5c-.1.3-.2.8-.6 1.3s-1.1 1-1.9 1.4-1.8.7-2.8.8c-2.1.4-4.5.7-7.1.9-1.3.1-2.7.3-4 .4-1.4.1-2.8.2-4.2.2-1.4 0-2.8.1-4.2.1h-4.1c-2.6-.1-5.1-.2-7.2-.4-.5-.1-1.1-.1-1.6-.4s-.9-.7-1.1-1.1c-.4-.9-.4-1.7-.3-2.3s.2-1.1.3-1.4c-.1-.3 0-.5 0-.5zm-.4-84.6s.6.2 1.6.5c.5.2 1.2.3 1.9.5s1.6.4 2.4.5c.9.2 1.9.3 2.9.5 1 .1 2.1.2 3.3.3 1.1.1 2.3.1 3.5.2h3.6c1.2 0 2.5 0 3.7-.1 1.2 0 2.4-.1 3.6-.1 2.3-.1 4.5-.1 6.3-.3 1.8-.2 3.2-.6 4.1-1.2.4-.3.8-.6 1-.8l.3-.3s-.1.1-.2.4c-.2.3-.4.6-.8 1-.8.8-2.3 1.6-4.2 2-.9.2-2 .4-3 .5-1.1.1-2.2.3-3.3.4l-3.6.3c-1.2.1-2.5.1-3.7.2-1.3 0-2.5 0-3.7-.1-.6 0-1.2-.1-1.8-.1-.6-.1-1.2-.1-1.8-.2-1.2-.1-2.3-.4-3.4-.6-.5-.1-1-.3-1.5-.4-.5-.2-1-.3-1.4-.4-1.8-.6-3.2-1.3-4.2-1.8-1-.6-1.6-.9-1.6-.9zm-50.1 102.1l.3.3c.2.2.5.4 1 .6.9.5 2.3 1 4.2 1.4 1.9.4 4.2.7 6.8 1.1 2.6.4 5.6.7 8.9 1.1 3.3.3 6.8.7 10.6 1 3.7.3 7.7.5 11.8.7 8.2.3 17 .5 25.7.6 4.4.1 8.8.1 13.1.2 4.3 0 8.5.1 12.6 0s8-.4 11.7-.8c3.7-.5 7.2-1.1 10.4-1.7 6.4-1.4 11.6-3 15.2-4.3 1.8-.7 3.2-1.2 4.2-1.6l1.5-.6s-.5.2-1.4.7c-.9.4-2.3 1.1-4.1 1.8-3.5 1.5-8.7 3.5-15.1 5.1s-14.1 2.9-22.3 3.2c-4.1.2-8.4.2-12.7.2-4.3 0-8.7-.1-13.1-.1-4.4-.1-8.8-.2-13.1-.3-4.3-.1-8.6-.4-12.7-.6-4.1-.3-8.1-.6-11.8-1-3.8-.4-7.3-.8-10.6-1.3-1.6-.3-3.2-.5-4.7-.7-1.5-.3-2.9-.5-4.2-.8-2.6-.5-4.9-1-6.8-1.5s-3.3-1.1-4.1-1.7c-.4-.3-.7-.5-.9-.7-.3-.2-.4-.3-.4-.3z"/><linearGradient id="SVGID_1_" gradientUnits="userSpaceOnUse" x1="6378.8" y1="-1136.388" x2="6584.7" y2="-1136.388" gradientTransform="translate(0 507)"><stop offset=".018" stop-color="#801fe3"/><stop offset="1" stop-color="#b7a7ff"/></linearGradient><path class="st1" d="M6378.8-723c1.4 24.4 2.7 48.8 4.1 73.2.4 7.9.9 15.9 2.2 23.7 1.8 11.1 5.4 21.8 8.9 32.5 3 9.1 6 18.2 11.1 26.3 17.8 28.1 51.5 32.7 81.9 31.3 10.6-.5 21.3-1.5 31.5-4.7 66.9-21.3 65.2-117 66.1-172.7 0-2.6.1-5.1.1-7.7-68.7 2.2-137.5 4-205.9-1.9z"/><path d="M6373.7-742.7s.6 8.1 1.5 22.2c.5 7.1 1 15.6 1.7 25.5.6 9.8 1.4 20.9 2.1 33.1.4 6.1.7 12.4 1.3 18.9.5 6.5 1.4 13.2 3 19.9 1.6 6.7 3.7 13.5 6 20.4 2.4 6.9 4.5 14 7.5 20.9.8 1.7 1.5 3.4 2.4 5.1.9 1.6 1.8 3.3 2.8 4.8 1.1 1.6 2.2 3.1 3.4 4.7 1.2 1.4 2.5 2.8 3.7 4.3 5.3 5.5 11.7 10 18.8 13.2 7.1 3.3 14.8 5.4 22.6 6.6 7.9 1.3 15.9 1.7 23.9 1.7 8-.1 16.1-.4 24-1.5 3.9-.5 7.9-1.2 11.7-2.2 1-.3 1.9-.5 2.8-.8l.7-.2h.1l.2-.1.4-.1 1.4-.5 2.8-1c.5-.2.9-.3 1.4-.5l1.3-.6c7.1-3.1 13.7-7.4 19.4-12.5 5.7-5.1 10.5-11.1 14.4-17.5 4-6.3 7.1-13.1 9.7-19.8 2.6-6.8 4.6-13.6 6.3-20.3 3.2-13.5 5-26.5 6.2-38.5 1.1-12.1 1.7-23.2 2-33 .3-9.9.5-18.4.7-25.5.2-14.2.4-22.2.4-22.2s0 2 .1 5.8c0 3.8.1 9.4.2 16.4 0 7.1 0 15.7-.2 25.5-.1 9.9-.5 21-1.5 33.1-1 12.1-2.6 25.2-5.7 38.9-1.6 6.8-3.6 13.7-6.1 20.6-2.5 6.9-5.7 13.8-9.8 20.3-4 6.5-9 12.7-14.8 18.1-5.9 5.4-12.7 9.8-20.2 13.1l-1.4.6c-.5.2-.9.4-1.4.5l-2.8 1-1.4.5-.4.1-.2.1-.2.1-.7.2c-1 .3-2 .6-2.9.8-3.9 1-8 1.8-12 2.4-8.1 1.1-16.2 1.5-24.4 1.6-8.2 0-16.3-.5-24.4-1.8-8-1.3-16-3.5-23.3-7-7.4-3.4-14.1-8.1-19.6-13.9-1.3-1.5-2.6-3.1-3.9-4.6-1.1-1.6-2.2-3.2-3.3-4.7-2.2-3.4-3.9-6.8-5.4-10.4-3-7.1-5.2-14.2-7.5-21.2-2.2-7-4.3-13.9-5.8-20.7-1.6-6.9-2.4-13.6-2.8-20.2-.5-6.6-.7-12.9-1-18.9-.6-12.1-1.1-23.2-1.6-33.1-.5-9.9-.8-18.4-1.2-25.5-.7-14.2-1-22.2-1-22.2z"/><path d="M6374.1-727.3s.8 0 2.4.1 3.8.2 6.7.3c2.9.2 6.4.3 10.5.5 4 .2 8.6.3 13.6.5s10.4.3 16.1.5 11.7.2 17.9.4c6.2.1 12.6.1 19.2.2 6.5.1 13.2 0 19.8.1 6.6 0 13.3 0 19.8-.1s13-.1 19.2-.2c12.5-.1 24.1-.2 34-.3 10-.1 18.3-.1 24.1-.1h9.1s-.8.1-2.4.2c-1.6.1-3.8.2-6.7.4-5.8.3-14.1.8-24.1 1.3s-21.6.9-34 1.3c-6.2.1-12.7.4-19.2.4-6.5.1-13.2.1-19.8.2-6.6 0-13.3 0-19.8-.2-6.5-.1-13-.3-19.2-.4-6.2-.2-12.3-.4-18-.8-2.9-.2-5.6-.3-8.3-.5-2.7-.2-5.3-.4-7.8-.5-2.5-.2-4.9-.3-7.1-.5-2.3-.2-4.4-.4-6.4-.6-4-.4-7.6-.7-10.4-1-2.9-.3-5.2-.6-6.7-.7-1.7-.4-2.5-.5-2.5-.5z"/><path class="st2" d="M287.1 214.3c12-15.1 11.8-45.6 6.6-63.5-.6-2.1-1.2-4.1-1.8-6.2-39.6 2.4-79.3-3.5-118.8-.9h-.3c-5.5 25.7-6.8 53.2 10.2 74.4 2 2.5 4.3 4.9 7.1 6.3 2.9 1.4 16.3 8.7 40.2 9.2 5.1.1 21.6.4 26.7-.2 11.7-1.7 22.4-9.4 30.1-19.1z"/><path class="st0" d="M179.6 7.1c7.3 23.1 5.8 48.1.4 72.9-5 22.5-11 42-16.4 64.4-2.7 11.2-4.1 23.7-2.2 35 3.2 19.6 8.6 38.2 23 51.8 6.2 5.8 13.5 9.8 20.2 14.2 7 4.5 12.6 9.8 15.4 17.9 1.7 4.8 4 13.3 3.8 18.3-.3 7.4-1.6 121.4-2.7 147.5-.8 18.6-8.9 36.7-18.9 52.4-4.8 7.5-13.3 8.4-21.8 11.2-10.8 3.5-35.1 9-35.8 9.7-1.6 1.4-1 4.2.6 5.6 1.6 1.4 3.9 1.8 6 2.1 32.3 4.9 64.7 7.2 97.4 5.9 19.2-.8 38.8-.1 57.8-2.8 2.6-.4 5.4-.8 7.5-2.4 2.1-1.6 3.3-4.7 1.9-7-7-1.5-40.2-10.7-47.2-14.5-10.7-5.7-14.6-15-19.4-26.1-4.7-11.1-7.4-23.3-8.2-35.4-.7-9.3-.6-131.8 0-141.8.5-7.3 1.7-14.8 4.1-21.7 2.4-6.9 7-13.4 13.7-16.5 16.1-7.3 30-22.3 38.8-37.3 4.5-7.7 7.6-20.1 8.1-28.8 1.4-23.1-3.9-42-9.1-64.5-3.1-13.7-9.1-29.2-10.2-43.1-1.7-23.7-4.3-46.1 5-67.9-42.8 2.1-112.7.8-111.8.9z"/><path d="M187.1 11.1s.1.5.4 1.4c.1.5.3 1.1.5 1.8.1.3.2.7.3 1.1.1.4.2.8.3 1.3.2.9.4 2 .7 3.1.2 1.2.4 2.4.6 3.8.2 1.4.4 2.8.6 4.4.2 1.6.3 3.3.4 5 .4 7.1.2 15.8-.8 25.7-.5 4.9-1.1 10.2-1.7 15.7-.3 2.8-.7 5.6-1.1 8.5-.3 2.9-.8 5.9-1.5 8.9-1.3 6-3.1 12.1-5 18.4s-3.6 12.8-5.2 19.6c-1.6 6.8-3 13.8-3.9 21s-1.4 14.6-.9 22.1 1.9 15 4.8 22.1c1.4 3.6 3.2 7 5.3 10.2.6.8 1.1 1.6 1.7 2.4l1.8 2.3c1.2 1.5 2.5 2.9 3.9 4.1.7.6 1.5 1.1 2.3 1.5l2.6 1.3c1.8.8 3.6 1.6 5.5 2.3 3.7 1.3 7.5 2.4 11.4 3.3 3.9.8 7.9 1.4 11.8 1.8 4 .4 8 .5 12 .5 4.1.1 8.1.1 12.1.1 2 0 4 0 6-.1s4-.1 5.9-.5c3.8-.6 7.5-2 11-3.7 3.4-1.8 6.7-4 9.6-6.6 1.5-1.3 2.9-2.6 4.2-4 .7-.7 1.3-1.4 2-2.2l.9-1.1.2-.3.1-.1s.1-.2.1-.1l.4-.6 1.7-2.4 1.3-2.4c.5-.8.8-1.7 1.2-2.6.4-.9.8-1.7 1.1-2.7l.9-2.7.7-2.8c.3-.9.5-1.8.6-2.8.2-.9.4-1.9.5-2.8.3-1.9.6-3.8.7-5.6.1-.9.2-1.9.3-2.8 0-.9.1-1.9.1-2.8.3-7.5-.3-14.9-1.5-22.1-.7-3.6-1.6-7-2.5-10.4-.5-1.7-1-3.4-1.4-5.2-.5-1.7-.9-3.4-1.3-5.1-3.4-13.6-5.9-26.6-7.8-38.6-.9-6-1.7-11.8-2.3-17.4-.6-5.5-1.1-10.8-1.4-15.7-.6-9.9-1.2-18.5-.6-25.7.6-7.1 1.9-12.6 3-16.2.5-1.8 1-3.2 1.3-4.1.3-.9.5-1.4.5-1.4s-.2.5-.5 1.4-.7 2.3-1.2 4.2c-.9 3.7-2.1 9.2-2.5 16.2-.5 7.1.3 15.7 1.1 25.5.9 9.8 2.3 20.9 4.2 32.9 2 12 4.7 24.9 8.3 38.4.4 1.7.9 3.4 1.4 5.1s.9 3.4 1.5 5.1c1 3.4 2 7 2.7 10.6.7 3.7 1.2 7.4 1.4 11.1.2 1.9.2 3.8.3 5.7 0 1.9.1 3.8-.1 5.8 0 1-.1 1.9-.1 2.9-.1 1-.2 1.9-.2 2.9-.1 1.9-.5 3.9-.7 5.8-.2 1-.4 1.9-.6 2.9s-.4 1.9-.7 2.9l-.8 2.9-1 2.8c-.3 1-.7 1.9-1.1 2.8s-.7 1.9-1.3 2.8l-1.5 2.7-1.7 2.4-.4.6-.5.7-1 1.2c-.7.8-1.3 1.5-2 2.3-1.4 1.5-2.9 2.9-4.4 4.3-3.1 2.7-6.5 5.1-10.1 7-3.7 1.9-7.7 3.4-11.8 4l-.7.1-.4.1-.4.1c-.5.1-1.1.1-1.6.1-1 .1-2.1.1-3.1.2-2 .1-4.1.1-6.1.1-4.1 0-8.1 0-12.2-.1-4-.1-8.2-.2-12.3-.6-4.1-.4-8.2-1-12.2-1.9s-8-2-11.8-3.4c-1.9-.7-3.8-1.5-5.7-2.4-.9-.4-1.8-.9-2.8-1.4s-1.9-1.1-2.7-1.8c-1.7-1.4-3.1-2.9-4.3-4.5l-1.8-2.4c-.6-.8-1.1-1.7-1.7-2.5-2.2-3.4-4.1-7-5.5-10.7-3-7.4-4.4-15.3-4.9-23s0-15.3 1-22.6c1-7.3 2.5-14.4 4.2-21.2 1.7-6.8 3.5-13.4 5.4-19.7 1.9-6.3 3.8-12.3 5.2-18.2.7-3 1.2-5.8 1.6-8.7.4-2.9.8-5.7 1.2-8.5.8-5.5 1.5-10.7 2.1-15.6 1.2-9.8 1.5-18.4 1.3-25.5-.3-7.1-1-12.6-1.9-16.3-.1-.5-.2-.9-.3-1.3-.1-.4-.2-.8-.3-1.1-.2-.7-.3-1.3-.4-1.8.1-1 0-1.5 0-1.5z"/><path d="M173.4 136.2s1.9-.1 5.1-.4c1.6-.1 3.6-.2 5.9-.3 1.1-.1 2.4-.1 3.6-.2 1.3 0 2.6-.1 4-.1 2.8-.1 5.8-.1 9.1-.2 3.2-.1 6.6 0 10.1 0 7 .1 14.5.3 22 .5l11.2.3c3.7.1 7.3.2 10.8.2 7 .2 13.5.4 19.1.6 1.4 0 2.7.1 4 .1s2.5 0 3.6.1c2.3.1 4.3.1 5.9.1 3.3 0 5.1.1 5.1.1v.3s-1.9.3-5.1.6c-.8.1-1.7.2-2.7.3-1 .1-2.1.2-3.2.3-2.3.2-4.9.4-7.7.5-1.4.1-2.9.1-4.4.2-1.5 0-3.1 0-4.7.1-3.2.1-6.6 0-10.1-.1-3.5-.2-7.1-.3-10.8-.5-3.7-.2-7.4-.4-11.1-.7-7.5-.4-14.9-.9-21.9-1.2-3.5-.1-6.9-.3-10.1-.4s-6.2-.2-9-.2h-7.6c-2.3 0-4.3 0-5.9.1-3.3.1-5.1.2-5.1.2l-.1-.3zm33.7 348l.4.4c.3.2.7.5 1.3.8.6.3 1.3.6 2.2.8.9.2 1.9.4 3.1.6 1.2.2 2.4.4 3.7.6 1.3.2 2.7.3 4.1.5s2.9.3 4.4.4c1.5.1 3 .2 4.6.2 1.5.1 3.1.1 4.6.1s3 0 4.4-.1 2.8-.2 4.1-.3c1.3-.1 2.6-.2 3.7-.4 2.3-.3 4.1-.9 5.2-1.6.6-.3 1-.7 1.3-.9s.4-.4.4-.4-.1.2-.3.4c-.2.3-.6.7-1.1 1.1-1.1.9-2.9 1.9-5.2 2.4-1.2.3-2.4.5-3.7.7-1.3.2-2.7.4-4.2.5s-3 .3-4.5.3-3.1.1-4.7 0-3.1-.2-4.7-.3c-1.5-.1-3-.3-4.5-.6-1.5-.2-2.8-.5-4.2-.8-1.3-.3-2.6-.6-3.7-.9-1.1-.3-2.2-.6-3.1-1s-1.6-.8-2.2-1.2-.9-.8-1.2-1.1c-.1 0-.2-.2-.2-.2zm-55.8 19s.6.1 1.7.3 2.8.5 4.9.9c2.1.3 4.7.7 7.6 1.1 2.9.4 6.3.7 9.9 1.1 3.6.4 7.6.8 11.7 1.1 4.2.3 8.6.7 13.1 1 4.6.3 9.3.6 14.1.9 9.7.6 19.3.8 29 .6 4.8-.1 9.5-.3 14.1-.6s9-.5 13.1-.8c4.2-.3 8.1-.6 11.8-1 7.3-.7 13.3-1.4 17.6-1.9 2.1-.3 3.8-.5 4.9-.7s1.7-.3 1.7-.3-.6.1-1.7.4c-1.1.2-2.8.6-4.9 1s-4.7.8-7.6 1.3-6.3 1-9.9 1.4-7.6.9-11.8 1.3c-4.2.4-8.6.8-13.2 1.1s-9.3.6-14.1.7c-4.8.2-9.7.3-14.6.2-4.9-.2-9.8-.4-14.6-.7-4.8-.3-9.5-.7-14.1-1-4.6-.4-9-.8-13.1-1.3-4.2-.5-8.1-1-11.7-1.4-3.6-.5-7-1-9.9-1.5s-5.5-1-7.6-1.4-3.7-.8-4.8-1.1c-1-.6-1.6-.7-1.6-.7zm65.7-33.3s.5.1 1.3.2c.8.2 2 .4 3.4.6.7.1 1.4.2 2.2.3.8.1 1.6.2 2.5.3s1.8.2 2.7.2c.9.1 1.8.1 2.7.1.9 0 1.8.1 2.8 0 .9 0 1.8 0 2.7-.1.9-.1 1.7-.1 2.5-.2s1.6-.1 2.2-.2c1.4-.1 2.6-.3 3.4-.4.8-.1 1.3-.2 1.3-.2s-.4.2-1.2.5c-.4.2-.9.4-1.4.5-.5.2-1.2.4-1.9.6-.7.2-1.4.4-2.3.6-.8.2-1.7.3-2.6.4-.9.1-1.8.2-2.8.2-.9.1-1.9 0-2.9 0-1-.1-1.9-.1-2.9-.2-.9-.1-1.9-.3-2.7-.4-.9-.2-1.7-.4-2.5-.6-.8-.2-1.5-.4-2.2-.7-.7-.2-1.3-.5-1.8-.7s-1-.4-1.4-.6c-.7.1-1.1-.2-1.1-.2z"/></svg>