<?xml version="1.0" encoding="utf-8"?>
<!-- Generator: Adobe Illustrator 19.2.0, SVG Export Plug-In . SVG Version: 6.00 Build 0)  -->
<svg version="1.1" id="Layer_1" xmlns="http://www.w3.org/2000/svg" xmlns:xlink="http://www.w3.org/1999/xlink" x="0px" y="0px"
	 viewBox="0 0 460 519.4" style="enable-background:new 0 0 460 519.4;" xml:space="preserve">
<style type="text/css">
	.st0{fill:none;stroke:#000000;stroke-width:5;stroke-miterlimit:10;}
	.st1{opacity:0.9;fill:url(#SVGID_1_);enable-background:new    ;}
	.st2{opacity:0.83;fill:#F7B30B;enable-background:new    ;}
</style>
<path class="st0" d="M6588.6-751.2c0.3,38.5,0.2,82.4-5.7,120.5c-2.3,14.7-3.7,31.7-10.6,44.9c-9.4,17.9-18.6,35.9-34,49.5
	c-5.5,4.9-11.5,9.2-17.9,12.8c-4.2,2.3-15.3,5.1-15.9,10.8c-0.4,3.6,3.8,5.7,6.9,7.6c6.9,4.3,10.9,12.3,11.6,20.4
	c1.5,15.4-5.6,30.7-18.9,38.8c-0.8,0.5-1.6,1-1.9,1.8c-0.7,2.1,2.1,3.4,4.2,3.8c12.1,2.1,24,5,35.7,8.7c7.7,2.4,24.3,10.6,12,18.5
	c-7.7,4.9-17,6.2-26,7.3c-24.7,3.1-49.7,6.2-74.5,3.9c-5.6-0.5-11.2-1.4-16.8-2.2l-22.5-3.3c-5.3-0.8-11.8-2.7-12.7-7.9
	c-1.7-10.2,16.6-15.1,23.6-17.2c4.9-1.5,36.5-4.6,35.6-9.3c-0.5-2.4-2.8-3.9-4.8-5.4c-8.9-6.4-15-16.4-16.6-27.2
	c-1.6-10.8,1.3-22.2,7.9-30.9c2.2-2.9,4.9-6,4.4-9.6c-0.2-1.5-1-2.9-2-4.1c-5.1-6.7-15.9-9.5-22.8-14.7c-7.9-6-15.2-12.8-21.6-20.4
	c-12.5-14.5-22.1-31.5-27.6-49.9c-5.2-17.2-6.9-35.3-8.2-53.2c-2.3-31-3.6-62-3.8-93.1c20.2-2.4,42-1.8,62.4-1.4
	C6480.9-750.6,6588.6-753.3,6588.6-751.2L6588.6-751.2z"/>
<path d="M6462-436.3v1.9c0,0.6,0.1,1.3,0.6,1.9c0.4,0.6,1.2,0.8,2.2,0.8c2.1-0.1,4.5-0.2,7.1-0.2c1.3,0,2.7-0.1,4-0.1
	c1.4-0.1,2.8-0.1,4.1-0.2c1.4-0.1,2.8-0.1,4.1-0.2c1.4-0.1,2.7-0.1,4-0.2c2.6-0.1,5-0.2,7.1-0.3c2-0.1,3.7-0.6,4.6-1.3
	c0.4-0.4,0.7-0.8,0.8-1.1c0.1-0.3,0.2-0.5,0.2-0.5v0.5c-0.1,0.3-0.2,0.8-0.6,1.3s-1.1,1-1.9,1.4s-1.8,0.7-2.8,0.8
	c-2.1,0.4-4.5,0.7-7.1,0.9c-1.3,0.1-2.7,0.3-4,0.4c-1.4,0.1-2.8,0.2-4.2,0.2c-1.4,0-2.8,0.1-4.2,0.1h-4.1c-2.6-0.1-5.1-0.2-7.2-0.4
	c-0.5-0.1-1.1-0.1-1.6-0.4s-0.9-0.7-1.1-1.1c-0.4-0.9-0.4-1.7-0.3-2.3s0.2-1.1,0.3-1.4C6461.9-436.1,6462-436.3,6462-436.3
	L6462-436.3z M6461.6-520.9c0,0,0.6,0.2,1.6,0.5c0.5,0.2,1.2,0.3,1.9,0.5s1.6,0.4,2.4,0.5c0.9,0.2,1.9,0.3,2.9,0.5
	c1,0.1,2.1,0.2,3.3,0.3c1.1,0.1,2.3,0.1,3.5,0.2h3.6c1.2,0,2.5,0,3.7-0.1c1.2,0,2.4-0.1,3.6-0.1c2.3-0.1,4.5-0.1,6.3-0.3
	c1.8-0.2,3.2-0.6,4.1-1.2c0.4-0.3,0.8-0.6,1-0.8l0.3-0.3c0,0-0.1,0.1-0.2,0.4c-0.2,0.3-0.4,0.6-0.8,1c-0.8,0.8-2.3,1.6-4.2,2
	c-0.9,0.2-2,0.4-3,0.5c-1.1,0.1-2.2,0.3-3.3,0.4l-3.6,0.3c-1.2,0.1-2.5,0.1-3.7,0.2c-1.3,0-2.5,0-3.7-0.1c-0.6,0-1.2-0.1-1.8-0.1
	c-0.6-0.1-1.2-0.1-1.8-0.2c-1.2-0.1-2.3-0.4-3.4-0.6c-0.5-0.1-1-0.3-1.5-0.4c-0.5-0.2-1-0.3-1.4-0.4c-1.8-0.6-3.2-1.3-4.2-1.8
	C6462.2-520.6,6461.6-520.9,6461.6-520.9L6461.6-520.9z M6411.5-418.8l0.3,0.3c0.2,0.2,0.5,0.4,1,0.6c0.9,0.5,2.3,1,4.2,1.4
	c1.9,0.4,4.2,0.7,6.8,1.1c2.6,0.4,5.6,0.7,8.9,1.1c3.3,0.3,6.8,0.7,10.6,1c3.7,0.3,7.7,0.5,11.8,0.7c8.2,0.3,17,0.5,25.7,0.6
	c4.4,0.1,8.8,0.1,13.1,0.2c4.3,0,8.5,0.1,12.6,0s8-0.4,11.7-0.8c3.7-0.5,7.2-1.1,10.4-1.7c6.4-1.4,11.6-3,15.2-4.3
	c1.8-0.7,3.2-1.2,4.2-1.6l1.5-0.6c0,0-0.5,0.2-1.4,0.7c-0.9,0.4-2.3,1.1-4.1,1.8c-3.5,1.5-8.7,3.5-15.1,5.1s-14.1,2.9-22.3,3.2
	c-4.1,0.2-8.4,0.2-12.7,0.2c-4.3,0-8.7-0.1-13.1-0.1c-4.4-0.1-8.8-0.2-13.1-0.3c-4.3-0.1-8.6-0.4-12.7-0.6c-4.1-0.3-8.1-0.6-11.8-1
	c-3.8-0.4-7.3-0.8-10.6-1.3c-1.6-0.3-3.2-0.5-4.7-0.7c-1.5-0.3-2.9-0.5-4.2-0.8c-2.6-0.5-4.9-1-6.8-1.5s-3.3-1.1-4.1-1.7
	c-0.4-0.3-0.7-0.5-0.9-0.7C6411.6-418.7,6411.5-418.8,6411.5-418.8L6411.5-418.8z"/>
<linearGradient id="SVGID_1_" gradientUnits="userSpaceOnUse" x1="6378.7998" y1="-1136.3876" x2="6584.7002" y2="-1136.3876" gradientTransform="matrix(1 0 0 1 0 507)">
	<stop  offset="1.800000e-02" style="stop-color:#801FE3"/>
	<stop  offset="1" style="stop-color:#B7A7FF"/>
</linearGradient>
<path class="st1" d="M6378.8-723c1.4,24.4,2.7,48.8,4.1,73.2c0.4,7.9,0.9,15.9,2.2,23.7c1.8,11.1,5.4,21.8,8.9,32.5
	c3,9.1,6,18.2,11.1,26.3c17.8,28.1,51.5,32.7,81.9,31.3c10.6-0.5,21.3-1.5,31.5-4.7c66.9-21.3,65.2-117,66.1-172.7
	c0-2.6,0.1-5.1,0.1-7.7C6516-718.9,6447.2-717.1,6378.8-723L6378.8-723z"/>
<path d="M6373.7-742.7c0,0,0.6,8.1,1.5,22.2c0.5,7.1,1,15.6,1.7,25.5c0.6,9.8,1.4,20.9,2.1,33.1c0.4,6.1,0.7,12.4,1.3,18.9
	c0.5,6.5,1.4,13.2,3,19.9c1.6,6.7,3.7,13.5,6,20.4c2.4,6.9,4.5,14,7.5,20.9c0.8,1.7,1.5,3.4,2.4,5.1c0.9,1.6,1.8,3.3,2.8,4.8
	c1.1,1.6,2.2,3.1,3.4,4.7c1.2,1.4,2.5,2.8,3.7,4.3c5.3,5.5,11.7,10,18.8,13.2c7.1,3.3,14.8,5.4,22.6,6.6c7.9,1.3,15.9,1.7,23.9,1.7
	c8-0.1,16.1-0.4,24-1.5c3.9-0.5,7.9-1.2,11.7-2.2c1-0.3,1.9-0.5,2.8-0.8l0.7-0.2h0.1l0.2-0.1l0.4-0.1l1.4-0.5l2.8-1
	c0.5-0.2,0.9-0.3,1.4-0.5l1.3-0.6c7.1-3.1,13.7-7.4,19.4-12.5c5.7-5.1,10.5-11.1,14.4-17.5c4-6.3,7.1-13.1,9.7-19.8
	c2.6-6.8,4.6-13.6,6.3-20.3c3.2-13.5,5-26.5,6.2-38.5c1.1-12.1,1.7-23.2,2-33c0.3-9.9,0.5-18.4,0.7-25.5c0.2-14.2,0.4-22.2,0.4-22.2
	s0,2,0.1,5.8c0,3.8,0.1,9.4,0.2,16.4c0,7.1,0,15.7-0.2,25.5c-0.1,9.9-0.5,21-1.5,33.1c-1,12.1-2.6,25.2-5.7,38.9
	c-1.6,6.8-3.6,13.7-6.1,20.6c-2.5,6.9-5.7,13.8-9.8,20.3c-4,6.5-9,12.7-14.8,18.1c-5.9,5.4-12.7,9.8-20.2,13.1l-1.4,0.6
	c-0.5,0.2-0.9,0.4-1.4,0.5l-2.8,1l-1.4,0.5l-0.4,0.1l-0.2,0.1l-0.2,0.1l-0.7,0.2c-1,0.3-2,0.6-2.9,0.8c-3.9,1-8,1.8-12,2.4
	c-8.1,1.1-16.2,1.5-24.4,1.6c-8.2,0-16.3-0.5-24.4-1.8c-8-1.3-16-3.5-23.3-7c-7.4-3.4-14.1-8.1-19.6-13.9c-1.3-1.5-2.6-3.1-3.9-4.6
	c-1.1-1.6-2.2-3.2-3.3-4.7c-2.2-3.4-3.9-6.8-5.4-10.4c-3-7.1-5.2-14.2-7.5-21.2c-2.2-7-4.3-13.9-5.8-20.7
	c-1.6-6.9-2.4-13.6-2.8-20.2c-0.5-6.6-0.7-12.9-1-18.9c-0.6-12.1-1.1-23.2-1.6-33.1c-0.5-9.9-0.8-18.4-1.2-25.5
	C6374-734.7,6373.7-742.7,6373.7-742.7L6373.7-742.7z"/>
<path d="M6374.1-727.3c0,0,0.8,0,2.4,0.1s3.8,0.2,6.7,0.3c2.9,0.2,6.4,0.3,10.5,0.5c4,0.2,8.6,0.3,13.6,0.5s10.4,0.3,16.1,0.5
	s11.7,0.2,17.9,0.4c6.2,0.1,12.6,0.1,19.2,0.2c6.5,0.1,13.2,0,19.8,0.1c6.6,0,13.3,0,19.8-0.1s13-0.1,19.2-0.2
	c12.5-0.1,24.1-0.2,34-0.3c10-0.1,18.3-0.1,24.1-0.1h9.1c0,0-0.8,0.1-2.4,0.2c-1.6,0.1-3.8,0.2-6.7,0.4c-5.8,0.3-14.1,0.8-24.1,1.3
	s-21.6,0.9-34,1.3c-6.2,0.1-12.7,0.4-19.2,0.4c-6.5,0.1-13.2,0.1-19.8,0.2c-6.6,0-13.3,0-19.8-0.2c-6.5-0.1-13-0.3-19.2-0.4
	c-6.2-0.2-12.3-0.4-18-0.8c-2.9-0.2-5.6-0.3-8.3-0.5c-2.7-0.2-5.3-0.4-7.8-0.5c-2.5-0.2-4.9-0.3-7.1-0.5c-2.3-0.2-4.4-0.4-6.4-0.6
	c-4-0.4-7.6-0.7-10.4-1c-2.9-0.3-5.2-0.6-6.7-0.7C6374.9-727.2,6374.1-727.3,6374.1-727.3L6374.1-727.3z"/>
<path class="st2" d="M287.1,214.3c12-15.1,11.8-45.6,6.6-63.5c-0.6-2.1-1.2-4.1-1.8-6.2c-39.6,2.4-79.3-3.5-118.8-0.9h-0.3
	c-5.5,25.7-6.8,53.2,10.2,74.4c2,2.5,4.3,4.9,7.1,6.3c2.9,1.4,16.3,8.7,40.2,9.2c5.1,0.1,21.6,0.4,26.7-0.2
	C268.7,231.7,279.4,224,287.1,214.3L287.1,214.3z"/>
<path class="st0" d="M179.6,7.1c7.3,23.1,5.8,48.1,0.4,72.9c-5,22.5-11,42-16.4,64.4c-2.7,11.2-4.1,23.7-2.2,35
	c3.2,19.6,8.6,38.2,23,51.8c6.2,5.8,13.5,9.8,20.2,14.2c7,4.5,12.6,9.8,15.4,17.9c1.7,4.8,4,13.3,3.8,18.3
	c-0.3,7.4-1.6,121.4-2.7,147.5c-0.8,18.6-8.9,36.7-18.9,52.4c-4.8,7.5-13.3,8.4-21.8,11.2c-10.8,3.5-35.1,9-35.8,9.7
	c-1.6,1.4-1,4.2,0.6,5.6c1.6,1.4,3.9,1.8,6,2.1c32.3,4.9,64.7,7.2,97.4,5.9c19.2-0.8,38.8-0.1,57.8-2.8c2.6-0.4,5.4-0.8,7.5-2.4
	c2.1-1.6,3.3-4.7,1.9-7c-7-1.5-40.2-10.7-47.2-14.5c-10.7-5.7-14.6-15-19.4-26.1c-4.7-11.1-7.4-23.3-8.2-35.4
	c-0.7-9.3-0.6-131.8,0-141.8c0.5-7.3,1.7-14.8,4.1-21.7c2.4-6.9,7-13.4,13.7-16.5c16.1-7.3,30-22.3,38.8-37.3
	c4.5-7.7,7.6-20.1,8.1-28.8c1.4-23.1-3.9-42-9.1-64.5c-3.1-13.7-9.1-29.2-10.2-43.1c-1.7-23.7-4.3-46.1,5-67.9
	C248.6,8.3,178.7,7,179.6,7.1L179.6,7.1z"/>
<path d="M187.1,11.1c0,0,0.1,0.5,0.4,1.4c0.1,0.5,0.3,1.1,0.5,1.8c0.1,0.3,0.2,0.7,0.3,1.1c0.1,0.4,0.2,0.8,0.3,1.3
	c0.2,0.9,0.4,2,0.7,3.1c0.2,1.2,0.4,2.4,0.6,3.8c0.2,1.4,0.4,2.8,0.6,4.4c0.2,1.6,0.3,3.3,0.4,5c0.4,7.1,0.2,15.8-0.8,25.7
	c-0.5,4.9-1.1,10.2-1.7,15.7c-0.3,2.8-0.7,5.6-1.1,8.5c-0.3,2.9-0.8,5.9-1.5,8.9c-1.3,6-3.1,12.1-5,18.4s-3.6,12.8-5.2,19.6
	c-1.6,6.8-3,13.8-3.9,21s-1.4,14.6-0.9,22.1s1.9,15,4.8,22.1c1.4,3.6,3.2,7,5.3,10.2c0.6,0.8,1.1,1.6,1.7,2.4l1.8,2.3
	c1.2,1.5,2.5,2.9,3.9,4.1c0.7,0.6,1.5,1.1,2.3,1.5l2.6,1.3c1.8,0.8,3.6,1.6,5.5,2.3c3.7,1.3,7.5,2.4,11.4,3.3
	c3.9,0.8,7.9,1.4,11.8,1.8c4,0.4,8,0.5,12,0.5c4.1,0.1,8.1,0.1,12.1,0.1c2,0,4,0,6-0.1s4-0.1,5.9-0.5c3.8-0.6,7.5-2,11-3.7
	c3.4-1.8,6.7-4,9.6-6.6c1.5-1.3,2.9-2.6,4.2-4c0.7-0.7,1.3-1.4,2-2.2l0.9-1.1l0.2-0.3l0.1-0.1c0,0,0.1-0.2,0.1-0.1l0.4-0.6l1.7-2.4
	l1.3-2.4c0.5-0.8,0.8-1.7,1.2-2.6c0.4-0.9,0.8-1.7,1.1-2.7l0.9-2.7l0.7-2.8c0.3-0.9,0.5-1.8,0.6-2.8c0.2-0.9,0.4-1.9,0.5-2.8
	c0.3-1.9,0.6-3.8,0.7-5.6c0.1-0.9,0.2-1.9,0.3-2.8c0-0.9,0.1-1.9,0.1-2.8c0.3-7.5-0.3-14.9-1.5-22.1c-0.7-3.6-1.6-7-2.5-10.4
	c-0.5-1.7-1-3.4-1.4-5.2c-0.5-1.7-0.9-3.4-1.3-5.1c-3.4-13.6-5.9-26.6-7.8-38.6c-0.9-6-1.7-11.8-2.3-17.4
	c-0.6-5.5-1.1-10.8-1.4-15.7c-0.6-9.9-1.2-18.5-0.6-25.7c0.6-7.1,1.9-12.6,3-16.2c0.5-1.8,1-3.2,1.3-4.1c0.3-0.9,0.5-1.4,0.5-1.4
	s-0.2,0.5-0.5,1.4s-0.7,2.3-1.2,4.2c-0.9,3.7-2.1,9.2-2.5,16.2c-0.5,7.1,0.3,15.7,1.1,25.5c0.9,9.8,2.3,20.9,4.2,32.9
	c2,12,4.7,24.9,8.3,38.4c0.4,1.7,0.9,3.4,1.4,5.1s0.9,3.4,1.5,5.1c1,3.4,2,7,2.7,10.6c0.7,3.7,1.2,7.4,1.4,11.1
	c0.2,1.9,0.2,3.8,0.3,5.7c0,1.9,0.1,3.8-0.1,5.8c0,1-0.1,1.9-0.1,2.9c-0.1,1-0.2,1.9-0.2,2.9c-0.1,1.9-0.5,3.9-0.7,5.8
	c-0.2,1-0.4,1.9-0.6,2.9s-0.4,1.9-0.7,2.9l-0.8,2.9l-1,2.8c-0.3,1-0.7,1.9-1.1,2.8s-0.7,1.9-1.3,2.8l-1.5,2.7l-1.7,2.4l-0.4,0.6
	l-0.5,0.7l-1,1.2c-0.7,0.8-1.3,1.5-2,2.3c-1.4,1.5-2.9,2.9-4.4,4.3c-3.1,2.7-6.5,5.1-10.1,7c-3.7,1.9-7.7,3.4-11.8,4l-0.7,0.1
	l-0.4,0.1l-0.4,0.1c-0.5,0.1-1.1,0.1-1.6,0.1c-1,0.1-2.1,0.1-3.1,0.2c-2,0.1-4.1,0.1-6.1,0.1c-4.1,0-8.1,0-12.2-0.1
	c-4-0.1-8.2-0.2-12.3-0.6c-4.1-0.4-8.2-1-12.2-1.9s-8-2-11.8-3.4c-1.9-0.7-3.8-1.5-5.7-2.4c-0.9-0.4-1.8-0.9-2.8-1.4
	s-1.9-1.1-2.7-1.8c-1.7-1.4-3.1-2.9-4.3-4.5l-1.8-2.4c-0.6-0.8-1.1-1.7-1.7-2.5c-2.2-3.4-4.1-7-5.5-10.7c-3-7.4-4.4-15.3-4.9-23
	s0-15.3,1-22.6c1-7.3,2.5-14.4,4.2-21.2c1.7-6.8,3.5-13.4,5.4-19.7c1.9-6.3,3.8-12.3,5.2-18.2c0.7-3,1.2-5.8,1.6-8.7
	c0.4-2.9,0.8-5.7,1.2-8.5c0.8-5.5,1.5-10.7,2.1-15.6c1.2-9.8,1.5-18.4,1.3-25.5c-0.3-7.1-1-12.6-1.9-16.3c-0.1-0.5-0.2-0.9-0.3-1.3
	c-0.1-0.4-0.2-0.8-0.3-1.1c-0.2-0.7-0.3-1.3-0.4-1.8C187.2,11.6,187.1,11.1,187.1,11.1L187.1,11.1z"/>
<path d="M173.4,136.2c0,0,1.9-0.1,5.1-0.4c1.6-0.1,3.6-0.2,5.9-0.3c1.1-0.1,2.4-0.1,3.6-0.2c1.3,0,2.6-0.1,4-0.1
	c2.8-0.1,5.8-0.1,9.1-0.2c3.2-0.1,6.6,0,10.1,0c7,0.1,14.5,0.3,22,0.5l11.2,0.3c3.7,0.1,7.3,0.2,10.8,0.2c7,0.2,13.5,0.4,19.1,0.6
	c1.4,0,2.7,0.1,4,0.1s2.5,0,3.6,0.1c2.3,0.1,4.3,0.1,5.9,0.1c3.3,0,5.1,0.1,5.1,0.1v0.3c0,0-1.9,0.3-5.1,0.6
	c-0.8,0.1-1.7,0.2-2.7,0.3c-1,0.1-2.1,0.2-3.2,0.3c-2.3,0.2-4.9,0.4-7.7,0.5c-1.4,0.1-2.9,0.1-4.4,0.2c-1.5,0-3.1,0-4.7,0.1
	c-3.2,0.1-6.6,0-10.1-0.1c-3.5-0.2-7.1-0.3-10.8-0.5c-3.7-0.2-7.4-0.4-11.1-0.7c-7.5-0.4-14.9-0.9-21.9-1.2
	c-3.5-0.1-6.9-0.3-10.1-0.4s-6.2-0.2-9-0.2h-7.6c-2.3,0-4.3,0-5.9,0.1c-3.3,0.1-5.1,0.2-5.1,0.2L173.4,136.2z M207.1,484.2l0.4,0.4
	c0.3,0.2,0.7,0.5,1.3,0.8c0.6,0.3,1.3,0.6,2.2,0.8c0.9,0.2,1.9,0.4,3.1,0.6c1.2,0.2,2.4,0.4,3.7,0.6c1.3,0.2,2.7,0.3,4.1,0.5
	s2.9,0.3,4.4,0.4c1.5,0.1,3,0.2,4.6,0.2c1.5,0.1,3.1,0.1,4.6,0.1s3,0,4.4-0.1s2.8-0.2,4.1-0.3c1.3-0.1,2.6-0.2,3.7-0.4
	c2.3-0.3,4.1-0.9,5.2-1.6c0.6-0.3,1-0.7,1.3-0.9s0.4-0.4,0.4-0.4s-0.1,0.2-0.3,0.4c-0.2,0.3-0.6,0.7-1.1,1.1
	c-1.1,0.9-2.9,1.9-5.2,2.4c-1.2,0.3-2.4,0.5-3.7,0.7c-1.3,0.2-2.7,0.4-4.2,0.5s-3,0.3-4.5,0.3s-3.1,0.1-4.7,0s-3.1-0.2-4.7-0.3
	c-1.5-0.1-3-0.3-4.5-0.6c-1.5-0.2-2.8-0.5-4.2-0.8c-1.3-0.3-2.6-0.6-3.7-0.9c-1.1-0.3-2.2-0.6-3.1-1s-1.6-0.8-2.2-1.2
	s-0.9-0.8-1.2-1.1C207.2,484.4,207.1,484.2,207.1,484.2L207.1,484.2z M151.3,503.2c0,0,0.6,0.1,1.7,0.3s2.8,0.5,4.9,0.9
	c2.1,0.3,4.7,0.7,7.6,1.1c2.9,0.4,6.3,0.7,9.9,1.1c3.6,0.4,7.6,0.8,11.7,1.1c4.2,0.3,8.6,0.7,13.1,1c4.6,0.3,9.3,0.6,14.1,0.9
	c9.7,0.6,19.3,0.8,29,0.6c4.8-0.1,9.5-0.3,14.1-0.6s9-0.5,13.1-0.8c4.2-0.3,8.1-0.6,11.8-1c7.3-0.7,13.3-1.4,17.6-1.9
	c2.1-0.3,3.8-0.5,4.9-0.7s1.7-0.3,1.7-0.3s-0.6,0.1-1.7,0.4c-1.1,0.2-2.8,0.6-4.9,1s-4.7,0.8-7.6,1.3s-6.3,1-9.9,1.4
	s-7.6,0.9-11.8,1.3c-4.2,0.4-8.6,0.8-13.2,1.1s-9.3,0.6-14.1,0.7c-4.8,0.2-9.7,0.3-14.6,0.2c-4.9-0.2-9.8-0.4-14.6-0.7
	c-4.8-0.3-9.5-0.7-14.1-1c-4.6-0.4-9-0.8-13.1-1.3c-4.2-0.5-8.1-1-11.7-1.4c-3.6-0.5-7-1-9.9-1.5s-5.5-1-7.6-1.4s-3.7-0.8-4.8-1.1
	C151.9,503.3,151.3,503.2,151.3,503.2L151.3,503.2z M217,469.9c0,0,0.5,0.1,1.3,0.2c0.8,0.2,2,0.4,3.4,0.6c0.7,0.1,1.4,0.2,2.2,0.3
	c0.8,0.1,1.6,0.2,2.5,0.3s1.8,0.2,2.7,0.2c0.9,0.1,1.8,0.1,2.7,0.1c0.9,0,1.8,0.1,2.8,0c0.9,0,1.8,0,2.7-0.1
	c0.9-0.1,1.7-0.1,2.5-0.2s1.6-0.1,2.2-0.2c1.4-0.1,2.6-0.3,3.4-0.4c0.8-0.1,1.3-0.2,1.3-0.2s-0.4,0.2-1.2,0.5
	c-0.4,0.2-0.9,0.4-1.4,0.5c-0.5,0.2-1.2,0.4-1.9,0.6c-0.7,0.2-1.4,0.4-2.3,0.6c-0.8,0.2-1.7,0.3-2.6,0.4c-0.9,0.1-1.8,0.2-2.8,0.2
	c-0.9,0.1-1.9,0-2.9,0c-1-0.1-1.9-0.1-2.9-0.2c-0.9-0.1-1.9-0.3-2.7-0.4c-0.9-0.2-1.7-0.4-2.5-0.6c-0.8-0.2-1.5-0.4-2.2-0.7
	c-0.7-0.2-1.3-0.5-1.8-0.7s-1-0.4-1.4-0.6C217.4,470.2,217,469.9,217,469.9L217,469.9z"/>
</svg>
