<?xml version="1.0" encoding="utf-8"?>
<!-- Generator: Adobe Illustrator 19.2.0, SVG Export Plug-In . SVG Version: 6.00 Build 0)  -->
<svg version="1.1" id="Layer_1" xmlns="http://www.w3.org/2000/svg" xmlns:xlink="http://www.w3.org/1999/xlink" x="0px" y="0px"
	 viewBox="0 0 460 650" style="enable-background:new 0 0 460 650;" xml:space="preserve">
<style type="text/css">
	.st0{fill:none;stroke:#000000;stroke-width:5;stroke-miterlimit:10;}
	.st1{opacity:0.9;fill:url(#SVGID_1_);enable-background:new    ;}
	.st2{fill:url(#SVGID_2_);}
	.st3{fill:#FCF4E3;}
</style>
<path class="st0" d="M6588.6-593.1c0.3,38.5,0.2,82.4-5.7,120.5c-2.3,14.7-3.7,31.7-10.6,44.9c-9.4,17.9-18.6,35.9-34,49.5
	c-5.5,4.9-11.5,9.2-17.9,12.8c-4.2,2.3-15.3,5.1-15.9,10.8c-0.4,3.6,3.8,5.7,6.9,7.6c6.9,4.3,10.9,12.3,11.6,20.4
	c1.5,15.4-5.6,30.7-18.9,38.8c-0.8,0.5-1.6,1-1.9,1.8c-0.7,2.1,2.1,3.4,4.2,3.8c12.1,2.1,24,5,35.7,8.7c7.7,2.4,24.3,10.6,12,18.5
	c-7.7,4.9-17,6.2-26,7.3c-24.7,3.1-49.7,6.2-74.5,3.9c-5.6-0.5-11.2-1.4-16.8-2.2l-22.5-3.3c-5.3-0.8-11.8-2.7-12.7-7.9
	c-1.7-10.2,16.6-15.1,23.6-17.2c4.9-1.5,36.5-4.6,35.6-9.3c-0.5-2.4-2.8-3.9-4.8-5.4c-8.9-6.4-15-16.4-16.6-27.2
	c-1.6-10.8,1.3-22.2,7.9-30.9c2.2-2.9,4.9-6,4.4-9.6c-0.2-1.5-1-2.9-2-4.1c-5.1-6.7-15.9-9.5-22.8-14.7c-7.9-6-15.2-12.8-21.6-20.4
	c-12.5-14.5-22.1-31.5-27.6-49.9c-5.2-17.2-6.9-35.3-8.2-53.2c-2.3-31-3.6-62-3.8-93.1c20.2-2.4,42-1.8,62.4-1.4
	C6480.9-592.5,6588.6-595.2,6588.6-593.1L6588.6-593.1z"/>
<path d="M6462-278.2v1.9c0,0.6,0.1,1.3,0.6,1.9c0.4,0.6,1.2,0.8,2.2,0.8c2.1-0.1,4.5-0.2,7.1-0.2c1.3,0,2.7-0.1,4-0.1
	c1.4-0.1,2.8-0.1,4.1-0.2c1.4-0.1,2.8-0.1,4.1-0.2c1.4-0.1,2.7-0.1,4-0.2c2.6-0.1,5-0.2,7.1-0.3c2-0.1,3.7-0.6,4.6-1.3
	c0.4-0.4,0.7-0.8,0.8-1.1c0.1-0.3,0.2-0.5,0.2-0.5v0.5c-0.1,0.3-0.2,0.8-0.6,1.3s-1.1,1-1.9,1.4c-0.8,0.4-1.8,0.7-2.8,0.8
	c-2.1,0.4-4.5,0.7-7.1,0.9c-1.3,0.1-2.7,0.3-4,0.4c-1.4,0.1-2.8,0.2-4.2,0.2c-1.4,0-2.8,0.1-4.2,0.1h-4.1c-2.6-0.1-5.1-0.2-7.2-0.4
	c-0.5-0.1-1.1-0.1-1.6-0.4s-0.9-0.7-1.1-1.1c-0.4-0.9-0.4-1.7-0.3-2.3s0.2-1.1,0.3-1.4C6461.9-278,6462-278.2,6462-278.2L6462-278.2
	z M6461.6-362.8c0,0,0.6,0.2,1.6,0.5c0.5,0.2,1.2,0.3,1.9,0.5s1.6,0.4,2.4,0.5c0.9,0.2,1.9,0.3,2.9,0.5c1,0.1,2.1,0.2,3.3,0.3
	c1.1,0.1,2.3,0.1,3.5,0.2h3.6c1.2,0,2.5,0,3.7-0.1c1.2,0,2.4-0.1,3.6-0.1c2.3-0.1,4.5-0.1,6.3-0.3c1.8-0.2,3.2-0.6,4.1-1.2
	c0.4-0.3,0.8-0.6,1-0.8l0.3-0.3c0,0-0.1,0.1-0.2,0.4c-0.2,0.3-0.4,0.6-0.8,1c-0.8,0.8-2.3,1.6-4.2,2c-0.9,0.2-2,0.4-3,0.5
	c-1.1,0.1-2.2,0.3-3.3,0.4l-3.6,0.3c-1.2,0.1-2.5,0.1-3.7,0.2c-1.3,0-2.5,0-3.7-0.1c-0.6,0-1.2-0.1-1.8-0.1
	c-0.6-0.1-1.2-0.1-1.8-0.2c-1.2-0.1-2.3-0.4-3.4-0.6c-0.5-0.1-1-0.3-1.5-0.4c-0.5-0.2-1-0.3-1.4-0.4c-1.8-0.6-3.2-1.3-4.2-1.8
	C6462.2-362.5,6461.6-362.8,6461.6-362.8L6461.6-362.8z M6411.5-260.7l0.3,0.3c0.2,0.2,0.5,0.4,1,0.6c0.9,0.5,2.3,1,4.2,1.4
	c1.9,0.4,4.2,0.7,6.8,1.1c2.6,0.4,5.6,0.7,8.9,1.1c3.3,0.3,6.8,0.7,10.6,1c3.7,0.3,7.7,0.5,11.8,0.7c8.2,0.3,17,0.5,25.7,0.6
	c4.4,0.1,8.8,0.1,13.1,0.2c4.3,0,8.5,0.1,12.6,0s8-0.4,11.7-0.8c3.7-0.5,7.2-1.1,10.4-1.7c6.4-1.4,11.6-3,15.2-4.3
	c1.8-0.7,3.2-1.2,4.2-1.6l1.5-0.6c0,0-0.5,0.2-1.4,0.7c-0.9,0.4-2.3,1.1-4.1,1.8c-3.5,1.5-8.7,3.5-15.1,5.1
	c-6.4,1.6-14.1,2.9-22.3,3.2c-4.1,0.2-8.4,0.2-12.7,0.2c-4.3,0-8.7-0.1-13.1-0.1c-4.4-0.1-8.8-0.2-13.1-0.3
	c-4.3-0.1-8.6-0.4-12.7-0.6c-4.1-0.3-8.1-0.6-11.8-1c-3.8-0.4-7.3-0.8-10.6-1.3c-1.6-0.3-3.2-0.5-4.7-0.7c-1.5-0.3-2.9-0.5-4.2-0.8
	c-2.6-0.5-4.9-1-6.8-1.5s-3.3-1.1-4.1-1.7c-0.4-0.3-0.7-0.5-0.9-0.7C6411.6-260.6,6411.5-260.7,6411.5-260.7L6411.5-260.7z"/>
<linearGradient id="SVGID_1_" gradientUnits="userSpaceOnUse" x1="6378.7998" y1="1629.2888" x2="6584.7002" y2="1629.2888" gradientTransform="matrix(1 0 0 -1 0 1158)">
	<stop  offset="1.800000e-02" style="stop-color:#801FE3"/>
	<stop  offset="1" style="stop-color:#B7A7FF"/>
</linearGradient>
<path class="st1" d="M6378.8-564.9c1.4,24.4,2.7,48.8,4.1,73.2c0.4,7.9,0.9,15.9,2.2,23.7c1.8,11.1,5.4,21.8,8.9,32.5
	c3,9.1,6,18.2,11.1,26.3c17.8,28.1,51.5,32.7,81.9,31.3c10.6-0.5,21.3-1.5,31.5-4.7c66.9-21.3,65.2-117,66.1-172.7
	c0-2.6,0.1-5.1,0.1-7.7C6516-560.8,6447.2-559,6378.8-564.9L6378.8-564.9z"/>
<path d="M6373.7-584.6c0,0,0.6,8.1,1.5,22.2c0.5,7.1,1,15.6,1.7,25.5c0.6,9.8,1.4,20.9,2.1,33.1c0.4,6.1,0.7,12.4,1.3,18.9
	c0.5,6.5,1.4,13.2,3,19.9c1.6,6.7,3.7,13.5,6,20.4c2.4,6.9,4.5,14,7.5,20.9c0.8,1.7,1.5,3.4,2.4,5.1c0.9,1.6,1.8,3.3,2.8,4.8
	c1.1,1.6,2.2,3.1,3.4,4.7c1.2,1.4,2.5,2.8,3.7,4.3c5.3,5.5,11.7,10,18.8,13.2c7.1,3.3,14.8,5.4,22.6,6.6c7.9,1.3,15.9,1.7,23.9,1.7
	c8-0.1,16.1-0.4,24-1.5c3.9-0.5,7.9-1.2,11.7-2.2c1-0.3,1.9-0.5,2.8-0.8l0.7-0.2h0.1l0.2-0.1l0.4-0.1l1.4-0.5l2.8-1
	c0.5-0.2,0.9-0.3,1.4-0.5l1.3-0.6c7.1-3.1,13.7-7.4,19.4-12.5c5.7-5.1,10.5-11.1,14.4-17.5c4-6.3,7.1-13.1,9.7-19.8
	c2.6-6.8,4.6-13.6,6.3-20.3c3.2-13.5,5-26.5,6.2-38.5c1.1-12.1,1.7-23.2,2-33c0.3-9.9,0.5-18.4,0.7-25.5c0.2-14.2,0.4-22.2,0.4-22.2
	s0,2,0.1,5.8c0,3.8,0.1,9.4,0.2,16.4c0,7.1,0,15.7-0.2,25.5c-0.1,9.9-0.5,21-1.5,33.1s-2.6,25.2-5.7,38.9
	c-1.6,6.8-3.6,13.7-6.1,20.6s-5.7,13.8-9.8,20.3c-4,6.5-9,12.7-14.8,18.1c-5.9,5.4-12.7,9.8-20.2,13.1l-1.4,0.6
	c-0.5,0.2-0.9,0.4-1.4,0.5l-2.8,1l-1.4,0.5l-0.4,0.1l-0.2,0.1l-0.2,0.1l-0.7,0.2c-1,0.3-2,0.6-2.9,0.8c-3.9,1-8,1.8-12,2.4
	c-8.1,1.1-16.2,1.5-24.4,1.6c-8.2,0-16.3-0.5-24.4-1.8c-8-1.3-16-3.5-23.3-7c-7.4-3.4-14.1-8.1-19.6-13.9c-1.3-1.5-2.6-3.1-3.9-4.6
	c-1.1-1.6-2.2-3.2-3.3-4.7c-2.2-3.4-3.9-6.8-5.4-10.4c-3-7.1-5.2-14.2-7.5-21.2c-2.2-7-4.3-13.9-5.8-20.7
	c-1.6-6.9-2.4-13.6-2.8-20.2c-0.5-6.6-0.7-12.9-1-18.9c-0.6-12.1-1.1-23.2-1.6-33.1c-0.5-9.9-0.8-18.4-1.2-25.5
	C6374-576.6,6373.7-584.6,6373.7-584.6L6373.7-584.6z"/>
<path d="M6374.1-569.2c0,0,0.8,0,2.4,0.1s3.8,0.2,6.7,0.3c2.9,0.2,6.4,0.3,10.5,0.5c4,0.2,8.6,0.3,13.6,0.5s10.4,0.3,16.1,0.5
	s11.7,0.2,17.9,0.4c6.2,0.1,12.6,0.1,19.2,0.2c6.5,0.1,13.2,0,19.8,0.1c6.6,0,13.3,0,19.8-0.1s13-0.1,19.2-0.2
	c12.5-0.1,24.1-0.2,34-0.3c10-0.1,18.3-0.1,24.1-0.1h9.1c0,0-0.8,0.1-2.4,0.2c-1.6,0.1-3.8,0.2-6.7,0.4c-5.8,0.3-14.1,0.8-24.1,1.3
	s-21.6,0.9-34,1.3c-6.2,0.1-12.7,0.4-19.2,0.4c-6.5,0.1-13.2,0.1-19.8,0.2c-6.6,0-13.3,0-19.8-0.2c-6.5-0.1-13-0.3-19.2-0.4
	c-6.2-0.2-12.3-0.4-18-0.8c-2.9-0.2-5.6-0.3-8.3-0.5c-2.7-0.2-5.3-0.4-7.8-0.5c-2.5-0.2-4.9-0.3-7.1-0.5c-2.3-0.2-4.4-0.4-6.4-0.6
	c-4-0.4-7.6-0.7-10.4-1c-2.9-0.3-5.2-0.6-6.7-0.7C6374.9-569.1,6374.1-569.2,6374.1-569.2L6374.1-569.2z"/>
<linearGradient id="SVGID_2_" gradientUnits="userSpaceOnUse" x1="82.9" y1="279.3693" x2="371.3" y2="279.3693" gradientTransform="matrix(1 0 0 -1 0 651)">
	<stop  offset="0" style="stop-color:#AA6300"/>
	<stop  offset="1" style="stop-color:#BF8700"/>
</linearGradient>
<path class="st2" d="M82.9,171.9c12.6,106.5,17.7,205.9,24.1,318.8c1.3,22.8,7.7,69.7,25.3,84.7c15.4,13.2,61.6,14.4,98.5,15.5
	c40,1.1,65-4.7,94.9-16.8c21.3-15.7,18.8-57.7,20.7-81.6c4-53,18.7-233.4,24.9-338.4C271.7,147,179.3,162.3,82.9,171.9L82.9,171.9z"
	/>
<path class="st3" d="M371.3,154c0.5-8.9,1-17.8,1.4-26.7c0.9-18.4,1.9-36.4,3.9-54.8c0.6-5.8-0.4-9.5-5.4-12.7
	c-17.9-11.4-40.3-12.3-61.6-12.5c-68.4-0.7-136.9,1.9-205.1,8.4c-12.3,1.2-26.6,3.8-32.2,14.8c-2.5,4.9-2.2,8.6-1.4,14
	c4.6,29.9,8.5,59,11.9,87.5C181.5,164.2,271.7,147,371.3,154z"/>
<path class="st0" d="M398.2,79.4c-12,171.9-41.6,519.1-42.9,528.1c-1.4,9-0.7,7.7-6.6,14.7c-7.2,8.5-19,11.4-30,13.7
	c-47.9,9.8-108.9,14.1-157.1,8.9c-14.7-1.6-30.8-3.8-40.7-14.6c-8.7-9.4-10.4-23-11.7-35.7C91.5,426,84.7,249.1,62.5,81.2
	C73.4,80.4,361.7,70.7,398.2,79.4z"/>
<path d="M77,90.4l3.3,21.5c1.1,7.2,2.1,14.4,3.1,21.5l1.5,10.8l1.4,10.8c1,7.2,1.9,14.4,2.8,21.6c1.8,14.4,3.4,28.8,5,43.2l2.2,21.6
	l2,21.7c1.3,14.5,2.5,28.9,3.7,43.4c0.6,7.2,1.1,14.5,1.7,21.7l1.6,21.7c1,14.5,2,29,2.9,43.4l2.6,43.4l2.5,43.4l0.6,10.9
	c0.2,3.6,0.4,7.2,0.7,10.8c0.6,7.2,1.4,14.4,2.6,21.5c1.1,7.1,2.5,14.2,4.4,21.2c1.8,7,4,13.8,7,20.3c1.5,3.2,3.2,6.4,5.2,9.3
	c2,2.9,4.3,5.5,7.1,7.5s6.1,3.4,9.4,4.6c3.3,1.2,6.8,2.1,10.3,2.9c7,1.6,14.1,2.6,21.3,3.3c7.2,0.8,14.4,1.3,21.6,1.7
	s14.5,0.6,21.7,0.9c7.2,0.2,14.5,0.5,21.7,0.5c14.4,0,28.9-1.1,43-3.9c14.1-2.8,27.9-7.4,41.2-12.8l-0.3,0.2c3.9-2.9,7-6.8,9.4-11.1
	s4.1-9,5.3-13.9c2.5-9.7,3.5-19.8,4.1-29.9c0.6-10.1,0.7-20.3,1.7-30.5l2.4-30.4l9.7-121.5l4.7-60.8l4.6-60.8l2.2-30.4l2-30.4
	c0.3-5.1,0.6-10.1,0.9-15.2c0.3-5.1,0.6-10.1,0.9-15.2l0.8-15.2l0.5-15.2l-0.3,15.2l-0.6,15.2c-0.2,5.1-0.5,10.1-0.7,15.2
	c-0.3,5.1-0.5,10.2-0.8,15.2l-1.7,30.4l-1.9,30.4l-2,30.4l-2.1,30.4l-4.4,60.8l-4.5,60.8l-4.6,60.8l-2.3,30.4
	c-0.9,10.1-1,20.2-1.6,30.4s-1.6,20.4-4.2,30.4c-1.3,5-3,9.9-5.6,14.5c-2.5,4.6-5.9,8.8-10.2,12l-0.1,0.1l-0.2,0.1
	c-13.5,5.5-27.4,10.2-41.7,13c-14.3,2.9-29,4.1-43.5,4.1c-7.3,0-14.5-0.2-21.8-0.4s-14.5-0.5-21.8-0.9s-14.5-0.9-21.8-1.7
	c-7.2-0.8-14.5-1.8-21.6-3.4c-3.6-0.8-7.1-1.8-10.6-3c-3.5-1.3-6.9-2.8-10.1-5s-5.7-5.1-7.8-8.2c-2.1-3.1-3.9-6.4-5.4-9.7
	c-3.1-6.7-5.3-13.7-7.1-20.8s-3.2-14.2-4.4-21.4c-1.1-7.2-2-14.4-2.6-21.7c-0.3-3.6-0.5-7.3-0.7-10.9l-0.6-10.9l-2.4-43.4l-2.4-43.4
	c-0.9-14.5-1.7-29-2.6-43.4l-1.4-21.7c-0.5-7.2-1-14.5-1.5-21.7c-1-14.5-2.2-28.9-3.4-43.4l-1.9-21.7l-2-21.7
	c-1.5-14.4-2.9-28.9-4.6-43.3c-0.8-7.2-1.7-14.4-2.6-21.6l-1.3-10.8l-1.4-10.8c-1-7.2-1.9-14.4-2.9-21.6L77,90.4L77,90.4z
	 M78.4,76.5c0,0,0.2-0.3,0.4-0.8c0.1-0.3,0.3-0.6,0.5-1s0.5-0.8,0.9-1.3c1.4-1.9,3.8-4.5,7.7-6.6s9-3.8,15-4.8
	c6-1.1,12.8-1.6,20.2-2.4c7.4-0.7,15.5-1.5,24-2.2s17.5-1.4,26.8-2s18.9-1.2,28.7-1.6c9.8-0.4,19.7-0.9,29.6-1.2
	c9.9-0.3,19.9-0.5,29.7-0.6c9.8-0.2,19.4-0.1,28.7-0.1c4.7,0,9.2,0,13.7,0.1s8.9,0.2,13.1,0.2c8.5,0.2,16.7,0.5,24.1,1.4
	c3.7,0.4,7.3,1,10.6,1.7c3.3,0.8,6.5,1.6,9.4,2.6c5.8,1.9,10.6,4.3,14.3,6.6c3.8,2.1,6.3,4.8,7.1,7c0.4,1.1,0.5,2,0.4,2.6
	c0,0.3-0.1,0.5-0.1,0.7c0-0.2,0.1-0.4,0.1-0.7c0-0.6-0.1-1.5-0.5-2.6c-0.5-1.1-1.3-2.2-2.6-3.3c-1.2-1.1-2.8-2.2-4.7-3.2
	c-3.7-2.2-8.6-4.3-14.3-6c-5.8-1.7-12.5-2.9-19.8-3.7c-7.4-0.8-15.4-0.9-23.9-0.9s-17.5,0.1-26.8,0.1c-4.7,0-9.4,0.1-14.2,0.2
	c-4.8,0.1-9.6,0.2-14.5,0.2c-9.8,0.2-19.7,0.4-29.6,0.7c-9.9,0.3-19.8,0.6-29.6,1.1c-4.9,0.2-9.7,0.4-14.5,0.7
	c-4.8,0.2-9.5,0.5-14.1,0.7c-9.3,0.5-18.3,1.1-26.8,1.6s-16.6,1.1-24,1.7c-3.7,0.3-7.3,0.6-10.7,0.9c-3.4,0.2-6.6,0.5-9.5,1
	c-6,0.8-11,2.3-14.9,4.2c-3.8,1.9-6.4,4.3-7.8,6.1c-0.3,0.5-0.7,0.8-0.9,1.2s-0.4,0.7-0.6,1C78.5,76.2,78.4,76.5,78.4,76.5
	L78.4,76.5z"/>
<path d="M84.8,177.7c0,0,4.6-0.5,12.6-1.4c4-0.4,8.9-1,14.4-1.6c5.6-0.6,11.9-1.4,18.7-2.2c13.7-1.6,29.7-3.5,46.9-5.5
	c8.6-0.9,17.4-2,26.5-2.9c9-1,18.2-1.8,27.4-2.7c4.6-0.4,9.2-0.8,13.8-1.1c4.6-0.4,9.1-0.7,13.7-1c9.1-0.7,18-1,26.6-1.5
	c4.3-0.2,8.6-0.3,12.7-0.4c2.1,0,4.1-0.1,6.2-0.1h17.5c3.7,0,7.3,0.1,10.8,0.2c3.5,0.1,6.8,0.1,9.9,0.2c3.1,0.2,6.1,0.3,8.9,0.5
	c2.8,0.1,5.4,0.3,7.9,0.4c2.4,0.2,4.6,0.4,6.7,0.5c8,0.7,12.6,1.1,12.6,1.1s-4.6-0.2-12.7-0.5c-2-0.1-4.2-0.2-6.7-0.3
	c-2.4,0-5.1-0.1-7.9-0.1s-5.8-0.1-8.9-0.1h-9.9c-3.5,0-7,0-10.8,0.1c-3.7,0.1-7.6,0.2-11.5,0.3c-2,0.1-4,0.1-6,0.2s-4.1,0.2-6.2,0.3
	c-4.1,0.2-8.4,0.3-12.7,0.6c-4.3,0.3-8.7,0.5-13.1,0.8c-2.2,0.1-4.4,0.3-6.7,0.5c-2.2,0.2-4.5,0.3-6.7,0.5
	c-4.5,0.3-9.1,0.6-13.6,1.1c-4.6,0.4-9.2,0.8-13.7,1.2c-9.2,0.8-18.3,1.7-27.3,2.6c-9,0.9-17.9,1.8-26.5,2.6
	c-8.6,0.9-16.9,1.7-24.8,2.4s-15.3,1.4-22.2,2.1c-6.9,0.7-13.2,1.1-18.8,1.6s-10.5,0.8-14.5,1.1C89.4,177.4,84.8,177.7,84.8,177.7
	L84.8,177.7z"/>
</svg>
