<svg id="Layer_1" xmlns="http://www.w3.org/2000/svg" viewBox="0 0 705 705"><style>.st0,.st1{fill:none}.st1{stroke:#000;stroke-width:5;stroke-miterlimit:10}.st2{opacity:.9;fill:url(#SVGID_1_);enable-background:new}.st3{fill:url(#SVGID_2_)}.st4{fill:#fcf4e3}</style><path class="st0" d="M122.5 0h460v705h-460V0z"/><path class="st1" d="M6711.1-565.6c.3 38.5.2 82.4-5.7 120.5-2.3 14.7-3.7 31.7-10.6 44.9-9.4 17.9-18.6 35.9-34 49.5-5.5 4.9-11.5 9.2-17.9 12.8-4.2 2.3-15.3 5.1-15.9 10.8-.4 3.6 3.8 5.7 6.9 7.6 6.9 4.3 10.9 12.3 11.6 20.4 1.5 15.4-5.6 30.7-18.9 38.8-.8.5-1.6 1-1.9 1.8-.7 2.1 2.1 3.4 4.2 3.8 12.1 2.1 24 5 35.7 8.7 7.7 2.4 24.3 10.6 12 18.5-7.7 4.9-17 6.2-26 7.3-24.7 3.1-49.7 6.2-74.5 3.9-5.6-.5-11.2-1.4-16.8-2.2l-22.5-3.3c-5.3-.8-11.8-2.7-12.7-7.9-1.7-10.2 16.6-15.1 23.6-17.2 4.9-1.5 36.5-4.6 35.6-9.3-.5-2.4-2.8-3.9-4.8-5.4-8.9-6.4-15-16.4-16.6-27.2-1.6-10.8 1.3-22.2 7.9-30.9 2.2-2.9 4.9-6 4.4-9.6-.2-1.5-1-2.9-2-4.1-5.1-6.7-15.9-9.5-22.8-14.7-7.9-6-15.2-12.8-21.6-20.4-12.5-14.5-22.1-31.5-27.6-49.9-5.2-17.2-6.9-35.3-8.2-53.2-2.3-31-3.6-62-3.8-93.1 20.2-2.4 42-1.8 62.4-1.4 52.8 1.1 160.5-1.6 160.5.5z"/><path d="M6584.5-250.7v1.9c0 .6.1 1.3.6 1.9.4.6 1.2.8 2.2.8 2.1-.1 4.5-.2 7.1-.2 1.3 0 2.7-.1 4-.1 1.4-.1 2.8-.1 4.1-.2 1.4-.1 2.8-.1 4.1-.2 1.4-.1 2.7-.1 4-.2 2.6-.1 5-.2 7.1-.3 2-.1 3.7-.6 4.6-1.3.4-.4.7-.8.8-1.1.1-.3.2-.5.2-.5v.5c-.1.3-.2.8-.6 1.3s-1.1 1-1.9 1.4-1.8.7-2.8.8c-2.1.4-4.5.7-7.1.9-1.3.1-2.7.3-4 .4-1.4.1-2.8.2-4.2.2-1.4 0-2.8.1-4.2.1h-4.1c-2.6-.1-5.1-.2-7.2-.4-.5-.1-1.1-.1-1.6-.4-.5-.3-.9-.7-1.1-1.1-.4-.9-.4-1.7-.3-2.3s.2-1.1.3-1.4c-.1-.3 0-.5 0-.5zm-.4-84.6s.6.2 1.6.5c.5.2 1.2.3 1.9.5s1.6.4 2.4.5c.9.2 1.9.3 2.9.5 1 .1 2.1.2 3.3.3 1.1.1 2.3.1 3.5.2h3.6c1.2 0 2.5 0 3.7-.1 1.2 0 2.4-.1 3.6-.1 2.3-.1 4.5-.1 6.3-.3 1.8-.2 3.2-.6 4.1-1.2.4-.3.8-.6 1-.8l.3-.3s-.1.1-.2.4c-.2.3-.4.6-.8 1-.8.8-2.3 1.6-4.2 2-.9.2-2 .4-3 .5-1.1.1-2.2.3-3.3.4l-3.6.3c-1.2.1-2.5.1-3.7.2-1.3 0-2.5 0-3.7-.1-.6 0-1.2-.1-1.8-.1-.6-.1-1.2-.1-1.8-.2-1.2-.1-2.3-.4-3.4-.6-.5-.1-1-.3-1.5-.4-.5-.2-1-.3-1.4-.4-1.8-.6-3.2-1.3-4.2-1.8-1-.6-1.6-.9-1.6-.9zM6534-233.2l.3.3c.2.2.5.4 1 .6.9.5 2.3 1 4.2 1.4 1.9.4 4.2.7 6.8 1.1 2.6.4 5.6.7 8.9 1.1 3.3.3 6.8.7 10.6 1 3.7.3 7.7.5 11.8.7 8.2.3 17 .5 25.7.6 4.4.1 8.8.1 13.1.2 4.3 0 8.5.1 12.6 0s8-.4 11.7-.8c3.7-.5 7.2-1.1 10.4-1.7 6.4-1.4 11.6-3 15.2-4.3 1.8-.7 3.2-1.2 4.2-1.6l1.5-.6s-.5.2-1.4.7c-.9.4-2.3 1.1-4.1 1.8-3.5 1.5-8.7 3.5-15.1 5.1s-14.1 2.9-22.3 3.2c-4.1.2-8.4.2-12.7.2-4.3 0-8.7-.1-13.1-.1-4.4-.1-8.8-.2-13.1-.3-4.3-.1-8.6-.4-12.7-.6-4.1-.3-8.1-.6-11.8-1-3.8-.4-7.3-.8-10.6-1.3-1.6-.3-3.2-.5-4.7-.7-1.5-.3-2.9-.5-4.2-.8-2.6-.5-4.9-1-6.8-1.5s-3.3-1.1-4.1-1.7c-.4-.3-.7-.5-.9-.7-.3-.2-.4-.3-.4-.3z"/><linearGradient id="SVGID_1_" gradientUnits="userSpaceOnUse" x1="6501.3" y1="-950.789" x2="6707.2" y2="-950.789" gradientTransform="translate(0 507)"><stop offset=".018" stop-color="#801fe3"/><stop offset="1" stop-color="#b7a7ff"/></linearGradient><path class="st2" d="M6501.3-537.4c1.4 24.4 2.7 48.8 4.1 73.2.4 7.9.9 15.9 2.2 23.7 1.8 11.1 5.4 21.8 8.9 32.5 3 9.1 6 18.2 11.1 26.3 17.8 28.1 51.5 32.7 81.9 31.3 10.6-.5 21.3-1.5 31.5-4.7 66.9-21.3 65.2-117 66.1-172.7 0-2.6.1-5.1.1-7.7-68.7 2.2-137.5 4-205.9-1.9z"/><path d="M6496.2-557.1s.6 8.1 1.5 22.2c.5 7.1 1 15.6 1.7 25.5.6 9.8 1.4 20.9 2.1 33.1.4 6.1.7 12.4 1.3 18.9.5 6.5 1.4 13.2 3 19.9 1.6 6.7 3.7 13.5 6 20.4 2.4 6.9 4.5 14 7.5 20.9.8 1.7 1.5 3.4 2.4 5.1.9 1.6 1.8 3.3 2.8 4.8 1.1 1.6 2.2 3.1 3.4 4.7 1.2 1.4 2.5 2.8 3.7 4.3 5.3 5.5 11.7 10 18.8 13.2 7.1 3.3 14.8 5.4 22.6 6.6 7.9 1.3 15.9 1.7 23.9 1.7 8-.1 16.1-.4 24-1.5 3.9-.5 7.9-1.2 11.7-2.2 1-.3 1.9-.5 2.8-.8l.7-.2h.1l.2-.1.4-.1 1.4-.5 2.8-1c.5-.2.9-.3 1.4-.5l1.3-.6c7.1-3.1 13.7-7.4 19.4-12.5 5.7-5.1 10.5-11.1 14.4-17.5 4-6.3 7.1-13.1 9.7-19.8 2.6-6.8 4.6-13.6 6.3-20.3 3.2-13.5 5-26.5 6.2-38.5 1.1-12.1 1.7-23.2 2-33 .3-9.9.5-18.4.7-25.5.2-14.2.4-22.2.4-22.2s0 2 .1 5.8c0 3.8.1 9.4.2 16.4 0 7.1 0 15.7-.2 25.5-.1 9.9-.5 21-1.5 33.1s-2.6 25.2-5.7 38.9c-1.6 6.8-3.6 13.7-6.1 20.6s-5.7 13.8-9.8 20.3c-4 6.5-9 12.7-14.8 18.1-5.9 5.4-12.7 9.8-20.2 13.1l-1.4.6c-.5.2-.9.4-1.4.5l-2.8 1-1.4.5-.4.1-.2.1-.2.1-.7.2c-1 .3-2 .6-2.9.8-3.9 1-8 1.8-12 2.4-8.1 1.1-16.2 1.5-24.4 1.6-8.2 0-16.3-.5-24.4-1.8-8-1.3-16-3.5-23.3-7-7.4-3.4-14.1-8.1-19.6-13.9-1.3-1.5-2.6-3.1-3.9-4.6-1.1-1.6-2.2-3.2-3.3-4.7-2.2-3.4-3.9-6.8-5.4-10.4-3-7.1-5.2-14.2-7.5-21.2-2.2-7-4.3-13.9-5.8-20.7-1.6-6.9-2.4-13.6-2.8-20.2-.5-6.6-.7-12.9-1-18.9-.6-12.1-1.1-23.2-1.6-33.1-.5-9.9-.8-18.4-1.2-25.5-.7-14.2-1-22.2-1-22.2z"/><path d="M6496.6-541.7s.8 0 2.4.1 3.8.2 6.7.3c2.9.2 6.4.3 10.5.5 4 .2 8.6.3 13.6.5s10.4.3 16.1.5 11.7.2 17.9.4c6.2.1 12.6.1 19.2.2 6.5.1 13.2 0 19.8.1 6.6 0 13.3 0 19.8-.1s13-.1 19.2-.2c12.5-.1 24.1-.2 34-.3 10-.1 18.3-.1 24.1-.1h9.1s-.8.1-2.4.2c-1.6.1-3.8.2-6.7.4-5.8.3-14.1.8-24.1 1.3s-21.6.9-34 1.3c-6.2.1-12.7.4-19.2.4-6.5.1-13.2.1-19.8.2-6.6 0-13.3 0-19.8-.2-6.5-.1-13-.3-19.2-.4-6.2-.2-12.3-.4-18-.8-2.9-.2-5.6-.3-8.3-.5-2.7-.2-5.3-.4-7.8-.5-2.5-.2-4.9-.3-7.1-.5-2.3-.2-4.4-.4-6.4-.6-4-.4-7.6-.7-10.4-1-2.9-.3-5.2-.6-6.7-.7-1.7-.4-2.5-.5-2.5-.5z"/><linearGradient id="SVGID_2_" gradientUnits="userSpaceOnUse" x1="205.398" y1="426.598" x2="493.771" y2="426.598"><stop offset="0" stop-color="#aa6300"/><stop offset="1" stop-color="#bf8700"/></linearGradient><path class="st3" d="M205.4 226.9c12.6 106.5 17.7 205.9 24.1 318.8 1.3 22.8 7.7 69.7 25.3 84.7 15.4 13.2 61.6 14.4 98.5 15.5 40 1.1 65-4.7 94.9-16.8 21.3-15.7 18.8-57.7 20.7-81.6 4-53 18.7-233.4 24.9-338.4-99.6-7.1-192 8.2-288.4 17.8z"/><path class="st4" d="M493.8 209c.5-8.9 1-17.8 1.4-26.7.9-18.4 1.9-36.4 3.9-54.8.6-5.8-.4-9.5-5.4-12.7-17.9-11.4-40.3-12.3-61.6-12.5-68.4-.7-136.9 1.9-205.1 8.4-12.3 1.2-26.6 3.8-32.2 14.8-2.5 4.9-2.2 8.6-1.4 14 4.6 29.9 8.5 59 11.9 87.5 98.7-7.8 188.9-25 288.5-18z"/><path class="st1" d="M520.7 134.4c-12 171.9-41.6 519.1-42.9 528.1-1.4 9-.7 7.7-6.6 14.7-7.2 8.5-19 11.4-30 13.7-47.9 9.8-108.9 14.1-157.1 8.9-14.7-1.6-30.8-3.8-40.7-14.6-8.7-9.4-10.4-23-11.7-35.7C214 481 207.2 304.1 185 136.2c10.9-.8 299.2-10.5 335.7-1.8z"/><path d="M199.5 145.4l3.3 21.5c1.1 7.2 2.1 14.4 3.1 21.5l1.5 10.8 1.4 10.8c1 7.2 1.9 14.4 2.8 21.6 1.8 14.4 3.4 28.8 5 43.2l2.2 21.6 2 21.7c1.3 14.5 2.5 28.9 3.7 43.4.6 7.2 1.1 14.5 1.7 21.7l1.6 21.7c1 14.5 2 29 2.9 43.4l2.6 43.4 2.5 43.4.6 10.9c.2 3.6.4 7.2.7 10.8.6 7.2 1.4 14.4 2.6 21.5 1.1 7.1 2.5 14.2 4.4 21.2 1.8 7 4 13.8 7 20.3 1.5 3.2 3.2 6.4 5.2 9.3 2 2.9 4.3 5.5 7.1 7.5s6.1 3.4 9.4 4.6c3.3 1.2 6.8 2.1 10.3 2.9 7 1.6 14.1 2.6 21.3 3.3 7.2.8 14.4 1.3 21.6 1.7 7.2.4 14.5.6 21.7.9 7.2.2 14.5.5 21.7.5 14.4 0 28.9-1.1 43-3.9 14.1-2.8 27.9-7.4 41.2-12.8l-.3.2c3.9-2.9 7-6.8 9.4-11.1 2.4-4.3 4.1-9 5.3-13.9 2.5-9.7 3.5-19.8 4.1-29.9.6-10.1.7-20.3 1.7-30.5l2.4-30.4 9.7-121.5 4.7-60.8 4.6-60.8 2.2-30.4 2-30.4c.3-5.1.6-10.1.9-15.2.3-5.1.6-10.1.9-15.2l.8-15.2.5-15.2-.3 15.2-.6 15.2c-.2 5.1-.5 10.1-.7 15.2-.3 5.1-.5 10.2-.8 15.2l-1.7 30.4-1.9 30.4-2 30.4-2.1 30.4-4.4 60.8-4.5 60.8-4.6 60.8-2.3 30.4c-.9 10.1-1 20.2-1.6 30.4-.6 10.2-1.6 20.4-4.2 30.4-1.3 5-3 9.9-5.6 14.5-2.5 4.6-5.9 8.8-10.2 12l-.1.1-.2.1c-13.5 5.5-27.4 10.2-41.7 13-14.3 2.9-29 4.1-43.5 4.1-7.3 0-14.5-.2-21.8-.4-7.3-.2-14.5-.5-21.8-.9-7.3-.4-14.5-.9-21.8-1.7-7.2-.8-14.5-1.8-21.6-3.4-3.6-.8-7.1-1.8-10.6-3-3.5-1.3-6.9-2.8-10.1-5-3.2-2.2-5.7-5.1-7.8-8.2-2.1-3.1-3.9-6.4-5.4-9.7-3.1-6.7-5.3-13.7-7.1-20.8-1.8-7.1-3.2-14.2-4.4-21.4-1.1-7.2-2-14.4-2.6-21.7-.3-3.6-.5-7.3-.7-10.9l-.6-10.9-2.4-43.4-2.4-43.4c-.9-14.5-1.7-29-2.6-43.4l-1.4-21.7c-.5-7.2-1-14.5-1.5-21.7-1-14.5-2.2-28.9-3.4-43.4l-1.9-21.7-2-21.7c-1.5-14.4-2.9-28.9-4.6-43.3-.8-7.2-1.7-14.4-2.6-21.6l-1.3-10.8-1.4-10.8c-1-7.2-1.9-14.4-2.9-21.6l-3.3-21.4zm1.4-13.9s.2-.3.4-.8c.1-.3.3-.6.5-1s.5-.8.9-1.3c1.4-1.9 3.8-4.5 7.7-6.6 3.9-2.1 9-3.8 15-4.8 6-1.1 12.8-1.6 20.2-2.4 7.4-.7 15.5-1.5 24-2.2 8.5-.7 17.5-1.4 26.8-2 9.3-.6 18.9-1.2 28.7-1.6 9.8-.4 19.7-.9 29.6-1.2 9.9-.3 19.9-.5 29.7-.6 9.8-.2 19.4-.1 28.7-.1 4.7 0 9.2 0 13.7.1s8.9.2 13.1.2c8.5.2 16.7.5 24.1 1.4 3.7.4 7.3 1 10.6 1.7 3.3.8 6.5 1.6 9.4 2.6 5.8 1.9 10.6 4.3 14.3 6.6 3.8 2.1 6.3 4.8 7.1 7 .4 1.1.5 2 .4 2.6 0 .3-.1.5-.1.7 0-.2.1-.4.1-.7 0-.6-.1-1.5-.5-2.6-.5-1.1-1.3-2.2-2.6-3.3-1.2-1.1-2.8-2.2-4.7-3.2-3.7-2.2-8.6-4.3-14.3-6-5.8-1.7-12.5-2.9-19.8-3.7-7.4-.8-15.4-.9-23.9-.9-8.5 0-17.5.1-26.8.1-4.7 0-9.4.1-14.2.2-4.8.1-9.6.2-14.5.2-9.8.2-19.7.4-29.6.7-9.9.3-19.8.6-29.6 1.1-4.9.2-9.7.4-14.5.7-4.8.2-9.5.5-14.1.7-9.3.5-18.3 1.1-26.8 1.6s-16.6 1.1-24 1.7c-3.7.3-7.3.6-10.7.9-3.4.2-6.6.5-9.5 1-6 .8-11 2.3-14.9 4.2-3.8 1.9-6.4 4.3-7.8 6.1-.3.5-.7.8-.9 1.2-.2.4-.4.7-.6 1-.5.4-.6.7-.6.7z"/><path d="M207.3 232.7s4.6-.5 12.6-1.4c4-.4 8.9-1 14.4-1.6 5.6-.6 11.9-1.4 18.7-2.2 13.7-1.6 29.7-3.5 46.9-5.5 8.6-.9 17.4-2 26.5-2.9 9-1 18.2-1.8 27.4-2.7 4.6-.4 9.2-.8 13.8-1.1 4.6-.4 9.1-.7 13.7-1 9.1-.7 18-1 26.6-1.5 4.3-.2 8.6-.3 12.7-.4 2.1 0 4.1-.1 6.2-.1h17.5c3.7 0 7.3.1 10.8.2 3.5.1 6.8.1 9.9.2 3.1.2 6.1.3 8.9.5 2.8.1 5.4.3 7.9.4 2.4.2 4.6.4 6.7.5 8 .7 12.6 1.1 12.6 1.1s-4.6-.2-12.7-.5c-2-.1-4.2-.2-6.7-.3-2.4 0-5.1-.1-7.9-.1-2.8 0-5.8-.1-8.9-.1H455c-3.5 0-7 0-10.8.1-3.7.1-7.6.2-11.5.3-2 .1-4 .1-6 .2s-4.1.2-6.2.3c-4.1.2-8.4.3-12.7.6-4.3.3-8.7.5-13.1.8-2.2.1-4.4.3-6.7.5-2.2.2-4.5.3-6.7.5-4.5.3-9.1.6-13.6 1.1-4.6.4-9.2.8-13.7 1.2-9.2.8-18.3 1.7-27.3 2.6-9 .9-17.9 1.8-26.5 2.6-8.6.9-16.9 1.7-24.8 2.4-7.9.7-15.3 1.4-22.2 2.1-6.9.7-13.2 1.1-18.8 1.6-5.6.5-10.5.8-14.5 1.1-8 .2-12.6.5-12.6.5z"/></svg>