<?xml version="1.0" encoding="utf-8"?>
<!-- Generator: Adobe Illustrator 19.2.0, SVG Export Plug-In . SVG Version: 6.00 Build 0)  -->
<svg version="1.1" id="Layer_1" xmlns="http://www.w3.org/2000/svg" xmlns:xlink="http://www.w3.org/1999/xlink" x="0px" y="0px"
	 viewBox="0 0 460 218" style="enable-background:new 0 0 460 218;" xml:space="preserve">
<style type="text/css">
	.st0{fill:none;stroke:#000000;stroke-width:5;stroke-miterlimit:10;}
	.st1{opacity:0.9;fill:url(#SVGID_1_);enable-background:new    ;}
	.st2{fill:#A48D7A;}
</style>
<path class="st0" d="M6588.6-1052.6c0.3,38.5,0.2,82.4-5.7,120.5c-2.3,14.7-3.7,31.7-10.6,44.9c-9.4,17.9-18.6,35.9-34,49.5
	c-5.5,4.9-11.5,9.2-17.9,12.8c-4.2,2.3-15.3,5.1-15.9,10.8c-0.4,3.6,3.8,5.7,6.9,7.6c6.9,4.3,10.9,12.3,11.6,20.4
	c1.5,15.4-5.6,30.7-18.9,38.8c-0.8,0.5-1.6,1-1.9,1.8c-0.7,2.1,2.1,3.4,4.2,3.8c12.1,2.1,24,5,35.7,8.7c7.7,2.4,24.3,10.6,12,18.5
	c-7.7,4.9-17,6.2-26,7.3c-24.7,3.1-49.7,6.2-74.5,3.9c-5.6-0.5-11.2-1.4-16.8-2.2l-22.5-3.3c-5.3-0.8-11.8-2.7-12.7-7.9
	c-1.7-10.2,16.6-15.1,23.6-17.2c4.9-1.5,36.5-4.6,35.6-9.3c-0.5-2.4-2.8-3.9-4.8-5.4c-8.9-6.4-15-16.4-16.6-27.2
	c-1.6-10.8,1.3-22.2,7.9-30.9c2.2-2.9,4.9-6,4.4-9.6c-0.2-1.5-1-2.9-2-4.1c-5.1-6.7-15.9-9.5-22.8-14.7c-7.9-6-15.2-12.8-21.6-20.4
	c-12.5-14.5-22.1-31.5-27.6-49.9c-5.2-17.2-6.9-35.3-8.2-53.2c-2.3-31-3.6-62-3.8-93.1c20.2-2.4,42-1.8,62.4-1.4
	C6480.9-1052,6588.6-1054.7,6588.6-1052.6L6588.6-1052.6z"/>
<path d="M6462-737.7v1.9c0,0.6,0.1,1.3,0.6,1.9c0.4,0.6,1.2,0.8,2.2,0.8c2.1-0.1,4.5-0.2,7.1-0.2c1.3,0,2.7-0.1,4-0.1
	c1.4-0.1,2.8-0.1,4.1-0.2c1.4-0.1,2.8-0.1,4.1-0.2c1.4-0.1,2.7-0.1,4-0.2c2.6-0.1,5-0.2,7.1-0.3c2-0.1,3.7-0.6,4.6-1.3
	c0.4-0.4,0.7-0.8,0.8-1.1c0.1-0.3,0.2-0.5,0.2-0.5v0.5c-0.1,0.3-0.2,0.8-0.6,1.3s-1.1,1-1.9,1.4c-0.8,0.4-1.8,0.7-2.8,0.8
	c-2.1,0.4-4.5,0.7-7.1,0.9c-1.3,0.1-2.7,0.3-4,0.4c-1.4,0.1-2.8,0.2-4.2,0.2c-1.4,0-2.8,0.1-4.2,0.1h-4.1c-2.6-0.1-5.1-0.2-7.2-0.4
	c-0.5-0.1-1.1-0.1-1.6-0.4s-0.9-0.7-1.1-1.1c-0.4-0.9-0.4-1.7-0.3-2.3c0.1-0.6,0.2-1.1,0.3-1.4C6461.9-737.5,6462-737.7,6462-737.7
	L6462-737.7z M6461.6-822.3c0,0,0.6,0.2,1.6,0.5c0.5,0.2,1.2,0.3,1.9,0.5s1.6,0.4,2.4,0.5c0.9,0.2,1.9,0.3,2.9,0.5
	c1,0.1,2.1,0.2,3.3,0.3c1.1,0.1,2.3,0.1,3.5,0.2h3.6c1.2,0,2.5,0,3.7-0.1c1.2,0,2.4-0.1,3.6-0.1c2.3-0.1,4.5-0.1,6.3-0.3
	s3.2-0.6,4.1-1.2c0.4-0.3,0.8-0.6,1-0.8l0.3-0.3c0,0-0.1,0.1-0.2,0.4c-0.2,0.3-0.4,0.6-0.8,1c-0.8,0.8-2.3,1.6-4.2,2
	c-0.9,0.2-2,0.4-3,0.5c-1.1,0.1-2.2,0.3-3.3,0.4l-3.6,0.3c-1.2,0.1-2.5,0.1-3.7,0.2c-1.3,0-2.5,0-3.7-0.1c-0.6,0-1.2-0.1-1.8-0.1
	c-0.6-0.1-1.2-0.1-1.8-0.2c-1.2-0.1-2.3-0.4-3.4-0.6c-0.5-0.1-1-0.3-1.5-0.4c-0.5-0.2-1-0.3-1.4-0.4c-1.8-0.6-3.2-1.3-4.2-1.8
	C6462.2-822,6461.6-822.3,6461.6-822.3L6461.6-822.3z M6411.5-720.2l0.3,0.3c0.2,0.2,0.5,0.4,1,0.6c0.9,0.5,2.3,1,4.2,1.4
	c1.9,0.4,4.2,0.7,6.8,1.1c2.6,0.4,5.6,0.7,8.9,1.1c3.3,0.3,6.8,0.7,10.6,1c3.7,0.3,7.7,0.5,11.8,0.7c8.2,0.3,17,0.5,25.7,0.6
	c4.4,0.1,8.8,0.1,13.1,0.2c4.3,0,8.5,0.1,12.6,0c4.1-0.1,8-0.4,11.7-0.8c3.7-0.5,7.2-1.1,10.4-1.7c6.4-1.4,11.6-3,15.2-4.3
	c1.8-0.7,3.2-1.2,4.2-1.6l1.5-0.6c0,0-0.5,0.2-1.4,0.7c-0.9,0.4-2.3,1.1-4.1,1.8c-3.5,1.5-8.7,3.5-15.1,5.1
	c-6.4,1.6-14.1,2.9-22.3,3.2c-4.1,0.2-8.4,0.2-12.7,0.2c-4.3,0-8.7-0.1-13.1-0.1c-4.4-0.1-8.8-0.2-13.1-0.3
	c-4.3-0.1-8.6-0.4-12.7-0.6c-4.1-0.3-8.1-0.6-11.8-1c-3.8-0.4-7.3-0.8-10.6-1.3c-1.6-0.3-3.2-0.5-4.7-0.7c-1.5-0.3-2.9-0.5-4.2-0.8
	c-2.6-0.5-4.9-1-6.8-1.5s-3.3-1.1-4.1-1.7c-0.4-0.3-0.7-0.5-0.9-0.7C6411.6-720.1,6411.5-720.2,6411.5-720.2L6411.5-720.2z"/>
<linearGradient id="SVGID_1_" gradientUnits="userSpaceOnUse" x1="6378.7998" y1="-1437.7888" x2="6584.7002" y2="-1437.7888" gradientTransform="matrix(1 0 0 1 0 507)">
	<stop  offset="1.800000e-02" style="stop-color:#801FE3"/>
	<stop  offset="1" style="stop-color:#B7A7FF"/>
</linearGradient>
<path class="st1" d="M6378.8-1024.4c1.4,24.4,2.7,48.8,4.1,73.2c0.4,7.9,0.9,15.9,2.2,23.7c1.8,11.1,5.4,21.8,8.9,32.5
	c3,9.1,6,18.2,11.1,26.3c17.8,28.1,51.5,32.7,81.9,31.3c10.6-0.5,21.3-1.5,31.5-4.7c66.9-21.3,65.2-117,66.1-172.7
	c0-2.6,0.1-5.1,0.1-7.7C6516-1020.3,6447.2-1018.5,6378.8-1024.4L6378.8-1024.4z"/>
<path d="M6373.7-1044.1c0,0,0.6,8.1,1.5,22.2c0.5,7.1,1,15.6,1.7,25.5c0.6,9.8,1.4,20.9,2.1,33.1c0.4,6.1,0.7,12.4,1.3,18.9
	c0.5,6.5,1.4,13.2,3,19.9c1.6,6.7,3.7,13.5,6,20.4c2.4,6.9,4.5,14,7.5,20.9c0.8,1.7,1.5,3.4,2.4,5.1c0.9,1.6,1.8,3.3,2.8,4.8
	c1.1,1.6,2.2,3.1,3.4,4.7c1.2,1.4,2.5,2.8,3.7,4.3c5.3,5.5,11.7,10,18.8,13.2c7.1,3.3,14.8,5.4,22.6,6.6c7.9,1.3,15.9,1.7,23.9,1.7
	c8-0.1,16.1-0.4,24-1.5c3.9-0.5,7.9-1.2,11.7-2.2c1-0.3,1.9-0.5,2.8-0.8l0.7-0.2h0.1l0.2-0.1l0.4-0.1l1.4-0.5l2.8-1
	c0.5-0.2,0.9-0.3,1.4-0.5l1.3-0.6c7.1-3.1,13.7-7.4,19.4-12.5c5.7-5.1,10.5-11.1,14.4-17.5c4-6.3,7.1-13.1,9.7-19.8
	c2.6-6.8,4.6-13.6,6.3-20.3c3.2-13.5,5-26.5,6.2-38.5c1.1-12.1,1.7-23.2,2-33c0.3-9.9,0.5-18.4,0.7-25.5c0.2-14.2,0.4-22.2,0.4-22.2
	s0,2,0.1,5.8c0,3.8,0.1,9.4,0.2,16.4c0,7.1,0,15.7-0.2,25.5c-0.1,9.9-0.5,21-1.5,33.1c-1,12.1-2.6,25.2-5.7,38.9
	c-1.6,6.8-3.6,13.7-6.1,20.6c-2.5,6.9-5.7,13.8-9.8,20.3c-4,6.5-9,12.7-14.8,18.1c-5.9,5.4-12.7,9.8-20.2,13.1l-1.4,0.6
	c-0.5,0.2-0.9,0.4-1.4,0.5l-2.8,1l-1.4,0.5l-0.4,0.1l-0.2,0.1l-0.2,0.1l-0.7,0.2c-1,0.3-2,0.6-2.9,0.8c-3.9,1-8,1.8-12,2.4
	c-8.1,1.1-16.2,1.5-24.4,1.6c-8.2,0-16.3-0.5-24.4-1.8c-8-1.3-16-3.5-23.3-7c-7.4-3.4-14.1-8.1-19.6-13.9c-1.3-1.5-2.6-3.1-3.9-4.6
	c-1.1-1.6-2.2-3.2-3.3-4.7c-2.2-3.4-3.9-6.8-5.4-10.4c-3-7.1-5.2-14.2-7.5-21.2c-2.2-7-4.3-13.9-5.8-20.7
	c-1.6-6.9-2.4-13.6-2.8-20.2c-0.5-6.6-0.7-12.9-1-18.9c-0.6-12.1-1.1-23.2-1.6-33.1c-0.5-9.9-0.8-18.4-1.2-25.5
	C6374-1036.1,6373.7-1044.1,6373.7-1044.1L6373.7-1044.1z"/>
<path d="M6374.1-1028.7c0,0,0.8,0,2.4,0.1c1.6,0.1,3.8,0.2,6.7,0.3c2.9,0.2,6.4,0.3,10.5,0.5c4,0.2,8.6,0.3,13.6,0.5
	s10.4,0.3,16.1,0.5s11.7,0.2,17.9,0.4c6.2,0.1,12.6,0.1,19.2,0.2c6.5,0.1,13.2,0,19.8,0.1c6.6,0,13.3,0,19.8-0.1
	c6.5-0.1,13-0.1,19.2-0.2c12.5-0.1,24.1-0.2,34-0.3c10-0.1,18.3-0.1,24.1-0.1h9.1c0,0-0.8,0.1-2.4,0.2s-3.8,0.2-6.7,0.4
	c-5.8,0.3-14.1,0.8-24.1,1.3s-21.6,0.9-34,1.3c-6.2,0.1-12.7,0.4-19.2,0.4c-6.5,0.1-13.2,0.1-19.8,0.2c-6.6,0-13.3,0-19.8-0.2
	c-6.5-0.1-13-0.3-19.2-0.4c-6.2-0.2-12.3-0.4-18-0.8c-2.9-0.2-5.6-0.3-8.3-0.5c-2.7-0.2-5.3-0.4-7.8-0.5c-2.5-0.2-4.9-0.3-7.1-0.5
	c-2.3-0.2-4.4-0.4-6.4-0.6c-4-0.4-7.6-0.7-10.4-1c-2.9-0.3-5.2-0.6-6.7-0.7C6374.9-1028.6,6374.1-1028.7,6374.1-1028.7
	L6374.1-1028.7z"/>
<path class="st2" d="M309.6,45.4c-18.7,1.4-86.7-1.3-105.6-2.6c-52.8-3.5-151.9-3.6-152.6-3.1c5,9.1,10.1,18.3,15.1,27.4
	c13.9,25.1,27.9,41.5,45.9,62c30.5,34.9,62.7,53.6,103.1,63c43.2,10,84,8.9,119.1-24.5c5.5-5.2,10.5-11.1,16-16.3
	c8.7-8.2,59.5-92,70-116.7C381.1,39.6,349.4,42.5,309.6,45.4L309.6,45.4z"/>
<path class="st0" d="M439.1,5c0.7-0.1,1.2,0.6,0.9,1.2c-29.2,64.9-53,138.9-103.8,176.7c-36.9,27.5-77.9,36.5-120.4,30.1
	c-42.7-6.4-76.4-25.2-109.4-60.1C85.4,130.6,34.5,53.5,20,15.6c-0.4-1,0.4-2.1,1.5-2C54.1,17,400.7,9.9,439.1,5L439.1,5z"/>
<path d="M32.8,22.5c0,0,4.4,7.7,12.1,21.3c3.8,6.8,8.5,15,13.8,24.5s11.5,20,19.4,30.7c7.8,10.8,17.2,21.7,27.4,33.2
	c10,11.5,21.5,22.8,34.8,32.8c6.6,5,13.7,9.5,21.2,13.6s15.4,7.6,23.5,10.6c8.2,3,16.6,5.5,25.2,7.4c8.6,2,17.3,3.6,26.1,4.5
	c8.8,1,17.6,1.3,26.4,0.6c4.4-0.3,8.7-0.9,13-1.7s8.5-1.9,12.6-3.3c8.2-2.7,16-6.5,23.1-11c3.6-2.3,6.9-4.8,10.2-7.5
	c1.6-1.4,3.2-2.7,4.7-4.1c1.5-1.4,3-2.8,4.5-4.3c2.9-2.9,5.7-6,8.6-8.9c1.4-1.5,2.9-2.9,4.4-4.3c0.7-0.7,1.3-1.3,1.9-2.1l1.8-2.4
	c4.7-6.4,8.9-13.1,13-19.5c8.2-12.9,15.6-25.3,22.3-36.8s12.8-22.2,18-31.7s9.6-17.9,13.1-24.8c3.5-7,6-12.5,7.7-16.4
	c0.8-1.9,1.4-3.4,1.8-4.4L424,17c0,0-0.2,0.5-0.5,1.5c-0.4,1-0.9,2.5-1.7,4.5c-1.5,3.9-3.9,9.5-7.3,16.6c-3.3,7-7.6,15.5-12.6,25.1
	c-5.1,9.6-10.9,20.4-17.5,32c-6.6,11.6-13.9,24.1-22,37.1c-4,6.5-8.2,13.2-12.9,19.8c-0.6,0.8-1.2,1.6-1.8,2.5
	c-0.6,0.8-1.4,1.7-2.1,2.4c-1.4,1.4-2.9,2.8-4.3,4.3c-2.8,2.9-5.6,6-8.6,9c-1.5,1.5-3,3-4.6,4.4c-1.5,1.5-3.2,2.8-4.8,4.2
	c-3.3,2.7-6.8,5.3-10.4,7.7c-7.3,4.7-15.3,8.7-23.7,11.4c-4.2,1.4-8.5,2.5-12.9,3.4s-8.8,1.4-13.3,1.8c-8.9,0.7-18,0.4-26.9-0.5
	s-17.8-2.6-26.4-4.6c-8.7-2-17.2-4.6-25.5-7.6c-8.3-3.1-16.3-6.7-23.8-10.9c-7.6-4.2-14.8-8.9-21.5-13.9
	c-13.5-10.1-24.9-21.8-34.8-33.4c-10-11.6-19.3-22.7-27.1-33.6c-3.9-5.5-7.4-10.8-10.5-16.1C63.4,78.9,60.6,73.8,58,69
	c-5.2-9.5-9.7-17.9-13.4-24.7C37.1,30.3,32.8,22.5,32.8,22.5L32.8,22.5z"/>
<path d="M45.1,43.8c0,0,1.4,0.2,4.1,0.5c1.3,0.2,3,0.4,4.9,0.6c1.9,0.2,4.2,0.4,6.7,0.7c1.3,0.1,2.6,0.2,4,0.4
	c3,0.2,6.1,0.4,9.1,0.6c1.6,0.1,3.3,0.1,5.1,0.2c1.8,0.1,3.6,0.2,5.4,0.2c1.9,0,3.8,0.1,5.7,0.1c3.9,0.1,8.1,0.1,12.4,0.1
	c8.6,0,18-0.2,27.9-0.3c9.9-0.2,20.4-0.1,31.2,0s22,0.4,33.3,1.1c5.7,0.3,11.4,0.6,17.1,0.8s11.5,0.3,17.3,0.5l17.3,0.3
	c5.7,0.1,11.5,0.2,17.1,0.3c11.3,0.1,22.5,0.3,33.3,0c2.7-0.1,5.3-0.2,7.9-0.4s5.3-0.4,7.9-0.6c5.2-0.4,10.2-0.8,15.2-1.2
	c9.9-0.8,19.2-1.6,27.8-2.4c34.4-3.3,57.4-5.6,57.4-5.6V40c0,0-5.7,0.9-15.7,2.4c-5,0.8-11.1,1.6-18,2.5c-7,1-14.8,1.9-23.4,2.9
	s-17.9,2-27.8,2.9c-4.9,0.5-10,0.9-15.2,1.3c-2.6,0.2-5.2,0.4-7.9,0.6c-2.7,0.2-5.4,0.3-8.1,0.3c-5.4,0.1-10.9,0-16.5-0.1
	s-11.2-0.2-16.9-0.4c-5.7-0.2-11.4-0.5-17.1-0.7c-5.7-0.3-11.5-0.6-17.3-0.9c-5.8-0.3-11.5-0.7-17.2-1s-11.5-0.7-17.1-1
	c-11.3-0.7-22.5-0.7-33.3-0.4s-21.2,0.8-31.1,1.1s-19.3,0.3-28,0.2C93.9,49.5,86,49.3,79,48.6c-1.8-0.1-3.5-0.3-5.1-0.4
	c-1.6-0.2-3.2-0.3-4.7-0.5s-3-0.3-4.4-0.5s-2.7-0.4-4-0.6c-2.5-0.4-4.7-0.7-6.7-1c-1.9-0.4-3.6-0.7-4.9-0.9
	C46.5,44.2,45.1,43.9,45.1,43.8L45.1,43.8z"/>
</svg>
