<svg id="Layer_1" xmlns="http://www.w3.org/2000/svg" viewBox="0 0 700 700"><style>.st0,.st1{fill:none}.st1{stroke:#000;stroke-width:5;stroke-miterlimit:10}.st2{opacity:.9;fill:url(#SVGID_1_)}.st3{fill:#490715}</style><path class="st0" d="M0 0h700v700H0z"/><path class="st1" d="M6708.6-568.1c.3 38.5.2 82.4-5.7 120.5-2.3 14.7-3.7 31.7-10.6 44.9-9.4 17.9-18.6 35.9-34 49.5-5.5 4.9-11.5 9.2-17.9 12.8-4.2 2.3-15.3 5.1-15.9 10.8-.4 3.6 3.8 5.7 6.9 7.6 6.9 4.3 10.9 12.3 11.6 20.4 1.5 15.4-5.6 30.7-18.9 38.8-.8.5-1.6 1-1.9 1.8-.7 2.1 2.1 3.4 4.2 3.8 12.1 2.1 24 5 35.7 8.7 7.7 2.4 24.3 10.6 12 18.5-7.7 4.9-17 6.2-26 7.3-24.7 3.1-49.7 6.2-74.5 3.9-5.6-.5-11.2-1.4-16.8-2.2l-22.5-3.3c-5.3-.8-11.8-2.7-12.7-7.9-1.7-10.2 16.6-15.1 23.6-17.2 4.9-1.5 36.5-4.6 35.6-9.3-.5-2.4-2.8-3.9-4.8-5.4-8.9-6.4-15-16.4-16.6-27.2-1.6-10.8 1.3-22.2 7.9-30.9 2.2-2.9 4.9-6 4.4-9.6-.2-1.5-1-2.9-2-4.1-5.1-6.7-15.9-9.5-22.8-14.7-7.9-6-15.2-12.8-21.6-20.4-12.5-14.5-22.1-31.5-27.6-49.9-5.2-17.2-6.9-35.3-8.2-53.2-2.3-31-3.6-62-3.8-93.1 20.2-2.4 42-1.8 62.4-1.4 52.8 1.1 160.5-1.6 160.5.5z"/><path d="M6582-253.2v1.9c0 .6.1 1.3.6 1.9.4.6 1.2.8 2.2.8 2.1-.1 4.5-.2 7.1-.2 1.3 0 2.7-.1 4-.1 1.4-.1 2.8-.1 4.1-.2 1.4-.1 2.8-.1 4.1-.2 1.4-.1 2.7-.1 4-.2 2.6-.1 5-.2 7.1-.3 2-.1 3.7-.6 4.6-1.3.4-.4.7-.8.8-1.1.1-.3.2-.5.2-.5v.5c-.1.3-.2.8-.6 1.3-.4.5-1.1 1-1.9 1.4-.8.4-1.8.7-2.8.8-2.1.4-4.5.7-7.1.9-1.3.1-2.7.3-4 .4-1.4.1-2.8.2-4.2.2-1.4 0-2.8.1-4.2.1h-4.1c-2.6-.1-5.1-.2-7.2-.4-.5-.1-1.1-.1-1.6-.4-.5-.3-.9-.7-1.1-1.1-.4-.9-.4-1.7-.3-2.3.1-.6.2-1.1.3-1.4-.1-.3 0-.5 0-.5zm-.4-84.6s.6.2 1.6.5c.5.2 1.2.3 1.9.5s1.6.4 2.4.5c.9.2 1.9.3 2.9.5 1 .1 2.1.2 3.3.3 1.1.1 2.3.1 3.5.2h3.6c1.2 0 2.5 0 3.7-.1 1.2 0 2.4-.1 3.6-.1 2.3-.1 4.5-.1 6.3-.3 1.8-.2 3.2-.6 4.1-1.2.4-.3.8-.6 1-.8l.3-.3s-.1.1-.2.4c-.2.3-.4.6-.8 1-.8.8-2.3 1.6-4.2 2-.9.2-2 .4-3 .5-1.1.1-2.2.3-3.3.4l-3.6.3c-1.2.1-2.5.1-3.7.2-1.3 0-2.5 0-3.7-.1-.6 0-1.2-.1-1.8-.1-.6-.1-1.2-.1-1.8-.2-1.2-.1-2.3-.4-3.4-.6-.5-.1-1-.3-1.5-.4-.5-.2-1-.3-1.4-.4-1.8-.6-3.2-1.3-4.2-1.8-1-.6-1.6-.9-1.6-.9zm-50.1 102.1l.3.3c.2.2.5.4 1 .6.9.5 2.3 1 4.2 1.4 1.9.4 4.2.7 6.8 1.1 2.6.4 5.6.7 8.9 1.1 3.3.3 6.8.7 10.6 1 3.7.3 7.7.5 11.8.7 8.2.3 17 .5 25.7.6 4.4.1 8.8.1 13.1.2 4.3 0 8.5.1 12.6 0s8-.4 11.7-.8c3.7-.5 7.2-1.1 10.4-1.7 6.4-1.4 11.6-3 15.2-4.3 1.8-.7 3.2-1.2 4.2-1.6l1.5-.6s-.5.2-1.4.7c-.9.4-2.3 1.1-4.1 1.8-3.5 1.5-8.7 3.5-15.1 5.1-6.4 1.6-14.1 2.9-22.3 3.2-4.1.2-8.4.2-12.7.2-4.3 0-8.7-.1-13.1-.1-4.4-.1-8.8-.2-13.1-.3-4.3-.1-8.6-.4-12.7-.6-4.1-.3-8.1-.6-11.8-1-3.8-.4-7.3-.8-10.6-1.3-1.6-.3-3.2-.5-4.7-.7-1.5-.3-2.9-.5-4.2-.8-2.6-.5-4.9-1-6.8-1.5-1.9-.5-3.3-1.1-4.1-1.7-.4-.3-.7-.5-.9-.7-.3-.2-.4-.3-.4-.3z"/><linearGradient id="SVGID_1_" gradientUnits="userSpaceOnUse" x1="6498.813" y1="-446.236" x2="6704.691" y2="-446.236"><stop offset=".018" stop-color="#801fe3"/><stop offset="1" stop-color="#b7a7ff"/></linearGradient><path class="st2" d="M6498.8-539.9c1.4 24.4 2.7 48.8 4.1 73.2.4 7.9.9 15.9 2.2 23.7 1.8 11.1 5.4 21.8 8.9 32.5 3 9.1 6 18.2 11.1 26.3 17.8 28.1 51.5 32.7 81.9 31.3 10.6-.5 21.3-1.5 31.5-4.7 66.9-21.3 65.2-117 66.1-172.7 0-2.6.1-5.1.1-7.7-68.7 2.2-137.5 4-205.9-1.9z"/><path d="M6493.7-559.6s.6 8.1 1.5 22.2c.5 7.1 1 15.6 1.7 25.5.6 9.8 1.4 20.9 2.1 33.1.4 6.1.7 12.4 1.3 18.9.5 6.5 1.4 13.2 3 19.9 1.6 6.7 3.7 13.5 6 20.4 2.4 6.9 4.5 14 7.5 20.9.8 1.7 1.5 3.4 2.4 5.1.9 1.6 1.8 3.3 2.8 4.8 1.1 1.6 2.2 3.1 3.4 4.7 1.2 1.4 2.5 2.8 3.7 4.3 5.3 5.5 11.7 10 18.8 13.2 7.1 3.3 14.8 5.4 22.6 6.6 7.9 1.3 15.9 1.7 23.9 1.7 8-.1 16.1-.4 24-1.5 3.9-.5 7.9-1.2 11.7-2.2 1-.3 1.9-.5 2.8-.8l.7-.2h.1l.2-.1.4-.1 1.4-.5 2.8-1c.5-.2.9-.3 1.4-.5l1.3-.6c7.1-3.1 13.7-7.4 19.4-12.5 5.7-5.1 10.5-11.1 14.4-17.5 4-6.3 7.1-13.1 9.7-19.8 2.6-6.8 4.6-13.6 6.3-20.3 3.2-13.5 5-26.5 6.2-38.5 1.1-12.1 1.7-23.2 2-33 .3-9.9.5-18.4.7-25.5.2-14.2.4-22.2.4-22.2s0 2 .1 5.8c0 3.8.1 9.4.2 16.4 0 7.1 0 15.7-.2 25.5-.1 9.9-.5 21-1.5 33.1-1 12.1-2.6 25.2-5.7 38.9-1.6 6.8-3.6 13.7-6.1 20.6-2.5 6.9-5.7 13.8-9.8 20.3-4 6.5-9 12.7-14.8 18.1-5.9 5.4-12.7 9.8-20.2 13.1l-1.4.6c-.5.2-.9.4-1.4.5l-2.8 1-1.4.5-.4.1-.2.1-.2.1-.7.2c-1 .3-2 .6-2.9.8-3.9 1-8 1.8-12 2.4-8.1 1.1-16.2 1.5-24.4 1.6-8.2 0-16.3-.5-24.4-1.8-8-1.3-16-3.5-23.3-7-7.4-3.4-14.1-8.1-19.6-13.9-1.3-1.5-2.6-3.1-3.9-4.6-1.1-1.6-2.2-3.2-3.3-4.7-2.2-3.4-3.9-6.8-5.4-10.4-3-7.1-5.2-14.2-7.5-21.2-2.2-7-4.3-13.9-5.8-20.7-1.6-6.9-2.4-13.6-2.8-20.2-.5-6.6-.7-12.9-1-18.9-.6-12.1-1.1-23.2-1.6-33.1-.5-9.9-.8-18.4-1.2-25.5-.7-14.2-1-22.2-1-22.2z"/><path d="M6494.1-544.2s.8 0 2.4.1c1.6.1 3.8.2 6.7.3 2.9.2 6.4.3 10.5.5 4 .2 8.6.3 13.6.5s10.4.3 16.1.5c5.7.2 11.7.2 17.9.4 6.2.1 12.6.1 19.2.2 6.5.1 13.2 0 19.8.1 6.6 0 13.3 0 19.8-.1s13-.1 19.2-.2c12.5-.1 24.1-.2 34-.3 10-.1 18.3-.1 24.1-.1h9.1s-.8.1-2.4.2c-1.6.1-3.8.2-6.7.4-5.8.3-14.1.8-24.1 1.3-10 .5-21.6.9-34 1.3-6.2.1-12.7.4-19.2.4-6.5.1-13.2.1-19.8.2-6.6 0-13.3 0-19.8-.2-6.5-.1-13-.3-19.2-.4-6.2-.2-12.3-.4-18-.8-2.9-.2-5.6-.3-8.3-.5-2.7-.2-5.3-.4-7.8-.5-2.5-.2-4.9-.3-7.1-.5-2.3-.2-4.4-.4-6.4-.6-4-.4-7.6-.7-10.4-1-2.9-.3-5.2-.6-6.7-.7-1.7-.4-2.5-.5-2.5-.5z"/><path class="st3" d="M460.8 431.1c-55.7 11.1-113.1 8.2-169.8 5.3-19.9-1-39.9-2.1-59.4-5.7l.6 47.6c.2 20.3.5 40.9 6.4 60.3 3.6 11.6 9.1 22.6 13.2 34 4.7 12.8 7.6 26.3 8.7 39.9.8 9.6.7 19.4 2.9 28.8 2.2 9.4 7.2 18.7 15.6 23.4 11.8 6.6 22.7 2.3 35.5 5.3 11.5 2.7 23.1 5.1 34.9 5.6 6.2.3 16.3-.1 22.4-1 5.3-.8 20-3.9 22.3-3.6 7.1 1 14.5.3 20.9-2.7 11.1-5.1 14-14.9 17.2-25.8 3.6-12.3 5.6-25 8-37.6 1.9-9.9 4-19.8 7.3-29.3s7.8-18.2 10.6-28c11.1-39.3 16-78.6 18.5-120.2-5.1 1.4-10.5 2.6-15.8 3.7z"/><path class="st1" d="M217.3 400.1c-.4 39.9-.8 79.9 2.4 119.7.5 6.7 1.2 13.3 2.9 19.8 2.1 7.7 5.6 14.9 8.5 22.3 7.5 19.4 10.1 40.3 12.7 61 2.7 21.3 5.4 42.7 8 64 5.6 7 14.5 8.4 23.3 10 8.8 1.6 17.8 1.1 26.7.7 33.7-1.3 67.9-.9 101.4 2 2.8.2 5.6.5 8.4.4 8-.2 27.6-3.7 31.2-12.3 1.2-2.9 1.1-6.1 1.1-9.2-.3-27.1 3.4-54.1 7.2-81 2.2-15.6 6.1-28.5 11.8-42.8C468.7 540 483 443 483 401.7c-25 2.2-200.9-2.4-265.7-1.6z"/><path d="M228.5 414.8s.2 10.3.6 28.2c.2 9 .4 19.9.6 32.4.1 6.2.3 12.9.6 19.9.4 7 1 14.3 2.2 21.9.6 3.8 1.4 7.6 2.4 11.5.5 1.9 1.1 3.9 1.6 5.8.6 2 1.3 3.9 2 5.8 2.8 7.7 6.4 15.5 9.7 23.7 3.3 8.2 6 17 7.9 26.1 1 4.6 1.7 9.2 2.2 14 .5 4.7.8 9.5 1.1 14.3.3 4.8.6 9.6 1.4 14.3.8 4.7 2.1 9.4 4.2 13.7 2.1 4.3 5 8.3 8.8 11.1l1.4 1 1.5.9c1.1.6 2.3 1.2 3.3 1.5 2.2.9 4.5 1.5 7 1.8 4.8.7 9.9.4 15 .6 2.6.1 5.2.3 7.8.8l1.9.4 1.9.4 3.7.8c9.9 2.2 20 4 30.1 4.3 5 .1 10.2 0 15.2-.4 2.5-.2 5-.5 7.5-.9 2.5-.5 5-.9 7.5-1.4 2.5-.5 5-.9 7.6-1.3 1.3-.2 2.5-.4 3.9-.5.6-.1 1.4-.1 2.2-.1.6.1 1.3.2 1.9.2 4.9.5 9.9.1 14.5-1.3 2.3-.7 4.5-1.7 6.6-3 2-1.2 3.8-2.8 5.3-4.6 3.1-3.6 5-8.1 6.5-12.7 1.5-4.7 2.9-9.4 4-14.1 1.2-4.7 2.1-9.4 3-14.2 1.8-9.4 3.3-18.8 5.5-27.8 1.1-4.5 2.3-9 3.7-13.3 1.4-4.3 3.1-8.5 4.8-12.6 1.7-4.1 3.4-8.1 4.9-12 .7-2 1.4-4 2-6 .6-2 1.1-4 1.7-6 2.2-8 4.1-15.7 5.7-23.3.8-3.7 1.5-7.4 2.3-11 .7-3.6 1.3-7.1 1.9-10.6.6-3.5 1.2-6.8 1.6-10.1.5-3.3 1-6.5 1.4-9.6 1.7-12.4 2.8-23.2 3.6-32.2.8-8.9 1.3-16 1.6-20.8.3-4.8.5-7.4.5-7.4s-.1 2.6-.3 7.4c-.2 4.8-.6 11.9-1.2 20.8-.6 9-1.6 19.8-3 32.3-1.5 12.4-3.5 26.4-6.7 41.5-1.5 7.5-3.4 15.4-5.5 23.4-.5 2-1.1 4-1.6 6.1-.6 2.1-1.3 4.1-2 6.1-1.5 4.1-3.2 8.1-4.8 12.2-1.7 4.1-3.2 8.2-4.6 12.5-1.3 4.3-2.5 8.7-3.5 13.2-2 9-3.6 18.3-5.3 27.8-.9 4.7-1.9 9.5-3 14.3-1.1 4.8-2.5 9.5-4 14.3-1.6 4.7-3.5 9.6-7 13.7-1.7 2-3.7 3.8-6 5.2-2.2 1.4-4.6 2.5-7.2 3.3-5 1.6-10.4 2-15.6 1.5-.7-.1-1.3-.1-1.9-.2-.4 0-1 0-1.6.1-1.2.1-2.5.3-3.7.5-2.5.4-5 .9-7.5 1.3-2.5.5-5 .9-7.6 1.4-2.5.5-5.2.8-7.8 1-5.2.4-10.3.6-15.5.4-10.4-.3-20.6-2.2-30.6-4.5l-3.7-.9-1.9-.4-1.8-.4c-2.4-.4-4.9-.7-7.4-.8-5-.2-10.1.1-15.3-.6-2.6-.4-5.1-1-7.6-2-1.3-.5-2.4-1.1-3.5-1.6-.7-.4-1.2-.7-1.7-1.1-.5-.4-1.1-.8-1.6-1.2-4.2-3.2-7.3-7.6-9.5-12.1-1.1-2.3-2-4.7-2.7-7.1-.7-2.4-1.2-4.9-1.6-7.3-.8-4.9-1.1-9.8-1.4-14.6-.3-4.8-.5-9.5-1-14.2-.5-4.7-1.2-9.2-2.1-13.8-1.8-9-4.4-17.6-7.5-25.8-3.2-8.2-6.7-16-9.5-23.9-.7-2-1.4-4-1.9-5.9-.6-2-1.1-3.9-1.6-5.9-.9-3.9-1.7-7.8-2.3-11.6-2.3-15.3-2.2-29.5-2.3-42 0-12.5-.1-23.4-.1-32.4-.3-18-.3-28.2-.3-28.2z"/><path d="M298.6 422.6s-.8 3.6-2 9.9c-1.2 6.3-2.8 15.3-4.4 26.2-.8 5.4-1.5 11.3-2.1 17.6-.6 6.3-1.2 12.9-1.6 19.7-.4 6.8-.7 13.9-.9 21.1-.1 3.6-.1 7.2 0 10.9 0 3.6.1 7.3.6 10.8.2 1.8.6 3.5 1.1 5.2.5 1.7 1.2 3.3 1.9 5 1.5 3.3 3.3 6.5 4.5 10 1.2 3.6 1.7 7.2 1.9 10.8.2 3.6.1 7.1.1 10.5-.1 6.8-.1 13.5.3 19.7.3 6.3 1.1 12.1 2.4 17.5 1.3 5.3 3 10 5 14 1.9 4 4.4 7 6.5 9.4 2.1 2.4 3.6 4.4 4.5 5.9.5.7.8 1.3 1 1.7l.3.6-.3-.6c-.2-.4-.6-.9-1-1.7-1-1.4-2.6-3.3-4.7-5.7-2.2-2.4-4.8-5.3-6.9-9.4-2.2-3.9-4.1-8.7-5.5-14.1-1.4-5.4-2.3-11.3-2.7-17.6-.5-6.3-.6-13-.5-19.9 0-3.4.1-6.9-.1-10.4s-.7-7-1.9-10.3c-1.2-3.3-2.9-6.5-4.5-9.8-.8-1.7-1.5-3.4-2.1-5.2-.6-1.8-.9-3.7-1.2-5.5-.5-3.7-.5-7.4-.6-11.1 0-3.7 0-7.3.1-10.9.2-7.2.5-14.3 1-21.2 1-13.7 2.7-26.5 4.4-37.4 1.7-10.9 3.7-19.8 5.1-26.1.7-3.1 1.3-5.6 1.7-7.2.4-1.5.6-2.4.6-2.4zm97.2 0s.2.9.6 2.6c.4 1.7 1.1 4.1 1.8 7.3.7 3.1 1.6 7 2.5 11.4.9 4.4 1.9 9.4 2.8 14.8.9 5.5 1.8 11.4 2.6 17.7.7 6.3 1.4 13 1.8 19.9.4 6.9.5 14.1.4 21.4-.1 3.6-.2 7.3-.5 11-.1 1.8-.2 3.7-.3 5.5-.1 1.8-.2 3.7-.3 5.5-.1 1.9-.3 3.7-.6 5.6-.2.9-.3 1.9-.6 2.8-.1.4-.3.9-.4 1.4-.2.4-.3.9-.5 1.3-1.5 3.5-3.5 6.5-4.7 9.8-1.1 3.3-1.4 6.9-1.6 10.4-.2 3.5-.1 7-.1 10.5 0 6.9-.2 13.6-.8 20-.6 6.3-1.5 12.3-3 17.7-1.4 5.4-3.3 10.2-5.4 14.2-.5 1-1.1 1.9-1.6 2.9-.5.9-1.1 1.7-1.6 2.6-.3.4-.5.8-.8 1.2-.3.4-.6.7-.8 1.1-.5.7-1.1 1.4-1.6 2-2.1 2.5-3.8 4.3-5.1 5.5-1.3 1.2-1.9 1.8-1.9 1.8s.6-.7 1.9-1.9c1.3-1.2 2.9-3.1 4.9-5.6.5-.7 1-1.3 1.5-2.1.3-.4.5-.7.8-1.1.2-.4.5-.8.7-1.2.5-.8 1-1.7 1.6-2.6.5-.9 1-1.9 1.5-2.9 1.9-4 3.7-8.8 5-14.1 1.3-5.3 2.2-11.2 2.6-17.5.5-6.3.5-13 .5-19.8 0-3.4-.1-7 0-10.6.1-1.8.2-3.6.5-5.4.1-.9.3-1.8.5-2.7.2-.9.4-1.8.7-2.7 1.2-3.6 3.3-6.7 4.6-10 1.4-3.2 1.8-6.8 2-10.5.1-1.8.2-3.7.3-5.5.1-1.8.3-3.7.4-5.5.3-3.6.4-7.3.6-10.9.2-7.2.1-14.4-.2-21.2-.3-6.9-.9-13.5-1.5-19.8-.7-6.3-1.4-12.2-2.2-17.7-1.6-10.9-3.3-20-4.6-26.3-.6-3.2-1.1-5.6-1.5-7.3-.8-2.1-.9-3-.9-3z"/><path d="M476.8 427.5s-.9.3-2.6.9c-1.7.6-4.3 1.3-7.5 2.2-3.3.9-7.3 1.8-11.9 2.7-2.3.5-4.7 1-7.4 1.4-2.6.4-5.3.9-8.2 1.4-2.9.4-5.9.8-9 1.2-3.1.4-6.3.6-9.6 1-6.6.5-13.6.8-20.8 1-14.5.2-29.9.4-45.3.6h-11.6c-3.8-.1-7.7-.1-11.5-.2-7.6-.2-15-.5-22.3-.7-3.6-.1-7.2-.3-10.6-.5-3.5-.2-6.9-.4-10.2-.6-6.6-.4-12.9-.8-18.6-1.3-5.8-.5-11-1.1-15.7-1.7-4.7-.6-8.7-1.2-12-1.8-3.3-.6-5.9-1.1-7.7-1.5l-2.7-.6.1-.3s1 .1 2.7.4c1.8.2 4.4.6 7.8.9 3.3.3 7.4.8 12.1 1.1 4.7.3 9.9.7 15.7 1 5.8.3 12 .6 18.6.9 3.3.1 6.7.3 10.2.5a6648.251 6648.251 0 0 0 32.8 1.8c7.6.4 15.3.8 22.9 1.1 3.8.1 7.7.3 11.5.4 3.8 0 7.7.1 11.4 0 1.9 0 3.8-.1 5.7-.1 1.9 0 3.7-.1 5.6-.2 3.7-.2 7.4-.4 11-.7 3.6-.3 7.1-.6 10.6-.9 1.7-.2 3.4-.4 5.1-.5 1.7-.2 3.4-.3 5-.5 3.3-.3 6.5-.7 9.6-1 3.1-.4 6.1-.7 8.9-1.1 2.9-.4 5.6-.8 8.2-1.1 2.6-.3 5.1-.7 7.4-1.1 2.3-.4 4.5-.7 6.5-1 2-.3 3.8-.7 5.5-1 3.3-.6 5.9-1.2 7.7-1.5l2.7-.6h-.1z"/></svg>