<?xml version="1.0" encoding="utf-8"?>
<!-- Generator: Adobe Illustrator 19.2.0, SVG Export Plug-In . SVG Version: 6.00 Build 0)  -->
<svg version="1.1" id="Layer_1" xmlns="http://www.w3.org/2000/svg" xmlns:xlink="http://www.w3.org/1999/xlink" x="0px" y="0px"
	 viewBox="0 0 700 700" style="enable-background:new 0 0 700 700;" xml:space="preserve">
<style type="text/css">
	.st0{fill:none;}
	.st1{fill:none;stroke:#000000;stroke-width:5;stroke-miterlimit:10;}
	.st2{opacity:0.9;fill:url(#SVGID_1_);}
	.st3{fill:#490715;}
</style>
<rect x="0" y="0" class="st0" width="700" height="700"/>
<path class="st1" d="M6708.6-568.1c0.3,38.5,0.2,82.4-5.7,120.5c-2.3,14.7-3.7,31.7-10.6,44.9c-9.4,17.9-18.6,35.9-34,49.5
	c-5.5,4.9-11.5,9.2-17.9,12.8c-4.2,2.3-15.3,5.1-15.9,10.8c-0.4,3.6,3.8,5.7,6.9,7.6c6.9,4.3,10.9,12.3,11.6,20.4
	c1.5,15.4-5.6,30.7-18.9,38.8c-0.8,0.5-1.6,1-1.9,1.8c-0.7,2.1,2.1,3.4,4.2,3.8c12.1,2.1,24,5,35.7,8.7c7.7,2.4,24.3,10.6,12,18.5
	c-7.7,4.9-17,6.2-26,7.3c-24.7,3.1-49.7,6.2-74.5,3.9c-5.6-0.5-11.2-1.4-16.8-2.2c-7.5-1.1-15-2.2-22.5-3.3
	c-5.3-0.8-11.8-2.7-12.7-7.9c-1.7-10.2,16.6-15.1,23.6-17.2c4.9-1.5,36.5-4.6,35.6-9.3c-0.5-2.4-2.8-3.9-4.8-5.4
	c-8.9-6.4-15-16.4-16.6-27.2c-1.6-10.8,1.3-22.2,7.9-30.9c2.2-2.9,4.9-6,4.4-9.6c-0.2-1.5-1-2.9-2-4.1c-5.1-6.7-15.9-9.5-22.8-14.7
	c-7.9-6-15.2-12.8-21.6-20.4c-12.5-14.5-22.1-31.5-27.6-49.9c-5.2-17.2-6.9-35.3-8.2-53.2c-2.3-31-3.6-62-3.8-93.1
	c20.2-2.4,42-1.8,62.4-1.4C6600.9-567.5,6708.6-570.2,6708.6-568.1z"/>
<g>
	<path d="M6582-253.2c0,0,0,0.2,0,0.5c0,0.3,0,0.8,0,1.4c0,0.6,0.1,1.3,0.6,1.9c0.4,0.6,1.2,0.8,2.2,0.8c2.1-0.1,4.5-0.2,7.1-0.2
		c1.3,0,2.7-0.1,4-0.1c1.4-0.1,2.8-0.1,4.1-0.2c1.4-0.1,2.8-0.1,4.1-0.2c1.4-0.1,2.7-0.1,4-0.2c2.6-0.1,5-0.2,7.1-0.3
		c2-0.1,3.7-0.6,4.6-1.3c0.4-0.4,0.7-0.8,0.8-1.1c0.1-0.3,0.2-0.5,0.2-0.5s0,0.2,0,0.5c-0.1,0.3-0.2,0.8-0.6,1.3
		c-0.4,0.5-1.1,1-1.9,1.4c-0.8,0.4-1.8,0.7-2.8,0.8c-2.1,0.4-4.5,0.7-7.1,0.9c-1.3,0.1-2.7,0.3-4,0.4c-1.4,0.1-2.8,0.2-4.2,0.2
		c-1.4,0-2.8,0.1-4.2,0.1c-1.4,0-2.7,0-4.1,0c-2.6-0.1-5.1-0.2-7.2-0.4c-0.5-0.1-1.1-0.1-1.6-0.4c-0.5-0.3-0.9-0.7-1.1-1.1
		c-0.4-0.9-0.4-1.7-0.3-2.3c0.1-0.6,0.2-1.1,0.3-1.4C6581.9-253,6582-253.2,6582-253.2z"/>
</g>
<g>
	<path d="M6581.6-337.8c0,0,0.6,0.2,1.6,0.5c0.5,0.2,1.2,0.3,1.9,0.5c0.7,0.2,1.6,0.4,2.4,0.5c0.9,0.2,1.9,0.3,2.9,0.5
		c1,0.1,2.1,0.2,3.3,0.3c1.1,0.1,2.3,0.1,3.5,0.2c1.2,0,2.4,0,3.6,0c1.2,0,2.5,0,3.7-0.1c1.2,0,2.4-0.1,3.6-0.1
		c2.3-0.1,4.5-0.1,6.3-0.3c1.8-0.2,3.2-0.6,4.1-1.2c0.4-0.3,0.8-0.6,1-0.8c0.2-0.2,0.3-0.3,0.3-0.3s-0.1,0.1-0.2,0.4
		c-0.2,0.3-0.4,0.6-0.8,1c-0.8,0.8-2.3,1.6-4.2,2c-0.9,0.2-2,0.4-3,0.5c-1.1,0.1-2.2,0.3-3.3,0.4c-1.2,0.1-2.4,0.2-3.6,0.3
		c-1.2,0.1-2.5,0.1-3.7,0.2c-1.3,0-2.5,0-3.7-0.1c-0.6,0-1.2-0.1-1.8-0.1c-0.6-0.1-1.2-0.1-1.8-0.2c-1.2-0.1-2.3-0.4-3.4-0.6
		c-0.5-0.1-1-0.3-1.5-0.4c-0.5-0.2-1-0.3-1.4-0.4c-1.8-0.6-3.2-1.3-4.2-1.8C6582.2-337.5,6581.6-337.8,6581.6-337.8z"/>
</g>
<g>
	<path d="M6531.5-235.7c0,0,0.1,0.1,0.3,0.3c0.2,0.2,0.5,0.4,1,0.6c0.9,0.5,2.3,1,4.2,1.4c1.9,0.4,4.2,0.7,6.8,1.1
		c2.6,0.4,5.6,0.7,8.9,1.1c3.3,0.3,6.8,0.7,10.6,1c3.7,0.3,7.7,0.5,11.8,0.7c8.2,0.3,17,0.5,25.7,0.6c4.4,0.1,8.8,0.1,13.1,0.2
		c4.3,0,8.5,0.1,12.6,0c4.1-0.1,8-0.4,11.7-0.8c3.7-0.5,7.2-1.1,10.4-1.7c6.4-1.4,11.6-3,15.2-4.3c1.8-0.7,3.2-1.2,4.2-1.6
		c1-0.4,1.5-0.6,1.5-0.6s-0.5,0.2-1.4,0.7c-0.9,0.4-2.3,1.1-4.1,1.8c-3.5,1.5-8.7,3.5-15.1,5.1c-6.4,1.6-14.1,2.9-22.3,3.2
		c-4.1,0.2-8.4,0.2-12.7,0.2c-4.3,0-8.7-0.1-13.1-0.1c-4.4-0.1-8.8-0.2-13.1-0.3c-4.3-0.1-8.6-0.4-12.7-0.6c-4.1-0.3-8.1-0.6-11.8-1
		c-3.8-0.4-7.3-0.8-10.6-1.3c-1.6-0.3-3.2-0.5-4.7-0.7c-1.5-0.3-2.9-0.5-4.2-0.8c-2.6-0.5-4.9-1-6.8-1.5c-1.9-0.5-3.3-1.1-4.1-1.7
		c-0.4-0.3-0.7-0.5-0.9-0.7C6531.6-235.6,6531.5-235.7,6531.5-235.7z"/>
</g>
<linearGradient id="SVGID_1_" gradientUnits="userSpaceOnUse" x1="6498.813" y1="-446.2358" x2="6704.6909" y2="-446.2358">
	<stop  offset="1.785714e-02" style="stop-color:#801FE3"/>
	<stop  offset="1" style="stop-color:#B7A7FF"/>
</linearGradient>
<path class="st2" d="M6498.8-539.9c1.4,24.4,2.7,48.8,4.1,73.2c0.4,7.9,0.9,15.9,2.2,23.7c1.8,11.1,5.4,21.8,8.9,32.5
	c3,9.1,6,18.2,11.1,26.3c17.8,28.1,51.5,32.7,81.9,31.3c10.6-0.5,21.3-1.5,31.5-4.7c66.9-21.3,65.2-117,66.1-172.7
	c0-2.6,0.1-5.1,0.1-7.7C6636-535.8,6567.2-534,6498.8-539.9z"/>
<g>
	<path d="M6493.7-559.6c0,0,0.6,8.1,1.5,22.2c0.5,7.1,1,15.6,1.7,25.5c0.6,9.8,1.4,20.9,2.1,33.1c0.4,6.1,0.7,12.4,1.3,18.9
		c0.5,6.5,1.4,13.2,3,19.9c1.6,6.7,3.7,13.5,6,20.4c2.4,6.9,4.5,14,7.5,20.9c0.8,1.7,1.5,3.4,2.4,5.1c0.9,1.6,1.8,3.3,2.8,4.8
		c1.1,1.6,2.2,3.1,3.4,4.7c1.2,1.4,2.5,2.8,3.7,4.3c5.3,5.5,11.7,10,18.8,13.2c7.1,3.3,14.8,5.4,22.6,6.6c7.9,1.3,15.9,1.7,23.9,1.7
		c8-0.1,16.1-0.4,24-1.5c3.9-0.5,7.9-1.2,11.7-2.2c1-0.3,1.9-0.5,2.8-0.8l0.7-0.2c0.1,0,0,0,0.1,0l0.2-0.1l0.4-0.1l1.4-0.5l2.8-1
		c0.5-0.2,0.9-0.3,1.4-0.5l1.3-0.6c7.1-3.1,13.7-7.4,19.4-12.5c5.7-5.1,10.5-11.1,14.4-17.5c4-6.3,7.1-13.1,9.7-19.8
		c2.6-6.8,4.6-13.6,6.3-20.3c3.2-13.5,5-26.5,6.2-38.5c1.1-12.1,1.7-23.2,2-33c0.3-9.9,0.5-18.4,0.7-25.5
		c0.2-14.2,0.4-22.2,0.4-22.2s0,2,0.1,5.8c0,3.8,0.1,9.4,0.2,16.4c0,7.1,0,15.7-0.2,25.5c-0.1,9.9-0.5,21-1.5,33.1
		c-1,12.1-2.6,25.2-5.7,38.9c-1.6,6.8-3.6,13.7-6.1,20.6c-2.5,6.9-5.7,13.8-9.8,20.3c-4,6.5-9,12.7-14.8,18.1
		c-5.9,5.4-12.7,9.8-20.2,13.1l-1.4,0.6c-0.5,0.2-0.9,0.4-1.4,0.5l-2.8,1l-1.4,0.5l-0.4,0.1l-0.2,0.1l-0.2,0.1l-0.7,0.2
		c-1,0.3-2,0.6-2.9,0.8c-3.9,1-8,1.8-12,2.4c-8.1,1.1-16.2,1.5-24.4,1.6c-8.2,0-16.3-0.5-24.4-1.8c-8-1.3-16-3.5-23.3-7
		c-7.4-3.4-14.1-8.1-19.6-13.9c-1.3-1.5-2.6-3.1-3.9-4.6c-1.1-1.6-2.2-3.2-3.3-4.7c-2.2-3.4-3.9-6.8-5.4-10.4
		c-3-7.1-5.2-14.2-7.5-21.2c-2.2-7-4.3-13.9-5.8-20.7c-1.6-6.9-2.4-13.6-2.8-20.2c-0.5-6.6-0.7-12.9-1-18.9
		c-0.6-12.1-1.1-23.2-1.6-33.1c-0.5-9.9-0.8-18.4-1.2-25.5C6494-551.6,6493.7-559.6,6493.7-559.6z"/>
</g>
<g>
	<path d="M6494.1-544.2c0,0,0.8,0,2.4,0.1c1.6,0.1,3.8,0.2,6.7,0.3c2.9,0.2,6.4,0.3,10.5,0.5c4,0.2,8.6,0.3,13.6,0.5
		c5,0.2,10.4,0.3,16.1,0.5c5.7,0.2,11.7,0.2,17.9,0.4c6.2,0.1,12.6,0.1,19.2,0.2c6.5,0.1,13.2,0,19.8,0.1c6.6,0,13.3,0,19.8-0.1
		c6.5-0.1,13-0.1,19.2-0.2c12.5-0.1,24.1-0.2,34-0.3c10-0.1,18.3-0.1,24.1-0.1c2.9,0,5.2,0,6.7,0c1.6,0,2.4,0,2.4,0
		s-0.8,0.1-2.4,0.2c-1.6,0.1-3.8,0.2-6.7,0.4c-5.8,0.3-14.1,0.8-24.1,1.3c-10,0.5-21.6,0.9-34,1.3c-6.2,0.1-12.7,0.4-19.2,0.4
		c-6.5,0.1-13.2,0.1-19.8,0.2c-6.6,0-13.3,0-19.8-0.2c-6.5-0.1-13-0.3-19.2-0.4c-6.2-0.2-12.3-0.4-18-0.8c-2.9-0.2-5.6-0.3-8.3-0.5
		c-2.7-0.2-5.3-0.4-7.8-0.5c-2.5-0.2-4.9-0.3-7.1-0.5c-2.3-0.2-4.4-0.4-6.4-0.6c-4-0.4-7.6-0.7-10.4-1c-2.9-0.3-5.2-0.6-6.7-0.7
		C6494.9-544.1,6494.1-544.2,6494.1-544.2z"/>
</g>
<g>
	<path class="st3" d="M460.8,431.1c-55.7,11.1-113.1,8.2-169.8,5.3c-19.9-1-39.9-2.1-59.4-5.7c0.2,15.9,0.4,31.7,0.6,47.6
		c0.2,20.3,0.5,40.9,6.4,60.3c3.6,11.6,9.1,22.6,13.2,34c4.7,12.8,7.6,26.3,8.7,39.9c0.8,9.6,0.7,19.4,2.9,28.8
		c2.2,9.4,7.2,18.7,15.6,23.4c11.8,6.6,22.7,2.3,35.5,5.3c11.5,2.7,23.1,5.1,34.9,5.6c6.2,0.3,16.3-0.1,22.4-1
		c5.3-0.8,20-3.9,22.3-3.6c7.1,1,14.5,0.3,20.9-2.7c11.1-5.1,14-14.9,17.2-25.8c3.6-12.3,5.6-25,8-37.6c1.9-9.9,4-19.8,7.3-29.3
		c3.3-9.5,7.8-18.2,10.6-28c11.1-39.3,16-78.6,18.5-120.2C471.5,428.8,466.1,430,460.8,431.1z"/>
	<path class="st1" d="M217.3,400.1c-0.4,39.9-0.8,79.9,2.4,119.7c0.5,6.7,1.2,13.3,2.9,19.8c2.1,7.7,5.6,14.9,8.5,22.3
		c7.5,19.4,10.1,40.3,12.7,61c2.7,21.3,5.4,42.7,8,64c5.6,7,14.5,8.4,23.3,10c8.8,1.6,17.8,1.1,26.7,0.7c33.7-1.3,67.9-0.9,101.4,2
		c2.8,0.2,5.6,0.5,8.4,0.4c8-0.2,27.6-3.7,31.2-12.3c1.2-2.9,1.1-6.1,1.1-9.2c-0.3-27.1,3.4-54.1,7.2-81
		c2.2-15.6,6.1-28.5,11.8-42.8C468.7,540,483,443,483,401.7C458,403.9,282.1,399.3,217.3,400.1z"/>
	<g>
		<path d="M228.5,414.8c0,0,0.2,10.3,0.6,28.2c0.2,9,0.4,19.9,0.6,32.4c0.1,6.2,0.3,12.9,0.6,19.9c0.4,7,1,14.3,2.2,21.9
			c0.6,3.8,1.4,7.6,2.4,11.5c0.5,1.9,1.1,3.9,1.6,5.8c0.6,2,1.3,3.9,2,5.8c2.8,7.7,6.4,15.5,9.7,23.7c3.3,8.2,6,17,7.9,26.1
			c1,4.6,1.7,9.2,2.2,14c0.5,4.7,0.8,9.5,1.1,14.3c0.3,4.8,0.6,9.6,1.4,14.3c0.8,4.7,2.1,9.4,4.2,13.7c2.1,4.3,5,8.3,8.8,11.1l1.4,1
			l1.5,0.9c1.1,0.6,2.3,1.2,3.3,1.5c2.2,0.9,4.5,1.5,7,1.8c4.8,0.7,9.9,0.4,15,0.6c2.6,0.1,5.2,0.3,7.8,0.8l1.9,0.4l1.9,0.4l3.7,0.8
			c9.9,2.2,20,4,30.1,4.3c5,0.1,10.2,0,15.2-0.4c2.5-0.2,5-0.5,7.5-0.9c2.5-0.5,5-0.9,7.5-1.4c2.5-0.5,5-0.9,7.6-1.3
			c1.3-0.2,2.5-0.4,3.9-0.5c0.6-0.1,1.4-0.1,2.2-0.1c0.6,0.1,1.3,0.2,1.9,0.2c4.9,0.5,9.9,0.1,14.5-1.3c2.3-0.7,4.5-1.7,6.6-3
			c2-1.2,3.8-2.8,5.3-4.6c3.1-3.6,5-8.1,6.5-12.7c1.5-4.7,2.9-9.4,4-14.1c1.2-4.7,2.1-9.4,3-14.2c1.8-9.4,3.3-18.8,5.5-27.8
			c1.1-4.5,2.3-9,3.7-13.3c1.4-4.3,3.1-8.5,4.8-12.6c1.7-4.1,3.4-8.1,4.9-12c0.7-2,1.4-4,2-6c0.6-2,1.1-4,1.7-6
			c2.2-8,4.1-15.7,5.7-23.3c0.8-3.7,1.5-7.4,2.3-11c0.7-3.6,1.3-7.1,1.9-10.6c0.6-3.5,1.2-6.8,1.6-10.1c0.5-3.3,1-6.5,1.4-9.6
			c1.7-12.4,2.8-23.2,3.6-32.2c0.8-8.9,1.3-16,1.6-20.8c0.3-4.8,0.5-7.4,0.5-7.4s-0.1,2.6-0.3,7.4c-0.2,4.8-0.6,11.9-1.2,20.8
			c-0.6,9-1.6,19.8-3,32.3c-1.5,12.4-3.5,26.4-6.7,41.5c-1.5,7.5-3.4,15.4-5.5,23.4c-0.5,2-1.1,4-1.6,6.1c-0.6,2.1-1.3,4.1-2,6.1
			c-1.5,4.1-3.2,8.1-4.8,12.2c-1.7,4.1-3.2,8.2-4.6,12.5c-1.3,4.3-2.5,8.7-3.5,13.2c-2,9-3.6,18.3-5.3,27.8c-0.9,4.7-1.9,9.5-3,14.3
			c-1.1,4.8-2.5,9.5-4,14.3c-1.6,4.7-3.5,9.6-7,13.7c-1.7,2-3.7,3.8-6,5.2c-2.2,1.4-4.6,2.5-7.2,3.3c-5,1.6-10.4,2-15.6,1.5
			c-0.7-0.1-1.3-0.1-1.9-0.2c-0.4,0-1,0-1.6,0.1c-1.2,0.1-2.5,0.3-3.7,0.5c-2.5,0.4-5,0.9-7.5,1.3c-2.5,0.5-5,0.9-7.6,1.4
			c-2.5,0.5-5.2,0.8-7.8,1c-5.2,0.4-10.3,0.6-15.5,0.4c-10.4-0.3-20.6-2.2-30.6-4.5l-3.7-0.9l-1.9-0.4l-1.8-0.4
			c-2.4-0.4-4.9-0.7-7.4-0.8c-5-0.2-10.1,0.1-15.3-0.6c-2.6-0.4-5.1-1-7.6-2c-1.3-0.5-2.4-1.1-3.5-1.6c-0.7-0.4-1.2-0.7-1.7-1.1
			c-0.5-0.4-1.1-0.8-1.6-1.2c-4.2-3.2-7.3-7.6-9.5-12.1c-1.1-2.3-2-4.7-2.7-7.1c-0.7-2.4-1.2-4.9-1.6-7.3c-0.8-4.9-1.1-9.8-1.4-14.6
			c-0.3-4.8-0.5-9.5-1-14.2c-0.5-4.7-1.2-9.2-2.1-13.8c-1.8-9-4.4-17.6-7.5-25.8c-3.2-8.2-6.7-16-9.5-23.9c-0.7-2-1.4-4-1.9-5.9
			c-0.6-2-1.1-3.9-1.6-5.9c-0.9-3.9-1.7-7.8-2.3-11.6c-2.3-15.3-2.2-29.5-2.3-42c0-12.5-0.1-23.4-0.1-32.4
			C228.5,425,228.5,414.8,228.5,414.8z"/>
	</g>
	<g>
		<path d="M298.6,422.6c0,0-0.8,3.6-2,9.9c-1.2,6.3-2.8,15.3-4.4,26.2c-0.8,5.4-1.5,11.3-2.1,17.6c-0.6,6.3-1.2,12.9-1.6,19.7
			c-0.4,6.8-0.7,13.9-0.9,21.1c-0.1,3.6-0.1,7.2,0,10.9c0,3.6,0.1,7.3,0.6,10.8c0.2,1.8,0.6,3.5,1.1,5.2c0.5,1.7,1.2,3.3,1.9,5
			c1.5,3.3,3.3,6.5,4.5,10c1.2,3.6,1.7,7.2,1.9,10.8c0.2,3.6,0.1,7.1,0.1,10.5c-0.1,6.8-0.1,13.5,0.3,19.7
			c0.3,6.3,1.1,12.1,2.4,17.5c1.3,5.3,3,10,5,14c1.9,4,4.4,7,6.5,9.4c2.1,2.4,3.6,4.4,4.5,5.9c0.5,0.7,0.8,1.3,1,1.7
			c0.2,0.4,0.3,0.6,0.3,0.6s-0.1-0.2-0.3-0.6c-0.2-0.4-0.6-0.9-1-1.7c-1-1.4-2.6-3.3-4.7-5.7c-2.2-2.4-4.8-5.3-6.9-9.4
			c-2.2-3.9-4.1-8.7-5.5-14.1c-1.4-5.4-2.3-11.3-2.7-17.6c-0.5-6.3-0.6-13-0.5-19.9c0-3.4,0.1-6.9-0.1-10.4c-0.2-3.5-0.7-7-1.9-10.3
			c-1.2-3.3-2.9-6.5-4.5-9.8c-0.8-1.7-1.5-3.4-2.1-5.2c-0.6-1.8-0.9-3.7-1.2-5.5c-0.5-3.7-0.5-7.4-0.6-11.1c0-3.7,0-7.3,0.1-10.9
			c0.2-7.2,0.5-14.3,1-21.2c1-13.7,2.7-26.5,4.4-37.4c1.7-10.9,3.7-19.8,5.1-26.1c0.7-3.1,1.3-5.6,1.7-7.2
			C298.4,423.5,298.6,422.6,298.6,422.6z"/>
	</g>
	<g>
		<path d="M395.8,422.6c0,0,0.2,0.9,0.6,2.6c0.4,1.7,1.1,4.1,1.8,7.3c0.7,3.1,1.6,7,2.5,11.4c0.9,4.4,1.9,9.4,2.8,14.8
			c0.9,5.5,1.8,11.4,2.6,17.7c0.7,6.3,1.4,13,1.8,19.9c0.4,6.9,0.5,14.1,0.4,21.4c-0.1,3.6-0.2,7.3-0.5,11c-0.1,1.8-0.2,3.7-0.3,5.5
			c-0.1,1.8-0.2,3.7-0.3,5.5c-0.1,1.9-0.3,3.7-0.6,5.6c-0.2,0.9-0.3,1.9-0.6,2.8c-0.1,0.4-0.3,0.9-0.4,1.4c-0.2,0.4-0.3,0.9-0.5,1.3
			c-1.5,3.5-3.5,6.5-4.7,9.8c-1.1,3.3-1.4,6.9-1.6,10.4c-0.2,3.5-0.1,7-0.1,10.5c0,6.9-0.2,13.6-0.8,20c-0.6,6.3-1.5,12.3-3,17.7
			c-1.4,5.4-3.3,10.2-5.4,14.2c-0.5,1-1.1,1.9-1.6,2.9c-0.5,0.9-1.1,1.7-1.6,2.6c-0.3,0.4-0.5,0.8-0.8,1.2c-0.3,0.4-0.6,0.7-0.8,1.1
			c-0.5,0.7-1.1,1.4-1.6,2c-2.1,2.5-3.8,4.3-5.1,5.5c-1.3,1.2-1.9,1.8-1.9,1.8s0.6-0.7,1.9-1.9c1.3-1.2,2.9-3.1,4.9-5.6
			c0.5-0.7,1-1.3,1.5-2.1c0.3-0.4,0.5-0.7,0.8-1.1c0.2-0.4,0.5-0.8,0.7-1.2c0.5-0.8,1-1.7,1.6-2.6c0.5-0.9,1-1.9,1.5-2.9
			c1.9-4,3.7-8.8,5-14.1c1.3-5.3,2.2-11.2,2.6-17.5c0.5-6.3,0.5-13,0.5-19.8c0-3.4-0.1-7,0-10.6c0.1-1.8,0.2-3.6,0.5-5.4
			c0.1-0.9,0.3-1.8,0.5-2.7c0.2-0.9,0.4-1.8,0.7-2.7c1.2-3.6,3.3-6.7,4.6-10c1.4-3.2,1.8-6.8,2-10.5c0.1-1.8,0.2-3.7,0.3-5.5
			c0.1-1.8,0.3-3.7,0.4-5.5c0.3-3.6,0.4-7.3,0.6-10.9c0.2-7.2,0.1-14.4-0.2-21.2c-0.3-6.9-0.9-13.5-1.5-19.8
			c-0.7-6.3-1.4-12.2-2.2-17.7c-1.6-10.9-3.3-20-4.6-26.3c-0.6-3.2-1.1-5.6-1.5-7.3C395.9,423.5,395.8,422.6,395.8,422.6z"/>
	</g>
	<g>
		<path d="M476.8,427.5c0,0-0.9,0.3-2.6,0.9c-1.7,0.6-4.3,1.3-7.5,2.2c-3.3,0.9-7.3,1.8-11.9,2.7c-2.3,0.5-4.7,1-7.4,1.4
			c-2.6,0.4-5.3,0.9-8.2,1.4c-2.9,0.4-5.9,0.8-9,1.2c-3.1,0.4-6.3,0.6-9.6,1c-6.6,0.5-13.6,0.8-20.8,1c-14.5,0.2-29.9,0.4-45.3,0.6
			c-3.9,0-7.7,0-11.6,0c-3.8-0.1-7.7-0.1-11.5-0.2c-7.6-0.2-15-0.5-22.3-0.7c-3.6-0.1-7.2-0.3-10.6-0.5c-3.5-0.2-6.9-0.4-10.2-0.6
			c-6.6-0.4-12.9-0.8-18.6-1.3c-5.8-0.5-11-1.1-15.7-1.7c-4.7-0.6-8.7-1.2-12-1.8c-3.3-0.6-5.9-1.1-7.7-1.5
			c-1.8-0.4-2.7-0.6-2.7-0.6l0.1-0.3c0,0,1,0.1,2.7,0.4c1.8,0.2,4.4,0.6,7.8,0.9c3.3,0.3,7.4,0.8,12.1,1.1c4.7,0.3,9.9,0.7,15.7,1
			c5.8,0.3,12,0.6,18.6,0.9c3.3,0.1,6.7,0.3,10.2,0.5c3.5,0.2,7,0.4,10.6,0.6c7.2,0.4,14.6,0.8,22.2,1.2c7.6,0.4,15.3,0.8,22.9,1.1
			c3.8,0.1,7.7,0.3,11.5,0.4c3.8,0,7.7,0.1,11.4,0c1.9,0,3.8-0.1,5.7-0.1c1.9,0,3.7-0.1,5.6-0.2c3.7-0.2,7.4-0.4,11-0.7
			c3.6-0.3,7.1-0.6,10.6-0.9c1.7-0.2,3.4-0.4,5.1-0.5c1.7-0.2,3.4-0.3,5-0.5c3.3-0.3,6.5-0.7,9.6-1c3.1-0.4,6.1-0.7,8.9-1.1
			c2.9-0.4,5.6-0.8,8.2-1.1c2.6-0.3,5.1-0.7,7.4-1.1c2.3-0.4,4.5-0.7,6.5-1c2-0.3,3.8-0.7,5.5-1c3.3-0.6,5.9-1.2,7.7-1.5
			c1.8-0.4,2.7-0.6,2.7-0.6L476.8,427.5z"/>
	</g>
</g>
</svg>
