<?xml version="1.0" encoding="utf-8"?>
<!-- Generator: Adobe Illustrator 19.2.0, SVG Export Plug-In . SVG Version: 6.00 Build 0)  -->
<svg version="1.1" id="Layer_1" xmlns="http://www.w3.org/2000/svg" xmlns:xlink="http://www.w3.org/1999/xlink" x="0px" y="0px"
	 viewBox="0 0 460 550" style="enable-background:new 0 0 460 550;" xml:space="preserve">
<style type="text/css">
	.st0{fill:none;stroke:#000000;stroke-width:5;stroke-miterlimit:10;}
	.st1{opacity:0.9;fill:url(#SVGID_1_);enable-background:new    ;}
	.st2{fill:#9B0240;}
	.st3{fill:#FFFFFF;}
	.st4{fill:none;}
</style>
<path class="st0" d="M6588.6-720.6c0.3,38.5,0.2,82.4-5.7,120.5c-2.3,14.7-3.7,31.7-10.6,44.9c-9.4,17.9-18.6,35.9-34,49.5
	c-5.5,4.9-11.5,9.2-17.9,12.8c-4.2,2.3-15.3,5.1-15.9,10.8c-0.4,3.6,3.8,5.7,6.9,7.6c6.9,4.3,10.9,12.3,11.6,20.4
	c1.5,15.4-5.6,30.7-18.9,38.8c-0.8,0.5-1.6,1-1.9,1.8c-0.7,2.1,2.1,3.4,4.2,3.8c12.1,2.1,24,5,35.7,8.7c7.7,2.4,24.3,10.6,12,18.5
	c-7.7,4.9-17,6.2-26,7.3c-24.7,3.1-49.7,6.2-74.5,3.9c-5.6-0.5-11.2-1.4-16.8-2.2l-22.5-3.3c-5.3-0.8-11.8-2.7-12.7-7.9
	c-1.7-10.2,16.6-15.1,23.6-17.2c4.9-1.5,36.5-4.6,35.6-9.3c-0.5-2.4-2.8-3.9-4.8-5.4c-8.9-6.4-15-16.4-16.6-27.2
	c-1.6-10.8,1.3-22.2,7.9-30.9c2.2-2.9,4.9-6,4.4-9.6c-0.2-1.5-1-2.9-2-4.1c-5.1-6.7-15.9-9.5-22.8-14.7c-7.9-6-15.2-12.8-21.6-20.4
	c-12.5-14.5-22.1-31.5-27.6-49.9c-5.2-17.2-6.9-35.3-8.2-53.2c-2.3-31-3.6-62-3.8-93.1c20.2-2.4,42-1.8,62.4-1.4
	C6480.9-720,6588.6-722.7,6588.6-720.6L6588.6-720.6z"/>
<path d="M6462-405.7v1.9c0,0.6,0.1,1.3,0.6,1.9c0.4,0.6,1.2,0.8,2.2,0.8c2.1-0.1,4.5-0.2,7.1-0.2c1.3,0,2.7-0.1,4-0.1
	c1.4-0.1,2.8-0.1,4.1-0.2c1.4-0.1,2.8-0.1,4.1-0.2c1.4-0.1,2.7-0.1,4-0.2c2.6-0.1,5-0.2,7.1-0.3c2-0.1,3.7-0.6,4.6-1.3
	c0.4-0.4,0.7-0.8,0.8-1.1c0.1-0.3,0.2-0.5,0.2-0.5v0.5c-0.1,0.3-0.2,0.8-0.6,1.3s-1.1,1-1.9,1.4c-0.8,0.4-1.8,0.7-2.8,0.8
	c-2.1,0.4-4.5,0.7-7.1,0.9c-1.3,0.1-2.7,0.3-4,0.4c-1.4,0.1-2.8,0.2-4.2,0.2c-1.4,0-2.8,0.1-4.2,0.1h-4.1c-2.6-0.1-5.1-0.2-7.2-0.4
	c-0.5-0.1-1.1-0.1-1.6-0.4s-0.9-0.7-1.1-1.1c-0.4-0.9-0.4-1.7-0.3-2.3s0.2-1.1,0.3-1.4C6461.9-405.5,6462-405.7,6462-405.7
	L6462-405.7z M6461.6-490.3c0,0,0.6,0.2,1.6,0.5c0.5,0.2,1.2,0.3,1.9,0.5s1.6,0.4,2.4,0.5c0.9,0.2,1.9,0.3,2.9,0.5
	c1,0.1,2.1,0.2,3.3,0.3c1.1,0.1,2.3,0.1,3.5,0.2h3.6c1.2,0,2.5,0,3.7-0.1c1.2,0,2.4-0.1,3.6-0.1c2.3-0.1,4.5-0.1,6.3-0.3
	c1.8-0.2,3.2-0.6,4.1-1.2c0.4-0.3,0.8-0.6,1-0.8l0.3-0.3c0,0-0.1,0.1-0.2,0.4c-0.2,0.3-0.4,0.6-0.8,1c-0.8,0.8-2.3,1.6-4.2,2
	c-0.9,0.2-2,0.4-3,0.5c-1.1,0.1-2.2,0.3-3.3,0.4l-3.6,0.3c-1.2,0.1-2.5,0.1-3.7,0.2c-1.3,0-2.5,0-3.7-0.1c-0.6,0-1.2-0.1-1.8-0.1
	c-0.6-0.1-1.2-0.1-1.8-0.2c-1.2-0.1-2.3-0.4-3.4-0.6c-0.5-0.1-1-0.3-1.5-0.4c-0.5-0.2-1-0.3-1.4-0.4c-1.8-0.6-3.2-1.3-4.2-1.8
	C6462.2-490,6461.6-490.3,6461.6-490.3L6461.6-490.3z M6411.5-388.2l0.3,0.3c0.2,0.2,0.5,0.4,1,0.6c0.9,0.5,2.3,1,4.2,1.4
	c1.9,0.4,4.2,0.7,6.8,1.1c2.6,0.4,5.6,0.7,8.9,1.1c3.3,0.3,6.8,0.7,10.6,1c3.7,0.3,7.7,0.5,11.8,0.7c8.2,0.3,17,0.5,25.7,0.6
	c4.4,0.1,8.8,0.1,13.1,0.2c4.3,0,8.5,0.1,12.6,0s8-0.4,11.7-0.8c3.7-0.5,7.2-1.1,10.4-1.7c6.4-1.4,11.6-3,15.2-4.3
	c1.8-0.7,3.2-1.2,4.2-1.6l1.5-0.6c0,0-0.5,0.2-1.4,0.7c-0.9,0.4-2.3,1.1-4.1,1.8c-3.5,1.5-8.7,3.5-15.1,5.1
	c-6.4,1.6-14.1,2.9-22.3,3.2c-4.1,0.2-8.4,0.2-12.7,0.2c-4.3,0-8.7-0.1-13.1-0.1c-4.4-0.1-8.8-0.2-13.1-0.3
	c-4.3-0.1-8.6-0.4-12.7-0.6c-4.1-0.3-8.1-0.6-11.8-1c-3.8-0.4-7.3-0.8-10.6-1.3c-1.6-0.3-3.2-0.5-4.7-0.7c-1.5-0.3-2.9-0.5-4.2-0.8
	c-2.6-0.5-4.9-1-6.8-1.5s-3.3-1.1-4.1-1.7c-0.4-0.3-0.7-0.5-0.9-0.7C6411.6-388.1,6411.5-388.2,6411.5-388.2L6411.5-388.2z"/>
<linearGradient id="SVGID_1_" gradientUnits="userSpaceOnUse" x1="6378.7998" y1="-1105.7888" x2="6584.7002" y2="-1105.7888" gradientTransform="matrix(1 0 0 1 0 507)">
	<stop  offset="1.800000e-02" style="stop-color:#801FE3"/>
	<stop  offset="1" style="stop-color:#B7A7FF"/>
</linearGradient>
<path class="st1" d="M6378.8-692.4c1.4,24.4,2.7,48.8,4.1,73.2c0.4,7.9,0.9,15.9,2.2,23.7c1.8,11.1,5.4,21.8,8.9,32.5
	c3,9.1,6,18.2,11.1,26.3c17.8,28.1,51.5,32.7,81.9,31.3c10.6-0.5,21.3-1.5,31.5-4.7c66.9-21.3,65.2-117,66.1-172.7
	c0-2.6,0.1-5.1,0.1-7.7C6516-688.3,6447.2-686.5,6378.8-692.4L6378.8-692.4z"/>
<path d="M6373.7-712.1c0,0,0.6,8.1,1.5,22.2c0.5,7.1,1,15.6,1.7,25.5c0.6,9.8,1.4,20.9,2.1,33.1c0.4,6.1,0.7,12.4,1.3,18.9
	c0.5,6.5,1.4,13.2,3,19.9c1.6,6.7,3.7,13.5,6,20.4c2.4,6.9,4.5,14,7.5,20.9c0.8,1.7,1.5,3.4,2.4,5.1c0.9,1.6,1.8,3.3,2.8,4.8
	c1.1,1.6,2.2,3.1,3.4,4.7c1.2,1.4,2.5,2.8,3.7,4.3c5.3,5.5,11.7,10,18.8,13.2c7.1,3.3,14.8,5.4,22.6,6.6c7.9,1.3,15.9,1.7,23.9,1.7
	c8-0.1,16.1-0.4,24-1.5c3.9-0.5,7.9-1.2,11.7-2.2c1-0.3,1.9-0.5,2.8-0.8l0.7-0.2h0.1l0.2-0.1l0.4-0.1l1.4-0.5l2.8-1
	c0.5-0.2,0.9-0.3,1.4-0.5l1.3-0.6c7.1-3.1,13.7-7.4,19.4-12.5c5.7-5.1,10.5-11.1,14.4-17.5c4-6.3,7.1-13.1,9.7-19.8
	c2.6-6.8,4.6-13.6,6.3-20.3c3.2-13.5,5-26.5,6.2-38.5c1.1-12.1,1.7-23.2,2-33c0.3-9.9,0.5-18.4,0.7-25.5c0.2-14.2,0.4-22.2,0.4-22.2
	s0,2,0.1,5.8c0,3.8,0.1,9.4,0.2,16.4c0,7.1,0,15.7-0.2,25.5c-0.1,9.9-0.5,21-1.5,33.1c-1,12.1-2.6,25.2-5.7,38.9
	c-1.6,6.8-3.6,13.7-6.1,20.6c-2.5,6.9-5.7,13.8-9.8,20.3c-4,6.5-9,12.7-14.8,18.1c-5.9,5.4-12.7,9.8-20.2,13.1l-1.4,0.6
	c-0.5,0.2-0.9,0.4-1.4,0.5l-2.8,1l-1.4,0.5l-0.4,0.1l-0.2,0.1l-0.2,0.1l-0.7,0.2c-1,0.3-2,0.6-2.9,0.8c-3.9,1-8,1.8-12,2.4
	c-8.1,1.1-16.2,1.5-24.4,1.6c-8.2,0-16.3-0.5-24.4-1.8c-8-1.3-16-3.5-23.3-7c-7.4-3.4-14.1-8.1-19.6-13.9c-1.3-1.5-2.6-3.1-3.9-4.6
	c-1.1-1.6-2.2-3.2-3.3-4.7c-2.2-3.4-3.9-6.8-5.4-10.4c-3-7.1-5.2-14.2-7.5-21.2c-2.2-7-4.3-13.9-5.8-20.7
	c-1.6-6.9-2.4-13.6-2.8-20.2c-0.5-6.6-0.7-12.9-1-18.9c-0.6-12.1-1.1-23.2-1.6-33.1c-0.5-9.9-0.8-18.4-1.2-25.5
	C6374-704.1,6373.7-712.1,6373.7-712.1L6373.7-712.1z"/>
<path d="M6374.1-696.7c0,0,0.8,0,2.4,0.1s3.8,0.2,6.7,0.3c2.9,0.2,6.4,0.3,10.5,0.5c4,0.2,8.6,0.3,13.6,0.5s10.4,0.3,16.1,0.5
	s11.7,0.2,17.9,0.4c6.2,0.1,12.6,0.1,19.2,0.2c6.5,0.1,13.2,0,19.8,0.1c6.6,0,13.3,0,19.8-0.1s13-0.1,19.2-0.2
	c12.5-0.1,24.1-0.2,34-0.3c10-0.1,18.3-0.1,24.1-0.1h9.1c0,0-0.8,0.1-2.4,0.2c-1.6,0.1-3.8,0.2-6.7,0.4c-5.8,0.3-14.1,0.8-24.1,1.3
	s-21.6,0.9-34,1.3c-6.2,0.1-12.7,0.4-19.2,0.4c-6.5,0.1-13.2,0.1-19.8,0.2c-6.6,0-13.3,0-19.8-0.2c-6.5-0.1-13-0.3-19.2-0.4
	c-6.2-0.2-12.3-0.4-18-0.8c-2.9-0.2-5.6-0.3-8.3-0.5c-2.7-0.2-5.3-0.4-7.8-0.5c-2.5-0.2-4.9-0.3-7.1-0.5c-2.3-0.2-4.4-0.4-6.4-0.6
	c-4-0.4-7.6-0.7-10.4-1c-2.9-0.3-5.2-0.6-6.7-0.7C6374.9-696.6,6374.1-696.7,6374.1-696.7L6374.1-696.7z"/>
<path class="st2" d="M169.6,358.3c10.6,7.5,22.8,14.6,37.8,16.9c26.9,4.2,58.2-1.8,79.8-13.3c59.6-31.8,87.5-88.8,83.8-138.5
	c-1.7-22.9-5.5-45-11-67.6c-2.5-10.5-4.6-21-6.3-31.4c-79.4-8.5-161.5,2.1-241.9-0.8h-0.2c-8,28.1-16.5,56.3-19.6,84.7
	c-4.2,40,4.7,78.6,35.6,112.9C140.4,335.2,152.7,346.3,169.6,358.3L169.6,358.3z"/>
<path d="M172.8,510.9c0,0,1.7,0.4,4.5,1.1c1.4,0.4,3.2,0.7,5.2,1.1c1,0.2,2.1,0.4,3.2,0.6c1.1,0.2,2.3,0.4,3.6,0.6
	c2.5,0.5,5.2,0.8,8.1,1.2c1.4,0.2,2.9,0.4,4.4,0.5s3.1,0.4,4.6,0.5c3.2,0.2,6.4,0.5,9.7,0.6c3.3,0.2,6.7,0.2,10.1,0.3
	c3.4-0.1,6.8,0,10.1-0.2c3.3-0.1,6.6-0.4,9.7-0.6c1.6-0.1,3.1-0.3,4.6-0.5c1.5-0.1,3-0.3,4.4-0.5c2.9-0.4,5.6-0.7,8.1-1.2
	c1.3-0.2,2.5-0.4,3.6-0.6c1.1-0.2,2.2-0.4,3.2-0.6c2-0.4,3.8-0.7,5.2-1.1c2.9-0.6,4.6-1,4.6-1s-1.6,0.5-4.5,1.4
	c-1.4,0.5-3.2,0.9-5.2,1.4c-1,0.3-2.1,0.5-3.2,0.8c-1.1,0.2-2.3,0.5-3.6,0.8c-1.3,0.3-2.5,0.6-3.9,0.8s-2.8,0.5-4.2,0.7
	c-1.4,0.3-2.9,0.5-4.5,0.7c-1.5,0.2-3.1,0.4-4.7,0.6c-3.2,0.3-6.5,0.7-9.8,0.8c-3.3,0.2-6.8,0.2-10.2,0.3c-3.4-0.1-6.8-0.1-10.2-0.3
	c-3.4-0.1-6.6-0.5-9.8-0.8c-1.6-0.2-3.1-0.4-4.7-0.6c-1.5-0.2-3-0.4-4.4-0.7s-2.8-0.5-4.2-0.7c-1.4-0.2-2.6-0.6-3.9-0.8
	c-1.2-0.3-2.4-0.5-3.6-0.8c-1.1-0.3-2.2-0.6-3.2-0.9c-2-0.5-3.7-1-5.2-1.5C174.5,511.5,172.8,510.9,172.8,510.9L172.8,510.9z
	 M204.2,489.3c0,0,0.8,0.1,2.3,0.2c1.5,0.1,3.6,0.3,6.1,0.5c1.3,0.1,2.6,0.2,4.1,0.3c1.4,0.1,3,0.1,4.6,0.2c1.6,0.1,3.2,0.1,4.9,0.1
	c1.7,0.1,3.3,0,5,0s3.4,0,5-0.1c1.7,0,3.3-0.1,4.9-0.2c1.6-0.1,3.1-0.2,4.6-0.3c1.4-0.1,2.8-0.2,4.1-0.3c2.5-0.2,4.6-0.4,6.1-0.6
	c1.5-0.1,2.3-0.2,2.3-0.2s-0.8,0.2-2.3,0.6c-0.7,0.2-1.6,0.4-2.6,0.6c-1,0.2-2.2,0.5-3.4,0.7c-2.5,0.5-5.5,0.9-8.7,1.2
	c-1.6,0.1-3.2,0.3-4.9,0.4c-1.7,0.1-3.4,0.1-5.1,0.2c-1.7,0-3.4,0-5.1-0.1c-1.7,0-3.3-0.2-4.9-0.3s-3.1-0.3-4.6-0.5
	s-2.8-0.4-4.1-0.6c-1.3-0.2-2.4-0.4-3.4-0.7c-1-0.2-1.9-0.4-2.6-0.6C205.1,489.5,204.2,489.3,204.2,489.3L204.2,489.3z M111.1,526.9
	c0,0,0.9,0.2,2.6,0.7c0.4,0.1,0.9,0.2,1.4,0.4c0.5,0.1,1.1,0.2,1.7,0.3c1.2,0.2,2.6,0.6,4.2,0.8c1.6,0.3,3.4,0.6,5.3,0.9
	c1.9,0.3,4,0.6,6.3,0.9c2.2,0.3,4.6,0.6,7.1,0.9c2.5,0.3,5.2,0.6,7.9,0.9c5.5,0.6,11.5,1.2,17.8,1.7c6.3,0.6,13,1,19.9,1.6
	c6.9,0.5,14.1,1,21.3,1.3c7.3,0.2,14.7,0.2,22,0c7.4-0.1,14.8-0.4,22-0.7c7.3-0.3,14.4-0.7,21.3-1.2s13.6-0.9,19.9-1.5
	c6.3-0.5,12.3-1.1,17.8-1.7c2.8-0.3,5.4-0.6,7.9-0.9c2.5-0.3,4.9-0.6,7.1-0.8c4.5-0.5,8.4-1,11.6-1.5c6.4-0.9,10.1-1.4,10.1-1.4
	s-0.9,0.2-2.6,0.5s-4.2,0.8-7.4,1.3c-3.2,0.6-7.1,1.2-11.5,1.9c-4.5,0.7-9.5,1.4-15,2.1c-5.5,0.7-11.5,1.4-17.8,2
	c-6.3,0.7-13,1.3-19.9,1.7c-6.9,0.5-14.1,1-21.4,1.3c-7.3,0.4-14.7,0.7-22.1,0.8s-14.8,0-22.1-0.2c-7.3-0.3-14.5-0.9-21.4-1.4
	c-13.8-1.1-26.7-2.5-37.8-3.9c-2.8-0.4-5.4-0.7-7.9-1c-2.5-0.4-4.9-0.7-7.1-1.1c-2.2-0.4-4.3-0.7-6.2-1.1c-1.9-0.4-3.7-0.7-5.3-1
	s-3-0.7-4.2-1c-0.6-0.2-1.2-0.3-1.7-0.4c-0.5-0.2-1-0.3-1.4-0.4C112,527.1,111.1,526.9,111.1,526.9L111.1,526.9z"/>
<path class="st3" d="M354,123.5c0,0-4.5-32.3-5.5-48.6c-0.5-8.2-0.6-16.4-0.7-24.6c-0.1-6.5,0.3-11.3-7.3-16
	c-7.5-4.6-17.3-7.6-27.4-8.5c-7.3-0.6-14.9-0.1-22-1.5c-4.5-0.9-8.6-2.5-13-3.7c-10.3-2.9-21.8-3.8-32.8-2.5
	c-11.1,1.3-21.8,4.8-33,4c-5.9-0.4-11.6-2.1-17.6-2.3c-16.4-0.5-29.1,9.7-45,12.5c-4.9,0.9-10.1,1-15.1,1.9s-9.9,2.7-12.1,5.8
	c-2.5,3.5-1.6,6.3,0.2,10.3c2.1,8.3,0.6,11.6,0.2,18.9c-1,17.4-6,37.1-10.9,53.4C192.3,125.6,274.5,114.9,354,123.5"/>
<path class="st4" d="M368.5,220.8c-1.7-22.9-5.5-45-11-67.6c-2.5-10.5-4.6-21-6.3-31.4c-79.4-8.5-161.5,2.1-241.9-0.8h-0.2
	c-8,28.1-16.5,56.3-19.6,84.7c-4.2,40,4.7,78.6,35.6,112.9c12.7,14.1,25,25.2,41.9,37.2c10.6,7.5,22.8,14.6,37.8,16.9
	c26.9,4.2,58.2-1.8,79.8-13.3C344.2,327.5,372.2,270.5,368.5,220.8L368.5,220.8z"/>
<path class="st4" d="M167,355.7c10.6,7.5,22.8,14.6,37.8,16.9c26.9,4.2,58.2-1.8,79.8-13.3c59.6-31.8,87.5-88.8,83.8-138.5
	c-1.7-22.9-5.5-45-11-67.6c-2.5-10.5-4.6-21-6.3-31.4c-79.4-8.5-161.5,2.1-241.9-0.8H109c-8,28.1-16.5,56.3-19.6,84.7
	c-4.2,40,4.7,78.6,35.6,112.9C137.9,332.6,150.2,343.8,167,355.7L167,355.7z"/>
<path class="st0" d="M358.4,41.6c-5.7,57.8,9.2,96.6,19,145.3c9.2,45.8,10.4,92.5-24.4,133.9c-11,13.1-18.7,19.1-39.2,35.7
	c-11.8,9.6-25.9,16.9-37.5,26.6c-5.2,4.4-9.1,9.5-12.2,14.7c-12.8,22.5-9.3,40.7-7.7,67.4c1.1,20,24.1,39.3,51.8,46.2
	c14.9,3.7,29.7,8.5,45.5,9.4c8.6,0.5,9.2,5.1,6.9,8.3c-1.4,1.9-4.9,6.6-7.9,7.1c-51.9,8.9-103.1,11.7-156.5,10.5
	c-30.3-0.6-85.7-4.4-97.8-11.2c-4.2-2.3-4.7-9.5-0.8-12c2.4-1.6,8.3-1.5,11.6-1.8c32.7-3.3,66.5-11.6,84.1-30.7
	c14.9-16.1,12.9-33.6,10.9-55.4c-1.6-16.9-3.4-38.7-21-51.8c-6.2-4.6-51.8-36.6-63.1-50.9c-18.2-23-33.6-47.4-39.8-73.2
	c-17.3-72.6,39.8-146,25.1-218.8C187.3,33.5,276.4,34.6,358.4,41.6L358.4,41.6z"/>
<path d="M120.1,48.4c0,0,0,0.2,0.1,0.6c0.1,0.4,0.2,0.9,0.4,1.7c0.3,1.5,0.6,3.8,0.6,6.7c0,3-0.2,6.6-0.7,10.9
	c-0.5,4.3-1.3,9.1-1.7,14.6c-0.5,5.6-2.1,11.5-3.7,18s-3.5,13.4-5.6,20.9c-2,7.4-4.2,15.3-6.5,23.6c-2.2,8.3-4.6,17.1-6.6,26.3
	c-2.1,9.2-3.9,18.9-5.2,29c-0.3,2.5-0.6,5-0.8,7.6s-0.5,5.2-0.5,7.8c-0.1,1.3-0.1,2.6-0.2,3.9v8c0.1,1.3,0.1,2.7,0.2,4
	c0.6,10.8,2.3,21.8,5.7,32.6c3.3,10.8,8.1,21.4,14.3,31.4l1.1,1.9l1.2,1.8c0.8,1.2,1.7,2.4,2.5,3.7c0.8,1.2,1.7,2.4,2.6,3.6
	c0.9,1.2,1.8,2.4,2.7,3.5c1.9,2.3,3.9,4.5,5.8,6.8c2,2.2,4.1,4.5,6.2,6.6c8.4,8.8,17.6,16.9,27.4,24.4c4.9,3.7,10,7.4,15.2,10.7
	s10.7,6.2,16.5,8.3c2.9,1.1,5.8,2,8.8,2.7l2.3,0.5l2.3,0.4c1.5,0.2,3.1,0.4,4.6,0.6c6.2,0.7,12.4,0.9,18.7,0.6
	c12.5-0.5,24.9-2.6,36.8-6.3c5.9-1.9,11.7-4.1,17.2-6.9l2-1l2-1.2l4.1-2.3l4.1-2.3c1.3-0.8,2.6-1.7,3.9-2.5l3.8-2.6l1.9-1.3l1-0.6
	l0.9-0.7l7.2-5.7c1.2-0.9,2.3-2,3.5-3l3.4-3.1l1.7-1.5c0.6-0.5,1.1-1,1.6-1.6l3.2-3.3c8.4-8.7,15.8-18.1,21.7-28.3
	c6-10.1,10.6-20.7,14-31.5s5.1-21.8,5.6-32.5c0.1-1.3,0.1-2.7,0.2-4c0-1.3-0.1-2.7-0.1-4c-0.1-2.7-0.1-5.3-0.4-7.9
	c-0.4-5.2-0.9-10.4-1.5-15.5c-1.2-10.1-2.8-19.8-4.6-29.1c-0.9-4.6-1.9-9.2-2.8-13.6c-1-4.4-2-8.7-3-12.9
	c-1.8-8.5-3.3-16.5-4.5-24.2c-2.4-15.2-3.7-28.6-4.4-39.7c-0.8-11-0.9-19.7-1-25.7c-0.1-3,0-5.2-0.1-6.8v-2.3v2.3
	c0,1.5,0.1,3.8,0.2,6.8c0.2,5.9,0.6,14.6,1.4,25.6c0.9,11,2.3,24.4,4.9,39.5c1.3,7.6,2.9,15.6,4.8,24c2,8.4,4.2,17.2,6.1,26.5
	s3.6,19.1,4.9,29.2c0.7,5.1,1.2,10.3,1.7,15.5c0.3,2.6,0.3,5.3,0.4,8c0.1,1.3,0.1,2.7,0.2,4.1c0,1.4-0.1,2.7-0.2,4.1
	c-0.4,10.9-2,22.2-5.4,33.2c-3.3,11-8.1,21.8-14.1,32.1c-6,10.4-13.5,20-22,28.8s-18,16.9-28.6,23.8c-1.3,0.9-2.6,1.8-3.9,2.6
	l-4,2.3l-4.1,2.4l-2,1.2l-2.2,1.1c-5.7,2.9-11.6,5.2-17.7,7.1c-12.1,3.8-24.8,6.1-37.6,6.6c-6.4,0.2-12.8,0-19.2-0.7
	c-1.6-0.2-3.1-0.4-4.7-0.6l-2.4-0.4l-2.4-0.5c-3.1-0.7-6.2-1.7-9.2-2.8c-6-2.3-11.7-5.3-17-8.6c-5.4-3.4-10.4-7.1-15.4-10.9
	c-9.9-7.6-19.2-15.9-27.7-24.8c-2.1-2.2-4.2-4.5-6.2-6.7c-2-2.3-4-4.6-5.9-7c-0.9-1.2-1.8-2.4-2.8-3.6c-0.9-1.2-1.9-2.4-2.7-3.6
	s-1.7-2.5-2.5-3.7c-0.4-0.6-0.9-1.2-1.3-1.9l-1.2-1.9c-6.3-10.2-11.1-21-14.4-32c-3.3-11-5-22.2-5.5-33.1c-0.1-1.4-0.1-2.7-0.2-4.1
	V220c0.1-1.3,0.1-2.7,0.2-4c0.1-2.7,0.3-5.3,0.6-7.9c0.2-2.6,0.6-5.2,0.9-7.7c1.3-10.2,3.3-19.9,5.4-29.1
	c4.3-18.5,9.5-35.1,13.7-49.9c2.2-7.4,4.1-14.3,5.8-20.8c1.7-6.4,3.3-12.3,3.9-17.8c0.5-5.5,1.4-10.4,1.9-14.6
	c0.6-4.2,0.9-7.9,0.9-10.8c0-3-0.2-5.2-0.5-6.7c-0.1-0.8-0.3-1.3-0.3-1.7C120.1,48.6,120.1,48.4,120.1,48.4L120.1,48.4z"/>
<path d="M109.3,120.9h15.9c2,0,4.2-0.1,6.5-0.1s4.8-0.1,7.3-0.1c2.6-0.1,5.3-0.1,8.1-0.2c5.7-0.1,11.8-0.3,18.3-0.5
	s13.3-0.5,20.4-0.7c7.1-0.3,14.4-0.5,21.9-0.8c7.4-0.3,15-0.5,22.6-0.8c7.6-0.2,15.1-0.4,22.6-0.5c7.5-0.2,14.8-0.1,21.9-0.2
	c3.6,0,7,0.1,10.5,0.1c3.4,0.1,6.8,0.1,10,0.2c3.3,0.1,6.4,0.2,9.5,0.3c3.1,0.1,6,0.3,8.9,0.5c2.8,0.2,5.6,0.3,8.1,0.5
	c2.6,0.2,5,0.4,7.3,0.6s4.5,0.4,6.4,0.6c2,0.2,3.8,0.4,5.5,0.6c3.3,0.4,5.9,0.7,7.6,0.9l2.7,0.3c0,0-3.8-0.2-10.4-0.7
	c-1.7-0.1-3.5-0.3-5.5-0.4s-4.1-0.2-6.5-0.3c-2.3-0.1-4.8-0.2-7.3-0.3c-2.6-0.1-5.3-0.1-8.1-0.2s-5.8-0.2-8.8-0.2
	c-3.1,0-6.2-0.1-9.5-0.1c-3.2-0.1-6.6,0-10,0s-6.9,0-10.4,0.1c-7.1,0.1-14.4,0.2-21.9,0.4c-7.4,0.1-15,0.4-22.6,0.6
	s-15.1,0.5-22.6,0.7c-7.4,0.2-14.8,0.4-21.9,0.6c-7.1,0.1-14,0.3-20.5,0.3h-9.5c-3.1,0-6-0.1-8.9-0.1c-2.8,0-5.6,0-8.2-0.1
	s-5-0.2-7.4-0.2c-2.3-0.1-4.5-0.1-6.5-0.2s-3.8-0.2-5.5-0.3C113.1,121.1,109.3,120.9,109.3,120.9L109.3,120.9z M347.5,45.7
	c0,0,0-1-0.1-2.9c-0.1-0.9-0.1-2.1-0.4-3.4c-0.3-1.3-0.7-2.8-1.6-4.3c-0.9-1.4-2.3-2.8-4-4s-3.8-2.3-6-3.3c-4.4-2-9.7-3.8-15.6-4.9
	c-3-0.6-6-0.9-9.3-1.1c-3.2-0.2-6.6-0.2-10.1-0.3s-7.1-0.2-10.8-0.9c-3.7-0.7-7.3-1.9-10.9-3c-7.2-2.2-14.8-3.5-22.6-3.7
	c-3.9-0.1-7.9,0-11.8,0.5c-4,0.4-7.9,1.2-11.9,1.9s-8,1.5-12.1,1.9c-4.1,0.5-8.2,0.6-12.3,0.2c-4.1-0.4-8-1.3-11.8-1.8
	c-3.8-0.6-7.5-0.7-11.2-0.2s-7.2,1.4-10.6,2.5s-6.7,2.4-10,3.7c-6.5,2.6-12.8,4.9-18.9,5.8c-6.1,0.9-11.7,1-16.5,1.9
	c-2.4,0.4-4.6,1.1-6.5,1.9c-1.9,0.9-3.5,2-4.5,3.3c-1,1.4-1.6,2.8-1.6,4.2c-0.1,1.3,0.2,2.5,0.5,3.4s0.6,1.6,0.7,2
	c0.2,0.4,0.3,0.7,0.3,0.7s-0.1-0.2-0.4-0.7c-0.2-0.4-0.6-1.1-0.9-2c-0.3-0.9-0.7-2-0.8-3.5c0-1.4,0.5-3.1,1.5-4.6
	c1.1-1.6,2.7-2.8,4.7-3.8s4.2-1.7,6.7-2.3c4.9-1.1,10.5-1.3,16.4-2.3c5.9-1.1,12-3.4,18.4-6.1c6.4-2.7,13.3-5.7,21.1-6.8
	c3.9-0.5,7.9-0.5,11.9,0c3.9,0.5,7.8,1.4,11.6,1.7c7.7,0.8,15.6-0.7,23.6-2.2c4-0.7,8-1.5,12.1-1.9s8.2-0.6,12.2-0.4
	c8.1,0.2,16.1,1.7,23.4,4c3.6,1.2,7.1,2.4,10.6,3c3.5,0.7,7,0.9,10.5,1.1c3.5,0.2,6.8,0.2,10.2,0.5c3.3,0.3,6.5,0.7,9.5,1.3
	c6,1.3,11.4,3.1,15.8,5.5c2.2,1.2,4.2,2.3,6,3.7c1.7,1.3,3.1,2.8,4.1,4.4c0.9,1.6,1.3,3.2,1.5,4.6c0.2,1.4,0.2,2.6,0.1,3.5
	C347.5,44.7,347.5,45.7,347.5,45.7L347.5,45.7z"/>
</svg>
