<svg id="Layer_1" xmlns="http://www.w3.org/2000/svg" viewBox="0 0 460 318.4"><style>.st0,.st1{fill:none}.st1{stroke:#000;stroke-width:5;stroke-miterlimit:10}.st2{opacity:.9;fill:url(#SVGID_1_);enable-background:new}.st3{fill:#f1f1f1}</style><path class="st0" d="M0-386.6h460v705H0v-705z"/><path class="st1" d="M6588.6-952.2c.3 38.5.2 82.4-5.7 120.5-2.3 14.7-3.7 31.7-10.6 44.9-9.4 17.9-18.6 35.9-34 49.5-5.5 4.9-11.5 9.2-17.9 12.8-4.2 2.3-15.3 5.1-15.9 10.8-.4 3.6 3.8 5.7 6.9 7.6 6.9 4.3 10.9 12.3 11.6 20.4 1.5 15.4-5.6 30.7-18.9 38.8-.8.5-1.6 1-1.9 1.8-.7 2.1 2.1 3.4 4.2 3.8 12.1 2.1 24 5 35.7 8.7 7.7 2.4 24.3 10.6 12 18.5-7.7 4.9-17 6.2-26 7.3-24.7 3.1-49.7 6.2-74.5 3.9-5.6-.5-11.2-1.4-16.8-2.2l-22.5-3.3c-5.3-.8-11.8-2.7-12.7-7.9-1.7-10.2 16.6-15.1 23.6-17.2 4.9-1.5 36.5-4.6 35.6-9.3-.5-2.4-2.8-3.9-4.8-5.4-8.9-6.4-15-16.4-16.6-27.2s1.3-22.2 7.9-30.9c2.2-2.9 4.9-6 4.4-9.6-.2-1.5-1-2.9-2-4.1-5.1-6.7-15.9-9.5-22.8-14.7-7.9-6-15.2-12.8-21.6-20.4-12.5-14.5-22.1-31.5-27.6-49.9-5.2-17.2-6.9-35.3-8.2-53.2-2.3-31-3.6-62-3.8-93.1 20.2-2.4 42-1.8 62.4-1.4 52.8 1.1 160.5-1.6 160.5.5z"/><path d="M6462-637.3v1.9c0 .6.1 1.3.6 1.9.4.6 1.2.8 2.2.8 2.1-.1 4.5-.2 7.1-.2 1.3 0 2.7-.1 4-.1 1.4-.1 2.8-.1 4.1-.2 1.4-.1 2.8-.1 4.1-.2 1.4-.1 2.7-.1 4-.2 2.6-.1 5-.2 7.1-.3 2-.1 3.7-.6 4.6-1.3.4-.4.7-.8.8-1.1.1-.3.2-.5.2-.5v.5c-.1.3-.2.8-.6 1.3s-1.1 1-1.9 1.4c-.8.4-1.8.7-2.8.8-2.1.4-4.5.7-7.1.9-1.3.1-2.7.3-4 .4-1.4.1-2.8.2-4.2.2-1.4 0-2.8.1-4.2.1h-4.1c-2.6-.1-5.1-.2-7.2-.4-.5-.1-1.1-.1-1.6-.4-.5-.3-.9-.7-1.1-1.1-.4-.9-.4-1.7-.3-2.3.1-.6.2-1.1.3-1.4-.1-.3 0-.5 0-.5zm-.4-84.6s.6.2 1.6.5c.5.2 1.2.3 1.9.5s1.6.4 2.4.5c.9.2 1.9.3 2.9.5 1 .1 2.1.2 3.3.3 1.1.1 2.3.1 3.5.2h3.6c1.2 0 2.5 0 3.7-.1 1.2 0 2.4-.1 3.6-.1 2.3-.1 4.5-.1 6.3-.3s3.2-.6 4.1-1.2c.4-.3.8-.6 1-.8l.3-.3s-.1.1-.2.4c-.2.3-.4.6-.8 1-.8.8-2.3 1.6-4.2 2-.9.2-2 .4-3 .5-1.1.1-2.2.3-3.3.4l-3.6.3c-1.2.1-2.5.1-3.7.2-1.3 0-2.5 0-3.7-.1-.6 0-1.2-.1-1.8-.1-.6-.1-1.2-.1-1.8-.2-1.2-.1-2.3-.4-3.4-.6-.5-.1-1-.3-1.5-.4-.5-.2-1-.3-1.4-.4-1.8-.6-3.2-1.3-4.2-1.8-1-.6-1.6-.9-1.6-.9zm-50.1 102.1l.3.3c.2.2.5.4 1 .6.9.5 2.3 1 4.2 1.4 1.9.4 4.2.7 6.8 1.1 2.6.4 5.6.7 8.9 1.1 3.3.3 6.8.7 10.6 1 3.7.3 7.7.5 11.8.7 8.2.3 17 .5 25.7.6 4.4.1 8.8.1 13.1.2 4.3 0 8.5.1 12.6 0s8-.4 11.7-.8c3.7-.5 7.2-1.1 10.4-1.7 6.4-1.4 11.6-3 15.2-4.3 1.8-.7 3.2-1.2 4.2-1.6l1.5-.6s-.5.2-1.4.7c-.9.4-2.3 1.1-4.1 1.8-3.5 1.5-8.7 3.5-15.1 5.1-6.4 1.6-14.1 2.9-22.3 3.2-4.1.2-8.4.2-12.7.2-4.3 0-8.7-.1-13.1-.1-4.4-.1-8.8-.2-13.1-.3-4.3-.1-8.6-.4-12.7-.6-4.1-.3-8.1-.6-11.8-1-3.8-.4-7.3-.8-10.6-1.3-1.6-.3-3.2-.5-4.7-.7-1.5-.3-2.9-.5-4.2-.8-2.6-.5-4.9-1-6.8-1.5s-3.3-1.1-4.1-1.7c-.4-.3-.7-.5-.9-.7-.3-.2-.4-.3-.4-.3z"/><linearGradient id="SVGID_1_" gradientUnits="userSpaceOnUse" x1="6378.8" y1="-1337.377" x2="6584.7" y2="-1337.377" gradientTransform="translate(0 507)"><stop offset=".018" stop-color="#801fe3"/><stop offset="1" stop-color="#b7a7ff"/></linearGradient><path class="st2" d="M6378.8-924c1.4 24.4 2.7 48.8 4.1 73.2.4 7.9.9 15.9 2.2 23.7 1.8 11.1 5.4 21.8 8.9 32.5 3 9.1 6 18.2 11.1 26.3 17.8 28.1 51.5 32.7 81.9 31.3 10.6-.5 21.3-1.5 31.5-4.7 66.9-21.3 65.2-117 66.1-172.7 0-2.6.1-5.1.1-7.7-68.7 2.2-137.5 4-205.9-1.9z"/><path d="M6373.7-943.7s.6 8.1 1.5 22.2c.5 7.1 1 15.6 1.7 25.5.6 9.8 1.4 20.9 2.1 33.1.4 6.1.7 12.4 1.3 18.9.5 6.5 1.4 13.2 3 19.9s3.7 13.5 6 20.4c2.4 6.9 4.5 14 7.5 20.9.8 1.7 1.5 3.4 2.4 5.1.9 1.6 1.8 3.3 2.8 4.8 1.1 1.6 2.2 3.1 3.4 4.7 1.2 1.4 2.5 2.8 3.7 4.3 5.3 5.5 11.7 10 18.8 13.2 7.1 3.3 14.8 5.4 22.6 6.6 7.9 1.3 15.9 1.7 23.9 1.7 8-.1 16.1-.4 24-1.5 3.9-.5 7.9-1.2 11.7-2.2 1-.3 1.9-.5 2.8-.8l.7-.2h.1l.2-.1.4-.1 1.4-.5 2.8-1c.5-.2.9-.3 1.4-.5l1.3-.6c7.1-3.1 13.7-7.4 19.4-12.5 5.7-5.1 10.5-11.1 14.4-17.5 4-6.3 7.1-13.1 9.7-19.8 2.6-6.8 4.6-13.6 6.3-20.3 3.2-13.5 5-26.5 6.2-38.5 1.1-12.1 1.7-23.2 2-33 .3-9.9.5-18.4.7-25.5.2-14.2.4-22.2.4-22.2s0 2 .1 5.8c0 3.8.1 9.4.2 16.4 0 7.1 0 15.7-.2 25.5-.1 9.9-.5 21-1.5 33.1-1 12.1-2.6 25.2-5.7 38.9-1.6 6.8-3.6 13.7-6.1 20.6-2.5 6.9-5.7 13.8-9.8 20.3-4 6.5-9 12.7-14.8 18.1-5.9 5.4-12.7 9.8-20.2 13.1l-1.4.6c-.5.2-.9.4-1.4.5l-2.8 1-1.4.5-.4.1-.2.1-.2.1-.7.2c-1 .3-2 .6-2.9.8-3.9 1-8 1.8-12 2.4-8.1 1.1-16.2 1.5-24.4 1.6-8.2 0-16.3-.5-24.4-1.8-8-1.3-16-3.5-23.3-7-7.4-3.4-14.1-8.1-19.6-13.9-1.3-1.5-2.6-3.1-3.9-4.6-1.1-1.6-2.2-3.2-3.3-4.7-2.2-3.4-3.9-6.8-5.4-10.4-3-7.1-5.2-14.2-7.5-21.2-2.2-7-4.3-13.9-5.8-20.7-1.6-6.9-2.4-13.6-2.8-20.2-.5-6.6-.7-12.9-1-18.9-.6-12.1-1.1-23.2-1.6-33.1s-.8-18.4-1.2-25.5c-.7-14.2-1-22.2-1-22.2z"/><path d="M6374.1-928.3s.8 0 2.4.1 3.8.2 6.7.3c2.9.2 6.4.3 10.5.5 4 .2 8.6.3 13.6.5s10.4.3 16.1.5 11.7.2 17.9.4c6.2.1 12.6.1 19.2.2 6.5.1 13.2 0 19.8.1 6.6 0 13.3 0 19.8-.1s13-.1 19.2-.2c12.5-.1 24.1-.2 34-.3 10-.1 18.3-.1 24.1-.1h9.1s-.8.1-2.4.2c-1.6.1-3.8.2-6.7.4-5.8.3-14.1.8-24.1 1.3s-21.6.9-34 1.3c-6.2.1-12.7.4-19.2.4-6.5.1-13.2.1-19.8.2-6.6 0-13.3 0-19.8-.2-6.5-.1-13-.3-19.2-.4-6.2-.2-12.3-.4-18-.8-2.9-.2-5.6-.3-8.3-.5-2.7-.2-5.3-.4-7.8-.5-2.5-.2-4.9-.3-7.1-.5-2.3-.2-4.4-.4-6.4-.6-4-.4-7.6-.7-10.4-1-2.9-.3-5.2-.6-6.7-.7-1.7-.4-2.5-.5-2.5-.5z"/><path class="st3" d="M325.2 249.4c3.9-5.5 3.1-12.7 4-19.3 6-44.3 6.5-76.4 17.7-113 4.3-14 10.2-27.9 10.9-42.6.3-7.4.7-14.9 1-22.3-20.6-.1-41.1-.3-61.7-.4-18.4-.1-36.7-.2-55.1-.4-42.9-.3-85.8-.6-128.7-.8h-.9c.8 11.9 1.4 23.8 1.4 35.8 0 5-.1 10.1 1.3 14.9 1.3 4.4 3.8 8.3 5.5 12.5 2.9 7 3.6 14.6 4.3 22.1 1.9 20.5 3.8 41 5.7 61.6 1.3 14.4 3 29.7 11.6 41.3 16.4 22 43.6 22.2 68.4 24.1 31 2.5 62.3 1.3 93.1-3.6 8-1.3 16.8-3.3 21.5-9.9z"/><path class="st1" d="M205.7 315.4c23.5-1.3 49.1-1.9 72.6-1.5l25.5-5.7c2.4-.5 4.8-1.1 7.2-1.6 5.1-1.2 11.1-2 16-4 5.3-2.2 4.2-3.9 4.4-9.9.4-10 1-20.1 1.7-30.1 1.5-20.3 3.5-40.6 6.1-60.8 5.1-39.7 10.3-75.7 18.9-114.8 5.3-24.1 4.8-53.1 6.2-77.7.1-2.1-252.5-2.4-268.5-2.1-.5 17.1 2.7 55.7 3.6 63.2 3.8 30.1 12.3 82.4 16.8 112.4 5.6 37.7 6.5 76.1 14.2 113.5.3 1.5.6 3 1.6 4.1.7.9 1.6 1.5 2.6 2 10.7 6.5 21.7 8 33.9 9 9.5.7 34.3 4.2 37.2 4z"/><path d="M355.6 21.7s-.4 10.4-1 28.7c-.3 9.1-.8 20.2-1.3 33-.3 6.4-1.7 13.1-3.6 20s-4.5 14-6.8 21.4c-2.3 7.5-4.3 15.4-5.9 23.6-1.7 8.2-3 16.9-4.2 25.7-2.3 17.8-3.8 36.6-6.3 56.1-.3 2.4-.6 4.9-.9 7.3l-.2 1.8-.2 1.8c-.1 1.2-.2 2.5-.3 3.7-.2 2.5-.4 5.1-1.1 7.6-.3 1.3-.8 2.6-1.5 3.8-.3.6-.7 1.2-1.1 1.8-.5.6-.7 1-1.2 1.6-3.7 4.2-8.9 6.2-13.9 7.5-2.5.6-5.1 1.1-7.6 1.5s-5.1.8-7.6 1.1c-20.4 2.9-41.4 4.1-62.4 3.7-5.2-.1-10.5-.3-15.7-.7-5.2-.3-10.4-.8-15.6-1.2-10.4-.8-20.8-1.7-30.9-4.5-5-1.4-10-3.3-14.5-5.9-4.5-2.6-8.6-5.9-12.2-9.7l-2.5-3-.6-.7c-.1-.1-.2-.2-.3-.4l-.3-.4-1.1-1.5c-1.4-2.2-2.7-4.5-3.7-6.8-2.1-4.7-3.4-9.6-4.4-14.4-.9-4.9-1.5-9.7-2-14.5s-.9-9.5-1.3-14.2c-.8-9.4-1.6-18.6-2.4-27.5-.8-8.9-1.5-17.6-2.3-26-.4-4.2-.8-8.3-1.7-12.2-.8-3.9-2.1-7.6-3.9-11.1-1.7-3.5-3.6-7-4.4-10.8-.8-3.8-.9-7.5-.8-11.1.1-7.1 0-13.9-.2-20.2-.5-12.7-1.2-23.8-1.7-32.9s-.8-16.3-.9-21.2c-.1-2.4-.1-4.3-.1-5.6V15s0 .7.1 1.9c0 1.3.1 3.1.2 5.6.2 4.9.7 12.1 1.3 21.2s1.6 20.2 2.2 32.9c.3 6.4.5 13.2.6 20.3 0 3.6.1 7.2.9 10.7.8 3.6 2.6 6.9 4.3 10.4 1.8 3.5 3.2 7.4 4.1 11.5.9 4 1.4 8.2 1.8 12.4.8 8.4 1.7 17.1 2.5 26 .9 8.9 1.8 18.1 2.7 27.5 1 9.4 1.5 19 3.4 28.5 1 4.7 2.2 9.4 4.2 13.9 1 2.2 2.2 4.3 3.4 6.3l1.1 1.5.3.4c0 .1.2.2.3.3l.6.7 2.3 2.8c3.4 3.6 7.3 6.6 11.6 9.1s9 4.3 13.9 5.6c9.8 2.7 20.1 3.6 30.4 4.3 5.2.4 10.4.8 15.6 1.1s10.4.5 15.6.6c20.8.5 41.7-.7 61.9-3.5 2.5-.3 5.1-.7 7.6-1.1 2.5-.4 5-.8 7.4-1.4 2.4-.6 4.7-1.4 6.9-2.4s4.1-2.5 5.6-4.1c3.3-3.5 4-8.3 4.3-13.2.1-1.2.2-2.5.3-3.7l.2-1.9.2-1.9c.3-2.4.6-4.9 1-7.3 2.4-19.4 4.2-38.3 6.7-56.1 1.2-8.9 2.7-17.6 4.5-25.8 1.8-8.3 3.9-16.2 6.2-23.7 2.4-7.5 5-14.5 7-21.3s3.5-13.4 3.9-19.7c.7-12.7 1.3-23.8 1.8-32.9 1.1-18.4 1.7-28.8 1.7-28.8z"/><path d="M119.6 124.8s.1-.2.2-.6c.1-.4.4-.9.7-1.6.7-1.4 1.9-3.4 4-5.5s5-4.3 8.7-6.1c.9-.5 1.9-.9 2.9-1.3 1.1-.4 2.1-.7 3.2-1 2.3-.5 4.7-1 7.2-1.2 1.3-.1 2.6-.1 3.9-.1 1.3.1 2.7.1 4 .3 1.4.1 2.7.4 4.1.7 1.4.4 2.8.7 4.2 1.2 5.6 1.8 11 5.1 15.6 9.7.5.6 1.1 1.2 1.6 1.8l.8.9.7 1c.5.7 1 1.3 1.5 2 .4.7.9 1.4 1.3 2.1l.7 1.1.6 1.1c.4.7.8 1.5 1.2 2.2.3.8.7 1.5 1 2.3l.5 1.2.4 1.2.8 2.4.7 2.4.4 1.2.3 1.2.6 2.5c.6 3.3 1.2 6.7 1.6 10 .7 6.7.9 13.5.9 20.1.1 6.6.1 13.1.2 19.4.1 12.6.1 24.3.1 34.4 0 10.1-.1 18.5-.1 24.3 0 5.9-.1 9.2-.1 9.2s-.1-3.4-.3-9.2c-.2-5.9-.5-14.3-.7-24.3-.2-10.1-.6-21.8-.7-34.4-.1-6.3-.2-12.8-.3-19.4-.1-6.6-.3-13.3-1.1-19.9-.3-3.3-.9-6.6-1.5-9.8l-.6-2.4-.3-1.2-.3-1.2-.7-2.4-.8-2.3-.4-1.1-.2-1.3c-.3-.7-.6-1.5-.9-2.2-.4-.7-.7-1.4-1.1-2.1l-.6-1.1-.6-1c-.4-.7-.8-1.3-1.2-2-.5-.6-.9-1.3-1.4-1.9l-.7-.9-.8-.9c-.5-.6-1.1-1.2-1.6-1.8-4.3-4.3-9.5-7.6-14.8-9.5-1.3-.5-2.7-.9-4-1.2-1.3-.3-2.7-.6-4-.8-1.3-.2-2.6-.3-3.9-.4-1.3 0-2.6-.1-3.8 0-2.5.1-4.8.5-7 1-1.1.3-2.2.6-3.2.9s-2 .7-2.9 1.1c-3.7 1.6-6.6 3.7-8.7 5.7-2.1 2-3.4 4-4.2 5.3-.4.7-.7 1.2-.8 1.6l-.3.6zm71.8 19.1s.2-.9.5-2.7c.3-.8.6-1.9 1-3.1.3-.6.6-1.2.9-1.9s.8-1.3 1.2-2c1.7-2.8 4.4-5.9 8-8.8 3.6-2.9 8.2-5.6 13.4-7.9 5.2-2.3 11.1-4.3 17.4-5.7 3.2-.7 6.5-1.2 10-1.5 3.4-.3 7-.2 10.6.4s7.1 1.8 10.4 3.7c.9.4 1.6 1 2.4 1.6.8.5 1.5 1.2 2.2 1.8.4.3.7.6 1.1 1 .3.3.6.6.9 1 .6.7 1.2 1.5 1.8 2.3 2.2 3.1 3.8 6.7 4.9 10.4s1.8 7.4 2.4 11.2c1 7.6 1.1 15.2 1 22.6-.1 7.4-.4 14.7-.7 21.8-.5 14.1-1.3 27.3-2 38.6s-1.5 20.7-2 27.3c-.6 6.6-.9 10.3-.9 10.3s.2-3.8.5-10.4c.3-6.6.7-16 1.2-27.3s.9-24.5 1.4-38.6c.2-7.1.4-14.4.5-21.8.1-7.4-.1-14.9-1.1-22.3-.5-3.7-1.2-7.4-2.2-10.9-1.1-3.5-2.5-6.9-4.6-9.9-.5-.7-1.1-1.4-1.6-2.1-.3-.3-.6-.7-.9-1s-.6-.6-1-.9c-.7-.6-1.3-1.2-2-1.7s-1.4-1.1-2.2-1.5c-3-1.8-6.4-2.9-9.8-3.5s-6.8-.6-10.2-.5c-3.3.2-6.6.6-9.8 1.3-6.3 1.3-12.1 3.2-17.3 5.4-5.2 2.2-9.7 4.7-13.4 7.4-3.6 2.7-6.4 5.7-8.2 8.4-.4.7-.9 1.3-1.2 2-.3.7-.6 1.3-.9 1.8-.5 1.2-.9 2.2-1.1 3l-.6 2.7z"/><path d="M278.6 140.1s.2-.3.6-.7c.4-.5 1-1.2 1.7-2.2s1.4-2.2 2.2-3.6c.8-1.4 1.6-3.1 2.5-4.9.9-1.8 1.9-3.8 3.3-5.7 1.3-1.9 2.9-3.9 4.8-5.7 1.8-1.8 3.9-3.5 6.3-4.9 2.3-1.5 4.8-2.7 7.4-3.7s5.3-1.6 8-2 5.4-.4 8-.1 5.1 1 7.3 2c1.1.5 2.1 1.1 3 1.8.2.2.4.3.6.5s.4.4.6.5c.4.4.8.7 1.2 1.1 1.4 1.5 2.4 3.2 3.1 4.8.6 1.6.9 3 1 4.2s0 2.1-.1 2.8c-.1.6-.2 1-.2 1s0-.3.1-1v-1.2c0-.5-.1-1-.2-1.5-.2-1.1-.6-2.5-1.3-3.9-.7-1.4-1.8-2.9-3.2-4.3-.4-.3-.7-.7-1.1-1-.2-.2-.4-.3-.6-.5-.2-.1-.4-.3-.7-.4-.9-.5-1.8-1.1-2.9-1.5-2.1-.8-4.4-1.4-6.8-1.6-4.9-.4-10.2.4-15.1 2.3-2.5.9-4.8 2.1-7 3.4-2.2 1.4-4.3 2.9-6.1 4.6-1.8 1.7-3.4 3.5-4.8 5.3s-2.5 3.7-3.5 5.4c-1 1.7-2 3.4-2.9 4.7-.9 1.4-1.8 2.6-2.5 3.5-.8.9-1.4 1.6-1.9 2-.6.3-.8.5-.8.5zM108.3 58.4s1 0 2.8-.1 4.4-.2 7.8-.3c3.4-.1 7.4-.2 12.1-.3 4.7-.1 10-.1 15.7-.2 5.8 0 12 0 18.6.1s13.6.4 20.7.6c7.2.3 14.6.5 22.2.5h11.4c3.8-.1 7.7-.1 11.5-.2s7.7-.2 11.5-.2 7.6-.1 11.4-.1c7.6 0 15-.1 22.2-.1h10.6c3.5 0 6.9 0 10.2.1 6.6.1 12.8.2 18.6.3 5.8.2 11 .3 15.7.5s8.8.3 12.1.5c3.4.2 6 .3 7.8.4s2.8.2 2.8.2v.3s-1 0-2.8.1-4.4.1-7.8.3c-3.4.1-7.4.2-12.1.3-4.7.1-10 .2-15.7.3-5.8.1-12 .1-18.6.1h-10.2c-3.5 0-7 0-10.6-.1-7.2-.1-14.6-.2-22.2-.4l-11.4-.3c-3.8-.1-7.7-.3-11.5-.4l-11.5-.3c-3.8-.1-7.6-.1-11.4-.2-7.6-.1-15 0-22.2.2-7.2.1-14.2.4-20.8.4-6.6 0-12.8-.1-18.6-.2-5.8-.1-11-.2-15.7-.4-4.7-.1-8.8-.3-12.1-.4-3.4-.2-6-.3-7.8-.4s-2.8-.2-2.8-.2l.1-.4z"/></svg>