<?xml version="1.0" encoding="utf-8"?>
<!-- Generator: Adobe Illustrator 19.2.0, SVG Export Plug-In . SVG Version: 6.00 Build 0)  -->
<svg version="1.1" id="Layer_1" xmlns="http://www.w3.org/2000/svg" xmlns:xlink="http://www.w3.org/1999/xlink" x="0px" y="0px"
	 viewBox="0 0 460 318.4" style="enable-background:new 0 0 460 318.4;" xml:space="preserve">
<style type="text/css">
	.st0{fill:none;}
	.st1{fill:none;stroke:#000000;stroke-width:5;stroke-miterlimit:10;}
	.st2{opacity:0.9;fill:url(#SVGID_1_);enable-background:new    ;}
	.st3{fill:#F1F1F1;}
</style>
<path class="st0" d="M0-386.6h460v705H0V-386.6z"/>
<path class="st1" d="M6588.6-952.2c0.3,38.5,0.2,82.4-5.7,120.5c-2.3,14.7-3.7,31.7-10.6,44.9c-9.4,17.9-18.6,35.9-34,49.5
	c-5.5,4.9-11.5,9.2-17.9,12.8c-4.2,2.3-15.3,5.1-15.9,10.8c-0.4,3.6,3.8,5.7,6.9,7.6c6.9,4.3,10.9,12.3,11.6,20.4
	c1.5,15.4-5.6,30.7-18.9,38.8c-0.8,0.5-1.6,1-1.9,1.8c-0.7,2.1,2.1,3.4,4.2,3.8c12.1,2.1,24,5,35.7,8.7c7.7,2.4,24.3,10.6,12,18.5
	c-7.7,4.9-17,6.2-26,7.3c-24.7,3.1-49.7,6.2-74.5,3.9c-5.6-0.5-11.2-1.4-16.8-2.2l-22.5-3.3c-5.3-0.8-11.8-2.7-12.7-7.9
	c-1.7-10.2,16.6-15.1,23.6-17.2c4.9-1.5,36.5-4.6,35.6-9.3c-0.5-2.4-2.8-3.9-4.8-5.4c-8.9-6.4-15-16.4-16.6-27.2s1.3-22.2,7.9-30.9
	c2.2-2.9,4.9-6,4.4-9.6c-0.2-1.5-1-2.9-2-4.1c-5.1-6.7-15.9-9.5-22.8-14.7c-7.9-6-15.2-12.8-21.6-20.4
	c-12.5-14.5-22.1-31.5-27.6-49.9c-5.2-17.2-6.9-35.3-8.2-53.2c-2.3-31-3.6-62-3.8-93.1c20.2-2.4,42-1.8,62.4-1.4
	C6480.9-951.6,6588.6-954.3,6588.6-952.2L6588.6-952.2z"/>
<path d="M6462-637.3v1.9c0,0.6,0.1,1.3,0.6,1.9c0.4,0.6,1.2,0.8,2.2,0.8c2.1-0.1,4.5-0.2,7.1-0.2c1.3,0,2.7-0.1,4-0.1
	c1.4-0.1,2.8-0.1,4.1-0.2c1.4-0.1,2.8-0.1,4.1-0.2c1.4-0.1,2.7-0.1,4-0.2c2.6-0.1,5-0.2,7.1-0.3c2-0.1,3.7-0.6,4.6-1.3
	c0.4-0.4,0.7-0.8,0.8-1.1c0.1-0.3,0.2-0.5,0.2-0.5v0.5c-0.1,0.3-0.2,0.8-0.6,1.3s-1.1,1-1.9,1.4c-0.8,0.4-1.8,0.7-2.8,0.8
	c-2.1,0.4-4.5,0.7-7.1,0.9c-1.3,0.1-2.7,0.3-4,0.4c-1.4,0.1-2.8,0.2-4.2,0.2c-1.4,0-2.8,0.1-4.2,0.1h-4.1c-2.6-0.1-5.1-0.2-7.2-0.4
	c-0.5-0.1-1.1-0.1-1.6-0.4c-0.5-0.3-0.9-0.7-1.1-1.1c-0.4-0.9-0.4-1.7-0.3-2.3c0.1-0.6,0.2-1.1,0.3-1.4
	C6461.9-637.1,6462-637.3,6462-637.3L6462-637.3z M6461.6-721.9c0,0,0.6,0.2,1.6,0.5c0.5,0.2,1.2,0.3,1.9,0.5s1.6,0.4,2.4,0.5
	c0.9,0.2,1.9,0.3,2.9,0.5c1,0.1,2.1,0.2,3.3,0.3c1.1,0.1,2.3,0.1,3.5,0.2h3.6c1.2,0,2.5,0,3.7-0.1c1.2,0,2.4-0.1,3.6-0.1
	c2.3-0.1,4.5-0.1,6.3-0.3s3.2-0.6,4.1-1.2c0.4-0.3,0.8-0.6,1-0.8l0.3-0.3c0,0-0.1,0.1-0.2,0.4c-0.2,0.3-0.4,0.6-0.8,1
	c-0.8,0.8-2.3,1.6-4.2,2c-0.9,0.2-2,0.4-3,0.5c-1.1,0.1-2.2,0.3-3.3,0.4l-3.6,0.3c-1.2,0.1-2.5,0.1-3.7,0.2c-1.3,0-2.5,0-3.7-0.1
	c-0.6,0-1.2-0.1-1.8-0.1c-0.6-0.1-1.2-0.1-1.8-0.2c-1.2-0.1-2.3-0.4-3.4-0.6c-0.5-0.1-1-0.3-1.5-0.4c-0.5-0.2-1-0.3-1.4-0.4
	c-1.8-0.6-3.2-1.3-4.2-1.8C6462.2-721.6,6461.6-721.9,6461.6-721.9L6461.6-721.9z M6411.5-619.8l0.3,0.3c0.2,0.2,0.5,0.4,1,0.6
	c0.9,0.5,2.3,1,4.2,1.4c1.9,0.4,4.2,0.7,6.8,1.1c2.6,0.4,5.6,0.7,8.9,1.1c3.3,0.3,6.8,0.7,10.6,1c3.7,0.3,7.7,0.5,11.8,0.7
	c8.2,0.3,17,0.5,25.7,0.6c4.4,0.1,8.8,0.1,13.1,0.2c4.3,0,8.5,0.1,12.6,0c4.1-0.1,8-0.4,11.7-0.8c3.7-0.5,7.2-1.1,10.4-1.7
	c6.4-1.4,11.6-3,15.2-4.3c1.8-0.7,3.2-1.2,4.2-1.6l1.5-0.6c0,0-0.5,0.2-1.4,0.7c-0.9,0.4-2.3,1.1-4.1,1.8c-3.5,1.5-8.7,3.5-15.1,5.1
	c-6.4,1.6-14.1,2.9-22.3,3.2c-4.1,0.2-8.4,0.2-12.7,0.2c-4.3,0-8.7-0.1-13.1-0.1c-4.4-0.1-8.8-0.2-13.1-0.3
	c-4.3-0.1-8.6-0.4-12.7-0.6c-4.1-0.3-8.1-0.6-11.8-1c-3.8-0.4-7.3-0.8-10.6-1.3c-1.6-0.3-3.2-0.5-4.7-0.7c-1.5-0.3-2.9-0.5-4.2-0.8
	c-2.6-0.5-4.9-1-6.8-1.5s-3.3-1.1-4.1-1.7c-0.4-0.3-0.7-0.5-0.9-0.7C6411.6-619.7,6411.5-619.8,6411.5-619.8L6411.5-619.8z"/>
<linearGradient id="SVGID_1_" gradientUnits="userSpaceOnUse" x1="6378.7998" y1="-1337.3774" x2="6584.7002" y2="-1337.3774" gradientTransform="matrix(1 0 0 1 0 507)">
	<stop  offset="1.800000e-02" style="stop-color:#801FE3"/>
	<stop  offset="1" style="stop-color:#B7A7FF"/>
</linearGradient>
<path class="st2" d="M6378.8-924c1.4,24.4,2.7,48.8,4.1,73.2c0.4,7.9,0.9,15.9,2.2,23.7c1.8,11.1,5.4,21.8,8.9,32.5
	c3,9.1,6,18.2,11.1,26.3c17.8,28.1,51.5,32.7,81.9,31.3c10.6-0.5,21.3-1.5,31.5-4.7c66.9-21.3,65.2-117,66.1-172.7
	c0-2.6,0.1-5.1,0.1-7.7C6516-919.9,6447.2-918.1,6378.8-924L6378.8-924z"/>
<path d="M6373.7-943.7c0,0,0.6,8.1,1.5,22.2c0.5,7.1,1,15.6,1.7,25.5c0.6,9.8,1.4,20.9,2.1,33.1c0.4,6.1,0.7,12.4,1.3,18.9
	c0.5,6.5,1.4,13.2,3,19.9s3.7,13.5,6,20.4c2.4,6.9,4.5,14,7.5,20.9c0.8,1.7,1.5,3.4,2.4,5.1c0.9,1.6,1.8,3.3,2.8,4.8
	c1.1,1.6,2.2,3.1,3.4,4.7c1.2,1.4,2.5,2.8,3.7,4.3c5.3,5.5,11.7,10,18.8,13.2c7.1,3.3,14.8,5.4,22.6,6.6c7.9,1.3,15.9,1.7,23.9,1.7
	c8-0.1,16.1-0.4,24-1.5c3.9-0.5,7.9-1.2,11.7-2.2c1-0.3,1.9-0.5,2.8-0.8l0.7-0.2h0.1l0.2-0.1l0.4-0.1l1.4-0.5l2.8-1
	c0.5-0.2,0.9-0.3,1.4-0.5l1.3-0.6c7.1-3.1,13.7-7.4,19.4-12.5c5.7-5.1,10.5-11.1,14.4-17.5c4-6.3,7.1-13.1,9.7-19.8
	c2.6-6.8,4.6-13.6,6.3-20.3c3.2-13.5,5-26.5,6.2-38.5c1.1-12.1,1.7-23.2,2-33c0.3-9.9,0.5-18.4,0.7-25.5c0.2-14.2,0.4-22.2,0.4-22.2
	s0,2,0.1,5.8c0,3.8,0.1,9.4,0.2,16.4c0,7.1,0,15.7-0.2,25.5c-0.1,9.9-0.5,21-1.5,33.1c-1,12.1-2.6,25.2-5.7,38.9
	c-1.6,6.8-3.6,13.7-6.1,20.6c-2.5,6.9-5.7,13.8-9.8,20.3c-4,6.5-9,12.7-14.8,18.1c-5.9,5.4-12.7,9.8-20.2,13.1l-1.4,0.6
	c-0.5,0.2-0.9,0.4-1.4,0.5l-2.8,1l-1.4,0.5l-0.4,0.1l-0.2,0.1l-0.2,0.1l-0.7,0.2c-1,0.3-2,0.6-2.9,0.8c-3.9,1-8,1.8-12,2.4
	c-8.1,1.1-16.2,1.5-24.4,1.6c-8.2,0-16.3-0.5-24.4-1.8c-8-1.3-16-3.5-23.3-7c-7.4-3.4-14.1-8.1-19.6-13.9c-1.3-1.5-2.6-3.1-3.9-4.6
	c-1.1-1.6-2.2-3.2-3.3-4.7c-2.2-3.4-3.9-6.8-5.4-10.4c-3-7.1-5.2-14.2-7.5-21.2c-2.2-7-4.3-13.9-5.8-20.7
	c-1.6-6.9-2.4-13.6-2.8-20.2c-0.5-6.6-0.7-12.9-1-18.9c-0.6-12.1-1.1-23.2-1.6-33.1s-0.8-18.4-1.2-25.5
	C6374-935.7,6373.7-943.7,6373.7-943.7L6373.7-943.7z"/>
<path d="M6374.1-928.3c0,0,0.8,0,2.4,0.1s3.8,0.2,6.7,0.3c2.9,0.2,6.4,0.3,10.5,0.5c4,0.2,8.6,0.3,13.6,0.5s10.4,0.3,16.1,0.5
	s11.7,0.2,17.9,0.4c6.2,0.1,12.6,0.1,19.2,0.2c6.5,0.1,13.2,0,19.8,0.1c6.6,0,13.3,0,19.8-0.1s13-0.1,19.2-0.2
	c12.5-0.1,24.1-0.2,34-0.3c10-0.1,18.3-0.1,24.1-0.1h9.1c0,0-0.8,0.1-2.4,0.2c-1.6,0.1-3.8,0.2-6.7,0.4c-5.8,0.3-14.1,0.8-24.1,1.3
	s-21.6,0.9-34,1.3c-6.2,0.1-12.7,0.4-19.2,0.4c-6.5,0.1-13.2,0.1-19.8,0.2c-6.6,0-13.3,0-19.8-0.2c-6.5-0.1-13-0.3-19.2-0.4
	c-6.2-0.2-12.3-0.4-18-0.8c-2.9-0.2-5.6-0.3-8.3-0.5c-2.7-0.2-5.3-0.4-7.8-0.5c-2.5-0.2-4.9-0.3-7.1-0.5c-2.3-0.2-4.4-0.4-6.4-0.6
	c-4-0.4-7.6-0.7-10.4-1c-2.9-0.3-5.2-0.6-6.7-0.7C6374.9-928.2,6374.1-928.3,6374.1-928.3L6374.1-928.3z"/>
<path class="st3" d="M325.2,249.4c3.9-5.5,3.1-12.7,4-19.3c6-44.3,6.5-76.4,17.7-113c4.3-14,10.2-27.9,10.9-42.6
	c0.3-7.4,0.7-14.9,1-22.3c-20.6-0.1-41.1-0.3-61.7-0.4c-18.4-0.1-36.7-0.2-55.1-0.4c-42.9-0.3-85.8-0.6-128.7-0.8h-0.9
	c0.8,11.9,1.4,23.8,1.4,35.8c0,5-0.1,10.1,1.3,14.9c1.3,4.4,3.8,8.3,5.5,12.5c2.9,7,3.6,14.6,4.3,22.1c1.9,20.5,3.8,41,5.7,61.6
	c1.3,14.4,3,29.7,11.6,41.3c16.4,22,43.6,22.2,68.4,24.1c31,2.5,62.3,1.3,93.1-3.6C311.7,258,320.5,256,325.2,249.4L325.2,249.4z"/>
<path class="st1" d="M205.7,315.4c23.5-1.3,49.1-1.9,72.6-1.5l25.5-5.7c2.4-0.5,4.8-1.1,7.2-1.6c5.1-1.2,11.1-2,16-4
	c5.3-2.2,4.2-3.9,4.4-9.9c0.4-10,1-20.1,1.7-30.1c1.5-20.3,3.5-40.6,6.1-60.8c5.1-39.7,10.3-75.7,18.9-114.8
	c5.3-24.1,4.8-53.1,6.2-77.7c0.1-2.1-252.5-2.4-268.5-2.1c-0.5,17.1,2.7,55.7,3.6,63.2c3.8,30.1,12.3,82.4,16.8,112.4
	c5.6,37.7,6.5,76.1,14.2,113.5c0.3,1.5,0.6,3,1.6,4.1c0.7,0.9,1.6,1.5,2.6,2c10.7,6.5,21.7,8,33.9,9
	C178,312.1,202.8,315.6,205.7,315.4L205.7,315.4z"/>
<path d="M355.6,21.7c0,0-0.4,10.4-1,28.7c-0.3,9.1-0.8,20.2-1.3,33c-0.3,6.4-1.7,13.1-3.6,20s-4.5,14-6.8,21.4
	c-2.3,7.5-4.3,15.4-5.9,23.6c-1.7,8.2-3,16.9-4.2,25.7c-2.3,17.8-3.8,36.6-6.3,56.1c-0.3,2.4-0.6,4.9-0.9,7.3l-0.2,1.8l-0.2,1.8
	c-0.1,1.2-0.2,2.5-0.3,3.7c-0.2,2.5-0.4,5.1-1.1,7.6c-0.3,1.3-0.8,2.6-1.5,3.8c-0.3,0.6-0.7,1.2-1.1,1.8c-0.5,0.6-0.7,1-1.2,1.6
	c-3.7,4.2-8.9,6.2-13.9,7.5c-2.5,0.6-5.1,1.1-7.6,1.5s-5.1,0.8-7.6,1.1c-20.4,2.9-41.4,4.1-62.4,3.7c-5.2-0.1-10.5-0.3-15.7-0.7
	c-5.2-0.3-10.4-0.8-15.6-1.2c-10.4-0.8-20.8-1.7-30.9-4.5c-5-1.4-10-3.3-14.5-5.9c-4.5-2.6-8.6-5.9-12.2-9.7l-2.5-3l-0.6-0.7
	c-0.1-0.1-0.2-0.2-0.3-0.4l-0.3-0.4l-1.1-1.5c-1.4-2.2-2.7-4.5-3.7-6.8c-2.1-4.7-3.4-9.6-4.4-14.4c-0.9-4.9-1.5-9.7-2-14.5
	s-0.9-9.5-1.3-14.2c-0.8-9.4-1.6-18.6-2.4-27.5c-0.8-8.9-1.5-17.6-2.3-26c-0.4-4.2-0.8-8.3-1.7-12.2c-0.8-3.9-2.1-7.6-3.9-11.1
	c-1.7-3.5-3.6-7-4.4-10.8c-0.8-3.8-0.9-7.5-0.8-11.1c0.1-7.1,0-13.9-0.2-20.2c-0.5-12.7-1.2-23.8-1.7-32.9s-0.8-16.3-0.9-21.2
	c-0.1-2.4-0.1-4.3-0.1-5.6V15c0,0,0,0.7,0.1,1.9c0,1.3,0.1,3.1,0.2,5.6c0.2,4.9,0.7,12.1,1.3,21.2s1.6,20.2,2.2,32.9
	c0.3,6.4,0.5,13.2,0.6,20.3c0,3.6,0.1,7.2,0.9,10.7c0.8,3.6,2.6,6.9,4.3,10.4c1.8,3.5,3.2,7.4,4.1,11.5c0.9,4,1.4,8.2,1.8,12.4
	c0.8,8.4,1.7,17.1,2.5,26c0.9,8.9,1.8,18.1,2.7,27.5c1,9.4,1.5,19,3.4,28.5c1,4.7,2.2,9.4,4.2,13.9c1,2.2,2.2,4.3,3.4,6.3l1.1,1.5
	l0.3,0.4c0,0.1,0.2,0.2,0.3,0.3l0.6,0.7l2.3,2.8c3.4,3.6,7.3,6.6,11.6,9.1s9,4.3,13.9,5.6c9.8,2.7,20.1,3.6,30.4,4.3
	c5.2,0.4,10.4,0.8,15.6,1.1s10.4,0.5,15.6,0.6c20.8,0.5,41.7-0.7,61.9-3.5c2.5-0.3,5.1-0.7,7.6-1.1c2.5-0.4,5-0.8,7.4-1.4
	c2.4-0.6,4.7-1.4,6.9-2.4s4.1-2.5,5.6-4.1c3.3-3.5,4-8.3,4.3-13.2c0.1-1.2,0.2-2.5,0.3-3.7l0.2-1.9l0.2-1.9c0.3-2.4,0.6-4.9,1-7.3
	c2.4-19.4,4.2-38.3,6.7-56.1c1.2-8.9,2.7-17.6,4.5-25.8c1.8-8.3,3.9-16.2,6.2-23.7c2.4-7.5,5-14.5,7-21.3s3.5-13.4,3.9-19.7
	c0.7-12.7,1.3-23.8,1.8-32.9C355,32.1,355.6,21.7,355.6,21.7L355.6,21.7z"/>
<path d="M119.6,124.8c0,0,0.1-0.2,0.2-0.6c0.1-0.4,0.4-0.9,0.7-1.6c0.7-1.4,1.9-3.4,4-5.5s5-4.3,8.7-6.1c0.9-0.5,1.9-0.9,2.9-1.3
	c1.1-0.4,2.1-0.7,3.2-1c2.3-0.5,4.7-1,7.2-1.2c1.3-0.1,2.6-0.1,3.9-0.1c1.3,0.1,2.7,0.1,4,0.3c1.4,0.1,2.7,0.4,4.1,0.7
	c1.4,0.4,2.8,0.7,4.2,1.2c5.6,1.8,11,5.1,15.6,9.7c0.5,0.6,1.1,1.2,1.6,1.8l0.8,0.9l0.7,1c0.5,0.7,1,1.3,1.5,2
	c0.4,0.7,0.9,1.4,1.3,2.1l0.7,1.1l0.6,1.1c0.4,0.7,0.8,1.5,1.2,2.2c0.3,0.8,0.7,1.5,1,2.3l0.5,1.2l0.4,1.2l0.8,2.4l0.7,2.4l0.4,1.2
	l0.3,1.2l0.6,2.5c0.6,3.3,1.2,6.7,1.6,10c0.7,6.7,0.9,13.5,0.9,20.1c0.1,6.6,0.1,13.1,0.2,19.4c0.1,12.6,0.1,24.3,0.1,34.4
	c0,10.1-0.1,18.5-0.1,24.3c0,5.9-0.1,9.2-0.1,9.2s-0.1-3.4-0.3-9.2c-0.2-5.9-0.5-14.3-0.7-24.3c-0.2-10.1-0.6-21.8-0.7-34.4
	c-0.1-6.3-0.2-12.8-0.3-19.4c-0.1-6.6-0.3-13.3-1.1-19.9c-0.3-3.3-0.9-6.6-1.5-9.8l-0.6-2.4l-0.3-1.2l-0.3-1.2l-0.7-2.4l-0.8-2.3
	l-0.4-1.1l-0.2-1.3c-0.3-0.7-0.6-1.5-0.9-2.2c-0.4-0.7-0.7-1.4-1.1-2.1l-0.6-1.1l-0.6-1c-0.4-0.7-0.8-1.3-1.2-2
	c-0.5-0.6-0.9-1.3-1.4-1.9l-0.7-0.9l-0.8-0.9c-0.5-0.6-1.1-1.2-1.6-1.8c-4.3-4.3-9.5-7.6-14.8-9.5c-1.3-0.5-2.7-0.9-4-1.2
	c-1.3-0.3-2.7-0.6-4-0.8c-1.3-0.2-2.6-0.3-3.9-0.4c-1.3,0-2.6-0.1-3.8,0c-2.5,0.1-4.8,0.5-7,1c-1.1,0.3-2.2,0.6-3.2,0.9
	s-2,0.7-2.9,1.1c-3.7,1.6-6.6,3.7-8.7,5.7c-2.1,2-3.4,4-4.2,5.3c-0.4,0.7-0.7,1.2-0.8,1.6L119.6,124.8L119.6,124.8z M191.4,143.9
	c0,0,0.2-0.9,0.5-2.7c0.3-0.8,0.6-1.9,1-3.1c0.3-0.6,0.6-1.2,0.9-1.9s0.8-1.3,1.2-2c1.7-2.8,4.4-5.9,8-8.8c3.6-2.9,8.2-5.6,13.4-7.9
	c5.2-2.3,11.1-4.3,17.4-5.7c3.2-0.7,6.5-1.2,10-1.5c3.4-0.3,7-0.2,10.6,0.4s7.1,1.8,10.4,3.7c0.9,0.4,1.6,1,2.4,1.6
	c0.8,0.5,1.5,1.2,2.2,1.8c0.4,0.3,0.7,0.6,1.1,1c0.3,0.3,0.6,0.6,0.9,1c0.6,0.7,1.2,1.5,1.8,2.3c2.2,3.1,3.8,6.7,4.9,10.4
	s1.8,7.4,2.4,11.2c1,7.6,1.1,15.2,1,22.6c-0.1,7.4-0.4,14.7-0.7,21.8c-0.5,14.1-1.3,27.3-2,38.6s-1.5,20.7-2,27.3
	c-0.6,6.6-0.9,10.3-0.9,10.3s0.2-3.8,0.5-10.4c0.3-6.6,0.7-16,1.2-27.3s0.9-24.5,1.4-38.6c0.2-7.1,0.4-14.4,0.5-21.8
	c0.1-7.4-0.1-14.9-1.1-22.3c-0.5-3.7-1.2-7.4-2.2-10.9c-1.1-3.5-2.5-6.9-4.6-9.9c-0.5-0.7-1.1-1.4-1.6-2.1c-0.3-0.3-0.6-0.7-0.9-1
	s-0.6-0.6-1-0.9c-0.7-0.6-1.3-1.2-2-1.7s-1.4-1.1-2.2-1.5c-3-1.8-6.4-2.9-9.8-3.5s-6.8-0.6-10.2-0.5c-3.3,0.2-6.6,0.6-9.8,1.3
	c-6.3,1.3-12.1,3.2-17.3,5.4c-5.2,2.2-9.7,4.7-13.4,7.4c-3.6,2.7-6.4,5.7-8.2,8.4c-0.4,0.7-0.9,1.3-1.2,2c-0.3,0.7-0.6,1.3-0.9,1.8
	c-0.5,1.2-0.9,2.2-1.1,3L191.4,143.9L191.4,143.9z"/>
<path d="M278.6,140.1c0,0,0.2-0.3,0.6-0.7c0.4-0.5,1-1.2,1.7-2.2s1.4-2.2,2.2-3.6c0.8-1.4,1.6-3.1,2.5-4.9c0.9-1.8,1.9-3.8,3.3-5.7
	c1.3-1.9,2.9-3.9,4.8-5.7c1.8-1.8,3.9-3.5,6.3-4.9c2.3-1.5,4.8-2.7,7.4-3.7s5.3-1.6,8-2s5.4-0.4,8-0.1s5.1,1,7.3,2
	c1.1,0.5,2.1,1.1,3,1.8c0.2,0.2,0.4,0.3,0.6,0.5s0.4,0.4,0.6,0.5c0.4,0.4,0.8,0.7,1.2,1.1c1.4,1.5,2.4,3.2,3.1,4.8
	c0.6,1.6,0.9,3,1,4.2s0,2.1-0.1,2.8c-0.1,0.6-0.2,1-0.2,1s0-0.3,0.1-1v-1.2c0-0.5-0.1-1-0.2-1.5c-0.2-1.1-0.6-2.5-1.3-3.9
	c-0.7-1.4-1.8-2.9-3.2-4.3c-0.4-0.3-0.7-0.7-1.1-1c-0.2-0.2-0.4-0.3-0.6-0.5c-0.2-0.1-0.4-0.3-0.7-0.4c-0.9-0.5-1.8-1.1-2.9-1.5
	c-2.1-0.8-4.4-1.4-6.8-1.6c-4.9-0.4-10.2,0.4-15.1,2.3c-2.5,0.9-4.8,2.1-7,3.4c-2.2,1.4-4.3,2.9-6.1,4.6c-1.8,1.7-3.4,3.5-4.8,5.3
	s-2.5,3.7-3.5,5.4c-1,1.7-2,3.4-2.9,4.7c-0.9,1.4-1.8,2.6-2.5,3.5c-0.8,0.9-1.4,1.6-1.9,2C278.8,139.9,278.6,140.1,278.6,140.1
	L278.6,140.1z M108.3,58.4c0,0,1,0,2.8-0.1s4.4-0.2,7.8-0.3c3.4-0.1,7.4-0.2,12.1-0.3c4.7-0.1,10-0.1,15.7-0.2c5.8,0,12,0,18.6,0.1
	s13.6,0.4,20.7,0.6c7.2,0.3,14.6,0.5,22.2,0.5h11.4c3.8-0.1,7.7-0.1,11.5-0.2s7.7-0.2,11.5-0.2s7.6-0.1,11.4-0.1
	c7.6,0,15-0.1,22.2-0.1h10.6c3.5,0,6.9,0,10.2,0.1c6.6,0.1,12.8,0.2,18.6,0.3c5.8,0.2,11,0.3,15.7,0.5s8.8,0.3,12.1,0.5
	c3.4,0.2,6,0.3,7.8,0.4s2.8,0.2,2.8,0.2v0.3c0,0-1,0-2.8,0.1s-4.4,0.1-7.8,0.3c-3.4,0.1-7.4,0.2-12.1,0.3c-4.7,0.1-10,0.2-15.7,0.3
	c-5.8,0.1-12,0.1-18.6,0.1h-10.2c-3.5,0-7,0-10.6-0.1c-7.2-0.1-14.6-0.2-22.2-0.4l-11.4-0.3c-3.8-0.1-7.7-0.3-11.5-0.4L219.6,60
	c-3.8-0.1-7.6-0.1-11.4-0.2c-7.6-0.1-15,0-22.2,0.2c-7.2,0.1-14.2,0.4-20.8,0.4c-6.6,0-12.8-0.1-18.6-0.2c-5.8-0.1-11-0.2-15.7-0.4
	c-4.7-0.1-8.8-0.3-12.1-0.4c-3.4-0.2-6-0.3-7.8-0.4s-2.8-0.2-2.8-0.2L108.3,58.4L108.3,58.4z"/>
</svg>
