<?xml version="1.0" encoding="utf-8"?>
<!-- Generator: Adobe Illustrator 19.2.0, SVG Export Plug-In . SVG Version: 6.00 Build 0)  -->
<svg version="1.1" id="Layer_1" xmlns="http://www.w3.org/2000/svg" xmlns:xlink="http://www.w3.org/1999/xlink" x="0px" y="0px"
	 viewBox="0 0 460 174" style="enable-background:new 0 0 460 174;" xml:space="preserve">
<style type="text/css">
	.st0{opacity:0.9;fill:url(#SVGID_1_);enable-background:new    ;}
	.st1{fill:none;stroke:#000000;stroke-width:5;stroke-miterlimit:10;}
</style>
<linearGradient id="SVGID_1_" gradientUnits="userSpaceOnUse" x1="229.4" y1="-474.209" x2="229.4" y2="-374" gradientTransform="matrix(1 0 0 -1 0 -356)">
	<stop  offset="1.800000e-02" style="stop-color:#801FE3"/>
	<stop  offset="1" style="stop-color:#B7A7FF"/>
</linearGradient>
<path class="st0" d="M276.5,18c-14.8,1.4-41.6,2.7-56.5,2.7c-12.6,0-25.2-0.9-37.7-1.8c1.7,20.7,4.3,50.7,5.3,73
	c0.2,4.8,0.5,9.9,2.6,14.2c2.5,5,7.3,8.3,12.4,10s10.4,1.8,15.7,2c4.6,0.2,8.5,0.1,13.1-0.1c7.6-0.4,31.8-2.6,36.3-9.2
	c3-4.4,3.9-10,4.7-15.4C273.4,86.8,275.7,31.9,276.5,18z"/>
<path class="st1" d="M284.1,4.5c-0.7,12.7-3.4,104.5-5.1,121.6c-1,10.4,0,29.7-8.2,37.7c-2.7,2.6-9.5,3.8-13.2,4.7
	c-12,2.8-43.3,3-55.4,1.2c-8.4-1.3-11.2-0.8-17.2-8c-3.3-4-3.8-9.5-4.1-14.7c-2.1-39.2-4.2-141.8-4.9-141.9
	C175.3,5.2,250.6,4.9,284.1,4.5L284.1,4.5z"/>
<path d="M183.9,8.9c0,0,0.1,1.1,0.4,3.3c0.1,1.1,0.3,2.4,0.4,4c0.2,1.6,0.3,3.3,0.5,5.4c0.4,4,0.7,8.9,1,14.5s0.7,11.9,0.9,18.8
	c0.3,6.9,0.5,14.4,0.8,22.3c0.2,3.9,0.3,8,0.5,12.2l0.3,6.3c0.1,2.1,0.2,4.2,0.4,6.3c0.2,2.1,0.6,4.2,1.2,6.1c0.3,1,0.7,1.9,1.2,2.8
	c0.4,0.8,1.1,1.6,1.8,2.2c3,2.8,7.1,4.7,11.2,6.1l0.8,0.3l0.4,0.1l0.2,0.1c0,0-0.1,0,0,0h0.1c0.6,0.2,1.1,0.3,1.6,0.4
	c0.5,0.1,1,0.2,1.6,0.3c0.5,0.1,1.1,0.1,1.7,0.2c2.2,0.3,4.5,0.4,6.8,0.6c4.5,0.3,9.1,0.4,13.7,0.4c1.1,0,2.3,0,3.4-0.1
	s2.3-0.1,3.4-0.2c2.3-0.2,4.5-0.4,6.8-0.7c4.5-0.6,9-1.4,13.2-2.6c2.1-0.6,4.2-1.3,6-2.3c0.9-0.5,1.8-1,2.5-1.7l0.5-0.5l0.4-0.5
	c0.3-0.5,0.6-0.9,0.8-1.4c2-3.6,2.8-7.9,3.5-12.1c0.1-0.5,0.2-1.1,0.2-1.6l0.2-1.6c0.1-1,0.2-2.1,0.3-3.1c0.2-2.1,0.3-4.2,0.5-6.3
	c0.3-4.1,0.6-8.2,0.8-12.1c0.5-7.9,1-15.4,1.4-22.2c0.4-6.9,0.8-13.2,1.2-18.8c0.4-5.6,0.7-10.5,1-14.5s0.5-7.2,0.7-9.3l0.3-3.3
	c0,0-0.1,4.6-0.4,12.7c-0.1,4-0.3,8.9-0.5,14.5s-0.4,11.9-0.6,18.8c-0.3,6.9-0.6,14.4-0.9,22.3c-0.2,4-0.4,8-0.6,12.2l-0.3,6.3
	c-0.1,1.1-0.2,2.2-0.2,3.2l-0.2,1.6c-0.1,0.6-0.1,1.1-0.2,1.6c-0.6,4.3-1.4,8.8-3.7,13c-0.3,0.6-0.6,1-0.9,1.5
	c-0.2,0.3-0.4,0.6-0.6,0.8l-0.7,0.7c-1,0.9-2,1.5-3.1,2.1c-2.1,1.1-4.3,1.9-6.6,2.6c-4.5,1.3-9,2.1-13.6,2.7
	c-2.3,0.3-4.6,0.6-6.9,0.8c-1.2,0.1-2.3,0.2-3.5,0.2c-1.2,0.1-2.4,0.1-3.5,0.1c-4.6,0-9.3-0.2-13.9-0.5c-2.3-0.1-4.6-0.3-6.9-0.6
	c-0.6-0.1-1.2-0.1-1.7-0.2l-1.8-0.3c-0.6-0.1-1.2-0.3-1.7-0.4h-0.1l-0.2-0.1l-0.2-0.1l-0.4-0.1l-0.8-0.3c-2.2-0.8-4.3-1.7-6.4-2.8
	s-4.1-2.4-5.8-4.1c-0.9-0.9-1.6-1.8-2.3-3c-0.6-1.1-1-2.2-1.4-3.3c-0.7-2.2-1-4.5-1.2-6.7c-0.6-8.7-0.6-17-0.8-25
	c-0.1-7.9-0.2-15.4-0.3-22.3c-0.1-6.9-0.2-13.2-0.4-18.8c-0.1-5.6-0.3-10.5-0.5-14.5s-0.3-7.2-0.5-9.3C184,10.1,183.9,8.9,183.9,8.9
	L183.9,8.9z"/>
<path d="M185,23.1c0,0,5.7,0.4,14.3,0.8c4.3,0.2,9.3,0.4,14.7,0.6c5.4,0.1,11.1,0.1,16.9-0.1c5.7-0.2,11.5-0.5,16.9-0.7
	c5.4-0.3,10.4-0.5,14.7-0.7c8.6-0.5,14.3-0.8,14.3-0.8v0.1c0,0-1.4,0.2-3.9,0.5s-6.1,0.6-10.4,1c-4.3,0.3-9.3,0.7-14.7,1
	c-5.4,0.3-11.1,0.5-16.9,0.6s-11.5,0.1-16.9-0.1c-5.4-0.2-10.4-0.5-14.7-0.8C190.7,23.7,185,23.2,185,23.1L185,23.1z"/>
</svg>
