<svg id="Layer_1" xmlns="http://www.w3.org/2000/svg" viewBox="0 0 705 705"><style>.st0{fill:none}.st1{opacity:.9;fill:url(#SVGID_1_)}.st2{fill:none;stroke:#000;stroke-width:5;stroke-miterlimit:10}</style><path class="st0" d="M122.5 0h460v705h-460V0z"/><linearGradient id="SVGID_1_" gradientUnits="userSpaceOnUse" x1="351.898" y1="649.151" x2="351.898" y2="548.964"><stop offset=".018" stop-color="#801fe3"/><stop offset="1" stop-color="#b7a7ff"/></linearGradient><path class="st1" d="M399 549c-14.8 1.4-41.6 2.7-56.5 2.7-12.6 0-25.2-.9-37.7-1.8 1.7 20.7 4.3 50.7 5.3 73 .2 4.8.5 9.9 2.6 14.2 2.5 5 7.3 8.3 12.4 10 5.1 1.7 10.4 1.8 15.7 2 4.6.2 8.5.1 13.1-.1 7.6-.4 31.8-2.6 36.3-9.2 3-4.4 3.9-10 4.7-15.4 1-6.6 3.3-61.5 4.1-75.4z"/><path class="st2" d="M406.6 535.5c-.7 12.7-3.4 104.5-5.1 121.6-1 10.4 0 29.7-8.2 37.7-2.7 2.6-9.5 3.8-13.2 4.7-12 2.8-43.3 3-55.4 1.2-8.4-1.3-11.2-.8-17.2-8-3.3-4-3.8-9.5-4.1-14.7-2.1-39.2-4.2-141.8-4.9-141.9-.7.1 74.6-.2 108.1-.6z"/><path d="M306.4 539.9s.1 1.1.4 3.3c.1 1.1.3 2.4.4 4 .2 1.6.3 3.3.5 5.4.4 4 .7 8.9 1 14.5.3 5.6.7 11.9.9 18.8.3 6.9.5 14.4.8 22.3.2 3.9.3 8 .5 12.2l.3 6.3c.1 2.1.2 4.2.4 6.3.2 2.1.6 4.2 1.2 6.1.3 1 .7 1.9 1.2 2.8.4.8 1.1 1.6 1.8 2.2 3 2.8 7.1 4.7 11.2 6.1l.8.3.4.1.2.1s-.1 0 0 0h.1c.6.2 1.1.3 1.6.4.5.1 1 .2 1.6.3.5.1 1.1.1 1.7.2 2.2.3 4.5.4 6.8.6 4.5.3 9.1.4 13.7.4 1.1 0 2.3 0 3.4-.1s2.3-.1 3.4-.2c2.3-.2 4.5-.4 6.8-.7 4.5-.6 9-1.4 13.2-2.6 2.1-.6 4.2-1.3 6-2.3.9-.5 1.8-1 2.5-1.7l.5-.5.4-.5c.3-.5.6-.9.8-1.4 2-3.6 2.8-7.9 3.5-12.1.1-.5.2-1.1.2-1.6l.2-1.6c.1-1 .2-2.1.3-3.1.2-2.1.3-4.2.5-6.3.3-4.1.6-8.2.8-12.1.5-7.9 1-15.4 1.4-22.2.4-6.9.8-13.2 1.2-18.8.4-5.6.7-10.5 1-14.5.3-4 .5-7.2.7-9.3l.3-3.3s-.1 4.6-.4 12.7c-.1 4-.3 8.9-.5 14.5s-.4 11.9-.6 18.8c-.3 6.9-.6 14.4-.9 22.3-.2 4-.4 8-.6 12.2l-.3 6.3c-.1 1.1-.2 2.2-.2 3.2l-.2 1.6c-.1.6-.1 1.1-.2 1.6-.6 4.3-1.4 8.8-3.7 13-.3.6-.6 1-.9 1.5-.2.3-.4.6-.6.8l-.7.7c-1 .9-2 1.5-3.1 2.1-2.1 1.1-4.3 1.9-6.6 2.6-4.5 1.3-9 2.1-13.6 2.7-2.3.3-4.6.6-6.9.8-1.2.1-2.3.2-3.5.2-1.2.1-2.4.1-3.5.1-4.6 0-9.3-.2-13.9-.5-2.3-.1-4.6-.3-6.9-.6-.6-.1-1.2-.1-1.7-.2l-1.8-.3c-.6-.1-1.2-.3-1.7-.4h-.1l-.2-.1-.2-.1-.4-.1-.8-.3c-2.2-.8-4.3-1.7-6.4-2.8-2.1-1.1-4.1-2.4-5.8-4.1-.9-.9-1.6-1.8-2.3-3-.6-1.1-1-2.2-1.4-3.3-.7-2.2-1-4.5-1.2-6.7-.6-8.7-.6-17-.8-25-.1-7.9-.2-15.4-.3-22.3-.1-6.9-.2-13.2-.4-18.8-.1-5.6-.3-10.5-.5-14.5s-.3-7.2-.5-9.3c-.2-1.9-.3-3.1-.3-3.1z"/><path d="M307.5 554.1s5.7.4 14.3.8c4.3.2 9.3.4 14.7.6 5.4.1 11.1.1 16.9-.1 5.7-.2 11.5-.5 16.9-.7 5.4-.3 10.4-.5 14.7-.7 8.6-.5 14.3-.8 14.3-.8v.1s-1.4.2-3.9.5-6.1.6-10.4 1c-4.3.3-9.3.7-14.7 1-5.4.3-11.1.5-16.9.6-5.8.1-11.5.1-16.9-.1-5.4-.2-10.4-.5-14.7-.8-8.6-.8-14.3-1.3-14.3-1.4z"/></svg>