<?xml version="1.0" encoding="utf-8"?>
<!-- Generator: Adobe Illustrator 19.2.0, SVG Export Plug-In . SVG Version: 6.00 Build 0)  -->
<svg version="1.1" id="Layer_1" xmlns="http://www.w3.org/2000/svg" xmlns:xlink="http://www.w3.org/1999/xlink" x="0px" y="0px"
	 viewBox="0 0 460 430" style="enable-background:new 0 0 460 430;" xml:space="preserve">
<style type="text/css">
	.st0{fill:none;stroke:#000000;stroke-width:5;stroke-miterlimit:10;}
	.st1{fill:#F7F723;}
</style>
<path d="M164.8,409.7c0,0,2.1,0.4,5.9,1.1c3.7,0.7,9.1,1.6,15.6,2.6c3.2,0.5,6.7,1,10.4,1.5s7.6,1,11.7,1.5c4,0.5,8.2,0.9,12.5,1.2
	c4.2,0.3,8.6,0.5,12.9,0.4s8.7-0.4,12.9-0.7c4.3-0.3,8.5-0.7,12.5-1.1c4.1-0.4,8-0.8,11.7-1.2s7.2-0.8,10.5-1.2
	c6.5-0.8,11.9-1.4,15.7-2c3.8-0.5,5.9-0.8,5.9-0.8l-1.5,0.3c-1,0.2-2.5,0.5-4.3,0.9c-1.9,0.4-4.2,0.8-6.8,1.2
	c-2.6,0.5-5.6,1-8.8,1.5c-3.2,0.5-6.7,1-10.4,1.5s-7.6,1-11.7,1.5s-8.3,0.9-12.5,1.3c-4.3,0.4-8.6,0.7-13,0.8s-8.8-0.1-13.1-0.4
	c-4.3-0.4-8.5-0.9-12.6-1.4c-8.1-1.1-15.6-2.4-22.1-3.7c-6.4-1.2-11.7-2.5-15.5-3.3c-1.9-0.4-3.3-0.8-4.3-1.1
	C165.3,409.8,164.8,409.7,164.8,409.7L164.8,409.7z"/>
<path class="st0" d="M303.4,13.4c-13.1,59.4-53.8,201.8-61.7,284.6c-6.1,64.1,6.1,84.7,26.4,94c11.5,5.3,24,8.4,35.1,14.5
	c1.4,0.7,2.8,1.6,3.5,3c0.6,1.1,0.6,2.4,0.4,3.7c-0.9,5.6-39,11.3-44.3,12c-11.9,1.6-23.9,2.1-35.9,1.7
	c-23.6-0.8-46.9-5.1-69.6-11.3c-1.1-0.3-2.1-0.6-3-1.3c-2.4-1.9-1.6-6,0.8-8c2.3-2,5.5-2.5,8.6-3c14.1-2.2,28.5-5.9,39.7-14.6
	c24.6-19.2,21.4-63.9,19.7-91.2c-5.7-87.4-52-256.7-57.3-285.9C216,5.9,252.9,14.1,303.4,13.4L303.4,13.4z"/>
<path class="st1" d="M291,38.4c-9.7,31.5-25.2,104.4-29,116.9c-4.1,13.3-11.5,20.8-22,25.1c-13.4,5.5-30.5-2.3-35.2-15.9
	c-6.1-17.1-21.2-92.7-28.5-132.1C214.2,35.4,252.9,40,291,38.4z"/>
<path d="M223.8,370c0,0,0.3,0.1,0.7,0.4c0.2,0.1,0.5,0.2,0.8,0.4c0.3,0.1,0.7,0.3,1,0.4c0.4,0.2,0.8,0.3,1.3,0.4
	c0.4,0.2,0.9,0.2,1.4,0.4l1.5,0.3c0.5,0.1,1.1,0.1,1.6,0.2c1.1,0.1,2.1,0.1,3.1,0c0.5-0.1,1-0.1,1.5-0.2s0.9-0.1,1.3-0.2
	c0.8-0.2,1.5-0.4,2-0.5s0.8-0.2,0.8-0.2l-0.6,0.6c-0.2,0.2-0.4,0.4-0.7,0.6c-0.3,0.2-0.6,0.5-1,0.6c-0.4,0.2-0.8,0.4-1.3,0.6
	c-0.5,0.2-1,0.3-1.6,0.5c-0.6,0.1-1.1,0.2-1.7,0.2c-0.6,0.1-1.2,0-1.8,0c-0.6-0.1-1.2-0.1-1.8-0.3c-0.6-0.1-1.1-0.3-1.7-0.5
	c-0.5-0.2-1-0.4-1.5-0.7s-0.9-0.5-1.2-0.8c-0.4-0.3-0.7-0.6-0.9-0.8c-0.3-0.3-0.5-0.5-0.6-0.7C223.9,370.2,223.8,370,223.8,370
	L223.8,370z M203.6,393.6h0.6c0.4,0,1,0,1.7,0.1s1.6,0.2,2.6,0.5c1,0.2,2.1,0.5,3.2,0.7c1.2,0.2,2.5,0.5,3.9,0.7
	c1.3,0.2,2.8,0.4,4.3,0.5c0.8,0.1,1.5,0.1,2.3,0.2c0.8,0,1.6,0.1,2.3,0.1c1.6,0,3.2,0.1,4.8,0c1.6,0,3.2-0.1,4.8-0.2
	c1.6-0.1,3.2-0.2,4.7-0.3s3-0.3,4.4-0.4c1.4-0.1,2.7-0.3,3.9-0.4c2.4-0.3,4.5-0.5,5.9-0.6s2.2-0.2,2.2-0.2s-3.1,0.9-7.9,1.9
	c-2.4,0.5-5.2,1-8.3,1.5c-1.5,0.2-3.1,0.4-4.7,0.5c-0.8,0.1-1.6,0.1-2.4,0.2c-0.8,0-1.6,0.1-2.5,0.1c-1.6,0-3.3,0-4.9-0.1
	c-0.8,0-1.6-0.1-2.4-0.2c-0.8-0.1-1.6-0.2-2.3-0.3c-1.5-0.2-3-0.5-4.4-0.8s-2.7-0.7-3.8-1.1c-1.2-0.4-2.2-0.8-3.2-1.1
	c-0.9-0.3-1.7-0.6-2.4-0.8C204.4,393.7,203.6,393.6,203.6,393.6L203.6,393.6z M293.7,33.1c0,0-0.3,1.3-1,3.6s-1.5,5.8-2.7,10.2
	c-0.5,2.2-1.2,4.7-1.8,7.3c-0.6,2.7-1.3,5.6-2.1,8.6c-1.4,6.2-3,13.2-4.8,20.8c-1.7,7.6-3.6,15.9-5.5,24.6s-4,18-6.2,27.5
	c-1.1,4.8-2.2,9.6-3.6,14.5c-0.4,1.3-0.7,2.4-1.2,3.7c-0.4,1.2-1,2.4-1.5,3.6c-1.1,2.4-2.5,4.7-4.1,6.8c-3.2,4.3-7.4,7.8-12.2,10.3
	l-1.8,0.9l-1.8,0.8l-0.1,0.1l-0.2,0.1l-0.2,0.1l-0.5,0.2l-1,0.2l-0.9,0.3l-1,0.2c-2.8,0.7-5.5,0.8-8.3,0.6
	c-5.5-0.4-10.8-2.5-15.2-5.6c-2.2-1.6-4.2-3.5-5.9-5.6c-1.6-2.2-3-4.6-3.9-7.1c-1.7-4.9-2.9-9.9-4.2-14.8c-1.2-4.9-2.3-9.7-3.4-14.5
	c-2.1-9.5-4-18.8-5.8-27.6c-1.8-8.8-3.4-17.1-4.8-24.8c-1.5-7.7-2.8-14.7-3.9-21c-1.1-6.2-2.1-11.7-2.9-16.2s-1.4-8-1.8-10.4
	s-0.6-3.7-0.6-3.7s4.3,20.4,10.8,50.9c3.2,15.3,7.1,33.1,11.5,52.1c1.1,4.7,2.3,9.6,3.5,14.4c0.7,2.4,1.2,4.9,2,7.3
	c0.4,1.2,0.7,2.4,1,3.6c0.4,1.2,0.8,2.5,1.2,3.6c0.8,2.3,2.1,4.4,3.5,6.3c1.6,1.9,3.3,3.6,5.3,5c4,2.8,8.8,4.6,13.7,5
	c0.6,0.1,1.2,0.1,1.8,0.1h1.8l1.8-0.2c0.6-0.1,1.2-0.2,1.7-0.3l0.9-0.2l0.9-0.3l0.9-0.3l0.5-0.2l0.2-0.1c0.1,0-0.1,0,0,0h0.1
	l1.7-0.8l1.7-0.8c4.4-2.3,8.3-5.5,11.3-9.5c1.5-2,2.7-4.1,3.8-6.3c1.1-2.2,1.9-4.5,2.7-6.9c1.4-4.7,2.5-9.6,3.7-14.3
	c4.6-19,8.9-36.7,12.7-51.8c1.9-7.6,3.7-14.5,5.3-20.6c0.8-3.1,1.6-5.9,2.3-8.6c0.7-2.6,1.4-5.1,2-7.3c1.3-4.4,2.3-7.8,3.1-10.1
	C293.3,34.3,293.7,33.1,293.7,33.1L293.7,33.1z"/>
<path d="M175.3,31.3c0,0,7.2-0.2,18,0.1c2.7,0,5.6,0.1,8.7,0.2s6.3,0.2,9.7,0.3c6.7,0.2,13.9,0.5,21.1,0.7c3.6,0.1,7.2,0.3,10.7,0.3
	c3.5,0.1,7,0.2,10.4,0.3c3.4,0,6.6,0.1,9.7,0.1s6,0,8.7,0.1h18.1c0,0-1.8,0.2-4.9,0.6c-1.6,0.2-3.5,0.4-5.7,0.6
	c-1.1,0.1-2.3,0.2-3.5,0.3c-1.2,0.1-2.5,0.2-3.9,0.3c-2.7,0.2-5.6,0.4-8.7,0.5s-6.4,0.2-9.7,0.3c-3.4,0-6.9,0.1-10.4,0
	c-3.5,0-7.1-0.1-10.7-0.2c-3.6-0.2-7.2-0.3-10.7-0.5s-7-0.4-10.4-0.6s-6.6-0.5-9.7-0.7s-6-0.5-8.7-0.7c-5.4-0.5-9.9-0.9-13-1.2
	C177.1,31.5,175.3,31.3,175.3,31.3L175.3,31.3z"/>
</svg>
