<svg id="Layer_1" xmlns="http://www.w3.org/2000/svg" viewBox="0 0 705 705"><style>.st0,.st1{fill:none}.st1{stroke:#000;stroke-width:5;stroke-miterlimit:10}.st2{fill:#f7f723}</style><path class="st0" d="M122.5 0h460v705h-460V0z"/><path d="M287.3 684.7s2.1.4 5.9 1.1c3.7.7 9.1 1.6 15.6 2.6 3.2.5 6.7 1 10.4 1.5s7.6 1 11.7 1.5c4 .5 8.2.9 12.5 1.2 4.2.3 8.6.5 12.9.4s8.7-.4 12.9-.7c4.3-.3 8.5-.7 12.5-1.1 4.1-.4 8-.8 11.7-1.2s7.2-.8 10.5-1.2c6.5-.8 11.9-1.4 15.7-2 3.8-.5 5.9-.8 5.9-.8l-1.5.3c-1 .2-2.5.5-4.3.9-1.9.4-4.2.8-6.8 1.2-2.6.5-5.6 1-8.8 1.5-3.2.5-6.7 1-10.4 1.5s-7.6 1-11.7 1.5-8.3.9-12.5 1.3c-4.3.4-8.6.7-13 .8s-8.8-.1-13.1-.4c-4.3-.4-8.5-.9-12.6-1.4-8.1-1.1-15.6-2.4-22.1-3.7-6.4-1.2-11.7-2.5-15.5-3.3-1.9-.4-3.3-.8-4.3-1.1-1.1-.3-1.6-.4-1.6-.4z"/><path class="st1" d="M425.9 288.4c-13.1 59.4-53.8 201.8-61.7 284.6-6.1 64.1 6.1 84.7 26.4 94 11.5 5.3 24 8.4 35.1 14.5 1.4.7 2.8 1.6 3.5 3 .6 1.1.6 2.4.4 3.7-.9 5.6-39 11.3-44.3 12-11.9 1.6-23.9 2.1-35.9 1.7-23.6-.8-46.9-5.1-69.6-11.3-1.1-.3-2.1-.6-3-1.3-2.4-1.9-1.6-6 .8-8 2.3-2 5.5-2.5 8.6-3 14.1-2.2 28.5-5.9 39.7-14.6 24.6-19.2 21.4-63.9 19.7-91.2-5.7-87.4-52-256.7-57.3-285.9 50.2-5.7 87.1 2.5 137.6 1.8z"/><path class="st2" d="M413.5 313.4c-9.7 31.5-25.2 104.4-29 116.9-4.1 13.3-11.5 20.8-22 25.1-13.4 5.5-30.5-2.3-35.2-15.9-6.1-17.1-21.2-92.7-28.5-132.1 37.9 3 76.6 7.6 114.7 6z"/><path d="M346.3 645s.3.1.7.4c.2.1.5.2.8.4.3.1.7.3 1 .4.4.2.8.3 1.3.4.4.2.9.2 1.4.4l1.5.3c.5.1 1.1.1 1.6.2 1.1.1 2.1.1 3.1 0 .5-.1 1-.1 1.5-.2s.9-.1 1.3-.2c.8-.2 1.5-.4 2-.5s.8-.2.8-.2l-.6.6c-.2.2-.4.4-.7.6-.3.2-.6.5-1 .6-.4.2-.8.4-1.3.6-.5.2-1 .3-1.6.5-.6.1-1.1.2-1.7.2-.6.1-1.2 0-1.8 0-.6-.1-1.2-.1-1.8-.3-.6-.1-1.1-.3-1.7-.5-.5-.2-1-.4-1.5-.7s-.9-.5-1.2-.8c-.4-.3-.7-.6-.9-.8-.3-.3-.5-.5-.6-.7-.5-.5-.6-.7-.6-.7zm-20.2 23.6h.6c.4 0 1 0 1.7.1s1.6.2 2.6.5c1 .2 2.1.5 3.2.7 1.2.2 2.5.5 3.9.7 1.3.2 2.8.4 4.3.5.8.1 1.5.1 2.3.2.8 0 1.6.1 2.3.1 1.6 0 3.2.1 4.8 0 1.6 0 3.2-.1 4.8-.2 1.6-.1 3.2-.2 4.7-.3s3-.3 4.4-.4c1.4-.1 2.7-.3 3.9-.4 2.4-.3 4.5-.5 5.9-.6s2.2-.2 2.2-.2-3.1.9-7.9 1.9c-2.4.5-5.2 1-8.3 1.5-1.5.2-3.1.4-4.7.5-.8.1-1.6.1-2.4.2-.8 0-1.6.1-2.5.1-1.6 0-3.3 0-4.9-.1-.8 0-1.6-.1-2.4-.2-.8-.1-1.6-.2-2.3-.3-1.5-.2-3-.5-4.4-.8s-2.7-.7-3.8-1.1c-1.2-.4-2.2-.8-3.2-1.1-.9-.3-1.7-.6-2.4-.8-1.6-.4-2.4-.5-2.4-.5zm90.1-360.5s-.3 1.3-1 3.6-1.5 5.8-2.7 10.2c-.5 2.2-1.2 4.7-1.8 7.3-.6 2.7-1.3 5.6-2.1 8.6-1.4 6.2-3 13.2-4.8 20.8-1.7 7.6-3.6 15.9-5.5 24.6s-4 18-6.2 27.5c-1.1 4.8-2.2 9.6-3.6 14.5-.4 1.3-.7 2.4-1.2 3.7-.4 1.2-1 2.4-1.5 3.6-1.1 2.4-2.5 4.7-4.1 6.8-3.2 4.3-7.4 7.8-12.2 10.3l-1.8.9-1.8.8-.1.1-.2.1-.2.1-.5.2-1 .2-.9.3-1 .2c-2.8.7-5.5.8-8.3.6-5.5-.4-10.8-2.5-15.2-5.6-2.2-1.6-4.2-3.5-5.9-5.6-1.6-2.2-3-4.6-3.9-7.1-1.7-4.9-2.9-9.9-4.2-14.8-1.2-4.9-2.3-9.7-3.4-14.5-2.1-9.5-4-18.8-5.8-27.6-1.8-8.8-3.4-17.1-4.8-24.8-1.5-7.7-2.8-14.7-3.9-21-1.1-6.2-2.1-11.7-2.9-16.2s-1.4-8-1.8-10.4-.6-3.7-.6-3.7 4.3 20.4 10.8 50.9c3.2 15.3 7.1 33.1 11.5 52.1 1.1 4.7 2.3 9.6 3.5 14.4.7 2.4 1.2 4.9 2 7.3.4 1.2.7 2.4 1 3.6.4 1.2.8 2.5 1.2 3.6.8 2.3 2.1 4.4 3.5 6.3 1.6 1.9 3.3 3.6 5.3 5 4 2.8 8.8 4.6 13.7 5 .6.1 1.2.1 1.8.1h1.8l1.8-.2c.6-.1 1.2-.2 1.7-.3l.9-.2.9-.3.9-.3.5-.2.2-.1c.1 0-.1 0 0 0h.1l1.7-.8 1.7-.8c4.4-2.3 8.3-5.5 11.3-9.5 1.5-2 2.7-4.1 3.8-6.3 1.1-2.2 1.9-4.5 2.7-6.9 1.4-4.7 2.5-9.6 3.7-14.3 4.6-19 8.9-36.7 12.7-51.8 1.9-7.6 3.7-14.5 5.3-20.6.8-3.1 1.6-5.9 2.3-8.6.7-2.6 1.4-5.1 2-7.3 1.3-4.4 2.3-7.8 3.1-10.1 1.1-2.2 1.5-3.4 1.5-3.4z"/><path d="M297.8 306.3s7.2-.2 18 .1c2.7 0 5.6.1 8.7.2s6.3.2 9.7.3c6.7.2 13.9.5 21.1.7 3.6.1 7.2.3 10.7.3 3.5.1 7 .2 10.4.3 3.4 0 6.6.1 9.7.1s6 0 8.7.1h18.1s-1.8.2-4.9.6c-1.6.2-3.5.4-5.7.6-1.1.1-2.3.2-3.5.3-1.2.1-2.5.2-3.9.3-2.7.2-5.6.4-8.7.5s-6.4.2-9.7.3c-3.4 0-6.9.1-10.4 0-3.5 0-7.1-.1-10.7-.2-3.6-.2-7.2-.3-10.7-.5s-7-.4-10.4-.6-6.6-.5-9.7-.7-6-.5-8.7-.7c-5.4-.5-9.9-.9-13-1.2-3.3-.6-5.1-.8-5.1-.8z"/></svg>