<?xml version="1.0" encoding="utf-8"?>
<!-- Generator: Adobe Illustrator 19.2.0, SVG Export Plug-In . SVG Version: 6.00 Build 0)  -->
<svg version="1.1" id="Layer_1" xmlns="http://www.w3.org/2000/svg" xmlns:xlink="http://www.w3.org/1999/xlink" x="0px" y="0px"
	 viewBox="0 0 460 610" style="enable-background:new 0 0 460 610;" xml:space="preserve">
<style type="text/css">
	.st0{fill:none;stroke:#000000;stroke-width:5;stroke-miterlimit:10;}
	.st1{opacity:0.9;fill:url(#SVGID_1_);enable-background:new    ;}
	.st2{fill:#490233;}
</style>
<path class="st0" d="M6588.6-660.6c0.3,38.5,0.2,82.4-5.7,120.5c-2.3,14.7-3.7,31.7-10.6,44.9c-9.4,17.9-18.6,35.9-34,49.5
	c-5.5,4.9-11.5,9.2-17.9,12.8c-4.2,2.3-15.3,5.1-15.9,10.8c-0.4,3.6,3.8,5.7,6.9,7.6c6.9,4.3,10.9,12.3,11.6,20.4
	c1.5,15.4-5.6,30.7-18.9,38.8c-0.8,0.5-1.6,1-1.9,1.8c-0.7,2.1,2.1,3.4,4.2,3.8c12.1,2.1,24,5,35.7,8.7c7.7,2.4,24.3,10.6,12,18.5
	c-7.7,4.9-17,6.2-26,7.3c-24.7,3.1-49.7,6.2-74.5,3.9c-5.6-0.5-11.2-1.4-16.8-2.2l-22.5-3.3c-5.3-0.8-11.8-2.7-12.7-7.9
	c-1.7-10.2,16.6-15.1,23.6-17.2c4.9-1.5,36.5-4.6,35.6-9.3c-0.5-2.4-2.8-3.9-4.8-5.4c-8.9-6.4-15-16.4-16.6-27.2
	c-1.6-10.8,1.3-22.2,7.9-30.9c2.2-2.9,4.9-6,4.4-9.6c-0.2-1.5-1-2.9-2-4.1c-5.1-6.7-15.9-9.5-22.8-14.7c-7.9-6-15.2-12.8-21.6-20.4
	c-12.5-14.5-22.1-31.5-27.6-49.9c-5.2-17.2-6.9-35.3-8.2-53.2c-2.3-31-3.6-62-3.8-93.1c20.2-2.4,42-1.8,62.4-1.4
	C6480.9-660,6588.6-662.7,6588.6-660.6L6588.6-660.6z"/>
<path d="M6462-345.7v1.9c0,0.6,0.1,1.3,0.6,1.9c0.4,0.6,1.2,0.8,2.2,0.8c2.1-0.1,4.5-0.2,7.1-0.2c1.3,0,2.7-0.1,4-0.1
	c1.4-0.1,2.8-0.1,4.1-0.2c1.4-0.1,2.8-0.1,4.1-0.2c1.4-0.1,2.7-0.1,4-0.2c2.6-0.1,5-0.2,7.1-0.3c2-0.1,3.7-0.6,4.6-1.3
	c0.4-0.4,0.7-0.8,0.8-1.1c0.1-0.3,0.2-0.5,0.2-0.5v0.5c-0.1,0.3-0.2,0.8-0.6,1.3s-1.1,1-1.9,1.4c-0.8,0.4-1.8,0.7-2.8,0.8
	c-2.1,0.4-4.5,0.7-7.1,0.9c-1.3,0.1-2.7,0.3-4,0.4c-1.4,0.1-2.8,0.2-4.2,0.2c-1.4,0-2.8,0.1-4.2,0.1h-4.1c-2.6-0.1-5.1-0.2-7.2-0.4
	c-0.5-0.1-1.1-0.1-1.6-0.4s-0.9-0.7-1.1-1.1c-0.4-0.9-0.4-1.7-0.3-2.3s0.2-1.1,0.3-1.4C6461.9-345.5,6462-345.7,6462-345.7
	L6462-345.7z M6461.6-430.3c0,0,0.6,0.2,1.6,0.5c0.5,0.2,1.2,0.3,1.9,0.5s1.6,0.4,2.4,0.5c0.9,0.2,1.9,0.3,2.9,0.5
	c1,0.1,2.1,0.2,3.3,0.3c1.1,0.1,2.3,0.1,3.5,0.2h3.6c1.2,0,2.5,0,3.7-0.1c1.2,0,2.4-0.1,3.6-0.1c2.3-0.1,4.5-0.1,6.3-0.3
	c1.8-0.2,3.2-0.6,4.1-1.2c0.4-0.3,0.8-0.6,1-0.8l0.3-0.3c0,0-0.1,0.1-0.2,0.4c-0.2,0.3-0.4,0.6-0.8,1c-0.8,0.8-2.3,1.6-4.2,2
	c-0.9,0.2-2,0.4-3,0.5c-1.1,0.1-2.2,0.3-3.3,0.4l-3.6,0.3c-1.2,0.1-2.5,0.1-3.7,0.2c-1.3,0-2.5,0-3.7-0.1c-0.6,0-1.2-0.1-1.8-0.1
	c-0.6-0.1-1.2-0.1-1.8-0.2c-1.2-0.1-2.3-0.4-3.4-0.6c-0.5-0.1-1-0.3-1.5-0.4c-0.5-0.2-1-0.3-1.4-0.4c-1.8-0.6-3.2-1.3-4.2-1.8
	C6462.2-430,6461.6-430.3,6461.6-430.3L6461.6-430.3z M6411.5-328.2l0.3,0.3c0.2,0.2,0.5,0.4,1,0.6c0.9,0.5,2.3,1,4.2,1.4
	c1.9,0.4,4.2,0.7,6.8,1.1c2.6,0.4,5.6,0.7,8.9,1.1c3.3,0.3,6.8,0.7,10.6,1c3.7,0.3,7.7,0.5,11.8,0.7c8.2,0.3,17,0.5,25.7,0.6
	c4.4,0.1,8.8,0.1,13.1,0.2c4.3,0,8.5,0.1,12.6,0s8-0.4,11.7-0.8c3.7-0.5,7.2-1.1,10.4-1.7c6.4-1.4,11.6-3,15.2-4.3
	c1.8-0.7,3.2-1.2,4.2-1.6l1.5-0.6c0,0-0.5,0.2-1.4,0.7c-0.9,0.4-2.3,1.1-4.1,1.8c-3.5,1.5-8.7,3.5-15.1,5.1
	c-6.4,1.6-14.1,2.9-22.3,3.2c-4.1,0.2-8.4,0.2-12.7,0.2c-4.3,0-8.7-0.1-13.1-0.1c-4.4-0.1-8.8-0.2-13.1-0.3
	c-4.3-0.1-8.6-0.4-12.7-0.6c-4.1-0.3-8.1-0.6-11.8-1c-3.8-0.4-7.3-0.8-10.6-1.3c-1.6-0.3-3.2-0.5-4.7-0.7c-1.5-0.3-2.9-0.5-4.2-0.8
	c-2.6-0.5-4.9-1-6.8-1.5s-3.3-1.1-4.1-1.7c-0.4-0.3-0.7-0.5-0.9-0.7C6411.6-328.1,6411.5-328.2,6411.5-328.2L6411.5-328.2z"/>
<linearGradient id="SVGID_1_" gradientUnits="userSpaceOnUse" x1="6378.7998" y1="-1045.7888" x2="6584.7002" y2="-1045.7888" gradientTransform="matrix(1 0 0 1 0 507)">
	<stop  offset="1.800000e-02" style="stop-color:#801FE3"/>
	<stop  offset="1" style="stop-color:#B7A7FF"/>
</linearGradient>
<path class="st1" d="M6378.8-632.4c1.4,24.4,2.7,48.8,4.1,73.2c0.4,7.9,0.9,15.9,2.2,23.7c1.8,11.1,5.4,21.8,8.9,32.5
	c3,9.1,6,18.2,11.1,26.3c17.8,28.1,51.5,32.7,81.9,31.3c10.6-0.5,21.3-1.5,31.5-4.7c66.9-21.3,65.2-117,66.1-172.7
	c0-2.6,0.1-5.1,0.1-7.7C6516-628.3,6447.2-626.5,6378.8-632.4L6378.8-632.4z"/>
<path d="M6373.7-652.1c0,0,0.6,8.1,1.5,22.2c0.5,7.1,1,15.6,1.7,25.5c0.6,9.8,1.4,20.9,2.1,33.1c0.4,6.1,0.7,12.4,1.3,18.9
	c0.5,6.5,1.4,13.2,3,19.9c1.6,6.7,3.7,13.5,6,20.4c2.4,6.9,4.5,14,7.5,20.9c0.8,1.7,1.5,3.4,2.4,5.1c0.9,1.6,1.8,3.3,2.8,4.8
	c1.1,1.6,2.2,3.1,3.4,4.7c1.2,1.4,2.5,2.8,3.7,4.3c5.3,5.5,11.7,10,18.8,13.2c7.1,3.3,14.8,5.4,22.6,6.6c7.9,1.3,15.9,1.7,23.9,1.7
	c8-0.1,16.1-0.4,24-1.5c3.9-0.5,7.9-1.2,11.7-2.2c1-0.3,1.9-0.5,2.8-0.8l0.7-0.2h0.1l0.2-0.1l0.4-0.1l1.4-0.5l2.8-1
	c0.5-0.2,0.9-0.3,1.4-0.5l1.3-0.6c7.1-3.1,13.7-7.4,19.4-12.5c5.7-5.1,10.5-11.1,14.4-17.5c4-6.3,7.1-13.1,9.7-19.8
	c2.6-6.8,4.6-13.6,6.3-20.3c3.2-13.5,5-26.5,6.2-38.5c1.1-12.1,1.7-23.2,2-33c0.3-9.9,0.5-18.4,0.7-25.5c0.2-14.2,0.4-22.2,0.4-22.2
	s0,2,0.1,5.8c0,3.8,0.1,9.4,0.2,16.4c0,7.1,0,15.7-0.2,25.5c-0.1,9.9-0.5,21-1.5,33.1c-1,12.1-2.6,25.2-5.7,38.9
	c-1.6,6.8-3.6,13.7-6.1,20.6s-5.7,13.8-9.8,20.3c-4,6.5-9,12.7-14.8,18.1c-5.9,5.4-12.7,9.8-20.2,13.1l-1.4,0.6
	c-0.5,0.2-0.9,0.4-1.4,0.5l-2.8,1l-1.4,0.5l-0.4,0.1l-0.2,0.1l-0.2,0.1l-0.7,0.2c-1,0.3-2,0.6-2.9,0.8c-3.9,1-8,1.8-12,2.4
	c-8.1,1.1-16.2,1.5-24.4,1.6c-8.2,0-16.3-0.5-24.4-1.8c-8-1.3-16-3.5-23.3-7c-7.4-3.4-14.1-8.1-19.6-13.9c-1.3-1.5-2.6-3.1-3.9-4.6
	c-1.1-1.6-2.2-3.2-3.3-4.7c-2.2-3.4-3.9-6.8-5.4-10.4c-3-7.1-5.2-14.2-7.5-21.2c-2.2-7-4.3-13.9-5.8-20.7
	c-1.6-6.9-2.4-13.6-2.8-20.2c-0.5-6.6-0.7-12.9-1-18.9c-0.6-12.1-1.1-23.2-1.6-33.1c-0.5-9.9-0.8-18.4-1.2-25.5
	C6374-644.1,6373.7-652.1,6373.7-652.1L6373.7-652.1z"/>
<path d="M6374.1-636.7c0,0,0.8,0,2.4,0.1s3.8,0.2,6.7,0.3c2.9,0.2,6.4,0.3,10.5,0.5c4,0.2,8.6,0.3,13.6,0.5s10.4,0.3,16.1,0.5
	s11.7,0.2,17.9,0.4c6.2,0.1,12.6,0.1,19.2,0.2c6.5,0.1,13.2,0,19.8,0.1c6.6,0,13.3,0,19.8-0.1s13-0.1,19.2-0.2
	c12.5-0.1,24.1-0.2,34-0.3c10-0.1,18.3-0.1,24.1-0.1h9.1c0,0-0.8,0.1-2.4,0.2c-1.6,0.1-3.8,0.2-6.7,0.4c-5.8,0.3-14.1,0.8-24.1,1.3
	s-21.6,0.9-34,1.3c-6.2,0.1-12.7,0.4-19.2,0.4c-6.5,0.1-13.2,0.1-19.8,0.2c-6.6,0-13.3,0-19.8-0.2c-6.5-0.1-13-0.3-19.2-0.4
	c-6.2-0.2-12.3-0.4-18-0.8c-2.9-0.2-5.6-0.3-8.3-0.5c-2.7-0.2-5.3-0.4-7.8-0.5c-2.5-0.2-4.9-0.3-7.1-0.5c-2.3-0.2-4.4-0.4-6.4-0.6
	c-4-0.4-7.6-0.7-10.4-1c-2.9-0.3-5.2-0.6-6.7-0.7C6374.9-636.6,6374.1-636.7,6374.1-636.7L6374.1-636.7z"/>
<path class="st0" d="M143.3,11.7c-11.9,33.9-23.4,73.7-31.4,109c-7.9,35.2-12.6,73.5-9.1,109.5c3.9,40.6,28.5,77.8,59.5,103.6
	c24.7,20.5,46,35.3,55.2,67.8c4.3,15.1,3.4,32.4,3.6,48c0.2,16.9,0,33.8-0.8,50.7c-0.6,11.6-0.5,23.1-1.5,34.6
	c-0.9,10.8-0.2,21-5.9,30.5c-0.1,0.1-19,1.9-22.8,2.6c-8.3,1.5-42.1,6.3-49.9,10.9c-1.1,0.7-2.3,1.4-3,2.5c-1,1.6-1,3.8-0.9,5.8
	c0.1,2.4,0.3,4.9,1.8,6.7c1,1.1,2.3,1.8,3.6,2.4c9,4,28.9,8.7,46,9.6c9.3,0.5,40.8,0.7,62.1,1.1c20.8,0.4,60.4-2.8,73.5-12.9
	c2.1-5.5,0.4-9.6,0-11.2c-1.7-1.6-11.7-11.4-47.2-16c-5-0.7-10-0.9-14.9-1.1c-4.8-0.1-14.8,0.3-15,0.1c-0.2-0.1-5.6-8.8-7.5-23.7
	c-2.9-22.4-2-45.5-2.2-68.2c-0.7-67.1,8-93.9,51.7-131.5c31.4-27,57.5-63.9,65.7-104.9c6.7-33.8,5.7-67.8-2.8-101.1
	c-13.7-54.1-18.5-86.6-31.4-126.1c-0.1-0.3-0.3-0.5-0.6-0.5C235.8,14.2,142,11.2,143.3,11.7L143.3,11.7z"/>
<path class="st2" d="M292.1,213.4c-43-0.2-95.1-0.3-138.1-0.5c-7.4,0-14.9-0.1-22.3-0.8c-5.2-0.5-14.3-0.8-21.1-2.8
	c-0.4,30.8,5.3,61.3,24.9,86.9c6.5,8.5,14.2,15.9,22,23.2c5.8,5.5,11.8,10.9,18.3,15.5c20.9,14.7,47.9,19.8,73.2,15.9
	c6.6-1,13.1-2.6,19.3-5.2c24.4-10.3,43.3-32,56.3-54.5c14-24.3,24.3-52.9,26.4-81.4C331.7,213.5,311.8,213.5,292.1,213.4
	L292.1,213.4z"/>
<path d="M217.4,566v-0.3h0.1c-0.1,0.5,0.2,1,0.5,1.3c0.4,0.3,0.8,0.5,1.3,0.6s1.1,0.2,1.6,0.3s1.1,0.1,1.6,0.2
	c1.1,0.1,2.1,0.2,3.2,0.2c1.1,0.1,2.1,0.1,3.2,0.1s2.2,0,3.3,0.1l3.3,0.1c1.1,0,2.1,0,3-0.3c1-0.3,1.9-0.9,2.7-1.6
	c-0.5,1-1.3,1.9-2.3,2.5s-2.2,0.9-3.4,1c-1.1,0.1-2.2,0.2-3.3,0.2c-1.1,0.1-2.2,0.1-3.3,0.1c-1.1,0-2.2-0.1-3.3-0.2
	c-1.1-0.1-2.2-0.3-3.3-0.6c-0.5-0.1-1.1-0.3-1.6-0.5c-0.6-0.2-1-0.4-1.6-0.6c-0.6-0.3-1.1-0.7-1.4-1.2s-0.5-1.2-0.2-1.8l0.2-0.4
	l-0.1,0.4L217.4,566L217.4,566z M142.3,585c0,0,0.1,0.1,0.3,0.4c0.2,0.3,0.5,0.7,0.9,1.2c0.9,1,2.4,2.2,4.7,3.2
	c1.1,0.5,2.4,0.9,3.9,1.1c1.5,0.2,3.1,0.4,4.8,0.7c3.4,0.4,7.3,0.9,11.5,1.4s8.8,1,13.6,1.5c2.4,0.2,4.9,0.5,7.4,0.7
	c2.5,0.1,5.2,0.3,7.8,0.5c10.6,0.6,21.9,1.3,33.2,2c2.8,0.2,5.7,0.5,8.4,0.5c2.8,0,5.6,0,8.4-0.1s5.5-0.1,8.2-0.3
	c1.4-0.1,2.7-0.1,4-0.2c1.3-0.1,2.7-0.3,4-0.4c10.5-1.2,20.4-2.2,28.8-3.1c4.2-0.5,8.1-0.9,11.4-1.7c3.3-0.7,6.2-1.7,8.4-2.8
	c2.2-1.1,3.8-2.1,4.9-2.9c1-0.8,1.6-1.3,1.6-1.3s-0.5,0.5-1.5,1.4c-1,0.8-2.6,2-4.8,3.2c-2.2,1.2-5,2.3-8.4,3.2s-7.2,1.5-11.4,2.1
	c-8.4,1.1-18.2,2.5-28.7,3.8c-1.3,0.2-2.6,0.3-4,0.5c-1.4,0.1-2.7,0.2-4.1,0.3c-2.7,0.1-5.5,0.2-8.3,0.3s-5.6,0.1-8.4,0.1
	c-2.9,0-5.7-0.3-8.5-0.4c-11.3-0.8-22.6-1.5-33.2-2.3l-7.8-0.6c-2.6-0.2-5.1-0.5-7.5-0.8c-4.8-0.6-9.4-1.2-13.6-1.8
	s-8.1-1.2-11.5-1.8c-1.7-0.3-3.3-0.6-4.8-0.9c-1.5-0.3-2.8-0.8-3.9-1.3c-2.3-1.1-3.7-2.5-4.6-3.5c-0.4-0.5-0.7-0.9-0.9-1.2
	C142.4,585.1,142.3,585,142.3,585L142.3,585z M106,200.3c0,0,0.9,0.3,2.7,0.7c1.8,0.5,4.3,1.1,7.7,1.8c3.3,0.7,7.4,1.3,12.1,1.8
	c4.7,0.5,10,0.7,15.9,0.7c23.3-0.1,54.4-0.2,85.5-0.3c15.6-0.1,31.1-0.2,45.7-0.2c7.3,0.1,14.3,0.1,21,0.2s13,0.1,18.8,0
	s11.1-0.3,15.8-0.6c4.7-0.3,8.8-0.8,12.2-1.2c1.7-0.2,3.2-0.4,4.5-0.6s2.4-0.4,3.3-0.5c1.8-0.3,2.8-0.5,2.8-0.5l0.1,0.3
	c0,0-0.9,0.2-2.7,0.7c-0.9,0.2-2,0.5-3.3,0.8s-2.8,0.6-4.5,0.9s-3.5,0.6-5.6,1c-2,0.3-4.2,0.6-6.6,0.9c-4.7,0.5-10.1,1-15.9,1.3
	s-12.2,0.4-18.9,0.5c-6.7,0.1-13.7,0-21,0c-14.6-0.1-30.1-0.3-45.7-0.5s-31.1-0.3-45.7-0.5c-7.3-0.1-14.3-0.2-21-0.2
	c-6.7-0.1-13-0.1-18.8-0.3c-5.8-0.1-11.2-0.4-15.9-1c-4.7-0.5-8.8-1.3-12.1-2s-5.9-1.4-7.7-1.9c-1.7-0.5-2.7-0.8-2.7-0.8L106,200.3
	L106,200.3z"/>
<path d="M146.3,20.1c0,0-0.8,3-2.2,8.5c-1.5,5.6-3.6,13.7-6.4,24.1s-6.2,22.9-9.9,37.4c-1.8,7.2-3.7,14.9-5.6,23.1
	c-1.8,8.2-3.7,16.8-5.4,25.8s-3.2,18.5-4.5,28.3c-1.2,9.8-2.2,20-2.5,30.5s0,21.3,1.5,32.1c1.5,10.9,4.1,21.8,8.3,32.4
	c4.2,10.5,10.1,20.6,17.6,29.6c7.5,9,16.4,17,25.2,25.2c4.5,4,9.1,7.9,14.1,11.1l1.9,1.3l1.9,1.1c1.3,0.8,2.6,1.5,3.9,2.2
	s2.7,1.4,4,2c1.4,0.6,2.7,1.3,4.1,1.8c11.1,4.5,23.2,6.9,35.3,7.2c6,0.2,12.1-0.2,18.1-1.1c6-0.8,11.9-2.2,17.5-4.3
	c0.7-0.3,1.4-0.5,2.1-0.8c0.6-0.2,1.4-0.6,2-0.9c1.4-0.6,2.8-1.2,4.1-2c2.6-1.3,5.2-2.9,7.8-4.5c5-3.2,9.8-6.9,14.1-11
	c8.8-8.1,16.3-17.3,22.8-27.1c3.2-4.9,6.1-9.9,8.9-15.1c2.8-5.1,5.2-10.3,7.5-15.5c9.1-20.9,14.6-42.7,15.6-63.5
	c0.4-10.4-0.2-20.6-1.5-30.4s-3.1-19.2-5.1-28.1c-2-8.9-4.3-17.4-6.3-25.6c-2-8.1-4-15.8-5.8-23.1c-3.6-14.5-6.8-27.1-9.4-37.5
	c-1.3-5.2-2.5-9.8-3.5-13.9c-1-4-2-7.4-2.9-10.2c-0.9-2.7-1.6-4.8-2.2-6.2c-0.5-1.4-0.8-2.1-0.8-2.1l0.9,2.1
	c0.6,1.4,1.4,3.4,2.3,6.1s2,6.1,3.1,10.1s2.3,8.6,3.7,13.8c2.7,10.4,6.1,23,9.9,37.4c1.9,7.2,3.9,14.9,6.1,23
	c2.1,8.1,4.5,16.6,6.6,25.6s4.1,18.4,5.4,28.2c1.4,9.8,2.1,20.2,1.8,30.8c-0.8,21.2-6.2,43.3-15.4,64.5c-2.3,5.3-4.8,10.6-7.6,15.8
	c-2.7,5.2-5.7,10.3-9,15.3c-6.5,10-14.2,19.4-23.1,27.7c-4.5,4.1-9.3,8-14.5,11.3c-2.6,1.6-5.2,3.2-8,4.6c-1.4,0.8-2.8,1.3-4.1,2
	c-0.7,0.3-1.3,0.6-2.1,1c-0.7,0.3-1.4,0.6-2.2,0.9c-5.8,2.2-11.9,3.6-18.1,4.5c-6.1,0.9-12.4,1.3-18.6,1.1
	c-12.4-0.3-24.8-2.8-36.3-7.5c-1.5-0.5-2.8-1.2-4.3-1.9c-1.4-0.6-2.8-1.3-4.2-2.1c-0.7-0.4-1.4-0.7-2.1-1.1l-2-1.2l-2-1.2l-1.9-1.3
	c-5.2-3.4-9.9-7.3-14.4-11.4s-8.8-8.2-13.2-12.4c-4.3-4.2-8.4-8.5-12.3-13.1c-7.6-9.2-13.6-19.6-17.9-30.4c-4.3-10.8-7-22-8.4-33
	c-1.4-11.1-1.6-22-1.3-32.5c0.4-10.6,1.5-20.8,2.8-30.6c1.4-9.8,3-19.3,4.7-28.3c3.5-18.1,7.7-34.4,11.5-48.9
	c3.9-14.4,7.5-26.9,10.4-37.3c2.9-10.3,5.2-18.4,6.8-23.9C145.5,23,146.3,20.1,146.3,20.1L146.3,20.1z"/>
</svg>
