<svg id="Layer_1" xmlns="http://www.w3.org/2000/svg" viewBox="0 0 705 705"><style>.st0,.st1{fill:none}.st1{stroke:#000;stroke-width:5;stroke-miterlimit:10}.st2{opacity:.9;fill:url(#SVGID_1_);enable-background:new}.st3{opacity:.8}.st4{fill:url(#SVGID_2_)}.st5{fill:url(#SVGID_3_)}</style><path class="st0" d="M122.5 0h460v705h-460V0z"/><path class="st1" d="M6711.1-565.6c.3 38.5.2 82.4-5.7 120.5-2.3 14.7-3.7 31.7-10.6 44.9-9.4 17.9-18.6 35.9-34 49.5-5.5 4.9-11.5 9.2-17.9 12.8-4.2 2.3-15.3 5.1-15.9 10.8-.4 3.6 3.8 5.7 6.9 7.6 6.9 4.3 10.9 12.3 11.6 20.4 1.5 15.4-5.6 30.7-18.9 38.8-.8.5-1.6 1-1.9 1.8-.7 2.1 2.1 3.4 4.2 3.8 12.1 2.1 24 5 35.7 8.7 7.7 2.4 24.3 10.6 12 18.5-7.7 4.9-17 6.2-26 7.3-24.7 3.1-49.7 6.2-74.5 3.9-5.6-.5-11.2-1.4-16.8-2.2l-22.5-3.3c-5.3-.8-11.8-2.7-12.7-7.9-1.7-10.2 16.6-15.1 23.6-17.2 4.9-1.5 36.5-4.6 35.6-9.3-.5-2.4-2.8-3.9-4.8-5.4-8.9-6.4-15-16.4-16.6-27.2-1.6-10.8 1.3-22.2 7.9-30.9 2.2-2.9 4.9-6 4.4-9.6-.2-1.5-1-2.9-2-4.1-5.1-6.7-15.9-9.5-22.8-14.7-7.9-6-15.2-12.8-21.6-20.4-12.5-14.5-22.1-31.5-27.6-49.9-5.2-17.2-6.9-35.3-8.2-53.2-2.3-31-3.6-62-3.8-93.1 20.2-2.4 42-1.8 62.4-1.4 52.8 1.1 160.5-1.6 160.5.5z"/><path d="M6584.5-250.7v1.9c0 .6.1 1.3.6 1.9.4.6 1.2.8 2.2.8 2.1-.1 4.5-.2 7.1-.2 1.3 0 2.7-.1 4-.1 1.4-.1 2.8-.1 4.1-.2 1.4-.1 2.8-.1 4.1-.2 1.4-.1 2.7-.1 4-.2 2.6-.1 5-.2 7.1-.3 2-.1 3.7-.6 4.6-1.3.4-.4.7-.8.8-1.1.1-.3.2-.5.2-.5v.5c-.1.3-.2.8-.6 1.3s-1.1 1-1.9 1.4-1.8.7-2.8.8c-2.1.4-4.5.7-7.1.9-1.3.1-2.7.3-4 .4-1.4.1-2.8.2-4.2.2-1.4 0-2.8.1-4.2.1h-4.1c-2.6-.1-5.1-.2-7.2-.4-.5-.1-1.1-.1-1.6-.4-.5-.3-.9-.7-1.1-1.1-.4-.9-.4-1.7-.3-2.3s.2-1.1.3-1.4c-.1-.3 0-.5 0-.5zm-.4-84.6s.6.2 1.6.5c.5.2 1.2.3 1.9.5s1.6.4 2.4.5c.9.2 1.9.3 2.9.5 1 .1 2.1.2 3.3.3 1.1.1 2.3.1 3.5.2h3.6c1.2 0 2.5 0 3.7-.1 1.2 0 2.4-.1 3.6-.1 2.3-.1 4.5-.1 6.3-.3 1.8-.2 3.2-.6 4.1-1.2.4-.3.8-.6 1-.8l.3-.3s-.1.1-.2.4c-.2.3-.4.6-.8 1-.8.8-2.3 1.6-4.2 2-.9.2-2 .4-3 .5-1.1.1-2.2.3-3.3.4l-3.6.3c-1.2.1-2.5.1-3.7.2-1.3 0-2.5 0-3.7-.1-.6 0-1.2-.1-1.8-.1-.6-.1-1.2-.1-1.8-.2-1.2-.1-2.3-.4-3.4-.6-.5-.1-1-.3-1.5-.4-.5-.2-1-.3-1.4-.4-1.8-.6-3.2-1.3-4.2-1.8-1-.6-1.6-.9-1.6-.9zM6534-233.2l.3.3c.2.2.5.4 1 .6.9.5 2.3 1 4.2 1.4 1.9.4 4.2.7 6.8 1.1 2.6.4 5.6.7 8.9 1.1 3.3.3 6.8.7 10.6 1 3.7.3 7.7.5 11.8.7 8.2.3 17 .5 25.7.6 4.4.1 8.8.1 13.1.2 4.3 0 8.5.1 12.6 0s8-.4 11.7-.8c3.7-.5 7.2-1.1 10.4-1.7 6.4-1.4 11.6-3 15.2-4.3 1.8-.7 3.2-1.2 4.2-1.6l1.5-.6s-.5.2-1.4.7c-.9.4-2.3 1.1-4.1 1.8-3.5 1.5-8.7 3.5-15.1 5.1s-14.1 2.9-22.3 3.2c-4.1.2-8.4.2-12.7.2-4.3 0-8.7-.1-13.1-.1-4.4-.1-8.8-.2-13.1-.3-4.3-.1-8.6-.4-12.7-.6-4.1-.3-8.1-.6-11.8-1-3.8-.4-7.3-.8-10.6-1.3-1.6-.3-3.2-.5-4.7-.7-1.5-.3-2.9-.5-4.2-.8-2.6-.5-4.9-1-6.8-1.5s-3.3-1.1-4.1-1.7c-.4-.3-.7-.5-.9-.7-.3-.2-.4-.3-.4-.3z"/><linearGradient id="SVGID_1_" gradientUnits="userSpaceOnUse" x1="6501.3" y1="1150.789" x2="6707.2" y2="1150.789" gradientTransform="matrix(1 0 0 -1 0 707)"><stop offset=".018" stop-color="#801fe3"/><stop offset="1" stop-color="#b7a7ff"/></linearGradient><path class="st2" d="M6501.3-537.4c1.4 24.4 2.7 48.8 4.1 73.2.4 7.9.9 15.9 2.2 23.7 1.8 11.1 5.4 21.8 8.9 32.5 3 9.1 6 18.2 11.1 26.3 17.8 28.1 51.5 32.7 81.9 31.3 10.6-.5 21.3-1.5 31.5-4.7 66.9-21.3 65.2-117 66.1-172.7 0-2.6.1-5.1.1-7.7-68.7 2.2-137.5 4-205.9-1.9z"/><path d="M6496.2-557.1s.6 8.1 1.5 22.2c.5 7.1 1 15.6 1.7 25.5.6 9.8 1.4 20.9 2.1 33.1.4 6.1.7 12.4 1.3 18.9.5 6.5 1.4 13.2 3 19.9 1.6 6.7 3.7 13.5 6 20.4 2.4 6.9 4.5 14 7.5 20.9.8 1.7 1.5 3.4 2.4 5.1.9 1.6 1.8 3.3 2.8 4.8 1.1 1.6 2.2 3.1 3.4 4.7 1.2 1.4 2.5 2.8 3.7 4.3 5.3 5.5 11.7 10 18.8 13.2 7.1 3.3 14.8 5.4 22.6 6.6 7.9 1.3 15.9 1.7 23.9 1.7 8-.1 16.1-.4 24-1.5 3.9-.5 7.9-1.2 11.7-2.2 1-.3 1.9-.5 2.8-.8l.7-.2h.1l.2-.1.4-.1 1.4-.5 2.8-1c.5-.2.9-.3 1.4-.5l1.3-.6c7.1-3.1 13.7-7.4 19.4-12.5 5.7-5.1 10.5-11.1 14.4-17.5 4-6.3 7.1-13.1 9.7-19.8 2.6-6.8 4.6-13.6 6.3-20.3 3.2-13.5 5-26.5 6.2-38.5 1.1-12.1 1.7-23.2 2-33 .3-9.9.5-18.4.7-25.5.2-14.2.4-22.2.4-22.2s0 2 .1 5.8c0 3.8.1 9.4.2 16.4 0 7.1 0 15.7-.2 25.5-.1 9.9-.5 21-1.5 33.1s-2.6 25.2-5.7 38.9c-1.6 6.8-3.6 13.7-6.1 20.6s-5.7 13.8-9.8 20.3c-4 6.5-9 12.7-14.8 18.1-5.9 5.4-12.7 9.8-20.2 13.1l-1.4.6c-.5.2-.9.4-1.4.5l-2.8 1-1.4.5-.4.1-.2.1-.2.1-.7.2c-1 .3-2 .6-2.9.8-3.9 1-8 1.8-12 2.4-8.1 1.1-16.2 1.5-24.4 1.6-8.2 0-16.3-.5-24.4-1.8-8-1.3-16-3.5-23.3-7-7.4-3.4-14.1-8.1-19.6-13.9-1.3-1.5-2.6-3.1-3.9-4.6-1.1-1.6-2.2-3.2-3.3-4.7-2.2-3.4-3.9-6.8-5.4-10.4-3-7.1-5.2-14.2-7.5-21.2-2.2-7-4.3-13.9-5.8-20.7-1.6-6.9-2.4-13.6-2.8-20.2-.5-6.6-.7-12.9-1-18.9-.6-12.1-1.1-23.2-1.6-33.1-.5-9.9-.8-18.4-1.2-25.5-.7-14.2-1-22.2-1-22.2z"/><path d="M6496.6-541.7s.8 0 2.4.1 3.8.2 6.7.3c2.9.2 6.4.3 10.5.5 4 .2 8.6.3 13.6.5s10.4.3 16.1.5 11.7.2 17.9.4c6.2.1 12.6.1 19.2.2 6.5.1 13.2 0 19.8.1 6.6 0 13.3 0 19.8-.1s13-.1 19.2-.2c12.5-.1 24.1-.2 34-.3 10-.1 18.3-.1 24.1-.1h9.1s-.8.1-2.4.2c-1.6.1-3.8.2-6.7.4-5.8.3-14.1.8-24.1 1.3s-21.6.9-34 1.3c-6.2.1-12.7.4-19.2.4-6.5.1-13.2.1-19.8.2-6.6 0-13.3 0-19.8-.2-6.5-.1-13-.3-19.2-.4-6.2-.2-12.3-.4-18-.8-2.9-.2-5.6-.3-8.3-.5-2.7-.2-5.3-.4-7.8-.5-2.5-.2-4.9-.3-7.1-.5-2.3-.2-4.4-.4-6.4-.6-4-.4-7.6-.7-10.4-1-2.9-.3-5.2-.6-6.7-.7-1.7-.4-2.5-.5-2.5-.5z"/><g class="st3"><linearGradient id="SVGID_2_" gradientUnits="userSpaceOnUse" x1="460.631" y1="282.91" x2="460.631" y2="282.296" gradientTransform="matrix(1 0 0 -1 0 707)"><stop offset="0" stop-color="#efbf20"/><stop offset="1" stop-color="#aa3800"/></linearGradient><path class="st4" d="M460.8 424.1c-.3.2-.4.4-.3.6l.3-.6z"/><linearGradient id="SVGID_3_" gradientUnits="userSpaceOnUse" x1="355.3" y1="287.604" x2="355.3" y2="154.592" gradientTransform="matrix(1 0 0 -1 0 707)"><stop offset="0" stop-color="#efbf20"/><stop offset="1" stop-color="#aa3800"/></linearGradient><path class="st5" d="M254 422.5c-1.3.2-2.5.3-3.8.4 13.6 23.3 27.3 46.6 40.9 70 11.5 19.6 23.7 40 43.1 51.6 29.8 18 55.7 3.1 72.8-22.8 20.2-30.8 36.4-60.9 53.4-97-68.8 3.4-138.1-11.5-206.4-2.2z"/></g><path class="st1" d="M487.8 399.5c-25.2 42.9-50.3 85.2-76.7 127.4l-27 43.2c-2.9 4.6-5.8 9.8-4.6 15 1.3 5.5 6.8 8.7 11.4 11.9 23.3 15.9 32.2 40.6 22.6 67.7-2.1 6.1-5.2 11.9-9.8 16.5-3.1 3.1-6.7 5.5-10.5 7.7-19.6 11.5-43 17.3-65.1 9.6-19-6.6-34.6-23.2-38.3-42.9-4.8-25.3 10.5-51.7 32.6-64.8 3.9-2.3 8.7-6.3 6.5-10.2-34.3-59.6-73.7-123.8-111.7-181.1 19.6-.8 200.9 1.1 270.6 0z"/><path d="M331.7 567.8s.6.3 1.7 1c.5.3 1.2.7 1.9 1l1.2.6c.4.2.9.4 1.4.6l1.5.6c.5.2 1.1.4 1.6.5.5.2 1.1.4 1.7.5s1.2.3 1.8.5c1.3.2 2.5.5 3.9.6 1.3.2 2.7.2 4 .3 1.4 0 2.7 0 4-.2 1.3-.1 2.6-.3 3.9-.5.6-.1 1.2-.3 1.8-.4.6-.1 1.2-.2 1.7-.4.6-.2 1.1-.3 1.6-.5s1-.4 1.5-.5c.5-.2.9-.4 1.4-.5.4-.2.8-.4 1.2-.5.8-.3 1.4-.6 2-.9 1.1-.6 1.7-.9 1.7-.9s-.5.5-1.5 1.2c-.2.2-.5.4-.8.6-.3.2-.6.4-1 .7-.4.2-.7.5-1.2.7-.4.2-.9.5-1.4.7s-1 .5-1.5.7-1.1.4-1.7.7l-1.8.6c-.6.2-1.2.4-1.9.5-1.3.2-2.7.6-4.1.7-1.4.2-2.8.2-4.3.2-1.4-.1-2.9-.1-4.2-.4-1.4-.1-2.7-.5-4-.8-.6-.2-1.3-.4-1.9-.6-.6-.2-1.2-.4-1.8-.7-.6-.2-1.1-.5-1.6-.7s-1-.5-1.5-.8-.9-.5-1.3-.7c-.4-.3-.8-.5-1.1-.8-.4-.2-.7-.5-1-.7s-.5-.5-.8-.7c-.6-.8-1.1-1.3-1.1-1.3zM241.2 406s3 4.9 8.2 13.5c2.6 4.3 5.8 9.5 9.4 15.5s7.7 12.7 12.1 20.1 9.2 15.4 14.2 23.9c5.1 8.5 10.3 17.4 16.2 26.4 5.9 8.9 12.6 17.7 21 25 4.2 3.6 8.8 6.9 13.8 9.5 2.4 1.3 5 2.4 7.6 3.3 2.6.9 5.3 1.6 8.1 2 5.5.9 11.1.6 16.4-.8 5.3-1.4 10.4-3.8 14.9-6.9 2.3-1.6 4.4-3.3 6.5-5.1 2-1.8 4-3.8 5.8-5.8s3.5-4.1 5.1-6.3 3.1-4.4 4.6-6.6c5.9-9 11.4-17.8 16.5-26.2 5.1-8.4 9.6-16.5 13.8-24.1 4.1-7.6 7.8-14.5 11-20.7s5.9-11.6 8.2-16.1c4.4-9 7-14.1 7-14.1s-.6 1.3-1.7 3.8-2.7 6.1-4.8 10.6c-2.1 4.6-4.7 10.1-7.7 16.4s-6.5 13.4-10.5 21-8.4 15.8-13.4 24.4c-4.9 8.6-10.3 17.5-16.2 26.5-5.7 9.1-13 18.1-22.5 24.7-4.7 3.3-10.1 5.9-15.8 7.4-5.7 1.5-11.8 1.8-17.6.9-2.9-.5-5.8-1.2-8.6-2.2-2.8-1-5.5-2.1-8.1-3.6-5.1-2.7-9.9-6.1-14.2-9.9-8.6-7.6-15.5-16.7-21.4-25.7-5.9-9.1-10.9-18.2-15.9-26.7-4.9-8.6-9.5-16.6-13.8-24.1s-8.2-14.3-11.6-20.4-6.4-11.4-8.9-15.8c-4.9-8.8-7.7-13.8-7.7-13.8z"/><path d="M251.7 417.1s.8-.1 2.3-.3c1.5-.2 3.7-.6 6.5-1 1.4-.2 2.9-.4 4.6-.6s3.5-.4 5.5-.6 4.1-.4 6.3-.6c2.2-.2 4.5-.3 7-.4 2.4-.1 5-.3 7.6-.4s5.3-.1 8.1-.2 5.6-.1 8.6-.1c2.9 0 5.9 0 8.9.1 6.1.2 12.3.3 18.7.6 6.4.3 12.8.7 19.3 1 12.9.9 25.8 1.8 37.9 2.6 3 .2 6 .4 8.9.5 2.9.2 5.8.4 8.5.5 2.8.1 5.5.3 8.1.4s5.1.2 7.5.3c2.4.1 4.7.2 6.9.3 2.2 0 4.3.1 6.3.1s3.8.1 5.5.1h13.6s-.8.1-2.3.2-3.7.3-6.6.4c-1.4.1-3 .2-4.7.3-1.7.1-3.5.1-5.5.2s-4.1.1-6.3.2h-14.6c-2.6-.1-5.3-.1-8.1-.2-5.6-.1-11.4-.4-17.5-.7-6.1-.3-12.3-.6-18.7-1-6.3-.4-12.8-.8-19.2-1.2-6.4-.4-12.9-.8-19.2-1.1-6.3-.4-12.6-.6-18.6-.9-3-.1-6-.2-8.9-.2-2.9-.1-5.8-.2-8.5-.1h-8.1c-2.6 0-5.1.1-7.5.1-2.4.1-4.7.1-6.9.2s-4.3.2-6.3.3c-2 .1-3.8.2-5.5.3-1.7.1-3.3.3-4.7.4-2.8.3-5 .4-6.5.5h-2.4z"/></svg>