<svg id="Layer_1" xmlns="http://www.w3.org/2000/svg" viewBox="0 0 460 298.9"><style>.st0{opacity:.8;fill:#f5e2aa;enable-background:new}.st1,.st2{fill:none;stroke:#000;stroke-width:5;stroke-miterlimit:10}.st2{stroke-width:2}</style><path class="st0" d="M366.1 189.4c-.8-12.1-2.5-24.2-4.8-36.1-4.5-23.5-11.2-46.4-17.8-69.3-3.7-12.6-7.3-25.2-11-37.8-37.6-1.6-75.4-1.2-113 1.1-33.8 2.1-67.6 5.7-101.4 3.7-.3 0-.6-.1-.8-.1-5.5 37.1-10.9 74.1-16.4 111.2-2.2 14.9-4.4 29.8-4.9 44.8-.2 5.2-.1 10.5 1.2 15.5 1.7 6.3 5.4 11.8 9.5 16.9 10 12.4 22.3 22.7 34.6 32.9 13.5 11.2 27.1 16.9 44.7 17.8 33.5 1.7 67.2 1.5 100.7-.7 3.7-.2 7.4-.5 10.9-1.5 3.7-1.1 7.1-3 10.4-5 12.7-7.6 26-16.3 35.7-27.6 9.2-10.7 21.3-20 24-34.7 1.8-10.1-.9-21-1.6-31.1z"/><path class="st1" d="M86.6 201.7c-.3 7-.6 14.1 1.4 20.8 1.7 6 5.1 11.3 8.7 16.4 12.1 17.2 59 53.1 67.6 54.4 40.9 6 126.5.6 137.7-4 30.8-12.7 63.3-48.1 71.2-69.8.4-1.2.6-2.4.6-3.7-.2-37.4-7-67.1-15.1-98.9-9.1-36-22.2-72-30.1-108.3-37.4 1-73.3-.4-110.7.5-10.9.3-21.8.6-32.8.8-22.4.6-44.7 1.2-67.1 1.7-1.1 0-2.5.2-2.8 1.3-.5 1.1-25.6 126.1-28.6 188.8z"/><path d="M297 281.4c2.5-1 4.8-2.4 7.2-3.8 2.4-1.4 4.7-2.9 7.1-4.3 4.6-2.9 9.2-6 13.5-9.3s8.4-6.8 12.1-10.6c.9-.9 1.8-1.9 2.7-2.9l2.7-3c1.8-2 3.7-3.9 5.5-5.8 3.6-3.8 7.1-7.7 10-11.9 2.8-4.2 4.9-8.9 5.8-13.7.9-4.9.7-9.9.3-14.8-.5-4.9-1.2-9.8-1.6-14.7-1.2-19.4-4.5-37.5-8.2-54-3.8-16.5-8-31.5-11.7-44.8-3.8-13.3-7-24.9-9.7-34.4-5.4-19.1-8.4-30-8.4-30s3.3 10.8 9 29.8c2.8 9.5 6.3 21 10.3 34.3 3.9 13.2 8.4 28.2 12.3 44.7 3.9 16.6 7.4 34.8 8.8 54.2.4 4.8 1.2 9.7 1.7 14.7s.8 10.2-.1 15.4c-.9 5.3-3.1 10.3-6.1 14.7-3 4.5-6.6 8.4-10.2 12.3-1.8 1.9-3.7 3.9-5.4 5.8l-2.7 3c-.9 1-1.8 2.1-2.8 3-3.8 4-8 7.6-12.3 10.9-4.4 3.4-9 6.5-13.7 9.4-2.3 1.5-4.7 2.9-7.1 4.4-2.4 1.4-4.9 2.9-7.5 4-2.7 1.2-5.6 1.9-8.4 2.2-2.9.4-5.7.5-8.5.7-5.6.4-11.2.7-16.9.9-11.3.5-22.6.8-34 .8-11.3 0-22.7-.2-34-.6-2.8-.1-5.6-.2-8.5-.4-2.8-.1-5.6-.3-8.5-.5-5.7-.6-11.3-1.6-16.7-3.5-1.4-.4-2.7-1-4-1.5-1.3-.6-2.6-1.1-3.9-1.7-2.6-1.2-5-2.6-7.4-4.1s-4.7-3.1-6.9-4.8c-1.1-.9-2.1-1.7-3.2-2.6l-3.2-2.6c-8.4-7-16.6-14.1-24-21.9-1.8-1.9-3.6-3.9-5.3-6-1.7-2-3.4-4.1-4.9-6.3-3.1-4.3-5.7-9.1-7-14.2-1.3-5.2-1.2-10.4-1-15.4s.6-10 1.1-14.8c1-9.7 2.4-19.1 3.8-28.2 1.4-9.1 2.7-17.8 4-26.2 5.2-33.6 9.5-61.6 12.5-81.2 2.6-19.5 4.4-30.7 4.4-30.7s-1.5 11.2-4.2 30.9c-2.8 19.6-6.7 47.7-11.4 81.3-1.2 8.4-2.4 17.2-3.7 26.2-1.3 9.1-2.6 18.4-3.5 28.1-.5 4.8-.8 9.7-.9 14.7-.2 4.9-.1 10 1.1 14.7 1.2 4.8 3.7 9.2 6.7 13.4 1.5 2.1 3.1 4.1 4.8 6.1s3.4 3.9 5.2 5.8c7.3 7.6 15.4 14.7 23.8 21.6 2.1 1.8 4.2 3.5 6.3 5.2 2.1 1.6 4.4 3.2 6.7 4.6 2.3 1.4 4.7 2.8 7.1 3.9 1.2.6 2.5 1.1 3.7 1.7 1.3.5 2.5 1 3.8 1.4 5.2 1.7 10.6 2.8 16.1 3.3 2.7.2 5.5.3 8.4.5 0 0 80.8 3.8 109-3.4z"/><path d="M115.1 46.7h9.2c2.9-.1 6.5-.1 10.6-.2s8.7-.2 13.7-.5c5-.2 10.5-.5 16.3-.7 5.8-.3 11.9-.4 18.2-.6 6.3-.2 12.8-.5 19.4-1 3.3-.2 6.6-.5 10-.8 3.3-.3 6.7-.6 10.1-.9s6.7-.5 10.1-.8c3.4-.2 6.7-.4 10-.6 6.6-.3 13.2-.6 19.5-.8 3.2-.1 6.3-.2 9.3-.2 3-.1 6 0 8.9 0 5.8 0 11.3.2 16.3.3 5.1.2 9.7.4 13.8.6 4.1.2 7.7.4 10.6.7 5.9.5 9.2.8 9.2.8v.3h-2.4c-1.6 0-3.9 0-6.8.1-5.9 0-14.3.1-24.4.2s-21.9.2-34.5.3c-6.3 0-12.8.2-19.4.3-6.6.1-13.4.3-20.1.4l-10.1.3c-3.4.2-6.7.3-10 .6-6.6.4-13.1 1.1-19.4 1.7s-12.4 1.3-18.2 1.6c-5.8.4-11.3.5-16.3.6-5.1.1-9.7 0-13.8-.1-4.1-.1-7.7-.3-10.6-.6-3-.2-5.3-.5-6.8-.6l-2.4-.4z"/><path class="st2" d="M307.3 190.5c.5.5.9 1 1.2 1.6 1 1.5 1.4 3.3 1.9 5.1 3.6 14 2.6 24.2 2.6 38.4 0 3.2-.1 6.6-1.5 9.5-2.3 4.5-7.4 6.8-11.4 9.9-5.6 4.3-9.3 10.4-13.8 15.8S275.7 281 268.7 281c-2.8 0-5.6-.8-8.3-1.6-6-1.7-12-3.5-17.9-5.2-6.9-2-14.1-4.2-19.3-9.1-7.6-7.4-9-18.9-10-29.4-.8-8.4-1.4-17.5 3-24.8 2-3.3 4.8-5.9 7.7-8.5 5.2-4.8 10.3-9.5 15.5-14.3 16.5-15.1 44.1-10.6 62.2-1.5 2 1 4.1 2.2 5.7 3.9z"/><path d="M258.3 184.9s.4 1.1 1.1 3c.6 1.9 1.6 4.7 2.7 8s2.3 7.2 3.6 11.3c.6 2.1 1.3 4.2 2 6.4s1.3 4.4 2 6.6c.7 2.2 1.5 4.2 2.9 5.8 1.3 1.6 3.2 2.7 5.1 3.6 1.9.8 3.9 1.5 5.8 2.2s3.7 1.3 5.3 1.9c3.3 1.2 6 2.3 7.9 3s3 1.2 3 1.2-1.1-.3-3.1-.8c-2-.6-4.8-1.3-8.1-2.3-1.7-.5-3.5-1-5.4-1.6s-3.9-1.1-6-2c-2.1-.8-4.3-2-5.9-3.9s-2.6-4.2-3.3-6.5c-.7-2.3-1.3-4.5-1.9-6.7s-1.2-4.4-1.8-6.5c-1.1-4.2-2.2-8.1-3-11.5-.9-3.4-1.5-6.2-2-8.2-.7-1.9-.9-3-.9-3z"/><path d="M271.5 227.6s-1.9 2.3-5 5.5c-1.5 1.6-3.4 3.4-5.3 5.3-1 .9-2 1.9-3.1 2.9s-2.2 2-3.3 2.9c-1.1 1-2.2 1.9-3.3 2.9-1.1 1-2.2 1.8-3.3 2.7-2.1 1.7-4.2 3.3-6 4.6-3.6 2.6-6.1 4.2-6.1 4.2l1.4-1.4c.9-.9 2.3-2.2 3.9-3.7s3.5-3.2 5.6-5.1c1-.9 2.1-1.9 3.2-2.8 1.1-1 2.2-1.9 3.3-2.9 2.2-1.9 4.4-3.9 6.5-5.7s4-3.5 5.7-4.9c3.4-2.7 5.8-4.5 5.8-4.5z"/><path class="st2" d="M133.4 212.8c-1.8 5.6-.1 11.6 1.6 17.2 4.3 14.2 9.2 29.4 21.1 38.2 8.5 6.3 19.3 8.5 29.7 10.5 3.1.6 6.5 1.2 9.4-.1 2.8-1.2 4.6-3.9 6.2-6.4 5-7.6 10-15.3 15-22.9 3.9-6 8-12.5 7.7-19.6-.2-5.2-2.7-10-5.2-14.6-3.8-7-7.5-14.1-11.2-21.1-1.1-2-2.2-4.1-3.9-5.6-2.1-1.9-4.8-2.7-7.5-3.5-11.3-3.1-27-8.3-37.3-.7-8.3 5.9-22.5 19-25.6 28.6z"/><path d="M142.6 216.9s.2.3.5.7c.3.5.9 1.1 1.7 1.8.8.7 1.9 1.4 3.2 2.1 1.3.7 2.9 1.3 4.6 2.1 1.7.7 3.6 1.6 5.3 2.9 1.8 1.3 3.4 2.8 5.2 4.1 1.8 1.3 3.8 2.4 5.9 2.5 2.2.1 4.3-.8 6.1-2.3 1.8-1.4 3.4-3.3 4.8-5.2 1.4-2 2.7-3.9 4-5.8 2.6-3.8 5.1-7.3 7.3-10.3 2.1-3 4-5.4 5.3-7.2 1.3-1.7 2-2.7 2-2.7s-.6 1.1-1.7 2.9c-1.1 1.8-2.7 4.5-4.7 7.6-1.9 3.1-4.3 6.7-6.8 10.6-1.3 1.9-2.5 3.9-3.9 5.9s-3.1 4-5.1 5.6c-1 .8-2.2 1.5-3.4 2l-1 .3-1 .2c-.7.1-1.4.1-2 .1-2.8-.1-5.1-1.6-6.9-3-1.9-1.5-3.4-3.1-5-4.3-1.6-1.3-3.3-2.2-4.9-3.1-1.6-.8-3.1-1.6-4.4-2.4-1.3-.8-2.3-1.6-3.1-2.4-.8-.8-1.2-1.5-1.5-2-.3-.4-.5-.7-.5-.7zm28.1 19.9s.5.3 1.4.9c.4.3.9.7 1.5 1.2.3.2.6.5.9.8s.6.6.9 1c.6.7 1.3 1.4 1.9 2.3.6.8 1.2 1.7 1.9 2.7l1.8 3c.6 1 1.1 2.1 1.7 3.1 1.1 2.1 2.1 4.2 3.2 6.2.6.9 1 1.9 1.6 2.7.5.8 1 1.7 1.5 2.4.3.4.5.7.7 1 .3.3.5.6.7.9.4.6.8 1.1 1.2 1.4.7.8 1.1 1.2 1.1 1.2s-.5-.3-1.4-.9c-.4-.3-.9-.7-1.5-1.2-.3-.2-.6-.5-.9-.8s-.6-.6-.9-1c-.6-.7-1.3-1.4-1.9-2.3-.6-.8-1.2-1.7-1.9-2.7l-1.8-3c-.6-1-1.1-2.1-1.7-3.1-1.1-2.1-2.1-4.2-3.2-6.2-.6-.9-1-1.9-1.6-2.7-.5-.8-1-1.7-1.5-2.4-.3-.4-.5-.7-.7-1s-.5-.6-.7-.9c-.4-.6-.8-1.1-1.2-1.4-.7-.8-1.1-1.2-1.1-1.2z"/></svg>