<?xml version="1.0" encoding="utf-8"?>
<!-- Generator: Adobe Illustrator 19.2.0, SVG Export Plug-In . SVG Version: 6.00 Build 0)  -->
<svg version="1.1" id="Layer_1" xmlns="http://www.w3.org/2000/svg" xmlns:xlink="http://www.w3.org/1999/xlink" x="0px" y="0px"
	 viewBox="0 0 460 298.9" style="enable-background:new 0 0 460 298.9;" xml:space="preserve">
<style type="text/css">
	.st0{opacity:0.8;fill:#F5E2AA;enable-background:new    ;}
	.st1{fill:none;stroke:#000000;stroke-width:5;stroke-miterlimit:10;}
	.st2{fill:none;stroke:#000000;stroke-width:2;stroke-miterlimit:10;}
</style>
<path class="st0" d="M366.1,189.4c-0.8-12.1-2.5-24.2-4.8-36.1c-4.5-23.5-11.2-46.4-17.8-69.3c-3.7-12.6-7.3-25.2-11-37.8
	c-37.6-1.6-75.4-1.2-113,1.1c-33.8,2.1-67.6,5.7-101.4,3.7c-0.3,0-0.6-0.1-0.8-0.1c-5.5,37.1-10.9,74.1-16.4,111.2
	c-2.2,14.9-4.4,29.8-4.9,44.8c-0.2,5.2-0.1,10.5,1.2,15.5c1.7,6.3,5.4,11.8,9.5,16.9c10,12.4,22.3,22.7,34.6,32.9
	c13.5,11.2,27.1,16.9,44.7,17.8c33.5,1.7,67.2,1.5,100.7-0.7c3.7-0.2,7.4-0.5,10.9-1.5c3.7-1.1,7.1-3,10.4-5
	c12.7-7.6,26-16.3,35.7-27.6c9.2-10.7,21.3-20,24-34.7C369.5,210.4,366.8,199.5,366.1,189.4L366.1,189.4z"/>
<path class="st1" d="M86.6,201.7c-0.3,7-0.6,14.1,1.4,20.8c1.7,6,5.1,11.3,8.7,16.4c12.1,17.2,59,53.1,67.6,54.4
	c40.9,6,126.5,0.6,137.7-4c30.8-12.7,63.3-48.1,71.2-69.8c0.4-1.2,0.6-2.4,0.6-3.7c-0.2-37.4-7-67.1-15.1-98.9
	c-9.1-36-22.2-72-30.1-108.3c-37.4,1-73.3-0.4-110.7,0.5c-10.9,0.3-21.8,0.6-32.8,0.8c-22.4,0.6-44.7,1.2-67.1,1.7
	c-1.1,0-2.5,0.2-2.8,1.3C114.7,14,89.6,139,86.6,201.7z"/>
<path d="M297,281.4c2.5-1,4.8-2.4,7.2-3.8c2.4-1.4,4.7-2.9,7.1-4.3c4.6-2.9,9.2-6,13.5-9.3s8.4-6.8,12.1-10.6
	c0.9-0.9,1.8-1.9,2.7-2.9l2.7-3c1.8-2,3.7-3.9,5.5-5.8c3.6-3.8,7.1-7.7,10-11.9c2.8-4.2,4.9-8.9,5.8-13.7c0.9-4.9,0.7-9.9,0.3-14.8
	c-0.5-4.9-1.2-9.8-1.6-14.7c-1.2-19.4-4.5-37.5-8.2-54c-3.8-16.5-8-31.5-11.7-44.8c-3.8-13.3-7-24.9-9.7-34.4
	c-5.4-19.1-8.4-30-8.4-30s3.3,10.8,9,29.8c2.8,9.5,6.3,21,10.3,34.3c3.9,13.2,8.4,28.2,12.3,44.7c3.9,16.6,7.4,34.8,8.8,54.2
	c0.4,4.8,1.2,9.7,1.7,14.7s0.8,10.2-0.1,15.4c-0.9,5.3-3.1,10.3-6.1,14.7c-3,4.5-6.6,8.4-10.2,12.3c-1.8,1.9-3.7,3.9-5.4,5.8l-2.7,3
	c-0.9,1-1.8,2.1-2.8,3c-3.8,4-8,7.6-12.3,10.9c-4.4,3.4-9,6.5-13.7,9.4c-2.3,1.5-4.7,2.9-7.1,4.4c-2.4,1.4-4.9,2.9-7.5,4
	c-2.7,1.2-5.6,1.9-8.4,2.2c-2.9,0.4-5.7,0.5-8.5,0.7c-5.6,0.4-11.2,0.7-16.9,0.9c-11.3,0.5-22.6,0.8-34,0.8c-11.3,0-22.7-0.2-34-0.6
	c-2.8-0.1-5.6-0.2-8.5-0.4c-2.8-0.1-5.6-0.3-8.5-0.5c-5.7-0.6-11.3-1.6-16.7-3.5c-1.4-0.4-2.7-1-4-1.5c-1.3-0.6-2.6-1.1-3.9-1.7
	c-2.6-1.2-5-2.6-7.4-4.1s-4.7-3.1-6.9-4.8c-1.1-0.9-2.1-1.7-3.2-2.6l-3.2-2.6c-8.4-7-16.6-14.1-24-21.9c-1.8-1.9-3.6-3.9-5.3-6
	c-1.7-2-3.4-4.1-4.9-6.3c-3.1-4.3-5.7-9.1-7-14.2c-1.3-5.2-1.2-10.4-1-15.4s0.6-10,1.1-14.8c1-9.7,2.4-19.1,3.8-28.2
	c1.4-9.1,2.7-17.8,4-26.2c5.2-33.6,9.5-61.6,12.5-81.2c2.6-19.5,4.4-30.7,4.4-30.7l0,0c0,0-1.5,11.2-4.2,30.9
	c-2.8,19.6-6.7,47.7-11.4,81.3c-1.2,8.4-2.4,17.2-3.7,26.2c-1.3,9.1-2.6,18.4-3.5,28.1c-0.5,4.8-0.8,9.7-0.9,14.7
	c-0.2,4.9-0.1,10,1.1,14.7c1.2,4.8,3.7,9.2,6.7,13.4c1.5,2.1,3.1,4.1,4.8,6.1s3.4,3.9,5.2,5.8c7.3,7.6,15.4,14.7,23.8,21.6
	c2.1,1.8,4.2,3.5,6.3,5.2c2.1,1.6,4.4,3.2,6.7,4.6c2.3,1.4,4.7,2.8,7.1,3.9c1.2,0.6,2.5,1.1,3.7,1.7c1.3,0.5,2.5,1,3.8,1.4
	c5.2,1.7,10.6,2.8,16.1,3.3c2.7,0.2,5.5,0.3,8.4,0.5C188,284.8,268.8,288.6,297,281.4z"/>
<path d="M115.1,46.7h9.2c2.9-0.1,6.5-0.1,10.6-0.2c4.1-0.1,8.7-0.2,13.7-0.5c5-0.2,10.5-0.5,16.3-0.7c5.8-0.3,11.9-0.4,18.2-0.6
	c6.3-0.2,12.8-0.5,19.4-1c3.3-0.2,6.6-0.5,10-0.8c3.3-0.3,6.7-0.6,10.1-0.9s6.7-0.5,10.1-0.8c3.4-0.2,6.7-0.4,10-0.6
	c6.6-0.3,13.2-0.6,19.5-0.8c3.2-0.1,6.3-0.2,9.3-0.2c3-0.1,6,0,8.9,0c5.8,0,11.3,0.2,16.3,0.3c5.1,0.2,9.7,0.4,13.8,0.6
	c4.1,0.2,7.7,0.4,10.6,0.7c5.9,0.5,9.2,0.8,9.2,0.8v0.3h-2.4c-1.6,0-3.9,0-6.8,0.1c-5.9,0-14.3,0.1-24.4,0.2s-21.9,0.2-34.5,0.3
	c-6.3,0-12.8,0.2-19.4,0.3c-6.6,0.1-13.4,0.3-20.1,0.4l-10.1,0.3c-3.4,0.2-6.7,0.3-10,0.6c-6.6,0.4-13.1,1.1-19.4,1.7
	s-12.4,1.3-18.2,1.6c-5.8,0.4-11.3,0.5-16.3,0.6c-5.1,0.1-9.7,0-13.8-0.1c-4.1-0.1-7.7-0.3-10.6-0.6c-3-0.2-5.3-0.5-6.8-0.6
	L115.1,46.7L115.1,46.7L115.1,46.7z"/>
<path class="st2" d="M307.3,190.5c0.5,0.5,0.9,1,1.2,1.6c1,1.5,1.4,3.3,1.9,5.1c3.6,14,2.6,24.2,2.6,38.4c0,3.2-0.1,6.6-1.5,9.5
	c-2.3,4.5-7.4,6.8-11.4,9.9c-5.6,4.3-9.3,10.4-13.8,15.8S275.7,281,268.7,281c-2.8,0-5.6-0.8-8.3-1.6c-6-1.7-12-3.5-17.9-5.2
	c-6.9-2-14.1-4.2-19.3-9.1c-7.6-7.4-9-18.9-10-29.4c-0.8-8.4-1.4-17.5,3-24.8c2-3.3,4.8-5.9,7.7-8.5c5.2-4.8,10.3-9.5,15.5-14.3
	c16.5-15.1,44.1-10.6,62.2-1.5C303.6,187.6,305.7,188.8,307.3,190.5L307.3,190.5z"/>
<path d="M258.3,184.9c0,0,0.4,1.1,1.1,3c0.6,1.9,1.6,4.7,2.7,8s2.3,7.2,3.6,11.3c0.6,2.1,1.3,4.2,2,6.4s1.3,4.4,2,6.6
	c0.7,2.2,1.5,4.2,2.9,5.8c1.3,1.6,3.2,2.7,5.1,3.6c1.9,0.8,3.9,1.5,5.8,2.2s3.7,1.3,5.3,1.9c3.3,1.2,6,2.3,7.9,3s3,1.2,3,1.2
	s-1.1-0.3-3.1-0.8c-2-0.6-4.8-1.3-8.1-2.3c-1.7-0.5-3.5-1-5.4-1.6s-3.9-1.1-6-2c-2.1-0.8-4.3-2-5.9-3.9s-2.6-4.2-3.3-6.5
	c-0.7-2.3-1.3-4.5-1.9-6.7s-1.2-4.4-1.8-6.5c-1.1-4.2-2.2-8.1-3-11.5c-0.9-3.4-1.5-6.2-2-8.2C258.5,186,258.3,184.9,258.3,184.9
	L258.3,184.9z"/>
<path d="M271.5,227.6c0,0-1.9,2.3-5,5.5c-1.5,1.6-3.4,3.4-5.3,5.3c-1,0.9-2,1.9-3.1,2.9s-2.2,2-3.3,2.9c-1.1,1-2.2,1.9-3.3,2.9
	c-1.1,1-2.2,1.8-3.3,2.7c-2.1,1.7-4.2,3.3-6,4.6c-3.6,2.6-6.1,4.2-6.1,4.2l1.4-1.4c0.9-0.9,2.3-2.2,3.9-3.7s3.5-3.2,5.6-5.1
	c1-0.9,2.1-1.9,3.2-2.8c1.1-1,2.2-1.9,3.3-2.9c2.2-1.9,4.4-3.9,6.5-5.7s4-3.5,5.7-4.9C269.1,229.4,271.5,227.6,271.5,227.6
	L271.5,227.6z"/>
<path class="st2" d="M133.4,212.8c-1.8,5.6-0.1,11.6,1.6,17.2c4.3,14.2,9.2,29.4,21.1,38.2c8.5,6.3,19.3,8.5,29.7,10.5
	c3.1,0.6,6.5,1.2,9.4-0.1c2.8-1.2,4.6-3.9,6.2-6.4c5-7.6,10-15.3,15-22.9c3.9-6,8-12.5,7.7-19.6c-0.2-5.2-2.7-10-5.2-14.6
	c-3.8-7-7.5-14.1-11.2-21.1c-1.1-2-2.2-4.1-3.9-5.6c-2.1-1.9-4.8-2.7-7.5-3.5c-11.3-3.1-27-8.3-37.3-0.7
	C150.7,190.1,136.5,203.2,133.4,212.8L133.4,212.8z"/>
<path d="M142.6,216.9c0,0,0.2,0.3,0.5,0.7c0.3,0.5,0.9,1.1,1.7,1.8c0.8,0.7,1.9,1.4,3.2,2.1c1.3,0.7,2.9,1.3,4.6,2.1
	c1.7,0.7,3.6,1.6,5.3,2.9c1.8,1.3,3.4,2.8,5.2,4.1c1.8,1.3,3.8,2.4,5.9,2.5c2.2,0.1,4.3-0.8,6.1-2.3c1.8-1.4,3.4-3.3,4.8-5.2
	c1.4-2,2.7-3.9,4-5.8c2.6-3.8,5.1-7.3,7.3-10.3c2.1-3,4-5.4,5.3-7.2c1.3-1.7,2-2.7,2-2.7s-0.6,1.1-1.7,2.9c-1.1,1.8-2.7,4.5-4.7,7.6
	c-1.9,3.1-4.3,6.7-6.8,10.6c-1.3,1.9-2.5,3.9-3.9,5.9s-3.1,4-5.1,5.6c-1,0.8-2.2,1.5-3.4,2l-1,0.3l-1,0.2c-0.7,0.1-1.4,0.1-2,0.1
	c-2.8-0.1-5.1-1.6-6.9-3c-1.9-1.5-3.4-3.1-5-4.3c-1.6-1.3-3.3-2.2-4.9-3.1c-1.6-0.8-3.1-1.6-4.4-2.4c-1.3-0.8-2.3-1.6-3.1-2.4
	c-0.8-0.8-1.2-1.5-1.5-2C142.8,217.2,142.6,216.9,142.6,216.9L142.6,216.9z M170.7,236.8c0,0,0.5,0.3,1.4,0.9
	c0.4,0.3,0.9,0.7,1.5,1.2c0.3,0.2,0.6,0.5,0.9,0.8s0.6,0.6,0.9,1c0.6,0.7,1.3,1.4,1.9,2.3c0.6,0.8,1.2,1.7,1.9,2.7l1.8,3
	c0.6,1,1.1,2.1,1.7,3.1c1.1,2.1,2.1,4.2,3.2,6.2c0.6,0.9,1,1.9,1.6,2.7c0.5,0.8,1,1.7,1.5,2.4c0.3,0.4,0.5,0.7,0.7,1
	c0.3,0.3,0.5,0.6,0.7,0.9c0.4,0.6,0.8,1.1,1.2,1.4c0.7,0.8,1.1,1.2,1.1,1.2s-0.5-0.3-1.4-0.9c-0.4-0.3-0.9-0.7-1.5-1.2
	c-0.3-0.2-0.6-0.5-0.9-0.8s-0.6-0.6-0.9-1c-0.6-0.7-1.3-1.4-1.9-2.3c-0.6-0.8-1.2-1.7-1.9-2.7l-1.8-3c-0.6-1-1.1-2.1-1.7-3.1
	c-1.1-2.1-2.1-4.2-3.2-6.2c-0.6-0.9-1-1.9-1.6-2.7c-0.5-0.8-1-1.7-1.5-2.4c-0.3-0.4-0.5-0.7-0.7-1s-0.5-0.6-0.7-0.9
	c-0.4-0.6-0.8-1.1-1.2-1.4C171.1,237.2,170.7,236.8,170.7,236.8z"/>
</svg>
