<?xml version="1.0" encoding="utf-8"?>
<!-- Generator: Adobe Illustrator 19.2.0, SVG Export Plug-In . SVG Version: 6.00 Build 0)  -->
<svg version="1.1" id="Layer_1" xmlns="http://www.w3.org/2000/svg" xmlns:xlink="http://www.w3.org/1999/xlink" x="0px" y="0px"
	 viewBox="0 0 460 574.9" style="enable-background:new 0 0 460 574.9;" xml:space="preserve">
<style type="text/css">
	.st0{fill:none;stroke:#000000;stroke-width:5;stroke-miterlimit:10;}
	.st1{opacity:0.9;fill:url(#SVGID_1_);enable-background:new    ;}
	.st2{fill:url(#SVGID_2_);}
	.st3{fill:#231F20;}
	.st4{fill:none;stroke:#231F20;stroke-miterlimit:10;}
	.st5{fill:none;stroke:#000000;stroke-width:2;stroke-miterlimit:10;}
	.st6{fill:none;stroke:#000000;stroke-miterlimit:10;}
</style>
<path class="st0" d="M6588.6-695.7c0.3,38.5,0.2,82.4-5.7,120.5c-2.3,14.7-3.7,31.7-10.6,44.9c-9.4,17.9-18.6,35.9-34,49.5
	c-5.5,4.9-11.5,9.2-17.9,12.8c-4.2,2.3-15.3,5.1-15.9,10.8c-0.4,3.6,3.8,5.7,6.9,7.6c6.9,4.3,10.9,12.3,11.6,20.4
	c1.5,15.4-5.6,30.7-18.9,38.8c-0.8,0.5-1.6,1-1.9,1.8c-0.7,2.1,2.1,3.4,4.2,3.8c12.1,2.1,24,5,35.7,8.7c7.7,2.4,24.3,10.6,12,18.5
	c-7.7,4.9-17,6.2-26,7.3c-24.7,3.1-49.7,6.2-74.5,3.9c-5.6-0.5-11.2-1.4-16.8-2.2l-22.5-3.3c-5.3-0.8-11.8-2.7-12.7-7.9
	c-1.7-10.2,16.6-15.1,23.6-17.2c4.9-1.5,36.5-4.6,35.6-9.3c-0.5-2.4-2.8-3.9-4.8-5.4c-8.9-6.4-15-16.4-16.6-27.2
	c-1.6-10.8,1.3-22.2,7.9-30.9c2.2-2.9,4.9-6,4.4-9.6c-0.2-1.5-1-2.9-2-4.1c-5.1-6.7-15.9-9.5-22.8-14.7c-7.9-6-15.2-12.8-21.6-20.4
	c-12.5-14.5-22.1-31.5-27.6-49.9c-5.2-17.2-6.9-35.3-8.2-53.2c-2.3-31-3.6-62-3.8-93.1c20.2-2.4,42-1.8,62.4-1.4
	C6480.9-695.1,6588.6-697.8,6588.6-695.7L6588.6-695.7z"/>
<path d="M6462-380.8v1.9c0,0.6,0.1,1.3,0.6,1.9c0.4,0.6,1.2,0.8,2.2,0.8c2.1-0.1,4.5-0.2,7.1-0.2c1.3,0,2.7-0.1,4-0.1
	c1.4-0.1,2.8-0.1,4.1-0.2c1.4-0.1,2.8-0.1,4.1-0.2c1.4-0.1,2.7-0.1,4-0.2c2.6-0.1,5-0.2,7.1-0.3c2-0.1,3.7-0.6,4.6-1.3
	c0.4-0.4,0.7-0.8,0.8-1.1c0.1-0.3,0.2-0.5,0.2-0.5v0.5c-0.1,0.3-0.2,0.8-0.6,1.3s-1.1,1-1.9,1.4s-1.8,0.7-2.8,0.8
	c-2.1,0.4-4.5,0.7-7.1,0.9c-1.3,0.1-2.7,0.3-4,0.4c-1.4,0.1-2.8,0.2-4.2,0.2c-1.4,0-2.8,0.1-4.2,0.1h-4.1c-2.6-0.1-5.1-0.2-7.2-0.4
	c-0.5-0.1-1.1-0.1-1.6-0.4s-0.9-0.7-1.1-1.1c-0.4-0.9-0.4-1.7-0.3-2.3s0.2-1.1,0.3-1.4C6461.9-380.6,6462-380.8,6462-380.8
	L6462-380.8z M6461.6-465.4c0,0,0.6,0.2,1.6,0.5c0.5,0.2,1.2,0.3,1.9,0.5s1.6,0.4,2.4,0.5c0.9,0.2,1.9,0.3,2.9,0.5
	c1,0.1,2.1,0.2,3.3,0.3c1.1,0.1,2.3,0.1,3.5,0.2h3.6c1.2,0,2.5,0,3.7-0.1c1.2,0,2.4-0.1,3.6-0.1c2.3-0.1,4.5-0.1,6.3-0.3
	c1.8-0.2,3.2-0.6,4.1-1.2c0.4-0.3,0.8-0.6,1-0.8l0.3-0.3c0,0-0.1,0.1-0.2,0.4c-0.2,0.3-0.4,0.6-0.8,1c-0.8,0.8-2.3,1.6-4.2,2
	c-0.9,0.2-2,0.4-3,0.5c-1.1,0.1-2.2,0.3-3.3,0.4l-3.6,0.3c-1.2,0.1-2.5,0.1-3.7,0.2c-1.3,0-2.5,0-3.7-0.1c-0.6,0-1.2-0.1-1.8-0.1
	c-0.6-0.1-1.2-0.1-1.8-0.2c-1.2-0.1-2.3-0.4-3.4-0.6c-0.5-0.1-1-0.3-1.5-0.4c-0.5-0.2-1-0.3-1.4-0.4c-1.8-0.6-3.2-1.3-4.2-1.8
	C6462.2-465.1,6461.6-465.4,6461.6-465.4L6461.6-465.4z M6411.5-363.3l0.3,0.3c0.2,0.2,0.5,0.4,1,0.6c0.9,0.5,2.3,1,4.2,1.4
	c1.9,0.4,4.2,0.7,6.8,1.1c2.6,0.4,5.6,0.7,8.9,1.1c3.3,0.3,6.8,0.7,10.6,1c3.7,0.3,7.7,0.5,11.8,0.7c8.2,0.3,17,0.5,25.7,0.6
	c4.4,0.1,8.8,0.1,13.1,0.2c4.3,0,8.5,0.1,12.6,0s8-0.4,11.7-0.8c3.7-0.5,7.2-1.1,10.4-1.7c6.4-1.4,11.6-3,15.2-4.3
	c1.8-0.7,3.2-1.2,4.2-1.6l1.5-0.6c0,0-0.5,0.2-1.4,0.7c-0.9,0.4-2.3,1.1-4.1,1.8c-3.5,1.5-8.7,3.5-15.1,5.1s-14.1,2.9-22.3,3.2
	c-4.1,0.2-8.4,0.2-12.7,0.2c-4.3,0-8.7-0.1-13.1-0.1c-4.4-0.1-8.8-0.2-13.1-0.3c-4.3-0.1-8.6-0.4-12.7-0.6c-4.1-0.3-8.1-0.6-11.8-1
	c-3.8-0.4-7.3-0.8-10.6-1.3c-1.6-0.3-3.2-0.5-4.7-0.7c-1.5-0.3-2.9-0.5-4.2-0.8c-2.6-0.5-4.9-1-6.8-1.5s-3.3-1.1-4.1-1.7
	c-0.4-0.3-0.7-0.5-0.9-0.7C6411.6-363.2,6411.5-363.3,6411.5-363.3L6411.5-363.3z"/>
<linearGradient id="SVGID_1_" gradientUnits="userSpaceOnUse" x1="6378.7998" y1="1654.8887" x2="6584.7002" y2="1654.8887" gradientTransform="matrix(1 0 0 -1 0 1081)">
	<stop  offset="1.800000e-02" style="stop-color:#801FE3"/>
	<stop  offset="1" style="stop-color:#B7A7FF"/>
</linearGradient>
<path class="st1" d="M6378.8-667.5c1.4,24.4,2.7,48.8,4.1,73.2c0.4,7.9,0.9,15.9,2.2,23.7c1.8,11.1,5.4,21.8,8.9,32.5
	c3,9.1,6,18.2,11.1,26.3c17.8,28.1,51.5,32.7,81.9,31.3c10.6-0.5,21.3-1.5,31.5-4.7c66.9-21.3,65.2-117,66.1-172.7
	c0-2.6,0.1-5.1,0.1-7.7C6516-663.4,6447.2-661.6,6378.8-667.5L6378.8-667.5z"/>
<path d="M6373.7-687.2c0,0,0.6,8.1,1.5,22.2c0.5,7.1,1,15.6,1.7,25.5c0.6,9.8,1.4,20.9,2.1,33.1c0.4,6.1,0.7,12.4,1.3,18.9
	c0.5,6.5,1.4,13.2,3,19.9s3.7,13.5,6,20.4c2.4,6.9,4.5,14,7.5,20.9c0.8,1.7,1.5,3.4,2.4,5.1c0.9,1.6,1.8,3.3,2.8,4.8
	c1.1,1.6,2.2,3.1,3.4,4.7c1.2,1.4,2.5,2.8,3.7,4.3c5.3,5.5,11.7,10,18.8,13.2c7.1,3.3,14.8,5.4,22.6,6.6c7.9,1.3,15.9,1.7,23.9,1.7
	c8-0.1,16.1-0.4,24-1.5c3.9-0.5,7.9-1.2,11.7-2.2c1-0.3,1.9-0.5,2.8-0.8l0.7-0.2h0.1l0.2-0.1l0.4-0.1l1.4-0.5l2.8-1
	c0.5-0.2,0.9-0.3,1.4-0.5l1.3-0.6c7.1-3.1,13.7-7.4,19.4-12.5c5.7-5.1,10.5-11.1,14.4-17.5c4-6.3,7.1-13.1,9.7-19.8
	c2.6-6.8,4.6-13.6,6.3-20.3c3.2-13.5,5-26.5,6.2-38.5c1.1-12.1,1.7-23.2,2-33c0.3-9.9,0.5-18.4,0.7-25.5c0.2-14.2,0.4-22.2,0.4-22.2
	s0,2,0.1,5.8c0,3.8,0.1,9.4,0.2,16.4c0,7.1,0,15.7-0.2,25.5c-0.1,9.9-0.5,21-1.5,33.1s-2.6,25.2-5.7,38.9
	c-1.6,6.8-3.6,13.7-6.1,20.6c-2.5,6.9-5.7,13.8-9.8,20.3c-4,6.5-9,12.7-14.8,18.1c-5.9,5.4-12.7,9.8-20.2,13.1l-1.4,0.6
	c-0.5,0.2-0.9,0.4-1.4,0.5l-2.8,1l-1.4,0.5l-0.4,0.1l-0.2,0.1l-0.2,0.1l-0.7,0.2c-1,0.3-2,0.6-2.9,0.8c-3.9,1-8,1.8-12,2.4
	c-8.1,1.1-16.2,1.5-24.4,1.6c-8.2,0-16.3-0.5-24.4-1.8c-8-1.3-16-3.5-23.3-7c-7.4-3.4-14.1-8.1-19.6-13.9c-1.3-1.5-2.6-3.1-3.9-4.6
	c-1.1-1.6-2.2-3.2-3.3-4.7c-2.2-3.4-3.9-6.8-5.4-10.4c-3-7.1-5.2-14.2-7.5-21.2c-2.2-7-4.3-13.9-5.8-20.7
	c-1.6-6.9-2.4-13.6-2.8-20.2c-0.5-6.6-0.7-12.9-1-18.9c-0.6-12.1-1.1-23.2-1.6-33.1s-0.8-18.4-1.2-25.5
	C6374-679.2,6373.7-687.2,6373.7-687.2L6373.7-687.2z"/>
<path d="M6374.1-671.8c0,0,0.8,0,2.4,0.1s3.8,0.2,6.7,0.3c2.9,0.2,6.4,0.3,10.5,0.5c4,0.2,8.6,0.3,13.6,0.5s10.4,0.3,16.1,0.5
	s11.7,0.2,17.9,0.4c6.2,0.1,12.6,0.1,19.2,0.2c6.5,0.1,13.2,0,19.8,0.1c6.6,0,13.3,0,19.8-0.1s13-0.1,19.2-0.2
	c12.5-0.1,24.1-0.2,34-0.3c10-0.1,18.3-0.1,24.1-0.1h9.1c0,0-0.8,0.1-2.4,0.2c-1.6,0.1-3.8,0.2-6.7,0.4c-5.8,0.3-14.1,0.8-24.1,1.3
	s-21.6,0.9-34,1.3c-6.2,0.1-12.7,0.4-19.2,0.4c-6.5,0.1-13.2,0.1-19.8,0.2c-6.6,0-13.3,0-19.8-0.2c-6.5-0.1-13-0.3-19.2-0.4
	c-6.2-0.2-12.3-0.4-18-0.8c-2.9-0.2-5.6-0.3-8.3-0.5c-2.7-0.2-5.3-0.4-7.8-0.5c-2.5-0.2-4.9-0.3-7.1-0.5c-2.3-0.2-4.4-0.4-6.4-0.6
	c-4-0.4-7.6-0.7-10.4-1c-2.9-0.3-5.2-0.6-6.7-0.7C6374.9-671.7,6374.1-671.8,6374.1-671.8L6374.1-671.8z"/>
<linearGradient id="SVGID_2_" gradientUnits="userSpaceOnUse" x1="231.55" y1="533.9918" x2="231.55" y2="1046.3" gradientTransform="matrix(1 0 0 -1 0 1081)">
	<stop  offset="0" style="stop-color:#8CC000"/>
	<stop  offset="0.998" style="stop-color:#FEFFE1"/>
</linearGradient>
<path class="st2" d="M316.4,35.1c-18.8,2-38,1.4-57,1.8c-15.3,0.3-30.5,1.3-45.8,1.8c-22.2,0.8-45.1,0.8-66.9-4
	c0.3,16.1,0.6,32.2,1,48.3c1.9,92.9,6.5,185.6,6.1,278.5c-0.2,44.7,0.4,89.4,0.4,134c0,7.9-2.8,22,2.1,28.7
	c3.2,4.4,14.2,9.2,19,11.8c16.3,8.8,35.8,10.9,54.1,11c27.7,0.2,53.6-3.2,78.9-14.6c3.1-1.4,2.8-56.2,3-62.5
	c0.6-20.2,0.5-40.5,0.5-60.6C311.6,284.8,315.4,159.9,316.4,35.1L316.4,35.1z"/>
<path class="st3" d="M245.2,220.1c-2.3-3.1-5.9-5.2-9.6-5.9h0.1l-1.1,2.1l-1,2.1l-0.9,2.2l-0.8,2.2l-0.8,2.2l-0.7,2.2l-0.6,2.3
	l-0.5,2.3l-0.5,2.3l-0.4,2.3l-0.3,2.3l-0.2,2.3l-0.1,2.3l-0.1,2.3v2.3l0.1,2.3v1l-0.7-0.8c-2.5-3.1-4.7-6.6-6.5-10.2l0.8-0.3
	c2.5,12.3,4.4,24.8,5.8,37.3l0.2,1.4l-1.1-0.9l-6.7-5l1-0.7l8.7,30.1l0.5,1.6l-1.5-0.7l-6.1-2.9l1.1-0.6c-0.3,2.2,0.3,4.5,1.6,6.3
	c0.6,0.9,1.4,1.8,2.3,2.5c0.4,0.4,0.9,0.7,1.4,1l0.2,0.1c0,0,0.1,0.1,0.2,0.1l0.4,0.2c0.3,0.1,0.5,0.2,0.8,0.4
	c2.1,0.9,4.5,1.3,6.8,1.4c1.2,0.1,2.4,0,3.6,0c0.6,0,1.2-0.1,1.6-0.2c0.2-0.1,0.4-0.1,0.6-0.2l0.2-0.2c0,0,0.1-0.1,0.1-0.2
	c0.4-0.7,0.5-2.1,0.8-3.2l0.7-3.6l1.4-7.2l2.7-14.4l1.6,0.8c-2.4,2.6-4.4,5.4-6.1,8.5l-1.6,2.9l-0.1-3.3l-0.1-2.3v-4.6l0.1-2.3
	l0.2-2.3l0.2-2.3l0.3-2.3l0.4-2.2l0.4-2.2l0.5-2.2l0.5-2.2l0.6-2.2l0.7-2.2l0.7-2.2l0.8-2.1l0.8-2.1l1.4,1.2c-0.9,0.6-1.9,1.3-2.7,2
	c-0.9,0.7-1.7,1.5-2.4,2.3c-0.3,0.4-0.7,0.8-0.9,1.3c-0.2,0.2-0.3,0.5-0.4,0.7s-0.2,0.5-0.3,0.7c-0.2,0.5-0.3,1-0.3,1.4v0.7l0.1,0.7
	l-1.9,0.3c-0.3-2.6-0.7-5.1-0.9-7.7l-0.3-3.9c-0.1-1.3-0.2-2.6-0.2-3.9s-0.1-2.6,0-3.9l0.1-3.9c0.1-2.6,0.2-5.2,0.5-7.8l0.2-1.9
	l0.2-1.9c0.2-1.3,0.3-2.6,0.5-3.8l0.6-3.8l0.7-3.8c0.6-2.5,1.1-5.1,1.8-7.5c0.6-2.5,1.4-5,2.2-7.4l1.3-3.7l1.4-3.6
	c0.4-1.2,1-2.4,1.5-3.6s1-2.4,1.8-3.6c0.4-0.6,0.9-1.1,1.4-1.6c0.6-0.5,1.2-0.9,1.9-1.2c1.4-0.5,3-0.4,4.3-0.1
	c1.3,0.4,2.5,0.7,3.7,1.2c1.2,0.4,2.4,0.9,3.7,1.4c9.6,4.1,18.2,10.5,24.8,18.6l1.3,1.6l-2-0.2l-5.3-0.5l0.8-1.4l17.3,23l0.7,0.9
	l-1.1,0.3c-2.5,0.6-5.1,0.4-7.5-0.5l0.8-1.1c5.5,6.5,9.8,13.9,12.8,21.8l0.3,0.8l-0.8,0.1l-5.3,0.6l0.5-0.9c0.9,1.8,1.7,3.7,2.2,5.7
	c0.4,2,0.8,4,0.7,6.1c0,2-0.2,4.1-0.6,6.1c-0.2,1-0.5,2-0.7,3c-0.3,1-0.6,1.9-1,2.9c-0.7,1.9-1.7,3.7-2.7,5.4
	c-1,1.7-2.3,3.4-3.6,4.9c-1.3,1.5-2.7,3-4.3,4.3c-1.5,1.3-3.1,2.6-4.7,3.7c-6.6,4.6-14.1,7.7-21.6,10.3c-7.6,2.5-15.4,4.3-23.3,5.4
	c7.9-1.2,15.7-3.1,23.2-5.7s14.9-5.9,21.4-10.5c1.6-1.1,3.2-2.4,4.6-3.7c1.5-1.3,2.8-2.8,4.1-4.3c1.3-1.6,2.4-3.1,3.4-4.8
	c1-1.7,1.9-3.5,2.5-5.3c0.4-0.9,0.6-1.9,0.9-2.8c0.2-1,0.5-1.9,0.7-2.9c0.4-1.9,0.5-3.9,0.5-5.8c0-2-0.3-3.9-0.7-5.8
	c-0.5-1.9-1.2-3.7-2.1-5.4l-0.4-0.8l0.9-0.1l5.3-0.6l-0.5,0.8c-3-7.8-7.4-15-12.8-21.3l-1.9-2.3l2.8,1.1c2.1,0.8,4.4,1,6.6,0.4
	l-0.4,1.2l-17.5-22.9l-1.2-1.5l1.9,0.2l5.3,0.5l-0.7,1.4c-6.4-7.9-14.8-14.1-24.1-18.1c-1.2-0.5-2.4-1-3.5-1.4s-2.5-0.8-3.6-1.1
	s-2.3-0.3-3.3,0c-1,0.4-1.8,1.1-2.5,2.1c-0.3,0.5-0.6,1-0.9,1.6l-0.7,1.7c-0.5,1.2-1,2.3-1.5,3.5l-1.4,3.6l-1.2,3.6
	c-0.8,2.4-1.6,4.9-2.2,7.3c-0.7,2.5-1.2,5-1.8,7.4l-0.7,3.8l-0.6,3.8c-0.2,1.3-0.3,2.5-0.5,3.8l-0.2,1.9l-0.2,1.9
	c-0.3,2.5-0.4,5.1-0.5,7.6l-0.1,3.8c0,1.3,0,2.6,0.1,3.8c0,1.3,0.1,2.5,0.1,3.8c0.1,1.3,0.1,2.5,0.3,3.8c0.2,2.5,0.5,5.1,0.8,7.6
	l-1.9,0.3l-0.1-1v-1c0.1-0.7,0.2-1.3,0.5-1.9c0.1-0.3,0.2-0.6,0.4-0.9s0.3-0.6,0.5-0.8c0.3-0.5,0.7-1,1.1-1.5
	c0.8-0.9,1.7-1.8,2.6-2.5c0.9-0.8,1.9-1.5,2.9-2.1l2.6-1.8l-1.2,2.9l-0.8,2.1l-0.8,2.1l-0.7,2.1l-0.7,2.1l-0.6,2.1l-0.5,2.2
	l-0.5,2.2l-0.4,2.2l-0.4,2.2l-0.3,2.2l-0.2,2.2l-0.2,2.2l-0.1,2.2l-0.1,2.2v2.2l0.1,2.2l-1.7-0.4c1.7-3.2,3.9-6.2,6.3-8.8l2.2-2.3
	l-0.6,3.1l-2.8,14.4l-1.4,7.2l-0.7,3.6l-0.3,1.8c-0.1,0.6-0.2,1.3-0.7,2c-0.1,0.2-0.2,0.3-0.4,0.5c-0.1,0.1-0.3,0.3-0.5,0.4
	c-0.4,0.2-0.7,0.4-1.1,0.5c-0.7,0.2-1.4,0.2-2,0.2c-1.2,0.1-2.5,0.1-3.7,0c-2.5-0.1-5-0.6-7.4-1.6c-0.3-0.1-0.6-0.3-0.9-0.4
	l-0.4-0.2l-0.2-0.1l-0.2-0.1c-0.6-0.3-1.1-0.7-1.6-1.1c-1-0.8-1.9-1.8-2.6-2.8c-1.5-2.1-2.3-4.9-1.8-7.5l0.2-1l0.9,0.5l6.1,2.9
	l-1.1,0.9l-8.5-30.2l-0.5-1.9l1.5,1.2l6.6,5.1l-1,0.5c-1.3-12.5-3.2-24.9-5.4-37.3l-0.6-3.1l1.4,2.8c1.7,3.6,3.9,7,6.3,10.1
	l-0.6,0.2v-4.6l0.1-2.4l0.2-2.3l0.3-2.3l0.3-2.3l0.4-2.3l0.5-2.3l0.6-2.3l0.6-2.3l0.7-2.2l0.8-2.2l0.9-2.2l0.9-2.2l1-2.1l1.1-2.1
	v-0.1h0.1C239.4,214.7,242.9,216.9,245.2,220.1L245.2,220.1z"/>
<path class="st3" d="M275.4,305.6C275.4,305.7,275.4,305.6,275.4,305.6l0.2-0.3l0.1-0.4l0.2-0.8l0.4-1.6l0.7-3.3
	c0.5-2.2,0.9-4.4,1.2-6.6c0.4-2.2,0.7-4.4,0.9-6.7c0.2-2.2,0.4-4.5,0.3-6.7c-0.2-4.5-0.5-9-0.8-13.4c-0.4-4.5-0.8-8.9-1.3-13.4
	c-0.3-2.2-0.6-4.4-0.9-6.7c-0.3-2.2-0.7-4.4-1-6.6c-0.4-2.2-0.7-4.4-1.1-6.6l-1.2-6.6c-0.8-4.4-1.8-8.8-2.8-13.1
	c-0.5-2.2-1-4.4-1.6-6.5c-0.5-2.2-1.1-4.3-1.7-6.5l-2.4-9.4l4.3,8.7l1.5,3.1l1.4,3.1l1.2,3.2l1,3.2l0.9,3.3c0.2,1.1,0.5,2.2,0.7,3.3
	c0.4,2.2,0.8,4.5,1.1,6.7c0.6,4.5,0.8,9,0.9,13.5s-0.1,9-0.3,13.5c-0.4,9-1.3,17.9-1.9,26.8c-0.3,4.5-0.5,8.9-0.5,13.4
	c0,2.2,0,4.5,0.1,6.7l0.1,3.4L275.4,305.6L275.4,305.6z M275.4,305.6l-0.2-3.4l-0.2-3.3c-0.1-2.2-0.1-4.5-0.1-6.7s0-4.5,0.1-6.7
	s0.1-4.5,0.2-6.7l0.6-13.4c0.2-4.5,0.4-8.9,0.5-13.4s0.1-8.9-0.1-13.4c-0.1-2.2-0.2-4.5-0.4-6.7s-0.5-4.4-0.8-6.6s-0.7-4.4-1.2-6.5
	c-0.2-1.1-0.5-2.2-0.8-3.2l-0.9-3.2l-1-3.1l-1.2-3.1l-1.3-3l-1.5-3l1.8-0.7c0.6,2.2,1.1,4.3,1.7,6.5c0.5,2.2,1.1,4.4,1.5,6.6
	c0.5,2.2,0.9,4.4,1.4,6.6c0.4,2.2,0.9,4.4,1.2,6.6c0.4,2.2,0.8,4.4,1.1,6.7c0.4,2.2,0.6,4.4,1,6.7c0.3,2.2,0.6,4.5,0.8,6.7
	c0.2,2.2,0.5,4.5,0.7,6.7c0.4,4.5,0.7,9,1,13.4c0.1,2.2,0.2,4.5,0.3,6.7c0.1,2.2,0.1,4.5,0.2,6.7c0.1,2.3-0.1,4.5-0.4,6.7
	s-0.6,4.4-1,6.7c-0.4,2.2-0.8,4.4-1.3,6.6l-0.7,3.3l-0.4,1.6l-0.2,0.8l-0.1,0.4L275.4,305.6C275.4,305.6,275.4,305.7,275.4,305.6
	L275.4,305.6z M183.8,506.3l0.2-11.6v-1.1l0.5,1l1.3,2.5l1.4,2.5l1.4,2.4l1.5,2.4l1.6,2.4l1.6,2.3l1.7,2.3l1.7,2.2l1.8,2.2l1.8,2.2
	l1.9,2.1l1.9,2.1l2,2l2,2l2.1,1.9l2.1,1.9l-1.2,0.6l-0.8-10.8l-0.1-1.6l1.3,0.9c8.2,5.3,16.8,10,25.7,14L236,534l-1.7-11.2l-0.3-1.7
	l1.5,0.7c4.7,2.3,9.5,4.3,14.5,5.9c1.2,0.4,2.5,0.8,3.8,1.1c1.3,0.4,2.5,0.7,3.8,1c2.5,0.6,5.1,1.1,7.7,1.6l-0.8,0.9l-4-11.3
	l-0.3-0.8h0.8c4.3,0,8.5,0.4,12.7,1.2c2.1,0.4,4.2,0.9,6.2,1.5l3,0.9c1,0.3,2,0.7,3,1.1l-0.5,0.5c-1.3-3.7-2-7.7-1.9-11.7v-0.4h0.3
	l9.5,0.4l9.5,0.4l-0.3,0.5c-1.8-4-4-7.9-6.5-11.5c-1.3-1.8-2.6-3.5-4.1-5.2c-1.4-1.7-3-3.3-4.6-4.8l-0.7-0.7l1-0.1l8.7-0.4l-0.2,0.9
	c-11.5-6.7-23.7-12.2-36.3-16.5l-2.6-0.9l2.7-0.6l10.5-2.5l0.4,1.7c-1.1,0.2-1.9,0-2.7-0.2s-1.6-0.5-2.3-0.7l-2.2-0.8
	c-0.7-0.3-1.5-0.5-2.1-0.7c-3-0.7-6-1.3-9.1-1.8c-0.8-0.1-1.5-0.3-2.2-0.3l-2.3-0.1c-0.8,0-1.6-0.1-2.4-0.2
	c-0.8-0.1-1.6-0.2-2.5-0.5c-0.4-0.2-0.9-0.3-1.4-0.8l-0.2-0.2v-0.1c0-0.1,0.1,0.1-0.1-0.1v-0.1l-0.1-0.3c-0.1-0.2-0.2-0.8-0.1-1.1
	c0.1-0.7,0.5-1.2,0.8-1.6c0.4-0.3,0.7-0.6,1.1-0.9c0.7-0.5,1.5-0.8,2.2-1.1s1.5-0.6,2.1-0.9l-0.1,1.7c-3.1-2.2-6.7-3.7-10.4-5.1
	l-5.6-1.9c-1.9-0.7-3.7-1.4-5.6-2s-3.7-1.2-5.6-1.7c-0.9-0.2-1.9-0.4-2.8-0.6c-0.9-0.2-1.9-0.3-2.9-0.4l-1.4-0.1l-1.4-0.1
	c-1,0-1.9,0-2.9,0.1c-0.5,0-1,0.1-1.4,0.2c-0.5,0.1-0.9,0.1-1.4,0.2c-0.9,0.2-1.9,0.4-2.8,0.6l-3,0.8l1.9-2.4
	c2.5-3.1,5.4-5.9,8.7-8.2l1.2,1.7c-0.7,0.4-1.4,0.6-2.1,0.7c-0.6,0.1-1.3,0.1-1.9,0.1c-1.2,0-2.4-0.1-3.6-0.2
	c-2.3-0.2-4.7-0.6-6.9-0.8c-1-0.1-2.3-0.1-3.4-0.1c-1.2,0-2.3,0-3.5,0.1c-2.3,0.1-4.6,0.2-6.9,0.4s-4.6,0.4-6.8,0.7l-1.7,0.3
	l-1.6,0.4c-1.1,0.2-2.1,0.7-3.1,1.1c-2,1-3.8,2.3-5.1,4c-1.4,1.7-2.2,3.8-2.7,6c-0.4,2.2-0.6,4.5-0.4,6.7c0.2,2.3,0.6,4.5,1.2,6.7
	c0.5,2.2,1.3,4.4,2.1,6.6c0.8,2.1,1.7,4.3,2.8,6.3c1,2.1,2.1,4.1,3.2,6.1c1.2,2,2.4,4,3.7,5.9s2.7,3.8,4.1,5.6
	C180.7,503,182.2,504.7,183.8,506.3L183.8,506.3z M183.9,506.6c-1.7-1.5-3.3-3.3-4.8-5c-1.5-1.8-2.9-3.6-4.3-5.5s-2.6-3.8-3.9-5.8
	c-1.2-2-2.4-4-3.4-6.1c-1.1-2.1-2-4.2-2.9-6.4s-1.7-4.4-2.3-6.6c-0.6-2.3-1.1-4.6-1.3-6.9c-0.3-2.3-0.2-4.8,0.2-7.1
	c0.4-2.4,1.3-4.7,2.9-6.6c1.5-2,3.5-3.5,5.6-4.6c1.1-0.4,2.2-1,3.4-1.3l1.8-0.5l1.7-0.3c2.4-0.4,4.6-0.6,7-0.8
	c2.3-0.2,4.7-0.4,7-0.5c1.2,0,2.3-0.1,3.5-0.1s2.3-0.1,3.6,0c2.4,0.2,4.6,0.6,6.9,0.8c1.1,0.1,2.3,0.2,3.4,0.2c0.5,0,1.1,0,1.6-0.1
	c0.5,0,0.9-0.2,1.2-0.4l1.2,1.7c-3.1,2.2-5.9,4.8-8.2,7.8l-1.1-1.6c1-0.3,2-0.5,3-0.7c0.5-0.1,1-0.2,1.5-0.2c0.5-0.1,1-0.1,1.5-0.2
	c1-0.1,2-0.1,3.1-0.1l1.5,0.1l1.5,0.1c1,0.1,2,0.2,3,0.4l3,0.6c2,0.5,3.9,1.1,5.8,1.7c1.9,0.6,3.8,1.4,5.6,2l5.6,2
	c3.7,1.4,7.5,3,10.9,5.4l1.4,1l-1.5,0.7c-0.8,0.4-1.5,0.6-2.2,0.9s-1.4,0.6-2,1c-0.3,0.2-0.5,0.4-0.8,0.6c-0.2,0.2-0.3,0.4-0.3,0.4
	s-0.1-0.1,0,0.1l0.1,0.3v0.2c-0.1-0.2,0-0.1-0.1-0.1V467c0,0,0.3,0.2,0.6,0.3c0.6,0.2,1.4,0.3,2.1,0.4c0.7,0.1,1.5,0.1,2.3,0.2
	l2.4,0.1l2.4,0.3c3.1,0.5,6.2,1.1,9.2,1.9c0.8,0.2,1.6,0.5,2.3,0.8l2.2,0.8c0.7,0.3,1.4,0.5,2.1,0.7s1.4,0.3,1.9,0.2l0.4,1.7
	l-10.5,2.3l0.1-1.5c12.6,4.4,24.8,10.2,36.3,17.1l1.4,0.9l-1.6,0.1l-8.7,0.3l0.3-0.7c1.6,1.6,3.1,3.2,4.6,4.9
	c0.7,0.9,1.4,1.7,2.1,2.6s1.3,1.8,2,2.7c2.5,3.7,4.7,7.6,6.5,11.6l0.2,0.5h-0.5l-9.5-0.4l-9.5-0.4l0.4-0.3
	c-0.1,3.9,0.6,7.8,1.9,11.4l0.3,0.8l-0.8-0.3c-2-0.7-4-1.4-6-1.9s-4.1-1-6.1-1.3c-4.1-0.7-8.3-1-12.5-1l0.6-0.8l4.2,11.2l0.4,1.1
	l-1.2-0.2c-2.6-0.4-5.2-0.9-7.8-1.5c-1.3-0.3-2.6-0.6-3.9-1c-1.3-0.3-2.6-0.7-3.8-1.1c-5.1-1.6-10-3.5-14.8-5.9l1.3-0.9l1.7,11.2
	l0.3,1.6l-1.5-0.7c-9-4.1-17.6-8.9-25.8-14.3l1.2-0.7l0.7,10.8l0.1,1.9l-1.4-1.2l-2.1-1.9l-2.1-2l-2-2l-2-2.1l-1.9-2.1l-1.9-2.2
	l-1.8-2.2l-1.8-2.3l-1.7-2.3l-1.6-2.3l-1.6-2.4l-1.5-2.4l-1.5-2.5l-1.4-2.5l-1.3-2.5l-1.3-2.6l0.5-0.1l-0.6,12L183.9,506.6
	L183.9,506.6z"/>
<path class="st4" d="M219.1,488.7c19.9,9.5,39.7,13.5,64.2,15.6c-16-4.3-31.9-8.7-47.9-13c-5-1.4-10-2.7-14.6-4.9
	c-4.7-2.2-8.9-5.2-13.2-8.2c-6.9-4.9-27.6-24.5-34.7-20.3C188.4,466.9,202.7,480.3,219.1,488.7L219.1,488.7z"/>
<path class="st5" d="M304.7,346.7c-3-7.3-17.2-15.3-24.3-17.9c-12.2-4.3-24.5-8.5-36.7-12.7c-2.6-0.9-5.4-1.8-8.2-1.3
	c-4.9,0.9-7.8,5.7-10,10.1c-5,9.8-9.5,19.9-13.6,30.1c-3.7,9.1-3,18.3-2.5,28.1c0.2,3.1,0.5,6.4,2.5,8.8c1.4,1.7,3.6,2.6,5.6,3.5
	c11.1,4.9,22.3,9.8,33.9,13.1c6.8,1.9,14.1,3.3,20.7,0.8c8.4-3.2,13.3-11.8,17.4-19.8c5.5-10.5,11-20.9,16.5-31.4
	c1.1-2.1,2.2-4.3,1.8-6.6C307.3,349.6,306,348.1,304.7,346.7L304.7,346.7z"/>
<path d="M212.8,360.9h3.7c0.6,0,1.2,0,1.9,0.1c0.7,0,1.5,0.1,2.3,0.2c1.6,0.2,3.4,0.4,5.4,0.8c4,0.7,8.5,1.8,13.3,3
	c2.4,0.6,4.9,1.2,7.4,1.8c2.5,0.6,5.1,1.2,7.6,1c1.2-0.1,2.4-0.3,3.4-0.8s1.9-1.4,2.6-2.3c0.7-1,1.4-2.1,2.1-3.2s1.3-2.2,2-3.2
	c2.6-4.2,4.9-8.3,6.8-11.8s3.5-6.4,4.5-8.5c1.1-2.1,1.7-3.3,1.7-3.3l-0.3,0.9c-0.2,0.6-0.5,1.4-1,2.5c-0.9,2.2-2.1,5.2-3.9,8.9
	c-1.7,3.6-3.8,7.8-6.3,12.1c-0.6,1.1-1.3,2.2-1.9,3.3c-0.7,1.1-1.3,2.2-2.1,3.4c-0.8,1.1-1.8,2.2-3.2,2.9c-1.3,0.7-2.8,1-4.2,1.1
	c-2.9,0.1-5.6-0.6-8.1-1.1c-2.6-0.6-5.1-1.3-7.5-1.9c-2.4-0.7-4.7-1.3-6.9-1.9s-4.3-1.2-6.2-1.6s-3.7-0.9-5.3-1.1
	c-0.8-0.2-1.5-0.3-2.2-0.4s-1.3-0.2-1.9-0.3c-1.1-0.1-2.1-0.2-2.7-0.3C213.2,360.9,212.8,360.9,212.8,360.9L212.8,360.9z"/>
<path d="M258.3,369c0,0,0.1-0.2,0.4-0.3c0.3-0.1,0.8,0.1,1.2,0.5c0.2,0.2,0.4,0.4,0.6,0.8c0.1,0.3,0.3,0.6,0.5,0.9
	c0.3,0.7,0.7,1.4,1.1,2.2c0.8,1.6,1.7,3.6,2.6,5.7c0.5,1.1,0.9,2.1,1.4,3.2s0.9,2.2,1.4,3.4c0.4,1.1,0.9,2.3,1.3,3.4l1.2,3.3
	c0.8,2.1,1.5,4.2,2,5.9c1.1,3.5,1.7,5.9,1.7,5.9s-1.2-2.1-2.8-5.4c-0.8-1.6-1.7-3.6-2.6-5.7c-0.5-1.1-0.9-2.1-1.4-3.2
	s-0.9-2.2-1.4-3.4c-0.4-1.1-0.9-2.3-1.3-3.4l-1.2-3.3c-0.8-2.1-1.5-4.2-2-5.9c-0.3-0.9-0.5-1.7-0.8-2.4c-0.1-0.4-0.2-0.7-0.3-1
	s-0.2-0.5-0.3-0.7c-0.3-0.4-0.6-0.7-0.9-0.7S258.3,369,258.3,369L258.3,369z"/>
<path class="st5" d="M192,384c-1.6,13.4-4.1,26.8-7.4,40.1c-0.9,3.5-1.8,7.1-1.8,10.7c0,3.4,0.9,6.6,1.9,9.6
	c3.4,10.3,8.8,20.4,17.4,22.6c2.9,0.8,6,0.5,9.1,0.6c14.1,0.1,27.4,5.1,41.5,5.2c3.2,0,6.6-0.3,9.7-2.4c5.5-3.8,8.2-12.3,9.8-20
	c2.3-11.5,3.4-23.3,7-34.5c1.2-3.7,2.7-7.9,1.7-11.3c-1.1-3.6-4.5-4.5-7.4-5.7c-5.3-2.2-9.6-6.7-14.5-9.8c-8.1-5.2-17.8-6.6-27.4-4
	c-12.8,3.4-24.4-3.6-37-4.1c-0.5,0-1.1,0-1.6,0.4S191.6,383.4,192,384L192,384z"/>
<path d="M192.5,385.5c0,0,1.1,1.1,2.9,3s4.5,4.7,7.6,8c1.6,1.7,3.2,3.5,5,5.3s3.8,3.7,6,5.4s4.7,3.1,7.4,4s5.7,1.2,8.6,1.2
	c3,0,6-0.2,8.9-0.4c3-0.2,5.9-0.4,8.7-0.6c5.7-0.4,11-0.7,15.5-1.2c4.5-0.6,8.2-1.4,10.7-2.1s4-1.3,4-1.3s-0.3,0.2-1,0.5
	s-1.6,0.7-2.9,1.2c-2.5,0.9-6.2,2.1-10.7,2.9s-9.8,1.3-15.5,1.9c-2.8,0.3-5.8,0.5-8.7,0.8c-3,0.3-6,0.5-9.1,0.5s-6.2-0.4-9.2-1.4
	s-5.6-2.6-7.9-4.4c-2.3-1.8-4.2-3.8-6-5.7s-3.4-3.8-4.8-5.6c-2.9-3.5-5.3-6.5-7-8.5C193.4,386.7,192.5,385.5,192.5,385.5
	L192.5,385.5z M218.7,412.5c0,0-0.2,0.8-0.6,2.1s-1,3.2-1.7,5.4s-1.5,4.9-2.4,7.7s-1.8,5.8-2.7,8.8s-1.8,6-2.6,8.8s-1.6,5.5-2.3,7.7
	c-0.7,2.3-1.2,4.1-1.6,5.5c-0.4,1.3-0.6,2.1-0.6,2.1s0.1-0.8,0.3-2.2c0.2-1.4,0.5-3.3,0.9-5.6s1-5,1.7-7.9c0.4-1.4,0.7-2.9,1.1-4.4
	s0.9-3,1.3-4.5c0.5-1.5,1-3,1.4-4.5c0.5-1.5,1-2.9,1.5-4.3c1-2.8,2-5.3,3-7.5c0.9-2.2,1.8-4,2.4-5.2
	C218.3,413.2,218.7,412.5,218.7,412.5L218.7,412.5z"/>
<path class="st5" d="M180.4,155c0.6-0.3,1.2-0.6,1.9-0.7c1.7-0.5,3.6-0.4,5.4-0.4c14.4,0.5,24,4.2,37.6,8.2c3.1,0.9,6.3,1.9,8.7,4.1
	c3.7,3.5,4.4,9,6.3,13.7c2.6,6.5,7.4,11.8,11.3,17.7c3.9,5.8,6.9,13,4.9,19.8c-0.8,2.7-2.3,5.1-3.8,7.5c-3.3,5.3-6.7,10.5-10,15.8
	c-3.8,6.1-7.9,12.4-14.1,16c-9.2,5.3-20.7,3.4-31.1,1.4c-8.3-1.6-17.2-3.5-23-9.8c-2.6-2.8-4.3-6.3-6.1-9.7
	c-3.1-6.3-6.3-12.6-9.4-18.9c-10-20,2.1-45.3,15.9-60.2C176.6,157.7,178.4,156,180.4,155L180.4,155z"/>
<path d="M161.4,200.6c0,0,1.2-0.1,3.2-0.2s4.9-0.3,8.4-0.4s7.6-0.2,11.9-0.3c2.2,0,4.4-0.1,6.7-0.1s4.6,0,6.9-0.1
	c2.3,0,4.5-0.3,6.4-1.1s3.5-2.3,4.8-3.9s2.5-3.4,3.7-5s2.3-3.1,3.3-4.5c2.1-2.8,3.9-5.1,5.1-6.7s2-2.5,2-2.5s-0.6,1-1.6,2.7
	c-1.1,1.7-2.6,4.2-4.4,7.2c-0.9,1.5-2,3.1-3,4.7c-1.1,1.7-2.2,3.5-3.6,5.2s-3.1,3.5-5.4,4.6c-2.3,1-4.8,1.3-7.1,1.4h-7
	c-2.3,0-4.5-0.1-6.7-0.1c-4.4-0.1-8.4-0.2-11.9-0.3s-6.4-0.3-8.4-0.4C162.6,200.7,161.4,200.6,161.4,200.6L161.4,200.6z"/>
<path d="M206.1,199.7c0,0,1.7,2.4,3.9,6.3c1.1,1.9,2.4,4.2,3.6,6.6c0.6,1.2,1.3,2.5,1.9,3.8s1.3,2.6,1.9,4c0.6,1.3,1.2,2.7,1.8,4
	s1.1,2.6,1.7,3.9c1.1,2.5,2,4.9,2.8,7c1.5,4.1,2.4,7,2.4,7s-0.4-0.6-1-1.8c-0.6-1.1-1.5-2.8-2.5-4.7c-1-2-2.1-4.3-3.3-6.8
	c-0.6-1.2-1.2-2.5-1.8-3.8s-1.3-2.6-1.9-4c-1.2-2.7-2.5-5.3-3.6-7.8c-1.2-2.5-2.2-4.9-3.1-6.9C207.2,202.5,206.1,199.7,206.1,199.7
	L206.1,199.7z"/>
<path class="st5" d="M237.8,96.5c-4.6,3.7-6.4,9.7-8.1,15.3c-4.2,14.2-8.3,29.6-3.2,43.6c3.6,10,11.5,17.7,19.2,25
	c2.3,2.2,4.8,4.5,7.9,5c3,0.5,6-0.8,8.7-2c8.4-3.7,16.7-7.3,25.1-11c6.6-2.9,13.5-6.1,17.2-12.2c2.7-4.5,3.2-9.9,3.7-15.1
	c0.7-7.9,1.4-15.9,2.1-23.8c0.2-2.3,0.4-4.6-0.2-6.9c-0.7-2.7-2.6-4.9-4.4-7c-7.7-8.8-18.1-21.7-30.9-21
	C264.8,86.9,245.7,90.2,237.8,96.5L237.8,96.5z"/>
<path d="M247.4,105v0.9c0,0.6,0.1,1.4,0.4,2.4s0.8,2.2,1.5,3.5s1.7,2.7,2.7,4.2s2.1,3.3,2.9,5.3s1.3,4.2,2.1,6.3
	c0.7,2.1,1.9,4.1,3.6,5.3c1.7,1.3,4,1.7,6.3,1.4c2.3-0.2,4.6-0.9,6.8-1.7c2.2-0.9,4.4-1.8,6.5-2.6c4.3-1.7,8.3-3.3,11.7-4.6
	c3.4-1.3,6.3-2.4,8.3-3.1s3.2-1.1,3.2-1.1s-1.1,0.6-3,1.5s-4.7,2.3-8,3.8c-3.3,1.6-7.3,3.3-11.5,5.2c-2.1,0.9-4.2,1.9-6.5,2.8
	s-4.7,1.7-7.3,1.9c-1.3,0.1-2.6,0.1-3.9-0.2l-1-0.3l-0.9-0.4c-0.6-0.3-1.3-0.7-1.7-1c-2.3-1.6-3.4-4.1-4.1-6.3
	c-0.8-2.2-1.2-4.4-1.8-6.4s-1.6-3.7-2.5-5.3s-1.7-3.1-2.4-4.5c-0.6-1.4-1.1-2.7-1.3-3.7c-0.2-1.1-0.2-1.9-0.2-2.5
	C247.3,105.3,247.4,105,247.4,105L247.4,105z M260,136.9l0.6,1.5c0.2,0.5,0.4,1.1,0.6,1.8c0.1,0.4,0.2,0.7,0.3,1.1s0.1,0.8,0.2,1.3
	c0.2,0.9,0.3,1.9,0.3,2.9c0.1,1,0.1,2.1,0.1,3.3c0,1.1-0.1,2.3-0.2,3.5s-0.2,2.4-0.3,3.5c-0.3,2.4-0.5,4.7-0.7,6.9
	c-0.1,1.1-0.2,2.2-0.2,3.2s-0.1,2,0,2.8v1.3c0,0.4,0.1,0.8,0.1,1.1c0.1,0.7,0.1,1.3,0.2,1.8c0.2,1,0.3,1.6,0.3,1.6l-0.6-1.5
	c-0.2-0.5-0.4-1.1-0.6-1.8c-0.1-0.4-0.2-0.7-0.3-1.1c-0.1-0.4-0.1-0.8-0.2-1.3c-0.2-0.9-0.3-1.9-0.3-2.9c-0.1-1-0.1-2.1-0.1-3.3
	c0-1.1,0.1-2.3,0.2-3.5s0.2-2.4,0.3-3.5c0.3-2.4,0.5-4.7,0.7-6.9c0.1-1.1,0.2-2.2,0.2-3.2s0.1-2,0-2.8v-1.3c0-0.4-0.1-0.8-0.1-1.1
	c-0.1-0.7-0.1-1.3-0.2-1.9C260.1,137.5,260,136.9,260,136.9z"/>
<path class="st0" d="M137.4,11.5c0.6,88.9,2.4,177.9,5.3,266.8c1.8,55.2,1.4,110.4,1.9,165.5c0.3,28.4,0.8,56.8,2,85.2
	c0.2,4.4-1.4,16.4,0.9,20c3.2,4.9,44.7,18.8,58.7,21.1c13.3,2.2,26.8,2,40.3,1.2c22-1.3,41.7-3.1,65-17.3
	c5.2-47.9,9.4-276,9.8-342.3c0.4-68.4,0.8-136.9,1.3-205.3C259.2,9,200.7,12.7,137.4,11.5L137.4,11.5z"/>
<path d="M144.5,20.5c0,0,0.5,18.2,1.3,50.1c0.4,15.9,0.9,35.3,1.7,57.5s1.6,47.2,2.5,74.5s1.8,56.9,2.4,88.2
	c0.3,15.7,0.5,31.7,0.6,48.2c0.1,16.4,0.1,33.2,0.2,50.3s0.1,34.4,0.2,52c0,8.8,0.1,17.6,0.1,26.5v20.1c0,2.3-0.1,4.6-0.3,6.8
	c-0.3,4.5-0.7,8.9-0.4,13.2c0.2,2.2,0.5,4.3,1.3,6.2c0.2,0.4,0.4,0.9,0.6,1.4l0.4,0.6l0.2,0.3c0,0,0.1,0.2,0.2,0.3
	c0.2,0.2,0.4,0.5,0.5,0.6l0.5,0.5c0.4,0.3,0.8,0.7,1.2,1c3.4,2.6,7.5,4.7,11.4,6.7l6.1,3.1l1.5,0.8l1.5,0.7c1,0.5,2,0.9,3.1,1.3
	c8.3,3.3,17.1,5.2,26.1,6.2s18,1.2,27.1,1c18.1-0.3,36.2-2.4,53.4-7.7c4.3-1.3,8.5-2.9,12.7-4.5l3.1-1.3l1.5-0.7c0,0,0.5-0.2,0.2,0
	c0.3-0.2-0.3,0.2-0.2,0.1c0,0,0-0.1,0.1-0.2c0-0.1,0.1-0.2,0.1-0.3c0.3-0.9,0.4-2,0.6-3.1c0.1-1.1,0.3-2.2,0.4-3.3
	c0.7-8.9,0.9-17.9,1.1-26.9s0.2-17.9,0.3-26.8c0.2-8.9,0.4-17.7,0.5-26.5c0.1-17.6,0.1-34.9,0.1-52c0.1-34.2,0.5-67.2,1.1-98.5
	s1.2-60.9,1.7-88.2c0.6-27.3,1.1-52.4,1.6-74.6c0.4-22.2,0.8-41.6,1.1-57.5c0.5-31.9,0.7-50.1,0.7-50.1s-0.1,18.2-0.2,50.1
	c-0.2,31.9-0.6,77.4-1.5,132.1c-0.8,54.6-1.7,118.4-1.8,186.7c0,17.1,0.1,34.4,0,52c-0.1,8.8-0.2,17.7-0.4,26.5
	c-0.1,8.9-0.1,17.8-0.2,26.8c-0.2,9-0.3,18-1.1,27.1c-0.1,1.1-0.2,2.3-0.4,3.4c-0.2,1.2-0.3,2.3-0.7,3.6c-0.1,0.2-0.1,0.3-0.2,0.5
	s-0.1,0.4-0.3,0.6c0,0.1-0.7,0.9-0.7,0.8l-0.6,0.3l-1.6,0.7l-3.2,1.3c-4.2,1.7-8.5,3.3-12.9,4.6c-17.5,5.4-35.9,7.7-54.2,7.9
	c-9.1,0.2-18.3,0-27.5-1.1c-9.1-1.1-18.2-3-26.8-6.5c-1.1-0.4-2.1-0.9-3.2-1.4l-1.6-0.7L174,531l-6-3.1c-4-2.1-8.1-4.1-11.9-7
	c-0.5-0.4-0.9-0.8-1.4-1.2L154,519c-0.2-0.2-0.4-0.4-0.6-0.7c-0.1-0.1-0.1-0.1-0.3-0.4l-0.3-0.4l-0.5-0.8c-0.3-0.5-0.5-1.1-0.8-1.7
	c-0.9-2.3-1.2-4.7-1.4-7c-0.3-4.7,0.1-9.2,0.4-13.7c0.2-2.2,0.3-4.4,0.3-6.6v-46.6c0-17.6-0.1-34.9-0.1-52s-0.1-33.9,0-50.3
	c0-16.4-0.1-32.5-0.3-48.2c-0.4-31.3-1.2-60.9-1.9-88.2c-0.8-27.3-1.4-52.4-1.9-74.6s-0.9-41.6-1.1-57.5
	C144.8,38.7,144.5,20.5,144.5,20.5L144.5,20.5z"/>
<path d="M316.4,31.2c0,0-0.7,0.1-1.9,0.2c-1.2,0.2-3.1,0.3-5.4,0.5c-4.6,0.4-11.3,0.8-19.3,1.1s-17.3,0.4-27.2,0.6
	c-10,0.2-20.5,0.8-31.2,1.4c-10.6,0.6-21.2,1.3-31.2,1.5c-5,0-9.8,0-14.4-0.2s-8.9-0.4-12.9-0.9c-4-0.4-7.6-0.9-10.8-1.4
	s-6-1-8.3-1.5s-4.1-0.9-5.3-1.3c-1.2-0.3-1.9-0.5-1.9-0.5l0.1-0.3c0,0,0.7,0.1,1.9,0.3c0.6,0.1,1.4,0.2,2.3,0.3s1.9,0.2,3.1,0.4
	c1.1,0.2,2.4,0.3,3.8,0.4c1.4,0.2,2.9,0.3,4.5,0.5s3.3,0.3,5.1,0.4c1.8,0.1,3.7,0.2,5.7,0.3c4,0.2,8.3,0.3,12.8,0.3
	s9.3,0.1,14.3-0.1c9.9-0.1,20.6-0.4,31.2-0.7c10.6-0.4,21.3-0.8,31.2-0.8c10-0.1,19.3,0.1,27.2,0.1c8,0,14.6-0.3,19.2-0.5
	c2.3-0.2,4.1-0.3,5.4-0.4c1.2-0.1,1.9-0.2,1.9-0.2L316.4,31.2L316.4,31.2z"/>
<path class="st5" d="M194.8,398.2c6.4-16.4,7.5-15.3,13.8-31.9c6.1-15.9,12-31.9,14.9-48.6c2.8-16.5,2.6-33.6,9.1-49
	c1.5-3.4,3.3-6.8,3.3-10.5c-22.3,4.8-42.8,14-59,26.5c-3.4,2.6-14.2,17.8-16.1,22.7c-4.4,11.3-5.6,21.1-4.1,33.3
	c2,16.3,5.2,27.1,19.5,39.7C181.2,384.8,189,393.6,194.8,398.2L194.8,398.2z"/>
<path class="st6" d="M197.7,392.3c-1.4-0.8-2.4-1.6-3.7-2.5c-2.8-1.8-4.9-4.1-7-6.5c-11.3-12.5-19.7-24.4-22.4-39.3
	c-1.3-9.1,0.1-18.2,1.3-27.1c0.7-4.9,1.5-9.9,3.8-14.3c3.5-6.6,10-11.6,16.9-16.1c11.6-7.8,24.3-15.1,40-17.2
	c1.9-0.3,3.3,0.4,5.2,0.9"/>
<path class="st6" d="M222.2,323.8c-1.4-0.7-3.2-0.5-4.6,0.4c-1.4,0.8-2.4,2.1-3.2,3.5c-1.4,2.2-2.3,4.9-2.1,7.5
	c0.3,2.6,2,5.2,4.5,5.9"/>
<path d="M213.6,328c-1.8-1.1-3.7-2.1-5.5-3.2l-5.5-3.3l-2.7-1.6c-0.9-0.6-1.8-1.1-2.7-1.7l-5.4-3.5c-1.8-1.1-3.6-2.3-5.3-3.5
	c-0.9-0.6-1.8-1.2-2.6-1.8c-0.9-0.6-1.7-1.3-2.5-2s-1.6-1.5-2.3-2.3s-1.3-1.8-1.7-2.8s-0.7-2.1-0.8-3.2s0-2.3,0.3-3.3
	c0-0.2,0.1-0.3,0.2-0.4s0.1-0.2,0.1-0.3c0-0.1,0.1-0.3,0.2-0.4s0.2-0.3,0.2-0.4l-0.1,0.1c0.7-1.3,1.8-2.3,2.9-3.2
	c1.1-0.9,2.3-1.6,3.5-2.3c2.3-1.5,4.8-2.9,7.5-3.7c0.7-0.2,1.4-0.3,2.1-0.5c0.7-0.1,1.4-0.1,2.1-0.1c1.4,0,2.8,0.3,4.2,0.8
	c1.3,0.5,2.5,1.4,3.5,2.5c0.9,1.1,1.6,2.3,2.3,3.6l0.5,0.9l0.1,0.2c0.1,0.1,0.1,0.2,0.1,0.3l0.2,0.5l0.8,1.9l1.6,3.8l1.6,3.8
	c0.5,1.3,1.1,2.5,1.6,3.8c0.4,1.4,0.7,2.6,1.2,3.9l1.3,3.9c0.4,1.3,0.9,2.6,1.4,3.9s1.1,2.5,1.9,3.7c-0.8-1.1-1.4-2.4-2-3.6
	s-1.1-2.5-1.5-3.8l-1.4-3.9c-0.2-0.6-0.5-1.3-0.7-2s-0.4-1.3-0.6-2c-0.4-1.3-1.1-2.5-1.6-3.8l-1.7-3.8l-1.7-3.8l-0.9-1.9l-0.2-0.5
	c0-0.1-0.1-0.2-0.1-0.2l-0.1-0.2l-0.5-0.9c-0.6-1.2-1.3-2.4-2.2-3.4s-2-1.7-3.2-2.2s-2.5-0.7-3.9-0.8c-1.3,0-2.6,0.2-3.9,0.6
	c-2.6,0.8-4.9,2.1-7.2,3.6c-1.2,0.7-2.3,1.5-3.4,2.3s-2.1,1.7-2.6,2.8c-0.1,0.1-0.1,0.2-0.2,0.2c0,0.1,0.1,0.1,0.1,0.2
	c-0.1,0.3-0.1,0.5-0.1,0.6h-0.2c-0.6,1.9-0.5,4,0.3,5.9c0.4,0.9,0.9,1.8,1.6,2.6c0.7,0.8,1.4,1.5,2.1,2.2c0.8,0.7,1.6,1.3,2.5,1.9
	l2.6,1.8c1.7,1.2,3.5,2.4,5.3,3.6l5.3,3.6c0.9,0.6,1.8,1.1,2.7,1.7l2.7,1.7l5.4,3.4L213.6,328L213.6,328z M220.8,318.7l0.5,2.7h-0.2
	c-0.3-1.3-0.6-2.7-1-4l-1-4c-0.6-2.7-1.4-5.3-2.2-7.9c-0.4-1.3-0.8-2.6-1.3-3.9l-1.6-3.8l-0.4-1l-0.2-0.5l-0.2-0.4l-1-1.8l-1.9-3.6
	c-0.7-1.2-1.3-2.5-1.6-3.9c-0.1-0.3-0.2-0.7-0.2-1.1l-0.1-0.5c0-0.2-0.1-0.4-0.1-0.5c-0.1-0.7,0-1.5,0.1-2.2
	c0.3-1.4,0.9-2.7,1.8-3.9c0.9-1.1,2.1-2,3.3-2.7s2.6-1.2,4-1.4c1.4-0.2,2.8-0.2,4.2-0.1s2.8,0.4,4.1,0.7c1.3,0.3,2.6,0.8,4,1.2
	c-1.3-0.3-2.7-0.6-4-0.9c-1.3-0.2-2.7-0.4-4.1-0.5c-1.4,0-2.7,0-4,0.3c-1.3,0.2-2.6,0.7-3.7,1.4s-2.2,1.6-3,2.6s-1.3,2.3-1.6,3.6
	c-0.1,0.6-0.2,1.3-0.1,1.9c0,0.2,0,0.3,0.1,0.5l0.1,0.5c0.1,0.3,0.1,0.6,0.2,1c0.4,1.3,0.9,2.5,1.6,3.7s1.3,2.4,1.9,3.7l0.9,1.8
	c0.1,0.2,0.1,0.3,0.3,0.5l0.2,0.5l0.4,1l1.5,3.8c0.5,1.3,0.9,2.6,1.3,4c0.7,2.7,1.4,5.3,1.9,8c0.6,2.7,1.1,5.4,1.6,8.1h-0.2
	L220.8,318.7L220.8,318.7z M213.4,337.4l-11.6,0.8l-5.8,0.4l-5.8,0.3c-1.9,0.1-3.9,0.2-5.8,0.1c-1.9,0-3.9-0.1-5.8-0.4
	c-3.9-0.5-7.7-1.7-11.1-3.8c-0.6-0.4-1.2-1-1.6-1.7c-0.2-0.3-0.4-0.7-0.5-1.1s-0.2-0.8-0.2-1.2c0-0.8,0.1-1.5,0.2-2.2l0.2-2.1
	c0.1-1.4,0.3-2.8,0.5-4.2c0.2-1.4,0.4-2.8,0.8-4.2c0.4-1.4,1.1-2.8,2.2-3.8c1.1-1.1,2.5-1.7,4-2c0.7-0.1,1.5-0.1,2.2-0.1
	c0.7,0.1,1.4,0.3,2.1,0.5c1.4,0.4,2.7,1,4,1.6l15.3,7.1c2.5,1.2,5.1,2.4,7.6,3.7c1.3,0.6,2.5,1.3,3.7,2s2.4,1.4,3.6,2.3l0.8,0.8
	l-0.8-0.7c-1.2-0.8-2.4-1.4-3.6-2.1c-1.3-0.6-2.5-1.2-3.8-1.8l-7.7-3.5l-15.4-6.9c-1.3-0.6-2.5-1.2-3.9-1.5c-0.7-0.2-1.3-0.3-2-0.4
	s-1.3,0-2,0.1c-1.3,0.2-2.6,0.8-3.4,1.7c-0.9,0.9-1.5,2.2-1.9,3.5s-0.6,2.7-0.7,4.1l-0.5,4.2l-0.2,2.1c-0.1,0.7-0.2,1.4-0.2,2
	c0,0.3,0,0.6,0.1,0.9s0.2,0.6,0.4,0.9c0.3,0.5,0.8,1,1.3,1.4c1.6,1,3.3,1.9,5.1,2.5s3.7,1,5.6,1.3s3.8,0.4,5.7,0.5s3.8,0,5.8,0
	l5.8-0.1l5.8-0.3C205.6,337.6,209.5,337.5,213.4,337.4L213.4,337.4z M216.1,344.1c0,0-1.2,1.1-3.2,3c-1.1,0.9-2.4,2-3.8,3.3
	c-1.5,1.3-3.1,2.7-5,4.3c-1.9,1.5-4,3.1-6.2,4.8c-2.2,1.7-4.5,3.4-7.1,5.1c-2.5,1.6-5.1,3.4-7.8,5.1c-0.3,0.2-0.7,0.4-1,0.6
	c-0.4,0.2-0.7,0.4-1.2,0.5s-1,0-1.5-0.2c-0.4-0.2-0.8-0.4-1.1-0.7c-1.3-1.1-2.2-2.6-2.7-4.2c-1-3.2-0.7-6.7,0.3-9.8
	c0.5-1.6,1.4-3,2.5-4.2c1.2-1.2,2.7-1.8,4.1-2.4c2.9-1,5.6-1.9,8.3-2.8c2.6-0.9,5.1-1.7,7.4-2.4c4.6-1.5,8.4-2.6,11.1-3.5
	c2.7-0.8,4.2-1.3,4.2-1.3s-1.5,0.5-4.2,1.5c-2.7,0.9-6.5,2.2-11,3.8c-4.5,1.6-9.8,3.5-15.5,5.5c-1.4,0.5-2.7,1.2-3.8,2.2
	c-1,1-1.8,2.4-2.3,3.8c-1,2.9-1.2,6.2-0.2,9.1c0.5,1.4,1.3,2.8,2.5,3.8c0.5,0.5,1.2,0.9,1.7,0.7c0.3-0.1,0.6-0.2,1-0.4
	c0.3-0.2,0.7-0.4,1-0.6c2.7-1.7,5.3-3.4,7.8-5c5-3.3,9.5-6.7,13.4-9.6c3.7-3,6.9-5.6,9-7.3C214.9,345.2,216.1,344.1,216.1,344.1
	L216.1,344.1z M214.3,349.7c0,0,0,0.2-0.1,0.4c0,0.2-0.1,0.3-0.3,0.5c-0.2,0.1-0.4,0.2-0.6,0.2s-0.4-0.1-0.4-0.1v-0.4
	c0-0.2,0.1-0.4,0.3-0.5s0.4-0.2,0.6-0.1C214.1,349.6,214.3,349.7,214.3,349.7z"/>
<path d="M197.6,387l-2.1-1.2c-0.7-0.5-1.5-1.1-2.1-1.8s-1-1.6-1.2-2.5c-0.1-0.5-0.2-0.9-0.2-1.4v-0.7c0-0.2,0.1-0.5,0.1-0.7
	c0.2-0.9,0.5-1.8,1-2.6s1-1.5,1.6-2.2l1.6-2.2c1.1-1.4,2.1-2.9,3.2-4.3l3.3-4.3l1.6-2.1c0.5-0.7,1.1-1.4,1.6-2.1l1.7-2.1
	c0.6-0.7,1.1-1.4,1.7-2.1l1.7-2.1c0.6-0.7,1.2-1.4,1.9-1.9c0.5-0.3,0.9-0.5,1.4-0.7c-0.5,0.3-0.9,0.5-1.3,0.9
	c-0.6,0.6-1.2,1.3-1.7,2.1l-1.5,2.2c-0.5,0.7-1,1.5-1.6,2.2l-1.6,2.2l-1.6,2.2l-1.6,2.2l-3.2,4.3l-3.2,4.3l-1.6,2.1
	c-0.5,0.7-1.1,1.4-1.5,2.1s-0.8,1.5-1,2.4c0,0.2-0.1,0.4-0.1,0.6s-0.1,0.5-0.1,0.7c0,0.4,0,0.8,0.1,1.3c0.2,0.8,0.5,1.7,1,2.3
	c0.5,0.7,1.2,1.3,1.9,1.9L197.6,387L197.6,387z"/>
<path class="st5" d="M151,124.8c14-10.7,12.7-11.4,26.8-22c13.6-10.2,27.3-20.4,42.6-27.8c15-7.2,31.6-11.8,44.6-22.3
	c2.8-2.4,5.6-5,9.1-6.1c1.6,22.8-1.6,45-9.2,64.1c-1.5,4-13.2,18.6-17.3,21.8c-9.7,7.3-18.7,11.3-30.9,13.2
	c-16.2,2.6-27.4,2.5-43.6-7.7C167.6,134.2,157,129.1,151,124.8L151,124.8z"/>
<path class="st6" d="M155.9,120.4c1.2,1.1,2.2,1.9,3.5,2.9c2.5,2.2,5.3,3.6,8.2,4.9c15.1,7.4,28.9,12.1,44,10.6
	c9.1-1.3,17.4-5.1,25.7-8.8c4.5-2.1,9.1-4.2,12.7-7.6c5.3-5.1,8.4-12.8,10.8-20.7c4.3-13.3,7.8-27.5,5.4-43.2
	c-0.2-1.9-1.3-3-2.2-4.7"/>
<path class="st6" d="M214.8,77.9c1.1,1.2,1.3,2.9,0.9,4.5s-1.3,2.9-2.4,4c-1.8,1.9-4.1,3.6-6.7,4.1s-5.6-0.5-6.9-2.7"/>
<path d="M213.2,87.4l4.8,4.2l4.8,4.2l2.4,2.1l2.4,2.1l4.9,4.1c1.6,1.4,3.3,2.7,4.9,4.1l2.5,2c0.8,0.6,1.7,1.3,2.6,1.8
	c0.9,0.6,1.8,1.1,2.7,1.5c1,0.4,1.9,0.7,2.9,0.8c2,0.3,4.1-0.1,5.8-1.2c0.1,0,0.3-0.2,0.5-0.4l0.2-0.2l0.2-0.2
	c0.9-0.9,1.5-2.1,2-3.3s0.8-2.6,1.2-3.9c0.8-2.6,1.4-5.3,1.4-7.9c0-1.3-0.1-2.7-0.5-3.9c-0.4-1.3-1-2.5-1.8-3.5s-1.8-1.9-3-2.4
	c-1.2-0.6-2.5-0.9-3.8-1.1l-1-0.2L249,86h-0.2l-0.5-0.1l-2-0.3l-4.1-0.6l-4.1-0.6c-1.4-0.2-2.7-0.5-4.1-0.5h-2.1
	c-0.7,0-1.4-0.1-2.1-0.1l-4.1-0.3c-1.4-0.1-2.7-0.2-4.1-0.4s-2.7-0.5-4-0.9c1.3,0.4,2.7,0.6,4,0.8c1.4,0.2,2.7,0.2,4.1,0.3l4.1,0.2
	c1.4,0.1,2.7,0,4.1,0s2.8,0.3,4.1,0.4l4.1,0.5l4.1,0.5l2,0.3l0.5,0.1h0.6l1,0.2c1.4,0.2,2.7,0.6,4,1.2s2.5,1.6,3.3,2.7
	c0.9,1.1,1.5,2.4,2,3.8c0.2,0.7,0.4,1.4,0.5,2.1s0.1,1.4,0.1,2.1c0,2.8-0.7,5.6-1.4,8.2c-0.4,1.3-0.8,2.6-1.3,4
	c-0.5,1.3-1.2,2.6-2.3,3.7l0.1-0.1l-0.3,0.3l-0.3,0.3c-0.1,0.1-0.2,0.1-0.2,0.2c-0.1,0.1-0.2,0.2-0.4,0.3c-0.9,0.6-2,1-3.1,1.2
	s-2.2,0.2-3.3,0.1s-2.2-0.4-3.2-0.9c-1-0.4-2-1-2.9-1.6s-1.8-1.2-2.6-1.9s-1.7-1.3-2.5-2c-1.6-1.4-3.2-2.7-4.8-4.2l-4.8-4.2
	l-2.4-2.1l-2.3-2.2l-4.7-4.3C216.3,90.3,214.8,88.8,213.2,87.4L213.2,87.4z M220.2,77.8l-2.7,0.5v-0.2c2.7-0.3,5.5-0.5,8.2-0.7
	c2.8-0.2,5.5-0.4,8.3-0.4c1.4,0,2.8,0,4.2,0.1l4.1,0.4l1,0.1l0.5,0.1c0.3,0,0.4,0.1,0.5,0.1l2,0.4c1.4,0.3,2.7,0.5,4,0.8
	s2.6,0.5,4,0.5c0.3,0,0.7,0,1-0.1l0.5-0.1c0.2,0,0.3,0,0.5-0.1c0.6-0.1,1.2-0.3,1.8-0.6c1.1-0.6,2.2-1.5,3-2.5s1.3-2.3,1.7-3.6
	s0.5-2.6,0.4-4c-0.1-1.3-0.5-2.7-0.9-4c-0.4-1.3-1-2.5-1.6-3.8c-0.6-1.2-1.4-2.4-2-3.6c0.7,1.2,1.5,2.3,2.2,3.5s1.3,2.4,1.8,3.7
	c0.5,1.3,0.9,2.6,1,4c0.2,1.4,0.1,2.8-0.2,4.2s-0.8,2.7-1.7,3.9s-2,2.1-3.2,2.8c-0.6,0.3-1.3,0.6-2.1,0.7c-0.2,0-0.4,0.1-0.5,0.1
	l-0.5,0.1c-0.4,0-0.7,0.1-1.1,0.1c-1.4,0-2.8-0.2-4.2-0.5l-4-0.8l-2-0.4l-0.5-0.1l-0.5-0.1l-1-0.1l-4.1-0.4
	c-1.3-0.1-2.7-0.2-4.1-0.2c-2.7-0.1-5.5,0-8.2,0.1l-4.1,0.2c-1.4,0-2.7,0.1-4.1,0.2v-0.2L220.2,77.8L220.2,77.8z M204.3,90.1
	c1,3.8,1.9,7.5,2.8,11.3l1.4,5.7l1.5,5.6c0.5,1.9,1,3.7,1.6,5.6c0.6,1.8,1.3,3.6,2.1,5.4c0.8,1.7,1.7,3.4,2.8,5
	c1.1,1.6,2.4,3,3.8,4.2c0.5,0.4,1.1,0.7,1.7,0.9c0.3,0.1,0.6,0.1,0.9,0.1s0.6-0.1,0.9-0.1c0.6-0.2,1.3-0.5,1.9-0.7l2-0.8l3.9-1.6
	c1.3-0.5,2.6-1.1,3.7-1.8s2.1-1.7,2.8-2.8c0.7-1.1,0.9-2.5,0.7-3.8c-0.1-0.7-0.2-1.3-0.5-1.9l-0.9-1.8c-0.7-1.2-1.6-2.2-2.5-3.3
	L224,102.4l-5.5-6.4c-0.9-1.1-1.9-2.1-2.8-3.1c-1-1-2-2-3-2.9l-0.9-0.6l1,0.5c1.1,0.9,2.1,1.8,3.2,2.8c1,1,2,2,2.9,3.1
	c1.9,2.1,3.8,4.2,5.6,6.3l11.1,12.7c0.9,1.1,1.9,2.2,2.6,3.4c0.4,0.6,0.7,1.2,1,1.9s0.5,1.4,0.6,2.1c0.2,1.5,0,3-0.8,4.4
	c-0.7,1.3-1.9,2.3-3.1,3.1s-2.5,1.4-3.8,1.9c-1.3,0.6-2.6,1.1-3.9,1.6l-2,0.8c-0.7,0.2-1.3,0.6-2,0.8c-0.4,0.1-0.8,0.2-1.2,0.2
	s-0.8,0-1.2-0.1c-0.8-0.2-1.4-0.6-2-1c-3-2.6-5.2-6-6.8-9.6c-0.8-1.8-1.4-3.6-2-5.5s-1-3.8-1.5-5.6l-1.4-5.7l-1.2-5.7L204.3,90.1
	L204.3,90.1z M197,89.4c0,0-0.7,1.5-1.8,4c-1.1,2.6-2.7,6.3-4.5,10.7c-1.7,4.5-3.7,9.8-5.5,15.5c-0.9,2.9-1.8,5.9-2.7,8.9
	c-0.1,0.4-0.2,0.8-0.3,1.1c-0.1,0.4-0.2,0.7-0.1,1c0,0.6,0.6,1.1,1.2,1.5c1.3,0.8,2.8,1.2,4.3,1.3c3.1,0.1,6.2-1,8.7-2.8
	c1.3-0.9,2.3-2,3-3.3s1-2.8,1.1-4.2c0.4-6,0.7-11.6,1-16.4s0.5-8.8,0.6-11.6c0.2-2.8,0.3-4.4,0.3-4.4s0,1.6-0.1,4.4
	s-0.1,6.8-0.2,11.7c-0.1,2.4-0.2,5-0.3,7.8s-0.2,5.7-0.4,8.7c-0.1,1.5-0.4,3.1-1.2,4.6c-0.8,1.4-1.9,2.7-3.3,3.6
	c-2.7,1.9-5.9,3.1-9.3,3c-1.7-0.1-3.3-0.6-4.8-1.5c-0.4-0.3-0.7-0.5-1-0.9c-0.3-0.3-0.6-0.9-0.6-1.4s0.1-0.9,0.2-1.3l0.3-1.2
	c0.9-3.1,1.8-6,2.7-8.9s2-5.6,3-8.2s2-5,2.9-7.2c1-2.2,1.9-4.2,2.8-6c0.8-1.8,1.5-3.3,2.1-4.6C196.3,90.8,197,89.4,197,89.4
	L197,89.4z M192.2,92.7c0,0,0.2,0.1,0.2,0.3c0.1,0.2,0.1,0.4,0,0.6s-0.2,0.3-0.4,0.4s-0.4,0.1-0.4,0.1s-0.1-0.2-0.2-0.3
	c-0.1-0.2-0.1-0.4,0-0.6s0.2-0.3,0.4-0.4C192,92.8,192.2,92.7,192.2,92.7z"/>
<path d="M161,119.1l1.9,1.5c0.7,0.5,1.5,1,2.3,1.3s1.7,0.4,2.5,0.3c0.4,0,0.8-0.1,1.2-0.3c0.2-0.1,0.4-0.2,0.6-0.2l0.6-0.3
	c0.7-0.4,1.4-1,2-1.6s1.1-1.4,1.6-2.1l1.6-2.1l3.2-4.3l3.2-4.3l1.6-2.1l1.7-2.1l1.6-2.1c0.5-0.7,1.1-1.4,1.7-2.1l1.7-2.1
	c0.6-0.7,1.1-1.4,1.5-2.2c0.2-0.5,0.5-1,0.6-1.5c-0.1,0.5-0.2,1.1-0.2,1.6h-0.1c-0.4,0.8-0.9,1.6-1.4,2.4l-1.6,2.2
	c-0.6,0.7-1.1,1.4-1.6,2.2l-1.5,2.2c-0.5,0.7-1.1,1.5-1.6,2.2l-1.6,2.2l-3.2,4.3c-1.1,1.4-2.2,2.8-3.3,4.3l-1.7,2.1
	c-0.6,0.7-1.1,1.4-1.7,2.1c-0.7,0.7-1.4,1.2-2.3,1.6l-0.6,0.3c-0.2,0.1-0.4,0.2-0.6,0.2c-0.5,0.1-0.9,0.2-1.4,0.2
	c-0.9,0-1.9-0.1-2.7-0.5s-1.6-0.9-2.3-1.5L161,119.1L161,119.1z"/>
</svg>
