<svg id="Layer_1" xmlns="http://www.w3.org/2000/svg" viewBox="0 0 705 705"><style>.st0,.st1{fill:none}.st1{stroke:#000;stroke-width:5;stroke-miterlimit:10}.st2{opacity:.9;fill:url(#SVGID_1_);enable-background:new}.st3{fill:url(#SVGID_2_)}.st4{fill:#231f20}.st5,.st6{fill:none;stroke:#231f20;stroke-miterlimit:10}.st6{stroke:#000;stroke-width:2}.st7{opacity:.51;enable-background:new}.st8{fill:none;stroke:#000;stroke-miterlimit:10}</style><path class="st0" d="M122.5 0h460v705h-460V0z"/><path class="st1" d="M6711.1-565.6c.3 38.5.2 82.4-5.7 120.5-2.3 14.7-3.7 31.7-10.6 44.9-9.4 17.9-18.6 35.9-34 49.5-5.5 4.9-11.5 9.2-17.9 12.8-4.2 2.3-15.3 5.1-15.9 10.8-.4 3.6 3.8 5.7 6.9 7.6 6.9 4.3 10.9 12.3 11.6 20.4 1.5 15.4-5.6 30.7-18.9 38.8-.8.5-1.6 1-1.9 1.8-.7 2.1 2.1 3.4 4.2 3.8 12.1 2.1 24 5 35.7 8.7 7.7 2.4 24.3 10.6 12 18.5-7.7 4.9-17 6.2-26 7.3-24.7 3.1-49.7 6.2-74.5 3.9-5.6-.5-11.2-1.4-16.8-2.2l-22.5-3.3c-5.3-.8-11.8-2.7-12.7-7.9-1.7-10.2 16.6-15.1 23.6-17.2 4.9-1.5 36.5-4.6 35.6-9.3-.5-2.4-2.8-3.9-4.8-5.4-8.9-6.4-15-16.4-16.6-27.2-1.6-10.8 1.3-22.2 7.9-30.9 2.2-2.9 4.9-6 4.4-9.6-.2-1.5-1-2.9-2-4.1-5.1-6.7-15.9-9.5-22.8-14.7-7.9-6-15.2-12.8-21.6-20.4-12.5-14.5-22.1-31.5-27.6-49.9-5.2-17.2-6.9-35.3-8.2-53.2-2.3-31-3.6-62-3.8-93.1 20.2-2.4 42-1.8 62.4-1.4 52.8 1.1 160.5-1.6 160.5.5z"/><path d="M6584.5-250.7v1.9c0 .6.1 1.3.6 1.9.4.6 1.2.8 2.2.8 2.1-.1 4.5-.2 7.1-.2 1.3 0 2.7-.1 4-.1 1.4-.1 2.8-.1 4.1-.2 1.4-.1 2.8-.1 4.1-.2 1.4-.1 2.7-.1 4-.2 2.6-.1 5-.2 7.1-.3 2-.1 3.7-.6 4.6-1.3.4-.4.7-.8.8-1.1.1-.3.2-.5.2-.5v.5c-.1.3-.2.8-.6 1.3s-1.1 1-1.9 1.4-1.8.7-2.8.8c-2.1.4-4.5.7-7.1.9-1.3.1-2.7.3-4 .4-1.4.1-2.8.2-4.2.2-1.4 0-2.8.1-4.2.1h-4.1c-2.6-.1-5.1-.2-7.2-.4-.5-.1-1.1-.1-1.6-.4-.5-.3-.9-.7-1.1-1.1-.4-.9-.4-1.7-.3-2.3s.2-1.1.3-1.4c-.1-.3 0-.5 0-.5zm-.4-84.6s.6.2 1.6.5c.5.2 1.2.3 1.9.5s1.6.4 2.4.5c.9.2 1.9.3 2.9.5 1 .1 2.1.2 3.3.3 1.1.1 2.3.1 3.5.2h3.6c1.2 0 2.5 0 3.7-.1 1.2 0 2.4-.1 3.6-.1 2.3-.1 4.5-.1 6.3-.3 1.8-.2 3.2-.6 4.1-1.2.4-.3.8-.6 1-.8l.3-.3s-.1.1-.2.4c-.2.3-.4.6-.8 1-.8.8-2.3 1.6-4.2 2-.9.2-2 .4-3 .5-1.1.1-2.2.3-3.3.4l-3.6.3c-1.2.1-2.5.1-3.7.2-1.3 0-2.5 0-3.7-.1-.6 0-1.2-.1-1.8-.1-.6-.1-1.2-.1-1.8-.2-1.2-.1-2.3-.4-3.4-.6-.5-.1-1-.3-1.5-.4-.5-.2-1-.3-1.4-.4-1.8-.6-3.2-1.3-4.2-1.8-1-.6-1.6-.9-1.6-.9zM6534-233.2l.3.3c.2.2.5.4 1 .6.9.5 2.3 1 4.2 1.4 1.9.4 4.2.7 6.8 1.1 2.6.4 5.6.7 8.9 1.1 3.3.3 6.8.7 10.6 1 3.7.3 7.7.5 11.8.7 8.2.3 17 .5 25.7.6 4.4.1 8.8.1 13.1.2 4.3 0 8.5.1 12.6 0s8-.4 11.7-.8c3.7-.5 7.2-1.1 10.4-1.7 6.4-1.4 11.6-3 15.2-4.3 1.8-.7 3.2-1.2 4.2-1.6l1.5-.6s-.5.2-1.4.7c-.9.4-2.3 1.1-4.1 1.8-3.5 1.5-8.7 3.5-15.1 5.1s-14.1 2.9-22.3 3.2c-4.1.2-8.4.2-12.7.2-4.3 0-8.7-.1-13.1-.1-4.4-.1-8.8-.2-13.1-.3-4.3-.1-8.6-.4-12.7-.6-4.1-.3-8.1-.6-11.8-1-3.8-.4-7.3-.8-10.6-1.3-1.6-.3-3.2-.5-4.7-.7-1.5-.3-2.9-.5-4.2-.8-2.6-.5-4.9-1-6.8-1.5s-3.3-1.1-4.1-1.7c-.4-.3-.7-.5-.9-.7-.3-.2-.4-.3-.4-.3z"/><linearGradient id="SVGID_1_" gradientUnits="userSpaceOnUse" x1="6501.3" y1="1150.789" x2="6707.2" y2="1150.789" gradientTransform="matrix(1 0 0 -1 0 707)"><stop offset=".018" stop-color="#801fe3"/><stop offset="1" stop-color="#b7a7ff"/></linearGradient><path class="st2" d="M6501.3-537.4c1.4 24.4 2.7 48.8 4.1 73.2.4 7.9.9 15.9 2.2 23.7 1.8 11.1 5.4 21.8 8.9 32.5 3 9.1 6 18.2 11.1 26.3 17.8 28.1 51.5 32.7 81.9 31.3 10.6-.5 21.3-1.5 31.5-4.7 66.9-21.3 65.2-117 66.1-172.7 0-2.6.1-5.1.1-7.7-68.7 2.2-137.5 4-205.9-1.9z"/><path d="M6496.2-557.1s.6 8.1 1.5 22.2c.5 7.1 1 15.6 1.7 25.5.6 9.8 1.4 20.9 2.1 33.1.4 6.1.7 12.4 1.3 18.9.5 6.5 1.4 13.2 3 19.9 1.6 6.7 3.7 13.5 6 20.4 2.4 6.9 4.5 14 7.5 20.9.8 1.7 1.5 3.4 2.4 5.1.9 1.6 1.8 3.3 2.8 4.8 1.1 1.6 2.2 3.1 3.4 4.7 1.2 1.4 2.5 2.8 3.7 4.3 5.3 5.5 11.7 10 18.8 13.2 7.1 3.3 14.8 5.4 22.6 6.6 7.9 1.3 15.9 1.7 23.9 1.7 8-.1 16.1-.4 24-1.5 3.9-.5 7.9-1.2 11.7-2.2 1-.3 1.9-.5 2.8-.8l.7-.2h.1l.2-.1.4-.1 1.4-.5 2.8-1c.5-.2.9-.3 1.4-.5l1.3-.6c7.1-3.1 13.7-7.4 19.4-12.5 5.7-5.1 10.5-11.1 14.4-17.5 4-6.3 7.1-13.1 9.7-19.8 2.6-6.8 4.6-13.6 6.3-20.3 3.2-13.5 5-26.5 6.2-38.5 1.1-12.1 1.7-23.2 2-33 .3-9.9.5-18.4.7-25.5.2-14.2.4-22.2.4-22.2s0 2 .1 5.8c0 3.8.1 9.4.2 16.4 0 7.1 0 15.7-.2 25.5-.1 9.9-.5 21-1.5 33.1s-2.6 25.2-5.7 38.9c-1.6 6.8-3.6 13.7-6.1 20.6s-5.7 13.8-9.8 20.3c-4 6.5-9 12.7-14.8 18.1-5.9 5.4-12.7 9.8-20.2 13.1l-1.4.6c-.5.2-.9.4-1.4.5l-2.8 1-1.4.5-.4.1-.2.1-.2.1-.7.2c-1 .3-2 .6-2.9.8-3.9 1-8 1.8-12 2.4-8.1 1.1-16.2 1.5-24.4 1.6-8.2 0-16.3-.5-24.4-1.8-8-1.3-16-3.5-23.3-7-7.4-3.4-14.1-8.1-19.6-13.9-1.3-1.5-2.6-3.1-3.9-4.6-1.1-1.6-2.2-3.2-3.3-4.7-2.2-3.4-3.9-6.8-5.4-10.4-3-7.1-5.2-14.2-7.5-21.2-2.2-7-4.3-13.9-5.8-20.7-1.6-6.9-2.4-13.6-2.8-20.2-.5-6.6-.7-12.9-1-18.9-.6-12.1-1.1-23.2-1.6-33.1-.5-9.9-.8-18.4-1.2-25.5-.7-14.2-1-22.2-1-22.2z"/><path d="M6496.6-541.7s.8 0 2.4.1 3.8.2 6.7.3c2.9.2 6.4.3 10.5.5 4 .2 8.6.3 13.6.5s10.4.3 16.1.5 11.7.2 17.9.4c6.2.1 12.6.1 19.2.2 6.5.1 13.2 0 19.8.1 6.6 0 13.3 0 19.8-.1s13-.1 19.2-.2c12.5-.1 24.1-.2 34-.3 10-.1 18.3-.1 24.1-.1h9.1s-.8.1-2.4.2c-1.6.1-3.8.2-6.7.4-5.8.3-14.1.8-24.1 1.3s-21.6.9-34 1.3c-6.2.1-12.7.4-19.2.4-6.5.1-13.2.1-19.8.2-6.6 0-13.3 0-19.8-.2-6.5-.1-13-.3-19.2-.4-6.2-.2-12.3-.4-18-.8-2.9-.2-5.6-.3-8.3-.5-2.7-.2-5.3-.4-7.8-.5-2.5-.2-4.9-.3-7.1-.5-2.3-.2-4.4-.4-6.4-.6-4-.4-7.6-.7-10.4-1-2.9-.3-5.2-.6-6.7-.7-1.7-.4-2.5-.5-2.5-.5z"/><linearGradient id="SVGID_2_" gradientUnits="userSpaceOnUse" x1="354.05" y1="29.849" x2="354.05" y2="542.157" gradientTransform="matrix(1 0 0 -1 0 707)"><stop offset="0" stop-color="#8cc000"/><stop offset=".998" stop-color="#feffe1"/></linearGradient><path class="st3" d="M438.9 165.2c-18.8 2-38 1.4-57 1.8-15.3.3-30.5 1.3-45.8 1.8-22.2.8-45.1.8-66.9-4 .3 16.1.6 32.2 1 48.3 1.9 92.9 6.5 185.6 6.1 278.5-.2 44.7.4 89.4.4 134 0 7.9-2.8 22 2.1 28.7 3.2 4.4 14.2 9.2 19 11.8 16.3 8.8 35.8 10.9 54.1 11 27.7.2 53.6-3.2 78.9-14.6 3.1-1.4 2.8-56.2 3-62.5.6-20.2.5-40.5.5-60.6-.2-124.5 3.6-249.4 4.6-374.2z"/><path class="st4" d="M362.4 124.7l-3 15.5-.1.7-.1-.7c-1.5-10.1-4.2-20-8-29.5l.7-.1c-.2 3.7-1 7.4-2.4 10.8l-.4 1.1-.4-1.1-4.7-13.8-1.2-3.5-.6-1.7c-.2-.6-.4-1.2-.6-1.7s-.5-1-.9-1.4c-.3-.4-.8-.6-1.1-.5h-.2l-.1.1c-.1.1-.1.4-.1.6s.1.4.1.5h.1l-.2.7c-1.4-4-3-7.9-4.8-11.7-.5-.9-.9-1.9-1.4-2.8-.2-.5-.5-.9-.8-1.3s-.6-.7-1-1c-.4-.3-.7-.4-1.1-.4h-.3c.1 0-.3.1-.2.1l-.2.2c-.1.3-.1.7 0 1 .1.2.2.3.1.2 0 0-.1 0 0-.1l-.2.8c-2.7-7.1-7-13.5-12.4-18.7l1.3-.5-.1 6.4-.1 2.5-1.4-2.1-7.9-11.3 1.5-.7 2.1 6.4 1.4 4.3-2.9-3.5c-3.8-4.6-8.1-8.7-12.9-12.2l1-1.4c.2.1.3.4.3.4 0 .1.1.1.1.2s.1.2.1.3c.1.2.1.4.1.5l.2 1 .2 1 .1.5.1.2v.1l-1.7.3c.1-.9.1-1.8 0-2.6-.1-.4-.2-.7-.4-.9-.2-.2-.3-.3-.6-.3-.6 0-1.4.3-2.1.8s-1.4 1.1-2 1.8c-.6.7-1.2 1.4-1.6 2.2l-.6 1.2-.1.3s-.1.1 0 .1l-.1.2-.2.7c-.1.2-.1.5-.2.7l-.1.7c-.1.4-.2.9-.2 1.3-.1.9-.2 1.9-.2 2.8s-.1 1.9 0 2.8c0 .9.1 1.9.1 2.9.1 1.9.3 3.8.5 5.7.4 3.8.9 7.7 1.1 11.6l.1 1.6-1.4-.7-6-2.8 1.4-.9c-.1 9 .1 18 .6 26.9l.2 3.8-2-3.2c-.2-.4-.6-.6-1-.7-.4-.1-1 0-1.5.2-1 .4-1.9 1.2-2.2 2.1 0 0-.1.3-.1.4 0 .2 0 .3-.1.4v.8c0 .6.1 1.2.3 1.8.3 1.2.9 2.4 1.5 3.5l7.5 14.3.9 1.6-1.8-.2h-.7c-.3 0-.5.1-.8.1-.5.1-1 .4-1.4.7-.4.3-.8.7-1.1 1.1-.1.2-.3.4-.3.7-.1.2-.1.5-.2.7l-.3-.8c4.6 4 8.4 8.8 11.2 14.1l.7 1.3-1.7-.2-6.9.3.7-1.4 7.7 11.5 1.2 1.8-2.2-.5-10.4-2.3.9-1.4c5 5.9 10.6 11.5 16.5 16.5l.7.6-.7.6c-1.2 1.1-3 1.7-4.6 1.4l.8-1.3 2.2 2.7 2.5 2.5c.9.7 1.8 1.5 2.7 2.3 1 .7 1.9 1.4 2.9 2s2 1.2 3.1 1.8c1.1.5 2.1 1.1 3.2 1.6 1.1.4 2.2.9 3.3 1.3l3.4 1.2 3.4 1 3.5.8 3.5.7 3.5.5 3.5.4 3.6.3 3.6.2 3.6.1-.6.5c.4-1.7.9-3.4 1.6-5.1.3-.8.7-1.6 1.1-2.4l1.2-2.4c1.6-3.1 3.5-6 5.3-9 .9-1.5 1.8-3 2.6-4.5s1.6-3 2.3-4.6c.3-.8.7-1.6 1-2.4.3-.8.6-1.6.8-2.4l.4-1.2.3-1.3c.2-.8.4-1.7.6-2.5l.9-5.1c.1-.9.2-1.7.3-2.6l.2-2.6.1-2.6v-2.6c0-1.7 0-3.5-.2-5.2 0-.9-.1-1.7-.2-2.6-.1-.9-.2-1.7-.3-2.6-.1-.9-.2-1.7-.4-2.6-.1-.9-.3-1.7-.5-2.6-.3-1.7-.8-3.4-1.2-5.1-.2-.8-.5-1.7-.7-2.5l-.9-2.5zm0 0l.9 2.5c.3.8.5 1.7.8 2.5.5 1.7.9 3.3 1.3 5 .2.8.4 1.7.5 2.6.2.9.3 1.7.4 2.6.1.9.3 1.7.3 2.6.1.9.2 1.7.3 2.6.1 1.7.2 3.5.2 5.2v2.6l-.1 2.6-.2 2.6c-.1.9-.2 1.7-.3 2.6-.2 1.7-.5 3.5-.8 5.2-.1.9-.3 1.7-.5 2.6l-.3 1.3-.3 1.3c-.5 1.7-1.1 3.3-1.8 4.9-.7 1.6-1.5 3.2-2.3 4.7s-1.7 3-2.6 4.5c-1.8 3-3.6 6-5.2 9-.4.8-.8 1.5-1.1 2.3-.4.8-.7 1.6-1 2.4-.6 1.6-1.1 3.2-1.5 4.9l-.1.5h-4.1l-3.4-.3-3.6-.3-3.6-.4-3.6-.5-3.6-.6-3.5-.8-3.5-1-3.4-1.2c-1.1-.4-2.2-.9-3.4-1.4-1.1-.5-2.2-1-3.3-1.6s-2.1-1.2-3.2-1.8l-3-2.1c-1-.8-1.9-1.6-2.8-2.3-.9-.8-1.7-1.7-2.6-2.6l-2.3-2.9-1.4-1.7 2.2.4c1.1.2 2.4-.2 3.2-1v1.2c-6.1-5.1-11.7-10.6-16.8-16.6l-1.7-2 2.5.5 10.4 2.3-.9 1.4-7.8-11.4-.9-1.3 1.6-.1 6.9-.3-.8 1.3c-2.7-5.1-6.4-9.8-10.8-13.5l-.4-.3.1-.5c.1-.4.2-.8.3-1.1.1-.4.3-.7.5-1 .4-.6.9-1.2 1.5-1.6.6-.4 1.3-.8 2-1 .4-.1.7-.2 1.1-.2.4 0 .8 0 1.2.1l-1 1.4-7.5-14.3c-.6-1.2-1.2-2.5-1.7-3.9-.2-.7-.3-1.4-.4-2.2v-1.2c0-.2.1-.4.1-.6s.1-.3.1-.5c.2-.8.7-1.6 1.3-2.1.6-.6 1.3-1 2-1.3.8-.3 1.6-.4 2.5-.2.9.2 1.8.7 2.3 1.5l-1.8.6c-.5-9-.7-18-.6-27.1v-1.5l1.4.6 6 2.8-1.4.9c-.1-3.8-.7-7.6-1-11.5-.2-1.9-.4-3.9-.5-5.8-.1-1-.1-2-.1-2.9v-3c.1-1 .1-2 .3-3 0-.5.2-1 .3-1.5l.2-.8c.1-.2.1-.5.2-.7l.2-.7.1-.2c.1-.1.1-.1.1-.2l.1-.4c.2-.5.5-1 .7-1.4.5-.9 1.2-1.7 1.9-2.5s1.5-1.4 2.3-2c.9-.6 1.9-1.1 3.3-1.1.7 0 1.4.4 1.9 1 .4.5.6 1.1.7 1.7.2 1.1.2 2.1.1 3.2l-.3 3.5-1.4-3.2c-.1-.1-.1-.3-.1-.3l-.1-.3-.1-.5-.2-1-.2-.9-.1-.4-.1-.2c0-.1.1.2.2.2l1-1.4c4.9 3.6 9.4 7.8 13.2 12.6l-1.5.8-2-6.4-1.7-5.5 3.2 4.7 7.9 11.5-1.5.4.2-6.4.1-1.8 1.3 1.2c5.6 5.4 9.9 12.1 12.6 19.4l.2.6-.5.2c-.2.1-.3.2-.6.3-.2.1-.6 0-.8-.1-.5-.3-.7-.7-.8-1-.2-.7-.3-1.4 0-2.1.2-.4.3-.7.9-.9.3-.2.2-.1.5-.2h.5c.7 0 1.4.3 1.8.7.5.4.9.8 1.2 1.3s.6 1 .9 1.4c.5 1 1 1.9 1.4 2.9 1.8 3.9 3.4 7.8 4.8 11.9l.1.5-.4.2c-.1.1-.2.1-.3.2-.1 0-.3.1-.5.1-.3 0-.7-.2-.8-.4-.3-.4-.4-.8-.4-1.2 0-.4.1-.8.3-1.2.1-.2.3-.4.5-.5.1-.1.3-.1.4-.2h.3c.9-.1 1.6.4 2.1.9s.8 1.1 1.1 1.7.4 1.2.6 1.8l.6 1.7 1.1 3.5 4.5 13.9h-.8c1.4-3.3 2.2-6.9 2.5-10.5l.1-1.6.6 1.5c3.7 9.6 6.2 19.6 7.6 29.7h-.2l3.3-15.6zm5.3 225.5c-2.3-3.1-5.9-5.2-9.6-5.9h.1l-1.1 2.1-1 2.1-.9 2.2-.8 2.2-.8 2.2-.7 2.2-.6 2.3-.5 2.3-.5 2.3-.4 2.3-.3 2.3-.2 2.3-.1 2.3-.1 2.3v2.3l.1 2.3v1l-.7-.8c-2.5-3.1-4.7-6.6-6.5-10.2l.8-.3c2.5 12.3 4.4 24.8 5.8 37.3l.2 1.4-1.1-.9-6.7-5 1-.7 8.7 30.1.5 1.6-1.5-.7-6.1-2.9 1.1-.6c-.3 2.2.3 4.5 1.6 6.3.6.9 1.4 1.8 2.3 2.5.4.4.9.7 1.4 1l.2.1s.1.1.2.1l.4.2c.3.1.5.2.8.4 2.1.9 4.5 1.3 6.8 1.4 1.2.1 2.4 0 3.6 0 .6 0 1.2-.1 1.6-.2.2-.1.4-.1.6-.2l.2-.2s.1-.1.1-.2c.4-.7.5-2.1.8-3.2l.7-3.6 1.4-7.2 2.7-14.4 1.6.8c-2.4 2.6-4.4 5.4-6.1 8.5l-1.6 2.9-.1-3.3-.1-2.3v-4.6l.1-2.3.2-2.3.2-2.3.3-2.3.4-2.2.4-2.2.5-2.2.5-2.2.6-2.2.7-2.2.7-2.2.8-2.1.8-2.1 1.4 1.2c-.9.6-1.9 1.3-2.7 2-.9.7-1.7 1.5-2.4 2.3-.3.4-.7.8-.9 1.3-.2.2-.3.5-.4.7-.1.2-.2.5-.3.7-.2.5-.3 1-.3 1.4v.7l.1.7-1.9.3c-.3-2.6-.7-5.1-.9-7.7l-.3-3.9c-.1-1.3-.2-2.6-.2-3.9s-.1-2.6 0-3.9l.1-3.9c.1-2.6.2-5.2.5-7.8l.2-1.9.2-1.9c.2-1.3.3-2.6.5-3.8l.6-3.8.7-3.8c.6-2.5 1.1-5.1 1.8-7.5.6-2.5 1.4-5 2.2-7.4l1.3-3.7 1.4-3.6c.4-1.2 1-2.4 1.5-3.6s1-2.4 1.8-3.6c.4-.6.9-1.1 1.4-1.6.6-.5 1.2-.9 1.9-1.2 1.4-.5 3-.4 4.3-.1 1.3.4 2.5.7 3.7 1.2 1.2.4 2.4.9 3.7 1.4 9.6 4.1 18.2 10.5 24.8 18.6l1.3 1.6-2-.2-5.3-.5.8-1.4 17.3 23 .7.9-1.1.3c-2.5.6-5.1.4-7.5-.5l.8-1.1c5.5 6.5 9.8 13.9 12.8 21.8l.3.8-.8.1-5.3.6.5-.9c.9 1.8 1.7 3.7 2.2 5.7.4 2 .8 4 .7 6.1 0 2-.2 4.1-.6 6.1-.2 1-.5 2-.7 3-.3 1-.6 1.9-1 2.9-.7 1.9-1.7 3.7-2.7 5.4-1 1.7-2.3 3.4-3.6 4.9-1.3 1.5-2.7 3-4.3 4.3-1.5 1.3-3.1 2.6-4.7 3.7-6.6 4.6-14.1 7.7-21.6 10.3-7.6 2.5-15.4 4.3-23.3 5.4 7.9-1.2 15.7-3.1 23.2-5.7s14.9-5.9 21.4-10.5c1.6-1.1 3.2-2.4 4.6-3.7 1.5-1.3 2.8-2.8 4.1-4.3 1.3-1.6 2.4-3.1 3.4-4.8 1-1.7 1.9-3.5 2.5-5.3.4-.9.6-1.9.9-2.8.2-1 .5-1.9.7-2.9.4-1.9.5-3.9.5-5.8 0-2-.3-3.9-.7-5.8-.5-1.9-1.2-3.7-2.1-5.4l-.4-.8.9-.1 5.3-.6-.5.8c-3-7.8-7.4-15-12.8-21.3l-1.9-2.3 2.8 1.1c2.1.8 4.4 1 6.6.4l-.4 1.2-17.5-22.9-1.2-1.5 1.9.2 5.3.5-.7 1.4c-6.4-7.9-14.8-14.1-24.1-18.1-1.2-.5-2.4-1-3.5-1.4-1.1-.4-2.5-.8-3.6-1.1-1.1-.3-2.3-.3-3.3 0-1 .4-1.8 1.1-2.5 2.1-.3.5-.6 1-.9 1.6l-.7 1.7c-.5 1.2-1 2.3-1.5 3.5l-1.4 3.6-1.2 3.6c-.8 2.4-1.6 4.9-2.2 7.3-.7 2.5-1.2 5-1.8 7.4l-.7 3.8-.6 3.8c-.2 1.3-.3 2.5-.5 3.8l-.2 1.9-.2 1.9c-.3 2.5-.4 5.1-.5 7.6l-.1 3.8c0 1.3 0 2.6.1 3.8 0 1.3.1 2.5.1 3.8.1 1.3.1 2.5.3 3.8.2 2.5.5 5.1.8 7.6l-1.9.3-.1-1v-1c.1-.7.2-1.3.5-1.9.1-.3.2-.6.4-.9.2-.3.3-.6.5-.8.3-.5.7-1 1.1-1.5.8-.9 1.7-1.8 2.6-2.5.9-.8 1.9-1.5 2.9-2.1l2.6-1.8-1.2 2.9-.8 2.1-.8 2.1-.7 2.1-.7 2.1-.6 2.1-.5 2.2-.5 2.2-.4 2.2-.4 2.2-.3 2.2-.2 2.2-.2 2.2-.1 2.2-.1 2.2v2.2l.1 2.2-1.7-.4c1.7-3.2 3.9-6.2 6.3-8.8l2.2-2.3-.6 3.1-2.8 14.4-1.4 7.2-.7 3.6-.3 1.8c-.1.6-.2 1.3-.7 2-.1.2-.2.3-.4.5-.1.1-.3.3-.5.4-.4.2-.7.4-1.1.5-.7.2-1.4.2-2 .2-1.2.1-2.5.1-3.7 0-2.5-.1-5-.6-7.4-1.6-.3-.1-.6-.3-.9-.4l-.4-.2-.2-.1-.2-.1c-.6-.3-1.1-.7-1.6-1.1-1-.8-1.9-1.8-2.6-2.8-1.5-2.1-2.3-4.9-1.8-7.5l.2-1 .9.5 6.1 2.9-1.1.9-8.5-30.2-.5-1.9 1.5 1.2 6.6 5.1-1 .5c-1.3-12.5-3.2-24.9-5.4-37.3l-.6-3.1 1.4 2.8c1.7 3.6 3.9 7 6.3 10.1l-.6.2v-4.6l.1-2.4.2-2.3.3-2.3.3-2.3.4-2.3.5-2.3.6-2.3.6-2.3.7-2.2.8-2.2.9-2.2.9-2.2 1-2.1 1.1-2.1v-.1h.1c3.9.8 7.4 3 9.7 6.2z"/><path class="st4" d="M397.9 435.7c0 .1 0 0 0 0l.2-.3.1-.4.2-.8.4-1.6.7-3.3c.5-2.2.9-4.4 1.2-6.6.4-2.2.7-4.4.9-6.7.2-2.2.4-4.5.3-6.7-.2-4.5-.5-9-.8-13.4-.4-4.5-.8-8.9-1.3-13.4-.3-2.2-.6-4.4-.9-6.7-.3-2.2-.7-4.4-1-6.6-.4-2.2-.7-4.4-1.1-6.6l-1.2-6.6c-.8-4.4-1.8-8.8-2.8-13.1-.5-2.2-1-4.4-1.6-6.5-.5-2.2-1.1-4.3-1.7-6.5l-2.4-9.4 4.3 8.7 1.5 3.1 1.4 3.1 1.2 3.2 1 3.2.9 3.3c.2 1.1.5 2.2.7 3.3.4 2.2.8 4.5 1.1 6.7.6 4.5.8 9 .9 13.5.1 4.5-.1 9-.3 13.5-.4 9-1.3 17.9-1.9 26.8-.3 4.5-.5 8.9-.5 13.4 0 2.2 0 4.5.1 6.7l.1 3.4.3 3.3zm0 0l-.2-3.4-.2-3.3c-.1-2.2-.1-4.5-.1-6.7s0-4.5.1-6.7.1-4.5.2-6.7l.6-13.4c.2-4.5.4-8.9.5-13.4.1-4.5.1-8.9-.1-13.4-.1-2.2-.2-4.5-.4-6.7s-.5-4.4-.8-6.6-.7-4.4-1.2-6.5c-.2-1.1-.5-2.2-.8-3.2l-.9-3.2-1-3.1-1.2-3.1-1.3-3-1.5-3 1.8-.7c.6 2.2 1.1 4.3 1.7 6.5.5 2.2 1.1 4.4 1.5 6.6.5 2.2.9 4.4 1.4 6.6.4 2.2.9 4.4 1.2 6.6.4 2.2.8 4.4 1.1 6.7.4 2.2.6 4.4 1 6.7.3 2.2.6 4.5.8 6.7.2 2.2.5 4.5.7 6.7.4 4.5.7 9 1 13.4.1 2.2.2 4.5.3 6.7.1 2.2.1 4.5.2 6.7.1 2.3-.1 4.5-.4 6.7s-.6 4.4-1 6.7c-.4 2.2-.8 4.4-1.3 6.6l-.7 3.3-.4 1.6-.2.8-.1.4-.3.1s0 .1 0 0zM304.5 65.8c2.7 11.7 5.7 23.3 9 34.8s7 22.9 11 34.2c2 5.6 4.1 11.2 6.3 16.8s4.4 11.1 6.8 16.6c1.2 2.8 2.3 5.5 3.8 8.1l4.3 7.9c1.4 2.7 2.7 5.4 3.8 8.3 1.1 2.9 1.9 5.9 1.9 9.1v1.7l-1.5-.9c-2.7-1.6-5.1-3.8-7.2-6.1-2.1-2.3-3.9-4.8-5.6-7.4-3.4-5.2-6.1-10.7-8.6-16.3s-4.7-11.3-6.7-17.1l-3-8.7c-.9-2.9-2-5.8-2.8-8.7l-.7-2.2-.6-2.2-.6-2.2-.5-2.2c-.4-1.5-.7-3-1-4.5l-.9-4.5c-.5-3-1-6-1.4-9.1-.4-3-.8-6.1-1.1-9.1-.7-6.1-1.2-12.1-2-18.2-.4-3-.8-6-1.2-9.1l-.7-4.5-.8-4.5zm0 0l1 4.5.9 4.5c.5 3 1 6 1.4 9 .9 6 1.6 12.1 2.4 18.1.4 3 .8 6 1.3 9l1.5 9 .9 4.5c.3 1.5.7 3 1 4.4l.6 2.2.6 2.2.6 2.2.7 2.2c.9 2.9 2 5.7 3 8.6 1 2.9 2 5.8 3 8.6 2.1 5.7 4.3 11.4 6.8 16.9s5.2 11 8.5 16c1.6 2.5 3.4 4.9 5.5 7.1 2 2.2 4.3 4.2 6.8 5.7l-1.5.8c0-2.8-.7-5.6-1.8-8.4-1-2.7-2.3-5.4-3.7-8.1l-4.2-7.9c-1.4-2.7-2.6-5.5-3.8-8.2-4.6-11.1-9-22.3-12.8-33.6-1.9-5.7-3.8-11.4-5.5-17.1-1.8-5.7-3.4-11.5-5-17.3-1.5-5.8-3-11.6-4.4-17.4-.7-2.9-1.3-5.8-2-8.8-.7-2.8-1.3-5.8-1.8-8.7zm1.8 570.6l.2-11.6v-1.1l.5 1 1.3 2.5 1.4 2.5 1.4 2.4 1.5 2.4 1.6 2.4 1.6 2.3 1.7 2.3 1.7 2.2 1.8 2.2 1.8 2.2 1.9 2.1 1.9 2.1 2 2 2 2 2.1 1.9 2.1 1.9-1.2.6-.8-10.8-.1-1.6 1.3.9c8.2 5.3 16.8 10 25.7 14l-1.2.9-1.7-11.2-.3-1.7 1.5.7c4.7 2.3 9.5 4.3 14.5 5.9 1.2.4 2.5.8 3.8 1.1 1.3.4 2.5.7 3.8 1 2.5.6 5.1 1.1 7.7 1.6l-.8.9-4-11.3-.3-.8h.8c4.3 0 8.5.4 12.7 1.2 2.1.4 4.2.9 6.2 1.5l3 .9c1 .3 2 .7 3 1.1l-.5.5c-1.3-3.7-2-7.7-1.9-11.7v-.4h.3l9.5.4 9.5.4-.3.5c-1.8-4-4-7.9-6.5-11.5-1.3-1.8-2.6-3.5-4.1-5.2-1.4-1.7-3-3.3-4.6-4.8l-.7-.7 1-.1 8.7-.4-.2.9c-11.5-6.7-23.7-12.2-36.3-16.5l-2.6-.9 2.7-.6 10.5-2.5.4 1.7c-1.1.2-1.9 0-2.7-.2s-1.6-.5-2.3-.7l-2.2-.8c-.7-.3-1.5-.5-2.1-.7-3-.7-6-1.3-9.1-1.8-.8-.1-1.5-.3-2.2-.3l-2.3-.1c-.8 0-1.6-.1-2.4-.2-.8-.1-1.6-.2-2.5-.5-.4-.2-.9-.3-1.4-.8l-.2-.2v-.1c0-.1.1.1-.1-.1v-.1l-.1-.3c-.1-.2-.2-.8-.1-1.1.1-.7.5-1.2.8-1.6.4-.3.7-.6 1.1-.9.7-.5 1.5-.8 2.2-1.1s1.5-.6 2.1-.9l-.1 1.7c-3.1-2.2-6.7-3.7-10.4-5.1l-5.6-1.9c-1.9-.7-3.7-1.4-5.6-2-1.9-.6-3.7-1.2-5.6-1.7-.9-.2-1.9-.4-2.8-.6-.9-.2-1.9-.3-2.9-.4l-1.4-.1-1.4-.1c-1 0-1.9 0-2.9.1-.5 0-1 .1-1.4.2-.5.1-.9.1-1.4.2-.9.2-1.9.4-2.8.6l-3 .8 1.9-2.4c2.5-3.1 5.4-5.9 8.7-8.2l1.2 1.7c-.7.4-1.4.6-2.1.7-.6.1-1.3.1-1.9.1-1.2 0-2.4-.1-3.6-.2-2.3-.2-4.7-.6-6.9-.8-1-.1-2.3-.1-3.4-.1-1.2 0-2.3 0-3.5.1-2.3.1-4.6.2-6.9.4s-4.6.4-6.8.7l-1.7.3-1.6.4c-1.1.2-2.1.7-3.1 1.1-2 1-3.8 2.3-5.1 4-1.4 1.7-2.2 3.8-2.7 6-.4 2.2-.6 4.5-.4 6.7.2 2.3.6 4.5 1.2 6.7.5 2.2 1.3 4.4 2.1 6.6.8 2.1 1.7 4.3 2.8 6.3 1 2.1 2.1 4.1 3.2 6.1 1.2 2 2.4 4 3.7 5.9 1.3 1.9 2.7 3.8 4.1 5.6 1.5 2.1 3 3.8 4.6 5.4zm.1.3c-1.7-1.5-3.3-3.3-4.8-5-1.5-1.8-2.9-3.6-4.3-5.5s-2.6-3.8-3.9-5.8c-1.2-2-2.4-4-3.4-6.1-1.1-2.1-2-4.2-2.9-6.4-.9-2.2-1.7-4.4-2.3-6.6-.6-2.3-1.1-4.6-1.3-6.9-.3-2.3-.2-4.8.2-7.1.4-2.4 1.3-4.7 2.9-6.6 1.5-2 3.5-3.5 5.6-4.6 1.1-.4 2.2-1 3.4-1.3l1.8-.5 1.7-.3c2.4-.4 4.6-.6 7-.8 2.3-.2 4.7-.4 7-.5 1.2 0 2.3-.1 3.5-.1s2.3-.1 3.6 0c2.4.2 4.6.6 6.9.8 1.1.1 2.3.2 3.4.2.5 0 1.1 0 1.6-.1.5 0 .9-.2 1.2-.4l1.2 1.7c-3.1 2.2-5.9 4.8-8.2 7.8l-1.1-1.6c1-.3 2-.5 3-.7.5-.1 1-.2 1.5-.2.5-.1 1-.1 1.5-.2 1-.1 2-.1 3.1-.1l1.5.1 1.5.1c1 .1 2 .2 3 .4l3 .6c2 .5 3.9 1.1 5.8 1.7 1.9.6 3.8 1.4 5.6 2l5.6 2c3.7 1.4 7.5 3 10.9 5.4l1.4 1-1.5.7c-.8.4-1.5.6-2.2.9-.7.3-1.4.6-2 1-.3.2-.5.4-.8.6-.2.2-.3.4-.3.4s-.1-.1 0 .1l.1.3v.2c-.1-.2 0-.1-.1-.1v-.1s.3.2.6.3c.6.2 1.4.3 2.1.4.7.1 1.5.1 2.3.2l2.4.1 2.4.3c3.1.5 6.2 1.1 9.2 1.9.8.2 1.6.5 2.3.8l2.2.8c.7.3 1.4.5 2.1.7s1.4.3 1.9.2l.4 1.7-10.5 2.3.1-1.5c12.6 4.4 24.8 10.2 36.3 17.1l1.4.9-1.6.1-8.7.3.3-.7c1.6 1.6 3.1 3.2 4.6 4.9.7.9 1.4 1.7 2.1 2.6.7.9 1.3 1.8 2 2.7 2.5 3.7 4.7 7.6 6.5 11.6l.2.5h-.5l-9.5-.4-9.5-.4.4-.3c-.1 3.9.6 7.8 1.9 11.4l.3.8-.8-.3c-2-.7-4-1.4-6-1.9s-4.1-1-6.1-1.3c-4.1-.7-8.3-1-12.5-1l.6-.8 4.2 11.2.4 1.1-1.2-.2c-2.6-.4-5.2-.9-7.8-1.5-1.3-.3-2.6-.6-3.9-1-1.3-.3-2.6-.7-3.8-1.1-5.1-1.6-10-3.5-14.8-5.9l1.3-.9 1.7 11.2.3 1.6-1.5-.7c-9-4.1-17.6-8.9-25.8-14.3l1.2-.7.7 10.8.1 1.9-1.4-1.2-2.1-1.9-2.1-2-2-2-2-2.1-1.9-2.1-1.9-2.2-1.8-2.2-1.8-2.3-1.7-2.3-1.6-2.3-1.6-2.4-1.5-2.4-1.5-2.5-1.4-2.5-1.3-2.5-1.3-2.6.5-.1-.6 12-.4-.3z"/><path class="st5" d="M341.6 618.8c19.9 9.5 39.7 13.5 64.2 15.6-16-4.3-31.9-8.7-47.9-13-5-1.4-10-2.7-14.6-4.9-4.7-2.2-8.9-5.2-13.2-8.2-6.9-4.9-27.6-24.5-34.7-20.3 15.5 9 29.8 22.4 46.2 30.8z"/><path class="st6" d="M427.2 476.8c-3-7.3-17.2-15.3-24.3-17.9-12.2-4.3-24.5-8.5-36.7-12.7-2.6-.9-5.4-1.8-8.2-1.3-4.9.9-7.8 5.7-10 10.1-5 9.8-9.5 19.9-13.6 30.1-3.7 9.1-3 18.3-2.5 28.1.2 3.1.5 6.4 2.5 8.8 1.4 1.7 3.6 2.6 5.6 3.5 11.1 4.9 22.3 9.8 33.9 13.1 6.8 1.9 14.1 3.3 20.7.8 8.4-3.2 13.3-11.8 17.4-19.8 5.5-10.5 11-20.9 16.5-31.4 1.1-2.1 2.2-4.3 1.8-6.6-.5-1.9-1.8-3.4-3.1-4.8z"/><path d="M335.3 491h3.7c.6 0 1.2 0 1.9.1.7 0 1.5.1 2.3.2 1.6.2 3.4.4 5.4.8 4 .7 8.5 1.8 13.3 3 2.4.6 4.9 1.2 7.4 1.8 2.5.6 5.1 1.2 7.6 1 1.2-.1 2.4-.3 3.4-.8s1.9-1.4 2.6-2.3c.7-1 1.4-2.1 2.1-3.2s1.3-2.2 2-3.2c2.6-4.2 4.9-8.3 6.8-11.8 1.9-3.5 3.5-6.4 4.5-8.5 1.1-2.1 1.7-3.3 1.7-3.3l-.3.9c-.2.6-.5 1.4-1 2.5-.9 2.2-2.1 5.2-3.9 8.9-1.7 3.6-3.8 7.8-6.3 12.1-.6 1.1-1.3 2.2-1.9 3.3-.7 1.1-1.3 2.2-2.1 3.4-.8 1.1-1.8 2.2-3.2 2.9-1.3.7-2.8 1-4.2 1.1-2.9.1-5.6-.6-8.1-1.1-2.6-.6-5.1-1.3-7.5-1.9-2.4-.7-4.7-1.3-6.9-1.9-2.2-.6-4.3-1.2-6.2-1.6s-3.7-.9-5.3-1.1c-.8-.2-1.5-.3-2.2-.4s-1.3-.2-1.9-.3c-1.1-.1-2.1-.2-2.7-.3-.6-.3-1-.3-1-.3z"/><path d="M380.8 499.1s.1-.2.4-.3c.3-.1.8.1 1.2.5.2.2.4.4.6.8.1.3.3.6.5.9.3.7.7 1.4 1.1 2.2.8 1.6 1.7 3.6 2.6 5.7.5 1.1.9 2.1 1.4 3.2.5 1.1.9 2.2 1.4 3.4.4 1.1.9 2.3 1.3 3.4l1.2 3.3c.8 2.1 1.5 4.2 2 5.9 1.1 3.5 1.7 5.9 1.7 5.9s-1.2-2.1-2.8-5.4c-.8-1.6-1.7-3.6-2.6-5.7-.5-1.1-.9-2.1-1.4-3.2-.5-1.1-.9-2.2-1.4-3.4-.4-1.1-.9-2.3-1.3-3.4l-1.2-3.3c-.8-2.1-1.5-4.2-2-5.9-.3-.9-.5-1.7-.8-2.4-.1-.4-.2-.7-.3-1s-.2-.5-.3-.7c-.3-.4-.6-.7-.9-.7s-.4.2-.4.2z"/><path class="st6" d="M314.5 514.1c-1.6 13.4-4.1 26.8-7.4 40.1-.9 3.5-1.8 7.1-1.8 10.7 0 3.4.9 6.6 1.9 9.6 3.4 10.3 8.8 20.4 17.4 22.6 2.9.8 6 .5 9.1.6 14.1.1 27.4 5.1 41.5 5.2 3.2 0 6.6-.3 9.7-2.4 5.5-3.8 8.2-12.3 9.8-20 2.3-11.5 3.4-23.3 7-34.5 1.2-3.7 2.7-7.9 1.7-11.3-1.1-3.6-4.5-4.5-7.4-5.7-5.3-2.2-9.6-6.7-14.5-9.8-8.1-5.2-17.8-6.6-27.4-4-12.8 3.4-24.4-3.6-37-4.1-.5 0-1.1 0-1.6.4s-1.4 2-1 2.6z"/><path d="M315 515.6s1.1 1.1 2.9 3 4.5 4.7 7.6 8c1.6 1.7 3.2 3.5 5 5.3s3.8 3.7 6 5.4 4.7 3.1 7.4 4c2.7.9 5.7 1.2 8.6 1.2 3 0 6-.2 8.9-.4 3-.2 5.9-.4 8.7-.6 5.7-.4 11-.7 15.5-1.2 4.5-.6 8.2-1.4 10.7-2.1 2.5-.7 4-1.3 4-1.3s-.3.2-1 .5-1.6.7-2.9 1.2c-2.5.9-6.2 2.1-10.7 2.9-4.5.8-9.8 1.3-15.5 1.9-2.8.3-5.8.5-8.7.8-3 .3-6 .5-9.1.5-3.1 0-6.2-.4-9.2-1.4s-5.6-2.6-7.9-4.4c-2.3-1.8-4.2-3.8-6-5.7s-3.4-3.8-4.8-5.6c-2.9-3.5-5.3-6.5-7-8.5-1.6-2.3-2.5-3.5-2.5-3.5zm26.2 27s-.2.8-.6 2.1c-.4 1.3-1 3.2-1.7 5.4s-1.5 4.9-2.4 7.7c-.9 2.8-1.8 5.8-2.7 8.8s-1.8 6-2.6 8.8c-.8 2.8-1.6 5.5-2.3 7.7-.7 2.3-1.2 4.1-1.6 5.5-.4 1.3-.6 2.1-.6 2.1s.1-.8.3-2.2c.2-1.4.5-3.3.9-5.6s1-5 1.7-7.9c.4-1.4.7-2.9 1.1-4.4.4-1.5.9-3 1.3-4.5.5-1.5 1-3 1.4-4.5.5-1.5 1-2.9 1.5-4.3 1-2.8 2-5.3 3-7.5.9-2.2 1.8-4 2.4-5.2.5-1.3.9-2 .9-2z"/><path class="st6" d="M302.9 285.1c.6-.3 1.2-.6 1.9-.7 1.7-.5 3.6-.4 5.4-.4 14.4.5 24 4.2 37.6 8.2 3.1.9 6.3 1.9 8.7 4.1 3.7 3.5 4.4 9 6.3 13.7 2.6 6.5 7.4 11.8 11.3 17.7 3.9 5.8 6.9 13 4.9 19.8-.8 2.7-2.3 5.1-3.8 7.5-3.3 5.3-6.7 10.5-10 15.8-3.8 6.1-7.9 12.4-14.1 16-9.2 5.3-20.7 3.4-31.1 1.4-8.3-1.6-17.2-3.5-23-9.8-2.6-2.8-4.3-6.3-6.1-9.7-3.1-6.3-6.3-12.6-9.4-18.9-10-20 2.1-45.3 15.9-60.2 1.7-1.8 3.5-3.5 5.5-4.5z"/><path d="M283.9 330.7s1.2-.1 3.2-.2 4.9-.3 8.4-.4 7.6-.2 11.9-.3c2.2 0 4.4-.1 6.7-.1s4.6 0 6.9-.1c2.3 0 4.5-.3 6.4-1.1 1.9-.8 3.5-2.3 4.8-3.9s2.5-3.4 3.7-5 2.3-3.1 3.3-4.5c2.1-2.8 3.9-5.1 5.1-6.7s2-2.5 2-2.5-.6 1-1.6 2.7c-1.1 1.7-2.6 4.2-4.4 7.2-.9 1.5-2 3.1-3 4.7-1.1 1.7-2.2 3.5-3.6 5.2-1.4 1.7-3.1 3.5-5.4 4.6-2.3 1-4.8 1.3-7.1 1.4h-7c-2.3 0-4.5-.1-6.7-.1-4.4-.1-8.4-.2-11.9-.3-3.5-.1-6.4-.3-8.4-.4-2.1-.1-3.3-.2-3.3-.2z"/><path d="M328.6 329.8s1.7 2.4 3.9 6.3c1.1 1.9 2.4 4.2 3.6 6.6.6 1.2 1.3 2.5 1.9 3.8.6 1.3 1.3 2.6 1.9 4 .6 1.3 1.2 2.7 1.8 4 .6 1.3 1.1 2.6 1.7 3.9 1.1 2.5 2 4.9 2.8 7 1.5 4.1 2.4 7 2.4 7s-.4-.6-1-1.8c-.6-1.1-1.5-2.8-2.5-4.7-1-2-2.1-4.3-3.3-6.8-.6-1.2-1.2-2.5-1.8-3.8-.6-1.3-1.3-2.6-1.9-4-1.2-2.7-2.5-5.3-3.6-7.8-1.2-2.5-2.2-4.9-3.1-6.9-1.7-4-2.8-6.8-2.8-6.8z"/><path class="st6" d="M360.3 226.6c-4.6 3.7-6.4 9.7-8.1 15.3-4.2 14.2-8.3 29.6-3.2 43.6 3.6 10 11.5 17.7 19.2 25 2.3 2.2 4.8 4.5 7.9 5 3 .5 6-.8 8.7-2 8.4-3.7 16.7-7.3 25.1-11 6.6-2.9 13.5-6.1 17.2-12.2 2.7-4.5 3.2-9.9 3.7-15.1.7-7.9 1.4-15.9 2.1-23.8.2-2.3.4-4.6-.2-6.9-.7-2.7-2.6-4.9-4.4-7-7.7-8.8-18.1-21.7-30.9-21-10.1.5-29.2 3.8-37.1 10.1z"/><path d="M369.9 235.1v.9c0 .6.1 1.4.4 2.4s.8 2.2 1.5 3.5 1.7 2.7 2.7 4.2 2.1 3.3 2.9 5.3 1.3 4.2 2.1 6.3c.7 2.1 1.9 4.1 3.6 5.3 1.7 1.3 4 1.7 6.3 1.4 2.3-.2 4.6-.9 6.8-1.7 2.2-.9 4.4-1.8 6.5-2.6 4.3-1.7 8.3-3.3 11.7-4.6 3.4-1.3 6.3-2.4 8.3-3.1 2-.7 3.2-1.1 3.2-1.1s-1.1.6-3 1.5-4.7 2.3-8 3.8c-3.3 1.6-7.3 3.3-11.5 5.2-2.1.9-4.2 1.9-6.5 2.8s-4.7 1.7-7.3 1.9c-1.3.1-2.6.1-3.9-.2l-1-.3-.9-.4c-.6-.3-1.3-.7-1.7-1-2.3-1.6-3.4-4.1-4.1-6.3-.8-2.2-1.2-4.4-1.8-6.4-.6-2-1.6-3.7-2.5-5.3-.9-1.6-1.7-3.1-2.4-4.5-.6-1.4-1.1-2.7-1.3-3.7-.2-1.1-.2-1.9-.2-2.5 0-.5.1-.8.1-.8zm12.6 31.9l.6 1.5c.2.5.4 1.1.6 1.8.1.4.2.7.3 1.1s.1.8.2 1.3c.2.9.3 1.9.3 2.9.1 1 .1 2.1.1 3.3 0 1.1-.1 2.3-.2 3.5-.1 1.2-.2 2.4-.3 3.5-.3 2.4-.5 4.7-.7 6.9-.1 1.1-.2 2.2-.2 3.2s-.1 2 0 2.8v1.3c0 .4.1.8.1 1.1.1.7.1 1.3.2 1.8.2 1 .3 1.6.3 1.6l-.6-1.5c-.2-.5-.4-1.1-.6-1.8-.1-.4-.2-.7-.3-1.1-.1-.4-.1-.8-.2-1.3-.2-.9-.3-1.9-.3-2.9-.1-1-.1-2.1-.1-3.3 0-1.1.1-2.3.2-3.5.1-1.2.2-2.4.3-3.5.3-2.4.5-4.7.7-6.9.1-1.1.2-2.2.2-3.2s.1-2 0-2.8v-1.3c0-.4-.1-.8-.1-1.1-.1-.7-.1-1.3-.2-1.9-.2-.9-.3-1.5-.3-1.5z"/><path class="st1" d="M259.9 141.6c.6 88.9 2.4 177.9 5.3 266.8 1.8 55.2 1.4 110.4 1.9 165.5.3 28.4.8 56.8 2 85.2.2 4.4-1.4 16.4.9 20 3.2 4.9 44.7 18.8 58.7 21.1 13.3 2.2 26.8 2 40.3 1.2 22-1.3 41.7-3.1 65-17.3 5.2-47.9 9.4-276 9.8-342.3.4-68.4.8-136.9 1.3-205.3-62.3 7.1-122.6 9.5-185.2 5.1z"/><path d="M267 150.6s.5 18.2 1.3 50.1c.4 15.9.9 35.3 1.7 57.5.8 22.2 1.6 47.2 2.5 74.5.9 27.3 1.8 56.9 2.4 88.2.3 15.7.5 31.7.6 48.2.1 16.4.1 33.2.2 50.3.1 17.1.1 34.4.2 52 0 8.8.1 17.6.1 26.5V618c0 2.3-.1 4.6-.3 6.8-.3 4.5-.7 8.9-.4 13.2.2 2.2.5 4.3 1.3 6.2.2.4.4.9.6 1.4l.4.6.2.3s.1.2.2.3c.2.2.4.5.5.6l.5.5c.4.3.8.7 1.2 1 3.4 2.6 7.5 4.7 11.4 6.7l6.1 3.1 1.5.8 1.5.7c1 .5 2 .9 3.1 1.3 8.3 3.3 17.1 5.2 26.1 6.2s18 1.2 27.1 1c18.1-.3 36.2-2.4 53.4-7.7 4.3-1.3 8.5-2.9 12.7-4.5l3.1-1.3 1.5-.7s.5-.2.2 0c.3-.2-.3.2-.2.1 0 0 0-.1.1-.2 0-.1.1-.2.1-.3.3-.9.4-2 .6-3.1.1-1.1.3-2.2.4-3.3.7-8.9.9-17.9 1.1-26.9s.2-17.9.3-26.8c.2-8.9.4-17.7.5-26.5.1-17.6.1-34.9.1-52 .1-34.2.5-67.2 1.1-98.5.6-31.3 1.2-60.9 1.7-88.2.6-27.3 1.1-52.4 1.6-74.6.4-22.2.8-41.6 1.1-57.5.5-31.9.7-50.1.7-50.1s-.1 18.2-.2 50.1c-.2 31.9-.6 77.4-1.5 132.1-.8 54.6-1.7 118.4-1.8 186.7 0 17.1.1 34.4 0 52-.1 8.8-.2 17.7-.4 26.5-.1 8.9-.1 17.8-.2 26.8-.2 9-.3 18-1.1 27.1-.1 1.1-.2 2.3-.4 3.4-.2 1.2-.3 2.3-.7 3.6-.1.2-.1.3-.2.5s-.1.4-.3.6c0 .1-.7.9-.7.8l-.6.3-1.6.7-3.2 1.3c-4.2 1.7-8.5 3.3-12.9 4.6-17.5 5.4-35.9 7.7-54.2 7.9-9.1.2-18.3 0-27.5-1.1-9.1-1.1-18.2-3-26.8-6.5-1.1-.4-2.1-.9-3.2-1.4l-1.6-.7-1.5-.8-6-3.1c-4-2.1-8.1-4.1-11.9-7-.5-.4-.9-.8-1.4-1.2l-.7-.7c-.2-.2-.4-.4-.6-.7-.1-.1-.1-.1-.3-.4l-.3-.4-.5-.8c-.3-.5-.5-1.1-.8-1.7-.9-2.3-1.2-4.7-1.4-7-.3-4.7.1-9.2.4-13.7.2-2.2.3-4.4.3-6.6v-46.6c0-17.6-.1-34.9-.1-52s-.1-33.9 0-50.3c0-16.4-.1-32.5-.3-48.2-.4-31.3-1.2-60.9-1.9-88.2-.8-27.3-1.4-52.4-1.9-74.6s-.9-41.6-1.1-57.5c-.7-31.6-1-49.8-1-49.8z"/><path class="st7" d="M438.9 161.3s-.7.1-1.9.2c-1.2.2-3.1.3-5.4.5-4.6.4-11.3.8-19.3 1.1s-17.3.4-27.2.6c-10 .2-20.5.8-31.2 1.4-10.6.6-21.2 1.3-31.2 1.5-5 0-9.8 0-14.4-.2s-8.9-.4-12.9-.9c-4-.4-7.6-.9-10.8-1.4s-6-1-8.3-1.5-4.1-.9-5.3-1.3c-1.2-.3-1.9-.5-1.9-.5l.1-.3s.7.1 1.9.3c.6.1 1.4.2 2.3.3.9.1 1.9.2 3.1.4 1.1.2 2.4.3 3.8.4 1.4.2 2.9.3 4.5.5s3.3.3 5.1.4c1.8.1 3.7.2 5.7.3 4 .2 8.3.3 12.8.3s9.3.1 14.3-.1c9.9-.1 20.6-.4 31.2-.7 10.6-.4 21.3-.8 31.2-.8 10-.1 19.3.1 27.2.1 8 0 14.6-.3 19.2-.5 2.3-.2 4.1-.3 5.4-.4 1.2-.1 1.9-.2 1.9-.2l.1.5z"/><path class="st6" d="M317.3 528.3c6.4-16.4 7.5-15.3 13.8-31.9 6.1-15.9 12-31.9 14.9-48.6 2.8-16.5 2.6-33.6 9.1-49 1.5-3.4 3.3-6.8 3.3-10.5-22.3 4.8-42.8 14-59 26.5-3.4 2.6-14.2 17.8-16.1 22.7-4.4 11.3-5.6 21.1-4.1 33.3 2 16.3 5.2 27.1 19.5 39.7 5 4.4 12.8 13.2 18.6 17.8z"/><path class="st8" d="M320.2 522.4c-1.4-.8-2.4-1.6-3.7-2.5-2.8-1.8-4.9-4.1-7-6.5-11.3-12.5-19.7-24.4-22.4-39.3-1.3-9.1.1-18.2 1.3-27.1.7-4.9 1.5-9.9 3.8-14.3 3.5-6.6 10-11.6 16.9-16.1 11.6-7.8 24.3-15.1 40-17.2 1.9-.3 3.3.4 5.2.9"/><path class="st8" d="M344.7 453.9c-1.4-.7-3.2-.5-4.6.4-1.4.8-2.4 2.1-3.2 3.5-1.4 2.2-2.3 4.9-2.1 7.5.3 2.6 2 5.2 4.5 5.9"/><path d="M336.1 458.1c-1.8-1.1-3.7-2.1-5.5-3.2l-5.5-3.3-2.7-1.6c-.9-.6-1.8-1.1-2.7-1.7l-5.4-3.5c-1.8-1.1-3.6-2.3-5.3-3.5-.9-.6-1.8-1.2-2.6-1.8-.9-.6-1.7-1.3-2.5-2s-1.6-1.5-2.3-2.3-1.3-1.8-1.7-2.8c-.4-1-.7-2.1-.8-3.2s0-2.3.3-3.3c0-.2.1-.3.2-.4.1-.1.1-.2.1-.3 0-.1.1-.3.2-.4.1-.1.2-.3.2-.4l-.1.1c.7-1.3 1.8-2.3 2.9-3.2 1.1-.9 2.3-1.6 3.5-2.3 2.3-1.5 4.8-2.9 7.5-3.7.7-.2 1.4-.3 2.1-.5.7-.1 1.4-.1 2.1-.1 1.4 0 2.8.3 4.2.8 1.3.5 2.5 1.4 3.5 2.5.9 1.1 1.6 2.3 2.3 3.6l.5.9.1.2c.1.1.1.2.1.3l.2.5.8 1.9 1.6 3.8 1.6 3.8c.5 1.3 1.1 2.5 1.6 3.8.4 1.4.7 2.6 1.2 3.9l1.3 3.9c.4 1.3.9 2.6 1.4 3.9s1.1 2.5 1.9 3.7c-.8-1.1-1.4-2.4-2-3.6-.6-1.2-1.1-2.5-1.5-3.8l-1.4-3.9c-.2-.6-.5-1.3-.7-2s-.4-1.3-.6-2c-.4-1.3-1.1-2.5-1.6-3.8l-1.7-3.8-1.7-3.8-.9-1.9-.2-.5c0-.1-.1-.2-.1-.2l-.1-.2-.5-.9c-.6-1.2-1.3-2.4-2.2-3.4-.9-1-2-1.7-3.2-2.2s-2.5-.7-3.9-.8c-1.3 0-2.6.2-3.9.6-2.6.8-4.9 2.1-7.2 3.6-1.2.7-2.3 1.5-3.4 2.3-1.1.8-2.1 1.7-2.6 2.8-.1.1-.1.2-.2.2 0 .1.1.1.1.2-.1.3-.1.5-.1.6h-.2c-.6 1.9-.5 4 .3 5.9.4.9.9 1.8 1.6 2.6.7.8 1.4 1.5 2.1 2.2.8.7 1.6 1.3 2.5 1.9l2.6 1.8c1.7 1.2 3.5 2.4 5.3 3.6l5.3 3.6c.9.6 1.8 1.1 2.7 1.7l2.7 1.7 5.4 3.4 5 4zm7.2-9.3l.5 2.7h-.2c-.3-1.3-.6-2.7-1-4l-1-4c-.6-2.7-1.4-5.3-2.2-7.9-.4-1.3-.8-2.6-1.3-3.9l-1.6-3.8-.4-1-.2-.5-.2-.4-1-1.8-1.9-3.6c-.7-1.2-1.3-2.5-1.6-3.9-.1-.3-.2-.7-.2-1.1l-.1-.5c0-.2-.1-.4-.1-.5-.1-.7 0-1.5.1-2.2.3-1.4.9-2.7 1.8-3.9.9-1.1 2.1-2 3.3-2.7s2.6-1.2 4-1.4c1.4-.2 2.8-.2 4.2-.1 1.4.1 2.8.4 4.1.7 1.3.3 2.6.8 4 1.2-1.3-.3-2.7-.6-4-.9-1.3-.2-2.7-.4-4.1-.5-1.4 0-2.7 0-4 .3-1.3.2-2.6.7-3.7 1.4s-2.2 1.6-3 2.6-1.3 2.3-1.6 3.6c-.1.6-.2 1.3-.1 1.9 0 .2 0 .3.1.5l.1.5c.1.3.1.6.2 1 .4 1.3.9 2.5 1.6 3.7s1.3 2.4 1.9 3.7l.9 1.8c.1.2.1.3.3.5l.2.5.4 1 1.5 3.8c.5 1.3.9 2.6 1.3 4 .7 2.7 1.4 5.3 1.9 8 .6 2.7 1.1 5.4 1.6 8.1h-.2l-.3-2.9zm-7.4 18.7l-11.6.8-5.8.4-5.8.3c-1.9.1-3.9.2-5.8.1-1.9 0-3.9-.1-5.8-.4-3.9-.5-7.7-1.7-11.1-3.8-.6-.4-1.2-1-1.6-1.7-.2-.3-.4-.7-.5-1.1-.1-.4-.2-.8-.2-1.2 0-.8.1-1.5.2-2.2l.2-2.1c.1-1.4.3-2.8.5-4.2.2-1.4.4-2.8.8-4.2.4-1.4 1.1-2.8 2.2-3.8 1.1-1.1 2.5-1.7 4-2 .7-.1 1.5-.1 2.2-.1.7.1 1.4.3 2.1.5 1.4.4 2.7 1 4 1.6l15.3 7.1c2.5 1.2 5.1 2.4 7.6 3.7 1.3.6 2.5 1.3 3.7 2s2.4 1.4 3.6 2.3l.8.8-.8-.7c-1.2-.8-2.4-1.4-3.6-2.1-1.3-.6-2.5-1.2-3.8-1.8l-7.7-3.5-15.4-6.9c-1.3-.6-2.5-1.2-3.9-1.5-.7-.2-1.3-.3-2-.4s-1.3 0-2 .1c-1.3.2-2.6.8-3.4 1.7-.9.9-1.5 2.2-1.9 3.5-.4 1.3-.6 2.7-.7 4.1l-.5 4.2-.2 2.1c-.1.7-.2 1.4-.2 2 0 .3 0 .6.1.9.1.3.2.6.4.9.3.5.8 1 1.3 1.4 1.6 1 3.3 1.9 5.1 2.5 1.8.6 3.7 1 5.6 1.3 1.9.3 3.8.4 5.7.5s3.8 0 5.8 0l5.8-.1 5.8-.3c3.7-.5 7.6-.6 11.5-.7zm2.7 6.7s-1.2 1.1-3.2 3c-1.1.9-2.4 2-3.8 3.3-1.5 1.3-3.1 2.7-5 4.3-1.9 1.5-4 3.1-6.2 4.8-2.2 1.7-4.5 3.4-7.1 5.1-2.5 1.6-5.1 3.4-7.8 5.1-.3.2-.7.4-1 .6-.4.2-.7.4-1.2.5s-1 0-1.5-.2c-.4-.2-.8-.4-1.1-.7-1.3-1.1-2.2-2.6-2.7-4.2-1-3.2-.7-6.7.3-9.8.5-1.6 1.4-3 2.5-4.2 1.2-1.2 2.7-1.8 4.1-2.4 2.9-1 5.6-1.9 8.3-2.8 2.6-.9 5.1-1.7 7.4-2.4 4.6-1.5 8.4-2.6 11.1-3.5 2.7-.8 4.2-1.3 4.2-1.3s-1.5.5-4.2 1.5c-2.7.9-6.5 2.2-11 3.8-4.5 1.6-9.8 3.5-15.5 5.5-1.4.5-2.7 1.2-3.8 2.2-1 1-1.8 2.4-2.3 3.8-1 2.9-1.2 6.2-.2 9.1.5 1.4 1.3 2.8 2.5 3.8.5.5 1.2.9 1.7.7.3-.1.6-.2 1-.4.3-.2.7-.4 1-.6 2.7-1.7 5.3-3.4 7.8-5 5-3.3 9.5-6.7 13.4-9.6 3.7-3 6.9-5.6 9-7.3 2.1-1.6 3.3-2.7 3.3-2.7zm-1.8 5.6s0 .2-.1.4c0 .2-.1.3-.3.5-.2.1-.4.2-.6.2s-.4-.1-.4-.1v-.4c0-.2.1-.4.3-.5.2-.1.4-.2.6-.1.3-.1.5 0 .5 0z"/><path d="M320.1 517.1l-2.1-1.2c-.7-.5-1.5-1.1-2.1-1.8-.6-.7-1-1.6-1.2-2.5-.1-.5-.2-.9-.2-1.4v-.7c0-.2.1-.5.1-.7.2-.9.5-1.8 1-2.6s1-1.5 1.6-2.2l1.6-2.2c1.1-1.4 2.1-2.9 3.2-4.3l3.3-4.3 1.6-2.1c.5-.7 1.1-1.4 1.6-2.1l1.7-2.1c.6-.7 1.1-1.4 1.7-2.1l1.7-2.1c.6-.7 1.2-1.4 1.9-1.9.5-.3.9-.5 1.4-.7-.5.3-.9.5-1.3.9-.6.6-1.2 1.3-1.7 2.1l-1.5 2.2c-.5.7-1 1.5-1.6 2.2l-1.6 2.2-1.6 2.2-1.6 2.2-3.2 4.3-3.2 4.3-1.6 2.1c-.5.7-1.1 1.4-1.5 2.1-.4.7-.8 1.5-1 2.4 0 .2-.1.4-.1.6s-.1.5-.1.7c0 .4 0 .8.1 1.3.2.8.5 1.7 1 2.3.5.7 1.2 1.3 1.9 1.9l1.8 1z"/><path class="st6" d="M273.5 254.9c14-10.7 12.7-11.4 26.8-22 13.6-10.2 27.3-20.4 42.6-27.8 15-7.2 31.6-11.8 44.6-22.3 2.8-2.4 5.6-5 9.1-6.1 1.6 22.8-1.6 45-9.2 64.1-1.5 4-13.2 18.6-17.3 21.8-9.7 7.3-18.7 11.3-30.9 13.2-16.2 2.6-27.4 2.5-43.6-7.7-5.5-3.8-16.1-8.9-22.1-13.2z"/><path class="st8" d="M278.4 250.5c1.2 1.1 2.2 1.9 3.5 2.9 2.5 2.2 5.3 3.6 8.2 4.9 15.1 7.4 28.9 12.1 44 10.6 9.1-1.3 17.4-5.1 25.7-8.8 4.5-2.1 9.1-4.2 12.7-7.6 5.3-5.1 8.4-12.8 10.8-20.7 4.3-13.3 7.8-27.5 5.4-43.2-.2-1.9-1.3-3-2.2-4.7"/><path class="st8" d="M337.3 208c1.1 1.2 1.3 2.9.9 4.5s-1.3 2.9-2.4 4c-1.8 1.9-4.1 3.6-6.7 4.1-2.6.5-5.6-.5-6.9-2.7"/><path d="M335.7 217.5l4.8 4.2 4.8 4.2 2.4 2.1 2.4 2.1 4.9 4.1c1.6 1.4 3.3 2.7 4.9 4.1l2.5 2c.8.6 1.7 1.3 2.6 1.8.9.6 1.8 1.1 2.7 1.5 1 .4 1.9.7 2.9.8 2 .3 4.1-.1 5.8-1.2.1 0 .3-.2.5-.4l.2-.2.2-.2c.9-.9 1.5-2.1 2-3.3s.8-2.6 1.2-3.9c.8-2.6 1.4-5.3 1.4-7.9 0-1.3-.1-2.7-.5-3.9-.4-1.3-1-2.5-1.8-3.5s-1.8-1.9-3-2.4c-1.2-.6-2.5-.9-3.8-1.1l-1-.2-.3-.1h-.2l-.5-.1-2-.3-4.1-.6-4.1-.6c-1.4-.2-2.7-.5-4.1-.5h-2.1c-.7 0-1.4-.1-2.1-.1l-4.1-.3c-1.4-.1-2.7-.2-4.1-.4-1.4-.2-2.7-.5-4-.9 1.3.4 2.7.6 4 .8 1.4.2 2.7.2 4.1.3l4.1.2c1.4.1 2.7 0 4.1 0 1.4 0 2.8.3 4.1.4l4.1.5 4.1.5 2 .3.5.1h.6l1 .2c1.4.2 2.7.6 4 1.2 1.3.6 2.5 1.6 3.3 2.7.9 1.1 1.5 2.4 2 3.8.2.7.4 1.4.5 2.1.1.7.1 1.4.1 2.1 0 2.8-.7 5.6-1.4 8.2-.4 1.3-.8 2.6-1.3 4-.5 1.3-1.2 2.6-2.3 3.7l.1-.1-.3.3-.3.3c-.1.1-.2.1-.2.2-.1.1-.2.2-.4.3-.9.6-2 1-3.1 1.2-1.1.2-2.2.2-3.3.1-1.1-.1-2.2-.4-3.2-.9-1-.4-2-1-2.9-1.6-.9-.6-1.8-1.2-2.6-1.9s-1.7-1.3-2.5-2c-1.6-1.4-3.2-2.7-4.8-4.2l-4.8-4.2-2.4-2.1-2.3-2.2-4.7-4.3c-1.2-1.9-2.7-3.4-4.3-4.8zm7-9.6l-2.7.5v-.2c2.7-.3 5.5-.5 8.2-.7 2.8-.2 5.5-.4 8.3-.4 1.4 0 2.8 0 4.2.1l4.1.4 1 .1.5.1c.3 0 .4.1.5.1l2 .4c1.4.3 2.7.5 4 .8s2.6.5 4 .5c.3 0 .7 0 1-.1l.5-.1c.2 0 .3 0 .5-.1.6-.1 1.2-.3 1.8-.6 1.1-.6 2.2-1.5 3-2.5s1.3-2.3 1.7-3.6.5-2.6.4-4c-.1-1.3-.5-2.7-.9-4-.4-1.3-1-2.5-1.6-3.8-.6-1.2-1.4-2.4-2-3.6.7 1.2 1.5 2.3 2.2 3.5s1.3 2.4 1.8 3.7.9 2.6 1 4c.2 1.4.1 2.8-.2 4.2s-.8 2.7-1.7 3.9-2 2.1-3.2 2.8c-.6.3-1.3.6-2.1.7-.2 0-.4.1-.5.1l-.5.1c-.4 0-.7.1-1.1.1-1.4 0-2.8-.2-4.2-.5l-4-.8-2-.4-.5-.1-.5-.1-1-.1-4.1-.4c-1.3-.1-2.7-.2-4.1-.2-2.7-.1-5.5 0-8.2.1l-4.1.2c-1.4 0-2.7.1-4.1.2v-.2l2.6-.1zm-15.9 12.3c1 3.8 1.9 7.5 2.8 11.3l1.4 5.7 1.5 5.6c.5 1.9 1 3.7 1.6 5.6.6 1.8 1.3 3.6 2.1 5.4.8 1.7 1.7 3.4 2.8 5 1.1 1.6 2.4 3 3.8 4.2.5.4 1.1.7 1.7.9.3.1.6.1.9.1s.6-.1.9-.1c.6-.2 1.3-.5 1.9-.7l2-.8 3.9-1.6c1.3-.5 2.6-1.1 3.7-1.8s2.1-1.7 2.8-2.8c.7-1.1.9-2.5.7-3.8-.1-.7-.2-1.3-.5-1.9l-.9-1.8c-.7-1.2-1.6-2.2-2.5-3.3l-10.9-12.9-5.5-6.4c-.9-1.1-1.9-2.1-2.8-3.1-1-1-2-2-3-2.9l-.9-.6 1 .5c1.1.9 2.1 1.8 3.2 2.8 1 1 2 2 2.9 3.1 1.9 2.1 3.8 4.2 5.6 6.3l11.1 12.7c.9 1.1 1.9 2.2 2.6 3.4.4.6.7 1.2 1 1.9s.5 1.4.6 2.1c.2 1.5 0 3-.8 4.4-.7 1.3-1.9 2.3-3.1 3.1s-2.5 1.4-3.8 1.9c-1.3.6-2.6 1.1-3.9 1.6l-2 .8c-.7.2-1.3.6-2 .8-.4.1-.8.2-1.2.2s-.8 0-1.2-.1c-.8-.2-1.4-.6-2-1-3-2.6-5.2-6-6.8-9.6-.8-1.8-1.4-3.6-2-5.5-.6-1.9-1-3.8-1.5-5.6l-1.4-5.7-1.2-5.7-2.6-11.7zm-7.3-.7s-.7 1.5-1.8 4c-1.1 2.6-2.7 6.3-4.5 10.7-1.7 4.5-3.7 9.8-5.5 15.5-.9 2.9-1.8 5.9-2.7 8.9-.1.4-.2.8-.3 1.1-.1.4-.2.7-.1 1 0 .6.6 1.1 1.2 1.5 1.3.8 2.8 1.2 4.3 1.3 3.1.1 6.2-1 8.7-2.8 1.3-.9 2.3-2 3-3.3.7-1.3 1-2.8 1.1-4.2.4-6 .7-11.6 1-16.4.3-4.8.5-8.8.6-11.6.2-2.8.3-4.4.3-4.4s0 1.6-.1 4.4c-.1 2.8-.1 6.8-.2 11.7-.1 2.4-.2 5-.3 7.8s-.2 5.7-.4 8.7c-.1 1.5-.4 3.1-1.2 4.6-.8 1.4-1.9 2.7-3.3 3.6-2.7 1.9-5.9 3.1-9.3 3-1.7-.1-3.3-.6-4.8-1.5-.4-.3-.7-.5-1-.9-.3-.3-.6-.9-.6-1.4s.1-.9.2-1.3l.3-1.2c.9-3.1 1.8-6 2.7-8.9s2-5.6 3-8.2c1-2.6 2-5 2.9-7.2 1-2.2 1.9-4.2 2.8-6 .8-1.8 1.5-3.3 2.1-4.6 1.2-2.5 1.9-3.9 1.9-3.9zm-4.8 3.3s.2.1.2.3c.1.2.1.4 0 .6-.1.2-.2.3-.4.4-.2.1-.4.1-.4.1s-.1-.2-.2-.3c-.1-.2-.1-.4 0-.6.1-.2.2-.3.4-.4.2 0 .4-.1.4-.1z"/><path d="M283.5 249.2l1.9 1.5c.7.5 1.5 1 2.3 1.3s1.7.4 2.5.3c.4 0 .8-.1 1.2-.3.2-.1.4-.2.6-.2l.6-.3c.7-.4 1.4-1 2-1.6.6-.6 1.1-1.4 1.6-2.1l1.6-2.1 3.2-4.3 3.2-4.3 1.6-2.1 1.7-2.1 1.6-2.1c.5-.7 1.1-1.4 1.7-2.1l1.7-2.1c.6-.7 1.1-1.4 1.5-2.2.2-.5.5-1 .6-1.5-.1.5-.2 1.1-.2 1.6h-.1c-.4.8-.9 1.6-1.4 2.4l-1.6 2.2c-.6.7-1.1 1.4-1.6 2.2l-1.5 2.2c-.5.7-1.1 1.5-1.6 2.2l-1.6 2.2-3.2 4.3c-1.1 1.4-2.2 2.8-3.3 4.3l-1.7 2.1c-.6.7-1.1 1.4-1.7 2.1-.7.7-1.4 1.2-2.3 1.6l-.6.3c-.2.1-.4.2-.6.2-.5.1-.9.2-1.4.2-.9 0-1.9-.1-2.7-.5-.8-.4-1.6-.9-2.3-1.5l-1.7-1.8z"/></svg>