<?xml version="1.0" encoding="utf-8"?>
<!-- Generator: Adobe Illustrator 19.2.0, SVG Export Plug-In . SVG Version: 6.00 Build 0)  -->
<svg version="1.1" id="Layer_1" xmlns="http://www.w3.org/2000/svg" xmlns:xlink="http://www.w3.org/1999/xlink" x="0px" y="0px"
	 viewBox="0 0 700 700" style="enable-background:new 0 0 700 700;" xml:space="preserve">
<style type="text/css">
	.st0{fill:none;}
	.st1{fill:none;stroke:#000000;stroke-width:5;stroke-miterlimit:10;}
	.st2{opacity:0.9;fill:url(#SVGID_1_);}
	.st3{fill:url(#SVGID_2_);}
	.st4{fill:#231F20;}
	.st5{fill:none;stroke:#231F20;stroke-miterlimit:10;}
	.st6{fill:none;stroke:#000000;stroke-width:2;stroke-miterlimit:10;}
	.st7{opacity:0.51;}
	.st8{fill:none;stroke:#000000;stroke-miterlimit:10;}
</style>
<rect x="0" y="0" class="st0" width="700" height="700"/>
<path class="st1" d="M6708.6-568.1c0.3,38.5,0.2,82.4-5.7,120.5c-2.3,14.7-3.7,31.7-10.6,44.9c-9.4,17.9-18.6,35.9-34,49.5
	c-5.5,4.9-11.5,9.2-17.9,12.8c-4.2,2.3-15.3,5.1-15.9,10.8c-0.4,3.6,3.8,5.7,6.9,7.6c6.9,4.3,10.9,12.3,11.6,20.4
	c1.5,15.4-5.6,30.7-18.9,38.8c-0.8,0.5-1.6,1-1.9,1.8c-0.7,2.1,2.1,3.4,4.2,3.8c12.1,2.1,24,5,35.7,8.7c7.7,2.4,24.3,10.6,12,18.5
	c-7.7,4.9-17,6.2-26,7.3c-24.7,3.1-49.7,6.2-74.5,3.9c-5.6-0.5-11.2-1.4-16.8-2.2c-7.5-1.1-15-2.2-22.5-3.3
	c-5.3-0.8-11.8-2.7-12.7-7.9c-1.7-10.2,16.6-15.1,23.6-17.2c4.9-1.5,36.5-4.6,35.6-9.3c-0.5-2.4-2.8-3.9-4.8-5.4
	c-8.9-6.4-15-16.4-16.6-27.2c-1.6-10.8,1.3-22.2,7.9-30.9c2.2-2.9,4.9-6,4.4-9.6c-0.2-1.5-1-2.9-2-4.1c-5.1-6.7-15.9-9.5-22.8-14.7
	c-7.9-6-15.2-12.8-21.6-20.4c-12.5-14.5-22.1-31.5-27.6-49.9c-5.2-17.2-6.9-35.3-8.2-53.2c-2.3-31-3.6-62-3.8-93.1
	c20.2-2.4,42-1.8,62.4-1.4C6600.9-567.5,6708.6-570.2,6708.6-568.1z"/>
<g>
	<path d="M6582-253.2c0,0,0,0.2,0,0.5c0,0.3,0,0.8,0,1.4c0,0.6,0.1,1.3,0.6,1.9c0.4,0.6,1.2,0.8,2.2,0.8c2.1-0.1,4.5-0.2,7.1-0.2
		c1.3,0,2.7-0.1,4-0.1c1.4-0.1,2.8-0.1,4.1-0.2c1.4-0.1,2.8-0.1,4.1-0.2c1.4-0.1,2.7-0.1,4-0.2c2.6-0.1,5-0.2,7.1-0.3
		c2-0.1,3.7-0.6,4.6-1.3c0.4-0.4,0.7-0.8,0.8-1.1c0.1-0.3,0.2-0.5,0.2-0.5s0,0.2,0,0.5c-0.1,0.3-0.2,0.8-0.6,1.3
		c-0.4,0.5-1.1,1-1.9,1.4c-0.8,0.4-1.8,0.7-2.8,0.8c-2.1,0.4-4.5,0.7-7.1,0.9c-1.3,0.1-2.7,0.3-4,0.4c-1.4,0.1-2.8,0.2-4.2,0.2
		c-1.4,0-2.8,0.1-4.2,0.1c-1.4,0-2.7,0-4.1,0c-2.6-0.1-5.1-0.2-7.2-0.4c-0.5-0.1-1.1-0.1-1.6-0.4c-0.5-0.3-0.9-0.7-1.1-1.1
		c-0.4-0.9-0.4-1.7-0.3-2.3c0.1-0.6,0.2-1.1,0.3-1.4C6581.9-253,6582-253.2,6582-253.2z"/>
</g>
<g>
	<path d="M6581.6-337.8c0,0,0.6,0.2,1.6,0.5c0.5,0.2,1.2,0.3,1.9,0.5c0.7,0.2,1.6,0.4,2.4,0.5c0.9,0.2,1.9,0.3,2.9,0.5
		c1,0.1,2.1,0.2,3.3,0.3c1.1,0.1,2.3,0.1,3.5,0.2c1.2,0,2.4,0,3.6,0c1.2,0,2.5,0,3.7-0.1c1.2,0,2.4-0.1,3.6-0.1
		c2.3-0.1,4.5-0.1,6.3-0.3c1.8-0.2,3.2-0.6,4.1-1.2c0.4-0.3,0.8-0.6,1-0.8c0.2-0.2,0.3-0.3,0.3-0.3s-0.1,0.1-0.2,0.4
		c-0.2,0.3-0.4,0.6-0.8,1c-0.8,0.8-2.3,1.6-4.2,2c-0.9,0.2-2,0.4-3,0.5c-1.1,0.1-2.2,0.3-3.3,0.4c-1.2,0.1-2.4,0.2-3.6,0.3
		c-1.2,0.1-2.5,0.1-3.7,0.2c-1.3,0-2.5,0-3.7-0.1c-0.6,0-1.2-0.1-1.8-0.1c-0.6-0.1-1.2-0.1-1.8-0.2c-1.2-0.1-2.3-0.4-3.4-0.6
		c-0.5-0.1-1-0.3-1.5-0.4c-0.5-0.2-1-0.3-1.4-0.4c-1.8-0.6-3.2-1.3-4.2-1.8C6582.2-337.5,6581.6-337.8,6581.6-337.8z"/>
</g>
<g>
	<path d="M6531.5-235.7c0,0,0.1,0.1,0.3,0.3c0.2,0.2,0.5,0.4,1,0.6c0.9,0.5,2.3,1,4.2,1.4c1.9,0.4,4.2,0.7,6.8,1.1
		c2.6,0.4,5.6,0.7,8.9,1.1c3.3,0.3,6.8,0.7,10.6,1c3.7,0.3,7.7,0.5,11.8,0.7c8.2,0.3,17,0.5,25.7,0.6c4.4,0.1,8.8,0.1,13.1,0.2
		c4.3,0,8.5,0.1,12.6,0c4.1-0.1,8-0.4,11.7-0.8c3.7-0.5,7.2-1.1,10.4-1.7c6.4-1.4,11.6-3,15.2-4.3c1.8-0.7,3.2-1.2,4.2-1.6
		c1-0.4,1.5-0.6,1.5-0.6s-0.5,0.2-1.4,0.7c-0.9,0.4-2.3,1.1-4.1,1.8c-3.5,1.5-8.7,3.5-15.1,5.1c-6.4,1.6-14.1,2.9-22.3,3.2
		c-4.1,0.2-8.4,0.2-12.7,0.2c-4.3,0-8.7-0.1-13.1-0.1c-4.4-0.1-8.8-0.2-13.1-0.3c-4.3-0.1-8.6-0.4-12.7-0.6c-4.1-0.3-8.1-0.6-11.8-1
		c-3.8-0.4-7.3-0.8-10.6-1.3c-1.6-0.3-3.2-0.5-4.7-0.7c-1.5-0.3-2.9-0.5-4.2-0.8c-2.6-0.5-4.9-1-6.8-1.5c-1.9-0.5-3.3-1.1-4.1-1.7
		c-0.4-0.3-0.7-0.5-0.9-0.7C6531.6-235.6,6531.5-235.7,6531.5-235.7z"/>
</g>
<linearGradient id="SVGID_1_" gradientUnits="userSpaceOnUse" x1="6498.813" y1="-446.2358" x2="6704.6909" y2="-446.2358">
	<stop  offset="1.785714e-02" style="stop-color:#801FE3"/>
	<stop  offset="1" style="stop-color:#B7A7FF"/>
</linearGradient>
<path class="st2" d="M6498.8-539.9c1.4,24.4,2.7,48.8,4.1,73.2c0.4,7.9,0.9,15.9,2.2,23.7c1.8,11.1,5.4,21.8,8.9,32.5
	c3,9.1,6,18.2,11.1,26.3c17.8,28.1,51.5,32.7,81.9,31.3c10.6-0.5,21.3-1.5,31.5-4.7c66.9-21.3,65.2-117,66.1-172.7
	c0-2.6,0.1-5.1,0.1-7.7C6636-535.8,6567.2-534,6498.8-539.9z"/>
<g>
	<path d="M6493.7-559.6c0,0,0.6,8.1,1.5,22.2c0.5,7.1,1,15.6,1.7,25.5c0.6,9.8,1.4,20.9,2.1,33.1c0.4,6.1,0.7,12.4,1.3,18.9
		c0.5,6.5,1.4,13.2,3,19.9c1.6,6.7,3.7,13.5,6,20.4c2.4,6.9,4.5,14,7.5,20.9c0.8,1.7,1.5,3.4,2.4,5.1c0.9,1.6,1.8,3.3,2.8,4.8
		c1.1,1.6,2.2,3.1,3.4,4.7c1.2,1.4,2.5,2.8,3.7,4.3c5.3,5.5,11.7,10,18.8,13.2c7.1,3.3,14.8,5.4,22.6,6.6c7.9,1.3,15.9,1.7,23.9,1.7
		c8-0.1,16.1-0.4,24-1.5c3.9-0.5,7.9-1.2,11.7-2.2c1-0.3,1.9-0.5,2.8-0.8l0.7-0.2c0.1,0,0,0,0.1,0l0.2-0.1l0.4-0.1l1.4-0.5l2.8-1
		c0.5-0.2,0.9-0.3,1.4-0.5l1.3-0.6c7.1-3.1,13.7-7.4,19.4-12.5c5.7-5.1,10.5-11.1,14.4-17.5c4-6.3,7.1-13.1,9.7-19.8
		c2.6-6.8,4.6-13.6,6.3-20.3c3.2-13.5,5-26.5,6.2-38.5c1.1-12.1,1.7-23.2,2-33c0.3-9.9,0.5-18.4,0.7-25.5
		c0.2-14.2,0.4-22.2,0.4-22.2s0,2,0.1,5.8c0,3.8,0.1,9.4,0.2,16.4c0,7.1,0,15.7-0.2,25.5c-0.1,9.9-0.5,21-1.5,33.1
		c-1,12.1-2.6,25.2-5.7,38.9c-1.6,6.8-3.6,13.7-6.1,20.6c-2.5,6.9-5.7,13.8-9.8,20.3c-4,6.5-9,12.7-14.8,18.1
		c-5.9,5.4-12.7,9.8-20.2,13.1l-1.4,0.6c-0.5,0.2-0.9,0.4-1.4,0.5l-2.8,1l-1.4,0.5l-0.4,0.1l-0.2,0.1l-0.2,0.1l-0.7,0.2
		c-1,0.3-2,0.6-2.9,0.8c-3.9,1-8,1.8-12,2.4c-8.1,1.1-16.2,1.5-24.4,1.6c-8.2,0-16.3-0.5-24.4-1.8c-8-1.3-16-3.5-23.3-7
		c-7.4-3.4-14.1-8.1-19.6-13.9c-1.3-1.5-2.6-3.1-3.9-4.6c-1.1-1.6-2.2-3.2-3.3-4.7c-2.2-3.4-3.9-6.8-5.4-10.4
		c-3-7.1-5.2-14.2-7.5-21.2c-2.2-7-4.3-13.9-5.8-20.7c-1.6-6.9-2.4-13.6-2.8-20.2c-0.5-6.6-0.7-12.9-1-18.9
		c-0.6-12.1-1.1-23.2-1.6-33.1c-0.5-9.9-0.8-18.4-1.2-25.5C6494-551.6,6493.7-559.6,6493.7-559.6z"/>
</g>
<g>
	<path d="M6494.1-544.2c0,0,0.8,0,2.4,0.1c1.6,0.1,3.8,0.2,6.7,0.3c2.9,0.2,6.4,0.3,10.5,0.5c4,0.2,8.6,0.3,13.6,0.5
		c5,0.2,10.4,0.3,16.1,0.5c5.7,0.2,11.7,0.2,17.9,0.4c6.2,0.1,12.6,0.1,19.2,0.2c6.5,0.1,13.2,0,19.8,0.1c6.6,0,13.3,0,19.8-0.1
		c6.5-0.1,13-0.1,19.2-0.2c12.5-0.1,24.1-0.2,34-0.3c10-0.1,18.3-0.1,24.1-0.1c2.9,0,5.2,0,6.7,0c1.6,0,2.4,0,2.4,0
		s-0.8,0.1-2.4,0.2c-1.6,0.1-3.8,0.2-6.7,0.4c-5.8,0.3-14.1,0.8-24.1,1.3c-10,0.5-21.6,0.9-34,1.3c-6.2,0.1-12.7,0.4-19.2,0.4
		c-6.5,0.1-13.2,0.1-19.8,0.2c-6.6,0-13.3,0-19.8-0.2c-6.5-0.1-13-0.3-19.2-0.4c-6.2-0.2-12.3-0.4-18-0.8c-2.9-0.2-5.6-0.3-8.3-0.5
		c-2.7-0.2-5.3-0.4-7.8-0.5c-2.5-0.2-4.9-0.3-7.1-0.5c-2.3-0.2-4.4-0.4-6.4-0.6c-4-0.4-7.6-0.7-10.4-1c-2.9-0.3-5.2-0.6-6.7-0.7
		C6494.9-544.1,6494.1-544.2,6494.1-544.2z"/>
</g>
<g>
	<linearGradient id="SVGID_2_" gradientUnits="userSpaceOnUse" x1="351.5058" y1="675.2976" x2="351.5058" y2="162.8432">
		<stop  offset="0" style="stop-color:#8CC000"/>
		<stop  offset="0.9981" style="stop-color:#FEFFE1"/>
	</linearGradient>
	<path class="st3" d="M436.4,163.2c-18.8,2-38,1.4-57,1.8c-15.3,0.3-30.5,1.3-45.8,1.8c-22.2,0.8-45.1,0.8-66.9-4
		c0.3,16.1,0.6,32.2,1,48.3c1.9,92.9,6.5,185.6,6.1,278.5c-0.2,44.7,0.4,89.4,0.4,134c0,7.9-2.8,22,2.1,28.7
		c3.2,4.4,14.2,9.2,19,11.8c16.3,8.8,35.8,10.9,54.1,11c27.7,0.2,53.6-3.2,78.9-14.6c3.1-1.4,2.8-56.2,3-62.5
		c0.6-20.2,0.5-40.5,0.5-60.6C431.6,412.9,435.4,288,436.4,163.2z"/>
	<g>
		<path class="st4" d="M364.9,122.7l-3,15.5l-0.1,0.7l-0.1-0.7c-1.5-10.1-4.2-20-8-29.5l0.7-0.1c-0.2,3.7-1,7.4-2.4,10.8l-0.4,1.1
			l-0.4-1.1l-4.7-13.8l-1.2-3.5l-0.6-1.7c-0.2-0.6-0.4-1.2-0.6-1.7c-0.2-0.5-0.5-1-0.9-1.4c-0.3-0.4-0.8-0.6-1.1-0.5
			c-0.1,0-0.2,0-0.2,0c0,0,0,0,0,0c0,0-0.1,0.1-0.1,0.1c-0.1,0.1-0.1,0.4-0.1,0.6c0,0.2,0.1,0.4,0.1,0.5c0,0.1,0,0,0,0c0,0,0,0,0,0
			c0,0,0,0,0.1,0l-0.2,0.7c-1.4-4-3-7.9-4.8-11.7c-0.5-0.9-0.9-1.9-1.4-2.8c-0.2-0.5-0.5-0.9-0.8-1.3c-0.3-0.4-0.6-0.7-1-1
			c-0.4-0.3-0.7-0.4-1.1-0.4c-0.1,0-0.2,0-0.3,0c0.1,0-0.3,0.1-0.2,0.1c0,0-0.1,0.1-0.2,0.2c-0.1,0.3-0.1,0.7,0,1
			c0.1,0.2,0.2,0.3,0.1,0.2c0,0-0.1,0,0-0.1l-0.2,0.8c-2.7-7.1-7-13.5-12.4-18.7l1.3-0.5l-0.1,6.4l-0.1,2.5l-1.4-2.1L311.2,60
			l1.5-0.7l2.1,6.4l1.4,4.3l-2.9-3.5c-3.8-4.6-8.1-8.7-12.9-12.2l1-1.4c0.2,0.1,0.3,0.4,0.3,0.4c0,0.1,0.1,0.1,0.1,0.2
			c0,0.1,0.1,0.2,0.1,0.3c0.1,0.2,0.1,0.4,0.1,0.5l0.2,1l0.2,1l0.1,0.5l0.1,0.2l0,0.1l-1.7,0.3c0.1-0.9,0.1-1.8,0-2.6
			c-0.1-0.4-0.2-0.7-0.4-0.9c-0.2-0.2-0.3-0.3-0.6-0.3c-0.6,0-1.4,0.3-2.1,0.8c-0.7,0.5-1.4,1.1-2,1.8c-0.6,0.7-1.2,1.4-1.6,2.2
			c-0.2,0.4-0.4,0.8-0.6,1.2l-0.1,0.3c0,0-0.1,0.1,0,0.1l-0.1,0.2l-0.2,0.7c-0.1,0.2-0.1,0.5-0.2,0.7l-0.1,0.7
			c-0.1,0.4-0.2,0.9-0.2,1.3c-0.1,0.9-0.2,1.9-0.2,2.8c0,0.9-0.1,1.9,0,2.8c0,0.9,0.1,1.9,0.1,2.9c0.1,1.9,0.3,3.8,0.5,5.7
			c0.4,3.8,0.9,7.7,1.1,11.6l0.1,1.6l-1.4-0.7l-6-2.8l1.4-0.9c-0.1,9,0.1,18,0.6,26.9l0.2,3.8l-2-3.2c-0.2-0.4-0.6-0.6-1-0.7
			c-0.4-0.1-1,0-1.5,0.2c-1,0.4-1.9,1.2-2.2,2.1c0,0-0.1,0.3-0.1,0.4c0,0.2,0,0.3-0.1,0.4c0,0.3,0,0.6,0,0.8c0,0.6,0.1,1.2,0.3,1.8
			c0.3,1.2,0.9,2.4,1.5,3.5l7.5,14.3l0.9,1.6l-1.8-0.2c-0.2,0-0.5,0-0.7,0c-0.3,0-0.5,0.1-0.8,0.1c-0.5,0.1-1,0.4-1.4,0.7
			c-0.4,0.3-0.8,0.7-1.1,1.1c-0.1,0.2-0.3,0.4-0.3,0.7c-0.1,0.2-0.1,0.5-0.2,0.7l-0.3-0.8c4.6,4,8.4,8.8,11.2,14.1l0.7,1.3L296,156
			l-6.9,0.3l0.7-1.4l7.7,11.5l1.2,1.8l-2.2-0.5l-10.4-2.3l0.9-1.4c5,5.9,10.6,11.5,16.5,16.5l0.7,0.6l-0.7,0.6
			c-1.2,1.1-3,1.7-4.6,1.4l0.8-1.3l2.2,2.7l2.5,2.5c0.9,0.7,1.8,1.5,2.7,2.3c1,0.7,1.9,1.4,2.9,2c1,0.6,2,1.2,3.1,1.8
			c1.1,0.5,2.1,1.1,3.2,1.6c1.1,0.4,2.2,0.9,3.3,1.3l3.4,1.2l3.4,1l3.5,0.8l3.5,0.7l3.5,0.5l3.5,0.4l3.6,0.3l3.6,0.2l3.6,0.1
			l-0.6,0.5c0.4-1.7,0.9-3.4,1.6-5.1c0.3-0.8,0.7-1.6,1.1-2.4c0.4-0.8,0.8-1.6,1.2-2.4c1.6-3.1,3.5-6,5.3-9c0.9-1.5,1.8-3,2.6-4.5
			c0.8-1.5,1.6-3,2.3-4.6c0.3-0.8,0.7-1.6,1-2.4c0.3-0.8,0.6-1.6,0.8-2.4l0.4-1.2l0.3-1.3c0.2-0.8,0.4-1.7,0.6-2.5
			c0.3-1.7,0.6-3.4,0.9-5.1c0.1-0.9,0.2-1.7,0.3-2.6l0.2-2.6l0.1-2.6l0-2.6c0-1.7,0-3.5-0.2-5.2c0-0.9-0.1-1.7-0.2-2.6
			c-0.1-0.9-0.2-1.7-0.3-2.6c-0.1-0.9-0.2-1.7-0.4-2.6c-0.1-0.9-0.3-1.7-0.5-2.6c-0.3-1.7-0.8-3.4-1.2-5.1c-0.2-0.8-0.5-1.7-0.7-2.5
			L364.9,122.7z M364.9,122.7l0.9,2.5c0.3,0.8,0.5,1.7,0.8,2.5c0.5,1.7,0.9,3.3,1.3,5c0.2,0.8,0.4,1.7,0.5,2.6
			c0.2,0.9,0.3,1.7,0.4,2.6c0.1,0.9,0.3,1.7,0.3,2.6c0.1,0.9,0.2,1.7,0.3,2.6c0.1,1.7,0.2,3.5,0.2,5.2l0,2.6l-0.1,2.6l-0.2,2.6
			c-0.1,0.9-0.2,1.7-0.3,2.6c-0.2,1.7-0.5,3.5-0.8,5.2c-0.1,0.9-0.3,1.7-0.5,2.6l-0.3,1.3l-0.3,1.3c-0.5,1.7-1.1,3.3-1.8,4.9
			c-0.7,1.6-1.5,3.2-2.3,4.7c-0.8,1.5-1.7,3-2.6,4.5c-1.8,3-3.6,6-5.2,9c-0.4,0.8-0.8,1.5-1.1,2.3c-0.4,0.8-0.7,1.6-1,2.4
			c-0.6,1.6-1.1,3.2-1.5,4.9l-0.1,0.5l-0.5,0l-3.6,0L344,202l-3.6-0.3l-3.6-0.4l-3.6-0.5l-3.6-0.6l-3.5-0.8l-3.5-1l-3.4-1.2
			c-1.1-0.4-2.2-0.9-3.4-1.4c-1.1-0.5-2.2-1-3.3-1.6c-1.1-0.6-2.1-1.2-3.2-1.8c-1-0.7-2-1.4-3-2.1c-1-0.8-1.9-1.6-2.8-2.3
			c-0.9-0.8-1.7-1.7-2.6-2.6l-2.3-2.9l-1.4-1.7l2.2,0.4c1.1,0.2,2.4-0.2,3.2-1l0,1.2c-6.1-5.1-11.7-10.6-16.8-16.6l-1.7-2l2.5,0.5
			l10.4,2.3l-0.9,1.4l-7.8-11.4l-0.9-1.3l1.6-0.1l6.9-0.3l-0.8,1.3c-2.7-5.1-6.4-9.8-10.8-13.5l-0.4-0.3l0.1-0.5
			c0.1-0.4,0.2-0.8,0.3-1.1c0.1-0.4,0.3-0.7,0.5-1c0.4-0.6,0.9-1.2,1.5-1.6c0.6-0.4,1.3-0.8,2-1c0.4-0.1,0.7-0.2,1.1-0.2
			c0.4,0,0.8,0,1.2,0.1l-1,1.4l-7.5-14.3c-0.6-1.2-1.2-2.5-1.7-3.9c-0.2-0.7-0.3-1.4-0.4-2.2c0-0.4,0-0.8,0-1.2
			c0-0.2,0.1-0.4,0.1-0.6c0-0.2,0.1-0.3,0.1-0.5c0.2-0.8,0.7-1.6,1.3-2.1c0.6-0.6,1.3-1,2-1.3c0.8-0.3,1.6-0.4,2.5-0.2
			c0.9,0.2,1.8,0.7,2.3,1.5l-1.8,0.6c-0.5-9-0.7-18-0.6-27.1l0-1.5l1.4,0.6l6,2.8l-1.4,0.9c-0.1-3.8-0.7-7.6-1-11.5
			c-0.2-1.9-0.4-3.9-0.5-5.8c-0.1-1-0.1-2-0.1-2.9c0-1,0-2,0-3c0.1-1,0.1-2,0.3-3c0-0.5,0.2-1,0.3-1.5l0.2-0.8
			c0.1-0.2,0.1-0.5,0.2-0.7l0.2-0.7l0.1-0.2c0.1-0.1,0.1-0.1,0.1-0.2l0.1-0.4c0.2-0.5,0.5-1,0.7-1.4c0.5-0.9,1.2-1.7,1.9-2.5
			c0.7-0.8,1.5-1.4,2.3-2c0.9-0.6,1.9-1.1,3.3-1.1c0.7,0,1.4,0.4,1.9,1c0.4,0.5,0.6,1.1,0.7,1.7c0.2,1.1,0.2,2.1,0.1,3.2l-0.3,3.5
			l-1.4-3.2c-0.1-0.1-0.1-0.3-0.1-0.3l-0.1-0.3l-0.1-0.5l-0.2-1l-0.2-0.9l-0.1-0.4l-0.1-0.2c0,0,0,0,0,0c0-0.1,0.1,0.2,0.2,0.2
			l1-1.4c4.9,3.6,9.4,7.8,13.2,12.6l-1.5,0.8l-2-6.4l-1.7-5.5l3.2,4.7l7.9,11.5l-1.5,0.4l0.2-6.4l0.1-1.8l1.3,1.2
			c5.6,5.4,9.9,12.1,12.6,19.4l0.2,0.6l-0.5,0.2c-0.2,0.1-0.3,0.2-0.6,0.3c-0.2,0.1-0.6,0-0.8-0.1c-0.5-0.3-0.7-0.7-0.8-1
			c-0.2-0.7-0.3-1.4,0-2.1c0.2-0.4,0.3-0.7,0.9-0.9c0.3-0.2,0.2-0.1,0.5-0.2c0.2,0,0.3,0,0.5,0c0.7,0,1.4,0.3,1.8,0.7
			c0.5,0.4,0.9,0.8,1.2,1.3c0.3,0.5,0.6,1,0.9,1.4c0.5,1,1,1.9,1.4,2.9c1.8,3.9,3.4,7.8,4.8,11.9l0.1,0.5l-0.4,0.2
			c-0.1,0.1-0.2,0.1-0.3,0.2c-0.1,0-0.3,0.1-0.5,0.1c-0.3,0-0.7-0.2-0.8-0.4c-0.3-0.4-0.4-0.8-0.4-1.2c0-0.4,0.1-0.8,0.3-1.2
			c0.1-0.2,0.3-0.4,0.5-0.5c0.1-0.1,0.3-0.1,0.4-0.2c0.2,0,0.2,0,0.3,0c0.9-0.1,1.6,0.4,2.1,0.9c0.5,0.5,0.8,1.1,1.1,1.7
			c0.3,0.6,0.4,1.2,0.6,1.8l0.6,1.7l1.1,3.5l4.5,13.9l-0.8,0c1.4-3.3,2.2-6.9,2.5-10.5l0.1-1.6l0.6,1.5c3.7,9.6,6.2,19.6,7.6,29.7
			l-0.2,0L364.9,122.7z"/>
	</g>
	<g>
		<path class="st4" d="M370.2,348.2c-2.3-3.1-5.9-5.2-9.6-5.9l0.1,0l-1.1,2.1l-1,2.1l-0.9,2.2l-0.8,2.2l-0.8,2.2l-0.7,2.2l-0.6,2.3
			l-0.5,2.3l-0.5,2.3l-0.4,2.3l-0.3,2.3l-0.2,2.3l-0.1,2.3l-0.1,2.3l0,2.3l0.1,2.3l0,1l-0.7-0.8c-2.5-3.1-4.7-6.6-6.5-10.2l0.8-0.3
			c2.5,12.3,4.4,24.8,5.8,37.3l0.2,1.4l-1.1-0.9l-6.7-5l1-0.7l8.7,30.1l0.5,1.6l-1.5-0.7l-6.1-2.9l1.1-0.6c-0.3,2.2,0.3,4.5,1.6,6.3
			c0.6,0.9,1.4,1.8,2.3,2.5c0.4,0.4,0.9,0.7,1.4,1l0.2,0.1c0,0,0.1,0.1,0.2,0.1l0.4,0.2c0.3,0.1,0.5,0.2,0.8,0.4
			c2.1,0.9,4.5,1.3,6.8,1.4c1.2,0.1,2.4,0,3.6,0c0.6,0,1.2-0.1,1.6-0.2c0.2-0.1,0.4-0.1,0.6-0.2c0.1-0.1,0.1-0.1,0.2-0.2
			c0,0,0.1-0.1,0.1-0.2c0.4-0.7,0.5-2.1,0.8-3.2l0.7-3.6l1.4-7.2l2.7-14.4l1.6,0.8c-2.4,2.6-4.4,5.4-6.1,8.5l-1.6,2.9l-0.1-3.3
			l-0.1-2.3l0-2.3l0-2.3l0.1-2.3l0.2-2.3l0.2-2.3l0.3-2.3l0.4-2.2l0.4-2.2l0.5-2.2l0.5-2.2l0.6-2.2l0.7-2.2l0.7-2.2l0.8-2.1l0.8-2.1
			l1.4,1.2c-0.9,0.6-1.9,1.3-2.7,2c-0.9,0.7-1.7,1.5-2.4,2.3c-0.3,0.4-0.7,0.8-0.9,1.3c-0.2,0.2-0.3,0.5-0.4,0.7
			c-0.1,0.2-0.2,0.5-0.3,0.7c-0.2,0.5-0.3,1-0.3,1.4l0,0.7l0.1,0.7l-1.9,0.3c-0.3-2.6-0.7-5.1-0.9-7.7c-0.1-1.3-0.2-2.6-0.3-3.9
			c-0.1-1.3-0.2-2.6-0.2-3.9c0-1.3-0.1-2.6,0-3.9l0.1-3.9c0.1-2.6,0.2-5.2,0.5-7.8l0.2-1.9l0.2-1.9c0.2-1.3,0.3-2.6,0.5-3.8l0.6-3.8
			l0.7-3.8c0.6-2.5,1.1-5.1,1.8-7.5c0.6-2.5,1.4-5,2.2-7.4l1.3-3.7l1.4-3.6c0.4-1.2,1-2.4,1.5-3.6c0.5-1.2,1-2.4,1.8-3.6
			c0.4-0.6,0.9-1.1,1.4-1.6c0.6-0.5,1.2-0.9,1.9-1.2c1.4-0.5,3-0.4,4.3-0.1c1.3,0.4,2.5,0.7,3.7,1.2c1.2,0.4,2.4,0.9,3.7,1.4
			c9.6,4.1,18.2,10.5,24.8,18.6l1.3,1.6l-2-0.2l-5.3-0.5l0.8-1.4l17.3,23l0.7,0.9l-1.1,0.3c-2.5,0.6-5.1,0.4-7.5-0.5l0.8-1.1
			c5.5,6.5,9.8,13.9,12.8,21.8l0.3,0.8l-0.8,0.1l-5.3,0.6l0.5-0.9c0.9,1.8,1.7,3.7,2.2,5.7c0.4,2,0.8,4,0.7,6.1c0,2-0.2,4.1-0.6,6.1
			c-0.2,1-0.5,2-0.7,3c-0.3,1-0.6,1.9-1,2.9c-0.7,1.9-1.7,3.7-2.7,5.4c-1,1.7-2.3,3.4-3.6,4.9c-1.3,1.5-2.7,3-4.3,4.3
			c-1.5,1.3-3.1,2.6-4.7,3.7c-6.6,4.6-14.1,7.7-21.6,10.3c-7.6,2.5-15.4,4.3-23.3,5.4c7.9-1.2,15.7-3.1,23.2-5.7
			c7.5-2.6,14.9-5.9,21.4-10.5c1.6-1.1,3.2-2.4,4.6-3.7c1.5-1.3,2.8-2.8,4.1-4.3c1.3-1.6,2.4-3.1,3.4-4.8c1-1.7,1.9-3.5,2.5-5.3
			c0.4-0.9,0.6-1.9,0.9-2.8c0.2-1,0.5-1.9,0.7-2.9c0.4-1.9,0.5-3.9,0.5-5.8c0-2-0.3-3.9-0.7-5.8c-0.5-1.9-1.2-3.7-2.1-5.4l-0.4-0.8
			l0.9-0.1l5.3-0.6l-0.5,0.8c-3-7.8-7.4-15-12.8-21.3l-1.9-2.3l2.8,1.1c2.1,0.8,4.4,1,6.6,0.4l-0.4,1.2l-17.5-22.9l-1.2-1.5l1.9,0.2
			l5.3,0.5l-0.7,1.4c-6.4-7.9-14.8-14.1-24.1-18.1c-1.2-0.5-2.4-1-3.5-1.4c-1.1-0.4-2.5-0.8-3.6-1.1c-1.1-0.3-2.3-0.3-3.3,0
			c-1,0.4-1.8,1.1-2.5,2.1c-0.3,0.5-0.6,1-0.9,1.6l-0.7,1.7c-0.5,1.2-1,2.3-1.5,3.5l-1.4,3.6l-1.2,3.6c-0.8,2.4-1.6,4.9-2.2,7.3
			c-0.7,2.5-1.2,5-1.8,7.4l-0.7,3.8l-0.6,3.8c-0.2,1.3-0.3,2.5-0.5,3.8l-0.2,1.9l-0.2,1.9c-0.3,2.5-0.4,5.1-0.5,7.6l-0.1,3.8
			c0,1.3,0,2.6,0.1,3.8c0,1.3,0.1,2.5,0.1,3.8c0.1,1.3,0.1,2.5,0.3,3.8c0.2,2.5,0.5,5.1,0.8,7.6l-1.9,0.3l-0.1-1c0-0.3,0-0.7,0-1
			c0.1-0.7,0.2-1.3,0.5-1.9c0.1-0.3,0.2-0.6,0.4-0.9c0.2-0.3,0.3-0.6,0.5-0.8c0.3-0.5,0.7-1,1.1-1.5c0.8-0.9,1.7-1.8,2.6-2.5
			c0.9-0.8,1.9-1.5,2.9-2.1l2.6-1.8l-1.2,2.9l-0.8,2.1l-0.8,2.1l-0.7,2.1l-0.7,2.1l-0.6,2.1l-0.5,2.2l-0.5,2.2l-0.4,2.2l-0.4,2.2
			l-0.3,2.2l-0.2,2.2l-0.2,2.2l-0.1,2.2l-0.1,2.2l0,2.2l0.1,2.2l-1.7-0.4c1.7-3.2,3.9-6.2,6.3-8.8l2.2-2.3l-0.6,3.1l-2.8,14.4
			l-1.4,7.2l-0.7,3.6l-0.3,1.8c-0.1,0.6-0.2,1.3-0.7,2c-0.1,0.2-0.2,0.3-0.4,0.5c-0.1,0.1-0.3,0.3-0.5,0.4c-0.4,0.2-0.7,0.4-1.1,0.5
			c-0.7,0.2-1.4,0.2-2,0.2c-1.2,0.1-2.5,0.1-3.7,0c-2.5-0.1-5-0.6-7.4-1.6c-0.3-0.1-0.6-0.3-0.9-0.4l-0.4-0.2l-0.2-0.1l-0.2-0.1
			c-0.6-0.3-1.1-0.7-1.6-1.1c-1-0.8-1.9-1.8-2.6-2.8c-1.5-2.1-2.3-4.9-1.8-7.5l0.2-1l0.9,0.5l6.1,2.9l-1.1,0.9l-8.5-30.2l-0.5-1.9
			l1.5,1.2l6.6,5.1l-1,0.5c-1.3-12.5-3.2-24.9-5.4-37.3l-0.6-3.1l1.4,2.8c1.7,3.6,3.9,7,6.3,10.1l-0.6,0.2L352,376l0-2.4l0.1-2.4
			l0.2-2.3l0.3-2.3l0.3-2.3l0.4-2.3l0.5-2.3l0.6-2.3l0.6-2.3l0.7-2.2l0.8-2.2l0.9-2.2l0.9-2.2l1-2.1l1.1-2.1l0-0.1l0.1,0
			C364.4,342.8,367.9,345,370.2,348.2z"/>
	</g>
	<g>
		<path class="st4" d="M395.4,433.7C395.4,433.8,395.4,433.7,395.4,433.7l0.2-0.3l0.1-0.4l0.2-0.8l0.4-1.6l0.7-3.3
			c0.5-2.2,0.9-4.4,1.2-6.6c0.4-2.2,0.7-4.4,0.9-6.7c0.2-2.2,0.4-4.5,0.3-6.7c-0.2-4.5-0.5-9-0.8-13.4c-0.4-4.5-0.8-8.9-1.3-13.4
			c-0.3-2.2-0.6-4.4-0.9-6.7c-0.3-2.2-0.7-4.4-1-6.6c-0.4-2.2-0.7-4.4-1.1-6.6c-0.4-2.2-0.8-4.4-1.2-6.6c-0.8-4.4-1.8-8.8-2.8-13.1
			c-0.5-2.2-1-4.4-1.6-6.5c-0.5-2.2-1.1-4.3-1.7-6.5l-2.4-9.4l4.3,8.7l1.5,3.1l1.4,3.1l1.2,3.2l1,3.2c0.3,1.1,0.6,2.2,0.9,3.3
			c0.2,1.1,0.5,2.2,0.7,3.3c0.4,2.2,0.8,4.5,1.1,6.7c0.6,4.5,0.8,9,0.9,13.5c0.1,4.5-0.1,9-0.3,13.5c-0.4,9-1.3,17.9-1.9,26.8
			c-0.3,4.5-0.5,8.9-0.5,13.4c0,2.2,0,4.5,0.1,6.7l0.1,3.4L395.4,433.7z M395.4,433.7l-0.2-3.4L395,427c-0.1-2.2-0.1-4.5-0.1-6.7
			c0-2.2,0-4.5,0.1-6.7c0.1-2.2,0.1-4.5,0.2-6.7l0.6-13.4c0.2-4.5,0.4-8.9,0.5-13.4c0.1-4.5,0.1-8.9-0.1-13.4
			c-0.1-2.2-0.2-4.5-0.4-6.7c-0.2-2.2-0.5-4.4-0.8-6.6c-0.3-2.2-0.7-4.4-1.2-6.5c-0.2-1.1-0.5-2.2-0.8-3.2l-0.9-3.2l-1-3.1l-1.2-3.1
			l-1.3-3l-1.5-3l1.8-0.7c0.6,2.2,1.1,4.3,1.7,6.5c0.5,2.2,1.1,4.4,1.5,6.6c0.5,2.2,0.9,4.4,1.4,6.6c0.4,2.2,0.9,4.4,1.2,6.6
			c0.4,2.2,0.8,4.4,1.1,6.7c0.4,2.2,0.6,4.4,1,6.7c0.3,2.2,0.6,4.5,0.8,6.7c0.2,2.2,0.5,4.5,0.7,6.7c0.4,4.5,0.7,9,1,13.4
			c0.1,2.2,0.2,4.5,0.3,6.7c0.1,2.2,0.1,4.5,0.2,6.7c0.1,2.3-0.1,4.5-0.4,6.7c-0.3,2.2-0.6,4.4-1,6.7c-0.4,2.2-0.8,4.4-1.3,6.6
			l-0.7,3.3l-0.4,1.6l-0.2,0.8l-0.1,0.4L395.4,433.7C395.4,433.7,395.4,433.8,395.4,433.7z"/>
	</g>
	<g>
		<path class="st4" d="M302,63.8c2.7,11.7,5.7,23.3,9,34.8c3.3,11.5,7,22.9,11,34.2c2,5.6,4.1,11.2,6.3,16.8
			c2.2,5.6,4.4,11.1,6.8,16.6c1.2,2.8,2.3,5.5,3.8,8.1l4.3,7.9c1.4,2.7,2.7,5.4,3.8,8.3c1.1,2.9,1.9,5.9,1.9,9.1l0,1.7l-1.5-0.9
			c-2.7-1.6-5.1-3.8-7.2-6.1c-2.1-2.3-3.9-4.8-5.6-7.4c-3.4-5.2-6.1-10.7-8.6-16.3c-2.5-5.6-4.7-11.3-6.7-17.1c-1-2.9-2-5.8-3-8.7
			c-0.9-2.9-2-5.8-2.8-8.7l-0.7-2.2l-0.6-2.2l-0.6-2.2l-0.5-2.2c-0.4-1.5-0.7-3-1-4.5c-0.3-1.5-0.6-3-0.9-4.5c-0.5-3-1-6-1.4-9.1
			c-0.4-3-0.8-6.1-1.1-9.1c-0.7-6.1-1.2-12.1-2-18.2c-0.4-3-0.8-6-1.2-9.1l-0.7-4.5L302,63.8z M302,63.8l1,4.5l0.9,4.5
			c0.5,3,1,6,1.4,9c0.9,6,1.6,12.1,2.4,18.1c0.4,3,0.8,6,1.3,9c0.5,3,1,6,1.5,9c0.3,1.5,0.6,3,0.9,4.5c0.3,1.5,0.7,3,1,4.4l0.6,2.2
			l0.6,2.2l0.6,2.2l0.7,2.2c0.9,2.9,2,5.7,3,8.6c1,2.9,2,5.8,3,8.6c2.1,5.7,4.3,11.4,6.8,16.9c2.5,5.5,5.2,11,8.5,16
			c1.6,2.5,3.4,4.9,5.5,7.1c2,2.2,4.3,4.2,6.8,5.7l-1.5,0.8c0-2.8-0.7-5.6-1.8-8.4c-1-2.7-2.3-5.4-3.7-8.1l-4.2-7.9
			c-1.4-2.7-2.6-5.5-3.8-8.2c-4.6-11.1-9-22.3-12.8-33.6c-1.9-5.7-3.8-11.4-5.5-17.1c-1.8-5.7-3.4-11.5-5-17.3
			c-1.5-5.8-3-11.6-4.4-17.4c-0.7-2.9-1.3-5.8-2-8.8C303.1,69.7,302.5,66.7,302,63.8z"/>
	</g>
	<g>
		<path class="st4" d="M303.8,634.4l0.2-11.6l0-1.1l0.5,1l1.3,2.5l1.4,2.5l1.4,2.4l1.5,2.4l1.6,2.4l1.6,2.3l1.7,2.3l1.7,2.2l1.8,2.2
			l1.8,2.2l1.9,2.1l1.9,2.1l2,2l2,2l2.1,1.9l2.1,1.9l-1.2,0.6l-0.8-10.8l-0.1-1.6l1.3,0.9c8.2,5.3,16.8,10,25.7,14l-1.2,0.9
			l-1.7-11.2l-0.3-1.7l1.5,0.7c4.7,2.3,9.5,4.3,14.5,5.9c1.2,0.4,2.5,0.8,3.8,1.1c1.3,0.4,2.5,0.7,3.8,1c2.5,0.6,5.1,1.1,7.7,1.6
			l-0.8,0.9l-4-11.3l-0.3-0.8l0.8,0c4.3,0,8.5,0.4,12.7,1.2c2.1,0.4,4.2,0.9,6.2,1.5c1,0.3,2,0.6,3,0.9c1,0.3,2,0.7,3,1.1l-0.5,0.5
			c-1.3-3.7-2-7.7-1.9-11.7l0-0.4l0.3,0l9.5,0.4l9.5,0.4l-0.3,0.5c-1.8-4-4-7.9-6.5-11.5c-1.3-1.8-2.6-3.5-4.1-5.2
			c-1.4-1.7-3-3.3-4.6-4.8l-0.7-0.7l1-0.1l8.7-0.4l-0.2,0.9c-11.5-6.7-23.7-12.2-36.3-16.5l-2.6-0.9l2.7-0.6l10.5-2.5l0.4,1.7
			c-1.1,0.2-1.9,0-2.7-0.2c-0.8-0.2-1.6-0.5-2.3-0.7l-2.2-0.8c-0.7-0.3-1.5-0.5-2.1-0.7c-3-0.7-6-1.3-9.1-1.8
			c-0.8-0.1-1.5-0.3-2.2-0.3l-2.3-0.1c-0.8,0-1.6-0.1-2.4-0.2c-0.8-0.1-1.6-0.2-2.5-0.5c-0.4-0.2-0.9-0.3-1.4-0.8l-0.2-0.2l0-0.1
			l0,0c0-0.1,0.1,0.1-0.1-0.1l0,0l0-0.1l-0.1-0.3c-0.1-0.2-0.2-0.8-0.1-1.1c0.1-0.7,0.5-1.2,0.8-1.6c0.4-0.3,0.7-0.6,1.1-0.9
			c0.7-0.5,1.5-0.8,2.2-1.1c0.7-0.3,1.5-0.6,2.1-0.9l-0.1,1.7c-3.1-2.2-6.7-3.7-10.4-5.1l-5.6-1.9c-1.9-0.7-3.7-1.4-5.6-2
			c-1.9-0.6-3.7-1.2-5.6-1.7c-0.9-0.2-1.9-0.4-2.8-0.6c-0.9-0.2-1.9-0.3-2.9-0.4l-1.4-0.1l-1.4-0.1c-1,0-1.9,0-2.9,0.1
			c-0.5,0-1,0.1-1.4,0.2c-0.5,0.1-0.9,0.1-1.4,0.2c-0.9,0.2-1.9,0.4-2.8,0.6l-3,0.8l1.9-2.4c2.5-3.1,5.4-5.9,8.7-8.2l1.2,1.7
			c-0.7,0.4-1.4,0.6-2.1,0.7c-0.6,0.1-1.3,0.1-1.9,0.1c-1.2,0-2.4-0.1-3.6-0.2c-2.3-0.2-4.7-0.6-6.9-0.8c-1-0.1-2.3-0.1-3.4-0.1
			c-1.2,0-2.3,0-3.5,0.1c-2.3,0.1-4.6,0.2-6.9,0.4c-2.3,0.2-4.6,0.4-6.8,0.7l-1.7,0.3l-1.6,0.4c-1.1,0.2-2.1,0.7-3.1,1.1
			c-2,1-3.8,2.3-5.1,4c-1.4,1.7-2.2,3.8-2.7,6c-0.4,2.2-0.6,4.5-0.4,6.7c0.2,2.3,0.6,4.5,1.2,6.7c0.5,2.2,1.3,4.4,2.1,6.6
			c0.8,2.1,1.7,4.3,2.8,6.3c1,2.1,2.1,4.1,3.2,6.1c1.2,2,2.4,4,3.7,5.9c1.3,1.9,2.7,3.8,4.1,5.6
			C300.7,631.1,302.2,632.8,303.8,634.4z M303.9,634.7c-1.7-1.5-3.3-3.3-4.8-5c-1.5-1.8-2.9-3.6-4.3-5.5c-1.4-1.9-2.6-3.8-3.9-5.8
			c-1.2-2-2.4-4-3.4-6.1c-1.1-2.1-2-4.2-2.9-6.4c-0.9-2.2-1.7-4.4-2.3-6.6c-0.6-2.3-1.1-4.6-1.3-6.9c-0.3-2.3-0.2-4.8,0.2-7.1
			c0.4-2.4,1.3-4.7,2.9-6.6c1.5-2,3.5-3.5,5.6-4.6c1.1-0.4,2.2-1,3.4-1.3l1.8-0.5l1.7-0.3c2.4-0.4,4.6-0.6,7-0.8
			c2.3-0.2,4.7-0.4,7-0.5c1.2,0,2.3-0.1,3.5-0.1c1.2,0,2.3-0.1,3.6,0c2.4,0.2,4.6,0.6,6.9,0.8c1.1,0.1,2.3,0.2,3.4,0.2
			c0.5,0,1.1,0,1.6-0.1c0.5,0,0.9-0.2,1.2-0.4l1.2,1.7c-3.1,2.2-5.9,4.8-8.2,7.8l-1.1-1.6c1-0.3,2-0.5,3-0.7c0.5-0.1,1-0.2,1.5-0.2
			c0.5-0.1,1-0.1,1.5-0.2c1-0.1,2-0.1,3.1-0.1l1.5,0.1l1.5,0.1c1,0.1,2,0.2,3,0.4c1,0.2,2,0.4,3,0.6c2,0.5,3.9,1.1,5.8,1.7
			c1.9,0.6,3.8,1.4,5.6,2l5.6,2c3.7,1.4,7.5,3,10.9,5.4l1.4,1l-1.5,0.7c-0.8,0.4-1.5,0.6-2.2,0.9c-0.7,0.3-1.4,0.6-2,1
			c-0.3,0.2-0.5,0.4-0.8,0.6c-0.2,0.2-0.3,0.4-0.3,0.4c0,0,0,0,0,0c0,0-0.1-0.1,0,0.1l0.1,0.3l0,0.1l0,0.1c-0.1-0.2,0-0.1-0.1-0.1h0
			l0-0.1c0,0,0,0,0,0c0,0,0.3,0.2,0.6,0.3c0.6,0.2,1.4,0.3,2.1,0.4c0.7,0.1,1.5,0.1,2.3,0.2l2.4,0.1c0.8,0.1,1.6,0.2,2.4,0.3
			c3.1,0.5,6.2,1.1,9.2,1.9c0.8,0.2,1.6,0.5,2.3,0.8l2.2,0.8c0.7,0.3,1.4,0.5,2.1,0.7c0.7,0.2,1.4,0.3,1.9,0.2l0.4,1.7l-10.5,2.3
			l0.1-1.5c12.6,4.4,24.8,10.2,36.3,17.1l1.4,0.9l-1.6,0.1l-8.7,0.3l0.3-0.7c1.6,1.6,3.1,3.2,4.6,4.9c0.7,0.9,1.4,1.7,2.1,2.6
			c0.7,0.9,1.3,1.8,2,2.7c2.5,3.7,4.7,7.6,6.5,11.6l0.2,0.5l-0.5,0l-9.5-0.4l-9.5-0.4l0.4-0.3c-0.1,3.9,0.6,7.8,1.9,11.4l0.3,0.8
			l-0.8-0.3c-2-0.7-4-1.4-6-1.9c-2-0.5-4.1-1-6.1-1.3c-4.1-0.7-8.3-1-12.5-1l0.6-0.8l4.2,11.2l0.4,1.1l-1.2-0.2
			c-2.6-0.4-5.2-0.9-7.8-1.5c-1.3-0.3-2.6-0.6-3.9-1c-1.3-0.3-2.6-0.7-3.8-1.1c-5.1-1.6-10-3.5-14.8-5.9l1.3-0.9l1.7,11.2l0.3,1.6
			l-1.5-0.7c-9-4.1-17.6-8.9-25.8-14.3l1.2-0.7l0.7,10.8l0.1,1.9l-1.4-1.2l-2.1-1.9l-2.1-2l-2-2l-2-2.1l-1.9-2.1l-1.9-2.2l-1.8-2.2
			l-1.8-2.3l-1.7-2.3l-1.6-2.3l-1.6-2.4l-1.5-2.4l-1.5-2.5l-1.4-2.5l-1.3-2.5l-1.3-2.6l0.5-0.1l-0.6,12L303.9,634.7z"/>
	</g>
	<path class="st5" d="M339.1,616.8c19.9,9.5,39.7,13.5,64.2,15.6c-16-4.3-31.9-8.7-47.9-13c-5-1.4-10-2.7-14.6-4.9
		c-4.7-2.2-8.9-5.2-13.2-8.2c-6.9-4.9-27.6-24.5-34.7-20.3C308.4,595,322.7,608.4,339.1,616.8z"/>
	<path class="st6" d="M424.7,474.8c-3-7.3-17.2-15.3-24.3-17.9c-12.2-4.3-24.5-8.5-36.7-12.7c-2.6-0.9-5.4-1.8-8.2-1.3
		c-4.9,0.9-7.8,5.7-10,10.1c-5,9.8-9.5,19.9-13.6,30.1c-3.7,9.1-3,18.3-2.5,28.1c0.2,3.1,0.5,6.4,2.5,8.8c1.4,1.7,3.6,2.6,5.6,3.5
		c11.1,4.9,22.3,9.8,33.9,13.1c6.8,1.9,14.1,3.3,20.7,0.8c8.4-3.2,13.3-11.8,17.4-19.8c5.5-10.5,11-20.9,16.5-31.4
		c1.1-2.1,2.2-4.3,1.8-6.6C427.3,477.7,426,476.2,424.7,474.8z"/>
	<g>
		<path d="M332.8,489c0,0,0.3,0,1,0c0.6,0,1.5,0,2.7,0c0.6,0,1.2,0,1.9,0.1c0.7,0,1.5,0.1,2.3,0.2c1.6,0.2,3.4,0.4,5.4,0.8
			c4,0.7,8.5,1.8,13.3,3c2.4,0.6,4.9,1.2,7.4,1.8c2.5,0.6,5.1,1.2,7.6,1c1.2-0.1,2.4-0.3,3.4-0.8c1-0.5,1.9-1.4,2.6-2.3
			c0.7-1,1.4-2.1,2.1-3.2c0.7-1.1,1.3-2.2,2-3.2c2.6-4.2,4.9-8.3,6.8-11.8c1.9-3.5,3.5-6.4,4.5-8.5c1.1-2.1,1.7-3.3,1.7-3.3
			s-0.1,0.3-0.3,0.9c-0.2,0.6-0.5,1.4-1,2.5c-0.9,2.2-2.1,5.2-3.9,8.9c-1.7,3.6-3.8,7.8-6.3,12.1c-0.6,1.1-1.3,2.2-1.9,3.3
			c-0.7,1.1-1.3,2.2-2.1,3.4c-0.8,1.1-1.8,2.2-3.2,2.9c-1.3,0.7-2.8,1-4.2,1.1c-2.9,0.1-5.6-0.6-8.1-1.1c-2.6-0.6-5.1-1.3-7.5-1.9
			c-2.4-0.7-4.7-1.3-6.9-1.9c-2.2-0.6-4.3-1.2-6.2-1.6c-1.9-0.4-3.7-0.9-5.3-1.1c-0.8-0.2-1.5-0.3-2.2-0.4c-0.7-0.1-1.3-0.2-1.9-0.3
			c-1.1-0.1-2.1-0.2-2.7-0.3C333.2,489,332.8,489,332.8,489z"/>
	</g>
	<g>
		<path d="M378.3,497.1c0,0,0.1-0.2,0.4-0.3c0.3-0.1,0.8,0.1,1.2,0.5c0.2,0.2,0.4,0.4,0.6,0.8c0.1,0.3,0.3,0.6,0.5,0.9
			c0.3,0.7,0.7,1.4,1.1,2.2c0.8,1.6,1.7,3.6,2.6,5.7c0.5,1.1,0.9,2.1,1.4,3.2c0.5,1.1,0.9,2.2,1.4,3.4c0.4,1.1,0.9,2.3,1.3,3.4
			c0.4,1.1,0.8,2.2,1.2,3.3c0.8,2.1,1.5,4.2,2,5.9c1.1,3.5,1.7,5.9,1.7,5.9s-1.2-2.1-2.8-5.4c-0.8-1.6-1.7-3.6-2.6-5.7
			c-0.5-1.1-0.9-2.1-1.4-3.2c-0.5-1.1-0.9-2.2-1.4-3.4c-0.4-1.1-0.9-2.3-1.3-3.4c-0.4-1.1-0.8-2.2-1.2-3.3c-0.8-2.1-1.5-4.2-2-5.9
			c-0.3-0.9-0.5-1.7-0.8-2.4c-0.1-0.4-0.2-0.7-0.3-1c-0.1-0.3-0.2-0.5-0.3-0.7c-0.3-0.4-0.6-0.7-0.9-0.7
			C378.4,496.9,378.3,497.1,378.3,497.1z"/>
	</g>
	<path class="st6" d="M312,512.1c-1.6,13.4-4.1,26.8-7.4,40.1c-0.9,3.5-1.8,7.1-1.8,10.7c0,3.4,0.9,6.6,1.9,9.6
		c3.4,10.3,8.8,20.4,17.4,22.6c2.9,0.8,6,0.5,9.1,0.6c14.1,0.1,27.4,5.1,41.5,5.2c3.2,0,6.6-0.3,9.7-2.4c5.5-3.8,8.2-12.3,9.8-20
		c2.3-11.5,3.4-23.3,7-34.5c1.2-3.7,2.7-7.9,1.7-11.3c-1.1-3.6-4.5-4.5-7.4-5.7c-5.3-2.2-9.6-6.7-14.5-9.8c-8.1-5.2-17.8-6.6-27.4-4
		c-12.8,3.4-24.4-3.6-37-4.1c-0.5,0-1.1,0-1.6,0.4S311.6,511.5,312,512.1z"/>
	<g>
		<path d="M312.5,513.6c0,0,1.1,1.1,2.9,3c1.8,1.9,4.5,4.7,7.6,8c1.6,1.7,3.2,3.5,5,5.3c1.8,1.8,3.8,3.7,6,5.4
			c2.2,1.7,4.7,3.1,7.4,4c2.7,0.9,5.7,1.2,8.6,1.2c3,0,6-0.2,8.9-0.4c3-0.2,5.9-0.4,8.7-0.6c5.7-0.4,11-0.7,15.5-1.2
			c4.5-0.6,8.2-1.4,10.7-2.1c2.5-0.7,4-1.3,4-1.3s-0.3,0.2-1,0.5c-0.7,0.3-1.6,0.7-2.9,1.2c-2.5,0.9-6.2,2.1-10.7,2.9
			c-4.5,0.8-9.8,1.3-15.5,1.9c-2.8,0.3-5.8,0.5-8.7,0.8c-3,0.3-6,0.5-9.1,0.5c-3.1,0-6.2-0.4-9.2-1.4c-3-1-5.6-2.6-7.9-4.4
			c-2.3-1.8-4.2-3.8-6-5.7c-1.8-1.9-3.4-3.8-4.8-5.6c-2.9-3.5-5.3-6.5-7-8.5C313.4,514.8,312.5,513.6,312.5,513.6z"/>
	</g>
	<g>
		<path d="M338.7,540.6c0,0-0.2,0.8-0.6,2.1c-0.4,1.3-1,3.2-1.7,5.4c-0.7,2.2-1.5,4.9-2.4,7.7c-0.9,2.8-1.8,5.8-2.7,8.8
			c-0.9,3-1.8,6-2.6,8.8c-0.8,2.8-1.6,5.5-2.3,7.7c-0.7,2.3-1.2,4.1-1.6,5.5c-0.4,1.3-0.6,2.1-0.6,2.1s0.1-0.8,0.3-2.2
			c0.2-1.4,0.5-3.3,0.9-5.6c0.4-2.3,1-5,1.7-7.9c0.4-1.4,0.7-2.9,1.1-4.4c0.4-1.5,0.9-3,1.3-4.5c0.5-1.5,1-3,1.4-4.5
			c0.5-1.5,1-2.9,1.5-4.3c1-2.8,2-5.3,3-7.5c0.9-2.2,1.8-4,2.4-5.2C338.3,541.3,338.7,540.6,338.7,540.6z"/>
	</g>
	<g>
		<path class="st6" d="M300.4,283.1c0.6-0.3,1.2-0.6,1.9-0.7c1.7-0.5,3.6-0.4,5.4-0.4c14.4,0.5,24,4.2,37.6,8.2
			c3.1,0.9,6.3,1.9,8.7,4.1c3.7,3.5,4.4,9,6.3,13.7c2.6,6.5,7.4,11.8,11.3,17.7c3.9,5.8,6.9,13,4.9,19.8c-0.8,2.7-2.3,5.1-3.8,7.5
			c-3.3,5.3-6.7,10.5-10,15.8c-3.8,6.1-7.9,12.4-14.1,16c-9.2,5.3-20.7,3.4-31.1,1.4c-8.3-1.6-17.2-3.5-23-9.8
			c-2.6-2.8-4.3-6.3-6.1-9.7c-3.1-6.3-6.3-12.6-9.4-18.9c-10-20,2.1-45.3,15.9-60.2C296.6,285.8,298.4,284.1,300.4,283.1z"/>
		<g>
			<path d="M281.4,328.7c0,0,1.2-0.1,3.2-0.2c2-0.1,4.9-0.3,8.4-0.4c3.5-0.1,7.6-0.2,11.9-0.3c2.2,0,4.4-0.1,6.7-0.1
				c2.3,0,4.6,0,6.9-0.1c2.3,0,4.5-0.3,6.4-1.1c1.9-0.8,3.5-2.3,4.8-3.9c1.3-1.6,2.5-3.4,3.7-5c1.2-1.6,2.3-3.1,3.3-4.5
				c2.1-2.8,3.9-5.1,5.1-6.7c1.2-1.6,2-2.5,2-2.5s-0.6,1-1.6,2.7c-1.1,1.7-2.6,4.2-4.4,7.2c-0.9,1.5-2,3.1-3,4.7
				c-1.1,1.7-2.2,3.5-3.6,5.2c-1.4,1.7-3.1,3.5-5.4,4.6c-2.3,1-4.8,1.3-7.1,1.4c-2.4,0-4.7,0-7,0c-2.3,0-4.5-0.1-6.7-0.1
				c-4.4-0.1-8.4-0.2-11.9-0.3c-3.5-0.1-6.4-0.3-8.4-0.4C282.6,328.8,281.4,328.7,281.4,328.7z"/>
		</g>
		<g>
			<path d="M326.1,327.8c0,0,1.7,2.4,3.9,6.3c1.1,1.9,2.4,4.2,3.6,6.6c0.6,1.2,1.3,2.5,1.9,3.8c0.6,1.3,1.3,2.6,1.9,4
				c0.6,1.3,1.2,2.7,1.8,4c0.6,1.3,1.1,2.6,1.7,3.9c1.1,2.5,2,4.9,2.8,7c1.5,4.1,2.4,7,2.4,7s-0.4-0.6-1-1.8
				c-0.6-1.1-1.5-2.8-2.5-4.7c-1-2-2.1-4.3-3.3-6.8c-0.6-1.2-1.2-2.5-1.8-3.8c-0.6-1.3-1.3-2.6-1.9-4c-1.2-2.7-2.5-5.3-3.6-7.8
				c-1.2-2.5-2.2-4.9-3.1-6.9C327.2,330.6,326.1,327.8,326.1,327.8z"/>
		</g>
	</g>
	<path class="st6" d="M361.8,224.6c-4.6,3.7-6.4,9.7-8.1,15.3c-4.2,14.2-8.3,29.6-3.2,43.6c3.6,10,11.5,17.7,19.2,25
		c2.3,2.2,4.8,4.5,7.9,5c3,0.5,6-0.8,8.7-2c8.4-3.7,16.7-7.3,25.1-11c6.6-2.9,13.5-6.1,17.2-12.2c2.7-4.5,3.2-9.9,3.7-15.1
		c0.7-7.9,1.4-15.9,2.1-23.8c0.2-2.3,0.4-4.6-0.2-6.9c-0.7-2.7-2.6-4.9-4.4-7c-7.7-8.8-18.1-21.7-30.9-21
		C388.8,215,369.7,218.3,361.8,224.6z"/>
	<g>
		<path d="M367.4,233.1c0,0,0,0.3,0,0.9c0,0.6,0.1,1.4,0.4,2.4c0.3,1,0.8,2.2,1.5,3.5c0.7,1.3,1.7,2.7,2.7,4.2
			c1,1.5,2.1,3.3,2.9,5.3c0.8,2,1.3,4.2,2.1,6.3c0.7,2.1,1.9,4.1,3.6,5.3c1.7,1.3,4,1.7,6.3,1.4c2.3-0.2,4.6-0.9,6.8-1.7
			c2.2-0.9,4.4-1.8,6.5-2.6c4.3-1.7,8.3-3.3,11.7-4.6c3.4-1.3,6.3-2.4,8.3-3.1c2-0.7,3.2-1.1,3.2-1.1s-1.1,0.6-3,1.5
			c-1.9,0.9-4.7,2.3-8,3.8c-3.3,1.6-7.3,3.3-11.5,5.2c-2.1,0.9-4.2,1.9-6.5,2.8c-2.3,0.9-4.7,1.7-7.3,1.9c-1.3,0.1-2.6,0.1-3.9-0.2
			l-1-0.3l-0.9-0.4c-0.6-0.3-1.3-0.7-1.7-1c-2.3-1.6-3.4-4.1-4.1-6.3c-0.8-2.2-1.2-4.4-1.8-6.4c-0.6-2-1.6-3.7-2.5-5.3
			c-0.9-1.6-1.7-3.1-2.4-4.5c-0.6-1.4-1.1-2.7-1.3-3.7c-0.2-1.1-0.2-1.9-0.2-2.5C367.3,233.4,367.4,233.1,367.4,233.1z"/>
	</g>
	<g>
		<path d="M380,265c0,0,0.2,0.5,0.6,1.5c0.2,0.5,0.4,1.1,0.6,1.8c0.1,0.4,0.2,0.7,0.3,1.1c0.1,0.4,0.1,0.8,0.2,1.3
			c0.2,0.9,0.3,1.9,0.3,2.9c0.1,1,0.1,2.1,0.1,3.3c0,1.1-0.1,2.3-0.2,3.5c-0.1,1.2-0.2,2.4-0.3,3.5c-0.3,2.4-0.5,4.7-0.7,6.9
			c-0.1,1.1-0.2,2.2-0.2,3.2c0,1-0.1,2,0,2.8c0,0.4,0,0.9,0,1.3c0,0.4,0.1,0.8,0.1,1.1c0.1,0.7,0.1,1.3,0.2,1.8
			c0.2,1,0.3,1.6,0.3,1.6s-0.2-0.5-0.6-1.5c-0.2-0.5-0.4-1.1-0.6-1.8c-0.1-0.4-0.2-0.7-0.3-1.1c-0.1-0.4-0.1-0.8-0.2-1.3
			c-0.2-0.9-0.3-1.9-0.3-2.9c-0.1-1-0.1-2.1-0.1-3.3c0-1.1,0.1-2.3,0.2-3.5c0.1-1.2,0.2-2.4,0.3-3.5c0.3-2.4,0.5-4.7,0.7-6.9
			c0.1-1.1,0.2-2.2,0.2-3.2c0-1,0.1-2,0-2.8c0-0.4,0-0.9,0-1.3c0-0.4-0.1-0.8-0.1-1.1c-0.1-0.7-0.1-1.3-0.2-1.9
			C380.1,265.6,380,265,380,265z"/>
	</g>
	<path class="st1" d="M257.4,139.6c0.6,88.9,2.4,177.9,5.3,266.8c1.8,55.2,1.4,110.4,1.9,165.5c0.3,28.4,0.8,56.8,2,85.2
		c0.2,4.4-1.4,16.4,0.9,20c3.2,4.9,44.7,18.8,58.7,21.1c13.3,2.2,26.8,2,40.3,1.2c22-1.3,41.7-3.1,65-17.3
		c5.2-47.9,9.4-276,9.8-342.3c0.4-68.4,0.8-136.9,1.3-205.3C380.3,141.6,320,144,257.4,139.6z"/>
	<g>
		<path d="M264.5,148.6c0,0,0.5,18.2,1.3,50.1c0.4,15.9,0.9,35.3,1.7,57.5c0.8,22.2,1.6,47.2,2.5,74.5c0.9,27.3,1.8,56.9,2.4,88.2
			c0.3,15.7,0.5,31.7,0.6,48.2c0.1,16.4,0.1,33.2,0.2,50.3c0.1,17.1,0.1,34.4,0.2,52c0,8.8,0.1,17.6,0.1,26.5c0,4.4,0,8.9,0,13.4
			c0,2.2,0,4.5,0,6.7c0,2.3-0.1,4.6-0.3,6.8c-0.3,4.5-0.7,8.9-0.4,13.2c0.2,2.2,0.5,4.3,1.3,6.2c0.2,0.4,0.4,0.9,0.6,1.4l0.4,0.6
			l0.2,0.3c0,0,0.1,0.2,0.2,0.3c0.2,0.2,0.4,0.5,0.5,0.6l0.5,0.5c0.4,0.3,0.8,0.7,1.2,1c3.4,2.6,7.5,4.7,11.4,6.7l6.1,3.1l1.5,0.8
			l1.5,0.7c1,0.5,2,0.9,3.1,1.3c8.3,3.3,17.1,5.2,26.1,6.2c9,1,18,1.2,27.1,1c18.1-0.3,36.2-2.4,53.4-7.7c4.3-1.3,8.5-2.9,12.7-4.5
			l3.1-1.3l1.5-0.7c0,0,0.5-0.2,0.2,0c0.3-0.2-0.3,0.2-0.2,0.1c0,0,0-0.1,0.1-0.2c0-0.1,0.1-0.2,0.1-0.3c0.3-0.9,0.4-2,0.6-3.1
			c0.1-1.1,0.3-2.2,0.4-3.3c0.7-8.9,0.9-17.9,1.1-26.9c0.2-9,0.2-17.9,0.3-26.8c0.2-8.9,0.4-17.7,0.5-26.5c0.1-17.6,0.1-34.9,0.1-52
			c0.1-34.2,0.5-67.2,1.1-98.5c0.6-31.3,1.2-60.9,1.7-88.2c0.6-27.3,1.1-52.4,1.6-74.6c0.4-22.2,0.8-41.6,1.1-57.5
			c0.5-31.9,0.7-50.1,0.7-50.1s-0.1,18.2-0.2,50.1c-0.2,31.9-0.6,77.4-1.5,132.1c-0.8,54.6-1.7,118.4-1.8,186.7
			c0,17.1,0.1,34.4,0,52c-0.1,8.8-0.2,17.7-0.4,26.5c-0.1,8.9-0.1,17.8-0.2,26.8c-0.2,9-0.3,18-1.1,27.1c-0.1,1.1-0.2,2.3-0.4,3.4
			c-0.2,1.2-0.3,2.3-0.7,3.6c-0.1,0.2-0.1,0.3-0.2,0.5c-0.1,0.2-0.1,0.4-0.3,0.6c0,0.1-0.7,0.9-0.7,0.8c-0.6,0.3-0.4,0.2-0.6,0.3
			l-1.6,0.7l-3.2,1.3c-4.2,1.7-8.5,3.3-12.9,4.6c-17.5,5.4-35.9,7.7-54.2,7.9c-9.1,0.2-18.3,0-27.5-1.1c-9.1-1.1-18.2-3-26.8-6.5
			c-1.1-0.4-2.1-0.9-3.2-1.4l-1.6-0.7l-1.5-0.8l-6-3.1c-4-2.1-8.1-4.1-11.9-7c-0.5-0.4-0.9-0.8-1.4-1.2l-0.7-0.7
			c-0.2-0.2-0.4-0.4-0.6-0.7c-0.1-0.1-0.1-0.1-0.3-0.4l-0.3-0.4l-0.5-0.8c-0.3-0.5-0.5-1.1-0.8-1.7c-0.9-2.3-1.2-4.7-1.4-7
			c-0.3-4.7,0.1-9.2,0.4-13.7c0.2-2.2,0.3-4.4,0.3-6.6c0-2.2,0-4.5,0-6.7c0-4.5,0-8.9,0-13.4c0-8.9,0-17.7,0-26.5
			c0-17.6-0.1-34.9-0.1-52c0-17.1-0.1-33.9,0-50.3c0-16.4-0.1-32.5-0.3-48.2c-0.4-31.3-1.2-60.9-1.9-88.2
			c-0.8-27.3-1.4-52.4-1.9-74.6c-0.5-22.2-0.9-41.6-1.1-57.5C264.8,166.8,264.5,148.6,264.5,148.6z"/>
	</g>
	<g class="st7">
		<path d="M436.4,159.3c0,0-0.7,0.1-1.9,0.2c-1.2,0.2-3.1,0.3-5.4,0.5c-4.6,0.4-11.3,0.8-19.3,1.1c-8,0.3-17.3,0.4-27.2,0.6
			c-10,0.2-20.5,0.8-31.2,1.4c-10.6,0.6-21.2,1.3-31.2,1.5c-5,0-9.8,0-14.4-0.2c-4.6-0.2-8.9-0.4-12.9-0.9c-4-0.4-7.6-0.9-10.8-1.4
			c-3.2-0.5-6-1-8.3-1.5c-2.3-0.5-4.1-0.9-5.3-1.3c-1.2-0.3-1.9-0.5-1.9-0.5l0.1-0.3c0,0,0.7,0.1,1.9,0.3c0.6,0.1,1.4,0.2,2.3,0.3
			c0.9,0.1,1.9,0.2,3.1,0.4c1.1,0.2,2.4,0.3,3.8,0.4c1.4,0.2,2.9,0.3,4.5,0.5c1.6,0.2,3.3,0.3,5.1,0.4c1.8,0.1,3.7,0.2,5.7,0.3
			c4,0.2,8.3,0.3,12.8,0.3c4.5,0,9.3,0.1,14.3-0.1c9.9-0.1,20.6-0.4,31.2-0.7c10.6-0.4,21.3-0.8,31.2-0.8c10-0.1,19.3,0.1,27.2,0.1
			c8,0,14.6-0.3,19.2-0.5c2.3-0.2,4.1-0.3,5.4-0.4c1.2-0.1,1.9-0.2,1.9-0.2L436.4,159.3z"/>
	</g>
	<g>
		<path class="st6" d="M314.8,526.3c6.4-16.4,7.5-15.3,13.8-31.9c6.1-15.9,12-31.9,14.9-48.6c2.8-16.5,2.6-33.6,9.1-49
			c1.5-3.4,3.3-6.8,3.3-10.5c-22.3,4.8-42.8,14-59,26.5c-3.4,2.6-14.2,17.8-16.1,22.7c-4.4,11.3-5.6,21.1-4.1,33.3
			c2,16.3,5.2,27.1,19.5,39.7C301.2,512.9,309,521.7,314.8,526.3z"/>
		<path class="st8" d="M317.7,520.4c-1.4-0.8-2.4-1.6-3.7-2.5c-2.8-1.8-4.9-4.1-7-6.5c-11.3-12.5-19.7-24.4-22.4-39.3
			c-1.3-9.1,0.1-18.2,1.3-27.1c0.7-4.9,1.5-9.9,3.8-14.3c3.5-6.6,10-11.6,16.9-16.1c11.6-7.8,24.3-15.1,40-17.2
			c1.9-0.3,3.3,0.4,5.2,0.9"/>
		<path class="st8" d="M342.2,451.9c-1.4-0.7-3.2-0.5-4.6,0.4c-1.4,0.8-2.4,2.1-3.2,3.5c-1.4,2.2-2.3,4.9-2.1,7.5
			c0.3,2.6,2,5.2,4.5,5.9"/>
		<g>
			<g>
				<path d="M333.6,456.1c-1.8-1.1-3.7-2.1-5.5-3.2l-5.5-3.3l-2.7-1.6c-0.9-0.6-1.8-1.1-2.7-1.7l-5.4-3.5c-1.8-1.1-3.6-2.3-5.3-3.5
					c-0.9-0.6-1.8-1.2-2.6-1.8c-0.9-0.6-1.7-1.3-2.5-2c-0.8-0.7-1.6-1.5-2.3-2.3c-0.7-0.8-1.3-1.8-1.7-2.8c-0.4-1-0.7-2.1-0.8-3.2
					c-0.1-1.1,0-2.3,0.3-3.3l0,0c0-0.2,0.1-0.3,0.2-0.4c0.1-0.1,0.1-0.2,0.1-0.3c0-0.1,0.1-0.3,0.2-0.4c0.1-0.1,0.2-0.3,0.2-0.4
					l-0.1,0.1c0.7-1.3,1.8-2.3,2.9-3.2c1.1-0.9,2.3-1.6,3.5-2.3c2.3-1.5,4.8-2.9,7.5-3.7c0.7-0.2,1.4-0.3,2.1-0.5
					c0.7-0.1,1.4-0.1,2.1-0.1c1.4,0,2.8,0.3,4.2,0.8c1.3,0.5,2.5,1.4,3.5,2.5c0.9,1.1,1.6,2.3,2.3,3.6l0.5,0.9l0.1,0.2
					c0.1,0.1,0.1,0.2,0.1,0.3l0.2,0.5l0.8,1.9l1.6,3.8l1.6,3.8c0.5,1.3,1.1,2.5,1.6,3.8c0.4,1.4,0.7,2.6,1.2,3.9l1.3,3.9
					c0.4,1.3,0.9,2.6,1.4,3.9c0.5,1.3,1.1,2.5,1.9,3.7c-0.8-1.1-1.4-2.4-2-3.6c-0.6-1.2-1.1-2.5-1.5-3.8l-1.4-3.9
					c-0.2-0.6-0.5-1.3-0.7-2c-0.2-0.7-0.4-1.3-0.6-2c-0.4-1.3-1.1-2.5-1.6-3.8l-1.7-3.8l-1.7-3.8l-0.9-1.9l-0.2-0.5
					c0-0.1-0.1-0.2-0.1-0.2l-0.1-0.2l-0.5-0.9c-0.6-1.2-1.3-2.4-2.2-3.4c-0.9-1-2-1.7-3.2-2.2c-1.2-0.5-2.5-0.7-3.9-0.8
					c-1.3,0-2.6,0.2-3.9,0.6c-2.6,0.8-4.9,2.1-7.2,3.6c-1.2,0.7-2.3,1.5-3.4,2.3c-1.1,0.8-2.1,1.7-2.6,2.8l0,0l0,0
					c-0.1,0.1-0.1,0.2-0.2,0.2c0,0.1,0.1,0.1,0.1,0.2c-0.1,0.3-0.1,0.5-0.1,0.6v0l-0.2,0c-0.6,1.9-0.5,4,0.3,5.9
					c0.4,0.9,0.9,1.8,1.6,2.6c0.7,0.8,1.4,1.5,2.1,2.2c0.8,0.7,1.6,1.3,2.5,1.9l2.6,1.8c1.7,1.2,3.5,2.4,5.3,3.6l5.3,3.6
					c0.9,0.6,1.8,1.1,2.7,1.7l2.7,1.7l5.4,3.4L333.6,456.1z"/>
			</g>
		</g>
		<g>
			<g>
				<path d="M340.8,446.8l0.5,2.7l-0.2,0c-0.3-1.3-0.6-2.7-1-4l-1-4c-0.6-2.7-1.4-5.3-2.2-7.9c-0.4-1.3-0.8-2.6-1.3-3.9l-1.6-3.8
					l-0.4-1l-0.2-0.5l-0.2-0.4l-1-1.8l-1.9-3.6c-0.7-1.2-1.3-2.5-1.6-3.9c-0.1-0.3-0.2-0.7-0.2-1.1l-0.1-0.5c0-0.2-0.1-0.4-0.1-0.5
					c-0.1-0.7,0-1.5,0.1-2.2c0.3-1.4,0.9-2.7,1.8-3.9c0.9-1.1,2.1-2,3.3-2.7c1.2-0.7,2.6-1.2,4-1.4c1.4-0.2,2.8-0.2,4.2-0.1
					c1.4,0.1,2.8,0.4,4.1,0.7c1.3,0.3,2.6,0.8,4,1.2c-1.3-0.3-2.7-0.6-4-0.9c-1.3-0.2-2.7-0.4-4.1-0.5c-1.4,0-2.7,0-4,0.3
					c-1.3,0.2-2.6,0.7-3.7,1.4c-1.1,0.7-2.2,1.6-3,2.6c-0.8,1-1.3,2.3-1.6,3.6c-0.1,0.6-0.2,1.3-0.1,1.9c0,0.2,0,0.3,0.1,0.5
					l0.1,0.5c0.1,0.3,0.1,0.6,0.2,1c0.4,1.3,0.9,2.5,1.6,3.7c0.7,1.2,1.3,2.4,1.9,3.7l0.9,1.8c0.1,0.2,0.1,0.3,0.3,0.5l0.2,0.5
					l0.4,1l1.5,3.8c0.5,1.3,0.9,2.6,1.3,4c0.7,2.7,1.4,5.3,1.9,8c0.6,2.7,1.1,5.4,1.6,8.1l-0.2,0L340.8,446.8z"/>
			</g>
		</g>
		<g>
			<g>
				<path d="M333.4,465.5l-11.6,0.8l-5.8,0.4l-5.8,0.3c-1.9,0.1-3.9,0.2-5.8,0.1c-1.9,0-3.9-0.1-5.8-0.4c-3.9-0.5-7.7-1.7-11.1-3.8
					l0,0l0,0c-0.6-0.4-1.2-1-1.6-1.7c-0.2-0.3-0.4-0.7-0.5-1.1c-0.1-0.4-0.2-0.8-0.2-1.2c0-0.8,0.1-1.5,0.2-2.2l0.2-2.1
					c0.1-1.4,0.3-2.8,0.5-4.2c0.2-1.4,0.4-2.8,0.8-4.2c0.4-1.4,1.1-2.8,2.2-3.8c1.1-1.1,2.5-1.7,4-2c0.7-0.1,1.5-0.1,2.2-0.1
					c0.7,0.1,1.4,0.3,2.1,0.5c1.4,0.4,2.7,1,4,1.6l15.3,7.1c2.5,1.2,5.1,2.4,7.6,3.7c1.3,0.6,2.5,1.3,3.7,2c1.2,0.7,2.4,1.4,3.6,2.3
					l0,0l0.8,0.8l-0.8-0.7l0,0c-1.2-0.8-2.4-1.4-3.6-2.1c-1.3-0.6-2.5-1.2-3.8-1.8l-7.7-3.5l-15.4-6.9c-1.3-0.6-2.5-1.2-3.9-1.5
					c-0.7-0.2-1.3-0.3-2-0.4c-0.7-0.1-1.3,0-2,0.1c-1.3,0.2-2.6,0.8-3.4,1.7c-0.9,0.9-1.5,2.2-1.9,3.5c-0.4,1.3-0.6,2.7-0.7,4.1
					l-0.5,4.2l-0.2,2.1c-0.1,0.7-0.2,1.4-0.2,2c0,0.3,0,0.6,0.1,0.9c0.1,0.3,0.2,0.6,0.4,0.9c0.3,0.5,0.8,1,1.3,1.4l0,0
					c1.6,1,3.3,1.9,5.1,2.5c1.8,0.6,3.7,1,5.6,1.3c1.9,0.3,3.8,0.4,5.7,0.5c1.9,0.1,3.8,0,5.8,0l5.8-0.1l5.8-0.3
					C325.6,465.7,329.5,465.6,333.4,465.5z"/>
			</g>
		</g>
		<g>
			<g>
				<path d="M336.1,472.2c0,0-1.2,1.1-3.2,3c-1.1,0.9-2.4,2-3.8,3.3c-1.5,1.3-3.1,2.7-5,4.3c-1.9,1.5-4,3.1-6.2,4.8
					c-2.2,1.7-4.5,3.4-7.1,5.1c-2.5,1.6-5.1,3.4-7.8,5.1c-0.3,0.2-0.7,0.4-1,0.6c-0.4,0.2-0.7,0.4-1.2,0.5c-0.5,0.1-1,0-1.5-0.2
					c-0.4-0.2-0.8-0.4-1.1-0.7c-1.3-1.1-2.2-2.6-2.7-4.2c-1-3.2-0.7-6.7,0.3-9.8c0.5-1.6,1.4-3,2.5-4.2c1.2-1.2,2.7-1.8,4.1-2.4
					c2.9-1,5.6-1.9,8.3-2.8c2.6-0.9,5.1-1.7,7.4-2.4c4.6-1.5,8.4-2.6,11.1-3.5c2.7-0.8,4.2-1.3,4.2-1.3s-1.5,0.5-4.2,1.5
					c-2.7,0.9-6.5,2.2-11,3.8c-4.5,1.6-9.8,3.5-15.5,5.5c-1.4,0.5-2.7,1.2-3.8,2.2c-1,1-1.8,2.4-2.3,3.8c-1,2.9-1.2,6.2-0.2,9.1
					c0.5,1.4,1.3,2.8,2.5,3.8c0.5,0.5,1.2,0.9,1.7,0.7c0.3-0.1,0.6-0.2,1-0.4c0.3-0.2,0.7-0.4,1-0.6c2.7-1.7,5.3-3.4,7.8-5
					c5-3.3,9.5-6.7,13.4-9.6c3.7-3,6.9-5.6,9-7.3C334.9,473.3,336.1,472.2,336.1,472.2z"/>
			</g>
		</g>
		<g>
			<g>
				<path d="M334.3,477.8c0,0,0,0.2-0.1,0.4c0,0.2-0.1,0.3-0.3,0.5c-0.2,0.1-0.4,0.2-0.6,0.2c-0.2,0-0.4-0.1-0.4-0.1s0-0.2,0-0.4
					c0-0.2,0.1-0.4,0.3-0.5c0.2-0.1,0.4-0.2,0.6-0.1C334.1,477.7,334.3,477.8,334.3,477.8z"/>
			</g>
			<g>
				<path d="M317.6,515.1l-2.1-1.2l0,0c-0.7-0.5-1.5-1.1-2.1-1.8c-0.6-0.7-1-1.6-1.2-2.5c-0.1-0.5-0.2-0.9-0.2-1.4
					c0-0.3,0-0.5,0-0.7c0-0.2,0.1-0.5,0.1-0.7c0.2-0.9,0.5-1.8,1-2.6c0.5-0.8,1-1.5,1.6-2.2l1.6-2.2c1.1-1.4,2.1-2.9,3.2-4.3
					l3.3-4.3l1.6-2.1c0.5-0.7,1.1-1.4,1.6-2.1l1.7-2.1c0.6-0.7,1.1-1.4,1.7-2.1l1.7-2.1c0.6-0.7,1.2-1.4,1.9-1.9l0,0l0,0
					c0.5-0.3,0.9-0.5,1.4-0.7c-0.5,0.3-0.9,0.5-1.3,0.9l0,0c-0.6,0.6-1.2,1.3-1.7,2.1l-1.5,2.2c-0.5,0.7-1,1.5-1.6,2.2l-1.6,2.2
					l-1.6,2.2l-1.6,2.2l-3.2,4.3l-3.2,4.3l-1.6,2.1c-0.5,0.7-1.1,1.4-1.5,2.1c-0.4,0.7-0.8,1.5-1,2.4c0,0.2-0.1,0.4-0.1,0.6
					c0,0.2-0.1,0.5-0.1,0.7c0,0.4,0,0.8,0.1,1.3c0.2,0.8,0.5,1.7,1,2.3c0.5,0.7,1.2,1.3,1.9,1.9l0,0L317.6,515.1z"/>
			</g>
		</g>
	</g>
	<g>
		<path class="st6" d="M271,252.9c14-10.7,12.7-11.4,26.8-22c13.6-10.2,27.3-20.4,42.6-27.8c15-7.2,31.6-11.8,44.6-22.3
			c2.8-2.4,5.6-5,9.1-6.1c1.6,22.8-1.6,45-9.2,64.1c-1.5,4-13.2,18.6-17.3,21.8c-9.7,7.3-18.7,11.3-30.9,13.2
			c-16.2,2.6-27.4,2.5-43.6-7.7C287.6,262.3,277,257.2,271,252.9z"/>
		<path class="st8" d="M275.9,248.5c1.2,1.1,2.2,1.9,3.5,2.9c2.5,2.2,5.3,3.6,8.2,4.9c15.1,7.4,28.9,12.1,44,10.6
			c9.1-1.3,17.4-5.1,25.7-8.8c4.5-2.1,9.1-4.2,12.7-7.6c5.3-5.1,8.4-12.8,10.8-20.7c4.3-13.3,7.8-27.5,5.4-43.2
			c-0.2-1.9-1.3-3-2.2-4.7"/>
		<path class="st8" d="M334.8,206c1.1,1.2,1.3,2.9,0.9,4.5c-0.4,1.6-1.3,2.9-2.4,4c-1.8,1.9-4.1,3.6-6.7,4.1
			c-2.6,0.5-5.6-0.5-6.9-2.7"/>
		<g>
			<g>
				<path d="M333.2,215.5l4.8,4.2l4.8,4.2l2.4,2.1c0.8,0.7,1.6,1.4,2.4,2.1l4.9,4.1c1.6,1.4,3.3,2.7,4.9,4.1l2.5,2
					c0.8,0.6,1.7,1.3,2.6,1.8c0.9,0.6,1.8,1.1,2.7,1.5c1,0.4,1.9,0.7,2.9,0.8c2,0.3,4.1-0.1,5.8-1.2l0,0l0,0c0.1,0,0.3-0.2,0.5-0.4
					c0.1-0.1,0.1-0.1,0.2-0.2c0.1-0.1,0.1-0.1,0.2-0.2l0,0l0,0c0.9-0.9,1.5-2.1,2-3.3c0.5-1.2,0.8-2.6,1.2-3.9
					c0.8-2.6,1.4-5.3,1.4-7.9c0-1.3-0.1-2.7-0.5-3.9c-0.4-1.3-1-2.5-1.8-3.5c-0.8-1-1.8-1.9-3-2.4c-1.2-0.6-2.5-0.9-3.8-1.1l-1-0.2
					l-0.3-0.1c0,0-0.2,0-0.2,0l-0.5-0.1l-2-0.3l-4.1-0.6l-4.1-0.6c-1.4-0.2-2.7-0.5-4.1-0.5c-0.7,0-1.4,0-2.1,0
					c-0.7,0-1.4-0.1-2.1-0.1l-4.1-0.3c-1.4-0.1-2.7-0.2-4.1-0.4c-1.4-0.2-2.7-0.5-4-0.9c1.3,0.4,2.7,0.6,4,0.8
					c1.4,0.2,2.7,0.2,4.1,0.3l4.1,0.2c1.4,0.1,2.7,0,4.1,0c1.4,0,2.8,0.3,4.1,0.4l4.1,0.5l4.1,0.5l2,0.3l0.5,0.1c0.1,0,0.1,0,0.3,0
					l0.3,0l1,0.2c1.4,0.2,2.7,0.6,4,1.2c1.3,0.6,2.5,1.6,3.3,2.7c0.9,1.1,1.5,2.4,2,3.8c0.2,0.7,0.4,1.4,0.5,2.1
					c0.1,0.7,0.1,1.4,0.1,2.1c0,2.8-0.7,5.6-1.4,8.2c-0.4,1.3-0.8,2.6-1.3,4c-0.5,1.3-1.2,2.6-2.3,3.7l0.1-0.1
					c-0.1,0.1-0.2,0.2-0.3,0.3c-0.1,0.1-0.2,0.2-0.3,0.3c-0.1,0.1-0.2,0.1-0.2,0.2c-0.1,0.1-0.2,0.2-0.4,0.3l0,0
					c-0.9,0.6-2,1-3.1,1.2c-1.1,0.2-2.2,0.2-3.3,0.1c-1.1-0.1-2.2-0.4-3.2-0.9c-1-0.4-2-1-2.9-1.6c-0.9-0.6-1.8-1.2-2.6-1.9
					c-0.8-0.7-1.7-1.3-2.5-2c-1.6-1.4-3.2-2.7-4.8-4.2l-4.8-4.2c-0.8-0.7-1.6-1.4-2.4-2.1l-2.3-2.2l-4.7-4.3
					C336.3,218.4,334.8,216.9,333.2,215.5z"/>
			</g>
		</g>
		<g>
			<g>
				<path d="M340.2,205.9l-2.7,0.5l0-0.2c2.7-0.3,5.5-0.5,8.2-0.7c2.8-0.2,5.5-0.4,8.3-0.4c1.4,0,2.8,0,4.2,0.1l4.1,0.4l1,0.1
					l0.5,0.1c0.3,0,0.4,0.1,0.5,0.1l2,0.4c1.4,0.3,2.7,0.5,4,0.8c1.3,0.3,2.6,0.5,4,0.5c0.3,0,0.7,0,1-0.1l0.5-0.1
					c0.2,0,0.3,0,0.5-0.1c0.6-0.1,1.2-0.3,1.8-0.6c1.1-0.6,2.2-1.5,3-2.5c0.8-1,1.3-2.3,1.7-3.6c0.4-1.3,0.5-2.6,0.4-4
					c-0.1-1.3-0.5-2.7-0.9-4c-0.4-1.3-1-2.5-1.6-3.8c-0.6-1.2-1.4-2.4-2-3.6c0.7,1.2,1.5,2.3,2.2,3.5c0.7,1.2,1.3,2.4,1.8,3.7
					c0.5,1.3,0.9,2.6,1,4c0.2,1.4,0.1,2.8-0.2,4.2c-0.3,1.4-0.8,2.7-1.7,3.9c-0.9,1.2-2,2.1-3.2,2.8c-0.6,0.3-1.3,0.6-2.1,0.7
					c-0.2,0-0.4,0.1-0.5,0.1l-0.5,0.1c-0.4,0-0.7,0.1-1.1,0.1c-1.4,0-2.8-0.2-4.2-0.5l-4-0.8l-2-0.4l-0.5-0.1l-0.5-0.1l-1-0.1
					l-4.1-0.4c-1.3-0.1-2.7-0.2-4.1-0.2c-2.7-0.1-5.5,0-8.2,0.1l-4.1,0.2c-1.4,0-2.7,0.1-4.1,0.2l0-0.2L340.2,205.9z"/>
			</g>
		</g>
		<g>
			<g>
				<path d="M324.3,218.2c1,3.8,1.9,7.5,2.8,11.3l1.4,5.7l1.5,5.6c0.5,1.9,1,3.7,1.6,5.6c0.6,1.8,1.3,3.6,2.1,5.4
					c0.8,1.7,1.7,3.4,2.8,5c1.1,1.6,2.4,3,3.8,4.2l0,0c0.5,0.4,1.1,0.7,1.7,0.9c0.3,0.1,0.6,0.1,0.9,0.1c0.3,0,0.6-0.1,0.9-0.1
					c0.6-0.2,1.3-0.5,1.9-0.7l2-0.8l3.9-1.6c1.3-0.5,2.6-1.1,3.7-1.8c1.1-0.7,2.1-1.7,2.8-2.8c0.7-1.1,0.9-2.5,0.7-3.8
					c-0.1-0.7-0.2-1.3-0.5-1.9c-0.3-0.6-0.6-1.2-0.9-1.8c-0.7-1.2-1.6-2.2-2.5-3.3l-10.9-12.9l-5.5-6.4c-0.9-1.1-1.9-2.1-2.8-3.1
					c-1-1-2-2-3-2.9l0,0l-0.9-0.6l1,0.5l0,0c1.1,0.9,2.1,1.8,3.2,2.8c1,1,2,2,2.9,3.1c1.9,2.1,3.8,4.2,5.6,6.3l11.1,12.7
					c0.9,1.1,1.9,2.2,2.6,3.4c0.4,0.6,0.7,1.2,1,1.9c0.3,0.7,0.5,1.4,0.6,2.1c0.2,1.5,0,3-0.8,4.4c-0.7,1.3-1.9,2.3-3.1,3.1
					c-1.2,0.8-2.5,1.4-3.8,1.9c-1.3,0.6-2.6,1.1-3.9,1.6l-2,0.8c-0.7,0.2-1.3,0.6-2,0.8c-0.4,0.1-0.8,0.2-1.2,0.2
					c-0.4,0-0.8,0-1.2-0.1c-0.8-0.2-1.4-0.6-2-1l0,0l0,0c-3-2.6-5.2-6-6.8-9.6c-0.8-1.8-1.4-3.6-2-5.5c-0.6-1.9-1-3.8-1.5-5.6
					l-1.4-5.7l-1.2-5.7L324.3,218.2z"/>
			</g>
		</g>
		<g>
			<g>
				<path d="M317,217.5c0,0-0.7,1.5-1.8,4c-1.1,2.6-2.7,6.3-4.5,10.7c-1.7,4.5-3.7,9.8-5.5,15.5c-0.9,2.9-1.8,5.9-2.7,8.9
					c-0.1,0.4-0.2,0.8-0.3,1.1c-0.1,0.4-0.2,0.7-0.1,1c0,0.6,0.6,1.1,1.2,1.5c1.3,0.8,2.8,1.2,4.3,1.3c3.1,0.1,6.2-1,8.7-2.8
					c1.3-0.9,2.3-2,3-3.3c0.7-1.3,1-2.8,1.1-4.2c0.4-6,0.7-11.6,1-16.4c0.3-4.8,0.5-8.8,0.6-11.6c0.2-2.8,0.3-4.4,0.3-4.4
					s0,1.6-0.1,4.4c-0.1,2.8-0.1,6.8-0.2,11.7c-0.1,2.4-0.2,5-0.3,7.8c-0.1,2.8-0.2,5.7-0.4,8.7c-0.1,1.5-0.4,3.1-1.2,4.6
					c-0.8,1.4-1.9,2.7-3.3,3.6c-2.7,1.9-5.9,3.1-9.3,3c-1.7-0.1-3.3-0.6-4.8-1.5c-0.4-0.3-0.7-0.5-1-0.9c-0.3-0.3-0.6-0.9-0.6-1.4
					c0-0.5,0.1-0.9,0.2-1.3c0.1-0.4,0.2-0.8,0.3-1.2c0.9-3.1,1.8-6,2.7-8.9c0.9-2.9,2-5.6,3-8.2c1-2.6,2-5,2.9-7.2
					c1-2.2,1.9-4.2,2.8-6c0.8-1.8,1.5-3.3,2.1-4.6C316.3,218.9,317,217.5,317,217.5z"/>
			</g>
		</g>
		<g>
			<g>
				<path d="M312.2,220.8c0,0,0.2,0.1,0.2,0.3c0.1,0.2,0.1,0.4,0,0.6c-0.1,0.2-0.2,0.3-0.4,0.4c-0.2,0.1-0.4,0.1-0.4,0.1
					s-0.1-0.2-0.2-0.3c-0.1-0.2-0.1-0.4,0-0.6c0.1-0.2,0.2-0.3,0.4-0.4C312,220.9,312.2,220.8,312.2,220.8z"/>
			</g>
			<g>
				<path d="M281,247.2l1.9,1.5l0,0c0.7,0.5,1.5,1,2.3,1.3c0.8,0.3,1.7,0.4,2.5,0.3c0.4,0,0.8-0.1,1.2-0.3c0.2-0.1,0.4-0.2,0.6-0.2
					c0.2-0.1,0.4-0.2,0.6-0.3c0.7-0.4,1.4-1,2-1.6c0.6-0.6,1.1-1.4,1.6-2.1l1.6-2.1l3.2-4.3l3.2-4.3l1.6-2.1l1.7-2.1l1.6-2.1
					c0.5-0.7,1.1-1.4,1.7-2.1l1.7-2.1c0.6-0.7,1.1-1.4,1.5-2.2l0,0c0.2-0.5,0.5-1,0.6-1.5c-0.1,0.5-0.2,1.1-0.2,1.6v0l-0.1,0
					c-0.4,0.8-0.9,1.6-1.4,2.4l-1.6,2.2c-0.6,0.7-1.1,1.4-1.6,2.2l-1.5,2.2c-0.5,0.7-1.1,1.5-1.6,2.2l-1.6,2.2l-3.2,4.3
					c-1.1,1.4-2.2,2.8-3.3,4.3l-1.7,2.1c-0.6,0.7-1.1,1.4-1.7,2.1c-0.7,0.7-1.4,1.2-2.3,1.6c-0.2,0.1-0.4,0.2-0.6,0.3
					c-0.2,0.1-0.4,0.2-0.6,0.2c-0.5,0.1-0.9,0.2-1.4,0.2c-0.9,0-1.9-0.1-2.7-0.5c-0.8-0.4-1.6-0.9-2.3-1.5l0,0L281,247.2z"/>
			</g>
		</g>
	</g>
</g>
</svg>
