<?xml version="1.0" encoding="utf-8"?>
<!-- Generator: Adobe Illustrator 19.2.0, SVG Export Plug-In . SVG Version: 6.00 Build 0)  -->
<svg version="1.1" id="Layer_1" xmlns="http://www.w3.org/2000/svg" xmlns:xlink="http://www.w3.org/1999/xlink" x="0px" y="0px"
	 viewBox="0 0 460 284" style="enable-background:new 0 0 460 284;" xml:space="preserve">
<style type="text/css">
	.st0{fill:none;stroke:#000000;stroke-width:5;stroke-miterlimit:10;}
	.st1{opacity:0.9;fill:url(#SVGID_1_);enable-background:new    ;}
	.st2{fill:#CC0053;}
	.st3{fill:none;stroke:#000000;stroke-miterlimit:10;}
</style>
<path class="st0" d="M6588.6-986.6c0.3,38.5,0.2,82.4-5.7,120.5c-2.3,14.7-3.7,31.7-10.6,44.9c-9.4,17.9-18.6,35.9-34,49.5
	c-5.5,4.9-11.5,9.2-17.9,12.8c-4.2,2.3-15.3,5.1-15.9,10.8c-0.4,3.6,3.8,5.7,6.9,7.6c6.9,4.3,10.9,12.3,11.6,20.4
	c1.5,15.4-5.6,30.7-18.9,38.8c-0.8,0.5-1.6,1-1.9,1.8c-0.7,2.1,2.1,3.4,4.2,3.8c12.1,2.1,24,5,35.7,8.7c7.7,2.4,24.3,10.6,12,18.5
	c-7.7,4.9-17,6.2-26,7.3c-24.7,3.1-49.7,6.2-74.5,3.9c-5.6-0.5-11.2-1.4-16.8-2.2l-22.5-3.3c-5.3-0.8-11.8-2.7-12.7-7.9
	c-1.7-10.2,16.6-15.1,23.6-17.2c4.9-1.5,36.5-4.6,35.6-9.3c-0.5-2.4-2.8-3.9-4.8-5.4c-8.9-6.4-15-16.4-16.6-27.2
	c-1.6-10.8,1.3-22.2,7.9-30.9c2.2-2.9,4.9-6,4.4-9.6c-0.2-1.5-1-2.9-2-4.1c-5.1-6.7-15.9-9.5-22.8-14.7c-7.9-6-15.2-12.8-21.6-20.4
	c-12.5-14.5-22.1-31.5-27.6-49.9c-5.2-17.2-6.9-35.3-8.2-53.2c-2.3-31-3.6-62-3.8-93.1c20.2-2.4,42-1.8,62.4-1.4
	C6480.9-986,6588.6-988.7,6588.6-986.6L6588.6-986.6z"/>
<path d="M6462-671.7v1.9c0,0.6,0.1,1.3,0.6,1.9c0.4,0.6,1.2,0.8,2.2,0.8c2.1-0.1,4.5-0.2,7.1-0.2c1.3,0,2.7-0.1,4-0.1
	c1.4-0.1,2.8-0.1,4.1-0.2c1.4-0.1,2.8-0.1,4.1-0.2c1.4-0.1,2.7-0.1,4-0.2c2.6-0.1,5-0.2,7.1-0.3c2-0.1,3.7-0.6,4.6-1.3
	c0.4-0.4,0.7-0.8,0.8-1.1c0.1-0.3,0.2-0.5,0.2-0.5v0.5c-0.1,0.3-0.2,0.8-0.6,1.3s-1.1,1-1.9,1.4c-0.8,0.4-1.8,0.7-2.8,0.8
	c-2.1,0.4-4.5,0.7-7.1,0.9c-1.3,0.1-2.7,0.3-4,0.4c-1.4,0.1-2.8,0.2-4.2,0.2c-1.4,0-2.8,0.1-4.2,0.1h-4.1c-2.6-0.1-5.1-0.2-7.2-0.4
	c-0.5-0.1-1.1-0.1-1.6-0.4s-0.9-0.7-1.1-1.1c-0.4-0.9-0.4-1.7-0.3-2.3c0.1-0.6,0.2-1.1,0.3-1.4C6461.9-671.5,6462-671.7,6462-671.7
	L6462-671.7z M6461.6-756.3c0,0,0.6,0.2,1.6,0.5c0.5,0.2,1.2,0.3,1.9,0.5s1.6,0.4,2.4,0.5c0.9,0.2,1.9,0.3,2.9,0.5
	c1,0.1,2.1,0.2,3.3,0.3c1.1,0.1,2.3,0.1,3.5,0.2h3.6c1.2,0,2.5,0,3.7-0.1c1.2,0,2.4-0.1,3.6-0.1c2.3-0.1,4.5-0.1,6.3-0.3
	s3.2-0.6,4.1-1.2c0.4-0.3,0.8-0.6,1-0.8l0.3-0.3c0,0-0.1,0.1-0.2,0.4c-0.2,0.3-0.4,0.6-0.8,1c-0.8,0.8-2.3,1.6-4.2,2
	c-0.9,0.2-2,0.4-3,0.5c-1.1,0.1-2.2,0.3-3.3,0.4l-3.6,0.3c-1.2,0.1-2.5,0.1-3.7,0.2c-1.3,0-2.5,0-3.7-0.1c-0.6,0-1.2-0.1-1.8-0.1
	c-0.6-0.1-1.2-0.1-1.8-0.2c-1.2-0.1-2.3-0.4-3.4-0.6c-0.5-0.1-1-0.3-1.5-0.4c-0.5-0.2-1-0.3-1.4-0.4c-1.8-0.6-3.2-1.3-4.2-1.8
	C6462.2-756,6461.6-756.3,6461.6-756.3L6461.6-756.3z M6411.5-654.2l0.3,0.3c0.2,0.2,0.5,0.4,1,0.6c0.9,0.5,2.3,1,4.2,1.4
	c1.9,0.4,4.2,0.7,6.8,1.1c2.6,0.4,5.6,0.7,8.9,1.1c3.3,0.3,6.8,0.7,10.6,1c3.7,0.3,7.7,0.5,11.8,0.7c8.2,0.3,17,0.5,25.7,0.6
	c4.4,0.1,8.8,0.1,13.1,0.2c4.3,0,8.5,0.1,12.6,0c4.1-0.1,8-0.4,11.7-0.8c3.7-0.5,7.2-1.1,10.4-1.7c6.4-1.4,11.6-3,15.2-4.3
	c1.8-0.7,3.2-1.2,4.2-1.6l1.5-0.6c0,0-0.5,0.2-1.4,0.7c-0.9,0.4-2.3,1.1-4.1,1.8c-3.5,1.5-8.7,3.5-15.1,5.1
	c-6.4,1.6-14.1,2.9-22.3,3.2c-4.1,0.2-8.4,0.2-12.7,0.2c-4.3,0-8.7-0.1-13.1-0.1c-4.4-0.1-8.8-0.2-13.1-0.3
	c-4.3-0.1-8.6-0.4-12.7-0.6c-4.1-0.3-8.1-0.6-11.8-1c-3.8-0.4-7.3-0.8-10.6-1.3c-1.6-0.3-3.2-0.5-4.7-0.7c-1.5-0.3-2.9-0.5-4.2-0.8
	c-2.6-0.5-4.9-1-6.8-1.5s-3.3-1.1-4.1-1.7c-0.4-0.3-0.7-0.5-0.9-0.7C6411.6-654.1,6411.5-654.2,6411.5-654.2L6411.5-654.2z"/>
<linearGradient id="SVGID_1_" gradientUnits="userSpaceOnUse" x1="6378.7998" y1="-1371.7888" x2="6584.7002" y2="-1371.7888" gradientTransform="matrix(1 0 0 1 0 507)">
	<stop  offset="1.800000e-02" style="stop-color:#801FE3"/>
	<stop  offset="1" style="stop-color:#B7A7FF"/>
</linearGradient>
<path class="st1" d="M6378.8-958.4c1.4,24.4,2.7,48.8,4.1,73.2c0.4,7.9,0.9,15.9,2.2,23.7c1.8,11.1,5.4,21.8,8.9,32.5
	c3,9.1,6,18.2,11.1,26.3c17.8,28.1,51.5,32.7,81.9,31.3c10.6-0.5,21.3-1.5,31.5-4.7c66.9-21.3,65.2-117,66.1-172.7
	c0-2.6,0.1-5.1,0.1-7.7C6516-954.3,6447.2-952.5,6378.8-958.4L6378.8-958.4z"/>
<path d="M6373.7-978.1c0,0,0.6,8.1,1.5,22.2c0.5,7.1,1,15.6,1.7,25.5c0.6,9.8,1.4,20.9,2.1,33.1c0.4,6.1,0.7,12.4,1.3,18.9
	c0.5,6.5,1.4,13.2,3,19.9c1.6,6.7,3.7,13.5,6,20.4c2.4,6.9,4.5,14,7.5,20.9c0.8,1.7,1.5,3.4,2.4,5.1c0.9,1.6,1.8,3.3,2.8,4.8
	c1.1,1.6,2.2,3.1,3.4,4.7c1.2,1.4,2.5,2.8,3.7,4.3c5.3,5.5,11.7,10,18.8,13.2c7.1,3.3,14.8,5.4,22.6,6.6c7.9,1.3,15.9,1.7,23.9,1.7
	c8-0.1,16.1-0.4,24-1.5c3.9-0.5,7.9-1.2,11.7-2.2c1-0.3,1.9-0.5,2.8-0.8l0.7-0.2h0.1l0.2-0.1l0.4-0.1l1.4-0.5l2.8-1
	c0.5-0.2,0.9-0.3,1.4-0.5l1.3-0.6c7.1-3.1,13.7-7.4,19.4-12.5c5.7-5.1,10.5-11.1,14.4-17.5c4-6.3,7.1-13.1,9.7-19.8
	c2.6-6.8,4.6-13.6,6.3-20.3c3.2-13.5,5-26.5,6.2-38.5c1.1-12.1,1.7-23.2,2-33c0.3-9.9,0.5-18.4,0.7-25.5c0.2-14.2,0.4-22.2,0.4-22.2
	s0,2,0.1,5.8c0,3.8,0.1,9.4,0.2,16.4c0,7.1,0,15.7-0.2,25.5c-0.1,9.9-0.5,21-1.5,33.1c-1,12.1-2.6,25.2-5.7,38.9
	c-1.6,6.8-3.6,13.7-6.1,20.6c-2.5,6.9-5.7,13.8-9.8,20.3c-4,6.5-9,12.7-14.8,18.1c-5.9,5.4-12.7,9.8-20.2,13.1l-1.4,0.6
	c-0.5,0.2-0.9,0.4-1.4,0.5l-2.8,1l-1.4,0.5l-0.4,0.1l-0.2,0.1l-0.2,0.1l-0.7,0.2c-1,0.3-2,0.6-2.9,0.8c-3.9,1-8,1.8-12,2.4
	c-8.1,1.1-16.2,1.5-24.4,1.6c-8.2,0-16.3-0.5-24.4-1.8c-8-1.3-16-3.5-23.3-7c-7.4-3.4-14.1-8.1-19.6-13.9c-1.3-1.5-2.6-3.1-3.9-4.6
	c-1.1-1.6-2.2-3.2-3.3-4.7c-2.2-3.4-3.9-6.8-5.4-10.4c-3-7.1-5.2-14.2-7.5-21.2c-2.2-7-4.3-13.9-5.8-20.7
	c-1.6-6.9-2.4-13.6-2.8-20.2c-0.5-6.6-0.7-12.9-1-18.9c-0.6-12.1-1.1-23.2-1.6-33.1c-0.5-9.9-0.8-18.4-1.2-25.5
	C6374-970.1,6373.7-978.1,6373.7-978.1L6373.7-978.1z"/>
<path d="M6374.1-962.7c0,0,0.8,0,2.4,0.1s3.8,0.2,6.7,0.3c2.9,0.2,6.4,0.3,10.5,0.5c4,0.2,8.6,0.3,13.6,0.5s10.4,0.3,16.1,0.5
	s11.7,0.2,17.9,0.4c6.2,0.1,12.6,0.1,19.2,0.2c6.5,0.1,13.2,0,19.8,0.1c6.6,0,13.3,0,19.8-0.1s13-0.1,19.2-0.2
	c12.5-0.1,24.1-0.2,34-0.3c10-0.1,18.3-0.1,24.1-0.1h9.1c0,0-0.8,0.1-2.4,0.2c-1.6,0.1-3.8,0.2-6.7,0.4c-5.8,0.3-14.1,0.8-24.1,1.3
	s-21.6,0.9-34,1.3c-6.2,0.1-12.7,0.4-19.2,0.4c-6.5,0.1-13.2,0.1-19.8,0.2c-6.6,0-13.3,0-19.8-0.2c-6.5-0.1-13-0.3-19.2-0.4
	c-6.2-0.2-12.3-0.4-18-0.8c-2.9-0.2-5.6-0.3-8.3-0.5c-2.7-0.2-5.3-0.4-7.8-0.5c-2.5-0.2-4.9-0.3-7.1-0.5c-2.3-0.2-4.4-0.4-6.4-0.6
	c-4-0.4-7.6-0.7-10.4-1c-2.9-0.3-5.2-0.6-6.7-0.7C6374.9-962.6,6374.1-962.7,6374.1-962.7L6374.1-962.7z"/>
<path class="st0" d="M303.5,5.5c6.1,15.1,11.1,30.8,14.7,46.7c5.9,26,3.5,49.1-9.7,72.4c-11.1,19.5-27.9,36.5-31.4,59.5
	c-3.1,19.9,5.9,34.2,15,50.7c4.3,7.9,7.9,17.1,5.2,25.7c-2.4,7.6-9.4,13.1-16.9,15.8c-23.6,8.3-54,3.6-78.1,1
	c-11.8-1.3-35.8-2.4-37.2-17.8c-1.2-13.2,11.2-26.2,15.2-38.2c8.2-24.1,4.4-52-9.8-73.1c-7.7-11.4-18.2-21-24.4-33.3
	c-5.6-11.2-7.2-24-7.4-36.5c-0.2-23.9,4.9-47.8,14.7-69.6C203.5,12.3,253.5,9.4,303.5,5.5L303.5,5.5z"/>
<path d="M159.5,17.4l-2,4l-1.1,2.2c-0.4,0.8-0.7,1.7-1.2,2.7c-0.4,1-0.9,2-1.3,3.1s-0.8,2.3-1.3,3.6c-0.2,0.6-0.5,1.3-0.7,2
	c-0.1,0.3-0.2,0.7-0.4,1c-0.1,0.4-0.2,0.7-0.3,1.1c-0.4,1.4-0.8,2.9-1.3,4.5s-0.7,3.2-1.1,4.9c-0.2,0.9-0.4,1.7-0.6,2.6
	c-0.1,0.9-0.3,1.8-0.4,2.7c-1.2,7.4-1.7,15.9-1,25.1s2.6,19.1,6.3,28.9c0.2,0.6,0.4,1.2,0.7,1.9c0.2,0.6,0.5,1.2,0.8,1.8
	c0.5,1.2,1.1,2.4,1.6,3.7c0.5,1.2,1.2,2.4,1.8,3.6c0.6,1.2,1.2,2.5,1.9,3.6c1.4,2.4,2.9,4.8,4.5,7.1l1.2,1.7l1.3,1.7
	c0.8,1.1,1.8,2.2,2.7,3.4c3.6,4.4,7.8,8.5,12.4,12.3c4.6,3.7,9.5,7,14.9,9.7c1.3,0.7,2.7,1.3,4.1,1.9l2.1,0.9l2.1,0.8
	c1.4,0.6,2.9,1,4.3,1.6c1.4,0.5,2.9,1,4.3,1.4c5.8,1.8,11.8,3.2,17.8,3.7c6,0.6,12.1,0.3,17.9-1.1c2.9-0.8,5.8-1.7,8.4-3l2.1-1
	l2-1.1l1.9-1.1l1.9-1.2c5.1-3.2,9.7-7,14.1-11c4.3-4,8.3-8.3,11.9-12.8s6.8-9.2,9.6-13.9c2.8-4.8,5.1-9.6,6.6-14.7
	c1.6-5,2.6-10,3-14.9c0.5-4.9,0.6-9.7,0.3-14.3c-0.5-9.2-2.1-17.6-3.9-24.9s-3.9-13.6-5.6-18.7c-1.8-5.1-3.2-9.1-4.2-11.9
	c-1-2.7-1.5-4.2-1.5-4.2s0.6,1.4,1.7,4.1s2.7,6.6,4.6,11.7s4.1,11.3,6.1,18.6c2,7.3,3.9,15.7,4.6,25.1c0.3,4.7,0.4,9.6-0.1,14.6
	c-0.4,5.1-1.3,10.2-2.9,15.4c-1.5,5.2-3.8,10.3-6.6,15.2c-2.8,4.9-6.1,9.7-9.7,14.3s-7.7,9-12.1,13.2c-4.4,4.1-9.2,8-14.4,11.4
	l-2,1.3l-2.1,1.2l-2.1,1.1l-2.1,1c-2.8,1.4-5.9,2.4-8.9,3.2c-6.2,1.5-12.6,1.9-18.9,1.3c-6.3-0.6-12.5-2-18.4-3.9
	c-1.5-0.4-3-1-4.4-1.5c-1.5-0.5-2.9-1.1-4.4-1.6l-2.1-0.8c-0.7-0.3-1.4-0.6-2.2-0.9c-1.4-0.6-2.8-1.3-4.2-2
	c-5.6-2.8-10.7-6.2-15.4-10.1c-4.7-3.9-8.9-8.1-12.7-12.7c-0.9-1.1-1.9-2.3-2.7-3.5l-1.3-1.8l-1.2-1.8c-1.7-2.4-3.1-4.9-4.5-7.3
	c-0.7-1.3-1.3-2.5-1.9-3.8s-1.3-2.5-1.8-3.8s-1.1-2.5-1.6-3.8c-0.3-0.6-0.5-1.3-0.8-1.9c-0.2-0.6-0.4-1.3-0.7-1.9
	c-3.6-10.1-5.4-20.2-6-29.6s0.2-18,1.6-25.4c0.2-0.9,0.3-1.9,0.5-2.8s0.4-1.8,0.6-2.6c0.4-1.7,0.8-3.4,1.3-5s1-3.1,1.4-4.5
	c0.1-0.4,0.2-0.7,0.3-1.1c0.1-0.3,0.3-0.7,0.4-1c0.3-0.7,0.5-1.3,0.8-2c0.5-1.3,0.9-2.5,1.4-3.6s1-2.1,1.5-3.1l1.3-2.6
	c0.4-0.8,0.8-1.5,1.2-2.1C158.7,18.7,159.5,17.4,159.5,17.4L159.5,17.4z M195.3,252.4c0,0,1.1-0.8,3.1-2.1s4.7-3.2,8.2-5.2
	s7.7-4.3,12.5-6c2.4-0.8,5-1.5,7.7-1.8c0.7-0.1,1.4-0.1,2-0.2c0.7,0,1.4-0.1,2.1-0.1c0.8,0,1.4,0,2.1,0.1c0.7,0,1.3,0.1,2,0.2
	l2.1,0.3l2,0.4c0.7,0.1,1.3,0.3,2,0.5c0.6,0.2,1.3,0.4,1.9,0.6c1.3,0.5,2.5,0.9,3.7,1.5c1.2,0.5,2.3,1.2,3.5,1.8
	c1.1,0.6,2.2,1.3,3.2,1.9c1,0.7,2,1.3,2.9,2c1.9,1.4,3.6,2.7,5.1,4c1.6,1.3,2.9,2.6,4.1,3.7c1.2,1.1,2.2,2.1,3.1,2.9l1.9,1.9
	l0.7,0.7c0,0-1-0.8-2.9-2.3c-0.9-0.7-2-1.6-3.3-2.7c-0.6-0.5-1.3-1-2.1-1.6c-0.7-0.6-1.5-1.2-2.3-1.7c-0.8-0.6-1.6-1.2-2.5-1.8
	s-1.8-1.3-2.7-1.9c-1.9-1.3-4-2.5-6.2-3.7s-4.5-2.2-7-3c-0.6-0.2-1.2-0.4-1.9-0.6c-0.6-0.2-1.2-0.4-1.9-0.5l-1.9-0.4l-1.9-0.2
	c-0.6-0.1-1.3-0.1-2-0.2c-0.6,0-1.4-0.1-2-0.1s-1.3,0-1.9,0.1s-1.3,0.1-1.9,0.2c-2.5,0.3-5,0.9-7.4,1.6c-2.4,0.7-4.6,1.6-6.7,2.5
	s-4,1.9-5.8,2.8c-3.6,1.8-6.5,3.4-8.6,4.6C196.5,251.8,195.3,252.4,195.3,252.4L195.3,252.4z M266.2,174c-2,1.8-4.1,3.6-6.2,5.3
	c-1.1,0.9-2.2,1.7-3.3,2.5c-1.1,0.8-2.3,1.5-3.5,2.2s-2.4,1.3-3.7,1.9c-1.3,0.6-2.6,1.1-3.9,1.5c-1.4,0.4-2.7,0.7-4.1,0.9
	s-2.8,0.4-4.2,0.4c-2.8,0.1-5.5,0-8.2,0c-2.7-0.1-5.5-0.2-8.2-0.5s-5.5-0.8-8.2-1.5c-1.3-0.4-2.7-0.9-3.9-1.4
	c-1.3-0.6-2.5-1.3-3.7-2l0.9-0.2c-0.1,0.1-0.1,0.2-0.2,0.3l-0.2,0.2c0,0-0.2,0.1-0.3,0.1h-0.4c-0.3-0.1-0.3-0.2-0.4-0.3l-0.1-0.1
	l-0.1-0.1c-0.1-0.1-0.5-0.4-0.8-0.6c-0.6-0.4-1.2-0.9-1.8-1.3c-1.1-0.9-2.2-1.9-3.2-3s-1.9-2.2-2.7-3.4c-0.8-1.2-1.6-2.4-2.2-3.7
	c1.6,2.4,3.4,4.6,5.5,6.5c1.1,1,2.2,1.8,3.3,2.7l1.8,1.2c0.3,0.2,0.6,0.3,1,0.6l0.2,0.2l0.1,0.1l-0.2-0.1H205
	c-0.1,0-0.1,0.1-0.1,0.1l0.1-0.2l0.4-0.5l0.5,0.3c1.2,0.6,2.3,1.3,3.6,1.7c1.2,0.5,2.5,0.9,3.8,1.2c2.6,0.7,5.2,1,7.9,1.3
	c2.7,0.2,5.4,0.3,8.1,0.4c2.7,0.1,5.4,0.2,8.1,0.1c1.3,0,2.7-0.1,4-0.3s2.6-0.4,3.9-0.8c1.3-0.3,2.5-0.8,3.8-1.3
	c1.2-0.5,2.5-1.1,3.6-1.7c2.4-1.2,4.7-2.6,7-4.1C261.7,177.2,263.9,175.6,266.2,174L266.2,174z"/>
<path d="M147.7,51.1c0,0,0.6,0.2,1.7,0.5s2.8,0.9,4.9,1.5c1.1,0.3,2.3,0.5,3.6,0.9c0.6,0.1,1.3,0.3,2,0.5c0.7,0.1,1.4,0.3,2.2,0.4
	c3,0.6,6.5,1,10.2,1.5c1.9,0.1,3.9,0.3,5.9,0.4s4.1,0.1,6.3,0.2h6.7c2.3-0.1,4.6-0.1,7-0.2c4.7-0.2,9.6-0.5,14.6-1
	c5-0.4,10-0.9,15-1.4s10.1-1,15.1-1.5s9.9-0.7,14.7-0.9c4.8-0.1,9.4-0.1,13.7,0c4.4,0.1,8.5,0.3,12.3,0.5s7.3,0.6,10.4,0.8
	c1.5,0.1,3,0.3,4.3,0.4c1.3,0.2,2.6,0.3,3.7,0.4c2.2,0.3,3.9,0.5,5.1,0.7l1.8,0.3v0.3c0,0-2.5-0.1-7-0.2c-2.2-0.1-4.9-0.1-8-0.2
	c-3.1,0-6.6-0.1-10.4-0.1s-7.9-0.1-12.2,0c-4.3,0.1-8.9,0.1-13.6,0.2c-9.4,0.2-19.5,0.9-29.6,1.6c-5.1,0.4-10.1,0.8-15.1,1.1
	c-5,0.3-9.9,0.6-14.7,0.7c-2.4,0.1-4.7,0-7,0.1c-2.3,0-4.5-0.1-6.7-0.2s-4.3-0.3-6.4-0.4c-2-0.2-4-0.4-5.9-0.6
	c-3.8-0.5-7.2-1.1-10.3-1.8c-0.8-0.2-1.5-0.3-2.2-0.5s-1.4-0.4-2-0.5c-1.3-0.4-2.5-0.7-3.6-1c-2.1-0.6-3.8-1.3-4.9-1.6
	c-1.1-0.4-1.7-0.6-1.7-0.6L147.7,51.1L147.7,51.1z"/>
<path class="st2" d="M246.5,116.9c-2.2-0.6-4.1,1.3-5.1,3.2c-0.9,1.8-1,3.9-1.7,5.9c-0.8,2.4-2.2,4.5-2.9,6.8
	c-0.7,2.5-0.5,5.2-1.5,7.6c-0.4,1.1-1.1,2.1-1.6,3.1c-2.3,4.4-2.9,10-0.1,14.1c2.5,3.5,7,5,11.1,6.2c1.2,0.4,2.4,0.7,3.7,0.7
	c0.8,0,1.6-0.2,2.4-0.4c3-0.8,5.9-1.9,8.7-3.3c0.9-0.5,1.8-1,2.7-1.6c2.8-2,4.7-5.1,6.1-8.2c1.4-3.1,2.5-6.5,4-9.6
	c0.4-0.8,0.8-1.6,1-2.5c0.1-0.7,0-1.5-0.1-2.3c-0.1-1.2-0.3-2.4-0.8-3.5s-1.4-2-2.6-2.3c-0.9-0.2-1.9,0-2.5-0.7
	c-0.2-0.3-0.3-0.6-0.5-0.9c-0.6-1.2-2.1-1.9-3.4-1.5c0.3-1-0.4-2-1.3-2.6s-1.9-1-2.6-1.8s-0.8-1.9-1.4-2.9c-0.9-1.4-2.7-2.2-4.3-1.7
	c-0.5,0.1-0.9,0.4-1.3,0.4C250.4,119.9,248.7,117.5,246.5,116.9L246.5,116.9z"/>
<path class="st3" d="M246.9,115.2c2.7,1.2,2.6,6.3,1.5,8.4c-1.4,2.8-4.7,4.5-7.9,4.1c-0.5-0.1-1-0.2-1.3-0.6
	c-0.4-0.5-0.3-1.3-0.1-1.9C239.8,122.5,242.7,113.5,246.9,115.2z M256.2,128.1c1.4-2.3,3.4-4.4,2.6-7.3c-0.6-2.5-2.5-3.8-4.8-2.1
	c-2.8,2.1-5,5-6.2,8.2c-0.6,1.5-0.9,3.3,0.1,4.6c1.1,1.4,3.3,1.4,4.8,0.5C254.3,131.2,255.3,129.6,256.2,128.1z M256,132.4
	c-0.3,0.9-0.5,2,0,2.7c0.5,0.6,1.4,0.8,2.1,0.6s1.3-0.8,1.8-1.4c1.2-1.6,4.6-8.7,1.4-9.7C258.2,123.7,256.6,130.6,256,132.4
	L256,132.4z M261.2,134.5c-0.2,1.3,0,2.9,1.2,3.4s2.5-0.6,3.3-1.7c1.1-1.6,3.8-6.5,0.8-7.5C263.6,127.6,261.6,132.5,261.2,134.5z
	 M266.8,138c-0.2,0.7-0.4,1.5-0.1,2.2c0.4,1.3,2.1,1.9,3.5,1.5c1.3-0.4,2.3-1.6,3.1-2.8c1.3-2.2,2-7.3-2-7.2
	C268.6,131.8,267.4,136,266.8,138z M242.5,129.4c-1,1.7-1.5,3.8-1.3,5.8c0.1,1.1,0.6,2.3,1.7,2.4c1,0.1,1.6-0.9,2.1-1.7
	c0.6-1,1.2-2.1,1.5-3.2C247.1,130.3,244.6,125.9,242.5,129.4L242.5,129.4z"/>
<path class="st3" d="M235.8,137.6c0.1,0.3,0.2,0.7,0.5,0.9c0.4,0.3,1,0,1.4-0.3c2.1-1.5,5.5-6.7,1.6-8.3
	C235.1,128.2,235.3,135.3,235.8,137.6L235.8,137.6z M246.8,142.6c1,0.4,2.2,0,2.9-0.8c1.9-2,3-9-1.6-7.5
	C245.5,135.2,243.8,141.3,246.8,142.6z M250.7,146.5c1,0.3,2.1,0,3-0.7c1.8-1.4,5.3-7.2,1.1-7.5
	C251.7,138.1,249.9,146.3,250.7,146.5z"/>
<path class="st3" d="M256.7,147.6c0,0.9,0.2,1.9,1,2.4c0.9,0.5,2.1-0.2,2.9-0.9c2-2,5.4-8.2,1.5-10.1
	C257.7,136.8,256.6,145,256.7,147.6z M266.2,143.5c-0.8,0.9-1.5,1.9-2,2.9c-0.5,1.1-0.7,2.3-0.5,3.5c0.1,0.6,0.4,1.3,0.9,1.7
	c0.5,0.3,1,0.3,1.6,0.2c1.5-0.4,2.3-1.9,3-3.3c0.3-0.7,0.6-1.5,0.8-2.2C270.3,144.1,268.2,141.3,266.2,143.5L266.2,143.5z
	 M237.9,139.6c-0.6,1.1-0.8,2.3-0.8,3.6c0,0.7,0.1,1.5,0.5,2.1s1.2,1,1.9,0.7c0.4-0.2,0.7-0.5,0.9-0.9c0.9-1.5,1.4-3.2,1.3-5
	c0-0.8-0.4-2.5-1.5-2.6C239.3,137.4,238.3,138.8,237.9,139.6L237.9,139.6z M241.2,149.9c0.1,0.3,0.2,0.6,0.4,0.8
	c0.6,0.7,1.8,0.6,2.6,0.1c1.1-0.6,1.8-1.7,2.2-2.8c0.5-1.2,0.6-2.6-0.2-3.7c-0.7-1-1.8-1.8-3-1.2
	C241.2,144.3,240.5,147.8,241.2,149.9L241.2,149.9z M246.5,152.8c0.1,0.9,0.4,1.8,1.1,2.3c0.6,0.4,1.3,0.4,1.9,0.3
	c0.7-0.2,1.2-0.5,1.8-1c0.6-0.5,1.2-1.2,1.4-2c0.2-0.7,0.1-1.4,0-2c-0.1-0.5-0.3-1.1-0.6-1.5C249.7,144.7,246.3,149.9,246.5,152.8
	L246.5,152.8z M254.5,151.8c-1.1,1.3-1.8,3-1.8,4.7c0,0.8,0.2,1.7,0.9,2.1c0.5,0.3,1.1,0.3,1.6,0.1s1-0.5,1.4-0.8
	c1-0.8,2-1.7,2.4-2.9c0.3-1,0.1-2.1-0.4-3C257.7,150.1,255.7,150.5,254.5,151.8L254.5,151.8z M231.9,143.3c-0.6,1.2-0.8,2.7-0.7,4
	c0,0.2,0.1,0.4,0.2,0.6c0.1,0.2,0.3,0.3,0.5,0.3c0.5,0.2,1.1,0.5,1.6,0.4c0.4-0.1,0.7-0.4,1-0.7c0.9-1.1,1.4-2.4,1.7-3.8
	c0.3-1.1,0.5-3.5-1.1-3.5C233.8,140.5,232.5,142.3,231.9,143.3z M234.7,148.8c-1.1,1.6-1.8,3.6-2,5.5c-0.1,0.7-0.1,1.4,0.3,2
	c0.6,1.1,2.1,1.4,3.3,0.9s2-1.5,2.6-2.5c0.7-1.1,1.3-2.3,1.3-3.6c0-0.6-0.2-1.2-0.4-1.7c-0.3-1-1.1-2.3-2.3-2.5
	C236.3,146.7,235.2,147.9,234.7,148.8L234.7,148.8z M240.7,154.9c-0.9,1.3-1.2,2.8-1.1,4.3c0,0.3,0,0.5,0.2,0.8
	c0.2,0.4,0.6,0.6,1,0.7c1.6,0.4,3.4-0.4,4.2-1.8c0.9-1.4,1-4-0.2-5.3C243.5,152.1,241.6,153.7,240.7,154.9z M247,158.3
	c-0.8,1.1-1.1,2.5-1.3,3.9c0,0.3-0.1,0.6,0,0.9c0.1,0.3,0.5,0.5,0.8,0.6c0.9,0.4,1.9,0.3,2.8-0.1c0.9-0.4,1.6-1.1,2.1-1.9
	c0.3-0.5,0.5-1.1,0.5-1.7c0-1-0.6-3.1-1.7-3.5S247.5,157.5,247,158.3L247,158.3z M259.9,154.4c-0.5,0.9-0.8,2-0.7,3.1
	c0,1,0.4,2.1,1.3,2.6c0.7,0.3,1.5,0.2,2.1-0.1c1.8-0.8,2.9-2.8,3.2-4.8C266.5,150.9,261.4,151.6,259.9,154.4z M255.7,159.4
	c-0.8,0.2-1.6,0.6-2.3,1c-0.9,0.6-1.7,1.4-2.4,2.2c-0.4,0.5-0.9,1-0.7,1.6c0.1,0.4,0.4,0.6,0.8,0.8c0.4,0.1,0.8,0.1,1.1,0.1
	c1.9-0.1,3.8-0.7,5.3-1.9c0.8-0.6,1.5-1.5,1.6-2.5C259.5,158.4,257,159,255.7,159.4L255.7,159.4z"/>
</svg>
