<?xml version="1.0" encoding="utf-8"?>
<!-- Generator: Adobe Illustrator 19.2.0, SVG Export Plug-In . SVG Version: 6.00 Build 0)  -->
<svg version="1.1" id="Layer_1" xmlns="http://www.w3.org/2000/svg" xmlns:xlink="http://www.w3.org/1999/xlink" x="0px" y="0px"
	 viewBox="0 0 700 700" style="enable-background:new 0 0 700 700;" xml:space="preserve">
<style type="text/css">
	.st0{fill:none;}
	.st1{fill:none;stroke:#000000;stroke-width:5;stroke-miterlimit:10;}
	.st2{opacity:0.9;fill:url(#SVGID_1_);}
	.st3{fill:#CC0053;}
	.st4{fill:none;stroke:#000000;stroke-miterlimit:10;}
</style>
<rect x="0" y="0" class="st0" width="700" height="700"/>
<path class="st1" d="M6708.6-568.1c0.3,38.5,0.2,82.4-5.7,120.5c-2.3,14.7-3.7,31.7-10.6,44.9c-9.4,17.9-18.6,35.9-34,49.5
	c-5.5,4.9-11.5,9.2-17.9,12.8c-4.2,2.3-15.3,5.1-15.9,10.8c-0.4,3.6,3.8,5.7,6.9,7.6c6.9,4.3,10.9,12.3,11.6,20.4
	c1.5,15.4-5.6,30.7-18.9,38.8c-0.8,0.5-1.6,1-1.9,1.8c-0.7,2.1,2.1,3.4,4.2,3.8c12.1,2.1,24,5,35.7,8.7c7.7,2.4,24.3,10.6,12,18.5
	c-7.7,4.9-17,6.2-26,7.3c-24.7,3.1-49.7,6.2-74.5,3.9c-5.6-0.5-11.2-1.4-16.8-2.2c-7.5-1.1-15-2.2-22.5-3.3
	c-5.3-0.8-11.8-2.7-12.7-7.9c-1.7-10.2,16.6-15.1,23.6-17.2c4.9-1.5,36.5-4.6,35.6-9.3c-0.5-2.4-2.8-3.9-4.8-5.4
	c-8.9-6.4-15-16.4-16.6-27.2c-1.6-10.8,1.3-22.2,7.9-30.9c2.2-2.9,4.9-6,4.4-9.6c-0.2-1.5-1-2.9-2-4.1c-5.1-6.7-15.9-9.5-22.8-14.7
	c-7.9-6-15.2-12.8-21.6-20.4c-12.5-14.5-22.1-31.5-27.6-49.9c-5.2-17.2-6.9-35.3-8.2-53.2c-2.3-31-3.6-62-3.8-93.1
	c20.2-2.4,42-1.8,62.4-1.4C6600.9-567.5,6708.6-570.2,6708.6-568.1z"/>
<g>
	<path d="M6582-253.2c0,0,0,0.2,0,0.5c0,0.3,0,0.8,0,1.4c0,0.6,0.1,1.3,0.6,1.9c0.4,0.6,1.2,0.8,2.2,0.8c2.1-0.1,4.5-0.2,7.1-0.2
		c1.3,0,2.7-0.1,4-0.1c1.4-0.1,2.8-0.1,4.1-0.2c1.4-0.1,2.8-0.1,4.1-0.2c1.4-0.1,2.7-0.1,4-0.2c2.6-0.1,5-0.2,7.1-0.3
		c2-0.1,3.7-0.6,4.6-1.3c0.4-0.4,0.7-0.8,0.8-1.1c0.1-0.3,0.2-0.5,0.2-0.5s0,0.2,0,0.5c-0.1,0.3-0.2,0.8-0.6,1.3
		c-0.4,0.5-1.1,1-1.9,1.4c-0.8,0.4-1.8,0.7-2.8,0.8c-2.1,0.4-4.5,0.7-7.1,0.9c-1.3,0.1-2.7,0.3-4,0.4c-1.4,0.1-2.8,0.2-4.2,0.2
		c-1.4,0-2.8,0.1-4.2,0.1c-1.4,0-2.7,0-4.1,0c-2.6-0.1-5.1-0.2-7.2-0.4c-0.5-0.1-1.1-0.1-1.6-0.4c-0.5-0.3-0.9-0.7-1.1-1.1
		c-0.4-0.9-0.4-1.7-0.3-2.3c0.1-0.6,0.2-1.1,0.3-1.4C6581.9-253,6582-253.2,6582-253.2z"/>
</g>
<g>
	<path d="M6581.6-337.8c0,0,0.6,0.2,1.6,0.5c0.5,0.2,1.2,0.3,1.9,0.5c0.7,0.2,1.6,0.4,2.4,0.5c0.9,0.2,1.9,0.3,2.9,0.5
		c1,0.1,2.1,0.2,3.3,0.3c1.1,0.1,2.3,0.1,3.5,0.2c1.2,0,2.4,0,3.6,0c1.2,0,2.5,0,3.7-0.1c1.2,0,2.4-0.1,3.6-0.1
		c2.3-0.1,4.5-0.1,6.3-0.3c1.8-0.2,3.2-0.6,4.1-1.2c0.4-0.3,0.8-0.6,1-0.8c0.2-0.2,0.3-0.3,0.3-0.3s-0.1,0.1-0.2,0.4
		c-0.2,0.3-0.4,0.6-0.8,1c-0.8,0.8-2.3,1.6-4.2,2c-0.9,0.2-2,0.4-3,0.5c-1.1,0.1-2.2,0.3-3.3,0.4c-1.2,0.1-2.4,0.2-3.6,0.3
		c-1.2,0.1-2.5,0.1-3.7,0.2c-1.3,0-2.5,0-3.7-0.1c-0.6,0-1.2-0.1-1.8-0.1c-0.6-0.1-1.2-0.1-1.8-0.2c-1.2-0.1-2.3-0.4-3.4-0.6
		c-0.5-0.1-1-0.3-1.5-0.4c-0.5-0.2-1-0.3-1.4-0.4c-1.8-0.6-3.2-1.3-4.2-1.8C6582.2-337.5,6581.6-337.8,6581.6-337.8z"/>
</g>
<g>
	<path d="M6531.5-235.7c0,0,0.1,0.1,0.3,0.3c0.2,0.2,0.5,0.4,1,0.6c0.9,0.5,2.3,1,4.2,1.4c1.9,0.4,4.2,0.7,6.8,1.1
		c2.6,0.4,5.6,0.7,8.9,1.1c3.3,0.3,6.8,0.7,10.6,1c3.7,0.3,7.7,0.5,11.8,0.7c8.2,0.3,17,0.5,25.7,0.6c4.4,0.1,8.8,0.1,13.1,0.2
		c4.3,0,8.5,0.1,12.6,0c4.1-0.1,8-0.4,11.7-0.8c3.7-0.5,7.2-1.1,10.4-1.7c6.4-1.4,11.6-3,15.2-4.3c1.8-0.7,3.2-1.2,4.2-1.6
		c1-0.4,1.5-0.6,1.5-0.6s-0.5,0.2-1.4,0.7c-0.9,0.4-2.3,1.1-4.1,1.8c-3.5,1.5-8.7,3.5-15.1,5.1c-6.4,1.6-14.1,2.9-22.3,3.2
		c-4.1,0.2-8.4,0.2-12.7,0.2c-4.3,0-8.7-0.1-13.1-0.1c-4.4-0.1-8.8-0.2-13.1-0.3c-4.3-0.1-8.6-0.4-12.7-0.6c-4.1-0.3-8.1-0.6-11.8-1
		c-3.8-0.4-7.3-0.8-10.6-1.3c-1.6-0.3-3.2-0.5-4.7-0.7c-1.5-0.3-2.9-0.5-4.2-0.8c-2.6-0.5-4.9-1-6.8-1.5c-1.9-0.5-3.3-1.1-4.1-1.7
		c-0.4-0.3-0.7-0.5-0.9-0.7C6531.6-235.6,6531.5-235.7,6531.5-235.7z"/>
</g>
<linearGradient id="SVGID_1_" gradientUnits="userSpaceOnUse" x1="6498.813" y1="-446.2358" x2="6704.6909" y2="-446.2358">
	<stop  offset="1.785714e-02" style="stop-color:#801FE3"/>
	<stop  offset="1" style="stop-color:#B7A7FF"/>
</linearGradient>
<path class="st2" d="M6498.8-539.9c1.4,24.4,2.7,48.8,4.1,73.2c0.4,7.9,0.9,15.9,2.2,23.7c1.8,11.1,5.4,21.8,8.9,32.5
	c3,9.1,6,18.2,11.1,26.3c17.8,28.1,51.5,32.7,81.9,31.3c10.6-0.5,21.3-1.5,31.5-4.7c66.9-21.3,65.2-117,66.1-172.7
	c0-2.6,0.1-5.1,0.1-7.7C6636-535.8,6567.2-534,6498.8-539.9z"/>
<g>
	<path d="M6493.7-559.6c0,0,0.6,8.1,1.5,22.2c0.5,7.1,1,15.6,1.7,25.5c0.6,9.8,1.4,20.9,2.1,33.1c0.4,6.1,0.7,12.4,1.3,18.9
		c0.5,6.5,1.4,13.2,3,19.9c1.6,6.7,3.7,13.5,6,20.4c2.4,6.9,4.5,14,7.5,20.9c0.8,1.7,1.5,3.4,2.4,5.1c0.9,1.6,1.8,3.3,2.8,4.8
		c1.1,1.6,2.2,3.1,3.4,4.7c1.2,1.4,2.5,2.8,3.7,4.3c5.3,5.5,11.7,10,18.8,13.2c7.1,3.3,14.8,5.4,22.6,6.6c7.9,1.3,15.9,1.7,23.9,1.7
		c8-0.1,16.1-0.4,24-1.5c3.9-0.5,7.9-1.2,11.7-2.2c1-0.3,1.9-0.5,2.8-0.8l0.7-0.2c0.1,0,0,0,0.1,0l0.2-0.1l0.4-0.1l1.4-0.5l2.8-1
		c0.5-0.2,0.9-0.3,1.4-0.5l1.3-0.6c7.1-3.1,13.7-7.4,19.4-12.5c5.7-5.1,10.5-11.1,14.4-17.5c4-6.3,7.1-13.1,9.7-19.8
		c2.6-6.8,4.6-13.6,6.3-20.3c3.2-13.5,5-26.5,6.2-38.5c1.1-12.1,1.7-23.2,2-33c0.3-9.9,0.5-18.4,0.7-25.5
		c0.2-14.2,0.4-22.2,0.4-22.2s0,2,0.1,5.8c0,3.8,0.1,9.4,0.2,16.4c0,7.1,0,15.7-0.2,25.5c-0.1,9.9-0.5,21-1.5,33.1
		c-1,12.1-2.6,25.2-5.7,38.9c-1.6,6.8-3.6,13.7-6.1,20.6c-2.5,6.9-5.7,13.8-9.8,20.3c-4,6.5-9,12.7-14.8,18.1
		c-5.9,5.4-12.7,9.8-20.2,13.1l-1.4,0.6c-0.5,0.2-0.9,0.4-1.4,0.5l-2.8,1l-1.4,0.5l-0.4,0.1l-0.2,0.1l-0.2,0.1l-0.7,0.2
		c-1,0.3-2,0.6-2.9,0.8c-3.9,1-8,1.8-12,2.4c-8.1,1.1-16.2,1.5-24.4,1.6c-8.2,0-16.3-0.5-24.4-1.8c-8-1.3-16-3.5-23.3-7
		c-7.4-3.4-14.1-8.1-19.6-13.9c-1.3-1.5-2.6-3.1-3.9-4.6c-1.1-1.6-2.2-3.2-3.3-4.7c-2.2-3.4-3.9-6.8-5.4-10.4
		c-3-7.1-5.2-14.2-7.5-21.2c-2.2-7-4.3-13.9-5.8-20.7c-1.6-6.9-2.4-13.6-2.8-20.2c-0.5-6.6-0.7-12.9-1-18.9
		c-0.6-12.1-1.1-23.2-1.6-33.1c-0.5-9.9-0.8-18.4-1.2-25.5C6494-551.6,6493.7-559.6,6493.7-559.6z"/>
</g>
<g>
	<path d="M6494.1-544.2c0,0,0.8,0,2.4,0.1c1.6,0.1,3.8,0.2,6.7,0.3c2.9,0.2,6.4,0.3,10.5,0.5c4,0.2,8.6,0.3,13.6,0.5
		c5,0.2,10.4,0.3,16.1,0.5c5.7,0.2,11.7,0.2,17.9,0.4c6.2,0.1,12.6,0.1,19.2,0.2c6.5,0.1,13.2,0,19.8,0.1c6.6,0,13.3,0,19.8-0.1
		c6.5-0.1,13-0.1,19.2-0.2c12.5-0.1,24.1-0.2,34-0.3c10-0.1,18.3-0.1,24.1-0.1c2.9,0,5.2,0,6.7,0c1.6,0,2.4,0,2.4,0
		s-0.8,0.1-2.4,0.2c-1.6,0.1-3.8,0.2-6.7,0.4c-5.8,0.3-14.1,0.8-24.1,1.3c-10,0.5-21.6,0.9-34,1.3c-6.2,0.1-12.7,0.4-19.2,0.4
		c-6.5,0.1-13.2,0.1-19.8,0.2c-6.6,0-13.3,0-19.8-0.2c-6.5-0.1-13-0.3-19.2-0.4c-6.2-0.2-12.3-0.4-18-0.8c-2.9-0.2-5.6-0.3-8.3-0.5
		c-2.7-0.2-5.3-0.4-7.8-0.5c-2.5-0.2-4.9-0.3-7.1-0.5c-2.3-0.2-4.4-0.4-6.4-0.6c-4-0.4-7.6-0.7-10.4-1c-2.9-0.3-5.2-0.6-6.7-0.7
		C6494.9-544.1,6494.1-544.2,6494.1-544.2z"/>
</g>
<g>
	<path class="st1" d="M423.5,424.5c6.1,15.1,11.1,30.8,14.7,46.7c5.9,26,3.5,49.1-9.7,72.4c-11.1,19.5-27.9,36.5-31.4,59.5
		c-3.1,19.9,5.9,34.2,15,50.7c4.3,7.9,7.9,17.1,5.2,25.7c-2.4,7.6-9.4,13.1-16.9,15.8c-23.6,8.3-54,3.6-78.1,1
		c-11.8-1.3-35.8-2.4-37.2-17.8c-1.2-13.2,11.2-26.2,15.2-38.2c8.2-24.1,4.4-52-9.8-73.1c-7.7-11.4-18.2-21-24.4-33.3
		c-5.6-11.2-7.2-24-7.4-36.5c-0.2-23.9,4.9-47.8,14.7-69.6C323.5,431.3,373.5,428.4,423.5,424.5z"/>
	<g>
		<path d="M279.5,436.4c0,0-0.7,1.4-2,4c-0.3,0.6-0.7,1.4-1.1,2.2c-0.4,0.8-0.7,1.7-1.2,2.7c-0.4,1-0.9,2-1.3,3.1
			c-0.4,1.1-0.8,2.3-1.3,3.6c-0.2,0.6-0.5,1.3-0.7,2c-0.1,0.3-0.2,0.7-0.4,1c-0.1,0.4-0.2,0.7-0.3,1.1c-0.4,1.4-0.8,2.9-1.3,4.5
			c-0.5,1.6-0.7,3.2-1.1,4.9c-0.2,0.9-0.4,1.7-0.6,2.6c-0.1,0.9-0.3,1.8-0.4,2.7c-1.2,7.4-1.7,15.9-1,25.1
			c0.7,9.2,2.6,19.1,6.3,28.9c0.2,0.6,0.4,1.2,0.7,1.9c0.2,0.6,0.5,1.2,0.8,1.8c0.5,1.2,1.1,2.4,1.6,3.7c0.5,1.2,1.2,2.4,1.8,3.6
			c0.6,1.2,1.2,2.5,1.9,3.6c1.4,2.4,2.9,4.8,4.5,7.1l1.2,1.7l1.3,1.7c0.8,1.1,1.8,2.2,2.7,3.4c3.6,4.4,7.8,8.5,12.4,12.3
			c4.6,3.7,9.5,7,14.9,9.7c1.3,0.7,2.7,1.3,4.1,1.9c0.7,0.3,1.4,0.6,2.1,0.9l2.1,0.8c1.4,0.6,2.9,1,4.3,1.6c1.4,0.5,2.9,1,4.3,1.4
			c5.8,1.8,11.8,3.2,17.8,3.7c6,0.6,12.1,0.3,17.9-1.1c2.9-0.8,5.8-1.7,8.4-3l2.1-1l2-1.1l1.9-1.1l1.9-1.2c5.1-3.2,9.7-7,14.1-11
			c4.3-4,8.3-8.3,11.9-12.8c3.6-4.5,6.8-9.2,9.6-13.9c2.8-4.8,5.1-9.6,6.6-14.7c1.6-5,2.6-10,3-14.9c0.5-4.9,0.6-9.7,0.3-14.3
			c-0.5-9.2-2.1-17.6-3.9-24.9c-1.8-7.3-3.9-13.6-5.6-18.7c-1.8-5.1-3.2-9.1-4.2-11.9c-1-2.7-1.5-4.2-1.5-4.2s0.6,1.4,1.7,4.1
			c1.1,2.7,2.7,6.6,4.6,11.7c1.9,5.1,4.1,11.3,6.1,18.6c2,7.3,3.9,15.7,4.6,25.1c0.3,4.7,0.4,9.6-0.1,14.6
			c-0.4,5.1-1.3,10.2-2.9,15.4c-1.5,5.2-3.8,10.3-6.6,15.2c-2.8,4.9-6.1,9.7-9.7,14.3c-3.6,4.6-7.7,9-12.1,13.2
			c-4.4,4.1-9.2,8-14.4,11.4l-2,1.3l-2.1,1.2l-2.1,1.1l-2.1,1c-2.8,1.4-5.9,2.4-8.9,3.2c-6.2,1.5-12.6,1.9-18.9,1.3
			c-6.3-0.6-12.5-2-18.4-3.9c-1.5-0.4-3-1-4.4-1.5c-1.5-0.5-2.9-1.1-4.4-1.6l-2.1-0.8c-0.7-0.3-1.4-0.6-2.2-0.9
			c-1.4-0.6-2.8-1.3-4.2-2c-5.6-2.8-10.7-6.2-15.4-10.1c-4.7-3.9-8.9-8.1-12.7-12.7c-0.9-1.1-1.9-2.3-2.7-3.5l-1.3-1.8l-1.2-1.8
			c-1.7-2.4-3.1-4.9-4.5-7.3c-0.7-1.3-1.3-2.5-1.9-3.8c-0.6-1.3-1.3-2.5-1.8-3.8c-0.5-1.3-1.1-2.5-1.6-3.8c-0.3-0.6-0.5-1.3-0.8-1.9
			c-0.2-0.6-0.4-1.3-0.7-1.9c-3.6-10.1-5.4-20.2-6-29.6c-0.6-9.4,0.2-18,1.6-25.4c0.2-0.9,0.3-1.9,0.5-2.8c0.2-0.9,0.4-1.8,0.6-2.6
			c0.4-1.7,0.8-3.4,1.3-5c0.5-1.6,1-3.1,1.4-4.5c0.1-0.4,0.2-0.7,0.3-1.1c0.1-0.3,0.3-0.7,0.4-1c0.3-0.7,0.5-1.3,0.8-2
			c0.5-1.3,0.9-2.5,1.4-3.6c0.5-1.1,1-2.1,1.5-3.1c0.5-1,0.9-1.8,1.3-2.6c0.4-0.8,0.8-1.5,1.2-2.1
			C278.7,437.7,279.5,436.4,279.5,436.4z"/>
	</g>
	<g>
		<path d="M315.3,671.4c0,0,1.1-0.8,3.1-2.1c2-1.3,4.7-3.2,8.2-5.2c3.5-2,7.7-4.3,12.5-6c2.4-0.8,5-1.5,7.7-1.8
			c0.7-0.1,1.4-0.1,2-0.2c0.7,0,1.4-0.1,2.1-0.1c0.8,0,1.4,0,2.1,0.1c0.7,0,1.3,0.1,2,0.2l2.1,0.3l2,0.4c0.7,0.1,1.3,0.3,2,0.5
			c0.6,0.2,1.3,0.4,1.9,0.6c1.3,0.5,2.5,0.9,3.7,1.5c1.2,0.5,2.3,1.2,3.5,1.8c1.1,0.6,2.2,1.3,3.2,1.9c1,0.7,2,1.3,2.9,2
			c1.9,1.4,3.6,2.7,5.1,4c1.6,1.3,2.9,2.6,4.1,3.7c1.2,1.1,2.2,2.1,3.1,2.9c0.8,0.8,1.5,1.5,1.9,1.9c0.4,0.4,0.7,0.7,0.7,0.7
			s-1-0.8-2.9-2.3c-0.9-0.7-2-1.6-3.3-2.7c-0.6-0.5-1.3-1-2.1-1.6c-0.7-0.6-1.5-1.2-2.3-1.7c-0.8-0.6-1.6-1.2-2.5-1.8
			c-0.9-0.6-1.8-1.3-2.7-1.9c-1.9-1.3-4-2.5-6.2-3.7c-2.2-1.2-4.5-2.2-7-3c-0.6-0.2-1.2-0.4-1.9-0.6c-0.6-0.2-1.2-0.4-1.9-0.5
			l-1.9-0.4l-1.9-0.2c-0.6-0.1-1.3-0.1-2-0.2c-0.6,0-1.4-0.1-2-0.1c-0.6,0-1.3,0-1.9,0.1c-0.6,0.1-1.3,0.1-1.9,0.2
			c-2.5,0.3-5,0.9-7.4,1.6c-2.4,0.7-4.6,1.6-6.7,2.5c-2.1,0.9-4,1.9-5.8,2.8c-3.6,1.8-6.5,3.4-8.6,4.6
			C316.5,670.8,315.3,671.4,315.3,671.4z"/>
	</g>
	<g>
		<path d="M386.2,593c-2,1.8-4.1,3.6-6.2,5.3c-1.1,0.9-2.2,1.7-3.3,2.5c-1.1,0.8-2.3,1.5-3.5,2.2c-1.2,0.7-2.4,1.3-3.7,1.9
			c-1.3,0.6-2.6,1.1-3.9,1.5c-1.4,0.4-2.7,0.7-4.1,0.9c-1.4,0.2-2.8,0.4-4.2,0.4c-2.8,0.1-5.5,0-8.2,0c-2.7-0.1-5.5-0.2-8.2-0.5
			c-2.7-0.3-5.5-0.8-8.2-1.5c-1.3-0.4-2.7-0.9-3.9-1.4c-1.3-0.6-2.5-1.3-3.7-2l0.9-0.2c-0.1,0.1-0.1,0.2-0.2,0.3
			c-0.1,0.1-0.1,0.1-0.2,0.2c0,0-0.2,0.1-0.3,0.1c-0.1,0-0.3,0-0.4,0c-0.3-0.1-0.3-0.2-0.4-0.3l-0.1-0.1c-0.1-0.1-0.1-0.1-0.1-0.1
			c-0.1-0.1-0.5-0.4-0.8-0.6c-0.6-0.4-1.2-0.9-1.8-1.3c-1.1-0.9-2.2-1.9-3.2-3c-1-1.1-1.9-2.2-2.7-3.4c-0.8-1.2-1.6-2.4-2.2-3.7
			c1.6,2.4,3.4,4.6,5.5,6.5c1.1,1,2.2,1.8,3.3,2.7c0.6,0.4,1.2,0.8,1.8,1.2c0.3,0.2,0.6,0.3,1,0.6c0.1,0.1,0.2,0.2,0.2,0.2l0.1,0.1
			c0,0,0,0-0.2-0.1c-0.1,0-0.2,0-0.3,0c-0.1,0-0.1,0.1-0.1,0.1c0,0,0,0,0,0l0.1-0.2l0.4-0.5l0.5,0.3c1.2,0.6,2.3,1.3,3.6,1.7
			c1.2,0.5,2.5,0.9,3.8,1.2c2.6,0.7,5.2,1,7.9,1.3c2.7,0.2,5.4,0.3,8.1,0.4c2.7,0.1,5.4,0.2,8.1,0.1c1.3,0,2.7-0.1,4-0.3
			c1.3-0.2,2.6-0.4,3.9-0.8c1.3-0.3,2.5-0.8,3.8-1.3c1.2-0.5,2.5-1.1,3.6-1.7c2.4-1.2,4.7-2.6,7-4.1
			C381.7,596.2,383.9,594.6,386.2,593z"/>
	</g>
	<g>
		<path d="M267.7,470.1c0,0,0.6,0.2,1.7,0.5c1.1,0.3,2.8,0.9,4.9,1.5c1.1,0.3,2.3,0.5,3.6,0.9c0.6,0.1,1.3,0.3,2,0.5
			c0.7,0.1,1.4,0.3,2.2,0.4c3,0.6,6.5,1,10.2,1.5c1.9,0.1,3.9,0.3,5.9,0.4c2,0.1,4.1,0.1,6.3,0.2c2.2,0,4.4,0,6.7,0
			c2.3-0.1,4.6-0.1,7-0.2c4.7-0.2,9.6-0.5,14.6-1c5-0.4,10-0.9,15-1.4c5-0.5,10.1-1,15.1-1.5c5-0.5,9.9-0.7,14.7-0.9
			c4.8-0.1,9.4-0.1,13.7,0c4.4,0.1,8.5,0.3,12.3,0.5c3.8,0.2,7.3,0.6,10.4,0.8c1.5,0.1,3,0.3,4.3,0.4c1.3,0.2,2.6,0.3,3.7,0.4
			c2.2,0.3,3.9,0.5,5.1,0.7c1.2,0.2,1.8,0.3,1.8,0.3l0,0.3c0,0-2.5-0.1-7-0.2c-2.2-0.1-4.9-0.1-8-0.2c-3.1,0-6.6-0.1-10.4-0.1
			c-3.8,0-7.9-0.1-12.2,0c-4.3,0.1-8.9,0.1-13.6,0.2c-9.4,0.2-19.5,0.9-29.6,1.6c-5.1,0.4-10.1,0.8-15.1,1.1
			c-5,0.3-9.9,0.6-14.7,0.7c-2.4,0.1-4.7,0-7,0.1c-2.3,0-4.5-0.1-6.7-0.2c-2.2-0.1-4.3-0.3-6.4-0.4c-2-0.2-4-0.4-5.9-0.6
			c-3.8-0.5-7.2-1.1-10.3-1.8c-0.8-0.2-1.5-0.3-2.2-0.5c-0.7-0.2-1.4-0.4-2-0.5c-1.3-0.4-2.5-0.7-3.6-1c-2.1-0.6-3.8-1.3-4.9-1.6
			c-1.1-0.4-1.7-0.6-1.7-0.6L267.7,470.1z"/>
	</g>
	<g>
		<path class="st3" d="M366.5,535.9c-2.2-0.6-4.1,1.3-5.1,3.2c-0.9,1.8-1,3.9-1.7,5.9c-0.8,2.4-2.2,4.5-2.9,6.8
			c-0.7,2.5-0.5,5.2-1.5,7.6c-0.4,1.1-1.1,2.1-1.6,3.1c-2.3,4.4-2.9,10-0.1,14.1c2.5,3.5,7,5,11.1,6.2c1.2,0.4,2.4,0.7,3.7,0.7
			c0.8,0,1.6-0.2,2.4-0.4c3-0.8,5.9-1.9,8.7-3.3c0.9-0.5,1.8-1,2.7-1.6c2.8-2,4.7-5.1,6.1-8.2c1.4-3.1,2.5-6.5,4-9.6
			c0.4-0.8,0.8-1.6,1-2.5c0.1-0.7,0-1.5-0.1-2.3c-0.1-1.2-0.3-2.4-0.8-3.5c-0.5-1.1-1.4-2-2.6-2.3c-0.9-0.2-1.9,0-2.5-0.7
			c-0.2-0.3-0.3-0.6-0.5-0.9c-0.6-1.2-2.1-1.9-3.4-1.5c0.3-1-0.4-2-1.3-2.6c-0.9-0.6-1.9-1-2.6-1.8c-0.7-0.8-0.8-1.9-1.4-2.9
			c-0.9-1.4-2.7-2.2-4.3-1.7c-0.5,0.1-0.9,0.4-1.3,0.4C370.4,538.9,368.7,536.5,366.5,535.9z"/>
		<path class="st4" d="M366.9,534.2C366.9,534.2,366.9,534.2,366.9,534.2c2.7,1.2,2.6,6.3,1.5,8.4c-1.4,2.8-4.7,4.5-7.9,4.1
			c-0.5-0.1-1-0.2-1.3-0.6c-0.4-0.5-0.3-1.3-0.1-1.9C359.8,541.5,362.7,532.5,366.9,534.2z"/>
		<path class="st4" d="M376.2,547.1c1.4-2.3,3.4-4.4,2.6-7.3c-0.6-2.5-2.5-3.8-4.8-2.1c-2.8,2.1-5,5-6.2,8.2
			c-0.6,1.5-0.9,3.3,0.1,4.6c1.1,1.4,3.3,1.4,4.8,0.5C374.3,550.2,375.3,548.6,376.2,547.1z"/>
		<path class="st4" d="M376,551.4c-0.3,0.9-0.5,2,0,2.7c0.5,0.6,1.4,0.8,2.1,0.6c0.7-0.2,1.3-0.8,1.8-1.4c1.2-1.6,4.6-8.7,1.4-9.7
			C378.2,542.7,376.6,549.6,376,551.4z"/>
		<path class="st4" d="M381.2,553.5c-0.2,1.3,0,2.9,1.2,3.4c1.2,0.5,2.5-0.6,3.3-1.7c1.1-1.6,3.8-6.5,0.8-7.5
			C383.6,546.6,381.6,551.5,381.2,553.5z"/>
		<path class="st4" d="M386.8,557c-0.2,0.7-0.4,1.5-0.1,2.2c0.4,1.3,2.1,1.9,3.5,1.5c1.3-0.4,2.3-1.6,3.1-2.8c1.3-2.2,2-7.3-2-7.2
			C388.6,550.8,387.4,555,386.8,557z"/>
		<path class="st4" d="M362.5,548.4c-1,1.7-1.5,3.8-1.3,5.8c0.1,1.1,0.6,2.3,1.7,2.4c1,0.1,1.6-0.9,2.1-1.7c0.6-1,1.2-2.1,1.5-3.2
			C367.1,549.3,364.6,544.9,362.5,548.4z"/>
		<path class="st4" d="M355.8,556.6c0.1,0.3,0.2,0.7,0.5,0.9c0.4,0.3,1,0,1.4-0.3c2.1-1.5,5.5-6.7,1.6-8.3
			C355.1,547.2,355.3,554.3,355.8,556.6z"/>
		<path class="st4" d="M366.8,561.6c1,0.4,2.2,0,2.9-0.8c1.9-2,3-9-1.6-7.5C365.5,554.2,363.8,560.3,366.8,561.6z"/>
		<path class="st4" d="M370.7,565.5c1,0.3,2.1,0,3-0.7c1.8-1.4,5.3-7.2,1.1-7.5C371.7,557.1,369.9,565.3,370.7,565.5z"/>
		<path class="st4" d="M376.7,566.6c0,0.9,0.2,1.9,1,2.4c0.9,0.5,2.1-0.2,2.9-0.9c2-2,5.4-8.2,1.5-10.1
			C377.7,555.8,376.6,564,376.7,566.6z"/>
		<path class="st4" d="M386.2,562.5c-0.8,0.9-1.5,1.9-2,2.9c-0.5,1.1-0.7,2.3-0.5,3.5c0.1,0.6,0.4,1.3,0.9,1.7
			c0.5,0.3,1,0.3,1.6,0.2c1.5-0.4,2.3-1.9,3-3.3c0.3-0.7,0.6-1.5,0.8-2.2C390.3,563.1,388.2,560.3,386.2,562.5z"/>
		<path class="st4" d="M357.9,558.6c-0.6,1.1-0.8,2.3-0.8,3.6c0,0.7,0.1,1.5,0.5,2.1c0.4,0.6,1.2,1,1.9,0.7c0.4-0.2,0.7-0.5,0.9-0.9
			c0.9-1.5,1.4-3.2,1.3-5c0-0.8-0.4-2.5-1.5-2.6C359.3,556.4,358.3,557.8,357.9,558.6z"/>
		<path class="st4" d="M361.2,568.9c0.1,0.3,0.2,0.6,0.4,0.8c0.6,0.7,1.8,0.6,2.6,0.1c1.1-0.6,1.8-1.7,2.2-2.8
			c0.5-1.2,0.6-2.6-0.2-3.7c-0.7-1-1.8-1.8-3-1.2C361.2,563.3,360.5,566.8,361.2,568.9z"/>
		<path class="st4" d="M366.5,571.8c0.1,0.9,0.4,1.8,1.1,2.3c0.6,0.4,1.3,0.4,1.9,0.3c0.7-0.2,1.2-0.5,1.8-1c0.6-0.5,1.2-1.2,1.4-2
			c0.2-0.7,0.1-1.4,0-2c-0.1-0.5-0.3-1.1-0.6-1.5C369.7,563.7,366.3,568.9,366.5,571.8z"/>
		<path class="st4" d="M374.5,570.8c-1.1,1.3-1.8,3-1.8,4.7c0,0.8,0.2,1.7,0.9,2.1c0.5,0.3,1.1,0.3,1.6,0.1s1-0.5,1.4-0.8
			c1-0.8,2-1.7,2.4-2.9c0.3-1,0.1-2.1-0.4-3C377.7,569.1,375.7,569.5,374.5,570.8z"/>
		<path class="st4" d="M351.9,562.3c-0.6,1.2-0.8,2.7-0.7,4c0,0.2,0.1,0.4,0.2,0.6c0.1,0.2,0.3,0.3,0.5,0.3c0.5,0.2,1.1,0.5,1.6,0.4
			c0.4-0.1,0.7-0.4,1-0.7c0.9-1.1,1.4-2.4,1.7-3.8c0.3-1.1,0.5-3.5-1.1-3.5C353.8,559.5,352.5,561.3,351.9,562.3z"/>
		<path class="st4" d="M354.7,567.8c-1.1,1.6-1.8,3.6-2,5.5c-0.1,0.7-0.1,1.4,0.3,2c0.6,1.1,2.1,1.4,3.3,0.9s2-1.5,2.6-2.5
			c0.7-1.1,1.3-2.3,1.3-3.6c0-0.6-0.2-1.2-0.4-1.7c-0.3-1-1.1-2.3-2.3-2.5C356.3,565.7,355.2,566.9,354.7,567.8z"/>
		<path class="st4" d="M360.7,573.9c-0.9,1.3-1.2,2.8-1.1,4.3c0,0.3,0,0.5,0.2,0.8c0.2,0.4,0.6,0.6,1,0.7c1.6,0.4,3.4-0.4,4.2-1.8
			c0.9-1.4,1-4-0.2-5.3C363.5,571.1,361.6,572.7,360.7,573.9z"/>
		<path class="st4" d="M367,577.3c-0.8,1.1-1.1,2.5-1.3,3.9c0,0.3-0.1,0.6,0,0.9c0.1,0.3,0.5,0.5,0.8,0.6c0.9,0.4,1.9,0.3,2.8-0.1
			c0.9-0.4,1.6-1.1,2.1-1.9c0.3-0.5,0.5-1.1,0.5-1.7c0-1-0.6-3.1-1.7-3.5C369.1,575.1,367.5,576.5,367,577.3z"/>
		<path class="st4" d="M379.9,573.4c-0.5,0.9-0.8,2-0.7,3.1c0,1,0.4,2.1,1.3,2.6c0.7,0.3,1.5,0.2,2.1-0.1c1.8-0.8,2.9-2.8,3.2-4.8
			C386.5,569.9,381.4,570.6,379.9,573.4z"/>
		<path class="st4" d="M375.7,578.4c-0.8,0.2-1.6,0.6-2.3,1c-0.9,0.6-1.7,1.4-2.4,2.2c-0.4,0.5-0.9,1-0.7,1.6
			c0.1,0.4,0.4,0.6,0.8,0.8c0.4,0.1,0.8,0.1,1.1,0.1c1.9-0.1,3.8-0.7,5.3-1.9c0.8-0.6,1.5-1.5,1.6-2.5
			C379.5,577.4,377,578,375.7,578.4z"/>
	</g>
</g>
</svg>
