<?xml version="1.0" encoding="utf-8"?>
<!-- Generator: Adobe Illustrator 19.2.0, SVG Export Plug-In . SVG Version: 6.00 Build 0)  -->
<svg version="1.1" id="Layer_1" xmlns="http://www.w3.org/2000/svg" xmlns:xlink="http://www.w3.org/1999/xlink" x="0px" y="0px"
	 viewBox="0 0 460 402.4" style="enable-background:new 0 0 460 402.4;" xml:space="preserve">
<style type="text/css">
	.st0{fill:none;stroke:#000000;stroke-width:5;stroke-miterlimit:10;}
	.st1{opacity:0.9;fill:url(#SVGID_1_);enable-background:new    ;}
	.st2{fill:url(#SVGID_2_);}
	.st3{fill:none;}
	.st4{fill:none;stroke:#000000;stroke-width:2;stroke-miterlimit:10;}
</style>
<path class="st0" d="M6588.6-868.2c0.3,38.5,0.2,82.4-5.7,120.5c-2.3,14.7-3.7,31.7-10.6,44.9c-9.4,17.9-18.6,35.9-34,49.5
	c-5.5,4.9-11.5,9.2-17.9,12.8c-4.2,2.3-15.3,5.1-15.9,10.8c-0.4,3.6,3.8,5.7,6.9,7.6c6.9,4.3,10.9,12.3,11.6,20.4
	c1.5,15.4-5.6,30.7-18.9,38.8c-0.8,0.5-1.6,1-1.9,1.8c-0.7,2.1,2.1,3.4,4.2,3.8c12.1,2.1,24,5,35.7,8.7c7.7,2.4,24.3,10.6,12,18.5
	c-7.7,4.9-17,6.2-26,7.3c-24.7,3.1-49.7,6.2-74.5,3.9c-5.6-0.5-11.2-1.4-16.8-2.2l-22.5-3.3c-5.3-0.8-11.8-2.7-12.7-7.9
	c-1.7-10.2,16.6-15.1,23.6-17.2c4.9-1.5,36.5-4.6,35.6-9.3c-0.5-2.4-2.8-3.9-4.8-5.4c-8.9-6.4-15-16.4-16.6-27.2
	c-1.6-10.8,1.3-22.2,7.9-30.9c2.2-2.9,4.9-6,4.4-9.6c-0.2-1.5-1-2.9-2-4.1c-5.1-6.7-15.9-9.5-22.8-14.7c-7.9-6-15.2-12.8-21.6-20.4
	c-12.5-14.5-22.1-31.5-27.6-49.9c-5.2-17.2-6.9-35.3-8.2-53.2c-2.3-31-3.6-62-3.8-93.1c20.2-2.4,42-1.8,62.4-1.4
	C6480.9-867.6,6588.6-870.3,6588.6-868.2L6588.6-868.2z"/>
<path d="M6462-553.3v1.9c0,0.6,0.1,1.3,0.6,1.9c0.4,0.6,1.2,0.8,2.2,0.8c2.1-0.1,4.5-0.2,7.1-0.2c1.3,0,2.7-0.1,4-0.1
	c1.4-0.1,2.8-0.1,4.1-0.2c1.4-0.1,2.8-0.1,4.1-0.2c1.4-0.1,2.7-0.1,4-0.2c2.6-0.1,5-0.2,7.1-0.3c2-0.1,3.7-0.6,4.6-1.3
	c0.4-0.4,0.7-0.8,0.8-1.1c0.1-0.3,0.2-0.5,0.2-0.5v0.5c-0.1,0.3-0.2,0.8-0.6,1.3s-1.1,1-1.9,1.4c-0.8,0.4-1.8,0.7-2.8,0.8
	c-2.1,0.4-4.5,0.7-7.1,0.9c-1.3,0.1-2.7,0.3-4,0.4c-1.4,0.1-2.8,0.2-4.2,0.2c-1.4,0-2.8,0.1-4.2,0.1h-4.1c-2.6-0.1-5.1-0.2-7.2-0.4
	c-0.5-0.1-1.1-0.1-1.6-0.4s-0.9-0.7-1.1-1.1c-0.4-0.9-0.4-1.7-0.3-2.3c0.1-0.6,0.2-1.1,0.3-1.4C6461.9-553.1,6462-553.3,6462-553.3
	L6462-553.3z M6461.6-637.9c0,0,0.6,0.2,1.6,0.5c0.5,0.2,1.2,0.3,1.9,0.5s1.6,0.4,2.4,0.5c0.9,0.2,1.9,0.3,2.9,0.5
	c1,0.1,2.1,0.2,3.3,0.3c1.1,0.1,2.3,0.1,3.5,0.2h3.6c1.2,0,2.5,0,3.7-0.1c1.2,0,2.4-0.1,3.6-0.1c2.3-0.1,4.5-0.1,6.3-0.3
	c1.8-0.2,3.2-0.6,4.1-1.2c0.4-0.3,0.8-0.6,1-0.8l0.3-0.3c0,0-0.1,0.1-0.2,0.4c-0.2,0.3-0.4,0.6-0.8,1c-0.8,0.8-2.3,1.6-4.2,2
	c-0.9,0.2-2,0.4-3,0.5c-1.1,0.1-2.2,0.3-3.3,0.4l-3.6,0.3c-1.2,0.1-2.5,0.1-3.7,0.2c-1.3,0-2.5,0-3.7-0.1c-0.6,0-1.2-0.1-1.8-0.1
	c-0.6-0.1-1.2-0.1-1.8-0.2c-1.2-0.1-2.3-0.4-3.4-0.6c-0.5-0.1-1-0.3-1.5-0.4c-0.5-0.2-1-0.3-1.4-0.4c-1.8-0.6-3.2-1.3-4.2-1.8
	C6462.2-637.6,6461.6-637.9,6461.6-637.9L6461.6-637.9z M6411.5-535.8l0.3,0.3c0.2,0.2,0.5,0.4,1,0.6c0.9,0.5,2.3,1,4.2,1.4
	c1.9,0.4,4.2,0.7,6.8,1.1c2.6,0.4,5.6,0.7,8.9,1.1c3.3,0.3,6.8,0.7,10.6,1c3.7,0.3,7.7,0.5,11.8,0.7c8.2,0.3,17,0.5,25.7,0.6
	c4.4,0.1,8.8,0.1,13.1,0.2c4.3,0,8.5,0.1,12.6,0c4.1-0.1,8-0.4,11.7-0.8c3.7-0.5,7.2-1.1,10.4-1.7c6.4-1.4,11.6-3,15.2-4.3
	c1.8-0.7,3.2-1.2,4.2-1.6l1.5-0.6c0,0-0.5,0.2-1.4,0.7c-0.9,0.4-2.3,1.1-4.1,1.8c-3.5,1.5-8.7,3.5-15.1,5.1
	c-6.4,1.6-14.1,2.9-22.3,3.2c-4.1,0.2-8.4,0.2-12.7,0.2c-4.3,0-8.7-0.1-13.1-0.1c-4.4-0.1-8.8-0.2-13.1-0.3
	c-4.3-0.1-8.6-0.4-12.7-0.6c-4.1-0.3-8.1-0.6-11.8-1c-3.8-0.4-7.3-0.8-10.6-1.3c-1.6-0.3-3.2-0.5-4.7-0.7c-1.5-0.3-2.9-0.5-4.2-0.8
	c-2.6-0.5-4.9-1-6.8-1.5s-3.3-1.1-4.1-1.7c-0.4-0.3-0.7-0.5-0.9-0.7C6411.6-535.7,6411.5-535.8,6411.5-535.8L6411.5-535.8z"/>
<linearGradient id="SVGID_1_" gradientUnits="userSpaceOnUse" x1="6378.7998" y1="-1253.3817" x2="6584.7002" y2="-1253.3817" gradientTransform="matrix(1 0 0 1 0 507)">
	<stop  offset="1.800000e-02" style="stop-color:#801FE3"/>
	<stop  offset="1" style="stop-color:#B7A7FF"/>
</linearGradient>
<path class="st1" d="M6378.8-840c1.4,24.4,2.7,48.8,4.1,73.2c0.4,7.9,0.9,15.9,2.2,23.7c1.8,11.1,5.4,21.8,8.9,32.5
	c3,9.1,6,18.2,11.1,26.3c17.8,28.1,51.5,32.7,81.9,31.3c10.6-0.5,21.3-1.5,31.5-4.7c66.9-21.3,65.2-117,66.1-172.7
	c0-2.6,0.1-5.1,0.1-7.7C6516-835.9,6447.2-834.1,6378.8-840L6378.8-840z"/>
<path d="M6373.7-859.7c0,0,0.6,8.1,1.5,22.2c0.5,7.1,1,15.6,1.7,25.5c0.6,9.8,1.4,20.9,2.1,33.1c0.4,6.1,0.7,12.4,1.3,18.9
	c0.5,6.5,1.4,13.2,3,19.9c1.6,6.7,3.7,13.5,6,20.4c2.4,6.9,4.5,14,7.5,20.9c0.8,1.7,1.5,3.4,2.4,5.1c0.9,1.6,1.8,3.3,2.8,4.8
	c1.1,1.6,2.2,3.1,3.4,4.7c1.2,1.4,2.5,2.8,3.7,4.3c5.3,5.5,11.7,10,18.8,13.2c7.1,3.3,14.8,5.4,22.6,6.6c7.9,1.3,15.9,1.7,23.9,1.7
	c8-0.1,16.1-0.4,24-1.5c3.9-0.5,7.9-1.2,11.7-2.2c1-0.3,1.9-0.5,2.8-0.8l0.7-0.2h0.1l0.2-0.1l0.4-0.1l1.4-0.5l2.8-1
	c0.5-0.2,0.9-0.3,1.4-0.5l1.3-0.6c7.1-3.1,13.7-7.4,19.4-12.5c5.7-5.1,10.5-11.1,14.4-17.5c4-6.3,7.1-13.1,9.7-19.8
	c2.6-6.8,4.6-13.6,6.3-20.3c3.2-13.5,5-26.5,6.2-38.5c1.1-12.1,1.7-23.2,2-33c0.3-9.9,0.5-18.4,0.7-25.5c0.2-14.2,0.4-22.2,0.4-22.2
	s0,2,0.1,5.8c0,3.8,0.1,9.4,0.2,16.4c0,7.1,0,15.7-0.2,25.5c-0.1,9.9-0.5,21-1.5,33.1c-1,12.1-2.6,25.2-5.7,38.9
	c-1.6,6.8-3.6,13.7-6.1,20.6c-2.5,6.9-5.7,13.8-9.8,20.3c-4,6.5-9,12.7-14.8,18.1c-5.9,5.4-12.7,9.8-20.2,13.1l-1.4,0.6
	c-0.5,0.2-0.9,0.4-1.4,0.5l-2.8,1l-1.4,0.5l-0.4,0.1l-0.2,0.1l-0.2,0.1l-0.7,0.2c-1,0.3-2,0.6-2.9,0.8c-3.9,1-8,1.8-12,2.4
	c-8.1,1.1-16.2,1.5-24.4,1.6c-8.2,0-16.3-0.5-24.4-1.8c-8-1.3-16-3.5-23.3-7c-7.4-3.4-14.1-8.1-19.6-13.9c-1.3-1.5-2.6-3.1-3.9-4.6
	c-1.1-1.6-2.2-3.2-3.3-4.7c-2.2-3.4-3.9-6.8-5.4-10.4c-3-7.1-5.2-14.2-7.5-21.2c-2.2-7-4.3-13.9-5.8-20.7
	c-1.6-6.9-2.4-13.6-2.8-20.2c-0.5-6.6-0.7-12.9-1-18.9c-0.6-12.1-1.1-23.2-1.6-33.1c-0.5-9.9-0.8-18.4-1.2-25.5
	C6374-851.7,6373.7-859.7,6373.7-859.7L6373.7-859.7z"/>
<path d="M6374.1-844.3c0,0,0.8,0,2.4,0.1s3.8,0.2,6.7,0.3c2.9,0.2,6.4,0.3,10.5,0.5c4,0.2,8.6,0.3,13.6,0.5s10.4,0.3,16.1,0.5
	s11.7,0.2,17.9,0.4c6.2,0.1,12.6,0.1,19.2,0.2c6.5,0.1,13.2,0,19.8,0.1c6.6,0,13.3,0,19.8-0.1s13-0.1,19.2-0.2
	c12.5-0.1,24.1-0.2,34-0.3c10-0.1,18.3-0.1,24.1-0.1h9.1c0,0-0.8,0.1-2.4,0.2c-1.6,0.1-3.8,0.2-6.7,0.4c-5.8,0.3-14.1,0.8-24.1,1.3
	s-21.6,0.9-34,1.3c-6.2,0.1-12.7,0.4-19.2,0.4c-6.5,0.1-13.2,0.1-19.8,0.2c-6.6,0-13.3,0-19.8-0.2c-6.5-0.1-13-0.3-19.2-0.4
	c-6.2-0.2-12.3-0.4-18-0.8c-2.9-0.2-5.6-0.3-8.3-0.5c-2.7-0.2-5.3-0.4-7.8-0.5c-2.5-0.2-4.9-0.3-7.1-0.5c-2.3-0.2-4.4-0.4-6.4-0.6
	c-4-0.4-7.6-0.7-10.4-1c-2.9-0.3-5.2-0.6-6.7-0.7C6374.9-844.2,6374.1-844.3,6374.1-844.3L6374.1-844.3z"/>
<linearGradient id="SVGID_2_" gradientUnits="userSpaceOnUse" x1="226.191" y1="-202.3964" x2="226.191" y2="-479.6218" gradientTransform="matrix(1 0 0 1 0 507)">
	<stop  offset="0" style="stop-color:#C50B00"/>
	<stop  offset="0.997" style="stop-color:#FFDB94"/>
</linearGradient>
<path class="st2" d="M313.6,29.1c-8.3-0.5-16.6-0.9-25-1.2c-19.9-0.7-40-0.6-60-0.3c-32.8,0.5-65.6,1.4-98.4,2.3
	c-10.6,0.3-21.3,0.6-31.7,1.7c-2.9,15.2-4.1,30.6-3.6,45.9c0.7,19.4,2.3,111.3,2.6,138c0.2,19.5,2,38.3,9.1,57.5
	c2.1,5.6,10.8,20.9,15.8,22.4c18.1,5.3,39.2,8.4,60.7,9c3.4,0.1,6.9,0.1,10.3,0.1c25.4,0.2,50.7,0.1,76.1-0.4
	c11.3-0.2,22.6-0.4,33.6-1.5s21.8-3.1,30.3-6.5c7.1-2.8,10-7.8,12-12c6.4-13.3,8.5-27.7,8.9-41.3c0.1-2.4-0.2-6-0.1-8.5
	c0.4-11.3,0.8-22.6,1.2-34c0.5-14.5,0.5-57.6,1.7-72.1c1.1-12.9,1.2-70.8-9-97.3C336.7,30.4,325.2,29.8,313.6,29.1L313.6,29.1z"/>
<path class="st3" d="M317.6,26.1c-8.3-0.5-16.6-0.9-25-1.2c-19.9-0.7-40-0.6-60-0.3c-32.8,0.5-65.6,1.4-98.4,2.3
	c-10.6,0.3-21.3,0.6-31.7,1.7c-2.9,15.2-4.1,30.6-3.6,45.9c0.7,19.4,2.3,111.3,2.6,138c0.2,19.5,2,38.3,9.1,57.5
	c2.1,5.6,10.8,20.9,15.8,22.4c18.1,5.3,39.2,8.4,60.7,9c3.4,0.1,6.9,0.1,10.3,0.1c25.4,0.2,50.7,0.1,76.1-0.4
	c11.3-0.2,22.6-0.4,33.6-1.5s21.8-3.1,30.3-6.5c7.1-2.8,10-7.8,12-12c6.4-13.3,8.5-27.7,8.9-41.3c0.1-2.4-0.2-6-0.1-8.5
	c0.4-11.3,0.8-22.6,1.2-34c0.5-14.5,0.5-57.6,1.7-72.1c1.1-12.9,1.2-70.8-9-97.3C340.7,27.4,329.2,26.8,317.6,26.1L317.6,26.1z"/>
<path class="st0" d="M357.9,17c17.5,36.8,12.8,60.2,11.9,99.8c10.7,4.6,11.4,9.5,14.3,16c2.9,6.5,0.6,39.4-0.4,46
	c-1.8,11-1.8,24.5-15,25.4c-1.2,0.1-1.3,34.1-2.8,50.9c-1.1,12.3-1.7,25.4-15.4,35.9c-2,1.6-2,4.6,0,6.2
	c8.5,6.4,14.2,13.5,16.7,20.9c1.7,5.1,1.8,10.2,2,15.4c0.2,5.3,0.3,10.5,0.5,15.8c0.2,6.6,0.5,13.1-0.8,19.7
	c-0.9,4.5,2.6,9-3.5,12.6c-15.6,9.1-40.7,14.3-66.2,16.4c-25.5,2.1-51.6,1.4-77.5,0.7c-34-0.9-85.8,2-110-11.3
	c-10.4-5.7-11.5-13.6-11.8-20.9c-0.3-6.7-0.5-13.4-0.7-20.1c-0.2-10.1-0.4-20.4,4.4-30.4c4.8-10,16.4-14.9,7.4-24.8
	c-9.2-10.1-11-21.1-12.8-31.9c-2.7-16.8-6-33.8-8.7-50.6c-13.5-14.1-15.3-24.6-15-46.5c0.1-7.6-1.8-34.2,7.2-40.5
	c2.6-1.8,5.8-3.6,7-5.6c0.9-1.5,0.7-3,0.5-4.5c-4.2-37-3.3-55.3,4.1-92.2c0.9-4.7,13.7-8,24.4-8.8C182.5,5.8,249,5.3,314.2,9.3
	C327.1,9.9,357.1,15.5,357.9,17L357.9,17z"/>
<path class="st4" d="M128.3,162.6c-4.4,3.5-6.8,8.1-1.2,11.2c4.4,2.4,12.4,2.9,19,1.9s11.8-3.2,16.6-5.4c5.3-2.5,10.4-5.2,12.9-8.5
	c4-5.3-2.2-12.9-17-11.9C147.5,150.6,133.4,158.7,128.3,162.6L128.3,162.6z M313.1,175.3c5.2,0.8,11.8,0.9,15.3-1.1
	c3-1.7,2.2-4.1,1-6.2c-3.2-5.8-26.7-25.4-43.8-15.7C272.2,160,298.7,173.2,313.1,175.3L313.1,175.3z"/>
<path d="M123.5,147.6c0,0-0.4,0.4-1.1,1.2c-0.7,0.8-1.7,1.9-2.8,3.5c-1.1,1.5-2.4,3.5-3.7,5.9c-1.3,2.3-2.7,5-4.5,7.8
	c-0.9,1.4-1.6,2.8-1.9,4.5c-0.3,1.6-0.3,3.4,0.3,5.1s1.7,3.2,3.1,4.4c1.4,1.2,3.1,2.2,4.9,3.1c3.7,1.7,7.8,2.5,12,2.9
	c4.3,0.3,8.6-0.1,12.8-0.9c4.3-0.8,8.5-2,12.7-3.2c2-0.7,4.1-1.3,6.1-2c1-0.4,2-0.7,2.9-1.1c1-0.4,1.9-0.8,2.9-1.2
	c3.7-1.7,7.3-3.4,10.5-5.4c1.6-0.9,3.1-2,4.6-3l2.1-1.5c0.7-0.5,1.3-1,2-1.6l1.8-1.5c0.6-0.5,1.1-1.1,1.7-1.6c1.1-1,2.1-2.1,3-3
	c0.9-1,1.7-1.9,2.4-2.8c0.7-0.9,1.4-1.8,1.9-2.5c0.5-0.8,1-1.5,1.5-2.1c0.4-0.6,0.7-1.2,1-1.6c0.6-0.9,0.8-1.3,0.8-1.3
	s-0.3,0.5-0.8,1.4s-1.2,2.2-2.3,3.9c-0.5,0.8-1.2,1.7-1.8,2.6c-0.7,0.9-1.5,1.9-2.3,3c-1.8,2-3.8,4.3-6.3,6.5
	c-0.6,0.6-1.3,1.1-1.9,1.7c-0.7,0.5-1.4,1.1-2.1,1.7c-1.5,1-3,2.2-4.6,3.1c-3.2,2.1-6.8,4-10.6,5.7c-1,0.4-1.9,0.8-2.9,1.3l-3,1.2
	c-2,0.8-4.1,1.5-6.2,2.1c-4.2,1.3-8.4,2.5-12.8,3.4c-4.4,0.8-9,1.2-13.4,0.9c-4.4-0.4-8.7-1.4-12.6-3.2c-1.9-0.9-3.8-2-5.3-3.5
	c-1.5-1.4-2.8-3.2-3.4-5.1c-0.6-1.9-0.6-4-0.2-5.8c0.4-1.8,1.3-3.5,2.3-4.8c1.9-2.7,3.4-5.3,4.8-7.6s2.8-4.2,4-5.7s2.3-2.6,3-3.3
	C123.1,148,123.5,147.6,123.5,147.6L123.5,147.6z"/>
<path d="M108.8,138.3c0.7,0.8,1.7,1.3,2.6,1.7c1,0.4,2,0.7,3,1c2.1,0.5,4.2,0.7,6.3,0.9c4.2,0.4,8.5,0.4,12.7,0.4l6.4-0.1H159
	c4.3,0,8.5-0.1,12.8-0.3l12.8-0.4c8.5-0.2,17-0.3,25.6-0.3h0.4l0.3,0.3c0.6,0.6,1.2,1.2,1.9,1.7l2.1,1.5c1.4,1,2.9,1.8,4.5,2.7
	c1.5,0.8,3.1,1.6,4.7,2.2l2.4,0.9c0.8,0.3,1.6,0.5,2.5,0.7l-0.7,0.1c2.8-1.5,5.7-2.8,8.4-4.4c1.3-0.8,2.6-1.6,3.8-2.6
	c1.2-1,2.3-2,3.3-3.2l0.3-0.3h0.4c9.1-0.4,18.2-0.5,27.2-0.4c4.5,0,9.1,0.1,13.6,0.2l13.6,0.4l13.6,0.4c4.5,0.1,9.1,0.3,13.6,0.4
	s9,0,13.5-0.5s8.9-1.4,13.3-2.5c-2.2,0.6-4.4,1.2-6.6,1.7s-4.4,0.9-6.7,1.2c-4.5,0.6-9.1,0.9-13.6,0.9c-4.5,0.1-9.1,0-13.6-0.1
	l-13.6-0.2l-13.6-0.1l-13.6-0.1c-9.1,0-18.1,0.1-27.1,0.6l0.7-0.3c-1.1,1.3-2.2,2.4-3.5,3.5c-1.3,1-2.7,1.9-4,2.8
	c-2.8,1.6-5.6,3.1-8.5,4.5l-0.3,0.2l-0.3-0.1c-0.9-0.2-1.8-0.5-2.6-0.8c-0.9-0.3-1.7-0.6-2.5-1c-1.7-0.7-3.3-1.5-4.9-2.3
	c-1.6-0.9-3.1-1.8-4.6-2.8c-0.7-0.5-1.5-1-2.2-1.6s-1.4-1.2-2.1-1.9l0.7,0.3c-8.5-0.1-17,0-25.5,0.1c-8.5,0.2-17,0.3-25.6,0.2
	c-4.3,0-8.5-0.1-12.8-0.2l-12.8-0.2c-4.3-0.1-8.5-0.3-12.8-0.8c-2.1-0.2-4.2-0.6-6.3-1.1c-1-0.3-2-0.6-3-1.1
	C110.4,139.7,109.5,139.2,108.8,138.3L108.8,138.3z"/>
<path d="M209.9,146.3c0.1,3.7,0.3,7.5,0.4,11.2c0.2,3.7,0.4,7.5,0.6,11.2l1.2,22.4l0.5,11.2l0.2,5.6l0.1,5.6v11.2l-0.1,5.6l-0.2,5.6
	l-0.8-1c5.5,0.5,11.1,0.9,16.6,1.1c2.8,0.1,5.6,0.2,8.3,0.2c2.8,0,5.6,0,8.3-0.1l-0.9,0.9c0.3-7.5,0.6-15,0.7-22.6l0.6-22.6
	l0.5-22.6l0.6-22.6c0.1,7.5,0.2,15.1,0.2,22.6c0.1,7.5,0,15.1,0,22.6l-0.1,11.3c0,3.8-0.1,7.5-0.1,11.3c-0.1,7.5-0.3,15.1-0.6,22.6
	v0.9H245c-5.6,0.2-11.2,0.2-16.8,0c-5.6-0.2-11.2-0.6-16.8-1.2l-0.9-0.1v-0.9l0.3-5.6l0.2-5.6l0.1-5.6v-5.6l-0.2-11.2l-0.3-11.2
	c-0.2-7.5-0.5-15-0.7-22.4c-0.1-3.7-0.1-7.5-0.2-11.2v-5.6L209.9,146.3L209.9,146.3z M104.9,208.3c10-2.7,20-5.2,29.9-7.8l30-7.7
	l1-0.2l-0.1,1c-0.2,3.6-0.1,7.2,0.5,10.8c0.5,3.6,1.3,7.1,2.5,10.5l0.3,1l-1.1,0.1c-1.9,0.2-3.8,0.4-5.7,0.7
	c-1.9,0.3-3.8,0.5-5.6,0.9l-2.8,0.5c-0.9,0.2-1.9,0.4-2.8,0.6c-1.9,0.4-3.7,1-5.5,1.5c-3.6,1.1-7.2,2.3-10.7,3.9
	c-1.8,0.7-3.4,1.6-5.1,2.5c-1.6,0.9-3.3,1.9-4.8,2.9c-3.1,2.1-6,4.6-8.1,7.6l-0.8,1.1c-0.3,0.4-0.4,0.8-0.6,1.2l-0.6,1.2
	c-0.1,0.4-0.4,0.9-0.5,1.3c-0.5,1.7-0.7,3.5-0.4,5.3c0.5,3.6,2.4,6.9,4.8,9.7c2.5,2.8,5.5,5.1,8.7,7.1s6.6,3.6,10.1,5
	s7.1,2.6,10.8,3.5c7.4,1.9,14.9,3,22.6,3.5c3.8,0.2,7.6,0.2,11.4,0s7.6-0.6,11.4-1.3s7.5-1.6,11-3c1.8-0.7,3.5-1.4,5.2-2.4
	c1.7-0.9,3.3-2,4.6-3.3c-1.3,1.4-2.9,2.5-4.5,3.5s-3.4,1.8-5.2,2.5c-3.6,1.5-7.3,2.5-11.1,3.3c-7.5,1.6-15.3,2.1-23,1.8
	s-15.4-1.3-22.9-3.1c-3.7-0.9-7.5-2-11.1-3.4s-7.1-3.1-10.5-5.1c-3.3-2-6.5-4.4-9.1-7.4c-2.6-2.9-4.7-6.5-5.3-10.6
	c-0.3-2-0.1-4.1,0.5-6.1c0.1-0.5,0.3-0.9,0.5-1.4s0.4-0.9,0.7-1.4c0.2-0.4,0.4-0.9,0.7-1.3l0.8-1.2c2.3-3.3,5.4-5.9,8.6-8.1
	c1.6-1.1,3.3-2.1,5-3s3.5-1.8,5.3-2.5c3.5-1.6,7.2-2.8,10.9-3.9c1.9-0.5,3.7-1.1,5.6-1.5c0.9-0.2,1.9-0.4,2.8-0.6l2.8-0.5
	c1.9-0.4,3.8-0.6,5.7-0.9c1.9-0.3,3.8-0.4,5.7-0.7l-0.7,1.1c-1.2-3.5-2-7.1-2.5-10.8c-0.5-3.7-0.6-7.4-0.3-11.1l0.9,0.8l-30.1,7.1
	C125.1,203.7,115,206.1,104.9,208.3L104.9,208.3z M355.3,204.3c-6.4-1.1-12.9-2.2-19.3-3.1c-3.2-0.5-6.5-0.9-9.7-1.2
	c-3.2-0.4-6.5-0.7-9.7-1c-13-1.2-26-1.8-39-2.2l0.8-0.8c-0.3,4.3,0.2,8.7,1.2,12.9c0.3,1.1,0.6,2.1,0.9,3.1c0.4,1.1,0.7,2,1.3,2.6
	c0.6,0.6,1.5,1,2.5,1.3s2.1,0.5,3.1,0.7c4.4,0.8,8.7,1.6,13.1,2.6c4.3,1,8.6,2.1,12.9,3.5c4.2,1.3,8.4,2.9,12.5,4.7s8.1,4,11.7,6.6
	c1.8,1.4,3.6,2.8,5.1,4.5c0.4,0.4,0.8,0.8,1.2,1.3c0.3,0.4,0.7,0.8,1,1.4c0.7,1,1.2,2,1.7,3.1s0.8,2.2,1,3.4s0.3,2.4,0.2,3.5
	c-0.2,2.4-1,4.6-2.1,6.7c-2.4,4-6.1,7-10,9.2s-8.2,3.8-12.5,4.9c-4.3,1.1-8.7,1.8-13.2,2.4c-4.4,0.5-8.9,0.8-13.3,1
	s-8.8,0.3-13.3,0.3c-4.4-0.1-8.9-0.5-13.3-1s-8.8-1.2-13.1-2.2c-2.2-0.5-4.3-1.1-6.4-1.9c-1-0.4-2-0.9-3-1.4c-1-0.6-1.9-1.2-2.5-2.1
	c0.7,0.9,1.6,1.5,2.6,2.1c1,0.5,2,1,3,1.3c2.1,0.7,4.2,1.3,6.4,1.7c4.3,0.9,8.7,1.4,13.1,1.9c4.4,0.4,8.8,0.7,13.2,0.7
	c4.4,0,8.8-0.2,13.2-0.5c4.4-0.3,8.8-0.6,13.2-1.2c4.4-0.6,8.7-1.4,12.9-2.5c4.2-1.2,8.3-2.7,12.1-4.8c3.7-2.1,7.2-5,9.3-8.6
	c1-1.8,1.7-3.8,1.9-5.9c0.1-1,0-2.1-0.2-3.1s-0.5-2-0.9-3c-0.4-0.9-0.9-1.9-1.6-2.7c-0.3-0.4-0.7-0.9-1-1.3
	c-0.3-0.4-0.7-0.8-1.1-1.2c-1.5-1.6-3.2-2.9-4.9-4.2c-3.5-2.5-7.4-4.6-11.4-6.4c-4-1.8-8.1-3.3-12.3-4.7c-4.2-1.4-8.4-2.5-12.7-3.5
	c-4.3-1-8.6-1.8-13-2.6c-1.1-0.2-2.2-0.4-3.3-0.7c-0.6-0.2-1.1-0.4-1.7-0.7s-1.1-0.7-1.6-1.1c-0.5-0.5-0.8-1.1-1.1-1.6
	c-0.2-0.6-0.4-1.1-0.6-1.6c-0.3-1.1-0.7-2.2-0.9-3.3c-1.1-4.4-1.5-8.9-1.2-13.4l0.1-0.8h0.8c13,0.6,26.1,1.4,39.1,2.8
	c3.2,0.4,6.5,0.8,9.7,1.2c3.2,0.5,6.5,1,9.7,1.5s6.4,1.1,9.6,1.7C348.9,203,352.1,203.7,355.3,204.3L355.3,204.3z M103.4,47.5
	c0.2-1.1,0.8-2.1,1.6-2.9s1.7-1.5,2.6-2.1c1.9-1.2,3.9-2.2,5.9-3.1c4-1.8,8.1-3.6,12.3-5.2c2.1-0.8,4.2-1.5,6.4-2.1
	c1.1-0.3,2.2-0.6,3.2-0.8c1.1-0.2,2.2-0.5,3.3-0.6c1.1-0.2,2.2-0.4,3.3-0.5l3.3-0.3c2.2-0.1,4.5-0.1,6.7,0s4.5,0.3,6.7,0.6
	s4.4,0.7,6.6,1.3c4.4,1.1,8.6,2.6,12.6,4.7c2,1.1,3.9,2.2,5.7,3.6c0.9,0.7,1.8,1.4,2.6,2.2l2.4,2.4c3.1,3.3,5.5,7.2,7.8,11l-1.1-0.4
	c4.9-1.9,9.9-3.2,15-4.1s10.2-1.5,15.4-1.8c5.2-0.2,10.4-0.1,15.5,0.5c5.2,0.6,10.3,1.6,15.2,3.3l-1.2,0.6c1.4-4.6,4.6-8.4,8.2-11.2
	c1.8-1.4,3.8-2.7,5.9-3.7s4.2-1.9,6.4-2.6c4.4-1.3,8.9-2,13.5-2.5c2.3-0.2,4.5-0.4,6.8-0.5s4.6-0.1,6.9,0c4.6,0.2,9.1,1.1,13.5,2.3
	c2.2,0.6,4.4,1.2,6.5,1.9c2.1,0.7,4.3,1.5,6.4,2.4c4.2,1.8,8.2,4,12,6.5s7.3,5.4,10.6,8.5c-3.4-2.9-7-5.7-10.8-8.1s-7.8-4.5-12-6.1
	c-2.1-0.8-4.2-1.5-6.4-2.2c-2.2-0.6-4.3-1.3-6.5-1.8c-4.4-1.1-8.8-1.9-13.3-2.1s-8.9,0.2-13.4,0.7s-8.9,1.3-13.1,2.6
	c-2.1,0.6-4.2,1.5-6.1,2.5c-2,1-3.8,2.2-5.6,3.5c-1.7,1.4-3.3,2.9-4.6,4.7c-1.3,1.7-2.3,3.7-3,5.7l-0.3,0.9l-0.9-0.3
	c-4.8-1.6-9.8-2.6-14.8-3.1c-5-0.6-10.1-0.6-15.2-0.4s-10.1,0.7-15.1,1.7c-5,0.9-9.9,2.2-14.7,4l-0.7,0.3l-0.4-0.7
	c-2.2-3.8-4.5-7.5-7.5-10.7c-0.7-0.8-1.5-1.6-2.3-2.3c-0.8-0.7-1.6-1.4-2.5-2.1c-1.7-1.3-3.6-2.5-5.5-3.5c-3.8-2.1-7.9-3.6-12.2-4.7
	c-2.1-0.6-4.3-1-6.4-1.3c-2.2-0.4-4.4-0.5-6.5-0.7c-2.2-0.1-4.4-0.2-6.6-0.1c-1.1,0-2.2,0.1-3.3,0.2c-1.1,0.1-2.2,0.2-3.3,0.4
	c-1.1,0.1-2.2,0.4-3.2,0.6c-1.1,0.3-2.2,0.4-3.2,0.7c-2.1,0.5-4.2,1.2-6.3,1.9c-4.2,1.4-8.3,3.1-12.3,4.8c-2,0.9-4,1.8-5.9,2.9
	c-0.9,0.6-1.9,1.2-2.7,2C104.3,45.4,103.7,46.4,103.4,47.5L103.4,47.5z"/>
<path class="st4" d="M216,109.4c6.7,0.7,13.6,1.1,20.5,1.3c2.4-15.1,3.8-30.3,4-45.4c-15.3,0.9-16.2,0.8-23.3,0.4
	C217.6,68.4,216.4,109.4,216,109.4z M302.2,77.1c0.4-0.2,0.9-0.5,1.5-0.5c0.7,0,1.3,0.2,1.9,0.4c5.6,2.5,11.1,5,16.7,7.5
	c-10.7,6.2-39,16.8-39.9,16.7c-0.8,0-7-2.8-10.4-7.1C279.3,90.1,294.9,81.2,302.2,77.1L302.2,77.1z M155.9,77
	c8.5,8.1,29.6,12.7,34.9,21.3c-6.6,1.6-12.8,3.6-18.3,6c0.2-0.1-34.5-14.5-36-15.6C145.9,82.8,149.3,80.5,155.9,77L155.9,77z"/>
<path class="st4" d="M202.6,127.3c5.3,5.5,13.7,10.4,24.3,14.1c6.4-5.2,13.7-8.7,20.1-14.2c38.7,0.9,68.9,1.3,107.7,1.4
	c-3.8-7.9-10.2-14.9-21.4-21.2c-7.7,0.7-10.6,0.6-18.3-0.2c3.8,3.6,9.2,6.9,15.8,9.7c-70.2,0.2-127.8,0-198-0.9
	c5-4.5,7.1-6.5,10.1-10.6c-6.8,0.2-13.6,0.3-20.4,0.5c-9.3,10.6-11,12.1-17.5,19.6c4,1.5,9.6,1.6,14.8,1.6c14.9,0,18.7,0,33.6,0.1
	h3.1C163.2,127.1,195,125.5,202.6,127.3L202.6,127.3z"/>
<path d="M254.2,151.8c0,0,0.4,0.4,1.2,1.3c0.8,0.8,1.9,2,3.4,3.4c1.5,1.5,3.4,3,5.8,4.8c1.2,0.9,2.4,1.9,3.6,3
	c0.6,0.5,1.2,1.1,1.9,1.7c0.6,0.6,1.3,1.2,2,1.7c2.7,2.3,5.9,4.5,9.4,6.6s7.4,3.9,11.5,5.5s8.5,3,13.1,4c1.1,0.3,2.3,0.5,3.4,0.7
	c1.2,0.2,2.3,0.4,3.5,0.6c2.3,0.3,4.7,0.6,7,0.7c4.7,0.3,9.4,0.3,14-0.3c2.3-0.3,4.5-0.8,6.7-1.4c2.2-0.7,4.1-1.6,5.9-2.8
	c1.8-1.2,3.2-2.7,4.1-4.5s0.9-3.8,0.4-5.7c-1-3.8-3.4-6.9-5.3-10c-1.9-3-3.8-5.6-6-7.5s-4.3-3.3-6.1-4.4c-1.8-1.1-3.2-2-4.1-2.5
	l-1.5-0.9c0,0,0.5,0.3,1.5,0.8s2.5,1.3,4.3,2.3s4,2.3,6.3,4.2c1.1,0.9,2.3,2,3.4,3.3s2.1,2.7,3.1,4.2s2.1,3,3.1,4.6
	c1,1.7,2.1,3.5,2.6,5.6c0.6,2.1,0.6,4.5-0.4,6.7c-0.9,2.2-2.7,3.9-4.6,5.3c-3.9,2.7-8.6,4-13.3,4.7c-4.7,0.7-9.6,0.7-14.4,0.4
	c-2.4-0.2-4.8-0.5-7.2-0.8c-1.2-0.2-2.4-0.4-3.5-0.6c-1.2-0.2-2.3-0.5-3.5-0.7c-4.6-1.1-9.1-2.5-13.3-4.2c-8.4-3.4-15.6-8.1-21-12.9
	c-0.7-0.6-1.3-1.2-1.9-1.8l-1.8-1.8c-1.2-1.1-2.3-2.2-3.4-3.1c-2.2-1.9-4.2-3.6-5.6-5.1c-1.5-1.5-2.5-2.8-3.2-3.7
	C254.6,152.3,254.2,151.8,254.2,151.8L254.2,151.8z M142.8,308.6c0,0,0.7,0.1,2,0.3s3.3,0.5,5.8,0.7c2.5,0.3,5.5,0.5,9,0.7
	s7.4,0.3,11.7,0.4c8.6,0.2,18.6,0.2,29.3,0.2s22.2,0,33.6-0.2c11.4-0.1,22.9-0.3,33.6-0.6c5.4-0.2,10.5-0.3,15.5-0.4
	c4.9-0.2,9.6-0.3,13.8-0.5c4.3-0.2,8.2-0.3,11.7-0.6c3.5-0.2,6.5-0.5,9-0.8s4.4-0.6,5.7-0.9c1.3-0.3,2-0.4,2-0.4s-0.7,0.2-2,0.5
	s-3.2,0.8-5.7,1.2c-4.9,0.8-12.1,1.6-20.7,2.1s-18.6,1.1-29.3,1.5c-10.7,0.4-22.2,0.7-33.6,0.9c-11.5,0.1-22.9,0.1-33.6-0.1
	c-5.4-0.1-10.6-0.2-15.5-0.3c-4.9-0.2-9.6-0.3-13.9-0.5c-8.6-0.4-15.7-1.1-20.7-1.9c-2.5-0.4-4.4-0.7-5.7-1
	C143.5,308.7,142.8,308.6,142.8,308.6L142.8,308.6z M182.9,372.2c0,0-0.1-0.4-0.4-1c-0.3-0.7-0.6-1.6-1.1-2.9
	c-0.8-2.5-2-6.1-2.9-10.6c-0.5-2.2-0.9-4.7-1.2-7.3c-0.2-1.3-0.3-2.7,0-4.2c0.2-1.5,0.8-3,1.8-4.2s2.3-2.2,3.7-2.8
	c0.7-0.3,1.4-0.6,2.2-0.8l0.6-0.2h0.3l0.3-0.1c0.4-0.1,0.7-0.2,1.1-0.2c3.1-0.6,6.2-0.5,9.3-0.2c3.1,0.4,6.1,1.2,8.9,2.6
	c2.8,1.4,5.2,3.7,6.5,6.5c0.6,1.4,1,2.8,1.3,4.2c0.2,1.3,0.4,2.8,0.4,4.1c0.1,2.7-0.4,5.2-1.1,7.4s-1.6,4.2-2.5,5.8s-1.8,3-2.6,4
	c-0.8,1.1-1.5,1.8-2,2.4c-0.5,0.5-0.7,0.8-0.7,0.8l0.6-0.9c0.4-0.6,1-1.4,1.7-2.5s1.5-2.5,2.3-4.1c0.8-1.7,1.5-3.6,2-5.7
	c0.5-2.2,0.8-4.6,0.7-7.1c0-0.6-0.1-1.3-0.2-1.9c-0.1-0.6-0.2-1.3-0.3-2c-0.3-1.3-0.6-2.6-1.2-3.7c-1.2-2.4-3.3-4.3-5.8-5.5
	c-2.5-1.3-5.4-2-8.3-2.4s-5.9-0.4-8.7,0.1c-2.8,0.5-5.5,1.5-7.2,3.4c-0.8,0.9-1.3,2.1-1.6,3.3c-0.3,1.2-0.2,2.5-0.1,3.8
	c0.2,2.6,0.5,5,0.8,7.2c0.7,4.5,1.5,8.1,2.2,10.7C182.4,370.7,182.9,372.2,182.9,372.2L182.9,372.2z M258.6,375.6
	c0,0-0.2-0.4-0.6-1.1c-0.4-0.7-0.9-1.8-1.5-3.1c-1.2-2.8-2.8-6.8-3.6-12c-0.4-2.6-0.7-5.4-0.6-8.4c0-1.5,0.1-3,0.3-4.6l0.3-2.4
	c0.1-0.8,0.3-1.8,0.9-2.6c0.6-0.9,1.5-1.4,2.2-1.8c0.8-0.4,1.6-0.7,2.4-1c1.6-0.6,3.2-1.1,4.9-1.5c3.3-0.9,6.8-1.5,10.3-1.6
	c1.8,0,3.6,0.1,5.3,0.5c1.8,0.4,3.5,1,5,2.1c1.5,1,2.8,2.5,3.6,4l0.3,0.5l0.3,0.6c0.2,0.4,0.4,0.8,0.5,1.2c0.3,0.8,0.5,1.6,0.7,2.5
	c0.7,3.4,0.1,6.7-0.6,9.5c-0.7,2.9-1.8,5.5-2.6,8c-1.7,4.9-3.2,8.9-4.2,11.7s-1.6,4.4-1.6,4.4s0.5-1.7,1.3-4.6c0.9-2.9,2-7,3.5-12
	c0.7-2.5,1.6-5.1,2.2-8c0.6-2.8,1-5.9,0.4-8.8c-0.2-0.7-0.4-1.5-0.7-2.2c-0.1-0.4-0.3-0.7-0.5-1l-0.2-0.5l-0.3-0.5
	c-0.8-1.4-1.8-2.5-3.1-3.4c-2.6-1.7-6-2.2-9.3-2.2s-6.7,0.6-9.9,1.5c-1.6,0.4-3.2,0.9-4.7,1.4s-3.1,1.1-3.8,2
	c-0.4,0.5-0.5,1.1-0.6,1.9c-0.1,0.8-0.3,1.5-0.4,2.3c-0.2,1.5-0.4,3-0.4,4.4c-0.1,2.9,0,5.7,0.3,8.2s0.8,4.8,1.3,6.8
	s1.1,3.7,1.6,5.2c0.5,1.4,0.9,2.5,1.3,3.2C258.4,375.2,258.6,375.6,258.6,375.6L258.6,375.6z M334.1,363.3c0,0-0.1-0.2-0.4-0.6
	c-0.3-0.4-0.7-1-1.1-1.8c-0.5-0.8-1-1.8-1.6-2.9c-0.6-1.1-1.2-2.4-1.8-3.9c-1.2-2.9-2.3-6.4-3.1-10.3c-0.2-1-0.4-2-0.5-3
	s-0.3-2-0.2-3.2c0.1-1.2,0.5-2.4,1.4-3.4c0.8-0.9,1.9-1.5,2.9-1.9c2.1-0.9,4.3-1.2,6.5-1c0.5,0,1.1,0.1,1.6,0.2s1.1,0.2,1.6,0.4
	c1,0.3,2,0.8,2.9,1.5c1.8,1.3,2.8,3.3,3.1,5.2c0.2,1.9,0.3,3.5,0.3,5.1s-0.1,3-0.4,4.3s-0.6,2.3-1,3.2c-0.4,0.8-0.8,1.5-1,1.9
	c-0.3,0.4-0.4,0.6-0.4,0.6s0.1-0.2,0.3-0.7c0.2-0.4,0.5-1.1,0.8-1.9c0.3-0.9,0.5-1.9,0.6-3.1c0.1-1.2,0.1-2.6,0-4.1l-0.3-2.4
	c-0.1-0.4-0.1-0.8-0.2-1.3c-0.1-0.4-0.1-0.9-0.2-1.2c-0.4-1.6-1.3-3.1-2.7-4.1c-1.4-1-3.2-1.4-5.1-1.5s-3.9,0.2-5.6,1
	c-0.9,0.4-1.7,0.8-2.3,1.5c-0.5,0.6-0.9,1.3-0.9,2.2c-0.1,0.8,0,1.8,0.1,2.8s0.2,1.9,0.4,2.9c0.6,3.8,1.5,7.3,2.4,10.2
	s1.9,5.3,2.6,7c0.4,0.8,0.7,1.5,0.8,1.9C334,363.1,334.1,363.3,334.1,363.3L334.1,363.3z M135.3,363.3c0,0,0.1-0.2,0.3-0.7
	c0.2-0.4,0.5-1.1,0.8-1.9c0.7-1.7,1.7-4.1,2.6-7c1-2.9,1.9-6.4,2.4-10.2c0.2-0.9,0.3-1.9,0.4-2.9s0.2-2,0.1-2.8s-0.4-1.6-0.9-2.2
	c-0.6-0.6-1.4-1.1-2.3-1.5c-1.7-0.7-3.7-1.1-5.6-1s-3.7,0.5-5.1,1.5c-1.4,1-2.3,2.5-2.7,4.1c-0.1,0.4-0.1,0.8-0.2,1.2
	c-0.1,0.4-0.1,0.8-0.2,1.3l-0.3,2.4c-0.1,1.5-0.1,2.9,0,4.1c0.1,1.2,0.4,2.3,0.6,3.1c0.3,0.8,0.6,1.5,0.8,1.9s0.3,0.7,0.3,0.7
	s-0.1-0.2-0.4-0.6c-0.3-0.4-0.7-1-1-1.9c-0.4-0.8-0.7-1.9-1-3.2s-0.4-2.7-0.4-4.3s0.1-3.2,0.3-5.1c0.3-1.9,1.4-3.9,3.1-5.2
	c0.9-0.7,1.9-1.2,2.9-1.5c0.5-0.2,1-0.3,1.6-0.4c0.6-0.1,1.1-0.2,1.6-0.2c2.2-0.1,4.4,0.2,6.5,1c1,0.5,2.1,1.1,2.9,1.9
	c0.9,1,1.4,2.2,1.4,3.4c0.1,1.2-0.1,2.2-0.2,3.2s-0.3,2-0.5,3c-0.8,3.9-1.9,7.4-3.1,10.3c-0.6,1.5-1.2,2.7-1.8,3.9
	c-0.6,1.1-1.1,2.1-1.6,2.9c-0.4,0.8-0.8,1.4-1.1,1.8C135.4,363.1,135.3,363.3,135.3,363.3L135.3,363.3z"/>
<path class="st4" d="M259.2,252c13-0.4,22.2-0.7,35.3-1.1c1.4,0,2.9-0.1,3.7-0.6c0.6-0.3,0.7-0.8,0.7-1.2c0.2-1.6,0.4-3.2,0.7-4.7
	c-35.4,0.6-67,1.2-102.4,1.8c-7.8,0.1-24.3-2.3-31.6-0.2c-0.1,3-0.4,5.2,1.1,6.6c22.8,1,31.3,0.9,54.2,0.5
	C233.7,252.7,246.5,252.3,259.2,252L259.2,252z M182.6,265.3c5.2-0.1,20-0.5,28.7-0.5c29,0.1,57.8-1.4,86.6-2.8
	c0.3-2.1,0.5-4.2,0.8-6.3c-14.9,1-29.9,1.6-45,2c-21.7,0.6-43.4,0.6-65.2,0.3c-10.8-0.1-11.7-1.7-22.5-1.8c-0.2,3.8-0.6,4.8-0.5,8.4
	C171.2,265.1,176.8,265.4,182.6,265.3L182.6,265.3z"/>
<path d="M104.8,18.2c0,0-0.2,0.7-0.5,2.2c-0.3,1.4-0.8,3.6-1.3,6.4c-1.1,5.6-2.4,13.8-3.2,24.4c-0.4,5.3-0.6,11.2-0.5,17.5
	c0.2,6.4,0.3,13.3,0.5,20.7c0.4,14.8,0.8,31.5,1.2,49.7s0.9,37.9,1.4,58.8c0.1,5.2,0.2,10.5,0.4,15.9c0.1,5.3,0.3,10.7,0.8,16.1
	c0.9,10.8,2.7,21.9,6,32.6c0.8,2.7,1.7,5.4,2.7,8c1.1,2.5,2.4,5.1,3.8,7.5c1.4,2.5,3,4.9,4.6,7.2l1.3,1.7c0.5,0.5,0.9,1.1,1.4,1.6
	c0.9,1,2,1.9,3,2.5c0.4,0.2,1.2,0.4,1.9,0.6l2.1,0.6c1.4,0.4,2.8,0.7,4.2,1.1c2.8,0.7,5.7,1.3,8.6,1.9c5.8,1.2,11.6,2.1,17.5,2.9
	c5.9,0.7,11.8,1.3,17.8,1.6c3,0.2,6,0.3,9,0.4c3,0,6,0.1,9.1,0.1c12.1-0.1,24.2-0.1,36.3-0.2c12.1,0,24.3-0.1,36.4-0.1
	c12.1-0.1,24.1-0.3,35.9-1.3c5.9-0.5,11.8-1.3,17.5-2.5c2.9-0.6,5.7-1.3,8.5-2.1c1.4-0.4,2.8-0.9,4.1-1.3c0.7-0.2,1.4-0.5,2-0.8
	l1-0.4l0.9-0.5c2.4-1.3,4.5-3.1,6.2-5.2c0.8-1.1,1.6-2.3,2.2-3.5c0.3-0.6,0.7-1.3,0.9-1.9l0.9-2c2.3-5.2,4-10.6,5.2-16.1
	s1.9-11,2.3-16.6c0.1-1.4,0.2-2.8,0.2-4.1l0.1-2.1v-2c0-1.4-0.1-2.8-0.1-4.2v-2.1l0.1-2.1c0.4-10.9,0.9-21.6,1.3-32.1
	c0.6-20.8,0.7-40.6,1.3-58.8c0.2-4.6,0.3-9,0.7-13.4c0.3-4.3,0.4-8.6,0.5-12.7c0.1-8.3,0-16.1-0.2-23.5c-0.5-14.8-1.7-27.6-3.3-38.1
	c-1.6-10.5-3.7-18.6-5.9-23.8c-0.5-1.3-1.1-2.4-1.5-3.4c-0.5-0.9-1-1.7-1.4-2.4c-0.8-1.2-1.3-1.8-1.3-1.8s0.4,0.6,1.3,1.8
	c0.4,0.6,0.9,1.4,1.4,2.3c0.5,1,1.1,2.1,1.6,3.4c2.3,5.2,4.6,13.3,6.3,23.8c1.8,10.5,3.1,23.4,3.8,38.1c0.4,7.4,0.6,15.3,0.5,23.6
	c0,4.2-0.1,8.4-0.4,12.8c-0.3,4.3-0.5,8.8-0.6,13.3c-0.5,18.2-0.4,37.9-0.8,58.8c-0.3,10.4-0.7,21.1-1,32.1l-0.1,2.1v2
	c0,1.4,0.1,2.7,0.1,4.1v2.1l-0.1,2.1c0,1.4-0.1,2.8-0.2,4.2c-0.4,5.6-1.1,11.3-2.3,16.9c-1.2,5.6-3,11.2-5.3,16.6
	c-1.2,2.6-2.5,5.4-4.3,7.8c-1.9,2.5-4.3,4.5-7.1,6l-1.1,0.5l-1,0.4c-0.8,0.3-1.4,0.6-2.1,0.8c-1.4,0.5-2.8,1-4.3,1.4
	c-2.9,0.9-5.8,1.6-8.7,2.2c-5.9,1.2-11.8,2-17.8,2.6c-12,1.1-24,1.3-36.2,1.4c-12.1,0.1-24.2,0.1-36.4,0.2
	c-24.2-0.2-48.7,1.2-72.5-2.2c-6-0.8-11.9-1.7-17.7-2.9c-2.9-0.6-5.8-1.3-8.7-2c-1.4-0.3-2.9-0.7-4.3-1.1l-2.1-0.6
	c-0.7-0.2-1.3-0.3-2.3-0.8c-0.5-0.2-0.8-0.4-1.1-0.7l-0.5-0.4l-0.4-0.4c-0.6-0.5-1.2-1.1-1.7-1.6c-0.5-0.6-1-1.1-1.5-1.7
	c-0.5-0.6-0.9-1.2-1.4-1.8c-1.8-2.4-3.3-4.9-4.8-7.4c-1.5-2.6-2.8-5.1-4-7.9c-1.1-2.7-1.9-5.5-2.8-8.2c-3.3-11-5.1-22.2-5.9-33.2
	c-0.4-5.5-0.6-10.9-0.6-16.3c-0.1-5.3-0.2-10.6-0.2-15.8c-0.3-20.9-0.6-40.6-0.9-58.8c-0.2-18.2-0.5-34.9-0.7-49.7
	c-0.1-7.4-0.2-14.3-0.2-20.7c0-6.4,0.3-12.3,0.8-17.6c0.9-10.6,2.5-18.8,3.6-24.4c0.6-2.8,1.1-4.9,1.4-6.3
	C104.6,19,104.8,18.2,104.8,18.2L104.8,18.2z"/>
<path d="M102.5,28.7c0,0,1-0.1,2.8-0.3c1.8-0.2,4.5-0.5,7.9-0.8c6.8-0.6,16.6-1,28.3-1.3c23.4-0.7,54.6-1.7,85.8-2.7
	c7.8-0.3,15.6-0.4,23.3-0.5c7.7-0.1,15.3-0.2,22.6-0.1c7.3,0.1,14.4,0.3,21.1,0.7c6.7,0.4,13,0.8,18.9,1.2
	c5.8,0.4,11.2,0.8,15.9,1.1c4.7,0.3,8.9,0.6,12.3,0.9c6.8,0.5,10.7,0.9,10.7,0.9v0.3c0,0-3.9,0-10.7-0.2c-3.4,0-7.6-0.1-12.3-0.3
	c-4.8-0.1-10.1-0.3-16-0.4c-5.9-0.2-12.2-0.4-18.9-0.7c-6.7-0.2-13.7-0.4-21-0.4c-7.3-0.1-14.9-0.2-22.5-0.2c-7.7,0-15.5,0-23.3,0.1
	c-31.2,0.5-62.4,1-85.9,1.4c-11.7,0.1-21.5,0.4-28.3,0.8c-3.4,0.2-6.1,0.4-7.9,0.6c-1.8,0.2-2.8,0.3-2.8,0.3V28.7z"/>
</svg>
