<svg id="Layer_1" xmlns="http://www.w3.org/2000/svg" viewBox="0 0 460 402.4"><style>.st0{fill:none;stroke:#000;stroke-width:5;stroke-miterlimit:10}.st1{opacity:.9;fill:url(#SVGID_1_);enable-background:new}.st2{fill:url(#SVGID_2_)}.st3,.st4{fill:none}.st4{stroke:#000;stroke-width:2;stroke-miterlimit:10}</style><path class="st0" d="M6588.6-868.2c.3 38.5.2 82.4-5.7 120.5-2.3 14.7-3.7 31.7-10.6 44.9-9.4 17.9-18.6 35.9-34 49.5-5.5 4.9-11.5 9.2-17.9 12.8-4.2 2.3-15.3 5.1-15.9 10.8-.4 3.6 3.8 5.7 6.9 7.6 6.9 4.3 10.9 12.3 11.6 20.4 1.5 15.4-5.6 30.7-18.9 38.8-.8.5-1.6 1-1.9 1.8-.7 2.1 2.1 3.4 4.2 3.8 12.1 2.1 24 5 35.7 8.7 7.7 2.4 24.3 10.6 12 18.5-7.7 4.9-17 6.2-26 7.3-24.7 3.1-49.7 6.2-74.5 3.9-5.6-.5-11.2-1.4-16.8-2.2l-22.5-3.3c-5.3-.8-11.8-2.7-12.7-7.9-1.7-10.2 16.6-15.1 23.6-17.2 4.9-1.5 36.5-4.6 35.6-9.3-.5-2.4-2.8-3.9-4.8-5.4-8.9-6.4-15-16.4-16.6-27.2-1.6-10.8 1.3-22.2 7.9-30.9 2.2-2.9 4.9-6 4.4-9.6-.2-1.5-1-2.9-2-4.1-5.1-6.7-15.9-9.5-22.8-14.7-7.9-6-15.2-12.8-21.6-20.4-12.5-14.5-22.1-31.5-27.6-49.9-5.2-17.2-6.9-35.3-8.2-53.2-2.3-31-3.6-62-3.8-93.1 20.2-2.4 42-1.8 62.4-1.4 52.8 1.1 160.5-1.6 160.5.5z"/><path d="M6462-553.3v1.9c0 .6.1 1.3.6 1.9.4.6 1.2.8 2.2.8 2.1-.1 4.5-.2 7.1-.2 1.3 0 2.7-.1 4-.1 1.4-.1 2.8-.1 4.1-.2 1.4-.1 2.8-.1 4.1-.2 1.4-.1 2.7-.1 4-.2 2.6-.1 5-.2 7.1-.3 2-.1 3.7-.6 4.6-1.3.4-.4.7-.8.8-1.1.1-.3.2-.5.2-.5v.5c-.1.3-.2.8-.6 1.3s-1.1 1-1.9 1.4c-.8.4-1.8.7-2.8.8-2.1.4-4.5.7-7.1.9-1.3.1-2.7.3-4 .4-1.4.1-2.8.2-4.2.2-1.4 0-2.8.1-4.2.1h-4.1c-2.6-.1-5.1-.2-7.2-.4-.5-.1-1.1-.1-1.6-.4s-.9-.7-1.1-1.1c-.4-.9-.4-1.7-.3-2.3.1-.6.2-1.1.3-1.4-.1-.3 0-.5 0-.5zm-.4-84.6s.6.2 1.6.5c.5.2 1.2.3 1.9.5s1.6.4 2.4.5c.9.2 1.9.3 2.9.5 1 .1 2.1.2 3.3.3 1.1.1 2.3.1 3.5.2h3.6c1.2 0 2.5 0 3.7-.1 1.2 0 2.4-.1 3.6-.1 2.3-.1 4.5-.1 6.3-.3 1.8-.2 3.2-.6 4.1-1.2.4-.3.8-.6 1-.8l.3-.3s-.1.1-.2.4c-.2.3-.4.6-.8 1-.8.8-2.3 1.6-4.2 2-.9.2-2 .4-3 .5-1.1.1-2.2.3-3.3.4l-3.6.3c-1.2.1-2.5.1-3.7.2-1.3 0-2.5 0-3.7-.1-.6 0-1.2-.1-1.8-.1-.6-.1-1.2-.1-1.8-.2-1.2-.1-2.3-.4-3.4-.6-.5-.1-1-.3-1.5-.4-.5-.2-1-.3-1.4-.4-1.8-.6-3.2-1.3-4.2-1.8-1-.6-1.6-.9-1.6-.9zm-50.1 102.1l.3.3c.2.2.5.4 1 .6.9.5 2.3 1 4.2 1.4 1.9.4 4.2.7 6.8 1.1 2.6.4 5.6.7 8.9 1.1 3.3.3 6.8.7 10.6 1 3.7.3 7.7.5 11.8.7 8.2.3 17 .5 25.7.6 4.4.1 8.8.1 13.1.2 4.3 0 8.5.1 12.6 0s8-.4 11.7-.8c3.7-.5 7.2-1.1 10.4-1.7 6.4-1.4 11.6-3 15.2-4.3 1.8-.7 3.2-1.2 4.2-1.6l1.5-.6s-.5.2-1.4.7c-.9.4-2.3 1.1-4.1 1.8-3.5 1.5-8.7 3.5-15.1 5.1-6.4 1.6-14.1 2.9-22.3 3.2-4.1.2-8.4.2-12.7.2-4.3 0-8.7-.1-13.1-.1-4.4-.1-8.8-.2-13.1-.3-4.3-.1-8.6-.4-12.7-.6-4.1-.3-8.1-.6-11.8-1-3.8-.4-7.3-.8-10.6-1.3-1.6-.3-3.2-.5-4.7-.7-1.5-.3-2.9-.5-4.2-.8-2.6-.5-4.9-1-6.8-1.5s-3.3-1.1-4.1-1.7c-.4-.3-.7-.5-.9-.7-.3-.2-.4-.3-.4-.3z"/><linearGradient id="SVGID_1_" gradientUnits="userSpaceOnUse" x1="6378.8" y1="-1253.382" x2="6584.7" y2="-1253.382" gradientTransform="translate(0 507)"><stop offset=".018" stop-color="#801fe3"/><stop offset="1" stop-color="#b7a7ff"/></linearGradient><path class="st1" d="M6378.8-840c1.4 24.4 2.7 48.8 4.1 73.2.4 7.9.9 15.9 2.2 23.7 1.8 11.1 5.4 21.8 8.9 32.5 3 9.1 6 18.2 11.1 26.3 17.8 28.1 51.5 32.7 81.9 31.3 10.6-.5 21.3-1.5 31.5-4.7 66.9-21.3 65.2-117 66.1-172.7 0-2.6.1-5.1.1-7.7-68.7 2.2-137.5 4-205.9-1.9z"/><path d="M6373.7-859.7s.6 8.1 1.5 22.2c.5 7.1 1 15.6 1.7 25.5.6 9.8 1.4 20.9 2.1 33.1.4 6.1.7 12.4 1.3 18.9.5 6.5 1.4 13.2 3 19.9 1.6 6.7 3.7 13.5 6 20.4 2.4 6.9 4.5 14 7.5 20.9.8 1.7 1.5 3.4 2.4 5.1.9 1.6 1.8 3.3 2.8 4.8 1.1 1.6 2.2 3.1 3.4 4.7 1.2 1.4 2.5 2.8 3.7 4.3 5.3 5.5 11.7 10 18.8 13.2 7.1 3.3 14.8 5.4 22.6 6.6 7.9 1.3 15.9 1.7 23.9 1.7 8-.1 16.1-.4 24-1.5 3.9-.5 7.9-1.2 11.7-2.2 1-.3 1.9-.5 2.8-.8l.7-.2h.1l.2-.1.4-.1 1.4-.5 2.8-1c.5-.2.9-.3 1.4-.5l1.3-.6c7.1-3.1 13.7-7.4 19.4-12.5 5.7-5.1 10.5-11.1 14.4-17.5 4-6.3 7.1-13.1 9.7-19.8 2.6-6.8 4.6-13.6 6.3-20.3 3.2-13.5 5-26.5 6.2-38.5 1.1-12.1 1.7-23.2 2-33 .3-9.9.5-18.4.7-25.5.2-14.2.4-22.2.4-22.2s0 2 .1 5.8c0 3.8.1 9.4.2 16.4 0 7.1 0 15.7-.2 25.5-.1 9.9-.5 21-1.5 33.1-1 12.1-2.6 25.2-5.7 38.9-1.6 6.8-3.6 13.7-6.1 20.6-2.5 6.9-5.7 13.8-9.8 20.3-4 6.5-9 12.7-14.8 18.1-5.9 5.4-12.7 9.8-20.2 13.1l-1.4.6c-.5.2-.9.4-1.4.5l-2.8 1-1.4.5-.4.1-.2.1-.2.1-.7.2c-1 .3-2 .6-2.9.8-3.9 1-8 1.8-12 2.4-8.1 1.1-16.2 1.5-24.4 1.6-8.2 0-16.3-.5-24.4-1.8-8-1.3-16-3.5-23.3-7-7.4-3.4-14.1-8.1-19.6-13.9-1.3-1.5-2.6-3.1-3.9-4.6-1.1-1.6-2.2-3.2-3.3-4.7-2.2-3.4-3.9-6.8-5.4-10.4-3-7.1-5.2-14.2-7.5-21.2-2.2-7-4.3-13.9-5.8-20.7-1.6-6.9-2.4-13.6-2.8-20.2-.5-6.6-.7-12.9-1-18.9-.6-12.1-1.1-23.2-1.6-33.1-.5-9.9-.8-18.4-1.2-25.5-.7-14.2-1-22.2-1-22.2z"/><path d="M6374.1-844.3s.8 0 2.4.1 3.8.2 6.7.3c2.9.2 6.4.3 10.5.5 4 .2 8.6.3 13.6.5s10.4.3 16.1.5 11.7.2 17.9.4c6.2.1 12.6.1 19.2.2 6.5.1 13.2 0 19.8.1 6.6 0 13.3 0 19.8-.1s13-.1 19.2-.2c12.5-.1 24.1-.2 34-.3 10-.1 18.3-.1 24.1-.1h9.1s-.8.1-2.4.2c-1.6.1-3.8.2-6.7.4-5.8.3-14.1.8-24.1 1.3s-21.6.9-34 1.3c-6.2.1-12.7.4-19.2.4-6.5.1-13.2.1-19.8.2-6.6 0-13.3 0-19.8-.2-6.5-.1-13-.3-19.2-.4-6.2-.2-12.3-.4-18-.8-2.9-.2-5.6-.3-8.3-.5-2.7-.2-5.3-.4-7.8-.5-2.5-.2-4.9-.3-7.1-.5-2.3-.2-4.4-.4-6.4-.6-4-.4-7.6-.7-10.4-1-2.9-.3-5.2-.6-6.7-.7-1.7-.4-2.5-.5-2.5-.5z"/><linearGradient id="SVGID_2_" gradientUnits="userSpaceOnUse" x1="226.191" y1="-202.396" x2="226.191" y2="-479.622" gradientTransform="translate(0 507)"><stop offset="0" stop-color="#c50b00"/><stop offset=".997" stop-color="#ffdb94"/></linearGradient><path class="st2" d="M313.6 29.1c-8.3-.5-16.6-.9-25-1.2-19.9-.7-40-.6-60-.3-32.8.5-65.6 1.4-98.4 2.3-10.6.3-21.3.6-31.7 1.7-2.9 15.2-4.1 30.6-3.6 45.9.7 19.4 2.3 111.3 2.6 138 .2 19.5 2 38.3 9.1 57.5 2.1 5.6 10.8 20.9 15.8 22.4 18.1 5.3 39.2 8.4 60.7 9 3.4.1 6.9.1 10.3.1 25.4.2 50.7.1 76.1-.4 11.3-.2 22.6-.4 33.6-1.5s21.8-3.1 30.3-6.5c7.1-2.8 10-7.8 12-12 6.4-13.3 8.5-27.7 8.9-41.3.1-2.4-.2-6-.1-8.5.4-11.3.8-22.6 1.2-34 .5-14.5.5-57.6 1.7-72.1 1.1-12.9 1.2-70.8-9-97.3-11.4-.5-22.9-1.1-34.5-1.8z"/><path class="st3" d="M317.6 26.1c-8.3-.5-16.6-.9-25-1.2-19.9-.7-40-.6-60-.3-32.8.5-65.6 1.4-98.4 2.3-10.6.3-21.3.6-31.7 1.7-2.9 15.2-4.1 30.6-3.6 45.9.7 19.4 2.3 111.3 2.6 138 .2 19.5 2 38.3 9.1 57.5 2.1 5.6 10.8 20.9 15.8 22.4 18.1 5.3 39.2 8.4 60.7 9 3.4.1 6.9.1 10.3.1 25.4.2 50.7.1 76.1-.4 11.3-.2 22.6-.4 33.6-1.5s21.8-3.1 30.3-6.5c7.1-2.8 10-7.8 12-12 6.4-13.3 8.5-27.7 8.9-41.3.1-2.4-.2-6-.1-8.5.4-11.3.8-22.6 1.2-34 .5-14.5.5-57.6 1.7-72.1 1.1-12.9 1.2-70.8-9-97.3-11.4-.5-22.9-1.1-34.5-1.8z"/><path class="st0" d="M357.9 17c17.5 36.8 12.8 60.2 11.9 99.8 10.7 4.6 11.4 9.5 14.3 16 2.9 6.5.6 39.4-.4 46-1.8 11-1.8 24.5-15 25.4-1.2.1-1.3 34.1-2.8 50.9-1.1 12.3-1.7 25.4-15.4 35.9-2 1.6-2 4.6 0 6.2 8.5 6.4 14.2 13.5 16.7 20.9 1.7 5.1 1.8 10.2 2 15.4.2 5.3.3 10.5.5 15.8.2 6.6.5 13.1-.8 19.7-.9 4.5 2.6 9-3.5 12.6-15.6 9.1-40.7 14.3-66.2 16.4-25.5 2.1-51.6 1.4-77.5.7-34-.9-85.8 2-110-11.3-10.4-5.7-11.5-13.6-11.8-20.9-.3-6.7-.5-13.4-.7-20.1-.2-10.1-.4-20.4 4.4-30.4 4.8-10 16.4-14.9 7.4-24.8-9.2-10.1-11-21.1-12.8-31.9-2.7-16.8-6-33.8-8.7-50.6-13.5-14.1-15.3-24.6-15-46.5.1-7.6-1.8-34.2 7.2-40.5 2.6-1.8 5.8-3.6 7-5.6.9-1.5.7-3 .5-4.5-4.2-37-3.3-55.3 4.1-92.2.9-4.7 13.7-8 24.4-8.8C182.5 5.8 249 5.3 314.2 9.3c12.9.6 42.9 6.2 43.7 7.7z"/><path class="st4" d="M128.3 162.6c-4.4 3.5-6.8 8.1-1.2 11.2 4.4 2.4 12.4 2.9 19 1.9s11.8-3.2 16.6-5.4c5.3-2.5 10.4-5.2 12.9-8.5 4-5.3-2.2-12.9-17-11.9-11.1.7-25.2 8.8-30.3 12.7zm184.8 12.7c5.2.8 11.8.9 15.3-1.1 3-1.7 2.2-4.1 1-6.2-3.2-5.8-26.7-25.4-43.8-15.7-13.4 7.7 13.1 20.9 27.5 23z"/><path d="M123.5 147.6s-.4.4-1.1 1.2c-.7.8-1.7 1.9-2.8 3.5-1.1 1.5-2.4 3.5-3.7 5.9-1.3 2.3-2.7 5-4.5 7.8-.9 1.4-1.6 2.8-1.9 4.5-.3 1.6-.3 3.4.3 5.1s1.7 3.2 3.1 4.4c1.4 1.2 3.1 2.2 4.9 3.1 3.7 1.7 7.8 2.5 12 2.9 4.3.3 8.6-.1 12.8-.9 4.3-.8 8.5-2 12.7-3.2 2-.7 4.1-1.3 6.1-2 1-.4 2-.7 2.9-1.1 1-.4 1.9-.8 2.9-1.2 3.7-1.7 7.3-3.4 10.5-5.4 1.6-.9 3.1-2 4.6-3l2.1-1.5c.7-.5 1.3-1 2-1.6l1.8-1.5c.6-.5 1.1-1.1 1.7-1.6 1.1-1 2.1-2.1 3-3 .9-1 1.7-1.9 2.4-2.8.7-.9 1.4-1.8 1.9-2.5.5-.8 1-1.5 1.5-2.1.4-.6.7-1.2 1-1.6.6-.9.8-1.3.8-1.3s-.3.5-.8 1.4-1.2 2.2-2.3 3.9c-.5.8-1.2 1.7-1.8 2.6-.7.9-1.5 1.9-2.3 3-1.8 2-3.8 4.3-6.3 6.5-.6.6-1.3 1.1-1.9 1.7-.7.5-1.4 1.1-2.1 1.7-1.5 1-3 2.2-4.6 3.1-3.2 2.1-6.8 4-10.6 5.7-1 .4-1.9.8-2.9 1.3l-3 1.2c-2 .8-4.1 1.5-6.2 2.1-4.2 1.3-8.4 2.5-12.8 3.4-4.4.8-9 1.2-13.4.9-4.4-.4-8.7-1.4-12.6-3.2-1.9-.9-3.8-2-5.3-3.5-1.5-1.4-2.8-3.2-3.4-5.1-.6-1.9-.6-4-.2-5.8.4-1.8 1.3-3.5 2.3-4.8 1.9-2.7 3.4-5.3 4.8-7.6s2.8-4.2 4-5.7 2.3-2.6 3-3.3c1-1.2 1.4-1.6 1.4-1.6zM108.8 138.3c.7.8 1.7 1.3 2.6 1.7 1 .4 2 .7 3 1 2.1.5 4.2.7 6.3.9 4.2.4 8.5.4 12.7.4l6.4-.1H159c4.3 0 8.5-.1 12.8-.3l12.8-.4c8.5-.2 17-.3 25.6-.3h.4l.3.3c.6.6 1.2 1.2 1.9 1.7l2.1 1.5c1.4 1 2.9 1.8 4.5 2.7 1.5.8 3.1 1.6 4.7 2.2l2.4.9c.8.3 1.6.5 2.5.7l-.7.1c2.8-1.5 5.7-2.8 8.4-4.4 1.3-.8 2.6-1.6 3.8-2.6 1.2-1 2.3-2 3.3-3.2l.3-.3h.4c9.1-.4 18.2-.5 27.2-.4 4.5 0 9.1.1 13.6.2l13.6.4 13.6.4c4.5.1 9.1.3 13.6.4s9 0 13.5-.5 8.9-1.4 13.3-2.5c-2.2.6-4.4 1.2-6.6 1.7s-4.4.9-6.7 1.2c-4.5.6-9.1.9-13.6.9-4.5.1-9.1 0-13.6-.1l-13.6-.2-13.6-.1-13.6-.1c-9.1 0-18.1.1-27.1.6l.7-.3c-1.1 1.3-2.2 2.4-3.5 3.5-1.3 1-2.7 1.9-4 2.8-2.8 1.6-5.6 3.1-8.5 4.5l-.3.2-.3-.1c-.9-.2-1.8-.5-2.6-.8-.9-.3-1.7-.6-2.5-1-1.7-.7-3.3-1.5-4.9-2.3-1.6-.9-3.1-1.8-4.6-2.8-.7-.5-1.5-1-2.2-1.6s-1.4-1.2-2.1-1.9l.7.3c-8.5-.1-17 0-25.5.1-8.5.2-17 .3-25.6.2-4.3 0-8.5-.1-12.8-.2l-12.8-.2c-4.3-.1-8.5-.3-12.8-.8-2.1-.2-4.2-.6-6.3-1.1-1-.3-2-.6-3-1.1-1.2-.4-2.1-.9-2.8-1.8z"/><path d="M209.9 146.3c.1 3.7.3 7.5.4 11.2.2 3.7.4 7.5.6 11.2l1.2 22.4.5 11.2.2 5.6.1 5.6v11.2l-.1 5.6-.2 5.6-.8-1c5.5.5 11.1.9 16.6 1.1 2.8.1 5.6.2 8.3.2 2.8 0 5.6 0 8.3-.1l-.9.9c.3-7.5.6-15 .7-22.6l.6-22.6.5-22.6.6-22.6c.1 7.5.2 15.1.2 22.6.1 7.5 0 15.1 0 22.6l-.1 11.3c0 3.8-.1 7.5-.1 11.3-.1 7.5-.3 15.1-.6 22.6v.9h-.9c-5.6.2-11.2.2-16.8 0-5.6-.2-11.2-.6-16.8-1.2l-.9-.1v-.9l.3-5.6.2-5.6.1-5.6v-5.6l-.2-11.2-.3-11.2c-.2-7.5-.5-15-.7-22.4-.1-3.7-.1-7.5-.2-11.2v-5.6l.2-5.4zm-105 62c10-2.7 20-5.2 29.9-7.8l30-7.7 1-.2-.1 1c-.2 3.6-.1 7.2.5 10.8.5 3.6 1.3 7.1 2.5 10.5l.3 1-1.1.1c-1.9.2-3.8.4-5.7.7-1.9.3-3.8.5-5.6.9l-2.8.5c-.9.2-1.9.4-2.8.6-1.9.4-3.7 1-5.5 1.5-3.6 1.1-7.2 2.3-10.7 3.9-1.8.7-3.4 1.6-5.1 2.5-1.6.9-3.3 1.9-4.8 2.9-3.1 2.1-6 4.6-8.1 7.6l-.8 1.1c-.3.4-.4.8-.6 1.2l-.6 1.2c-.1.4-.4.9-.5 1.3-.5 1.7-.7 3.5-.4 5.3.5 3.6 2.4 6.9 4.8 9.7 2.5 2.8 5.5 5.1 8.7 7.1s6.6 3.6 10.1 5 7.1 2.6 10.8 3.5c7.4 1.9 14.9 3 22.6 3.5 3.8.2 7.6.2 11.4 0s7.6-.6 11.4-1.3 7.5-1.6 11-3c1.8-.7 3.5-1.4 5.2-2.4 1.7-.9 3.3-2 4.6-3.3-1.3 1.4-2.9 2.5-4.5 3.5s-3.4 1.8-5.2 2.5c-3.6 1.5-7.3 2.5-11.1 3.3-7.5 1.6-15.3 2.1-23 1.8s-15.4-1.3-22.9-3.1c-3.7-.9-7.5-2-11.1-3.4s-7.1-3.1-10.5-5.1c-3.3-2-6.5-4.4-9.1-7.4-2.6-2.9-4.7-6.5-5.3-10.6-.3-2-.1-4.1.5-6.1.1-.5.3-.9.5-1.4s.4-.9.7-1.4c.2-.4.4-.9.7-1.3l.8-1.2c2.3-3.3 5.4-5.9 8.6-8.1 1.6-1.1 3.3-2.1 5-3s3.5-1.8 5.3-2.5c3.5-1.6 7.2-2.8 10.9-3.9 1.9-.5 3.7-1.1 5.6-1.5.9-.2 1.9-.4 2.8-.6l2.8-.5c1.9-.4 3.8-.6 5.7-.9 1.9-.3 3.8-.4 5.7-.7l-.7 1.1c-1.2-3.5-2-7.1-2.5-10.8-.5-3.7-.6-7.4-.3-11.1l.9.8-30.1 7.1c-9.6 2.2-19.7 4.6-29.8 6.8zm250.4-4c-6.4-1.1-12.9-2.2-19.3-3.1-3.2-.5-6.5-.9-9.7-1.2-3.2-.4-6.5-.7-9.7-1-13-1.2-26-1.8-39-2.2l.8-.8c-.3 4.3.2 8.7 1.2 12.9.3 1.1.6 2.1.9 3.1.4 1.1.7 2 1.3 2.6.6.6 1.5 1 2.5 1.3s2.1.5 3.1.7c4.4.8 8.7 1.6 13.1 2.6 4.3 1 8.6 2.1 12.9 3.5 4.2 1.3 8.4 2.9 12.5 4.7s8.1 4 11.7 6.6c1.8 1.4 3.6 2.8 5.1 4.5.4.4.8.8 1.2 1.3.3.4.7.8 1 1.4.7 1 1.2 2 1.7 3.1s.8 2.2 1 3.4.3 2.4.2 3.5c-.2 2.4-1 4.6-2.1 6.7-2.4 4-6.1 7-10 9.2s-8.2 3.8-12.5 4.9c-4.3 1.1-8.7 1.8-13.2 2.4-4.4.5-8.9.8-13.3 1s-8.8.3-13.3.3c-4.4-.1-8.9-.5-13.3-1s-8.8-1.2-13.1-2.2c-2.2-.5-4.3-1.1-6.4-1.9-1-.4-2-.9-3-1.4-1-.6-1.9-1.2-2.5-2.1.7.9 1.6 1.5 2.6 2.1 1 .5 2 1 3 1.3 2.1.7 4.2 1.3 6.4 1.7 4.3.9 8.7 1.4 13.1 1.9 4.4.4 8.8.7 13.2.7 4.4 0 8.8-.2 13.2-.5 4.4-.3 8.8-.6 13.2-1.2 4.4-.6 8.7-1.4 12.9-2.5 4.2-1.2 8.3-2.7 12.1-4.8 3.7-2.1 7.2-5 9.3-8.6 1-1.8 1.7-3.8 1.9-5.9.1-1 0-2.1-.2-3.1s-.5-2-.9-3c-.4-.9-.9-1.9-1.6-2.7-.3-.4-.7-.9-1-1.3-.3-.4-.7-.8-1.1-1.2-1.5-1.6-3.2-2.9-4.9-4.2-3.5-2.5-7.4-4.6-11.4-6.4-4-1.8-8.1-3.3-12.3-4.7-4.2-1.4-8.4-2.5-12.7-3.5-4.3-1-8.6-1.8-13-2.6-1.1-.2-2.2-.4-3.3-.7-.6-.2-1.1-.4-1.7-.7s-1.1-.7-1.6-1.1c-.5-.5-.8-1.1-1.1-1.6-.2-.6-.4-1.1-.6-1.6-.3-1.1-.7-2.2-.9-3.3-1.1-4.4-1.5-8.9-1.2-13.4l.1-.8h.8c13 .6 26.1 1.4 39.1 2.8 3.2.4 6.5.8 9.7 1.2 3.2.5 6.5 1 9.7 1.5s6.4 1.1 9.6 1.7c3.4.4 6.6 1.1 9.8 1.7zM103.4 47.5c.2-1.1.8-2.1 1.6-2.9s1.7-1.5 2.6-2.1c1.9-1.2 3.9-2.2 5.9-3.1 4-1.8 8.1-3.6 12.3-5.2 2.1-.8 4.2-1.5 6.4-2.1 1.1-.3 2.2-.6 3.2-.8 1.1-.2 2.2-.5 3.3-.6 1.1-.2 2.2-.4 3.3-.5l3.3-.3c2.2-.1 4.5-.1 6.7 0s4.5.3 6.7.6 4.4.7 6.6 1.3c4.4 1.1 8.6 2.6 12.6 4.7 2 1.1 3.9 2.2 5.7 3.6.9.7 1.8 1.4 2.6 2.2l2.4 2.4c3.1 3.3 5.5 7.2 7.8 11l-1.1-.4c4.9-1.9 9.9-3.2 15-4.1s10.2-1.5 15.4-1.8c5.2-.2 10.4-.1 15.5.5 5.2.6 10.3 1.6 15.2 3.3l-1.2.6c1.4-4.6 4.6-8.4 8.2-11.2 1.8-1.4 3.8-2.7 5.9-3.7s4.2-1.9 6.4-2.6c4.4-1.3 8.9-2 13.5-2.5 2.3-.2 4.5-.4 6.8-.5s4.6-.1 6.9 0c4.6.2 9.1 1.1 13.5 2.3 2.2.6 4.4 1.2 6.5 1.9 2.1.7 4.3 1.5 6.4 2.4 4.2 1.8 8.2 4 12 6.5s7.3 5.4 10.6 8.5c-3.4-2.9-7-5.7-10.8-8.1s-7.8-4.5-12-6.1c-2.1-.8-4.2-1.5-6.4-2.2-2.2-.6-4.3-1.3-6.5-1.8-4.4-1.1-8.8-1.9-13.3-2.1s-8.9.2-13.4.7-8.9 1.3-13.1 2.6c-2.1.6-4.2 1.5-6.1 2.5-2 1-3.8 2.2-5.6 3.5-1.7 1.4-3.3 2.9-4.6 4.7-1.3 1.7-2.3 3.7-3 5.7l-.3.9-.9-.3c-4.8-1.6-9.8-2.6-14.8-3.1-5-.6-10.1-.6-15.2-.4s-10.1.7-15.1 1.7c-5 .9-9.9 2.2-14.7 4l-.7.3-.4-.7c-2.2-3.8-4.5-7.5-7.5-10.7-.7-.8-1.5-1.6-2.3-2.3-.8-.7-1.6-1.4-2.5-2.1-1.7-1.3-3.6-2.5-5.5-3.5-3.8-2.1-7.9-3.6-12.2-4.7-2.1-.6-4.3-1-6.4-1.3-2.2-.4-4.4-.5-6.5-.7-2.2-.1-4.4-.2-6.6-.1-1.1 0-2.2.1-3.3.2-1.1.1-2.2.2-3.3.4-1.1.1-2.2.4-3.2.6-1.1.3-2.2.4-3.2.7-2.1.5-4.2 1.2-6.3 1.9-4.2 1.4-8.3 3.1-12.3 4.8-2 .9-4 1.8-5.9 2.9-.9.6-1.9 1.2-2.7 2-1 .6-1.6 1.6-1.9 2.7z"/><path class="st4" d="M216 109.4c6.7.7 13.6 1.1 20.5 1.3 2.4-15.1 3.8-30.3 4-45.4-15.3.9-16.2.8-23.3.4.4 2.7-.8 43.7-1.2 43.7zm86.2-32.3c.4-.2.9-.5 1.5-.5.7 0 1.3.2 1.9.4 5.6 2.5 11.1 5 16.7 7.5-10.7 6.2-39 16.8-39.9 16.7-.8 0-7-2.8-10.4-7.1 7.3-4 22.9-12.9 30.2-17zM155.9 77c8.5 8.1 29.6 12.7 34.9 21.3-6.6 1.6-12.8 3.6-18.3 6 .2-.1-34.5-14.5-36-15.6 9.4-5.9 12.8-8.2 19.4-11.7z"/><path class="st4" d="M202.6 127.3c5.3 5.5 13.7 10.4 24.3 14.1 6.4-5.2 13.7-8.7 20.1-14.2 38.7.9 68.9 1.3 107.7 1.4-3.8-7.9-10.2-14.9-21.4-21.2-7.7.7-10.6.6-18.3-.2 3.8 3.6 9.2 6.9 15.8 9.7-70.2.2-127.8 0-198-.9 5-4.5 7.1-6.5 10.1-10.6-6.8.2-13.6.3-20.4.5-9.3 10.6-11 12.1-17.5 19.6 4 1.5 9.6 1.6 14.8 1.6 14.9 0 18.7 0 33.6.1h3.1c6.7-.1 38.5-1.7 46.1.1z"/><path d="M254.2 151.8s.4.4 1.2 1.3c.8.8 1.9 2 3.4 3.4 1.5 1.5 3.4 3 5.8 4.8 1.2.9 2.4 1.9 3.6 3 .6.5 1.2 1.1 1.9 1.7.6.6 1.3 1.2 2 1.7 2.7 2.3 5.9 4.5 9.4 6.6s7.4 3.9 11.5 5.5 8.5 3 13.1 4c1.1.3 2.3.5 3.4.7 1.2.2 2.3.4 3.5.6 2.3.3 4.7.6 7 .7 4.7.3 9.4.3 14-.3 2.3-.3 4.5-.8 6.7-1.4 2.2-.7 4.1-1.6 5.9-2.8 1.8-1.2 3.2-2.7 4.1-4.5s.9-3.8.4-5.7c-1-3.8-3.4-6.9-5.3-10-1.9-3-3.8-5.6-6-7.5s-4.3-3.3-6.1-4.4c-1.8-1.1-3.2-2-4.1-2.5l-1.5-.9s.5.3 1.5.8 2.5 1.3 4.3 2.3 4 2.3 6.3 4.2c1.1.9 2.3 2 3.4 3.3s2.1 2.7 3.1 4.2 2.1 3 3.1 4.6c1 1.7 2.1 3.5 2.6 5.6.6 2.1.6 4.5-.4 6.7-.9 2.2-2.7 3.9-4.6 5.3-3.9 2.7-8.6 4-13.3 4.7-4.7.7-9.6.7-14.4.4-2.4-.2-4.8-.5-7.2-.8-1.2-.2-2.4-.4-3.5-.6-1.2-.2-2.3-.5-3.5-.7-4.6-1.1-9.1-2.5-13.3-4.2-8.4-3.4-15.6-8.1-21-12.9-.7-.6-1.3-1.2-1.9-1.8l-1.8-1.8c-1.2-1.1-2.3-2.2-3.4-3.1-2.2-1.9-4.2-3.6-5.6-5.1-1.5-1.5-2.5-2.8-3.2-3.7-.7-.9-1.1-1.4-1.1-1.4zM142.8 308.6s.7.1 2 .3 3.3.5 5.8.7c2.5.3 5.5.5 9 .7s7.4.3 11.7.4c8.6.2 18.6.2 29.3.2s22.2 0 33.6-.2c11.4-.1 22.9-.3 33.6-.6 5.4-.2 10.5-.3 15.5-.4 4.9-.2 9.6-.3 13.8-.5 4.3-.2 8.2-.3 11.7-.6 3.5-.2 6.5-.5 9-.8s4.4-.6 5.7-.9c1.3-.3 2-.4 2-.4s-.7.2-2 .5-3.2.8-5.7 1.2c-4.9.8-12.1 1.6-20.7 2.1s-18.6 1.1-29.3 1.5c-10.7.4-22.2.7-33.6.9-11.5.1-22.9.1-33.6-.1-5.4-.1-10.6-.2-15.5-.3-4.9-.2-9.6-.3-13.9-.5-8.6-.4-15.7-1.1-20.7-1.9-2.5-.4-4.4-.7-5.7-1-1.3-.2-2-.3-2-.3zm40.1 63.6s-.1-.4-.4-1c-.3-.7-.6-1.6-1.1-2.9-.8-2.5-2-6.1-2.9-10.6-.5-2.2-.9-4.7-1.2-7.3-.2-1.3-.3-2.7 0-4.2.2-1.5.8-3 1.8-4.2s2.3-2.2 3.7-2.8c.7-.3 1.4-.6 2.2-.8l.6-.2h.3l.3-.1c.4-.1.7-.2 1.1-.2 3.1-.6 6.2-.5 9.3-.2 3.1.4 6.1 1.2 8.9 2.6 2.8 1.4 5.2 3.7 6.5 6.5.6 1.4 1 2.8 1.3 4.2.2 1.3.4 2.8.4 4.1.1 2.7-.4 5.2-1.1 7.4s-1.6 4.2-2.5 5.8-1.8 3-2.6 4c-.8 1.1-1.5 1.8-2 2.4-.5.5-.7.8-.7.8l.6-.9c.4-.6 1-1.4 1.7-2.5s1.5-2.5 2.3-4.1c.8-1.7 1.5-3.6 2-5.7.5-2.2.8-4.6.7-7.1 0-.6-.1-1.3-.2-1.9-.1-.6-.2-1.3-.3-2-.3-1.3-.6-2.6-1.2-3.7-1.2-2.4-3.3-4.3-5.8-5.5-2.5-1.3-5.4-2-8.3-2.4s-5.9-.4-8.7.1c-2.8.5-5.5 1.5-7.2 3.4-.8.9-1.3 2.1-1.6 3.3-.3 1.2-.2 2.5-.1 3.8.2 2.6.5 5 .8 7.2.7 4.5 1.5 8.1 2.2 10.7.7 2.5 1.2 4 1.2 4zm75.7 3.4s-.2-.4-.6-1.1c-.4-.7-.9-1.8-1.5-3.1-1.2-2.8-2.8-6.8-3.6-12-.4-2.6-.7-5.4-.6-8.4 0-1.5.1-3 .3-4.6l.3-2.4c.1-.8.3-1.8.9-2.6.6-.9 1.5-1.4 2.2-1.8.8-.4 1.6-.7 2.4-1 1.6-.6 3.2-1.1 4.9-1.5 3.3-.9 6.8-1.5 10.3-1.6 1.8 0 3.6.1 5.3.5 1.8.4 3.5 1 5 2.1 1.5 1 2.8 2.5 3.6 4l.3.5.3.6c.2.4.4.8.5 1.2.3.8.5 1.6.7 2.5.7 3.4.1 6.7-.6 9.5-.7 2.9-1.8 5.5-2.6 8-1.7 4.9-3.2 8.9-4.2 11.7s-1.6 4.4-1.6 4.4.5-1.7 1.3-4.6c.9-2.9 2-7 3.5-12 .7-2.5 1.6-5.1 2.2-8 .6-2.8 1-5.9.4-8.8-.2-.7-.4-1.5-.7-2.2-.1-.4-.3-.7-.5-1l-.2-.5-.3-.5c-.8-1.4-1.8-2.5-3.1-3.4-2.6-1.7-6-2.2-9.3-2.2s-6.7.6-9.9 1.5c-1.6.4-3.2.9-4.7 1.4s-3.1 1.1-3.8 2c-.4.5-.5 1.1-.6 1.9-.1.8-.3 1.5-.4 2.3-.2 1.5-.4 3-.4 4.4-.1 2.9 0 5.7.3 8.2s.8 4.8 1.3 6.8 1.1 3.7 1.6 5.2c.5 1.4.9 2.5 1.3 3.2.1 1 .3 1.4.3 1.4zm75.5-12.3s-.1-.2-.4-.6c-.3-.4-.7-1-1.1-1.8-.5-.8-1-1.8-1.6-2.9-.6-1.1-1.2-2.4-1.8-3.9-1.2-2.9-2.3-6.4-3.1-10.3-.2-1-.4-2-.5-3s-.3-2-.2-3.2c.1-1.2.5-2.4 1.4-3.4.8-.9 1.9-1.5 2.9-1.9 2.1-.9 4.3-1.2 6.5-1 .5 0 1.1.1 1.6.2s1.1.2 1.6.4c1 .3 2 .8 2.9 1.5 1.8 1.3 2.8 3.3 3.1 5.2.2 1.9.3 3.5.3 5.1s-.1 3-.4 4.3-.6 2.3-1 3.2c-.4.8-.8 1.5-1 1.9-.3.4-.4.6-.4.6s.1-.2.3-.7c.2-.4.5-1.1.8-1.9.3-.9.5-1.9.6-3.1.1-1.2.1-2.6 0-4.1l-.3-2.4c-.1-.4-.1-.8-.2-1.3-.1-.4-.1-.9-.2-1.2-.4-1.6-1.3-3.1-2.7-4.1-1.4-1-3.2-1.4-5.1-1.5s-3.9.2-5.6 1c-.9.4-1.7.8-2.3 1.5-.5.6-.9 1.3-.9 2.2-.1.8 0 1.8.1 2.8s.2 1.9.4 2.9c.6 3.8 1.5 7.3 2.4 10.2s1.9 5.3 2.6 7c.4.8.7 1.5.8 1.9.4.2.5.4.5.4zm-198.8 0s.1-.2.3-.7c.2-.4.5-1.1.8-1.9.7-1.7 1.7-4.1 2.6-7 1-2.9 1.9-6.4 2.4-10.2.2-.9.3-1.9.4-2.9s.2-2 .1-2.8-.4-1.6-.9-2.2c-.6-.6-1.4-1.1-2.3-1.5-1.7-.7-3.7-1.1-5.6-1s-3.7.5-5.1 1.5c-1.4 1-2.3 2.5-2.7 4.1-.1.4-.1.8-.2 1.2-.1.4-.1.8-.2 1.3l-.3 2.4c-.1 1.5-.1 2.9 0 4.1.1 1.2.4 2.3.6 3.1.3.8.6 1.5.8 1.9s.3.7.3.7-.1-.2-.4-.6c-.3-.4-.7-1-1-1.9-.4-.8-.7-1.9-1-3.2s-.4-2.7-.4-4.3.1-3.2.3-5.1c.3-1.9 1.4-3.9 3.1-5.2.9-.7 1.9-1.2 2.9-1.5.5-.2 1-.3 1.6-.4.6-.1 1.1-.2 1.6-.2 2.2-.1 4.4.2 6.5 1 1 .5 2.1 1.1 2.9 1.9.9 1 1.4 2.2 1.4 3.4.1 1.2-.1 2.2-.2 3.2s-.3 2-.5 3c-.8 3.9-1.9 7.4-3.1 10.3-.6 1.5-1.2 2.7-1.8 3.9-.6 1.1-1.1 2.1-1.6 2.9-.4.8-.8 1.4-1.1 1.8-.1.7-.2.9-.2.9z"/><path class="st4" d="M259.2 252c13-.4 22.2-.7 35.3-1.1 1.4 0 2.9-.1 3.7-.6.6-.3.7-.8.7-1.2.2-1.6.4-3.2.7-4.7-35.4.6-67 1.2-102.4 1.8-7.8.1-24.3-2.3-31.6-.2-.1 3-.4 5.2 1.1 6.6 22.8 1 31.3.9 54.2.5 12.8-.4 25.6-.8 38.3-1.1zm-76.6 13.3c5.2-.1 20-.5 28.7-.5 29 .1 57.8-1.4 86.6-2.8.3-2.1.5-4.2.8-6.3-14.9 1-29.9 1.6-45 2-21.7.6-43.4.6-65.2.3-10.8-.1-11.7-1.7-22.5-1.8-.2 3.8-.6 4.8-.5 8.4 5.7.5 11.3.8 17.1.7z"/><path d="M104.8 18.2s-.2.7-.5 2.2c-.3 1.4-.8 3.6-1.3 6.4-1.1 5.6-2.4 13.8-3.2 24.4-.4 5.3-.6 11.2-.5 17.5.2 6.4.3 13.3.5 20.7.4 14.8.8 31.5 1.2 49.7s.9 37.9 1.4 58.8c.1 5.2.2 10.5.4 15.9.1 5.3.3 10.7.8 16.1.9 10.8 2.7 21.9 6 32.6.8 2.7 1.7 5.4 2.7 8 1.1 2.5 2.4 5.1 3.8 7.5 1.4 2.5 3 4.9 4.6 7.2l1.3 1.7c.5.5.9 1.1 1.4 1.6.9 1 2 1.9 3 2.5.4.2 1.2.4 1.9.6l2.1.6c1.4.4 2.8.7 4.2 1.1 2.8.7 5.7 1.3 8.6 1.9 5.8 1.2 11.6 2.1 17.5 2.9 5.9.7 11.8 1.3 17.8 1.6 3 .2 6 .3 9 .4 3 0 6 .1 9.1.1 12.1-.1 24.2-.1 36.3-.2 12.1 0 24.3-.1 36.4-.1 12.1-.1 24.1-.3 35.9-1.3 5.9-.5 11.8-1.3 17.5-2.5 2.9-.6 5.7-1.3 8.5-2.1 1.4-.4 2.8-.9 4.1-1.3.7-.2 1.4-.5 2-.8l1-.4.9-.5c2.4-1.3 4.5-3.1 6.2-5.2.8-1.1 1.6-2.3 2.2-3.5.3-.6.7-1.3.9-1.9l.9-2c2.3-5.2 4-10.6 5.2-16.1s1.9-11 2.3-16.6c.1-1.4.2-2.8.2-4.1l.1-2.1v-2c0-1.4-.1-2.8-.1-4.2v-2.1l.1-2.1c.4-10.9.9-21.6 1.3-32.1.6-20.8.7-40.6 1.3-58.8.2-4.6.3-9 .7-13.4.3-4.3.4-8.6.5-12.7.1-8.3 0-16.1-.2-23.5-.5-14.8-1.7-27.6-3.3-38.1-1.6-10.5-3.7-18.6-5.9-23.8-.5-1.3-1.1-2.4-1.5-3.4-.5-.9-1-1.7-1.4-2.4-.8-1.2-1.3-1.8-1.3-1.8s.4.6 1.3 1.8c.4.6.9 1.4 1.4 2.3.5 1 1.1 2.1 1.6 3.4 2.3 5.2 4.6 13.3 6.3 23.8 1.8 10.5 3.1 23.4 3.8 38.1.4 7.4.6 15.3.5 23.6 0 4.2-.1 8.4-.4 12.8-.3 4.3-.5 8.8-.6 13.3-.5 18.2-.4 37.9-.8 58.8-.3 10.4-.7 21.1-1 32.1l-.1 2.1v2c0 1.4.1 2.7.1 4.1v2.1l-.1 2.1c0 1.4-.1 2.8-.2 4.2-.4 5.6-1.1 11.3-2.3 16.9-1.2 5.6-3 11.2-5.3 16.6-1.2 2.6-2.5 5.4-4.3 7.8-1.9 2.5-4.3 4.5-7.1 6l-1.1.5-1 .4c-.8.3-1.4.6-2.1.8-1.4.5-2.8 1-4.3 1.4-2.9.9-5.8 1.6-8.7 2.2-5.9 1.2-11.8 2-17.8 2.6-12 1.1-24 1.3-36.2 1.4-12.1.1-24.2.1-36.4.2-24.2-.2-48.7 1.2-72.5-2.2-6-.8-11.9-1.7-17.7-2.9-2.9-.6-5.8-1.3-8.7-2-1.4-.3-2.9-.7-4.3-1.1l-2.1-.6c-.7-.2-1.3-.3-2.3-.8-.5-.2-.8-.4-1.1-.7l-.5-.4-.4-.4c-.6-.5-1.2-1.1-1.7-1.6-.5-.6-1-1.1-1.5-1.7-.5-.6-.9-1.2-1.4-1.8-1.8-2.4-3.3-4.9-4.8-7.4-1.5-2.6-2.8-5.1-4-7.9-1.1-2.7-1.9-5.5-2.8-8.2-3.3-11-5.1-22.2-5.9-33.2-.4-5.5-.6-10.9-.6-16.3-.1-5.3-.2-10.6-.2-15.8-.3-20.9-.6-40.6-.9-58.8-.2-18.2-.5-34.9-.7-49.7-.1-7.4-.2-14.3-.2-20.7 0-6.4.3-12.3.8-17.6.9-10.6 2.5-18.8 3.6-24.4.6-2.8 1.1-4.9 1.4-6.3.5-1 .7-1.8.7-1.8z"/><path d="M102.5 28.7s1-.1 2.8-.3c1.8-.2 4.5-.5 7.9-.8 6.8-.6 16.6-1 28.3-1.3 23.4-.7 54.6-1.7 85.8-2.7 7.8-.3 15.6-.4 23.3-.5 7.7-.1 15.3-.2 22.6-.1 7.3.1 14.4.3 21.1.7 6.7.4 13 .8 18.9 1.2 5.8.4 11.2.8 15.9 1.1 4.7.3 8.9.6 12.3.9 6.8.5 10.7.9 10.7.9v.3s-3.9 0-10.7-.2c-3.4 0-7.6-.1-12.3-.3-4.8-.1-10.1-.3-16-.4-5.9-.2-12.2-.4-18.9-.7-6.7-.2-13.7-.4-21-.4-7.3-.1-14.9-.2-22.5-.2-7.7 0-15.5 0-23.3.1-31.2.5-62.4 1-85.9 1.4-11.7.1-21.5.4-28.3.8-3.4.2-6.1.4-7.9.6-1.8.2-2.8.3-2.8.3v-.4z"/></svg>