<?xml version="1.0" encoding="utf-8"?>
<!-- Generator: Adobe Illustrator 19.2.0, SVG Export Plug-In . SVG Version: 6.00 Build 0)  -->
<svg version="1.1" id="Layer_1" xmlns="http://www.w3.org/2000/svg" xmlns:xlink="http://www.w3.org/1999/xlink" x="0px" y="0px"
	 viewBox="0 0 700 700" style="enable-background:new 0 0 700 700;" xml:space="preserve">
<style type="text/css">
	.st0{fill:none;}
	.st1{fill:none;stroke:#000000;stroke-width:5;stroke-miterlimit:10;}
	.st2{opacity:0.9;fill:url(#SVGID_1_);}
	.st3{fill:url(#SVGID_2_);}
	.st4{fill:none;stroke:#000000;stroke-width:2;stroke-miterlimit:10;}
</style>
<rect x="0" y="0" class="st0" width="700" height="700"/>
<path class="st1" d="M6708.6-568.1c0.3,38.5,0.2,82.4-5.7,120.5c-2.3,14.7-3.7,31.7-10.6,44.9c-9.4,17.9-18.6,35.9-34,49.5
	c-5.5,4.9-11.5,9.2-17.9,12.8c-4.2,2.3-15.3,5.1-15.9,10.8c-0.4,3.6,3.8,5.7,6.9,7.6c6.9,4.3,10.9,12.3,11.6,20.4
	c1.5,15.4-5.6,30.7-18.9,38.8c-0.8,0.5-1.6,1-1.9,1.8c-0.7,2.1,2.1,3.4,4.2,3.8c12.1,2.1,24,5,35.7,8.7c7.7,2.4,24.3,10.6,12,18.5
	c-7.7,4.9-17,6.2-26,7.3c-24.7,3.1-49.7,6.2-74.5,3.9c-5.6-0.5-11.2-1.4-16.8-2.2c-7.5-1.1-15-2.2-22.5-3.3
	c-5.3-0.8-11.8-2.7-12.7-7.9c-1.7-10.2,16.6-15.1,23.6-17.2c4.9-1.5,36.5-4.6,35.6-9.3c-0.5-2.4-2.8-3.9-4.8-5.4
	c-8.9-6.4-15-16.4-16.6-27.2c-1.6-10.8,1.3-22.2,7.9-30.9c2.2-2.9,4.9-6,4.4-9.6c-0.2-1.5-1-2.9-2-4.1c-5.1-6.7-15.9-9.5-22.8-14.7
	c-7.9-6-15.2-12.8-21.6-20.4c-12.5-14.5-22.1-31.5-27.6-49.9c-5.2-17.2-6.9-35.3-8.2-53.2c-2.3-31-3.6-62-3.8-93.1
	c20.2-2.4,42-1.8,62.4-1.4C6600.9-567.5,6708.6-570.2,6708.6-568.1z"/>
<g>
	<path d="M6582-253.2c0,0,0,0.2,0,0.5c0,0.3,0,0.8,0,1.4c0,0.6,0.1,1.3,0.6,1.9c0.4,0.6,1.2,0.8,2.2,0.8c2.1-0.1,4.5-0.2,7.1-0.2
		c1.3,0,2.7-0.1,4-0.1c1.4-0.1,2.8-0.1,4.1-0.2c1.4-0.1,2.8-0.1,4.1-0.2c1.4-0.1,2.7-0.1,4-0.2c2.6-0.1,5-0.2,7.1-0.3
		c2-0.1,3.7-0.6,4.6-1.3c0.4-0.4,0.7-0.8,0.8-1.1c0.1-0.3,0.2-0.5,0.2-0.5s0,0.2,0,0.5c-0.1,0.3-0.2,0.8-0.6,1.3
		c-0.4,0.5-1.1,1-1.9,1.4c-0.8,0.4-1.8,0.7-2.8,0.8c-2.1,0.4-4.5,0.7-7.1,0.9c-1.3,0.1-2.7,0.3-4,0.4c-1.4,0.1-2.8,0.2-4.2,0.2
		c-1.4,0-2.8,0.1-4.2,0.1c-1.4,0-2.7,0-4.1,0c-2.6-0.1-5.1-0.2-7.2-0.4c-0.5-0.1-1.1-0.1-1.6-0.4c-0.5-0.3-0.9-0.7-1.1-1.1
		c-0.4-0.9-0.4-1.7-0.3-2.3c0.1-0.6,0.2-1.1,0.3-1.4C6581.9-253,6582-253.2,6582-253.2z"/>
</g>
<g>
	<path d="M6581.6-337.8c0,0,0.6,0.2,1.6,0.5c0.5,0.2,1.2,0.3,1.9,0.5c0.7,0.2,1.6,0.4,2.4,0.5c0.9,0.2,1.9,0.3,2.9,0.5
		c1,0.1,2.1,0.2,3.3,0.3c1.1,0.1,2.3,0.1,3.5,0.2c1.2,0,2.4,0,3.6,0c1.2,0,2.5,0,3.7-0.1c1.2,0,2.4-0.1,3.6-0.1
		c2.3-0.1,4.5-0.1,6.3-0.3c1.8-0.2,3.2-0.6,4.1-1.2c0.4-0.3,0.8-0.6,1-0.8c0.2-0.2,0.3-0.3,0.3-0.3s-0.1,0.1-0.2,0.4
		c-0.2,0.3-0.4,0.6-0.8,1c-0.8,0.8-2.3,1.6-4.2,2c-0.9,0.2-2,0.4-3,0.5c-1.1,0.1-2.2,0.3-3.3,0.4c-1.2,0.1-2.4,0.2-3.6,0.3
		c-1.2,0.1-2.5,0.1-3.7,0.2c-1.3,0-2.5,0-3.7-0.1c-0.6,0-1.2-0.1-1.8-0.1c-0.6-0.1-1.2-0.1-1.8-0.2c-1.2-0.1-2.3-0.4-3.4-0.6
		c-0.5-0.1-1-0.3-1.5-0.4c-0.5-0.2-1-0.3-1.4-0.4c-1.8-0.6-3.2-1.3-4.2-1.8C6582.2-337.5,6581.6-337.8,6581.6-337.8z"/>
</g>
<g>
	<path d="M6531.5-235.7c0,0,0.1,0.1,0.3,0.3c0.2,0.2,0.5,0.4,1,0.6c0.9,0.5,2.3,1,4.2,1.4c1.9,0.4,4.2,0.7,6.8,1.1
		c2.6,0.4,5.6,0.7,8.9,1.1c3.3,0.3,6.8,0.7,10.6,1c3.7,0.3,7.7,0.5,11.8,0.7c8.2,0.3,17,0.5,25.7,0.6c4.4,0.1,8.8,0.1,13.1,0.2
		c4.3,0,8.5,0.1,12.6,0c4.1-0.1,8-0.4,11.7-0.8c3.7-0.5,7.2-1.1,10.4-1.7c6.4-1.4,11.6-3,15.2-4.3c1.8-0.7,3.2-1.2,4.2-1.6
		c1-0.4,1.5-0.6,1.5-0.6s-0.5,0.2-1.4,0.7c-0.9,0.4-2.3,1.1-4.1,1.8c-3.5,1.5-8.7,3.5-15.1,5.1c-6.4,1.6-14.1,2.9-22.3,3.2
		c-4.1,0.2-8.4,0.2-12.7,0.2c-4.3,0-8.7-0.1-13.1-0.1c-4.4-0.1-8.8-0.2-13.1-0.3c-4.3-0.1-8.6-0.4-12.7-0.6c-4.1-0.3-8.1-0.6-11.8-1
		c-3.8-0.4-7.3-0.8-10.6-1.3c-1.6-0.3-3.2-0.5-4.7-0.7c-1.5-0.3-2.9-0.5-4.2-0.8c-2.6-0.5-4.9-1-6.8-1.5c-1.9-0.5-3.3-1.1-4.1-1.7
		c-0.4-0.3-0.7-0.5-0.9-0.7C6531.6-235.6,6531.5-235.7,6531.5-235.7z"/>
</g>
<linearGradient id="SVGID_1_" gradientUnits="userSpaceOnUse" x1="6498.813" y1="-446.2358" x2="6704.6909" y2="-446.2358">
	<stop  offset="1.785714e-02" style="stop-color:#801FE3"/>
	<stop  offset="1" style="stop-color:#B7A7FF"/>
</linearGradient>
<path class="st2" d="M6498.8-539.9c1.4,24.4,2.7,48.8,4.1,73.2c0.4,7.9,0.9,15.9,2.2,23.7c1.8,11.1,5.4,21.8,8.9,32.5
	c3,9.1,6,18.2,11.1,26.3c17.8,28.1,51.5,32.7,81.9,31.3c10.6-0.5,21.3-1.5,31.5-4.7c66.9-21.3,65.2-117,66.1-172.7
	c0-2.6,0.1-5.1,0.1-7.7C6636-535.8,6567.2-534,6498.8-539.9z"/>
<g>
	<path d="M6493.7-559.6c0,0,0.6,8.1,1.5,22.2c0.5,7.1,1,15.6,1.7,25.5c0.6,9.8,1.4,20.9,2.1,33.1c0.4,6.1,0.7,12.4,1.3,18.9
		c0.5,6.5,1.4,13.2,3,19.9c1.6,6.7,3.7,13.5,6,20.4c2.4,6.9,4.5,14,7.5,20.9c0.8,1.7,1.5,3.4,2.4,5.1c0.9,1.6,1.8,3.3,2.8,4.8
		c1.1,1.6,2.2,3.1,3.4,4.7c1.2,1.4,2.5,2.8,3.7,4.3c5.3,5.5,11.7,10,18.8,13.2c7.1,3.3,14.8,5.4,22.6,6.6c7.9,1.3,15.9,1.7,23.9,1.7
		c8-0.1,16.1-0.4,24-1.5c3.9-0.5,7.9-1.2,11.7-2.2c1-0.3,1.9-0.5,2.8-0.8l0.7-0.2c0.1,0,0,0,0.1,0l0.2-0.1l0.4-0.1l1.4-0.5l2.8-1
		c0.5-0.2,0.9-0.3,1.4-0.5l1.3-0.6c7.1-3.1,13.7-7.4,19.4-12.5c5.7-5.1,10.5-11.1,14.4-17.5c4-6.3,7.1-13.1,9.7-19.8
		c2.6-6.8,4.6-13.6,6.3-20.3c3.2-13.5,5-26.5,6.2-38.5c1.1-12.1,1.7-23.2,2-33c0.3-9.9,0.5-18.4,0.7-25.5
		c0.2-14.2,0.4-22.2,0.4-22.2s0,2,0.1,5.8c0,3.8,0.1,9.4,0.2,16.4c0,7.1,0,15.7-0.2,25.5c-0.1,9.9-0.5,21-1.5,33.1
		c-1,12.1-2.6,25.2-5.7,38.9c-1.6,6.8-3.6,13.7-6.1,20.6c-2.5,6.9-5.7,13.8-9.8,20.3c-4,6.5-9,12.7-14.8,18.1
		c-5.9,5.4-12.7,9.8-20.2,13.1l-1.4,0.6c-0.5,0.2-0.9,0.4-1.4,0.5l-2.8,1l-1.4,0.5l-0.4,0.1l-0.2,0.1l-0.2,0.1l-0.7,0.2
		c-1,0.3-2,0.6-2.9,0.8c-3.9,1-8,1.8-12,2.4c-8.1,1.1-16.2,1.5-24.4,1.6c-8.2,0-16.3-0.5-24.4-1.8c-8-1.3-16-3.5-23.3-7
		c-7.4-3.4-14.1-8.1-19.6-13.9c-1.3-1.5-2.6-3.1-3.9-4.6c-1.1-1.6-2.2-3.2-3.3-4.7c-2.2-3.4-3.9-6.8-5.4-10.4
		c-3-7.1-5.2-14.2-7.5-21.2c-2.2-7-4.3-13.9-5.8-20.7c-1.6-6.9-2.4-13.6-2.8-20.2c-0.5-6.6-0.7-12.9-1-18.9
		c-0.6-12.1-1.1-23.2-1.6-33.1c-0.5-9.9-0.8-18.4-1.2-25.5C6494-551.6,6493.7-559.6,6493.7-559.6z"/>
</g>
<g>
	<path d="M6494.1-544.2c0,0,0.8,0,2.4,0.1c1.6,0.1,3.8,0.2,6.7,0.3c2.9,0.2,6.4,0.3,10.5,0.5c4,0.2,8.6,0.3,13.6,0.5
		c5,0.2,10.4,0.3,16.1,0.5c5.7,0.2,11.7,0.2,17.9,0.4c6.2,0.1,12.6,0.1,19.2,0.2c6.5,0.1,13.2,0,19.8,0.1c6.6,0,13.3,0,19.8-0.1
		c6.5-0.1,13-0.1,19.2-0.2c12.5-0.1,24.1-0.2,34-0.3c10-0.1,18.3-0.1,24.1-0.1c2.9,0,5.2,0,6.7,0c1.6,0,2.4,0,2.4,0
		s-0.8,0.1-2.4,0.2c-1.6,0.1-3.8,0.2-6.7,0.4c-5.8,0.3-14.1,0.8-24.1,1.3c-10,0.5-21.6,0.9-34,1.3c-6.2,0.1-12.7,0.4-19.2,0.4
		c-6.5,0.1-13.2,0.1-19.8,0.2c-6.6,0-13.3,0-19.8-0.2c-6.5-0.1-13-0.3-19.2-0.4c-6.2-0.2-12.3-0.4-18-0.8c-2.9-0.2-5.6-0.3-8.3-0.5
		c-2.7-0.2-5.3-0.4-7.8-0.5c-2.5-0.2-4.9-0.3-7.1-0.5c-2.3-0.2-4.4-0.4-6.4-0.6c-4-0.4-7.6-0.7-10.4-1c-2.9-0.3-5.2-0.6-6.7-0.7
		C6494.9-544.1,6494.1-544.2,6494.1-544.2z"/>
</g>
<g>
	<linearGradient id="SVGID_2_" gradientUnits="userSpaceOnUse" x1="346.5143" y1="605.438" x2="346.5143" y2="328.1802">
		<stop  offset="0" style="stop-color:#C50B00"/>
		<stop  offset="0.9967" style="stop-color:#FFDB94"/>
	</linearGradient>
	<path class="st3" d="M433.8,329.9c-8.3-0.5-16.6-0.9-25-1.2c-19.9-0.7-40-0.6-60-0.3c-32.8,0.5-65.6,1.4-98.4,2.3
		c-10.6,0.3-21.3,0.6-31.7,1.7c-2.9,15.2-4.1,30.6-3.6,45.9c0.7,19.4,2.3,111.3,2.6,138c0.2,19.5,2,38.3,9.1,57.5
		c2.1,5.6,10.8,20.9,15.8,22.4c18.1,5.3,39.2,8.4,60.7,9c3.4,0.1,6.9,0.1,10.3,0.1c25.4,0.2,50.7,0.1,76.1-0.4
		c11.3-0.2,22.6-0.4,33.6-1.5c11-1.1,21.8-3.1,30.3-6.5c7.1-2.8,10-7.8,12-12c6.4-13.3,8.5-27.7,8.9-41.3c0.1-2.4-0.2-6-0.1-8.5
		c0.4-11.3,0.8-22.6,1.2-34c0.5-14.5,0.5-57.6,1.7-72.1c1.1-12.9,1.2-70.8-9-97.3C456.9,331.2,445.4,330.6,433.8,329.9z"/>
	<path class="st0" d="M437.8,326.9c-8.3-0.5-16.6-0.9-25-1.2c-19.9-0.7-40-0.6-60-0.3c-32.8,0.5-65.6,1.4-98.4,2.3
		c-10.6,0.3-21.3,0.6-31.7,1.7c-2.9,15.2-4.1,30.6-3.6,45.9c0.7,19.4,2.3,111.3,2.6,138c0.2,19.5,2,38.3,9.1,57.5
		c2.1,5.6,10.8,20.9,15.8,22.4c18.1,5.3,39.2,8.4,60.7,9c3.4,0.1,6.9,0.1,10.3,0.1c25.4,0.2,50.7,0.1,76.1-0.4
		c11.3-0.2,22.6-0.4,33.6-1.5c11-1.1,21.8-3.1,30.3-6.5c7.1-2.8,10-7.8,12-12c6.4-13.3,8.5-27.7,8.9-41.3c0.1-2.4-0.2-6-0.1-8.5
		c0.4-11.3,0.8-22.6,1.2-34c0.5-14.5,0.5-57.6,1.7-72.1c1.1-12.9,1.2-70.8-9-97.3C460.9,328.2,449.4,327.6,437.8,326.9z"/>
	<path class="st1" d="M478.1,317.8c17.5,36.8,12.8,60.2,11.9,99.8c10.7,4.6,11.4,9.5,14.3,16c2.9,6.5,0.6,39.4-0.4,46
		c-1.8,11-1.8,24.5-15,25.4c-1.2,0.1-1.3,34.1-2.8,50.9c-1.1,12.3-1.7,25.4-15.4,35.9c-2,1.6-2,4.6,0,6.2
		c8.5,6.4,14.2,13.5,16.7,20.9c1.7,5.1,1.8,10.2,2,15.4c0.2,5.3,0.3,10.5,0.5,15.8c0.2,6.6,0.5,13.1-0.8,19.7
		c-0.9,4.5,2.6,9-3.5,12.6c-15.6,9.1-40.7,14.3-66.2,16.4c-25.5,2.1-51.6,1.4-77.5,0.7c-34-0.9-85.8,2-110-11.3
		c-10.4-5.7-11.5-13.6-11.8-20.9c-0.3-6.7-0.5-13.4-0.7-20.1c-0.2-10.1-0.4-20.4,4.4-30.4c4.8-10,16.4-14.9,7.4-24.8
		c-9.2-10.1-11-21.1-12.8-31.9c-2.7-16.8-6-33.8-8.7-50.6c-13.5-14.1-15.3-24.6-15-46.5c0.1-7.6-1.8-34.2,7.2-40.5
		c2.6-1.8,5.8-3.6,7-5.6c0.9-1.5,0.7-3,0.5-4.5c-4.2-37-3.3-55.3,4.1-92.2c0.9-4.7,13.7-8,24.4-8.8c64.8-4.8,131.3-5.3,196.5-1.3
		C447.3,310.7,477.3,316.3,478.1,317.8z"/>
	<path class="st4" d="M248.5,463.4c-4.4,3.5-6.8,8.1-1.2,11.2c4.4,2.4,12.4,2.9,19,1.9s11.8-3.2,16.6-5.4c5.3-2.5,10.4-5.2,12.9-8.5
		c4-5.3-2.2-12.9-17-11.9C267.7,451.4,253.6,459.5,248.5,463.4z"/>
	<path class="st4" d="M433.3,476.1c5.2,0.8,11.8,0.9,15.3-1.1c3-1.7,2.2-4.1,1-6.2c-3.2-5.8-26.7-25.4-43.8-15.7
		C392.4,460.8,418.9,474,433.3,476.1z"/>
	<g>
		<path d="M243.7,448.4c0,0-0.4,0.4-1.1,1.2c-0.7,0.8-1.7,1.9-2.8,3.5c-1.1,1.5-2.4,3.5-3.7,5.9c-1.3,2.3-2.7,5-4.5,7.8
			c-0.9,1.4-1.6,2.8-1.9,4.5c-0.3,1.6-0.3,3.4,0.3,5.1c0.6,1.7,1.7,3.2,3.1,4.4c1.4,1.2,3.1,2.2,4.9,3.1c3.7,1.7,7.8,2.5,12,2.9
			c4.3,0.3,8.6-0.1,12.8-0.9c4.3-0.8,8.5-2,12.7-3.2c2-0.7,4.1-1.3,6.1-2c1-0.4,2-0.7,2.9-1.1c1-0.4,1.9-0.8,2.9-1.2
			c3.7-1.7,7.3-3.4,10.5-5.4c1.6-0.9,3.1-2,4.6-3c0.7-0.5,1.4-1,2.1-1.5c0.7-0.5,1.3-1,2-1.6c0.6-0.5,1.2-1,1.8-1.5
			c0.6-0.5,1.1-1.1,1.7-1.6c1.1-1,2.1-2.1,3-3c0.9-1,1.7-1.9,2.4-2.8c0.7-0.9,1.4-1.8,1.9-2.5c0.5-0.8,1-1.5,1.5-2.1
			c0.4-0.6,0.7-1.2,1-1.6c0.6-0.9,0.8-1.3,0.8-1.3s-0.3,0.5-0.8,1.4c-0.5,0.9-1.2,2.2-2.3,3.9c-0.5,0.8-1.2,1.7-1.8,2.6
			c-0.7,0.9-1.5,1.9-2.3,3c-1.8,2-3.8,4.3-6.3,6.5c-0.6,0.6-1.3,1.1-1.9,1.7c-0.7,0.5-1.4,1.1-2.1,1.7c-1.5,1-3,2.2-4.6,3.1
			c-3.2,2.1-6.8,4-10.6,5.7c-1,0.4-1.9,0.8-2.9,1.3c-1,0.4-2,0.8-3,1.2c-2,0.8-4.1,1.5-6.2,2.1c-4.2,1.3-8.4,2.5-12.8,3.4
			c-4.4,0.8-9,1.2-13.4,0.9c-4.4-0.4-8.7-1.4-12.6-3.2c-1.9-0.9-3.8-2-5.3-3.5c-1.5-1.4-2.8-3.2-3.4-5.1c-0.6-1.9-0.6-4-0.2-5.8
			c0.4-1.8,1.3-3.5,2.3-4.8c1.9-2.7,3.4-5.3,4.8-7.6c1.4-2.3,2.8-4.2,4-5.7c1.2-1.5,2.3-2.6,3-3.3
			C243.3,448.8,243.7,448.4,243.7,448.4z"/>
	</g>
	<g>
		<path d="M229,439.1c0.7,0.8,1.7,1.3,2.6,1.7c1,0.4,2,0.7,3,1c2.1,0.5,4.2,0.7,6.3,0.9c4.2,0.4,8.5,0.4,12.7,0.4l6.4-0.1
			c2.1,0,4.3,0,6.4,0c4.3,0,8.5,0,12.8,0c4.3,0,8.5-0.1,12.8-0.3l12.8-0.4c8.5-0.2,17-0.3,25.6-0.3l0.4,0l0.3,0.3
			c0.6,0.6,1.2,1.2,1.9,1.7c0.7,0.5,1.4,1,2.1,1.5c1.4,1,2.9,1.8,4.5,2.7c1.5,0.8,3.1,1.6,4.7,2.2c0.8,0.3,1.6,0.6,2.4,0.9
			c0.8,0.3,1.6,0.5,2.5,0.7l-0.7,0.1c2.8-1.5,5.7-2.8,8.4-4.4c1.3-0.8,2.6-1.6,3.8-2.6c1.2-1,2.3-2,3.3-3.2l0.3-0.3l0.4,0
			c9.1-0.4,18.2-0.5,27.2-0.4c4.5,0,9.1,0.1,13.6,0.2l13.6,0.4l13.6,0.4c4.5,0.1,9.1,0.3,13.6,0.4c4.5,0.1,9,0,13.5-0.5
			c4.5-0.5,8.9-1.4,13.3-2.5c-2.2,0.6-4.4,1.2-6.6,1.7c-2.2,0.5-4.4,0.9-6.7,1.2c-4.5,0.6-9.1,0.9-13.6,0.9c-4.5,0.1-9.1,0-13.6-0.1
			l-13.6-0.2l-13.6-0.1l-13.6-0.1c-9.1,0-18.1,0.1-27.1,0.6l0.7-0.3c-1.1,1.3-2.2,2.4-3.5,3.5c-1.3,1-2.7,1.9-4,2.8
			c-2.8,1.6-5.6,3.1-8.5,4.5l-0.3,0.2l-0.3-0.1c-0.9-0.2-1.8-0.5-2.6-0.8c-0.9-0.3-1.7-0.6-2.5-1c-1.7-0.7-3.3-1.5-4.9-2.3
			c-1.6-0.9-3.1-1.8-4.6-2.8c-0.7-0.5-1.5-1-2.2-1.6c-0.7-0.6-1.4-1.2-2.1-1.9l0.7,0.3c-8.5-0.1-17,0-25.5,0.1
			c-8.5,0.2-17,0.3-25.6,0.2c-4.3,0-8.5-0.1-12.8-0.2l-12.8-0.2c-4.3-0.1-8.5-0.3-12.8-0.8c-2.1-0.2-4.2-0.6-6.3-1.1
			c-1-0.3-2-0.6-3-1.1C230.6,440.5,229.7,440,229,439.1z"/>
	</g>
	<g>
		<path d="M330.1,447.1c0.1,3.7,0.3,7.5,0.4,11.2c0.2,3.7,0.4,7.5,0.6,11.2l1.2,22.4l0.5,11.2l0.2,5.6l0.1,5.6l0,5.6l0,5.6l-0.1,5.6
			l-0.2,5.6l-0.8-1c5.5,0.5,11.1,0.9,16.6,1.1c2.8,0.1,5.6,0.2,8.3,0.2c2.8,0,5.6,0,8.3-0.1l-0.9,0.9c0.3-7.5,0.6-15,0.7-22.6
			l0.6-22.6l0.5-22.6l0.6-22.6c0.1,7.5,0.2,15.1,0.2,22.6c0.1,7.5,0,15.1,0,22.6l-0.1,11.3c0,3.8-0.1,7.5-0.1,11.3
			c-0.1,7.5-0.3,15.1-0.6,22.6l0,0.9l-0.9,0c-5.6,0.2-11.2,0.2-16.8,0c-5.6-0.2-11.2-0.6-16.8-1.2l-0.9-0.1l0-0.9l0.3-5.6l0.2-5.6
			l0.1-5.6l0-5.6l-0.2-11.2l-0.3-11.2c-0.2-7.5-0.5-15-0.7-22.4c-0.1-3.7-0.1-7.5-0.2-11.2l0-5.6L330.1,447.1z"/>
	</g>
	<g>
		<path d="M225.1,509.1c10-2.7,20-5.2,29.9-7.8l30-7.7l1-0.2l-0.1,1c-0.2,3.6-0.1,7.2,0.5,10.8c0.5,3.6,1.3,7.1,2.5,10.5l0.3,1
			l-1.1,0.1c-1.9,0.2-3.8,0.4-5.7,0.7c-1.9,0.3-3.8,0.5-5.6,0.9l-2.8,0.5c-0.9,0.2-1.9,0.4-2.8,0.6c-1.9,0.4-3.7,1-5.5,1.5
			c-3.6,1.1-7.2,2.3-10.7,3.9c-1.8,0.7-3.4,1.6-5.1,2.5c-1.6,0.9-3.3,1.9-4.8,2.9c-3.1,2.1-6,4.6-8.1,7.6l-0.8,1.1
			c-0.3,0.4-0.4,0.8-0.6,1.2l-0.6,1.2c-0.1,0.4-0.4,0.9-0.5,1.3c-0.5,1.7-0.7,3.5-0.4,5.3c0.5,3.6,2.4,6.9,4.8,9.7
			c2.5,2.8,5.5,5.1,8.7,7.1c3.2,2,6.6,3.6,10.1,5c3.5,1.4,7.1,2.6,10.8,3.5c7.4,1.9,14.9,3,22.6,3.5c3.8,0.2,7.6,0.2,11.4,0
			c3.8-0.2,7.6-0.6,11.4-1.3c3.8-0.7,7.5-1.6,11-3c1.8-0.7,3.5-1.4,5.2-2.4c1.7-0.9,3.3-2,4.6-3.3c-1.3,1.4-2.9,2.5-4.5,3.5
			c-1.6,1-3.4,1.8-5.2,2.5c-3.6,1.5-7.3,2.5-11.1,3.3c-7.5,1.6-15.3,2.1-23,1.8c-7.7-0.3-15.4-1.3-22.9-3.1c-3.7-0.9-7.5-2-11.1-3.4
			c-3.6-1.4-7.1-3.1-10.5-5.1c-3.3-2-6.5-4.4-9.1-7.4c-2.6-2.9-4.7-6.5-5.3-10.6c-0.3-2-0.1-4.1,0.5-6.1c0.1-0.5,0.3-0.9,0.5-1.4
			c0.2-0.5,0.4-0.9,0.7-1.4c0.2-0.4,0.4-0.9,0.7-1.3l0.8-1.2c2.3-3.3,5.4-5.9,8.6-8.1c1.6-1.1,3.3-2.1,5-3c1.7-0.9,3.5-1.8,5.3-2.5
			c3.5-1.6,7.2-2.8,10.9-3.9c1.9-0.5,3.7-1.1,5.6-1.5c0.9-0.2,1.9-0.4,2.8-0.6l2.8-0.5c1.9-0.4,3.8-0.6,5.7-0.9
			c1.9-0.3,3.8-0.4,5.7-0.7l-0.7,1.1c-1.2-3.5-2-7.1-2.5-10.8c-0.5-3.7-0.6-7.4-0.3-11.1l0.9,0.8l-30.1,7.1
			C245.3,504.5,235.2,506.9,225.1,509.1z"/>
	</g>
	<g>
		<path d="M475.5,505.1c-6.4-1.1-12.9-2.2-19.3-3.1c-3.2-0.5-6.5-0.9-9.7-1.2c-3.2-0.4-6.5-0.7-9.7-1c-13-1.2-26-1.8-39-2.2l0.8-0.8
			c-0.3,4.3,0.2,8.7,1.2,12.9c0.3,1.1,0.6,2.1,0.9,3.1c0.4,1.1,0.7,2,1.3,2.6c0.6,0.6,1.5,1,2.5,1.3c1,0.3,2.1,0.5,3.1,0.7
			c4.4,0.8,8.7,1.6,13.1,2.6c4.3,1,8.6,2.1,12.9,3.5c4.2,1.3,8.4,2.9,12.5,4.7c4.1,1.8,8.1,4,11.7,6.6c1.8,1.4,3.6,2.8,5.1,4.5
			c0.4,0.4,0.8,0.8,1.2,1.3c0.3,0.4,0.7,0.8,1,1.4c0.7,1,1.2,2,1.7,3.1c0.5,1.1,0.8,2.2,1,3.4c0.2,1.2,0.3,2.4,0.2,3.5
			c-0.2,2.4-1,4.6-2.1,6.7c-2.4,4-6.1,7-10,9.2c-3.9,2.2-8.2,3.8-12.5,4.9c-4.3,1.1-8.7,1.8-13.2,2.4c-4.4,0.5-8.9,0.8-13.3,1
			c-4.4,0.2-8.8,0.3-13.3,0.3c-4.4-0.1-8.9-0.5-13.3-1c-4.4-0.5-8.8-1.2-13.1-2.2c-2.2-0.5-4.3-1.1-6.4-1.9c-1-0.4-2-0.9-3-1.4
			c-1-0.6-1.9-1.2-2.5-2.1c0.7,0.9,1.6,1.5,2.6,2.1c1,0.5,2,1,3,1.3c2.1,0.7,4.2,1.3,6.4,1.7c4.3,0.9,8.7,1.4,13.1,1.9
			c4.4,0.4,8.8,0.7,13.2,0.7c4.4,0,8.8-0.2,13.2-0.5c4.4-0.3,8.8-0.6,13.2-1.2c4.4-0.6,8.7-1.4,12.9-2.5c4.2-1.2,8.3-2.7,12.1-4.8
			c3.7-2.1,7.2-5,9.3-8.6c1-1.8,1.7-3.8,1.9-5.9c0.1-1,0-2.1-0.2-3.1c-0.2-1-0.5-2-0.9-3c-0.4-0.9-0.9-1.9-1.6-2.7
			c-0.3-0.4-0.7-0.9-1-1.3c-0.3-0.4-0.7-0.8-1.1-1.2c-1.5-1.6-3.2-2.9-4.9-4.2c-3.5-2.5-7.4-4.6-11.4-6.4c-4-1.8-8.1-3.3-12.3-4.7
			c-4.2-1.4-8.4-2.5-12.7-3.5c-4.3-1-8.6-1.8-13-2.6c-1.1-0.2-2.2-0.4-3.3-0.7c-0.6-0.2-1.1-0.4-1.7-0.7c-0.6-0.3-1.1-0.7-1.6-1.1
			c-0.5-0.5-0.8-1.1-1.1-1.6c-0.2-0.6-0.4-1.1-0.6-1.6c-0.3-1.1-0.7-2.2-0.9-3.3c-1.1-4.4-1.5-8.9-1.2-13.4l0.1-0.8l0.8,0
			c13,0.6,26.1,1.4,39.1,2.8c3.2,0.4,6.5,0.8,9.7,1.2c3.2,0.5,6.5,1,9.7,1.5c3.2,0.5,6.4,1.1,9.6,1.7
			C469.1,503.8,472.3,504.5,475.5,505.1z"/>
	</g>
	<g>
		<path d="M223.6,348.3c0.2-1.1,0.8-2.1,1.6-2.9c0.8-0.8,1.7-1.5,2.6-2.1c1.9-1.2,3.9-2.2,5.9-3.1c4-1.8,8.1-3.6,12.3-5.2
			c2.1-0.8,4.2-1.5,6.4-2.1c1.1-0.3,2.2-0.6,3.2-0.8c1.1-0.2,2.2-0.5,3.3-0.6c1.1-0.2,2.2-0.4,3.3-0.5c1.1-0.1,2.2-0.2,3.3-0.3
			c2.2-0.1,4.5-0.1,6.7,0c2.2,0.1,4.5,0.3,6.7,0.6c2.2,0.3,4.4,0.7,6.6,1.3c4.4,1.1,8.6,2.6,12.6,4.7c2,1.1,3.9,2.2,5.7,3.6
			c0.9,0.7,1.8,1.4,2.6,2.2c0.8,0.8,1.6,1.6,2.4,2.4c3.1,3.3,5.5,7.2,7.8,11l-1.1-0.4c4.9-1.9,9.9-3.2,15-4.1
			c5.1-0.9,10.2-1.5,15.4-1.8c5.2-0.2,10.4-0.1,15.5,0.5c5.2,0.6,10.3,1.6,15.2,3.3l-1.2,0.6c1.4-4.6,4.6-8.4,8.2-11.2
			c1.8-1.4,3.8-2.7,5.9-3.7c2.1-1,4.2-1.9,6.4-2.6c4.4-1.3,8.9-2,13.5-2.5c2.3-0.2,4.5-0.4,6.8-0.5c2.3-0.1,4.6-0.1,6.9,0
			c4.6,0.2,9.1,1.1,13.5,2.3c2.2,0.6,4.4,1.2,6.5,1.9c2.1,0.7,4.3,1.5,6.4,2.4c4.2,1.8,8.2,4,12,6.5c3.8,2.5,7.3,5.4,10.6,8.5
			c-3.4-2.9-7-5.7-10.8-8.1c-3.8-2.4-7.8-4.5-12-6.1c-2.1-0.8-4.2-1.5-6.4-2.2c-2.2-0.6-4.3-1.3-6.5-1.8c-4.4-1.1-8.8-1.9-13.3-2.1
			c-4.5-0.2-8.9,0.2-13.4,0.7c-4.5,0.5-8.9,1.3-13.1,2.6c-2.1,0.6-4.2,1.5-6.1,2.5c-2,1-3.8,2.2-5.6,3.5c-1.7,1.4-3.3,2.9-4.6,4.7
			c-1.3,1.7-2.3,3.7-3,5.7l-0.3,0.9l-0.9-0.3c-4.8-1.6-9.8-2.6-14.8-3.1c-5-0.6-10.1-0.6-15.2-0.4c-5.1,0.2-10.1,0.7-15.1,1.7
			c-5,0.9-9.9,2.2-14.7,4l-0.7,0.3l-0.4-0.7c-2.2-3.8-4.5-7.5-7.5-10.7c-0.7-0.8-1.5-1.6-2.3-2.3c-0.8-0.7-1.6-1.4-2.5-2.1
			c-1.7-1.3-3.6-2.5-5.5-3.5c-3.8-2.1-7.9-3.6-12.2-4.7c-2.1-0.6-4.3-1-6.4-1.3c-2.2-0.4-4.4-0.5-6.5-0.7c-2.2-0.1-4.4-0.2-6.6-0.1
			c-1.1,0-2.2,0.1-3.3,0.2c-1.1,0.1-2.2,0.2-3.3,0.4c-1.1,0.1-2.2,0.4-3.2,0.6c-1.1,0.3-2.2,0.4-3.2,0.7c-2.1,0.5-4.2,1.2-6.3,1.9
			c-4.2,1.4-8.3,3.1-12.3,4.8c-2,0.9-4,1.8-5.9,2.9c-0.9,0.6-1.9,1.2-2.7,2C224.5,346.2,223.9,347.2,223.6,348.3z"/>
	</g>
	<path class="st4" d="M336.2,410.2c6.7,0.7,13.6,1.1,20.5,1.3c2.4-15.1,3.8-30.3,4-45.4c-15.3,0.9-16.2,0.8-23.3,0.4
		C337.8,369.2,336.6,410.2,336.2,410.2z"/>
	<path class="st4" d="M422.4,377.9c0.4-0.2,0.9-0.5,1.5-0.5c0.7,0,1.3,0.2,1.9,0.4c5.6,2.5,11.1,5,16.7,7.5
		c-10.7,6.2-39,16.8-39.9,16.7c-0.8,0-7-2.8-10.4-7.1C399.5,390.9,415.1,382,422.4,377.9z"/>
	<path class="st4" d="M276.1,377.8c8.5,8.1,29.6,12.7,34.9,21.3c-6.6,1.6-12.8,3.6-18.3,6c0.2-0.1-34.5-14.5-36-15.6
		C266.1,383.6,269.5,381.3,276.1,377.8z"/>
	<path class="st4" d="M322.8,428.1c5.3,5.5,13.7,10.4,24.3,14.1c6.4-5.2,13.7-8.7,20.1-14.2c38.7,0.9,68.9,1.3,107.7,1.4
		c-3.8-7.9-10.2-14.9-21.4-21.2c-7.7,0.7-10.6,0.6-18.3-0.2c3.8,3.6,9.2,6.9,15.8,9.7c-70.2,0.2-127.8,0-198-0.9
		c5-4.5,7.1-6.5,10.1-10.6c-6.8,0.2-13.6,0.3-20.4,0.5c-9.3,10.6-11,12.1-17.5,19.6c4,1.5,9.6,1.6,14.8,1.6c14.9,0,18.7,0,33.6,0.1
		c1,0,2.1,0,3.1,0C283.4,427.9,315.2,426.3,322.8,428.1z"/>
	<g>
		<path d="M374.4,452.6c0,0,0.4,0.4,1.2,1.3c0.8,0.8,1.9,2,3.4,3.4c1.5,1.5,3.4,3,5.8,4.8c1.2,0.9,2.4,1.9,3.6,3
			c0.6,0.5,1.2,1.1,1.9,1.7c0.6,0.6,1.3,1.2,2,1.7c2.7,2.3,5.9,4.5,9.4,6.6c3.5,2.1,7.4,3.9,11.5,5.5c4.1,1.6,8.5,3,13.1,4
			c1.1,0.3,2.3,0.5,3.4,0.7c1.2,0.2,2.3,0.4,3.5,0.6c2.3,0.3,4.7,0.6,7,0.7c4.7,0.3,9.4,0.3,14-0.3c2.3-0.3,4.5-0.8,6.7-1.4
			c2.2-0.7,4.1-1.6,5.9-2.8c1.8-1.2,3.2-2.7,4.1-4.5c0.9-1.8,0.9-3.8,0.4-5.7c-1-3.8-3.4-6.9-5.3-10c-1.9-3-3.8-5.6-6-7.5
			c-2.2-1.9-4.3-3.3-6.1-4.4c-1.8-1.1-3.2-2-4.1-2.5c-1-0.6-1.5-0.9-1.5-0.9s0.5,0.3,1.5,0.8c1,0.5,2.5,1.3,4.3,2.3
			c1.8,1,4,2.3,6.3,4.2c1.1,0.9,2.3,2,3.4,3.3c1.1,1.3,2.1,2.7,3.1,4.2c1,1.5,2.1,3,3.1,4.6c1,1.7,2.1,3.5,2.6,5.6
			c0.6,2.1,0.6,4.5-0.4,6.7c-0.9,2.2-2.7,3.9-4.6,5.3c-3.9,2.7-8.6,4-13.3,4.7c-4.7,0.7-9.6,0.7-14.4,0.4c-2.4-0.2-4.8-0.5-7.2-0.8
			c-1.2-0.2-2.4-0.4-3.5-0.6c-1.2-0.2-2.3-0.5-3.5-0.7c-4.6-1.1-9.1-2.5-13.3-4.2c-8.4-3.4-15.6-8.1-21-12.9
			c-0.7-0.6-1.3-1.2-1.9-1.8c-0.6-0.6-1.2-1.2-1.8-1.8c-1.2-1.1-2.3-2.2-3.4-3.1c-2.2-1.9-4.2-3.6-5.6-5.1c-1.5-1.5-2.5-2.8-3.2-3.7
			C374.8,453.1,374.4,452.6,374.4,452.6z"/>
	</g>
	<g>
		<path d="M263,609.4c0,0,0.7,0.1,2,0.3c1.3,0.2,3.3,0.5,5.8,0.7c2.5,0.3,5.5,0.5,9,0.7c3.5,0.2,7.4,0.3,11.7,0.4
			c8.6,0.2,18.6,0.2,29.3,0.2c10.7,0,22.2,0,33.6-0.2c11.4-0.1,22.9-0.3,33.6-0.6c5.4-0.2,10.5-0.3,15.5-0.4
			c4.9-0.2,9.6-0.3,13.8-0.5c4.3-0.2,8.2-0.3,11.7-0.6c3.5-0.2,6.5-0.5,9-0.8c2.5-0.3,4.4-0.6,5.7-0.9c1.3-0.3,2-0.4,2-0.4
			s-0.7,0.2-2,0.5c-1.3,0.3-3.2,0.8-5.7,1.2c-4.9,0.8-12.1,1.6-20.7,2.1c-8.6,0.5-18.6,1.1-29.3,1.5c-10.7,0.4-22.2,0.7-33.6,0.9
			c-11.5,0.1-22.9,0.1-33.6-0.1c-5.4-0.1-10.6-0.2-15.5-0.3c-4.9-0.2-9.6-0.3-13.9-0.5c-8.6-0.4-15.7-1.1-20.7-1.9
			c-2.5-0.4-4.4-0.7-5.7-1C263.7,609.5,263,609.4,263,609.4z"/>
	</g>
	<g>
		<path d="M303.1,673c0,0-0.1-0.4-0.4-1c-0.3-0.7-0.6-1.6-1.1-2.9c-0.8-2.5-2-6.1-2.9-10.6c-0.5-2.2-0.9-4.7-1.2-7.3
			c-0.2-1.3-0.3-2.7,0-4.2c0.2-1.5,0.8-3,1.8-4.2c1-1.2,2.3-2.2,3.7-2.8c0.7-0.3,1.4-0.6,2.2-0.8l0.6-0.2l0.1,0l0.2,0l0.3-0.1
			c0.4-0.1,0.7-0.2,1.1-0.2c3.1-0.6,6.2-0.5,9.3-0.2c3.1,0.4,6.1,1.2,8.9,2.6c2.8,1.4,5.2,3.7,6.5,6.5c0.6,1.4,1,2.8,1.3,4.2
			c0.2,1.3,0.4,2.8,0.4,4.1c0.1,2.7-0.4,5.2-1.1,7.4c-0.7,2.2-1.6,4.2-2.5,5.8c-0.9,1.6-1.8,3-2.6,4c-0.8,1.1-1.5,1.8-2,2.4
			c-0.5,0.5-0.7,0.8-0.7,0.8s0.2-0.3,0.6-0.9c0.4-0.6,1-1.4,1.7-2.5c0.7-1.1,1.5-2.5,2.3-4.1c0.8-1.7,1.5-3.6,2-5.7
			c0.5-2.2,0.8-4.6,0.7-7.1c0-0.6-0.1-1.3-0.2-1.9c-0.1-0.6-0.2-1.3-0.3-2c-0.3-1.3-0.6-2.6-1.2-3.7c-1.2-2.4-3.3-4.3-5.8-5.5
			c-2.5-1.3-5.4-2-8.3-2.4c-2.9-0.4-5.9-0.4-8.7,0.1c-2.8,0.5-5.5,1.5-7.2,3.4c-0.8,0.9-1.3,2.1-1.6,3.3c-0.3,1.2-0.2,2.5-0.1,3.8
			c0.2,2.6,0.5,5,0.8,7.2c0.7,4.5,1.5,8.1,2.2,10.7C302.6,671.5,303.1,673,303.1,673z"/>
	</g>
	<g>
		<path d="M378.8,676.4c0,0-0.2-0.4-0.6-1.1c-0.4-0.7-0.9-1.8-1.5-3.1c-1.2-2.8-2.8-6.8-3.6-12c-0.4-2.6-0.7-5.4-0.6-8.4
			c0-1.5,0.1-3,0.3-4.6c0.1-0.8,0.2-1.6,0.3-2.4c0.1-0.8,0.3-1.8,0.9-2.6c0.6-0.9,1.5-1.4,2.2-1.8c0.8-0.4,1.6-0.7,2.4-1
			c1.6-0.6,3.2-1.1,4.9-1.5c3.3-0.9,6.8-1.5,10.3-1.6c1.8,0,3.6,0.1,5.3,0.5c1.8,0.4,3.5,1,5,2.1c1.5,1,2.8,2.5,3.6,4l0.3,0.5
			l0.3,0.6c0.2,0.4,0.4,0.8,0.5,1.2c0.3,0.8,0.5,1.6,0.7,2.5c0.7,3.4,0.1,6.7-0.6,9.5c-0.7,2.9-1.8,5.5-2.6,8
			c-1.7,4.9-3.2,8.9-4.2,11.7c-1,2.8-1.6,4.4-1.6,4.4s0.5-1.7,1.3-4.6c0.9-2.9,2-7,3.5-12c0.7-2.5,1.6-5.1,2.2-8
			c0.6-2.8,1-5.9,0.4-8.8c-0.2-0.7-0.4-1.5-0.7-2.2c-0.1-0.4-0.3-0.7-0.5-1l-0.2-0.5l-0.3-0.5c-0.8-1.4-1.8-2.5-3.1-3.4
			c-2.6-1.7-6-2.2-9.3-2.2c-3.3,0-6.7,0.6-9.9,1.5c-1.6,0.4-3.2,0.9-4.7,1.4c-1.5,0.5-3.1,1.1-3.8,2c-0.4,0.5-0.5,1.1-0.6,1.9
			c-0.1,0.8-0.3,1.5-0.4,2.3c-0.2,1.5-0.4,3-0.4,4.4c-0.1,2.9,0,5.7,0.3,8.2c0.3,2.5,0.8,4.8,1.3,6.8c0.5,2,1.1,3.7,1.6,5.2
			c0.5,1.4,0.9,2.5,1.3,3.2C378.6,676,378.8,676.4,378.8,676.4z"/>
	</g>
	<g>
		<path d="M454.3,664.1c0,0-0.1-0.2-0.4-0.6c-0.3-0.4-0.7-1-1.1-1.8c-0.5-0.8-1-1.8-1.6-2.9c-0.6-1.1-1.2-2.4-1.8-3.9
			c-1.2-2.9-2.3-6.4-3.1-10.3c-0.2-1-0.4-2-0.5-3c-0.1-1-0.3-2-0.2-3.2c0.1-1.2,0.5-2.4,1.4-3.4c0.8-0.9,1.9-1.5,2.9-1.9
			c2.1-0.9,4.3-1.2,6.5-1c0.5,0,1.1,0.1,1.6,0.2c0.5,0.1,1.1,0.2,1.6,0.4c1,0.3,2,0.8,2.9,1.5c1.8,1.3,2.8,3.3,3.1,5.2
			c0.2,1.9,0.3,3.5,0.3,5.1c0,1.6-0.1,3-0.4,4.3c-0.3,1.3-0.6,2.3-1,3.2c-0.4,0.8-0.8,1.5-1,1.9c-0.3,0.4-0.4,0.6-0.4,0.6
			s0.1-0.2,0.3-0.7c0.2-0.4,0.5-1.1,0.8-1.9c0.3-0.9,0.5-1.9,0.6-3.1c0.1-1.2,0.1-2.6,0-4.1c-0.1-0.8-0.2-1.6-0.3-2.4
			c-0.1-0.4-0.1-0.8-0.2-1.3c-0.1-0.4-0.1-0.9-0.2-1.2c-0.4-1.6-1.3-3.1-2.7-4.1c-1.4-1-3.2-1.4-5.1-1.5c-1.9-0.1-3.9,0.2-5.6,1
			c-0.9,0.4-1.7,0.8-2.3,1.5c-0.5,0.6-0.9,1.3-0.9,2.2c-0.1,0.8,0,1.8,0.1,2.8c0.1,1,0.2,1.9,0.4,2.9c0.6,3.8,1.5,7.3,2.4,10.2
			c0.9,2.9,1.9,5.3,2.6,7c0.4,0.8,0.7,1.5,0.8,1.9C454.2,663.9,454.3,664.1,454.3,664.1z"/>
	</g>
	<g>
		<path d="M255.5,664.1c0,0,0.1-0.2,0.3-0.7c0.2-0.4,0.5-1.1,0.8-1.9c0.7-1.7,1.7-4.1,2.6-7c1-2.9,1.9-6.4,2.4-10.2
			c0.2-0.9,0.3-1.9,0.4-2.9c0.1-1,0.2-2,0.1-2.8c-0.1-0.8-0.4-1.6-0.9-2.2c-0.6-0.6-1.4-1.1-2.3-1.5c-1.7-0.7-3.7-1.1-5.6-1
			c-1.9,0.1-3.7,0.5-5.1,1.5c-1.4,1-2.3,2.5-2.7,4.1c-0.1,0.4-0.1,0.8-0.2,1.2c-0.1,0.4-0.1,0.8-0.2,1.3c-0.1,0.8-0.2,1.6-0.3,2.4
			c-0.1,1.5-0.1,2.9,0,4.1c0.1,1.2,0.4,2.3,0.6,3.1c0.3,0.8,0.6,1.5,0.8,1.9c0.2,0.4,0.3,0.7,0.3,0.7s-0.1-0.2-0.4-0.6
			c-0.3-0.4-0.7-1-1-1.9c-0.4-0.8-0.7-1.9-1-3.2c-0.3-1.3-0.4-2.7-0.4-4.3c0-1.6,0.1-3.2,0.3-5.1c0.3-1.9,1.4-3.9,3.1-5.2
			c0.9-0.7,1.9-1.2,2.9-1.5c0.5-0.2,1-0.3,1.6-0.4c0.6-0.1,1.1-0.2,1.6-0.2c2.2-0.1,4.4,0.2,6.5,1c1,0.5,2.1,1.1,2.9,1.9
			c0.9,1,1.4,2.2,1.4,3.4c0.1,1.2-0.1,2.2-0.2,3.2c-0.1,1-0.3,2-0.5,3c-0.8,3.9-1.9,7.4-3.1,10.3c-0.6,1.5-1.2,2.7-1.8,3.9
			c-0.6,1.1-1.1,2.1-1.6,2.9c-0.4,0.8-0.8,1.4-1.1,1.8C255.6,663.9,255.5,664.1,255.5,664.1z"/>
	</g>
	<path class="st4" d="M379.4,552.8c13-0.4,22.2-0.7,35.3-1.1c1.4,0,2.9-0.1,3.7-0.6c0.6-0.3,0.7-0.8,0.7-1.2
		c0.2-1.6,0.4-3.2,0.7-4.7c-35.4,0.6-67,1.2-102.4,1.8c-7.8,0.1-24.3-2.3-31.6-0.2c-0.1,3-0.4,5.2,1.1,6.6c22.8,1,31.3,0.9,54.2,0.5
		C353.9,553.5,366.7,553.1,379.4,552.8z"/>
	<path class="st4" d="M302.8,566.1c5.2-0.1,20-0.5,28.7-0.5c29,0.1,57.8-1.4,86.6-2.8c0.3-2.1,0.5-4.2,0.8-6.3
		c-14.9,1-29.9,1.6-45,2c-21.7,0.6-43.4,0.6-65.2,0.3c-10.8-0.1-11.7-1.7-22.5-1.8c-0.2,3.8-0.6,4.8-0.5,8.4
		C291.4,565.9,297,566.2,302.8,566.1z"/>
	<g>
		<path d="M225,319c0,0-0.2,0.7-0.5,2.2c-0.3,1.4-0.8,3.6-1.3,6.4c-1.1,5.6-2.4,13.8-3.2,24.4c-0.4,5.3-0.6,11.2-0.5,17.5
			c0.2,6.4,0.3,13.3,0.5,20.7c0.4,14.8,0.8,31.5,1.2,49.7c0.4,18.2,0.9,37.9,1.4,58.8c0.1,5.2,0.2,10.5,0.4,15.9
			c0.1,5.3,0.3,10.7,0.8,16.1c0.9,10.8,2.7,21.9,6,32.6c0.8,2.7,1.7,5.4,2.7,8c1.1,2.5,2.4,5.1,3.8,7.5c1.4,2.5,3,4.9,4.6,7.2
			l1.3,1.7c0.5,0.5,0.9,1.1,1.4,1.6c0.9,1,2,1.9,3,2.5c0.4,0.2,1.2,0.4,1.9,0.6l2.1,0.6c1.4,0.4,2.8,0.7,4.2,1.1
			c2.8,0.7,5.7,1.3,8.6,1.9c5.8,1.2,11.6,2.1,17.5,2.9c5.9,0.7,11.8,1.3,17.8,1.6c3,0.2,6,0.3,9,0.4c3,0,6,0.1,9.1,0.1
			c12.1-0.1,24.2-0.1,36.3-0.2c12.1,0,24.3-0.1,36.4-0.1c12.1-0.1,24.1-0.3,35.9-1.3c5.9-0.5,11.8-1.3,17.5-2.5
			c2.9-0.6,5.7-1.3,8.5-2.1c1.4-0.4,2.8-0.9,4.1-1.3c0.7-0.2,1.4-0.5,2-0.8l1-0.4l0.9-0.5c2.4-1.3,4.5-3.1,6.2-5.2
			c0.8-1.1,1.6-2.3,2.2-3.5c0.3-0.6,0.7-1.3,0.9-1.9l0.9-2c2.3-5.2,4-10.6,5.2-16.1c1.2-5.5,1.9-11,2.3-16.6
			c0.1-1.4,0.2-2.8,0.2-4.1l0.1-2.1c0-0.7,0-1.3,0-2c0-1.4-0.1-2.8-0.1-4.2c0-0.7,0-1.4,0-2.1l0.1-2.1c0.4-10.9,0.9-21.6,1.3-32.1
			c0.6-20.8,0.7-40.6,1.3-58.8c0.2-4.6,0.3-9,0.7-13.4c0.3-4.3,0.4-8.6,0.5-12.7c0.1-8.3,0-16.1-0.2-23.5
			c-0.5-14.8-1.7-27.6-3.3-38.1c-1.6-10.5-3.7-18.6-5.9-23.8c-0.5-1.3-1.1-2.4-1.5-3.4c-0.5-0.9-1-1.7-1.4-2.4
			c-0.8-1.2-1.3-1.8-1.3-1.8s0.4,0.6,1.3,1.8c0.4,0.6,0.9,1.4,1.4,2.3c0.5,1,1.1,2.1,1.6,3.4c2.3,5.2,4.6,13.3,6.3,23.8
			c1.8,10.5,3.1,23.4,3.8,38.1c0.4,7.4,0.6,15.3,0.5,23.6c0,4.2-0.1,8.4-0.4,12.8c-0.3,4.3-0.5,8.8-0.6,13.3
			c-0.5,18.2-0.4,37.9-0.8,58.8c-0.3,10.4-0.7,21.1-1,32.1l-0.1,2.1c0,0.7,0,1.3,0,2c0,1.4,0.1,2.7,0.1,4.1c0,0.7,0,1.4,0,2.1
			l-0.1,2.1c0,1.4-0.1,2.8-0.2,4.2c-0.4,5.6-1.1,11.3-2.3,16.9c-1.2,5.6-3,11.2-5.3,16.6c-1.2,2.6-2.5,5.4-4.3,7.8
			c-1.9,2.5-4.3,4.5-7.1,6l-1.1,0.5l-1,0.4c-0.8,0.3-1.4,0.6-2.1,0.8c-1.4,0.5-2.8,1-4.3,1.4c-2.9,0.9-5.8,1.6-8.7,2.2
			c-5.9,1.2-11.8,2-17.8,2.6c-12,1.1-24,1.3-36.2,1.4c-12.1,0.1-24.2,0.1-36.4,0.2c-24.2-0.2-48.7,1.2-72.5-2.2
			c-6-0.8-11.9-1.7-17.7-2.9c-2.9-0.6-5.8-1.3-8.7-2c-1.4-0.3-2.9-0.7-4.3-1.1l-2.1-0.6c-0.7-0.2-1.3-0.3-2.3-0.8
			c-0.5-0.2-0.8-0.4-1.1-0.7l-0.5-0.4l-0.4-0.4c-0.6-0.5-1.2-1.1-1.7-1.6c-0.5-0.6-1-1.1-1.5-1.7c-0.5-0.6-0.9-1.2-1.4-1.8
			c-1.8-2.4-3.3-4.9-4.8-7.4c-1.5-2.6-2.8-5.1-4-7.9c-1.1-2.7-1.9-5.5-2.8-8.2c-3.3-11-5.1-22.2-5.9-33.2
			c-0.4-5.5-0.6-10.9-0.6-16.3c-0.1-5.3-0.2-10.6-0.2-15.8c-0.3-20.9-0.6-40.6-0.9-58.8c-0.2-18.2-0.5-34.9-0.7-49.7
			c-0.1-7.4-0.2-14.3-0.2-20.7c0-6.4,0.3-12.3,0.8-17.6c0.9-10.6,2.5-18.8,3.6-24.4c0.6-2.8,1.1-4.9,1.4-6.3
			C224.8,319.8,225,319,225,319z"/>
	</g>
	<g>
		<path d="M222.7,329.5c0,0,1-0.1,2.8-0.3c1.8-0.2,4.5-0.5,7.9-0.8c6.8-0.6,16.6-1,28.3-1.3c23.4-0.7,54.6-1.7,85.8-2.7
			c7.8-0.3,15.6-0.4,23.3-0.5c7.7-0.1,15.3-0.2,22.6-0.1c7.3,0.1,14.4,0.3,21.1,0.7c6.7,0.4,13,0.8,18.9,1.2
			c5.8,0.4,11.2,0.8,15.9,1.1c4.7,0.3,8.9,0.6,12.3,0.9c6.8,0.5,10.7,0.9,10.7,0.9l0,0.3c0,0-3.9,0-10.7-0.2
			c-3.4,0-7.6-0.1-12.3-0.3c-4.8-0.1-10.1-0.3-16-0.4c-5.9-0.2-12.2-0.4-18.9-0.7c-6.7-0.2-13.7-0.4-21-0.4
			c-7.3-0.1-14.9-0.2-22.5-0.2c-7.7,0-15.5,0-23.3,0.1c-31.2,0.5-62.4,1-85.9,1.4c-11.7,0.1-21.5,0.4-28.3,0.8
			c-3.4,0.2-6.1,0.4-7.9,0.6c-1.8,0.2-2.8,0.3-2.8,0.3L222.7,329.5z"/>
	</g>
</g>
</svg>
