<svg id="Layer_1" xmlns="http://www.w3.org/2000/svg" viewBox="0 0 700 700"><style>.st0,.st1{fill:none}.st1{stroke:#000;stroke-width:5;stroke-miterlimit:10}.st2{opacity:.9;fill:url(#SVGID_1_)}.st3{opacity:.82;fill:url(#SVGID_2_)}</style><path class="st0" d="M0 0h700v700H0z"/><path class="st1" d="M6708.6-568.1c.3 38.5.2 82.4-5.7 120.5-2.3 14.7-3.7 31.7-10.6 44.9-9.4 17.9-18.6 35.9-34 49.5-5.5 4.9-11.5 9.2-17.9 12.8-4.2 2.3-15.3 5.1-15.9 10.8-.4 3.6 3.8 5.7 6.9 7.6 6.9 4.3 10.9 12.3 11.6 20.4 1.5 15.4-5.6 30.7-18.9 38.8-.8.5-1.6 1-1.9 1.8-.7 2.1 2.1 3.4 4.2 3.8 12.1 2.1 24 5 35.7 8.7 7.7 2.4 24.3 10.6 12 18.5-7.7 4.9-17 6.2-26 7.3-24.7 3.1-49.7 6.2-74.5 3.9-5.6-.5-11.2-1.4-16.8-2.2l-22.5-3.3c-5.3-.8-11.8-2.7-12.7-7.9-1.7-10.2 16.6-15.1 23.6-17.2 4.9-1.5 36.5-4.6 35.6-9.3-.5-2.4-2.8-3.9-4.8-5.4-8.9-6.4-15-16.4-16.6-27.2-1.6-10.8 1.3-22.2 7.9-30.9 2.2-2.9 4.9-6 4.4-9.6-.2-1.5-1-2.9-2-4.1-5.1-6.7-15.9-9.5-22.8-14.7-7.9-6-15.2-12.8-21.6-20.4-12.5-14.5-22.1-31.5-27.6-49.9-5.2-17.2-6.9-35.3-8.2-53.2-2.3-31-3.6-62-3.8-93.1 20.2-2.4 42-1.8 62.4-1.4 52.8 1.1 160.5-1.6 160.5.5z"/><path d="M6582-253.2v1.9c0 .6.1 1.3.6 1.9.4.6 1.2.8 2.2.8 2.1-.1 4.5-.2 7.1-.2 1.3 0 2.7-.1 4-.1 1.4-.1 2.8-.1 4.1-.2 1.4-.1 2.8-.1 4.1-.2 1.4-.1 2.7-.1 4-.2 2.6-.1 5-.2 7.1-.3 2-.1 3.7-.6 4.6-1.3.4-.4.7-.8.8-1.1.1-.3.2-.5.2-.5v.5c-.1.3-.2.8-.6 1.3-.4.5-1.1 1-1.9 1.4-.8.4-1.8.7-2.8.8-2.1.4-4.5.7-7.1.9-1.3.1-2.7.3-4 .4-1.4.1-2.8.2-4.2.2-1.4 0-2.8.1-4.2.1h-4.1c-2.6-.1-5.1-.2-7.2-.4-.5-.1-1.1-.1-1.6-.4-.5-.3-.9-.7-1.1-1.1-.4-.9-.4-1.7-.3-2.3.1-.6.2-1.1.3-1.4-.1-.3 0-.5 0-.5zm-.4-84.6s.6.2 1.6.5c.5.2 1.2.3 1.9.5s1.6.4 2.4.5c.9.2 1.9.3 2.9.5 1 .1 2.1.2 3.3.3 1.1.1 2.3.1 3.5.2h3.6c1.2 0 2.5 0 3.7-.1 1.2 0 2.4-.1 3.6-.1 2.3-.1 4.5-.1 6.3-.3 1.8-.2 3.2-.6 4.1-1.2.4-.3.8-.6 1-.8l.3-.3s-.1.1-.2.4c-.2.3-.4.6-.8 1-.8.8-2.3 1.6-4.2 2-.9.2-2 .4-3 .5-1.1.1-2.2.3-3.3.4l-3.6.3c-1.2.1-2.5.1-3.7.2-1.3 0-2.5 0-3.7-.1-.6 0-1.2-.1-1.8-.1-.6-.1-1.2-.1-1.8-.2-1.2-.1-2.3-.4-3.4-.6-.5-.1-1-.3-1.5-.4-.5-.2-1-.3-1.4-.4-1.8-.6-3.2-1.3-4.2-1.8-1-.6-1.6-.9-1.6-.9zm-50.1 102.1l.3.3c.2.2.5.4 1 .6.9.5 2.3 1 4.2 1.4 1.9.4 4.2.7 6.8 1.1 2.6.4 5.6.7 8.9 1.1 3.3.3 6.8.7 10.6 1 3.7.3 7.7.5 11.8.7 8.2.3 17 .5 25.7.6 4.4.1 8.8.1 13.1.2 4.3 0 8.5.1 12.6 0s8-.4 11.7-.8c3.7-.5 7.2-1.1 10.4-1.7 6.4-1.4 11.6-3 15.2-4.3 1.8-.7 3.2-1.2 4.2-1.6l1.5-.6s-.5.2-1.4.7c-.9.4-2.3 1.1-4.1 1.8-3.5 1.5-8.7 3.5-15.1 5.1-6.4 1.6-14.1 2.9-22.3 3.2-4.1.2-8.4.2-12.7.2-4.3 0-8.7-.1-13.1-.1-4.4-.1-8.8-.2-13.1-.3-4.3-.1-8.6-.4-12.7-.6-4.1-.3-8.1-.6-11.8-1-3.8-.4-7.3-.8-10.6-1.3-1.6-.3-3.2-.5-4.7-.7-1.5-.3-2.9-.5-4.2-.8-2.6-.5-4.9-1-6.8-1.5-1.9-.5-3.3-1.1-4.1-1.7-.4-.3-.7-.5-.9-.7-.3-.2-.4-.3-.4-.3z"/><linearGradient id="SVGID_1_" gradientUnits="userSpaceOnUse" x1="6498.813" y1="-446.236" x2="6704.691" y2="-446.236"><stop offset=".018" stop-color="#801fe3"/><stop offset="1" stop-color="#b7a7ff"/></linearGradient><path class="st2" d="M6498.8-539.9c1.4 24.4 2.7 48.8 4.1 73.2.4 7.9.9 15.9 2.2 23.7 1.8 11.1 5.4 21.8 8.9 32.5 3 9.1 6 18.2 11.1 26.3 17.8 28.1 51.5 32.7 81.9 31.3 10.6-.5 21.3-1.5 31.5-4.7 66.9-21.3 65.2-117 66.1-172.7 0-2.6.1-5.1.1-7.7-68.7 2.2-137.5 4-205.9-1.9z"/><path d="M6493.7-559.6s.6 8.1 1.5 22.2c.5 7.1 1 15.6 1.7 25.5.6 9.8 1.4 20.9 2.1 33.1.4 6.1.7 12.4 1.3 18.9.5 6.5 1.4 13.2 3 19.9 1.6 6.7 3.7 13.5 6 20.4 2.4 6.9 4.5 14 7.5 20.9.8 1.7 1.5 3.4 2.4 5.1.9 1.6 1.8 3.3 2.8 4.8 1.1 1.6 2.2 3.1 3.4 4.7 1.2 1.4 2.5 2.8 3.7 4.3 5.3 5.5 11.7 10 18.8 13.2 7.1 3.3 14.8 5.4 22.6 6.6 7.9 1.3 15.9 1.7 23.9 1.7 8-.1 16.1-.4 24-1.5 3.9-.5 7.9-1.2 11.7-2.2 1-.3 1.9-.5 2.8-.8l.7-.2h.1l.2-.1.4-.1 1.4-.5 2.8-1c.5-.2.9-.3 1.4-.5l1.3-.6c7.1-3.1 13.7-7.4 19.4-12.5 5.7-5.1 10.5-11.1 14.4-17.5 4-6.3 7.1-13.1 9.7-19.8 2.6-6.8 4.6-13.6 6.3-20.3 3.2-13.5 5-26.5 6.2-38.5 1.1-12.1 1.7-23.2 2-33 .3-9.9.5-18.4.7-25.5.2-14.2.4-22.2.4-22.2s0 2 .1 5.8c0 3.8.1 9.4.2 16.4 0 7.1 0 15.7-.2 25.5-.1 9.9-.5 21-1.5 33.1-1 12.1-2.6 25.2-5.7 38.9-1.6 6.8-3.6 13.7-6.1 20.6-2.5 6.9-5.7 13.8-9.8 20.3-4 6.5-9 12.7-14.8 18.1-5.9 5.4-12.7 9.8-20.2 13.1l-1.4.6c-.5.2-.9.4-1.4.5l-2.8 1-1.4.5-.4.1-.2.1-.2.1-.7.2c-1 .3-2 .6-2.9.8-3.9 1-8 1.8-12 2.4-8.1 1.1-16.2 1.5-24.4 1.6-8.2 0-16.3-.5-24.4-1.8-8-1.3-16-3.5-23.3-7-7.4-3.4-14.1-8.1-19.6-13.9-1.3-1.5-2.6-3.1-3.9-4.6-1.1-1.6-2.2-3.2-3.3-4.7-2.2-3.4-3.9-6.8-5.4-10.4-3-7.1-5.2-14.2-7.5-21.2-2.2-7-4.3-13.9-5.8-20.7-1.6-6.9-2.4-13.6-2.8-20.2-.5-6.6-.7-12.9-1-18.9-.6-12.1-1.1-23.2-1.6-33.1-.5-9.9-.8-18.4-1.2-25.5-.7-14.2-1-22.2-1-22.2z"/><path d="M6494.1-544.2s.8 0 2.4.1c1.6.1 3.8.2 6.7.3 2.9.2 6.4.3 10.5.5 4 .2 8.6.3 13.6.5s10.4.3 16.1.5c5.7.2 11.7.2 17.9.4 6.2.1 12.6.1 19.2.2 6.5.1 13.2 0 19.8.1 6.6 0 13.3 0 19.8-.1s13-.1 19.2-.2c12.5-.1 24.1-.2 34-.3 10-.1 18.3-.1 24.1-.1h9.1s-.8.1-2.4.2c-1.6.1-3.8.2-6.7.4-5.8.3-14.1.8-24.1 1.3-10 .5-21.6.9-34 1.3-6.2.1-12.7.4-19.2.4-6.5.1-13.2.1-19.8.2-6.6 0-13.3 0-19.8-.2-6.5-.1-13-.3-19.2-.4-6.2-.2-12.3-.4-18-.8-2.9-.2-5.6-.3-8.3-.5-2.7-.2-5.3-.4-7.8-.5-2.5-.2-4.9-.3-7.1-.5-2.3-.2-4.4-.4-6.4-.6-4-.4-7.6-.7-10.4-1-2.9-.3-5.2-.6-6.7-.7-1.7-.4-2.5-.5-2.5-.5z"/><linearGradient id="SVGID_2_" gradientUnits="userSpaceOnUse" x1="348.398" y1="650.151" x2="348.398" y2="454.42"><stop offset="0" stop-color="#fff" stop-opacity="0"/><stop offset="1" stop-color="#fffef0" stop-opacity=".9"/></linearGradient><path class="st3" d="M387.2 523c.8-22.9 1.6-45.7 2.4-68.6-14.8 2.3-29.6 4.4-44.5 4.5-12.6 0-25.2-1.4-37.7-2.9 1.7 33.9 2.5 67.8 2.4 101.8-.1 22.3 1.9 43.8 2.9 66.1.2 4.8.5 9.9 2.6 14.2 2.5 5 7.3 8.3 12.4 10 5.1 1.7 10.4 1.8 15.7 2 4.6.2 8.5.1 13.1-.1 7.6-.4 15.8-2.6 20.3-9.2 3-4.4 3.9-10 4.7-15.4 1-6.6 1.7-9.3 2.6-15.8 3.6-28.7 2.1-57.8 3.1-86.6z"/><path class="st1" d="M401.1 427.5c-.7 20.8-9.4 210.5-11.1 227.6-1 10.4 3 29.7-5.2 37.7-2.7 2.6-6.5 3.8-10.2 4.7-12 2.8-24.3 3-36.4 1.2-8.4-1.3-19.2-.8-25.2-8-3.3-4-3.8-9.5-4.1-14.7-2.1-39.2-3.9-77.1-5.1-116.4-1.3-43.1-4.1-130.9-4.8-131s68.6-.5 102.1-1.1z"/><path d="M306.9 434.7s.1 1.9.4 5.5c.3 3.6.7 8.8 1.1 15.4.4 6.6.9 14.7 1.4 24 .5 9.3.9 19.7 1.2 31.1.3 11.4.6 23.8.7 36.9.1 6.5 0 13.3.2 20.1.2 6.8.5 13.8.8 21 .4 7.1.9 14.4 1.3 21.7l.6 11.1c.2 3.7.3 7.5.8 11 .2 1.8.6 3.5 1.2 5.2.1.4.3.8.5 1.2l.3.6.3.6c.2.4.4.7.7 1.1.3.4.5.7.8 1 2.2 2.7 5.2 4.8 8.6 6 3.4 1.3 7 1.8 10.7 2.1 3.7.2 7.5.4 11.3.3 1.9 0 3.8 0 5.7-.1 1.9-.1 3.7-.2 5.5-.4 3.6-.5 7.2-1.5 10.2-3.3 3-1.8 5.5-4.4 6.9-7.7 1.5-3.2 2.1-6.9 2.7-10.5.5-3.7 1.2-7.5 1.9-11.1.7-3.6 1.1-7.2 1.5-10.9.8-7.2 1.3-14.5 1.6-21.6.6-14.2.6-28 .9-41.1.2-13.1.8-25.5 1.2-36.9.5-11.4.9-21.9 1.4-31.1.4-9.3.8-17.3 1.1-24 .6-13.3 1-20.9 1-20.9s-.2 7.6-.4 20.9c-.2 6.7-.3 14.7-.6 24-.2 9.3-.5 19.7-.8 31.2-.3 11.4-.8 23.8-.7 36.8 0 13.1.1 26.9-.5 41.2-.3 7.2-.8 14.4-1.6 21.8-.4 3.6-.8 7.4-1.5 11.1-.7 3.7-1.3 7.3-1.8 11-.6 3.7-1.2 7.6-2.9 11.3-1.6 3.7-4.5 6.9-8 9-3.5 2.1-7.4 3.2-11.3 3.7-2 .3-3.9.4-5.8.5-1.9.1-3.8.1-5.8.1-3.9 0-7.7-.1-11.5-.4-1.9-.1-3.9-.4-5.8-.7-1-.2-1.9-.4-2.9-.7-.5-.1-.9-.3-1.4-.4-.5-.2-1-.3-1.4-.5-3.7-1.4-7.2-3.8-9.7-7-2.6-3.2-3.8-7.2-4.3-11.1-.5-3.9-.5-7.6-.7-11.3l-.6-11.1c-.4-7.3-.8-14.6-1.2-21.7-.3-7.1-.6-14.2-.7-21.1-.1-6.9.1-13.6.1-20.1.1-13.1 0-25.4-.2-36.8-.2-11.4-.4-21.9-.7-31.1-.3-9.3-.6-17.4-.8-24-.7-13.3-1-20.9-1-20.9z"/><path d="M308 457.9s1.3.1 3.6.4c2.3.2 5.5.6 9.4 1 7.8.7 18.2 1.6 28.5 1.2 5.2-.2 10.4-.6 15.2-1.1 2.4-.2 4.8-.5 7-.7 2.2-.3 4.3-.5 6.3-.7 7.7-.9 12.9-1.6 12.9-1.6v.1s-1.3.2-3.5.7c-1.1.2-2.5.5-4 .7-1.6.3-3.3.6-5.3.9-3.9.6-8.4 1.2-13.2 1.7-4.9.5-10.1.8-15.3.9-5.2.1-10.4-.1-15.3-.4-4.9-.3-9.4-.8-13.3-1.2-3.9-.4-7.1-.9-9.4-1.1-2.3-.5-3.6-.7-3.6-.8z"/></svg>