<?xml version="1.0" encoding="utf-8"?>
<!-- Generator: Adobe Illustrator 19.2.0, SVG Export Plug-In . SVG Version: 6.00 Build 0)  -->
<svg version="1.1" id="Layer_1" xmlns="http://www.w3.org/2000/svg" xmlns:xlink="http://www.w3.org/1999/xlink" x="0px" y="0px"
	 viewBox="0 0 700 700" style="enable-background:new 0 0 700 700;" xml:space="preserve">
<style type="text/css">
	.st0{fill:none;}
	.st1{fill:none;stroke:#000000;stroke-width:5;stroke-miterlimit:10;}
	.st2{opacity:0.9;fill:url(#SVGID_1_);}
	.st3{fill:#770725;}
</style>
<rect x="0" y="0" class="st0" width="700" height="700"/>
<path class="st1" d="M6708.6-568.1c0.3,38.5,0.2,82.4-5.7,120.5c-2.3,14.7-3.7,31.7-10.6,44.9c-9.4,17.9-18.6,35.9-34,49.5
	c-5.5,4.9-11.5,9.2-17.9,12.8c-4.2,2.3-15.3,5.1-15.9,10.8c-0.4,3.6,3.8,5.7,6.9,7.6c6.9,4.3,10.9,12.3,11.6,20.4
	c1.5,15.4-5.6,30.7-18.9,38.8c-0.8,0.5-1.6,1-1.9,1.8c-0.7,2.1,2.1,3.4,4.2,3.8c12.1,2.1,24,5,35.7,8.7c7.7,2.4,24.3,10.6,12,18.5
	c-7.7,4.9-17,6.2-26,7.3c-24.7,3.1-49.7,6.2-74.5,3.9c-5.6-0.5-11.2-1.4-16.8-2.2c-7.5-1.1-15-2.2-22.5-3.3
	c-5.3-0.8-11.8-2.7-12.7-7.9c-1.7-10.2,16.6-15.1,23.6-17.2c4.9-1.5,36.5-4.6,35.6-9.3c-0.5-2.4-2.8-3.9-4.8-5.4
	c-8.9-6.4-15-16.4-16.6-27.2c-1.6-10.8,1.3-22.2,7.9-30.9c2.2-2.9,4.9-6,4.4-9.6c-0.2-1.5-1-2.9-2-4.1c-5.1-6.7-15.9-9.5-22.8-14.7
	c-7.9-6-15.2-12.8-21.6-20.4c-12.5-14.5-22.1-31.5-27.6-49.9c-5.2-17.2-6.9-35.3-8.2-53.2c-2.3-31-3.6-62-3.8-93.1
	c20.2-2.4,42-1.8,62.4-1.4C6600.9-567.5,6708.6-570.2,6708.6-568.1z"/>
<g>
	<path d="M6582-253.2c0,0,0,0.2,0,0.5c0,0.3,0,0.8,0,1.4c0,0.6,0.1,1.3,0.6,1.9c0.4,0.6,1.2,0.8,2.2,0.8c2.1-0.1,4.5-0.2,7.1-0.2
		c1.3,0,2.7-0.1,4-0.1c1.4-0.1,2.8-0.1,4.1-0.2c1.4-0.1,2.8-0.1,4.1-0.2c1.4-0.1,2.7-0.1,4-0.2c2.6-0.1,5-0.2,7.1-0.3
		c2-0.1,3.7-0.6,4.6-1.3c0.4-0.4,0.7-0.8,0.8-1.1c0.1-0.3,0.2-0.5,0.2-0.5s0,0.2,0,0.5c-0.1,0.3-0.2,0.8-0.6,1.3
		c-0.4,0.5-1.1,1-1.9,1.4c-0.8,0.4-1.8,0.7-2.8,0.8c-2.1,0.4-4.5,0.7-7.1,0.9c-1.3,0.1-2.7,0.3-4,0.4c-1.4,0.1-2.8,0.2-4.2,0.2
		c-1.4,0-2.8,0.1-4.2,0.1c-1.4,0-2.7,0-4.1,0c-2.6-0.1-5.1-0.2-7.2-0.4c-0.5-0.1-1.1-0.1-1.6-0.4c-0.5-0.3-0.9-0.7-1.1-1.1
		c-0.4-0.9-0.4-1.7-0.3-2.3c0.1-0.6,0.2-1.1,0.3-1.4C6581.9-253,6582-253.2,6582-253.2z"/>
</g>
<g>
	<path d="M6581.6-337.8c0,0,0.6,0.2,1.6,0.5c0.5,0.2,1.2,0.3,1.9,0.5c0.7,0.2,1.6,0.4,2.4,0.5c0.9,0.2,1.9,0.3,2.9,0.5
		c1,0.1,2.1,0.2,3.3,0.3c1.1,0.1,2.3,0.1,3.5,0.2c1.2,0,2.4,0,3.6,0c1.2,0,2.5,0,3.7-0.1c1.2,0,2.4-0.1,3.6-0.1
		c2.3-0.1,4.5-0.1,6.3-0.3c1.8-0.2,3.2-0.6,4.1-1.2c0.4-0.3,0.8-0.6,1-0.8c0.2-0.2,0.3-0.3,0.3-0.3s-0.1,0.1-0.2,0.4
		c-0.2,0.3-0.4,0.6-0.8,1c-0.8,0.8-2.3,1.6-4.2,2c-0.9,0.2-2,0.4-3,0.5c-1.1,0.1-2.2,0.3-3.3,0.4c-1.2,0.1-2.4,0.2-3.6,0.3
		c-1.2,0.1-2.5,0.1-3.7,0.2c-1.3,0-2.5,0-3.7-0.1c-0.6,0-1.2-0.1-1.8-0.1c-0.6-0.1-1.2-0.1-1.8-0.2c-1.2-0.1-2.3-0.4-3.4-0.6
		c-0.5-0.1-1-0.3-1.5-0.4c-0.5-0.2-1-0.3-1.4-0.4c-1.8-0.6-3.2-1.3-4.2-1.8C6582.2-337.5,6581.6-337.8,6581.6-337.8z"/>
</g>
<g>
	<path d="M6531.5-235.7c0,0,0.1,0.1,0.3,0.3c0.2,0.2,0.5,0.4,1,0.6c0.9,0.5,2.3,1,4.2,1.4c1.9,0.4,4.2,0.7,6.8,1.1
		c2.6,0.4,5.6,0.7,8.9,1.1c3.3,0.3,6.8,0.7,10.6,1c3.7,0.3,7.7,0.5,11.8,0.7c8.2,0.3,17,0.5,25.7,0.6c4.4,0.1,8.8,0.1,13.1,0.2
		c4.3,0,8.5,0.1,12.6,0c4.1-0.1,8-0.4,11.7-0.8c3.7-0.5,7.2-1.1,10.4-1.7c6.4-1.4,11.6-3,15.2-4.3c1.8-0.7,3.2-1.2,4.2-1.6
		c1-0.4,1.5-0.6,1.5-0.6s-0.5,0.2-1.4,0.7c-0.9,0.4-2.3,1.1-4.1,1.8c-3.5,1.5-8.7,3.5-15.1,5.1c-6.4,1.6-14.1,2.9-22.3,3.2
		c-4.1,0.2-8.4,0.2-12.7,0.2c-4.3,0-8.7-0.1-13.1-0.1c-4.4-0.1-8.8-0.2-13.1-0.3c-4.3-0.1-8.6-0.4-12.7-0.6c-4.1-0.3-8.1-0.6-11.8-1
		c-3.8-0.4-7.3-0.8-10.6-1.3c-1.6-0.3-3.2-0.5-4.7-0.7c-1.5-0.3-2.9-0.5-4.2-0.8c-2.6-0.5-4.9-1-6.8-1.5c-1.9-0.5-3.3-1.1-4.1-1.7
		c-0.4-0.3-0.7-0.5-0.9-0.7C6531.6-235.6,6531.5-235.7,6531.5-235.7z"/>
</g>
<linearGradient id="SVGID_1_" gradientUnits="userSpaceOnUse" x1="6498.813" y1="-446.2358" x2="6704.6909" y2="-446.2358">
	<stop  offset="1.785714e-02" style="stop-color:#801FE3"/>
	<stop  offset="1" style="stop-color:#B7A7FF"/>
</linearGradient>
<path class="st2" d="M6498.8-539.9c1.4,24.4,2.7,48.8,4.1,73.2c0.4,7.9,0.9,15.9,2.2,23.7c1.8,11.1,5.4,21.8,8.9,32.5
	c3,9.1,6,18.2,11.1,26.3c17.8,28.1,51.5,32.7,81.9,31.3c10.6-0.5,21.3-1.5,31.5-4.7c66.9-21.3,65.2-117,66.1-172.7
	c0-2.6,0.1-5.1,0.1-7.7C6636-535.8,6567.2-534,6498.8-539.9z"/>
<g>
	<path d="M6493.7-559.6c0,0,0.6,8.1,1.5,22.2c0.5,7.1,1,15.6,1.7,25.5c0.6,9.8,1.4,20.9,2.1,33.1c0.4,6.1,0.7,12.4,1.3,18.9
		c0.5,6.5,1.4,13.2,3,19.9c1.6,6.7,3.7,13.5,6,20.4c2.4,6.9,4.5,14,7.5,20.9c0.8,1.7,1.5,3.4,2.4,5.1c0.9,1.6,1.8,3.3,2.8,4.8
		c1.1,1.6,2.2,3.1,3.4,4.7c1.2,1.4,2.5,2.8,3.7,4.3c5.3,5.5,11.7,10,18.8,13.2c7.1,3.3,14.8,5.4,22.6,6.6c7.9,1.3,15.9,1.7,23.9,1.7
		c8-0.1,16.1-0.4,24-1.5c3.9-0.5,7.9-1.2,11.7-2.2c1-0.3,1.9-0.5,2.8-0.8l0.7-0.2c0.1,0,0,0,0.1,0l0.2-0.1l0.4-0.1l1.4-0.5l2.8-1
		c0.5-0.2,0.9-0.3,1.4-0.5l1.3-0.6c7.1-3.1,13.7-7.4,19.4-12.5c5.7-5.1,10.5-11.1,14.4-17.5c4-6.3,7.1-13.1,9.7-19.8
		c2.6-6.8,4.6-13.6,6.3-20.3c3.2-13.5,5-26.5,6.2-38.5c1.1-12.1,1.7-23.2,2-33c0.3-9.9,0.5-18.4,0.7-25.5
		c0.2-14.2,0.4-22.2,0.4-22.2s0,2,0.1,5.8c0,3.8,0.1,9.4,0.2,16.4c0,7.1,0,15.7-0.2,25.5c-0.1,9.9-0.5,21-1.5,33.1
		c-1,12.1-2.6,25.2-5.7,38.9c-1.6,6.8-3.6,13.7-6.1,20.6c-2.5,6.9-5.7,13.8-9.8,20.3c-4,6.5-9,12.7-14.8,18.1
		c-5.9,5.4-12.7,9.8-20.2,13.1l-1.4,0.6c-0.5,0.2-0.9,0.4-1.4,0.5l-2.8,1l-1.4,0.5l-0.4,0.1l-0.2,0.1l-0.2,0.1l-0.7,0.2
		c-1,0.3-2,0.6-2.9,0.8c-3.9,1-8,1.8-12,2.4c-8.1,1.1-16.2,1.5-24.4,1.6c-8.2,0-16.3-0.5-24.4-1.8c-8-1.3-16-3.5-23.3-7
		c-7.4-3.4-14.1-8.1-19.6-13.9c-1.3-1.5-2.6-3.1-3.9-4.6c-1.1-1.6-2.2-3.2-3.3-4.7c-2.2-3.4-3.9-6.8-5.4-10.4
		c-3-7.1-5.2-14.2-7.5-21.2c-2.2-7-4.3-13.9-5.8-20.7c-1.6-6.9-2.4-13.6-2.8-20.2c-0.5-6.6-0.7-12.9-1-18.9
		c-0.6-12.1-1.1-23.2-1.6-33.1c-0.5-9.9-0.8-18.4-1.2-25.5C6494-551.6,6493.7-559.6,6493.7-559.6z"/>
</g>
<g>
	<path d="M6494.1-544.2c0,0,0.8,0,2.4,0.1c1.6,0.1,3.8,0.2,6.7,0.3c2.9,0.2,6.4,0.3,10.5,0.5c4,0.2,8.6,0.3,13.6,0.5
		c5,0.2,10.4,0.3,16.1,0.5c5.7,0.2,11.7,0.2,17.9,0.4c6.2,0.1,12.6,0.1,19.2,0.2c6.5,0.1,13.2,0,19.8,0.1c6.6,0,13.3,0,19.8-0.1
		c6.5-0.1,13-0.1,19.2-0.2c12.5-0.1,24.1-0.2,34-0.3c10-0.1,18.3-0.1,24.1-0.1c2.9,0,5.2,0,6.7,0c1.6,0,2.4,0,2.4,0
		s-0.8,0.1-2.4,0.2c-1.6,0.1-3.8,0.2-6.7,0.4c-5.8,0.3-14.1,0.8-24.1,1.3c-10,0.5-21.6,0.9-34,1.3c-6.2,0.1-12.7,0.4-19.2,0.4
		c-6.5,0.1-13.2,0.1-19.8,0.2c-6.6,0-13.3,0-19.8-0.2c-6.5-0.1-13-0.3-19.2-0.4c-6.2-0.2-12.3-0.4-18-0.8c-2.9-0.2-5.6-0.3-8.3-0.5
		c-2.7-0.2-5.3-0.4-7.8-0.5c-2.5-0.2-4.9-0.3-7.1-0.5c-2.3-0.2-4.4-0.4-6.4-0.6c-4-0.4-7.6-0.7-10.4-1c-2.9-0.3-5.2-0.6-6.7-0.7
		C6494.9-544.1,6494.1-544.2,6494.1-544.2z"/>
</g>
<g>
	<path class="st3" d="M464.9,325.9c8.3-13.1,13.2-28,14.4-43.6c0.7-8.8,0.8-16.3-0.4-24.3c-22.2,4.8-45.2,4.8-67.9,4.7
		c-45.8-0.2-91.6-0.3-137.5-0.5c-7.9,0-15.8-0.1-23.7-0.8c-8.4-0.8-16.7-2.3-24.8-4.5c-0.4,13.6-1.5,27.4,1.7,40.7
		c4.4,18.6,15.2,35.2,28.3,48.9c2.9,3,6.5,5.6,9.5,8.5c18.4,17.8,36.8,35.6,55.2,53.4c5,4.8,9.7,10,15.5,13.6
		c5.6,3.5,16.5,2.9,16.5,2.9c7.8-0.9,15.8-2,22.3-6.5c4.6-3.2,8-7.8,11.7-12c15.3-17.1,34-30.1,50.9-45.6
		C447.9,350.4,456.6,339,464.9,325.9z"/>
	<path class="st1" d="M259.6,104.5c-13,33.9-25.6,73.7-34.3,109c-8.1,33-16.9,69.9-5.3,101.8c19.7,54.1,86.7,76.7,108.3,130.1
		c6.9,17.1,8.7,39.1,9.8,57.8c1.8,30,2.2,60,0.6,90c-0.6,11.6-0.6,23.1-1.6,34.6c-1,10.8-0.2,21-6.5,30.5
		c-0.1,0.1-20.7,1.9-24.9,2.6c-9.1,1.5-46,6.3-54.5,10.9c-1.2,0.7-2.5,1.4-3.3,2.5c-1.1,1.6-1.1,3.8-0.9,5.8
		c0.1,2.4,0.3,4.9,1.9,6.7c1,1.1,2.5,1.8,4,2.4c9.9,4,31.5,8.7,50.3,9.6c10.2,0.5,44.5,0.7,67.8,1.1c22.7,0.4,65.9-2.8,80.3-12.9
		c2.3-5.5,0.5-9.6,0-11.2c-1.8-1.6-12.8-11.4-51.5-16c-5.4-0.7-10.9-0.9-16.3-1.1c-5.2-0.1-16.2,0.3-16.4,0.1
		c-0.2-0.1-6.1-8.8-8.2-23.7c-3.2-22.4-2.2-45.5-2.4-68.2c-0.7-67.1,3.7-131.9,51.5-169.5c25.2-19.8,54.4-46.2,69.7-77.2
		c14.1-28.7,6.1-60.1-1-90.7c-9.8-42.5-26-83.9-34.3-126.1c-0.1-0.3-0.3-0.5-0.6-0.5C350.7,107,258.2,104,259.6,104.5z"/>
	<g>
		<path d="M436.9,111.7c0,0,0,0.2,0.1,0.6c0,0.4,0.1,0.9,0.3,1.6c0.3,1.4,0.8,3.5,1.5,6.2c1.4,5.4,3.8,13.3,6.8,23.3
			c3.1,10,6.8,22.2,11,36.1c1,3.5,2.1,7.1,3.1,10.9c0.5,1.9,1,3.8,1.4,5.8c0.4,1.9,0.9,3.9,1.4,5.9c1.9,8,3.8,16.3,5.9,25.1
			c2.1,8.7,4.3,17.8,6.7,27.2c0.6,2.3,1.3,4.7,1.8,7.2c0.5,2.4,0.9,4.9,1.1,7.4c0.5,5,0.5,10.2,0.2,15.3c-0.1,2.6-0.3,5.2-0.6,7.8
			c-0.3,2.6-0.6,5.3-1.2,7.9c-1,5.2-2.4,10.5-4.3,15.6c-1.9,5.1-4.3,10.2-7.1,15c-2.9,4.8-6,9.4-9.2,14
			c-6.6,9.2-14.2,17.9-22.9,25.7c-8.6,7.8-17.8,15.1-26.7,22.7c-8.9,7.6-17.6,15.6-25.2,24.7c-1.9,2.3-4,4.6-6.3,6.6
			c-0.6,0.5-1.2,1-1.8,1.5l-0.5,0.3l-0.3,0.2l-0.2,0.2l-0.9,0.6c-1.4,0.8-2.8,1.5-4.2,2.1c-2.9,1.2-5.9,2-8.9,2.5
			c-1.5,0.3-3,0.5-4.5,0.7l-2.2,0.3l-1.1,0.1l-0.6,0.1c-0.1,0-0.4,0-0.4,0l-0.3,0c-3.1,0.1-6.2-0.1-9.2-0.6
			c-1.5-0.3-3.1-0.6-4.6-1.1c-0.8-0.3-1.5-0.6-2.3-1c-0.2-0.1-0.4-0.2-0.6-0.3l-0.3-0.2l-0.2-0.2l-0.9-0.6
			c-5.2-3.5-9.3-7.9-13.6-12.1c-8.5-8.3-17.1-16.6-25.5-24.8c-8.4-8.2-16.8-16.3-25.1-24.4c-2.1-2-4.1-4-6.2-6
			c-2-1.9-4.3-3.7-6.4-5.6c-0.5-0.5-1.1-1-1.6-1.5l-0.8-0.8l-0.7-0.8c-1-1-1.9-2.1-2.9-3.2c-1.9-2.1-3.7-4.3-5.5-6.6
			c-7-8.9-12.7-18.7-16.4-29c-1.8-5.2-3.2-10.4-4-15.7c-0.8-5.3-1-10.6-1-15.7c0-5.2,0.2-10.3,0.4-15.2c0-1.2,0.1-2.5,0.1-3.7
			l0.1-1.8c0-0.7,0.1-1.2,0.2-1.9c0.4-2.6,0.9-4.9,1.4-7.3c2.1-9.5,4.4-18.5,6.6-27.2c4.5-17.4,8.8-33.3,12.8-47.3
			c4-14,7.6-26.2,10.8-36.2c3.1-10,5.8-17.8,7.6-23.1c0.9-2.6,1.7-4.7,2.2-6c0.5-1.4,0.8-2.1,0.8-2.1s-0.2,0.7-0.7,2.1
			c-0.5,1.4-1.2,3.4-2.1,6.1c-1.8,5.3-4.2,13.2-7.2,23.2c-6,20.1-13.9,48.9-22.5,83.7c-2.1,8.7-4.4,17.8-6.4,27.2
			c-0.5,2.3-1,4.8-1.3,7.1c-0.1,0.5-0.1,1.3-0.2,1.8l0,1.9c0,1.2-0.1,2.5-0.1,3.7c-0.2,5-0.3,10.1-0.3,15.2
			c0.1,5.1,0.3,10.3,1.1,15.4c0.8,5.1,2.2,10.2,4.1,15.2c3.7,10,9.3,19.5,16.1,28.2c1.7,2.2,3.5,4.3,5.4,6.4c0.9,1,1.9,2.1,2.9,3.1
			l0.7,0.8l0.7,0.7c0.5,0.5,1,1,1.5,1.4c2.1,1.9,4.3,3.6,6.5,5.6c2.1,2,4.1,4,6.2,6c8.3,8,16.7,16.1,25.2,24.3
			c8.5,8.2,17,16.4,25.6,24.7c4.3,4.2,8.4,8.5,13.2,11.7l0.9,0.6l0.2,0.2l0.2,0.1c0.1,0.1,0.3,0.2,0.4,0.2c0.6,0.3,1.2,0.6,1.9,0.8
			c1.3,0.5,2.7,0.8,4.1,1c2.8,0.4,5.8,0.6,8.7,0.5l0.3,0c0.2,0,0,0,0.2,0l0.6-0.1l1.1-0.1l2.2-0.3c1.5-0.2,2.9-0.4,4.4-0.7
			c2.9-0.5,5.7-1.3,8.3-2.3c1.3-0.5,2.6-1.2,3.8-1.9l0.9-0.6l0.2-0.2c0.1-0.1,0.1-0.1,0.2-0.1l0.4-0.3c0.6-0.4,1.1-0.9,1.7-1.3
			c2.2-1.9,4.1-4.1,6-6.3c7.7-9.2,16.6-17.3,25.6-25c9-7.6,18.2-14.9,26.7-22.6c8.6-7.6,16.1-16.1,22.6-25.2
			c3.2-4.5,6.4-9.1,9.2-13.8c2.7-4.7,5.1-9.5,7-14.5c1.9-5,3.3-10.1,4.3-15.2c0.5-2.6,0.9-5.1,1.2-7.7c0.3-2.6,0.5-5.1,0.6-7.7
			c0.3-5.1,0.4-10.1-0.1-15c-0.2-2.5-0.6-4.9-1.1-7.3c-0.5-2.4-1.1-4.7-1.7-7.1c-2.4-9.4-4.4-18.5-6.5-27.3
			c-2-8.7-3.9-17.1-5.7-25.1c-0.4-2-0.9-4-1.3-5.9c-0.4-1.9-0.8-3.8-1.3-5.7c-1-3.7-2-7.4-3-10.9c-4.1-14-7.6-26.2-10.5-36.3
			c-2.9-10.1-5.1-18-6.4-23.4c-0.7-2.7-1.1-4.8-1.4-6.2c-0.1-0.7-0.2-1.3-0.2-1.6C436.9,111.9,436.9,111.7,436.9,111.7z"/>
	</g>
	<g>
		<path d="M222,263.1c0,0,1,0.3,2.8,0.7c1.8,0.5,4.5,1.1,7.9,1.7c3.4,0.6,7.6,1.3,12.4,1.8c4.8,0.5,10.3,0.7,16.3,0.8
			c6,0,12.5,0,19.3-0.1c6.9,0,14.1-0.1,21.6-0.1c15-0.1,30.9-0.1,46.9-0.2c16-0.1,31.9-0.2,46.9-0.2c7.5,0.1,14.7,0.1,21.6,0.2
			c6.9,0.1,13.3,0.1,19.3,0c6-0.1,11.4-0.3,16.3-0.7c4.8-0.3,9-0.8,12.5-1.2c1.7-0.2,3.3-0.4,4.6-0.6c1.3-0.2,2.5-0.4,3.4-0.5
			c1.8-0.3,2.8-0.5,2.8-0.5l0.1,0.3c0,0-1,0.2-2.8,0.7c-0.9,0.2-2,0.5-3.4,0.8c-1.3,0.3-2.9,0.6-4.6,0.9c-1.7,0.3-3.6,0.6-5.7,1
			c-2.1,0.3-4.4,0.6-6.8,0.9c-4.9,0.5-10.3,1-16.3,1.3c-6,0.3-12.5,0.4-19.4,0.5c-6.9,0.1-14.1,0-21.6,0.1
			c-15-0.1-30.9-0.3-46.9-0.5c-16-0.2-31.9-0.3-46.9-0.5c-7.5-0.1-14.7-0.2-21.6-0.2c-6.9-0.1-13.3-0.1-19.3-0.3
			c-6-0.2-11.5-0.5-16.3-1.1c-4.8-0.6-9-1.3-12.5-2c-3.4-0.7-6.1-1.4-7.9-1.9c-1.8-0.5-2.8-0.8-2.8-0.8L222,263.1z"/>
	</g>
	<g>
		<path d="M334.9,660.8l0-0.3l0.1,0c-0.1,0.6,0.3,1.1,0.7,1.4c0.5,0.3,1.1,0.5,1.6,0.6c0.6,0.1,1.3,0.2,1.9,0.2
			c0.6,0.1,1.2,0.1,1.9,0.2c2.5,0.2,5,0.3,7.6,0.3l3.8,0.1l3.8,0.1c1.2,0,2.5,0,3.6-0.3c1.2-0.3,2.3-0.9,3.3-1.6
			c-0.7,1.1-1.8,2-3,2.6c-1.2,0.6-2.6,0.8-3.9,1c-1.3,0.1-2.6,0.2-3.9,0.2c-1.3,0.1-2.6,0.1-3.9,0.1c-1.3,0-2.6-0.1-3.9-0.2
			c-1.3-0.1-2.6-0.3-3.9-0.6c-0.6-0.1-1.3-0.3-1.9-0.4c-0.6-0.2-1.3-0.4-1.9-0.6c-0.7-0.2-1.3-0.6-1.8-1.1c-0.2-0.3-0.4-0.6-0.5-0.9
			c-0.1-0.4,0-0.7,0.1-1l0.2-0.3l-0.1,0.4L334.9,660.8z"/>
	</g>
	<g>
		<path d="M257.6,678.8c0,0,0.1,0.2,0.3,0.4c0.2,0.3,0.5,0.7,1,1.2c1,1,2.6,2.3,5,3.2c1.2,0.5,2.6,0.9,4.1,1.1
			c1.5,0.2,3.2,0.4,5,0.7c3.6,0.4,7.6,0.9,12,1.4c4.4,0.5,9.2,1,14.3,1.5c2.5,0.2,5.1,0.5,7.8,0.6c2.7,0.1,5.4,0.3,8.2,0.5
			c11.1,0.6,22.9,1.3,34.7,2c3,0.2,5.9,0.5,8.8,0.5c2.9,0,5.9,0,8.8-0.1c2.9-0.1,5.8-0.1,8.6-0.2c1.4-0.1,2.8-0.1,4.2-0.2
			c1.4-0.1,2.8-0.3,4.1-0.4c11-1.2,21.3-2.2,30.2-3.1c4.4-0.5,8.4-0.9,11.9-1.7c3.5-0.7,6.5-1.7,8.8-2.8c2.3-1.1,4.1-2.2,5.2-3
			c1.1-0.8,1.7-1.3,1.7-1.3s-0.5,0.5-1.6,1.4c-1.1,0.8-2.8,2.1-5.1,3.2c-2.3,1.2-5.3,2.3-8.8,3.2c-3.5,0.9-7.6,1.5-12,2.1
			c-8.8,1.1-19.1,2.5-30.1,3.7c-1.4,0.2-2.7,0.3-4.2,0.5c-1.4,0.1-2.9,0.2-4.3,0.3c-2.9,0.1-5.8,0.2-8.7,0.3
			c-2.9,0.1-5.9,0.1-8.8,0.1c-3,0-5.9-0.3-8.9-0.4c-11.8-0.8-23.6-1.5-34.7-2.3c-2.8-0.2-5.5-0.4-8.2-0.6c-2.7-0.2-5.3-0.5-7.8-0.8
			c-5.1-0.6-9.8-1.2-14.2-1.8c-4.4-0.6-8.4-1.2-12-1.7c-1.8-0.3-3.5-0.6-5-0.8c-1.5-0.3-2.9-0.8-4.1-1.3c-2.4-1.1-4-2.5-4.9-3.5
			c-0.5-0.5-0.8-1-1-1.3C257.7,678.9,257.6,678.8,257.6,678.8z"/>
	</g>
</g>
</svg>
