<svg id="Layer_1" xmlns="http://www.w3.org/2000/svg" viewBox="0 0 705 705"><style>.st0,.st1{fill:none}.st1{stroke:#000;stroke-width:5;stroke-miterlimit:10}.st2{opacity:.9;fill:url(#SVGID_1_);enable-background:new}.st3{fill:#edf78d}</style><path class="st0" d="M122.5 0h460v705h-460V0z"/><path class="st1" d="M6711.1-565.6c.3 38.5.2 82.4-5.7 120.5-2.3 14.7-3.7 31.7-10.6 44.9-9.4 17.9-18.6 35.9-34 49.5-5.5 4.9-11.5 9.2-17.9 12.8-4.2 2.3-15.3 5.1-15.9 10.8-.4 3.6 3.8 5.7 6.9 7.6 6.9 4.3 10.9 12.3 11.6 20.4 1.5 15.4-5.6 30.7-18.9 38.8-.8.5-1.6 1-1.9 1.8-.7 2.1 2.1 3.4 4.2 3.8 12.1 2.1 24 5 35.7 8.7 7.7 2.4 24.3 10.6 12 18.5-7.7 4.9-17 6.2-26 7.3-24.7 3.1-49.7 6.2-74.5 3.9-5.6-.5-11.2-1.4-16.8-2.2l-22.5-3.3c-5.3-.8-11.8-2.7-12.7-7.9-1.7-10.2 16.6-15.1 23.6-17.2 4.9-1.5 36.5-4.6 35.6-9.3-.5-2.4-2.8-3.9-4.8-5.4-8.9-6.4-15-16.4-16.6-27.2-1.6-10.8 1.3-22.2 7.9-30.9 2.2-2.9 4.9-6 4.4-9.6-.2-1.5-1-2.9-2-4.1-5.1-6.7-15.9-9.5-22.8-14.7-7.9-6-15.2-12.8-21.6-20.4-12.5-14.5-22.1-31.5-27.6-49.9-5.2-17.2-6.9-35.3-8.2-53.2-2.3-31-3.6-62-3.8-93.1 20.2-2.4 42-1.8 62.4-1.4 52.8 1.1 160.5-1.6 160.5.5z"/><path d="M6584.5-250.7v1.9c0 .6.1 1.3.6 1.9.4.6 1.2.8 2.2.8 2.1-.1 4.5-.2 7.1-.2 1.3 0 2.7-.1 4-.1 1.4-.1 2.8-.1 4.1-.2 1.4-.1 2.8-.1 4.1-.2 1.4-.1 2.7-.1 4-.2 2.6-.1 5-.2 7.1-.3 2-.1 3.7-.6 4.6-1.3.4-.4.7-.8.8-1.1.1-.3.2-.5.2-.5v.5c-.1.3-.2.8-.6 1.3s-1.1 1-1.9 1.4-1.8.7-2.8.8c-2.1.4-4.5.7-7.1.9-1.3.1-2.7.3-4 .4-1.4.1-2.8.2-4.2.2-1.4 0-2.8.1-4.2.1h-4.1c-2.6-.1-5.1-.2-7.2-.4-.5-.1-1.1-.1-1.6-.4-.5-.3-.9-.7-1.1-1.1-.4-.9-.4-1.7-.3-2.3s.2-1.1.3-1.4c-.1-.3 0-.5 0-.5zm-.4-84.6s.6.2 1.6.5c.5.2 1.2.3 1.9.5s1.6.4 2.4.5c.9.2 1.9.3 2.9.5 1 .1 2.1.2 3.3.3 1.1.1 2.3.1 3.5.2h3.6c1.2 0 2.5 0 3.7-.1 1.2 0 2.4-.1 3.6-.1 2.3-.1 4.5-.1 6.3-.3 1.8-.2 3.2-.6 4.1-1.2.4-.3.8-.6 1-.8l.3-.3s-.1.1-.2.4c-.2.3-.4.6-.8 1-.8.8-2.3 1.6-4.2 2-.9.2-2 .4-3 .5-1.1.1-2.2.3-3.3.4l-3.6.3c-1.2.1-2.5.1-3.7.2-1.3 0-2.5 0-3.7-.1-.6 0-1.2-.1-1.8-.1-.6-.1-1.2-.1-1.8-.2-1.2-.1-2.3-.4-3.4-.6-.5-.1-1-.3-1.5-.4-.5-.2-1-.3-1.4-.4-1.8-.6-3.2-1.3-4.2-1.8-1-.6-1.6-.9-1.6-.9zM6534-233.2l.3.3c.2.2.5.4 1 .6.9.5 2.3 1 4.2 1.4 1.9.4 4.2.7 6.8 1.1 2.6.4 5.6.7 8.9 1.1 3.3.3 6.8.7 10.6 1 3.7.3 7.7.5 11.8.7 8.2.3 17 .5 25.7.6 4.4.1 8.8.1 13.1.2 4.3 0 8.5.1 12.6 0s8-.4 11.7-.8c3.7-.5 7.2-1.1 10.4-1.7 6.4-1.4 11.6-3 15.2-4.3 1.8-.7 3.2-1.2 4.2-1.6l1.5-.6s-.5.2-1.4.7c-.9.4-2.3 1.1-4.1 1.8-3.5 1.5-8.7 3.5-15.1 5.1s-14.1 2.9-22.3 3.2c-4.1.2-8.4.2-12.7.2-4.3 0-8.7-.1-13.1-.1-4.4-.1-8.8-.2-13.1-.3-4.3-.1-8.6-.4-12.7-.6-4.1-.3-8.1-.6-11.8-1-3.8-.4-7.3-.8-10.6-1.3-1.6-.3-3.2-.5-4.7-.7-1.5-.3-2.9-.5-4.2-.8-2.6-.5-4.9-1-6.8-1.5s-3.3-1.1-4.1-1.7c-.4-.3-.7-.5-.9-.7-.3-.2-.4-.3-.4-.3z"/><linearGradient id="SVGID_1_" gradientUnits="userSpaceOnUse" x1="6501.3" y1="56.211" x2="6707.2" y2="56.211" gradientTransform="translate(0 -500)"><stop offset=".018" stop-color="#801fe3"/><stop offset="1" stop-color="#b7a7ff"/></linearGradient><path class="st2" d="M6501.3-537.4c1.4 24.4 2.7 48.8 4.1 73.2.4 7.9.9 15.9 2.2 23.7 1.8 11.1 5.4 21.8 8.9 32.5 3 9.1 6 18.2 11.1 26.3 17.8 28.1 51.5 32.7 81.9 31.3 10.6-.5 21.3-1.5 31.5-4.7 66.9-21.3 65.2-117 66.1-172.7 0-2.6.1-5.1.1-7.7-68.7 2.2-137.5 4-205.9-1.9z"/><path d="M6496.2-557.1s.6 8.1 1.5 22.2c.5 7.1 1 15.6 1.7 25.5.6 9.8 1.4 20.9 2.1 33.1.4 6.1.7 12.4 1.3 18.9.5 6.5 1.4 13.2 3 19.9 1.6 6.7 3.7 13.5 6 20.4 2.4 6.9 4.5 14 7.5 20.9.8 1.7 1.5 3.4 2.4 5.1.9 1.6 1.8 3.3 2.8 4.8 1.1 1.6 2.2 3.1 3.4 4.7 1.2 1.4 2.5 2.8 3.7 4.3 5.3 5.5 11.7 10 18.8 13.2 7.1 3.3 14.8 5.4 22.6 6.6 7.9 1.3 15.9 1.7 23.9 1.7 8-.1 16.1-.4 24-1.5 3.9-.5 7.9-1.2 11.7-2.2 1-.3 1.9-.5 2.8-.8l.7-.2h.1l.2-.1.4-.1 1.4-.5 2.8-1c.5-.2.9-.3 1.4-.5l1.3-.6c7.1-3.1 13.7-7.4 19.4-12.5 5.7-5.1 10.5-11.1 14.4-17.5 4-6.3 7.1-13.1 9.7-19.8 2.6-6.8 4.6-13.6 6.3-20.3 3.2-13.5 5-26.5 6.2-38.5 1.1-12.1 1.7-23.2 2-33 .3-9.9.5-18.4.7-25.5.2-14.2.4-22.2.4-22.2s0 2 .1 5.8c0 3.8.1 9.4.2 16.4 0 7.1 0 15.7-.2 25.5-.1 9.9-.5 21-1.5 33.1s-2.6 25.2-5.7 38.9c-1.6 6.8-3.6 13.7-6.1 20.6s-5.7 13.8-9.8 20.3c-4 6.5-9 12.7-14.8 18.1-5.9 5.4-12.7 9.8-20.2 13.1l-1.4.6c-.5.2-.9.4-1.4.5l-2.8 1-1.4.5-.4.1-.2.1-.2.1-.7.2c-1 .3-2 .6-2.9.8-3.9 1-8 1.8-12 2.4-8.1 1.1-16.2 1.5-24.4 1.6-8.2 0-16.3-.5-24.4-1.8-8-1.3-16-3.5-23.3-7-7.4-3.4-14.1-8.1-19.6-13.9-1.3-1.5-2.6-3.1-3.9-4.6-1.1-1.6-2.2-3.2-3.3-4.7-2.2-3.4-3.9-6.8-5.4-10.4-3-7.1-5.2-14.2-7.5-21.2-2.2-7-4.3-13.9-5.8-20.7-1.6-6.9-2.4-13.6-2.8-20.2-.5-6.6-.7-12.9-1-18.9-.6-12.1-1.1-23.2-1.6-33.1-.5-9.9-.8-18.4-1.2-25.5-.7-14.2-1-22.2-1-22.2z"/><path d="M6496.6-541.7s.8 0 2.4.1 3.8.2 6.7.3c2.9.2 6.4.3 10.5.5 4 .2 8.6.3 13.6.5s10.4.3 16.1.5 11.7.2 17.9.4c6.2.1 12.6.1 19.2.2 6.5.1 13.2 0 19.8.1 6.6 0 13.3 0 19.8-.1s13-.1 19.2-.2c12.5-.1 24.1-.2 34-.3 10-.1 18.3-.1 24.1-.1h9.1s-.8.1-2.4.2c-1.6.1-3.8.2-6.7.4-5.8.3-14.1.8-24.1 1.3s-21.6.9-34 1.3c-6.2.1-12.7.4-19.2.4-6.5.1-13.2.1-19.8.2-6.6 0-13.3 0-19.8-.2-6.5-.1-13-.3-19.2-.4-6.2-.2-12.3-.4-18-.8-2.9-.2-5.6-.3-8.3-.5-2.7-.2-5.3-.4-7.8-.5-2.5-.2-4.9-.3-7.1-.5-2.3-.2-4.4-.4-6.4-.6-4-.4-7.6-.7-10.4-1-2.9-.3-5.2-.6-6.7-.7-1.7-.4-2.5-.5-2.5-.5z"/><path class="st1" d="M270.8 184.2c6.8 21.6 17.1 27.5 15.8 68.2-.7 21.5-3.3 123.5-1.6 134.1 3 18.3 10.7 35.8 24.2 48.5 5.8 5.5 12.7 9.2 18.9 13.3 6.5 4.2 11.8 9.2 14.5 16.7 1.6 4.5 3.7 12.4 3.5 17.2-.3 7-1.5 113.7-2.6 138.1-.8 17.4-8.3 34.4-17.7 49-4.5 7-12.4 7.9-20.4 10.5-10.1 3.3-32.8 8.5-33.5 9.1-1.5 1.3-1 4 .5 5.3s3.6 1.7 5.6 2c30.3 4.6 60.5 6.7 91.1 5.5 18-.7 36.3-.1 54.1-2.6 2.5-.4 5-.8 7-2.3s3.1-4.4 1.8-6.5c-6.6-1.4-37.6-10.1-44.1-13.6-10-5.4-13.7-14-18.1-24.5s-6.9-21.8-7.7-33.1c-.6-8.7-.6-123.4 0-132.8.4-6.9 1.6-13.8 3.8-20.3 2.2-6.5 6.6-12.6 12.8-15.4 15-6.8 28.1-20.9 36.3-35 4.2-7.2 7.1-18.8 7.6-27 1.3-21.7-.9-125.6-1.9-138.6-1.6-22.1 4.9-46.3 13.6-66.7-39.8 2.1-163.5.9-163.5.9z"/><path d="M280 188s.2.5.7 1.5c.4 1 1.1 2.4 1.9 4.4 1.6 3.9 3.9 9.6 5.9 17.2 2.1 7.6 3.8 17 4.6 27.9.4 5.5.6 11.3.7 17.4.1 6.1-.2 12.6-.4 19.3-.1 3.4-.1 6.8 0 10.2.1 1.7.2 3.5.3 5.3.1 1.8.2 3.6.2 5.4.2 7.3 0 14.8-.3 22.5-.5 15.4-1.3 31.6-.6 48.3.4 8.3 1.1 16.8 2.9 25.1.9 4.2 2.1 8.3 3.8 12.2 1.7 3.9 3.8 7.6 6.7 10.8 1.4 1.6 2.9 3 4.7 4.1.4.3.9.5 1.3.7l1.5.7c1 .4 2 .9 3 1.3 4 1.6 8.3 2.8 12.5 3.8 8.6 2 17.4 2.7 26.3 2.7 4.5.1 8.9.1 13.4.1 2.2 0 4.5 0 6.7-.1 1.1 0 2.2-.1 3.2-.2 1.1-.2 2.2-.3 3.2-.6 2.1-.4 4.1-1.1 6.1-1.9s3.9-1.7 5.8-2.8c1.9-1.1 3.7-2.3 5.4-3.6 1.7-1.3 3.4-2.7 4.9-4.2s3-3.1 4.4-4.7l.5-.6.4-.6c.3-.4.6-.8.8-1.3.5-.9 1-1.8 1.5-2.8 1.8-3.8 2.7-8 3.3-12.1 1.1-8.4.8-16.9.3-25.3-.3-4.2-.6-8.3-.7-12.5-.2-4.2-.2-8.2-.3-12.3-.1-8.1 0-16 .1-23.7.2-15.4.5-29.9.4-43.4-.1-6.7-.2-13.1-.6-19.2-.2-3.1-.1-6.1-.1-9s0-5.7.1-8.4c0-2.7.1-5.4.1-7.9 0-2.6.4-5 .8-7.4.9-4.7 1.9-8.9 2.9-12.7 1.9-7.6 3.7-13.5 5-17.5s2.1-6.1 2.1-6.1-.8 2.1-2 6.1-2.9 9.9-4.8 17.6c-.9 3.8-1.9 8-2.7 12.7-.4 2.3-.7 4.7-.7 7.3 0 2.5 0 5.2-.1 7.9v8.4c0 2.9 0 5.9.2 8.9.5 6.1.8 12.6 1 19.3.5 13.4.3 28 .3 43.4 0 7.7 0 15.6.2 23.7.1 4 .2 8.1.4 12.2s.6 8.2.9 12.4c.5 8.4 1 17-.2 25.8-.6 4.4-1.6 8.8-3.5 12.9-.5 1-1 2.1-1.6 3-.3.5-.6 1-1 1.5l-.5.7-.5.6c-1.4 1.8-3 3.4-4.6 5-6.4 6.3-14.4 11.3-23.5 13.4-1.2.3-2.3.4-3.4.6-1.2.2-2.3.2-3.5.3-2.3.1-4.5.1-6.8.2-4.5 0-9 0-13.5-.1-9-.1-18.1-.9-26.9-2.9-4.4-1-8.8-2.3-13-4-1-.4-2.1-.9-3.1-1.3l-1.5-.7c-.6-.3-1.1-.6-1.6-.9-2.1-1.3-3.7-2.9-5.2-4.6-3.1-3.4-5.4-7.4-7.1-11.5s-3-8.4-3.9-12.7c-1.8-8.6-2.5-17.2-2.9-25.6-.3-8.4-.2-16.7.1-24.8.3-8.1.7-16 1-23.7s.6-15.2.5-22.4c0-1.8-.1-3.6-.1-5.3-.1-1.8-.2-3.5-.2-5.3-.1-3.5 0-7 .1-10.3.2-6.7.6-13.1.6-19.2s-.1-11.9-.4-17.3c-.6-10.9-2.1-20.3-4.1-27.9-1.9-7.6-4-13.4-5.5-17.3-.7-2-1.4-3.4-1.8-4.4-.3-1.2-.5-1.7-.5-1.7z"/><path d="M292.3 346.1s1.9-.1 5.3-.4c1.7-.1 3.7-.2 6-.3 1.2-.1 2.4-.1 3.7-.2 1.3 0 2.7-.1 4.1-.1 2.9-.1 6-.1 9.3-.2s6.8 0 10.4 0c7.2.1 14.9.3 22.5.4 7.7.1 15.3.3 22.5.4 7.2.2 13.9.4 19.6.6 1.4 0 2.8.1 4.1.1 1.3 0 2.5.1 3.7.1 2.3.1 4.4.1 6 .2 3.4 0 5.3.1 5.3.1v.3s-1.9.3-5.3.6c-.8.1-1.8.2-2.8.3-1 .1-2.1.2-3.3.3-2.3.2-5 .3-7.9.4-1.4 0-2.9.1-4.5.2-1.6 0-3.2 0-4.8.1-3.3.1-6.8 0-10.4-.1s-7.3-.3-11.1-.5l-11.4-.6c-7.7-.4-15.3-.8-22.5-1.1-3.6-.1-7.1-.2-10.3-.3-3.3-.1-6.4-.2-9.3-.2h-7.8c-2.3 0-4.4 0-6 .1-3.4.1-5.3.2-5.3.2l.2-.4zM332 671.9s.1.1.4.3c.2.2.6.5 1.1.8s1.1.5 1.9.7 1.6.4 2.6.5c2 .3 4.2.7 6.7 1 1.2.1 2.5.2 3.8.4 1.3.1 2.6.2 3.9.2 1.3.1 2.6.1 3.9.1s2.6 0 3.8-.1c2.5-.1 4.8-.3 6.7-.6 1.9-.3 3.4-.9 4.4-1.5.5-.3.8-.6 1.1-.8.2-.2.4-.3.4-.3s-.1.1-.3.4c-.2.3-.5.6-.9 1-.9.8-2.4 1.8-4.4 2.3-1 .3-2.1.5-3.2.7s-2.4.4-3.6.5l-3.9.3h-4c-1.4-.1-2.7-.1-4-.3-1.3-.1-2.6-.3-3.9-.5-2.5-.4-4.8-1-6.7-1.6-1-.3-1.9-.6-2.6-.9-.8-.3-1.4-.8-1.9-1.1-.5-.4-.8-.8-.9-1-.3-.4-.4-.5-.4-.5zm-43.2 17.7s.5.1 1.4.3c.4.1 1 .2 1.6.3.7.1 1.4.2 2.2.4 1.7.3 3.7.6 6.1.8 2.4.3 5 .5 7.9.8 2.9.2 6.1.4 9.4.7 3.3.2 6.9.4 10.5.6 3.6.2 7.4.3 11.2.5 3.8.1 7.7.3 11.6.4 3.9.1 7.8.2 11.6.2s7.6-.1 11.2-.2c3.6-.1 7.2-.2 10.5-.4s6.5-.4 9.4-.6c2.9-.2 5.6-.4 7.9-.7 2.4-.2 4.4-.5 6.1-.7s3-.4 3.9-.6c.9-.2 1.4-.2 1.4-.2s-.5.1-1.4.3-2.2.6-3.9.9c-1.7.4-3.7.7-6.1 1.1-2.4.4-5 .8-7.9 1.1s-6.1.7-9.4.9c-3.3.3-6.9.5-10.5.7-3.7.2-7.4.3-11.3.3-3.8 0-7.8 0-11.7-.1-3.9-.2-7.8-.3-11.6-.5s-7.6-.4-11.3-.7c-3.7-.2-7.2-.5-10.5-.8s-6.5-.6-9.4-1-5.6-.8-7.9-1.2-4.4-.8-6.1-1.2-3-.7-3.8-1c-.6-.2-1.1-.4-1.1-.4zm53.2-31.1s.4.1 1 .2 1.5.3 2.5.5c.5.1 1.1.2 1.7.3s1.2.2 1.9.3c1.3.1 2.7.3 4 .3h4c.6-.1 1.3-.1 1.9-.1.6-.1 1.2-.1 1.7-.2 1-.1 1.9-.3 2.6-.4.6-.1 1-.1 1-.1s-.3.2-.9.5c-.3.2-.6.3-1 .5s-.9.4-1.4.6c-.5.2-1.1.4-1.7.5-.6.2-1.3.3-1.9.4-.7.1-1.4.2-2.1.2-.7.1-1.5 0-2.2 0-.7-.1-1.5-.1-2.2-.2-.7-.1-1.4-.3-2.1-.4-.7-.2-1.3-.3-1.9-.6-.6-.2-1.2-.4-1.7-.6-.5-.2-1-.4-1.3-.7-.4-.2-.7-.4-1-.6-.6-.2-.9-.4-.9-.4z"/><path class="st3" d="M362.3 388.3c-3.5 3.3-6.9 7.6-9.2 11.9-2.5 4.8-3.3 10.3-3.9 15.6-.1 1.2 1.1 6.1 2.1 7.1 6 6.1 16.1 5.6 24.1 2.6 13.7-5 25.2-15.8 31.3-29.2 2.8-6.1 4.5-13 3.1-19.6-.9-4.7-6.9-16.4-19.8-10.7-10.9 4.8-19.1 14.1-27.7 22.3z"/><path d="M364.9 386.5l-1.5 1.5c-1 1-2.3 2.5-3.9 4.6-.8 1-1.6 2.2-2.4 3.6-.8 1.3-1.6 2.8-2.3 4.5-1.3 3.4-2.1 7.4-2.5 11.8-.1.5-.1 1.1-.2 1.7 0 .5.1 1.1.2 1.6.2 1.1.6 2.2 1 3.4.2.5.5 1.1.8 1.5.1.2.4.4.6.6s.5.4.7.6c1 .7 2 1.4 3.1 1.9 4.6 2 10.2 1.8 15.4.5 1.3-.3 2.7-.8 3.9-1.3 1.3-.5 2.6-1.1 3.9-1.7 2.5-1.2 5-2.6 7.4-4.3 2.4-1.7 4.6-3.5 6.8-5.5 2.1-2 4.1-4.2 5.9-6.5s3.4-4.7 4.8-7.3c1.4-2.5 2.7-5.2 3.6-7.9.9-2.7 1.6-5.5 1.8-8.3.2-2.8.1-5.6-.7-8.1-.8-2.5-2.2-4.9-4-6.8-1.8-1.8-4.1-3.1-6.6-3.5-2.4-.4-4.9.1-7.1.9-2.2.9-4.3 1.9-6.2 3-3.8 2.2-7 4.8-9.8 7.2-2.7 2.4-5 4.6-6.9 6.4-3.6 3.9-5.8 5.9-5.8 5.9zm0 0s2.2-2 5.9-5.7c1.9-1.8 4.1-4 6.8-6.5 2.7-2.4 5.9-5.1 9.6-7.5 1.9-1.2 4-2.3 6.2-3.3 2.3-.9 4.8-1.5 7.5-1.2 2.6.3 5.2 1.6 7.2 3.5s3.5 4.4 4.5 7.1c1.8 5.6 1.1 11.7-.7 17.4-.9 2.8-2.2 5.6-3.6 8.2s-3.1 5.2-5 7.6-3.9 4.6-6.1 6.7c-2.2 2-4.6 3.9-7.1 5.6s-5.1 3.1-7.7 4.3c-1.3.6-2.7 1.1-4 1.6-1.4.5-2.8.9-4.1 1.2-2.8.6-5.6.9-8.3.8-2.7-.1-5.4-.7-7.8-1.8-1.2-.6-2.3-1.3-3.3-2.1-.2-.2-.5-.4-.7-.6l-.7-.7c-.4-.6-.6-1.2-.8-1.7-.4-1.2-.7-2.3-.9-3.5-.1-.6-.2-1.1-.2-1.8.1-.6.2-1.1.2-1.7.6-4.4 1.4-8.5 2.8-11.8.7-1.7 1.6-3.2 2.4-4.5s1.7-2.5 2.4-3.5c1.6-2.1 3-3.6 3.9-4.6 1.1-1 1.6-1.5 1.6-1.5z"/></svg>