<svg id="Layer_1" xmlns="http://www.w3.org/2000/svg" viewBox="0 0 460 306.4"><style>.st0{fill:none;stroke:#000;stroke-width:5;stroke-miterlimit:10}.st1{opacity:.9;fill:url(#SVGID_1_);enable-background:new}.st2{fill:#f6fcf0}.st3{fill:#edf78d}.st4{fill:#f49b0c}</style><path class="st0" d="M6588.6-964.2c.3 38.5.2 82.4-5.7 120.5-2.3 14.7-3.7 31.7-10.6 44.9-9.4 17.9-18.6 35.9-34 49.5-5.5 4.9-11.5 9.2-17.9 12.8-4.2 2.3-15.3 5.1-15.9 10.8-.4 3.6 3.8 5.7 6.9 7.6 6.9 4.3 10.9 12.3 11.6 20.4 1.5 15.4-5.6 30.7-18.9 38.8-.8.5-1.6 1-1.9 1.8-.7 2.1 2.1 3.4 4.2 3.8 12.1 2.1 24 5 35.7 8.7 7.7 2.4 24.3 10.6 12 18.5-7.7 4.9-17 6.2-26 7.3-24.7 3.1-49.7 6.2-74.5 3.9-5.6-.5-11.2-1.4-16.8-2.2l-22.5-3.3c-5.3-.8-11.8-2.7-12.7-7.9-1.7-10.2 16.6-15.1 23.6-17.2 4.9-1.5 36.5-4.6 35.6-9.3-.5-2.4-2.8-3.9-4.8-5.4-8.9-6.4-15-16.4-16.6-27.2s1.3-22.2 7.9-30.9c2.2-2.9 4.9-6 4.4-9.6-.2-1.5-1-2.9-2-4.1-5.1-6.7-15.9-9.5-22.8-14.7-7.9-6-15.2-12.8-21.6-20.4-12.5-14.5-22.1-31.5-27.6-49.9-5.2-17.2-6.9-35.3-8.2-53.2-2.3-31-3.6-62-3.8-93.1 20.2-2.4 42-1.8 62.4-1.4 52.8 1.1 160.5-1.6 160.5.5z"/><path d="M6462-649.3v1.9c0 .6.1 1.3.6 1.9.4.6 1.2.8 2.2.8 2.1-.1 4.5-.2 7.1-.2 1.3 0 2.7-.1 4-.1 1.4-.1 2.8-.1 4.1-.2 1.4-.1 2.8-.1 4.1-.2 1.4-.1 2.7-.1 4-.2 2.6-.1 5-.2 7.1-.3 2-.1 3.7-.6 4.6-1.3.4-.4.7-.8.8-1.1.1-.3.2-.5.2-.5v.5c-.1.3-.2.8-.6 1.3s-1.1 1-1.9 1.4c-.8.4-1.8.7-2.8.8-2.1.4-4.5.7-7.1.9-1.3.1-2.7.3-4 .4-1.4.1-2.8.2-4.2.2-1.4 0-2.8.1-4.2.1h-4.1c-2.6-.1-5.1-.2-7.2-.4-.5-.1-1.1-.1-1.6-.4s-.9-.7-1.1-1.1c-.4-.9-.4-1.7-.3-2.3.1-.6.2-1.1.3-1.4-.1-.3 0-.5 0-.5zm-.4-84.6s.6.2 1.6.5c.5.2 1.2.3 1.9.5s1.6.4 2.4.5c.9.2 1.9.3 2.9.5 1 .1 2.1.2 3.3.3 1.1.1 2.3.1 3.5.2h3.6c1.2 0 2.5 0 3.7-.1 1.2 0 2.4-.1 3.6-.1 2.3-.1 4.5-.1 6.3-.3s3.2-.6 4.1-1.2c.4-.3.8-.6 1-.8l.3-.3s-.1.1-.2.4c-.2.3-.4.6-.8 1-.8.8-2.3 1.6-4.2 2-.9.2-2 .4-3 .5-1.1.1-2.2.3-3.3.4l-3.6.3c-1.2.1-2.5.1-3.7.2-1.3 0-2.5 0-3.7-.1-.6 0-1.2-.1-1.8-.1-.6-.1-1.2-.1-1.8-.2-1.2-.1-2.3-.4-3.4-.6-.5-.1-1-.3-1.5-.4-.5-.2-1-.3-1.4-.4-1.8-.6-3.2-1.3-4.2-1.8-1-.6-1.6-.9-1.6-.9zm-50.1 102.1l.3.3c.2.2.5.4 1 .6.9.5 2.3 1 4.2 1.4 1.9.4 4.2.7 6.8 1.1 2.6.4 5.6.7 8.9 1.1 3.3.3 6.8.7 10.6 1 3.7.3 7.7.5 11.8.7 8.2.3 17 .5 25.7.6 4.4.1 8.8.1 13.1.2 4.3 0 8.5.1 12.6 0s8-.4 11.7-.8c3.7-.5 7.2-1.1 10.4-1.7 6.4-1.4 11.6-3 15.2-4.3 1.8-.7 3.2-1.2 4.2-1.6l1.5-.6s-.5.2-1.4.7c-.9.4-2.3 1.1-4.1 1.8-3.5 1.5-8.7 3.5-15.1 5.1-6.4 1.6-14.1 2.9-22.3 3.2-4.1.2-8.4.2-12.7.2-4.3 0-8.7-.1-13.1-.1-4.4-.1-8.8-.2-13.1-.3-4.3-.1-8.6-.4-12.7-.6-4.1-.3-8.1-.6-11.8-1-3.8-.4-7.3-.8-10.6-1.3-1.6-.3-3.2-.5-4.7-.7-1.5-.3-2.9-.5-4.2-.8-2.6-.5-4.9-1-6.8-1.5s-3.3-1.1-4.1-1.7c-.4-.3-.7-.5-.9-.7-.3-.2-.4-.3-.4-.3z"/><linearGradient id="SVGID_1_" gradientUnits="userSpaceOnUse" x1="6378.8" y1="-1349.377" x2="6584.7" y2="-1349.377" gradientTransform="translate(0 507)"><stop offset=".018" stop-color="#801fe3"/><stop offset="1" stop-color="#b7a7ff"/></linearGradient><path class="st1" d="M6378.8-936c1.4 24.4 2.7 48.8 4.1 73.2.4 7.9.9 15.9 2.2 23.7 1.8 11.1 5.4 21.8 8.9 32.5 3 9.1 6 18.2 11.1 26.3 17.8 28.1 51.5 32.7 81.9 31.3 10.6-.5 21.3-1.5 31.5-4.7 66.9-21.3 65.2-117 66.1-172.7 0-2.6.1-5.1.1-7.7-68.7 2.2-137.5 4-205.9-1.9z"/><path d="M6373.7-955.7s.6 8.1 1.5 22.2c.5 7.1 1 15.6 1.7 25.5.6 9.8 1.4 20.9 2.1 33.1.4 6.1.7 12.4 1.3 18.9.5 6.5 1.4 13.2 3 19.9s3.7 13.5 6 20.4c2.4 6.9 4.5 14 7.5 20.9.8 1.7 1.5 3.4 2.4 5.1.9 1.6 1.8 3.3 2.8 4.8 1.1 1.6 2.2 3.1 3.4 4.7 1.2 1.4 2.5 2.8 3.7 4.3 5.3 5.5 11.7 10 18.8 13.2 7.1 3.3 14.8 5.4 22.6 6.6 7.9 1.3 15.9 1.7 23.9 1.7 8-.1 16.1-.4 24-1.5 3.9-.5 7.9-1.2 11.7-2.2 1-.3 1.9-.5 2.8-.8l.7-.2h.1l.2-.1.4-.1 1.4-.5 2.8-1c.5-.2.9-.3 1.4-.5l1.3-.6c7.1-3.1 13.7-7.4 19.4-12.5 5.7-5.1 10.5-11.1 14.4-17.5 4-6.3 7.1-13.1 9.7-19.8 2.6-6.8 4.6-13.6 6.3-20.3 3.2-13.5 5-26.5 6.2-38.5 1.1-12.1 1.7-23.2 2-33 .3-9.9.5-18.4.7-25.5.2-14.2.4-22.2.4-22.2s0 2 .1 5.8c0 3.8.1 9.4.2 16.4 0 7.1 0 15.7-.2 25.5-.1 9.9-.5 21-1.5 33.1-1 12.1-2.6 25.2-5.7 38.9-1.6 6.8-3.6 13.7-6.1 20.6-2.5 6.9-5.7 13.8-9.8 20.3-4 6.5-9 12.7-14.8 18.1-5.9 5.4-12.7 9.8-20.2 13.1l-1.4.6c-.5.2-.9.4-1.4.5l-2.8 1-1.4.5-.4.1-.2.1-.2.1-.7.2c-1 .3-2 .6-2.9.8-3.9 1-8 1.8-12 2.4-8.1 1.1-16.2 1.5-24.4 1.6-8.2 0-16.3-.5-24.4-1.8-8-1.3-16-3.5-23.3-7-7.4-3.4-14.1-8.1-19.6-13.9-1.3-1.5-2.6-3.1-3.9-4.6-1.1-1.6-2.2-3.2-3.3-4.7-2.2-3.4-3.9-6.8-5.4-10.4-3-7.1-5.2-14.2-7.5-21.2-2.2-7-4.3-13.9-5.8-20.7-1.6-6.9-2.4-13.6-2.8-20.2-.5-6.6-.7-12.9-1-18.9-.6-12.1-1.1-23.2-1.6-33.1s-.8-18.4-1.2-25.5c-.7-14.2-1-22.2-1-22.2z"/><path d="M6374.1-940.3s.8 0 2.4.1 3.8.2 6.7.3c2.9.2 6.4.3 10.5.5 4 .2 8.6.3 13.6.5s10.4.3 16.1.5 11.7.2 17.9.4c6.2.1 12.6.1 19.2.2 6.5.1 13.2 0 19.8.1 6.6 0 13.3 0 19.8-.1s13-.1 19.2-.2c12.5-.1 24.1-.2 34-.3 10-.1 18.3-.1 24.1-.1h9.1s-.8.1-2.4.2c-1.6.1-3.8.2-6.7.4-5.8.3-14.1.8-24.1 1.3s-21.6.9-34 1.3c-6.2.1-12.7.4-19.2.4-6.5.1-13.2.1-19.8.2-6.6 0-13.3 0-19.8-.2-6.5-.1-13-.3-19.2-.4-6.2-.2-12.3-.4-18-.8-2.9-.2-5.6-.3-8.3-.5-2.7-.2-5.3-.4-7.8-.5-2.5-.2-4.9-.3-7.1-.5-2.3-.2-4.4-.4-6.4-.6-4-.4-7.6-.7-10.4-1-2.9-.3-5.2-.6-6.7-.7-1.7-.4-2.5-.5-2.5-.5z"/><path class="st2" d="M338.4 68.9c-52.7-7.7-102.5-1.9-152.1-2.4-23-.2-47.5 3.3-69.7-2.6-.1 0-.3-.1-.4-.1-.3 24.9-.5 49.8-.8 74.7.2-.4 217.8 4.9 221.8.6-.3 0-.1-.2.3-.5v-5.3c-.1-21.4.5-43 .9-64.4.1 0 0 0 0 0z"/><path class="st3" d="M337.6 139.2c-.1 0-.2-.1-.3-.1-4 4.3-208.2-3.6-221.3.7h-.6v3.3c-.1 12.9-.2 26.2 4.1 38.4 7.9 22.1 30.1 37.2 53.3 40.8 12.7 2 24 2.8 36.8 3 24.3.3 48.8.6 72.5-4.6 9.4-2.1 18.7-5 26.6-10.4 24.2-16.6 28.5-44.4 28.9-71.1z"/><path class="st0" d="M349.2 6.5s1.1 134.7.8 139.1c-1 14.1-3.4 28.3-9.7 41-6.3 12.7-16.5 23.8-29.7 28.9-3.6 1.4-7.5 2.4-10.7 4.6-5.8 4-8.5 11.6-7.4 18.5s5.9 13 11.9 16.6c4.8 2.8 10.3 4.2 15.4 6.4s10.2 5.3 12.6 10.3c7 14.6-19.4 24-30 25.8-29.5 4.8-95 11.3-148.6-3-16.8-4.5-26-17.5-22.7-23.6 3.9-7.2 13.3-8.8 20.5-12.8 8.5-4.8 14.3-14.1 14.7-23.8.2-3.6-.5-7.4-3.1-9.9-2.1-2-5.1-2.7-7.9-3.4-16.1-4.4-30.3-15.6-37.7-30.5-8.4-16.8-7.9-36.5-7.3-55.2 1.4-40.4.4-84.8 1.8-125.2.2-1.6 158.1-2 237.1-3.8z"/><path d="M119.1 23.1V74c0 10.5-.1 22.4-.1 35.3 0 6.5-.1 13.2-.1 20.2s-.2 14.2.1 21.5 1 14.9 3.2 22.2l.9 2.7c.4.9.7 1.8 1.1 2.7l.6 1.4c.2.4.4.9.6 1.3.4.8.9 1.7 1.3 2.6.5.8 1 1.7 1.5 2.5.3.4.5.8.8 1.2l.9 1.2c.6.8 1.1 1.6 1.7 2.4l1.9 2.3c10.4 11.9 25.8 20.1 42.2 22.6 8.4 1.3 16.8 2.1 25.3 2.5 4.3.2 8.5.3 12.8.3s8.6.1 12.9.1c17.2.1 34.4-.4 51-3.4 8.3-1.5 16.5-3.4 23.9-6.7 3.7-1.6 7.3-3.6 10.4-6l2.5-1.8c.8-.6 1.5-1.3 2.2-2l2.2-2 2-2.2c5.3-5.9 9.2-12.8 11.8-20 2.6-7.2 4.1-14.6 5-21.9 1.8-14.6 1.1-28.6 1.5-41.6.2-12.9.6-24.8.9-35.3s.5-19.7.7-27.2c.1-7.5.2-13.5.2-17.5v-6.2s.1 2.2.2 6.2.2 10 .2 17.5 0 16.7-.1 27.2-.2 22.4-.3 35.3c0 6.5 0 13.2.1 20.2 0 7-.2 14.2-1 21.7-.8 7.4-2.3 15-4.9 22.5s-6.7 14.7-12.1 20.9L321 199l-2.3 2.1c-.8.7-1.5 1.5-2.4 2.1l-2.5 1.9c-3.3 2.6-7.1 4.7-10.9 6.4-7.8 3.4-16.1 5.4-24.5 6.9-16.9 3-34.3 3.6-51.5 3.6-4.3 0-8.6-.1-12.9-.1s-8.6-.2-12.9-.4c-8.6-.4-17.2-1.3-25.6-2.7-17.1-2.7-32.9-11.2-43.8-23.7-.7-.8-1.3-1.6-2-2.4-.6-.8-1.2-1.7-1.8-2.5l-.9-1.2c-.3-.4-.5-.9-.8-1.3-.5-.9-1.1-1.7-1.6-2.6-.5-.9-.9-1.8-1.4-2.7-.2-.5-.5-.9-.7-1.4l-.5-1.4c-.4-.9-.7-1.8-1.1-2.8-.3-1-.6-1.9-.9-2.8-2.2-7.6-2.9-15.4-3.1-22.8-.2-7.5.1-14.7.2-21.6.1-7 .2-13.7.3-20.2.2-12.9.5-24.8.7-35.3s.4-19.7.5-27.2c.3-15.2.5-23.8.5-23.8zM175.8 230s1.6.3 4.4.9c1.4.3 3.1.6 5 .9 1 .2 2 .3 3.1.5s2.2.4 3.4.5c1.2.2 2.4.3 3.7.5 1.3.2 2.6.3 4 .5 2.8.3 5.7.5 8.7.7 6 .3 12.5.5 18.9.2 3.2-.1 6.4-.3 9.6-.5 3.1-.3 6.3-.6 9.3-.9 6-.7 11.6-1.6 16.4-2.4 4.8-.8 8.8-1.5 11.6-2 2.8-.5 4.4-.8 4.4-.8s-1.6.4-4.3 1.1c-2.8.7-6.7 1.7-11.4 2.7-2.4.5-5 1.1-7.7 1.6s-5.6 1-8.7 1.4c-3 .4-6.1.8-9.3 1.1-3.2.3-6.4.5-9.7.6-3.3.1-6.5.1-9.7 0-3.2 0-6.3-.3-9.4-.5-3-.3-6-.6-8.7-1-2.8-.4-5.4-.8-7.8-1.3-2.4-.4-4.6-.9-6.5-1.4s-3.6-.9-5-1.3-2.4-.7-3.2-.9c-.7-.1-1.1-.2-1.1-.2z"/><path d="M118.5 134.6s.2-.1.6-.2c.4-.1 1-.3 1.8-.4 1.6-.3 4-.6 7-.8 3-.3 6.7-.5 10.9-.7s9-.3 14.2-.4c5.2 0 10.8-.1 16.8 0s12.2.4 18.7.7 13.2.6 20 .6c3.4 0 6.8.1 10.3.1 3.4 0 6.9-.1 10.4-.1s6.9-.1 10.4-.1h10.3c6.8 0 13.5.1 20 .1 3.2 0 6.4.1 9.6.1 3.1 0 6.2.1 9.1.1 5.9.1 11.6.2 16.8.4 5.2.1 9.9.2 14.2.3 4.2.1 7.9.1 10.9.1s5.4 0 7-.1c.8-.1 1.4-.1 1.8-.2.4-.1.5-.2.5-.2l.2.2s-.1 0-.2.1-.3.1-.5.2c-.4.1-1 .3-1.8.4-1.6.3-4 .5-7 .8s-6.7.4-10.9.6c-4.2.2-9 .3-14.2.4-5.2.1-10.8.1-16.8.1-3 0-6 0-9.2-.1-3.1 0-6.3-.1-9.6-.2-6.5-.2-13.2-.4-20-.5-3.4-.1-6.8-.2-10.3-.4-3.4-.2-6.9-.3-10.4-.5-3.5-.1-6.9-.3-10.4-.4l-10.3-.3c-6.8-.1-13.5-.1-20 .1-6.5.1-12.8.3-18.7.3-5.9 0-11.6-.1-16.8-.1-5.2-.1-9.9-.1-14.2-.2-4.2 0-7.9-.1-10.9-.1s-5.4.1-7 .2c-1.6.1-2.4.3-2.4.3l.1-.2zm.7-75.9l2.4.6c1.6.4 3.9.8 6.9 1.3 1.5.2 3.2.5 5 .6.9.1 1.9.2 2.8.3 1 .1 2 .1 3.1.2 4.2.2 9 .3 14.2.2 5.2-.1 10.8-.4 16.8-.6 6-.3 12.3-.5 18.8-.5 3.3 0 6.6 0 9.9-.1s6.7-.1 10.1-.2c6.8-.2 13.8-.4 20.7-.7 6.9-.3 13.9-.5 20.7-.8 6.8-.3 13.6-.4 20.1-.5 6.5 0 12.8 0 18.8.2s11.6.4 16.8.8c5.2.3 10 .9 14.2 1.3 4.2.5 7.9 1 10.9 1.4 6 1 9.4 1.6 9.4 1.6v.3s-3.5-.3-9.5-.9c-3-.2-6.7-.5-10.9-.8-4.2-.2-9-.5-14.2-.6-2.6-.1-5.3-.2-8.1-.2s-5.7-.1-8.7-.1c-6 0-12.2-.1-18.7 0-13 .1-26.9.3-40.8.6-6.9.2-13.9.3-20.7.3H199c-3.4 0-6.7-.1-9.9-.1-6.5-.1-12.8.1-18.7.2-6 .1-11.6.3-16.8.3-5.2 0-10-.2-14.2-.5-1.1-.1-2.1-.2-3.1-.3-1-.1-1.9-.2-2.8-.3-1.8-.2-3.5-.5-5-.7-3-.5-5.4-1-6.9-1.4l-2.4-.6v-.3zm26.9 213.2s2.6.8 7.2 1.9c2.3.6 5.1 1.3 8.4 2 3.2.7 6.9 1.5 10.9 2.2 4 .8 8.4 1.5 13 2.2s9.5 1.3 14.6 2c5.1.6 10.3 1.1 15.6 1.5 5.3.4 10.8.6 16.2.8 2.7.1 5.4.1 8.1.1s5.4 0 8.1-.1 5.3-.1 7.9-.3 5.2-.3 7.7-.5 5-.4 7.5-.7c2.4-.3 4.8-.5 7.1-.8 2.3-.3 4.6-.6 6.7-.9 2.2-.3 4.3-.7 6.3-1s3.9-.7 5.8-1.1c1.8-.4 3.6-.7 5.2-1 3.2-.8 6.1-1.4 8.4-1.9 4.6-1.2 7.3-1.9 7.3-1.9s-2.6.8-7.1 2.3c-2.3.7-5.1 1.4-8.3 2.3-1.6.4-3.3.8-5.2 1.2-1.8.4-3.7.9-5.7 1.2-2 .4-4.1.8-6.3 1.2-2.2.4-4.4.7-6.8 1.1-2.3.3-4.7.6-7.2 1-2.4.3-5 .5-7.5.8l-7.8.6c-2.6.2-5.3.2-8 .4-2.7.1-5.4.1-8.1.2-2.7 0-5.5 0-8.2-.1-5.5-.2-10.9-.4-16.3-.9-5.4-.4-10.6-1-15.7-1.6-10.2-1.3-19.6-3.1-27.6-4.8s-14.6-3.6-19.2-4.9c-4.4-1.5-7-2.5-7-2.5z"/><path class="st4" d="M232.3 64c-.6.2-1.5-.1-1.5-.5.1.1.4.1.4 0s-.3-.1-.4 0m4.4 4.9c-1-.1-1.9-.5-2.1-1 .8.1 1.5.5 1.6.9-.3-.2-.5-.4-.8-.6m-5.7 4.6c-.8-.2-1.1-.9-.6-1.2.2.2.2.4.1.6h-1.2m-5.7-2.2c-1.2.1-2-.8-1.2-1.2.7.1 1.2.5 1.2.8-.4.1-.9-.2-.7-.4m5.6-3c-.8-.2-1.3-.7-1.2-1.1.1.3.3.5.4.8m-.8.6c.5 0 1 0 1.6.1"/><path class="st4" d="M220.9 68.2c-.3.1-.6.2-1 .3-.5-.2-.7-.4-.7-.6.6 0 .5.3-.1.3m6.1 1.4c1.1-.2 3.1.1 2.5.4-1.4-.1-2.5-.4-2.7-.8 1 0 1.9.2 1.7.5-.7-.1-1.2-.2-1.6-.4m5.8-3.4c1.1.1 2.3.2 3.4.2.3.2-.6.3-1.3.3s-1.1-.2-1.5-.4c1.1-.1 2.6.1 2.8.4-1.1-.1-2.1-.3-2.9-.6m2.6 5.1c-.1.4-.8-.2-.4-.4.5.4.7 1.1.7 1.8-.4-.3-.6-.9-.5-1.4m-5.1-3.5c-.6-.2-.9-1.3-.4-1.8.3.3.5.8.4 1.2-.3-.2-.3-.7 0-.9"/><path class="st4" d="M235.2 70.1c.4.2.9-.3.6-.5-.3-.3-.9.1-.8.4m2.8-2.9c-.3-.2-.5-.7-.5-1.1.2-.1.3.3.2.5-.1-.1-.2-.2-.2-.4.1.1.2.3.2.4-.1 0-.2-.1-.3-.2m2.3 1.9c.1-.1.2.2.1.3s-.2-.1-.2-.2c0-.2 0-.3.1-.5.3 0 .5.4.4.8 0-.2-.1-.4-.2-.4s-.1.4 0 .3m-4.9-2.3c-.4.2-.8.1-1.1-.3.2-.2.5-.1.6.2-.1-.1-.2-.3-.2-.5.2.1.3.5.2.8m-2 6.5v-.8c.3-.2.6.5.4.9-.2-.1-.3-.3-.2-.6m-1.9-4.1c-.2.3-.5-.1-.4-.4.3.2.4.6.5 1.1-.2 0-.3-.4-.2-.6m-2.3 3.3c-.2.1-.4-.1-.4-.4.1.2.1.4.2.6-.1.1-.1-.2 0-.2m.1-8.4c-.2.4-.6.3-.7-.2h.5c.1.2-.1.6-.3.4m-1.3 4.2c-.1-.1-.2-.4-.1-.6.3-.1.5.5.3.8-.1-.1-.2-.3-.2-.4m-1.4 4.3c-.3.2-.7-.3-.7-.8.2-.2.4.1.4.4-.2 0-.3-.3-.3-.6.1.2.2.4.3.5m-.5-7.4c-.2.2-.5-.3-.3-.6.1-.2.4.1.3.3 0 .2-.3-.1-.1-.2m-1.8 4.8c-.3 0-.6-.4-.7-.9.3.1.5.5.5.9l-.3-.6m17.1-1.2l-.3.3c-.2-.2-.2-.4-.2-.6.2 0 .2.3 0 .3m-8.9-1.6c.2 0 .4 0 .5.1m-1.5 2.2l-.3.3c-.2-.2-.2-.4-.2-.6.2 0 .2.3 0 .3"/><path class="st4" d="M226.7 62.7c.5-.2 1.2.1 1.1.5-.2 0-.4-.1-.4-.2s.4-.1.3 0m2.1 5.5c.4-.3 1 .1.8.4-.5-.1-.8-.4-.9-.8.3 0 .6.2.6.5-.2-.1-.4-.2-.5-.4m3.5-.6c.2.2.4.4.5.7-.3 0-.5-.1-.5-.3.4.1.8.3 1 .6-.5-.2-1-.5-1.4-.9m-2.1-4.9c.2.1.3.2.5.3-.3 0-.5-.2-.5-.4.2 0 .4 0 .5.1m-7-.1c.3-.1.7.1.7.4-.4 0-.7-.1-.9-.4.2 0 .4.1.5.2-.1.1-.3.1-.4.1 0 0 0-.2.1-.3m1.5 6.7c.3-.1.6-.1.9 0 .4-.2 0-.7-.4-.6s-.2.7.2.6c-.1.1-.4 0-.3-.1m2-4c.5-.3 1.2-.1 1.3.4-.4.1-.9 0-1.3-.2.1-.2.4-.2.5 0m-8 .2c.4.1.8.1 1.1.2.1.2-.2.4-.4.3s-.4-.2-.5-.4c.4-.1.9.1.9.4-.4-.1-.7-.3-1-.5m13.9-1.8h.5c.1.7 0 .7-.2.8-.1 0-.1-.2 0-.2s.2.2.2.4c-.2 0-.5-.4-.4-.8m-2.5 1.5c-.2.3-.4-.7-.2-1.1.1.1.1.9 0 1m-1.4 6.2c-.2.4-.4.2-.5-.5.2-.2.3 1 .1 1.2m-6.5-4.7c-.1.3-.2 0-.3-.3s0-.8 0-1.2c.2-.1.4.7.4 1.4-.1.1-.3-.4-.2-.8m-3.7.5c-.2-.2-.3-1.3-.1-1.8.1.3.1.8.1 1.2-.1-.2-.1-.7 0-.9m2.6-2.3c-.2.2-.3-.5-.2-1v1.3c-.1.1-.3-.4-.2-.8.1.1.1.4 0 .5s-.1-.2-.1-.4"/><path class="st4" d="M238.6 68.2c-.2.3-.8-.1-.6-.4.4.2.7.6.7 1-.3 0-.5-.4-.4-.6m-3.2 3.4c-.3.1-.6-.1-.6-.4.1.2.2.4.2.6-.1.1-.2-.2-.1-.2m.4-8.4c-.2.4-1 .3-1-.2h.8c.2.2-.2.6-.4.4m-2.2 4.2c-.2-.1-.3-.4-.1-.6.4-.1.8.5.5.8-.1-.1-.2-.3-.3-.4m-2.2 4.3c-.5.2-1-.3-1-.8.2-.2.7.1.6.4-.3 0-.5-.3-.5-.6.1.2.3.4.4.5m-.6-7.4c-.3.2-.7-.3-.5-.6.2-.2.6.1.5.3-.1.2-.4-.1-.2-.2m-4.2.5c-.3.2-.8-.1-.7-.4 0 .1.2.1.2 0s-.2-.1-.2 0m2.1 4.8c-.5 0-.9-.4-1-.9.4.1.7.5.8.9-.1-.2-.3-.4-.4-.6m-2.9 4.6c-.4-.2-.6-.8-.3-1.2.1.2.1.4 0 .6h-.6m-.3-6c-.4-.2-.7-.6-.6-1.1.1.3.1.5.2.8m-.5.6c.3 0 .5 0 .8.1m-.2 3.5c.5-.3 1.5.1 1.3.4-.7-.1-1.3-.4-1.4-.8.5 0 1 .2.9.5-.3-.1-.6-.2-.8-.4m15.9-4.5c.3 0 .5 0 .8.1m-2.4 2.1c-.2.1-.3.2-.5.3-.2-.2-.3-.4-.3-.6.3 0 .3.3 0 .3"/><path class="st4" d="M232.8 62.6c.7-.3 1.8.1 1.7.5-.3 0-.6-.1-.6-.2s.6-.1.4 0m3.2 5.4c.5-.3 1.5.1 1.3.4-.7-.1-1.3-.4-1.4-.8.5 0 1 .2.9.5-.3-.1-.6-.2-.8-.4m-8.2-5.4c.5-.1 1.1.1 1.1.4-.5 0-1-.1-1.3-.3.3 0 .6.1.8.2-.2.1-.4.1-.6.1s-.2-.3 0-.4m2.1 6.7c.4-.1.9-.1 1.3 0 .5-.2 0-.7-.6-.6s-.3.7.4.6c-.1.1-.6 0-.5-.1m3.1-4c.7-.3 1.8-.1 2 .3-.7.1-1.4.1-1.9-.2.1-.2.7-.2.8-.1m-12.1.5c.6.1 1.1.1 1.7.2.1.2-.3.4-.6.3-.3 0-.6-.2-.8-.3.6-.1 1.3.1 1.4.4-.5-.1-1-.3-1.4-.5m4.3 1.9c-.1.3-.4 0-.5-.3s-.1-.8 0-1.2c.3-.1.6.7.6 1.4-.2.2-.4-.4-.3-.7m-2.9 3.8c-.1.4-.4-.2-.2-.4.2.4.4 1.1.3 1.7-.2-.3-.3-.9-.2-1.4m-2.5-3.3c-.3-.2-.4-1.3-.2-1.8.1.3.2.8.2 1.2-.2-.2-.2-.7 0-.9m3.8-2.4c-.2.2-.5-.5-.4-1 .1.4.1.9 0 1.3-.2.1-.4-.4-.3-.8.1.1.1.4 0 .5s-.2-.2-.2-.3"/><path class="st4" d="M226 69.9c.2.2.5-.3.3-.5-.1-.3-.5.1-.4.4m2.2.4v-.1m3.2-.9c-.1.1-.2-.1-.2-.2 0 .1.1.1.2.2m-2.3-2.9c.1 0 .2.1.3.1m6.4 2.5c-.1 0-.2-.1-.3-.1m-2.1-3c-.1 0-.2-.2-.2-.3.1.2.1.4.1.6m.5 5.9c-.1 0-.3-.1-.3-.3 0-.1.2-.1.2 0m6.4-4.2c-.2-.1-.3-.3-.3-.6v.7m-3.4-.9c.1-.1.1-.2.2-.3.1.2.1.4.1.6-.1 0-.1-.3 0-.3m.7 3.4c-.1 0-.2-.1-.3-.1m-2.1-3c-.1 0-.2-.2-.2-.3.1.2.1.4.1.6m3.1.7c.1-.1.1-.2.2-.3.1.2.1.4.1.6-.1 0-.1-.3 0-.3m-1-1.6c-.2.2-.5-.1-.4-.5.2.1.4.4.4.8-.2 0-.3-.2-.3-.5.1.1.2.3.3.4m-8.2 5.2c-.1-.1-.2-.2-.2-.3.1 0 .2.2.2.4-.1 0-.2 0-.2-.2m3.4.5c-.2.1-.4-.1-.4-.4.3 0 .4.1.4.4l-.2-.2c.1 0 .2-.1.2 0s.1.2 0 .2m-.5-6.8c-.1.1-.3 0-.4-.1-.2.2 0 .7.2.6s.1-.7-.1-.6c0-.1.2 0 .3.1m-1.3 4c-.2.2-.6 0-.7-.4.2-.1.5 0 .6.2 0 .2-.2.2-.3 0m.1-2.9c-.1-.2-.1-.4-.2-.7.1-.1.1.1.1.3 0 .1-.1 0-.1-.1 0 0 .1.2.1.3m-2.7.8c-.1-.2-.2-.7-.2-1.1.1-.1.2.3.1.5-.1-.1-.1-.2-.1-.4.1.1.1.3.1.4-.1 0-.1-.1-.1-.2m5.6 3.1c-.3.2-.6-.5-.6-1.3.2-.2.3 0 .4.4-.1.3-.3.1-.2-.2.1.1.1.2.1.4s-.1.1-.1 0m-4.1-.6c.1-.1.1.2 0 .3s-.1 0 0-.3c-.1-.1-.1-.2-.1-.4.1 0 .2.4.2.8 0-.2 0-.4-.1-.4v.3m-1.4 3.9c-.1-.1 0-.6.1-.4.1.1.1.5.1.8-.1 0-.2-.3-.2-.6.1.1.1.6.1.9m7.3-3.1c-.1 0-.2-.1-.2-.3 0-.3.2-.1.2.3-.1-.1-.1-.3-.1-.5.1-.2.2 0 .3.3 0-.2-.1-.2-.2-.3s0-.6.1-.4m-8.5-2.8c-.2.2-.4.1-.6-.3.1-.2.2-.1.3.2-.1-.1-.1-.3-.1-.5.1.1.1.5.1.8m-1 6.5v-.8c.2-.2.3.5.2.9-.1-.1-.1-.3-.1-.6m-.9-4c-.1.3-.3-.1-.2-.4.1.2.2.6.2 1-.1 0-.1-.4 0-.6m-1.2-5c-.1.4-.3.3-.3-.2h.3c0 .2-.1.6-.1.4m-.9 4.2c-.1-.1-.1-.4 0-.6.1-.1.3.5.2.8 0-.1-.1-.3-.1-.4m-2.1.8c-.2 0-.3-.4-.3-.9.1.1.2.4.3.9-.1-.2-.2-.4-.2-.6m17.3-2.7c.1 0 .2 0 .3.1m2.2 2.7c.1 0 .2.1.2.3-.1-.2-.1-.4-.1-.6m-6.9-.5c.2.1.3.3.4.6v-.7m3.3.4c-.1.1-.1.2-.2.3-.1-.2-.1-.4-.1-.6.1 0 .1.3 0 .3m-7.3-3.2c.1 0 .2 0 .3.1m2.2 2.7c.1 0 .2.1.2.3-.1-.2-.1-.4-.1-.6m-3.1-.3c-.1.1-.1.2-.2.3-.1-.2-.1-.4-.1-.6.1 0 .1.3 0 .3m-.6-4.4c.2-.3.6.1.6.5-.1 0-.2-.1-.2-.2s.2-.1.1 0m1 5.5c.2-.3.5.1.4.4-.2-.1-.4-.4-.4-.8.2 0 .3.2.3.5-.1-.1-.2-.2-.3-.4m-5.4-2.6c.1 0 .2 0 .3.1m-.8 2.1c-.1.1-.1.2-.2.3-.1-.2-.1-.4-.1-.6.1 0 .1.3 0 .3"/><path class="st4" d="M221.8 62.6c.2-.3.6.1.6.5-.1 0-.2-.1-.2-.2s.2-.1.1 0m1 5.4c.2-.3.5.1.4.4-.2-.1-.4-.4-.4-.8.2 0 .3.2.3.5-.1-.1-.2-.2-.3-.4m11.6-4.1c.1 0 .2 0 .3.1m2.2 2.7c.1 0 .2.1.2.3-.1-.2-.1-.4-.1-.6m-3.1-.3c-.1.1-.1.2-.2.3-.1-.2-.1-.4-.1-.6.1 0 .1.3 0 .3m1 1.5c.2-.3.5.1.4.4-.2-.1-.4-.4-.4-.8.2 0 .3.2.3.5-.1-.1-.2-.2-.3-.4m-10.1.1c.1.2.2.4.3.7-.1 0-.3-.1-.3-.3.2.1.4.3.5.5-.3-.2-.5-.5-.7-.8m-1-4.9c.1.1.2.2.2.3-.1 0-.2-.2-.2-.4.1 0 .2 0 .2.1m-2.8 6.7c.1-.1.3-.1.4 0 .2-.2 0-.7-.2-.6s-.1.7.1.6c0 .1-.2 0-.2-.1m1.2-4c.2-.3.6-.1.7.3-.2.1-.5.1-.6-.2 0-.2.2-.2.3-.1m7-.3c.1-.2.2.1.2.4-.1.1-.1.1-.2 0v-.4c0-.2.1 0 .1.2 0 .1-.1.1-.1.1v-.3m-4.1-1.3h.3c0 .7 0 .7-.1.8v-.2c.1 0 .1.2.1.4-.1 0-.2-.4-.2-.8m7.2 5.4c-.1.1-.1-.5-.1-.9 0-.2.1-.2.1.1s-.1.5-.1.2c0-.2 0-.5.1-.3v.5m-8.5-3.4c-.1.3-.2-.7-.1-1.1.1.1.1.9 0 1m-.8 6.3c-.1.4-.2.2-.3-.5.1-.2.1 1 0 1.2m-3.1-4.6c-.1.3-.1 0-.1-.3v-1.2c.1-.1.2.7.2 1.4-.1.2-.1-.4-.1-.7"/></svg>