<?xml version="1.0" encoding="utf-8"?>
<!-- Generator: Adobe Illustrator 19.2.0, SVG Export Plug-In . SVG Version: 6.00 Build 0)  -->
<svg version="1.1" id="Layer_1" xmlns="http://www.w3.org/2000/svg" xmlns:xlink="http://www.w3.org/1999/xlink" x="0px" y="0px"
	 viewBox="0 0 460 306.4" style="enable-background:new 0 0 460 306.4;" xml:space="preserve">
<style type="text/css">
	.st0{fill:none;stroke:#000000;stroke-width:5;stroke-miterlimit:10;}
	.st1{opacity:0.9;fill:url(#SVGID_1_);enable-background:new    ;}
	.st2{fill:#F6FCF0;}
	.st3{fill:#EDF78D;}
	.st4{fill:#F49B0C;}
</style>
<path class="st0" d="M6588.6-964.2c0.3,38.5,0.2,82.4-5.7,120.5c-2.3,14.7-3.7,31.7-10.6,44.9c-9.4,17.9-18.6,35.9-34,49.5
	c-5.5,4.9-11.5,9.2-17.9,12.8c-4.2,2.3-15.3,5.1-15.9,10.8c-0.4,3.6,3.8,5.7,6.9,7.6c6.9,4.3,10.9,12.3,11.6,20.4
	c1.5,15.4-5.6,30.7-18.9,38.8c-0.8,0.5-1.6,1-1.9,1.8c-0.7,2.1,2.1,3.4,4.2,3.8c12.1,2.1,24,5,35.7,8.7c7.7,2.4,24.3,10.6,12,18.5
	c-7.7,4.9-17,6.2-26,7.3c-24.7,3.1-49.7,6.2-74.5,3.9c-5.6-0.5-11.2-1.4-16.8-2.2l-22.5-3.3c-5.3-0.8-11.8-2.7-12.7-7.9
	c-1.7-10.2,16.6-15.1,23.6-17.2c4.9-1.5,36.5-4.6,35.6-9.3c-0.5-2.4-2.8-3.9-4.8-5.4c-8.9-6.4-15-16.4-16.6-27.2s1.3-22.2,7.9-30.9
	c2.2-2.9,4.9-6,4.4-9.6c-0.2-1.5-1-2.9-2-4.1c-5.1-6.7-15.9-9.5-22.8-14.7c-7.9-6-15.2-12.8-21.6-20.4
	c-12.5-14.5-22.1-31.5-27.6-49.9c-5.2-17.2-6.9-35.3-8.2-53.2c-2.3-31-3.6-62-3.8-93.1c20.2-2.4,42-1.8,62.4-1.4
	C6480.9-963.6,6588.6-966.3,6588.6-964.2L6588.6-964.2z"/>
<path d="M6462-649.3v1.9c0,0.6,0.1,1.3,0.6,1.9c0.4,0.6,1.2,0.8,2.2,0.8c2.1-0.1,4.5-0.2,7.1-0.2c1.3,0,2.7-0.1,4-0.1
	c1.4-0.1,2.8-0.1,4.1-0.2c1.4-0.1,2.8-0.1,4.1-0.2c1.4-0.1,2.7-0.1,4-0.2c2.6-0.1,5-0.2,7.1-0.3c2-0.1,3.7-0.6,4.6-1.3
	c0.4-0.4,0.7-0.8,0.8-1.1c0.1-0.3,0.2-0.5,0.2-0.5v0.5c-0.1,0.3-0.2,0.8-0.6,1.3s-1.1,1-1.9,1.4c-0.8,0.4-1.8,0.7-2.8,0.8
	c-2.1,0.4-4.5,0.7-7.1,0.9c-1.3,0.1-2.7,0.3-4,0.4c-1.4,0.1-2.8,0.2-4.2,0.2c-1.4,0-2.8,0.1-4.2,0.1h-4.1c-2.6-0.1-5.1-0.2-7.2-0.4
	c-0.5-0.1-1.1-0.1-1.6-0.4s-0.9-0.7-1.1-1.1c-0.4-0.9-0.4-1.7-0.3-2.3c0.1-0.6,0.2-1.1,0.3-1.4C6461.9-649.1,6462-649.3,6462-649.3
	L6462-649.3z M6461.6-733.9c0,0,0.6,0.2,1.6,0.5c0.5,0.2,1.2,0.3,1.9,0.5s1.6,0.4,2.4,0.5c0.9,0.2,1.9,0.3,2.9,0.5
	c1,0.1,2.1,0.2,3.3,0.3c1.1,0.1,2.3,0.1,3.5,0.2h3.6c1.2,0,2.5,0,3.7-0.1c1.2,0,2.4-0.1,3.6-0.1c2.3-0.1,4.5-0.1,6.3-0.3
	s3.2-0.6,4.1-1.2c0.4-0.3,0.8-0.6,1-0.8l0.3-0.3c0,0-0.1,0.1-0.2,0.4c-0.2,0.3-0.4,0.6-0.8,1c-0.8,0.8-2.3,1.6-4.2,2
	c-0.9,0.2-2,0.4-3,0.5c-1.1,0.1-2.2,0.3-3.3,0.4l-3.6,0.3c-1.2,0.1-2.5,0.1-3.7,0.2c-1.3,0-2.5,0-3.7-0.1c-0.6,0-1.2-0.1-1.8-0.1
	c-0.6-0.1-1.2-0.1-1.8-0.2c-1.2-0.1-2.3-0.4-3.4-0.6c-0.5-0.1-1-0.3-1.5-0.4c-0.5-0.2-1-0.3-1.4-0.4c-1.8-0.6-3.2-1.3-4.2-1.8
	C6462.2-733.6,6461.6-733.9,6461.6-733.9L6461.6-733.9z M6411.5-631.8l0.3,0.3c0.2,0.2,0.5,0.4,1,0.6c0.9,0.5,2.3,1,4.2,1.4
	c1.9,0.4,4.2,0.7,6.8,1.1c2.6,0.4,5.6,0.7,8.9,1.1c3.3,0.3,6.8,0.7,10.6,1c3.7,0.3,7.7,0.5,11.8,0.7c8.2,0.3,17,0.5,25.7,0.6
	c4.4,0.1,8.8,0.1,13.1,0.2c4.3,0,8.5,0.1,12.6,0c4.1-0.1,8-0.4,11.7-0.8c3.7-0.5,7.2-1.1,10.4-1.7c6.4-1.4,11.6-3,15.2-4.3
	c1.8-0.7,3.2-1.2,4.2-1.6l1.5-0.6c0,0-0.5,0.2-1.4,0.7c-0.9,0.4-2.3,1.1-4.1,1.8c-3.5,1.5-8.7,3.5-15.1,5.1
	c-6.4,1.6-14.1,2.9-22.3,3.2c-4.1,0.2-8.4,0.2-12.7,0.2c-4.3,0-8.7-0.1-13.1-0.1c-4.4-0.1-8.8-0.2-13.1-0.3
	c-4.3-0.1-8.6-0.4-12.7-0.6c-4.1-0.3-8.1-0.6-11.8-1c-3.8-0.4-7.3-0.8-10.6-1.3c-1.6-0.3-3.2-0.5-4.7-0.7c-1.5-0.3-2.9-0.5-4.2-0.8
	c-2.6-0.5-4.9-1-6.8-1.5s-3.3-1.1-4.1-1.7c-0.4-0.3-0.7-0.5-0.9-0.7C6411.6-631.7,6411.5-631.8,6411.5-631.8L6411.5-631.8z"/>
<linearGradient id="SVGID_1_" gradientUnits="userSpaceOnUse" x1="6378.7998" y1="-1349.3768" x2="6584.7002" y2="-1349.3768" gradientTransform="matrix(1 0 0 1 0 507)">
	<stop  offset="1.800000e-02" style="stop-color:#801FE3"/>
	<stop  offset="1" style="stop-color:#B7A7FF"/>
</linearGradient>
<path class="st1" d="M6378.8-936c1.4,24.4,2.7,48.8,4.1,73.2c0.4,7.9,0.9,15.9,2.2,23.7c1.8,11.1,5.4,21.8,8.9,32.5
	c3,9.1,6,18.2,11.1,26.3c17.8,28.1,51.5,32.7,81.9,31.3c10.6-0.5,21.3-1.5,31.5-4.7c66.9-21.3,65.2-117,66.1-172.7
	c0-2.6,0.1-5.1,0.1-7.7C6516-931.9,6447.2-930.1,6378.8-936L6378.8-936z"/>
<path d="M6373.7-955.7c0,0,0.6,8.1,1.5,22.2c0.5,7.1,1,15.6,1.7,25.5c0.6,9.8,1.4,20.9,2.1,33.1c0.4,6.1,0.7,12.4,1.3,18.9
	c0.5,6.5,1.4,13.2,3,19.9s3.7,13.5,6,20.4c2.4,6.9,4.5,14,7.5,20.9c0.8,1.7,1.5,3.4,2.4,5.1c0.9,1.6,1.8,3.3,2.8,4.8
	c1.1,1.6,2.2,3.1,3.4,4.7c1.2,1.4,2.5,2.8,3.7,4.3c5.3,5.5,11.7,10,18.8,13.2c7.1,3.3,14.8,5.4,22.6,6.6c7.9,1.3,15.9,1.7,23.9,1.7
	c8-0.1,16.1-0.4,24-1.5c3.9-0.5,7.9-1.2,11.7-2.2c1-0.3,1.9-0.5,2.8-0.8l0.7-0.2h0.1l0.2-0.1l0.4-0.1l1.4-0.5l2.8-1
	c0.5-0.2,0.9-0.3,1.4-0.5l1.3-0.6c7.1-3.1,13.7-7.4,19.4-12.5c5.7-5.1,10.5-11.1,14.4-17.5c4-6.3,7.1-13.1,9.7-19.8
	c2.6-6.8,4.6-13.6,6.3-20.3c3.2-13.5,5-26.5,6.2-38.5c1.1-12.1,1.7-23.2,2-33c0.3-9.9,0.5-18.4,0.7-25.5c0.2-14.2,0.4-22.2,0.4-22.2
	s0,2,0.1,5.8c0,3.8,0.1,9.4,0.2,16.4c0,7.1,0,15.7-0.2,25.5c-0.1,9.9-0.5,21-1.5,33.1c-1,12.1-2.6,25.2-5.7,38.9
	c-1.6,6.8-3.6,13.7-6.1,20.6c-2.5,6.9-5.7,13.8-9.8,20.3c-4,6.5-9,12.7-14.8,18.1c-5.9,5.4-12.7,9.8-20.2,13.1l-1.4,0.6
	c-0.5,0.2-0.9,0.4-1.4,0.5l-2.8,1l-1.4,0.5l-0.4,0.1l-0.2,0.1l-0.2,0.1l-0.7,0.2c-1,0.3-2,0.6-2.9,0.8c-3.9,1-8,1.8-12,2.4
	c-8.1,1.1-16.2,1.5-24.4,1.6c-8.2,0-16.3-0.5-24.4-1.8c-8-1.3-16-3.5-23.3-7c-7.4-3.4-14.1-8.1-19.6-13.9c-1.3-1.5-2.6-3.1-3.9-4.6
	c-1.1-1.6-2.2-3.2-3.3-4.7c-2.2-3.4-3.9-6.8-5.4-10.4c-3-7.1-5.2-14.2-7.5-21.2c-2.2-7-4.3-13.9-5.8-20.7
	c-1.6-6.9-2.4-13.6-2.8-20.2c-0.5-6.6-0.7-12.9-1-18.9c-0.6-12.1-1.1-23.2-1.6-33.1s-0.8-18.4-1.2-25.5
	C6374-947.7,6373.7-955.7,6373.7-955.7L6373.7-955.7z"/>
<path d="M6374.1-940.3c0,0,0.8,0,2.4,0.1s3.8,0.2,6.7,0.3c2.9,0.2,6.4,0.3,10.5,0.5c4,0.2,8.6,0.3,13.6,0.5s10.4,0.3,16.1,0.5
	s11.7,0.2,17.9,0.4c6.2,0.1,12.6,0.1,19.2,0.2c6.5,0.1,13.2,0,19.8,0.1c6.6,0,13.3,0,19.8-0.1s13-0.1,19.2-0.2
	c12.5-0.1,24.1-0.2,34-0.3c10-0.1,18.3-0.1,24.1-0.1h9.1c0,0-0.8,0.1-2.4,0.2c-1.6,0.1-3.8,0.2-6.7,0.4c-5.8,0.3-14.1,0.8-24.1,1.3
	s-21.6,0.9-34,1.3c-6.2,0.1-12.7,0.4-19.2,0.4c-6.5,0.1-13.2,0.1-19.8,0.2c-6.6,0-13.3,0-19.8-0.2c-6.5-0.1-13-0.3-19.2-0.4
	c-6.2-0.2-12.3-0.4-18-0.8c-2.9-0.2-5.6-0.3-8.3-0.5c-2.7-0.2-5.3-0.4-7.8-0.5c-2.5-0.2-4.9-0.3-7.1-0.5c-2.3-0.2-4.4-0.4-6.4-0.6
	c-4-0.4-7.6-0.7-10.4-1c-2.9-0.3-5.2-0.6-6.7-0.7C6374.9-940.2,6374.1-940.3,6374.1-940.3L6374.1-940.3z"/>
<path class="st2" d="M338.4,68.9c-52.7-7.7-102.5-1.9-152.1-2.4c-23-0.2-47.5,3.3-69.7-2.6c-0.1,0-0.3-0.1-0.4-0.1
	c-0.3,24.9-0.5,49.8-0.8,74.7c0.2-0.4,217.8,4.9,221.8,0.6c-0.3,0-0.1-0.2,0.3-0.5v-5.3C337.4,111.9,338,90.3,338.4,68.9
	C338.5,68.9,338.4,68.9,338.4,68.9L338.4,68.9z"/>
<path class="st3" d="M337.6,139.2c-0.1,0-0.2-0.1-0.3-0.1c-4,4.3-208.2-3.6-221.3,0.7h-0.6v3.3c-0.1,12.9-0.2,26.2,4.1,38.4
	c7.9,22.1,30.1,37.2,53.3,40.8c12.7,2,24,2.8,36.8,3c24.3,0.3,48.8,0.6,72.5-4.6c9.4-2.1,18.7-5,26.6-10.4
	C332.9,193.7,337.2,165.9,337.6,139.2L337.6,139.2z"/>
<path class="st0" d="M349.2,6.5c0,0,1.1,134.7,0.8,139.1c-1,14.1-3.4,28.3-9.7,41c-6.3,12.7-16.5,23.8-29.7,28.9
	c-3.6,1.4-7.5,2.4-10.7,4.6c-5.8,4-8.5,11.6-7.4,18.5s5.9,13,11.9,16.6c4.8,2.8,10.3,4.2,15.4,6.4s10.2,5.3,12.6,10.3
	c7,14.6-19.4,24-30,25.8c-29.5,4.8-95,11.3-148.6-3c-16.8-4.5-26-17.5-22.7-23.6c3.9-7.2,13.3-8.8,20.5-12.8
	c8.5-4.8,14.3-14.1,14.7-23.8c0.2-3.6-0.5-7.4-3.1-9.9c-2.1-2-5.1-2.7-7.9-3.4c-16.1-4.4-30.3-15.6-37.7-30.5
	c-8.4-16.8-7.9-36.5-7.3-55.2c1.4-40.4,0.4-84.8,1.8-125.2C112.3,8.7,270.2,8.3,349.2,6.5L349.2,6.5z"/>
<path d="M119.1,23.1V74c0,10.5-0.1,22.4-0.1,35.3c0,6.5-0.1,13.2-0.1,20.2s-0.2,14.2,0.1,21.5s1,14.9,3.2,22.2l0.9,2.7
	c0.4,0.9,0.7,1.8,1.1,2.7l0.6,1.4c0.2,0.4,0.4,0.9,0.6,1.3c0.4,0.8,0.9,1.7,1.3,2.6c0.5,0.8,1,1.7,1.5,2.5c0.3,0.4,0.5,0.8,0.8,1.2
	l0.9,1.2c0.6,0.8,1.1,1.6,1.7,2.4l1.9,2.3c10.4,11.9,25.8,20.1,42.2,22.6c8.4,1.3,16.8,2.1,25.3,2.5c4.3,0.2,8.5,0.3,12.8,0.3
	s8.6,0.1,12.9,0.1c17.2,0.1,34.4-0.4,51-3.4c8.3-1.5,16.5-3.4,23.9-6.7c3.7-1.6,7.3-3.6,10.4-6l2.5-1.8c0.8-0.6,1.5-1.3,2.2-2l2.2-2
	l2-2.2c5.3-5.9,9.2-12.8,11.8-20c2.6-7.2,4.1-14.6,5-21.9c1.8-14.6,1.1-28.6,1.5-41.6c0.2-12.9,0.6-24.8,0.9-35.3s0.5-19.7,0.7-27.2
	c0.1-7.5,0.2-13.5,0.2-17.5v-6.2c0,0,0.1,2.2,0.2,6.2s0.2,10,0.2,17.5s0,16.7-0.1,27.2s-0.2,22.4-0.3,35.3c0,6.5,0,13.2,0.1,20.2
	c0,7-0.2,14.2-1,21.7c-0.8,7.4-2.3,15-4.9,22.5s-6.7,14.7-12.1,20.9L321,199l-2.3,2.1c-0.8,0.7-1.5,1.5-2.4,2.1l-2.5,1.9
	c-3.3,2.6-7.1,4.7-10.9,6.4c-7.8,3.4-16.1,5.4-24.5,6.9c-16.9,3-34.3,3.6-51.5,3.6c-4.3,0-8.6-0.1-12.9-0.1s-8.6-0.2-12.9-0.4
	c-8.6-0.4-17.2-1.3-25.6-2.7c-17.1-2.7-32.9-11.2-43.8-23.7c-0.7-0.8-1.3-1.6-2-2.4c-0.6-0.8-1.2-1.7-1.8-2.5L127,189
	c-0.3-0.4-0.5-0.9-0.8-1.3c-0.5-0.9-1.1-1.7-1.6-2.6c-0.5-0.9-0.9-1.8-1.4-2.7c-0.2-0.5-0.5-0.9-0.7-1.4l-0.5-1.4
	c-0.4-0.9-0.7-1.8-1.1-2.8c-0.3-1-0.6-1.9-0.9-2.8c-2.2-7.6-2.9-15.4-3.1-22.8c-0.2-7.5,0.1-14.7,0.2-21.6c0.1-7,0.2-13.7,0.3-20.2
	c0.2-12.9,0.5-24.8,0.7-35.3s0.4-19.7,0.5-27.2C118.9,31.7,119.1,23.1,119.1,23.1L119.1,23.1z M175.8,230c0,0,1.6,0.3,4.4,0.9
	c1.4,0.3,3.1,0.6,5,0.9c1,0.2,2,0.3,3.1,0.5s2.2,0.4,3.4,0.5c1.2,0.2,2.4,0.3,3.7,0.5c1.3,0.2,2.6,0.3,4,0.5
	c2.8,0.3,5.7,0.5,8.7,0.7c6,0.3,12.5,0.5,18.9,0.2c3.2-0.1,6.4-0.3,9.6-0.5c3.1-0.3,6.3-0.6,9.3-0.9c6-0.7,11.6-1.6,16.4-2.4
	c4.8-0.8,8.8-1.5,11.6-2c2.8-0.5,4.4-0.8,4.4-0.8s-1.6,0.4-4.3,1.1c-2.8,0.7-6.7,1.7-11.4,2.7c-2.4,0.5-5,1.1-7.7,1.6
	s-5.6,1-8.7,1.4c-3,0.4-6.1,0.8-9.3,1.1c-3.2,0.3-6.4,0.5-9.7,0.6c-3.3,0.1-6.5,0.1-9.7,0c-3.2,0-6.3-0.3-9.4-0.5
	c-3-0.3-6-0.6-8.7-1c-2.8-0.4-5.4-0.8-7.8-1.3c-2.4-0.4-4.6-0.9-6.5-1.4s-3.6-0.9-5-1.3s-2.4-0.7-3.2-0.9
	C176.2,230.1,175.8,230,175.8,230L175.8,230z"/>
<path d="M118.5,134.6c0,0,0.2-0.1,0.6-0.2c0.4-0.1,1-0.3,1.8-0.4c1.6-0.3,4-0.6,7-0.8c3-0.3,6.7-0.5,10.9-0.7s9-0.3,14.2-0.4
	c5.2,0,10.8-0.1,16.8,0s12.2,0.4,18.7,0.7s13.2,0.6,20,0.6c3.4,0,6.8,0.1,10.3,0.1c3.4,0,6.9-0.1,10.4-0.1s6.9-0.1,10.4-0.1h10.3
	c6.8,0,13.5,0.1,20,0.1c3.2,0,6.4,0.1,9.6,0.1c3.1,0,6.2,0.1,9.1,0.1c5.9,0.1,11.6,0.2,16.8,0.4c5.2,0.1,9.9,0.2,14.2,0.3
	c4.2,0.1,7.9,0.1,10.9,0.1s5.4,0,7-0.1c0.8-0.1,1.4-0.1,1.8-0.2c0.4-0.1,0.5-0.2,0.5-0.2l0.2,0.2c0,0-0.1,0-0.2,0.1
	s-0.3,0.1-0.5,0.2c-0.4,0.1-1,0.3-1.8,0.4c-1.6,0.3-4,0.5-7,0.8s-6.7,0.4-10.9,0.6c-4.2,0.2-9,0.3-14.2,0.4
	c-5.2,0.1-10.8,0.1-16.8,0.1c-3,0-6,0-9.2-0.1c-3.1,0-6.3-0.1-9.6-0.2c-6.5-0.2-13.2-0.4-20-0.5c-3.4-0.1-6.8-0.2-10.3-0.4
	c-3.4-0.2-6.9-0.3-10.4-0.5c-3.5-0.1-6.9-0.3-10.4-0.4l-10.3-0.3c-6.8-0.1-13.5-0.1-20,0.1c-6.5,0.1-12.8,0.3-18.7,0.3
	c-5.9,0-11.6-0.1-16.8-0.1c-5.2-0.1-9.9-0.1-14.2-0.2c-4.2,0-7.9-0.1-10.9-0.1s-5.4,0.1-7,0.2c-1.6,0.1-2.4,0.3-2.4,0.3L118.5,134.6
	L118.5,134.6z M119.2,58.7l2.4,0.6c1.6,0.4,3.9,0.8,6.9,1.3c1.5,0.2,3.2,0.5,5,0.6c0.9,0.1,1.9,0.2,2.8,0.3c1,0.1,2,0.1,3.1,0.2
	c4.2,0.2,9,0.3,14.2,0.2c5.2-0.1,10.8-0.4,16.8-0.6c6-0.3,12.3-0.5,18.8-0.5c3.3,0,6.6,0,9.9-0.1s6.7-0.1,10.1-0.2
	c6.8-0.2,13.8-0.4,20.7-0.7c6.9-0.3,13.9-0.5,20.7-0.8c6.8-0.3,13.6-0.4,20.1-0.5c6.5,0,12.8,0,18.8,0.2s11.6,0.4,16.8,0.8
	c5.2,0.3,10,0.9,14.2,1.3c4.2,0.5,7.9,1,10.9,1.4c6,1,9.4,1.6,9.4,1.6v0.3c0,0-3.5-0.3-9.5-0.9c-3-0.2-6.7-0.5-10.9-0.8
	c-4.2-0.2-9-0.5-14.2-0.6c-2.6-0.1-5.3-0.2-8.1-0.2s-5.7-0.1-8.7-0.1c-6,0-12.2-0.1-18.7,0c-13,0.1-26.9,0.3-40.8,0.6
	c-6.9,0.2-13.9,0.3-20.7,0.3H199c-3.4,0-6.7-0.1-9.9-0.1c-6.5-0.1-12.8,0.1-18.7,0.2c-6,0.1-11.6,0.3-16.8,0.3
	c-5.2,0-10-0.2-14.2-0.5c-1.1-0.1-2.1-0.2-3.1-0.3c-1-0.1-1.9-0.2-2.8-0.3c-1.8-0.2-3.5-0.5-5-0.7c-3-0.5-5.4-1-6.9-1.4l-2.4-0.6
	L119.2,58.7L119.2,58.7z M146.1,271.9c0,0,2.6,0.8,7.2,1.9c2.3,0.6,5.1,1.3,8.4,2c3.2,0.7,6.9,1.5,10.9,2.2c4,0.8,8.4,1.5,13,2.2
	s9.5,1.3,14.6,2c5.1,0.6,10.3,1.1,15.6,1.5c5.3,0.4,10.8,0.6,16.2,0.8c2.7,0.1,5.4,0.1,8.1,0.1s5.4,0,8.1-0.1s5.3-0.1,7.9-0.3
	s5.2-0.3,7.7-0.5s5-0.4,7.5-0.7c2.4-0.3,4.8-0.5,7.1-0.8c2.3-0.3,4.6-0.6,6.7-0.9c2.2-0.3,4.3-0.7,6.3-1s3.9-0.7,5.8-1.1
	c1.8-0.4,3.6-0.7,5.2-1c3.2-0.8,6.1-1.4,8.4-1.9c4.6-1.2,7.3-1.9,7.3-1.9s-2.6,0.8-7.1,2.3c-2.3,0.7-5.1,1.4-8.3,2.3
	c-1.6,0.4-3.3,0.8-5.2,1.2c-1.8,0.4-3.7,0.9-5.7,1.2c-2,0.4-4.1,0.8-6.3,1.2c-2.2,0.4-4.4,0.7-6.8,1.1c-2.3,0.3-4.7,0.6-7.2,1
	c-2.4,0.3-5,0.5-7.5,0.8l-7.8,0.6c-2.6,0.2-5.3,0.2-8,0.4c-2.7,0.1-5.4,0.1-8.1,0.2c-2.7,0-5.5,0-8.2-0.1
	c-5.5-0.2-10.9-0.4-16.3-0.9c-5.4-0.4-10.6-1-15.7-1.6c-10.2-1.3-19.6-3.1-27.6-4.8s-14.6-3.6-19.2-4.9
	C148.7,272.9,146.1,271.9,146.1,271.9z"/>
<path class="st4" d="M232.3,64c-0.6,0.2-1.5-0.1-1.5-0.5c0.1,0.1,0.4,0.1,0.4,0s-0.3-0.1-0.4,0 M235.2,68.4c-1-0.1-1.9-0.5-2.1-1
	c0.8,0.1,1.5,0.5,1.6,0.9c-0.3-0.2-0.5-0.4-0.8-0.6 M228.2,72.3c-0.8-0.2-1.1-0.9-0.6-1.2c0.2,0.2,0.2,0.4,0.1,0.6h-1.2 M220.8,69.5
	c-1.2,0.1-2-0.8-1.2-1.2c0.7,0.1,1.2,0.5,1.2,0.8c-0.4,0.1-0.9-0.2-0.7-0.4 M225.7,65.7c-0.8-0.2-1.3-0.7-1.2-1.1
	c0.1,0.3,0.3,0.5,0.4,0.8 M224.1,66c0.5,0,1,0,1.6,0.1"/>
<path class="st4" d="M220.9,68.2c-0.3,0.1-0.6,0.2-1,0.3c-0.5-0.2-0.7-0.4-0.7-0.6c0.6,0,0.5,0.3-0.1,0.3 M225.2,69.6
	c1.1-0.2,3.1,0.1,2.5,0.4c-1.4-0.1-2.5-0.4-2.7-0.8c1,0,1.9,0.2,1.7,0.5c-0.7-0.1-1.2-0.2-1.6-0.4 M230.9,65.9
	c1.1,0.1,2.3,0.2,3.4,0.2c0.3,0.2-0.6,0.3-1.3,0.3s-1.1-0.2-1.5-0.4c1.1-0.1,2.6,0.1,2.8,0.4c-1.1-0.1-2.1-0.3-2.9-0.6 M234,70.9
	c-0.1,0.4-0.8-0.2-0.4-0.4c0.5,0.4,0.7,1.1,0.7,1.8c-0.4-0.3-0.6-0.9-0.5-1.4 M228.7,67.4c-0.6-0.2-0.9-1.3-0.4-1.8
	c0.3,0.3,0.5,0.8,0.4,1.2c-0.3-0.2-0.3-0.7,0-0.9"/>
<path class="st4" d="M235.2,70.1c0.4,0.2,0.9-0.3,0.6-0.5c-0.3-0.3-0.9,0.1-0.8,0.4 M237.8,67.1c-0.3-0.2-0.5-0.7-0.5-1.1
	c0.2-0.1,0.3,0.3,0.2,0.5c-0.1-0.1-0.2-0.2-0.2-0.4c0.1,0.1,0.2,0.3,0.2,0.4c-0.1,0-0.2-0.1-0.3-0.2 M239.5,68.2
	c0.1-0.1,0.2,0.2,0.1,0.3s-0.2-0.1-0.2-0.2c0-0.2,0-0.3,0.1-0.5c0.3,0,0.5,0.4,0.4,0.8c0-0.2-0.1-0.4-0.2-0.4s-0.1,0.4,0,0.3
	 M234.8,66.2c-0.4,0.2-0.8,0.1-1.1-0.3c0.2-0.2,0.5-0.1,0.6,0.2c-0.1-0.1-0.2-0.3-0.2-0.5c0.2,0.1,0.3,0.5,0.2,0.8 M232.3,72.9v-0.8
	c0.3-0.2,0.6,0.5,0.4,0.9c-0.2-0.1-0.3-0.3-0.2-0.6 M230.6,68.3c-0.2,0.3-0.5-0.1-0.4-0.4c0.3,0.2,0.4,0.6,0.5,1.1
	c-0.2,0-0.3-0.4-0.2-0.6 M228.2,71.7c-0.2,0.1-0.4-0.1-0.4-0.4c0.1,0.2,0.1,0.4,0.2,0.6c-0.1,0.1-0.1-0.2,0-0.2 M228.1,63.3
	c-0.2,0.4-0.6,0.3-0.7-0.2h0.5c0.1,0.2-0.1,0.6-0.3,0.4 M226.3,67.7c-0.1-0.1-0.2-0.4-0.1-0.6c0.3-0.1,0.5,0.5,0.3,0.8
	c-0.1-0.1-0.2-0.3-0.2-0.4 M224.9,71.8c-0.3,0.2-0.7-0.3-0.7-0.8c0.2-0.2,0.4,0.1,0.4,0.4c-0.2,0-0.3-0.3-0.3-0.6
	c0.1,0.2,0.2,0.4,0.3,0.5 M224.1,63.9c-0.2,0.2-0.5-0.3-0.3-0.6c0.1-0.2,0.4,0.1,0.3,0.3c0,0.2-0.3-0.1-0.1-0.2 M222.2,68.2
	c-0.3,0-0.6-0.4-0.7-0.9c0.3,0.1,0.5,0.5,0.5,0.9l-0.3-0.6 M238.8,66.4l-0.3,0.3c-0.2-0.2-0.2-0.4-0.2-0.6c0.2,0,0.2,0.3,0,0.3
	 M229.4,64.8c0.2,0,0.4,0,0.5,0.1 M228.4,67.1l-0.3,0.3c-0.2-0.2-0.2-0.4-0.2-0.6c0.2,0,0.2,0.3,0,0.3"/>
<path class="st4" d="M226.7,62.7c0.5-0.2,1.2,0.1,1.1,0.5c-0.2,0-0.4-0.1-0.4-0.2s0.4-0.1,0.3,0 M229.8,68.5c0.4-0.3,1,0.1,0.8,0.4
	c-0.5-0.1-0.8-0.4-0.9-0.8c0.3,0,0.6,0.2,0.6,0.5c-0.2-0.1-0.4-0.2-0.5-0.4 M233.3,67.6c0.2,0.2,0.4,0.4,0.5,0.7
	c-0.3,0-0.5-0.1-0.5-0.3c0.4,0.1,0.8,0.3,1,0.6c-0.5-0.2-1-0.5-1.4-0.9 M230.8,62.8c0.2,0.1,0.3,0.2,0.5,0.3c-0.3,0-0.5-0.2-0.5-0.4
	c0.2,0,0.4,0,0.5,0.1 M224.3,62.7c0.3-0.1,0.7,0.1,0.7,0.4c-0.4,0-0.7-0.1-0.9-0.4c0.2,0,0.4,0.1,0.5,0.2c-0.1,0.1-0.3,0.1-0.4,0.1
	C224.2,63,224.2,62.8,224.3,62.7 M225.8,69.4c0.3-0.1,0.6-0.1,0.9,0c0.4-0.2,0-0.7-0.4-0.6s-0.2,0.7,0.2,0.6c-0.1,0.1-0.4,0-0.3-0.1
	 M228.2,65.3c0.5-0.3,1.2-0.1,1.3,0.4c-0.4,0.1-0.9,0-1.3-0.2c0.1-0.2,0.4-0.2,0.5,0 M220.7,65.7c0.4,0.1,0.8,0.1,1.1,0.2
	c0.1,0.2-0.2,0.4-0.4,0.3s-0.4-0.2-0.5-0.4c0.4-0.1,0.9,0.1,0.9,0.4c-0.4-0.1-0.7-0.3-1-0.5 M234.7,63.9h0.5c0.1,0.7,0,0.7-0.2,0.8
	c-0.1,0-0.1-0.2,0-0.2s0.2,0.2,0.2,0.4c-0.2,0-0.5-0.4-0.4-0.8 M232.3,65.6c-0.2,0.3-0.4-0.7-0.2-1.1c0.1,0.1,0.1,0.9,0,1
	 M230.7,71.7c-0.2,0.4-0.4,0.2-0.5-0.5c0.2-0.2,0.3,1,0.1,1.2 M223.8,67.7c-0.1,0.3-0.2,0-0.3-0.3s0-0.8,0-1.2
	c0.2-0.1,0.4,0.7,0.4,1.4c-0.1,0.1-0.3-0.4-0.2-0.8 M220,67.3c-0.2-0.2-0.3-1.3-0.1-1.8c0.1,0.3,0.1,0.8,0.1,1.2
	c-0.1-0.2-0.1-0.7,0-0.9 M222.6,63.5c-0.2,0.2-0.3-0.5-0.2-1v1.3c-0.1,0.1-0.3-0.4-0.2-0.8c0.1,0.1,0.1,0.4,0,0.5s-0.1-0.2-0.1-0.4"
	/>
<path class="st4" d="M238.6,68.2c-0.2,0.3-0.8-0.1-0.6-0.4c0.4,0.2,0.7,0.6,0.7,1c-0.3,0-0.5-0.4-0.4-0.6 M235.1,71.6
	c-0.3,0.1-0.6-0.1-0.6-0.4c0.1,0.2,0.2,0.4,0.2,0.6c-0.1,0.1-0.2-0.2-0.1-0.2 M235,63.2c-0.2,0.4-1,0.3-1-0.2h0.8
	c0.2,0.2-0.2,0.6-0.4,0.4 M232.2,67.6c-0.2-0.1-0.3-0.4-0.1-0.6c0.4-0.1,0.8,0.5,0.5,0.8c-0.1-0.1-0.2-0.3-0.3-0.4 M230.1,71.7
	c-0.5,0.2-1-0.3-1-0.8c0.2-0.2,0.7,0.1,0.6,0.4c-0.3,0-0.5-0.3-0.5-0.6c0.1,0.2,0.3,0.4,0.4,0.5 M229,63.8c-0.3,0.2-0.7-0.3-0.5-0.6
	c0.2-0.2,0.6,0.1,0.5,0.3c-0.1,0.2-0.4-0.1-0.2-0.2 M224.6,63.8c-0.3,0.2-0.8-0.1-0.7-0.4c0,0.1,0.2,0.1,0.2,0s-0.2-0.1-0.2,0
	 M226,68.2c-0.5,0-0.9-0.4-1-0.9c0.4,0.1,0.7,0.5,0.8,0.9c-0.1-0.2-0.3-0.4-0.4-0.6 M222.5,72.2c-0.4-0.2-0.6-0.8-0.3-1.2
	c0.1,0.2,0.1,0.4,0,0.6h-0.6 M221.3,65.6c-0.4-0.2-0.7-0.6-0.6-1.1c0.1,0.3,0.1,0.5,0.2,0.8 M220.4,65.9c0.3,0,0.5,0,0.8,0.1
	 M221,69.5c0.5-0.3,1.5,0.1,1.3,0.4c-0.7-0.1-1.3-0.4-1.4-0.8c0.5,0,1,0.2,0.9,0.5c-0.3-0.1-0.6-0.2-0.8-0.4 M236.9,64.7
	c0.3,0,0.5,0,0.8,0.1 M235.3,66.9c-0.2,0.1-0.3,0.2-0.5,0.3c-0.2-0.2-0.3-0.4-0.3-0.6c0.3,0,0.3,0.3,0,0.3"/>
<path class="st4" d="M232.8,62.6c0.7-0.3,1.8,0.1,1.7,0.5c-0.3,0-0.6-0.1-0.6-0.2s0.6-0.1,0.4,0 M237.5,68.3
	c0.5-0.3,1.5,0.1,1.3,0.4c-0.7-0.1-1.3-0.4-1.4-0.8c0.5,0,1,0.2,0.9,0.5c-0.3-0.1-0.6-0.2-0.8-0.4 M229.3,62.6
	c0.5-0.1,1.1,0.1,1.1,0.4c-0.5,0-1-0.1-1.3-0.3c0.3,0,0.6,0.1,0.8,0.2c-0.2,0.1-0.4,0.1-0.6,0.1S229.1,62.7,229.3,62.6 M231.4,69.3
	c0.4-0.1,0.9-0.1,1.3,0c0.5-0.2,0-0.7-0.6-0.6s-0.3,0.7,0.4,0.6c-0.1,0.1-0.6,0-0.5-0.1 M235.1,65.2c0.7-0.3,1.8-0.1,2,0.3
	c-0.7,0.1-1.4,0.1-1.9-0.2c0.1-0.2,0.7-0.2,0.8-0.1 M223.9,65.7c0.6,0.1,1.1,0.1,1.7,0.2c0.1,0.2-0.3,0.4-0.6,0.3
	c-0.3,0-0.6-0.2-0.8-0.3c0.6-0.1,1.3,0.1,1.4,0.4c-0.5-0.1-1-0.3-1.4-0.5 M228.5,67.7c-0.1,0.3-0.4,0-0.5-0.3s-0.1-0.8,0-1.2
	c0.3-0.1,0.6,0.7,0.6,1.4c-0.2,0.2-0.4-0.4-0.3-0.7 M225.4,70.7c-0.1,0.4-0.4-0.2-0.2-0.4c0.2,0.4,0.4,1.1,0.3,1.7
	c-0.2-0.3-0.3-0.9-0.2-1.4 M222.8,67.3c-0.3-0.2-0.4-1.3-0.2-1.8c0.1,0.3,0.2,0.8,0.2,1.2c-0.2-0.2-0.2-0.7,0-0.9 M226.6,63.4
	c-0.2,0.2-0.5-0.5-0.4-1c0.1,0.4,0.1,0.9,0,1.3c-0.2,0.1-0.4-0.4-0.3-0.8c0.1,0.1,0.1,0.4,0,0.5s-0.2-0.2-0.2-0.3"/>
<path class="st4" d="M226,69.9c0.2,0.2,0.5-0.3,0.3-0.5c-0.1-0.3-0.5,0.1-0.4,0.4 M228.1,70.2v-0.1 M231.3,69.2
	c-0.1,0.1-0.2-0.1-0.2-0.2C231.1,69.1,231.2,69.1,231.3,69.2 M229,66.3c0.1,0,0.2,0.1,0.3,0.1 M235.7,68.9c-0.1,0-0.2-0.1-0.3-0.1
	 M233.3,65.8c-0.1,0-0.2-0.2-0.2-0.3c0.1,0.2,0.1,0.4,0.1,0.6 M233.7,72c-0.1,0-0.3-0.1-0.3-0.3c0-0.1,0.2-0.1,0.2,0 M240,67.5
	c-0.2-0.1-0.3-0.3-0.3-0.6v0.7 M236.3,66.7c0.1-0.1,0.1-0.2,0.2-0.3c0.1,0.2,0.1,0.4,0.1,0.6c-0.1,0-0.1-0.3,0-0.3 M237.3,70.1
	c-0.1,0-0.2-0.1-0.3-0.1 M234.9,67c-0.1,0-0.2-0.2-0.2-0.3c0.1,0.2,0.1,0.4,0.1,0.6 M237.9,68c0.1-0.1,0.1-0.2,0.2-0.3
	c0.1,0.2,0.1,0.4,0.1,0.6c-0.1,0-0.1-0.3,0-0.3 M237.2,66.4c-0.2,0.2-0.5-0.1-0.4-0.5c0.2,0.1,0.4,0.4,0.4,0.8
	c-0.2,0-0.3-0.2-0.3-0.5c0.1,0.1,0.2,0.3,0.3,0.4 M229,71.8c-0.1-0.1-0.2-0.2-0.2-0.3c0.1,0,0.2,0.2,0.2,0.4c-0.1,0-0.2,0-0.2-0.2
	 M232.2,72.2c-0.2,0.1-0.4-0.1-0.4-0.4C232.1,71.8,232.2,71.9,232.2,72.2L232,72c0.1,0,0.2-0.1,0.2,0S232.3,72.2,232.2,72.2
	 M231.7,65.4c-0.1,0.1-0.3,0-0.4-0.1c-0.2,0.2,0,0.7,0.2,0.6s0.1-0.7-0.1-0.6C231.4,65.2,231.6,65.3,231.7,65.4 M230.4,69.4
	c-0.2,0.2-0.6,0-0.7-0.4c0.2-0.1,0.5,0,0.6,0.2c0,0.2-0.2,0.2-0.3,0 M230.1,66.3c-0.1-0.2-0.1-0.4-0.2-0.7c0.1-0.1,0.1,0.1,0.1,0.3
	c0,0.1-0.1,0-0.1-0.1c0,0,0.1,0.2,0.1,0.3 M227.3,66.9c-0.1-0.2-0.2-0.7-0.2-1.1c0.1-0.1,0.2,0.3,0.1,0.5c-0.1-0.1-0.1-0.2-0.1-0.4
	c0.1,0.1,0.1,0.3,0.1,0.4c-0.1,0-0.1-0.1-0.1-0.2 M232.7,69.2c-0.3,0.2-0.6-0.5-0.6-1.3c0.2-0.2,0.3,0,0.4,0.4
	c-0.1,0.3-0.3,0.1-0.2-0.2c0.1,0.1,0.1,0.2,0.1,0.4s-0.1,0.1-0.1,0 M228.2,67.9c0.1-0.1,0.1,0.2,0,0.3S228.1,68.2,228.2,67.9
	c-0.1-0.1-0.1-0.2-0.1-0.4c0.1,0,0.2,0.4,0.2,0.8C228.3,68.1,228.3,67.9,228.2,67.9v0.3 M226.8,72.1c-0.1-0.1,0-0.6,0.1-0.4
	c0.1,0.1,0.1,0.5,0.1,0.8c-0.1,0-0.2-0.3-0.2-0.6c0.1,0.1,0.1,0.6,0.1,0.9 M234.2,69.7c-0.1,0-0.2-0.1-0.2-0.3
	C234,69.1,234.2,69.3,234.2,69.7c-0.1-0.1-0.1-0.3-0.1-0.5c0.1-0.2,0.2,0,0.3,0.3c0-0.2-0.1-0.2-0.2-0.3s0-0.6,0.1-0.4 M225.8,66
	c-0.2,0.2-0.4,0.1-0.6-0.3c0.1-0.2,0.2-0.1,0.3,0.2c-0.1-0.1-0.1-0.3-0.1-0.5c0.1,0.1,0.1,0.5,0.1,0.8 M224.5,72.7v-0.8
	c0.2-0.2,0.3,0.5,0.2,0.9c-0.1-0.1-0.1-0.3-0.1-0.6 M223.7,68.2c-0.1,0.3-0.3-0.1-0.2-0.4c0.1,0.2,0.2,0.6,0.2,1
	C223.6,68.8,223.6,68.4,223.7,68.2 M222.5,63.2c-0.1,0.4-0.3,0.3-0.3-0.2h0.3c0,0.2-0.1,0.6-0.1,0.4 M221.5,67.6
	c-0.1-0.1-0.1-0.4,0-0.6c0.1-0.1,0.3,0.5,0.2,0.8c0-0.1-0.1-0.3-0.1-0.4 M219.5,68.2c-0.2,0-0.3-0.4-0.3-0.9
	C219.3,67.4,219.4,67.7,219.5,68.2c-0.1-0.2-0.2-0.4-0.2-0.6 M236.6,64.9c0.1,0,0.2,0,0.3,0.1 M239.1,67.7c0.1,0,0.2,0.1,0.2,0.3
	c-0.1-0.2-0.1-0.4-0.1-0.6 M232.3,66.9c0.2,0.1,0.3,0.3,0.4,0.6v-0.7 M236,67.2c-0.1,0.1-0.1,0.2-0.2,0.3c-0.1-0.2-0.1-0.4-0.1-0.6
	c0.1,0,0.1,0.3,0,0.3 M228.4,64c0.1,0,0.2,0,0.3,0.1 M230.9,66.8c0.1,0,0.2,0.1,0.2,0.3c-0.1-0.2-0.1-0.4-0.1-0.6 M227.9,66.2
	c-0.1,0.1-0.1,0.2-0.2,0.3c-0.1-0.2-0.1-0.4-0.1-0.6c0.1,0,0.1,0.3,0,0.3 M227,61.8c0.2-0.3,0.6,0.1,0.6,0.5c-0.1,0-0.2-0.1-0.2-0.2
	s0.2-0.1,0.1,0 M228.5,67.6c0.2-0.3,0.5,0.1,0.4,0.4c-0.2-0.1-0.4-0.4-0.4-0.8c0.2,0,0.3,0.2,0.3,0.5c-0.1-0.1-0.2-0.2-0.3-0.4
	 M223.1,64.7c0.1,0,0.2,0,0.3,0.1 M222.6,66.9c-0.1,0.1-0.1,0.2-0.2,0.3c-0.1-0.2-0.1-0.4-0.1-0.6c0.1,0,0.1,0.3,0,0.3"/>
<path class="st4" d="M221.8,62.6c0.2-0.3,0.6,0.1,0.6,0.5c-0.1,0-0.2-0.1-0.2-0.2s0.2-0.1,0.1,0 M223.3,68.3
	c0.2-0.3,0.5,0.1,0.4,0.4c-0.2-0.1-0.4-0.4-0.4-0.8c0.2,0,0.3,0.2,0.3,0.5c-0.1-0.1-0.2-0.2-0.3-0.4 M234.9,63.9
	c0.1,0,0.2,0,0.3,0.1 M237.4,66.7c0.1,0,0.2,0.1,0.2,0.3c-0.1-0.2-0.1-0.4-0.1-0.6 M234.4,66.1c-0.1,0.1-0.1,0.2-0.2,0.3
	c-0.1-0.2-0.1-0.4-0.1-0.6c0.1,0,0.1,0.3,0,0.3 M235.1,67.6c0.2-0.3,0.5,0.1,0.4,0.4c-0.2-0.1-0.4-0.4-0.4-0.8
	c0.2,0,0.3,0.2,0.3,0.5c-0.1-0.1-0.2-0.2-0.3-0.4 M225,67.4c0.1,0.2,0.2,0.4,0.3,0.7c-0.1,0-0.3-0.1-0.3-0.3
	c0.2,0.1,0.4,0.3,0.5,0.5c-0.3-0.2-0.5-0.5-0.7-0.8 M223.8,62.6c0.1,0.1,0.2,0.2,0.2,0.3c-0.1,0-0.2-0.2-0.2-0.4
	c0.1,0,0.2,0,0.2,0.1 M221.2,69.3c0.1-0.1,0.3-0.1,0.4,0c0.2-0.2,0-0.7-0.2-0.6s-0.1,0.7,0.1,0.6c0,0.1-0.2,0-0.2-0.1 M222.5,65.2
	c0.2-0.3,0.6-0.1,0.7,0.3c-0.2,0.1-0.5,0.1-0.6-0.2c0-0.2,0.2-0.2,0.3-0.1 M229.9,64.9c0.1-0.2,0.2,0.1,0.2,0.4
	c-0.1,0.1-0.1,0.1-0.2,0V64.9c0-0.2,0.1,0,0.1,0.2c0,0.1-0.1,0.1-0.1,0.1V64.9 M225.8,63.6h0.3c0,0.7,0,0.7-0.1,0.8v-0.2
	c0.1,0,0.1,0.2,0.1,0.4c-0.1,0-0.2-0.4-0.2-0.8 M233.1,69.2c-0.1,0.1-0.1-0.5-0.1-0.9c0-0.2,0.1-0.2,0.1,0.1s-0.1,0.5-0.1,0.2
	c0-0.2,0-0.5,0.1-0.3v0.5 M224.6,65.4c-0.1,0.3-0.2-0.7-0.1-1.1c0.1,0.1,0.1,0.9,0,1 M223.7,71.6c-0.1,0.4-0.2,0.2-0.3-0.5
	c0.1-0.2,0.1,1,0,1.2 M220.3,67.7c-0.1,0.3-0.1,0-0.1-0.3v-1.2c0.1-0.1,0.2,0.7,0.2,1.4c-0.1,0.2-0.1-0.4-0.1-0.7"/>
</svg>
