<?xml version="1.0" encoding="utf-8"?>
<!-- Generator: Adobe Illustrator 19.2.0, SVG Export Plug-In . SVG Version: 6.00 Build 0)  -->
<svg version="1.1" id="Layer_1" xmlns="http://www.w3.org/2000/svg" xmlns:xlink="http://www.w3.org/1999/xlink" x="0px" y="0px"
	 viewBox="0 0 700 700" style="enable-background:new 0 0 700 700;" xml:space="preserve">
<style type="text/css">
	.st0{fill:none;}
	.st1{fill:none;stroke:#000000;stroke-width:5;stroke-miterlimit:10;}
	.st2{opacity:0.9;fill:url(#SVGID_1_);}
	.st3{fill:#F6FCF0;}
	.st4{fill:#EDF78D;}
	.st5{fill:#F49B0C;}
</style>
<rect x="0" y="0" class="st0" width="700" height="700"/>
<path class="st1" d="M6708.6-568.1c0.3,38.5,0.2,82.4-5.7,120.5c-2.3,14.7-3.7,31.7-10.6,44.9c-9.4,17.9-18.6,35.9-34,49.5
	c-5.5,4.9-11.5,9.2-17.9,12.8c-4.2,2.3-15.3,5.1-15.9,10.8c-0.4,3.6,3.8,5.7,6.9,7.6c6.9,4.3,10.9,12.3,11.6,20.4
	c1.5,15.4-5.6,30.7-18.9,38.8c-0.8,0.5-1.6,1-1.9,1.8c-0.7,2.1,2.1,3.4,4.2,3.8c12.1,2.1,24,5,35.7,8.7c7.7,2.4,24.3,10.6,12,18.5
	c-7.7,4.9-17,6.2-26,7.3c-24.7,3.1-49.7,6.2-74.5,3.9c-5.6-0.5-11.2-1.4-16.8-2.2c-7.5-1.1-15-2.2-22.5-3.3
	c-5.3-0.8-11.8-2.7-12.7-7.9c-1.7-10.2,16.6-15.1,23.6-17.2c4.9-1.5,36.5-4.6,35.6-9.3c-0.5-2.4-2.8-3.9-4.8-5.4
	c-8.9-6.4-15-16.4-16.6-27.2c-1.6-10.8,1.3-22.2,7.9-30.9c2.2-2.9,4.9-6,4.4-9.6c-0.2-1.5-1-2.9-2-4.1c-5.1-6.7-15.9-9.5-22.8-14.7
	c-7.9-6-15.2-12.8-21.6-20.4c-12.5-14.5-22.1-31.5-27.6-49.9c-5.2-17.2-6.9-35.3-8.2-53.2c-2.3-31-3.6-62-3.8-93.1
	c20.2-2.4,42-1.8,62.4-1.4C6600.9-567.5,6708.6-570.2,6708.6-568.1z"/>
<g>
	<path d="M6582-253.2c0,0,0,0.2,0,0.5c0,0.3,0,0.8,0,1.4c0,0.6,0.1,1.3,0.6,1.9c0.4,0.6,1.2,0.8,2.2,0.8c2.1-0.1,4.5-0.2,7.1-0.2
		c1.3,0,2.7-0.1,4-0.1c1.4-0.1,2.8-0.1,4.1-0.2c1.4-0.1,2.8-0.1,4.1-0.2c1.4-0.1,2.7-0.1,4-0.2c2.6-0.1,5-0.2,7.1-0.3
		c2-0.1,3.7-0.6,4.6-1.3c0.4-0.4,0.7-0.8,0.8-1.1c0.1-0.3,0.2-0.5,0.2-0.5s0,0.2,0,0.5c-0.1,0.3-0.2,0.8-0.6,1.3
		c-0.4,0.5-1.1,1-1.9,1.4c-0.8,0.4-1.8,0.7-2.8,0.8c-2.1,0.4-4.5,0.7-7.1,0.9c-1.3,0.1-2.7,0.3-4,0.4c-1.4,0.1-2.8,0.2-4.2,0.2
		c-1.4,0-2.8,0.1-4.2,0.1c-1.4,0-2.7,0-4.1,0c-2.6-0.1-5.1-0.2-7.2-0.4c-0.5-0.1-1.1-0.1-1.6-0.4c-0.5-0.3-0.9-0.7-1.1-1.1
		c-0.4-0.9-0.4-1.7-0.3-2.3c0.1-0.6,0.2-1.1,0.3-1.4C6581.9-253,6582-253.2,6582-253.2z"/>
</g>
<g>
	<path d="M6581.6-337.8c0,0,0.6,0.2,1.6,0.5c0.5,0.2,1.2,0.3,1.9,0.5c0.7,0.2,1.6,0.4,2.4,0.5c0.9,0.2,1.9,0.3,2.9,0.5
		c1,0.1,2.1,0.2,3.3,0.3c1.1,0.1,2.3,0.1,3.5,0.2c1.2,0,2.4,0,3.6,0c1.2,0,2.5,0,3.7-0.1c1.2,0,2.4-0.1,3.6-0.1
		c2.3-0.1,4.5-0.1,6.3-0.3c1.8-0.2,3.2-0.6,4.1-1.2c0.4-0.3,0.8-0.6,1-0.8c0.2-0.2,0.3-0.3,0.3-0.3s-0.1,0.1-0.2,0.4
		c-0.2,0.3-0.4,0.6-0.8,1c-0.8,0.8-2.3,1.6-4.2,2c-0.9,0.2-2,0.4-3,0.5c-1.1,0.1-2.2,0.3-3.3,0.4c-1.2,0.1-2.4,0.2-3.6,0.3
		c-1.2,0.1-2.5,0.1-3.7,0.2c-1.3,0-2.5,0-3.7-0.1c-0.6,0-1.2-0.1-1.8-0.1c-0.6-0.1-1.2-0.1-1.8-0.2c-1.2-0.1-2.3-0.4-3.4-0.6
		c-0.5-0.1-1-0.3-1.5-0.4c-0.5-0.2-1-0.3-1.4-0.4c-1.8-0.6-3.2-1.3-4.2-1.8C6582.2-337.5,6581.6-337.8,6581.6-337.8z"/>
</g>
<g>
	<path d="M6531.5-235.7c0,0,0.1,0.1,0.3,0.3c0.2,0.2,0.5,0.4,1,0.6c0.9,0.5,2.3,1,4.2,1.4c1.9,0.4,4.2,0.7,6.8,1.1
		c2.6,0.4,5.6,0.7,8.9,1.1c3.3,0.3,6.8,0.7,10.6,1c3.7,0.3,7.7,0.5,11.8,0.7c8.2,0.3,17,0.5,25.7,0.6c4.4,0.1,8.8,0.1,13.1,0.2
		c4.3,0,8.5,0.1,12.6,0c4.1-0.1,8-0.4,11.7-0.8c3.7-0.5,7.2-1.1,10.4-1.7c6.4-1.4,11.6-3,15.2-4.3c1.8-0.7,3.2-1.2,4.2-1.6
		c1-0.4,1.5-0.6,1.5-0.6s-0.5,0.2-1.4,0.7c-0.9,0.4-2.3,1.1-4.1,1.8c-3.5,1.5-8.7,3.5-15.1,5.1c-6.4,1.6-14.1,2.9-22.3,3.2
		c-4.1,0.2-8.4,0.2-12.7,0.2c-4.3,0-8.7-0.1-13.1-0.1c-4.4-0.1-8.8-0.2-13.1-0.3c-4.3-0.1-8.6-0.4-12.7-0.6c-4.1-0.3-8.1-0.6-11.8-1
		c-3.8-0.4-7.3-0.8-10.6-1.3c-1.6-0.3-3.2-0.5-4.7-0.7c-1.5-0.3-2.9-0.5-4.2-0.8c-2.6-0.5-4.9-1-6.8-1.5c-1.9-0.5-3.3-1.1-4.1-1.7
		c-0.4-0.3-0.7-0.5-0.9-0.7C6531.6-235.6,6531.5-235.7,6531.5-235.7z"/>
</g>
<linearGradient id="SVGID_1_" gradientUnits="userSpaceOnUse" x1="6498.813" y1="-446.2358" x2="6704.6909" y2="-446.2358">
	<stop  offset="1.785714e-02" style="stop-color:#801FE3"/>
	<stop  offset="1" style="stop-color:#B7A7FF"/>
</linearGradient>
<path class="st2" d="M6498.8-539.9c1.4,24.4,2.7,48.8,4.1,73.2c0.4,7.9,0.9,15.9,2.2,23.7c1.8,11.1,5.4,21.8,8.9,32.5
	c3,9.1,6,18.2,11.1,26.3c17.8,28.1,51.5,32.7,81.9,31.3c10.6-0.5,21.3-1.5,31.5-4.7c66.9-21.3,65.2-117,66.1-172.7
	c0-2.6,0.1-5.1,0.1-7.7C6636-535.8,6567.2-534,6498.8-539.9z"/>
<g>
	<path d="M6493.7-559.6c0,0,0.6,8.1,1.5,22.2c0.5,7.1,1,15.6,1.7,25.5c0.6,9.8,1.4,20.9,2.1,33.1c0.4,6.1,0.7,12.4,1.3,18.9
		c0.5,6.5,1.4,13.2,3,19.9c1.6,6.7,3.7,13.5,6,20.4c2.4,6.9,4.5,14,7.5,20.9c0.8,1.7,1.5,3.4,2.4,5.1c0.9,1.6,1.8,3.3,2.8,4.8
		c1.1,1.6,2.2,3.1,3.4,4.7c1.2,1.4,2.5,2.8,3.7,4.3c5.3,5.5,11.7,10,18.8,13.2c7.1,3.3,14.8,5.4,22.6,6.6c7.9,1.3,15.9,1.7,23.9,1.7
		c8-0.1,16.1-0.4,24-1.5c3.9-0.5,7.9-1.2,11.7-2.2c1-0.3,1.9-0.5,2.8-0.8l0.7-0.2c0.1,0,0,0,0.1,0l0.2-0.1l0.4-0.1l1.4-0.5l2.8-1
		c0.5-0.2,0.9-0.3,1.4-0.5l1.3-0.6c7.1-3.1,13.7-7.4,19.4-12.5c5.7-5.1,10.5-11.1,14.4-17.5c4-6.3,7.1-13.1,9.7-19.8
		c2.6-6.8,4.6-13.6,6.3-20.3c3.2-13.5,5-26.5,6.2-38.5c1.1-12.1,1.7-23.2,2-33c0.3-9.9,0.5-18.4,0.7-25.5
		c0.2-14.2,0.4-22.2,0.4-22.2s0,2,0.1,5.8c0,3.8,0.1,9.4,0.2,16.4c0,7.1,0,15.7-0.2,25.5c-0.1,9.9-0.5,21-1.5,33.1
		c-1,12.1-2.6,25.2-5.7,38.9c-1.6,6.8-3.6,13.7-6.1,20.6c-2.5,6.9-5.7,13.8-9.8,20.3c-4,6.5-9,12.7-14.8,18.1
		c-5.9,5.4-12.7,9.8-20.2,13.1l-1.4,0.6c-0.5,0.2-0.9,0.4-1.4,0.5l-2.8,1l-1.4,0.5l-0.4,0.1l-0.2,0.1l-0.2,0.1l-0.7,0.2
		c-1,0.3-2,0.6-2.9,0.8c-3.9,1-8,1.8-12,2.4c-8.1,1.1-16.2,1.5-24.4,1.6c-8.2,0-16.3-0.5-24.4-1.8c-8-1.3-16-3.5-23.3-7
		c-7.4-3.4-14.1-8.1-19.6-13.9c-1.3-1.5-2.6-3.1-3.9-4.6c-1.1-1.6-2.2-3.2-3.3-4.7c-2.2-3.4-3.9-6.8-5.4-10.4
		c-3-7.1-5.2-14.2-7.5-21.2c-2.2-7-4.3-13.9-5.8-20.7c-1.6-6.9-2.4-13.6-2.8-20.2c-0.5-6.6-0.7-12.9-1-18.9
		c-0.6-12.1-1.1-23.2-1.6-33.1c-0.5-9.9-0.8-18.4-1.2-25.5C6494-551.6,6493.7-559.6,6493.7-559.6z"/>
</g>
<g>
	<path d="M6494.1-544.2c0,0,0.8,0,2.4,0.1c1.6,0.1,3.8,0.2,6.7,0.3c2.9,0.2,6.4,0.3,10.5,0.5c4,0.2,8.6,0.3,13.6,0.5
		c5,0.2,10.4,0.3,16.1,0.5c5.7,0.2,11.7,0.2,17.9,0.4c6.2,0.1,12.6,0.1,19.2,0.2c6.5,0.1,13.2,0,19.8,0.1c6.6,0,13.3,0,19.8-0.1
		c6.5-0.1,13-0.1,19.2-0.2c12.5-0.1,24.1-0.2,34-0.3c10-0.1,18.3-0.1,24.1-0.1c2.9,0,5.2,0,6.7,0c1.6,0,2.4,0,2.4,0
		s-0.8,0.1-2.4,0.2c-1.6,0.1-3.8,0.2-6.7,0.4c-5.8,0.3-14.1,0.8-24.1,1.3c-10,0.5-21.6,0.9-34,1.3c-6.2,0.1-12.7,0.4-19.2,0.4
		c-6.5,0.1-13.2,0.1-19.8,0.2c-6.6,0-13.3,0-19.8-0.2c-6.5-0.1-13-0.3-19.2-0.4c-6.2-0.2-12.3-0.4-18-0.8c-2.9-0.2-5.6-0.3-8.3-0.5
		c-2.7-0.2-5.3-0.4-7.8-0.5c-2.5-0.2-4.9-0.3-7.1-0.5c-2.3-0.2-4.4-0.4-6.4-0.6c-4-0.4-7.6-0.7-10.4-1c-2.9-0.3-5.2-0.6-6.7-0.7
		C6494.9-544.1,6494.1-544.2,6494.1-544.2z"/>
</g>
<path class="st3" d="M458.3,460c-52.7-7.7-102.5-1.9-152.1-2.4c-23-0.2-47.5,3.3-69.7-2.6c-0.1,0-0.3-0.1-0.4-0.1
	c-0.3,24.9-0.5,49.8-0.8,74.7c0.2-0.4,217.8,4.9,221.8,0.6c-0.3,0-0.1-0.2,0.3-0.5c0-1.8,0-3.6,0-5.3c-0.1-21.4,0.5-43,0.9-64.4
	C458.4,460,458.3,460,458.3,460z"/>
<path class="st4" d="M457.5,530.3c-0.1,0-0.2-0.1-0.3-0.1c-4,4.3-208.2-3.6-221.3,0.7c-0.2,0-0.4,0-0.6,0c0,1.1,0,2.2,0,3.3
	c-0.1,12.9-0.2,26.2,4.1,38.4c7.9,22.1,30.1,37.2,53.3,40.8c12.7,2,24,2.8,36.8,3c24.3,0.3,48.8,0.6,72.5-4.6
	c9.4-2.1,18.7-5,26.6-10.4C452.8,584.8,457.1,557,457.5,530.3z"/>
<path class="st1" d="M469.1,397.6c0,0,1.1,134.7,0.8,139.1c-1,14.1-3.4,28.3-9.7,41c-6.3,12.7-16.5,23.8-29.7,28.9
	c-3.6,1.4-7.5,2.4-10.7,4.6c-5.8,4-8.5,11.6-7.4,18.5s5.9,13,11.9,16.6c4.8,2.8,10.3,4.2,15.4,6.4s10.2,5.3,12.6,10.3
	c7,14.6-19.4,24-30,25.8c-29.5,4.8-95,11.3-148.6-3c-16.8-4.5-26-17.5-22.7-23.6c3.9-7.2,13.3-8.8,20.5-12.8
	c8.5-4.8,14.3-14.1,14.7-23.8c0.2-3.6-0.5-7.4-3.1-9.9c-2.1-2-5.1-2.7-7.9-3.4c-16.1-4.4-30.3-15.6-37.7-30.5
	c-8.4-16.8-7.9-36.5-7.3-55.2c1.4-40.4,0.4-84.8,1.8-125.2C232.2,399.8,390.1,399.4,469.1,397.6z"/>
<g>
	<path d="M239,414.2c0,0,0,8.6,0,23.7c0,7.5,0,16.7,0,27.2c0,10.5-0.1,22.4-0.1,35.3c0,6.5-0.1,13.2-0.1,20.2c0,7-0.2,14.2,0.1,21.5
		c0.3,7.3,1,14.9,3.2,22.2c0.3,0.9,0.6,1.8,0.9,2.7c0.4,0.9,0.7,1.8,1.1,2.7l0.6,1.4c0.2,0.4,0.4,0.9,0.6,1.3
		c0.4,0.8,0.9,1.7,1.3,2.6c0.5,0.8,1,1.7,1.5,2.5c0.3,0.4,0.5,0.8,0.8,1.2l0.9,1.2c0.6,0.8,1.1,1.6,1.7,2.4l1.9,2.3
		c10.4,11.9,25.8,20.1,42.2,22.6c8.4,1.3,16.8,2.1,25.3,2.5c4.3,0.2,8.5,0.3,12.8,0.3c4.3,0,8.6,0.1,12.9,0.1
		c17.2,0.1,34.4-0.4,51-3.4c8.3-1.5,16.5-3.4,23.9-6.7c3.7-1.6,7.3-3.6,10.4-6l2.5-1.8c0.8-0.6,1.5-1.3,2.2-2l2.2-2l2-2.2
		c5.3-5.9,9.2-12.8,11.8-20c2.6-7.2,4.1-14.6,5-21.9c1.8-14.6,1.1-28.6,1.5-41.6c0.2-12.9,0.6-24.8,0.9-35.3
		c0.3-10.5,0.5-19.7,0.7-27.2c0.1-7.5,0.2-13.5,0.2-17.5c0-4,0-6.2,0-6.2s0.1,2.2,0.2,6.2c0.1,4,0.2,10,0.2,17.5
		c0,7.5,0,16.7-0.1,27.2c-0.1,10.5-0.2,22.4-0.3,35.3c0,6.5,0,13.2,0.1,20.2c0,7-0.2,14.2-1,21.7c-0.8,7.4-2.3,15-4.9,22.5
		c-2.6,7.5-6.7,14.7-12.1,20.9l-2.1,2.3l-2.3,2.1c-0.8,0.7-1.5,1.5-2.4,2.1l-2.5,1.9c-3.3,2.6-7.1,4.7-10.9,6.4
		c-7.8,3.4-16.1,5.4-24.5,6.9c-16.9,3-34.3,3.6-51.5,3.6c-4.3,0-8.6-0.1-12.9-0.1c-4.3,0-8.6-0.2-12.9-0.4
		c-8.6-0.4-17.2-1.3-25.6-2.7c-17.1-2.7-32.9-11.2-43.8-23.7c-0.7-0.8-1.3-1.6-2-2.4c-0.6-0.8-1.2-1.7-1.8-2.5l-0.9-1.2
		c-0.3-0.4-0.5-0.9-0.8-1.3c-0.5-0.9-1.1-1.7-1.6-2.6c-0.5-0.9-0.9-1.8-1.4-2.7c-0.2-0.5-0.5-0.9-0.7-1.4l-0.5-1.4
		c-0.4-0.9-0.7-1.8-1.1-2.8c-0.3-1-0.6-1.9-0.9-2.8c-2.2-7.6-2.9-15.4-3.1-22.8c-0.2-7.5,0.1-14.7,0.2-21.6c0.1-7,0.2-13.7,0.3-20.2
		c0.2-12.9,0.5-24.8,0.7-35.3c0.2-10.5,0.4-19.7,0.5-27.2C238.8,422.8,239,414.2,239,414.2z"/>
</g>
<g>
	<path d="M295.7,621.1c0,0,1.6,0.3,4.4,0.9c1.4,0.3,3.1,0.6,5,0.9c1,0.2,2,0.3,3.1,0.5c1.1,0.2,2.2,0.4,3.4,0.5
		c1.2,0.2,2.4,0.3,3.7,0.5c1.3,0.2,2.6,0.3,4,0.5c2.8,0.3,5.7,0.5,8.7,0.7c6,0.3,12.5,0.5,18.9,0.2c3.2-0.1,6.4-0.3,9.6-0.5
		c3.1-0.3,6.3-0.6,9.3-0.9c6-0.7,11.6-1.6,16.4-2.4c4.8-0.8,8.8-1.5,11.6-2c2.8-0.5,4.4-0.8,4.4-0.8s-1.6,0.4-4.3,1.1
		c-2.8,0.7-6.7,1.7-11.4,2.7c-2.4,0.5-5,1.1-7.7,1.6c-2.7,0.5-5.6,1-8.7,1.4c-3,0.4-6.1,0.8-9.3,1.1c-3.2,0.3-6.4,0.5-9.7,0.6
		c-3.3,0.1-6.5,0.1-9.7,0c-3.2,0-6.3-0.3-9.4-0.5c-3-0.3-6-0.6-8.7-1c-2.8-0.4-5.4-0.8-7.8-1.3c-2.4-0.4-4.6-0.9-6.5-1.4
		c-1.9-0.5-3.6-0.9-5-1.3c-1.4-0.4-2.4-0.7-3.2-0.9C296.1,621.2,295.7,621.1,295.7,621.1z"/>
</g>
<g>
	<path d="M238.4,525.7c0,0,0.2-0.1,0.6-0.2c0.4-0.1,1-0.3,1.8-0.4c1.6-0.3,4-0.6,7-0.8c3-0.3,6.7-0.5,10.9-0.7
		c4.2-0.2,9-0.3,14.2-0.4c5.2,0,10.8-0.1,16.8,0c6,0.1,12.2,0.4,18.7,0.7c6.5,0.3,13.2,0.6,20,0.6c3.4,0,6.8,0.1,10.3,0.1
		c3.4,0,6.9-0.1,10.4-0.1c3.5,0,6.9-0.1,10.4-0.1c3.4,0,6.9,0,10.3,0c6.8,0,13.5,0.1,20,0.1c3.2,0,6.4,0.1,9.6,0.1
		c3.1,0,6.2,0.1,9.1,0.1c5.9,0.1,11.6,0.2,16.8,0.4c5.2,0.1,9.9,0.2,14.2,0.3c4.2,0.1,7.9,0.1,10.9,0.1c3,0,5.4,0,7-0.1
		c0.8-0.1,1.4-0.1,1.8-0.2c0.4-0.1,0.5-0.2,0.5-0.2l0.2,0.2c0,0-0.1,0-0.2,0.1c-0.1,0.1-0.3,0.1-0.5,0.2c-0.4,0.1-1,0.3-1.8,0.4
		c-1.6,0.3-4,0.5-7,0.8c-3,0.3-6.7,0.4-10.9,0.6c-4.2,0.2-9,0.3-14.2,0.4c-5.2,0.1-10.8,0.1-16.8,0.1c-3,0-6,0-9.2-0.1
		c-3.1,0-6.3-0.1-9.6-0.2c-6.5-0.2-13.2-0.4-20-0.5c-3.4-0.1-6.8-0.2-10.3-0.4c-3.4-0.2-6.9-0.3-10.4-0.5c-3.5-0.1-6.9-0.3-10.4-0.4
		c-3.4-0.1-6.9-0.2-10.3-0.3c-6.8-0.1-13.5-0.1-20,0.1c-6.5,0.1-12.8,0.3-18.7,0.3c-5.9,0-11.6-0.1-16.8-0.1
		c-5.2-0.1-9.9-0.1-14.2-0.2c-4.2,0-7.9-0.1-10.9-0.1c-3,0-5.4,0.1-7,0.2c-1.6,0.1-2.4,0.3-2.4,0.3L238.4,525.7z"/>
</g>
<g>
	<path d="M239.1,449.8c0,0,0.8,0.2,2.4,0.6c1.6,0.4,3.9,0.8,6.9,1.3c1.5,0.2,3.2,0.5,5,0.6c0.9,0.1,1.9,0.2,2.8,0.3
		c1,0.1,2,0.1,3.1,0.2c4.2,0.2,9,0.3,14.2,0.2c5.2-0.1,10.8-0.4,16.8-0.6c6-0.3,12.3-0.5,18.8-0.5c3.3,0,6.6,0,9.9-0.1
		c3.3-0.1,6.7-0.1,10.1-0.2c6.8-0.2,13.8-0.4,20.7-0.7c6.9-0.3,13.9-0.5,20.7-0.8c6.8-0.3,13.6-0.4,20.1-0.5c6.5,0,12.8,0,18.8,0.2
		c6,0.2,11.6,0.4,16.8,0.8c5.2,0.3,10,0.9,14.2,1.3c4.2,0.5,7.9,1,10.9,1.4c6,1,9.4,1.6,9.4,1.6l0,0.3c0,0-3.5-0.3-9.5-0.9
		c-3-0.2-6.7-0.5-10.9-0.8c-4.2-0.2-9-0.5-14.2-0.6c-2.6-0.1-5.3-0.2-8.1-0.2c-2.8,0-5.7-0.1-8.7-0.1c-6,0-12.2-0.1-18.7,0
		c-13,0.1-26.9,0.3-40.8,0.6c-6.9,0.2-13.9,0.3-20.7,0.3c-3.4,0-6.8,0-10.2,0c-3.4,0-6.7-0.1-9.9-0.1c-6.5-0.1-12.8,0.1-18.7,0.2
		c-6,0.1-11.6,0.3-16.8,0.3c-5.2,0-10-0.2-14.2-0.5c-1.1-0.1-2.1-0.2-3.1-0.3c-1-0.1-1.9-0.2-2.8-0.3c-1.8-0.2-3.5-0.5-5-0.7
		c-3-0.5-5.4-1-6.9-1.4c-1.6-0.4-2.4-0.6-2.4-0.6L239.1,449.8z"/>
</g>
<g>
	<path d="M266,663c0,0,2.6,0.8,7.2,1.9c2.3,0.6,5.1,1.3,8.4,2c3.2,0.7,6.9,1.5,10.9,2.2c4,0.8,8.4,1.5,13,2.2
		c4.6,0.7,9.5,1.3,14.6,2c5.1,0.6,10.3,1.1,15.6,1.5c5.3,0.4,10.8,0.6,16.2,0.8c2.7,0.1,5.4,0.1,8.1,0.1c2.7,0,5.4,0,8.1-0.1
		c2.7-0.1,5.3-0.1,7.9-0.3c2.6-0.2,5.2-0.3,7.7-0.5c2.5-0.2,5-0.4,7.5-0.7c2.4-0.3,4.8-0.5,7.1-0.8c2.3-0.3,4.6-0.6,6.7-0.9
		c2.2-0.3,4.3-0.7,6.3-1c2-0.3,3.9-0.7,5.8-1.1c1.8-0.4,3.6-0.7,5.2-1c3.2-0.8,6.1-1.4,8.4-1.9c4.6-1.2,7.3-1.9,7.3-1.9
		s-2.6,0.8-7.1,2.3c-2.3,0.7-5.1,1.4-8.3,2.3c-1.6,0.4-3.3,0.8-5.2,1.2c-1.8,0.4-3.7,0.9-5.7,1.2c-2,0.4-4.1,0.8-6.3,1.2
		c-2.2,0.4-4.4,0.7-6.8,1.1c-2.3,0.3-4.7,0.6-7.2,1c-2.4,0.3-5,0.5-7.5,0.8c-2.6,0.2-5.2,0.4-7.8,0.6c-2.6,0.2-5.3,0.2-8,0.4
		c-2.7,0.1-5.4,0.1-8.1,0.2c-2.7,0-5.5,0-8.2-0.1c-5.5-0.2-10.9-0.4-16.3-0.9c-5.4-0.4-10.6-1-15.7-1.6c-10.2-1.3-19.6-3.1-27.6-4.8
		c-8-1.7-14.6-3.6-19.2-4.9C268.6,664,266,663,266,663z"/>
</g>
<g>
	<g>
		<g>
			<path class="st5" d="M352.2,455.1c-0.6,0.2-1.5-0.1-1.5-0.5c0.1,0.1,0.4,0.1,0.4,0c0-0.1-0.3-0.1-0.4,0"/>
			<path class="st5" d="M355.1,459.5c-1-0.1-1.9-0.5-2.1-1c0.8,0.1,1.5,0.5,1.6,0.9c-0.3-0.2-0.5-0.4-0.8-0.6"/>
			<path class="st5" d="M348.1,463.4c-0.8-0.2-1.1-0.9-0.6-1.2c0.2,0.2,0.2,0.4,0.1,0.6c-0.4,0-0.8,0-1.2,0"/>
			<path class="st5" d="M340.7,460.6c-1.2,0.1-2-0.8-1.2-1.2c0.7,0.1,1.2,0.5,1.2,0.8c-0.4,0.1-0.9-0.2-0.7-0.4"/>
			<path class="st5" d="M345.6,456.8c-0.8-0.2-1.3-0.7-1.2-1.1c0.1,0.3,0.3,0.5,0.4,0.8"/>
			<path class="st5" d="M344,457.1c0.5,0,1,0,1.6,0.1"/>
			<path class="st5" d="M340.8,459.3c-0.3,0.1-0.6,0.2-1,0.3c-0.5-0.2-0.7-0.4-0.7-0.6c0.6,0,0.5,0.3-0.1,0.3"/>
			<path class="st5" d="M345.1,460.7c1.1-0.2,3.1,0.1,2.5,0.4c-1.4-0.1-2.5-0.4-2.7-0.8c1,0,1.9,0.2,1.7,0.5
				c-0.7-0.1-1.2-0.2-1.6-0.4"/>
			<path class="st5" d="M350.8,457c1.1,0.1,2.3,0.2,3.4,0.2c0.3,0.2-0.6,0.3-1.3,0.3s-1.1-0.2-1.5-0.4c1.1-0.1,2.6,0.1,2.8,0.4
				c-1.1-0.1-2.1-0.3-2.9-0.6"/>
		</g>
		<path class="st5" d="M353.9,462c-0.1,0.4-0.8-0.2-0.4-0.4c0.5,0.4,0.7,1.1,0.7,1.8c-0.4-0.3-0.6-0.9-0.5-1.4"/>
		<path class="st5" d="M348.6,458.5c-0.6-0.2-0.9-1.3-0.4-1.8c0.3,0.3,0.5,0.8,0.4,1.2c-0.3-0.2-0.3-0.7,0-0.9"/>
	</g>
	<g>
		<g>
			<path class="st5" d="M355.1,461.2c0.4,0.2,0.9-0.3,0.6-0.5c-0.3-0.3-0.9,0.1-0.8,0.4"/>
			<path class="st5" d="M357.7,458.2c-0.3-0.2-0.5-0.7-0.5-1.1c0.2-0.1,0.3,0.3,0.2,0.5c-0.1-0.1-0.2-0.2-0.2-0.4
				c0.1,0.1,0.2,0.3,0.2,0.4c-0.1,0-0.2-0.1-0.3-0.2"/>
			<path class="st5" d="M359.4,459.3c0.1-0.1,0.2,0.2,0.1,0.3s-0.2-0.1-0.2-0.2c0-0.2,0-0.3,0.1-0.5c0.3,0,0.5,0.4,0.4,0.8
				c0-0.2-0.1-0.4-0.2-0.4c-0.1,0-0.1,0.4,0,0.3"/>
			<path class="st5" d="M354.7,457.3c-0.4,0.2-0.8,0.1-1.1-0.3c0.2-0.2,0.5-0.1,0.6,0.2c-0.1-0.1-0.2-0.3-0.2-0.5
				c0.2,0.1,0.3,0.5,0.2,0.8"/>
			<path class="st5" d="M352.2,464c0-0.3,0-0.5,0-0.8c0.3-0.2,0.6,0.5,0.4,0.9c-0.2-0.1-0.3-0.3-0.2-0.6"/>
			<path class="st5" d="M350.5,459.4c-0.2,0.3-0.5-0.1-0.4-0.4c0.3,0.2,0.4,0.6,0.5,1.1c-0.2,0-0.3-0.4-0.2-0.6"/>
			<path class="st5" d="M348.1,462.8c-0.2,0.1-0.4-0.1-0.4-0.4c0.1,0.2,0.1,0.4,0.2,0.6c-0.1,0.1-0.1-0.2,0-0.2"/>
			<path class="st5" d="M348,454.4c-0.2,0.4-0.6,0.3-0.7-0.2c0.2,0,0.4,0,0.5,0c0.1,0.2-0.1,0.6-0.3,0.4"/>
			<path class="st5" d="M346.2,458.8c-0.1-0.1-0.2-0.4-0.1-0.6c0.3-0.1,0.5,0.5,0.3,0.8c-0.1-0.1-0.2-0.3-0.2-0.4"/>
			<path class="st5" d="M344.8,462.9c-0.3,0.2-0.7-0.3-0.7-0.8c0.2-0.2,0.4,0.1,0.4,0.4c-0.2,0-0.3-0.3-0.3-0.6
				c0.1,0.2,0.2,0.4,0.3,0.5"/>
			<path class="st5" d="M344,455c-0.2,0.2-0.5-0.3-0.3-0.6c0.1-0.2,0.4,0.1,0.3,0.3c0,0.2-0.3-0.1-0.1-0.2"/>
			<path class="st5" d="M342.1,459.3c-0.3,0-0.6-0.4-0.7-0.9c0.3,0.1,0.5,0.5,0.5,0.9c-0.1-0.2-0.2-0.4-0.3-0.6"/>
			<path class="st5" d="M358.7,457.5c-0.1,0.1-0.2,0.2-0.3,0.3c-0.2-0.2-0.2-0.4-0.2-0.6c0.2,0,0.2,0.3,0,0.3"/>
			<path class="st5" d="M349.3,455.9c0.2,0,0.4,0,0.5,0.1"/>
			<path class="st5" d="M348.3,458.2c-0.1,0.1-0.2,0.2-0.3,0.3c-0.2-0.2-0.2-0.4-0.2-0.6c0.2,0,0.2,0.3,0,0.3"/>
			<path class="st5" d="M346.6,453.8c0.5-0.2,1.2,0.1,1.1,0.5c-0.2,0-0.4-0.1-0.4-0.2c0-0.1,0.4-0.1,0.3,0"/>
			<path class="st5" d="M349.7,459.6c0.4-0.3,1,0.1,0.8,0.4c-0.5-0.1-0.8-0.4-0.9-0.8c0.3,0,0.6,0.2,0.6,0.5
				c-0.2-0.1-0.4-0.2-0.5-0.4"/>
			<path class="st5" d="M353.2,458.7c0.2,0.2,0.4,0.4,0.5,0.7c-0.3,0-0.5-0.1-0.5-0.3c0.4,0.1,0.8,0.3,1,0.6c-0.5-0.2-1-0.5-1.4-0.9
				"/>
			<path class="st5" d="M350.7,453.9c0.2,0.1,0.3,0.2,0.5,0.3c-0.3,0-0.5-0.2-0.5-0.4c0.2,0,0.4,0,0.5,0.1"/>
			<path class="st5" d="M344.2,453.8c0.3-0.1,0.7,0.1,0.7,0.4c-0.4,0-0.7-0.1-0.9-0.4c0.2,0,0.4,0.1,0.5,0.2
				c-0.1,0.1-0.3,0.1-0.4,0.1C344.1,454.1,344.1,453.9,344.2,453.8"/>
			<path class="st5" d="M345.7,460.5c0.3-0.1,0.6-0.1,0.9,0c0.4-0.2,0-0.7-0.4-0.6c-0.4,0.1-0.2,0.7,0.2,0.6c-0.1,0.1-0.4,0-0.3-0.1
				"/>
			<path class="st5" d="M348.1,456.4c0.5-0.3,1.2-0.1,1.3,0.4c-0.4,0.1-0.9,0-1.3-0.2c0.1-0.2,0.4-0.2,0.5,0"/>
			<path class="st5" d="M340.6,456.8c0.4,0.1,0.8,0.1,1.1,0.2c0.1,0.2-0.2,0.4-0.4,0.3s-0.4-0.2-0.5-0.4c0.4-0.1,0.9,0.1,0.9,0.4
				c-0.4-0.1-0.7-0.3-1-0.5"/>
			<path class="st5" d="M354.6,455c0,0,0.4,0,0.5,0c0.1,0.7,0,0.7-0.2,0.8c-0.1,0-0.1-0.2,0-0.2c0.1,0,0.2,0.2,0.2,0.4
				c-0.2,0-0.5-0.4-0.4-0.8"/>
		</g>
		<path class="st5" d="M352.2,456.7c-0.2,0.3-0.4-0.7-0.2-1.1c0.1,0.1,0.1,0.9,0,1"/>
		<path class="st5" d="M350.6,462.8c-0.2,0.4-0.4,0.2-0.5-0.5c0.2-0.2,0.3,1,0.1,1.2"/>
		<path class="st5" d="M343.7,458.8c-0.1,0.3-0.2,0-0.3-0.3s0-0.8,0-1.2c0.2-0.1,0.4,0.7,0.4,1.4c-0.1,0.1-0.3-0.4-0.2-0.8"/>
		<path class="st5" d="M339.9,458.4c-0.2-0.2-0.3-1.3-0.1-1.8c0.1,0.3,0.1,0.8,0.1,1.2c-0.1-0.2-0.1-0.7,0-0.9"/>
		<path class="st5" d="M342.5,454.6c-0.2,0.2-0.3-0.5-0.2-1c0,0.4,0,0.9,0,1.3c-0.1,0.1-0.3-0.4-0.2-0.8c0.1,0.1,0.1,0.4,0,0.5
			c-0.1,0.1-0.1-0.2-0.1-0.4"/>
	</g>
	<g>
		<g>
			<g>
				<path class="st5" d="M358.5,459.3c-0.2,0.3-0.8-0.1-0.6-0.4c0.4,0.2,0.7,0.6,0.7,1c-0.3,0-0.5-0.4-0.4-0.6"/>
				<path class="st5" d="M355,462.7c-0.3,0.1-0.6-0.1-0.6-0.4c0.1,0.2,0.2,0.4,0.2,0.6c-0.1,0.1-0.2-0.2-0.1-0.2"/>
				<path class="st5" d="M354.9,454.3c-0.2,0.4-1,0.3-1-0.2c0.3,0,0.5,0,0.8,0c0.2,0.2-0.2,0.6-0.4,0.4"/>
				<path class="st5" d="M352.1,458.7c-0.2-0.1-0.3-0.4-0.1-0.6c0.4-0.1,0.8,0.5,0.5,0.8c-0.1-0.1-0.2-0.3-0.3-0.4"/>
				<path class="st5" d="M350,462.8c-0.5,0.2-1-0.3-1-0.8c0.2-0.2,0.7,0.1,0.6,0.4c-0.3,0-0.5-0.3-0.5-0.6c0.1,0.2,0.3,0.4,0.4,0.5"
					/>
				<path class="st5" d="M348.9,454.9c-0.3,0.2-0.7-0.3-0.5-0.6c0.2-0.2,0.6,0.1,0.5,0.3c-0.1,0.2-0.4-0.1-0.2-0.2"/>
				<path class="st5" d="M344.5,454.9c-0.3,0.2-0.8-0.1-0.7-0.4c0,0.1,0.2,0.1,0.2,0c0-0.1-0.2-0.1-0.2,0"/>
				<path class="st5" d="M345.9,459.3c-0.5,0-0.9-0.4-1-0.9c0.4,0.1,0.7,0.5,0.8,0.9c-0.1-0.2-0.3-0.4-0.4-0.6"/>
				<path class="st5" d="M342.4,463.3c-0.4-0.2-0.6-0.8-0.3-1.2c0.1,0.2,0.1,0.4,0,0.6c-0.2,0-0.4,0-0.6,0"/>
				<path class="st5" d="M341.2,456.7c-0.4-0.2-0.7-0.6-0.6-1.1c0.1,0.3,0.1,0.5,0.2,0.8"/>
				<path class="st5" d="M340.3,457c0.3,0,0.5,0,0.8,0.1"/>
				<path class="st5" d="M340.9,460.6c0.5-0.3,1.5,0.1,1.3,0.4c-0.7-0.1-1.3-0.4-1.4-0.8c0.5,0,1,0.2,0.9,0.5
					c-0.3-0.1-0.6-0.2-0.8-0.4"/>
				<path class="st5" d="M356.8,455.8c0.3,0,0.5,0,0.8,0.1"/>
				<path class="st5" d="M355.2,458c-0.2,0.1-0.3,0.2-0.5,0.3c-0.2-0.2-0.3-0.4-0.3-0.6c0.3,0,0.3,0.3,0,0.3"/>
				<path class="st5" d="M352.7,453.7c0.7-0.3,1.8,0.1,1.7,0.5c-0.3,0-0.6-0.1-0.6-0.2c0-0.1,0.6-0.1,0.4,0"/>
				<path class="st5" d="M357.4,459.4c0.5-0.3,1.5,0.1,1.3,0.4c-0.7-0.1-1.3-0.4-1.4-0.8c0.5,0,1,0.2,0.9,0.5
					c-0.3-0.1-0.6-0.2-0.8-0.4"/>
				<path class="st5" d="M349.2,453.7c0.5-0.1,1.1,0.1,1.1,0.4c-0.5,0-1-0.1-1.3-0.3c0.3,0,0.6,0.1,0.8,0.2
					c-0.2,0.1-0.4,0.1-0.6,0.1S349,453.8,349.2,453.7"/>
				<path class="st5" d="M351.3,460.4c0.4-0.1,0.9-0.1,1.3,0c0.5-0.2,0-0.7-0.6-0.6c-0.6,0.1-0.3,0.7,0.4,0.6
					c-0.1,0.1-0.6,0-0.5-0.1"/>
				<path class="st5" d="M355,456.3c0.7-0.3,1.8-0.1,2,0.3c-0.7,0.1-1.4,0.1-1.9-0.2c0.1-0.2,0.7-0.2,0.8-0.1"/>
				<path class="st5" d="M343.8,456.8c0.6,0.1,1.1,0.1,1.7,0.2c0.1,0.2-0.3,0.4-0.6,0.3c-0.3,0-0.6-0.2-0.8-0.3
					c0.6-0.1,1.3,0.1,1.4,0.4c-0.5-0.1-1-0.3-1.4-0.5"/>
			</g>
			<path class="st5" d="M348.4,458.8c-0.1,0.3-0.4,0-0.5-0.3s-0.1-0.8,0-1.2c0.3-0.1,0.6,0.7,0.6,1.4c-0.2,0.2-0.4-0.4-0.3-0.7"/>
			<path class="st5" d="M345.3,461.8c-0.1,0.4-0.4-0.2-0.2-0.4c0.2,0.4,0.4,1.1,0.3,1.7c-0.2-0.3-0.3-0.9-0.2-1.4"/>
			<path class="st5" d="M342.7,458.4c-0.3-0.2-0.4-1.3-0.2-1.8c0.1,0.3,0.2,0.8,0.2,1.2c-0.2-0.2-0.2-0.7,0-0.9"/>
			<path class="st5" d="M346.5,454.5c-0.2,0.2-0.5-0.5-0.4-1c0.1,0.4,0.1,0.9,0,1.3c-0.2,0.1-0.4-0.4-0.3-0.8c0.1,0.1,0.1,0.4,0,0.5
				s-0.2-0.2-0.2-0.3"/>
		</g>
		<g>
			<g>
				<path class="st5" d="M345.9,461c0.2,0.2,0.5-0.3,0.3-0.5c-0.1-0.3-0.5,0.1-0.4,0.4"/>
				<path class="st5" d="M348,461.3c0,0,0-0.1,0-0.1"/>
				<path class="st5" d="M351.2,460.3c-0.1,0.1-0.2-0.1-0.2-0.2C351,460.2,351.1,460.2,351.2,460.3"/>
				<path class="st5" d="M348.9,457.4c0.1,0,0.2,0.1,0.3,0.1"/>
				<path class="st5" d="M355.6,460c-0.1,0-0.2-0.1-0.3-0.1"/>
				<path class="st5" d="M353.2,456.9c-0.1,0-0.2-0.2-0.2-0.3c0.1,0.2,0.1,0.4,0.1,0.6"/>
				<path class="st5" d="M353.6,463.1c-0.1,0-0.3-0.1-0.3-0.3c0-0.1,0.2-0.1,0.2,0"/>
				<path class="st5" d="M359.9,458.6c-0.2-0.1-0.3-0.3-0.3-0.6c0,0.2,0,0.4,0,0.7"/>
				<path class="st5" d="M356.2,457.8c0.1-0.1,0.1-0.2,0.2-0.3c0.1,0.2,0.1,0.4,0.1,0.6c-0.1,0-0.1-0.3,0-0.3"/>
				<path class="st5" d="M357.2,461.2c-0.1,0-0.2-0.1-0.3-0.1"/>
				<path class="st5" d="M354.8,458.1c-0.1,0-0.2-0.2-0.2-0.3c0.1,0.2,0.1,0.4,0.1,0.6"/>
				<path class="st5" d="M357.8,459.1c0.1-0.1,0.1-0.2,0.2-0.3c0.1,0.2,0.1,0.4,0.1,0.6c-0.1,0-0.1-0.3,0-0.3"/>
				<path class="st5" d="M357.1,457.5c-0.2,0.2-0.5-0.1-0.4-0.5c0.2,0.1,0.4,0.4,0.4,0.8c-0.2,0-0.3-0.2-0.3-0.5
					c0.1,0.1,0.2,0.3,0.3,0.4"/>
				<path class="st5" d="M348.9,462.9c-0.1-0.1-0.2-0.2-0.2-0.3c0.1,0,0.2,0.2,0.2,0.4c-0.1,0-0.2,0-0.2-0.2"/>
				<path class="st5" d="M352.1,463.3c-0.2,0.1-0.4-0.1-0.4-0.4C352,462.9,352.1,463,352.1,463.3c0,0-0.1-0.1-0.2-0.2
					c0.1,0,0.2-0.1,0.2,0S352.2,463.3,352.1,463.3"/>
				<path class="st5" d="M351.6,456.5c-0.1,0.1-0.3,0-0.4-0.1c-0.2,0.2,0,0.7,0.2,0.6c0.2-0.1,0.1-0.7-0.1-0.6c0-0.1,0.2,0,0.2,0.1"
					/>
				<path class="st5" d="M350.3,460.5c-0.2,0.2-0.6,0-0.7-0.4c0.2-0.1,0.5,0,0.6,0.2c0,0.2-0.2,0.2-0.3,0"/>
				<path class="st5" d="M350,457.4c-0.1-0.2-0.1-0.4-0.2-0.7c0.1-0.1,0.1,0.1,0.1,0.3c0,0.1-0.1,0-0.1-0.1c0,0,0.1,0.2,0.1,0.3"/>
				<path class="st5" d="M347.2,458c-0.1-0.2-0.2-0.7-0.2-1.1c0.1-0.1,0.2,0.3,0.1,0.5c-0.1-0.1-0.1-0.2-0.1-0.4
					c0.1,0.1,0.1,0.3,0.1,0.4c-0.1,0-0.1-0.1-0.1-0.2"/>
				<path class="st5" d="M352.6,460.3c-0.3,0.2-0.6-0.5-0.6-1.3c0.2-0.2,0.3,0,0.4,0.4c-0.1,0.3-0.3,0.1-0.2-0.2
					c0.1,0.1,0.1,0.2,0.1,0.4c0,0.2-0.1,0.1-0.1,0"/>
				<path class="st5" d="M348.1,459c0.1-0.1,0.1,0.2,0,0.3S348,459.3,348.1,459c-0.1-0.1-0.1-0.2-0.1-0.4c0.1,0,0.2,0.4,0.2,0.8
					C348.2,459.2,348.2,459,348.1,459c0,0,0,0.3,0,0.3"/>
				<path class="st5" d="M346.7,463.2c-0.1-0.1,0-0.6,0.1-0.4c0.1,0.1,0.1,0.5,0.1,0.8c-0.1,0-0.2-0.3-0.2-0.6
					c0.1,0.1,0.1,0.6,0.1,0.9"/>
				<path class="st5" d="M354.1,460.8c-0.1,0-0.2-0.1-0.2-0.3C353.9,460.2,354.1,460.4,354.1,460.8c-0.1-0.1-0.1-0.3-0.1-0.5
					c0.1-0.2,0.2,0,0.3,0.3c0-0.2-0.1-0.2-0.2-0.3s0-0.6,0.1-0.4"/>
				<path class="st5" d="M345.7,457.1c-0.2,0.2-0.4,0.1-0.6-0.3c0.1-0.2,0.2-0.1,0.3,0.2c-0.1-0.1-0.1-0.3-0.1-0.5
					c0.1,0.1,0.1,0.5,0.1,0.8"/>
				<path class="st5" d="M344.4,463.8c0-0.3,0-0.5,0-0.8c0.2-0.2,0.3,0.5,0.2,0.9c-0.1-0.1-0.1-0.3-0.1-0.6"/>
				<path class="st5" d="M343.6,459.3c-0.1,0.3-0.3-0.1-0.2-0.4c0.1,0.2,0.2,0.6,0.2,1C343.5,459.9,343.5,459.5,343.6,459.3"/>
				<path class="st5" d="M342.4,454.3c-0.1,0.4-0.3,0.3-0.3-0.2c0.1,0,0.2,0,0.3,0c0,0.2-0.1,0.6-0.1,0.4"/>
				<path class="st5" d="M341.4,458.7c-0.1-0.1-0.1-0.4,0-0.6c0.1-0.1,0.3,0.5,0.2,0.8c0-0.1-0.1-0.3-0.1-0.4"/>
				<path class="st5" d="M339.4,459.3c-0.2,0-0.3-0.4-0.3-0.9C339.2,458.5,339.3,458.8,339.4,459.3c-0.1-0.2-0.2-0.4-0.2-0.6"/>
				<path class="st5" d="M356.5,456c0.1,0,0.2,0,0.3,0.1"/>
				<path class="st5" d="M359,458.8c0.1,0,0.2,0.1,0.2,0.3c-0.1-0.2-0.1-0.4-0.1-0.6"/>
				<path class="st5" d="M352.2,458c0.2,0.1,0.3,0.3,0.4,0.6c0-0.2,0-0.4,0-0.7"/>
				<path class="st5" d="M355.9,458.3c-0.1,0.1-0.1,0.2-0.2,0.3c-0.1-0.2-0.1-0.4-0.1-0.6c0.1,0,0.1,0.3,0,0.3"/>
				<path class="st5" d="M348.3,455.1c0.1,0,0.2,0,0.3,0.1"/>
				<path class="st5" d="M350.8,457.9c0.1,0,0.2,0.1,0.2,0.3c-0.1-0.2-0.1-0.4-0.1-0.6"/>
				<path class="st5" d="M347.8,457.3c-0.1,0.1-0.1,0.2-0.2,0.3c-0.1-0.2-0.1-0.4-0.1-0.6c0.1,0,0.1,0.3,0,0.3"/>
				<path class="st5" d="M346.9,452.9c0.2-0.3,0.6,0.1,0.6,0.5c-0.1,0-0.2-0.1-0.2-0.2s0.2-0.1,0.1,0"/>
				<path class="st5" d="M348.4,458.7c0.2-0.3,0.5,0.1,0.4,0.4c-0.2-0.1-0.4-0.4-0.4-0.8c0.2,0,0.3,0.2,0.3,0.5
					c-0.1-0.1-0.2-0.2-0.3-0.4"/>
				<path class="st5" d="M343,455.8c0.1,0,0.2,0,0.3,0.1"/>
				<path class="st5" d="M342.5,458c-0.1,0.1-0.1,0.2-0.2,0.3c-0.1-0.2-0.1-0.4-0.1-0.6c0.1,0,0.1,0.3,0,0.3"/>
				<path class="st5" d="M341.7,453.7c0.2-0.3,0.6,0.1,0.6,0.5c-0.1,0-0.2-0.1-0.2-0.2s0.2-0.1,0.1,0"/>
				<path class="st5" d="M343.2,459.4c0.2-0.3,0.5,0.1,0.4,0.4c-0.2-0.1-0.4-0.4-0.4-0.8c0.2,0,0.3,0.2,0.3,0.5
					c-0.1-0.1-0.2-0.2-0.3-0.4"/>
				<path class="st5" d="M354.8,455c0.1,0,0.2,0,0.3,0.1"/>
				<path class="st5" d="M357.3,457.8c0.1,0,0.2,0.1,0.2,0.3c-0.1-0.2-0.1-0.4-0.1-0.6"/>
				<path class="st5" d="M354.3,457.2c-0.1,0.1-0.1,0.2-0.2,0.3c-0.1-0.2-0.1-0.4-0.1-0.6c0.1,0,0.1,0.3,0,0.3"/>
				<path class="st5" d="M355,458.7c0.2-0.3,0.5,0.1,0.4,0.4c-0.2-0.1-0.4-0.4-0.4-0.8c0.2,0,0.3,0.2,0.3,0.5
					c-0.1-0.1-0.2-0.2-0.3-0.4"/>
				<path class="st5" d="M344.9,458.5c0.1,0.2,0.2,0.4,0.3,0.7c-0.1,0-0.3-0.1-0.3-0.3c0.2,0.1,0.4,0.3,0.5,0.5
					c-0.3-0.2-0.5-0.5-0.7-0.8"/>
				<path class="st5" d="M343.7,453.7c0.1,0.1,0.2,0.2,0.2,0.3c-0.1,0-0.2-0.2-0.2-0.4c0.1,0,0.2,0,0.2,0.1"/>
				<path class="st5" d="M341.1,460.4c0.1-0.1,0.3-0.1,0.4,0c0.2-0.2,0-0.7-0.2-0.6c-0.2,0.1-0.1,0.7,0.1,0.6c0,0.1-0.2,0-0.2-0.1"
					/>
				<path class="st5" d="M342.4,456.3c0.2-0.3,0.6-0.1,0.7,0.3c-0.2,0.1-0.5,0.1-0.6-0.2c0-0.2,0.2-0.2,0.3-0.1"/>
				<path class="st5" d="M349.8,456c0.1-0.2,0.2,0.1,0.2,0.4c-0.1,0.1-0.1,0.1-0.2,0C349.8,456.2,349.8,456,349.8,456
					c0-0.2,0.1,0,0.1,0.2c0,0.1-0.1,0.1-0.1,0.1C349.8,456.1,349.8,456,349.8,456"/>
				<path class="st5" d="M345.7,454.7c0,0,0.2,0,0.3,0c0,0.7,0,0.7-0.1,0.8c0,0,0-0.2,0-0.2c0.1,0,0.1,0.2,0.1,0.4
					c-0.1,0-0.2-0.4-0.2-0.8"/>
			</g>
			<path class="st5" d="M353,460.3c-0.1,0.1-0.1-0.5-0.1-0.9c0-0.2,0.1-0.2,0.1,0.1s-0.1,0.5-0.1,0.2c0-0.2,0-0.5,0.1-0.3
				c0,0.2,0,0.5,0,0.5"/>
			<path class="st5" d="M344.5,456.5c-0.1,0.3-0.2-0.7-0.1-1.1c0.1,0.1,0.1,0.9,0,1"/>
			<path class="st5" d="M343.6,462.7c-0.1,0.4-0.2,0.2-0.3-0.5c0.1-0.2,0.1,1,0,1.2"/>
			<path class="st5" d="M340.2,458.8c-0.1,0.3-0.1,0-0.1-0.3c0-0.4,0-0.8,0-1.2c0.1-0.1,0.2,0.7,0.2,1.4c-0.1,0.2-0.1-0.4-0.1-0.7"
				/>
		</g>
	</g>
</g>
</svg>
