<?xml version="1.0" encoding="utf-8"?>
<!-- Generator: Adobe Illustrator 19.2.0, SVG Export Plug-In . SVG Version: 6.00 Build 0)  -->
<svg version="1.1" id="Layer_1" xmlns="http://www.w3.org/2000/svg" xmlns:xlink="http://www.w3.org/1999/xlink" x="0px" y="0px"
	 viewBox="0 0 460 292" style="enable-background:new 0 0 460 292;" xml:space="preserve">
<style type="text/css">
	.st0{fill:none;stroke:#000000;stroke-width:5;stroke-miterlimit:10;}
	.st1{opacity:0.9;fill:url(#SVGID_1_);enable-background:new    ;}
</style>
<path class="st0" d="M309.4,282.4c12.9-2.3,11.9-7.5,11.9-19.5c0-6.4,3.1-12.4,5-18.5c2.5-8.6,7.2-48,7.9-58.6
	c0.6-10,2.8-20,4.3-29.9c2.5-17.7,6-36,18.1-49.6c1.9-2.1,3.1-4.7,3.4-7.5c2.6-25.3,7.3-49.9,11.5-75c0.1-0.8,0.3-1.7,0.7-2.4
	c1-2.1,2.6-2.8,4.5-4.1c1.9-1.3,3.4-5.1,1.7-6.7c-1.9-1.7-294.5-1.7-296.3,0c-1.7,1.6-0.3,4.5,1.7,5.7s4.4,2.1,5.4,4.1
	c0.4,0.7,0.5,1.6,0.7,2.4c4.2,25,7.9,50.4,10.5,75.6c0.3,3,1.5,5.8,3.5,8c12,13.6,16.8,31.9,19.3,49.5c1.4,9.9,8.3,79.8,10.9,88.4
	c1.8,6.2,5,12.1,5,18.5c0,12-0.8,16.1,11.9,19.5C150.6,282.4,226.3,297.3,309.4,282.4z"/>
<linearGradient id="SVGID_1_" gradientUnits="userSpaceOnUse" x1="100.8" y1="-281.8849" x2="359.5" y2="-281.8849" gradientTransform="matrix(1 0 0 -1 0 -120)">
	<stop  offset="0" style="stop-color:#F7CF89"/>
	<stop  offset="1" style="stop-color:#F7DB89"/>
</linearGradient>
<path class="st1" d="M101.8,45.2h-1c1.6,15.9,3.2,31.9,4.8,47.8c0.4,4,0.8,8.2,2.5,11.8c2.2,4.9,6.4,8.4,9.6,12.6
	c3.5,4.6,5.2,9.2,6.8,14.8c3.6,12.5,6,25.4,7.8,38.3c1.7,12,2.9,24.1,4.2,36.2c1.6,14.9,1.5,30,5.9,44.3c0.7,2.2,1.4,4.3,1.8,6.6
	c0.7,4.2,0.2,8.1,3.1,11.6c2.4,2.8,7.8,2.7,11.3,3.3c4,0.6,8.1,1.2,12.1,1.8c10.8,1.5,21.6,2.6,32.4,3.3c27.7,2,55.7,1.8,83.2-2.2
	c4.8-0.7,9.5-1.5,14.2-2.4c3.5-0.7,10.2-0.9,12.7-4.1c0.6-0.8,1-1.8,1.3-2.7c1.5-4.4,2.3-8.8,3.8-13.2c0.6-1.8,1.3-3.7,1.7-5.6
	c1.8-9,1.8-18.3,3.1-27.4c1.9-12.6,3-25.2,4.3-37.9c0.6-5.7,0.8-11.1,2-16.8c1.3-6.3,2.5-12.5,3.8-18.8c1.4-7.1,2.9-14.2,6.2-20.6
	c1.6-3.2,2.6-6,4.7-8.8c1.7-2.4,4.2-4.6,5.5-7.3c1.7-3.7,1.8-7.9,2.3-11.9c1.9-17.2,4.6-34.3,7.6-51.4
	C337.2,54.1,164.7,43.1,101.8,45.2L101.8,45.2z"/>
<path d="M101.2,39.2c0,0,1-0.1,2.9-0.2s4.7-0.3,8.2-0.4s7.8-0.2,12.7-0.3c4.9-0.1,10.5-0.2,16.5-0.1c6,0,12.6,0.1,19.5,0.1
	c6.9,0.1,14.2,0.2,21.8,0.3c7.6,0.2,15.4,0.4,23.3,0.5c7.9,0.2,16,0.4,24,0.7c16.1,0.5,32.2,1,47.3,1.4c7.5,0.2,14.8,0.4,21.8,0.6
	c6.9,0.2,13.5,0.3,19.5,0.3s11.6,0.1,16.5,0c4.9,0,9.2-0.2,12.7-0.4c1.8-0.1,3.3-0.3,4.7-0.4c1.4-0.1,2.5-0.3,3.4-0.5
	s1.6-0.4,2.1-0.5s0.7-0.2,0.7-0.2s-0.2,0.1-0.7,0.2s-1.2,0.4-2.1,0.6s-2.1,0.4-3.4,0.6c-1.4,0.2-2.9,0.4-4.7,0.6
	c-3.5,0.4-7.8,0.7-12.7,0.9c-4.9,0.3-10.5,0.5-16.5,0.6s-12.6,0.2-19.5,0.2s-14.2,0-21.8-0.1c-7.6-0.1-15.4-0.2-23.3-0.4
	s-16-0.4-24-0.6c-8.1-0.3-16.1-0.5-24-0.8s-15.7-0.5-23.3-0.8c-7.5-0.3-14.8-0.5-21.8-0.8c-6.9-0.2-13.5-0.4-19.5-0.6
	s-11.6-0.3-16.5-0.5c-4.9-0.1-9.2-0.2-12.7-0.2s-6.3-0.1-8.2-0.1C102.2,39.2,101.2,39.2,101.2,39.2L101.2,39.2z"/>
<path d="M90.9,13.8c0,0,0.2,0.1,0.5,0.2s0.8,0.3,1.3,0.7c1.1,0.6,2.7,1.9,4,4.1c1.4,2.1,2.4,5.1,3.2,8.7s1.1,7.8,1.6,12.5
	c1,9.3,2.3,20.7,3.7,33.7c0.4,3.3,0.7,6.6,1.1,10.1c0.4,3.5,0.6,7,1.4,10.5c0.4,1.8,1,3.4,1.8,5.1c0.8,1.6,1.9,3.1,3.1,4.6
	c2.4,2.9,5.3,5.7,7.6,9.2c2.3,3.4,3.9,7.4,5.1,11.5c1.2,4,2.3,8.2,3.3,12.4c2,8.5,3.6,17.4,5,26.5c1.4,9.2,2.5,18.6,3.6,28.2
	c0.5,4.8,1.1,9.7,1.6,14.6c0.4,4.9,0.8,9.9,1.2,14.9c0.5,5,1.1,10,2,15c0.5,2.5,1.1,4.9,1.8,7.4c0.7,2.4,1.6,4.9,2.1,7.6
	c0.5,2.7,0.4,5.3,1,7.6c0.3,1.1,0.8,2.2,1.4,3.1l0.3,0.3l0.1,0.2l0.1,0.1l0.3,0.3c0.1,0.1,0.2,0.1,0.3,0.2c0.4,0.3,0.9,0.6,1.4,0.7
	c2.1,0.9,4.7,1,7.4,1.3c2.6,0.4,5.2,0.8,7.9,1.1c20.9,3.1,42.3,4.8,63.7,5.1c10.7,0.2,21.4,0,32-0.7c5.3-0.3,10.6-0.8,15.9-1.4
	c2.6-0.3,5.3-0.6,7.9-1c2.5-0.4,5.2-0.9,7.8-1.3c2.6-0.4,5.2-0.9,7.8-1.3c2.7-0.5,5.2-0.7,7.6-1.4c1.2-0.3,2.3-0.8,3.1-1.4
	c0.2-0.2,0.4-0.3,0.6-0.5s0.3-0.4,0.4-0.6c0.3-0.4,0.5-0.9,0.7-1.5c0.8-2.4,1.4-4.9,2.1-7.4c0.3-1.3,0.7-2.5,1.1-3.8
	s0.8-2.5,1.2-3.7c0.4-1.2,0.8-2.4,1.1-3.6c0.1-0.3,0.1-0.6,0.2-0.9l0.2-0.9c0.1-0.6,0.2-1.2,0.3-1.9c0.8-5,1.1-10,1.6-15
	c0.2-2.5,0.5-5,0.8-7.5c0.4-2.5,0.7-4.9,1.1-7.4c0.7-4.9,1.2-9.7,1.7-14.6c1-9.6,2-19.1,2.9-28.3c0.3-2.3,0.7-4.6,1.1-6.9
	c0.5-2.2,0.9-4.4,1.4-6.6c0.9-4.4,1.8-8.7,2.7-13c0.9-4.3,1.8-8.5,3.2-12.5c0.7-2,1.5-4,2.4-5.9c0.5-1,0.9-1.8,1.4-2.7
	c0.4-0.9,0.9-1.8,1.3-2.8c0.9-1.8,2-3.6,3.3-5.2c1.3-1.6,2.6-3,3.7-4.5c2.1-3,2.6-6.8,3-10.4c0.8-7.3,1.7-14.2,2.7-20.7
	c1.9-13,3.9-24.2,5.6-33.5c0.9-4.6,1.7-8.7,2.3-12.3c0.7-3.6,1.2-6.7,2.3-9c0.6-1.1,1.3-2,2-2.6s1.4-1.1,1.9-1.5s0.8-0.8,1-1.1
	c0.2-0.3,0.3-0.4,0.3-0.4s-0.1,0.1-0.3,0.4c-0.2,0.3-0.5,0.7-1,1.1c-0.9,0.9-2.7,1.9-3.8,4.2c-1.1,2.3-1.5,5.4-2.1,9
	s-1.3,7.7-2.1,12.4c-1.6,9.3-3.4,20.5-5.1,33.5c-0.8,6.5-1.7,13.4-2.3,20.7c-0.2,1.8-0.4,3.7-0.8,5.6c-0.4,1.9-1.1,3.8-2.3,5.5
	c-1.1,1.7-2.5,3.1-3.7,4.6s-2.2,3.1-3,4.9c-0.4,0.9-0.8,1.8-1.3,2.7c-0.4,0.9-0.9,1.9-1.3,2.8c-0.9,1.8-1.6,3.7-2.2,5.7
	c-1.3,3.9-2.2,8.1-3,12.3c-0.8,4.3-1.7,8.6-2.5,13c-0.4,2.2-0.9,4.4-1.3,6.7c-0.5,2.2-0.8,4.4-1,6.7c-0.9,9.2-1.7,18.6-2.6,28.3
	c-0.5,4.8-1,9.7-1.7,14.6c-0.3,2.4-0.7,4.9-1,7.4c-0.3,2.4-0.6,4.9-0.8,7.4c-0.4,5-0.8,10.1-1.6,15.2c-0.1,0.6-0.2,1.3-0.3,1.9
	l-0.2,0.9c-0.1,0.3-0.1,0.7-0.2,1c-0.3,1.3-0.7,2.6-1.1,3.8c-0.9,2.4-1.6,4.8-2.2,7.3s-1.3,5.1-2.1,7.6c-0.2,0.7-0.5,1.4-0.9,2.1
	c-0.4,0.7-1,1.3-1.7,1.8c-1.3,1-2.6,1.5-4,1.9c-2.7,0.8-5.4,1-7.9,1.5c-2.6,0.4-5.2,0.9-7.8,1.4c-2.6,0.4-5.2,0.9-7.9,1.3
	c-2.6,0.4-5.3,0.7-7.9,1c-5.3,0.6-10.7,1.1-16,1.5c-10.7,0.7-21.5,1-32.3,0.8c-21.6-0.4-43.1-2.2-64-5.4l-7.8-1.2
	c-2.5-0.3-5.3-0.4-8.1-1.5c-0.7-0.3-1.4-0.6-2-1.1l-0.5-0.4l-0.3-0.4c-0.1-0.1-0.1,0-0.2-0.2l-0.2-0.2l-0.3-0.4
	c-0.9-1.2-1.5-2.6-1.9-4c-0.7-2.8-0.6-5.4-1-7.8c-0.4-2.4-1.3-4.8-2-7.3s-1.3-5.1-1.8-7.6c-1-5.1-1.6-10.2-2-15.2s-0.8-10-1.2-14.9
	c-0.4-4.9-1-9.8-1.5-14.6c-1-9.6-2-19.1-3.3-28.2c-1.3-9.1-2.8-18-4.7-26.4c-1-4.2-2-8.3-3.2-12.3s-2.6-7.8-4.8-11.1
	c-2.1-3.3-4.9-6.1-7.4-9.1c-1.2-1.5-2.4-3.1-3.2-4.9c-0.9-1.7-1.5-3.6-1.9-5.4c-0.8-3.7-0.9-7.3-1.3-10.7c-0.3-3.5-0.6-6.8-0.9-10.1
	c-1.2-13-2.3-24.4-3.1-33.8c-0.5-4.7-0.7-8.9-1.4-12.4c-0.7-3.6-1.7-6.5-3-8.7s-2.8-3.5-3.9-4.1c-0.5-0.4-1-0.5-1.3-0.7
	C91,13.9,90.9,13.8,90.9,13.8L90.9,13.8z"/>
<g>
	<path d="M114.5,99c0,0,0.9,0.1,2.5,0.4c1.6,0.3,4.1,0.6,7.1,1c3.1,0.4,6.8,0.9,11.1,1.4c4.3,0.5,9.1,1,14.4,1.6
		c2.6,0.2,5.4,0.5,8.2,0.7c1.4,0.1,2.9,0.3,4.3,0.4c1.5,0.1,3,0.2,4.5,0.3c3,0.2,6.1,0.4,9.3,0.7c3.2,0.2,6.4,0.4,9.8,0.6
		c6.6,0.5,13.5,0.6,20.4,1c7,0.3,14,0.3,21.1,0.5c7.1,0.1,14.2,0.1,21.1,0.2c7-0.1,13.8-0.2,20.5-0.3c6.6-0.2,13-0.4,19.1-0.6
		c3-0.1,6-0.2,8.9-0.4c2.9-0.1,5.6-0.3,8.3-0.4c5.3-0.3,10.2-0.4,14.5-0.8c4.3-0.3,8.1-0.5,11.2-0.7c6.2-0.4,9.7-0.6,9.7-0.6
		s-3.5,0.4-9.7,1c-3.1,0.3-6.8,0.7-11.1,1.1c-4.3,0.5-9.2,0.8-14.5,1.2c-2.7,0.2-5.4,0.4-8.3,0.6c-2.9,0.2-5.8,0.4-8.9,0.5
		c-6.1,0.3-12.5,0.6-19.1,0.9c-6.6,0.1-13.5,0.3-20.5,0.4c-7,0-14.1,0-21.2,0c-7.1-0.2-14.2-0.4-21.2-0.7c-7-0.4-13.8-0.6-20.5-1.1
		c-3.3-0.2-6.6-0.5-9.8-0.7c-3.2-0.3-6.3-0.6-9.3-0.9c-1.5-0.1-3-0.3-4.5-0.4c-1.5-0.2-2.9-0.3-4.3-0.5c-2.8-0.3-5.6-0.6-8.2-0.9
		c-5.3-0.7-10.1-1.3-14.4-1.9c-4.3-0.6-8-1.2-11-1.8C118,99.8,114.5,99,114.5,99z"/>
</g>
</svg>
