<svg id="Layer_1" xmlns="http://www.w3.org/2000/svg" viewBox="0 0 460 300"><style>.st0{fill:#f5f5f5}.st1{fill:none;stroke:#000;stroke-width:5;stroke-miterlimit:10}.st2{fill:url(#SVGID_1_)}</style><path class="st0" d="M356.6 41.5c1-5.7 2.1-10.2 2.4-16-13.9-11.3-22.5-14.8-53.7-19.6C270 .4 234.4 1.7 198.7.6c-18.5-.5-37.1-1-55.3 2.2-17.3 3.1-35.1 10.4-45.3 25.2-2.6 3.7-.7 6.4.4 12.2 61.9-2 230.1 7.9 258.1 1.3z"/><path d="M100.1 34.9s.6-.9 1.7-2.6c.6-.8 1.4-1.8 2.3-2.9 1-1.1 2.1-2.4 3.5-3.6 2.7-2.6 6.4-5.5 11-8.1s10.1-5 16.3-6.8c3.1-.9 6.4-1.7 9.8-2.3 3.4-.6 7-1.1 10.7-1.5 7.4-.7 15.2-.8 23.2-.7 8 .2 16.3.6 24.7.8 4.2.1 8.4.2 12.7.2 4.3 0 8.5-.1 12.8-.1s8.6-.1 12.8-.1c4.3 0 8.5.1 12.7.1 8.4.1 16.7.5 24.8 1 4 .2 8 .6 11.8 1 3.9.4 7.6.8 11.3 1.4 1.8.3 3.6.5 5.4.8s3.5.6 5.2.9c3.4.6 6.7 1.3 9.9 1.9 6.3 1.3 12.1 2.8 17 4.7 5 1.8 9 4 12.2 6.2 3.1 2.1 5.4 4 6.9 5.3s2.3 2 2.3 2l-.2.2s-.9-.6-2.5-1.8c-1.6-1.1-4-2.9-7.2-4.7-.8-.5-1.7-.9-2.6-1.4s-1.9-.9-2.9-1.4c-2-.9-4.3-1.8-6.7-2.5-4.9-1.5-10.6-2.9-16.9-4-3.1-.5-6.4-1.1-9.8-1.6-1.7-.3-3.4-.5-5.2-.8-1.8-.2-3.5-.5-5.3-.7-1.8-.3-3.7-.4-5.5-.7-1.9-.2-3.7-.4-5.7-.6-1.9-.2-3.8-.4-5.8-.5-2-.2-3.9-.4-5.9-.5-8-.6-16.2-1.1-24.6-1.4s-16.9-.6-25.5-1c-4.3-.1-8.5-.3-12.8-.4s-8.5-.2-12.7-.4c-8.4-.2-16.7-.4-24.7-.1-4 .1-7.9.3-11.8.6-3.8.3-7.6.6-11.2 1.1-7.2.9-14 2-20.1 3.7s-11.5 3.8-16.1 6.1c-4.6 2.3-8.3 4.9-11.1 7.3-1.5 1.1-2.6 2.3-3.7 3.3-1 1-1.8 1.9-2.5 2.7-1.3 1.6-2 2.4-2 2.4v-.5z"/><path class="st1" d="M309.4 290.4c12.9-2.3 11.9-7.5 11.9-19.5 0-6.4 3.1-12.4 5-18.5 2.5-8.6 7.2-48 7.9-58.6.6-10 2.8-20 4.3-29.9 2.5-17.7 6-36 18.1-49.6 1.9-2.1 3.1-4.7 3.4-7.5 2.6-25.3 7.3-49.9 11.5-75 .1-.8.3-1.7.7-2.4 1-2.1 2.6-2.8 4.5-4.1 1.9-1.3 3.4-5.1 1.7-6.7-1.9-1.7-294.5-1.7-296.3 0-1.7 1.6-.3 4.5 1.7 5.7s4.4 2.1 5.4 4.1c.4.7.5 1.6.7 2.4 4.2 25 7.9 50.4 10.5 75.6.3 3 1.5 5.8 3.5 8 12 13.6 16.8 31.9 19.3 49.5 1.4 9.9 8.3 79.8 10.9 88.4 1.8 6.2 5 12.1 5 18.5 0 12-.8 16.1 11.9 19.5-.4.1 75.3 15 158.4.1z"/><path d="M342.9 117.1l-2.4.6c-1.6.4-3.9 1-6.9 1.7-3 .6-6.6 1.4-10.9 2.2-4.2.8-9 1.5-14.2 2.3-2.6.4-5.3.7-8.1 1.1-1.4.2-2.8.4-4.3.5-1.5.2-2.9.3-4.4.5-3 .3-6.1.6-9.2.9-3.2.3-6.4.4-9.7.7-6.6.5-13.4.7-20.3 1-3.5.2-6.9.1-10.4.2-3.5 0-7 .1-10.5.1-7-.2-14-.4-20.9-.6-6.9-.4-13.7-.8-20.3-1.2-6.6-.6-12.9-1.3-18.9-1.9-1.5-.2-3-.3-4.4-.5-1.5-.2-2.9-.4-4.3-.6-2.8-.4-5.5-.8-8.1-1.1-5.2-.7-10-1.3-14.2-2.1s-7.9-1.4-10.9-1.9c-6-1.1-9.5-1.7-9.5-1.7s3.5.5 9.5 1.4c3 .4 6.7 1 10.9 1.6 4.2.7 9 1.1 14.2 1.7 2.6.3 5.3.6 8.1.9 1.4.2 2.8.3 4.3.5s2.9.3 4.4.4c6 .5 12.3 1 18.9 1.6 6.6.4 13.3.7 20.2 1.1 6.9.2 13.9.3 20.9.5H242c3.5 0 7 0 10.4-.1 6.9-.2 13.7-.3 20.2-.8 3.3-.2 6.5-.4 9.6-.6 3.1-.3 6.2-.5 9.2-.7 1.5-.1 3-.2 4.4-.4 1.5-.2 2.9-.3 4.3-.5 2.8-.3 5.5-.6 8.1-.9 5.2-.7 10-1.3 14.2-1.9 4.2-.6 7.9-1.3 10.9-1.8 3-.6 5.4-1 7-1.4 1.8-.6 2.6-.8 2.6-.8z"/><linearGradient id="SVGID_1_" gradientUnits="userSpaceOnUse" x1="227.45" y1="-466.072" x2="227.45" y2="-232.159" gradientTransform="translate(0 506)"><stop offset="0" stop-color="#ffc000"/><stop offset="1" stop-color="#ff9715"/></linearGradient><path class="st2" d="M99.1 40.2h-1c1.6 15.9 3.2 31.9 4.8 47.8.4 4 .8 8.2 2.5 11.8 2.2 4.9 6.4 8.4 9.6 12.6 3.5 4.6 5.2 9.2 6.8 14.8 3.6 12.5 6 25.4 7.8 38.3 1.7 12 2.9 24.1 4.2 36.2 1.6 14.9 1.5 30 5.9 44.3.7 2.2 1.4 4.3 1.8 6.6.7 4.2.2 8.1 3.1 11.6 2.4 2.8 7.8 2.7 11.3 3.3 4 .6 8.1 1.2 12.1 1.8 10.8 1.5 21.6 2.6 32.4 3.3 27.7 2 55.7 1.8 83.2-2.2 4.8-.7 9.5-1.5 14.2-2.4 3.5-.7 10.2-.9 12.7-4.1.6-.8 1-1.8 1.3-2.7 1.5-4.4 2.3-8.8 3.8-13.2.6-1.8 1.3-3.7 1.7-5.6 1.8-9 1.8-18.3 3.1-27.4 1.9-12.6 3-25.2 4.3-37.9.6-5.7.8-11.1 2-16.8 1.3-6.3 2.5-12.5 3.8-18.8 1.4-7.1 2.9-14.2 6.2-20.6 1.6-3.2 2.6-6 4.7-8.8 1.7-2.4 4.2-4.6 5.5-7.3 1.7-3.7 1.8-7.9 2.3-11.9 1.9-17.2 4.6-34.3 7.6-51.4-22.3 7.6-194.7-3.4-257.7-1.3z"/><path d="M101.1 47.2s1-.1 2.9-.2 4.7-.3 8.2-.4 7.8-.2 12.7-.3c4.9-.1 10.5-.2 16.5-.1 6 0 12.6.1 19.5.1 6.9.1 14.2.2 21.8.3 7.6.2 15.4.4 23.3.5 7.9.2 16 .4 24 .7 16.1.5 32.2 1 47.3 1.4 7.5.2 14.8.4 21.8.6 6.9.2 13.5.3 19.5.3s11.6.1 16.5 0c4.9 0 9.2-.2 12.7-.4 1.8-.1 3.3-.3 4.7-.4 1.4-.1 2.5-.3 3.4-.5s1.6-.4 2.1-.5.7-.2.7-.2-.2.1-.7.2-1.2.4-2.1.6-2.1.4-3.4.6c-1.4.2-2.9.4-4.7.6-3.5.4-7.8.7-12.7.9-4.9.3-10.5.5-16.5.6s-12.6.2-19.5.2-14.2 0-21.8-.1c-7.6-.1-15.4-.2-23.3-.4s-16-.4-24-.6c-8.1-.3-16.1-.5-24-.8s-15.7-.5-23.3-.8c-7.5-.3-14.8-.5-21.8-.8-6.9-.2-13.5-.4-19.5-.6s-11.6-.3-16.5-.5c-4.9-.1-9.2-.2-12.7-.2s-6.3-.1-8.2-.1c-1.9.3-2.9.3-2.9.3z"/><path d="M89.8 21.8s.2.1.5.2.8.3 1.3.7c1.1.6 2.7 1.9 4 4.1 1.4 2.1 2.4 5.1 3.2 8.7s1.1 7.8 1.6 12.5c1 9.3 2.3 20.7 3.7 33.7.4 3.3.7 6.6 1.1 10.1.4 3.5.6 7 1.4 10.5.4 1.8 1 3.4 1.8 5.1.8 1.6 1.9 3.1 3.1 4.6 2.4 2.9 5.3 5.7 7.6 9.2 2.3 3.4 3.9 7.4 5.1 11.5 1.2 4 2.3 8.2 3.3 12.4 2 8.5 3.6 17.4 5 26.5 1.4 9.2 2.5 18.6 3.6 28.2.5 4.8 1.1 9.7 1.6 14.6.4 4.9.8 9.9 1.2 14.9.5 5 1.1 10 2 15 .5 2.5 1.1 4.9 1.8 7.4.7 2.4 1.6 4.9 2.1 7.6.5 2.7.4 5.3 1 7.6.3 1.1.8 2.2 1.4 3.1l.3.3.1.2.1.1.3.3c.1.1.2.1.3.2.4.3.9.6 1.4.7 2.1.9 4.7 1 7.4 1.3 2.6.4 5.2.8 7.9 1.1 20.9 3.1 42.3 4.8 63.7 5.1 10.7.2 21.4 0 32-.7 5.3-.3 10.6-.8 15.9-1.4 2.6-.3 5.3-.6 7.9-1 2.5-.4 5.2-.9 7.8-1.3 2.6-.4 5.2-.9 7.8-1.3 2.7-.5 5.2-.7 7.6-1.4 1.2-.3 2.3-.8 3.1-1.4.2-.2.4-.3.6-.5s.3-.4.4-.6c.3-.4.5-.9.7-1.5.8-2.4 1.4-4.9 2.1-7.4.3-1.3.7-2.5 1.1-3.8s.8-2.5 1.2-3.7c.4-1.2.8-2.4 1.1-3.6.1-.3.1-.6.2-.9l.2-.9c.1-.6.2-1.2.3-1.9.8-5 1.1-10 1.6-15 .2-2.5.5-5 .8-7.5.4-2.5.7-4.9 1.1-7.4.7-4.9 1.2-9.7 1.7-14.6 1-9.6 2-19.1 2.9-28.3.3-2.3.7-4.6 1.1-6.9.5-2.2.9-4.4 1.4-6.6.9-4.4 1.8-8.7 2.7-13 .9-4.3 1.8-8.5 3.2-12.5.7-2 1.5-4 2.4-5.9.5-1 .9-1.8 1.4-2.7.4-.9.9-1.8 1.3-2.8.9-1.8 2-3.6 3.3-5.2 1.3-1.6 2.6-3 3.7-4.5 2.1-3 2.6-6.8 3-10.4.8-7.3 1.7-14.2 2.7-20.7 1.9-13 3.9-24.2 5.6-33.5.9-4.6 1.7-8.7 2.3-12.3.7-3.6 1.2-6.7 2.3-9 .6-1.1 1.3-2 2-2.6s1.4-1.1 1.9-1.5.8-.8 1-1.1c.2-.3.3-.4.3-.4s-.1.1-.3.4c-.2.3-.5.7-1 1.1-.9.9-2.7 1.9-3.8 4.2-1.1 2.3-1.5 5.4-2.1 9s-1.3 7.7-2.1 12.4c-1.6 9.3-3.4 20.5-5.1 33.5-.8 6.5-1.7 13.4-2.3 20.7-.2 1.8-.4 3.7-.8 5.6-.4 1.9-1.1 3.8-2.3 5.5-1.1 1.7-2.5 3.1-3.7 4.6s-2.2 3.1-3 4.9c-.4.9-.8 1.8-1.3 2.7-.4.9-.9 1.9-1.3 2.8-.9 1.8-1.6 3.7-2.2 5.7-1.3 3.9-2.2 8.1-3 12.3-.8 4.3-1.7 8.6-2.5 13-.4 2.2-.9 4.4-1.3 6.7-.5 2.2-.8 4.4-1 6.7-.9 9.2-1.7 18.6-2.6 28.3-.5 4.8-1 9.7-1.7 14.6-.3 2.4-.7 4.9-1 7.4-.3 2.4-.6 4.9-.8 7.4-.4 5-.8 10.1-1.6 15.2-.1.6-.2 1.3-.3 1.9l-.2.9c-.1.3-.1.7-.2 1-.3 1.3-.7 2.6-1.1 3.8-.9 2.4-1.6 4.8-2.2 7.3s-1.3 5.1-2.1 7.6c-.2.7-.5 1.4-.9 2.1-.4.7-1 1.3-1.7 1.8-1.3 1-2.6 1.5-4 1.9-2.7.8-5.4 1-7.9 1.5-2.6.4-5.2.9-7.8 1.4-2.6.4-5.2.9-7.9 1.3-2.6.4-5.3.7-7.9 1-5.3.6-10.7 1.1-16 1.5-10.7.7-21.5 1-32.3.8-21.6-.4-43.1-2.2-64-5.4l-7.8-1.2c-2.5-.3-5.3-.4-8.1-1.5-.7-.3-1.4-.6-2-1.1l-.5-.4-.3-.4c-.1-.1-.1 0-.2-.2l-.2-.2-.3-.4c-.9-1.2-1.5-2.6-1.9-4-.7-2.8-.6-5.4-1-7.8-.4-2.4-1.3-4.8-2-7.3s-1.3-5.1-1.8-7.6c-1-5.1-1.6-10.2-2-15.2s-.8-10-1.2-14.9c-.4-4.9-1-9.8-1.5-14.6-1-9.6-2-19.1-3.3-28.2-1.3-9.1-2.8-18-4.7-26.4-1-4.2-2-8.3-3.2-12.3s-2.6-7.8-4.8-11.1c-2.1-3.3-4.9-6.1-7.4-9.1-1.2-1.5-2.4-3.1-3.2-4.9-.9-1.7-1.5-3.6-1.9-5.4-.8-3.7-.9-7.3-1.3-10.7-.3-3.5-.6-6.8-.9-10.1-1.2-13-2.3-24.4-3.1-33.8-.5-4.7-.7-8.9-1.4-12.4-.7-3.6-1.7-6.5-3-8.7s-2.8-3.5-3.9-4.1c-.5-.4-1-.5-1.3-.7-.9-.1-1.1-.2-1.1-.2z"/><path d="M118.5 112.2s.9.1 2.5.4c1.6.3 4.1.6 7.1 1 3.1.4 6.8.9 11.1 1.4 4.3.5 9.1 1 14.4 1.6 2.6.2 5.4.5 8.2.7 1.4.1 2.9.3 4.3.4l4.5.3c3 .2 6.1.4 9.3.7 3.2.2 6.4.4 9.8.6 6.6.5 13.5.6 20.4 1 7 .3 14 .3 21.1.5 7.1.1 14.2.1 21.1.2 7-.1 13.8-.2 20.5-.3 6.6-.2 13-.4 19.1-.6 3-.1 6-.2 8.9-.4 2.9-.1 5.6-.3 8.3-.4 5.3-.3 10.2-.4 14.5-.8 4.3-.3 8.1-.5 11.2-.7 6.2-.4 9.7-.6 9.7-.6s-3.5.4-9.7 1c-3.1.3-6.8.7-11.1 1.1-4.3.5-9.2.8-14.5 1.2-2.7.2-5.4.4-8.3.6-2.9.2-5.8.4-8.9.5-6.1.3-12.5.6-19.1.9-6.6.1-13.5.3-20.5.4h-21.2c-7.1-.2-14.2-.4-21.2-.7-7-.4-13.8-.6-20.5-1.1-3.3-.2-6.6-.5-9.8-.7-3.2-.3-6.3-.6-9.3-.9-1.5-.1-3-.3-4.5-.4-1.5-.2-2.9-.3-4.3-.5-2.8-.3-5.6-.6-8.2-.9-5.3-.7-10.1-1.3-14.4-1.9-4.3-.6-8-1.2-11-1.8-6-1-9.5-1.8-9.5-1.8z"/></svg>