<svg id="Layer_1" xmlns="http://www.w3.org/2000/svg" viewBox="0 0 705 705"><style>.st0,.st1{fill:none}.st1{stroke:#000;stroke-width:5;stroke-miterlimit:10}.st2{opacity:.9;fill:url(#SVGID_1_)}</style><path class="st0" d="M122.5 0h460v705h-460V0z"/><path class="st1" d="M431.9 695.4c12.9-2.3 11.9-7.5 11.9-19.5 0-6.4 3.1-12.4 5-18.5 2.5-8.6 7.2-48 7.9-58.6.6-10 2.8-20 4.3-29.9 2.5-17.7 6-36 18.1-49.6 1.9-2.1 3.1-4.7 3.4-7.5 2.6-25.3 7.3-49.9 11.5-75 .1-.8.3-1.7.7-2.4 1-2.1 2.6-2.8 4.5-4.1 1.9-1.3 3.4-5.1 1.7-6.7-1.9-1.7-294.5-1.7-296.3 0-1.7 1.6-.3 4.5 1.7 5.7s4.4 2.1 5.4 4.1c.4.7.5 1.6.7 2.4 4.2 25 7.9 50.4 10.5 75.6.3 3 1.5 5.8 3.5 8 12 13.6 16.8 31.9 19.3 49.5 1.4 9.9 8.3 79.8 10.9 88.4 1.8 6.2 5 12.1 5 18.5 0 12-.8 16.1 11.9 19.5-.4.1 75.3 15 158.4.1z"/><linearGradient id="SVGID_1_" gradientUnits="userSpaceOnUse" x1="223.246" y1="574.885" x2="481.753" y2="574.885"><stop offset="0" stop-color="#d4a800"/><stop offset="1" stop-color="#fced67"/></linearGradient><path class="st2" d="M224.3 458.2h-1c1.6 15.9 3.2 31.9 4.8 47.8.4 4 .8 8.2 2.5 11.8 2.2 4.9 6.4 8.4 9.6 12.6 3.5 4.6 5.2 9.2 6.8 14.8 3.6 12.5 6 25.4 7.8 38.3 1.7 12 2.9 24.1 4.2 36.2 1.6 14.9 1.5 30 5.9 44.3.7 2.2 1.4 4.3 1.8 6.6.7 4.2.2 8.1 3.1 11.6 2.4 2.8 7.8 2.7 11.3 3.3 4 .6 8.1 1.2 12.1 1.8 10.8 1.5 21.6 2.6 32.4 3.3 27.7 2 55.7 1.8 83.2-2.2 4.8-.7 9.5-1.5 14.2-2.4 3.5-.7 10.2-.9 12.7-4.1.6-.8 1-1.8 1.3-2.7 1.5-4.4 2.3-8.8 3.8-13.2.6-1.8 1.3-3.7 1.7-5.6 1.8-9 1.8-18.3 3.1-27.4 1.9-12.6 3-25.2 4.3-37.9.6-5.7.8-11.1 2-16.8 1.3-6.3 2.5-12.5 3.8-18.8 1.4-7.1 2.9-14.2 6.2-20.6 1.6-3.2 2.6-6 4.7-8.8 1.7-2.4 4.2-4.6 5.5-7.3 1.7-3.7 1.8-7.9 2.3-11.9 1.9-17.2 4.6-34.3 7.6-51.4-22.3 7.6-194.8-3.4-257.7-1.3z"/><path d="M223.7 452.2s1-.1 2.9-.2 4.7-.3 8.2-.4c3.5-.1 7.8-.2 12.7-.3 4.9-.1 10.5-.2 16.5-.1 6 0 12.6.1 19.5.1 6.9.1 14.2.2 21.8.3 7.6.2 15.4.4 23.3.5 7.9.2 16 .4 24 .7 16.1.5 32.2 1 47.3 1.4 7.5.2 14.8.4 21.8.6 6.9.2 13.5.3 19.5.3s11.6.1 16.5 0c4.9 0 9.2-.2 12.7-.4 1.8-.1 3.3-.3 4.7-.4 1.4-.1 2.5-.3 3.4-.5.9-.2 1.6-.4 2.1-.5.5-.1.7-.2.7-.2s-.2.1-.7.2c-.5.1-1.2.4-2.1.6-.9.2-2.1.4-3.4.6-1.4.2-2.9.4-4.7.6-3.5.4-7.8.7-12.7.9-4.9.3-10.5.5-16.5.6-6 .1-12.6.2-19.5.2s-14.2 0-21.8-.1c-7.6-.1-15.4-.2-23.3-.4s-16-.4-24-.6c-8.1-.3-16.1-.5-24-.8-7.9-.3-15.7-.5-23.3-.8-7.5-.3-14.8-.5-21.8-.8-6.9-.2-13.5-.4-19.5-.6-6-.2-11.6-.3-16.5-.5-4.9-.1-9.2-.2-12.7-.2s-6.3-.1-8.2-.1c-1.9.3-2.9.3-2.9.3z"/><path d="M213.4 426.8s.2.1.5.2.8.3 1.3.7c1.1.6 2.7 1.9 4 4.1 1.4 2.1 2.4 5.1 3.2 8.7.8 3.6 1.1 7.8 1.6 12.5 1 9.3 2.3 20.7 3.7 33.7.4 3.3.7 6.6 1.1 10.1.4 3.5.6 7 1.4 10.5.4 1.8 1 3.4 1.8 5.1.8 1.6 1.9 3.1 3.1 4.6 2.4 2.9 5.3 5.7 7.6 9.2 2.3 3.4 3.9 7.4 5.1 11.5 1.2 4 2.3 8.2 3.3 12.4 2 8.5 3.6 17.4 5 26.5 1.4 9.2 2.5 18.6 3.6 28.2.5 4.8 1.1 9.7 1.6 14.6.4 4.9.8 9.9 1.2 14.9.5 5 1.1 10 2 15 .5 2.5 1.1 4.9 1.8 7.4.7 2.4 1.6 4.9 2.1 7.6.5 2.7.4 5.3 1 7.6.3 1.1.8 2.2 1.4 3.1l.3.3.1.2.1.1.3.3c.1.1.2.1.3.2.4.3.9.6 1.4.7 2.1.9 4.7 1 7.4 1.3 2.6.4 5.2.8 7.9 1.1 20.9 3.1 42.3 4.8 63.7 5.1 10.7.2 21.4 0 32-.7 5.3-.3 10.6-.8 15.9-1.4 2.6-.3 5.3-.6 7.9-1 2.5-.4 5.2-.9 7.8-1.3 2.6-.4 5.2-.9 7.8-1.3 2.7-.5 5.2-.7 7.6-1.4 1.2-.3 2.3-.8 3.1-1.4.2-.2.4-.3.6-.5.2-.2.3-.4.4-.6.3-.4.5-.9.7-1.5.8-2.4 1.4-4.9 2.1-7.4.3-1.3.7-2.5 1.1-3.8.4-1.3.8-2.5 1.2-3.7.4-1.2.8-2.4 1.1-3.6.1-.3.1-.6.2-.9l.2-.9c.1-.6.2-1.2.3-1.9.8-5 1.1-10 1.6-15 .2-2.5.5-5 .8-7.5.4-2.5.7-4.9 1.1-7.4.7-4.9 1.2-9.7 1.7-14.6 1-9.6 2-19.1 2.9-28.3.3-2.3.7-4.6 1.1-6.9.5-2.2.9-4.4 1.4-6.6.9-4.4 1.8-8.7 2.7-13 .9-4.3 1.8-8.5 3.2-12.5.7-2 1.5-4 2.4-5.9.5-1 .9-1.8 1.4-2.7.4-.9.9-1.8 1.3-2.8.9-1.8 2-3.6 3.3-5.2 1.3-1.6 2.6-3 3.7-4.5 2.1-3 2.6-6.8 3-10.4.8-7.3 1.7-14.2 2.7-20.7 1.9-13 3.9-24.2 5.6-33.5.9-4.6 1.7-8.7 2.3-12.3.7-3.6 1.2-6.7 2.3-9 .6-1.1 1.3-2 2-2.6.7-.6 1.4-1.1 1.9-1.5.5-.4.8-.8 1-1.1.2-.3.3-.4.3-.4s-.1.1-.3.4c-.2.3-.5.7-1 1.1-.9.9-2.7 1.9-3.8 4.2-1.1 2.3-1.5 5.4-2.1 9-.6 3.6-1.3 7.7-2.1 12.4-1.6 9.3-3.4 20.5-5.1 33.5-.8 6.5-1.7 13.4-2.3 20.7-.2 1.8-.4 3.7-.8 5.6-.4 1.9-1.1 3.8-2.3 5.5-1.1 1.7-2.5 3.1-3.7 4.6-1.2 1.5-2.2 3.1-3 4.9-.4.9-.8 1.8-1.3 2.7-.4.9-.9 1.9-1.3 2.8-.9 1.8-1.6 3.7-2.2 5.7-1.3 3.9-2.2 8.1-3 12.3-.8 4.3-1.7 8.6-2.5 13-.4 2.2-.9 4.4-1.3 6.7-.5 2.2-.8 4.4-1 6.7-.9 9.2-1.7 18.6-2.6 28.3-.5 4.8-1 9.7-1.7 14.6-.3 2.4-.7 4.9-1 7.4-.3 2.4-.6 4.9-.8 7.4-.4 5-.8 10.1-1.6 15.2-.1.6-.2 1.3-.3 1.9l-.2.9c-.1.3-.1.7-.2 1-.3 1.3-.7 2.6-1.1 3.8-.9 2.4-1.6 4.8-2.2 7.3-.6 2.5-1.3 5.1-2.1 7.6-.2.7-.5 1.4-.9 2.1-.4.7-1 1.3-1.7 1.8-1.3 1-2.6 1.5-4 1.9-2.7.8-5.4 1-7.9 1.5-2.6.4-5.2.9-7.8 1.4-2.6.4-5.2.9-7.9 1.3-2.6.4-5.3.7-7.9 1-5.3.6-10.7 1.1-16 1.5-10.7.7-21.5 1-32.3.8-21.6-.4-43.1-2.2-64-5.4l-7.8-1.2c-2.5-.3-5.3-.4-8.1-1.5-.7-.3-1.4-.6-2-1.1l-.5-.4-.3-.4c-.1-.1-.1 0-.2-.2l-.2-.2-.3-.4c-.9-1.2-1.5-2.6-1.9-4-.7-2.8-.6-5.4-1-7.8-.4-2.4-1.3-4.8-2-7.3s-1.3-5.1-1.8-7.6c-1-5.1-1.6-10.2-2-15.2-.4-5-.8-10-1.2-14.9-.4-4.9-1-9.8-1.5-14.6-1-9.6-2-19.1-3.3-28.2-1.3-9.1-2.8-18-4.7-26.4-1-4.2-2-8.3-3.2-12.3-1.2-4-2.6-7.8-4.8-11.1-2.1-3.3-4.9-6.1-7.4-9.1-1.2-1.5-2.4-3.1-3.2-4.9-.9-1.7-1.5-3.6-1.9-5.4-.8-3.7-.9-7.3-1.3-10.7-.3-3.5-.6-6.8-.9-10.1-1.2-13-2.3-24.4-3.1-33.8-.5-4.7-.7-8.9-1.4-12.4-.7-3.6-1.7-6.5-3-8.7-1.3-2.2-2.8-3.5-3.9-4.1-.5-.4-1-.5-1.3-.7-1-.1-1.1-.2-1.1-.2z"/></svg>