<?xml version="1.0" encoding="utf-8"?>
<!-- Generator: Adobe Illustrator 19.2.0, SVG Export Plug-In . SVG Version: 6.00 Build 0)  -->
<svg version="1.1" id="Layer_1" xmlns="http://www.w3.org/2000/svg" xmlns:xlink="http://www.w3.org/1999/xlink" x="0px" y="0px"
	 viewBox="0 0 700 700" style="enable-background:new 0 0 700 700;" xml:space="preserve">
<style type="text/css">
	.st0{fill:none;}
	.st1{opacity:0.86;fill:url(#SVGID_1_);}
	.st2{fill:none;stroke:#000000;stroke-width:5;stroke-miterlimit:10;}
</style>
<rect x="0" y="0" class="st0" width="700" height="700"/>
<g>
	<radialGradient id="SVGID_1_" cx="348.8582" cy="531.1278" r="73.9721" gradientUnits="userSpaceOnUse">
		<stop  offset="6.636639e-03" style="stop-color:#FF6500"/>
		<stop  offset="0.9996" style="stop-color:#7F0007"/>
	</radialGradient>
	<path class="st1" d="M409.3,392.6c-13,1.1-26,2.2-39,3.1c-23.1,1.7-46.3,2.9-69.4,2.7c-7,0-15.5,0.7-23.2,0
		c0.2,34.6,13.5,68.6,27.5,100.7c4.9,11.1,10,22.5,18.4,31.3s20.8,14.7,32.7,12.2c6.7-1.4,13-5.3,17.7-10.3
		c26.1-27.3,40.2-79.5,43-97.3c2.3-14.6,2.8-29.3,4.3-44C417.4,391.8,413.3,392.2,409.3,392.6z"/>
	<path class="st2" d="M269.4,380.3c-4.6,53.9,11,109.4,43,153c4.5,6.1,9.4,12.2,11.7,19.4c2.3,7.2-1.1,24.7-13.8,33.1
		c-2.2,1.5-5.1,2.1-6.6,4.3c-2,2.8-1.1,6.8,0.9,9.6c2,2.8,5,4.7,7.6,7c12.1,10.6,16,32.5,8.4,46.9c-6,11.3-19.3,16.1-31.4,20
		c-6.5,2.1-14.3,3.5-20.4,6.5c-7,3.4-3.9,8.1,1.7,9.8c8.9,2.6,18.8,3.6,27.9,5c16.2,2.5,32.5,4.2,48.9,4.9
		c21.2,0.8,42.9,0.1,63.6-4.9c4.2-1,22.9-4.5,24.2-10.3c0.3-1.2,0.3-2.5-0.3-3.5c-0.9-1.7-2.9-2.5-4.7-3.2
		c-11.7-4.1-23.6-7.9-35.5-11.4c-10.9-3.2-16.3-16.4-19.5-27.2c-3.6-12.4-1.7-27.5,8.5-35.4c3.2-2.5,7.2-4.4,8.8-8.1
		c1.9-4.3-0.4-9.4-3.6-12.8c-3.2-3.4-7.4-5.8-10.7-9.2c-10.9-11.4-8.2-26.6,0.9-37.2c46-53.7,47.6-138.3,48.7-159.8
		C373.9,376.8,323.3,378.7,269.4,380.3z"/>
	<g>
		<path d="M281.7,431.6c0,0,0.1-0.1,0.2-0.3c0.2-0.2,0.3-0.5,0.7-0.9c0.7-0.8,1.8-1.7,3.5-2.5c1.7-0.7,4.1-1.2,6.7-0.9
			c2.6,0.2,5.6,1.2,8.2,3.2c2.6,2,4.9,4.8,6.8,7.9c1.9,3.2,3.5,6.7,5.1,10.3c0.8,1.8,1.6,3.7,2.4,5.6c0.8,1.9,1.6,3.8,2.3,5.8
			c1.5,3.9,3,7.9,4.4,11.9c1.4,4,2.6,8.1,3.8,12.1c1.2,4,2.2,8,3.2,11.9c0.9,3.9,1.8,7.6,2.5,11.2c0.7,3.6,1.3,7,1.8,10.1
			c0.5,3.1,0.9,6,1.2,8.6c0.3,2.6,0.6,4.8,0.8,6.6c0.3,3.7,0.5,5.8,0.5,5.8s-0.3-2.1-0.9-5.8c-0.3-1.8-0.7-4-1.1-6.6
			c-0.5-2.5-1-5.4-1.6-8.5c-0.3-1.6-0.6-3.2-1-4.8c-0.4-1.7-0.7-3.4-1.1-5.2c-0.8-3.5-1.7-7.2-2.7-11.1c-0.5-1.9-1-3.9-1.6-5.8
			c-0.6-2-1.1-3.9-1.7-5.9c-1.2-4-2.5-8-3.9-12c-1.4-4-2.8-8-4.3-11.8c-0.7-1.9-1.5-3.9-2.2-5.7c-0.8-1.9-1.5-3.8-2.3-5.6
			c-1.6-3.7-3-7.2-4.8-10.3c-1.7-3.1-3.8-5.8-6.2-7.8c-2.4-2-5.1-3.1-7.6-3.4c-2.5-0.4-4.7-0.1-6.5,0.5c-1.7,0.6-2.9,1.5-3.6,2.2
			c-0.4,0.3-0.6,0.7-0.8,0.8C281.8,431.5,281.7,431.6,281.7,431.6z"/>
	</g>
	<g>
		<path d="M334.2,530.8c0,0-0.2-0.9-0.5-2.5c-0.3-1.7-0.8-4.1-1.3-7.2c-0.5-3.1-1.1-6.9-1.8-11.2c-0.6-4.3-1.3-9.2-1.9-14.6
			c-0.6-5.4-1.2-11.2-1.7-17.3c-0.3-3.1-0.5-6.2-0.7-9.5c-0.2-3.2-0.4-6.5-0.4-10c0-1.7,0.1-3.4,0.2-5.2c0.2-1.7,0.4-3.5,0.9-5.2
			c0.8-3.5,2.4-6.9,5.1-9.6l1.1-0.9l0.3-0.2l0.3-0.2l0.5-0.4c0.4-0.3,0.8-0.5,1.2-0.8c0.4-0.2,0.8-0.4,1.3-0.6
			c1.7-0.8,3.5-1.3,5.3-1.6c3.7-0.6,7.3-0.6,10.9-0.5c1.8,0.1,3.6,0.1,5.5,0.4c1.8,0.3,3.7,0.8,5.4,1.7c3.5,1.8,5.9,4.9,7.5,8.2
			c1.6,3.3,2.2,7,2.4,10.5c0.2,3.5-0.2,7-0.5,10.4c-0.7,6.7-1.6,13.2-2.5,19.3c-1,6.1-2,11.9-3,17.1c-2.1,10.6-4.3,19.3-6,25.4
			c-0.8,3-1.5,5.4-2,7c-0.5,1.6-0.7,2.5-0.7,2.5s0.9-3.5,2.3-9.6c0.7-3.1,1.6-6.8,2.4-11.1c0.9-4.3,1.8-9.1,2.8-14.4
			c0.9-5.3,1.9-11,2.7-17.1c0.8-6.1,1.6-12.5,2.2-19.2c0.3-3.3,0.6-6.7,0.4-10.1c-0.2-3.4-0.8-6.8-2.3-9.8c-1.4-3-3.8-5.8-6.7-7.3
			c-3-1.6-6.5-1.7-10.1-1.8c-3.6-0.1-7.1-0.2-10.5,0.4c-1.7,0.3-3.4,0.7-4.9,1.4c-0.4,0.2-0.8,0.4-1.1,0.6c-0.3,0.2-0.7,0.4-1.1,0.6
			l-0.5,0.4l-0.2,0.2l-0.2,0.2l-0.9,0.8c-2.4,2.3-3.9,5.4-4.7,8.7c-0.4,1.6-0.7,3.3-0.8,5c-0.2,1.7-0.2,3.3-0.2,5
			c0,3.3,0.2,6.6,0.3,9.9c0.1,3.2,0.3,6.4,0.5,9.5c0.4,6.1,0.8,12,1.4,17.3c1,10.7,2.1,19.6,3,25.8
			C333.7,527.3,334.2,530.8,334.2,530.8z"/>
	</g>
	<g>
		<path d="M359.7,533.8c0,0,0.1-0.5,0.3-1.4c0.2-0.9,0.4-2.2,0.8-3.8c0.8-3.3,1.8-8,3.3-13.6c1.4-5.6,3.2-12.1,5.1-19.1
			c1-3.5,2-7.1,3.1-10.7c1.1-3.6,2.2-7.3,3.3-11c1.2-3.7,2.3-7.4,3.5-11c1.1-3.6,2.4-7.2,3.7-10.6c1.3-3.4,2.8-6.6,4.6-9.5
			c1.8-2.9,4-5.3,6.5-7c2.5-1.7,5.1-2.6,7.4-3c2.4-0.4,4.5-0.2,6.2,0.2c1.7,0.4,2.8,1.1,3.6,1.6c0.4,0.3,0.6,0.5,0.8,0.6
			c0.2,0.2,0.3,0.2,0.3,0.2s-0.1-0.1-0.3-0.2c-0.2-0.1-0.5-0.3-0.9-0.6c-0.8-0.5-2-1-3.6-1.3c-1.6-0.3-3.7-0.4-5.9,0.2
			c-2.2,0.5-4.7,1.6-6.9,3.2c-2.2,1.7-4.2,4.1-5.9,6.9c-1.7,2.8-3,6-4.3,9.3c-0.6,1.7-1.3,3.4-1.8,5.2c-0.6,1.8-1.1,3.6-1.7,5.4
			c-1.1,3.6-2.2,7.3-3.4,11c-4.5,14.8-9,29.5-12.3,40.6c-1.7,5.5-3.1,10.2-4,13.4C360.3,532,359.7,533.8,359.7,533.8z"/>
	</g>
	<g>
		<path d="M334.1,556c0,0,0.5,0,1.2,0.2c0.8,0.1,1.9,0.3,3.2,0.5c0.7,0.1,1.4,0.2,2.1,0.3c0.8,0.1,1.6,0.2,2.4,0.3
			c0.8,0.1,1.7,0.2,2.5,0.3c0.9,0.1,1.7,0.1,2.6,0.2c0.9,0,1.7,0.1,2.6,0c0.4,0,0.8,0,1.3,0c0.4,0,0.8-0.1,1.2-0.1
			c0.4,0,0.8-0.1,1.2-0.1c0.4-0.1,0.8-0.1,1.1-0.2c0.7-0.2,1.4-0.3,2-0.5c0.3-0.1,0.6-0.2,0.9-0.3c0.3-0.1,0.5-0.2,0.8-0.3
			c0.5-0.2,1-0.3,1.3-0.5c0.7-0.3,1.1-0.5,1.1-0.5s-0.3,0.3-0.9,0.8c-0.3,0.3-0.7,0.6-1.2,0.9c-0.2,0.2-0.5,0.3-0.8,0.5
			c-0.3,0.1-0.6,0.3-0.9,0.4c-0.6,0.3-1.3,0.6-2.1,0.8c-0.8,0.2-1.6,0.5-2.4,0.6c-0.9,0.1-1.7,0.3-2.7,0.3c-0.9,0.1-1.8,0-2.8,0
			c-0.9-0.1-1.8-0.1-2.7-0.3c-0.9-0.1-1.8-0.3-2.6-0.5c-1.7-0.4-3.2-0.8-4.5-1.3c-1.3-0.4-2.3-0.9-3-1.2
			C334.5,556.2,334.1,556,334.1,556z"/>
	</g>
	<g>
		<path d="M317.5,586.8c0,0,3.8,0,9.4,0c1.4,0,2.9-0.1,4.6-0.1c1.6,0,3.3-0.1,5.1-0.1c1.8-0.1,3.6-0.2,5.4-0.2
			c1.8-0.1,3.7-0.2,5.6-0.3c1.9-0.1,3.7-0.3,5.6-0.4c1.8-0.2,3.7-0.3,5.4-0.5c1.8-0.2,3.4-0.4,5-0.5c1.6-0.2,3.1-0.4,4.5-0.5
			c2.8-0.4,5.2-0.5,6.9-0.5c0.8,0,1.5,0.1,1.9,0.1c0.4,0.1,0.7,0.1,0.7,0.1s-0.9,0-2.6,0.2c-1.6,0.2-3.9,0.6-6.7,1.2
			c-1.4,0.3-2.9,0.6-4.5,0.9c-1.6,0.3-3.3,0.6-5.1,0.8c-1.8,0.2-3.6,0.5-5.4,0.7c-1.9,0.2-3.7,0.4-5.6,0.5c-1.9,0.1-3.8,0.2-5.6,0.3
			c-1.9,0.1-3.7,0.1-5.5,0.1c-3.6,0-6.9-0.2-9.7-0.4c-2.8-0.2-5.2-0.5-6.8-0.7C318.4,587,317.5,586.8,317.5,586.8z"/>
	</g>
	<g>
		<path d="M320.2,604.1c0,0,0.8,0.3,2.3,0.6c1.5,0.3,3.6,0.7,6.1,0.9c2.5,0.2,5.5,0.4,8.7,0.5c1.6,0.1,3.3,0.1,4.9,0.1
			c1.7,0,3.4,0,5.1,0c1.7,0,3.4,0,5.1-0.1c1.7-0.1,3.3-0.1,4.9-0.2c1.6-0.1,3.1-0.2,4.6-0.3c1.5-0.1,2.8-0.2,4.1-0.3
			c2.6-0.2,4.7-0.4,6.2-0.6c1.5-0.2,2.4-0.2,2.4-0.2s-0.8,0.2-2.3,0.6c-1.5,0.4-3.6,0.9-6.1,1.3c-1.3,0.2-2.7,0.5-4.1,0.7
			c-1.5,0.2-3,0.4-4.6,0.6c-1.6,0.2-3.3,0.3-5,0.4c-1.7,0.1-3.4,0.1-5.2,0.2c-1.7,0-3.5,0-5.2-0.1c-1.7-0.1-3.4-0.2-5-0.3
			c-1.6-0.1-3.2-0.3-4.6-0.5c-1.5-0.2-2.9-0.4-4.1-0.6c-2.6-0.5-4.6-1.1-6.1-1.7c-0.7-0.3-1.2-0.5-1.6-0.7
			C320.4,604.2,320.2,604.1,320.2,604.1z"/>
	</g>
	<g>
		<path d="M339.4,616.9c0,0,0.2,1.1,0.5,3.2c0.2,1,0.3,2.2,0.5,3.6c0.1,0.7,0.2,1.5,0.2,2.3c0.1,0.8,0.1,1.6,0.1,2.5
			c0,0.9,0.1,1.8,0.1,2.7c0,0.9,0,1.9,0,2.9c0,1,0,2-0.1,3.1c-0.1,1.1-0.1,2.1-0.2,3.2c-0.2,2.2-0.4,4.5-0.8,6.7
			c-0.3,2.3-0.8,4.6-1.3,6.9c-0.6,2.3-1.1,4.6-1.8,6.7c-0.6,2.2-1.5,4.3-2.2,6.4c-0.4,1-0.8,2-1.2,3c-0.4,1-0.8,1.9-1.3,2.8
			c-0.4,0.9-0.9,1.8-1.3,2.6c-0.4,0.8-0.9,1.6-1.3,2.4c-0.4,0.8-0.8,1.5-1.2,2.2c-0.4,0.7-0.8,1.3-1.2,1.9c-0.7,1.2-1.4,2.3-2,3.1
			c-1.2,1.7-1.8,2.6-1.8,2.6s0.5-1,1.5-2.8c0.5-0.9,1.1-2,1.7-3.2c0.3-0.6,0.6-1.3,1-2c0.3-0.7,0.7-1.5,1-2.3
			c0.7-1.6,1.5-3.3,2.2-5.1c0.4-0.9,0.8-1.9,1.1-2.8c0.4-1,0.7-2,1.1-3c0.7-2.1,1.4-4.2,2-6.3c0.7-2.2,1.2-4.4,1.7-6.6
			c0.5-2.3,1-4.5,1.3-6.7c0.4-2.2,0.7-4.4,1-6.6c0.1-1.1,0.2-2.1,0.3-3.2c0.1-1,0.2-2,0.2-3c0.1-2,0.2-3.9,0.2-5.6
			c0-0.9,0-1.7,0.1-2.5c0-0.8,0-1.5,0-2.2c0-1.4,0-2.6-0.1-3.7C339.5,618.1,339.4,616.9,339.4,616.9z"/>
	</g>
	<g>
		<path d="M362.9,618.9c0,0,0,0.3,0.1,0.8c0,0.5,0.1,1.4,0.1,2.4c0,2.1-0.2,5-0.5,8.5c-0.1,1.7-0.2,3.6-0.2,5.6c0.1,2,0.3,4,0.8,6.1
			c0.4,2.1,1.1,4.2,1.9,6.4c0.8,2.1,1.7,4.2,2.8,6.3c1,2.1,2.1,4.1,3.2,6.1c1.1,2,2.2,4,3.3,5.9c2.2,3.8,4.4,7.3,6.2,10.2
			c1.9,3,3.5,5.4,4.6,7.1c1.1,1.7,1.8,2.7,1.8,2.7s-0.2-0.2-0.6-0.6c-0.4-0.4-0.9-1-1.5-1.8c-1.3-1.6-3.2-3.9-5.3-6.7
			c-2.1-2.8-4.4-6.2-6.8-10c-1.2-1.9-2.4-3.8-3.5-5.8c-1.1-2-2.3-4.1-3.3-6.2c-1-2.1-2-4.3-2.8-6.5c-0.8-2.2-1.4-4.5-1.8-6.7
			c-0.4-2.2-0.6-4.4-0.5-6.5c0-2.1,0.3-4,0.5-5.7c0.2-1.8,0.5-3.3,0.8-4.7c0.2-1.4,0.4-2.6,0.5-3.7
			C362.9,620.1,362.9,618.9,362.9,618.9z"/>
	</g>
	<g>
		<path d="M277.9,683.3c0,0,2.3,0.5,6.3,1.4c2,0.4,4.4,0.9,7.2,1.4c2.8,0.5,6,1,9.4,1.6c3.5,0.5,7.2,1.1,11.2,1.6
			c2,0.3,4,0.6,6.1,0.8c2.1,0.2,4.2,0.5,6.4,0.7c2.2,0.3,4.4,0.4,6.6,0.6c2.2,0.2,4.5,0.4,6.8,0.5c2.3,0.1,4.6,0.3,6.9,0.4
			c2.3,0.2,4.7,0.2,7,0.2c4.7,0.2,9.3,0.1,13.9,0.2c2.3,0,4.6-0.1,6.8-0.2c2.3-0.1,4.5-0.1,6.7-0.3c2.2-0.2,4.3-0.3,6.4-0.5
			c2.1-0.1,4.1-0.4,6.1-0.6c2-0.2,3.9-0.4,5.8-0.7c1.9-0.3,3.7-0.6,5.4-0.9c3.5-0.5,6.6-1.2,9.4-1.8c1.4-0.3,2.7-0.6,3.9-0.8
			c1.2-0.3,2.3-0.6,3.3-0.9c3.9-1.1,6.2-1.7,6.2-1.7s-2.2,0.8-6.1,2.1c-1,0.3-2.1,0.7-3.2,1.1c-1.2,0.3-2.5,0.7-3.9,1
			c-1.4,0.4-2.9,0.8-4.4,1.2c-0.4,0.1-0.8,0.2-1.2,0.3c-0.4,0.1-0.8,0.2-1.2,0.2c-0.8,0.2-1.7,0.3-2.5,0.5c-1.7,0.3-3.5,0.7-5.4,1.1
			c-1.9,0.3-3.8,0.6-5.8,0.9c-2,0.3-4.1,0.6-6.2,0.8c-2.1,0.2-4.3,0.4-6.5,0.6c-2.2,0.2-4.4,0.3-6.7,0.4c-2.3,0.1-4.6,0.2-6.9,0.3
			c-4.6,0-9.3,0.1-14-0.1c-2.3-0.1-4.7-0.1-7-0.3c-2.3-0.2-4.7-0.3-7-0.5c-2.3-0.1-4.6-0.4-6.8-0.6c-2.3-0.2-4.5-0.4-6.7-0.7
			c-2.2-0.3-4.3-0.6-6.4-0.8c-2.1-0.3-4.1-0.6-6.1-0.9c-4-0.6-7.7-1.4-11.2-2c-3.5-0.7-6.6-1.4-9.4-2c-2.8-0.7-5.2-1.3-7.2-1.8
			C280.2,683.9,277.9,683.3,277.9,683.3z"/>
	</g>
	<g>
		<path d="M276.5,386.5c0,0-0.1,1.5-0.3,4.2c-0.2,2.7-0.3,6.8-0.2,11.9c0.2,5.1,0.6,11.3,1.7,18.4c0.5,3.5,1.2,7.3,2.1,11.2
			c0.8,3.9,1.8,8,3,12.2c2.3,8.5,5.3,17.5,8.9,26.9c3.6,9.4,7.8,19.1,12.2,29.2c2.2,5,4.5,10.1,7.1,15.1c2.6,5,5.6,9.8,9.2,14.1
			c3.6,4.3,7.9,8.1,12.9,10.8c4.9,2.7,10.5,4.4,16.1,4.3c5.6,0,11-2,15.7-5.1c2.3-1.5,4.5-3.4,6.4-5.4c2-2.2,3.9-4.2,5.6-6.5
			c7.1-8.9,12.6-18.8,17.3-28.7c4.7-9.9,8.5-19.8,11.7-29.3c3.2-9.5,5.7-18.7,7.5-27.3c0.9-4.3,1.4-8.4,2-12.4
			c0.5-4,0.9-7.7,1.3-11.3c0.7-7.1,1.3-13.3,1.8-18.4c0.5-5.1,1-9.1,1.4-11.8c0.4-2.7,0.6-4.2,0.6-4.2s-0.2,1.5-0.4,4.2
			c-0.3,2.7-0.6,6.8-1,11.9c-0.3,5.1-0.8,11.3-1.2,18.5c-0.5,7.1-1.2,15.2-2.8,23.9c-1.7,8.7-4.1,18-7.1,27.6
			c-3.1,9.6-6.8,19.7-11.5,29.7c-4.7,10-10.3,20.1-17.5,29.3c-1.8,2.3-3.8,4.6-5.7,6.7c-2.1,2.2-4.4,4.2-6.9,5.9
			c-5,3.4-11,5.6-17.2,5.7c-6.2,0.1-12.2-1.8-17.5-4.7c-5.3-2.9-9.9-6.9-13.6-11.5c-3.8-4.6-6.8-9.6-9.4-14.6
			c-2.6-5.1-4.9-10.2-7-15.3c-8.8-20.2-16-39.5-20.4-56.7c-2.2-8.5-3.7-16.5-4.5-23.7c-0.9-7.1-1.2-13.4-1.2-18.5
			c0-5.1,0.3-9.2,0.6-11.9C276.3,388,276.5,386.5,276.5,386.5z"/>
	</g>
	<g>
		<path d="M276.5,399.8c0,0,2.3-0.1,6.2-0.2c1,0,2.1,0,3.3,0c1.2,0,2.5,0,3.9,0c2.8,0,5.9,0,9.3,0.1c3.4,0.1,7.1,0.1,10.9,0.2
			c3.9,0.1,8,0.4,12.2,0.6c4.2,0.2,8.6,0.4,13.1,0.3c4.5,0,9-0.3,13.5-0.6c4.5-0.4,9-0.7,13.5-1c4.4-0.3,8.8-0.6,13-0.9
			c4.2-0.3,8.3-0.6,12.2-0.9c3.9-0.2,7.5-0.5,10.9-0.7c3.4-0.2,6.5-0.4,9.2-0.5c2.8-0.1,5.2-0.3,7.1-0.4c2-0.1,3.5-0.2,4.6-0.2
			c1.1,0,1.6,0,1.6,0l0,0.3c0,0-0.6,0.1-1.6,0.3c-1,0.2-2.6,0.5-4.5,0.8c-2,0.4-4.3,0.7-7.1,1.1c-2.7,0.4-5.8,0.8-9.2,1.2
			c-1.7,0.2-3.4,0.4-5.3,0.6c-1.8,0.2-3.7,0.4-5.7,0.5c-1.9,0.2-3.9,0.4-6,0.5c-2,0.1-4.1,0.3-6.2,0.4c-4.2,0.2-8.6,0.4-13.1,0.5
			c-4.5,0.2-9,0.1-13.5,0c-9.1-0.2-18.1-0.1-26.6,0.3c-4.2,0.2-8.4,0.4-12.3,0.4c-1.9,0-3.8,0-5.7-0.1c-1.8-0.1-3.6-0.1-5.3-0.2
			c-3.4-0.2-6.5-0.4-9.3-0.6c-2.8-0.2-5.2-0.5-7.1-0.7c-3.9-0.4-6.2-0.8-6.2-0.8L276.5,399.8z"/>
	</g>
</g>
</svg>
