<svg id="Layer_1" xmlns="http://www.w3.org/2000/svg" viewBox="0 0 705 705"><style>.st0{fill:none}.st1{opacity:.86;fill:url(#SVGID_1_);enable-background:new}.st2{fill:none;stroke:#000;stroke-width:5;stroke-miterlimit:10}</style><path class="st0" d="M122.5 0h460v705h-460V0z"/><radialGradient id="SVGID_1_" cx="351.33" cy="173.952" r="73.972" gradientTransform="matrix(1 0 0 -1 0 707)" gradientUnits="userSpaceOnUse"><stop offset=".007" stop-color="#ff6500"/><stop offset="1" stop-color="#7f0007"/></radialGradient><path class="st1" d="M411.8 394.5c-13 1.1-26 2.2-39 3.1-23.1 1.7-46.3 2.9-69.4 2.7-7 0-15.5.7-23.2 0 .2 34.6 13.5 68.6 27.5 100.7 4.9 11.1 10 22.5 18.4 31.3s20.8 14.7 32.7 12.2c6.7-1.4 13-5.3 17.7-10.3 26.1-27.3 40.2-79.5 43-97.3 2.3-14.6 2.8-29.3 4.3-44-3.9.8-8 1.2-12 1.6z"/><path class="st2" d="M271.9 382.2c-4.6 53.9 11 109.4 43 153 4.5 6.1 9.4 12.2 11.7 19.4 2.3 7.2-1.1 24.7-13.8 33.1-2.2 1.5-5.1 2.1-6.6 4.3-2 2.8-1.1 6.8.9 9.6s5 4.7 7.6 7c12.1 10.6 16 32.5 8.4 46.9-6 11.3-19.3 16.1-31.4 20-6.5 2.1-14.3 3.5-20.4 6.5-7 3.4-3.9 8.1 1.7 9.8 8.9 2.6 18.8 3.6 27.9 5 16.2 2.5 32.5 4.2 48.9 4.9 21.2.8 42.9.1 63.6-4.9 4.2-1 22.9-4.5 24.2-10.3.3-1.2.3-2.5-.3-3.5-.9-1.7-2.9-2.5-4.7-3.2-11.7-4.1-23.6-7.9-35.5-11.4-10.9-3.2-16.3-16.4-19.5-27.2-3.6-12.4-1.7-27.5 8.5-35.4 3.2-2.5 7.2-4.4 8.8-8.1 1.9-4.3-.4-9.4-3.6-12.8-3.2-3.4-7.4-5.8-10.7-9.2-10.9-11.4-8.2-26.6.9-37.2 46-53.7 47.6-138.3 48.7-159.8-53.8 0-104.4 1.9-158.3 3.5z"/><path d="M284.2 433.5s.1-.1.2-.3c.2-.2.3-.5.7-.9.7-.8 1.8-1.7 3.5-2.5 1.7-.7 4.1-1.2 6.7-.9 2.6.2 5.6 1.2 8.2 3.2s4.9 4.8 6.8 7.9c1.9 3.2 3.5 6.7 5.1 10.3.8 1.8 1.6 3.7 2.4 5.6s1.6 3.8 2.3 5.8c1.5 3.9 3 7.9 4.4 11.9s2.6 8.1 3.8 12.1c1.2 4 2.2 8 3.2 11.9.9 3.9 1.8 7.6 2.5 11.2.7 3.6 1.3 7 1.8 10.1s.9 6 1.2 8.6c.3 2.6.6 4.8.8 6.6.3 3.7.5 5.8.5 5.8s-.3-2.1-.9-5.8c-.3-1.8-.7-4-1.1-6.6-.5-2.5-1-5.4-1.6-8.5-.3-1.6-.6-3.2-1-4.8-.4-1.7-.7-3.4-1.1-5.2-.8-3.5-1.7-7.2-2.7-11.1-.5-1.9-1-3.9-1.6-5.8-.6-2-1.1-3.9-1.7-5.9-1.2-4-2.5-8-3.9-12s-2.8-8-4.3-11.8c-.7-1.9-1.5-3.9-2.2-5.7-.8-1.9-1.5-3.8-2.3-5.6-1.6-3.7-3-7.2-4.8-10.3-1.7-3.1-3.8-5.8-6.2-7.8-2.4-2-5.1-3.1-7.6-3.4-2.5-.4-4.7-.1-6.5.5-1.7.6-2.9 1.5-3.6 2.2-.4.3-.6.7-.8.8-.1.3-.2.4-.2.4z"/><path d="M336.7 532.7s-.2-.9-.5-2.5c-.3-1.7-.8-4.1-1.3-7.2-.5-3.1-1.1-6.9-1.8-11.2-.6-4.3-1.3-9.2-1.9-14.6s-1.2-11.2-1.7-17.3c-.3-3.1-.5-6.2-.7-9.5-.2-3.2-.4-6.5-.4-10 0-1.7.1-3.4.2-5.2.2-1.7.4-3.5.9-5.2.8-3.5 2.4-6.9 5.1-9.6l1.1-.9.3-.2.3-.2.5-.4c.4-.3.8-.5 1.2-.8.4-.2.8-.4 1.3-.6 1.7-.8 3.5-1.3 5.3-1.6 3.7-.6 7.3-.6 10.9-.5 1.8.1 3.6.1 5.5.4 1.8.3 3.7.8 5.4 1.7 3.5 1.8 5.9 4.9 7.5 8.2 1.6 3.3 2.2 7 2.4 10.5.2 3.5-.2 7-.5 10.4-.7 6.7-1.6 13.2-2.5 19.3-1 6.1-2 11.9-3 17.1-2.1 10.6-4.3 19.3-6 25.4-.8 3-1.5 5.4-2 7s-.7 2.5-.7 2.5.9-3.5 2.3-9.6c.7-3.1 1.6-6.8 2.4-11.1.9-4.3 1.8-9.1 2.8-14.4.9-5.3 1.9-11 2.7-17.1.8-6.1 1.6-12.5 2.2-19.2.3-3.3.6-6.7.4-10.1s-.8-6.8-2.3-9.8c-1.4-3-3.8-5.8-6.7-7.3-3-1.6-6.5-1.7-10.1-1.8-3.6-.1-7.1-.2-10.5.4-1.7.3-3.4.7-4.9 1.4-.4.2-.8.4-1.1.6-.3.2-.7.4-1.1.6l-.5.4-.2.2-.2.2-.9.8c-2.4 2.3-3.9 5.4-4.7 8.7-.4 1.6-.7 3.3-.8 5-.2 1.7-.2 3.3-.2 5 0 3.3.2 6.6.3 9.9.1 3.2.3 6.4.5 9.5.4 6.1.8 12 1.4 17.3 1 10.7 2.1 19.6 3 25.8.8 6.1 1.3 9.6 1.3 9.6z"/><path d="M362.2 535.7s.1-.5.3-1.4c.2-.9.4-2.2.8-3.8.8-3.3 1.8-8 3.3-13.6 1.4-5.6 3.2-12.1 5.1-19.1 1-3.5 2-7.1 3.1-10.7s2.2-7.3 3.3-11c1.2-3.7 2.3-7.4 3.5-11 1.1-3.6 2.4-7.2 3.7-10.6 1.3-3.4 2.8-6.6 4.6-9.5 1.8-2.9 4-5.3 6.5-7s5.1-2.6 7.4-3c2.4-.4 4.5-.2 6.2.2 1.7.4 2.8 1.1 3.6 1.6.4.3.6.5.8.6.2.2.3.2.3.2s-.1-.1-.3-.2c-.2-.1-.5-.3-.9-.6-.8-.5-2-1-3.6-1.3s-3.7-.4-5.9.2c-2.2.5-4.7 1.6-6.9 3.2-2.2 1.7-4.2 4.1-5.9 6.9-1.7 2.8-3 6-4.3 9.3-.6 1.7-1.3 3.4-1.8 5.2-.6 1.8-1.1 3.6-1.7 5.4-1.1 3.6-2.2 7.3-3.4 11-4.5 14.8-9 29.5-12.3 40.6-1.7 5.5-3.1 10.2-4 13.4s-1.5 5-1.5 5zm-25.6 22.2s.5 0 1.2.2c.8.1 1.9.3 3.2.5l2.1.3 2.4.3c.8.1 1.7.2 2.5.3.9.1 1.7.1 2.6.2.9 0 1.7.1 2.6 0h1.3c.4 0 .8-.1 1.2-.1.4 0 .8-.1 1.2-.1.4-.1.8-.1 1.1-.2.7-.2 1.4-.3 2-.5l.9-.3c.3-.1.5-.2.8-.3.5-.2 1-.3 1.3-.5.7-.3 1.1-.5 1.1-.5s-.3.3-.9.8c-.3.3-.7.6-1.2.9-.2.2-.5.3-.8.5-.3.1-.6.3-.9.4-.6.3-1.3.6-2.1.8-.8.2-1.6.5-2.4.6-.9.1-1.7.3-2.7.3-.9.1-1.8 0-2.8 0-.9-.1-1.8-.1-2.7-.3-.9-.1-1.8-.3-2.6-.5-1.7-.4-3.2-.8-4.5-1.3-1.3-.4-2.3-.9-3-1.2-.3 0-.6-.1-.9-.3zM320 588.7h9.4c1.4 0 2.9-.1 4.6-.1 1.6 0 3.3-.1 5.1-.1 1.8-.1 3.6-.2 5.4-.2 1.8-.1 3.7-.2 5.6-.3s3.7-.3 5.6-.4c1.8-.2 3.7-.3 5.4-.5 1.8-.2 3.4-.4 5-.5 1.6-.2 3.1-.4 4.5-.5 2.8-.4 5.2-.5 6.9-.5.8 0 1.5.1 1.9.1.4.1.7.1.7.1s-.9 0-2.6.2c-1.6.2-3.9.6-6.7 1.2-1.4.3-2.9.6-4.5.9-1.6.3-3.3.6-5.1.8-1.8.2-3.6.5-5.4.7-1.9.2-3.7.4-5.6.5s-3.8.2-5.6.3c-1.9.1-3.7.1-5.5.1-3.6 0-6.9-.2-9.7-.4-2.8-.2-5.2-.5-6.8-.7-1.7-.5-2.6-.7-2.6-.7zm2.7 17.3s.8.3 2.3.6 3.6.7 6.1.9 5.5.4 8.7.5c1.6.1 3.3.1 4.9.1h5.1c1.7 0 3.4 0 5.1-.1s3.3-.1 4.9-.2c1.6-.1 3.1-.2 4.6-.3s2.8-.2 4.1-.3c2.6-.2 4.7-.4 6.2-.6 1.5-.2 2.4-.2 2.4-.2s-.8.2-2.3.6c-1.5.4-3.6.9-6.1 1.3-1.3.2-2.7.5-4.1.7-1.5.2-3 .4-4.6.6-1.6.2-3.3.3-5 .4-1.7.1-3.4.1-5.2.2-1.7 0-3.5 0-5.2-.1s-3.4-.2-5-.3-3.2-.3-4.6-.5c-1.5-.2-2.9-.4-4.1-.6-2.6-.5-4.6-1.1-6.1-1.7-.7-.3-1.2-.5-1.6-.7-.3-.2-.5-.3-.5-.3zm19.2 12.8s.2 1.1.5 3.2c.2 1 .3 2.2.5 3.6.1.7.2 1.5.2 2.3.1.8.1 1.6.1 2.5s.1 1.8.1 2.7v2.9c0 1 0 2-.1 3.1s-.1 2.1-.2 3.2c-.2 2.2-.4 4.5-.8 6.7-.3 2.3-.8 4.6-1.3 6.9-.6 2.3-1.1 4.6-1.8 6.7-.6 2.2-1.5 4.3-2.2 6.4l-1.2 3c-.4 1-.8 1.9-1.3 2.8-.4.9-.9 1.8-1.3 2.6s-.9 1.6-1.3 2.4c-.4.8-.8 1.5-1.2 2.2-.4.7-.8 1.3-1.2 1.9-.7 1.2-1.4 2.3-2 3.1-1.2 1.7-1.8 2.6-1.8 2.6s.5-1 1.5-2.8c.5-.9 1.1-2 1.7-3.2.3-.6.6-1.3 1-2 .3-.7.7-1.5 1-2.3.7-1.6 1.5-3.3 2.2-5.1.4-.9.8-1.9 1.1-2.8.4-1 .7-2 1.1-3 .7-2.1 1.4-4.2 2-6.3.7-2.2 1.2-4.4 1.7-6.6.5-2.3 1-4.5 1.3-6.7.4-2.2.7-4.4 1-6.6.1-1.1.2-2.1.3-3.2.1-1 .2-2 .2-3 .1-2 .2-3.9.2-5.6 0-.9 0-1.7.1-2.5v-2.2c0-1.4 0-2.6-.1-3.7.1-2 0-3.2 0-3.2zm23.5 2s0 .3.1.8c0 .5.1 1.4.1 2.4 0 2.1-.2 5-.5 8.5-.1 1.7-.2 3.6-.2 5.6.1 2 .3 4 .8 6.1.4 2.1 1.1 4.2 1.9 6.4.8 2.1 1.7 4.2 2.8 6.3 1 2.1 2.1 4.1 3.2 6.1s2.2 4 3.3 5.9c2.2 3.8 4.4 7.3 6.2 10.2 1.9 3 3.5 5.4 4.6 7.1 1.1 1.7 1.8 2.7 1.8 2.7l-.6-.6c-.4-.4-.9-1-1.5-1.8-1.3-1.6-3.2-3.9-5.3-6.7-2.1-2.8-4.4-6.2-6.8-10-1.2-1.9-2.4-3.8-3.5-5.8s-2.3-4.1-3.3-6.2c-1-2.1-2-4.3-2.8-6.5s-1.4-4.5-1.8-6.7-.6-4.4-.5-6.5c0-2.1.3-4 .5-5.7.2-1.8.5-3.3.8-4.7.2-1.4.4-2.6.5-3.7.2-2 .2-3.2.2-3.2z"/><path d="M280.4 685.2s2.3.5 6.3 1.4c2 .4 4.4.9 7.2 1.4 2.8.5 6 1 9.4 1.6 3.5.5 7.2 1.1 11.2 1.6 2 .3 4 .6 6.1.8s4.2.5 6.4.7c2.2.3 4.4.4 6.6.6 2.2.2 4.5.4 6.8.5s4.6.3 6.9.4c2.3.2 4.7.2 7 .2 4.7.2 9.3.1 13.9.2 2.3 0 4.6-.1 6.8-.2 2.3-.1 4.5-.1 6.7-.3s4.3-.3 6.4-.5c2.1-.1 4.1-.4 6.1-.6 2-.2 3.9-.4 5.8-.7s3.7-.6 5.4-.9c3.5-.5 6.6-1.2 9.4-1.8 1.4-.3 2.7-.6 3.9-.8 1.2-.3 2.3-.6 3.3-.9 3.9-1.1 6.2-1.7 6.2-1.7s-2.2.8-6.1 2.1c-1 .3-2.1.7-3.2 1.1-1.2.3-2.5.7-3.9 1-1.4.4-2.9.8-4.4 1.2l-1.2.3c-.4.1-.8.2-1.2.2-.8.2-1.7.3-2.5.5-1.7.3-3.5.7-5.4 1.1-1.9.3-3.8.6-5.8.9-2 .3-4.1.6-6.2.8s-4.3.4-6.5.6c-2.2.2-4.4.3-6.7.4l-6.9.3c-4.6 0-9.3.1-14-.1-2.3-.1-4.7-.1-7-.3s-4.7-.3-7-.5c-2.3-.1-4.6-.4-6.8-.6-2.3-.2-4.5-.4-6.7-.7s-4.3-.6-6.4-.8c-2.1-.3-4.1-.6-6.1-.9-4-.6-7.7-1.4-11.2-2-3.5-.7-6.6-1.4-9.4-2l-7.2-1.8c-3.7-1.2-6-1.8-6-1.8zM279 388.4s-.1 1.5-.3 4.2c-.2 2.7-.3 6.8-.2 11.9.2 5.1.6 11.3 1.7 18.4.5 3.5 1.2 7.3 2.1 11.2.8 3.9 1.8 8 3 12.2 2.3 8.5 5.3 17.5 8.9 26.9s7.8 19.1 12.2 29.2c2.2 5 4.5 10.1 7.1 15.1s5.6 9.8 9.2 14.1 7.9 8.1 12.9 10.8c4.9 2.7 10.5 4.4 16.1 4.3 5.6 0 11-2 15.7-5.1 2.3-1.5 4.5-3.4 6.4-5.4 2-2.2 3.9-4.2 5.6-6.5 7.1-8.9 12.6-18.8 17.3-28.7 4.7-9.9 8.5-19.8 11.7-29.3s5.7-18.7 7.5-27.3c.9-4.3 1.4-8.4 2-12.4.5-4 .9-7.7 1.3-11.3.7-7.1 1.3-13.3 1.8-18.4s1-9.1 1.4-11.8c.4-2.7.6-4.2.6-4.2s-.2 1.5-.4 4.2c-.3 2.7-.6 6.8-1 11.9-.3 5.1-.8 11.3-1.2 18.5-.5 7.1-1.2 15.2-2.8 23.9-1.7 8.7-4.1 18-7.1 27.6-3.1 9.6-6.8 19.7-11.5 29.7s-10.3 20.1-17.5 29.3c-1.8 2.3-3.8 4.6-5.7 6.7-2.1 2.2-4.4 4.2-6.9 5.9-5 3.4-11 5.6-17.2 5.7-6.2.1-12.2-1.8-17.5-4.7s-9.9-6.9-13.6-11.5c-3.8-4.6-6.8-9.6-9.4-14.6-2.6-5.1-4.9-10.2-7-15.3-8.8-20.2-16-39.5-20.4-56.7-2.2-8.5-3.7-16.5-4.5-23.7-.9-7.1-1.2-13.4-1.2-18.5s.3-9.2.6-11.9c.1-2.9.3-4.4.3-4.4z"/><path d="M279 401.7s2.3-.1 6.2-.2h7.2c2.8 0 5.9 0 9.3.1s7.1.1 10.9.2c3.9.1 8 .4 12.2.6s8.6.4 13.1.3c4.5 0 9-.3 13.5-.6 4.5-.4 9-.7 13.5-1 4.4-.3 8.8-.6 13-.9s8.3-.6 12.2-.9c3.9-.2 7.5-.5 10.9-.7s6.5-.4 9.2-.5c2.8-.1 5.2-.3 7.1-.4 2-.1 3.5-.2 4.6-.2h1.6v.3s-.6.1-1.6.3c-1 .2-2.6.5-4.5.8-2 .4-4.3.7-7.1 1.1-2.7.4-5.8.8-9.2 1.2-1.7.2-3.4.4-5.3.6-1.8.2-3.7.4-5.7.5-1.9.2-3.9.4-6 .5-2 .1-4.1.3-6.2.4-4.2.2-8.6.4-13.1.5-4.5.2-9 .1-13.5 0-9.1-.2-18.1-.1-26.6.3-4.2.2-8.4.4-12.3.4-1.9 0-3.8 0-5.7-.1-1.8-.1-3.6-.1-5.3-.2-3.4-.2-6.5-.4-9.3-.6s-5.2-.5-7.1-.7c-3.9-.4-6.2-.8-6.2-.8l.2-.3z"/></svg>