<?xml version="1.0" encoding="utf-8"?>
<!-- Generator: Adobe Illustrator 19.2.0, SVG Export Plug-In . SVG Version: 6.00 Build 0)  -->
<svg version="1.1" id="Layer_1" xmlns="http://www.w3.org/2000/svg" xmlns:xlink="http://www.w3.org/1999/xlink" x="0px" y="0px"
	 viewBox="0 0 460 444" style="enable-background:new 0 0 460 444;" xml:space="preserve">
<style type="text/css">
	.st0{fill:none;stroke:#000000;stroke-width:5;stroke-miterlimit:10;}
	.st1{opacity:0.9;fill:url(#SVGID_1_);enable-background:new    ;}
	.st2{fill:#F9EBB2;}
	.st3{fill:none;stroke:#000000;stroke-width:5.0395;stroke-miterlimit:10;}
</style>
<path class="st0" d="M6588.6-826.6c0.3,38.5,0.2,82.4-5.7,120.5c-2.3,14.7-3.7,31.7-10.6,44.9c-9.4,17.9-18.6,35.9-34,49.5
	c-5.5,4.9-11.5,9.2-17.9,12.8c-4.2,2.3-15.3,5.1-15.9,10.8c-0.4,3.6,3.8,5.7,6.9,7.6c6.9,4.3,10.9,12.3,11.6,20.4
	c1.5,15.4-5.6,30.7-18.9,38.8c-0.8,0.5-1.6,1-1.9,1.8c-0.7,2.1,2.1,3.4,4.2,3.8c12.1,2.1,24,5,35.7,8.7c7.7,2.4,24.3,10.6,12,18.5
	c-7.7,4.9-17,6.2-26,7.3c-24.7,3.1-49.7,6.2-74.5,3.9c-5.6-0.5-11.2-1.4-16.8-2.2l-22.5-3.3c-5.3-0.8-11.8-2.7-12.7-7.9
	c-1.7-10.2,16.6-15.1,23.6-17.2c4.9-1.5,36.5-4.6,35.6-9.3c-0.5-2.4-2.8-3.9-4.8-5.4c-8.9-6.4-15-16.4-16.6-27.2
	c-1.6-10.8,1.3-22.2,7.9-30.9c2.2-2.9,4.9-6,4.4-9.6c-0.2-1.5-1-2.9-2-4.1c-5.1-6.7-15.9-9.5-22.8-14.7c-7.9-6-15.2-12.8-21.6-20.4
	c-12.5-14.5-22.1-31.5-27.6-49.9c-5.2-17.2-6.9-35.3-8.2-53.2c-2.3-31-3.6-62-3.8-93.1c20.2-2.4,42-1.8,62.4-1.4
	C6480.9-826,6588.6-828.7,6588.6-826.6L6588.6-826.6z"/>
<path d="M6462-511.7v1.9c0,0.6,0.1,1.3,0.6,1.9c0.4,0.6,1.2,0.8,2.2,0.8c2.1-0.1,4.5-0.2,7.1-0.2c1.3,0,2.7-0.1,4-0.1
	c1.4-0.1,2.8-0.1,4.1-0.2c1.4-0.1,2.8-0.1,4.1-0.2c1.4-0.1,2.7-0.1,4-0.2c2.6-0.1,5-0.2,7.1-0.3c2-0.1,3.7-0.6,4.6-1.3
	c0.4-0.4,0.7-0.8,0.8-1.1c0.1-0.3,0.2-0.5,0.2-0.5v0.5c-0.1,0.3-0.2,0.8-0.6,1.3s-1.1,1-1.9,1.4c-0.8,0.4-1.8,0.7-2.8,0.8
	c-2.1,0.4-4.5,0.7-7.1,0.9c-1.3,0.1-2.7,0.3-4,0.4c-1.4,0.1-2.8,0.2-4.2,0.2c-1.4,0-2.8,0.1-4.2,0.1h-4.1c-2.6-0.1-5.1-0.2-7.2-0.4
	c-0.5-0.1-1.1-0.1-1.6-0.4s-0.9-0.7-1.1-1.1c-0.4-0.9-0.4-1.7-0.3-2.3s0.2-1.1,0.3-1.4C6461.9-511.5,6462-511.7,6462-511.7
	L6462-511.7z M6461.6-596.3c0,0,0.6,0.2,1.6,0.5c0.5,0.2,1.2,0.3,1.9,0.5s1.6,0.4,2.4,0.5c0.9,0.2,1.9,0.3,2.9,0.5
	c1,0.1,2.1,0.2,3.3,0.3c1.1,0.1,2.3,0.1,3.5,0.2h3.6c1.2,0,2.5,0,3.7-0.1c1.2,0,2.4-0.1,3.6-0.1c2.3-0.1,4.5-0.1,6.3-0.3
	s3.2-0.6,4.1-1.2c0.4-0.3,0.8-0.6,1-0.8l0.3-0.3c0,0-0.1,0.1-0.2,0.4c-0.2,0.3-0.4,0.6-0.8,1c-0.8,0.8-2.3,1.6-4.2,2
	c-0.9,0.2-2,0.4-3,0.5c-1.1,0.1-2.2,0.3-3.3,0.4l-3.6,0.3c-1.2,0.1-2.5,0.1-3.7,0.2c-1.3,0-2.5,0-3.7-0.1c-0.6,0-1.2-0.1-1.8-0.1
	c-0.6-0.1-1.2-0.1-1.8-0.2c-1.2-0.1-2.3-0.4-3.4-0.6c-0.5-0.1-1-0.3-1.5-0.4c-0.5-0.2-1-0.3-1.4-0.4c-1.8-0.6-3.2-1.3-4.2-1.8
	C6462.2-596,6461.6-596.3,6461.6-596.3L6461.6-596.3z M6411.5-494.2l0.3,0.3c0.2,0.2,0.5,0.4,1,0.6c0.9,0.5,2.3,1,4.2,1.4
	c1.9,0.4,4.2,0.7,6.8,1.1c2.6,0.4,5.6,0.7,8.9,1.1c3.3,0.3,6.8,0.7,10.6,1c3.7,0.3,7.7,0.5,11.8,0.7c8.2,0.3,17,0.5,25.7,0.6
	c4.4,0.1,8.8,0.1,13.1,0.2c4.3,0,8.5,0.1,12.6,0s8-0.4,11.7-0.8c3.7-0.5,7.2-1.1,10.4-1.7c6.4-1.4,11.6-3,15.2-4.3
	c1.8-0.7,3.2-1.2,4.2-1.6l1.5-0.6c0,0-0.5,0.2-1.4,0.7c-0.9,0.4-2.3,1.1-4.1,1.8c-3.5,1.5-8.7,3.5-15.1,5.1
	c-6.4,1.6-14.1,2.9-22.3,3.2c-4.1,0.2-8.4,0.2-12.7,0.2c-4.3,0-8.7-0.1-13.1-0.1c-4.4-0.1-8.8-0.2-13.1-0.3
	c-4.3-0.1-8.6-0.4-12.7-0.6c-4.1-0.3-8.1-0.6-11.8-1c-3.8-0.4-7.3-0.8-10.6-1.3c-1.6-0.3-3.2-0.5-4.7-0.7c-1.5-0.3-2.9-0.5-4.2-0.8
	c-2.6-0.5-4.9-1-6.8-1.5s-3.3-1.1-4.1-1.7c-0.4-0.3-0.7-0.5-0.9-0.7C6411.6-494.1,6411.5-494.2,6411.5-494.2L6411.5-494.2z"/>
<linearGradient id="SVGID_1_" gradientUnits="userSpaceOnUse" x1="6378.7998" y1="-1211.7888" x2="6584.7002" y2="-1211.7888" gradientTransform="matrix(1 0 0 1 0 507)">
	<stop  offset="1.800000e-02" style="stop-color:#801FE3"/>
	<stop  offset="1" style="stop-color:#B7A7FF"/>
</linearGradient>
<path class="st1" d="M6378.8-798.4c1.4,24.4,2.7,48.8,4.1,73.2c0.4,7.9,0.9,15.9,2.2,23.7c1.8,11.1,5.4,21.8,8.9,32.5
	c3,9.1,6,18.2,11.1,26.3c17.8,28.1,51.5,32.7,81.9,31.3c10.6-0.5,21.3-1.5,31.5-4.7c66.9-21.3,65.2-117,66.1-172.7
	c0-2.6,0.1-5.1,0.1-7.7C6516-794.3,6447.2-792.5,6378.8-798.4L6378.8-798.4z"/>
<path d="M6373.7-818.1c0,0,0.6,8.1,1.5,22.2c0.5,7.1,1,15.6,1.7,25.5c0.6,9.8,1.4,20.9,2.1,33.1c0.4,6.1,0.7,12.4,1.3,18.9
	c0.5,6.5,1.4,13.2,3,19.9c1.6,6.7,3.7,13.5,6,20.4c2.4,6.9,4.5,14,7.5,20.9c0.8,1.7,1.5,3.4,2.4,5.1c0.9,1.6,1.8,3.3,2.8,4.8
	c1.1,1.6,2.2,3.1,3.4,4.7c1.2,1.4,2.5,2.8,3.7,4.3c5.3,5.5,11.7,10,18.8,13.2c7.1,3.3,14.8,5.4,22.6,6.6c7.9,1.3,15.9,1.7,23.9,1.7
	c8-0.1,16.1-0.4,24-1.5c3.9-0.5,7.9-1.2,11.7-2.2c1-0.3,1.9-0.5,2.8-0.8l0.7-0.2h0.1l0.2-0.1l0.4-0.1l1.4-0.5l2.8-1
	c0.5-0.2,0.9-0.3,1.4-0.5l1.3-0.6c7.1-3.1,13.7-7.4,19.4-12.5c5.7-5.1,10.5-11.1,14.4-17.5c4-6.3,7.1-13.1,9.7-19.8
	c2.6-6.8,4.6-13.6,6.3-20.3c3.2-13.5,5-26.5,6.2-38.5c1.1-12.1,1.7-23.2,2-33c0.3-9.9,0.5-18.4,0.7-25.5c0.2-14.2,0.4-22.2,0.4-22.2
	s0,2,0.1,5.8c0,3.8,0.1,9.4,0.2,16.4c0,7.1,0,15.7-0.2,25.5c-0.1,9.9-0.5,21-1.5,33.1c-1,12.1-2.6,25.2-5.7,38.9
	c-1.6,6.8-3.6,13.7-6.1,20.6c-2.5,6.9-5.7,13.8-9.8,20.3c-4,6.5-9,12.7-14.8,18.1c-5.9,5.4-12.7,9.8-20.2,13.1l-1.4,0.6
	c-0.5,0.2-0.9,0.4-1.4,0.5l-2.8,1l-1.4,0.5l-0.4,0.1l-0.2,0.1l-0.2,0.1l-0.7,0.2c-1,0.3-2,0.6-2.9,0.8c-3.9,1-8,1.8-12,2.4
	c-8.1,1.1-16.2,1.5-24.4,1.6c-8.2,0-16.3-0.5-24.4-1.8c-8-1.3-16-3.5-23.3-7c-7.4-3.4-14.1-8.1-19.6-13.9c-1.3-1.5-2.6-3.1-3.9-4.6
	c-1.1-1.6-2.2-3.2-3.3-4.7c-2.2-3.4-3.9-6.8-5.4-10.4c-3-7.1-5.2-14.2-7.5-21.2c-2.2-7-4.3-13.9-5.8-20.7
	c-1.6-6.9-2.4-13.6-2.8-20.2c-0.5-6.6-0.7-12.9-1-18.9c-0.6-12.1-1.1-23.2-1.6-33.1c-0.5-9.9-0.8-18.4-1.2-25.5
	C6374-810.1,6373.7-818.1,6373.7-818.1L6373.7-818.1z"/>
<path d="M6374.1-802.7c0,0,0.8,0,2.4,0.1s3.8,0.2,6.7,0.3c2.9,0.2,6.4,0.3,10.5,0.5c4,0.2,8.6,0.3,13.6,0.5s10.4,0.3,16.1,0.5
	s11.7,0.2,17.9,0.4c6.2,0.1,12.6,0.1,19.2,0.2c6.5,0.1,13.2,0,19.8,0.1c6.6,0,13.3,0,19.8-0.1s13-0.1,19.2-0.2
	c12.5-0.1,24.1-0.2,34-0.3c10-0.1,18.3-0.1,24.1-0.1h9.1c0,0-0.8,0.1-2.4,0.2c-1.6,0.1-3.8,0.2-6.7,0.4c-5.8,0.3-14.1,0.8-24.1,1.3
	s-21.6,0.9-34,1.3c-6.2,0.1-12.7,0.4-19.2,0.4c-6.5,0.1-13.2,0.1-19.8,0.2c-6.6,0-13.3,0-19.8-0.2c-6.5-0.1-13-0.3-19.2-0.4
	c-6.2-0.2-12.3-0.4-18-0.8c-2.9-0.2-5.6-0.3-8.3-0.5c-2.7-0.2-5.3-0.4-7.8-0.5c-2.5-0.2-4.9-0.3-7.1-0.5c-2.3-0.2-4.4-0.4-6.4-0.6
	c-4-0.4-7.6-0.7-10.4-1c-2.9-0.3-5.2-0.6-6.7-0.7C6374.9-802.6,6374.1-802.7,6374.1-802.7L6374.1-802.7z"/>
<path class="st2" d="M298.5,325.6c-3.8-18.8-10.5-36.8-17-54.7c-3.3-9.1-6.6-18.2-9.4-27.4c-2.8-9.2-3.8-19.1-4.9-28.6
	c-2.4-20.5-4.1-41.1-5.2-61.8c-1.5-27.6-4.5-56.6,1.7-83.8c0.2-0.7,0.4-1.4,0.5-2.1c-3.5,0.2-64.3-1.6-64.2-0.5
	c0.9,10,1.7,43.5,2.3,50.4c0.6,6.7,2.5,56.7-0.3,75.1s-6.5,36.7-11.3,54.7c-5.5,20.8-15.6,39.1-23.2,59.2
	c-3.9,10.3-6.8,20-10.2,30.4c-4.4,13.6-6.3,28.4-4.4,42.7c1.5,10.8,5.3,21.3,11.7,30c5.2,7,12.1,12.7,19.9,16.6
	c4,2,21.2,7.2,25.5,7.6c6,0.6,24.5,2.5,27.7,2.8c4.7,0.5,37.7-8.8,43.7-13.2c6.3-4.6,17.5-22.1,18.5-24.4c3.8-9.1,4.3-20.7,4.3-30.5
	C304.3,353.8,301.4,339.6,298.5,325.6L298.5,325.6z"/>
<path class="st3" d="M196.6,7.1c-5.5,1.7-9.8,4.8-11,10.9c-1.3,6.4,0.7,13,2.5,19.3c9.4,33.8,10.6,69.2,10.7,104.2
	c0.1,22.3-0.3,44.6-4.2,66.6c-1.9,10.6-4.5,21-8.3,31.1c-3.8,10-29.1,72.8-35,94.8c-7.9,29.3-7,64.5,15.5,85.3
	c13.2,12.2,31.5,17.4,49.4,20c25.7,3.7,54.4,2.2,74-14.5c15.9-13.6,22.9-35.1,23.1-55.8c0.3-42.2-15.9-83.3-30.2-122
	c-5-13.6-6.8-28.1-8.5-42.5c-6.8-58.4-11.7-116.4,9.2-171.5c1.4-3.7,2.9-7.5,2.9-11.5c-0.2-9.6-4.4-16.1-20.9-16.3
	C249.1,4.1,204.6,4.6,196.6,7.1L196.6,7.1z"/>
<path d="M218.2,104.9c0,0,0.3,2.4,0.9,6.6c0.3,2.1,0.6,4.7,0.9,7.6s0.7,6.3,1,9.9s0.7,7.6,0.9,11.7c0.1,2.1,0.3,4.2,0.4,6.4
	c0.1,2.2,0.2,4.4,0.3,6.7c0.1,2.3,0.1,4.6,0.2,6.9c0,2.3,0.1,4.7,0.1,7.1v7.2c0,2.4-0.1,4.9-0.1,7.3s-0.2,4.9-0.3,7.3
	c-0.1,2.4-0.2,4.8-0.4,7.2c-0.2,2.4-0.3,4.8-0.5,7.1l-0.6,6.9c-0.4,4.5-0.9,8.9-1.5,13.1c-0.6,4.1-1.1,8.1-1.6,11.7
	c-0.3,1.8-0.5,3.5-0.8,5.2c-0.3,1.6-0.6,3.2-0.8,4.6c-0.5,2.9-1,5.5-1.4,7.5c-0.8,4.2-1.3,6.6-1.3,6.6s0.3-2.4,0.9-6.6
	c0.3-2.1,0.6-4.7,1-7.6s0.8-6.2,1.2-9.9c0.5-3.6,0.9-7.5,1.3-11.7c0.2-2.1,0.4-4.2,0.6-6.4c0.2-2.2,0.4-4.4,0.6-6.7
	c0.2-2.3,0.4-4.6,0.5-6.9s0.3-4.7,0.4-7.1c0.2-2.4,0.2-4.8,0.3-7.2c0.1-2.4,0.2-4.8,0.2-7.3c0.1-2.4,0.1-4.8,0.2-7.3
	c0-2.4,0-4.8,0.1-7.2v-7.1c0-2.3,0-4.7-0.1-6.9c-0.1-2.3-0.1-4.5-0.2-6.7s-0.2-4.3-0.2-6.4c-0.1-4.2-0.4-8.1-0.6-11.7
	c-0.1-1.8-0.2-3.6-0.3-5.2c-0.1-1.7-0.2-3.2-0.3-4.7c-0.2-3-0.4-5.5-0.6-7.6C218.4,107.3,218.2,104.9,218.2,104.9L218.2,104.9z
	 M249.9,106.1c0,0-0.1,2.3-0.2,6.3c-0.1,2-0.1,4.4-0.2,7.2s-0.1,5.9-0.1,9.3c-0.1,3.4,0,7.1,0,11s0.1,8,0.2,12.3s0.3,8.6,0.5,13.1
	s0.5,9,0.8,13.5s0.6,9.1,1.1,13.5c0.4,4.5,0.8,8.8,1.3,13.1c0.2,2.1,0.5,4.2,0.7,6.2s0.5,4,0.7,6c0.5,3.9,1,7.5,1.5,10.9
	s1,6.5,1.4,9.2s0.8,5.1,1.2,7.1c0.7,3.9,1,6.2,1,6.2s-0.5-2.2-1.4-6.1c-0.5-1.9-1-4.3-1.5-7c-0.3-1.4-0.6-2.8-0.9-4.3
	s-0.6-3.1-0.9-4.8c-0.3-1.7-0.6-3.4-0.9-5.2c-0.3-1.8-0.6-3.7-0.9-5.6c-0.6-3.9-1.2-8-1.7-12.2s-1.1-8.6-1.5-13.1
	c-0.5-4.5-0.8-9-1.1-13.5c-0.2-4.5-0.5-9.1-0.7-13.6s-0.2-8.9-0.3-13.2c0-4.3,0-8.4,0.1-12.3c0-2,0.1-3.9,0.1-5.7
	c0.1-1.8,0.2-3.6,0.2-5.3c0.1-1.7,0.2-3.3,0.2-4.9c0.1-1.6,0.2-3,0.3-4.4c0.2-2.8,0.4-5.2,0.5-7.2
	C249.7,108.4,249.9,106.1,249.9,106.1L249.9,106.1z"/>
<path d="M196.2,14.5c0,0-0.1,0.2-0.4,0.6s-0.6,0.9-1,1.8c-0.8,1.6-1.6,4.3-1.6,7.8c0,1.7,0.3,3.7,0.8,5.8c0.5,2.1,1.2,4.3,2,6.8
	c1.6,4.8,3.3,10.4,4.6,16.9c0.7,3.2,1.2,6.6,1.6,10.2s0.6,7.4,0.8,11.3c0.4,7.9,0.7,16.4,1.1,25.5c0.2,4.5,0.4,9.3,0.7,14.1
	c0.4,4.8,0.6,9.8,0.8,14.9c0.4,10.2,0.6,21,0.6,32.2c0,5.6-0.1,11.4-0.4,17.2c-0.1,2.9-0.3,5.9-0.6,8.9s-0.8,5.9-1.3,9
	c-1.9,12-4.3,24.3-7.2,36.8c-1.5,6.3-3,12.6-5,19c-2,6.3-4.4,12.6-7,18.9c-5.2,12.5-11.1,24.9-15.8,38.1c-2.3,6.6-4.4,13.3-6.6,20.1
	c-1.1,3.4-2.2,6.8-3.2,10.2c-0.9,3.4-1.7,6.9-2.3,10.4c-1.2,7-1.6,14.2-1.1,21.4s1.9,14.3,4.5,21s6.3,13,11.2,18.3
	c2.5,2.7,5.2,5.1,8.1,7.2c1.5,1.1,3,2.1,4.6,3s3.2,1.8,4.8,2.4c3.4,1.3,6.9,2.4,10.5,3.5c3.5,1.1,7.1,2.1,10.7,2.9l1.3,0.2
	c0.4,0.1,0.8,0.1,1.3,0.2l2.8,0.3l5.6,0.6l11.2,1.1l5.6,0.6l1.4,0.1l0.6,0.1h0.7c0.5,0,0.9-0.1,1.3-0.1c0.4-0.1,0.8-0.1,1.3-0.2
	c3.6-0.6,7.2-1.5,10.8-2.4c7.2-1.9,14.3-4,21.2-6.6c1.7-0.6,3.4-1.3,5-2.1l1.2-0.6l1-0.6c0.1,0,0.2-0.1,0.2-0.1l0.3-0.2l0.5-0.4
	c0.4-0.3,0.7-0.6,1-0.9c1.2-1.2,2.5-2.6,3.6-4c1.2-1.4,2.3-2.8,3.4-4.3c2.2-2.9,4.3-6,6.3-9c1-1.5,2-3.1,2.8-4.6l0.1-0.2
	c0-0.1,0.1-0.1,0.1-0.3l0.3-0.6c0.2-0.4,0.4-0.9,0.5-1.3c0.3-0.8,0.6-1.7,0.8-2.5c1.9-6.9,2.4-14.2,2.6-21.4
	c0.1-3.6,0.1-7.2-0.1-10.8s-0.6-7.2-1-10.7c-0.9-7.1-2.3-14.1-3.7-21.1c-0.7-3.5-1.4-7-2.2-10.4c-0.8-3.4-1.7-6.8-2.7-10.2
	c-3.9-13.4-8.7-26.3-13.2-39.1c-2.3-6.4-4.5-12.7-6.6-19c-1-3.1-2-6.3-2.9-9.4c-0.9-3.2-1.5-6.4-2-9.6c-3.6-25.6-5.5-49.8-6.8-72.3
	c-0.6-11.2-1.3-21.9-1.7-32.2c-0.4-10.2-0.6-20-0.2-29.1s1.4-17.7,3-25.4c1.5-7.8,3.8-14.7,6.2-20.8c2.3-6.1,4.8-11.4,6.9-16.1
	c0.9-2.4,1.6-4.6,2-6.7s0.9-4,1-5.8c0.2-3.5-0.5-6.2-1.3-7.8c-0.4-0.8-0.8-1.4-1-1.8c-0.3-0.4-0.4-0.6-0.4-0.6s0.1,0.2,0.4,0.5
	c0.3,0.4,0.7,0.9,1.1,1.8c0.8,1.6,1.6,4.3,1.4,7.8c-0.1,1.8-0.5,3.7-0.9,5.8c-0.4,2.1-1,4.4-2,6.8c-2,4.7-4.4,10-6.7,16.1
	c-2.2,6.1-4.4,13-5.9,20.8c-1.5,7.7-2.4,16.2-2.7,25.3c-0.7,18.2,1.3,38.7,2.5,61.1c1.4,22.4,3.5,46.6,7.3,72
	c0.5,3.1,1.2,6.3,2.1,9.4s1.9,6.2,2.9,9.3c2.1,6.2,4.3,12.5,6.7,18.8c4.6,12.7,9.5,25.6,13.4,39.2c1,3.4,1.9,6.8,2.7,10.3
	c0.8,3.5,1.6,7,2.3,10.4c1.4,7,2.8,14.1,3.8,21.3c0.5,3.6,0.9,7.2,1.1,10.9s0.2,7.4,0.2,11c-0.2,7.3-0.6,14.8-2.7,22.1
	c-0.2,0.9-0.5,1.8-0.9,2.7c-0.2,0.5-0.3,0.9-0.5,1.3l-0.3,0.6c0,0.1-0.1,0.2-0.2,0.4l-0.2,0.4c-0.9,1.8-1.9,3.3-2.9,4.9
	c-2,3.1-4.1,6.2-6.4,9.2c-1.1,1.5-2.3,3-3.5,4.4c-1.2,1.5-2.4,2.9-3.9,4.3c-0.4,0.3-0.7,0.7-1.1,1l-0.5,0.4l-0.3,0.2
	c-0.2,0.2-0.2,0.2-0.4,0.3l-1.3,0.8l-1.3,0.6c-1.7,0.8-3.5,1.5-5.3,2.2c-7.1,2.6-14.2,4.8-21.5,6.7c-3.6,0.9-7.3,1.9-11.1,2.5
	c-0.4,0.1-1,0.2-1.5,0.2c-0.5,0.1-1.1,0.1-1.5,0.1h-1.5l-1.4-0.1l-5.7-0.5l-11.2-1.1l-5.6-0.6l-2.8-0.3c-0.4,0-1-0.1-1.5-0.2
	l-1.4-0.3c-3.7-0.8-7.3-1.9-10.9-2.9c-3.6-1.1-7.1-2.2-10.7-3.6c-1.9-0.7-3.5-1.7-5.2-2.6c-1.7-1-3.2-2-4.8-3.1
	c-3.1-2.2-6-4.8-8.5-7.6c-0.7-0.7-1.3-1.4-1.9-2.1l-0.9-1.1l-0.8-1.1c-1.1-1.6-2.2-3.1-3.2-4.7c-2-3.2-3.6-6.7-4.9-10.2
	c-2.7-7-4.1-14.5-4.6-21.9s0-14.8,1.2-22c0.6-3.6,1.4-7.2,2.4-10.7s2.1-6.9,3.2-10.3c2.2-6.8,4.3-13.5,6.7-20.2
	c4.7-13.3,10.7-25.8,16-38.2c2.6-6.2,5.1-12.4,7.1-18.6c2-6.2,3.5-12.6,5.1-18.8c3-12.5,5.5-24.7,7.5-36.6c0.5-3,1-6,1.3-8.9
	s0.5-5.8,0.7-8.8c0.3-5.8,0.4-11.5,0.5-17.1c0.1-11.2-0.1-22-0.4-32.2c-0.2-5.1-0.3-10.1-0.6-14.9c-0.3-4.9-0.4-9.6-0.6-14.1
	c-0.3-9.1-0.5-17.6-0.8-25.5c-0.2-3.9-0.3-7.7-0.6-11.3c-0.3-3.6-0.9-7-1.5-10.2c-1.3-6.4-2.9-12-4.4-16.9c-0.8-2.4-1.5-4.7-1.9-6.8
	c-0.5-2.1-0.7-4.1-0.7-5.8c0-3.5,0.8-6.2,1.7-7.8c0.4-0.8,0.8-1.4,1.1-1.8C196,14.7,196.2,14.5,196.2,14.5L196.2,14.5z"/>
<path d="M202.2,65.8c0,0,4-0.3,10-0.5c3-0.1,6.5-0.2,10.2-0.2c1.9,0,3.8-0.1,5.8,0h6c2,0,4,0.1,6,0.1s3.9,0.1,5.8,0.1
	c3.7,0.1,7.2,0.2,10.2,0.4c3,0.1,5.5,0.3,7.2,0.4s2.7,0,2.7,0s-1,0.2-2.7,0.4c-1.8,0.2-4.3,0.3-7.3,0.4s-6.5,0.2-10.2,0.2
	c-1.9,0-3.8,0.1-5.8,0h-6c-2,0-4-0.1-6-0.1s-3.9-0.1-5.8-0.1c-3.7-0.1-7.2-0.2-10.2-0.4C206.2,66.1,202.2,65.8,202.2,65.8
	L202.2,65.8z"/>
</svg>
