<?xml version="1.0" encoding="utf-8"?>
<!-- Generator: Adobe Illustrator 19.2.0, SVG Export Plug-In . SVG Version: 6.00 Build 0)  -->
<svg version="1.1" id="Layer_1" xmlns="http://www.w3.org/2000/svg" xmlns:xlink="http://www.w3.org/1999/xlink" x="0px" y="0px"
	 viewBox="0 0 460 273.4" style="enable-background:new 0 0 460 273.4;" xml:space="preserve">
<style type="text/css">
	.st0{fill:none;stroke:#000000;stroke-width:5;stroke-miterlimit:10;}
	.st1{opacity:0.9;fill:url(#SVGID_1_);enable-background:new    ;}
	.st2{fill:url(#SVGID_2_);}
	.st3{fill:none;stroke:#000000;stroke-width:2;stroke-miterlimit:10;}
</style>
<path class="st0" d="M6588.6-997.2c0.3,38.5,0.2,82.4-5.7,120.5c-2.3,14.7-3.7,31.7-10.6,44.9c-9.4,17.9-18.6,35.9-34,49.5
	c-5.5,4.9-11.5,9.2-17.9,12.8c-4.2,2.3-15.3,5.1-15.9,10.8c-0.4,3.6,3.8,5.7,6.9,7.6c6.9,4.3,10.9,12.3,11.6,20.4
	c1.5,15.4-5.6,30.7-18.9,38.8c-0.8,0.5-1.6,1-1.9,1.8c-0.7,2.1,2.1,3.4,4.2,3.8c12.1,2.1,24,5,35.7,8.7c7.7,2.4,24.3,10.6,12,18.5
	c-7.7,4.9-17,6.2-26,7.3c-24.7,3.1-49.7,6.2-74.5,3.9c-5.6-0.5-11.2-1.4-16.8-2.2l-22.5-3.3c-5.3-0.8-11.8-2.7-12.7-7.9
	c-1.7-10.2,16.6-15.1,23.6-17.2c4.9-1.5,36.5-4.6,35.6-9.3c-0.5-2.4-2.8-3.9-4.8-5.4c-8.9-6.4-15-16.4-16.6-27.2s1.3-22.2,7.9-30.9
	c2.2-2.9,4.9-6,4.4-9.6c-0.2-1.5-1-2.9-2-4.1c-5.1-6.7-15.9-9.5-22.8-14.7c-7.9-6-15.2-12.8-21.6-20.4
	c-12.5-14.5-22.1-31.5-27.6-49.9c-5.2-17.2-6.9-35.3-8.2-53.2c-2.3-31-3.6-62-3.8-93.1c20.2-2.4,42-1.8,62.4-1.4
	C6480.9-996.6,6588.6-999.3,6588.6-997.2L6588.6-997.2z"/>
<path d="M6462-682.3v1.9c0,0.6,0.1,1.3,0.6,1.9c0.4,0.6,1.2,0.8,2.2,0.8c2.1-0.1,4.5-0.2,7.1-0.2c1.3,0,2.7-0.1,4-0.1
	c1.4-0.1,2.8-0.1,4.1-0.2c1.4-0.1,2.8-0.1,4.1-0.2c1.4-0.1,2.7-0.1,4-0.2c2.6-0.1,5-0.2,7.1-0.3c2-0.1,3.7-0.6,4.6-1.3
	c0.4-0.4,0.7-0.8,0.8-1.1c0.1-0.3,0.2-0.5,0.2-0.5v0.5c-0.1,0.3-0.2,0.8-0.6,1.3s-1.1,1-1.9,1.4c-0.8,0.4-1.8,0.7-2.8,0.8
	c-2.1,0.4-4.5,0.7-7.1,0.9c-1.3,0.1-2.7,0.3-4,0.4c-1.4,0.1-2.8,0.2-4.2,0.2c-1.4,0-2.8,0.1-4.2,0.1h-4.1c-2.6-0.1-5.1-0.2-7.2-0.4
	c-0.5-0.1-1.1-0.1-1.6-0.4c-0.5-0.3-0.9-0.7-1.1-1.1c-0.4-0.9-0.4-1.7-0.3-2.3c0.1-0.6,0.2-1.1,0.3-1.4
	C6461.9-682.1,6462-682.3,6462-682.3L6462-682.3z M6461.6-766.9c0,0,0.6,0.2,1.6,0.5c0.5,0.2,1.2,0.3,1.9,0.5s1.6,0.4,2.4,0.5
	c0.9,0.2,1.9,0.3,2.9,0.5c1,0.1,2.1,0.2,3.3,0.3c1.1,0.1,2.3,0.1,3.5,0.2h3.6c1.2,0,2.5,0,3.7-0.1c1.2,0,2.4-0.1,3.6-0.1
	c2.3-0.1,4.5-0.1,6.3-0.3s3.2-0.6,4.1-1.2c0.4-0.3,0.8-0.6,1-0.8l0.3-0.3c0,0-0.1,0.1-0.2,0.4c-0.2,0.3-0.4,0.6-0.8,1
	c-0.8,0.8-2.3,1.6-4.2,2c-0.9,0.2-2,0.4-3,0.5c-1.1,0.1-2.2,0.3-3.3,0.4l-3.6,0.3c-1.2,0.1-2.5,0.1-3.7,0.2c-1.3,0-2.5,0-3.7-0.1
	c-0.6,0-1.2-0.1-1.8-0.1c-0.6-0.1-1.2-0.1-1.8-0.2c-1.2-0.1-2.3-0.4-3.4-0.6c-0.5-0.1-1-0.3-1.5-0.4c-0.5-0.2-1-0.3-1.4-0.4
	c-1.8-0.6-3.2-1.3-4.2-1.8C6462.2-766.6,6461.6-766.9,6461.6-766.9L6461.6-766.9z M6411.5-664.8l0.3,0.3c0.2,0.2,0.5,0.4,1,0.6
	c0.9,0.5,2.3,1,4.2,1.4c1.9,0.4,4.2,0.7,6.8,1.1c2.6,0.4,5.6,0.7,8.9,1.1c3.3,0.3,6.8,0.7,10.6,1c3.7,0.3,7.7,0.5,11.8,0.7
	c8.2,0.3,17,0.5,25.7,0.6c4.4,0.1,8.8,0.1,13.1,0.2c4.3,0,8.5,0.1,12.6,0c4.1-0.1,8-0.4,11.7-0.8c3.7-0.5,7.2-1.1,10.4-1.7
	c6.4-1.4,11.6-3,15.2-4.3c1.8-0.7,3.2-1.2,4.2-1.6l1.5-0.6c0,0-0.5,0.2-1.4,0.7c-0.9,0.4-2.3,1.1-4.1,1.8c-3.5,1.5-8.7,3.5-15.1,5.1
	c-6.4,1.6-14.1,2.9-22.3,3.2c-4.1,0.2-8.4,0.2-12.7,0.2c-4.3,0-8.7-0.1-13.1-0.1c-4.4-0.1-8.8-0.2-13.1-0.3
	c-4.3-0.1-8.6-0.4-12.7-0.6c-4.1-0.3-8.1-0.6-11.8-1c-3.8-0.4-7.3-0.8-10.6-1.3c-1.6-0.3-3.2-0.5-4.7-0.7c-1.5-0.3-2.9-0.5-4.2-0.8
	c-2.6-0.5-4.9-1-6.8-1.5s-3.3-1.1-4.1-1.7c-0.4-0.3-0.7-0.5-0.9-0.7C6411.6-664.7,6411.5-664.8,6411.5-664.8L6411.5-664.8z"/>
<linearGradient id="SVGID_1_" gradientUnits="userSpaceOnUse" x1="6378.7998" y1="-1382.3752" x2="6584.7002" y2="-1382.3752" gradientTransform="matrix(1 0 0 1 0 507)">
	<stop  offset="1.800000e-02" style="stop-color:#801FE3"/>
	<stop  offset="1" style="stop-color:#B7A7FF"/>
</linearGradient>
<path class="st1" d="M6378.8-969c1.4,24.4,2.7,48.8,4.1,73.2c0.4,7.9,0.9,15.9,2.2,23.7c1.8,11.1,5.4,21.8,8.9,32.5
	c3,9.1,6,18.2,11.1,26.3c17.8,28.1,51.5,32.7,81.9,31.3c10.6-0.5,21.3-1.5,31.5-4.7c66.9-21.3,65.2-117,66.1-172.7
	c0-2.6,0.1-5.1,0.1-7.7C6516-964.9,6447.2-963.1,6378.8-969L6378.8-969z"/>
<path d="M6373.7-988.7c0,0,0.6,8.1,1.5,22.2c0.5,7.1,1,15.6,1.7,25.5c0.6,9.8,1.4,20.9,2.1,33.1c0.4,6.1,0.7,12.4,1.3,18.9
	c0.5,6.5,1.4,13.2,3,19.9s3.7,13.5,6,20.4c2.4,6.9,4.5,14,7.5,20.9c0.8,1.7,1.5,3.4,2.4,5.1c0.9,1.6,1.8,3.3,2.8,4.8
	c1.1,1.6,2.2,3.1,3.4,4.7c1.2,1.4,2.5,2.8,3.7,4.3c5.3,5.5,11.7,10,18.8,13.2c7.1,3.3,14.8,5.4,22.6,6.6c7.9,1.3,15.9,1.7,23.9,1.7
	c8-0.1,16.1-0.4,24-1.5c3.9-0.5,7.9-1.2,11.7-2.2c1-0.3,1.9-0.5,2.8-0.8l0.7-0.2h0.1l0.2-0.1l0.4-0.1l1.4-0.5l2.8-1
	c0.5-0.2,0.9-0.3,1.4-0.5l1.3-0.6c7.1-3.1,13.7-7.4,19.4-12.5c5.7-5.1,10.5-11.1,14.4-17.5c4-6.3,7.1-13.1,9.7-19.8
	c2.6-6.8,4.6-13.6,6.3-20.3c3.2-13.5,5-26.5,6.2-38.5c1.1-12.1,1.7-23.2,2-33c0.3-9.9,0.5-18.4,0.7-25.5c0.2-14.2,0.4-22.2,0.4-22.2
	s0,2,0.1,5.8c0,3.8,0.1,9.4,0.2,16.4c0,7.1,0,15.7-0.2,25.5c-0.1,9.9-0.5,21-1.5,33.1c-1,12.1-2.6,25.2-5.7,38.9
	c-1.6,6.8-3.6,13.7-6.1,20.6c-2.5,6.9-5.7,13.8-9.8,20.3c-4,6.5-9,12.7-14.8,18.1c-5.9,5.4-12.7,9.8-20.2,13.1l-1.4,0.6
	c-0.5,0.2-0.9,0.4-1.4,0.5l-2.8,1l-1.4,0.5l-0.4,0.1l-0.2,0.1l-0.2,0.1l-0.7,0.2c-1,0.3-2,0.6-2.9,0.8c-3.9,1-8,1.8-12,2.4
	c-8.1,1.1-16.2,1.5-24.4,1.6c-8.2,0-16.3-0.5-24.4-1.8c-8-1.3-16-3.5-23.3-7c-7.4-3.4-14.1-8.1-19.6-13.9c-1.3-1.5-2.6-3.1-3.9-4.6
	c-1.1-1.6-2.2-3.2-3.3-4.7c-2.2-3.4-3.9-6.8-5.4-10.4c-3-7.1-5.2-14.2-7.5-21.2c-2.2-7-4.3-13.9-5.8-20.7
	c-1.6-6.9-2.4-13.6-2.8-20.2c-0.5-6.6-0.7-12.9-1-18.9c-0.6-12.1-1.1-23.2-1.6-33.1s-0.8-18.4-1.2-25.5
	C6374-980.7,6373.7-988.7,6373.7-988.7L6373.7-988.7z"/>
<path d="M6374.1-973.3c0,0,0.8,0,2.4,0.1s3.8,0.2,6.7,0.3c2.9,0.2,6.4,0.3,10.5,0.5c4,0.2,8.6,0.3,13.6,0.5s10.4,0.3,16.1,0.5
	s11.7,0.2,17.9,0.4c6.2,0.1,12.6,0.1,19.2,0.2c6.5,0.1,13.2,0,19.8,0.1c6.6,0,13.3,0,19.8-0.1s13-0.1,19.2-0.2
	c12.5-0.1,24.1-0.2,34-0.3c10-0.1,18.3-0.1,24.1-0.1h9.1c0,0-0.8,0.1-2.4,0.2c-1.6,0.1-3.8,0.2-6.7,0.4c-5.8,0.3-14.1,0.8-24.1,1.3
	s-21.6,0.9-34,1.3c-6.2,0.1-12.7,0.4-19.2,0.4c-6.5,0.1-13.2,0.1-19.8,0.2c-6.6,0-13.3,0-19.8-0.2c-6.5-0.1-13-0.3-19.2-0.4
	c-6.2-0.2-12.3-0.4-18-0.8c-2.9-0.2-5.6-0.3-8.3-0.5c-2.7-0.2-5.3-0.4-7.8-0.5c-2.5-0.2-4.9-0.3-7.1-0.5c-2.3-0.2-4.4-0.4-6.4-0.6
	c-4-0.4-7.6-0.7-10.4-1c-2.9-0.3-5.2-0.6-6.7-0.7C6374.9-973.2,6374.1-973.3,6374.1-973.3L6374.1-973.3z"/>
<linearGradient id="SVGID_2_" gradientUnits="userSpaceOnUse" x1="234.65" y1="-278.8799" x2="234.65" y2="-368.6865" gradientTransform="matrix(1 0 0 1 0 507)">
	<stop  offset="0" style="stop-color:#550E00"/>
	<stop  offset="1" style="stop-color:#CD4126"/>
</linearGradient>
<path class="st2" d="M354.6,138.3l-20.9,0.6l-79.9,2.1c-46.3,1.2-92.8,2.4-138.9-1.9h-1.2c0,17.5,0.5,34.9,1.2,52.4
	c0.4,10.2,4.5,22.1,13,27.3c8.2,5,53.8,7,66.9,7.7c21.8,1.2,43.6-0.1,65.4,0.3c16.4,0.3,32.8,1.1,49.2,1.3
	c13.4,0.1,26.8-0.8,35.8-12.6c7.4-9.7,9.7-52.8,10.4-76.7C355.2,138.7,354.9,138.5,354.6,138.3L354.6,138.3z"/>
<path class="st0" d="M352.5,7.5c1,0.1,1.3,1.4,1.4,2.5c1.9,40.1,7.6,79.4,7.2,119.5c-0.2,20.6-2.7,41.1-4.3,61.6
	c-2.5,32.7-10.1,53.5-11.8,57.3c-2.7,6-8.6,11.5-13.6,15.8c-2,1.7-9.6,4.8-24.9,5.8c-17.7,1.2-139.2-0.9-154.1-1.1
	c-16.6-0.1-32.6-10.6-39.3-25.8c-3.9-8.8-4.8-18.7-6.7-28.1c-2.6-13-4.5-26.2-5.5-39.4c-4.1-56-1.2-112.5,8.4-167.7
	c0.1-0.6,0.6-1,1.2-1C162.9,5.8,351.5,7.3,352.5,7.5L352.5,7.5z"/>
<path d="M116.1,11.9c0,0-0.3,2.4-0.7,7c-0.2,2.3-0.5,5.1-0.8,8.4s-0.7,7.1-1,11.4c-1.4,17.1-2.8,41.5-3.2,70.8
	c-0.2,14.7-0.1,30.6,0.3,47.4c0.2,8.4,0.5,17,0.9,25.8c0.1,2.2,0.1,4.4,0.4,6.6c0.2,2.1,0.6,4.3,1.2,6.4c1.1,4.2,2.8,8.4,5.5,11.8
	c1.3,1.7,2.9,3.3,4.6,4.5l0.7,0.5l0.2,0.1l0.1,0.1l0.4,0.2l0.4,0.2l0.3,0.1c0.2,0.1,0.4,0.2,0.7,0.3c1,0.4,2.1,0.7,3.2,0.9
	c4.4,1,9.1,1.7,13.7,2.2c9.3,1.1,18.9,1.8,28.5,2.4c4.8,0.3,9.6,0.6,14.5,0.8c4.9,0.3,9.7,0.5,14.5,0.6c9.7,0.2,19.5,0.1,29.3-0.1
	c9.8-0.1,19.6-0.2,29.4,0.1s19.5,0.6,29.1,0.9c4.8,0.1,9.6,0.3,14.4,0.4c4.8,0.1,9.5,0.1,14.1-0.4s9.1-1.5,13.1-3.4
	c1-0.4,2-1.1,2.9-1.6c0.9-0.7,1.8-1.2,2.7-2c0.4-0.4,0.9-0.7,1.3-1.1l1.2-1.2c0.4-0.4,0.7-0.8,1.1-1.2l1-1.2c0.3-0.5,0.7-1,0.9-1.4
	l0.7-1.4c0.4-1,0.8-2,1.2-3.1c0.7-2.1,1.2-4.3,1.7-6.4c0.9-4.3,1.6-8.7,2.2-13.1c1.2-8.7,1.9-17.3,2.5-25.7s1-16.5,1.2-24.4
	c0.3-7.9,0.4-15.5,0.4-22.9c0-14.7-0.3-28.1-0.9-40c-0.6-11.9-1.4-22.3-2.2-30.8c-0.8-8.5-1.6-15.2-2.2-19.8c-0.6-4.5-0.9-7-0.9-7
	s0.4,2.4,1.1,7c0.7,4.5,1.6,11.2,2.6,19.7s2,18.9,2.7,30.8c0.4,6,0.7,12.3,1,19c0.2,6.7,0.4,13.7,0.5,21.1c0.1,7.3,0,15-0.2,22.9
	s-0.5,16.1-1,24.5s-1.1,17.1-2.3,25.9c-0.6,4.4-1.2,8.8-2.2,13.3c-0.5,2.2-1,4.5-1.8,6.7c-0.3,1.1-0.8,2.2-1.2,3.3l-0.9,1.7
	l-0.9,1.5c0,0-0.2,0.3-0.2,0.2l-0.1,0.2l-0.3,0.3l-0.6,0.7c-0.4,0.5-0.8,0.9-1.2,1.3l-1.3,1.3c-0.4,0.4-0.9,0.8-1.4,1.2
	c-0.9,0.8-1.9,1.5-2.9,2.2c-1.1,0.6-2.1,1.3-3.2,1.8c-4.4,2.2-9.2,3.2-14,3.7s-9.6,0.5-14.4,0.4l-14.4-0.3
	c-9.6-0.3-19.3-0.6-29.1-0.8c-9.7-0.3-19.5-0.1-29.3,0s-19.6,0.2-29.4,0c-4.9-0.1-9.8-0.4-14.6-0.6c-4.8-0.3-9.7-0.5-14.5-0.8
	c-9.6-0.6-19.2-1.4-28.6-2.5c-4.7-0.6-9.4-1.2-14-2.3c-1.2-0.3-2.3-0.6-3.5-1c-0.3-0.1-0.6-0.2-0.9-0.4l-0.5-0.2l-0.4-0.2l-0.4-0.2
	c0,0-0.3-0.1-0.3-0.2l-0.2-0.1l-0.8-0.5c-2-1.4-3.7-3.2-5.2-5.1c-5.7-7.8-7.5-17.5-7.4-26.3c-0.3-8.8-0.5-17.5-0.7-25.9
	c-0.3-16.8-0.2-32.8,0.2-47.4c0.3-14.7,1-28.1,1.8-40c0.8-11.9,1.7-22.3,2.5-30.8c0.4-4.3,0.8-8.1,1.2-11.4s0.7-6.1,1-8.4
	C115.8,14.3,116.1,11.9,116.1,11.9L116.1,11.9z"/>
<path d="M110.5,134c0,0,0.9,0.1,2.7,0.2c1.8,0.1,4.3,0.4,7.6,0.6c3.3,0.2,7.2,0.5,11.8,0.7s9.7,0.4,15.3,0.6
	c5.6,0.2,11.7,0.3,18.1,0.3h20.3c14-0.1,29-0.5,44-1s30-1,44-1.5c7-0.1,13.8-0.3,20.3-0.4c6.4-0.1,12.5-0.2,18.2-0.2
	c5.6-0.1,10.8,0,15.3-0.1h11.8c6.6,0,10.3,0.1,10.3,0.1v0.3c0,0-3.7,0.3-10.3,0.6c-3.3,0.2-7.3,0.4-11.8,0.6
	c-4.6,0.2-9.7,0.5-15.3,0.7c-5.6,0.3-11.7,0.5-18.1,0.7c-6.4,0.3-13.2,0.4-20.3,0.6c-14.1,0.3-29,0.6-44,0.8s-30,0.4-44.1,0.3
	c-7,0-13.8-0.1-20.3-0.3c-6.4-0.2-12.5-0.4-18.2-0.7c-5.6-0.3-10.8-0.6-15.3-0.9c-4.6-0.3-8.5-0.6-11.8-0.9
	c-3.3-0.3-5.8-0.5-7.6-0.7c-1.7-0.2-2.7-0.3-2.7-0.3L110.5,134L110.5,134z"/>
<path class="st3" d="M313.9,206.2c5.6-7.3,5.3-26.3,3.7-34.9c-2.9-14.8-5.8-29.5-8.7-44.3c-0.6-3.2-1.3-6.5-3.4-9
	c-3.7-4.4-10.3-4.5-16-4.1c-12.8,0.8-25.5,2.1-38.2,3.9c-11.3,1.6-20.1,7.7-29.7,14c-3,2-6.2,4.2-7.4,7.6c-0.9,2.4-0.6,5.1-0.3,7.7
	c1.6,14,3.2,28.1,6.7,41.8c2,7.9,5,16.1,11.3,21.2c8.1,6.6,19.6,6.4,30.1,5.9c13.7-0.6,27.5-1.2,41.2-1.9c2.7-0.1,5.7-0.3,7.7-2.1
	C312.5,210.6,313.3,208.3,313.9,206.2L313.9,206.2z"/>
<path d="M245.8,122.2c0,0,0.2,0.3,0.6,1c0.4,0.6,0.9,1.5,1.5,2.7c0.3,0.6,0.7,1.3,1,2c0.4,0.7,0.7,1.5,1.1,2.4
	c0.8,1.7,1.6,3.7,2.4,5.9c1.6,4.4,3.2,9.6,4.8,15.1c0.8,2.8,1.7,5.6,2.6,8.5s1.8,5.8,3.4,8.2c0.8,1.2,1.7,2.3,2.9,3
	c1.1,0.7,2.5,1.1,3.9,1.2c1.4,0.1,2.9,0.2,4.4,0.2s3,0.1,4.4,0.1c5.8,0.1,11.2,0,15.8-0.1c4.6-0.1,8.5-0.3,11.2-0.5s4.2-0.3,4.2-0.3
	s-0.4,0.1-1.1,0.2c-0.7,0.1-1.8,0.3-3.1,0.5c-2.7,0.4-6.5,0.9-11.2,1.3c-4.6,0.4-10.1,0.7-15.9,0.7h-4.4c-1.5,0-3,0-4.6-0.2
	s-3.3-0.5-4.8-1.5c-1.5-0.9-2.7-2.2-3.5-3.6c-1.8-2.8-2.7-5.9-3.6-8.8c-0.9-2.9-1.7-5.8-2.4-8.6s-1.5-5.5-2.1-8.1
	c-0.7-2.6-1.4-5-2-7.2c-0.7-2.2-1.3-4.2-2-6c-0.3-0.9-0.6-1.7-0.9-2.5s-0.6-1.4-0.9-2.1c-0.5-1.2-1-2.2-1.3-2.9
	C246,122.6,245.8,122.2,245.8,122.2L245.8,122.2z M264.3,172.6c0,0,0.2,0,0.5,0.2c0.3,0.3,0.3,0.9,0.2,1.5c-0.1,0.3-0.2,0.7-0.4,1
	c-0.2,0.3-0.4,0.7-0.7,1c-0.5,0.7-1,1.5-1.6,2.4c-1.2,1.8-2.6,3.8-4.2,5.9l-2.4,3.3c-0.8,1.1-1.7,2.2-2.6,3.4
	c-0.9,1.1-1.8,2.2-2.6,3.3c-0.9,1.1-1.7,2.2-2.6,3.2c-1.7,2.1-3.3,4-4.7,5.6c-2.8,3.2-4.8,5.2-4.8,5.2s1.5-2.4,3.9-6
	c1.2-1.8,2.6-3.8,4.2-5.9l2.4-3.3c0.8-1.1,1.7-2.2,2.6-3.4c0.9-1.1,1.8-2.2,2.6-3.3c0.9-1.1,1.7-2.2,2.6-3.2c1.7-2.1,3.3-4,4.7-5.6
	c0.7-0.8,1.4-1.5,1.9-2.2c0.3-0.3,0.6-0.6,0.8-0.9c0.2-0.2,0.4-0.5,0.5-0.8c0.2-0.5,0.3-1,0.1-1.3
	C264.5,172.7,264.3,172.6,264.3,172.6L264.3,172.6z"/>
</svg>
