<svg id="Layer_1" xmlns="http://www.w3.org/2000/svg" viewBox="0 0 460 309.4"><style>.st0{fill:none;stroke:#000;stroke-width:5;stroke-miterlimit:10}.st1{opacity:.9;fill:url(#SVGID_1_);enable-background:new}.st2{fill:url(#SVGID_2_)}</style><path class="st0" d="M6588.6-961.2c.3 38.5.2 82.4-5.7 120.5-2.3 14.7-3.7 31.7-10.6 44.9-9.4 17.9-18.6 35.9-34 49.5-5.5 4.9-11.5 9.2-17.9 12.8-4.2 2.3-15.3 5.1-15.9 10.8-.4 3.6 3.8 5.7 6.9 7.6 6.9 4.3 10.9 12.3 11.6 20.4 1.5 15.4-5.6 30.7-18.9 38.8-.8.5-1.6 1-1.9 1.8-.7 2.1 2.1 3.4 4.2 3.8 12.1 2.1 24 5 35.7 8.7 7.7 2.4 24.3 10.6 12 18.5-7.7 4.9-17 6.2-26 7.3-24.7 3.1-49.7 6.2-74.5 3.9-5.6-.5-11.2-1.4-16.8-2.2l-22.5-3.3c-5.3-.8-11.8-2.7-12.7-7.9-1.7-10.2 16.6-15.1 23.6-17.2 4.9-1.5 36.5-4.6 35.6-9.3-.5-2.4-2.8-3.9-4.8-5.4-8.9-6.4-15-16.4-16.6-27.2-1.6-10.8 1.3-22.2 7.9-30.9 2.2-2.9 4.9-6 4.4-9.6-.2-1.5-1-2.9-2-4.1-5.1-6.7-15.9-9.5-22.8-14.7-7.9-6-15.2-12.8-21.6-20.4-12.5-14.5-22.1-31.5-27.6-49.9-5.2-17.2-6.9-35.3-8.2-53.2-2.3-31-3.6-62-3.8-93.1 20.2-2.4 42-1.8 62.4-1.4 52.8 1.1 160.5-1.6 160.5.5z"/><path d="M6462-646.3v1.9c0 .6.1 1.3.6 1.9.4.6 1.2.8 2.2.8 2.1-.1 4.5-.2 7.1-.2 1.3 0 2.7-.1 4-.1 1.4-.1 2.8-.1 4.1-.2 1.4-.1 2.8-.1 4.1-.2 1.4-.1 2.7-.1 4-.2 2.6-.1 5-.2 7.1-.3 2-.1 3.7-.6 4.6-1.3.4-.4.7-.8.8-1.1.1-.3.2-.5.2-.5v.5c-.1.3-.2.8-.6 1.3s-1.1 1-1.9 1.4c-.8.4-1.8.7-2.8.8-2.1.4-4.5.7-7.1.9-1.3.1-2.7.3-4 .4-1.4.1-2.8.2-4.2.2-1.4 0-2.8.1-4.2.1h-4.1c-2.6-.1-5.1-.2-7.2-.4-.5-.1-1.1-.1-1.6-.4s-.9-.7-1.1-1.1c-.4-.9-.4-1.7-.3-2.3.1-.6.2-1.1.3-1.4-.1-.3 0-.5 0-.5zm-.4-84.6s.6.2 1.6.5c.5.2 1.2.3 1.9.5s1.6.4 2.4.5c.9.2 1.9.3 2.9.5 1 .1 2.1.2 3.3.3 1.1.1 2.3.1 3.5.2h3.6c1.2 0 2.5 0 3.7-.1 1.2 0 2.4-.1 3.6-.1 2.3-.1 4.5-.1 6.3-.3 1.8-.2 3.2-.6 4.1-1.2.4-.3.8-.6 1-.8l.3-.3s-.1.1-.2.4c-.2.3-.4.6-.8 1-.8.8-2.3 1.6-4.2 2-.9.2-2 .4-3 .5-1.1.1-2.2.3-3.3.4l-3.6.3c-1.2.1-2.5.1-3.7.2-1.3 0-2.5 0-3.7-.1-.6 0-1.2-.1-1.8-.1-.6-.1-1.2-.1-1.8-.2-1.2-.1-2.3-.4-3.4-.6-.5-.1-1-.3-1.5-.4-.5-.2-1-.3-1.4-.4-1.8-.6-3.2-1.3-4.2-1.8-1-.6-1.6-.9-1.6-.9zm-50.1 102.1l.3.3c.2.2.5.4 1 .6.9.5 2.3 1 4.2 1.4 1.9.4 4.2.7 6.8 1.1 2.6.4 5.6.7 8.9 1.1 3.3.3 6.8.7 10.6 1 3.7.3 7.7.5 11.8.7 8.2.3 17 .5 25.7.6 4.4.1 8.8.1 13.1.2 4.3 0 8.5.1 12.6 0s8-.4 11.7-.8c3.7-.5 7.2-1.1 10.4-1.7 6.4-1.4 11.6-3 15.2-4.3 1.8-.7 3.2-1.2 4.2-1.6l1.5-.6s-.5.2-1.4.7c-.9.4-2.3 1.1-4.1 1.8-3.5 1.5-8.7 3.5-15.1 5.1-6.4 1.6-14.1 2.9-22.3 3.2-4.1.2-8.4.2-12.7.2-4.3 0-8.7-.1-13.1-.1-4.4-.1-8.8-.2-13.1-.3-4.3-.1-8.6-.4-12.7-.6-4.1-.3-8.1-.6-11.8-1-3.8-.4-7.3-.8-10.6-1.3-1.6-.3-3.2-.5-4.7-.7-1.5-.3-2.9-.5-4.2-.8-2.6-.5-4.9-1-6.8-1.5s-3.3-1.1-4.1-1.7c-.4-.3-.7-.5-.9-.7-.3-.2-.4-.3-.4-.3z"/><linearGradient id="SVGID_1_" gradientUnits="userSpaceOnUse" x1="6378.8" y1="-1346.377" x2="6584.7" y2="-1346.377" gradientTransform="translate(0 507)"><stop offset=".018" stop-color="#801fe3"/><stop offset="1" stop-color="#b7a7ff"/></linearGradient><path class="st1" d="M6378.8-933c1.4 24.4 2.7 48.8 4.1 73.2.4 7.9.9 15.9 2.2 23.7 1.8 11.1 5.4 21.8 8.9 32.5 3 9.1 6 18.2 11.1 26.3 17.8 28.1 51.5 32.7 81.9 31.3 10.6-.5 21.3-1.5 31.5-4.7 66.9-21.3 65.2-117 66.1-172.7 0-2.6.1-5.1.1-7.7-68.7 2.2-137.5 4-205.9-1.9z"/><path d="M6373.7-952.7s.6 8.1 1.5 22.2c.5 7.1 1 15.6 1.7 25.5.6 9.8 1.4 20.9 2.1 33.1.4 6.1.7 12.4 1.3 18.9.5 6.5 1.4 13.2 3 19.9 1.6 6.7 3.7 13.5 6 20.4 2.4 6.9 4.5 14 7.5 20.9.8 1.7 1.5 3.4 2.4 5.1.9 1.6 1.8 3.3 2.8 4.8 1.1 1.6 2.2 3.1 3.4 4.7 1.2 1.4 2.5 2.8 3.7 4.3 5.3 5.5 11.7 10 18.8 13.2 7.1 3.3 14.8 5.4 22.6 6.6 7.9 1.3 15.9 1.7 23.9 1.7 8-.1 16.1-.4 24-1.5 3.9-.5 7.9-1.2 11.7-2.2 1-.3 1.9-.5 2.8-.8l.7-.2h.1l.2-.1.4-.1 1.4-.5 2.8-1c.5-.2.9-.3 1.4-.5l1.3-.6c7.1-3.1 13.7-7.4 19.4-12.5 5.7-5.1 10.5-11.1 14.4-17.5 4-6.3 7.1-13.1 9.7-19.8 2.6-6.8 4.6-13.6 6.3-20.3 3.2-13.5 5-26.5 6.2-38.5 1.1-12.1 1.7-23.2 2-33 .3-9.9.5-18.4.7-25.5.2-14.2.4-22.2.4-22.2s0 2 .1 5.8c0 3.8.1 9.4.2 16.4 0 7.1 0 15.7-.2 25.5-.1 9.9-.5 21-1.5 33.1-1 12.1-2.6 25.2-5.7 38.9-1.6 6.8-3.6 13.7-6.1 20.6-2.5 6.9-5.7 13.8-9.8 20.3-4 6.5-9 12.7-14.8 18.1-5.9 5.4-12.7 9.8-20.2 13.1l-1.4.6c-.5.2-.9.4-1.4.5l-2.8 1-1.4.5-.4.1-.2.1-.2.1-.7.2c-1 .3-2 .6-2.9.8-3.9 1-8 1.8-12 2.4-8.1 1.1-16.2 1.5-24.4 1.6-8.2 0-16.3-.5-24.4-1.8-8-1.3-16-3.5-23.3-7-7.4-3.4-14.1-8.1-19.6-13.9-1.3-1.5-2.6-3.1-3.9-4.6-1.1-1.6-2.2-3.2-3.3-4.7-2.2-3.4-3.9-6.8-5.4-10.4-3-7.1-5.2-14.2-7.5-21.2-2.2-7-4.3-13.9-5.8-20.7-1.6-6.9-2.4-13.6-2.8-20.2-.5-6.6-.7-12.9-1-18.9-.6-12.1-1.1-23.2-1.6-33.1-.5-9.9-.8-18.4-1.2-25.5-.7-14.2-1-22.2-1-22.2z"/><path d="M6374.1-937.3s.8 0 2.4.1 3.8.2 6.7.3c2.9.2 6.4.3 10.5.5 4 .2 8.6.3 13.6.5s10.4.3 16.1.5 11.7.2 17.9.4c6.2.1 12.6.1 19.2.2 6.5.1 13.2 0 19.8.1 6.6 0 13.3 0 19.8-.1s13-.1 19.2-.2c12.5-.1 24.1-.2 34-.3 10-.1 18.3-.1 24.1-.1h9.1s-.8.1-2.4.2c-1.6.1-3.8.2-6.7.4-5.8.3-14.1.8-24.1 1.3s-21.6.9-34 1.3c-6.2.1-12.7.4-19.2.4-6.5.1-13.2.1-19.8.2-6.6 0-13.3 0-19.8-.2-6.5-.1-13-.3-19.2-.4-6.2-.2-12.3-.4-18-.8-2.9-.2-5.6-.3-8.3-.5-2.7-.2-5.3-.4-7.8-.5-2.5-.2-4.9-.3-7.1-.5-2.3-.2-4.4-.4-6.4-.6-4-.4-7.6-.7-10.4-1-2.9-.3-5.2-.6-6.7-.7-1.7-.4-2.5-.5-2.5-.5z"/><linearGradient id="SVGID_2_" gradientUnits="userSpaceOnUse" x1="108.3" y1="-295.013" x2="348.7" y2="-295.013" gradientTransform="translate(0 507)"><stop offset="0" stop-color="#d75d20"/><stop offset="1" stop-color="#ff8700"/></linearGradient><path class="st2" d="M340.6 245.9c1.4-5 2-10.2 2.6-15.3 3.1-26.1 4-52.2 5.5-78.4-.3 0-.7.1-1 .1-27.2 3.9-215.5-1-237.8-4.3h-1.6c.5 11 .9 22 .9 33.1.1 22.3-.7 45.4 8.2 65.8 2.9 6.6 7 13 13.3 16.4 4.5 2.4 20.5.4 21.6-4.7.2 1 .9 1.9 1.8 2.7 16.6 15.9 47.2 13.1 68.4 13.9h.5c16.9.7 32.6 1.5 49.4-.6 11.9-1.5 25-4.9 31-15.2 3.1 3.6 5.3 7.7 9.6 9.7 4.1 1.9 9 1.1 12.9-1.1 3.9-2.2 6.8-5.9 9.1-9.7 2.6-3.8 4.4-8 5.6-12.4z"/><path class="st0" d="M367.5 13.5c-1.1 26.4-2.6 51.4-5.9 77.5-2.7 21.6-4.4 41.3-5.8 63-1.6 23.7-3.3 47.3-5.1 71-1.4 18.6 2 37.1 1 55.7-.7 13.4-37.9 23-48.5 24.2-30.8 3.5-61.5-.2-92.3-.1-17.1 0-34.2.1-51.3.1-3.9 0-8.4-1.5-12.1-2.4-9.7-2.4-19.1-6.2-27.8-11.2-4.7-2.7-9.3-5.9-11.8-10.7-2.9-5.6-2.2-12.2-1.7-18.4 2.1-25.6-1.9-48.7-2.6-74.4-.8-29.1-1.6-58.2-3.4-87.3-1.9-30.1-4.8-60.2-7.8-90.2 12-5.5 251.6-3.1 275.1 3.2z"/><path d="M97.6 11.4l4 34.2c1.3 11.4 2.6 22.8 3.8 34.2l1.7 17.1 1.5 17.1c.4 5.7.9 11.4 1.2 17.2l.5 8.6.4 8.6.3 8.6.2 8.6.1 8.6.1 8.6c.1 11.4.3 22.9 2 34.1.9 5.6 2.1 11.1 3.9 16.5l.7 2 .8 2 .8 2c.3.6.6 1.3.9 1.9 1.2 2.5 2.6 4.9 4.3 7.1 1.7 2.2 3.6 4.1 5.8 5.6.6.4 1.1.7 1.7 1l.4.2.3.1c.3.1.6.2.9.2 1.3.2 2.6.3 4 .3 2.7 0 5.5-.4 8.2-1.1 1.3-.4 2.6-.8 3.7-1.4 1.1-.6 2-1.4 2.2-2.1l1.3-7.7 1.4 7.7c.1.4.4 1 .9 1.5.1.1.2.3.4.4l.1.1.1.1.2.2.9.8c.6.6 1.2 1 1.9 1.5s1.3.9 2 1.4c2.7 1.7 5.6 3.2 8.7 4.3 6.1 2.3 12.7 3.4 19.2 4 6.6.7 13.2.8 19.9.9l10 .1c3.4 0 6.7.2 10.1.3 13.4.6 26.7 1 39.9-.2 3.3-.3 6.6-.7 9.8-1.3 3.2-.6 6.4-1.4 9.5-2.4 3.1-1.1 6-2.5 8.6-4.3s4.8-4.2 6.4-6.9l1-1.7 1.3 1.4c2 2.3 3.5 4.7 5.4 6.6.9 1 1.9 1.8 3 2.4.3.1.6.3.8.4.3.1.7.3.9.4.5.2 1.2.3 1.8.4 2.5.4 5.2-.1 7.6-1.3.3-.1.6-.3.9-.4l.2-.1h.1l.1-.1.5-.3c.6-.4 1.1-.7 1.6-1.2 1.1-.8 2-1.8 2.9-2.8 1.8-2.1 3.3-4.4 4.7-6.9 1.3-2.5 2.5-5 3.4-7.7 1.8-5.3 2.6-10.9 3.3-16.6.7-5.7 1.3-11.4 1.8-17.1.5-5.7 1-11.4 1.4-17.1.8-11.4 1.4-22.9 2.1-34.4s1.4-22.9 2.4-34.4c.5-5.7 1-11.4 1.6-17.2l1.8-17.1c1.3-11.4 2.7-22.8 4.3-34.2 1.5-11.4 3.3-22.7 5.1-34.1-1.6 11.4-3.1 22.8-4.5 34.2-1.4 11.4-2.6 22.8-3.7 34.2-1.1 11.4-2.1 22.9-3 34.3-.9 11.4-1.5 22.9-2 34.4-.6 11.5-1.1 22.9-1.8 34.4s-1.6 23-3 34.4c-.7 5.7-1.4 11.5-3.3 17.1-.9 2.8-2.1 5.5-3.5 8.1s-3 5.1-5 7.4c-1 1.1-2.1 2.2-3.3 3.1-.6.5-1.2.9-1.9 1.3l-.5.3-.3.2-.3.1c-.3.2-.7.4-1 .5-2.8 1.3-6 1.9-9.1 1.5-.8-.1-1.5-.3-2.4-.6-.4-.1-.7-.3-1.1-.4-.4-.2-.7-.4-1.1-.5-1.4-.8-2.6-1.8-3.7-2.9-2.1-2.2-3.7-4.6-5.5-6.7l2.2-.2c-1.8 3.1-4.3 5.7-7.1 7.7-2.8 2.1-6 3.6-9.2 4.7-3.2 1.2-6.6 2-9.9 2.6-3.4.6-6.7 1-10.1 1.4-13.4 1.3-26.9.9-40.3.4-3.3-.1-6.7-.3-10-.4l-10-.1c-6.7-.1-13.4-.3-20.2-.9-6.7-.7-13.5-1.9-19.9-4.3-3.2-1.2-6.3-2.7-9.2-4.6l-2.1-1.5c-.7-.6-1.4-1.1-2-1.7l-.9-.8-.2-.2-.1-.1-.1-.1-.5-.5c-.6-.7-1.3-1.6-1.5-2.8h2.7c-.2 1.1-.9 1.9-1.5 2.5s-1.3 1.1-2 1.4c-1.4.8-2.9 1.2-4.3 1.7-2.9.8-5.9 1.2-8.8 1.2-1.5 0-3-.1-4.6-.4l-1.2-.3-.7-.2-.5-.3c-.7-.4-1.3-.8-1.9-1.2-2.5-1.7-4.7-3.9-6.5-6.3-1.8-2.4-3.3-4.9-4.5-7.6-.3-.7-.6-1.3-.9-2l-.8-2-.8-2-.7-2.1c-1.9-5.5-3.1-11.2-4-16.9s-1.3-11.5-1.5-17.3-.2-11.5-.2-17.2V174l-.1-8.6-.2-8.6-.3-8.6-.3-8.6-.4-8.6c-.3-5.7-.7-11.4-1.1-17.2l-1.3-17.1-1.5-17.1c-1-11.4-2.1-22.8-3.3-34.2l-3.4-34z"/><path d="M144.8 23.4s.1 1.1.3 3.1.5 4.9.8 8.6.7 8.3 1 13.5.7 11.1 1 17.5c.6 12.8.9 27.8 1.2 43.8.2 16 .4 33.1.5 50.2.2 34.2.2 68.4 0 94s-.4 42.7-.4 42.7h-2s.4-17.1.8-42.7.7-59.8.7-94c0-17.1 0-34.2-.2-50.2-.1-16-.4-31-.9-43.8-.2-6.4-.5-12.3-.8-17.5s-.6-9.7-.9-13.5c-.3-3.7-.5-6.7-.7-8.6-.3-2-.4-3.1-.4-3.1zm168.1 2.7s.1 4.3.2 11.7c.1 7.4.2 18.1.3 30.8.1 12.8.2 27.7.2 43.6 0 16 0 33-.1 50s-.3 34-.6 50-.5 30.8-.8 43.6c-.3 12.8-.6 23.4-.8 30.8-.2 7.4-.3 11.7-.3 11.7l-2-.1s.2-4.3.4-11.7.6-18.1 1-30.8c.4-12.8.8-27.6 1.2-43.6.4-15.9.7-33 .9-50 .2-17 .4-34 .5-50s.1-30.8.1-43.6-.1-23.4-.1-30.8 0-11.6-.1-11.6z"/><path d="M111 140.8l2.7.3c.9.1 1.9.2 3.2.3s2.7.2 4.3.3 3.4.2 5.4.3 4.1.2 6.3.3c4.5.2 9.6.4 15.2.6 5.6.2 11.6.4 18 .5 6.4.2 13.1.3 20.1.5 7 .1 14.2.3 21.5.5 7.3.1 14.8.2 22.2.4 7.4.1 14.9.1 22.2.2 7.3 0 14.5.1 21.5.1 13.9.2 26.9.3 38.1.5 2.8 0 5.5.1 8 .1h7.2c4.5 0 8.5 0 11.7-.1 3.3 0 5.8-.2 7.5-.3s2.7-.1 2.7-.1v.3s-.9.1-2.7.4c-1.7.2-4.3.6-7.5.8-1.6.1-3.4.3-5.4.4-2 .2-4.1.2-6.3.3-4.5.2-9.7.5-15.2.6-2.8.1-5.7.1-8.7.2-3 0-6.1.1-9.3.1-6.4.1-13.1 0-20.1 0-7-.1-14.2-.3-21.5-.4-7.3-.2-14.8-.4-22.2-.6-7.4-.2-14.9-.5-22.2-.7-7.3-.3-14.5-.5-21.5-.8s-13.7-.5-20.1-.8-12.4-.6-18-.9c-5.6-.3-10.7-.6-15.2-.9-2.3-.1-4.4-.3-6.3-.4-2-.2-3.8-.3-5.4-.4-1.6-.1-3.1-.3-4.3-.4-1.3-.1-2.3-.3-3.2-.4-1.7-.2-2.7-.3-2.7-.3v-.5z"/></svg>