<?xml version="1.0" encoding="utf-8"?>
<!-- Generator: Adobe Illustrator 19.2.0, SVG Export Plug-In . SVG Version: 6.00 Build 0)  -->
<svg version="1.1" id="Layer_1" xmlns="http://www.w3.org/2000/svg" xmlns:xlink="http://www.w3.org/1999/xlink" x="0px" y="0px"
	 viewBox="0 0 460 309.4" style="enable-background:new 0 0 460 309.4;" xml:space="preserve">
<style type="text/css">
	.st0{fill:none;stroke:#000000;stroke-width:5;stroke-miterlimit:10;}
	.st1{opacity:0.9;fill:url(#SVGID_1_);enable-background:new    ;}
	.st2{fill:url(#SVGID_2_);}
</style>
<path class="st0" d="M6588.6-961.2c0.3,38.5,0.2,82.4-5.7,120.5c-2.3,14.7-3.7,31.7-10.6,44.9c-9.4,17.9-18.6,35.9-34,49.5
	c-5.5,4.9-11.5,9.2-17.9,12.8c-4.2,2.3-15.3,5.1-15.9,10.8c-0.4,3.6,3.8,5.7,6.9,7.6c6.9,4.3,10.9,12.3,11.6,20.4
	c1.5,15.4-5.6,30.7-18.9,38.8c-0.8,0.5-1.6,1-1.9,1.8c-0.7,2.1,2.1,3.4,4.2,3.8c12.1,2.1,24,5,35.7,8.7c7.7,2.4,24.3,10.6,12,18.5
	c-7.7,4.9-17,6.2-26,7.3c-24.7,3.1-49.7,6.2-74.5,3.9c-5.6-0.5-11.2-1.4-16.8-2.2l-22.5-3.3c-5.3-0.8-11.8-2.7-12.7-7.9
	c-1.7-10.2,16.6-15.1,23.6-17.2c4.9-1.5,36.5-4.6,35.6-9.3c-0.5-2.4-2.8-3.9-4.8-5.4c-8.9-6.4-15-16.4-16.6-27.2
	c-1.6-10.8,1.3-22.2,7.9-30.9c2.2-2.9,4.9-6,4.4-9.6c-0.2-1.5-1-2.9-2-4.1c-5.1-6.7-15.9-9.5-22.8-14.7c-7.9-6-15.2-12.8-21.6-20.4
	c-12.5-14.5-22.1-31.5-27.6-49.9c-5.2-17.2-6.9-35.3-8.2-53.2c-2.3-31-3.6-62-3.8-93.1c20.2-2.4,42-1.8,62.4-1.4
	C6480.9-960.6,6588.6-963.3,6588.6-961.2L6588.6-961.2z"/>
<path d="M6462-646.3v1.9c0,0.6,0.1,1.3,0.6,1.9c0.4,0.6,1.2,0.8,2.2,0.8c2.1-0.1,4.5-0.2,7.1-0.2c1.3,0,2.7-0.1,4-0.1
	c1.4-0.1,2.8-0.1,4.1-0.2c1.4-0.1,2.8-0.1,4.1-0.2c1.4-0.1,2.7-0.1,4-0.2c2.6-0.1,5-0.2,7.1-0.3c2-0.1,3.7-0.6,4.6-1.3
	c0.4-0.4,0.7-0.8,0.8-1.1c0.1-0.3,0.2-0.5,0.2-0.5v0.5c-0.1,0.3-0.2,0.8-0.6,1.3s-1.1,1-1.9,1.4c-0.8,0.4-1.8,0.7-2.8,0.8
	c-2.1,0.4-4.5,0.7-7.1,0.9c-1.3,0.1-2.7,0.3-4,0.4c-1.4,0.1-2.8,0.2-4.2,0.2c-1.4,0-2.8,0.1-4.2,0.1h-4.1c-2.6-0.1-5.1-0.2-7.2-0.4
	c-0.5-0.1-1.1-0.1-1.6-0.4s-0.9-0.7-1.1-1.1c-0.4-0.9-0.4-1.7-0.3-2.3c0.1-0.6,0.2-1.1,0.3-1.4C6461.9-646.1,6462-646.3,6462-646.3
	L6462-646.3z M6461.6-730.9c0,0,0.6,0.2,1.6,0.5c0.5,0.2,1.2,0.3,1.9,0.5s1.6,0.4,2.4,0.5c0.9,0.2,1.9,0.3,2.9,0.5
	c1,0.1,2.1,0.2,3.3,0.3c1.1,0.1,2.3,0.1,3.5,0.2h3.6c1.2,0,2.5,0,3.7-0.1c1.2,0,2.4-0.1,3.6-0.1c2.3-0.1,4.5-0.1,6.3-0.3
	c1.8-0.2,3.2-0.6,4.1-1.2c0.4-0.3,0.8-0.6,1-0.8l0.3-0.3c0,0-0.1,0.1-0.2,0.4c-0.2,0.3-0.4,0.6-0.8,1c-0.8,0.8-2.3,1.6-4.2,2
	c-0.9,0.2-2,0.4-3,0.5c-1.1,0.1-2.2,0.3-3.3,0.4l-3.6,0.3c-1.2,0.1-2.5,0.1-3.7,0.2c-1.3,0-2.5,0-3.7-0.1c-0.6,0-1.2-0.1-1.8-0.1
	c-0.6-0.1-1.2-0.1-1.8-0.2c-1.2-0.1-2.3-0.4-3.4-0.6c-0.5-0.1-1-0.3-1.5-0.4c-0.5-0.2-1-0.3-1.4-0.4c-1.8-0.6-3.2-1.3-4.2-1.8
	C6462.2-730.6,6461.6-730.9,6461.6-730.9L6461.6-730.9z M6411.5-628.8l0.3,0.3c0.2,0.2,0.5,0.4,1,0.6c0.9,0.5,2.3,1,4.2,1.4
	c1.9,0.4,4.2,0.7,6.8,1.1c2.6,0.4,5.6,0.7,8.9,1.1c3.3,0.3,6.8,0.7,10.6,1c3.7,0.3,7.7,0.5,11.8,0.7c8.2,0.3,17,0.5,25.7,0.6
	c4.4,0.1,8.8,0.1,13.1,0.2c4.3,0,8.5,0.1,12.6,0c4.1-0.1,8-0.4,11.7-0.8c3.7-0.5,7.2-1.1,10.4-1.7c6.4-1.4,11.6-3,15.2-4.3
	c1.8-0.7,3.2-1.2,4.2-1.6l1.5-0.6c0,0-0.5,0.2-1.4,0.7c-0.9,0.4-2.3,1.1-4.1,1.8c-3.5,1.5-8.7,3.5-15.1,5.1
	c-6.4,1.6-14.1,2.9-22.3,3.2c-4.1,0.2-8.4,0.2-12.7,0.2c-4.3,0-8.7-0.1-13.1-0.1c-4.4-0.1-8.8-0.2-13.1-0.3
	c-4.3-0.1-8.6-0.4-12.7-0.6c-4.1-0.3-8.1-0.6-11.8-1c-3.8-0.4-7.3-0.8-10.6-1.3c-1.6-0.3-3.2-0.5-4.7-0.7c-1.5-0.3-2.9-0.5-4.2-0.8
	c-2.6-0.5-4.9-1-6.8-1.5s-3.3-1.1-4.1-1.7c-0.4-0.3-0.7-0.5-0.9-0.7C6411.6-628.7,6411.5-628.8,6411.5-628.8L6411.5-628.8z"/>
<linearGradient id="SVGID_1_" gradientUnits="userSpaceOnUse" x1="6378.7998" y1="-1346.3771" x2="6584.7002" y2="-1346.3771" gradientTransform="matrix(1 0 0 1 0 507)">
	<stop  offset="1.800000e-02" style="stop-color:#801FE3"/>
	<stop  offset="1" style="stop-color:#B7A7FF"/>
</linearGradient>
<path class="st1" d="M6378.8-933c1.4,24.4,2.7,48.8,4.1,73.2c0.4,7.9,0.9,15.9,2.2,23.7c1.8,11.1,5.4,21.8,8.9,32.5
	c3,9.1,6,18.2,11.1,26.3c17.8,28.1,51.5,32.7,81.9,31.3c10.6-0.5,21.3-1.5,31.5-4.7c66.9-21.3,65.2-117,66.1-172.7
	c0-2.6,0.1-5.1,0.1-7.7C6516-928.9,6447.2-927.1,6378.8-933L6378.8-933z"/>
<path d="M6373.7-952.7c0,0,0.6,8.1,1.5,22.2c0.5,7.1,1,15.6,1.7,25.5c0.6,9.8,1.4,20.9,2.1,33.1c0.4,6.1,0.7,12.4,1.3,18.9
	c0.5,6.5,1.4,13.2,3,19.9c1.6,6.7,3.7,13.5,6,20.4c2.4,6.9,4.5,14,7.5,20.9c0.8,1.7,1.5,3.4,2.4,5.1c0.9,1.6,1.8,3.3,2.8,4.8
	c1.1,1.6,2.2,3.1,3.4,4.7c1.2,1.4,2.5,2.8,3.7,4.3c5.3,5.5,11.7,10,18.8,13.2c7.1,3.3,14.8,5.4,22.6,6.6c7.9,1.3,15.9,1.7,23.9,1.7
	c8-0.1,16.1-0.4,24-1.5c3.9-0.5,7.9-1.2,11.7-2.2c1-0.3,1.9-0.5,2.8-0.8l0.7-0.2h0.1l0.2-0.1l0.4-0.1l1.4-0.5l2.8-1
	c0.5-0.2,0.9-0.3,1.4-0.5l1.3-0.6c7.1-3.1,13.7-7.4,19.4-12.5c5.7-5.1,10.5-11.1,14.4-17.5c4-6.3,7.1-13.1,9.7-19.8
	c2.6-6.8,4.6-13.6,6.3-20.3c3.2-13.5,5-26.5,6.2-38.5c1.1-12.1,1.7-23.2,2-33c0.3-9.9,0.5-18.4,0.7-25.5c0.2-14.2,0.4-22.2,0.4-22.2
	s0,2,0.1,5.8c0,3.8,0.1,9.4,0.2,16.4c0,7.1,0,15.7-0.2,25.5c-0.1,9.9-0.5,21-1.5,33.1c-1,12.1-2.6,25.2-5.7,38.9
	c-1.6,6.8-3.6,13.7-6.1,20.6c-2.5,6.9-5.7,13.8-9.8,20.3c-4,6.5-9,12.7-14.8,18.1c-5.9,5.4-12.7,9.8-20.2,13.1l-1.4,0.6
	c-0.5,0.2-0.9,0.4-1.4,0.5l-2.8,1l-1.4,0.5l-0.4,0.1l-0.2,0.1l-0.2,0.1l-0.7,0.2c-1,0.3-2,0.6-2.9,0.8c-3.9,1-8,1.8-12,2.4
	c-8.1,1.1-16.2,1.5-24.4,1.6c-8.2,0-16.3-0.5-24.4-1.8c-8-1.3-16-3.5-23.3-7c-7.4-3.4-14.1-8.1-19.6-13.9c-1.3-1.5-2.6-3.1-3.9-4.6
	c-1.1-1.6-2.2-3.2-3.3-4.7c-2.2-3.4-3.9-6.8-5.4-10.4c-3-7.1-5.2-14.2-7.5-21.2c-2.2-7-4.3-13.9-5.8-20.7
	c-1.6-6.9-2.4-13.6-2.8-20.2c-0.5-6.6-0.7-12.9-1-18.9c-0.6-12.1-1.1-23.2-1.6-33.1c-0.5-9.9-0.8-18.4-1.2-25.5
	C6374-944.7,6373.7-952.7,6373.7-952.7L6373.7-952.7z"/>
<path d="M6374.1-937.3c0,0,0.8,0,2.4,0.1s3.8,0.2,6.7,0.3c2.9,0.2,6.4,0.3,10.5,0.5c4,0.2,8.6,0.3,13.6,0.5s10.4,0.3,16.1,0.5
	s11.7,0.2,17.9,0.4c6.2,0.1,12.6,0.1,19.2,0.2c6.5,0.1,13.2,0,19.8,0.1c6.6,0,13.3,0,19.8-0.1s13-0.1,19.2-0.2
	c12.5-0.1,24.1-0.2,34-0.3c10-0.1,18.3-0.1,24.1-0.1h9.1c0,0-0.8,0.1-2.4,0.2c-1.6,0.1-3.8,0.2-6.7,0.4c-5.8,0.3-14.1,0.8-24.1,1.3
	s-21.6,0.9-34,1.3c-6.2,0.1-12.7,0.4-19.2,0.4c-6.5,0.1-13.2,0.1-19.8,0.2c-6.6,0-13.3,0-19.8-0.2c-6.5-0.1-13-0.3-19.2-0.4
	c-6.2-0.2-12.3-0.4-18-0.8c-2.9-0.2-5.6-0.3-8.3-0.5c-2.7-0.2-5.3-0.4-7.8-0.5c-2.5-0.2-4.9-0.3-7.1-0.5c-2.3-0.2-4.4-0.4-6.4-0.6
	c-4-0.4-7.6-0.7-10.4-1c-2.9-0.3-5.2-0.6-6.7-0.7C6374.9-937.2,6374.1-937.3,6374.1-937.3L6374.1-937.3z"/>
<linearGradient id="SVGID_2_" gradientUnits="userSpaceOnUse" x1="108.3" y1="-295.0126" x2="348.7" y2="-295.0126" gradientTransform="matrix(1 0 0 1 0 507)">
	<stop  offset="0" style="stop-color:#D75D20"/>
	<stop  offset="1" style="stop-color:#FF8700"/>
</linearGradient>
<path class="st2" d="M340.6,245.9c1.4-5,2-10.2,2.6-15.3c3.1-26.1,4-52.2,5.5-78.4c-0.3,0-0.7,0.1-1,0.1
	c-27.2,3.9-215.5-1-237.8-4.3h-1.6c0.5,11,0.9,22,0.9,33.1c0.1,22.3-0.7,45.4,8.2,65.8c2.9,6.6,7,13,13.3,16.4
	c4.5,2.4,20.5,0.4,21.6-4.7c0.2,1,0.9,1.9,1.8,2.7c16.6,15.9,47.2,13.1,68.4,13.9h0.5c16.9,0.7,32.6,1.5,49.4-0.6
	c11.9-1.5,25-4.9,31-15.2c3.1,3.6,5.3,7.7,9.6,9.7c4.1,1.9,9,1.1,12.9-1.1c3.9-2.2,6.8-5.9,9.1-9.7
	C337.6,254.5,339.4,250.3,340.6,245.9L340.6,245.9z"/>
<path class="st0" d="M367.5,13.5c-1.1,26.4-2.6,51.4-5.9,77.5c-2.7,21.6-4.4,41.3-5.8,63c-1.6,23.7-3.3,47.3-5.1,71
	c-1.4,18.6,2,37.1,1,55.7c-0.7,13.4-37.9,23-48.5,24.2c-30.8,3.5-61.5-0.2-92.3-0.1c-17.1,0-34.2,0.1-51.3,0.1
	c-3.9,0-8.4-1.5-12.1-2.4c-9.7-2.4-19.1-6.2-27.8-11.2c-4.7-2.7-9.3-5.9-11.8-10.7c-2.9-5.6-2.2-12.2-1.7-18.4
	c2.1-25.6-1.9-48.7-2.6-74.4c-0.8-29.1-1.6-58.2-3.4-87.3c-1.9-30.1-4.8-60.2-7.8-90.2C104.4,4.8,344,7.2,367.5,13.5L367.5,13.5z"/>
<path d="M97.6,11.4l4,34.2c1.3,11.4,2.6,22.8,3.8,34.2l1.7,17.1l1.5,17.1c0.4,5.7,0.9,11.4,1.2,17.2l0.5,8.6l0.4,8.6l0.3,8.6
	l0.2,8.6l0.1,8.6l0.1,8.6c0.1,11.4,0.3,22.9,2,34.1c0.9,5.6,2.1,11.1,3.9,16.5l0.7,2l0.8,2l0.8,2c0.3,0.6,0.6,1.3,0.9,1.9
	c1.2,2.5,2.6,4.9,4.3,7.1c1.7,2.2,3.6,4.1,5.8,5.6c0.6,0.4,1.1,0.7,1.7,1l0.4,0.2l0.3,0.1c0.3,0.1,0.6,0.2,0.9,0.2
	c1.3,0.2,2.6,0.3,4,0.3c2.7,0,5.5-0.4,8.2-1.1c1.3-0.4,2.6-0.8,3.7-1.4c1.1-0.6,2-1.4,2.2-2.1l1.3-7.7l1.4,7.7
	c0.1,0.4,0.4,1,0.9,1.5c0.1,0.1,0.2,0.3,0.4,0.4l0.1,0.1l0.1,0.1l0.2,0.2l0.9,0.8c0.6,0.6,1.2,1,1.9,1.5c0.7,0.5,1.3,0.9,2,1.4
	c2.7,1.7,5.6,3.2,8.7,4.3c6.1,2.3,12.7,3.4,19.2,4c6.6,0.7,13.2,0.8,19.9,0.9l10,0.1c3.4,0,6.7,0.2,10.1,0.3
	c13.4,0.6,26.7,1,39.9-0.2c3.3-0.3,6.6-0.7,9.8-1.3c3.2-0.6,6.4-1.4,9.5-2.4c3.1-1.1,6-2.5,8.6-4.3s4.8-4.2,6.4-6.9l1-1.7l1.3,1.4
	c2,2.3,3.5,4.7,5.4,6.6c0.9,1,1.9,1.8,3,2.4c0.3,0.1,0.6,0.3,0.8,0.4c0.3,0.1,0.7,0.3,0.9,0.4c0.5,0.2,1.2,0.3,1.8,0.4
	c2.5,0.4,5.2-0.1,7.6-1.3c0.3-0.1,0.6-0.3,0.9-0.4l0.2-0.1h0.1l0.1-0.1l0.5-0.3c0.6-0.4,1.1-0.7,1.6-1.2c1.1-0.8,2-1.8,2.9-2.8
	c1.8-2.1,3.3-4.4,4.7-6.9c1.3-2.5,2.5-5,3.4-7.7c1.8-5.3,2.6-10.9,3.3-16.6c0.7-5.7,1.3-11.4,1.8-17.1c0.5-5.7,1-11.4,1.4-17.1
	c0.8-11.4,1.4-22.9,2.1-34.4s1.4-22.9,2.4-34.4c0.5-5.7,1-11.4,1.6-17.2l1.8-17.1c1.3-11.4,2.7-22.8,4.3-34.2
	c1.5-11.4,3.3-22.7,5.1-34.1c-1.6,11.4-3.1,22.8-4.5,34.2c-1.4,11.4-2.6,22.8-3.7,34.2c-1.1,11.4-2.1,22.9-3,34.3
	c-0.9,11.4-1.5,22.9-2,34.4c-0.6,11.5-1.1,22.9-1.8,34.4s-1.6,23-3,34.4c-0.7,5.7-1.4,11.5-3.3,17.1c-0.9,2.8-2.1,5.5-3.5,8.1
	s-3,5.1-5,7.4c-1,1.1-2.1,2.2-3.3,3.1c-0.6,0.5-1.2,0.9-1.9,1.3l-0.5,0.3l-0.3,0.2l-0.3,0.1c-0.3,0.2-0.7,0.4-1,0.5
	c-2.8,1.3-6,1.9-9.1,1.5c-0.8-0.1-1.5-0.3-2.4-0.6c-0.4-0.1-0.7-0.3-1.1-0.4c-0.4-0.2-0.7-0.4-1.1-0.5c-1.4-0.8-2.6-1.8-3.7-2.9
	c-2.1-2.2-3.7-4.6-5.5-6.7l2.2-0.2c-1.8,3.1-4.3,5.7-7.1,7.7c-2.8,2.1-6,3.6-9.2,4.7c-3.2,1.2-6.6,2-9.9,2.6
	c-3.4,0.6-6.7,1-10.1,1.4c-13.4,1.3-26.9,0.9-40.3,0.4c-3.3-0.1-6.7-0.3-10-0.4l-10-0.1c-6.7-0.1-13.4-0.3-20.2-0.9
	c-6.7-0.7-13.5-1.9-19.9-4.3c-3.2-1.2-6.3-2.7-9.2-4.6l-2.1-1.5c-0.7-0.6-1.4-1.1-2-1.7l-0.9-0.8l-0.2-0.2l-0.1-0.1l-0.1-0.1
	l-0.5-0.5c-0.6-0.7-1.3-1.6-1.5-2.8h2.7c-0.2,1.1-0.9,1.9-1.5,2.5s-1.3,1.1-2,1.4c-1.4,0.8-2.9,1.2-4.3,1.7
	c-2.9,0.8-5.9,1.2-8.8,1.2c-1.5,0-3-0.1-4.6-0.4l-1.2-0.3l-0.7-0.2l-0.5-0.3c-0.7-0.4-1.3-0.8-1.9-1.2c-2.5-1.7-4.7-3.9-6.5-6.3
	c-1.8-2.4-3.3-4.9-4.5-7.6c-0.3-0.7-0.6-1.3-0.9-2l-0.8-2l-0.8-2l-0.7-2.1c-1.9-5.5-3.1-11.2-4-16.9s-1.3-11.5-1.5-17.3
	s-0.2-11.5-0.2-17.2V174l-0.1-8.6l-0.2-8.6l-0.3-8.6l-0.3-8.6l-0.4-8.6c-0.3-5.7-0.7-11.4-1.1-17.2l-1.3-17.1l-1.5-17.1
	c-1-11.4-2.1-22.8-3.3-34.2L97.6,11.4L97.6,11.4z"/>
<path d="M144.8,23.4c0,0,0.1,1.1,0.3,3.1s0.5,4.9,0.8,8.6s0.7,8.3,1,13.5s0.7,11.1,1,17.5c0.6,12.8,0.9,27.8,1.2,43.8
	c0.2,16,0.4,33.1,0.5,50.2c0.2,34.2,0.2,68.4,0,94s-0.4,42.7-0.4,42.7h-2c0,0,0.4-17.1,0.8-42.7s0.7-59.8,0.7-94
	c0-17.1,0-34.2-0.2-50.2c-0.1-16-0.4-31-0.9-43.8c-0.2-6.4-0.5-12.3-0.8-17.5s-0.6-9.7-0.9-13.5c-0.3-3.7-0.5-6.7-0.7-8.6
	C144.9,24.5,144.8,23.4,144.8,23.4z M312.9,26.1c0,0,0.1,4.3,0.2,11.7c0.1,7.4,0.2,18.1,0.3,30.8c0.1,12.8,0.2,27.7,0.2,43.6
	c0,16,0,33-0.1,50s-0.3,34-0.6,50s-0.5,30.8-0.8,43.6c-0.3,12.8-0.6,23.4-0.8,30.8c-0.2,7.4-0.3,11.7-0.3,11.7l-2-0.1
	c0,0,0.2-4.3,0.4-11.7s0.6-18.1,1-30.8c0.4-12.8,0.8-27.6,1.2-43.6c0.4-15.9,0.7-33,0.9-50c0.2-17,0.4-34,0.5-50s0.1-30.8,0.1-43.6
	S313,45.1,313,37.7S313,26.1,312.9,26.1L312.9,26.1z"/>
<path d="M111,140.8l2.7,0.3c0.9,0.1,1.9,0.2,3.2,0.3s2.7,0.2,4.3,0.3s3.4,0.2,5.4,0.3s4.1,0.2,6.3,0.3c4.5,0.2,9.6,0.4,15.2,0.6
	c5.6,0.2,11.6,0.4,18,0.5c6.4,0.2,13.1,0.3,20.1,0.5c7,0.1,14.2,0.3,21.5,0.5c7.3,0.1,14.8,0.2,22.2,0.4c7.4,0.1,14.9,0.1,22.2,0.2
	c7.3,0,14.5,0.1,21.5,0.1c13.9,0.2,26.9,0.3,38.1,0.5c2.8,0,5.5,0.1,8,0.1h7.2c4.5,0,8.5,0,11.7-0.1c3.3,0,5.8-0.2,7.5-0.3
	s2.7-0.1,2.7-0.1v0.3c0,0-0.9,0.1-2.7,0.4c-1.7,0.2-4.3,0.6-7.5,0.8c-1.6,0.1-3.4,0.3-5.4,0.4c-2,0.2-4.1,0.2-6.3,0.3
	c-4.5,0.2-9.7,0.5-15.2,0.6c-2.8,0.1-5.7,0.1-8.7,0.2c-3,0-6.1,0.1-9.3,0.1c-6.4,0.1-13.1,0-20.1,0c-7-0.1-14.2-0.3-21.5-0.4
	c-7.3-0.2-14.8-0.4-22.2-0.6c-7.4-0.2-14.9-0.5-22.2-0.7c-7.3-0.3-14.5-0.5-21.5-0.8s-13.7-0.5-20.1-0.8s-12.4-0.6-18-0.9
	c-5.6-0.3-10.7-0.6-15.2-0.9c-2.3-0.1-4.4-0.3-6.3-0.4c-2-0.2-3.8-0.3-5.4-0.4c-1.6-0.1-3.1-0.3-4.3-0.4c-1.3-0.1-2.3-0.3-3.2-0.4
	c-1.7-0.2-2.7-0.3-2.7-0.3L111,140.8L111,140.8z"/>
</svg>
