<?xml version="1.0" encoding="utf-8"?>
<!-- Generator: Adobe Illustrator 19.2.0, SVG Export Plug-In . SVG Version: 6.00 Build 0)  -->
<svg version="1.1" id="Layer_1" xmlns="http://www.w3.org/2000/svg" xmlns:xlink="http://www.w3.org/1999/xlink" x="0px" y="0px"
	 viewBox="0 0 460 232.9" style="enable-background:new 0 0 460 232.9;" xml:space="preserve">
<style type="text/css">
	.st0{fill:none;stroke:#000000;stroke-width:5;stroke-miterlimit:10;}
	.st1{opacity:0.9;fill:url(#SVGID_1_);enable-background:new    ;}
	.st2{opacity:0.7;fill:#EAEAEA;enable-background:new    ;}
</style>
<path class="st0" d="M6588.6-1037.7c0.3,38.5,0.2,82.4-5.7,120.5c-2.3,14.7-3.7,31.7-10.6,44.9c-9.4,17.9-18.6,35.9-34,49.5
	c-5.5,4.9-11.5,9.2-17.9,12.8c-4.2,2.3-15.3,5.1-15.9,10.8c-0.4,3.6,3.8,5.7,6.9,7.6c6.9,4.3,10.9,12.3,11.6,20.4
	c1.5,15.4-5.6,30.7-18.9,38.8c-0.8,0.5-1.6,1-1.9,1.8c-0.7,2.1,2.1,3.4,4.2,3.8c12.1,2.1,24,5,35.7,8.7c7.7,2.4,24.3,10.6,12,18.5
	c-7.7,4.9-17,6.2-26,7.3c-24.7,3.1-49.7,6.2-74.5,3.9c-5.6-0.5-11.2-1.4-16.8-2.2l-22.5-3.3c-5.3-0.8-11.8-2.7-12.7-7.9
	c-1.7-10.2,16.6-15.1,23.6-17.2c4.9-1.5,36.5-4.6,35.6-9.3c-0.5-2.4-2.8-3.9-4.8-5.4c-8.9-6.4-15-16.4-16.6-27.2s1.3-22.2,7.9-30.9
	c2.2-2.9,4.9-6,4.4-9.6c-0.2-1.5-1-2.9-2-4.1c-5.1-6.7-15.9-9.5-22.8-14.7c-7.9-6-15.2-12.8-21.6-20.4
	c-12.5-14.5-22.1-31.5-27.6-49.9c-5.2-17.2-6.9-35.3-8.2-53.2c-2.3-31-3.6-62-3.8-93.1c20.2-2.4,42-1.8,62.4-1.4
	C6480.9-1037.1,6588.6-1039.8,6588.6-1037.7L6588.6-1037.7z"/>
<path d="M6462-722.8v1.9c0,0.6,0.1,1.3,0.6,1.9c0.4,0.6,1.2,0.8,2.2,0.8c2.1-0.1,4.5-0.2,7.1-0.2c1.3,0,2.7-0.1,4-0.1
	c1.4-0.1,2.8-0.1,4.1-0.2c1.4-0.1,2.8-0.1,4.1-0.2c1.4-0.1,2.7-0.1,4-0.2c2.6-0.1,5-0.2,7.1-0.3c2-0.1,3.7-0.6,4.6-1.3
	c0.4-0.4,0.7-0.8,0.8-1.1c0.1-0.3,0.2-0.5,0.2-0.5v0.5c-0.1,0.3-0.2,0.8-0.6,1.3s-1.1,1-1.9,1.4c-0.8,0.4-1.8,0.7-2.8,0.8
	c-2.1,0.4-4.5,0.7-7.1,0.9c-1.3,0.1-2.7,0.3-4,0.4c-1.4,0.1-2.8,0.2-4.2,0.2c-1.4,0-2.8,0.1-4.2,0.1h-4.1c-2.6-0.1-5.1-0.2-7.2-0.4
	c-0.5-0.1-1.1-0.1-1.6-0.4c-0.5-0.3-0.9-0.7-1.1-1.1c-0.4-0.9-0.4-1.7-0.3-2.3c0.1-0.6,0.2-1.1,0.3-1.4
	C6461.9-722.6,6462-722.8,6462-722.8L6462-722.8z M6461.6-807.4c0,0,0.6,0.2,1.6,0.5c0.5,0.2,1.2,0.3,1.9,0.5s1.6,0.4,2.4,0.5
	c0.9,0.2,1.9,0.3,2.9,0.5c1,0.1,2.1,0.2,3.3,0.3c1.1,0.1,2.3,0.1,3.5,0.2h3.6c1.2,0,2.5,0,3.7-0.1c1.2,0,2.4-0.1,3.6-0.1
	c2.3-0.1,4.5-0.1,6.3-0.3s3.2-0.6,4.1-1.2c0.4-0.3,0.8-0.6,1-0.8l0.3-0.3c0,0-0.1,0.1-0.2,0.4c-0.2,0.3-0.4,0.6-0.8,1
	c-0.8,0.8-2.3,1.6-4.2,2c-0.9,0.2-2,0.4-3,0.5c-1.1,0.1-2.2,0.3-3.3,0.4l-3.6,0.3c-1.2,0.1-2.5,0.1-3.7,0.2c-1.3,0-2.5,0-3.7-0.1
	c-0.6,0-1.2-0.1-1.8-0.1c-0.6-0.1-1.2-0.1-1.8-0.2c-1.2-0.1-2.3-0.4-3.4-0.6c-0.5-0.1-1-0.3-1.5-0.4c-0.5-0.2-1-0.3-1.4-0.4
	c-1.8-0.6-3.2-1.3-4.2-1.8C6462.2-807.1,6461.6-807.4,6461.6-807.4L6461.6-807.4z M6411.5-705.3l0.3,0.3c0.2,0.2,0.5,0.4,1,0.6
	c0.9,0.5,2.3,1,4.2,1.4c1.9,0.4,4.2,0.7,6.8,1.1c2.6,0.4,5.6,0.7,8.9,1.1c3.3,0.3,6.8,0.7,10.6,1c3.7,0.3,7.7,0.5,11.8,0.7
	c8.2,0.3,17,0.5,25.7,0.6c4.4,0.1,8.8,0.1,13.1,0.2c4.3,0,8.5,0.1,12.6,0c4.1-0.1,8-0.4,11.7-0.8c3.7-0.5,7.2-1.1,10.4-1.7
	c6.4-1.4,11.6-3,15.2-4.3c1.8-0.7,3.2-1.2,4.2-1.6l1.5-0.6c0,0-0.5,0.2-1.4,0.7c-0.9,0.4-2.3,1.1-4.1,1.8c-3.5,1.5-8.7,3.5-15.1,5.1
	c-6.4,1.6-14.1,2.9-22.3,3.2c-4.1,0.2-8.4,0.2-12.7,0.2c-4.3,0-8.7-0.1-13.1-0.1c-4.4-0.1-8.8-0.2-13.1-0.3
	c-4.3-0.1-8.6-0.4-12.7-0.6c-4.1-0.3-8.1-0.6-11.8-1c-3.8-0.4-7.3-0.8-10.6-1.3c-1.6-0.3-3.2-0.5-4.7-0.7c-1.5-0.3-2.9-0.5-4.2-0.8
	c-2.6-0.5-4.9-1-6.8-1.5s-3.3-1.1-4.1-1.7c-0.4-0.3-0.7-0.5-0.9-0.7C6411.6-705.2,6411.5-705.3,6411.5-705.3L6411.5-705.3z"/>
<linearGradient id="SVGID_1_" gradientUnits="userSpaceOnUse" x1="6378.7998" y1="-1422.8732" x2="6584.7002" y2="-1422.8732" gradientTransform="matrix(1 0 0 1 0 507)">
	<stop  offset="1.800000e-02" style="stop-color:#801FE3"/>
	<stop  offset="1" style="stop-color:#B7A7FF"/>
</linearGradient>
<path class="st1" d="M6378.8-1009.5c1.4,24.4,2.7,48.8,4.1,73.2c0.4,7.9,0.9,15.9,2.2,23.7c1.8,11.1,5.4,21.8,8.9,32.5
	c3,9.1,6,18.2,11.1,26.3c17.8,28.1,51.5,32.7,81.9,31.3c10.6-0.5,21.3-1.5,31.5-4.7c66.9-21.3,65.2-117,66.1-172.7
	c0-2.6,0.1-5.1,0.1-7.7C6516-1005.4,6447.2-1003.6,6378.8-1009.5L6378.8-1009.5z"/>
<path d="M6373.7-1029.2c0,0,0.6,8.1,1.5,22.2c0.5,7.1,1,15.6,1.7,25.5c0.6,9.8,1.4,20.9,2.1,33.1c0.4,6.1,0.7,12.4,1.3,18.9
	c0.5,6.5,1.4,13.2,3,19.9s3.7,13.5,6,20.4c2.4,6.9,4.5,14,7.5,20.9c0.8,1.7,1.5,3.4,2.4,5.1c0.9,1.6,1.8,3.3,2.8,4.8
	c1.1,1.6,2.2,3.1,3.4,4.7c1.2,1.4,2.5,2.8,3.7,4.3c5.3,5.5,11.7,10,18.8,13.2c7.1,3.3,14.8,5.4,22.6,6.6c7.9,1.3,15.9,1.7,23.9,1.7
	c8-0.1,16.1-0.4,24-1.5c3.9-0.5,7.9-1.2,11.7-2.2c1-0.3,1.9-0.5,2.8-0.8l0.7-0.2h0.1l0.2-0.1l0.4-0.1l1.4-0.5l2.8-1
	c0.5-0.2,0.9-0.3,1.4-0.5l1.3-0.6c7.1-3.1,13.7-7.4,19.4-12.5c5.7-5.1,10.5-11.1,14.4-17.5c4-6.3,7.1-13.1,9.7-19.8
	c2.6-6.8,4.6-13.6,6.3-20.3c3.2-13.5,5-26.5,6.2-38.5c1.1-12.1,1.7-23.2,2-33c0.3-9.9,0.5-18.4,0.7-25.5c0.2-14.2,0.4-22.2,0.4-22.2
	s0,2,0.1,5.8c0,3.8,0.1,9.4,0.2,16.4c0,7.1,0,15.7-0.2,25.5c-0.1,9.9-0.5,21-1.5,33.1c-1,12.1-2.6,25.2-5.7,38.9
	c-1.6,6.8-3.6,13.7-6.1,20.6c-2.5,6.9-5.7,13.8-9.8,20.3c-4,6.5-9,12.7-14.8,18.1c-5.9,5.4-12.7,9.8-20.2,13.1l-1.4,0.6
	c-0.5,0.2-0.9,0.4-1.4,0.5l-2.8,1l-1.4,0.5l-0.4,0.1l-0.2,0.1l-0.2,0.1l-0.7,0.2c-1,0.3-2,0.6-2.9,0.8c-3.9,1-8,1.8-12,2.4
	c-8.1,1.1-16.2,1.5-24.4,1.6c-8.2,0-16.3-0.5-24.4-1.8c-8-1.3-16-3.5-23.3-7c-7.4-3.4-14.1-8.1-19.6-13.9c-1.3-1.5-2.6-3.1-3.9-4.6
	c-1.1-1.6-2.2-3.2-3.3-4.7c-2.2-3.4-3.9-6.8-5.4-10.4c-3-7.1-5.2-14.2-7.5-21.2c-2.2-7-4.3-13.9-5.8-20.7
	c-1.6-6.9-2.4-13.6-2.8-20.2c-0.5-6.6-0.7-12.9-1-18.9c-0.6-12.1-1.1-23.2-1.6-33.1s-0.8-18.4-1.2-25.5
	C6374-1021.2,6373.7-1029.2,6373.7-1029.2L6373.7-1029.2z"/>
<path d="M6374.1-1013.8c0,0,0.8,0,2.4,0.1s3.8,0.2,6.7,0.3c2.9,0.2,6.4,0.3,10.5,0.5c4,0.2,8.6,0.3,13.6,0.5s10.4,0.3,16.1,0.5
	s11.7,0.2,17.9,0.4c6.2,0.1,12.6,0.1,19.2,0.2c6.5,0.1,13.2,0,19.8,0.1c6.6,0,13.3,0,19.8-0.1s13-0.1,19.2-0.2
	c12.5-0.1,24.1-0.2,34-0.3c10-0.1,18.3-0.1,24.1-0.1h9.1c0,0-0.8,0.1-2.4,0.2c-1.6,0.1-3.8,0.2-6.7,0.4c-5.8,0.3-14.1,0.8-24.1,1.3
	s-21.6,0.9-34,1.3c-6.2,0.1-12.7,0.4-19.2,0.4c-6.5,0.1-13.2,0.1-19.8,0.2c-6.6,0-13.3,0-19.8-0.2c-6.5-0.1-13-0.3-19.2-0.4
	c-6.2-0.2-12.3-0.4-18-0.8c-2.9-0.2-5.6-0.3-8.3-0.5c-2.7-0.2-5.3-0.4-7.8-0.5c-2.5-0.2-4.9-0.3-7.1-0.5c-2.3-0.2-4.4-0.4-6.4-0.6
	c-4-0.4-7.6-0.7-10.4-1c-2.9-0.3-5.2-0.6-6.7-0.7C6374.9-1013.7,6374.1-1013.8,6374.1-1013.8L6374.1-1013.8z"/>
<path class="st2" d="M314.7,29.7c-5.9-0.3-11.8-0.5-17.8-0.8c-26.2-1.2-52.4-2.4-78.5-0.1c-25.1,2.2-50.3,7.8-75.4,4.7
	c-0.4,0.1-0.8,0.3-1.2,0.4c0.8,9.4,1.7,18.7,2.8,28c1.9,15.3,5,31.7,16.4,42.1c10.7,9.9,26.2,12,40.7,13.7c18.8,2.2,37.2,3.8,56,1.4
	c9.3-1.2,18.1-4.7,26.7-8.6c9.1-4.2,18.3-9.3,23.4-17.9c4.5-7.6,5-16.9,5.3-25.7C313.6,54.5,314.2,42.1,314.7,29.7z"/>
<path class="st0" d="M137.1,11.5c0.1,17.9,0.6,35.8,1.5,53.7c0.8,16.7,2.4,34.6,13.2,47.4c7.1,8.5,17.8,14.2,22,24.4
	c2.8,6.9,2.1,14.7,1.4,22.1c-1.1,10.4-2.1,20.8-3.2,31.2c-0.7,7.2-3.9,18.3-0.6,25.1c1.6,3.2,4.1,5.7,6.9,7.9
	c2.3,1.8,4.7,3.4,7.3,4.5c7.5,3.1,15.8,2,23.6,1.6c9.8-0.6,19.7,0.1,29.6,0c10.9-0.1,22.1-0.5,32.3-4.4c5.4-2.1,10.7-5.4,13.3-10.6
	c2.4-4.9,2-10.6,1.5-16c-1.2-13.1-2.9-25.5-4.2-38.6c-0.8-8-1.4-16.5,2-23.8c2.7-5.8,7.6-10.1,12.1-14.6
	c10.1-9.9,19.3-21.5,22.1-35.3c5.2-26,5.7-51.6,4.4-78C302.9,7.4,154.4,12.4,137.1,11.5L137.1,11.5z"/>
<path d="M141.9,18.2c0,0,0.5,5,1.4,13.7c0.4,4.3,1,9.6,1.8,15.6c0.4,3,0.8,6.2,1.3,9.6c0.5,3.4,1,6.9,1.7,10.6
	c1.4,7.3,3.4,15.2,7.6,22.4c2.1,3.6,4.8,7,8.1,9.8c0.4,0.4,0.9,0.7,1.3,1.1l1.3,0.9c0.8,0.7,1.9,1.2,2.8,1.8c1.9,1.1,4,2.1,6.1,2.9
	c8.5,3.4,18.1,4.6,27.8,5.7c9.7,1.1,19.6,2.1,29.6,2.4c5,0.2,9.9,0.2,14.8-0.1c2.5-0.1,4.9-0.3,7.3-0.5c2.4-0.3,4.9-0.5,7.2-0.9
	c9.4-1.8,18.3-5.6,26.7-9.6c4.2-2,8.1-4.3,11.5-7s6.3-5.9,8.3-9.5c1.9-3.6,3-7.6,3.7-11.5s0.9-7.8,1.1-11.5
	c0.4-7.5,0.8-14.3,1.1-20.4c0.4-6.1,0.7-11.4,0.9-15.7c0.6-8.7,0.9-13.7,0.9-13.7s-0.1,5-0.3,13.7c-0.1,4.4-0.2,9.7-0.4,15.7
	c-0.1,6.1-0.3,12.9-0.6,20.4c-0.1,3.7-0.3,7.7-0.9,11.7c-0.6,4.1-1.6,8.3-3.7,12.3c-2,4-5.1,7.5-8.7,10.4c-3.6,3-7.7,5.3-11.9,7.4
	c-4.2,2.1-8.6,4.1-13.1,5.9c-4.5,1.8-9.3,3.3-14.2,4.2c-2.5,0.5-5,0.7-7.5,1l-7.5,0.6c-5,0.3-10,0.3-15.1,0.1
	c-10-0.3-20-1.4-29.8-2.5c-4.9-0.6-9.8-1.2-14.5-2.1c-4.8-0.9-9.5-2.2-13.9-4c-2.2-0.9-4.4-2-6.4-3.2l-1.5-1c-0.5-0.3-1-0.6-1.5-1
	l-1.4-1.1c-0.5-0.4-0.9-0.7-1.3-1.1c-3.5-3.1-6.3-6.7-8.4-10.6c-4.3-7.7-6.1-15.8-7.4-23.2c-1.2-7.4-1.8-14.3-2.4-20.3
	c-0.5-6.1-0.9-11.4-1.2-15.7c-0.3-4.4-0.5-7.8-0.6-10.1C142,19.5,141.9,18.2,141.9,18.2L141.9,18.2z M184.6,141.5l0.9,0.6
	c0.3,0.2,0.6,0.5,1,0.7c0.4,0.3,0.9,0.6,1.4,0.9c0.5,0.3,1.2,0.7,1.8,1.1c0.7,0.4,1.4,0.7,2.2,1.1c1.6,0.7,3.5,1.5,5.6,2.2
	s4.4,1.3,6.8,1.8s5.1,0.9,7.8,1.2c2.7,0.3,5.5,0.5,8.4,0.6s5.8,0.2,8.7,0.2c2.9,0,5.8-0.1,8.7-0.3c2.9-0.2,5.7-0.4,8.4-0.8
	s5.3-0.7,7.8-1.2s4.8-1,6.9-1.6s4-1.1,5.7-1.7c1.7-0.6,3.2-1.1,4.3-1.6c1.2-0.5,2.1-0.9,2.8-1.1c0.6-0.3,1-0.4,1-0.4
	s-0.3,0.2-0.9,0.5s-1.5,0.8-2.6,1.4c-1.2,0.6-2.6,1.2-4.2,1.9c-1.7,0.7-3.6,1.4-5.7,2.1c-4.2,1.4-9.3,2.6-14.8,3.4
	c-2.7,0.4-5.6,0.8-8.5,1s-5.9,0.3-8.8,0.4c-3,0-5.9-0.1-8.8-0.2c-2.9-0.2-5.8-0.4-8.5-0.8c-5.5-0.7-10.6-2-14.8-3.6
	c-2.1-0.8-3.9-1.7-5.5-2.6c-0.8-0.5-1.5-0.9-2.2-1.3l-1.8-1.2c-1-0.8-1.8-1.4-2.3-1.9C184.9,141.7,184.6,141.5,184.6,141.5
	L184.6,141.5z M178.2,205.1c0,0,1.6,0.5,4.3,1.3c1.4,0.4,3,0.9,5,1.4c1,0.3,2,0.5,3.1,0.8s2.2,0.6,3.4,0.8c1.2,0.3,2.4,0.5,3.7,0.8
	c1.3,0.2,2.6,0.5,4,0.8c2.8,0.5,5.7,1,8.7,1.4c0.8,0.1,1.5,0.2,2.3,0.3s1.5,0.2,2.3,0.2c1.6,0.2,3.1,0.3,4.7,0.4
	c1.6,0.1,3.2,0.3,4.8,0.3c1.6,0.1,3.2,0.2,4.9,0.2c3.2,0.1,6.5,0,9.7-0.1s6.3-0.3,9.4-0.6c1.5-0.2,3-0.3,4.5-0.5s2.9-0.4,4.3-0.6
	c2.8-0.4,5.4-0.9,7.7-1.4c2.4-0.6,4.5-1.2,6.3-1.9s3.4-1.5,4.6-2.2s2.1-1.4,2.7-1.8c0.6-0.5,0.9-0.7,0.9-0.7s-0.3,0.3-0.9,0.8
	s-1.4,1.3-2.6,2.1c-2.4,1.6-6.1,3.6-10.8,4.9c-2.4,0.7-5,1.3-7.8,1.8c-1.4,0.2-2.8,0.5-4.3,0.7l-4.5,0.6c-3.1,0.3-6.2,0.7-9.5,0.8
	c-3.2,0.2-6.5,0.2-9.8,0.2c-1.6,0-3.3-0.1-4.9-0.2c-1.6-0.1-3.3-0.2-4.9-0.3c-0.8-0.1-1.6-0.1-2.4-0.2l-2.4-0.3
	c-0.8-0.1-1.6-0.2-2.3-0.3c-0.8-0.1-1.5-0.2-2.3-0.4c-3-0.4-6-1-8.7-1.6c-1.4-0.3-2.7-0.6-4-0.9c-1.3-0.3-2.5-0.7-3.7-1
	c-2.4-0.6-4.5-1.4-6.4-2c-1.9-0.7-3.5-1.2-4.9-1.7C179.7,205.8,178.2,205.1,178.2,205.1L178.2,205.1z"/>
<path d="M144,29.3c0,0,0.7,0.1,1.9,0.2c1.3,0.1,3.1,0.3,5.5,0.4c1.2,0.1,2.5,0.1,3.9,0.1s2.9,0.1,4.6,0c1.6,0,3.4-0.1,5.2-0.2
	c1.8-0.1,3.8-0.2,5.8-0.4c4-0.3,8.4-0.7,13-1.3c4.6-0.6,9.4-1.2,14.4-1.9s10.2-1.4,15.5-2s10.7-1.1,16.1-1.5s10.8-0.6,16.1-0.7
	c5.3-0.2,10.6-0.2,15.6-0.1c5.1,0.1,10,0.2,14.6,0.5c4.6,0.2,9,0.5,13,0.8s7.7,0.6,11,0.8c3.3,0.3,6.1,0.5,8.5,0.7
	c4.7,0.4,7.4,0.7,7.4,0.7v0.3h-7.4c-2.4,0-5.2,0-8.5-0.1s-7-0.1-11-0.2s-8.4-0.2-13-0.3c-4.6-0.1-9.5-0.2-14.5-0.3
	c-10.1-0.2-20.8-0.3-31.5,0.1c-5.3,0.2-10.7,0.6-16,1.1s-10.4,1.1-15.5,1.7c-5,0.6-9.9,1.1-14.5,1.6c-4.6,0.4-9,0.8-13,1
	c-2,0.1-4,0.2-5.8,0.2c-1.8,0.1-3.6,0-5.2,0s-3.2-0.1-4.6-0.1s-2.7-0.1-3.9-0.2c-2.4-0.1-4.2-0.4-5.5-0.5s-1.9-0.2-1.9-0.2L144,29.3
	L144,29.3z"/>
</svg>
