<svg id="Layer_1" xmlns="http://www.w3.org/2000/svg" viewBox="0 0 700 700"><style>.st0,.st1{fill:none}.st1{stroke:#000;stroke-width:5;stroke-miterlimit:10}.st2{opacity:.9;fill:url(#SVGID_1_)}.st3{opacity:.86}.st4{fill:#c4053b}.st5{stroke-width:2}.st5,.st6{fill:none;stroke:#000;stroke-miterlimit:10}</style><path class="st0" d="M0 0h700v700H0z"/><path class="st1" d="M6708.6-568.1c.3 38.5.2 82.4-5.7 120.5-2.3 14.7-3.7 31.7-10.6 44.9-9.4 17.9-18.6 35.9-34 49.5-5.5 4.9-11.5 9.2-17.9 12.8-4.2 2.3-15.3 5.1-15.9 10.8-.4 3.6 3.8 5.7 6.9 7.6 6.9 4.3 10.9 12.3 11.6 20.4 1.5 15.4-5.6 30.7-18.9 38.8-.8.5-1.6 1-1.9 1.8-.7 2.1 2.1 3.4 4.2 3.8 12.1 2.1 24 5 35.7 8.7 7.7 2.4 24.3 10.6 12 18.5-7.7 4.9-17 6.2-26 7.3-24.7 3.1-49.7 6.2-74.5 3.9-5.6-.5-11.2-1.4-16.8-2.2l-22.5-3.3c-5.3-.8-11.8-2.7-12.7-7.9-1.7-10.2 16.6-15.1 23.6-17.2 4.9-1.5 36.5-4.6 35.6-9.3-.5-2.4-2.8-3.9-4.8-5.4-8.9-6.4-15-16.4-16.6-27.2-1.6-10.8 1.3-22.2 7.9-30.9 2.2-2.9 4.9-6 4.4-9.6-.2-1.5-1-2.9-2-4.1-5.1-6.7-15.9-9.5-22.8-14.7-7.9-6-15.2-12.8-21.6-20.4-12.5-14.5-22.1-31.5-27.6-49.9-5.2-17.2-6.9-35.3-8.2-53.2-2.3-31-3.6-62-3.8-93.1 20.2-2.4 42-1.8 62.4-1.4 52.8 1.1 160.5-1.6 160.5.5z"/><path d="M6582-253.2v1.9c0 .6.1 1.3.6 1.9.4.6 1.2.8 2.2.8 2.1-.1 4.5-.2 7.1-.2 1.3 0 2.7-.1 4-.1 1.4-.1 2.8-.1 4.1-.2 1.4-.1 2.8-.1 4.1-.2 1.4-.1 2.7-.1 4-.2 2.6-.1 5-.2 7.1-.3 2-.1 3.7-.6 4.6-1.3.4-.4.7-.8.8-1.1.1-.3.2-.5.2-.5v.5c-.1.3-.2.8-.6 1.3-.4.5-1.1 1-1.9 1.4-.8.4-1.8.7-2.8.8-2.1.4-4.5.7-7.1.9-1.3.1-2.7.3-4 .4-1.4.1-2.8.2-4.2.2-1.4 0-2.8.1-4.2.1h-4.1c-2.6-.1-5.1-.2-7.2-.4-.5-.1-1.1-.1-1.6-.4-.5-.3-.9-.7-1.1-1.1-.4-.9-.4-1.7-.3-2.3.1-.6.2-1.1.3-1.4-.1-.3 0-.5 0-.5zm-.4-84.6s.6.2 1.6.5c.5.2 1.2.3 1.9.5s1.6.4 2.4.5c.9.2 1.9.3 2.9.5 1 .1 2.1.2 3.3.3 1.1.1 2.3.1 3.5.2h3.6c1.2 0 2.5 0 3.7-.1 1.2 0 2.4-.1 3.6-.1 2.3-.1 4.5-.1 6.3-.3 1.8-.2 3.2-.6 4.1-1.2.4-.3.8-.6 1-.8l.3-.3s-.1.1-.2.4c-.2.3-.4.6-.8 1-.8.8-2.3 1.6-4.2 2-.9.2-2 .4-3 .5-1.1.1-2.2.3-3.3.4l-3.6.3c-1.2.1-2.5.1-3.7.2-1.3 0-2.5 0-3.7-.1-.6 0-1.2-.1-1.8-.1-.6-.1-1.2-.1-1.8-.2-1.2-.1-2.3-.4-3.4-.6-.5-.1-1-.3-1.5-.4-.5-.2-1-.3-1.4-.4-1.8-.6-3.2-1.3-4.2-1.8-1-.6-1.6-.9-1.6-.9zm-50.1 102.1l.3.3c.2.2.5.4 1 .6.9.5 2.3 1 4.2 1.4 1.9.4 4.2.7 6.8 1.1 2.6.4 5.6.7 8.9 1.1 3.3.3 6.8.7 10.6 1 3.7.3 7.7.5 11.8.7 8.2.3 17 .5 25.7.6 4.4.1 8.8.1 13.1.2 4.3 0 8.5.1 12.6 0s8-.4 11.7-.8c3.7-.5 7.2-1.1 10.4-1.7 6.4-1.4 11.6-3 15.2-4.3 1.8-.7 3.2-1.2 4.2-1.6l1.5-.6s-.5.2-1.4.7c-.9.4-2.3 1.1-4.1 1.8-3.5 1.5-8.7 3.5-15.1 5.1-6.4 1.6-14.1 2.9-22.3 3.2-4.1.2-8.4.2-12.7.2-4.3 0-8.7-.1-13.1-.1-4.4-.1-8.8-.2-13.1-.3-4.3-.1-8.6-.4-12.7-.6-4.1-.3-8.1-.6-11.8-1-3.8-.4-7.3-.8-10.6-1.3-1.6-.3-3.2-.5-4.7-.7-1.5-.3-2.9-.5-4.2-.8-2.6-.5-4.9-1-6.8-1.5-1.9-.5-3.3-1.1-4.1-1.7-.4-.3-.7-.5-.9-.7-.3-.2-.4-.3-.4-.3z"/><linearGradient id="SVGID_1_" gradientUnits="userSpaceOnUse" x1="6498.813" y1="-446.236" x2="6704.691" y2="-446.236"><stop offset=".018" stop-color="#801fe3"/><stop offset="1" stop-color="#b7a7ff"/></linearGradient><path class="st2" d="M6498.8-539.9c1.4 24.4 2.7 48.8 4.1 73.2.4 7.9.9 15.9 2.2 23.7 1.8 11.1 5.4 21.8 8.9 32.5 3 9.1 6 18.2 11.1 26.3 17.8 28.1 51.5 32.7 81.9 31.3 10.6-.5 21.3-1.5 31.5-4.7 66.9-21.3 65.2-117 66.1-172.7 0-2.6.1-5.1.1-7.7-68.7 2.2-137.5 4-205.9-1.9z"/><path d="M6493.7-559.6s.6 8.1 1.5 22.2c.5 7.1 1 15.6 1.7 25.5.6 9.8 1.4 20.9 2.1 33.1.4 6.1.7 12.4 1.3 18.9.5 6.5 1.4 13.2 3 19.9 1.6 6.7 3.7 13.5 6 20.4 2.4 6.9 4.5 14 7.5 20.9.8 1.7 1.5 3.4 2.4 5.1.9 1.6 1.8 3.3 2.8 4.8 1.1 1.6 2.2 3.1 3.4 4.7 1.2 1.4 2.5 2.8 3.7 4.3 5.3 5.5 11.7 10 18.8 13.2 7.1 3.3 14.8 5.4 22.6 6.6 7.9 1.3 15.9 1.7 23.9 1.7 8-.1 16.1-.4 24-1.5 3.9-.5 7.9-1.2 11.7-2.2 1-.3 1.9-.5 2.8-.8l.7-.2h.1l.2-.1.4-.1 1.4-.5 2.8-1c.5-.2.9-.3 1.4-.5l1.3-.6c7.1-3.1 13.7-7.4 19.4-12.5 5.7-5.1 10.5-11.1 14.4-17.5 4-6.3 7.1-13.1 9.7-19.8 2.6-6.8 4.6-13.6 6.3-20.3 3.2-13.5 5-26.5 6.2-38.5 1.1-12.1 1.7-23.2 2-33 .3-9.9.5-18.4.7-25.5.2-14.2.4-22.2.4-22.2s0 2 .1 5.8c0 3.8.1 9.4.2 16.4 0 7.1 0 15.7-.2 25.5-.1 9.9-.5 21-1.5 33.1-1 12.1-2.6 25.2-5.7 38.9-1.6 6.8-3.6 13.7-6.1 20.6-2.5 6.9-5.7 13.8-9.8 20.3-4 6.5-9 12.7-14.8 18.1-5.9 5.4-12.7 9.8-20.2 13.1l-1.4.6c-.5.2-.9.4-1.4.5l-2.8 1-1.4.5-.4.1-.2.1-.2.1-.7.2c-1 .3-2 .6-2.9.8-3.9 1-8 1.8-12 2.4-8.1 1.1-16.2 1.5-24.4 1.6-8.2 0-16.3-.5-24.4-1.8-8-1.3-16-3.5-23.3-7-7.4-3.4-14.1-8.1-19.6-13.9-1.3-1.5-2.6-3.1-3.9-4.6-1.1-1.6-2.2-3.2-3.3-4.7-2.2-3.4-3.9-6.8-5.4-10.4-3-7.1-5.2-14.2-7.5-21.2-2.2-7-4.3-13.9-5.8-20.7-1.6-6.9-2.4-13.6-2.8-20.2-.5-6.6-.7-12.9-1-18.9-.6-12.1-1.1-23.2-1.6-33.1-.5-9.9-.8-18.4-1.2-25.5-.7-14.2-1-22.2-1-22.2z"/><path d="M6494.1-544.2s.8 0 2.4.1c1.6.1 3.8.2 6.7.3 2.9.2 6.4.3 10.5.5 4 .2 8.6.3 13.6.5s10.4.3 16.1.5c5.7.2 11.7.2 17.9.4 6.2.1 12.6.1 19.2.2 6.5.1 13.2 0 19.8.1 6.6 0 13.3 0 19.8-.1s13-.1 19.2-.2c12.5-.1 24.1-.2 34-.3 10-.1 18.3-.1 24.1-.1h9.1s-.8.1-2.4.2c-1.6.1-3.8.2-6.7.4-5.8.3-14.1.8-24.1 1.3-10 .5-21.6.9-34 1.3-6.2.1-12.7.4-19.2.4-6.5.1-13.2.1-19.8.2-6.6 0-13.3 0-19.8-.2-6.5-.1-13-.3-19.2-.4-6.2-.2-12.3-.4-18-.8-2.9-.2-5.6-.3-8.3-.5-2.7-.2-5.3-.4-7.8-.5-2.5-.2-4.9-.3-7.1-.5-2.3-.2-4.4-.4-6.4-.6-4-.4-7.6-.7-10.4-1-2.9-.3-5.2-.6-6.7-.7-1.7-.4-2.5-.5-2.5-.5z"/><path class="st1" d="M429.7 666.3c6.3.5 14.8 3 17.4 8.6 1.9 4 .9 8.8-2.5 11.8s-9.5 4.3-13.9 5.4c-41.2 10.8-140.8 11.4-169.9-4.5-1.7-.9-3.5-1.8-4.8-3.3-3.4-4.1-1.4-10.6 2.9-13.9 4.2-3.3 9.8-4.1 15.2-4.9 16.2-2.6 31.5-1.9 43.2-13 28-26.6 23.3-75.6 23.7-115.8.2-21.5-.8-42.3-.6-63.8.2-19.5-.1-40.6-11.9-56.3-4.5-6-10.5-10.8-16.4-15.6-26.2-21.1-49.1-40.5-65.8-69.9-8.6-15.2-12.3-32.3-10.7-53.3.4-5.6 21.3-136.9 39.5-181.3 4.1-2.5 136.1-1.8 154.1 1.7 6.6 20 28.8 117 31.1 142.2 1.3 14.3 2.7 22.5 4 36.8 1.3 13.6-.8 30.8-4.3 44-4 15-13.9 27.8-24.6 39.2-14.6 15.7-31 29.6-48.9 41.6-5.1 3.4-10.4 6.7-14.2 11.5-16.9 21-14.6 52.6-14.9 78-.2 23.1 1 45.4 1.3 70.1.2 21.3.7 48.4 8.8 68.2 10.7 25.8 35.8 34.6 62.2 36.5z"/><path d="M333.2 640.8s.5.2 1.4.4c.9.3 2.1.7 3.6 1.1 1.5.4 3.2.8 5.1 1.1.9.2 1.9.3 2.9.4l3 .3c.5 0 1 .1 1.5.1h1.5c1 0 2 0 2.9-.1l2.7-.3c.8-.2 1.7-.3 2.4-.5 1.5-.4 2.7-.9 3.5-1.2.8-.4 1.3-.6 1.3-.6l-.3.3c-.2.2-.4.4-.8.7-.7.6-1.8 1.3-3.3 2-1.5.7-3.3 1.2-5.3 1.5-1 .1-2 .3-3.1.3h-1.6c-.5 0-1.1 0-1.6-.1-2.1-.2-4.2-.5-6.2-1-1.9-.5-3.7-1.1-5.1-1.8-1.4-.6-2.6-1.3-3.4-1.8-.4-.2-.7-.5-.9-.6l-.2-.2zm-71.7 31.5v.5c0 .3.2.9.4 1.5.3.6.7 1.3 1.4 2s1.6 1.3 2.8 1.8c1.1.5 2.5 1 3.9 1.5s3 1 4.7 1.6c3.4 1.1 7.1 2.4 11.3 3.5 4.2 1.2 8.8 2.2 13.7 2.7 4.9.4 10.2.7 15.6 1.1 5.4.3 11.1.7 16.8.9 2.9.1 5.7.2 8.6.3 2.9.1 5.8-.1 8.6-.2 11.6-.5 23.2-1.2 34.1-2.1 5.4-.4 10.7-.9 15.6-1.4 5-.5 9.7-1 13.9-1.7 1.1-.2 2.1-.3 3.2-.5 1-.2 2-.4 3-.5.5-.1 1-.2 1.4-.3.5-.1.9-.2 1.4-.3l2.7-.6c3.4-.9 6.3-1.9 8.7-2.7 2.4-.9 4.3-1.5 5.4-2.3.6-.4.9-.8 1.2-1 .2-.3.3-.4.3-.4s-.1.2-.3.4c-.2.3-.6.7-1.1 1.1-1.1.9-3 1.7-5.3 2.6-2.4 1-5.3 2-8.7 3.1-3.4 1-7.3 1.9-11.7 2.6-4.3.7-9 1.4-14 2-5 .6-10.2 1.2-15.7 1.6-10.9 1-22.5 1.8-34.1 2.3-2.9.1-5.8.2-8.8.2l-8.7-.3c-5.7-.3-11.3-.6-16.8-1-5.4-.4-10.7-.8-15.7-1.3-5-.6-9.7-1.8-13.8-3-4.2-1.2-8-2.6-11.3-3.9-1.7-.6-3.2-1.2-4.6-1.8-1.4-.6-2.8-1.1-3.9-1.6-1.2-.6-2.1-1.3-2.8-2-.7-.7-1.1-1.5-1.4-2.1-.3-.6-.3-1.2-.4-1.5.4-.7.4-.8.4-.8z"/><path class="st3 st4" d="M435.3 160.8c-27.4-2.7-54.8-4.4-82.3-5.2-28.2-.8-56.3-.7-84.5-.3-.9 0-1.7 0-2.6.1-10.7 49.1-22.2 109.2-22.9 114.6-.6 5.1-2.6 22.8-1.3 29 .2 0 .8 35.2 38.6 72.1 14.5 14.1 39.3 35.6 67.8 35.5 17.7-.1 34.4-7.1 49.6-16 20.1-11.8 47-39.6 54.8-67.6 1.8-6.3 4-22.5 3.7-24.5l.2.9c2.9-26.7-12.8-110.1-18.7-138.4-.7-.1-1.6-.2-2.4-.2z"/><path d="M423 98.4c1.7 3.8 2.8 7.8 3.9 11.7l3.3 12 6.2 24c1 4 1.8 8.1 2.7 12.1l2.5 12.1c1.6 8.1 3.2 16.2 4.7 24.3 1.5 8.1 2.9 16.3 4.2 24.4 1.3 8.2 2.6 16.3 3.7 24.5.6 4.1 1.1 8.2 1.6 12.3.5 4.1.9 8.2 1.3 12.4.3 4.1.7 8.3.8 12.4.1 4.2.2 8.3-.2 12.6l-.7 6.6-1.7-6.4-.2-.9 2.4-.5c0 .3.1.6 0 .8v.7l-.1 1.3c-.1.9-.2 1.7-.3 2.6-.2 1.7-.4 3.4-.7 5.1-.5 3.4-1 6.8-1.7 10.2-.4 1.7-.7 3.4-1.3 5.1-.5 1.6-1 3.3-1.6 4.9l-1.9 4.9-2.2 4.7c-3.1 6.2-6.9 12-11 17.6-4.1 5.5-8.6 10.8-13.5 15.7-4.9 4.9-10 9.5-15.6 13.6-2.8 2.1-5.6 4-8.6 5.8-3 1.8-6 3.4-9 5-3.1 1.6-6.2 3-9.4 4.4-3.2 1.3-6.5 2.5-9.8 3.6-6.6 2-13.5 3.4-20.5 3.6H349l-.7.1-.2.1h-.2l-.3-.1-2.6-.2c-.9 0-1.7-.1-2.6-.2l-2.6-.4-2.6-.4-2.6-.6-2.6-.6-2.5-.8c-6.7-2-13-4.9-19-8.4s-11.6-7.5-17-11.9-10.4-9-15.3-13.8c-9.8-9.7-18.4-20.7-25.1-32.8-3.3-6.1-6.2-12.4-8.4-18.9-1.1-3.3-2.1-6.6-2.8-10-.4-1.7-.7-3.4-1-5.1-.1-.9-.3-1.7-.4-2.6l-.1-1.3-.1-.6v-.4s0-.1 0 0c.4 0-1-.2 1.3 1l-1.3-1c-.4-2.3-.4-4.4-.4-6.5 0-2.1.1-4.2.2-6.3.3-4.2.6-8.4 1.1-12.6.4-4.2 1.2-8.3 2-12.5l2.4-12.3c3.2-16.4 6.5-32.8 10-49.2 1.7-8.2 3.5-16.4 5.2-24.5 1.8-8.2 3.6-16.3 5.4-24.5 1.8-8.2 3.7-16.3 5.7-24.4l1.5-6.1 1.6-6.1c1-4.1 2.2-8.1 3.3-12.1-1 4-2.2 8.1-3.1 12.2l-1.5 6.1-1.4 6.1c-1.9 8.2-3.6 16.3-5.4 24.5l-5.1 24.6-4.9 24.6c-3.3 16.4-6.4 32.8-9.5 49.3l-2.3 12.3c-.7 4.1-1.5 8.2-1.9 12.3-.4 4.1-.8 8.3-1 12.4-.1 2.1-.2 4.1-.2 6.2 0 2 .1 4.1.4 6l-1.3-1c2.2 1.2.9 1.1 1.3 1.1v.6l.1.6.1 1.2c.1.8.2 1.7.4 2.5.3 1.7.6 3.3 1 5 .8 3.3 1.7 6.5 2.8 9.7 2.2 6.4 5 12.6 8.3 18.5 6.6 11.8 15.1 22.6 24.7 32.1 9.7 9.5 20.1 18.4 31.8 25.2 5.8 3.4 12 6.2 18.4 8.1l2.4.7 2.5.5 2.4.5 2.4.3 2.4.3c.8.1 1.7.1 2.6.1l2.6.1h2.4c6.7-.2 13.3-1.5 19.8-3.4 3.2-1 6.4-2.1 9.5-3.4 3.1-1.3 6.2-2.7 9.2-4.3 3-1.5 6-3.2 8.9-4.9 2.9-1.7 5.7-3.6 8.4-5.6 5.4-4 10.5-8.5 15.3-13.3 4.8-4.8 9.2-9.9 13.3-15.4 4.1-5.4 7.7-11.1 10.8-17.1l2.2-4.6 1.9-4.6c.6-1.6 1.1-3.2 1.6-4.9.5-1.5.9-3.2 1.2-4.8.7-3.3 1.2-6.7 1.7-10 .2-1.7.5-3.4.7-5 .1-.8.2-1.7.3-2.5l.1-1.2v-1l.3-8.5 2.1 8 .2.9-2.4.2c.4-4 .4-8.1.3-12.2-.1-4.1-.4-8.2-.7-12.3-.3-4.1-.7-8.2-1.2-12.3-.4-4.1-.9-8.2-1.5-12.3-1.1-8.2-2.2-16.4-3.5-24.5-1.3-8.2-2.6-16.3-4-24.4-1.4-8.1-2.8-16.3-4.4-24.4l-2.3-12.2c-.8-4-1.6-8.1-2.5-12.1l-5.8-24.1c-1-4-2-8-3.1-12-.5-3.9-1.5-7.9-3.1-11.7z"/><path class="st5" d="M349.9 267.4c-3.1-6.9-17.8-14.4-25.2-16.8-12.6-4-25.3-8-37.9-12-2.7-.9-5.6-1.7-8.4-1.3-5 .8-8.1 5.4-10.4 9.5-5.1 9.2-9.8 18.7-14.1 28.3-3.8 8.6-3.1 17.2-2.6 26.4.2 2.9.5 6 2.6 8.2 1.5 1.6 3.7 2.5 5.8 3.3 11.5 4.6 23 9.2 35.1 12.3 7 1.8 14.6 3.1 21.4.8 8.7-3 13.7-11.1 18-18.6 5.7-9.8 11.4-19.7 17-29.5 1.1-1.9 2.3-4.1 1.8-6.2-.4-1.7-1.7-3.1-3.1-4.4z"/><path d="M254.9 280.7h1c.6 0 1.5-.1 2.7 0 1.2 0 2.6.1 4.2.2s3.5.3 5.4.7c4 .6 8.5 1.6 13.4 2.7 2.4.6 4.9 1.1 7.5 1.6 2.6.5 5.2 1.1 7.7 1.2 2.5.1 5-.4 6.6-2.1.8-.8 1.6-1.9 2.3-2.9.7-1.1 1.4-2.1 2.1-3.1 2.8-4.1 5.3-8 7.3-11.4 2.1-3.4 3.7-6.3 4.9-8.3 1.1-2 1.8-3.2 1.8-3.2s-.1.3-.4.9c-.2.6-.6 1.4-1.1 2.5-1 2.1-2.3 5.2-4.2 8.7-1.9 3.5-4.2 7.6-6.9 11.8-.7 1-1.4 2.1-2.1 3.2-.7 1.1-1.5 2.2-2.5 3.2s-2.4 1.8-3.8 2.2c-1.4.4-2.9.5-4.3.5s-2.8-.2-4.1-.5c-1.3-.3-2.6-.5-3.9-.8-2.6-.6-5.1-1.2-7.5-1.8-4.8-1.2-9.3-2.4-13.2-3.2-1.9-.4-3.7-.8-5.3-1-1.6-.3-3-.5-4.1-.6-1.2-.1-2.1-.2-2.7-.3-.5-.2-.8-.2-.8-.2zm47 7.6s.1-.1.4-.2c.3-.1.8 0 1.2.4.2.2.4.4.6.7.2.3.3.6.5.9.3.6.7 1.3 1.1 2.1.8 1.5 1.7 3.4 2.7 5.3.5 1 1 2 1.4 3 .5 1 1 2.1 1.4 3.2.5 1.1.9 2.1 1.4 3.2.5 1.1.9 2.1 1.3 3.1.8 2 1.5 3.9 2.1 5.6 1.2 3.3 1.8 5.6 1.8 5.6s-1.3-2-2.9-5.1c-.8-1.5-1.8-3.4-2.7-5.3-.5-1-1-2-1.4-3-.5-1-1-2.1-1.4-3.2-.5-1.1-.9-2.1-1.4-3.2-.5-1.1-.9-2.1-1.3-3.1-.8-2-1.5-3.9-2.1-5.6-.3-.8-.6-1.6-.8-2.3l-.3-.9c-.1-.3-.2-.5-.4-.7-.3-.4-.6-.6-.9-.6-.2 0-.3.1-.3.1z"/><path class="st5" d="M321.2 204.4c-1.7 12.6-4.2 25.2-7.6 37.7-.9 3.3-1.9 6.7-1.9 10 0 3.2.9 6.2 1.9 9 3.5 9.7 9.1 19.2 18.1 21.2 3 .7 6.2.5 9.4.5 14.6.1 28.4 4.8 43 4.9 3.3 0 6.9-.3 10-2.3 5.7-3.6 8.5-11.6 10.1-18.8 2.4-10.8 3.5-21.9 7.2-32.4 1.2-3.5 2.8-7.4 1.7-10.6-1.1-3.4-4.7-4.2-7.6-5.3-5.4-2.1-9.9-6.3-15-9.2-8.4-4.9-53.6-7.2-66.6-7.7-.6 0-1.2 0-1.7.3s-1.3 2.2-1 2.7z"/><path d="M321.8 205.8s1.1 1 3.1 2.9c1.9 1.9 4.7 4.5 8 7.8 1.7 1.6 3.4 3.4 5.4 5.1 1.9 1.8 4.1 3.5 6.4 5.1 1.2.8 2.4 1.5 3.7 2.1 1.3.6 2.7 1.1 4.1 1.4 2.8.7 5.8.9 8.9.9 3 0 6.1-.2 9.1-.5 3-.2 6-.4 8.9-.6 5.8-.4 11.1-.6 15.7-1.1 4.6-.5 8.3-1.2 10.9-2 2.6-.7 4.1-1.2 4.1-1.2s-.4.1-1 .4c-.7.3-1.7.7-2.9 1.1-2.6.9-6.3 2-10.9 2.7-4.6.8-10 1.2-15.7 1.7-2.9.2-5.9.5-8.9.7-3 .2-6.1.5-9.2.5-3.1 0-6.3-.2-9.4-1-3-.8-5.9-2.2-8.3-3.9-2.5-1.7-4.6-3.6-6.5-5.4-1.9-1.9-3.6-3.7-5.2-5.4-3.1-3.4-5.7-6.3-7.5-8.3-1.8-1.8-2.8-3-2.8-3zm27.1 25.4s-.2.7-.6 2c-.4 1.2-1 3-1.8 5.1-.7 2.1-1.6 4.6-2.5 7.2-.9 2.6-1.9 5.4-2.8 8.3-1 2.8-1.9 5.6-2.7 8.3-.9 2.7-1.7 5.1-2.3 7.3l-1.7 5.1c-.4 1.2-.7 1.9-.7 1.9s.1-.7.3-2c.2-1.3.5-3.1 1-5.3.4-2.2 1-4.8 1.8-7.5.4-1.4.7-2.8 1.2-4.2.4-1.4.9-2.8 1.3-4.3l1.5-4.2c.5-1.4 1.1-2.7 1.6-4 1.1-2.6 2.1-5 3.1-7s1.8-3.7 2.5-4.8c.4-1.3.8-1.9.8-1.9z"/><path class="st5" d="M277.6 354.5c19.3-14.8 17.5-15.8 37-30.4 18.8-14.1 37.7-28.1 58.7-38.3 20.7-10 43.5-16.2 61.5-30.8 3.9-3.3 7.8-7 12.6-8.4 2.2 31.4-2.2 62-12.6 88.4-2.1 5.5-18.2 25.7-23.9 30-13.3 10.1-25.8 15.5-42.5 18.2-22.3 3.5-37.8 3.5-60.1-10.7-7.7-5.1-22.4-12.1-30.7-18z"/><path class="st6" d="M284.3 348.5c1.6 1.5 3.1 2.6 4.8 4 3.4 3 7.3 5 11.2 6.8 20.9 10.2 39.8 16.7 60.6 14.6 12.6-1.8 24.1-7 35.4-12.1 6.2-2.8 12.5-5.7 17.5-10.5 7.4-7.1 11.5-17.7 15-28.5 5.9-18.4 10.7-37.9 7.5-59.5-.3-2.6-1.7-4.2-3.1-6.5"/><path class="st6" d="M365.6 289.8c1.5 1.6 1.8 4.1 1.3 6.2-.5 2.2-1.8 3.9-3.4 5.6-2.4 2.7-5.6 4.9-9.2 5.6-3.5.7-7.7-.7-9.6-3.7"/><path d="M363.4 302.9c2.2 2 4.3 4 6.5 5.9l6.6 5.8 3.3 2.9c1.1 1 2.2 2 3.3 2.9l6.7 5.7c2.2 1.9 4.5 3.8 6.8 5.6 1.1.9 2.3 1.8 3.4 2.7 1.2.9 2.3 1.8 3.5 2.6 1.2.8 2.5 1.5 3.8 2 .3.1.7.3 1 .4.3.1.7.2 1 .3.7.2 1.4.3 2.1.4 1.4.2 2.8.2 4.2-.1 1.4-.3 2.7-.8 3.9-1.6.2-.1.4-.4.7-.6l.3-.3.3-.3c1.3-1.2 2.1-2.9 2.8-4.6.7-1.7 1.2-3.6 1.7-5.4 1.1-3.6 2-7.3 2-11 0-.9-.1-1.8-.2-2.8-.1-.9-.3-1.8-.6-2.7-.6-1.8-1.4-3.4-2.5-4.9-1.1-1.4-2.6-2.6-4.2-3.4-1.7-.8-3.5-1.2-5.3-1.6l-1.4-.3-.4-.1c-.1 0-.2 0-.3-.1l-.7-.1-2.8-.4-5.6-.8-5.6-.8-2.8-.4c-.9-.1-1.9-.3-2.8-.3h-2.8c-1 0-1.9-.1-2.9-.2l-5.7-.4c-1.9-.1-3.8-.2-5.7-.6-1.9-.3-3.7-.7-5.5-1.2 1.8.5 3.7.9 5.6 1.1 1.9.3 3.8.3 5.7.4l5.7.3c1 0 1.9.1 2.8.1h2.8c1 0 1.9.1 2.9.2l2.8.4 5.6.7 5.6.7 2.8.4.7.1c.1 0 .2 0 .4.1l.3.1 1.4.3c1.9.3 3.8.8 5.5 1.6 1.8.8 3.3 2.1 4.5 3.6 1.2 1.5 2.1 3.3 2.7 5.2.3.9.5 1.9.6 2.9.1.9.2 1.9.2 2.9 0 3.9-.9 7.6-2 11.3-.5 1.8-1 3.7-1.8 5.4-.7 1.8-1.6 3.6-3.1 5l.1-.1c-.1.1-.2.3-.4.4l-.4.4-.3.3c-.1.1-.3.3-.5.4-1.3.8-2.7 1.4-4.2 1.7-1.5.3-3 .3-4.5.1-1.5-.2-3-.6-4.3-1.2-1.4-.6-2.7-1.3-3.9-2.1-1.3-.8-2.4-1.7-3.6-2.6-1.2-.9-2.3-1.8-3.4-2.8-2.2-1.9-4.5-3.8-6.7-5.7l-6.6-5.8c-1.1-.9-2.2-2-3.3-3l-3.2-3-6.5-6c-1.8-2-3.9-4-6.1-6zm9.6-13.2l-3.8.6v-.2c1.9-.2 3.8-.4 5.7-.5l5.7-.4c3.8-.3 7.6-.5 11.4-.5 1.9 0 3.8.1 5.7.2l5.7.6 1.4.1.7.1c.3 0 .5.1.7.1l2.8.6c1.9.4 3.7.7 5.6 1.2 1.8.4 3.7.7 5.5.7.5 0 .9 0 1.4-.1l.7-.1c.2 0 .4-.1.7-.1.9-.2 1.7-.5 2.5-.9 1.6-.9 3-2.1 4.1-3.5 1.1-1.5 1.8-3.2 2.3-5 .5-1.8.7-3.7.5-5.5-.2-1.9-.7-3.7-1.2-5.5-.6-1.8-1.4-3.5-2.2-5.2-.4-.8-.9-1.6-1.4-2.5l-1.4-2.5c1 1.6 2.1 3.2 3 4.8.9 1.7 1.8 3.4 2.4 5.2.6 1.8 1.2 3.6 1.4 5.6.2 1.9.1 3.9-.4 5.8-.4 1.9-1.2 3.7-2.3 5.3-1.2 1.6-2.7 2.9-4.4 3.8-.9.5-1.8.8-2.8 1-.2 0-.5.1-.7.1l-.7.1c-.5.1-1 .1-1.5.1-2 0-3.9-.3-5.7-.7l-5.6-1.2-2.8-.6-.7-.1-.7-.1-1.4-.2-5.7-.6c-1.8-.1-3.8-.2-5.6-.2-3.8-.1-7.6 0-11.3.2l-5.7.3-5.7.3v-.2l3.8-.4zm-21.9 17l1.9 7.8 1.9 7.8 1.8 7.8c.3 1.3.7 2.6 1 3.9l1 3.9 1 3.9c.3 1.3.7 2.6 1.1 3.8.8 2.5 1.7 5 2.8 7.4 1.1 2.4 2.4 4.8 3.9 6.9 1.5 2.2 3.3 4.2 5.3 5.9.8.6 1.6 1 2.4 1.2.4.1.9.2 1.3.2s.9-.1 1.3-.2c.9-.3 1.8-.7 2.7-1l2.7-1.1 5.4-2.2c1.8-.7 3.5-1.5 5.1-2.6 1.6-1 3-2.3 3.9-3.9.9-1.6 1.2-3.5 1-5.3-.1-.9-.3-1.8-.7-2.7-.4-.9-.8-1.7-1.3-2.5-1-1.6-2.2-3.1-3.5-4.6L378 323.2l-7.6-8.8c-1.3-1.5-2.6-2.9-3.9-4.3l-2.1-2.1c-.7-.7-1.4-1.4-2.2-1.9l-1.3-.8 1.3.8c.8.6 1.5 1.2 2.2 1.9.7.7 1.4 1.3 2.1 2 1.4 1.4 2.7 2.8 4 4.2l7.8 8.7 15.3 17.6c1.3 1.5 2.6 3 3.6 4.6.5.8 1 1.7 1.4 2.6.4.9.6 1.9.8 2.9.3 2 0 4.1-1.1 5.9-1 1.8-2.5 3.2-4.2 4.3-1.7 1.1-3.5 1.9-5.3 2.7-1.8.8-3.6 1.5-5.4 2.2l-2.7 1.1c-.9.3-1.8.8-2.8 1.1-.5.1-1 .2-1.6.2-.5 0-1.1-.1-1.6-.2-1-.3-1.9-.8-2.7-1.4-2-1.8-3.8-3.8-5.4-6.1-1.5-2.2-2.8-4.6-3.9-7.1s-2-5-2.8-7.6c-.4-1.3-.8-2.6-1.1-3.9l-1-3.9-1-3.9-.9-3.9-1.7-7.8-1.7-7.8-1.4-7.8zm-10-1s-.9 2-2.5 5.5c-1.5 3.6-3.7 8.7-6.3 14.8-2.4 6.2-5.2 13.5-7.7 21.4-1.2 4-2.5 8.1-3.7 12.3-.1.5-.3 1-.4 1.6-.1.5-.2 1-.2 1.5 0 .9.8 1.6 1.7 2.2 1.8 1.1 3.9 1.7 6.1 1.8 4.3.1 8.6-1.4 12.1-3.9 1.8-1.2 3.2-2.7 4.2-4.6 1-1.8 1.3-3.9 1.5-5.9.5-8.3.9-16 1.3-22.7.3-6.6.6-12.2.8-16.1.2-3.9.3-6.1.3-6.1s-.2 8.9-.6 22.2c-.1 3.3-.3 6.9-.4 10.7-.2 3.8-.3 7.8-.6 12-.2 2.1-.5 4.3-1.6 6.3s-2.6 3.6-4.5 4.9c-3.6 2.5-8.1 4.2-12.7 4.1-2.3-.1-4.6-.8-6.5-2-.5-.3-1-.7-1.4-1.2-.4-.5-.7-1.1-.8-1.8 0-.7.1-1.2.2-1.8.1-.6.3-1.1.4-1.6 1.2-4.2 2.5-8.3 3.7-12.3 1.3-4 2.7-7.7 4-11.3 1.4-3.6 2.7-6.9 3.9-10 1.3-3.1 2.6-5.8 3.8-8.3 1.1-2.5 2.1-4.6 2.9-6.4 2-3.3 3-5.3 3-5.3zm-6.7 4.5s.2.1.2.4c.1.3.1.6 0 .8-.1.3-.3.5-.5.6l-.4.2s-.1-.2-.1-.4 0-.5.1-.8c.1-.2.3-.5.4-.6.1-.1.3-.2.3-.2z"/><path d="M291.3 346.6l2.6 2.1c1 .7 2.1 1.4 3.2 1.8 1.1.4 2.3.6 3.5.5.6-.1 1.2-.2 1.7-.4.3-.1.6-.2.8-.3.3-.1.5-.2.8-.4 1-.6 2-1.3 2.8-2.2.8-.9 1.5-1.9 2.3-2.9l2.2-2.9 4.5-5.9 4.5-5.9 2.2-3 2.3-2.9 2.2-3c.7-1 1.5-2 2.3-2.9l2.3-2.9c.8-1 1.4-2 2-3.1.3-.7.6-1.4.7-2.1-.1.7-.4 1.5-.4 2.2h-.1c-.5 1.1-1.2 2.2-1.9 3.2l-2.2 3c-.8 1-1.5 2-2.2 3l-2.1 3c-.7 1-1.5 2-2.2 3l-2.2 3-4.4 6c-1.5 2-3 3.9-4.5 5.9l-2.3 2.9-1.1 1.5c-.4.5-.8 1-1.2 1.4-.9.9-1.9 1.7-3.1 2.3-.3.1-.6.3-.9.4l-.9.3c-.6.2-1.3.3-1.9.3-1.3 0-2.6-.1-3.7-.7-1.2-.5-2.2-1.2-3.2-2l-2.4-2.3zM265.5 152.8s.7 0 1.9-.1c1.3 0 3.1-.1 5.5-.2s5.2-.1 8.5-.1 7 .1 11.1.2 8.4.3 13.1.5c4.6.3 9.5.8 14.6 1.2 5 .5 10.3.8 15.6 1 2.7.1 5.3.1 8 .1s5.4-.1 8.1-.1c10.8-.2 21.6-.5 31.7-.7 2.5-.1 5-.1 7.5-.1 2.4 0 4.8-.1 7.1-.1h13.1c4.1.1 7.8.1 11.1.2s6.2.2 8.5.3c4.7.2 7.4.4 7.4.4v.3s-.7.1-1.9.1c-1.3.1-3.1.2-5.5.4s-5.2.3-8.5.5-7 .3-11 .5c-4 .1-8.4.3-13.1.4-2.3.1-4.7.1-7.1.1-2.4 0-4.9.1-7.5 0-5.1 0-10.3 0-15.6-.1-2.7-.1-5.3-.1-8-.2s-5.4-.3-8.1-.4c-2.7-.1-5.4-.3-8.1-.4-2.7-.1-5.4-.3-8-.4-5.3-.2-10.5-.3-15.6-.3s-10 0-14.6-.1-9-.4-13.1-.6c-4-.3-7.7-.5-11-.7-3.3-.2-6.1-.5-8.5-.7-2.4-.2-4.2-.4-5.5-.5-1.3-.1-1.9-.2-1.9-.2l-.2-.2z"/></svg>