<?xml version="1.0" encoding="utf-8"?>
<!-- Generator: Adobe Illustrator 19.2.0, SVG Export Plug-In . SVG Version: 6.00 Build 0)  -->
<svg version="1.1" id="Layer_1" xmlns="http://www.w3.org/2000/svg" xmlns:xlink="http://www.w3.org/1999/xlink" x="0px" y="0px"
	 viewBox="0 0 460 613" style="enable-background:new 0 0 460 613;" xml:space="preserve">
<style type="text/css">
	.st0{fill:none;stroke:#000000;stroke-width:5;stroke-miterlimit:10;}
	.st1{opacity:0.9;fill:url(#SVGID_1_);enable-background:new    ;}
	.st2{fill:#A30435;}
	.st3{fill:none;stroke:#000000;stroke-width:2;stroke-miterlimit:10;}
	.st4{fill:none;stroke:#000000;stroke-miterlimit:10;}
</style>
<path class="st0" d="M6588.6-657.6c0.3,38.5,0.2,82.4-5.7,120.5c-2.3,14.7-3.7,31.7-10.6,44.9c-9.4,17.9-18.6,35.9-34,49.5
	c-5.5,4.9-11.5,9.2-17.9,12.8c-4.2,2.3-15.3,5.1-15.9,10.8c-0.4,3.6,3.8,5.7,6.9,7.6c6.9,4.3,10.9,12.3,11.6,20.4
	c1.5,15.4-5.6,30.7-18.9,38.8c-0.8,0.5-1.6,1-1.9,1.8c-0.7,2.1,2.1,3.4,4.2,3.8c12.1,2.1,24,5,35.7,8.7c7.7,2.4,24.3,10.6,12,18.5
	c-7.7,4.9-17,6.2-26,7.3c-24.7,3.1-49.7,6.2-74.5,3.9c-5.6-0.5-11.2-1.4-16.8-2.2l-22.5-3.3c-5.3-0.8-11.8-2.7-12.7-7.9
	c-1.7-10.2,16.6-15.1,23.6-17.2c4.9-1.5,36.5-4.6,35.6-9.3c-0.5-2.4-2.8-3.9-4.8-5.4c-8.9-6.4-15-16.4-16.6-27.2
	c-1.6-10.8,1.3-22.2,7.9-30.9c2.2-2.9,4.9-6,4.4-9.6c-0.2-1.5-1-2.9-2-4.1c-5.1-6.7-15.9-9.5-22.8-14.7c-7.9-6-15.2-12.8-21.6-20.4
	c-12.5-14.5-22.1-31.5-27.6-49.9c-5.2-17.2-6.9-35.3-8.2-53.2c-2.3-31-3.6-62-3.8-93.1c20.2-2.4,42-1.8,62.4-1.4
	C6480.9-657,6588.6-659.7,6588.6-657.6L6588.6-657.6z"/>
<path d="M6462-342.7v1.9c0,0.6,0.1,1.3,0.6,1.9c0.4,0.6,1.2,0.8,2.2,0.8c2.1-0.1,4.5-0.2,7.1-0.2c1.3,0,2.7-0.1,4-0.1
	c1.4-0.1,2.8-0.1,4.1-0.2c1.4-0.1,2.8-0.1,4.1-0.2c1.4-0.1,2.7-0.1,4-0.2c2.6-0.1,5-0.2,7.1-0.3c2-0.1,3.7-0.6,4.6-1.3
	c0.4-0.4,0.7-0.8,0.8-1.1c0.1-0.3,0.2-0.5,0.2-0.5v0.5c-0.1,0.3-0.2,0.8-0.6,1.3s-1.1,1-1.9,1.4c-0.8,0.4-1.8,0.7-2.8,0.8
	c-2.1,0.4-4.5,0.7-7.1,0.9c-1.3,0.1-2.7,0.3-4,0.4c-1.4,0.1-2.8,0.2-4.2,0.2c-1.4,0-2.8,0.1-4.2,0.1h-4.1c-2.6-0.1-5.1-0.2-7.2-0.4
	c-0.5-0.1-1.1-0.1-1.6-0.4s-0.9-0.7-1.1-1.1c-0.4-0.9-0.4-1.7-0.3-2.3s0.2-1.1,0.3-1.4C6461.9-342.5,6462-342.7,6462-342.7
	L6462-342.7z M6461.6-427.3c0,0,0.6,0.2,1.6,0.5c0.5,0.2,1.2,0.3,1.9,0.5s1.6,0.4,2.4,0.5c0.9,0.2,1.9,0.3,2.9,0.5
	c1,0.1,2.1,0.2,3.3,0.3c1.1,0.1,2.3,0.1,3.5,0.2h3.6c1.2,0,2.5,0,3.7-0.1c1.2,0,2.4-0.1,3.6-0.1c2.3-0.1,4.5-0.1,6.3-0.3
	c1.8-0.2,3.2-0.6,4.1-1.2c0.4-0.3,0.8-0.6,1-0.8l0.3-0.3c0,0-0.1,0.1-0.2,0.4c-0.2,0.3-0.4,0.6-0.8,1c-0.8,0.8-2.3,1.6-4.2,2
	c-0.9,0.2-2,0.4-3,0.5c-1.1,0.1-2.2,0.3-3.3,0.4l-3.6,0.3c-1.2,0.1-2.5,0.1-3.7,0.2c-1.3,0-2.5,0-3.7-0.1c-0.6,0-1.2-0.1-1.8-0.1
	c-0.6-0.1-1.2-0.1-1.8-0.2c-1.2-0.1-2.3-0.4-3.4-0.6c-0.5-0.1-1-0.3-1.5-0.4c-0.5-0.2-1-0.3-1.4-0.4c-1.8-0.6-3.2-1.3-4.2-1.8
	C6462.2-427,6461.6-427.3,6461.6-427.3L6461.6-427.3z M6411.5-325.2l0.3,0.3c0.2,0.2,0.5,0.4,1,0.6c0.9,0.5,2.3,1,4.2,1.4
	c1.9,0.4,4.2,0.7,6.8,1.1c2.6,0.4,5.6,0.7,8.9,1.1c3.3,0.3,6.8,0.7,10.6,1c3.7,0.3,7.7,0.5,11.8,0.7c8.2,0.3,17,0.5,25.7,0.6
	c4.4,0.1,8.8,0.1,13.1,0.2c4.3,0,8.5,0.1,12.6,0s8-0.4,11.7-0.8c3.7-0.5,7.2-1.1,10.4-1.7c6.4-1.4,11.6-3,15.2-4.3
	c1.8-0.7,3.2-1.2,4.2-1.6l1.5-0.6c0,0-0.5,0.2-1.4,0.7c-0.9,0.4-2.3,1.1-4.1,1.8c-3.5,1.5-8.7,3.5-15.1,5.1
	c-6.4,1.6-14.1,2.9-22.3,3.2c-4.1,0.2-8.4,0.2-12.7,0.2c-4.3,0-8.7-0.1-13.1-0.1c-4.4-0.1-8.8-0.2-13.1-0.3
	c-4.3-0.1-8.6-0.4-12.7-0.6c-4.1-0.3-8.1-0.6-11.8-1c-3.8-0.4-7.3-0.8-10.6-1.3c-1.6-0.3-3.2-0.5-4.7-0.7c-1.5-0.3-2.9-0.5-4.2-0.8
	c-2.6-0.5-4.9-1-6.8-1.5s-3.3-1.1-4.1-1.7c-0.4-0.3-0.7-0.5-0.9-0.7C6411.6-325.1,6411.5-325.2,6411.5-325.2L6411.5-325.2z"/>
<linearGradient id="SVGID_1_" gradientUnits="userSpaceOnUse" x1="6378.7998" y1="-1042.7888" x2="6584.7002" y2="-1042.7888" gradientTransform="matrix(1 0 0 1 0 507)">
	<stop  offset="1.800000e-02" style="stop-color:#801FE3"/>
	<stop  offset="1" style="stop-color:#B7A7FF"/>
</linearGradient>
<path class="st1" d="M6378.8-629.4c1.4,24.4,2.7,48.8,4.1,73.2c0.4,7.9,0.9,15.9,2.2,23.7c1.8,11.1,5.4,21.8,8.9,32.5
	c3,9.1,6,18.2,11.1,26.3c17.8,28.1,51.5,32.7,81.9,31.3c10.6-0.5,21.3-1.5,31.5-4.7c66.9-21.3,65.2-117,66.1-172.7
	c0-2.6,0.1-5.1,0.1-7.7C6516-625.3,6447.2-623.5,6378.8-629.4L6378.8-629.4z"/>
<path d="M6373.7-649.1c0,0,0.6,8.1,1.5,22.2c0.5,7.1,1,15.6,1.7,25.5c0.6,9.8,1.4,20.9,2.1,33.1c0.4,6.1,0.7,12.4,1.3,18.9
	c0.5,6.5,1.4,13.2,3,19.9c1.6,6.7,3.7,13.5,6,20.4c2.4,6.9,4.5,14,7.5,20.9c0.8,1.7,1.5,3.4,2.4,5.1c0.9,1.6,1.8,3.3,2.8,4.8
	c1.1,1.6,2.2,3.1,3.4,4.7c1.2,1.4,2.5,2.8,3.7,4.3c5.3,5.5,11.7,10,18.8,13.2c7.1,3.3,14.8,5.4,22.6,6.6c7.9,1.3,15.9,1.7,23.9,1.7
	c8-0.1,16.1-0.4,24-1.5c3.9-0.5,7.9-1.2,11.7-2.2c1-0.3,1.9-0.5,2.8-0.8l0.7-0.2h0.1l0.2-0.1l0.4-0.1l1.4-0.5l2.8-1
	c0.5-0.2,0.9-0.3,1.4-0.5l1.3-0.6c7.1-3.1,13.7-7.4,19.4-12.5c5.7-5.1,10.5-11.1,14.4-17.5c4-6.3,7.1-13.1,9.7-19.8
	c2.6-6.8,4.6-13.6,6.3-20.3c3.2-13.5,5-26.5,6.2-38.5c1.1-12.1,1.7-23.2,2-33c0.3-9.9,0.5-18.4,0.7-25.5c0.2-14.2,0.4-22.2,0.4-22.2
	s0,2,0.1,5.8c0,3.8,0.1,9.4,0.2,16.4c0,7.1,0,15.7-0.2,25.5c-0.1,9.9-0.5,21-1.5,33.1c-1,12.1-2.6,25.2-5.7,38.9
	c-1.6,6.8-3.6,13.7-6.1,20.6s-5.7,13.8-9.8,20.3c-4,6.5-9,12.7-14.8,18.1c-5.9,5.4-12.7,9.8-20.2,13.1l-1.4,0.6
	c-0.5,0.2-0.9,0.4-1.4,0.5l-2.8,1l-1.4,0.5l-0.4,0.1l-0.2,0.1l-0.2,0.1l-0.7,0.2c-1,0.3-2,0.6-2.9,0.8c-3.9,1-8,1.8-12,2.4
	c-8.1,1.1-16.2,1.5-24.4,1.6c-8.2,0-16.3-0.5-24.4-1.8c-8-1.3-16-3.5-23.3-7c-7.4-3.4-14.1-8.1-19.6-13.9c-1.3-1.5-2.6-3.1-3.9-4.6
	c-1.1-1.6-2.2-3.2-3.3-4.7c-2.2-3.4-3.9-6.8-5.4-10.4c-3-7.1-5.2-14.2-7.5-21.2c-2.2-7-4.3-13.9-5.8-20.7
	c-1.6-6.9-2.4-13.6-2.8-20.2c-0.5-6.6-0.7-12.9-1-18.9c-0.6-12.1-1.1-23.2-1.6-33.1c-0.5-9.9-0.8-18.4-1.2-25.5
	C6374-641.1,6373.7-649.1,6373.7-649.1L6373.7-649.1z"/>
<path d="M6374.1-633.7c0,0,0.8,0,2.4,0.1s3.8,0.2,6.7,0.3c2.9,0.2,6.4,0.3,10.5,0.5c4,0.2,8.6,0.3,13.6,0.5s10.4,0.3,16.1,0.5
	s11.7,0.2,17.9,0.4c6.2,0.1,12.6,0.1,19.2,0.2c6.5,0.1,13.2,0,19.8,0.1c6.6,0,13.3,0,19.8-0.1s13-0.1,19.2-0.2
	c12.5-0.1,24.1-0.2,34-0.3c10-0.1,18.3-0.1,24.1-0.1h9.1c0,0-0.8,0.1-2.4,0.2c-1.6,0.1-3.8,0.2-6.7,0.4c-5.8,0.3-14.1,0.8-24.1,1.3
	s-21.6,0.9-34,1.3c-6.2,0.1-12.7,0.4-19.2,0.4c-6.5,0.1-13.2,0.1-19.8,0.2c-6.6,0-13.3,0-19.8-0.2c-6.5-0.1-13-0.3-19.2-0.4
	c-6.2-0.2-12.3-0.4-18-0.8c-2.9-0.2-5.6-0.3-8.3-0.5c-2.7-0.2-5.3-0.4-7.8-0.5c-2.5-0.2-4.9-0.3-7.1-0.5c-2.3-0.2-4.4-0.4-6.4-0.6
	c-4-0.4-7.6-0.7-10.4-1c-2.9-0.3-5.2-0.6-6.7-0.7C6374.9-633.6,6374.1-633.7,6374.1-633.7L6374.1-633.7z"/>
<path class="st0" d="M309.7,576.4c6.3,0.5,14.8,3,17.4,8.6c1.9,4,0.9,8.8-2.5,11.8s-9.5,4.3-13.9,5.4
	c-41.2,10.8-140.8,11.4-169.9-4.5c-1.7-0.9-3.5-1.8-4.8-3.3c-3.4-4.1-1.4-10.6,2.9-13.9c4.2-3.3,9.8-4.1,15.2-4.9
	c16.2-2.6,31.5-1.9,43.2-13c28-26.6,23.3-75.6,23.7-115.8c0.2-21.5-0.8-42.3-0.6-63.8c0.2-19.5-0.1-40.6-11.9-56.3
	c-4.5-6-10.5-10.8-16.4-15.6c-26.2-21.1-49.1-40.5-65.8-69.9c-8.6-15.2-12.3-32.3-10.7-53.3C116,182.3,136.9,51,155.1,6.6
	c4.1-2.5,136.1-1.8,154.1,1.7c6.6,20,28.8,117,31.1,142.2c1.3,14.3,2.7,22.5,4,36.8c1.3,13.6-0.8,30.8-4.3,44
	c-4,15-13.9,27.8-24.6,39.2c-14.6,15.7-31,29.6-48.9,41.6c-5.1,3.4-10.4,6.7-14.2,11.5c-16.9,21-14.6,52.6-14.9,78
	c-0.2,23.1,1,45.4,1.3,70.1c0.2,21.3,0.7,48.4,8.8,68.2C258.2,565.7,283.3,574.5,309.7,576.4L309.7,576.4z"/>
<path d="M213.2,550.9c0,0,0.5,0.2,1.4,0.4c0.9,0.3,2.1,0.7,3.6,1.1c1.5,0.4,3.2,0.8,5.1,1.1c0.9,0.2,1.9,0.3,2.9,0.4l3,0.3
	c0.5,0,1,0.1,1.5,0.1h1.5c1,0,2,0,2.9-0.1l2.7-0.3c0.8-0.2,1.7-0.3,2.4-0.5c1.5-0.4,2.7-0.9,3.5-1.2c0.8-0.4,1.3-0.6,1.3-0.6
	l-0.3,0.3c-0.2,0.2-0.4,0.4-0.8,0.7c-0.7,0.6-1.8,1.3-3.3,2s-3.3,1.2-5.3,1.5c-1,0.1-2,0.3-3.1,0.3h-1.6c-0.5,0-1.1,0-1.6-0.1
	c-2.1-0.2-4.2-0.5-6.2-1c-1.9-0.5-3.7-1.1-5.1-1.8c-1.4-0.6-2.6-1.3-3.4-1.8c-0.4-0.2-0.7-0.5-0.9-0.6L213.2,550.9L213.2,550.9z
	 M141.5,582.4v0.5c0,0.3,0.2,0.9,0.4,1.5c0.3,0.6,0.7,1.3,1.4,2s1.6,1.3,2.8,1.8c1.1,0.5,2.5,1,3.9,1.5s3,1,4.7,1.6
	c3.4,1.1,7.1,2.4,11.3,3.5c4.2,1.2,8.8,2.2,13.7,2.7c4.9,0.4,10.2,0.7,15.6,1.1c5.4,0.3,11.1,0.7,16.8,0.9c2.9,0.1,5.7,0.2,8.6,0.3
	s5.8-0.1,8.6-0.2c11.6-0.5,23.2-1.2,34.1-2.1c5.4-0.4,10.7-0.9,15.6-1.4c5-0.5,9.7-1,13.9-1.7c1.1-0.2,2.1-0.3,3.2-0.5
	c1-0.2,2-0.4,3-0.5c0.5-0.1,1-0.2,1.4-0.3c0.5-0.1,0.9-0.2,1.4-0.3l2.7-0.6c3.4-0.9,6.3-1.9,8.7-2.7c2.4-0.9,4.3-1.5,5.4-2.3
	c0.6-0.4,0.9-0.8,1.2-1c0.2-0.3,0.3-0.4,0.3-0.4s-0.1,0.2-0.3,0.4c-0.2,0.3-0.6,0.7-1.1,1.1c-1.1,0.9-3,1.7-5.3,2.6
	c-2.4,1-5.3,2-8.7,3.1c-3.4,1-7.3,1.9-11.7,2.6c-4.3,0.7-9,1.4-14,2s-10.2,1.2-15.7,1.6c-10.9,1-22.5,1.8-34.1,2.3
	c-2.9,0.1-5.8,0.2-8.8,0.2l-8.7-0.3c-5.7-0.3-11.3-0.6-16.8-1c-5.4-0.4-10.7-0.8-15.7-1.3c-5-0.6-9.7-1.8-13.8-3
	c-4.2-1.2-8-2.6-11.3-3.9c-1.7-0.6-3.2-1.2-4.6-1.8s-2.8-1.1-3.9-1.6c-1.2-0.6-2.1-1.3-2.8-2c-0.7-0.7-1.1-1.5-1.4-2.1
	s-0.3-1.2-0.4-1.5C141.5,582.5,141.5,582.4,141.5,582.4L141.5,582.4z"/>
<path class="st2" d="M315.3,70.9c-27.4-2.7-54.8-4.4-82.3-5.2c-28.2-0.8-56.3-0.7-84.5-0.3c-0.9,0-1.7,0-2.6,0.1
	c-10.7,49.1-22.2,109.2-22.9,114.6c-0.6,5.1-2.6,22.8-1.3,29c0.2,0,0.8,35.2,38.6,72.1c14.5,14.1,39.3,35.6,67.8,35.5
	c17.7-0.1,34.4-7.1,49.6-16c20.1-11.8,47-39.6,54.8-67.6c1.8-6.3,4-22.5,3.7-24.5l0.2,0.9c2.9-26.7-12.8-110.1-18.7-138.4
	C317,71,316.1,70.9,315.3,70.9L315.3,70.9z"/>
<path d="M303,8.5c1.7,3.8,2.8,7.8,3.9,11.7l3.3,12l6.2,24c1,4,1.8,8.1,2.7,12.1l2.5,12.1c1.6,8.1,3.2,16.2,4.7,24.3
	s2.9,16.3,4.2,24.4c1.3,8.2,2.6,16.3,3.7,24.5c0.6,4.1,1.1,8.2,1.6,12.3c0.5,4.1,0.9,8.2,1.3,12.4c0.3,4.1,0.7,8.3,0.8,12.4
	c0.1,4.2,0.2,8.3-0.2,12.6l-0.7,6.6l-1.7-6.4l-0.2-0.9l2.4-0.5c0,0.3,0.1,0.6,0,0.8v0.7l-0.1,1.3c-0.1,0.9-0.2,1.7-0.3,2.6
	c-0.2,1.7-0.4,3.4-0.7,5.1c-0.5,3.4-1,6.8-1.7,10.2c-0.4,1.7-0.7,3.4-1.3,5.1c-0.5,1.6-1,3.3-1.6,4.9l-1.9,4.9l-2.2,4.7
	c-3.1,6.2-6.9,12-11,17.6c-4.1,5.5-8.6,10.8-13.5,15.7c-4.9,4.9-10,9.5-15.6,13.6c-2.8,2.1-5.6,4-8.6,5.8s-6,3.4-9,5
	c-3.1,1.6-6.2,3-9.4,4.4c-3.2,1.3-6.5,2.5-9.8,3.6c-6.6,2-13.5,3.4-20.5,3.6H229l-0.7,0.1l-0.2,0.1h-0.2l-0.3-0.1l-2.6-0.2
	c-0.9,0-1.7-0.1-2.6-0.2l-2.6-0.4l-2.6-0.4l-2.6-0.6l-2.6-0.6l-2.5-0.8c-6.7-2-13-4.9-19-8.4s-11.6-7.5-17-11.9s-10.4-9-15.3-13.8
	c-9.8-9.7-18.4-20.7-25.1-32.8c-3.3-6.1-6.2-12.4-8.4-18.9c-1.1-3.3-2.1-6.6-2.8-10c-0.4-1.7-0.7-3.4-1-5.1
	c-0.1-0.9-0.3-1.7-0.4-2.6l-0.1-1.3l-0.1-0.6v-0.4c0,0,0-0.1,0,0c0.4,0-1-0.2,1.3,1l-1.3-1c-0.4-2.3-0.4-4.4-0.4-6.5
	s0.1-4.2,0.2-6.3c0.3-4.2,0.6-8.4,1.1-12.6c0.4-4.2,1.2-8.3,2-12.5l2.4-12.3c3.2-16.4,6.5-32.8,10-49.2c1.7-8.2,3.5-16.4,5.2-24.5
	c1.8-8.2,3.6-16.3,5.4-24.5s3.7-16.3,5.7-24.4l1.5-6.1l1.6-6.1c1-4.1,2.2-8.1,3.3-12.1c-1,4-2.2,8.1-3.1,12.2l-1.5,6.1l-1.4,6.1
	c-1.9,8.2-3.6,16.3-5.4,24.5l-5.1,24.6l-4.9,24.6c-3.3,16.4-6.4,32.8-9.5,49.3l-2.3,12.3c-0.7,4.1-1.5,8.2-1.9,12.3s-0.8,8.3-1,12.4
	c-0.1,2.1-0.2,4.1-0.2,6.2c0,2,0.1,4.1,0.4,6l-1.3-1c2.2,1.2,0.9,1.1,1.3,1.1v0.6l0.1,0.6l0.1,1.2c0.1,0.8,0.2,1.7,0.4,2.5
	c0.3,1.7,0.6,3.3,1,5c0.8,3.3,1.7,6.5,2.8,9.7c2.2,6.4,5,12.6,8.3,18.5c6.6,11.8,15.1,22.6,24.7,32.1c9.7,9.5,20.1,18.4,31.8,25.2
	c5.8,3.4,12,6.2,18.4,8.1l2.4,0.7l2.5,0.5l2.4,0.5l2.4,0.3l2.4,0.3c0.8,0.1,1.7,0.1,2.6,0.1l2.6,0.1h2.4c6.7-0.2,13.3-1.5,19.8-3.4
	c3.2-1,6.4-2.1,9.5-3.4s6.2-2.7,9.2-4.3c3-1.5,6-3.2,8.9-4.9c2.9-1.7,5.7-3.6,8.4-5.6c5.4-4,10.5-8.5,15.3-13.3s9.2-9.9,13.3-15.4
	c4.1-5.4,7.7-11.1,10.8-17.1l2.2-4.6l1.9-4.6c0.6-1.6,1.1-3.2,1.6-4.9c0.5-1.5,0.9-3.2,1.2-4.8c0.7-3.3,1.2-6.7,1.7-10
	c0.2-1.7,0.5-3.4,0.7-5c0.1-0.8,0.2-1.7,0.3-2.5l0.1-1.2v-1l0.3-8.5l2.1,8l0.2,0.9l-2.4,0.2c0.4-4,0.4-8.1,0.3-12.2
	s-0.4-8.2-0.7-12.3c-0.3-4.1-0.7-8.2-1.2-12.3c-0.4-4.1-0.9-8.2-1.5-12.3c-1.1-8.2-2.2-16.4-3.5-24.5c-1.3-8.2-2.6-16.3-4-24.4
	c-1.4-8.1-2.8-16.3-4.4-24.4l-2.3-12.2c-0.8-4-1.6-8.1-2.5-12.1l-5.8-24.1c-1-4-2-8-3.1-12C305.6,16.3,304.6,12.3,303,8.5L303,8.5z"
	/>
<path class="st3" d="M229.9,177.5c-3.1-6.9-17.8-14.4-25.2-16.8c-12.6-4-25.3-8-37.9-12c-2.7-0.9-5.6-1.7-8.4-1.3
	c-5,0.8-8.1,5.4-10.4,9.5c-5.1,9.2-9.8,18.7-14.1,28.3c-3.8,8.6-3.1,17.2-2.6,26.4c0.2,2.9,0.5,6,2.6,8.2c1.5,1.6,3.7,2.5,5.8,3.3
	c11.5,4.6,23,9.2,35.1,12.3c7,1.8,14.6,3.1,21.4,0.8c8.7-3,13.7-11.1,18-18.6c5.7-9.8,11.4-19.7,17-29.5c1.1-1.9,2.3-4.1,1.8-6.2
	C232.6,180.2,231.3,178.8,229.9,177.5L229.9,177.5z"/>
<path d="M134.9,190.8h1c0.6,0,1.5-0.1,2.7,0c1.2,0,2.6,0.1,4.2,0.2s3.5,0.3,5.4,0.7c4,0.6,8.5,1.6,13.4,2.7c2.4,0.6,4.9,1.1,7.5,1.6
	s5.2,1.1,7.7,1.2s5-0.4,6.6-2.1c0.8-0.8,1.6-1.9,2.3-2.9c0.7-1.1,1.4-2.1,2.1-3.1c2.8-4.1,5.3-8,7.3-11.4c2.1-3.4,3.7-6.3,4.9-8.3
	c1.1-2,1.8-3.2,1.8-3.2s-0.1,0.3-0.4,0.9c-0.2,0.6-0.6,1.4-1.1,2.5c-1,2.1-2.3,5.2-4.2,8.7c-1.9,3.5-4.2,7.6-6.9,11.8
	c-0.7,1-1.4,2.1-2.1,3.2s-1.5,2.2-2.5,3.2s-2.4,1.8-3.8,2.2c-1.4,0.4-2.9,0.5-4.3,0.5s-2.8-0.2-4.1-0.5c-1.3-0.3-2.6-0.5-3.9-0.8
	c-2.6-0.6-5.1-1.2-7.5-1.8c-4.8-1.2-9.3-2.4-13.2-3.2c-1.9-0.4-3.7-0.8-5.3-1c-1.6-0.3-3-0.5-4.1-0.6c-1.2-0.1-2.1-0.2-2.7-0.3
	C135.2,190.8,134.9,190.8,134.9,190.8L134.9,190.8z M181.9,198.4c0,0,0.1-0.1,0.4-0.2s0.8,0,1.2,0.4c0.2,0.2,0.4,0.4,0.6,0.7
	c0.2,0.3,0.3,0.6,0.5,0.9c0.3,0.6,0.7,1.3,1.1,2.1c0.8,1.5,1.7,3.4,2.7,5.3c0.5,1,1,2,1.4,3c0.5,1,1,2.1,1.4,3.2
	c0.5,1.1,0.9,2.1,1.4,3.2s0.9,2.1,1.3,3.1c0.8,2,1.5,3.9,2.1,5.6c1.2,3.3,1.8,5.6,1.8,5.6s-1.3-2-2.9-5.1c-0.8-1.5-1.8-3.4-2.7-5.3
	c-0.5-1-1-2-1.4-3c-0.5-1-1-2.1-1.4-3.2c-0.5-1.1-0.9-2.1-1.4-3.2s-0.9-2.1-1.3-3.1c-0.8-2-1.5-3.9-2.1-5.6
	c-0.3-0.8-0.6-1.6-0.8-2.3l-0.3-0.9c-0.1-0.3-0.2-0.5-0.4-0.7c-0.3-0.4-0.6-0.6-0.9-0.6C182,198.3,181.9,198.4,181.9,198.4
	L181.9,198.4z"/>
<path class="st3" d="M201.2,114.5c-1.7,12.6-4.2,25.2-7.6,37.7c-0.9,3.3-1.9,6.7-1.9,10c0,3.2,0.9,6.2,1.9,9
	c3.5,9.7,9.1,19.2,18.1,21.2c3,0.7,6.2,0.5,9.4,0.5c14.6,0.1,28.4,4.8,43,4.9c3.3,0,6.9-0.3,10-2.3c5.7-3.6,8.5-11.6,10.1-18.8
	c2.4-10.8,3.5-21.9,7.2-32.4c1.2-3.5,2.8-7.4,1.7-10.6c-1.1-3.4-4.7-4.2-7.6-5.3c-5.4-2.1-9.9-6.3-15-9.2
	c-8.4-4.9-53.6-7.2-66.6-7.7c-0.6,0-1.2,0-1.7,0.3S200.9,114,201.2,114.5L201.2,114.5z"/>
<path d="M201.8,115.9c0,0,1.1,1,3.1,2.9c1.9,1.9,4.7,4.5,8,7.8c1.7,1.6,3.4,3.4,5.4,5.1c1.9,1.8,4.1,3.5,6.4,5.1
	c1.2,0.8,2.4,1.5,3.7,2.1c1.3,0.6,2.7,1.1,4.1,1.4c2.8,0.7,5.8,0.9,8.9,0.9c3,0,6.1-0.2,9.1-0.5c3-0.2,6-0.4,8.9-0.6
	c5.8-0.4,11.1-0.6,15.7-1.1s8.3-1.2,10.9-2c2.6-0.7,4.1-1.2,4.1-1.2s-0.4,0.1-1,0.4c-0.7,0.3-1.7,0.7-2.9,1.1
	c-2.6,0.9-6.3,2-10.9,2.7c-4.6,0.8-10,1.2-15.7,1.7c-2.9,0.2-5.9,0.5-8.9,0.7s-6.1,0.5-9.2,0.5s-6.3-0.2-9.4-1
	c-3-0.8-5.9-2.2-8.3-3.9c-2.5-1.7-4.6-3.6-6.5-5.4c-1.9-1.9-3.6-3.7-5.2-5.4c-3.1-3.4-5.7-6.3-7.5-8.3
	C202.8,117.1,201.8,115.9,201.8,115.9L201.8,115.9z M228.9,141.3c0,0-0.2,0.7-0.6,2c-0.4,1.2-1,3-1.8,5.1c-0.7,2.1-1.6,4.6-2.5,7.2
	c-0.9,2.6-1.9,5.4-2.8,8.3c-1,2.8-1.9,5.6-2.7,8.3c-0.9,2.7-1.7,5.1-2.3,7.3l-1.7,5.1c-0.4,1.2-0.7,1.9-0.7,1.9s0.1-0.7,0.3-2
	c0.2-1.3,0.5-3.1,1-5.3c0.4-2.2,1-4.8,1.8-7.5c0.4-1.4,0.7-2.8,1.2-4.2c0.4-1.4,0.9-2.8,1.3-4.3l1.5-4.2c0.5-1.4,1.1-2.7,1.6-4
	c1.1-2.6,2.1-5,3.1-7s1.8-3.7,2.5-4.8C228.5,141.9,228.9,141.3,228.9,141.3L228.9,141.3z"/>
<path class="st3" d="M157.6,264.6c19.3-14.8,17.5-15.8,37-30.4c18.8-14.1,37.7-28.1,58.7-38.3c20.7-10,43.5-16.2,61.5-30.8
	c3.9-3.3,7.8-7,12.6-8.4c2.2,31.4-2.2,62-12.6,88.4c-2.1,5.5-18.2,25.7-23.9,30c-13.3,10.1-25.8,15.5-42.5,18.2
	c-22.3,3.5-37.8,3.5-60.1-10.7C180.6,277.5,165.9,270.5,157.6,264.6L157.6,264.6z"/>
<path class="st4" d="M164.3,258.6c1.6,1.5,3.1,2.6,4.8,4c3.4,3,7.3,5,11.2,6.8c20.9,10.2,39.8,16.7,60.6,14.6
	c12.6-1.8,24.1-7,35.4-12.1c6.2-2.8,12.5-5.7,17.5-10.5c7.4-7.1,11.5-17.7,15-28.5c5.9-18.4,10.7-37.9,7.5-59.5
	c-0.3-2.6-1.7-4.2-3.1-6.5"/>
<path class="st4" d="M245.6,199.9c1.5,1.6,1.8,4.1,1.3,6.2c-0.5,2.2-1.8,3.9-3.4,5.6c-2.4,2.7-5.6,4.9-9.2,5.6
	c-3.5,0.7-7.7-0.7-9.6-3.7"/>
<path d="M243.4,213c2.2,2,4.3,4,6.5,5.9l6.6,5.8l3.3,2.9c1.1,1,2.2,2,3.3,2.9l6.7,5.7c2.2,1.9,4.5,3.8,6.8,5.6
	c1.1,0.9,2.3,1.8,3.4,2.7c1.2,0.9,2.3,1.8,3.5,2.6c1.2,0.8,2.5,1.5,3.8,2c0.3,0.1,0.7,0.3,1,0.4s0.7,0.2,1,0.3
	c0.7,0.2,1.4,0.3,2.1,0.4c1.4,0.2,2.8,0.2,4.2-0.1c1.4-0.3,2.7-0.8,3.9-1.6c0.2-0.1,0.4-0.4,0.7-0.6l0.3-0.3l0.3-0.3
	c1.3-1.2,2.1-2.9,2.8-4.6c0.7-1.7,1.2-3.6,1.7-5.4c1.1-3.6,2-7.3,2-11c0-0.9-0.1-1.8-0.2-2.8c-0.1-0.9-0.3-1.8-0.6-2.7
	c-0.6-1.8-1.4-3.4-2.5-4.9c-1.1-1.4-2.6-2.6-4.2-3.4c-1.7-0.8-3.5-1.2-5.3-1.6l-1.4-0.3l-0.4-0.1c-0.1,0-0.2,0-0.3-0.1l-0.7-0.1
	l-2.8-0.4l-5.6-0.8l-5.6-0.8l-2.8-0.4c-0.9-0.1-1.9-0.3-2.8-0.3h-2.8c-1,0-1.9-0.1-2.9-0.2l-5.7-0.4c-1.9-0.1-3.8-0.2-5.7-0.6
	c-1.9-0.3-3.7-0.7-5.5-1.2c1.8,0.5,3.7,0.9,5.6,1.1c1.9,0.3,3.8,0.3,5.7,0.4l5.7,0.3c1,0,1.9,0.1,2.8,0.1h2.8c1,0,1.9,0.1,2.9,0.2
	l2.8,0.4l5.6,0.7l5.6,0.7l2.8,0.4l0.7,0.1c0.1,0,0.2,0,0.4,0.1l0.3,0.1l1.4,0.3c1.9,0.3,3.8,0.8,5.5,1.6c1.8,0.8,3.3,2.1,4.5,3.6
	s2.1,3.3,2.7,5.2c0.3,0.9,0.5,1.9,0.6,2.9c0.1,0.9,0.2,1.9,0.2,2.9c0,3.9-0.9,7.6-2,11.3c-0.5,1.8-1,3.7-1.8,5.4
	c-0.7,1.8-1.6,3.6-3.1,5l0.1-0.1c-0.1,0.1-0.2,0.3-0.4,0.4l-0.4,0.4l-0.3,0.3c-0.1,0.1-0.3,0.3-0.5,0.4c-1.3,0.8-2.7,1.4-4.2,1.7
	c-1.5,0.3-3,0.3-4.5,0.1c-1.5-0.2-3-0.6-4.3-1.2c-1.4-0.6-2.7-1.3-3.9-2.1c-1.3-0.8-2.4-1.7-3.6-2.6s-2.3-1.8-3.4-2.8
	c-2.2-1.9-4.5-3.8-6.7-5.7l-6.6-5.8c-1.1-0.9-2.2-2-3.3-3l-3.2-3l-6.5-6C247.7,217,245.6,215,243.4,213z M253,199.8l-3.8,0.6v-0.2
	c1.9-0.2,3.8-0.4,5.7-0.5l5.7-0.4c3.8-0.3,7.6-0.5,11.4-0.5c1.9,0,3.8,0.1,5.7,0.2l5.7,0.6l1.4,0.1l0.7,0.1c0.3,0,0.5,0.1,0.7,0.1
	l2.8,0.6c1.9,0.4,3.7,0.7,5.6,1.2c1.8,0.4,3.7,0.7,5.5,0.7c0.5,0,0.9,0,1.4-0.1l0.7-0.1c0.2,0,0.4-0.1,0.7-0.1
	c0.9-0.2,1.7-0.5,2.5-0.9c1.6-0.9,3-2.1,4.1-3.5c1.1-1.5,1.8-3.2,2.3-5s0.7-3.7,0.5-5.5c-0.2-1.9-0.7-3.7-1.2-5.5
	c-0.6-1.8-1.4-3.5-2.2-5.2c-0.4-0.8-0.9-1.6-1.4-2.5l-1.4-2.5c1,1.6,2.1,3.2,3,4.8c0.9,1.7,1.8,3.4,2.4,5.2c0.6,1.8,1.2,3.6,1.4,5.6
	c0.2,1.9,0.1,3.9-0.4,5.8c-0.4,1.9-1.2,3.7-2.3,5.3c-1.2,1.6-2.7,2.9-4.4,3.8c-0.9,0.5-1.8,0.8-2.8,1c-0.2,0-0.5,0.1-0.7,0.1
	l-0.7,0.1c-0.5,0.1-1,0.1-1.5,0.1c-2,0-3.9-0.3-5.7-0.7l-5.6-1.2l-2.8-0.6l-0.7-0.1l-0.7-0.1l-1.4-0.2l-5.7-0.6
	c-1.8-0.1-3.8-0.2-5.6-0.2c-3.8-0.1-7.6,0-11.3,0.2l-5.7,0.3l-5.7,0.3v-0.2L253,199.8L253,199.8z M231.1,216.8l1.9,7.8l1.9,7.8
	l1.8,7.8c0.3,1.3,0.7,2.6,1,3.9l1,3.9l1,3.9c0.3,1.3,0.7,2.6,1.1,3.8c0.8,2.5,1.7,5,2.8,7.4c1.1,2.4,2.4,4.8,3.9,6.9
	c1.5,2.2,3.3,4.2,5.3,5.9c0.8,0.6,1.6,1,2.4,1.2c0.4,0.1,0.9,0.2,1.3,0.2s0.9-0.1,1.3-0.2c0.9-0.3,1.8-0.7,2.7-1l2.7-1.1l5.4-2.2
	c1.8-0.7,3.5-1.5,5.1-2.6c1.6-1,3-2.3,3.9-3.9s1.2-3.5,1-5.3c-0.1-0.9-0.3-1.8-0.7-2.7c-0.4-0.9-0.8-1.7-1.3-2.5
	c-1-1.6-2.2-3.1-3.5-4.6L258,233.3l-7.6-8.8c-1.3-1.5-2.6-2.9-3.9-4.3l-2.1-2.1c-0.7-0.7-1.4-1.4-2.2-1.9l-1.3-0.8l1.3,0.8
	c0.8,0.6,1.5,1.2,2.2,1.9c0.7,0.7,1.4,1.3,2.1,2c1.4,1.4,2.7,2.8,4,4.2l7.8,8.7l15.3,17.6c1.3,1.5,2.6,3,3.6,4.6
	c0.5,0.8,1,1.7,1.4,2.6s0.6,1.9,0.8,2.9c0.3,2,0,4.1-1.1,5.9c-1,1.8-2.5,3.2-4.2,4.3c-1.7,1.1-3.5,1.9-5.3,2.7
	c-1.8,0.8-3.6,1.5-5.4,2.2l-2.7,1.1c-0.9,0.3-1.8,0.8-2.8,1.1c-0.5,0.1-1,0.2-1.6,0.2c-0.5,0-1.1-0.1-1.6-0.2
	c-1-0.3-1.9-0.8-2.7-1.4c-2-1.8-3.8-3.8-5.4-6.1c-1.5-2.2-2.8-4.6-3.9-7.1s-2-5-2.8-7.6c-0.4-1.3-0.8-2.6-1.1-3.9l-1-3.9l-1-3.9
	l-0.9-3.9l-1.7-7.8l-1.7-7.8L231.1,216.8L231.1,216.8z M221.1,215.8c0,0-0.9,2-2.5,5.5c-1.5,3.6-3.7,8.7-6.3,14.8
	c-2.4,6.2-5.2,13.5-7.7,21.4c-1.2,4-2.5,8.1-3.7,12.3c-0.1,0.5-0.3,1-0.4,1.6c-0.1,0.5-0.2,1-0.2,1.5c0,0.9,0.8,1.6,1.7,2.2
	c1.8,1.1,3.9,1.7,6.1,1.8c4.3,0.1,8.6-1.4,12.1-3.9c1.8-1.2,3.2-2.7,4.2-4.6c1-1.8,1.3-3.9,1.5-5.9c0.5-8.3,0.9-16,1.3-22.7
	c0.3-6.6,0.6-12.2,0.8-16.1c0.2-3.9,0.3-6.1,0.3-6.1s-0.2,8.9-0.6,22.2c-0.1,3.3-0.3,6.9-0.4,10.7c-0.2,3.8-0.3,7.8-0.6,12
	c-0.2,2.1-0.5,4.3-1.6,6.3s-2.6,3.6-4.5,4.9c-3.6,2.5-8.1,4.2-12.7,4.1c-2.3-0.1-4.6-0.8-6.5-2c-0.5-0.3-1-0.7-1.4-1.2
	s-0.7-1.1-0.8-1.8c0-0.7,0.1-1.2,0.2-1.8c0.1-0.6,0.3-1.1,0.4-1.6c1.2-4.2,2.5-8.3,3.7-12.3c1.3-4,2.7-7.7,4-11.3
	c1.4-3.6,2.7-6.9,3.9-10c1.3-3.1,2.6-5.8,3.8-8.3c1.1-2.5,2.1-4.6,2.9-6.4C220.1,217.8,221.1,215.8,221.1,215.8L221.1,215.8z
	 M214.4,220.3c0,0,0.2,0.1,0.2,0.4c0.1,0.3,0.1,0.6,0,0.8c-0.1,0.3-0.3,0.5-0.5,0.6l-0.4,0.2c0,0-0.1-0.2-0.1-0.4s0-0.5,0.1-0.8
	c0.1-0.2,0.3-0.5,0.4-0.6S214.4,220.3,214.4,220.3z"/>
<path d="M171.3,256.7l2.6,2.1c1,0.7,2.1,1.4,3.2,1.8s2.3,0.6,3.5,0.5c0.6-0.1,1.2-0.2,1.7-0.4c0.3-0.1,0.6-0.2,0.8-0.3
	c0.3-0.1,0.5-0.2,0.8-0.4c1-0.6,2-1.3,2.8-2.2c0.8-0.9,1.5-1.9,2.3-2.9l2.2-2.9l4.5-5.9l4.5-5.9l2.2-3l2.3-2.9l2.2-3
	c0.7-1,1.5-2,2.3-2.9l2.3-2.9c0.8-1,1.4-2,2-3.1c0.3-0.7,0.6-1.4,0.7-2.1c-0.1,0.7-0.4,1.5-0.4,2.2h-0.1c-0.5,1.1-1.2,2.2-1.9,3.2
	l-2.2,3c-0.8,1-1.5,2-2.2,3l-2.1,3c-0.7,1-1.5,2-2.2,3l-2.2,3l-4.4,6c-1.5,2-3,3.9-4.5,5.9l-2.3,2.9l-1.1,1.5
	c-0.4,0.5-0.8,1-1.2,1.4c-0.9,0.9-1.9,1.7-3.1,2.3c-0.3,0.1-0.6,0.3-0.9,0.4l-0.9,0.3c-0.6,0.2-1.3,0.3-1.9,0.3
	c-1.3,0-2.6-0.1-3.7-0.7c-1.2-0.5-2.2-1.2-3.2-2L171.3,256.7L171.3,256.7z M145.5,62.9c0,0,0.7,0,1.9-0.1c1.3,0,3.1-0.1,5.5-0.2
	s5.2-0.1,8.5-0.1s7,0.1,11.1,0.2s8.4,0.3,13.1,0.5c4.6,0.3,9.5,0.8,14.6,1.2c5,0.5,10.3,0.8,15.6,1c2.7,0.1,5.3,0.1,8,0.1
	s5.4-0.1,8.1-0.1c10.8-0.2,21.6-0.5,31.7-0.7c2.5-0.1,5-0.1,7.5-0.1c2.4,0,4.8-0.1,7.1-0.1h13.1c4.1,0.1,7.8,0.1,11.1,0.2
	s6.2,0.2,8.5,0.3c4.7,0.2,7.4,0.4,7.4,0.4v0.3c0,0-0.7,0.1-1.9,0.1c-1.3,0.1-3.1,0.2-5.5,0.4s-5.2,0.3-8.5,0.5s-7,0.3-11,0.5
	c-4,0.1-8.4,0.3-13.1,0.4c-2.3,0.1-4.7,0.1-7.1,0.1s-4.9,0.1-7.5,0c-5.1,0-10.3,0-15.6-0.1c-2.7-0.1-5.3-0.1-8-0.2s-5.4-0.3-8.1-0.4
	c-2.7-0.1-5.4-0.3-8.1-0.4c-2.7-0.1-5.4-0.3-8-0.4c-5.3-0.2-10.5-0.3-15.6-0.3s-10,0-14.6-0.1s-9-0.4-13.1-0.6
	c-4-0.3-7.7-0.5-11-0.7s-6.1-0.5-8.5-0.7s-4.2-0.4-5.5-0.5s-1.9-0.2-1.9-0.2L145.5,62.9L145.5,62.9z"/>
</svg>
