<?xml version="1.0" encoding="utf-8"?>
<!-- Generator: Adobe Illustrator 19.2.0, SVG Export Plug-In . SVG Version: 6.00 Build 0)  -->
<svg version="1.1" id="Layer_1" xmlns="http://www.w3.org/2000/svg" xmlns:xlink="http://www.w3.org/1999/xlink" x="0px" y="0px"
	 viewBox="0 0 700 700" style="enable-background:new 0 0 700 700;" xml:space="preserve">
<style type="text/css">
	.st0{fill:none;}
	.st1{fill:none;stroke:#000000;stroke-width:5;stroke-miterlimit:10;}
	.st2{opacity:0.9;fill:url(#SVGID_1_);}
	.st3{opacity:0.86;}
	.st4{fill:#C4053B;}
	.st5{fill:none;stroke:#000000;stroke-width:2;stroke-miterlimit:10;}
	.st6{fill:none;stroke:#000000;stroke-miterlimit:10;}
</style>
<rect x="0" y="0" class="st0" width="700" height="700"/>
<path class="st1" d="M6708.6-568.1c0.3,38.5,0.2,82.4-5.7,120.5c-2.3,14.7-3.7,31.7-10.6,44.9c-9.4,17.9-18.6,35.9-34,49.5
	c-5.5,4.9-11.5,9.2-17.9,12.8c-4.2,2.3-15.3,5.1-15.9,10.8c-0.4,3.6,3.8,5.7,6.9,7.6c6.9,4.3,10.9,12.3,11.6,20.4
	c1.5,15.4-5.6,30.7-18.9,38.8c-0.8,0.5-1.6,1-1.9,1.8c-0.7,2.1,2.1,3.4,4.2,3.8c12.1,2.1,24,5,35.7,8.7c7.7,2.4,24.3,10.6,12,18.5
	c-7.7,4.9-17,6.2-26,7.3c-24.7,3.1-49.7,6.2-74.5,3.9c-5.6-0.5-11.2-1.4-16.8-2.2c-7.5-1.1-15-2.2-22.5-3.3
	c-5.3-0.8-11.8-2.7-12.7-7.9c-1.7-10.2,16.6-15.1,23.6-17.2c4.9-1.5,36.5-4.6,35.6-9.3c-0.5-2.4-2.8-3.9-4.8-5.4
	c-8.9-6.4-15-16.4-16.6-27.2c-1.6-10.8,1.3-22.2,7.9-30.9c2.2-2.9,4.9-6,4.4-9.6c-0.2-1.5-1-2.9-2-4.1c-5.1-6.7-15.9-9.5-22.8-14.7
	c-7.9-6-15.2-12.8-21.6-20.4c-12.5-14.5-22.1-31.5-27.6-49.9c-5.2-17.2-6.9-35.3-8.2-53.2c-2.3-31-3.6-62-3.8-93.1
	c20.2-2.4,42-1.8,62.4-1.4C6600.9-567.5,6708.6-570.2,6708.6-568.1z"/>
<g>
	<path d="M6582-253.2c0,0,0,0.2,0,0.5c0,0.3,0,0.8,0,1.4c0,0.6,0.1,1.3,0.6,1.9c0.4,0.6,1.2,0.8,2.2,0.8c2.1-0.1,4.5-0.2,7.1-0.2
		c1.3,0,2.7-0.1,4-0.1c1.4-0.1,2.8-0.1,4.1-0.2c1.4-0.1,2.8-0.1,4.1-0.2c1.4-0.1,2.7-0.1,4-0.2c2.6-0.1,5-0.2,7.1-0.3
		c2-0.1,3.7-0.6,4.6-1.3c0.4-0.4,0.7-0.8,0.8-1.1c0.1-0.3,0.2-0.5,0.2-0.5s0,0.2,0,0.5c-0.1,0.3-0.2,0.8-0.6,1.3
		c-0.4,0.5-1.1,1-1.9,1.4c-0.8,0.4-1.8,0.7-2.8,0.8c-2.1,0.4-4.5,0.7-7.1,0.9c-1.3,0.1-2.7,0.3-4,0.4c-1.4,0.1-2.8,0.2-4.2,0.2
		c-1.4,0-2.8,0.1-4.2,0.1c-1.4,0-2.7,0-4.1,0c-2.6-0.1-5.1-0.2-7.2-0.4c-0.5-0.1-1.1-0.1-1.6-0.4c-0.5-0.3-0.9-0.7-1.1-1.1
		c-0.4-0.9-0.4-1.7-0.3-2.3c0.1-0.6,0.2-1.1,0.3-1.4C6581.9-253,6582-253.2,6582-253.2z"/>
</g>
<g>
	<path d="M6581.6-337.8c0,0,0.6,0.2,1.6,0.5c0.5,0.2,1.2,0.3,1.9,0.5c0.7,0.2,1.6,0.4,2.4,0.5c0.9,0.2,1.9,0.3,2.9,0.5
		c1,0.1,2.1,0.2,3.3,0.3c1.1,0.1,2.3,0.1,3.5,0.2c1.2,0,2.4,0,3.6,0c1.2,0,2.5,0,3.7-0.1c1.2,0,2.4-0.1,3.6-0.1
		c2.3-0.1,4.5-0.1,6.3-0.3c1.8-0.2,3.2-0.6,4.1-1.2c0.4-0.3,0.8-0.6,1-0.8c0.2-0.2,0.3-0.3,0.3-0.3s-0.1,0.1-0.2,0.4
		c-0.2,0.3-0.4,0.6-0.8,1c-0.8,0.8-2.3,1.6-4.2,2c-0.9,0.2-2,0.4-3,0.5c-1.1,0.1-2.2,0.3-3.3,0.4c-1.2,0.1-2.4,0.2-3.6,0.3
		c-1.2,0.1-2.5,0.1-3.7,0.2c-1.3,0-2.5,0-3.7-0.1c-0.6,0-1.2-0.1-1.8-0.1c-0.6-0.1-1.2-0.1-1.8-0.2c-1.2-0.1-2.3-0.4-3.4-0.6
		c-0.5-0.1-1-0.3-1.5-0.4c-0.5-0.2-1-0.3-1.4-0.4c-1.8-0.6-3.2-1.3-4.2-1.8C6582.2-337.5,6581.6-337.8,6581.6-337.8z"/>
</g>
<g>
	<path d="M6531.5-235.7c0,0,0.1,0.1,0.3,0.3c0.2,0.2,0.5,0.4,1,0.6c0.9,0.5,2.3,1,4.2,1.4c1.9,0.4,4.2,0.7,6.8,1.1
		c2.6,0.4,5.6,0.7,8.9,1.1c3.3,0.3,6.8,0.7,10.6,1c3.7,0.3,7.7,0.5,11.8,0.7c8.2,0.3,17,0.5,25.7,0.6c4.4,0.1,8.8,0.1,13.1,0.2
		c4.3,0,8.5,0.1,12.6,0c4.1-0.1,8-0.4,11.7-0.8c3.7-0.5,7.2-1.1,10.4-1.7c6.4-1.4,11.6-3,15.2-4.3c1.8-0.7,3.2-1.2,4.2-1.6
		c1-0.4,1.5-0.6,1.5-0.6s-0.5,0.2-1.4,0.7c-0.9,0.4-2.3,1.1-4.1,1.8c-3.5,1.5-8.7,3.5-15.1,5.1c-6.4,1.6-14.1,2.9-22.3,3.2
		c-4.1,0.2-8.4,0.2-12.7,0.2c-4.3,0-8.7-0.1-13.1-0.1c-4.4-0.1-8.8-0.2-13.1-0.3c-4.3-0.1-8.6-0.4-12.7-0.6c-4.1-0.3-8.1-0.6-11.8-1
		c-3.8-0.4-7.3-0.8-10.6-1.3c-1.6-0.3-3.2-0.5-4.7-0.7c-1.5-0.3-2.9-0.5-4.2-0.8c-2.6-0.5-4.9-1-6.8-1.5c-1.9-0.5-3.3-1.1-4.1-1.7
		c-0.4-0.3-0.7-0.5-0.9-0.7C6531.6-235.6,6531.5-235.7,6531.5-235.7z"/>
</g>
<linearGradient id="SVGID_1_" gradientUnits="userSpaceOnUse" x1="6498.813" y1="-446.2358" x2="6704.6909" y2="-446.2358">
	<stop  offset="1.785714e-02" style="stop-color:#801FE3"/>
	<stop  offset="1" style="stop-color:#B7A7FF"/>
</linearGradient>
<path class="st2" d="M6498.8-539.9c1.4,24.4,2.7,48.8,4.1,73.2c0.4,7.9,0.9,15.9,2.2,23.7c1.8,11.1,5.4,21.8,8.9,32.5
	c3,9.1,6,18.2,11.1,26.3c17.8,28.1,51.5,32.7,81.9,31.3c10.6-0.5,21.3-1.5,31.5-4.7c66.9-21.3,65.2-117,66.1-172.7
	c0-2.6,0.1-5.1,0.1-7.7C6636-535.8,6567.2-534,6498.8-539.9z"/>
<g>
	<path d="M6493.7-559.6c0,0,0.6,8.1,1.5,22.2c0.5,7.1,1,15.6,1.7,25.5c0.6,9.8,1.4,20.9,2.1,33.1c0.4,6.1,0.7,12.4,1.3,18.9
		c0.5,6.5,1.4,13.2,3,19.9c1.6,6.7,3.7,13.5,6,20.4c2.4,6.9,4.5,14,7.5,20.9c0.8,1.7,1.5,3.4,2.4,5.1c0.9,1.6,1.8,3.3,2.8,4.8
		c1.1,1.6,2.2,3.1,3.4,4.7c1.2,1.4,2.5,2.8,3.7,4.3c5.3,5.5,11.7,10,18.8,13.2c7.1,3.3,14.8,5.4,22.6,6.6c7.9,1.3,15.9,1.7,23.9,1.7
		c8-0.1,16.1-0.4,24-1.5c3.9-0.5,7.9-1.2,11.7-2.2c1-0.3,1.9-0.5,2.8-0.8l0.7-0.2c0.1,0,0,0,0.1,0l0.2-0.1l0.4-0.1l1.4-0.5l2.8-1
		c0.5-0.2,0.9-0.3,1.4-0.5l1.3-0.6c7.1-3.1,13.7-7.4,19.4-12.5c5.7-5.1,10.5-11.1,14.4-17.5c4-6.3,7.1-13.1,9.7-19.8
		c2.6-6.8,4.6-13.6,6.3-20.3c3.2-13.5,5-26.5,6.2-38.5c1.1-12.1,1.7-23.2,2-33c0.3-9.9,0.5-18.4,0.7-25.5
		c0.2-14.2,0.4-22.2,0.4-22.2s0,2,0.1,5.8c0,3.8,0.1,9.4,0.2,16.4c0,7.1,0,15.7-0.2,25.5c-0.1,9.9-0.5,21-1.5,33.1
		c-1,12.1-2.6,25.2-5.7,38.9c-1.6,6.8-3.6,13.7-6.1,20.6c-2.5,6.9-5.7,13.8-9.8,20.3c-4,6.5-9,12.7-14.8,18.1
		c-5.9,5.4-12.7,9.8-20.2,13.1l-1.4,0.6c-0.5,0.2-0.9,0.4-1.4,0.5l-2.8,1l-1.4,0.5l-0.4,0.1l-0.2,0.1l-0.2,0.1l-0.7,0.2
		c-1,0.3-2,0.6-2.9,0.8c-3.9,1-8,1.8-12,2.4c-8.1,1.1-16.2,1.5-24.4,1.6c-8.2,0-16.3-0.5-24.4-1.8c-8-1.3-16-3.5-23.3-7
		c-7.4-3.4-14.1-8.1-19.6-13.9c-1.3-1.5-2.6-3.1-3.9-4.6c-1.1-1.6-2.2-3.2-3.3-4.7c-2.2-3.4-3.9-6.8-5.4-10.4
		c-3-7.1-5.2-14.2-7.5-21.2c-2.2-7-4.3-13.9-5.8-20.7c-1.6-6.9-2.4-13.6-2.8-20.2c-0.5-6.6-0.7-12.9-1-18.9
		c-0.6-12.1-1.1-23.2-1.6-33.1c-0.5-9.9-0.8-18.4-1.2-25.5C6494-551.6,6493.7-559.6,6493.7-559.6z"/>
</g>
<g>
	<path d="M6494.1-544.2c0,0,0.8,0,2.4,0.1c1.6,0.1,3.8,0.2,6.7,0.3c2.9,0.2,6.4,0.3,10.5,0.5c4,0.2,8.6,0.3,13.6,0.5
		c5,0.2,10.4,0.3,16.1,0.5c5.7,0.2,11.7,0.2,17.9,0.4c6.2,0.1,12.6,0.1,19.2,0.2c6.5,0.1,13.2,0,19.8,0.1c6.6,0,13.3,0,19.8-0.1
		c6.5-0.1,13-0.1,19.2-0.2c12.5-0.1,24.1-0.2,34-0.3c10-0.1,18.3-0.1,24.1-0.1c2.9,0,5.2,0,6.7,0c1.6,0,2.4,0,2.4,0
		s-0.8,0.1-2.4,0.2c-1.6,0.1-3.8,0.2-6.7,0.4c-5.8,0.3-14.1,0.8-24.1,1.3c-10,0.5-21.6,0.9-34,1.3c-6.2,0.1-12.7,0.4-19.2,0.4
		c-6.5,0.1-13.2,0.1-19.8,0.2c-6.6,0-13.3,0-19.8-0.2c-6.5-0.1-13-0.3-19.2-0.4c-6.2-0.2-12.3-0.4-18-0.8c-2.9-0.2-5.6-0.3-8.3-0.5
		c-2.7-0.2-5.3-0.4-7.8-0.5c-2.5-0.2-4.9-0.3-7.1-0.5c-2.3-0.2-4.4-0.4-6.4-0.6c-4-0.4-7.6-0.7-10.4-1c-2.9-0.3-5.2-0.6-6.7-0.7
		C6494.9-544.1,6494.1-544.2,6494.1-544.2z"/>
</g>
<g>
	<path class="st1" d="M429.7,666.3c6.3,0.5,14.8,3,17.4,8.6c1.9,4,0.9,8.8-2.5,11.8c-3.4,3-9.5,4.3-13.9,5.4
		c-41.2,10.8-140.8,11.4-169.9-4.5c-1.7-0.9-3.5-1.8-4.8-3.3c-3.4-4.1-1.4-10.6,2.9-13.9c4.2-3.3,9.8-4.1,15.2-4.9
		c16.2-2.6,31.5-1.9,43.2-13c28-26.6,23.3-75.6,23.7-115.8c0.2-21.5-0.8-42.3-0.6-63.8c0.2-19.5-0.1-40.6-11.9-56.3
		c-4.5-6-10.5-10.8-16.4-15.6c-26.2-21.1-49.1-40.5-65.8-69.9c-8.6-15.2-12.3-32.3-10.7-53.3c0.4-5.6,21.3-136.9,39.5-181.3
		c4.1-2.5,136.1-1.8,154.1,1.7c6.6,20,28.8,117,31.1,142.2c1.3,14.3,2.7,22.5,4,36.8c1.3,13.6-0.8,30.8-4.3,44
		c-4,15-13.9,27.8-24.6,39.2c-14.6,15.7-31,29.6-48.9,41.6c-5.1,3.4-10.4,6.7-14.2,11.5c-16.9,21-14.6,52.6-14.9,78
		c-0.2,23.1,1,45.4,1.3,70.1c0.2,21.3,0.7,48.4,8.8,68.2C378.2,655.6,403.3,664.4,429.7,666.3z"/>
	<g>
		<path d="M333.2,640.8c0,0,0.5,0.2,1.4,0.4c0.9,0.3,2.1,0.7,3.6,1.1c1.5,0.4,3.2,0.8,5.1,1.1c0.9,0.2,1.9,0.3,2.9,0.4
			c1,0.1,2,0.2,3,0.3c0.5,0,1,0.1,1.5,0.1c0.5,0,1,0,1.5,0c1,0,2,0,2.9-0.1c0.9-0.1,1.8-0.2,2.7-0.3c0.8-0.2,1.7-0.3,2.4-0.5
			c1.5-0.4,2.7-0.9,3.5-1.2c0.8-0.4,1.3-0.6,1.3-0.6s-0.1,0.1-0.3,0.3c-0.2,0.2-0.4,0.4-0.8,0.7c-0.7,0.6-1.8,1.3-3.3,2
			c-1.5,0.7-3.3,1.2-5.3,1.5c-1,0.1-2,0.3-3.1,0.3c-0.5,0-1.1,0-1.6,0c-0.5,0-1.1,0-1.6-0.1c-2.1-0.2-4.2-0.5-6.2-1
			c-1.9-0.5-3.7-1.1-5.1-1.8c-1.4-0.6-2.6-1.3-3.4-1.8c-0.4-0.2-0.7-0.5-0.9-0.6C333.3,640.9,333.2,640.8,333.2,640.8z"/>
	</g>
	<g>
		<path d="M261.5,672.3c0,0,0,0.2,0,0.5c0,0.3,0.2,0.9,0.4,1.5c0.3,0.6,0.7,1.3,1.4,2c0.7,0.7,1.6,1.3,2.8,1.8
			c1.1,0.5,2.5,1,3.9,1.5c1.4,0.5,3,1,4.7,1.6c3.4,1.1,7.1,2.4,11.3,3.5c4.2,1.2,8.8,2.2,13.7,2.7c4.9,0.4,10.2,0.7,15.6,1.1
			c5.4,0.3,11.1,0.7,16.8,0.9c2.9,0.1,5.7,0.2,8.6,0.3c2.9,0.1,5.8-0.1,8.6-0.2c11.6-0.5,23.2-1.2,34.1-2.1
			c5.4-0.4,10.7-0.9,15.6-1.4c5-0.5,9.7-1,13.9-1.7c1.1-0.2,2.1-0.3,3.2-0.5c1-0.2,2-0.4,3-0.5c0.5-0.1,1-0.2,1.4-0.3
			c0.5-0.1,0.9-0.2,1.4-0.3c0.9-0.2,1.8-0.4,2.7-0.6c3.4-0.9,6.3-1.9,8.7-2.7c2.4-0.9,4.3-1.5,5.4-2.3c0.6-0.4,0.9-0.8,1.2-1
			c0.2-0.3,0.3-0.4,0.3-0.4s-0.1,0.2-0.3,0.4c-0.2,0.3-0.6,0.7-1.1,1.1c-1.1,0.9-3,1.7-5.3,2.6c-2.4,1-5.3,2-8.7,3.1
			c-3.4,1-7.3,1.9-11.7,2.6c-4.3,0.7-9,1.4-14,2c-5,0.6-10.2,1.2-15.7,1.6c-10.9,1-22.5,1.8-34.1,2.3c-2.9,0.1-5.8,0.2-8.8,0.2
			c-2.9-0.1-5.8-0.2-8.7-0.3c-5.7-0.3-11.3-0.6-16.8-1c-5.4-0.4-10.7-0.8-15.7-1.3c-5-0.6-9.7-1.8-13.8-3c-4.2-1.2-8-2.6-11.3-3.9
			c-1.7-0.6-3.2-1.2-4.6-1.8c-1.4-0.6-2.8-1.1-3.9-1.6c-1.2-0.6-2.1-1.3-2.8-2c-0.7-0.7-1.1-1.5-1.4-2.1c-0.3-0.6-0.3-1.2-0.4-1.5
			C261.5,672.4,261.5,672.3,261.5,672.3z"/>
	</g>
	<g class="st3">
		<path class="st4" d="M435.3,160.8c-27.4-2.7-54.8-4.4-82.3-5.2c-28.2-0.8-56.3-0.7-84.5-0.3c-0.9,0-1.7,0-2.6,0.1
			C255.2,204.5,243.7,264.6,243,270c-0.6,5.1-2.6,22.8-1.3,29c0.2,0,0.8,35.2,38.6,72.1c14.5,14.1,39.3,35.6,67.8,35.5
			c17.7-0.1,34.4-7.1,49.6-16c20.1-11.8,47-39.6,54.8-67.6c1.8-6.3,4-22.5,3.7-24.5l0.2,0.9c2.9-26.7-12.8-110.1-18.7-138.4
			C437,160.9,436.1,160.8,435.3,160.8z"/>
	</g>
	<g>
		<path d="M423,98.4c1.7,3.8,2.8,7.8,3.9,11.7c1.1,4,2.2,8,3.3,12l6.2,24c1,4,1.8,8.1,2.7,12.1l2.5,12.1c1.6,8.1,3.2,16.2,4.7,24.3
			c1.5,8.1,2.9,16.3,4.2,24.4c1.3,8.2,2.6,16.3,3.7,24.5c0.6,4.1,1.1,8.2,1.6,12.3c0.5,4.1,0.9,8.2,1.3,12.4
			c0.3,4.1,0.7,8.3,0.8,12.4c0.1,4.2,0.2,8.3-0.2,12.6l-0.7,6.6l-1.7-6.4l-0.2-0.9l2.4-0.5c0,0.3,0.1,0.6,0,0.8l0,0.7l-0.1,1.3
			c-0.1,0.9-0.2,1.7-0.3,2.6c-0.2,1.7-0.4,3.4-0.7,5.1c-0.5,3.4-1,6.8-1.7,10.2c-0.4,1.7-0.7,3.4-1.3,5.1c-0.5,1.6-1,3.3-1.6,4.9
			l-1.9,4.9l-2.2,4.7c-3.1,6.2-6.9,12-11,17.6c-4.1,5.5-8.6,10.8-13.5,15.7c-4.9,4.9-10,9.5-15.6,13.6c-2.8,2.1-5.6,4-8.6,5.8
			c-3,1.8-6,3.4-9,5c-3.1,1.6-6.2,3-9.4,4.4c-3.2,1.3-6.5,2.5-9.8,3.6c-6.6,2-13.5,3.4-20.5,3.6l-1.3,0l-0.7,0.1l-0.2,0.1h-0.2
			l-0.3-0.1l-2.6-0.2c-0.9,0-1.7-0.1-2.6-0.2l-2.6-0.4l-2.6-0.4l-2.6-0.6l-2.6-0.6l-2.5-0.8c-6.7-2-13-4.9-19-8.4
			c-6-3.5-11.6-7.5-17-11.9c-5.4-4.4-10.4-9-15.3-13.8c-9.8-9.7-18.4-20.7-25.1-32.8c-3.3-6.1-6.2-12.4-8.4-18.9
			c-1.1-3.3-2.1-6.6-2.8-10c-0.4-1.7-0.7-3.4-1-5.1c-0.1-0.9-0.3-1.7-0.4-2.6l-0.1-1.3l-0.1-0.6l0-0.3l0-0.1c0,0,0-0.1,0,0
			c0.4,0-1-0.2,1.3,1l-1.3-1c-0.4-2.3-0.4-4.4-0.4-6.5c0-2.1,0.1-4.2,0.2-6.3c0.3-4.2,0.6-8.4,1.1-12.6c0.4-4.2,1.2-8.3,2-12.5
			l2.4-12.3c3.2-16.4,6.5-32.8,10-49.2c1.7-8.2,3.5-16.4,5.2-24.5c1.8-8.2,3.6-16.3,5.4-24.5c1.8-8.2,3.7-16.3,5.7-24.4l1.5-6.1
			l1.6-6.1c1-4.1,2.2-8.1,3.3-12.1c-1,4-2.2,8.1-3.1,12.2l-1.5,6.1l-1.4,6.1c-1.9,8.2-3.6,16.3-5.4,24.5c-1.7,8.2-3.4,16.4-5.1,24.6
			l-4.9,24.6c-3.3,16.4-6.4,32.8-9.5,49.3l-2.3,12.3c-0.7,4.1-1.5,8.2-1.9,12.3c-0.4,4.1-0.8,8.3-1,12.4c-0.1,2.1-0.2,4.1-0.2,6.2
			c0,2,0.1,4.1,0.4,6l-1.3-1c2.2,1.2,0.9,1.1,1.3,1.1l0,0.1l0,0.2l0,0.3l0.1,0.6l0.1,1.2c0.1,0.8,0.2,1.7,0.4,2.5
			c0.3,1.7,0.6,3.3,1,5c0.8,3.3,1.7,6.5,2.8,9.7c2.2,6.4,5,12.6,8.3,18.5c6.6,11.8,15.1,22.6,24.7,32.1c9.7,9.5,20.1,18.4,31.8,25.2
			c5.8,3.4,12,6.2,18.4,8.1l2.4,0.7l2.5,0.5l2.4,0.5l2.4,0.3l2.4,0.3c0.8,0.1,1.7,0.1,2.6,0.1l2.6,0.1l0.3,0l0.2,0l0.6,0l1.3,0
			c6.7-0.2,13.3-1.5,19.8-3.4c3.2-1,6.4-2.1,9.5-3.4c3.1-1.3,6.2-2.7,9.2-4.3c3-1.5,6-3.2,8.9-4.9c2.9-1.7,5.7-3.6,8.4-5.6
			c5.4-4,10.5-8.5,15.3-13.3c4.8-4.8,9.2-9.9,13.3-15.4c4.1-5.4,7.7-11.1,10.8-17.1l2.2-4.6l1.9-4.6c0.6-1.6,1.1-3.2,1.6-4.9
			c0.5-1.5,0.9-3.2,1.2-4.8c0.7-3.3,1.2-6.7,1.7-10c0.2-1.7,0.5-3.4,0.7-5c0.1-0.8,0.2-1.7,0.3-2.5l0.1-1.2l0-0.6c0-0.2,0-0.3,0-0.4
			l0.3-8.5l2.1,8l0.2,0.9l-2.4,0.2c0.4-4,0.4-8.1,0.3-12.2c-0.1-4.1-0.4-8.2-0.7-12.3c-0.3-4.1-0.7-8.2-1.2-12.3
			c-0.4-4.1-0.9-8.2-1.5-12.3c-1.1-8.2-2.2-16.4-3.5-24.5c-1.3-8.2-2.6-16.3-4-24.4c-1.4-8.1-2.8-16.3-4.4-24.4l-2.3-12.2
			c-0.8-4-1.6-8.1-2.5-12.1l-5.8-24.1c-1-4-2-8-3.1-12C425.6,106.2,424.6,102.2,423,98.4z"/>
	</g>
	<path class="st5" d="M349.9,267.4c-3.1-6.9-17.8-14.4-25.2-16.8c-12.6-4-25.3-8-37.9-12c-2.7-0.9-5.6-1.7-8.4-1.3
		c-5,0.8-8.1,5.4-10.4,9.5c-5.1,9.2-9.8,18.7-14.1,28.3c-3.8,8.6-3.1,17.2-2.6,26.4c0.2,2.9,0.5,6,2.6,8.2c1.5,1.6,3.7,2.5,5.8,3.3
		c11.5,4.6,23,9.2,35.1,12.3c7,1.8,14.6,3.1,21.4,0.8c8.7-3,13.7-11.1,18-18.6c5.7-9.8,11.4-19.7,17-29.5c1.1-1.9,2.3-4.1,1.8-6.2
		C352.6,270.1,351.3,268.7,349.9,267.4z"/>
	<g>
		<path d="M254.9,280.7c0,0,0.3,0,1,0c0.6,0,1.5-0.1,2.7,0c1.2,0,2.6,0.1,4.2,0.2c1.6,0.1,3.5,0.3,5.4,0.7c4,0.6,8.5,1.6,13.4,2.7
			c2.4,0.6,4.9,1.1,7.5,1.6c2.6,0.5,5.2,1.1,7.7,1.2c2.5,0.1,5-0.4,6.6-2.1c0.8-0.8,1.6-1.9,2.3-2.9c0.7-1.1,1.4-2.1,2.1-3.1
			c2.8-4.1,5.3-8,7.3-11.4c2.1-3.4,3.7-6.3,4.9-8.3c1.1-2,1.8-3.2,1.8-3.2s-0.1,0.3-0.4,0.9c-0.2,0.6-0.6,1.4-1.1,2.5
			c-1,2.1-2.3,5.2-4.2,8.7c-1.9,3.5-4.2,7.6-6.9,11.8c-0.7,1-1.4,2.1-2.1,3.2c-0.7,1.1-1.5,2.2-2.5,3.2c-1,1-2.4,1.8-3.8,2.2
			c-1.4,0.4-2.9,0.5-4.3,0.5c-1.4,0-2.8-0.2-4.1-0.5c-1.3-0.3-2.6-0.5-3.9-0.8c-2.6-0.6-5.1-1.2-7.5-1.8c-4.8-1.2-9.3-2.4-13.2-3.2
			c-1.9-0.4-3.7-0.8-5.3-1c-1.6-0.3-3-0.5-4.1-0.6c-1.2-0.1-2.1-0.2-2.7-0.3C255.2,280.7,254.9,280.7,254.9,280.7z"/>
	</g>
	<g>
		<path d="M301.9,288.3c0,0,0.1-0.1,0.4-0.2c0.3-0.1,0.8,0,1.2,0.4c0.2,0.2,0.4,0.4,0.6,0.7c0.2,0.3,0.3,0.6,0.5,0.9
			c0.3,0.6,0.7,1.3,1.1,2.1c0.8,1.5,1.7,3.4,2.7,5.3c0.5,1,1,2,1.4,3c0.5,1,1,2.1,1.4,3.2c0.5,1.1,0.9,2.1,1.4,3.2
			c0.5,1.1,0.9,2.1,1.3,3.1c0.8,2,1.5,3.9,2.1,5.6c1.2,3.3,1.8,5.6,1.8,5.6s-1.3-2-2.9-5.1c-0.8-1.5-1.8-3.4-2.7-5.3
			c-0.5-1-1-2-1.4-3c-0.5-1-1-2.1-1.4-3.2c-0.5-1.1-0.9-2.1-1.4-3.2c-0.5-1.1-0.9-2.1-1.3-3.1c-0.8-2-1.5-3.9-2.1-5.6
			c-0.3-0.8-0.6-1.6-0.8-2.3c-0.1-0.3-0.2-0.6-0.3-0.9c-0.1-0.3-0.2-0.5-0.4-0.7c-0.3-0.4-0.6-0.6-0.9-0.6
			C302,288.2,301.9,288.3,301.9,288.3z"/>
	</g>
	<path class="st5" d="M321.2,204.4c-1.7,12.6-4.2,25.2-7.6,37.7c-0.9,3.3-1.9,6.7-1.9,10c0,3.2,0.9,6.2,1.9,9
		c3.5,9.7,9.1,19.2,18.1,21.2c3,0.7,6.2,0.5,9.4,0.5c14.6,0.1,28.4,4.8,43,4.9c3.3,0,6.9-0.3,10-2.3c5.7-3.6,8.5-11.6,10.1-18.8
		c2.4-10.8,3.5-21.9,7.2-32.4c1.2-3.5,2.8-7.4,1.7-10.6c-1.1-3.4-4.7-4.2-7.6-5.3c-5.4-2.1-9.9-6.3-15-9.2
		c-8.4-4.9-53.6-7.2-66.6-7.7c-0.6,0-1.2,0-1.7,0.3S320.9,203.9,321.2,204.4z"/>
	<g>
		<path d="M321.8,205.8c0,0,1.1,1,3.1,2.9c1.9,1.9,4.7,4.5,8,7.8c1.7,1.6,3.4,3.4,5.4,5.1c1.9,1.8,4.1,3.5,6.4,5.1
			c1.2,0.8,2.4,1.5,3.7,2.1c1.3,0.6,2.7,1.1,4.1,1.4c2.8,0.7,5.8,0.9,8.9,0.9c3,0,6.1-0.2,9.1-0.5c3-0.2,6-0.4,8.9-0.6
			c5.8-0.4,11.1-0.6,15.7-1.1c4.6-0.5,8.3-1.2,10.9-2c2.6-0.7,4.1-1.2,4.1-1.2s-0.4,0.1-1,0.4c-0.7,0.3-1.7,0.7-2.9,1.1
			c-2.6,0.9-6.3,2-10.9,2.7c-4.6,0.8-10,1.2-15.7,1.7c-2.9,0.2-5.9,0.5-8.9,0.7c-3,0.2-6.1,0.5-9.2,0.5c-3.1,0-6.3-0.2-9.4-1
			c-3-0.8-5.9-2.2-8.3-3.9c-2.5-1.7-4.6-3.6-6.5-5.4c-1.9-1.9-3.6-3.7-5.2-5.4c-3.1-3.4-5.7-6.3-7.5-8.3
			C322.8,207,321.8,205.8,321.8,205.8z"/>
	</g>
	<g>
		<path d="M348.9,231.2c0,0-0.2,0.7-0.6,2c-0.4,1.2-1,3-1.8,5.1c-0.7,2.1-1.6,4.6-2.5,7.2c-0.9,2.6-1.9,5.4-2.8,8.3
			c-1,2.8-1.9,5.6-2.7,8.3c-0.9,2.7-1.7,5.1-2.3,7.3c-0.7,2.1-1.3,3.9-1.7,5.1c-0.4,1.2-0.7,1.9-0.7,1.9s0.1-0.7,0.3-2
			c0.2-1.3,0.5-3.1,1-5.3c0.4-2.2,1-4.8,1.8-7.5c0.4-1.4,0.7-2.8,1.2-4.2c0.4-1.4,0.9-2.8,1.3-4.3c0.5-1.4,1-2.8,1.5-4.2
			c0.5-1.4,1.1-2.7,1.6-4c1.1-2.6,2.1-5,3.1-7c1-2,1.8-3.7,2.5-4.8C348.5,231.8,348.9,231.2,348.9,231.2z"/>
	</g>
	<g>
		<path class="st5" d="M277.6,354.5c19.3-14.8,17.5-15.8,37-30.4c18.8-14.1,37.7-28.1,58.7-38.3c20.7-10,43.5-16.2,61.5-30.8
			c3.9-3.3,7.8-7,12.6-8.4c2.2,31.4-2.2,62-12.6,88.4c-2.1,5.5-18.2,25.7-23.9,30c-13.3,10.1-25.8,15.5-42.5,18.2
			c-22.3,3.5-37.8,3.5-60.1-10.7C300.6,367.4,285.9,360.4,277.6,354.5z"/>
		<path class="st6" d="M284.3,348.5c1.6,1.5,3.1,2.6,4.8,4c3.4,3,7.3,5,11.2,6.8c20.9,10.2,39.8,16.7,60.6,14.6
			c12.6-1.8,24.1-7,35.4-12.1c6.2-2.8,12.5-5.7,17.5-10.5c7.4-7.1,11.5-17.7,15-28.5c5.9-18.4,10.7-37.9,7.5-59.5
			c-0.3-2.6-1.7-4.2-3.1-6.5"/>
		<path class="st6" d="M365.6,289.8c1.5,1.6,1.8,4.1,1.3,6.2c-0.5,2.2-1.8,3.9-3.4,5.6c-2.4,2.7-5.6,4.9-9.2,5.6
			c-3.5,0.7-7.7-0.7-9.6-3.7"/>
		<g>
			<g>
				<path d="M363.4,302.9c2.2,2,4.3,4,6.5,5.9l6.6,5.8l3.3,2.9c1.1,1,2.2,2,3.3,2.9l6.7,5.7c2.2,1.9,4.5,3.8,6.8,5.6
					c1.1,0.9,2.3,1.8,3.4,2.7c1.2,0.9,2.3,1.8,3.5,2.6c1.2,0.8,2.5,1.5,3.8,2c0.3,0.1,0.7,0.3,1,0.4c0.3,0.1,0.7,0.2,1,0.3
					c0.7,0.2,1.4,0.3,2.1,0.4c1.4,0.2,2.8,0.2,4.2-0.1c1.4-0.3,2.7-0.8,3.9-1.6l0,0l0,0c0.2-0.1,0.4-0.4,0.7-0.6
					c0.1-0.1,0.2-0.2,0.3-0.3c0.1-0.1,0.2-0.2,0.3-0.3l0,0l0,0c1.3-1.2,2.1-2.9,2.8-4.6c0.7-1.7,1.2-3.6,1.7-5.4c1.1-3.6,2-7.3,2-11
					c0-0.9-0.1-1.8-0.2-2.8c-0.1-0.9-0.3-1.8-0.6-2.7c-0.6-1.8-1.4-3.4-2.5-4.9c-1.1-1.4-2.6-2.6-4.2-3.4c-1.7-0.8-3.5-1.2-5.3-1.6
					l-1.4-0.3l-0.4-0.1c-0.1,0-0.2,0-0.3-0.1l-0.7-0.1l-2.8-0.4l-5.6-0.8l-5.6-0.8l-2.8-0.4c-0.9-0.1-1.9-0.3-2.8-0.3
					c-0.9,0-1.9,0-2.8,0c-1,0-1.9-0.1-2.9-0.2l-5.7-0.4c-1.9-0.1-3.8-0.2-5.7-0.6c-1.9-0.3-3.7-0.7-5.5-1.2c1.8,0.5,3.7,0.9,5.6,1.1
					c1.9,0.3,3.8,0.3,5.7,0.4l5.7,0.3c1,0,1.9,0.1,2.8,0.1c0.9,0,1.9,0,2.8,0c1,0,1.9,0.1,2.9,0.2l2.8,0.4l5.6,0.7l5.6,0.7l2.8,0.4
					l0.7,0.1c0.1,0,0.2,0,0.4,0.1l0.3,0.1l1.4,0.3c1.9,0.3,3.8,0.8,5.5,1.6c1.8,0.8,3.3,2.1,4.5,3.6c1.2,1.5,2.1,3.3,2.7,5.2
					c0.3,0.9,0.5,1.9,0.6,2.9c0.1,0.9,0.2,1.9,0.2,2.9c0,3.9-0.9,7.6-2,11.3c-0.5,1.8-1,3.7-1.8,5.4c-0.7,1.8-1.6,3.6-3.1,5l0.1-0.1
					c-0.1,0.1-0.2,0.3-0.4,0.4c-0.1,0.1-0.3,0.3-0.4,0.4c-0.1,0.1-0.2,0.2-0.3,0.3c-0.1,0.1-0.3,0.3-0.5,0.4l0,0
					c-1.3,0.8-2.7,1.4-4.2,1.7c-1.5,0.3-3,0.3-4.5,0.1c-1.5-0.2-3-0.6-4.3-1.2c-1.4-0.6-2.7-1.3-3.9-2.1c-1.3-0.8-2.4-1.7-3.6-2.6
					c-1.2-0.9-2.3-1.8-3.4-2.8c-2.2-1.9-4.5-3.8-6.7-5.7l-6.6-5.8c-1.1-0.9-2.2-2-3.3-3l-3.2-3l-6.5-6
					C367.7,306.9,365.6,304.9,363.4,302.9z"/>
			</g>
		</g>
		<g>
			<g>
				<path d="M373,289.7l-3.8,0.6l0-0.2c1.9-0.2,3.8-0.4,5.7-0.5l5.7-0.4c3.8-0.3,7.6-0.5,11.4-0.5c1.9,0,3.8,0.1,5.7,0.2l5.7,0.6
					l1.4,0.1l0.7,0.1c0.3,0,0.5,0.1,0.7,0.1l2.8,0.6c1.9,0.4,3.7,0.7,5.6,1.2c1.8,0.4,3.7,0.7,5.5,0.7c0.5,0,0.9,0,1.4-0.1l0.7-0.1
					c0.2,0,0.4-0.1,0.7-0.1c0.9-0.2,1.7-0.5,2.5-0.9c1.6-0.9,3-2.1,4.1-3.5c1.1-1.5,1.8-3.2,2.3-5c0.5-1.8,0.7-3.7,0.5-5.5
					c-0.2-1.9-0.7-3.7-1.2-5.5c-0.6-1.8-1.4-3.5-2.2-5.2c-0.4-0.8-0.9-1.6-1.4-2.5l-1.4-2.5c1,1.6,2.1,3.2,3,4.8
					c0.9,1.7,1.8,3.4,2.4,5.2c0.6,1.8,1.2,3.6,1.4,5.6c0.2,1.9,0.1,3.9-0.4,5.8c-0.4,1.9-1.2,3.7-2.3,5.3c-1.2,1.6-2.7,2.9-4.4,3.8
					c-0.9,0.5-1.8,0.8-2.8,1c-0.2,0-0.5,0.1-0.7,0.1l-0.7,0.1c-0.5,0.1-1,0.1-1.5,0.1c-2,0-3.9-0.3-5.7-0.7l-5.6-1.2l-2.8-0.6
					l-0.7-0.1l-0.7-0.1l-1.4-0.2l-5.7-0.6c-1.8-0.1-3.8-0.2-5.6-0.2c-3.8-0.1-7.6,0-11.3,0.2l-5.7,0.3c-1.9,0.1-3.8,0.2-5.7,0.3
					l0-0.2L373,289.7z"/>
			</g>
		</g>
		<g>
			<g>
				<path d="M351.1,306.7l1.9,7.8l1.9,7.8l1.8,7.8c0.3,1.3,0.7,2.6,1,3.9l1,3.9l1,3.9c0.3,1.3,0.7,2.6,1.1,3.8
					c0.8,2.5,1.7,5,2.8,7.4c1.1,2.4,2.4,4.8,3.9,6.9c1.5,2.2,3.3,4.2,5.3,5.9l0,0c0.8,0.6,1.6,1,2.4,1.2c0.4,0.1,0.9,0.2,1.3,0.2
					c0.4,0,0.9-0.1,1.3-0.2c0.9-0.3,1.8-0.7,2.7-1l2.7-1.1l5.4-2.2c1.8-0.7,3.5-1.5,5.1-2.6c1.6-1,3-2.3,3.9-3.9
					c0.9-1.6,1.2-3.5,1-5.3c-0.1-0.9-0.3-1.8-0.7-2.7c-0.4-0.9-0.8-1.7-1.3-2.5c-1-1.6-2.2-3.1-3.5-4.6L378,323.2l-7.6-8.8
					c-1.3-1.5-2.6-2.9-3.9-4.3c-0.7-0.7-1.4-1.4-2.1-2.1c-0.7-0.7-1.4-1.4-2.2-1.9l0,0l-1.3-0.8l1.3,0.8l0,0
					c0.8,0.6,1.5,1.2,2.2,1.9c0.7,0.7,1.4,1.3,2.1,2c1.4,1.4,2.7,2.8,4,4.2c2.6,2.9,5.2,5.8,7.8,8.7l15.3,17.6
					c1.3,1.5,2.6,3,3.6,4.6c0.5,0.8,1,1.7,1.4,2.6c0.4,0.9,0.6,1.9,0.8,2.9c0.3,2,0,4.1-1.1,5.9c-1,1.8-2.5,3.2-4.2,4.3
					c-1.7,1.1-3.5,1.9-5.3,2.7c-1.8,0.8-3.6,1.5-5.4,2.2l-2.7,1.1c-0.9,0.3-1.8,0.8-2.8,1.1c-0.5,0.1-1,0.2-1.6,0.2
					c-0.5,0-1.1-0.1-1.6-0.2c-1-0.3-1.9-0.8-2.7-1.4l0,0l0,0c-2-1.8-3.8-3.8-5.4-6.1c-1.5-2.2-2.8-4.6-3.9-7.1c-1.1-2.5-2-5-2.8-7.6
					c-0.4-1.3-0.8-2.6-1.1-3.9l-1-3.9l-1-3.9c-0.3-1.3-0.6-2.6-0.9-3.9l-1.7-7.8l-1.7-7.8L351.1,306.7z"/>
			</g>
		</g>
		<g>
			<g>
				<path d="M341.1,305.7c0,0-0.9,2-2.5,5.5c-1.5,3.6-3.7,8.7-6.3,14.8c-2.4,6.2-5.2,13.5-7.7,21.4c-1.2,4-2.5,8.1-3.7,12.3
					c-0.1,0.5-0.3,1-0.4,1.6c-0.1,0.5-0.2,1-0.2,1.5c0,0.9,0.8,1.6,1.7,2.2c1.8,1.1,3.9,1.7,6.1,1.8c4.3,0.1,8.6-1.4,12.1-3.9
					c1.8-1.2,3.2-2.7,4.2-4.6c1-1.8,1.3-3.9,1.5-5.9c0.5-8.3,0.9-16,1.3-22.7c0.3-6.6,0.6-12.2,0.8-16.1c0.2-3.9,0.3-6.1,0.3-6.1
					s-0.2,8.9-0.6,22.2c-0.1,3.3-0.3,6.9-0.4,10.7c-0.2,3.8-0.3,7.8-0.6,12c-0.2,2.1-0.5,4.3-1.6,6.3c-1.1,2-2.6,3.6-4.5,4.9
					c-3.6,2.5-8.1,4.2-12.7,4.1c-2.3-0.1-4.6-0.8-6.5-2c-0.5-0.3-1-0.7-1.4-1.2c-0.4-0.5-0.7-1.1-0.8-1.8c0-0.7,0.1-1.2,0.2-1.8
					c0.1-0.6,0.3-1.1,0.4-1.6c1.2-4.2,2.5-8.3,3.7-12.3c1.3-4,2.7-7.7,4-11.3c1.4-3.6,2.7-6.9,3.9-10c1.3-3.1,2.6-5.8,3.8-8.3
					c1.1-2.5,2.1-4.6,2.9-6.4C340.1,307.7,341.1,305.7,341.1,305.7z"/>
			</g>
		</g>
		<g>
			<g>
				<path d="M334.4,310.2c0,0,0.2,0.1,0.2,0.4c0.1,0.3,0.1,0.6,0,0.8c-0.1,0.3-0.3,0.5-0.5,0.6c-0.2,0.1-0.4,0.2-0.4,0.2
					s-0.1-0.2-0.1-0.4c0-0.2,0-0.5,0.1-0.8c0.1-0.2,0.3-0.5,0.4-0.6C334.2,310.3,334.4,310.2,334.4,310.2z"/>
			</g>
			<g>
				<path d="M291.3,346.6l2.6,2.1l0,0c1,0.7,2.1,1.4,3.2,1.8c1.1,0.4,2.3,0.6,3.5,0.5c0.6-0.1,1.2-0.2,1.7-0.4
					c0.3-0.1,0.6-0.2,0.8-0.3c0.3-0.1,0.5-0.2,0.8-0.4c1-0.6,2-1.3,2.8-2.2c0.8-0.9,1.5-1.9,2.3-2.9l2.2-2.9l4.5-5.9l4.5-5.9l2.2-3
					l2.3-2.9l2.2-3c0.7-1,1.5-2,2.3-2.9l2.3-2.9c0.8-1,1.4-2,2-3.1l0,0c0.3-0.7,0.6-1.4,0.7-2.1c-0.1,0.7-0.4,1.5-0.4,2.2v0l-0.1,0
					c-0.5,1.1-1.2,2.2-1.9,3.2l-2.2,3c-0.8,1-1.5,2-2.2,3l-2.1,3c-0.7,1-1.5,2-2.2,3l-2.2,3l-4.4,6c-1.5,2-3,3.9-4.5,5.9l-2.3,2.9
					l-1.1,1.5c-0.4,0.5-0.8,1-1.2,1.4c-0.9,0.9-1.9,1.7-3.1,2.3c-0.3,0.1-0.6,0.3-0.9,0.4c-0.3,0.1-0.6,0.2-0.9,0.3
					c-0.6,0.2-1.3,0.3-1.9,0.3c-1.3,0-2.6-0.1-3.7-0.7c-1.2-0.5-2.2-1.2-3.2-2l0,0L291.3,346.6z"/>
			</g>
		</g>
	</g>
	<g>
		<path d="M265.5,152.8c0,0,0.7,0,1.9-0.1c1.3,0,3.1-0.1,5.5-0.2c2.4-0.1,5.2-0.1,8.5-0.1c3.3,0,7,0.1,11.1,0.2
			c4.1,0.1,8.4,0.3,13.1,0.5c4.6,0.3,9.5,0.8,14.6,1.2c5,0.5,10.3,0.8,15.6,1c2.7,0.1,5.3,0.1,8,0.1c2.7,0,5.4-0.1,8.1-0.1
			c10.8-0.2,21.6-0.5,31.7-0.7c2.5-0.1,5-0.1,7.5-0.1c2.4,0,4.8-0.1,7.1-0.1c4.6,0,9,0,13.1,0c4.1,0.1,7.8,0.1,11.1,0.2
			c3.3,0.1,6.2,0.2,8.5,0.3c4.7,0.2,7.4,0.4,7.4,0.4l0,0.3c0,0-0.7,0.1-1.9,0.1c-1.3,0.1-3.1,0.2-5.5,0.4c-2.4,0.2-5.2,0.3-8.5,0.5
			c-3.3,0.2-7,0.3-11,0.5c-4,0.1-8.4,0.3-13.1,0.4c-2.3,0.1-4.7,0.1-7.1,0.1c-2.4,0-4.9,0.1-7.5,0c-5.1,0-10.3,0-15.6-0.1
			c-2.7-0.1-5.3-0.1-8-0.2c-2.7-0.1-5.4-0.3-8.1-0.4c-2.7-0.1-5.4-0.3-8.1-0.4c-2.7-0.1-5.4-0.3-8-0.4c-5.3-0.2-10.5-0.3-15.6-0.3
			c-5.1,0-10,0-14.6-0.1c-4.6-0.1-9-0.4-13.1-0.6c-4-0.3-7.7-0.5-11-0.7c-3.3-0.2-6.1-0.5-8.5-0.7c-2.4-0.2-4.2-0.4-5.5-0.5
			c-1.3-0.1-1.9-0.2-1.9-0.2L265.5,152.8z"/>
	</g>
</g>
</svg>
