<?xml version="1.0" encoding="utf-8"?>
<!-- Generator: Adobe Illustrator 19.2.0, SVG Export Plug-In . SVG Version: 6.00 Build 0)  -->
<svg version="1.1" xmlns="http://www.w3.org/2000/svg" xmlns:xlink="http://www.w3.org/1999/xlink" x="0px" y="0px"
	 viewBox="0 0 400 600" style="enable-background:new 0 0 400 600;" xml:space="preserve">
<style type="text/css">
	.st0{display:none;}
	.st1{display:inline;}
	.st2{fill:none;}
	.st3{opacity:0.76;fill:#F4AA16;}
	.st4{fill:#F5F5F5;}
	.st5{fill:none;stroke:#000000;stroke-width:1.6691;stroke-miterlimit:10;}
	.st6{fill:none;stroke:#000000;stroke-width:0.8346;stroke-miterlimit:10;}
	.st7{opacity:0.58;}
	.st8{fill:#FCFCC0;}
	.st9{fill:none;stroke:#000000;stroke-width:2;stroke-miterlimit:10;}
	.st10{opacity:0.29;fill:none;stroke:#000000;stroke-width:0.8483;stroke-miterlimit:10;}
	.st11{fill:none;stroke:#000000;stroke-miterlimit:10;}
	.st12{fill:#770725;}
	.st13{fill:none;stroke:#000000;stroke-width:1.5489;stroke-miterlimit:10;}
	.st14{opacity:0.83;fill:#F7B30B;}
	.st15{fill:none;stroke:#000000;stroke-width:1.6724;stroke-miterlimit:10;}
	.st16{fill:none;stroke:#000000;stroke-width:0.8362;stroke-miterlimit:10;}
</style>
<g id="alaska.beer" class="st0">
	<g class="st1">
		<g>
			<path class="st2" d="M114,100c14.5-0.6,28.7,3.6,43.2,5.2c11.7,1.3,23.5,0.8,35.2,0.2c32.9-1.6,98.6-6.8,98.6-6.5
				c-0.5,5.3,3-36.8,3.3-63.6c-1.6-12.6-14.9-24.8-27.3-28.4c-4.4-1.2-8.9-1.7-13.4-2.2c-30-3.2-60.2-5.5-90.3-3.2
				c-14.3,1.1-28.8,3.3-41.9,9.3c-4.8,2.2-9.4,4.9-12.5,9.1c-3.7,5.1-5.8,13.8-3.7,19.7c2.5,20.2,5.1,40.4,7.6,60.6L114,100z"/>
		</g>
		<path class="st3" d="M291,98.6c-32.8,2.9-65.7,5.1-98.6,6.8c-11.7,0.6-23.6,1.1-35.2-0.2c-14.4-1.6-28.7-5.8-43.2-5.2l-1.2,0.2
			c1.3,10.4,2.6,20.9,3.9,31.3c5,39.5,7.7,79.8,15,119c5.1,27.3,2.4,55.5,7.5,82.8c6.3,33.3,7.7,67.2,12.2,100.7
			c3.2,24.3,1,48.5,3.6,72.9c0.5,4.6,1.1,9.4,3.7,13.3c2.3,3.3,5.9,5.5,9.5,7.5c7.5,4.1,53.8,5.7,69.1,2.5c4.4-0.9,8.9-2.1,12.8-4.3
			c15.1-8.7,8.4-37.5,8.2-51.4c-0.4-23.5,0-47,1.6-70.5c2-30.1,8-58.2,9.5-88.4c1.7-33.4,6.4-66.4,10.1-99.7
			c3.2-28.5,3.8-55.6,7.7-84C288.7,120.9,290,109.8,291,98.6L291,98.6z"/>
		<path class="st2" d="M291,98.6c-32.8,2.9-65.7,5.1-98.6,6.8c-11.7,0.6-23.6,1.1-35.2-0.2c-14.4-1.6-28.7-5.8-43.2-5.2l-1.2,0.2
			c1.3,10.4,2.6,20.9,3.9,31.3c5,39.5,7.7,79.8,15,119c5.1,27.3,2.4,55.5,7.5,82.8c6.3,33.3,7.7,67.2,12.2,100.7
			c3.2,24.3,1,48.5,3.6,72.9c0.5,4.6,1.1,9.4,3.7,13.3c2.3,3.3,5.9,5.5,9.5,7.5c7.5,4.1,53.8,5.7,69.1,2.5c4.4-0.9,8.9-2.1,12.8-4.3
			c15.1-8.7,8.4-37.5,8.2-51.4c-0.4-23.5,0-47,1.6-70.5c2-30.1,8-58.2,9.5-88.4c1.7-33.4,6.4-66.4,10.1-99.7
			c3.2-28.5,3.8-55.6,7.7-84C288.7,120.9,290,109.8,291,98.6L291,98.6z"/>
		<path class="st4" d="M114,100c14.5-0.6,28.7,3.6,43.2,5.2c11.7,1.3,23.5,0.8,35.2,0.2c32.9-1.6,98.6-6.8,98.6-6.5
			c-0.5,5.3,3-36.8,3.3-63.6c-1.6-12.6-14.9-24.8-27.3-28.4c-4.4-1.2-8.9-1.7-13.4-2.2c-30-3.2-60.2-5.5-90.3-3.2
			c-14.3,1.1-28.8,3.3-41.9,9.3c-4.8,2.2-9.4,4.9-12.5,9.1c-3.7,5.1-5.8,13.8-3.7,19.7c2.5,20.2,5.1,40.4,7.6,60.6L114,100z"/>
		<path class="st5" d="M299.3,30.3c-6.5,140.3-29.1,287.7-35.6,428.1c-1.6,33.7-2.4,72.7,17,100.3c5.9,8.4,13.9,12,10.7,21.7
			c-3.1,9.3-14.4,12.4-24.1,13.7c-44.7,5.8-80.1,10.8-126.6-3.1c-11.1-3.3-13.3-7.1-15-9.6c-4-5.9,2.3-13.1,7.1-18.4
			c21.1-23.1,19-58.4,15.6-89.5C132.6,325.8,116.6,178,100.7,30.3C141.6,35.5,284.5,33.2,299.3,30.3z"/>
		<g>
			<path d="M105.2,39.6c0,0,2.1,16.7,5.8,45.8c1.8,14.6,4.1,32.3,6.7,52.6c2.5,20.3,4.6,43.3,7.6,68.4c1.5,12.5,3.3,25.5,5.7,38.9
				c0.6,3.3,1.2,6.7,1.8,10.1c0.2,1.7,0.5,3.4,0.7,5.2c0.2,1.7,0.4,3.5,0.6,5.2c0.7,7,1.1,14.1,1.4,21.3c0.7,14.4,1.1,29.3,3.7,44.2
				c1.3,7.5,2.6,15,3.7,22.7c1.1,7.7,2,15.4,2.8,23.3c1.7,15.7,3,31.6,4.9,47.7c0.5,4,1,8.1,1.5,12.1c0.3,2,0.4,4.1,0.6,6.1
				c0.1,2,0.3,4.1,0.4,6.1c0.5,8.2,0.6,16.4,0.7,24.7c0.1,8.3,0.3,16.6,0.8,24.9c0.1,2.1,0.3,4.1,0.5,6.2c0.2,2.1,0.4,4.1,0.7,6.2
				c0.3,2,0.8,4.1,1.6,5.9c0.8,1.9,1.9,3.6,3.4,5c1.5,1.4,3.2,2.6,4.9,3.7c0.9,0.5,1.8,1.1,2.7,1.5c0.5,0.2,0.9,0.4,1.4,0.6
				c0.5,0.2,1,0.3,1.5,0.4c4,1,8.2,1.4,12.4,1.9c8.3,0.8,16.7,1.1,25.1,1.2c4.2,0,8.4,0,12.6-0.2c4.2-0.2,8.4-0.4,12.5-1
				c2.1-0.3,4.1-0.7,6.1-1.2c2-0.5,4-1.1,6-1.8c1.9-0.8,3.8-1.7,5.4-2.9c1.6-1.2,3-2.8,4-4.6c2.1-3.5,3.1-7.7,3.6-11.8
				c0.5-4.1,0.5-8.3,0.3-12.4c-0.2-4.1-0.6-8.3-0.9-12.4c-0.2-2.1-0.4-4.1-0.5-6.2c-0.1-2.1-0.1-4.2-0.1-6.2
				c-0.2-16.5,0-33,0.7-49.2c0.4-8.1,0.8-16.2,1.5-24.1c0.7-8,1.6-15.9,2.6-23.7c2-15.6,4.3-31,5.6-46.1c0.7-7.5,1-15,1.5-22.4
				c0.5-7.4,1.1-14.7,1.8-21.9c2.8-28.8,6.7-55.8,9-80.9c1.1-12.5,1.9-24.6,2.9-36c0.9-11.5,2-22.3,3.3-32.5
				c2.8-20.3,4.5-38.1,5.6-52.7c1-14.7,1.5-26.2,1.7-34.1c0.1-3.9,0.1-7,0.2-9c0-2,0-3.1,0-3.1s0,1.1,0,3.1c0,2-0.1,5.1-0.2,9
				c-0.2,7.9-0.6,19.4-1.6,34.1c-1,14.7-2.6,32.5-5.4,52.8c-1.3,10.1-2.3,21-3.2,32.4c-0.9,11.4-1.7,23.5-2.8,36.1
				c-2.3,25.1-6.2,52.2-8.9,80.9c-0.7,7.2-1.3,14.5-1.8,21.9c-0.5,7.4-0.8,14.9-1.5,22.4c-1.3,15.1-3.5,30.5-5.5,46.1
				c-1,7.8-1.9,15.7-2.6,23.7c-0.7,8-1.1,16-1.5,24.1c-0.7,16.2-0.9,32.6-0.7,49.1c0,2.1,0,4.1,0.2,6.2c0.1,2.1,0.3,4.1,0.5,6.2
				c0.4,4.1,0.8,8.3,1,12.5c0.2,4.2,0.2,8.4-0.3,12.6c-0.5,4.2-1.5,8.4-3.6,12.1c-1.1,1.8-2.5,3.5-4.2,4.8c-1.7,1.3-3.6,2.3-5.6,3
				c-2,0.8-4,1.4-6.1,1.9c-2,0.5-4.1,1-6.2,1.2c-4.2,0.6-8.4,0.8-12.6,1c-4.2,0.2-8.4,0.2-12.6,0.2c-8.4-0.1-16.8-0.4-25.2-1.2
				c-4.2-0.4-8.4-0.9-12.5-1.9c-0.5-0.1-1-0.3-1.5-0.4c-0.5-0.2-1-0.4-1.5-0.6c-1-0.5-1.8-1-2.8-1.6c-1.8-1.1-3.6-2.3-5.1-3.8
				c-1.5-1.5-2.8-3.3-3.6-5.3c-0.8-2-1.3-4.1-1.6-6.1c-0.3-2.1-0.5-4.2-0.7-6.2c-0.2-2.1-0.4-4.2-0.5-6.2
				c-0.6-8.3-0.7-16.6-0.8-24.9c-0.1-8.3-0.2-16.5-0.7-24.7c-0.1-2-0.3-4.1-0.4-6.1c-0.2-2-0.3-4.1-0.6-6.1c-0.5-4-1-8.1-1.5-12.1
				c-1.9-16.1-3.3-32.1-4.9-47.7c-1.6-15.7-3.6-31-6.4-45.9c-2.6-15-3-29.9-3.6-44.3c-0.3-7.2-0.7-14.3-1.4-21.3
				c-0.2-1.7-0.4-3.5-0.6-5.2c-0.2-1.7-0.5-3.4-0.7-5.1c-0.6-3.4-1.1-6.8-1.8-10.1c-2.4-13.4-4.1-26.4-5.6-38.9
				c-3-25-5.1-48-7.5-68.4c-2.5-20.3-4.7-38-6.5-52.6C107.3,56.3,105.2,39.6,105.2,39.6z"/>
		</g>
		<path class="st6" d="M112.8,100.2c14.5-0.6,29.9,3.4,44.3,5c11.7,1.3,23.5,0.8,35.2,0.2c32.9-1.6,65.7-3.9,98.6-6.8"/>
		<g>
			<path d="M105.2,38.7c0,0-0.1-0.2-0.2-0.6c-0.1-0.4-0.3-1-0.4-1.8c-0.3-1.6-0.4-4.1,0.1-7.1c0.5-3,1.6-6.7,4.1-10.3
				c1.3-1.7,2.9-3.4,4.9-4.8c1.9-1.5,4.2-2.7,6.5-3.9c4.8-2.3,10.2-4.2,16-5.8c5.9-1.5,12.2-2.6,18.7-3.4c6.6-0.8,13.4-1.2,20.3-1.5
				c6.9-0.3,14-0.3,21-0.2c14.1,0.3,28.1,1.3,41.2,2.5c6.6,0.6,12.9,1.3,18.9,1.9c3,0.3,5.9,0.8,8.7,1.4c2.8,0.6,5.4,1.6,7.8,2.8
				c4.8,2.3,8.6,5.4,11.7,8.4c3.1,3,5.2,6.1,6.7,8.8c1.5,2.7,2.2,5.1,2.6,6.6c0.3,1.6,0.5,2.5,0.5,2.5s-0.2-0.9-0.5-2.5
				c-0.5-1.6-1.2-3.9-2.7-6.6c-1.5-2.7-3.7-5.7-6.8-8.7c-0.8-0.7-1.6-1.5-2.5-2.2c-0.4-0.4-0.9-0.7-1.3-1.1c-0.5-0.3-0.9-0.7-1.4-1
				c-0.9-0.7-2-1.3-3.1-2c-1.1-0.6-2.2-1.3-3.4-1.8c-1.2-0.6-2.4-1.1-3.7-1.6c-0.7-0.2-1.3-0.4-2-0.6c-0.7-0.2-1.3-0.4-2-0.5
				c-2.8-0.6-5.7-1-8.7-1.4c-6-0.6-12.3-1.3-18.9-1.8c-13.1-1.2-27.1-2.1-41.2-2.3c-7-0.2-14-0.1-20.9,0.1
				C168.3,0.6,161.5,1,155,1.7c-6.5,0.7-12.8,1.8-18.7,3.3c-5.8,1.5-11.2,3.4-16,5.6c-4.7,2.2-8.8,5-11.3,8.5
				c-2.5,3.4-3.6,7.1-4.2,10.1c-0.6,3-0.4,5.5-0.2,7.1c0.1,0.8,0.3,1.4,0.4,1.8C105.1,38.5,105.2,38.7,105.2,38.7z"/>
		</g>
	</g>
</g>
<g id="Layer_4">
	<g class="st7">
		<path class="st8" d="M300.4,209.4l-0.3-0.1l0.2,0.8C300.4,209.9,300.4,209.6,300.4,209.4z"/>
		<path class="st8" d="M210.6,208.8c-38.2-2.9-114.4,0.9-114.9,0.9c0.2,0,0.8,33.5,36.8,68.7c13.8,13.4,37.5,33.9,64.6,33.8
			c16.9-0.1,32.8-6.7,47.3-15.2c19.2-11.2,44.8-37.7,52.2-64.4c1.7-6,3.9-21.4,3.5-23.3c-9.4,0.4-20.4,0.5-29.8,0.9
			C250.2,211.1,230.6,210.4,210.6,208.8z"/>
	</g>
	<path class="st9" d="M271.6,566.7c5.9,0.4,13.8,2.9,16.3,8.2c1.8,3.8,0.8,8.4-2.3,11.2c-3.2,2.8-8.9,4.1-13,5.2
		c-38.5,10.3-131.2,10.8-158.4-4.3c-1.6-0.9-3.3-1.7-4.5-3.2c-3.2-3.9-1.3-10.1,2.7-13.2c4-3.1,9.2-3.9,14.1-4.7
		c15.1-2.4,29.4-1.8,40.3-12.4c26.1-25.3,21.7-72.1,22.1-110.4c0.2-20.5-0.8-40.3-0.6-60.8c0.2-18.6-0.1-38.7-11.1-53.6
		c-4.2-5.7-9.8-10.3-15.3-14.9c-24.4-20.1-45.7-38.6-61.4-66.6c-8-14.4-11.4-30.7-10-50.7c0.4-5.4,19.8-130.4,36.8-172.8
		c3.8-2.4,126.9-1.7,143.7,1.6c6.1,19.1,26.9,111.5,29,135.5c1.2,13.6,2.5,21.5,3.8,35.1c1.2,12.9-0.8,29.3-4,41.9
		c-3.7,14.3-13,26.5-22.9,37.4c-13.6,14.9-28.9,28.3-45.6,39.6c-4.8,3.2-9.7,6.4-13.3,10.9c-15.8,20-13.6,50.2-13.9,74.4
		c-0.2,22,0.9,43.2,1.2,66.8c0.2,20.3,0.6,46.2,8.2,65C223.5,556.5,247,564.9,271.6,566.7z"/>
	<g>
		<path d="M159.6,569.1c0,0,0.2,0.2,0.6,0.7c0.4,0.4,0.9,1,1.8,1.7c0.8,0.7,1.9,1.4,3.2,2c1.3,0.6,2.9,1.1,4.7,1.5
			c1.8,0.4,3.7,0.7,5.8,1.1c1,0.1,2.1,0.3,3.2,0.4c1.1,0.1,2.2,0.2,3.3,0.4c1.1,0.1,2.3,0.2,3.4,0.3c1.2,0.1,2.3,0.1,3.5,0.2
			c1.2,0,2.4,0.1,3.6,0c1.2,0,2.4,0,3.6-0.1c2.4-0.1,4.8-0.2,7.2-0.5c1.2-0.1,2.4-0.3,3.5-0.4c1.2-0.2,2.3-0.4,3.4-0.5
			c2.2-0.4,4.4-0.8,6.4-1.3c2-0.4,3.9-1,5.7-1.4c1.7-0.5,3.3-1,4.7-1.5c1.4-0.5,2.6-0.9,3.6-1.3c2-0.8,3.1-1.2,3.1-1.2
			s-1.1,0.5-3.1,1.4c-1,0.4-2.2,0.9-3.6,1.4c-1.4,0.6-3,1.1-4.7,1.7c-1.8,0.5-3.6,1.1-5.7,1.6c-2,0.5-4.2,1-6.4,1.4
			c-1.1,0.2-2.3,0.4-3.4,0.6c-1.2,0.1-2.4,0.3-3.5,0.4c-2.4,0.2-4.8,0.5-7.3,0.5c-1.2,0.1-2.4,0-3.7,0c-1.2,0-2.4,0-3.6-0.1
			c-1.2,0-2.4-0.1-3.6-0.2c-1.2-0.1-2.3-0.2-3.5-0.3c-1.1-0.1-2.3-0.2-3.3-0.4c-1.1-0.2-2.2-0.4-3.2-0.5c-2-0.4-4-0.8-5.8-1.2
			c-1.8-0.4-3.4-1-4.7-1.7c-1.3-0.7-2.4-1.5-3.2-2.2c-0.8-0.7-1.3-1.4-1.7-1.8C159.7,569.4,159.6,569.1,159.6,569.1z"/>
	</g>
	<path class="st10" d="M309.8,606"/>
	<g>
		<path d="M267.5,28.5c1.6,3.6,2.6,7.4,3.7,11.2c1.1,3.8,2.1,7.6,3.1,11.4l5.8,22.9c0.9,3.8,1.7,7.7,2.5,11.5l2.3,11.6
			c1.5,7.7,3,15.5,4.4,23.2c2.8,15.5,5.3,31,7.4,46.7c0.5,3.9,1,7.8,1.5,11.7c0.5,3.9,0.8,7.8,1.2,11.8c0.3,3.9,0.6,7.9,0.7,11.8
			c0.1,3.9,0.2,7.9-0.2,11.8l-0.2,1.9l-0.5-1.8l-0.2-0.8l0.7-0.1c0.1,0.9,0,1.7-0.1,2.5c-0.1,0.8-0.2,1.6-0.2,2.4
			c-0.2,1.6-0.4,3.2-0.6,4.9c-0.5,3.2-1,6.5-1.6,9.7c-0.3,1.6-0.7,3.2-1.2,4.8c-0.5,1.5-1,3.1-1.5,4.6l-1.8,4.6l-2.1,4.4
			c-3,5.8-6.5,11.4-10.4,16.6c-3.9,5.2-8.2,10.2-12.8,14.8c-4.6,4.6-9.5,9-14.7,12.9c-2.6,2-5.3,3.8-8.1,5.5
			c-2.8,1.7-5.7,3.3-8.6,4.8c-2.9,1.5-5.9,2.9-8.9,4.2c-3,1.3-6.1,2.4-9.2,3.4c-6.3,1.9-12.8,3.2-19.3,3.4c-0.8,0-1.6,0.1-2.5,0
			l-2.4-0.1c-0.8,0-1.6-0.1-2.4-0.1l-2.5-0.3l-2.5-0.3l-2.4-0.5l-2.4-0.5l-2.4-0.7c-6.3-1.9-12.3-4.6-17.9-7.9
			c-5.7-3.3-11-7.1-16.1-11.2c-5.1-4.1-9.9-8.5-14.5-13.1c-9.3-9.2-17.4-19.6-23.8-31c-3.2-5.7-5.9-11.7-8-17.9
			c-1.1-3.1-2-6.2-2.7-9.4c-0.4-1.6-0.7-3.2-0.9-4.8c-0.1-0.8-0.2-1.6-0.3-2.4l-0.1-1.2l-0.1-0.6l0-0.3l0-0.1l0-0.1
			c0.1,0-0.3-0.1,0.3,0.2l-0.4-0.3c-0.4-2-0.4-4-0.4-6c0-2,0.1-4,0.2-6c0.2-4,0.6-8,1-11.9c0.4-4,1.1-7.9,1.8-11.8l2.2-11.7
			c3-15.7,6.1-31.3,9.3-46.9c1.6-7.8,3.2-15.6,4.9-23.4c1.7-7.8,3.3-15.6,5.1-23.4c1.7-7.8,3.5-15.6,5.3-23.3l1.4-5.8l1.5-5.8
			c0.9-3.9,2-7.7,3.1-11.5c-1,3.9-2.1,7.7-3,11.6l-1.4,5.8l-1.4,5.8c-1.8,7.8-3.5,15.5-5.2,23.3c-1.7,7.8-3.3,15.6-4.9,23.4
			l-4.8,23.4c-3.2,15.6-6.3,31.3-9.2,46.9l-2.2,11.7c-0.7,3.9-1.5,7.8-1.8,11.8c-0.4,4-0.8,7.9-1,11.9c-0.1,2-0.2,4-0.2,6
			c0,2,0.1,4,0.4,5.9l-0.4-0.3c0.6,0.4,0.3,0.4,0.4,0.4l0,0.1l0,0.2l0,0.3l0.1,0.6l0.1,1.2c0.1,0.8,0.2,1.6,0.3,2.4
			c0.3,1.6,0.6,3.2,0.9,4.8c0.7,3.2,1.6,6.3,2.7,9.4c2.1,6.1,4.8,12.1,7.9,17.8c6.3,11.4,14.4,21.7,23.7,30.8c4.6,4.6,9.4,9,14.5,13
			c5.1,4.1,10.4,7.9,16,11.1c5.6,3.2,11.5,6,17.7,7.8l2.3,0.7l2.4,0.5l2.4,0.5l2.4,0.3l2.4,0.3c0.8,0.1,1.6,0.1,2.4,0.1l2.4,0.1
			c0.8,0,1.6,0,2.4,0c6.5-0.2,12.9-1.4,19.1-3.3c3.1-1,6.1-2.1,9.1-3.3c3-1.3,5.9-2.6,8.8-4.1c2.9-1.5,5.7-3.1,8.5-4.7
			c2.8-1.7,5.5-3.5,8.1-5.4c5.2-3.9,10.1-8.2,14.7-12.8c4.6-4.6,8.8-9.5,12.7-14.7c3.9-5.2,7.4-10.7,10.4-16.5l2.1-4.4l1.8-4.5
			c0.6-1.5,1-3.1,1.5-4.6c0.5-1.5,0.8-3.1,1.2-4.7c0.6-3.2,1.2-6.4,1.7-9.6c0.2-1.6,0.4-3.2,0.6-4.8c0.1-0.8,0.2-1.6,0.2-2.4
			c0.1-0.8,0.1-1.6,0.1-2.4l0.7-0.1l0.2,0.8l-0.7,0.1c0.4-3.9,0.4-7.8,0.3-11.7c-0.1-3.9-0.4-7.8-0.7-11.8
			c-0.3-3.9-0.7-7.8-1.2-11.7c-0.4-3.9-0.9-7.8-1.4-11.7c-2.1-15.6-4.6-31.1-7.3-46.6c-1.4-7.8-2.8-15.5-4.3-23.2l-2.3-11.6
			c-0.8-3.9-1.6-7.7-2.5-11.5l-5.7-22.9c-1-3.8-1.9-7.6-3-11.4C270,36,269,32.2,267.5,28.5z"/>
	</g>
	<g>
		<path d="M181.9,538.4c0,0,0.5,0.2,1.3,0.5c0.8,0.3,2,0.7,3.4,1.2c1.4,0.5,3.1,0.9,4.9,1.2c1.8,0.4,3.7,0.6,5.7,0.7
			c1,0.1,2,0.1,2.9,0.1c1,0,1.9-0.1,2.8-0.2c1.8-0.2,3.5-0.5,4.9-1c1.4-0.4,2.5-0.9,3.3-1.4c0.8-0.4,1.2-0.7,1.2-0.7
			s-0.1,0.1-0.3,0.2c-0.2,0.1-0.4,0.4-0.8,0.6c-0.7,0.5-1.8,1.2-3.2,1.7c-1.4,0.6-3.1,1.1-5,1.3c-0.9,0.1-1.9,0.2-2.9,0.2
			c-1,0-2,0-3,0c-2-0.1-4-0.4-5.8-0.9c-1.8-0.4-3.5-1-4.9-1.6c-1.4-0.6-2.5-1.1-3.3-1.5c-0.4-0.2-0.7-0.4-0.9-0.5
			C182,538.5,181.9,538.4,181.9,538.4z"/>
	</g>
	<g>
		<path d="M110.6,575.4c0,0,0,0.2,0,0.5c0,0.3,0.1,0.9,0.4,1.5c0.3,0.6,0.8,1.3,1.5,2c0.7,0.7,1.7,1.3,2.8,1.8
			c1.1,0.5,2.5,0.9,3.9,1.4c1.4,0.5,3,1,4.6,1.6c3.3,1.1,7,2.3,11.2,3.4c4.1,1.1,8.7,2.1,13.5,2.6c4.9,0.4,10.1,0.7,15.4,1.1
			c5.3,0.3,10.9,0.6,16.5,0.9c2.8,0.1,5.6,0.2,8.5,0.3c2.8,0.1,5.7-0.1,8.5-0.2c11.4-0.5,22.8-1.2,33.5-2c5.3-0.4,10.5-0.9,15.4-1.3
			c4.9-0.5,9.5-1,13.7-1.7c4.2-0.6,8.1-1.3,11.5-2.2c3.4-0.9,6.2-1.8,8.6-2.7c2.3-0.8,4.2-1.5,5.3-2.3c0.6-0.4,0.9-0.7,1.1-1
			c0.2-0.3,0.3-0.4,0.3-0.4s-0.1,0.2-0.3,0.4c-0.2,0.3-0.6,0.6-1.1,1c-1.1,0.8-2.9,1.5-5.3,2.4c-2.3,0.9-5.2,1.9-8.6,2.9
			c-3.4,0.9-7.2,1.8-11.5,2.4c-4.2,0.7-8.9,1.3-13.7,1.8c-4.9,0.5-10,1.1-15.4,1.5c-10.7,0.9-22.1,1.6-33.5,2.2
			c-2.9,0.1-5.7,0.2-8.6,0.2c-2.9,0-5.7-0.2-8.5-0.3c-5.6-0.3-11.2-0.6-16.5-0.9c-5.4-0.4-10.5-0.7-15.4-1.2
			c-4.9-0.6-9.5-1.6-13.6-2.8c-4.1-1.2-7.9-2.5-11.1-3.6c-1.6-0.6-3.2-1.2-4.6-1.7c-1.4-0.5-2.7-1-3.9-1.5c-1.1-0.5-2.1-1.2-2.8-1.8
			c-0.7-0.7-1.2-1.4-1.4-2c-0.3-0.6-0.4-1.1-0.4-1.5C110.6,575.6,110.6,575.4,110.6,575.4z"/>
	</g>
	<path class="st11" d="M94.7,213.7c0.5,0,76.7-3.8,114.9-0.9c20,1.5,39.7,2.3,59.8,1.4c9.4-0.4,20.4-0.5,29.8-0.9
		c0.3,1.9-1.9,17.3-3.5,23.3"/>
</g>
<g id="Layer_2" class="st0">
	<g class="st1">
		<path class="st12" d="M308.2,256.2c8-12.3,12.7-26.3,13.8-40.8c0.7-8.2,0.8-15.3-0.4-22.7c-21.3,4.5-43.3,4.5-65.2,4.4
			c-44-0.2-88-0.3-131.9-0.5c-7.6,0-15.2-0.1-22.8-0.7c-8-0.7-16-2.1-23.8-4.2c-0.4,12.8-1.4,25.7,1.6,38.1
			c4.2,17.5,14.5,33,27.2,45.8c2.8,2.8,6.2,5.3,9.1,8c17.7,16.7,35.3,33.4,53,50c4.8,4.5,9.3,9.3,14.9,12.7
			c5.4,3.3,15.8,2.7,15.8,2.7c7.4-0.9,15.2-1.9,21.4-6.1c4.4-3,7.7-7.3,11.3-11.2c14.7-16,32.6-28.2,48.8-42.7
			C291.8,279.1,300.2,268.4,308.2,256.2z"/>
		<path class="st13" d="M115.4,42.2c-12.2,31.8-24,69-32.1,102.1c-7.6,30.9-15.9,65.5-5,95.4c18.5,50.7,81.2,71.8,101.5,121.8
			c6.5,16,8.1,36.6,9.2,54.1c1.7,28.1,2.1,56.2,0.6,84.3c-0.6,10.9-0.5,21.7-1.5,32.5c-0.9,10.1-0.2,19.6-6.1,28.6
			c-0.1,0.1-19.4,1.8-23.3,2.5c-8.5,1.4-43,5.9-51.1,10.2c-1.2,0.6-2.4,1.3-3.1,2.4c-1.1,1.5-1,3.5-0.9,5.4c0.1,2.2,0.3,4.6,1.8,6.3
			c1,1.1,2.4,1.7,3.7,2.2c9.3,3.8,29.5,8.1,47.1,9c9.6,0.5,41.7,0.7,63.5,1.1c21.3,0.4,61.8-2.6,75.3-12c2.2-5.2,0.4-9,0-10.5
			c-1.7-1.5-12-10.6-48.3-15c-5.1-0.6-10.2-0.9-15.3-1c-4.9-0.1-15.2,0.2-15.4,0.1c-0.2-0.1-5.7-8.2-7.7-22.2
			c-3-21-2.1-42.7-2.3-63.8c-0.7-62.9,3.5-123.6,48.3-158.8c23.6-18.6,51-43.3,65.3-72.3c13.3-26.9,5.7-56.3-0.9-85
			c-9.2-39.8-24.3-78.6-32.1-118.1c-0.1-0.3-0.3-0.4-0.6-0.4C200.7,44.5,114,41.7,115.4,42.2z"/>
		<g>
			<path d="M283.4,48.9c0,0,0.1,0.7,0.3,2c0.3,1.3,0.7,3.3,1.4,5.9c1.4,5.1,3.6,12.5,6.5,22c2.9,9.4,6.5,20.9,10.5,34
				c1,3.3,2,6.7,3,10.2c0.5,1.8,0.9,3.6,1.3,5.4c0.4,1.8,0.9,3.7,1.3,5.6c1.8,7.5,3.7,15.4,5.6,23.6c2,8.2,4.1,16.8,6.4,25.6
				c1.3,4.4,2.2,9,2.6,13.7c0.4,4.7,0.4,9.5,0.1,14.4c-0.3,4.9-0.8,9.8-1.8,14.7c-1,4.9-2.4,9.8-4.3,14.5c-1.9,4.8-4.2,9.4-6.9,13.9
				c-2.8,4.4-5.7,8.8-8.9,13c-6.3,8.5-13.6,16.6-21.9,23.7c-8.2,7.2-16.9,14-25.4,21.1c-8.5,7.1-16.8,14.6-24.1,23.1
				c-1.9,2.1-3.8,4.2-6,6.1c-1.1,0.9-2.3,1.8-3.5,2.5c-1.3,0.8-2.6,1.3-3.9,1.9c-2.7,1.1-5.5,1.7-8.3,2.3c-1.4,0.3-2.8,0.5-4.2,0.7
				l-2.1,0.3l-1.1,0.1l-0.5,0.1c-0.3,0-0.4,0-0.6,0c-2.9,0.1-5.7-0.1-8.6-0.5c-1.4-0.2-2.8-0.5-4.2-1c-0.7-0.2-1.4-0.5-2.1-0.8
				c-0.3-0.2-0.7-0.3-1-0.5l-0.9-0.6c-4.8-3.2-8.8-7.2-12.9-11.1c-8.2-7.7-16.3-15.4-24.3-23.1c-8.1-7.6-16.1-15.2-24-22.7
				c-2-1.9-3.9-3.7-5.9-5.6c-1.9-1.8-4.1-3.5-6.1-5.3c-1-0.9-2-1.8-3-2.8c-0.9-1-1.9-1.9-2.8-2.9c-1.8-2-3.6-4-5.2-6
				c-6.7-8.2-12.2-17.3-15.9-26.8c-1.9-4.8-3.3-9.7-4.1-14.6c-0.8-4.9-1.1-9.9-1.2-14.8c0-4.9,0.2-9.6,0.3-14.4
				c0-1.2,0.1-2.3,0.1-3.5c0.1-1.2,0-2.3,0.2-3.5c0.3-2.4,0.8-4.6,1.3-6.8c2-8.9,4.2-17.5,6.3-25.6c4.2-16.4,8.4-31.3,12.2-44.5
				c3.8-13.2,7.3-24.7,10.3-34.1c3-9.4,5.5-16.8,7.2-21.7c0.9-2.5,1.6-4.4,2.1-5.7c0.5-1.3,0.7-1.9,0.7-1.9s-0.2,0.7-0.7,1.9
				c-0.5,1.3-1.1,3.2-2,5.7c-1.7,5-4.1,12.4-7,21.8c-5.8,18.9-13.5,46-22,78.8c-2.1,8.2-4.2,16.7-6.2,25.6c-0.5,2.2-1,4.5-1.3,6.7
				c-0.1,1.1-0.1,2.3-0.1,3.5c0,1.2-0.1,2.3-0.1,3.5c-0.2,4.7-0.3,9.5-0.3,14.3c0.1,4.8,0.4,9.7,1.2,14.6c0.8,4.9,2.2,9.7,4.1,14.4
				c3.7,9.4,9.2,18.3,15.8,26.5c1.6,2,3.4,4,5.2,6c0.9,1,1.8,1.9,2.8,2.9c0.9,0.9,1.9,1.8,2.9,2.7c2,1.7,4.2,3.4,6.2,5.3
				c2,1.9,3.9,3.7,5.9,5.6c7.9,7.5,15.9,15,24,22.6c8.1,7.6,16.2,15.3,24.4,23c4.1,3.9,8,7.9,12.7,10.9c2.2,1.6,4.9,2.3,7.6,2.7
				c2.7,0.4,5.5,0.5,8.3,0.5c5.5-0.6,11.2-1.3,16.3-3.3c1.3-0.5,2.5-1.1,3.7-1.8c1.2-0.7,2.3-1.5,3.4-2.3c2.1-1.7,4-3.8,5.9-5.9
				c7.3-8.6,15.7-16.1,24.3-23.2c8.6-7.1,17.3-13.8,25.5-21c8.2-7.1,15.5-15,21.8-23.4c3.1-4.2,6.1-8.5,8.9-12.9
				c2.7-4.4,5-9,6.9-13.7c1.9-4.7,3.3-9.5,4.3-14.3c1-4.8,1.6-9.7,1.8-14.5c0.3-4.8,0.4-9.6,0-14.2c-0.4-4.7-1.3-9.2-2.6-13.6
				c-2.3-8.8-4.4-17.4-6.3-25.6c-2-8.2-3.8-16.1-5.5-23.6c-0.4-1.9-0.8-3.7-1.3-5.6c-0.4-1.8-0.8-3.6-1.3-5.4
				c-0.9-3.5-1.9-6.9-2.9-10.2c-3.9-13.2-7.4-24.6-10.2-34.1c-2.8-9.5-5-16.9-6.3-22c-0.7-2.6-1.1-4.5-1.4-5.9
				C283.5,49.6,283.4,48.9,283.4,48.9z"/>
		</g>
		<path class="st13" d="M77.1,190.9c8,2.2,16.1,3.7,24.3,4.4c7.6,0.7,15.2,0.7,22.8,0.7c44,0.2,88,0.3,131.9,0.5
			c21.9,0.1,44,0.1,65.4-4.4"/>
		<g>
			<path d="M184.7,562.4l0-0.3l0.1,0c-0.2,0.6,0.3,1.2,0.8,1.4c0.5,0.3,1.1,0.5,1.7,0.6c1.3,0.2,2.5,0.3,3.8,0.4
				c2.5,0.2,5.1,0.3,7.6,0.3l7.7,0.1c1.3,0,2.5,0,3.7-0.3c1.2-0.3,2.4-0.9,3.4-1.6c-0.8,1-1.9,1.8-3.2,2.3c-1.3,0.5-2.6,0.7-3.9,0.8
				c-1.3,0.1-2.6,0.1-3.9,0.2c-1.3,0-2.6,0-3.9,0c-2.6,0-5.2-0.2-7.8-0.7c-1.3-0.2-2.6-0.5-3.8-0.9c-0.7-0.2-1.3-0.5-1.8-0.9
				c-0.3-0.2-0.5-0.5-0.6-0.8c-0.1-0.3-0.1-0.7,0.1-1l0.1-0.2l-0.1,0.2L184.7,562.4z"/>
		</g>
		<g>
			<path d="M106.2,579.2c0,0,0.1,0.1,0.3,0.4c0.2,0.3,0.6,0.7,1.1,1.2c1,1,2.7,2.2,5.2,3c2.4,1,5.6,1.2,9.2,1.6
				c3.6,0.4,7.7,0.8,12.2,1.3c4.5,0.5,9.3,1,14.4,1.4c2.6,0.2,5.2,0.5,7.9,0.6c2.7,0.1,5.5,0.3,8.3,0.4c11.2,0.6,23.2,1.2,35.1,1.9
				c3,0.1,6,0.4,8.9,0.4c3,0,5.9,0,8.9-0.1c2.9-0.1,5.9-0.1,8.7-0.2c1.4-0.1,2.9-0.1,4.3-0.2c1.4-0.1,2.8-0.3,4.2-0.4
				c11.2-1.2,21.6-2.1,30.6-3c4.5-0.4,8.6-0.9,12.1-1.6c3.6-0.7,6.6-1.6,9-2.6c2.4-1,4.2-2,5.4-2.8c1.2-0.8,1.8-1.3,1.8-1.3
				s-0.6,0.5-1.7,1.3c-1.1,0.8-2.9,1.9-5.3,3c-2.4,1.1-5.4,2.1-9,2.9c-3.6,0.8-7.7,1.4-12.1,1.9c-8.9,1-19.3,2.3-30.5,3.5
				c-1.4,0.1-2.8,0.3-4.2,0.4c-1.4,0.1-2.9,0.2-4.3,0.2c-2.9,0.1-5.8,0.2-8.8,0.3c-3,0.1-5.9,0.1-8.9,0.1c-3,0-6-0.3-9-0.4
				c-12-0.7-23.9-1.4-35.1-2.1c-2.8-0.2-5.6-0.3-8.3-0.5c-2.7-0.2-5.3-0.5-7.9-0.8c-5.1-0.6-10-1.1-14.4-1.7
				c-4.5-0.5-8.5-1.1-12.2-1.6c-3.6-0.5-6.8-0.9-9.3-1.9c-2.5-1-4.1-2.3-5.1-3.3c-0.5-0.5-0.8-0.9-1-1.2
				C106.3,579.3,106.2,579.2,106.2,579.2z"/>
		</g>
	</g>
</g>
<g id="ice_wine" class="st0">
	<g class="st1">
		<path class="st14" d="M250.8,341.4c10.8-12.6,10.6-38.1,5.9-53.1c-0.5-1.7-1.1-3.5-1.6-5.2c-35.5,2-71.1-3-106.5-0.8l-0.3,0
			c-4.9,21.5-6.1,44.4,9.2,62.2c1.8,2.1,3.8,4.1,6.3,5.2c2.6,1.2,14.6,7.2,36.1,7.7c4.6,0.1,19.4,0.4,23.9-0.2
			C234.3,356,243.8,349.5,250.8,341.4z"/>
		<path class="st15" d="M158,174.1c6.1,19.3,4.9,40.3,0.3,61c-4.1,18.8-9.2,35.1-13.7,53.9c-2.3,9.3-3.4,19.8-1.9,29.3
			c2.7,16.4,7.2,32,19.2,43.3c5.2,4.9,11.3,8.2,16.9,11.8c5.8,3.8,10.5,8.2,12.9,15c1.4,4,3.3,11.1,3.1,15.3
			c-0.3,6.2-1.3,101.5-2.3,123.4c-0.7,15.5-7.4,30.7-15.8,43.8c-4,6.3-11.1,7.1-18.2,9.4c-9.1,2.9-29.3,7.6-30,8.1
			c-1.3,1.2-0.9,3.5,0.5,4.7s3.2,1.5,5,1.8c27,4.1,54.1,6,81.4,4.9c16-0.6,32.4-0.1,48.3-2.3c2.2-0.3,4.5-0.7,6.2-2
			c1.8-1.3,2.8-4,1.6-5.8c-5.9-1.3-33.6-9-39.4-12.1c-8.9-4.8-12.2-12.5-16.2-21.8c-4-9.3-6.1-19.5-6.9-29.6
			c-0.6-7.8-0.5-110.2,0-118.6c0.4-6.1,1.4-12.3,3.4-18.1c2-5.8,5.9-11.2,11.4-13.8c13.4-6.1,25.1-18.7,32.4-31.2
			c3.7-6.4,6.3-16.8,6.8-24.1c1.2-19.3-3.3-35.1-7.6-53.9c-2.6-11.4-7.6-24.4-8.5-36.1c-1.4-19.8-3.6-38.6,4.2-56.8
			C215.7,175.1,157.2,174,158,174.1z"/>
		<g>
			<path d="M161.4,177.4c0,0,0.1,0.4,0.3,1.2c0.1,0.4,0.3,0.9,0.4,1.5c0.1,0.3,0.2,0.6,0.3,1c0.1,0.3,0.2,0.7,0.3,1.1
				c0.8,3.1,1.6,7.8,1.9,13.9c0.3,6,0,13.4-0.9,21.8c-0.5,4.2-1.1,8.6-1.7,13.3c-0.7,4.7-1.2,9.6-2.5,14.7c-1.2,5-3,10.2-4.6,15.5
				c-1.7,5.3-3.2,10.9-4.7,16.6c-1.4,5.7-2.7,11.7-3.5,17.9c-0.8,6.2-1.1,12.5-0.5,18.9c0.6,6.4,2.2,12.9,5.1,18.8
				c1.4,3,3.2,5.8,5.2,8.5c2.1,2.6,4.3,5.3,7.2,6.9c6,3,12.6,5,19.3,6.3c3.4,0.6,6.8,1.1,10.2,1.4c3.4,0.3,6.9,0.4,10.3,0.4
				c3.4,0.1,6.9,0.1,10.3,0.1c3.4,0,6.9,0,10.3-0.3c3.4-0.4,6.7-1.3,9.8-2.7c3.1-1.4,6-3.1,8.7-5.1c2.7-2,5.2-4.3,7.4-6.8l0.8-0.9
				c0.3-0.3,0.5-0.7,0.8-1c0.5-0.7,1-1.3,1.5-2l1.3-2.1c0.4-0.7,0.7-1.5,1.1-2.2l0.5-1.1l0.4-1.2c0.3-0.8,0.6-1.5,0.8-2.3
				c0.4-1.6,0.9-3.1,1.2-4.8c0.7-3.2,1.1-6.4,1.3-9.6c0.4-6.4,0.1-12.8-1-18.9c-0.2-1.5-0.6-3-0.9-4.5c-0.4-1.5-0.8-2.9-1.3-4.4
				c-0.9-2.9-1.7-5.8-2.5-8.7c-3.2-11.4-5.6-22.4-7.4-32.6c-1.8-10.2-2.9-19.6-3.6-28c-0.7-8.4-1.3-15.7-0.8-21.8
				c0.5-6,1.6-10.7,2.5-13.8c0.5-1.6,0.9-2.7,1.1-3.5c0.3-0.8,0.4-1.2,0.4-1.2s-0.1,0.4-0.4,1.2c-0.3,0.8-0.7,2-1.1,3.5
				c-0.9,3.1-2,7.7-2.4,13.8c-0.5,6,0.2,13.4,0.9,21.7c0.8,8.4,2,17.8,3.7,28c1.8,10.2,4.2,21.1,7.4,32.5c0.8,2.8,1.7,5.7,2.6,8.6
				c0.5,1.4,0.9,2.9,1.3,4.4c0.3,1.5,0.7,3,1,4.6c1.1,6.2,1.4,12.6,1.1,19.1c-0.2,3.2-0.6,6.5-1.3,9.7c-0.3,1.6-0.8,3.2-1.2,4.8
				c-0.2,0.8-0.6,1.6-0.8,2.4l-0.4,1.2l-0.5,1.1c-0.4,0.8-0.7,1.5-1.1,2.3l-1.3,2.2c-0.4,0.7-1,1.4-1.5,2c-0.3,0.3-0.5,0.7-0.8,1
				l-0.8,1c-2.3,2.5-4.8,4.8-7.5,6.9c-2.7,2.1-5.7,3.8-8.9,5.2c-3.2,1.4-6.6,2.3-10,2.8c-3.5,0.3-6.9,0.3-10.4,0.3
				c-3.5,0-6.9,0-10.4-0.1c-3.4-0.1-6.9-0.2-10.4-0.5c-3.4-0.3-6.9-0.8-10.3-1.4c-6.8-1.3-13.4-3.3-19.5-6.4
				c-3.1-1.7-5.3-4.5-7.4-7.1c-2.1-2.7-3.8-5.6-5.3-8.6c-2.9-6-4.5-12.6-5.1-19c-0.6-6.5-0.3-12.9,0.5-19.1
				c0.8-6.2,2.1-12.2,3.5-17.9c1.5-5.8,3.1-11.3,4.7-16.6c1.7-5.3,3.4-10.4,4.7-15.4c1.3-5,1.8-9.9,2.5-14.6
				c0.7-4.7,1.3-9.1,1.8-13.3c1-8.3,1.3-15.7,1.1-21.7c-0.3-6-1-10.7-1.8-13.9c-0.1-0.4-0.2-0.8-0.2-1.1c-0.1-0.3-0.2-0.7-0.3-1
				c-0.2-0.6-0.3-1.1-0.4-1.5C161.5,177.8,161.4,177.4,161.4,177.4z"/>
		</g>
		<path class="st16" d="M149.2,282.1c35.7-2.2,71.5,2.8,107.2,0.7"/>
		<g>
			<path d="M178.1,573c0,0,0.1,0.1,0.4,0.3c0.3,0.2,0.7,0.5,1.3,0.8c0.6,0.3,1.3,0.5,2.2,0.8c0.9,0.2,1.8,0.4,2.9,0.6
				c2.2,0.4,4.7,0.7,7.4,1c2.7,0.3,5.6,0.5,8.6,0.5c2.9,0.1,5.8,0.1,8.6-0.1c2.7-0.2,5.3-0.3,7.5-0.6c2.2-0.3,3.9-0.9,5-1.5
				c0.6-0.3,1-0.6,1.2-0.8c0.3-0.2,0.4-0.3,0.4-0.3s-0.1,0.1-0.4,0.4c-0.3,0.2-0.6,0.6-1.2,0.9c-1.1,0.7-2.8,1.4-5,1.8
				c-1.1,0.2-2.3,0.4-3.5,0.5c-1.3,0.2-2.6,0.3-4,0.4c-2.8,0.2-5.7,0.3-8.6,0.2c-2.9-0.1-5.9-0.3-8.6-0.7c-1.4-0.2-2.7-0.4-3.9-0.6
				c-1.2-0.2-2.4-0.4-3.5-0.7c-2.2-0.4-4-1-5.1-1.6c-0.6-0.3-1-0.6-1.2-0.9C178.2,573.2,178.1,573,178.1,573z"/>
		</g>
		<g>
			<path d="M130,588.9c0,0,0.5,0.1,1.5,0.3c1,0.2,2.5,0.5,4.3,0.8c1.9,0.3,4.2,0.6,6.8,1c2.6,0.3,5.6,0.7,8.8,1
				c6.5,0.7,14,1.3,22.2,1.9c4.1,0.3,8.3,0.6,12.5,0.8c4.3,0.2,8.6,0.4,12.9,0.5c4.3,0.1,8.7,0.1,12.9-0.1c4.3-0.1,8.5-0.3,12.5-0.5
				c4.1-0.2,8-0.5,11.7-0.8c3.7-0.3,7.2-0.6,10.5-0.9c6.5-0.6,11.9-1.2,15.6-1.8c1.9-0.3,3.4-0.5,4.4-0.6c1-0.2,1.5-0.2,1.5-0.2
				s-0.5,0.1-1.5,0.3c-1,0.2-2.5,0.5-4.3,0.8c-1.9,0.3-4.2,0.6-6.8,1c-2.6,0.4-5.6,0.7-8.8,1.1c-3.2,0.4-6.8,0.7-10.5,1
				c-3.7,0.3-7.6,0.6-11.7,0.9c-4.1,0.2-8.3,0.5-12.6,0.6c-4.3,0.1-8.6,0.2-13,0.1c-4.4-0.1-8.7-0.3-13-0.6
				c-4.3-0.3-8.5-0.5-12.5-0.8c-8.1-0.6-15.7-1.4-22.2-2.2c-6.5-0.8-11.8-1.6-15.6-2.3c-1.9-0.4-3.3-0.6-4.3-0.9
				C130.5,589,130,588.9,130,588.9z"/>
		</g>
		<g>
			<path d="M189.2,561.1c0,0,0.4,0.1,1.1,0.3c0.7,0.2,1.6,0.4,2.8,0.6c0.6,0.1,1.2,0.2,1.9,0.4c0.7,0.1,1.4,0.2,2.1,0.3
				c1.5,0.2,3,0.3,4.6,0.3c1.6,0,3.1,0,4.6-0.1c0.7-0.1,1.4-0.1,2.1-0.2c0.7-0.1,1.3-0.1,1.9-0.2c1.2-0.2,2.1-0.3,2.8-0.5
				c0.7-0.1,1.1-0.2,1.1-0.2s-0.4,0.1-1,0.4c-0.3,0.1-0.7,0.2-1.2,0.4c-0.5,0.1-1,0.3-1.6,0.4c-1.2,0.3-2.5,0.5-4,0.7
				c-1.5,0.1-3.1,0.2-4.7,0.2c-1.6-0.1-3.2-0.2-4.6-0.5c-1.5-0.2-2.8-0.6-4-0.9c-0.6-0.2-1.1-0.3-1.5-0.5c-0.5-0.2-0.8-0.3-1.2-0.4
				C189.6,561.2,189.2,561.1,189.2,561.1z"/>
		</g>
	</g>
</g>
</svg>
