<svg id="Layer_1" xmlns="http://www.w3.org/2000/svg" viewBox="0 0 700 700"><style>.st0,.st1{fill:none}.st1{stroke:#000;stroke-width:5;stroke-miterlimit:10}.st2{opacity:.9;fill:url(#SVGID_1_)}.st3{opacity:.58}.st4{fill:#fcfcc0}</style><path class="st0" d="M0 0h700v700H0z"/><path class="st1" d="M6708.6-568.1c.3 38.5.2 82.4-5.7 120.5-2.3 14.7-3.7 31.7-10.6 44.9-9.4 17.9-18.6 35.9-34 49.5-5.5 4.9-11.5 9.2-17.9 12.8-4.2 2.3-15.3 5.1-15.9 10.8-.4 3.6 3.8 5.7 6.9 7.6 6.9 4.3 10.9 12.3 11.6 20.4 1.5 15.4-5.6 30.7-18.9 38.8-.8.5-1.6 1-1.9 1.8-.7 2.1 2.1 3.4 4.2 3.8 12.1 2.1 24 5 35.7 8.7 7.7 2.4 24.3 10.6 12 18.5-7.7 4.9-17 6.2-26 7.3-24.7 3.1-49.7 6.2-74.5 3.9-5.6-.5-11.2-1.4-16.8-2.2l-22.5-3.3c-5.3-.8-11.8-2.7-12.7-7.9-1.7-10.2 16.6-15.1 23.6-17.2 4.9-1.5 36.5-4.6 35.6-9.3-.5-2.4-2.8-3.9-4.8-5.4-8.9-6.4-15-16.4-16.6-27.2-1.6-10.8 1.3-22.2 7.9-30.9 2.2-2.9 4.9-6 4.4-9.6-.2-1.5-1-2.9-2-4.1-5.1-6.7-15.9-9.5-22.8-14.7-7.9-6-15.2-12.8-21.6-20.4-12.5-14.5-22.1-31.5-27.6-49.9-5.2-17.2-6.9-35.3-8.2-53.2-2.3-31-3.6-62-3.8-93.1 20.2-2.4 42-1.8 62.4-1.4 52.8 1.1 160.5-1.6 160.5.5z"/><path d="M6582-253.2v1.9c0 .6.1 1.3.6 1.9.4.6 1.2.8 2.2.8 2.1-.1 4.5-.2 7.1-.2 1.3 0 2.7-.1 4-.1 1.4-.1 2.8-.1 4.1-.2 1.4-.1 2.8-.1 4.1-.2 1.4-.1 2.7-.1 4-.2 2.6-.1 5-.2 7.1-.3 2-.1 3.7-.6 4.6-1.3.4-.4.7-.8.8-1.1.1-.3.2-.5.2-.5v.5c-.1.3-.2.8-.6 1.3-.4.5-1.1 1-1.9 1.4-.8.4-1.8.7-2.8.8-2.1.4-4.5.7-7.1.9-1.3.1-2.7.3-4 .4-1.4.1-2.8.2-4.2.2-1.4 0-2.8.1-4.2.1h-4.1c-2.6-.1-5.1-.2-7.2-.4-.5-.1-1.1-.1-1.6-.4-.5-.3-.9-.7-1.1-1.1-.4-.9-.4-1.7-.3-2.3.1-.6.2-1.1.3-1.4-.1-.3 0-.5 0-.5zm-.4-84.6s.6.2 1.6.5c.5.2 1.2.3 1.9.5s1.6.4 2.4.5c.9.2 1.9.3 2.9.5 1 .1 2.1.2 3.3.3 1.1.1 2.3.1 3.5.2h3.6c1.2 0 2.5 0 3.7-.1 1.2 0 2.4-.1 3.6-.1 2.3-.1 4.5-.1 6.3-.3 1.8-.2 3.2-.6 4.1-1.2.4-.3.8-.6 1-.8l.3-.3s-.1.1-.2.4c-.2.3-.4.6-.8 1-.8.8-2.3 1.6-4.2 2-.9.2-2 .4-3 .5-1.1.1-2.2.3-3.3.4l-3.6.3c-1.2.1-2.5.1-3.7.2-1.3 0-2.5 0-3.7-.1-.6 0-1.2-.1-1.8-.1-.6-.1-1.2-.1-1.8-.2-1.2-.1-2.3-.4-3.4-.6-.5-.1-1-.3-1.5-.4-.5-.2-1-.3-1.4-.4-1.8-.6-3.2-1.3-4.2-1.8-1-.6-1.6-.9-1.6-.9zm-50.1 102.1l.3.3c.2.2.5.4 1 .6.9.5 2.3 1 4.2 1.4 1.9.4 4.2.7 6.8 1.1 2.6.4 5.6.7 8.9 1.1 3.3.3 6.8.7 10.6 1 3.7.3 7.7.5 11.8.7 8.2.3 17 .5 25.7.6 4.4.1 8.8.1 13.1.2 4.3 0 8.5.1 12.6 0s8-.4 11.7-.8c3.7-.5 7.2-1.1 10.4-1.7 6.4-1.4 11.6-3 15.2-4.3 1.8-.7 3.2-1.2 4.2-1.6l1.5-.6s-.5.2-1.4.7c-.9.4-2.3 1.1-4.1 1.8-3.5 1.5-8.7 3.5-15.1 5.1-6.4 1.6-14.1 2.9-22.3 3.2-4.1.2-8.4.2-12.7.2-4.3 0-8.7-.1-13.1-.1-4.4-.1-8.8-.2-13.1-.3-4.3-.1-8.6-.4-12.7-.6-4.1-.3-8.1-.6-11.8-1-3.8-.4-7.3-.8-10.6-1.3-1.6-.3-3.2-.5-4.7-.7-1.5-.3-2.9-.5-4.2-.8-2.6-.5-4.9-1-6.8-1.5-1.9-.5-3.3-1.1-4.1-1.7-.4-.3-.7-.5-.9-.7-.3-.2-.4-.3-.4-.3z"/><linearGradient id="SVGID_1_" gradientUnits="userSpaceOnUse" x1="6498.813" y1="-446.236" x2="6704.691" y2="-446.236"><stop offset=".018" stop-color="#801fe3"/><stop offset="1" stop-color="#b7a7ff"/></linearGradient><path class="st2" d="M6498.8-539.9c1.4 24.4 2.7 48.8 4.1 73.2.4 7.9.9 15.9 2.2 23.7 1.8 11.1 5.4 21.8 8.9 32.5 3 9.1 6 18.2 11.1 26.3 17.8 28.1 51.5 32.7 81.9 31.3 10.6-.5 21.3-1.5 31.5-4.7 66.9-21.3 65.2-117 66.1-172.7 0-2.6.1-5.1.1-7.7-68.7 2.2-137.5 4-205.9-1.9z"/><path d="M6493.7-559.6s.6 8.1 1.5 22.2c.5 7.1 1 15.6 1.7 25.5.6 9.8 1.4 20.9 2.1 33.1.4 6.1.7 12.4 1.3 18.9.5 6.5 1.4 13.2 3 19.9 1.6 6.7 3.7 13.5 6 20.4 2.4 6.9 4.5 14 7.5 20.9.8 1.7 1.5 3.4 2.4 5.1.9 1.6 1.8 3.3 2.8 4.8 1.1 1.6 2.2 3.1 3.4 4.7 1.2 1.4 2.5 2.8 3.7 4.3 5.3 5.5 11.7 10 18.8 13.2 7.1 3.3 14.8 5.4 22.6 6.6 7.9 1.3 15.9 1.7 23.9 1.7 8-.1 16.1-.4 24-1.5 3.9-.5 7.9-1.2 11.7-2.2 1-.3 1.9-.5 2.8-.8l.7-.2h.1l.2-.1.4-.1 1.4-.5 2.8-1c.5-.2.9-.3 1.4-.5l1.3-.6c7.1-3.1 13.7-7.4 19.4-12.5 5.7-5.1 10.5-11.1 14.4-17.5 4-6.3 7.1-13.1 9.7-19.8 2.6-6.8 4.6-13.6 6.3-20.3 3.2-13.5 5-26.5 6.2-38.5 1.1-12.1 1.7-23.2 2-33 .3-9.9.5-18.4.7-25.5.2-14.2.4-22.2.4-22.2s0 2 .1 5.8c0 3.8.1 9.4.2 16.4 0 7.1 0 15.7-.2 25.5-.1 9.9-.5 21-1.5 33.1-1 12.1-2.6 25.2-5.7 38.9-1.6 6.8-3.6 13.7-6.1 20.6-2.5 6.9-5.7 13.8-9.8 20.3-4 6.5-9 12.7-14.8 18.1-5.9 5.4-12.7 9.8-20.2 13.1l-1.4.6c-.5.2-.9.4-1.4.5l-2.8 1-1.4.5-.4.1-.2.1-.2.1-.7.2c-1 .3-2 .6-2.9.8-3.9 1-8 1.8-12 2.4-8.1 1.1-16.2 1.5-24.4 1.6-8.2 0-16.3-.5-24.4-1.8-8-1.3-16-3.5-23.3-7-7.4-3.4-14.1-8.1-19.6-13.9-1.3-1.5-2.6-3.1-3.9-4.6-1.1-1.6-2.2-3.2-3.3-4.7-2.2-3.4-3.9-6.8-5.4-10.4-3-7.1-5.2-14.2-7.5-21.2-2.2-7-4.3-13.9-5.8-20.7-1.6-6.9-2.4-13.6-2.8-20.2-.5-6.6-.7-12.9-1-18.9-.6-12.1-1.1-23.2-1.6-33.1-.5-9.9-.8-18.4-1.2-25.5-.7-14.2-1-22.2-1-22.2z"/><path d="M6494.1-544.2s.8 0 2.4.1c1.6.1 3.8.2 6.7.3 2.9.2 6.4.3 10.5.5 4 .2 8.6.3 13.6.5s10.4.3 16.1.5c5.7.2 11.7.2 17.9.4 6.2.1 12.6.1 19.2.2 6.5.1 13.2 0 19.8.1 6.6 0 13.3 0 19.8-.1s13-.1 19.2-.2c12.5-.1 24.1-.2 34-.3 10-.1 18.3-.1 24.1-.1h9.1s-.8.1-2.4.2c-1.6.1-3.8.2-6.7.4-5.8.3-14.1.8-24.1 1.3-10 .5-21.6.9-34 1.3-6.2.1-12.7.4-19.2.4-6.5.1-13.2.1-19.8.2-6.6 0-13.3 0-19.8-.2-6.5-.1-13-.3-19.2-.4-6.2-.2-12.3-.4-18-.8-2.9-.2-5.6-.3-8.3-.5-2.7-.2-5.3-.4-7.8-.5-2.5-.2-4.9-.3-7.1-.5-2.3-.2-4.4-.4-6.4-.6-4-.4-7.6-.7-10.4-1-2.9-.3-5.2-.6-6.7-.7-1.7-.4-2.5-.5-2.5-.5z"/><g class="st3"><path class="st4" d="M446 310.6l-.3-.1.2.8c0-.2 0-.5.1-.7z"/><path class="st4" d="M359.8 310c-36.6-2.9-109.7.9-110.2.9.2 0 .7 33.5 35.3 68.7 13.2 13.4 35.9 33.9 62 33.8 16.2-.1 31.4-6.7 45.3-15.2 18.4-11.2 42.9-37.7 50.1-64.4 1.6-6 3.7-21.4 3.4-23.3-9 .4-19.5.5-28.5.9-19.4.9-38.2.1-57.4-1.4z"/></g><path class="st1" d="M424.3 667.9c5.9.4 13.8 2.9 16.3 8.2 1.8 3.8.8 8.4-2.3 11.2-3.2 2.8-8.9 4.1-13 5.2-38.5 10.3-131.2 10.8-158.4-4.3-1.6-.9-3.3-1.7-4.5-3.2-3.2-3.9-1.3-10.1 2.7-13.2 4-3.1 9.2-3.9 14.1-4.7 15.1-2.4 29.4-1.8 40.3-12.4 26.1-25.3 21.7-72.1 22.1-110.4.2-20.5-.8-40.3-.6-60.8.2-18.6-.1-38.7-11.1-53.6-4.2-5.7-9.8-10.3-15.3-14.9-24.4-20.1-45.7-38.6-61.4-66.6-8-14.4-11.4-30.7-10-50.7.4-5.4 19.8-130.4 36.8-172.8 3.8-2.4 126.9-1.7 143.7 1.6 6.1 19.1 26.9 111.5 29 135.5 1.2 13.6 2.5 21.5 3.8 35.1 1.2 12.9-.8 29.3-4 41.9-3.7 14.3-13 26.5-22.9 37.4-13.6 14.9-28.9 28.3-45.6 39.6-4.8 3.2-9.7 6.4-13.3 10.9-15.8 20-13.6 50.2-13.9 74.4-.2 22 .9 43.2 1.2 66.8.2 20.3.6 46.2 8.2 65 10.1 24.6 33.5 33 58.1 34.8z"/><path d="M312.3 670.3s.2.2.6.7c.4.4 1 1 1.8 1.7s1.9 1.4 3.2 2c1.3.6 2.9 1 4.7 1.4.9.2 1.8.3 2.8.5 1 .1 2 .3 3 .5 1 .1 2.1.3 3.2.4l3.3.3c1.1.1 2.3.2 3.4.2 1.2.1 2.3.1 3.5.1 1.2 0 2.4.1 3.6 0 1.2 0 2.4 0 3.6-.1 2.4-.1 4.8-.2 7.2-.5 1.2-.1 2.4-.3 3.5-.4 1.2-.2 2.3-.3 3.4-.5 2.2-.4 4.4-.7 6.4-1.2 2-.4 3.9-.9 5.7-1.3 1.7-.5 3.4-.9 4.8-1.4 1.4-.5 2.6-.8 3.6-1.2 2-.7 3.2-1.1 3.2-1.1s-1.1.5-3 1.5c-1 .5-2.2.9-3.5 1.5-1.4.6-3 1.1-4.7 1.8-1.8.6-3.6 1.2-5.7 1.7-2 .6-4.2 1-6.5 1.5-1.1.2-2.3.4-3.5.6-1.2.2-2.4.3-3.6.5-2.4.2-4.9.5-7.3.5-1.2.1-2.5 0-3.7 0-1.2 0-2.4 0-3.6-.1-.6 0-1.2 0-1.8-.1-.6-.1-1.2-.1-1.8-.2-1.2-.1-2.3-.2-3.5-.4-1.1-.2-2.3-.3-3.4-.5s-2.2-.4-3.2-.6c-2-.4-4-.8-5.8-1.3-1.8-.5-3.4-1.1-4.7-1.8-1.3-.7-2.4-1.6-3.1-2.3-.8-.7-1.3-1.4-1.6-1.9l-.5-.5zm105-540.6c1.5 3.6 2.5 7.4 3.6 11.2l3 11.4 5.7 22.9c.9 3.8 1.7 7.7 2.5 11.5l2.3 11.6c1.5 7.7 3 15.4 4.3 23.2 1.4 7.7 2.7 15.5 3.9 23.3l1.8 11.7c.6 3.9 1.1 7.8 1.6 11.7.6 3.9 1 7.8 1.5 11.7.5 3.9.8 7.8 1.2 11.8l.4 5.9c.1 2 .3 3.9.3 5.9 0 2 .1 4 .1 5.9l-.3 6-.4 8.1-2-7.9-.2-.8 2.4-.5v1.4l-.1 1.2c-.1.8-.1 1.6-.2 2.4l-.6 4.8c-.4 3.2-.9 6.3-1.5 9.5-.3 1.6-.6 3.1-1.1 4.8l-1.4 4.6-1.7 4.6c-.6 1.5-1.3 3-2 4.4-2.8 5.8-6.1 11.4-9.8 16.7-3.7 5.3-7.8 10.3-12.2 15-4.4 4.7-9.1 9.1-14.2 13.2l-1.9 1.5-2 1.4c-.7.5-1.3 1-2 1.4l-2 1.3c-1.4.9-2.7 1.7-4.1 2.5l-4.2 2.4c-5.7 3.1-11.6 5.8-17.8 7.8-6.2 2-12.6 3.3-19.2 3.6h-2.5l-2.4-.1c-.8 0-1.6 0-2.4-.1l-2.5-.3c-.8-.1-1.7-.2-2.5-.4l-2.4-.5c-.8-.2-1.6-.3-2.4-.6l-2.3-.7c-6.2-2-12.1-4.9-17.6-8.3-11-6.8-20.6-15.6-29.5-24.8-8.9-9.3-16.7-19.8-22.6-31.2-3-5.7-5.5-11.7-7.5-17.8-1-3.1-1.8-6.2-2.5-9.4l-.9-4.8-.3-2.4-.1-1.2-.1-.6v-.4s0-.1 0 0c.4-.1-1-.1 1.3 1l-1.3-1c-.4-2.1-.4-4.2-.4-6.2s.1-4 .2-6c.2-4 .6-8 1-12s1.1-7.9 1.8-11.9l2.2-11.7c2.9-15.6 6-31.3 9.1-46.9l4.8-23.4c1.6-7.8 3.3-15.6 5-23.4 1.7-7.8 3.4-15.5 5.3-23.3.9-3.9 1.8-7.7 2.8-11.6.9-3.9 2-7.7 3.1-11.5-1 3.9-2 7.7-2.8 11.6l-1.3 5.8-1.3 5.8c-1.7 7.8-3.3 15.6-4.9 23.4-1.6 7.8-3.1 15.6-4.6 23.4l-4.5 23.4c-3 15.6-5.9 31.3-8.7 46.9l-2.1 11.8c-.7 3.9-1.4 7.8-1.7 11.7-.4 3.9-.7 7.9-.9 11.8-.1 2-.2 3.9-.2 5.9 0 1.9.1 3.9.4 5.7l-1.3-1c2.3 1.2.9 1.2 1.3 1.1v.6l.1.6.1 1.2c.1.8.2 1.6.3 2.3.2 1.5.5 3.1.9 4.6.7 3.1 1.5 6.1 2.5 9.1 1.9 6 4.4 11.8 7.4 17.4 5.9 11.2 13.5 21.4 22.3 30.5 4.4 4.6 9 9 13.8 13.1 4.8 4.1 9.9 7.9 15.2 11.2 5.4 3.3 11 6 17 7.9l2.2.7c.7.2 1.5.4 2.3.5l2.3.5c.8.2 1.5.2 2.3.3l2.3.3c.8.1 1.6.1 2.4.1l2.4.1h.3s.1 0 0 0h2c6.2-.2 12.4-1.5 18.4-3.4 6-1.9 11.7-4.5 17.3-7.5 1.4-.7 2.8-1.5 4.1-2.3 1.4-.8 2.8-1.6 4.1-2.5l2-1.3c.7-.4 1.3-.9 1.9-1.4l1.9-1.4 1.9-1.5c4.9-3.9 9.6-8.2 13.9-12.8 4.3-4.6 8.4-9.5 12-14.6 3.6-5.2 6.9-10.6 9.6-16.3.6-1.4 1.4-2.8 1.9-4.3l1.7-4.4 1.4-4.6c.4-1.4.7-3 1-4.5.6-3.1 1.1-6.2 1.5-9.4.2-1.6.4-3.1.6-4.7.1-.8.2-1.6.2-2.3l.1-1.1v-.9l-.2-11.2 2.7 10.7.2.8-2.4.2.3-5.8c0-1.9 0-3.9-.1-5.8 0-1.9-.1-3.9-.2-5.9l-.4-5.9c-.4-3.9-.6-7.8-1.1-11.7-.4-3.9-.8-7.8-1.3-11.7l-1.5-11.7c-.5-3.9-1.1-7.8-1.7-11.7-1.1-7.8-2.4-15.5-3.7-23.3-1.3-7.8-2.6-15.5-4-23.2l-2.1-11.6c-.7-3.9-1.4-7.7-2.3-11.6l-5.3-23c-.9-3.8-1.8-7.6-2.8-11.5-.8-3.3-1.7-7.1-3.2-10.8zm-82.6 515.9s.5.2 1.3.4c.8.3 2 .6 3.4 1s3.1.8 4.9 1.1c.9.2 1.8.3 2.8.4.9.1 1.9.2 2.9.3.5 0 1 .1 1.4.1h1.4c.9 0 1.9 0 2.8-.1.9-.1 1.8-.2 2.6-.3.8-.2 1.6-.3 2.3-.5 1.4-.4 2.5-.8 3.3-1.2.8-.3 1.2-.6 1.2-.6s-.1.1-.3.2c-.2.2-.4.4-.8.7-.7.6-1.7 1.3-3.1 1.9-1.4.6-3.1 1.2-5 1.5-.9.1-1.9.3-2.9.3h-3c-2-.2-4-.5-5.9-.9-1.8-.5-3.5-1.1-4.9-1.7-1.4-.6-2.5-1.3-3.2-1.7-.4-.2-.6-.4-.8-.6-.3-.3-.4-.3-.4-.3zm-71.3 31v.5c0 .3.2.8.5 1.4.3.6.8 1.3 1.5 1.9.7.6 1.7 1.2 2.8 1.7 1.1.5 2.5.9 3.9 1.4 1.4.5 3 1 4.6 1.5 3.3 1.1 7.1 2.3 11.2 3.3 4.1 1.1 8.7 2 13.5 2.5 4.9.4 10.1.6 15.4 1 5.3.3 10.9.6 16.5.8 2.8.1 5.6.2 8.5.2 2.8 0 5.7-.1 8.5-.2 11.4-.5 22.8-1.1 33.5-2 5.3-.4 10.5-.8 15.4-1.3s9.5-1 13.7-1.6c1.1-.2 2.1-.3 3.1-.4 1-.2 2-.3 2.9-.5 1-.2 1.9-.3 2.8-.5.9-.2 1.8-.4 2.6-.6 3.4-.9 6.3-1.8 8.6-2.6 2.4-.8 4.2-1.5 5.3-2.2.6-.4.9-.7 1.2-1 .2-.3.3-.4.3-.4s-.1.2-.3.4c-.2.3-.6.7-1.1 1.1-1.1.8-2.9 1.6-5.3 2.5-2.3.9-5.2 1.9-8.5 2.9-3.4.9-7.2 1.8-11.5 2.5-4.2.7-8.9 1.3-13.7 1.9-4.9.6-10 1.1-15.4 1.6-10.7.9-22.1 1.7-33.6 2.2-2.9.1-5.7.2-8.6.2-2.9-.1-5.7-.2-8.5-.3-5.6-.3-11.2-.6-16.5-1-5.4-.4-10.5-.7-15.4-1.3-4.9-.6-9.5-1.7-13.6-2.9s-7.9-2.5-11.1-3.7c-1.6-.6-3.2-1.2-4.6-1.7-1.4-.5-2.7-1-3.9-1.6-1.1-.5-2.1-1.2-2.8-1.9-.7-.7-1.1-1.4-1.4-2-.3-.6-.3-1.1-.4-1.5-.1-.2-.1-.3-.1-.3z"/><path d="M251.7 314.8s12.2-.8 30.6-1.6c4.6-.2 9.6-.4 14.8-.6 5.3-.2 10.8-.3 16.6-.4 5.8-.1 11.7-.2 17.7-.2s12.2 0 18.3.2l4.6.1c1.5.1 3.1.2 4.6.2 3.1.1 6.1.4 9.1.5 6 .3 11.9.6 17.7.8 5.7.3 11.3.4 16.5.4 5.3.1 10.2.1 14.8 0 4.6-.1 8.8-.1 12.6-.1h9.7c5.4 0 8.4.1 8.4.1v.3s-3.1.3-8.4.7c-2.7.2-5.9.4-9.7.6-3.7.2-7.9.5-12.5.8-4.6.3-9.6.5-14.9.5-5.3.1-10.9 0-16.6-.2-5.8-.3-11.7-.6-17.7-1.1-3-.2-6.1-.5-9.1-.8-1.5-.1-3-.2-4.6-.3l-4.6-.2c-6.1-.3-12.2-.5-18.3-.6-6-.1-12-.1-17.7-.1-5.7 0-11.3.1-16.6.1-5.3 0-10.2.1-14.8.2-18.4.4-30.6.9-30.6.9l.1-.2z"/></svg>