<?xml version="1.0" encoding="utf-8"?>
<!-- Generator: Adobe Illustrator 19.2.0, SVG Export Plug-In . SVG Version: 6.00 Build 0)  -->
<svg version="1.1" id="Layer_1" xmlns="http://www.w3.org/2000/svg" xmlns:xlink="http://www.w3.org/1999/xlink" x="0px" y="0px"
	 viewBox="0 0 460 586" style="enable-background:new 0 0 460 586;" xml:space="preserve">
<style type="text/css">
	.st0{fill:none;stroke:#000000;stroke-width:5;stroke-miterlimit:10;}
	.st1{opacity:0.9;fill:url(#SVGID_1_);enable-background:new    ;}
	.st2{opacity:0.58;fill:#FCFCC0;enable-background:new    ;}
</style>
<path class="st0" d="M6588.6-684.6c0.3,38.5,0.2,82.4-5.7,120.5c-2.3,14.7-3.7,31.7-10.6,44.9c-9.4,17.9-18.6,35.9-34,49.5
	c-5.5,4.9-11.5,9.2-17.9,12.8c-4.2,2.3-15.3,5.1-15.9,10.8c-0.4,3.6,3.8,5.7,6.9,7.6c6.9,4.3,10.9,12.3,11.6,20.4
	c1.5,15.4-5.6,30.7-18.9,38.8c-0.8,0.5-1.6,1-1.9,1.8c-0.7,2.1,2.1,3.4,4.2,3.8c12.1,2.1,24,5,35.7,8.7c7.7,2.4,24.3,10.6,12,18.5
	c-7.7,4.9-17,6.2-26,7.3c-24.7,3.1-49.7,6.2-74.5,3.9c-5.6-0.5-11.2-1.4-16.8-2.2l-22.5-3.3c-5.3-0.8-11.8-2.7-12.7-7.9
	c-1.7-10.2,16.6-15.1,23.6-17.2c4.9-1.5,36.5-4.6,35.6-9.3c-0.5-2.4-2.8-3.9-4.8-5.4c-8.9-6.4-15-16.4-16.6-27.2
	c-1.6-10.8,1.3-22.2,7.9-30.9c2.2-2.9,4.9-6,4.4-9.6c-0.2-1.5-1-2.9-2-4.1c-5.1-6.7-15.9-9.5-22.8-14.7c-7.9-6-15.2-12.8-21.6-20.4
	c-12.5-14.5-22.1-31.5-27.6-49.9c-5.2-17.2-6.9-35.3-8.2-53.2c-2.3-31-3.6-62-3.8-93.1c20.2-2.4,42-1.8,62.4-1.4
	C6480.9-684,6588.6-686.7,6588.6-684.6L6588.6-684.6z"/>
<path d="M6462-369.7v1.9c0,0.6,0.1,1.3,0.6,1.9c0.4,0.6,1.2,0.8,2.2,0.8c2.1-0.1,4.5-0.2,7.1-0.2c1.3,0,2.7-0.1,4-0.1
	c1.4-0.1,2.8-0.1,4.1-0.2c1.4-0.1,2.8-0.1,4.1-0.2c1.4-0.1,2.7-0.1,4-0.2c2.6-0.1,5-0.2,7.1-0.3c2-0.1,3.7-0.6,4.6-1.3
	c0.4-0.4,0.7-0.8,0.8-1.1c0.1-0.3,0.2-0.5,0.2-0.5v0.5c-0.1,0.3-0.2,0.8-0.6,1.3s-1.1,1-1.9,1.4c-0.8,0.4-1.8,0.7-2.8,0.8
	c-2.1,0.4-4.5,0.7-7.1,0.9c-1.3,0.1-2.7,0.3-4,0.4c-1.4,0.1-2.8,0.2-4.2,0.2c-1.4,0-2.8,0.1-4.2,0.1h-4.1c-2.6-0.1-5.1-0.2-7.2-0.4
	c-0.5-0.1-1.1-0.1-1.6-0.4s-0.9-0.7-1.1-1.1c-0.4-0.9-0.4-1.7-0.3-2.3s0.2-1.1,0.3-1.4C6461.9-369.5,6462-369.7,6462-369.7
	L6462-369.7z M6461.6-454.3c0,0,0.6,0.2,1.6,0.5c0.5,0.2,1.2,0.3,1.9,0.5s1.6,0.4,2.4,0.5c0.9,0.2,1.9,0.3,2.9,0.5
	c1,0.1,2.1,0.2,3.3,0.3c1.1,0.1,2.3,0.1,3.5,0.2h3.6c1.2,0,2.5,0,3.7-0.1c1.2,0,2.4-0.1,3.6-0.1c2.3-0.1,4.5-0.1,6.3-0.3
	c1.8-0.2,3.2-0.6,4.1-1.2c0.4-0.3,0.8-0.6,1-0.8l0.3-0.3c0,0-0.1,0.1-0.2,0.4c-0.2,0.3-0.4,0.6-0.8,1c-0.8,0.8-2.3,1.6-4.2,2
	c-0.9,0.2-2,0.4-3,0.5c-1.1,0.1-2.2,0.3-3.3,0.4l-3.6,0.3c-1.2,0.1-2.5,0.1-3.7,0.2c-1.3,0-2.5,0-3.7-0.1c-0.6,0-1.2-0.1-1.8-0.1
	c-0.6-0.1-1.2-0.1-1.8-0.2c-1.2-0.1-2.3-0.4-3.4-0.6c-0.5-0.1-1-0.3-1.5-0.4c-0.5-0.2-1-0.3-1.4-0.4c-1.8-0.6-3.2-1.3-4.2-1.8
	C6462.2-454,6461.6-454.3,6461.6-454.3L6461.6-454.3z M6411.5-352.2l0.3,0.3c0.2,0.2,0.5,0.4,1,0.6c0.9,0.5,2.3,1,4.2,1.4
	c1.9,0.4,4.2,0.7,6.8,1.1c2.6,0.4,5.6,0.7,8.9,1.1c3.3,0.3,6.8,0.7,10.6,1c3.7,0.3,7.7,0.5,11.8,0.7c8.2,0.3,17,0.5,25.7,0.6
	c4.4,0.1,8.8,0.1,13.1,0.2c4.3,0,8.5,0.1,12.6,0s8-0.4,11.7-0.8c3.7-0.5,7.2-1.1,10.4-1.7c6.4-1.4,11.6-3,15.2-4.3
	c1.8-0.7,3.2-1.2,4.2-1.6l1.5-0.6c0,0-0.5,0.2-1.4,0.7c-0.9,0.4-2.3,1.1-4.1,1.8c-3.5,1.5-8.7,3.5-15.1,5.1
	c-6.4,1.6-14.1,2.9-22.3,3.2c-4.1,0.2-8.4,0.2-12.7,0.2c-4.3,0-8.7-0.1-13.1-0.1c-4.4-0.1-8.8-0.2-13.1-0.3
	c-4.3-0.1-8.6-0.4-12.7-0.6c-4.1-0.3-8.1-0.6-11.8-1c-3.8-0.4-7.3-0.8-10.6-1.3c-1.6-0.3-3.2-0.5-4.7-0.7c-1.5-0.3-2.9-0.5-4.2-0.8
	c-2.6-0.5-4.9-1-6.8-1.5s-3.3-1.1-4.1-1.7c-0.4-0.3-0.7-0.5-0.9-0.7C6411.6-352.1,6411.5-352.2,6411.5-352.2L6411.5-352.2z"/>
<linearGradient id="SVGID_1_" gradientUnits="userSpaceOnUse" x1="6378.7998" y1="-1069.7888" x2="6584.7002" y2="-1069.7888" gradientTransform="matrix(1 0 0 1 0 507)">
	<stop  offset="1.800000e-02" style="stop-color:#801FE3"/>
	<stop  offset="1" style="stop-color:#B7A7FF"/>
</linearGradient>
<path class="st1" d="M6378.8-656.4c1.4,24.4,2.7,48.8,4.1,73.2c0.4,7.9,0.9,15.9,2.2,23.7c1.8,11.1,5.4,21.8,8.9,32.5
	c3,9.1,6,18.2,11.1,26.3c17.8,28.1,51.5,32.7,81.9,31.3c10.6-0.5,21.3-1.5,31.5-4.7c66.9-21.3,65.2-117,66.1-172.7
	c0-2.6,0.1-5.1,0.1-7.7C6516-652.3,6447.2-650.5,6378.8-656.4L6378.8-656.4z"/>
<path d="M6373.7-676.1c0,0,0.6,8.1,1.5,22.2c0.5,7.1,1,15.6,1.7,25.5c0.6,9.8,1.4,20.9,2.1,33.1c0.4,6.1,0.7,12.4,1.3,18.9
	c0.5,6.5,1.4,13.2,3,19.9c1.6,6.7,3.7,13.5,6,20.4c2.4,6.9,4.5,14,7.5,20.9c0.8,1.7,1.5,3.4,2.4,5.1c0.9,1.6,1.8,3.3,2.8,4.8
	c1.1,1.6,2.2,3.1,3.4,4.7c1.2,1.4,2.5,2.8,3.7,4.3c5.3,5.5,11.7,10,18.8,13.2c7.1,3.3,14.8,5.4,22.6,6.6c7.9,1.3,15.9,1.7,23.9,1.7
	c8-0.1,16.1-0.4,24-1.5c3.9-0.5,7.9-1.2,11.7-2.2c1-0.3,1.9-0.5,2.8-0.8l0.7-0.2h0.1l0.2-0.1l0.4-0.1l1.4-0.5l2.8-1
	c0.5-0.2,0.9-0.3,1.4-0.5l1.3-0.6c7.1-3.1,13.7-7.4,19.4-12.5c5.7-5.1,10.5-11.1,14.4-17.5c4-6.3,7.1-13.1,9.7-19.8
	c2.6-6.8,4.6-13.6,6.3-20.3c3.2-13.5,5-26.5,6.2-38.5c1.1-12.1,1.7-23.2,2-33c0.3-9.9,0.5-18.4,0.7-25.5c0.2-14.2,0.4-22.2,0.4-22.2
	s0,2,0.1,5.8c0,3.8,0.1,9.4,0.2,16.4c0,7.1,0,15.7-0.2,25.5c-0.1,9.9-0.5,21-1.5,33.1c-1,12.1-2.6,25.2-5.7,38.9
	c-1.6,6.8-3.6,13.7-6.1,20.6c-2.5,6.9-5.7,13.8-9.8,20.3c-4,6.5-9,12.7-14.8,18.1c-5.9,5.4-12.7,9.8-20.2,13.1l-1.4,0.6
	c-0.5,0.2-0.9,0.4-1.4,0.5l-2.8,1l-1.4,0.5l-0.4,0.1l-0.2,0.1l-0.2,0.1l-0.7,0.2c-1,0.3-2,0.6-2.9,0.8c-3.9,1-8,1.8-12,2.4
	c-8.1,1.1-16.2,1.5-24.4,1.6c-8.2,0-16.3-0.5-24.4-1.8c-8-1.3-16-3.5-23.3-7c-7.4-3.4-14.1-8.1-19.6-13.9c-1.3-1.5-2.6-3.1-3.9-4.6
	c-1.1-1.6-2.2-3.2-3.3-4.7c-2.2-3.4-3.9-6.8-5.4-10.4c-3-7.1-5.2-14.2-7.5-21.2c-2.2-7-4.3-13.9-5.8-20.7
	c-1.6-6.9-2.4-13.6-2.8-20.2c-0.5-6.6-0.7-12.9-1-18.9c-0.6-12.1-1.1-23.2-1.6-33.1c-0.5-9.9-0.8-18.4-1.2-25.5
	C6374-668.1,6373.7-676.1,6373.7-676.1L6373.7-676.1z"/>
<path d="M6374.1-660.7c0,0,0.8,0,2.4,0.1s3.8,0.2,6.7,0.3c2.9,0.2,6.4,0.3,10.5,0.5c4,0.2,8.6,0.3,13.6,0.5s10.4,0.3,16.1,0.5
	s11.7,0.2,17.9,0.4c6.2,0.1,12.6,0.1,19.2,0.2c6.5,0.1,13.2,0,19.8,0.1c6.6,0,13.3,0,19.8-0.1s13-0.1,19.2-0.2
	c12.5-0.1,24.1-0.2,34-0.3c10-0.1,18.3-0.1,24.1-0.1h9.1c0,0-0.8,0.1-2.4,0.2c-1.6,0.1-3.8,0.2-6.7,0.4c-5.8,0.3-14.1,0.8-24.1,1.3
	s-21.6,0.9-34,1.3c-6.2,0.1-12.7,0.4-19.2,0.4c-6.5,0.1-13.2,0.1-19.8,0.2c-6.6,0-13.3,0-19.8-0.2c-6.5-0.1-13-0.3-19.2-0.4
	c-6.2-0.2-12.3-0.4-18-0.8c-2.9-0.2-5.6-0.3-8.3-0.5c-2.7-0.2-5.3-0.4-7.8-0.5c-2.5-0.2-4.9-0.3-7.1-0.5c-2.3-0.2-4.4-0.4-6.4-0.6
	c-4-0.4-7.6-0.7-10.4-1c-2.9-0.3-5.2-0.6-6.7-0.7C6374.9-660.6,6374.1-660.7,6374.1-660.7L6374.1-660.7z"/>
<path class="st2" d="M326.1,193.7l-0.3-0.1l0.2,0.8C326,194.2,326,193.9,326.1,193.7L326.1,193.7z M239.9,193.1
	c-36.6-2.9-109.7,0.9-110.2,0.9c0.2,0,0.7,33.5,35.3,68.7c13.2,13.4,35.9,33.9,62,33.8c16.2-0.1,31.4-6.7,45.3-15.2
	c18.4-11.2,42.9-37.7,50.1-64.4c1.6-6,3.7-21.4,3.4-23.3c-9,0.4-19.5,0.5-28.5,0.9C277.9,195.4,259.1,194.6,239.9,193.1z"/>
<path class="st0" d="M304.4,551c5.9,0.4,13.8,2.9,16.3,8.2c1.8,3.8,0.8,8.4-2.3,11.2c-3.2,2.8-8.9,4.1-13,5.2
	c-38.5,10.3-131.2,10.8-158.4-4.3c-1.6-0.9-3.3-1.7-4.5-3.2c-3.2-3.9-1.3-10.1,2.7-13.2c4-3.1,9.2-3.9,14.1-4.7
	c15.1-2.4,29.4-1.8,40.3-12.4c26.1-25.3,21.7-72.1,22.1-110.4c0.2-20.5-0.8-40.3-0.6-60.8c0.2-18.6-0.1-38.7-11.1-53.6
	c-4.2-5.7-9.8-10.3-15.3-14.9c-24.4-20.1-45.7-38.6-61.4-66.6c-8-14.4-11.4-30.7-10-50.7c0.4-5.4,19.8-130.4,36.8-172.8
	c3.8-2.4,126.9-1.7,143.7,1.6c6.1,19.1,26.9,111.5,29,135.5c1.2,13.6,2.5,21.5,3.8,35.1c1.2,12.9-0.8,29.3-4,41.9
	c-3.7,14.3-13,26.5-22.9,37.4c-13.6,14.9-28.9,28.3-45.6,39.6c-4.8,3.2-9.7,6.4-13.3,10.9c-15.8,20-13.6,50.2-13.9,74.4
	c-0.2,22,0.9,43.2,1.2,66.8c0.2,20.3,0.6,46.2,8.2,65C256.4,540.8,279.8,549.2,304.4,551L304.4,551z"/>
<path d="M192.4,553.4c0,0,0.2,0.2,0.6,0.7c0.4,0.4,1,1,1.8,1.7s1.9,1.4,3.2,2c1.3,0.6,2.9,1,4.7,1.4c0.9,0.2,1.8,0.3,2.8,0.5
	c1,0.1,2,0.3,3,0.5c1,0.1,2.1,0.3,3.2,0.4l3.3,0.3c1.1,0.1,2.3,0.2,3.4,0.2c1.2,0.1,2.3,0.1,3.5,0.1s2.4,0.1,3.6,0
	c1.2,0,2.4,0,3.6-0.1c2.4-0.1,4.8-0.2,7.2-0.5c1.2-0.1,2.4-0.3,3.5-0.4c1.2-0.2,2.3-0.3,3.4-0.5c2.2-0.4,4.4-0.7,6.4-1.2
	c2-0.4,3.9-0.9,5.7-1.3c1.7-0.5,3.4-0.9,4.8-1.4s2.6-0.8,3.6-1.2c2-0.7,3.2-1.1,3.2-1.1s-1.1,0.5-3,1.5c-1,0.5-2.2,0.9-3.5,1.5
	c-1.4,0.6-3,1.1-4.7,1.8c-1.8,0.6-3.6,1.2-5.7,1.7c-2,0.6-4.2,1-6.5,1.5c-1.1,0.2-2.3,0.4-3.5,0.6c-1.2,0.2-2.4,0.3-3.6,0.5
	c-2.4,0.2-4.9,0.5-7.3,0.5c-1.2,0.1-2.5,0-3.7,0s-2.4,0-3.6-0.1c-0.6,0-1.2,0-1.8-0.1c-0.6-0.1-1.2-0.1-1.8-0.2
	c-1.2-0.1-2.3-0.2-3.5-0.4c-1.1-0.2-2.3-0.3-3.4-0.5s-2.2-0.4-3.2-0.6c-2-0.4-4-0.8-5.8-1.3s-3.4-1.1-4.7-1.8
	c-1.3-0.7-2.4-1.6-3.1-2.3c-0.8-0.7-1.3-1.4-1.6-1.9L192.4,553.4L192.4,553.4z M297.4,12.8c1.5,3.6,2.5,7.4,3.6,11.2l3,11.4
	l5.7,22.9c0.9,3.8,1.7,7.7,2.5,11.5l2.3,11.6c1.5,7.7,3,15.4,4.3,23.2c1.4,7.7,2.7,15.5,3.9,23.3l1.8,11.7c0.6,3.9,1.1,7.8,1.6,11.7
	c0.6,3.9,1,7.8,1.5,11.7c0.5,3.9,0.8,7.8,1.2,11.8l0.4,5.9c0.1,2,0.3,3.9,0.3,5.9s0.1,4,0.1,5.9l-0.3,6l-0.4,8.1l-2-7.9l-0.2-0.8
	l2.4-0.5v1.4L329,200c-0.1,0.8-0.1,1.6-0.2,2.4l-0.6,4.8c-0.4,3.2-0.9,6.3-1.5,9.5c-0.3,1.6-0.6,3.1-1.1,4.8l-1.4,4.6l-1.7,4.6
	c-0.6,1.5-1.3,3-2,4.4c-2.8,5.8-6.1,11.4-9.8,16.7c-3.7,5.3-7.8,10.3-12.2,15c-4.4,4.7-9.1,9.1-14.2,13.2l-1.9,1.5l-2,1.4
	c-0.7,0.5-1.3,1-2,1.4l-2,1.3c-1.4,0.9-2.7,1.7-4.1,2.5l-4.2,2.4c-5.7,3.1-11.6,5.8-17.8,7.8c-6.2,2-12.6,3.3-19.2,3.6h-2.5
	l-2.4-0.1c-0.8,0-1.6,0-2.4-0.1l-2.5-0.3c-0.8-0.1-1.7-0.2-2.5-0.4l-2.4-0.5c-0.8-0.2-1.6-0.3-2.4-0.6l-2.3-0.7
	c-6.2-2-12.1-4.9-17.6-8.3c-11-6.8-20.6-15.6-29.5-24.8c-8.9-9.3-16.7-19.8-22.6-31.2c-3-5.7-5.5-11.7-7.5-17.8
	c-1-3.1-1.8-6.2-2.5-9.4l-0.9-4.8l-0.3-2.4l-0.1-1.2l-0.1-0.6v-0.4c0,0,0-0.1,0,0c0.4-0.1-1-0.1,1.3,1l-1.3-1
	c-0.4-2.1-0.4-4.2-0.4-6.2s0.1-4,0.2-6c0.2-4,0.6-8,1-12s1.1-7.9,1.8-11.9l2.2-11.7c2.9-15.6,6-31.3,9.1-46.9l4.8-23.4
	c1.6-7.8,3.3-15.6,5-23.4c1.7-7.8,3.4-15.5,5.3-23.3c0.9-3.9,1.8-7.7,2.8-11.6c0.9-3.9,2-7.7,3.1-11.5c-1,3.9-2,7.7-2.8,11.6
	l-1.3,5.8l-1.3,5.8c-1.7,7.8-3.3,15.6-4.9,23.4c-1.6,7.8-3.1,15.6-4.6,23.4l-4.5,23.4c-3,15.6-5.9,31.3-8.7,46.9l-2.1,11.8
	c-0.7,3.9-1.4,7.8-1.7,11.7c-0.4,3.9-0.7,7.9-0.9,11.8c-0.1,2-0.2,3.9-0.2,5.9c0,1.9,0.1,3.9,0.4,5.7l-1.3-1
	c2.3,1.2,0.9,1.2,1.3,1.1v0.6l0.1,0.6l0.1,1.2c0.1,0.8,0.2,1.6,0.3,2.3c0.2,1.5,0.5,3.1,0.9,4.6c0.7,3.1,1.5,6.1,2.5,9.1
	c1.9,6,4.4,11.8,7.4,17.4c5.9,11.2,13.5,21.4,22.3,30.5c4.4,4.6,9,9,13.8,13.1s9.9,7.9,15.2,11.2c5.4,3.3,11,6,17,7.9l2.2,0.7
	c0.7,0.2,1.5,0.4,2.3,0.5l2.3,0.5c0.8,0.2,1.5,0.2,2.3,0.3l2.3,0.3c0.8,0.1,1.6,0.1,2.4,0.1l2.4,0.1h0.3c0,0,0.1,0,0,0h2
	c6.2-0.2,12.4-1.5,18.4-3.4s11.7-4.5,17.3-7.5c1.4-0.7,2.8-1.5,4.1-2.3c1.4-0.8,2.8-1.6,4.1-2.5l2-1.3c0.7-0.4,1.3-0.9,1.9-1.4
	l1.9-1.4l1.9-1.5c4.9-3.9,9.6-8.2,13.9-12.8c4.3-4.6,8.4-9.5,12-14.6c3.6-5.2,6.9-10.6,9.6-16.3c0.6-1.4,1.4-2.8,1.9-4.3l1.7-4.4
	l1.4-4.6c0.4-1.4,0.7-3,1-4.5c0.6-3.1,1.1-6.2,1.5-9.4c0.2-1.6,0.4-3.1,0.6-4.7c0.1-0.8,0.2-1.6,0.2-2.3l0.1-1.1v-0.9l-0.2-11.2
	L329,197l0.2,0.8l-2.4,0.2l0.3-5.8c0-1.9,0-3.9-0.1-5.8c0-1.9-0.1-3.9-0.2-5.9l-0.4-5.9c-0.4-3.9-0.6-7.8-1.1-11.7
	c-0.4-3.9-0.8-7.8-1.3-11.7l-1.5-11.7c-0.5-3.9-1.1-7.8-1.7-11.7c-1.1-7.8-2.4-15.5-3.7-23.3c-1.3-7.8-2.6-15.5-4-23.2L311,69.7
	c-0.7-3.9-1.4-7.7-2.3-11.6l-5.3-23c-0.9-3.8-1.8-7.6-2.8-11.5C299.8,20.3,298.9,16.5,297.4,12.8L297.4,12.8z M214.8,528.7
	c0,0,0.5,0.2,1.3,0.4c0.8,0.3,2,0.6,3.4,1s3.1,0.8,4.9,1.1c0.9,0.2,1.8,0.3,2.8,0.4c0.9,0.1,1.9,0.2,2.9,0.3c0.5,0,1,0.1,1.4,0.1
	h1.4c0.9,0,1.9,0,2.8-0.1s1.8-0.2,2.6-0.3c0.8-0.2,1.6-0.3,2.3-0.5c1.4-0.4,2.5-0.8,3.3-1.2c0.8-0.3,1.2-0.6,1.2-0.6
	s-0.1,0.1-0.3,0.2c-0.2,0.2-0.4,0.4-0.8,0.7c-0.7,0.6-1.7,1.3-3.1,1.9c-1.4,0.6-3.1,1.2-5,1.5c-0.9,0.1-1.9,0.3-2.9,0.3h-3
	c-2-0.2-4-0.5-5.9-0.9c-1.8-0.5-3.5-1.1-4.9-1.7c-1.4-0.6-2.5-1.3-3.2-1.7c-0.4-0.2-0.6-0.4-0.8-0.6
	C214.9,528.7,214.8,528.7,214.8,528.7L214.8,528.7z M143.5,559.7v0.5c0,0.3,0.2,0.8,0.5,1.4c0.3,0.6,0.8,1.3,1.5,1.9
	c0.7,0.6,1.7,1.2,2.8,1.7c1.1,0.5,2.5,0.9,3.9,1.4s3,1,4.6,1.5c3.3,1.1,7.1,2.3,11.2,3.3c4.1,1.1,8.7,2,13.5,2.5
	c4.9,0.4,10.1,0.6,15.4,1c5.3,0.3,10.9,0.6,16.5,0.8c2.8,0.1,5.6,0.2,8.5,0.2c2.8,0,5.7-0.1,8.5-0.2c11.4-0.5,22.8-1.1,33.5-2
	c5.3-0.4,10.5-0.8,15.4-1.3s9.5-1,13.7-1.6c1.1-0.2,2.1-0.3,3.1-0.4c1-0.2,2-0.3,2.9-0.5c1-0.2,1.9-0.3,2.8-0.5s1.8-0.4,2.6-0.6
	c3.4-0.9,6.3-1.8,8.6-2.6c2.4-0.8,4.2-1.5,5.3-2.2c0.6-0.4,0.9-0.7,1.2-1c0.2-0.3,0.3-0.4,0.3-0.4s-0.1,0.2-0.3,0.4
	c-0.2,0.3-0.6,0.7-1.1,1.1c-1.1,0.8-2.9,1.6-5.3,2.5c-2.3,0.9-5.2,1.9-8.5,2.9c-3.4,0.9-7.2,1.8-11.5,2.5c-4.2,0.7-8.9,1.3-13.7,1.9
	c-4.9,0.6-10,1.1-15.4,1.6c-10.7,0.9-22.1,1.7-33.6,2.2c-2.9,0.1-5.7,0.2-8.6,0.2c-2.9-0.1-5.7-0.2-8.5-0.3
	c-5.6-0.3-11.2-0.6-16.5-1c-5.4-0.4-10.5-0.7-15.4-1.3s-9.5-1.7-13.6-2.9s-7.9-2.5-11.1-3.7c-1.6-0.6-3.2-1.2-4.6-1.7
	s-2.7-1-3.9-1.6c-1.1-0.5-2.1-1.2-2.8-1.9c-0.7-0.7-1.1-1.4-1.4-2s-0.3-1.1-0.4-1.5C143.5,559.8,143.5,559.7,143.5,559.7
	L143.5,559.7z"/>
<path d="M131.8,197.9c0,0,12.2-0.8,30.6-1.6c4.6-0.2,9.6-0.4,14.8-0.6c5.3-0.2,10.8-0.3,16.6-0.4c5.8-0.1,11.7-0.2,17.7-0.2
	s12.2,0,18.3,0.2l4.6,0.1c1.5,0.1,3.1,0.2,4.6,0.2c3.1,0.1,6.1,0.4,9.1,0.5c6,0.3,11.9,0.6,17.7,0.8c5.7,0.3,11.3,0.4,16.5,0.4
	c5.3,0.1,10.2,0.1,14.8,0c4.6-0.1,8.8-0.1,12.6-0.1h9.7c5.4,0,8.4,0.1,8.4,0.1v0.3c0,0-3.1,0.3-8.4,0.7c-2.7,0.2-5.9,0.4-9.7,0.6
	c-3.7,0.2-7.9,0.5-12.5,0.8s-9.6,0.5-14.9,0.5c-5.3,0.1-10.9,0-16.6-0.2c-5.8-0.3-11.7-0.6-17.7-1.1c-3-0.2-6.1-0.5-9.1-0.8
	c-1.5-0.1-3-0.2-4.6-0.3l-4.6-0.2c-6.1-0.3-12.2-0.5-18.3-0.6c-6-0.1-12-0.1-17.7-0.1s-11.3,0.1-16.6,0.1c-5.3,0-10.2,0.1-14.8,0.2
	c-18.4,0.4-30.6,0.9-30.6,0.9L131.8,197.9L131.8,197.9z"/>
</svg>
