<?xml version="1.0" encoding="utf-8"?>
<!-- Generator: Adobe Illustrator 19.2.0, SVG Export Plug-In . SVG Version: 6.00 Build 0)  -->
<svg version="1.1" id="Layer_1" xmlns="http://www.w3.org/2000/svg" xmlns:xlink="http://www.w3.org/1999/xlink" x="0px" y="0px"
	 viewBox="0 0 460 425" style="enable-background:new 0 0 460 425;" xml:space="preserve">
<style type="text/css">
	.st0{fill:url(#SVGID_1_);}
	.st1{fill:none;stroke:#000000;stroke-width:5;stroke-miterlimit:10;}
</style>
<path d="M167.3,404.3c0,0,2,0.4,5.4,1.1c1.7,0.3,3.8,0.7,6.2,1.2c2.4,0.4,5.1,0.9,8,1.4c5.9,1,12.8,2.1,20.1,3.1
	c3.7,0.5,7.5,0.9,11.4,1.2c1.9,0.2,3.9,0.3,5.8,0.3h3l2.9-0.1c3.9-0.2,7.9-0.5,11.8-0.9s7.7-0.8,11.4-1.3s7.3-1,10.6-1.5
	c3.4-0.5,6.6-1,9.5-1.5s5.6-1,8-1.4c2.4-0.5,4.5-0.9,6.1-1.3c1.7-0.4,3-0.7,3.9-0.9s1.4-0.3,1.4-0.3s-0.5,0.2-1.4,0.5
	s-2.2,0.7-3.9,1.2c-1.7,0.5-3.7,1-6.1,1.6s-5,1.2-8,1.8c-5.9,1.2-12.7,2.5-20.1,3.6c-3.7,0.5-7.5,1.1-11.5,1.5
	c-3.9,0.4-7.9,0.7-11.9,0.9l-3,0.1h-3c-2-0.1-4-0.2-6-0.4c-3.9-0.3-7.8-0.9-11.5-1.4c-7.4-1.1-14.3-2.4-20.1-3.7
	c-5.9-1.2-10.7-2.5-14.1-3.4c-1.7-0.4-3-0.8-3.9-1.1C167.7,404.4,167.3,404.3,167.3,404.3L167.3,404.3z M207.1,388.1h0.5
	c0.3,0,0.9,0,1.5,0.1s1.4,0.2,2.3,0.5c0.9,0.2,1.8,0.5,2.9,0.7s2.3,0.5,3.5,0.7s2.5,0.4,3.9,0.5c0.7,0.1,1.4,0.1,2.1,0.2
	c0.7,0,1.4,0.1,2.1,0.1c1.4,0,2.9,0.1,4.3,0c1.4,0,2.9-0.1,4.3-0.2l4.2-0.3c1.4-0.1,2.7-0.3,3.9-0.4c1.3-0.1,2.4-0.3,3.5-0.4
	c2.2-0.3,4-0.5,5.3-0.6s2-0.2,2-0.2s-2.8,0.9-7.1,1.9c-2.2,0.5-4.7,1-7.4,1.5c-1.4,0.2-2.8,0.4-4.3,0.5c-0.7,0.1-1.5,0.1-2.2,0.2
	c-0.7,0.1-1.5,0.1-2.2,0.1c-1.5,0-3,0-4.5-0.1c-0.7,0-1.5-0.1-2.2-0.2l-2.1-0.3c-1.4-0.2-2.7-0.5-4-0.8s-2.4-0.7-3.4-1.1
	c-1.1-0.4-2-0.8-2.8-1.1s-1.6-0.6-2.2-0.8C207.8,388.2,207.1,388.1,207.1,388.1L207.1,388.1z"/>
<linearGradient id="SVGID_1_" gradientUnits="userSpaceOnUse" x1="162.5848" y1="-407.0494" x2="298.7599" y2="-407.0494" gradientTransform="matrix(1 0 0 1 0 507)">
	<stop  offset="0" style="stop-color:#F9903D"/>
	<stop  offset="1" style="stop-color:#FFC700"/>
</linearGradient>
<path class="st0" d="M298.1,38.5c-6.3,38.7-6.5,43.9-0.7,82.7c1.5,10.2,3,22.7-2.8,29.4c-2.9,3.4-10.2,7.7-14,8.8
	C244,169.7,209,169.8,174.2,153c-4.8-2.3-10-5.9-11.3-12.5c-0.7-3.7-0.1-7.5,0.5-11.3c6.9-43.1,12.2-53,4.1-95.8
	C210.1,34.9,255.5,37,298.1,38.5L298.1,38.5z"/>
<path class="st1" d="M306.4,6.5c-1.6,18.8-7.2,64.1-4.4,84.3c3.2,23.2,13.7,49.8-6.5,70.9c-9.1,9.5-41.7,16.1-49,26.3
	c-5.5,7.7-6.2,16.6-6.8,25.2c-3.1,48.4-6.3,96.6,0,144.9c0.6,4.2,1.5,11.2,3.3,15.6c1,2.4,5.6,6.6,7.8,8c7.9,5,41.4,16.2,47.4,18.1
	c19.1,6.1-28.1,23.2-69.2,22.2c-33.9-0.8-74.3-11.6-75-14.1c-2.5-8.9,13.5-9.7,18.4-10.5c11.2-1.8,21.6-6.4,31.5-12
	c3.9-2.2,8.6-9,10.9-12.8c2.2-3.6,3.2-10.4,3.7-14.6c4.9-45.6,4.2-92.1,5.4-138c0.3-10.1,0.3-20.5-5.8-29.6
	c-7.6-11.4-37.4-15.5-48-25.6c-22.9-21.8-19.3-52.9-12.3-78.1c6.1-22,5-43.3-0.2-65.5c-1-4.4-3.9-10.7-4.2-15.4
	c-0.1-1.3,105.2-0.3,139.8,0.5C298,6.4,301.6,7.1,306.4,6.5L306.4,6.5z"/>
<path d="M161,12.3c0,0,0.1,0.4,0.4,1.1s0.6,1.8,1.1,3.2c0.9,2.8,2.1,7,3.2,12.4s2,12.1,2.9,19.7c0.8,7.6,1.5,16.3,1.2,25.8
	c-0.1,4.7-0.6,9.7-1.3,14.8c-0.8,5.1-1.9,10.2-3,15.5c-0.6,2.6-1.1,5.3-1.7,8s-1.1,5.5-1.6,8.2c-0.5,2.8-0.8,5.6-0.9,8.4
	c0,1.4,0,2.8,0.2,4.2l0.3,2.1l0.3,1c0.1,0.4,0.2,0.6,0.3,0.9c0.9,2.5,2.6,4.7,4.8,6.4c1.1,0.9,2.3,1.6,3.6,2.3
	c0.6,0.3,1.3,0.7,1.9,1l2.1,1c5.4,2.5,11.1,4.8,16.9,6.7c11.7,3.8,24,6.2,36.4,6.7s24.9-0.8,36.8-3.9c3-0.8,5.9-1.7,8.8-2.6
	c1.4-0.5,2.9-1,4.3-1.5s2.7-1.2,4-1.8c2.6-1.4,5.2-2.9,7.4-4.7c0.5-0.5,1.1-0.9,1.5-1.4l0.3-0.3l0.4-0.4c0.2-0.3,0.4-0.5,0.6-0.8
	c0.7-1.1,1.3-2.4,1.7-3.7c0.8-2.6,1.2-5.5,1.2-8.3c0.1-2.8-0.1-5.6-0.4-8.4s-0.7-5.5-1.1-8.3c-0.4-2.7-0.8-5.5-1.2-8.1
	c-1.5-10.7-2.7-20.9-2.8-30.5c0-2.4,0.1-4.7,0.1-7c0.2-2.3,0.3-4.5,0.5-6.6c0.4-4.3,1-8.4,1.6-12.2c1.3-7.6,2.7-14.1,3.8-19.5
	c1.1-5.4,2.1-9.6,2.7-12.5s1-4.4,1-4.4s-0.3,1.6-0.8,4.5s-1.2,7.2-2.2,12.6c-0.9,5.4-2.1,12-3.1,19.6s-2,16.2-1.7,25.5
	c0.2,9.4,1.7,19.5,3.3,30.1c0.8,5.4,1.7,10.8,2.4,16.5c0.3,2.9,0.5,5.8,0.5,8.8c-0.1,3-0.4,6-1.3,9c-0.5,1.5-1.1,3-2,4.3
	c-0.2,0.3-0.5,0.7-0.7,1l-0.3,0.4c-0.2,0.2-0.3,0.3-0.4,0.5c-0.6,0.6-1.2,1.1-1.8,1.7c-2.4,2-5.1,3.6-7.8,5.1
	c-1.4,0.7-2.8,1.4-4.3,2s-2.9,1.1-4.4,1.6c-2.9,1-5.9,1.9-8.9,2.7c-12.1,3.2-24.9,4.7-37.6,4.2s-25.3-3-37.2-6.9
	c-5.9-2-11.7-4.3-17.2-6.9l-2.1-1c-0.7-0.3-1.4-0.7-2.1-1.1c-1.4-0.8-2.7-1.6-4-2.6c-2.5-2-4.6-4.6-5.7-7.7
	c-0.1-0.4-0.3-0.8-0.4-1.2l-0.3-1.1c-0.1-0.8-0.3-1.5-0.3-2.3c-0.2-1.5-0.2-3-0.2-4.5c0.1-3,0.5-5.9,0.9-8.7
	c0.5-2.8,1.1-5.6,1.6-8.3c0.5-2.7,1.1-5.4,1.7-8.1c1.2-5.3,2.3-10.4,3.2-15.4c0.9-5,1.4-9.8,1.6-14.5c0.5-9.4,0-18-0.6-25.6
	s-1.3-14.3-2.2-19.7c-0.9-5.4-1.9-9.6-2.7-12.5c-0.4-1.4-0.7-2.5-0.9-3.2C161.1,12.7,161,12.3,161,12.3L161,12.3z"/>
<path d="M165.3,29.1c0,0,8.2-0.2,20.4-0.1c3.1,0,6.4,0,9.9,0.1s7.2,0.1,11,0.2s7.8,0.2,11.8,0.3c4,0.1,8.1,0.3,12.2,0.4
	c4.1,0.2,8.2,0.3,12.2,0.5s8,0.4,11.8,0.6c7.6,0.4,14.8,0.8,20.9,1.3c12.2,0.8,20.4,1.6,20.4,1.6s-8.2,0.2-20.4,0.1
	c-6.1,0-13.3-0.1-20.9-0.3c-3.8-0.1-7.8-0.2-11.8-0.3c-4-0.1-8.1-0.3-12.2-0.4c-4.1-0.2-8.2-0.3-12.2-0.5s-8-0.4-11.8-0.6
	s-7.5-0.4-11-0.6s-6.8-0.4-9.9-0.6C173.4,29.9,165.3,29.1,165.3,29.1z"/>
</svg>
