<svg id="Layer_1" xmlns="http://www.w3.org/2000/svg" viewBox="0 0 460 425"><style>.st0{fill:url(#SVGID_1_)}.st1{fill:none;stroke:#000;stroke-width:5;stroke-miterlimit:10}</style><path d="M167.3 404.3s2 .4 5.4 1.1c1.7.3 3.8.7 6.2 1.2 2.4.4 5.1.9 8 1.4 5.9 1 12.8 2.1 20.1 3.1 3.7.5 7.5.9 11.4 1.2 1.9.2 3.9.3 5.8.3h3l2.9-.1c3.9-.2 7.9-.5 11.8-.9s7.7-.8 11.4-1.3 7.3-1 10.6-1.5c3.4-.5 6.6-1 9.5-1.5s5.6-1 8-1.4c2.4-.5 4.5-.9 6.1-1.3 1.7-.4 3-.7 3.9-.9s1.4-.3 1.4-.3-.5.2-1.4.5-2.2.7-3.9 1.2c-1.7.5-3.7 1-6.1 1.6s-5 1.2-8 1.8c-5.9 1.2-12.7 2.5-20.1 3.6-3.7.5-7.5 1.1-11.5 1.5-3.9.4-7.9.7-11.9.9l-3 .1h-3c-2-.1-4-.2-6-.4-3.9-.3-7.8-.9-11.5-1.4-7.4-1.1-14.3-2.4-20.1-3.7-5.9-1.2-10.7-2.5-14.1-3.4-1.7-.4-3-.8-3.9-1.1-.6-.2-1-.3-1-.3zm39.8-16.2h.5c.3 0 .9 0 1.5.1s1.4.2 2.3.5c.9.2 1.8.5 2.9.7s2.3.5 3.5.7 2.5.4 3.9.5c.7.1 1.4.1 2.1.2.7 0 1.4.1 2.1.1 1.4 0 2.9.1 4.3 0 1.4 0 2.9-.1 4.3-.2l4.2-.3c1.4-.1 2.7-.3 3.9-.4 1.3-.1 2.4-.3 3.5-.4 2.2-.3 4-.5 5.3-.6s2-.2 2-.2-2.8.9-7.1 1.9c-2.2.5-4.7 1-7.4 1.5-1.4.2-2.8.4-4.3.5-.7.1-1.5.1-2.2.2-.7.1-1.5.1-2.2.1-1.5 0-3 0-4.5-.1-.7 0-1.5-.1-2.2-.2l-2.1-.3c-1.4-.2-2.7-.5-4-.8s-2.4-.7-3.4-1.1c-1.1-.4-2-.8-2.8-1.1s-1.6-.6-2.2-.8c-1.2-.4-1.9-.5-1.9-.5z"/><linearGradient id="SVGID_1_" gradientUnits="userSpaceOnUse" x1="162.585" y1="-407.049" x2="298.76" y2="-407.049" gradientTransform="translate(0 507)"><stop offset="0" stop-color="#f9903d"/><stop offset="1" stop-color="#ffc700"/></linearGradient><path class="st0" d="M298.1 38.5c-6.3 38.7-6.5 43.9-.7 82.7 1.5 10.2 3 22.7-2.8 29.4-2.9 3.4-10.2 7.7-14 8.8-36.6 10.3-71.6 10.4-106.4-6.4-4.8-2.3-10-5.9-11.3-12.5-.7-3.7-.1-7.5.5-11.3 6.9-43.1 12.2-53 4.1-95.8 42.6 1.5 88 3.6 130.6 5.1z"/><path class="st1" d="M306.4 6.5c-1.6 18.8-7.2 64.1-4.4 84.3 3.2 23.2 13.7 49.8-6.5 70.9-9.1 9.5-41.7 16.1-49 26.3-5.5 7.7-6.2 16.6-6.8 25.2-3.1 48.4-6.3 96.6 0 144.9.6 4.2 1.5 11.2 3.3 15.6 1 2.4 5.6 6.6 7.8 8 7.9 5 41.4 16.2 47.4 18.1 19.1 6.1-28.1 23.2-69.2 22.2-33.9-.8-74.3-11.6-75-14.1-2.5-8.9 13.5-9.7 18.4-10.5 11.2-1.8 21.6-6.4 31.5-12 3.9-2.2 8.6-9 10.9-12.8 2.2-3.6 3.2-10.4 3.7-14.6 4.9-45.6 4.2-92.1 5.4-138 .3-10.1.3-20.5-5.8-29.6-7.6-11.4-37.4-15.5-48-25.6-22.9-21.8-19.3-52.9-12.3-78.1 6.1-22 5-43.3-.2-65.5-1-4.4-3.9-10.7-4.2-15.4-.1-1.3 105.2-.3 139.8.5 4.8.1 8.4.8 13.2.2z"/><path d="M161 12.3s.1.4.4 1.1.6 1.8 1.1 3.2c.9 2.8 2.1 7 3.2 12.4s2 12.1 2.9 19.7c.8 7.6 1.5 16.3 1.2 25.8-.1 4.7-.6 9.7-1.3 14.8-.8 5.1-1.9 10.2-3 15.5-.6 2.6-1.1 5.3-1.7 8s-1.1 5.5-1.6 8.2c-.5 2.8-.8 5.6-.9 8.4 0 1.4 0 2.8.2 4.2l.3 2.1.3 1c.1.4.2.6.3.9.9 2.5 2.6 4.7 4.8 6.4 1.1.9 2.3 1.6 3.6 2.3.6.3 1.3.7 1.9 1l2.1 1c5.4 2.5 11.1 4.8 16.9 6.7 11.7 3.8 24 6.2 36.4 6.7s24.9-.8 36.8-3.9c3-.8 5.9-1.7 8.8-2.6 1.4-.5 2.9-1 4.3-1.5s2.7-1.2 4-1.8c2.6-1.4 5.2-2.9 7.4-4.7.5-.5 1.1-.9 1.5-1.4l.3-.3.4-.4c.2-.3.4-.5.6-.8.7-1.1 1.3-2.4 1.7-3.7.8-2.6 1.2-5.5 1.2-8.3.1-2.8-.1-5.6-.4-8.4s-.7-5.5-1.1-8.3c-.4-2.7-.8-5.5-1.2-8.1-1.5-10.7-2.7-20.9-2.8-30.5 0-2.4.1-4.7.1-7 .2-2.3.3-4.5.5-6.6.4-4.3 1-8.4 1.6-12.2 1.3-7.6 2.7-14.1 3.8-19.5 1.1-5.4 2.1-9.6 2.7-12.5s1-4.4 1-4.4-.3 1.6-.8 4.5-1.2 7.2-2.2 12.6c-.9 5.4-2.1 12-3.1 19.6s-2 16.2-1.7 25.5c.2 9.4 1.7 19.5 3.3 30.1.8 5.4 1.7 10.8 2.4 16.5.3 2.9.5 5.8.5 8.8-.1 3-.4 6-1.3 9-.5 1.5-1.1 3-2 4.3-.2.3-.5.7-.7 1l-.3.4c-.2.2-.3.3-.4.5-.6.6-1.2 1.1-1.8 1.7-2.4 2-5.1 3.6-7.8 5.1-1.4.7-2.8 1.4-4.3 2s-2.9 1.1-4.4 1.6c-2.9 1-5.9 1.9-8.9 2.7-12.1 3.2-24.9 4.7-37.6 4.2s-25.3-3-37.2-6.9c-5.9-2-11.7-4.3-17.2-6.9l-2.1-1c-.7-.3-1.4-.7-2.1-1.1-1.4-.8-2.7-1.6-4-2.6-2.5-2-4.6-4.6-5.7-7.7-.1-.4-.3-.8-.4-1.2l-.3-1.1c-.1-.8-.3-1.5-.3-2.3-.2-1.5-.2-3-.2-4.5.1-3 .5-5.9.9-8.7.5-2.8 1.1-5.6 1.6-8.3.5-2.7 1.1-5.4 1.7-8.1 1.2-5.3 2.3-10.4 3.2-15.4.9-5 1.4-9.8 1.6-14.5.5-9.4 0-18-.6-25.6s-1.3-14.3-2.2-19.7c-.9-5.4-1.9-9.6-2.7-12.5-.4-1.4-.7-2.5-.9-3.2-.2-.9-.3-1.3-.3-1.3z"/><path d="M165.3 29.1s8.2-.2 20.4-.1c3.1 0 6.4 0 9.9.1s7.2.1 11 .2 7.8.2 11.8.3c4 .1 8.1.3 12.2.4 4.1.2 8.2.3 12.2.5s8 .4 11.8.6c7.6.4 14.8.8 20.9 1.3 12.2.8 20.4 1.6 20.4 1.6s-8.2.2-20.4.1c-6.1 0-13.3-.1-20.9-.3-3.8-.1-7.8-.2-11.8-.3-4-.1-8.1-.3-12.2-.4-4.1-.2-8.2-.3-12.2-.5s-8-.4-11.8-.6-7.5-.4-11-.6-6.8-.4-9.9-.6c-12.3-.9-20.4-1.7-20.4-1.7z"/></svg>