<?xml version="1.0" encoding="utf-8"?>
<!-- Generator: Adobe Illustrator 19.2.0, SVG Export Plug-In . SVG Version: 6.00 Build 0)  -->
<svg version="1.1" id="Layer_1" xmlns="http://www.w3.org/2000/svg" xmlns:xlink="http://www.w3.org/1999/xlink" x="0px" y="0px"
	 viewBox="0 0 460 304.9" style="enable-background:new 0 0 460 304.9;" xml:space="preserve">
<style type="text/css">
	.st0{fill:none;stroke:#000000;stroke-width:5;stroke-miterlimit:10;}
	.st1{opacity:0.9;fill:url(#SVGID_1_);enable-background:new    ;}
	.st2{fill:url(#SVGID_2_);}
</style>
<path class="st0" d="M6588.6-965.7c0.3,38.5,0.2,82.4-5.7,120.5c-2.3,14.7-3.7,31.7-10.6,44.9c-9.4,17.9-18.6,35.9-34,49.5
	c-5.5,4.9-11.5,9.2-17.9,12.8c-4.2,2.3-15.3,5.1-15.9,10.8c-0.4,3.6,3.8,5.7,6.9,7.6c6.9,4.3,10.9,12.3,11.6,20.4
	c1.5,15.4-5.6,30.7-18.9,38.8c-0.8,0.5-1.6,1-1.9,1.8c-0.7,2.1,2.1,3.4,4.2,3.8c12.1,2.1,24,5,35.7,8.7c7.7,2.4,24.3,10.6,12,18.5
	c-7.7,4.9-17,6.2-26,7.3c-24.7,3.1-49.7,6.2-74.5,3.9c-5.6-0.5-11.2-1.4-16.8-2.2l-22.5-3.3c-5.3-0.8-11.8-2.7-12.7-7.9
	c-1.7-10.2,16.6-15.1,23.6-17.2c4.9-1.5,36.5-4.6,35.6-9.3c-0.5-2.4-2.8-3.9-4.8-5.4c-8.9-6.4-15-16.4-16.6-27.2s1.3-22.2,7.9-30.9
	c2.2-2.9,4.9-6,4.4-9.6c-0.2-1.5-1-2.9-2-4.1c-5.1-6.7-15.9-9.5-22.8-14.7c-7.9-6-15.2-12.8-21.6-20.4
	c-12.5-14.5-22.1-31.5-27.6-49.9c-5.2-17.2-6.9-35.3-8.2-53.2c-2.3-31-3.6-62-3.8-93.1c20.2-2.4,42-1.8,62.4-1.4
	C6480.9-965.1,6588.6-967.8,6588.6-965.7L6588.6-965.7z"/>
<path d="M6462-650.8v1.9c0,0.6,0.1,1.3,0.6,1.9c0.4,0.6,1.2,0.8,2.2,0.8c2.1-0.1,4.5-0.2,7.1-0.2c1.3,0,2.7-0.1,4-0.1
	c1.4-0.1,2.8-0.1,4.1-0.2c1.4-0.1,2.8-0.1,4.1-0.2c1.4-0.1,2.7-0.1,4-0.2c2.6-0.1,5-0.2,7.1-0.3c2-0.1,3.7-0.6,4.6-1.3
	c0.4-0.4,0.7-0.8,0.8-1.1c0.1-0.3,0.2-0.5,0.2-0.5v0.5c-0.1,0.3-0.2,0.8-0.6,1.3s-1.1,1-1.9,1.4c-0.8,0.4-1.8,0.7-2.8,0.8
	c-2.1,0.4-4.5,0.7-7.1,0.9c-1.3,0.1-2.7,0.3-4,0.4c-1.4,0.1-2.8,0.2-4.2,0.2c-1.4,0-2.8,0.1-4.2,0.1h-4.1c-2.6-0.1-5.1-0.2-7.2-0.4
	c-0.5-0.1-1.1-0.1-1.6-0.4c-0.5-0.3-0.9-0.7-1.1-1.1c-0.4-0.9-0.4-1.7-0.3-2.3c0.1-0.6,0.2-1.1,0.3-1.4
	C6461.9-650.6,6462-650.8,6462-650.8L6462-650.8z M6461.6-735.4c0,0,0.6,0.2,1.6,0.5c0.5,0.2,1.2,0.3,1.9,0.5s1.6,0.4,2.4,0.5
	c0.9,0.2,1.9,0.3,2.9,0.5c1,0.1,2.1,0.2,3.3,0.3c1.1,0.1,2.3,0.1,3.5,0.2h3.6c1.2,0,2.5,0,3.7-0.1c1.2,0,2.4-0.1,3.6-0.1
	c2.3-0.1,4.5-0.1,6.3-0.3s3.2-0.6,4.1-1.2c0.4-0.3,0.8-0.6,1-0.8l0.3-0.3c0,0-0.1,0.1-0.2,0.4c-0.2,0.3-0.4,0.6-0.8,1
	c-0.8,0.8-2.3,1.6-4.2,2c-0.9,0.2-2,0.4-3,0.5c-1.1,0.1-2.2,0.3-3.3,0.4l-3.6,0.3c-1.2,0.1-2.5,0.1-3.7,0.2c-1.3,0-2.5,0-3.7-0.1
	c-0.6,0-1.2-0.1-1.8-0.1c-0.6-0.1-1.2-0.1-1.8-0.2c-1.2-0.1-2.3-0.4-3.4-0.6c-0.5-0.1-1-0.3-1.5-0.4c-0.5-0.2-1-0.3-1.4-0.4
	c-1.8-0.6-3.2-1.3-4.2-1.8C6462.2-735.1,6461.6-735.4,6461.6-735.4L6461.6-735.4z M6411.5-633.3l0.3,0.3c0.2,0.2,0.5,0.4,1,0.6
	c0.9,0.5,2.3,1,4.2,1.4c1.9,0.4,4.2,0.7,6.8,1.1c2.6,0.4,5.6,0.7,8.9,1.1c3.3,0.3,6.8,0.7,10.6,1c3.7,0.3,7.7,0.5,11.8,0.7
	c8.2,0.3,17,0.5,25.7,0.6c4.4,0.1,8.8,0.1,13.1,0.2c4.3,0,8.5,0.1,12.6,0c4.1-0.1,8-0.4,11.7-0.8c3.7-0.5,7.2-1.1,10.4-1.7
	c6.4-1.4,11.6-3,15.2-4.3c1.8-0.7,3.2-1.2,4.2-1.6l1.5-0.6c0,0-0.5,0.2-1.4,0.7c-0.9,0.4-2.3,1.1-4.1,1.8c-3.5,1.5-8.7,3.5-15.1,5.1
	c-6.4,1.6-14.1,2.9-22.3,3.2c-4.1,0.2-8.4,0.2-12.7,0.2c-4.3,0-8.7-0.1-13.1-0.1c-4.4-0.1-8.8-0.2-13.1-0.3
	c-4.3-0.1-8.6-0.4-12.7-0.6c-4.1-0.3-8.1-0.6-11.8-1c-3.8-0.4-7.3-0.8-10.6-1.3c-1.6-0.3-3.2-0.5-4.7-0.7c-1.5-0.3-2.9-0.5-4.2-0.8
	c-2.6-0.5-4.9-1-6.8-1.5s-3.3-1.1-4.1-1.7c-0.4-0.3-0.7-0.5-0.9-0.7C6411.6-633.2,6411.5-633.3,6411.5-633.3L6411.5-633.3z"/>
<linearGradient id="SVGID_1_" gradientUnits="userSpaceOnUse" x1="6378.7998" y1="-1350.8768" x2="6584.7002" y2="-1350.8768" gradientTransform="matrix(1 0 0 1 0 507)">
	<stop  offset="1.800000e-02" style="stop-color:#801FE3"/>
	<stop  offset="1" style="stop-color:#B7A7FF"/>
</linearGradient>
<path class="st1" d="M6378.8-937.5c1.4,24.4,2.7,48.8,4.1,73.2c0.4,7.9,0.9,15.9,2.2,23.7c1.8,11.1,5.4,21.8,8.9,32.5
	c3,9.1,6,18.2,11.1,26.3c17.8,28.1,51.5,32.7,81.9,31.3c10.6-0.5,21.3-1.5,31.5-4.7c66.9-21.3,65.2-117,66.1-172.7
	c0-2.6,0.1-5.1,0.1-7.7C6516-933.4,6447.2-931.6,6378.8-937.5L6378.8-937.5z"/>
<path d="M6373.7-957.2c0,0,0.6,8.1,1.5,22.2c0.5,7.1,1,15.6,1.7,25.5c0.6,9.8,1.4,20.9,2.1,33.1c0.4,6.1,0.7,12.4,1.3,18.9
	c0.5,6.5,1.4,13.2,3,19.9s3.7,13.5,6,20.4c2.4,6.9,4.5,14,7.5,20.9c0.8,1.7,1.5,3.4,2.4,5.1c0.9,1.6,1.8,3.3,2.8,4.8
	c1.1,1.6,2.2,3.1,3.4,4.7c1.2,1.4,2.5,2.8,3.7,4.3c5.3,5.5,11.7,10,18.8,13.2c7.1,3.3,14.8,5.4,22.6,6.6c7.9,1.3,15.9,1.7,23.9,1.7
	c8-0.1,16.1-0.4,24-1.5c3.9-0.5,7.9-1.2,11.7-2.2c1-0.3,1.9-0.5,2.8-0.8l0.7-0.2h0.1l0.2-0.1l0.4-0.1l1.4-0.5l2.8-1
	c0.5-0.2,0.9-0.3,1.4-0.5l1.3-0.6c7.1-3.1,13.7-7.4,19.4-12.5c5.7-5.1,10.5-11.1,14.4-17.5c4-6.3,7.1-13.1,9.7-19.8
	c2.6-6.8,4.6-13.6,6.3-20.3c3.2-13.5,5-26.5,6.2-38.5c1.1-12.1,1.7-23.2,2-33c0.3-9.9,0.5-18.4,0.7-25.5c0.2-14.2,0.4-22.2,0.4-22.2
	s0,2,0.1,5.8c0,3.8,0.1,9.4,0.2,16.4c0,7.1,0,15.7-0.2,25.5c-0.1,9.9-0.5,21-1.5,33.1c-1,12.1-2.6,25.2-5.7,38.9
	c-1.6,6.8-3.6,13.7-6.1,20.6c-2.5,6.9-5.7,13.8-9.8,20.3c-4,6.5-9,12.7-14.8,18.1c-5.9,5.4-12.7,9.8-20.2,13.1l-1.4,0.6
	c-0.5,0.2-0.9,0.4-1.4,0.5l-2.8,1l-1.4,0.5l-0.4,0.1l-0.2,0.1l-0.2,0.1l-0.7,0.2c-1,0.3-2,0.6-2.9,0.8c-3.9,1-8,1.8-12,2.4
	c-8.1,1.1-16.2,1.5-24.4,1.6c-8.2,0-16.3-0.5-24.4-1.8c-8-1.3-16-3.5-23.3-7c-7.4-3.4-14.1-8.1-19.6-13.9c-1.3-1.5-2.6-3.1-3.9-4.6
	c-1.1-1.6-2.2-3.2-3.3-4.7c-2.2-3.4-3.9-6.8-5.4-10.4c-3-7.1-5.2-14.2-7.5-21.2c-2.2-7-4.3-13.9-5.8-20.7
	c-1.6-6.9-2.4-13.6-2.8-20.2c-0.5-6.6-0.7-12.9-1-18.9c-0.6-12.1-1.1-23.2-1.6-33.1s-0.8-18.4-1.2-25.5
	C6374-949.2,6373.7-957.2,6373.7-957.2L6373.7-957.2z"/>
<path d="M6374.1-941.8c0,0,0.8,0,2.4,0.1s3.8,0.2,6.7,0.3c2.9,0.2,6.4,0.3,10.5,0.5c4,0.2,8.6,0.3,13.6,0.5s10.4,0.3,16.1,0.5
	s11.7,0.2,17.9,0.4c6.2,0.1,12.6,0.1,19.2,0.2c6.5,0.1,13.2,0,19.8,0.1c6.6,0,13.3,0,19.8-0.1s13-0.1,19.2-0.2
	c12.5-0.1,24.1-0.2,34-0.3c10-0.1,18.3-0.1,24.1-0.1h9.1c0,0-0.8,0.1-2.4,0.2c-1.6,0.1-3.8,0.2-6.7,0.4c-5.8,0.3-14.1,0.8-24.1,1.3
	s-21.6,0.9-34,1.3c-6.2,0.1-12.7,0.4-19.2,0.4c-6.5,0.1-13.2,0.1-19.8,0.2c-6.6,0-13.3,0-19.8-0.2c-6.5-0.1-13-0.3-19.2-0.4
	c-6.2-0.2-12.3-0.4-18-0.8c-2.9-0.2-5.6-0.3-8.3-0.5c-2.7-0.2-5.3-0.4-7.8-0.5c-2.5-0.2-4.9-0.3-7.1-0.5c-2.3-0.2-4.4-0.4-6.4-0.6
	c-4-0.4-7.6-0.7-10.4-1c-2.9-0.3-5.2-0.6-6.7-0.7C6374.9-941.7,6374.1-941.8,6374.1-941.8L6374.1-941.8z"/>
<path class="st0" d="M343.6,10.9c0.5,35.5,1.3,68.9-0.1,104.3c-0.5,13.6,1.2,27.1-0.2,40.7c-3.6,34.8,0.2,71,1.5,105.9
	c0.2,6-1.3,11.5-3.9,16.9c-5.8,12.3-19.5,16.3-32.5,17.7c-22.2,2.5-44.5,4-66.9,4.7c-20.8,0.6-43.4,1.9-63.9-1.1
	c-10.5-1.5-22.1-4.1-32.2-6.9c-9.6-2.7-20.5-10.2-24.7-19.1c-2.9-6-3-12.8-3.1-19.5c-0.4-26.5-2.2-52.6-0.6-79.1
	c1.6-25.6-1.7-48.8-0.6-74.5c1.2-28.7,0.8-57.4-1.2-86c-0.1-2,2.4-2,4.4-2C137.1,13.6,307.2,10,343.6,10.9L343.6,10.9z"/>
<radialGradient id="SVGID_2_" cx="231.9322" cy="-285.252" r="81.9593" gradientTransform="matrix(1 0 0 1 0 507)" gradientUnits="userSpaceOnUse">
	<stop  offset="0" style="stop-color:#EF9120"/>
	<stop  offset="1" style="stop-color:#943E00"/>
</radialGradient>
<path class="st2" d="M325.8,258.2c13.7-10.7,12.8-32,11.7-47.5c-0.4-5.2-0.6-17.5-0.7-33.4c-8.6,0.9-17.3-0.1-26-0.8
	c-43.9-3.5-88,0.3-131.8,4.8c-4.9,0.5-9.8,1-14.7,1.3c-12.8,0.8-25.7-0.1-38.4-2h-0.1c0.2,11.9,0.5,23.9,0.6,36
	c0.1,10,0.3,20.5,4.6,29.5c4.6,9.7,14.1,17,24.7,19c23.1,4.4,47.5,2.2,70.9,2.3c6.4,0,12.8,0,19.2,0.1c14.7,0,29.4,0.1,44-1.5
	C301,265.1,316.6,265.5,325.8,258.2L325.8,258.2z"/>
<path d="M122.9,17.4c0,0,0.2,2.6,0.5,7.5s0.7,12,1,21.1c0.4,9.1,0.7,20.1,0.8,32.8c0.1,6.3,0.1,13.1,0.1,20.2s-0.2,14.6-0.3,22.4
	c-0.2,15.6,0,32.5,0.4,50.3c0.2,8.9,0.4,18.1,0.6,27.5c0.1,4.7,0.2,9.4,0.2,14.2c0.1,4.8,0.2,9.6,0.8,14.3s1.8,9.4,4,13.7
	c2.1,4.3,5.3,8,9.1,11s8.2,5.2,12.9,6.4c0.6,0.1,1.2,0.3,1.8,0.4l1.9,0.3c1.3,0.2,2.5,0.4,3.7,0.6c2.5,0.4,5,0.6,7.5,0.9
	c20.2,1.8,41.1,0.1,61.9,0.3c10.4,0,20.8,0.2,31.1,0c5.2-0.1,10.3-0.2,15.4-0.5c2.6-0.1,5.1-0.3,7.7-0.5s5.1-0.5,7.7-0.7
	c5.1-0.4,10.2-0.7,15.1-1.4c4.9-0.8,9.8-1.9,13.9-4.2c8.5-4.8,12.5-14.3,13.8-23.7c0.7-4.7,0.8-9.5,0.7-14.2c0-2.4-0.2-4.7-0.3-7.1
	c-0.1-1.2-0.1-2.4-0.2-3.6c0-1.2-0.1-2.4-0.1-3.5c-0.3-9.4-0.3-18.6-0.4-27.5c-0.1-17.9,0-34.8,0.2-50.4c0.1-15.6,0.3-29.9,0.6-42.6
	c0.2-12.7,0.5-23.7,0.7-32.8c0.2-9.1,0.5-16.2,0.7-21.1c0.1-2.4,0.2-4.3,0.3-5.6c0.1-1.3,0.1-1.9,0.1-1.9s0,0.6-0.1,1.9
	c0,1.3-0.2,3.1-0.2,5.6c-0.1,4.9-0.2,12-0.3,21.1c-0.1,9.1-0.1,20.1-0.2,32.8V124c0,15.6,0.1,32.5,0.3,50.3
	c0.1,8.9,0.3,18.1,0.6,27.4c0.5,9.3,1.4,19,0,28.9c-0.1,1.2-0.4,2.5-0.6,3.7s-0.6,2.4-0.9,3.7l-1.2,3.6c-0.5,1.2-0.9,2.4-1.6,3.5
	l-0.9,1.7c-0.3,0.6-0.7,1.1-1.1,1.6s-0.7,1.1-1.2,1.6l-1.3,1.5c-0.2,0.2-0.4,0.5-0.7,0.7l-0.7,0.6l-1.4,1.2l-0.2,0.2
	c0,0-0.2,0.2-0.3,0.2l-0.4,0.3l-0.8,0.6c-0.5,0.4-1.1,0.7-1.7,1c-4.6,2.6-9.8,3.8-14.8,4.6c-5.1,0.8-10.2,1.1-15.3,1.5
	c-2.5,0.2-5.1,0.5-7.7,0.7s-5.2,0.4-7.7,0.6c-5.2,0.3-10.4,0.4-15.5,0.5c-10.4,0.1-20.8,0.1-31.2,0.1c-20.7-0.3-41.6,1.4-62.1-0.6
	c-2.6-0.3-5.1-0.5-7.7-0.9c-1.3-0.2-2.5-0.4-3.8-0.6l-1.9-0.3c-0.7-0.1-1.3-0.3-1.9-0.4c-5.1-1.3-9.9-3.7-14-6.9s-7.4-7.3-9.7-11.9
	c-2.3-4.6-3.5-9.6-4.2-14.5c-0.6-4.9-0.8-9.8-0.8-14.6s-0.1-9.5-0.1-14.2c-0.1-9.4-0.2-18.6-0.4-27.5c-0.2-17.9-0.3-34.8,0.1-50.4
	c0.5-15.6,0.8-29.9,0.8-42.5c0-12.7-0.1-23.7-0.3-32.8c-0.2-9.1-0.4-16.2-0.6-21.1C123,20,122.9,17.4,122.9,17.4L122.9,17.4z"/>
<path d="M179.5,89.7c0,1.4-0.3,2.7-0.6,4.1c-0.4,1.3-0.9,2.6-1.4,3.9c-1,2.6-2.1,5.1-2.6,7.7c-1,5.3-1.5,10.8-1.5,16.2
	c0.1,5.4,0.2,10.9,1,16.3c0.4,2.7,0.9,5.3,1.7,7.8c0.4,1.3,0.9,2.5,1.5,3.6s1.4,2.1,2.4,2.7l-1.5,0.8l0.3-3.9l0.2-3.9
	c0.1-2.6,0.2-5.2,0.2-7.9c0.1-2.6,0.1-5.2,0.1-7.9v-7.9l-0.1-15.8v-7.9C179.3,94.9,179.4,92.3,179.5,89.7L179.5,89.7z M179.5,89.7
	c0.2,5.3,0.5,10.5,0.8,15.8s0.5,10.5,0.7,15.8s0.3,10.5,0.3,15.8c0,2.6-0.1,5.3-0.2,7.9l-0.2,4l-0.3,4l-0.1,1.7l-1.4-0.9
	c-1.3-0.9-2.3-2.1-3-3.4c-0.7-1.3-1.3-2.6-1.7-4c-0.9-2.7-1.4-5.4-1.7-8.2c-0.7-5.5-0.8-11-0.7-16.5c0.1-5.5,0.8-11,2.1-16.4
	c0.3-1.4,0.8-2.7,1.4-3.9c0.5-1.3,1.1-2.5,1.7-3.8c0.6-1.2,1.1-2.5,1.6-3.8C179,92.4,179.4,91,179.5,89.7L179.5,89.7z"/>
<path d="M182.9,165.2l-2.2-3.5l-2.1-3.5c-1.4-2.3-2.7-4.7-4-7.1c-1.3-2.4-2.5-4.8-3.8-7.2c-1.2-2.4-2.4-4.9-3.5-7.3
	c-1.1-2.5-2.3-4.9-3.3-7.4c-1.1-2.5-2.1-5-3.1-7.5l-1.5-3.8l-1.3-4c-0.9-2.6-1.8-5.1-2.7-7.7l1.9-0.2c-0.4,2.9-0.7,5.7-0.9,8.6
	c-0.2,2.9-0.2,5.8,0,8.6c0.1,1.4,0.2,2.9,0.4,4.3s0.4,2.8,0.7,4.3c0.3,1.4,0.6,2.8,1,4.2s0.9,2.7,1.4,4.1c0.5,1.3,1.1,2.6,1.8,3.9
	c0.7,1.3,1.4,2.5,2.2,3.7c0.8,1.2,1.6,2.4,2.5,3.5s1.9,2.2,2.9,3.1c1,1,2.1,1.9,3.3,2.8c1.2,0.8,2.3,1.8,3.4,2.8s2.1,2,3.2,2.9
	C180.3,163.9,181.6,164.7,182.9,165.2L182.9,165.2z M182.9,165.2c-1.4-0.4-2.7-1.1-3.9-2c-1.2-0.9-2.3-1.8-3.4-2.8s-2.2-1.8-3.5-2.6
	c-1.2-0.8-2.4-1.7-3.5-2.7c-4.5-3.9-7.9-8.9-10.2-14.4c-0.6-1.4-1.1-2.8-1.6-4.2c-0.4-1.4-0.8-2.9-1.1-4.3c-0.3-1.4-0.6-2.9-0.8-4.4
	c-0.2-1.5-0.4-2.9-0.4-4.4c-0.4-5.9,0-11.9,0.9-17.7l0.6-4.2l1.3,4c0.8,2.6,1.7,5.1,2.6,7.7c0.9,2.5,1.8,5.1,2.8,7.6s1.9,5,3,7.6
	l1.5,3.8l1.6,3.7c1.1,2.5,2.2,4.9,3.3,7.4l1.7,3.7l1.8,3.7c1.2,2.4,2.4,4.9,3.6,7.3L182.9,165.2L182.9,165.2z M199.9,109.3
	c1.2,4.6,2.2,9.3,2.4,14.1c0,2.4-0.2,4.9-0.8,7.2c-0.6,2.4-1.5,4.6-2.3,6.8c-1.7,4.4-3.5,8.9-5.9,13.1c-1.2,2.1-2.5,4.1-4,6
	s-3.2,3.8-5.5,5.1l-1.3,0.7l-0.1-1.5c-0.1-1.2-0.1-2.5,0.1-3.6c0.1-1.2,0.4-2.3,0.7-3.5c0.3-1.1,0.6-2.2,1-3.3s0.8-2.2,1.2-3.2
	c0.8-2.1,1.8-4.2,2.6-6.3c0.9-2.1,1.8-4.2,2.6-6.2l2.3-6.4l2.3-6.4c0.4-1.1,0.9-2.1,1.4-3.1s1-2,1.5-3.1c0.5-1,0.9-2.1,1.3-3.1
	C199.7,111.6,200,110.5,199.9,109.3L199.9,109.3z M199.9,109.3c0.2,1.1-0.1,2.3-0.3,3.4c-0.3,1.1-0.7,2.2-1.1,3.2
	c-0.4,1.1-0.8,2.1-1.3,3.2c-0.4,1.1-0.9,2.1-1.2,3.1l-2,6.5l-2.1,6.5c-0.7,2.2-1.6,4.3-2.4,6.4c-0.9,2.1-1.7,4.2-2.5,6.3
	s-1.5,4.2-2,6.4c-0.3,1.1-0.5,2.1-0.6,3.2c-0.1,1.1-0.1,2.1,0,3.2l-1.5-0.8c1.9-1,3.5-2.7,4.9-4.5s2.7-3.8,3.9-5.8
	c2.4-4,4.2-8.4,6.1-12.7c0.9-2.2,1.8-4.3,2.5-6.6c0.7-2.2,1-4.5,1.1-6.9C201.5,118.7,200.7,114,199.9,109.3L199.9,109.3z M145.3,172
	c0,0,0.3,0.4,0.8,1.2c0.5,0.7,1.1,1.8,1.9,3c0.4,0.6,0.8,1.3,1.3,2s1,1.5,1.5,2.2c1,1.5,2.1,3.2,3.3,4.8c1.1,1.6,2.3,3.2,3.4,4.7
	c0.6,0.7,1.1,1.4,1.6,2.1c0.5,0.7,1,1.3,1.5,1.9c0.9,1.2,1.7,2.1,2.2,2.8s0.8,1.1,0.8,1.1s-0.4-0.3-1.1-0.8c-0.4-0.3-0.8-0.6-1.2-1
	c-0.5-0.4-1-0.8-1.6-1.3c-1.1-1-2.4-2.3-3.6-3.7c-0.6-0.7-1.3-1.4-1.9-2.2l-1.8-2.4c-0.6-0.8-1.1-1.7-1.7-2.5
	c-0.5-0.8-1-1.7-1.5-2.5c-0.9-1.7-1.7-3.2-2.3-4.6c-0.6-1.4-1-2.6-1.3-3.4C145.4,172.5,145.3,172,145.3,172L145.3,172z M169.1,190.7
	c0,0,0.4-1.2,1.3-2.8c0.4-0.8,1-1.7,1.6-2.7s1.3-1.9,2-2.9c0.4-0.5,0.7-1,1.1-1.4c0.4-0.5,0.8-0.9,1.2-1.3c0.8-0.8,1.7-1.5,2.5-2
	s1.5-0.8,2-1s0.8-0.3,0.8-0.3l-0.6,0.6c-0.4,0.4-0.9,0.9-1.5,1.6c-0.6,0.7-1.2,1.5-1.9,2.3c-0.7,0.9-1.4,1.8-2.1,2.8
	c-0.7,0.9-1.4,1.9-2.2,2.8c-0.7,0.9-1.4,1.6-2.1,2.3C170.1,189.9,169.1,190.7,169.1,190.7L169.1,190.7z M168.6,199.2
	c0,0,1,0.6,2.4,1.7c0.7,0.5,1.5,1.2,2.3,1.9s1.6,1.5,2.4,2.3s1.6,1.7,2.3,2.5c0.7,0.8,1.3,1.6,1.8,2.3c1,1.4,1.6,2.5,1.6,2.5
	s-1-0.6-2.4-1.7c-0.7-0.5-1.5-1.2-2.3-1.9s-1.6-1.5-2.4-2.3s-1.6-1.7-2.3-2.5c-0.7-0.8-1.3-1.6-1.8-2.3
	C169.1,200.3,168.6,199.2,168.6,199.2z M185.8,208.2c0,0,0.4-1.1,1.3-2.7c0.4-0.8,1-1.7,1.6-2.6c0.6-0.9,1.4-1.8,2.2-2.7
	c0.4-0.4,0.8-0.9,1.2-1.3l1.2-1.2c0.8-0.8,1.6-1.4,2.3-1.9c1.4-1.1,2.5-1.6,2.5-1.6s-0.6,1-1.7,2.4c-0.5,0.7-1.2,1.5-1.9,2.3
	c-0.7,0.8-1.4,1.7-2.2,2.6c-0.8,0.9-1.5,1.7-2.3,2.5c-0.7,0.8-1.5,1.5-2.1,2.1C186.7,207.4,185.8,208.2,185.8,208.2L185.8,208.2z
	 M149.5,205.6c0,0,0.4-0.7,1.1-1.6c0.7-0.9,1.7-2,2.8-3c1.1-1,2.2-2,3.1-2.7s1.7-1.1,1.7-1.1s-0.2,0.8-0.8,1.8
	c-0.6,1-1.5,2.3-2.6,3.3c-1.1,1.1-2.4,2-3.4,2.5C150.3,205.5,149.5,205.6,149.5,205.6L149.5,205.6z M136.5,195.4c0,0,0.1,0,0.2-0.1
	s0.3-0.2,0.5-0.2c0.5-0.1,1.4,0,2.1,0.5c0.4,0.2,0.8,0.5,1.1,0.9c0.3,0.4,0.7,0.8,1,1.2c0.6,0.8,1.2,1.7,1.8,2.6
	c0.6,0.9,1.1,1.8,1.6,2.7s0.9,1.7,1.2,2.5c0.6,1.5,0.9,2.6,0.9,2.6s-0.9-0.7-1.9-2c-0.5-0.6-1.1-1.3-1.7-2.2
	c-0.6-0.8-1.2-1.7-1.8-2.6c-0.6-0.9-1.1-1.8-1.6-2.7c-0.3-0.5-0.4-0.8-0.6-1.2s-0.4-0.7-0.7-1c-0.5-0.5-0.9-0.9-1.4-1
	c-0.2,0-0.4-0.1-0.5-0.1C136.6,195.4,136.5,195.4,136.5,195.4z M136.1,222.7c0,0,0.4-0.9,1.1-1.9c0.7-1.1,1.7-2.5,2.9-3.8
	c1.1-1.3,2.4-2.5,3.4-3.3s1.8-1.3,1.8-1.3s-0.3,0.9-0.9,2c-0.6,1.2-1.6,2.6-2.8,3.9c-1.2,1.3-2.5,2.5-3.5,3.2
	C137,222.3,136.1,222.7,136.1,222.7L136.1,222.7z M150.9,214.9c0,0,0.9,0.3,2.1,1s2.7,1.8,3.9,3.2c1.2,1.4,2.2,2.9,2.8,4.2
	c0.6,1.3,0.7,2.2,0.7,2.2s-0.2-0.1-0.5-0.4c-0.3-0.3-0.7-0.7-1.2-1.1c-1-0.9-2.1-2.2-3.3-3.5c-1.2-1.3-2.3-2.6-3.1-3.7
	c-0.4-0.5-0.8-1-1-1.3C151.1,215.1,150.9,214.9,150.9,214.9L150.9,214.9z M149.6,242.3c0,0,0-0.3,0.1-0.7s0.2-1.1,0.4-1.8
	s0.6-1.6,1-2.4c0.2-0.4,0.4-0.9,0.7-1.3c0.3-0.4,0.6-0.9,0.9-1.3c0.3-0.4,0.6-0.8,1-1.2c0.3-0.4,0.7-0.7,1-1.1
	c0.7-0.7,1.4-1.2,2-1.7c0.6-0.4,1.2-0.8,1.6-1s0.7-0.3,0.7-0.3s-0.1,0.2-0.4,0.6c-0.3,0.4-0.6,0.9-1.1,1.5c-0.9,1.2-2,2.7-3.2,4.3
	c-1.1,1.6-2.3,3.2-3.2,4.3c-0.4,0.6-0.8,1.1-1.1,1.5C149.8,242.1,149.6,242.3,149.6,242.3L149.6,242.3z M167.5,226.6
	c0,0,0.6-0.9,1.6-2.2c0.5-0.6,1.1-1.3,1.8-2.1c0.7-0.7,1.4-1.5,2.1-2.3s1.5-1.5,2.2-2.2s1.4-1.3,2-1.8c1.2-1.1,2.1-1.7,2.1-1.7
	s-0.4,1-1.2,2.4c-0.4,0.7-1,1.5-1.6,2.3c-0.3,0.4-0.6,0.8-1,1.2c-0.3,0.4-0.7,0.8-1.1,1.2c-0.8,0.8-1.5,1.5-2.3,2.1
	s-1.5,1.2-2.2,1.6C168.5,226.1,167.5,226.6,167.5,226.6z M165.9,230.9c0,0,1,0.8,2.3,2.2c0.7,0.7,1.4,1.5,2.2,2.4
	c0.8,0.9,1.6,1.9,2.3,2.9c0.8,1,1.5,2,2.1,3s1.2,1.9,1.7,2.7c0.9,1.6,1.4,2.8,1.4,2.8s-1-0.8-2.3-2.2c-0.7-0.7-1.4-1.5-2.2-2.4
	c-0.8-0.9-1.6-1.9-2.3-2.9c-0.8-1-1.5-2-2.1-3s-1.2-1.9-1.7-2.7C166.4,232.1,165.9,230.9,165.9,230.9z M186,215.9l0.9,0.6
	c0.5,0.4,1.3,1,2.2,1.7c0.9,0.7,1.9,1.5,3,2.4s2.2,1.9,3.4,2.8c1.1,1,2.3,1.9,3.4,2.8c1.1,0.9,2.1,1.8,2.9,2.5
	c0.9,0.7,1.6,1.4,2,1.8c0.5,0.5,0.8,0.7,0.8,0.7s-1.5-0.5-3.5-1.6c-1-0.5-2.1-1.2-3.3-2.1c-0.6-0.4-1.2-0.8-1.8-1.3
	c-0.6-0.4-1.2-0.9-1.8-1.4c-0.6-0.5-1.2-1-1.7-1.5c-0.6-0.5-1.1-1-1.6-1.5c-1-1-1.9-2-2.6-2.9C186.7,217.2,186,215.9,186,215.9z
	 M203,197.4c0,0,0-0.1,0.1-0.3s0.5-0.3,0.8-0.2c0.2,0,0.4,0.1,0.6,0.2c0.2,0.1,0.4,0.3,0.6,0.4c0.4,0.3,0.8,0.6,1.3,0.9
	c0.9,0.7,2,1.6,3.1,2.5s2.3,2,3.4,3l3.2,3.2c1,1,1.9,2,2.7,2.9c1.5,1.8,2.4,3.1,2.4,3.1s-1.3-0.8-3.2-2.2c-0.9-0.7-2-1.6-3.1-2.5
	s-2.2-2-3.4-3l-3.2-3.2c-1-1-1.9-2.1-2.7-2.9c-0.4-0.4-0.7-0.9-1-1.2c-0.3-0.4-0.5-0.6-0.8-0.8c-0.3-0.1-0.5-0.2-0.6-0.1
	C203,197.3,203,197.4,203,197.4L203,197.4z M207.5,229.1c0,0,0.2-0.2,0.5-0.6c0.3-0.4,0.7-0.9,1.3-1.5c0.5-0.6,1.2-1.3,1.9-2
	l2.2-2.2c0.8-0.7,1.5-1.4,2.3-2.1c0.7-0.7,1.4-1.3,2-1.8s1.1-0.9,1.5-1.2s0.6-0.4,0.6-0.4s-0.4,1-1.3,2.4c-0.4,0.7-1,1.5-1.6,2.3
	c-0.3,0.4-0.7,0.8-1,1.2c-0.4,0.4-0.7,0.8-1.1,1.2c-0.8,0.7-1.6,1.4-2.4,2s-1.6,1.1-2.3,1.5C208.6,228.8,207.5,229.1,207.5,229.1
	L207.5,229.1z M207.4,237.4c0,0,1.2,0.6,2.7,1.8c0.8,0.6,1.7,1.3,2.6,2.1s1.9,1.6,2.8,2.5s1.8,1.8,2.6,2.7c0.8,0.9,1.6,1.7,2.2,2.5
	c1.2,1.5,1.9,2.6,1.9,2.6s-1.2-0.6-2.7-1.8c-0.8-0.6-1.7-1.3-2.6-2.1s-1.9-1.6-2.8-2.5s-1.8-1.8-2.6-2.7c-0.8-0.9-1.6-1.7-2.2-2.5
	C208.1,238.5,207.4,237.4,207.4,237.4z M225.1,249.1c0,0,0.2-0.3,0.5-0.8s0.8-1.3,1.4-2.1s1.4-1.8,2.3-2.7c0.5-0.5,0.9-1,1.4-1.4
	c0.5-0.5,1-0.9,1.6-1.4c0.5-0.4,1.1-0.9,1.6-1.3s1.1-0.8,1.7-1.1c1.1-0.7,2.2-1.3,3.1-1.7s1.8-0.7,2.3-0.9l0.9-0.3
	c0,0-0.3,0.2-0.7,0.6c-0.5,0.4-1.1,0.9-1.9,1.6c-0.8,0.6-1.7,1.4-2.7,2.1c-1,0.8-2,1.6-3.1,2.5c-1,0.9-2.1,1.7-3,2.5
	c-1,0.8-1.9,1.6-2.6,2.2c-0.8,0.7-1.4,1.2-1.9,1.6L225.1,249.1L225.1,249.1z M226.4,218h-0.2c-0.1,0.1,0,0.2,0.1,0.4
	c0.1,0.1,0.1,0.2,0.2,0.2l0.1,0.1c0.1,0,0.1,0.1,0.2,0.1c0.3,0.1,0.7,0.3,1.1,0.5c0.8,0.4,1.6,0.8,2.5,1.4c0.9,0.5,1.9,1.1,2.8,1.8
	c0.9,0.6,1.8,1.3,2.7,2c0.8,0.7,1.6,1.3,2.2,1.9c1.3,1.2,2,2.1,2,2.1s-1.1-0.4-2.6-1.1c-0.8-0.4-1.6-0.8-2.5-1.4
	c-0.9-0.5-1.9-1.1-2.8-1.8c-0.9-0.6-1.8-1.3-2.7-2c-0.8-0.7-1.6-1.3-2.2-1.9l-0.8-0.8l-0.2-0.2c-0.1-0.1-0.2-0.2-0.2-0.3
	c-0.1-0.2-0.1-0.3-0.1-0.5c0-0.3,0-0.6,0.2-0.6C226.4,218,226.4,218.1,226.4,218L226.4,218z M247.5,236.2c0,0,0.3,0.1,0.8,0.2
	s1.3,0.4,2.1,0.7c0.9,0.3,1.8,0.8,2.9,1.4l1.5,0.9c0.5,0.3,1,0.7,1.5,1.1c0.5,0.4,1,0.8,1.4,1.2c0.5,0.4,0.9,0.8,1.3,1.2
	c0.8,0.8,1.5,1.6,2.1,2.4c1.1,1.5,1.7,2.6,1.7,2.6s-0.3-0.2-0.7-0.5c-0.4-0.3-1.1-0.8-1.8-1.3c-1.4-1.1-3.3-2.6-5.2-4
	c-1.9-1.4-3.8-2.9-5.3-4c-0.7-0.6-1.3-1-1.7-1.4C247.7,236.4,247.5,236.2,247.5,236.2L247.5,236.2z M270.3,248.8
	c0,0,0.1-0.3,0.4-0.7c0.2-0.4,0.6-1.1,1.1-1.8s1.1-1.5,1.9-2.3l1.2-1.2c0.4-0.4,0.9-0.7,1.3-1.1c0.5-0.3,0.9-0.7,1.4-1
	s1-0.6,1.4-0.9c0.9-0.5,1.8-1,2.6-1.3c1.6-0.7,2.8-0.8,2.8-0.8s-0.2,0.2-0.6,0.5s-0.9,0.8-1.6,1.3c-0.3,0.3-0.7,0.5-1.1,0.8
	l-1.2,0.9c-0.8,0.6-1.7,1.3-2.5,2c-0.9,0.7-1.7,1.4-2.5,2s-1.6,1.2-2.2,1.7c-0.7,0.5-1.2,0.9-1.6,1.2
	C270.5,248.7,270.3,248.8,270.3,248.8L270.3,248.8z M247.9,228.5h0.2c0.2,0,0.3-0.1,0.6-0.1c0.5-0.1,1.1-0.5,1.8-1.1
	c0.3-0.3,0.7-0.6,1-1s0.7-0.8,1.1-1.2c0.8-0.8,1.7-1.7,2.6-2.5s1.8-1.6,2.8-2.3c0.9-0.7,1.8-1.4,2.5-1.9c1.5-1.1,2.7-1.6,2.7-1.6
	s-0.7,1.1-1.9,2.5c-0.6,0.7-1.3,1.5-2.1,2.3c-0.8,0.8-1.7,1.7-2.6,2.5s-1.9,1.6-2.8,2.3s-1.8,1.4-2.7,1.8c-0.9,0.4-1.8,0.6-2.3,0.5
	c-0.3,0-0.5-0.1-0.6-0.2H247.9L247.9,228.5z M206,190.6c0,0,0.8-1.2,2.3-2.9c0.7-0.8,1.6-1.8,2.5-2.7c0.9-1,2-2,3-3
	c1.1-1,2.1-1.9,3.2-2.8c1-0.9,2-1.6,2.9-2.3c1.7-1.3,3-2,3-2s-0.8,1.2-2.3,2.9c-0.7,0.8-1.6,1.8-2.5,2.7c-0.9,1-2,2-3,2.9
	c-1.1,1-2.1,1.9-3.2,2.8c-1,0.9-2,1.6-2.9,2.3C207.3,189.8,206,190.6,206,190.6z M207.6,154.3c0,0,1.2,0.9,2.7,2.3
	c0.8,0.7,1.7,1.6,2.6,2.5s1.9,2,2.8,3c0.9,1.1,1.9,2.1,2.7,3.2c0.8,1,1.6,2,2.2,2.9c1.3,1.7,2,3,2,3s-1.2-0.8-2.8-2.2
	c-0.8-0.7-1.7-1.5-2.7-2.5c-1-0.9-1.9-2-2.9-3c-0.9-1.1-1.8-2.2-2.7-3.2c-0.8-1.1-1.6-2.1-2.1-3
	C208.2,155.6,207.6,154.3,207.6,154.3L207.6,154.3z M186.7,172.2c0,0,0.9-1.1,2.3-2.5c0.7-0.7,1.6-1.5,2.5-2.4s1.9-1.8,2.9-2.6
	c1-0.9,2-1.8,3-2.6s1.9-1.5,2.7-2.2c1.6-1.2,2.8-2,2.8-2s-0.7,1.2-2,2.8c-0.6,0.8-1.4,1.7-2.3,2.6c-0.4,0.5-0.9,0.9-1.4,1.4
	s-1,0.9-1.5,1.4c-1,0.9-2.1,1.7-3.1,2.5s-2,1.4-2.9,1.9C188,171.7,186.7,172.2,186.7,172.2L186.7,172.2z M228.9,170.4
	c0,0,0.2-0.3,0.5-0.9c0.3-0.6,0.9-1.4,1.6-2.3c0.7-0.9,1.6-1.9,2.5-2.9c1-1,2-2.1,3.1-3.1s2.2-2,3.2-2.9c0.5-0.5,1-0.9,1.5-1.3
	s0.9-0.8,1.3-1.2c0.8-0.7,1.5-1.4,2-1.8c0.5-0.4,0.8-0.7,0.8-0.7s-0.2,0.3-0.5,0.9c-0.3,0.6-0.8,1.4-1.5,2.3c-0.7,0.9-1.5,2-2.5,3
	c-0.5,0.5-1,1.1-1.5,1.6s-1.1,1-1.6,1.6c-1.1,1-2.2,2-3.3,2.9c-1.1,0.9-2.1,1.7-2.9,2.5c-0.9,0.7-1.6,1.3-2.1,1.7
	C229.2,170.2,228.9,170.4,228.9,170.4L228.9,170.4z M248.9,190c0,0,0.5-1.2,1.5-2.7c0.5-0.8,1.1-1.7,1.8-2.6
	c0.7-0.9,1.5-1.9,2.3-2.8c0.4-0.4,0.8-0.9,1.3-1.3c0.4-0.4,0.9-0.8,1.3-1.2c0.9-0.8,1.7-1.5,2.4-2c1.5-1.1,2.6-1.7,2.6-1.7
	s-0.7,1.1-1.8,2.5c-0.6,0.7-1.2,1.6-2,2.4c-0.7,0.9-1.5,1.8-2.3,2.7s-1.7,1.8-2.5,2.6s-1.6,1.5-2.2,2.2
	C249.9,189.2,248.9,190,248.9,190L248.9,190z M227.5,179.4l0.6,0.6c0.4,0.4,0.9,0.9,1.5,1.6c0.6,0.6,1.3,1.4,2,2.2s1.5,1.6,2.3,2.5
	l2.4,2.4l2.1,2.1c0.6,0.6,1.1,1.2,1.5,1.5l0.6,0.6c0,0-0.3-0.1-0.8-0.3s-1.2-0.5-2-0.9s-1.7-1-2.6-1.7c-0.4-0.4-0.9-0.7-1.3-1.1
	c-0.5-0.4-0.9-0.8-1.3-1.2s-0.8-0.9-1.2-1.4c-0.4-0.5-0.7-0.9-1.1-1.4c-0.6-0.9-1.2-1.8-1.6-2.7c-0.4-0.8-0.7-1.5-0.9-2
	C227.6,179.7,227.5,179.4,227.5,179.4L227.5,179.4z M229.5,211c0,0,0.3-1,1.1-2.4c0.4-0.7,0.9-1.5,1.5-2.3s1.3-1.6,2-2.4
	c0.4-0.4,0.7-0.8,1.1-1.1c0.4-0.4,0.8-0.7,1.2-1c0.8-0.6,1.5-1.2,2.2-1.6c1.3-0.9,2.4-1.2,2.4-1.2s-0.1,0.2-0.4,0.6
	c-0.3,0.4-0.7,0.9-1.2,1.5s-1.1,1.3-1.7,2s-1.3,1.5-2.1,2.2c-0.7,0.7-1.4,1.5-2.1,2.1c-0.7,0.7-1.3,1.3-1.9,1.8s-1.1,1-1.4,1.2
	C229.7,210.8,229.5,211,229.5,211L229.5,211z M248,200.2c0,0,0.3,0.1,0.8,0.2l0.9,0.3c0.4,0.1,0.7,0.4,1.2,0.6
	c0.4,0.2,0.8,0.5,1.3,0.9c0.4,0.3,0.9,0.7,1.3,1.1c0.8,0.8,1.7,1.7,2.4,2.7c0.8,0.9,1.5,1.9,2.1,2.8c0.4,0.4,0.7,0.9,1,1.2
	c0.3,0.4,0.6,0.7,0.9,1.1c0.3,0.3,0.6,0.6,0.8,0.9c0.3,0.3,0.4,0.4,0.6,0.4c0.1,0.1,0.2-0.2,0.1-0.3s-0.2,0-0.2,0s0-0.1,0.2,0
	c0.1,0,0.1,0.1,0.2,0.3c0.1,0.1,0,0.4-0.2,0.5c-0.4,0.2-0.8,0-1.1-0.2c-0.3-0.2-0.7-0.4-1.1-0.6c-0.8-0.5-1.6-1.2-2.5-2
	c-0.4-0.4-0.8-0.8-1.2-1.3c-0.4-0.4-0.8-0.9-1.2-1.4c-0.4-0.5-0.7-0.9-1.1-1.4c-0.4-0.4-0.7-0.9-1-1.3c-0.3-0.4-0.7-0.8-1-1.2
	s-0.6-0.7-0.9-1l-0.8-0.8c-0.3-0.2-0.5-0.5-0.7-0.6C248.3,200.4,248,200.2,248,200.2L248,200.2z M269.1,210.2c0,0,1-1.1,2.5-2.6
	c0.8-0.7,1.7-1.6,2.7-2.5s2.1-1.8,3.2-2.7s2.2-1.8,3.2-2.6s2-1.6,2.9-2.2c1.7-1.3,3-2,3-2s-0.8,1.2-2.2,2.9
	c-0.7,0.8-1.6,1.7-2.5,2.7c-0.5,0.5-1,1-1.5,1.4c-0.5,0.5-1.1,0.9-1.6,1.4c-1.1,0.9-2.2,1.8-3.3,2.6c-1.1,0.8-2.2,1.5-3.1,2
	C270.4,209.6,269.1,210.2,269.1,210.2L269.1,210.2z M271,221.3c0,0,0.3,0.2,0.7,0.4c0.4,0.3,1,0.7,1.7,1.2c0.3,0.2,0.7,0.5,1.1,0.8
	l1.2,0.9c0.8,0.6,1.7,1.2,2.6,1.9c0.9,0.6,1.8,1.2,2.6,1.8c0.4,0.3,0.8,0.6,1.2,0.8c0.4,0.3,0.8,0.5,1.1,0.8
	c0.7,0.5,1.3,0.9,1.7,1.2c0.4,0.3,0.6,0.5,0.6,0.5s-0.3,0-0.8-0.1s-1.2-0.2-2-0.5c-0.8-0.2-1.8-0.6-2.7-1.1c-0.5-0.3-1-0.5-1.5-0.8
	s-1-0.6-1.4-0.9c-0.5-0.3-0.9-0.7-1.4-1c-0.4-0.3-0.8-0.7-1.2-1.1c-0.8-0.7-1.4-1.5-2-2.2c-0.5-0.7-0.9-1.3-1.2-1.7
	C271.2,221.6,271,221.3,271,221.3L271,221.3z M290.6,226.6c0,0,0.4-1.2,1.4-2.8c0.5-0.8,1-1.7,1.7-2.7c0.7-0.9,1.4-1.9,2.2-2.8
	c0.4-0.5,0.8-0.9,1.2-1.4c0.4-0.4,0.8-0.9,1.3-1.3c0.8-0.8,1.6-1.5,2.4-2.1c1.4-1.2,2.6-1.8,2.6-1.8s-0.6,1.1-1.7,2.6
	c-0.5,0.7-1.2,1.6-1.9,2.5c-0.7,0.9-1.5,1.8-2.3,2.7s-1.6,1.8-2.4,2.6s-1.5,1.6-2.2,2.2C291.6,225.8,290.6,226.6,290.6,226.6
	L290.6,226.6z M289.5,240.3c0,0,1.2,0.4,2.7,1.2c0.8,0.4,1.7,0.9,2.6,1.5s1.9,1.3,2.8,2c0.4,0.4,0.9,0.7,1.3,1.1l1.2,1.2
	c0.8,0.8,1.5,1.5,2,2.2c1.1,1.4,1.7,2.4,1.7,2.4s-1.1-0.6-2.5-1.6c-0.7-0.5-1.5-1.1-2.4-1.7c-0.9-0.6-1.8-1.4-2.7-2.1
	c-0.9-0.7-1.8-1.5-2.6-2.2c-0.8-0.7-1.6-1.4-2.2-2C290.3,241.2,289.5,240.3,289.5,240.3L289.5,240.3z M310,246.6
	c0,0,0.5-1.1,1.5-2.5c0.5-0.7,1.1-1.5,1.7-2.3c0.7-0.8,1.4-1.7,2.2-2.5l2.3-2.3c0.8-0.7,1.5-1.4,2.2-1.9c1.3-1.1,2.3-1.7,2.3-1.7
	s-0.5,1.1-1.5,2.5c-0.5,0.7-1.1,1.5-1.7,2.3c-0.7,0.8-1.4,1.7-2.2,2.5l-2.3,2.3c-0.8,0.7-1.5,1.4-2.2,1.9
	C311.1,246,310,246.6,310,246.6z M307.6,214.8c0,0,1,0.6,2.4,1.6c0.7,0.5,1.5,1.1,2.3,1.8s1.6,1.5,2.4,2.3s1.6,1.6,2.3,2.4
	c0.7,0.8,1.3,1.6,1.8,2.3c0.3,0.3,0.5,0.7,0.7,1s0.4,0.6,0.5,0.7c0.1,0,0.1,0.1,0.1,0.1v-0.1c0-0.1-0.1,0-0.1,0v-0.1h0.2
	c0.1,0.1,0.2,0.1,0.1,0.3s-0.3,0.3-0.5,0.2c-0.2,0-0.3-0.1-0.5-0.2c-0.1-0.1-0.3-0.2-0.4-0.3c-0.3-0.2-0.6-0.4-1-0.7
	c-0.7-0.5-1.5-1.1-2.3-1.8s-1.6-1.5-2.4-2.3s-1.6-1.6-2.3-2.4c-0.7-0.8-1.3-1.6-1.8-2.3C308.1,215.8,307.6,214.8,307.6,214.8
	L307.6,214.8z M307,205.1c0,0,0.5-1,1.3-2.4c0.4-0.7,0.9-1.5,1.5-2.3s1.2-1.7,1.8-2.5c0.6-0.9,1.3-1.7,1.9-2.5s1.2-1.5,1.7-2.1
	c1.1-1.2,1.9-2,1.9-2s-0.3,1.1-0.9,2.6c-0.3,0.8-0.8,1.6-1.3,2.5c-0.3,0.4-0.5,0.9-0.8,1.3c-0.3,0.4-0.6,0.9-0.9,1.3
	c-0.6,0.9-1.3,1.7-2,2.5c-0.7,0.7-1.4,1.4-2,1.9C308,204.5,307,205.1,307,205.1z M320.4,192.9c0,0,0.9,0.7,2,1.8
	c0.6,0.6,1.2,1.3,1.9,2c0.7,0.8,1.3,1.6,2,2.5c0.6,0.9,1.2,1.7,1.8,2.6c0.5,0.8,1,1.7,1.4,2.4c0.8,1.4,1.1,2.5,1.1,2.5
	s-0.9-0.7-2-1.8c-0.6-0.6-1.2-1.3-1.9-2c-0.7-0.8-1.3-1.6-2-2.5c-0.6-0.9-1.2-1.8-1.8-2.6c-0.5-0.8-1-1.7-1.4-2.4
	C320.8,194,320.4,192.9,320.4,192.9z M322.9,222.5c0,0,0-0.8,0.2-1.9c0.2-1.1,0.7-2.5,1.4-3.8c0.7-1.3,1.5-2.5,2.3-3.3
	s1.4-1.2,1.4-1.2s-0.1,0.8-0.4,1.8s-0.9,2.4-1.5,3.6c-0.7,1.2-1.4,2.4-2.1,3.3C323.5,221.9,322.9,222.5,322.9,222.5L322.9,222.5z
	 M320.9,181.4c0,0,0.1-1,0.6-2.4c0.2-0.7,0.5-1.5,0.9-2.4c0.3-0.9,0.7-1.7,1.2-2.6c0.4-0.9,0.9-1.7,1.4-2.5s1-1.5,1.4-2.1
	c0.9-1.2,1.6-1.9,1.6-1.9s-0.1,1-0.6,2.4c-0.2,0.7-0.5,1.5-0.9,2.4c-0.3,0.9-0.7,1.7-1.2,2.6c-0.4,0.9-0.9,1.7-1.4,2.5
	s-1,1.5-1.4,2.1C321.6,180.7,320.9,181.4,320.9,181.4z M291.4,186.4c0,0,0.1-0.3,0.4-0.7s0.7-1.1,1.2-1.8s1.1-1.5,1.7-2.4
	s1.3-1.8,2-2.7s1.4-1.8,2.1-2.6s1.3-1.6,1.9-2.2c0.6-0.7,1.1-1.2,1.5-1.5l0.6-0.6c0,0-0.3,1.2-1.1,2.8c-0.4,0.8-0.9,1.7-1.5,2.6
	c-0.3,0.5-0.6,1-0.9,1.4c-0.3,0.5-0.7,0.9-1,1.4c-0.7,0.9-1.5,1.8-2.3,2.6s-1.5,1.5-2.2,2C292.4,185.8,291.4,186.4,291.4,186.4
	L291.4,186.4z M307.4,173c0,0,0.2,0.1,0.6,0.2c0.3,0.1,0.9,0.3,1.4,0.6c1.1,0.6,2.5,1.7,3.5,3c1.1,1.3,1.8,2.8,2.2,4.1
	c0.4,1.2,0.4,2.1,0.4,2.1l-0.4-0.4c-0.2-0.3-0.6-0.7-1-1.1c-0.8-0.9-1.8-2.1-2.7-3.3c-1-1.2-2-2.4-2.7-3.4c-0.4-0.5-0.7-0.9-0.9-1.2
	C307.5,173.2,307.4,173,307.4,173L307.4,173z M269.9,174.5c0,0,1,0.4,2.4,1.3c0.7,0.4,1.4,1,2.2,1.7c0.8,0.7,1.6,1.4,2.3,2.2
	c0.4,0.4,0.7,0.8,1.1,1.2l0.9,1.2c0.6,0.8,1.1,1.6,1.5,2.3c0.8,1.4,1.1,2.5,1.1,2.5s-0.2-0.2-0.6-0.5s-0.9-0.8-1.4-1.3l-1.9-1.9
	c-0.7-0.7-1.4-1.5-2.1-2.2c-0.7-0.8-1.4-1.6-2-2.3c-0.7-0.7-1.2-1.5-1.7-2.1s-0.9-1.2-1.2-1.6C270,174.7,269.9,174.5,269.9,174.5
	L269.9,174.5z M268.5,161.3c0.3,0.3,0.7,0.3,1.1,0.1c0.3-0.2,0.6-0.4,0.9-0.7c0.2-0.3,0.5-0.6,0.6-0.9l0.4-1.1
	c0.6-1.4,0.9-2.9,1.3-4.4l0.9-4.5c0.3-1.5,0.5-3,0.7-4.5c0.4-3,0.8-6.1,1.1-9.1c0.3-3.1,0.6-6.1,0.8-9.2c0.2-3.1,0.4-6.1,0.6-9.2
	c0.1-1.5,0.1-3,0.1-4.6c0-1.5-0.1-3-0.3-4.5c-0.3-3-0.7-6-1.4-8.9c-0.4-1.4-0.9-2.8-1.6-4.1c-0.7-1.2-1.6-2.3-2.7-2.7l1.3-0.8
	c-0.6,5.7-0.9,11.5-1.3,17.2c-0.3,5.8-0.6,11.5-0.8,17.3l-0.8,17.3C269.2,149.8,269,155.6,268.5,161.3L268.5,161.3z M268.5,161.3
	V144c0-5.8,0.1-11.6,0.2-17.3c0.1-5.8,0.3-11.6,0.5-17.3c0.1-2.9,0.3-5.8,0.4-8.7c0.1-1.4,0.2-2.9,0.3-4.3c0.1-1.4,0.3-2.9,0.4-4.3
	l0.1-1.2l1.2,0.4c0.9,0.3,1.7,0.9,2.3,1.5c0.6,0.6,1.1,1.4,1.5,2.1c0.8,1.5,1.3,3,1.7,4.5c0.8,3.1,1.2,6.2,1.4,9.3
	c0.1,1.6,0.2,3.1,0.2,4.7c0,1.6,0,3.1-0.1,4.7c-0.1,1.5-0.2,3.1-0.3,4.6c-0.1,1.5-0.3,3.1-0.4,4.6c-0.3,3.1-0.7,6.1-1.1,9.2
	c-0.4,3.1-0.9,6.1-1.4,9.1l-0.9,4.5c-0.3,1.5-0.7,3-1.1,4.5s-0.9,3-1.5,4.4l-0.5,1c-0.2,0.4-0.4,0.7-0.7,0.9c-0.3,0.3-0.6,0.5-1,0.6
	C269.3,161.7,268.8,161.6,268.5,161.3z M250.8,120.3c-0.6,1-0.9,2-1.1,3.1l-0.6,3.3c-0.3,2.2-0.4,4.4-0.2,6.6c0,1.1,0.2,2.1,0.5,3.2
	s0.6,2.1,0.9,3.1c0.7,2.1,1.6,4.1,2.5,6.1l2.7,6.1c0.2,0.5,0.5,1,0.7,1.5s0.5,0.9,0.8,1.4c0.5,0.9,1.1,1.8,1.8,2.6
	c1.3,1.7,2.9,3.1,4.7,4.3c1.8,1.2,3.7,2.2,5.7,3.1l-1.3,1.3c-1.7-3.7-3.4-7.5-5-11.2l-2.3-5.7c-0.8-1.9-1.5-3.8-2.2-5.7
	s-1.6-3.7-2.4-5.6c-0.8-1.9-1.6-3.8-2.3-5.7c-0.7-1.9-1.4-3.8-2-5.8c-0.3-1-0.6-2-0.8-3c-0.1-0.5-0.2-1-0.2-1.5
	C250.5,121.3,250.5,120.8,250.8,120.3L250.8,120.3z M250.8,120.3c-0.2,0.5-0.2,1-0.1,1.5l0.3,1.5c0.3,1,0.6,1.9,1,2.9
	c0.7,1.9,1.6,3.8,2.4,5.6c0.9,1.8,1.7,3.7,2.6,5.5s1.8,3.7,2.7,5.6l2.4,5.6l2.5,5.6c1.7,3.7,3.3,7.5,5.1,11.2l1.1,2.5l-2.5-1.2
	c-2-1-4.1-2-6-3.3s-3.7-2.9-5.1-4.7c-0.7-0.9-1.3-1.9-1.9-2.9c-0.3-0.5-0.5-1-0.8-1.6c-0.3-0.5-0.4-1-0.7-1.6l-2.5-6.2
	c-0.8-2.1-1.7-4.1-2.4-6.3c-0.3-1.1-0.6-2.2-0.8-3.3c-0.2-1.1-0.3-2.3-0.3-3.4c0-2.3,0.3-4.5,0.7-6.7c0.2-1.1,0.5-2.2,0.8-3.3
	C249.7,122.3,250.1,121.2,250.8,120.3L250.8,120.3z"/>
<path d="M291.7,120.6l0.5,1.7l0.4,1.7l0.3,1.7l0.3,1.7l0.2,1.8l0.1,1.8v1.8l-0.1,1.8l-0.2,1.8l-0.2,1.8l-0.3,1.7l-0.4,1.7l-0.5,1.7
	l-0.6,1.7l-0.7,1.7l-0.7,1.6l-0.8,1.6l-0.9,1.6c-0.6,1-1.3,2-2,2.9l-1.1,1.4l-1.2,1.4l-1.2,1.3l-1.3,1.2l-1.4,1.2l-1.4,1.1
	c-0.5,0.4-1,0.7-1.5,1s-1,0.6-1.5,1c-0.5,0.3-1.1,0.6-1.6,0.9c-0.5,0.3-1.1,0.5-1.6,0.8c-0.6,0.2-1.1,0.4-1.7,0.6l-1.8,0.5l-1.4,0.4
	l0.2-1.5c0.2-1.1,0.4-2.2,0.8-3.3c0.3-1.1,0.8-2.1,1.3-3c0.5-1,1-1.9,1.5-2.9c0.5-0.9,1.1-1.8,1.7-2.7c1.2-1.8,2.3-3.5,3.5-5.3
	c0.6-0.9,1.1-1.8,1.6-2.7l1.5-2.8l3-5.6l3.1-5.5C287.5,128,289.6,124.3,291.7,120.6L291.7,120.6z M291.7,120.6
	c-1.8,3.8-3.6,7.6-5.4,11.5l-2.8,5.7l-2.8,5.7l-1.4,2.8c-0.5,1-1,1.9-1.6,2.8c-1.1,1.8-2.3,3.6-3.3,5.4c-1.1,1.8-2.2,3.6-3,5.4
	c-0.4,0.9-0.8,1.9-1.1,2.8c-0.3,0.9-0.5,1.9-0.6,2.9l-1.2-1.1l1.6-0.5l1.6-0.6c0.5-0.2,1-0.4,1.5-0.7s1-0.5,1.5-0.8s1-0.6,1.4-0.9
	l1.4-1l1.3-1l1.3-1.1l1.2-1.2l1.2-1.2l1.1-1.3l1.1-1.3c0.7-0.9,1.4-1.8,2-2.8l0.9-1.4l0.9-1.5l0.8-1.5l0.7-1.6l0.6-1.6l0.5-1.6
	l0.5-1.6l0.4-1.7l0.3-1.7l0.2-1.7l0.2-1.7l0.1-1.7v-1.7l-0.1-1.7l-0.1-1.7l-0.2-1.7l-0.3-1.7L291.7,120.6L291.7,120.6z M292.3,153
	c0,0,1,0.6,2.3,1.7c0.7,0.5,1.4,1.2,2.2,2c0.8,0.8,1.5,1.6,2.3,2.4c0.7,0.9,1.4,1.8,2.1,2.6c0.6,0.9,1.2,1.7,1.6,2.5
	c0.9,1.5,1.3,2.6,1.3,2.6s-1-0.7-2.2-1.9l-2.1-2.1c-0.7-0.8-1.5-1.6-2.2-2.5s-1.4-1.7-2.1-2.6c-0.6-0.8-1.2-1.6-1.7-2.4
	C292.8,154.1,292.3,153,292.3,153L292.3,153z M311,164.5c0,0,0.5-1.2,1.5-2.9c0.5-0.8,1.1-1.8,1.7-2.8c0.7-1,1.4-2,2.2-3
	c0.8-1,1.6-2,2.4-2.9s1.5-1.7,2.2-2.4c1.4-1.4,2.4-2.2,2.4-2.2s-0.5,1.2-1.5,2.9c-0.5,0.8-1.1,1.8-1.7,2.8c-0.7,1-1.4,2-2.2,3
	c-0.8,1-1.6,2-2.4,2.9s-1.5,1.7-2.2,2.4C312.1,163.7,311,164.5,311,164.5z M148.3,166.9c0,0,0.2-0.2,0.5-0.6c0.4-0.4,0.9-1,1.5-1.6
	s1.4-1.4,2.2-2.1c0.8-0.8,1.7-1.6,2.5-2.4c0.9-0.8,1.8-1.6,2.6-2.3c0.8-0.7,1.6-1.4,2.3-2c0.7-0.6,1.3-1,1.7-1.3
	c0.4-0.3,0.7-0.5,0.7-0.5s-0.5,1.1-1.6,2.6c-0.5,0.8-1.2,1.6-1.9,2.4c-0.4,0.4-0.8,0.9-1.2,1.3c-0.4,0.4-0.9,0.8-1.3,1.3
	c-0.9,0.8-1.8,1.6-2.8,2.3c-0.9,0.7-1.8,1.3-2.6,1.7C149.5,166.5,148.3,166.9,148.3,166.9L148.3,166.9z M141.4,165.4
	c0,0-1.2-0.6-2.7-1.7c-0.8-0.6-1.6-1.3-2.5-2.1c-0.4-0.4-0.9-0.8-1.3-1.3c-0.4-0.4-0.8-0.9-1.3-1.4l-1.2-1.5c-0.4-0.5-0.7-1-1.1-1.5
	c-0.7-1-1.2-1.9-1.6-2.8c-0.9-1.7-1.3-2.9-1.3-2.9l0.6,0.6c0.4,0.4,0.9,1,1.6,1.7c0.6,0.7,1.4,1.5,2.1,2.4c0.8,0.9,1.6,1.8,2.4,2.8
	c0.8,0.9,1.6,1.9,2.3,2.8c0.7,0.9,1.4,1.7,2,2.5c0.6,0.7,1,1.4,1.4,1.8C141.3,165.1,141.4,165.4,141.4,165.4L141.4,165.4z
	 M127.3,177.5c0,0,0.6,0.5,1.3,1.3s1.6,1.9,2.3,3.1c0.7,1.2,1.3,2.4,1.7,3.5c0.4,1,0.5,1.8,0.5,1.8s-0.7-0.4-1.5-1.1
	c-0.8-0.7-1.7-1.8-2.5-3.1c-0.7-1.2-1.3-2.5-1.6-3.6C127.3,178.2,127.3,177.5,127.3,177.5z M136.2,182.9c0,0,0-0.9,0.2-2.1
	c0.2-1.2,0.8-2.8,1.5-4.2s1.7-2.8,2.5-3.7s1.5-1.4,1.5-1.4s-0.1,0.9-0.5,2c-0.4,1.2-1,2.6-1.7,4s-1.5,2.8-2.2,3.7
	C136.8,182.2,136.2,182.9,136.2,182.9z M128.4,208.9c0,0,0.6,0.4,1.3,1.1c0.7,0.7,1.6,1.7,2.3,2.9c0.7,1.1,1.2,2.3,1.5,3.3
	s0.4,1.7,0.4,1.7s-0.6-0.4-1.3-1.1c-0.7-0.7-1.6-1.7-2.3-2.9c-0.7-1.1-1.2-2.3-1.5-3.3C128.5,209.7,128.4,208.9,128.4,208.9
	L128.4,208.9z M183.5,244.6c0,0,0.1-0.2,0.4-0.5s0.7-0.8,1.2-1.3s1-1.1,1.7-1.8c0.6-0.6,1.3-1.3,1.9-2c0.7-0.7,1.3-1.3,2-1.9
	c0.6-0.6,1.2-1.2,1.8-1.6c0.5-0.5,1-0.9,1.3-1.1c0.3-0.3,0.5-0.4,0.5-0.4s-0.3,1-1,2.3c-0.3,0.7-0.8,1.4-1.4,2.1
	c-0.3,0.4-0.6,0.7-0.9,1.1c-0.3,0.4-0.7,0.7-1,1.1c-0.4,0.3-0.7,0.7-1.1,1s-0.7,0.6-1.1,0.9c-0.7,0.5-1.5,1-2.1,1.3
	C184.5,244.3,183.5,244.6,183.5,244.6L183.5,244.6z"/>
<path d="M124.5,175.8l2.4,0.3c1.5,0.2,3.8,0.4,6.7,0.6c5.8,0.5,14.1,0.9,24,0.5c1.2-0.1,2.5-0.1,3.8-0.2c0.6-0.1,1.3-0.1,1.9-0.1
	c0.7-0.1,1.3-0.1,2-0.2c2.7-0.3,5.4-0.6,8.3-0.9c5.6-0.5,11.6-1.3,17.8-1.9c6.2-0.7,12.6-1.3,19.1-1.9c6.5-0.6,13.1-1.1,19.8-1.5
	c6.6-0.4,13.3-0.8,19.8-1c6.5-0.3,13-0.3,19.2-0.3c12.5,0,24.1,0.5,34,1.4c2.5,0.2,4.9,0.4,7.1,0.6c2.3,0.2,4.4,0.5,6.4,0.7
	c4,0.4,7.5,0.7,10.4,0.8s5.2,0.1,6.7,0c1.6-0.1,2.4-0.1,2.4-0.1l-2.4,0.3c-1.5,0.2-3.8,0.4-6.7,0.4c-2.9,0.1-6.5,0-10.5-0.3
	c-4-0.2-8.6-0.5-13.6-0.7s-10.3-0.4-16-0.5s-11.7,0-17.9,0c-3.1,0.1-6.3,0.1-9.4,0.2c-3.2,0.1-6.4,0.2-9.7,0.4
	c-6.5,0.3-13.1,0.6-19.7,1.1c-6.6,0.4-13.2,0.9-19.7,1.4c-6.5,0.6-12.9,1.1-19.1,1.6s-12.2,1.1-17.9,1.6c-2.8,0.2-5.6,0.4-8.3,0.6
	c-0.7,0-1.3,0.1-2,0.1c-0.7,0.1-1.3,0.1-2,0.1c-1.3,0-2.6,0.1-3.8,0.1c-5,0.1-9.6-0.2-13.6-0.5s-7.6-0.7-10.4-1.1
	c-2.9-0.4-5.1-0.8-6.7-1L124.5,175.8L124.5,175.8z M137.5,225.1c0,0,0.2,0.2,0.4,0.6c0.3,0.4,0.6,0.9,1,1.5s0.9,1.3,1.3,2.1
	c0.5,0.8,1,1.6,1.4,2.4c0.5,0.8,1,1.7,1.4,2.4c0.4,0.8,0.8,1.5,1.2,2.2l0.8,1.6l0.3,0.6c0,0-0.9-0.5-2-1.6c-0.6-0.5-1.1-1.2-1.7-1.9
	c-0.3-0.4-0.6-0.7-0.9-1.2c-0.3-0.4-0.5-0.8-0.8-1.3c-0.2-0.4-0.5-0.9-0.7-1.3c-0.2-0.4-0.4-0.9-0.6-1.3c-0.3-0.9-0.6-1.7-0.8-2.4
	C137.5,226.1,137.5,225.1,137.5,225.1L137.5,225.1z"/>
<path d="M187.8,176.6c0,0,0.1,0,0.2,0.1c0.1,0,0.3,0.1,0.6,0.2c0.5,0.2,1.2,0.6,1.8,1.1c0.7,0.6,1.4,1.3,2.1,2.1s1.4,1.6,2.1,2.5
	s1.4,1.7,2,2.6c0.6,0.8,1.2,1.6,1.7,2.3c1,1.4,1.6,2.4,1.6,2.4s-1-0.5-2.4-1.6c-0.7-0.5-1.4-1.2-2.2-2c-0.4-0.4-0.8-0.8-1.1-1.2
	c-0.4-0.4-0.7-0.9-1.1-1.3c-0.7-0.9-1.4-1.8-2-2.7s-1.1-1.7-1.5-2.4c-0.5-0.7-0.9-1.2-1.2-1.6C188,176.8,187.8,176.6,187.8,176.6
	L187.8,176.6z"/>
</svg>
