<?xml version="1.0" encoding="utf-8"?>
<!-- Generator: Adobe Illustrator 19.2.0, SVG Export Plug-In . SVG Version: 6.00 Build 0)  -->
<svg version="1.1" id="Layer_1" xmlns="http://www.w3.org/2000/svg" xmlns:xlink="http://www.w3.org/1999/xlink" x="0px" y="0px"
	 viewBox="0 0 700 700" style="enable-background:new 0 0 700 700;" xml:space="preserve">
<style type="text/css">
	.st0{fill:none;}
	.st1{fill:none;stroke:#000000;stroke-width:5;stroke-miterlimit:10;}
	.st2{opacity:0.9;fill:url(#SVGID_1_);}
	.st3{fill:url(#SVGID_2_);}
</style>
<rect x="0" y="0" class="st0" width="700" height="700"/>
<path class="st1" d="M6708.6-568.1c0.3,38.5,0.2,82.4-5.7,120.5c-2.3,14.7-3.7,31.7-10.6,44.9c-9.4,17.9-18.6,35.9-34,49.5
	c-5.5,4.9-11.5,9.2-17.9,12.8c-4.2,2.3-15.3,5.1-15.9,10.8c-0.4,3.6,3.8,5.7,6.9,7.6c6.9,4.3,10.9,12.3,11.6,20.4
	c1.5,15.4-5.6,30.7-18.9,38.8c-0.8,0.5-1.6,1-1.9,1.8c-0.7,2.1,2.1,3.4,4.2,3.8c12.1,2.1,24,5,35.7,8.7c7.7,2.4,24.3,10.6,12,18.5
	c-7.7,4.9-17,6.2-26,7.3c-24.7,3.1-49.7,6.2-74.5,3.9c-5.6-0.5-11.2-1.4-16.8-2.2c-7.5-1.1-15-2.2-22.5-3.3
	c-5.3-0.8-11.8-2.7-12.7-7.9c-1.7-10.2,16.6-15.1,23.6-17.2c4.9-1.5,36.5-4.6,35.6-9.3c-0.5-2.4-2.8-3.9-4.8-5.4
	c-8.9-6.4-15-16.4-16.6-27.2c-1.6-10.8,1.3-22.2,7.9-30.9c2.2-2.9,4.9-6,4.4-9.6c-0.2-1.5-1-2.9-2-4.1c-5.1-6.7-15.9-9.5-22.8-14.7
	c-7.9-6-15.2-12.8-21.6-20.4c-12.5-14.5-22.1-31.5-27.6-49.9c-5.2-17.2-6.9-35.3-8.2-53.2c-2.3-31-3.6-62-3.8-93.1
	c20.2-2.4,42-1.8,62.4-1.4C6600.9-567.5,6708.6-570.2,6708.6-568.1z"/>
<g>
	<path d="M6582-253.2c0,0,0,0.2,0,0.5c0,0.3,0,0.8,0,1.4c0,0.6,0.1,1.3,0.6,1.9c0.4,0.6,1.2,0.8,2.2,0.8c2.1-0.1,4.5-0.2,7.1-0.2
		c1.3,0,2.7-0.1,4-0.1c1.4-0.1,2.8-0.1,4.1-0.2c1.4-0.1,2.8-0.1,4.1-0.2c1.4-0.1,2.7-0.1,4-0.2c2.6-0.1,5-0.2,7.1-0.3
		c2-0.1,3.7-0.6,4.6-1.3c0.4-0.4,0.7-0.8,0.8-1.1c0.1-0.3,0.2-0.5,0.2-0.5s0,0.2,0,0.5c-0.1,0.3-0.2,0.8-0.6,1.3
		c-0.4,0.5-1.1,1-1.9,1.4c-0.8,0.4-1.8,0.7-2.8,0.8c-2.1,0.4-4.5,0.7-7.1,0.9c-1.3,0.1-2.7,0.3-4,0.4c-1.4,0.1-2.8,0.2-4.2,0.2
		c-1.4,0-2.8,0.1-4.2,0.1c-1.4,0-2.7,0-4.1,0c-2.6-0.1-5.1-0.2-7.2-0.4c-0.5-0.1-1.1-0.1-1.6-0.4c-0.5-0.3-0.9-0.7-1.1-1.1
		c-0.4-0.9-0.4-1.7-0.3-2.3c0.1-0.6,0.2-1.1,0.3-1.4C6581.9-253,6582-253.2,6582-253.2z"/>
</g>
<g>
	<path d="M6581.6-337.8c0,0,0.6,0.2,1.6,0.5c0.5,0.2,1.2,0.3,1.9,0.5c0.7,0.2,1.6,0.4,2.4,0.5c0.9,0.2,1.9,0.3,2.9,0.5
		c1,0.1,2.1,0.2,3.3,0.3c1.1,0.1,2.3,0.1,3.5,0.2c1.2,0,2.4,0,3.6,0c1.2,0,2.5,0,3.7-0.1c1.2,0,2.4-0.1,3.6-0.1
		c2.3-0.1,4.5-0.1,6.3-0.3c1.8-0.2,3.2-0.6,4.1-1.2c0.4-0.3,0.8-0.6,1-0.8c0.2-0.2,0.3-0.3,0.3-0.3s-0.1,0.1-0.2,0.4
		c-0.2,0.3-0.4,0.6-0.8,1c-0.8,0.8-2.3,1.6-4.2,2c-0.9,0.2-2,0.4-3,0.5c-1.1,0.1-2.2,0.3-3.3,0.4c-1.2,0.1-2.4,0.2-3.6,0.3
		c-1.2,0.1-2.5,0.1-3.7,0.2c-1.3,0-2.5,0-3.7-0.1c-0.6,0-1.2-0.1-1.8-0.1c-0.6-0.1-1.2-0.1-1.8-0.2c-1.2-0.1-2.3-0.4-3.4-0.6
		c-0.5-0.1-1-0.3-1.5-0.4c-0.5-0.2-1-0.3-1.4-0.4c-1.8-0.6-3.2-1.3-4.2-1.8C6582.2-337.5,6581.6-337.8,6581.6-337.8z"/>
</g>
<g>
	<path d="M6531.5-235.7c0,0,0.1,0.1,0.3,0.3c0.2,0.2,0.5,0.4,1,0.6c0.9,0.5,2.3,1,4.2,1.4c1.9,0.4,4.2,0.7,6.8,1.1
		c2.6,0.4,5.6,0.7,8.9,1.1c3.3,0.3,6.8,0.7,10.6,1c3.7,0.3,7.7,0.5,11.8,0.7c8.2,0.3,17,0.5,25.7,0.6c4.4,0.1,8.8,0.1,13.1,0.2
		c4.3,0,8.5,0.1,12.6,0c4.1-0.1,8-0.4,11.7-0.8c3.7-0.5,7.2-1.1,10.4-1.7c6.4-1.4,11.6-3,15.2-4.3c1.8-0.7,3.2-1.2,4.2-1.6
		c1-0.4,1.5-0.6,1.5-0.6s-0.5,0.2-1.4,0.7c-0.9,0.4-2.3,1.1-4.1,1.8c-3.5,1.5-8.7,3.5-15.1,5.1c-6.4,1.6-14.1,2.9-22.3,3.2
		c-4.1,0.2-8.4,0.2-12.7,0.2c-4.3,0-8.7-0.1-13.1-0.1c-4.4-0.1-8.8-0.2-13.1-0.3c-4.3-0.1-8.6-0.4-12.7-0.6c-4.1-0.3-8.1-0.6-11.8-1
		c-3.8-0.4-7.3-0.8-10.6-1.3c-1.6-0.3-3.2-0.5-4.7-0.7c-1.5-0.3-2.9-0.5-4.2-0.8c-2.6-0.5-4.9-1-6.8-1.5c-1.9-0.5-3.3-1.1-4.1-1.7
		c-0.4-0.3-0.7-0.5-0.9-0.7C6531.6-235.6,6531.5-235.7,6531.5-235.7z"/>
</g>
<linearGradient id="SVGID_1_" gradientUnits="userSpaceOnUse" x1="6498.813" y1="-446.2358" x2="6704.6909" y2="-446.2358">
	<stop  offset="1.785714e-02" style="stop-color:#801FE3"/>
	<stop  offset="1" style="stop-color:#B7A7FF"/>
</linearGradient>
<path class="st2" d="M6498.8-539.9c1.4,24.4,2.7,48.8,4.1,73.2c0.4,7.9,0.9,15.9,2.2,23.7c1.8,11.1,5.4,21.8,8.9,32.5
	c3,9.1,6,18.2,11.1,26.3c17.8,28.1,51.5,32.7,81.9,31.3c10.6-0.5,21.3-1.5,31.5-4.7c66.9-21.3,65.2-117,66.1-172.7
	c0-2.6,0.1-5.1,0.1-7.7C6636-535.8,6567.2-534,6498.8-539.9z"/>
<g>
	<path d="M6493.7-559.6c0,0,0.6,8.1,1.5,22.2c0.5,7.1,1,15.6,1.7,25.5c0.6,9.8,1.4,20.9,2.1,33.1c0.4,6.1,0.7,12.4,1.3,18.9
		c0.5,6.5,1.4,13.2,3,19.9c1.6,6.7,3.7,13.5,6,20.4c2.4,6.9,4.5,14,7.5,20.9c0.8,1.7,1.5,3.4,2.4,5.1c0.9,1.6,1.8,3.3,2.8,4.8
		c1.1,1.6,2.2,3.1,3.4,4.7c1.2,1.4,2.5,2.8,3.7,4.3c5.3,5.5,11.7,10,18.8,13.2c7.1,3.3,14.8,5.4,22.6,6.6c7.9,1.3,15.9,1.7,23.9,1.7
		c8-0.1,16.1-0.4,24-1.5c3.9-0.5,7.9-1.2,11.7-2.2c1-0.3,1.9-0.5,2.8-0.8l0.7-0.2c0.1,0,0,0,0.1,0l0.2-0.1l0.4-0.1l1.4-0.5l2.8-1
		c0.5-0.2,0.9-0.3,1.4-0.5l1.3-0.6c7.1-3.1,13.7-7.4,19.4-12.5c5.7-5.1,10.5-11.1,14.4-17.5c4-6.3,7.1-13.1,9.7-19.8
		c2.6-6.8,4.6-13.6,6.3-20.3c3.2-13.5,5-26.5,6.2-38.5c1.1-12.1,1.7-23.2,2-33c0.3-9.9,0.5-18.4,0.7-25.5
		c0.2-14.2,0.4-22.2,0.4-22.2s0,2,0.1,5.8c0,3.8,0.1,9.4,0.2,16.4c0,7.1,0,15.7-0.2,25.5c-0.1,9.9-0.5,21-1.5,33.1
		c-1,12.1-2.6,25.2-5.7,38.9c-1.6,6.8-3.6,13.7-6.1,20.6c-2.5,6.9-5.7,13.8-9.8,20.3c-4,6.5-9,12.7-14.8,18.1
		c-5.9,5.4-12.7,9.8-20.2,13.1l-1.4,0.6c-0.5,0.2-0.9,0.4-1.4,0.5l-2.8,1l-1.4,0.5l-0.4,0.1l-0.2,0.1l-0.2,0.1l-0.7,0.2
		c-1,0.3-2,0.6-2.9,0.8c-3.9,1-8,1.8-12,2.4c-8.1,1.1-16.2,1.5-24.4,1.6c-8.2,0-16.3-0.5-24.4-1.8c-8-1.3-16-3.5-23.3-7
		c-7.4-3.4-14.1-8.1-19.6-13.9c-1.3-1.5-2.6-3.1-3.9-4.6c-1.1-1.6-2.2-3.2-3.3-4.7c-2.2-3.4-3.9-6.8-5.4-10.4
		c-3-7.1-5.2-14.2-7.5-21.2c-2.2-7-4.3-13.9-5.8-20.7c-1.6-6.9-2.4-13.6-2.8-20.2c-0.5-6.6-0.7-12.9-1-18.9
		c-0.6-12.1-1.1-23.2-1.6-33.1c-0.5-9.9-0.8-18.4-1.2-25.5C6494-551.6,6493.7-559.6,6493.7-559.6z"/>
</g>
<g>
	<path d="M6494.1-544.2c0,0,0.8,0,2.4,0.1c1.6,0.1,3.8,0.2,6.7,0.3c2.9,0.2,6.4,0.3,10.5,0.5c4,0.2,8.6,0.3,13.6,0.5
		c5,0.2,10.4,0.3,16.1,0.5c5.7,0.2,11.7,0.2,17.9,0.4c6.2,0.1,12.6,0.1,19.2,0.2c6.5,0.1,13.2,0,19.8,0.1c6.6,0,13.3,0,19.8-0.1
		c6.5-0.1,13-0.1,19.2-0.2c12.5-0.1,24.1-0.2,34-0.3c10-0.1,18.3-0.1,24.1-0.1c2.9,0,5.2,0,6.7,0c1.6,0,2.4,0,2.4,0
		s-0.8,0.1-2.4,0.2c-1.6,0.1-3.8,0.2-6.7,0.4c-5.8,0.3-14.1,0.8-24.1,1.3c-10,0.5-21.6,0.9-34,1.3c-6.2,0.1-12.7,0.4-19.2,0.4
		c-6.5,0.1-13.2,0.1-19.8,0.2c-6.6,0-13.3,0-19.8-0.2c-6.5-0.1-13-0.3-19.2-0.4c-6.2-0.2-12.3-0.4-18-0.8c-2.9-0.2-5.6-0.3-8.3-0.5
		c-2.7-0.2-5.3-0.4-7.8-0.5c-2.5-0.2-4.9-0.3-7.1-0.5c-2.3-0.2-4.4-0.4-6.4-0.6c-4-0.4-7.6-0.7-10.4-1c-2.9-0.3-5.2-0.6-6.7-0.7
		C6494.9-544.1,6494.1-544.2,6494.1-544.2z"/>
</g>
<g>
	<path class="st1" d="M463.5,409c0.5,35.5,1.3,68.9-0.1,104.3c-0.5,13.6,1.2,27.1-0.2,40.7c-3.6,34.8,0.2,71,1.5,105.9
		c0.2,6-1.3,11.5-3.9,16.9c-5.8,12.3-19.5,16.3-32.5,17.7c-22.2,2.5-44.5,4-66.9,4.7c-20.8,0.6-43.4,1.9-63.9-1.1
		c-10.5-1.5-22.1-4.1-32.2-6.9c-9.6-2.7-20.5-10.2-24.7-19.1c-2.9-6-3-12.8-3.1-19.5c-0.4-26.5-2.2-52.6-0.6-79.1
		c1.6-25.6-1.7-48.8-0.6-74.5c1.2-28.7,0.8-57.4-1.2-86c-0.1-2,2.4-2,4.4-2C257,411.7,427.1,408.1,463.5,409z"/>
	<radialGradient id="SVGID_2_" cx="351.8778" cy="619.8365" r="81.9108" gradientUnits="userSpaceOnUse">
		<stop  offset="0" style="stop-color:#EF9120"/>
		<stop  offset="1" style="stop-color:#943E00"/>
	</radialGradient>
	<path class="st3" d="M445.7,656.3c13.7-10.7,12.8-32,11.7-47.5c-0.4-5.2-0.6-17.5-0.7-33.4c-8.6,0.9-17.3-0.1-26-0.8
		c-43.9-3.5-88,0.3-131.8,4.8c-4.9,0.5-9.8,1-14.7,1.3c-12.8,0.8-25.7-0.1-38.4-2c0,0-0.1,0-0.1,0c0.2,11.9,0.5,23.9,0.6,36
		c0.1,10,0.3,20.5,4.6,29.5c4.6,9.7,14.1,17,24.7,19c23.1,4.4,47.5,2.2,70.9,2.3c6.4,0,12.8,0,19.2,0.1c14.7,0,29.4,0.1,44-1.5
		C420.9,663.2,436.5,663.6,445.7,656.3z"/>
	<g>
		<path d="M242.8,415.5c0,0,0.2,2.6,0.5,7.5c0.3,4.9,0.7,12,1,21.1c0.4,9.1,0.7,20.1,0.8,32.8c0.1,6.3,0.1,13.1,0.1,20.2
			c0,7.1-0.2,14.6-0.3,22.4c-0.2,15.6,0,32.5,0.4,50.3c0.2,8.9,0.4,18.1,0.6,27.5c0.1,4.7,0.2,9.4,0.2,14.2
			c0.1,4.8,0.2,9.6,0.8,14.3c0.6,4.7,1.8,9.4,4,13.7c2.1,4.3,5.3,8,9.1,11c3.8,3,8.2,5.2,12.9,6.4c0.6,0.1,1.2,0.3,1.8,0.4l1.9,0.3
			c1.3,0.2,2.5,0.4,3.7,0.6c2.5,0.4,5,0.6,7.5,0.9c20.2,1.8,41.1,0.1,61.9,0.3c10.4,0,20.8,0.2,31.1,0c5.2-0.1,10.3-0.2,15.4-0.5
			c2.6-0.1,5.1-0.3,7.7-0.5c2.6-0.2,5.1-0.5,7.7-0.7c5.1-0.4,10.2-0.7,15.1-1.4c4.9-0.8,9.8-1.9,13.9-4.2
			c8.5-4.8,12.5-14.3,13.8-23.7c0.7-4.7,0.8-9.5,0.7-14.2c0-2.4-0.2-4.7-0.3-7.1c-0.1-1.2-0.1-2.4-0.2-3.6c0-1.2-0.1-2.4-0.1-3.5
			c-0.3-9.4-0.3-18.6-0.4-27.5c-0.1-17.9,0-34.8,0.2-50.4c0.1-15.6,0.3-29.9,0.6-42.6c0.2-12.7,0.5-23.7,0.7-32.8
			c0.2-9.1,0.5-16.2,0.7-21.1c0.1-2.4,0.2-4.3,0.3-5.6c0.1-1.3,0.1-1.9,0.1-1.9s0,0.6-0.1,1.9c0,1.3-0.2,3.1-0.2,5.6
			c-0.1,4.9-0.2,12-0.3,21.1c-0.1,9.1-0.1,20.1-0.2,32.8c0,12.7,0,27,0,42.6c0,15.6,0.1,32.5,0.3,50.3c0.1,8.9,0.3,18.1,0.6,27.4
			c0.5,9.3,1.4,19,0,28.9c-0.1,1.2-0.4,2.5-0.6,3.7c-0.2,1.2-0.6,2.4-0.9,3.7c-0.4,1.2-0.8,2.4-1.2,3.6c-0.5,1.2-0.9,2.4-1.6,3.5
			l-0.9,1.7c-0.3,0.6-0.7,1.1-1.1,1.6c-0.4,0.5-0.7,1.1-1.2,1.6l-1.3,1.5c-0.2,0.2-0.4,0.5-0.7,0.7l-0.7,0.6l-1.4,1.2l-0.2,0.2
			c0,0-0.2,0.2-0.3,0.2l-0.4,0.3l-0.8,0.6c-0.5,0.4-1.1,0.7-1.7,1c-4.6,2.6-9.8,3.8-14.8,4.6c-5.1,0.8-10.2,1.1-15.3,1.5
			c-2.5,0.2-5.1,0.5-7.7,0.7c-2.6,0.2-5.2,0.4-7.7,0.6c-5.2,0.3-10.4,0.4-15.5,0.5c-10.4,0.1-20.8,0.1-31.2,0.1
			c-20.7-0.3-41.6,1.4-62.1-0.6c-2.6-0.3-5.1-0.5-7.7-0.9c-1.3-0.2-2.5-0.4-3.8-0.6l-1.9-0.3c-0.7-0.1-1.3-0.3-1.9-0.4
			c-5.1-1.3-9.9-3.7-14-6.9c-4.1-3.2-7.4-7.3-9.7-11.9c-2.3-4.6-3.5-9.6-4.2-14.5c-0.6-4.9-0.8-9.8-0.8-14.6c0-4.8-0.1-9.5-0.1-14.2
			c-0.1-9.4-0.2-18.6-0.4-27.5c-0.2-17.9-0.3-34.8,0.1-50.4c0.5-15.6,0.8-29.9,0.8-42.5c0-12.7-0.1-23.7-0.3-32.8
			c-0.2-9.1-0.4-16.2-0.6-21.1C242.9,418.1,242.8,415.5,242.8,415.5z"/>
	</g>
	<g>
		<path d="M299.4,487.8c0,1.4-0.3,2.7-0.6,4.1c-0.4,1.3-0.9,2.6-1.4,3.9c-1,2.6-2.1,5.1-2.6,7.7c-1,5.3-1.5,10.8-1.5,16.2
			c0.1,5.4,0.2,10.9,1,16.3c0.4,2.7,0.9,5.3,1.7,7.8c0.4,1.3,0.9,2.5,1.5,3.6c0.6,1.1,1.4,2.1,2.4,2.7l-1.5,0.8l0.3-3.9l0.2-3.9
			c0.1-2.6,0.2-5.2,0.2-7.9c0.1-2.6,0.1-5.2,0.1-7.9l0-7.9l-0.1-15.8l0-7.9C299.2,493,299.3,490.4,299.4,487.8z M299.4,487.8
			c0.2,5.3,0.5,10.5,0.8,15.8c0.3,5.3,0.5,10.5,0.7,15.8c0.2,5.3,0.3,10.5,0.3,15.8c0,2.6-0.1,5.3-0.2,7.9l-0.2,4l-0.3,4l-0.1,1.7
			l-1.4-0.9c-1.3-0.9-2.3-2.1-3-3.4c-0.7-1.3-1.3-2.6-1.7-4c-0.9-2.7-1.4-5.4-1.7-8.2c-0.7-5.5-0.8-11-0.7-16.5
			c0.1-5.5,0.8-11,2.1-16.4c0.3-1.4,0.8-2.7,1.4-3.9c0.5-1.3,1.1-2.5,1.7-3.8c0.6-1.2,1.1-2.5,1.6-3.8
			C298.9,490.5,299.3,489.1,299.4,487.8z"/>
	</g>
	<g>
		<path d="M302.8,563.3l-2.2-3.5l-2.1-3.5c-1.4-2.3-2.7-4.7-4-7.1c-1.3-2.4-2.5-4.8-3.8-7.2c-1.2-2.4-2.4-4.9-3.5-7.3
			c-1.1-2.5-2.3-4.9-3.3-7.4c-1.1-2.5-2.1-5-3.1-7.5l-1.5-3.8L278,512c-0.9-2.6-1.8-5.1-2.7-7.7l1.9-0.2c-0.4,2.9-0.7,5.7-0.9,8.6
			c-0.2,2.9-0.2,5.8,0,8.6c0.1,1.4,0.2,2.9,0.4,4.3c0.2,1.4,0.4,2.8,0.7,4.3c0.3,1.4,0.6,2.8,1,4.2c0.4,1.4,0.9,2.7,1.4,4.1
			c0.5,1.3,1.1,2.6,1.8,3.9c0.7,1.3,1.4,2.5,2.2,3.7c0.8,1.2,1.6,2.4,2.5,3.5c0.9,1.1,1.9,2.2,2.9,3.1c1,1,2.1,1.9,3.3,2.8
			c1.2,0.8,2.3,1.8,3.4,2.8c1.1,1,2.1,2,3.2,2.9C300.2,562,301.5,562.8,302.8,563.3z M302.8,563.3c-1.4-0.4-2.7-1.1-3.9-2
			c-1.2-0.9-2.3-1.8-3.4-2.8c-1.1-1-2.2-1.8-3.5-2.6c-1.2-0.8-2.4-1.7-3.5-2.7c-4.5-3.9-7.9-8.9-10.2-14.4c-0.6-1.4-1.1-2.8-1.6-4.2
			c-0.4-1.4-0.8-2.9-1.1-4.3c-0.3-1.4-0.6-2.9-0.8-4.4c-0.2-1.5-0.4-2.9-0.4-4.4c-0.4-5.9,0-11.9,0.9-17.7l0.6-4.2l1.3,4
			c0.8,2.6,1.7,5.1,2.6,7.7c0.9,2.5,1.8,5.1,2.8,7.6c1,2.5,1.9,5,3,7.6l1.5,3.8l1.6,3.7c1.1,2.5,2.2,4.9,3.3,7.4l1.7,3.7l1.8,3.7
			c1.2,2.4,2.4,4.9,3.6,7.3L302.8,563.3z"/>
	</g>
	<g>
		<path d="M319.8,507.4c1.2,4.6,2.2,9.3,2.4,14.1c0,2.4-0.2,4.9-0.8,7.2c-0.6,2.4-1.5,4.6-2.3,6.8c-1.7,4.4-3.5,8.9-5.9,13.1
			c-1.2,2.1-2.5,4.1-4,6c-1.5,1.9-3.2,3.8-5.5,5.1l-1.3,0.7l-0.1-1.5c-0.1-1.2-0.1-2.5,0.1-3.6c0.1-1.2,0.4-2.3,0.7-3.5
			c0.3-1.1,0.6-2.2,1-3.3c0.4-1.1,0.8-2.2,1.2-3.2c0.8-2.1,1.8-4.2,2.6-6.3c0.9-2.1,1.8-4.2,2.6-6.2l2.3-6.4l2.3-6.4
			c0.4-1.1,0.9-2.1,1.4-3.1c0.5-1,1-2,1.5-3.1c0.5-1,0.9-2.1,1.3-3.1C319.6,509.7,319.9,508.6,319.8,507.4z M319.8,507.4
			c0.2,1.1-0.1,2.3-0.3,3.4c-0.3,1.1-0.7,2.2-1.1,3.2c-0.4,1.1-0.8,2.1-1.3,3.2c-0.4,1.1-0.9,2.1-1.2,3.1l-2,6.5l-2.1,6.5
			c-0.7,2.2-1.6,4.3-2.4,6.4c-0.9,2.1-1.7,4.2-2.5,6.3c-0.8,2.1-1.5,4.2-2,6.4c-0.3,1.1-0.5,2.1-0.6,3.2c-0.1,1.1-0.1,2.1,0,3.2
			l-1.5-0.8c1.9-1,3.5-2.7,4.9-4.5c1.4-1.8,2.7-3.8,3.9-5.8c2.4-4,4.2-8.4,6.1-12.7c0.9-2.2,1.8-4.3,2.5-6.6c0.7-2.2,1-4.5,1.1-6.9
			C321.4,516.8,320.6,512.1,319.8,507.4z"/>
	</g>
	<g>
		<path d="M265.2,570.1c0,0,0.3,0.4,0.8,1.2c0.5,0.7,1.1,1.8,1.9,3c0.4,0.6,0.8,1.3,1.3,2c0.5,0.7,1,1.5,1.5,2.2
			c1,1.5,2.1,3.2,3.3,4.8c1.1,1.6,2.3,3.2,3.4,4.7c0.6,0.7,1.1,1.4,1.6,2.1c0.5,0.7,1,1.3,1.5,1.9c0.9,1.2,1.7,2.1,2.2,2.8
			c0.5,0.7,0.8,1.1,0.8,1.1s-0.4-0.3-1.1-0.8c-0.4-0.3-0.8-0.6-1.2-1c-0.5-0.4-1-0.8-1.6-1.3c-1.1-1-2.4-2.3-3.6-3.7
			c-0.6-0.7-1.3-1.4-1.9-2.2c-0.6-0.8-1.2-1.6-1.8-2.4c-0.6-0.8-1.1-1.7-1.7-2.5c-0.5-0.8-1-1.7-1.5-2.5c-0.9-1.7-1.7-3.2-2.3-4.6
			c-0.6-1.4-1-2.6-1.3-3.4C265.3,570.6,265.2,570.1,265.2,570.1z"/>
	</g>
	<g>
		<path d="M289,588.8c0,0,0.4-1.2,1.3-2.8c0.4-0.8,1-1.7,1.6-2.7c0.6-1,1.3-1.9,2-2.9c0.4-0.5,0.7-1,1.1-1.4
			c0.4-0.5,0.8-0.9,1.2-1.3c0.8-0.8,1.7-1.5,2.5-2c0.8-0.5,1.5-0.8,2-1c0.5-0.2,0.8-0.3,0.8-0.3s-0.2,0.2-0.6,0.6
			c-0.4,0.4-0.9,0.9-1.5,1.6c-0.6,0.7-1.2,1.5-1.9,2.3c-0.7,0.9-1.4,1.8-2.1,2.8c-0.7,0.9-1.4,1.9-2.2,2.8c-0.7,0.9-1.4,1.6-2.1,2.3
			C290,588,289,588.8,289,588.8z"/>
	</g>
	<g>
		<path d="M288.5,597.3c0,0,1,0.6,2.4,1.7c0.7,0.5,1.5,1.2,2.3,1.9c0.8,0.7,1.6,1.5,2.4,2.3c0.8,0.8,1.6,1.7,2.3,2.5
			c0.7,0.8,1.3,1.6,1.8,2.3c1,1.4,1.6,2.5,1.6,2.5s-1-0.6-2.4-1.7c-0.7-0.5-1.5-1.2-2.3-1.9c-0.8-0.7-1.6-1.5-2.4-2.3
			c-0.8-0.8-1.6-1.7-2.3-2.5c-0.7-0.8-1.3-1.6-1.8-2.3C289,598.4,288.5,597.3,288.5,597.3z"/>
	</g>
	<g>
		<path d="M305.7,606.3c0,0,0.4-1.1,1.3-2.7c0.4-0.8,1-1.7,1.6-2.6c0.6-0.9,1.4-1.8,2.2-2.7c0.4-0.4,0.8-0.9,1.2-1.3
			c0.4-0.4,0.8-0.8,1.2-1.2c0.8-0.8,1.6-1.4,2.3-1.9c1.4-1.1,2.5-1.6,2.5-1.6s-0.6,1-1.7,2.4c-0.5,0.7-1.2,1.5-1.9,2.3
			c-0.7,0.8-1.4,1.7-2.2,2.6c-0.8,0.9-1.5,1.7-2.3,2.5c-0.7,0.8-1.5,1.5-2.1,2.1C306.6,605.5,305.7,606.3,305.7,606.3z"/>
	</g>
	<g>
		<path d="M269.4,603.7c0,0,0.4-0.7,1.1-1.6c0.7-0.9,1.7-2,2.8-3c1.1-1,2.2-2,3.1-2.7c0.9-0.7,1.7-1.1,1.7-1.1s-0.2,0.8-0.8,1.8
			c-0.6,1-1.5,2.3-2.6,3.3c-1.1,1.1-2.4,2-3.4,2.5C270.2,603.6,269.4,603.7,269.4,603.7z"/>
	</g>
	<g>
		<path d="M256.4,593.5c0,0,0.1,0,0.2-0.1c0.1-0.1,0.3-0.2,0.5-0.2c0.5-0.1,1.4,0,2.1,0.5c0.4,0.2,0.8,0.5,1.1,0.9
			c0.3,0.4,0.7,0.8,1,1.2c0.6,0.8,1.2,1.7,1.8,2.6c0.6,0.9,1.1,1.8,1.6,2.7c0.5,0.9,0.9,1.7,1.2,2.5c0.6,1.5,0.9,2.6,0.9,2.6
			s-0.9-0.7-1.9-2c-0.5-0.6-1.1-1.3-1.7-2.2c-0.6-0.8-1.2-1.7-1.8-2.6c-0.6-0.9-1.1-1.8-1.6-2.7c-0.3-0.5-0.4-0.8-0.6-1.2
			c-0.2-0.4-0.4-0.7-0.7-1c-0.5-0.5-0.9-0.9-1.4-1c-0.2,0-0.4-0.1-0.5-0.1C256.5,593.5,256.4,593.5,256.4,593.5z"/>
	</g>
	<g>
		<path d="M256,620.8c0,0,0.4-0.9,1.1-1.9c0.7-1.1,1.7-2.5,2.9-3.8c1.1-1.3,2.4-2.5,3.4-3.3c1-0.8,1.8-1.3,1.8-1.3s-0.3,0.9-0.9,2
			c-0.6,1.2-1.6,2.6-2.8,3.9c-1.2,1.3-2.5,2.5-3.5,3.2C256.9,620.4,256,620.8,256,620.8z"/>
	</g>
	<g>
		<path d="M270.8,613c0,0,0.9,0.3,2.1,1c1.2,0.7,2.7,1.8,3.9,3.2c1.2,1.4,2.2,2.9,2.8,4.2c0.6,1.3,0.7,2.2,0.7,2.2s-0.2-0.1-0.5-0.4
			c-0.3-0.3-0.7-0.7-1.2-1.1c-1-0.9-2.1-2.2-3.3-3.5c-1.2-1.3-2.3-2.6-3.1-3.7c-0.4-0.5-0.8-1-1-1.3C271,613.2,270.8,613,270.8,613z
			"/>
	</g>
	<g>
		<path d="M269.5,640.4c0,0,0-0.3,0.1-0.7c0.1-0.4,0.2-1.1,0.4-1.8c0.2-0.7,0.6-1.6,1-2.4c0.2-0.4,0.4-0.9,0.7-1.3
			c0.3-0.4,0.6-0.9,0.9-1.3c0.3-0.4,0.6-0.8,1-1.2c0.3-0.4,0.7-0.7,1-1.1c0.7-0.7,1.4-1.2,2-1.7c0.6-0.4,1.2-0.8,1.6-1
			c0.4-0.2,0.7-0.3,0.7-0.3s-0.1,0.2-0.4,0.6c-0.3,0.4-0.6,0.9-1.1,1.5c-0.9,1.2-2,2.7-3.2,4.3c-1.1,1.6-2.3,3.2-3.2,4.3
			c-0.4,0.6-0.8,1.1-1.1,1.5C269.7,640.2,269.5,640.4,269.5,640.4z"/>
	</g>
	<g>
		<path d="M287.4,624.7c0,0,0.6-0.9,1.6-2.2c0.5-0.6,1.1-1.3,1.8-2.1c0.7-0.7,1.4-1.5,2.1-2.3c0.7-0.8,1.5-1.5,2.2-2.2
			c0.7-0.7,1.4-1.3,2-1.8c1.2-1.1,2.1-1.7,2.1-1.7s-0.4,1-1.2,2.4c-0.4,0.7-1,1.5-1.6,2.3c-0.3,0.4-0.6,0.8-1,1.2
			c-0.3,0.4-0.7,0.8-1.1,1.2c-0.8,0.8-1.5,1.5-2.3,2.1c-0.8,0.6-1.5,1.2-2.2,1.6C288.4,624.2,287.4,624.7,287.4,624.7z"/>
	</g>
	<g>
		<path d="M285.8,629c0,0,1,0.8,2.3,2.2c0.7,0.7,1.4,1.5,2.2,2.4c0.8,0.9,1.6,1.9,2.3,2.9c0.8,1,1.5,2,2.1,3c0.6,1,1.2,1.9,1.7,2.7
			c0.9,1.6,1.4,2.8,1.4,2.8s-1-0.8-2.3-2.2c-0.7-0.7-1.4-1.5-2.2-2.4c-0.8-0.9-1.6-1.9-2.3-2.9c-0.8-1-1.5-2-2.1-3
			c-0.6-1-1.2-1.9-1.7-2.7C286.3,630.2,285.8,629,285.8,629z"/>
	</g>
	<g>
		<path d="M305.9,614c0,0,0.3,0.2,0.9,0.6c0.5,0.4,1.3,1,2.2,1.7c0.9,0.7,1.9,1.5,3,2.4c1.1,0.9,2.2,1.9,3.4,2.8
			c1.1,1,2.3,1.9,3.4,2.8c1.1,0.9,2.1,1.8,2.9,2.5c0.9,0.7,1.6,1.4,2,1.8c0.5,0.5,0.8,0.7,0.8,0.7s-1.5-0.5-3.5-1.6
			c-1-0.5-2.1-1.2-3.3-2.1c-0.6-0.4-1.2-0.8-1.8-1.3c-0.6-0.4-1.2-0.9-1.8-1.4c-0.6-0.5-1.2-1-1.7-1.5c-0.6-0.5-1.1-1-1.6-1.5
			c-1-1-1.9-2-2.6-2.9C306.6,615.3,305.9,614,305.9,614z"/>
	</g>
	<g>
		<path d="M322.9,595.5c0,0,0-0.1,0.1-0.3c0.1-0.2,0.5-0.3,0.8-0.2c0.2,0,0.4,0.1,0.6,0.2c0.2,0.1,0.4,0.3,0.6,0.4
			c0.4,0.3,0.8,0.6,1.3,0.9c0.9,0.7,2,1.6,3.1,2.5c1.1,0.9,2.3,2,3.4,3c1.1,1.1,2.2,2.2,3.2,3.2c1,1,1.9,2,2.7,2.9
			c1.5,1.8,2.4,3.1,2.4,3.1s-1.3-0.8-3.2-2.2c-0.9-0.7-2-1.6-3.1-2.5c-1.1-0.9-2.2-2-3.4-3c-1.1-1.1-2.2-2.2-3.2-3.2
			c-1-1-1.9-2.1-2.7-2.9c-0.4-0.4-0.7-0.9-1-1.2c-0.3-0.4-0.5-0.6-0.8-0.8c-0.3-0.1-0.5-0.2-0.6-0.1
			C322.9,595.4,322.9,595.5,322.9,595.5z"/>
	</g>
	<g>
		<path d="M327.4,627.2c0,0,0.2-0.2,0.5-0.6c0.3-0.4,0.7-0.9,1.3-1.5c0.5-0.6,1.2-1.3,1.9-2c0.7-0.7,1.4-1.4,2.2-2.2
			c0.8-0.7,1.5-1.4,2.3-2.1c0.7-0.7,1.4-1.3,2-1.8c0.6-0.5,1.1-0.9,1.5-1.2c0.4-0.3,0.6-0.4,0.6-0.4s-0.4,1-1.3,2.4
			c-0.4,0.7-1,1.5-1.6,2.3c-0.3,0.4-0.7,0.8-1,1.2c-0.4,0.4-0.7,0.8-1.1,1.2c-0.8,0.7-1.6,1.4-2.4,2c-0.8,0.6-1.6,1.1-2.3,1.5
			C328.5,626.9,327.4,627.2,327.4,627.2z"/>
	</g>
	<g>
		<path d="M327.3,635.5c0,0,1.2,0.6,2.7,1.8c0.8,0.6,1.7,1.3,2.6,2.1c0.9,0.8,1.9,1.6,2.8,2.5c0.9,0.9,1.8,1.8,2.6,2.7
			c0.8,0.9,1.6,1.7,2.2,2.5c1.2,1.5,1.9,2.6,1.9,2.6s-1.2-0.6-2.7-1.8c-0.8-0.6-1.7-1.3-2.6-2.1c-0.9-0.8-1.9-1.6-2.8-2.5
			c-0.9-0.9-1.8-1.8-2.6-2.7c-0.8-0.9-1.6-1.7-2.2-2.5C328,636.6,327.3,635.5,327.3,635.5z"/>
	</g>
	<g>
		<path d="M345,647.2c0,0,0.2-0.3,0.5-0.8c0.3-0.5,0.8-1.3,1.4-2.1c0.6-0.8,1.4-1.8,2.3-2.7c0.5-0.5,0.9-1,1.4-1.4
			c0.5-0.5,1-0.9,1.6-1.4c0.5-0.4,1.1-0.9,1.6-1.3c0.5-0.4,1.1-0.8,1.7-1.1c1.1-0.7,2.2-1.3,3.1-1.7c0.9-0.4,1.8-0.7,2.3-0.9
			c0.6-0.2,0.9-0.3,0.9-0.3s-0.3,0.2-0.7,0.6c-0.5,0.4-1.1,0.9-1.9,1.6c-0.8,0.6-1.7,1.4-2.7,2.1c-1,0.8-2,1.6-3.1,2.5
			c-1,0.9-2.1,1.7-3,2.5c-1,0.8-1.9,1.6-2.6,2.2c-0.8,0.7-1.4,1.2-1.9,1.6C345.3,647,345,647.2,345,647.2z"/>
	</g>
	<g>
		<path d="M346.3,616.1c0,0-0.1,0-0.2,0c-0.1,0.1,0,0.2,0.1,0.4c0.1,0.1,0.1,0.2,0.2,0.2c0,0,0.1,0.1,0.1,0.1c0.1,0,0.1,0.1,0.2,0.1
			c0.3,0.1,0.7,0.3,1.1,0.5c0.8,0.4,1.6,0.8,2.5,1.4c0.9,0.5,1.9,1.1,2.8,1.8c0.9,0.6,1.8,1.3,2.7,2c0.8,0.7,1.6,1.3,2.2,1.9
			c1.3,1.2,2,2.1,2,2.1s-1.1-0.4-2.6-1.1c-0.8-0.4-1.6-0.8-2.5-1.4c-0.9-0.5-1.9-1.1-2.8-1.8c-0.9-0.6-1.8-1.3-2.7-2
			c-0.8-0.7-1.6-1.3-2.2-1.9c-0.3-0.3-0.6-0.6-0.8-0.8c-0.1-0.1-0.1-0.1-0.2-0.2c-0.1-0.1-0.2-0.2-0.2-0.3c-0.1-0.2-0.1-0.3-0.1-0.5
			c0-0.3,0-0.6,0.2-0.6C346.3,616.1,346.3,616.2,346.3,616.1z"/>
	</g>
	<g>
		<path d="M367.4,634.3c0,0,0.3,0.1,0.8,0.2c0.5,0.1,1.3,0.4,2.1,0.7c0.9,0.3,1.8,0.8,2.9,1.4c0.5,0.3,1,0.6,1.5,0.9
			c0.5,0.3,1,0.7,1.5,1.1c0.5,0.4,1,0.8,1.4,1.2c0.5,0.4,0.9,0.8,1.3,1.2c0.8,0.8,1.5,1.6,2.1,2.4c1.1,1.5,1.7,2.6,1.7,2.6
			s-0.3-0.2-0.7-0.5c-0.4-0.3-1.1-0.8-1.8-1.3c-1.4-1.1-3.3-2.6-5.2-4c-1.9-1.4-3.8-2.9-5.3-4c-0.7-0.6-1.3-1-1.7-1.4
			C367.6,634.5,367.4,634.3,367.4,634.3z"/>
	</g>
	<g>
		<path d="M390.2,646.9c0,0,0.1-0.3,0.4-0.7c0.2-0.4,0.6-1.1,1.1-1.8c0.5-0.7,1.1-1.5,1.9-2.3c0.4-0.4,0.8-0.8,1.2-1.2
			c0.4-0.4,0.9-0.7,1.3-1.1c0.5-0.3,0.9-0.7,1.4-1c0.5-0.3,1-0.6,1.4-0.9c0.9-0.5,1.8-1,2.6-1.3c1.6-0.7,2.8-0.8,2.8-0.8
			s-0.2,0.2-0.6,0.5c-0.4,0.3-0.9,0.8-1.6,1.3c-0.3,0.3-0.7,0.5-1.1,0.8c-0.4,0.3-0.8,0.6-1.2,0.9c-0.8,0.6-1.7,1.3-2.5,2
			c-0.9,0.7-1.7,1.4-2.5,2c-0.8,0.6-1.6,1.2-2.2,1.7c-0.7,0.5-1.2,0.9-1.6,1.2C390.4,646.8,390.2,646.9,390.2,646.9z"/>
	</g>
	<g>
		<path d="M367.8,626.6c0,0,0.1,0,0.2,0c0.2,0,0.3-0.1,0.6-0.1c0.5-0.1,1.1-0.5,1.8-1.1c0.3-0.3,0.7-0.6,1-1
			c0.3-0.4,0.7-0.8,1.1-1.2c0.8-0.8,1.7-1.7,2.6-2.5c0.9-0.8,1.8-1.6,2.8-2.3c0.9-0.7,1.8-1.4,2.5-1.9c1.5-1.1,2.7-1.6,2.7-1.6
			s-0.7,1.1-1.9,2.5c-0.6,0.7-1.3,1.5-2.1,2.3c-0.8,0.8-1.7,1.7-2.6,2.5c-0.9,0.8-1.9,1.6-2.8,2.3c-0.9,0.7-1.8,1.4-2.7,1.8
			c-0.9,0.4-1.8,0.6-2.3,0.5c-0.3,0-0.5-0.1-0.6-0.2C367.8,626.6,367.8,626.6,367.8,626.6z"/>
	</g>
	<g>
		<path d="M325.9,588.7c0,0,0.8-1.2,2.3-2.9c0.7-0.8,1.6-1.8,2.5-2.7c0.9-1,2-2,3-3c1.1-1,2.1-1.9,3.2-2.8c1-0.9,2-1.6,2.9-2.3
			c1.7-1.3,3-2,3-2s-0.8,1.2-2.3,2.9c-0.7,0.8-1.6,1.8-2.5,2.7c-0.9,1-2,2-3,2.9c-1.1,1-2.1,1.9-3.2,2.8c-1,0.9-2,1.6-2.9,2.3
			C327.2,587.9,325.9,588.7,325.9,588.7z"/>
	</g>
	<g>
		<path d="M327.5,552.4c0,0,1.2,0.9,2.7,2.3c0.8,0.7,1.7,1.6,2.6,2.5c0.9,0.9,1.9,2,2.8,3c0.9,1.1,1.9,2.1,2.7,3.2
			c0.8,1,1.6,2,2.2,2.9c1.3,1.7,2,3,2,3s-1.2-0.8-2.8-2.2c-0.8-0.7-1.7-1.5-2.7-2.5c-1-0.9-1.9-2-2.9-3c-0.9-1.1-1.8-2.2-2.7-3.2
			c-0.8-1.1-1.6-2.1-2.1-3C328.1,553.7,327.5,552.4,327.5,552.4z"/>
	</g>
	<g>
		<path d="M306.6,570.3c0,0,0.9-1.1,2.3-2.5c0.7-0.7,1.6-1.5,2.5-2.4c0.9-0.9,1.9-1.8,2.9-2.6c1-0.9,2-1.8,3-2.6
			c1-0.8,1.9-1.5,2.7-2.2c1.6-1.2,2.8-2,2.8-2s-0.7,1.2-2,2.8c-0.6,0.8-1.4,1.7-2.3,2.6c-0.4,0.5-0.9,0.9-1.4,1.4
			c-0.5,0.5-1,0.9-1.5,1.4c-1,0.9-2.1,1.7-3.1,2.5c-1,0.8-2,1.4-2.9,1.9C307.9,569.8,306.6,570.3,306.6,570.3z"/>
	</g>
	<g>
		<path d="M348.8,568.5c0,0,0.2-0.3,0.5-0.9c0.3-0.6,0.9-1.4,1.6-2.3c0.7-0.9,1.6-1.9,2.5-2.9c1-1,2-2.1,3.1-3.1
			c1.1-1,2.2-2,3.2-2.9c0.5-0.5,1-0.9,1.5-1.3c0.5-0.4,0.9-0.8,1.3-1.2c0.8-0.7,1.5-1.4,2-1.8c0.5-0.4,0.8-0.7,0.8-0.7
			s-0.2,0.3-0.5,0.9c-0.3,0.6-0.8,1.4-1.5,2.3c-0.7,0.9-1.5,2-2.5,3c-0.5,0.5-1,1.1-1.5,1.6c-0.5,0.5-1.1,1-1.6,1.6
			c-1.1,1-2.2,2-3.3,2.9c-1.1,0.9-2.1,1.7-2.9,2.5c-0.9,0.7-1.6,1.3-2.1,1.7C349.1,568.3,348.8,568.5,348.8,568.5z"/>
	</g>
	<g>
		<path d="M368.8,588.1c0,0,0.5-1.2,1.5-2.7c0.5-0.8,1.1-1.7,1.8-2.6c0.7-0.9,1.5-1.9,2.3-2.8c0.4-0.4,0.8-0.9,1.3-1.3
			c0.4-0.4,0.9-0.8,1.3-1.2c0.9-0.8,1.7-1.5,2.4-2c1.5-1.1,2.6-1.7,2.6-1.7s-0.7,1.1-1.8,2.5c-0.6,0.7-1.2,1.6-2,2.4
			c-0.7,0.9-1.5,1.8-2.3,2.7c-0.8,0.9-1.7,1.8-2.5,2.6c-0.8,0.8-1.6,1.5-2.2,2.2C369.8,587.3,368.8,588.1,368.8,588.1z"/>
	</g>
	<g>
		<path d="M347.4,577.5c0,0,0.2,0.2,0.6,0.6c0.4,0.4,0.9,0.9,1.5,1.6c0.6,0.6,1.3,1.4,2,2.2c0.7,0.8,1.5,1.6,2.3,2.5
			c0.8,0.8,1.6,1.6,2.4,2.4c0.8,0.8,1.5,1.5,2.1,2.1c0.6,0.6,1.1,1.2,1.5,1.5c0.4,0.4,0.6,0.6,0.6,0.6s-0.3-0.1-0.8-0.3
			c-0.5-0.2-1.2-0.5-2-0.9c-0.8-0.4-1.7-1-2.6-1.7c-0.4-0.4-0.9-0.7-1.3-1.1c-0.5-0.4-0.9-0.8-1.3-1.2c-0.4-0.4-0.8-0.9-1.2-1.4
			c-0.4-0.5-0.7-0.9-1.1-1.4c-0.6-0.9-1.2-1.8-1.6-2.7c-0.4-0.8-0.7-1.5-0.9-2C347.5,577.8,347.4,577.5,347.4,577.5z"/>
	</g>
	<g>
		<path d="M349.4,609.1c0,0,0.3-1,1.1-2.4c0.4-0.7,0.9-1.5,1.5-2.3c0.6-0.8,1.3-1.6,2-2.4c0.4-0.4,0.7-0.8,1.1-1.1
			c0.4-0.4,0.8-0.7,1.2-1c0.8-0.6,1.5-1.2,2.2-1.6c1.3-0.9,2.4-1.2,2.4-1.2s-0.1,0.2-0.4,0.6c-0.3,0.4-0.7,0.9-1.2,1.5
			c-0.5,0.6-1.1,1.3-1.7,2c-0.6,0.7-1.3,1.5-2.1,2.2c-0.7,0.7-1.4,1.5-2.1,2.1c-0.7,0.7-1.3,1.3-1.9,1.8c-0.6,0.5-1.1,1-1.4,1.2
			C349.6,608.9,349.4,609.1,349.4,609.1z"/>
	</g>
	<g>
		<path d="M367.9,598.3c0,0,0.3,0.1,0.8,0.2c0.3,0.1,0.6,0.2,0.9,0.3c0.4,0.1,0.7,0.4,1.2,0.6c0.4,0.2,0.8,0.5,1.3,0.9
			c0.4,0.3,0.9,0.7,1.3,1.1c0.8,0.8,1.7,1.7,2.4,2.7c0.8,0.9,1.5,1.9,2.1,2.8c0.4,0.4,0.7,0.9,1,1.2c0.3,0.4,0.6,0.7,0.9,1.1
			c0.3,0.3,0.6,0.6,0.8,0.9c0.3,0.3,0.4,0.4,0.6,0.4c0.1,0.1,0.2-0.2,0.1-0.3c-0.1-0.1-0.2,0-0.2,0c0,0,0-0.1,0.2,0
			c0.1,0,0.1,0.1,0.2,0.3c0.1,0.1,0,0.4-0.2,0.5c-0.4,0.2-0.8,0-1.1-0.2c-0.3-0.2-0.7-0.4-1.1-0.6c-0.8-0.5-1.6-1.2-2.5-2
			c-0.4-0.4-0.8-0.8-1.2-1.3c-0.4-0.4-0.8-0.9-1.2-1.4c-0.4-0.5-0.7-0.9-1.1-1.4c-0.4-0.4-0.7-0.9-1-1.3c-0.3-0.4-0.7-0.8-1-1.2
			c-0.3-0.4-0.6-0.7-0.9-1c-0.3-0.3-0.6-0.6-0.8-0.8c-0.3-0.2-0.5-0.5-0.7-0.6C368.2,598.5,367.9,598.3,367.9,598.3z"/>
	</g>
	<g>
		<path d="M389,608.3c0,0,1-1.1,2.5-2.6c0.8-0.7,1.7-1.6,2.7-2.5c1-0.9,2.1-1.8,3.2-2.7c1.1-0.9,2.2-1.8,3.2-2.6
			c1-0.8,2-1.6,2.9-2.2c1.7-1.3,3-2,3-2s-0.8,1.2-2.2,2.9c-0.7,0.8-1.6,1.7-2.5,2.7c-0.5,0.5-1,1-1.5,1.4c-0.5,0.5-1.1,0.9-1.6,1.4
			c-1.1,0.9-2.2,1.8-3.3,2.6c-1.1,0.8-2.2,1.5-3.1,2C390.3,607.7,389,608.3,389,608.3z"/>
	</g>
	<g>
		<path d="M390.9,619.4c0,0,0.3,0.2,0.7,0.4c0.4,0.3,1,0.7,1.7,1.2c0.3,0.2,0.7,0.5,1.1,0.8c0.4,0.3,0.8,0.6,1.2,0.9
			c0.8,0.6,1.7,1.2,2.6,1.9c0.9,0.6,1.8,1.2,2.6,1.8c0.4,0.3,0.8,0.6,1.2,0.8c0.4,0.3,0.8,0.5,1.1,0.8c0.7,0.5,1.3,0.9,1.7,1.2
			c0.4,0.3,0.6,0.5,0.6,0.5s-0.3,0-0.8-0.1c-0.5-0.1-1.2-0.2-2-0.5c-0.8-0.2-1.8-0.6-2.7-1.1c-0.5-0.3-1-0.5-1.5-0.8
			c-0.5-0.3-1-0.6-1.4-0.9c-0.5-0.3-0.9-0.7-1.4-1c-0.4-0.3-0.8-0.7-1.2-1.1c-0.8-0.7-1.4-1.5-2-2.2c-0.5-0.7-0.9-1.3-1.2-1.7
			C391.1,619.7,390.9,619.4,390.9,619.4z"/>
	</g>
	<g>
		<path d="M410.5,624.7c0,0,0.4-1.2,1.4-2.8c0.5-0.8,1-1.7,1.7-2.7c0.7-0.9,1.4-1.9,2.2-2.8c0.4-0.5,0.8-0.9,1.2-1.4
			c0.4-0.4,0.8-0.9,1.3-1.3c0.8-0.8,1.6-1.5,2.4-2.1c1.4-1.2,2.6-1.8,2.6-1.8s-0.6,1.1-1.7,2.6c-0.5,0.7-1.2,1.6-1.9,2.5
			c-0.7,0.9-1.5,1.8-2.3,2.7c-0.8,0.9-1.6,1.8-2.4,2.6c-0.8,0.8-1.5,1.6-2.2,2.2C411.5,623.9,410.5,624.7,410.5,624.7z"/>
	</g>
	<g>
		<path d="M409.4,638.4c0,0,1.2,0.4,2.7,1.2c0.8,0.4,1.7,0.9,2.6,1.5c0.9,0.6,1.9,1.3,2.8,2c0.4,0.4,0.9,0.7,1.3,1.1
			c0.4,0.4,0.8,0.8,1.2,1.2c0.8,0.8,1.5,1.5,2,2.2c1.1,1.4,1.7,2.4,1.7,2.4s-1.1-0.6-2.5-1.6c-0.7-0.5-1.5-1.1-2.4-1.7
			c-0.9-0.6-1.8-1.4-2.7-2.1c-0.9-0.7-1.8-1.5-2.6-2.2c-0.8-0.7-1.6-1.4-2.2-2C410.2,639.3,409.4,638.4,409.4,638.4z"/>
	</g>
	<g>
		<path d="M429.9,644.7c0,0,0.5-1.1,1.5-2.5c0.5-0.7,1.1-1.5,1.7-2.3c0.7-0.8,1.4-1.7,2.2-2.5c0.8-0.8,1.6-1.6,2.3-2.3
			c0.8-0.7,1.5-1.4,2.2-1.9c1.3-1.1,2.3-1.7,2.3-1.7s-0.5,1.1-1.5,2.5c-0.5,0.7-1.1,1.5-1.7,2.3c-0.7,0.8-1.4,1.7-2.2,2.5
			c-0.8,0.8-1.6,1.6-2.3,2.3c-0.8,0.7-1.5,1.4-2.2,1.9C431,644.1,429.9,644.7,429.9,644.7z"/>
	</g>
	<g>
		<path d="M427.5,612.9c0,0,1,0.6,2.4,1.6c0.7,0.5,1.5,1.1,2.3,1.8c0.8,0.7,1.6,1.5,2.4,2.3c0.8,0.8,1.6,1.6,2.3,2.4
			c0.7,0.8,1.3,1.6,1.8,2.3c0.3,0.3,0.5,0.7,0.7,1c0.2,0.3,0.4,0.6,0.5,0.7c0.1,0,0.1,0.1,0.1,0.1c0,0,0-0.1,0-0.1
			c0-0.1-0.1,0-0.1,0c0,0,0,0,0-0.1c0,0,0.1,0,0.2,0c0.1,0.1,0.2,0.1,0.1,0.3c-0.1,0.2-0.3,0.3-0.5,0.2c-0.2,0-0.3-0.1-0.5-0.2
			c-0.1-0.1-0.3-0.2-0.4-0.3c-0.3-0.2-0.6-0.4-1-0.7c-0.7-0.5-1.5-1.1-2.3-1.8c-0.8-0.7-1.6-1.5-2.4-2.3c-0.8-0.8-1.6-1.6-2.3-2.4
			c-0.7-0.8-1.3-1.6-1.8-2.3C428,613.9,427.5,612.9,427.5,612.9z"/>
	</g>
	<g>
		<path d="M426.9,603.2c0,0,0.5-1,1.3-2.4c0.4-0.7,0.9-1.5,1.5-2.3c0.6-0.8,1.2-1.7,1.8-2.5c0.6-0.9,1.3-1.7,1.9-2.5
			c0.6-0.8,1.2-1.5,1.7-2.1c1.1-1.2,1.9-2,1.9-2s-0.3,1.1-0.9,2.6c-0.3,0.8-0.8,1.6-1.3,2.5c-0.3,0.4-0.5,0.9-0.8,1.3
			c-0.3,0.4-0.6,0.9-0.9,1.3c-0.6,0.9-1.3,1.7-2,2.5c-0.7,0.7-1.4,1.4-2,1.9C427.9,602.6,426.9,603.2,426.9,603.2z"/>
	</g>
	<g>
		<path d="M440.3,591c0,0,0.9,0.7,2,1.8c0.6,0.6,1.2,1.3,1.9,2c0.7,0.8,1.3,1.6,2,2.5c0.6,0.9,1.2,1.7,1.8,2.6
			c0.5,0.8,1,1.7,1.4,2.4c0.8,1.4,1.1,2.5,1.1,2.5s-0.9-0.7-2-1.8c-0.6-0.6-1.2-1.3-1.9-2c-0.7-0.8-1.3-1.6-2-2.5
			c-0.6-0.9-1.2-1.8-1.8-2.6c-0.5-0.8-1-1.7-1.4-2.4C440.7,592.1,440.3,591,440.3,591z"/>
	</g>
	<g>
		<path d="M442.8,620.6c0,0,0-0.8,0.2-1.9c0.2-1.1,0.7-2.5,1.4-3.8c0.7-1.3,1.5-2.5,2.3-3.3c0.8-0.8,1.4-1.2,1.4-1.2
			s-0.1,0.8-0.4,1.8c-0.3,1-0.9,2.4-1.5,3.6c-0.7,1.2-1.4,2.4-2.1,3.3C443.4,620,442.8,620.6,442.8,620.6z"/>
	</g>
	<g>
		<path d="M440.8,579.5c0,0,0.1-1,0.6-2.4c0.2-0.7,0.5-1.5,0.9-2.4c0.3-0.9,0.7-1.7,1.2-2.6c0.4-0.9,0.9-1.7,1.4-2.5
			c0.5-0.8,1-1.5,1.4-2.1c0.9-1.2,1.6-1.9,1.6-1.9s-0.1,1-0.6,2.4c-0.2,0.7-0.5,1.5-0.9,2.4c-0.3,0.9-0.7,1.7-1.2,2.6
			c-0.4,0.9-0.9,1.7-1.4,2.5c-0.5,0.8-1,1.5-1.4,2.1C441.5,578.8,440.8,579.5,440.8,579.5z"/>
	</g>
	<g>
		<path d="M411.3,584.5c0,0,0.1-0.3,0.4-0.7c0.3-0.4,0.7-1.1,1.2-1.8c0.5-0.7,1.1-1.5,1.7-2.4c0.6-0.9,1.3-1.8,2-2.7
			c0.7-0.9,1.4-1.8,2.1-2.6c0.7-0.8,1.3-1.6,1.9-2.2c0.6-0.7,1.1-1.2,1.5-1.5c0.4-0.4,0.6-0.6,0.6-0.6s-0.3,1.2-1.1,2.8
			c-0.4,0.8-0.9,1.7-1.5,2.6c-0.3,0.5-0.6,1-0.9,1.4c-0.3,0.5-0.7,0.9-1,1.4c-0.7,0.9-1.5,1.8-2.3,2.6c-0.8,0.8-1.5,1.5-2.2,2
			C412.3,583.9,411.3,584.5,411.3,584.5z"/>
	</g>
	<g>
		<path d="M427.3,571.1c0,0,0.2,0.1,0.6,0.2c0.3,0.1,0.9,0.3,1.4,0.6c1.1,0.6,2.5,1.7,3.5,3c1.1,1.3,1.8,2.8,2.2,4.1
			c0.4,1.2,0.4,2.1,0.4,2.1s-0.2-0.2-0.4-0.4c-0.2-0.3-0.6-0.7-1-1.1c-0.8-0.9-1.8-2.1-2.7-3.3c-1-1.2-2-2.4-2.7-3.4
			c-0.4-0.5-0.7-0.9-0.9-1.2C427.4,571.3,427.3,571.1,427.3,571.1z"/>
	</g>
	<g>
		<path d="M389.8,572.6c0,0,1,0.4,2.4,1.3c0.7,0.4,1.4,1,2.2,1.7c0.8,0.7,1.6,1.4,2.3,2.2c0.4,0.4,0.7,0.8,1.1,1.2
			c0.3,0.4,0.6,0.8,0.9,1.2c0.6,0.8,1.1,1.6,1.5,2.3c0.8,1.4,1.1,2.5,1.1,2.5s-0.2-0.2-0.6-0.5c-0.4-0.3-0.9-0.8-1.4-1.3
			c-0.6-0.6-1.2-1.2-1.9-1.9c-0.7-0.7-1.4-1.5-2.1-2.2c-0.7-0.8-1.4-1.6-2-2.3c-0.7-0.7-1.2-1.5-1.7-2.1c-0.5-0.6-0.9-1.2-1.2-1.6
			C389.9,572.8,389.8,572.6,389.8,572.6z"/>
	</g>
	<g>
		<path d="M388.4,559.4c0.3,0.3,0.7,0.3,1.1,0.1c0.3-0.2,0.6-0.4,0.9-0.7c0.2-0.3,0.5-0.6,0.6-0.9l0.4-1.1c0.6-1.4,0.9-2.9,1.3-4.4
			c0.3-1.5,0.6-3,0.9-4.5c0.3-1.5,0.5-3,0.7-4.5c0.4-3,0.8-6.1,1.1-9.1c0.3-3.1,0.6-6.1,0.8-9.2c0.2-3.1,0.4-6.1,0.6-9.2
			c0.1-1.5,0.1-3,0.1-4.6c0-1.5-0.1-3-0.3-4.5c-0.3-3-0.7-6-1.4-8.9c-0.4-1.4-0.9-2.8-1.6-4.1c-0.7-1.2-1.6-2.3-2.7-2.7l1.3-0.8
			c-0.6,5.7-0.9,11.5-1.3,17.2c-0.3,5.8-0.6,11.5-0.8,17.3l-0.8,17.3C389.1,547.9,388.9,553.7,388.4,559.4z M388.4,559.4l0-17.3
			c0-5.8,0.1-11.6,0.2-17.3c0.1-5.8,0.3-11.6,0.5-17.3c0.1-2.9,0.3-5.8,0.4-8.7c0.1-1.4,0.2-2.9,0.3-4.3c0.1-1.4,0.3-2.9,0.4-4.3
			l0.1-1.2l1.2,0.4c0.9,0.3,1.7,0.9,2.3,1.5c0.6,0.6,1.1,1.4,1.5,2.1c0.8,1.5,1.3,3,1.7,4.5c0.8,3.1,1.2,6.2,1.4,9.3
			c0.1,1.6,0.2,3.1,0.2,4.7c0,1.6,0,3.1-0.1,4.7c-0.1,1.5-0.2,3.1-0.3,4.6c-0.1,1.5-0.3,3.1-0.4,4.6c-0.3,3.1-0.7,6.1-1.1,9.2
			c-0.4,3.1-0.9,6.1-1.4,9.1c-0.3,1.5-0.6,3-0.9,4.5c-0.3,1.5-0.7,3-1.1,4.5c-0.4,1.5-0.9,3-1.5,4.4l-0.5,1
			c-0.2,0.4-0.4,0.7-0.7,0.9c-0.3,0.3-0.6,0.5-1,0.6C389.2,559.8,388.7,559.7,388.4,559.4z"/>
	</g>
	<g>
		<path d="M370.7,518.4c-0.6,1-0.9,2-1.1,3.1c-0.2,1.1-0.4,2.2-0.6,3.3c-0.3,2.2-0.4,4.4-0.2,6.6c0,1.1,0.2,2.1,0.5,3.2
			c0.3,1.1,0.6,2.1,0.9,3.1c0.7,2.1,1.6,4.1,2.5,6.1l2.7,6.1c0.2,0.5,0.5,1,0.7,1.5c0.2,0.5,0.5,0.9,0.8,1.4
			c0.5,0.9,1.1,1.8,1.8,2.6c1.3,1.7,2.9,3.1,4.7,4.3c1.8,1.2,3.7,2.2,5.7,3.1l-1.3,1.3c-1.7-3.7-3.4-7.5-5-11.2l-2.3-5.7
			c-0.8-1.9-1.5-3.8-2.2-5.7c-0.7-1.9-1.6-3.7-2.4-5.6c-0.8-1.9-1.6-3.8-2.3-5.7c-0.7-1.9-1.4-3.8-2-5.8c-0.3-1-0.6-2-0.8-3
			c-0.1-0.5-0.2-1-0.2-1.5C370.4,519.4,370.4,518.9,370.7,518.4z M370.7,518.4c-0.2,0.5-0.2,1-0.1,1.5c0.1,0.5,0.2,1,0.3,1.5
			c0.3,1,0.6,1.9,1,2.9c0.7,1.9,1.6,3.8,2.4,5.6c0.9,1.8,1.7,3.7,2.6,5.5c0.9,1.8,1.8,3.7,2.7,5.6l2.4,5.6l2.5,5.6
			c1.7,3.7,3.3,7.5,5.1,11.2l1.1,2.5l-2.5-1.2c-2-1-4.1-2-6-3.3c-1.9-1.3-3.7-2.9-5.1-4.7c-0.7-0.9-1.3-1.9-1.9-2.9
			c-0.3-0.5-0.5-1-0.8-1.6c-0.3-0.5-0.4-1-0.7-1.6l-2.5-6.2c-0.8-2.1-1.7-4.1-2.4-6.3c-0.3-1.1-0.6-2.2-0.8-3.3
			c-0.2-1.1-0.3-2.3-0.3-3.4c0-2.3,0.3-4.5,0.7-6.7c0.2-1.1,0.5-2.2,0.8-3.3C369.6,520.4,370,519.3,370.7,518.4z"/>
	</g>
	<g>
		<path d="M411.6,518.7l0.5,1.7l0.4,1.7l0.3,1.7l0.3,1.7l0.2,1.8l0.1,1.8l0,1.8l-0.1,1.8l-0.2,1.8l-0.2,1.8l-0.3,1.7l-0.4,1.7
			l-0.5,1.7l-0.6,1.7l-0.7,1.7l-0.7,1.6l-0.8,1.6l-0.9,1.6c-0.6,1-1.3,2-2,2.9l-1.1,1.4l-1.2,1.4l-1.2,1.3l-1.3,1.2l-1.4,1.2
			l-1.4,1.1c-0.5,0.4-1,0.7-1.5,1c-0.5,0.3-1,0.6-1.5,1c-0.5,0.3-1.1,0.6-1.6,0.9c-0.5,0.3-1.1,0.5-1.6,0.8
			c-0.6,0.2-1.1,0.4-1.7,0.6l-1.8,0.5l-1.4,0.4l0.2-1.5c0.2-1.1,0.4-2.2,0.8-3.3c0.3-1.1,0.8-2.1,1.3-3c0.5-1,1-1.9,1.5-2.9
			c0.5-0.9,1.1-1.8,1.7-2.7c1.2-1.8,2.3-3.5,3.5-5.3c0.6-0.9,1.1-1.8,1.6-2.7l1.5-2.8l3-5.6l3.1-5.5
			C407.4,526.1,409.5,522.4,411.6,518.7z M411.6,518.7c-1.8,3.8-3.6,7.6-5.4,11.5l-2.8,5.7l-2.8,5.7l-1.4,2.8c-0.5,1-1,1.9-1.6,2.8
			c-1.1,1.8-2.3,3.6-3.3,5.4c-1.1,1.8-2.2,3.6-3,5.4c-0.4,0.9-0.8,1.9-1.1,2.8c-0.3,0.9-0.5,1.9-0.6,2.9l-1.2-1.1l1.6-0.5l1.6-0.6
			c0.5-0.2,1-0.4,1.5-0.7c0.5-0.3,1-0.5,1.5-0.8c0.5-0.3,1-0.6,1.4-0.9l1.4-1l1.3-1l1.3-1.1l1.2-1.2l1.2-1.2l1.1-1.3l1.1-1.3
			c0.7-0.9,1.4-1.8,2-2.8l0.9-1.4l0.9-1.5l0.8-1.5l0.7-1.6l0.6-1.6l0.5-1.6l0.5-1.6l0.4-1.7l0.3-1.7l0.2-1.7l0.2-1.7l0.1-1.7l0-1.7
			l-0.1-1.7l-0.1-1.7l-0.2-1.7l-0.3-1.7L411.6,518.7z"/>
	</g>
	<g>
		<path d="M412.2,551.1c0,0,1,0.6,2.3,1.7c0.7,0.5,1.4,1.2,2.2,2c0.8,0.8,1.5,1.6,2.3,2.4c0.7,0.9,1.4,1.8,2.1,2.6
			c0.6,0.9,1.2,1.7,1.6,2.5c0.9,1.5,1.3,2.6,1.3,2.6s-1-0.7-2.2-1.9c-0.6-0.6-1.3-1.3-2.1-2.1c-0.7-0.8-1.5-1.6-2.2-2.5
			c-0.7-0.9-1.4-1.7-2.1-2.6c-0.6-0.8-1.2-1.6-1.7-2.4C412.7,552.2,412.2,551.1,412.2,551.1z"/>
	</g>
	<g>
		<path d="M430.9,562.6c0,0,0.5-1.2,1.5-2.9c0.5-0.8,1.1-1.8,1.7-2.8c0.7-1,1.4-2,2.2-3c0.8-1,1.6-2,2.4-2.9
			c0.8-0.9,1.5-1.7,2.2-2.4c1.4-1.4,2.4-2.2,2.4-2.2s-0.5,1.2-1.5,2.9c-0.5,0.8-1.1,1.8-1.7,2.8c-0.7,1-1.4,2-2.2,3
			c-0.8,1-1.6,2-2.4,2.9c-0.8,0.9-1.5,1.7-2.2,2.4C432,561.8,430.9,562.6,430.9,562.6z"/>
	</g>
	<g>
		<path d="M268.2,565c0,0,0.2-0.2,0.5-0.6c0.4-0.4,0.9-1,1.5-1.6c0.6-0.6,1.4-1.4,2.2-2.1c0.8-0.8,1.7-1.6,2.5-2.4
			c0.9-0.8,1.8-1.6,2.6-2.3c0.8-0.7,1.6-1.4,2.3-2c0.7-0.6,1.3-1,1.7-1.3c0.4-0.3,0.7-0.5,0.7-0.5s-0.5,1.1-1.6,2.6
			c-0.5,0.8-1.2,1.6-1.9,2.4c-0.4,0.4-0.8,0.9-1.2,1.3c-0.4,0.4-0.9,0.8-1.3,1.3c-0.9,0.8-1.8,1.6-2.8,2.3c-0.9,0.7-1.8,1.3-2.6,1.7
			C269.4,564.6,268.2,565,268.2,565z"/>
	</g>
	<g>
		<path d="M261.3,563.5c0,0-1.2-0.6-2.7-1.7c-0.8-0.6-1.6-1.3-2.5-2.1c-0.4-0.4-0.9-0.8-1.3-1.3c-0.4-0.4-0.8-0.9-1.3-1.4
			c-0.4-0.5-0.8-1-1.2-1.5c-0.4-0.5-0.7-1-1.1-1.5c-0.7-1-1.2-1.9-1.6-2.8c-0.9-1.7-1.3-2.9-1.3-2.9s0.2,0.2,0.6,0.6
			c0.4,0.4,0.9,1,1.6,1.7c0.6,0.7,1.4,1.5,2.1,2.4c0.8,0.9,1.6,1.8,2.4,2.8c0.8,0.9,1.6,1.9,2.3,2.8c0.7,0.9,1.4,1.7,2,2.5
			c0.6,0.7,1,1.4,1.4,1.8C261.2,563.2,261.3,563.5,261.3,563.5z"/>
	</g>
	<g>
		<path d="M247.2,575.6c0,0,0.6,0.5,1.3,1.3c0.7,0.8,1.6,1.9,2.3,3.1c0.7,1.2,1.3,2.4,1.7,3.5c0.4,1,0.5,1.8,0.5,1.8
			s-0.7-0.4-1.5-1.1c-0.8-0.7-1.7-1.8-2.5-3.1c-0.7-1.2-1.3-2.5-1.6-3.6C247.2,576.3,247.2,575.6,247.2,575.6z"/>
	</g>
	<g>
		<path d="M256.1,581c0,0,0-0.9,0.2-2.1c0.2-1.2,0.8-2.8,1.5-4.2c0.7-1.4,1.7-2.8,2.5-3.7c0.8-0.9,1.5-1.4,1.5-1.4s-0.1,0.9-0.5,2
			c-0.4,1.2-1,2.6-1.7,4c-0.7,1.4-1.5,2.8-2.2,3.7C256.7,580.3,256.1,581,256.1,581z"/>
	</g>
	<g>
		<path d="M248.3,607c0,0,0.6,0.4,1.3,1.1c0.7,0.7,1.6,1.7,2.3,2.9c0.7,1.1,1.2,2.3,1.5,3.3c0.3,1,0.4,1.7,0.4,1.7s-0.6-0.4-1.3-1.1
			c-0.7-0.7-1.6-1.7-2.3-2.9c-0.7-1.1-1.2-2.3-1.5-3.3C248.4,607.8,248.3,607,248.3,607z"/>
	</g>
	<g>
		<path d="M303.4,642.7c0,0,0.1-0.2,0.4-0.5c0.3-0.3,0.7-0.8,1.2-1.3c0.5-0.5,1-1.1,1.7-1.8c0.6-0.6,1.3-1.3,1.9-2
			c0.7-0.7,1.3-1.3,2-1.9c0.6-0.6,1.2-1.2,1.8-1.6c0.5-0.5,1-0.9,1.3-1.1c0.3-0.3,0.5-0.4,0.5-0.4s-0.3,1-1,2.3
			c-0.3,0.7-0.8,1.4-1.4,2.1c-0.3,0.4-0.6,0.7-0.9,1.1c-0.3,0.4-0.7,0.7-1,1.1c-0.4,0.3-0.7,0.7-1.1,1c-0.4,0.3-0.7,0.6-1.1,0.9
			c-0.7,0.5-1.5,1-2.1,1.3C304.4,642.4,303.4,642.7,303.4,642.7z"/>
	</g>
	<g>
		<path d="M244.4,573.9c0,0,0.8,0.1,2.4,0.3c1.5,0.2,3.8,0.4,6.7,0.6c5.8,0.5,14.1,0.9,24,0.5c1.2-0.1,2.5-0.1,3.8-0.2
			c0.6-0.1,1.3-0.1,1.9-0.1c0.7-0.1,1.3-0.1,2-0.2c2.7-0.3,5.4-0.6,8.3-0.9c5.6-0.5,11.6-1.3,17.8-1.9c6.2-0.7,12.6-1.3,19.1-1.9
			c6.5-0.6,13.1-1.1,19.8-1.5c6.6-0.4,13.3-0.8,19.8-1c6.5-0.3,13-0.3,19.2-0.3c12.5,0,24.1,0.5,34,1.4c2.5,0.2,4.9,0.4,7.1,0.6
			c2.3,0.2,4.4,0.5,6.4,0.7c4,0.4,7.5,0.7,10.4,0.8c2.9,0.1,5.2,0.1,6.7,0c1.6-0.1,2.4-0.1,2.4-0.1s-0.8,0.1-2.4,0.3
			c-1.5,0.2-3.8,0.4-6.7,0.4c-2.9,0.1-6.5,0-10.5-0.3c-4-0.2-8.6-0.5-13.6-0.7c-5-0.2-10.3-0.4-16-0.5c-5.7-0.1-11.7,0-17.9,0
			c-3.1,0.1-6.3,0.1-9.4,0.2c-3.2,0.1-6.4,0.2-9.7,0.4c-6.5,0.3-13.1,0.6-19.7,1.1c-6.6,0.4-13.2,0.9-19.7,1.4
			c-6.5,0.6-12.9,1.1-19.1,1.6c-6.2,0.5-12.2,1.1-17.9,1.6c-2.8,0.2-5.6,0.4-8.3,0.6c-0.7,0-1.3,0.1-2,0.1c-0.7,0.1-1.3,0.1-2,0.1
			c-1.3,0-2.6,0.1-3.8,0.1c-5,0.1-9.6-0.2-13.6-0.5c-4-0.3-7.6-0.7-10.4-1.1c-2.9-0.4-5.1-0.8-6.7-1
			C245.2,574.1,244.4,573.9,244.4,573.9z"/>
	</g>
	<g>
		<path d="M257.4,623.2c0,0,0.2,0.2,0.4,0.6c0.3,0.4,0.6,0.9,1,1.5c0.4,0.6,0.9,1.3,1.3,2.1c0.5,0.8,1,1.6,1.4,2.4
			c0.5,0.8,1,1.7,1.4,2.4c0.4,0.8,0.8,1.5,1.2,2.2c0.3,0.6,0.6,1.2,0.8,1.6c0.2,0.4,0.3,0.6,0.3,0.6s-0.9-0.5-2-1.6
			c-0.6-0.5-1.1-1.2-1.7-1.9c-0.3-0.4-0.6-0.7-0.9-1.2c-0.3-0.4-0.5-0.8-0.8-1.3c-0.2-0.4-0.5-0.9-0.7-1.3c-0.2-0.4-0.4-0.9-0.6-1.3
			c-0.3-0.9-0.6-1.7-0.8-2.4C257.4,624.2,257.4,623.2,257.4,623.2z"/>
	</g>
	<g>
		<path d="M307.7,574.7c0,0,0.1,0,0.2,0.1c0.1,0,0.3,0.1,0.6,0.2c0.5,0.2,1.2,0.6,1.8,1.1c0.7,0.6,1.4,1.3,2.1,2.1
			c0.7,0.8,1.4,1.6,2.1,2.5c0.7,0.9,1.4,1.7,2,2.6c0.6,0.8,1.2,1.6,1.7,2.3c1,1.4,1.6,2.4,1.6,2.4s-1-0.5-2.4-1.6
			c-0.7-0.5-1.4-1.2-2.2-2c-0.4-0.4-0.8-0.8-1.1-1.2c-0.4-0.4-0.7-0.9-1.1-1.3c-0.7-0.9-1.4-1.8-2-2.7c-0.6-0.9-1.1-1.7-1.5-2.4
			c-0.5-0.7-0.9-1.2-1.2-1.6C307.9,574.9,307.7,574.7,307.7,574.7z"/>
	</g>
</g>
</svg>
