<svg id="Layer_1" xmlns="http://www.w3.org/2000/svg" viewBox="0 0 705 705"><style>.st0,.st1{fill:none}.st1{stroke:#000;stroke-width:5;stroke-miterlimit:10}.st2{opacity:.9;fill:url(#SVGID_1_);enable-background:new}.st3{fill:url(#SVGID_2_)}</style><path class="st0" d="M122.5 0h460v705h-460V0z"/><path class="st1" d="M6711.1-565.6c.3 38.5.2 82.4-5.7 120.5-2.3 14.7-3.7 31.7-10.6 44.9-9.4 17.9-18.6 35.9-34 49.5-5.5 4.9-11.5 9.2-17.9 12.8-4.2 2.3-15.3 5.1-15.9 10.8-.4 3.6 3.8 5.7 6.9 7.6 6.9 4.3 10.9 12.3 11.6 20.4 1.5 15.4-5.6 30.7-18.9 38.8-.8.5-1.6 1-1.9 1.8-.7 2.1 2.1 3.4 4.2 3.8 12.1 2.1 24 5 35.7 8.7 7.7 2.4 24.3 10.6 12 18.5-7.7 4.9-17 6.2-26 7.3-24.7 3.1-49.7 6.2-74.5 3.9-5.6-.5-11.2-1.4-16.8-2.2l-22.5-3.3c-5.3-.8-11.8-2.7-12.7-7.9-1.7-10.2 16.6-15.1 23.6-17.2 4.9-1.5 36.5-4.6 35.6-9.3-.5-2.4-2.8-3.9-4.8-5.4-8.9-6.4-15-16.4-16.6-27.2-1.6-10.8 1.3-22.2 7.9-30.9 2.2-2.9 4.9-6 4.4-9.6-.2-1.5-1-2.9-2-4.1-5.1-6.7-15.9-9.5-22.8-14.7-7.9-6-15.2-12.8-21.6-20.4-12.5-14.5-22.1-31.5-27.6-49.9-5.2-17.2-6.9-35.3-8.2-53.2-2.3-31-3.6-62-3.8-93.1 20.2-2.4 42-1.8 62.4-1.4 52.8 1.1 160.5-1.6 160.5.5z"/><path d="M6584.5-250.7v1.9c0 .6.1 1.3.6 1.9.4.6 1.2.8 2.2.8 2.1-.1 4.5-.2 7.1-.2 1.3 0 2.7-.1 4-.1 1.4-.1 2.8-.1 4.1-.2 1.4-.1 2.8-.1 4.1-.2 1.4-.1 2.7-.1 4-.2 2.6-.1 5-.2 7.1-.3 2-.1 3.7-.6 4.6-1.3.4-.4.7-.8.8-1.1.1-.3.2-.5.2-.5v.5c-.1.3-.2.8-.6 1.3s-1.1 1-1.9 1.4-1.8.7-2.8.8c-2.1.4-4.5.7-7.1.9-1.3.1-2.7.3-4 .4-1.4.1-2.8.2-4.2.2-1.4 0-2.8.1-4.2.1h-4.1c-2.6-.1-5.1-.2-7.2-.4-.5-.1-1.1-.1-1.6-.4-.5-.3-.9-.7-1.1-1.1-.4-.9-.4-1.7-.3-2.3s.2-1.1.3-1.4c-.1-.3 0-.5 0-.5zm-.4-84.6s.6.2 1.6.5c.5.2 1.2.3 1.9.5s1.6.4 2.4.5c.9.2 1.9.3 2.9.5 1 .1 2.1.2 3.3.3 1.1.1 2.3.1 3.5.2h3.6c1.2 0 2.5 0 3.7-.1 1.2 0 2.4-.1 3.6-.1 2.3-.1 4.5-.1 6.3-.3 1.8-.2 3.2-.6 4.1-1.2.4-.3.8-.6 1-.8l.3-.3s-.1.1-.2.4c-.2.3-.4.6-.8 1-.8.8-2.3 1.6-4.2 2-.9.2-2 .4-3 .5-1.1.1-2.2.3-3.3.4l-3.6.3c-1.2.1-2.5.1-3.7.2-1.3 0-2.5 0-3.7-.1-.6 0-1.2-.1-1.8-.1-.6-.1-1.2-.1-1.8-.2-1.2-.1-2.3-.4-3.4-.6-.5-.1-1-.3-1.5-.4-.5-.2-1-.3-1.4-.4-1.8-.6-3.2-1.3-4.2-1.8-1-.6-1.6-.9-1.6-.9zM6534-233.2l.3.3c.2.2.5.4 1 .6.9.5 2.3 1 4.2 1.4 1.9.4 4.2.7 6.8 1.1 2.6.4 5.6.7 8.9 1.1 3.3.3 6.8.7 10.6 1 3.7.3 7.7.5 11.8.7 8.2.3 17 .5 25.7.6 4.4.1 8.8.1 13.1.2 4.3 0 8.5.1 12.6 0s8-.4 11.7-.8c3.7-.5 7.2-1.1 10.4-1.7 6.4-1.4 11.6-3 15.2-4.3 1.8-.7 3.2-1.2 4.2-1.6l1.5-.6s-.5.2-1.4.7c-.9.4-2.3 1.1-4.1 1.8-3.5 1.5-8.7 3.5-15.1 5.1s-14.1 2.9-22.3 3.2c-4.1.2-8.4.2-12.7.2-4.3 0-8.7-.1-13.1-.1-4.4-.1-8.8-.2-13.1-.3-4.3-.1-8.6-.4-12.7-.6-4.1-.3-8.1-.6-11.8-1-3.8-.4-7.3-.8-10.6-1.3-1.6-.3-3.2-.5-4.7-.7-1.5-.3-2.9-.5-4.2-.8-2.6-.5-4.9-1-6.8-1.5s-3.3-1.1-4.1-1.7c-.4-.3-.7-.5-.9-.7-.3-.2-.4-.3-.4-.3z"/><linearGradient id="SVGID_1_" gradientUnits="userSpaceOnUse" x1="6501.3" y1="1150.789" x2="6707.2" y2="1150.789" gradientTransform="matrix(1 0 0 -1 0 707)"><stop offset=".018" stop-color="#801fe3"/><stop offset="1" stop-color="#b7a7ff"/></linearGradient><path class="st2" d="M6501.3-537.4c1.4 24.4 2.7 48.8 4.1 73.2.4 7.9.9 15.9 2.2 23.7 1.8 11.1 5.4 21.8 8.9 32.5 3 9.1 6 18.2 11.1 26.3 17.8 28.1 51.5 32.7 81.9 31.3 10.6-.5 21.3-1.5 31.5-4.7 66.9-21.3 65.2-117 66.1-172.7 0-2.6.1-5.1.1-7.7-68.7 2.2-137.5 4-205.9-1.9z"/><path d="M6496.2-557.1s.6 8.1 1.5 22.2c.5 7.1 1 15.6 1.7 25.5.6 9.8 1.4 20.9 2.1 33.1.4 6.1.7 12.4 1.3 18.9.5 6.5 1.4 13.2 3 19.9 1.6 6.7 3.7 13.5 6 20.4 2.4 6.9 4.5 14 7.5 20.9.8 1.7 1.5 3.4 2.4 5.1.9 1.6 1.8 3.3 2.8 4.8 1.1 1.6 2.2 3.1 3.4 4.7 1.2 1.4 2.5 2.8 3.7 4.3 5.3 5.5 11.7 10 18.8 13.2 7.1 3.3 14.8 5.4 22.6 6.6 7.9 1.3 15.9 1.7 23.9 1.7 8-.1 16.1-.4 24-1.5 3.9-.5 7.9-1.2 11.7-2.2 1-.3 1.9-.5 2.8-.8l.7-.2h.1l.2-.1.4-.1 1.4-.5 2.8-1c.5-.2.9-.3 1.4-.5l1.3-.6c7.1-3.1 13.7-7.4 19.4-12.5 5.7-5.1 10.5-11.1 14.4-17.5 4-6.3 7.1-13.1 9.7-19.8 2.6-6.8 4.6-13.6 6.3-20.3 3.2-13.5 5-26.5 6.2-38.5 1.1-12.1 1.7-23.2 2-33 .3-9.9.5-18.4.7-25.5.2-14.2.4-22.2.4-22.2s0 2 .1 5.8c0 3.8.1 9.4.2 16.4 0 7.1 0 15.7-.2 25.5-.1 9.9-.5 21-1.5 33.1s-2.6 25.2-5.7 38.9c-1.6 6.8-3.6 13.7-6.1 20.6s-5.7 13.8-9.8 20.3c-4 6.5-9 12.7-14.8 18.1-5.9 5.4-12.7 9.8-20.2 13.1l-1.4.6c-.5.2-.9.4-1.4.5l-2.8 1-1.4.5-.4.1-.2.1-.2.1-.7.2c-1 .3-2 .6-2.9.8-3.9 1-8 1.8-12 2.4-8.1 1.1-16.2 1.5-24.4 1.6-8.2 0-16.3-.5-24.4-1.8-8-1.3-16-3.5-23.3-7-7.4-3.4-14.1-8.1-19.6-13.9-1.3-1.5-2.6-3.1-3.9-4.6-1.1-1.6-2.2-3.2-3.3-4.7-2.2-3.4-3.9-6.8-5.4-10.4-3-7.1-5.2-14.2-7.5-21.2-2.2-7-4.3-13.9-5.8-20.7-1.6-6.9-2.4-13.6-2.8-20.2-.5-6.6-.7-12.9-1-18.9-.6-12.1-1.1-23.2-1.6-33.1-.5-9.9-.8-18.4-1.2-25.5-.7-14.2-1-22.2-1-22.2z"/><path d="M6496.6-541.7s.8 0 2.4.1 3.8.2 6.7.3c2.9.2 6.4.3 10.5.5 4 .2 8.6.3 13.6.5s10.4.3 16.1.5 11.7.2 17.9.4c6.2.1 12.6.1 19.2.2 6.5.1 13.2 0 19.8.1 6.6 0 13.3 0 19.8-.1s13-.1 19.2-.2c12.5-.1 24.1-.2 34-.3 10-.1 18.3-.1 24.1-.1h9.1s-.8.1-2.4.2c-1.6.1-3.8.2-6.7.4-5.8.3-14.1.8-24.1 1.3s-21.6.9-34 1.3c-6.2.1-12.7.4-19.2.4-6.5.1-13.2.1-19.8.2-6.6 0-13.3 0-19.8-.2-6.5-.1-13-.3-19.2-.4-6.2-.2-12.3-.4-18-.8-2.9-.2-5.6-.3-8.3-.5-2.7-.2-5.3-.4-7.8-.5-2.5-.2-4.9-.3-7.1-.5-2.3-.2-4.4-.4-6.4-.6-4-.4-7.6-.7-10.4-1-2.9-.3-5.2-.6-6.7-.7-1.7-.4-2.5-.5-2.5-.5z"/><path class="st1" d="M466.1 411c.5 35.5 1.3 68.9-.1 104.3-.5 13.6 1.2 27.1-.2 40.7-3.6 34.8.2 71 1.5 105.9.2 6-1.3 11.5-3.9 16.9-5.8 12.3-19.5 16.3-32.5 17.7-22.2 2.5-44.5 4-66.9 4.7-20.8.6-43.4 1.9-63.9-1.1-10.5-1.5-22.1-4.1-32.2-6.9-9.6-2.7-20.5-10.2-24.7-19.1-2.9-6-3-12.8-3.1-19.5-.4-26.5-2.2-52.6-.6-79.1 1.6-25.6-1.7-48.8-.6-74.5 1.2-28.7.8-57.4-1.2-86-.1-2 2.4-2 4.4-2 17.5.7 187.6-2.9 224-2z"/><radialGradient id="SVGID_2_" cx="354.425" cy="85.164" r="81.964" gradientTransform="matrix(1 0 0 -1 0 707)" gradientUnits="userSpaceOnUse"><stop offset="0" stop-color="#ef9120"/><stop offset="1" stop-color="#943e00"/></radialGradient><path class="st3" d="M448.3 658.3c13.7-10.7 12.8-32 11.7-47.5-.4-5.2-.6-17.5-.7-33.4-8.6.9-17.3-.1-26-.8-43.9-3.5-88 .3-131.8 4.8-4.9.5-9.8 1-14.7 1.3-12.8.8-25.7-.1-38.4-2h-.1c.2 11.9.5 23.9.6 36 .1 10 .3 20.5 4.6 29.5 4.6 9.7 14.1 17 24.7 19 23.1 4.4 47.5 2.2 70.9 2.3 6.4 0 12.8 0 19.2.1 14.7 0 29.4.1 44-1.5 11.2-.9 26.8-.5 36-7.8z"/><path d="M245.4 417.5s.2 2.6.5 7.5.7 12 1 21.1c.4 9.1.7 20.1.8 32.8.1 6.3.1 13.1.1 20.2s-.2 14.6-.3 22.4c-.2 15.6 0 32.5.4 50.3.2 8.9.4 18.1.6 27.5.1 4.7.2 9.4.2 14.2.1 4.8.2 9.6.8 14.3s1.8 9.4 4 13.7c2.1 4.3 5.3 8 9.1 11s8.2 5.2 12.9 6.4c.6.1 1.2.3 1.8.4l1.9.3c1.3.2 2.5.4 3.7.6 2.5.4 5 .6 7.5.9 20.2 1.8 41.1.1 61.9.3 10.4 0 20.8.2 31.1 0 5.2-.1 10.3-.2 15.4-.5 2.6-.1 5.1-.3 7.7-.5s5.1-.5 7.7-.7c5.1-.4 10.2-.7 15.1-1.4 4.9-.8 9.8-1.9 13.9-4.2 8.5-4.8 12.5-14.3 13.8-23.7.7-4.7.8-9.5.7-14.2 0-2.4-.2-4.7-.3-7.1-.1-1.2-.1-2.4-.2-3.6 0-1.2-.1-2.4-.1-3.5-.3-9.4-.3-18.6-.4-27.5-.1-17.9 0-34.8.2-50.4.1-15.6.3-29.9.6-42.6.2-12.7.5-23.7.7-32.8.2-9.1.5-16.2.7-21.1.1-2.4.2-4.3.3-5.6.1-1.3.1-1.9.1-1.9s0 .6-.1 1.9c0 1.3-.2 3.1-.2 5.6-.1 4.9-.2 12-.3 21.1-.1 9.1-.1 20.1-.2 32.8v42.6c0 15.6.1 32.5.3 50.3.1 8.9.3 18.1.6 27.4.5 9.3 1.4 19 0 28.9-.1 1.2-.4 2.5-.6 3.7s-.6 2.4-.9 3.7l-1.2 3.6c-.5 1.2-.9 2.4-1.6 3.5l-.9 1.7c-.3.6-.7 1.1-1.1 1.6s-.7 1.1-1.2 1.6l-1.3 1.5c-.2.2-.4.5-.7.7l-.7.6-1.4 1.2-.2.2s-.2.2-.3.2l-.4.3-.8.6c-.5.4-1.1.7-1.7 1-4.6 2.6-9.8 3.8-14.8 4.6-5.1.8-10.2 1.1-15.3 1.5-2.5.2-5.1.5-7.7.7s-5.2.4-7.7.6c-5.2.3-10.4.4-15.5.5-10.4.1-20.8.1-31.2.1-20.7-.3-41.6 1.4-62.1-.6-2.6-.3-5.1-.5-7.7-.9-1.3-.2-2.5-.4-3.8-.6l-1.9-.3c-.7-.1-1.3-.3-1.9-.4-5.1-1.3-9.9-3.7-14-6.9s-7.4-7.3-9.7-11.9c-2.3-4.6-3.5-9.6-4.2-14.5-.6-4.9-.8-9.8-.8-14.6s-.1-9.5-.1-14.2c-.1-9.4-.2-18.6-.4-27.5-.2-17.9-.3-34.8.1-50.4.5-15.6.8-29.9.8-42.5 0-12.7-.1-23.7-.3-32.8-.2-9.1-.4-16.2-.6-21.1-.1-5.1-.2-7.7-.2-7.7z"/><path d="M302 489.8c0 1.4-.3 2.7-.6 4.1-.4 1.3-.9 2.6-1.4 3.9-1 2.6-2.1 5.1-2.6 7.7-1 5.3-1.5 10.8-1.5 16.2.1 5.4.2 10.9 1 16.3.4 2.7.9 5.3 1.7 7.8.4 1.3.9 2.5 1.5 3.6s1.4 2.1 2.4 2.7l-1.5.8.3-3.9.2-3.9c.1-2.6.2-5.2.2-7.9.1-2.6.1-5.2.1-7.9v-7.9l-.1-15.8v-7.9c.1-2.7.2-5.3.3-7.9zm0 0c.2 5.3.5 10.5.8 15.8s.5 10.5.7 15.8.3 10.5.3 15.8c0 2.6-.1 5.3-.2 7.9l-.2 4-.3 4-.1 1.7-1.4-.9c-1.3-.9-2.3-2.1-3-3.4-.7-1.3-1.3-2.6-1.7-4-.9-2.7-1.4-5.4-1.7-8.2-.7-5.5-.8-11-.7-16.5.1-5.5.8-11 2.1-16.4.3-1.4.8-2.7 1.4-3.9.5-1.3 1.1-2.5 1.7-3.8.6-1.2 1.1-2.5 1.6-3.8.2-1.4.6-2.8.7-4.1z"/><path d="M305.4 565.3l-2.2-3.5-2.1-3.5c-1.4-2.3-2.7-4.7-4-7.1-1.3-2.4-2.5-4.8-3.8-7.2-1.2-2.4-2.4-4.9-3.5-7.3-1.1-2.5-2.3-4.9-3.3-7.4-1.1-2.5-2.1-5-3.1-7.5l-1.5-3.8-1.3-4c-.9-2.6-1.8-5.1-2.7-7.7l1.9-.2c-.4 2.9-.7 5.7-.9 8.6-.2 2.9-.2 5.8 0 8.6.1 1.4.2 2.9.4 4.3s.4 2.8.7 4.3c.3 1.4.6 2.8 1 4.2s.9 2.7 1.4 4.1c.5 1.3 1.1 2.6 1.8 3.9.7 1.3 1.4 2.5 2.2 3.7.8 1.2 1.6 2.4 2.5 3.5s1.9 2.2 2.9 3.1c1 1 2.1 1.9 3.3 2.8 1.2.8 2.3 1.8 3.4 2.8s2.1 2 3.2 2.9c1.1 1.1 2.4 1.9 3.7 2.4zm0 0c-1.4-.4-2.7-1.1-3.9-2-1.2-.9-2.3-1.8-3.4-2.8s-2.2-1.8-3.5-2.6c-1.2-.8-2.4-1.7-3.5-2.7-4.5-3.9-7.9-8.9-10.2-14.4-.6-1.4-1.1-2.8-1.6-4.2-.4-1.4-.8-2.9-1.1-4.3-.3-1.4-.6-2.9-.8-4.4-.2-1.5-.4-2.9-.4-4.4-.4-5.9 0-11.9.9-17.7l.6-4.2 1.3 4c.8 2.6 1.7 5.1 2.6 7.7.9 2.5 1.8 5.1 2.8 7.6s1.9 5 3 7.6l1.5 3.8 1.6 3.7c1.1 2.5 2.2 4.9 3.3 7.4l1.7 3.7 1.8 3.7c1.2 2.4 2.4 4.9 3.6 7.3l3.7 7.2zm17-55.9c1.2 4.6 2.2 9.3 2.4 14.1 0 2.4-.2 4.9-.8 7.2-.6 2.4-1.5 4.6-2.3 6.8-1.7 4.4-3.5 8.9-5.9 13.1-1.2 2.1-2.5 4.1-4 6s-3.2 3.8-5.5 5.1l-1.3.7-.1-1.5c-.1-1.2-.1-2.5.1-3.6.1-1.2.4-2.3.7-3.5.3-1.1.6-2.2 1-3.3s.8-2.2 1.2-3.2c.8-2.1 1.8-4.2 2.6-6.3.9-2.1 1.8-4.2 2.6-6.2l2.3-6.4 2.3-6.4c.4-1.1.9-2.1 1.4-3.1s1-2 1.5-3.1c.5-1 .9-2.1 1.3-3.1.3-1 .6-2.1.5-3.3zm0 0c.2 1.1-.1 2.3-.3 3.4-.3 1.1-.7 2.2-1.1 3.2-.4 1.1-.8 2.1-1.3 3.2-.4 1.1-.9 2.1-1.2 3.1l-2 6.5-2.1 6.5c-.7 2.2-1.6 4.3-2.4 6.4-.9 2.1-1.7 4.2-2.5 6.3s-1.5 4.2-2 6.4c-.3 1.1-.5 2.1-.6 3.2-.1 1.1-.1 2.1 0 3.2l-1.5-.8c1.9-1 3.5-2.7 4.9-4.5s2.7-3.8 3.9-5.8c2.4-4 4.2-8.4 6.1-12.7.9-2.2 1.8-4.3 2.5-6.6.7-2.2 1-4.5 1.1-6.9.1-4.7-.7-9.4-1.5-14.1zm-54.6 62.7s.3.4.8 1.2c.5.7 1.1 1.8 1.9 3 .4.6.8 1.3 1.3 2s1 1.5 1.5 2.2c1 1.5 2.1 3.2 3.3 4.8 1.1 1.6 2.3 3.2 3.4 4.7.6.7 1.1 1.4 1.6 2.1.5.7 1 1.3 1.5 1.9.9 1.2 1.7 2.1 2.2 2.8s.8 1.1.8 1.1-.4-.3-1.1-.8c-.4-.3-.8-.6-1.2-1-.5-.4-1-.8-1.6-1.3-1.1-1-2.4-2.3-3.6-3.7-.6-.7-1.3-1.4-1.9-2.2l-1.8-2.4c-.6-.8-1.1-1.7-1.7-2.5-.5-.8-1-1.7-1.5-2.5-.9-1.7-1.7-3.2-2.3-4.6-.6-1.4-1-2.6-1.3-3.4-.2-.9-.3-1.4-.3-1.4zm23.8 18.7s.4-1.2 1.3-2.8c.4-.8 1-1.7 1.6-2.7s1.3-1.9 2-2.9c.4-.5.7-1 1.1-1.4.4-.5.8-.9 1.2-1.3.8-.8 1.7-1.5 2.5-2s1.5-.8 2-1 .8-.3.8-.3l-.6.6c-.4.4-.9.9-1.5 1.6-.6.7-1.2 1.5-1.9 2.3-.7.9-1.4 1.8-2.1 2.8-.7.9-1.4 1.9-2.2 2.8-.7.9-1.4 1.6-2.1 2.3-1.1 1.2-2.1 2-2.1 2zm-.5 8.5s1 .6 2.4 1.7c.7.5 1.5 1.2 2.3 1.9s1.6 1.5 2.4 2.3 1.6 1.7 2.3 2.5c.7.8 1.3 1.6 1.8 2.3 1 1.4 1.6 2.5 1.6 2.5s-1-.6-2.4-1.7c-.7-.5-1.5-1.2-2.3-1.9s-1.6-1.5-2.4-2.3-1.6-1.7-2.3-2.5c-.7-.8-1.3-1.6-1.8-2.3-1.1-1.4-1.6-2.5-1.6-2.5zm17.2 9s.4-1.1 1.3-2.7c.4-.8 1-1.7 1.6-2.6.6-.9 1.4-1.8 2.2-2.7.4-.4.8-.9 1.2-1.3l1.2-1.2c.8-.8 1.6-1.4 2.3-1.9 1.4-1.1 2.5-1.6 2.5-1.6s-.6 1-1.7 2.4c-.5.7-1.2 1.5-1.9 2.3-.7.8-1.4 1.7-2.2 2.6-.8.9-1.5 1.7-2.3 2.5-.7.8-1.5 1.5-2.1 2.1-1.2 1.3-2.1 2.1-2.1 2.1zm-36.3-2.6s.4-.7 1.1-1.6c.7-.9 1.7-2 2.8-3 1.1-1 2.2-2 3.1-2.7s1.7-1.1 1.7-1.1-.2.8-.8 1.8c-.6 1-1.5 2.3-2.6 3.3-1.1 1.1-2.4 2-3.4 2.5-1.1.7-1.9.8-1.9.8zm-13-10.2s.1 0 .2-.1.3-.2.5-.2c.5-.1 1.4 0 2.1.5.4.2.8.5 1.1.9.3.4.7.8 1 1.2.6.8 1.2 1.7 1.8 2.6.6.9 1.1 1.8 1.6 2.7s.9 1.7 1.2 2.5c.6 1.5.9 2.6.9 2.6s-.9-.7-1.9-2c-.5-.6-1.1-1.3-1.7-2.2-.6-.8-1.2-1.7-1.8-2.6-.6-.9-1.1-1.8-1.6-2.7-.3-.5-.4-.8-.6-1.2s-.4-.7-.7-1c-.5-.5-.9-.9-1.4-1-.2 0-.4-.1-.5-.1-.1.1-.2.1-.2.1zm-.4 27.3s.4-.9 1.1-1.9c.7-1.1 1.7-2.5 2.9-3.8 1.1-1.3 2.4-2.5 3.4-3.3s1.8-1.3 1.8-1.3-.3.9-.9 2c-.6 1.2-1.6 2.6-2.8 3.9-1.2 1.3-2.5 2.5-3.5 3.2-1.1.8-2 1.2-2 1.2zm14.8-7.8s.9.3 2.1 1 2.7 1.8 3.9 3.2c1.2 1.4 2.2 2.9 2.8 4.2.6 1.3.7 2.2.7 2.2s-.2-.1-.5-.4c-.3-.3-.7-.7-1.2-1.1-1-.9-2.1-2.2-3.3-3.5-1.2-1.3-2.3-2.6-3.1-3.7-.4-.5-.8-1-1-1.3-.2-.4-.4-.6-.4-.6zm-1.3 27.4s0-.3.1-.7.2-1.1.4-1.8.6-1.6 1-2.4c.2-.4.4-.9.7-1.3.3-.4.6-.9.9-1.3.3-.4.6-.8 1-1.2.3-.4.7-.7 1-1.1.7-.7 1.4-1.2 2-1.7.6-.4 1.2-.8 1.6-1s.7-.3.7-.3-.1.2-.4.6c-.3.4-.6.9-1.1 1.5-.9 1.2-2 2.7-3.2 4.3-1.1 1.6-2.3 3.2-3.2 4.3-.4.6-.8 1.1-1.1 1.5-.2.4-.4.6-.4.6zm17.9-15.7s.6-.9 1.6-2.2c.5-.6 1.1-1.3 1.8-2.1.7-.7 1.4-1.5 2.1-2.3s1.5-1.5 2.2-2.2 1.4-1.3 2-1.8c1.2-1.1 2.1-1.7 2.1-1.7s-.4 1-1.2 2.4c-.4.7-1 1.5-1.6 2.3-.3.4-.6.8-1 1.2-.3.4-.7.8-1.1 1.2-.8.8-1.5 1.5-2.3 2.1s-1.5 1.2-2.2 1.6c-1.4 1-2.4 1.5-2.4 1.5zm-1.6 4.3s1 .8 2.3 2.2c.7.7 1.4 1.5 2.2 2.4.8.9 1.6 1.9 2.3 2.9.8 1 1.5 2 2.1 3s1.2 1.9 1.7 2.7c.9 1.6 1.4 2.8 1.4 2.8s-1-.8-2.3-2.2c-.7-.7-1.4-1.5-2.2-2.4-.8-.9-1.6-1.9-2.3-2.9-.8-1-1.5-2-2.1-3s-1.2-1.9-1.7-2.7c-.9-1.6-1.4-2.8-1.4-2.8zm20.1-15l.9.6c.5.4 1.3 1 2.2 1.7.9.7 1.9 1.5 3 2.4s2.2 1.9 3.4 2.8c1.1 1 2.3 1.9 3.4 2.8 1.1.9 2.1 1.8 2.9 2.5.9.7 1.6 1.4 2 1.8.5.5.8.7.8.7s-1.5-.5-3.5-1.6c-1-.5-2.1-1.2-3.3-2.1-.6-.4-1.2-.8-1.8-1.3-.6-.4-1.2-.9-1.8-1.4-.6-.5-1.2-1-1.7-1.5-.6-.5-1.1-1-1.6-1.5-1-1-1.9-2-2.6-2.9-1.6-1.7-2.3-3-2.3-3zm17-18.5s0-.1.1-.3.5-.3.8-.2c.2 0 .4.1.6.2.2.1.4.3.6.4.4.3.8.6 1.3.9.9.7 2 1.6 3.1 2.5s2.3 2 3.4 3l3.2 3.2c1 1 1.9 2 2.7 2.9 1.5 1.8 2.4 3.1 2.4 3.1s-1.3-.8-3.2-2.2c-.9-.7-2-1.6-3.1-2.5s-2.2-2-3.4-3l-3.2-3.2c-1-1-1.9-2.1-2.7-2.9-.4-.4-.7-.9-1-1.2-.3-.4-.5-.6-.8-.8-.3-.1-.5-.2-.6-.1-.2.1-.2.2-.2.2zm4.5 31.7s.2-.2.5-.6c.3-.4.7-.9 1.3-1.5.5-.6 1.2-1.3 1.9-2l2.2-2.2c.8-.7 1.5-1.4 2.3-2.1.7-.7 1.4-1.3 2-1.8s1.1-.9 1.5-1.2.6-.4.6-.4-.4 1-1.3 2.4c-.4.7-1 1.5-1.6 2.3-.3.4-.7.8-1 1.2-.4.4-.7.8-1.1 1.2-.8.7-1.6 1.4-2.4 2s-1.6 1.1-2.3 1.5c-1.5.9-2.6 1.2-2.6 1.2zm-.1 8.3s1.2.6 2.7 1.8c.8.6 1.7 1.3 2.6 2.1s1.9 1.6 2.8 2.5 1.8 1.8 2.6 2.7c.8.9 1.6 1.7 2.2 2.5 1.2 1.5 1.9 2.6 1.9 2.6s-1.2-.6-2.7-1.8c-.8-.6-1.7-1.3-2.6-2.1s-1.9-1.6-2.8-2.5-1.8-1.8-2.6-2.7c-.8-.9-1.6-1.7-2.2-2.5-1.2-1.5-1.9-2.6-1.9-2.6zm17.7 11.7s.2-.3.5-.8.8-1.3 1.4-2.1 1.4-1.8 2.3-2.7c.5-.5.9-1 1.4-1.4.5-.5 1-.9 1.6-1.4.5-.4 1.1-.9 1.6-1.3s1.1-.8 1.7-1.1c1.1-.7 2.2-1.3 3.1-1.7s1.8-.7 2.3-.9l.9-.3s-.3.2-.7.6c-.5.4-1.1.9-1.9 1.6-.8.6-1.7 1.4-2.7 2.1-1 .8-2 1.6-3.1 2.5-1 .9-2.1 1.7-3 2.5-1 .8-1.9 1.6-2.6 2.2-.8.7-1.4 1.2-1.9 1.6l-.9.6zm1.3-31.1h-.2c-.1.1 0 .2.1.4.1.1.1.2.2.2l.1.1c.1 0 .1.1.2.1.3.1.7.3 1.1.5.8.4 1.6.8 2.5 1.4.9.5 1.9 1.1 2.8 1.8.9.6 1.8 1.3 2.7 2 .8.7 1.6 1.3 2.2 1.9 1.3 1.2 2 2.1 2 2.1s-1.1-.4-2.6-1.1c-.8-.4-1.6-.8-2.5-1.4-.9-.5-1.9-1.1-2.8-1.8-.9-.6-1.8-1.3-2.7-2-.8-.7-1.6-1.3-2.2-1.9l-.8-.8-.2-.2c-.1-.1-.2-.2-.2-.3-.1-.2-.1-.3-.1-.5 0-.3 0-.6.2-.6.2.1.2.2.2.1zm21.1 18.2s.3.1.8.2 1.3.4 2.1.7c.9.3 1.8.8 2.9 1.4l1.5.9c.5.3 1 .7 1.5 1.1.5.4 1 .8 1.4 1.2.5.4.9.8 1.3 1.2.8.8 1.5 1.6 2.1 2.4 1.1 1.5 1.7 2.6 1.7 2.6s-.3-.2-.7-.5c-.4-.3-1.1-.8-1.8-1.3-1.4-1.1-3.3-2.6-5.2-4-1.9-1.4-3.8-2.9-5.3-4-.7-.6-1.3-1-1.7-1.4-.4-.3-.6-.5-.6-.5zm22.8 12.6s.1-.3.4-.7c.2-.4.6-1.1 1.1-1.8s1.1-1.5 1.9-2.3l1.2-1.2c.4-.4.9-.7 1.3-1.1.5-.3.9-.7 1.4-1s1-.6 1.4-.9c.9-.5 1.8-1 2.6-1.3 1.6-.7 2.8-.8 2.8-.8s-.2.2-.6.5-.9.8-1.6 1.3c-.3.3-.7.5-1.1.8l-1.2.9c-.8.6-1.7 1.3-2.5 2-.9.7-1.7 1.4-2.5 2s-1.6 1.2-2.2 1.7c-.7.5-1.2.9-1.6 1.2-.6.6-.8.7-.8.7zm-22.4-20.3h.2c.2 0 .3-.1.6-.1.5-.1 1.1-.5 1.8-1.1.3-.3.7-.6 1-1s.7-.8 1.1-1.2c.8-.8 1.7-1.7 2.6-2.5s1.8-1.6 2.8-2.3c.9-.7 1.8-1.4 2.5-1.9 1.5-1.1 2.7-1.6 2.7-1.6s-.7 1.1-1.9 2.5c-.6.7-1.3 1.5-2.1 2.3-.8.8-1.7 1.7-2.6 2.5s-1.9 1.6-2.8 2.3-1.8 1.4-2.7 1.8c-.9.4-1.8.6-2.3.5-.3 0-.5-.1-.6-.2h-.3zm-41.9-37.9s.8-1.2 2.3-2.9c.7-.8 1.6-1.8 2.5-2.7.9-1 2-2 3-3 1.1-1 2.1-1.9 3.2-2.8 1-.9 2-1.6 2.9-2.3 1.7-1.3 3-2 3-2s-.8 1.2-2.3 2.9c-.7.8-1.6 1.8-2.5 2.7-.9 1-2 2-3 2.9-1.1 1-2.1 1.9-3.2 2.8-1 .9-2 1.6-2.9 2.3-1.7 1.3-3 2.1-3 2.1zm1.6-36.3s1.2.9 2.7 2.3c.8.7 1.7 1.6 2.6 2.5s1.9 2 2.8 3c.9 1.1 1.9 2.1 2.7 3.2.8 1 1.6 2 2.2 2.9 1.3 1.7 2 3 2 3s-1.2-.8-2.8-2.2c-.8-.7-1.7-1.5-2.7-2.5-1-.9-1.9-2-2.9-3-.9-1.1-1.8-2.2-2.7-3.2-.8-1.1-1.6-2.1-2.1-3-1.2-1.7-1.8-3-1.8-3zm-20.9 17.9s.9-1.1 2.3-2.5c.7-.7 1.6-1.5 2.5-2.4s1.9-1.8 2.9-2.6c1-.9 2-1.8 3-2.6s1.9-1.5 2.7-2.2c1.6-1.2 2.8-2 2.8-2s-.7 1.2-2 2.8c-.6.8-1.4 1.7-2.3 2.6-.4.5-.9.9-1.4 1.4s-1 .9-1.5 1.4c-1 .9-2.1 1.7-3.1 2.5s-2 1.4-2.9 1.9c-1.7 1.2-3 1.7-3 1.7zm42.2-1.8s.2-.3.5-.9c.3-.6.9-1.4 1.6-2.3.7-.9 1.6-1.9 2.5-2.9 1-1 2-2.1 3.1-3.1s2.2-2 3.2-2.9c.5-.5 1-.9 1.5-1.3s.9-.8 1.3-1.2c.8-.7 1.5-1.4 2-1.8.5-.4.8-.7.8-.7s-.2.3-.5.9c-.3.6-.8 1.4-1.5 2.3-.7.9-1.5 2-2.5 3-.5.5-1 1.1-1.5 1.6s-1.1 1-1.6 1.6c-1.1 1-2.2 2-3.3 2.9-1.1.9-2.1 1.7-2.9 2.5-.9.7-1.6 1.3-2.1 1.7-.3.4-.6.6-.6.6zm20 19.6s.5-1.2 1.5-2.7c.5-.8 1.1-1.7 1.8-2.6.7-.9 1.5-1.9 2.3-2.8.4-.4.8-.9 1.3-1.3.4-.4.9-.8 1.3-1.2.9-.8 1.7-1.5 2.4-2 1.5-1.1 2.6-1.7 2.6-1.7s-.7 1.1-1.8 2.5c-.6.7-1.2 1.6-2 2.4-.7.9-1.5 1.8-2.3 2.7s-1.7 1.8-2.5 2.6-1.6 1.5-2.2 2.2c-1.4 1.1-2.4 1.9-2.4 1.9zM350 579.5l.6.6c.4.4.9.9 1.5 1.6.6.6 1.3 1.4 2 2.2s1.5 1.6 2.3 2.5l2.4 2.4 2.1 2.1c.6.6 1.1 1.2 1.5 1.5l.6.6s-.3-.1-.8-.3-1.2-.5-2-.9-1.7-1-2.6-1.7c-.4-.4-.9-.7-1.3-1.1-.5-.4-.9-.8-1.3-1.2s-.8-.9-1.2-1.4c-.4-.5-.7-.9-1.1-1.4-.6-.9-1.2-1.8-1.6-2.7-.4-.8-.7-1.5-.9-2-.1-.5-.2-.8-.2-.8zm2 31.6s.3-1 1.1-2.4c.4-.7.9-1.5 1.5-2.3s1.3-1.6 2-2.4c.4-.4.7-.8 1.1-1.1.4-.4.8-.7 1.2-1 .8-.6 1.5-1.2 2.2-1.6 1.3-.9 2.4-1.2 2.4-1.2s-.1.2-.4.6c-.3.4-.7.9-1.2 1.5s-1.1 1.3-1.7 2-1.3 1.5-2.1 2.2c-.7.7-1.4 1.5-2.1 2.1-.7.7-1.3 1.3-1.9 1.8s-1.1 1-1.4 1.2c-.5.4-.7.6-.7.6zm18.5-10.8s.3.1.8.2l.9.3c.4.1.7.4 1.2.6.4.2.8.5 1.3.9.4.3.9.7 1.3 1.1.8.8 1.7 1.7 2.4 2.7.8.9 1.5 1.9 2.1 2.8.4.4.7.9 1 1.2.3.4.6.7.9 1.1.3.3.6.6.8.9.3.3.4.4.6.4.1.1.2-.2.1-.3s-.2 0-.2 0 0-.1.2 0c.1 0 .1.1.2.3.1.1 0 .4-.2.5-.4.2-.8 0-1.1-.2-.3-.2-.7-.4-1.1-.6-.8-.5-1.6-1.2-2.5-2-.4-.4-.8-.8-1.2-1.3-.4-.4-.8-.9-1.2-1.4-.4-.5-.7-.9-1.1-1.4-.4-.4-.7-.9-1-1.3-.3-.4-.7-.8-1-1.2s-.6-.7-.9-1l-.8-.8c-.3-.2-.5-.5-.7-.6-.5-.7-.8-.9-.8-.9zm21.1 10s1-1.1 2.5-2.6c.8-.7 1.7-1.6 2.7-2.5s2.1-1.8 3.2-2.7 2.2-1.8 3.2-2.6 2-1.6 2.9-2.2c1.7-1.3 3-2 3-2s-.8 1.2-2.2 2.9c-.7.8-1.6 1.7-2.5 2.7-.5.5-1 1-1.5 1.4-.5.5-1.1.9-1.6 1.4-1.1.9-2.2 1.8-3.3 2.6-1.1.8-2.2 1.5-3.1 2-2 1-3.3 1.6-3.3 1.6zm1.9 11.1s.3.2.7.4c.4.3 1 .7 1.7 1.2.3.2.7.5 1.1.8l1.2.9c.8.6 1.7 1.2 2.6 1.9.9.6 1.8 1.2 2.6 1.8.4.3.8.6 1.2.8.4.3.8.5 1.1.8.7.5 1.3.9 1.7 1.2.4.3.6.5.6.5s-.3 0-.8-.1-1.2-.2-2-.5c-.8-.2-1.8-.6-2.7-1.1-.5-.3-1-.5-1.5-.8s-1-.6-1.4-.9c-.5-.3-.9-.7-1.4-1-.4-.3-.8-.7-1.2-1.1-.8-.7-1.4-1.5-2-2.2-.5-.7-.9-1.3-1.2-1.7-.1-.6-.3-.9-.3-.9zm19.6 5.3s.4-1.2 1.4-2.8c.5-.8 1-1.7 1.7-2.7.7-.9 1.4-1.9 2.2-2.8.4-.5.8-.9 1.2-1.4.4-.4.8-.9 1.3-1.3.8-.8 1.6-1.5 2.4-2.1 1.4-1.2 2.6-1.8 2.6-1.8s-.6 1.1-1.7 2.6c-.5.7-1.2 1.6-1.9 2.5-.7.9-1.5 1.8-2.3 2.7s-1.6 1.8-2.4 2.6-1.5 1.6-2.2 2.2c-1.3 1.5-2.3 2.3-2.3 2.3zm-1.1 13.7s1.2.4 2.7 1.2c.8.4 1.7.9 2.6 1.5s1.9 1.3 2.8 2c.4.4.9.7 1.3 1.1l1.2 1.2c.8.8 1.5 1.5 2 2.2 1.1 1.4 1.7 2.4 1.7 2.4s-1.1-.6-2.5-1.6c-.7-.5-1.5-1.1-2.4-1.7-.9-.6-1.8-1.4-2.7-2.1-.9-.7-1.8-1.5-2.6-2.2-.8-.7-1.6-1.4-2.2-2-1.1-1.1-1.9-2-1.9-2zm20.5 6.3s.5-1.1 1.5-2.5c.5-.7 1.1-1.5 1.7-2.3.7-.8 1.4-1.7 2.2-2.5l2.3-2.3c.8-.7 1.5-1.4 2.2-1.9 1.3-1.1 2.3-1.7 2.3-1.7s-.5 1.1-1.5 2.5c-.5.7-1.1 1.5-1.7 2.3-.7.8-1.4 1.7-2.2 2.5l-2.3 2.3c-.8.7-1.5 1.4-2.2 1.9-1.2 1.1-2.3 1.7-2.3 1.7zm-2.4-31.8s1 .6 2.4 1.6c.7.5 1.5 1.1 2.3 1.8s1.6 1.5 2.4 2.3 1.6 1.6 2.3 2.4c.7.8 1.3 1.6 1.8 2.3.3.3.5.7.7 1s.4.6.5.7c.1 0 .1.1.1.1v-.1c0-.1-.1 0-.1 0v-.1h.2c.1.1.2.1.1.3s-.3.3-.5.2c-.2 0-.3-.1-.5-.2-.1-.1-.3-.2-.4-.3-.3-.2-.6-.4-1-.7-.7-.5-1.5-1.1-2.3-1.8s-1.6-1.5-2.4-2.3-1.6-1.6-2.3-2.4c-.7-.8-1.3-1.6-1.8-2.3-1-1.5-1.5-2.5-1.5-2.5zm-.6-9.7s.5-1 1.3-2.4c.4-.7.9-1.5 1.5-2.3s1.2-1.7 1.8-2.5c.6-.9 1.3-1.7 1.9-2.5s1.2-1.5 1.7-2.1c1.1-1.2 1.9-2 1.9-2s-.3 1.1-.9 2.6c-.3.8-.8 1.6-1.3 2.5-.3.4-.5.9-.8 1.3-.3.4-.6.9-.9 1.3-.6.9-1.3 1.7-2 2.5-.7.7-1.4 1.4-2 1.9-1.2 1.1-2.2 1.7-2.2 1.7zm13.4-12.2s.9.7 2 1.8c.6.6 1.2 1.3 1.9 2 .7.8 1.3 1.6 2 2.5.6.9 1.2 1.7 1.8 2.6.5.8 1 1.7 1.4 2.4.8 1.4 1.1 2.5 1.1 2.5s-.9-.7-2-1.8c-.6-.6-1.2-1.3-1.9-2-.7-.8-1.3-1.6-2-2.5-.6-.9-1.2-1.8-1.8-2.6-.5-.8-1-1.7-1.4-2.4-.7-1.4-1.1-2.5-1.1-2.5zm2.5 29.6s0-.8.2-1.9c.2-1.1.7-2.5 1.4-3.8.7-1.3 1.5-2.5 2.3-3.3s1.4-1.2 1.4-1.2-.1.8-.4 1.8-.9 2.4-1.5 3.6c-.7 1.2-1.4 2.4-2.1 3.3-.7.9-1.3 1.5-1.3 1.5zm-2-41.1s.1-1 .6-2.4c.2-.7.5-1.5.9-2.4.3-.9.7-1.7 1.2-2.6.4-.9.9-1.7 1.4-2.5s1-1.5 1.4-2.1c.9-1.2 1.6-1.9 1.6-1.9s-.1 1-.6 2.4c-.2.7-.5 1.5-.9 2.4-.3.9-.7 1.7-1.2 2.6-.4.9-.9 1.7-1.4 2.5s-1 1.5-1.4 2.1c-.9 1.2-1.6 1.9-1.6 1.9zm-29.5 5s.1-.3.4-.7.7-1.1 1.2-1.8 1.1-1.5 1.7-2.4 1.3-1.8 2-2.7 1.4-1.8 2.1-2.6 1.3-1.6 1.9-2.2c.6-.7 1.1-1.2 1.5-1.5l.6-.6s-.3 1.2-1.1 2.8c-.4.8-.9 1.7-1.5 2.6-.3.5-.6 1-.9 1.4-.3.5-.7.9-1 1.4-.7.9-1.5 1.8-2.3 2.6s-1.5 1.5-2.2 2c-1.4 1.1-2.4 1.7-2.4 1.7zm16-13.4s.2.1.6.2c.3.1.9.3 1.4.6 1.1.6 2.5 1.7 3.5 3 1.1 1.3 1.8 2.8 2.2 4.1.4 1.2.4 2.1.4 2.1l-.4-.4c-.2-.3-.6-.7-1-1.1-.8-.9-1.8-2.1-2.7-3.3-1-1.2-2-2.4-2.7-3.4-.4-.5-.7-.9-.9-1.2-.3-.4-.4-.6-.4-.6zm-37.5 1.5s1 .4 2.4 1.3c.7.4 1.4 1 2.2 1.7.8.7 1.6 1.4 2.3 2.2.4.4.7.8 1.1 1.2l.9 1.2c.6.8 1.1 1.6 1.5 2.3.8 1.4 1.1 2.5 1.1 2.5s-.2-.2-.6-.5-.9-.8-1.4-1.3l-1.9-1.9c-.7-.7-1.4-1.5-2.1-2.2-.7-.8-1.4-1.6-2-2.3-.7-.7-1.2-1.5-1.7-2.1s-.9-1.2-1.2-1.6c-.5-.3-.6-.5-.6-.5zm-1.4-13.2c.3.3.7.3 1.1.1.3-.2.6-.4.9-.7.2-.3.5-.6.6-.9l.4-1.1c.6-1.4.9-2.9 1.3-4.4l.9-4.5c.3-1.5.5-3 .7-4.5.4-3 .8-6.1 1.1-9.1.3-3.1.6-6.1.8-9.2.2-3.1.4-6.1.6-9.2.1-1.5.1-3 .1-4.6 0-1.5-.1-3-.3-4.5-.3-3-.7-6-1.4-8.9-.4-1.4-.9-2.8-1.6-4.1-.7-1.2-1.6-2.3-2.7-2.7l1.3-.8c-.6 5.7-.9 11.5-1.3 17.2-.3 5.8-.6 11.5-.8 17.3l-.8 17.3c-.2 5.8-.4 11.6-.9 17.3zm0 0v-17.3c0-5.8.1-11.6.2-17.3.1-5.8.3-11.6.5-17.3.1-2.9.3-5.8.4-8.7.1-1.4.2-2.9.3-4.3.1-1.4.3-2.9.4-4.3l.1-1.2 1.2.4c.9.3 1.7.9 2.3 1.5.6.6 1.1 1.4 1.5 2.1.8 1.5 1.3 3 1.7 4.5.8 3.1 1.2 6.2 1.4 9.3.1 1.6.2 3.1.2 4.7s0 3.1-.1 4.7c-.1 1.5-.2 3.1-.3 4.6-.1 1.5-.3 3.1-.4 4.6-.3 3.1-.7 6.1-1.1 9.2-.4 3.1-.9 6.1-1.4 9.1l-.9 4.5c-.3 1.5-.7 3-1.1 4.5s-.9 3-1.5 4.4l-.5 1c-.2.4-.4.7-.7.9-.3.3-.6.5-1 .6-.4.2-.9.1-1.2-.2zm-17.7-41c-.6 1-.9 2-1.1 3.1l-.6 3.3c-.3 2.2-.4 4.4-.2 6.6 0 1.1.2 2.1.5 3.2s.6 2.1.9 3.1c.7 2.1 1.6 4.1 2.5 6.1l2.7 6.1c.2.5.5 1 .7 1.5s.5.9.8 1.4c.5.9 1.1 1.8 1.8 2.6 1.3 1.7 2.9 3.1 4.7 4.3 1.8 1.2 3.7 2.2 5.7 3.1l-1.3 1.3c-1.7-3.7-3.4-7.5-5-11.2l-2.3-5.7c-.8-1.9-1.5-3.8-2.2-5.7s-1.6-3.7-2.4-5.6c-.8-1.9-1.6-3.8-2.3-5.7-.7-1.9-1.4-3.8-2-5.8-.3-1-.6-2-.8-3-.1-.5-.2-1-.2-1.5-.2-.5-.2-1 .1-1.5zm0 0c-.2.5-.2 1-.1 1.5l.3 1.5c.3 1 .6 1.9 1 2.9.7 1.9 1.6 3.8 2.4 5.6.9 1.8 1.7 3.7 2.6 5.5s1.8 3.7 2.7 5.6l2.4 5.6 2.5 5.6c1.7 3.7 3.3 7.5 5.1 11.2l1.1 2.5-2.5-1.2c-2-1-4.1-2-6-3.3s-3.7-2.9-5.1-4.7c-.7-.9-1.3-1.9-1.9-2.9-.3-.5-.5-1-.8-1.6-.3-.5-.4-1-.7-1.6l-2.5-6.2c-.8-2.1-1.7-4.1-2.4-6.3-.3-1.1-.6-2.2-.8-3.3-.2-1.1-.3-2.3-.3-3.4 0-2.3.3-4.5.7-6.7.2-1.1.5-2.2.8-3.3.4-1 .8-2.1 1.5-3z"/><path d="M414.2 520.7l.5 1.7.4 1.7.3 1.7.3 1.7.2 1.8.1 1.8v1.8l-.1 1.8-.2 1.8-.2 1.8-.3 1.7-.4 1.7-.5 1.7-.6 1.7-.7 1.7-.7 1.6-.8 1.6-.9 1.6c-.6 1-1.3 2-2 2.9l-1.1 1.4-1.2 1.4-1.2 1.3-1.3 1.2-1.4 1.2-1.4 1.1c-.5.4-1 .7-1.5 1s-1 .6-1.5 1c-.5.3-1.1.6-1.6.9-.5.3-1.1.5-1.6.8-.6.2-1.1.4-1.7.6l-1.8.5-1.4.4.2-1.5c.2-1.1.4-2.2.8-3.3.3-1.1.8-2.1 1.3-3 .5-1 1-1.9 1.5-2.9.5-.9 1.1-1.8 1.7-2.7 1.2-1.8 2.3-3.5 3.5-5.3.6-.9 1.1-1.8 1.6-2.7l1.5-2.8 3-5.6 3.1-5.5c1.9-3.9 4-7.6 6.1-11.3zm0 0c-1.8 3.8-3.6 7.6-5.4 11.5l-2.8 5.7-2.8 5.7-1.4 2.8c-.5 1-1 1.9-1.6 2.8-1.1 1.8-2.3 3.6-3.3 5.4-1.1 1.8-2.2 3.6-3 5.4-.4.9-.8 1.9-1.1 2.8-.3.9-.5 1.9-.6 2.9l-1.2-1.1 1.6-.5 1.6-.6c.5-.2 1-.4 1.5-.7s1-.5 1.5-.8 1-.6 1.4-.9l1.4-1 1.3-1 1.3-1.1 1.2-1.2 1.2-1.2 1.1-1.3 1.1-1.3c.7-.9 1.4-1.8 2-2.8l.9-1.4.9-1.5.8-1.5.7-1.6.6-1.6.5-1.6.5-1.6.4-1.7.3-1.7.2-1.7.2-1.7.1-1.7v-1.7l-.1-1.7-.1-1.7-.2-1.7-.3-1.7-.4-1.7zm.6 32.4s1 .6 2.3 1.7c.7.5 1.4 1.2 2.2 2 .8.8 1.5 1.6 2.3 2.4.7.9 1.4 1.8 2.1 2.6.6.9 1.2 1.7 1.6 2.5.9 1.5 1.3 2.6 1.3 2.6s-1-.7-2.2-1.9l-2.1-2.1c-.7-.8-1.5-1.6-2.2-2.5s-1.4-1.7-2.1-2.6c-.6-.8-1.2-1.6-1.7-2.4-1-1.2-1.5-2.3-1.5-2.3zm18.7 11.5s.5-1.2 1.5-2.9c.5-.8 1.1-1.8 1.7-2.8.7-1 1.4-2 2.2-3 .8-1 1.6-2 2.4-2.9s1.5-1.7 2.2-2.4c1.4-1.4 2.4-2.2 2.4-2.2s-.5 1.2-1.5 2.9c-.5.8-1.1 1.8-1.7 2.8-.7 1-1.4 2-2.2 3-.8 1-1.6 2-2.4 2.9s-1.5 1.7-2.2 2.4c-1.3 1.4-2.4 2.2-2.4 2.2zM270.8 567s.2-.2.5-.6c.4-.4.9-1 1.5-1.6s1.4-1.4 2.2-2.1c.8-.8 1.7-1.6 2.5-2.4.9-.8 1.8-1.6 2.6-2.3.8-.7 1.6-1.4 2.3-2 .7-.6 1.3-1 1.7-1.3.4-.3.7-.5.7-.5s-.5 1.1-1.6 2.6c-.5.8-1.2 1.6-1.9 2.4-.4.4-.8.9-1.2 1.3-.4.4-.9.8-1.3 1.3-.9.8-1.8 1.6-2.8 2.3-.9.7-1.8 1.3-2.6 1.7-1.4.8-2.6 1.2-2.6 1.2zm-6.9-1.5s-1.2-.6-2.7-1.7c-.8-.6-1.6-1.3-2.5-2.1-.4-.4-.9-.8-1.3-1.3-.4-.4-.8-.9-1.3-1.4l-1.2-1.5c-.4-.5-.7-1-1.1-1.5-.7-1-1.2-1.9-1.6-2.8-.9-1.7-1.3-2.9-1.3-2.9l.6.6c.4.4.9 1 1.6 1.7.6.7 1.4 1.5 2.1 2.4.8.9 1.6 1.8 2.4 2.8.8.9 1.6 1.9 2.3 2.8.7.9 1.4 1.7 2 2.5.6.7 1 1.4 1.4 1.8.5.3.6.6.6.6zm-14.1 12.1s.6.5 1.3 1.3 1.6 1.9 2.3 3.1c.7 1.2 1.3 2.4 1.7 3.5.4 1 .5 1.8.5 1.8s-.7-.4-1.5-1.1c-.8-.7-1.7-1.8-2.5-3.1-.7-1.2-1.3-2.5-1.6-3.6-.2-1.2-.2-1.9-.2-1.9zm8.9 5.4s0-.9.2-2.1c.2-1.2.8-2.8 1.5-4.2s1.7-2.8 2.5-3.7 1.5-1.4 1.5-1.4-.1.9-.5 2c-.4 1.2-1 2.6-1.7 4s-1.5 2.8-2.2 3.7c-.7 1-1.3 1.7-1.3 1.7zm-7.8 26s.6.4 1.3 1.1c.7.7 1.6 1.7 2.3 2.9.7 1.1 1.2 2.3 1.5 3.3s.4 1.7.4 1.7-.6-.4-1.3-1.1c-.7-.7-1.6-1.7-2.3-2.9-.7-1.1-1.2-2.3-1.5-3.3-.3-.9-.4-1.7-.4-1.7zm55.1 35.7s.1-.2.4-.5.7-.8 1.2-1.3 1-1.1 1.7-1.8c.6-.6 1.3-1.3 1.9-2 .7-.7 1.3-1.3 2-1.9.6-.6 1.2-1.2 1.8-1.6.5-.5 1-.9 1.3-1.1.3-.3.5-.4.5-.4s-.3 1-1 2.3c-.3.7-.8 1.4-1.4 2.1-.3.4-.6.7-.9 1.1-.3.4-.7.7-1 1.1-.4.3-.7.7-1.1 1s-.7.6-1.1.9c-.7.5-1.5 1-2.1 1.3-1.2.5-2.2.8-2.2.8z"/><path d="M247 575.9l2.4.3c1.5.2 3.8.4 6.7.6 5.8.5 14.1.9 24 .5 1.2-.1 2.5-.1 3.8-.2.6-.1 1.3-.1 1.9-.1.7-.1 1.3-.1 2-.2 2.7-.3 5.4-.6 8.3-.9 5.6-.5 11.6-1.3 17.8-1.9 6.2-.7 12.6-1.3 19.1-1.9 6.5-.6 13.1-1.1 19.8-1.5 6.6-.4 13.3-.8 19.8-1 6.5-.3 13-.3 19.2-.3 12.5 0 24.1.5 34 1.4 2.5.2 4.9.4 7.1.6 2.3.2 4.4.5 6.4.7 4 .4 7.5.7 10.4.8s5.2.1 6.7 0c1.6-.1 2.4-.1 2.4-.1l-2.4.3c-1.5.2-3.8.4-6.7.4-2.9.1-6.5 0-10.5-.3-4-.2-8.6-.5-13.6-.7s-10.3-.4-16-.5-11.7 0-17.9 0c-3.1.1-6.3.1-9.4.2-3.2.1-6.4.2-9.7.4-6.5.3-13.1.6-19.7 1.1-6.6.4-13.2.9-19.7 1.4-6.5.6-12.9 1.1-19.1 1.6s-12.2 1.1-17.9 1.6c-2.8.2-5.6.4-8.3.6-.7 0-1.3.1-2 .1-.7.1-1.3.1-2 .1-1.3 0-2.6.1-3.8.1-5 .1-9.6-.2-13.6-.5s-7.6-.7-10.4-1.1c-2.9-.4-5.1-.8-6.7-1l-2.4-.6zm13 49.3s.2.2.4.6c.3.4.6.9 1 1.5s.9 1.3 1.3 2.1c.5.8 1 1.6 1.4 2.4.5.8 1 1.7 1.4 2.4.4.8.8 1.5 1.2 2.2l.8 1.6.3.6s-.9-.5-2-1.6c-.6-.5-1.1-1.2-1.7-1.9-.3-.4-.6-.7-.9-1.2-.3-.4-.5-.8-.8-1.3-.2-.4-.5-.9-.7-1.3-.2-.4-.4-.9-.6-1.3-.3-.9-.6-1.7-.8-2.4-.3-1.4-.3-2.4-.3-2.4z"/><path d="M310.3 576.7s.1 0 .2.1c.1 0 .3.1.6.2.5.2 1.2.6 1.8 1.1.7.6 1.4 1.3 2.1 2.1s1.4 1.6 2.1 2.5 1.4 1.7 2 2.6c.6.8 1.2 1.6 1.7 2.3 1 1.4 1.6 2.4 1.6 2.4s-1-.5-2.4-1.6c-.7-.5-1.4-1.2-2.2-2-.4-.4-.8-.8-1.1-1.2-.4-.4-.7-.9-1.1-1.3-.7-.9-1.4-1.8-2-2.7s-1.1-1.7-1.5-2.4c-.5-.7-.9-1.2-1.2-1.6-.4-.3-.6-.5-.6-.5z"/></svg>