<?xml version="1.0" encoding="utf-8"?>
<!-- Generator: Adobe Illustrator 19.2.0, SVG Export Plug-In . SVG Version: 6.00 Build 0)  -->
<svg version="1.1" id="Layer_1" xmlns="http://www.w3.org/2000/svg" xmlns:xlink="http://www.w3.org/1999/xlink" x="0px" y="0px"
	 viewBox="0 0 700 700" style="enable-background:new 0 0 700 700;" xml:space="preserve">
<style type="text/css">
	.st0{fill:none;}
	.st1{fill:none;stroke:#000000;stroke-width:5;stroke-miterlimit:10;}
	.st2{opacity:0.9;fill:url(#SVGID_1_);enable-background:new    ;}
	.st3{fill:url(#SVGID_2_);}
	.st4{fill:none;stroke:#000000;stroke-width:2;stroke-miterlimit:10;}
</style>
<rect class="st0" width="700" height="700"/>
<path class="st1" d="M6708.6-568.1c0.3,38.5,0.2,82.4-5.7,120.5c-2.3,14.7-3.7,31.7-10.6,44.9c-9.4,17.9-18.6,35.9-34,49.5
	c-5.5,4.9-11.5,9.2-17.9,12.8c-4.2,2.3-15.3,5.1-15.9,10.8c-0.4,3.6,3.8,5.7,6.9,7.6c6.9,4.3,10.9,12.3,11.6,20.4
	c1.5,15.4-5.6,30.7-18.9,38.8c-0.8,0.5-1.6,1-1.9,1.8c-0.7,2.1,2.1,3.4,4.2,3.8c12.1,2.1,24,5,35.7,8.7c7.7,2.4,24.3,10.6,12,18.5
	c-7.7,4.9-17,6.2-26,7.3c-24.7,3.1-49.7,6.2-74.5,3.9c-5.6-0.5-11.2-1.4-16.8-2.2c-7.5-1.1-15-2.2-22.5-3.3
	c-5.3-0.8-11.8-2.7-12.7-7.9c-1.7-10.2,16.6-15.1,23.6-17.2c4.9-1.5,36.5-4.6,35.6-9.3c-0.5-2.4-2.8-3.9-4.8-5.4
	c-8.9-6.4-15-16.4-16.6-27.2c-1.6-10.8,1.3-22.2,7.9-30.9c2.2-2.9,4.9-6,4.4-9.6c-0.2-1.5-1-2.9-2-4.1c-5.1-6.7-15.9-9.5-22.8-14.7
	c-7.9-6-15.2-12.8-21.6-20.4c-12.5-14.5-22.1-31.5-27.6-49.9c-5.2-17.2-6.9-35.3-8.2-53.2c-2.3-31-3.6-62-3.8-93.1
	c20.2-2.4,42-1.8,62.4-1.4C6600.9-567.5,6708.6-570.2,6708.6-568.1z"/>
<g>
	<path d="M6582-253.2c0,0,0,0.2,0,0.5s0,0.8,0,1.4c0,0.6,0.1,1.3,0.6,1.9c0.4,0.6,1.2,0.8,2.2,0.8c2.1-0.1,4.5-0.2,7.1-0.2
		c1.3,0,2.7-0.1,4-0.1c1.4-0.1,2.8-0.1,4.1-0.2c1.4-0.1,2.8-0.1,4.1-0.2c1.4-0.1,2.7-0.1,4-0.2c2.6-0.1,5-0.2,7.1-0.3
		c2-0.1,3.7-0.6,4.6-1.3c0.4-0.4,0.7-0.8,0.8-1.1c0.1-0.3,0.2-0.5,0.2-0.5s0,0.2,0,0.5c-0.1,0.3-0.2,0.8-0.6,1.3s-1.1,1-1.9,1.4
		s-1.8,0.7-2.8,0.8c-2.1,0.4-4.5,0.7-7.1,0.9c-1.3,0.1-2.7,0.3-4,0.4c-1.4,0.1-2.8,0.2-4.2,0.2c-1.4,0-2.8,0.1-4.2,0.1
		c-1.4,0-2.7,0-4.1,0c-2.6-0.1-5.1-0.2-7.2-0.4c-0.5-0.1-1.1-0.1-1.6-0.4c-0.5-0.3-0.9-0.7-1.1-1.1c-0.4-0.9-0.4-1.7-0.3-2.3
		s0.2-1.1,0.3-1.4C6581.9-253,6582-253.2,6582-253.2z"/>
</g>
<g>
	<path d="M6581.6-337.8c0,0,0.6,0.2,1.6,0.5c0.5,0.2,1.2,0.3,1.9,0.5c0.7,0.2,1.6,0.4,2.4,0.5c0.9,0.2,1.9,0.3,2.9,0.5
		c1,0.1,2.1,0.2,3.3,0.3c1.1,0.1,2.3,0.1,3.5,0.2c1.2,0,2.4,0,3.6,0s2.5,0,3.7-0.1c1.2,0,2.4-0.1,3.6-0.1c2.3-0.1,4.5-0.1,6.3-0.3
		c1.8-0.2,3.2-0.6,4.1-1.2c0.4-0.3,0.8-0.6,1-0.8c0.2-0.2,0.3-0.3,0.3-0.3s-0.1,0.1-0.2,0.4c-0.2,0.3-0.4,0.6-0.8,1
		c-0.8,0.8-2.3,1.6-4.2,2c-0.9,0.2-2,0.4-3,0.5c-1.1,0.1-2.2,0.3-3.3,0.4c-1.2,0.1-2.4,0.2-3.6,0.3c-1.2,0.1-2.5,0.1-3.7,0.2
		c-1.3,0-2.5,0-3.7-0.1c-0.6,0-1.2-0.1-1.8-0.1c-0.6-0.1-1.2-0.1-1.8-0.2c-1.2-0.1-2.3-0.4-3.4-0.6c-0.5-0.1-1-0.3-1.5-0.4
		c-0.5-0.2-1-0.3-1.4-0.4c-1.8-0.6-3.2-1.3-4.2-1.8C6582.2-337.5,6581.6-337.8,6581.6-337.8z"/>
</g>
<g>
	<path d="M6531.5-235.7c0,0,0.1,0.1,0.3,0.3c0.2,0.2,0.5,0.4,1,0.6c0.9,0.5,2.3,1,4.2,1.4c1.9,0.4,4.2,0.7,6.8,1.1
		c2.6,0.4,5.6,0.7,8.9,1.1c3.3,0.3,6.8,0.7,10.6,1c3.7,0.3,7.7,0.5,11.8,0.7c8.2,0.3,17,0.5,25.7,0.6c4.4,0.1,8.8,0.1,13.1,0.2
		c4.3,0,8.5,0.1,12.6,0s8-0.4,11.7-0.8c3.7-0.5,7.2-1.1,10.4-1.7c6.4-1.4,11.6-3,15.2-4.3c1.8-0.7,3.2-1.2,4.2-1.6
		c1-0.4,1.5-0.6,1.5-0.6s-0.5,0.2-1.4,0.7c-0.9,0.4-2.3,1.1-4.1,1.8c-3.5,1.5-8.7,3.5-15.1,5.1s-14.1,2.9-22.3,3.2
		c-4.1,0.2-8.4,0.2-12.7,0.2c-4.3,0-8.7-0.1-13.1-0.1c-4.4-0.1-8.8-0.2-13.1-0.3c-4.3-0.1-8.6-0.4-12.7-0.6c-4.1-0.3-8.1-0.6-11.8-1
		c-3.8-0.4-7.3-0.8-10.6-1.3c-1.6-0.3-3.2-0.5-4.7-0.7c-1.5-0.3-2.9-0.5-4.2-0.8c-2.6-0.5-4.9-1-6.8-1.5s-3.3-1.1-4.1-1.7
		c-0.4-0.3-0.7-0.5-0.9-0.7C6531.6-235.6,6531.5-235.7,6531.5-235.7z"/>
</g>
<linearGradient id="SVGID_1_" gradientUnits="userSpaceOnUse" x1="6498.7998" y1="1146.2887" x2="6704.7002" y2="1146.2887" gradientTransform="matrix(1 0 0 -1 0 700)">
	<stop  offset="1.785714e-02" style="stop-color:#801FE3"/>
	<stop  offset="1" style="stop-color:#B7A7FF"/>
</linearGradient>
<path class="st2" d="M6498.8-539.9c1.4,24.4,2.7,48.8,4.1,73.2c0.4,7.9,0.9,15.9,2.2,23.7c1.8,11.1,5.4,21.8,8.9,32.5
	c3,9.1,6,18.2,11.1,26.3c17.8,28.1,51.5,32.7,81.9,31.3c10.6-0.5,21.3-1.5,31.5-4.7c66.9-21.3,65.2-117,66.1-172.7
	c0-2.6,0.1-5.1,0.1-7.7C6636-535.8,6567.2-534,6498.8-539.9z"/>
<g>
	<path d="M6493.7-559.6c0,0,0.6,8.1,1.5,22.2c0.5,7.1,1,15.6,1.7,25.5c0.6,9.8,1.4,20.9,2.1,33.1c0.4,6.1,0.7,12.4,1.3,18.9
		c0.5,6.5,1.4,13.2,3,19.9c1.6,6.7,3.7,13.5,6,20.4c2.4,6.9,4.5,14,7.5,20.9c0.8,1.7,1.5,3.4,2.4,5.1c0.9,1.6,1.8,3.3,2.8,4.8
		c1.1,1.6,2.2,3.1,3.4,4.7c1.2,1.4,2.5,2.8,3.7,4.3c5.3,5.5,11.7,10,18.8,13.2c7.1,3.3,14.8,5.4,22.6,6.6c7.9,1.3,15.9,1.7,23.9,1.7
		c8-0.1,16.1-0.4,24-1.5c3.9-0.5,7.9-1.2,11.7-2.2c1-0.3,1.9-0.5,2.8-0.8l0.7-0.2c0.1,0,0,0,0.1,0l0.2-0.1l0.4-0.1l1.4-0.5l2.8-1
		c0.5-0.2,0.9-0.3,1.4-0.5l1.3-0.6c7.1-3.1,13.7-7.4,19.4-12.5c5.7-5.1,10.5-11.1,14.4-17.5c4-6.3,7.1-13.1,9.7-19.8
		c2.6-6.8,4.6-13.6,6.3-20.3c3.2-13.5,5-26.5,6.2-38.5c1.1-12.1,1.7-23.2,2-33c0.3-9.9,0.5-18.4,0.7-25.5
		c0.2-14.2,0.4-22.2,0.4-22.2s0,2,0.1,5.8c0,3.8,0.1,9.4,0.2,16.4c0,7.1,0,15.7-0.2,25.5c-0.1,9.9-0.5,21-1.5,33.1
		s-2.6,25.2-5.7,38.9c-1.6,6.8-3.6,13.7-6.1,20.6s-5.7,13.8-9.8,20.3c-4,6.5-9,12.7-14.8,18.1c-5.9,5.4-12.7,9.8-20.2,13.1l-1.4,0.6
		c-0.5,0.2-0.9,0.4-1.4,0.5l-2.8,1l-1.4,0.5l-0.4,0.1l-0.2,0.1l-0.2,0.1l-0.7,0.2c-1,0.3-2,0.6-2.9,0.8c-3.9,1-8,1.8-12,2.4
		c-8.1,1.1-16.2,1.5-24.4,1.6c-8.2,0-16.3-0.5-24.4-1.8c-8-1.3-16-3.5-23.3-7c-7.4-3.4-14.1-8.1-19.6-13.9c-1.3-1.5-2.6-3.1-3.9-4.6
		c-1.1-1.6-2.2-3.2-3.3-4.7c-2.2-3.4-3.9-6.8-5.4-10.4c-3-7.1-5.2-14.2-7.5-21.2c-2.2-7-4.3-13.9-5.8-20.7
		c-1.6-6.9-2.4-13.6-2.8-20.2c-0.5-6.6-0.7-12.9-1-18.9c-0.6-12.1-1.1-23.2-1.6-33.1c-0.5-9.9-0.8-18.4-1.2-25.5
		C6494-551.6,6493.7-559.6,6493.7-559.6z"/>
</g>
<g>
	<path d="M6494.1-544.2c0,0,0.8,0,2.4,0.1s3.8,0.2,6.7,0.3c2.9,0.2,6.4,0.3,10.5,0.5c4,0.2,8.6,0.3,13.6,0.5s10.4,0.3,16.1,0.5
		s11.7,0.2,17.9,0.4c6.2,0.1,12.6,0.1,19.2,0.2c6.5,0.1,13.2,0,19.8,0.1c6.6,0,13.3,0,19.8-0.1s13-0.1,19.2-0.2
		c12.5-0.1,24.1-0.2,34-0.3c10-0.1,18.3-0.1,24.1-0.1c2.9,0,5.2,0,6.7,0c1.6,0,2.4,0,2.4,0s-0.8,0.1-2.4,0.2
		c-1.6,0.1-3.8,0.2-6.7,0.4c-5.8,0.3-14.1,0.8-24.1,1.3s-21.6,0.9-34,1.3c-6.2,0.1-12.7,0.4-19.2,0.4c-6.5,0.1-13.2,0.1-19.8,0.2
		c-6.6,0-13.3,0-19.8-0.2c-6.5-0.1-13-0.3-19.2-0.4c-6.2-0.2-12.3-0.4-18-0.8c-2.9-0.2-5.6-0.3-8.3-0.5c-2.7-0.2-5.3-0.4-7.8-0.5
		c-2.5-0.2-4.9-0.3-7.1-0.5c-2.3-0.2-4.4-0.4-6.4-0.6c-4-0.4-7.6-0.7-10.4-1c-2.9-0.3-5.2-0.6-6.7-0.7
		C6494.9-544.1,6494.1-544.2,6494.1-544.2z"/>
</g>
<g>
	<linearGradient id="SVGID_2_" gradientUnits="userSpaceOnUse" x1="351.9364" y1="447.2635" x2="351.9364" y2="693.2758">
		<stop  offset="0" style="stop-color:#FF9E00"/>
		<stop  offset="1" style="stop-color:#B75800"/>
	</linearGradient>
	<path class="st3" d="M486,591.5c-0.8-12.1-2.5-24.2-4.8-36.1c-4.5-23.5-11.2-46.4-17.8-69.3c-3.7-12.6-7.3-25.2-11-37.8
		c-37.6-1.6-75.4-1.2-113,1.1c-33.8,2.1-67.6,5.7-101.4,3.7c-0.3,0-0.6-0.1-0.8-0.1c-5.5,37.1-10.9,74.1-16.4,111.2
		c-2.2,14.9-4.4,29.8-4.9,44.8c-0.2,5.2-0.1,10.5,1.2,15.5c1.7,6.3,5.4,11.8,9.5,16.9c10,12.4,22.3,22.7,34.6,32.9
		c13.5,11.2,27.1,16.9,44.7,17.8c33.5,1.7,67.2,1.5,100.7-0.7c3.7-0.2,7.4-0.5,10.9-1.5c3.7-1.1,7.1-3,10.4-5
		c12.7-7.6,26-16.3,35.7-27.6c9.2-10.7,21.3-20,24-34.7C489.4,612.5,486.7,601.6,486,591.5z"/>
	<path class="st1" d="M234,419.9c-15.3,60.8-24.6,123.2-27.6,185.9c-0.3,7-0.6,14.1,1.4,20.8c1.7,6,5.1,11.3,8.7,16.4
		c12.1,17.2,59,53.1,67.6,54.4c40.9,6,126.5,0.6,137.7-4c30.8-12.7,63.3-48.1,71.2-69.8c0.4-1.2,0.6-2.4,0.6-3.7
		c-0.2-37.4-7-67.1-15.1-98.9c-9.1-36-22.2-72-30.1-108.3c-37.4,1-73.3-0.4-110.7,0.5c-10.9,0.3-21.8,0.6-32.8,0.8
		c-22.4,0.6-44.7,1.2-67.1,1.7c-1.1,0-2.5,0.2-2.8,1.3C234.5,418.1,234.3,421,234,419.9z"/>
	<g>
		<path d="M237.8,425.5c0,0-1.5,11.2-4.2,30.9c-2.8,19.6-6.7,47.7-11.4,81.3c-1.2,8.4-2.4,17.2-3.7,26.2c-1.3,9.1-2.6,18.4-3.5,28.1
			c-0.5,4.8-0.8,9.7-0.9,14.7c-0.2,4.9-0.1,10,1.1,14.7c1.2,4.8,3.7,9.2,6.7,13.4c1.5,2.1,3.1,4.1,4.8,6.1c1.7,2,3.4,3.9,5.2,5.8
			c7.3,7.6,15.4,14.7,23.8,21.6c2.1,1.8,4.2,3.5,6.3,5.2c2.1,1.6,4.4,3.2,6.7,4.6c2.3,1.4,4.7,2.8,7.1,3.9c1.2,0.6,2.5,1.1,3.7,1.7
			c1.3,0.5,2.5,1,3.8,1.4c5.2,1.7,10.6,2.8,16.1,3.3c2.7,0.2,5.5,0.3,8.4,0.5c2.8,0.1,5.6,0.2,8.4,0.3c11.3,0.4,22.6,0.6,33.9,0.5
			c11.3,0,22.6-0.3,33.9-0.7c5.6-0.2,11.2-0.5,16.8-0.9c5.6-0.3,11.1-0.5,16-2.6c2.5-1,4.8-2.4,7.2-3.8c2.4-1.4,4.7-2.9,7.1-4.3
			c4.6-2.9,9.2-6,13.5-9.3c4.3-3.3,8.4-6.8,12.1-10.6c0.9-0.9,1.8-1.9,2.7-2.9c0.9-1,1.8-2,2.7-3c1.8-2,3.7-3.9,5.5-5.8
			c3.6-3.8,7.1-7.7,10-11.9c2.8-4.2,4.9-8.9,5.8-13.7c0.9-4.9,0.7-9.9,0.3-14.8c-0.5-4.9-1.2-9.8-1.6-14.7
			c-1.2-19.4-4.5-37.5-8.2-54c-3.8-16.5-8-31.5-11.7-44.8c-3.8-13.3-7-24.9-9.7-34.4c-5.4-19.1-8.4-30-8.4-30s3.3,10.8,9,29.8
			c2.8,9.5,6.3,21,10.3,34.3c3.9,13.2,8.4,28.2,12.3,44.7c3.9,16.6,7.4,34.8,8.8,54.2c0.4,4.8,1.2,9.7,1.7,14.7
			c0.5,5,0.8,10.2-0.1,15.4c-0.9,5.3-3.1,10.3-6.1,14.7c-3,4.5-6.6,8.4-10.2,12.3c-1.8,1.9-3.7,3.9-5.4,5.8c-0.9,1-1.8,2-2.7,3
			c-0.9,1-1.8,2.1-2.8,3c-3.8,4-8,7.6-12.3,10.9c-4.4,3.4-9,6.5-13.7,9.4c-2.3,1.5-4.7,2.9-7.1,4.4c-2.4,1.4-4.9,2.9-7.5,4
			c-2.7,1.2-5.6,1.9-8.4,2.2c-2.9,0.4-5.7,0.5-8.5,0.7c-5.6,0.4-11.2,0.7-16.9,0.9c-11.3,0.5-22.6,0.8-34,0.8
			c-11.3,0-22.7-0.2-34-0.6c-2.8-0.1-5.6-0.2-8.5-0.4c-2.8-0.1-5.6-0.3-8.5-0.5c-5.7-0.6-11.3-1.6-16.7-3.5c-1.4-0.4-2.7-1-4-1.5
			c-1.3-0.6-2.6-1.1-3.9-1.7c-2.6-1.2-5-2.6-7.4-4.1c-2.4-1.5-4.7-3.1-6.9-4.8c-1.1-0.9-2.1-1.7-3.2-2.6l-3.2-2.6
			c-8.4-7-16.6-14.1-24-21.9c-1.8-1.9-3.6-3.9-5.3-6c-1.7-2-3.4-4.1-4.9-6.3c-3.1-4.3-5.7-9.1-7-14.2c-1.3-5.2-1.2-10.4-1-15.4
			c0.2-5,0.6-10,1.1-14.8c1-9.7,2.4-19.1,3.8-28.2c1.4-9.1,2.7-17.8,4-26.2c5.2-33.6,9.5-61.6,12.5-81.2
			C236.1,436.7,237.8,425.5,237.8,425.5z"/>
	</g>
	<g>
		<path d="M234.9,450.8c0,0,0.8,0,2.4,0c1.6,0,3.9,0,6.8,0c2.9-0.1,6.5-0.1,10.6-0.2c4.1-0.1,8.7-0.2,13.7-0.5
			c5-0.2,10.5-0.5,16.3-0.7c5.8-0.3,11.9-0.4,18.2-0.6c6.3-0.2,12.8-0.5,19.4-1c3.3-0.2,6.6-0.5,10-0.8c3.3-0.3,6.7-0.6,10.1-0.9
			c3.4-0.3,6.7-0.5,10.1-0.8c3.4-0.2,6.7-0.4,10-0.6c6.6-0.3,13.2-0.6,19.5-0.8c3.2-0.1,6.3-0.2,9.3-0.2c3-0.1,6,0,8.9,0
			c5.8,0,11.3,0.2,16.3,0.3c5.1,0.2,9.7,0.4,13.8,0.6c4.1,0.2,7.7,0.4,10.6,0.7c5.9,0.5,9.2,0.8,9.2,0.8l0,0.3c0,0-0.8,0-2.4,0
			c-1.6,0-3.9,0-6.8,0.1c-5.9,0-14.3,0.1-24.4,0.2c-10.1,0.1-21.9,0.2-34.5,0.3c-6.3,0-12.8,0.2-19.4,0.3
			c-6.6,0.1-13.4,0.3-20.1,0.4c-3.4,0.1-6.7,0.2-10.1,0.3c-3.4,0.2-6.7,0.3-10,0.6c-6.6,0.4-13.1,1.1-19.4,1.7
			c-6.3,0.6-12.4,1.3-18.2,1.6c-5.8,0.4-11.3,0.5-16.3,0.6c-5.1,0.1-9.7,0-13.8-0.1c-4.1-0.1-7.7-0.3-10.6-0.6
			c-3-0.2-5.3-0.5-6.8-0.6c-1.6-0.2-2.4-0.3-2.4-0.3L234.9,450.8z"/>
	</g>
	<path class="st4" d="M413.6,680c6.2-4.9,10-20.8,10.4-28.3c0.7-12.9,1.4-25.8,2-38.8c0.1-2.8,0.3-5.7-1-8.2
		c-2.2-4.4-7.7-5.9-12.5-6.8c-10.8-2-21.7-3.6-32.7-4.8c-9.8-1-18.4,2.2-27.7,5.4c-2.9,1-6,2.2-7.7,4.8c-1.2,1.9-1.6,4.1-1.8,6.4
		c-1.6,12-3.2,24.1-3.2,36.2c0,7,0.7,14.5,5,20.1c5.4,7.2,15,9.5,23.8,11.2c11.6,2.4,23.2,4.7,34.7,7.1c2.3,0.5,4.8,0.9,6.9-0.1
		C411.5,683.3,412.6,681.6,413.6,680z"/>
	<g>
		<path d="M374.5,595.7c0,0,0.1,0.3,0.3,0.9c0.2,0.6,0.5,1.5,0.7,2.6c0.1,0.6,0.3,1.2,0.4,1.9c0.1,0.7,0.3,1.4,0.4,2.2
			c0.3,1.6,0.6,3.4,0.8,5.4c0.4,4,0.7,8.7,0.8,13.6c0.1,2.5,0.2,5.1,0.4,7.6c0.2,2.6,0.3,5.2,1.1,7.6c0.4,1.2,1,2.2,1.8,3
			c0.8,0.8,1.8,1.4,3,1.8c1.2,0.4,2.4,0.7,3.6,1.1c1.2,0.3,2.4,0.7,3.6,1c4.8,1.3,9.3,2.4,13.2,3.3c3.9,0.9,7.1,1.6,9.4,2
			c2.3,0.4,3.6,0.7,3.6,0.7s-0.3,0-1-0.1c-0.6-0.1-1.5-0.1-2.7-0.2c-2.3-0.3-5.6-0.6-9.6-1.2c-4-0.6-8.5-1.5-13.4-2.7
			c-1.2-0.3-2.4-0.6-3.7-0.9c-1.2-0.3-2.5-0.6-3.8-1.1c-1.3-0.5-2.6-1.1-3.7-2.3c-1.1-1.1-1.8-2.4-2.2-3.8c-0.9-2.7-1-5.5-1.2-8.1
			c-0.1-2.6-0.2-5.2-0.2-7.7c0-2.5,0-4.9-0.1-7.2c0-2.3-0.1-4.4-0.2-6.4c-0.1-2-0.2-3.8-0.4-5.4c-0.1-0.8-0.2-1.6-0.3-2.2
			c-0.1-0.7-0.2-1.3-0.3-1.9c-0.2-1.1-0.3-2-0.5-2.7C374.5,596,374.5,595.7,374.5,595.7z"/>
	</g>
	<g>
		<path d="M379.3,641.6c0,0,0.2,0,0.4,0.3c0.2,0.3,0.1,0.8-0.2,1.3c-0.1,0.3-0.3,0.5-0.6,0.8c-0.2,0.2-0.5,0.5-0.8,0.7
			c-0.5,0.5-1.2,1.1-1.8,1.7c-1.4,1.2-3,2.6-4.7,4.1c-0.9,0.7-1.8,1.5-2.7,2.2c-0.9,0.7-1.9,1.5-2.8,2.3c-1,0.7-1.9,1.5-2.9,2.2
			c-0.9,0.7-1.9,1.4-2.8,2.1c-1.8,1.4-3.6,2.6-5.1,3.6c-3,2.1-5.2,3.3-5.2,3.3s1.7-1.8,4.5-4.2c1.4-1.2,3-2.6,4.7-4.1
			c0.9-0.7,1.8-1.5,2.7-2.2c0.9-0.7,1.9-1.5,2.8-2.3c1-0.7,1.9-1.5,2.9-2.2c0.9-0.7,1.9-1.4,2.8-2.1c1.8-1.4,3.6-2.6,5.1-3.6
			c0.8-0.5,1.5-1,2.1-1.4c0.3-0.2,0.6-0.4,0.9-0.6c0.2-0.2,0.4-0.3,0.6-0.5c0.3-0.4,0.5-0.8,0.4-1
			C379.5,641.6,379.3,641.6,379.3,641.6z"/>
	</g>
	<path class="st4" d="M346.5,582c-13.4,2.2-26.9,3.5-40.5,4c-3.6,0.1-7.3,0.2-10.8,1.2c-3.3,1-6.1,2.7-8.7,4.5
		c-9,6.1-17.1,14.1-16.9,23c0.1,3,1.1,6,2,8.9c3.8,13.6,2.7,27.8,6.5,41.4c0.9,3.1,2.1,6.3,5,8.6c5.2,4.2,14.1,4.5,21.9,3.8
		c11.7-0.9,23.3-3.2,35.1-2.9c3.9,0.1,8.3,0.4,11.3-1.6c3.2-2.1,3.1-5.6,3.4-8.7c0.7-5.7,3.7-11,5.4-16.6c2.7-9.2,1.4-19-3.8-27.5
		c-6.8-11.3-3.3-24.4-6.3-36.7c-0.1-0.5-0.3-1.1-0.8-1.5C348.9,581.8,346.9,581.6,346.5,582z"/>
	<g>
		<path d="M345.2,582.9c0,0-0.7,1.3-2.1,3.6c-1.4,2.3-3.2,5.6-5.6,9.5c-1.2,2-2.4,4.1-3.7,6.3c-1.3,2.3-2.5,4.7-3.5,7.3
			c-1,2.6-1.7,5.4-1.8,8.2c-0.1,2.8,0.4,5.8,1.2,8.6c0.8,2.9,1.9,5.7,2.9,8.5c1,2.8,2.1,5.6,3,8.2c2,5.3,3.7,10.4,5.5,14.5
			c1.8,4.2,3.6,7.5,5,9.7c1.4,2.2,2.3,3.5,2.3,3.5s-0.2-0.3-0.7-0.8c-0.5-0.5-1.1-1.3-1.9-2.4c-1.6-2.1-3.7-5.3-5.7-9.4
			c-2.1-4.1-4-9.1-6.1-14.4c-1-2.6-2.1-5.4-3.2-8.2c-1.1-2.8-2.2-5.6-3-8.6c-0.8-3-1.4-6.1-1.2-9.2c0.1-3.1,1-6.1,2.1-8.8
			c1.1-2.7,2.5-5.1,3.8-7.4c1.4-2.2,2.8-4.3,4-6.2c2.5-3.8,4.7-6.9,6.2-9.1C344.3,584.2,345.2,582.9,345.2,582.9z"/>
	</g>
	<g>
		<path d="M326.5,615.6c0,0-0.8,0-2.2,0c-1.4,0-3.3-0.1-5.7-0.1c-2.4-0.1-5.1-0.1-8-0.2c-2.9,0-6.1-0.1-9.2-0.2
			c-3.1,0-6.3-0.1-9.2-0.1c-2.9,0-5.7,0-8,0c-2.4,0-4.3,0-5.7,0c-1.4,0-2.2,0-2.2,0s0.8-0.1,2.1-0.3c1.4-0.2,3.3-0.5,5.7-0.7
			c2.4-0.3,5.1-0.4,8.1-0.6c1.5,0,3-0.1,4.6-0.1c1.6,0,3.1,0,4.7,0c1.6,0,3.2,0.1,4.7,0.1c1.6,0,3.1,0.2,4.6,0.3
			c3,0.2,5.7,0.5,8,0.8c2.3,0.3,4.3,0.6,5.7,0.9C325.7,615.5,326.5,615.6,326.5,615.6z"/>
	</g>
	<g>
		<path class="st4" d="M399.2,509.6c0.5,0.5,0.9,1,1.2,1.6c1,1.5,1.4,3.3,1.9,5.1c3.6,14,2.6,24.2,2.6,38.4c0,3.2-0.1,6.6-1.5,9.5
			c-2.3,4.5-7.4,6.8-11.4,9.9c-5.6,4.3-9.3,10.4-13.8,15.8c-4.5,5.4-10.6,10.2-17.6,10.2c-2.8,0-5.6-0.8-8.3-1.6
			c-6-1.7-12-3.5-17.9-5.2c-6.9-2-14.1-4.2-19.3-9.1c-7.6-7.4-9-18.9-10-29.4c-0.8-8.4-1.4-17.5,3-24.8c2-3.3,4.8-5.9,7.7-8.5
			c5.2-4.8,10.3-9.5,15.5-14.3c16.5-15.1,44.1-10.6,62.2-1.5C395.5,506.7,397.6,507.9,399.2,509.6z"/>
		<g>
			<path d="M350.1,504c0,0,0.4,1.1,1.1,3c0.6,1.9,1.6,4.7,2.7,8c1.1,3.3,2.3,7.2,3.6,11.3c0.6,2.1,1.3,4.2,2,6.4
				c0.7,2.2,1.3,4.4,2,6.6c0.7,2.2,1.5,4.2,2.9,5.8c1.3,1.6,3.2,2.7,5.1,3.6c1.9,0.8,3.9,1.5,5.8,2.2c1.9,0.7,3.7,1.3,5.3,1.9
				c3.3,1.2,6,2.3,7.9,3c1.9,0.7,3,1.2,3,1.2s-1.1-0.3-3.1-0.8c-2-0.6-4.8-1.3-8.1-2.3c-1.7-0.5-3.5-1-5.4-1.6c-1.9-0.6-3.9-1.1-6-2
				c-2.1-0.8-4.3-2-5.9-3.9c-1.6-1.9-2.6-4.2-3.3-6.5c-0.7-2.3-1.3-4.5-1.9-6.7c-0.6-2.2-1.2-4.4-1.8-6.5c-1.1-4.2-2.2-8.1-3-11.5
				c-0.9-3.4-1.5-6.2-2-8.2C350.3,505.1,350.1,504,350.1,504z"/>
		</g>
		<g>
			<path d="M363.3,546.7c0,0-1.9,2.3-5,5.5c-1.5,1.6-3.4,3.4-5.3,5.3c-1,0.9-2,1.9-3.1,2.9c-1.1,1-2.2,2-3.3,2.9
				c-1.1,1-2.2,1.9-3.3,2.9c-1.1,1-2.2,1.8-3.3,2.7c-2.1,1.7-4.2,3.3-6,4.6c-3.6,2.6-6.1,4.2-6.1,4.2s0.5-0.5,1.4-1.4
				c0.9-0.9,2.3-2.2,3.9-3.7c1.6-1.5,3.5-3.2,5.6-5.1c1-0.9,2.1-1.9,3.2-2.8c1.1-1,2.2-1.9,3.3-2.9c2.2-1.9,4.4-3.9,6.5-5.7
				c2.1-1.8,4-3.5,5.7-4.9C361,548.5,363.3,546.7,363.3,546.7z"/>
		</g>
	</g>
	<path class="st4" d="M225.2,543.9c-1.8,5.6-0.1,11.6,1.6,17.2c4.3,14.2,9.2,29.4,21.1,38.2c8.5,6.3,19.3,8.5,29.7,10.5
		c3.1,0.6,6.5,1.2,9.4-0.1c2.8-1.2,4.6-3.9,6.2-6.4c5-7.6,10-15.3,15-22.9c3.9-6,8-12.5,7.7-19.6c-0.2-5.2-2.7-10-5.2-14.6
		c-3.8-7-7.5-14.1-11.2-21.1c-1.1-2-2.2-4.1-3.9-5.6c-2.1-1.9-4.8-2.7-7.5-3.5c-11.3-3.1-27-8.3-37.3-0.7
		C242.6,521.2,228.3,534.3,225.2,543.9z"/>
	<g>
		<path d="M234.5,548c0,0,0.2,0.3,0.5,0.7c0.3,0.5,0.9,1.1,1.7,1.8c0.8,0.7,1.9,1.4,3.2,2.1c1.3,0.7,2.9,1.3,4.6,2.1
			c1.7,0.7,3.6,1.6,5.3,2.9c1.8,1.3,3.4,2.8,5.2,4.1c1.8,1.3,3.8,2.4,5.9,2.5c2.2,0.1,4.3-0.8,6.1-2.3c1.8-1.4,3.4-3.3,4.8-5.2
			c1.4-2,2.7-3.9,4-5.8c2.6-3.8,5.1-7.3,7.3-10.3c2.1-3,4-5.4,5.3-7.2c1.3-1.7,2-2.7,2-2.7s-0.6,1.1-1.7,2.9
			c-1.1,1.8-2.7,4.5-4.7,7.6c-1.9,3.1-4.3,6.7-6.8,10.6c-1.3,1.9-2.5,3.9-3.9,5.9c-1.4,2-3.1,4-5.1,5.6c-1,0.8-2.2,1.5-3.4,2l-1,0.3
			l-1,0.2c-0.7,0.1-1.4,0.1-2,0.1c-2.8-0.1-5.1-1.6-6.9-3c-1.9-1.5-3.4-3.1-5-4.3c-1.6-1.3-3.3-2.2-4.9-3.1
			c-1.6-0.8-3.1-1.6-4.4-2.4c-1.3-0.8-2.3-1.6-3.1-2.4c-0.8-0.8-1.2-1.5-1.5-2C234.6,548.3,234.5,548,234.5,548z"/>
	</g>
	<g>
		<path d="M262.5,567.9c0,0,0.5,0.3,1.4,0.9c0.4,0.3,0.9,0.7,1.5,1.2c0.3,0.2,0.6,0.5,0.9,0.8c0.3,0.3,0.6,0.6,0.9,1
			c0.6,0.7,1.3,1.4,1.9,2.3c0.6,0.8,1.2,1.7,1.9,2.7c0.6,1,1.2,2,1.8,3c0.6,1,1.1,2.1,1.7,3.1c1.1,2.1,2.1,4.2,3.2,6.2
			c0.6,0.9,1,1.9,1.6,2.7c0.5,0.8,1,1.7,1.5,2.4c0.3,0.4,0.5,0.7,0.7,1c0.3,0.3,0.5,0.6,0.7,0.9c0.4,0.6,0.8,1.1,1.2,1.4
			c0.7,0.8,1.1,1.2,1.1,1.2s-0.5-0.3-1.4-0.9c-0.4-0.3-0.9-0.7-1.5-1.2c-0.3-0.2-0.6-0.5-0.9-0.8c-0.3-0.3-0.6-0.6-0.9-1
			c-0.6-0.7-1.3-1.4-1.9-2.3c-0.6-0.8-1.2-1.7-1.9-2.7c-0.6-1-1.2-2-1.8-3c-0.6-1-1.1-2.1-1.7-3.1c-1.1-2.1-2.1-4.2-3.2-6.2
			c-0.6-0.9-1-1.9-1.6-2.7c-0.5-0.8-1-1.7-1.5-2.4c-0.3-0.4-0.5-0.7-0.7-1c-0.2-0.3-0.5-0.6-0.7-0.9c-0.4-0.6-0.8-1.1-1.2-1.4
			C262.9,568.3,262.5,567.9,262.5,567.9z"/>
	</g>
	<g>
		<path class="st4" d="M390.3,562.1c1.5,11.5,2.2,23.1,2.2,34.7c0,3.1,0,6.3,0.7,9.2c0.7,2.8,2.2,5.3,3.7,7.6
			c5.2,7.9,12.1,15.1,20.1,15.1c2.7,0,5.4-0.8,8.1-1.4c12.3-2.8,25.1-1.4,37.4-4.2c2.8-0.6,5.7-1.6,7.9-4c4-4.3,4.5-11.9,4.2-18.6
			c-0.4-10-2.1-20-1.4-30c0.2-3.3,0.6-7.1-1-9.7c-1.8-2.8-4.9-2.8-7.7-3.2c-5.1-0.8-16.2-7.4-21.1-8.9c-8.2-2.6-40.5,8.2-51.6,10.3
			c-0.5,0.1-1,0.2-1.4,0.6C390.2,560,389.9,561.7,390.3,562.1z"/>
		<g>
			<path d="M391.1,563.2c0,0,1.2,0.7,3.2,1.9c2,1.2,4.9,2.9,8.4,5.1c3.5,2.1,7.4,4.7,12,6.5c2.3,0.9,4.7,1.6,7.3,1.7
				c2.5,0.2,5.1-0.2,7.7-0.8c2.6-0.6,5.1-1.4,7.7-2.2c2.5-0.8,5-1.6,7.5-2.3c4.9-1.5,9.4-2.8,13.2-4.1c3.8-1.4,6.9-2.8,8.9-3.9
				c2.1-1.1,3.2-1.9,3.2-1.9s-0.3,0.2-0.8,0.6c-0.5,0.4-1.3,0.9-2.2,1.6c-2,1.3-4.9,3-8.7,4.6c-3.8,1.6-8.3,3.1-13.1,4.7
				c-2.4,0.8-4.9,1.7-7.4,2.5c-2.5,0.8-5.1,1.7-7.8,2.3c-2.7,0.6-5.5,1-8.3,0.8c-2.8-0.2-5.4-1-7.8-2c-2.4-1-4.6-2.3-6.5-3.5
				c-2-1.2-3.8-2.5-5.4-3.7c-3.3-2.3-6.1-4.3-8-5.7C392.2,564.1,391.1,563.2,391.1,563.2z"/>
		</g>
		<g>
			<path d="M419.8,580.2c0,0,0,0.7-0.1,1.9c-0.1,1.2-0.1,2.9-0.3,4.9c-0.1,2-0.3,4.3-0.4,6.9c-0.1,2.5-0.3,5.2-0.4,7.8
				c-0.1,2.7-0.3,5.3-0.4,7.9c-0.1,2.5-0.2,4.9-0.3,6.9c-0.1,2-0.2,3.7-0.3,4.9c-0.1,1.2-0.1,1.9-0.1,1.9s-0.1-0.7-0.3-1.8
				c-0.2-1.2-0.3-2.9-0.5-4.9c-0.2-2-0.2-4.4-0.3-6.9c0-1.3,0-2.6,0-3.9c0-1.3,0.1-2.7,0.1-4c0.1-1.3,0.2-2.7,0.3-4
				c0.1-1.3,0.3-2.6,0.4-3.9c0.3-2.5,0.6-4.8,1-6.8c0.4-2,0.7-3.6,1-4.8C419.6,580.9,419.8,580.2,419.8,580.2z"/>
		</g>
	</g>
</g>
</svg>
