<?xml version="1.0" encoding="utf-8"?>
<!-- Generator: Adobe Illustrator 19.2.0, SVG Export Plug-In . SVG Version: 6.00 Build 0)  -->
<svg version="1.1" id="Layer_1" xmlns="http://www.w3.org/2000/svg" xmlns:xlink="http://www.w3.org/1999/xlink" x="0px" y="0px"
	 viewBox="0 0 460 308" style="enable-background:new 0 0 460 308;" xml:space="preserve">
<style type="text/css">
	.st0{fill:url(#SVGID_1_);}
	.st1{fill:none;stroke:#000000;stroke-width:5;stroke-miterlimit:10;}
	.st2{fill:none;stroke:#000000;stroke-width:2;stroke-miterlimit:10;}
</style>
<linearGradient id="SVGID_1_" gradientUnits="userSpaceOnUse" x1="224.6" y1="-124.4" x2="224.6" y2="-372.6985" gradientTransform="matrix(1 0 0 -1 0 -88)">
	<stop  offset="0" style="stop-color:#EF9120"/>
	<stop  offset="1" style="stop-color:#943E00"/>
</linearGradient>
<path class="st0" d="M331.3,40.1c-55.7,11.1-113.1,8.2-169.8,5.3c-19.9-1-39.9-2.1-59.4-5.7l0.6,47.6c0.2,20.3,0.5,40.9,6.4,60.3
	c3.6,11.6,9.1,22.6,13.2,34c4.7,12.8,7.6,26.3,8.7,39.9c0.8,9.6,0.7,19.4,2.9,28.8c2.2,9.4,7.2,18.7,15.6,23.4
	c11.8,6.6,22.7,2.3,35.5,5.3c11.5,2.7,23.1,5.1,34.9,5.6c6.2,0.3,16.3-0.1,22.4-1c5.3-0.8,20-3.9,22.3-3.6c7.1,1,14.5,0.3,20.9-2.7
	c11.1-5.1,14-14.9,17.2-25.8c3.6-12.3,5.6-25,8-37.6c1.9-9.9,4-19.8,7.3-29.3s7.8-18.2,10.6-28c11.1-39.3,16-78.6,18.5-120.2
	C342,37.8,336.6,39,331.3,40.1L331.3,40.1z"/>
<path class="st1" d="M87.7,5.1C87.3,45,86.9,85,90.1,124.8c0.5,6.7,1.2,13.3,2.9,19.8c2.1,7.7,5.6,14.9,8.5,22.3
	c7.5,19.4,10.1,40.3,12.7,61c2.7,21.3,5.4,42.7,8,64c5.6,7,14.5,8.4,23.3,10s17.8,1.1,26.7,0.7c33.7-1.3,67.9-0.9,101.4,2
	c2.8,0.2,5.6,0.5,8.4,0.4c8-0.2,27.6-3.7,31.2-12.3c1.2-2.9,1.1-6.1,1.1-9.2c-0.3-27.1,3.4-54.1,7.2-81c2.2-15.6,6.1-28.5,11.8-42.8
	c5.8-14.7,20.2-111.7,20.2-153C328.5,8.9,152.6,4.3,87.7,5.1L87.7,5.1z"/>
<path d="M99,19.8c0,0,0.2,10.3,0.6,28.2c0.2,9,0.4,19.9,0.6,32.4c0.1,6.2,0.3,12.9,0.6,19.9c0.4,7,1,14.3,2.2,21.9
	c0.6,3.8,1.4,7.6,2.4,11.5c0.5,1.9,1.1,3.9,1.6,5.8c0.6,2,1.3,3.9,2,5.8c2.8,7.7,6.4,15.5,9.7,23.7s6,17,7.9,26.1
	c1,4.6,1.7,9.2,2.2,14c0.5,4.7,0.8,9.5,1.1,14.3s0.6,9.6,1.4,14.3c0.8,4.7,2.1,9.4,4.2,13.7c2.1,4.3,5,8.3,8.8,11.1l1.4,1l1.5,0.9
	c1.1,0.6,2.3,1.2,3.3,1.5c2.2,0.9,4.5,1.5,7,1.8c4.8,0.7,9.9,0.4,15,0.6c2.6,0.1,5.2,0.3,7.8,0.8l1.9,0.4l1.9,0.4l3.7,0.8
	c9.9,2.2,20,4,30.1,4.3c5,0.1,10.2,0,15.2-0.4c2.5-0.2,5-0.5,7.5-0.9c2.5-0.5,5-0.9,7.5-1.4s5-0.9,7.6-1.3c1.3-0.2,2.5-0.4,3.9-0.5
	c0.6-0.1,1.4-0.1,2.2-0.1c0.6,0.1,1.3,0.2,1.9,0.2c4.9,0.5,9.9,0.1,14.5-1.3c2.3-0.7,4.5-1.7,6.6-3c2-1.2,3.8-2.8,5.3-4.6
	c3.1-3.6,5-8.1,6.5-12.7c1.5-4.7,2.9-9.4,4-14.1c1.2-4.7,2.1-9.4,3-14.2c1.8-9.4,3.3-18.8,5.5-27.8c1.1-4.5,2.3-9,3.7-13.3
	c1.4-4.3,3.1-8.5,4.8-12.6c1.7-4.1,3.4-8.1,4.9-12c0.7-2,1.4-4,2-6s1.1-4,1.7-6c2.2-8,4.1-15.7,5.7-23.3c0.8-3.7,1.5-7.4,2.3-11
	c0.7-3.6,1.3-7.1,1.9-10.6s1.2-6.8,1.6-10.1c0.5-3.3,1-6.5,1.4-9.6c1.7-12.4,2.8-23.2,3.6-32.2c0.8-8.9,1.3-16,1.6-20.8
	c0.3-4.8,0.5-7.4,0.5-7.4s-0.1,2.6-0.3,7.4c-0.2,4.8-0.6,11.9-1.2,20.8c-0.6,9-1.6,19.8-3,32.3c-1.5,12.4-3.5,26.4-6.7,41.5
	c-1.5,7.5-3.4,15.4-5.5,23.4c-0.5,2-1.1,4-1.6,6.1c-0.6,2.1-1.3,4.1-2,6.1c-1.5,4.1-3.2,8.1-4.8,12.2c-1.7,4.1-3.2,8.2-4.6,12.5
	c-1.3,4.3-2.5,8.7-3.5,13.2c-2,9-3.6,18.3-5.3,27.8c-0.9,4.7-1.9,9.5-3,14.3s-2.5,9.5-4,14.3c-1.6,4.7-3.5,9.6-7,13.7
	c-1.7,2-3.7,3.8-6,5.2c-2.2,1.4-4.6,2.5-7.2,3.3c-5,1.6-10.4,2-15.6,1.5c-0.7-0.1-1.3-0.1-1.9-0.2c-0.4,0-1,0-1.6,0.1
	c-1.2,0.1-2.5,0.3-3.7,0.5c-2.5,0.4-5,0.9-7.5,1.3c-2.5,0.5-5,0.9-7.6,1.4c-2.5,0.5-5.2,0.8-7.8,1c-5.2,0.4-10.3,0.6-15.5,0.4
	c-10.4-0.3-20.6-2.2-30.6-4.5l-3.7-0.9l-1.9-0.4l-1.8-0.4c-2.4-0.4-4.9-0.7-7.4-0.8c-5-0.2-10.1,0.1-15.3-0.6c-2.6-0.4-5.1-1-7.6-2
	c-1.3-0.5-2.4-1.1-3.5-1.6c-0.7-0.4-1.2-0.7-1.7-1.1c-0.5-0.4-1.1-0.8-1.6-1.2c-4.2-3.2-7.3-7.6-9.5-12.1c-1.1-2.3-2-4.7-2.7-7.1
	c-0.7-2.4-1.2-4.9-1.6-7.3c-0.8-4.9-1.1-9.8-1.4-14.6c-0.3-4.8-0.5-9.5-1-14.2s-1.2-9.2-2.1-13.8c-1.8-9-4.4-17.6-7.5-25.8
	c-3.2-8.2-6.7-16-9.5-23.9c-0.7-2-1.4-4-1.9-5.9c-0.6-2-1.1-3.9-1.6-5.9c-0.9-3.9-1.7-7.8-2.3-11.6c-2.3-15.3-2.2-29.5-2.3-42
	c0-12.5-0.1-23.4-0.1-32.4C99,30,99,19.8,99,19.8L99,19.8z"/>
<path d="M169.1,27.6c0,0-0.8,3.6-2,9.9s-2.8,15.3-4.4,26.2c-0.8,5.4-1.5,11.3-2.1,17.6c-0.6,6.3-1.2,12.9-1.6,19.7
	c-0.4,6.8-0.7,13.9-0.9,21.1c-0.1,3.6-0.1,7.2,0,10.9c0,3.6,0.1,7.3,0.6,10.8c0.2,1.8,0.6,3.5,1.1,5.2s1.2,3.3,1.9,5
	c1.5,3.3,3.3,6.5,4.5,10c1.2,3.6,1.7,7.2,1.9,10.8c0.2,3.6,0.1,7.1,0.1,10.5c-0.1,6.8-0.1,13.5,0.3,19.7c0.3,6.3,1.1,12.1,2.4,17.5
	c1.3,5.3,3,10,5,14c1.9,4,4.4,7,6.5,9.4s3.6,4.4,4.5,5.9c0.5,0.7,0.8,1.3,1,1.7l0.3,0.6l-0.3-0.6c-0.2-0.4-0.6-0.9-1-1.7
	c-1-1.4-2.6-3.3-4.7-5.7c-2.2-2.4-4.8-5.3-6.9-9.4c-2.2-3.9-4.1-8.7-5.5-14.1c-1.4-5.4-2.3-11.3-2.7-17.6c-0.5-6.3-0.6-13-0.5-19.9
	c0-3.4,0.1-6.9-0.1-10.4s-0.7-7-1.9-10.3c-1.2-3.3-2.9-6.5-4.5-9.8c-0.8-1.7-1.5-3.4-2.1-5.2s-0.9-3.7-1.2-5.5
	c-0.5-3.7-0.5-7.4-0.6-11.1c0-3.7,0-7.3,0.1-10.9c0.2-7.2,0.5-14.3,1-21.2c1-13.7,2.7-26.5,4.4-37.4c1.7-10.9,3.7-19.8,5.1-26.1
	c0.7-3.1,1.3-5.6,1.7-7.2C168.9,28.5,169.1,27.6,169.1,27.6L169.1,27.6z M266.2,27.6c0,0,0.2,0.9,0.6,2.6s1.1,4.1,1.8,7.3
	c0.7,3.1,1.6,7,2.5,11.4s1.9,9.4,2.8,14.8c0.9,5.5,1.8,11.4,2.6,17.7c0.7,6.3,1.4,13,1.8,19.9s0.5,14.1,0.4,21.4
	c-0.1,3.6-0.2,7.3-0.5,11c-0.1,1.8-0.2,3.7-0.3,5.5c-0.1,1.8-0.2,3.7-0.3,5.5c-0.1,1.9-0.3,3.7-0.6,5.6c-0.2,0.9-0.3,1.9-0.6,2.8
	c-0.1,0.4-0.3,0.9-0.4,1.4c-0.2,0.4-0.3,0.9-0.5,1.3c-1.5,3.5-3.5,6.5-4.7,9.8c-1.1,3.3-1.4,6.9-1.6,10.4s-0.1,7-0.1,10.5
	c0,6.9-0.2,13.6-0.8,20c-0.6,6.3-1.5,12.3-3,17.7c-1.4,5.4-3.3,10.2-5.4,14.2c-0.5,1-1.1,1.9-1.6,2.9c-0.5,0.9-1.1,1.7-1.6,2.6
	c-0.3,0.4-0.5,0.8-0.8,1.2s-0.6,0.7-0.8,1.1c-0.5,0.7-1.1,1.4-1.6,2c-2.1,2.5-3.8,4.3-5.1,5.5c-1.3,1.2-1.9,1.8-1.9,1.8
	s0.6-0.7,1.9-1.9s2.9-3.1,4.9-5.6c0.5-0.7,1-1.3,1.5-2.1c0.3-0.4,0.5-0.7,0.8-1.1c0.2-0.4,0.5-0.8,0.7-1.2c0.5-0.8,1-1.7,1.6-2.6
	c0.5-0.9,1-1.9,1.5-2.9c1.9-4,3.7-8.8,5-14.1s2.2-11.2,2.6-17.5c0.5-6.3,0.5-13,0.5-19.8c0-3.4-0.1-7,0-10.6
	c0.1-1.8,0.2-3.6,0.5-5.4c0.1-0.9,0.3-1.8,0.5-2.7s0.4-1.8,0.7-2.7c1.2-3.6,3.3-6.7,4.6-10c1.4-3.2,1.8-6.8,2-10.5
	c0.1-1.8,0.2-3.7,0.3-5.5c0.1-1.8,0.3-3.7,0.4-5.5c0.3-3.6,0.4-7.3,0.6-10.9c0.2-7.2,0.1-14.4-0.2-21.2c-0.3-6.9-0.9-13.5-1.5-19.8
	c-0.7-6.3-1.4-12.2-2.2-17.7c-1.6-10.9-3.3-20-4.6-26.3c-0.6-3.2-1.1-5.6-1.5-7.3C266.4,28.5,266.2,27.6,266.2,27.6L266.2,27.6z"/>
<path d="M347.3,32.5c0,0-0.9,0.3-2.6,0.9s-4.3,1.3-7.5,2.2c-3.3,0.9-7.3,1.8-11.9,2.7c-2.3,0.5-4.7,1-7.4,1.4
	c-2.6,0.4-5.3,0.9-8.2,1.4c-2.9,0.4-5.9,0.8-9,1.2c-3.1,0.4-6.3,0.6-9.6,1c-6.6,0.5-13.6,0.8-20.8,1c-14.5,0.2-29.9,0.4-45.3,0.6
	h-11.6c-3.8-0.1-7.7-0.1-11.5-0.2c-7.6-0.2-15-0.5-22.3-0.7c-3.6-0.1-7.2-0.3-10.6-0.5c-3.5-0.2-6.9-0.4-10.2-0.6
	c-6.6-0.4-12.9-0.8-18.6-1.3c-5.8-0.5-11-1.1-15.7-1.7s-8.7-1.2-12-1.8c-3.3-0.6-5.9-1.1-7.7-1.5l-2.7-0.6l0.1-0.3
	c0,0,1,0.1,2.7,0.4c1.8,0.2,4.4,0.6,7.8,0.9c3.3,0.3,7.4,0.8,12.1,1.1c4.7,0.3,9.9,0.7,15.7,1s12,0.6,18.6,0.9
	c3.3,0.1,6.7,0.3,10.2,0.5c10.9,0.6,21.9,1.2,32.8,1.8c7.6,0.4,15.3,0.8,22.9,1.1c3.8,0.1,7.7,0.3,11.5,0.4c3.8,0,7.7,0.1,11.4,0
	c1.9,0,3.8-0.1,5.7-0.1c1.9,0,3.7-0.1,5.6-0.2c3.7-0.2,7.4-0.4,11-0.7c3.6-0.3,7.1-0.6,10.6-0.9c1.7-0.2,3.4-0.4,5.1-0.5
	c1.7-0.2,3.4-0.3,5-0.5c3.3-0.3,6.5-0.7,9.6-1c3.1-0.4,6.1-0.7,8.9-1.1c2.9-0.4,5.6-0.8,8.2-1.1c2.6-0.3,5.1-0.7,7.4-1.1
	s4.5-0.7,6.5-1s3.8-0.7,5.5-1c3.3-0.6,5.9-1.2,7.7-1.5l2.7-0.6L347.3,32.5L347.3,32.5z"/>
<path class="st2" d="M204.8,180.9c0.6,13.5,0.4,27.2-0.6,40.7c-0.3,3.6-0.6,7.3,0,10.8c0.6,3.4,2,6.3,3.4,9.1
	c5.1,9.6,12.1,18.6,21,19.4c3,0.3,6-0.5,9.1-1c13.9-2.2,27.9,0.5,41.8-1.8c3.2-0.5,6.5-1.4,9.1-4c4.8-4.7,6-13.5,6.3-21.3
	c0.4-11.7-0.5-23.6,1.1-35.2c0.6-3.9,1.3-8.2-0.3-11.4c-1.7-3.4-5.2-3.7-8.2-4.4c-5.5-1.3-10.5-5-15.9-7.2
	c-8.8-3.7-18.7-3.5-27.7,0.6c-12,5.5-24.6,0.5-37.1,2.1c-0.5,0.1-1.1,0.2-1.6,0.6C204.8,178.5,204.4,180.4,204.8,180.9L204.8,180.9z
	"/>
<path d="M205.5,182.3c0,0,1.2,0.9,3.4,2.5c2.1,1.6,5.2,3.9,8.8,6.6c1.8,1.4,3.8,2.9,5.8,4.4c2.1,1.5,4.4,3,6.8,4.3
	c2.5,1.3,5.1,2.3,8,2.7c2.8,0.4,5.8,0.2,8.7-0.2c2.9-0.5,5.9-1.2,8.8-1.9s5.8-1.4,8.5-2.1c5.5-1.3,10.7-2.5,15-3.8s7.8-2.7,10.2-3.9
	c2.4-1.2,3.7-1.9,3.7-1.9l-0.9,0.6c-0.6,0.4-1.5,1-2.6,1.6c-2.3,1.3-5.7,3.1-10,4.6c-4.3,1.6-9.5,2.9-15,4.4
	c-2.7,0.7-5.6,1.5-8.5,2.2s-5.9,1.5-8.9,2c-3.1,0.5-6.2,0.7-9.3,0.2c-3.1-0.5-5.9-1.7-8.5-3.1c-2.6-1.4-4.8-3-6.9-4.7
	c-2.1-1.6-3.9-3.2-5.7-4.7c-3.5-3-6.3-5.5-8.3-7.2C206.7,183.3,205.5,182.3,205.5,182.3L205.5,182.3z M235.9,204.5
	c0,0-0.1,0.8-0.3,2.2c-0.2,1.4-0.4,3.3-0.8,5.7c-0.3,2.3-0.7,5.1-1.1,8s-0.8,6-1.2,9.1c-0.4,3.1-0.8,6.2-1.1,9.1
	c-0.3,2.9-0.7,5.6-0.9,8c-0.3,2.3-0.5,4.3-0.7,5.7s-0.3,2.2-0.3,2.2s0-0.8-0.1-2.2c0-1.4-0.1-3.4-0.1-5.7c0-2.4,0.1-5.1,0.3-8.1
	c0.1-1.5,0.2-3,0.4-4.5s0.3-3.1,0.5-4.7s0.5-3.1,0.7-4.7c0.2-1.5,0.5-3,0.8-4.5c0.5-2.9,1.1-5.6,1.7-7.9c0.6-2.3,1.1-4.2,1.5-5.5
	C235.6,205.3,235.9,204.5,235.9,204.5L235.9,204.5z"/>
<path class="st2" d="M199.6,85.7c0.6-0.2,1.3-0.3,2-0.3c1.8-0.1,3.6,0.4,5.4,0.8c14,3.6,22.5,9.4,34.9,16.3c2.8,1.6,5.7,3.2,7.6,5.9
	c2.9,4.2,2.4,9.7,3.1,14.8c1.1,6.9,4.7,13.2,7.2,19.7c2.5,6.6,3.9,14.2,0.5,20.4c-1.4,2.5-3.4,4.5-5.4,6.5L241.7,183
	c-5.1,5.1-10.4,10.3-17.3,12.5c-10.1,3.2-20.9-1.2-30.6-5.4c-7.8-3.4-16-7.2-20.3-14.6c-1.9-3.3-2.9-7.1-3.8-10.8
	c-1.7-6.8-3.3-13.6-5-20.5c-5.3-21.7,12-43.7,28.7-55.2C195.3,87.6,197.4,86.3,199.6,85.7L199.6,85.7z"/>
<path d="M171,126c0,0,1.2,0.2,3.2,0.5c2,0.4,4.9,0.8,8.3,1.5c3.4,0.6,7.4,1.4,11.7,2.3c2.1,0.4,4.3,0.9,6.6,1.4
	c2.2,0.5,4.5,1,6.8,1.5c2.2,0.5,4.4,0.7,6.5,0.3c2-0.4,3.9-1.5,5.6-2.8s3.2-2.7,4.7-4s2.9-2.6,4.2-3.7c2.6-2.3,4.9-4.1,6.4-5.5
	c1.6-1.3,2.5-2,2.5-2s-0.8,0.9-2.2,2.3c-1.4,1.4-3.4,3.6-5.9,6l-4,4c-1.4,1.4-2.9,2.9-4.6,4.3c-1.7,1.4-3.8,2.8-6.3,3.3
	s-5,0.2-7.3-0.2c-2.3-0.5-4.5-1-6.8-1.5c-2.2-0.5-4.4-1-6.5-1.5c-4.2-1-8.2-2-11.6-2.9s-6.2-1.7-8.1-2.2
	C172.2,126.4,171,126,171,126L171,126z"/>
<path d="M214.9,135c0,0,1.1,2.8,2.4,7c0.7,2.1,1.4,4.6,2.1,7.3c0.3,1.3,0.7,2.7,1.1,4.1c0.3,1.4,0.7,2.8,1,4.3
	c0.3,1.4,0.6,2.9,0.9,4.3c0.3,1.4,0.5,2.8,0.8,4.2c0.5,2.7,0.9,5.3,1.2,7.5c0.6,4.4,0.8,7.3,0.8,7.3s-0.2-0.7-0.6-2
	c-0.3-1.2-0.8-3-1.4-5.2c-0.5-2.1-1.2-4.6-1.8-7.3c-0.3-1.3-0.7-2.7-1-4.1c-0.3-1.4-0.6-2.8-1-4.3c-0.6-2.9-1.3-5.7-1.8-8.4
	c-0.6-2.7-1.1-5.2-1.5-7.4C215.3,137.9,214.9,135,214.9,135L214.9,135z"/>
<path class="st2" d="M145.9,254.7c4,4.3,10.1,5.7,15.8,6.9c14.5,3.1,30.2,6,43.7-0.1c9.7-4.4,16.7-12.8,23.5-21
	c2-2.5,4.1-5.1,4.4-8.3c0.3-3-1.2-5.9-2.6-8.6c-4.3-8.1-8.6-16.1-12.8-24.2c-3.4-6.3-7.1-13-13.5-16.2c-4.7-2.3-10.1-2.4-15.3-2.5
	l-23.9-0.3c-2.3,0-4.7,0-6.8,0.7c-2.6,0.9-4.7,2.9-6.7,4.9c-8.2,8.4-20.3,19.7-18.6,32.4C134.3,228.5,139,247.4,145.9,254.7
	L145.9,254.7z"/>
<path d="M153.9,248.5c0,0,0.3,0,0.9-0.1s1.4-0.2,2.4-0.6c1-0.4,2.1-1,3.4-1.8c1.2-0.8,2.5-1.9,4-3s3.1-2.3,5.1-3.3
	c2-0.9,4.1-1.6,6.1-2.6c2-0.9,3.9-2.2,5-4c1.2-1.8,1.4-4.1,1-6.4c-0.4-2.3-1.2-4.5-2.2-6.7c-1.1-2.2-2.1-4.3-3.1-6.3
	c-2-4.1-3.9-8-5.5-11.3s-2.8-6.1-3.7-8.1c-0.9-2-1.4-3.1-1.4-3.1s0.6,1.1,1.7,2.9c1.1,1.9,2.6,4.5,4.4,7.7s3.9,7,6,11
	c1.1,2,2.2,4.1,3.3,6.3c1,2.2,2,4.6,2.4,7.2c0.2,1.3,0.3,2.6,0.1,4l-0.2,1l-0.3,1c-0.2,0.6-0.6,1.3-0.9,1.8c-1.4,2.4-3.8,3.7-6,4.6
	c-2.2,0.9-4.3,1.5-6.2,2.3c-1.9,0.8-3.5,1.8-5.1,2.8c-1.5,1-2.9,2-4.3,2.7c-1.3,0.7-2.6,1.3-3.6,1.5c-1.1,0.3-1.9,0.3-2.5,0.3
	C154.2,248.6,153.9,248.5,153.9,248.5L153.9,248.5z M184.9,233.5c0,0,0.5-0.3,1.5-0.8c0.5-0.3,1-0.5,1.8-0.7
	c0.4-0.1,0.7-0.3,1.1-0.4c0.4-0.1,0.8-0.2,1.3-0.3c0.9-0.2,1.8-0.4,2.9-0.6c1-0.2,2.1-0.2,3.2-0.3c1.1,0,2.3-0.1,3.5-0.1h3.6
	c2.4,0.1,4.7,0.2,6.9,0.2c1.1,0,2.2,0,3.2-0.1s2-0.1,2.8-0.2c0.4,0,0.9-0.1,1.3-0.1c0.4-0.1,0.8-0.1,1.1-0.2
	c0.7-0.1,1.3-0.2,1.8-0.4c1-0.3,1.6-0.4,1.6-0.4s-0.5,0.3-1.5,0.8c-0.5,0.3-1.1,0.5-1.8,0.7c-0.3,0.1-0.7,0.3-1.1,0.4
	c-0.4,0.1-0.8,0.2-1.3,0.3c-0.9,0.2-1.8,0.4-2.9,0.6c-1,0.2-2.1,0.3-3.2,0.3s-2.3,0.1-3.5,0.1h-3.6c-2.4-0.1-4.7-0.2-6.9-0.2
	c-1.1,0-2.2,0-3.2,0.1s-2,0.1-2.8,0.2c-0.4,0-0.9,0.1-1.3,0.1c-0.4,0.1-0.8,0.1-1.1,0.2c-0.7,0.1-1.3,0.2-1.8,0.4
	C185.4,233.4,184.9,233.5,184.9,233.5z"/>
</svg>
