<svg id="Layer_1" xmlns="http://www.w3.org/2000/svg" viewBox="0 0 700 700"><style>.st0,.st1{fill:none}.st1{stroke:#000;stroke-width:5;stroke-miterlimit:10}.st2{opacity:.9;fill:url(#SVGID_1_);enable-background:new}.st3{fill:url(#SVGID_2_)}.st4{fill:none;stroke:#000;stroke-width:2;stroke-miterlimit:10}</style><path class="st0" d="M0 0h700v700H0z"/><path class="st1" d="M6708.6-568.1c.3 38.5.2 82.4-5.7 120.5-2.3 14.7-3.7 31.7-10.6 44.9-9.4 17.9-18.6 35.9-34 49.5-5.5 4.9-11.5 9.2-17.9 12.8-4.2 2.3-15.3 5.1-15.9 10.8-.4 3.6 3.8 5.7 6.9 7.6 6.9 4.3 10.9 12.3 11.6 20.4 1.5 15.4-5.6 30.7-18.9 38.8-.8.5-1.6 1-1.9 1.8-.7 2.1 2.1 3.4 4.2 3.8 12.1 2.1 24 5 35.7 8.7 7.7 2.4 24.3 10.6 12 18.5-7.7 4.9-17 6.2-26 7.3-24.7 3.1-49.7 6.2-74.5 3.9-5.6-.5-11.2-1.4-16.8-2.2l-22.5-3.3c-5.3-.8-11.8-2.7-12.7-7.9-1.7-10.2 16.6-15.1 23.6-17.2 4.9-1.5 36.5-4.6 35.6-9.3-.5-2.4-2.8-3.9-4.8-5.4-8.9-6.4-15-16.4-16.6-27.2-1.6-10.8 1.3-22.2 7.9-30.9 2.2-2.9 4.9-6 4.4-9.6-.2-1.5-1-2.9-2-4.1-5.1-6.7-15.9-9.5-22.8-14.7-7.9-6-15.2-12.8-21.6-20.4-12.5-14.5-22.1-31.5-27.6-49.9-5.2-17.2-6.9-35.3-8.2-53.2-2.3-31-3.6-62-3.8-93.1 20.2-2.4 42-1.8 62.4-1.4 52.8 1.1 160.5-1.6 160.5.5z"/><path d="M6582-253.2v1.9c0 .6.1 1.3.6 1.9.4.6 1.2.8 2.2.8 2.1-.1 4.5-.2 7.1-.2 1.3 0 2.7-.1 4-.1 1.4-.1 2.8-.1 4.1-.2 1.4-.1 2.8-.1 4.1-.2 1.4-.1 2.7-.1 4-.2 2.6-.1 5-.2 7.1-.3 2-.1 3.7-.6 4.6-1.3.4-.4.7-.8.8-1.1.1-.3.2-.5.2-.5v.5c-.1.3-.2.8-.6 1.3s-1.1 1-1.9 1.4-1.8.7-2.8.8c-2.1.4-4.5.7-7.1.9-1.3.1-2.7.3-4 .4-1.4.1-2.8.2-4.2.2-1.4 0-2.8.1-4.2.1h-4.1c-2.6-.1-5.1-.2-7.2-.4-.5-.1-1.1-.1-1.6-.4-.5-.3-.9-.7-1.1-1.1-.4-.9-.4-1.7-.3-2.3s.2-1.1.3-1.4c-.1-.3 0-.5 0-.5zm-.4-84.6s.6.2 1.6.5c.5.2 1.2.3 1.9.5s1.6.4 2.4.5c.9.2 1.9.3 2.9.5 1 .1 2.1.2 3.3.3 1.1.1 2.3.1 3.5.2h3.6c1.2 0 2.5 0 3.7-.1 1.2 0 2.4-.1 3.6-.1 2.3-.1 4.5-.1 6.3-.3 1.8-.2 3.2-.6 4.1-1.2.4-.3.8-.6 1-.8l.3-.3s-.1.1-.2.4c-.2.3-.4.6-.8 1-.8.8-2.3 1.6-4.2 2-.9.2-2 .4-3 .5-1.1.1-2.2.3-3.3.4l-3.6.3c-1.2.1-2.5.1-3.7.2-1.3 0-2.5 0-3.7-.1-.6 0-1.2-.1-1.8-.1-.6-.1-1.2-.1-1.8-.2-1.2-.1-2.3-.4-3.4-.6-.5-.1-1-.3-1.5-.4-.5-.2-1-.3-1.4-.4-1.8-.6-3.2-1.3-4.2-1.8-1-.6-1.6-.9-1.6-.9zm-50.1 102.1l.3.3c.2.2.5.4 1 .6.9.5 2.3 1 4.2 1.4 1.9.4 4.2.7 6.8 1.1 2.6.4 5.6.7 8.9 1.1 3.3.3 6.8.7 10.6 1 3.7.3 7.7.5 11.8.7 8.2.3 17 .5 25.7.6 4.4.1 8.8.1 13.1.2 4.3 0 8.5.1 12.6 0s8-.4 11.7-.8c3.7-.5 7.2-1.1 10.4-1.7 6.4-1.4 11.6-3 15.2-4.3 1.8-.7 3.2-1.2 4.2-1.6l1.5-.6s-.5.2-1.4.7c-.9.4-2.3 1.1-4.1 1.8-3.5 1.5-8.7 3.5-15.1 5.1s-14.1 2.9-22.3 3.2c-4.1.2-8.4.2-12.7.2-4.3 0-8.7-.1-13.1-.1-4.4-.1-8.8-.2-13.1-.3-4.3-.1-8.6-.4-12.7-.6-4.1-.3-8.1-.6-11.8-1-3.8-.4-7.3-.8-10.6-1.3-1.6-.3-3.2-.5-4.7-.7-1.5-.3-2.9-.5-4.2-.8-2.6-.5-4.9-1-6.8-1.5s-3.3-1.1-4.1-1.7c-.4-.3-.7-.5-.9-.7-.3-.2-.4-.3-.4-.3z"/><linearGradient id="SVGID_1_" gradientUnits="userSpaceOnUse" x1="6498.8" y1="1146.289" x2="6704.7" y2="1146.289" gradientTransform="matrix(1 0 0 -1 0 700)"><stop offset=".018" stop-color="#801fe3"/><stop offset="1" stop-color="#b7a7ff"/></linearGradient><path class="st2" d="M6498.8-539.9c1.4 24.4 2.7 48.8 4.1 73.2.4 7.9.9 15.9 2.2 23.7 1.8 11.1 5.4 21.8 8.9 32.5 3 9.1 6 18.2 11.1 26.3 17.8 28.1 51.5 32.7 81.9 31.3 10.6-.5 21.3-1.5 31.5-4.7 66.9-21.3 65.2-117 66.1-172.7 0-2.6.1-5.1.1-7.7-68.7 2.2-137.5 4-205.9-1.9z"/><path d="M6493.7-559.6s.6 8.1 1.5 22.2c.5 7.1 1 15.6 1.7 25.5.6 9.8 1.4 20.9 2.1 33.1.4 6.1.7 12.4 1.3 18.9.5 6.5 1.4 13.2 3 19.9 1.6 6.7 3.7 13.5 6 20.4 2.4 6.9 4.5 14 7.5 20.9.8 1.7 1.5 3.4 2.4 5.1.9 1.6 1.8 3.3 2.8 4.8 1.1 1.6 2.2 3.1 3.4 4.7 1.2 1.4 2.5 2.8 3.7 4.3 5.3 5.5 11.7 10 18.8 13.2 7.1 3.3 14.8 5.4 22.6 6.6 7.9 1.3 15.9 1.7 23.9 1.7 8-.1 16.1-.4 24-1.5 3.9-.5 7.9-1.2 11.7-2.2 1-.3 1.9-.5 2.8-.8l.7-.2h.1l.2-.1.4-.1 1.4-.5 2.8-1c.5-.2.9-.3 1.4-.5l1.3-.6c7.1-3.1 13.7-7.4 19.4-12.5 5.7-5.1 10.5-11.1 14.4-17.5 4-6.3 7.1-13.1 9.7-19.8 2.6-6.8 4.6-13.6 6.3-20.3 3.2-13.5 5-26.5 6.2-38.5 1.1-12.1 1.7-23.2 2-33 .3-9.9.5-18.4.7-25.5.2-14.2.4-22.2.4-22.2s0 2 .1 5.8c0 3.8.1 9.4.2 16.4 0 7.1 0 15.7-.2 25.5-.1 9.9-.5 21-1.5 33.1s-2.6 25.2-5.7 38.9c-1.6 6.8-3.6 13.7-6.1 20.6s-5.7 13.8-9.8 20.3c-4 6.5-9 12.7-14.8 18.1-5.9 5.4-12.7 9.8-20.2 13.1l-1.4.6c-.5.2-.9.4-1.4.5l-2.8 1-1.4.5-.4.1-.2.1-.2.1-.7.2c-1 .3-2 .6-2.9.8-3.9 1-8 1.8-12 2.4-8.1 1.1-16.2 1.5-24.4 1.6-8.2 0-16.3-.5-24.4-1.8-8-1.3-16-3.5-23.3-7-7.4-3.4-14.1-8.1-19.6-13.9-1.3-1.5-2.6-3.1-3.9-4.6-1.1-1.6-2.2-3.2-3.3-4.7-2.2-3.4-3.9-6.8-5.4-10.4-3-7.1-5.2-14.2-7.5-21.2-2.2-7-4.3-13.9-5.8-20.7-1.6-6.9-2.4-13.6-2.8-20.2-.5-6.6-.7-12.9-1-18.9-.6-12.1-1.1-23.2-1.6-33.1-.5-9.9-.8-18.4-1.2-25.5-.7-14.2-1-22.2-1-22.2z"/><path d="M6494.1-544.2s.8 0 2.4.1 3.8.2 6.7.3c2.9.2 6.4.3 10.5.5 4 .2 8.6.3 13.6.5s10.4.3 16.1.5 11.7.2 17.9.4c6.2.1 12.6.1 19.2.2 6.5.1 13.2 0 19.8.1 6.6 0 13.3 0 19.8-.1s13-.1 19.2-.2c12.5-.1 24.1-.2 34-.3 10-.1 18.3-.1 24.1-.1h9.1s-.8.1-2.4.2c-1.6.1-3.8.2-6.7.4-5.8.3-14.1.8-24.1 1.3s-21.6.9-34 1.3c-6.2.1-12.7.4-19.2.4-6.5.1-13.2.1-19.8.2-6.6 0-13.3 0-19.8-.2-6.5-.1-13-.3-19.2-.4-6.2-.2-12.3-.4-18-.8-2.9-.2-5.6-.3-8.3-.5-2.7-.2-5.3-.4-7.8-.5-2.5-.2-4.9-.3-7.1-.5-2.3-.2-4.4-.4-6.4-.6-4-.4-7.6-.7-10.4-1-2.9-.3-5.2-.6-6.7-.7-1.7-.4-2.5-.5-2.5-.5z"/><linearGradient id="SVGID_2_" gradientUnits="userSpaceOnUse" x1="351.936" y1="447.264" x2="351.936" y2="693.276"><stop offset="0" stop-color="#ff9e00"/><stop offset="1" stop-color="#b75800"/></linearGradient><path class="st3" d="M486 591.5c-.8-12.1-2.5-24.2-4.8-36.1-4.5-23.5-11.2-46.4-17.8-69.3-3.7-12.6-7.3-25.2-11-37.8-37.6-1.6-75.4-1.2-113 1.1-33.8 2.1-67.6 5.7-101.4 3.7-.3 0-.6-.1-.8-.1-5.5 37.1-10.9 74.1-16.4 111.2-2.2 14.9-4.4 29.8-4.9 44.8-.2 5.2-.1 10.5 1.2 15.5 1.7 6.3 5.4 11.8 9.5 16.9 10 12.4 22.3 22.7 34.6 32.9 13.5 11.2 27.1 16.9 44.7 17.8 33.5 1.7 67.2 1.5 100.7-.7 3.7-.2 7.4-.5 10.9-1.5 3.7-1.1 7.1-3 10.4-5 12.7-7.6 26-16.3 35.7-27.6 9.2-10.7 21.3-20 24-34.7 1.8-10.1-.9-21-1.6-31.1z"/><path class="st1" d="M234 419.9c-15.3 60.8-24.6 123.2-27.6 185.9-.3 7-.6 14.1 1.4 20.8 1.7 6 5.1 11.3 8.7 16.4 12.1 17.2 59 53.1 67.6 54.4 40.9 6 126.5.6 137.7-4 30.8-12.7 63.3-48.1 71.2-69.8.4-1.2.6-2.4.6-3.7-.2-37.4-7-67.1-15.1-98.9-9.1-36-22.2-72-30.1-108.3-37.4 1-73.3-.4-110.7.5-10.9.3-21.8.6-32.8.8-22.4.6-44.7 1.2-67.1 1.7-1.1 0-2.5.2-2.8 1.3-.5 1.1-.7 4-1 2.9z"/><path d="M237.8 425.5s-1.5 11.2-4.2 30.9c-2.8 19.6-6.7 47.7-11.4 81.3-1.2 8.4-2.4 17.2-3.7 26.2-1.3 9.1-2.6 18.4-3.5 28.1-.5 4.8-.8 9.7-.9 14.7-.2 4.9-.1 10 1.1 14.7 1.2 4.8 3.7 9.2 6.7 13.4 1.5 2.1 3.1 4.1 4.8 6.1 1.7 2 3.4 3.9 5.2 5.8 7.3 7.6 15.4 14.7 23.8 21.6 2.1 1.8 4.2 3.5 6.3 5.2 2.1 1.6 4.4 3.2 6.7 4.6 2.3 1.4 4.7 2.8 7.1 3.9 1.2.6 2.5 1.1 3.7 1.7 1.3.5 2.5 1 3.8 1.4 5.2 1.7 10.6 2.8 16.1 3.3 2.7.2 5.5.3 8.4.5a222867518642183200 222867518642183200 0 0 0 93-.8c5.6-.3 11.1-.5 16-2.6 2.5-1 4.8-2.4 7.2-3.8 2.4-1.4 4.7-2.9 7.1-4.3 4.6-2.9 9.2-6 13.5-9.3 4.3-3.3 8.4-6.8 12.1-10.6.9-.9 1.8-1.9 2.7-2.9l2.7-3c1.8-2 3.7-3.9 5.5-5.8 3.6-3.8 7.1-7.7 10-11.9 2.8-4.2 4.9-8.9 5.8-13.7.9-4.9.7-9.9.3-14.8-.5-4.9-1.2-9.8-1.6-14.7-1.2-19.4-4.5-37.5-8.2-54-3.8-16.5-8-31.5-11.7-44.8-3.8-13.3-7-24.9-9.7-34.4-5.4-19.1-8.4-30-8.4-30s3.3 10.8 9 29.8c2.8 9.5 6.3 21 10.3 34.3 3.9 13.2 8.4 28.2 12.3 44.7 3.9 16.6 7.4 34.8 8.8 54.2.4 4.8 1.2 9.7 1.7 14.7s.8 10.2-.1 15.4c-.9 5.3-3.1 10.3-6.1 14.7-3 4.5-6.6 8.4-10.2 12.3-1.8 1.9-3.7 3.9-5.4 5.8l-2.7 3c-.9 1-1.8 2.1-2.8 3-3.8 4-8 7.6-12.3 10.9-4.4 3.4-9 6.5-13.7 9.4-2.3 1.5-4.7 2.9-7.1 4.4-2.4 1.4-4.9 2.9-7.5 4-2.7 1.2-5.6 1.9-8.4 2.2-2.9.4-5.7.5-8.5.7-5.6.4-11.2.7-16.9.9-11.3.5-22.6.8-34 .8-11.3 0-22.7-.2-34-.6-2.8-.1-5.6-.2-8.5-.4-2.8-.1-5.6-.3-8.5-.5-5.7-.6-11.3-1.6-16.7-3.5-1.4-.4-2.7-1-4-1.5-1.3-.6-2.6-1.1-3.9-1.7-2.6-1.2-5-2.6-7.4-4.1-2.4-1.5-4.7-3.1-6.9-4.8-1.1-.9-2.1-1.7-3.2-2.6l-3.2-2.6c-8.4-7-16.6-14.1-24-21.9-1.8-1.9-3.6-3.9-5.3-6-1.7-2-3.4-4.1-4.9-6.3-3.1-4.3-5.7-9.1-7-14.2-1.3-5.2-1.2-10.4-1-15.4.2-5 .6-10 1.1-14.8 1-9.7 2.4-19.1 3.8-28.2 1.4-9.1 2.7-17.8 4-26.2 5.2-33.6 9.5-61.6 12.5-81.2 2.7-19.5 4.4-30.7 4.4-30.7z"/><path d="M234.9 450.8h9.2c2.9-.1 6.5-.1 10.6-.2s8.7-.2 13.7-.5c5-.2 10.5-.5 16.3-.7 5.8-.3 11.9-.4 18.2-.6 6.3-.2 12.8-.5 19.4-1 3.3-.2 6.6-.5 10-.8 3.3-.3 6.7-.6 10.1-.9 3.4-.3 6.7-.5 10.1-.8 3.4-.2 6.7-.4 10-.6 6.6-.3 13.2-.6 19.5-.8 3.2-.1 6.3-.2 9.3-.2 3-.1 6 0 8.9 0 5.8 0 11.3.2 16.3.3 5.1.2 9.7.4 13.8.6 4.1.2 7.7.4 10.6.7 5.9.5 9.2.8 9.2.8v.3h-2.4c-1.6 0-3.9 0-6.8.1-5.9 0-14.3.1-24.4.2-10.1.1-21.9.2-34.5.3-6.3 0-12.8.2-19.4.3-6.6.1-13.4.3-20.1.4l-10.1.3c-3.4.2-6.7.3-10 .6-6.6.4-13.1 1.1-19.4 1.7-6.3.6-12.4 1.3-18.2 1.6-5.8.4-11.3.5-16.3.6-5.1.1-9.7 0-13.8-.1-4.1-.1-7.7-.3-10.6-.6-3-.2-5.3-.5-6.8-.6l-2.4-.3v-.1z"/><path class="st4" d="M413.6 680c6.2-4.9 10-20.8 10.4-28.3.7-12.9 1.4-25.8 2-38.8.1-2.8.3-5.7-1-8.2-2.2-4.4-7.7-5.9-12.5-6.8-10.8-2-21.7-3.6-32.7-4.8-9.8-1-18.4 2.2-27.7 5.4-2.9 1-6 2.2-7.7 4.8-1.2 1.9-1.6 4.1-1.8 6.4-1.6 12-3.2 24.1-3.2 36.2 0 7 .7 14.5 5 20.1 5.4 7.2 15 9.5 23.8 11.2 11.6 2.4 23.2 4.7 34.7 7.1 2.3.5 4.8.9 6.9-.1 1.7-.9 2.8-2.6 3.8-4.2z"/><path d="M374.5 595.7l.3.9c.2.6.5 1.5.7 2.6.1.6.3 1.2.4 1.9.1.7.3 1.4.4 2.2.3 1.6.6 3.4.8 5.4.4 4 .7 8.7.8 13.6.1 2.5.2 5.1.4 7.6.2 2.6.3 5.2 1.1 7.6.4 1.2 1 2.2 1.8 3 .8.8 1.8 1.4 3 1.8 1.2.4 2.4.7 3.6 1.1 1.2.3 2.4.7 3.6 1 4.8 1.3 9.3 2.4 13.2 3.3 3.9.9 7.1 1.6 9.4 2 2.3.4 3.6.7 3.6.7s-.3 0-1-.1c-.6-.1-1.5-.1-2.7-.2-2.3-.3-5.6-.6-9.6-1.2s-8.5-1.5-13.4-2.7c-1.2-.3-2.4-.6-3.7-.9-1.2-.3-2.5-.6-3.8-1.1-1.3-.5-2.6-1.1-3.7-2.3-1.1-1.1-1.8-2.4-2.2-3.8-.9-2.7-1-5.5-1.2-8.1-.1-2.6-.2-5.2-.2-7.7s0-4.9-.1-7.2c0-2.3-.1-4.4-.2-6.4s-.2-3.8-.4-5.4c-.1-.8-.2-1.6-.3-2.2-.1-.7-.2-1.3-.3-1.9-.2-1.1-.3-2-.5-2.7.2-.5.2-.8.2-.8z"/><path d="M379.3 641.6s.2 0 .4.3.1.8-.2 1.3c-.1.3-.3.5-.6.8-.2.2-.5.5-.8.7-.5.5-1.2 1.1-1.8 1.7-1.4 1.2-3 2.6-4.7 4.1-.9.7-1.8 1.5-2.7 2.2-.9.7-1.9 1.5-2.8 2.3-1 .7-1.9 1.5-2.9 2.2-.9.7-1.9 1.4-2.8 2.1-1.8 1.4-3.6 2.6-5.1 3.6-3 2.1-5.2 3.3-5.2 3.3s1.7-1.8 4.5-4.2c1.4-1.2 3-2.6 4.7-4.1.9-.7 1.8-1.5 2.7-2.2.9-.7 1.9-1.5 2.8-2.3 1-.7 1.9-1.5 2.9-2.2.9-.7 1.9-1.4 2.8-2.1 1.8-1.4 3.6-2.6 5.1-3.6.8-.5 1.5-1 2.1-1.4l.9-.6c.2-.2.4-.3.6-.5.3-.4.5-.8.4-1-.1-.4-.3-.4-.3-.4z"/><path class="st4" d="M346.5 582c-13.4 2.2-26.9 3.5-40.5 4-3.6.1-7.3.2-10.8 1.2-3.3 1-6.1 2.7-8.7 4.5-9 6.1-17.1 14.1-16.9 23 .1 3 1.1 6 2 8.9 3.8 13.6 2.7 27.8 6.5 41.4.9 3.1 2.1 6.3 5 8.6 5.2 4.2 14.1 4.5 21.9 3.8 11.7-.9 23.3-3.2 35.1-2.9 3.9.1 8.3.4 11.3-1.6 3.2-2.1 3.1-5.6 3.4-8.7.7-5.7 3.7-11 5.4-16.6 2.7-9.2 1.4-19-3.8-27.5-6.8-11.3-3.3-24.4-6.3-36.7-.1-.5-.3-1.1-.8-1.5-.4-.1-2.4-.3-2.8.1z"/><path d="M345.2 582.9s-.7 1.3-2.1 3.6c-1.4 2.3-3.2 5.6-5.6 9.5-1.2 2-2.4 4.1-3.7 6.3-1.3 2.3-2.5 4.7-3.5 7.3-1 2.6-1.7 5.4-1.8 8.2-.1 2.8.4 5.8 1.2 8.6.8 2.9 1.9 5.7 2.9 8.5s2.1 5.6 3 8.2c2 5.3 3.7 10.4 5.5 14.5 1.8 4.2 3.6 7.5 5 9.7 1.4 2.2 2.3 3.5 2.3 3.5s-.2-.3-.7-.8c-.5-.5-1.1-1.3-1.9-2.4-1.6-2.1-3.7-5.3-5.7-9.4-2.1-4.1-4-9.1-6.1-14.4-1-2.6-2.1-5.4-3.2-8.2-1.1-2.8-2.2-5.6-3-8.6-.8-3-1.4-6.1-1.2-9.2.1-3.1 1-6.1 2.1-8.8 1.1-2.7 2.5-5.1 3.8-7.4 1.4-2.2 2.8-4.3 4-6.2 2.5-3.8 4.7-6.9 6.2-9.1 1.6-2.1 2.5-3.4 2.5-3.4zm-18.7 32.7h-2.2c-1.4 0-3.3-.1-5.7-.1-2.4-.1-5.1-.1-8-.2-2.9 0-6.1-.1-9.2-.2-3.1 0-6.3-.1-9.2-.1h-15.9s.8-.1 2.1-.3c1.4-.2 3.3-.5 5.7-.7 2.4-.3 5.1-.4 8.1-.6 1.5 0 3-.1 4.6-.1h4.7c1.6 0 3.2.1 4.7.1 1.6 0 3.1.2 4.6.3 3 .2 5.7.5 8 .8 2.3.3 4.3.6 5.7.9 1.2.1 2 .2 2 .2z"/><path class="st4" d="M399.2 509.6c.5.5.9 1 1.2 1.6 1 1.5 1.4 3.3 1.9 5.1 3.6 14 2.6 24.2 2.6 38.4 0 3.2-.1 6.6-1.5 9.5-2.3 4.5-7.4 6.8-11.4 9.9-5.6 4.3-9.3 10.4-13.8 15.8s-10.6 10.2-17.6 10.2c-2.8 0-5.6-.8-8.3-1.6-6-1.7-12-3.5-17.9-5.2-6.9-2-14.1-4.2-19.3-9.1-7.6-7.4-9-18.9-10-29.4-.8-8.4-1.4-17.5 3-24.8 2-3.3 4.8-5.9 7.7-8.5 5.2-4.8 10.3-9.5 15.5-14.3 16.5-15.1 44.1-10.6 62.2-1.5 2 1 4.1 2.2 5.7 3.9z"/><path d="M350.1 504s.4 1.1 1.1 3c.6 1.9 1.6 4.7 2.7 8s2.3 7.2 3.6 11.3c.6 2.1 1.3 4.2 2 6.4s1.3 4.4 2 6.6c.7 2.2 1.5 4.2 2.9 5.8 1.3 1.6 3.2 2.7 5.1 3.6 1.9.8 3.9 1.5 5.8 2.2 1.9.7 3.7 1.3 5.3 1.9 3.3 1.2 6 2.3 7.9 3 1.9.7 3 1.2 3 1.2s-1.1-.3-3.1-.8c-2-.6-4.8-1.3-8.1-2.3-1.7-.5-3.5-1-5.4-1.6-1.9-.6-3.9-1.1-6-2-2.1-.8-4.3-2-5.9-3.9-1.6-1.9-2.6-4.2-3.3-6.5-.7-2.3-1.3-4.5-1.9-6.7-.6-2.2-1.2-4.4-1.8-6.5-1.1-4.2-2.2-8.1-3-11.5-.9-3.4-1.5-6.2-2-8.2-.7-1.9-.9-3-.9-3z"/><path d="M363.3 546.7s-1.9 2.3-5 5.5c-1.5 1.6-3.4 3.4-5.3 5.3-1 .9-2 1.9-3.1 2.9s-2.2 2-3.3 2.9c-1.1 1-2.2 1.9-3.3 2.9-1.1 1-2.2 1.8-3.3 2.7-2.1 1.7-4.2 3.3-6 4.6-3.6 2.6-6.1 4.2-6.1 4.2l1.4-1.4c.9-.9 2.3-2.2 3.9-3.7s3.5-3.2 5.6-5.1c1-.9 2.1-1.9 3.2-2.8 1.1-1 2.2-1.9 3.3-2.9 2.2-1.9 4.4-3.9 6.5-5.7 2.1-1.8 4-3.5 5.7-4.9 3.5-2.7 5.8-4.5 5.8-4.5z"/><path class="st4" d="M225.2 543.9c-1.8 5.6-.1 11.6 1.6 17.2 4.3 14.2 9.2 29.4 21.1 38.2 8.5 6.3 19.3 8.5 29.7 10.5 3.1.6 6.5 1.2 9.4-.1 2.8-1.2 4.6-3.9 6.2-6.4 5-7.6 10-15.3 15-22.9 3.9-6 8-12.5 7.7-19.6-.2-5.2-2.7-10-5.2-14.6-3.8-7-7.5-14.1-11.2-21.1-1.1-2-2.2-4.1-3.9-5.6-2.1-1.9-4.8-2.7-7.5-3.5-11.3-3.1-27-8.3-37.3-.7-8.2 5.9-22.5 19-25.6 28.6z"/><path d="M234.5 548s.2.3.5.7c.3.5.9 1.1 1.7 1.8.8.7 1.9 1.4 3.2 2.1 1.3.7 2.9 1.3 4.6 2.1 1.7.7 3.6 1.6 5.3 2.9 1.8 1.3 3.4 2.8 5.2 4.1 1.8 1.3 3.8 2.4 5.9 2.5 2.2.1 4.3-.8 6.1-2.3 1.8-1.4 3.4-3.3 4.8-5.2 1.4-2 2.7-3.9 4-5.8 2.6-3.8 5.1-7.3 7.3-10.3 2.1-3 4-5.4 5.3-7.2 1.3-1.7 2-2.7 2-2.7s-.6 1.1-1.7 2.9c-1.1 1.8-2.7 4.5-4.7 7.6-1.9 3.1-4.3 6.7-6.8 10.6-1.3 1.9-2.5 3.9-3.9 5.9-1.4 2-3.1 4-5.1 5.6-1 .8-2.2 1.5-3.4 2l-1 .3-1 .2c-.7.1-1.4.1-2 .1-2.8-.1-5.1-1.6-6.9-3-1.9-1.5-3.4-3.1-5-4.3-1.6-1.3-3.3-2.2-4.9-3.1-1.6-.8-3.1-1.6-4.4-2.4-1.3-.8-2.3-1.6-3.1-2.4-.8-.8-1.2-1.5-1.5-2-.4-.4-.5-.7-.5-.7zM262.5 567.9s.5.3 1.4.9c.4.3.9.7 1.5 1.2.3.2.6.5.9.8.3.3.6.6.9 1 .6.7 1.3 1.4 1.9 2.3.6.8 1.2 1.7 1.9 2.7l1.8 3c.6 1 1.1 2.1 1.7 3.1 1.1 2.1 2.1 4.2 3.2 6.2.6.9 1 1.9 1.6 2.7.5.8 1 1.7 1.5 2.4.3.4.5.7.7 1 .3.3.5.6.7.9.4.6.8 1.1 1.2 1.4.7.8 1.1 1.2 1.1 1.2s-.5-.3-1.4-.9c-.4-.3-.9-.7-1.5-1.2-.3-.2-.6-.5-.9-.8-.3-.3-.6-.6-.9-1-.6-.7-1.3-1.4-1.9-2.3-.6-.8-1.2-1.7-1.9-2.7l-1.8-3c-.6-1-1.1-2.1-1.7-3.1-1.1-2.1-2.1-4.2-3.2-6.2-.6-.9-1-1.9-1.6-2.7-.5-.8-1-1.7-1.5-2.4-.3-.4-.5-.7-.7-1-.2-.3-.5-.6-.7-.9-.4-.6-.8-1.1-1.2-1.4-.7-.8-1.1-1.2-1.1-1.2z"/><path class="st4" d="M390.3 562.1c1.5 11.5 2.2 23.1 2.2 34.7 0 3.1 0 6.3.7 9.2.7 2.8 2.2 5.3 3.7 7.6 5.2 7.9 12.1 15.1 20.1 15.1 2.7 0 5.4-.8 8.1-1.4 12.3-2.8 25.1-1.4 37.4-4.2 2.8-.6 5.7-1.6 7.9-4 4-4.3 4.5-11.9 4.2-18.6-.4-10-2.1-20-1.4-30 .2-3.3.6-7.1-1-9.7-1.8-2.8-4.9-2.8-7.7-3.2-5.1-.8-16.2-7.4-21.1-8.9-8.2-2.6-40.5 8.2-51.6 10.3-.5.1-1 .2-1.4.6-.2.4-.5 2.1-.1 2.5z"/><path d="M391.1 563.2s1.2.7 3.2 1.9 4.9 2.9 8.4 5.1c3.5 2.1 7.4 4.7 12 6.5 2.3.9 4.7 1.6 7.3 1.7 2.5.2 5.1-.2 7.7-.8 2.6-.6 5.1-1.4 7.7-2.2 2.5-.8 5-1.6 7.5-2.3 4.9-1.5 9.4-2.8 13.2-4.1 3.8-1.4 6.9-2.8 8.9-3.9 2.1-1.1 3.2-1.9 3.2-1.9s-.3.2-.8.6c-.5.4-1.3.9-2.2 1.6-2 1.3-4.9 3-8.7 4.6-3.8 1.6-8.3 3.1-13.1 4.7-2.4.8-4.9 1.7-7.4 2.5s-5.1 1.7-7.8 2.3c-2.7.6-5.5 1-8.3.8-2.8-.2-5.4-1-7.8-2-2.4-1-4.6-2.3-6.5-3.5-2-1.2-3.8-2.5-5.4-3.7-3.3-2.3-6.1-4.3-8-5.7-2-1.3-3.1-2.2-3.1-2.2zm28.7 17s0 .7-.1 1.9-.1 2.9-.3 4.9c-.1 2-.3 4.3-.4 6.9-.1 2.5-.3 5.2-.4 7.8-.1 2.7-.3 5.3-.4 7.9-.1 2.5-.2 4.9-.3 6.9-.1 2-.2 3.7-.3 4.9-.1 1.2-.1 1.9-.1 1.9s-.1-.7-.3-1.8c-.2-1.2-.3-2.9-.5-4.9-.2-2-.2-4.4-.3-6.9v-3.9c0-1.3.1-2.7.1-4 .1-1.3.2-2.7.3-4 .1-1.3.3-2.6.4-3.9.3-2.5.6-4.8 1-6.8s.7-3.6 1-4.8l.6-2.1z"/></svg>