<svg id="Layer_1" xmlns="http://www.w3.org/2000/svg" viewBox="0 0 705 705"><style>.st0{fill:none}.st1{fill:url(#SVGID_1_)}.st2,.st3{fill:none;stroke:#000;stroke-width:5;stroke-miterlimit:10}.st3{stroke-width:2}</style><path class="st0" d="M122.5 0h460v705h-460V0z"/><linearGradient id="SVGID_1_" gradientUnits="userSpaceOnUse" x1="347.166" y1="433.308" x2="347.166" y2="681.554"><stop offset="0" stop-color="#ef9120"/><stop offset="1" stop-color="#943e00"/></linearGradient><path class="st1" d="M453.8 437.1c-55.7 11.1-113.1 8.2-169.8 5.3-19.9-1-39.9-2.1-59.4-5.7l.6 47.6c.2 20.3.5 40.9 6.4 60.3 3.6 11.6 9.1 22.6 13.2 34 4.7 12.8 7.6 26.3 8.7 39.9.8 9.6.7 19.4 2.9 28.8 2.2 9.4 7.2 18.7 15.6 23.4 11.8 6.6 22.7 2.3 35.5 5.3 11.5 2.7 23.1 5.1 34.9 5.6 6.2.3 16.3-.1 22.4-1 5.3-.8 20-3.9 22.3-3.6 7.1 1 14.5.3 20.9-2.7 11.1-5.1 14-14.9 17.2-25.8 3.6-12.3 5.6-25 8-37.6 1.9-9.9 4-19.8 7.3-29.3s7.8-18.2 10.6-28c11.1-39.3 16-78.6 18.5-120.2-5.1 1.4-10.5 2.6-15.8 3.7z"/><path class="st2" d="M210.2 402.1c-.4 39.9-.8 79.9 2.4 119.7.5 6.7 1.2 13.3 2.9 19.8 2.1 7.7 5.6 14.9 8.5 22.3 7.5 19.4 10.1 40.3 12.7 61 2.7 21.3 5.4 42.7 8 64 5.6 7 14.5 8.4 23.3 10 8.8 1.6 17.8 1.1 26.7.7 33.7-1.3 67.9-.9 101.4 2 2.8.2 5.6.5 8.4.4 8-.2 27.6-3.7 31.2-12.3 1.2-2.9 1.1-6.1 1.1-9.2-.3-27.1 3.4-54.1 7.2-81 2.2-15.6 6.1-28.5 11.8-42.8C461.6 542 476 445 476 403.7c-25 2.2-200.9-2.4-265.8-1.6z"/><path d="M221.5 416.8s.2 10.3.6 28.2c.2 9 .4 19.9.6 32.4.1 6.2.3 12.9.6 19.9.4 7 1 14.3 2.2 21.9.6 3.8 1.4 7.6 2.4 11.5.5 1.9 1.1 3.9 1.6 5.8.6 2 1.3 3.9 2 5.8 2.8 7.7 6.4 15.5 9.7 23.7 3.3 8.2 6 17 7.9 26.1 1 4.6 1.7 9.2 2.2 14 .5 4.7.8 9.5 1.1 14.3.3 4.8.6 9.6 1.4 14.3.8 4.7 2.1 9.4 4.2 13.7 2.1 4.3 5 8.3 8.8 11.1l1.4 1 1.5.9c1.1.6 2.3 1.2 3.3 1.5 2.2.9 4.5 1.5 7 1.8 4.8.7 9.9.4 15 .6 2.6.1 5.2.3 7.8.8l1.9.4 1.9.4 3.7.8c9.9 2.2 20 4 30.1 4.3 5 .1 10.2 0 15.2-.4 2.5-.2 5-.5 7.5-.9 2.5-.5 5-.9 7.5-1.4 2.5-.5 5-.9 7.6-1.3 1.3-.2 2.5-.4 3.9-.5.6-.1 1.4-.1 2.2-.1.6.1 1.3.2 1.9.2 4.9.5 9.9.1 14.5-1.3 2.3-.7 4.5-1.7 6.6-3 2-1.2 3.8-2.8 5.3-4.6 3.1-3.6 5-8.1 6.5-12.7 1.5-4.7 2.9-9.4 4-14.1 1.2-4.7 2.1-9.4 3-14.2 1.8-9.4 3.3-18.8 5.5-27.8 1.1-4.5 2.3-9 3.7-13.3 1.4-4.3 3.1-8.5 4.8-12.6 1.7-4.1 3.4-8.1 4.9-12 .7-2 1.4-4 2-6 .6-2 1.1-4 1.7-6 2.2-8 4.1-15.7 5.7-23.3.8-3.7 1.5-7.4 2.3-11 .7-3.6 1.3-7.1 1.9-10.6.6-3.5 1.2-6.8 1.6-10.1.5-3.3 1-6.5 1.4-9.6 1.7-12.4 2.8-23.2 3.6-32.2.8-8.9 1.3-16 1.6-20.8.3-4.8.5-7.4.5-7.4s-.1 2.6-.3 7.4c-.2 4.8-.6 11.9-1.2 20.8-.6 9-1.6 19.8-3 32.3-1.5 12.4-3.5 26.4-6.7 41.5-1.5 7.5-3.4 15.4-5.5 23.4-.5 2-1.1 4-1.6 6.1-.6 2.1-1.3 4.1-2 6.1-1.5 4.1-3.2 8.1-4.8 12.2-1.7 4.1-3.2 8.2-4.6 12.5-1.3 4.3-2.5 8.7-3.5 13.2-2 9-3.6 18.3-5.3 27.8-.9 4.7-1.9 9.5-3 14.3-1.1 4.8-2.5 9.5-4 14.3-1.6 4.7-3.5 9.6-7 13.7-1.7 2-3.7 3.8-6 5.2-2.2 1.4-4.6 2.5-7.2 3.3-5 1.6-10.4 2-15.6 1.5-.7-.1-1.3-.1-1.9-.2-.4 0-1 0-1.6.1-1.2.1-2.5.3-3.7.5-2.5.4-5 .9-7.5 1.3-2.5.5-5 .9-7.6 1.4-2.5.5-5.2.8-7.8 1-5.2.4-10.3.6-15.5.4-10.4-.3-20.6-2.2-30.6-4.5l-3.7-.9-1.9-.4-1.8-.4c-2.4-.4-4.9-.7-7.4-.8-5-.2-10.1.1-15.3-.6-2.6-.4-5.1-1-7.6-2-1.3-.5-2.4-1.1-3.5-1.6-.7-.4-1.2-.7-1.7-1.1-.5-.4-1.1-.8-1.6-1.2-4.2-3.2-7.3-7.6-9.5-12.1-1.1-2.3-2-4.7-2.7-7.1-.7-2.4-1.2-4.9-1.6-7.3-.8-4.9-1.1-9.8-1.4-14.6-.3-4.8-.5-9.5-1-14.2-.5-4.7-1.2-9.2-2.1-13.8-1.8-9-4.4-17.6-7.5-25.8-3.2-8.2-6.7-16-9.5-23.9-.7-2-1.4-4-1.9-5.9-.6-2-1.1-3.9-1.6-5.9-.9-3.9-1.7-7.8-2.3-11.6-2.3-15.3-2.2-29.5-2.3-42 0-12.5-.1-23.4-.1-32.4-.3-18-.3-28.2-.3-28.2z"/><path d="M291.6 424.6s-.8 3.6-2 9.9c-1.2 6.3-2.8 15.3-4.4 26.2-.8 5.4-1.5 11.3-2.1 17.6-.6 6.3-1.2 12.9-1.6 19.7-.4 6.8-.7 13.9-.9 21.1-.1 3.6-.1 7.2 0 10.9 0 3.6.1 7.3.6 10.8.2 1.8.6 3.5 1.1 5.2.5 1.7 1.2 3.3 1.9 5 1.5 3.3 3.3 6.5 4.5 10 1.2 3.6 1.7 7.2 1.9 10.8.2 3.6.1 7.1.1 10.5-.1 6.8-.1 13.5.3 19.7.3 6.3 1.1 12.1 2.4 17.5 1.3 5.3 3 10 5 14 1.9 4 4.4 7 6.5 9.4 2.1 2.4 3.6 4.4 4.5 5.9.5.7.8 1.3 1 1.7l.3.6-.3-.6c-.2-.4-.6-.9-1-1.7-1-1.4-2.6-3.3-4.7-5.7-2.2-2.4-4.8-5.3-6.9-9.4-2.2-3.9-4.1-8.7-5.5-14.1-1.4-5.4-2.3-11.3-2.7-17.6-.5-6.3-.6-13-.5-19.9 0-3.4.1-6.9-.1-10.4s-.7-7-1.9-10.3c-1.2-3.3-2.9-6.5-4.5-9.8-.8-1.7-1.5-3.4-2.1-5.2-.6-1.8-.9-3.7-1.2-5.5-.5-3.7-.5-7.4-.6-11.1 0-3.7 0-7.3.1-10.9.2-7.2.5-14.3 1-21.2 1-13.7 2.7-26.5 4.4-37.4 1.7-10.9 3.7-19.8 5.1-26.1.7-3.1 1.3-5.6 1.7-7.2.4-1.5.6-2.4.6-2.4zm97.1 0s.2.9.6 2.6c.4 1.7 1.1 4.1 1.8 7.3.7 3.1 1.6 7 2.5 11.4.9 4.4 1.9 9.4 2.8 14.8.9 5.5 1.8 11.4 2.6 17.7.7 6.3 1.4 13 1.8 19.9.4 6.9.5 14.1.4 21.4-.1 3.6-.2 7.3-.5 11-.1 1.8-.2 3.7-.3 5.5-.1 1.8-.2 3.7-.3 5.5-.1 1.9-.3 3.7-.6 5.6-.2.9-.3 1.9-.6 2.8-.1.4-.3.9-.4 1.4-.2.4-.3.9-.5 1.3-1.5 3.5-3.5 6.5-4.7 9.8-1.1 3.3-1.4 6.9-1.6 10.4-.2 3.5-.1 7-.1 10.5 0 6.9-.2 13.6-.8 20-.6 6.3-1.5 12.3-3 17.7-1.4 5.4-3.3 10.2-5.4 14.2-.5 1-1.1 1.9-1.6 2.9-.5.9-1.1 1.7-1.6 2.6-.3.4-.5.8-.8 1.2-.3.4-.6.7-.8 1.1-.5.7-1.1 1.4-1.6 2-2.1 2.5-3.8 4.3-5.1 5.5-1.3 1.2-1.9 1.8-1.9 1.8s.6-.7 1.9-1.9c1.3-1.2 2.9-3.1 4.9-5.6.5-.7 1-1.3 1.5-2.1.3-.4.5-.7.8-1.1.2-.4.5-.8.7-1.2.5-.8 1-1.7 1.6-2.6.5-.9 1-1.9 1.5-2.9 1.9-4 3.7-8.8 5-14.1 1.3-5.3 2.2-11.2 2.6-17.5.5-6.3.5-13 .5-19.8 0-3.4-.1-7 0-10.6.1-1.8.2-3.6.5-5.4.1-.9.3-1.8.5-2.7.2-.9.4-1.8.7-2.7 1.2-3.6 3.3-6.7 4.6-10 1.4-3.2 1.8-6.8 2-10.5.1-1.8.2-3.7.3-5.5.1-1.8.3-3.7.4-5.5.3-3.6.4-7.3.6-10.9.2-7.2.1-14.4-.2-21.2-.3-6.9-.9-13.5-1.5-19.8-.7-6.3-1.4-12.2-2.2-17.7-1.6-10.9-3.3-20-4.6-26.3-.6-3.2-1.1-5.6-1.5-7.3-.7-2.1-.9-3-.9-3z"/><path d="M469.8 429.5s-.9.3-2.6.9c-1.7.6-4.3 1.3-7.5 2.2-3.3.9-7.3 1.8-11.9 2.7-2.3.5-4.7 1-7.4 1.4-2.6.4-5.3.9-8.2 1.4-2.9.4-5.9.8-9 1.2-3.1.4-6.3.6-9.6 1-6.6.5-13.6.8-20.8 1-14.5.2-29.9.4-45.3.6h-11.6c-3.8-.1-7.7-.1-11.5-.2-7.6-.2-15-.5-22.3-.7-3.6-.1-7.2-.3-10.6-.5-3.5-.2-6.9-.4-10.2-.6-6.6-.4-12.9-.8-18.6-1.3-5.8-.5-11-1.1-15.7-1.7-4.7-.6-8.7-1.2-12-1.8-3.3-.6-5.9-1.1-7.7-1.5l-2.7-.6.1-.3s1 .1 2.7.4c1.8.2 4.4.6 7.8.9 3.3.3 7.4.8 12.1 1.1 4.7.3 9.9.7 15.7 1 5.8.3 12 .6 18.6.9 3.3.1 6.7.3 10.2.5a6648.251 6648.251 0 0 0 32.8 1.8c7.6.4 15.3.8 22.9 1.1 3.8.1 7.7.3 11.5.4 3.8 0 7.7.1 11.4 0 1.9 0 3.8-.1 5.7-.1 1.9 0 3.7-.1 5.6-.2 3.7-.2 7.4-.4 11-.7 3.6-.3 7.1-.6 10.6-.9 1.7-.2 3.4-.4 5.1-.5 1.7-.2 3.4-.3 5-.5 3.3-.3 6.5-.7 9.6-1 3.1-.4 6.1-.7 8.9-1.1 2.9-.4 5.6-.8 8.2-1.1 2.6-.3 5.1-.7 7.4-1.1 2.3-.4 4.5-.7 6.5-1 2-.3 3.8-.7 5.5-1 3.3-.6 5.9-1.2 7.7-1.5l2.7-.6h-.1z"/><path class="st3" d="M327.3 577.9c.6 13.5.4 27.2-.6 40.7-.3 3.6-.6 7.3 0 10.8.6 3.4 2 6.3 3.4 9.1 5.1 9.6 12.1 18.6 21 19.4 3 .3 6-.5 9.1-1 13.9-2.2 27.9.5 41.8-1.8 3.2-.5 6.5-1.4 9.1-4 4.8-4.7 6-13.5 6.3-21.3.4-11.7-.5-23.6 1.1-35.2.6-3.9 1.3-8.2-.3-11.4-1.7-3.4-5.2-3.7-8.2-4.4-5.5-1.3-10.5-5-15.9-7.2-8.8-3.7-18.7-3.5-27.7.6-12 5.5-24.6.5-37.1 2.1-.5.1-1.1.2-1.6.6-.4.6-.8 2.5-.4 3z"/><path d="M328 579.3s1.2.9 3.4 2.5c2.1 1.6 5.2 3.9 8.8 6.6 1.8 1.4 3.8 2.9 5.8 4.4 2.1 1.5 4.4 3 6.8 4.3 2.5 1.3 5.1 2.3 8 2.7 2.8.4 5.8.2 8.7-.2 2.9-.5 5.9-1.2 8.8-1.9 2.9-.7 5.8-1.4 8.5-2.1 5.5-1.3 10.7-2.5 15-3.8 4.3-1.3 7.8-2.7 10.2-3.9 2.4-1.2 3.7-1.9 3.7-1.9l-.9.6c-.6.4-1.5 1-2.6 1.6-2.3 1.3-5.7 3.1-10 4.6-4.3 1.6-9.5 2.9-15 4.4-2.7.7-5.6 1.5-8.5 2.2-2.9.7-5.9 1.5-8.9 2-3.1.5-6.2.7-9.3.2-3.1-.5-5.9-1.7-8.5-3.1-2.6-1.4-4.8-3-6.9-4.7-2.1-1.6-3.9-3.2-5.7-4.7-3.5-3-6.3-5.5-8.3-7.2-1.9-1.6-3.1-2.6-3.1-2.6zm30.4 22.2s-.1.8-.3 2.2c-.2 1.4-.4 3.3-.8 5.7-.3 2.3-.7 5.1-1.1 8-.4 2.9-.8 6-1.2 9.1-.4 3.1-.8 6.2-1.1 9.1-.3 2.9-.7 5.6-.9 8-.3 2.3-.5 4.3-.7 5.7-.2 1.4-.3 2.2-.3 2.2s0-.8-.1-2.2c0-1.4-.1-3.4-.1-5.7 0-2.4.1-5.1.3-8.1.1-1.5.2-3 .4-4.5s.3-3.1.5-4.7.5-3.1.7-4.7c.2-1.5.5-3 .8-4.5.5-2.9 1.1-5.6 1.7-7.9.6-2.3 1.1-4.2 1.5-5.5.4-1.4.7-2.2.7-2.2z"/><path class="st3" d="M322.1 482.7c.6-.2 1.3-.3 2-.3 1.8-.1 3.6.4 5.4.8 14 3.6 22.5 9.4 34.9 16.3 2.8 1.6 5.7 3.2 7.6 5.9 2.9 4.2 2.4 9.7 3.1 14.8 1.1 6.9 4.7 13.2 7.2 19.7 2.5 6.6 3.9 14.2.5 20.4-1.4 2.5-3.4 4.5-5.4 6.5L364.2 580c-5.1 5.1-10.4 10.3-17.3 12.5-10.1 3.2-20.9-1.2-30.6-5.4-7.8-3.4-16-7.2-20.3-14.6-1.9-3.3-2.9-7.1-3.8-10.8-1.7-6.8-3.3-13.6-5-20.5-5.3-21.7 12-43.7 28.7-55.2 1.9-1.4 4-2.7 6.2-3.3z"/><path d="M293.5 523s1.2.2 3.2.5c2 .4 4.9.8 8.3 1.5 3.4.6 7.4 1.4 11.7 2.3 2.1.4 4.3.9 6.6 1.4 2.2.5 4.5 1 6.8 1.5 2.2.5 4.4.7 6.5.3 2-.4 3.9-1.5 5.6-2.8 1.7-1.3 3.2-2.7 4.7-4 1.5-1.3 2.9-2.6 4.2-3.7 2.6-2.3 4.9-4.1 6.4-5.5 1.6-1.3 2.5-2 2.5-2s-.8.9-2.2 2.3c-1.4 1.4-3.4 3.6-5.9 6l-4 4c-1.4 1.4-2.9 2.9-4.6 4.3-1.7 1.4-3.8 2.8-6.3 3.3s-5 .2-7.3-.2c-2.3-.5-4.5-1-6.8-1.5-2.2-.5-4.4-1-6.5-1.5-4.2-1-8.2-2-11.6-2.9-3.4-.9-6.2-1.7-8.1-2.2-2-.7-3.2-1.1-3.2-1.1z"/><path d="M337.4 532s1.1 2.8 2.4 7c.7 2.1 1.4 4.6 2.1 7.3.3 1.3.7 2.7 1.1 4.1.3 1.4.7 2.8 1 4.3.3 1.4.6 2.9.9 4.3.3 1.4.5 2.8.8 4.2.5 2.7.9 5.3 1.2 7.5.6 4.4.8 7.3.8 7.3s-.2-.7-.6-2c-.3-1.2-.8-3-1.4-5.2-.5-2.1-1.2-4.6-1.8-7.3-.3-1.3-.7-2.7-1-4.1-.3-1.4-.6-2.8-1-4.3-.6-2.9-1.3-5.7-1.8-8.4-.6-2.7-1.1-5.2-1.5-7.4-.8-4.4-1.2-7.3-1.2-7.3z"/><path class="st3" d="M268.4 651.7c4 4.3 10.1 5.7 15.8 6.9 14.5 3.1 30.2 6 43.7-.1 9.7-4.4 16.7-12.8 23.5-21 2-2.5 4.1-5.1 4.4-8.3.3-3-1.2-5.9-2.6-8.6-4.3-8.1-8.6-16.1-12.8-24.2-3.4-6.3-7.1-13-13.5-16.2-4.7-2.3-10.1-2.4-15.3-2.5l-23.9-.3c-2.3 0-4.7 0-6.8.7-2.6.9-4.7 2.9-6.7 4.9-8.2 8.4-20.3 19.7-18.6 32.4 1.2 10.1 5.9 29 12.8 36.3z"/><path d="M276.4 645.5s.3 0 .9-.1c.6-.1 1.4-.2 2.4-.6 1-.4 2.1-1 3.4-1.8 1.2-.8 2.5-1.9 4-3s3.1-2.3 5.1-3.3c2-.9 4.1-1.6 6.1-2.6 2-.9 3.9-2.2 5-4 1.2-1.8 1.4-4.1 1-6.4-.4-2.3-1.2-4.5-2.2-6.7-1.1-2.2-2.1-4.3-3.1-6.3-2-4.1-3.9-8-5.5-11.3-1.6-3.3-2.8-6.1-3.7-8.1-.9-2-1.4-3.1-1.4-3.1s.6 1.1 1.7 2.9c1.1 1.9 2.6 4.5 4.4 7.7 1.8 3.2 3.9 7 6 11 1.1 2 2.2 4.1 3.3 6.3 1 2.2 2 4.6 2.4 7.2.2 1.3.3 2.6.1 4l-.2 1-.3 1c-.2.6-.6 1.3-.9 1.8-1.4 2.4-3.8 3.7-6 4.6-2.2.9-4.3 1.5-6.2 2.3-1.9.8-3.5 1.8-5.1 2.8-1.5 1-2.9 2-4.3 2.7-1.3.7-2.6 1.3-3.6 1.5-1.1.3-1.9.3-2.5.3-.5.3-.8.2-.8.2zm31-15s.5-.3 1.5-.8c.5-.3 1-.5 1.8-.7.4-.1.7-.3 1.1-.4.4-.1.8-.2 1.3-.3.9-.2 1.8-.4 2.9-.6 1-.2 2.1-.2 3.2-.3 1.1 0 2.3-.1 3.5-.1h3.6c2.4.1 4.7.2 6.9.2 1.1 0 2.2 0 3.2-.1s2-.1 2.8-.2c.4 0 .9-.1 1.3-.1.4-.1.8-.1 1.1-.2.7-.1 1.3-.2 1.8-.4 1-.3 1.6-.4 1.6-.4s-.5.3-1.5.8c-.5.3-1.1.5-1.8.7-.3.1-.7.3-1.1.4-.4.1-.8.2-1.3.3-.9.2-1.8.4-2.9.6-1 .2-2.1.3-3.2.3s-2.3.1-3.5.1h-3.6c-2.4-.1-4.7-.2-6.9-.2-1.1 0-2.2 0-3.2.1s-2 .1-2.8.2c-.4 0-.9.1-1.3.1-.4.1-.8.1-1.1.2-.7.1-1.3.2-1.8.4-1.1.3-1.6.4-1.6.4z"/></svg>