<?xml version="1.0" encoding="utf-8"?>
<!-- Generator: Adobe Illustrator 19.2.0, SVG Export Plug-In . SVG Version: 6.00 Build 0)  -->
<svg version="1.1" id="Layer_1" xmlns="http://www.w3.org/2000/svg" xmlns:xlink="http://www.w3.org/1999/xlink" x="0px" y="0px"
	 viewBox="0 0 700 700" style="enable-background:new 0 0 700 700;" xml:space="preserve">
<style type="text/css">
	.st0{fill:none;}
	.st1{fill:url(#SVGID_1_);}
	.st2{fill:none;stroke:#000000;stroke-width:5;stroke-miterlimit:10;}
</style>
<rect x="0" y="0" class="st0" width="700" height="700"/>
<g>
	<linearGradient id="SVGID_1_" gradientUnits="userSpaceOnUse" x1="239.4629" y1="559.6911" x2="457.9489" y2="559.6911">
		<stop  offset="0" style="stop-color:#CC0035"/>
		<stop  offset="0.9981" style="stop-color:#FF3F55"/>
	</linearGradient>
	<path class="st1" d="M457.9,438.4c-0.5,0.1-1.1,0.2-1.6,0.3c-71.4,10-143.8-4.6-215.9-3.3c-0.3,0.2-0.6,0.4-0.9,0.5
		c-0.3,9.1,0.3,18.3,0.9,27.3c1.1,17,1.9,34,2.2,51c0.7,34.1-0.2,68.1-2.6,102.1c-0.8,10.5-1.6,21.5,2.5,31.2
		c11.5,27.6,54.5,31.9,80.5,34.7c21.9,2.3,44.1,2.2,65.9-0.7c10.9-1.5,21.7-3.6,32.3-6.4c7.7-2.1,18.9-4.3,24.3-10.7
		c2.9-3.5,4.6-7.8,5.8-12.2c1-3.6,1.8-7.2,2.1-10.9c0.3-3.8,0.1-7.7-0.2-11.6c-2.1-35.4-0.4-70.9,1.4-106.2
		c0.9-17.7,1.9-35.4,2.5-53.1C457.6,459.8,457,449.1,457.9,438.4z"/>
	<g>
		<g>
			<path d="M255.5,514.6c0,0,0.3,0.8,0.7,2.3c0.5,1.4,1.1,3.5,1.9,6c0.8,2.5,1.7,5.4,2.7,8.4c0.5,1.5,1,3.1,1.6,4.7
				c0.5,1.6,1.1,3.2,1.7,4.9c0.5,1.6,1.1,3.3,1.7,4.9c0.6,1.6,1.2,3.2,1.7,4.7c0.6,1.5,1.1,3,1.7,4.4c0.5,1.4,1.1,2.7,1.5,3.9
				c2,4.8,3.3,8,3.3,8s-0.5-0.7-1.3-2c-0.8-1.3-1.9-3.2-3.1-5.5c-0.6-1.2-1.2-2.4-1.9-3.8c-0.6-1.4-1.3-2.8-1.9-4.3
				c-0.6-1.5-1.3-3.1-1.9-4.7c-0.6-1.6-1.2-3.2-1.8-4.9c-0.6-1.6-1.1-3.3-1.6-4.9c-0.5-1.6-1-3.3-1.4-4.8c-0.4-1.6-0.8-3.1-1.2-4.6
				c-0.4-1.4-0.7-2.8-0.9-4.1c-0.3-1.3-0.5-2.5-0.7-3.5c-0.2-1-0.3-2-0.5-2.7C255.6,515.4,255.5,514.6,255.5,514.6z"/>
		</g>
		<g>
			<path d="M279.5,552.4c0,0,0.4-2,1.2-4.9c0.4-1.4,0.9-3.1,1.5-4.9c0.3-0.9,0.6-1.8,0.9-2.7c0.3-0.9,0.7-1.9,1-2.8
				c0.4-0.9,0.7-1.9,1.1-2.8c0.4-0.9,0.8-1.8,1.2-2.7c0.8-1.7,1.7-3.3,2.5-4.5c0.8-1.3,1.6-2.3,2.3-2.9c0.3-0.3,0.6-0.6,0.7-0.7
				c0.2-0.2,0.3-0.2,0.3-0.2s-0.3,0.4-0.7,1.2c-0.4,0.8-1,1.9-1.6,3.2c-0.3,0.7-0.6,1.4-0.9,2.2c-0.3,0.8-0.6,1.6-1,2.5
				c-0.6,1.7-1.3,3.6-2,5.4c-0.4,0.9-0.7,1.9-1.1,2.8c-0.3,0.9-0.7,1.8-1.1,2.7c-0.7,1.7-1.4,3.3-2,4.7
				C280.5,550.6,279.5,552.4,279.5,552.4z"/>
		</g>
		<g>
			<path d="M279,569.7c0,0,1.1,1.5,2.5,3.9c0.7,1.2,1.5,2.6,2.4,4.1c0.4,0.8,0.8,1.5,1.2,2.4c0.4,0.8,0.8,1.6,1.2,2.5
				c0.4,0.8,0.8,1.7,1.2,2.5c0.4,0.8,0.7,1.6,1.1,2.4c0.7,1.6,1.3,3.1,1.8,4.4c1,2.6,1.5,4.4,1.5,4.4s-1.1-1.5-2.5-3.9
				c-0.7-1.2-1.5-2.6-2.4-4.1c-0.4-0.8-0.8-1.5-1.2-2.4c-0.4-0.8-0.8-1.6-1.2-2.5c-0.4-0.8-0.8-1.7-1.2-2.5
				c-0.4-0.8-0.7-1.6-1.1-2.4c-0.7-1.6-1.3-3.1-1.8-4.4C279.5,571.5,279,569.7,279,569.7z"/>
		</g>
		<g>
			<path d="M296.3,587.8c0,0,0.3-1.9,1.2-4.7c0.4-1.4,0.9-3,1.5-4.7c0.3-0.9,0.6-1.7,1-2.6c0.4-0.9,0.7-1.8,1.1-2.7
				c0.4-0.9,0.8-1.8,1.2-2.6c0.4-0.9,0.8-1.7,1.3-2.5c0.8-1.6,1.7-3.1,2.5-4.4c1.5-2.5,2.7-4,2.7-4s-0.2,0.5-0.4,1.3
				c-0.3,0.8-0.7,1.9-1.3,3.3c-0.5,1.4-1.2,2.9-1.9,4.6c-0.4,0.8-0.7,1.7-1.1,2.6c-0.4,0.9-0.8,1.8-1.1,2.6
				c-0.8,1.8-1.6,3.5-2.3,5.2c-0.7,1.7-1.5,3.2-2.1,4.5c-0.6,1.3-1.2,2.4-1.6,3.2C296.5,587.4,296.3,587.8,296.3,587.8z"/>
		</g>
		<g>
			<path d="M259.8,582.6c0,0,0.1-0.3,0.3-0.8c0.2-0.5,0.5-1.2,0.8-2c0.4-0.8,0.8-1.8,1.3-2.8c0.2-0.5,0.5-1,0.7-1.5
				c0.3-0.5,0.5-1,0.8-1.6c0.5-1,1.1-2.1,1.6-3.1c0.5-1,1.1-1.9,1.5-2.6c0.9-1.5,1.7-2.5,1.7-2.5s-0.1,1.2-0.6,3
				c-0.2,0.9-0.6,1.9-1,2.9c-0.2,0.5-0.4,1.1-0.7,1.6c-0.2,0.5-0.5,1.1-0.8,1.6c-0.6,1.1-1.2,2.1-1.8,3c-0.3,0.5-0.6,0.9-0.9,1.3
				c-0.3,0.4-0.6,0.8-0.9,1.2C260.7,581.8,259.8,582.6,259.8,582.6z"/>
		</g>
		<g>
			<path d="M246.6,562c0,0,0.1-0.1,0.2-0.2c0.2-0.1,0.5-0.3,1-0.2c0.4,0.1,0.9,0.5,1.3,0.9c0.4,0.4,0.8,1,1.1,1.6
				c0.3,0.6,0.7,1.3,1,2c0.3,0.7,0.6,1.5,0.9,2.3c0.3,0.8,0.6,1.6,0.9,2.5c0.3,0.8,0.6,1.7,0.8,2.6c0.3,0.9,0.5,1.7,0.8,2.6
				c0.3,0.8,0.5,1.7,0.7,2.5c0.4,1.6,0.8,3.2,1.1,4.5c0.6,2.7,0.8,4.5,0.8,4.5s-0.9-1.6-1.9-4.1c-0.5-1.3-1.1-2.7-1.7-4.3
				c-0.3-0.8-0.6-1.6-0.9-2.5c-0.3-0.8-0.6-1.7-0.8-2.6c-0.3-0.9-0.5-1.7-0.8-2.6c-0.3-0.8-0.5-1.7-0.7-2.5
				c-0.2-0.8-0.4-1.6-0.6-2.4c-0.2-0.7-0.4-1.4-0.6-2c-0.4-1.2-0.9-2.3-1.5-2.6c-0.3-0.2-0.6-0.1-0.8-0.1
				C246.7,562,246.6,562,246.6,562z"/>
		</g>
		<g>
			<path d="M246.3,617.1c0,0,0.3-1.4,1-3.5c0.3-1,0.8-2.2,1.3-3.4c0.5-1.2,1-2.6,1.6-3.9c0.6-1.3,1.2-2.6,1.8-3.8
				c0.6-1.2,1.2-2.3,1.7-3.2c1-1.9,1.9-3.1,1.9-3.1s-0.2,1.4-0.8,3.5c-0.3,1-0.7,2.2-1.1,3.5c-0.2,0.6-0.5,1.3-0.7,1.9
				c-0.3,0.7-0.5,1.3-0.8,2c-0.6,1.3-1.2,2.6-1.8,3.8c-0.6,1.2-1.2,2.3-1.8,3.2C247.2,615.9,246.3,617.1,246.3,617.1z"/>
		</g>
		<g>
			<path d="M261.2,601.3c0,0,0.3,0.3,0.7,0.7c0.4,0.5,1,1.2,1.7,2.1c0.7,0.9,1.4,2,2.1,3.2c0.7,1.2,1.4,2.5,2,3.9
				c0.6,1.4,1.1,2.7,1.5,4.1c0.4,1.3,0.8,2.6,1,3.7c0.5,2.2,0.6,3.7,0.6,3.7s-0.2-0.3-0.5-0.9c-0.3-0.6-0.7-1.4-1.2-2.4
				c-0.5-1-1-2.2-1.6-3.4c-0.6-1.2-1.1-2.6-1.7-3.9c-1.2-2.7-2.3-5.3-3.2-7.3c-0.4-1-0.8-1.8-1-2.5
				C261.3,601.7,261.2,601.3,261.2,601.3z"/>
		</g>
		<g>
			<path d="M259.9,656.9c0,0,0-0.4,0.1-1.2c0-0.8,0.1-1.8,0.3-3.1c0.2-1.3,0.5-2.8,0.9-4.4c0.4-1.6,0.9-3.3,1.5-4.9
				c0.6-1.6,1.2-3.3,2-4.7c0.7-1.5,1.5-2.8,2.2-3.9c0.7-1.1,1.4-2,1.8-2.6c0.5-0.6,0.8-0.9,0.8-0.9s-0.1,0.4-0.4,1.1
				c-0.3,0.7-0.7,1.7-1.1,2.9c-0.5,1.2-1,2.6-1.6,4.1c-0.3,0.7-0.5,1.5-0.9,2.3c-0.3,0.8-0.6,1.6-0.9,2.4c-0.3,0.8-0.6,1.6-0.9,2.4
				c-0.3,0.8-0.5,1.6-0.8,2.3c-0.5,1.5-1,2.9-1.4,4.2c-0.4,1.2-0.8,2.2-1.1,3C260.1,656.5,259.9,656.9,259.9,656.9z"/>
		</g>
		<g>
			<path d="M277.9,625c0,0,0.1-0.4,0.4-1.1c0.3-0.7,0.7-1.7,1.2-2.9c0.5-1.2,1.1-2.5,1.8-4c0.3-0.7,0.7-1.5,1-2.2
				c0.4-0.8,0.7-1.5,1.1-2.3c0.4-0.8,0.7-1.5,1.1-2.3c0.4-0.8,0.7-1.5,1.1-2.2c0.7-1.4,1.4-2.8,2-3.9c0.6-1.1,1.1-2.1,1.5-2.7
				c0.4-0.7,0.6-1,0.6-1s-0.3,1.7-1.1,4.2c-0.4,1.2-0.9,2.7-1.5,4.2c-0.3,0.7-0.6,1.5-1,2.3c-0.4,0.8-0.7,1.6-1.1,2.3
				c-0.4,0.8-0.8,1.5-1.2,2.3c-0.4,0.8-0.8,1.5-1.2,2.2c-0.4,0.7-0.8,1.4-1.2,2c-0.4,0.6-0.8,1.2-1.1,1.7
				C279.1,623.7,277.9,625,277.9,625z"/>
		</g>
		<g>
			<path d="M276.3,633.8c0,0,1.1,1.9,2.4,4.8c0.7,1.5,1.5,3.2,2.2,5.1c0.4,0.9,0.8,1.9,1.2,2.9c0.4,1,0.8,2,1.2,3c0.4,1,0.7,2,1.1,3
				c0.4,1,0.7,2,1,2.9c0.6,1.9,1.2,3.7,1.7,5.3c0.9,3.1,1.4,5.2,1.4,5.2s-1.1-1.9-2.4-4.8c-0.7-1.5-1.5-3.2-2.2-5.1
				c-0.4-0.9-0.8-1.9-1.2-2.9c-0.4-1-0.8-2-1.2-3c-0.4-1-0.7-2-1.1-3c-0.4-1-0.7-2-1-2.9c-0.6-1.9-1.2-3.7-1.7-5.3
				C276.7,635.9,276.3,633.8,276.3,633.8z"/>
		</g>
		<g>
			<path d="M296.5,603.3c0,0,0.3,0.5,0.8,1.3c0.5,0.9,1.3,2.1,2.1,3.5c0.9,1.5,1.9,3.2,2.9,5c0.5,0.9,1.1,1.9,1.7,2.8
				c0.6,1,1.1,1.9,1.7,2.9c0.6,1,1.1,2,1.7,2.9c0.6,1,1.1,1.9,1.7,2.8c1.1,1.8,2.1,3.5,3,5c0.9,1.5,1.6,2.7,2.1,3.5
				c0.5,0.9,0.8,1.4,0.8,1.4s-0.4-0.4-1.1-1.1c-0.7-0.7-1.7-1.8-2.7-3.1c-0.6-0.7-1.1-1.4-1.7-2.2c-0.6-0.8-1.2-1.6-1.8-2.5
				c-0.6-0.9-1.3-1.8-1.8-2.8c-0.6-1-1.2-1.9-1.8-2.9c-0.6-1-1.1-2-1.7-3c-0.5-1-1-2-1.5-2.9c-1-1.9-1.8-3.8-2.4-5.4
				c-0.7-1.6-1.2-2.9-1.5-3.9C296.7,603.9,296.5,603.3,296.5,603.3z"/>
		</g>
		<g>
			<path d="M313.7,566c0,0,0-0.1,0-0.4c0-0.1,0.2-0.4,0.4-0.4c0.3,0,0.5,0.1,0.7,0.3c0.2,0.2,0.4,0.4,0.6,0.7
				c0.2,0.3,0.4,0.6,0.6,0.9c0.4,0.6,0.8,1.3,1.3,2.1c0.9,1.5,2,3.3,3.1,5.3c0.5,1,1.1,2,1.7,3c0.6,1,1.1,2.1,1.7,3.1
				c0.5,1.1,1.1,2.1,1.6,3.2c0.5,1,1,2.1,1.5,3.1c1,2,1.9,3.9,2.6,5.6c1.5,3.3,2.3,5.6,2.3,5.6s-1.4-2-3.3-5c-1-1.5-2-3.3-3.1-5.3
				c-0.5-1-1.1-2-1.7-3c-0.6-1-1.1-2.1-1.7-3.1c-0.5-1.1-1.1-2.1-1.6-3.2c-0.5-1-1-2.1-1.5-3.1c-1-2-1.9-3.9-2.6-5.6
				c-0.4-0.8-0.7-1.6-1-2.3c-0.1-0.3-0.3-0.7-0.4-0.9c-0.1-0.3-0.2-0.5-0.4-0.7c-0.1-0.2-0.3-0.3-0.5-0.4c-0.1,0-0.3,0.1-0.3,0.2
				C313.7,565.9,313.7,566.1,313.7,566z"/>
		</g>
		<g>
			<path d="M318.2,630.1c0,0,0.2-0.4,0.5-1.1c0.3-0.7,0.8-1.6,1.3-2.7c0.6-1.1,1.2-2.4,1.9-3.8c0.7-1.4,1.5-2.9,2.2-4.4
				c0.8-1.5,1.5-3,2.3-4.3c0.7-1.4,1.4-2.7,2-3.8c0.6-1.1,1.1-2,1.5-2.7c0.4-0.6,0.6-1,0.6-1s-0.3,1.7-1.1,4.1
				c-0.4,1.2-0.9,2.6-1.5,4.1c-0.3,0.7-0.6,1.5-1,2.2c-0.4,0.8-0.7,1.5-1.1,2.3c-0.8,1.5-1.6,3-2.5,4.3c-0.4,0.7-0.9,1.3-1.3,1.9
				c-0.4,0.6-0.8,1.2-1.2,1.7C319.5,629,318.2,630.1,318.2,630.1z"/>
		</g>
		<g>
			<path d="M318.1,646.9c0,0,1.2,1.6,2.8,4.2c0.8,1.3,1.7,2.8,2.7,4.5c0.5,0.8,1,1.7,1.4,2.6c0.5,0.9,0.9,1.8,1.4,2.7
				c0.5,0.9,0.9,1.8,1.4,2.7c0.5,0.9,0.9,1.8,1.3,2.6c0.8,1.7,1.5,3.3,2.1,4.7c1.2,2.8,1.8,4.8,1.8,4.8s-1.2-1.6-2.8-4.2
				c-0.8-1.3-1.7-2.8-2.7-4.5c-0.5-0.8-1-1.7-1.4-2.6c-0.5-0.9-0.9-1.8-1.4-2.7c-0.5-0.9-0.9-1.8-1.4-2.7c-0.5-0.9-0.9-1.8-1.3-2.6
				c-0.8-1.7-1.5-3.3-2.1-4.7C318.8,648.8,318.1,646.9,318.1,646.9z"/>
		</g>
		<g>
			<path d="M336,670.6c0,0,0.1-0.5,0.4-1.4c0.1-0.4,0.3-1,0.5-1.6c0.2-0.6,0.4-1.3,0.7-2c0.5-1.4,1.2-3.1,2-4.9
				c0.8-1.8,1.8-3.6,2.8-5.3c1.1-1.8,2.2-3.5,3.4-5c0.6-0.8,1.2-1.5,1.7-2.2c0.6-0.7,1.1-1.3,1.7-1.9c1.1-1.1,2-2,2.7-2.6
				c0.7-0.6,1.1-0.9,1.1-0.9s-1.2,1.7-2.9,4.2c-0.8,1.3-1.8,2.7-2.8,4.3c-0.5,0.8-1,1.6-1.5,2.5c-0.5,0.8-1,1.7-1.5,2.6
				c-0.5,0.9-1,1.7-1.5,2.6c-0.5,0.9-1,1.7-1.4,2.5c-0.9,1.7-1.8,3.2-2.5,4.5c-0.8,1.3-1.4,2.4-1.8,3.2
				C336.2,670.1,336,670.6,336,670.6z"/>
		</g>
		<g>
			<path d="M337.3,607.7c0,0-0.2-0.1-0.2,0.1c0,0.2,0,0.4,0.1,0.8c0.1,0.3,0.2,0.8,0.5,1c0.3,0.3,0.7,0.8,1.1,1.2
				c0.8,0.9,1.7,2,2.7,3.2c0.5,0.6,1,1.2,1.4,1.9c0.5,0.6,1,1.3,1.4,1.9c0.5,0.7,0.9,1.3,1.4,2c0.5,0.6,0.9,1.3,1.3,2
				c0.8,1.3,1.6,2.5,2.2,3.6c1.2,2.1,1.9,3.6,1.9,3.6s-1.2-1.1-2.8-3c-0.8-0.9-1.7-2-2.7-3.2c-0.5-0.6-1-1.2-1.4-1.9
				c-0.5-0.6-1-1.3-1.4-1.9c-0.5-0.7-0.9-1.3-1.4-2c-0.5-0.7-0.9-1.3-1.3-2c-0.8-1.3-1.6-2.5-2.2-3.6c-0.3-0.5-0.6-1-0.8-1.5
				c-0.3-0.6-0.2-1-0.2-1.4c0-0.4,0.1-0.7,0.2-0.9C337.1,607.6,337.2,607.6,337.3,607.7C337.3,607.7,337.3,607.7,337.3,607.7z"/>
		</g>
		<g>
			<path d="M358.5,644.5c0,0,0.4,0.3,1,0.7c0.6,0.5,1.5,1.2,2.5,2.2c0.5,0.5,1,1,1.5,1.6c0.5,0.6,1.1,1.2,1.6,1.9
				c1.1,1.3,2.1,2.8,3.1,4.3c1,1.5,1.9,3.1,2.6,4.6c0.8,1.5,1.4,3,1.9,4.2c0.5,1.3,0.8,2.3,1,3.1c0.2,0.8,0.3,1.2,0.3,1.2
				s-0.3-0.4-0.7-1c-0.4-0.7-1-1.6-1.7-2.8c-0.7-1.1-1.5-2.5-2.4-3.9c-0.4-0.7-0.9-1.4-1.3-2.2c-0.5-0.7-0.9-1.5-1.4-2.2
				c-0.5-0.8-0.9-1.5-1.4-2.2c-0.5-0.7-0.9-1.4-1.4-2.1c-0.9-1.4-1.8-2.6-2.6-3.7c-0.8-1.1-1.4-2-1.9-2.6
				C358.8,644.9,358.5,644.5,358.5,644.5z"/>
		</g>
		<g>
			<path d="M381.5,670c0,0,0.1-0.4,0.3-1.1c0.2-0.7,0.5-1.7,0.9-2.9c0.4-1.2,1-2.5,1.7-4c0.7-1.4,1.5-2.9,2.4-4.3
				c0.9-1.4,1.8-2.8,2.8-4c1-1.2,2-2.3,2.9-3.2c0.9-0.9,1.7-1.6,2.3-2c0.6-0.4,0.9-0.7,0.9-0.7s-0.2,0.4-0.6,1
				c-0.4,0.6-1,1.5-1.7,2.5c-0.7,1-1.5,2.2-2.3,3.5c-0.4,0.6-0.8,1.3-1.3,2c-0.4,0.7-0.9,1.4-1.3,2.1c-0.4,0.7-0.9,1.4-1.3,2.1
				c-0.4,0.7-0.8,1.4-1.2,2c-0.8,1.3-1.5,2.6-2.2,3.6c-0.6,1.1-1.2,1.9-1.6,2.6C381.7,669.7,381.5,670,381.5,670z"/>
		</g>
		<g>
			<path d="M358.9,628.8c0,0,0.1,0,0.3,0c0.2,0,0.5,0,0.8-0.2c0.6-0.4,1.3-1.3,1.9-2.4c0.6-1.2,1.2-2.6,2-4.1
				c0.4-0.8,0.8-1.5,1.2-2.3c0.4-0.8,0.9-1.6,1.3-2.4c0.4-0.8,0.9-1.6,1.3-2.3c0.4-0.8,0.9-1.5,1.3-2.2c0.9-1.5,1.7-2.8,2.5-3.9
				c1.5-2.3,2.7-3.7,2.7-3.7s-0.6,1.7-1.7,4.2c-0.5,1.2-1.2,2.7-2,4.2c-0.4,0.8-0.8,1.5-1.2,2.3c-0.4,0.8-0.9,1.6-1.3,2.4
				c-0.4,0.8-0.9,1.6-1.3,2.3c-0.4,0.8-0.9,1.5-1.3,2.2c-0.4,0.7-0.9,1.4-1.3,2.1c-0.4,0.7-0.9,1.3-1.3,1.8
				c-0.9,1.1-1.8,1.9-2.7,2.2c-0.4,0.1-0.8,0-1,0C359,628.8,358.9,628.8,358.9,628.8z"/>
		</g>
		<g>
			<path d="M316.7,552.1c0,0,0.8-2.1,2.2-5.2c0.7-1.5,1.5-3.3,2.5-5.2c0.5-0.9,0.9-1.9,1.5-2.9c0.5-1,1-2,1.6-3c0.5-1,1.1-2,1.6-2.9
				c0.5-1,1.1-1.9,1.6-2.8c1.1-1.8,2.1-3.5,3-4.9c1.8-2.8,3.2-4.7,3.2-4.7s-0.8,2.1-2.2,5.2c-0.7,1.5-1.5,3.3-2.5,5.2
				c-0.5,0.9-0.9,1.9-1.5,2.9c-0.5,1-1,2-1.6,3c-0.5,1-1.1,2-1.6,2.9c-0.5,1-1.1,1.9-1.6,2.8c-1.1,1.8-2.1,3.5-3,4.9
				C318.1,550.3,316.7,552.1,316.7,552.1z"/>
		</g>
		<g>
			<path d="M318.3,478.8c0,0,1.2,2,2.8,5.2c0.8,1.6,1.7,3.4,2.6,5.4c0.5,1,1,2,1.4,3.1c0.5,1,1,2.1,1.4,3.2c0.5,1.1,0.9,2.1,1.4,3.2
				c0.5,1,0.9,2.1,1.3,3.1c0.8,2,1.6,3.9,2.2,5.6c1.3,3.3,2,5.5,2,5.5s-1.3-2-3-5.1c-0.9-1.5-1.8-3.4-2.8-5.3c-0.5-1-1-2-1.5-3
				c-0.5-1-1-2.1-1.5-3.2c-0.5-1.1-0.9-2.2-1.4-3.2c-0.5-1.1-0.9-2.1-1.3-3.1c-0.8-2-1.5-4-2.1-5.6
				C318.9,481.1,318.3,478.8,318.3,478.8z"/>
		</g>
		<g>
			<path d="M297.3,515.1c0,0,0.2-0.5,0.6-1.3c0.4-0.8,1-2,1.7-3.3c0.7-1.4,1.6-3,2.5-4.7c0.5-0.8,0.9-1.7,1.4-2.6
				c0.5-0.9,1-1.8,1.5-2.7c1-1.8,2-3.6,3-5.3c1-1.7,1.9-3.2,2.7-4.6c0.8-1.3,1.5-2.4,2-3.2c0.5-0.8,0.8-1.2,0.8-1.2s-0.6,2-1.8,4.9
				c-0.6,1.4-1.3,3.1-2.2,4.9c-0.4,0.9-0.9,1.8-1.4,2.7c-0.5,0.9-1,1.8-1.5,2.7c-0.5,0.9-1.1,1.8-1.6,2.7c-0.5,0.9-1.1,1.7-1.6,2.5
				c-1.1,1.6-2.1,3.1-3.1,4.4C298.7,513.6,297.3,515.1,297.3,515.1z"/>
		</g>
		<g>
			<path d="M339.7,511.4c0,0,0.3-1.5,1-3.6c0.3-1.1,0.8-2.3,1.3-3.6c0.3-0.6,0.5-1.3,0.8-2c0.3-0.7,0.6-1.3,0.9-2
				c0.7-1.3,1.4-2.7,2.1-3.9c0.7-1.2,1.4-2.3,2.1-3.2c1.3-1.8,2.3-3,2.3-3s-0.5,1.5-1.3,3.5c-0.4,1-0.9,2.2-1.5,3.5
				c-0.3,0.6-0.6,1.3-0.9,1.9c-0.3,0.7-0.6,1.3-1,2c-0.7,1.3-1.3,2.6-2,3.9c-0.6,1.2-1.3,2.4-1.8,3.3
				C340.6,510.1,339.7,511.4,339.7,511.4z"/>
		</g>
		<g>
			<path d="M360,550.9c0,0,0.4-2,1.3-4.8c0.4-1.4,1-3.1,1.7-4.8c0.4-0.9,0.7-1.8,1.1-2.7c0.4-0.9,0.8-1.8,1.2-2.7
				c0.4-0.9,0.9-1.8,1.3-2.7c0.4-0.9,0.9-1.7,1.3-2.6c0.9-1.7,1.8-3.2,2.5-4.5c1.6-2.6,2.8-4.2,2.8-4.2s-0.6,1.9-1.8,4.7
				c-0.6,1.4-1.2,3-2,4.7c-0.4,0.8-0.7,1.7-1.2,2.6c-0.4,0.9-0.8,1.8-1.2,2.7c-0.8,1.8-1.7,3.6-2.5,5.3c-0.8,1.7-1.6,3.2-2.3,4.6
				C361,549.2,360,550.9,360,550.9z"/>
		</g>
		<g>
			<path d="M338.4,529.5c0,0,0.2,0.4,0.6,1.2c0.3,0.8,0.8,1.9,1.4,3.2c0.6,1.3,1.2,2.8,1.9,4.4c0.3,0.8,0.7,1.6,1.1,2.5
				c0.4,0.8,0.8,1.7,1.2,2.5c0.4,0.9,0.8,1.7,1.2,2.5c0.4,0.8,0.8,1.7,1.2,2.4c0.8,1.6,1.6,3,2.2,4.3c1.4,2.5,2.3,4.2,2.3,4.2
				s-0.4-0.3-0.9-0.9c-0.6-0.6-1.4-1.5-2.3-2.6c-0.4-0.6-0.9-1.2-1.4-1.9c-0.5-0.7-1-1.4-1.4-2.2c-0.9-1.5-1.8-3.2-2.7-5
				c-0.8-1.8-1.5-3.5-2.1-5.2c-0.6-1.7-1-3.3-1.4-4.7c-0.2-0.7-0.3-1.3-0.4-1.9c-0.1-0.6-0.2-1.1-0.3-1.5
				C338.5,530,338.4,529.5,338.4,529.5z"/>
		</g>
		<g>
			<path d="M340.4,593.5c0,0,0.3-1.7,1-4.1c0.3-1.2,0.8-2.6,1.4-4.1c0.3-0.7,0.6-1.5,0.9-2.3c0.3-0.8,0.7-1.5,1-2.3
				c0.7-1.5,1.5-3,2.3-4.4c0.4-0.7,0.8-1.3,1.2-2c0.4-0.6,0.8-1.2,1.1-1.7c1.5-2.1,2.6-3.3,2.6-3.3s-0.1,0.4-0.4,1.1
				c-0.3,0.7-0.7,1.7-1.2,2.8c-0.5,1.2-1.1,2.5-1.8,3.9c-0.3,0.7-0.7,1.5-1,2.2c-0.3,0.7-0.7,1.5-1.1,2.3c-0.7,1.5-1.4,3-2.1,4.4
				c-0.7,1.4-1.3,2.7-1.9,3.8c-0.6,1.1-1.1,2-1.4,2.7C340.6,593.1,340.4,593.5,340.4,593.5z"/>
		</g>
		<g>
			<path d="M359.1,571.6c0,0,0.4,0.3,1,0.8c0.3,0.3,0.7,0.6,1.1,1.1c0.4,0.4,0.8,1,1.2,1.5c0.4,0.6,0.9,1.2,1.3,2
				c0.4,0.7,0.8,1.5,1.2,2.3c0.4,0.8,0.8,1.6,1.2,2.5c0.4,0.9,0.7,1.7,1.1,2.6c0.3,0.9,0.7,1.7,1,2.6c0.3,0.9,0.7,1.7,1,2.5
				c0.3,0.8,0.6,1.6,0.9,2.3c0.3,0.7,0.6,1.4,0.9,2.1c0.3,0.6,0.6,1.2,0.8,1.7c0.1,0.2,0.3,0.5,0.4,0.7c0.1,0.1,0.1,0.2,0.2,0.2
				c0,0,0,0,0.1,0c0.1-0.1,0.1-0.2,0.2-0.4c0-0.1,0-0.3,0-0.4c0-0.3-0.2-0.1-0.2-0.1c0,0,0,0,0.1-0.1c0.1-0.1,0.2,0,0.2,0.1
				c0.1,0.1,0.1,0.2,0.1,0.4c0,0.2,0.1,0.4-0.1,0.7c-0.1,0.1-0.4,0.2-0.5,0.1c-0.2-0.1-0.3-0.2-0.4-0.2c-0.2-0.2-0.4-0.4-0.6-0.6
				c-0.4-0.4-0.8-1-1.2-1.6c-0.4-0.6-0.8-1.2-1.2-2c-0.4-0.7-0.8-1.5-1.2-2.3c-0.4-0.8-0.8-1.6-1.1-2.5c-0.4-0.9-0.7-1.7-1.1-2.6
				c-0.7-1.7-1.4-3.5-2-5.1c-0.3-0.8-0.6-1.6-1-2.3c-0.3-0.7-0.6-1.4-0.9-2c-0.3-0.6-0.6-1.2-0.9-1.7c-0.3-0.5-0.5-0.9-0.8-1.2
				C359.3,572,359.1,571.6,359.1,571.6z"/>
		</g>
		<g>
			<path d="M380.3,591.8c0,0,0.2-0.5,0.7-1.3c0.4-0.8,1.1-2,1.9-3.4c0.8-1.4,1.7-3,2.7-4.8c0.5-0.9,1-1.8,1.6-2.7
				c0.5-0.9,1.1-1.8,1.6-2.7c1.1-1.8,2.2-3.7,3.3-5.4c1-1.7,2-3.3,2.9-4.7c0.9-1.4,1.6-2.5,2.2-3.3c0.5-0.8,0.9-1.2,0.9-1.2
				s-0.7,2.1-2,5c-0.6,1.5-1.5,3.2-2.4,5c-0.5,0.9-0.9,1.8-1.5,2.7c-0.5,0.9-1.1,1.9-1.6,2.8c-0.6,0.9-1.1,1.8-1.7,2.7
				c-0.6,0.9-1.2,1.8-1.7,2.6c-1.1,1.7-2.3,3.2-3.3,4.5C381.8,590.3,380.3,591.8,380.3,591.8z"/>
		</g>
		<g>
			<path d="M382.3,614.3c0,0,0.2,0.3,0.6,0.9c0.4,0.6,0.9,1.4,1.6,2.4c0.6,1,1.4,2.2,2.2,3.4c0.4,0.6,0.8,1.3,1.2,1.9
				c0.4,0.6,0.9,1.3,1.3,1.9c0.4,0.7,0.9,1.3,1.3,1.9c0.5,0.6,0.9,1.3,1.3,1.8c0.4,0.6,0.9,1.2,1.3,1.7c0.4,0.5,0.8,1,1.2,1.5
				c0.4,0.4,0.7,0.9,1,1.3c0.3,0.4,0.6,0.7,0.8,1c0.5,0.5,0.7,0.9,0.7,0.9s-0.4-0.2-1-0.5c-0.6-0.4-1.5-0.9-2.4-1.7
				c-0.5-0.4-1-0.8-1.5-1.3c-0.5-0.5-1-1-1.5-1.6c-0.5-0.6-1-1.2-1.5-1.8c-0.5-0.6-1-1.3-1.4-2c-0.9-1.4-1.7-2.7-2.4-4.1
				c-0.7-1.3-1.3-2.6-1.7-3.8c-0.4-1.1-0.7-2.1-0.9-2.8C382.4,614.7,382.3,614.3,382.3,614.3z"/>
		</g>
		<g>
			<path d="M402,625.1c0,0,0.4-2,1.2-5c0.4-1.5,1-3.2,1.6-5c0.3-0.9,0.6-1.8,1-2.8c0.4-0.9,0.8-1.9,1.1-2.8c0.4-0.9,0.8-1.9,1.2-2.8
				c0.4-0.9,0.9-1.8,1.3-2.7c0.9-1.7,1.7-3.3,2.5-4.6c1.5-2.6,2.8-4.3,2.8-4.3s-0.2,0.5-0.4,1.3c-0.3,0.8-0.7,2-1.3,3.5
				c-0.5,1.4-1.2,3.1-1.9,4.8c-0.4,0.9-0.7,1.8-1.1,2.7c-0.4,0.9-0.8,1.8-1.2,2.8c-0.8,1.9-1.6,3.7-2.4,5.4
				c-0.8,1.7-1.5,3.3-2.2,4.7C403,623.3,402,625.1,402,625.1z"/>
		</g>
		<g>
			<path d="M400.9,652.7c0,0,1.3,1.2,3,3.2c0.4,0.5,0.9,1,1.3,1.6c0.5,0.6,1,1.2,1.4,1.9c0.5,0.7,1,1.3,1.4,2.1
				c0.5,0.7,0.9,1.5,1.4,2.2c0.4,0.8,0.9,1.5,1.3,2.2c0.4,0.7,0.8,1.5,1.2,2.2c0.7,1.5,1.4,2.8,1.9,4c1,2.4,1.5,4.1,1.5,4.1
				s-0.3-0.3-0.7-1c-0.4-0.6-1.1-1.5-1.8-2.6c-0.7-1.1-1.6-2.3-2.4-3.7c-0.4-0.7-0.9-1.4-1.3-2.1c-0.4-0.7-0.9-1.5-1.4-2.2
				c-0.4-0.7-0.9-1.5-1.3-2.2c-0.5-0.7-0.9-1.4-1.3-2.1c-0.8-1.4-1.6-2.7-2.2-3.8c-0.6-1.1-1.2-2.1-1.5-2.8
				C401,653.1,400.9,652.7,400.9,652.7z"/>
		</g>
		<g>
			<path d="M421.6,665.4c0,0,0.5-1.8,1.4-4.4c0.5-1.3,1-2.8,1.7-4.4c0.3-0.8,0.7-1.6,1-2.4c0.4-0.8,0.7-1.7,1.1-2.5
				c0.4-0.8,0.8-1.7,1.2-2.5c0.4-0.8,0.8-1.6,1.2-2.4c0.8-1.5,1.6-2.9,2.3-4.1c1.4-2.4,2.5-3.9,2.5-3.9s-0.5,1.8-1.4,4.4
				c-0.5,1.3-1,2.8-1.7,4.4c-0.3,0.8-0.7,1.6-1,2.4c-0.4,0.8-0.7,1.7-1.1,2.5c-0.4,0.8-0.8,1.7-1.2,2.5c-0.4,0.8-0.8,1.6-1.2,2.4
				c-0.8,1.5-1.6,2.9-2.3,4.1C422.7,663.9,421.6,665.4,421.6,665.4z"/>
		</g>
		<g>
			<path d="M419.1,601.1c0,0,1.1,1.5,2.5,3.8c0.7,1.2,1.5,2.5,2.3,4c0.4,0.7,0.8,1.5,1.2,2.3c0.4,0.8,0.8,1.6,1.2,2.4
				c0.4,0.8,0.8,1.6,1.2,2.4c0.4,0.8,0.7,1.6,1.1,2.4c0.7,1.5,1.3,3,1.8,4.3c0.3,0.6,0.5,1.2,0.7,1.7c0.2,0.5,0.3,1,0.5,1.3
				c0.1,0.1,0,0.1,0,0.1c0,0,0,0,0,0c0,0,0,0,0-0.1c0-0.1,0-0.3,0-0.3c0-0.3-0.1,0-0.1,0c0,0,0,0,0-0.1c0,0,0.1-0.1,0.1,0
				c0,0,0.1,0.1,0.1,0.1c0.1,0.1,0.1,0.2,0.1,0.4c0,0,0,0.1,0,0.2c0,0-0.1,0.1-0.1,0.2c-0.2,0.1-0.4,0-0.5-0.1
				c-0.4-0.3-0.6-0.8-0.9-1.2c-0.3-0.5-0.6-1-1-1.6c-0.7-1.2-1.5-2.5-2.3-4c-0.4-0.7-0.8-1.5-1.2-2.3c-0.4-0.8-0.8-1.6-1.2-2.4
				c-0.4-0.8-0.8-1.6-1.2-2.4c-0.4-0.8-0.7-1.6-1.1-2.4c-0.7-1.5-1.3-3-1.8-4.3C419.6,602.8,419.1,601.1,419.1,601.1z"/>
		</g>
		<g>
			<path d="M418.5,581.5c0,0,0.5-1.8,1.3-4.5c0.4-1.3,0.9-2.9,1.5-4.5c0.3-0.8,0.6-1.7,0.9-2.5c0.3-0.9,0.6-1.7,0.9-2.6
				c0.3-0.9,0.6-1.7,1-2.6c0.3-0.9,0.6-1.7,1-2.5c0.6-1.6,1.2-3.1,1.8-4.4c1.1-2.6,1.9-4.3,1.9-4.3s-0.2,1.9-0.8,4.6
				c-0.3,1.4-0.7,3-1.2,4.6c-0.3,0.8-0.5,1.7-0.8,2.6c-0.3,0.9-0.6,1.7-0.9,2.6c-0.3,0.9-0.7,1.7-1,2.6c-0.3,0.9-0.7,1.7-1,2.5
				c-0.7,1.6-1.4,3.1-2.1,4.3C419.6,579.9,418.5,581.5,418.5,581.5z"/>
		</g>
		<g>
			<path d="M432,556.9c0,0,1,1.6,2.1,4.2c0.6,1.3,1.3,2.8,1.9,4.4c0.3,0.8,0.7,1.6,1,2.5c0.3,0.9,0.7,1.7,1,2.6
				c0.3,0.9,0.6,1.8,0.9,2.6c0.3,0.9,0.6,1.7,0.8,2.5c0.5,1.7,1,3.2,1.3,4.6c0.7,2.7,1.1,4.6,1.1,4.6s-1-1.6-2.1-4.2
				c-0.6-1.3-1.3-2.8-1.9-4.4c-0.3-0.8-0.7-1.6-1-2.5c-0.3-0.9-0.7-1.7-1-2.6c-0.3-0.9-0.6-1.8-0.9-2.6c-0.3-0.9-0.6-1.7-0.8-2.5
				c-0.5-1.7-1-3.2-1.3-4.6C432.4,558.8,432,556.9,432,556.9z"/>
		</g>
		<g>
			<path d="M434.6,616.6c0,0-0.1-1.4,0.1-3.4c0.1-1,0.3-2.2,0.5-3.4c0.2-1.2,0.5-2.5,0.8-3.8c0.3-1.3,0.7-2.6,1.1-3.7
				c0.4-1.2,0.8-2.3,1.2-3.2c0.8-1.8,1.5-3,1.5-3s-0.1,1.4-0.4,3.3c-0.2,1-0.4,2.1-0.6,3.3c-0.3,1.2-0.6,2.5-0.9,3.8
				c-0.3,1.3-0.7,2.5-1.1,3.7c-0.4,1.2-0.7,2.3-1.1,3.2C435.2,615.4,434.6,616.6,434.6,616.6z"/>
		</g>
		<g>
			<path d="M432.5,533.6c0,0,0.1-1.8,0.6-4.6c0.2-1.4,0.5-2.9,0.8-4.6c0.2-0.8,0.3-1.7,0.6-2.6c0.2-0.9,0.4-1.8,0.6-2.6
				c0.2-0.9,0.5-1.8,0.7-2.6c0.2-0.9,0.5-1.7,0.7-2.5c0.5-1.6,1-3.2,1.4-4.4c0.9-2.6,1.7-4.3,1.7-4.3s-0.1,1.8-0.6,4.6
				c-0.2,1.4-0.5,2.9-0.8,4.6c-0.2,0.8-0.3,1.7-0.6,2.6c-0.2,0.9-0.4,1.8-0.6,2.6c-0.2,0.9-0.5,1.8-0.7,2.6
				c-0.2,0.9-0.5,1.7-0.7,2.5c-0.5,1.6-1,3.2-1.4,4.4C433.2,532,432.5,533.6,432.5,533.6z"/>
		</g>
		<g>
			<path d="M402.7,543.7c0,0,0.1-0.5,0.4-1.3c0.3-0.8,0.7-2,1.2-3.4c0.5-1.4,1.1-3,1.8-4.7c0.7-1.7,1.4-3.6,2.1-5.4
				c0.4-0.9,0.7-1.8,1.1-2.7c0.3-0.9,0.7-1.8,1.1-2.6c0.7-1.7,1.3-3.3,1.9-4.7c0.6-1.4,1.1-2.5,1.5-3.3c0.4-0.8,0.6-1.2,0.6-1.2
				s-0.2,2-1,4.9c-0.3,1.5-0.8,3.1-1.4,4.9c-0.3,0.9-0.6,1.8-0.9,2.7c-0.3,0.9-0.7,1.8-1,2.8c-0.4,0.9-0.8,1.8-1.1,2.7
				c-0.4,0.9-0.8,1.8-1.2,2.6c-0.4,0.8-0.8,1.6-1.2,2.4c-0.4,0.8-0.8,1.5-1.1,2.1C403.9,542.1,402.7,543.7,402.7,543.7z"/>
		</g>
		<g>
			<path d="M418.9,516.6c0,0,0.3,0.2,0.7,0.7c0.4,0.4,1,1.1,1.6,1.9c0.6,0.8,1.3,1.9,1.9,3c0.6,1.1,1.2,2.4,1.7,3.7
				c0.5,1.3,0.9,2.6,1.2,3.9c0.3,1.3,0.5,2.4,0.7,3.5c0.3,2.1,0.2,3.5,0.2,3.5s-0.2-0.3-0.4-0.9c-0.2-0.6-0.6-1.3-0.9-2.3
				c-0.7-1.9-1.7-4.4-2.7-6.9c-0.2-0.6-0.5-1.2-0.7-1.9c-0.3-0.6-0.5-1.2-0.7-1.8c-0.5-1.2-0.9-2.3-1.3-3.2c-0.4-0.9-0.7-1.7-1-2.3
				C419,516.9,418.9,516.6,418.9,516.6z"/>
		</g>
		<g>
			<path d="M381.1,519.6c0,0,1.2,1.3,2.6,3.5c0.4,0.5,0.8,1.1,1.1,1.8c0.4,0.6,0.8,1.3,1.2,2.1c0.4,0.7,0.8,1.5,1.2,2.2
				c0.4,0.8,0.8,1.6,1.1,2.4c0.3,0.8,0.7,1.6,1,2.4c0.3,0.8,0.6,1.6,0.9,2.4c0.6,1.5,1,3,1.4,4.3c0.7,2.5,1,4.3,1,4.3
				s-0.2-0.4-0.6-1.1c-0.4-0.7-0.9-1.6-1.4-2.8c-0.6-1.2-1.2-2.5-1.9-4c-0.3-0.7-0.7-1.5-1.1-2.3c-0.4-0.8-0.7-1.6-1.1-2.3
				c-0.7-1.6-1.4-3.2-2.1-4.6c-0.7-1.5-1.3-2.9-1.8-4.1c-0.5-1.2-0.9-2.2-1.2-2.9C381.2,520,381.1,519.6,381.1,519.6z"/>
		</g>
		<g>
			<path d="M403.7,476.2c0,0,1.1,1.6,2.5,4.1c0.7,1.2,1.5,2.7,2.3,4.3c0.4,0.8,0.8,1.6,1.2,2.5c0.4,0.9,0.8,1.7,1.1,2.6
				c0.4,0.9,0.7,1.8,1.1,2.6c0.4,0.9,0.7,1.7,1,2.6c0.6,1.7,1.1,3.3,1.5,4.6c0.8,2.7,1.2,4.6,1.2,4.6s-1-1.6-2.3-4.2
				c-0.6-1.3-1.4-2.8-2.1-4.4c-0.4-0.8-0.8-1.6-1.1-2.5c-0.4-0.9-0.7-1.7-1.1-2.6c-0.4-0.9-0.7-1.7-1.1-2.6c-0.4-0.9-0.7-1.7-1-2.5
				c-0.6-1.7-1.2-3.2-1.7-4.6C404.2,478,403.7,476.2,403.7,476.2z"/>
		</g>
		<g>
			<path d="M422.6,499.5c0,0,0.5-2.2,1.4-5.3c0.5-1.6,1-3.4,1.7-5.3c0.3-1,0.7-2,1-3c0.4-1,0.8-2,1.1-3c0.4-1,0.8-2,1.2-3
				c0.4-1,0.8-2,1.2-2.9c0.8-1.9,1.6-3.6,2.3-5.1c1.4-3,2.5-4.9,2.5-4.9s-0.5,2.2-1.4,5.3c-0.5,1.6-1,3.4-1.7,5.3c-0.3,1-0.7,2-1,3
				c-0.4,1-0.8,2-1.1,3c-0.4,1-0.8,2-1.2,3c-0.4,1-0.8,2-1.2,2.9c-0.8,1.9-1.6,3.6-2.3,5.1C423.7,497.6,422.6,499.5,422.6,499.5z"/>
		</g>
		<g>
			<path d="M258.6,504.2c0,0,0.2-0.4,0.6-1.2c0.4-0.7,0.9-1.8,1.5-3c0.6-1.2,1.4-2.7,2.2-4.2c0.8-1.5,1.7-3.2,2.6-4.8
				c0.9-1.6,1.8-3.2,2.6-4.8c0.8-1.5,1.6-2.9,2.3-4.1c0.7-1.2,1.3-2.2,1.7-2.9c0.4-0.7,0.7-1.1,0.7-1.1s-0.4,1.8-1.4,4.5
				c-0.5,1.3-1.1,2.8-1.8,4.4c-0.4,0.8-0.7,1.6-1.1,2.4c-0.4,0.8-0.8,1.7-1.3,2.5c-0.5,0.8-0.9,1.6-1.4,2.4c-0.5,0.8-1,1.6-1.4,2.3
				c-0.5,0.7-1,1.4-1.4,2.1c-0.5,0.7-0.9,1.3-1.3,1.8C259.9,502.9,258.6,504.2,258.6,504.2z"/>
		</g>
		<g>
			<path d="M251.6,501.2c0,0-0.3-0.4-0.9-1.2c-0.5-0.8-1.3-1.8-2.1-3.2c-0.4-0.7-0.8-1.4-1.3-2.2c-0.4-0.8-0.9-1.6-1.3-2.5
				c-0.4-0.9-0.9-1.8-1.3-2.7c-0.4-1-0.8-1.9-1.3-2.9c-0.4-1-0.8-2-1.1-2.9c-0.4-1-0.7-1.9-1-2.9c-0.6-1.9-1.1-3.6-1.5-5.2
				c-0.4-1.5-0.7-2.8-0.8-3.7c-0.2-0.9-0.2-1.4-0.2-1.4s0.2,0.5,0.6,1.3c0.4,0.8,0.9,2,1.6,3.5c0.6,1.4,1.3,3.1,2.1,4.9
				c0.8,1.8,1.6,3.7,2.4,5.7c1.6,3.9,3.2,7.7,4.4,10.6c0.6,1.5,1.1,2.7,1.4,3.5C251.4,500.7,251.6,501.2,251.6,501.2z"/>
		</g>
		<g>
			<path d="M246.3,536.6c0,0,0-1.5,0.2-3.8c0.1-1.1,0.3-2.4,0.5-3.8c0.2-1.4,0.5-2.8,0.9-4.3c0.4-1.4,0.8-2.9,1.2-4.2
				c0.4-1.3,0.9-2.6,1.3-3.6c0.9-2.1,1.6-3.4,1.6-3.4s-0.1,1.5-0.5,3.7c-0.2,1.1-0.4,2.4-0.7,3.7c-0.3,1.4-0.6,2.8-1,4.2
				c-0.4,1.4-0.8,2.9-1.1,4.2c-0.4,1.3-0.8,2.6-1.1,3.6C247,535.2,246.3,536.6,246.3,536.6z"/>
		</g>
		<g>
			<path d="M238.5,589.3c0,0,0.7,1,1.4,2.7c0.4,0.8,0.8,1.8,1.2,2.8c0.4,1,0.8,2.2,1.1,3.3c0.3,1.1,0.7,2.3,0.9,3.4
				c0.3,1.1,0.5,2.1,0.6,3c0.3,1.8,0.3,3,0.3,3s-0.7-1-1.4-2.7c-0.4-0.8-0.8-1.8-1.2-2.8c-0.4-1-0.8-2.2-1.1-3.3
				c-0.3-1.1-0.6-2.3-0.9-3.4c-0.3-1.1-0.5-2.1-0.6-3C238.5,590.5,238.5,589.3,238.5,589.3z"/>
		</g>
		<g>
			<path d="M294,661.4c0,0,0.2-0.4,0.4-1c0.3-0.6,0.7-1.5,1.2-2.5c1-2,2.3-4.7,3.7-7.4c0.7-1.3,1.3-2.7,2-4c0.6-1.3,1.2-2.4,1.8-3.5
				c0.5-1,1-1.8,1.3-2.4c0.3-0.6,0.5-0.9,0.5-0.9s-0.2,1.5-0.8,3.8c-0.3,1.1-0.7,2.4-1.2,3.7c-0.5,1.3-1.1,2.8-1.8,4.1
				c-0.7,1.4-1.4,2.7-2.2,3.9c-0.4,0.6-0.8,1.2-1.2,1.7c-0.4,0.5-0.8,1-1.1,1.5c-0.7,0.9-1.4,1.6-1.8,2.1
				C294.3,661.1,294,661.4,294,661.4z"/>
		</g>
		<g>
			<path d="M247.7,621.9c0,0,0.2,0.4,0.4,1.2c0.3,0.7,0.6,1.8,1,3.1c0.4,1.3,0.8,2.7,1.3,4.3c0.5,1.6,1,3.3,1.4,5
				c0.5,1.7,1,3.4,1.4,5c0.4,1.6,0.9,3.1,1.2,4.4c0.3,1.3,0.6,2.4,0.8,3.1c0.2,0.8,0.3,1.2,0.3,1.2s-1-1.5-2.2-3.9
				c-0.3-0.6-0.6-1.3-0.9-2c-0.3-0.7-0.6-1.4-0.9-2.2c-0.3-0.8-0.6-1.6-0.9-2.4c-0.3-0.8-0.5-1.7-0.8-2.5c-0.2-0.9-0.5-1.7-0.7-2.6
				c-0.2-0.8-0.4-1.7-0.6-2.5c-0.3-1.6-0.6-3.2-0.7-4.5C247.6,623.7,247.7,621.9,247.7,621.9z"/>
		</g>
		<g>
			<path d="M280.1,482.1c0.8,1,1.6,2,2.3,3c0.7,1,1.5,2,2.2,3.1c0.7,1,1.4,2.1,2.1,3.1c0.7,1,1.3,2.1,2,3.2c0.7,1.1,1.3,2.2,1.9,3.2
				c0.6,1.1,1.2,2.2,1.8,3.3c1.2,2.2,2.3,4.5,3.3,6.8l-0.4,0.2c-0.1-0.5-0.2-1.1-0.3-1.6c0.2,0.5,0.5,1,0.7,1.5l0.8,1.8l-1.2-1.6
				c-1.5-2-3-4.1-4.4-6.1c-0.7-1.1-1.4-2.1-2-3.2c-0.6-1.1-1.3-2.1-1.9-3.2c-0.6-1.1-1.3-2.2-1.9-3.3c-0.6-1.1-1.2-2.2-1.8-3.3
				c-0.6-1.1-1.1-2.2-1.7-3.4C281.1,484.4,280.6,483.3,280.1,482.1z"/>
		</g>
		<g>
			<path d="M362.3,493.2c0,0,1.4,0.9,3.2,2.5c0.9,0.8,2,1.8,3.1,2.9c0.5,0.6,1.1,1.1,1.6,1.7c0.5,0.6,1.1,1.2,1.6,1.8
				c0.5,0.6,1,1.3,1.5,1.9c0.5,0.6,0.9,1.3,1.4,1.9c0.9,1.3,1.6,2.5,2.2,3.5c1.2,2.1,1.8,3.7,1.8,3.7s-0.3-0.3-0.8-0.8
				c-0.5-0.5-1.2-1.3-2-2.2c-0.8-0.9-1.7-2-2.7-3.1c-0.5-0.6-1-1.2-1.5-1.8c-0.5-0.6-1-1.2-1.5-1.8c-1-1.2-2-2.5-3-3.7
				c-1-1.2-1.8-2.3-2.6-3.2c-0.7-1-1.3-1.8-1.8-2.4C362.5,493.6,362.3,493.2,362.3,493.2z"/>
		</g>
		<g>
			<path d="M382.3,502.5c0,0,0.3-1.5,1.1-3.8c0.4-1.1,0.9-2.4,1.4-3.7c0.6-1.3,1.2-2.7,2-4.1c0.4-0.7,0.7-1.4,1.1-2
				c0.4-0.7,0.8-1.3,1.2-1.9c0.8-1.2,1.5-2.4,2.2-3.3c1.4-1.9,2.5-3,2.5-3s-0.5,1.5-1.5,3.6c-0.5,1.1-1,2.3-1.7,3.6
				c-0.6,1.3-1.3,2.7-2,4c-0.7,1.4-1.4,2.7-2.1,4c-0.7,1.3-1.4,2.4-2,3.4C383.2,501.2,382.3,502.5,382.3,502.5z"/>
		</g>
	</g>
	<path class="st2" d="M470,369.6c-0.5-7.6,7.8-19.3-6.3-21.4c-13.1-1.9-192.9-1.2-211.7-0.9c-17.4,0.3-24.8,1.6-27.4,9.6
		c-1,2.2-1.3,4.9-1.2,7.9c0,0.8,0,1.6,0,2.4l0.2,0c0.6,5.1,2,10.4,2.2,13.6c0.7,9.8,1.2,19.6,1,29.4c-5.3,1.3-7.9,8.6-4.7,13
		c1,1.4,2.4,2.4,3.3,3.9c0.9,1.6,1,3.5,1.1,5.4c0.8,14.8,1.4,29.6,1.7,44.4c0.6,27.9-3,56.1-1.7,83.9c1.4,29.3,0.9,58.8,1.3,88.1
		c0.1,3.4,0.1,6.9,1.2,10.1c1.2,3.8,3.7,7,6.4,9.9c19.5,20.9,49.8,27.6,78.3,30c14.3,1.2,28.7,1.5,43,0.6c13.8-0.9,27.5-3,41.2-5.1
		c12.1-1.9,24.3-3.8,35.7-8.3c11.7-4.7,19.8-9.6,21.4-22.7c4-31.5,2.7-63.2,4.3-94.8c1.2-24.3,1.4-48.7,2.7-73
		c1.3-24.1,0.4-48.1,2.9-72.2c0.1-1.2,0.3-2.5,1.2-3.3c0.9-0.9,2.3-1,3.4-1.6c3-1.8,2.5-6.3,1-9.5
		C465.5,397.4,470.8,382.1,470,369.6z"/>
	<g>
		<path d="M234.1,355.2c0,0,0,0.8,0,2.4c0,1.6-0.1,3.9-0.3,6.9c-0.2,3-0.5,6.8-0.7,11.1c-0.2,4.4-0.3,9.4,0.7,15
			c0.9,5.6,2.5,11.6,3.5,18.4c0.5,3.4,0.9,7,0.8,10.7c0,0.9-0.1,1.9-0.2,2.8c-0.1,0.9-0.3,1.9-0.4,2.8c-0.3,1.9-0.6,3.8-0.9,5.7
			c-1,7.8-1.3,16.2-1.1,25c0.2,8.8,0.8,18.1,1.6,27.7c0.8,9.7,1.7,19.7,2.2,30.2c0.4,10.5,0.5,21.3,0.4,32.4c0,22.3-0.7,45.7-2.4,70
			c-0.4,6.1-0.9,12.1-0.7,18.2c0.2,6,1.3,12,4.1,17.4c2.7,5.2,7,9.9,11.9,13.5c5,3.6,10.6,6.3,16.5,8.5c11.8,4.3,24.5,6.4,37.2,8
			c6.4,0.8,12.8,1.5,19.2,2c6.4,0.5,12.8,0.8,19.3,0.9c25.8,0.5,51.5-2.8,76-9.7c3.1-0.8,6.1-1.6,9-2.7c2.9-1.1,5.7-2.3,8-4.1
			c0.6-0.4,1.1-0.9,1.7-1.4c0.5-0.5,1-1,1.4-1.7c0.9-1.1,1.7-2.4,2.3-3.8c1.3-2.7,2.3-5.6,3-8.6c0.8-3,1.4-5.9,1.6-8.9
			c0.3-3,0.2-6,0-9.1c-0.2-3.1-0.3-6.1-0.5-9.2c-0.1-3.1-0.2-6.1-0.3-9.2c-0.7-24.3,0.2-47.8,1.3-70c1.1-22.2,2.5-43.2,3.3-62.6
			c0.4-9.7,0.7-19,0.9-27.8c0.1-4.4,0.2-8.7,0.3-12.9c0.1-4.2,0.3-8.3,0.6-12.2c1.2-15.8,3.2-29.4,4.5-40.6
			c1.4-11.2,2.1-20.1,2.4-26.1c0.1-1.5,0.1-2.9,0.2-4c0-1.2,0-2.1,0.1-2.9c0-1.6,0.1-2.4,0.1-2.4s0,0.8,0,2.4c0,0.8,0,1.8,0,2.9
			c0,1.2-0.1,2.5-0.1,4c-0.2,6.1-0.8,15-2,26.2c-1.2,11.3-3.1,24.9-4,40.6c-0.2,3.9-0.4,8-0.4,12.2c0,4.2-0.1,8.5-0.1,12.9
			c-0.1,8.8-0.4,18.2-0.7,27.9c-0.7,19.4-1.9,40.4-2.8,62.6c-0.9,22.2-1.6,45.6-0.9,69.8c0.1,3,0.2,6,0.4,9.1
			c0.2,3.1,0.3,6.1,0.5,9.2c0.2,3.1,0.3,6.3,0,9.4c-0.3,3.2-0.9,6.3-1.7,9.4c-0.8,3.1-1.8,6.1-3.2,9.1c-1.4,2.9-3.4,5.8-6.2,7.8
			c-2.7,2.1-5.7,3.4-8.8,4.5c-3.1,1.1-6.2,2-9.3,2.8c-24.6,6.9-50.7,10.4-76.7,9.9c-6.5-0.1-13-0.4-19.5-1
			c-6.5-0.6-12.9-1.3-19.3-2.1c-12.8-1.6-25.7-3.8-37.8-8.3c-6.1-2.2-11.9-5.1-17.2-8.9c-5.3-3.8-9.7-8.7-12.8-14.5l-1-2.1
			c-0.4-0.8-0.6-1.5-0.9-2.3c-0.5-1.5-1-3.1-1.3-4.6c-0.7-3.1-1-6.3-1.1-9.4c-0.2-6.3,0.4-12.4,0.8-18.5c1.7-24.2,2.6-47.6,2.8-69.8
			c0.1-11.1,0.1-21.9-0.2-32.3c-0.3-10.4-1.2-20.5-1.9-30.2c-0.7-9.7-1.3-19-1.4-27.9c-0.1-8.9,0.3-17.3,1.5-25.2
			c0.3-2,0.6-3.9,0.9-5.7c0.1-0.9,0.3-1.9,0.4-2.8c0.1-0.9,0.2-1.8,0.2-2.7c0.1-3.6-0.2-7.2-0.6-10.5c-1-6.7-2.4-12.8-3.3-18.5
			c-0.9-5.6-0.7-10.7-0.5-15.1c0.3-4.4,0.7-8.1,0.9-11.1c0.3-3,0.4-5.3,0.4-6.9C234.1,356.1,234.1,355.2,234.1,355.2z"/>
	</g>
	<g>
		<path d="M424.6,368.4c0,0-2.1,0.1-6,0.3c-3.9,0.1-9.7,0.4-17,0.6c-7.3,0.2-16.2,0.5-26.4,0.7c-10.2,0.2-21.7,0.5-34.3,0.7
			c-12.6,0.2-26.2,0.4-40.6,0.6c-14.4,0.3-29.6,0.4-45.3,1.1c-3.9,0.1-7.9,0.3-11.9,0.5c-2,0.1-4,0.2-6,0.3c-2,0.1-4,0.3-6,0.6
			c-2,0.3-4,0.6-6,1c-2,0.4-4,0.9-5.7,1.9c-0.4,0.2-0.8,0.5-1.1,0.9c-0.3,0.3-0.4,0.7-0.3,1.1c0.2,0.8,1,1.5,1.8,2.1
			c0.2,0.1,0.4,0.3,0.6,0.4c0.2,0.1,0.5,0.2,0.7,0.3l0.7,0.2l0.7,0.1c1,0.2,2,0.2,3,0.3c4.1,0.1,8.2-0.3,12.4-0.5
			c4.2,0,8.3,0,12.5,0c8.3-0.1,16.7-0.2,25.1-0.8c8.4-0.6,16.8-0.9,25.1-1.2c8.3-0.3,16.6-0.6,24.9-1c16.5-0.6,32.7-1,48.4-1.4
			c15.7-0.4,30.9-0.7,45.3-1c7.2-0.2,14.2-0.4,21-0.6c1.7,0,3.4-0.1,5-0.1c0.8,0,1.7-0.1,2.5,0c0.9,0,1.7,0.1,2.5,0.1
			c3.3,0.2,6.5,0.4,9.6,0.6c3.1,0.1,6.2,0.2,9.2,0.2c3-0.1,5.9-0.3,8.6-1c1.3-0.4,2.6-0.9,3.4-1.7c0.4-0.4,0.6-1,0.6-1.5l0-0.4
			l0-0.1c0,0.1,0-0.1,0-0.1l-0.1-0.2c-0.1-0.1-0.2-0.4-0.4-0.6c-0.9-0.8-2.2-1.2-3.4-1.6c-1.2-0.4-2.5-0.6-3.8-0.8
			c-5-0.7-9.8-0.9-14.2-1c-4.4-0.1-8.5,0-12.1,0.1c-7.3,0.2-13.1,0.6-17,0.8C426.7,368.3,424.6,368.4,424.6,368.4z M424.6,368.2
			c0,0,2.1-0.1,6-0.4c3.9-0.3,9.7-0.6,17-0.9c3.7-0.1,7.7-0.2,12.2-0.3c4.4,0,9.2,0.1,14.3,0.7c1.3,0.2,2.6,0.4,3.9,0.7
			c1.3,0.4,2.7,0.7,3.9,1.7c0.3,0.3,0.6,0.6,0.8,1l0.1,0.2c0,0.1,0,0,0.1,0.2l0,0.1l0.1,0.6c0,0.8-0.3,1.7-0.8,2.3
			c-0.2,0.3-0.6,0.6-0.9,0.8c-0.3,0.2-0.6,0.4-1,0.6c-0.7,0.3-1.4,0.6-2.1,0.8c-2.9,0.8-5.8,1.1-8.9,1.2c-3,0.1-6.1,0.1-9.3,0
			c-3.2-0.1-6.4-0.3-9.6-0.5c-0.8,0-1.6-0.1-2.4-0.1c-0.8,0-1.6,0.1-2.5,0.1c-1.7,0.1-3.3,0.1-5,0.2c-6.8,0.3-13.8,0.5-21,0.7
			c-14.4,0.4-29.6,0.8-45.3,1.1c-15.7,0.3-31.9,0.6-48.4,1c-8.2,0.2-16.6,0.4-24.9,0.6c-8.3,0.2-16.7,0.4-25.1,0.9
			c-8.4,0.4-16.8,0.5-25.1,0.5c-4.2,0-8.3,0-12.5,0c-4.1,0.2-8.3,0.5-12.4,0.4c-1,0-2.1-0.1-3.1-0.3l-0.8-0.1l-0.8-0.2
			c-0.3-0.1-0.5-0.2-0.7-0.3c-0.3-0.1-0.5-0.3-0.7-0.4c-0.8-0.6-1.8-1.3-2.1-2.5c-0.1-0.6,0.1-1.3,0.5-1.7c0.4-0.4,0.8-0.8,1.3-1
			c1.9-1,3.9-1.5,5.9-2c2-0.5,4-0.8,6-1c2-0.3,4-0.5,6-0.6c2-0.1,4-0.3,6-0.4c4-0.3,7.9-0.5,11.9-0.7c15.7-0.8,30.9-1.4,45.3-1.7
			c3.6-0.1,7.2-0.1,10.7-0.2c3.5-0.1,6.9-0.1,10.3-0.1c6.8,0,13.3-0.1,19.6-0.1c12.6,0,24.1,0,34.3,0c10.2-0.1,19.1-0.1,26.4-0.2
			c7.3-0.1,13.1-0.3,17-0.4C422.5,368.3,424.6,368.2,424.6,368.2z"/>
	</g>
	<g>
		<path d="M302.4,404.2c7.6,0.3,15.2,0.9,22.8,1.2c3.8,0.2,7.6,0.2,11.4,0.1c3.8-0.1,7.6-0.3,11.4-0.5l22.9-1
			c7.6-0.3,15.2-0.6,22.9-0.8l11.4-0.3c3.8-0.1,7.6-0.1,11.4-0.2c7.6-0.1,15.3-0.1,22.9,0l22.9,0.2c3.8,0,7.6,0.2,11.4-0.1
			c1.9-0.1,3.7-0.4,5.4-1.2c0.8-0.4,1.5-1,2-1.7c0.5-0.7,0.7-1.6,0.7-2.5l0,0.2c-0.4-1.2-1.6-1.8-2.9-2c-1.3-0.2-2.7-0.1-4.1,0
			c-2.7,0.2-5.5,0.6-8.3,0.8c-5.6,0.3-11.1,0-16.7-0.3c-5.5-0.3-11.1-0.7-16.6-0.7c-2.8,0-5.5,0.1-8.3,0.2l-8.3,0.3
			c-11.1,0.3-22.2,0.5-33.3,0.6l-16.6,0.1c-5.5,0-11.1-0.1-16.7-0.2c-11.1-0.2-22.2-0.6-33.3-1c-5.5-0.2-11.1-0.3-16.6-0.4
			c-5.5-0.1-11.1-0.1-16.6-0.1c-5.5,0-11.1,0.1-16.6,0.3c-5.5,0.2-11.1,0.3-16.6,0.5c-5.5,0.1-11.1,0.2-16.6,0.4
			c-2.8,0.1-5.5,0.2-8.3,0.5c-1.4,0.1-2.7,0.3-4,0.5c-0.7,0.1-1.3,0.3-1.9,0.4c-0.3,0.1-0.6,0.2-0.8,0.3c-0.1,0.1-0.2,0.1-0.2,0.1
			c0,0,0,0,0-0.1l0,0.3c-0.3,0.9-0.3,1.9,0,2.8l0-0.1c0.2,0.4,0.9,0.8,1.6,1.1c0.8,0.3,1.6,0.5,2.4,0.7c1.7,0.3,3.4,0.6,5.2,0.7
			c3.5,0.3,7.1,0.5,10.6,0.7l10.6,0.5c1.8,0.1,3.5,0.1,5.3,0.1c1.8,0,3.5,0,5.3,0c7.1-0.1,14.2-0.3,21.3-0.5
			c3.6-0.1,7.1-0.2,10.7-0.2c1.8,0,3.6,0,5.3,0L302.4,404.2z M302.4,404.4l-5.3-0.1c-1.8,0-3.6,0-5.3,0c-3.6,0.1-7.1,0.2-10.6,0.3
			c-7.1,0.3-14.2,0.7-21.3,0.9c-1.8,0-3.6,0.1-5.3,0.1c-1.8,0-3.6,0-5.3,0l-10.7-0.2c-3.6-0.1-7.1-0.2-10.7-0.4
			c-1.8-0.1-3.6-0.3-5.4-0.6c-0.9-0.2-1.8-0.4-2.7-0.7c-0.5-0.2-0.9-0.4-1.4-0.7c-0.4-0.3-0.9-0.7-1.2-1.3l0-0.1l0-0.1
			c-0.3-1.2-0.4-2.5,0-3.7l0,0.3c0-0.4,0.2-0.8,0.4-1c0.2-0.2,0.4-0.4,0.6-0.5c0.4-0.2,0.8-0.4,1.1-0.5c0.7-0.2,1.4-0.4,2.1-0.5
			c1.4-0.3,2.8-0.4,4.2-0.6c2.8-0.3,5.6-0.4,8.3-0.6c5.6-0.3,11.1-0.4,16.6-0.5c5.5-0.1,11.1-0.3,16.6-0.5
			c5.6-0.2,11.1-0.3,16.7-0.4c5.6,0,11.1,0,16.7,0.2c5.6,0.1,11.1,0.3,16.6,0.5l33.2,1.2c5.5,0.2,11.1,0.3,16.6,0.4l16.6,0.1
			c11.1,0,22.2,0,33.3-0.1l8.3-0.2c2.8-0.1,5.5-0.2,8.3-0.2c5.6,0,11.1,0.4,16.6,0.8c5.5,0.3,11.1,0.6,16.6,0.2
			c2.8-0.2,5.5-0.6,8.3-0.8c1.4-0.1,2.8-0.2,4.2,0c0.4,0.1,0.7,0.2,1.1,0.2c0.3,0.2,0.7,0.2,1,0.5c0.7,0.4,1.2,1.1,1.5,1.8l0,0.1
			l0,0.1c-0.1,1-0.3,2-0.8,2.9c-0.6,0.9-1.4,1.6-2.3,2c-1.8,0.9-3.8,1.2-5.7,1.4c-1.9,0.2-3.8,0.2-5.8,0.2l-5.7,0l-22.9,0.2
			c-7.6,0-15.2,0-22.9,0.2l-22.9,0.3l-22.9,0.4l-22.9,0.5c-3.8,0.1-7.6,0.2-11.4,0.2c-3.8,0-7.6-0.1-11.4-0.3
			C317.6,405.4,310,404.8,302.4,404.4z"/>
	</g>
	<g>
		<path d="M244.6,416c0,0,0.8,0.3,2.2,0.7c1.5,0.5,3.6,1.1,6.4,1.8c1.4,0.3,2.9,0.7,4.6,1c1.7,0.4,3.5,0.6,5.5,0.9
			c3.9,0.5,8.4,1,13.3,1.2c4.9,0.2,10.2,0.3,15.8,0.2c5.6-0.1,11.5-0.4,17.7-0.7c6.1-0.3,12.5-0.6,18.9-0.9c6.4-0.3,13-0.6,19.5-0.9
			c6.6-0.3,13.1-0.5,19.6-0.8c6.4-0.3,12.8-0.5,18.9-0.7c12.3-0.4,23.8-0.7,33.6-1c9.8-0.3,18-0.3,23.8-0.5c2.9-0.1,5.1-0.2,6.7-0.3
			c1.5-0.1,2.4-0.2,2.4-0.2s-0.8,0.1-2.3,0.3c-1.5,0.2-3.8,0.5-6.6,0.7c-5.7,0.5-13.9,1.1-23.7,1.6c-9.8,0.6-21.3,1.3-33.6,1.9
			c-6.1,0.3-12.5,0.7-18.9,0.9c-6.4,0.3-13,0.6-19.5,0.9c-6.6,0.3-13.1,0.5-19.6,0.8c-6.5,0.2-12.8,0.5-18.9,0.7
			c-6.2,0.2-12.1,0.3-17.8,0.3c-5.7,0-11-0.3-15.9-0.7c-4.9-0.4-9.4-1.1-13.4-1.8c-2-0.4-3.8-0.8-5.5-1.2c-1.7-0.4-3.2-0.9-4.6-1.3
			c-1.4-0.4-2.6-0.8-3.7-1.2c-1.1-0.3-1.9-0.7-2.6-1C245.4,416.3,244.6,416,244.6,416z"/>
	</g>
	<g>
		<path d="M294.9,527.4c0,0,1,1.4,2.2,3.5c0.6,1.1,1.3,2.3,2,3.7c0.3,0.7,0.7,1.4,1.1,2.1c0.3,0.7,0.7,1.5,1,2.2
			c0.3,0.8,0.7,1.5,1,2.2c0.3,0.7,0.6,1.5,0.9,2.2c0.6,1.4,1.1,2.8,1.5,4c0.8,2.3,1.2,4,1.2,4s-1-1.4-2.2-3.5
			c-0.6-1.1-1.3-2.3-2-3.7c-0.3-0.7-0.7-1.4-1.1-2.1c-0.3-0.7-0.7-1.5-1-2.2c-0.3-0.8-0.7-1.5-1-2.2c-0.3-0.7-0.6-1.5-0.9-2.2
			c-0.6-1.4-1.1-2.8-1.5-4C295.3,529.1,294.9,527.4,294.9,527.4z"/>
	</g>
	<g>
		<path d="M402.5,560.1c0,0,0.9,1.3,2.1,3.3c0.6,1,1.3,2.2,1.9,3.5c0.7,1.3,1.4,2.7,2,4.1c0.6,1.4,1.2,2.8,1.8,4.2
			c0.5,1.3,1,2.6,1.4,3.7c0.7,2.2,1.1,3.7,1.1,3.7s-0.9-1.3-2.1-3.3c-0.6-1-1.3-2.2-1.9-3.5c-0.7-1.3-1.4-2.7-2-4.1
			c-0.6-1.4-1.2-2.8-1.8-4.2c-0.5-1.3-1-2.6-1.4-3.7C402.8,561.6,402.5,560.1,402.5,560.1z"/>
	</g>
	<g>
		<path d="M235.3,438.8c0,0,0.2-0.1,0.6-0.2c0.4-0.1,1-0.3,1.8-0.5c1.6-0.4,3.9-0.8,6.9-1c3-0.2,6.7,0,10.8,0.4
			c4.1,0.4,8.8,0.8,13.9,1.2c2.5,0.2,5.2,0.4,7.9,0.6c1.4,0.1,2.8,0.2,4.2,0.4c1.4,0.1,2.9,0.2,4.3,0.3c1.5,0.1,2.9,0.3,4.4,0.4
			c1.5,0.1,3,0.3,4.5,0.4c3.1,0.3,6.2,0.5,9.4,0.8c6.4,0.5,13,0.9,19.7,1c6.7,0.2,13.5,0,20.3-0.1c6.8-0.2,13.6-0.4,20.3-0.6
			c6.7-0.2,13.3-0.4,19.7-0.7c3.2-0.1,6.3-0.2,9.4-0.3c3.1-0.1,6.1-0.2,9-0.3c5.9-0.2,11.4-0.3,16.5-0.4c5.1-0.1,9.8-0.2,14-0.3
			c4.2-0.1,7.8-0.1,10.8-0.1c3,0,5.3,0,6.9,0c1.6,0,2.5,0,2.5,0l0,0.3c0,0-0.8,0.1-2.4,0.3c-1.6,0.1-3.9,0.4-6.9,0.6
			c-3,0.3-6.6,0.5-10.7,0.9c-4.1,0.4-8.8,0.7-13.9,1c-5.1,0.3-10.6,0.6-16.5,0.9c-5.9,0.3-12,0.5-18.4,0.6c-3.2,0.1-6.4,0.1-9.7,0.1
			c-3.3,0-6.6,0.1-10,0.1c-3.4,0-6.7-0.1-10.1-0.1c-3.4-0.1-6.8-0.2-10.2-0.3c-3.4-0.1-6.8-0.2-10.2-0.3c-3.4-0.1-6.8-0.2-10.1-0.3
			c-3.4-0.1-6.7-0.1-10-0.2c-3.3-0.1-6.5,0-9.7-0.1c-6.4-0.1-12.6-0.2-18.4-0.6c-5.9-0.3-11.4-1-16.5-1.4c-5.1-0.6-9.7-1.2-13.9-1.8
			c-2.1-0.3-4-0.6-5.7-0.8c-1.8-0.2-3.4-0.3-4.9-0.4c-2.9-0.1-5.3,0.1-6.8,0.3c-0.8,0.1-1.4,0.2-1.8,0.3c-0.4,0.1-0.6,0.1-0.6,0.1
			L235.3,438.8z"/>
	</g>
</g>
</svg>
