<?xml version="1.0" encoding="utf-8"?>
<!-- Generator: Adobe Illustrator 19.2.0, SVG Export Plug-In . SVG Version: 6.00 Build 0)  -->
<svg version="1.1" id="Layer_1" xmlns="http://www.w3.org/2000/svg" xmlns:xlink="http://www.w3.org/1999/xlink" x="0px" y="0px"
	 viewBox="0 0 460 366" style="enable-background:new 0 0 460 366;" xml:space="preserve">
<style type="text/css">
	.st0{fill:url(#SVGID_1_);}
	.st1{fill:none;stroke:#000000;stroke-width:5;stroke-miterlimit:10;}
</style>
<linearGradient id="SVGID_1_" gradientUnits="userSpaceOnUse" x1="119.3535" y1="-284.4356" x2="337.9" y2="-284.4356" gradientTransform="matrix(1 0 0 1 0 507)">
	<stop  offset="0" style="stop-color:#CC0035"/>
	<stop  offset="0.998" style="stop-color:#FF3F55"/>
</linearGradient>
<path class="st0" d="M337.9,101.4c-0.5,0.1-1.1,0.2-1.6,0.3c-71.4,10-143.8-4.6-215.9-3.3c-0.3,0.2-0.6,0.4-0.9,0.5
	c-0.3,9.1,0.3,18.3,0.9,27.3c1.1,17,1.9,34,2.2,51c0.7,34.1-0.2,68.1-2.6,102.1c-0.8,10.5-1.6,21.5,2.5,31.2
	c11.5,27.6,54.5,31.9,80.5,34.7c21.9,2.3,44.1,2.2,65.9-0.7c10.9-1.5,21.7-3.6,32.3-6.4c7.7-2.1,18.9-4.3,24.3-10.7
	c2.9-3.5,4.6-7.8,5.8-12.2c1-3.6,1.8-7.2,2.1-10.9c0.3-3.8,0.1-7.7-0.2-11.6c-2.1-35.4-0.4-70.9,1.4-106.2
	c0.9-17.7,1.9-35.4,2.5-53.1C337.6,122.8,337,112.1,337.9,101.4L337.9,101.4z"/>
<path d="M135.5,177.6c0,0,0.3,0.8,0.7,2.3c0.5,1.4,1.1,3.5,1.9,6s1.7,5.4,2.7,8.4c0.5,1.5,1,3.1,1.6,4.7c0.5,1.6,1.1,3.2,1.7,4.9
	c0.5,1.6,1.1,3.3,1.7,4.9c0.6,1.6,1.2,3.2,1.7,4.7c0.6,1.5,1.1,3,1.7,4.4c0.5,1.4,1.1,2.7,1.5,3.9c2,4.8,3.3,8,3.3,8s-0.5-0.7-1.3-2
	s-1.9-3.2-3.1-5.5l-1.9-3.8c-0.6-1.4-1.3-2.8-1.9-4.3s-1.3-3.1-1.9-4.7c-0.6-1.6-1.2-3.2-1.8-4.9c-0.6-1.6-1.1-3.3-1.6-4.9
	c-0.5-1.6-1-3.3-1.4-4.8c-0.4-1.6-0.8-3.1-1.2-4.6c-0.4-1.4-0.7-2.8-0.9-4.1c-0.3-1.3-0.5-2.5-0.7-3.5s-0.3-2-0.5-2.7L135.5,177.6
	L135.5,177.6z M159.5,215.4c0,0,0.4-2,1.2-4.9c0.4-1.4,0.9-3.1,1.5-4.9l0.9-2.7c0.3-0.9,0.7-1.9,1-2.8c0.4-0.9,0.7-1.9,1.1-2.8
	l1.2-2.7c0.8-1.7,1.7-3.3,2.5-4.5c0.8-1.3,1.6-2.3,2.3-2.9l0.7-0.7c0.2-0.2,0.3-0.2,0.3-0.2s-0.3,0.4-0.7,1.2
	c-0.4,0.8-1,1.9-1.6,3.2c-0.3,0.7-0.6,1.4-0.9,2.2s-0.6,1.6-1,2.5c-0.6,1.7-1.3,3.6-2,5.4c-0.4,0.9-0.7,1.9-1.1,2.8
	c-0.3,0.9-0.7,1.8-1.1,2.7c-0.7,1.7-1.4,3.3-2,4.7C160.5,213.6,159.5,215.4,159.5,215.4z M159,232.7c0,0,1.1,1.5,2.5,3.9
	c0.7,1.2,1.5,2.6,2.4,4.1c0.4,0.8,0.8,1.5,1.2,2.4c0.4,0.8,0.8,1.6,1.2,2.5c0.4,0.8,0.8,1.7,1.2,2.5c0.4,0.8,0.7,1.6,1.1,2.4
	c0.7,1.6,1.3,3.1,1.8,4.4c1,2.6,1.5,4.4,1.5,4.4s-1.1-1.5-2.5-3.9c-0.7-1.2-1.5-2.6-2.4-4.1c-0.4-0.8-0.8-1.5-1.2-2.4
	c-0.4-0.8-0.8-1.6-1.2-2.5c-0.4-0.8-0.8-1.7-1.2-2.5c-0.4-0.8-0.7-1.6-1.1-2.4c-0.7-1.6-1.3-3.1-1.8-4.4
	C159.5,234.5,159,232.7,159,232.7z M176.3,250.8c0,0,0.3-1.9,1.2-4.7c0.4-1.4,0.9-3,1.5-4.7c0.3-0.9,0.6-1.7,1-2.6
	c0.4-0.9,0.7-1.8,1.1-2.7s0.8-1.8,1.2-2.6c0.4-0.9,0.8-1.7,1.3-2.5c0.8-1.6,1.7-3.1,2.5-4.4c1.5-2.5,2.7-4,2.7-4s-0.2,0.5-0.4,1.3
	c-0.3,0.8-0.7,1.9-1.3,3.3c-0.5,1.4-1.2,2.9-1.9,4.6c-0.4,0.8-0.7,1.7-1.1,2.6c-0.4,0.9-0.8,1.8-1.1,2.6c-0.8,1.8-1.6,3.5-2.3,5.2
	c-0.7,1.7-1.5,3.2-2.1,4.5s-1.2,2.4-1.6,3.2C176.5,250.4,176.3,250.8,176.3,250.8L176.3,250.8z M139.8,245.6c0,0,0.1-0.3,0.3-0.8
	c0.2-0.5,0.5-1.2,0.8-2c0.4-0.8,0.8-1.8,1.3-2.8c0.2-0.5,0.5-1,0.7-1.5c0.3-0.5,0.5-1,0.8-1.6c0.5-1,1.1-2.1,1.6-3.1
	s1.1-1.9,1.5-2.6c0.9-1.5,1.7-2.5,1.7-2.5s-0.1,1.2-0.6,3c-0.2,0.9-0.6,1.9-1,2.9c-0.2,0.5-0.4,1.1-0.7,1.6
	c-0.2,0.5-0.5,1.1-0.8,1.6c-0.6,1.1-1.2,2.1-1.8,3c-0.3,0.5-0.6,0.9-0.9,1.3l-0.9,1.2C140.7,244.8,139.8,245.6,139.8,245.6
	L139.8,245.6z M126.6,225l0.2-0.2c0.2-0.1,0.5-0.3,1-0.2c0.4,0.1,0.9,0.5,1.3,0.9s0.8,1,1.1,1.6s0.7,1.3,1,2s0.6,1.5,0.9,2.3
	c0.3,0.8,0.6,1.6,0.9,2.5c0.3,0.8,0.6,1.7,0.8,2.6c0.3,0.9,0.5,1.7,0.8,2.6c0.3,0.8,0.5,1.7,0.7,2.5c0.4,1.6,0.8,3.2,1.1,4.5
	c0.6,2.7,0.8,4.5,0.8,4.5s-0.9-1.6-1.9-4.1c-0.5-1.3-1.1-2.7-1.7-4.3c-0.3-0.8-0.6-1.6-0.9-2.5c-0.3-0.8-0.6-1.7-0.8-2.6
	c-0.3-0.9-0.5-1.7-0.8-2.6c-0.3-0.8-0.5-1.7-0.7-2.5l-0.6-2.4c-0.2-0.7-0.4-1.4-0.6-2c-0.4-1.2-0.9-2.3-1.5-2.6
	c-0.3-0.2-0.6-0.1-0.8-0.1C126.7,225,126.6,225,126.6,225L126.6,225z M126.3,280.1c0,0,0.3-1.4,1-3.5c0.3-1,0.8-2.2,1.3-3.4
	s1-2.6,1.6-3.9c0.6-1.3,1.2-2.6,1.8-3.8s1.2-2.3,1.7-3.2c1-1.9,1.9-3.1,1.9-3.1s-0.2,1.4-0.8,3.5c-0.3,1-0.7,2.2-1.1,3.5
	c-0.2,0.6-0.5,1.3-0.7,1.9c-0.3,0.7-0.5,1.3-0.8,2c-0.6,1.3-1.2,2.6-1.8,3.8s-1.2,2.3-1.8,3.2C127.2,278.9,126.3,280.1,126.3,280.1z
	 M141.2,264.3l0.7,0.7c0.4,0.5,1,1.2,1.7,2.1c0.7,0.9,1.4,2,2.1,3.2s1.4,2.5,2,3.9s1.1,2.7,1.5,4.1c0.4,1.3,0.8,2.6,1,3.7
	c0.5,2.2,0.6,3.7,0.6,3.7s-0.2-0.3-0.5-0.9l-1.2-2.4c-0.5-1-1-2.2-1.6-3.4s-1.1-2.6-1.7-3.9c-1.2-2.7-2.3-5.3-3.2-7.3
	c-0.4-1-0.8-1.8-1-2.5C141.3,264.7,141.2,264.3,141.2,264.3L141.2,264.3z M139.9,319.9c0,0,0-0.4,0.1-1.2c0-0.8,0.1-1.8,0.3-3.1
	c0.2-1.3,0.5-2.8,0.9-4.4c0.4-1.6,0.9-3.3,1.5-4.9c0.6-1.6,1.2-3.3,2-4.7c0.7-1.5,1.5-2.8,2.2-3.9c0.7-1.1,1.4-2,1.8-2.6
	c0.5-0.6,0.8-0.9,0.8-0.9s-0.1,0.4-0.4,1.1c-0.3,0.7-0.7,1.7-1.1,2.9c-0.5,1.2-1,2.6-1.6,4.1c-0.3,0.7-0.5,1.5-0.9,2.3l-0.9,2.4
	l-0.9,2.4c-0.3,0.8-0.5,1.6-0.8,2.3c-0.5,1.5-1,2.9-1.4,4.2c-0.4,1.2-0.8,2.2-1.1,3L139.9,319.9L139.9,319.9z M157.9,288
	c0,0,0.1-0.4,0.4-1.1c0.3-0.7,0.7-1.7,1.2-2.9s1.1-2.5,1.8-4c0.3-0.7,0.7-1.5,1-2.2c0.4-0.8,0.7-1.5,1.1-2.3s0.7-1.5,1.1-2.3
	s0.7-1.5,1.1-2.2c0.7-1.4,1.4-2.8,2-3.9c0.6-1.1,1.1-2.1,1.5-2.7c0.4-0.7,0.6-1,0.6-1s-0.3,1.7-1.1,4.2c-0.4,1.2-0.9,2.7-1.5,4.2
	c-0.3,0.7-0.6,1.5-1,2.3s-0.7,1.6-1.1,2.3c-0.4,0.8-0.8,1.5-1.2,2.3c-0.4,0.8-0.8,1.5-1.2,2.2c-0.4,0.7-0.8,1.4-1.2,2
	c-0.4,0.6-0.8,1.2-1.1,1.7C159.1,286.7,157.9,288,157.9,288L157.9,288z M156.3,296.8c0,0,1.1,1.9,2.4,4.8c0.7,1.5,1.5,3.2,2.2,5.1
	c0.4,0.9,0.8,1.9,1.2,2.9l1.2,3c0.4,1,0.7,2,1.1,3s0.7,2,1,2.9c0.6,1.9,1.2,3.7,1.7,5.3c0.9,3.1,1.4,5.2,1.4,5.2s-1.1-1.9-2.4-4.8
	c-0.7-1.5-1.5-3.2-2.2-5.1c-0.4-0.9-0.8-1.9-1.2-2.9l-1.2-3c-0.4-1-0.7-2-1.1-3s-0.7-2-1-2.9c-0.6-1.9-1.2-3.7-1.7-5.3
	C156.7,298.9,156.3,296.8,156.3,296.8z M176.5,266.3c0,0,0.3,0.5,0.8,1.3c0.5,0.9,1.3,2.1,2.1,3.5c0.9,1.5,1.9,3.2,2.9,5
	c0.5,0.9,1.1,1.9,1.7,2.8c0.6,1,1.1,1.9,1.7,2.9s1.1,2,1.7,2.9c0.6,1,1.1,1.9,1.7,2.8c1.1,1.8,2.1,3.5,3,5s1.6,2.7,2.1,3.5
	c0.5,0.9,0.8,1.4,0.8,1.4l-1.1-1.1c-0.7-0.7-1.7-1.8-2.7-3.1c-0.6-0.7-1.1-1.4-1.7-2.2s-1.2-1.6-1.8-2.5c-0.6-0.9-1.3-1.8-1.8-2.8
	c-0.6-1-1.2-1.9-1.8-2.9c-0.6-1-1.1-2-1.7-3c-0.5-1-1-2-1.5-2.9c-1-1.9-1.8-3.8-2.4-5.4c-0.7-1.6-1.2-2.9-1.5-3.9
	C176.7,266.9,176.5,266.3,176.5,266.3L176.5,266.3z M193.7,229v-0.4c0-0.1,0.2-0.4,0.4-0.4c0.3,0,0.5,0.1,0.7,0.3s0.4,0.4,0.6,0.7
	l0.6,0.9c0.4,0.6,0.8,1.3,1.3,2.1c0.9,1.5,2,3.3,3.1,5.3c0.5,1,1.1,2,1.7,3s1.1,2.1,1.7,3.1c0.5,1.1,1.1,2.1,1.6,3.2
	c0.5,1,1,2.1,1.5,3.1c1,2,1.9,3.9,2.6,5.6c1.5,3.3,2.3,5.6,2.3,5.6s-1.4-2-3.3-5c-1-1.5-2-3.3-3.1-5.3c-0.5-1-1.1-2-1.7-3
	s-1.1-2.1-1.7-3.1c-0.5-1.1-1.1-2.1-1.6-3.2c-0.5-1-1-2.1-1.5-3.1c-1-2-1.9-3.9-2.6-5.6c-0.4-0.8-0.7-1.6-1-2.3
	c-0.1-0.3-0.3-0.7-0.4-0.9c-0.1-0.3-0.2-0.5-0.4-0.7c-0.1-0.2-0.3-0.3-0.5-0.4c-0.1,0-0.3,0.1-0.3,0.2L193.7,229L193.7,229z
	 M198.2,293.1c0,0,0.2-0.4,0.5-1.1c0.3-0.7,0.8-1.6,1.3-2.7c0.6-1.1,1.2-2.4,1.9-3.8s1.5-2.9,2.2-4.4c0.8-1.5,1.5-3,2.3-4.3
	c0.7-1.4,1.4-2.7,2-3.8s1.1-2,1.5-2.7c0.4-0.6,0.6-1,0.6-1s-0.3,1.7-1.1,4.1c-0.4,1.2-0.9,2.6-1.5,4.1c-0.3,0.7-0.6,1.5-1,2.2
	c-0.4,0.8-0.7,1.5-1.1,2.3c-0.8,1.5-1.6,3-2.5,4.3c-0.4,0.7-0.9,1.3-1.3,1.9c-0.4,0.6-0.8,1.2-1.2,1.7
	C199.5,292,198.2,293.1,198.2,293.1L198.2,293.1z M198.1,309.9c0,0,1.2,1.6,2.8,4.2c0.8,1.3,1.7,2.8,2.7,4.5c0.5,0.8,1,1.7,1.4,2.6
	c0.5,0.9,0.9,1.8,1.4,2.7s0.9,1.8,1.4,2.7s0.9,1.8,1.3,2.6c0.8,1.7,1.5,3.3,2.1,4.7c1.2,2.8,1.8,4.8,1.8,4.8s-1.2-1.6-2.8-4.2
	c-0.8-1.3-1.7-2.8-2.7-4.5c-0.5-0.8-1-1.7-1.4-2.6c-0.5-0.9-0.9-1.8-1.4-2.7s-0.9-1.8-1.4-2.7s-0.9-1.8-1.3-2.6
	c-0.8-1.7-1.5-3.3-2.1-4.7C198.8,311.8,198.1,309.9,198.1,309.9z M216,333.6c0,0,0.1-0.5,0.4-1.4c0.1-0.4,0.3-1,0.5-1.6
	s0.4-1.3,0.7-2c0.5-1.4,1.2-3.1,2-4.9c0.8-1.8,1.8-3.6,2.8-5.3c1.1-1.8,2.2-3.5,3.4-5c0.6-0.8,1.2-1.5,1.7-2.2
	c0.6-0.7,1.1-1.3,1.7-1.9c1.1-1.1,2-2,2.7-2.6s1.1-0.9,1.1-0.9s-1.2,1.7-2.9,4.2c-0.8,1.3-1.8,2.7-2.8,4.3c-0.5,0.8-1,1.6-1.5,2.5
	c-0.5,0.8-1,1.7-1.5,2.6c-0.5,0.9-1,1.7-1.5,2.6c-0.5,0.9-1,1.7-1.4,2.5c-0.9,1.7-1.8,3.2-2.5,4.5c-0.8,1.3-1.4,2.4-1.8,3.2
	C216.2,333.1,216,333.6,216,333.6L216,333.6z M217.3,270.7c0,0-0.2-0.1-0.2,0.1s0,0.4,0.1,0.8c0.1,0.3,0.2,0.8,0.5,1
	c0.3,0.3,0.7,0.8,1.1,1.2c0.8,0.9,1.7,2,2.7,3.2c0.5,0.6,1,1.2,1.4,1.9c0.5,0.6,1,1.3,1.4,1.9c0.5,0.7,0.9,1.3,1.4,2
	c0.5,0.6,0.9,1.3,1.3,2c0.8,1.3,1.6,2.5,2.2,3.6c1.2,2.1,1.9,3.6,1.9,3.6s-1.2-1.1-2.8-3c-0.8-0.9-1.7-2-2.7-3.2
	c-0.5-0.6-1-1.2-1.4-1.9c-0.5-0.6-1-1.3-1.4-1.9c-0.5-0.7-0.9-1.3-1.4-2s-0.9-1.3-1.3-2c-0.8-1.3-1.6-2.5-2.2-3.6
	c-0.3-0.5-0.6-1-0.8-1.5c-0.3-0.6-0.2-1-0.2-1.4s0.1-0.7,0.2-0.9C217.1,270.6,217.2,270.6,217.3,270.7L217.3,270.7z M238.5,307.5
	c0,0,0.4,0.3,1,0.7c0.6,0.5,1.5,1.2,2.5,2.2c0.5,0.5,1,1,1.5,1.6s1.1,1.2,1.6,1.9c1.1,1.3,2.1,2.8,3.1,4.3s1.9,3.1,2.6,4.6
	c0.8,1.5,1.4,3,1.9,4.2c0.5,1.3,0.8,2.3,1,3.1l0.3,1.2c0,0-0.3-0.4-0.7-1c-0.4-0.7-1-1.6-1.7-2.8c-0.7-1.1-1.5-2.5-2.4-3.9
	c-0.4-0.7-0.9-1.4-1.3-2.2c-0.5-0.7-0.9-1.5-1.4-2.2c-0.5-0.8-0.9-1.5-1.4-2.2s-0.9-1.4-1.4-2.1c-0.9-1.4-1.8-2.6-2.6-3.7
	s-1.4-2-1.9-2.6C238.8,307.9,238.5,307.5,238.5,307.5z M261.5,333c0,0,0.1-0.4,0.3-1.1c0.2-0.7,0.5-1.7,0.9-2.9s1-2.5,1.7-4
	c0.7-1.4,1.5-2.9,2.4-4.3c0.9-1.4,1.8-2.8,2.8-4s2-2.3,2.9-3.2s1.7-1.6,2.3-2c0.6-0.4,0.9-0.7,0.9-0.7s-0.2,0.4-0.6,1
	s-1,1.5-1.7,2.5s-1.5,2.2-2.3,3.5c-0.4,0.6-0.8,1.3-1.3,2c-0.4,0.7-0.9,1.4-1.3,2.1c-0.4,0.7-0.9,1.4-1.3,2.1
	c-0.4,0.7-0.8,1.4-1.2,2c-0.8,1.3-1.5,2.6-2.2,3.6c-0.6,1.1-1.2,1.9-1.6,2.6C261.7,332.7,261.5,333,261.5,333L261.5,333z
	 M238.9,291.8h0.3c0.2,0,0.5,0,0.8-0.2c0.6-0.4,1.3-1.3,1.9-2.4c0.6-1.2,1.2-2.6,2-4.1c0.4-0.8,0.8-1.5,1.2-2.3
	c0.4-0.8,0.9-1.6,1.3-2.4c0.4-0.8,0.9-1.6,1.3-2.3c0.4-0.8,0.9-1.5,1.3-2.2c0.9-1.5,1.7-2.8,2.5-3.9c1.5-2.3,2.7-3.7,2.7-3.7
	s-0.6,1.7-1.7,4.2c-0.5,1.2-1.2,2.7-2,4.2c-0.4,0.8-0.8,1.5-1.2,2.3c-0.4,0.8-0.9,1.6-1.3,2.4c-0.4,0.8-0.9,1.6-1.3,2.3
	c-0.4,0.8-0.9,1.5-1.3,2.2s-0.9,1.4-1.3,2.1c-0.4,0.7-0.9,1.3-1.3,1.8c-0.9,1.1-1.8,1.9-2.7,2.2c-0.4,0.1-0.8,0-1,0
	C239,291.8,238.9,291.8,238.9,291.8L238.9,291.8z M196.7,215.1c0,0,0.8-2.1,2.2-5.2c0.7-1.5,1.5-3.3,2.5-5.2
	c0.5-0.9,0.9-1.9,1.5-2.9c0.5-1,1-2,1.6-3c0.5-1,1.1-2,1.6-2.9c0.5-1,1.1-1.9,1.6-2.8c1.1-1.8,2.1-3.5,3-4.9
	c1.8-2.8,3.2-4.7,3.2-4.7s-0.8,2.1-2.2,5.2c-0.7,1.5-1.5,3.3-2.5,5.2c-0.5,0.9-0.9,1.9-1.5,2.9c-0.5,1-1,2-1.6,3
	c-0.5,1-1.1,2-1.6,2.9c-0.5,1-1.1,1.9-1.6,2.8c-1.1,1.8-2.1,3.5-3,4.9C198.1,213.3,196.7,215.1,196.7,215.1z M198.3,141.8
	c0,0,1.2,2,2.8,5.2c0.8,1.6,1.7,3.4,2.6,5.4c0.5,1,1,2,1.4,3.1c0.5,1,1,2.1,1.4,3.2c0.5,1.1,0.9,2.1,1.4,3.2c0.5,1,0.9,2.1,1.3,3.1
	c0.8,2,1.6,3.9,2.2,5.6c1.3,3.3,2,5.5,2,5.5s-1.3-2-3-5.1c-0.9-1.5-1.8-3.4-2.8-5.3l-1.5-3c-0.5-1-1-2.1-1.5-3.2s-0.9-2.2-1.4-3.2
	c-0.5-1.1-0.9-2.1-1.3-3.1c-0.8-2-1.5-4-2.1-5.6C198.9,144.1,198.3,141.8,198.3,141.8L198.3,141.8z M177.3,178.1
	c0,0,0.2-0.5,0.6-1.3s1-2,1.7-3.3c0.7-1.4,1.6-3,2.5-4.7c0.5-0.8,0.9-1.7,1.4-2.6l1.5-2.7c1-1.8,2-3.6,3-5.3c1-1.7,1.9-3.2,2.7-4.6
	c0.8-1.3,1.5-2.4,2-3.2c0.5-0.8,0.8-1.2,0.8-1.2s-0.6,2-1.8,4.9c-0.6,1.4-1.3,3.1-2.2,4.9c-0.4,0.9-0.9,1.8-1.4,2.7l-1.5,2.7
	c-0.5,0.9-1.1,1.8-1.6,2.7c-0.5,0.9-1.1,1.7-1.6,2.5c-1.1,1.6-2.1,3.1-3.1,4.4C178.7,176.6,177.3,178.1,177.3,178.1z M219.7,174.4
	c0,0,0.3-1.5,1-3.6c0.3-1.1,0.8-2.3,1.3-3.6c0.3-0.6,0.5-1.3,0.8-2s0.6-1.3,0.9-2c0.7-1.3,1.4-2.7,2.1-3.9c0.7-1.2,1.4-2.3,2.1-3.2
	c1.3-1.8,2.3-3,2.3-3s-0.5,1.5-1.3,3.5c-0.4,1-0.9,2.2-1.5,3.5c-0.3,0.6-0.6,1.3-0.9,1.9c-0.3,0.7-0.6,1.3-1,2
	c-0.7,1.3-1.3,2.6-2,3.9c-0.6,1.2-1.3,2.4-1.8,3.3C220.6,173.1,219.7,174.4,219.7,174.4L219.7,174.4z M240,213.9c0,0,0.4-2,1.3-4.8
	c0.4-1.4,1-3.1,1.7-4.8c0.4-0.9,0.7-1.8,1.1-2.7l1.2-2.7c0.4-0.9,0.9-1.8,1.3-2.7s0.9-1.7,1.3-2.6c0.9-1.7,1.8-3.2,2.5-4.5
	c1.6-2.6,2.8-4.2,2.8-4.2s-0.6,1.9-1.8,4.7c-0.6,1.4-1.2,3-2,4.7c-0.4,0.8-0.7,1.7-1.2,2.6l-1.2,2.7c-0.8,1.8-1.7,3.6-2.5,5.3
	s-1.6,3.2-2.3,4.6C241,212.2,240,213.9,240,213.9L240,213.9z M218.4,192.5l0.6,1.2c0.3,0.8,0.8,1.9,1.4,3.2s1.2,2.8,1.9,4.4
	c0.3,0.8,0.7,1.6,1.1,2.5c0.4,0.8,0.8,1.7,1.2,2.5c0.4,0.9,0.8,1.7,1.2,2.5c0.4,0.8,0.8,1.7,1.2,2.4c0.8,1.6,1.6,3,2.2,4.3
	c1.4,2.5,2.3,4.2,2.3,4.2s-0.4-0.3-0.9-0.9c-0.6-0.6-1.4-1.5-2.3-2.6c-0.4-0.6-0.9-1.2-1.4-1.9s-1-1.4-1.4-2.2
	c-0.9-1.5-1.8-3.2-2.7-5c-0.8-1.8-1.5-3.5-2.1-5.2s-1-3.3-1.4-4.7c-0.2-0.7-0.3-1.3-0.4-1.9c-0.1-0.6-0.2-1.1-0.3-1.5
	C218.5,193,218.4,192.5,218.4,192.5L218.4,192.5z M220.4,256.5c0,0,0.3-1.7,1-4.1c0.3-1.2,0.8-2.6,1.4-4.1c0.3-0.7,0.6-1.5,0.9-2.3
	s0.7-1.5,1-2.3c0.7-1.5,1.5-3,2.3-4.4c0.4-0.7,0.8-1.3,1.2-2c0.4-0.6,0.8-1.2,1.1-1.7c1.5-2.1,2.6-3.3,2.6-3.3s-0.1,0.4-0.4,1.1
	c-0.3,0.7-0.7,1.7-1.2,2.8c-0.5,1.2-1.1,2.5-1.8,3.9c-0.3,0.7-0.7,1.5-1,2.2s-0.7,1.5-1.1,2.3c-0.7,1.5-1.4,3-2.1,4.4
	s-1.3,2.7-1.9,3.8s-1.1,2-1.4,2.7C220.6,256.1,220.4,256.5,220.4,256.5L220.4,256.5z M239.1,234.6c0,0,0.4,0.3,1,0.8
	c0.3,0.3,0.7,0.6,1.1,1.1c0.4,0.4,0.8,1,1.2,1.5c0.4,0.6,0.9,1.2,1.3,2c0.4,0.7,0.8,1.5,1.2,2.3c0.4,0.8,0.8,1.6,1.2,2.5
	c0.4,0.9,0.7,1.7,1.1,2.6c0.3,0.9,0.7,1.7,1,2.6c0.3,0.9,0.7,1.7,1,2.5s0.6,1.6,0.9,2.3l0.9,2.1c0.3,0.6,0.6,1.2,0.8,1.7
	c0.1,0.2,0.3,0.5,0.4,0.7c0.1,0.1,0.1,0.2,0.2,0.2h0.1c0.1-0.1,0.1-0.2,0.2-0.4v-0.4c0-0.3-0.2-0.1-0.2-0.1l0.1-0.1
	c0.1-0.1,0.2,0,0.2,0.1c0.1,0.1,0.1,0.2,0.1,0.4s0.1,0.4-0.1,0.7c-0.1,0.1-0.4,0.2-0.5,0.1c-0.2-0.1-0.3-0.2-0.4-0.2l-0.6-0.6
	c-0.4-0.4-0.8-1-1.2-1.6c-0.4-0.6-0.8-1.2-1.2-2c-0.4-0.7-0.8-1.5-1.2-2.3c-0.4-0.8-0.8-1.6-1.1-2.5c-0.4-0.9-0.7-1.7-1.1-2.6
	c-0.7-1.7-1.4-3.5-2-5.1c-0.3-0.8-0.6-1.6-1-2.3c-0.3-0.7-0.6-1.4-0.9-2s-0.6-1.2-0.9-1.7s-0.5-0.9-0.8-1.2
	C239.3,235,239.1,234.6,239.1,234.6L239.1,234.6z M260.3,254.8c0,0,0.2-0.5,0.7-1.3c0.4-0.8,1.1-2,1.9-3.4s1.7-3,2.7-4.8
	c0.5-0.9,1-1.8,1.6-2.7c0.5-0.9,1.1-1.8,1.6-2.7c1.1-1.8,2.2-3.7,3.3-5.4c1-1.7,2-3.3,2.9-4.7s1.6-2.5,2.2-3.3
	c0.5-0.8,0.9-1.2,0.9-1.2s-0.7,2.1-2,5c-0.6,1.5-1.5,3.2-2.4,5c-0.5,0.9-0.9,1.8-1.5,2.7c-0.5,0.9-1.1,1.9-1.6,2.8
	c-0.6,0.9-1.1,1.8-1.7,2.7s-1.2,1.8-1.7,2.6c-1.1,1.7-2.3,3.2-3.3,4.5C261.8,253.3,260.3,254.8,260.3,254.8L260.3,254.8z
	 M262.3,277.3l0.6,0.9c0.4,0.6,0.9,1.4,1.6,2.4c0.6,1,1.4,2.2,2.2,3.4c0.4,0.6,0.8,1.3,1.2,1.9c0.4,0.6,0.9,1.3,1.3,1.9
	c0.4,0.7,0.9,1.3,1.3,1.9c0.5,0.6,0.9,1.3,1.3,1.8c0.4,0.6,0.9,1.2,1.3,1.7l1.2,1.5c0.4,0.4,0.7,0.9,1,1.3c0.3,0.4,0.6,0.7,0.8,1
	c0.5,0.5,0.7,0.9,0.7,0.9l-1-0.5c-0.6-0.4-1.5-0.9-2.4-1.7c-0.5-0.4-1-0.8-1.5-1.3s-1-1-1.5-1.6l-1.5-1.8c-0.5-0.6-1-1.3-1.4-2
	c-0.9-1.4-1.7-2.7-2.4-4.1c-0.7-1.3-1.3-2.6-1.7-3.8c-0.4-1.1-0.7-2.1-0.9-2.8C262.4,277.7,262.3,277.3,262.3,277.3L262.3,277.3z
	 M282,288.1c0,0,0.4-2,1.2-5c0.4-1.5,1-3.2,1.6-5c0.3-0.9,0.6-1.8,1-2.8c0.4-0.9,0.8-1.9,1.1-2.8c0.4-0.9,0.8-1.9,1.2-2.8
	c0.4-0.9,0.9-1.8,1.3-2.7c0.9-1.7,1.7-3.3,2.5-4.6c1.5-2.6,2.8-4.3,2.8-4.3s-0.2,0.5-0.4,1.3c-0.3,0.8-0.7,2-1.3,3.5
	c-0.5,1.4-1.2,3.1-1.9,4.8c-0.4,0.9-0.7,1.8-1.1,2.7s-0.8,1.8-1.2,2.8c-0.8,1.9-1.6,3.7-2.4,5.4s-1.5,3.3-2.2,4.7
	C283,286.3,282,288.1,282,288.1L282,288.1z M280.9,315.7c0,0,1.3,1.2,3,3.2c0.4,0.5,0.9,1,1.3,1.6c0.5,0.6,1,1.2,1.4,1.9
	c0.5,0.7,1,1.3,1.4,2.1c0.5,0.7,0.9,1.5,1.4,2.2c0.4,0.8,0.9,1.5,1.3,2.2s0.8,1.5,1.2,2.2c0.7,1.5,1.4,2.8,1.9,4
	c1,2.4,1.5,4.1,1.5,4.1s-0.3-0.3-0.7-1c-0.4-0.6-1.1-1.5-1.8-2.6s-1.6-2.3-2.4-3.7c-0.4-0.7-0.9-1.4-1.3-2.1
	c-0.4-0.7-0.9-1.5-1.4-2.2c-0.4-0.7-0.9-1.5-1.3-2.2c-0.5-0.7-0.9-1.4-1.3-2.1c-0.8-1.4-1.6-2.7-2.2-3.8s-1.2-2.1-1.5-2.8
	C281,316.1,280.9,315.7,280.9,315.7L280.9,315.7z M301.6,328.4c0,0,0.5-1.8,1.4-4.4c0.5-1.3,1-2.8,1.7-4.4c0.3-0.8,0.7-1.6,1-2.4
	c0.4-0.8,0.7-1.7,1.1-2.5s0.8-1.7,1.2-2.5l1.2-2.4c0.8-1.5,1.6-2.9,2.3-4.1c1.4-2.4,2.5-3.9,2.5-3.9s-0.5,1.8-1.4,4.4
	c-0.5,1.3-1,2.8-1.7,4.4c-0.3,0.8-0.7,1.6-1,2.4c-0.4,0.8-0.7,1.7-1.1,2.5s-0.8,1.7-1.2,2.5l-1.2,2.4c-0.8,1.5-1.6,2.9-2.3,4.1
	C302.7,326.9,301.6,328.4,301.6,328.4z M299.1,264.1c0,0,1.1,1.5,2.5,3.8c0.7,1.2,1.5,2.5,2.3,4c0.4,0.7,0.8,1.5,1.2,2.3l1.2,2.4
	l1.2,2.4c0.4,0.8,0.7,1.6,1.1,2.4c0.7,1.5,1.3,3,1.8,4.3c0.3,0.6,0.5,1.2,0.7,1.7s0.3,1,0.5,1.3c0.1,0.1,0,0.1,0,0.1v-0.4
	c0-0.3-0.1,0-0.1,0v-0.1c0,0,0.1-0.1,0.1,0l0.1,0.1c0.1,0.1,0.1,0.2,0.1,0.4v0.2c0,0-0.1,0.1-0.1,0.2c-0.2,0.1-0.4,0-0.5-0.1
	c-0.4-0.3-0.6-0.8-0.9-1.2c-0.3-0.5-0.6-1-1-1.6c-0.7-1.2-1.5-2.5-2.3-4c-0.4-0.7-0.8-1.5-1.2-2.3l-1.2-2.4l-1.2-2.4
	c-0.4-0.8-0.7-1.6-1.1-2.4c-0.7-1.5-1.3-3-1.8-4.3C299.6,265.8,299.1,264.1,299.1,264.1L299.1,264.1z M298.5,244.5
	c0,0,0.5-1.8,1.3-4.5c0.4-1.3,0.9-2.9,1.5-4.5c0.3-0.8,0.6-1.7,0.9-2.5c0.3-0.9,0.6-1.7,0.9-2.6c0.3-0.9,0.6-1.7,1-2.6
	c0.3-0.9,0.6-1.7,1-2.5c0.6-1.6,1.2-3.1,1.8-4.4c1.1-2.6,1.9-4.3,1.9-4.3s-0.2,1.9-0.8,4.6c-0.3,1.4-0.7,3-1.2,4.6
	c-0.3,0.8-0.5,1.7-0.8,2.6c-0.3,0.9-0.6,1.7-0.9,2.6c-0.3,0.9-0.7,1.7-1,2.6c-0.3,0.9-0.7,1.7-1,2.5c-0.7,1.6-1.4,3.1-2.1,4.3
	C299.6,242.9,298.5,244.5,298.5,244.5L298.5,244.5z M312,219.9c0,0,1,1.6,2.1,4.2c0.6,1.3,1.3,2.8,1.9,4.4c0.3,0.8,0.7,1.6,1,2.5
	s0.7,1.7,1,2.6c0.3,0.9,0.6,1.8,0.9,2.6c0.3,0.9,0.6,1.7,0.8,2.5c0.5,1.7,1,3.2,1.3,4.6c0.7,2.7,1.1,4.6,1.1,4.6s-1-1.6-2.1-4.2
	c-0.6-1.3-1.3-2.8-1.9-4.4c-0.3-0.8-0.7-1.6-1-2.5s-0.7-1.7-1-2.6c-0.3-0.9-0.6-1.8-0.9-2.6c-0.3-0.9-0.6-1.7-0.8-2.5
	c-0.5-1.7-1-3.2-1.3-4.6C312.4,221.8,312,219.9,312,219.9z M314.6,279.6c0,0-0.1-1.4,0.1-3.4c0.1-1,0.3-2.2,0.5-3.4s0.5-2.5,0.8-3.8
	s0.7-2.6,1.1-3.7c0.4-1.2,0.8-2.3,1.2-3.2c0.8-1.8,1.5-3,1.5-3s-0.1,1.4-0.4,3.3c-0.2,1-0.4,2.1-0.6,3.3c-0.3,1.2-0.6,2.5-0.9,3.8
	s-0.7,2.5-1.1,3.7s-0.7,2.3-1.1,3.2C315.2,278.4,314.6,279.6,314.6,279.6L314.6,279.6z M312.5,196.6c0,0,0.1-1.8,0.6-4.6
	c0.2-1.4,0.5-2.9,0.8-4.6c0.2-0.8,0.3-1.7,0.6-2.6c0.2-0.9,0.4-1.8,0.6-2.6c0.2-0.9,0.5-1.8,0.7-2.6c0.2-0.9,0.5-1.7,0.7-2.5
	c0.5-1.6,1-3.2,1.4-4.4c0.9-2.6,1.7-4.3,1.7-4.3s-0.1,1.8-0.6,4.6c-0.2,1.4-0.5,2.9-0.8,4.6c-0.2,0.8-0.3,1.7-0.6,2.6
	c-0.2,0.9-0.4,1.8-0.6,2.6c-0.2,0.9-0.5,1.8-0.7,2.6c-0.2,0.9-0.5,1.7-0.7,2.5c-0.5,1.6-1,3.2-1.4,4.4
	C313.2,195,312.5,196.6,312.5,196.6L312.5,196.6z M282.7,206.7c0,0,0.1-0.5,0.4-1.3s0.7-2,1.2-3.4s1.1-3,1.8-4.7
	c0.7-1.7,1.4-3.6,2.1-5.4c0.4-0.9,0.7-1.8,1.1-2.7c0.3-0.9,0.7-1.8,1.1-2.6c0.7-1.7,1.3-3.3,1.9-4.7s1.1-2.5,1.5-3.3l0.6-1.2
	c0,0-0.2,2-1,4.9c-0.3,1.5-0.8,3.1-1.4,4.9l-0.9,2.7c-0.3,0.9-0.7,1.8-1,2.8c-0.4,0.9-0.8,1.8-1.1,2.7c-0.4,0.9-0.8,1.8-1.2,2.6
	l-1.2,2.4c-0.4,0.8-0.8,1.5-1.1,2.1C283.9,205.1,282.7,206.7,282.7,206.7z M298.9,179.6c0,0,0.3,0.2,0.7,0.7c0.4,0.4,1,1.1,1.6,1.9
	c0.6,0.8,1.3,1.9,1.9,3s1.2,2.4,1.7,3.7s0.9,2.6,1.2,3.9c0.3,1.3,0.5,2.4,0.7,3.5c0.3,2.1,0.2,3.5,0.2,3.5s-0.2-0.3-0.4-0.9
	c-0.2-0.6-0.6-1.3-0.9-2.3c-0.7-1.9-1.7-4.4-2.7-6.9c-0.2-0.6-0.5-1.2-0.7-1.9c-0.3-0.6-0.5-1.2-0.7-1.8c-0.5-1.2-0.9-2.3-1.3-3.2
	s-0.7-1.7-1-2.3L298.9,179.6L298.9,179.6z M261.1,182.6c0,0,1.2,1.3,2.6,3.5c0.4,0.5,0.8,1.1,1.1,1.8c0.4,0.6,0.8,1.3,1.2,2.1
	c0.4,0.7,0.8,1.5,1.2,2.2c0.4,0.8,0.8,1.6,1.1,2.4c0.3,0.8,0.7,1.6,1,2.4l0.9,2.4c0.6,1.5,1,3,1.4,4.3c0.7,2.5,1,4.3,1,4.3
	s-0.2-0.4-0.6-1.1c-0.4-0.7-0.9-1.6-1.4-2.8c-0.6-1.2-1.2-2.5-1.9-4c-0.3-0.7-0.7-1.5-1.1-2.3s-0.7-1.6-1.1-2.3
	c-0.7-1.6-1.4-3.2-2.1-4.6c-0.7-1.5-1.3-2.9-1.8-4.1c-0.5-1.2-0.9-2.2-1.2-2.9C261.2,183,261.1,182.6,261.1,182.6L261.1,182.6z
	 M283.7,139.2c0,0,1.1,1.6,2.5,4.1c0.7,1.2,1.5,2.7,2.3,4.3c0.4,0.8,0.8,1.6,1.2,2.5c0.4,0.9,0.8,1.7,1.1,2.6
	c0.4,0.9,0.7,1.8,1.1,2.6c0.4,0.9,0.7,1.7,1,2.6c0.6,1.7,1.1,3.3,1.5,4.6c0.8,2.7,1.2,4.6,1.2,4.6s-1-1.6-2.3-4.2
	c-0.6-1.3-1.4-2.8-2.1-4.4c-0.4-0.8-0.8-1.6-1.1-2.5c-0.4-0.9-0.7-1.7-1.1-2.6s-0.7-1.7-1.1-2.6s-0.7-1.7-1-2.5
	c-0.6-1.7-1.2-3.2-1.7-4.6C284.2,141,283.7,139.2,283.7,139.2z M302.6,162.5c0,0,0.5-2.2,1.4-5.3c0.5-1.6,1-3.4,1.7-5.3
	c0.3-1,0.7-2,1-3c0.4-1,0.8-2,1.1-3l1.2-3c0.4-1,0.8-2,1.2-2.9c0.8-1.9,1.6-3.6,2.3-5.1c1.4-3,2.5-4.9,2.5-4.9s-0.5,2.2-1.4,5.3
	c-0.5,1.6-1,3.4-1.7,5.3c-0.3,1-0.7,2-1,3c-0.4,1-0.8,2-1.1,3l-1.2,3c-0.4,1-0.8,2-1.2,2.9c-0.8,1.9-1.6,3.6-2.3,5.1
	C303.7,160.6,302.6,162.5,302.6,162.5z M138.6,167.2l0.6-1.2c0.4-0.7,0.9-1.8,1.5-3s1.4-2.7,2.2-4.2c0.8-1.5,1.7-3.2,2.6-4.8
	c0.9-1.6,1.8-3.2,2.6-4.8c0.8-1.5,1.6-2.9,2.3-4.1c0.7-1.2,1.3-2.2,1.7-2.9c0.4-0.7,0.7-1.1,0.7-1.1s-0.4,1.8-1.4,4.5
	c-0.5,1.3-1.1,2.8-1.8,4.4c-0.4,0.8-0.7,1.6-1.1,2.4s-0.8,1.7-1.3,2.5s-0.9,1.6-1.4,2.4s-1,1.6-1.4,2.3c-0.5,0.7-1,1.4-1.4,2.1
	c-0.5,0.7-0.9,1.3-1.3,1.8C139.9,165.9,138.6,167.2,138.6,167.2L138.6,167.2z M131.6,164.2l-0.9-1.2c-0.5-0.8-1.3-1.8-2.1-3.2
	c-0.4-0.7-0.8-1.4-1.3-2.2c-0.4-0.8-0.9-1.6-1.3-2.5c-0.4-0.9-0.9-1.8-1.3-2.7c-0.4-1-0.8-1.9-1.3-2.9c-0.4-1-0.8-2-1.1-2.9
	c-0.4-1-0.7-1.9-1-2.9c-0.6-1.9-1.1-3.6-1.5-5.2c-0.4-1.5-0.7-2.8-0.8-3.7c-0.2-0.9-0.2-1.4-0.2-1.4s0.2,0.5,0.6,1.3
	c0.4,0.8,0.9,2,1.6,3.5c0.6,1.4,1.3,3.1,2.1,4.9s1.6,3.7,2.4,5.7c1.6,3.9,3.2,7.7,4.4,10.6c0.6,1.5,1.1,2.7,1.4,3.5
	C131.4,163.7,131.6,164.2,131.6,164.2L131.6,164.2z M126.3,199.6c0,0,0-1.5,0.2-3.8c0.1-1.1,0.3-2.4,0.5-3.8s0.5-2.8,0.9-4.3
	c0.4-1.4,0.8-2.9,1.2-4.2s0.9-2.6,1.3-3.6c0.9-2.1,1.6-3.4,1.6-3.4s-0.1,1.5-0.5,3.7c-0.2,1.1-0.4,2.4-0.7,3.7
	c-0.3,1.4-0.6,2.8-1,4.2s-0.8,2.9-1.1,4.2c-0.4,1.3-0.8,2.6-1.1,3.6C127,198.2,126.3,199.6,126.3,199.6L126.3,199.6z M118.5,252.3
	c0,0,0.7,1,1.4,2.7c0.4,0.8,0.8,1.8,1.2,2.8s0.8,2.2,1.1,3.3s0.7,2.3,0.9,3.4c0.3,1.1,0.5,2.1,0.6,3c0.3,1.8,0.3,3,0.3,3
	s-0.7-1-1.4-2.7c-0.4-0.8-0.8-1.8-1.2-2.8s-0.8-2.2-1.1-3.3s-0.6-2.3-0.9-3.4c-0.3-1.1-0.5-2.1-0.6-3
	C118.5,253.5,118.5,252.3,118.5,252.3z M174,324.4c0,0,0.2-0.4,0.4-1c0.3-0.6,0.7-1.5,1.2-2.5c1-2,2.3-4.7,3.7-7.4
	c0.7-1.3,1.3-2.7,2-4c0.6-1.3,1.2-2.4,1.8-3.5c0.5-1,1-1.8,1.3-2.4c0.3-0.6,0.5-0.9,0.5-0.9s-0.2,1.5-0.8,3.8
	c-0.3,1.1-0.7,2.4-1.2,3.7s-1.1,2.8-1.8,4.1c-0.7,1.4-1.4,2.7-2.2,3.9c-0.4,0.6-0.8,1.2-1.2,1.7c-0.4,0.5-0.8,1-1.1,1.5
	c-0.7,0.9-1.4,1.6-1.8,2.1C174.3,324.1,174,324.4,174,324.4L174,324.4z M127.7,284.9c0,0,0.2,0.4,0.4,1.2c0.3,0.7,0.6,1.8,1,3.1
	s0.8,2.7,1.3,4.3s1,3.3,1.4,5c0.5,1.7,1,3.4,1.4,5s0.9,3.1,1.2,4.4c0.3,1.3,0.6,2.4,0.8,3.1l0.3,1.2c0,0-1-1.5-2.2-3.9
	c-0.3-0.6-0.6-1.3-0.9-2c-0.3-0.7-0.6-1.4-0.9-2.2l-0.9-2.4c-0.3-0.8-0.5-1.7-0.8-2.5c-0.2-0.9-0.5-1.7-0.7-2.6
	c-0.2-0.8-0.4-1.7-0.6-2.5c-0.3-1.6-0.6-3.2-0.7-4.5C127.6,286.7,127.7,284.9,127.7,284.9L127.7,284.9z M160.1,145.1
	c0.8,1,1.6,2,2.3,3c0.7,1,1.5,2,2.2,3.1c0.7,1,1.4,2.1,2.1,3.1s1.3,2.1,2,3.2s1.3,2.2,1.9,3.2l1.8,3.3c1.2,2.2,2.3,4.5,3.3,6.8
	l-0.4,0.2c-0.1-0.5-0.2-1.1-0.3-1.6c0.2,0.5,0.5,1,0.7,1.5l0.8,1.8l-1.2-1.6c-1.5-2-3-4.1-4.4-6.1c-0.7-1.1-1.4-2.1-2-3.2
	s-1.3-2.1-1.9-3.2s-1.3-2.2-1.9-3.3l-1.8-3.3c-0.6-1.1-1.1-2.2-1.7-3.4C161.1,147.4,160.6,146.3,160.1,145.1z M242.3,156.2
	c0,0,1.4,0.9,3.2,2.5c0.9,0.8,2,1.8,3.1,2.9c0.5,0.6,1.1,1.1,1.6,1.7s1.1,1.2,1.6,1.8c0.5,0.6,1,1.3,1.5,1.9s0.9,1.3,1.4,1.9
	c0.9,1.3,1.6,2.5,2.2,3.5c1.2,2.1,1.8,3.7,1.8,3.7l-0.8-0.8c-0.5-0.5-1.2-1.3-2-2.2c-0.8-0.9-1.7-2-2.7-3.1l-1.5-1.8l-1.5-1.8
	c-1-1.2-2-2.5-3-3.7s-1.8-2.3-2.6-3.2c-0.7-1-1.3-1.8-1.8-2.4C242.5,156.6,242.3,156.2,242.3,156.2L242.3,156.2z M262.3,165.5
	c0,0,0.3-1.5,1.1-3.8c0.4-1.1,0.9-2.4,1.4-3.7c0.6-1.3,1.2-2.7,2-4.1c0.4-0.7,0.7-1.4,1.1-2c0.4-0.7,0.8-1.3,1.2-1.9
	c0.8-1.2,1.5-2.4,2.2-3.3c1.4-1.9,2.5-3,2.5-3s-0.5,1.5-1.5,3.6c-0.5,1.1-1,2.3-1.7,3.6c-0.6,1.3-1.3,2.7-2,4
	c-0.7,1.4-1.4,2.7-2.1,4s-1.4,2.4-2,3.4C263.2,164.2,262.3,165.5,262.3,165.5L262.3,165.5z"/>
<path class="st1" d="M350,32.6c-0.5-7.6,7.8-19.3-6.3-21.4C330.6,9.3,150.8,10,132,10.3c-17.4,0.3-24.8,1.6-27.4,9.6
	c-1,2.2-1.3,4.9-1.2,7.9v2.4h0.2c0.6,5.1,2,10.4,2.2,13.6c0.7,9.8,1.2,19.6,1,29.4c-5.3,1.3-7.9,8.6-4.7,13c1,1.4,2.4,2.4,3.3,3.9
	c0.9,1.6,1,3.5,1.1,5.4c0.8,14.8,1.4,29.6,1.7,44.4c0.6,27.9-3,56.1-1.7,83.9c1.4,29.3,0.9,58.8,1.3,88.1c0.1,3.4,0.1,6.9,1.2,10.1
	c1.2,3.8,3.7,7,6.4,9.9c19.5,20.9,49.8,27.6,78.3,30c14.3,1.2,28.7,1.5,43,0.6c13.8-0.9,27.5-3,41.2-5.1c12.1-1.9,24.3-3.8,35.7-8.3
	c11.7-4.7,19.8-9.6,21.4-22.7c4-31.5,2.7-63.2,4.3-94.8c1.2-24.3,1.4-48.7,2.7-73c1.3-24.1,0.4-48.1,2.9-72.2
	c0.1-1.2,0.3-2.5,1.2-3.3c0.9-0.9,2.3-1,3.4-1.6c3-1.8,2.5-6.3,1-9.5C345.5,60.4,350.8,45.1,350,32.6L350,32.6z"/>
<path d="M114.1,18.2v2.4c0,1.6-0.1,3.9-0.3,6.9s-0.5,6.8-0.7,11.1c-0.2,4.4-0.3,9.4,0.7,15c0.9,5.6,2.5,11.6,3.5,18.4
	c0.5,3.4,0.9,7,0.8,10.7c0,0.9-0.1,1.9-0.2,2.8c-0.1,0.9-0.3,1.9-0.4,2.8l-0.9,5.7c-1,7.8-1.3,16.2-1.1,25s0.8,18.1,1.6,27.7
	c0.8,9.7,1.7,19.7,2.2,30.2c0.4,10.5,0.5,21.3,0.4,32.4c0,22.3-0.7,45.7-2.4,70c-0.4,6.1-0.9,12.1-0.7,18.2c0.2,6,1.3,12,4.1,17.4
	c2.7,5.2,7,9.9,11.9,13.5c5,3.6,10.6,6.3,16.5,8.5c11.8,4.3,24.5,6.4,37.2,8c6.4,0.8,12.8,1.5,19.2,2c6.4,0.5,12.8,0.8,19.3,0.9
	c25.8,0.5,51.5-2.8,76-9.7c3.1-0.8,6.1-1.6,9-2.7c2.9-1.1,5.7-2.3,8-4.1c0.6-0.4,1.1-0.9,1.7-1.4c0.5-0.5,1-1,1.4-1.7
	c0.9-1.1,1.7-2.4,2.3-3.8c1.3-2.7,2.3-5.6,3-8.6c0.8-3,1.4-5.9,1.6-8.9c0.3-3,0.2-6,0-9.1s-0.3-6.1-0.5-9.2
	c-0.1-3.1-0.2-6.1-0.3-9.2c-0.7-24.3,0.2-47.8,1.3-70c1.1-22.2,2.5-43.2,3.3-62.6c0.4-9.7,0.7-19,0.9-27.8c0.1-4.4,0.2-8.7,0.3-12.9
	c0.1-4.2,0.3-8.3,0.6-12.2c1.2-15.8,3.2-29.4,4.5-40.6c1.4-11.2,2.1-20.1,2.4-26.1c0.1-1.5,0.1-2.9,0.2-4c0-1.2,0-2.1,0.1-2.9
	c0-1.6,0.1-2.4,0.1-2.4v5.3c0,1.2-0.1,2.5-0.1,4c-0.2,6.1-0.8,15-2,26.2c-1.2,11.3-3.1,24.9-4,40.6c-0.2,3.9-0.4,8-0.4,12.2
	s-0.1,8.5-0.1,12.9c-0.1,8.8-0.4,18.2-0.7,27.9c-0.7,19.4-1.9,40.4-2.8,62.6s-1.6,45.6-0.9,69.8c0.1,3,0.2,6,0.4,9.1
	c0.2,3.1,0.3,6.1,0.5,9.2c0.2,3.1,0.3,6.3,0,9.4c-0.3,3.2-0.9,6.3-1.7,9.4c-0.8,3.1-1.8,6.1-3.2,9.1c-1.4,2.9-3.4,5.8-6.2,7.8
	c-2.7,2.1-5.7,3.4-8.8,4.5c-3.1,1.1-6.2,2-9.3,2.8c-24.6,6.9-50.7,10.4-76.7,9.9c-6.5-0.1-13-0.4-19.5-1s-12.9-1.3-19.3-2.1
	c-12.8-1.6-25.7-3.8-37.8-8.3c-6.1-2.2-11.9-5.1-17.2-8.9c-5.3-3.8-9.7-8.7-12.8-14.5l-1-2.1c-0.4-0.8-0.6-1.5-0.9-2.3
	c-0.5-1.5-1-3.1-1.3-4.6c-0.7-3.1-1-6.3-1.1-9.4c-0.2-6.3,0.4-12.4,0.8-18.5c1.7-24.2,2.6-47.6,2.8-69.8c0.1-11.1,0.1-21.9-0.2-32.3
	c-0.3-10.4-1.2-20.5-1.9-30.2s-1.3-19-1.4-27.9c-0.1-8.9,0.3-17.3,1.5-25.2c0.3-2,0.6-3.9,0.9-5.7c0.1-0.9,0.3-1.9,0.4-2.8
	c0.1-0.9,0.2-1.8,0.2-2.7c0.1-3.6-0.2-7.2-0.6-10.5c-1-6.7-2.4-12.8-3.3-18.5c-0.9-5.6-0.7-10.7-0.5-15.1c0.3-4.4,0.7-8.1,0.9-11.1
	c0.3-3,0.4-5.3,0.4-6.9C114.1,19.1,114.1,18.2,114.1,18.2L114.1,18.2z"/>
<path d="M304.6,31.4c0,0-2.1,0.1-6,0.3c-3.9,0.1-9.7,0.4-17,0.6s-16.2,0.5-26.4,0.7c-10.2,0.2-21.7,0.5-34.3,0.7
	c-12.6,0.2-26.2,0.4-40.6,0.6c-14.4,0.3-29.6,0.4-45.3,1.1c-3.9,0.1-7.9,0.3-11.9,0.5l-6,0.3c-2,0.1-4,0.3-6,0.6s-4,0.6-6,1
	s-4,0.9-5.7,1.9c-0.4,0.2-0.8,0.5-1.1,0.9c-0.3,0.3-0.4,0.7-0.3,1.1c0.2,0.8,1,1.5,1.8,2.1c0.2,0.1,0.4,0.3,0.6,0.4
	c0.2,0.1,0.5,0.2,0.7,0.3l0.7,0.2l0.7,0.1c1,0.2,2,0.2,3,0.3c4.1,0.1,8.2-0.3,12.4-0.5h12.5c8.3-0.1,16.7-0.2,25.1-0.8
	c8.4-0.6,16.8-0.9,25.1-1.2c8.3-0.3,16.6-0.6,24.9-1c16.5-0.6,32.7-1,48.4-1.4c15.7-0.4,30.9-0.7,45.3-1c7.2-0.2,14.2-0.4,21-0.6
	c1.7,0,3.4-0.1,5-0.1c0.8,0,1.7-0.1,2.5,0c0.9,0,1.7,0.1,2.5,0.1c3.3,0.2,6.5,0.4,9.6,0.6c3.1,0.1,6.2,0.2,9.2,0.2
	c3-0.1,5.9-0.3,8.6-1c1.3-0.4,2.6-0.9,3.4-1.7c0.4-0.4,0.6-1,0.6-1.5v-0.6l-0.1-0.2c-0.1-0.1-0.2-0.4-0.4-0.6
	c-0.9-0.8-2.2-1.2-3.4-1.6c-1.2-0.4-2.5-0.6-3.8-0.8c-5-0.7-9.8-0.9-14.2-1c-4.4-0.1-8.5,0-12.1,0.1c-7.3,0.2-13.1,0.6-17,0.8
	C306.7,31.3,304.6,31.4,304.6,31.4L304.6,31.4z M304.6,31.2c0,0,2.1-0.1,6-0.4s9.7-0.6,17-0.9c3.7-0.1,7.7-0.2,12.2-0.3
	c4.4,0,9.2,0.1,14.3,0.7c1.3,0.2,2.6,0.4,3.9,0.7c1.3,0.4,2.7,0.7,3.9,1.7c0.3,0.3,0.6,0.6,0.8,1l0.1,0.2c0,0.1,0,0,0.1,0.2v0.1
	l0.1,0.6c0,0.8-0.3,1.7-0.8,2.3c-0.2,0.3-0.6,0.6-0.9,0.8c-0.3,0.2-0.6,0.4-1,0.6c-0.7,0.3-1.4,0.6-2.1,0.8
	c-2.9,0.8-5.8,1.1-8.9,1.2c-3,0.1-6.1,0.1-9.3,0c-3.2-0.1-6.4-0.3-9.6-0.5c-0.8,0-1.6-0.1-2.4-0.1s-1.6,0.1-2.5,0.1
	c-1.7,0.1-3.3,0.1-5,0.2c-6.8,0.3-13.8,0.5-21,0.7c-14.4,0.4-29.6,0.8-45.3,1.1c-15.7,0.3-31.9,0.6-48.4,1
	c-8.2,0.2-16.6,0.4-24.9,0.6s-16.7,0.4-25.1,0.9c-8.4,0.4-16.8,0.5-25.1,0.5h-12.5c-4.1,0.2-8.3,0.5-12.4,0.4c-1,0-2.1-0.1-3.1-0.3
	l-0.8-0.1l-0.8-0.2c-0.3-0.1-0.5-0.2-0.7-0.3c-0.3-0.1-0.5-0.3-0.7-0.4c-0.8-0.6-1.8-1.3-2.1-2.5c-0.1-0.6,0.1-1.3,0.5-1.7
	c0.4-0.4,0.8-0.8,1.3-1c1.9-1,3.9-1.5,5.9-2s4-0.8,6-1c2-0.3,4-0.5,6-0.6s4-0.3,6-0.4c4-0.3,7.9-0.5,11.9-0.7
	c15.7-0.8,30.9-1.4,45.3-1.7c3.6-0.1,7.2-0.1,10.7-0.2s6.9-0.1,10.3-0.1c6.8,0,13.3-0.1,19.6-0.1h34.3c10.2-0.1,19.1-0.1,26.4-0.2
	s13.1-0.3,17-0.4C302.5,31.3,304.6,31.2,304.6,31.2L304.6,31.2z M182.4,67.2c7.6,0.3,15.2,0.9,22.8,1.2c3.8,0.2,7.6,0.2,11.4,0.1
	s7.6-0.3,11.4-0.5l22.9-1c7.6-0.3,15.2-0.6,22.9-0.8l11.4-0.3c3.8-0.1,7.6-0.1,11.4-0.2c7.6-0.1,15.3-0.1,22.9,0l22.9,0.2
	c3.8,0,7.6,0.2,11.4-0.1c1.9-0.1,3.7-0.4,5.4-1.2c0.8-0.4,1.5-1,2-1.7s0.7-1.6,0.7-2.5v0.2c-0.4-1.2-1.6-1.8-2.9-2s-2.7-0.1-4.1,0
	c-2.7,0.2-5.5,0.6-8.3,0.8c-5.6,0.3-11.1,0-16.7-0.3c-5.5-0.3-11.1-0.7-16.6-0.7c-2.8,0-5.5,0.1-8.3,0.2l-8.3,0.3
	c-11.1,0.3-22.2,0.5-33.3,0.6l-16.6,0.1c-5.5,0-11.1-0.1-16.7-0.2c-11.1-0.2-22.2-0.6-33.3-1c-5.5-0.2-11.1-0.3-16.6-0.4
	s-11.1-0.1-16.6-0.1S152.5,58,147,58.2c-5.5,0.2-11.1,0.3-16.6,0.5c-5.5,0.1-11.1,0.2-16.6,0.4c-2.8,0.1-5.5,0.2-8.3,0.5
	c-1.4,0.1-2.7,0.3-4,0.5c-0.7,0.1-1.3,0.3-1.9,0.4c-0.3,0.1-0.6,0.2-0.8,0.3c-0.1,0.1-0.2,0.1-0.2,0.1v-0.1v0.3
	c-0.3,0.9-0.3,1.9,0,2.8v-0.1c0.2,0.4,0.9,0.8,1.6,1.1c0.8,0.3,1.6,0.5,2.4,0.7c1.7,0.3,3.4,0.6,5.2,0.7c3.5,0.3,7.1,0.5,10.6,0.7
	l10.6,0.5c1.8,0.1,3.5,0.1,5.3,0.1h5.3c7.1-0.1,14.2-0.3,21.3-0.5c3.6-0.1,7.1-0.2,10.7-0.2h5.3L182.4,67.2L182.4,67.2z M182.4,67.4
	l-5.3-0.1h-5.3c-3.6,0.1-7.1,0.2-10.6,0.3c-7.1,0.3-14.2,0.7-21.3,0.9c-1.8,0-3.6,0.1-5.3,0.1h-5.3l-10.7-0.2
	c-3.6-0.1-7.1-0.2-10.7-0.4c-1.8-0.1-3.6-0.3-5.4-0.6c-0.9-0.2-1.8-0.4-2.7-0.7c-0.5-0.2-0.9-0.4-1.4-0.7c-0.4-0.3-0.9-0.7-1.2-1.3
	v-0.2c-0.3-1.2-0.4-2.5,0-3.7v0.3c0-0.4,0.2-0.8,0.4-1s0.4-0.4,0.6-0.5c0.4-0.2,0.8-0.4,1.1-0.5c0.7-0.2,1.4-0.4,2.1-0.5
	c1.4-0.3,2.8-0.4,4.2-0.6c2.8-0.3,5.6-0.4,8.3-0.6c5.6-0.3,11.1-0.4,16.6-0.5c5.5-0.1,11.1-0.3,16.6-0.5c5.6-0.2,11.1-0.3,16.7-0.4
	c5.6,0,11.1,0,16.7,0.2c5.6,0.1,11.1,0.3,16.6,0.5l33.2,1.2c5.5,0.2,11.1,0.3,16.6,0.4l16.6,0.1c11.1,0,22.2,0,33.3-0.1l8.3-0.2
	c2.8-0.1,5.5-0.2,8.3-0.2c5.6,0,11.1,0.4,16.6,0.8c5.5,0.3,11.1,0.6,16.6,0.2c2.8-0.2,5.5-0.6,8.3-0.8c1.4-0.1,2.8-0.2,4.2,0
	c0.4,0.1,0.7,0.2,1.1,0.2c0.3,0.2,0.7,0.2,1,0.5c0.7,0.4,1.2,1.1,1.5,1.8v0.2c-0.1,1-0.3,2-0.8,2.9c-0.6,0.9-1.4,1.6-2.3,2
	c-1.8,0.9-3.8,1.2-5.7,1.4c-1.9,0.2-3.8,0.2-5.8,0.2h-5.7l-22.9,0.2c-7.6,0-15.2,0-22.9,0.2L273.7,68l-22.9,0.4l-22.9,0.5
	c-3.8,0.1-7.6,0.2-11.4,0.2s-7.6-0.1-11.4-0.3C197.6,68.4,190,67.8,182.4,67.4L182.4,67.4z M124.6,79c0,0,0.8,0.3,2.2,0.7
	c1.5,0.5,3.6,1.1,6.4,1.8c1.4,0.3,2.9,0.7,4.6,1c1.7,0.4,3.5,0.6,5.5,0.9c3.9,0.5,8.4,1,13.3,1.2s10.2,0.3,15.8,0.2
	c5.6-0.1,11.5-0.4,17.7-0.7c6.1-0.3,12.5-0.6,18.9-0.9s13-0.6,19.5-0.9c6.6-0.3,13.1-0.5,19.6-0.8c6.4-0.3,12.8-0.5,18.9-0.7
	c12.3-0.4,23.8-0.7,33.6-1c9.8-0.3,18-0.3,23.8-0.5c2.9-0.1,5.1-0.2,6.7-0.3c1.5-0.1,2.4-0.2,2.4-0.2s-0.8,0.1-2.3,0.3
	c-1.5,0.2-3.8,0.5-6.6,0.7c-5.7,0.5-13.9,1.1-23.7,1.6c-9.8,0.6-21.3,1.3-33.6,1.9c-6.1,0.3-12.5,0.7-18.9,0.9
	c-6.4,0.3-13,0.6-19.5,0.9c-6.6,0.3-13.1,0.5-19.6,0.8c-6.5,0.2-12.8,0.5-18.9,0.7c-6.2,0.2-12.1,0.3-17.8,0.3
	c-5.7,0-11-0.3-15.9-0.7c-4.9-0.4-9.4-1.1-13.4-1.8c-2-0.4-3.8-0.8-5.5-1.2c-1.7-0.4-3.2-0.9-4.6-1.3s-2.6-0.8-3.7-1.2
	c-1.1-0.3-1.9-0.7-2.6-1C125.4,79.3,124.6,79,124.6,79L124.6,79z M174.9,190.4c0,0,1,1.4,2.2,3.5c0.6,1.1,1.3,2.3,2,3.7
	c0.3,0.7,0.7,1.4,1.1,2.1c0.3,0.7,0.7,1.5,1,2.2c0.3,0.8,0.7,1.5,1,2.2s0.6,1.5,0.9,2.2c0.6,1.4,1.1,2.8,1.5,4c0.8,2.3,1.2,4,1.2,4
	s-1-1.4-2.2-3.5c-0.6-1.1-1.3-2.3-2-3.7c-0.3-0.7-0.7-1.4-1.1-2.1c-0.3-0.7-0.7-1.5-1-2.2c-0.3-0.8-0.7-1.5-1-2.2s-0.6-1.5-0.9-2.2
	c-0.6-1.4-1.1-2.8-1.5-4C175.3,192.1,174.9,190.4,174.9,190.4z M282.5,223.1c0,0,0.9,1.3,2.1,3.3c0.6,1,1.3,2.2,1.9,3.5
	c0.7,1.3,1.4,2.7,2,4.1l1.8,4.2c0.5,1.3,1,2.6,1.4,3.7c0.7,2.2,1.1,3.7,1.1,3.7s-0.9-1.3-2.1-3.3c-0.6-1-1.3-2.2-1.9-3.5
	c-0.7-1.3-1.4-2.7-2-4.1l-1.8-4.2c-0.5-1.3-1-2.6-1.4-3.7C282.8,224.6,282.5,223.1,282.5,223.1z M115.3,101.8c0,0,0.2-0.1,0.6-0.2
	c0.4-0.1,1-0.3,1.8-0.5c1.6-0.4,3.9-0.8,6.9-1s6.7,0,10.8,0.4c4.1,0.4,8.8,0.8,13.9,1.2c2.5,0.2,5.2,0.4,7.9,0.6
	c1.4,0.1,2.8,0.2,4.2,0.4c1.4,0.1,2.9,0.2,4.3,0.3c1.5,0.1,2.9,0.3,4.4,0.4s3,0.3,4.5,0.4c3.1,0.3,6.2,0.5,9.4,0.8
	c6.4,0.5,13,0.9,19.7,1c6.7,0.2,13.5,0,20.3-0.1c6.8-0.2,13.6-0.4,20.3-0.6c6.7-0.2,13.3-0.4,19.7-0.7c3.2-0.1,6.3-0.2,9.4-0.3
	c3.1-0.1,6.1-0.2,9-0.3c5.9-0.2,11.4-0.3,16.5-0.4s9.8-0.2,14-0.3c4.2-0.1,7.8-0.1,10.8-0.1h9.4v0.3l-2.4,0.3
	c-1.6,0.1-3.9,0.4-6.9,0.6c-3,0.3-6.6,0.5-10.7,0.9s-8.8,0.7-13.9,1s-10.6,0.6-16.5,0.9s-12,0.5-18.4,0.6c-3.2,0.1-6.4,0.1-9.7,0.1
	c-3.3,0-6.6,0.1-10,0.1s-6.7-0.1-10.1-0.1l-10.2-0.3l-10.2-0.3c-3.4-0.1-6.8-0.2-10.1-0.3c-3.4-0.1-6.7-0.1-10-0.2s-6.5,0-9.7-0.1
	c-6.4-0.1-12.6-0.2-18.4-0.6c-5.9-0.3-11.4-1-16.5-1.4c-5.1-0.6-9.7-1.2-13.9-1.8c-2.1-0.3-4-0.6-5.7-0.8c-1.8-0.2-3.4-0.3-4.9-0.4
	c-2.9-0.1-5.3,0.1-6.8,0.3c-0.8,0.1-1.4,0.2-1.8,0.3c-0.4,0.1-0.6,0.1-0.6,0.1L115.3,101.8L115.3,101.8z"/>
</svg>
