<svg id="Layer_1" xmlns="http://www.w3.org/2000/svg" viewBox="0 0 460 366"><style>.st0{fill:url(#SVGID_1_)}.st1{fill:none;stroke:#000;stroke-width:5;stroke-miterlimit:10}</style><linearGradient id="SVGID_1_" gradientUnits="userSpaceOnUse" x1="119.353" y1="-284.436" x2="337.9" y2="-284.436" gradientTransform="translate(0 507)"><stop offset="0" stop-color="#cc0035"/><stop offset=".998" stop-color="#ff3f55"/></linearGradient><path class="st0" d="M337.9 101.4c-.5.1-1.1.2-1.6.3-71.4 10-143.8-4.6-215.9-3.3-.3.2-.6.4-.9.5-.3 9.1.3 18.3.9 27.3 1.1 17 1.9 34 2.2 51 .7 34.1-.2 68.1-2.6 102.1-.8 10.5-1.6 21.5 2.5 31.2 11.5 27.6 54.5 31.9 80.5 34.7 21.9 2.3 44.1 2.2 65.9-.7 10.9-1.5 21.7-3.6 32.3-6.4 7.7-2.1 18.9-4.3 24.3-10.7 2.9-3.5 4.6-7.8 5.8-12.2 1-3.6 1.8-7.2 2.1-10.9.3-3.8.1-7.7-.2-11.6-2.1-35.4-.4-70.9 1.4-106.2.9-17.7 1.9-35.4 2.5-53.1.5-10.6-.1-21.3.8-32z"/><path d="M135.5 177.6s.3.8.7 2.3c.5 1.4 1.1 3.5 1.9 6s1.7 5.4 2.7 8.4c.5 1.5 1 3.1 1.6 4.7.5 1.6 1.1 3.2 1.7 4.9.5 1.6 1.1 3.3 1.7 4.9.6 1.6 1.2 3.2 1.7 4.7.6 1.5 1.1 3 1.7 4.4.5 1.4 1.1 2.7 1.5 3.9 2 4.8 3.3 8 3.3 8s-.5-.7-1.3-2-1.9-3.2-3.1-5.5l-1.9-3.8c-.6-1.4-1.3-2.8-1.9-4.3s-1.3-3.1-1.9-4.7c-.6-1.6-1.2-3.2-1.8-4.9-.6-1.6-1.1-3.3-1.6-4.9-.5-1.6-1-3.3-1.4-4.8-.4-1.6-.8-3.1-1.2-4.6-.4-1.4-.7-2.8-.9-4.1-.3-1.3-.5-2.5-.7-3.5s-.3-2-.5-2.7l-.3-2.4zm24 37.8s.4-2 1.2-4.9c.4-1.4.9-3.1 1.5-4.9l.9-2.7c.3-.9.7-1.9 1-2.8.4-.9.7-1.9 1.1-2.8l1.2-2.7c.8-1.7 1.7-3.3 2.5-4.5.8-1.3 1.6-2.3 2.3-2.9l.7-.7c.2-.2.3-.2.3-.2s-.3.4-.7 1.2c-.4.8-1 1.9-1.6 3.2-.3.7-.6 1.4-.9 2.2s-.6 1.6-1 2.5c-.6 1.7-1.3 3.6-2 5.4-.4.9-.7 1.9-1.1 2.8-.3.9-.7 1.8-1.1 2.7-.7 1.7-1.4 3.3-2 4.7-1.3 2.6-2.3 4.4-2.3 4.4zm-.5 17.3s1.1 1.5 2.5 3.9c.7 1.2 1.5 2.6 2.4 4.1.4.8.8 1.5 1.2 2.4.4.8.8 1.6 1.2 2.5.4.8.8 1.7 1.2 2.5.4.8.7 1.6 1.1 2.4.7 1.6 1.3 3.1 1.8 4.4 1 2.6 1.5 4.4 1.5 4.4s-1.1-1.5-2.5-3.9c-.7-1.2-1.5-2.6-2.4-4.1-.4-.8-.8-1.5-1.2-2.4-.4-.8-.8-1.6-1.2-2.5-.4-.8-.8-1.7-1.2-2.5-.4-.8-.7-1.6-1.1-2.4-.7-1.6-1.3-3.1-1.8-4.4-1-2.6-1.5-4.4-1.5-4.4zm17.3 18.1s.3-1.9 1.2-4.7c.4-1.4.9-3 1.5-4.7.3-.9.6-1.7 1-2.6.4-.9.7-1.8 1.1-2.7s.8-1.8 1.2-2.6c.4-.9.8-1.7 1.3-2.5.8-1.6 1.7-3.1 2.5-4.4 1.5-2.5 2.7-4 2.7-4s-.2.5-.4 1.3c-.3.8-.7 1.9-1.3 3.3-.5 1.4-1.2 2.9-1.9 4.6-.4.8-.7 1.7-1.1 2.6-.4.9-.8 1.8-1.1 2.6-.8 1.8-1.6 3.5-2.3 5.2-.7 1.7-1.5 3.2-2.1 4.5s-1.2 2.4-1.6 3.2c-.5.5-.7.9-.7.9zm-36.5-5.2s.1-.3.3-.8c.2-.5.5-1.2.8-2 .4-.8.8-1.8 1.3-2.8.2-.5.5-1 .7-1.5.3-.5.5-1 .8-1.6.5-1 1.1-2.1 1.6-3.1s1.1-1.9 1.5-2.6c.9-1.5 1.7-2.5 1.7-2.5s-.1 1.2-.6 3c-.2.9-.6 1.9-1 2.9-.2.5-.4 1.1-.7 1.6-.2.5-.5 1.1-.8 1.6-.6 1.1-1.2 2.1-1.8 3-.3.5-.6.9-.9 1.3l-.9 1.2c-1.1 1.5-2 2.3-2 2.3zM126.6 225l.2-.2c.2-.1.5-.3 1-.2.4.1.9.5 1.3.9s.8 1 1.1 1.6.7 1.3 1 2 .6 1.5.9 2.3c.3.8.6 1.6.9 2.5.3.8.6 1.7.8 2.6.3.9.5 1.7.8 2.6.3.8.5 1.7.7 2.5.4 1.6.8 3.2 1.1 4.5.6 2.7.8 4.5.8 4.5s-.9-1.6-1.9-4.1c-.5-1.3-1.1-2.7-1.7-4.3-.3-.8-.6-1.6-.9-2.5-.3-.8-.6-1.7-.8-2.6-.3-.9-.5-1.7-.8-2.6-.3-.8-.5-1.7-.7-2.5l-.6-2.4c-.2-.7-.4-1.4-.6-2-.4-1.2-.9-2.3-1.5-2.6-.3-.2-.6-.1-.8-.1-.2.1-.3.1-.3.1zm-.3 55.1s.3-1.4 1-3.5c.3-1 .8-2.2 1.3-3.4s1-2.6 1.6-3.9c.6-1.3 1.2-2.6 1.8-3.8s1.2-2.3 1.7-3.2c1-1.9 1.9-3.1 1.9-3.1s-.2 1.4-.8 3.5c-.3 1-.7 2.2-1.1 3.5-.2.6-.5 1.3-.7 1.9-.3.7-.5 1.3-.8 2-.6 1.3-1.2 2.6-1.8 3.8s-1.2 2.3-1.8 3.2c-1.4 1.8-2.3 3-2.3 3zm14.9-15.8l.7.7c.4.5 1 1.2 1.7 2.1.7.9 1.4 2 2.1 3.2s1.4 2.5 2 3.9 1.1 2.7 1.5 4.1c.4 1.3.8 2.6 1 3.7.5 2.2.6 3.7.6 3.7s-.2-.3-.5-.9l-1.2-2.4c-.5-1-1-2.2-1.6-3.4s-1.1-2.6-1.7-3.9c-1.2-2.7-2.3-5.3-3.2-7.3-.4-1-.8-1.8-1-2.5-.3-.6-.4-1-.4-1zm-1.3 55.6s0-.4.1-1.2c0-.8.1-1.8.3-3.1.2-1.3.5-2.8.9-4.4.4-1.6.9-3.3 1.5-4.9.6-1.6 1.2-3.3 2-4.7.7-1.5 1.5-2.8 2.2-3.9.7-1.1 1.4-2 1.8-2.6.5-.6.8-.9.8-.9s-.1.4-.4 1.1c-.3.7-.7 1.7-1.1 2.9-.5 1.2-1 2.6-1.6 4.1-.3.7-.5 1.5-.9 2.3l-.9 2.4-.9 2.4c-.3.8-.5 1.6-.8 2.3-.5 1.5-1 2.9-1.4 4.2-.4 1.2-.8 2.2-1.1 3l-.5 1zm18-31.9s.1-.4.4-1.1c.3-.7.7-1.7 1.2-2.9s1.1-2.5 1.8-4c.3-.7.7-1.5 1-2.2.4-.8.7-1.5 1.1-2.3s.7-1.5 1.1-2.3.7-1.5 1.1-2.2c.7-1.4 1.4-2.8 2-3.9.6-1.1 1.1-2.1 1.5-2.7.4-.7.6-1 .6-1s-.3 1.7-1.1 4.2c-.4 1.2-.9 2.7-1.5 4.2-.3.7-.6 1.5-1 2.3s-.7 1.6-1.1 2.3c-.4.8-.8 1.5-1.2 2.3-.4.8-.8 1.5-1.2 2.2-.4.7-.8 1.4-1.2 2-.4.6-.8 1.2-1.1 1.7-1.2 2.1-2.4 3.4-2.4 3.4zm-1.6 8.8s1.1 1.9 2.4 4.8c.7 1.5 1.5 3.2 2.2 5.1.4.9.8 1.9 1.2 2.9l1.2 3c.4 1 .7 2 1.1 3s.7 2 1 2.9c.6 1.9 1.2 3.7 1.7 5.3.9 3.1 1.4 5.2 1.4 5.2s-1.1-1.9-2.4-4.8c-.7-1.5-1.5-3.2-2.2-5.1-.4-.9-.8-1.9-1.2-2.9l-1.2-3c-.4-1-.7-2-1.1-3s-.7-2-1-2.9c-.6-1.9-1.2-3.7-1.7-5.3-1-3.1-1.4-5.2-1.4-5.2zm20.2-30.5s.3.5.8 1.3c.5.9 1.3 2.1 2.1 3.5.9 1.5 1.9 3.2 2.9 5 .5.9 1.1 1.9 1.7 2.8.6 1 1.1 1.9 1.7 2.9s1.1 2 1.7 2.9c.6 1 1.1 1.9 1.7 2.8 1.1 1.8 2.1 3.5 3 5s1.6 2.7 2.1 3.5c.5.9.8 1.4.8 1.4l-1.1-1.1c-.7-.7-1.7-1.8-2.7-3.1-.6-.7-1.1-1.4-1.7-2.2s-1.2-1.6-1.8-2.5c-.6-.9-1.3-1.8-1.8-2.8-.6-1-1.2-1.9-1.8-2.9-.6-1-1.1-2-1.7-3-.5-1-1-2-1.5-2.9-1-1.9-1.8-3.8-2.4-5.4-.7-1.6-1.2-2.9-1.5-3.9-.3-.7-.5-1.3-.5-1.3zm17.2-37.3v-.4c0-.1.2-.4.4-.4.3 0 .5.1.7.3s.4.4.6.7l.6.9c.4.6.8 1.3 1.3 2.1.9 1.5 2 3.3 3.1 5.3.5 1 1.1 2 1.7 3s1.1 2.1 1.7 3.1c.5 1.1 1.1 2.1 1.6 3.2.5 1 1 2.1 1.5 3.1 1 2 1.9 3.9 2.6 5.6 1.5 3.3 2.3 5.6 2.3 5.6s-1.4-2-3.3-5c-1-1.5-2-3.3-3.1-5.3-.5-1-1.1-2-1.7-3s-1.1-2.1-1.7-3.1c-.5-1.1-1.1-2.1-1.6-3.2-.5-1-1-2.1-1.5-3.1-1-2-1.9-3.9-2.6-5.6-.4-.8-.7-1.6-1-2.3-.1-.3-.3-.7-.4-.9-.1-.3-.2-.5-.4-.7-.1-.2-.3-.3-.5-.4-.1 0-.3.1-.3.2v.3zm4.5 64.1s.2-.4.5-1.1c.3-.7.8-1.6 1.3-2.7.6-1.1 1.2-2.4 1.9-3.8s1.5-2.9 2.2-4.4c.8-1.5 1.5-3 2.3-4.3.7-1.4 1.4-2.7 2-3.8s1.1-2 1.5-2.7c.4-.6.6-1 .6-1s-.3 1.7-1.1 4.1c-.4 1.2-.9 2.6-1.5 4.1-.3.7-.6 1.5-1 2.2-.4.8-.7 1.5-1.1 2.3-.8 1.5-1.6 3-2.5 4.3-.4.7-.9 1.3-1.3 1.9-.4.6-.8 1.2-1.2 1.7-1.3 2.1-2.6 3.2-2.6 3.2zm-.1 16.8s1.2 1.6 2.8 4.2c.8 1.3 1.7 2.8 2.7 4.5.5.8 1 1.7 1.4 2.6.5.9.9 1.8 1.4 2.7s.9 1.8 1.4 2.7.9 1.8 1.3 2.6c.8 1.7 1.5 3.3 2.1 4.7 1.2 2.8 1.8 4.8 1.8 4.8s-1.2-1.6-2.8-4.2c-.8-1.3-1.7-2.8-2.7-4.5-.5-.8-1-1.7-1.4-2.6-.5-.9-.9-1.8-1.4-2.7s-.9-1.8-1.4-2.7-.9-1.8-1.3-2.6c-.8-1.7-1.5-3.3-2.1-4.7-1.1-2.9-1.8-4.8-1.8-4.8zm17.9 23.7s.1-.5.4-1.4c.1-.4.3-1 .5-1.6s.4-1.3.7-2c.5-1.4 1.2-3.1 2-4.9.8-1.8 1.8-3.6 2.8-5.3 1.1-1.8 2.2-3.5 3.4-5 .6-.8 1.2-1.5 1.7-2.2.6-.7 1.1-1.3 1.7-1.9 1.1-1.1 2-2 2.7-2.6s1.1-.9 1.1-.9-1.2 1.7-2.9 4.2c-.8 1.3-1.8 2.7-2.8 4.3-.5.8-1 1.6-1.5 2.5-.5.8-1 1.7-1.5 2.6-.5.9-1 1.7-1.5 2.6-.5.9-1 1.7-1.4 2.5-.9 1.7-1.8 3.2-2.5 4.5-.8 1.3-1.4 2.4-1.8 3.2-.9.9-1.1 1.4-1.1 1.4zm1.3-62.9s-.2-.1-.2.1 0 .4.1.8c.1.3.2.8.5 1 .3.3.7.8 1.1 1.2.8.9 1.7 2 2.7 3.2.5.6 1 1.2 1.4 1.9.5.6 1 1.3 1.4 1.9.5.7.9 1.3 1.4 2 .5.6.9 1.3 1.3 2 .8 1.3 1.6 2.5 2.2 3.6 1.2 2.1 1.9 3.6 1.9 3.6s-1.2-1.1-2.8-3c-.8-.9-1.7-2-2.7-3.2-.5-.6-1-1.2-1.4-1.9-.5-.6-1-1.3-1.4-1.9-.5-.7-.9-1.3-1.4-2s-.9-1.3-1.3-2c-.8-1.3-1.6-2.5-2.2-3.6-.3-.5-.6-1-.8-1.5-.3-.6-.2-1-.2-1.4s.1-.7.2-.9c0 0 .1 0 .2.1zm21.2 36.8s.4.3 1 .7c.6.5 1.5 1.2 2.5 2.2.5.5 1 1 1.5 1.6s1.1 1.2 1.6 1.9c1.1 1.3 2.1 2.8 3.1 4.3s1.9 3.1 2.6 4.6c.8 1.5 1.4 3 1.9 4.2.5 1.3.8 2.3 1 3.1l.3 1.2s-.3-.4-.7-1c-.4-.7-1-1.6-1.7-2.8-.7-1.1-1.5-2.5-2.4-3.9-.4-.7-.9-1.4-1.3-2.2-.5-.7-.9-1.5-1.4-2.2-.5-.8-.9-1.5-1.4-2.2s-.9-1.4-1.4-2.1c-.9-1.4-1.8-2.6-2.6-3.7s-1.4-2-1.9-2.6c-.4-.7-.7-1.1-.7-1.1zm23 25.5s.1-.4.3-1.1c.2-.7.5-1.7.9-2.9s1-2.5 1.7-4c.7-1.4 1.5-2.9 2.4-4.3.9-1.4 1.8-2.8 2.8-4s2-2.3 2.9-3.2 1.7-1.6 2.3-2c.6-.4.9-.7.9-.7s-.2.4-.6 1-1 1.5-1.7 2.5-1.5 2.2-2.3 3.5c-.4.6-.8 1.3-1.3 2-.4.7-.9 1.4-1.3 2.1-.4.7-.9 1.4-1.3 2.1-.4.7-.8 1.4-1.2 2-.8 1.3-1.5 2.6-2.2 3.6-.6 1.1-1.2 1.9-1.6 2.6-.5.5-.7.8-.7.8zm-22.6-41.2h.3c.2 0 .5 0 .8-.2.6-.4 1.3-1.3 1.9-2.4.6-1.2 1.2-2.6 2-4.1.4-.8.8-1.5 1.2-2.3.4-.8.9-1.6 1.3-2.4.4-.8.9-1.6 1.3-2.3.4-.8.9-1.5 1.3-2.2.9-1.5 1.7-2.8 2.5-3.9 1.5-2.3 2.7-3.7 2.7-3.7s-.6 1.7-1.7 4.2c-.5 1.2-1.2 2.7-2 4.2-.4.8-.8 1.5-1.2 2.3-.4.8-.9 1.6-1.3 2.4-.4.8-.9 1.6-1.3 2.3-.4.8-.9 1.5-1.3 2.2s-.9 1.4-1.3 2.1c-.4.7-.9 1.3-1.3 1.8-.9 1.1-1.8 1.9-2.7 2.2-.4.1-.8 0-1 0-.1-.2-.2-.2-.2-.2zm-42.2-76.7s.8-2.1 2.2-5.2c.7-1.5 1.5-3.3 2.5-5.2.5-.9.9-1.9 1.5-2.9.5-1 1-2 1.6-3 .5-1 1.1-2 1.6-2.9.5-1 1.1-1.9 1.6-2.8 1.1-1.8 2.1-3.5 3-4.9 1.8-2.8 3.2-4.7 3.2-4.7s-.8 2.1-2.2 5.2c-.7 1.5-1.5 3.3-2.5 5.2-.5.9-.9 1.9-1.5 2.9-.5 1-1 2-1.6 3-.5 1-1.1 2-1.6 2.9-.5 1-1.1 1.9-1.6 2.8-1.1 1.8-2.1 3.5-3 4.9-1.8 2.9-3.2 4.7-3.2 4.7zm1.6-73.3s1.2 2 2.8 5.2c.8 1.6 1.7 3.4 2.6 5.4.5 1 1 2 1.4 3.1.5 1 1 2.1 1.4 3.2.5 1.1.9 2.1 1.4 3.2.5 1 .9 2.1 1.3 3.1.8 2 1.6 3.9 2.2 5.6 1.3 3.3 2 5.5 2 5.5s-1.3-2-3-5.1c-.9-1.5-1.8-3.4-2.8-5.3l-1.5-3c-.5-1-1-2.1-1.5-3.2s-.9-2.2-1.4-3.2c-.5-1.1-.9-2.1-1.3-3.1-.8-2-1.5-4-2.1-5.6-.9-3.5-1.5-5.8-1.5-5.8zm-21 36.3s.2-.5.6-1.3 1-2 1.7-3.3c.7-1.4 1.6-3 2.5-4.7.5-.8.9-1.7 1.4-2.6l1.5-2.7c1-1.8 2-3.6 3-5.3 1-1.7 1.9-3.2 2.7-4.6.8-1.3 1.5-2.4 2-3.2.5-.8.8-1.2.8-1.2s-.6 2-1.8 4.9c-.6 1.4-1.3 3.1-2.2 4.9-.4.9-.9 1.8-1.4 2.7l-1.5 2.7c-.5.9-1.1 1.8-1.6 2.7-.5.9-1.1 1.7-1.6 2.5-1.1 1.6-2.1 3.1-3.1 4.4-1.6 2.6-3 4.1-3 4.1zm42.4-3.7s.3-1.5 1-3.6c.3-1.1.8-2.3 1.3-3.6.3-.6.5-1.3.8-2s.6-1.3.9-2c.7-1.3 1.4-2.7 2.1-3.9.7-1.2 1.4-2.3 2.1-3.2 1.3-1.8 2.3-3 2.3-3s-.5 1.5-1.3 3.5c-.4 1-.9 2.2-1.5 3.5-.3.6-.6 1.3-.9 1.9-.3.7-.6 1.3-1 2-.7 1.3-1.3 2.6-2 3.9-.6 1.2-1.3 2.4-1.8 3.3-1.1 1.9-2 3.2-2 3.2zm20.3 39.5s.4-2 1.3-4.8c.4-1.4 1-3.1 1.7-4.8.4-.9.7-1.8 1.1-2.7l1.2-2.7c.4-.9.9-1.8 1.3-2.7s.9-1.7 1.3-2.6c.9-1.7 1.8-3.2 2.5-4.5 1.6-2.6 2.8-4.2 2.8-4.2s-.6 1.9-1.8 4.7c-.6 1.4-1.2 3-2 4.7-.4.8-.7 1.7-1.2 2.6l-1.2 2.7c-.8 1.8-1.7 3.6-2.5 5.3s-1.6 3.2-2.3 4.6c-1.2 2.7-2.2 4.4-2.2 4.4zm-21.6-21.4l.6 1.2c.3.8.8 1.9 1.4 3.2s1.2 2.8 1.9 4.4c.3.8.7 1.6 1.1 2.5.4.8.8 1.7 1.2 2.5.4.9.8 1.7 1.2 2.5.4.8.8 1.7 1.2 2.4.8 1.6 1.6 3 2.2 4.3 1.4 2.5 2.3 4.2 2.3 4.2s-.4-.3-.9-.9c-.6-.6-1.4-1.5-2.3-2.6-.4-.6-.9-1.2-1.4-1.9s-1-1.4-1.4-2.2c-.9-1.5-1.8-3.2-2.7-5-.8-1.8-1.5-3.5-2.1-5.2s-1-3.3-1.4-4.7c-.2-.7-.3-1.3-.4-1.9-.1-.6-.2-1.1-.3-1.5-.1-.8-.2-1.3-.2-1.3zm2 64s.3-1.7 1-4.1c.3-1.2.8-2.6 1.4-4.1.3-.7.6-1.5.9-2.3s.7-1.5 1-2.3c.7-1.5 1.5-3 2.3-4.4.4-.7.8-1.3 1.2-2 .4-.6.8-1.2 1.1-1.7 1.5-2.1 2.6-3.3 2.6-3.3s-.1.4-.4 1.1c-.3.7-.7 1.7-1.2 2.8-.5 1.2-1.1 2.5-1.8 3.9-.3.7-.7 1.5-1 2.2s-.7 1.5-1.1 2.3c-.7 1.5-1.4 3-2.1 4.4s-1.3 2.7-1.9 3.8-1.1 2-1.4 2.7c-.4.6-.6 1-.6 1zm18.7-21.9s.4.3 1 .8c.3.3.7.6 1.1 1.1.4.4.8 1 1.2 1.5.4.6.9 1.2 1.3 2 .4.7.8 1.5 1.2 2.3.4.8.8 1.6 1.2 2.5.4.9.7 1.7 1.1 2.6.3.9.7 1.7 1 2.6.3.9.7 1.7 1 2.5s.6 1.6.9 2.3l.9 2.1c.3.6.6 1.2.8 1.7.1.2.3.5.4.7.1.1.1.2.2.2h.1c.1-.1.1-.2.2-.4v-.4c0-.3-.2-.1-.2-.1l.1-.1c.1-.1.2 0 .2.1.1.1.1.2.1.4s.1.4-.1.7c-.1.1-.4.2-.5.1-.2-.1-.3-.2-.4-.2l-.6-.6c-.4-.4-.8-1-1.2-1.6-.4-.6-.8-1.2-1.2-2-.4-.7-.8-1.5-1.2-2.3-.4-.8-.8-1.6-1.1-2.5-.4-.9-.7-1.7-1.1-2.6-.7-1.7-1.4-3.5-2-5.1-.3-.8-.6-1.6-1-2.3-.3-.7-.6-1.4-.9-2s-.6-1.2-.9-1.7-.5-.9-.8-1.2c-.6-.7-.8-1.1-.8-1.1zm21.2 20.2s.2-.5.7-1.3c.4-.8 1.1-2 1.9-3.4s1.7-3 2.7-4.8c.5-.9 1-1.8 1.6-2.7.5-.9 1.1-1.8 1.6-2.7 1.1-1.8 2.2-3.7 3.3-5.4 1-1.7 2-3.3 2.9-4.7s1.6-2.5 2.2-3.3c.5-.8.9-1.2.9-1.2s-.7 2.1-2 5c-.6 1.5-1.5 3.2-2.4 5-.5.9-.9 1.8-1.5 2.7-.5.9-1.1 1.9-1.6 2.8-.6.9-1.1 1.8-1.7 2.7s-1.2 1.8-1.7 2.6c-1.1 1.7-2.3 3.2-3.3 4.5-2.1 2.7-3.6 4.2-3.6 4.2zm2 22.5l.6.9c.4.6.9 1.4 1.6 2.4.6 1 1.4 2.2 2.2 3.4.4.6.8 1.3 1.2 1.9.4.6.9 1.3 1.3 1.9.4.7.9 1.3 1.3 1.9.5.6.9 1.3 1.3 1.8.4.6.9 1.2 1.3 1.7l1.2 1.5c.4.4.7.9 1 1.3.3.4.6.7.8 1 .5.5.7.9.7.9l-1-.5c-.6-.4-1.5-.9-2.4-1.7-.5-.4-1-.8-1.5-1.3s-1-1-1.5-1.6l-1.5-1.8c-.5-.6-1-1.3-1.4-2-.9-1.4-1.7-2.7-2.4-4.1-.7-1.3-1.3-2.6-1.7-3.8-.4-1.1-.7-2.1-.9-2.8-.1-.6-.2-1-.2-1zm19.7 10.8s.4-2 1.2-5c.4-1.5 1-3.2 1.6-5 .3-.9.6-1.8 1-2.8.4-.9.8-1.9 1.1-2.8.4-.9.8-1.9 1.2-2.8.4-.9.9-1.8 1.3-2.7.9-1.7 1.7-3.3 2.5-4.6 1.5-2.6 2.8-4.3 2.8-4.3s-.2.5-.4 1.3c-.3.8-.7 2-1.3 3.5-.5 1.4-1.2 3.1-1.9 4.8-.4.9-.7 1.8-1.1 2.7s-.8 1.8-1.2 2.8c-.8 1.9-1.6 3.7-2.4 5.4s-1.5 3.3-2.2 4.7c-1.2 3-2.2 4.8-2.2 4.8zm-1.1 27.6s1.3 1.2 3 3.2c.4.5.9 1 1.3 1.6.5.6 1 1.2 1.4 1.9.5.7 1 1.3 1.4 2.1.5.7.9 1.5 1.4 2.2.4.8.9 1.5 1.3 2.2s.8 1.5 1.2 2.2c.7 1.5 1.4 2.8 1.9 4 1 2.4 1.5 4.1 1.5 4.1s-.3-.3-.7-1c-.4-.6-1.1-1.5-1.8-2.6s-1.6-2.3-2.4-3.7c-.4-.7-.9-1.4-1.3-2.1-.4-.7-.9-1.5-1.4-2.2-.4-.7-.9-1.5-1.3-2.2-.5-.7-.9-1.4-1.3-2.1-.8-1.4-1.6-2.7-2.2-3.8s-1.2-2.1-1.5-2.8c-.4-.6-.5-1-.5-1zm20.7 12.7s.5-1.8 1.4-4.4c.5-1.3 1-2.8 1.7-4.4.3-.8.7-1.6 1-2.4.4-.8.7-1.7 1.1-2.5s.8-1.7 1.2-2.5l1.2-2.4c.8-1.5 1.6-2.9 2.3-4.1 1.4-2.4 2.5-3.9 2.5-3.9s-.5 1.8-1.4 4.4c-.5 1.3-1 2.8-1.7 4.4-.3.8-.7 1.6-1 2.4-.4.8-.7 1.7-1.1 2.5s-.8 1.7-1.2 2.5l-1.2 2.4c-.8 1.5-1.6 2.9-2.3 4.1-1.4 2.4-2.5 3.9-2.5 3.9zm-2.5-64.3s1.1 1.5 2.5 3.8c.7 1.2 1.5 2.5 2.3 4 .4.7.8 1.5 1.2 2.3l1.2 2.4 1.2 2.4c.4.8.7 1.6 1.1 2.4.7 1.5 1.3 3 1.8 4.3.3.6.5 1.2.7 1.7s.3 1 .5 1.3c.1.1 0 .1 0 .1v-.4c0-.3-.1 0-.1 0v-.1s.1-.1.1 0l.1.1c.1.1.1.2.1.4v.2s-.1.1-.1.2c-.2.1-.4 0-.5-.1-.4-.3-.6-.8-.9-1.2-.3-.5-.6-1-1-1.6-.7-1.2-1.5-2.5-2.3-4-.4-.7-.8-1.5-1.2-2.3l-1.2-2.4-1.2-2.4c-.4-.8-.7-1.6-1.1-2.4-.7-1.5-1.3-3-1.8-4.3-.9-2.7-1.4-4.4-1.4-4.4zm-.6-19.6s.5-1.8 1.3-4.5c.4-1.3.9-2.9 1.5-4.5.3-.8.6-1.7.9-2.5.3-.9.6-1.7.9-2.6.3-.9.6-1.7 1-2.6.3-.9.6-1.7 1-2.5.6-1.6 1.2-3.1 1.8-4.4 1.1-2.6 1.9-4.3 1.9-4.3s-.2 1.9-.8 4.6c-.3 1.4-.7 3-1.2 4.6-.3.8-.5 1.7-.8 2.6-.3.9-.6 1.7-.9 2.6-.3.9-.7 1.7-1 2.6-.3.9-.7 1.7-1 2.5-.7 1.6-1.4 3.1-2.1 4.3-1.4 2.5-2.5 4.1-2.5 4.1zm13.5-24.6s1 1.6 2.1 4.2c.6 1.3 1.3 2.8 1.9 4.4.3.8.7 1.6 1 2.5s.7 1.7 1 2.6c.3.9.6 1.8.9 2.6.3.9.6 1.7.8 2.5.5 1.7 1 3.2 1.3 4.6.7 2.7 1.1 4.6 1.1 4.6s-1-1.6-2.1-4.2c-.6-1.3-1.3-2.8-1.9-4.4-.3-.8-.7-1.6-1-2.5s-.7-1.7-1-2.6c-.3-.9-.6-1.8-.9-2.6-.3-.9-.6-1.7-.8-2.5-.5-1.7-1-3.2-1.3-4.6-.7-2.7-1.1-4.6-1.1-4.6zm2.6 59.7s-.1-1.4.1-3.4c.1-1 .3-2.2.5-3.4s.5-2.5.8-3.8.7-2.6 1.1-3.7c.4-1.2.8-2.3 1.2-3.2.8-1.8 1.5-3 1.5-3s-.1 1.4-.4 3.3c-.2 1-.4 2.1-.6 3.3-.3 1.2-.6 2.5-.9 3.8s-.7 2.5-1.1 3.7-.7 2.3-1.1 3.2c-.5 2-1.1 3.2-1.1 3.2zm-2.1-83s.1-1.8.6-4.6c.2-1.4.5-2.9.8-4.6.2-.8.3-1.7.6-2.6.2-.9.4-1.8.6-2.6.2-.9.5-1.8.7-2.6.2-.9.5-1.7.7-2.5.5-1.6 1-3.2 1.4-4.4.9-2.6 1.7-4.3 1.7-4.3s-.1 1.8-.6 4.6c-.2 1.4-.5 2.9-.8 4.6-.2.8-.3 1.7-.6 2.6-.2.9-.4 1.8-.6 2.6-.2.9-.5 1.8-.7 2.6-.2.9-.5 1.7-.7 2.5-.5 1.6-1 3.2-1.4 4.4-1 2.7-1.7 4.3-1.7 4.3zm-29.8 10.1s.1-.5.4-1.3.7-2 1.2-3.4 1.1-3 1.8-4.7c.7-1.7 1.4-3.6 2.1-5.4.4-.9.7-1.8 1.1-2.7.3-.9.7-1.8 1.1-2.6.7-1.7 1.3-3.3 1.9-4.7s1.1-2.5 1.5-3.3l.6-1.2s-.2 2-1 4.9c-.3 1.5-.8 3.1-1.4 4.9l-.9 2.7c-.3.9-.7 1.8-1 2.8-.4.9-.8 1.8-1.1 2.7-.4.9-.8 1.8-1.2 2.6l-1.2 2.4c-.4.8-.8 1.5-1.1 2.1-1.6 2.6-2.8 4.2-2.8 4.2zm16.2-27.1s.3.2.7.7c.4.4 1 1.1 1.6 1.9.6.8 1.3 1.9 1.9 3s1.2 2.4 1.7 3.7.9 2.6 1.2 3.9c.3 1.3.5 2.4.7 3.5.3 2.1.2 3.5.2 3.5s-.2-.3-.4-.9c-.2-.6-.6-1.3-.9-2.3-.7-1.9-1.7-4.4-2.7-6.9-.2-.6-.5-1.2-.7-1.9-.3-.6-.5-1.2-.7-1.8-.5-1.2-.9-2.3-1.3-3.2s-.7-1.7-1-2.3l-.3-.9zm-37.8 3s1.2 1.3 2.6 3.5c.4.5.8 1.1 1.1 1.8.4.6.8 1.3 1.2 2.1.4.7.8 1.5 1.2 2.2.4.8.8 1.6 1.1 2.4.3.8.7 1.6 1 2.4l.9 2.4c.6 1.5 1 3 1.4 4.3.7 2.5 1 4.3 1 4.3s-.2-.4-.6-1.1c-.4-.7-.9-1.6-1.4-2.8-.6-1.2-1.2-2.5-1.9-4-.3-.7-.7-1.5-1.1-2.3s-.7-1.6-1.1-2.3c-.7-1.6-1.4-3.2-2.1-4.6-.7-1.5-1.3-2.9-1.8-4.1-.5-1.2-.9-2.2-1.2-2.9-.2-.9-.3-1.3-.3-1.3zm22.6-43.4s1.1 1.6 2.5 4.1c.7 1.2 1.5 2.7 2.3 4.3.4.8.8 1.6 1.2 2.5.4.9.8 1.7 1.1 2.6.4.9.7 1.8 1.1 2.6.4.9.7 1.7 1 2.6.6 1.7 1.1 3.3 1.5 4.6.8 2.7 1.2 4.6 1.2 4.6s-1-1.6-2.3-4.2c-.6-1.3-1.4-2.8-2.1-4.4-.4-.8-.8-1.6-1.1-2.5-.4-.9-.7-1.7-1.1-2.6s-.7-1.7-1.1-2.6-.7-1.7-1-2.5c-.6-1.7-1.2-3.2-1.7-4.6-1-2.7-1.5-4.5-1.5-4.5zm18.9 23.3s.5-2.2 1.4-5.3c.5-1.6 1-3.4 1.7-5.3.3-1 .7-2 1-3 .4-1 .8-2 1.1-3l1.2-3c.4-1 .8-2 1.2-2.9.8-1.9 1.6-3.6 2.3-5.1 1.4-3 2.5-4.9 2.5-4.9s-.5 2.2-1.4 5.3c-.5 1.6-1 3.4-1.7 5.3-.3 1-.7 2-1 3-.4 1-.8 2-1.1 3l-1.2 3c-.4 1-.8 2-1.2 2.9-.8 1.9-1.6 3.6-2.3 5.1-1.4 3-2.5 4.9-2.5 4.9zm-164 4.7l.6-1.2c.4-.7.9-1.8 1.5-3s1.4-2.7 2.2-4.2c.8-1.5 1.7-3.2 2.6-4.8.9-1.6 1.8-3.2 2.6-4.8.8-1.5 1.6-2.9 2.3-4.1.7-1.2 1.3-2.2 1.7-2.9.4-.7.7-1.1.7-1.1s-.4 1.8-1.4 4.5c-.5 1.3-1.1 2.8-1.8 4.4-.4.8-.7 1.6-1.1 2.4s-.8 1.7-1.3 2.5-.9 1.6-1.4 2.4-1 1.6-1.4 2.3c-.5.7-1 1.4-1.4 2.1-.5.7-.9 1.3-1.3 1.8-1.8 2.4-3.1 3.7-3.1 3.7zm-7-3l-.9-1.2c-.5-.8-1.3-1.8-2.1-3.2-.4-.7-.8-1.4-1.3-2.2-.4-.8-.9-1.6-1.3-2.5-.4-.9-.9-1.8-1.3-2.7-.4-1-.8-1.9-1.3-2.9-.4-1-.8-2-1.1-2.9-.4-1-.7-1.9-1-2.9-.6-1.9-1.1-3.6-1.5-5.2-.4-1.5-.7-2.8-.8-3.7-.2-.9-.2-1.4-.2-1.4s.2.5.6 1.3c.4.8.9 2 1.6 3.5.6 1.4 1.3 3.1 2.1 4.9s1.6 3.7 2.4 5.7c1.6 3.9 3.2 7.7 4.4 10.6.6 1.5 1.1 2.7 1.4 3.5.1.8.3 1.3.3 1.3zm-5.3 35.4s0-1.5.2-3.8c.1-1.1.3-2.4.5-3.8s.5-2.8.9-4.3c.4-1.4.8-2.9 1.2-4.2s.9-2.6 1.3-3.6c.9-2.1 1.6-3.4 1.6-3.4s-.1 1.5-.5 3.7c-.2 1.1-.4 2.4-.7 3.7-.3 1.4-.6 2.8-1 4.2s-.8 2.9-1.1 4.2c-.4 1.3-.8 2.6-1.1 3.6-.6 2.3-1.3 3.7-1.3 3.7zm-7.8 52.7s.7 1 1.4 2.7c.4.8.8 1.8 1.2 2.8s.8 2.2 1.1 3.3.7 2.3.9 3.4c.3 1.1.5 2.1.6 3 .3 1.8.3 3 .3 3s-.7-1-1.4-2.7c-.4-.8-.8-1.8-1.2-2.8s-.8-2.2-1.1-3.3-.6-2.3-.9-3.4c-.3-1.1-.5-2.1-.6-3-.3-1.8-.3-3-.3-3zm55.5 72.1s.2-.4.4-1c.3-.6.7-1.5 1.2-2.5 1-2 2.3-4.7 3.7-7.4.7-1.3 1.3-2.7 2-4 .6-1.3 1.2-2.4 1.8-3.5.5-1 1-1.8 1.3-2.4.3-.6.5-.9.5-.9s-.2 1.5-.8 3.8c-.3 1.1-.7 2.4-1.2 3.7s-1.1 2.8-1.8 4.1c-.7 1.4-1.4 2.7-2.2 3.9-.4.6-.8 1.2-1.2 1.7-.4.5-.8 1-1.1 1.5-.7.9-1.4 1.6-1.8 2.1-.5.6-.8.9-.8.9zm-46.3-39.5s.2.4.4 1.2c.3.7.6 1.8 1 3.1s.8 2.7 1.3 4.3 1 3.3 1.4 5c.5 1.7 1 3.4 1.4 5s.9 3.1 1.2 4.4c.3 1.3.6 2.4.8 3.1l.3 1.2s-1-1.5-2.2-3.9c-.3-.6-.6-1.3-.9-2-.3-.7-.6-1.4-.9-2.2l-.9-2.4c-.3-.8-.5-1.7-.8-2.5-.2-.9-.5-1.7-.7-2.6-.2-.8-.4-1.7-.6-2.5-.3-1.6-.6-3.2-.7-4.5-.2-2.9-.1-4.7-.1-4.7zm32.4-139.8c.8 1 1.6 2 2.3 3 .7 1 1.5 2 2.2 3.1.7 1 1.4 2.1 2.1 3.1s1.3 2.1 2 3.2 1.3 2.2 1.9 3.2l1.8 3.3c1.2 2.2 2.3 4.5 3.3 6.8l-.4.2c-.1-.5-.2-1.1-.3-1.6.2.5.5 1 .7 1.5l.8 1.8-1.2-1.6c-1.5-2-3-4.1-4.4-6.1-.7-1.1-1.4-2.1-2-3.2s-1.3-2.1-1.9-3.2-1.3-2.2-1.9-3.3l-1.8-3.3c-.6-1.1-1.1-2.2-1.7-3.4-.5-1.2-1-2.3-1.5-3.5zm82.2 11.1s1.4.9 3.2 2.5c.9.8 2 1.8 3.1 2.9.5.6 1.1 1.1 1.6 1.7s1.1 1.2 1.6 1.8c.5.6 1 1.3 1.5 1.9s.9 1.3 1.4 1.9c.9 1.3 1.6 2.5 2.2 3.5 1.2 2.1 1.8 3.7 1.8 3.7l-.8-.8c-.5-.5-1.2-1.3-2-2.2-.8-.9-1.7-2-2.7-3.1l-1.5-1.8-1.5-1.8c-1-1.2-2-2.5-3-3.7s-1.8-2.3-2.6-3.2c-.7-1-1.3-1.8-1.8-2.4-.3-.5-.5-.9-.5-.9zm20 9.3s.3-1.5 1.1-3.8c.4-1.1.9-2.4 1.4-3.7.6-1.3 1.2-2.7 2-4.1.4-.7.7-1.4 1.1-2 .4-.7.8-1.3 1.2-1.9.8-1.2 1.5-2.4 2.2-3.3 1.4-1.9 2.5-3 2.5-3s-.5 1.5-1.5 3.6c-.5 1.1-1 2.3-1.7 3.6-.6 1.3-1.3 2.7-2 4-.7 1.4-1.4 2.7-2.1 4s-1.4 2.4-2 3.4c-1.3 1.9-2.2 3.2-2.2 3.2z"/><path class="st1" d="M350 32.6c-.5-7.6 7.8-19.3-6.3-21.4-13.1-1.9-192.9-1.2-211.7-.9-17.4.3-24.8 1.6-27.4 9.6-1 2.2-1.3 4.9-1.2 7.9v2.4h.2c.6 5.1 2 10.4 2.2 13.6.7 9.8 1.2 19.6 1 29.4-5.3 1.3-7.9 8.6-4.7 13 1 1.4 2.4 2.4 3.3 3.9.9 1.6 1 3.5 1.1 5.4.8 14.8 1.4 29.6 1.7 44.4.6 27.9-3 56.1-1.7 83.9 1.4 29.3.9 58.8 1.3 88.1.1 3.4.1 6.9 1.2 10.1 1.2 3.8 3.7 7 6.4 9.9 19.5 20.9 49.8 27.6 78.3 30 14.3 1.2 28.7 1.5 43 .6 13.8-.9 27.5-3 41.2-5.1 12.1-1.9 24.3-3.8 35.7-8.3 11.7-4.7 19.8-9.6 21.4-22.7 4-31.5 2.7-63.2 4.3-94.8 1.2-24.3 1.4-48.7 2.7-73 1.3-24.1.4-48.1 2.9-72.2.1-1.2.3-2.5 1.2-3.3.9-.9 2.3-1 3.4-1.6 3-1.8 2.5-6.3 1-9.5-5-11.6.3-26.9-.5-39.4z"/><path d="M114.1 18.2v2.4c0 1.6-.1 3.9-.3 6.9s-.5 6.8-.7 11.1c-.2 4.4-.3 9.4.7 15 .9 5.6 2.5 11.6 3.5 18.4.5 3.4.9 7 .8 10.7 0 .9-.1 1.9-.2 2.8-.1.9-.3 1.9-.4 2.8l-.9 5.7c-1 7.8-1.3 16.2-1.1 25s.8 18.1 1.6 27.7c.8 9.7 1.7 19.7 2.2 30.2.4 10.5.5 21.3.4 32.4 0 22.3-.7 45.7-2.4 70-.4 6.1-.9 12.1-.7 18.2.2 6 1.3 12 4.1 17.4 2.7 5.2 7 9.9 11.9 13.5 5 3.6 10.6 6.3 16.5 8.5 11.8 4.3 24.5 6.4 37.2 8 6.4.8 12.8 1.5 19.2 2 6.4.5 12.8.8 19.3.9 25.8.5 51.5-2.8 76-9.7 3.1-.8 6.1-1.6 9-2.7 2.9-1.1 5.7-2.3 8-4.1.6-.4 1.1-.9 1.7-1.4.5-.5 1-1 1.4-1.7.9-1.1 1.7-2.4 2.3-3.8 1.3-2.7 2.3-5.6 3-8.6.8-3 1.4-5.9 1.6-8.9.3-3 .2-6 0-9.1s-.3-6.1-.5-9.2c-.1-3.1-.2-6.1-.3-9.2-.7-24.3.2-47.8 1.3-70 1.1-22.2 2.5-43.2 3.3-62.6.4-9.7.7-19 .9-27.8.1-4.4.2-8.7.3-12.9.1-4.2.3-8.3.6-12.2 1.2-15.8 3.2-29.4 4.5-40.6 1.4-11.2 2.1-20.1 2.4-26.1.1-1.5.1-2.9.2-4 0-1.2 0-2.1.1-2.9 0-1.6.1-2.4.1-2.4v5.3c0 1.2-.1 2.5-.1 4-.2 6.1-.8 15-2 26.2-1.2 11.3-3.1 24.9-4 40.6-.2 3.9-.4 8-.4 12.2s-.1 8.5-.1 12.9c-.1 8.8-.4 18.2-.7 27.9-.7 19.4-1.9 40.4-2.8 62.6s-1.6 45.6-.9 69.8c.1 3 .2 6 .4 9.1.2 3.1.3 6.1.5 9.2.2 3.1.3 6.3 0 9.4-.3 3.2-.9 6.3-1.7 9.4-.8 3.1-1.8 6.1-3.2 9.1-1.4 2.9-3.4 5.8-6.2 7.8-2.7 2.1-5.7 3.4-8.8 4.5-3.1 1.1-6.2 2-9.3 2.8-24.6 6.9-50.7 10.4-76.7 9.9-6.5-.1-13-.4-19.5-1s-12.9-1.3-19.3-2.1c-12.8-1.6-25.7-3.8-37.8-8.3-6.1-2.2-11.9-5.1-17.2-8.9-5.3-3.8-9.7-8.7-12.8-14.5l-1-2.1c-.4-.8-.6-1.5-.9-2.3-.5-1.5-1-3.1-1.3-4.6-.7-3.1-1-6.3-1.1-9.4-.2-6.3.4-12.4.8-18.5 1.7-24.2 2.6-47.6 2.8-69.8.1-11.1.1-21.9-.2-32.3-.3-10.4-1.2-20.5-1.9-30.2s-1.3-19-1.4-27.9c-.1-8.9.3-17.3 1.5-25.2.3-2 .6-3.9.9-5.7.1-.9.3-1.9.4-2.8.1-.9.2-1.8.2-2.7.1-3.6-.2-7.2-.6-10.5-1-6.7-2.4-12.8-3.3-18.5-.9-5.6-.7-10.7-.5-15.1.3-4.4.7-8.1.9-11.1.3-3 .4-5.3.4-6.9.3-1.1.3-2 .3-2z"/><path d="M304.6 31.4s-2.1.1-6 .3c-3.9.1-9.7.4-17 .6s-16.2.5-26.4.7c-10.2.2-21.7.5-34.3.7-12.6.2-26.2.4-40.6.6-14.4.3-29.6.4-45.3 1.1-3.9.1-7.9.3-11.9.5l-6 .3c-2 .1-4 .3-6 .6s-4 .6-6 1-4 .9-5.7 1.9c-.4.2-.8.5-1.1.9-.3.3-.4.7-.3 1.1.2.8 1 1.5 1.8 2.1.2.1.4.3.6.4.2.1.5.2.7.3l.7.2.7.1c1 .2 2 .2 3 .3 4.1.1 8.2-.3 12.4-.5h12.5c8.3-.1 16.7-.2 25.1-.8 8.4-.6 16.8-.9 25.1-1.2 8.3-.3 16.6-.6 24.9-1 16.5-.6 32.7-1 48.4-1.4 15.7-.4 30.9-.7 45.3-1 7.2-.2 14.2-.4 21-.6 1.7 0 3.4-.1 5-.1.8 0 1.7-.1 2.5 0 .9 0 1.7.1 2.5.1 3.3.2 6.5.4 9.6.6 3.1.1 6.2.2 9.2.2 3-.1 5.9-.3 8.6-1 1.3-.4 2.6-.9 3.4-1.7.4-.4.6-1 .6-1.5v-.6l-.1-.2c-.1-.1-.2-.4-.4-.6-.9-.8-2.2-1.2-3.4-1.6-1.2-.4-2.5-.6-3.8-.8-5-.7-9.8-.9-14.2-1-4.4-.1-8.5 0-12.1.1-7.3.2-13.1.6-17 .8-3.9 0-6 .1-6 .1zm0-.2s2.1-.1 6-.4 9.7-.6 17-.9c3.7-.1 7.7-.2 12.2-.3 4.4 0 9.2.1 14.3.7 1.3.2 2.6.4 3.9.7 1.3.4 2.7.7 3.9 1.7.3.3.6.6.8 1l.1.2c0 .1 0 0 .1.2v.1l.1.6c0 .8-.3 1.7-.8 2.3-.2.3-.6.6-.9.8-.3.2-.6.4-1 .6-.7.3-1.4.6-2.1.8-2.9.8-5.8 1.1-8.9 1.2-3 .1-6.1.1-9.3 0-3.2-.1-6.4-.3-9.6-.5-.8 0-1.6-.1-2.4-.1s-1.6.1-2.5.1c-1.7.1-3.3.1-5 .2-6.8.3-13.8.5-21 .7-14.4.4-29.6.8-45.3 1.1-15.7.3-31.9.6-48.4 1-8.2.2-16.6.4-24.9.6s-16.7.4-25.1.9c-8.4.4-16.8.5-25.1.5h-12.5c-4.1.2-8.3.5-12.4.4-1 0-2.1-.1-3.1-.3l-.8-.1-.8-.2c-.3-.1-.5-.2-.7-.3-.3-.1-.5-.3-.7-.4-.8-.6-1.8-1.3-2.1-2.5-.1-.6.1-1.3.5-1.7.4-.4.8-.8 1.3-1 1.9-1 3.9-1.5 5.9-2s4-.8 6-1c2-.3 4-.5 6-.6s4-.3 6-.4c4-.3 7.9-.5 11.9-.7 15.7-.8 30.9-1.4 45.3-1.7 3.6-.1 7.2-.1 10.7-.2s6.9-.1 10.3-.1c6.8 0 13.3-.1 19.6-.1h34.3c10.2-.1 19.1-.1 26.4-.2s13.1-.3 17-.4c3.7-.2 5.8-.3 5.8-.3zm-122.2 36c7.6.3 15.2.9 22.8 1.2 3.8.2 7.6.2 11.4.1s7.6-.3 11.4-.5l22.9-1c7.6-.3 15.2-.6 22.9-.8l11.4-.3c3.8-.1 7.6-.1 11.4-.2 7.6-.1 15.3-.1 22.9 0l22.9.2c3.8 0 7.6.2 11.4-.1 1.9-.1 3.7-.4 5.4-1.2.8-.4 1.5-1 2-1.7s.7-1.6.7-2.5v.2c-.4-1.2-1.6-1.8-2.9-2s-2.7-.1-4.1 0c-2.7.2-5.5.6-8.3.8-5.6.3-11.1 0-16.7-.3-5.5-.3-11.1-.7-16.6-.7-2.8 0-5.5.1-8.3.2l-8.3.3c-11.1.3-22.2.5-33.3.6l-16.6.1c-5.5 0-11.1-.1-16.7-.2-11.1-.2-22.2-.6-33.3-1-5.5-.2-11.1-.3-16.6-.4s-11.1-.1-16.6-.1-11.1.1-16.6.3c-5.5.2-11.1.3-16.6.5-5.5.1-11.1.2-16.6.4-2.8.1-5.5.2-8.3.5-1.4.1-2.7.3-4 .5-.7.1-1.3.3-1.9.4-.3.1-.6.2-.8.3-.1.1-.2.1-.2.1v-.1.3c-.3.9-.3 1.9 0 2.8v-.1c.2.4.9.8 1.6 1.1.8.3 1.6.5 2.4.7 1.7.3 3.4.6 5.2.7 3.5.3 7.1.5 10.6.7l10.6.5c1.8.1 3.5.1 5.3.1h5.3c7.1-.1 14.2-.3 21.3-.5 3.6-.1 7.1-.2 10.7-.2h5.3l5.5.3zm0 .2l-5.3-.1h-5.3c-3.6.1-7.1.2-10.6.3-7.1.3-14.2.7-21.3.9-1.8 0-3.6.1-5.3.1h-5.3l-10.7-.2c-3.6-.1-7.1-.2-10.7-.4-1.8-.1-3.6-.3-5.4-.6-.9-.2-1.8-.4-2.7-.7-.5-.2-.9-.4-1.4-.7-.4-.3-.9-.7-1.2-1.3v-.2c-.3-1.2-.4-2.5 0-3.7v.3c0-.4.2-.8.4-1s.4-.4.6-.5c.4-.2.8-.4 1.1-.5.7-.2 1.4-.4 2.1-.5 1.4-.3 2.8-.4 4.2-.6 2.8-.3 5.6-.4 8.3-.6 5.6-.3 11.1-.4 16.6-.5 5.5-.1 11.1-.3 16.6-.5 5.6-.2 11.1-.3 16.7-.4 5.6 0 11.1 0 16.7.2 5.6.1 11.1.3 16.6.5l33.2 1.2c5.5.2 11.1.3 16.6.4l16.6.1c11.1 0 22.2 0 33.3-.1l8.3-.2c2.8-.1 5.5-.2 8.3-.2 5.6 0 11.1.4 16.6.8 5.5.3 11.1.6 16.6.2 2.8-.2 5.5-.6 8.3-.8 1.4-.1 2.8-.2 4.2 0 .4.1.7.2 1.1.2.3.2.7.2 1 .5.7.4 1.2 1.1 1.5 1.8v.2c-.1 1-.3 2-.8 2.9-.6.9-1.4 1.6-2.3 2-1.8.9-3.8 1.2-5.7 1.4-1.9.2-3.8.2-5.8.2h-5.7l-22.9.2c-7.6 0-15.2 0-22.9.2l-22.9.3-22.9.4-22.9.5c-3.8.1-7.6.2-11.4.2s-7.6-.1-11.4-.3c-7.5-.4-15.1-1-22.7-1.4zM124.6 79s.8.3 2.2.7c1.5.5 3.6 1.1 6.4 1.8 1.4.3 2.9.7 4.6 1 1.7.4 3.5.6 5.5.9 3.9.5 8.4 1 13.3 1.2s10.2.3 15.8.2c5.6-.1 11.5-.4 17.7-.7 6.1-.3 12.5-.6 18.9-.9s13-.6 19.5-.9c6.6-.3 13.1-.5 19.6-.8 6.4-.3 12.8-.5 18.9-.7 12.3-.4 23.8-.7 33.6-1 9.8-.3 18-.3 23.8-.5 2.9-.1 5.1-.2 6.7-.3 1.5-.1 2.4-.2 2.4-.2s-.8.1-2.3.3c-1.5.2-3.8.5-6.6.7-5.7.5-13.9 1.1-23.7 1.6-9.8.6-21.3 1.3-33.6 1.9-6.1.3-12.5.7-18.9.9-6.4.3-13 .6-19.5.9-6.6.3-13.1.5-19.6.8-6.5.2-12.8.5-18.9.7-6.2.2-12.1.3-17.8.3-5.7 0-11-.3-15.9-.7-4.9-.4-9.4-1.1-13.4-1.8-2-.4-3.8-.8-5.5-1.2-1.7-.4-3.2-.9-4.6-1.3s-2.6-.8-3.7-1.2c-1.1-.3-1.9-.7-2.6-1-1.5-.4-2.3-.7-2.3-.7zm50.3 111.4s1 1.4 2.2 3.5c.6 1.1 1.3 2.3 2 3.7.3.7.7 1.4 1.1 2.1.3.7.7 1.5 1 2.2.3.8.7 1.5 1 2.2s.6 1.5.9 2.2c.6 1.4 1.1 2.8 1.5 4 .8 2.3 1.2 4 1.2 4s-1-1.4-2.2-3.5c-.6-1.1-1.3-2.3-2-3.7-.3-.7-.7-1.4-1.1-2.1-.3-.7-.7-1.5-1-2.2-.3-.8-.7-1.5-1-2.2s-.6-1.5-.9-2.2c-.6-1.4-1.1-2.8-1.5-4-.8-2.3-1.2-4-1.2-4zm107.6 32.7s.9 1.3 2.1 3.3c.6 1 1.3 2.2 1.9 3.5.7 1.3 1.4 2.7 2 4.1l1.8 4.2c.5 1.3 1 2.6 1.4 3.7.7 2.2 1.1 3.7 1.1 3.7s-.9-1.3-2.1-3.3c-.6-1-1.3-2.2-1.9-3.5-.7-1.3-1.4-2.7-2-4.1l-1.8-4.2c-.5-1.3-1-2.6-1.4-3.7-.8-2.2-1.1-3.7-1.1-3.7zM115.3 101.8s.2-.1.6-.2c.4-.1 1-.3 1.8-.5 1.6-.4 3.9-.8 6.9-1s6.7 0 10.8.4c4.1.4 8.8.8 13.9 1.2 2.5.2 5.2.4 7.9.6 1.4.1 2.8.2 4.2.4 1.4.1 2.9.2 4.3.3 1.5.1 2.9.3 4.4.4s3 .3 4.5.4c3.1.3 6.2.5 9.4.8 6.4.5 13 .9 19.7 1 6.7.2 13.5 0 20.3-.1 6.8-.2 13.6-.4 20.3-.6 6.7-.2 13.3-.4 19.7-.7 3.2-.1 6.3-.2 9.4-.3 3.1-.1 6.1-.2 9-.3 5.9-.2 11.4-.3 16.5-.4s9.8-.2 14-.3c4.2-.1 7.8-.1 10.8-.1h9.4v.3l-2.4.3c-1.6.1-3.9.4-6.9.6-3 .3-6.6.5-10.7.9s-8.8.7-13.9 1-10.6.6-16.5.9-12 .5-18.4.6c-3.2.1-6.4.1-9.7.1-3.3 0-6.6.1-10 .1s-6.7-.1-10.1-.1l-10.2-.3-10.2-.3c-3.4-.1-6.8-.2-10.1-.3-3.4-.1-6.7-.1-10-.2s-6.5 0-9.7-.1c-6.4-.1-12.6-.2-18.4-.6-5.9-.3-11.4-1-16.5-1.4-5.1-.6-9.7-1.2-13.9-1.8-2.1-.3-4-.6-5.7-.8-1.8-.2-3.4-.3-4.9-.4-2.9-.1-5.3.1-6.8.3-.8.1-1.4.2-1.8.3-.4.1-.6.1-.6.1l-.4-.2z"/></svg>