<?xml version="1.0" encoding="utf-8"?>
<!-- Generator: Adobe Illustrator 19.2.0, SVG Export Plug-In . SVG Version: 6.00 Build 0)  -->
<svg version="1.1" id="Layer_1" xmlns="http://www.w3.org/2000/svg" xmlns:xlink="http://www.w3.org/1999/xlink" x="0px" y="0px"
	 viewBox="0 0 700 700" style="enable-background:new 0 0 700 700;" xml:space="preserve">
<style type="text/css">
	.st0{fill:none;}
	.st1{fill:none;stroke:#000000;stroke-width:5;stroke-miterlimit:10;}
	.st2{opacity:0.9;fill:url(#SVGID_1_);}
	.st3{fill:url(#SVGID_2_);}
</style>
<rect x="0" y="0" class="st0" width="700" height="700"/>
<path class="st1" d="M6708.6-568.1c0.3,38.5,0.2,82.4-5.7,120.5c-2.3,14.7-3.7,31.7-10.6,44.9c-9.4,17.9-18.6,35.9-34,49.5
	c-5.5,4.9-11.5,9.2-17.9,12.8c-4.2,2.3-15.3,5.1-15.9,10.8c-0.4,3.6,3.8,5.7,6.9,7.6c6.9,4.3,10.9,12.3,11.6,20.4
	c1.5,15.4-5.6,30.7-18.9,38.8c-0.8,0.5-1.6,1-1.9,1.8c-0.7,2.1,2.1,3.4,4.2,3.8c12.1,2.1,24,5,35.7,8.7c7.7,2.4,24.3,10.6,12,18.5
	c-7.7,4.9-17,6.2-26,7.3c-24.7,3.1-49.7,6.2-74.5,3.9c-5.6-0.5-11.2-1.4-16.8-2.2c-7.5-1.1-15-2.2-22.5-3.3
	c-5.3-0.8-11.8-2.7-12.7-7.9c-1.7-10.2,16.6-15.1,23.6-17.2c4.9-1.5,36.5-4.6,35.6-9.3c-0.5-2.4-2.8-3.9-4.8-5.4
	c-8.9-6.4-15-16.4-16.6-27.2c-1.6-10.8,1.3-22.2,7.9-30.9c2.2-2.9,4.9-6,4.4-9.6c-0.2-1.5-1-2.9-2-4.1c-5.1-6.7-15.9-9.5-22.8-14.7
	c-7.9-6-15.2-12.8-21.6-20.4c-12.5-14.5-22.1-31.5-27.6-49.9c-5.2-17.2-6.9-35.3-8.2-53.2c-2.3-31-3.6-62-3.8-93.1
	c20.2-2.4,42-1.8,62.4-1.4C6600.9-567.5,6708.6-570.2,6708.6-568.1z"/>
<g>
	<path d="M6582-253.2c0,0,0,0.2,0,0.5c0,0.3,0,0.8,0,1.4c0,0.6,0.1,1.3,0.6,1.9c0.4,0.6,1.2,0.8,2.2,0.8c2.1-0.1,4.5-0.2,7.1-0.2
		c1.3,0,2.7-0.1,4-0.1c1.4-0.1,2.8-0.1,4.1-0.2c1.4-0.1,2.8-0.1,4.1-0.2c1.4-0.1,2.7-0.1,4-0.2c2.6-0.1,5-0.2,7.1-0.3
		c2-0.1,3.7-0.6,4.6-1.3c0.4-0.4,0.7-0.8,0.8-1.1c0.1-0.3,0.2-0.5,0.2-0.5s0,0.2,0,0.5c-0.1,0.3-0.2,0.8-0.6,1.3
		c-0.4,0.5-1.1,1-1.9,1.4c-0.8,0.4-1.8,0.7-2.8,0.8c-2.1,0.4-4.5,0.7-7.1,0.9c-1.3,0.1-2.7,0.3-4,0.4c-1.4,0.1-2.8,0.2-4.2,0.2
		c-1.4,0-2.8,0.1-4.2,0.1c-1.4,0-2.7,0-4.1,0c-2.6-0.1-5.1-0.2-7.2-0.4c-0.5-0.1-1.1-0.1-1.6-0.4c-0.5-0.3-0.9-0.7-1.1-1.1
		c-0.4-0.9-0.4-1.7-0.3-2.3c0.1-0.6,0.2-1.1,0.3-1.4C6581.9-253,6582-253.2,6582-253.2z"/>
</g>
<g>
	<path d="M6581.6-337.8c0,0,0.6,0.2,1.6,0.5c0.5,0.2,1.2,0.3,1.9,0.5c0.7,0.2,1.6,0.4,2.4,0.5c0.9,0.2,1.9,0.3,2.9,0.5
		c1,0.1,2.1,0.2,3.3,0.3c1.1,0.1,2.3,0.1,3.5,0.2c1.2,0,2.4,0,3.6,0c1.2,0,2.5,0,3.7-0.1c1.2,0,2.4-0.1,3.6-0.1
		c2.3-0.1,4.5-0.1,6.3-0.3c1.8-0.2,3.2-0.6,4.1-1.2c0.4-0.3,0.8-0.6,1-0.8c0.2-0.2,0.3-0.3,0.3-0.3s-0.1,0.1-0.2,0.4
		c-0.2,0.3-0.4,0.6-0.8,1c-0.8,0.8-2.3,1.6-4.2,2c-0.9,0.2-2,0.4-3,0.5c-1.1,0.1-2.2,0.3-3.3,0.4c-1.2,0.1-2.4,0.2-3.6,0.3
		c-1.2,0.1-2.5,0.1-3.7,0.2c-1.3,0-2.5,0-3.7-0.1c-0.6,0-1.2-0.1-1.8-0.1c-0.6-0.1-1.2-0.1-1.8-0.2c-1.2-0.1-2.3-0.4-3.4-0.6
		c-0.5-0.1-1-0.3-1.5-0.4c-0.5-0.2-1-0.3-1.4-0.4c-1.8-0.6-3.2-1.3-4.2-1.8C6582.2-337.5,6581.6-337.8,6581.6-337.8z"/>
</g>
<g>
	<path d="M6531.5-235.7c0,0,0.1,0.1,0.3,0.3c0.2,0.2,0.5,0.4,1,0.6c0.9,0.5,2.3,1,4.2,1.4c1.9,0.4,4.2,0.7,6.8,1.1
		c2.6,0.4,5.6,0.7,8.9,1.1c3.3,0.3,6.8,0.7,10.6,1c3.7,0.3,7.7,0.5,11.8,0.7c8.2,0.3,17,0.5,25.7,0.6c4.4,0.1,8.8,0.1,13.1,0.2
		c4.3,0,8.5,0.1,12.6,0c4.1-0.1,8-0.4,11.7-0.8c3.7-0.5,7.2-1.1,10.4-1.7c6.4-1.4,11.6-3,15.2-4.3c1.8-0.7,3.2-1.2,4.2-1.6
		c1-0.4,1.5-0.6,1.5-0.6s-0.5,0.2-1.4,0.7c-0.9,0.4-2.3,1.1-4.1,1.8c-3.5,1.5-8.7,3.5-15.1,5.1c-6.4,1.6-14.1,2.9-22.3,3.2
		c-4.1,0.2-8.4,0.2-12.7,0.2c-4.3,0-8.7-0.1-13.1-0.1c-4.4-0.1-8.8-0.2-13.1-0.3c-4.3-0.1-8.6-0.4-12.7-0.6c-4.1-0.3-8.1-0.6-11.8-1
		c-3.8-0.4-7.3-0.8-10.6-1.3c-1.6-0.3-3.2-0.5-4.7-0.7c-1.5-0.3-2.9-0.5-4.2-0.8c-2.6-0.5-4.9-1-6.8-1.5c-1.9-0.5-3.3-1.1-4.1-1.7
		c-0.4-0.3-0.7-0.5-0.9-0.7C6531.6-235.6,6531.5-235.7,6531.5-235.7z"/>
</g>
<linearGradient id="SVGID_1_" gradientUnits="userSpaceOnUse" x1="6498.813" y1="-446.2358" x2="6704.6909" y2="-446.2358">
	<stop  offset="1.785714e-02" style="stop-color:#801FE3"/>
	<stop  offset="1" style="stop-color:#B7A7FF"/>
</linearGradient>
<path class="st2" d="M6498.8-539.9c1.4,24.4,2.7,48.8,4.1,73.2c0.4,7.9,0.9,15.9,2.2,23.7c1.8,11.1,5.4,21.8,8.9,32.5
	c3,9.1,6,18.2,11.1,26.3c17.8,28.1,51.5,32.7,81.9,31.3c10.6-0.5,21.3-1.5,31.5-4.7c66.9-21.3,65.2-117,66.1-172.7
	c0-2.6,0.1-5.1,0.1-7.7C6636-535.8,6567.2-534,6498.8-539.9z"/>
<g>
	<path d="M6493.7-559.6c0,0,0.6,8.1,1.5,22.2c0.5,7.1,1,15.6,1.7,25.5c0.6,9.8,1.4,20.9,2.1,33.1c0.4,6.1,0.7,12.4,1.3,18.9
		c0.5,6.5,1.4,13.2,3,19.9c1.6,6.7,3.7,13.5,6,20.4c2.4,6.9,4.5,14,7.5,20.9c0.8,1.7,1.5,3.4,2.4,5.1c0.9,1.6,1.8,3.3,2.8,4.8
		c1.1,1.6,2.2,3.1,3.4,4.7c1.2,1.4,2.5,2.8,3.7,4.3c5.3,5.5,11.7,10,18.8,13.2c7.1,3.3,14.8,5.4,22.6,6.6c7.9,1.3,15.9,1.7,23.9,1.7
		c8-0.1,16.1-0.4,24-1.5c3.9-0.5,7.9-1.2,11.7-2.2c1-0.3,1.9-0.5,2.8-0.8l0.7-0.2c0.1,0,0,0,0.1,0l0.2-0.1l0.4-0.1l1.4-0.5l2.8-1
		c0.5-0.2,0.9-0.3,1.4-0.5l1.3-0.6c7.1-3.1,13.7-7.4,19.4-12.5c5.7-5.1,10.5-11.1,14.4-17.5c4-6.3,7.1-13.1,9.7-19.8
		c2.6-6.8,4.6-13.6,6.3-20.3c3.2-13.5,5-26.5,6.2-38.5c1.1-12.1,1.7-23.2,2-33c0.3-9.9,0.5-18.4,0.7-25.5
		c0.2-14.2,0.4-22.2,0.4-22.2s0,2,0.1,5.8c0,3.8,0.1,9.4,0.2,16.4c0,7.1,0,15.7-0.2,25.5c-0.1,9.9-0.5,21-1.5,33.1
		c-1,12.1-2.6,25.2-5.7,38.9c-1.6,6.8-3.6,13.7-6.1,20.6c-2.5,6.9-5.7,13.8-9.8,20.3c-4,6.5-9,12.7-14.8,18.1
		c-5.9,5.4-12.7,9.8-20.2,13.1l-1.4,0.6c-0.5,0.2-0.9,0.4-1.4,0.5l-2.8,1l-1.4,0.5l-0.4,0.1l-0.2,0.1l-0.2,0.1l-0.7,0.2
		c-1,0.3-2,0.6-2.9,0.8c-3.9,1-8,1.8-12,2.4c-8.1,1.1-16.2,1.5-24.4,1.6c-8.2,0-16.3-0.5-24.4-1.8c-8-1.3-16-3.5-23.3-7
		c-7.4-3.4-14.1-8.1-19.6-13.9c-1.3-1.5-2.6-3.1-3.9-4.6c-1.1-1.6-2.2-3.2-3.3-4.7c-2.2-3.4-3.9-6.8-5.4-10.4
		c-3-7.1-5.2-14.2-7.5-21.2c-2.2-7-4.3-13.9-5.8-20.7c-1.6-6.9-2.4-13.6-2.8-20.2c-0.5-6.6-0.7-12.9-1-18.9
		c-0.6-12.1-1.1-23.2-1.6-33.1c-0.5-9.9-0.8-18.4-1.2-25.5C6494-551.6,6493.7-559.6,6493.7-559.6z"/>
</g>
<g>
	<path d="M6494.1-544.2c0,0,0.8,0,2.4,0.1c1.6,0.1,3.8,0.2,6.7,0.3c2.9,0.2,6.4,0.3,10.5,0.5c4,0.2,8.6,0.3,13.6,0.5
		c5,0.2,10.4,0.3,16.1,0.5c5.7,0.2,11.7,0.2,17.9,0.4c6.2,0.1,12.6,0.1,19.2,0.2c6.5,0.1,13.2,0,19.8,0.1c6.6,0,13.3,0,19.8-0.1
		c6.5-0.1,13-0.1,19.2-0.2c12.5-0.1,24.1-0.2,34-0.3c10-0.1,18.3-0.1,24.1-0.1c2.9,0,5.2,0,6.7,0c1.6,0,2.4,0,2.4,0
		s-0.8,0.1-2.4,0.2c-1.6,0.1-3.8,0.2-6.7,0.4c-5.8,0.3-14.1,0.8-24.1,1.3c-10,0.5-21.6,0.9-34,1.3c-6.2,0.1-12.7,0.4-19.2,0.4
		c-6.5,0.1-13.2,0.1-19.8,0.2c-6.6,0-13.3,0-19.8-0.2c-6.5-0.1-13-0.3-19.2-0.4c-6.2-0.2-12.3-0.4-18-0.8c-2.9-0.2-5.6-0.3-8.3-0.5
		c-2.7-0.2-5.3-0.4-7.8-0.5c-2.5-0.2-4.9-0.3-7.1-0.5c-2.3-0.2-4.4-0.4-6.4-0.6c-4-0.4-7.6-0.7-10.4-1c-2.9-0.3-5.2-0.6-6.7-0.7
		C6494.9-544.1,6494.1-544.2,6494.1-544.2z"/>
</g>
<g>
	<g>
		<path d="M289.5,684.5c0,0,1.9,0.4,5.3,1.1c1.7,0.3,3.7,0.7,6.1,1.2c2.4,0.4,5,0.9,7.9,1.4c5.8,1,12.6,2.1,19.9,3
			c3.6,0.5,7.4,0.9,11.3,1.2c1.9,0.2,3.9,0.3,5.8,0.3c1,0,2,0,2.9,0l2.9-0.1c3.9-0.2,7.8-0.4,11.6-0.8c3.8-0.4,7.6-0.8,11.3-1.3
			c3.6-0.5,7.2-0.9,10.5-1.4c3.3-0.5,6.5-1,9.4-1.5c2.9-0.5,5.6-1,7.9-1.4c2.3-0.5,4.4-0.9,6.1-1.3c1.7-0.4,3-0.7,3.9-0.9
			c0.9-0.2,1.4-0.3,1.4-0.3s-0.5,0.2-1.3,0.4c-0.9,0.3-2.2,0.7-3.8,1.2c-1.7,0.5-3.7,1-6,1.6c-2.3,0.6-5,1.2-7.9,1.8
			c-5.8,1.2-12.6,2.5-19.9,3.6c-3.7,0.5-7.4,1-11.3,1.4c-3.9,0.4-7.8,0.7-11.8,0.9l-3,0.1c-1,0-2,0-2.9,0c-2-0.1-4-0.2-5.9-0.4
			c-3.9-0.3-7.7-0.8-11.3-1.4c-7.3-1.1-14.1-2.4-19.9-3.7c-5.8-1.2-10.5-2.5-13.9-3.3c-1.7-0.4-3-0.8-3.9-1.1
			C289.9,684.6,289.5,684.5,289.5,684.5z"/>
	</g>
	<g>
		<path d="M328.8,666.6c0,0,0.2,0,0.5,0c0.3,0,0.9,0,1.5,0.1c0.6,0.1,1.4,0.2,2.3,0.4c0.9,0.2,1.8,0.5,2.9,0.7
			c1.1,0.2,2.2,0.5,3.4,0.7c1.2,0.2,2.5,0.4,3.8,0.5c0.7,0.1,1.3,0.1,2,0.2c0.7,0,1.4,0.1,2.1,0.1c1.4,0,2.8,0.1,4.3,0
			c1.4,0,2.9-0.1,4.3-0.2c1.4-0.1,2.8-0.2,4.1-0.3c1.3-0.1,2.6-0.3,3.9-0.4c1.2-0.1,2.4-0.3,3.5-0.4c2.2-0.3,4-0.5,5.2-0.6
			c1.3-0.1,2-0.2,2-0.2s-2.8,0.9-7,1.9c-2.1,0.5-4.6,1-7.3,1.4c-1.4,0.2-2.8,0.4-4.2,0.5c-0.7,0.1-1.4,0.1-2.2,0.2
			c-0.7,0.1-1.5,0.1-2.2,0.1c-1.5,0-2.9,0-4.4-0.1c-0.7,0-1.4-0.1-2.2-0.2c-0.7-0.1-1.4-0.2-2.1-0.3c-1.4-0.2-2.7-0.5-3.9-0.8
			c-1.3-0.3-2.3-0.7-3.4-1c-1.1-0.4-2-0.8-2.8-1.1c-0.8-0.3-1.5-0.6-2.1-0.8C329.5,666.7,328.8,666.6,328.8,666.6z"/>
	</g>
	<radialGradient id="SVGID_2_" cx="350.4294" cy="592.5535" r="94.5843" gradientUnits="userSpaceOnUse">
		<stop  offset="0" style="stop-color:#C12E00"/>
		<stop  offset="0.1583" style="stop-color:#B62A01"/>
		<stop  offset="0.4406" style="stop-color:#971E02"/>
		<stop  offset="0.8117" style="stop-color:#660B05"/>
		<stop  offset="1" style="stop-color:#4A0007"/>
	</radialGradient>
	<path class="st3" d="M415.3,323.1c-6.2,38.2-6.5,147.8-0.7,186.1c1.5,10.1,2.9,22.4-2.8,29c-2.9,3.3-10.1,7.6-13.8,8.7
		c-36.1,10.2-62.6,10.3-96.9-6.4c-4.7-2.3-9.8-5.8-11.2-12.4c-0.7-3.6-0.1-7.4,0.4-11.1c6.8-42.6,12-156.8,4.1-199
		C336.6,319.5,373.3,321.6,415.3,323.1z"/>
	<path class="st1" d="M422.8,289.9c-0.3,3.1-3.1,17.3-3.5,26.6c-2.1,45.9-3.1,144.5-0.8,161c3.1,22.9,13.5,49.2-6.4,70
		c-9,9.4-37.2,15.9-44.4,26c-5.4,7.6-6,14-6.7,22.5c-1.2,13.8-0.4,19.2,0,41.1c0.1,4.2,1.5,11.1,3.2,15.4c1,2.3,5.5,6.5,7.7,7.9
		c7.8,5,40.9,16,46.8,17.8c18.9,6-27.7,22.9-68.3,21.9c-33.4-0.8-73.3-11.4-74-14c-2.4-8.7,13.3-9.5,18.1-10.3
		c11-1.8,21.3-6.3,31.1-11.9c3.9-2.2,18.5-16,19.7-61.3c0.3-9.9,0.3-17.8-5.7-26.8c-7.5-11.2-32.8-15.3-43.3-25.3
		c-22.6-21.5-19-52.2-12.1-77c6-21.7,4.9-147.2-0.2-169c-1-4.4-3.9-10.6-4.1-15.2c-0.1-1.3,95.7-0.3,129.9,0.5
		C414.4,289.8,418,290.5,422.8,289.9z"/>
	<g>
		<path d="M287.3,295.6c0,0,0.2,0.6,0.6,1.6c0.4,1.1,0.9,2.7,1.5,4.8c1.3,4.2,2.8,10.5,3.9,18.6c0.3,2,0.6,4.2,0.9,6.4
			c0.3,2.2,0.6,4.6,0.7,7.1c0.2,4.9,0.4,10.3,0.5,16c0.3,11.4,0.4,24.2,0.6,38.2c0.1,14,0.2,29.2,0.1,45.2c0,8-0.1,16.3-0.3,24.7
			c-0.1,4.2-0.2,8.5-0.5,12.8c-0.1,1.1-0.2,2.2-0.3,3.3c-0.2,1.1-0.3,2.1-0.5,3.2c-0.3,2.1-0.6,4.3-0.9,6.5
			c-1.1,8.7-2.2,17.5-2.9,26.4c-0.2,2.2-0.3,4.5-0.4,6.7c-0.1,2.2-0.1,4.5,0.1,6.6c0,0.2,0.1,0.5,0.1,0.7l0.2,0.8
			c0.2,0.5,0.3,0.9,0.5,1.4c0.4,1,0.9,1.9,1.5,2.7c1.2,1.7,2.8,3.1,4.7,4.3c1.8,1.2,3.8,2.1,5.9,3.1c2.1,1,4.2,1.9,6.3,2.8
			c4.2,1.8,8.5,3.4,12.9,4.7c4.4,1.3,8.9,2.4,13.4,3.1c4.5,0.8,9.1,1.1,13.7,1.2c9.2,0.1,18.4-1.2,27.3-3.5c4.5-1.1,8.9-2.5,13.2-4
			c1.1-0.4,2.2-0.8,3.2-1.2c1.1-0.4,2.1-0.8,3.1-1.3c2-0.9,4-2,5.9-3.2c1.9-1.2,3.7-2.5,5.1-4c1.4-1.5,2.3-3.4,2.9-5.5
			c1.2-4.1,1.2-8.6,0.9-13c-0.3-4.4-1.1-8.8-1.6-13.2c-0.5-4.5-1-8.9-1.3-13.2c-1.4-17.5-1.8-34.4-2.1-50.5
			c-0.2-16.1-0.2-31.2,0.1-45.3c0.3-14,0.8-26.9,1.5-38.2c0.7-11.4,1.7-21.3,2.8-29.4c0.6-4,1.2-7.7,1.9-10.8
			c0.7-3.1,1.2-5.7,1.7-7.9c0.9-4.3,1.4-6.6,1.4-6.6s-0.4,2.3-1.1,6.6c-0.4,2.2-0.8,4.8-1.4,7.9c-0.6,3.1-1.2,6.7-1.7,10.7
			c-1,8.1-1.8,18-2.3,29.3c-0.3,5.7-0.5,11.7-0.7,18.1c-0.2,6.4-0.3,13.1-0.4,20.1c-0.2,14-0.1,29.2,0.3,45.2
			c0.4,16,1.1,32.9,2.5,50.3c0.4,4.3,0.8,8.7,1.4,13.1c0.3,2.2,0.6,4.4,0.9,6.6c0.3,2.2,0.6,4.5,0.8,6.8c0.3,4.6,0.4,9.3-0.9,14
			c-0.7,2.3-1.7,4.6-3.4,6.5c-1.7,1.9-3.7,3.2-5.6,4.5c-2,1.3-4.1,2.4-6.2,3.4c-1.1,0.5-2.2,1-3.3,1.4c-1.1,0.4-2.2,0.8-3.3,1.2
			c-4.4,1.6-8.9,3-13.4,4.2c-9.1,2.4-18.5,3.8-28,3.7c-9.5-0.1-18.9-1.8-27.9-4.6c-4.5-1.4-8.9-3-13.2-4.8c-2.1-0.9-4.3-1.9-6.4-2.9
			c-2.1-1-4.3-2-6.3-3.3c-2-1.3-3.9-3-5.4-5c-0.7-1-1.4-2.1-1.8-3.3c-0.2-0.6-0.4-1.2-0.6-1.8l-0.2-0.8c-0.1-0.4-0.1-0.7-0.2-1
			c-0.3-2.5-0.2-4.7-0.1-7c0.1-2.3,0.3-4.6,0.4-6.8c0.8-9,1.9-17.9,3-26.6c0.3-2.2,0.6-4.3,0.9-6.5c0.2-1.1,0.3-2.1,0.5-3.2
			c0.2-1.1,0.3-2,0.3-3.1c0.3-4.2,0.4-8.5,0.5-12.7c0.2-8.4,0.3-16.6,0.5-24.7c0.2-16,0.3-31.2,0.3-45.2c0-14-0.1-26.8-0.2-38.2
			c-0.1-5.7-0.2-11-0.4-15.9c-0.1-2.4-0.3-4.8-0.5-7c-0.2-2.2-0.4-4.4-0.6-6.4c-0.9-8.1-2.2-14.4-3.2-18.6c-0.5-2.1-1-3.7-1.3-4.8
			C287.5,296.2,287.3,295.6,287.3,295.6z"/>
	</g>
	<g>
		<path d="M292.5,315.9c0,0,7.4,0.2,18.5,0.4c5.6,0.1,12,0.2,19,0.4c6.9,0.2,14.4,0.4,21.8,0.6c3.7,0.1,7.4,0.2,11.1,0.3
			c3.6,0.1,7.2,0.2,10.7,0.3c3.5,0.1,6.8,0.3,10,0.5c3.2,0.2,6.2,0.4,9,0.6c11.1,0.8,18.5,1.8,18.5,1.8l0,0.3c0,0-7.4,0.4-18.6,0.3
			c-2.8,0-5.8-0.1-9-0.1c-3.2,0-6.5-0.2-10-0.3c-3.5-0.2-7.1-0.4-10.7-0.6c-3.6-0.2-7.3-0.4-11-0.7c-7.4-0.4-14.8-0.8-21.7-1.2
			c-6.9-0.4-13.4-0.8-19-1.1c-11.1-0.7-18.5-1.1-18.5-1.1L292.5,315.9z"/>
	</g>
</g>
</svg>
