<svg id="Layer_1" xmlns="http://www.w3.org/2000/svg" viewBox="0 0 460 421"><style>.st0{fill:url(#SVGID_1_)}.st1{fill:none;stroke:#000;stroke-width:5;stroke-miterlimit:10}</style><path d="M169.5 402.4s1.9.4 5.3 1.1c1.7.3 3.7.7 6.1 1.2 2.4.4 5 .9 7.9 1.4 5.8 1 12.6 2.1 19.9 3 3.6.5 7.4.9 11.3 1.2 1.9.2 3.9.3 5.8.3h2.9l2.9-.1c3.9-.2 7.8-.4 11.6-.8s7.6-.8 11.3-1.3c3.6-.5 7.2-.9 10.5-1.4s6.5-1 9.4-1.5 5.6-1 7.9-1.4c2.3-.5 4.4-.9 6.1-1.3 1.7-.4 3-.7 3.9-.9s1.4-.3 1.4-.3-.5.2-1.3.4c-.9.3-2.2.7-3.8 1.2-1.7.5-3.7 1-6 1.6s-5 1.2-7.9 1.8c-5.8 1.2-12.6 2.5-19.9 3.6-3.7.5-7.4 1-11.3 1.4s-7.8.7-11.8.9l-3 .1h-2.9c-2-.1-4-.2-5.9-.4-3.9-.3-7.7-.8-11.3-1.4-7.3-1.1-14.1-2.4-19.9-3.7-5.8-1.2-10.5-2.5-13.9-3.3-1.7-.4-3-.8-3.9-1.1-1-.2-1.4-.3-1.4-.3zm39.3-17.9h.5c.3 0 .9 0 1.5.1s1.4.2 2.3.4 1.8.5 2.9.7 2.2.5 3.4.7c1.2.2 2.5.4 3.8.5.7.1 1.3.1 2 .2.7 0 1.4.1 2.1.1 1.4 0 2.8.1 4.3 0 1.4 0 2.9-.1 4.3-.2s2.8-.2 4.1-.3c1.3-.1 2.6-.3 3.9-.4 1.2-.1 2.4-.3 3.5-.4 2.2-.3 4-.5 5.2-.6 1.3-.1 2-.2 2-.2s-2.8.9-7 1.9c-2.1.5-4.6 1-7.3 1.4-1.4.2-2.8.4-4.2.5-.7.1-1.4.1-2.2.2-.7.1-1.5.1-2.2.1-1.5 0-2.9 0-4.4-.1-.7 0-1.4-.1-2.2-.2l-2.1-.3c-1.4-.2-2.7-.5-3.9-.8-1.3-.3-2.3-.7-3.4-1-1.1-.4-2-.8-2.8-1.1s-1.5-.6-2.1-.8c-1.3-.3-2-.4-2-.4z"/><radialGradient id="SVGID_1_" cx="230.429" cy="-196.59" r="94.584" gradientTransform="translate(0 507)" gradientUnits="userSpaceOnUse"><stop offset="0" stop-color="#c12e00"/><stop offset=".158" stop-color="#b62a01"/><stop offset=".441" stop-color="#971e02"/><stop offset=".812" stop-color="#660b05"/><stop offset="1" stop-color="#4a0007"/></radialGradient><path class="st0" d="M295.3 41c-6.2 38.2-6.5 147.8-.7 186.1 1.5 10.1 2.9 22.4-2.8 29-2.9 3.3-10.1 7.6-13.8 8.7-36.1 10.2-62.6 10.3-96.9-6.4-4.7-2.3-9.8-5.8-11.2-12.4-.7-3.6-.1-7.4.4-11.1 6.8-42.6 12-156.8 4.1-199 42.2 1.5 78.9 3.6 120.9 5.1z"/><path class="st1" d="M301.9 7.8c.5 0 .9.4.8.9-.6 4.4-3 17.1-3.4 25.7-2.1 45.9-3.1 144.5-.8 161 3.1 22.9 13.5 49.2-6.4 70-9 9.4-37.2 15.9-44.4 26-5.4 7.6-6 14-6.7 22.5-1.2 13.8-.4 19.2 0 41.1.1 4.2 1.5 11.1 3.2 15.4 1 2.3 5.5 6.5 7.7 7.9 7.8 5 40.9 16 46.8 17.8 18.9 6-27.7 22.9-68.3 21.9-33.4-.8-73.3-11.4-74-14-2.4-8.7 13.3-9.5 18.1-10.3 11-1.8 21.3-6.3 31.1-11.9 3.9-2.2 18.5-16 19.7-61.3.3-9.9.3-17.8-5.7-26.8-7.5-11.2-32.8-15.3-43.3-25.3-22.6-21.5-19-52.2-12.1-77 6-21.7 4.9-147.2-.2-169-1-4.4-3.9-10.6-4.1-15.2-.1-1.2 129.7.4 142 .6z"/><path d="M167.3 13.5s.2.6.6 1.6c.4 1.1.9 2.7 1.5 4.8 1.3 4.2 2.8 10.5 3.9 18.6.3 2 .6 4.2.9 6.4.3 2.2.6 4.6.7 7.1.2 4.9.4 10.3.5 16 .3 11.4.4 24.2.6 38.2.1 14 .2 29.2.1 45.2 0 8-.1 16.3-.3 24.7-.1 4.2-.2 8.5-.5 12.8l-.3 3.3c-.2 1.1-.3 2.1-.5 3.2-.3 2.1-.6 4.3-.9 6.5-1.1 8.7-2.2 17.5-2.9 26.4-.2 2.2-.3 4.5-.4 6.7s-.1 4.5.1 6.6c0 .2.1.5.1.7l.2.8c.2.5.3.9.5 1.4.4 1 .9 1.9 1.5 2.7 1.2 1.7 2.8 3.1 4.7 4.3 1.8 1.2 3.8 2.1 5.9 3.1s4.2 1.9 6.3 2.8c4.2 1.8 8.5 3.4 12.9 4.7s8.9 2.4 13.4 3.1c4.5.8 9.1 1.1 13.7 1.2 9.2.1 18.4-1.2 27.3-3.5 4.5-1.1 8.9-2.5 13.2-4 1.1-.4 2.2-.8 3.2-1.2 1.1-.4 2.1-.8 3.1-1.3 2-.9 4-2 5.9-3.2s3.7-2.5 5.1-4 2.3-3.4 2.9-5.5c1.2-4.1 1.2-8.6.9-13-.3-4.4-1.1-8.8-1.6-13.2-.5-4.5-1-8.9-1.3-13.2-1.4-17.5-1.8-34.4-2.1-50.5-.2-16.1-.2-31.2.1-45.3.3-14 .8-26.9 1.5-38.2.7-11.4 1.7-21.3 2.8-29.4.6-4 1.2-7.7 1.9-10.8.7-3.1 1.2-5.7 1.7-7.9.9-4.3 1.4-6.6 1.4-6.6s-.4 2.3-1.1 6.6c-.4 2.2-.8 4.8-1.4 7.9s-1.2 6.7-1.7 10.7c-1 8.1-1.8 18-2.3 29.3-.3 5.7-.5 11.7-.7 18.1s-.3 13.1-.4 20.1c-.2 14-.1 29.2.3 45.2s1.1 32.9 2.5 50.3c.4 4.3.8 8.7 1.4 13.1l.9 6.6c.3 2.2.6 4.5.8 6.8.3 4.6.4 9.3-.9 14-.7 2.3-1.7 4.6-3.4 6.5-1.7 1.9-3.7 3.2-5.6 4.5-2 1.3-4.1 2.4-6.2 3.4-1.1.5-2.2 1-3.3 1.4l-3.3 1.2c-4.4 1.6-8.9 3-13.4 4.2-9.1 2.4-18.5 3.8-28 3.7s-18.9-1.8-27.9-4.6c-4.5-1.4-8.9-3-13.2-4.8-2.1-.9-4.3-1.9-6.4-2.9s-4.3-2-6.3-3.3-3.9-3-5.4-5c-.7-1-1.4-2.1-1.8-3.3l-.6-1.8-.2-.8c-.1-.4-.1-.7-.2-1-.3-2.5-.2-4.7-.1-7s.3-4.6.4-6.8c.8-9 1.9-17.9 3-26.6.3-2.2.6-4.3.9-6.5.2-1.1.3-2.1.5-3.2s.3-2 .3-3.1c.3-4.2.4-8.5.5-12.7.2-8.4.3-16.6.5-24.7.2-16 .3-31.2.3-45.2s-.1-26.8-.2-38.2c-.1-5.7-.2-11-.4-15.9-.1-2.4-.3-4.8-.5-7s-.4-4.4-.6-6.4c-.9-8.1-2.2-14.4-3.2-18.6-.5-2.1-1-3.7-1.3-4.8-.4-.9-.6-1.5-.6-1.5z"/><path d="M172.5 33.8s7.4.2 18.5.4c5.6.1 12 .2 19 .4 6.9.2 14.4.4 21.8.6l11.1.3c3.6.1 7.2.2 10.7.3 3.5.1 6.8.3 10 .5s6.2.4 9 .6c11.1.8 18.5 1.8 18.5 1.8v.3s-7.4.4-18.6.3c-2.8 0-5.8-.1-9-.1s-6.5-.2-10-.3c-3.5-.2-7.1-.4-10.7-.6s-7.3-.4-11-.7c-7.4-.4-14.8-.8-21.7-1.2-6.9-.4-13.4-.8-19-1.1-11.1-.7-18.5-1.1-18.5-1.1l-.1-.4z"/></svg>