<?xml version="1.0" encoding="utf-8"?>
<!-- Generator: Adobe Illustrator 19.2.0, SVG Export Plug-In . SVG Version: 6.00 Build 0)  -->
<svg version="1.1" id="Layer_1" xmlns="http://www.w3.org/2000/svg" xmlns:xlink="http://www.w3.org/1999/xlink" x="0px" y="0px"
	 viewBox="0 0 460 421" style="enable-background:new 0 0 460 421;" xml:space="preserve">
<style type="text/css">
	.st0{fill:url(#SVGID_1_);}
	.st1{fill:none;stroke:#000000;stroke-width:5;stroke-miterlimit:10;}
</style>
<path d="M169.5,402.4c0,0,1.9,0.4,5.3,1.1c1.7,0.3,3.7,0.7,6.1,1.2c2.4,0.4,5,0.9,7.9,1.4c5.8,1,12.6,2.1,19.9,3
	c3.6,0.5,7.4,0.9,11.3,1.2c1.9,0.2,3.9,0.3,5.8,0.3h2.9l2.9-0.1c3.9-0.2,7.8-0.4,11.6-0.8s7.6-0.8,11.3-1.3
	c3.6-0.5,7.2-0.9,10.5-1.4s6.5-1,9.4-1.5s5.6-1,7.9-1.4c2.3-0.5,4.4-0.9,6.1-1.3c1.7-0.4,3-0.7,3.9-0.9s1.4-0.3,1.4-0.3
	s-0.5,0.2-1.3,0.4c-0.9,0.3-2.2,0.7-3.8,1.2c-1.7,0.5-3.7,1-6,1.6s-5,1.2-7.9,1.8c-5.8,1.2-12.6,2.5-19.9,3.6
	c-3.7,0.5-7.4,1-11.3,1.4s-7.8,0.7-11.8,0.9l-3,0.1h-2.9c-2-0.1-4-0.2-5.9-0.4c-3.9-0.3-7.7-0.8-11.3-1.4
	c-7.3-1.1-14.1-2.4-19.9-3.7c-5.8-1.2-10.5-2.5-13.9-3.3c-1.7-0.4-3-0.8-3.9-1.1C169.9,402.5,169.5,402.4,169.5,402.4L169.5,402.4z
	 M208.8,384.5h0.5c0.3,0,0.9,0,1.5,0.1s1.4,0.2,2.3,0.4s1.8,0.5,2.9,0.7s2.2,0.5,3.4,0.7c1.2,0.2,2.5,0.4,3.8,0.5
	c0.7,0.1,1.3,0.1,2,0.2c0.7,0,1.4,0.1,2.1,0.1c1.4,0,2.8,0.1,4.3,0c1.4,0,2.9-0.1,4.3-0.2s2.8-0.2,4.1-0.3c1.3-0.1,2.6-0.3,3.9-0.4
	c1.2-0.1,2.4-0.3,3.5-0.4c2.2-0.3,4-0.5,5.2-0.6c1.3-0.1,2-0.2,2-0.2s-2.8,0.9-7,1.9c-2.1,0.5-4.6,1-7.3,1.4
	c-1.4,0.2-2.8,0.4-4.2,0.5c-0.7,0.1-1.4,0.1-2.2,0.2c-0.7,0.1-1.5,0.1-2.2,0.1c-1.5,0-2.9,0-4.4-0.1c-0.7,0-1.4-0.1-2.2-0.2
	l-2.1-0.3c-1.4-0.2-2.7-0.5-3.9-0.8c-1.3-0.3-2.3-0.7-3.4-1c-1.1-0.4-2-0.8-2.8-1.1s-1.5-0.6-2.1-0.8
	C209.5,384.6,208.8,384.5,208.8,384.5L208.8,384.5z"/>
<radialGradient id="SVGID_1_" cx="230.429" cy="-196.59" r="94.584" gradientTransform="matrix(1 0 0 1 0 507)" gradientUnits="userSpaceOnUse">
	<stop  offset="0" style="stop-color:#C12E00"/>
	<stop  offset="0.158" style="stop-color:#B62A01"/>
	<stop  offset="0.441" style="stop-color:#971E02"/>
	<stop  offset="0.812" style="stop-color:#660B05"/>
	<stop  offset="1" style="stop-color:#4A0007"/>
</radialGradient>
<path class="st0" d="M295.3,41c-6.2,38.2-6.5,147.8-0.7,186.1c1.5,10.1,2.9,22.4-2.8,29c-2.9,3.3-10.1,7.6-13.8,8.7
	c-36.1,10.2-62.6,10.3-96.9-6.4c-4.7-2.3-9.8-5.8-11.2-12.4c-0.7-3.6-0.1-7.4,0.4-11.1c6.8-42.6,12-156.8,4.1-199
	C216.6,37.4,253.3,39.5,295.3,41L295.3,41z"/>
<path class="st1" d="M301.9,7.8c0.5,0,0.9,0.4,0.8,0.9c-0.6,4.4-3,17.1-3.4,25.7c-2.1,45.9-3.1,144.5-0.8,161
	c3.1,22.9,13.5,49.2-6.4,70c-9,9.4-37.2,15.9-44.4,26c-5.4,7.6-6,14-6.7,22.5c-1.2,13.8-0.4,19.2,0,41.1c0.1,4.2,1.5,11.1,3.2,15.4
	c1,2.3,5.5,6.5,7.7,7.9c7.8,5,40.9,16,46.8,17.8c18.9,6-27.7,22.9-68.3,21.9c-33.4-0.8-73.3-11.4-74-14c-2.4-8.7,13.3-9.5,18.1-10.3
	c11-1.8,21.3-6.3,31.1-11.9c3.9-2.2,18.5-16,19.7-61.3c0.3-9.9,0.3-17.8-5.7-26.8c-7.5-11.2-32.8-15.3-43.3-25.3
	c-22.6-21.5-19-52.2-12.1-77c6-21.7,4.9-147.2-0.2-169c-1-4.4-3.9-10.6-4.1-15.2C159.8,6,289.6,7.6,301.9,7.8z"/>
<path d="M167.3,13.5c0,0,0.2,0.6,0.6,1.6c0.4,1.1,0.9,2.7,1.5,4.8c1.3,4.2,2.8,10.5,3.9,18.6c0.3,2,0.6,4.2,0.9,6.4
	c0.3,2.2,0.6,4.6,0.7,7.1c0.2,4.9,0.4,10.3,0.5,16c0.3,11.4,0.4,24.2,0.6,38.2c0.1,14,0.2,29.2,0.1,45.2c0,8-0.1,16.3-0.3,24.7
	c-0.1,4.2-0.2,8.5-0.5,12.8l-0.3,3.3c-0.2,1.1-0.3,2.1-0.5,3.2c-0.3,2.1-0.6,4.3-0.9,6.5c-1.1,8.7-2.2,17.5-2.9,26.4
	c-0.2,2.2-0.3,4.5-0.4,6.7s-0.1,4.5,0.1,6.6c0,0.2,0.1,0.5,0.1,0.7l0.2,0.8c0.2,0.5,0.3,0.9,0.5,1.4c0.4,1,0.9,1.9,1.5,2.7
	c1.2,1.7,2.8,3.1,4.7,4.3c1.8,1.2,3.8,2.1,5.9,3.1s4.2,1.9,6.3,2.8c4.2,1.8,8.5,3.4,12.9,4.7s8.9,2.4,13.4,3.1
	c4.5,0.8,9.1,1.1,13.7,1.2c9.2,0.1,18.4-1.2,27.3-3.5c4.5-1.1,8.9-2.5,13.2-4c1.1-0.4,2.2-0.8,3.2-1.2c1.1-0.4,2.1-0.8,3.1-1.3
	c2-0.9,4-2,5.9-3.2s3.7-2.5,5.1-4s2.3-3.4,2.9-5.5c1.2-4.1,1.2-8.6,0.9-13c-0.3-4.4-1.1-8.8-1.6-13.2c-0.5-4.5-1-8.9-1.3-13.2
	c-1.4-17.5-1.8-34.4-2.1-50.5c-0.2-16.1-0.2-31.2,0.1-45.3c0.3-14,0.8-26.9,1.5-38.2c0.7-11.4,1.7-21.3,2.8-29.4
	c0.6-4,1.2-7.7,1.9-10.8c0.7-3.1,1.2-5.7,1.7-7.9c0.9-4.3,1.4-6.6,1.4-6.6s-0.4,2.3-1.1,6.6c-0.4,2.2-0.8,4.8-1.4,7.9
	s-1.2,6.7-1.7,10.7c-1,8.1-1.8,18-2.3,29.3c-0.3,5.7-0.5,11.7-0.7,18.1s-0.3,13.1-0.4,20.1c-0.2,14-0.1,29.2,0.3,45.2
	s1.1,32.9,2.5,50.3c0.4,4.3,0.8,8.7,1.4,13.1l0.9,6.6c0.3,2.2,0.6,4.5,0.8,6.8c0.3,4.6,0.4,9.3-0.9,14c-0.7,2.3-1.7,4.6-3.4,6.5
	c-1.7,1.9-3.7,3.2-5.6,4.5c-2,1.3-4.1,2.4-6.2,3.4c-1.1,0.5-2.2,1-3.3,1.4l-3.3,1.2c-4.4,1.6-8.9,3-13.4,4.2
	c-9.1,2.4-18.5,3.8-28,3.7s-18.9-1.8-27.9-4.6c-4.5-1.4-8.9-3-13.2-4.8c-2.1-0.9-4.3-1.9-6.4-2.9s-4.3-2-6.3-3.3s-3.9-3-5.4-5
	c-0.7-1-1.4-2.1-1.8-3.3l-0.6-1.8l-0.2-0.8c-0.1-0.4-0.1-0.7-0.2-1c-0.3-2.5-0.2-4.7-0.1-7s0.3-4.6,0.4-6.8c0.8-9,1.9-17.9,3-26.6
	c0.3-2.2,0.6-4.3,0.9-6.5c0.2-1.1,0.3-2.1,0.5-3.2s0.3-2,0.3-3.1c0.3-4.2,0.4-8.5,0.5-12.7c0.2-8.4,0.3-16.6,0.5-24.7
	c0.2-16,0.3-31.2,0.3-45.2s-0.1-26.8-0.2-38.2c-0.1-5.7-0.2-11-0.4-15.9c-0.1-2.4-0.3-4.8-0.5-7s-0.4-4.4-0.6-6.4
	c-0.9-8.1-2.2-14.4-3.2-18.6c-0.5-2.1-1-3.7-1.3-4.8C167.5,14.1,167.3,13.5,167.3,13.5L167.3,13.5z"/>
<path d="M172.5,33.8c0,0,7.4,0.2,18.5,0.4c5.6,0.1,12,0.2,19,0.4c6.9,0.2,14.4,0.4,21.8,0.6l11.1,0.3c3.6,0.1,7.2,0.2,10.7,0.3
	c3.5,0.1,6.8,0.3,10,0.5s6.2,0.4,9,0.6c11.1,0.8,18.5,1.8,18.5,1.8V39c0,0-7.4,0.4-18.6,0.3c-2.8,0-5.8-0.1-9-0.1s-6.5-0.2-10-0.3
	c-3.5-0.2-7.1-0.4-10.7-0.6s-7.3-0.4-11-0.7c-7.4-0.4-14.8-0.8-21.7-1.2c-6.9-0.4-13.4-0.8-19-1.1c-11.1-0.7-18.5-1.1-18.5-1.1
	L172.5,33.8L172.5,33.8z"/>
</svg>
