<?xml version="1.0" encoding="utf-8"?>
<!-- Generator: Adobe Illustrator 19.2.0, SVG Export Plug-In . SVG Version: 6.00 Build 0)  -->
<svg version="1.1" id="Layer_1" xmlns="http://www.w3.org/2000/svg" xmlns:xlink="http://www.w3.org/1999/xlink" x="0px" y="0px"
	 viewBox="0 0 460 615" style="enable-background:new 0 0 460 615;" xml:space="preserve">
<style type="text/css">
	.st0{fill:none;stroke:#000000;stroke-width:5;stroke-miterlimit:10;}
	.st1{opacity:0.9;fill:url(#SVGID_1_);enable-background:new    ;}
	.st2{fill:#721C38;}
	.st3{opacity:0.86;enable-background:new    ;}
</style>
<path class="st0" d="M6588.6-655.6c0.3,38.5,0.2,82.4-5.7,120.5c-2.3,14.7-3.7,31.7-10.6,44.9c-9.4,17.9-18.6,35.9-34,49.5
	c-5.5,4.9-11.5,9.2-17.9,12.8c-4.2,2.3-15.3,5.1-15.9,10.8c-0.4,3.6,3.8,5.7,6.9,7.6c6.9,4.3,10.9,12.3,11.6,20.4
	c1.5,15.4-5.6,30.7-18.9,38.8c-0.8,0.5-1.6,1-1.9,1.8c-0.7,2.1,2.1,3.4,4.2,3.8c12.1,2.1,24,5,35.7,8.7c7.7,2.4,24.3,10.6,12,18.5
	c-7.7,4.9-17,6.2-26,7.3c-24.7,3.1-49.7,6.2-74.5,3.9c-5.6-0.5-11.2-1.4-16.8-2.2l-22.5-3.3c-5.3-0.8-11.8-2.7-12.7-7.9
	c-1.7-10.2,16.6-15.1,23.6-17.2c4.9-1.5,36.5-4.6,35.6-9.3c-0.5-2.4-2.8-3.9-4.8-5.4c-8.9-6.4-15-16.4-16.6-27.2
	c-1.6-10.8,1.3-22.2,7.9-30.9c2.2-2.9,4.9-6,4.4-9.6c-0.2-1.5-1-2.9-2-4.1c-5.1-6.7-15.9-9.5-22.8-14.7c-7.9-6-15.2-12.8-21.6-20.4
	c-12.5-14.5-22.1-31.5-27.6-49.9c-5.2-17.2-6.9-35.3-8.2-53.2c-2.3-31-3.6-62-3.8-93.1c20.2-2.4,42-1.8,62.4-1.4
	C6480.9-655,6588.6-657.7,6588.6-655.6L6588.6-655.6z"/>
<path d="M6462-340.7v1.9c0,0.6,0.1,1.3,0.6,1.9c0.4,0.6,1.2,0.8,2.2,0.8c2.1-0.1,4.5-0.2,7.1-0.2c1.3,0,2.7-0.1,4-0.1
	c1.4-0.1,2.8-0.1,4.1-0.2c1.4-0.1,2.8-0.1,4.1-0.2c1.4-0.1,2.7-0.1,4-0.2c2.6-0.1,5-0.2,7.1-0.3c2-0.1,3.7-0.6,4.6-1.3
	c0.4-0.4,0.7-0.8,0.8-1.1c0.1-0.3,0.2-0.5,0.2-0.5v0.5c-0.1,0.3-0.2,0.8-0.6,1.3s-1.1,1-1.9,1.4c-0.8,0.4-1.8,0.7-2.8,0.8
	c-2.1,0.4-4.5,0.7-7.1,0.9c-1.3,0.1-2.7,0.3-4,0.4c-1.4,0.1-2.8,0.2-4.2,0.2c-1.4,0-2.8,0.1-4.2,0.1h-4.1c-2.6-0.1-5.1-0.2-7.2-0.4
	c-0.5-0.1-1.1-0.1-1.6-0.4s-0.9-0.7-1.1-1.1c-0.4-0.9-0.4-1.7-0.3-2.3s0.2-1.1,0.3-1.4C6461.9-340.5,6462-340.7,6462-340.7
	L6462-340.7z M6461.6-425.3c0,0,0.6,0.2,1.6,0.5c0.5,0.2,1.2,0.3,1.9,0.5s1.6,0.4,2.4,0.5c0.9,0.2,1.9,0.3,2.9,0.5
	c1,0.1,2.1,0.2,3.3,0.3c1.1,0.1,2.3,0.1,3.5,0.2h3.6c1.2,0,2.5,0,3.7-0.1c1.2,0,2.4-0.1,3.6-0.1c2.3-0.1,4.5-0.1,6.3-0.3
	c1.8-0.2,3.2-0.6,4.1-1.2c0.4-0.3,0.8-0.6,1-0.8l0.3-0.3c0,0-0.1,0.1-0.2,0.4c-0.2,0.3-0.4,0.6-0.8,1c-0.8,0.8-2.3,1.6-4.2,2
	c-0.9,0.2-2,0.4-3,0.5c-1.1,0.1-2.2,0.3-3.3,0.4l-3.6,0.3c-1.2,0.1-2.5,0.1-3.7,0.2c-1.3,0-2.5,0-3.7-0.1c-0.6,0-1.2-0.1-1.8-0.1
	c-0.6-0.1-1.2-0.1-1.8-0.2c-1.2-0.1-2.3-0.4-3.4-0.6c-0.5-0.1-1-0.3-1.5-0.4c-0.5-0.2-1-0.3-1.4-0.4c-1.8-0.6-3.2-1.3-4.2-1.8
	C6462.2-425,6461.6-425.3,6461.6-425.3L6461.6-425.3z M6411.5-323.2l0.3,0.3c0.2,0.2,0.5,0.4,1,0.6c0.9,0.5,2.3,1,4.2,1.4
	c1.9,0.4,4.2,0.7,6.8,1.1c2.6,0.4,5.6,0.7,8.9,1.1c3.3,0.3,6.8,0.7,10.6,1c3.7,0.3,7.7,0.5,11.8,0.7c8.2,0.3,17,0.5,25.7,0.6
	c4.4,0.1,8.8,0.1,13.1,0.2c4.3,0,8.5,0.1,12.6,0s8-0.4,11.7-0.8c3.7-0.5,7.2-1.1,10.4-1.7c6.4-1.4,11.6-3,15.2-4.3
	c1.8-0.7,3.2-1.2,4.2-1.6l1.5-0.6c0,0-0.5,0.2-1.4,0.7c-0.9,0.4-2.3,1.1-4.1,1.8c-3.5,1.5-8.7,3.5-15.1,5.1
	c-6.4,1.6-14.1,2.9-22.3,3.2c-4.1,0.2-8.4,0.2-12.7,0.2c-4.3,0-8.7-0.1-13.1-0.1c-4.4-0.1-8.8-0.2-13.1-0.3
	c-4.3-0.1-8.6-0.4-12.7-0.6c-4.1-0.3-8.1-0.6-11.8-1c-3.8-0.4-7.3-0.8-10.6-1.3c-1.6-0.3-3.2-0.5-4.7-0.7c-1.5-0.3-2.9-0.5-4.2-0.8
	c-2.6-0.5-4.9-1-6.8-1.5s-3.3-1.1-4.1-1.7c-0.4-0.3-0.7-0.5-0.9-0.7C6411.6-323.1,6411.5-323.2,6411.5-323.2L6411.5-323.2z"/>
<linearGradient id="SVGID_1_" gradientUnits="userSpaceOnUse" x1="6378.7998" y1="-1040.7888" x2="6584.7002" y2="-1040.7888" gradientTransform="matrix(1 0 0 1 0 507)">
	<stop  offset="1.800000e-02" style="stop-color:#801FE3"/>
	<stop  offset="1" style="stop-color:#B7A7FF"/>
</linearGradient>
<path class="st1" d="M6378.8-627.4c1.4,24.4,2.7,48.8,4.1,73.2c0.4,7.9,0.9,15.9,2.2,23.7c1.8,11.1,5.4,21.8,8.9,32.5
	c3,9.1,6,18.2,11.1,26.3c17.8,28.1,51.5,32.7,81.9,31.3c10.6-0.5,21.3-1.5,31.5-4.7c66.9-21.3,65.2-117,66.1-172.7
	c0-2.6,0.1-5.1,0.1-7.7C6516-623.3,6447.2-621.5,6378.8-627.4L6378.8-627.4z"/>
<path d="M6373.7-647.1c0,0,0.6,8.1,1.5,22.2c0.5,7.1,1,15.6,1.7,25.5c0.6,9.8,1.4,20.9,2.1,33.1c0.4,6.1,0.7,12.4,1.3,18.9
	c0.5,6.5,1.4,13.2,3,19.9c1.6,6.7,3.7,13.5,6,20.4c2.4,6.9,4.5,14,7.5,20.9c0.8,1.7,1.5,3.4,2.4,5.1c0.9,1.6,1.8,3.3,2.8,4.8
	c1.1,1.6,2.2,3.1,3.4,4.7c1.2,1.4,2.5,2.8,3.7,4.3c5.3,5.5,11.7,10,18.8,13.2c7.1,3.3,14.8,5.4,22.6,6.6c7.9,1.3,15.9,1.7,23.9,1.7
	c8-0.1,16.1-0.4,24-1.5c3.9-0.5,7.9-1.2,11.7-2.2c1-0.3,1.9-0.5,2.8-0.8l0.7-0.2h0.1l0.2-0.1l0.4-0.1l1.4-0.5l2.8-1
	c0.5-0.2,0.9-0.3,1.4-0.5l1.3-0.6c7.1-3.1,13.7-7.4,19.4-12.5c5.7-5.1,10.5-11.1,14.4-17.5c4-6.3,7.1-13.1,9.7-19.8
	c2.6-6.8,4.6-13.6,6.3-20.3c3.2-13.5,5-26.5,6.2-38.5c1.1-12.1,1.7-23.2,2-33c0.3-9.9,0.5-18.4,0.7-25.5c0.2-14.2,0.4-22.2,0.4-22.2
	s0,2,0.1,5.8c0,3.8,0.1,9.4,0.2,16.4c0,7.1,0,15.7-0.2,25.5c-0.1,9.9-0.5,21-1.5,33.1c-1,12.1-2.6,25.2-5.7,38.9
	c-1.6,6.8-3.6,13.7-6.1,20.6s-5.7,13.8-9.8,20.3c-4,6.5-9,12.7-14.8,18.1c-5.9,5.4-12.7,9.8-20.2,13.1l-1.4,0.6
	c-0.5,0.2-0.9,0.4-1.4,0.5l-2.8,1l-1.4,0.5l-0.4,0.1l-0.2,0.1l-0.2,0.1l-0.7,0.2c-1,0.3-2,0.6-2.9,0.8c-3.9,1-8,1.8-12,2.4
	c-8.1,1.1-16.2,1.5-24.4,1.6c-8.2,0-16.3-0.5-24.4-1.8c-8-1.3-16-3.5-23.3-7c-7.4-3.4-14.1-8.1-19.6-13.9c-1.3-1.5-2.6-3.1-3.9-4.6
	c-1.1-1.6-2.2-3.2-3.3-4.7c-2.2-3.4-3.9-6.8-5.4-10.4c-3-7.1-5.2-14.2-7.5-21.2c-2.2-7-4.3-13.9-5.8-20.7
	c-1.6-6.9-2.4-13.6-2.8-20.2c-0.5-6.6-0.7-12.9-1-18.9c-0.6-12.1-1.1-23.2-1.6-33.1c-0.5-9.9-0.8-18.4-1.2-25.5
	C6374-639.1,6373.7-647.1,6373.7-647.1L6373.7-647.1z"/>
<path d="M6374.1-631.7c0,0,0.8,0,2.4,0.1s3.8,0.2,6.7,0.3c2.9,0.2,6.4,0.3,10.5,0.5c4,0.2,8.6,0.3,13.6,0.5s10.4,0.3,16.1,0.5
	s11.7,0.2,17.9,0.4c6.2,0.1,12.6,0.1,19.2,0.2c6.5,0.1,13.2,0,19.8,0.1c6.6,0,13.3,0,19.8-0.1s13-0.1,19.2-0.2
	c12.5-0.1,24.1-0.2,34-0.3c10-0.1,18.3-0.1,24.1-0.1h9.1c0,0-0.8,0.1-2.4,0.2c-1.6,0.1-3.8,0.2-6.7,0.4c-5.8,0.3-14.1,0.8-24.1,1.3
	s-21.6,0.9-34,1.3c-6.2,0.1-12.7,0.4-19.2,0.4c-6.5,0.1-13.2,0.1-19.8,0.2c-6.6,0-13.3,0-19.8-0.2c-6.5-0.1-13-0.3-19.2-0.4
	c-6.2-0.2-12.3-0.4-18-0.8c-2.9-0.2-5.6-0.3-8.3-0.5c-2.7-0.2-5.3-0.4-7.8-0.5c-2.5-0.2-4.9-0.3-7.1-0.5c-2.3-0.2-4.4-0.4-6.4-0.6
	c-4-0.4-7.6-0.7-10.4-1c-2.9-0.3-5.2-0.6-6.7-0.7C6374.9-631.6,6374.1-631.7,6374.1-631.7L6374.1-631.7z"/>
<path class="st2" d="M330.9,178.5c-69.2,2.7-150.8,17.4-221.9,4.6c-0.9,7-2.3,21-1.1,26.4c0.2,0,0.9,35.3,43.5,72.4
	c16.3,14.1,44.3,35.8,76.4,35.6c19.9-0.1,38.7-7.1,55.9-16c22.6-11.8,52.9-39.7,61.8-67.8c2-6.3,4.6-22.6,4.2-24.6l0.3,0.9
	c0.9-7.3,0.2-19-1.4-32.6C342.8,178,336.8,178.3,330.9,178.5L330.9,178.5z"/>
<path class="st0" d="M310,578.2c6.4,0.5,14.8,3,17.5,8.7c1.9,4,0.9,8.9-2.5,11.8s-9.6,4.3-14,5.5c-41.4,10.8-141.3,11.4-170.5-4.5
	c-1.7-0.9-3.5-1.8-4.8-3.3c-3.5-4.1-1.4-10.7,2.9-13.9c4.3-3.3,9.9-4.1,15.2-5c16.2-2.6,31.6-1.9,43.4-13.1
	c28.1-26.7,23.4-75.9,23.8-116.3c0.2-21.6-2-42.4-1.8-64.1c0.2-19.6-0.1-40.7-13.5-56.5c-5.1-6-11.8-10.9-18.5-15.6
	c-29.5-21.2-55.3-40.6-74.1-70.2c-9.7-15.2-13.8-32.4-12-53.5c0.5-5.6,23.9-137.4,44.5-182c4.6-2.5,153.4-1.8,173.7,1.7
	c7.4,20.1,32.4,117.5,35,142.7c1.5,14.4,3,22.6,4.6,37c1.5,13.6-0.9,30.9-4.9,44.1c-4.5,15-15.7,27.9-27.7,39.4
	c-16.4,15.7-34.9,29.8-55.1,41.7c-5.7,3.4-11.7,6.8-16,11.5c-19,21.1-16.5,52.8-16.7,78.3c-0.2,23.2,0.1,45.5,0.3,70.3
	c0.2,21.4,0.7,48.6,8.9,68.5C258.3,567.4,283.5,576.3,310,578.2L310,578.2z"/>
<path d="M213.2,552.6c0,0,0.5,0.2,1.4,0.5s2.1,0.7,3.6,1.1c1.5,0.4,3.2,0.8,5.1,1.2c0.9,0.2,1.9,0.3,2.9,0.4l3,0.3
	c0.5,0,1,0.1,1.5,0.1h1.5c1,0,2,0,2.9-0.1s1.9-0.2,2.7-0.3c0.9-0.2,1.7-0.3,2.4-0.5c1.5-0.4,2.7-0.9,3.5-1.2
	c0.8-0.4,1.3-0.6,1.3-0.6l-0.3,0.3c-0.2,0.2-0.4,0.4-0.8,0.7c-0.7,0.6-1.8,1.3-3.3,2s-3.3,1.2-5.3,1.5c-1,0.1-2,0.3-3.1,0.3h-1.6
	c-0.5,0-1.1,0-1.6-0.1c-2.1-0.2-4.2-0.5-6.2-1c-1.9-0.5-3.7-1.1-5.1-1.8c-1.5-0.7-2.6-1.3-3.4-1.8c-0.4-0.2-0.7-0.5-0.9-0.6
	C213.3,552.6,213.2,552.6,213.2,552.6L213.2,552.6z M141.1,584.1v0.5c0,0.3,0.2,0.9,0.4,1.5c0.3,0.6,0.7,1.3,1.5,2
	c0.7,0.7,1.7,1.3,2.8,1.8c1.1,0.5,2.5,1,3.9,1.5c1.5,0.5,3,1,4.7,1.6c3.4,1.1,7.2,2.4,11.4,3.5c4.2,1.2,8.8,2.2,13.8,2.7
	c4.9,0.4,10.3,0.7,15.7,1.1c5.5,0.3,11.1,0.7,16.8,0.9c2.9,0.1,5.8,0.2,8.6,0.3c2.9,0.1,5.8-0.1,8.7-0.2c11.6-0.5,23.3-1.2,34.2-2.1
	c5.4-0.4,10.7-0.9,15.7-1.4s9.7-1,14-1.7c1.1-0.2,2.1-0.3,3.2-0.5c1-0.2,2-0.4,3-0.5c0.5-0.1,1-0.2,1.4-0.3c0.5-0.1,0.9-0.2,1.4-0.3
	l2.7-0.6c3.4-0.9,6.4-1.9,8.8-2.7c2.4-0.9,4.3-1.5,5.4-2.3c0.6-0.4,0.9-0.8,1.2-1c0.2-0.3,0.3-0.4,0.3-0.4s-0.1,0.2-0.3,0.4
	c-0.2,0.3-0.6,0.7-1.1,1.1c-1.1,0.9-3,1.7-5.3,2.6c-2.4,1-5.3,2-8.7,3.1c-3.4,1-7.4,1.9-11.7,2.6c-4.3,0.7-9,1.4-14,2
	s-10.3,1.2-15.7,1.6c-10.9,1-22.6,1.8-34.2,2.3c-2.9,0.1-5.9,0.2-8.8,0.2l-8.7-0.3c-5.7-0.3-11.4-0.7-16.9-1
	c-5.5-0.4-10.7-0.8-15.8-1.3c-5-0.6-9.7-1.8-13.9-3c-4.2-1.2-8-2.7-11.3-3.9c-1.7-0.6-3.2-1.2-4.6-1.8s-2.8-1.1-3.9-1.6
	c-1.2-0.6-2.1-1.3-2.8-2c-0.7-0.7-1.1-1.5-1.4-2.1s-0.3-1.2-0.4-1.5C141.1,584.3,141.1,584.1,141.1,584.1L141.1,584.1z M312.2,8.1
	c1,1.8,1.7,3.8,2.4,5.8s1.4,3.9,2,5.9c1.3,4,2.5,8,3.7,11.9l6.9,24c1.1,4,2.1,8.1,3,12.1c1,4.1,1.9,8.1,2.8,12.2
	c1.8,8.1,3.6,16.3,5.3,24.4c1.7,8.2,3.3,16.3,4.8,24.5s2.9,16.4,4.2,24.7c0.6,4.1,1.2,8.3,1.8,12.4c0.6,4.1,1,8.3,1.5,12.4
	c0.4,4.2,0.8,8.3,0.9,12.5s0.2,8.4-0.3,12.7l-0.7,5.8l-1.7-5.6l-0.3-0.9l2.3-0.6c0,0.3,0.1,0.7,0.1,0.9v0.7c0,0.5-0.1,0.9-0.1,1.4
	c-0.1,0.9-0.2,1.8-0.3,2.8c-0.2,1.8-0.5,3.6-0.8,5.5c-0.6,3.6-1.3,7.2-2.1,10.8c-0.2,0.9-0.5,1.8-0.7,2.7l-0.1,0.3l-0.1,0.4
	l-0.2,0.6L346,230l-0.9,2.6c-0.3,0.9-0.7,1.7-1.1,2.6c-0.8,1.7-1.5,3.4-2.4,5s-1.7,3.3-2.7,4.8c-3.8,6.3-8.2,12.3-13,17.8
	s-10.1,10.7-15.6,15.6c-5.5,4.8-11.4,9.3-17.6,13.3c-3.1,2-6.3,3.8-9.6,5.5c-3.2,1.7-6.6,3.3-9.9,4.8c-3.4,1.5-6.8,2.9-10.2,4.1
	c-3.5,1.3-7,2.4-10.6,3.3c-3.6,1-7.2,1.7-10.8,2.3c-3.7,0.6-7.4,0.9-11.1,1c-1,0-1.8,0.1-2.8,0.1l-2.7-0.1l-2.7-0.1
	c-0.9-0.1-1.9-0.2-2.8-0.3c-1.9-0.2-3.7-0.4-5.5-0.8s-3.7-0.6-5.4-1.2c-7.2-1.8-14.1-4.5-20.7-7.8c-13.2-6.6-25.1-15.5-36.2-25
	c-11.1-9.6-21.2-20.5-29.2-32.9c-4-6.2-7.4-12.8-10.1-19.6c-1.4-3.4-2.5-6.9-3.5-10.5c-0.5-1.8-0.9-3.6-1.2-5.4
	c-0.2-0.9-0.3-1.8-0.4-2.8l-0.2-1.4l-0.1-0.7v-0.5c0,0,0-0.1,0,0c0.4,0-1-0.2,1.2,0.9l-1.2-0.9c-0.5-2.3-0.5-4.4-0.5-6.6
	c0-2.1,0.1-4.3,0.3-6.4c0.3-4.2,0.7-8.5,1.3-12.7c0.4-4.2,1.4-8.4,2.2-12.5l2.7-12.4c3.6-16.5,7.4-32.9,11.2-49.4
	c1.9-8.2,3.9-16.4,5.9-24.6c2-8.2,4-16.4,6.1-24.6c1-4.1,2.1-8.2,3.2-12.3s2.1-8.2,3.3-12.2l1.7-6.1l1.8-6.1
	c1.1-4.1,2.5-8.1,3.7-12.1c-1.2,4.1-2.4,8.1-3.5,12.2l-1.6,6.1l-1.6,6.1c-1.1,4.1-2.1,8.2-3.1,12.3l-3,12.3
	c-2,8.2-3.9,16.4-5.7,24.6l-5.6,24.7c-3.7,16.5-7.3,33-10.7,49.5l-2.6,12.4c-0.8,4.1-1.7,8.2-2.1,12.4c-0.5,4.2-0.9,8.4-1.1,12.5
	c-0.1,2.1-0.2,4.2-0.2,6.3c0,2.1,0.1,4.2,0.5,6l-1.2-0.9c2.2,1.2,0.9,1,1.3,1.1v0.6l0.1,0.7l0.2,1.3c0.1,0.9,0.3,1.8,0.4,2.6
	c0.3,1.8,0.7,3.5,1.2,5.2c0.9,3.5,2.1,6.9,3.4,10.2c2.7,6.7,6.1,13.1,10,19.1c3.9,6.1,8.4,11.8,13.2,17.1c4.8,5.4,10,10.4,15.6,15.1
	c11,9.4,22.7,18.1,35.6,24.5c6.5,3.2,13.2,5.8,20.2,7.5c1.7,0.5,3.5,0.8,5.2,1.1c1.8,0.4,3.5,0.6,5.3,0.8c0.9,0.1,1.7,0.2,2.6,0.3
	l2.7,0.1l2.7,0.1h2.6c3.6-0.1,7.2-0.4,10.7-1c3.5-0.5,7.1-1.2,10.6-2.2c3.5-0.9,6.9-2,10.3-3.2s6.8-2.5,10.1-4s6.6-3,9.8-4.7
	c3.2-1.6,6.3-3.4,9.4-5.3c6.1-3.9,11.9-8.2,17.3-13c5.5-4.7,10.6-9.8,15.4-15.3c4.8-5.4,9.1-11.2,12.8-17.4c1-1.5,1.8-3.1,2.6-4.7
	c0.9-1.6,1.6-3.2,2.3-4.8c0.4-0.8,0.8-1.6,1.1-2.5l0.9-2.6l0.5-1.3l0.2-0.6l0.1-0.3l0.1-0.3c0.3-0.8,0.5-1.7,0.7-2.6
	c0.8-3.5,1.5-7.1,2.1-10.6c0.3-1.8,0.6-3.6,0.8-5.4l0.3-2.7c0.1-0.4,0.1-0.9,0.1-1.3v-1.1l0.4-7.1l1.9,6.5l0.3,0.9l-2.3,0.2
	c0.5-4,0.5-8.2,0.3-12.3c-0.1-4.1-0.4-8.3-0.8-12.4s-0.8-8.3-1.3-12.4s-1.1-8.2-1.7-12.4c-1.2-8.2-2.5-16.4-4-24.6
	c-1.4-8.2-3-16.4-4.6-24.6l-2.4-12.3L332.2,80c-0.9-4.1-1.7-8.1-2.6-12.2c-0.9-4.1-1.8-8.1-2.9-12.1l-6.6-24.1c-1.1-4-2.2-8-3.4-12
	c-0.6-2-1.2-4-1.9-6C313.8,11.9,313.2,9.9,312.2,8.1L312.2,8.1z"/>
<path class="st3" d="M348.7,173.3l-2.7,0.3c-1.8,0.2-4.3,0.5-7.6,0.7c-3.3,0.2-7.3,0.5-11.8,0.7c-4.6,0.3-9.7,0.6-15.3,1
	c-5.6,0.4-11.7,0.9-18.1,1.5s-13.2,1.2-20.2,1.8c-7,0.6-14.3,1.2-21.6,1.9c-7.4,0.6-14.9,1.3-22.4,1.8s-15,0.9-22.4,1.3
	c-7.4,0.3-14.7,0.6-21.7,0.6c-7,0.2-13.9,0-20.3-0.1c-3.2-0.1-6.4-0.3-9.4-0.4c-1.5-0.1-3-0.1-4.5-0.2s-2.9-0.2-4.3-0.3
	c-2.8-0.2-5.5-0.4-8.1-0.6s-5-0.6-7.3-0.8c-4.5-0.6-8.5-1-11.7-1.6c-6.5-1.1-10.2-1.8-10.2-1.8s3.7,0.5,10.2,1.4
	c3.2,0.5,7.2,0.8,11.8,1.3c4.5,0.5,9.7,0.7,15.3,1.1c1.4,0.1,2.8,0.2,4.3,0.2s3,0.1,4.5,0.1c3,0.1,6.2,0.2,9.4,0.2
	c6.4,0,13.2,0,20.3-0.2c7-0.1,14.3-0.5,21.7-0.8c7.4-0.4,14.9-0.9,22.3-1.4c7.5-0.5,15-1.1,22.3-1.6c7.4-0.6,14.6-1.2,21.6-1.8
	c7-0.6,13.8-1.1,20.2-1.5c6.4-0.4,12.5-0.8,18.2-1.1c2.8-0.1,5.5-0.3,8.1-0.4s5-0.2,7.3-0.2c4.6-0.1,8.6-0.3,11.8-0.4
	C345,173.7,348.7,173.3,348.7,173.3L348.7,173.3z"/>
</svg>
