<svg id="Layer_1" xmlns="http://www.w3.org/2000/svg" viewBox="0 0 460 615"><style>.st0{fill:none;stroke:#000;stroke-width:5;stroke-miterlimit:10}.st1{opacity:.9;fill:url(#SVGID_1_);enable-background:new}.st2{fill:#721c38}.st3{opacity:.86;enable-background:new}</style><path class="st0" d="M6588.6-655.6c.3 38.5.2 82.4-5.7 120.5-2.3 14.7-3.7 31.7-10.6 44.9-9.4 17.9-18.6 35.9-34 49.5-5.5 4.9-11.5 9.2-17.9 12.8-4.2 2.3-15.3 5.1-15.9 10.8-.4 3.6 3.8 5.7 6.9 7.6 6.9 4.3 10.9 12.3 11.6 20.4 1.5 15.4-5.6 30.7-18.9 38.8-.8.5-1.6 1-1.9 1.8-.7 2.1 2.1 3.4 4.2 3.8 12.1 2.1 24 5 35.7 8.7 7.7 2.4 24.3 10.6 12 18.5-7.7 4.9-17 6.2-26 7.3-24.7 3.1-49.7 6.2-74.5 3.9-5.6-.5-11.2-1.4-16.8-2.2l-22.5-3.3c-5.3-.8-11.8-2.7-12.7-7.9-1.7-10.2 16.6-15.1 23.6-17.2 4.9-1.5 36.5-4.6 35.6-9.3-.5-2.4-2.8-3.9-4.8-5.4-8.9-6.4-15-16.4-16.6-27.2-1.6-10.8 1.3-22.2 7.9-30.9 2.2-2.9 4.9-6 4.4-9.6-.2-1.5-1-2.9-2-4.1-5.1-6.7-15.9-9.5-22.8-14.7-7.9-6-15.2-12.8-21.6-20.4-12.5-14.5-22.1-31.5-27.6-49.9-5.2-17.2-6.9-35.3-8.2-53.2-2.3-31-3.6-62-3.8-93.1 20.2-2.4 42-1.8 62.4-1.4 52.8 1.1 160.5-1.6 160.5.5z"/><path d="M6462-340.7v1.9c0 .6.1 1.3.6 1.9.4.6 1.2.8 2.2.8 2.1-.1 4.5-.2 7.1-.2 1.3 0 2.7-.1 4-.1 1.4-.1 2.8-.1 4.1-.2 1.4-.1 2.8-.1 4.1-.2 1.4-.1 2.7-.1 4-.2 2.6-.1 5-.2 7.1-.3 2-.1 3.7-.6 4.6-1.3.4-.4.7-.8.8-1.1.1-.3.2-.5.2-.5v.5c-.1.3-.2.8-.6 1.3s-1.1 1-1.9 1.4c-.8.4-1.8.7-2.8.8-2.1.4-4.5.7-7.1.9-1.3.1-2.7.3-4 .4-1.4.1-2.8.2-4.2.2-1.4 0-2.8.1-4.2.1h-4.1c-2.6-.1-5.1-.2-7.2-.4-.5-.1-1.1-.1-1.6-.4s-.9-.7-1.1-1.1c-.4-.9-.4-1.7-.3-2.3s.2-1.1.3-1.4c-.1-.3 0-.5 0-.5zm-.4-84.6s.6.2 1.6.5c.5.2 1.2.3 1.9.5s1.6.4 2.4.5c.9.2 1.9.3 2.9.5 1 .1 2.1.2 3.3.3 1.1.1 2.3.1 3.5.2h3.6c1.2 0 2.5 0 3.7-.1 1.2 0 2.4-.1 3.6-.1 2.3-.1 4.5-.1 6.3-.3 1.8-.2 3.2-.6 4.1-1.2.4-.3.8-.6 1-.8l.3-.3s-.1.1-.2.4c-.2.3-.4.6-.8 1-.8.8-2.3 1.6-4.2 2-.9.2-2 .4-3 .5-1.1.1-2.2.3-3.3.4l-3.6.3c-1.2.1-2.5.1-3.7.2-1.3 0-2.5 0-3.7-.1-.6 0-1.2-.1-1.8-.1-.6-.1-1.2-.1-1.8-.2-1.2-.1-2.3-.4-3.4-.6-.5-.1-1-.3-1.5-.4-.5-.2-1-.3-1.4-.4-1.8-.6-3.2-1.3-4.2-1.8-1-.6-1.6-.9-1.6-.9zm-50.1 102.1l.3.3c.2.2.5.4 1 .6.9.5 2.3 1 4.2 1.4 1.9.4 4.2.7 6.8 1.1 2.6.4 5.6.7 8.9 1.1 3.3.3 6.8.7 10.6 1 3.7.3 7.7.5 11.8.7 8.2.3 17 .5 25.7.6 4.4.1 8.8.1 13.1.2 4.3 0 8.5.1 12.6 0s8-.4 11.7-.8c3.7-.5 7.2-1.1 10.4-1.7 6.4-1.4 11.6-3 15.2-4.3 1.8-.7 3.2-1.2 4.2-1.6l1.5-.6s-.5.2-1.4.7c-.9.4-2.3 1.1-4.1 1.8-3.5 1.5-8.7 3.5-15.1 5.1-6.4 1.6-14.1 2.9-22.3 3.2-4.1.2-8.4.2-12.7.2-4.3 0-8.7-.1-13.1-.1-4.4-.1-8.8-.2-13.1-.3-4.3-.1-8.6-.4-12.7-.6-4.1-.3-8.1-.6-11.8-1-3.8-.4-7.3-.8-10.6-1.3-1.6-.3-3.2-.5-4.7-.7-1.5-.3-2.9-.5-4.2-.8-2.6-.5-4.9-1-6.8-1.5s-3.3-1.1-4.1-1.7c-.4-.3-.7-.5-.9-.7-.3-.2-.4-.3-.4-.3z"/><linearGradient id="SVGID_1_" gradientUnits="userSpaceOnUse" x1="6378.8" y1="-1040.789" x2="6584.7" y2="-1040.789" gradientTransform="translate(0 507)"><stop offset=".018" stop-color="#801fe3"/><stop offset="1" stop-color="#b7a7ff"/></linearGradient><path class="st1" d="M6378.8-627.4c1.4 24.4 2.7 48.8 4.1 73.2.4 7.9.9 15.9 2.2 23.7 1.8 11.1 5.4 21.8 8.9 32.5 3 9.1 6 18.2 11.1 26.3 17.8 28.1 51.5 32.7 81.9 31.3 10.6-.5 21.3-1.5 31.5-4.7 66.9-21.3 65.2-117 66.1-172.7 0-2.6.1-5.1.1-7.7-68.7 2.2-137.5 4-205.9-1.9z"/><path d="M6373.7-647.1s.6 8.1 1.5 22.2c.5 7.1 1 15.6 1.7 25.5.6 9.8 1.4 20.9 2.1 33.1.4 6.1.7 12.4 1.3 18.9.5 6.5 1.4 13.2 3 19.9 1.6 6.7 3.7 13.5 6 20.4 2.4 6.9 4.5 14 7.5 20.9.8 1.7 1.5 3.4 2.4 5.1.9 1.6 1.8 3.3 2.8 4.8 1.1 1.6 2.2 3.1 3.4 4.7 1.2 1.4 2.5 2.8 3.7 4.3 5.3 5.5 11.7 10 18.8 13.2 7.1 3.3 14.8 5.4 22.6 6.6 7.9 1.3 15.9 1.7 23.9 1.7 8-.1 16.1-.4 24-1.5 3.9-.5 7.9-1.2 11.7-2.2 1-.3 1.9-.5 2.8-.8l.7-.2h.1l.2-.1.4-.1 1.4-.5 2.8-1c.5-.2.9-.3 1.4-.5l1.3-.6c7.1-3.1 13.7-7.4 19.4-12.5 5.7-5.1 10.5-11.1 14.4-17.5 4-6.3 7.1-13.1 9.7-19.8 2.6-6.8 4.6-13.6 6.3-20.3 3.2-13.5 5-26.5 6.2-38.5 1.1-12.1 1.7-23.2 2-33 .3-9.9.5-18.4.7-25.5.2-14.2.4-22.2.4-22.2s0 2 .1 5.8c0 3.8.1 9.4.2 16.4 0 7.1 0 15.7-.2 25.5-.1 9.9-.5 21-1.5 33.1-1 12.1-2.6 25.2-5.7 38.9-1.6 6.8-3.6 13.7-6.1 20.6s-5.7 13.8-9.8 20.3c-4 6.5-9 12.7-14.8 18.1-5.9 5.4-12.7 9.8-20.2 13.1l-1.4.6c-.5.2-.9.4-1.4.5l-2.8 1-1.4.5-.4.1-.2.1-.2.1-.7.2c-1 .3-2 .6-2.9.8-3.9 1-8 1.8-12 2.4-8.1 1.1-16.2 1.5-24.4 1.6-8.2 0-16.3-.5-24.4-1.8-8-1.3-16-3.5-23.3-7-7.4-3.4-14.1-8.1-19.6-13.9-1.3-1.5-2.6-3.1-3.9-4.6-1.1-1.6-2.2-3.2-3.3-4.7-2.2-3.4-3.9-6.8-5.4-10.4-3-7.1-5.2-14.2-7.5-21.2-2.2-7-4.3-13.9-5.8-20.7-1.6-6.9-2.4-13.6-2.8-20.2-.5-6.6-.7-12.9-1-18.9-.6-12.1-1.1-23.2-1.6-33.1-.5-9.9-.8-18.4-1.2-25.5-.7-14.2-1-22.2-1-22.2z"/><path d="M6374.1-631.7s.8 0 2.4.1 3.8.2 6.7.3c2.9.2 6.4.3 10.5.5 4 .2 8.6.3 13.6.5s10.4.3 16.1.5 11.7.2 17.9.4c6.2.1 12.6.1 19.2.2 6.5.1 13.2 0 19.8.1 6.6 0 13.3 0 19.8-.1s13-.1 19.2-.2c12.5-.1 24.1-.2 34-.3 10-.1 18.3-.1 24.1-.1h9.1s-.8.1-2.4.2c-1.6.1-3.8.2-6.7.4-5.8.3-14.1.8-24.1 1.3s-21.6.9-34 1.3c-6.2.1-12.7.4-19.2.4-6.5.1-13.2.1-19.8.2-6.6 0-13.3 0-19.8-.2-6.5-.1-13-.3-19.2-.4-6.2-.2-12.3-.4-18-.8-2.9-.2-5.6-.3-8.3-.5-2.7-.2-5.3-.4-7.8-.5-2.5-.2-4.9-.3-7.1-.5-2.3-.2-4.4-.4-6.4-.6-4-.4-7.6-.7-10.4-1-2.9-.3-5.2-.6-6.7-.7-1.7-.4-2.5-.5-2.5-.5z"/><path class="st2" d="M330.9 178.5c-69.2 2.7-150.8 17.4-221.9 4.6-.9 7-2.3 21-1.1 26.4.2 0 .9 35.3 43.5 72.4 16.3 14.1 44.3 35.8 76.4 35.6 19.9-.1 38.7-7.1 55.9-16 22.6-11.8 52.9-39.7 61.8-67.8 2-6.3 4.6-22.6 4.2-24.6l.3.9c.9-7.3.2-19-1.4-32.6-5.8.6-11.8.9-17.7 1.1z"/><path class="st0" d="M310 578.2c6.4.5 14.8 3 17.5 8.7 1.9 4 .9 8.9-2.5 11.8s-9.6 4.3-14 5.5c-41.4 10.8-141.3 11.4-170.5-4.5-1.7-.9-3.5-1.8-4.8-3.3-3.5-4.1-1.4-10.7 2.9-13.9 4.3-3.3 9.9-4.1 15.2-5 16.2-2.6 31.6-1.9 43.4-13.1 28.1-26.7 23.4-75.9 23.8-116.3.2-21.6-2-42.4-1.8-64.1.2-19.6-.1-40.7-13.5-56.5-5.1-6-11.8-10.9-18.5-15.6-29.5-21.2-55.3-40.6-74.1-70.2-9.7-15.2-13.8-32.4-12-53.5.5-5.6 23.9-137.4 44.5-182 4.6-2.5 153.4-1.8 173.7 1.7 7.4 20.1 32.4 117.5 35 142.7 1.5 14.4 3 22.6 4.6 37 1.5 13.6-.9 30.9-4.9 44.1-4.5 15-15.7 27.9-27.7 39.4-16.4 15.7-34.9 29.8-55.1 41.7-5.7 3.4-11.7 6.8-16 11.5-19 21.1-16.5 52.8-16.7 78.3-.2 23.2.1 45.5.3 70.3.2 21.4.7 48.6 8.9 68.5 10.6 26 35.8 34.9 62.3 36.8z"/><path d="M213.2 552.6s.5.2 1.4.5 2.1.7 3.6 1.1c1.5.4 3.2.8 5.1 1.2.9.2 1.9.3 2.9.4l3 .3c.5 0 1 .1 1.5.1h1.5c1 0 2 0 2.9-.1s1.9-.2 2.7-.3c.9-.2 1.7-.3 2.4-.5 1.5-.4 2.7-.9 3.5-1.2.8-.4 1.3-.6 1.3-.6l-.3.3c-.2.2-.4.4-.8.7-.7.6-1.8 1.3-3.3 2s-3.3 1.2-5.3 1.5c-1 .1-2 .3-3.1.3h-1.6c-.5 0-1.1 0-1.6-.1-2.1-.2-4.2-.5-6.2-1-1.9-.5-3.7-1.1-5.1-1.8-1.5-.7-2.6-1.3-3.4-1.8-.4-.2-.7-.5-.9-.6-.1-.4-.2-.4-.2-.4zm-72.1 31.5v.5c0 .3.2.9.4 1.5.3.6.7 1.3 1.5 2 .7.7 1.7 1.3 2.8 1.8 1.1.5 2.5 1 3.9 1.5 1.5.5 3 1 4.7 1.6 3.4 1.1 7.2 2.4 11.4 3.5 4.2 1.2 8.8 2.2 13.8 2.7 4.9.4 10.3.7 15.7 1.1 5.5.3 11.1.7 16.8.9 2.9.1 5.8.2 8.6.3 2.9.1 5.8-.1 8.7-.2 11.6-.5 23.3-1.2 34.2-2.1 5.4-.4 10.7-.9 15.7-1.4s9.7-1 14-1.7c1.1-.2 2.1-.3 3.2-.5 1-.2 2-.4 3-.5.5-.1 1-.2 1.4-.3.5-.1.9-.2 1.4-.3l2.7-.6c3.4-.9 6.4-1.9 8.8-2.7 2.4-.9 4.3-1.5 5.4-2.3.6-.4.9-.8 1.2-1 .2-.3.3-.4.3-.4s-.1.2-.3.4c-.2.3-.6.7-1.1 1.1-1.1.9-3 1.7-5.3 2.6-2.4 1-5.3 2-8.7 3.1-3.4 1-7.4 1.9-11.7 2.6-4.3.7-9 1.4-14 2s-10.3 1.2-15.7 1.6c-10.9 1-22.6 1.8-34.2 2.3-2.9.1-5.9.2-8.8.2l-8.7-.3c-5.7-.3-11.4-.7-16.9-1-5.5-.4-10.7-.8-15.8-1.3-5-.6-9.7-1.8-13.9-3-4.2-1.2-8-2.7-11.3-3.9-1.7-.6-3.2-1.2-4.6-1.8s-2.8-1.1-3.9-1.6c-1.2-.6-2.1-1.3-2.8-2-.7-.7-1.1-1.5-1.4-2.1s-.3-1.2-.4-1.5c-.1-.6-.1-.8-.1-.8zm171.1-576c1 1.8 1.7 3.8 2.4 5.8s1.4 3.9 2 5.9c1.3 4 2.5 8 3.7 11.9l6.9 24c1.1 4 2.1 8.1 3 12.1 1 4.1 1.9 8.1 2.8 12.2 1.8 8.1 3.6 16.3 5.3 24.4 1.7 8.2 3.3 16.3 4.8 24.5s2.9 16.4 4.2 24.7c.6 4.1 1.2 8.3 1.8 12.4.6 4.1 1 8.3 1.5 12.4.4 4.2.8 8.3.9 12.5s.2 8.4-.3 12.7l-.7 5.8-1.7-5.6-.3-.9 2.3-.6c0 .3.1.7.1.9v.7c0 .5-.1.9-.1 1.4-.1.9-.2 1.8-.3 2.8-.2 1.8-.5 3.6-.8 5.5-.6 3.6-1.3 7.2-2.1 10.8-.2.9-.5 1.8-.7 2.7l-.1.3-.1.4-.2.6-.5 1.6-.9 2.6c-.3.9-.7 1.7-1.1 2.6-.8 1.7-1.5 3.4-2.4 5s-1.7 3.3-2.7 4.8c-3.8 6.3-8.2 12.3-13 17.8s-10.1 10.7-15.6 15.6c-5.5 4.8-11.4 9.3-17.6 13.3-3.1 2-6.3 3.8-9.6 5.5-3.2 1.7-6.6 3.3-9.9 4.8-3.4 1.5-6.8 2.9-10.2 4.1-3.5 1.3-7 2.4-10.6 3.3-3.6 1-7.2 1.7-10.8 2.3-3.7.6-7.4.9-11.1 1-1 0-1.8.1-2.8.1l-2.7-.1-2.7-.1c-.9-.1-1.9-.2-2.8-.3-1.9-.2-3.7-.4-5.5-.8s-3.7-.6-5.4-1.2c-7.2-1.8-14.1-4.5-20.7-7.8-13.2-6.6-25.1-15.5-36.2-25-11.1-9.6-21.2-20.5-29.2-32.9-4-6.2-7.4-12.8-10.1-19.6-1.4-3.4-2.5-6.9-3.5-10.5-.5-1.8-.9-3.6-1.2-5.4-.2-.9-.3-1.8-.4-2.8l-.2-1.4-.1-.7v-.5s0-.1 0 0c.4 0-1-.2 1.2.9l-1.2-.9c-.5-2.3-.5-4.4-.5-6.6 0-2.1.1-4.3.3-6.4.3-4.2.7-8.5 1.3-12.7.4-4.2 1.4-8.4 2.2-12.5l2.7-12.4c3.6-16.5 7.4-32.9 11.2-49.4 1.9-8.2 3.9-16.4 5.9-24.6 2-8.2 4-16.4 6.1-24.6 1-4.1 2.1-8.2 3.2-12.3s2.1-8.2 3.3-12.2l1.7-6.1 1.8-6.1c1.1-4.1 2.5-8.1 3.7-12.1-1.2 4.1-2.4 8.1-3.5 12.2l-1.6 6.1-1.6 6.1c-1.1 4.1-2.1 8.2-3.1 12.3l-3 12.3c-2 8.2-3.9 16.4-5.7 24.6l-5.6 24.7c-3.7 16.5-7.3 33-10.7 49.5l-2.6 12.4c-.8 4.1-1.7 8.2-2.1 12.4-.5 4.2-.9 8.4-1.1 12.5-.1 2.1-.2 4.2-.2 6.3 0 2.1.1 4.2.5 6l-1.2-.9c2.2 1.2.9 1 1.3 1.1v.6l.1.7.2 1.3c.1.9.3 1.8.4 2.6.3 1.8.7 3.5 1.2 5.2.9 3.5 2.1 6.9 3.4 10.2 2.7 6.7 6.1 13.1 10 19.1 3.9 6.1 8.4 11.8 13.2 17.1 4.8 5.4 10 10.4 15.6 15.1 11 9.4 22.7 18.1 35.6 24.5 6.5 3.2 13.2 5.8 20.2 7.5 1.7.5 3.5.8 5.2 1.1 1.8.4 3.5.6 5.3.8.9.1 1.7.2 2.6.3l2.7.1 2.7.1h2.6c3.6-.1 7.2-.4 10.7-1 3.5-.5 7.1-1.2 10.6-2.2 3.5-.9 6.9-2 10.3-3.2s6.8-2.5 10.1-4 6.6-3 9.8-4.7c3.2-1.6 6.3-3.4 9.4-5.3 6.1-3.9 11.9-8.2 17.3-13 5.5-4.7 10.6-9.8 15.4-15.3 4.8-5.4 9.1-11.2 12.8-17.4 1-1.5 1.8-3.1 2.6-4.7.9-1.6 1.6-3.2 2.3-4.8.4-.8.8-1.6 1.1-2.5l.9-2.6.5-1.3.2-.6.1-.3.1-.3c.3-.8.5-1.7.7-2.6.8-3.5 1.5-7.1 2.1-10.6.3-1.8.6-3.6.8-5.4l.3-2.7c.1-.4.1-.9.1-1.3v-1.1l.4-7.1 1.9 6.5.3.9-2.3.2c.5-4 .5-8.2.3-12.3-.1-4.1-.4-8.3-.8-12.4s-.8-8.3-1.3-12.4-1.1-8.2-1.7-12.4c-1.2-8.2-2.5-16.4-4-24.6-1.4-8.2-3-16.4-4.6-24.6l-2.4-12.3-2.5-12.2c-.9-4.1-1.7-8.1-2.6-12.2-.9-4.1-1.8-8.1-2.9-12.1l-6.6-24.1c-1.1-4-2.2-8-3.4-12-.6-2-1.2-4-1.9-6-1-1.7-1.6-3.7-2.6-5.5z"/><path class="st3" d="M348.7 173.3l-2.7.3c-1.8.2-4.3.5-7.6.7-3.3.2-7.3.5-11.8.7-4.6.3-9.7.6-15.3 1-5.6.4-11.7.9-18.1 1.5s-13.2 1.2-20.2 1.8c-7 .6-14.3 1.2-21.6 1.9-7.4.6-14.9 1.3-22.4 1.8s-15 .9-22.4 1.3c-7.4.3-14.7.6-21.7.6-7 .2-13.9 0-20.3-.1-3.2-.1-6.4-.3-9.4-.4-1.5-.1-3-.1-4.5-.2s-2.9-.2-4.3-.3c-2.8-.2-5.5-.4-8.1-.6s-5-.6-7.3-.8c-4.5-.6-8.5-1-11.7-1.6-6.5-1.1-10.2-1.8-10.2-1.8s3.7.5 10.2 1.4c3.2.5 7.2.8 11.8 1.3 4.5.5 9.7.7 15.3 1.1 1.4.1 2.8.2 4.3.2s3 .1 4.5.1c3 .1 6.2.2 9.4.2 6.4 0 13.2 0 20.3-.2 7-.1 14.3-.5 21.7-.8 7.4-.4 14.9-.9 22.3-1.4 7.5-.5 15-1.1 22.3-1.6 7.4-.6 14.6-1.2 21.6-1.8 7-.6 13.8-1.1 20.2-1.5 6.4-.4 12.5-.8 18.2-1.1 2.8-.1 5.5-.3 8.1-.4s5-.2 7.3-.2c4.6-.1 8.6-.3 11.8-.4 6.6-.3 10.3-.7 10.3-.7z"/></svg>