<svg id="Layer_1" xmlns="http://www.w3.org/2000/svg" viewBox="0 0 700 700"><style>.st0,.st1{fill:none}.st1{stroke:#000;stroke-width:5;stroke-miterlimit:10}.st2{opacity:.9;fill:url(#SVGID_1_)}.st3{fill:url(#SVGID_2_)}.st4{stroke-width:2}.st4,.st5{fill:none;stroke:#000;stroke-miterlimit:10}.st6{fill:#ffec00}</style><path class="st0" d="M0 0h700v700H0z"/><path class="st1" d="M6708.6-568.1c.3 38.5.2 82.4-5.7 120.5-2.3 14.7-3.7 31.7-10.6 44.9-9.4 17.9-18.6 35.9-34 49.5-5.5 4.9-11.5 9.2-17.9 12.8-4.2 2.3-15.3 5.1-15.9 10.8-.4 3.6 3.8 5.7 6.9 7.6 6.9 4.3 10.9 12.3 11.6 20.4 1.5 15.4-5.6 30.7-18.9 38.8-.8.5-1.6 1-1.9 1.8-.7 2.1 2.1 3.4 4.2 3.8 12.1 2.1 24 5 35.7 8.7 7.7 2.4 24.3 10.6 12 18.5-7.7 4.9-17 6.2-26 7.3-24.7 3.1-49.7 6.2-74.5 3.9-5.6-.5-11.2-1.4-16.8-2.2l-22.5-3.3c-5.3-.8-11.8-2.7-12.7-7.9-1.7-10.2 16.6-15.1 23.6-17.2 4.9-1.5 36.5-4.6 35.6-9.3-.5-2.4-2.8-3.9-4.8-5.4-8.9-6.4-15-16.4-16.6-27.2-1.6-10.8 1.3-22.2 7.9-30.9 2.2-2.9 4.9-6 4.4-9.6-.2-1.5-1-2.9-2-4.1-5.1-6.7-15.9-9.5-22.8-14.7-7.9-6-15.2-12.8-21.6-20.4-12.5-14.5-22.1-31.5-27.6-49.9-5.2-17.2-6.9-35.3-8.2-53.2-2.3-31-3.6-62-3.8-93.1 20.2-2.4 42-1.8 62.4-1.4 52.8 1.1 160.5-1.6 160.5.5z"/><path d="M6582-253.2v1.9c0 .6.1 1.3.6 1.9.4.6 1.2.8 2.2.8 2.1-.1 4.5-.2 7.1-.2 1.3 0 2.7-.1 4-.1 1.4-.1 2.8-.1 4.1-.2 1.4-.1 2.8-.1 4.1-.2 1.4-.1 2.7-.1 4-.2 2.6-.1 5-.2 7.1-.3 2-.1 3.7-.6 4.6-1.3.4-.4.7-.8.8-1.1.1-.3.2-.5.2-.5v.5c-.1.3-.2.8-.6 1.3-.4.5-1.1 1-1.9 1.4-.8.4-1.8.7-2.8.8-2.1.4-4.5.7-7.1.9-1.3.1-2.7.3-4 .4-1.4.1-2.8.2-4.2.2-1.4 0-2.8.1-4.2.1h-4.1c-2.6-.1-5.1-.2-7.2-.4-.5-.1-1.1-.1-1.6-.4-.5-.3-.9-.7-1.1-1.1-.4-.9-.4-1.7-.3-2.3.1-.6.2-1.1.3-1.4-.1-.3 0-.5 0-.5zm-.4-84.6s.6.2 1.6.5c.5.2 1.2.3 1.9.5s1.6.4 2.4.5c.9.2 1.9.3 2.9.5 1 .1 2.1.2 3.3.3 1.1.1 2.3.1 3.5.2h3.6c1.2 0 2.5 0 3.7-.1 1.2 0 2.4-.1 3.6-.1 2.3-.1 4.5-.1 6.3-.3 1.8-.2 3.2-.6 4.1-1.2.4-.3.8-.6 1-.8l.3-.3s-.1.1-.2.4c-.2.3-.4.6-.8 1-.8.8-2.3 1.6-4.2 2-.9.2-2 .4-3 .5-1.1.1-2.2.3-3.3.4l-3.6.3c-1.2.1-2.5.1-3.7.2-1.3 0-2.5 0-3.7-.1-.6 0-1.2-.1-1.8-.1-.6-.1-1.2-.1-1.8-.2-1.2-.1-2.3-.4-3.4-.6-.5-.1-1-.3-1.5-.4-.5-.2-1-.3-1.4-.4-1.8-.6-3.2-1.3-4.2-1.8-1-.6-1.6-.9-1.6-.9zm-50.1 102.1l.3.3c.2.2.5.4 1 .6.9.5 2.3 1 4.2 1.4 1.9.4 4.2.7 6.8 1.1 2.6.4 5.6.7 8.9 1.1 3.3.3 6.8.7 10.6 1 3.7.3 7.7.5 11.8.7 8.2.3 17 .5 25.7.6 4.4.1 8.8.1 13.1.2 4.3 0 8.5.1 12.6 0s8-.4 11.7-.8c3.7-.5 7.2-1.1 10.4-1.7 6.4-1.4 11.6-3 15.2-4.3 1.8-.7 3.2-1.2 4.2-1.6l1.5-.6s-.5.2-1.4.7c-.9.4-2.3 1.1-4.1 1.8-3.5 1.5-8.7 3.5-15.1 5.1-6.4 1.6-14.1 2.9-22.3 3.2-4.1.2-8.4.2-12.7.2-4.3 0-8.7-.1-13.1-.1-4.4-.1-8.8-.2-13.1-.3-4.3-.1-8.6-.4-12.7-.6-4.1-.3-8.1-.6-11.8-1-3.8-.4-7.3-.8-10.6-1.3-1.6-.3-3.2-.5-4.7-.7-1.5-.3-2.9-.5-4.2-.8-2.6-.5-4.9-1-6.8-1.5-1.9-.5-3.3-1.1-4.1-1.7-.4-.3-.7-.5-.9-.7-.3-.2-.4-.3-.4-.3z"/><linearGradient id="SVGID_1_" gradientUnits="userSpaceOnUse" x1="6498.813" y1="-446.236" x2="6704.691" y2="-446.236"><stop offset=".018" stop-color="#801fe3"/><stop offset="1" stop-color="#b7a7ff"/></linearGradient><path class="st2" d="M6498.8-539.9c1.4 24.4 2.7 48.8 4.1 73.2.4 7.9.9 15.9 2.2 23.7 1.8 11.1 5.4 21.8 8.9 32.5 3 9.1 6 18.2 11.1 26.3 17.8 28.1 51.5 32.7 81.9 31.3 10.6-.5 21.3-1.5 31.5-4.7 66.9-21.3 65.2-117 66.1-172.7 0-2.6.1-5.1.1-7.7-68.7 2.2-137.5 4-205.9-1.9z"/><path d="M6493.7-559.6s.6 8.1 1.5 22.2c.5 7.1 1 15.6 1.7 25.5.6 9.8 1.4 20.9 2.1 33.1.4 6.1.7 12.4 1.3 18.9.5 6.5 1.4 13.2 3 19.9 1.6 6.7 3.7 13.5 6 20.4 2.4 6.9 4.5 14 7.5 20.9.8 1.7 1.5 3.4 2.4 5.1.9 1.6 1.8 3.3 2.8 4.8 1.1 1.6 2.2 3.1 3.4 4.7 1.2 1.4 2.5 2.8 3.7 4.3 5.3 5.5 11.7 10 18.8 13.2 7.1 3.3 14.8 5.4 22.6 6.6 7.9 1.3 15.9 1.7 23.9 1.7 8-.1 16.1-.4 24-1.5 3.9-.5 7.9-1.2 11.7-2.2 1-.3 1.9-.5 2.8-.8l.7-.2h.1l.2-.1.4-.1 1.4-.5 2.8-1c.5-.2.9-.3 1.4-.5l1.3-.6c7.1-3.1 13.7-7.4 19.4-12.5 5.7-5.1 10.5-11.1 14.4-17.5 4-6.3 7.1-13.1 9.7-19.8 2.6-6.8 4.6-13.6 6.3-20.3 3.2-13.5 5-26.5 6.2-38.5 1.1-12.1 1.7-23.2 2-33 .3-9.9.5-18.4.7-25.5.2-14.2.4-22.2.4-22.2s0 2 .1 5.8c0 3.8.1 9.4.2 16.4 0 7.1 0 15.7-.2 25.5-.1 9.9-.5 21-1.5 33.1-1 12.1-2.6 25.2-5.7 38.9-1.6 6.8-3.6 13.7-6.1 20.6-2.5 6.9-5.7 13.8-9.8 20.3-4 6.5-9 12.7-14.8 18.1-5.9 5.4-12.7 9.8-20.2 13.1l-1.4.6c-.5.2-.9.4-1.4.5l-2.8 1-1.4.5-.4.1-.2.1-.2.1-.7.2c-1 .3-2 .6-2.9.8-3.9 1-8 1.8-12 2.4-8.1 1.1-16.2 1.5-24.4 1.6-8.2 0-16.3-.5-24.4-1.8-8-1.3-16-3.5-23.3-7-7.4-3.4-14.1-8.1-19.6-13.9-1.3-1.5-2.6-3.1-3.9-4.6-1.1-1.6-2.2-3.2-3.3-4.7-2.2-3.4-3.9-6.8-5.4-10.4-3-7.1-5.2-14.2-7.5-21.2-2.2-7-4.3-13.9-5.8-20.7-1.6-6.9-2.4-13.6-2.8-20.2-.5-6.6-.7-12.9-1-18.9-.6-12.1-1.1-23.2-1.6-33.1-.5-9.9-.8-18.4-1.2-25.5-.7-14.2-1-22.2-1-22.2z"/><path d="M6494.1-544.2s.8 0 2.4.1c1.6.1 3.8.2 6.7.3 2.9.2 6.4.3 10.5.5 4 .2 8.6.3 13.6.5s10.4.3 16.1.5c5.7.2 11.7.2 17.9.4 6.2.1 12.6.1 19.2.2 6.5.1 13.2 0 19.8.1 6.6 0 13.3 0 19.8-.1s13-.1 19.2-.2c12.5-.1 24.1-.2 34-.3 10-.1 18.3-.1 24.1-.1h9.1s-.8.1-2.4.2c-1.6.1-3.8.2-6.7.4-5.8.3-14.1.8-24.1 1.3-10 .5-21.6.9-34 1.3-6.2.1-12.7.4-19.2.4-6.5.1-13.2.1-19.8.2-6.6 0-13.3 0-19.8-.2-6.5-.1-13-.3-19.2-.4-6.2-.2-12.3-.4-18-.8-2.9-.2-5.6-.3-8.3-.5-2.7-.2-5.3-.4-7.8-.5-2.5-.2-4.9-.3-7.1-.5-2.3-.2-4.4-.4-6.4-.6-4-.4-7.6-.7-10.4-1-2.9-.3-5.2-.6-6.7-.7-1.7-.4-2.5-.5-2.5-.5z"/><linearGradient id="SVGID_2_" gradientUnits="userSpaceOnUse" x1="308.713" y1="147.289" x2="308.713" y2="501.962"><stop offset="0" stop-color="#fff"/><stop offset=".159" stop-color="#fc247c"/></linearGradient><path class="st3" d="M396.2 255.1c-9-34.5-11.6-71.5-7.6-107.5-.7 0-1.5.1-2.2.1-31.3 1.9-62.7 3.8-94 5.6-21.6 1.3-43.7 2.5-64.3-5.7-.4-.2-.8-.3-1.1-.5 2.5 24 1.5 48.5-3 72-6.9 35.8-21.7 105.7-21.9 142.5-.1 19.6 4 38.8 8.9 57.4 6.4 24.2 23.9 48.1 40.1 63.1 16.5 15.3 34.4 19.6 54.4 19.7 18.2.1 31.6.2 49-8.7 2.3-1.2 11.1-8.8 13.3-11.2 15.2-16.7 27.8-29.1 36.9-52.7 9.1-23.6 13.6-50.7 8.7-76.5-4-21.1-11.7-76.9-17.2-97.6z"/><path class="st1" d="M412.2 76.5c-3.4 18.5-6.9 36.9-10.3 55.4-2.1 11.1-4.1 22.3-4.2 33.7 0 7.9 1 15.7 1.9 23.5 5.1 40.8 17.5 113.1 24.6 153 2.1 11.9 3.5 23.1 2.7 35.3-2.3 33.4-14.1 65.6-32.8 89.5-9.8 12.5-22.1 23-32.8 34.8-9 9.9-23.4 24.2-23 38.3.1 2.7.5 5.4 1.6 7.8.9 2 2.1 3.8 3.2 5.6 9.9 17.5-.3 32-8.6 47.1-5.1 9.3 7.7 25.6 12.9 33.2 7.3 10.5 16.8 21.3 29.1 26 12.6 4.8 25 10.9 38.3 12 7.2.6 7.8 6.6 5.8 10.6-1.2 2.5-4.1 3.4-6.7 4.1-43.7 11.3-86.8 14.9-131.8 13.5-25.5-.8-72.2-5.6-82.3-14.3-3.5-3-3.9-7.1-.6-10.4 2-2 7-1.9 9.7-2.3 27.5-4.3 56-14.9 70.8-39.3 5.7-9.5 17.7-26.9 11.1-38.3-1.2-2-2.9-3.7-4.4-5.6-7.6-9.7-7-24.1-1.5-35.1 2-3.9 4.5-7.6 5.4-11.9 2.8-14.8-16.2-28.7-26.1-36.9-23-19.2-45.1-37.3-56.5-70.8-13.4-39.8-15.9-129-3.4-169.4 2.8-9 6.4-17.6 9.1-26.7 15.1-49.8 9.4-108.5-4.9-157.7 67.3-2.8 136.4-2.1 203.7-4.7z"/><path d="M262.4 660.6s1.4.5 3.8 1.4c.6.2 1.2.5 2 .7.7.2 1.5.5 2.4.7.8.3 1.7.5 2.7.8 1 .3 2 .5 3 .8 1 .3 2.1.6 3.3.9 1.1.2 2.3.5 3.5.8.6.1 1.2.3 1.8.4.6.1 1.3.2 1.9.3 1.3.2 2.6.5 3.9.7 2.7.3 5.4.7 8.3.9 2.8.3 5.7.3 8.6.4 2.9-.1 5.8 0 8.6-.3 2.8-.1 5.6-.5 8.3-.8l3.9-.6c.6-.1 1.3-.2 1.9-.3.6-.1 1.2-.3 1.8-.4 1.2-.3 2.4-.5 3.5-.7 1.1-.2 2.2-.6 3.3-.8 1-.3 2.1-.5 3-.8.9-.3 1.8-.6 2.7-.8.8-.3 1.6-.5 2.4-.7.7-.2 1.4-.5 2-.7 2.4-.9 3.8-1.3 3.8-1.3s-1.3.6-3.6 1.7c-.6.3-1.2.6-1.9.9-.7.3-1.5.6-2.3.9-.8.3-1.7.7-2.6 1-.9.3-1.9.6-3 1-1 .3-2.1.7-3.3 1-1.1.3-2.3.6-3.5.9-.6.1-1.2.3-1.9.5-.6.1-1.3.3-1.9.4-1.3.3-2.6.5-4 .7-2.7.4-5.5.8-8.4 1-2.9.3-5.8.3-8.7.4-2.9-.1-5.9-.1-8.7-.4-2.9-.2-5.7-.7-8.4-1.1-1.4-.2-2.7-.5-4-.8-.6-.1-1.3-.3-1.9-.4-.6-.1-1.2-.3-1.8-.5-1.2-.3-2.4-.6-3.5-.9-1.1-.3-2.2-.7-3.3-1-1-.3-2-.6-3-1-.9-.4-1.8-.7-2.6-1.1-.8-.3-1.6-.6-2.3-.9-.7-.3-1.3-.6-1.9-.9-2.6-1.3-3.9-2-3.9-2zm26.5-27.7s.7.1 2 .3c.6.1 1.4.2 2.2.4.9.1 1.8.3 2.9.4 1.1.2 2.2.3 3.4.4 1.2.2 2.5.2 3.8.3 1.3.1 2.7.2 4.1.2 1.4.1 2.8.1 4.2.1 1.4 0 2.8 0 4.2-.1 1.4-.1 2.8-.2 4.1-.3 1.3-.2 2.6-.2 3.8-.4 1.2-.2 2.4-.3 3.4-.5 1.1-.1 2-.3 2.9-.5.9-.1 1.6-.3 2.2-.4 1.2-.2 2-.3 2-.3s-.7.3-1.9.7c-.6.2-1.3.5-2.2.7-.8.3-1.8.6-2.9.8-1.1.3-2.2.6-3.4.8-1.2.3-2.5.5-3.9.7-1.4.2-2.8.4-4.2.4-1.4.1-2.9.1-4.3.2-1.5 0-2.9 0-4.4-.1-1.4 0-2.8-.2-4.2-.4-1.4-.2-2.7-.4-3.9-.6-1.2-.2-2.4-.5-3.4-.8-1.1-.2-2-.5-2.9-.8-.9-.2-1.6-.5-2.2-.7-.7-.2-1.4-.5-1.4-.5zm-98.3 47.6s.8.3 2.4.7c.4.1.8.3 1.3.4.5.1 1 .2 1.6.4 1.2.3 2.5.6 3.9.9 1.5.3 3.1.6 4.9 1 1.8.3 3.8.6 5.8 1 2.1.3 4.3.6 6.7 1 2.4.3 4.8.6 7.4 1 5.2.6 10.8 1.3 16.7 1.9 5.9.6 12.2 1.1 18.7 1.7 6.5.5 13.2 1.1 20 1.4 6.8.2 13.7.2 20.7.1 6.9-.1 13.8-.4 20.7-.8 6.8-.4 13.5-.8 20-1.3s12.7-1 18.7-1.6c5.9-.6 11.5-1.2 16.7-1.9 2.6-.3 5.1-.6 7.4-1 2.4-.3 4.6-.6 6.7-.9 4.2-.6 7.8-1.2 10.8-1.7 3-.5 5.4-.9 7-1.2 1.6-.3 2.5-.4 2.5-.4s-.8.2-2.4.5c-1.6.3-3.9.9-6.9 1.4-3 .6-6.6 1.3-10.8 2-4.2.7-8.9 1.5-14 2.2-5.2.7-10.8 1.5-16.7 2.2-5.9.7-12.2 1.4-18.7 1.9s-13.2 1-20 1.4c-6.8.4-13.8.8-20.7.9-7 .1-13.9 0-20.8-.2-6.9-.3-13.6-.9-20.1-1.5-13-1.2-25-2.7-35.4-4.2-2.6-.4-5-.8-7.4-1.1-2.3-.4-4.6-.8-6.6-1.2-2.1-.4-4-.8-5.8-1.2-1.8-.4-3.4-.8-4.9-1.1-1.5-.3-2.8-.7-3.9-1.1-.6-.2-1.1-.3-1.6-.5s-.9-.3-1.3-.5c-1.8-.3-2.6-.6-2.6-.6zm27-587.2s.3.9.8 2.5c.5 1.7 1.4 4.1 2.3 7.4 1.9 6.5 4.4 16.2 6.4 28.8.5 3.2 1 6.5 1.3 10 .5 3.5.7 7.2 1 11 .5 7.7.8 16 .5 24.9-.2 8.9-1 18.3-2.4 28.2-1.5 9.9-3.6 20.1-5.6 30.8-4.1 21.4-8.5 44.6-12.3 69.3-1.8 12.3-3.5 25.1-4.5 38.1-.5 6.5-.8 13.1-.5 19.7.2 6.6 1 13.3 2 20 1 6.7 2.4 13.4 4 20.1.8 3.4 1.6 6.7 2.5 10.1.9 3.4 1.9 6.6 3.1 9.9 4.9 13 12.3 25.1 21 36.3 4.4 5.6 9.2 10.9 14.3 15.8.6.6 1.3 1.3 1.9 1.8l2 1.8c.7.6 1.4 1.1 2.1 1.7.7.5 1.4 1.1 2.1 1.6 2.9 2.1 5.9 4 9 5.6 3.2 1.6 6.4 3 9.8 4.1 3.4 1.1 6.8 2 10.3 2.6 3.5.6 7.1 1 10.6 1.2 3.6.2 7.2.2 10.8.2 7.3 0 14.5 0 21.5-1.1 7.1-1 13.9-3.1 20.4-6.1 12.2-6.5 21.3-18.6 30.8-29 4.6-5.4 8.9-11.1 12.5-17 3.6-6 6.7-12.3 9.2-18.7 5-13 8.4-26.4 9.8-39.9.7-6.7.9-13.4.6-20-.2-3.3-.5-6.6-.9-9.8-.4-3.2-1-6.5-1.6-9.7-2.2-13-4.1-25.7-6-38-1.9-12.3-3.8-24.3-5.9-35.9-1-5.8-2.1-11.4-3.4-16.9-.7-2.8-1.3-5.5-2-8.2l-1.8-8.1c-4.4-21.4-6-41.5-6-59.3 0-17.8 1.5-33.2 3.4-45.8 1.9-12.6 4.2-22.3 6-28.9.9-3.3 1.6-5.8 2.1-7.5.5-1.7.8-2.6.8-2.6s-.2.9-.7 2.6c-.5 1.7-1.1 4.2-2 7.5-1.6 6.6-3.7 16.4-5.5 29-1.7 12.6-3.1 28-2.8 45.7 0 4.4.2 9 .5 13.7.3 4.7.7 9.5 1.2 14.4s1.2 10 2 15.1 1.8 10.4 2.9 15.7c.6 2.7 1.2 5.3 1.8 8 .7 2.7 1.4 5.4 2.1 8.2 1.3 5.5 2.5 11.2 3.5 17 2.2 11.6 4.2 23.6 6.2 35.9 2 12.3 4 25 6.3 37.9.6 3.2 1.2 6.5 1.7 9.8.4 3.3.8 6.7.9 10.1.3 6.8.1 13.6-.6 20.4-1.4 13.7-4.8 27.4-9.8 40.5-2.5 6.6-5.7 13.1-9.4 19.2s-8.1 11.9-12.7 17.4c-4.7 5.5-9.6 10.8-14.4 16.1l-.9 1c-.3.4-.7.7-1 1-.7.6-1.3 1.3-2 1.9-1.4 1.2-2.7 2.4-4.1 3.6-1.4 1.2-2.8 2.3-4.3 3.5-.4.3-.7.5-1.2.9-.2.2-.4.3-.6.4 0 0-.3.2-.4.2l-.3.2-2.5 1.2c-6.7 3.1-13.8 5.4-21.2 6.4-7.3 1.1-14.7 1.1-22 1.1-3.6 0-7.3 0-11-.3s-7.3-.7-11-1.3c-3.6-.7-7.2-1.6-10.7-2.7-3.5-1.2-6.9-2.7-10.2-4.3-3.3-1.8-6.4-3.7-9.4-5.9-.8-.5-1.5-1.1-2.2-1.7-.7-.6-1.5-1.1-2.1-1.8l-2-1.8c-.7-.6-1.3-1.3-2-1.9-5.2-5.1-10.1-10.5-14.5-16.1-8.9-11.4-16.4-23.8-21.4-37.1-1.2-3.3-2.3-6.8-3.2-10.1-.9-3.4-1.7-6.8-2.5-10.1-1.6-6.8-3-13.5-4-20.3-1-6.8-1.8-13.6-2-20.3-.3-6.7 0-13.4.6-20 1-13.1 2.8-25.9 4.8-38.2 3.9-24.7 8.5-47.9 12.8-69.3 2.1-10.7 4.3-20.9 5.8-30.7s2.4-19.2 2.7-28c.3-8.8.2-17.1-.2-24.8-.3-3.8-.5-7.5-.9-11-.3-3.5-.8-6.8-1.2-10-1.8-12.6-4.1-22.3-5.9-28.9-.8-3.3-1.7-5.8-2.2-7.5-.5-1.6-.8-2.5-.8-2.5z"/><path d="M228.7 148.7s.7.1 1.9.4c.6.1 1.4.3 2.3.5.9.2 1.9.4 3.1.6 2.3.4 5.1.9 8.3 1.3 3.2.4 6.8.8 10.8 1.1 4 .3 8.3.4 12.8.6 4.6.1 9.4.3 14.4.4 5 .1 10.2 0 15.4-.3 2.6-.1 5.3-.3 7.9-.5 2.7-.2 5.3-.4 8-.6 2.7-.2 5.3-.5 8-.7 2.7-.2 5.3-.4 7.9-.6 5.2-.3 10.4-.7 15.4-1 2.5-.2 5-.3 7.4-.4 2.4-.1 4.8-.2 7-.3 4.6-.2 8.9-.3 12.9-.4 4-.1 7.7-.1 10.9-.2 3.3 0 6.1-.1 8.4 0 2.3 0 4.2 0 5.4.1h1.9v.3s-.7.1-1.9.2-3.1.3-5.4.6c-2.3.3-5.2.5-8.4.8-3.2.3-6.9.6-10.9.9-4 .3-8.3.6-12.9.8-2.3.1-4.6.3-7 .4-2.4.1-4.9.2-7.4.3-5 .2-10.2.3-15.4.5-2.6.1-5.3.1-7.9.2-2.7 0-5.3.1-8 .1s-5.3.1-8 .1c-2.7.1-5.3.2-7.9.3-5.2.2-10.4.6-15.4 1-2.5.2-5 .3-7.4.4-1.2.1-2.4.1-3.6.1h-3.5c-4.6 0-9-.3-13-.7-4-.4-7.7-1-10.9-1.6-1.6-.3-3.1-.6-4.5-1-1.4-.3-2.6-.6-3.8-1-1.1-.4-2.1-.7-3-.9-.9-.3-1.6-.6-2.2-.8-1.2-.4-1.8-.7-1.8-.7l.1-.3z"/><path class="st4" d="M311.2 58.4c22.6 16.2 20.5 17.4 43.3 33.5 22 15.5 44.1 30.9 68.5 41.8 24.1 10.7 50.4 17.1 71.4 33.1 4.6 3.6 9.2 7.7 14.7 9.2 1.4-36-4.6-70.9-17.5-100.7-2.6-6.2-21.7-28.7-28.4-33.5-15.6-11.1-30-16.9-49.3-19.3-25.7-3.3-43.4-2.7-68.4 14.3-8.5 5.9-25 14.5-34.3 21.6z"/><path class="st5" d="M319.1 65c1.8-1.8 3.4-3.1 5.3-4.7 3.8-3.6 8.2-5.9 12.6-8.2 23.5-12.4 45-20.5 68.9-18.8 14.4 1.6 27.8 7.2 40.9 12.6 7.2 3 14.5 6.1 20.4 11.4 8.7 7.8 13.8 19.9 18.1 32.1 7.4 20.8 13.6 43 10.6 67.8-.3 3-1.8 4.8-3.3 7.6"/><path class="st5" d="M414.2 129.3c1.7-1.9 1.9-4.7 1.2-7.2s-2.2-4.4-4-6.3c-2.9-3-6.6-5.5-10.7-6.1-4.1-.6-8.8 1-10.8 4.6"/><path d="M411.2 114.5c2.4-2.4 4.7-4.8 7.1-7.1l7.2-7 3.6-3.5c1.2-1.2 2.4-2.4 3.6-3.5l7.4-6.8c2.5-2.3 5-4.5 7.5-6.8 1.3-1.1 2.5-2.2 3.8-3.3 1.3-1.1 2.6-2.1 4-3.1s2.9-1.8 4.4-2.6c1.5-.8 3.2-1.3 4.9-1.6 1.7-.3 3.5-.3 5.2 0 1.7.3 3.4.9 4.9 1.8.2.1.4.3.6.4.1.1.3.2.4.3.2.1.4.3.5.4.2.2.3.3.4.5l-.1-.1c1.7 1.6 2.8 3.6 3.7 5.6.9 2 1.5 4.1 2.2 6.2 1.3 4.1 2.5 8.4 2.7 12.8 0 1.1 0 2.2-.1 3.3-.1 1.1-.3 2.2-.6 3.3-.6 2.1-1.6 4.2-2.9 6-1.3 1.8-3.1 3.3-5.1 4.3-2 1-4.1 1.6-6.3 2l-1.6.3-.4.1c-.2 0-.3 0-.4.1l-.8.1-3.2.5-6.4 1-6.4 1-3.2.5c-1.1.2-2.2.3-3.3.4-1.1.1-2.2 0-3.3.1-1.1 0-2.2.1-3.2.2-2.2.1-4.3.3-6.5.5-4.3.4-8.6.9-12.8 2.2 4.1-1.4 8.4-2 12.7-2.5 2.2-.2 4.3-.4 6.5-.6 1.1-.1 2.2-.2 3.3-.2 1.1 0 2.2 0 3.2-.1 1.1-.1 2.1-.2 3.2-.4l3.2-.6 6.4-1.1 6.4-1.1 3.2-.6.8-.1c.1 0 .3 0 .4-.1l.4-.1 1.6-.4c2.1-.5 4.2-1 6.1-2 1.9-1 3.5-2.4 4.7-4.1 1.2-1.7 2.1-3.7 2.7-5.7.3-1 .5-2.1.6-3.1.1-1.1.1-2.1.1-3.2-.1-4.3-1.3-8.4-2.7-12.5-.7-2.1-1.3-4.1-2.2-6.1-.8-1.9-1.9-3.9-3.4-5.2-.1-.2-.2-.3-.3-.4-.1-.1-.2-.2-.4-.3-.4-.2-.7-.6-.9-.6-1.4-.8-2.9-1.4-4.5-1.7-1.6-.3-3.2-.3-4.9 0-.8.1-1.6.3-2.4.6-.4.1-.8.2-1.1.4-.4.2-.8.3-1.1.5-1.5.7-2.9 1.5-4.3 2.5-1.4.9-2.7 2-4 3-1.3 1.1-2.6 2.1-3.8 3.2-2.5 2.2-5 4.4-7.5 6.7l-7.5 6.7c-1.3 1.1-2.4 2.3-3.7 3.4l-3.7 3.5-7.3 6.9c-2.5 2.2-4.9 4.5-7.3 6.9zm11.4 14.7l-4.3-.3v-.2c2.2.1 4.3.2 6.5.2l6.5.1c4.3.1 8.7.1 13-.1 2.2-.1 4.3-.2 6.4-.5l6.4-.9 1.6-.2.8-.1.7-.2 3.2-.8 6.3-1.5c2.1-.5 4.3-1 6.5-1 .6 0 1.1 0 1.7.1l.8.1c.3 0 .6.1.8.1 1.1.2 2.2.5 3.2 1 2 1 3.7 2.5 5.2 4.2 1.4 1.8 2.3 3.9 2.8 6 .6 2.1.8 4.4.6 6.6-.2 2.2-.7 4.3-1.4 6.4-.7 2.1-1.6 4.1-2.6 6-1 1.9-2.2 3.7-3.3 5.6l1.5-2.9c.5-1 1.1-1.9 1.5-2.9.9-2 1.8-4 2.4-6 .6-2.1 1.1-4.2 1.2-6.3.2-2.1-.1-4.3-.7-6.3s-1.5-4-2.8-5.7c-1.3-1.6-3-3-4.9-3.9-.9-.5-1.9-.8-3-.9-.3 0-.5-.1-.8-.1l-.8-.1c-.5 0-1.1-.1-1.6 0-2.1 0-4.2.5-6.3 1-2.1.6-4.2 1-6.3 1.5l-3.2.7c-.3.1-.5.1-.8.2l-.8.1-1.6.2-6.5.8c-2.2.2-4.4.4-6.5.4-4.4.1-8.7.1-13-.1l-6.5-.3c-2.2-.1-4.3-.2-6.5-.4v-.2l4.6.6zM397 110.5l1.7-9 1.7-9 1.7-9 .9-4.5 1-4.5 1-4.5c.3-1.5.7-3 1.1-4.5.8-3 1.8-5.9 2.9-8.7 1.2-2.8 2.5-5.6 4.2-8.2 1.7-2.6 3.7-5 5.9-7.1.9-.7 1.9-1.3 3.1-1.7.6-.2 1.2-.3 1.8-.3.6 0 1.2.1 1.8.2 1.1.3 2.2.8 3.2 1.1l3 1.2c2.1.8 4.2 1.5 6.2 2.3 2.1.8 4.2 1.7 6.1 2.9 1.9 1.2 3.7 2.7 4.9 4.7 1.3 2 1.7 4.4 1.4 6.7-.1 1.1-.4 2.3-.8 3.4s-.9 2.1-1.5 3.1c-1.1 2-2.6 3.7-4 5.4l-16.8 20.7c-2.8 3.4-5.7 6.9-8.6 10.2-1.5 1.7-2.9 3.4-4.4 5-.8.8-1.6 1.6-2.3 2.4-.8.8-1.6 1.6-2.5 2.3l-1.5.9 1.5-1c.9-.7 1.6-1.5 2.4-2.3.8-.8 1.6-1.6 2.3-2.4 1.5-1.7 2.9-3.4 4.3-5.1 2.8-3.4 5.6-6.9 8.4-10.4l16.6-20.9c1.4-1.7 2.8-3.4 3.9-5.3.5-.9 1-1.9 1.4-2.9.4-1 .6-2.1.7-3.1.2-2.1-.2-4.3-1.3-6.1-1.1-1.8-2.8-3.3-4.6-4.4-1.9-1.1-3.9-2-6-2.8l-6.2-2.3-3.1-1.2c-1-.4-2.1-.8-3.1-1.1-.5-.1-1-.2-1.5-.2s-1 .1-1.5.2c-1 .3-1.9.9-2.8 1.5-2.2 2-4.2 4.4-5.8 6.9-1.7 2.5-3 5.3-4.2 8.1-1.2 2.8-2.1 5.7-3 8.6-.4 1.5-.8 2.9-1.2 4.4l-1 4.5-1 4.5c-.3 1.5-.7 3-1 4.5l-1.8 9-1.8 9-1.8 8.8zm-11.5 1.5s-1.2-2.2-3.3-6.2l-3.6-7.2c-1.4-2.8-2.9-5.9-4.6-9.3-1.5-3.5-3.2-7.3-4.9-11.3-1.7-4-3.4-8.3-5-12.8-1.5-4.5-3.2-9.1-4.7-13.9-.2-.6-.4-1.2-.5-1.8-.2-.6-.3-1.3-.3-2s.3-1.5.8-2c.5-.6.9-1 1.5-1.4 2.2-1.5 4.8-2.3 7.3-2.5 5.3-.3 10.4 1.5 14.6 4.2 2.1 1.4 4 3.2 5.3 5.4 1.3 2.2 1.8 4.7 2 7.1.4 4.8.7 9.3 1.1 13.7.3 4.4.6 8.5.9 12.3.9 15.2 1.4 25.3 1.4 25.3s-.2-2.5-.6-7c-.3-4.4-.8-10.8-1.4-18.3-.7-7.6-1.4-16.4-2.3-25.9-.3-2.3-.7-4.7-1.9-6.7s-3-3.8-5-5.1c-4.1-2.7-9.1-4.3-14-4-2.5.2-4.9 1-6.9 2.3-1 .7-1.9 1.5-1.9 2.6 0 .5.1 1.1.3 1.7.2.6.3 1.2.5 1.8 1.5 4.7 3.1 9.4 4.6 13.9 3.2 8.9 6.6 17.1 9.6 24.2 3.2 6.9 5.9 12.6 7.8 16.7 2.1 3.9 3.2 6.2 3.2 6.2zm-7.8-4.9s-.2-.1-.3-.3c-.2-.2-.4-.4-.5-.7-.1-.3-.2-.6-.1-.9 0-.3.1-.5.1-.5s.2.1.4.3c.2.2.4.4.5.7.1.3.2.6.1.9 0 .3-.2.5-.2.5z"/><path d="M327.2 66.9l2.7-2.6c1.1-.9 2.2-1.8 3.6-2.4 1.3-.6 2.8-.9 4.2-.9.7 0 1.5.1 2.2.3.4.1.7.2 1 .3.3.1.7.3 1 .4 1.3.6 2.5 1.5 3.6 2.5.5.5 1 1.1 1.5 1.6l1.3 1.6L351 71l5.4 6.6 5.2 6.7 2.6 3.3c.9 1.1 1.8 2.2 2.6 3.3l2.6 3.4c.9 1.1 1.7 2.2 2.6 3.3l2.6 3.3c.9 1.1 1.6 2.3 2.3 3.6.3.8.5 1.6.6 2.5-.2-.8-.4-1.6-.8-2.4-.7-1.2-1.5-2.4-2.4-3.5l-2.8-3.2-2.7-3.3-2.7-3.3-2.7-3.3-2.7-3.3-5.3-6.6-5.3-6.6-2.6-3.3-1.3-1.7c-.4-.6-.9-1.1-1.4-1.6-1-1-2.1-1.8-3.3-2.4-.3-.2-.6-.3-.9-.4-.3-.1-.7-.3-1-.4-.6-.2-1.3-.3-2-.4-1.4-.1-2.8.2-4 .7-1.3.5-2.5 1.3-3.6 2.2l-2.8 2.7z"/><path class="st5" d="M367.2 355.4c5.1-4.1 8.3-17.3 8.7-23.6.6-10.8 1.1-21.6 1.7-32.3.1-2.3.2-4.8-.8-6.8-1.8-3.7-6.4-4.9-10.4-5.7-9-1.7-18.1-3-27.3-4-8.1-.8-15.3 1.9-23.1 4.5-2.4.8-5 1.9-6.4 4-1 1.5-1.3 3.5-1.5 5.3-1.3 10-2.7 20.1-2.6 30.2 0 5.9.6 12.1 4.1 16.7 4.5 6 12.5 7.9 19.9 9.4 9.7 2 19.3 3.9 29 5.9 1.9.4 4 .8 5.7-.1 1.3-.7 2.2-2.1 3-3.5z"/><path d="M334.6 285.1s.1.3.2.8.4 1.2.6 2.2c.2.9.5 2.1.7 3.4.2 1.3.4 2.9.6 4.5.3 3.3.5 7.2.6 11.4.1 2.1.1 4.2.3 6.4.1 2.2.3 4.4 1 6.4.3 1 .8 1.9 1.5 2.7.7.7 1.6 1.2 2.6 1.6 2 .7 4.1 1.2 6.1 1.8 4 1 7.8 2 11 2.6 3.3.7 6 1.2 7.9 1.5 1.9.3 3 .5 3 .5s-1.1-.1-3-.3c-1.9-.2-4.7-.6-8-1.2s-7.1-1.3-11.1-2.3c-2-.5-4.1-1-6.2-1.7-1.1-.4-2.1-.9-3-1.8-.8-.8-1.4-1.9-1.8-3-.7-2.2-.8-4.5-.9-6.7-.1-2.2-.2-4.3-.2-6.4-.1-4.2-.1-8-.3-11.3-.1-1.7-.2-3.2-.4-4.5-.2-1.3-.3-2.5-.5-3.5s-.3-1.7-.4-2.2c-.3-.6-.3-.9-.3-.9zm4 38.3s.1 0 .3.2c.1.2.1.6-.2 1-.2.4-.7.8-1.1 1.2-.5.4-1 .9-1.6 1.4-1.2 1-2.5 2.1-4 3.3-1.5 1.2-3.1 2.5-4.7 3.7-1.6 1.2-3.2 2.5-4.7 3.6-1.5 1.2-3 2.2-4.2 3.1-1.2.9-2.3 1.6-3 2.1-.7.5-1.2.8-1.2.8s.4-.3 1-.9c.7-.6 1.6-1.4 2.8-2.4 1.2-1 2.5-2.1 4-3.3 1.5-1.2 3.1-2.5 4.7-3.7 1.6-1.2 3.2-2.5 4.7-3.6 1.5-1.2 3-2.2 4.2-3.1.6-.5 1.2-.9 1.7-1.2.5-.4 1-.6 1.2-1 .3-.3.4-.7.3-.9 0-.3-.2-.3-.2-.3z"/><path class="st5" d="M264.7 412.6c-1.9 2.9-2.6 7.1-3.3 10.1-1.7 7.5-3.7 14.9-5.9 22.2-.9 2.9-1.9 5.8-2 8.8-.2 2.9.4 5.5 1.1 8.1 2.3 8.8 6.3 17.4 13.4 19.7 2.4.8 5 .8 7.5.9 11.7.8 22.6 5.6 34.3 6.4 2.7.2 5.5.1 8.2-1.5 4.8-2.9 7.4-9.8 9.1-16.1 2.5-9.5 4-19.2 7.5-28.4 1.2-3 2.6-6.4 1.9-9.3-.7-3.1-13.5-11.1-17.4-14-3.3-2.4-8.2-3.1-12-4-6.3-1.4-12.6-2.4-19-3.3-5.6-.8-11.8-2.5-17.4-2.7-2.8-.2-4.7 1.1-6 3.1z"/><path d="M264 413.2s.8 1 2.2 2.7c1.4 1.7 3.4 4.2 5.8 7.1 2.4 2.9 5.1 6.5 8.6 9.6 1.8 1.5 3.8 2.9 6 3.8 2.3.9 4.7 1.3 7.2 1.5 2.5.2 5 .1 7.5.1s4.9-.1 7.3-.1c4.7-.1 9.2 0 12.9-.4 3.8-.3 6.9-.8 9-1.4 2.1-.5 3.4-.9 3.4-.9l-.9.3c-.6.2-1.4.5-2.4.8-2.1.6-5.2 1.4-9 1.7-3.8.4-8.2.5-13 .7-2.4.1-4.8.1-7.3.2s-5 .1-7.6 0c-2.6-.2-5.1-.6-7.5-1.6-2.4-.9-4.5-2.4-6.3-4-1.8-1.6-3.3-3.3-4.7-5-1.4-1.7-2.6-3.3-3.8-4.8-2.3-3-4.2-5.6-5.5-7.3-1.2-2-1.9-3-1.9-3zm20.4 23.7s-1 2.4-2.5 6.1c-.8 1.8-1.6 4-2.5 6.2-.9 2.3-1.8 4.7-2.7 7.2-.9 2.5-1.8 4.9-2.6 7.2s-1.6 4.5-2.2 6.3c-1.3 3.7-2.1 6.2-2.1 6.2s.1-.6.4-1.8c.3-1.1.6-2.7 1.2-4.6.5-1.9 1.1-4.1 1.9-6.5l1.2-3.6c.4-1.2.9-2.5 1.3-3.7.9-2.5 1.9-4.9 2.9-7.2s1.9-4.4 2.8-6.1c.8-1.8 1.6-3.2 2.1-4.3.5-.8.8-1.4.8-1.4z"/><path class="st6" d="M407.2 113.5c-.6 7-2.7 14.1-3.9 21.1-.4 2.4-1.7 6.2.8 6.9 1.6.4 6.4-2.2 8.1-2.8 5.7-1.8 11.5-3.4 17.4-4.7 11.2-2.5 22.6-4.1 34-4.8 2.9-.2 7.2 0 8.2-2.7 2-5.3.6-11.2-1.4-16.5-2-5.3-4.6-10.4-5.2-16-.2-2.2-.1-4.6-1.4-6.5-.7-1.1-1.8-2-2.7-3-3-3.9-1.5-9.9-4-14.2-1.8-3.1-5.4-4.8-7.2-7.8-.9-1.5-1.3-3.3-2.2-4.8-2.1-3.4-5.7-5.3-9.6-6-3.2-.5-6.2-2.3-8.1-4.8-1.1-1.4-1.9-3.1-3.4-4.2-2.2-1.6-5.2-1.3-7.8-1.8-2.2-.4-4.2-1.3-6.1-2.4-1-.6-2.1-1.3-3.3-1.3-3.5.1-9.2 15-10.7 18.1-3.3 6.5-6.4 13.2-9.3 19.9-6.1 13.9-11.6 28-17.2 42-5 12.5-8.1 24.5-12.4 37.2 8.3-2.3 16.7-4.6 25-7 1.5-.4 3.1-.9 4.6-1.3.7-.2 1.2-11.2 1.5-12.6 1.5-6.7 3.1-13.3 4.6-20 1.9-8.3 3.7-16.6 5.5-24.9.7-3.3.8-9.5 2.7-12.2 1.6-2.3 4.7-2.1 7.3-2 .3 12.8-2.6 26.3-3.8 39.1z"/><path class="st5" d="M388 352.3c.4.4.8.7 1.2 1.2.9 1.2 1.5 2.6 2.1 4 4.4 11.2 4.7 19.8 6.2 31.5.3 2.7.6 5.5-.3 8-1.4 4-5.4 6.4-8.4 9.4-4.2 4.1-6.6 9.6-9.8 14.5s-7.7 9.6-13.5 10.3c-2.3.3-4.7-.1-7-.4-5.1-.8-10.3-1.6-15.4-2.4-5.9-.9-12.1-2-16.9-5.5-7.1-5.3-9.5-14.7-11.3-23.3-1.5-6.9-3-14.4-.1-20.8 1.3-2.9 3.4-5.4 5.4-7.9 3.8-4.5 7.6-8.9 11.3-13.4 12-14.2 35.4-13.4 51.3-7.7 1.9.5 3.7 1.3 5.2 2.5z"/><path d="M346.8 352.8s.4.9 1.1 2.4c.7 1.5 1.8 3.7 3 6.4s2.6 5.7 4.1 9.1c.7 1.7 1.5 3.4 2.3 5.1.8 1.7 1.5 3.5 2.3 5.3.8 1.7 1.7 3.4 3 4.6 1.3 1.2 3 2 4.7 2.4 1.7.5 3.4.8 5.1 1.2 1.6.3 3.2.7 4.6 1 2.8.6 5.2 1.2 6.9 1.5 1.7.4 2.6.6 2.6.6s-1-.2-2.6-.4c-1.7-.3-4.1-.7-6.9-1.2-1.4-.3-3-.5-4.6-.8-1.6-.3-3.4-.5-5.2-1-1.8-.5-3.6-1.2-5.1-2.6-1.5-1.4-2.5-3.1-3.3-4.9-.8-1.8-1.5-3.6-2.3-5.3-.7-1.8-1.5-3.5-2.2-5.2-1.4-3.3-2.7-6.5-3.8-9.2-1.1-2.7-2-4.9-2.6-6.5-.7-1.6-1.1-2.5-1.1-2.5zm15.5 34s-.4.5-1 1.4c-.6.9-1.5 2.1-2.7 3.5-1.1 1.4-2.5 3.1-3.9 4.9-1.5 1.8-3.1 3.6-4.7 5.5-1.6 1.8-3.3 3.7-4.9 5.3-1.6 1.7-3.1 3.2-4.4 4.5-1.3 1.3-2.4 2.4-3.2 3.1-.8.7-1.2 1.2-1.2 1.2s.4-.5 1.1-1.3c.7-.8 1.7-2 2.9-3.4 2.4-2.8 5.7-6.4 8.9-10.1 3.3-3.7 6.5-7.3 8.9-10.1 1.2-1.4 2.3-2.5 3-3.3l1.2-1.2z"/><path class="st5" d="M239.6 355.1c-1.5 4.6-.1 9.7 1.3 14.3 3.6 11.8 7.7 24.5 17.6 31.9 7.1 5.3 16.1 7.1 24.8 8.7 2.6.5 5.4 1 7.8-.1 2.3-1 3.8-3.2 5.2-5.3 4.2-6.4 8.4-12.7 12.5-19.1 3.3-5 6.7-10.4 6.4-16.4-.2-4.3-2.3-8.4-4.3-12.2-3.1-5.9-6.3-11.7-9.4-17.6-.9-1.7-1.8-3.4-3.3-4.7-1.7-1.5-4-2.3-6.3-2.9-9.4-2.6-22.5-6.9-31.1-.6-6.7 5-18.6 16-21.2 24z"/><path d="M247.4 358.5s.1.2.4.6c.3.4.7.9 1.4 1.5s1.5 1.2 2.6 1.8c1.1.6 2.4 1.1 3.8 1.8 1.4.6 2.9 1.4 4.4 2.5 1.5 1.1 2.8 2.3 4.3 3.5 1.5 1.1 3.2 2.1 5.1 2.2 1.9.1 3.8-.7 5.3-2 1.6-1.2 2.9-2.8 4-4.4 1.2-1.6 2.3-3.3 3.3-4.9 2.2-3.2 4.2-6.1 6-8.6 1.8-2.5 3.3-4.6 4.3-6 1.1-1.5 1.7-2.3 1.7-2.3s-.5.9-1.5 2.4-2.3 3.7-4 6.3c-1.7 2.6-3.6 5.6-5.7 8.8-1.1 1.6-2.1 3.3-3.3 4.9-1.2 1.6-2.5 3.3-4.2 4.6-.8.6-1.8 1.2-2.8 1.6l-.8.3-.8.2c-.5.1-1.1.1-1.6.1-2.2-.1-4.1-1.2-5.6-2.4s-2.8-2.5-4.2-3.6c-1.4-1.1-2.8-1.8-4.2-2.5-1.4-.7-2.6-1.3-3.7-2s-2-1.3-2.6-2c-.6-.6-1-1.2-1.3-1.6-.2-.6-.3-.8-.3-.8zM270.7 375.1s.4.3 1.1.8c.4.2.7.6 1.2 1 .2.2.5.4.7.7.2.2.5.5.7.8.5.6 1 1.2 1.5 1.9s1 1.5 1.5 2.2c.5.8 1 1.6 1.4 2.5.5.9.9 1.7 1.4 2.6.9 1.8 1.8 3.5 2.7 5.1.5.8.9 1.6 1.3 2.3.5.7.9 1.4 1.3 2 .2.3.4.6.6.8.2.3.4.5.6.7.4.5.7.9 1.1 1.1l1 1s-.4-.3-1.1-.8c-.4-.3-.8-.6-1.2-1-.2-.2-.5-.4-.7-.7-.2-.2-.5-.5-.7-.8-.5-.6-1-1.2-1.5-1.9s-1-1.5-1.5-2.2c-.5-.8-1-1.6-1.4-2.5-.5-.9-.9-1.7-1.4-2.6-.9-1.8-1.8-3.5-2.7-5.1-.5-.8-.9-1.6-1.3-2.3-.5-.7-.9-1.4-1.3-2-.2-.3-.4-.6-.6-.8-.2-.3-.4-.5-.6-.7-.4-.5-.7-.9-1.1-1.1-.6-.7-1-1-1-1z"/><path class="st4" d="M404.1 141.9c9.5-2.7 19-5.5 28.4-8.5 11.2-3.6 23.3-6.3 35-4.7-4.1-22.4-8.7-45.7-22.7-63.7-9.4-12-23.2-20.1-36.9-26.8-14.9 25.7-23.6 48.8-35.7 78.9-5 12.5-8.1 24.5-12.4 37.2 8.3-2.3 16.7-4.6 25-7 1.5-.4 3.1-.9 4.6-1.3"/><path class="st4" d="M408.3 38.3c-.5-1.1.9-2.3 2.1-2.1 1.2.1 2.2 1 3.1 1.8 1.7 1.3 3.7 2.5 5.8 3.1 2 .5 4.1-.1 6.1.7 3.4 1.3 4.9 5.9 7.9 8 3.8 2.7 9.4 2.6 12.3 6.6 2 2.7 3.8 5.6 6 8.1 1.9 2.2 5.7 3.8 6.7 6.5 1.1 2.7.8 6 1.8 8.9 1.2 3.1 2.8 6 4.8 8.6.7.8 1.4 1.7 1.7 2.7.3 1 .2 2 .2 3-.1 4.6 1 9.1 3.2 13.1.7 1.3 1.6 2.6 2 4 .4 1.5.4 3.1.3 4.7-.2 3.6-.3 7.2-.5 10.8 0 .3 0 .6-.2.9-.3.4-.8.6-1.3.6-1.2.2-2.4.3-3.7.3"/><path d="M412.8 41.6c-1 3-2 5.9-3.1 8.9-1.1 2.9-2.2 5.8-3.5 8.7-2.4 5.8-5.1 11.4-8 17l-1.2-.7 4.5-8c1.5-2.7 3-5.3 4.5-8l4.6-8c1.5-2.7 3.1-5.4 5.2-7.8l1.6-1.8.1 2.4.1 1.4v1.4l-.1 1.3-.2 1.3c-.2.9-.4 1.8-.6 2.6-.2.9-.5 1.7-.8 2.5-1.2 3.3-2.9 6.4-4.5 9.4l-1.6-1 5.6-8.3 2.8-4.2 1.4-2.1c.2-.3.5-.8.9-1.1.4-.4 1-.8 1.7-.8h.6l.2.5c.5 1.3.5 2.8.2 4.1-.3 1.3-.8 2.4-1.4 3.5-.6 1.1-1.2 2.1-1.8 3.1-.6 1-1.1 2.1-1.6 3.2-2.1 4.2-4 8.6-5.9 13l-1-.6c1.4-1.8 2.8-3.7 4.1-5.7l4-5.8c1.4-1.9 2.8-3.8 4.3-5.6 1.5-1.8 3.1-3.6 4.9-5.1-1.7 1.6-3.2 3.4-4.6 5.3-1.4 1.9-2.8 3.8-4 5.8l-3.8 6c-1.3 2-2.6 4-4 5.9l-2.7 3.6 1.7-4.2c1.8-4.4 3.6-8.9 5.6-13.2.5-1.1 1-2.2 1.6-3.2.5-1.1 1.1-2.1 1.7-3.2.5-1 1-2.1 1.2-3.1.2-1 .2-2.1-.2-3l.8.5c-.1 0-.3.1-.5.3-.2.2-.4.5-.6.9l-1.4 2.1-2.8 4.2-5.5 8.3-1.6-1c.8-1.5 1.6-3 2.4-4.6.7-1.5 1.4-3.1 2-4.6.3-.8.6-1.6.8-2.4l.6-2.4.2-1.2.1-1.2v-2.4l1.7.5c-1.9 2.2-3.5 4.8-5.1 7.5l-4.6 7.9c-1.6 2.6-3.1 5.3-4.6 7.9l-4.7 7.9-1.2-.7c1.5-2.7 2.9-5.5 4.3-8.3 1.4-2.8 2.7-5.6 4.1-8.4 1.3-2.8 2.6-5.7 3.8-8.6l1.8-4.3 1.5-4.3zM445.5 66.3c-.9 1.4-1.7 2.8-2.6 4.3-.9 1.4-1.8 2.8-2.8 4.2-1.9 2.7-3.9 5.4-5.9 8.1-4 5.3-8.3 10.4-12.6 15.6l-1-.9c4.2-4.4 8.4-8.9 12.7-13.2l6.4-6.6 3.2-3.3c.5-.5 1.1-1.1 1.8-1.7.7-.5 1.6-1 2.7-1h1l-.1 1c-.1 1.2-.7 2.2-1.3 3-.6.8-1.2 1.5-1.8 2.2l-3.5 4.3c-2.4 2.8-4.7 5.7-7.1 8.5l-1.4-1.4c2.6-2.2 5.2-4.3 7.8-6.3 1.3-1 2.7-2 4-3l1-.7.5-.4.3-.2.4-.2c.5-.3 1-.4 1.6-.4.3 0 .7 0 1.1.3.2.1.4.4.5.6.1.3.1.5.1.7v.3l-.3.2c-4 3.7-8.1 7.4-12.3 10.9-4.2 3.5-8.5 6.9-12.8 10.2l-.8-1c4.8-3.4 9.6-6.9 14.4-10.2l7.2-5.1c1.2-.8 2.4-1.7 3.7-2.4 1.3-.7 2.7-1.3 4.2-1.4-1.5.2-2.8.8-4.1 1.6-1.2.8-2.4 1.7-3.6 2.6l-7 5.3c-4.7 3.6-9.4 7.1-14.1 10.6l-.8-1c4.3-3.4 8.5-6.9 12.5-10.5 2-1.8 4.1-3.6 6.1-5.4 2-1.8 4-3.7 6-5.6l-.3.6s.1.2.2.3h-.1c-.2 0-.6.1-.8.2l-.2.1-.3.2-.5.4-1 .7c-1.3 1-2.7 2-4 3-2.6 2-5.2 4.2-7.7 6.3l-1.4-1.4c2.4-2.8 4.7-5.7 7.1-8.5l3.6-4.2c1.2-1.4 2.5-2.8 2.6-4.1l.9 1c-.5 0-1 .2-1.5.6-.5.4-1 .9-1.6 1.5l-3.2 3.3-6.4 6.5c-4.3 4.4-8.6 8.7-13 13l-1-.9 6.5-7.6 3.2-3.8 3.2-3.8c2.1-2.6 4.2-5.2 6.2-7.8 1-1.3 2-2.7 3-4 1.3-1.4 2.3-2.8 3.2-4.2z"/><g><path d="M406.8 122.8c3.7-3 7.4-6.1 11-9.2 1.8-1.6 3.6-3.1 5.4-4.7 1.8-1.6 3.5-3.2 5.3-4.8l5.2-4.9-4 5.9-4.6 6.8-4.7 6.8-.6-1.5c.3.1.6 0 1-.2s.8-.5 1.1-.9l2.4-2.5c1.6-1.7 3.3-3.3 5.1-4.9 3.4-3.2 7-6.2 10.7-9l5.5-4.2-4.2 5.4c-3.9 5-7.9 9.9-12 14.7-2.1 2.4-4.2 4.8-6.3 7.1-2.1 2.3-4.3 4.6-6.6 6.9l6-7.3 5.9-7.4c1.9-2.5 3.9-5 5.8-7.5s3.8-5 5.7-7.6l1.3 1.3c-3.6 2.9-7.1 5.9-10.5 9.1-1.7 1.6-3.4 3.2-5 4.8l-2.5 2.5c-.5.4-.9.9-1.6 1.2-.6.4-1.5.6-2.4.4l-1.4-.3.8-1.1 4.8-6.8 4.8-6.7 1.2 1c-3.6 3.2-7.3 6.2-11.1 9.2-1.9 1.5-3.8 2.9-5.7 4.3-1.8 1.4-3.8 2.8-5.8 4.1z"/></g></svg>