<?xml version="1.0" encoding="utf-8"?>
<!-- Generator: Adobe Illustrator 19.2.0, SVG Export Plug-In . SVG Version: 6.00 Build 0)  -->
<svg version="1.1" id="Layer_1" xmlns="http://www.w3.org/2000/svg" xmlns:xlink="http://www.w3.org/1999/xlink" x="0px" y="0px"
	 viewBox="0 0 460 685" style="enable-background:new 0 0 460 685;" xml:space="preserve">
<style type="text/css">
	.st0{fill:none;stroke:#000000;stroke-width:5;stroke-miterlimit:10;}
	.st1{opacity:0.9;fill:url(#SVGID_1_);enable-background:new    ;}
	.st2{fill:url(#SVGID_2_);}
	.st3{fill:none;stroke:#000000;stroke-width:2;stroke-miterlimit:10;}
	.st4{fill:none;stroke:#000000;stroke-miterlimit:10;}
	.st5{fill:#FFEC00;}
</style>
<path class="st0" d="M6588.6-585.6c0.3,38.5,0.2,82.4-5.7,120.5c-2.3,14.7-3.7,31.7-10.6,44.9c-9.4,17.9-18.6,35.9-34,49.5
	c-5.5,4.9-11.5,9.2-17.9,12.8c-4.2,2.3-15.3,5.1-15.9,10.8c-0.4,3.6,3.8,5.7,6.9,7.6c6.9,4.3,10.9,12.3,11.6,20.4
	c1.5,15.4-5.6,30.7-18.9,38.8c-0.8,0.5-1.6,1-1.9,1.8c-0.7,2.1,2.1,3.4,4.2,3.8c12.1,2.1,24,5,35.7,8.7c7.7,2.4,24.3,10.6,12,18.5
	c-7.7,4.9-17,6.2-26,7.3c-24.7,3.1-49.7,6.2-74.5,3.9c-5.6-0.5-11.2-1.4-16.8-2.2l-22.5-3.3c-5.3-0.8-11.8-2.7-12.7-7.9
	c-1.7-10.2,16.6-15.1,23.6-17.2c4.9-1.5,36.5-4.6,35.6-9.3c-0.5-2.4-2.8-3.9-4.8-5.4c-8.9-6.4-15-16.4-16.6-27.2
	c-1.6-10.8,1.3-22.2,7.9-30.9c2.2-2.9,4.9-6,4.4-9.6c-0.2-1.5-1-2.9-2-4.1c-5.1-6.7-15.9-9.5-22.8-14.7c-7.9-6-15.2-12.8-21.6-20.4
	c-12.5-14.5-22.1-31.5-27.6-49.9c-5.2-17.2-6.9-35.3-8.2-53.2c-2.3-31-3.6-62-3.8-93.1c20.2-2.4,42-1.8,62.4-1.4
	C6480.9-585,6588.6-587.7,6588.6-585.6L6588.6-585.6z"/>
<path d="M6462-270.7v1.9c0,0.6,0.1,1.3,0.6,1.9c0.4,0.6,1.2,0.8,2.2,0.8c2.1-0.1,4.5-0.2,7.1-0.2c1.3,0,2.7-0.1,4-0.1
	c1.4-0.1,2.8-0.1,4.1-0.2c1.4-0.1,2.8-0.1,4.1-0.2c1.4-0.1,2.7-0.1,4-0.2c2.6-0.1,5-0.2,7.1-0.3c2-0.1,3.7-0.6,4.6-1.3
	c0.4-0.4,0.7-0.8,0.8-1.1c0.1-0.3,0.2-0.5,0.2-0.5v0.5c-0.1,0.3-0.2,0.8-0.6,1.3s-1.1,1-1.9,1.4c-0.8,0.4-1.8,0.7-2.8,0.8
	c-2.1,0.4-4.5,0.7-7.1,0.9c-1.3,0.1-2.7,0.3-4,0.4c-1.4,0.1-2.8,0.2-4.2,0.2c-1.4,0-2.8,0.1-4.2,0.1h-4.1c-2.6-0.1-5.1-0.2-7.2-0.4
	c-0.5-0.1-1.1-0.1-1.6-0.4s-0.9-0.7-1.1-1.1c-0.4-0.9-0.4-1.7-0.3-2.3s0.2-1.1,0.3-1.4C6461.9-270.5,6462-270.7,6462-270.7
	L6462-270.7z M6461.6-355.3c0,0,0.6,0.2,1.6,0.5c0.5,0.2,1.2,0.3,1.9,0.5s1.6,0.4,2.4,0.5c0.9,0.2,1.9,0.3,2.9,0.5
	c1,0.1,2.1,0.2,3.3,0.3c1.1,0.1,2.3,0.1,3.5,0.2h3.6c1.2,0,2.5,0,3.7-0.1c1.2,0,2.4-0.1,3.6-0.1c2.3-0.1,4.5-0.1,6.3-0.3
	c1.8-0.2,3.2-0.6,4.1-1.2c0.4-0.3,0.8-0.6,1-0.8l0.3-0.3c0,0-0.1,0.1-0.2,0.4c-0.2,0.3-0.4,0.6-0.8,1c-0.8,0.8-2.3,1.6-4.2,2
	c-0.9,0.2-2,0.4-3,0.5c-1.1,0.1-2.2,0.3-3.3,0.4l-3.6,0.3c-1.2,0.1-2.5,0.1-3.7,0.2c-1.3,0-2.5,0-3.7-0.1c-0.6,0-1.2-0.1-1.8-0.1
	c-0.6-0.1-1.2-0.1-1.8-0.2c-1.2-0.1-2.3-0.4-3.4-0.6c-0.5-0.1-1-0.3-1.5-0.4c-0.5-0.2-1-0.3-1.4-0.4c-1.8-0.6-3.2-1.3-4.2-1.8
	C6462.2-355,6461.6-355.3,6461.6-355.3L6461.6-355.3z M6411.5-253.2l0.3,0.3c0.2,0.2,0.5,0.4,1,0.6c0.9,0.5,2.3,1,4.2,1.4
	c1.9,0.4,4.2,0.7,6.8,1.1c2.6,0.4,5.6,0.7,8.9,1.1c3.3,0.3,6.8,0.7,10.6,1c3.7,0.3,7.7,0.5,11.8,0.7c8.2,0.3,17,0.5,25.7,0.6
	c4.4,0.1,8.8,0.1,13.1,0.2c4.3,0,8.5,0.1,12.6,0s8-0.4,11.7-0.8c3.7-0.5,7.2-1.1,10.4-1.7c6.4-1.4,11.6-3,15.2-4.3
	c1.8-0.7,3.2-1.2,4.2-1.6l1.5-0.6c0,0-0.5,0.2-1.4,0.7c-0.9,0.4-2.3,1.1-4.1,1.8c-3.5,1.5-8.7,3.5-15.1,5.1s-14.1,2.9-22.3,3.2
	c-4.1,0.2-8.4,0.2-12.7,0.2c-4.3,0-8.7-0.1-13.1-0.1c-4.4-0.1-8.8-0.2-13.1-0.3c-4.3-0.1-8.6-0.4-12.7-0.6c-4.1-0.3-8.1-0.6-11.8-1
	c-3.8-0.4-7.3-0.8-10.6-1.3c-1.6-0.3-3.2-0.5-4.7-0.7c-1.5-0.3-2.9-0.5-4.2-0.8c-2.6-0.5-4.9-1-6.8-1.5s-3.3-1.1-4.1-1.7
	c-0.4-0.3-0.7-0.5-0.9-0.7C6411.6-253.1,6411.5-253.2,6411.5-253.2L6411.5-253.2z"/>
<linearGradient id="SVGID_1_" gradientUnits="userSpaceOnUse" x1="6378.7998" y1="-970.7888" x2="6584.7002" y2="-970.7888" gradientTransform="matrix(1 0 0 1 0 507)">
	<stop  offset="1.800000e-02" style="stop-color:#801FE3"/>
	<stop  offset="1" style="stop-color:#B7A7FF"/>
</linearGradient>
<path class="st1" d="M6378.8-557.4c1.4,24.4,2.7,48.8,4.1,73.2c0.4,7.9,0.9,15.9,2.2,23.7c1.8,11.1,5.4,21.8,8.9,32.5
	c3,9.1,6,18.2,11.1,26.3c17.8,28.1,51.5,32.7,81.9,31.3c10.6-0.5,21.3-1.5,31.5-4.7c66.9-21.3,65.2-117,66.1-172.7
	c0-2.6,0.1-5.1,0.1-7.7C6516-553.3,6447.2-551.5,6378.8-557.4L6378.8-557.4z"/>
<path d="M6373.7-577.1c0,0,0.6,8.1,1.5,22.2c0.5,7.1,1,15.6,1.7,25.5c0.6,9.8,1.4,20.9,2.1,33.1c0.4,6.1,0.7,12.4,1.3,18.9
	c0.5,6.5,1.4,13.2,3,19.9c1.6,6.7,3.7,13.5,6,20.4c2.4,6.9,4.5,14,7.5,20.9c0.8,1.7,1.5,3.4,2.4,5.1c0.9,1.6,1.8,3.3,2.8,4.8
	c1.1,1.6,2.2,3.1,3.4,4.7c1.2,1.4,2.5,2.8,3.7,4.3c5.3,5.5,11.7,10,18.8,13.2c7.1,3.3,14.8,5.4,22.6,6.6c7.9,1.3,15.9,1.7,23.9,1.7
	c8-0.1,16.1-0.4,24-1.5c3.9-0.5,7.9-1.2,11.7-2.2c1-0.3,1.9-0.5,2.8-0.8l0.7-0.2h0.1l0.2-0.1l0.4-0.1l1.4-0.5l2.8-1
	c0.5-0.2,0.9-0.3,1.4-0.5l1.3-0.6c7.1-3.1,13.7-7.4,19.4-12.5c5.7-5.1,10.5-11.1,14.4-17.5c4-6.3,7.1-13.1,9.7-19.8
	c2.6-6.8,4.6-13.6,6.3-20.3c3.2-13.5,5-26.5,6.2-38.5c1.1-12.1,1.7-23.2,2-33c0.3-9.9,0.5-18.4,0.7-25.5c0.2-14.2,0.4-22.2,0.4-22.2
	s0,2,0.1,5.8c0,3.8,0.1,9.4,0.2,16.4c0,7.1,0,15.7-0.2,25.5c-0.1,9.9-0.5,21-1.5,33.1s-2.6,25.2-5.7,38.9
	c-1.6,6.8-3.6,13.7-6.1,20.6s-5.7,13.8-9.8,20.3c-4,6.5-9,12.7-14.8,18.1c-5.9,5.4-12.7,9.8-20.2,13.1l-1.4,0.6
	c-0.5,0.2-0.9,0.4-1.4,0.5l-2.8,1l-1.4,0.5l-0.4,0.1l-0.2,0.1l-0.2,0.1l-0.7,0.2c-1,0.3-2,0.6-2.9,0.8c-3.9,1-8,1.8-12,2.4
	c-8.1,1.1-16.2,1.5-24.4,1.6c-8.2,0-16.3-0.5-24.4-1.8c-8-1.3-16-3.5-23.3-7c-7.4-3.4-14.1-8.1-19.6-13.9c-1.3-1.5-2.6-3.1-3.9-4.6
	c-1.1-1.6-2.2-3.2-3.3-4.7c-2.2-3.4-3.9-6.8-5.4-10.4c-3-7.1-5.2-14.2-7.5-21.2c-2.2-7-4.3-13.9-5.8-20.7
	c-1.6-6.9-2.4-13.6-2.8-20.2c-0.5-6.6-0.7-12.9-1-18.9c-0.6-12.1-1.1-23.2-1.6-33.1c-0.5-9.9-0.8-18.4-1.2-25.5
	C6374-569.1,6373.7-577.1,6373.7-577.1L6373.7-577.1z"/>
<path d="M6374.1-561.7c0,0,0.8,0,2.4,0.1s3.8,0.2,6.7,0.3c2.9,0.2,6.4,0.3,10.5,0.5c4,0.2,8.6,0.3,13.6,0.5s10.4,0.3,16.1,0.5
	s11.7,0.2,17.9,0.4c6.2,0.1,12.6,0.1,19.2,0.2c6.5,0.1,13.2,0,19.8,0.1c6.6,0,13.3,0,19.8-0.1s13-0.1,19.2-0.2
	c12.5-0.1,24.1-0.2,34-0.3c10-0.1,18.3-0.1,24.1-0.1h9.1c0,0-0.8,0.1-2.4,0.2c-1.6,0.1-3.8,0.2-6.7,0.4c-5.8,0.3-14.1,0.8-24.1,1.3
	s-21.6,0.9-34,1.3c-6.2,0.1-12.7,0.4-19.2,0.4c-6.5,0.1-13.2,0.1-19.8,0.2c-6.6,0-13.3,0-19.8-0.2c-6.5-0.1-13-0.3-19.2-0.4
	c-6.2-0.2-12.3-0.4-18-0.8c-2.9-0.2-5.6-0.3-8.3-0.5c-2.7-0.2-5.3-0.4-7.8-0.5c-2.5-0.2-4.9-0.3-7.1-0.5c-2.3-0.2-4.4-0.4-6.4-0.6
	c-4-0.4-7.6-0.7-10.4-1c-2.9-0.3-5.2-0.6-6.7-0.7C6374.9-561.6,6374.1-561.7,6374.1-561.7L6374.1-561.7z"/>
<linearGradient id="SVGID_2_" gradientUnits="userSpaceOnUse" x1="227.9543" y1="-375.1" x2="227.9543" y2="-20.3789" gradientTransform="matrix(1 0 0 1 0 507)">
	<stop  offset="0" style="stop-color:#FFFFFF"/>
	<stop  offset="0.159" style="stop-color:#FC247C"/>
</linearGradient>
<path class="st2" d="M315.4,239.9c-9-34.5-11.6-71.5-7.6-107.5c-0.7,0-1.5,0.1-2.2,0.1c-31.3,1.9-62.7,3.8-94,5.6
	c-21.6,1.3-43.7,2.5-64.3-5.7c-0.4-0.2-0.8-0.3-1.1-0.5c2.5,24,1.5,48.5-3,72c-6.9,35.8-21.7,105.7-21.9,142.5
	c-0.1,19.6,4,38.8,8.9,57.4c6.4,24.2,23.9,48.1,40.1,63.1c16.5,15.3,34.4,19.6,54.4,19.7c18.2,0.1,31.6,0.2,49-8.7
	c2.3-1.2,11.1-8.8,13.3-11.2c15.2-16.7,27.8-29.1,36.9-52.7s13.6-50.7,8.7-76.5C328.6,316.4,320.9,260.6,315.4,239.9L315.4,239.9z"
	/>
<path d="M177.6,642.4c0,0,1.4,0.5,3.8,1.4c0.6,0.2,1.2,0.5,2,0.7c0.7,0.2,1.5,0.5,2.4,0.7c0.8,0.3,1.7,0.5,2.7,0.8s2,0.5,3,0.8
	s2.1,0.6,3.3,0.9c1.1,0.2,2.3,0.5,3.5,0.8c0.6,0.1,1.2,0.3,1.8,0.4c0.6,0.1,1.3,0.2,1.9,0.3c1.3,0.2,2.6,0.5,3.9,0.7
	c2.7,0.3,5.4,0.7,8.3,0.9c2.8,0.3,5.7,0.3,8.6,0.4c2.9-0.1,5.8,0,8.6-0.3c2.8-0.1,5.6-0.5,8.3-0.8l3.9-0.6c0.6-0.1,1.3-0.2,1.9-0.3
	s1.2-0.3,1.8-0.4c1.2-0.3,2.4-0.5,3.5-0.7s2.2-0.6,3.3-0.8c1-0.3,2.1-0.5,3-0.8s1.8-0.6,2.7-0.8c0.8-0.3,1.6-0.5,2.4-0.7
	c0.7-0.2,1.4-0.5,2-0.7c2.4-0.9,3.8-1.3,3.8-1.3s-1.3,0.6-3.6,1.7c-0.6,0.3-1.2,0.6-1.9,0.9c-0.7,0.3-1.5,0.6-2.3,0.9
	c-0.8,0.3-1.7,0.7-2.6,1s-1.9,0.6-3,1c-1,0.3-2.1,0.7-3.3,1c-1.1,0.3-2.3,0.6-3.5,0.9c-0.6,0.1-1.2,0.3-1.9,0.5
	c-0.6,0.1-1.3,0.3-1.9,0.4c-1.3,0.3-2.6,0.5-4,0.7c-2.7,0.4-5.5,0.8-8.4,1c-2.9,0.3-5.8,0.3-8.7,0.4c-2.9-0.1-5.9-0.1-8.7-0.4
	c-2.9-0.2-5.7-0.7-8.4-1.1c-1.4-0.2-2.7-0.5-4-0.8c-0.6-0.1-1.3-0.3-1.9-0.4c-0.6-0.1-1.2-0.3-1.8-0.5c-1.2-0.3-2.4-0.6-3.5-0.9
	c-1.1-0.3-2.2-0.7-3.3-1c-1-0.3-2-0.6-3-1c-0.9-0.4-1.8-0.7-2.6-1.1c-0.8-0.3-1.6-0.6-2.3-0.9c-0.7-0.3-1.3-0.6-1.9-0.9
	C178.9,643.1,177.6,642.4,177.6,642.4L177.6,642.4z M204.1,614.7c0,0,0.7,0.1,2,0.3c0.6,0.1,1.4,0.2,2.2,0.4
	c0.9,0.1,1.8,0.3,2.9,0.4c1.1,0.2,2.2,0.3,3.4,0.4c1.2,0.2,2.5,0.2,3.8,0.3s2.7,0.2,4.1,0.2c1.4,0.1,2.8,0.1,4.2,0.1
	c1.4,0,2.8,0,4.2-0.1c1.4-0.1,2.8-0.2,4.1-0.3c1.3-0.2,2.6-0.2,3.8-0.4c1.2-0.2,2.4-0.3,3.4-0.5c1.1-0.1,2-0.3,2.9-0.5
	c0.9-0.1,1.6-0.3,2.2-0.4c1.2-0.2,2-0.3,2-0.3s-0.7,0.3-1.9,0.7c-0.6,0.2-1.3,0.5-2.2,0.7c-0.8,0.3-1.8,0.6-2.9,0.8
	c-1.1,0.3-2.2,0.6-3.4,0.8c-1.2,0.3-2.5,0.5-3.9,0.7s-2.8,0.4-4.2,0.4c-1.4,0.1-2.9,0.1-4.3,0.2c-1.5,0-2.9,0-4.4-0.1
	c-1.4,0-2.8-0.2-4.2-0.4c-1.4-0.2-2.7-0.4-3.9-0.6c-1.2-0.2-2.4-0.5-3.4-0.8c-1.1-0.2-2-0.5-2.9-0.8c-0.9-0.2-1.6-0.5-2.2-0.7
	C204.8,615,204.1,614.7,204.1,614.7L204.1,614.7z M132.8,75.1c0,0,0.3,0.9,0.8,2.5c0.5,1.7,1.4,4.1,2.3,7.4
	c1.9,6.5,4.4,16.2,6.4,28.8c0.5,3.2,1,6.5,1.3,10c0.5,3.5,0.7,7.2,1,11c0.5,7.7,0.8,16,0.5,24.9c-0.2,8.9-1,18.3-2.4,28.2
	c-1.5,9.9-3.6,20.1-5.6,30.8c-4.1,21.4-8.5,44.6-12.3,69.3c-1.8,12.3-3.5,25.1-4.5,38.1c-0.5,6.5-0.8,13.1-0.5,19.7
	c0.2,6.6,1,13.3,2,20s2.4,13.4,4,20.1c0.8,3.4,1.6,6.7,2.5,10.1s1.9,6.6,3.1,9.9c4.9,13,12.3,25.1,21,36.3
	c4.4,5.6,9.2,10.9,14.3,15.8c0.6,0.6,1.3,1.3,1.9,1.8l2,1.8c0.7,0.6,1.4,1.1,2.1,1.7c0.7,0.5,1.4,1.1,2.1,1.6c2.9,2.1,5.9,4,9,5.6
	c3.2,1.6,6.4,3,9.8,4.1s6.8,2,10.3,2.6s7.1,1,10.6,1.2c3.6,0.2,7.2,0.2,10.8,0.2c7.3,0,14.5,0,21.5-1.1c7.1-1,13.9-3.1,20.4-6.1
	c12.2-6.5,21.3-18.6,30.8-29c4.6-5.4,8.9-11.1,12.5-17c3.6-6,6.7-12.3,9.2-18.7c5-13,8.4-26.4,9.8-39.9c0.7-6.7,0.9-13.4,0.6-20
	c-0.2-3.3-0.5-6.6-0.9-9.8c-0.4-3.2-1-6.5-1.6-9.7c-2.2-13-4.1-25.7-6-38s-3.8-24.3-5.9-35.9c-1-5.8-2.1-11.4-3.4-16.9
	c-0.7-2.8-1.3-5.5-2-8.2l-1.8-8.1c-4.4-21.4-6-41.5-6-59.3s1.5-33.2,3.4-45.8s4.2-22.3,6-28.9c0.9-3.3,1.6-5.8,2.1-7.5
	s0.8-2.6,0.8-2.6s-0.2,0.9-0.7,2.6s-1.1,4.2-2,7.5c-1.6,6.6-3.7,16.4-5.5,29c-1.7,12.6-3.1,28-2.8,45.7c0,4.4,0.2,9,0.5,13.7
	s0.7,9.5,1.2,14.4s1.2,10,2,15.1s1.8,10.4,2.9,15.7c0.6,2.7,1.2,5.3,1.8,8c0.7,2.7,1.4,5.4,2.1,8.2c1.3,5.5,2.5,11.2,3.5,17
	c2.2,11.6,4.2,23.6,6.2,35.9s4,25,6.3,37.9c0.6,3.2,1.2,6.5,1.7,9.8c0.4,3.3,0.8,6.7,0.9,10.1c0.3,6.8,0.1,13.6-0.6,20.4
	c-1.4,13.7-4.8,27.4-9.8,40.5c-2.5,6.6-5.7,13.1-9.4,19.2s-8.1,11.9-12.7,17.4c-4.7,5.5-9.6,10.8-14.4,16.1l-0.9,1
	c-0.3,0.4-0.7,0.7-1,1c-0.7,0.6-1.3,1.3-2,1.9c-1.4,1.2-2.7,2.4-4.1,3.6s-2.8,2.3-4.3,3.5c-0.4,0.3-0.7,0.5-1.2,0.9
	c-0.2,0.2-0.4,0.3-0.6,0.4c0,0-0.3,0.2-0.4,0.2l-0.3,0.2l-2.5,1.2c-6.7,3.1-13.8,5.4-21.2,6.4c-7.3,1.1-14.7,1.1-22,1.1
	c-3.6,0-7.3,0-11-0.3s-7.3-0.7-11-1.3c-3.6-0.7-7.2-1.6-10.7-2.7c-3.5-1.2-6.9-2.7-10.2-4.3c-3.3-1.8-6.4-3.7-9.4-5.9
	c-0.8-0.5-1.5-1.1-2.2-1.7s-1.5-1.1-2.1-1.8l-2-1.8c-0.7-0.6-1.3-1.3-2-1.9c-5.2-5.1-10.1-10.5-14.5-16.1
	c-8.9-11.4-16.4-23.8-21.4-37.1c-1.2-3.3-2.3-6.8-3.2-10.1c-0.9-3.4-1.7-6.8-2.5-10.1c-1.6-6.8-3-13.5-4-20.3s-1.8-13.6-2-20.3
	c-0.3-6.7,0-13.4,0.6-20c1-13.1,2.8-25.9,4.8-38.2c3.9-24.7,8.5-47.9,12.8-69.3c2.1-10.7,4.3-20.9,5.8-30.7s2.4-19.2,2.7-28
	c0.3-8.8,0.2-17.1-0.2-24.8c-0.3-3.8-0.5-7.5-0.9-11c-0.3-3.5-0.8-6.8-1.2-10c-1.8-12.6-4.1-22.3-5.9-28.9c-0.8-3.3-1.7-5.8-2.2-7.5
	C133.1,76,132.8,75.1,132.8,75.1L132.8,75.1z"/>
<path d="M143.9,130.5c0,0,0.7,0.1,1.9,0.4c0.6,0.1,1.4,0.3,2.3,0.5s1.9,0.4,3.1,0.6c2.3,0.4,5.1,0.9,8.3,1.3
	c3.2,0.4,6.8,0.8,10.8,1.1s8.3,0.4,12.8,0.6c4.6,0.1,9.4,0.3,14.4,0.4c5,0.1,10.2,0,15.4-0.3c2.6-0.1,5.3-0.3,7.9-0.5
	c2.7-0.2,5.3-0.4,8-0.6c2.7-0.2,5.3-0.5,8-0.7s5.3-0.4,7.9-0.6c5.2-0.3,10.4-0.7,15.4-1c2.5-0.2,5-0.3,7.4-0.4
	c2.4-0.1,4.8-0.2,7-0.3c4.6-0.2,8.9-0.3,12.9-0.4c4-0.1,7.7-0.1,10.9-0.2c3.3,0,6.1-0.1,8.4,0c2.3,0,4.2,0,5.4,0.1h1.9v0.3
	c0,0-0.7,0.1-1.9,0.2s-3.1,0.3-5.4,0.6s-5.2,0.5-8.4,0.8c-3.2,0.3-6.9,0.6-10.9,0.9c-4,0.3-8.3,0.6-12.9,0.8c-2.3,0.1-4.6,0.3-7,0.4
	c-2.4,0.1-4.9,0.2-7.4,0.3c-5,0.2-10.2,0.3-15.4,0.5c-2.6,0.1-5.3,0.1-7.9,0.2c-2.7,0-5.3,0.1-8,0.1s-5.3,0.1-8,0.1
	c-2.7,0.1-5.3,0.2-7.9,0.3c-5.2,0.2-10.4,0.6-15.4,1c-2.5,0.2-5,0.3-7.4,0.4c-1.2,0.1-2.4,0.1-3.6,0.1H183c-4.6,0-9-0.3-13-0.7
	s-7.7-1-10.9-1.6c-1.6-0.3-3.1-0.6-4.5-1c-1.4-0.3-2.6-0.6-3.8-1c-1.1-0.4-2.1-0.7-3-0.9c-0.9-0.3-1.6-0.6-2.2-0.8
	c-1.2-0.4-1.8-0.7-1.8-0.7L143.9,130.5L143.9,130.5z"/>
<path class="st3" d="M226.4,40.2c22.6,16.2,20.5,17.4,43.3,33.5c22,15.5,44.1,30.9,68.5,41.8c24.1,10.7,50.4,17.1,71.4,33.1
	c4.6,3.6,9.2,7.7,14.7,9.2c1.4-36-4.6-70.9-17.5-100.7c-2.6-6.2-21.7-28.7-28.4-33.5c-15.6-11.1-30-16.9-49.3-19.3
	c-25.7-3.3-43.4-2.7-68.4,14.3C252.2,24.5,235.7,33.1,226.4,40.2L226.4,40.2z"/>
<path class="st4" d="M234.3,46.8c1.8-1.8,3.4-3.1,5.3-4.7c3.8-3.6,8.2-5.9,12.6-8.2c23.5-12.4,45-20.5,68.9-18.8
	c14.4,1.6,27.8,7.2,40.9,12.6c7.2,3,14.5,6.1,20.4,11.4c8.7,7.8,13.8,19.9,18.1,32.1c7.4,20.8,13.6,43,10.6,67.8
	c-0.3,3-1.8,4.8-3.3,7.6"/>
<path class="st4" d="M329.4,111.1c1.7-1.9,1.9-4.7,1.2-7.2s-2.2-4.4-4-6.3c-2.9-3-6.6-5.5-10.7-6.1s-8.8,1-10.8,4.6"/>
<path d="M326.4,96.3c2.4-2.4,4.7-4.8,7.1-7.1l7.2-7l3.6-3.5c1.2-1.2,2.4-2.4,3.6-3.5l7.4-6.8c2.5-2.3,5-4.5,7.5-6.8
	c1.3-1.1,2.5-2.2,3.8-3.3c1.3-1.1,2.6-2.1,4-3.1s2.9-1.8,4.4-2.6c1.5-0.8,3.2-1.3,4.9-1.6c1.7-0.3,3.5-0.3,5.2,0s3.4,0.9,4.9,1.8
	c0.2,0.1,0.4,0.3,0.6,0.4c0.1,0.1,0.3,0.2,0.4,0.3c0.2,0.1,0.4,0.3,0.5,0.4c0.2,0.2,0.3,0.3,0.4,0.5l-0.1-0.1
	c1.7,1.6,2.8,3.6,3.7,5.6s1.5,4.1,2.2,6.2c1.3,4.1,2.5,8.4,2.7,12.8c0,1.1,0,2.2-0.1,3.3c-0.1,1.1-0.3,2.2-0.6,3.3
	c-0.6,2.1-1.6,4.2-2.9,6s-3.1,3.3-5.1,4.3s-4.1,1.6-6.3,2l-1.6,0.3l-0.4,0.1c-0.2,0-0.3,0-0.4,0.1l-0.8,0.1l-3.2,0.5l-6.4,1l-6.4,1
	l-3.2,0.5c-1.1,0.2-2.2,0.3-3.3,0.4c-1.1,0.1-2.2,0-3.3,0.1c-1.1,0-2.2,0.1-3.2,0.2c-2.2,0.1-4.3,0.3-6.5,0.5
	c-4.3,0.4-8.6,0.9-12.8,2.2c4.1-1.4,8.4-2,12.7-2.5c2.2-0.2,4.3-0.4,6.5-0.6c1.1-0.1,2.2-0.2,3.3-0.2c1.1,0,2.2,0,3.2-0.1
	c1.1-0.1,2.1-0.2,3.2-0.4l3.2-0.6l6.4-1.1l6.4-1.1l3.2-0.6l0.8-0.1c0.1,0,0.3,0,0.4-0.1l0.4-0.1l1.6-0.4c2.1-0.5,4.2-1,6.1-2
	c1.9-1,3.5-2.4,4.7-4.1s2.1-3.7,2.7-5.7c0.3-1,0.5-2.1,0.6-3.1c0.1-1.1,0.1-2.1,0.1-3.2c-0.1-4.3-1.3-8.4-2.7-12.5
	c-0.7-2.1-1.3-4.1-2.2-6.1c-0.8-1.9-1.9-3.9-3.4-5.2c-0.1-0.2-0.2-0.3-0.3-0.4s-0.2-0.2-0.4-0.3c-0.4-0.2-0.7-0.6-0.9-0.6
	c-1.4-0.8-2.9-1.4-4.5-1.7c-1.6-0.3-3.2-0.3-4.9,0c-0.8,0.1-1.6,0.3-2.4,0.6c-0.4,0.1-0.8,0.2-1.1,0.4c-0.4,0.2-0.8,0.3-1.1,0.5
	c-1.5,0.7-2.9,1.5-4.3,2.5c-1.4,0.9-2.7,2-4,3c-1.3,1.1-2.6,2.1-3.8,3.2c-2.5,2.2-5,4.4-7.5,6.7l-7.5,6.7c-1.3,1.1-2.4,2.3-3.7,3.4
	l-3.7,3.5l-7.3,6.9C331.2,91.6,328.8,93.9,326.4,96.3L326.4,96.3z M337.8,111l-4.3-0.3v-0.2c2.2,0.1,4.3,0.2,6.5,0.2l6.5,0.1
	c4.3,0.1,8.7,0.1,13-0.1c2.2-0.1,4.3-0.2,6.4-0.5l6.4-0.9l1.6-0.2l0.8-0.1l0.7-0.2l3.2-0.8l6.3-1.5c2.1-0.5,4.3-1,6.5-1
	c0.6,0,1.1,0,1.7,0.1l0.8,0.1c0.3,0,0.6,0.1,0.8,0.1c1.1,0.2,2.2,0.5,3.2,1c2,1,3.7,2.5,5.2,4.2c1.4,1.8,2.3,3.9,2.8,6
	c0.6,2.1,0.8,4.4,0.6,6.6c-0.2,2.2-0.7,4.3-1.4,6.4c-0.7,2.1-1.6,4.1-2.6,6s-2.2,3.7-3.3,5.6l1.5-2.9c0.5-1,1.1-1.9,1.5-2.9
	c0.9-2,1.8-4,2.4-6c0.6-2.1,1.1-4.2,1.2-6.3c0.2-2.1-0.1-4.3-0.7-6.3s-1.5-4-2.8-5.7c-1.3-1.6-3-3-4.9-3.9c-0.9-0.5-1.9-0.8-3-0.9
	c-0.3,0-0.5-0.1-0.8-0.1l-0.8-0.1c-0.5,0-1.1-0.1-1.6,0c-2.1,0-4.2,0.5-6.3,1c-2.1,0.6-4.2,1-6.3,1.5l-3.2,0.7
	c-0.3,0.1-0.5,0.1-0.8,0.2l-0.8,0.1l-1.6,0.2l-6.5,0.8c-2.2,0.2-4.4,0.4-6.5,0.4c-4.4,0.1-8.7,0.1-13-0.1l-6.5-0.3
	c-2.2-0.1-4.3-0.2-6.5-0.4v-0.2L337.8,111L337.8,111z M312.2,92.3l1.7-9l1.7-9l1.7-9l0.9-4.5l1-4.5l1-4.5c0.3-1.5,0.7-3,1.1-4.5
	c0.8-3,1.8-5.9,2.9-8.7c1.2-2.8,2.5-5.6,4.2-8.2c1.7-2.6,3.7-5,5.9-7.1c0.9-0.7,1.9-1.3,3.1-1.7c0.6-0.2,1.2-0.3,1.8-0.3
	c0.6,0,1.2,0.1,1.8,0.2c1.1,0.3,2.2,0.8,3.2,1.1l3,1.2c2.1,0.8,4.2,1.5,6.2,2.3c2.1,0.8,4.2,1.7,6.1,2.9s3.7,2.7,4.9,4.7
	c1.3,2,1.7,4.4,1.4,6.7c-0.1,1.1-0.4,2.3-0.8,3.4s-0.9,2.1-1.5,3.1c-1.1,2-2.6,3.7-4,5.4L342.7,73c-2.8,3.4-5.7,6.9-8.6,10.2
	c-1.5,1.7-2.9,3.4-4.4,5c-0.8,0.8-1.6,1.6-2.3,2.4c-0.8,0.8-1.6,1.6-2.5,2.3l-1.5,0.9l1.5-1c0.9-0.7,1.6-1.5,2.4-2.3
	s1.6-1.6,2.3-2.4c1.5-1.7,2.9-3.4,4.3-5.1c2.8-3.4,5.6-6.9,8.4-10.4l16.6-20.9c1.4-1.7,2.8-3.4,3.9-5.3c0.5-0.9,1-1.9,1.4-2.9
	s0.6-2.1,0.7-3.1c0.2-2.1-0.2-4.3-1.3-6.1c-1.1-1.8-2.8-3.3-4.6-4.4c-1.9-1.1-3.9-2-6-2.8l-6.2-2.3l-3.1-1.2c-1-0.4-2.1-0.8-3.1-1.1
	c-0.5-0.1-1-0.2-1.5-0.2s-1,0.1-1.5,0.2c-1,0.3-1.9,0.9-2.8,1.5c-2.2,2-4.2,4.4-5.8,6.9c-1.7,2.5-3,5.3-4.2,8.1
	c-1.2,2.8-2.1,5.7-3,8.6c-0.4,1.5-0.8,2.9-1.2,4.4l-1,4.5l-1,4.5c-0.3,1.5-0.7,3-1,4.5l-1.8,9l-1.8,9L312.2,92.3L312.2,92.3z
	 M300.7,93.8c0,0-1.2-2.2-3.3-6.2l-3.6-7.2c-1.4-2.8-2.9-5.9-4.6-9.3c-1.5-3.5-3.2-7.3-4.9-11.3c-1.7-4-3.4-8.3-5-12.8
	c-1.5-4.5-3.2-9.1-4.7-13.9c-0.2-0.6-0.4-1.2-0.5-1.8c-0.2-0.6-0.3-1.3-0.3-2s0.3-1.5,0.8-2c0.5-0.6,0.9-1,1.5-1.4
	c2.2-1.5,4.8-2.3,7.3-2.5c5.3-0.3,10.4,1.5,14.6,4.2c2.1,1.4,4,3.2,5.3,5.4s1.8,4.7,2,7.1c0.4,4.8,0.7,9.3,1.1,13.7
	c0.3,4.4,0.6,8.5,0.9,12.3c0.9,15.2,1.4,25.3,1.4,25.3s-0.2-2.5-0.6-7c-0.3-4.4-0.8-10.8-1.4-18.3c-0.7-7.6-1.4-16.4-2.3-25.9
	c-0.3-2.3-0.7-4.7-1.9-6.7s-3-3.8-5-5.1c-4.1-2.7-9.1-4.3-14-4c-2.5,0.2-4.9,1-6.9,2.3c-1,0.7-1.9,1.5-1.9,2.6
	c0,0.5,0.1,1.1,0.3,1.7c0.2,0.6,0.3,1.2,0.5,1.8c1.5,4.7,3.1,9.4,4.6,13.9c3.2,8.9,6.6,17.1,9.6,24.2c3.2,6.9,5.9,12.6,7.8,16.7
	C299.6,91.5,300.7,93.8,300.7,93.8L300.7,93.8z M292.9,88.9c0,0-0.2-0.1-0.3-0.3c-0.2-0.2-0.4-0.4-0.5-0.7c-0.1-0.3-0.2-0.6-0.1-0.9
	c0-0.3,0.1-0.5,0.1-0.5s0.2,0.1,0.4,0.3c0.2,0.2,0.4,0.4,0.5,0.7c0.1,0.3,0.2,0.6,0.1,0.9C293.1,88.7,292.9,88.9,292.9,88.9z"/>
<path d="M242.4,48.7l2.7-2.6c1.1-0.9,2.2-1.8,3.6-2.4c1.3-0.6,2.8-0.9,4.2-0.9c0.7,0,1.5,0.1,2.2,0.3c0.4,0.1,0.7,0.2,1,0.3
	s0.7,0.3,1,0.4c1.3,0.6,2.5,1.5,3.6,2.5c0.5,0.5,1,1.1,1.5,1.6l1.3,1.6l2.7,3.3l5.4,6.6l5.2,6.7l2.6,3.3c0.9,1.1,1.8,2.2,2.6,3.3
	l2.6,3.4c0.9,1.1,1.7,2.2,2.6,3.3l2.6,3.3c0.9,1.1,1.6,2.3,2.3,3.6c0.3,0.8,0.5,1.6,0.6,2.5c-0.2-0.8-0.4-1.6-0.8-2.4
	c-0.7-1.2-1.5-2.4-2.4-3.5l-2.8-3.2l-2.7-3.3l-2.7-3.3l-2.7-3.3l-2.7-3.3l-5.3-6.6l-5.3-6.6l-2.6-3.3l-1.3-1.7
	c-0.4-0.6-0.9-1.1-1.4-1.6c-1-1-2.1-1.8-3.3-2.4c-0.3-0.2-0.6-0.3-0.9-0.4s-0.7-0.3-1-0.4c-0.6-0.2-1.3-0.3-2-0.4
	c-1.4-0.1-2.8,0.2-4,0.7c-1.3,0.5-2.5,1.3-3.6,2.2L242.4,48.7L242.4,48.7z"/>
<path class="st4" d="M282.4,337.2c5.1-4.1,8.3-17.3,8.7-23.6c0.6-10.8,1.1-21.6,1.7-32.3c0.1-2.3,0.2-4.8-0.8-6.8
	c-1.8-3.7-6.4-4.9-10.4-5.7c-9-1.7-18.1-3-27.3-4c-8.1-0.8-15.3,1.9-23.1,4.5c-2.4,0.8-5,1.9-6.4,4c-1,1.5-1.3,3.5-1.5,5.3
	c-1.3,10-2.7,20.1-2.6,30.2c0,5.9,0.6,12.1,4.1,16.7c4.5,6,12.5,7.9,19.9,9.4c9.7,2,19.3,3.9,29,5.9c1.9,0.4,4,0.8,5.7-0.1
	C280.7,340,281.6,338.6,282.4,337.2L282.4,337.2z"/>
<path d="M249.8,266.9c0,0,0.1,0.3,0.2,0.8s0.4,1.2,0.6,2.2c0.2,0.9,0.5,2.1,0.7,3.4s0.4,2.9,0.6,4.5c0.3,3.3,0.5,7.2,0.6,11.4
	c0.1,2.1,0.1,4.2,0.3,6.4c0.1,2.2,0.3,4.4,1,6.4c0.3,1,0.8,1.9,1.5,2.7c0.7,0.7,1.6,1.2,2.6,1.6c2,0.7,4.1,1.2,6.1,1.8
	c4,1,7.8,2,11,2.6c3.3,0.7,6,1.2,7.9,1.5s3,0.5,3,0.5s-1.1-0.1-3-0.3c-1.9-0.2-4.7-0.6-8-1.2s-7.1-1.3-11.1-2.3
	c-2-0.5-4.1-1-6.2-1.7c-1.1-0.4-2.1-0.9-3-1.8c-0.8-0.8-1.4-1.9-1.8-3c-0.7-2.2-0.8-4.5-0.9-6.7s-0.2-4.3-0.2-6.4
	c-0.1-4.2-0.1-8-0.3-11.3c-0.1-1.7-0.2-3.2-0.4-4.5c-0.2-1.3-0.3-2.5-0.5-3.5s-0.3-1.7-0.4-2.2C249.8,267.2,249.8,266.9,249.8,266.9
	L249.8,266.9z M253.8,305.2c0,0,0.1,0,0.3,0.2c0.1,0.2,0.1,0.6-0.2,1c-0.2,0.4-0.7,0.8-1.1,1.2c-0.5,0.4-1,0.9-1.6,1.4
	c-1.2,1-2.5,2.1-4,3.3c-1.5,1.2-3.1,2.5-4.7,3.7s-3.2,2.5-4.7,3.6c-1.5,1.2-3,2.2-4.2,3.1s-2.3,1.6-3,2.1s-1.2,0.8-1.2,0.8
	s0.4-0.3,1-0.9c0.7-0.6,1.6-1.4,2.8-2.4c1.2-1,2.5-2.1,4-3.3c1.5-1.2,3.1-2.5,4.7-3.7s3.2-2.5,4.7-3.6c1.5-1.2,3-2.2,4.2-3.1
	c0.6-0.5,1.2-0.9,1.7-1.2c0.5-0.4,1-0.6,1.2-1c0.3-0.3,0.4-0.7,0.3-0.9C254,305.2,253.8,305.2,253.8,305.2L253.8,305.2z"/>
<path class="st4" d="M179.9,394.4c-1.9,2.9-2.6,7.1-3.3,10.1c-1.7,7.5-3.7,14.9-5.9,22.2c-0.9,2.9-1.9,5.8-2,8.8
	c-0.2,2.9,0.4,5.5,1.1,8.1c2.3,8.8,6.3,17.4,13.4,19.7c2.4,0.8,5,0.8,7.5,0.9c11.7,0.8,22.6,5.6,34.3,6.4c2.7,0.2,5.5,0.1,8.2-1.5
	c4.8-2.9,7.4-9.8,9.1-16.1c2.5-9.5,4-19.2,7.5-28.4c1.2-3,2.6-6.4,1.9-9.3c-0.7-3.1-13.5-11.1-17.4-14c-3.3-2.4-8.2-3.1-12-4
	c-6.3-1.4-12.6-2.4-19-3.3c-5.6-0.8-11.8-2.5-17.4-2.7C183.1,391.1,181.2,392.4,179.9,394.4L179.9,394.4z"/>
<path d="M179.2,395c0,0,0.8,1,2.2,2.7c1.4,1.7,3.4,4.2,5.8,7.1s5.1,6.5,8.6,9.6c1.8,1.5,3.8,2.9,6,3.8c2.3,0.9,4.7,1.3,7.2,1.5
	s5,0.1,7.5,0.1s4.9-0.1,7.3-0.1c4.7-0.1,9.2,0,12.9-0.4c3.8-0.3,6.9-0.8,9-1.4c2.1-0.5,3.4-0.9,3.4-0.9l-0.9,0.3
	c-0.6,0.2-1.4,0.5-2.4,0.8c-2.1,0.6-5.2,1.4-9,1.7c-3.8,0.4-8.2,0.5-13,0.7c-2.4,0.1-4.8,0.1-7.3,0.2s-5,0.1-7.6,0
	c-2.6-0.2-5.1-0.6-7.5-1.6c-2.4-0.9-4.5-2.4-6.3-4s-3.3-3.3-4.7-5c-1.4-1.7-2.6-3.3-3.8-4.8c-2.3-3-4.2-5.6-5.5-7.3
	C179.9,396,179.2,395,179.2,395L179.2,395z M199.6,418.7c0,0-1,2.4-2.5,6.1c-0.8,1.8-1.6,4-2.5,6.2c-0.9,2.3-1.8,4.7-2.7,7.2
	c-0.9,2.5-1.8,4.9-2.6,7.2s-1.6,4.5-2.2,6.3c-1.3,3.7-2.1,6.2-2.1,6.2s0.1-0.6,0.4-1.8c0.3-1.1,0.6-2.7,1.2-4.6
	c0.5-1.9,1.1-4.1,1.9-6.5l1.2-3.6c0.4-1.2,0.9-2.5,1.3-3.7c0.9-2.5,1.9-4.9,2.9-7.2s1.9-4.4,2.8-6.1c0.8-1.8,1.6-3.2,2.1-4.3
	C199.3,419.3,199.6,418.7,199.6,418.7L199.6,418.7z"/>
<path class="st5" d="M322.4,95.3c-0.6,7-2.7,14.1-3.9,21.1c-0.4,2.4-1.7,6.2,0.8,6.9c1.6,0.4,6.4-2.2,8.1-2.8
	c5.7-1.8,11.5-3.4,17.4-4.7c11.2-2.5,22.6-4.1,34-4.8c2.9-0.2,7.2,0,8.2-2.7c2-5.3,0.6-11.2-1.4-16.5s-4.6-10.4-5.2-16
	c-0.2-2.2-0.1-4.6-1.4-6.5c-0.7-1.1-1.8-2-2.7-3c-3-3.9-1.5-9.9-4-14.2c-1.8-3.1-5.4-4.8-7.2-7.8c-0.9-1.5-1.3-3.3-2.2-4.8
	c-2.1-3.4-5.7-5.3-9.6-6c-3.2-0.5-6.2-2.3-8.1-4.8c-1.1-1.4-1.9-3.1-3.4-4.2c-2.2-1.6-5.2-1.3-7.8-1.8c-2.2-0.4-4.2-1.3-6.1-2.4
	c-1-0.6-2.1-1.3-3.3-1.3c-3.5,0.1-9.2,15-10.7,18.1c-3.3,6.5-6.4,13.2-9.3,19.9c-6.1,13.9-11.6,28-17.2,42
	c-5,12.5-8.1,24.5-12.4,37.2c8.3-2.3,16.7-4.6,25-7c1.5-0.4,3.1-0.9,4.6-1.3c0.7-0.2,1.2-11.2,1.5-12.6c1.5-6.7,3.1-13.3,4.6-20
	c1.9-8.3,3.7-16.6,5.5-24.9c0.7-3.3,0.8-9.5,2.7-12.2c1.6-2.3,4.7-2.1,7.3-2C326.5,69,323.6,82.5,322.4,95.3z"/>
<path class="st4" d="M303.2,334.1c0.4,0.4,0.8,0.7,1.2,1.2c0.9,1.2,1.5,2.6,2.1,4c4.4,11.2,4.7,19.8,6.2,31.5c0.3,2.7,0.6,5.5-0.3,8
	c-1.4,4-5.4,6.4-8.4,9.4c-4.2,4.1-6.6,9.6-9.8,14.5s-7.7,9.6-13.5,10.3c-2.3,0.3-4.7-0.1-7-0.4c-5.1-0.8-10.3-1.6-15.4-2.4
	c-5.9-0.9-12.1-2-16.9-5.5c-7.1-5.3-9.5-14.7-11.3-23.3c-1.5-6.9-3-14.4-0.1-20.8c1.3-2.9,3.4-5.4,5.4-7.9
	c3.8-4.5,7.6-8.9,11.3-13.4c12-14.2,35.4-13.4,51.3-7.7C299.9,332.1,301.7,332.9,303.2,334.1L303.2,334.1z"/>
<path d="M262,334.6c0,0,0.4,0.9,1.1,2.4s1.8,3.7,3,6.4s2.6,5.7,4.1,9.1c0.7,1.7,1.5,3.4,2.3,5.1s1.5,3.5,2.3,5.3
	c0.8,1.7,1.7,3.4,3,4.6s3,2,4.7,2.4c1.7,0.5,3.4,0.8,5.1,1.2c1.6,0.3,3.2,0.7,4.6,1c2.8,0.6,5.2,1.2,6.9,1.5
	c1.7,0.4,2.6,0.6,2.6,0.6s-1-0.2-2.6-0.4c-1.7-0.3-4.1-0.7-6.9-1.2c-1.4-0.3-3-0.5-4.6-0.8s-3.4-0.5-5.2-1c-1.8-0.5-3.6-1.2-5.1-2.6
	s-2.5-3.1-3.3-4.9s-1.5-3.6-2.3-5.3c-0.7-1.8-1.5-3.5-2.2-5.2c-1.4-3.3-2.7-6.5-3.8-9.2c-1.1-2.7-2-4.9-2.6-6.5
	C262.4,335.5,262,334.6,262,334.6z M277.5,368.6c0,0-0.4,0.5-1,1.4s-1.5,2.1-2.7,3.5c-1.1,1.4-2.5,3.1-3.9,4.9
	c-1.5,1.8-3.1,3.6-4.7,5.5c-1.6,1.8-3.3,3.7-4.9,5.3c-1.6,1.7-3.1,3.2-4.4,4.5s-2.4,2.4-3.2,3.1c-0.8,0.7-1.2,1.2-1.2,1.2
	s0.4-0.5,1.1-1.3s1.7-2,2.9-3.4c2.4-2.8,5.7-6.4,8.9-10.1c3.3-3.7,6.5-7.3,8.9-10.1c1.2-1.4,2.3-2.5,3-3.3L277.5,368.6L277.5,368.6z
	"/>
<path class="st4" d="M154.8,336.9c-1.5,4.6-0.1,9.7,1.3,14.3c3.6,11.8,7.7,24.5,17.6,31.9c7.1,5.3,16.1,7.1,24.8,8.7
	c2.6,0.5,5.4,1,7.8-0.1c2.3-1,3.8-3.2,5.2-5.3c4.2-6.4,8.4-12.7,12.5-19.1c3.3-5,6.7-10.4,6.4-16.4c-0.2-4.3-2.3-8.4-4.3-12.2
	c-3.1-5.9-6.3-11.7-9.4-17.6c-0.9-1.7-1.8-3.4-3.3-4.7c-1.7-1.5-4-2.3-6.3-2.9c-9.4-2.6-22.5-6.9-31.1-0.6
	C169.3,317.9,157.4,328.9,154.8,336.9L154.8,336.9z"/>
<path d="M162.6,340.3c0,0,0.1,0.2,0.4,0.6s0.7,0.9,1.4,1.5s1.5,1.2,2.6,1.8c1.1,0.6,2.4,1.1,3.8,1.8c1.4,0.6,2.9,1.4,4.4,2.5
	s2.8,2.3,4.3,3.5c1.5,1.1,3.2,2.1,5.1,2.2s3.8-0.7,5.3-2c1.6-1.2,2.9-2.8,4-4.4c1.2-1.6,2.3-3.3,3.3-4.9c2.2-3.2,4.2-6.1,6-8.6
	s3.3-4.6,4.3-6c1.1-1.5,1.7-2.3,1.7-2.3s-0.5,0.9-1.5,2.4s-2.3,3.7-4,6.3c-1.7,2.6-3.6,5.6-5.7,8.8c-1.1,1.6-2.1,3.3-3.3,4.9
	c-1.2,1.6-2.5,3.3-4.2,4.6c-0.8,0.6-1.8,1.2-2.8,1.6l-0.8,0.3l-0.8,0.2c-0.5,0.1-1.1,0.1-1.6,0.1c-2.2-0.1-4.1-1.2-5.6-2.4
	s-2.8-2.5-4.2-3.6c-1.4-1.1-2.8-1.8-4.2-2.5c-1.4-0.7-2.6-1.3-3.7-2s-2-1.3-2.6-2c-0.6-0.6-1-1.2-1.3-1.6
	C162.7,340.5,162.6,340.3,162.6,340.3L162.6,340.3z M185.9,356.9c0,0,0.4,0.3,1.1,0.8c0.4,0.2,0.7,0.6,1.2,1
	c0.2,0.2,0.5,0.4,0.7,0.7c0.2,0.2,0.5,0.5,0.7,0.8c0.5,0.6,1,1.2,1.5,1.9s1,1.5,1.5,2.2c0.5,0.8,1,1.6,1.4,2.5
	c0.5,0.9,0.9,1.7,1.4,2.6c0.9,1.8,1.8,3.5,2.7,5.1c0.5,0.8,0.9,1.6,1.3,2.3c0.5,0.7,0.9,1.4,1.3,2c0.2,0.3,0.4,0.6,0.6,0.8
	c0.2,0.3,0.4,0.5,0.6,0.7c0.4,0.5,0.7,0.9,1.1,1.1l1,1c0,0-0.4-0.3-1.1-0.8c-0.4-0.3-0.8-0.6-1.2-1c-0.2-0.2-0.5-0.4-0.7-0.7
	c-0.2-0.2-0.5-0.5-0.7-0.8c-0.5-0.6-1-1.2-1.5-1.9s-1-1.5-1.5-2.2c-0.5-0.8-1-1.6-1.4-2.5c-0.5-0.9-0.9-1.7-1.4-2.6
	c-0.9-1.8-1.8-3.5-2.7-5.1c-0.5-0.8-0.9-1.6-1.3-2.3c-0.5-0.7-0.9-1.4-1.3-2c-0.2-0.3-0.4-0.6-0.6-0.8c-0.2-0.3-0.4-0.5-0.6-0.7
	c-0.4-0.5-0.7-0.9-1.1-1.1C186.3,357.2,185.9,356.9,185.9,356.9z"/>
<path class="st3" d="M319.3,123.7c9.5-2.7,19-5.5,28.4-8.5c11.2-3.6,23.3-6.3,35-4.7c-4.1-22.4-8.7-45.7-22.7-63.7
	c-9.4-12-23.2-20.1-36.9-26.8c-14.9,25.7-23.6,48.8-35.7,78.9c-5,12.5-8.1,24.5-12.4,37.2c8.3-2.3,16.7-4.6,25-7
	c1.5-0.4,3.1-0.9,4.6-1.3"/>
<path class="st3" d="M323.5,20.1c-0.5-1.1,0.9-2.3,2.1-2.1c1.2,0.1,2.2,1,3.1,1.8c1.7,1.3,3.7,2.5,5.8,3.1c2,0.5,4.1-0.1,6.1,0.7
	c3.4,1.3,4.9,5.9,7.9,8c3.8,2.7,9.4,2.6,12.3,6.6c2,2.7,3.8,5.6,6,8.1c1.9,2.2,5.7,3.8,6.7,6.5c1.1,2.7,0.8,6,1.8,8.9
	c1.2,3.1,2.8,6,4.8,8.6c0.7,0.8,1.4,1.7,1.7,2.7c0.3,1,0.2,2,0.2,3c-0.1,4.6,1,9.1,3.2,13.1c0.7,1.3,1.6,2.6,2,4
	c0.4,1.5,0.4,3.1,0.3,4.7c-0.2,3.6-0.3,7.2-0.5,10.8c0,0.3,0,0.6-0.2,0.9c-0.3,0.4-0.8,0.6-1.3,0.6c-1.2,0.2-2.4,0.3-3.7,0.3"/>
<path d="M328,23.4c-1,3-2,5.9-3.1,8.9c-1.1,2.9-2.2,5.8-3.5,8.7c-2.4,5.8-5.1,11.4-8,17l-1.2-0.7l4.5-8c1.5-2.7,3-5.3,4.5-8l4.6-8
	c1.5-2.7,3.1-5.4,5.2-7.8l1.6-1.8l0.1,2.4l0.1,1.4v1.4l-0.1,1.3l-0.2,1.3c-0.2,0.9-0.4,1.8-0.6,2.6c-0.2,0.9-0.5,1.7-0.8,2.5
	c-1.2,3.3-2.9,6.4-4.5,9.4l-1.6-1l5.6-8.3l2.8-4.2l1.4-2.1c0.2-0.3,0.5-0.8,0.9-1.1c0.4-0.4,1-0.8,1.7-0.8h0.6l0.2,0.5
	c0.5,1.3,0.5,2.8,0.2,4.1s-0.8,2.4-1.4,3.5s-1.2,2.1-1.8,3.1c-0.6,1-1.1,2.1-1.6,3.2c-2.1,4.2-4,8.6-5.9,13l-1-0.6
	c1.4-1.8,2.8-3.7,4.1-5.7l4-5.8c1.4-1.9,2.8-3.8,4.3-5.6s3.1-3.6,4.9-5.1c-1.7,1.6-3.2,3.4-4.6,5.3c-1.4,1.9-2.8,3.8-4,5.8l-3.8,6
	c-1.3,2-2.6,4-4,5.9l-2.7,3.6l1.7-4.2c1.8-4.4,3.6-8.9,5.6-13.2c0.5-1.1,1-2.2,1.6-3.2c0.5-1.1,1.1-2.1,1.7-3.2c0.5-1,1-2.1,1.2-3.1
	s0.2-2.1-0.2-3l0.8,0.5c-0.1,0-0.3,0.1-0.5,0.3s-0.4,0.5-0.6,0.9l-1.4,2.1l-2.8,4.2l-5.5,8.3l-1.6-1c0.8-1.5,1.6-3,2.4-4.6
	c0.7-1.5,1.4-3.1,2-4.6c0.3-0.8,0.6-1.6,0.8-2.4l0.6-2.4l0.2-1.2l0.1-1.2v-2.4l1.7,0.5c-1.9,2.2-3.5,4.8-5.1,7.5l-4.6,7.9
	c-1.6,2.6-3.1,5.3-4.6,7.9l-4.7,7.9l-1.2-0.7c1.5-2.7,2.9-5.5,4.3-8.3s2.7-5.6,4.1-8.4c1.3-2.8,2.6-5.7,3.8-8.6l1.8-4.3L328,23.4
	L328,23.4z M360.7,48.1c-0.9,1.4-1.7,2.8-2.6,4.3c-0.9,1.4-1.8,2.8-2.8,4.2c-1.9,2.7-3.9,5.4-5.9,8.1c-4,5.3-8.3,10.4-12.6,15.6
	l-1-0.9c4.2-4.4,8.4-8.9,12.7-13.2l6.4-6.6l3.2-3.3c0.5-0.5,1.1-1.1,1.8-1.7c0.7-0.5,1.6-1,2.7-1h1l-0.1,1c-0.1,1.2-0.7,2.2-1.3,3
	c-0.6,0.8-1.2,1.5-1.8,2.2l-3.5,4.3c-2.4,2.8-4.7,5.7-7.1,8.5l-1.4-1.4c2.6-2.2,5.2-4.3,7.8-6.3c1.3-1,2.7-2,4-3l1-0.7l0.5-0.4
	l0.3-0.2l0.4-0.2c0.5-0.3,1-0.4,1.6-0.4c0.3,0,0.7,0,1.1,0.3c0.2,0.1,0.4,0.4,0.5,0.6c0.1,0.3,0.1,0.5,0.1,0.7v0.3l-0.3,0.2
	c-4,3.7-8.1,7.4-12.3,10.9c-4.2,3.5-8.5,6.9-12.8,10.2l-0.8-1c4.8-3.4,9.6-6.9,14.4-10.2l7.2-5.1c1.2-0.8,2.4-1.7,3.7-2.4
	c1.3-0.7,2.7-1.3,4.2-1.4c-1.5,0.2-2.8,0.8-4.1,1.6c-1.2,0.8-2.4,1.7-3.6,2.6l-7,5.3c-4.7,3.6-9.4,7.1-14.1,10.6l-0.8-1
	c4.3-3.4,8.5-6.9,12.5-10.5c2-1.8,4.1-3.6,6.1-5.4s4-3.7,6-5.6l-0.3,0.6c0,0,0.1,0.2,0.2,0.3h-0.1c-0.2,0-0.6,0.1-0.8,0.2l-0.2,0.1
	l-0.3,0.2l-0.5,0.4l-1,0.7c-1.3,1-2.7,2-4,3c-2.6,2-5.2,4.2-7.7,6.3l-1.4-1.4c2.4-2.8,4.7-5.7,7.1-8.5l3.6-4.2
	c1.2-1.4,2.5-2.8,2.6-4.1l0.9,1c-0.5,0-1,0.2-1.5,0.6s-1,0.9-1.6,1.5l-3.2,3.3l-6.4,6.5c-4.3,4.4-8.6,8.7-13,13l-1-0.9l6.5-7.6
	l3.2-3.8l3.2-3.8c2.1-2.6,4.2-5.2,6.2-7.8c1-1.3,2-2.7,3-4C358.8,50.9,359.8,49.5,360.7,48.1L360.7,48.1z M322,104.6
	c3.7-3,7.4-6.1,11-9.2c1.8-1.6,3.6-3.1,5.4-4.7s3.5-3.2,5.3-4.8l5.2-4.9l-4,5.9l-4.6,6.8l-4.7,6.8L335,99c0.3,0.1,0.6,0,1-0.2
	s0.8-0.5,1.1-0.9l2.4-2.5c1.6-1.7,3.3-3.3,5.1-4.9c3.4-3.2,7-6.2,10.7-9l5.5-4.2l-4.2,5.4c-3.9,5-7.9,9.9-12,14.7
	c-2.1,2.4-4.2,4.8-6.3,7.1c-2.1,2.3-4.3,4.6-6.6,6.9l6-7.3l5.9-7.4c1.9-2.5,3.9-5,5.8-7.5s3.8-5,5.7-7.6l1.3,1.3
	c-3.6,2.9-7.1,5.9-10.5,9.1c-1.7,1.6-3.4,3.2-5,4.8l-2.5,2.5c-0.5,0.4-0.9,0.9-1.6,1.2c-0.6,0.4-1.5,0.6-2.4,0.4l-1.4-0.3l0.8-1.1
	l4.8-6.8l4.8-6.7l1.2,1c-3.6,3.2-7.3,6.2-11.1,9.2c-1.9,1.5-3.8,2.9-5.7,4.3C326,101.9,324,103.3,322,104.6L322,104.6z"/>
<path class="st0" d="M327.4,58.3c-3.4,18.5-6.9,36.9-10.3,55.4c-2.1,11.1-4.1,22.3-4.2,33.7c0,7.9,1,15.7,1.9,23.5
	c5.1,40.8,17.5,113.1,24.6,153c2.1,11.9,3.5,23.1,2.7,35.3c-2.3,33.4-14.1,65.6-32.8,89.5c-9.8,12.5-22.1,23-32.8,34.8
	c-9,9.9-23.4,24.2-23,38.3c0.1,2.7,0.5,5.4,1.6,7.8c0.9,2,2.1,3.8,3.2,5.6c9.9,17.5-0.3,32-8.6,47.1c-5.1,9.3,7.7,25.6,12.9,33.2
	c7.3,10.5,16.8,21.3,29.1,26c12.6,4.8,25,10.9,38.3,12c7.2,0.6,7.8,6.6,5.8,10.6c-1.2,2.5-4.1,3.4-6.7,4.1
	c-43.7,11.3-86.8,14.9-131.8,13.5c-25.5-0.8-72.2-5.6-82.3-14.3c-3.5-3-3.9-7.1-0.6-10.4c2-2,7-1.9,9.7-2.3
	c27.5-4.3,56-14.9,70.8-39.3c5.7-9.5,17.7-26.9,11.1-38.3c-1.2-2-2.9-3.7-4.4-5.6c-7.6-9.7-7-24.1-1.5-35.1c2-3.9,4.5-7.6,5.4-11.9
	c2.8-14.8-16.2-28.7-26.1-36.9c-23-19.2-43.1-37.3-54.5-70.8c-13.4-39.8-18.4-70.3-11.4-111.4c22-121.4,37.7-176.9,7.2-242.4
	C188,60.2,260.1,60.9,327.4,58.3L327.4,58.3z"/>
<path d="M120.5,662.3c0,0,0.7,0.3,2.2,0.7c0.4,0.1,0.7,0.3,1.2,0.4c0.5,0.1,0.9,0.2,1.5,0.4c1.1,0.3,2.3,0.6,3.6,0.9
	c1.4,0.3,2.9,0.6,4.6,1c1.7,0.3,3.5,0.6,5.4,1c2,0.3,4,0.6,6.3,1c2.2,0.3,4.5,0.6,6.9,1c4.9,0.6,10.1,1.3,15.6,1.9
	c5.5,0.6,11.4,1.1,17.5,1.7c6.1,0.5,12.3,1.1,18.7,1.4c6.3,0.2,12.8,0.2,19.3,0.1c6.4-0.1,12.9-0.4,19.3-0.8
	c6.3-0.4,12.6-0.8,18.7-1.3s11.9-1,17.5-1.6c5.5-0.6,10.7-1.2,15.6-1.9c2.4-0.3,4.8-0.6,6.9-1c2.2-0.3,4.3-0.6,6.3-0.9
	c3.9-0.6,7.3-1.2,10.1-1.7s5-0.9,6.5-1.2s2.3-0.4,2.3-0.4s-0.7,0.2-2.2,0.5s-3.6,0.9-6.4,1.4c-2.8,0.6-6.2,1.3-10.1,2
	s-8.3,1.5-13.1,2.2c-4.9,0.7-10.1,1.5-15.6,2.2s-11.4,1.4-17.5,1.9s-12.3,1-18.7,1.4c-6.3,0.4-12.9,0.8-19.3,0.9
	c-6.5,0.1-13,0-19.4-0.2c-6.4-0.3-12.7-0.9-18.8-1.5c-12.1-1.2-23.3-2.7-33-4.2c-2.4-0.4-4.7-0.8-6.9-1.1c-2.1-0.4-4.3-0.8-6.2-1.2
	c-2-0.4-3.7-0.8-5.4-1.2c-1.7-0.4-3.2-0.8-4.6-1.1c-1.4-0.3-2.6-0.7-3.6-1.1c-0.6-0.2-1-0.3-1.5-0.5s-0.8-0.3-1.2-0.5
	C121.2,662.6,120.5,662.3,120.5,662.3L120.5,662.3z"/>
</svg>
