<?xml version="1.0" encoding="utf-8"?>
<!-- Generator: Adobe Illustrator 19.2.0, SVG Export Plug-In . SVG Version: 6.00 Build 0)  -->
<svg version="1.1" id="Layer_1" xmlns="http://www.w3.org/2000/svg" xmlns:xlink="http://www.w3.org/1999/xlink" x="0px" y="0px"
	 viewBox="0 0 700 700" style="enable-background:new 0 0 700 700;" xml:space="preserve">
<style type="text/css">
	.st0{fill:none;}
	.st1{fill:none;stroke:#000000;stroke-width:5;stroke-miterlimit:10;}
	.st2{opacity:0.9;fill:url(#SVGID_1_);}
	.st3{fill:url(#SVGID_2_);}
	.st4{fill:none;stroke:#000000;stroke-width:2;stroke-miterlimit:10;}
	.st5{fill:none;stroke:#000000;stroke-miterlimit:10;}
	.st6{fill:#FFEC00;}
</style>
<rect x="0" y="0" class="st0" width="700" height="700"/>
<path class="st1" d="M6708.6-568.1c0.3,38.5,0.2,82.4-5.7,120.5c-2.3,14.7-3.7,31.7-10.6,44.9c-9.4,17.9-18.6,35.9-34,49.5
	c-5.5,4.9-11.5,9.2-17.9,12.8c-4.2,2.3-15.3,5.1-15.9,10.8c-0.4,3.6,3.8,5.7,6.9,7.6c6.9,4.3,10.9,12.3,11.6,20.4
	c1.5,15.4-5.6,30.7-18.9,38.8c-0.8,0.5-1.6,1-1.9,1.8c-0.7,2.1,2.1,3.4,4.2,3.8c12.1,2.1,24,5,35.7,8.7c7.7,2.4,24.3,10.6,12,18.5
	c-7.7,4.9-17,6.2-26,7.3c-24.7,3.1-49.7,6.2-74.5,3.9c-5.6-0.5-11.2-1.4-16.8-2.2c-7.5-1.1-15-2.2-22.5-3.3
	c-5.3-0.8-11.8-2.7-12.7-7.9c-1.7-10.2,16.6-15.1,23.6-17.2c4.9-1.5,36.5-4.6,35.6-9.3c-0.5-2.4-2.8-3.9-4.8-5.4
	c-8.9-6.4-15-16.4-16.6-27.2c-1.6-10.8,1.3-22.2,7.9-30.9c2.2-2.9,4.9-6,4.4-9.6c-0.2-1.5-1-2.9-2-4.1c-5.1-6.7-15.9-9.5-22.8-14.7
	c-7.9-6-15.2-12.8-21.6-20.4c-12.5-14.5-22.1-31.5-27.6-49.9c-5.2-17.2-6.9-35.3-8.2-53.2c-2.3-31-3.6-62-3.8-93.1
	c20.2-2.4,42-1.8,62.4-1.4C6600.9-567.5,6708.6-570.2,6708.6-568.1z"/>
<g>
	<path d="M6582-253.2c0,0,0,0.2,0,0.5c0,0.3,0,0.8,0,1.4c0,0.6,0.1,1.3,0.6,1.9c0.4,0.6,1.2,0.8,2.2,0.8c2.1-0.1,4.5-0.2,7.1-0.2
		c1.3,0,2.7-0.1,4-0.1c1.4-0.1,2.8-0.1,4.1-0.2c1.4-0.1,2.8-0.1,4.1-0.2c1.4-0.1,2.7-0.1,4-0.2c2.6-0.1,5-0.2,7.1-0.3
		c2-0.1,3.7-0.6,4.6-1.3c0.4-0.4,0.7-0.8,0.8-1.1c0.1-0.3,0.2-0.5,0.2-0.5s0,0.2,0,0.5c-0.1,0.3-0.2,0.8-0.6,1.3
		c-0.4,0.5-1.1,1-1.9,1.4c-0.8,0.4-1.8,0.7-2.8,0.8c-2.1,0.4-4.5,0.7-7.1,0.9c-1.3,0.1-2.7,0.3-4,0.4c-1.4,0.1-2.8,0.2-4.2,0.2
		c-1.4,0-2.8,0.1-4.2,0.1c-1.4,0-2.7,0-4.1,0c-2.6-0.1-5.1-0.2-7.2-0.4c-0.5-0.1-1.1-0.1-1.6-0.4c-0.5-0.3-0.9-0.7-1.1-1.1
		c-0.4-0.9-0.4-1.7-0.3-2.3c0.1-0.6,0.2-1.1,0.3-1.4C6581.9-253,6582-253.2,6582-253.2z"/>
</g>
<g>
	<path d="M6581.6-337.8c0,0,0.6,0.2,1.6,0.5c0.5,0.2,1.2,0.3,1.9,0.5c0.7,0.2,1.6,0.4,2.4,0.5c0.9,0.2,1.9,0.3,2.9,0.5
		c1,0.1,2.1,0.2,3.3,0.3c1.1,0.1,2.3,0.1,3.5,0.2c1.2,0,2.4,0,3.6,0c1.2,0,2.5,0,3.7-0.1c1.2,0,2.4-0.1,3.6-0.1
		c2.3-0.1,4.5-0.1,6.3-0.3c1.8-0.2,3.2-0.6,4.1-1.2c0.4-0.3,0.8-0.6,1-0.8c0.2-0.2,0.3-0.3,0.3-0.3s-0.1,0.1-0.2,0.4
		c-0.2,0.3-0.4,0.6-0.8,1c-0.8,0.8-2.3,1.6-4.2,2c-0.9,0.2-2,0.4-3,0.5c-1.1,0.1-2.2,0.3-3.3,0.4c-1.2,0.1-2.4,0.2-3.6,0.3
		c-1.2,0.1-2.5,0.1-3.7,0.2c-1.3,0-2.5,0-3.7-0.1c-0.6,0-1.2-0.1-1.8-0.1c-0.6-0.1-1.2-0.1-1.8-0.2c-1.2-0.1-2.3-0.4-3.4-0.6
		c-0.5-0.1-1-0.3-1.5-0.4c-0.5-0.2-1-0.3-1.4-0.4c-1.8-0.6-3.2-1.3-4.2-1.8C6582.2-337.5,6581.6-337.8,6581.6-337.8z"/>
</g>
<g>
	<path d="M6531.5-235.7c0,0,0.1,0.1,0.3,0.3c0.2,0.2,0.5,0.4,1,0.6c0.9,0.5,2.3,1,4.2,1.4c1.9,0.4,4.2,0.7,6.8,1.1
		c2.6,0.4,5.6,0.7,8.9,1.1c3.3,0.3,6.8,0.7,10.6,1c3.7,0.3,7.7,0.5,11.8,0.7c8.2,0.3,17,0.5,25.7,0.6c4.4,0.1,8.8,0.1,13.1,0.2
		c4.3,0,8.5,0.1,12.6,0c4.1-0.1,8-0.4,11.7-0.8c3.7-0.5,7.2-1.1,10.4-1.7c6.4-1.4,11.6-3,15.2-4.3c1.8-0.7,3.2-1.2,4.2-1.6
		c1-0.4,1.5-0.6,1.5-0.6s-0.5,0.2-1.4,0.7c-0.9,0.4-2.3,1.1-4.1,1.8c-3.5,1.5-8.7,3.5-15.1,5.1c-6.4,1.6-14.1,2.9-22.3,3.2
		c-4.1,0.2-8.4,0.2-12.7,0.2c-4.3,0-8.7-0.1-13.1-0.1c-4.4-0.1-8.8-0.2-13.1-0.3c-4.3-0.1-8.6-0.4-12.7-0.6c-4.1-0.3-8.1-0.6-11.8-1
		c-3.8-0.4-7.3-0.8-10.6-1.3c-1.6-0.3-3.2-0.5-4.7-0.7c-1.5-0.3-2.9-0.5-4.2-0.8c-2.6-0.5-4.9-1-6.8-1.5c-1.9-0.5-3.3-1.1-4.1-1.7
		c-0.4-0.3-0.7-0.5-0.9-0.7C6531.6-235.6,6531.5-235.7,6531.5-235.7z"/>
</g>
<linearGradient id="SVGID_1_" gradientUnits="userSpaceOnUse" x1="6498.813" y1="-446.2358" x2="6704.6909" y2="-446.2358">
	<stop  offset="1.785714e-02" style="stop-color:#801FE3"/>
	<stop  offset="1" style="stop-color:#B7A7FF"/>
</linearGradient>
<path class="st2" d="M6498.8-539.9c1.4,24.4,2.7,48.8,4.1,73.2c0.4,7.9,0.9,15.9,2.2,23.7c1.8,11.1,5.4,21.8,8.9,32.5
	c3,9.1,6,18.2,11.1,26.3c17.8,28.1,51.5,32.7,81.9,31.3c10.6-0.5,21.3-1.5,31.5-4.7c66.9-21.3,65.2-117,66.1-172.7
	c0-2.6,0.1-5.1,0.1-7.7C6636-535.8,6567.2-534,6498.8-539.9z"/>
<g>
	<path d="M6493.7-559.6c0,0,0.6,8.1,1.5,22.2c0.5,7.1,1,15.6,1.7,25.5c0.6,9.8,1.4,20.9,2.1,33.1c0.4,6.1,0.7,12.4,1.3,18.9
		c0.5,6.5,1.4,13.2,3,19.9c1.6,6.7,3.7,13.5,6,20.4c2.4,6.9,4.5,14,7.5,20.9c0.8,1.7,1.5,3.4,2.4,5.1c0.9,1.6,1.8,3.3,2.8,4.8
		c1.1,1.6,2.2,3.1,3.4,4.7c1.2,1.4,2.5,2.8,3.7,4.3c5.3,5.5,11.7,10,18.8,13.2c7.1,3.3,14.8,5.4,22.6,6.6c7.9,1.3,15.9,1.7,23.9,1.7
		c8-0.1,16.1-0.4,24-1.5c3.9-0.5,7.9-1.2,11.7-2.2c1-0.3,1.9-0.5,2.8-0.8l0.7-0.2c0.1,0,0,0,0.1,0l0.2-0.1l0.4-0.1l1.4-0.5l2.8-1
		c0.5-0.2,0.9-0.3,1.4-0.5l1.3-0.6c7.1-3.1,13.7-7.4,19.4-12.5c5.7-5.1,10.5-11.1,14.4-17.5c4-6.3,7.1-13.1,9.7-19.8
		c2.6-6.8,4.6-13.6,6.3-20.3c3.2-13.5,5-26.5,6.2-38.5c1.1-12.1,1.7-23.2,2-33c0.3-9.9,0.5-18.4,0.7-25.5
		c0.2-14.2,0.4-22.2,0.4-22.2s0,2,0.1,5.8c0,3.8,0.1,9.4,0.2,16.4c0,7.1,0,15.7-0.2,25.5c-0.1,9.9-0.5,21-1.5,33.1
		c-1,12.1-2.6,25.2-5.7,38.9c-1.6,6.8-3.6,13.7-6.1,20.6c-2.5,6.9-5.7,13.8-9.8,20.3c-4,6.5-9,12.7-14.8,18.1
		c-5.9,5.4-12.7,9.8-20.2,13.1l-1.4,0.6c-0.5,0.2-0.9,0.4-1.4,0.5l-2.8,1l-1.4,0.5l-0.4,0.1l-0.2,0.1l-0.2,0.1l-0.7,0.2
		c-1,0.3-2,0.6-2.9,0.8c-3.9,1-8,1.8-12,2.4c-8.1,1.1-16.2,1.5-24.4,1.6c-8.2,0-16.3-0.5-24.4-1.8c-8-1.3-16-3.5-23.3-7
		c-7.4-3.4-14.1-8.1-19.6-13.9c-1.3-1.5-2.6-3.1-3.9-4.6c-1.1-1.6-2.2-3.2-3.3-4.7c-2.2-3.4-3.9-6.8-5.4-10.4
		c-3-7.1-5.2-14.2-7.5-21.2c-2.2-7-4.3-13.9-5.8-20.7c-1.6-6.9-2.4-13.6-2.8-20.2c-0.5-6.6-0.7-12.9-1-18.9
		c-0.6-12.1-1.1-23.2-1.6-33.1c-0.5-9.9-0.8-18.4-1.2-25.5C6494-551.6,6493.7-559.6,6493.7-559.6z"/>
</g>
<g>
	<path d="M6494.1-544.2c0,0,0.8,0,2.4,0.1c1.6,0.1,3.8,0.2,6.7,0.3c2.9,0.2,6.4,0.3,10.5,0.5c4,0.2,8.6,0.3,13.6,0.5
		c5,0.2,10.4,0.3,16.1,0.5c5.7,0.2,11.7,0.2,17.9,0.4c6.2,0.1,12.6,0.1,19.2,0.2c6.5,0.1,13.2,0,19.8,0.1c6.6,0,13.3,0,19.8-0.1
		c6.5-0.1,13-0.1,19.2-0.2c12.5-0.1,24.1-0.2,34-0.3c10-0.1,18.3-0.1,24.1-0.1c2.9,0,5.2,0,6.7,0c1.6,0,2.4,0,2.4,0
		s-0.8,0.1-2.4,0.2c-1.6,0.1-3.8,0.2-6.7,0.4c-5.8,0.3-14.1,0.8-24.1,1.3c-10,0.5-21.6,0.9-34,1.3c-6.2,0.1-12.7,0.4-19.2,0.4
		c-6.5,0.1-13.2,0.1-19.8,0.2c-6.6,0-13.3,0-19.8-0.2c-6.5-0.1-13-0.3-19.2-0.4c-6.2-0.2-12.3-0.4-18-0.8c-2.9-0.2-5.6-0.3-8.3-0.5
		c-2.7-0.2-5.3-0.4-7.8-0.5c-2.5-0.2-4.9-0.3-7.1-0.5c-2.3-0.2-4.4-0.4-6.4-0.6c-4-0.4-7.6-0.7-10.4-1c-2.9-0.3-5.2-0.6-6.7-0.7
		C6494.9-544.1,6494.1-544.2,6494.1-544.2z"/>
</g>
<g>
	<linearGradient id="SVGID_2_" gradientUnits="userSpaceOnUse" x1="308.7127" y1="147.2894" x2="308.7127" y2="501.9623">
		<stop  offset="0" style="stop-color:#FFFFFF"/>
		<stop  offset="0.1588" style="stop-color:#FC247C"/>
	</linearGradient>
	<path class="st3" d="M396.2,255.1c-9-34.5-11.6-71.5-7.6-107.5c-0.7,0-1.5,0.1-2.2,0.1c-31.3,1.9-62.7,3.8-94,5.6
		c-21.6,1.3-43.7,2.5-64.3-5.7c-0.4-0.2-0.8-0.3-1.1-0.5c2.5,24,1.5,48.5-3,72c-6.9,35.8-21.7,105.7-21.9,142.5
		c-0.1,19.6,4,38.8,8.9,57.4c6.4,24.2,23.9,48.1,40.1,63.1c16.5,15.3,34.4,19.6,54.4,19.7c18.2,0.1,31.6,0.2,49-8.7
		c2.3-1.2,11.1-8.8,13.3-11.2c15.2-16.7,27.8-29.1,36.9-52.7c9.1-23.6,13.6-50.7,8.7-76.5C409.4,331.6,401.7,275.8,396.2,255.1z"/>
	<path class="st1" d="M412.2,76.5c-3.4,18.5-6.9,36.9-10.3,55.4c-2.1,11.1-4.1,22.3-4.2,33.7c0,7.9,1,15.7,1.9,23.5
		c5.1,40.8,17.5,113.1,24.6,153c2.1,11.9,3.5,23.1,2.7,35.3c-2.3,33.4-14.1,65.6-32.8,89.5c-9.8,12.5-22.1,23-32.8,34.8
		c-9,9.9-23.4,24.2-23,38.3c0.1,2.7,0.5,5.4,1.6,7.8c0.9,2,2.1,3.8,3.2,5.6c9.9,17.5-0.3,32-8.6,47.1c-5.1,9.3,7.7,25.6,12.9,33.2
		c7.3,10.5,16.8,21.3,29.1,26c12.6,4.8,25,10.9,38.3,12c7.2,0.6,7.8,6.6,5.8,10.6c-1.2,2.5-4.1,3.4-6.7,4.1
		c-43.7,11.3-86.8,14.9-131.8,13.5c-25.5-0.8-72.2-5.6-82.3-14.3c-3.5-3-3.9-7.1-0.6-10.4c2-2,7-1.9,9.7-2.3
		c27.5-4.3,56-14.9,70.8-39.3c5.7-9.5,17.7-26.9,11.1-38.3c-1.2-2-2.9-3.7-4.4-5.6c-7.6-9.7-7-24.1-1.5-35.1c2-3.9,4.5-7.6,5.4-11.9
		c2.8-14.8-16.2-28.7-26.1-36.9c-23-19.2-45.1-37.3-56.5-70.8c-13.4-39.8-15.9-129-3.4-169.4c2.8-9,6.4-17.6,9.1-26.7
		c15.1-49.8,9.4-108.5-4.9-157.7C275.8,78.4,344.9,79.1,412.2,76.5z"/>
	<g>
		<path d="M262.4,660.6c0,0,1.4,0.5,3.8,1.4c0.6,0.2,1.2,0.5,2,0.7c0.7,0.2,1.5,0.5,2.4,0.7c0.8,0.3,1.7,0.5,2.7,0.8
			c1,0.3,2,0.5,3,0.8c1,0.3,2.1,0.6,3.3,0.9c1.1,0.2,2.3,0.5,3.5,0.8c0.6,0.1,1.2,0.3,1.8,0.4c0.6,0.1,1.3,0.2,1.9,0.3
			c1.3,0.2,2.6,0.5,3.9,0.7c2.7,0.3,5.4,0.7,8.3,0.9c2.8,0.3,5.7,0.3,8.6,0.4c2.9-0.1,5.8,0,8.6-0.3c2.8-0.1,5.6-0.5,8.3-0.8
			c1.3-0.2,2.6-0.4,3.9-0.6c0.6-0.1,1.3-0.2,1.9-0.3c0.6-0.1,1.2-0.3,1.8-0.4c1.2-0.3,2.4-0.5,3.5-0.7c1.1-0.2,2.2-0.6,3.3-0.8
			c1-0.3,2.1-0.5,3-0.8c0.9-0.3,1.8-0.6,2.7-0.8c0.8-0.3,1.6-0.5,2.4-0.7c0.7-0.2,1.4-0.5,2-0.7c2.4-0.9,3.8-1.3,3.8-1.3
			s-1.3,0.6-3.6,1.7c-0.6,0.3-1.2,0.6-1.9,0.9c-0.7,0.3-1.5,0.6-2.3,0.9c-0.8,0.3-1.7,0.7-2.6,1c-0.9,0.3-1.9,0.6-3,1
			c-1,0.3-2.1,0.7-3.3,1c-1.1,0.3-2.3,0.6-3.5,0.9c-0.6,0.1-1.2,0.3-1.9,0.5c-0.6,0.1-1.3,0.3-1.9,0.4c-1.3,0.3-2.6,0.5-4,0.7
			c-2.7,0.4-5.5,0.8-8.4,1c-2.9,0.3-5.8,0.3-8.7,0.4c-2.9-0.1-5.9-0.1-8.7-0.4c-2.9-0.2-5.7-0.7-8.4-1.1c-1.4-0.2-2.7-0.5-4-0.8
			c-0.6-0.1-1.3-0.3-1.9-0.4c-0.6-0.1-1.2-0.3-1.8-0.5c-1.2-0.3-2.4-0.6-3.5-0.9c-1.1-0.3-2.2-0.7-3.3-1c-1-0.3-2-0.6-3-1
			c-0.9-0.4-1.8-0.7-2.6-1.1c-0.8-0.3-1.6-0.6-2.3-0.9c-0.7-0.3-1.3-0.6-1.9-0.9C263.7,661.3,262.4,660.6,262.4,660.6z"/>
	</g>
	<g>
		<path d="M288.9,632.9c0,0,0.7,0.1,2,0.3c0.6,0.1,1.4,0.2,2.2,0.4c0.9,0.1,1.8,0.3,2.9,0.4c1.1,0.2,2.2,0.3,3.4,0.4
			c1.2,0.2,2.5,0.2,3.8,0.3c1.3,0.1,2.7,0.2,4.1,0.2c1.4,0.1,2.8,0.1,4.2,0.1c1.4,0,2.8,0,4.2-0.1c1.4-0.1,2.8-0.2,4.1-0.3
			c1.3-0.2,2.6-0.2,3.8-0.4c1.2-0.2,2.4-0.3,3.4-0.5c1.1-0.1,2-0.3,2.9-0.5c0.9-0.1,1.6-0.3,2.2-0.4c1.2-0.2,2-0.3,2-0.3
			s-0.7,0.3-1.9,0.7c-0.6,0.2-1.3,0.5-2.2,0.7c-0.8,0.3-1.8,0.6-2.9,0.8c-1.1,0.3-2.2,0.6-3.4,0.8c-1.2,0.3-2.5,0.5-3.9,0.7
			c-1.4,0.2-2.8,0.4-4.2,0.4c-1.4,0.1-2.9,0.1-4.3,0.2c-1.5,0-2.9,0-4.4-0.1c-1.4,0-2.8-0.2-4.2-0.4c-1.4-0.2-2.7-0.4-3.9-0.6
			c-1.2-0.2-2.4-0.5-3.4-0.8c-1.1-0.2-2-0.5-2.9-0.8c-0.9-0.2-1.6-0.5-2.2-0.7C289.6,633.2,288.9,632.9,288.9,632.9z"/>
	</g>
	<g>
		<path d="M190.6,680.5c0,0,0.8,0.3,2.4,0.7c0.4,0.1,0.8,0.3,1.3,0.4c0.5,0.1,1,0.2,1.6,0.4c1.2,0.3,2.5,0.6,3.9,0.9
			c1.5,0.3,3.1,0.6,4.9,1c1.8,0.3,3.8,0.6,5.8,1c2.1,0.3,4.3,0.6,6.7,1c2.4,0.3,4.8,0.6,7.4,1c5.2,0.6,10.8,1.3,16.7,1.9
			c5.9,0.6,12.2,1.1,18.7,1.7c6.5,0.5,13.2,1.1,20,1.4c6.8,0.2,13.7,0.2,20.7,0.1c6.9-0.1,13.8-0.4,20.7-0.8
			c6.8-0.4,13.5-0.8,20-1.3c6.5-0.5,12.7-1,18.7-1.6c5.9-0.6,11.5-1.2,16.7-1.9c2.6-0.3,5.1-0.6,7.4-1c2.4-0.3,4.6-0.6,6.7-0.9
			c4.2-0.6,7.8-1.2,10.8-1.7c3-0.5,5.4-0.9,7-1.2c1.6-0.3,2.5-0.4,2.5-0.4s-0.8,0.2-2.4,0.5c-1.6,0.3-3.9,0.9-6.9,1.4
			c-3,0.6-6.6,1.3-10.8,2c-4.2,0.7-8.9,1.5-14,2.2c-5.2,0.7-10.8,1.5-16.7,2.2c-5.9,0.7-12.2,1.4-18.7,1.9c-6.5,0.5-13.2,1-20,1.4
			c-6.8,0.4-13.8,0.8-20.7,0.9c-7,0.1-13.9,0-20.8-0.2c-6.9-0.3-13.6-0.9-20.1-1.5c-13-1.2-25-2.7-35.4-4.2c-2.6-0.4-5-0.8-7.4-1.1
			c-2.3-0.4-4.6-0.8-6.6-1.2c-2.1-0.4-4-0.8-5.8-1.2c-1.8-0.4-3.4-0.8-4.9-1.1c-1.5-0.3-2.8-0.7-3.9-1.1c-0.6-0.2-1.1-0.3-1.6-0.5
			c-0.5-0.2-0.9-0.3-1.3-0.5C191.4,680.8,190.6,680.5,190.6,680.5z"/>
	</g>
	<g>
		<path d="M217.6,93.3c0,0,0.3,0.9,0.8,2.5c0.5,1.7,1.4,4.1,2.3,7.4c1.9,6.5,4.4,16.2,6.4,28.8c0.5,3.2,1,6.5,1.3,10
			c0.5,3.5,0.7,7.2,1,11c0.5,7.7,0.8,16,0.5,24.9c-0.2,8.9-1,18.3-2.4,28.2c-1.5,9.9-3.6,20.1-5.6,30.8
			c-4.1,21.4-8.5,44.6-12.3,69.3c-1.8,12.3-3.5,25.1-4.5,38.1c-0.5,6.5-0.8,13.1-0.5,19.7c0.2,6.6,1,13.3,2,20
			c1,6.7,2.4,13.4,4,20.1c0.8,3.4,1.6,6.7,2.5,10.1c0.9,3.4,1.9,6.6,3.1,9.9c4.9,13,12.3,25.1,21,36.3c4.4,5.6,9.2,10.9,14.3,15.8
			c0.6,0.6,1.3,1.3,1.9,1.8l2,1.8c0.7,0.6,1.4,1.1,2.1,1.7c0.7,0.5,1.4,1.1,2.1,1.6c2.9,2.1,5.9,4,9,5.6c3.2,1.6,6.4,3,9.8,4.1
			c3.4,1.1,6.8,2,10.3,2.6c3.5,0.6,7.1,1,10.6,1.2c3.6,0.2,7.2,0.2,10.8,0.2c7.3,0,14.5,0,21.5-1.1c7.1-1,13.9-3.1,20.4-6.1
			c12.2-6.5,21.3-18.6,30.8-29c4.6-5.4,8.9-11.1,12.5-17c3.6-6,6.7-12.3,9.2-18.7c5-13,8.4-26.4,9.8-39.9c0.7-6.7,0.9-13.4,0.6-20
			c-0.2-3.3-0.5-6.6-0.9-9.8c-0.4-3.2-1-6.5-1.6-9.7c-2.2-13-4.1-25.7-6-38c-1.9-12.3-3.8-24.3-5.9-35.9c-1-5.8-2.1-11.4-3.4-16.9
			c-0.7-2.8-1.3-5.5-2-8.2c-0.6-2.7-1.2-5.4-1.8-8.1c-4.4-21.4-6-41.5-6-59.3c0-17.8,1.5-33.2,3.4-45.8c1.9-12.6,4.2-22.3,6-28.9
			c0.9-3.3,1.6-5.8,2.1-7.5c0.5-1.7,0.8-2.6,0.8-2.6s-0.2,0.9-0.7,2.6c-0.5,1.7-1.1,4.2-2,7.5c-1.6,6.6-3.7,16.4-5.5,29
			c-1.7,12.6-3.1,28-2.8,45.7c0,4.4,0.2,9,0.5,13.7c0.3,4.7,0.7,9.5,1.2,14.4c0.5,4.9,1.2,10,2,15.1c0.8,5.1,1.8,10.4,2.9,15.7
			c0.6,2.7,1.2,5.3,1.8,8c0.7,2.7,1.4,5.4,2.1,8.2c1.3,5.5,2.5,11.2,3.5,17c2.2,11.6,4.2,23.6,6.2,35.9c2,12.3,4,25,6.3,37.9
			c0.6,3.2,1.2,6.5,1.7,9.8c0.4,3.3,0.8,6.7,0.9,10.1c0.3,6.8,0.1,13.6-0.6,20.4c-1.4,13.7-4.8,27.4-9.8,40.5
			c-2.5,6.6-5.7,13.1-9.4,19.2c-3.7,6.1-8.1,11.9-12.7,17.4c-4.7,5.5-9.6,10.8-14.4,16.1l-0.9,1c-0.3,0.4-0.7,0.7-1,1
			c-0.7,0.6-1.3,1.3-2,1.9c-1.4,1.2-2.7,2.4-4.1,3.6c-1.4,1.2-2.8,2.3-4.3,3.5c-0.4,0.3-0.7,0.5-1.2,0.9c-0.2,0.2-0.4,0.3-0.6,0.4
			c0,0-0.3,0.2-0.4,0.2l-0.3,0.2l-2.5,1.2c-6.7,3.1-13.8,5.4-21.2,6.4c-7.3,1.1-14.7,1.1-22,1.1c-3.6,0-7.3,0-11-0.3
			c-3.7-0.3-7.3-0.7-11-1.3c-3.6-0.7-7.2-1.6-10.7-2.7c-3.5-1.2-6.9-2.7-10.2-4.3c-3.3-1.8-6.4-3.7-9.4-5.9
			c-0.8-0.5-1.5-1.1-2.2-1.7c-0.7-0.6-1.5-1.1-2.1-1.8l-2-1.8c-0.7-0.6-1.3-1.3-2-1.9c-5.2-5.1-10.1-10.5-14.5-16.1
			c-8.9-11.4-16.4-23.8-21.4-37.1c-1.2-3.3-2.3-6.8-3.2-10.1c-0.9-3.4-1.7-6.8-2.5-10.1c-1.6-6.8-3-13.5-4-20.3
			c-1-6.8-1.8-13.6-2-20.3c-0.3-6.7,0-13.4,0.6-20c1-13.1,2.8-25.9,4.8-38.2c3.9-24.7,8.5-47.9,12.8-69.3
			c2.1-10.7,4.3-20.9,5.8-30.7c1.5-9.8,2.4-19.2,2.7-28c0.3-8.8,0.2-17.1-0.2-24.8c-0.3-3.8-0.5-7.5-0.9-11c-0.3-3.5-0.8-6.8-1.2-10
			c-1.8-12.6-4.1-22.3-5.9-28.9c-0.8-3.3-1.7-5.8-2.2-7.5C217.9,94.2,217.6,93.3,217.6,93.3z"/>
	</g>
	<g>
		<path d="M228.7,148.7c0,0,0.7,0.1,1.9,0.4c0.6,0.1,1.4,0.3,2.3,0.5c0.9,0.2,1.9,0.4,3.1,0.6c2.3,0.4,5.1,0.9,8.3,1.3
			c3.2,0.4,6.8,0.8,10.8,1.1c4,0.3,8.3,0.4,12.8,0.6c4.6,0.1,9.4,0.3,14.4,0.4c5,0.1,10.2,0,15.4-0.3c2.6-0.1,5.3-0.3,7.9-0.5
			c2.7-0.2,5.3-0.4,8-0.6c2.7-0.2,5.3-0.5,8-0.7c2.7-0.2,5.3-0.4,7.9-0.6c5.2-0.3,10.4-0.7,15.4-1c2.5-0.2,5-0.3,7.4-0.4
			c2.4-0.1,4.8-0.2,7-0.3c4.6-0.2,8.9-0.3,12.9-0.4c4-0.1,7.7-0.1,10.9-0.2c3.3,0,6.1-0.1,8.4,0c2.3,0,4.2,0,5.4,0.1
			c1.3,0,1.9,0,1.9,0l0,0.3c0,0-0.7,0.1-1.9,0.2c-1.2,0.1-3.1,0.3-5.4,0.6c-2.3,0.3-5.2,0.5-8.4,0.8c-3.2,0.3-6.9,0.6-10.9,0.9
			c-4,0.3-8.3,0.6-12.9,0.8c-2.3,0.1-4.6,0.3-7,0.4c-2.4,0.1-4.9,0.2-7.4,0.3c-5,0.2-10.2,0.3-15.4,0.5c-2.6,0.1-5.3,0.1-7.9,0.2
			c-2.7,0-5.3,0.1-8,0.1c-2.7,0-5.3,0.1-8,0.1c-2.7,0.1-5.3,0.2-7.9,0.3c-5.2,0.2-10.4,0.6-15.4,1c-2.5,0.2-5,0.3-7.4,0.4
			c-1.2,0.1-2.4,0.1-3.6,0.1c-1.2,0-2.4,0-3.5,0c-4.6,0-9-0.3-13-0.7c-4-0.4-7.7-1-10.9-1.6c-1.6-0.3-3.1-0.6-4.5-1
			c-1.4-0.3-2.6-0.6-3.8-1c-1.1-0.4-2.1-0.7-3-0.9c-0.9-0.3-1.6-0.6-2.2-0.8c-1.2-0.4-1.8-0.7-1.8-0.7L228.7,148.7z"/>
	</g>
	<g>
		<path class="st4" d="M311.2,58.4c22.6,16.2,20.5,17.4,43.3,33.5c22,15.5,44.1,30.9,68.5,41.8c24.1,10.7,50.4,17.1,71.4,33.1
			c4.6,3.6,9.2,7.7,14.7,9.2c1.4-36-4.6-70.9-17.5-100.7c-2.6-6.2-21.7-28.7-28.4-33.5c-15.6-11.1-30-16.9-49.3-19.3
			c-25.7-3.3-43.4-2.7-68.4,14.3C337,42.7,320.5,51.3,311.2,58.4z"/>
		<path class="st5" d="M319.1,65c1.8-1.8,3.4-3.1,5.3-4.7c3.8-3.6,8.2-5.9,12.6-8.2c23.5-12.4,45-20.5,68.9-18.8
			c14.4,1.6,27.8,7.2,40.9,12.6c7.2,3,14.5,6.1,20.4,11.4c8.7,7.8,13.8,19.9,18.1,32.1c7.4,20.8,13.6,43,10.6,67.8
			c-0.3,3-1.8,4.8-3.3,7.6"/>
		<path class="st5" d="M414.2,129.3c1.7-1.9,1.9-4.7,1.2-7.2c-0.7-2.5-2.2-4.4-4-6.3c-2.9-3-6.6-5.5-10.7-6.1
			c-4.1-0.6-8.8,1-10.8,4.6"/>
		<g>
			<g>
				<path d="M411.2,114.5c2.4-2.4,4.7-4.8,7.1-7.1l7.2-7l3.6-3.5c1.2-1.2,2.4-2.4,3.6-3.5l7.4-6.8c2.5-2.3,5-4.5,7.5-6.8
					c1.3-1.1,2.5-2.2,3.8-3.3c1.3-1.1,2.6-2.1,4-3.1c1.4-1,2.9-1.8,4.4-2.6c1.5-0.8,3.2-1.3,4.9-1.6c1.7-0.3,3.5-0.3,5.2,0
					c1.7,0.3,3.4,0.9,4.9,1.8l0,0c0.2,0.1,0.4,0.3,0.6,0.4c0.1,0.1,0.3,0.2,0.4,0.3c0.2,0.1,0.4,0.3,0.5,0.4
					c0.2,0.2,0.3,0.3,0.4,0.5l-0.1-0.1c1.7,1.6,2.8,3.6,3.7,5.6c0.9,2,1.5,4.1,2.2,6.2c1.3,4.1,2.5,8.4,2.7,12.8
					c0,1.1,0,2.2-0.1,3.3c-0.1,1.1-0.3,2.2-0.6,3.3c-0.6,2.1-1.6,4.2-2.9,6c-1.3,1.8-3.1,3.3-5.1,4.3c-2,1-4.1,1.6-6.3,2l-1.6,0.3
					l-0.4,0.1c-0.2,0-0.3,0-0.4,0.1l-0.8,0.1l-3.2,0.5l-6.4,1l-6.4,1l-3.2,0.5c-1.1,0.2-2.2,0.3-3.3,0.4c-1.1,0.1-2.2,0-3.3,0.1
					c-1.1,0-2.2,0.1-3.2,0.2c-2.2,0.1-4.3,0.3-6.5,0.5c-4.3,0.4-8.6,0.9-12.8,2.2c4.1-1.4,8.4-2,12.7-2.5c2.2-0.2,4.3-0.4,6.5-0.6
					c1.1-0.1,2.2-0.2,3.3-0.2c1.1,0,2.2,0,3.2-0.1c1.1-0.1,2.1-0.2,3.2-0.4l3.2-0.6l6.4-1.1l6.4-1.1l3.2-0.6l0.8-0.1
					c0.1,0,0.3,0,0.4-0.1l0.4-0.1l1.6-0.4c2.1-0.5,4.2-1,6.1-2c1.9-1,3.5-2.4,4.7-4.1c1.2-1.7,2.1-3.7,2.7-5.7
					c0.3-1,0.5-2.1,0.6-3.1c0.1-1.1,0.1-2.1,0.1-3.2c-0.1-4.3-1.3-8.4-2.7-12.5c-0.7-2.1-1.3-4.1-2.2-6.1c-0.8-1.9-1.9-3.9-3.4-5.2
					l0,0l0,0c-0.1-0.2-0.2-0.3-0.3-0.4c-0.1-0.1-0.2-0.2-0.4-0.3c-0.4-0.2-0.7-0.6-0.9-0.6l0,0l0,0c-1.4-0.8-2.9-1.4-4.5-1.7
					c-1.6-0.3-3.2-0.3-4.9,0c-0.8,0.1-1.6,0.3-2.4,0.6c-0.4,0.1-0.8,0.2-1.1,0.4c-0.4,0.2-0.8,0.3-1.1,0.5c-1.5,0.7-2.9,1.5-4.3,2.5
					c-1.4,0.9-2.7,2-4,3c-1.3,1.1-2.6,2.1-3.8,3.2c-2.5,2.2-5,4.4-7.5,6.7l-7.5,6.7c-1.3,1.1-2.4,2.3-3.7,3.4l-3.7,3.5l-7.3,6.9
					C416,109.8,413.6,112.1,411.2,114.5z"/>
			</g>
		</g>
		<g>
			<g>
				<path d="M422.6,129.2l-4.3-0.3l0-0.2c2.2,0.1,4.3,0.2,6.5,0.2l6.5,0.1c4.3,0.1,8.7,0.1,13-0.1c2.2-0.1,4.3-0.2,6.4-0.5l6.4-0.9
					l1.6-0.2l0.8-0.1l0.7-0.2l3.2-0.8l6.3-1.5c2.1-0.5,4.3-1,6.5-1c0.6,0,1.1,0,1.7,0.1l0.8,0.1c0.3,0,0.6,0.1,0.8,0.1
					c1.1,0.2,2.2,0.5,3.2,1c2,1,3.7,2.5,5.2,4.2c1.4,1.8,2.3,3.9,2.8,6c0.6,2.1,0.8,4.4,0.6,6.6c-0.2,2.2-0.7,4.3-1.4,6.4
					c-0.7,2.1-1.6,4.1-2.6,6c-1,1.9-2.2,3.7-3.3,5.6l1.5-2.9c0.5-1,1.1-1.9,1.5-2.9c0.9-2,1.8-4,2.4-6c0.6-2.1,1.1-4.2,1.2-6.3
					c0.2-2.1-0.1-4.3-0.7-6.3c-0.6-2-1.5-4-2.8-5.7c-1.3-1.6-3-3-4.9-3.9c-0.9-0.5-1.9-0.8-3-0.9c-0.3,0-0.5-0.1-0.8-0.1l-0.8-0.1
					c-0.5,0-1.1-0.1-1.6,0c-2.1,0-4.2,0.5-6.3,1c-2.1,0.6-4.2,1-6.3,1.5l-3.2,0.7c-0.3,0.1-0.5,0.1-0.8,0.2l-0.8,0.1l-1.6,0.2
					l-6.5,0.8c-2.2,0.2-4.4,0.4-6.5,0.4c-4.4,0.1-8.7,0.1-13-0.1l-6.5-0.3c-2.2-0.1-4.3-0.2-6.5-0.4l0-0.2L422.6,129.2z"/>
			</g>
		</g>
		<g>
			<g>
				<path d="M397,110.5l1.7-9l1.7-9l1.7-9c0.3-1.5,0.6-3,0.9-4.5l1-4.5l1-4.5c0.3-1.5,0.7-3,1.1-4.5c0.8-3,1.8-5.9,2.9-8.7
					c1.2-2.8,2.5-5.6,4.2-8.2c1.7-2.6,3.7-5,5.9-7.1l0,0l0,0c0.9-0.7,1.9-1.3,3.1-1.7c0.6-0.2,1.2-0.3,1.8-0.3
					c0.6,0,1.2,0.1,1.8,0.2c1.1,0.3,2.2,0.8,3.2,1.1L432,42c2.1,0.8,4.2,1.5,6.2,2.3c2.1,0.8,4.2,1.7,6.1,2.9
					c1.9,1.2,3.7,2.7,4.9,4.7c1.3,2,1.7,4.4,1.4,6.7c-0.1,1.1-0.4,2.3-0.8,3.4c-0.4,1.1-0.9,2.1-1.5,3.1c-1.1,2-2.6,3.7-4,5.4
					l-16.8,20.7c-2.8,3.4-5.7,6.9-8.6,10.2c-1.5,1.7-2.9,3.4-4.4,5c-0.8,0.8-1.6,1.6-2.3,2.4c-0.8,0.8-1.6,1.6-2.5,2.3l0,0l-1.5,0.9
					l1.5-1l0,0c0.9-0.7,1.6-1.5,2.4-2.3c0.8-0.8,1.6-1.6,2.3-2.4c1.5-1.7,2.9-3.4,4.3-5.1c2.8-3.4,5.6-6.9,8.4-10.4l16.6-20.9
					c1.4-1.7,2.8-3.4,3.9-5.3c0.5-0.9,1-1.9,1.4-2.9c0.4-1,0.6-2.1,0.7-3.1c0.2-2.1-0.2-4.3-1.3-6.1c-1.1-1.8-2.8-3.3-4.6-4.4
					c-1.9-1.1-3.9-2-6-2.8l-6.2-2.3l-3.1-1.2c-1-0.4-2.1-0.8-3.1-1.1c-0.5-0.1-1-0.2-1.5-0.2c-0.5,0-1,0.1-1.5,0.2
					c-1,0.3-1.9,0.9-2.8,1.5l0,0c-2.2,2-4.2,4.4-5.8,6.9c-1.7,2.5-3,5.3-4.2,8.1c-1.2,2.8-2.1,5.7-3,8.6c-0.4,1.5-0.8,2.9-1.2,4.4
					l-1,4.5l-1,4.5c-0.3,1.5-0.7,3-1,4.5l-1.8,9l-1.8,9L397,110.5z"/>
			</g>
		</g>
		<g>
			<g>
				<path d="M385.5,112c0,0-1.2-2.2-3.3-6.2c-1-2-2.2-4.4-3.6-7.2c-1.4-2.8-2.9-5.9-4.6-9.3c-1.5-3.5-3.2-7.3-4.9-11.3
					c-1.7-4-3.4-8.3-5-12.8c-1.5-4.5-3.2-9.1-4.7-13.9c-0.2-0.6-0.4-1.2-0.5-1.8c-0.2-0.6-0.3-1.3-0.3-2c0-0.7,0.3-1.5,0.8-2
					c0.5-0.6,0.9-1,1.5-1.4c2.2-1.5,4.8-2.3,7.3-2.5c5.3-0.3,10.4,1.5,14.6,4.2c2.1,1.4,4,3.2,5.3,5.4c1.3,2.2,1.8,4.7,2,7.1
					c0.4,4.8,0.7,9.3,1.1,13.7c0.3,4.4,0.6,8.5,0.9,12.3c0.9,15.2,1.4,25.3,1.4,25.3s-0.2-2.5-0.6-7c-0.3-4.4-0.8-10.8-1.4-18.3
					c-0.7-7.6-1.4-16.4-2.3-25.9c-0.3-2.3-0.7-4.7-1.9-6.7c-1.2-2-3-3.8-5-5.1c-4.1-2.7-9.1-4.3-14-4c-2.5,0.2-4.9,1-6.9,2.3
					c-1,0.7-1.9,1.5-1.9,2.6c0,0.5,0.1,1.1,0.3,1.7c0.2,0.6,0.3,1.2,0.5,1.8c1.5,4.7,3.1,9.4,4.6,13.9c3.2,8.9,6.6,17.1,9.6,24.2
					c3.2,6.9,5.9,12.6,7.8,16.7C384.4,109.7,385.5,112,385.5,112z"/>
			</g>
		</g>
		<g>
			<g>
				<path d="M377.7,107.1c0,0-0.2-0.1-0.3-0.3c-0.2-0.2-0.4-0.4-0.5-0.7c-0.1-0.3-0.2-0.6-0.1-0.9c0-0.3,0.1-0.5,0.1-0.5
					s0.2,0.1,0.4,0.3c0.2,0.2,0.4,0.4,0.5,0.7c0.1,0.3,0.2,0.6,0.1,0.9C377.9,106.9,377.7,107.1,377.7,107.1z"/>
			</g>
			<g>
				<path d="M327.2,66.9l2.7-2.6l0,0c1.1-0.9,2.2-1.8,3.6-2.4c1.3-0.6,2.8-0.9,4.2-0.9c0.7,0,1.5,0.1,2.2,0.3c0.4,0.1,0.7,0.2,1,0.3
					c0.3,0.1,0.7,0.3,1,0.4c1.3,0.6,2.5,1.5,3.6,2.5c0.5,0.5,1,1.1,1.5,1.6l1.3,1.6l2.7,3.3c1.8,2.2,3.6,4.4,5.4,6.6l5.2,6.7
					l2.6,3.3c0.9,1.1,1.8,2.2,2.6,3.3l2.6,3.4c0.9,1.1,1.7,2.2,2.6,3.3l2.6,3.3c0.9,1.1,1.6,2.3,2.3,3.6l0,0l0,0
					c0.3,0.8,0.5,1.6,0.6,2.5c-0.2-0.8-0.4-1.6-0.8-2.4l0,0c-0.7-1.2-1.5-2.4-2.4-3.5l-2.8-3.2c-0.9-1.1-1.8-2.2-2.7-3.3l-2.7-3.3
					l-2.7-3.3l-2.7-3.3l-5.3-6.6l-5.3-6.6l-2.6-3.3l-1.3-1.7c-0.4-0.6-0.9-1.1-1.4-1.6c-1-1-2.1-1.8-3.3-2.4
					c-0.3-0.2-0.6-0.3-0.9-0.4c-0.3-0.1-0.7-0.3-1-0.4c-0.6-0.2-1.3-0.3-2-0.4c-1.4-0.1-2.8,0.2-4,0.7c-1.3,0.5-2.5,1.3-3.6,2.2l0,0
					L327.2,66.9z"/>
			</g>
		</g>
	</g>
	<path class="st5" d="M367.2,355.4c5.1-4.1,8.3-17.3,8.7-23.6c0.6-10.8,1.1-21.6,1.7-32.3c0.1-2.3,0.2-4.8-0.8-6.8
		c-1.8-3.7-6.4-4.9-10.4-5.7c-9-1.7-18.1-3-27.3-4c-8.1-0.8-15.3,1.9-23.1,4.5c-2.4,0.8-5,1.9-6.4,4c-1,1.5-1.3,3.5-1.5,5.3
		c-1.3,10-2.7,20.1-2.6,30.2c0,5.9,0.6,12.1,4.1,16.7c4.5,6,12.5,7.9,19.9,9.4c9.7,2,19.3,3.9,29,5.9c1.9,0.4,4,0.8,5.7-0.1
		C365.5,358.2,366.4,356.8,367.2,355.4z"/>
	<g>
		<path d="M334.6,285.1c0,0,0.1,0.3,0.2,0.8c0.1,0.5,0.4,1.2,0.6,2.2c0.2,0.9,0.5,2.1,0.7,3.4c0.2,1.3,0.4,2.9,0.6,4.5
			c0.3,3.3,0.5,7.2,0.6,11.4c0.1,2.1,0.1,4.2,0.3,6.4c0.1,2.2,0.3,4.4,1,6.4c0.3,1,0.8,1.9,1.5,2.7c0.7,0.7,1.6,1.2,2.6,1.6
			c2,0.7,4.1,1.2,6.1,1.8c4,1,7.8,2,11,2.6c3.3,0.7,6,1.2,7.9,1.5c1.9,0.3,3,0.5,3,0.5s-1.1-0.1-3-0.3c-1.9-0.2-4.7-0.6-8-1.2
			c-3.3-0.6-7.1-1.3-11.1-2.3c-2-0.5-4.1-1-6.2-1.7c-1.1-0.4-2.1-0.9-3-1.8c-0.8-0.8-1.4-1.9-1.8-3c-0.7-2.2-0.8-4.5-0.9-6.7
			c-0.1-2.2-0.2-4.3-0.2-6.4c-0.1-4.2-0.1-8-0.3-11.3c-0.1-1.7-0.2-3.2-0.4-4.5c-0.2-1.3-0.3-2.5-0.5-3.5c-0.2-1-0.3-1.7-0.4-2.2
			C334.6,285.4,334.6,285.1,334.6,285.1z"/>
	</g>
	<g>
		<path d="M338.6,323.4c0,0,0.1,0,0.3,0.2c0.1,0.2,0.1,0.6-0.2,1c-0.2,0.4-0.7,0.8-1.1,1.2c-0.5,0.4-1,0.9-1.6,1.4
			c-1.2,1-2.5,2.1-4,3.3c-1.5,1.2-3.1,2.5-4.7,3.7c-1.6,1.2-3.2,2.5-4.7,3.6c-1.5,1.2-3,2.2-4.2,3.1c-1.2,0.9-2.3,1.6-3,2.1
			c-0.7,0.5-1.2,0.8-1.2,0.8s0.4-0.3,1-0.9c0.7-0.6,1.6-1.4,2.8-2.4c1.2-1,2.5-2.1,4-3.3c1.5-1.2,3.1-2.5,4.7-3.7
			c1.6-1.2,3.2-2.5,4.7-3.6c1.5-1.2,3-2.2,4.2-3.1c0.6-0.5,1.2-0.9,1.7-1.2c0.5-0.4,1-0.6,1.2-1c0.3-0.3,0.4-0.7,0.3-0.9
			C338.8,323.4,338.6,323.4,338.6,323.4z"/>
	</g>
	<g>
		<path class="st5" d="M264.7,412.6c-1.9,2.9-2.6,7.1-3.3,10.1c-1.7,7.5-3.7,14.9-5.9,22.2c-0.9,2.9-1.9,5.8-2,8.8
			c-0.2,2.9,0.4,5.5,1.1,8.1c2.3,8.8,6.3,17.4,13.4,19.7c2.4,0.8,5,0.8,7.5,0.9c11.7,0.8,22.6,5.6,34.3,6.4c2.7,0.2,5.5,0.1,8.2-1.5
			c4.8-2.9,7.4-9.8,9.1-16.1c2.5-9.5,4-19.2,7.5-28.4c1.2-3,2.6-6.4,1.9-9.3c-0.7-3.1-13.5-11.1-17.4-14c-3.3-2.4-8.2-3.1-12-4
			c-6.3-1.4-12.6-2.4-19-3.3c-5.6-0.8-11.8-2.5-17.4-2.7C267.9,409.3,266,410.6,264.7,412.6z"/>
		<g>
			<path d="M264,413.2c0,0,0.8,1,2.2,2.7c1.4,1.7,3.4,4.2,5.8,7.1c2.4,2.9,5.1,6.5,8.6,9.6c1.8,1.5,3.8,2.9,6,3.8
				c2.3,0.9,4.7,1.3,7.2,1.5c2.5,0.2,5,0.1,7.5,0.1c2.5,0,4.9-0.1,7.3-0.1c4.7-0.1,9.2,0,12.9-0.4c3.8-0.3,6.9-0.8,9-1.4
				c2.1-0.5,3.4-0.9,3.4-0.9s-0.3,0.1-0.9,0.3c-0.6,0.2-1.4,0.5-2.4,0.8c-2.1,0.6-5.2,1.4-9,1.7c-3.8,0.4-8.2,0.5-13,0.7
				c-2.4,0.1-4.8,0.1-7.3,0.2c-2.5,0.1-5,0.1-7.6,0c-2.6-0.2-5.1-0.6-7.5-1.6c-2.4-0.9-4.5-2.4-6.3-4c-1.8-1.6-3.3-3.3-4.7-5
				c-1.4-1.7-2.6-3.3-3.8-4.8c-2.3-3-4.2-5.6-5.5-7.3C264.7,414.2,264,413.2,264,413.2z"/>
		</g>
		<g>
			<path d="M284.4,436.9c0,0-1,2.4-2.5,6.1c-0.8,1.8-1.6,4-2.5,6.2c-0.9,2.3-1.8,4.7-2.7,7.2c-0.9,2.5-1.8,4.9-2.6,7.2
				c-0.8,2.3-1.6,4.5-2.2,6.3c-1.3,3.7-2.1,6.2-2.1,6.2s0.1-0.6,0.4-1.8c0.3-1.1,0.6-2.7,1.2-4.6c0.5-1.9,1.1-4.1,1.9-6.5
				c0.4-1.2,0.8-2.4,1.2-3.6c0.4-1.2,0.9-2.5,1.3-3.7c0.9-2.5,1.9-4.9,2.9-7.2c1-2.3,1.9-4.4,2.8-6.1c0.8-1.8,1.6-3.2,2.1-4.3
				C284.1,437.5,284.4,436.9,284.4,436.9z"/>
		</g>
	</g>
	<path class="st6" d="M407.2,113.5c-0.6,7-2.7,14.1-3.9,21.1c-0.4,2.4-1.7,6.2,0.8,6.9c1.6,0.4,6.4-2.2,8.1-2.8
		c5.7-1.8,11.5-3.4,17.4-4.7c11.2-2.5,22.6-4.1,34-4.8c2.9-0.2,7.2,0,8.2-2.7c2-5.3,0.6-11.2-1.4-16.5c-2-5.3-4.6-10.4-5.2-16
		c-0.2-2.2-0.1-4.6-1.4-6.5c-0.7-1.1-1.8-2-2.7-3c-3-3.9-1.5-9.9-4-14.2c-1.8-3.1-5.4-4.8-7.2-7.8c-0.9-1.5-1.3-3.3-2.2-4.8
		c-2.1-3.4-5.7-5.3-9.6-6c-3.2-0.5-6.2-2.3-8.1-4.8c-1.1-1.4-1.9-3.1-3.4-4.2c-2.2-1.6-5.2-1.3-7.8-1.8c-2.2-0.4-4.2-1.3-6.1-2.4
		c-1-0.6-2.1-1.3-3.3-1.3c-3.5,0.1-9.2,15-10.7,18.1c-3.3,6.5-6.4,13.2-9.3,19.9c-6.1,13.9-11.6,28-17.2,42
		c-5,12.5-8.1,24.5-12.4,37.2c8.3-2.3,16.7-4.6,25-7c1.5-0.4,3.1-0.9,4.6-1.3c0.7-0.2,1.2-11.2,1.5-12.6c1.5-6.7,3.1-13.3,4.6-20
		c1.9-8.3,3.7-16.6,5.5-24.9c0.7-3.3,0.8-9.5,2.7-12.2c1.6-2.3,4.7-2.1,7.3-2C411.3,87.2,408.4,100.7,407.2,113.5z"/>
	<g>
		<path class="st5" d="M388,352.3c0.4,0.4,0.8,0.7,1.2,1.2c0.9,1.2,1.5,2.6,2.1,4c4.4,11.2,4.7,19.8,6.2,31.5c0.3,2.7,0.6,5.5-0.3,8
			c-1.4,4-5.4,6.4-8.4,9.4c-4.2,4.1-6.6,9.6-9.8,14.5s-7.7,9.6-13.5,10.3c-2.3,0.3-4.7-0.1-7-0.4c-5.1-0.8-10.3-1.6-15.4-2.4
			c-5.9-0.9-12.1-2-16.9-5.5c-7.1-5.3-9.5-14.7-11.3-23.3c-1.5-6.9-3-14.4-0.1-20.8c1.3-2.9,3.4-5.4,5.4-7.9
			c3.8-4.5,7.6-8.9,11.3-13.4c12-14.2,35.4-13.4,51.3-7.7C384.7,350.3,386.5,351.1,388,352.3z"/>
		<g>
			<path d="M346.8,352.8c0,0,0.4,0.9,1.1,2.4c0.7,1.5,1.8,3.7,3,6.4c1.2,2.7,2.6,5.7,4.1,9.1c0.7,1.7,1.5,3.4,2.3,5.1
				c0.8,1.7,1.5,3.5,2.3,5.3c0.8,1.7,1.7,3.4,3,4.6c1.3,1.2,3,2,4.7,2.4c1.7,0.5,3.4,0.8,5.1,1.2c1.6,0.3,3.2,0.7,4.6,1
				c2.8,0.6,5.2,1.2,6.9,1.5c1.7,0.4,2.6,0.6,2.6,0.6s-1-0.2-2.6-0.4c-1.7-0.3-4.1-0.7-6.9-1.2c-1.4-0.3-3-0.5-4.6-0.8
				c-1.6-0.3-3.4-0.5-5.2-1c-1.8-0.5-3.6-1.2-5.1-2.6c-1.5-1.4-2.5-3.1-3.3-4.9c-0.8-1.8-1.5-3.6-2.3-5.3c-0.7-1.8-1.5-3.5-2.2-5.2
				c-1.4-3.3-2.7-6.5-3.8-9.2c-1.1-2.7-2-4.9-2.6-6.5C347.2,353.7,346.8,352.8,346.8,352.8z"/>
		</g>
		<g>
			<path d="M362.3,386.8c0,0-0.4,0.5-1,1.4c-0.6,0.9-1.5,2.1-2.7,3.5c-1.1,1.4-2.5,3.1-3.9,4.9c-1.5,1.8-3.1,3.6-4.7,5.5
				c-1.6,1.8-3.3,3.7-4.9,5.3c-1.6,1.7-3.1,3.2-4.4,4.5c-1.3,1.3-2.4,2.4-3.2,3.1c-0.8,0.7-1.2,1.2-1.2,1.2s0.4-0.5,1.1-1.3
				c0.7-0.8,1.7-2,2.9-3.4c2.4-2.8,5.7-6.4,8.9-10.1c3.3-3.7,6.5-7.3,8.9-10.1c1.2-1.4,2.3-2.5,3-3.3
				C361.8,387.3,362.3,386.8,362.3,386.8z"/>
		</g>
	</g>
	<path class="st5" d="M239.6,355.1c-1.5,4.6-0.1,9.7,1.3,14.3c3.6,11.8,7.7,24.5,17.6,31.9c7.1,5.3,16.1,7.1,24.8,8.7
		c2.6,0.5,5.4,1,7.8-0.1c2.3-1,3.8-3.2,5.2-5.3c4.2-6.4,8.4-12.7,12.5-19.1c3.3-5,6.7-10.4,6.4-16.4c-0.2-4.3-2.3-8.4-4.3-12.2
		c-3.1-5.9-6.3-11.7-9.4-17.6c-0.9-1.7-1.8-3.4-3.3-4.7c-1.7-1.5-4-2.3-6.3-2.9c-9.4-2.6-22.5-6.9-31.1-0.6
		C254.1,336.1,242.2,347.1,239.6,355.1z"/>
	<g>
		<path d="M247.4,358.5c0,0,0.1,0.2,0.4,0.6c0.3,0.4,0.7,0.9,1.4,1.5c0.7,0.6,1.5,1.2,2.6,1.8c1.1,0.6,2.4,1.1,3.8,1.8
			c1.4,0.6,2.9,1.4,4.4,2.5c1.5,1.1,2.8,2.3,4.3,3.5c1.5,1.1,3.2,2.1,5.1,2.2c1.9,0.1,3.8-0.7,5.3-2c1.6-1.2,2.9-2.8,4-4.4
			c1.2-1.6,2.3-3.3,3.3-4.9c2.2-3.2,4.2-6.1,6-8.6c1.8-2.5,3.3-4.6,4.3-6c1.1-1.5,1.7-2.3,1.7-2.3s-0.5,0.9-1.5,2.4
			c-1,1.5-2.3,3.7-4,6.3c-1.7,2.6-3.6,5.6-5.7,8.8c-1.1,1.6-2.1,3.3-3.3,4.9c-1.2,1.6-2.5,3.3-4.2,4.6c-0.8,0.6-1.8,1.2-2.8,1.6
			l-0.8,0.3l-0.8,0.2c-0.5,0.1-1.1,0.1-1.6,0.1c-2.2-0.1-4.1-1.2-5.6-2.4c-1.5-1.2-2.8-2.5-4.2-3.6c-1.4-1.1-2.8-1.8-4.2-2.5
			c-1.4-0.7-2.6-1.3-3.7-2c-1.1-0.7-2-1.3-2.6-2c-0.6-0.6-1-1.2-1.3-1.6C247.5,358.7,247.4,358.5,247.4,358.5z"/>
	</g>
	<g>
		<path d="M270.7,375.1c0,0,0.4,0.3,1.1,0.8c0.4,0.2,0.7,0.6,1.2,1c0.2,0.2,0.5,0.4,0.7,0.7c0.2,0.2,0.5,0.5,0.7,0.8
			c0.5,0.6,1,1.2,1.5,1.9c0.5,0.7,1,1.5,1.5,2.2c0.5,0.8,1,1.6,1.4,2.5c0.5,0.9,0.9,1.7,1.4,2.6c0.9,1.8,1.8,3.5,2.7,5.1
			c0.5,0.8,0.9,1.6,1.3,2.3c0.5,0.7,0.9,1.4,1.3,2c0.2,0.3,0.4,0.6,0.6,0.8c0.2,0.3,0.4,0.5,0.6,0.7c0.4,0.5,0.7,0.9,1.1,1.1
			c0.6,0.6,1,1,1,1s-0.4-0.3-1.1-0.8c-0.4-0.3-0.8-0.6-1.2-1c-0.2-0.2-0.5-0.4-0.7-0.7c-0.2-0.2-0.5-0.5-0.7-0.8
			c-0.5-0.6-1-1.2-1.5-1.9c-0.5-0.7-1-1.5-1.5-2.2c-0.5-0.8-1-1.6-1.4-2.5c-0.5-0.9-0.9-1.7-1.4-2.6c-0.9-1.8-1.8-3.5-2.7-5.1
			c-0.5-0.8-0.9-1.6-1.3-2.3c-0.5-0.7-0.9-1.4-1.3-2c-0.2-0.3-0.4-0.6-0.6-0.8c-0.2-0.3-0.4-0.5-0.6-0.7c-0.4-0.5-0.7-0.9-1.1-1.1
			C271.1,375.4,270.7,375.1,270.7,375.1z"/>
	</g>
	<path class="st4" d="M404.1,141.9c9.5-2.7,19-5.5,28.4-8.5c11.2-3.6,23.3-6.3,35-4.7c-4.1-22.4-8.7-45.7-22.7-63.7
		c-9.4-12-23.2-20.1-36.9-26.8C393,63.9,384.3,87,372.2,117.1c-5,12.5-8.1,24.5-12.4,37.2c8.3-2.3,16.7-4.6,25-7
		c1.5-0.4,3.1-0.9,4.6-1.3"/>
	<path class="st4" d="M408.3,38.3c-0.5-1.1,0.9-2.3,2.1-2.1c1.2,0.1,2.2,1,3.1,1.8c1.7,1.3,3.7,2.5,5.8,3.1c2,0.5,4.1-0.1,6.1,0.7
		c3.4,1.3,4.9,5.9,7.9,8c3.8,2.7,9.4,2.6,12.3,6.6c2,2.7,3.8,5.6,6,8.1c1.9,2.2,5.7,3.8,6.7,6.5c1.1,2.7,0.8,6,1.8,8.9
		c1.2,3.1,2.8,6,4.8,8.6c0.7,0.8,1.4,1.7,1.7,2.7c0.3,1,0.2,2,0.2,3c-0.1,4.6,1,9.1,3.2,13.1c0.7,1.3,1.6,2.6,2,4
		c0.4,1.5,0.4,3.1,0.3,4.7c-0.2,3.6-0.3,7.2-0.5,10.8c0,0.3,0,0.6-0.2,0.9c-0.3,0.4-0.8,0.6-1.3,0.6c-1.2,0.2-2.4,0.3-3.7,0.3"/>
	<g>
		<path d="M412.8,41.6c-1,3-2,5.9-3.1,8.9c-1.1,2.9-2.2,5.8-3.5,8.7c-2.4,5.8-5.1,11.4-8,17l-1.2-0.7l4.5-8c1.5-2.7,3-5.3,4.5-8
			l4.6-8c1.5-2.7,3.1-5.4,5.2-7.8l1.6-1.8l0.1,2.4l0.1,1.4l0,1.4l-0.1,1.3l-0.2,1.3c-0.2,0.9-0.4,1.8-0.6,2.6
			c-0.2,0.9-0.5,1.7-0.8,2.5c-1.2,3.3-2.9,6.4-4.5,9.4l-1.6-1l5.6-8.3l2.8-4.2l1.4-2.1c0.2-0.3,0.5-0.8,0.9-1.1
			c0.4-0.4,1-0.8,1.7-0.8l0.6,0l0.2,0.5c0.5,1.3,0.5,2.8,0.2,4.1c-0.3,1.3-0.8,2.4-1.4,3.5c-0.6,1.1-1.2,2.1-1.8,3.1
			c-0.6,1-1.1,2.1-1.6,3.2c-2.1,4.2-4,8.6-5.9,13l-1-0.6c1.4-1.8,2.8-3.7,4.1-5.7l4-5.8c1.4-1.9,2.8-3.8,4.3-5.6
			c1.5-1.8,3.1-3.6,4.9-5.1c-1.7,1.6-3.2,3.4-4.6,5.3c-1.4,1.9-2.8,3.8-4,5.8l-3.8,6c-1.3,2-2.6,4-4,5.9l-2.7,3.6l1.7-4.2
			c1.8-4.4,3.6-8.9,5.6-13.2c0.5-1.1,1-2.2,1.6-3.2c0.5-1.1,1.1-2.1,1.7-3.2c0.5-1,1-2.1,1.2-3.1c0.2-1,0.2-2.1-0.2-3l0.8,0.5
			c-0.1,0-0.3,0.1-0.5,0.3c-0.2,0.2-0.4,0.5-0.6,0.9l-1.4,2.1l-2.8,4.2l-5.5,8.3l-1.6-1c0.8-1.5,1.6-3,2.4-4.6
			c0.7-1.5,1.4-3.1,2-4.6c0.3-0.8,0.6-1.6,0.8-2.4c0.2-0.8,0.4-1.6,0.6-2.4l0.2-1.2l0.1-1.2l0-1.2l0-1.2l1.7,0.5
			c-1.9,2.2-3.5,4.8-5.1,7.5l-4.6,7.9c-1.6,2.6-3.1,5.3-4.6,7.9l-4.7,7.9l-1.2-0.7c1.5-2.7,2.9-5.5,4.3-8.3c1.4-2.8,2.7-5.6,4.1-8.4
			c1.3-2.8,2.6-5.7,3.8-8.6l1.8-4.3L412.8,41.6z"/>
	</g>
	<g>
		<path d="M445.5,66.3c-0.9,1.4-1.7,2.8-2.6,4.3c-0.9,1.4-1.8,2.8-2.8,4.2c-1.9,2.7-3.9,5.4-5.9,8.1c-4,5.3-8.3,10.4-12.6,15.6
			l-1-0.9c4.2-4.4,8.4-8.9,12.7-13.2l6.4-6.6l3.2-3.3c0.5-0.5,1.1-1.1,1.8-1.7c0.7-0.5,1.6-1,2.7-1l1,0l-0.1,1
			c-0.1,1.2-0.7,2.2-1.3,3c-0.6,0.8-1.2,1.5-1.8,2.2l-3.5,4.3c-2.4,2.8-4.7,5.7-7.1,8.5l-1.4-1.4c2.6-2.2,5.2-4.3,7.8-6.3
			c1.3-1,2.7-2,4-3l1-0.7l0.5-0.4l0.3-0.2c0.2-0.1,0.2-0.1,0.4-0.2c0.5-0.3,1-0.4,1.6-0.4c0.3,0,0.7,0,1.1,0.3
			c0.2,0.1,0.4,0.4,0.5,0.6c0.1,0.3,0.1,0.5,0.1,0.7l0,0.3l-0.3,0.2c-4,3.7-8.1,7.4-12.3,10.9c-4.2,3.5-8.5,6.9-12.8,10.2l-0.8-1
			c4.8-3.4,9.6-6.9,14.4-10.2l7.2-5.1c1.2-0.8,2.4-1.7,3.7-2.4c1.3-0.7,2.7-1.3,4.2-1.4c-1.5,0.2-2.8,0.8-4.1,1.6
			c-1.2,0.8-2.4,1.7-3.6,2.6l-7,5.3c-4.7,3.6-9.4,7.1-14.1,10.6l-0.8-1c4.3-3.4,8.5-6.9,12.5-10.5c2-1.8,4.1-3.6,6.1-5.4
			c2-1.8,4-3.7,6-5.6l-0.3,0.6c0,0,0.1,0.2,0.2,0.3c0.1,0,0,0-0.1,0c-0.2,0-0.6,0.1-0.8,0.2c0,0-0.2,0.1-0.2,0.1l-0.3,0.2l-0.5,0.4
			l-1,0.7c-1.3,1-2.7,2-4,3c-2.6,2-5.2,4.2-7.7,6.3l-1.4-1.4c2.4-2.8,4.7-5.7,7.1-8.5l3.6-4.2c1.2-1.4,2.5-2.8,2.6-4.1l0.9,1
			c-0.5,0-1,0.2-1.5,0.6c-0.5,0.4-1,0.9-1.6,1.5l-3.2,3.3l-6.4,6.5c-4.3,4.4-8.6,8.7-13,13l-1-0.9l6.5-7.6l3.2-3.8l3.2-3.8
			c2.1-2.6,4.2-5.2,6.2-7.8c1-1.3,2-2.7,3-4C443.6,69.1,444.6,67.7,445.5,66.3z"/>
	</g>
	<g>
		<path d="M406.8,122.8c3.7-3,7.4-6.1,11-9.2c1.8-1.6,3.6-3.1,5.4-4.7c1.8-1.6,3.5-3.2,5.3-4.8l5.2-4.9l-4,5.9l-4.6,6.8l-4.7,6.8
			l-0.6-1.5c0.3,0.1,0.6,0,1-0.2c0.4-0.2,0.8-0.5,1.1-0.9l2.4-2.5c1.6-1.7,3.3-3.3,5.1-4.9c3.4-3.2,7-6.2,10.7-9l5.5-4.2l-4.2,5.4
			c-3.9,5-7.9,9.9-12,14.7c-2.1,2.4-4.2,4.8-6.3,7.1c-2.1,2.3-4.3,4.6-6.6,6.9l6-7.3l5.9-7.4c1.9-2.5,3.9-5,5.8-7.5
			c1.9-2.5,3.8-5,5.7-7.6l1.3,1.3c-3.6,2.9-7.1,5.9-10.5,9.1c-1.7,1.6-3.4,3.2-5,4.8l-2.5,2.5c-0.5,0.4-0.9,0.9-1.6,1.2
			c-0.6,0.4-1.5,0.6-2.4,0.4l-1.4-0.3l0.8-1.1l4.8-6.8l4.8-6.7l1.2,1c-3.6,3.2-7.3,6.2-11.1,9.2c-1.9,1.5-3.8,2.9-5.7,4.3
			C410.8,120.1,408.8,121.5,406.8,122.8z"/>
	</g>
</g>
</svg>
