<svg id="Layer_1" xmlns="http://www.w3.org/2000/svg" viewBox="0 0 705 705"><style>.st0,.st1{fill:none}.st1{stroke:#000;stroke-width:5;stroke-miterlimit:10}.st2{opacity:.9;fill:url(#SVGID_1_);enable-background:new}.st3{fill:#fcedc5}.st4{fill:url(#SVGID_2_)}.st5{fill:none;stroke:#000;stroke-width:3;stroke-miterlimit:10}</style><path class="st0" d="M122.5 0h460v705h-460V0z"/><path class="st1" d="M6711.1-565.6c.3 38.5.2 82.4-5.7 120.5-2.3 14.7-3.7 31.7-10.6 44.9-9.4 17.9-18.6 35.9-34 49.5-5.5 4.9-11.5 9.2-17.9 12.8-4.2 2.3-15.3 5.1-15.9 10.8-.4 3.6 3.8 5.7 6.9 7.6 6.9 4.3 10.9 12.3 11.6 20.4 1.5 15.4-5.6 30.7-18.9 38.8-.8.5-1.6 1-1.9 1.8-.7 2.1 2.1 3.4 4.2 3.8 12.1 2.1 24 5 35.7 8.7 7.7 2.4 24.3 10.6 12 18.5-7.7 4.9-17 6.2-26 7.3-24.7 3.1-49.7 6.2-74.5 3.9-5.6-.5-11.2-1.4-16.8-2.2l-22.5-3.3c-5.3-.8-11.8-2.7-12.7-7.9-1.7-10.2 16.6-15.1 23.6-17.2 4.9-1.5 36.5-4.6 35.6-9.3-.5-2.4-2.8-3.9-4.8-5.4-8.9-6.4-15-16.4-16.6-27.2-1.6-10.8 1.3-22.2 7.9-30.9 2.2-2.9 4.9-6 4.4-9.6-.2-1.5-1-2.9-2-4.1-5.1-6.7-15.9-9.5-22.8-14.7-7.9-6-15.2-12.8-21.6-20.4-12.5-14.5-22.1-31.5-27.6-49.9-5.2-17.2-6.9-35.3-8.2-53.2-2.3-31-3.6-62-3.8-93.1 20.2-2.4 42-1.8 62.4-1.4 52.8 1.1 160.5-1.6 160.5.5z"/><path d="M6584.5-250.7v1.9c0 .6.1 1.3.6 1.9.4.6 1.2.8 2.2.8 2.1-.1 4.5-.2 7.1-.2 1.3 0 2.7-.1 4-.1 1.4-.1 2.8-.1 4.1-.2 1.4-.1 2.8-.1 4.1-.2 1.4-.1 2.7-.1 4-.2 2.6-.1 5-.2 7.1-.3 2-.1 3.7-.6 4.6-1.3.4-.4.7-.8.8-1.1.1-.3.2-.5.2-.5v.5c-.1.3-.2.8-.6 1.3s-1.1 1-1.9 1.4-1.8.7-2.8.8c-2.1.4-4.5.7-7.1.9-1.3.1-2.7.3-4 .4-1.4.1-2.8.2-4.2.2-1.4 0-2.8.1-4.2.1h-4.1c-2.6-.1-5.1-.2-7.2-.4-.5-.1-1.1-.1-1.6-.4-.5-.3-.9-.7-1.1-1.1-.4-.9-.4-1.7-.3-2.3s.2-1.1.3-1.4c-.1-.3 0-.5 0-.5zm-.4-84.6s.6.2 1.6.5c.5.2 1.2.3 1.9.5s1.6.4 2.4.5c.9.2 1.9.3 2.9.5 1 .1 2.1.2 3.3.3 1.1.1 2.3.1 3.5.2h3.6c1.2 0 2.5 0 3.7-.1 1.2 0 2.4-.1 3.6-.1 2.3-.1 4.5-.1 6.3-.3 1.8-.2 3.2-.6 4.1-1.2.4-.3.8-.6 1-.8l.3-.3s-.1.1-.2.4c-.2.3-.4.6-.8 1-.8.8-2.3 1.6-4.2 2-.9.2-2 .4-3 .5-1.1.1-2.2.3-3.3.4l-3.6.3c-1.2.1-2.5.1-3.7.2-1.3 0-2.5 0-3.7-.1-.6 0-1.2-.1-1.8-.1-.6-.1-1.2-.1-1.8-.2-1.2-.1-2.3-.4-3.4-.6-.5-.1-1-.3-1.5-.4-.5-.2-1-.3-1.4-.4-1.8-.6-3.2-1.3-4.2-1.8-1-.6-1.6-.9-1.6-.9zM6534-233.2l.3.3c.2.2.5.4 1 .6.9.5 2.3 1 4.2 1.4 1.9.4 4.2.7 6.8 1.1 2.6.4 5.6.7 8.9 1.1 3.3.3 6.8.7 10.6 1 3.7.3 7.7.5 11.8.7 8.2.3 17 .5 25.7.6 4.4.1 8.8.1 13.1.2 4.3 0 8.5.1 12.6 0s8-.4 11.7-.8c3.7-.5 7.2-1.1 10.4-1.7 6.4-1.4 11.6-3 15.2-4.3 1.8-.7 3.2-1.2 4.2-1.6l1.5-.6s-.5.2-1.4.7c-.9.4-2.3 1.1-4.1 1.8-3.5 1.5-8.7 3.5-15.1 5.1s-14.1 2.9-22.3 3.2c-4.1.2-8.4.2-12.7.2-4.3 0-8.7-.1-13.1-.1-4.4-.1-8.8-.2-13.1-.3-4.3-.1-8.6-.4-12.7-.6-4.1-.3-8.1-.6-11.8-1-3.8-.4-7.3-.8-10.6-1.3-1.6-.3-3.2-.5-4.7-.7-1.5-.3-2.9-.5-4.2-.8-2.6-.5-4.9-1-6.8-1.5s-3.3-1.1-4.1-1.7c-.4-.3-.7-.5-.9-.7-.3-.2-.4-.3-.4-.3z"/><linearGradient id="SVGID_1_" gradientUnits="userSpaceOnUse" x1="6501.3" y1="1150.789" x2="6707.2" y2="1150.789" gradientTransform="matrix(1 0 0 -1 0 707)"><stop offset=".018" stop-color="#801fe3"/><stop offset="1" stop-color="#b7a7ff"/></linearGradient><path class="st2" d="M6501.3-537.4c1.4 24.4 2.7 48.8 4.1 73.2.4 7.9.9 15.9 2.2 23.7 1.8 11.1 5.4 21.8 8.9 32.5 3 9.1 6 18.2 11.1 26.3 17.8 28.1 51.5 32.7 81.9 31.3 10.6-.5 21.3-1.5 31.5-4.7 66.9-21.3 65.2-117 66.1-172.7 0-2.6.1-5.1.1-7.7-68.7 2.2-137.5 4-205.9-1.9z"/><path d="M6496.2-557.1s.6 8.1 1.5 22.2c.5 7.1 1 15.6 1.7 25.5.6 9.8 1.4 20.9 2.1 33.1.4 6.1.7 12.4 1.3 18.9.5 6.5 1.4 13.2 3 19.9 1.6 6.7 3.7 13.5 6 20.4 2.4 6.9 4.5 14 7.5 20.9.8 1.7 1.5 3.4 2.4 5.1.9 1.6 1.8 3.3 2.8 4.8 1.1 1.6 2.2 3.1 3.4 4.7 1.2 1.4 2.5 2.8 3.7 4.3 5.3 5.5 11.7 10 18.8 13.2 7.1 3.3 14.8 5.4 22.6 6.6 7.9 1.3 15.9 1.7 23.9 1.7 8-.1 16.1-.4 24-1.5 3.9-.5 7.9-1.2 11.7-2.2 1-.3 1.9-.5 2.8-.8l.7-.2h.1l.2-.1.4-.1 1.4-.5 2.8-1c.5-.2.9-.3 1.4-.5l1.3-.6c7.1-3.1 13.7-7.4 19.4-12.5 5.7-5.1 10.5-11.1 14.4-17.5 4-6.3 7.1-13.1 9.7-19.8 2.6-6.8 4.6-13.6 6.3-20.3 3.2-13.5 5-26.5 6.2-38.5 1.1-12.1 1.7-23.2 2-33 .3-9.9.5-18.4.7-25.5.2-14.2.4-22.2.4-22.2s0 2 .1 5.8c0 3.8.1 9.4.2 16.4 0 7.1 0 15.7-.2 25.5-.1 9.9-.5 21-1.5 33.1s-2.6 25.2-5.7 38.9c-1.6 6.8-3.6 13.7-6.1 20.6s-5.7 13.8-9.8 20.3c-4 6.5-9 12.7-14.8 18.1-5.9 5.4-12.7 9.8-20.2 13.1l-1.4.6c-.5.2-.9.4-1.4.5l-2.8 1-1.4.5-.4.1-.2.1-.2.1-.7.2c-1 .3-2 .6-2.9.8-3.9 1-8 1.8-12 2.4-8.1 1.1-16.2 1.5-24.4 1.6-8.2 0-16.3-.5-24.4-1.8-8-1.3-16-3.5-23.3-7-7.4-3.4-14.1-8.1-19.6-13.9-1.3-1.5-2.6-3.1-3.9-4.6-1.1-1.6-2.2-3.2-3.3-4.7-2.2-3.4-3.9-6.8-5.4-10.4-3-7.1-5.2-14.2-7.5-21.2-2.2-7-4.3-13.9-5.8-20.7-1.6-6.9-2.4-13.6-2.8-20.2-.5-6.6-.7-12.9-1-18.9-.6-12.1-1.1-23.2-1.6-33.1-.5-9.9-.8-18.4-1.2-25.5-.7-14.2-1-22.2-1-22.2z"/><path d="M6496.6-541.7s.8 0 2.4.1 3.8.2 6.7.3c2.9.2 6.4.3 10.5.5 4 .2 8.6.3 13.6.5s10.4.3 16.1.5 11.7.2 17.9.4c6.2.1 12.6.1 19.2.2 6.5.1 13.2 0 19.8.1 6.6 0 13.3 0 19.8-.1s13-.1 19.2-.2c12.5-.1 24.1-.2 34-.3 10-.1 18.3-.1 24.1-.1h9.1s-.8.1-2.4.2c-1.6.1-3.8.2-6.7.4-5.8.3-14.1.8-24.1 1.3s-21.6.9-34 1.3c-6.2.1-12.7.4-19.2.4-6.5.1-13.2.1-19.8.2-6.6 0-13.3 0-19.8-.2-6.5-.1-13-.3-19.2-.4-6.2-.2-12.3-.4-18-.8-2.9-.2-5.6-.3-8.3-.5-2.7-.2-5.3-.4-7.8-.5-2.5-.2-4.9-.3-7.1-.5-2.3-.2-4.4-.4-6.4-.6-4-.4-7.6-.7-10.4-1-2.9-.3-5.2-.6-6.7-.7-1.7-.4-2.5-.5-2.5-.5z"/><path class="st3" d="M507.3 219.7c-3.7-30.2-8.6-61.4-1.2-90.8.6-3.7-2.7-6.9-5.9-9-17.9-11.4-40.3-12.3-61.6-12.5-68.4-.7-136.9 1.9-205.1 8.4-12.3 1.2-26.6 3.8-32.2 14.8 7.9 39.2 8 78.4 2.4 118-1.4 9.5-3.1 19.1-3 28.7v1.2c102.2-.7 205.1-3.1 307.2-6.9l1-.1c1.2-17.1.5-34.6-1.6-51.8z"/><linearGradient id="SVGID_2_" gradientUnits="userSpaceOnUse" x1="354.718" y1="435.372" x2="354.718" y2="33.28" gradientTransform="matrix(1 0 0 -1 0 707)"><stop offset="0" stop-color="#aa6300"/><stop offset="1" stop-color="#442003"/></linearGradient><path class="st4" d="M507.9 271.7c-102.1 3.8-205 6.1-307.2 6.8l.1 2.1c0 .5.1 1.1.1 1.6.7 8.4 3.2 16.5 5.6 24.6 3.9 12.8 7.7 25.6 11.6 38.4 9.6 31.7 10.6 64.5 11.6 97.6 1.8 58.5.1 110.8 5.6 166.3 1.1 11.1 2.4 22.4 7.1 32.5 4.6 10.1 13 19.1 23.9 21.7 49.5 11.6 102.4 8 153.2 10.3 10.9.5 29.3-1.1 40-3.3 16.2-3.4 17.9-23.4 18.2-29.1 2-31.4-1.9-62.3.1-93.7 1.5-22.9 2.9-45.7 4.4-68.6 1.8-28.5 5.5-57.9 7.5-86.4 1.8-26.8 3.7-53.9 11.5-79.5 4.1-13.5 6.5-27.4 7.6-41.4l-.9.1z"/><path class="st0" d="M503.6 277.5c-102.1 3.8-205 6.1-307.2 6.8l.1 2.1c0 .5.1 1.1.1 1.6.7 8.4 3.2 16.5 5.6 24.6 3.9 12.8 7.7 25.6 11.6 38.4 9.6 31.7 10.6 64.5 11.6 97.6 1.8 58.5.1 110.8 5.6 166.3 1.1 11.1 2.4 22.4 7.1 32.5 4.6 10.1 13 19.1 23.9 21.7 49.5 11.6 102.4 8 153.2 10.3 10.9.5 29.3-1.1 40-3.3 16.2-3.4 17.9-23.4 18.2-29.1 2-31.4-1.9-62.3.1-93.7 1.5-22.9 2.9-45.7 4.4-68.6 1.8-28.5 5.5-57.9 7.5-86.4 1.8-26.8 3.7-53.9 11.5-79.5 4.1-13.5 6.5-27.4 7.6-41.4l-.9.1z"/><path class="st1" d="M513.4 129.8c-2.7 29.3-5.4 58.9-2.5 88.2 1 10.4 2.7 20.8 3.4 31.2 2.8 40.4-11.7 74.7-17.2 114-1.9 13.5-2.6 27.2-3.3 40.8-3.3 62.7-7.7 125.6-9.6 188.3-.6 18.2-.6 36.3.7 54.4.9 12.3-3.3 32.7-12.8 42.8-3.8 4.1-9.4 6-14.9 7.4-32.6 8-156.6 5.7-186.1-1.1-13.1-3-29.7-7-36.6-18.4-3.7-6-4.6-13.2-5.4-20.2-1.5-12.5-2.4-22.9-3.8-35.4-6.7-60-3.7-120.5-8.4-180.7-2-26.1-2.5-54.8-8.5-80.2-4.9-20.7-14.6-40.3-17.2-61.5-2.7-21.8 2.2-44.7 4.4-66.4 3.4-33.6-.7-67.4-4.7-101 105.7-14.6 216.6-14.2 322.5-2.2z"/><path d="M195.7 134.9s.2 1.2.7 3.7c.2 1.2.5 2.7.9 4.5.3 1.8.7 3.9 1.1 6.2.4 2.4.8 5 1.2 7.9s.8 6.1 1.2 9.5c.8 6.9 1.4 14.8 1.9 23.7.8 17.8.4 39.5-2.9 64.1-.8 6.1-1.9 12.4-2.5 19-.6 6.5-.6 13.3.6 20 1.2 6.8 3.3 13.6 5.4 20.6 2.1 7 4.3 14.1 6.5 21.4 1.1 3.6 2.2 7.3 3.4 11 1.1 3.7 2.3 7.5 3.3 11.3 2.1 7.7 3.7 15.7 5 23.8 2.6 16.3 3.7 33.3 4.4 50.8s1.2 35.4 1.5 53.7c.3 18.3.4 37.1.9 56.1s1.2 38.4 2.8 57.9c.3 4.9.9 9.8 1.3 14.7.5 4.9 1 9.8 1.9 14.6.8 4.8 2 9.6 3.7 14.1 1.7 4.6 4 8.8 7.1 12.6 3 3.8 6.7 7 11 9.3 2.1 1.1 4.4 1.9 6.7 2.5 2.5.5 4.9 1.1 7.4 1.6 9.8 1.9 19.8 3.4 29.8 4.5 10 1 20.1 1.7 30.2 2.1 10.1.4 20.3.6 30.4.8 10.2.2 20.3.3 30.5.5 5.1.1 10.2.2 15.2.4l7.6.3 3.8.1h3.7c5-.1 10-.4 15-.8s10-1 14.9-1.8c1.2-.2 2.5-.4 3.6-.7.6-.2 1.3-.3 1.8-.5s1.1-.3 1.6-.6c2.2-.9 4.1-2.2 5.7-3.9 3.3-3.4 5.3-7.9 6.5-12.6.6-2.3 1-4.8 1.3-7.2.1-1.2.2-2.4.3-3.7l.2-3.7c.1-2.5.2-4.9.3-7.4 0-2.5.1-4.9.1-7.4 0-9.9-.3-19.7-.6-29.5s-.6-19.6-.4-29.3c0-4.9.2-9.7.5-14.5s.6-9.6.9-14.3c1.3-19 2.5-37.7 3.7-56 1.3-18.3 3.2-36.2 4.8-53.6.8-8.7 1.6-17.3 2.3-25.7.7-8.4 1.2-16.8 1.9-25 1.3-16.4 3.2-32.2 6.6-47.2.9-3.7 1.8-7.4 2.8-11 .5-1.8 1-3.6 1.6-5.3.5-1.8 1-3.5 1.5-5.3 1.8-7 3.2-14 4.2-20.8 1.9-13.7 2.4-26.9 2-39.2-.3-12.4-1.7-23.9-3-34.5s-2.4-20.4-3-29.3c-1.3-17.8-.5-31.8 1-41.2.2-1.2.3-2.3.5-3.3s.4-2 .6-2.9.4-1.7.5-2.5c.2-.7.4-1.4.5-2l.9-3.6-.9 3.6c-.1.6-.3 1.3-.5 2-.1.7-.3 1.6-.5 2.5s-.4 1.9-.6 2.9-.3 2.1-.5 3.3c-1.5 9.4-2.2 23.4-.7 41.1.7 8.9 1.9 18.6 3.3 29.2 1.4 10.6 2.9 22.2 3.3 34.6.5 12.4.1 25.6-1.7 39.5-.9 6.9-2.3 13.9-4.1 21.1-.4 1.8-.9 3.5-1.4 5.3s-1 3.6-1.5 5.3c-1 3.6-1.9 7.2-2.8 10.9-3.3 14.8-5.1 30.6-6.4 47-.6 8.2-1.1 16.5-1.7 25s-1.4 17.1-2.2 25.8c-1.6 17.4-3.4 35.2-4.6 53.5s-2.3 37-3.5 56c-.3 4.8-.6 9.5-.9 14.3s-.4 9.6-.5 14.4c-.1 9.6.2 19.4.5 29.2s.6 19.7.6 29.6c0 2.5-.1 5-.1 7.5-.1 2.5-.1 5-.3 7.5l-.2 3.7c-.1 1.3-.2 2.5-.3 3.8-.3 2.5-.7 5.1-1.3 7.6-1.3 5-3.4 10-7.2 13.8-1.9 1.9-4.1 3.5-6.6 4.5-.6.3-1.3.5-1.9.7-.7.2-1.2.3-1.9.5-1.4.3-2.5.5-3.8.7-5 .8-10.1 1.4-15.1 1.9-5.1.5-10.1.8-15.2.8h-3.9l-3.8-.1-7.6-.3c-5.1-.1-10.1-.3-15.2-.4-10.1-.1-20.3-.3-30.5-.4-10.2-.2-20.3-.4-30.5-.8-10.2-.5-20.3-1.1-30.4-2.2-10.1-1.1-20.2-2.6-30.1-4.6-2.5-.5-4.9-1.1-7.4-1.6-2.6-.6-5.1-1.5-7.4-2.7-4.7-2.4-8.6-6-11.8-10s-5.7-8.6-7.5-13.4c-1.8-4.8-3-9.7-3.8-14.7-.8-4.9-1.4-9.9-1.9-14.8-.4-4.9-.9-9.8-1.3-14.7-1.5-19.6-2.2-39-2.7-58-.4-19.1-.5-37.8-.7-56.1-.2-18.3-.6-36.3-1.2-53.7-.6-17.4-1.7-34.4-4.1-50.6-1.2-8.1-2.8-16-4.8-23.6-1-3.8-2.1-7.6-3.2-11.3l-3.3-11.1c-2.2-7.3-4.3-14.4-6.4-21.4-2.1-7-4.2-13.8-5.3-20.8-1.2-6.9-1.1-13.8-.4-20.4.7-6.6 1.8-12.9 2.6-19 3.5-24.5 4.1-46.1 3.4-63.9-.3-8.9-.9-16.8-1.7-23.7-.3-3.4-.8-6.6-1.1-9.5-.4-2.9-.8-5.5-1.1-7.9-.4-2.3-.7-4.4-1-6.2s-.6-3.3-.8-4.5c-.4-2.4-.7-3.7-.7-3.7z"/><path class="st5" d="M196.4 284.3c102.2-.7 205.7-3 307.8-6.8"/></svg>