<?xml version="1.0" encoding="utf-8"?>
<!-- Generator: Adobe Illustrator 19.2.0, SVG Export Plug-In . SVG Version: 6.00 Build 0)  -->
<svg version="1.1" id="Layer_1" xmlns="http://www.w3.org/2000/svg" xmlns:xlink="http://www.w3.org/1999/xlink" x="0px" y="0px"
	 viewBox="0 0 460 603" style="enable-background:new 0 0 460 603;" xml:space="preserve">
<style type="text/css">
	.st0{fill:none;stroke:#000000;stroke-width:5;stroke-miterlimit:10;}
	.st1{opacity:0.9;fill:url(#SVGID_1_);enable-background:new    ;}
	.st2{fill:#FCEDC5;}
	.st3{fill:url(#SVGID_2_);}
	.st4{fill:none;}
	.st5{fill:none;stroke:#000000;stroke-width:3;stroke-miterlimit:10;}
</style>
<path class="st0" d="M6588.6-667.6c0.3,38.5,0.2,82.4-5.7,120.5c-2.3,14.7-3.7,31.7-10.6,44.9c-9.4,17.9-18.6,35.9-34,49.5
	c-5.5,4.9-11.5,9.2-17.9,12.8c-4.2,2.3-15.3,5.1-15.9,10.8c-0.4,3.6,3.8,5.7,6.9,7.6c6.9,4.3,10.9,12.3,11.6,20.4
	c1.5,15.4-5.6,30.7-18.9,38.8c-0.8,0.5-1.6,1-1.9,1.8c-0.7,2.1,2.1,3.4,4.2,3.8c12.1,2.1,24,5,35.7,8.7c7.7,2.4,24.3,10.6,12,18.5
	c-7.7,4.9-17,6.2-26,7.3c-24.7,3.1-49.7,6.2-74.5,3.9c-5.6-0.5-11.2-1.4-16.8-2.2l-22.5-3.3c-5.3-0.8-11.8-2.7-12.7-7.9
	c-1.7-10.2,16.6-15.1,23.6-17.2c4.9-1.5,36.5-4.6,35.6-9.3c-0.5-2.4-2.8-3.9-4.8-5.4c-8.9-6.4-15-16.4-16.6-27.2
	c-1.6-10.8,1.3-22.2,7.9-30.9c2.2-2.9,4.9-6,4.4-9.6c-0.2-1.5-1-2.9-2-4.1c-5.1-6.7-15.9-9.5-22.8-14.7c-7.9-6-15.2-12.8-21.6-20.4
	c-12.5-14.5-22.1-31.5-27.6-49.9c-5.2-17.2-6.9-35.3-8.2-53.2c-2.3-31-3.6-62-3.8-93.1c20.2-2.4,42-1.8,62.4-1.4
	C6480.9-667,6588.6-669.7,6588.6-667.6L6588.6-667.6z"/>
<path d="M6462-352.7v1.9c0,0.6,0.1,1.3,0.6,1.9c0.4,0.6,1.2,0.8,2.2,0.8c2.1-0.1,4.5-0.2,7.1-0.2c1.3,0,2.7-0.1,4-0.1
	c1.4-0.1,2.8-0.1,4.1-0.2c1.4-0.1,2.8-0.1,4.1-0.2c1.4-0.1,2.7-0.1,4-0.2c2.6-0.1,5-0.2,7.1-0.3c2-0.1,3.7-0.6,4.6-1.3
	c0.4-0.4,0.7-0.8,0.8-1.1c0.1-0.3,0.2-0.5,0.2-0.5v0.5c-0.1,0.3-0.2,0.8-0.6,1.3s-1.1,1-1.9,1.4c-0.8,0.4-1.8,0.7-2.8,0.8
	c-2.1,0.4-4.5,0.7-7.1,0.9c-1.3,0.1-2.7,0.3-4,0.4c-1.4,0.1-2.8,0.2-4.2,0.2c-1.4,0-2.8,0.1-4.2,0.1h-4.1c-2.6-0.1-5.1-0.2-7.2-0.4
	c-0.5-0.1-1.1-0.1-1.6-0.4s-0.9-0.7-1.1-1.1c-0.4-0.9-0.4-1.7-0.3-2.3s0.2-1.1,0.3-1.4C6461.9-352.5,6462-352.7,6462-352.7
	L6462-352.7z M6461.6-437.3c0,0,0.6,0.2,1.6,0.5c0.5,0.2,1.2,0.3,1.9,0.5s1.6,0.4,2.4,0.5c0.9,0.2,1.9,0.3,2.9,0.5
	c1,0.1,2.1,0.2,3.3,0.3c1.1,0.1,2.3,0.1,3.5,0.2h3.6c1.2,0,2.5,0,3.7-0.1c1.2,0,2.4-0.1,3.6-0.1c2.3-0.1,4.5-0.1,6.3-0.3
	c1.8-0.2,3.2-0.6,4.1-1.2c0.4-0.3,0.8-0.6,1-0.8l0.3-0.3c0,0-0.1,0.1-0.2,0.4c-0.2,0.3-0.4,0.6-0.8,1c-0.8,0.8-2.3,1.6-4.2,2
	c-0.9,0.2-2,0.4-3,0.5c-1.1,0.1-2.2,0.3-3.3,0.4l-3.6,0.3c-1.2,0.1-2.5,0.1-3.7,0.2c-1.3,0-2.5,0-3.7-0.1c-0.6,0-1.2-0.1-1.8-0.1
	c-0.6-0.1-1.2-0.1-1.8-0.2c-1.2-0.1-2.3-0.4-3.4-0.6c-0.5-0.1-1-0.3-1.5-0.4c-0.5-0.2-1-0.3-1.4-0.4c-1.8-0.6-3.2-1.3-4.2-1.8
	C6462.2-437,6461.6-437.3,6461.6-437.3L6461.6-437.3z M6411.5-335.2l0.3,0.3c0.2,0.2,0.5,0.4,1,0.6c0.9,0.5,2.3,1,4.2,1.4
	c1.9,0.4,4.2,0.7,6.8,1.1c2.6,0.4,5.6,0.7,8.9,1.1c3.3,0.3,6.8,0.7,10.6,1c3.7,0.3,7.7,0.5,11.8,0.7c8.2,0.3,17,0.5,25.7,0.6
	c4.4,0.1,8.8,0.1,13.1,0.2c4.3,0,8.5,0.1,12.6,0s8-0.4,11.7-0.8c3.7-0.5,7.2-1.1,10.4-1.7c6.4-1.4,11.6-3,15.2-4.3
	c1.8-0.7,3.2-1.2,4.2-1.6l1.5-0.6c0,0-0.5,0.2-1.4,0.7c-0.9,0.4-2.3,1.1-4.1,1.8c-3.5,1.5-8.7,3.5-15.1,5.1
	c-6.4,1.6-14.1,2.9-22.3,3.2c-4.1,0.2-8.4,0.2-12.7,0.2c-4.3,0-8.7-0.1-13.1-0.1c-4.4-0.1-8.8-0.2-13.1-0.3
	c-4.3-0.1-8.6-0.4-12.7-0.6c-4.1-0.3-8.1-0.6-11.8-1c-3.8-0.4-7.3-0.8-10.6-1.3c-1.6-0.3-3.2-0.5-4.7-0.7c-1.5-0.3-2.9-0.5-4.2-0.8
	c-2.6-0.5-4.9-1-6.8-1.5s-3.3-1.1-4.1-1.7c-0.4-0.3-0.7-0.5-0.9-0.7C6411.6-335.1,6411.5-335.2,6411.5-335.2L6411.5-335.2z"/>
<linearGradient id="SVGID_1_" gradientUnits="userSpaceOnUse" x1="6378.7998" y1="-1052.7888" x2="6584.7002" y2="-1052.7888" gradientTransform="matrix(1 0 0 1 0 507)">
	<stop  offset="1.800000e-02" style="stop-color:#801FE3"/>
	<stop  offset="1" style="stop-color:#B7A7FF"/>
</linearGradient>
<path class="st1" d="M6378.8-639.4c1.4,24.4,2.7,48.8,4.1,73.2c0.4,7.9,0.9,15.9,2.2,23.7c1.8,11.1,5.4,21.8,8.9,32.5
	c3,9.1,6,18.2,11.1,26.3c17.8,28.1,51.5,32.7,81.9,31.3c10.6-0.5,21.3-1.5,31.5-4.7c66.9-21.3,65.2-117,66.1-172.7
	c0-2.6,0.1-5.1,0.1-7.7C6516-635.3,6447.2-633.5,6378.8-639.4L6378.8-639.4z"/>
<path d="M6373.7-659.1c0,0,0.6,8.1,1.5,22.2c0.5,7.1,1,15.6,1.7,25.5c0.6,9.8,1.4,20.9,2.1,33.1c0.4,6.1,0.7,12.4,1.3,18.9
	c0.5,6.5,1.4,13.2,3,19.9c1.6,6.7,3.7,13.5,6,20.4c2.4,6.9,4.5,14,7.5,20.9c0.8,1.7,1.5,3.4,2.4,5.1c0.9,1.6,1.8,3.3,2.8,4.8
	c1.1,1.6,2.2,3.1,3.4,4.7c1.2,1.4,2.5,2.8,3.7,4.3c5.3,5.5,11.7,10,18.8,13.2c7.1,3.3,14.8,5.4,22.6,6.6c7.9,1.3,15.9,1.7,23.9,1.7
	c8-0.1,16.1-0.4,24-1.5c3.9-0.5,7.9-1.2,11.7-2.2c1-0.3,1.9-0.5,2.8-0.8l0.7-0.2h0.1l0.2-0.1l0.4-0.1l1.4-0.5l2.8-1
	c0.5-0.2,0.9-0.3,1.4-0.5l1.3-0.6c7.1-3.1,13.7-7.4,19.4-12.5c5.7-5.1,10.5-11.1,14.4-17.5c4-6.3,7.1-13.1,9.7-19.8
	c2.6-6.8,4.6-13.6,6.3-20.3c3.2-13.5,5-26.5,6.2-38.5c1.1-12.1,1.7-23.2,2-33c0.3-9.9,0.5-18.4,0.7-25.5c0.2-14.2,0.4-22.2,0.4-22.2
	s0,2,0.1,5.8c0,3.8,0.1,9.4,0.2,16.4c0,7.1,0,15.7-0.2,25.5c-0.1,9.9-0.5,21-1.5,33.1c-1,12.1-2.6,25.2-5.7,38.9
	c-1.6,6.8-3.6,13.7-6.1,20.6c-2.5,6.9-5.7,13.8-9.8,20.3c-4,6.5-9,12.7-14.8,18.1c-5.9,5.4-12.7,9.8-20.2,13.1l-1.4,0.6
	c-0.5,0.2-0.9,0.4-1.4,0.5l-2.8,1l-1.4,0.5l-0.4,0.1l-0.2,0.1l-0.2,0.1l-0.7,0.2c-1,0.3-2,0.6-2.9,0.8c-3.9,1-8,1.8-12,2.4
	c-8.1,1.1-16.2,1.5-24.4,1.6c-8.2,0-16.3-0.5-24.4-1.8c-8-1.3-16-3.5-23.3-7c-7.4-3.4-14.1-8.1-19.6-13.9c-1.3-1.5-2.6-3.1-3.9-4.6
	c-1.1-1.6-2.2-3.2-3.3-4.7c-2.2-3.4-3.9-6.8-5.4-10.4c-3-7.1-5.2-14.2-7.5-21.2c-2.2-7-4.3-13.9-5.8-20.7
	c-1.6-6.9-2.4-13.6-2.8-20.2c-0.5-6.6-0.7-12.9-1-18.9c-0.6-12.1-1.1-23.2-1.6-33.1c-0.5-9.9-0.8-18.4-1.2-25.5
	C6374-651.1,6373.7-659.1,6373.7-659.1L6373.7-659.1z"/>
<path d="M6374.1-643.7c0,0,0.8,0,2.4,0.1s3.8,0.2,6.7,0.3c2.9,0.2,6.4,0.3,10.5,0.5c4,0.2,8.6,0.3,13.6,0.5s10.4,0.3,16.1,0.5
	s11.7,0.2,17.9,0.4c6.2,0.1,12.6,0.1,19.2,0.2c6.5,0.1,13.2,0,19.8,0.1c6.6,0,13.3,0,19.8-0.1s13-0.1,19.2-0.2
	c12.5-0.1,24.1-0.2,34-0.3c10-0.1,18.3-0.1,24.1-0.1h9.1c0,0-0.8,0.1-2.4,0.2c-1.6,0.1-3.8,0.2-6.7,0.4c-5.8,0.3-14.1,0.8-24.1,1.3
	s-21.6,0.9-34,1.3c-6.2,0.1-12.7,0.4-19.2,0.4c-6.5,0.1-13.2,0.1-19.8,0.2c-6.6,0-13.3,0-19.8-0.2c-6.5-0.1-13-0.3-19.2-0.4
	c-6.2-0.2-12.3-0.4-18-0.8c-2.9-0.2-5.6-0.3-8.3-0.5c-2.7-0.2-5.3-0.4-7.8-0.5c-2.5-0.2-4.9-0.3-7.1-0.5c-2.3-0.2-4.4-0.4-6.4-0.6
	c-4-0.4-7.6-0.7-10.4-1c-2.9-0.3-5.2-0.6-6.7-0.7C6374.9-643.6,6374.1-643.7,6374.1-643.7L6374.1-643.7z"/>
<path class="st2" d="M384.8,117.7c-3.7-30.2-8.6-61.4-1.2-90.8c0.6-3.7-2.7-6.9-5.9-9C359.8,6.5,337.4,5.6,316.1,5.4
	C247.7,4.7,179.2,7.3,111,13.8C98.7,15,84.4,17.6,78.8,28.6c7.9,39.2,8,78.4,2.4,118c-1.4,9.5-3.1,19.1-3,28.7v1.2
	c102.2-0.7,205.1-3.1,307.2-6.9l1-0.1C387.6,152.4,386.9,134.9,384.8,117.7L384.8,117.7z"/>
<linearGradient id="SVGID_2_" gradientUnits="userSpaceOnUse" x1="232.25" y1="-337.3999" x2="232.25" y2="64.692" gradientTransform="matrix(1 0 0 1 0 507)">
	<stop  offset="0" style="stop-color:#AA6300"/>
	<stop  offset="1" style="stop-color:#442003"/>
</linearGradient>
<path class="st3" d="M385.4,169.7c-102.1,3.8-205,6.1-307.2,6.8l0.1,2.1c0,0.5,0.1,1.1,0.1,1.6c0.7,8.4,3.2,16.5,5.6,24.6
	c3.9,12.8,7.7,25.6,11.6,38.4c9.6,31.7,10.6,64.5,11.6,97.6c1.8,58.5,0.1,110.8,5.6,166.3c1.1,11.1,2.4,22.4,7.1,32.5
	c4.6,10.1,13,19.1,23.9,21.7c49.5,11.6,102.4,8,153.2,10.3c10.9,0.5,29.3-1.1,40-3.3c16.2-3.4,17.9-23.4,18.2-29.1
	c2-31.4-1.9-62.3,0.1-93.7c1.5-22.9,2.9-45.7,4.4-68.6c1.8-28.5,5.5-57.9,7.5-86.4c1.8-26.8,3.7-53.9,11.5-79.5
	c4.1-13.5,6.5-27.4,7.6-41.4L385.4,169.7L385.4,169.7z"/>
<path class="st4" d="M381.1,175.5c-102.1,3.8-205,6.1-307.2,6.8l0.1,2.1c0,0.5,0.1,1.1,0.1,1.6c0.7,8.4,3.2,16.5,5.6,24.6
	c3.9,12.8,7.7,25.6,11.6,38.4c9.6,31.7,10.6,64.5,11.6,97.6c1.8,58.5,0.1,110.8,5.6,166.3c1.1,11.1,2.4,22.4,7.1,32.5
	c4.6,10.1,13,19.1,23.9,21.7c49.5,11.6,102.4,8,153.2,10.3c10.9,0.5,29.3-1.1,40-3.3c16.2-3.4,17.9-23.4,18.2-29.1
	c2-31.4-1.9-62.3,0.1-93.7c1.5-22.9,2.9-45.7,4.4-68.6c1.8-28.5,5.5-57.9,7.5-86.4c1.8-26.8,3.7-53.9,11.5-79.5
	c4.1-13.5,6.5-27.4,7.6-41.4L381.1,175.5L381.1,175.5z"/>
<path class="st0" d="M390.9,27.8c-2.7,29.3-5.4,58.9-2.5,88.2c1,10.4,2.7,20.8,3.4,31.2c2.8,40.4-11.7,74.7-17.2,114
	c-1.9,13.5-2.6,27.2-3.3,40.8c-3.3,62.7-7.7,125.6-9.6,188.3c-0.6,18.2-0.6,36.3,0.7,54.4c0.9,12.3-3.3,32.7-12.8,42.8
	c-3.8,4.1-9.4,6-14.9,7.4c-32.6,8-156.6,5.7-186.1-1.1c-13.1-3-29.7-7-36.6-18.4c-3.7-6-4.6-13.2-5.4-20.2
	c-1.5-12.5-2.4-22.9-3.8-35.4c-6.7-60-3.7-120.5-8.4-180.7c-2-26.1-2.5-54.8-8.5-80.2c-4.9-20.7-14.6-40.3-17.2-61.5
	c-2.7-21.8,2.2-44.7,4.4-66.4c3.4-33.6-0.7-67.4-4.7-101C174.1,15.4,285,15.8,390.9,27.8L390.9,27.8z"/>
<path d="M73.2,32.9c0,0,0.2,1.2,0.7,3.7c0.2,1.2,0.5,2.7,0.9,4.5c0.3,1.8,0.7,3.9,1.1,6.2c0.4,2.4,0.8,5,1.2,7.9s0.8,6.1,1.2,9.5
	c0.8,6.9,1.4,14.8,1.9,23.7c0.8,17.8,0.4,39.5-2.9,64.1c-0.8,6.1-1.9,12.4-2.5,19c-0.6,6.5-0.6,13.3,0.6,20
	c1.2,6.8,3.3,13.6,5.4,20.6c2.1,7,4.3,14.1,6.5,21.4c1.1,3.6,2.2,7.3,3.4,11c1.1,3.7,2.3,7.5,3.3,11.3c2.1,7.7,3.7,15.7,5,23.8
	c2.6,16.3,3.7,33.3,4.4,50.8s1.2,35.4,1.5,53.7c0.3,18.3,0.4,37.1,0.9,56.1s1.2,38.4,2.8,57.9c0.3,4.9,0.9,9.8,1.3,14.7
	c0.5,4.9,1,9.8,1.9,14.6c0.8,4.8,2,9.6,3.7,14.1c1.7,4.6,4,8.8,7.1,12.6c3,3.8,6.7,7,11,9.3c2.1,1.1,4.4,1.9,6.7,2.5
	c2.5,0.5,4.9,1.1,7.4,1.6c9.8,1.9,19.8,3.4,29.8,4.5c10,1,20.1,1.7,30.2,2.1c10.1,0.4,20.3,0.6,30.4,0.8c10.2,0.2,20.3,0.3,30.5,0.5
	c5.1,0.1,10.2,0.2,15.2,0.4l7.6,0.3l3.8,0.1h3.7c5-0.1,10-0.4,15-0.8s10-1,14.9-1.8c1.2-0.2,2.5-0.4,3.6-0.7
	c0.6-0.2,1.3-0.3,1.8-0.5s1.1-0.3,1.6-0.6c2.2-0.9,4.1-2.2,5.7-3.9c3.3-3.4,5.3-7.9,6.5-12.6c0.6-2.3,1-4.8,1.3-7.2
	c0.1-1.2,0.2-2.4,0.3-3.7l0.2-3.7c0.1-2.5,0.2-4.9,0.3-7.4c0-2.5,0.1-4.9,0.1-7.4c0-9.9-0.3-19.7-0.6-29.5s-0.6-19.6-0.4-29.3
	c0-4.9,0.2-9.7,0.5-14.5s0.6-9.6,0.9-14.3c1.3-19,2.5-37.7,3.7-56c1.3-18.3,3.2-36.2,4.8-53.6c0.8-8.7,1.6-17.3,2.3-25.7
	c0.7-8.4,1.2-16.8,1.9-25c1.3-16.4,3.2-32.2,6.6-47.2c0.9-3.7,1.8-7.4,2.8-11c0.5-1.8,1-3.6,1.6-5.3c0.5-1.8,1-3.5,1.5-5.3
	c1.8-7,3.2-14,4.2-20.8c1.9-13.7,2.4-26.9,2-39.2c-0.3-12.4-1.7-23.9-3-34.5s-2.4-20.4-3-29.3c-1.3-17.8-0.5-31.8,1-41.2
	c0.2-1.2,0.3-2.3,0.5-3.3s0.4-2,0.6-2.9s0.4-1.7,0.5-2.5c0.2-0.7,0.4-1.4,0.5-2l0.9-3.6l-0.9,3.6c-0.1,0.6-0.3,1.3-0.5,2
	c-0.1,0.7-0.3,1.6-0.5,2.5s-0.4,1.9-0.6,2.9s-0.3,2.1-0.5,3.3c-1.5,9.4-2.2,23.4-0.7,41.1c0.7,8.9,1.9,18.6,3.3,29.2
	c1.4,10.6,2.9,22.2,3.3,34.6c0.5,12.4,0.1,25.6-1.7,39.5c-0.9,6.9-2.3,13.9-4.1,21.1c-0.4,1.8-0.9,3.5-1.4,5.3s-1,3.6-1.5,5.3
	c-1,3.6-1.9,7.2-2.8,10.9c-3.3,14.8-5.1,30.6-6.4,47c-0.6,8.2-1.1,16.5-1.7,25s-1.4,17.1-2.2,25.8c-1.6,17.4-3.4,35.2-4.6,53.5
	s-2.3,37-3.5,56c-0.3,4.8-0.6,9.5-0.9,14.3s-0.4,9.6-0.5,14.4c-0.1,9.6,0.2,19.4,0.5,29.2s0.6,19.7,0.6,29.6c0,2.5-0.1,5-0.1,7.5
	c-0.1,2.5-0.1,5-0.3,7.5l-0.2,3.7c-0.1,1.3-0.2,2.5-0.3,3.8c-0.3,2.5-0.7,5.1-1.3,7.6c-1.3,5-3.4,10-7.2,13.8
	c-1.9,1.9-4.1,3.5-6.6,4.5c-0.6,0.3-1.3,0.5-1.9,0.7c-0.7,0.2-1.2,0.3-1.9,0.5c-1.4,0.3-2.5,0.5-3.8,0.7c-5,0.8-10.1,1.4-15.1,1.9
	c-5.1,0.5-10.1,0.8-15.2,0.8h-3.9l-3.8-0.1l-7.6-0.3c-5.1-0.1-10.1-0.3-15.2-0.4c-10.1-0.1-20.3-0.3-30.5-0.4
	c-10.2-0.2-20.3-0.4-30.5-0.8c-10.2-0.5-20.3-1.1-30.4-2.2c-10.1-1.1-20.2-2.6-30.1-4.6c-2.5-0.5-4.9-1.1-7.4-1.6
	c-2.6-0.6-5.1-1.5-7.4-2.7c-4.7-2.4-8.6-6-11.8-10s-5.7-8.6-7.5-13.4c-1.8-4.8-3-9.7-3.8-14.7c-0.8-4.9-1.4-9.9-1.9-14.8
	c-0.4-4.9-0.9-9.8-1.3-14.7c-1.5-19.6-2.2-39-2.7-58c-0.4-19.1-0.5-37.8-0.7-56.1c-0.2-18.3-0.6-36.3-1.2-53.7
	c-0.6-17.4-1.7-34.4-4.1-50.6c-1.2-8.1-2.8-16-4.8-23.6c-1-3.8-2.1-7.6-3.2-11.3l-3.3-11.1c-2.2-7.3-4.3-14.4-6.4-21.4
	c-2.1-7-4.2-13.8-5.3-20.8c-1.2-6.9-1.1-13.8-0.4-20.4c0.7-6.6,1.8-12.9,2.6-19c3.5-24.5,4.1-46.1,3.4-63.9
	c-0.3-8.9-0.9-16.8-1.7-23.7c-0.3-3.4-0.8-6.6-1.1-9.5c-0.4-2.9-0.8-5.5-1.1-7.9c-0.4-2.3-0.7-4.4-1-6.2s-0.6-3.3-0.8-4.5
	C73.5,34.2,73.2,32.9,73.2,32.9L73.2,32.9z"/>
<path class="st5" d="M73.9,182.3c102.2-0.7,205.7-3,307.8-6.8"/>
</svg>
