<svg id="Layer_1" xmlns="http://www.w3.org/2000/svg" viewBox="0 0 700 700"><style>.st0,.st1{fill:none}.st1{stroke:#000;stroke-width:5;stroke-miterlimit:10}.st2{opacity:.9;fill:url(#SVGID_1_)}.st3{fill:none;stroke:#000;stroke-width:2;stroke-miterlimit:10}.st4{fill:#af043d}.st5{fill:#8e0339}.st6{fill:none;stroke:#000;stroke-miterlimit:10}.st7{fill:#f93621}</style><path class="st0" d="M0 0h700v700H0z"/><path class="st1" d="M6708.6-568.1c.3 38.5.2 82.4-5.7 120.5-2.3 14.7-3.7 31.7-10.6 44.9-9.4 17.9-18.6 35.9-34 49.5-5.5 4.9-11.5 9.2-17.9 12.8-4.2 2.3-15.3 5.1-15.9 10.8-.4 3.6 3.8 5.7 6.9 7.6 6.9 4.3 10.9 12.3 11.6 20.4 1.5 15.4-5.6 30.7-18.9 38.8-.8.5-1.6 1-1.9 1.8-.7 2.1 2.1 3.4 4.2 3.8 12.1 2.1 24 5 35.7 8.7 7.7 2.4 24.3 10.6 12 18.5-7.7 4.9-17 6.2-26 7.3-24.7 3.1-49.7 6.2-74.5 3.9-5.6-.5-11.2-1.4-16.8-2.2l-22.5-3.3c-5.3-.8-11.8-2.7-12.7-7.9-1.7-10.2 16.6-15.1 23.6-17.2 4.9-1.5 36.5-4.6 35.6-9.3-.5-2.4-2.8-3.9-4.8-5.4-8.9-6.4-15-16.4-16.6-27.2-1.6-10.8 1.3-22.2 7.9-30.9 2.2-2.9 4.9-6 4.4-9.6-.2-1.5-1-2.9-2-4.1-5.1-6.7-15.9-9.5-22.8-14.7-7.9-6-15.2-12.8-21.6-20.4-12.5-14.5-22.1-31.5-27.6-49.9-5.2-17.2-6.9-35.3-8.2-53.2-2.3-31-3.6-62-3.8-93.1 20.2-2.4 42-1.8 62.4-1.4 52.8 1.1 160.5-1.6 160.5.5z"/><path d="M6582-253.2v1.9c0 .6.1 1.3.6 1.9.4.6 1.2.8 2.2.8 2.1-.1 4.5-.2 7.1-.2 1.3 0 2.7-.1 4-.1 1.4-.1 2.8-.1 4.1-.2 1.4-.1 2.8-.1 4.1-.2 1.4-.1 2.7-.1 4-.2 2.6-.1 5-.2 7.1-.3 2-.1 3.7-.6 4.6-1.3.4-.4.7-.8.8-1.1.1-.3.2-.5.2-.5v.5c-.1.3-.2.8-.6 1.3-.4.5-1.1 1-1.9 1.4-.8.4-1.8.7-2.8.8-2.1.4-4.5.7-7.1.9-1.3.1-2.7.3-4 .4-1.4.1-2.8.2-4.2.2-1.4 0-2.8.1-4.2.1h-4.1c-2.6-.1-5.1-.2-7.2-.4-.5-.1-1.1-.1-1.6-.4-.5-.3-.9-.7-1.1-1.1-.4-.9-.4-1.7-.3-2.3.1-.6.2-1.1.3-1.4-.1-.3 0-.5 0-.5zm-.4-84.6s.6.2 1.6.5c.5.2 1.2.3 1.9.5s1.6.4 2.4.5c.9.2 1.9.3 2.9.5 1 .1 2.1.2 3.3.3 1.1.1 2.3.1 3.5.2h3.6c1.2 0 2.5 0 3.7-.1 1.2 0 2.4-.1 3.6-.1 2.3-.1 4.5-.1 6.3-.3 1.8-.2 3.2-.6 4.1-1.2.4-.3.8-.6 1-.8l.3-.3s-.1.1-.2.4c-.2.3-.4.6-.8 1-.8.8-2.3 1.6-4.2 2-.9.2-2 .4-3 .5-1.1.1-2.2.3-3.3.4l-3.6.3c-1.2.1-2.5.1-3.7.2-1.3 0-2.5 0-3.7-.1-.6 0-1.2-.1-1.8-.1-.6-.1-1.2-.1-1.8-.2-1.2-.1-2.3-.4-3.4-.6-.5-.1-1-.3-1.5-.4-.5-.2-1-.3-1.4-.4-1.8-.6-3.2-1.3-4.2-1.8-1-.6-1.6-.9-1.6-.9zm-50.1 102.1l.3.3c.2.2.5.4 1 .6.9.5 2.3 1 4.2 1.4 1.9.4 4.2.7 6.8 1.1 2.6.4 5.6.7 8.9 1.1 3.3.3 6.8.7 10.6 1 3.7.3 7.7.5 11.8.7 8.2.3 17 .5 25.7.6 4.4.1 8.8.1 13.1.2 4.3 0 8.5.1 12.6 0s8-.4 11.7-.8c3.7-.5 7.2-1.1 10.4-1.7 6.4-1.4 11.6-3 15.2-4.3 1.8-.7 3.2-1.2 4.2-1.6l1.5-.6s-.5.2-1.4.7c-.9.4-2.3 1.1-4.1 1.8-3.5 1.5-8.7 3.5-15.1 5.1-6.4 1.6-14.1 2.9-22.3 3.2-4.1.2-8.4.2-12.7.2-4.3 0-8.7-.1-13.1-.1-4.4-.1-8.8-.2-13.1-.3-4.3-.1-8.6-.4-12.7-.6-4.1-.3-8.1-.6-11.8-1-3.8-.4-7.3-.8-10.6-1.3-1.6-.3-3.2-.5-4.7-.7-1.5-.3-2.9-.5-4.2-.8-2.6-.5-4.9-1-6.8-1.5-1.9-.5-3.3-1.1-4.1-1.7-.4-.3-.7-.5-.9-.7-.3-.2-.4-.3-.4-.3z"/><linearGradient id="SVGID_1_" gradientUnits="userSpaceOnUse" x1="6498.813" y1="-446.236" x2="6704.691" y2="-446.236"><stop offset=".018" stop-color="#801fe3"/><stop offset="1" stop-color="#b7a7ff"/></linearGradient><path class="st2" d="M6498.8-539.9c1.4 24.4 2.7 48.8 4.1 73.2.4 7.9.9 15.9 2.2 23.7 1.8 11.1 5.4 21.8 8.9 32.5 3 9.1 6 18.2 11.1 26.3 17.8 28.1 51.5 32.7 81.9 31.3 10.6-.5 21.3-1.5 31.5-4.7 66.9-21.3 65.2-117 66.1-172.7 0-2.6.1-5.1.1-7.7-68.7 2.2-137.5 4-205.9-1.9z"/><path d="M6493.7-559.6s.6 8.1 1.5 22.2c.5 7.1 1 15.6 1.7 25.5.6 9.8 1.4 20.9 2.1 33.1.4 6.1.7 12.4 1.3 18.9.5 6.5 1.4 13.2 3 19.9 1.6 6.7 3.7 13.5 6 20.4 2.4 6.9 4.5 14 7.5 20.9.8 1.7 1.5 3.4 2.4 5.1.9 1.6 1.8 3.3 2.8 4.8 1.1 1.6 2.2 3.1 3.4 4.7 1.2 1.4 2.5 2.8 3.7 4.3 5.3 5.5 11.7 10 18.8 13.2 7.1 3.3 14.8 5.4 22.6 6.6 7.9 1.3 15.9 1.7 23.9 1.7 8-.1 16.1-.4 24-1.5 3.9-.5 7.9-1.2 11.7-2.2 1-.3 1.9-.5 2.8-.8l.7-.2h.1l.2-.1.4-.1 1.4-.5 2.8-1c.5-.2.9-.3 1.4-.5l1.3-.6c7.1-3.1 13.7-7.4 19.4-12.5 5.7-5.1 10.5-11.1 14.4-17.5 4-6.3 7.1-13.1 9.7-19.8 2.6-6.8 4.6-13.6 6.3-20.3 3.2-13.5 5-26.5 6.2-38.5 1.1-12.1 1.7-23.2 2-33 .3-9.9.5-18.4.7-25.5.2-14.2.4-22.2.4-22.2s0 2 .1 5.8c0 3.8.1 9.4.2 16.4 0 7.1 0 15.7-.2 25.5-.1 9.9-.5 21-1.5 33.1-1 12.1-2.6 25.2-5.7 38.9-1.6 6.8-3.6 13.7-6.1 20.6-2.5 6.9-5.7 13.8-9.8 20.3-4 6.5-9 12.7-14.8 18.1-5.9 5.4-12.7 9.8-20.2 13.1l-1.4.6c-.5.2-.9.4-1.4.5l-2.8 1-1.4.5-.4.1-.2.1-.2.1-.7.2c-1 .3-2 .6-2.9.8-3.9 1-8 1.8-12 2.4-8.1 1.1-16.2 1.5-24.4 1.6-8.2 0-16.3-.5-24.4-1.8-8-1.3-16-3.5-23.3-7-7.4-3.4-14.1-8.1-19.6-13.9-1.3-1.5-2.6-3.1-3.9-4.6-1.1-1.6-2.2-3.2-3.3-4.7-2.2-3.4-3.9-6.8-5.4-10.4-3-7.1-5.2-14.2-7.5-21.2-2.2-7-4.3-13.9-5.8-20.7-1.6-6.9-2.4-13.6-2.8-20.2-.5-6.6-.7-12.9-1-18.9-.6-12.1-1.1-23.2-1.6-33.1-.5-9.9-.8-18.4-1.2-25.5-.7-14.2-1-22.2-1-22.2z"/><path d="M6494.1-544.2s.8 0 2.4.1c1.6.1 3.8.2 6.7.3 2.9.2 6.4.3 10.5.5 4 .2 8.6.3 13.6.5s10.4.3 16.1.5c5.7.2 11.7.2 17.9.4 6.2.1 12.6.1 19.2.2 6.5.1 13.2 0 19.8.1 6.6 0 13.3 0 19.8-.1s13-.1 19.2-.2c12.5-.1 24.1-.2 34-.3 10-.1 18.3-.1 24.1-.1h9.1s-.8.1-2.4.2c-1.6.1-3.8.2-6.7.4-5.8.3-14.1.8-24.1 1.3-10 .5-21.6.9-34 1.3-6.2.1-12.7.4-19.2.4-6.5.1-13.2.1-19.8.2-6.6 0-13.3 0-19.8-.2-6.5-.1-13-.3-19.2-.4-6.2-.2-12.3-.4-18-.8-2.9-.2-5.6-.3-8.3-.5-2.7-.2-5.3-.4-7.8-.5-2.5-.2-4.9-.3-7.1-.5-2.3-.2-4.4-.4-6.4-.6-4-.4-7.6-.7-10.4-1-2.9-.3-5.2-.6-6.7-.7-1.7-.4-2.5-.5-2.5-.5z"/><path class="st3" d="M426.1 203.9c9.5-2.7 19-5.5 28.4-8.5 11.2-3.6 23.3-6.3 35-4.7-4.1-22.4-8.7-45.7-22.7-63.7-9.4-12-23.2-20.1-36.9-26.8-14.9 25.7-23.6 48.7-35.7 78.8-5 12.5-8.1 24.5-12.4 37.2 8.3-2.3 16.7-4.6 25-7 1.5-.4 3.1-.9 4.6-1.3"/><path class="st3" d="M430.4 100.3c-.5-1.1.9-2.3 2.1-2.1 1.2.1 2.2 1 3.1 1.8 1.7 1.3 3.7 2.5 5.8 3.1 2 .5 4.1-.1 6.1.7 3.4 1.3 4.9 5.9 7.9 8 3.8 2.7 9.4 2.6 12.3 6.6 2 2.7 3.8 5.6 6 8.1 1.9 2.2 5.7 3.8 6.7 6.5 1.1 2.7.8 6 1.8 8.9 1.2 3.1 2.8 6 4.8 8.6.7.8 1.4 1.7 1.7 2.7.3 1 .2 2 .2 3-.1 4.6 1 9.1 3.2 13.1.7 1.3 1.6 2.6 2 4 .4 1.5.4 3.1.3 4.7-.2 3.6-.3 7.2-.5 10.8 0 .3 0 .6-.2.9-.3.4-.8.6-1.3.6-1.2.2-2.4.3-3.7.3"/><path d="M434.9 103.6c-1 3-2 5.9-3.1 8.8-1.1 2.9-2.3 5.8-3.5 8.7-1.2 2.9-2.5 5.8-3.8 8.6-1.3 2.8-2.7 5.6-4.2 8.4l-1.1-.6 9-16 4.6-8c1.5-2.7 3.1-5.4 5.2-7.8l1.5-1.7.1 2.3.1 1.4v1.4l-.1 1.3-.2 1.3c-.2.9-.4 1.8-.6 2.6-.2.9-.5 1.7-.8 2.5-1.2 3.3-2.9 6.4-4.5 9.5l-1.7-1c1.9-2.8 3.7-5.6 5.6-8.3l2.8-4.2 1.4-2.1c.2-.3.5-.8.9-1.1.4-.4 1-.8 1.8-.8h.6l.2.6c.4 1 .5 2.1.4 3.1-.1 1-.4 2-.8 2.9-.8 1.8-1.7 3.3-2.6 4.9l-5.4 9.5-5.4 9.4-5.5 9.4-1.2-.7c3.6-6.3 7.9-12.2 12.4-17.8l6.7-8.5c2.2-2.8 4.4-5.8 7.2-8.1-2.7 2.4-4.7 5.4-6.8 8.3l-6.4 8.8c-2.1 2.9-4.2 5.8-6.2 8.8-2 3-3.9 6-5.6 9.2l-1.2-.7 5.2-9.5 5.3-9.5 5.3-9.5c.9-1.6 1.8-3.2 2.5-4.7.3-.8.6-1.6.7-2.4.1-.8 0-1.5-.3-2.2l.9.6c-.1 0-.2.1-.4.3-.2.2-.4.5-.6.8l-1.4 2.1-2.9 4.1c-1.8 2.8-3.7 5.6-5.6 8.3l-1.7-1c1.6-3 3.3-6 4.4-9.2.3-.8.6-1.6.8-2.4l.6-2.4.2-1.2.1-1.2v-2.4l1.6.5c-1.9 2.2-3.5 4.8-5.1 7.5l-4.6 7.9-9.4 15.8-1.1-.6c1.5-2.7 2.9-5.5 4.3-8.3 1.4-2.8 2.8-5.6 4.1-8.4 1.3-2.8 2.6-5.7 3.8-8.6 1.2-2.9 2.4-5.8 3.5-8.7zm32.7 24.7c-.9 1.4-1.7 2.8-2.6 4.3-.9 1.4-1.8 2.8-2.8 4.2-1.9 2.7-3.9 5.4-5.9 8.1-4 5.3-8.3 10.4-12.6 15.6l-1-.9c4.2-4.4 8.4-8.9 12.7-13.2l6.4-6.6 3.2-3.3c.5-.5 1.1-1.1 1.8-1.7.7-.5 1.6-1 2.7-1h1l-.1 1c-.1 1.2-.7 2.2-1.3 3-.6.8-1.2 1.5-1.8 2.2l-3.5 4.3c-2.4 2.8-4.7 5.7-7.1 8.5l-1.4-1.4c2.6-2.2 5.2-4.3 7.8-6.3 1.3-1 2.7-2 4-3l1-.7.5-.4.3-.2.4-.2c.5-.3 1-.4 1.6-.4.3 0 .7 0 1.1.3.2.1.4.4.5.6.1.3.1.5.1.7v.3l-.3.2c-4 3.7-8.1 7.4-12.3 10.9-4.2 3.5-8.5 6.9-12.8 10.2l-.8-1c4.8-3.4 9.6-6.9 14.4-10.2l7.2-5.1c1.2-.8 2.4-1.7 3.7-2.4 1.3-.7 2.7-1.3 4.2-1.4-1.5.2-2.8.8-4.1 1.6-1.2.8-2.4 1.7-3.6 2.6l-7 5.3c-4.7 3.6-9.4 7.1-14.1 10.6l-.8-1c4.3-3.4 8.5-6.9 12.5-10.5 2-1.8 4.1-3.6 6.1-5.4 2-1.8 4-3.7 6-5.6l-.3.6s.1.2.2.3h-.1c-.2 0-.6.1-.8.2l-.2.1-.3.2-.5.4-1 .7c-1.3 1-2.7 2-4 3-2.6 2-5.2 4.2-7.7 6.3l-1.4-1.4c2.4-2.8 4.7-5.7 7.1-8.5l3.6-4.2c1.2-1.4 2.5-2.8 2.6-4.1l.9 1c-.5 0-1 .2-1.5.6-.5.4-1 .9-1.6 1.5l-3.2 3.3-6.4 6.5c-4.3 4.4-8.6 8.7-13 13l-1-.9 6.5-7.6 3.2-3.8 3.2-3.8c2.1-2.6 4.2-5.2 6.2-7.8 1-1.3 2-2.7 3-4 1.3-1.4 2.3-2.8 3.2-4.2zm16.1 36.5c-4.2 2.9-8.6 5.6-13 8.2-4.4 2.6-8.9 5.1-13.4 7.5l-.6-1.4 11.4-4.3c3.8-1.4 7.6-2.8 11.5-4.2l.7-.3.4.6c.2.3.3.7.4 1 0 .4-.1.7-.2.9-.2.5-.6.8-.9 1.1-.2.1-.3.3-.5.4-.2.1-.4.2-.5.3l-.9.5-3.6 2.1-7.1 4.1c-4.7 2.8-9.5 5.5-14.3 8.2l-.7-1.5c5.7-2 11.4-4.2 17-6.5l4.2-1.8 4.2-1.8c1.4-.6 2.9-1.1 4.4-1.5 1.5-.3 3.1-.4 4.6-.1-1.5-.2-3 0-4.5.4s-2.8 1-4.2 1.7c-2.7 1.4-5.4 2.8-8.2 4.1-5.5 2.6-11.1 5-16.8 7.1l-.7-1.5c4.7-2.8 9.4-5.6 14.2-8.4l7.1-4.2 3.6-2.1c.6-.4 1.3-.7 1.6-1 .2-.2.4-.4.4-.5 0-.1 0 0 0 0l1.1.3c-3.8 1.4-7.7 2.7-11.5 4.1l-11.5 4-.6-1.4a886 886 0 0 0 13.7-7c4.3-2.1 8.7-4.6 13.2-7.1zM400 179.9c.7-.5 1.3-.9 2-1.4.6-.5 1.3-1 1.9-1.5 1.3-1 2.5-2 3.7-3.1 2.4-2.1 4.7-4.3 7-6.6 4.6-4.5 9-9.1 13.7-13.5l1.1 1.2c-1.7 1.6-3.1 3.6-4.5 5.6-1.4 2-2.6 4.1-4.2 6.2-.7 1-1.6 2-2.5 2.9-.9.9-1.7 1.8-2.6 2.6-1.6 1.8-3.1 3.6-3.7 5.8l-1.5-1.1c2.6-1.6 5.1-3.4 7.3-5.6 1.1-1.1 2.2-2.2 3.2-3.4l3.2-3.4c4.3-4.6 8.6-9.2 13.2-13.5l1.2 1.1c-3.9 4.8-7.8 9.5-11.7 14.2l-1.5 1.8c-.5.6-.9 1.2-1.4 1.8-.9 1.2-1.8 2.5-2.6 3.8-.9 1.3-1.7 2.6-2.5 3.8-.4.6-.8 1.3-1.2 1.9-.4.7-.8 1.3-1.1 2 .3-.7.6-1.4 1-2.1.4-.7.7-1.4 1.1-2 .8-1.3 1.5-2.7 2.3-4l2.4-3.9c.4-.6.8-1.3 1.3-1.9l1.4-1.8c3.7-4.9 7.5-9.7 11.2-14.6l1.2 1.1c-4.5 4.4-8.7 9-12.9 13.7l-3.2 3.5c-1.1 1.2-2.1 2.3-3.3 3.4-2.3 2.3-4.9 4.2-7.6 5.9l-2.2 1.3.7-2.4c.4-1.3 1-2.5 1.7-3.6s1.6-2.1 2.4-3l2.6-2.6c.9-.9 1.6-1.7 2.4-2.7 1.5-1.9 2.8-4 4.2-6 .7-1 1.4-2 2.2-3 .4-.5.8-1 1.2-1.4.4-.5.9-.9 1.4-1.3l1.1 1.2c-2.4 2.1-4.7 4.3-7 6.5s-4.7 4.4-7 6.5c-2.4 2.2-4.8 4.3-7.3 6.3-1.3 1-2.5 2-3.8 2.9-.6.5-1.3.9-2 1.3-.6.3-1.3.7-2 1.1zm28.9 4.9c3.7-3 7.4-6.1 11-9.2 1.8-1.6 3.6-3.1 5.4-4.7 1.8-1.6 3.5-3.2 5.3-4.8l5.2-4.9-4 5.9-4.6 6.8-4.7 6.8-.6-1.5c.3.1.6 0 1-.2s.8-.5 1.1-.9l2.4-2.5c1.6-1.7 3.3-3.3 5.1-4.9 3.4-3.2 7-6.2 10.7-9l5.5-4.2-4.2 5.4c-3.9 5-7.9 9.9-12 14.7-2.1 2.4-4.2 4.8-6.3 7.1-2.1 2.3-4.3 4.6-6.6 6.9l6-7.3 5.9-7.4c1.9-2.5 3.9-5 5.8-7.5s3.8-5 5.7-7.6l1.3 1.3c-3.6 2.9-7.1 5.9-10.5 9.1-1.7 1.6-3.4 3.2-5 4.8l-2.5 2.5c-.5.4-.9.9-1.6 1.2-.6.4-1.5.6-2.4.4l-1.4-.3.8-1.1 4.8-6.8 4.8-6.7 1.2 1c-3.6 3.2-7.3 6.2-11.1 9.2-1.9 1.5-3.8 2.9-5.7 4.3-1.8 1.4-3.8 2.8-5.8 4.1z"/><path class="st4" d="M452.7 157.5c-.4-10.4-7.7-20.8-17.9-22.9-.7-.3-1.5-.5-2.2-.6-.4-.1-.8-.1-1.2-.2-.5-.2-.9-.5-1.4-.7-.4-.2-.9-.2-1.3-.3-2.7-.5-5.1-2-7.9-2.4-2.8-.4-5.7-.3-8.4.3-1.3.3-2.6.7-3.8 1.1-7.9 3-14.4 9.6-17.3 17.5-2.9 8-2.1 17.2 2.1 24.5 4.2 7.5 10.1 13.6 17.9 17 1.6.7 4.8 2.1 6.2.5 1.2-1.5 1.4-5 2-6.8 1.7-5.7 3.7-11.3 6-16.8.1-.2.2-.4.3-.5.2-.1.4-.1.6-.2 1-.1 2-.1 3-.2.1 0 .2 0 .4-.1l-4.1 26c5.8.6 11.1-3.2 15.1-7.4 7.1-7.3 12.3-17.4 11.9-27.8z"/><path class="st5" d="M436.1 133.4c2.3-2.7 5.7-4.1 8.5-6.4 16.1-13.3 29.5-21.7 48.6-29.3 2-.8 3.8-2.3 4.9-4.2s1.1-4.6-.6-6c-2.9-2.3-11.3 5.4-14.5 7.2-16.2 9.1-24.3 14.1-39.6 24.6-4.5 3.1-9.3 6-13.8 9.1-2.3 1.6-4.5 3.3-6.6 5.1-1 .9-2 1.9-3 2.9-.4.5-.8 1-1.3 1.4-.4.3-1 .6-1.3 1-.2.4-.5.8-.6 1.2-.3 1.6 1.6 3.9 2.9 4.6 1.6.9 3.6 1 5.4.9 2.1-.1 5.7 0 7.2-1.8.9-1.2.2-3.3.6-4.8.7-2 1.8-3.9 3.2-5.5z"/><path class="st6" d="M434.7 134.6c10.2 2 17.5 12.4 17.9 22.9.4 10.4-4.8 20.5-12.1 28-4 4.2-9.4 7.9-15.1 7.4m.3-61.1c-4.2-1.6-9-2-13.4-1-1.3.3-2.6.7-3.8 1.1-7.9 3-14.4 9.6-17.3 17.5s-2.1 17.2 2.1 24.5c4.2 7.5 10.1 13.6 17.9 17 2.2.9 4.6 1.7 6.8.8"/><path class="st6" d="M435.4 140.5c-1.1 3.9-6 5.1-10 5.2-1.9.1-3.8 0-5.4-.9-2.3-1.3-3.4-4.5-2.4-7"/><path class="st6" d="M433 143.2c-.7-3.5.8-7.1 3.1-9.8 2.3-2.7 5.7-4.1 8.5-6.4 16.1-13.3 29.5-21.7 48.6-29.3 2-.8 3.8-2.3 4.9-4.2s1.1-4.6-.6-6c-2.9-2.3-11.3 5.4-14.5 7.2-16.2 9.1-24.3 14.1-39.6 24.6-8.3 5.7-19.2 11.5-25.3 19.5"/><path class="st7" d="M421.4 321.6c-9.7-29.3-12.4-60.9-8.2-91.4-.8 0-1.6.1-2.4.1-33.7 1.6-67.4 3.2-101 4.8-23.2 1.1-46.9 2.1-69.1-4.8-.4-.1-.8-.3-1.2-.4 2.6 20.4 1.6 41.2-3.2 61.2-7.4 30.4-23.3 59.3-23.5 90.6-.1 16.7 4.3 33 9.6 48.8 6.8 20.6 25.7 40.9 43 53.7 17.7 13 37 16.7 58.5 16.8 19.5 0 34 .2 52.7-7.4 2.4-1 11.9-7.5 14.3-9.5 16.3-14.2 29.8-24.8 39.6-44.8 9.8-20 14.6-43.1 9.3-65.1-4.3-18.2-12.6-35-18.4-52.6z"/><path class="st1" d="M433.1 169.5L422 216.6c-2.2 9.4-4.5 19-4.5 28.7 0 6.7 1 13.3 2.1 20 5.5 34.7 18.8 65.6 26.4 99.5 2.3 10.1 3.8 19.7 2.9 30-2.5 28.4-15.2 55.8-35.2 76.1-22.4 22.6-49.7 36.3-63.3 65-11.6 24.5-7.6 38.3-6.2 67.5 1 21.8 25.5 54.7 50.5 62.2 13.5 4.1 26.8 9.2 41.2 10.2 7.8.5 8.4 5.6 6.3 9-1.3 2.1-4.4 2.9-7.2 3.5-46.9 9.6-93.3 12.7-141.6 11.5-27.4-.7-77.5-4.8-88.5-12.2-3.8-2.6-4.2-6.1-.7-8.8 2.2-1.7 7.5-1.6 10.5-1.9 29.6-3.6 60.2-12.7 76.1-33.5 22.5-29.3 29-91.3 5-121.5-5.8-7.4-13.8-12.7-21.6-17.9-24.7-16.3-48.5-31.7-60.7-60.3-14.5-33.8-17-79.1-3.6-113.5 3-7.7 6.8-15 9.8-22.7 16.2-42.3 10.1-92.3-5.3-134.1 72.2-2.2 146.5-1.6 218.7-3.9z"/><path d="M272.2 666.5s1.5.4 4.1 1.2c1.3.4 2.9.8 4.7 1.2.9.2 1.9.5 2.9.7 1 .2 2.1.4 3.2.7 2.2.5 4.7.9 7.3 1.3 1.3.2 2.6.4 4 .6 1.4.2 2.8.4 4.2.5 2.9.3 5.8.6 8.8.7 3 .2 6.1.2 9.1.3 3.1-.1 6.1 0 9.1-.2 3-.1 6-.4 8.8-.7 1.4-.1 2.8-.4 4.2-.5 1.4-.2 2.7-.3 4-.6 2.6-.4 5.1-.8 7.3-1.3 1.1-.2 2.2-.4 3.2-.6 1-.2 2-.5 2.9-.7 1.8-.4 3.4-.8 4.7-1.2 2.6-.7 4.1-1.1 4.1-1.1s-1.4.6-4 1.5c-1.3.5-2.8 1-4.6 1.5-.9.3-1.9.6-2.9.9-1 .3-2.1.5-3.2.8-1.1.3-2.3.6-3.5.9-1.2.3-2.5.5-3.8.8-1.3.3-2.7.5-4 .7-1.4.2-2.8.5-4.2.6-2.9.3-5.9.7-8.9.8-3 .2-6.2.2-9.3.3-3.1-.1-6.2-.1-9.3-.4-3.1-.1-6-.6-8.9-.9-1.4-.2-2.9-.4-4.2-.7-1.4-.2-2.7-.4-4-.7-1.3-.3-2.6-.5-3.8-.8-1.2-.3-2.4-.6-3.5-.9-1.1-.3-2.2-.6-3.2-.9-1-.3-2-.6-2.9-.9-1.8-.6-3.4-1.1-4.6-1.6-2.3-.7-3.8-1.3-3.8-1.3zm28.5-23.6s.8.1 2.1.2c1.3.2 3.2.4 5.5.6 1.1.1 2.4.2 3.7.3 1.3.1 2.7.2 4.1.3 1.4.1 2.9.1 4.4.2 1.5.1 3 0 4.6 0 1.5 0 3.1 0 4.6-.1 1.5-.1 3-.1 4.4-.2 1.4-.1 2.8-.2 4.1-.3 1.3-.1 2.6-.2 3.7-.4 2.3-.2 4.2-.5 5.5-.7 1.3-.2 2.1-.3 2.1-.3s-.7.2-2 .7c-.6.2-1.4.4-2.4.7-.9.2-1.9.5-3.1.7-1.1.3-2.4.5-3.7.7-1.3.2-2.7.4-4.2.6-1.5.1-2.9.3-4.5.4-1.5.1-3.1.1-4.6.2-1.6 0-3.1 0-4.6-.1-1.5 0-3-.2-4.5-.3-1.4-.2-2.8-.3-4.2-.5-1.3-.2-2.6-.4-3.7-.7-1.1-.2-2.2-.5-3.1-.7-.9-.2-1.7-.4-2.4-.6-1.1-.4-1.8-.7-1.8-.7zm-88 37.6s.8.3 2.4.7c.4.1.8.3 1.3.4.5.1 1 .2 1.6.4 1.2.3 2.5.6 3.9.9 1.5.3 3.1.6 4.9 1 1.8.3 3.8.6 5.8 1 2.1.3 4.3.6 6.7 1 2.4.3 4.8.6 7.4 1 5.2.6 10.8 1.3 16.7 1.9 5.9.6 12.2 1.1 18.7 1.7 6.5.5 13.2 1.1 20 1.4 6.8.2 13.7.2 20.7.1 6.9-.1 13.8-.4 20.7-.8 6.8-.4 13.5-.8 20-1.3s12.7-1 18.7-1.6c5.9-.6 11.5-1.2 16.7-1.9 2.6-.3 5.1-.6 7.4-1 2.4-.3 4.6-.6 6.7-.9 4.2-.6 7.8-1.2 10.8-1.7 3-.5 5.4-.9 7-1.2 1.6-.3 2.5-.4 2.5-.4s-.8.2-2.4.5c-1.6.3-3.9.9-6.9 1.4-3 .6-6.6 1.3-10.8 2-4.2.7-8.9 1.5-14 2.2-5.2.7-10.8 1.5-16.7 2.2-5.9.7-12.2 1.4-18.7 1.9s-13.2 1-20 1.4c-6.8.4-13.8.8-20.7.9-7 .1-13.9 0-20.8-.2-6.9-.3-13.6-.9-20.1-1.5-13-1.2-25-2.7-35.4-4.2-2.6-.4-5-.8-7.4-1.1-2.3-.4-4.6-.8-6.6-1.2-2.1-.4-4-.8-5.8-1.2-1.8-.4-3.4-.8-4.9-1.1-1.5-.3-2.8-.7-3.9-1.1-.6-.2-1.1-.3-1.6-.5s-.9-.3-1.3-.5c-1.8-.3-2.6-.6-2.6-.6zM224 183.9s.3.7.8 2.1c.3.7.6 1.5 1 2.5.2.5.4 1 .7 1.6.2.6.4 1.2.7 1.9.5 1.3 1 2.8 1.6 4.5.5 1.7 1.1 3.5 1.7 5.4.6 2 1.1 4.1 1.8 6.4.6 2.3 1.1 4.7 1.7 7.3 2.1 10.4 3.8 23.2 3.4 37.9-.2 7.4-.8 15.2-2.1 23.4-.6 4.1-1.5 8.2-2.5 12.5-1 4.2-2.2 8.5-3.6 12.8-2.7 8.7-5.9 17.6-8.9 26.8-3.1 9.2-6.1 18.8-8.1 28.9-1.1 5-1.6 10.2-2 15.5-.1 2.6-.2 5.2-.1 7.9.1 2.6.2 5.3.5 8 1.1 10.7 3.8 21.5 7.2 32.2.4 1.3.9 2.7 1.3 4 .2.7.4 1.4.7 2l.7 2c.5 1.4 1.1 2.6 1.6 3.9.5 1.3 1.2 2.5 1.8 3.8 2.6 5 5.7 9.8 9.2 14.4 7 9.2 15.3 17.5 24.4 24.9 1.1.9 2.3 1.8 3.5 2.7l.9.7.2.2.2.1.5.3 1.8 1.3c1.2.9 2.5 1.6 3.7 2.4 1.2.8 2.5 1.4 3.8 2.2 5.2 2.7 10.7 4.9 16.4 6.4 5.7 1.6 11.6 2.5 17.5 3.1 5.9.6 11.9.6 17.9.6 6 0 12 0 18-.4 5.9-.4 11.8-1.3 17.6-2.7 2.9-.7 5.7-1.6 8.5-2.6.7-.2 1.4-.5 2.1-.8.7-.3 1.4-.5 2-.8 1.2-.5 2.5-1.4 3.7-2.1 2.5-1.6 4.9-3.3 7.3-5 .6-.4 1.2-.9 1.8-1.3.6-.4 1.1-.9 1.7-1.4l3.4-2.9c4.5-3.9 9-7.7 13.2-11.7 4.2-4 8.2-8.2 11.8-12.7 3.6-4.5 6.6-9.3 9.3-14.3l1-1.9.9-1.9.9-1.9.8-1.9.8-1.9.8-2 .8-2 .7-2c3.7-10.5 5.7-21.5 5.8-32.2 0-5.4-.4-10.7-1.4-15.8l-.4-1.9-.2-.9-.2-1c-.3-1.3-.6-2.6-1-3.8-.7-2.5-1.4-5-2.2-7.4-3.2-9.8-7-19.1-10.4-28.3-1.7-4.6-3.4-9.1-4.7-13.6-.7-2.3-1.4-4.5-2-6.7-.6-2.3-1.1-4.5-1.7-6.7-2.1-8.8-3.6-17.4-4.4-25.7-.2-2.1-.3-4.1-.5-6.1-.1-1-.2-2-.2-3-.1-1-.1-2-.1-3-.1-2-.1-3.9-.2-5.8v-5.6c.1-14.7 1.8-27.5 3.9-37.9 2-10.4 4.6-18.3 6.2-23.7 1.9-5.3 2.9-8.2 2.9-8.2s-1 2.9-2.8 8.2c-1.6 5.4-4 13.4-5.8 23.8-1.9 10.4-3.4 23.1-3.3 37.8 0 1.8 0 3.7.1 5.6l.3 5.7c.1 1 .1 2 .2 2.9l.3 3c.2 2 .3 4 .6 6.1 1 8.2 2.5 16.7 4.6 25.4.6 2.2 1.2 4.4 1.7 6.6.7 2.2 1.4 4.4 2.1 6.7 1.4 4.4 3.1 8.9 4.8 13.5 3.5 9.1 7.4 18.4 10.7 28.3.8 2.5 1.6 5 2.3 7.5.4 1.3.7 2.6 1 3.8l.2 1 .2 1 .4 2c1.1 5.3 1.6 10.8 1.6 16.3 0 11-2.1 22.3-5.8 33.1l-.7 2-.8 2-.8 2-.9 2-.9 2-.9 1.9-.9 2-1 1.9c-2.7 5.2-5.8 10.1-9.5 14.8-3.6 4.6-7.7 9-12 13-4.3 4.1-8.8 8-13.3 11.8l-3.4 2.9c-.5.5-1.2 1-1.8 1.5-.6.5-1.2.9-1.8 1.4-2.4 1.8-4.9 3.5-7.5 5.1-1.3.8-2.5 1.6-4.1 2.3-.8.3-1.4.6-2.2.9-.7.3-1.4.6-2.1.8-2.9 1-5.8 1.9-8.7 2.7-5.9 1.5-12 2.4-18.1 2.8-6.1.4-12.1.5-18.2.5-12.1.1-24.4-.6-36.2-3.9-5.9-1.6-11.6-3.9-17-6.7-1.3-.8-2.7-1.5-4-2.3-1.3-.8-2.6-1.6-3.8-2.5l-1.8-1.3-.5-.3-.3-.2-.2-.2-.9-.7c-1.2-.9-2.4-1.8-3.5-2.8-9.3-7.5-17.7-16.1-24.8-25.4-3.5-4.7-6.7-9.6-9.4-14.8-.6-1.3-1.3-2.6-1.9-3.9-.6-1.3-1.2-2.7-1.7-4l-.7-2c-.3-.7-.5-1.4-.7-2.1-.4-1.4-.9-2.7-1.3-4.1-3.4-10.8-6.2-21.8-7.2-32.7-.3-2.7-.4-5.5-.5-8.2-.1-2.7.1-5.4.2-8.1.4-5.4 1.1-10.6 2.2-15.7 2-10.3 5.2-19.9 8.4-29.1 3.2-9.2 6.4-18.1 9.2-26.7 1.4-4.3 2.6-8.5 3.7-12.7 1-4.2 1.9-8.3 2.6-12.3 1.4-8.1 2.2-15.9 2.4-23.2.5-14.7-1-27.4-2.9-37.8-2-10.3-4.4-18.3-6.3-23.6-.2-.7-.4-1.3-.6-1.9-.2-.6-.4-1.1-.6-1.6-.4-1-.7-1.9-1-2.5-.6-1.7-.9-2.4-.9-2.4z"/><path d="M236.7 227.1s.7.1 1.9.4c.6.1 1.4.3 2.3.5.9.2 1.9.4 3.1.6 2.3.4 5.1.9 8.3 1.3 3.2.4 6.8.8 10.8 1.1 4 .3 8.3.4 12.8.6 4.6.1 9.4.3 14.4.4 5 .1 10.2 0 15.4-.3 2.6-.1 5.3-.3 7.9-.5 2.7-.2 5.3-.4 8-.6 2.7-.2 5.3-.5 8-.7 2.7-.2 5.3-.4 7.9-.6 5.2-.3 10.4-.7 15.4-1 2.5-.2 5-.3 7.4-.4 2.4-.1 4.8-.2 7-.3 4.6-.2 8.9-.3 12.9-.4 4-.1 7.7-.1 10.9-.2 3.3 0 6.1-.1 8.4 0 2.3 0 4.2 0 5.4.1h1.9v.3s-.7.1-1.9.2-3.1.3-5.4.6c-2.3.3-5.2.5-8.4.8-3.2.3-6.9.6-10.9.9-4 .3-8.3.6-12.9.8-2.3.1-4.6.3-7 .4-2.4.1-4.9.2-7.4.3-5 .2-10.2.3-15.4.5-2.6.1-5.3.1-7.9.2-2.7 0-5.3.1-8 .1s-5.3.1-8 .1c-2.7.1-5.3.2-7.9.3-5.2.2-10.4.6-15.4 1-2.5.2-5 .3-7.4.4-1.2.1-2.4.1-3.6.1h-3.5c-4.6 0-9-.3-13-.7-4-.4-7.7-1-10.9-1.6-1.6-.3-3.1-.6-4.5-1-1.4-.3-2.6-.6-3.8-1-1.1-.4-2.1-.7-3-.9-.9-.3-1.6-.6-2.2-.8-1.2-.4-1.8-.7-1.8-.7l.1-.3z"/><path class="st6" d="M388.3 356.4c5.1-4.1 8.3-17.3 8.7-23.6.6-10.8 1.1-21.6 1.7-32.3.1-2.3.2-4.8-.8-6.8-1.8-3.7-6.4-4.9-10.4-5.7-9-1.7-18.1-3-27.3-4-8.1-.8-15.3 1.9-23.1 4.5-2.4.8-5 1.9-6.4 4-1 1.5-1.3 3.5-1.5 5.3-1.3 10-2.7 20.1-2.6 30.2 0 5.9.6 12.1 4.1 16.7 4.5 6 12.5 7.9 19.9 9.4 9.7 2 19.3 3.9 29 5.9 1.9.4 4 .8 5.7-.1 1.3-.7 2.2-2.1 3-3.5z"/><path d="M355.7 286.1s.1.3.2.8.4 1.2.6 2.2c.2.9.5 2.1.7 3.4.2 1.3.4 2.9.6 4.5.3 3.3.5 7.2.6 11.4.1 2.1.1 4.2.3 6.4.1 2.2.3 4.4 1 6.4.3 1 .8 1.9 1.5 2.7.7.7 1.6 1.2 2.6 1.6 2 .7 4.1 1.2 6.1 1.8 4 1 7.8 2 11 2.6 3.3.7 6 1.2 7.9 1.5 1.9.3 3 .5 3 .5s-1.1-.1-3-.3c-1.9-.2-4.7-.6-8-1.2s-7.1-1.3-11.1-2.3c-2-.5-4.1-1-6.2-1.7-1.1-.4-2.1-.9-3-1.8-.8-.8-1.4-1.9-1.8-3-.7-2.2-.8-4.5-.9-6.7-.1-2.2-.2-4.3-.2-6.4-.1-4.2-.1-8-.3-11.3-.1-1.7-.2-3.2-.4-4.5-.2-1.3-.3-2.5-.5-3.5s-.3-1.7-.4-2.2c-.3-.6-.3-.9-.3-.9zm4 38.3s.1 0 .3.2c.1.2.1.6-.2 1-.2.4-.7.8-1.1 1.2-.5.4-1 .9-1.6 1.4-1.2 1-2.5 2.1-4 3.3-1.5 1.2-3.1 2.5-4.7 3.7-1.6 1.2-3.2 2.5-4.7 3.6-1.5 1.2-3 2.2-4.2 3.1-1.2.9-2.3 1.6-3 2.1-.7.5-1.2.8-1.2.8s.4-.3 1-.9c.7-.6 1.6-1.4 2.8-2.4 1.2-1 2.5-2.1 4-3.3 1.5-1.2 3.1-2.5 4.7-3.7 1.6-1.2 3.2-2.5 4.7-3.6 1.5-1.2 3-2.2 4.2-3.1.6-.5 1.2-.9 1.7-1.2.5-.4 1-.6 1.2-1 .3-.3.4-.7.3-.9 0-.3-.2-.3-.2-.3z"/><path class="st6" d="M285.8 413.6c-1.9 2.9-2.6 7.1-3.3 10.1-1.7 7.5-3.7 14.9-5.9 22.2-.9 2.9-1.9 5.8-2 8.8-.2 2.9.4 5.5 1.1 8.1 2.3 8.8 6.3 17.4 13.4 19.7 2.4.8 5 .8 7.5.9 11.7.8 22.6 5.6 34.3 6.4 2.7.2 5.5.1 8.2-1.5 4.8-2.9 7.4-9.8 9.1-16.1 2.5-9.5 4-19.2 7.5-28.4 1.2-3 2.6-6.4 1.9-9.3-.7-3.1-13.5-11.1-17.4-14-3.3-2.4-8.2-3.1-12-4-6.3-1.4-12.6-2.4-19-3.3-5.6-.8-11.8-2.5-17.4-2.7-2.8-.2-4.7 1.1-6 3.1z"/><path d="M285.1 414.2s.8 1 2.2 2.7c1.4 1.7 3.4 4.2 5.8 7.1 2.4 2.9 5.1 6.5 8.6 9.6 1.8 1.5 3.8 2.9 6 3.8 2.3.9 4.7 1.3 7.2 1.5 2.5.2 5 .1 7.5.1s4.9-.1 7.3-.1c4.7-.1 9.2 0 12.9-.4 3.8-.3 6.9-.8 9-1.4 2.1-.5 3.4-.9 3.4-.9l-.9.3c-.6.2-1.4.5-2.4.8-2.1.6-5.2 1.4-9 1.7-3.8.4-8.2.5-13 .7-2.4.1-4.8.1-7.3.2s-5 .1-7.6 0c-2.6-.2-5.1-.6-7.5-1.6-2.4-.9-4.5-2.4-6.3-4-1.8-1.6-3.3-3.3-4.7-5-1.4-1.7-2.6-3.3-3.8-4.8-2.3-3-4.2-5.6-5.5-7.3-1.2-2-1.9-3-1.9-3zm20.4 23.7s-1 2.4-2.5 6.1c-.8 1.8-1.6 4-2.5 6.2-.9 2.3-1.8 4.7-2.7 7.2-.9 2.5-1.8 4.9-2.6 7.2s-1.6 4.5-2.2 6.3c-1.3 3.7-2.1 6.2-2.1 6.2s.1-.6.4-1.8c.3-1.1.6-2.7 1.2-4.6.5-1.9 1.1-4.1 1.9-6.5l1.2-3.6c.4-1.2.9-2.5 1.3-3.7.9-2.5 1.9-4.9 2.9-7.2s1.9-4.4 2.8-6.1c.8-1.8 1.6-3.2 2.1-4.3.5-.8.8-1.4.8-1.4z"/><path class="st6" d="M409.1 353.3c.4.4.8.7 1.2 1.2.9 1.2 1.5 2.6 2.1 4 4.4 11.2 4.7 19.8 6.2 31.5.3 2.7.6 5.5-.3 8-1.4 4-5.4 6.4-8.4 9.4-4.2 4.1-6.6 9.6-9.8 14.5s-7.7 9.6-13.5 10.3c-2.3.3-4.7-.1-7-.4-5.1-.8-10.3-1.6-15.4-2.4-5.9-.9-12.1-2-16.9-5.5-7.1-5.3-9.5-14.7-11.3-23.3-1.5-6.9-3-14.4-.1-20.8 1.3-2.9 3.4-5.4 5.4-7.9 3.8-4.5 7.6-8.9 11.3-13.4 12-14.2 35.4-13.4 51.3-7.7 1.9.5 3.7 1.3 5.2 2.5z"/><path d="M367.9 353.8s.4.9 1.1 2.4c.7 1.5 1.8 3.7 3 6.4s2.6 5.7 4.1 9.1c.7 1.7 1.5 3.4 2.3 5.1.8 1.7 1.5 3.5 2.3 5.3.8 1.7 1.7 3.4 3 4.6 1.3 1.2 3 2 4.7 2.4 1.7.5 3.4.8 5.1 1.2 1.6.3 3.2.7 4.6 1 2.8.6 5.2 1.2 6.9 1.5 1.7.4 2.6.6 2.6.6s-1-.2-2.6-.4c-1.7-.3-4.1-.7-6.9-1.2-1.4-.3-3-.5-4.6-.8-1.6-.3-3.4-.5-5.2-1-1.8-.5-3.6-1.2-5.1-2.6-1.5-1.4-2.5-3.1-3.3-4.9-.8-1.8-1.5-3.6-2.3-5.3-.7-1.8-1.5-3.5-2.2-5.2-1.4-3.3-2.7-6.5-3.8-9.2-1.1-2.7-2-4.9-2.6-6.5-.7-1.6-1.1-2.5-1.1-2.5zm15.5 34s-.4.5-1 1.4c-.6.9-1.5 2.1-2.7 3.5-1.1 1.4-2.5 3.1-3.9 4.9-1.5 1.8-3.1 3.6-4.7 5.5-1.6 1.8-3.3 3.7-4.9 5.3-1.6 1.7-3.1 3.2-4.4 4.5-1.3 1.3-2.4 2.4-3.2 3.1-.8.7-1.2 1.2-1.2 1.2s.4-.5 1.1-1.3c.7-.8 1.7-2 2.9-3.4 2.4-2.8 5.7-6.4 8.9-10.1 3.2-3.7 6.5-7.3 8.9-10.1 1.2-1.4 2.3-2.5 3-3.3l1.2-1.2z"/><path class="st6" d="M260.7 356.1c-1.5 4.6-.1 9.7 1.3 14.3 3.6 11.8 7.7 24.5 17.6 31.9 7.1 5.3 16.1 7.1 24.8 8.7 2.6.5 5.4 1 7.8-.1 2.3-1 3.8-3.2 5.2-5.3 4.2-6.4 8.4-12.7 12.5-19.1 3.3-5 6.7-10.4 6.4-16.4-.2-4.3-2.3-8.4-4.3-12.2-3.1-5.9-6.3-11.7-9.4-17.6-.9-1.7-1.8-3.4-3.3-4.7-1.7-1.5-4-2.3-6.3-2.9-9.4-2.6-22.5-6.9-31.1-.6-6.7 5-18.6 16-21.2 24z"/><path d="M268.5 359.5s.1.2.4.6c.3.4.7.9 1.4 1.5s1.5 1.2 2.6 1.8c1.1.6 2.4 1.1 3.8 1.8 1.4.6 2.9 1.4 4.4 2.5 1.5 1.1 2.8 2.3 4.3 3.5 1.5 1.1 3.2 2.1 5.1 2.2 1.9.1 3.8-.7 5.3-2 1.6-1.2 2.9-2.8 4-4.4 1.2-1.6 2.3-3.3 3.3-4.9 2.2-3.2 4.2-6.1 6-8.6 1.8-2.5 3.3-4.6 4.3-6 1.1-1.5 1.7-2.3 1.7-2.3s-.5.9-1.5 2.4-2.3 3.7-4 6.3c-1.7 2.6-3.6 5.6-5.7 8.8-1.1 1.6-2.1 3.3-3.3 4.9-1.2 1.6-2.5 3.3-4.2 4.6-.8.6-1.8 1.2-2.8 1.6l-.8.3-.8.2c-.5.1-1.1.1-1.6.1-2.2-.1-4.1-1.2-5.6-2.4s-2.8-2.5-4.2-3.6c-1.4-1.1-2.8-1.8-4.2-2.5-1.4-.7-2.6-1.3-3.7-2s-2-1.3-2.6-2c-.6-.6-1-1.2-1.3-1.6-.2-.6-.3-.8-.3-.8zm23.3 16.6s.4.3 1.1.8c.4.2.7.6 1.2 1 .2.2.5.4.7.7.2.2.5.5.7.8.5.6 1 1.2 1.5 1.9s1 1.5 1.5 2.2c.5.8 1 1.6 1.4 2.5.5.9.9 1.7 1.4 2.6.9 1.8 1.8 3.5 2.7 5.1.5.8.9 1.6 1.3 2.3.5.7.9 1.4 1.3 2 .2.3.4.6.6.8.2.3.4.5.6.7.4.5.7.9 1.1 1.1l1 1s-.4-.3-1.1-.8c-.4-.3-.8-.6-1.2-1-.2-.2-.5-.4-.7-.7-.2-.2-.5-.5-.7-.8-.5-.6-1-1.2-1.5-1.9s-1-1.5-1.5-2.2c-.5-.8-1-1.6-1.4-2.5-.5-.9-.9-1.7-1.4-2.6-.9-1.8-1.8-3.5-2.7-5.1-.5-.8-.9-1.6-1.3-2.3-.5-.7-.9-1.4-1.3-2-.2-.3-.4-.6-.6-.8-.2-.3-.4-.5-.6-.7-.4-.5-.7-.9-1.1-1.1-.6-.7-1-1-1-1z"/></svg>