<?xml version="1.0" encoding="utf-8"?>
<!-- Generator: Adobe Illustrator 19.2.0, SVG Export Plug-In . SVG Version: 6.00 Build 0)  -->
<svg version="1.1" id="Layer_1" xmlns="http://www.w3.org/2000/svg" xmlns:xlink="http://www.w3.org/1999/xlink" x="0px" y="0px"
	 viewBox="0 0 460 620" style="enable-background:new 0 0 460 620;" xml:space="preserve">
<style type="text/css">
	.st0{fill:none;stroke:#000000;stroke-width:5;stroke-miterlimit:10;}
	.st1{opacity:0.9;fill:url(#SVGID_1_);enable-background:new    ;}
	.st2{fill:none;stroke:#000000;stroke-width:2;stroke-miterlimit:10;}
	.st3{fill:#AF043D;}
	.st4{fill:#8E0339;}
	.st5{fill:none;stroke:#000000;stroke-miterlimit:10;}
	.st6{fill:#F93621;}
</style>
<path class="st0" d="M6588.6-650.6c0.3,38.5,0.2,82.4-5.7,120.5c-2.3,14.7-3.7,31.7-10.6,44.9c-9.4,17.9-18.6,35.9-34,49.5
	c-5.5,4.9-11.5,9.2-17.9,12.8c-4.2,2.3-15.3,5.1-15.9,10.8c-0.4,3.6,3.8,5.7,6.9,7.6c6.9,4.3,10.9,12.3,11.6,20.4
	c1.5,15.4-5.6,30.7-18.9,38.8c-0.8,0.5-1.6,1-1.9,1.8c-0.7,2.1,2.1,3.4,4.2,3.8c12.1,2.1,24,5,35.7,8.7c7.7,2.4,24.3,10.6,12,18.5
	c-7.7,4.9-17,6.2-26,7.3c-24.7,3.1-49.7,6.2-74.5,3.9c-5.6-0.5-11.2-1.4-16.8-2.2l-22.5-3.3c-5.3-0.8-11.8-2.7-12.7-7.9
	c-1.7-10.2,16.6-15.1,23.6-17.2c4.9-1.5,36.5-4.6,35.6-9.3c-0.5-2.4-2.8-3.9-4.8-5.4c-8.9-6.4-15-16.4-16.6-27.2
	c-1.6-10.8,1.3-22.2,7.9-30.9c2.2-2.9,4.9-6,4.4-9.6c-0.2-1.5-1-2.9-2-4.1c-5.1-6.7-15.9-9.5-22.8-14.7c-7.9-6-15.2-12.8-21.6-20.4
	c-12.5-14.5-22.1-31.5-27.6-49.9c-5.2-17.2-6.9-35.3-8.2-53.2c-2.3-31-3.6-62-3.8-93.1c20.2-2.4,42-1.8,62.4-1.4
	C6480.9-650,6588.6-652.7,6588.6-650.6L6588.6-650.6z"/>
<path d="M6462-335.7v1.9c0,0.6,0.1,1.3,0.6,1.9c0.4,0.6,1.2,0.8,2.2,0.8c2.1-0.1,4.5-0.2,7.1-0.2c1.3,0,2.7-0.1,4-0.1
	c1.4-0.1,2.8-0.1,4.1-0.2c1.4-0.1,2.8-0.1,4.1-0.2c1.4-0.1,2.7-0.1,4-0.2c2.6-0.1,5-0.2,7.1-0.3c2-0.1,3.7-0.6,4.6-1.3
	c0.4-0.4,0.7-0.8,0.8-1.1c0.1-0.3,0.2-0.5,0.2-0.5v0.5c-0.1,0.3-0.2,0.8-0.6,1.3s-1.1,1-1.9,1.4c-0.8,0.4-1.8,0.7-2.8,0.8
	c-2.1,0.4-4.5,0.7-7.1,0.9c-1.3,0.1-2.7,0.3-4,0.4c-1.4,0.1-2.8,0.2-4.2,0.2c-1.4,0-2.8,0.1-4.2,0.1h-4.1c-2.6-0.1-5.1-0.2-7.2-0.4
	c-0.5-0.1-1.1-0.1-1.6-0.4s-0.9-0.7-1.1-1.1c-0.4-0.9-0.4-1.7-0.3-2.3s0.2-1.1,0.3-1.4C6461.9-335.5,6462-335.7,6462-335.7
	L6462-335.7z M6461.6-420.3c0,0,0.6,0.2,1.6,0.5c0.5,0.2,1.2,0.3,1.9,0.5s1.6,0.4,2.4,0.5c0.9,0.2,1.9,0.3,2.9,0.5
	c1,0.1,2.1,0.2,3.3,0.3c1.1,0.1,2.3,0.1,3.5,0.2h3.6c1.2,0,2.5,0,3.7-0.1c1.2,0,2.4-0.1,3.6-0.1c2.3-0.1,4.5-0.1,6.3-0.3
	c1.8-0.2,3.2-0.6,4.1-1.2c0.4-0.3,0.8-0.6,1-0.8l0.3-0.3c0,0-0.1,0.1-0.2,0.4c-0.2,0.3-0.4,0.6-0.8,1c-0.8,0.8-2.3,1.6-4.2,2
	c-0.9,0.2-2,0.4-3,0.5c-1.1,0.1-2.2,0.3-3.3,0.4l-3.6,0.3c-1.2,0.1-2.5,0.1-3.7,0.2c-1.3,0-2.5,0-3.7-0.1c-0.6,0-1.2-0.1-1.8-0.1
	c-0.6-0.1-1.2-0.1-1.8-0.2c-1.2-0.1-2.3-0.4-3.4-0.6c-0.5-0.1-1-0.3-1.5-0.4c-0.5-0.2-1-0.3-1.4-0.4c-1.8-0.6-3.2-1.3-4.2-1.8
	C6462.2-420,6461.6-420.3,6461.6-420.3L6461.6-420.3z M6411.5-318.2l0.3,0.3c0.2,0.2,0.5,0.4,1,0.6c0.9,0.5,2.3,1,4.2,1.4
	c1.9,0.4,4.2,0.7,6.8,1.1c2.6,0.4,5.6,0.7,8.9,1.1c3.3,0.3,6.8,0.7,10.6,1c3.7,0.3,7.7,0.5,11.8,0.7c8.2,0.3,17,0.5,25.7,0.6
	c4.4,0.1,8.8,0.1,13.1,0.2c4.3,0,8.5,0.1,12.6,0s8-0.4,11.7-0.8c3.7-0.5,7.2-1.1,10.4-1.7c6.4-1.4,11.6-3,15.2-4.3
	c1.8-0.7,3.2-1.2,4.2-1.6l1.5-0.6c0,0-0.5,0.2-1.4,0.7c-0.9,0.4-2.3,1.1-4.1,1.8c-3.5,1.5-8.7,3.5-15.1,5.1
	c-6.4,1.6-14.1,2.9-22.3,3.2c-4.1,0.2-8.4,0.2-12.7,0.2c-4.3,0-8.7-0.1-13.1-0.1c-4.4-0.1-8.8-0.2-13.1-0.3
	c-4.3-0.1-8.6-0.4-12.7-0.6c-4.1-0.3-8.1-0.6-11.8-1c-3.8-0.4-7.3-0.8-10.6-1.3c-1.6-0.3-3.2-0.5-4.7-0.7c-1.5-0.3-2.9-0.5-4.2-0.8
	c-2.6-0.5-4.9-1-6.8-1.5s-3.3-1.1-4.1-1.7c-0.4-0.3-0.7-0.5-0.9-0.7C6411.6-318.1,6411.5-318.2,6411.5-318.2L6411.5-318.2z"/>
<linearGradient id="SVGID_1_" gradientUnits="userSpaceOnUse" x1="6378.7998" y1="-1035.7888" x2="6584.7002" y2="-1035.7888" gradientTransform="matrix(1 0 0 1 0 507)">
	<stop  offset="1.800000e-02" style="stop-color:#801FE3"/>
	<stop  offset="1" style="stop-color:#B7A7FF"/>
</linearGradient>
<path class="st1" d="M6378.8-622.4c1.4,24.4,2.7,48.8,4.1,73.2c0.4,7.9,0.9,15.9,2.2,23.7c1.8,11.1,5.4,21.8,8.9,32.5
	c3,9.1,6,18.2,11.1,26.3c17.8,28.1,51.5,32.7,81.9,31.3c10.6-0.5,21.3-1.5,31.5-4.7c66.9-21.3,65.2-117,66.1-172.7
	c0-2.6,0.1-5.1,0.1-7.7C6516-618.3,6447.2-616.5,6378.8-622.4L6378.8-622.4z"/>
<path d="M6373.7-642.1c0,0,0.6,8.1,1.5,22.2c0.5,7.1,1,15.6,1.7,25.5c0.6,9.8,1.4,20.9,2.1,33.1c0.4,6.1,0.7,12.4,1.3,18.9
	c0.5,6.5,1.4,13.2,3,19.9c1.6,6.7,3.7,13.5,6,20.4c2.4,6.9,4.5,14,7.5,20.9c0.8,1.7,1.5,3.4,2.4,5.1c0.9,1.6,1.8,3.3,2.8,4.8
	c1.1,1.6,2.2,3.1,3.4,4.7c1.2,1.4,2.5,2.8,3.7,4.3c5.3,5.5,11.7,10,18.8,13.2c7.1,3.3,14.8,5.4,22.6,6.6c7.9,1.3,15.9,1.7,23.9,1.7
	c8-0.1,16.1-0.4,24-1.5c3.9-0.5,7.9-1.2,11.7-2.2c1-0.3,1.9-0.5,2.8-0.8l0.7-0.2h0.1l0.2-0.1l0.4-0.1l1.4-0.5l2.8-1
	c0.5-0.2,0.9-0.3,1.4-0.5l1.3-0.6c7.1-3.1,13.7-7.4,19.4-12.5c5.7-5.1,10.5-11.1,14.4-17.5c4-6.3,7.1-13.1,9.7-19.8
	c2.6-6.8,4.6-13.6,6.3-20.3c3.2-13.5,5-26.5,6.2-38.5c1.1-12.1,1.7-23.2,2-33c0.3-9.9,0.5-18.4,0.7-25.5c0.2-14.2,0.4-22.2,0.4-22.2
	s0,2,0.1,5.8c0,3.8,0.1,9.4,0.2,16.4c0,7.1,0,15.7-0.2,25.5c-0.1,9.9-0.5,21-1.5,33.1c-1,12.1-2.6,25.2-5.7,38.9
	c-1.6,6.8-3.6,13.7-6.1,20.6s-5.7,13.8-9.8,20.3c-4,6.5-9,12.7-14.8,18.1c-5.9,5.4-12.7,9.8-20.2,13.1l-1.4,0.6
	c-0.5,0.2-0.9,0.4-1.4,0.5l-2.8,1l-1.4,0.5l-0.4,0.1l-0.2,0.1l-0.2,0.1l-0.7,0.2c-1,0.3-2,0.6-2.9,0.8c-3.9,1-8,1.8-12,2.4
	c-8.1,1.1-16.2,1.5-24.4,1.6c-8.2,0-16.3-0.5-24.4-1.8c-8-1.3-16-3.5-23.3-7c-7.4-3.4-14.1-8.1-19.6-13.9c-1.3-1.5-2.6-3.1-3.9-4.6
	c-1.1-1.6-2.2-3.2-3.3-4.7c-2.2-3.4-3.9-6.8-5.4-10.4c-3-7.1-5.2-14.2-7.5-21.2c-2.2-7-4.3-13.9-5.8-20.7
	c-1.6-6.9-2.4-13.6-2.8-20.2c-0.5-6.6-0.7-12.9-1-18.9c-0.6-12.1-1.1-23.2-1.6-33.1c-0.5-9.9-0.8-18.4-1.2-25.5
	C6374-634.1,6373.7-642.1,6373.7-642.1L6373.7-642.1z"/>
<path d="M6374.1-626.7c0,0,0.8,0,2.4,0.1s3.8,0.2,6.7,0.3c2.9,0.2,6.4,0.3,10.5,0.5c4,0.2,8.6,0.3,13.6,0.5s10.4,0.3,16.1,0.5
	s11.7,0.2,17.9,0.4c6.2,0.1,12.6,0.1,19.2,0.2c6.5,0.1,13.2,0,19.8,0.1c6.6,0,13.3,0,19.8-0.1s13-0.1,19.2-0.2
	c12.5-0.1,24.1-0.2,34-0.3c10-0.1,18.3-0.1,24.1-0.1h9.1c0,0-0.8,0.1-2.4,0.2c-1.6,0.1-3.8,0.2-6.7,0.4c-5.8,0.3-14.1,0.8-24.1,1.3
	s-21.6,0.9-34,1.3c-6.2,0.1-12.7,0.4-19.2,0.4c-6.5,0.1-13.2,0.1-19.8,0.2c-6.6,0-13.3,0-19.8-0.2c-6.5-0.1-13-0.3-19.2-0.4
	c-6.2-0.2-12.3-0.4-18-0.8c-2.9-0.2-5.6-0.3-8.3-0.5c-2.7-0.2-5.3-0.4-7.8-0.5c-2.5-0.2-4.9-0.3-7.1-0.5c-2.3-0.2-4.4-0.4-6.4-0.6
	c-4-0.4-7.6-0.7-10.4-1c-2.9-0.3-5.2-0.6-6.7-0.7C6374.9-626.6,6374.1-626.7,6374.1-626.7L6374.1-626.7z"/>
<path class="st2" d="M335.1,120.9c9.5-2.7,19-5.5,28.4-8.5c11.2-3.6,23.3-6.3,35-4.7c-4.1-22.4-8.7-45.7-22.7-63.7
	c-9.4-12-23.2-20.1-36.9-26.8C324,42.9,315.3,65.9,303.2,96c-5,12.5-8.1,24.5-12.4,37.2c8.3-2.3,16.7-4.6,25-7
	c1.5-0.4,3.1-0.9,4.6-1.3"/>
<path class="st2" d="M339.4,17.3c-0.5-1.1,0.9-2.3,2.1-2.1c1.2,0.1,2.2,1,3.1,1.8c1.7,1.3,3.7,2.5,5.8,3.1c2,0.5,4.1-0.1,6.1,0.7
	c3.4,1.3,4.9,5.9,7.9,8c3.8,2.7,9.4,2.6,12.3,6.6c2,2.7,3.8,5.6,6,8.1c1.9,2.2,5.7,3.8,6.7,6.5c1.1,2.7,0.8,6,1.8,8.9
	c1.2,3.1,2.8,6,4.8,8.6c0.7,0.8,1.4,1.7,1.7,2.7s0.2,2,0.2,3c-0.1,4.6,1,9.1,3.2,13.1c0.7,1.3,1.6,2.6,2,4c0.4,1.5,0.4,3.1,0.3,4.7
	c-0.2,3.6-0.3,7.2-0.5,10.8c0,0.3,0,0.6-0.2,0.9c-0.3,0.4-0.8,0.6-1.3,0.6c-1.2,0.2-2.4,0.3-3.7,0.3"/>
<path d="M343.9,20.6c-1,3-2,5.9-3.1,8.8s-2.3,5.8-3.5,8.7c-1.2,2.9-2.5,5.8-3.8,8.6s-2.7,5.6-4.2,8.4l-1.1-0.6l9-16l4.6-8
	c1.5-2.7,3.1-5.4,5.2-7.8l1.5-1.7l0.1,2.3l0.1,1.4v1.4l-0.1,1.3l-0.2,1.3c-0.2,0.9-0.4,1.8-0.6,2.6c-0.2,0.9-0.5,1.7-0.8,2.5
	c-1.2,3.3-2.9,6.4-4.5,9.5l-1.7-1c1.9-2.8,3.7-5.6,5.6-8.3l2.8-4.2l1.4-2.1c0.2-0.3,0.5-0.8,0.9-1.1c0.4-0.4,1-0.8,1.8-0.8h0.6
	l0.2,0.6c0.4,1,0.5,2.1,0.4,3.1s-0.4,2-0.8,2.9c-0.8,1.8-1.7,3.3-2.6,4.9l-5.4,9.5l-5.4,9.4l-5.5,9.4l-1.2-0.7
	c3.6-6.3,7.9-12.2,12.4-17.8l6.7-8.5c2.2-2.8,4.4-5.8,7.2-8.1c-2.7,2.4-4.7,5.4-6.8,8.3l-6.4,8.8c-2.1,2.9-4.2,5.8-6.2,8.8
	s-3.9,6-5.6,9.2l-1.2-0.7l5.2-9.5l5.3-9.5l5.3-9.5c0.9-1.6,1.8-3.2,2.5-4.7c0.3-0.8,0.6-1.6,0.7-2.4s0-1.5-0.3-2.2l0.9,0.6
	c-0.1,0-0.2,0.1-0.4,0.3c-0.2,0.2-0.4,0.5-0.6,0.8l-1.4,2.1L348,35c-1.8,2.8-3.7,5.6-5.6,8.3l-1.7-1c1.6-3,3.3-6,4.4-9.2
	c0.3-0.8,0.6-1.6,0.8-2.4l0.6-2.4l0.2-1.2l0.1-1.2v-2.4l1.6,0.5c-1.9,2.2-3.5,4.8-5.1,7.5l-4.6,7.9l-9.4,15.8l-1.1-0.6
	c1.5-2.7,2.9-5.5,4.3-8.3s2.8-5.6,4.1-8.4c1.3-2.8,2.6-5.7,3.8-8.6C341.6,26.4,342.8,23.5,343.9,20.6L343.9,20.6z M376.6,45.3
	c-0.9,1.4-1.7,2.8-2.6,4.3c-0.9,1.4-1.8,2.8-2.8,4.2c-1.9,2.7-3.9,5.4-5.9,8.1c-4,5.3-8.3,10.4-12.6,15.6l-1-0.9
	c4.2-4.4,8.4-8.9,12.7-13.2l6.4-6.6l3.2-3.3c0.5-0.5,1.1-1.1,1.8-1.7c0.7-0.5,1.6-1,2.7-1h1l-0.1,1c-0.1,1.2-0.7,2.2-1.3,3
	c-0.6,0.8-1.2,1.5-1.8,2.2l-3.5,4.3c-2.4,2.8-4.7,5.7-7.1,8.5l-1.4-1.4c2.6-2.2,5.2-4.3,7.8-6.3c1.3-1,2.7-2,4-3l1-0.7l0.5-0.4
	l0.3-0.2l0.4-0.2c0.5-0.3,1-0.4,1.6-0.4c0.3,0,0.7,0,1.1,0.3c0.2,0.1,0.4,0.4,0.5,0.6c0.1,0.3,0.1,0.5,0.1,0.7v0.3l-0.3,0.2
	c-4,3.7-8.1,7.4-12.3,10.9c-4.2,3.5-8.5,6.9-12.8,10.2l-0.8-1c4.8-3.4,9.6-6.9,14.4-10.2l7.2-5.1c1.2-0.8,2.4-1.7,3.7-2.4
	c1.3-0.7,2.7-1.3,4.2-1.4c-1.5,0.2-2.8,0.8-4.1,1.6c-1.2,0.8-2.4,1.7-3.6,2.6l-7,5.3c-4.7,3.6-9.4,7.1-14.1,10.6l-0.8-1
	c4.3-3.4,8.5-6.9,12.5-10.5c2-1.8,4.1-3.6,6.1-5.4c2-1.8,4-3.7,6-5.6l-0.3,0.6c0,0,0.1,0.2,0.2,0.3h-0.1c-0.2,0-0.6,0.1-0.8,0.2
	l-0.2,0.1l-0.3,0.2l-0.5,0.4l-1,0.7c-1.3,1-2.7,2-4,3c-2.6,2-5.2,4.2-7.7,6.3l-1.4-1.4c2.4-2.8,4.7-5.7,7.1-8.5l3.6-4.2
	c1.2-1.4,2.5-2.8,2.6-4.1l0.9,1c-0.5,0-1,0.2-1.5,0.6c-0.5,0.4-1,0.9-1.6,1.5l-3.2,3.3l-6.4,6.5c-4.3,4.4-8.6,8.7-13,13l-1-0.9
	l6.5-7.6l3.2-3.8l3.2-3.8c2.1-2.6,4.2-5.2,6.2-7.8c1-1.3,2-2.7,3-4C374.7,48.1,375.7,46.7,376.6,45.3L376.6,45.3z M392.7,81.8
	c-4.2,2.9-8.6,5.6-13,8.2c-4.4,2.6-8.9,5.1-13.4,7.5l-0.6-1.4l11.4-4.3c3.8-1.4,7.6-2.8,11.5-4.2l0.7-0.3l0.4,0.6
	c0.2,0.3,0.3,0.7,0.4,1c0,0.4-0.1,0.7-0.2,0.9c-0.2,0.5-0.6,0.8-0.9,1.1c-0.2,0.1-0.3,0.3-0.5,0.4c-0.2,0.1-0.4,0.2-0.5,0.3
	l-0.9,0.5l-3.6,2.1l-7.1,4.1c-4.7,2.8-9.5,5.5-14.3,8.2l-0.7-1.5c5.7-2,11.4-4.2,17-6.5l4.2-1.8l4.2-1.8c1.4-0.6,2.9-1.1,4.4-1.5
	c1.5-0.3,3.1-0.4,4.6-0.1c-1.5-0.2-3,0-4.5,0.4s-2.8,1-4.2,1.7c-2.7,1.4-5.4,2.8-8.2,4.1c-5.5,2.6-11.1,5-16.8,7.1l-0.7-1.5
	c4.7-2.8,9.4-5.6,14.2-8.4l7.1-4.2l3.6-2.1c0.6-0.4,1.3-0.7,1.6-1c0.2-0.2,0.4-0.4,0.4-0.5l1.1,0.3c-3.8,1.4-7.7,2.7-11.5,4.1
	l-11.5,4l-0.6-1.4c4.6-2.3,9.2-4.6,13.7-7C383.8,86.8,388.2,84.3,392.7,81.8L392.7,81.8z M309,96.9c0.7-0.5,1.3-0.9,2-1.4
	c0.6-0.5,1.3-1,1.9-1.5c1.3-1,2.5-2,3.7-3.1c2.4-2.1,4.7-4.3,7-6.6c4.6-4.5,9-9.1,13.7-13.5l1.1,1.2c-1.7,1.6-3.1,3.6-4.5,5.6
	s-2.6,4.1-4.2,6.2c-0.7,1-1.6,2-2.5,2.9s-1.7,1.8-2.6,2.6c-1.6,1.8-3.1,3.6-3.7,5.8l-1.5-1.1c2.6-1.6,5.1-3.4,7.3-5.6
	c1.1-1.1,2.2-2.2,3.2-3.4l3.2-3.4c4.3-4.6,8.6-9.2,13.2-13.5l1.2,1.1c-3.9,4.8-7.8,9.5-11.7,14.2l-1.5,1.8c-0.5,0.6-0.9,1.2-1.4,1.8
	c-0.9,1.2-1.8,2.5-2.6,3.8c-0.9,1.3-1.7,2.6-2.5,3.8c-0.4,0.6-0.8,1.3-1.2,1.9c-0.4,0.7-0.8,1.3-1.1,2c0.3-0.7,0.6-1.4,1-2.1
	c0.4-0.7,0.7-1.4,1.1-2c0.8-1.3,1.5-2.7,2.3-4l2.4-3.9c0.4-0.6,0.8-1.3,1.3-1.9l1.4-1.8c3.7-4.9,7.5-9.7,11.2-14.6l1.2,1.1
	c-4.5,4.4-8.7,9-12.9,13.7l-3.2,3.5c-1.1,1.2-2.1,2.3-3.3,3.4c-2.3,2.3-4.9,4.2-7.6,5.9l-2.2,1.3l0.7-2.4c0.4-1.3,1-2.5,1.7-3.6
	s1.6-2.1,2.4-3l2.6-2.6c0.9-0.9,1.6-1.7,2.4-2.7c1.5-1.9,2.8-4,4.2-6c0.7-1,1.4-2,2.2-3c0.4-0.5,0.8-1,1.2-1.4
	c0.4-0.5,0.9-0.9,1.4-1.3l1.1,1.2c-2.4,2.1-4.7,4.3-7,6.5s-4.7,4.4-7,6.5c-2.4,2.2-4.8,4.3-7.3,6.3c-1.3,1-2.5,2-3.8,2.9
	c-0.6,0.5-1.3,0.9-2,1.3C310.4,96.1,309.7,96.5,309,96.9L309,96.9z M337.9,101.8c3.7-3,7.4-6.1,11-9.2c1.8-1.6,3.6-3.1,5.4-4.7
	c1.8-1.6,3.5-3.2,5.3-4.8l5.2-4.9l-4,5.9l-4.6,6.8l-4.7,6.8l-0.6-1.5c0.3,0.1,0.6,0,1-0.2s0.8-0.5,1.1-0.9l2.4-2.5
	c1.6-1.7,3.3-3.3,5.1-4.9c3.4-3.2,7-6.2,10.7-9l5.5-4.2l-4.2,5.4c-3.9,5-7.9,9.9-12,14.7c-2.1,2.4-4.2,4.8-6.3,7.1
	c-2.1,2.3-4.3,4.6-6.6,6.9l6-7.3l5.9-7.4c1.9-2.5,3.9-5,5.8-7.5s3.8-5,5.7-7.6l1.3,1.3c-3.6,2.9-7.1,5.9-10.5,9.1
	c-1.7,1.6-3.4,3.2-5,4.8l-2.5,2.5c-0.5,0.4-0.9,0.9-1.6,1.2c-0.6,0.4-1.5,0.6-2.4,0.4l-1.4-0.3l0.8-1.1l4.8-6.8l4.8-6.7l1.2,1
	c-3.6,3.2-7.3,6.2-11.1,9.2c-1.9,1.5-3.8,2.9-5.7,4.3C341.9,99.1,339.9,100.5,337.9,101.8L337.9,101.8z"/>
<path class="st3" d="M361.7,76.5c-0.4-10.4-7.7-20.8-17.9-22.9c-0.7-0.3-1.5-0.5-2.2-0.6c-0.4-0.1-0.8-0.1-1.2-0.2
	c-0.5-0.2-0.9-0.5-1.4-0.7c-0.4-0.2-0.9-0.2-1.3-0.3c-2.7-0.5-5.1-2-7.9-2.4s-5.7-0.3-8.4,0.3c-1.3,0.3-2.6,0.7-3.8,1.1
	c-7.9,3-14.4,9.6-17.3,17.5c-2.9,8-2.1,17.2,2.1,24.5c4.2,7.5,10.1,13.6,17.9,17c1.6,0.7,4.8,2.1,6.2,0.5c1.2-1.5,1.4-5,2-6.8
	c1.7-5.7,3.7-11.3,6-16.8c0.1-0.2,0.2-0.4,0.3-0.5c0.2-0.1,0.4-0.1,0.6-0.2c1-0.1,2-0.1,3-0.2c0.1,0,2.2,0,2.4-0.1l-6.1,26
	c5.8,0.6,11.1-3.2,15.1-7.4C356.9,97,362.1,86.9,361.7,76.5L361.7,76.5z"/>
<path class="st4" d="M345.1,52.4c2.3-2.7,5.7-4.1,8.5-6.4c16.1-13.3,29.5-21.7,48.6-29.3c2-0.8,3.8-2.3,4.9-4.2
	c1.1-1.9,1.1-4.6-0.6-6c-2.9-2.3-11.3,5.4-14.5,7.2c-16.2,9.1-24.3,14.1-39.6,24.6c-4.5,3.1-9.3,6-13.8,9.1
	c-2.3,1.6-4.5,3.3-6.6,5.1c-1,0.9-2,1.9-3,2.9c-0.4,0.5-0.8,1-1.3,1.4c-0.4,0.3-1,0.6-1.3,1c-0.2,0.4-0.5,0.8-0.6,1.2
	c-0.3,1.6,1.6,3.9,2.9,4.6c1.6,0.9,3.6,1,5.4,0.9c2.1-0.1,5.7,0,7.2-1.8c0.9-1.2,0.2-3.3,0.6-4.8C342.6,55.9,343.7,54,345.1,52.4
	L345.1,52.4z"/>
<path class="st5" d="M343.7,51.6c10.2,2,17.5,12.4,17.9,22.9c0.4,10.4-4.8,20.5-12.1,28c-4,4.2-9.4,7.9-15.1,7.4 M334.7,48.8
	c-4.2-1.6-9-2-13.4-1c-1.3,0.3-2.6,0.7-3.8,1.1c-7.9,3-14.4,9.6-17.3,17.5s-2.1,17.2,2.1,24.5c4.2,7.5,10.1,13.6,17.9,17
	c2.2,0.9,4.6,1.7,6.8,0.8"/>
<path class="st5" d="M344.4,57.5c-1.1,3.9-6,5.1-10,5.2c-1.9,0.1-3.8,0-5.4-0.9c-2.3-1.3-3.4-4.5-2.4-7"/>
<path class="st5" d="M342,60.2c-0.7-3.5,0.8-7.1,3.1-9.8c2.3-2.7,5.7-4.1,8.5-6.4c16.1-13.3,29.5-21.7,48.6-29.3
	c2-0.8,3.8-2.3,4.9-4.2c1.1-1.9,1.1-4.6-0.6-6c-2.9-2.3-11.3,5.4-14.5,7.2c-16.2,9.1-24.3,14.1-39.6,24.6
	c-8.3,5.7-19.2,11.5-25.3,19.5"/>
<path class="st6" d="M330.4,238.6c-9.7-29.3-12.4-60.9-8.2-91.4c-0.8,0-1.6,0.1-2.4,0.1c-33.7,1.6-67.4,3.2-101,4.8
	c-23.2,1.1-46.9,2.1-69.1-4.8c-0.4-0.1-0.8-0.3-1.2-0.4c2.6,20.4,1.6,41.2-3.2,61.2c-7.4,30.4-23.3,59.3-23.5,90.6
	c-0.1,16.7,4.3,33,9.6,48.8c6.8,20.6,25.7,40.9,43,53.7c17.7,13,37,16.7,58.5,16.8c19.5,0,34,0.2,52.7-7.4c2.4-1,11.9-7.5,14.3-9.5
	c16.3-14.2,29.8-24.8,39.6-44.8c9.8-20,14.6-43.1,9.3-65.1C344.5,273,336.2,256.2,330.4,238.6L330.4,238.6z"/>
<path class="st0" d="M342.1,86.5L331,133.6c-2.2,9.4-4.5,19-4.5,28.7c0,6.7,1,13.3,2.1,20c5.5,34.7,18.8,65.6,26.4,99.5
	c2.3,10.1,3.8,19.7,2.9,30c-2.5,28.4-15.2,55.8-35.2,76.1c-22.4,22.6-49.7,36.3-63.3,65c-11.6,24.5-7.6,38.3-6.2,67.5
	c1,21.8,25.5,54.7,50.5,62.2c13.5,4.1,26.8,9.2,41.2,10.2c7.8,0.5,8.4,5.6,6.3,9c-1.3,2.1-4.4,2.9-7.2,3.5
	c-46.9,9.6-93.3,12.7-141.6,11.5c-27.4-0.7-77.5-4.8-88.5-12.2c-3.8-2.6-4.2-6.1-0.7-8.8c2.2-1.7,7.5-1.6,10.5-1.9
	c29.6-3.6,60.2-12.7,76.1-33.5c22.5-29.3,29-91.3,5-121.5c-5.8-7.4-13.8-12.7-21.6-17.9c-24.7-16.3-48.5-31.7-60.7-60.3
	c-14.5-33.8-17-79.1-3.6-113.5c3-7.7,6.8-15,9.8-22.7c16.2-42.3,10.1-92.3-5.3-134.1C195.6,88.2,269.9,88.8,342.1,86.5L342.1,86.5z"
	/>
<path d="M181.2,583.5c0,0,1.5,0.4,4.1,1.2c1.3,0.4,2.9,0.8,4.7,1.2c0.9,0.2,1.9,0.5,2.9,0.7s2.1,0.4,3.2,0.7
	c2.2,0.5,4.7,0.9,7.3,1.3c1.3,0.2,2.6,0.4,4,0.6c1.4,0.2,2.8,0.4,4.2,0.5c2.9,0.3,5.8,0.6,8.8,0.7c3,0.2,6.1,0.2,9.1,0.3
	c3.1-0.1,6.1,0,9.1-0.2c3-0.1,6-0.4,8.8-0.7c1.4-0.1,2.8-0.4,4.2-0.5c1.4-0.2,2.7-0.3,4-0.6c2.6-0.4,5.1-0.8,7.3-1.3
	c1.1-0.2,2.2-0.4,3.2-0.6c1-0.2,2-0.5,2.9-0.7c1.8-0.4,3.4-0.8,4.7-1.2c2.6-0.7,4.1-1.1,4.1-1.1s-1.4,0.6-4,1.5
	c-1.3,0.5-2.8,1-4.6,1.5c-0.9,0.3-1.9,0.6-2.9,0.9c-1,0.3-2.1,0.5-3.2,0.8s-2.3,0.6-3.5,0.9c-1.2,0.3-2.5,0.5-3.8,0.8
	s-2.7,0.5-4,0.7c-1.4,0.2-2.8,0.5-4.2,0.6c-2.9,0.3-5.9,0.7-8.9,0.8c-3,0.2-6.2,0.2-9.3,0.3c-3.1-0.1-6.2-0.1-9.3-0.4
	c-3.1-0.1-6-0.6-8.9-0.9c-1.4-0.2-2.9-0.4-4.2-0.7c-1.4-0.2-2.7-0.4-4-0.7s-2.6-0.5-3.8-0.8c-1.2-0.3-2.4-0.6-3.5-0.9
	c-1.1-0.3-2.2-0.6-3.2-0.9c-1-0.3-2-0.6-2.9-0.9c-1.8-0.6-3.4-1.1-4.6-1.6C182.7,584.1,181.2,583.5,181.2,583.5L181.2,583.5z
	 M209.7,559.9c0,0,0.8,0.1,2.1,0.2c1.3,0.2,3.2,0.4,5.5,0.6c1.1,0.1,2.4,0.2,3.7,0.3c1.3,0.1,2.7,0.2,4.1,0.3s2.9,0.1,4.4,0.2
	c1.5,0.1,3,0,4.6,0c1.5,0,3.1,0,4.6-0.1s3-0.1,4.4-0.2c1.4-0.1,2.8-0.2,4.1-0.3c1.3-0.1,2.6-0.2,3.7-0.4c2.3-0.2,4.2-0.5,5.5-0.7
	s2.1-0.3,2.1-0.3s-0.7,0.2-2,0.7c-0.6,0.2-1.4,0.4-2.4,0.7c-0.9,0.2-1.9,0.5-3.1,0.7c-1.1,0.3-2.4,0.5-3.7,0.7
	c-1.3,0.2-2.7,0.4-4.2,0.6c-1.5,0.1-2.9,0.3-4.5,0.4c-1.5,0.1-3.1,0.1-4.6,0.2c-1.6,0-3.1,0-4.6-0.1c-1.5,0-3-0.2-4.5-0.3
	c-1.4-0.2-2.8-0.3-4.2-0.5c-1.3-0.2-2.6-0.4-3.7-0.7c-1.1-0.2-2.2-0.5-3.1-0.7s-1.7-0.4-2.4-0.6
	C210.4,560.2,209.7,559.9,209.7,559.9L209.7,559.9z M121.7,597.5c0,0,0.8,0.3,2.4,0.7c0.4,0.1,0.8,0.3,1.3,0.4
	c0.5,0.1,1,0.2,1.6,0.4c1.2,0.3,2.5,0.6,3.9,0.9c1.5,0.3,3.1,0.6,4.9,1c1.8,0.3,3.8,0.6,5.8,1c2.1,0.3,4.3,0.6,6.7,1
	c2.4,0.3,4.8,0.6,7.4,1c5.2,0.6,10.8,1.3,16.7,1.9c5.9,0.6,12.2,1.1,18.7,1.7c6.5,0.5,13.2,1.1,20,1.4c6.8,0.2,13.7,0.2,20.7,0.1
	c6.9-0.1,13.8-0.4,20.7-0.8c6.8-0.4,13.5-0.8,20-1.3s12.7-1,18.7-1.6c5.9-0.6,11.5-1.2,16.7-1.9c2.6-0.3,5.1-0.6,7.4-1
	c2.4-0.3,4.6-0.6,6.7-0.9c4.2-0.6,7.8-1.2,10.8-1.7s5.4-0.9,7-1.2s2.5-0.4,2.5-0.4s-0.8,0.2-2.4,0.5s-3.9,0.9-6.9,1.4
	c-3,0.6-6.6,1.3-10.8,2c-4.2,0.7-8.9,1.5-14,2.2c-5.2,0.7-10.8,1.5-16.7,2.2c-5.9,0.7-12.2,1.4-18.7,1.9s-13.2,1-20,1.4
	s-13.8,0.8-20.7,0.9c-7,0.1-13.9,0-20.8-0.2c-6.9-0.3-13.6-0.9-20.1-1.5c-13-1.2-25-2.7-35.4-4.2c-2.6-0.4-5-0.8-7.4-1.1
	c-2.3-0.4-4.6-0.8-6.6-1.2c-2.1-0.4-4-0.8-5.8-1.2s-3.4-0.8-4.9-1.1s-2.8-0.7-3.9-1.1c-0.6-0.2-1.1-0.3-1.6-0.5s-0.9-0.3-1.3-0.5
	C122.5,597.8,121.7,597.5,121.7,597.5L121.7,597.5z M133,100.9c0,0,0.3,0.7,0.8,2.1c0.3,0.7,0.6,1.5,1,2.5c0.2,0.5,0.4,1,0.7,1.6
	c0.2,0.6,0.4,1.2,0.7,1.9c0.5,1.3,1,2.8,1.6,4.5c0.5,1.7,1.1,3.5,1.7,5.4c0.6,2,1.1,4.1,1.8,6.4c0.6,2.3,1.1,4.7,1.7,7.3
	c2.1,10.4,3.8,23.2,3.4,37.9c-0.2,7.4-0.8,15.2-2.1,23.4c-0.6,4.1-1.5,8.2-2.5,12.5c-1,4.2-2.2,8.5-3.6,12.8
	c-2.7,8.7-5.9,17.6-8.9,26.8c-3.1,9.2-6.1,18.8-8.1,28.9c-1.1,5-1.6,10.2-2,15.5c-0.1,2.6-0.2,5.2-0.1,7.9c0.1,2.6,0.2,5.3,0.5,8
	c1.1,10.7,3.8,21.5,7.2,32.2c0.4,1.3,0.9,2.7,1.3,4c0.2,0.7,0.4,1.4,0.7,2l0.7,2c0.5,1.4,1.1,2.6,1.6,3.9s1.2,2.5,1.8,3.8
	c2.6,5,5.7,9.8,9.2,14.4c7,9.2,15.3,17.5,24.4,24.9c1.1,0.9,2.3,1.8,3.5,2.7l0.9,0.7l0.2,0.2l0.2,0.1l0.5,0.3l1.8,1.3
	c1.2,0.9,2.5,1.6,3.7,2.4s2.5,1.4,3.8,2.2c5.2,2.7,10.7,4.9,16.4,6.4c5.7,1.6,11.6,2.5,17.5,3.1s11.9,0.6,17.9,0.6s12,0,18-0.4
	c5.9-0.4,11.8-1.3,17.6-2.7c2.9-0.7,5.7-1.6,8.5-2.6c0.7-0.2,1.4-0.5,2.1-0.8s1.4-0.5,2-0.8c1.2-0.5,2.5-1.4,3.7-2.1
	c2.5-1.6,4.9-3.3,7.3-5c0.6-0.4,1.2-0.9,1.8-1.3c0.6-0.4,1.1-0.9,1.7-1.4l3.4-2.9c4.5-3.9,9-7.7,13.2-11.7s8.2-8.2,11.8-12.7
	c3.6-4.5,6.6-9.3,9.3-14.3l1-1.9l0.9-1.9l0.9-1.9l0.8-1.9l0.8-1.9l0.8-2l0.8-2l0.7-2c3.7-10.5,5.7-21.5,5.8-32.2
	c0-5.4-0.4-10.7-1.4-15.8l-0.4-1.9l-0.2-0.9l-0.2-1c-0.3-1.3-0.6-2.6-1-3.8c-0.7-2.5-1.4-5-2.2-7.4c-3.2-9.8-7-19.1-10.4-28.3
	c-1.7-4.6-3.4-9.1-4.7-13.6c-0.7-2.3-1.4-4.5-2-6.7c-0.6-2.3-1.1-4.5-1.7-6.7c-2.1-8.8-3.6-17.4-4.4-25.7c-0.2-2.1-0.3-4.1-0.5-6.1
	c-0.1-1-0.2-2-0.2-3c-0.1-1-0.1-2-0.1-3c-0.1-2-0.1-3.9-0.2-5.8v-5.6c0.1-14.7,1.8-27.5,3.9-37.9c2-10.4,4.6-18.3,6.2-23.7
	c1.9-5.3,2.9-8.2,2.9-8.2s-1,2.9-2.8,8.2c-1.6,5.4-4,13.4-5.8,23.8c-1.9,10.4-3.4,23.1-3.3,37.8c0,1.8,0,3.7,0.1,5.6l0.3,5.7
	c0.1,1,0.1,2,0.2,2.9l0.3,3c0.2,2,0.3,4,0.6,6.1c1,8.2,2.5,16.7,4.6,25.4c0.6,2.2,1.2,4.4,1.7,6.6c0.7,2.2,1.4,4.4,2.1,6.7
	c1.4,4.4,3.1,8.9,4.8,13.5c3.5,9.1,7.4,18.4,10.7,28.3c0.8,2.5,1.6,5,2.3,7.5c0.4,1.3,0.7,2.6,1,3.8l0.2,1l0.2,1l0.4,2
	c1.1,5.3,1.6,10.8,1.6,16.3c0,11-2.1,22.3-5.8,33.1l-0.7,2l-0.8,2l-0.8,2l-0.9,2l-0.9,2l-0.9,1.9l-0.9,2l-1,1.9
	c-2.7,5.2-5.8,10.1-9.5,14.8c-3.6,4.6-7.7,9-12,13c-4.3,4.1-8.8,8-13.3,11.8l-3.4,2.9c-0.5,0.5-1.2,1-1.8,1.5
	c-0.6,0.5-1.2,0.9-1.8,1.4c-2.4,1.8-4.9,3.5-7.5,5.1c-1.3,0.8-2.5,1.6-4.1,2.3c-0.8,0.3-1.4,0.6-2.2,0.9c-0.7,0.3-1.4,0.6-2.1,0.8
	c-2.9,1-5.8,1.9-8.7,2.7c-5.9,1.5-12,2.4-18.1,2.8s-12.1,0.5-18.2,0.5c-12.1,0.1-24.4-0.6-36.2-3.9c-5.9-1.6-11.6-3.9-17-6.7
	c-1.3-0.8-2.7-1.5-4-2.3s-2.6-1.6-3.8-2.5l-1.8-1.3l-0.5-0.3l-0.3-0.2l-0.2-0.2l-0.9-0.7c-1.2-0.9-2.4-1.8-3.5-2.8
	c-9.3-7.5-17.7-16.1-24.8-25.4c-3.5-4.7-6.7-9.6-9.4-14.8c-0.6-1.3-1.3-2.6-1.9-3.9c-0.6-1.3-1.2-2.7-1.7-4l-0.7-2
	c-0.3-0.7-0.5-1.4-0.7-2.1c-0.4-1.4-0.9-2.7-1.3-4.1c-3.4-10.8-6.2-21.8-7.2-32.7c-0.3-2.7-0.4-5.5-0.5-8.2s0.1-5.4,0.2-8.1
	c0.4-5.4,1.1-10.6,2.2-15.7c2-10.3,5.2-19.9,8.4-29.1s6.4-18.1,9.2-26.7c1.4-4.3,2.6-8.5,3.7-12.7c1-4.2,1.9-8.3,2.6-12.3
	c1.4-8.1,2.2-15.9,2.4-23.2c0.5-14.7-1-27.4-2.9-37.8c-2-10.3-4.4-18.3-6.3-23.6c-0.2-0.7-0.4-1.3-0.6-1.9c-0.2-0.6-0.4-1.1-0.6-1.6
	c-0.4-1-0.7-1.9-1-2.5C133.3,101.6,133,100.9,133,100.9L133,100.9z"/>
<path d="M145.7,144.1c0,0,0.7,0.1,1.9,0.4c0.6,0.1,1.4,0.3,2.3,0.5s1.9,0.4,3.1,0.6c2.3,0.4,5.1,0.9,8.3,1.3
	c3.2,0.4,6.8,0.8,10.8,1.1s8.3,0.4,12.8,0.6c4.6,0.1,9.4,0.3,14.4,0.4c5,0.1,10.2,0,15.4-0.3c2.6-0.1,5.3-0.3,7.9-0.5
	c2.7-0.2,5.3-0.4,8-0.6c2.7-0.2,5.3-0.5,8-0.7s5.3-0.4,7.9-0.6c5.2-0.3,10.4-0.7,15.4-1c2.5-0.2,5-0.3,7.4-0.4
	c2.4-0.1,4.8-0.2,7-0.3c4.6-0.2,8.9-0.3,12.9-0.4c4-0.1,7.7-0.1,10.9-0.2c3.3,0,6.1-0.1,8.4,0c2.3,0,4.2,0,5.4,0.1h1.9v0.3
	c0,0-0.7,0.1-1.9,0.2s-3.1,0.3-5.4,0.6s-5.2,0.5-8.4,0.8c-3.2,0.3-6.9,0.6-10.9,0.9c-4,0.3-8.3,0.6-12.9,0.8c-2.3,0.1-4.6,0.3-7,0.4
	c-2.4,0.1-4.9,0.2-7.4,0.3c-5,0.2-10.2,0.3-15.4,0.5c-2.6,0.1-5.3,0.1-7.9,0.2c-2.7,0-5.3,0.1-8,0.1s-5.3,0.1-8,0.1
	c-2.7,0.1-5.3,0.2-7.9,0.3c-5.2,0.2-10.4,0.6-15.4,1c-2.5,0.2-5,0.3-7.4,0.4c-1.2,0.1-2.4,0.1-3.6,0.1h-3.5c-4.6,0-9-0.3-13-0.7
	s-7.7-1-10.9-1.6c-1.6-0.3-3.1-0.6-4.5-1c-1.4-0.3-2.6-0.6-3.8-1c-1.1-0.4-2.1-0.7-3-0.9c-0.9-0.3-1.6-0.6-2.2-0.8
	c-1.2-0.4-1.8-0.7-1.8-0.7L145.7,144.1L145.7,144.1z"/>
<path class="st5" d="M297.3,273.4c5.1-4.1,8.3-17.3,8.7-23.6c0.6-10.8,1.1-21.6,1.7-32.3c0.1-2.3,0.2-4.8-0.8-6.8
	c-1.8-3.7-6.4-4.9-10.4-5.7c-9-1.7-18.1-3-27.3-4c-8.1-0.8-15.3,1.9-23.1,4.5c-2.4,0.8-5,1.9-6.4,4c-1,1.5-1.3,3.5-1.5,5.3
	c-1.3,10-2.7,20.1-2.6,30.2c0,5.9,0.6,12.1,4.1,16.7c4.5,6,12.5,7.9,19.9,9.4c9.7,2,19.3,3.9,29,5.9c1.9,0.4,4,0.8,5.7-0.1
	C295.6,276.2,296.5,274.8,297.3,273.4L297.3,273.4z"/>
<path d="M264.7,203.1c0,0,0.1,0.3,0.2,0.8s0.4,1.2,0.6,2.2c0.2,0.9,0.5,2.1,0.7,3.4s0.4,2.9,0.6,4.5c0.3,3.3,0.5,7.2,0.6,11.4
	c0.1,2.1,0.1,4.2,0.3,6.4c0.1,2.2,0.3,4.4,1,6.4c0.3,1,0.8,1.9,1.5,2.7c0.7,0.7,1.6,1.2,2.6,1.6c2,0.7,4.1,1.2,6.1,1.8
	c4,1,7.8,2,11,2.6c3.3,0.7,6,1.2,7.9,1.5s3,0.5,3,0.5s-1.1-0.1-3-0.3c-1.9-0.2-4.7-0.6-8-1.2s-7.1-1.3-11.1-2.3
	c-2-0.5-4.1-1-6.2-1.7c-1.1-0.4-2.1-0.9-3-1.8c-0.8-0.8-1.4-1.9-1.8-3c-0.7-2.2-0.8-4.5-0.9-6.7s-0.2-4.3-0.2-6.4
	c-0.1-4.2-0.1-8-0.3-11.3c-0.1-1.7-0.2-3.2-0.4-4.5c-0.2-1.3-0.3-2.5-0.5-3.5s-0.3-1.7-0.4-2.2C264.7,203.4,264.7,203.1,264.7,203.1
	L264.7,203.1z M268.7,241.4c0,0,0.1,0,0.3,0.2c0.1,0.2,0.1,0.6-0.2,1c-0.2,0.4-0.7,0.8-1.1,1.2c-0.5,0.4-1,0.9-1.6,1.4
	c-1.2,1-2.5,2.1-4,3.3c-1.5,1.2-3.1,2.5-4.7,3.7s-3.2,2.5-4.7,3.6c-1.5,1.2-3,2.2-4.2,3.1s-2.3,1.6-3,2.1s-1.2,0.8-1.2,0.8
	s0.4-0.3,1-0.9c0.7-0.6,1.6-1.4,2.8-2.4c1.2-1,2.5-2.1,4-3.3c1.5-1.2,3.1-2.5,4.7-3.7s3.2-2.5,4.7-3.6c1.5-1.2,3-2.2,4.2-3.1
	c0.6-0.5,1.2-0.9,1.7-1.2c0.5-0.4,1-0.6,1.2-1c0.3-0.3,0.4-0.7,0.3-0.9C268.9,241.4,268.7,241.4,268.7,241.4L268.7,241.4z"/>
<path class="st5" d="M194.8,330.6c-1.9,2.9-2.6,7.1-3.3,10.1c-1.7,7.5-3.7,14.9-5.9,22.2c-0.9,2.9-1.9,5.8-2,8.8
	c-0.2,2.9,0.4,5.5,1.1,8.1c2.3,8.8,6.3,17.4,13.4,19.7c2.4,0.8,5,0.8,7.5,0.9c11.7,0.8,22.6,5.6,34.3,6.4c2.7,0.2,5.5,0.1,8.2-1.5
	c4.8-2.9,7.4-9.8,9.1-16.1c2.5-9.5,4-19.2,7.5-28.4c1.2-3,2.6-6.4,1.9-9.3c-0.7-3.1-13.5-11.1-17.4-14c-3.3-2.4-8.2-3.1-12-4
	c-6.3-1.4-12.6-2.4-19-3.3c-5.6-0.8-11.8-2.5-17.4-2.7C198,327.3,196.1,328.6,194.8,330.6L194.8,330.6z"/>
<path d="M194.1,331.2c0,0,0.8,1,2.2,2.7c1.4,1.7,3.4,4.2,5.8,7.1s5.1,6.5,8.6,9.6c1.8,1.5,3.8,2.9,6,3.8c2.3,0.9,4.7,1.3,7.2,1.5
	s5,0.1,7.5,0.1s4.9-0.1,7.3-0.1c4.7-0.1,9.2,0,12.9-0.4c3.8-0.3,6.9-0.8,9-1.4c2.1-0.5,3.4-0.9,3.4-0.9l-0.9,0.3
	c-0.6,0.2-1.4,0.5-2.4,0.8c-2.1,0.6-5.2,1.4-9,1.7c-3.8,0.4-8.2,0.5-13,0.7c-2.4,0.1-4.8,0.1-7.3,0.2s-5,0.1-7.6,0
	c-2.6-0.2-5.1-0.6-7.5-1.6c-2.4-0.9-4.5-2.4-6.3-4s-3.3-3.3-4.7-5c-1.4-1.7-2.6-3.3-3.8-4.8c-2.3-3-4.2-5.6-5.5-7.3
	C194.8,332.2,194.1,331.2,194.1,331.2L194.1,331.2z M214.5,354.9c0,0-1,2.4-2.5,6.1c-0.8,1.8-1.6,4-2.5,6.2
	c-0.9,2.3-1.8,4.7-2.7,7.2c-0.9,2.5-1.8,4.9-2.6,7.2s-1.6,4.5-2.2,6.3c-1.3,3.7-2.1,6.2-2.1,6.2s0.1-0.6,0.4-1.8
	c0.3-1.1,0.6-2.7,1.2-4.6c0.5-1.9,1.1-4.1,1.9-6.5l1.2-3.6c0.4-1.2,0.9-2.5,1.3-3.7c0.9-2.5,1.9-4.9,2.9-7.2s1.9-4.4,2.8-6.1
	c0.8-1.8,1.6-3.2,2.1-4.3C214.2,355.5,214.5,354.9,214.5,354.9L214.5,354.9z"/>
<path class="st5" d="M318.1,270.3c0.4,0.4,0.8,0.7,1.2,1.2c0.9,1.2,1.5,2.6,2.1,4c4.4,11.2,4.7,19.8,6.2,31.5c0.3,2.7,0.6,5.5-0.3,8
	c-1.4,4-5.4,6.4-8.4,9.4c-4.2,4.1-6.6,9.6-9.8,14.5s-7.7,9.6-13.5,10.3c-2.3,0.3-4.7-0.1-7-0.4c-5.1-0.8-10.3-1.6-15.4-2.4
	c-5.9-0.9-12.1-2-16.9-5.5c-7.1-5.3-9.5-14.7-11.3-23.3c-1.5-6.9-3-14.4-0.1-20.8c1.3-2.9,3.4-5.4,5.4-7.9
	c3.8-4.5,7.6-8.9,11.3-13.4c12-14.2,35.4-13.4,51.3-7.7C314.8,268.3,316.6,269.1,318.1,270.3L318.1,270.3z"/>
<path d="M276.9,270.8c0,0,0.4,0.9,1.1,2.4s1.8,3.7,3,6.4s2.6,5.7,4.1,9.1c0.7,1.7,1.5,3.4,2.3,5.1s1.5,3.5,2.3,5.3
	c0.8,1.7,1.7,3.4,3,4.6s3,2,4.7,2.4c1.7,0.5,3.4,0.8,5.1,1.2c1.6,0.3,3.2,0.7,4.6,1c2.8,0.6,5.2,1.2,6.9,1.5
	c1.7,0.4,2.6,0.6,2.6,0.6s-1-0.2-2.6-0.4c-1.7-0.3-4.1-0.7-6.9-1.2c-1.4-0.3-3-0.5-4.6-0.8s-3.4-0.5-5.2-1c-1.8-0.5-3.6-1.2-5.1-2.6
	s-2.5-3.1-3.3-4.9s-1.5-3.6-2.3-5.3c-0.7-1.8-1.5-3.5-2.2-5.2c-1.4-3.3-2.7-6.5-3.8-9.2c-1.1-2.7-2-4.9-2.6-6.5
	C277.3,271.7,276.9,270.8,276.9,270.8z M292.4,304.8c0,0-0.4,0.5-1,1.4s-1.5,2.1-2.7,3.5c-1.1,1.4-2.5,3.1-3.9,4.9
	c-1.5,1.8-3.1,3.6-4.7,5.5c-1.6,1.8-3.3,3.7-4.9,5.3c-1.6,1.7-3.1,3.2-4.4,4.5s-2.4,2.4-3.2,3.1c-0.8,0.7-1.2,1.2-1.2,1.2
	s0.4-0.5,1.1-1.3s1.7-2,2.9-3.4c2.4-2.8,5.7-6.4,8.9-10.1c3.2-3.7,6.5-7.3,8.9-10.1c1.2-1.4,2.3-2.5,3-3.3L292.4,304.8L292.4,304.8z
	"/>
<path class="st5" d="M169.7,273.1c-1.5,4.6-0.1,9.7,1.3,14.3c3.6,11.8,7.7,24.5,17.6,31.9c7.1,5.3,16.1,7.1,24.8,8.7
	c2.6,0.5,5.4,1,7.8-0.1c2.3-1,3.8-3.2,5.2-5.3c4.2-6.4,8.4-12.7,12.5-19.1c3.3-5,6.7-10.4,6.4-16.4c-0.2-4.3-2.3-8.4-4.3-12.2
	c-3.1-5.9-6.3-11.7-9.4-17.6c-0.9-1.7-1.8-3.4-3.3-4.7c-1.7-1.5-4-2.3-6.3-2.9c-9.4-2.6-22.5-6.9-31.1-0.6
	C184.2,254.1,172.3,265.1,169.7,273.1L169.7,273.1z"/>
<path d="M177.5,276.5c0,0,0.1,0.2,0.4,0.6s0.7,0.9,1.4,1.5s1.5,1.2,2.6,1.8c1.1,0.6,2.4,1.1,3.8,1.8c1.4,0.6,2.9,1.4,4.4,2.5
	s2.8,2.3,4.3,3.5c1.5,1.1,3.2,2.1,5.1,2.2s3.8-0.7,5.3-2c1.6-1.2,2.9-2.8,4-4.4c1.2-1.6,2.3-3.3,3.3-4.9c2.2-3.2,4.2-6.1,6-8.6
	s3.3-4.6,4.3-6c1.1-1.5,1.7-2.3,1.7-2.3s-0.5,0.9-1.5,2.4s-2.3,3.7-4,6.3c-1.7,2.6-3.6,5.6-5.7,8.8c-1.1,1.6-2.1,3.3-3.3,4.9
	c-1.2,1.6-2.5,3.3-4.2,4.6c-0.8,0.6-1.8,1.2-2.8,1.6l-0.8,0.3l-0.8,0.2c-0.5,0.1-1.1,0.1-1.6,0.1c-2.2-0.1-4.1-1.2-5.6-2.4
	s-2.8-2.5-4.2-3.6c-1.4-1.1-2.8-1.8-4.2-2.5c-1.4-0.7-2.6-1.3-3.7-2s-2-1.3-2.6-2c-0.6-0.6-1-1.2-1.3-1.6
	C177.6,276.7,177.5,276.5,177.5,276.5L177.5,276.5z M200.8,293.1c0,0,0.4,0.3,1.1,0.8c0.4,0.2,0.7,0.6,1.2,1
	c0.2,0.2,0.5,0.4,0.7,0.7c0.2,0.2,0.5,0.5,0.7,0.8c0.5,0.6,1,1.2,1.5,1.9s1,1.5,1.5,2.2c0.5,0.8,1,1.6,1.4,2.5
	c0.5,0.9,0.9,1.7,1.4,2.6c0.9,1.8,1.8,3.5,2.7,5.1c0.5,0.8,0.9,1.6,1.3,2.3c0.5,0.7,0.9,1.4,1.3,2c0.2,0.3,0.4,0.6,0.6,0.8
	c0.2,0.3,0.4,0.5,0.6,0.7c0.4,0.5,0.7,0.9,1.1,1.1l1,1c0,0-0.4-0.3-1.1-0.8c-0.4-0.3-0.8-0.6-1.2-1c-0.2-0.2-0.5-0.4-0.7-0.7
	c-0.2-0.2-0.5-0.5-0.7-0.8c-0.5-0.6-1-1.2-1.5-1.9s-1-1.5-1.5-2.2c-0.5-0.8-1-1.6-1.4-2.5c-0.5-0.9-0.9-1.7-1.4-2.6
	c-0.9-1.8-1.8-3.5-2.7-5.1c-0.5-0.8-0.9-1.6-1.3-2.3c-0.5-0.7-0.9-1.4-1.3-2c-0.2-0.3-0.4-0.6-0.6-0.8c-0.2-0.3-0.4-0.5-0.6-0.7
	c-0.4-0.5-0.7-0.9-1.1-1.1C201.2,293.4,200.8,293.1,200.8,293.1z"/>
</svg>
