<?xml version="1.0" encoding="utf-8"?>
<!-- Generator: Adobe Illustrator 19.2.0, SVG Export Plug-In . SVG Version: 6.00 Build 0)  -->
<svg version="1.1" id="Layer_1" xmlns="http://www.w3.org/2000/svg" xmlns:xlink="http://www.w3.org/1999/xlink" x="0px" y="0px"
	 viewBox="0 0 450 301" style="enable-background:new 0 0 450 301;" xml:space="preserve">
<style type="text/css">
	.st0{fill:none;stroke:#000000;stroke-width:5;stroke-miterlimit:10;}
	.st1{opacity:0.9;fill:url(#SVGID_1_);enable-background:new    ;}
	.st2{fill:url(#SVGID_2_);}
	.st3{fill:none;stroke:#000000;stroke-width:2;stroke-miterlimit:10;}
</style>
<path class="st0" d="M6583.6-969.6c0.3,38.5,0.2,82.4-5.7,120.5c-2.3,14.7-3.7,31.7-10.6,44.9c-9.4,17.9-18.6,35.9-34,49.5
	c-5.5,4.9-11.5,9.2-17.9,12.8c-4.2,2.3-15.3,5.1-15.9,10.8c-0.4,3.6,3.8,5.7,6.9,7.6c6.9,4.3,10.9,12.3,11.6,20.4
	c1.5,15.4-5.6,30.7-18.9,38.8c-0.8,0.5-1.6,1-1.9,1.8c-0.7,2.1,2.1,3.4,4.2,3.8c12.1,2.1,24,5,35.7,8.7c7.7,2.4,24.3,10.6,12,18.5
	c-7.7,4.9-17,6.2-26,7.3c-24.7,3.1-49.7,6.2-74.5,3.9c-5.6-0.5-11.2-1.4-16.8-2.2l-22.5-3.3c-5.3-0.8-11.8-2.7-12.7-7.9
	c-1.7-10.2,16.6-15.1,23.6-17.2c4.9-1.5,36.5-4.6,35.6-9.3c-0.5-2.4-2.8-3.9-4.8-5.4c-8.9-6.4-15-16.4-16.6-27.2
	c-1.6-10.8,1.3-22.2,7.9-30.9c2.2-2.9,4.9-6,4.4-9.6c-0.2-1.5-1-2.9-2-4.1c-5.1-6.7-15.9-9.5-22.8-14.7c-7.9-6-15.2-12.8-21.6-20.4
	c-12.5-14.5-22.1-31.5-27.6-49.9c-5.2-17.2-6.9-35.3-8.2-53.2c-2.3-31-3.6-62-3.8-93.1c20.2-2.4,42-1.8,62.4-1.4
	C6475.9-969,6583.6-971.7,6583.6-969.6L6583.6-969.6z"/>
<path d="M6457-654.7v1.9c0,0.6,0.1,1.3,0.6,1.9c0.4,0.6,1.2,0.8,2.2,0.8c2.1-0.1,4.5-0.2,7.1-0.2c1.3,0,2.7-0.1,4-0.1
	c1.4-0.1,2.8-0.1,4.1-0.2c1.4-0.1,2.8-0.1,4.1-0.2c1.4-0.1,2.7-0.1,4-0.2c2.6-0.1,5-0.2,7.1-0.3c2-0.1,3.7-0.6,4.6-1.3
	c0.4-0.4,0.7-0.8,0.8-1.1c0.1-0.3,0.2-0.5,0.2-0.5v0.5c-0.1,0.3-0.2,0.8-0.6,1.3s-1.1,1-1.9,1.4c-0.8,0.4-1.8,0.7-2.8,0.8
	c-2.1,0.4-4.5,0.7-7.1,0.9c-1.3,0.1-2.7,0.3-4,0.4c-1.4,0.1-2.8,0.2-4.2,0.2c-1.4,0-2.8,0.1-4.2,0.1h-4.1c-2.6-0.1-5.1-0.2-7.2-0.4
	c-0.5-0.1-1.1-0.1-1.6-0.4s-0.9-0.7-1.1-1.1c-0.4-0.9-0.4-1.7-0.3-2.3c0.1-0.6,0.2-1.1,0.3-1.4C6456.9-654.5,6457-654.7,6457-654.7
	L6457-654.7z M6456.6-739.3c0,0,0.6,0.2,1.6,0.5c0.5,0.2,1.2,0.3,1.9,0.5s1.6,0.4,2.4,0.5c0.9,0.2,1.9,0.3,2.9,0.5
	c1,0.1,2.1,0.2,3.3,0.3c1.1,0.1,2.3,0.1,3.5,0.2h3.6c1.2,0,2.5,0,3.7-0.1c1.2,0,2.4-0.1,3.6-0.1c2.3-0.1,4.5-0.1,6.3-0.3
	s3.2-0.6,4.1-1.2c0.4-0.3,0.8-0.6,1-0.8l0.3-0.3c0,0-0.1,0.1-0.2,0.4c-0.2,0.3-0.4,0.6-0.8,1c-0.8,0.8-2.3,1.6-4.2,2
	c-0.9,0.2-2,0.4-3,0.5c-1.1,0.1-2.2,0.3-3.3,0.4l-3.6,0.3c-1.2,0.1-2.5,0.1-3.7,0.2c-1.3,0-2.5,0-3.7-0.1c-0.6,0-1.2-0.1-1.8-0.1
	c-0.6-0.1-1.2-0.1-1.8-0.2c-1.2-0.1-2.3-0.4-3.4-0.6c-0.5-0.1-1-0.3-1.5-0.4c-0.5-0.2-1-0.3-1.4-0.4c-1.8-0.6-3.2-1.3-4.2-1.8
	C6457.2-739,6456.6-739.3,6456.6-739.3L6456.6-739.3z M6406.5-637.2l0.3,0.3c0.2,0.2,0.5,0.4,1,0.6c0.9,0.5,2.3,1,4.2,1.4
	c1.9,0.4,4.2,0.7,6.8,1.1c2.6,0.4,5.6,0.7,8.9,1.1c3.3,0.3,6.8,0.7,10.6,1c3.7,0.3,7.7,0.5,11.8,0.7c8.2,0.3,17,0.5,25.7,0.6
	c4.4,0.1,8.8,0.1,13.1,0.2c4.3,0,8.5,0.1,12.6,0c4.1-0.1,8-0.4,11.7-0.8c3.7-0.5,7.2-1.1,10.4-1.7c6.4-1.4,11.6-3,15.2-4.3
	c1.8-0.7,3.2-1.2,4.2-1.6l1.5-0.6c0,0-0.5,0.2-1.4,0.7c-0.9,0.4-2.3,1.1-4.1,1.8c-3.5,1.5-8.7,3.5-15.1,5.1
	c-6.4,1.6-14.1,2.9-22.3,3.2c-4.1,0.2-8.4,0.2-12.7,0.2c-4.3,0-8.7-0.1-13.1-0.1c-4.4-0.1-8.8-0.2-13.1-0.3
	c-4.3-0.1-8.6-0.4-12.7-0.6c-4.1-0.3-8.1-0.6-11.8-1c-3.8-0.4-7.3-0.8-10.6-1.3c-1.6-0.3-3.2-0.5-4.7-0.7c-1.5-0.3-2.9-0.5-4.2-0.8
	c-2.6-0.5-4.9-1-6.8-1.5s-3.3-1.1-4.1-1.7c-0.4-0.3-0.7-0.5-0.9-0.7C6406.6-637.1,6406.5-637.2,6406.5-637.2L6406.5-637.2z"/>
<linearGradient id="SVGID_1_" gradientUnits="userSpaceOnUse" x1="6373.7998" y1="-1354.7888" x2="6579.7002" y2="-1354.7888" gradientTransform="matrix(1 0 0 1 0 507)">
	<stop  offset="1.800000e-02" style="stop-color:#801FE3"/>
	<stop  offset="1" style="stop-color:#B7A7FF"/>
</linearGradient>
<path class="st1" d="M6373.8-941.4c1.4,24.4,2.7,48.8,4.1,73.2c0.4,7.9,0.9,15.9,2.2,23.7c1.8,11.1,5.4,21.8,8.9,32.5
	c3,9.1,6,18.2,11.1,26.3c17.8,28.1,51.5,32.7,81.9,31.3c10.6-0.5,21.3-1.5,31.5-4.7c66.9-21.3,65.2-117,66.1-172.7
	c0-2.6,0.1-5.1,0.1-7.7C6511-937.3,6442.2-935.5,6373.8-941.4L6373.8-941.4z"/>
<path d="M6368.7-961.1c0,0,0.6,8.1,1.5,22.2c0.5,7.1,1,15.6,1.7,25.5c0.6,9.8,1.4,20.9,2.1,33.1c0.4,6.1,0.7,12.4,1.3,18.9
	c0.5,6.5,1.4,13.2,3,19.9c1.6,6.7,3.7,13.5,6,20.4c2.4,6.9,4.5,14,7.5,20.9c0.8,1.7,1.5,3.4,2.4,5.1c0.9,1.6,1.8,3.3,2.8,4.8
	c1.1,1.6,2.2,3.1,3.4,4.7c1.2,1.4,2.5,2.8,3.7,4.3c5.3,5.5,11.7,10,18.8,13.2c7.1,3.3,14.8,5.4,22.6,6.6c7.9,1.3,15.9,1.7,23.9,1.7
	c8-0.1,16.1-0.4,24-1.5c3.9-0.5,7.9-1.2,11.7-2.2c1-0.3,1.9-0.5,2.8-0.8l0.7-0.2h0.1l0.2-0.1l0.4-0.1l1.4-0.5l2.8-1
	c0.5-0.2,0.9-0.3,1.4-0.5l1.3-0.6c7.1-3.1,13.7-7.4,19.4-12.5c5.7-5.1,10.5-11.1,14.4-17.5c4-6.3,7.1-13.1,9.7-19.8
	c2.6-6.8,4.6-13.6,6.3-20.3c3.2-13.5,5-26.5,6.2-38.5c1.1-12.1,1.7-23.2,2-33c0.3-9.9,0.5-18.4,0.7-25.5c0.2-14.2,0.4-22.2,0.4-22.2
	s0,2,0.1,5.8c0,3.8,0.1,9.4,0.2,16.4c0,7.1,0,15.7-0.2,25.5c-0.1,9.9-0.5,21-1.5,33.1c-1,12.1-2.6,25.2-5.7,38.9
	c-1.6,6.8-3.6,13.7-6.1,20.6c-2.5,6.9-5.7,13.8-9.8,20.3c-4,6.5-9,12.7-14.8,18.1c-5.9,5.4-12.7,9.8-20.2,13.1l-1.4,0.6
	c-0.5,0.2-0.9,0.4-1.4,0.5l-2.8,1l-1.4,0.5l-0.4,0.1l-0.2,0.1l-0.2,0.1l-0.7,0.2c-1,0.3-2,0.6-2.9,0.8c-3.9,1-8,1.8-12,2.4
	c-8.1,1.1-16.2,1.5-24.4,1.6c-8.2,0-16.3-0.5-24.4-1.8c-8-1.3-16-3.5-23.3-7c-7.4-3.4-14.1-8.1-19.6-13.9c-1.3-1.5-2.6-3.1-3.9-4.6
	c-1.1-1.6-2.2-3.2-3.3-4.7c-2.2-3.4-3.9-6.8-5.4-10.4c-3-7.1-5.2-14.2-7.5-21.2c-2.2-7-4.3-13.9-5.8-20.7
	c-1.6-6.9-2.4-13.6-2.8-20.2c-0.5-6.6-0.7-12.9-1-18.9c-0.6-12.1-1.1-23.2-1.6-33.1c-0.5-9.9-0.8-18.4-1.2-25.5
	C6369-953.1,6368.7-961.1,6368.7-961.1L6368.7-961.1z"/>
<path d="M6369.1-945.7c0,0,0.8,0,2.4,0.1s3.8,0.2,6.7,0.3c2.9,0.2,6.4,0.3,10.5,0.5c4,0.2,8.6,0.3,13.6,0.5s10.4,0.3,16.1,0.5
	s11.7,0.2,17.9,0.4c6.2,0.1,12.6,0.1,19.2,0.2c6.5,0.1,13.2,0,19.8,0.1c6.6,0,13.3,0,19.8-0.1s13-0.1,19.2-0.2
	c12.5-0.1,24.1-0.2,34-0.3c10-0.1,18.3-0.1,24.1-0.1h9.1c0,0-0.8,0.1-2.4,0.2c-1.6,0.1-3.8,0.2-6.7,0.4c-5.8,0.3-14.1,0.8-24.1,1.3
	s-21.6,0.9-34,1.3c-6.2,0.1-12.7,0.4-19.2,0.4c-6.5,0.1-13.2,0.1-19.8,0.2c-6.6,0-13.3,0-19.8-0.2c-6.5-0.1-13-0.3-19.2-0.4
	c-6.2-0.2-12.3-0.4-18-0.8c-2.9-0.2-5.6-0.3-8.3-0.5c-2.7-0.2-5.3-0.4-7.8-0.5c-2.5-0.2-4.9-0.3-7.1-0.5c-2.3-0.2-4.4-0.4-6.4-0.6
	c-4-0.4-7.6-0.7-10.4-1c-2.9-0.3-5.2-0.6-6.7-0.7C6369.9-945.6,6369.1-945.7,6369.1-945.7L6369.1-945.7z"/>
<linearGradient id="SVGID_2_" gradientUnits="userSpaceOnUse" x1="110.0462" y1="-311.7404" x2="330.744" y2="-311.7404" gradientTransform="matrix(1 0 0 1 0 507)">
	<stop  offset="0" style="stop-color:#EFBF20"/>
	<stop  offset="1" style="stop-color:#AA3800"/>
</linearGradient>
<path class="st2" d="M330.6,229.2c0.6-4.9-0.8-9.7-1.9-14.4c-1.2-5-2-10-2.5-15.1c-0.1,0.3-3.2-20.3-3.1-27.9
	c0.2-10.3,0.4-21.2,0.8-31.2h-0.1c-41.2,2-82.5,2-123.7-0.3c-4.7-0.3-9.4-0.4-14.1-0.2c-10.3,0.6-20.4,3.9-30.8,4.4
	c-13.8,0.6-27.2-3.9-40.3-8.7l-0.9-0.3c1.9,26.6,3.5,53.4-1.9,79.5c-1.6,7.6-4.7,18.1,2.5,23.6c1.6,1.2,3.6,2,5.4,2.7
	c15.8,5.7,32.3,9.1,49,9.9c16.5,0.8,32.7,4.1,49.5,3.8c19-0.3,37.6-4.3,56.4-5.8c11.2-0.9,22.2-3.1,33-6.1
	C316.2,240.7,329.3,240.2,330.6,229.2z"/>
<path class="st0" d="M355,6.6c-4.5,35.7-9.8,71.2-14.4,106.8c-5.6,43.6-3.7,86.9,10.7,128.6c2,5.8,6.7,19.4,6.7,21.6
	c0.1,5.6,0,11.8-3.6,16.2c-1.8,2.2-4.3,3.6-6.9,5c-34.4,18-194.6,14.9-221,9.8c-16.5-3.2-34.9-2.6-34.7-23.9
	c0.1-7.9,2.5-15.6,4.6-23.2c5.6-20.1,10.6-38.8,11.5-59.7c2.4-60.6-6.1-121.3-12.7-181.5C135.8,3.4,342.8,4.9,355,6.6L355,6.6z"/>
<path class="st3" d="M129.5,125c3.2,19.2,4.9,38.6,4.9,58.1c0,5.2-0.1,10.5,1.6,15.4c1.6,4.8,4.8,8.8,8.1,12.6
	c11.3,13.2,26.4,25.2,43.7,25.3c5.9,0,11.7-1.3,17.5-2.3c26.8-4.7,54.5-2.3,81.3-7.1c6.1-1.1,12.4-2.7,17.2-6.6
	c8.6-7.2,9.8-19.9,9.1-31.1c-1-16.8-4.6-33.5-3-50.2c0.5-5.6,1.4-11.9-2.2-16.2c-3.8-4.6-10.7-4.7-16.7-5.3
	c-11-1.3-21.3-5.9-32.1-8.6c-17.8-4.4-36.9-3-53.9,3.9c-22.6,9.1-47.9,3.4-72.1,7c-1,0.2-2.2,0.3-2.9,1.1
	C129.2,121.6,128.7,124.4,129.5,125L129.5,125z"/>
<path d="M131.2,126.9c0,0,2.6,1.2,7.1,3.4s10.9,5.2,18.5,9c3.8,1.9,8,3.9,12.4,5.9s9.2,3.8,14.3,5.3c2.5,0.7,5.1,1.4,7.8,1.8
	c2.7,0.4,5.4,0.7,8.1,0.8c5.5,0.2,11.1-0.5,16.6-1.5c5.6-1,11.1-2.3,16.5-3.6s10.8-2.6,16-3.9c5.2-1.2,10.2-2.4,14.9-3.6
	c8.2-1.9,16.3-4.3,24.3-7c3.3-1.2,6-2.3,8.3-3.3c4.6-2,7.1-3.3,7.1-3.3s-0.6,0.3-1.8,1c-1.2,0.6-2.9,1.6-5.1,2.7
	c-4.5,2.2-11,5-19.2,7.5c-8.2,2.6-17.8,5-28.1,7.6c-5.2,1.3-10.5,2.6-15.9,4s-10.9,2.8-16.6,3.8c-5.6,1-11.4,1.6-17.1,1.4
	c-2.8-0.1-5.6-0.4-8.4-0.9c-2.7-0.5-5.4-1.2-8-1.9c-5.2-1.5-9.9-3.6-14.4-5.7c-4.4-2.1-8.5-4.2-12.3-6.2c-7.6-3.9-13.8-7.3-18.2-9.6
	C133.7,128.3,131.2,126.9,131.2,126.9L131.2,126.9z M193.6,155.4c0,0-0.1,1.1-0.4,3.1s-0.6,4.7-1,8.1c-0.2,1.7-0.4,3.5-0.6,5.4
	s-0.4,3.9-0.6,6s-0.4,4.3-0.6,6.5s-0.4,4.4-0.5,6.7c-0.1,2.2-0.3,4.5-0.4,6.7s-0.2,4.4-0.3,6.5c-0.1,2.1-0.2,4.1-0.2,6.1
	c-0.1,1.9-0.1,3.8-0.2,5.4c-0.1,3.4-0.2,6.2-0.2,8.2s-0.1,3.1-0.1,3.1s-0.1-1.1-0.3-3.1c-0.1-1-0.2-2.2-0.3-3.5
	c-0.1-1.4-0.2-2.9-0.3-4.6c-0.2-3.4-0.3-7.3-0.2-11.6c0-2.1,0-4.3,0.2-6.5c0.1-2.2,0.2-4.5,0.4-6.7c0.2-2.3,0.4-4.5,0.6-6.7
	s0.5-4.4,0.8-6.5c0.6-4.2,1.2-8.1,1.9-11.4c0.3-1.7,0.6-3.2,0.9-4.5s0.6-2.5,0.8-3.5C193.3,156.4,193.6,155.4,193.6,155.4
	L193.6,155.4z"/>
<path d="M105.7,11.8c1.9,9.8,3.6,19.6,5,29.5s2.6,19.8,3.6,29.7c1,9.9,1.9,19.9,2.7,29.8c0.7,10,1.4,19.9,2.2,29.9
	s1.5,19.9,1.8,29.9s0.2,20-0.6,30.1c-0.2,2.5-0.5,5-0.8,7.5l-0.5,3.7c-0.2,1.2-0.4,2.5-0.6,3.7c-0.5,2.5-0.9,5-1.5,7.4
	c-0.5,2.4-1,4.8-1.2,7.2s-0.2,4.8,0.4,6.9c0.6,2.2,1.8,4.1,3.7,5.4c1.8,1.3,4.1,2.1,6.5,2.9c2.4,0.8,4.7,1.6,7.1,2.3
	c9.5,2.9,19.2,4.9,29,6c2.5,0.3,4.9,0.5,7.4,0.7l7.5,0.4c5,0.3,10,0.9,15,1.4c9.9,1.1,19.8,2.2,29.7,2.1c9.9-0.1,19.8-1.2,29.6-2.5
	c9.9-1.3,19.8-2.7,29.8-3.4c9.8-0.9,19.6-2.8,29.2-5.5c2.4-0.7,4.9-1.2,7.3-1.8c2.4-0.5,4.8-1.1,7-1.9c2.2-0.8,4.3-1.9,5.9-3.5
	c1.6-1.5,2.4-3.7,2.7-5.9c0.6-4.7-0.9-9.4-2-14.3s-1.9-9.9-2.4-14.9l2.3,0.4c-4.4,0.1-1.3-0.2-2.3-0.2v-0.4l-0.1-0.4l-0.1-0.7
	l-0.2-1.4l-0.4-2.8l-0.7-5.7c-0.5-3.8-0.9-7.6-1.1-11.4c-0.1-1.9-0.2-3.9-0.2-5.8l0.1-5.7l0.3-11.4c0.4-15.2,1.1-30.4,2.9-45.6
	c0.4-3.8,0.9-7.6,1.5-11.3c0.6-3.8,1.2-7.5,1.8-11.3l3.8-22.5c0.6-3.7,1.2-7.5,1.7-11.3c0.6-3.8,1-7.5,1.5-11.3
	c0.4-3.8,0.8-7.6,1.1-11.3c0.2-1.9,0.2-3.8,0.4-5.7l0.2-5.7l-0.1,5.7c-0.1,1.9-0.1,3.8-0.3,5.7c-0.2,3.8-0.5,7.6-0.9,11.4
	s-0.8,7.6-1.3,11.3c-0.5,3.8-1,7.5-1.6,11.3L334.1,81c-0.6,3.8-1.1,7.5-1.6,11.3s-1,7.5-1.3,11.3c-1.6,15.1-2.1,30.3-2.4,45.5
	l-0.2,11.4l-0.1,5.7c0,1.9,0.1,3.7,0.2,5.6c0.3,3.8,0.7,7.5,1.2,11.3l0.8,5.6l0.4,2.8l0.2,1.4l0.1,0.7l0.1,0.3v0.1
	c-1,0,2.1-0.3-2.3-0.2l2.3,0.4c0.5,4.9,1.3,9.8,2.4,14.6c0.6,2.4,1.2,4.8,1.7,7.4c0.5,2.5,0.7,5.2,0.4,7.8c-0.3,2.7-1.4,5.5-3.4,7.5
	s-4.4,3.3-6.8,4.2s-4.9,1.5-7.4,2.1c-2.5,0.5-4.8,1.1-7.2,1.8c-9.7,2.7-19.6,4.7-29.6,5.6c-9.9,0.8-19.8,2.2-29.7,3.5
	c-9.9,1.3-19.9,2.5-30,2.6s-20.1-1.1-30-2.2c-5-0.6-9.9-1.1-14.8-1.5l-7.5-0.5c-2.5-0.2-5-0.4-7.5-0.7c-10-1.2-19.9-3.3-29.5-6.2
	c-2.4-0.7-4.8-1.5-7.2-2.4c-2.3-0.8-4.8-1.6-7.1-3.3c-2.3-1.6-3.9-4.1-4.6-6.8c-0.8-2.7-0.7-5.3-0.5-7.9c0.3-2.6,0.8-5.1,1.3-7.5
	c0.6-2.4,1-4.9,1.5-7.3c0.5-2.4,0.8-4.9,1.2-7.3c0.3-2.5,0.6-4.9,0.8-7.4c0.9-9.9,1.1-19.8,0.9-29.8c-0.2-10-0.8-19.9-1.5-29.9
	s-1.3-19.9-1.9-29.9c-0.6-10-1.3-19.9-2.2-29.8s-1.9-19.9-3.1-29.8C108.8,31.5,107.4,21.6,105.7,11.8L105.7,11.8z"/>
<path d="M119,130.7c0,0,0.8,0.2,2.3,0.7s3.6,1.2,6.4,2c2.8,0.8,6.1,1.8,10,2.7c3.9,0.9,8.3,1.8,13.1,2.2c4.8,0.5,10.1,0.3,15.7-0.5
	c5.6-0.7,11.4-1.9,17.6-2.7c3.1-0.4,6.2-0.6,9.4-0.5c3.2,0,6.4,0.2,9.6,0.4c3.2,0.1,6.5,0.3,9.8,0.4c3.3,0.1,6.6,0.2,9.8,0.2
	c6.6,0.1,13.1,0.2,19.6,0.3s12.8,0.1,19,0.1H295c19.7-0.2,32.9-0.3,32.9-0.3v0.2c0,0-3.3,0.3-9,0.7c-2.9,0.2-6.4,0.4-10.4,0.6
	c-4,0.2-8.5,0.4-13.5,0.6c-4.9,0.2-10.3,0.3-15.9,0.4c-2.8,0-5.7,0.1-8.7,0.1s-6,0-9.1-0.1c-6.2-0.1-12.5-0.2-19-0.4s-13-0.5-19.6-1
	c-6.6-0.4-13.1-0.8-19.6-1.2c-3.2-0.2-6.4-0.3-9.6-0.3s-6.3,0.4-9.3,0.9c-6.1,1-11.8,2.5-17.5,3.3c-5.6,0.9-11.1,1-16.1,0.4
	c-5-0.5-9.4-1.5-13.3-2.6s-7.2-2.2-9.9-3.2s-4.8-1.8-6.2-2.4c-1.4-0.6-2.2-0.9-2.2-0.9L119,130.7L119,130.7z"/>
</svg>
