<?xml version="1.0" encoding="utf-8"?>
<!-- Generator: Adobe Illustrator 19.2.0, SVG Export Plug-In . SVG Version: 6.00 Build 0)  -->
<svg version="1.1" id="Layer_1" xmlns="http://www.w3.org/2000/svg" xmlns:xlink="http://www.w3.org/1999/xlink" x="0px" y="0px"
	 viewBox="0 0 460 365" style="enable-background:new 0 0 460 365;" xml:space="preserve">
<style type="text/css">
	.st0{opacity:0.71;fill:#D7D7D5;enable-background:new    ;}
	.st1{fill:none;stroke:#000000;stroke-width:5;stroke-miterlimit:10;}
</style>
<path class="st0" d="M319.2,60.5c-68.3,0-206.5,4.7-207.4,4c-1.1,74.5,5.4,149.1,19.1,222.3c2.6,14,6.1,28.9,16.9,38.2
	c13.9,12,33,10.5,50,12.3c21.4,2.2,43.1,0.9,64.1-3.7c11.4-2.5,26.1-6.1,34.1-15.1c9.1-10.2,13.4-27,15.9-40
	c7.2-37.9,5.4-78.4,7.1-116.9c1.4-33.9,3.1-67.8,5.1-101.6C322.6,60.4,320.9,60.5,319.2,60.5L319.2,60.5z"/>
<path class="st1" d="M417.6,81.6c-3.3-6.2-6.7-12.5-11.3-17.9c-8.9-10.3-22.3-16.6-35.9-16.8c-13.6-0.2-27.2,5.6-36.4,15.7
	c-0.6-17.3,1.3-33.8-0.2-54.3c0-0.1-0.1-0.2-0.2-0.2c-34.1,6.5-213.3,0.6-238.5,3.1c-5.9,0,0.5,144.9,1.7,157.5
	c2.3,25.5,5.6,51,10,76.3c3.7,21.6,5.7,41.4,13.4,61.9c1,2.8,2.1,5.6,2.6,8.5c0.5,2.6,0.5,5.3,0.8,7.9c1.7,15.2,11.1,21.3,24.4,26.9
	c46.1,19.3,96.3,13.6,141.4-7c10.6-4.8,21.8-11.8,24.5-23.1c1.1-4.7,0.6-9.6,1.2-14.4c1.5-12.8,10.5-23.9,11.9-36.7
	c27-14.6,55.6-25.1,73.3-50.2c20.5-29.2,29.2-49.3,29.2-97.3C429.4,113.9,421.2,88.3,417.6,81.6L417.6,81.6z M406.7,137.8
	c-0.5,8.5-3,16.7-6.1,24.7c-9.4,24.4-23.8,47.4-44.1,63.9c-9.1,7.4-20.3,13.7-31.9,12.2c1-30.5,2.1-61,3.1-91.6
	c0.8-23.1,11-73.5,42.8-73.1c12.9,0.1,21.6,13.1,26.9,24.9C403,111,407.5,124.3,406.7,137.8z"/>
<path d="M146.5,308.6c0,0-1.7-7.3-4.8-20.1c-1.5-6.4-3.3-14.2-5.2-23.1c-1-4.5-1.9-9.3-3-14.3c-0.9-5.1-2-10.4-2.9-15.9
	c-1-5.6-1.8-11.4-2.7-17.4c-0.7-6-1.5-12.3-2.1-18.7c-1.1-12.9-1.7-26.6-1.1-40.7c0.6-14.1,2.2-28.7,5.6-43.2
	c1.8-7.2,4.1-14.4,7.7-21.2c1.8-3.4,3.9-6.6,6.3-9.6c0.6-0.7,1.2-1.5,1.9-2.2c0.6-0.7,1.3-1.5,2.2-2.1c0.4-0.3,1-0.6,1.5-0.8
	c0.3-0.1,0.6-0.2,0.9-0.2h0.9c1.2,0.1,2.2,0.5,3.1,1c0.2,0.1,0.4,0.3,0.7,0.4c0.3,0.2,0.4,0.3,0.6,0.4l1.1,0.8
	c0.4,0.3,0.8,0.7,1.1,1c0.4,0.3,0.8,0.7,1.1,1c0.7,0.7,1.3,1.4,1.9,2.2c0.6,0.8,1.1,1.6,1.6,2.4c2,3.3,3.3,7,4.2,10.7
	c1.8,7.4,2.3,14.9,3,22.3c1.5,14.7,2.9,29.2,4.3,43.2c2.7,28.1,5.3,54.2,7.4,76.7c1.1,11.2,2.1,21.5,2.8,30.7c0.7,9.1,1,17.1,1,23.7
	c0,6.6-0.3,11.7-0.5,15.3c-0.2,3.5-0.4,5.4-0.4,5.4s0.2-1.9,0.3-5.4c0.2-3.5,0.4-8.7,0.3-15.3s-0.5-14.5-1.4-23.7
	c-0.8-9.1-2-19.4-3.2-30.6c-2.4-22.4-5.1-48.6-8-76.6c-1.4-14-2.9-28.5-4.4-43.2c-0.8-7.4-1.3-14.8-3.1-22c-0.9-3.6-2.1-7.1-4-10.2
	c-0.5-0.8-1-1.5-1.5-2.2s-1.1-1.4-1.7-2c-0.3-0.4-0.6-0.6-1-0.9c-0.3-0.3-0.6-0.6-1-0.9l-1.1-0.8l-0.5-0.4l-0.6-0.3
	c-0.7-0.4-1.5-0.7-2.2-0.8c-0.7,0-1.4,0.2-2,0.6c-1.3,0.9-2.5,2.5-3.7,3.9c-2.3,2.9-4.3,6-6.1,9.2c-3.5,6.5-5.8,13.6-7.6,20.7
	c-3.3,14.3-5.1,28.8-5.6,42.8c-0.6,14-0.2,27.6,0.8,40.5c0.5,6.4,1.2,12.7,1.9,18.7c0.8,6,1.6,11.8,2.5,17.4
	c0.8,5.6,1.9,10.9,2.7,15.9c0.9,5,1.8,9.8,2.7,14.3c1.8,9,3.5,16.8,4.8,23.2C144.9,301.3,146.5,308.6,146.5,308.6L146.5,308.6z
	 M195.3,313.8c0,0-0.2-1.8-0.6-5.3s-0.9-8.5-1.5-15s-1.3-14.3-2-23.4c-0.6-9-1.2-19.2-1.6-30.4c-0.4-11.1-0.7-23.2-0.7-36
	s0.2-26.3,0.9-40.2c0.8-13.9,2.3-28.4,6.3-42.6c1-3.5,2.3-7.1,3.8-10.4c1.5-3.4,3.3-6.7,5.4-9.8c2.1-3.1,4.5-6.1,7.3-8.6
	c2.8-2.6,6-4.7,9.5-6.3c0.4-0.2,0.9-0.4,1.3-0.6l1.4-0.4l1.4-0.4c0.5-0.1,0.9-0.2,1.4-0.3c0.9-0.2,1.9-0.4,2.8-0.5
	c1-0.1,1.9-0.2,2.9-0.1c2,0.1,3.9,0.4,5.8,1.2c1.8,0.8,3.5,2.2,4.6,3.9c1.2,1.6,1.9,3.5,2.4,5.3c0.5,1.9,0.8,3.7,1,5.6
	c0.4,3.7,0.6,7.3,1,11c1,14.6,1.1,29.1,0.6,43c-0.4,14-1.6,27.4-2.7,40.1s-2.2,24.7-3.2,35.8c-0.5,5.6-0.9,10.9-1.3,15.9
	c-0.2,2.5-0.4,5-0.6,7.4c-0.1,2.4-0.3,4.7-0.4,7s-0.3,4.4-0.4,6.6c-0.1,2.1-0.2,4.1-0.2,6.1c-0.1,2-0.1,3.8-0.2,5.6
	c0,1.8,0,3.5-0.1,5.1c0,3.2-0.1,6.2,0,8.7s0.1,4.7,0.1,6.4c0.1,3.5,0.1,5.3,0.1,5.3s-0.1-1.9-0.2-5.3c-0.1-1.7-0.2-3.9-0.3-6.4
	c-0.1-2.5-0.1-5.4-0.1-8.7V278c0-1.8,0.1-3.7,0.1-5.6c0-2,0.1-4,0.1-6.1c0.1-2.1,0.2-4.3,0.3-6.6c0.1-2.3,0.2-4.6,0.3-7
	c0.1-2.4,0.3-4.9,0.4-7.4c0.3-5.1,0.7-10.4,1.1-16c0.9-11.1,1.9-23.1,2.9-35.9c0.3-3.2,0.5-6.4,0.7-9.7s0.5-6.6,0.7-9.9
	c0.2-3.3,0.4-6.7,0.6-10.1c0.1-3.4,0.3-6.9,0.4-10.3c0.4-13.9,0.4-28.3-0.7-42.8c-0.3-3.6-0.6-7.3-1-10.9s-1.1-7.2-3.1-10
	c-1-1.4-2.3-2.5-3.8-3.2s-3.3-1-5-1c-0.9,0-1.8,0-2.6,0.1c-0.9,0.1-1.8,0.3-2.6,0.5c-0.4,0.1-0.9,0.2-1.3,0.3l-1.3,0.4l-1.3,0.4
	c-0.4,0.1-0.8,0.4-1.2,0.5c-3.3,1.4-6.3,3.4-9,5.9s-5,5.3-7,8.3c-2.1,3-3.8,6.2-5.3,9.5s-2.7,6.7-3.8,10.2
	c-4.1,13.9-5.6,28.3-6.4,42.2c-0.7,13.9-1.1,27.4-1.2,40.1c-0.1,12.8,0,24.8,0.3,36c0.3,11.1,0.7,21.3,1.2,30.4
	c0.5,9,1,16.9,1.6,23.4c0.5,6.5,1,11.6,1.3,15C195.1,312,195.3,313.8,195.3,313.8L195.3,313.8z M247.5,302.6c0,0,0.4-1.7,1.1-5
	c0.2-0.8,0.4-1.7,0.6-2.7s0.4-2.1,0.6-3.3s0.5-2.5,0.7-3.8c0.2-1.4,0.5-2.8,0.7-4.4c0.5-3.1,0.9-6.5,1.4-10.2
	c0.4-3.7,0.9-7.8,1.3-12.1c0.8-8.7,1.3-18.4,1.8-29.1c0.5-10.7,0.8-22.3,1.3-34.5c0.5-12.3,1.2-25.2,2.5-38.5
	c0.7-6.7,1.4-13.4,2.3-20.3c0.9-6.8,2-13.8,3.7-20.6c1.7-6.9,4-13.7,7.5-20.1c0.4-0.8,0.9-1.6,1.4-2.3c0.5-0.8,0.9-1.6,1.5-2.3
	l1.6-2.2l1.7-2.1c0.5-0.7,1.2-1.4,1.8-2c0.6-0.7,1.2-1.4,1.9-2c1.4-1.3,2.9-2.5,4.8-3.1c1-0.3,2-0.5,3.1-0.3c0.2,0,0.4,0,0.7,0.1
	l0.8,0.2c0.3,0.1,0.5,0.2,0.7,0.3c0.2,0.1,0.5,0.2,0.7,0.4c1.8,1.1,2.9,2.8,3.7,4.5c1.6,3.4,2,7.2,2.1,10.8
	c0.2,3.5,0.4,7.1,0.6,10.6s0.3,7.1,0.5,10.6c0.5,14.1,0.6,27.9,0.3,41.3c-0.3,13.4-0.9,26.3-1.9,38.6c-1,12.2-2.1,23.8-3.4,34.4
	c-0.3,2.7-0.7,5.3-1,7.8c-0.4,2.5-0.6,5-1,7.4c-0.8,4.8-1.4,9.4-2.2,13.7c-0.7,4.3-1.4,8.3-2.1,12s-1.3,7.1-2,10.2
	c-0.7,3.1-1.4,5.8-2.2,8c-0.8,2.3-1.8,4.1-2.6,5.6c-0.9,1.4-1.7,2.4-2.2,3.1c-0.6,0.6-0.9,1-0.9,1s0.3-0.3,0.9-1
	c0.5-0.7,1.3-1.7,2.1-3.1c0.8-1.4,1.7-3.3,2.5-5.6s1.5-5,2.1-8c0.6-3.1,1.1-6.5,1.8-10.2c0.7-3.7,1.3-7.7,1.9-12
	c1.3-8.6,2.6-18.3,3.8-28.9c1.2-10.6,2.3-22.2,3.1-34.4c0.8-12.2,1.3-25.1,1.6-38.5c0.2-13.4,0.1-27.2-0.4-41.2
	c-0.2-3.5-0.3-7-0.5-10.5s-0.4-7.1-0.7-10.6c-0.1-1.8-0.2-3.5-0.5-5.2s-0.8-3.3-1.5-4.9c-0.7-1.5-1.7-2.9-3-3.6
	c-0.2-0.1-0.3-0.2-0.5-0.2c-0.2-0.1-0.3-0.2-0.5-0.2s-0.3-0.1-0.5-0.1s-0.4-0.1-0.6-0.1c-0.7-0.1-1.5,0-2.2,0.3
	c-3,1-5.3,3.9-7.6,6.5l-1.6,2l-1.5,2.2c-0.5,0.7-0.9,1.5-1.4,2.2c-0.4,0.8-0.9,1.5-1.3,2.3c-3.4,6.1-5.6,12.8-7.3,19.6
	c-1.7,6.8-2.8,13.6-3.7,20.4c-0.9,6.8-1.7,13.6-2.4,20.2c-1.3,13.3-2.2,26.2-2.8,38.4c-0.6,12.2-1,23.8-1.6,34.5
	c-0.5,10.7-1.3,20.5-2.2,29.2c-0.4,4.3-1,8.4-1.5,12.1c-0.6,3.7-1,7.2-1.6,10.2c-0.3,1.5-0.5,3-0.8,4.4s-0.5,2.6-0.8,3.8
	c-0.2,1.2-0.5,2.3-0.7,3.3s-0.5,1.9-0.6,2.7C247.9,300.9,247.5,302.6,247.5,302.6L247.5,302.6z"/>
<path d="M107.3,33.8c0,0-0.1,2.9-0.2,8.2c0,2.7-0.2,6-0.2,9.8c0,3.9-0.1,8.3-0.1,13.3s0.1,10.5,0.1,16.5c0.1,3,0.1,6.1,0.2,9.4
	c0,1.6,0.1,3.3,0.1,5c0.1,1.7,0.1,3.4,0.2,5.1c0.1,3.5,0.2,7.1,0.4,10.7c0.2,3.7,0.4,7.5,0.5,11.4c0.2,3.9,0.4,7.9,0.7,12
	c0.2,4.1,0.5,8.3,0.8,12.5c1.2,17.1,2.8,35.5,5.2,54.9c2.3,19.4,5.3,39.9,8.9,60.9c0.9,5.3,1.9,10.6,2.9,15.9c1,5.3,2,10.7,3.5,15.9
	c0.7,2.6,1.6,5.2,2.6,7.7s2.2,5,3.6,7.3s3,4.5,4.9,6.4c0.4,0.5,1,0.9,1.4,1.4l0.7,0.7l0.1,0.1l0.2,0.2l0.4,0.3l1.7,1.3
	c0.6,0.4,1.1,0.7,1.7,1.1c2.2,1.5,4.7,2.6,7.2,3.7c1.3,0.4,2.6,0.9,3.9,1.3c0.7,0.2,1.3,0.4,2,0.5l2,0.5c5.4,1.2,11,1.6,16.7,2
	c2.8,0.2,5.7,0.4,8.5,0.6c1.4,0.1,2.9,0.2,4.3,0.4l4.2,0.4c5.6,0.5,11.3,0.7,16.9,0.7c11.3,0,22.6-0.9,33.8-2.8
	c5.5-0.9,11.1-2.1,16.5-3.5s10.7-3,15.7-5.4c2.5-1.2,4.8-2.6,6.9-4.2c0.6-0.4,1-0.8,1.5-1.3c0.5-0.4,1-0.9,1.4-1.4l0.7-0.7l0.7-0.8
	c0.4-0.5,0.9-1.1,1.3-1.6c3.2-4.2,5.6-9.2,7.6-14.2c1.9-5.1,3.4-10.3,4.6-15.5c0.6-2.6,1.2-5.3,1.6-7.9c0.5-2.7,1-5.3,1.4-7.9
	c3.2-21,4.1-41.7,4.7-61.3c0.2-9.8,0.5-19.3,0.7-28.5s0.6-18.1,1-26.7c1.6-34.2,3.4-62.6,4.7-82.6c0.6-10,1.2-17.8,1.6-23.1
	c0.4-5.3,0.6-8.2,0.6-8.2s-0.6,11.4-1.7,31.3c-0.5,10-1.1,22.1-1.7,36s-1.2,29.6-1.9,46.6c-0.3,8.6-0.7,17.4-0.8,26.7
	c-0.1,9.2-0.3,18.8-0.4,28.6c-0.4,19.6-1,40.4-4.3,61.6c-1.7,10.5-3.7,21.4-7.7,31.9c-2,5.2-4.4,10.3-7.9,15
	c-0.4,0.6-0.9,1.1-1.3,1.6l-0.7,0.8l-0.8,0.8c-0.5,0.5-1,1.1-1.6,1.5c-0.6,0.5-1.1,1-1.7,1.4c-2.3,1.8-4.8,3.3-7.4,4.5
	c-5.2,2.5-10.7,4.2-16.2,5.7c-5.5,1.4-11.1,2.6-16.7,3.6c-11.3,1.9-22.8,2.9-34.2,2.9c-5.7,0-11.5-0.2-17.2-0.7l-4.3-0.4
	c-1.4-0.1-2.8-0.3-4.2-0.4c-2.8-0.2-5.7-0.4-8.5-0.6c-5.7-0.4-11.4-0.9-17.1-2.1l-2.1-0.5l-2.1-0.6c-1.4-0.4-2.8-0.9-4.1-1.4
	c-2.7-1.1-5.3-2.3-7.8-4c-0.6-0.4-1.3-0.8-1.8-1.2l-1.6-1.3l-0.4-0.3l-0.2-0.2c0,0-0.2-0.2-0.3-0.2l-0.8-0.7c-0.5-0.5-1.1-1-1.6-1.5
	c-2-2.1-3.7-4.5-5.2-6.9c-1.5-2.5-2.7-5-3.8-7.7c-1-2.6-1.9-5.3-2.7-8c-1.5-5.4-2.6-10.8-3.5-16.1c-0.9-5.4-2-10.7-2.8-15.9
	c-3.6-21.1-6.4-41.6-8.5-61.1c-2.2-19.5-3.7-38-4.7-55.1s-1.6-32.8-1.8-46.7c0-1.7-0.1-3.4-0.1-5.1V81.7c0.1-6,0.1-11.5,0.1-16.5
	c0.2-10,0.4-17.8,0.7-23.2C107.2,36.7,107.3,33.8,107.3,33.8L107.3,33.8z"/>
<path d="M109.2,61.2c0,0,0.8-0.1,2.3-0.2s3.7-0.3,6.5-0.6c2.8-0.2,6.2-0.5,10.1-0.8c3.9-0.3,8.3-0.6,13.1-1c4.8-0.3,10-0.7,15.5-1
	S168,57,174,56.7s12.2-0.6,18.5-0.8c6.3-0.2,12.7-0.4,19.1-0.7c6.4-0.1,12.8-0.3,19.1-0.4c6.3-0.2,12.5-0.2,18.5-0.3
	c6-0.1,11.8-0.1,17.3-0.1s10.7,0,15.5,0.1c4.8,0,9.2,0.1,13.1,0.2s7.3,0.2,10.1,0.2c2.8,0.1,5,0.2,6.5,0.2s2.3,0.1,2.3,0.1
	s-0.8,0-2.3,0.1s-3.7,0.2-6.5,0.2c-5.6,0.2-13.6,0.4-23.2,0.7c-19.2,0.5-44.8,1.3-70.4,2s-51.2,1.5-70.4,2.1
	c-9.6,0.3-17.6,0.5-23.2,0.6c-2.8,0.1-5,0.1-6.5,0.1C110,61.2,109.2,61.2,109.2,61.2L109.2,61.2z"/>
</svg>
