<svg id="Layer_1" xmlns="http://www.w3.org/2000/svg" viewBox="0 0 460 365"><style>.st0{opacity:.71;fill:#d7d7d5;enable-background:new}.st1{fill:none;stroke:#000;stroke-width:5;stroke-miterlimit:10}</style><path class="st0" d="M319.2 60.5c-68.3 0-206.5 4.7-207.4 4-1.1 74.5 5.4 149.1 19.1 222.3 2.6 14 6.1 28.9 16.9 38.2 13.9 12 33 10.5 50 12.3 21.4 2.2 43.1.9 64.1-3.7 11.4-2.5 26.1-6.1 34.1-15.1 9.1-10.2 13.4-27 15.9-40 7.2-37.9 5.4-78.4 7.1-116.9 1.4-33.9 3.1-67.8 5.1-101.6-1.5.4-3.2.5-4.9.5z"/><path class="st1" d="M417.6 81.6c-3.3-6.2-6.7-12.5-11.3-17.9-8.9-10.3-22.3-16.6-35.9-16.8-13.6-.2-27.2 5.6-36.4 15.7-.6-17.3 1.3-33.8-.2-54.3 0-.1-.1-.2-.2-.2-34.1 6.5-213.3.6-238.5 3.1-5.9 0 .5 144.9 1.7 157.5 2.3 25.5 5.6 51 10 76.3 3.7 21.6 5.7 41.4 13.4 61.9 1 2.8 2.1 5.6 2.6 8.5.5 2.6.5 5.3.8 7.9 1.7 15.2 11.1 21.3 24.4 26.9 46.1 19.3 96.3 13.6 141.4-7 10.6-4.8 21.8-11.8 24.5-23.1 1.1-4.7.6-9.6 1.2-14.4 1.5-12.8 10.5-23.9 11.9-36.7 27-14.6 55.6-25.1 73.3-50.2 20.5-29.2 29.2-49.3 29.2-97.3-.1-7.6-8.3-33.2-11.9-39.9zm-10.9 56.2c-.5 8.5-3 16.7-6.1 24.7-9.4 24.4-23.8 47.4-44.1 63.9-9.1 7.4-20.3 13.7-31.9 12.2 1-30.5 2.1-61 3.1-91.6.8-23.1 11-73.5 42.8-73.1 12.9.1 21.6 13.1 26.9 24.9 5.6 12.2 10.1 25.5 9.3 39z"/><path d="M146.5 308.6s-1.7-7.3-4.8-20.1c-1.5-6.4-3.3-14.2-5.2-23.1-1-4.5-1.9-9.3-3-14.3-.9-5.1-2-10.4-2.9-15.9-1-5.6-1.8-11.4-2.7-17.4-.7-6-1.5-12.3-2.1-18.7-1.1-12.9-1.7-26.6-1.1-40.7.6-14.1 2.2-28.7 5.6-43.2 1.8-7.2 4.1-14.4 7.7-21.2 1.8-3.4 3.9-6.6 6.3-9.6.6-.7 1.2-1.5 1.9-2.2.6-.7 1.3-1.5 2.2-2.1.4-.3 1-.6 1.5-.8.3-.1.6-.2.9-.2h.9c1.2.1 2.2.5 3.1 1 .2.1.4.3.7.4.3.2.4.3.6.4l1.1.8c.4.3.8.7 1.1 1 .4.3.8.7 1.1 1 .7.7 1.3 1.4 1.9 2.2.6.8 1.1 1.6 1.6 2.4 2 3.3 3.3 7 4.2 10.7 1.8 7.4 2.3 14.9 3 22.3 1.5 14.7 2.9 29.2 4.3 43.2 2.7 28.1 5.3 54.2 7.4 76.7 1.1 11.2 2.1 21.5 2.8 30.7.7 9.1 1 17.1 1 23.7 0 6.6-.3 11.7-.5 15.3-.2 3.5-.4 5.4-.4 5.4s.2-1.9.3-5.4c.2-3.5.4-8.7.3-15.3s-.5-14.5-1.4-23.7c-.8-9.1-2-19.4-3.2-30.6-2.4-22.4-5.1-48.6-8-76.6-1.4-14-2.9-28.5-4.4-43.2-.8-7.4-1.3-14.8-3.1-22-.9-3.6-2.1-7.1-4-10.2-.5-.8-1-1.5-1.5-2.2s-1.1-1.4-1.7-2c-.3-.4-.6-.6-1-.9-.3-.3-.6-.6-1-.9l-1.1-.8-.5-.4-.6-.3c-.7-.4-1.5-.7-2.2-.8-.7 0-1.4.2-2 .6-1.3.9-2.5 2.5-3.7 3.9-2.3 2.9-4.3 6-6.1 9.2-3.5 6.5-5.8 13.6-7.6 20.7-3.3 14.3-5.1 28.8-5.6 42.8-.6 14-.2 27.6.8 40.5.5 6.4 1.2 12.7 1.9 18.7.8 6 1.6 11.8 2.5 17.4.8 5.6 1.9 10.9 2.7 15.9.9 5 1.8 9.8 2.7 14.3 1.8 9 3.5 16.8 4.8 23.2 2.9 13.1 4.5 20.4 4.5 20.4zm48.8 5.2s-.2-1.8-.6-5.3-.9-8.5-1.5-15-1.3-14.3-2-23.4c-.6-9-1.2-19.2-1.6-30.4-.4-11.1-.7-23.2-.7-36s.2-26.3.9-40.2c.8-13.9 2.3-28.4 6.3-42.6 1-3.5 2.3-7.1 3.8-10.4 1.5-3.4 3.3-6.7 5.4-9.8 2.1-3.1 4.5-6.1 7.3-8.6 2.8-2.6 6-4.7 9.5-6.3.4-.2.9-.4 1.3-.6l1.4-.4 1.4-.4c.5-.1.9-.2 1.4-.3.9-.2 1.9-.4 2.8-.5 1-.1 1.9-.2 2.9-.1 2 .1 3.9.4 5.8 1.2 1.8.8 3.5 2.2 4.6 3.9 1.2 1.6 1.9 3.5 2.4 5.3.5 1.9.8 3.7 1 5.6.4 3.7.6 7.3 1 11 1 14.6 1.1 29.1.6 43-.4 14-1.6 27.4-2.7 40.1s-2.2 24.7-3.2 35.8c-.5 5.6-.9 10.9-1.3 15.9-.2 2.5-.4 5-.6 7.4-.1 2.4-.3 4.7-.4 7s-.3 4.4-.4 6.6c-.1 2.1-.2 4.1-.2 6.1-.1 2-.1 3.8-.2 5.6 0 1.8 0 3.5-.1 5.1 0 3.2-.1 6.2 0 8.7s.1 4.7.1 6.4c.1 3.5.1 5.3.1 5.3s-.1-1.9-.2-5.3c-.1-1.7-.2-3.9-.3-6.4-.1-2.5-.1-5.4-.1-8.7V278c0-1.8.1-3.7.1-5.6 0-2 .1-4 .1-6.1.1-2.1.2-4.3.3-6.6.1-2.3.2-4.6.3-7 .1-2.4.3-4.9.4-7.4.3-5.1.7-10.4 1.1-16 .9-11.1 1.9-23.1 2.9-35.9.3-3.2.5-6.4.7-9.7s.5-6.6.7-9.9c.2-3.3.4-6.7.6-10.1.1-3.4.3-6.9.4-10.3.4-13.9.4-28.3-.7-42.8-.3-3.6-.6-7.3-1-10.9s-1.1-7.2-3.1-10c-1-1.4-2.3-2.5-3.8-3.2s-3.3-1-5-1c-.9 0-1.8 0-2.6.1-.9.1-1.8.3-2.6.5-.4.1-.9.2-1.3.3l-1.3.4-1.3.4c-.4.1-.8.4-1.2.5-3.3 1.4-6.3 3.4-9 5.9s-5 5.3-7 8.3c-2.1 3-3.8 6.2-5.3 9.5s-2.7 6.7-3.8 10.2c-4.1 13.9-5.6 28.3-6.4 42.2-.7 13.9-1.1 27.4-1.2 40.1-.1 12.8 0 24.8.3 36 .3 11.1.7 21.3 1.2 30.4.5 9 1 16.9 1.6 23.4.5 6.5 1 11.6 1.3 15 .5 3.3.7 5.1.7 5.1zm52.2-11.2s.4-1.7 1.1-5c.2-.8.4-1.7.6-2.7s.4-2.1.6-3.3.5-2.5.7-3.8c.2-1.4.5-2.8.7-4.4.5-3.1.9-6.5 1.4-10.2.4-3.7.9-7.8 1.3-12.1.8-8.7 1.3-18.4 1.8-29.1.5-10.7.8-22.3 1.3-34.5.5-12.3 1.2-25.2 2.5-38.5.7-6.7 1.4-13.4 2.3-20.3.9-6.8 2-13.8 3.7-20.6 1.7-6.9 4-13.7 7.5-20.1.4-.8.9-1.6 1.4-2.3.5-.8.9-1.6 1.5-2.3l1.6-2.2 1.7-2.1c.5-.7 1.2-1.4 1.8-2 .6-.7 1.2-1.4 1.9-2 1.4-1.3 2.9-2.5 4.8-3.1 1-.3 2-.5 3.1-.3.2 0 .4 0 .7.1l.8.2c.3.1.5.2.7.3.2.1.5.2.7.4 1.8 1.1 2.9 2.8 3.7 4.5 1.6 3.4 2 7.2 2.1 10.8.2 3.5.4 7.1.6 10.6s.3 7.1.5 10.6c.5 14.1.6 27.9.3 41.3-.3 13.4-.9 26.3-1.9 38.6-1 12.2-2.1 23.8-3.4 34.4-.3 2.7-.7 5.3-1 7.8-.4 2.5-.6 5-1 7.4-.8 4.8-1.4 9.4-2.2 13.7-.7 4.3-1.4 8.3-2.1 12s-1.3 7.1-2 10.2c-.7 3.1-1.4 5.8-2.2 8-.8 2.3-1.8 4.1-2.6 5.6-.9 1.4-1.7 2.4-2.2 3.1-.6.6-.9 1-.9 1s.3-.3.9-1c.5-.7 1.3-1.7 2.1-3.1.8-1.4 1.7-3.3 2.5-5.6s1.5-5 2.1-8c.6-3.1 1.1-6.5 1.8-10.2.7-3.7 1.3-7.7 1.9-12 1.3-8.6 2.6-18.3 3.8-28.9 1.2-10.6 2.3-22.2 3.1-34.4.8-12.2 1.3-25.1 1.6-38.5.2-13.4.1-27.2-.4-41.2-.2-3.5-.3-7-.5-10.5s-.4-7.1-.7-10.6c-.1-1.8-.2-3.5-.5-5.2s-.8-3.3-1.5-4.9c-.7-1.5-1.7-2.9-3-3.6-.2-.1-.3-.2-.5-.2-.2-.1-.3-.2-.5-.2s-.3-.1-.5-.1-.4-.1-.6-.1c-.7-.1-1.5 0-2.2.3-3 1-5.3 3.9-7.6 6.5l-1.6 2-1.5 2.2c-.5.7-.9 1.5-1.4 2.2-.4.8-.9 1.5-1.3 2.3-3.4 6.1-5.6 12.8-7.3 19.6-1.7 6.8-2.8 13.6-3.7 20.4-.9 6.8-1.7 13.6-2.4 20.2-1.3 13.3-2.2 26.2-2.8 38.4-.6 12.2-1 23.8-1.6 34.5-.5 10.7-1.3 20.5-2.2 29.2-.4 4.3-1 8.4-1.5 12.1-.6 3.7-1 7.2-1.6 10.2-.3 1.5-.5 3-.8 4.4s-.5 2.6-.8 3.8c-.2 1.2-.5 2.3-.7 3.3s-.5 1.9-.6 2.7c-1 2.6-1.4 4.3-1.4 4.3z"/><path d="M107.3 33.8s-.1 2.9-.2 8.2c0 2.7-.2 6-.2 9.8 0 3.9-.1 8.3-.1 13.3s.1 10.5.1 16.5c.1 3 .1 6.1.2 9.4 0 1.6.1 3.3.1 5 .1 1.7.1 3.4.2 5.1.1 3.5.2 7.1.4 10.7.2 3.7.4 7.5.5 11.4.2 3.9.4 7.9.7 12 .2 4.1.5 8.3.8 12.5 1.2 17.1 2.8 35.5 5.2 54.9 2.3 19.4 5.3 39.9 8.9 60.9.9 5.3 1.9 10.6 2.9 15.9 1 5.3 2 10.7 3.5 15.9.7 2.6 1.6 5.2 2.6 7.7s2.2 5 3.6 7.3 3 4.5 4.9 6.4c.4.5 1 .9 1.4 1.4l.7.7.1.1.2.2.4.3 1.7 1.3c.6.4 1.1.7 1.7 1.1 2.2 1.5 4.7 2.6 7.2 3.7 1.3.4 2.6.9 3.9 1.3.7.2 1.3.4 2 .5l2 .5c5.4 1.2 11 1.6 16.7 2 2.8.2 5.7.4 8.5.6 1.4.1 2.9.2 4.3.4l4.2.4c5.6.5 11.3.7 16.9.7 11.3 0 22.6-.9 33.8-2.8 5.5-.9 11.1-2.1 16.5-3.5s10.7-3 15.7-5.4c2.5-1.2 4.8-2.6 6.9-4.2.6-.4 1-.8 1.5-1.3.5-.4 1-.9 1.4-1.4l.7-.7.7-.8c.4-.5.9-1.1 1.3-1.6 3.2-4.2 5.6-9.2 7.6-14.2 1.9-5.1 3.4-10.3 4.6-15.5.6-2.6 1.2-5.3 1.6-7.9.5-2.7 1-5.3 1.4-7.9 3.2-21 4.1-41.7 4.7-61.3.2-9.8.5-19.3.7-28.5s.6-18.1 1-26.7c1.6-34.2 3.4-62.6 4.7-82.6.6-10 1.2-17.8 1.6-23.1.4-5.3.6-8.2.6-8.2s-.6 11.4-1.7 31.3c-.5 10-1.1 22.1-1.7 36s-1.2 29.6-1.9 46.6c-.3 8.6-.7 17.4-.8 26.7-.1 9.2-.3 18.8-.4 28.6-.4 19.6-1 40.4-4.3 61.6-1.7 10.5-3.7 21.4-7.7 31.9-2 5.2-4.4 10.3-7.9 15-.4.6-.9 1.1-1.3 1.6l-.7.8-.8.8c-.5.5-1 1.1-1.6 1.5-.6.5-1.1 1-1.7 1.4-2.3 1.8-4.8 3.3-7.4 4.5-5.2 2.5-10.7 4.2-16.2 5.7-5.5 1.4-11.1 2.6-16.7 3.6-11.3 1.9-22.8 2.9-34.2 2.9-5.7 0-11.5-.2-17.2-.7l-4.3-.4c-1.4-.1-2.8-.3-4.2-.4-2.8-.2-5.7-.4-8.5-.6-5.7-.4-11.4-.9-17.1-2.1l-2.1-.5-2.1-.6c-1.4-.4-2.8-.9-4.1-1.4-2.7-1.1-5.3-2.3-7.8-4-.6-.4-1.3-.8-1.8-1.2l-1.6-1.3-.4-.3-.2-.2s-.2-.2-.3-.2l-.8-.7c-.5-.5-1.1-1-1.6-1.5-2-2.1-3.7-4.5-5.2-6.9-1.5-2.5-2.7-5-3.8-7.7-1-2.6-1.9-5.3-2.7-8-1.5-5.4-2.6-10.8-3.5-16.1-.9-5.4-2-10.7-2.8-15.9-3.6-21.1-6.4-41.6-8.5-61.1-2.2-19.5-3.7-38-4.7-55.1s-1.6-32.8-1.8-46.7c0-1.7-.1-3.4-.1-5.1V81.7c.1-6 .1-11.5.1-16.5.2-10 .4-17.8.7-23.2.3-5.3.4-8.2.4-8.2z"/><path d="M109.2 61.2s.8-.1 2.3-.2 3.7-.3 6.5-.6c2.8-.2 6.2-.5 10.1-.8 3.9-.3 8.3-.6 13.1-1 4.8-.3 10-.7 15.5-1s11.3-.6 17.3-.9 12.2-.6 18.5-.8c6.3-.2 12.7-.4 19.1-.7 6.4-.1 12.8-.3 19.1-.4 6.3-.2 12.5-.2 18.5-.3 6-.1 11.8-.1 17.3-.1s10.7 0 15.5.1c4.8 0 9.2.1 13.1.2s7.3.2 10.1.2c2.8.1 5 .2 6.5.2s2.3.1 2.3.1-.8 0-2.3.1-3.7.2-6.5.2c-5.6.2-13.6.4-23.2.7-19.2.5-44.8 1.3-70.4 2s-51.2 1.5-70.4 2.1c-9.6.3-17.6.5-23.2.6-2.8.1-5 .1-6.5.1-1.5.2-2.3.2-2.3.2z"/></svg>