<svg id="Layer_1" xmlns="http://www.w3.org/2000/svg" viewBox="0 0 100 100"><style>.st0{fill:#fff}.st1{fill-rule:evenodd;clip-rule:evenodd;fill:#4d9ddb}</style><circle class="st0" cx="50" cy="50.2" r="43.5"/><path class="st1" d="M78.8 27.5c-2.2 1.4-4.6 2.5-7.2 3-2.1-2.4-5-3.9-8.2-3.9-6.3 0-11.3 5.5-11.3 12.4 0 1 .1 1.9.3 2.8-9.4-.5-17.7-5.5-23.3-12.9-1 1.8-1.5 4-1.5 6.2 0 4.3 1.3 8.1 4.3 10.3-1.9-.1-3.9-.6-5.9-1.5v.1c0 6 4.6 11 9.8 12.1-.9.3-1.6.4-2.6.4-.7 0-1.3-.1-2-.2 1.4 4.9 5.7 8.5 10.7 8.6-3.9 3.3-8.7 5.3-14 5.3-.9 0-1.8-.1-2.7-.2 5 3.5 11 5.5 17.4 5.5 20.8 0 32.2-18.8 32.2-35.2v-1.6c2.2-1.7 4.1-3.9 5.7-6.4-2.1 1-4.2 1.7-6.5 2 2.2-1.5 3.9-3.9 4.8-6.8zM50 99.2c-27.1 0-49-21.9-49-49s21.9-49 49-49 49 21.9 49 49-21.9 49-49 49z"/></svg>