<?xml version="1.0" encoding="utf-8"?>
<!-- Generator: Adobe Illustrator 19.2.0, SVG Export Plug-In . SVG Version: 6.00 Build 0)  -->
<svg version="1.1" id="Layer_1" xmlns="http://www.w3.org/2000/svg" xmlns:xlink="http://www.w3.org/1999/xlink" x="0px" y="0px"
	 viewBox="0 0 100 100" style="enable-background:new 0 0 100 100;" xml:space="preserve">
<style type="text/css">
	.st0{fill:#FFFFFF;}
	.st1{fill-rule:evenodd;clip-rule:evenodd;fill:#4D9DDB;}
</style>
<g>
	<circle class="st0" cx="50" cy="50.2" r="43.5"/>
	<path class="st1" d="M78.8,27.5c-2.2,1.4-4.6,2.5-7.2,3c-2.1-2.4-5-3.9-8.2-3.9c-6.3,0-11.3,5.5-11.3,12.4c0,1,0.1,1.9,0.3,2.8
		c-9.4-0.5-17.7-5.5-23.3-12.9c-1,1.8-1.5,4-1.5,6.2c0,4.3,1.3,8.1,4.3,10.3C30,45.3,28,44.8,26,43.9V44c0,6,4.6,11,9.8,12.1
		c-0.9,0.3-1.6,0.4-2.6,0.4c-0.7,0-1.3-0.1-2-0.2c1.4,4.9,5.7,8.5,10.7,8.6c-3.9,3.3-8.7,5.3-14,5.3c-0.9,0-1.8-0.1-2.7-0.2
		c5,3.5,11,5.5,17.4,5.5c20.8,0,32.2-18.8,32.2-35.2l0-1.6c2.2-1.7,4.1-3.9,5.7-6.4c-2.1,1-4.2,1.7-6.5,2
		C76.2,32.8,77.9,30.4,78.8,27.5z M50,99.2c-27.1,0-49-21.9-49-49s21.9-49,49-49s49,21.9,49,49S77.1,99.2,50,99.2z"/>
</g>
</svg>
