<svg id="Layer_1" xmlns="http://www.w3.org/2000/svg" viewBox="0 0 460 600"><style>.st0{fill:none;stroke:#000;stroke-width:5;stroke-miterlimit:10}.st1{opacity:.9;fill:url(#SVGID_1_);enable-background:new}.st2{fill:url(#SVGID_2_)}</style><path class="st0" d="M6588.6-670.6c.3 38.5.2 82.4-5.7 120.5-2.3 14.7-3.7 31.7-10.6 44.9-9.4 17.9-18.6 35.9-34 49.5-5.5 4.9-11.5 9.2-17.9 12.8-4.2 2.3-15.3 5.1-15.9 10.8-.4 3.6 3.8 5.7 6.9 7.6 6.9 4.3 10.9 12.3 11.6 20.4 1.5 15.4-5.6 30.7-18.9 38.8-.8.5-1.6 1-1.9 1.8-.7 2.1 2.1 3.4 4.2 3.8 12.1 2.1 24 5 35.7 8.7 7.7 2.4 24.3 10.6 12 18.5-7.7 4.9-17 6.2-26 7.3-24.7 3.1-49.7 6.2-74.5 3.9-5.6-.5-11.2-1.4-16.8-2.2l-22.5-3.3c-5.3-.8-11.8-2.7-12.7-7.9-1.7-10.2 16.6-15.1 23.6-17.2 4.9-1.5 36.5-4.6 35.6-9.3-.5-2.4-2.8-3.9-4.8-5.4-8.9-6.4-15-16.4-16.6-27.2-1.6-10.8 1.3-22.2 7.9-30.9 2.2-2.9 4.9-6 4.4-9.6-.2-1.5-1-2.9-2-4.1-5.1-6.7-15.9-9.5-22.8-14.7-7.9-6-15.2-12.8-21.6-20.4-12.5-14.5-22.1-31.5-27.6-49.9-5.2-17.2-6.9-35.3-8.2-53.2-2.3-31-3.6-62-3.8-93.1 20.2-2.4 42-1.8 62.4-1.4 52.8 1.1 160.5-1.6 160.5.5z"/><path d="M6462-355.7v1.9c0 .6.1 1.3.6 1.9.4.6 1.2.8 2.2.8 2.1-.1 4.5-.2 7.1-.2 1.3 0 2.7-.1 4-.1 1.4-.1 2.8-.1 4.1-.2 1.4-.1 2.8-.1 4.1-.2 1.4-.1 2.7-.1 4-.2 2.6-.1 5-.2 7.1-.3 2-.1 3.7-.6 4.6-1.3.4-.4.7-.8.8-1.1.1-.3.2-.5.2-.5v.5c-.1.3-.2.8-.6 1.3s-1.1 1-1.9 1.4c-.8.4-1.8.7-2.8.8-2.1.4-4.5.7-7.1.9-1.3.1-2.7.3-4 .4-1.4.1-2.8.2-4.2.2-1.4 0-2.8.1-4.2.1h-4.1c-2.6-.1-5.1-.2-7.2-.4-.5-.1-1.1-.1-1.6-.4s-.9-.7-1.1-1.1c-.4-.9-.4-1.7-.3-2.3s.2-1.1.3-1.4c-.1-.3 0-.5 0-.5zm-.4-84.6s.6.2 1.6.5c.5.2 1.2.3 1.9.5s1.6.4 2.4.5c.9.2 1.9.3 2.9.5 1 .1 2.1.2 3.3.3 1.1.1 2.3.1 3.5.2h3.6c1.2 0 2.5 0 3.7-.1 1.2 0 2.4-.1 3.6-.1 2.3-.1 4.5-.1 6.3-.3 1.8-.2 3.2-.6 4.1-1.2.4-.3.8-.6 1-.8l.3-.3s-.1.1-.2.4c-.2.3-.4.6-.8 1-.8.8-2.3 1.6-4.2 2-.9.2-2 .4-3 .5-1.1.1-2.2.3-3.3.4l-3.6.3c-1.2.1-2.5.1-3.7.2-1.3 0-2.5 0-3.7-.1-.6 0-1.2-.1-1.8-.1-.6-.1-1.2-.1-1.8-.2-1.2-.1-2.3-.4-3.4-.6-.5-.1-1-.3-1.5-.4-.5-.2-1-.3-1.4-.4-1.8-.6-3.2-1.3-4.2-1.8-1-.6-1.6-.9-1.6-.9zm-50.1 102.1l.3.3c.2.2.5.4 1 .6.9.5 2.3 1 4.2 1.4 1.9.4 4.2.7 6.8 1.1 2.6.4 5.6.7 8.9 1.1 3.3.3 6.8.7 10.6 1 3.7.3 7.7.5 11.8.7 8.2.3 17 .5 25.7.6 4.4.1 8.8.1 13.1.2 4.3 0 8.5.1 12.6 0s8-.4 11.7-.8c3.7-.5 7.2-1.1 10.4-1.7 6.4-1.4 11.6-3 15.2-4.3 1.8-.7 3.2-1.2 4.2-1.6l1.5-.6s-.5.2-1.4.7c-.9.4-2.3 1.1-4.1 1.8-3.5 1.5-8.7 3.5-15.1 5.1-6.4 1.6-14.1 2.9-22.3 3.2-4.1.2-8.4.2-12.7.2-4.3 0-8.7-.1-13.1-.1-4.4-.1-8.8-.2-13.1-.3-4.3-.1-8.6-.4-12.7-.6-4.1-.3-8.1-.6-11.8-1-3.8-.4-7.3-.8-10.6-1.3-1.6-.3-3.2-.5-4.7-.7-1.5-.3-2.9-.5-4.2-.8-2.6-.5-4.9-1-6.8-1.5s-3.3-1.1-4.1-1.7c-.4-.3-.7-.5-.9-.7-.3-.2-.4-.3-.4-.3z"/><linearGradient id="SVGID_1_" gradientUnits="userSpaceOnUse" x1="6378.8" y1="-1055.789" x2="6584.7" y2="-1055.789" gradientTransform="translate(0 507)"><stop offset=".018" stop-color="#801fe3"/><stop offset="1" stop-color="#b7a7ff"/></linearGradient><path class="st1" d="M6378.8-642.4c1.4 24.4 2.7 48.8 4.1 73.2.4 7.9.9 15.9 2.2 23.7 1.8 11.1 5.4 21.8 8.9 32.5 3 9.1 6 18.2 11.1 26.3 17.8 28.1 51.5 32.7 81.9 31.3 10.6-.5 21.3-1.5 31.5-4.7 66.9-21.3 65.2-117 66.1-172.7 0-2.6.1-5.1.1-7.7-68.7 2.2-137.5 4-205.9-1.9z"/><path d="M6373.7-662.1s.6 8.1 1.5 22.2c.5 7.1 1 15.6 1.7 25.5.6 9.8 1.4 20.9 2.1 33.1.4 6.1.7 12.4 1.3 18.9.5 6.5 1.4 13.2 3 19.9 1.6 6.7 3.7 13.5 6 20.4 2.4 6.9 4.5 14 7.5 20.9.8 1.7 1.5 3.4 2.4 5.1.9 1.6 1.8 3.3 2.8 4.8 1.1 1.6 2.2 3.1 3.4 4.7 1.2 1.4 2.5 2.8 3.7 4.3 5.3 5.5 11.7 10 18.8 13.2 7.1 3.3 14.8 5.4 22.6 6.6 7.9 1.3 15.9 1.7 23.9 1.7 8-.1 16.1-.4 24-1.5 3.9-.5 7.9-1.2 11.7-2.2 1-.3 1.9-.5 2.8-.8l.7-.2h.1l.2-.1.4-.1 1.4-.5 2.8-1c.5-.2.9-.3 1.4-.5l1.3-.6c7.1-3.1 13.7-7.4 19.4-12.5 5.7-5.1 10.5-11.1 14.4-17.5 4-6.3 7.1-13.1 9.7-19.8 2.6-6.8 4.6-13.6 6.3-20.3 3.2-13.5 5-26.5 6.2-38.5 1.1-12.1 1.7-23.2 2-33 .3-9.9.5-18.4.7-25.5.2-14.2.4-22.2.4-22.2s0 2 .1 5.8c0 3.8.1 9.4.2 16.4 0 7.1 0 15.7-.2 25.5-.1 9.9-.5 21-1.5 33.1-1 12.1-2.6 25.2-5.7 38.9-1.6 6.8-3.6 13.7-6.1 20.6-2.5 6.9-5.7 13.8-9.8 20.3-4 6.5-9 12.7-14.8 18.1-5.9 5.4-12.7 9.8-20.2 13.1l-1.4.6c-.5.2-.9.4-1.4.5l-2.8 1-1.4.5-.4.1-.2.1-.2.1-.7.2c-1 .3-2 .6-2.9.8-3.9 1-8 1.8-12 2.4-8.1 1.1-16.2 1.5-24.4 1.6-8.2 0-16.3-.5-24.4-1.8-8-1.3-16-3.5-23.3-7-7.4-3.4-14.1-8.1-19.6-13.9-1.3-1.5-2.6-3.1-3.9-4.6-1.1-1.6-2.2-3.2-3.3-4.7-2.2-3.4-3.9-6.8-5.4-10.4-3-7.1-5.2-14.2-7.5-21.2-2.2-7-4.3-13.9-5.8-20.7-1.6-6.9-2.4-13.6-2.8-20.2-.5-6.6-.7-12.9-1-18.9-.6-12.1-1.1-23.2-1.6-33.1-.5-9.9-.8-18.4-1.2-25.5-.7-14.2-1-22.2-1-22.2z"/><path d="M6374.1-646.7s.8 0 2.4.1 3.8.2 6.7.3c2.9.2 6.4.3 10.5.5 4 .2 8.6.3 13.6.5s10.4.3 16.1.5 11.7.2 17.9.4c6.2.1 12.6.1 19.2.2 6.5.1 13.2 0 19.8.1 6.6 0 13.3 0 19.8-.1s13-.1 19.2-.2c12.5-.1 24.1-.2 34-.3 10-.1 18.3-.1 24.1-.1h9.1s-.8.1-2.4.2c-1.6.1-3.8.2-6.7.4-5.8.3-14.1.8-24.1 1.3s-21.6.9-34 1.3c-6.2.1-12.7.4-19.2.4-6.5.1-13.2.1-19.8.2-6.6 0-13.3 0-19.8-.2-6.5-.1-13-.3-19.2-.4-6.2-.2-12.3-.4-18-.8-2.9-.2-5.6-.3-8.3-.5-2.7-.2-5.3-.4-7.8-.5-2.5-.2-4.9-.3-7.1-.5-2.3-.2-4.4-.4-6.4-.6-4-.4-7.6-.7-10.4-1-2.9-.3-5.2-.6-6.7-.7-1.7-.4-2.5-.5-2.5-.5z"/><linearGradient id="SVGID_2_" gradientUnits="userSpaceOnUse" x1="225.425" y1="-432.6" x2="225.425" y2="45.608" gradientTransform="translate(0 507)"><stop offset="0" stop-color="#ddcf9e"/><stop offset=".007" stop-color="#d9c693"/><stop offset=".028" stop-color="#d0b278"/><stop offset=".051" stop-color="#c9a062"/><stop offset=".079" stop-color="#c39351"/><stop offset=".113" stop-color="#bf8a45"/><stop offset=".16" stop-color="#bd843e"/><stop offset=".286" stop-color="#bc833c"/><stop offset=".386" stop-color="#bc833c"/><stop offset=".995" stop-color="#bc833c"/></linearGradient><path class="st2" d="M214.8 74.9c-36.7-.2-73.3-.3-110-.5-.7.1-1.4.3-2.1.4-3.4 90.9 7.7 182.2 18.8 272.7 5.1 41.7 15.6 151.8 18.5 166.2 1.9 9.6 4.4 19.7 11.4 26.7 8.7 8.8 22.1 10.5 34.5 11.7 22.9 2.2 118.7-2.6 128.2-17.4 3-4.7 4.2-10.3 5.2-15.8 10.8-57.2 29.2-356.7 29.4-375 .3-24.3-.3-45.5-2.2-66-30.6-1.4-115.1-3-131.7-3z"/><path class="st0" d="M350 9.7c15.3 82.4 12.6 162.9 6.2 246-6.4 83-20.3 309.4-22.1 315.6-6.1 20.5-105.5 27.7-131.4 25.3-17.3-1.6-34.5-4.5-51.4-8.5-4-1-8-2-11.4-4.3-8.6-5.7-10.9-17.1-12.3-27.3-11.3-80-16-161-22.2-241.5-6.3-82.1-12.2-165-9.9-247.3.5-18.4 2.4-34.3 6.1-54.8C121 10.8 350 9.7 350 9.7z"/><path d="M108.6 19.1s-.4 4.7-1.1 13.4c-.2 2.2-.4 4.6-.6 7.3-.1 2.7-.3 5.6-.5 8.8s-.4 6.6-.5 10.2c-.1 3.6-.2 7.5-.3 11.6-.3 8.2-.3 17.2-.4 27.1 0 4.9.1 10.1.2 15.4 0 5.3.2 10.8.4 16.5.7 22.8 2.3 48.4 4.7 76.4 2.4 27.9 5.7 58.1 9.6 90 2 15.9 4 32.3 6 49.1 2 16.8 3.8 33.9 5.7 51.3 1.8 17.4 3.7 35.2 5.6 53.1l3 27c.5 4.5 1.1 9.1 1.6 13.6.6 4.5 1.1 9.1 1.8 13.6.8 4.5 1.8 9 3.2 13.2 1.4 4.3 3.3 8.4 6 11.9.7.9 1.4 1.7 2.2 2.4l1.3 1.2c.4.4.8.7 1.3 1 1.7 1.3 3.6 2.5 5.7 3.4 4 1.9 8.5 3.1 13 3.9 4.5.8 9.1 1.3 13.7 1.7 4.6.3 9.2.4 13.9.4 9.3 0 18.6-.4 27.9-.9s18.6-1.2 27.9-2.2 18.5-2.1 27.6-3.8c4.5-.9 9.1-1.8 13.5-3.1 2.2-.6 4.4-1.3 6.5-2.1s4.1-1.8 5.9-3c.9-.6 1.6-1.3 2.2-2 .1-.1.1-.1.2-.3l.2-.4c.2-.2.3-.5.4-.7.3-.5.5-.9.7-1.4.9-2 1.6-4.1 2.2-6.3s1-4.5 1.4-6.6c.4-2.3.7-4.6 1.1-6.8.4-2.3.7-4.5 1.1-6.8.3-2.3.6-4.5.8-6.8.5-4.5 1.2-9 1.6-13.6.9-9.1 2-18.1 2.8-27.1 1.7-17.9 3.3-35.7 4.7-53.2 2.9-34.9 5.4-68.7 7.8-100.8 2.3-32.1 4.4-62.4 6.2-90.4.9-14 1.7-27.4 2.5-40.2.4-6.4.8-12.6 1.1-18.6.2-3 .3-6 .4-8.9s.1-5.8.2-8.7c.2-22.8-.5-42.6-1.9-58.9s-3.3-29-4.7-37.7c-.7-4.3-1.3-7.6-1.7-9.9-.4-2.2-.6-3.4-.6-3.4s.2 1.1.6 3.4c.4 2.2 1 5.5 1.8 9.8 1.5 8.6 3.5 21.4 5 37.7 1.6 16.3 2.5 36.2 2.5 59 0 2.9 0 5.7-.1 8.7-.1 2.9-.2 5.9-.3 9-.3 6.1-.6 12.3-.9 18.7-.7 12.8-1.4 26.2-2.3 40.2-1.7 28-3.6 58.3-5.7 90.4-2.2 32.1-4.5 65.9-7.3 100.8-1.4 17.5-2.9 35.2-4.6 53.2-.8 9-1.8 18-2.7 27.1-.5 4.5-1.1 9.1-1.6 13.7-.3 2.3-.6 4.6-.8 6.9-.3 2.3-.7 4.5-1 6.8-.4 2.3-.7 4.5-1.1 6.8s-.9 4.6-1.4 6.9c-.6 2.3-1.3 4.6-2.4 6.8-.3.5-.5 1.1-.8 1.6-.2.3-.3.5-.5.8l-.2.4c-.1.1-.2.3-.3.4-.8 1.1-1.8 2-2.9 2.7-2.1 1.4-4.3 2.4-6.5 3.3-2.2.9-4.5 1.6-6.7 2.2-4.5 1.3-9.1 2.3-13.7 3.1-9.2 1.7-18.5 2.9-27.8 3.9s-18.7 1.7-28 2.2c-9.4.5-18.7.8-28.1.8-4.7 0-9.4-.1-14.1-.4-4.7-.4-9.3-.9-14-1.8-4.6-.9-9.3-2.1-13.7-4.2-2.2-1-4.2-2.3-6.2-3.8-.5-.4-1-.8-1.4-1.2l-1.3-1.2c-.9-.9-1.7-1.8-2.5-2.8-3-3.8-5-8.3-6.5-12.7-1.4-4.5-2.5-9.1-3.3-13.6-.8-4.6-1.3-9.2-1.8-13.7-.5-4.6-1-9.1-1.6-13.6-1-9.1-1.9-18.1-2.9-27.1-1.9-17.9-3.7-35.7-5.5-53.1s-3.6-34.6-5.5-51.3c-2-16.8-3.9-33.2-5.8-49.1-3.7-31.9-6.8-62.2-9.1-90.1-2.3-28-3.6-53.7-4.1-76.5-.1-5.7-.3-11.2-.3-16.5s-.1-10.5 0-15.4c.2-9.9.2-18.9.6-27.1.2-4.1.3-8 .5-11.6s.4-7 .6-10.2c.2-3.2.4-6.1.6-8.8.2-2.7.4-5.1.6-7.3.6-8.5 1-13.1 1-13.1z"/><path d="M105.9 65.8s15.2-.1 37.9-.2c11.4-.1 24.7-.1 38.9-.2 7.1 0 14.5-.1 21.9-.1 7.5 0 15.1-.1 22.7.1 15.2.4 30.3.7 44.6 1.1 14.2.4 27.5.8 38.8 1.2 2.8.1 5.6.2 8.2.2 2.6.1 5 .1 7.4.2 2.3 0 4.5 0 6.5.1h9.9c1.3 0 2.4-.1 3.3-.1 1.8 0 2.7-.1 2.7-.1v.3l-2.7.3c-.9.1-2 .2-3.3.3s-2.8.2-4.4.3c-3.3.3-7.4.4-12 .6-4.6.1-9.9.3-15.5.3h-18.4c-6.5 0-13.4-.3-20.5-.4-14.2-.5-29.4-1.2-44.5-1.8-7.5-.3-15.1-.3-22.6-.4-7.5-.1-14.8-.2-21.9-.2-14.2-.2-27.5-.3-38.9-.5l-37.9-.5-.2-.5z"/></svg>