<?xml version="1.0" encoding="utf-8"?>
<!-- Generator: Adobe Illustrator 19.2.0, SVG Export Plug-In . SVG Version: 6.00 Build 0)  -->
<svg version="1.1" id="Layer_1" xmlns="http://www.w3.org/2000/svg" xmlns:xlink="http://www.w3.org/1999/xlink" x="0px" y="0px"
	 viewBox="0 0 460 600" style="enable-background:new 0 0 460 600;" xml:space="preserve">
<style type="text/css">
	.st0{fill:none;stroke:#000000;stroke-width:5;stroke-miterlimit:10;}
	.st1{opacity:0.9;fill:url(#SVGID_1_);enable-background:new    ;}
	.st2{fill:url(#SVGID_2_);}
</style>
<path class="st0" d="M6588.6-670.6c0.3,38.5,0.2,82.4-5.7,120.5c-2.3,14.7-3.7,31.7-10.6,44.9c-9.4,17.9-18.6,35.9-34,49.5
	c-5.5,4.9-11.5,9.2-17.9,12.8c-4.2,2.3-15.3,5.1-15.9,10.8c-0.4,3.6,3.8,5.7,6.9,7.6c6.9,4.3,10.9,12.3,11.6,20.4
	c1.5,15.4-5.6,30.7-18.9,38.8c-0.8,0.5-1.6,1-1.9,1.8c-0.7,2.1,2.1,3.4,4.2,3.8c12.1,2.1,24,5,35.7,8.7c7.7,2.4,24.3,10.6,12,18.5
	c-7.7,4.9-17,6.2-26,7.3c-24.7,3.1-49.7,6.2-74.5,3.9c-5.6-0.5-11.2-1.4-16.8-2.2l-22.5-3.3c-5.3-0.8-11.8-2.7-12.7-7.9
	c-1.7-10.2,16.6-15.1,23.6-17.2c4.9-1.5,36.5-4.6,35.6-9.3c-0.5-2.4-2.8-3.9-4.8-5.4c-8.9-6.4-15-16.4-16.6-27.2
	c-1.6-10.8,1.3-22.2,7.9-30.9c2.2-2.9,4.9-6,4.4-9.6c-0.2-1.5-1-2.9-2-4.1c-5.1-6.7-15.9-9.5-22.8-14.7c-7.9-6-15.2-12.8-21.6-20.4
	c-12.5-14.5-22.1-31.5-27.6-49.9c-5.2-17.2-6.9-35.3-8.2-53.2c-2.3-31-3.6-62-3.8-93.1c20.2-2.4,42-1.8,62.4-1.4
	C6480.9-670,6588.6-672.7,6588.6-670.6L6588.6-670.6z"/>
<path d="M6462-355.7v1.9c0,0.6,0.1,1.3,0.6,1.9c0.4,0.6,1.2,0.8,2.2,0.8c2.1-0.1,4.5-0.2,7.1-0.2c1.3,0,2.7-0.1,4-0.1
	c1.4-0.1,2.8-0.1,4.1-0.2c1.4-0.1,2.8-0.1,4.1-0.2c1.4-0.1,2.7-0.1,4-0.2c2.6-0.1,5-0.2,7.1-0.3c2-0.1,3.7-0.6,4.6-1.3
	c0.4-0.4,0.7-0.8,0.8-1.1c0.1-0.3,0.2-0.5,0.2-0.5v0.5c-0.1,0.3-0.2,0.8-0.6,1.3s-1.1,1-1.9,1.4c-0.8,0.4-1.8,0.7-2.8,0.8
	c-2.1,0.4-4.5,0.7-7.1,0.9c-1.3,0.1-2.7,0.3-4,0.4c-1.4,0.1-2.8,0.2-4.2,0.2c-1.4,0-2.8,0.1-4.2,0.1h-4.1c-2.6-0.1-5.1-0.2-7.2-0.4
	c-0.5-0.1-1.1-0.1-1.6-0.4s-0.9-0.7-1.1-1.1c-0.4-0.9-0.4-1.7-0.3-2.3s0.2-1.1,0.3-1.4C6461.9-355.5,6462-355.7,6462-355.7
	L6462-355.7z M6461.6-440.3c0,0,0.6,0.2,1.6,0.5c0.5,0.2,1.2,0.3,1.9,0.5s1.6,0.4,2.4,0.5c0.9,0.2,1.9,0.3,2.9,0.5
	c1,0.1,2.1,0.2,3.3,0.3c1.1,0.1,2.3,0.1,3.5,0.2h3.6c1.2,0,2.5,0,3.7-0.1c1.2,0,2.4-0.1,3.6-0.1c2.3-0.1,4.5-0.1,6.3-0.3
	c1.8-0.2,3.2-0.6,4.1-1.2c0.4-0.3,0.8-0.6,1-0.8l0.3-0.3c0,0-0.1,0.1-0.2,0.4c-0.2,0.3-0.4,0.6-0.8,1c-0.8,0.8-2.3,1.6-4.2,2
	c-0.9,0.2-2,0.4-3,0.5c-1.1,0.1-2.2,0.3-3.3,0.4l-3.6,0.3c-1.2,0.1-2.5,0.1-3.7,0.2c-1.3,0-2.5,0-3.7-0.1c-0.6,0-1.2-0.1-1.8-0.1
	c-0.6-0.1-1.2-0.1-1.8-0.2c-1.2-0.1-2.3-0.4-3.4-0.6c-0.5-0.1-1-0.3-1.5-0.4c-0.5-0.2-1-0.3-1.4-0.4c-1.8-0.6-3.2-1.3-4.2-1.8
	C6462.2-440,6461.6-440.3,6461.6-440.3L6461.6-440.3z M6411.5-338.2l0.3,0.3c0.2,0.2,0.5,0.4,1,0.6c0.9,0.5,2.3,1,4.2,1.4
	c1.9,0.4,4.2,0.7,6.8,1.1c2.6,0.4,5.6,0.7,8.9,1.1c3.3,0.3,6.8,0.7,10.6,1c3.7,0.3,7.7,0.5,11.8,0.7c8.2,0.3,17,0.5,25.7,0.6
	c4.4,0.1,8.8,0.1,13.1,0.2c4.3,0,8.5,0.1,12.6,0s8-0.4,11.7-0.8c3.7-0.5,7.2-1.1,10.4-1.7c6.4-1.4,11.6-3,15.2-4.3
	c1.8-0.7,3.2-1.2,4.2-1.6l1.5-0.6c0,0-0.5,0.2-1.4,0.7c-0.9,0.4-2.3,1.1-4.1,1.8c-3.5,1.5-8.7,3.5-15.1,5.1
	c-6.4,1.6-14.1,2.9-22.3,3.2c-4.1,0.2-8.4,0.2-12.7,0.2c-4.3,0-8.7-0.1-13.1-0.1c-4.4-0.1-8.8-0.2-13.1-0.3
	c-4.3-0.1-8.6-0.4-12.7-0.6c-4.1-0.3-8.1-0.6-11.8-1c-3.8-0.4-7.3-0.8-10.6-1.3c-1.6-0.3-3.2-0.5-4.7-0.7c-1.5-0.3-2.9-0.5-4.2-0.8
	c-2.6-0.5-4.9-1-6.8-1.5s-3.3-1.1-4.1-1.7c-0.4-0.3-0.7-0.5-0.9-0.7C6411.6-338.1,6411.5-338.2,6411.5-338.2L6411.5-338.2z"/>
<linearGradient id="SVGID_1_" gradientUnits="userSpaceOnUse" x1="6378.7998" y1="-1055.7888" x2="6584.7002" y2="-1055.7888" gradientTransform="matrix(1 0 0 1 0 507)">
	<stop  offset="1.800000e-02" style="stop-color:#801FE3"/>
	<stop  offset="1" style="stop-color:#B7A7FF"/>
</linearGradient>
<path class="st1" d="M6378.8-642.4c1.4,24.4,2.7,48.8,4.1,73.2c0.4,7.9,0.9,15.9,2.2,23.7c1.8,11.1,5.4,21.8,8.9,32.5
	c3,9.1,6,18.2,11.1,26.3c17.8,28.1,51.5,32.7,81.9,31.3c10.6-0.5,21.3-1.5,31.5-4.7c66.9-21.3,65.2-117,66.1-172.7
	c0-2.6,0.1-5.1,0.1-7.7C6516-638.3,6447.2-636.5,6378.8-642.4L6378.8-642.4z"/>
<path d="M6373.7-662.1c0,0,0.6,8.1,1.5,22.2c0.5,7.1,1,15.6,1.7,25.5c0.6,9.8,1.4,20.9,2.1,33.1c0.4,6.1,0.7,12.4,1.3,18.9
	c0.5,6.5,1.4,13.2,3,19.9c1.6,6.7,3.7,13.5,6,20.4c2.4,6.9,4.5,14,7.5,20.9c0.8,1.7,1.5,3.4,2.4,5.1c0.9,1.6,1.8,3.3,2.8,4.8
	c1.1,1.6,2.2,3.1,3.4,4.7c1.2,1.4,2.5,2.8,3.7,4.3c5.3,5.5,11.7,10,18.8,13.2c7.1,3.3,14.8,5.4,22.6,6.6c7.9,1.3,15.9,1.7,23.9,1.7
	c8-0.1,16.1-0.4,24-1.5c3.9-0.5,7.9-1.2,11.7-2.2c1-0.3,1.9-0.5,2.8-0.8l0.7-0.2h0.1l0.2-0.1l0.4-0.1l1.4-0.5l2.8-1
	c0.5-0.2,0.9-0.3,1.4-0.5l1.3-0.6c7.1-3.1,13.7-7.4,19.4-12.5c5.7-5.1,10.5-11.1,14.4-17.5c4-6.3,7.1-13.1,9.7-19.8
	c2.6-6.8,4.6-13.6,6.3-20.3c3.2-13.5,5-26.5,6.2-38.5c1.1-12.1,1.7-23.2,2-33c0.3-9.9,0.5-18.4,0.7-25.5c0.2-14.2,0.4-22.2,0.4-22.2
	s0,2,0.1,5.8c0,3.8,0.1,9.4,0.2,16.4c0,7.1,0,15.7-0.2,25.5c-0.1,9.9-0.5,21-1.5,33.1c-1,12.1-2.6,25.2-5.7,38.9
	c-1.6,6.8-3.6,13.7-6.1,20.6c-2.5,6.9-5.7,13.8-9.8,20.3c-4,6.5-9,12.7-14.8,18.1c-5.9,5.4-12.7,9.8-20.2,13.1l-1.4,0.6
	c-0.5,0.2-0.9,0.4-1.4,0.5l-2.8,1l-1.4,0.5l-0.4,0.1l-0.2,0.1l-0.2,0.1l-0.7,0.2c-1,0.3-2,0.6-2.9,0.8c-3.9,1-8,1.8-12,2.4
	c-8.1,1.1-16.2,1.5-24.4,1.6c-8.2,0-16.3-0.5-24.4-1.8c-8-1.3-16-3.5-23.3-7c-7.4-3.4-14.1-8.1-19.6-13.9c-1.3-1.5-2.6-3.1-3.9-4.6
	c-1.1-1.6-2.2-3.2-3.3-4.7c-2.2-3.4-3.9-6.8-5.4-10.4c-3-7.1-5.2-14.2-7.5-21.2c-2.2-7-4.3-13.9-5.8-20.7
	c-1.6-6.9-2.4-13.6-2.8-20.2c-0.5-6.6-0.7-12.9-1-18.9c-0.6-12.1-1.1-23.2-1.6-33.1c-0.5-9.9-0.8-18.4-1.2-25.5
	C6374-654.1,6373.7-662.1,6373.7-662.1L6373.7-662.1z"/>
<path d="M6374.1-646.7c0,0,0.8,0,2.4,0.1s3.8,0.2,6.7,0.3c2.9,0.2,6.4,0.3,10.5,0.5c4,0.2,8.6,0.3,13.6,0.5s10.4,0.3,16.1,0.5
	s11.7,0.2,17.9,0.4c6.2,0.1,12.6,0.1,19.2,0.2c6.5,0.1,13.2,0,19.8,0.1c6.6,0,13.3,0,19.8-0.1s13-0.1,19.2-0.2
	c12.5-0.1,24.1-0.2,34-0.3c10-0.1,18.3-0.1,24.1-0.1h9.1c0,0-0.8,0.1-2.4,0.2c-1.6,0.1-3.8,0.2-6.7,0.4c-5.8,0.3-14.1,0.8-24.1,1.3
	s-21.6,0.9-34,1.3c-6.2,0.1-12.7,0.4-19.2,0.4c-6.5,0.1-13.2,0.1-19.8,0.2c-6.6,0-13.3,0-19.8-0.2c-6.5-0.1-13-0.3-19.2-0.4
	c-6.2-0.2-12.3-0.4-18-0.8c-2.9-0.2-5.6-0.3-8.3-0.5c-2.7-0.2-5.3-0.4-7.8-0.5c-2.5-0.2-4.9-0.3-7.1-0.5c-2.3-0.2-4.4-0.4-6.4-0.6
	c-4-0.4-7.6-0.7-10.4-1c-2.9-0.3-5.2-0.6-6.7-0.7C6374.9-646.6,6374.1-646.7,6374.1-646.7L6374.1-646.7z"/>
<linearGradient id="SVGID_2_" gradientUnits="userSpaceOnUse" x1="225.4248" y1="-432.6" x2="225.4248" y2="45.6075" gradientTransform="matrix(1 0 0 1 0 507)">
	<stop  offset="0" style="stop-color:#DDCF9E"/>
	<stop  offset="7.000001e-03" style="stop-color:#D9C693"/>
	<stop  offset="2.800000e-02" style="stop-color:#D0B278"/>
	<stop  offset="5.100000e-02" style="stop-color:#C9A062"/>
	<stop  offset="7.900000e-02" style="stop-color:#C39351"/>
	<stop  offset="0.113" style="stop-color:#BF8A45"/>
	<stop  offset="0.16" style="stop-color:#BD843E"/>
	<stop  offset="0.286" style="stop-color:#BC833C"/>
	<stop  offset="0.386" style="stop-color:#BC833C"/>
	<stop  offset="0.995" style="stop-color:#BC833C"/>
</linearGradient>
<path class="st2" d="M214.8,74.9c-36.7-0.2-73.3-0.3-110-0.5c-0.7,0.1-1.4,0.3-2.1,0.4c-3.4,90.9,7.7,182.2,18.8,272.7
	c5.1,41.7,15.6,151.8,18.5,166.2c1.9,9.6,4.4,19.7,11.4,26.7c8.7,8.8,22.1,10.5,34.5,11.7c22.9,2.2,118.7-2.6,128.2-17.4
	c3-4.7,4.2-10.3,5.2-15.8c10.8-57.2,29.2-356.7,29.4-375c0.3-24.3-0.3-45.5-2.2-66C315.9,76.5,231.4,74.9,214.8,74.9L214.8,74.9z"/>
<path class="st0" d="M350,9.7c15.3,82.4,12.6,162.9,6.2,246c-6.4,83-20.3,309.4-22.1,315.6c-6.1,20.5-105.5,27.7-131.4,25.3
	c-17.3-1.6-34.5-4.5-51.4-8.5c-4-1-8-2-11.4-4.3c-8.6-5.7-10.9-17.1-12.3-27.3c-11.3-80-16-161-22.2-241.5
	c-6.3-82.1-12.2-165-9.9-247.3c0.5-18.4,2.4-34.3,6.1-54.8C121,10.8,350,9.7,350,9.7z"/>
<path d="M108.6,19.1c0,0-0.4,4.7-1.1,13.4c-0.2,2.2-0.4,4.6-0.6,7.3c-0.1,2.7-0.3,5.6-0.5,8.8s-0.4,6.6-0.5,10.2
	c-0.1,3.6-0.2,7.5-0.3,11.6c-0.3,8.2-0.3,17.2-0.4,27.1c0,4.9,0.1,10.1,0.2,15.4c0,5.3,0.2,10.8,0.4,16.5
	c0.7,22.8,2.3,48.4,4.7,76.4c2.4,27.9,5.7,58.1,9.6,90c2,15.9,4,32.3,6,49.1c2,16.8,3.8,33.9,5.7,51.3c1.8,17.4,3.7,35.2,5.6,53.1
	l3,27c0.5,4.5,1.1,9.1,1.6,13.6c0.6,4.5,1.1,9.1,1.8,13.6c0.8,4.5,1.8,9,3.2,13.2c1.4,4.3,3.3,8.4,6,11.9c0.7,0.9,1.4,1.7,2.2,2.4
	l1.3,1.2c0.4,0.4,0.8,0.7,1.3,1c1.7,1.3,3.6,2.5,5.7,3.4c4,1.9,8.5,3.1,13,3.9c4.5,0.8,9.1,1.3,13.7,1.7c4.6,0.3,9.2,0.4,13.9,0.4
	c9.3,0,18.6-0.4,27.9-0.9s18.6-1.2,27.9-2.2s18.5-2.1,27.6-3.8c4.5-0.9,9.1-1.8,13.5-3.1c2.2-0.6,4.4-1.3,6.5-2.1s4.1-1.8,5.9-3
	c0.9-0.6,1.6-1.3,2.2-2c0.1-0.1,0.1-0.1,0.2-0.3l0.2-0.4c0.2-0.2,0.3-0.5,0.4-0.7c0.3-0.5,0.5-0.9,0.7-1.4c0.9-2,1.6-4.1,2.2-6.3
	s1-4.5,1.4-6.6c0.4-2.3,0.7-4.6,1.1-6.8c0.4-2.3,0.7-4.5,1.1-6.8c0.3-2.3,0.6-4.5,0.8-6.8c0.5-4.5,1.2-9,1.6-13.6
	c0.9-9.1,2-18.1,2.8-27.1c1.7-17.9,3.3-35.7,4.7-53.2c2.9-34.9,5.4-68.7,7.8-100.8c2.3-32.1,4.4-62.4,6.2-90.4
	c0.9-14,1.7-27.4,2.5-40.2c0.4-6.4,0.8-12.6,1.1-18.6c0.2-3,0.3-6,0.4-8.9s0.1-5.8,0.2-8.7c0.2-22.8-0.5-42.6-1.9-58.9
	s-3.3-29-4.7-37.7c-0.7-4.3-1.3-7.6-1.7-9.9c-0.4-2.2-0.6-3.4-0.6-3.4s0.2,1.1,0.6,3.4c0.4,2.2,1,5.5,1.8,9.8
	c1.5,8.6,3.5,21.4,5,37.7c1.6,16.3,2.5,36.2,2.5,59c0,2.9,0,5.7-0.1,8.7c-0.1,2.9-0.2,5.9-0.3,9c-0.3,6.1-0.6,12.3-0.9,18.7
	c-0.7,12.8-1.4,26.2-2.3,40.2c-1.7,28-3.6,58.3-5.7,90.4c-2.2,32.1-4.5,65.9-7.3,100.8c-1.4,17.5-2.9,35.2-4.6,53.2
	c-0.8,9-1.8,18-2.7,27.1c-0.5,4.5-1.1,9.1-1.6,13.7c-0.3,2.3-0.6,4.6-0.8,6.9c-0.3,2.3-0.7,4.5-1,6.8c-0.4,2.3-0.7,4.5-1.1,6.8
	s-0.9,4.6-1.4,6.9c-0.6,2.3-1.3,4.6-2.4,6.8c-0.3,0.5-0.5,1.1-0.8,1.6c-0.2,0.3-0.3,0.5-0.5,0.8l-0.2,0.4c-0.1,0.1-0.2,0.3-0.3,0.4
	c-0.8,1.1-1.8,2-2.9,2.7c-2.1,1.4-4.3,2.4-6.5,3.3c-2.2,0.9-4.5,1.6-6.7,2.2c-4.5,1.3-9.1,2.3-13.7,3.1c-9.2,1.7-18.5,2.9-27.8,3.9
	s-18.7,1.7-28,2.2c-9.4,0.5-18.7,0.8-28.1,0.8c-4.7,0-9.4-0.1-14.1-0.4c-4.7-0.4-9.3-0.9-14-1.8c-4.6-0.9-9.3-2.1-13.7-4.2
	c-2.2-1-4.2-2.3-6.2-3.8c-0.5-0.4-1-0.8-1.4-1.2l-1.3-1.2c-0.9-0.9-1.7-1.8-2.5-2.8c-3-3.8-5-8.3-6.5-12.7
	c-1.4-4.5-2.5-9.1-3.3-13.6c-0.8-4.6-1.3-9.2-1.8-13.7c-0.5-4.6-1-9.1-1.6-13.6c-1-9.1-1.9-18.1-2.9-27.1
	c-1.9-17.9-3.7-35.7-5.5-53.1s-3.6-34.6-5.5-51.3c-2-16.8-3.9-33.2-5.8-49.1c-3.7-31.9-6.8-62.2-9.1-90.1c-2.3-28-3.6-53.7-4.1-76.5
	c-0.1-5.7-0.3-11.2-0.3-16.5s-0.1-10.5,0-15.4c0.2-9.9,0.2-18.9,0.6-27.1c0.2-4.1,0.3-8,0.5-11.6s0.4-7,0.6-10.2
	c0.2-3.2,0.4-6.1,0.6-8.8c0.2-2.7,0.4-5.1,0.6-7.3C108.2,23.7,108.6,19.1,108.6,19.1L108.6,19.1z"/>
<path d="M105.9,65.8c0,0,15.2-0.1,37.9-0.2c11.4-0.1,24.7-0.1,38.9-0.2c7.1,0,14.5-0.1,21.9-0.1c7.5,0,15.1-0.1,22.7,0.1
	c15.2,0.4,30.3,0.7,44.6,1.1c14.2,0.4,27.5,0.8,38.8,1.2c2.8,0.1,5.6,0.2,8.2,0.2c2.6,0.1,5,0.1,7.4,0.2c2.3,0,4.5,0,6.5,0.1h9.9
	c1.3,0,2.4-0.1,3.3-0.1c1.8,0,2.7-0.1,2.7-0.1v0.3l-2.7,0.3c-0.9,0.1-2,0.2-3.3,0.3s-2.8,0.2-4.4,0.3c-3.3,0.3-7.4,0.4-12,0.6
	c-4.6,0.1-9.9,0.3-15.5,0.3h-18.4c-6.5,0-13.4-0.3-20.5-0.4c-14.2-0.5-29.4-1.2-44.5-1.8c-7.5-0.3-15.1-0.3-22.6-0.4
	c-7.5-0.1-14.8-0.2-21.9-0.2c-14.2-0.2-27.5-0.3-38.9-0.5l-37.9-0.5L105.9,65.8L105.9,65.8z"/>
</svg>
