<?xml version="1.0" encoding="utf-8"?>
<!-- Generator: Adobe Illustrator 19.2.0, SVG Export Plug-In . SVG Version: 6.00 Build 0)  -->
<svg version="1.1" id="Layer_1" xmlns="http://www.w3.org/2000/svg" xmlns:xlink="http://www.w3.org/1999/xlink" x="0px" y="0px"
	 viewBox="0 0 460 460" style="enable-background:new 0 0 460 460;" xml:space="preserve">
<style type="text/css">
	.st0{fill:none;stroke:#000000;stroke-width:5;stroke-miterlimit:10;}
	.st1{opacity:0.9;fill:url(#SVGID_1_);enable-background:new    ;}
	.st2{opacity:0.86;fill:#700517;enable-background:new    ;}
</style>
<path class="st0" d="M6588.6-810.6c0.3,38.5,0.2,82.4-5.7,120.5c-2.3,14.7-3.7,31.7-10.6,44.9c-9.4,17.9-18.6,35.9-34,49.5
	c-5.5,4.9-11.5,9.2-17.9,12.8c-4.2,2.3-15.3,5.1-15.9,10.8c-0.4,3.6,3.8,5.7,6.9,7.6c6.9,4.3,10.9,12.3,11.6,20.4
	c1.5,15.4-5.6,30.7-18.9,38.8c-0.8,0.5-1.6,1-1.9,1.8c-0.7,2.1,2.1,3.4,4.2,3.8c12.1,2.1,24,5,35.7,8.7c7.7,2.4,24.3,10.6,12,18.5
	c-7.7,4.9-17,6.2-26,7.3c-24.7,3.1-49.7,6.2-74.5,3.9c-5.6-0.5-11.2-1.4-16.8-2.2l-22.5-3.3c-5.3-0.8-11.8-2.7-12.7-7.9
	c-1.7-10.2,16.6-15.1,23.6-17.2c4.9-1.5,36.5-4.6,35.6-9.3c-0.5-2.4-2.8-3.9-4.8-5.4c-8.9-6.4-15-16.4-16.6-27.2
	c-1.6-10.8,1.3-22.2,7.9-30.9c2.2-2.9,4.9-6,4.4-9.6c-0.2-1.5-1-2.9-2-4.1c-5.1-6.7-15.9-9.5-22.8-14.7c-7.9-6-15.2-12.8-21.6-20.4
	c-12.5-14.5-22.1-31.5-27.6-49.9c-5.2-17.2-6.9-35.3-8.2-53.2c-2.3-31-3.6-62-3.8-93.1c20.2-2.4,42-1.8,62.4-1.4
	C6480.9-810,6588.6-812.7,6588.6-810.6L6588.6-810.6z"/>
<path d="M6462-495.7v1.9c0,0.6,0.1,1.3,0.6,1.9c0.4,0.6,1.2,0.8,2.2,0.8c2.1-0.1,4.5-0.2,7.1-0.2c1.3,0,2.7-0.1,4-0.1
	c1.4-0.1,2.8-0.1,4.1-0.2c1.4-0.1,2.8-0.1,4.1-0.2c1.4-0.1,2.7-0.1,4-0.2c2.6-0.1,5-0.2,7.1-0.3c2-0.1,3.7-0.6,4.6-1.3
	c0.4-0.4,0.7-0.8,0.8-1.1c0.1-0.3,0.2-0.5,0.2-0.5v0.5c-0.1,0.3-0.2,0.8-0.6,1.3s-1.1,1-1.9,1.4c-0.8,0.4-1.8,0.7-2.8,0.8
	c-2.1,0.4-4.5,0.7-7.1,0.9c-1.3,0.1-2.7,0.3-4,0.4c-1.4,0.1-2.8,0.2-4.2,0.2c-1.4,0-2.8,0.1-4.2,0.1h-4.1c-2.6-0.1-5.1-0.2-7.2-0.4
	c-0.5-0.1-1.1-0.1-1.6-0.4s-0.9-0.7-1.1-1.1c-0.4-0.9-0.4-1.7-0.3-2.3s0.2-1.1,0.3-1.4C6461.9-495.5,6462-495.7,6462-495.7
	L6462-495.7z M6461.6-580.3c0,0,0.6,0.2,1.6,0.5c0.5,0.2,1.2,0.3,1.9,0.5s1.6,0.4,2.4,0.5c0.9,0.2,1.9,0.3,2.9,0.5
	c1,0.1,2.1,0.2,3.3,0.3c1.1,0.1,2.3,0.1,3.5,0.2h3.6c1.2,0,2.5,0,3.7-0.1c1.2,0,2.4-0.1,3.6-0.1c2.3-0.1,4.5-0.1,6.3-0.3
	s3.2-0.6,4.1-1.2c0.4-0.3,0.8-0.6,1-0.8l0.3-0.3c0,0-0.1,0.1-0.2,0.4c-0.2,0.3-0.4,0.6-0.8,1c-0.8,0.8-2.3,1.6-4.2,2
	c-0.9,0.2-2,0.4-3,0.5c-1.1,0.1-2.2,0.3-3.3,0.4l-3.6,0.3c-1.2,0.1-2.5,0.1-3.7,0.2c-1.3,0-2.5,0-3.7-0.1c-0.6,0-1.2-0.1-1.8-0.1
	c-0.6-0.1-1.2-0.1-1.8-0.2c-1.2-0.1-2.3-0.4-3.4-0.6c-0.5-0.1-1-0.3-1.5-0.4c-0.5-0.2-1-0.3-1.4-0.4c-1.8-0.6-3.2-1.3-4.2-1.8
	C6462.2-580,6461.6-580.3,6461.6-580.3L6461.6-580.3z M6411.5-478.2l0.3,0.3c0.2,0.2,0.5,0.4,1,0.6c0.9,0.5,2.3,1,4.2,1.4
	c1.9,0.4,4.2,0.7,6.8,1.1c2.6,0.4,5.6,0.7,8.9,1.1c3.3,0.3,6.8,0.7,10.6,1c3.7,0.3,7.7,0.5,11.8,0.7c8.2,0.3,17,0.5,25.7,0.6
	c4.4,0.1,8.8,0.1,13.1,0.2c4.3,0,8.5,0.1,12.6,0s8-0.4,11.7-0.8c3.7-0.5,7.2-1.1,10.4-1.7c6.4-1.4,11.6-3,15.2-4.3
	c1.8-0.7,3.2-1.2,4.2-1.6l1.5-0.6c0,0-0.5,0.2-1.4,0.7c-0.9,0.4-2.3,1.1-4.1,1.8c-3.5,1.5-8.7,3.5-15.1,5.1
	c-6.4,1.6-14.1,2.9-22.3,3.2c-4.1,0.2-8.4,0.2-12.7,0.2c-4.3,0-8.7-0.1-13.1-0.1c-4.4-0.1-8.8-0.2-13.1-0.3
	c-4.3-0.1-8.6-0.4-12.7-0.6c-4.1-0.3-8.1-0.6-11.8-1c-3.8-0.4-7.3-0.8-10.6-1.3c-1.6-0.3-3.2-0.5-4.7-0.7c-1.5-0.3-2.9-0.5-4.2-0.8
	c-2.6-0.5-4.9-1-6.8-1.5s-3.3-1.1-4.1-1.7c-0.4-0.3-0.7-0.5-0.9-0.7C6411.6-478.1,6411.5-478.2,6411.5-478.2L6411.5-478.2z"/>
<linearGradient id="SVGID_1_" gradientUnits="userSpaceOnUse" x1="6378.7998" y1="-1195.7888" x2="6584.7002" y2="-1195.7888" gradientTransform="matrix(1 0 0 1 0 507)">
	<stop  offset="1.800000e-02" style="stop-color:#801FE3"/>
	<stop  offset="1" style="stop-color:#B7A7FF"/>
</linearGradient>
<path class="st1" d="M6378.8-782.4c1.4,24.4,2.7,48.8,4.1,73.2c0.4,7.9,0.9,15.9,2.2,23.7c1.8,11.1,5.4,21.8,8.9,32.5
	c3,9.1,6,18.2,11.1,26.3c17.8,28.1,51.5,32.7,81.9,31.3c10.6-0.5,21.3-1.5,31.5-4.7c66.9-21.3,65.2-117,66.1-172.7
	c0-2.6,0.1-5.1,0.1-7.7C6516-778.3,6447.2-776.5,6378.8-782.4L6378.8-782.4z"/>
<path d="M6373.7-802.1c0,0,0.6,8.1,1.5,22.2c0.5,7.1,1,15.6,1.7,25.5c0.6,9.8,1.4,20.9,2.1,33.1c0.4,6.1,0.7,12.4,1.3,18.9
	c0.5,6.5,1.4,13.2,3,19.9c1.6,6.7,3.7,13.5,6,20.4c2.4,6.9,4.5,14,7.5,20.9c0.8,1.7,1.5,3.4,2.4,5.1c0.9,1.6,1.8,3.3,2.8,4.8
	c1.1,1.6,2.2,3.1,3.4,4.7c1.2,1.4,2.5,2.8,3.7,4.3c5.3,5.5,11.7,10,18.8,13.2c7.1,3.3,14.8,5.4,22.6,6.6c7.9,1.3,15.9,1.7,23.9,1.7
	c8-0.1,16.1-0.4,24-1.5c3.9-0.5,7.9-1.2,11.7-2.2c1-0.3,1.9-0.5,2.8-0.8l0.7-0.2h0.1l0.2-0.1l0.4-0.1l1.4-0.5l2.8-1
	c0.5-0.2,0.9-0.3,1.4-0.5l1.3-0.6c7.1-3.1,13.7-7.4,19.4-12.5c5.7-5.1,10.5-11.1,14.4-17.5c4-6.3,7.1-13.1,9.7-19.8
	c2.6-6.8,4.6-13.6,6.3-20.3c3.2-13.5,5-26.5,6.2-38.5c1.1-12.1,1.7-23.2,2-33c0.3-9.9,0.5-18.4,0.7-25.5c0.2-14.2,0.4-22.2,0.4-22.2
	s0,2,0.1,5.8c0,3.8,0.1,9.4,0.2,16.4c0,7.1,0,15.7-0.2,25.5c-0.1,9.9-0.5,21-1.5,33.1c-1,12.1-2.6,25.2-5.7,38.9
	c-1.6,6.8-3.6,13.7-6.1,20.6c-2.5,6.9-5.7,13.8-9.8,20.3c-4,6.5-9,12.7-14.8,18.1c-5.9,5.4-12.7,9.8-20.2,13.1l-1.4,0.6
	c-0.5,0.2-0.9,0.4-1.4,0.5l-2.8,1l-1.4,0.5l-0.4,0.1l-0.2,0.1l-0.2,0.1l-0.7,0.2c-1,0.3-2,0.6-2.9,0.8c-3.9,1-8,1.8-12,2.4
	c-8.1,1.1-16.2,1.5-24.4,1.6c-8.2,0-16.3-0.5-24.4-1.8c-8-1.3-16-3.5-23.3-7c-7.4-3.4-14.1-8.1-19.6-13.9c-1.3-1.5-2.6-3.1-3.9-4.6
	c-1.1-1.6-2.2-3.2-3.3-4.7c-2.2-3.4-3.9-6.8-5.4-10.4c-3-7.1-5.2-14.2-7.5-21.2c-2.2-7-4.3-13.9-5.8-20.7
	c-1.6-6.9-2.4-13.6-2.8-20.2c-0.5-6.6-0.7-12.9-1-18.9c-0.6-12.1-1.1-23.2-1.6-33.1c-0.5-9.9-0.8-18.4-1.2-25.5
	C6374-794.1,6373.7-802.1,6373.7-802.1L6373.7-802.1z"/>
<path d="M6374.1-786.7c0,0,0.8,0,2.4,0.1s3.8,0.2,6.7,0.3c2.9,0.2,6.4,0.3,10.5,0.5c4,0.2,8.6,0.3,13.6,0.5s10.4,0.3,16.1,0.5
	s11.7,0.2,17.9,0.4c6.2,0.1,12.6,0.1,19.2,0.2c6.5,0.1,13.2,0,19.8,0.1c6.6,0,13.3,0,19.8-0.1s13-0.1,19.2-0.2
	c12.5-0.1,24.1-0.2,34-0.3c10-0.1,18.3-0.1,24.1-0.1h9.1c0,0-0.8,0.1-2.4,0.2c-1.6,0.1-3.8,0.2-6.7,0.4c-5.8,0.3-14.1,0.8-24.1,1.3
	s-21.6,0.9-34,1.3c-6.2,0.1-12.7,0.4-19.2,0.4c-6.5,0.1-13.2,0.1-19.8,0.2c-6.6,0-13.3,0-19.8-0.2c-6.5-0.1-13-0.3-19.2-0.4
	c-6.2-0.2-12.3-0.4-18-0.8c-2.9-0.2-5.6-0.3-8.3-0.5c-2.7-0.2-5.3-0.4-7.8-0.5c-2.5-0.2-4.9-0.3-7.1-0.5c-2.3-0.2-4.4-0.4-6.4-0.6
	c-4-0.4-7.6-0.7-10.4-1c-2.9-0.3-5.2-0.6-6.7-0.7C6374.9-786.6,6374.1-786.7,6374.1-786.7L6374.1-786.7z"/>
<path class="st2" d="M300,60.2c-17.6-1.5-35.2-3-52.9-2.1c-8.3,0.4-16.6,1.4-24.9,1.9c-7,0.4-14,0.6-21.1,0.7
	c-11.7,0.2-23.3,0.5-35,0.7c-0.4,0-0.7,0-1,0.1c2.2,11.3,3.7,22.7,4.6,34.3c0.8,10.6,1.2,20.5,1,31.2c-0.2,8.3,0.4,7.7,1.2,16
	c1.3,14.3,2.9,28.7,7.5,42s12.3,25.5,23,31.7c4.3,2.5,8.8,3,13.5,3.6c11.9,1.3,22.9,1.7,34.7-0.8c6-1.3,12-3.1,17.3-6.7
	c11.4-7.7,19.7-25.6,21.5-41c2.2-18.9,0.4-29.2,2.2-47.9c1.8-18.2,2.6-37.3,6.7-54.9c0.7-2.9,1.4-5.8,2.1-8.6
	C300.3,60.2,300.2,60.2,300,60.2L300,60.2z"/>
<path class="st0" d="M320.2,13C314.6,30.5,307,48.6,304,66.9c-3.1,19.4-6.6,38.2-7.3,58.1c-0.8,21.8-0.7,35-4.5,56.5
	c-2.2,12.7-7.8,25.4-15.7,34.5c-4.3,5-9.6,8.8-15.3,11.1c-3.9,1.5-11.1,1-14.1,4.2c1.4,4.3,1.2,9.3-0.5,13.5
	c-1.8,4.4-2.7,7.2-1.8,12c0.5,2.9,1.9,5.8,1.7,8.8c-0.2,3.4-2,6-1.6,9.7c2.1-1,4.2-0.7,6.2,0.6c1.3,0.8,2.4,2.3,2.4,4
	c0.2,5.3-5,5.1-7.4,7.6c-3.5,3.7,0.3,10.6,1.9,14c4.2,9.3,4.3,18.3,1.9,28.5c-2.3,9.8-4.8,28.5-7.7,38.1c-3.5,11.7-4.4,22.7,0,34.5
	c3.2,8.7,8.3,11.3,15.4,15c11.4,6,23,11.7,35,15.5c6.9,2.1,13.9,3.7,20.4,7.2c-0.2,2.6-0.2,5.3,0.1,7.9c-22.9,5.1-46.5,6.6-69.7,8.5
	c-12.7,1-25.5-0.7-38.2-1.5c-20.9-1.3-41.8-2.9-62-8.8c-0.5-4.5-2.5-6.7,0.7-8.6c2.4-1.4,7.7-0.6,10.5-1c6.7-0.9,13.3-2.3,19.8-4.3
	c12.8-3.8,25.1-9.4,36.7-16.8c2.2-1.4,4.5-3,5.7-5.7c1-2.2,1.1-4.8,1.1-7.3c0.1-13.5-1.4-27-4.5-40c-2.3-9.8-5.5-28.5-6.4-38.6
	c-0.5-5.8-0.2-11.8,0.9-17.4c0.5-3,1.3-6.1,2.4-8.9c0.8-1.9,3.3-4.5,3.7-6.2c1.6-7.1-6.5-5.4-8.2-10c-2-5.3,9-10.3,10.1-7.9
	c-3.4-7.6,0.4-15.7,0-23.5c0-1-0.1-1.9-0.5-2.8s-1-1.6-1.5-2.5c-2.3-4.1-0.4-9.1,0.8-13.1c-11.9-2.5-21.3-5.8-30.1-16.3
	c-8.1-9.5-13.9-21.9-16.9-34.8c-6.1-26.1-5.7-44.9-7-71.9c-1.7-34-7.5-67.7-20.7-97.9c22.6-0.6,45.1-0.6,67.7-1.1
	c6.7-0.2,13.4-0.3,20.1-0.5c9.3-0.2,18.6-0.5,28-0.3C276.7,9.2,299.3,13.4,320.2,13z"/>
<path d="M147.9,14.9c0,0,0.7,1.8,2,5.1c1.3,3.4,3.2,8.3,5.2,14.7c2,6.4,4.3,14.2,6.4,23.4c2.1,9.1,4,19.5,5.3,31
	c0.7,5.7,1.1,11.7,1.6,17.9c0.4,6.2,0.7,12.6,0.7,19.2c0,3.3-0.1,6.7,0.1,9.9c0.1,1.6,0.4,3.3,0.6,5s0.4,3.4,0.6,5.2
	c0.7,6.9,1.4,13.9,2.5,20.9c1.2,7,2.8,14.1,5.2,21c2.4,6.9,5.8,13.5,10.2,19.4c2.2,2.9,4.8,5.6,7.7,7.9c0.7,0.6,1.5,1.1,2.2,1.6
	c0.8,0.5,1.6,1,2.3,1.4c1.6,0.9,3.2,1.5,5,2c3.5,0.9,7.3,1.2,11.1,1.6c3.8,0.4,7.6,0.6,11.3,0.6c7.6,0.1,15.1-0.6,22.4-2.4
	c3.6-0.9,7.2-2,10.4-3.7c1.6-0.8,3.2-1.7,4.6-2.9c0.4-0.3,0.8-0.6,1.1-0.8l1-0.9c0.7-0.6,1.3-1.2,1.9-1.9
	c5.1-5.3,8.7-11.8,11.4-18.5c1.4-3.4,2.4-6.8,3.2-10.3c0.8-3.5,1.3-7,1.6-10.6c0.7-7.1,0.8-14.1,0.9-21s0.3-13.7,0.9-20.3
	c1.4-13.1,2.3-25.5,3.7-37c0.7-5.7,1.6-11.2,2.7-16.3c1.1-5.2,2.4-9.9,3.6-14.5c2.4-9,4.8-16.8,6.9-23.2c2.1-6.4,3.9-11.3,5.2-14.7
	c1.3-3.4,2-5.1,2-5.1s-0.6,1.8-1.8,5.2c-1.2,3.4-2.8,8.4-4.8,14.8s-4.2,14.2-6.4,23.3c-1.1,4.5-2.3,9.4-3.2,14.5
	c-1,5.1-1.8,10.6-2.4,16.2c-1.3,11.4-2,23.8-3.2,36.9c-1.2,13,0,26.9-1.4,41.4c-0.3,3.5-0.8,7.3-1.6,10.9c-0.8,3.6-1.9,7.2-3.3,10.7
	c-2.8,7-6.6,13.8-11.9,19.4c-0.7,0.7-1.3,1.4-2.1,2.1l-1.1,1c-0.4,0.3-0.8,0.6-1.1,0.9c-1.6,1.2-3.3,2.2-5,3.1c-3.5,1.8-7.3,3-11,4
	c-7.5,1.9-15.4,2.7-23.1,2.6c-3.9-0.1-7.7-0.3-11.6-0.7c-3.8-0.4-7.7-0.7-11.6-1.7c-1.9-0.5-3.9-1.3-5.6-2.3c-0.9-0.5-1.7-1-2.5-1.6
	s-1.6-1.1-2.4-1.8c-3.1-2.5-5.8-5.3-8.1-8.4c-4.7-6.2-8.1-13.1-10.5-20.2c-2.5-7.1-4.1-14.3-5.2-21.5c-1.1-7.1-1.9-14.2-2.4-21.1
	c-0.1-1.7-0.3-3.4-0.5-5.1s-0.5-3.4-0.6-5.1c-0.2-3.5,0-6.8,0-10.1c0.1-6.6-0.1-12.9-0.4-19.1s-0.7-12.1-1.3-17.8
	c-1.2-11.4-2.8-21.8-4.7-30.9c-1.9-9.1-3.9-17-5.8-23.4S151.2,23.4,150,20C148.5,16.7,147.9,14.9,147.9,14.9L147.9,14.9z"/>
<path d="M162.6,64.6c0,0,8.4-0.4,21-0.9c6.3-0.3,13.7-0.6,21.5-1c3.9-0.2,8-0.4,12.1-0.6s8.3-0.7,12.5-1.1s8.4-0.9,12.5-1.2
	c4.2-0.3,8.3-0.5,12.2-0.5c4,0,7.8,0.1,11.4,0.3c3.6,0.2,7,0.5,10.2,0.8s6,0.6,8.6,0.9s4.8,0.6,6.6,0.9c3.7,0.5,5.7,0.9,5.7,0.9v0.3
	c0,0-2.1,0-5.8-0.1c-1.8,0-4.1-0.1-6.6-0.2c-2.6-0.1-5.4-0.2-8.6-0.3c-3.1-0.1-6.6-0.2-10.2-0.3c-3.6,0-7.4-0.1-11.3-0.1
	s-8,0.1-12.1,0.2c-4.1,0.2-8.3,0.5-12.5,0.8s-8.4,0.7-12.6,0.7c-4.1,0.1-8.2,0.2-12.2,0.3c-3.9,0.1-7.8,0.2-11.4,0.2
	s-7,0.1-10.2,0.1c-12.6,0.1-21,0.2-21,0.2L162.6,64.6L162.6,64.6z M218,414.6l0.2,0.2c0.1,0.1,0.4,0.3,0.6,0.6
	c0.6,0.4,1.4,1,2.5,1.4s2.4,0.7,3.9,0.9c0.4,0,0.8,0.1,1.2,0.1c0.4,0,0.8,0.1,1.2,0.1c0.8,0,1.6,0.1,2.4,0.1s1.6,0,2.4-0.1
	s1.6-0.1,2.3-0.2c0.7-0.1,1.5-0.2,2.2-0.3s1.3-0.2,1.9-0.4c1.2-0.2,2.2-0.5,2.9-0.7c0.7-0.2,1.1-0.3,1.1-0.3s-0.3,0.2-1,0.6
	c-0.6,0.4-1.5,0.9-2.7,1.4c-0.6,0.3-1.2,0.5-1.9,0.7c-0.7,0.2-1.4,0.4-2.2,0.6c-0.8,0.2-1.6,0.3-2.4,0.4c-0.8,0.1-1.7,0.1-2.6,0.1
	s-1.7-0.1-2.6-0.1c-0.4,0-0.8-0.1-1.3-0.2c-0.4-0.1-0.8-0.2-1.2-0.2c-1.6-0.3-3-0.9-4.2-1.6c-1.1-0.7-1.9-1.5-2.3-2.2
	C218.2,415.2,218.1,414.9,218,414.6L218,414.6z M148.3,439.8c0,0,2.4,0.6,6.6,1.7c2.1,0.6,4.6,1.3,7.5,2s6.2,1,9.9,1h5.8
	c2,0,4.1,0.1,6.2,0.2c4.3,0.2,8.7,0.6,13.3,1.2c9.2,1.1,18.9,2.6,28.7,3.1c4.9,0.3,9.8,0.2,14.6,0c4.8-0.2,9.6-0.7,14.2-1.2
	c9.2-1,17.8-1.9,25.1-2.7c7.4-0.8,13.5-1.3,17.8-1.7s6.8-0.6,6.8-0.6s-2.4,0.4-6.7,1c-4.3,0.6-10.4,1.5-17.7,2.5
	c-3.7,0.5-7.6,1-11.8,1.6c-4.2,0.6-8.6,1.2-13.2,1.7c-9.2,1.1-19.1,2-29.1,1.5c-9.9-0.6-19.7-2.2-28.9-3.4c-4.6-0.6-9-1.1-13.2-1.5
	c-2.1-0.2-4.2-0.3-6.1-0.3c-2-0.1-3.9-0.1-5.8-0.2s-3.6-0.2-5.3-0.4c-1.7-0.2-3.3-0.6-4.7-1c-2.9-0.8-5.4-1.7-7.5-2.3
	C150.6,440.6,148.3,439.8,148.3,439.8L148.3,439.8z M220.4,292.5c0,0,0.3,0,0.8,0.1c0.5,0,1.3,0.1,2.2,0.2c0.4,0,0.9,0.1,1.4,0.1
	s1,0,1.6,0.1h3.4c1.2-0.1,2.3-0.1,3.4-0.2c0.5-0.1,1.1-0.1,1.6-0.2s1-0.1,1.4-0.2c0.9-0.1,1.6-0.3,2.2-0.3c0.5-0.1,0.8-0.1,0.8-0.1
	s-0.2,0.2-0.7,0.5c-0.2,0.2-0.5,0.3-0.8,0.5s-0.7,0.4-1.1,0.6c-0.8,0.4-1.9,0.7-3,1c-0.6,0.1-1.2,0.3-1.8,0.3
	c-0.6,0.1-1.2,0.1-1.9,0.2H228c-0.6,0-1.2-0.1-1.8-0.2c-1.1-0.2-2.2-0.5-3.1-0.8c-0.4-0.1-0.8-0.3-1.2-0.5c-0.3-0.1-0.6-0.3-0.9-0.4
	C220.7,292.6,220.4,292.5,220.4,292.5L220.4,292.5z M216.5,277.4c0,0,0.4-0.1,1.1-0.3s1.8-0.5,3-0.7c1.3-0.2,2.7-0.4,4.3-0.5
	c0.8,0,1.6-0.1,2.5-0.1h2.5c0.9,0,1.7,0.1,2.5,0.2s1.7,0.2,2.4,0.3c1.6,0.2,3,0.6,4.3,0.9c0.6,0.2,1.2,0.3,1.7,0.5s0.9,0.5,1.2,0.7
	c0.6,0.5,0.7,1,0.7,1l-0.2-0.2c-0.1-0.1-0.4-0.3-0.7-0.4c-0.3-0.1-0.7-0.2-1.2-0.3s-1.1-0.1-1.7-0.1c-1.2-0.1-2.7-0.2-4.3-0.3
	c-0.8,0-1.6-0.1-2.4-0.1c-0.8-0.1-1.6-0.1-2.5-0.1c-1.7-0.1-3.3-0.1-4.9-0.2c-1.6,0-3-0.1-4.3-0.1s-2.3,0-3.1-0.1
	C217,277.4,216.5,277.4,216.5,277.4L216.5,277.4z M220.8,259.8h0.8c0.5,0,1.3,0,2.1,0.1c0.9,0.1,1.9,0.1,3,0.2s2.2,0.2,3.4,0.3
	c1.1,0.1,2.3,0.2,3.4,0.4c1.1,0.1,2.1,0.3,2.9,0.4c0.9,0.1,1.6,0.2,2.1,0.3c0.5,0.1,0.8,0.2,0.8,0.2s-1.1,0.4-2.9,0.6
	c-0.9,0.1-1.9,0.2-3,0.2h-1.7c-0.6,0-1.2-0.1-1.8-0.1c-0.6-0.1-1.2-0.1-1.8-0.2c-0.6-0.1-1.1-0.2-1.7-0.3c-1.1-0.2-2.1-0.5-2.9-0.8
	C221.8,260.4,220.8,259.8,220.8,259.8L220.8,259.8z M220.4,246.7h1c0.6,0,1.5,0.1,2.5,0.1c0.5,0,1.1,0,1.6,0.1c0.6,0,1.2,0,1.8,0.1
	h3.9c1.3,0,2.7-0.1,3.9-0.1c0.6,0,1.2-0.1,1.8-0.1c0.6,0,1.1-0.1,1.6-0.1c1-0.1,1.9-0.1,2.5-0.2h1c0,0-0.3,0.2-0.9,0.4
	c-0.6,0.3-1.4,0.6-2.4,0.9s-2.2,0.6-3.5,0.8c-0.6,0.1-1.3,0.2-2,0.2c-0.7,0.1-1.4,0.1-2.1,0.1s-1.4,0-2.1-0.1c-0.7,0-1.4-0.1-2-0.2
	c-1.3-0.2-2.5-0.4-3.5-0.8c-1-0.3-1.8-0.6-2.4-0.9C220.7,246.9,220.4,246.7,220.4,246.7L220.4,246.7z M221.5,233c0,0,0.3,0,0.8,0.1
	s1.3,0.1,2.2,0.3c0.4,0,0.9,0.1,1.4,0.2s1,0.1,1.6,0.2c1.1,0.1,2.3,0.2,3.4,0.2c1.2,0,2.3,0.1,3.4,0.1h3c0.9,0,1.7-0.1,2.2-0.1h0.8
	c0,0-0.3,0.2-0.8,0.4s-1.2,0.5-2.1,0.8s-1.9,0.5-3.1,0.7c-0.6,0.1-1.2,0.2-1.8,0.2h-1.8c-0.6,0-1.2-0.1-1.8-0.2l-1.8-0.3
	c-1.1-0.3-2.2-0.6-3-0.9c-0.9-0.3-1.6-0.7-2-1C221.7,233.2,221.5,233,221.5,233L221.5,233z"/>
</svg>
