<svg id="Layer_1" xmlns="http://www.w3.org/2000/svg" viewBox="0 0 460 460"><style>.st0{fill:none;stroke:#000;stroke-width:5;stroke-miterlimit:10}.st1,.st2{opacity:.9;fill:url(#SVGID_1_);enable-background:new}.st2{opacity:.86;fill:#700517}</style><path class="st0" d="M6588.6-810.6c.3 38.5.2 82.4-5.7 120.5-2.3 14.7-3.7 31.7-10.6 44.9-9.4 17.9-18.6 35.9-34 49.5-5.5 4.9-11.5 9.2-17.9 12.8-4.2 2.3-15.3 5.1-15.9 10.8-.4 3.6 3.8 5.7 6.9 7.6 6.9 4.3 10.9 12.3 11.6 20.4 1.5 15.4-5.6 30.7-18.9 38.8-.8.5-1.6 1-1.9 1.8-.7 2.1 2.1 3.4 4.2 3.8 12.1 2.1 24 5 35.7 8.7 7.7 2.4 24.3 10.6 12 18.5-7.7 4.9-17 6.2-26 7.3-24.7 3.1-49.7 6.2-74.5 3.9-5.6-.5-11.2-1.4-16.8-2.2l-22.5-3.3c-5.3-.8-11.8-2.7-12.7-7.9-1.7-10.2 16.6-15.1 23.6-17.2 4.9-1.5 36.5-4.6 35.6-9.3-.5-2.4-2.8-3.9-4.8-5.4-8.9-6.4-15-16.4-16.6-27.2-1.6-10.8 1.3-22.2 7.9-30.9 2.2-2.9 4.9-6 4.4-9.6-.2-1.5-1-2.9-2-4.1-5.1-6.7-15.9-9.5-22.8-14.7-7.9-6-15.2-12.8-21.6-20.4-12.5-14.5-22.1-31.5-27.6-49.9-5.2-17.2-6.9-35.3-8.2-53.2-2.3-31-3.6-62-3.8-93.1 20.2-2.4 42-1.8 62.4-1.4 52.8 1.1 160.5-1.6 160.5.5z"/><path d="M6462-495.7v1.9c0 .6.1 1.3.6 1.9.4.6 1.2.8 2.2.8 2.1-.1 4.5-.2 7.1-.2 1.3 0 2.7-.1 4-.1 1.4-.1 2.8-.1 4.1-.2 1.4-.1 2.8-.1 4.1-.2 1.4-.1 2.7-.1 4-.2 2.6-.1 5-.2 7.1-.3 2-.1 3.7-.6 4.6-1.3.4-.4.7-.8.8-1.1.1-.3.2-.5.2-.5v.5c-.1.3-.2.8-.6 1.3s-1.1 1-1.9 1.4c-.8.4-1.8.7-2.8.8-2.1.4-4.5.7-7.1.9-1.3.1-2.7.3-4 .4-1.4.1-2.8.2-4.2.2-1.4 0-2.8.1-4.2.1h-4.1c-2.6-.1-5.1-.2-7.2-.4-.5-.1-1.1-.1-1.6-.4s-.9-.7-1.1-1.1c-.4-.9-.4-1.7-.3-2.3s.2-1.1.3-1.4c-.1-.3 0-.5 0-.5zm-.4-84.6s.6.2 1.6.5c.5.2 1.2.3 1.9.5s1.6.4 2.4.5c.9.2 1.9.3 2.9.5 1 .1 2.1.2 3.3.3 1.1.1 2.3.1 3.5.2h3.6c1.2 0 2.5 0 3.7-.1 1.2 0 2.4-.1 3.6-.1 2.3-.1 4.5-.1 6.3-.3s3.2-.6 4.1-1.2c.4-.3.8-.6 1-.8l.3-.3s-.1.1-.2.4c-.2.3-.4.6-.8 1-.8.8-2.3 1.6-4.2 2-.9.2-2 .4-3 .5-1.1.1-2.2.3-3.3.4l-3.6.3c-1.2.1-2.5.1-3.7.2-1.3 0-2.5 0-3.7-.1-.6 0-1.2-.1-1.8-.1-.6-.1-1.2-.1-1.8-.2-1.2-.1-2.3-.4-3.4-.6-.5-.1-1-.3-1.5-.4-.5-.2-1-.3-1.4-.4-1.8-.6-3.2-1.3-4.2-1.8-1-.6-1.6-.9-1.6-.9zm-50.1 102.1l.3.3c.2.2.5.4 1 .6.9.5 2.3 1 4.2 1.4 1.9.4 4.2.7 6.8 1.1 2.6.4 5.6.7 8.9 1.1 3.3.3 6.8.7 10.6 1 3.7.3 7.7.5 11.8.7 8.2.3 17 .5 25.7.6 4.4.1 8.8.1 13.1.2 4.3 0 8.5.1 12.6 0s8-.4 11.7-.8c3.7-.5 7.2-1.1 10.4-1.7 6.4-1.4 11.6-3 15.2-4.3 1.8-.7 3.2-1.2 4.2-1.6l1.5-.6s-.5.2-1.4.7c-.9.4-2.3 1.1-4.1 1.8-3.5 1.5-8.7 3.5-15.1 5.1-6.4 1.6-14.1 2.9-22.3 3.2-4.1.2-8.4.2-12.7.2-4.3 0-8.7-.1-13.1-.1-4.4-.1-8.8-.2-13.1-.3-4.3-.1-8.6-.4-12.7-.6-4.1-.3-8.1-.6-11.8-1-3.8-.4-7.3-.8-10.6-1.3-1.6-.3-3.2-.5-4.7-.7-1.5-.3-2.9-.5-4.2-.8-2.6-.5-4.9-1-6.8-1.5s-3.3-1.1-4.1-1.7c-.4-.3-.7-.5-.9-.7-.3-.2-.4-.3-.4-.3z"/><linearGradient id="SVGID_1_" gradientUnits="userSpaceOnUse" x1="6378.8" y1="-1195.789" x2="6584.7" y2="-1195.789" gradientTransform="translate(0 507)"><stop offset=".018" stop-color="#801fe3"/><stop offset="1" stop-color="#b7a7ff"/></linearGradient><path class="st1" d="M6378.8-782.4c1.4 24.4 2.7 48.8 4.1 73.2.4 7.9.9 15.9 2.2 23.7 1.8 11.1 5.4 21.8 8.9 32.5 3 9.1 6 18.2 11.1 26.3 17.8 28.1 51.5 32.7 81.9 31.3 10.6-.5 21.3-1.5 31.5-4.7 66.9-21.3 65.2-117 66.1-172.7 0-2.6.1-5.1.1-7.7-68.7 2.2-137.5 4-205.9-1.9z"/><path d="M6373.7-802.1s.6 8.1 1.5 22.2c.5 7.1 1 15.6 1.7 25.5.6 9.8 1.4 20.9 2.1 33.1.4 6.1.7 12.4 1.3 18.9.5 6.5 1.4 13.2 3 19.9 1.6 6.7 3.7 13.5 6 20.4 2.4 6.9 4.5 14 7.5 20.9.8 1.7 1.5 3.4 2.4 5.1.9 1.6 1.8 3.3 2.8 4.8 1.1 1.6 2.2 3.1 3.4 4.7 1.2 1.4 2.5 2.8 3.7 4.3 5.3 5.5 11.7 10 18.8 13.2 7.1 3.3 14.8 5.4 22.6 6.6 7.9 1.3 15.9 1.7 23.9 1.7 8-.1 16.1-.4 24-1.5 3.9-.5 7.9-1.2 11.7-2.2 1-.3 1.9-.5 2.8-.8l.7-.2h.1l.2-.1.4-.1 1.4-.5 2.8-1c.5-.2.9-.3 1.4-.5l1.3-.6c7.1-3.1 13.7-7.4 19.4-12.5 5.7-5.1 10.5-11.1 14.4-17.5 4-6.3 7.1-13.1 9.7-19.8 2.6-6.8 4.6-13.6 6.3-20.3 3.2-13.5 5-26.5 6.2-38.5 1.1-12.1 1.7-23.2 2-33 .3-9.9.5-18.4.7-25.5.2-14.2.4-22.2.4-22.2s0 2 .1 5.8c0 3.8.1 9.4.2 16.4 0 7.1 0 15.7-.2 25.5-.1 9.9-.5 21-1.5 33.1-1 12.1-2.6 25.2-5.7 38.9-1.6 6.8-3.6 13.7-6.1 20.6-2.5 6.9-5.7 13.8-9.8 20.3-4 6.5-9 12.7-14.8 18.1-5.9 5.4-12.7 9.8-20.2 13.1l-1.4.6c-.5.2-.9.4-1.4.5l-2.8 1-1.4.5-.4.1-.2.1-.2.1-.7.2c-1 .3-2 .6-2.9.8-3.9 1-8 1.8-12 2.4-8.1 1.1-16.2 1.5-24.4 1.6-8.2 0-16.3-.5-24.4-1.8-8-1.3-16-3.5-23.3-7-7.4-3.4-14.1-8.1-19.6-13.9-1.3-1.5-2.6-3.1-3.9-4.6-1.1-1.6-2.2-3.2-3.3-4.7-2.2-3.4-3.9-6.8-5.4-10.4-3-7.1-5.2-14.2-7.5-21.2-2.2-7-4.3-13.9-5.8-20.7-1.6-6.9-2.4-13.6-2.8-20.2-.5-6.6-.7-12.9-1-18.9-.6-12.1-1.1-23.2-1.6-33.1-.5-9.9-.8-18.4-1.2-25.5-.7-14.2-1-22.2-1-22.2z"/><path d="M6374.1-786.7s.8 0 2.4.1 3.8.2 6.7.3c2.9.2 6.4.3 10.5.5 4 .2 8.6.3 13.6.5s10.4.3 16.1.5 11.7.2 17.9.4c6.2.1 12.6.1 19.2.2 6.5.1 13.2 0 19.8.1 6.6 0 13.3 0 19.8-.1s13-.1 19.2-.2c12.5-.1 24.1-.2 34-.3 10-.1 18.3-.1 24.1-.1h9.1s-.8.1-2.4.2c-1.6.1-3.8.2-6.7.4-5.8.3-14.1.8-24.1 1.3s-21.6.9-34 1.3c-6.2.1-12.7.4-19.2.4-6.5.1-13.2.1-19.8.2-6.6 0-13.3 0-19.8-.2-6.5-.1-13-.3-19.2-.4-6.2-.2-12.3-.4-18-.8-2.9-.2-5.6-.3-8.3-.5-2.7-.2-5.3-.4-7.8-.5-2.5-.2-4.9-.3-7.1-.5-2.3-.2-4.4-.4-6.4-.6-4-.4-7.6-.7-10.4-1-2.9-.3-5.2-.6-6.7-.7-1.7-.4-2.5-.5-2.5-.5z"/><path class="st2" d="M300 60.2c-17.6-1.5-35.2-3-52.9-2.1-8.3.4-16.6 1.4-24.9 1.9-7 .4-14 .6-21.1.7-11.7.2-23.3.5-35 .7-.4 0-.7 0-1 .1 2.2 11.3 3.7 22.7 4.6 34.3.8 10.6 1.2 20.5 1 31.2-.2 8.3.4 7.7 1.2 16 1.3 14.3 2.9 28.7 7.5 42s12.3 25.5 23 31.7c4.3 2.5 8.8 3 13.5 3.6 11.9 1.3 22.9 1.7 34.7-.8 6-1.3 12-3.1 17.3-6.7 11.4-7.7 19.7-25.6 21.5-41 2.2-18.9.4-29.2 2.2-47.9 1.8-18.2 2.6-37.3 6.7-54.9.7-2.9 1.4-5.8 2.1-8.6-.1-.2-.2-.2-.4-.2z"/><path class="st0" d="M320.2 13C314.6 30.5 307 48.6 304 66.9c-3.1 19.4-6.6 38.2-7.3 58.1-.8 21.8-.7 35-4.5 56.5-2.2 12.7-7.8 25.4-15.7 34.5-4.3 5-9.6 8.8-15.3 11.1-3.9 1.5-11.1 1-14.1 4.2 1.4 4.3 1.2 9.3-.5 13.5-1.8 4.4-2.7 7.2-1.8 12 .5 2.9 1.9 5.8 1.7 8.8-.2 3.4-2 6-1.6 9.7 2.1-1 4.2-.7 6.2.6 1.3.8 2.4 2.3 2.4 4 .2 5.3-5 5.1-7.4 7.6-3.5 3.7.3 10.6 1.9 14 4.2 9.3 4.3 18.3 1.9 28.5-2.3 9.8-4.8 28.5-7.7 38.1-3.5 11.7-4.4 22.7 0 34.5 3.2 8.7 8.3 11.3 15.4 15 11.4 6 23 11.7 35 15.5 6.9 2.1 13.9 3.7 20.4 7.2-.2 2.6-.2 5.3.1 7.9-22.9 5.1-46.5 6.6-69.7 8.5-12.7 1-25.5-.7-38.2-1.5-20.9-1.3-41.8-2.9-62-8.8-.5-4.5-2.5-6.7.7-8.6 2.4-1.4 7.7-.6 10.5-1 6.7-.9 13.3-2.3 19.8-4.3 12.8-3.8 25.1-9.4 36.7-16.8 2.2-1.4 4.5-3 5.7-5.7 1-2.2 1.1-4.8 1.1-7.3.1-13.5-1.4-27-4.5-40-2.3-9.8-5.5-28.5-6.4-38.6-.5-5.8-.2-11.8.9-17.4.5-3 1.3-6.1 2.4-8.9.8-1.9 3.3-4.5 3.7-6.2 1.6-7.1-6.5-5.4-8.2-10-2-5.3 9-10.3 10.1-7.9-3.4-7.6.4-15.7 0-23.5 0-1-.1-1.9-.5-2.8s-1-1.6-1.5-2.5c-2.3-4.1-.4-9.1.8-13.1-11.9-2.5-21.3-5.8-30.1-16.3-8.1-9.5-13.9-21.9-16.9-34.8-6.1-26.1-5.7-44.9-7-71.9-1.7-34-7.5-67.7-20.7-97.9 22.6-.6 45.1-.6 67.7-1.1 6.7-.2 13.4-.3 20.1-.5 9.3-.2 18.6-.5 28-.3 21.1.2 43.7 4.4 64.6 4z"/><path d="M147.9 14.9s.7 1.8 2 5.1c1.3 3.4 3.2 8.3 5.2 14.7 2 6.4 4.3 14.2 6.4 23.4 2.1 9.1 4 19.5 5.3 31 .7 5.7 1.1 11.7 1.6 17.9.4 6.2.7 12.6.7 19.2 0 3.3-.1 6.7.1 9.9.1 1.6.4 3.3.6 5s.4 3.4.6 5.2c.7 6.9 1.4 13.9 2.5 20.9 1.2 7 2.8 14.1 5.2 21 2.4 6.9 5.8 13.5 10.2 19.4 2.2 2.9 4.8 5.6 7.7 7.9.7.6 1.5 1.1 2.2 1.6.8.5 1.6 1 2.3 1.4 1.6.9 3.2 1.5 5 2 3.5.9 7.3 1.2 11.1 1.6 3.8.4 7.6.6 11.3.6 7.6.1 15.1-.6 22.4-2.4 3.6-.9 7.2-2 10.4-3.7 1.6-.8 3.2-1.7 4.6-2.9.4-.3.8-.6 1.1-.8l1-.9c.7-.6 1.3-1.2 1.9-1.9 5.1-5.3 8.7-11.8 11.4-18.5 1.4-3.4 2.4-6.8 3.2-10.3.8-3.5 1.3-7 1.6-10.6.7-7.1.8-14.1.9-21s.3-13.7.9-20.3c1.4-13.1 2.3-25.5 3.7-37 .7-5.7 1.6-11.2 2.7-16.3 1.1-5.2 2.4-9.9 3.6-14.5 2.4-9 4.8-16.8 6.9-23.2 2.1-6.4 3.9-11.3 5.2-14.7 1.3-3.4 2-5.1 2-5.1s-.6 1.8-1.8 5.2c-1.2 3.4-2.8 8.4-4.8 14.8s-4.2 14.2-6.4 23.3c-1.1 4.5-2.3 9.4-3.2 14.5-1 5.1-1.8 10.6-2.4 16.2-1.3 11.4-2 23.8-3.2 36.9-1.2 13 0 26.9-1.4 41.4-.3 3.5-.8 7.3-1.6 10.9-.8 3.6-1.9 7.2-3.3 10.7-2.8 7-6.6 13.8-11.9 19.4-.7.7-1.3 1.4-2.1 2.1l-1.1 1c-.4.3-.8.6-1.1.9-1.6 1.2-3.3 2.2-5 3.1-3.5 1.8-7.3 3-11 4-7.5 1.9-15.4 2.7-23.1 2.6-3.9-.1-7.7-.3-11.6-.7-3.8-.4-7.7-.7-11.6-1.7-1.9-.5-3.9-1.3-5.6-2.3-.9-.5-1.7-1-2.5-1.6s-1.6-1.1-2.4-1.8c-3.1-2.5-5.8-5.3-8.1-8.4-4.7-6.2-8.1-13.1-10.5-20.2-2.5-7.1-4.1-14.3-5.2-21.5-1.1-7.1-1.9-14.2-2.4-21.1-.1-1.7-.3-3.4-.5-5.1s-.5-3.4-.6-5.1c-.2-3.5 0-6.8 0-10.1.1-6.6-.1-12.9-.4-19.1s-.7-12.1-1.3-17.8c-1.2-11.4-2.8-21.8-4.7-30.9-1.9-9.1-3.9-17-5.8-23.4S151.2 23.4 150 20c-1.5-3.3-2.1-5.1-2.1-5.1z"/><path d="M162.6 64.6s8.4-.4 21-.9c6.3-.3 13.7-.6 21.5-1 3.9-.2 8-.4 12.1-.6s8.3-.7 12.5-1.1 8.4-.9 12.5-1.2c4.2-.3 8.3-.5 12.2-.5 4 0 7.8.1 11.4.3 3.6.2 7 .5 10.2.8s6 .6 8.6.9 4.8.6 6.6.9c3.7.5 5.7.9 5.7.9v.3s-2.1 0-5.8-.1c-1.8 0-4.1-.1-6.6-.2-2.6-.1-5.4-.2-8.6-.3-3.1-.1-6.6-.2-10.2-.3-3.6 0-7.4-.1-11.3-.1s-8 .1-12.1.2c-4.1.2-8.3.5-12.5.8s-8.4.7-12.6.7c-4.1.1-8.2.2-12.2.3-3.9.1-7.8.2-11.4.2s-7 .1-10.2.1c-12.6.1-21 .2-21 .2l.2-.3zm55.4 350l.2.2c.1.1.4.3.6.6.6.4 1.4 1 2.5 1.4s2.4.7 3.9.9c.4 0 .8.1 1.2.1.4 0 .8.1 1.2.1.8 0 1.6.1 2.4.1s1.6 0 2.4-.1 1.6-.1 2.3-.2c.7-.1 1.5-.2 2.2-.3s1.3-.2 1.9-.4c1.2-.2 2.2-.5 2.9-.7.7-.2 1.1-.3 1.1-.3s-.3.2-1 .6c-.6.4-1.5.9-2.7 1.4-.6.3-1.2.5-1.9.7-.7.2-1.4.4-2.2.6-.8.2-1.6.3-2.4.4-.8.1-1.7.1-2.6.1s-1.7-.1-2.6-.1c-.4 0-.8-.1-1.3-.2-.4-.1-.8-.2-1.2-.2-1.6-.3-3-.9-4.2-1.6-1.1-.7-1.9-1.5-2.3-2.2-.2-.3-.3-.6-.4-.9zm-69.7 25.2s2.4.6 6.6 1.7c2.1.6 4.6 1.3 7.5 2s6.2 1 9.9 1h5.8c2 0 4.1.1 6.2.2 4.3.2 8.7.6 13.3 1.2 9.2 1.1 18.9 2.6 28.7 3.1 4.9.3 9.8.2 14.6 0 4.8-.2 9.6-.7 14.2-1.2 9.2-1 17.8-1.9 25.1-2.7 7.4-.8 13.5-1.3 17.8-1.7s6.8-.6 6.8-.6-2.4.4-6.7 1c-4.3.6-10.4 1.5-17.7 2.5-3.7.5-7.6 1-11.8 1.6-4.2.6-8.6 1.2-13.2 1.7-9.2 1.1-19.1 2-29.1 1.5-9.9-.6-19.7-2.2-28.9-3.4-4.6-.6-9-1.1-13.2-1.5-2.1-.2-4.2-.3-6.1-.3-2-.1-3.9-.1-5.8-.2s-3.6-.2-5.3-.4c-1.7-.2-3.3-.6-4.7-1-2.9-.8-5.4-1.7-7.5-2.3-4.2-1.4-6.5-2.2-6.5-2.2zm72.1-147.3s.3 0 .8.1c.5 0 1.3.1 2.2.2.4 0 .9.1 1.4.1s1 0 1.6.1h3.4c1.2-.1 2.3-.1 3.4-.2.5-.1 1.1-.1 1.6-.2s1-.1 1.4-.2c.9-.1 1.6-.3 2.2-.3.5-.1.8-.1.8-.1s-.2.2-.7.5c-.2.2-.5.3-.8.5s-.7.4-1.1.6c-.8.4-1.9.7-3 1-.6.1-1.2.3-1.8.3-.6.1-1.2.1-1.9.2H228c-.6 0-1.2-.1-1.8-.2-1.1-.2-2.2-.5-3.1-.8-.4-.1-.8-.3-1.2-.5-.3-.1-.6-.3-.9-.4-.3-.6-.6-.7-.6-.7zm-3.9-15.1s.4-.1 1.1-.3 1.8-.5 3-.7c1.3-.2 2.7-.4 4.3-.5.8 0 1.6-.1 2.5-.1h2.5c.9 0 1.7.1 2.5.2s1.7.2 2.4.3c1.6.2 3 .6 4.3.9.6.2 1.2.3 1.7.5s.9.5 1.2.7c.6.5.7 1 .7 1l-.2-.2c-.1-.1-.4-.3-.7-.4-.3-.1-.7-.2-1.2-.3s-1.1-.1-1.7-.1c-1.2-.1-2.7-.2-4.3-.3-.8 0-1.6-.1-2.4-.1-.8-.1-1.6-.1-2.5-.1-1.7-.1-3.3-.1-4.9-.2-1.6 0-3-.1-4.3-.1s-2.3 0-3.1-.1c-.4-.1-.9-.1-.9-.1zm4.3-17.6h.8c.5 0 1.3 0 2.1.1.9.1 1.9.1 3 .2s2.2.2 3.4.3c1.1.1 2.3.2 3.4.4 1.1.1 2.1.3 2.9.4.9.1 1.6.2 2.1.3.5.1.8.2.8.2s-1.1.4-2.9.6c-.9.1-1.9.2-3 .2h-1.7c-.6 0-1.2-.1-1.8-.1-.6-.1-1.2-.1-1.8-.2-.6-.1-1.1-.2-1.7-.3-1.1-.2-2.1-.5-2.9-.8-1.7-.7-2.7-1.3-2.7-1.3zm-.4-13.1h1c.6 0 1.5.1 2.5.1.5 0 1.1 0 1.6.1.6 0 1.2 0 1.8.1h3.9c1.3 0 2.7-.1 3.9-.1.6 0 1.2-.1 1.8-.1.6 0 1.1-.1 1.6-.1 1-.1 1.9-.1 2.5-.2h1s-.3.2-.9.4c-.6.3-1.4.6-2.4.9s-2.2.6-3.5.8c-.6.1-1.3.2-2 .2-.7.1-1.4.1-2.1.1s-1.4 0-2.1-.1c-.7 0-1.4-.1-2-.2-1.3-.2-2.5-.4-3.5-.8-1-.3-1.8-.6-2.4-.9-.4 0-.7-.2-.7-.2zm1.1-13.7s.3 0 .8.1 1.3.1 2.2.3c.4 0 .9.1 1.4.2s1 .1 1.6.2c1.1.1 2.3.2 3.4.2 1.2 0 2.3.1 3.4.1h3c.9 0 1.7-.1 2.2-.1h.8s-.3.2-.8.4-1.2.5-2.1.8-1.9.5-3.1.7c-.6.1-1.2.2-1.8.2h-1.8c-.6 0-1.2-.1-1.8-.2l-1.8-.3c-1.1-.3-2.2-.6-3-.9-.9-.3-1.6-.7-2-1-.4-.5-.6-.7-.6-.7z"/></svg>