<?xml version="1.0" encoding="utf-8"?>
<!-- Generator: Adobe Illustrator 19.2.0, SVG Export Plug-In . SVG Version: 6.00 Build 0)  -->
<svg version="1.1" xmlns="http://www.w3.org/2000/svg" xmlns:xlink="http://www.w3.org/1999/xlink" x="0px" y="0px"
	 viewBox="0 0 400 600" style="enable-background:new 0 0 400 600;" xml:space="preserve">
<style type="text/css">
	.st0{display:none;}
	.st1{display:inline;}
	.st2{fill:none;}
	.st3{display:inline;opacity:0.76;fill:#F4AA16;}
	.st4{display:inline;fill:none;}
	.st5{display:inline;fill:#F5F5F5;}
	.st6{display:inline;fill:none;stroke:#000000;stroke-width:1.6691;stroke-miterlimit:10;}
	.st7{display:inline;fill:none;stroke:#000000;stroke-width:0.8346;stroke-miterlimit:10;}
	.st8{display:inline;opacity:0.58;}
	.st9{fill:#FCFCC0;}
	.st10{display:inline;fill:none;stroke:#000000;stroke-width:2;stroke-miterlimit:10;}
	.st11{display:inline;opacity:0.29;fill:none;stroke:#000000;stroke-width:0.8483;stroke-miterlimit:10;}
	.st12{display:inline;fill:none;stroke:#000000;stroke-miterlimit:10;}
	.st13{display:inline;fill:#770725;}
	.st14{display:inline;fill:none;stroke:#000000;stroke-width:1.5489;stroke-miterlimit:10;}
	.st15{display:inline;opacity:0.83;fill:#F7B30B;}
	.st16{display:inline;fill:none;stroke:#000000;stroke-width:1.6724;stroke-miterlimit:10;}
	.st17{display:inline;fill:none;stroke:#000000;stroke-width:0.8362;stroke-miterlimit:10;}
	.st18{opacity:0.74;fill:#FCE481;}
	.st19{fill:none;stroke:#000000;stroke-width:1.8403;stroke-miterlimit:10;}
	.st20{fill:none;stroke:#000000;stroke-width:0.8146;stroke-miterlimit:10;}
	.st21{fill:#FCEDC5;}
	.st22{fill:url(#SVGID_1_);}
	.st23{fill:none;stroke:#000000;stroke-width:1.8001;stroke-miterlimit:10;}
	.st24{fill:none;stroke:#000000;stroke-width:0.9001;stroke-miterlimit:10;}
	.st25{display:inline;opacity:0.8;fill:url(#SVGID_2_);}
	.st26{fill:url(#SVGID_3_);}
	.st27{fill:none;stroke:#000000;stroke-width:2.2142;stroke-miterlimit:10;}
	.st28{fill:none;stroke:#000000;stroke-width:1.1071;stroke-miterlimit:10;}
	.st29{fill:none;stroke:#000000;stroke-width:1.0004;stroke-miterlimit:10;}
	.st30{display:inline;fill:#842D06;}
	.st31{display:inline;fill:none;stroke:#000000;stroke-width:2.4805;stroke-miterlimit:10;}
	.st32{display:inline;fill:none;stroke:#000000;stroke-width:1.3458;stroke-miterlimit:10;}
	.st33{display:inline;opacity:0.82;fill:url(#SVGID_4_);}
	.st34{display:inline;fill:none;stroke:#000000;stroke-width:2.2213;stroke-miterlimit:10;}
	.st35{display:inline;fill:none;stroke:#000000;stroke-width:1.1107;stroke-miterlimit:10;}
	.st36{display:inline;opacity:0.77;fill:url(#SVGID_5_);}
	.st37{display:inline;fill:none;stroke:#000000;stroke-width:2.037;stroke-miterlimit:10;}
	.st38{display:inline;fill:none;stroke:#000000;stroke-width:0.8598;stroke-miterlimit:10;}
	.st39{display:inline;fill:none;stroke:#000000;stroke-width:0.5985;stroke-miterlimit:10;}
	.st40{opacity:0.86;fill:#700517;}
	.st41{fill:none;stroke:#000000;stroke-width:2.232;stroke-miterlimit:10;}
	.st42{fill:none;stroke:#000000;stroke-width:1.116;stroke-miterlimit:10;}
</style>
<g id="alaska.beer" class="st0">
	<g class="st1">
		<path class="st2" d="M114,100c14.5-0.6,28.7,3.6,43.2,5.2c11.7,1.3,23.5,0.8,35.2,0.2c32.9-1.6,98.6-6.8,98.6-6.5
			c-0.5,5.3,3-36.8,3.3-63.6c-1.6-12.6-14.9-24.8-27.3-28.4c-4.4-1.2-8.9-1.7-13.4-2.2c-30-3.2-60.2-5.5-90.3-3.2
			c-14.3,1.1-28.8,3.3-41.9,9.3c-4.8,2.2-9.4,4.9-12.5,9.1c-3.7,5.1-5.8,13.8-3.7,19.7c2.5,20.2,5.1,40.4,7.6,60.6L114,100z"/>
	</g>
	<path class="st3" d="M293,95.6c-32.8,2.9-65.7,5.1-98.6,6.8c-11.7,0.6-23.6,1.1-35.2-0.2c-14.4-1.6-28.7-5.8-43.2-5.2l-1.2,0.2
		c1.3,10.4,2.6,20.9,3.9,31.3c5,39.5,7.7,79.8,15,119c5.1,27.3,2.4,55.5,7.5,82.8c6.3,33.3,7.7,67.2,12.2,100.7
		c3.2,24.3,1,48.5,3.6,72.9c0.5,4.6,1.1,9.4,3.7,13.3c2.3,3.3,5.9,5.5,9.5,7.5c7.5,4.1,53.8,5.7,69.1,2.5c4.4-0.9,8.9-2.1,12.8-4.3
		c15.1-8.7,8.4-37.5,8.2-51.4c-0.4-23.5,0-47,1.6-70.5c2-30.1,8-58.2,9.5-88.4c1.7-33.4,6.4-66.4,10.1-99.7
		c3.2-28.5,3.8-55.6,7.7-84C290.7,117.9,292,106.8,293,95.6L293,95.6z"/>
	<path class="st4" d="M291,98.6c-32.8,2.9-65.7,5.1-98.6,6.8c-11.7,0.6-23.6,1.1-35.2-0.2c-14.4-1.6-28.7-5.8-43.2-5.2l-1.2,0.2
		c1.3,10.4,2.6,20.9,3.9,31.3c5,39.5,7.7,79.8,15,119c5.1,27.3,2.4,55.5,7.5,82.8c6.3,33.3,7.7,67.2,12.2,100.7
		c3.2,24.3,1,48.5,3.6,72.9c0.5,4.6,1.1,9.4,3.7,13.3c2.3,3.3,5.9,5.5,9.5,7.5c7.5,4.1,53.8,5.7,69.1,2.5c4.4-0.9,8.9-2.1,12.8-4.3
		c15.1-8.7,8.4-37.5,8.2-51.4c-0.4-23.5,0-47,1.6-70.5c2-30.1,8-58.2,9.5-88.4c1.7-33.4,6.4-66.4,10.1-99.7
		c3.2-28.5,3.8-55.6,7.7-84C288.7,120.9,290,109.8,291,98.6L291,98.6z"/>
	<path class="st5" d="M116,97c14.5-0.6,28.7,3.6,43.2,5.2c11.7,1.3,23.5,0.8,35.2,0.2c32.9-1.6,98.6-6.8,98.6-6.5
		c-0.5,5.3,3-36.8,3.3-63.6c-1.6-12.6-14.9-24.8-27.3-28.4c-4.4-1.2-8.9-1.7-13.4-2.2c-30-3.2-60.2-5.5-90.3-3.2
		c-14.3,1.1-28.8,3.3-41.9,9.3c-4.8,2.2-9.4,4.9-12.5,9.1c-3.7,5.1-5.8,13.8-3.7,19.7c2.5,20.2,5.1,40.4,7.6,60.6L116,97z"/>
	<path class="st6" d="M299.3,30.3c-6.5,140.3-29.1,287.7-35.6,428.1c-1.6,33.7-2.4,72.7,17,100.3c5.9,8.4,13.9,12,10.7,21.7
		c-3.1,9.3-14.4,12.4-24.1,13.7c-44.7,5.8-80.1,10.8-126.6-3.1c-11.1-3.3-13.3-7.1-15-9.6c-4-5.9,2.3-13.1,7.1-18.4
		c21.1-23.1,19-58.4,15.6-89.5C132.6,325.8,116.6,178,100.7,30.3C141.6,35.5,284.5,33.2,299.3,30.3z"/>
	<g class="st1">
		<path d="M105.2,39.6c0,0,2.1,16.7,5.8,45.8c1.8,14.6,4.1,32.3,6.7,52.6c2.5,20.3,4.6,43.3,7.6,68.4c1.5,12.5,3.3,25.5,5.7,38.9
			c0.6,3.3,1.2,6.7,1.8,10.1c0.2,1.7,0.5,3.4,0.7,5.2c0.2,1.7,0.4,3.5,0.6,5.2c0.7,7,1.1,14.1,1.4,21.3c0.7,14.4,1.1,29.3,3.7,44.2
			c1.3,7.5,2.6,15,3.7,22.7c1.1,7.7,2,15.4,2.8,23.3c1.7,15.7,3,31.6,4.9,47.7c0.5,4,1,8.1,1.5,12.1c0.3,2,0.4,4.1,0.6,6.1
			c0.1,2,0.3,4.1,0.4,6.1c0.5,8.2,0.6,16.4,0.7,24.7c0.1,8.3,0.3,16.6,0.8,24.9c0.1,2.1,0.3,4.1,0.5,6.2c0.2,2.1,0.4,4.1,0.7,6.2
			c0.3,2,0.8,4.1,1.6,5.9c0.8,1.9,1.9,3.6,3.4,5c1.5,1.4,3.2,2.6,4.9,3.7c0.9,0.5,1.8,1.1,2.7,1.5c0.5,0.2,0.9,0.4,1.4,0.6
			c0.5,0.2,1,0.3,1.5,0.4c4,1,8.2,1.4,12.4,1.9c8.3,0.8,16.7,1.1,25.1,1.2c4.2,0,8.4,0,12.6-0.2c4.2-0.2,8.4-0.4,12.5-1
			c2.1-0.3,4.1-0.7,6.1-1.2c2-0.5,4-1.1,6-1.8c1.9-0.8,3.8-1.7,5.4-2.9c1.6-1.2,3-2.8,4-4.6c2.1-3.5,3.1-7.7,3.6-11.8
			c0.5-4.1,0.5-8.3,0.3-12.4c-0.2-4.1-0.6-8.3-0.9-12.4c-0.2-2.1-0.4-4.1-0.5-6.2c-0.1-2.1-0.1-4.2-0.1-6.2c-0.2-16.5,0-33,0.7-49.2
			c0.4-8.1,0.8-16.2,1.5-24.1c0.7-8,1.6-15.9,2.6-23.7c2-15.6,4.3-31,5.6-46.1c0.7-7.5,1-15,1.5-22.4c0.5-7.4,1.1-14.7,1.8-21.9
			c2.8-28.8,6.7-55.8,9-80.9c1.1-12.5,1.9-24.6,2.9-36c0.9-11.5,2-22.3,3.3-32.5c2.8-20.3,4.5-38.1,5.6-52.7
			c1-14.7,1.5-26.2,1.7-34.1c0.1-3.9,0.1-7,0.2-9c0-2,0-3.1,0-3.1s0,1.1,0,3.1c0,2-0.1,5.1-0.2,9c-0.2,7.9-0.6,19.4-1.6,34.1
			c-1,14.7-2.6,32.5-5.4,52.8c-1.3,10.1-2.3,21-3.2,32.4c-0.9,11.4-1.7,23.5-2.8,36.1c-2.3,25.1-6.2,52.2-8.9,80.9
			c-0.7,7.2-1.3,14.5-1.8,21.9c-0.5,7.4-0.8,14.9-1.5,22.4c-1.3,15.1-3.5,30.5-5.5,46.1c-1,7.8-1.9,15.7-2.6,23.7
			c-0.7,8-1.1,16-1.5,24.1c-0.7,16.2-0.9,32.6-0.7,49.1c0,2.1,0,4.1,0.2,6.2c0.1,2.1,0.3,4.1,0.5,6.2c0.4,4.1,0.8,8.3,1,12.5
			c0.2,4.2,0.2,8.4-0.3,12.6c-0.5,4.2-1.5,8.4-3.6,12.1c-1.1,1.8-2.5,3.5-4.2,4.8c-1.7,1.3-3.6,2.3-5.6,3c-2,0.8-4,1.4-6.1,1.9
			c-2,0.5-4.1,1-6.2,1.2c-4.2,0.6-8.4,0.8-12.6,1c-4.2,0.2-8.4,0.2-12.6,0.2c-8.4-0.1-16.8-0.4-25.2-1.2c-4.2-0.4-8.4-0.9-12.5-1.9
			c-0.5-0.1-1-0.3-1.5-0.4c-0.5-0.2-1-0.4-1.5-0.6c-1-0.5-1.8-1-2.8-1.6c-1.8-1.1-3.6-2.3-5.1-3.8c-1.5-1.5-2.8-3.3-3.6-5.3
			c-0.8-2-1.3-4.1-1.6-6.1c-0.3-2.1-0.5-4.2-0.7-6.2c-0.2-2.1-0.4-4.2-0.5-6.2c-0.6-8.3-0.7-16.6-0.8-24.9
			c-0.1-8.3-0.2-16.5-0.7-24.7c-0.1-2-0.3-4.1-0.4-6.1c-0.2-2-0.3-4.1-0.6-6.1c-0.5-4-1-8.1-1.5-12.1c-1.9-16.1-3.3-32.1-4.9-47.7
			c-1.6-15.7-3.6-31-6.4-45.9c-2.6-15-3-29.9-3.6-44.3c-0.3-7.2-0.7-14.3-1.4-21.3c-0.2-1.7-0.4-3.5-0.6-5.2
			c-0.2-1.7-0.5-3.4-0.7-5.1c-0.6-3.4-1.1-6.8-1.8-10.1c-2.4-13.4-4.1-26.4-5.6-38.9c-3-25-5.1-48-7.5-68.4
			c-2.5-20.3-4.7-38-6.5-52.6C107.3,56.3,105.2,39.6,105.2,39.6z"/>
	</g>
	<path class="st7" d="M112.8,100.2c14.5-0.6,29.9,3.4,44.3,5c11.7,1.3,23.5,0.8,35.2,0.2c32.9-1.6,65.7-3.9,98.6-6.8"/>
	<g class="st1">
		<path d="M105.2,38.7c0,0-0.1-0.2-0.2-0.6c-0.1-0.4-0.3-1-0.4-1.8c-0.3-1.6-0.4-4.1,0.1-7.1c0.5-3,1.6-6.7,4.1-10.3
			c1.3-1.7,2.9-3.4,4.9-4.8c1.9-1.5,4.2-2.7,6.5-3.9c4.8-2.3,10.2-4.2,16-5.8c5.9-1.5,12.2-2.6,18.7-3.4c6.6-0.8,13.4-1.2,20.3-1.5
			c6.9-0.3,14-0.3,21-0.2c14.1,0.3,28.1,1.3,41.2,2.5c6.6,0.6,12.9,1.3,18.9,1.9c3,0.3,5.9,0.8,8.7,1.4c2.8,0.6,5.4,1.6,7.8,2.8
			c4.8,2.3,8.6,5.4,11.7,8.4c3.1,3,5.2,6.1,6.7,8.8c1.5,2.7,2.2,5.1,2.6,6.6c0.3,1.6,0.5,2.5,0.5,2.5s-0.2-0.9-0.5-2.5
			c-0.5-1.6-1.2-3.9-2.7-6.6c-1.5-2.7-3.7-5.7-6.8-8.7c-0.8-0.7-1.6-1.5-2.5-2.2c-0.4-0.4-0.9-0.7-1.3-1.1c-0.5-0.3-0.9-0.7-1.4-1
			c-0.9-0.7-2-1.3-3.1-2c-1.1-0.6-2.2-1.3-3.4-1.8c-1.2-0.6-2.4-1.1-3.7-1.6c-0.7-0.2-1.3-0.4-2-0.6c-0.7-0.2-1.3-0.4-2-0.5
			c-2.8-0.6-5.7-1-8.7-1.4c-6-0.6-12.3-1.3-18.9-1.8c-13.1-1.2-27.1-2.1-41.2-2.3c-7-0.2-14-0.1-20.9,0.1C168.3,0.6,161.5,1,155,1.7
			c-6.5,0.7-12.8,1.8-18.7,3.3c-5.8,1.5-11.2,3.4-16,5.6c-4.7,2.2-8.8,5-11.3,8.5c-2.5,3.4-3.6,7.1-4.2,10.1c-0.6,3-0.4,5.5-0.2,7.1
			c0.1,0.8,0.3,1.4,0.4,1.8C105.1,38.5,105.2,38.7,105.2,38.7z"/>
	</g>
</g>
<g id="Layer_4" class="st0">
	<g class="st8">
		<path class="st9" d="M300.4,209.4l-0.3-0.1l0.2,0.8C300.4,209.9,300.4,209.6,300.4,209.4z"/>
		<path class="st9" d="M210.6,208.8c-38.2-2.9-114.4,0.9-114.9,0.9c0.2,0,0.8,33.5,36.8,68.7c13.8,13.4,37.5,33.9,64.6,33.8
			c16.9-0.1,32.8-6.7,47.3-15.2c19.2-11.2,44.8-37.7,52.2-64.4c1.7-6,3.9-21.4,3.5-23.3c-9.4,0.4-20.4,0.5-29.8,0.9
			C250.2,211.1,230.6,210.4,210.6,208.8z"/>
	</g>
	<path class="st10" d="M271.6,566.7c5.9,0.4,13.8,2.9,16.3,8.2c1.8,3.8,0.8,8.4-2.3,11.2c-3.2,2.8-8.9,4.1-13,5.2
		c-38.5,10.3-131.2,10.8-158.4-4.3c-1.6-0.9-3.3-1.7-4.5-3.2c-3.2-3.9-1.3-10.1,2.7-13.2c4-3.1,9.2-3.9,14.1-4.7
		c15.1-2.4,29.4-1.8,40.3-12.4c26.1-25.3,21.7-72.1,22.1-110.4c0.2-20.5-0.8-40.3-0.6-60.8c0.2-18.6-0.1-38.7-11.1-53.6
		c-4.2-5.7-9.8-10.3-15.3-14.9c-24.4-20.1-45.7-38.6-61.4-66.6c-8-14.4-11.4-30.7-10-50.7c0.4-5.4,19.8-130.4,36.8-172.8
		c3.8-2.4,126.9-1.7,143.7,1.6c6.1,19.1,26.9,111.5,29,135.5c1.2,13.6,2.5,21.5,3.8,35.1c1.2,12.9-0.8,29.3-4,41.9
		c-3.7,14.3-13,26.5-22.9,37.4c-13.6,14.9-28.9,28.3-45.6,39.6c-4.8,3.2-9.7,6.4-13.3,10.9c-15.8,20-13.6,50.2-13.9,74.4
		c-0.2,22,0.9,43.2,1.2,66.8c0.2,20.3,0.6,46.2,8.2,65C223.5,556.5,247,564.9,271.6,566.7z"/>
	<g class="st1">
		<path d="M159.6,569.1c0,0,0.2,0.2,0.6,0.7c0.4,0.4,0.9,1,1.8,1.7c0.8,0.7,1.9,1.4,3.2,2c1.3,0.6,2.9,1.1,4.7,1.5
			c1.8,0.4,3.7,0.7,5.8,1.1c1,0.1,2.1,0.3,3.2,0.4c1.1,0.1,2.2,0.2,3.3,0.4c1.1,0.1,2.3,0.2,3.4,0.3c1.2,0.1,2.3,0.1,3.5,0.2
			c1.2,0,2.4,0.1,3.6,0c1.2,0,2.4,0,3.6-0.1c2.4-0.1,4.8-0.2,7.2-0.5c1.2-0.1,2.4-0.3,3.5-0.4c1.2-0.2,2.3-0.4,3.4-0.5
			c2.2-0.4,4.4-0.8,6.4-1.3c2-0.4,3.9-1,5.7-1.4c1.7-0.5,3.3-1,4.7-1.5c1.4-0.5,2.6-0.9,3.6-1.3c2-0.8,3.1-1.2,3.1-1.2
			s-1.1,0.5-3.1,1.4c-1,0.4-2.2,0.9-3.6,1.4c-1.4,0.6-3,1.1-4.7,1.7c-1.8,0.5-3.6,1.1-5.7,1.6c-2,0.5-4.2,1-6.4,1.4
			c-1.1,0.2-2.3,0.4-3.4,0.6c-1.2,0.1-2.4,0.3-3.5,0.4c-2.4,0.2-4.8,0.5-7.3,0.5c-1.2,0.1-2.4,0-3.7,0c-1.2,0-2.4,0-3.6-0.1
			c-1.2,0-2.4-0.1-3.6-0.2c-1.2-0.1-2.3-0.2-3.5-0.3c-1.1-0.1-2.3-0.2-3.3-0.4c-1.1-0.2-2.2-0.4-3.2-0.5c-2-0.4-4-0.8-5.8-1.2
			c-1.8-0.4-3.4-1-4.7-1.7c-1.3-0.7-2.4-1.5-3.2-2.2c-0.8-0.7-1.3-1.4-1.7-1.8C159.7,569.4,159.6,569.1,159.6,569.1z"/>
	</g>
	<g class="st1">
		<path d="M267.5,28.5c1.6,3.6,2.6,7.4,3.7,11.2c1.1,3.8,2.1,7.6,3.1,11.4l5.8,22.9c0.9,3.8,1.7,7.7,2.5,11.5l2.3,11.6
			c1.5,7.7,3,15.5,4.4,23.2c2.8,15.5,5.3,31,7.4,46.7c0.5,3.9,1,7.8,1.5,11.7c0.5,3.9,0.8,7.8,1.2,11.8c0.3,3.9,0.6,7.9,0.7,11.8
			c0.1,3.9,0.2,7.9-0.2,11.8l-0.2,1.9l-0.5-1.8l-0.2-0.8l0.7-0.1c0.1,0.9,0,1.7-0.1,2.5c-0.1,0.8-0.2,1.6-0.2,2.4
			c-0.2,1.6-0.4,3.2-0.6,4.9c-0.5,3.2-1,6.5-1.6,9.7c-0.3,1.6-0.7,3.2-1.2,4.8c-0.5,1.5-1,3.1-1.5,4.6l-1.8,4.6l-2.1,4.4
			c-3,5.8-6.5,11.4-10.4,16.6c-3.9,5.2-8.2,10.2-12.8,14.8c-4.6,4.6-9.5,9-14.7,12.9c-2.6,2-5.3,3.8-8.1,5.5
			c-2.8,1.7-5.7,3.3-8.6,4.8c-2.9,1.5-5.9,2.9-8.9,4.2c-3,1.3-6.1,2.4-9.2,3.4c-6.3,1.9-12.8,3.2-19.3,3.4c-0.8,0-1.6,0.1-2.5,0
			l-2.4-0.1c-0.8,0-1.6-0.1-2.4-0.1l-2.5-0.3l-2.5-0.3l-2.4-0.5l-2.4-0.5l-2.4-0.7c-6.3-1.9-12.3-4.6-17.9-7.9
			c-5.7-3.3-11-7.1-16.1-11.2c-5.1-4.1-9.9-8.5-14.5-13.1c-9.3-9.2-17.4-19.6-23.8-31c-3.2-5.7-5.9-11.7-8-17.9
			c-1.1-3.1-2-6.2-2.7-9.4c-0.4-1.6-0.7-3.2-0.9-4.8c-0.1-0.8-0.2-1.6-0.3-2.4l-0.1-1.2l-0.1-0.6l0-0.3l0-0.1l0-0.1
			c0.1,0-0.3-0.1,0.3,0.2l-0.4-0.3c-0.4-2-0.4-4-0.4-6c0-2,0.1-4,0.2-6c0.2-4,0.6-8,1-11.9c0.4-4,1.1-7.9,1.8-11.8l2.2-11.7
			c3-15.7,6.1-31.3,9.3-46.9c1.6-7.8,3.2-15.6,4.9-23.4c1.7-7.8,3.3-15.6,5.1-23.4c1.7-7.8,3.5-15.6,5.3-23.3l1.4-5.8l1.5-5.8
			c0.9-3.9,2-7.7,3.1-11.5c-1,3.9-2.1,7.7-3,11.6l-1.4,5.8l-1.4,5.8c-1.8,7.8-3.5,15.5-5.2,23.3c-1.7,7.8-3.3,15.6-4.9,23.4
			l-4.8,23.4c-3.2,15.6-6.3,31.3-9.2,46.9l-2.2,11.7c-0.7,3.9-1.5,7.8-1.8,11.8c-0.4,4-0.8,7.9-1,11.9c-0.1,2-0.2,4-0.2,6
			c0,2,0.1,4,0.4,5.9l-0.4-0.3c0.6,0.4,0.3,0.4,0.4,0.4l0,0.1l0,0.2l0,0.3l0.1,0.6l0.1,1.2c0.1,0.8,0.2,1.6,0.3,2.4
			c0.3,1.6,0.6,3.2,0.9,4.8c0.7,3.2,1.6,6.3,2.7,9.4c2.1,6.1,4.8,12.1,7.9,17.8c6.3,11.4,14.4,21.7,23.7,30.8c4.6,4.6,9.4,9,14.5,13
			c5.1,4.1,10.4,7.9,16,11.1c5.6,3.2,11.5,6,17.7,7.8l2.3,0.7l2.4,0.5l2.4,0.5l2.4,0.3l2.4,0.3c0.8,0.1,1.6,0.1,2.4,0.1l2.4,0.1
			c0.8,0,1.6,0,2.4,0c6.5-0.2,12.9-1.4,19.1-3.3c3.1-1,6.1-2.1,9.1-3.3c3-1.3,5.9-2.6,8.8-4.1c2.9-1.5,5.7-3.1,8.5-4.7
			c2.8-1.7,5.5-3.5,8.1-5.4c5.2-3.9,10.1-8.2,14.7-12.8c4.6-4.6,8.8-9.5,12.7-14.7c3.9-5.2,7.4-10.7,10.4-16.5l2.1-4.4l1.8-4.5
			c0.6-1.5,1-3.1,1.5-4.6c0.5-1.5,0.8-3.1,1.2-4.7c0.6-3.2,1.2-6.4,1.7-9.6c0.2-1.6,0.4-3.2,0.6-4.8c0.1-0.8,0.2-1.6,0.2-2.4
			c0.1-0.8,0.1-1.6,0.1-2.4l0.7-0.1l0.2,0.8l-0.7,0.1c0.4-3.9,0.4-7.8,0.3-11.7c-0.1-3.9-0.4-7.8-0.7-11.8
			c-0.3-3.9-0.7-7.8-1.2-11.7c-0.4-3.9-0.9-7.8-1.4-11.7c-2.1-15.6-4.6-31.1-7.3-46.6c-1.4-7.8-2.8-15.5-4.3-23.2l-2.3-11.6
			c-0.8-3.9-1.6-7.7-2.5-11.5l-5.7-22.9c-1-3.8-1.9-7.6-3-11.4C270,36,269,32.2,267.5,28.5z"/>
	</g>
	<g class="st1">
		<path d="M181.9,538.4c0,0,0.5,0.2,1.3,0.5c0.8,0.3,2,0.7,3.4,1.2c1.4,0.5,3.1,0.9,4.9,1.2c1.8,0.4,3.7,0.6,5.7,0.7
			c1,0.1,2,0.1,2.9,0.1c1,0,1.9-0.1,2.8-0.2c1.8-0.2,3.5-0.5,4.9-1c1.4-0.4,2.5-0.9,3.3-1.4c0.8-0.4,1.2-0.7,1.2-0.7
			s-0.1,0.1-0.3,0.2c-0.2,0.1-0.4,0.4-0.8,0.6c-0.7,0.5-1.8,1.2-3.2,1.7c-1.4,0.6-3.1,1.1-5,1.3c-0.9,0.1-1.9,0.2-2.9,0.2
			c-1,0-2,0-3,0c-2-0.1-4-0.4-5.8-0.9c-1.8-0.4-3.5-1-4.9-1.6c-1.4-0.6-2.5-1.1-3.3-1.5c-0.4-0.2-0.7-0.4-0.9-0.5
			C182,538.5,181.9,538.4,181.9,538.4z"/>
	</g>
	<g class="st1">
		<path d="M110.6,575.4c0,0,0,0.2,0,0.5c0,0.3,0.1,0.9,0.4,1.5c0.3,0.6,0.8,1.3,1.5,2c0.7,0.7,1.7,1.3,2.8,1.8
			c1.1,0.5,2.5,0.9,3.9,1.4c1.4,0.5,3,1,4.6,1.6c3.3,1.1,7,2.3,11.2,3.4c4.1,1.1,8.7,2.1,13.5,2.6c4.9,0.4,10.1,0.7,15.4,1.1
			c5.3,0.3,10.9,0.6,16.5,0.9c2.8,0.1,5.6,0.2,8.5,0.3c2.8,0.1,5.7-0.1,8.5-0.2c11.4-0.5,22.8-1.2,33.5-2c5.3-0.4,10.5-0.9,15.4-1.3
			c4.9-0.5,9.5-1,13.7-1.7c4.2-0.6,8.1-1.3,11.5-2.2c3.4-0.9,6.2-1.8,8.6-2.7c2.3-0.8,4.2-1.5,5.3-2.3c0.6-0.4,0.9-0.7,1.1-1
			c0.2-0.3,0.3-0.4,0.3-0.4s-0.1,0.2-0.3,0.4c-0.2,0.3-0.6,0.6-1.1,1c-1.1,0.8-2.9,1.5-5.3,2.4c-2.3,0.9-5.2,1.9-8.6,2.9
			c-3.4,0.9-7.2,1.8-11.5,2.4c-4.2,0.7-8.9,1.3-13.7,1.8c-4.9,0.5-10,1.1-15.4,1.5c-10.7,0.9-22.1,1.6-33.5,2.2
			c-2.9,0.1-5.7,0.2-8.6,0.2c-2.9,0-5.7-0.2-8.5-0.3c-5.6-0.3-11.2-0.6-16.5-0.9c-5.4-0.4-10.5-0.7-15.4-1.2
			c-4.9-0.6-9.5-1.6-13.6-2.8c-4.1-1.2-7.9-2.5-11.1-3.6c-1.6-0.6-3.2-1.2-4.6-1.7c-1.4-0.5-2.7-1-3.9-1.5c-1.1-0.5-2.1-1.2-2.8-1.8
			c-0.7-0.7-1.2-1.4-1.4-2c-0.3-0.6-0.4-1.1-0.4-1.5C110.6,575.6,110.6,575.4,110.6,575.4z"/>
	</g>
	<path class="st12" d="M94.7,213.7c0.5,0,76.7-3.8,114.9-0.9c20,1.5,39.7,2.3,59.8,1.4c9.4-0.4,20.4-0.5,29.8-0.9
		c0.3,1.9-1.9,17.3-3.5,23.3"/>
</g>
<g id="Layer_2" class="st0">
	<path class="st13" d="M308.2,258.2c8-12.3,12.7-26.3,13.8-40.8c0.7-8.2,0.8-15.3-0.4-22.7c-21.3,4.5-43.3,4.5-65.2,4.4
		c-44-0.2-88-0.3-131.9-0.5c-7.6,0-15.2-0.1-22.8-0.7c-8-0.7-16-2.1-23.8-4.2c-0.4,12.8-1.4,25.7,1.6,38.1
		c4.2,17.5,14.5,33,27.2,45.8c2.8,2.8,6.2,5.3,9.1,8c17.7,16.7,35.3,33.4,53,50c4.8,4.5,9.3,9.3,14.9,12.7
		c5.4,3.3,15.8,2.7,15.8,2.7c7.4-0.9,15.2-1.9,21.4-6.1c4.4-3,7.7-7.3,11.3-11.2c14.7-16,32.6-28.2,48.8-42.7
		C291.8,281.1,300.2,270.4,308.2,258.2z"/>
	<path class="st14" d="M115.4,42.2c-12.2,31.8-24,69-32.1,102.1c-7.6,30.9-15.9,65.5-5,95.4c18.5,50.7,81.2,71.8,101.5,121.8
		c6.5,16,8.1,36.6,9.2,54.1c1.7,28.1,2.1,56.2,0.6,84.3c-0.6,10.9-0.5,21.7-1.5,32.5c-0.9,10.1-0.2,19.6-6.1,28.6
		c-0.1,0.1-19.4,1.8-23.3,2.5c-8.5,1.4-43,5.9-51.1,10.2c-1.2,0.6-2.4,1.3-3.1,2.4c-1.1,1.5-1,3.5-0.9,5.4c0.1,2.2,0.3,4.6,1.8,6.3
		c1,1.1,2.4,1.7,3.7,2.2c9.3,3.8,29.5,8.1,47.1,9c9.6,0.5,41.7,0.7,63.5,1.1c21.3,0.4,61.8-2.6,75.3-12c2.2-5.2,0.4-9,0-10.5
		c-1.7-1.5-12-10.6-48.3-15c-5.1-0.6-10.2-0.9-15.3-1c-4.9-0.1-15.2,0.2-15.4,0.1c-0.2-0.1-5.7-8.2-7.7-22.2
		c-3-21-2.1-42.7-2.3-63.8c-0.7-62.9,3.5-123.6,48.3-158.8c23.6-18.6,51-43.3,65.3-72.3c13.3-26.9,5.7-56.3-0.9-85
		c-9.2-39.8-24.3-78.6-32.1-118.1c-0.1-0.3-0.3-0.4-0.6-0.4C200.7,44.5,114,41.7,115.4,42.2z"/>
	<g class="st1">
		<path d="M283.4,48.9c0,0,0.1,0.7,0.3,2c0.3,1.3,0.7,3.3,1.4,5.9c1.4,5.1,3.6,12.5,6.5,22c2.9,9.4,6.5,20.9,10.5,34
			c1,3.3,2,6.7,3,10.2c0.5,1.8,0.9,3.6,1.3,5.4c0.4,1.8,0.9,3.7,1.3,5.6c1.8,7.5,3.7,15.4,5.6,23.6c2,8.2,4.1,16.8,6.4,25.6
			c1.3,4.4,2.2,9,2.6,13.7c0.4,4.7,0.4,9.5,0.1,14.4c-0.3,4.9-0.8,9.8-1.8,14.7c-1,4.9-2.4,9.8-4.3,14.5c-1.9,4.8-4.2,9.4-6.9,13.9
			c-2.8,4.4-5.7,8.8-8.9,13c-6.3,8.5-13.6,16.6-21.9,23.7c-8.2,7.2-16.9,14-25.4,21.1c-8.5,7.1-16.8,14.6-24.1,23.1
			c-1.9,2.1-3.8,4.2-6,6.1c-1.1,0.9-2.3,1.8-3.5,2.5c-1.3,0.8-2.6,1.3-3.9,1.9c-2.7,1.1-5.5,1.7-8.3,2.3c-1.4,0.3-2.8,0.5-4.2,0.7
			l-2.1,0.3l-1.1,0.1l-0.5,0.1c-0.3,0-0.4,0-0.6,0c-2.9,0.1-5.7-0.1-8.6-0.5c-1.4-0.2-2.8-0.5-4.2-1c-0.7-0.2-1.4-0.5-2.1-0.8
			c-0.3-0.2-0.7-0.3-1-0.5l-0.9-0.6c-4.8-3.2-8.8-7.2-12.9-11.1c-8.2-7.7-16.3-15.4-24.3-23.1c-8.1-7.6-16.1-15.2-24-22.7
			c-2-1.9-3.9-3.7-5.9-5.6c-1.9-1.8-4.1-3.5-6.1-5.3c-1-0.9-2-1.8-3-2.8c-0.9-1-1.9-1.9-2.8-2.9c-1.8-2-3.6-4-5.2-6
			c-6.7-8.2-12.2-17.3-15.9-26.8c-1.9-4.8-3.3-9.7-4.1-14.6c-0.8-4.9-1.1-9.9-1.2-14.8c0-4.9,0.2-9.6,0.3-14.4
			c0-1.2,0.1-2.3,0.1-3.5c0.1-1.2,0-2.3,0.2-3.5c0.3-2.4,0.8-4.6,1.3-6.8c2-8.9,4.2-17.5,6.3-25.6c4.2-16.4,8.4-31.3,12.2-44.5
			c3.8-13.2,7.3-24.7,10.3-34.1c3-9.4,5.5-16.8,7.2-21.7c0.9-2.5,1.6-4.4,2.1-5.7c0.5-1.3,0.7-1.9,0.7-1.9s-0.2,0.7-0.7,1.9
			c-0.5,1.3-1.1,3.2-2,5.7c-1.7,5-4.1,12.4-7,21.8c-5.8,18.9-13.5,46-22,78.8c-2.1,8.2-4.2,16.7-6.2,25.6c-0.5,2.2-1,4.5-1.3,6.7
			c-0.1,1.1-0.1,2.3-0.1,3.5c0,1.2-0.1,2.3-0.1,3.5c-0.2,4.7-0.3,9.5-0.3,14.3c0.1,4.8,0.4,9.7,1.2,14.6c0.8,4.9,2.2,9.7,4.1,14.4
			c3.7,9.4,9.2,18.3,15.8,26.5c1.6,2,3.4,4,5.2,6c0.9,1,1.8,1.9,2.8,2.9c0.9,0.9,1.9,1.8,2.9,2.7c2,1.7,4.2,3.4,6.2,5.3
			c2,1.9,3.9,3.7,5.9,5.6c7.9,7.5,15.9,15,24,22.6c8.1,7.6,16.2,15.3,24.4,23c4.1,3.9,8,7.9,12.7,10.9c2.2,1.6,4.9,2.3,7.6,2.7
			c2.7,0.4,5.5,0.5,8.3,0.5c5.5-0.6,11.2-1.3,16.3-3.3c1.3-0.5,2.5-1.1,3.7-1.8c1.2-0.7,2.3-1.5,3.4-2.3c2.1-1.7,4-3.8,5.9-5.9
			c7.3-8.6,15.7-16.1,24.3-23.2c8.6-7.1,17.3-13.8,25.5-21c8.2-7.1,15.5-15,21.8-23.4c3.1-4.2,6.1-8.5,8.9-12.9
			c2.7-4.4,5-9,6.9-13.7c1.9-4.7,3.3-9.5,4.3-14.3c1-4.8,1.6-9.7,1.8-14.5c0.3-4.8,0.4-9.6,0-14.2c-0.4-4.7-1.3-9.2-2.6-13.6
			c-2.3-8.8-4.4-17.4-6.3-25.6c-2-8.2-3.8-16.1-5.5-23.6c-0.4-1.9-0.8-3.7-1.3-5.6c-0.4-1.8-0.8-3.6-1.3-5.4
			c-0.9-3.5-1.9-6.9-2.9-10.2c-3.9-13.2-7.4-24.6-10.2-34.1c-2.8-9.5-5-16.9-6.3-22c-0.7-2.6-1.1-4.5-1.4-5.9
			C283.5,49.6,283.4,48.9,283.4,48.9z"/>
	</g>
	<path class="st14" d="M77.1,190.9c8,2.2,16.1,3.7,24.3,4.4c7.6,0.7,15.2,0.7,22.8,0.7c44,0.2,88,0.3,131.9,0.5
		c21.9,0.1,44,0.1,65.4-4.4"/>
	<g class="st1">
		<path d="M184.7,562.4l0-0.3l0.1,0c-0.2,0.6,0.3,1.2,0.8,1.4c0.5,0.3,1.1,0.5,1.7,0.6c1.3,0.2,2.5,0.3,3.8,0.4
			c2.5,0.2,5.1,0.3,7.6,0.3l7.7,0.1c1.3,0,2.5,0,3.7-0.3c1.2-0.3,2.4-0.9,3.4-1.6c-0.8,1-1.9,1.8-3.2,2.3c-1.3,0.5-2.6,0.7-3.9,0.8
			c-1.3,0.1-2.6,0.1-3.9,0.2c-1.3,0-2.6,0-3.9,0c-2.6,0-5.2-0.2-7.8-0.7c-1.3-0.2-2.6-0.5-3.8-0.9c-0.7-0.2-1.3-0.5-1.8-0.9
			c-0.3-0.2-0.5-0.5-0.6-0.8c-0.1-0.3-0.1-0.7,0.1-1l0.1-0.2l-0.1,0.2L184.7,562.4z"/>
	</g>
	<g class="st1">
		<path d="M106.2,579.2c0,0,0.1,0.1,0.3,0.4c0.2,0.3,0.6,0.7,1.1,1.2c1,1,2.7,2.2,5.2,3c2.4,1,5.6,1.2,9.2,1.6
			c3.6,0.4,7.7,0.8,12.2,1.3c4.5,0.5,9.3,1,14.4,1.4c2.6,0.2,5.2,0.5,7.9,0.6c2.7,0.1,5.5,0.3,8.3,0.4c11.2,0.6,23.2,1.2,35.1,1.9
			c3,0.1,6,0.4,8.9,0.4c3,0,5.9,0,8.9-0.1c2.9-0.1,5.9-0.1,8.7-0.2c1.4-0.1,2.9-0.1,4.3-0.2c1.4-0.1,2.8-0.3,4.2-0.4
			c11.2-1.2,21.6-2.1,30.6-3c4.5-0.4,8.6-0.9,12.1-1.6c3.6-0.7,6.6-1.6,9-2.6c2.4-1,4.2-2,5.4-2.8c1.2-0.8,1.8-1.3,1.8-1.3
			s-0.6,0.5-1.7,1.3c-1.1,0.8-2.9,1.9-5.3,3c-2.4,1.1-5.4,2.1-9,2.9c-3.6,0.8-7.7,1.4-12.1,1.9c-8.9,1-19.3,2.3-30.5,3.5
			c-1.4,0.1-2.8,0.3-4.2,0.4c-1.4,0.1-2.9,0.2-4.3,0.2c-2.9,0.1-5.8,0.2-8.8,0.3c-3,0.1-5.9,0.1-8.9,0.1c-3,0-6-0.3-9-0.4
			c-12-0.7-23.9-1.4-35.1-2.1c-2.8-0.2-5.6-0.3-8.3-0.5c-2.7-0.2-5.3-0.5-7.9-0.8c-5.1-0.6-10-1.1-14.4-1.7
			c-4.5-0.5-8.5-1.1-12.2-1.6c-3.6-0.5-6.8-0.9-9.3-1.9c-2.5-1-4.1-2.3-5.1-3.3c-0.5-0.5-0.8-0.9-1-1.2
			C106.3,579.3,106.2,579.2,106.2,579.2z"/>
	</g>
</g>
<g id="ice_wine" class="st0">
	<path class="st15" d="M251.8,343.4c10.8-12.6,10.6-38.1,5.9-53.1c-0.5-1.7-1.1-3.5-1.6-5.2c-35.5,2-71.1-3-106.5-0.8l-0.3,0
		c-4.9,21.5-6.1,44.4,9.2,62.2c1.8,2.1,3.8,4.1,6.3,5.2c2.6,1.2,14.6,7.2,36.1,7.7c4.6,0.1,19.4,0.4,23.9-0.2
		C235.3,358,244.8,351.5,251.8,343.4z"/>
	<path class="st16" d="M158,174.1c6.1,19.3,4.9,40.3,0.3,61c-4.1,18.8-9.2,35.1-13.7,53.9c-2.3,9.3-3.4,19.8-1.9,29.3
		c2.7,16.4,7.2,32,19.2,43.3c5.2,4.9,11.3,8.2,16.9,11.8c5.8,3.8,10.5,8.2,12.9,15c1.4,4,3.3,11.1,3.1,15.3
		c-0.3,6.2-1.3,101.5-2.3,123.4c-0.7,15.5-7.4,30.7-15.8,43.8c-4,6.3-11.1,7.1-18.2,9.4c-9.1,2.9-29.3,7.6-30,8.1
		c-1.3,1.2-0.9,3.5,0.5,4.7s3.2,1.5,5,1.8c27,4.1,54.1,6,81.4,4.9c16-0.6,32.4-0.1,48.3-2.3c2.2-0.3,4.5-0.7,6.2-2
		c1.8-1.3,2.8-4,1.6-5.8c-5.9-1.3-33.6-9-39.4-12.1c-8.9-4.8-12.2-12.5-16.2-21.8c-4-9.3-6.1-19.5-6.9-29.6
		c-0.6-7.8-0.5-110.2,0-118.6c0.4-6.1,1.4-12.3,3.4-18.1c2-5.8,5.9-11.2,11.4-13.8c13.4-6.1,25.1-18.7,32.4-31.2
		c3.7-6.4,6.3-16.8,6.8-24.1c1.2-19.3-3.3-35.1-7.6-53.9c-2.6-11.4-7.6-24.4-8.5-36.1c-1.4-19.8-3.6-38.6,4.2-56.8
		C215.7,175.1,157.2,174,158,174.1z"/>
	<g class="st1">
		<path d="M161.4,177.4c0,0,0.1,0.4,0.3,1.2c0.1,0.4,0.3,0.9,0.4,1.5c0.1,0.3,0.2,0.6,0.3,1c0.1,0.3,0.2,0.7,0.3,1.1
			c0.8,3.1,1.6,7.8,1.9,13.9c0.3,6,0,13.4-0.9,21.8c-0.5,4.2-1.1,8.6-1.7,13.3c-0.7,4.7-1.2,9.6-2.5,14.7c-1.2,5-3,10.2-4.6,15.5
			c-1.7,5.3-3.2,10.9-4.7,16.6c-1.4,5.7-2.7,11.7-3.5,17.9c-0.8,6.2-1.1,12.5-0.5,18.9c0.6,6.4,2.2,12.9,5.1,18.8
			c1.4,3,3.2,5.8,5.2,8.5c2.1,2.6,4.3,5.3,7.2,6.9c6,3,12.6,5,19.3,6.3c3.4,0.6,6.8,1.1,10.2,1.4c3.4,0.3,6.9,0.4,10.3,0.4
			c3.4,0.1,6.9,0.1,10.3,0.1c3.4,0,6.9,0,10.3-0.3c3.4-0.4,6.7-1.3,9.8-2.7c3.1-1.4,6-3.1,8.7-5.1c2.7-2,5.2-4.3,7.4-6.8l0.8-0.9
			c0.3-0.3,0.5-0.7,0.8-1c0.5-0.7,1-1.3,1.5-2l1.3-2.1c0.4-0.7,0.7-1.5,1.1-2.2l0.5-1.1l0.4-1.2c0.3-0.8,0.6-1.5,0.8-2.3
			c0.4-1.6,0.9-3.1,1.2-4.8c0.7-3.2,1.1-6.4,1.3-9.6c0.4-6.4,0.1-12.8-1-18.9c-0.2-1.5-0.6-3-0.9-4.5c-0.4-1.5-0.8-2.9-1.3-4.4
			c-0.9-2.9-1.7-5.8-2.5-8.7c-3.2-11.4-5.6-22.4-7.4-32.6c-1.8-10.2-2.9-19.6-3.6-28c-0.7-8.4-1.3-15.7-0.8-21.8
			c0.5-6,1.6-10.7,2.5-13.8c0.5-1.6,0.9-2.7,1.1-3.5c0.3-0.8,0.4-1.2,0.4-1.2s-0.1,0.4-0.4,1.2c-0.3,0.8-0.7,2-1.1,3.5
			c-0.9,3.1-2,7.7-2.4,13.8c-0.5,6,0.2,13.4,0.9,21.7c0.8,8.4,2,17.8,3.7,28c1.8,10.2,4.2,21.1,7.4,32.5c0.8,2.8,1.7,5.7,2.6,8.6
			c0.5,1.4,0.9,2.9,1.3,4.4c0.3,1.5,0.7,3,1,4.6c1.1,6.2,1.4,12.6,1.1,19.1c-0.2,3.2-0.6,6.5-1.3,9.7c-0.3,1.6-0.8,3.2-1.2,4.8
			c-0.2,0.8-0.6,1.6-0.8,2.4l-0.4,1.2l-0.5,1.1c-0.4,0.8-0.7,1.5-1.1,2.3l-1.3,2.2c-0.4,0.7-1,1.4-1.5,2c-0.3,0.3-0.5,0.7-0.8,1
			l-0.8,1c-2.3,2.5-4.8,4.8-7.5,6.9c-2.7,2.1-5.7,3.8-8.9,5.2c-3.2,1.4-6.6,2.3-10,2.8c-3.5,0.3-6.9,0.3-10.4,0.3
			c-3.5,0-6.9,0-10.4-0.1c-3.4-0.1-6.9-0.2-10.4-0.5c-3.4-0.3-6.9-0.8-10.3-1.4c-6.8-1.3-13.4-3.3-19.5-6.4
			c-3.1-1.7-5.3-4.5-7.4-7.1c-2.1-2.7-3.8-5.6-5.3-8.6c-2.9-6-4.5-12.6-5.1-19c-0.6-6.5-0.3-12.9,0.5-19.1
			c0.8-6.2,2.1-12.2,3.5-17.9c1.5-5.8,3.1-11.3,4.7-16.6c1.7-5.3,3.4-10.4,4.7-15.4c1.3-5,1.8-9.9,2.5-14.6
			c0.7-4.7,1.3-9.1,1.8-13.3c1-8.3,1.3-15.7,1.1-21.7c-0.3-6-1-10.7-1.8-13.9c-0.1-0.4-0.2-0.8-0.2-1.1c-0.1-0.3-0.2-0.7-0.3-1
			c-0.2-0.6-0.3-1.1-0.4-1.5C161.5,177.8,161.4,177.4,161.4,177.4z"/>
	</g>
	<path class="st17" d="M149.2,282.1c35.7-2.2,71.5,2.8,107.2,0.7"/>
	<g class="st1">
		<path d="M178.1,573c0,0,0.1,0.1,0.4,0.3c0.3,0.2,0.7,0.5,1.3,0.8c0.6,0.3,1.3,0.5,2.2,0.8c0.9,0.2,1.8,0.4,2.9,0.6
			c2.2,0.4,4.7,0.7,7.4,1c2.7,0.3,5.6,0.5,8.6,0.5c2.9,0.1,5.8,0.1,8.6-0.1c2.7-0.2,5.3-0.3,7.5-0.6c2.2-0.3,3.9-0.9,5-1.5
			c0.6-0.3,1-0.6,1.2-0.8c0.3-0.2,0.4-0.3,0.4-0.3s-0.1,0.1-0.4,0.4c-0.3,0.2-0.6,0.6-1.2,0.9c-1.1,0.7-2.8,1.4-5,1.8
			c-1.1,0.2-2.3,0.4-3.5,0.5c-1.3,0.2-2.6,0.3-4,0.4c-2.8,0.2-5.7,0.3-8.6,0.2c-2.9-0.1-5.9-0.3-8.6-0.7c-1.4-0.2-2.7-0.4-3.9-0.6
			c-1.2-0.2-2.4-0.4-3.5-0.7c-2.2-0.4-4-1-5.1-1.6c-0.6-0.3-1-0.6-1.2-0.9C178.2,573.2,178.1,573,178.1,573z"/>
	</g>
	<g class="st1">
		<path d="M130,588.9c0,0,0.5,0.1,1.5,0.3c1,0.2,2.5,0.5,4.3,0.8c1.9,0.3,4.2,0.6,6.8,1c2.6,0.3,5.6,0.7,8.8,1
			c6.5,0.7,14,1.3,22.2,1.9c4.1,0.3,8.3,0.6,12.5,0.8c4.3,0.2,8.6,0.4,12.9,0.5c4.3,0.1,8.7,0.1,12.9-0.1c4.3-0.1,8.5-0.3,12.5-0.5
			c4.1-0.2,8-0.5,11.7-0.8c3.7-0.3,7.2-0.6,10.5-0.9c6.5-0.6,11.9-1.2,15.6-1.8c1.9-0.3,3.4-0.5,4.4-0.6c1-0.2,1.5-0.2,1.5-0.2
			s-0.5,0.1-1.5,0.3c-1,0.2-2.5,0.5-4.3,0.8c-1.9,0.3-4.2,0.6-6.8,1c-2.6,0.4-5.6,0.7-8.8,1.1c-3.2,0.4-6.8,0.7-10.5,1
			c-3.7,0.3-7.6,0.6-11.7,0.9c-4.1,0.2-8.3,0.5-12.6,0.6c-4.3,0.1-8.6,0.2-13,0.1c-4.4-0.1-8.7-0.3-13-0.6
			c-4.3-0.3-8.5-0.5-12.5-0.8c-8.1-0.6-15.7-1.4-22.2-2.2c-6.5-0.8-11.8-1.6-15.6-2.3c-1.9-0.4-3.3-0.6-4.3-0.9
			C130.5,589,130,588.9,130,588.9z"/>
	</g>
	<g class="st1">
		<path d="M189.2,561.1c0,0,0.4,0.1,1.1,0.3c0.7,0.2,1.6,0.4,2.8,0.6c0.6,0.1,1.2,0.2,1.9,0.4c0.7,0.1,1.4,0.2,2.1,0.3
			c1.5,0.2,3,0.3,4.6,0.3c1.6,0,3.1,0,4.6-0.1c0.7-0.1,1.4-0.1,2.1-0.2c0.7-0.1,1.3-0.1,1.9-0.2c1.2-0.2,2.1-0.3,2.8-0.5
			c0.7-0.1,1.1-0.2,1.1-0.2s-0.4,0.1-1,0.4c-0.3,0.1-0.7,0.2-1.2,0.4c-0.5,0.1-1,0.3-1.6,0.4c-1.2,0.3-2.5,0.5-4,0.7
			c-1.5,0.1-3.1,0.2-4.7,0.2c-1.6-0.1-3.2-0.2-4.6-0.5c-1.5-0.2-2.8-0.6-4-0.9c-0.6-0.2-1.1-0.3-1.5-0.5c-0.5-0.2-0.8-0.3-1.2-0.4
			C189.6,561.2,189.2,561.1,189.2,561.1z"/>
	</g>
</g>
<g id="champagen" class="st0">
	<g class="st1">
		<path class="st18" d="M194.4,73.2c-17.8,0.1-31.5,1.6-47.4,1.1l-0.1,0c-0.2,3.3-0.5,6.5-0.7,9.8c-3.8,52.5-7.4,107,11.3,156.3
			c3.7,9.7,8.3,19.3,15.5,26.8c9.4,9.8,28.8,19.1,42.4,8.5c43.4-34,40.7-106,38.5-157.4c-0.7-15.9-1.5-30.9-2.4-45.6l-1.2-0.2
			C233.4,72.5,210.9,73.1,194.4,73.2z"/>
		<path class="st19" d="M247.7,5c5.6,36.1,8.5,72.7,8.7,109.2c0.1,17.9,1.3,36.3,0.1,54.2c-1,14.6-0.8,29.7-3.7,44.1
			c-6,30-15.9,42.7-25.8,62.2C202,324,205.5,380.3,203.9,435.4c-1.2,40.8-0.7,84,18.6,119.9c15.7,2.4,28.5,4.1,40.3,8.6
			c4.3,1.7,8.8,3.4,11.9,6.8c3.1,3.4,4.4,8,1.7,11.7c-1.7,2.3-4.4,3.4-7.1,4.4c-15.9,6-41.6,9.1-58.6,10.5
			c-22.6,1.8-46.1-0.7-68.4-4.5c-4.6-0.8-20-5.5-20-10.2c-0.1-7.9,8.1-12.1,15.4-15.2c10.7-4.5,16.7-5.5,28-8.2
			c2.3-0.5,8.2-2.1,10.3-3.2c10.8-22.4,13.4-47.9,14.7-72.7c0.8-15.8,1.2-30.4,1.3-46.8c0.1-27.8-0.2-55.5-1.5-83.3
			c-1.1-23.6-3.8-47.9-17.9-71.6c-12.7-21.4-25.4-43.7-30.2-68.2c-4.1-21-5.2-42.6-5.1-64c0.3-47.5,3.9-95,9.1-142.2
			C183.5,7.6,209.6,7.6,247.7,5z"/>
		<path class="st20" d="M149.8,11.7c-1.8,24.8-3.6,49.6-5.4,74.4c-3.8,52.5-7.4,107,11.3,156.3c3.7,9.7,8.3,19.3,15.5,26.8
			c9.4,9.8,28.8,19.1,42.4,8.5c43.4-34,40.7-106,38.5-157.4c-1.7-38.6-3.9-71.4-7.5-109.9"/>
		<path class="st20" d="M145.2,76.4c15.9,0.5,29.6-1,47.4-1.1c16.4-0.1,39.9-0.7,56.8-0.8"/>
		<g>
			<path d="M177.6,558.7c0,0,0.1,0.2,0.2,0.5c0.2,0.3,0.4,0.7,0.9,1.1c0.4,0.4,1,0.9,1.8,1.3c0.7,0.4,1.6,0.7,2.6,1.1
				c1,0.3,2.1,0.7,3.3,0.9c1.2,0.3,2.4,0.5,3.7,0.8c1.3,0.2,2.6,0.4,4,0.6c0.7,0.1,1.4,0.1,2.1,0.2c0.7,0.1,1.4,0.1,2.1,0.1
				c1.4,0,2.8,0,4.2-0.1c0.7-0.1,1.4-0.1,2-0.2c0.7-0.1,1.3-0.2,2-0.3c1.3-0.3,2.5-0.5,3.7-0.8c1.2-0.3,2.2-0.7,3.2-1
				c1-0.4,1.9-0.7,2.6-1.1c0.8-0.4,1.5-0.7,2-1c1.1-0.6,1.7-1,1.7-1s-0.6,0.4-1.6,1.1c-0.5,0.4-1.2,0.7-1.9,1.2
				c-0.7,0.5-1.6,0.8-2.6,1.3c-1,0.4-2.1,0.9-3.2,1.2c-1.2,0.4-2.4,0.7-3.7,1c-0.7,0.1-1.3,0.2-2,0.3c-0.7,0.1-1.4,0.2-2.1,0.2
				c-1.4,0.1-2.8,0.2-4.3,0.2c-0.7,0-1.4,0-2.1-0.1c-0.7-0.1-1.4-0.1-2.1-0.2c-1.4-0.1-2.8-0.4-4.1-0.6c-1.3-0.3-2.6-0.6-3.7-1
				c-1.2-0.3-2.2-0.7-3.3-1.1c-2-0.7-3.6-1.7-4.4-2.7c-0.4-0.5-0.6-0.9-0.8-1.2C177.7,558.9,177.6,558.7,177.6,558.7z"/>
		</g>
		<g>
			<path d="M125.6,579c0,0,0.1,0.1,0.2,0.4c0.1,0.2,0.4,0.6,0.8,1c0.8,0.8,2.2,1.7,4,2.6c1.9,0.9,4.2,1.8,7,2.6
				c2.8,0.8,5.9,1.6,9.4,2.3c7,1.4,15.2,2.4,24.1,2.8c8.9,0.4,18.4,0.2,27.9-0.5c9.5-0.6,18.9-1.7,27.7-2.9
				c4.4-0.6,8.7-1.2,12.8-1.5c4.1-0.4,7.9-0.6,11.5-1c3.5-0.4,6.8-0.9,9.6-1.5c2.8-0.6,5.3-1.3,7.2-2c1-0.3,1.8-0.7,2.6-1
				c0.4-0.2,0.7-0.3,1-0.4c0.3-0.2,0.6-0.3,0.8-0.4c1-0.5,1.5-0.8,1.5-0.8s-0.5,0.3-1.5,0.8c-0.2,0.1-0.5,0.3-0.8,0.4
				c-0.3,0.1-0.7,0.3-1,0.5c-0.7,0.3-1.6,0.7-2.6,1.1c-1.9,0.8-4.4,1.5-7.2,2.2c-2.8,0.7-6.1,1.2-9.6,1.7c-3.5,0.4-7.4,0.8-11.5,1.2
				c-4.1,0.4-8.3,1-12.7,1.6c-8.8,1.2-18.3,2.3-27.8,3c-4.7,0.3-9.5,0.5-14.2,0.6c-4.7,0.1-9.3,0-13.8-0.2
				c-8.9-0.4-17.2-1.6-24.2-3.1c-7-1.5-12.7-3.4-16.4-5.2c-1.9-0.9-3.2-1.9-4-2.7c-0.4-0.4-0.6-0.8-0.8-1
				C125.7,579.2,125.6,579,125.6,579z"/>
		</g>
	</g>
</g>
<g id="Layer_6" class="st0">
	<g class="st1">
		<path class="st21" d="M336.4,178.8c-3.3-26.8-7.7-54.4-1-80.5c0.6-3.3-2.4-6.2-5.3-8c-15.9-10.1-35.8-10.9-54.6-11.1
			c-60.7-0.6-121.5,1.7-182,7.4c-10.9,1-23.6,3.4-28.6,13.2c7,34.8,7.1,69.5,2.1,104.7c-1.2,8.5-2.7,17-2.6,25.5l0,1.1
			c90.6-0.6,182-2.7,272.6-6.1l0.9-0.1C338.9,209.6,338.2,194.1,336.4,178.8z"/>
		<linearGradient id="SVGID_1_" gradientUnits="userSpaceOnUse" x1="201.0318" y1="224.949" x2="201.0318" y2="581.693">
			<stop  offset="0" style="stop-color:#AA6300"/>
			<stop  offset="1" style="stop-color:#442003"/>
		</linearGradient>
		<path class="st22" d="M336.9,225c-90.6,3.4-181.9,5.4-272.6,6l0.1,1.9c0,0.5,0.1,1,0.1,1.4c0.6,7.5,2.8,14.7,5,21.8
			c3.4,11.3,6.9,22.7,10.3,34c8.5,28.1,9.4,57.2,10.3,86.6c1.6,51.9,0.1,98.3,5,147.6c1,9.8,2.2,19.8,6.3,28.9
			c4.1,9,11.6,17,21.2,19.2c43.9,10.3,90.8,7.1,135.9,9.1c9.6,0.4,26-0.9,35.5-2.9c14.4-3,15.8-20.8,16.2-25.8
			c1.8-27.8-1.7-55.3,0.1-83.1c1.3-20.3,2.6-40.5,3.9-60.8c1.6-25.3,4.9-51.4,6.6-76.7c1.6-23.8,3.3-47.8,10.2-70.6
			c3.7-12,5.8-24.3,6.7-36.8L336.9,225z"/>
		<path class="st2" d="M334.9,223c-90.6,3.4-181.9,5.4-272.6,6l0.1,1.9c0,0.5,0.1,1,0.1,1.4c0.6,7.5,2.8,14.7,5,21.8
			c3.4,11.3,6.9,22.7,10.3,34c8.5,28.1,9.4,57.2,10.3,86.6c1.6,51.9,0.1,98.3,5,147.6c1,9.8,2.2,19.8,6.3,28.9
			c4.1,9,11.6,17,21.2,19.2c43.9,10.3,90.8,7.1,135.9,9.1c9.6,0.4,26-0.9,35.5-2.9c14.4-3,15.8-20.8,16.2-25.8
			c1.8-27.8-1.7-55.3,0.1-83.1c1.3-20.3,2.6-40.5,3.9-60.8c1.6-25.3,4.9-51.4,6.6-76.7c1.6-23.8,3.3-47.8,10.2-70.6
			c3.7-12,5.8-24.3,6.7-36.8L334.9,223z"/>
		<path class="st23" d="M340.7,92.4c-2.4,26-4.7,52.2-2.2,78.3c0.9,9.2,2.4,18.4,3,27.7c2.5,35.8-10.2,66.3-15.1,101.1
			c-1.7,12-2.3,24.1-2.9,36.2c-2.9,55.7-6.7,111.4-8.4,167.1c-0.5,16.1-0.5,32.2,0.6,48.3c0.8,10.9-2.9,29-11.2,38
			c-3.3,3.6-8.2,5.3-13,6.5c-28.5,7.1-137,5.1-162.8-0.9c-11.5-2.7-26-6.2-32-16.3c-3.2-5.3-4-11.7-4.7-17.9
			c-1.3-11.1-2.1-20.3-3.3-31.4c-5.9-53.3-3.3-106.9-7.3-160.3c-1.8-23.1-2.2-48.6-7.4-71.2c-4.3-18.4-12.7-35.7-15-54.6
			c-2.4-19.3,2-39.6,3.9-58.9c3-29.8-0.6-59.8-4.1-89.6C151,81.4,248.1,81.7,340.7,92.4z"/>
		<g>
			<path d="M61.7,97c0,0,0.2,1.1,0.6,3.3c0.4,2.1,1,5.3,1.7,9.5c0.3,2.1,0.7,4.4,1,7c0.3,2.6,0.7,5.4,1,8.4c0.7,6.1,1.2,13.1,1.6,21
				c0.7,15.8,0.3,35-2.7,56.8c-0.8,5.4-1.7,11-2.2,16.8c-0.5,5.8-0.6,11.8,0.5,17.9c1,6.1,2.9,12.1,4.8,18.3
				c1.9,6.2,3.8,12.5,5.8,19c1.9,6.5,4,13.1,5.9,19.9c1.8,6.8,3.2,13.9,4.3,21.1c2.2,14.4,3.2,29.5,3.8,45c0.6,15.5,1,31.4,1.2,47.7
				c0.2,16.3,0.4,32.9,0.7,49.8c0.4,16.9,1,34.1,2.4,51.4c0.3,4.3,0.8,8.7,1.1,13c0.4,4.3,0.9,8.7,1.7,13c0.8,4.3,1.8,8.6,3.3,12.7
				c1.5,4.1,3.7,8,6.4,11.4c2.7,3.4,6.1,6.4,10,8.4c1.9,1,4,1.8,6.2,2.3c2.2,0.5,4.4,0.9,6.5,1.4c8.7,1.7,17.6,3,26.5,4
				c8.9,0.9,17.9,1.5,26.9,1.9c9,0.4,18,0.6,27,0.7c9,0.1,18,0.3,27,0.4c4.5,0.1,9,0.2,13.5,0.3l6.7,0.3c2.2,0.1,4.5,0.2,6.7,0.1
				c4.5-0.1,8.9-0.3,13.4-0.7c4.5-0.4,8.9-0.9,13.3-1.6c1.1-0.2,2.2-0.4,3.2-0.6l1.6-0.5l0.8-0.2c0.3-0.1,0.5-0.2,0.7-0.3l1.5-0.7
				c0.5-0.3,0.9-0.6,1.4-0.9l0.7-0.4l0.6-0.5c0.4-0.4,0.8-0.7,1.2-1.1c1.5-1.6,2.7-3.4,3.7-5.4c1-2,1.7-4.1,2.2-6.2
				c0.6-2.1,0.9-4.3,1.2-6.5c0.3-2.2,0.3-4.4,0.4-6.6c0.1-2.2,0.2-4.4,0.2-6.6c0-2.2,0.1-4.4,0.1-6.6c0-8.8-0.2-17.5-0.5-26.2
				c-0.3-8.7-0.5-17.3-0.4-25.9c0.1-8.6,0.7-17.1,1.3-25.5c1.1-16.9,2.2-33.5,3.2-49.7c1.1-16.2,2.7-32.1,4.2-47.5
				c0.7-7.7,1.4-15.3,2-22.8c0.6-7.5,1-14.9,1.6-22.2c1.2-14.5,2.8-28.6,5.8-41.8c0.8-3.3,1.6-6.6,2.5-9.7c0.5-1.6,0.9-3.2,1.4-4.7
				c0.4-1.6,0.9-3.1,1.3-4.7c1.6-6.3,2.8-12.5,3.7-18.6c1.7-12.2,2.1-23.9,1.7-34.9c-0.3-11-1.5-21.2-2.7-30.6
				c-1.2-9.4-2.2-18.1-2.8-26c-1.2-15.7-0.6-28.2,0.8-36.5c0.2-1,0.3-2,0.5-2.9c0.2-0.9,0.4-1.8,0.5-2.6c0.2-0.8,0.3-1.5,0.4-2.2
				c0.2-0.7,0.3-1.2,0.5-1.8c0.5-2.1,0.8-3.2,0.8-3.2s-0.3,1.1-0.8,3.2c-0.1,0.5-0.3,1.1-0.4,1.8c-0.1,0.7-0.3,1.4-0.4,2.2
				c-0.2,0.8-0.3,1.6-0.5,2.6c-0.2,0.9-0.3,1.9-0.5,2.9c-1.3,8.3-2,20.8-0.7,36.5c0.6,7.9,1.6,16.5,2.8,26
				c1.2,9.4,2.5,19.7,2.8,30.6c0.4,11,0,22.7-1.6,35c-0.8,6.1-2,12.3-3.6,18.6c-0.4,1.6-0.8,3.1-1.3,4.7c-0.5,1.6-0.9,3.2-1.4,4.7
				c-0.9,3.2-1.7,6.4-2.5,9.7c-3,13.2-4.6,27.2-5.7,41.7c-0.6,7.3-1,14.7-1.6,22.2c-0.6,7.5-1.3,15.1-2,22.8
				c-1.5,15.4-3.1,31.3-4.1,47.5c-1,16.2-2.1,32.8-3.2,49.7c-0.5,8.4-1.2,16.9-1.2,25.5c-0.1,8.6,0.1,17.2,0.4,25.9
				c0.3,8.7,0.6,17.4,0.5,26.2c0,2.2-0.1,4.4-0.1,6.6c-0.1,2.2-0.1,4.4-0.2,6.6c-0.1,2.2-0.2,4.4-0.4,6.6c-0.2,2.2-0.6,4.4-1.2,6.6
				c-0.6,2.2-1.3,4.3-2.3,6.3c-1,2-2.3,3.9-3.9,5.6c-0.4,0.4-0.8,0.8-1.3,1.1l-0.6,0.6c-0.2,0.2-0.5,0.3-0.7,0.5
				c-0.5,0.3-0.9,0.6-1.4,0.9l-1.6,0.7c-0.3,0.1-0.5,0.3-0.8,0.3l-0.8,0.2l-1.6,0.5c-1.2,0.2-2.2,0.4-3.3,0.6
				c-4.4,0.7-8.9,1.3-13.3,1.7c-4.5,0.4-9,0.7-13.5,0.7c-2.3,0-4.5,0-6.8-0.1l-6.7-0.3c-4.5-0.1-9-0.3-13.5-0.3
				c-9-0.1-18-0.3-27-0.4c-9-0.2-18-0.3-27-0.7c-9-0.4-18-1-26.9-1.9c-8.9-1-17.8-2.3-26.6-4c-2.2-0.5-4.4-0.9-6.5-1.4
				c-2.2-0.5-4.4-1.3-6.4-2.3c-4-2.1-7.5-5.1-10.2-8.7c-2.8-3.5-5-7.5-6.5-11.7c-1.6-4.2-2.6-8.5-3.4-12.8
				c-0.7-4.4-1.2-8.7-1.6-13.1c-0.4-4.4-0.8-8.7-1.1-13c-1.4-17.4-2-34.5-2.4-51.4c-0.4-16.9-0.5-33.5-0.7-49.8
				c-0.2-16.3-0.6-32.2-1.2-47.7c-0.6-15.5-1.5-30.5-3.8-44.9c-1.1-7.2-2.5-14.2-4.3-21c-1.8-6.8-3.9-13.4-5.8-19.8
				c-2-6.5-3.9-12.8-5.7-19c-1.9-6.2-3.7-12.3-4.8-18.4c-1.1-6.1-1-12.2-0.4-18c0.6-5.8,1.5-11.4,2.3-16.9c3.1-21.8,3.5-41,2.9-56.7
				c-0.3-7.9-0.8-14.9-1.5-21c-0.3-3-0.7-5.9-1-8.4c-0.4-2.6-0.7-4.9-1-7c-0.7-4.2-1.2-7.4-1.7-9.5C61.9,98.1,61.7,97,61.7,97z"/>
		</g>
		<path class="st24" d="M62.3,229.5c90.6-0.6,182.5-2.7,273.1-6.1"/>
		<g>
			<path d="M62.7,98.3c0,0,0.1-0.2,0.4-0.7c0.3-0.5,0.6-1.2,1.3-2c1.2-1.6,3.4-3.9,6.8-5.7c3.4-1.8,7.9-3.2,13.3-4.1
				c5.3-0.9,11.4-1.3,17.9-1.9c6.6-0.6,13.7-1.2,21.3-1.8c7.6-0.6,15.5-1.1,23.8-1.7c8.2-0.5,16.8-1,25.4-1.4
				c8.7-0.4,17.5-0.8,26.3-1c8.8-0.3,17.6-0.4,26.3-0.6c8.7-0.1,17.2-0.2,25.5-0.2c8.3,0,16.2,0.1,23.8,0.2
				c7.6,0.1,14.7,0.4,21.3,1.1c3.3,0.3,6.4,0.9,9.4,1.4c2.9,0.6,5.7,1.3,8.3,2.2c5.1,1.6,9.4,3.7,12.7,5.7c3.4,1.9,5.6,4.1,6.4,6.1
				c0.4,1,0.5,1.8,0.4,2.3c0,0.3-0.1,0.5-0.1,0.6c0,0.1,0,0.2,0,0.2s0-0.1,0-0.2c0-0.1,0.1-0.3,0.1-0.6c0-0.5,0-1.3-0.4-2.3
				c-0.8-1.9-3-4.2-6.4-6c-3.3-1.9-7.6-3.9-12.7-5.5c-5.1-1.6-11.1-2.8-17.6-3.4c-6.6-0.7-13.7-0.9-21.3-1
				c-7.6-0.1-15.6-0.1-23.8-0.1c-8.3,0-16.8,0.1-25.5,0.3c-8.7,0.2-17.5,0.4-26.3,0.7c-8.8,0.2-17.6,0.6-26.3,0.9
				c-8.7,0.4-17.2,0.8-25.4,1.3c-8.2,0.5-16.2,1-23.8,1.6c-7.6,0.5-14.7,1.1-21.3,1.7c-3.3,0.3-6.4,0.6-9.4,0.8
				c-3,0.2-5.8,0.5-8.5,0.9c-5.3,0.8-9.8,2.2-13.2,3.9c-3.4,1.8-5.6,3.9-6.9,5.6c-0.7,0.8-1,1.5-1.3,2
				C62.9,98.1,62.7,98.3,62.7,98.3z"/>
		</g>
	</g>
</g>
<g id="tik_tak" class="st0">
	<linearGradient id="SVGID_2_" gradientUnits="userSpaceOnUse" x1="83.8079" y1="488.7511" x2="317.3104" y2="488.7511">
		<stop  offset="0" style="stop-color:#EFBF20"/>
		<stop  offset="1" style="stop-color:#AA3800"/>
	</linearGradient>
	<path class="st25" d="M317.2,522.7c0.6-4.9-0.9-9.7-2.1-14.4c-1.2-5-2.1-10-2.6-15.1c-0.1,0.3-3.4-20.1-3.2-27.7
		c0.2-10.3,0.4-20.6,0.8-31c0,0,0,0-0.1,0c-43.6,1.9-87.4,1.8-131-0.5c-5-0.3-9.9-0.5-14.9-0.3c-10.9,0.6-21.6,3.9-32.6,4.3
		c-14.6,0.6-28.8-3.9-42.6-8.7c-0.3-0.1-0.6-0.2-0.9-0.3c2,26.6,3.7,53.4-2,79.5c-1.7,7.6-5,18.1,2.7,23.6c1.7,1.2,3.8,2,5.8,2.7
		c16.7,5.7,34.2,9.1,51.8,9.9c17.5,0.8,34.6,4.1,52.4,3.8c20.1-0.3,39.8-4.3,59.7-5.8c11.8-0.9,23.5-3.1,34.9-6.1
		C301.9,534.2,315.7,533.7,317.2,522.7z"/>
	<path class="st10" d="M330,308.1c-4.5,35.7-9.8,71.2-14.4,106.8c-5.6,43.6-3.7,86.9,10.7,128.6c2,5.8,6.7,19.4,6.7,21.6
		c0.1,5.6,0,11.8-3.6,16.2c-1.8,2.2-4.3,3.6-6.9,5c-34.4,18-194.6,14.9-221,9.8c-16.5-3.2-34.9-2.6-34.7-23.9
		c0.1-7.9,2.5-15.6,4.6-23.2c5.6-20.1,10.6-38.8,11.5-59.7c2.4-60.6-6.1-121.3-12.7-181.5C110.8,304.9,317.8,306.4,330,308.1z"/>
	<path class="st12" d="M96.5,426.5c3.2,19.2,4.9,38.6,4.9,58.1c0,5.2-0.1,10.5,1.6,15.4c1.6,4.8,4.8,8.8,8.1,12.6
		c11.3,13.2,26.4,25.2,43.7,25.3c5.9,0,11.7-1.3,17.5-2.3c26.8-4.7,54.5-2.3,81.3-7.1c6.1-1.1,12.4-2.7,17.2-6.6
		c8.6-7.2,9.8-19.9,9.1-31.1c-1-16.8-4.6-33.5-3-50.2c0.5-5.6,1.4-11.9-2.2-16.2c-3.8-4.6-10.7-4.7-16.7-5.3
		c-11-1.3-21.3-5.9-32.1-8.6c-17.8-4.4-36.9-3-53.9,3.9c-22.6,9.1-47.9,3.4-72.1,7c-1,0.2-2.2,0.3-2.9,1.1
		C96.2,423.1,95.7,425.9,96.5,426.5z"/>
	<g class="st1">
		<path d="M98.2,428.4c0,0,10.2,5,25.5,12.6c3.8,1.9,7.9,4,12.4,6c4.4,2,9.2,3.9,14.3,5.4c2.5,0.7,5.2,1.4,7.8,1.9
			c2.7,0.4,5.4,0.7,8.2,0.8c5.5,0.2,11.2-0.5,16.7-1.5c5.6-1,11.1-2.4,16.5-3.7c5.4-1.3,10.8-2.6,16-3.9c10.3-2.5,20-4.7,28.2-7.2
			c4.1-1.2,7.8-2.4,11-3.6c3.2-1.2,6-2.3,8.3-3.4c2.3-1,4-1.9,5.2-2.5c1.2-0.6,1.8-0.9,1.8-0.9s-0.6,0.3-1.8,1
			c-1.2,0.6-2.9,1.5-5.2,2.6c-4.5,2.1-11.1,4.9-19.2,7.4c-8.2,2.5-17.8,4.9-28.1,7.5c-5.2,1.3-10.5,2.6-15.9,4
			c-5.4,1.3-10.9,2.7-16.6,3.8c-5.6,1-11.3,1.6-17,1.4c-2.8-0.1-5.6-0.4-8.3-0.9c-2.7-0.5-5.4-1.2-7.9-1.9
			c-5.1-1.5-9.9-3.5-14.3-5.6c-4.4-2.1-8.5-4.2-12.3-6.1C108.3,433.7,98.2,428.4,98.2,428.4z"/>
	</g>
	<g class="st1">
		<path d="M160.6,456.9c0,0-0.2,1.1-0.5,3.1c-0.3,1.9-0.7,4.7-1.2,8.1c-0.2,1.7-0.5,3.5-0.7,5.4c-0.2,1.9-0.5,3.9-0.7,6
			c-0.5,4.2-0.9,8.7-1.2,13.2c-0.3,4.5-0.6,9-0.7,13.2c-0.1,2.1-0.1,4.1-0.2,6.1c0,1.9-0.1,3.8-0.1,5.4c0,3.4,0,6.2,0,8.2
			c0,2,0,3.1,0,3.1s-0.1-1.1-0.2-3.1c-0.1-1-0.1-2.2-0.2-3.5c-0.1-1.4-0.2-2.9-0.2-4.6c-0.1-3.4-0.2-7.3-0.1-11.6
			c0.1-4.2,0.3-8.7,0.6-13.2c0.4-4.5,0.8-9,1.3-13.2c0.3-2.1,0.5-4.1,0.8-6c0.3-1.9,0.6-3.7,0.9-5.4c0.3-1.7,0.6-3.2,0.8-4.5
			c0.3-1.3,0.5-2.5,0.7-3.5C160.4,458,160.6,456.9,160.6,456.9z"/>
	</g>
	<g class="st1">
		<path d="M73.7,313.3c4,20.1,6.8,40.4,8.8,60.8c1,10.2,1.9,20.4,2.7,30.6l1.1,15.3l1.2,15.3c0.8,10.2,1.4,20.5,1.6,30.7
			c0.1,5.1,0,10.3-0.1,15.4c-0.3,5.1-0.6,10.2-1.2,15.3c-0.3,2.6-0.7,5.1-1.1,7.6c-0.4,2.5-1,5-1.5,7.6c-0.6,2.5-1.2,5-1.6,7.5
			c-0.4,2.5-0.6,5.1-0.3,7.5c0.3,2.5,1.4,4.8,3.2,6.6c1.7,1.8,4.1,2.8,6.5,3.6c4.8,1.7,9.7,3.1,14.7,4.4c9.9,2.5,20,4.2,30.2,5.1
			c5.1,0.5,10.2,0.5,15.3,1c5.1,0.4,10.2,1,15.3,1.5c10.2,1.1,20.4,2,30.6,1.7c10.2-0.2,20.4-1.4,30.6-2.7
			c10.2-1.3,20.4-2.6,30.6-3.3c10.2-0.9,20.3-2.8,30.2-5.4c4.9-1.4,10.1-2,14.9-3.6c2.4-0.8,4.7-1.8,6.6-3.4
			c1.9-1.6,3.2-3.8,3.6-6.3c0.5-2.5,0.3-5-0.2-7.5c-0.4-2.5-1.1-5-1.7-7.5c-1.2-5-2.1-10.1-2.6-15.2l0.7,0.1c-1.2,0-0.4-0.1-0.7-0.1
			l0-0.1l0-0.1l0-0.2l-0.1-0.4l-0.1-0.7l-0.2-1.4l-0.4-2.8c-0.3-1.9-0.6-3.8-0.8-5.7c-0.5-3.8-1-7.6-1.2-11.4
			c-0.4-3.8-0.1-7.6-0.1-11.4l0.3-11.4c0.4-15.2,1.1-30.4,2.8-45.6c0.9-7.6,2.1-15.1,3.3-22.6l3.9-22.5c0.6-3.8,1.2-7.5,1.8-11.3
			c0.6-3.8,1.1-7.5,1.5-11.3c0.4-3.8,0.8-7.6,1.1-11.4c0.2-1.9,0.2-3.8,0.3-5.7l0.2-5.7l-0.2,5.7c-0.1,1.9-0.2,3.8-0.3,5.7
			c-0.3,3.8-0.6,7.6-1,11.4c-0.4,3.8-0.9,7.6-1.4,11.3c-0.5,3.8-1.1,7.5-1.7,11.3l-3.7,22.5c-1.2,7.5-2.4,15-3.2,22.6
			c-1.7,15.1-2.4,30.3-2.7,45.5l-0.2,11.4c0,3.8-0.3,7.6,0.1,11.4c0.3,3.8,0.8,7.6,1.3,11.3c0.3,1.9,0.5,3.8,0.8,5.6l0.4,2.8
			l0.2,1.4l0.1,0.7l0.1,0.3l0,0.2l0,0.1l0,0c-0.3,0,0.6-0.1-0.6,0l0.7,0.1c0.5,5.1,1.4,10.1,2.6,15.1c0.6,2.5,1.3,5,1.8,7.5
			c0.4,2.5,0.7,5.2,0.2,7.8c-0.4,2.6-1.9,5-3.9,6.7c-2,1.7-4.5,2.8-6.9,3.6c-4.9,1.6-10,2.2-15,3.6c-9.9,2.6-20.1,4.5-30.3,5.5
			c-10.2,0.8-20.4,2.1-30.5,3.4c-10.2,1.3-20.4,2.5-30.6,2.7c-10.3,0.3-20.5-0.7-30.7-1.8c-5.1-0.5-10.2-1.1-15.3-1.5
			c-5.1-0.5-10.2-0.6-15.3-1c-10.2-0.9-20.4-2.6-30.3-5.2c-5-1.3-9.9-2.8-14.7-4.5c-2.4-0.8-4.9-1.9-6.8-3.8c-1.9-1.9-3-4.4-3.4-7
			c-0.6-5.3,0.8-10.3,1.9-15.3c0.5-2.5,1-5,1.5-7.5c0.4-2.5,0.8-5,1.1-7.6c0.7-5.1,1-10.2,1.3-15.3c0.2-5.1,0.3-10.2,0.2-15.3
			c-0.2-10.2-0.8-20.5-1.6-30.7l-1.1-15.3l-1.1-15.3c-0.7-10.2-1.5-20.4-2.5-30.6C80.3,353.7,77.6,333.4,73.7,313.3z"/>
	</g>
	<path class="st12" d="M87.9,432.3c13.8,4.8,28.1,9.3,42.6,8.7c11-0.4,21.6-3.7,32.6-4.3c5-0.3,9.9,0,14.9,0.3
		c43.6,2.3,87.4,2.4,131,0.5"/>
</g>
<g id="Layer_8" class="st0">
	<g class="st1">
		<linearGradient id="SVGID_3_" gradientUnits="userSpaceOnUse" x1="197.1958" y1="329.4708" x2="197.1958" y2="536.3499">
			<stop  offset="0" style="stop-color:#FFFFFF"/>
			<stop  offset="3.769541e-02" style="stop-color:#F8F2E4"/>
			<stop  offset="0.1007" style="stop-color:#EDDFBD"/>
			<stop  offset="0.1702" style="stop-color:#E4CE9A"/>
			<stop  offset="0.2457" style="stop-color:#DCC07C"/>
			<stop  offset="0.329" style="stop-color:#D6B565"/>
			<stop  offset="0.4234" style="stop-color:#D1AC52"/>
			<stop  offset="0.5356" style="stop-color:#CEA646"/>
			<stop  offset="0.6829" style="stop-color:#CCA23E"/>
			<stop  offset="1" style="stop-color:#CBA13C"/>
		</linearGradient>
		<path class="st26" d="M323,333.6c-28.1-6.8-210.6-2.4-250.4-4.1c-0.4,0-0.9,0-1.3,0c0,19.6,0,39.2,0.1,58.8
			c0,18.2,0.3,37.5,10.1,52.9c4.5,7.2,10.9,13.1,14.7,20.7c5.3,10.5,5.2,23.1,10.6,33.5c7,13.6,22.8,21.3,38.1,21.5
			c2.8,0,2.9,0.1,5.3,1.4c12.4,6.6,24.2,15.4,38.1,17.6c15.6,2.5,31.3-3.7,45.1-11.3c9.8-5.5,21.1-3.6,31.4-8.1
			c8.5-3.7,15.7-10.6,19.7-19c4.6-9.6,5.5-20.6,11.6-29.5c6.1-8.9,13.4-14.9,16.6-25.8c2.7-9.2,3.2-18.9,3.8-28.5
			C318.5,386.6,318.5,360.2,323,333.6z"/>
		<path class="st27" d="M64,293.2c-0.4,40.7-0.8,81.5,2.4,122.1c0.5,6.8,1.2,13.6,3,20.2c2.1,7.8,5.7,15.2,8.7,22.7
			c7.6,19.8,10.3,41.1,13,62.2c2.7,21.8,5.5,43.5,8.2,65.3c5.7,7.1,14.8,8.6,23.7,10.2c9,1.6,18.2,1.1,27.2,0.7
			c34.4-1.3,69.3-1,103.4,2c2.9,0.2,5.7,0.5,8.6,0.4c8.2-0.2,28.2-3.8,31.8-12.6c1.2-2.9,1.1-6.2,1.1-9.4
			c-0.3-27.7,3.5-55.2,7.3-82.6c2.2-15.9,6.2-29.1,12-43.7c6-15,5.9-34.6,8-50.7c4.7-36.4,7.1-68.8,10.6-105.3
			C307.5,297,130.1,292.3,64,293.2z"/>
		<g>
			<path d="M70.2,301.5c0,0,0,9.3,0.1,25.6c0,8.1,0.1,18,0.1,29.3c0,5.7,0.1,11.7,0.1,18c0.1,6.4,0,13,0.1,20c0.2,7,0.6,14.2,2,21.6
				c1.4,7.3,3.9,14.8,8.2,21.5c4.3,6.7,10.4,12.4,14.3,20c1.9,3.8,3.2,7.9,4.3,12c1.1,4.2,1.9,8.4,3.1,12.6c0.6,2.1,1.3,4.2,2.1,6.2
				c0.8,2,1.8,4,3,5.8c2.4,3.7,5.5,6.9,9,9.5c7.1,5.3,16,8.3,25,8.8c1.1,0.1,2.2,0.1,3.4,0.1c0.6,0,1.2,0.1,1.8,0.3
				c0.6,0.2,1.1,0.5,1.6,0.7c2,1.1,4,2.2,6.1,3.3c4,2.3,8,4.7,12,6.8c4.1,2.2,8.2,4.2,12.6,5.7c4.3,1.5,8.9,2.4,13.5,2.5
				c9.2,0.3,18.4-2.1,26.8-5.6c4.3-1.8,8.4-3.9,12.4-6.1c4.1-2.3,8.7-3.4,13.3-4.1c4.5-0.7,9.1-1.2,13.4-2.3c4.4-1.1,8.4-3.1,12-5.7
				c3.6-2.6,6.7-5.8,9.3-9.4c2.5-3.6,4.3-7.6,5.7-11.7c1.4-4.1,2.5-8.3,3.9-12.4c1.4-4.1,3.2-8,5.7-11.5c2.4-3.5,5.1-6.6,7.7-9.8
				c2.5-3.2,4.9-6.5,6.5-10.1c1.7-3.6,2.7-7.4,3.4-11.2c0.8-3.8,1.2-7.6,1.6-11.3c0.3-3.7,0.6-7.4,0.8-11c0.3-3.6,0.5-7.2,0.8-10.6
				c1-13.9,2.1-26.7,3.1-37.9c1-11.3,1.9-21.1,2.6-29.2c1.5-16.2,2.3-25.5,2.3-25.5s-0.8,9.3-2.2,25.5c-1.4,16.2-3.3,39.4-5.3,67.2
				c-0.2,3.5-0.5,7-0.7,10.6c-0.2,3.6-0.5,7.3-0.8,11.1c-0.3,3.7-0.8,7.6-1.5,11.4c-0.8,3.8-1.7,7.7-3.4,11.4c-1.7,3.7-4,7-6.6,10.3
				c-2.5,3.2-5.2,6.4-7.6,9.8c-2.4,3.4-4.2,7.2-5.5,11.3c-1.4,4-2.5,8.2-3.9,12.4c-0.7,2.1-1.5,4.2-2.4,6.1c-0.9,2-2.1,4-3.3,5.8
				c-2.6,3.7-5.8,6.9-9.4,9.6c-3.7,2.6-7.8,4.7-12.3,5.9c-4.4,1.2-9,1.6-13.5,2.4c-4.5,0.7-9,1.8-12.9,4c-4,2.2-8.2,4.4-12.5,6.2
				c-8.5,3.6-17.8,6.1-27.3,5.8c-4.7-0.2-9.4-1.1-13.8-2.6c-4.4-1.5-8.7-3.5-12.7-5.8c-4.1-2.2-8.1-4.6-12-6.9c-2-1.1-4-2.3-6-3.3
				c-0.5-0.3-1-0.5-1.5-0.7c-0.5-0.2-1-0.2-1.6-0.2c-1.1,0-2.3,0-3.4-0.1c-9.2-0.6-18.2-3.7-25.5-9.1c-3.6-2.7-6.8-6-9.2-9.8
				c-1.2-1.9-2.2-3.9-3.1-5.9c-0.8-2-1.5-4.2-2.1-6.3c-1.2-4.2-2-8.5-3-12.6c-1-4.1-2.3-8.2-4.2-11.9c-3.9-7.4-9.9-13.2-14.3-19.9
				c-4.4-6.8-6.8-14.4-8.2-21.8c-1.4-7.4-1.8-14.7-2-21.7c-0.1-7-0.1-13.7-0.1-20c0-6.4,0-12.4,0-18c0-11.3,0.1-21.2,0.1-29.3
				C70.2,310.8,70.2,301.5,70.2,301.5z"/>
		</g>
		<g>
			<path d="M117.3,583.1c0.3-5.7,1-11.4,2.7-16.9c1.7-5.5,4.4-10.7,8.4-14.9c2-2.1,4.3-3.9,6.8-5.3c1.3-0.7,2.6-1.3,4.1-1.6
				c0.4-0.1,0.7-0.1,1.1-0.1c0.4,0,0.7,0,1.1,0.1c0.8,0.1,1.5,0.4,2.2,0.7c1.3,0.7,2.4,1.8,3.3,3c0.9,1.2,1.6,2.4,2.4,3.6
				c0.7,1.2,1.5,2.4,2.5,3.3c0.9,0.8,2.5,1.1,3.2,0.3l-0.1,0.4c-0.1-0.9,0-1.8,0.3-2.7c0.3-0.8,0.8-1.6,1.4-2.3
				c0.6-0.6,1.3-1.2,2.1-1.6c0.2-0.1,0.4-0.2,0.6-0.3c0.2-0.1,0.4-0.2,0.6-0.2c0.4-0.2,0.8-0.3,1.2-0.4c1.7-0.4,3.4-0.5,5-0.5l4.9,0
				l19.8-0.1c6.6,0,13.2,0,19.8,0.1c3.3,0,6.6,0.1,9.9,0.2c1.7,0,3.3,0.1,5,0.2c0.8,0,1.7,0.1,2.5,0.1c0.4,0,0.8,0.1,1.3,0.1
				c0.4,0.1,0.8,0.1,1.3,0.2c1,0.4,1.5,1.3,1.9,2.1c0.3,0.8,0.6,1.6,0.9,2.3c0.3,0.7,0.7,1.2,1.4,1.3c0.2,0,0.3,0,0.5,0l0.1,0l0,0
				c0,0-0.1,0,0,0l0.1,0l0.3-0.1c0.4-0.1,0.6-0.2,1-0.4c1.3-0.8,2.5-2,3.7-3.1c1.2-1.2,2.2-2.4,3.4-3.6c0.6-0.6,1.2-1.2,1.9-1.7
				c0.7-0.5,1.4-1,2.3-1.2c0.9-0.2,1.8-0.1,2.7,0.2c0.8,0.3,1.6,0.6,2.3,1c1.5,0.8,2.8,1.8,4.2,2.7c1.3,0.9,2.8,1.8,4,2.9
				c2.5,2.2,4.6,4.9,6.2,7.7c1.7,2.9,3,5.9,4,9.1c1,3.1,1.7,6.4,2.1,9.7c0.4,3.3,0.4,6.6,0.1,9.9c0.2-3.3,0.1-6.6-0.3-9.9
				c-0.5-3.3-1.2-6.5-2.2-9.6c-1.1-3.1-2.4-6.1-4.1-8.9c-1.6-2.8-3.7-5.4-6.2-7.5c-1.2-1.1-2.6-1.9-4-2.8c-1.4-0.9-2.7-1.8-4.2-2.6
				c-1.4-0.7-3-1.4-4.4-1c-1.4,0.4-2.6,1.6-3.8,2.8c-1.1,1.2-2.2,2.4-3.4,3.6c-1.2,1.2-2.4,2.4-3.9,3.3c-0.3,0.2-0.8,0.4-1.3,0.6
				l-0.3,0.1l-0.1,0c0,0-0.1,0-0.1,0l0,0l-0.2,0c-0.2,0-0.5,0-0.7,0c-0.5-0.1-1-0.3-1.3-0.7c-0.4-0.4-0.6-0.8-0.8-1.2
				c-0.4-0.8-0.6-1.6-0.9-2.3c-0.3-0.7-0.8-1.3-1.3-1.6c-0.6-0.2-1.5-0.2-2.3-0.3c-0.8-0.1-1.6-0.1-2.5-0.1
				c-1.6-0.1-3.3-0.1-4.9-0.2c-3.3-0.1-6.6-0.1-9.9-0.1l-19.8,0l-19.8,0l-4.9,0c-1.6,0-3.3,0.1-4.8,0.4c-0.4,0.1-0.8,0.2-1.1,0.3
				c-0.2,0.1-0.4,0.2-0.6,0.2c-0.2,0.1-0.3,0.2-0.5,0.3c-0.7,0.4-1.3,0.9-1.8,1.4c-1,1.1-1.7,2.6-1.4,4.1l0,0.2l-0.2,0.2
				c-0.6,0.7-1.6,0.9-2.4,0.8c-0.8-0.1-1.5-0.5-2.2-1c-1.1-1.1-1.8-2.3-2.6-3.5c-0.7-1.2-1.5-2.5-2.3-3.6c-0.8-1.1-1.8-2.1-3-2.8
				c-0.6-0.3-1.2-0.5-1.9-0.7c-0.3-0.1-0.7-0.1-1.1-0.1c-0.3,0-0.7,0-1,0.1c-1.3,0.2-2.6,0.8-3.9,1.4c-2.5,1.3-4.7,3.1-6.7,5.1
				c-4,4.1-6.8,9.2-8.5,14.6C118.5,571.7,117.7,577.4,117.3,583.1z"/>
		</g>
		<path class="st28" d="M52,236.2c-13.6,2.7-27.2,17.7-27.7,31.6s6.4,27.2,16,37.1c5.4,5.5,12.4,10.5,20.1,9.8"/>
		<path class="st28" d="M59,234.2c5.6-2.1,13-3.2,18.9-1.9c1.7,0.4,3.4,0.9,5.1,1.5c10.5,4,19.1,12.7,23,23.2
			c3.8,10.6,2.8,22.8-2.7,32.6c-5.6,9.9-13.3,18-23.8,22.5c-2.9,1.2-6.2,2.2-9.1,1"/>
		<path class="st29" d="M47.6,244.9c1.3,4.6,7.2,6.1,12,6.2c2.2,0.1,4.6,0,6.5-1.1c2.8-1.6,4.1-5.4,2.9-8.4"/>
		<path class="st28" d="M54.7,249.9c1.3-4.5-1.9-16.1-4.8-19.9c-2.8-3.8-12.1-14.9-36.6-27.1c-2.6-1.3-5.7-1.3-7-3.9
			s-1.9-6.3,0.5-7.9c4-2.7,11.3,8.2,15.3,10.9c20.4,13.8,40.4,28.6,42.9,47.9"/>
		<path class="st28" d="M70.4,326.2c40,1.7,224.7-3.3,251.9,3.6"/>
	</g>
</g>
<g id="Layer_9" class="st0">
	<path class="st30" d="M295.2,436.6c-24.4,1.3-49.5,2-73.9,2.7c-8.6,0.3-17.2,0.5-25.9,0.8c-27.6,0.9-86.4-3.2-91.2-2.2
		c1.7,8.5,4.6,16.8,9.3,23.7c8.8,13.1,20.6,24.6,31.3,36.2c2.2,2.4,4.5,4.9,7.2,6.7c3.2,2.2,7,3.5,10.8,4.5c7,1.9,14.1,2.9,21.3,3
		c16.3,0.3,34.7,3.7,50.6-1c5.5-1.6,10.9-3.4,15.2-7.5c4.7-4.5,19.2-18.8,21.9-21.3c6.3-6,11-13.4,15.5-20.9
		c4.4-7.3,7.2-16,8.3-24.8C295.4,436.6,295.3,436.6,295.2,436.6z"/>
	<path class="st31" d="M271.2,243.2c1.8,45,4.3,57.8,12.9,104.2c6.4,34.9,33.2,86.1,0.9,128.7c-10.2,13.5-27.4,21.5-33.9,38.2
		c-4.7,12.2-0.1,22.5,6.1,33.2c6.2,10.7,11.6,19.4,13.8,31.9c0.2,1.3,0.5,2.7,0.3,4c-0.3,2.7-2,5-4.1,6.7c-3.6,2.7-9.2,4.9-13.7,5.5
		c-6.6,0.8-13.2,1.9-19.9,2.3c-12,0.7-76.4,0.5-95.7-5.6c-2.1-0.7-4.2-1.4-5.7-3c-2.7-2.8-1-11.7-0.3-15.2
		c2.2-10.9,8.8-20.4,13.7-30.4c5-10,8.4-21.9,4.2-32.2c-2-4.9-5.6-8.9-9.4-12.6c-8.6-8.3-18.7-15.2-26.1-24.6
		c-10.8-13.7-15-31.7-15.1-49.1c-0.1-30,10.3-59.2,16.1-88.4c6.2-31.2,11.7-62.6,14.3-94.3C160.2,239.9,255.5,238.2,271.2,243.2z"/>
	<g class="st1">
		<path d="M135.3,247.9l-0.4,6l-0.5,6l-0.6,6l-0.7,6l-0.7,6l-0.8,6l-0.9,6l-1,5.9l-1,5.9l-1.1,5.9l-1.2,5.9l-1.3,5.9l-1.3,5.9
			l-1.4,5.9l-1.5,5.8l-1.6,5.8l-0.6-0.2l0.6-2.8l0.6,0.2c-1.6,5.6-2.5,11.4-3.9,17.1c-1.6,5.7-3.2,11.3-4.7,17
			c-3,11.3-5.7,22.8-6.8,34.4c-1.2,11.6-0.8,23.5,2,34.8c1.4,5.7,3.4,11.2,6.2,16.3c1.4,2.6,3.1,4.9,4.8,7.3
			c1.7,2.4,3.5,4.7,5.4,6.9c7.4,9,15.7,17.4,23.7,26c2,2.1,4,4.3,6.3,6c2.3,1.7,5,2.9,7.7,3.8c5.5,1.8,11.3,2.9,17.1,3.5
			c2.9,0.3,5.8,0.4,8.7,0.5c2.9,0.1,5.9,0.2,8.8,0.4c5.9,0.4,11.7,0.8,17.5,1c5.8,0.2,11.7-0.1,17.4-1.1l2.1-0.4
			c0.7-0.1,1.4-0.4,2.1-0.5c1.5-0.3,2.7-0.9,3.9-1.6c2.5-1.5,4.9-3.2,7.2-4.9c4.7-3.5,9.2-7.2,13.7-11l6.7-5.7
			c2.2-1.9,4.5-3.7,6.6-5.7c4.2-4,7.7-8.7,10.9-13.6c3.1-4.9,6.4-9.8,8.5-15.3c2.2-5.4,3.6-11.1,4.3-16.9c0.3-2.9,0.5-5.8,0.5-8.7
			c0-2.9-0.4-5.8-0.6-8.7c-1.2-11.7-3.2-23.2-6.1-34.6c-1.5-5.7-3.2-11.3-4.7-16.9c-1.6-5.7-3.1-11.3-4.4-17.1
			c-1.3-5.7-2.4-11.5-3.2-17.3l-2.7-17.4c-1.8-11.6-3.5-23.2-4.8-34.9c-1.3-11.7-2.2-23.4-2.3-35.1c0.2,11.7,1.2,23.4,2.6,35.1
			c1.4,11.6,3.2,23.2,5.1,34.8l2.8,17.4c0.9,5.8,1.9,11.6,3.3,17.3c1.3,5.7,2.8,11.4,4.4,17c1.6,5.7,3.3,11.3,4.8,16.9
			c3,11.4,5.1,23,6.2,34.7c0.3,2.9,0.6,5.8,0.7,8.8c0.1,3-0.1,5.9-0.5,8.8c-0.7,5.9-2.2,11.6-4.4,17.1c-2.1,5.5-5.4,10.5-8.5,15.5
			c-3.2,4.9-6.8,9.7-11,13.8c-2.1,2.1-4.4,3.9-6.7,5.8l-6.7,5.7c-4.5,3.8-9,7.5-13.7,11.1c-2.4,1.8-4.7,3.5-7.3,5
			c-0.6,0.4-1.4,0.8-2,1c-0.4,0.1-0.6,0.3-1.1,0.4l-1.1,0.3c-0.7,0.2-1.4,0.4-2.2,0.5l-2.2,0.4c-5.8,1-11.8,1.3-17.7,1.1
			c-5.9-0.1-11.8-0.6-17.6-1c-2.9-0.2-5.8-0.4-8.8-0.4c-2.9-0.1-5.9-0.2-8.8-0.5c-5.9-0.6-11.7-1.8-17.3-3.6c-2.8-0.9-5.6-2.2-8-4
			c-2.4-1.8-4.5-4-6.4-6.1c-7.9-8.6-16.2-17-23.7-26.1c-1.9-2.3-3.7-4.6-5.4-7c-1.7-2.4-3.4-4.8-4.8-7.4c-2.9-5.2-4.8-10.8-6.2-16.5
			c-2.7-11.5-3.1-23.4-1.9-35.1c1.2-11.7,3.8-23.2,6.9-34.5c1.5-5.7,3.2-11.3,4.8-16.9c1.5-5.7,2.3-11.5,4-17.2l0.6,0.2l-0.6,2.8
			l-0.6-0.2l1.6-5.8l1.5-5.8l1.4-5.8l1.4-5.9l1.3-5.9l1.2-5.9l1.2-5.9l1.1-5.9l1-5.9l0.9-5.9l0.8-6l0.8-6l0.7-6l0.6-6l0.5-6
			L135.3,247.9z"/>
	</g>
	<path class="st32" d="M104.9,440c1.9-1.3,63.2,3,91.5,2.1c8.6-0.3,17.2-0.5,25.9-0.8c24.4-0.8,49.5-1.4,73.9-2.7"/>
	<g class="st1">
		<path d="M150,580.2c0,0,1.5,0.4,4.3,1c1.3,0.3,3,0.7,4.9,1.1c0.9,0.2,2,0.4,3,0.6c1.1,0.2,2.2,0.4,3.4,0.6
			c1.2,0.2,2.4,0.4,3.7,0.6c1.3,0.2,2.6,0.4,3.9,0.6c1.3,0.2,2.7,0.4,4.2,0.5c1.4,0.2,2.9,0.3,4.3,0.5c3,0.2,6,0.6,9.1,0.7
			c3.1,0.2,6.3,0.2,9.4,0.3c3.2,0,6.3,0,9.5-0.2c3.1-0.1,6.2-0.3,9.1-0.6c1.5-0.1,2.9-0.3,4.4-0.4c1.4-0.1,2.8-0.3,4.2-0.5
			c1.4-0.2,2.7-0.3,3.9-0.5c1.3-0.2,2.5-0.4,3.7-0.6c1.2-0.2,2.3-0.4,3.4-0.6c1.1-0.2,2.1-0.4,3-0.6c1.9-0.4,3.6-0.7,4.9-1
			c2.7-0.6,4.3-0.9,4.3-0.9s-1.5,0.4-4.2,1.2c-1.3,0.4-3,0.8-4.9,1.2c-0.9,0.2-1.9,0.5-3,0.7c-1.1,0.2-2.2,0.4-3.4,0.7
			c-1.2,0.2-2.4,0.5-3.7,0.7c-1.3,0.2-2.6,0.4-3.9,0.6c-1.3,0.2-2.7,0.4-4.2,0.6c-1.4,0.2-2.9,0.4-4.4,0.5c-3,0.2-6.1,0.5-9.2,0.6
			c-3.1,0.2-6.3,0.2-9.5,0.2c-3.2-0.1-6.4-0.1-9.5-0.4c-3.1-0.1-6.2-0.5-9.2-0.8c-1.5-0.2-2.9-0.4-4.4-0.6c-1.4-0.2-2.8-0.4-4.2-0.6
			c-1.3-0.2-2.7-0.5-3.9-0.7c-1.3-0.2-2.5-0.5-3.7-0.7c-1.2-0.2-2.3-0.5-3.4-0.7c-1.1-0.3-2.1-0.5-3-0.7c-1.9-0.5-3.5-0.9-4.9-1.3
			C151.5,580.6,150,580.2,150,580.2z"/>
	</g>
	<g class="st1">
		<path d="M164.5,517.9c0,0,1.1,0.2,3,0.6c1,0.2,2.1,0.4,3.5,0.6c1.4,0.2,2.9,0.5,4.6,0.7c1.7,0.3,3.5,0.5,5.4,0.7
			c1.9,0.2,4,0.4,6,0.6c2.1,0.1,4.3,0.3,6.5,0.4c2.2,0.1,4.5,0.1,6.7,0.1c2.2,0,4.5,0,6.7-0.1c2.2,0,4.4-0.2,6.5-0.3
			c2.1-0.2,4.1-0.3,6-0.5c1.9-0.2,3.7-0.4,5.4-0.7c1.7-0.2,3.2-0.5,4.6-0.7c1.4-0.2,2.5-0.4,3.5-0.6c1.9-0.3,3.1-0.5,3.1-0.5
			s-1.1,0.3-3,0.8c-1,0.3-2.1,0.5-3.5,0.8c-0.7,0.1-1.4,0.3-2.1,0.5c-0.8,0.2-1.6,0.3-2.4,0.4c-1.7,0.3-3.5,0.6-5.4,0.9
			c-1.9,0.3-4,0.5-6.1,0.7c-2.1,0.2-4.3,0.4-6.5,0.4c-2.2,0.1-4.5,0.1-6.8,0.2c-2.3-0.1-4.5-0.1-6.7-0.2c-2.2-0.1-4.4-0.3-6.5-0.5
			c-2.1-0.2-4.1-0.4-6.1-0.8c-1.9-0.3-3.7-0.6-5.4-0.9c-0.8-0.2-1.6-0.3-2.4-0.4c-0.8-0.2-1.5-0.3-2.1-0.5c-1.3-0.3-2.5-0.6-3.5-0.8
			C165.6,518.2,164.5,517.9,164.5,517.9z"/>
	</g>
	<g class="st1">
		<path d="M166.8,549.2c0,0,1-0.3,2.8-0.9c0.9-0.3,2-0.6,3.2-1c0.6-0.2,1.3-0.4,2-0.6c0.7-0.2,1.5-0.3,2.2-0.5c1.6-0.4,3.2-0.7,5-1
			c1.8-0.4,3.7-0.6,5.7-0.9c2-0.2,4-0.4,6.1-0.6c2.1-0.2,4.2-0.2,6.4-0.3c2.1,0,4.3,0,6.4,0.2c2.1,0.1,4.1,0.3,6.1,0.5
			c2,0.2,3.9,0.5,5.7,0.8c1.8,0.3,3.5,0.6,5.1,1c0.8,0.2,1.5,0.3,2.2,0.5c0.7,0.2,1.4,0.4,2,0.5c1.3,0.3,2.3,0.6,3.2,0.9
			c1.8,0.6,2.8,0.9,2.8,0.9s-1-0.2-2.8-0.7c-0.9-0.2-2-0.5-3.3-0.7c-1.3-0.3-2.7-0.5-4.3-0.8c-1.6-0.3-3.3-0.5-5.1-0.8
			c-0.9-0.1-1.8-0.2-2.8-0.3c-0.9-0.1-1.9-0.2-2.9-0.3c-2-0.1-4-0.3-6.1-0.4c-2.1-0.1-4.2-0.1-6.3-0.1c-2.1,0-4.2,0-6.3,0.2
			c-2.1,0.1-4.1,0.3-6.1,0.5c-2,0.3-3.9,0.4-5.7,0.7c-1.8,0.3-3.5,0.5-5,0.8c-1.6,0.3-3,0.6-4.2,0.8c-1.3,0.3-2.4,0.5-3.3,0.7
			C167.8,548.9,166.8,549.2,166.8,549.2z"/>
	</g>
</g>
<g id="rhum" class="st0">
	<linearGradient id="SVGID_4_" gradientUnits="userSpaceOnUse" x1="202.624" y1="544.4257" x2="202.624" y2="444.6724">
		<stop  offset="0" style="stop-color:#550E00"/>
		<stop  offset="1" style="stop-color:#CD4126"/>
	</linearGradient>
	<path class="st33" d="M341.2,444.7c-8,0.2-16.1,0.4-24.1,0.6c-30.8,0.8-61.5,1.6-92.3,2.3c-53.5,1.4-107.1,2.7-160.4-2.1
		c-0.5,0-0.9-0.1-1.4,0c0.1,19.4,0.5,38.8,1.4,58.2c0.5,11.4,5.2,24.6,15,30.3c9.4,5.5,62.1,7.8,77.2,8.6
		c25.2,1.3,50.3-0.1,75.5,0.4c18.9,0.4,37.9,1.3,56.8,1.5c15.5,0.2,31-0.9,41.4-14c8.6-10.8,11.2-58.6,12-85.1
		C341.9,445,341.6,444.9,341.2,444.7z"/>
	<path class="st34" d="M336,307.9c1.1,0.2,1.4,1.6,1.5,2.7c2.1,44.5,8.4,88.2,8,132.7c-0.2,22.9-3,45.6-4.8,68.5
		c-2.7,36.3-11.2,59.4-13.1,63.6c-3,6.7-9.6,12.8-15.1,17.6c-2.2,1.9-10.7,5.3-27.7,6.5c-19.6,1.4-154.6-1-171.2-1.2
		c-18.4-0.1-36.2-11.8-43.7-28.6c-4.4-9.8-5.3-20.8-7.4-31.2c-2.9-14.5-5-29.1-6.1-43.8c-4.5-62.2-1.4-124.9,9.4-186.3
		c0.1-0.6,0.7-1.1,1.3-1.1C125.4,306,334.9,307.7,336,307.9z"/>
	<g class="st1">
		<path d="M68.5,312.8c0,0-0.3,2.7-0.9,7.9c-0.3,2.6-0.7,5.7-1,9.5c-0.4,3.7-0.8,8-1.2,12.8c-1.8,19.2-3.6,46.7-4.2,79.8
			c-0.3,16.5-0.2,34.4,0.2,53.4c0.2,9.5,0.6,19.2,1,29.1c0.1,5,0.9,9.9,2.5,14.7c1.6,4.8,4.1,9.3,7.6,13l1.4,1.3l1.5,1.2
			c1.1,0.7,2.1,1.5,3.3,1.9c2.3,0.9,4.9,1.5,7.5,2c5.1,1,10.4,1.6,15.7,2.2c10.6,1.1,21.3,1.9,32.1,2.5c5.4,0.3,10.9,0.6,16.3,0.9
			c5.5,0.3,10.9,0.5,16.4,0.6c11,0.2,22,0.1,33-0.1c11-0.1,22.1-0.2,33,0.1c11,0.3,21.9,0.7,32.8,1c5.4,0.2,10.8,0.3,16.2,0.4
			c5.4,0.1,10.7,0.2,16-0.2c5.3-0.4,10.5-1.2,15.4-3c1.2-0.4,2.4-1,3.6-1.5l1.7-0.9c0.3-0.2,0.6-0.3,0.8-0.5l0.8-0.5
			c2.2-1.4,4.1-3.1,5.9-4.9l1.3-1.4l0.6-0.7l0.5-0.8c0.2-0.3,0.4-0.5,0.5-0.8l0.4-0.8l0.4-0.8l0.4-0.9c1-2.3,1.7-4.8,2.4-7.2
			c1.3-4.9,2.1-9.8,2.9-14.8c1.4-9.8,2.3-19.5,3-29c0.7-9.4,1.1-18.6,1.4-27.6c0.3-8.9,0.5-17.5,0.4-25.8c0-16.5-0.5-31.7-1.2-45.1
			c-0.7-13.4-1.7-25.1-2.8-34.7c-1-9.6-2-17.1-2.7-22.2c-0.7-5.1-1.1-7.8-1.1-7.8s0.4,2.7,1.2,7.8c0.7,5.1,1.8,12.6,2.9,22.2
			c1.1,9.6,2.2,21.3,3,34.7c0.4,6.7,0.7,13.9,1,21.4c0.2,7.5,0.4,15.5,0.4,23.7c0.1,8.3-0.1,16.9-0.4,25.8
			c-0.3,8.9-0.7,18.1-1.3,27.6c-0.7,9.5-1.5,19.2-2.9,29c-0.7,4.9-1.6,9.9-2.9,14.8c-0.7,2.5-1.4,4.9-2.4,7.3l-0.4,0.9l-0.5,0.9
			l-0.5,0.9c-0.2,0.3-0.4,0.5-0.5,0.8l-0.5,0.8c-0.2,0.3-0.4,0.5-0.7,0.8l-1.3,1.5c-3.6,3.8-8.1,6.9-13.1,8.7
			c-5,1.9-10.3,2.7-15.6,3.1c-5.3,0.4-10.7,0.3-16.1,0.2c-5.4-0.1-10.8-0.2-16.2-0.4c-10.8-0.3-21.8-0.7-32.8-0.9
			c-11-0.3-22-0.1-33,0c-11,0.1-22.1,0.3-33,0c-5.5-0.1-11-0.4-16.4-0.7c-5.5-0.3-10.9-0.6-16.3-0.9c-10.8-0.7-21.6-1.4-32.2-2.6
			c-5.3-0.6-10.5-1.3-15.7-2.3c-2.6-0.5-5.1-1.1-7.7-2.1c-1.2-0.5-2.4-1.3-3.4-2l-1.5-1.2l-1.4-1.4c-3.6-3.8-6.1-8.5-7.8-13.3
			c-1.6-4.8-2.4-9.9-2.5-14.9c-0.4-9.9-0.7-19.7-0.9-29.1c-0.4-18.9-0.4-36.9-0.1-53.4c0.3-16.5,1-31.7,1.8-45.1
			c0.8-13.4,1.8-25.1,2.7-34.7c0.4-4.8,0.9-9.1,1.3-12.8c0.4-3.7,0.8-6.9,1.1-9.5C68.1,315.5,68.5,312.8,68.5,312.8z"/>
	</g>
	<path class="st35" d="M62,448.6c53.3,4.8,106.9,3.4,160.4,2.1c30.8-0.8,61.5-1.6,92.3-2.3c8-0.2,16.1-0.4,24.1-0.6"/>
	<path class="st35" d="M293.1,528.6c6.2-8.1,5.9-29.2,4.1-38.8c-3.2-16.4-6.4-32.8-9.7-49.2c-0.7-3.5-1.5-7.2-3.8-10
		c-4.1-4.8-11.5-5-17.8-4.6c-14.2,0.9-28.4,2.3-42.4,4.4c-12.6,1.8-22.4,8.6-33,15.5c-3.3,2.2-6.8,4.7-8.2,8.5
		c-1,2.7-0.6,5.7-0.3,8.5c1.8,15.6,3.6,31.2,7.5,46.4c2.2,8.8,5.5,17.9,12.6,23.6c9,7.3,21.8,7.1,33.4,6.6
		c15.3-0.7,30.5-1.4,45.8-2.1c3-0.1,6.3-0.4,8.6-2.3C291.6,533.4,292.5,531,293.1,528.6z"/>
	<g class="st1">
		<path d="M217.5,435.3c0,0,0.2,0.4,0.6,1.1c0.4,0.7,1,1.7,1.6,3.1c0.3,0.7,0.7,1.4,1.1,2.2c0.4,0.8,0.8,1.7,1.2,2.7
			c0.8,1.9,1.7,4.1,2.5,6.6c1.7,4.9,3.4,10.7,5.1,16.9c0.9,3.1,1.8,6.3,2.8,9.5c1,3.2,2,6.5,3.9,9.3c0.9,1.4,2,2.6,3.4,3.5
			c1.3,0.9,3,1.3,4.6,1.4c1.6,0.2,3.3,0.2,5,0.2c1.7,0,3.3,0.1,4.9,0.1c6.4,0,12.4,0,17.6-0.3c5.1-0.2,9.4-0.5,12.4-0.8
			c3-0.3,4.7-0.4,4.7-0.4s-0.4,0.1-1.2,0.2c-0.8,0.1-2,0.3-3.5,0.4c-3,0.3-7.3,0.8-12.4,1.2c-5.1,0.3-11.2,0.6-17.6,0.6
			c-1.6,0-3.3,0-4.9,0c-1.7,0-3.3,0-5.1-0.2c-1.7-0.2-3.5-0.6-5.1-1.6c-1.6-0.9-2.8-2.3-3.8-3.8c-1.9-3-2.9-6.4-3.9-9.6
			c-1-3.2-1.9-6.4-2.8-9.6c-0.8-3.1-1.7-6.1-2.4-9c-0.8-2.8-1.6-5.5-2.4-8c-0.8-2.4-1.6-4.7-2.3-6.6c-0.4-1-0.7-1.9-1.1-2.7
			c-0.3-0.8-0.7-1.6-1-2.3c-0.6-1.4-1.1-2.4-1.5-3.1C217.7,435.7,217.5,435.3,217.5,435.3z"/>
	</g>
	<g class="st1">
		<path d="M238.1,491.3c0,0,0.2,0,0.5,0.3c0.3,0.3,0.3,0.9,0.1,1.6c-0.1,0.3-0.3,0.7-0.5,1.1c-0.2,0.3-0.5,0.7-0.8,1.1
			c-0.6,0.8-1.2,1.7-1.9,2.6c-1.4,1.9-3,4.1-4.8,6.5c-1.8,2.4-3.7,4.9-5.6,7.4c-1.9,2.5-3.9,5-5.7,7.3c-1.8,2.3-3.6,4.4-5.1,6.3
			c-1.5,1.8-2.8,3.3-3.7,4.4c-0.9,1-1.4,1.6-1.4,1.6s0.5-0.6,1.2-1.8c0.8-1.1,1.9-2.7,3.3-4.6c1.4-1.9,3-4.1,4.8-6.5
			c1.8-2.4,3.7-4.9,5.6-7.4c1.9-2.5,3.9-5,5.7-7.3c1.8-2.3,3.6-4.4,5.1-6.3c0.7-0.9,1.4-1.7,2.1-2.5c0.6-0.7,1.2-1.3,1.4-2
			c0.2-0.6,0.3-1.2,0.1-1.5C238.3,491.3,238.1,491.3,238.1,491.3z"/>
	</g>
</g>
<g id="cachaca" class="st0">
	<linearGradient id="SVGID_5_" gradientUnits="userSpaceOnUse" x1="70.4399" y1="422.1823" x2="326.8179" y2="422.1823">
		<stop  offset="0" style="stop-color:#FFFFFF"/>
		<stop  offset="1" style="stop-color:#F1FFDE"/>
	</linearGradient>
	<path class="st36" d="M326.7,327c-56-6.5-109.8,1.1-166.2,2.4c-29.8,0.7-60.1-0.9-89.8-2.4c-0.1,0-0.2,0-0.2,0
		c16.7,37.4,33.4,74.9,50.2,112.3c8.1,18.1,15.1,35.5,22.3,53.9c1.5,3.7,2.9,7.5,5.2,10.8c8.1,11.6,24,14.1,38,15.4
		c-0.3,1,1.4,0.2,2.5,0.2c19.4,0.8,36.6-0.1,53.8-9.5c14.2-7.7,64-134.4,84.3-183.1C326.8,327,326.7,327,326.7,327z"/>
	<path class="st10" d="M335.1,311.5c1.5,0,2.6,1.4,2.2,2.8c-3,12-8.3,23.4-13.5,34.6c-11.7,25.2-21.6,51.1-33.3,76.3
		c-5.7,12.4-10.5,24.9-17.2,37c-1.9,3.4-1.9,5-3.6,8.5c-6.5,13.6-13.1,28-11.6,43c0.9,8.5,4.2,17.2,7.5,25c3.4,8.1,9.3,15.2,10.7,24
		c0.2,1.2,0.2,2.4,0.2,3.5c-0.5,13.2-5.7,18-15.8,25c-4.3,2.9-15.9,3.3-21.3,4.2c-7.9,1.3-15.8,2.1-23.8,2.6
		c-14.6,1-29.2,1.1-43.8,1.6c-10.3,0.4-26.3-2.9-35.5-7.4c-3.9-1.9-7.8-4.1-10.9-7.1c-15.4-14.8-3.5-31.5,3.3-46.9
		c4.4-9.9,6.2-20.8,5.4-31.6c-2-27.3-19.9-52.8-28.6-77.6c-7.2-20.8-16.1-40.9-25.9-60.6C71.4,351.9,65,335,57,318.6
		c-0.7-1.5,0.3-3.2,2-3.3C97.9,314.3,306.2,311.5,335.1,311.5z"/>
	<g class="st1">
		<path d="M63.2,318.3L88.8,375l25.4,56.7c4.2,9.5,8.5,18.9,12.5,28.5c4,9.5,7.9,19.1,11.8,28.8l2.9,7.2c0.9,2.4,1.9,4.8,3.1,7.1
			c0.6,1.1,1.2,2.2,1.9,3.3c0.3,0.5,0.8,1,1.2,1.5l0.6,0.8c0.2,0.2,0.4,0.5,0.7,0.7c1.7,1.9,3.8,3.5,5.9,4.8
			c2.2,1.4,4.5,2.4,6.9,3.3c2.4,0.9,4.9,1.6,7.4,2.1c5,1.1,10.2,1.7,15.3,2.2l0.5,0l0,0.6c0,0,0,0.1,0,0.1c0,0-0.1-0.2-0.1-0.2
			c-0.1,0,0.1,0,0.2,0c0.3,0,0.6-0.1,1-0.2c0.2,0,0.4-0.1,0.6-0.1c0.2,0,0.4,0,0.6,0l1,0c1.4,0.1,2.8,0.1,4.2,0.1
			c2.8,0.1,5.6,0.1,8.4,0c5.6-0.1,11.1-0.6,16.6-1.6c5.5-1,10.9-2.5,16-4.6c1.3-0.5,2.5-1.1,3.8-1.7l1.9-0.9c0.6-0.3,1.3-0.6,1.8-1
			c1.1-0.7,2-1.8,2.9-2.8c0.9-1.1,1.7-2.2,2.5-3.4c3.1-4.6,5.8-9.5,8.4-14.5c2.6-4.9,5.1-10,7.5-15c4.8-10.1,9.4-20.3,14-30.5
			c9-20.5,17.7-41.1,26.2-61.8l12.9-31c4.3-10.3,8.6-20.7,13-31c-4.4,10.3-8.5,20.7-12.8,31.1l-12.6,31.1
			c-8.5,20.7-17.1,41.4-26.1,61.9c-4.5,10.3-9.1,20.5-13.9,30.6c-2.4,5.1-4.9,10.1-7.5,15c-2.6,5-5.3,9.9-8.4,14.6
			c-0.8,1.2-1.6,2.3-2.5,3.4c-0.9,1.1-1.9,2.2-3.1,3c-0.6,0.4-1.3,0.7-1.9,1l-1.9,1c-1.3,0.6-2.5,1.2-3.9,1.7
			c-5.2,2.2-10.6,3.7-16.2,4.7c-5.5,1-11.2,1.5-16.8,1.6c-2.8,0.1-5.6,0.1-8.4,0c-1.4,0-2.8-0.1-4.2-0.1l-1,0c-0.2,0-0.3,0-0.5,0
			c-0.1,0-0.3,0-0.5,0.1c-0.3,0.1-0.7,0.1-1.1,0.2c-0.2,0-0.4,0.1-0.8-0.1c-0.1-0.1-0.2-0.1-0.3-0.3c-0.1-0.1-0.1-0.2-0.1-0.3
			c0-0.2,0-0.3,0-0.5l0.4,0.6c-5.2-0.5-10.3-1.1-15.4-2.3c-2.5-0.6-5.1-1.3-7.5-2.2c-2.4-0.9-4.8-2-7.1-3.4c-2.2-1.4-4.3-3-6.1-5
			c-0.2-0.2-0.5-0.5-0.7-0.7l-0.6-0.8c-0.4-0.5-0.8-1-1.2-1.6c-0.7-1.1-1.4-2.2-2-3.4c-1.2-2.3-2.1-4.8-3.1-7.2l-2.8-7.2
			c-3.8-9.6-7.7-19.2-11.7-28.8c-4-9.6-8.2-19-12.4-28.5l-25.3-56.8L63.2,318.3z"/>
	</g>
	<g class="st1">
		<path d="M139.1,542.2c0,0-0.1,0.1-0.3,0.3c-0.2,0.2-0.4,0.5-0.7,1c-0.5,0.9-1.1,2.4-0.9,4.3c0.1,1.9,0.8,4.2,2.4,6.3
			c1.6,2.1,4.3,3.7,7.4,4.7c3.1,1,6.7,1.4,10.5,1.7c1.9,0.2,3.8,0.3,5.8,0.4c2,0.1,4,0.2,6.1,0.3c4.1,0.2,8.4,0.2,12.7,0.1
			c4.3,0,8.7-0.2,13.2-0.4c4.4-0.2,8.8-0.5,13.1-0.8c4.3-0.3,8.6-0.7,12.7-1.1c4.1-0.4,8.1-0.7,11.9-1.1c3.8-0.3,7.3-0.6,10.6-1.4
			c3.2-0.7,6-1.9,8.1-3.6c2.1-1.6,3.5-3.6,4.3-5.3c0.8-1.7,1-3.3,1-4.3c0-0.5,0-0.9-0.1-1.2c0-0.3,0-0.4,0-0.4s0,0.1,0.1,0.4
			c0,0.3,0.1,0.7,0.1,1.2c0,1-0.1,2.6-0.9,4.4c-0.7,1.8-2.2,3.8-4.3,5.5c-2.1,1.7-5,3-8.2,3.8c-3.2,0.8-6.8,1.2-10.6,1.6
			c-3.8,0.4-7.8,0.8-11.9,1.2c-4.1,0.4-8.4,0.8-12.7,1.1c-4.3,0.4-8.7,0.6-13.2,0.9c-4.4,0.2-8.8,0.3-13.2,0.3
			c-4.4,0-8.6,0-12.8-0.2c-4.1-0.2-8.2-0.5-11.9-0.8c-3.8-0.3-7.4-0.8-10.6-1.9c-3.2-1-5.9-2.8-7.5-5c-1.6-2.2-2.3-4.6-2.3-6.5
			c-0.1-2,0.6-3.4,1.1-4.3c0.3-0.5,0.5-0.8,0.7-1C139,542.3,139.1,542.2,139.1,542.2z"/>
	</g>
	<path class="st37" d="M68.7,330c29.8,1.6,60,3.2,89.8,2.4c56.3-1.4,110.2-9,166.2-2.4"/>
	<path class="st12" d="M326.3,343.9c18.4,2.8,38.4-8.3,45.9-25.7c14.4-33.9-18.3-71.7-53.7-59.8c-8.4,2.8-15.6,8.4-21.7,14.8
		c-1.2,1.2-2.4,2.5-3.3,3.9c-5.1,7.3-6.5,18.8-5.1,27.3c2.7,16.8,15.8,31.8,31,38"/>
	<path class="st12" d="M330.5,335.3c4.1,2.1,9.1,2.3,13.3,0.6c5.8-2.4,10.2-8.4,12.4-14.4c5.5-1.7,10.9-6.4,11.4-13.7
		c0.3-5.1-0.3-16.4-3.8-20.3c-0.8-0.9-1.8-1.7-2.3-2.8c-0.6-1.3-0.5-2.7-0.6-4.1c-0.4-6.1-4.1-11.9-9.5-14.8
		c-5.4-2.9-12-1.8-17.3,1.2c-5.1-2.7-11.1-4-16.6-2.3c-5.5,1.7-10,6.9-9.9,12.6c-4,0-7.9,2-10.3,5.3s-3,7.6-1.7,11.4
		c0.4,1.2,1,2.5,1.1,3.8c0.1,0.9-0.2,1.9-0.4,2.8c-1.4,7.3,2.5,16.3,9.9,17.3c0.3,7.2,4.7,16.2,16.4,16.4"/>
	<g class="st1">
		<path d="M316.5,312.1c0,0,0.9-0.7,2.4-1.8c1.5-1,3.5-2.3,5.7-3.5c2.1-1.2,4.3-2.2,6-2.9c1.7-0.7,2.8-1.1,2.8-1.1s-1.1,0.5-2.7,1.2
			c-1.6,0.8-3.7,1.9-5.8,3.2c-2,1.3-4,2.6-5.4,3.7c-1.4,1.1-2.3,1.9-2.3,1.9L316.5,312.1z"/>
	</g>
	<g class="st1">
		<polygon points="313.9,283.6 329.3,299.1 313.2,284.3 		"/>
	</g>
	<g class="st1">
		<path d="M340.6,272.9c0,0-0.6,5.4-0.8,10.8c-0.3,5.4-0.3,10.9-0.3,10.9s-0.3-5.4-0.2-10.9c0-5.4,0.3-10.9,0.3-10.9L340.6,272.9z"
			/>
	</g>
	<g class="st1">
		<polygon points="360.2,289.3 346.2,302.2 359.5,288.6 		"/>
	</g>
	<g class="st1">
		<path d="M358.7,310c0,0-3.8-0.7-7.4-1.7c-3.7-1-7.3-2.2-7.3-2.2s3.7,1,7.4,1.8c3.7,0.8,7.5,1.2,7.5,1.2L358.7,310z"/>
	</g>
	<g class="st1">
		<path d="M338.8,327.3c0,0-0.3-1.3-0.7-3.2c-0.4-1.9-0.8-4.5-1-7.1c-0.3-2.6-0.4-5.2-0.4-7.1c0-1.9,0-3.2,0-3.2s0,1.3,0.2,3.2
			c0.1,1.9,0.4,4.5,0.8,7.1c0.4,2.5,0.9,5.1,1.4,6.9c0.5,1.9,0.8,3.1,0.8,3.1L338.8,327.3z"/>
	</g>
	<path class="st38" d="M269.6,382.6c-3-7.3-17.2-15.3-24.3-17.9c-12.2-4.3-24.5-8.5-36.7-12.7c-2.6-0.9-5.4-1.8-8.2-1.3
		c-4.9,0.9-7.8,5.7-10,10.1c-5,9.8-9.5,19.9-13.6,30.1c-3.7,9.1-3,18.3-2.5,28.1c0.2,3.1,0.5,6.4,2.5,8.8c1.4,1.7,3.6,2.6,5.6,3.5
		c11.1,4.9,22.3,9.8,33.9,13.1c6.8,1.9,14.1,3.3,20.7,0.8c8.4-3.2,13.3-11.8,17.4-19.8c5.5-10.5,11-20.9,16.5-31.4
		c1.1-2.1,2.2-4.3,1.8-6.6C272.2,385.5,270.9,384,269.6,382.6z"/>
	<g class="st1">
		<path d="M177.7,396.8c0,0,0.3,0,1,0c0.6,0,1.5,0,2.7,0.1c0.6,0,1.2,0.1,1.9,0.1c0.7,0.1,1.5,0.1,2.3,0.2c1.6,0.2,3.4,0.5,5.4,0.9
			c3.9,0.8,8.4,1.9,13.3,3.1c2.4,0.6,4.9,1.3,7.5,1.8c2.5,0.6,5.1,1.2,7.7,1c1.3-0.1,2.5-0.3,3.7-0.9c1.1-0.6,2-1.5,2.8-2.5
			c1.5-2.1,2.8-4.4,4.1-6.5c2.5-4.3,4.8-8.3,6.7-11.9c1.8-3.5,3.3-6.5,4.3-8.6c1-2.1,1.6-3.3,1.6-3.3s-0.5,1.2-1.4,3.4
			c-0.9,2.1-2.3,5.2-4,8.8c-1.8,3.6-3.9,7.7-6.4,12c-0.6,1.1-1.3,2.2-1.9,3.3c-0.7,1.1-1.3,2.2-2.1,3.3c-0.8,1.1-1.8,2.1-3,2.8
			c-1.2,0.7-2.6,1-4,1c-2.8,0.1-5.4-0.5-7.9-1.1c-2.6-0.6-5.1-1.2-7.5-1.9c-4.8-1.3-9.3-2.6-13.2-3.4c-1.9-0.4-3.7-0.8-5.3-1
			c-0.8-0.1-1.5-0.2-2.2-0.3c-0.7-0.1-1.3-0.2-1.9-0.2c-1.2-0.1-2.1-0.2-2.7-0.2C178,396.8,177.7,396.8,177.7,396.8z"/>
	</g>
	<g class="st1">
		<path d="M223.2,404.9c0,0,0.1-0.2,0.4-0.2c0.3-0.1,0.7,0.1,1.1,0.6c0.4,0.4,0.6,1,0.9,1.7c0.3,0.7,0.6,1.4,1,2.3
			c0.7,1.7,1.6,3.6,2.5,5.8c0.9,2.1,1.8,4.4,2.7,6.6c0.9,2.3,1.8,4.5,2.6,6.7c0.8,2.1,1.6,4.1,2.2,5.8c1.3,3.4,2,5.7,2,5.7
			s-1-2.2-2.5-5.6c-0.7-1.7-1.6-3.6-2.5-5.8c-0.9-2.1-1.8-4.4-2.7-6.6c-0.9-2.3-1.8-4.5-2.6-6.7c-0.8-2.1-1.6-4.1-2.2-5.8
			c-0.3-0.9-0.6-1.6-0.9-2.3c-0.3-0.7-0.4-1.3-0.8-1.7c-0.3-0.4-0.7-0.6-1-0.6C223.3,404.7,223.2,404.9,223.2,404.9z"/>
	</g>
	<path class="st39" d="M156.8,419.9c-1.6,13.4-4.1,26.8-7.4,40.1c-0.9,3.5-1.8,7.1-1.8,10.7c0,3.4,0.9,6.6,1.9,9.6
		c3.4,10.3,8.8,20.4,17.4,22.6c2.9,0.8,6,0.5,9.1,0.6c14.1,0.1,27.4,5.1,41.5,5.2c3.2,0,6.6-0.3,9.7-2.4c5.5-3.8,8.2-12.3,9.8-20
		c2.3-11.5,3.4-23.3,7-34.5c1.2-3.7,2.7-7.9,1.7-11.3c-1.1-3.6-4.5-4.5-7.4-5.7c-5.3-2.2-9.6-6.7-14.5-9.8c-8.1-5.2-17.8-6.6-27.4-4
		c-12.8,3.4-24.4-3.6-37-4.1c-0.5,0-1.1,0-1.6,0.4C157.3,417.5,156.5,419.3,156.8,419.9z"/>
	<g class="st1">
		<path d="M157.4,421.4c0,0,4.1,4.5,10.2,11.3c1.5,1.7,3.1,3.5,5,5.4c1.8,1.9,3.8,3.8,6,5.5c2.2,1.7,4.8,3.2,7.6,4.2
			c2.8,0.9,5.8,1.2,8.8,1.3c3,0,6-0.2,9-0.5c3-0.2,5.9-0.5,8.7-0.7c5.7-0.5,11-0.8,15.5-1.4c4.5-0.6,8.2-1.6,10.7-2.4
			c2.5-0.8,3.9-1.4,3.9-1.4s-1.4,0.6-3.9,1.5c-2.5,0.9-6.2,1.9-10.7,2.6c-4.5,0.7-9.8,1.2-15.5,1.6c-2.8,0.2-5.8,0.5-8.7,0.7
			c-3,0.2-6,0.5-9.1,0.5c-3,0-6.1-0.4-9-1.3c-2.9-0.9-5.5-2.5-7.7-4.3c-2.3-1.8-4.2-3.7-6-5.6c-1.8-1.9-3.4-3.8-4.9-5.5
			C161.3,426,157.4,421.4,157.4,421.4z"/>
	</g>
	<g class="st1">
		<path d="M183.6,448.4c0,0-1.1,2.9-2.7,7.4c-0.8,2.2-1.7,4.8-2.6,7.6c-0.9,2.8-1.9,5.8-2.8,8.8c-0.9,3-1.8,6-2.6,8.9
			c-0.8,2.8-1.5,5.5-2.1,7.8c-1.2,4.6-1.9,7.6-1.9,7.6s0.1-0.8,0.4-2.1c0.3-1.4,0.6-3.3,1.2-5.6c0.5-2.3,1.1-5,1.9-7.8
			c0.8-2.9,1.6-5.9,2.5-8.9c0.9-3,1.9-6,2.9-8.8c1-2.8,1.9-5.4,2.8-7.6c0.8-2.2,1.6-4,2.2-5.3C183.3,449.1,183.6,448.4,183.6,448.4z
			"/>
	</g>
</g>
<g id="vinho_licoroso">
	<g>
		<path class="st40" d="M279.6,156.9c-20.1-1.7-40.3-3.3-60.5-2.3c-9.5,0.5-19,1.6-28.5,2.1c-8,0.5-16.1,0.6-24.1,0.8
			c-13.3,0.3-26.7,0.5-40,0.8c-0.4,0-0.8,0-1.2,0.1c2.5,12.6,4.3,25.4,5.3,38.2c0.9,11.8,1.4,22.9,1.2,34.8
			c-0.2,9.3,0.5,8.6,1.3,17.8c1.4,16,3.4,32.1,8.6,46.9c5.2,14.8,14.1,28.4,26.3,35.4c4.9,2.8,10,3.4,15.4,4
			c13.6,1.4,26.2,1.9,39.7-0.9c6.9-1.4,13.7-3.5,19.8-7.4c13-8.6,22.6-28.6,24.6-45.7c2.5-21.1,0.4-32.6,2.6-53.5
			c2.1-20.4,2.9-41.6,7.6-61.3c0.8-3.2,1.6-6.4,2.4-9.7C280,156.9,279.8,156.9,279.6,156.9z"/>
		<path class="st41" d="M300.6,104.3c-6.2,19.5-14.8,39.8-18.1,60.2c-3.5,21.7-7.4,42.6-8.2,64.8c-0.9,24.3-0.8,39.1-5,63.1
			c-2.5,14.2-8.7,28.3-17.5,38.5c-4.8,5.6-10.7,9.8-17.1,12.3c-4.3,1.7-12.3,1.1-15.8,4.7c1.5,4.8,1.3,10.4-0.6,15.1
			c-2,4.9-3,8-2.1,13.4c0.5,3.2,2.1,6.5,1.9,9.9c-0.2,3.8-2.2,6.7-1.8,10.9c2.3-1.1,4.7-0.8,6.9,0.6c1.4,0.9,2.6,2.5,2.7,4.4
			c0.2,6-5.5,5.7-8.2,8.5c-3.9,4.2,0.4,11.8,2.1,15.6c4.7,10.4,4.8,20.5,2.2,31.8c-2.5,10.9-5.4,31.8-8.6,42.5
			c-3.9,13.1-4.9,25.4,0,38.5c3.6,9.7,9.2,12.6,17.1,16.8c12.7,6.7,25.6,13.1,39.1,17.3c7.6,2.4,15.5,4.1,22.7,8.1
			c-0.3,2.9-0.3,5.9,0.1,8.9c-25.6,5.7-51.8,7.4-77.8,9.5c-14.1,1.1-28.5-0.8-42.6-1.7c-23.4-1.4-46.7-3.2-69.2-9.9
			c-0.5-5-2.8-7.5,0.8-9.6c2.7-1.6,8.6-0.7,11.7-1.1c7.5-1,14.9-2.6,22.1-4.8c14.2-4.2,28.1-10.5,41-18.8c2.5-1.6,5.1-3.4,6.4-6.3
			c1.1-2.4,1.2-5.3,1.3-8.1c0.1-15-1.6-30.1-5-44.6c-2.6-11-6.2-31.8-7.1-43.1c-0.5-6.5-0.2-13.1,1-19.5c0.6-3.4,1.4-6.8,2.7-9.9
			c0.9-2.1,3.7-5,4.2-6.9c1.8-7.9-7.2-6.1-9.1-11.2c-2.2-5.9,10.1-11.5,11.3-8.8c-3.7-8.5,0.4-17.5,0-26.3c-0.1-1.1-0.1-2.2-0.5-3.1
			c-0.4-1-1.1-1.8-1.7-2.8c-2.6-4.5-0.4-10.1,0.9-14.7c-13.2-2.8-23.7-6.5-33.6-18.2c-9-10.7-15.5-24.4-18.9-38.9
			c-6.9-29.2-6.3-50.1-7.8-80.3c-1.9-38-8.3-75.5-23.2-109.3c25.2-0.6,50.4-0.6,75.6-1.3c7.5-0.2,15-0.4,22.4-0.5
			c10.4-0.3,20.8-0.5,31.2-0.4C252,100.1,277.2,104.7,300.6,104.3z"/>
		<g>
			<path d="M105.9,106.4c0,0,0.8,2,2.3,5.7c1.4,3.8,3.5,9.3,5.8,16.5c2.3,7.2,4.8,16,7.1,26.2c2.3,10.2,4.4,21.9,5.8,34.7
				c0.7,6.4,1.2,13.1,1.7,20.1c0.4,6.9,0.7,14.1,0.6,21.5c0,3.7-0.2,7.4,0.1,11.2c0.2,1.9,0.5,3.8,0.7,5.7c0.2,1.9,0.4,3.8,0.6,5.8
				c0.7,7.7,1.6,15.6,2.9,23.5c1.4,7.9,3.3,15.9,6.1,23.6c2.9,7.7,6.8,15.2,12.1,21.8c2.6,3.3,5.6,6.3,9,8.8
				c0.9,0.6,1.7,1.2,2.6,1.8c0.9,0.5,1.8,1.1,2.7,1.6c1.8,0.9,3.8,1.6,5.9,2.1c4.1,1,8.4,1.3,12.7,1.7c4.3,0.4,8.5,0.6,12.8,0.7
				c4.3,0.1,8.6-0.1,12.8-0.5c4.2-0.4,8.5-1.2,12.6-2.1c4.1-1,8.2-2.2,12-4c1.9-0.9,3.8-1.9,5.4-3.1c0.9-0.6,1.8-1.2,2.5-1.9
				c0.8-0.7,1.6-1.3,2.3-2.1c3-2.9,5.6-6.3,7.8-9.8c2.2-3.5,4.1-7.2,5.7-11c3.2-7.6,5.2-15.6,5.8-23.6c1.7-16,0.5-31.6,1.9-46.4
				c1.5-14.7,2.4-28.6,4-41.5c0.8-6.4,1.7-12.5,2.9-18.3c1.2-5.8,2.6-11.2,4-16.2c2.7-10.1,5.4-18.9,7.8-26
				c2.4-7.1,4.4-12.7,5.8-16.5c1.4-3.8,2.2-5.8,2.2-5.8s-0.7,2-2.1,5.8c-1.4,3.8-3.3,9.4-5.6,16.5c-2.3,7.2-4.9,15.9-7.6,26
				c-1.3,5.1-2.7,10.5-3.8,16.2c-1.2,5.8-2.1,11.9-2.9,18.3c-1.5,12.8-2.4,26.7-3.9,41.4c-1.4,14.7-0.1,30.3-1.8,46.4
				c-0.6,8.1-2.6,16.2-5.8,23.9c-1.6,3.9-3.5,7.6-5.8,11.2c-2.3,3.6-4.9,7-7.9,10c-0.7,0.8-1.6,1.5-2.4,2.2
				c-0.8,0.7-1.7,1.3-2.5,1.9c-1.8,1.3-3.6,2.3-5.6,3.2c-3.9,1.9-8,3.2-12.2,4.1c-4.2,1-8.4,1.7-12.7,2.2c-4.3,0.4-8.6,0.6-12.9,0.6
				c-4.3-0.1-8.6-0.3-12.9-0.7c-4.3-0.4-8.6-0.7-12.8-1.8c-2.1-0.5-4.2-1.2-6.1-2.2c-0.9-0.5-1.9-1.1-2.8-1.6
				c-0.9-0.6-1.8-1.2-2.7-1.8c-3.4-2.6-6.5-5.7-9.1-9c-5.4-6.6-9.3-14.3-12.2-22.1c-2.9-7.8-4.8-15.9-6.1-23.8
				c-1.4-8-2.2-15.9-2.9-23.6c-0.2-1.9-0.3-3.8-0.6-5.7c-0.2-1.9-0.5-3.8-0.7-5.7c-0.3-3.8-0.1-7.6-0.1-11.3
				c0.1-7.4-0.2-14.6-0.6-21.5c-0.4-6.9-0.9-13.6-1.6-20c-1.4-12.8-3.4-24.5-5.6-34.7c-2.2-10.2-4.7-19-6.9-26.2
				c-2.2-7.2-4.3-12.7-5.7-16.5C106.7,108.4,105.9,106.4,105.9,106.4z"/>
		</g>
		<path class="st42" d="M122.8,162c13.3-0.3,27.4-0.8,40.7-1.1c8-0.2,16.1-0.3,24.1-0.8c9.5-0.6,19-1.7,28.5-2.1
			c20.2-1,40.4,0.6,60.5,2.3"/>
		<g>
			<path d="M186.5,552.5c0,0,0.1,0.1,0.2,0.3c0.1,0.2,0.4,0.4,0.6,0.7c0.6,0.6,1.5,1.2,2.7,1.8c1.2,0.5,2.8,0.9,4.5,1.2
				c0.4,0.1,0.9,0.1,1.3,0.2c0.4,0,0.9,0.1,1.3,0.1c0.9,0.1,1.8,0.1,2.7,0.1c0.9,0,1.8,0,2.7-0.1c0.9-0.1,1.8-0.2,2.6-0.3
				c0.8-0.1,1.7-0.3,2.4-0.4c0.8-0.2,1.5-0.3,2.2-0.5c1.3-0.3,2.4-0.7,3.2-0.9c0.8-0.3,1.2-0.4,1.2-0.4s-0.4,0.2-1.1,0.6
				c-0.7,0.3-1.8,0.9-3.1,1.4c-1.3,0.5-2.9,1-4.6,1.3c-0.9,0.2-1.8,0.3-2.7,0.4c-0.9,0.1-1.9,0.1-2.8,0.1c-0.9,0-1.9-0.1-2.8-0.1
				c-0.9-0.1-1.8-0.2-2.7-0.4c-1.7-0.3-3.3-0.9-4.6-1.6c-1.3-0.7-2.1-1.6-2.6-2.2c-0.3-0.3-0.4-0.6-0.5-0.8
				C186.5,552.6,186.5,552.5,186.5,552.5z"/>
		</g>
		<g>
			<path d="M108.7,580.6c0,0,2.6,0.8,7.3,2.1c2.3,0.6,5.1,1.5,8.4,2.3c3.3,0.8,7,1.2,11.1,1.3c2.1,0,4.2,0,6.4,0
				c2.2,0,4.5,0.1,6.9,0.2c4.7,0.3,9.7,0.8,14.8,1.4c10.3,1.3,21.1,3,32.1,3.5c5.5,0.3,11,0.2,16.4-0.1c5.4-0.3,10.7-0.8,15.8-1.4
				c10.3-1.1,19.8-2.2,28-3.1c16.4-1.8,27.4-2.9,27.4-2.9s-10.9,1.4-27.3,3.6c-4.1,0.5-8.5,1.1-13.2,1.7c-4.7,0.6-9.6,1.2-14.8,1.8
				c-10.3,1.2-21.3,2.2-32.4,1.6c-11-0.6-21.9-2.4-32.2-3.7c-5.1-0.6-10.1-1.2-14.8-1.6c-2.3-0.2-4.7-0.3-6.9-0.3
				c-2.2,0-4.4-0.1-6.4-0.1c-2.1-0.1-4.1-0.2-5.9-0.4c-1.9-0.2-3.6-0.6-5.3-1.1c-3.3-0.9-6-1.8-8.3-2.5
				C111.3,581.4,108.7,580.6,108.7,580.6z"/>
		</g>
		<g>
			<path d="M189.2,416.1c0,0,0.3,0.1,0.9,0.2c0.6,0.1,1.4,0.3,2.4,0.4c0.5,0.1,1,0.1,1.6,0.2c0.6,0.1,1.2,0.1,1.8,0.2
				c1.2,0.1,2.5,0.1,3.9,0.1c1.3,0,2.6-0.2,3.8-0.3c0.6-0.1,1.2-0.2,1.8-0.3c0.6-0.1,1.1-0.2,1.6-0.3c1-0.2,1.8-0.4,2.4-0.6
				c0.6-0.2,0.9-0.2,0.9-0.2s-0.3,0.2-0.8,0.4c-0.3,0.1-0.6,0.3-1,0.5c-0.4,0.2-0.8,0.4-1.3,0.5c-0.5,0.2-1,0.4-1.6,0.5
				c-0.6,0.2-1.2,0.3-1.8,0.4c-0.6,0.1-1.3,0.3-1.9,0.3c-0.7,0.1-1.3,0.1-2,0.2c-0.7,0-1.4,0-2,0c-0.7,0-1.3-0.1-2-0.2
				c-0.6-0.1-1.2-0.2-1.8-0.3c-0.6-0.1-1.1-0.3-1.6-0.4c-0.5-0.1-0.9-0.3-1.3-0.4c-0.4-0.1-0.7-0.3-1-0.4
				C189.5,416.3,189.2,416.1,189.2,416.1z"/>
		</g>
		<g>
			<path d="M184.9,399.3c0,0,1.8-0.5,4.6-0.8c1.4-0.2,3-0.4,4.8-0.4c0.9,0,1.8-0.1,2.7-0.1c0.9,0,1.9,0,2.8,0.1
				c1.9,0.1,3.8,0.3,5.5,0.5c1.8,0.2,3.4,0.5,4.8,0.9c0.7,0.2,1.3,0.3,1.9,0.5c0.6,0.2,1,0.4,1.4,0.7c0.7,0.5,0.8,1,0.9,1
				c0,0-0.1-0.1-0.2-0.3c-0.1-0.2-0.4-0.4-0.7-0.6c-0.3-0.2-0.8-0.4-1.4-0.5c-0.5-0.1-1.2-0.2-1.9-0.3c-1.4-0.2-3-0.4-4.8-0.5
				c-0.9-0.1-1.8-0.1-2.7-0.2c-0.9-0.1-1.8-0.1-2.8-0.2c-1.9-0.1-3.7-0.1-5.5-0.1c-0.9,0-1.7,0-2.5,0c-0.8,0-1.6,0-2.3,0.1
				c-1.4,0.1-2.6,0.1-3.4,0.2C185.3,399.3,184.9,399.3,184.9,399.3z"/>
		</g>
		<g>
			<path d="M189.6,379.7c0,0,0.3,0,0.9,0.1c0.6,0.1,1.4,0.2,2.3,0.3c1,0.1,2.1,0.3,3.3,0.4c1.2,0.1,2.5,0.3,3.8,0.4
				c2.6,0.3,5.1,0.5,7.1,0.6c1,0.1,1.8,0.1,2.4,0.2c0.6,0,0.9,0.1,0.9,0.1s-0.3,0.1-0.9,0.1c-0.6,0.1-1.4,0.2-2.4,0.3
				c-1,0.1-2.1,0.1-3.4,0.1c-1.2,0-2.5-0.1-3.8-0.2c-1.3-0.1-2.6-0.3-3.8-0.6c-1.2-0.2-2.3-0.5-3.3-0.8c-0.9-0.3-1.7-0.5-2.3-0.7
				C189.9,379.9,189.6,379.7,189.6,379.7z"/>
		</g>
		<g>
			<path d="M189.2,365.1c0,0,0.4,0,1,0.1c0.7,0.1,1.6,0.2,2.7,0.3c0.6,0.1,1.2,0.1,1.8,0.2c0.6,0.1,1.3,0.1,2,0.1
				c1.4,0.1,2.9,0.1,4.4,0.1c1.5,0,3-0.1,4.4-0.2c0.7-0.1,1.4-0.1,2-0.2c0.6-0.1,1.3-0.1,1.8-0.2c1.1-0.1,2.1-0.3,2.7-0.4
				c0.7-0.1,1-0.2,1-0.2s-0.4,0.1-1,0.4c-0.6,0.2-1.5,0.5-2.7,0.8c-1.1,0.3-2.4,0.5-3.9,0.7c-0.7,0.1-1.5,0.2-2.2,0.2
				c-0.8,0.1-1.5,0.1-2.3,0.1c-0.8,0-1.5,0-2.3-0.1c-0.8,0-1.5-0.1-2.2-0.2c-1.4-0.2-2.8-0.4-3.9-0.7c-1.1-0.2-2-0.6-2.7-0.8
				C189.5,365.2,189.2,365.1,189.2,365.1z"/>
		</g>
		<g>
			<path d="M190.4,349.8c0,0,0.3,0.1,0.9,0.2c0.6,0.1,1.4,0.3,2.4,0.5c0.5,0.1,1,0.2,1.6,0.3c0.6,0.1,1.2,0.2,1.8,0.3
				c1.2,0.1,2.5,0.3,3.9,0.3c1.3,0.1,2.6,0,3.9,0c0.6,0,1.2,0,1.8-0.1c0.6,0,1.1-0.1,1.6-0.1c1-0.1,1.8-0.2,2.4-0.3
				c0.6-0.1,0.9-0.1,0.9-0.1s-0.3,0.1-0.9,0.3c-0.6,0.2-1.4,0.5-2.3,0.7c-1,0.3-2.2,0.4-3.4,0.6c-0.6,0-1.3,0.1-2,0.1
				c-0.7,0-1.4,0-2,0c-0.7-0.1-1.4-0.1-2-0.2c-0.7-0.1-1.3-0.2-1.9-0.3c-1.3-0.3-2.4-0.5-3.4-0.9c-1-0.3-1.7-0.7-2.3-0.9
				C190.7,350,190.4,349.8,190.4,349.8z"/>
		</g>
	</g>
</g>
</svg>
