<?xml version="1.0" encoding="utf-8"?>
<!-- Generator: Adobe Illustrator 19.2.0, SVG Export Plug-In . SVG Version: 6.00 Build 0)  -->
<svg version="1.1" id="Layer_1" xmlns="http://www.w3.org/2000/svg" xmlns:xlink="http://www.w3.org/1999/xlink" x="0px" y="0px"
	 viewBox="0 0 700 700" style="enable-background:new 0 0 700 700;" xml:space="preserve">
<style type="text/css">
	.st0{fill:none;}
	.st1{fill:none;stroke:#000000;stroke-width:5;stroke-miterlimit:10;}
	.st2{opacity:0.9;fill:url(#SVGID_1_);}
	.st3{fill:#6C8036;}
	.st4{fill:none;stroke:#000000;stroke-width:2;stroke-miterlimit:10;}
</style>
<rect x="0" y="0" class="st0" width="700" height="700"/>
<path class="st1" d="M6708.6-568.1c0.3,38.5,0.2,82.4-5.7,120.5c-2.3,14.7-3.7,31.7-10.6,44.9c-9.4,17.9-18.6,35.9-34,49.5
	c-5.5,4.9-11.5,9.2-17.9,12.8c-4.2,2.3-15.3,5.1-15.9,10.8c-0.4,3.6,3.8,5.7,6.9,7.6c6.9,4.3,10.9,12.3,11.6,20.4
	c1.5,15.4-5.6,30.7-18.9,38.8c-0.8,0.5-1.6,1-1.9,1.8c-0.7,2.1,2.1,3.4,4.2,3.8c12.1,2.1,24,5,35.7,8.7c7.7,2.4,24.3,10.6,12,18.5
	c-7.7,4.9-17,6.2-26,7.3c-24.7,3.1-49.7,6.2-74.5,3.9c-5.6-0.5-11.2-1.4-16.8-2.2c-7.5-1.1-15-2.2-22.5-3.3
	c-5.3-0.8-11.8-2.7-12.7-7.9c-1.7-10.2,16.6-15.1,23.6-17.2c4.9-1.5,36.5-4.6,35.6-9.3c-0.5-2.4-2.8-3.9-4.8-5.4
	c-8.9-6.4-15-16.4-16.6-27.2c-1.6-10.8,1.3-22.2,7.9-30.9c2.2-2.9,4.9-6,4.4-9.6c-0.2-1.5-1-2.9-2-4.1c-5.1-6.7-15.9-9.5-22.8-14.7
	c-7.9-6-15.2-12.8-21.6-20.4c-12.5-14.5-22.1-31.5-27.6-49.9c-5.2-17.2-6.9-35.3-8.2-53.2c-2.3-31-3.6-62-3.8-93.1
	c20.2-2.4,42-1.8,62.4-1.4C6600.9-567.5,6708.6-570.2,6708.6-568.1z"/>
<g>
	<path d="M6582-253.2c0,0,0,0.2,0,0.5c0,0.3,0,0.8,0,1.4c0,0.6,0.1,1.3,0.6,1.9c0.4,0.6,1.2,0.8,2.2,0.8c2.1-0.1,4.5-0.2,7.1-0.2
		c1.3,0,2.7-0.1,4-0.1c1.4-0.1,2.8-0.1,4.1-0.2c1.4-0.1,2.8-0.1,4.1-0.2c1.4-0.1,2.7-0.1,4-0.2c2.6-0.1,5-0.2,7.1-0.3
		c2-0.1,3.7-0.6,4.6-1.3c0.4-0.4,0.7-0.8,0.8-1.1c0.1-0.3,0.2-0.5,0.2-0.5s0,0.2,0,0.5c-0.1,0.3-0.2,0.8-0.6,1.3
		c-0.4,0.5-1.1,1-1.9,1.4c-0.8,0.4-1.8,0.7-2.8,0.8c-2.1,0.4-4.5,0.7-7.1,0.9c-1.3,0.1-2.7,0.3-4,0.4c-1.4,0.1-2.8,0.2-4.2,0.2
		c-1.4,0-2.8,0.1-4.2,0.1c-1.4,0-2.7,0-4.1,0c-2.6-0.1-5.1-0.2-7.2-0.4c-0.5-0.1-1.1-0.1-1.6-0.4c-0.5-0.3-0.9-0.7-1.1-1.1
		c-0.4-0.9-0.4-1.7-0.3-2.3c0.1-0.6,0.2-1.1,0.3-1.4C6581.9-253,6582-253.2,6582-253.2z"/>
</g>
<g>
	<path d="M6581.6-337.8c0,0,0.6,0.2,1.6,0.5c0.5,0.2,1.2,0.3,1.9,0.5c0.7,0.2,1.6,0.4,2.4,0.5c0.9,0.2,1.9,0.3,2.9,0.5
		c1,0.1,2.1,0.2,3.3,0.3c1.1,0.1,2.3,0.1,3.5,0.2c1.2,0,2.4,0,3.6,0c1.2,0,2.5,0,3.7-0.1c1.2,0,2.4-0.1,3.6-0.1
		c2.3-0.1,4.5-0.1,6.3-0.3c1.8-0.2,3.2-0.6,4.1-1.2c0.4-0.3,0.8-0.6,1-0.8c0.2-0.2,0.3-0.3,0.3-0.3s-0.1,0.1-0.2,0.4
		c-0.2,0.3-0.4,0.6-0.8,1c-0.8,0.8-2.3,1.6-4.2,2c-0.9,0.2-2,0.4-3,0.5c-1.1,0.1-2.2,0.3-3.3,0.4c-1.2,0.1-2.4,0.2-3.6,0.3
		c-1.2,0.1-2.5,0.1-3.7,0.2c-1.3,0-2.5,0-3.7-0.1c-0.6,0-1.2-0.1-1.8-0.1c-0.6-0.1-1.2-0.1-1.8-0.2c-1.2-0.1-2.3-0.4-3.4-0.6
		c-0.5-0.1-1-0.3-1.5-0.4c-0.5-0.2-1-0.3-1.4-0.4c-1.8-0.6-3.2-1.3-4.2-1.8C6582.2-337.5,6581.6-337.8,6581.6-337.8z"/>
</g>
<g>
	<path d="M6531.5-235.7c0,0,0.1,0.1,0.3,0.3c0.2,0.2,0.5,0.4,1,0.6c0.9,0.5,2.3,1,4.2,1.4c1.9,0.4,4.2,0.7,6.8,1.1
		c2.6,0.4,5.6,0.7,8.9,1.1c3.3,0.3,6.8,0.7,10.6,1c3.7,0.3,7.7,0.5,11.8,0.7c8.2,0.3,17,0.5,25.7,0.6c4.4,0.1,8.8,0.1,13.1,0.2
		c4.3,0,8.5,0.1,12.6,0c4.1-0.1,8-0.4,11.7-0.8c3.7-0.5,7.2-1.1,10.4-1.7c6.4-1.4,11.6-3,15.2-4.3c1.8-0.7,3.2-1.2,4.2-1.6
		c1-0.4,1.5-0.6,1.5-0.6s-0.5,0.2-1.4,0.7c-0.9,0.4-2.3,1.1-4.1,1.8c-3.5,1.5-8.7,3.5-15.1,5.1c-6.4,1.6-14.1,2.9-22.3,3.2
		c-4.1,0.2-8.4,0.2-12.7,0.2c-4.3,0-8.7-0.1-13.1-0.1c-4.4-0.1-8.8-0.2-13.1-0.3c-4.3-0.1-8.6-0.4-12.7-0.6c-4.1-0.3-8.1-0.6-11.8-1
		c-3.8-0.4-7.3-0.8-10.6-1.3c-1.6-0.3-3.2-0.5-4.7-0.7c-1.5-0.3-2.9-0.5-4.2-0.8c-2.6-0.5-4.9-1-6.8-1.5c-1.9-0.5-3.3-1.1-4.1-1.7
		c-0.4-0.3-0.7-0.5-0.9-0.7C6531.6-235.6,6531.5-235.7,6531.5-235.7z"/>
</g>
<linearGradient id="SVGID_1_" gradientUnits="userSpaceOnUse" x1="6498.813" y1="-446.2358" x2="6704.6909" y2="-446.2358">
	<stop  offset="1.785714e-02" style="stop-color:#801FE3"/>
	<stop  offset="1" style="stop-color:#B7A7FF"/>
</linearGradient>
<path class="st2" d="M6498.8-539.9c1.4,24.4,2.7,48.8,4.1,73.2c0.4,7.9,0.9,15.9,2.2,23.7c1.8,11.1,5.4,21.8,8.9,32.5
	c3,9.1,6,18.2,11.1,26.3c17.8,28.1,51.5,32.7,81.9,31.3c10.6-0.5,21.3-1.5,31.5-4.7c66.9-21.3,65.2-117,66.1-172.7
	c0-2.6,0.1-5.1,0.1-7.7C6636-535.8,6567.2-534,6498.8-539.9z"/>
<g>
	<path d="M6493.7-559.6c0,0,0.6,8.1,1.5,22.2c0.5,7.1,1,15.6,1.7,25.5c0.6,9.8,1.4,20.9,2.1,33.1c0.4,6.1,0.7,12.4,1.3,18.9
		c0.5,6.5,1.4,13.2,3,19.9c1.6,6.7,3.7,13.5,6,20.4c2.4,6.9,4.5,14,7.5,20.9c0.8,1.7,1.5,3.4,2.4,5.1c0.9,1.6,1.8,3.3,2.8,4.8
		c1.1,1.6,2.2,3.1,3.4,4.7c1.2,1.4,2.5,2.8,3.7,4.3c5.3,5.5,11.7,10,18.8,13.2c7.1,3.3,14.8,5.4,22.6,6.6c7.9,1.3,15.9,1.7,23.9,1.7
		c8-0.1,16.1-0.4,24-1.5c3.9-0.5,7.9-1.2,11.7-2.2c1-0.3,1.9-0.5,2.8-0.8l0.7-0.2c0.1,0,0,0,0.1,0l0.2-0.1l0.4-0.1l1.4-0.5l2.8-1
		c0.5-0.2,0.9-0.3,1.4-0.5l1.3-0.6c7.1-3.1,13.7-7.4,19.4-12.5c5.7-5.1,10.5-11.1,14.4-17.5c4-6.3,7.1-13.1,9.7-19.8
		c2.6-6.8,4.6-13.6,6.3-20.3c3.2-13.5,5-26.5,6.2-38.5c1.1-12.1,1.7-23.2,2-33c0.3-9.9,0.5-18.4,0.7-25.5
		c0.2-14.2,0.4-22.2,0.4-22.2s0,2,0.1,5.8c0,3.8,0.1,9.4,0.2,16.4c0,7.1,0,15.7-0.2,25.5c-0.1,9.9-0.5,21-1.5,33.1
		c-1,12.1-2.6,25.2-5.7,38.9c-1.6,6.8-3.6,13.7-6.1,20.6c-2.5,6.9-5.7,13.8-9.8,20.3c-4,6.5-9,12.7-14.8,18.1
		c-5.9,5.4-12.7,9.8-20.2,13.1l-1.4,0.6c-0.5,0.2-0.9,0.4-1.4,0.5l-2.8,1l-1.4,0.5l-0.4,0.1l-0.2,0.1l-0.2,0.1l-0.7,0.2
		c-1,0.3-2,0.6-2.9,0.8c-3.9,1-8,1.8-12,2.4c-8.1,1.1-16.2,1.5-24.4,1.6c-8.2,0-16.3-0.5-24.4-1.8c-8-1.3-16-3.5-23.3-7
		c-7.4-3.4-14.1-8.1-19.6-13.9c-1.3-1.5-2.6-3.1-3.9-4.6c-1.1-1.6-2.2-3.2-3.3-4.7c-2.2-3.4-3.9-6.8-5.4-10.4
		c-3-7.1-5.2-14.2-7.5-21.2c-2.2-7-4.3-13.9-5.8-20.7c-1.6-6.9-2.4-13.6-2.8-20.2c-0.5-6.6-0.7-12.9-1-18.9
		c-0.6-12.1-1.1-23.2-1.6-33.1c-0.5-9.9-0.8-18.4-1.2-25.5C6494-551.6,6493.7-559.6,6493.7-559.6z"/>
</g>
<g>
	<path d="M6494.1-544.2c0,0,0.8,0,2.4,0.1c1.6,0.1,3.8,0.2,6.7,0.3c2.9,0.2,6.4,0.3,10.5,0.5c4,0.2,8.6,0.3,13.6,0.5
		c5,0.2,10.4,0.3,16.1,0.5c5.7,0.2,11.7,0.2,17.9,0.4c6.2,0.1,12.6,0.1,19.2,0.2c6.5,0.1,13.2,0,19.8,0.1c6.6,0,13.3,0,19.8-0.1
		c6.5-0.1,13-0.1,19.2-0.2c12.5-0.1,24.1-0.2,34-0.3c10-0.1,18.3-0.1,24.1-0.1c2.9,0,5.2,0,6.7,0c1.6,0,2.4,0,2.4,0
		s-0.8,0.1-2.4,0.2c-1.6,0.1-3.8,0.2-6.7,0.4c-5.8,0.3-14.1,0.8-24.1,1.3c-10,0.5-21.6,0.9-34,1.3c-6.2,0.1-12.7,0.4-19.2,0.4
		c-6.5,0.1-13.2,0.1-19.8,0.2c-6.6,0-13.3,0-19.8-0.2c-6.5-0.1-13-0.3-19.2-0.4c-6.2-0.2-12.3-0.4-18-0.8c-2.9-0.2-5.6-0.3-8.3-0.5
		c-2.7-0.2-5.3-0.4-7.8-0.5c-2.5-0.2-4.9-0.3-7.1-0.5c-2.3-0.2-4.4-0.4-6.4-0.6c-4-0.4-7.6-0.7-10.4-1c-2.9-0.3-5.2-0.6-6.7-0.7
		C6494.9-544.1,6494.1-544.2,6494.1-544.2z"/>
</g>
<g>
	<g>
		<path class="st3" d="M344.8,456c-0.9,1.9-1.9,3.7-2.7,5.3c-3.1,7.2-4.3,14.9-8.5,21.5c-0.4,0.7-0.9,1.4-0.7,2.2
			c0.1,0.6,0.5,1,0.9,1.4c1.8,2.2,2.8,5.1,2.7,7.9c0,0.5,0,1,0.2,1.4c0.9,1.4,3,2.4,4.1,3.9c4.5,6.3,13,9.9,20.2,7.3
			c2.6-0.9,4.9-2.7,6.3-5c1.1-1.8,1.7-3.8,2.3-5.9c1.3-4.2,2.5-10.8,5.4-14.2c2.8-3.2,1.8-8.9,5.7-11c1.1-0.6,2.5-0.8,3.1-1.8
			c1-1.7-0.8-4,0-5.7c0.7-1.5,2.8-1.6,3.9-2.9c1.6-1.9,0-5.4,1.9-7.1c1.4-1.3,3.8-0.5,5.5-1.3c3.7-1.8,3.6-6.5,8.9-7.1
			c0.8-0.1,1.6-0.1,2.1-0.8c0.3-0.4,0.3-0.9,0.3-1.4c0.3-3.6,4.6-5.5,7.2-7.6c5.1-4.1,10.4-8.1,16.4-10.7c2.1-0.9,4.3-1.6,5.9-3.2
			c2.8-2.7,2.8-7.1,2.6-11c-0.3-4.9-1.2-10.7-5.6-12.9c-1.6-0.8-3.5-1-5.3-1.1c-4.5-0.4-8.2-1.6-12.2-2.4c-2.9-0.6-1.9-0.6-4.4,0.4
			c-1.1,0.4-1.4,2.2-2.9,1.7c-0.4-0.2-0.7-0.5-1.1-0.7c-1.3-0.9-3.4-0.1-3.9,1.4c-0.2,0.5-0.2,1.2-0.6,1.6c-0.5,0.6-1.5,0.5-2.2,0.6
			c-3.8,0.4-10.4,7.8-13.6,10c-6.3,4.3-12.4,8.9-18.2,13.9c-2,1.8-4,4.3-6.3,5.7c-1.1,0.7-2.9,0.5-3.9,1.3c-1.4,1.2-1,3-2.1,4.5
			c-1,1.4-3.1,1.6-4.3,2.9c-1.7,2-0.6,5.7-2.9,7c-1,0.6-2.4,0.5-2.9,1.5c-0.4,0.7-0.1,1.7,0.1,2.5C346.9,450.8,346,453.4,344.8,456z
			"/>
		<path class="st4" d="M344.8,458c-0.9,1.9-1.9,3.7-2.7,5.3c-3.1,7.2-4.3,14.9-8.5,21.5c-0.4,0.7-0.9,1.4-0.7,2.2
			c0.1,0.6,0.5,1,0.9,1.4c1.8,2.2,2.8,5.1,2.7,7.9c0,0.5,0,1,0.2,1.4c0.9,1.4,3,2.4,4.1,3.9c4.5,6.3,13,9.9,20.2,7.3
			c2.6-0.9,4.9-2.7,6.3-5c1.1-1.8,1.7-3.8,2.3-5.9c1.3-4.2,2.5-10.8,5.4-14.2c2.8-3.2,1.8-8.9,5.7-11c1.1-0.6,2.5-0.8,3.1-1.8
			c1-1.7-0.8-4,0-5.7c0.7-1.5,2.8-1.6,3.9-2.9c1.6-1.9,0-5.4,1.9-7.1c1.4-1.3,3.8-0.5,5.5-1.3c3.7-1.8,3.6-6.5,8.9-7.1
			c0.8-0.1,1.6-0.1,2.1-0.8c0.3-0.4,0.3-0.9,0.3-1.4c0.3-3.6,4.6-5.5,7.2-7.6c5.1-4.1,10.4-8.1,16.4-10.7c2.1-0.9,4.3-1.6,5.9-3.2
			c2.8-2.7,2.8-7.1,2.6-11c-0.3-4.9-1.2-10.7-5.6-12.9c-1.6-0.8-3.5-1-5.3-1.1c-4.5-0.4-8.2-1.6-12.2-2.4c-2.9-0.6-1.9-0.6-4.4,0.4
			c-1.1,0.4-1.4,2.2-2.9,1.7c-0.4-0.2-0.7-0.5-1.1-0.7c-1.3-0.9-3.4-0.1-3.9,1.4c-0.2,0.5-0.2,1.2-0.6,1.6c-0.5,0.6-1.5,0.5-2.2,0.6
			c-3.8,0.4-10.4,7.8-13.6,10c-6.3,4.3-12.4,8.9-18.2,13.9c-2,1.8-4,4.3-6.3,5.7c-1.1,0.7-2.9,0.5-3.9,1.3c-1.4,1.2-1,3-2.1,4.5
			c-1,1.4-3.1,1.6-4.3,2.9c-1.7,2-0.6,5.7-2.9,7c-1,0.6-2.4,0.5-2.9,1.5c-0.4,0.7-0.1,1.7,0.1,2.5C346.9,452.8,346,455.5,344.8,458z
			"/>
		<g>
			<path d="M344,486.7c0,0-0.1-0.1-0.3-0.4c-0.2-0.3-0.4-0.7-0.6-1.3c-0.3-1.2-0.2-3.1,0.7-5c0.4-1,1.1-1.9,1.8-2.9
				c0.7-0.9,1.4-1.9,2-2.9c0.6-1,1-2.1,1.1-3.3c0.1-1.1-0.2-2.5,0-4.1c0.1-0.8,0.4-1.6,0.9-2.3c0.5-0.7,1.3-1.3,2.2-1.5
				c0.5-0.1,0.9,0,1.1,0c0.1,0,0,0,0.1,0c-0.1,0,0,0,0,0c0.2-0.2,0.3-0.8,0.3-1.4c0-0.4,0.1-0.6,0.1-1c0.1-0.3,0.1-0.7,0.2-1
				c0.2-0.6,0.4-1.2,0.7-1.8c0.5-1.1,1.2-2,1.9-2.8c1.4-1.6,2.7-2.6,3.7-3.4c0.9-0.7,1.5-1.1,1.5-1.1s-0.5,0.5-1.2,1.4
				c-0.8,0.9-1.9,2.1-3,3.8c-0.5,0.8-1.1,1.7-1.5,2.7c-0.2,0.5-0.3,1-0.5,1.6c0,0.3-0.1,0.5-0.1,0.8c0,0.3,0,0.7-0.1,0.9
				c0,0.6,0,1.4-0.5,2.3c-0.2,0.2-0.3,0.4-0.7,0.6c-0.2,0.1-0.5,0.2-0.8,0.3c-0.5,0-0.8,0-0.9,0c-0.7,0.1-1.4,1.1-1.5,2.2
				c-0.2,1.1,0,2.4-0.1,3.9c-0.1,1.5-0.8,2.9-1.5,4c-0.7,1.1-1.6,2.1-2.3,2.9c-0.7,0.9-1.4,1.7-1.9,2.5c-0.5,0.8-0.9,1.6-1.1,2.4
				c-0.2,0.7-0.3,1.4-0.2,2c0,0.6,0.2,1,0.3,1.3C343.9,486.5,344,486.7,344,486.7z"/>
		</g>
		<g>
			<path d="M365.4,468c0,0,0-0.1-0.1-0.4c-0.1-0.2-0.2-0.6-0.2-1.1c-0.1-0.9,0-2.4,0.9-3.8c0.4-0.7,1.1-1.4,1.7-2
				c0.6-0.6,1.3-1.2,1.8-1.9c0.3-0.3,0.4-0.7,0.6-1c0.1-0.2,0.1-0.3,0.1-0.6c0-0.1,0-0.2,0-0.3l0-0.3c0-0.9-0.2-1.9-0.1-3.1
				c0.1-0.6,0.3-1.3,0.7-1.9l0.2-0.2l0,0l0,0l0.1-0.1l0,0l0.1-0.1l0.1-0.1l0.2-0.2c0.3-0.3,0.6-0.4,0.9-0.5c1.2-0.5,2.2-0.5,3-0.8
				c0.4-0.1,0.8-0.3,1-0.5l0.3-0.2c0.1-0.1,0.1-0.1,0.2-0.2c0.1-0.1,0.2-0.3,0.3-0.4c0.4-0.6,0.7-1.4,1-2.1c0.3-0.7,0.6-1.4,0.9-2
				c0.3-0.6,0.7-1.1,1.1-1.4c0.2-0.2,0.4-0.3,0.5-0.3c0.2-0.1,0.3-0.1,0.4-0.2c0.2-0.1,0.4-0.1,0.4-0.1s-0.1,0.1-0.3,0.2
				c-0.1,0-0.2,0.1-0.3,0.3c-0.1,0.1-0.3,0.2-0.4,0.4c-0.3,0.3-0.5,0.8-0.6,1.4c-0.2,0.6-0.3,1.3-0.5,2c-0.2,0.8-0.4,1.6-0.9,2.5
				c-0.1,0.2-0.2,0.4-0.4,0.7c-0.1,0.1-0.2,0.2-0.3,0.3l-0.3,0.2c-0.5,0.4-1,0.7-1.5,0.9c-1,0.4-2,0.5-2.7,0.9
				c-0.2,0.1-0.3,0.2-0.4,0.3l-0.1,0l-0.1,0.1l-0.1,0.1l0,0c0.1-0.1,0,0,0,0l0,0l0,0l-0.1,0.1c-0.2,0.3-0.3,0.6-0.3,1
				c-0.1,0.8,0.1,1.9,0,3l0,0.4l-0.1,0.5c0,0.2-0.1,0.6-0.3,0.8c-0.2,0.6-0.6,1.1-0.9,1.5c-0.7,0.8-1.5,1.4-2.2,1.9
				c-0.7,0.5-1.3,1-1.8,1.6c-0.9,1.1-1.3,2.3-1.5,3.2C365.4,467.5,365.4,468,365.4,468z"/>
		</g>
		<g>
			<path d="M382.8,428.8c0,0,0-0.1-0.1-0.3c0-0.2-0.1-0.6,0-1c0.2-0.9,0.9-2.1,2.1-3c0.6-0.5,1.4-0.9,2.1-1.2
				c0.8-0.4,1.5-0.7,2.3-1.1c0.7-0.4,1.4-0.9,1.8-1.5c0.1-0.1,0.3-0.4,0.3-0.5c0.1-0.2,0.2-0.3,0.3-0.5c0.2-0.4,0.3-0.8,0.5-1.2
				c0.3-0.9,0.6-1.8,1.2-2.8c0.3-0.5,0.7-0.9,1.2-1.3c0.5-0.4,1.1-0.6,1.6-0.7c1.1-0.2,1.9,0,2.5-0.1c0.6-0.1,1.2-0.6,1.7-1
				c0.6-0.5,1.1-0.9,1.5-1.2c0.5-0.4,0.9-0.7,1.2-1c0.7-0.5,1.1-0.8,1.1-0.8s-0.3,0.4-0.8,1.1c-0.3,0.3-0.6,0.8-0.9,1.2
				c-0.4,0.5-0.8,1-1.3,1.5c-0.5,0.6-1.1,1.2-2.1,1.6c-1,0.4-2,0.3-2.6,0.4c-0.6,0.2-1.1,0.6-1.5,1.3c-0.4,0.7-0.7,1.6-1,2.5
				c-0.2,0.5-0.4,0.9-0.6,1.4c-0.1,0.2-0.3,0.5-0.4,0.7c-0.2,0.3-0.2,0.3-0.5,0.6c-0.7,0.9-1.7,1.4-2.6,1.8
				c-0.9,0.4-1.7,0.6-2.5,0.9c-0.8,0.3-1.4,0.5-2,0.8c-1.2,0.6-2,1.4-2.4,2.2c-0.2,0.4-0.3,0.7-0.3,0.9
				C382.9,428.7,382.8,428.8,382.8,428.8z"/>
		</g>
		<g>
			<path d="M398.5,430.1c0,0,0-0.1-0.1-0.3c-0.1-0.2-0.2-0.5-0.1-0.9c0-0.8,0.6-1.9,1.7-2.7c0.5-0.4,1.2-0.8,2-1
				c0.7-0.2,1.5-0.4,2.2-0.6c0.7-0.2,1.4-0.4,2-0.7c0.3-0.2,0.5-0.3,0.8-0.6l0.1-0.1l0.2-0.2c0.1-0.1,0.1-0.2,0.2-0.4
				c0.3-0.6,0.6-1.4,0.9-2.2c0.3-0.8,0.8-1.7,1.7-2.3c0.3-0.2,0.8-0.5,1.2-0.7c0.4-0.2,0.8-0.3,1.2-0.3c0.7-0.2,1.4-0.2,2-0.3
				c0.6-0.1,1.1-0.1,1.6-0.3c0.4-0.1,0.8-0.3,1.1-0.5c0.3-0.2,0.5-0.4,0.6-0.6c0.1-0.2,0.2-0.2,0.2-0.2s0,0.1-0.1,0.3
				c0,0.2-0.2,0.5-0.4,0.8c-0.2,0.3-0.6,0.6-1.1,0.9c-0.5,0.3-1,0.5-1.7,0.7c-0.6,0.2-1.3,0.4-1.9,0.6c-0.3,0.1-0.6,0.2-0.9,0.4
				c-0.3,0.2-0.4,0.2-0.8,0.5c-0.4,0.3-0.7,1-0.9,1.7c-0.3,0.7-0.5,1.5-1,2.4c-0.1,0.2-0.3,0.4-0.4,0.7l-0.2,0.2
				c-0.1,0.2-0.2,0.2-0.3,0.3c-0.4,0.4-0.8,0.6-1.2,0.9c-0.9,0.4-1.8,0.6-2.5,0.7c-0.8,0.1-1.5,0.2-2.2,0.3
				c-0.6,0.1-1.2,0.3-1.7,0.5c-1,0.5-1.7,1.2-1.9,1.8C398.4,429.6,398.6,430.1,398.5,430.1z"/>
		</g>
		<g>
			<path d="M351.9,496.8c0,0,0.2,0.5,0.8,0.7c0.3,0.1,0.8,0.1,1.1-0.1c0.4-0.2,0.7-0.5,0.9-1c0.2-0.5,0.4-1.1,0.5-1.8
				c0.1-0.7,0.1-1.5,0.5-2.4c0.1-0.2,0.2-0.4,0.3-0.7l0.1-0.3l0.2-0.3c0.3-0.4,0.6-0.8,1-1.1c0.7-0.6,1.4-1.1,2-1.6
				c0.6-0.5,1-1,1.2-1.6c0.2-0.6,0.4-1.4,0.5-2.2c0.1-0.8,0.4-1.7,0.9-2.5c0.5-0.8,1.2-1.2,1.8-1.5c1.2-0.7,2.1-1.1,2.5-1.6
				c0.2-0.3,0.3-0.5,0.4-0.7c0-0.2,0-0.3,0-0.3s0,0.1,0.1,0.3c0,0.2,0,0.5-0.1,0.9c-0.2,0.4-0.5,0.8-0.9,1.2
				c-0.4,0.4-0.9,0.8-1.3,1.2c-0.5,0.4-0.9,0.9-1.2,1.4c-0.3,0.5-0.3,1.2-0.4,2c-0.1,0.8-0.1,1.6-0.4,2.7c-0.2,0.5-0.4,1-0.7,1.4
				c-0.3,0.4-0.7,0.8-1,1.1c-0.7,0.6-1.4,1.1-2,1.6c-0.3,0.2-0.6,0.5-0.8,0.7l-0.1,0.2l-0.2,0.3c-0.1,0.1-0.2,0.3-0.2,0.4
				c-0.3,0.6-0.4,1.3-0.6,2.1c-0.2,0.7-0.5,1.5-0.9,2.1c-0.4,0.6-1.1,1.1-1.7,1.2c-0.6,0.1-1.2-0.1-1.5-0.3
				c-0.4-0.2-0.5-0.5-0.6-0.7C351.9,496.9,351.9,496.8,351.9,496.8z"/>
		</g>
	</g>
	<path class="st1" d="M265.8,451c-2.6,27.8-4.1,55.6-4.5,83.5c-0.1,6.6-0.1,13.3,0.7,19.8c2.4,20.7,13.2,40.4,29.3,53.6
		c6.8,5.6,7.8,16.1,3.4,23.7c-5.7,9.9-21.6,11.2-25.3,22c-1.1,3.1-0.9,6.6-0.6,9.9c0.6,8.7,1.2,13.7,1.9,22.1
		c0.1,0.7,0.5,1.4,1.1,1.7c53.4,26.4,129.8,4.5,135.3-4.3c0.1-0.2,0.1-0.3,0.2-0.5c1.4-9.4-1.1-30-2.6-33c-1.5-3.2-4.5-5.5-7.5-7.6
		c-3.5-2.4-17.1-8.5-19.1-12.3c-3.7-6.9-1.9-13.4,2.1-19.8c1-1.5,2.2-2.9,3.5-4.2c10.3-10.1,18-22.5,23.1-35.9
		c5.2-13.7,5.4-28.1,6.3-42.5c1.3-22.8-0.9-46.1-2.9-68.9c-0.3-3.2-0.6-6.4-2-9.2C377.8,453.7,276.5,452.2,265.8,451z"/>
	<g>
		<path d="M331.4,519.1l2.3,15.2l0.1,0.9l-0.5-0.7l-12.8-16.7l0.8-0.5c1.5,3.2,3.2,6.3,5.1,9.3c0.5,0.7,0.9,1.5,1.4,2.2
			c0.5,0.7,1,1.5,1.5,2.2c1,1.4,2.2,2.6,3.7,3.3l2.9,1.2l-3.2,0l-17.1,0.1l0.1-1.6c5.5,1,11,1.7,16.5,2.1l2.5,0.2l-2,1.4
			c-2.4,1.6-4.7,3.3-6.8,5.2c-1.1,1-2.1,2-3,3c-0.4,0.5-0.9,1.1-1.3,1.7c-0.4,0.6-0.8,1.2-1.1,1.8l-1.4-1.2
			c4.7-3.8,9.2-7.9,13.2-12.4l1.5-1.7l0.1,2.3c0.4,5.9,1.2,11.7,2.5,17.5l-1.9,0l0.2-1.1l0.1-1.1c0.1-0.8,0.1-1.5,0.1-2.3
			c0-0.8,0-1.6-0.1-2.3c-0.1-0.8-0.2-1.6-0.3-2.3c-0.4-3.1-1.2-6.2-2.1-9.3l1.8-0.6c0.7,1.5,1.6,2.8,2.7,4.1
			c1.1,1.3,2.3,2.4,3.6,3.6c1.3,1.1,2.6,2.2,3.9,3.4l4,3.3l-1.5,0.9c-0.3-1.5-1.4-2.9-2.6-4.2l-3.8-4l-7.7-8l-2-2.1l2.8,0.7
			c5.5,1.4,11,2.4,16.7,3l5.3,0.6l-5.3,0.8c-0.8,0.1-1.7,0-2.4-0.2c-0.8-0.2-1.4-0.5-2.1-0.8l-1-0.4c-0.3-0.1-0.7-0.3-1-0.4
			c-0.6-0.3-1.3-0.5-2-0.7c-2.7-0.8-5.5-1-8.3-0.8l-2.6,0.2l2.3-1.3c2.3-1.3,4.5-2.6,6.6-4.1c1-0.8,2.1-1.6,3-2.4
			c0.5-0.4,0.9-0.9,1.3-1.4c0.4-0.5,0.8-1,1.2-1.5l0.2,0.6c-0.4-0.2-1-0.1-1.5,0.1c-0.5,0.3-0.9,0.6-1.3,1.1c-0.8,0.9-1.4,1.9-2.1,3
			c-0.7,1-1.4,2.1-2.2,3c-0.4,0.5-0.9,0.9-1.4,1.3c-0.5,0.4-1.1,0.7-1.8,0.7c-0.7,0-1.3-0.4-1.7-1c-0.3-0.6-0.5-1.2-0.6-1.8
			c-0.3-1.2-0.5-2.4-0.7-3.7C331.9,524,331.6,521.5,331.4,519.1z M331.4,519.1c0.3,2.5,0.7,4.9,1.1,7.4c0.2,1.2,0.5,2.4,0.8,3.6
			c0.2,0.6,0.3,1.2,0.6,1.7c0.3,0.4,0.9,0.8,1.4,0.8c0.5,0,1.1-0.3,1.5-0.7c0.5-0.4,0.9-0.8,1.3-1.3c0.8-1,1.4-2,2.1-3
			c0.7-1,1.3-2.1,2.1-3.1c0.4-0.5,0.9-0.9,1.5-1.3c0.6-0.3,1.4-0.5,2.1-0.2l0.5,0.2l-0.3,0.4c-0.4,0.5-0.8,1.1-1.2,1.6
			c-0.4,0.5-0.9,1-1.4,1.5c-0.9,0.9-2,1.8-3,2.6c-2.1,1.6-4.4,2.9-6.6,4.3l-0.3-1.1c2.9-0.3,5.9-0.1,8.8,0.7
			c0.7,0.2,1.4,0.4,2.1,0.7c0.4,0.1,0.7,0.3,1,0.4l1,0.4c1.3,0.6,2.6,1,3.8,0.8l0,1.4c-5.7-0.5-11.4-1.5-16.9-2.8l0.8-1.4l7.7,7.9
			l3.9,4c0.6,0.7,1.3,1.4,1.8,2.3c0.6,0.8,1,1.8,1.2,2.8l0.5,2.5l-2-1.6l-4-3.3c-1.3-1.1-2.7-2.2-4-3.4c-1.3-1.2-2.6-2.4-3.8-3.7
			c-1.2-1.4-2.2-2.9-3-4.5l1.8-0.6c0.8,3.1,1.7,6.3,2.1,9.5c0.2,1.6,0.4,3.3,0.4,5c0,0.8,0,1.7-0.1,2.5l-0.2,1.3l-0.2,1.2l-0.9,4.9
			l-1.1-4.9c-1.3-5.8-2.1-11.8-2.4-17.8l1.7,0.6c-4.1,4.5-8.7,8.7-13.5,12.5l-3.7,2.9l2.4-4.1c0.4-0.7,0.8-1.3,1.2-1.9
			c0.4-0.6,0.9-1.2,1.4-1.8c1-1.1,2-2.2,3.1-3.2c2.2-2,4.6-3.7,7-5.4l0.4,1.6c-5.6-0.4-11.2-1.2-16.7-2.2l0.1-1.6l17.1,0.2l-0.3,1.3
			c-1.8-0.8-3.1-2.3-4.1-3.7c-0.5-0.7-1-1.5-1.5-2.2c-0.5-0.7-0.9-1.5-1.4-2.3c-1.8-3.1-3.5-6.2-5-9.4l0.8-0.5l12.3,17l-0.4,0.2
			L331.4,519.1z"/>
	</g>
	<g>
		<path d="M315.4,474.2c-0.4,1.2-0.8,2.4-1.1,3.6c-0.3,1.2-0.7,2.4-1,3.6c-0.6,2.4-1.2,4.9-1.7,7.3c-0.5,2.4-1,4.9-1.5,7.3l-1.4,7.4
			l-1.3,7.2l-0.2-7.3c-0.1-5.1-0.2-10.2-0.3-15.3l-0.2-15.3l2,0c0,5.2-0.2,10.3-0.5,15.4c-0.3,5.1-0.5,10.2-0.4,15.3l-1.6-0.1
			l0.3-1.9c0.1-0.6,0.2-1.3,0.4-1.9c0.3-1.3,0.6-2.5,1-3.7c0.7-2.4,1.6-4.8,2.5-7.2c0.9-2.4,1.8-4.7,2.7-7.1
			c0.4-1.2,0.8-2.4,1.2-3.6C314.7,476.6,315.1,475.4,315.4,474.2z M315.4,474.2c-0.2,1.2-0.5,2.5-0.8,3.7c-0.3,1.2-0.7,2.5-1,3.7
			c-0.7,2.4-1.5,4.8-2.3,7.3c-0.8,2.4-1.5,4.8-2.2,7.2c-0.3,1.2-0.6,2.4-0.8,3.7l-0.3,1.8l-0.2,1.8l-1.6-0.1
			c-0.1-2.6-0.2-5.1-0.1-7.7c0-2.6,0.1-5.1,0.2-7.7l0.3-7.6c0.1-2.5,0.1-5.1,0.1-7.6l2,0l0.1,15.3c0,5.1,0,10.2,0,15.3l-1.5-0.1
			c1-4.9,2.1-9.8,3.4-14.6c0.7-2.4,1.4-4.8,2.1-7.2c0.4-1.2,0.8-2.4,1.2-3.6C314.5,476.5,314.9,475.4,315.4,474.2z"/>
	</g>
	<g>
		<path d="M283.7,502.4l0.5,1.7l0.6,1.7c0.4,1.1,0.8,2.2,1.3,3.3c0.5,1.1,0.9,2.2,1.4,3.3c0.5,1.1,1,2.2,1.5,3.2
			c0.5,1.1,1.1,2.1,1.6,3.2l1.7,3.2l3.5,6.3l3.4,6l-4.8-5c-2.3-2.4-4.5-4.9-6.5-7.5c-2.1-2.6-4-5.3-5.8-8.1l1.7-1l1.2,2.1
			c0.4,0.7,0.8,1.3,1.2,2c0.8,1.3,1.7,2.6,2.6,3.8c0.5,0.6,1,1.2,1.5,1.7c0.3,0.2,0.5,0.5,0.8,0.6c0.3,0.1,0.4,0.1,0.4,0.1
			c0,0,0.2-0.2,0.3-0.4c0-0.1,0-0.2,0.1-0.2l0-0.1l0-0.1l0,0c0,0,0-0.1,0,0.1l0,0l0,0l0.1-0.6c0-0.2,0-0.4,0-0.5l0-0.5
			c-0.1-0.3-0.2-0.7-0.2-1.1c-0.2-0.7-0.4-1.4-0.7-2.2c-0.3-0.7-0.6-1.4-0.9-2.1c-0.6-1.4-1.4-2.8-2-4.2l-2.2-4.2
			C285,505.3,284.3,503.9,283.7,502.4z M283.7,502.4c0.8,1.4,1.7,2.7,2.5,4l2.5,4c0.8,1.3,1.6,2.7,2.4,4.1c0.4,0.7,0.7,1.4,1.1,2.2
			c0.3,0.7,0.6,1.5,0.9,2.3c0.1,0.4,0.2,0.8,0.3,1.2l0.1,0.7c0,0.2,0.1,0.5,0,0.7l0,0.6l0,0l0,0.1l0,0l0,0.1l0,0.2
			c0,0.1-0.1,0.2-0.1,0.3c-0.2,0.4-0.4,1-1.1,1.4c-0.2,0.1-0.3,0.1-0.5,0.2c-0.2,0-0.4,0-0.5,0c-0.3,0-0.6-0.2-0.8-0.3
			c-0.5-0.2-0.8-0.5-1.1-0.8c-0.7-0.6-1.2-1.2-1.7-1.8c-1-1.3-1.9-2.6-2.8-3.9c-0.4-0.7-0.8-1.4-1.3-2l-1.2-2l1.7-1
			c1.8,2.7,3.7,5.4,5.7,8c1,1.3,2,2.6,3.1,3.8c1,1.3,2.1,2.5,3.2,3.7l-1.4,1c-1.1-2.1-2.2-4.2-3.3-6.4c-1.1-2.2-2.1-4.3-3-6.5
			c-0.5-1.1-0.9-2.2-1.3-3.4c-0.4-1.1-0.8-2.3-1.2-3.4c-0.4-1.1-0.7-2.3-1-3.5C284.1,504.8,283.9,503.6,283.7,502.4z"/>
	</g>
	<g>
		<path d="M286.2,556.8l5.6-0.1l5.6-0.2c1.9-0.1,3.7-0.2,5.6-0.2c1.9-0.1,3.7-0.2,5.6-0.3l1.8-0.1l-1.1,1.5c-0.3,0.4-0.6,0.7-0.9,1
			c-0.3,0.3-0.7,0.6-1.1,0.8c-0.7,0.5-1.5,0.8-2.3,1.1c-0.8,0.3-1.5,0.5-2.3,0.7l-1.1,0.3c-0.4,0.1-0.7,0.2-1.1,0.4
			c-1.4,0.5-2.7,1.2-4,2c-1.3,0.8-2.6,1.7-3.8,2.6l-1.1-1.6l0.9-0.6c0.3-0.2,0.6-0.3,1-0.5c0.7-0.3,1.3-0.5,2-0.8
			c1.3-0.4,2.7-0.7,4-1.1c1.3-0.3,2.6-0.7,3.7-1.1c0.6-0.2,1.2-0.5,1.7-0.8l0.8-0.5l0.7-0.6l-0.2,1c-0.2-0.5-0.8-0.9-1.6-1.2
			c-0.8-0.3-1.6-0.5-2.4-0.7c-1.7-0.3-3.5-0.5-5.3-0.6c-1.8-0.1-3.6-0.2-5.4-0.2C289.8,557,288,557,286.2,556.8z M286.2,556.8
			c0.9,0,1.8-0.1,2.7-0.2l2.7-0.2c1.8-0.1,3.6-0.3,5.4-0.3c1.8,0,3.6,0,5.5,0.2c0.9,0.1,1.8,0.3,2.8,0.6c0.5,0.2,0.9,0.4,1.4,0.7
			c0.4,0.3,0.9,0.7,1.2,1.3l0.3,0.6l-0.5,0.4l-0.8,0.7l-0.9,0.6c-0.6,0.4-1.3,0.7-1.9,1c-1.3,0.6-2.6,1-3.9,1.3
			c-1.3,0.4-2.6,0.7-3.8,1.1c-0.6,0.2-1.2,0.4-1.8,0.7c-0.3,0.1-0.6,0.3-0.8,0.4l-0.8,0.5l-1.1-1.6c1.3-0.9,2.6-1.8,4-2.6
			c1.4-0.8,2.8-1.6,4.4-2.2c0.4-0.1,0.8-0.3,1.1-0.4l1.1-0.3c0.8-0.2,1.5-0.4,2.2-0.7c0.7-0.2,1.4-0.5,2-0.9
			c0.3-0.2,0.6-0.4,0.8-0.6c0.3-0.2,0.5-0.5,0.7-0.7l0.7,1.3c-3.8,0.1-7.5,0.1-11.3,0c-1.9-0.1-3.7-0.2-5.6-0.3
			C289.9,557.2,288.1,557.1,286.2,556.8z"/>
	</g>
	<g>
		<path d="M314.8,583.7c0.9,0.3,1.8-0.1,2.5-0.5c0.7-0.5,1.4-1,2.1-1.6c1.4-1.1,2.7-2.3,4-3.5l4-3.6l3.9-3.6l1,1.1
			c-0.6,0.5-1.2,1.1-1.8,1.6c-0.6,0.6-1.2,1.1-1.7,1.7c-1.1,1.2-2.1,2.4-3.1,3.8c-0.5,0.7-0.9,1.3-1.3,2c-0.4,0.7-0.8,1.4-1.2,2.1
			c-0.8,1.4-1.4,2.9-2,4.4l-1.7-1c2.7-3.1,5.5-6.2,8.2-9.2c1.4-1.5,2.7-3,3.8-4.7c0.6-0.8,1-1.7,1.4-2.6c0.2-0.4,0.4-0.9,0.5-1.4
			c0.1-0.5,0.3-0.9,0.4-1.4l1.4,0.7c-1.5,1.6-3.2,3-5,4.3c-0.9,0.6-1.8,1.2-2.7,1.8l-1.3,0.8c-0.4,0.3-0.8,0.6-1.2,0.9l-5,4l-2.5,2
			l-1.3,1C315.7,583.2,315.3,583.5,314.8,583.7z M314.8,583.7c0.5-0.2,0.8-0.6,1.2-1l1.2-1.1l2.3-2.2c1.6-1.4,3.1-2.9,4.7-4.3
			c0.4-0.4,0.8-0.7,1.3-1.1l1.3-0.9c0.9-0.6,1.7-1.2,2.6-1.9c1.7-1.3,3.2-2.7,4.5-4.2l1.9-2.2l-0.5,3c-0.1,0.5-0.2,1.1-0.4,1.6
			c-0.2,0.5-0.3,1-0.5,1.5c-0.4,1-0.9,2-1.5,2.9c-1.2,1.8-2.5,3.4-3.9,5c-2.7,3.1-5.4,6.2-8.2,9.2l-3.6,4l1.9-5
			c0.6-1.6,1.3-3.1,2.2-4.6c0.4-0.7,0.9-1.5,1.3-2.2c0.5-0.7,1-1.4,1.5-2.1c1-1.4,2.1-2.6,3.3-3.9c1.2-1.2,2.5-2.3,3.8-3.3l1,1.1
			c-1.3,1.2-2.7,2.3-4.1,3.5c-1.4,1.1-2.8,2.2-4.2,3.3c-1.4,1.1-2.9,2.1-4.3,3.2c-0.7,0.5-1.4,1.1-2.3,1.5c-0.4,0.2-0.8,0.4-1.3,0.4
			C315.7,583.9,315.2,583.9,314.8,583.7z"/>
	</g>
	<g>
		<path d="M366.3,564.4c0.5,3,1,6,1.6,9l0.9,4.5l1,4.5l-1.4,0c0.3-1.5,0.3-3.1,0.2-4.7c-0.2-1.6-0.4-3.3-0.6-4.9
			c-0.4-3.3-0.8-6.6-1.2-9.9l-0.5-4.3l2.3,3.7c1.6,2.5,3.1,5.1,4.8,7.5c1.7,2.4,3.6,4.7,5.7,6.6l-1.4,1c-1.5-3.4-3-6.7-4.6-10.1
			c-0.8-1.7-1.6-3.3-2.4-5c-0.8-1.7-1.6-3.3-2.5-5l0.5-0.1c-0.3,1.8-0.5,3.6-0.4,5.4c-0.2-1.8-0.3-3.7-0.1-5.5l0.1-0.8l0.4,0.7
			c2,3.1,3.8,6.4,5.6,9.6c1.8,3.3,3.5,6.6,5,10l1.8,3.9l-3.2-2.8c-1.2-1-2.2-2.1-3.3-3.2c-1-1.2-1.9-2.4-2.8-3.6
			c-1.8-2.5-3.4-5-4.9-7.6l1.8-0.6c0.4,3.3,0.7,6.6,1,9.9c0.1,1.7,0.3,3.3,0.4,5c0.1,1.7,0.1,3.5-0.4,5.2l-0.9,3.1l-0.5-3.2
			c-0.5-3-1-6.1-1.3-9.1C366.7,570.5,366.4,567.4,366.3,564.4z"/>
	</g>
	<g>
		<path d="M340,483.2c0.3-0.5,0.6-1,1-1.4c0.4-0.4,0.9-0.8,1.5-0.9l0,0l0,0c-0.3,0.9-0.6,1.7-0.9,2.6c-0.3,0.9-0.7,1.7-1.1,2.6
			c-0.4,0.8-0.8,1.7-1.2,2.5c-0.4,0.8-0.8,1.7-1.3,2.5c-1.8,3.3-3.8,6.4-6.1,9.3l-0.8-0.7c1.1-1.4,2.3-2.7,3.5-4.1
			c1.2-1.3,2.5-2.6,3.8-3.8c1.3-1.2,2.7-2.4,4.1-3.5c1.4-1.1,2.9-2.1,4.4-3.1l4.9-3.3l-3.6,4.7c-1.3,1.7-2.7,3.3-4.1,4.9
			c-1.4,1.6-3,3.1-4.5,4.6c-1.6,1.5-3.2,2.8-4.9,4.1c-1.7,1.3-3.5,2.5-5.3,3.6l-1.4,0.9l0.7-1.5l2.5-5.2c0.8-1.7,1.7-3.5,2.6-5.2
			c0.4-0.9,0.9-1.7,1.4-2.5c0.5-0.8,1-1.7,1.4-2.5C337.7,486.3,338.8,484.7,340,483.2z M340,483.2c-1.1,1.5-2.2,3.2-3.2,4.8
			c-1,1.7-1.8,3.4-2.6,5.1c-0.8,1.7-1.5,3.5-2.3,5.3l-2.2,5.3l-0.7-0.6c1.7-1.2,3.4-2.5,5-3.9c0.8-0.7,1.6-1.4,2.3-2.1
			c0.8-0.7,1.5-1.5,2.2-2.2c1.5-1.5,2.9-3,4.3-4.6c0.7-0.8,1.4-1.6,2-2.4l2-2.5l1.3,1.4c-1.5,1-2.9,2-4.3,3l-2.1,1.6
			c-0.7,0.5-1.4,1.1-2,1.7c-1.3,1.1-2.7,2.3-4,3.5c-1.3,1.2-2.5,2.5-3.7,3.8l-0.8-0.7c2.4-2.8,4.6-5.7,6.6-8.9
			c1-1.6,1.9-3.2,2.7-4.8c0.4-0.8,0.8-1.7,1.1-2.5c0.3-0.9,0.7-1.7,1-2.6l0,0c-0.6,0.1-1.1,0.4-1.5,0.8
			C340.6,482.2,340.3,482.7,340,483.2z"/>
	</g>
	<g>
		<path d="M377.2,500.8c-0.8,0.6-1.7,1.2-2.6,1.8c-0.9,0.6-1.8,1.1-2.7,1.6c-1.8,1-3.7,2-5.6,2.9c-3.8,1.7-7.7,3.2-11.6,4.7
			l-0.2-1.5l1.5,0.1l1.5,0l1.5-0.1l1.5-0.2c1-0.1,2-0.3,3-0.5l3.1-0.6c1-0.2,2.1-0.4,3.1-0.5c1-0.2,2.1-0.3,3.2-0.4l1.6-0.1l1.6,0
			l1.6,0.1l1.6,0.2l1.5,0.2l-0.8,1.3c-0.6,1-1.6,1.8-2.6,2.3c-1,0.5-2.1,0.7-3.1,0.9c-1,0.2-2.1,0.2-3.1,0.3l-3,0.2
			c-4,0.2-8.1,0.4-12.1-0.5l-0.9-0.2l0.4-0.8c0.2-0.5,0.5-1,0.7-1.5c0.3-0.4,0.6-0.9,1-1.3c0.4-0.4,0.7-0.8,1.2-1.1
			c0.4-0.3,0.8-0.7,1.3-0.9c0.5-0.3,0.9-0.6,1.4-0.8c0.5-0.2,0.9-0.5,1.4-0.6c1-0.4,1.9-0.7,2.9-1c2-0.6,3.9-1,5.9-1.5
			c0.5-0.1,1-0.3,1.5-0.4c0.5-0.1,1-0.3,1.4-0.5c0.5-0.1,0.9-0.4,1.4-0.5C376.3,501.3,376.8,501,377.2,500.8z M377.2,500.8
			c-0.4,0.3-0.8,0.6-1.3,0.8c-0.5,0.2-0.9,0.5-1.4,0.7c-0.5,0.2-0.9,0.4-1.4,0.6c-0.5,0.2-1,0.4-1.4,0.5c-1.9,0.7-3.9,1.2-5.7,1.9
			c-0.9,0.4-1.9,0.7-2.8,1.1c-0.5,0.2-0.9,0.4-1.3,0.7c-0.4,0.2-0.8,0.5-1.2,0.8c-0.4,0.3-0.7,0.6-1.1,0.9c-0.4,0.3-0.6,0.7-1,1
			c-0.3,0.4-0.5,0.8-0.8,1.1l-0.5,1.3l-0.6-1c3.8,0.7,7.7,0.5,11.7,0.1l3-0.2c1-0.1,1.9-0.1,2.9-0.3c1.8-0.3,3.6-1,4.4-2.3l0.7,1.5
			l-1.5-0.2l-1.5-0.1l-1.5,0l-1.5,0.1c-1,0.1-2,0.2-3,0.4l-3.1,0.5l-3.1,0.5c-1,0.2-2.1,0.3-3.1,0.4l-1.6,0.1l-1.6,0.1l-1.6,0
			l-1.6-0.1l-3.8-0.3l3.6-1.2l5.9-2c2-0.7,3.9-1.4,5.8-2.1c1.9-0.7,3.8-1.5,5.7-2.4c0.9-0.4,1.9-0.9,2.8-1.4
			C375.4,501.8,376.3,501.3,377.2,500.8z"/>
	</g>
	<g>
		<path d="M382,539.4c-1-1.4-1.9-3-2.7-4.5c-0.8-1.6-1.5-3.2-2.3-4.8l0.3-0.1l0.5,1.6l0.6,1.6l0.7,1.5l0.8,1.5c0.5,1,1.1,2,1.7,2.9
			l1.8,2.9l1.8,2.9c0.6,1,1.1,2,1.7,3l0.8,1.6l0.7,1.6l0.6,1.7l0.5,1.7l0.2,0.7l-0.6,0.4c-0.3,0.2-0.6,0.2-0.9,0.2
			c-0.2,0-0.2,0-0.3-0.1c-0.1,0-0.2-0.1-0.2-0.1c-0.1-0.1-0.3-0.2-0.3-0.2c-0.1-0.1-0.2-0.1-0.2-0.2c-0.3-0.3-0.5-0.6-0.7-0.8
			c-0.4-0.5-0.7-1.1-1-1.6c-0.6-1.1-1.1-2.2-1.5-3.3c-0.9-2.2-1.6-4.5-2-6.9c-0.1-0.6-0.2-1.2-0.2-1.8c0-0.3,0-0.6,0-1
			c0-0.3,0.1-0.7,0.4-1.1c0.1-0.2,0.4-0.4,0.7-0.4c0.3,0,0.5,0,0.7,0.1c0.4,0.1,0.7,0.3,0.9,0.5c0.5,0.4,0.9,0.8,1.3,1.3
			c1.6,1.8,2.9,3.8,4.2,5.8l0.2,0.4l-0.4-0.1c-0.8-0.3-1.6-0.6-2.4-1.1c-0.7-0.4-1.4-1-2.1-1.5C384.2,542.1,383,540.8,382,539.4z
			 M382,539.4c1,1.4,2.2,2.7,3.5,3.8c1.3,1.1,2.9,1.9,4.5,2.3l-0.2,0.2c-1.5-1.9-2.9-3.7-4.6-5.3c-0.4-0.4-0.9-0.8-1.3-1.1
			c-0.2-0.1-0.5-0.3-0.6-0.3c-0.1,0-0.2,0-0.2,0c0,0,0,0,0,0c0,0.1-0.1,0.3-0.1,0.5c0,0.2,0,0.5,0.1,0.8c0.1,0.5,0.2,1.1,0.3,1.7
			c0.3,1.1,0.7,2.2,1.1,3.3c0.4,1.1,0.8,2.2,1.3,3.2c0.5,1.1,1,2.1,1.5,3.1c0.3,0.5,0.6,1,0.9,1.4c0.1,0.2,0.3,0.4,0.4,0.5
			c0,0,0.1,0.1,0.1,0.1c0,0,0,0,0,0c0,0,0,0,0,0c0,0,0,0-0.1,0c-0.1,0-0.3,0-0.4,0.1l-0.4,1.1l-0.4-1.6l-0.5-1.6
			c-0.4-1-0.8-2-1.3-3.1c-0.5-1-1-2-1.5-3l-1.6-3l-1.6-3c-0.5-1-1-2-1.5-3.1l-0.7-1.6l-0.6-1.6l-0.5-1.6l-0.4-1.7l0.3-0.1
			c0.7,1.6,1.3,3.3,2.1,4.9C380.2,536.4,381,538,382,539.4z"/>
	</g>
	<g>
		<path d="M301.6,632.6c0,0,0.3,0.1,0.8,0.2c0.5,0.2,1.3,0.4,2.2,0.6c1,0.2,2.2,0.5,3.5,0.8c1.4,0.3,2.9,0.5,4.6,0.7
			c3.4,0.4,7.4,0.7,11.7,0.8c2.1,0.1,4.4,0.1,6.6,0.1c2.2,0,4.5,0,6.8-0.1c2.3-0.1,4.6-0.2,6.8-0.3c1.1-0.1,2.2-0.2,3.3-0.3
			c1.1-0.1,2.2-0.2,3.2-0.3c2.1-0.3,4.2-0.5,6.1-0.9c1.9-0.3,3.8-0.7,5.4-1.1c1.7-0.4,3.2-0.7,4.6-1.1c1.4-0.3,2.5-0.7,3.5-1
			c1.9-0.6,3-1,3-1s-0.3,0.1-0.7,0.4c-0.5,0.2-1.2,0.6-2.1,1c-0.9,0.4-2.1,0.9-3.4,1.3c-0.7,0.2-1.4,0.5-2.1,0.8
			c-0.8,0.2-1.5,0.5-2.4,0.7c-3.3,1-7.3,1.9-11.6,2.6c-2.1,0.3-4.4,0.6-6.6,0.8c-2.3,0.2-4.6,0.3-6.9,0.4c-2.3,0.1-4.6,0.1-6.9,0
			c-2.3,0-4.5-0.1-6.7-0.3c-4.3-0.3-8.4-0.8-11.8-1.4c-3.4-0.7-6.2-1.6-8.1-2.3c-1-0.4-1.7-0.7-2.2-0.9
			C301.9,632.7,301.6,632.6,301.6,632.6z"/>
	</g>
	<g>
		<path d="M270.8,457.6c0,0-0.2,1.4-0.5,4.1c-0.2,1.3-0.4,3-0.6,5c-0.2,2-0.4,4.2-0.6,6.7c-0.9,10.1-1.5,24.5-0.9,41.8
			c0.3,8.6,1,18,2.1,27.8c0.6,4.9,1.2,10,2,15.1c0.5,2.4,1.4,4.8,2.4,7.2c1,2.4,2.2,4.7,3.6,7c0.7,1.1,1.4,2.2,2.2,3.2
			c0.8,1.1,1.6,2,2.6,3c1.9,2,3.9,3.8,5.9,5.6c4.2,3.6,8.8,6.7,13.8,8.8c2.5,1.1,5.2,1.9,7.9,2.4l1,0.2l0.5,0.1l0.5,0.1l2.1,0.3
			c1.4,0.2,2.8,0.3,4.2,0.5c5.7,0.5,11.4,0.6,17.1,0.3c5.7-0.3,11.4-1.1,16.9-2.2c5.6-1.2,11.1-2.6,16.4-4.4
			c5.3-1.9,10.3-4.2,14.9-7.2l1.7-1.1l1.7-1.2l1.5-1.3l1.5-1.3c1.9-1.8,3.7-3.9,5.2-6c3-4.3,5.1-9.1,6.7-14c1.5-4.9,2.4-9.9,3-14.7
			c0.6-4.9,0.9-9.7,1.1-14.3c0.1-2.3,0.2-4.6,0.2-6.9c0-2.2,0.1-4.4,0.1-6.6c0-4.3-0.1-8.5-0.3-12.4c-0.1-3.9-0.4-7.7-0.6-11.2
			c-0.5-7-1.1-13.1-1.6-18.1c-1-10.1-1.6-15.8-1.6-15.8s0.2,1.4,0.6,4.1c0.4,2.7,1,6.6,1.6,11.6c0.6,5,1.4,11.1,2.1,18.1
			c0.7,7,1.3,14.9,1.5,23.6c0.1,2.2,0.1,4.4,0.1,6.7c0,2.2-0.1,4.6-0.1,6.9c-0.1,4.7-0.3,9.5-0.8,14.5c-0.5,5-1.3,10.1-2.8,15.2
			c-1.5,5.1-3.7,10.2-6.9,14.8c-1.6,2.3-3.4,4.4-5.5,6.4l-1.6,1.4l-1.7,1.4l-1.7,1.3l-1.8,1.2c-4.7,3.2-10,5.6-15.4,7.6
			c-5.4,2-11,3.4-16.7,4.6c-5.7,1.2-11.5,2-17.3,2.4c-5.8,0.3-11.7,0.2-17.5-0.4c-1.4-0.1-2.9-0.3-4.3-0.5l-2.1-0.3l-0.5-0.1
			l-0.6-0.1l-1.1-0.2c-2.9-0.6-5.7-1.5-8.4-2.7c-5.4-2.3-10.2-5.6-14.5-9.3c-2.1-1.8-4.2-3.8-6.1-5.8c-0.9-1-2-2.1-2.8-3.2
			c-0.9-1.1-1.6-2.3-2.4-3.5c-1.4-2.4-2.7-4.9-3.7-7.4c-1-2.5-1.9-5-2.5-7.8c-0.7-5.2-1.3-10.3-1.8-15.2c-1-9.9-1.5-19.3-1.6-28
			c-0.2-8.7,0-16.6,0.4-23.7c0.4-7,0.9-13.2,1.5-18.2c0.1-1.3,0.3-2.4,0.4-3.6c0.2-1.1,0.3-2.2,0.4-3.1c0.3-1.9,0.5-3.6,0.7-4.9
			C270.6,459,270.8,457.6,270.8,457.6z"/>
	</g>
	<g>
		<path d="M273.2,655.7c0,0,0.5,0.2,1.4,0.5c0.9,0.4,2.2,0.9,3.9,1.5c1.7,0.6,3.7,1.3,6.1,2.1c2.4,0.7,5.1,1.5,8.1,2.3
			c3,0.7,6.2,1.5,9.7,2.1c3.5,0.6,7.1,1.2,10.9,1.6c3.8,0.4,7.7,0.7,11.8,0.9c4,0.2,8.1,0.2,12.2,0.1c4.1-0.1,8.2-0.3,12.2-0.7
			c4-0.4,7.9-0.9,11.7-1.5c7.6-1.2,14.6-2.8,20.5-4.4c5.9-1.7,10.7-3.4,14-4.9c1.6-0.8,2.9-1.4,3.6-2c0.4-0.3,0.7-0.5,0.8-0.7
			c0.1-0.2,0.2-0.3,0.2-0.3c0,0,0,0.1-0.2,0.3c-0.1,0.2-0.4,0.5-0.7,0.8c-0.7,0.6-1.9,1.4-3.5,2.3c-3.2,1.7-7.9,3.8-13.8,5.7
			c-5.9,1.9-12.9,3.7-20.5,5.1c-3.8,0.7-7.8,1.2-11.8,1.6c-4,0.4-8.2,0.7-12.3,0.8c-4.1,0.1-8.3,0-12.3-0.2c-4.1-0.2-8-0.6-11.9-1.1
			c-7.7-1-14.7-2.6-20.7-4.4c-3-0.9-5.6-1.8-8-2.7c-2.3-0.9-4.4-1.7-6-2.4c-1.7-0.7-2.9-1.3-3.8-1.7
			C273.6,655.9,273.2,655.7,273.2,655.7z"/>
	</g>
	<g>
		<path d="M269.9,473.4c0,0,2.1,0.1,5.8,0.1c1.8,0,4.1,0,6.6,0.1c2.6,0,5.4,0,8.6,0c3.1,0,6.5,0,10.1,0c3.5,0,7.4,0.1,11.3,0.1
			c3.9,0.1,8,0.1,12.2-0.1c4.1-0.2,8.3-0.5,12.5-0.8c4.2-0.4,8.4-0.7,12.5-1c4.1-0.2,8.2-0.5,12.1-0.7c2-0.1,3.9-0.2,5.8-0.3
			c1.9-0.1,3.7-0.1,5.6-0.2c3.6-0.1,7-0.1,10.2-0.1c6.3,0,11.6,0.1,15.3,0.2c1.8,0.1,3.3,0.1,4.3,0.2c1,0.1,1.5,0.1,1.5,0.1l0,0.3
			c0,0-0.5,0.1-1.5,0.2c-1,0.1-2.4,0.3-4.3,0.5c-3.7,0.4-8.9,0.9-15.2,1.3c-3.1,0.2-6.6,0.4-10.2,0.6c-1.8,0.1-3.7,0.2-5.6,0.2
			c-1.9,0.1-3.8,0.1-5.8,0.2c-3.9,0.1-8,0.1-12.1,0.2c-4.1,0.1-8.3,0-12.6,0c-4.2-0.1-8.4-0.1-12.5,0.1c-4.1,0.1-8.2,0.4-12.1,0.8
			c-3.9,0.3-7.7,0.8-11.4,0.9c-3.6,0.1-7.1,0-10.2-0.1c-3.2-0.2-6.1-0.3-8.6-0.6c-2.6-0.2-4.8-0.5-6.6-0.8c-1.8-0.3-3.3-0.5-4.2-0.8
			c-1-0.2-1.5-0.3-1.5-0.3L269.9,473.4z"/>
	</g>
</g>
</svg>
