<?xml version="1.0" encoding="utf-8"?>
<!-- Generator: Adobe Illustrator 19.2.0, SVG Export Plug-In . SVG Version: 6.00 Build 0)  -->
<svg version="1.1" id="Layer_1" xmlns="http://www.w3.org/2000/svg" xmlns:xlink="http://www.w3.org/1999/xlink" x="0px" y="0px"
	 viewBox="0 0 460 309.5" style="enable-background:new 0 0 460 309.5;" xml:space="preserve">
<style type="text/css">
	.st0{fill:none;stroke:#000000;stroke-width:5;stroke-miterlimit:10;}
	.st1{opacity:0.9;fill:url(#SVGID_1_);enable-background:new    ;}
	.st2{fill:#6C8036;}
	.st3{fill:none;stroke:#000000;stroke-width:2;stroke-miterlimit:10;}
</style>
<path class="st0" d="M6588.6-961.1c0.3,38.5,0.2,82.4-5.7,120.5c-2.3,14.7-3.7,31.7-10.6,44.9c-9.4,17.9-18.6,35.9-34,49.5
	c-5.5,4.9-11.5,9.2-17.9,12.8c-4.2,2.3-15.3,5.1-15.9,10.8c-0.4,3.6,3.8,5.7,6.9,7.6c6.9,4.3,10.9,12.3,11.6,20.4
	c1.5,15.4-5.6,30.7-18.9,38.8c-0.8,0.5-1.6,1-1.9,1.8c-0.7,2.1,2.1,3.4,4.2,3.8c12.1,2.1,24,5,35.7,8.7c7.7,2.4,24.3,10.6,12,18.5
	c-7.7,4.9-17,6.2-26,7.3c-24.7,3.1-49.7,6.2-74.5,3.9c-5.6-0.5-11.2-1.4-16.8-2.2l-22.5-3.3c-5.3-0.8-11.8-2.7-12.7-7.9
	c-1.7-10.2,16.6-15.1,23.6-17.2c4.9-1.5,36.5-4.6,35.6-9.3c-0.5-2.4-2.8-3.9-4.8-5.4c-8.9-6.4-15-16.4-16.6-27.2
	c-1.6-10.8,1.3-22.2,7.9-30.9c2.2-2.9,4.9-6,4.4-9.6c-0.2-1.5-1-2.9-2-4.1c-5.1-6.7-15.9-9.5-22.8-14.7c-7.9-6-15.2-12.8-21.6-20.4
	c-12.5-14.5-22.1-31.5-27.6-49.9c-5.2-17.2-6.9-35.3-8.2-53.2c-2.3-31-3.6-62-3.8-93.1c20.2-2.4,42-1.8,62.4-1.4
	C6480.9-960.5,6588.6-963.2,6588.6-961.1L6588.6-961.1z"/>
<path d="M6462-646.2v1.9c0,0.6,0.1,1.3,0.6,1.9c0.4,0.6,1.2,0.8,2.2,0.8c2.1-0.1,4.5-0.2,7.1-0.2c1.3,0,2.7-0.1,4-0.1
	c1.4-0.1,2.8-0.1,4.1-0.2c1.4-0.1,2.8-0.1,4.1-0.2c1.4-0.1,2.7-0.1,4-0.2c2.6-0.1,5-0.2,7.1-0.3c2-0.1,3.7-0.6,4.6-1.3
	c0.4-0.4,0.7-0.8,0.8-1.1c0.1-0.3,0.2-0.5,0.2-0.5v0.5c-0.1,0.3-0.2,0.8-0.6,1.3s-1.1,1-1.9,1.4c-0.8,0.4-1.8,0.7-2.8,0.8
	c-2.1,0.4-4.5,0.7-7.1,0.9c-1.3,0.1-2.7,0.3-4,0.4c-1.4,0.1-2.8,0.2-4.2,0.2c-1.4,0-2.8,0.1-4.2,0.1h-4.1c-2.6-0.1-5.1-0.2-7.2-0.4
	c-0.5-0.1-1.1-0.1-1.6-0.4s-0.9-0.7-1.1-1.1c-0.4-0.9-0.4-1.7-0.3-2.3c0.1-0.6,0.2-1.1,0.3-1.4C6461.9-646,6462-646.2,6462-646.2
	L6462-646.2z M6461.6-730.8c0,0,0.6,0.2,1.6,0.5c0.5,0.2,1.2,0.3,1.9,0.5s1.6,0.4,2.4,0.5c0.9,0.2,1.9,0.3,2.9,0.5
	c1,0.1,2.1,0.2,3.3,0.3c1.1,0.1,2.3,0.1,3.5,0.2h3.6c1.2,0,2.5,0,3.7-0.1c1.2,0,2.4-0.1,3.6-0.1c2.3-0.1,4.5-0.1,6.3-0.3
	c1.8-0.2,3.2-0.6,4.1-1.2c0.4-0.3,0.8-0.6,1-0.8l0.3-0.3c0,0-0.1,0.1-0.2,0.4c-0.2,0.3-0.4,0.6-0.8,1c-0.8,0.8-2.3,1.6-4.2,2
	c-0.9,0.2-2,0.4-3,0.5c-1.1,0.1-2.2,0.3-3.3,0.4l-3.6,0.3c-1.2,0.1-2.5,0.1-3.7,0.2c-1.3,0-2.5,0-3.7-0.1c-0.6,0-1.2-0.1-1.8-0.1
	c-0.6-0.1-1.2-0.1-1.8-0.2c-1.2-0.1-2.3-0.4-3.4-0.6c-0.5-0.1-1-0.3-1.5-0.4c-0.5-0.2-1-0.3-1.4-0.4c-1.8-0.6-3.2-1.3-4.2-1.8
	C6462.2-730.5,6461.6-730.8,6461.6-730.8L6461.6-730.8z M6411.5-628.7l0.3,0.3c0.2,0.2,0.5,0.4,1,0.6c0.9,0.5,2.3,1,4.2,1.4
	c1.9,0.4,4.2,0.7,6.8,1.1c2.6,0.4,5.6,0.7,8.9,1.1c3.3,0.3,6.8,0.7,10.6,1c3.7,0.3,7.7,0.5,11.8,0.7c8.2,0.3,17,0.5,25.7,0.6
	c4.4,0.1,8.8,0.1,13.1,0.2c4.3,0,8.5,0.1,12.6,0c4.1-0.1,8-0.4,11.7-0.8c3.7-0.5,7.2-1.1,10.4-1.7c6.4-1.4,11.6-3,15.2-4.3
	c1.8-0.7,3.2-1.2,4.2-1.6l1.5-0.6c0,0-0.5,0.2-1.4,0.7c-0.9,0.4-2.3,1.1-4.1,1.8c-3.5,1.5-8.7,3.5-15.1,5.1
	c-6.4,1.6-14.1,2.9-22.3,3.2c-4.1,0.2-8.4,0.2-12.7,0.2c-4.3,0-8.7-0.1-13.1-0.1c-4.4-0.1-8.8-0.2-13.1-0.3
	c-4.3-0.1-8.6-0.4-12.7-0.6c-4.1-0.3-8.1-0.6-11.8-1c-3.8-0.4-7.3-0.8-10.6-1.3c-1.6-0.3-3.2-0.5-4.7-0.7c-1.5-0.3-2.9-0.5-4.2-0.8
	c-2.6-0.5-4.9-1-6.8-1.5s-3.3-1.1-4.1-1.7c-0.4-0.3-0.7-0.5-0.9-0.7C6411.6-628.6,6411.5-628.7,6411.5-628.7L6411.5-628.7z"/>
<linearGradient id="SVGID_1_" gradientUnits="userSpaceOnUse" x1="6378.7998" y1="-1346.2793" x2="6584.7002" y2="-1346.2793" gradientTransform="matrix(1 0 0 1 0 507)">
	<stop  offset="1.800000e-02" style="stop-color:#801FE3"/>
	<stop  offset="1" style="stop-color:#B7A7FF"/>
</linearGradient>
<path class="st1" d="M6378.8-932.9c1.4,24.4,2.7,48.8,4.1,73.2c0.4,7.9,0.9,15.9,2.2,23.7c1.8,11.1,5.4,21.8,8.9,32.5
	c3,9.1,6,18.2,11.1,26.3c17.8,28.1,51.5,32.7,81.9,31.3c10.6-0.5,21.3-1.5,31.5-4.7c66.9-21.3,65.2-117,66.1-172.7
	c0-2.6,0.1-5.1,0.1-7.7C6516-928.8,6447.2-927,6378.8-932.9L6378.8-932.9z"/>
<path d="M6373.7-952.6c0,0,0.6,8.1,1.5,22.2c0.5,7.1,1,15.6,1.7,25.5c0.6,9.8,1.4,20.9,2.1,33.1c0.4,6.1,0.7,12.4,1.3,18.9
	c0.5,6.5,1.4,13.2,3,19.9c1.6,6.7,3.7,13.5,6,20.4c2.4,6.9,4.5,14,7.5,20.9c0.8,1.7,1.5,3.4,2.4,5.1c0.9,1.6,1.8,3.3,2.8,4.8
	c1.1,1.6,2.2,3.1,3.4,4.7c1.2,1.4,2.5,2.8,3.7,4.3c5.3,5.5,11.7,10,18.8,13.2c7.1,3.3,14.8,5.4,22.6,6.6c7.9,1.3,15.9,1.7,23.9,1.7
	c8-0.1,16.1-0.4,24-1.5c3.9-0.5,7.9-1.2,11.7-2.2c1-0.3,1.9-0.5,2.8-0.8l0.7-0.2h0.1l0.2-0.1l0.4-0.1l1.4-0.5l2.8-1
	c0.5-0.2,0.9-0.3,1.4-0.5l1.3-0.6c7.1-3.1,13.7-7.4,19.4-12.5c5.7-5.1,10.5-11.1,14.4-17.5c4-6.3,7.1-13.1,9.7-19.8
	c2.6-6.8,4.6-13.6,6.3-20.3c3.2-13.5,5-26.5,6.2-38.5c1.1-12.1,1.7-23.2,2-33c0.3-9.9,0.5-18.4,0.7-25.5c0.2-14.2,0.4-22.2,0.4-22.2
	s0,2,0.1,5.8c0,3.8,0.1,9.4,0.2,16.4c0,7.1,0,15.7-0.2,25.5c-0.1,9.9-0.5,21-1.5,33.1c-1,12.1-2.6,25.2-5.7,38.9
	c-1.6,6.8-3.6,13.7-6.1,20.6c-2.5,6.9-5.7,13.8-9.8,20.3c-4,6.5-9,12.7-14.8,18.1c-5.9,5.4-12.7,9.8-20.2,13.1l-1.4,0.6
	c-0.5,0.2-0.9,0.4-1.4,0.5l-2.8,1l-1.4,0.5l-0.4,0.1l-0.2,0.1l-0.2,0.1l-0.7,0.2c-1,0.3-2,0.6-2.9,0.8c-3.9,1-8,1.8-12,2.4
	c-8.1,1.1-16.2,1.5-24.4,1.6c-8.2,0-16.3-0.5-24.4-1.8c-8-1.3-16-3.5-23.3-7c-7.4-3.4-14.1-8.1-19.6-13.9c-1.3-1.5-2.6-3.1-3.9-4.6
	c-1.1-1.6-2.2-3.2-3.3-4.7c-2.2-3.4-3.9-6.8-5.4-10.4c-3-7.1-5.2-14.2-7.5-21.2c-2.2-7-4.3-13.9-5.8-20.7
	c-1.6-6.9-2.4-13.6-2.8-20.2c-0.5-6.6-0.7-12.9-1-18.9c-0.6-12.1-1.1-23.2-1.6-33.1c-0.5-9.9-0.8-18.4-1.2-25.5
	C6374-944.6,6373.7-952.6,6373.7-952.6L6373.7-952.6z"/>
<path d="M6374.1-937.2c0,0,0.8,0,2.4,0.1s3.8,0.2,6.7,0.3c2.9,0.2,6.4,0.3,10.5,0.5c4,0.2,8.6,0.3,13.6,0.5s10.4,0.3,16.1,0.5
	s11.7,0.2,17.9,0.4c6.2,0.1,12.6,0.1,19.2,0.2c6.5,0.1,13.2,0,19.8,0.1c6.6,0,13.3,0,19.8-0.1s13-0.1,19.2-0.2
	c12.5-0.1,24.1-0.2,34-0.3c10-0.1,18.3-0.1,24.1-0.1h9.1c0,0-0.8,0.1-2.4,0.2c-1.6,0.1-3.8,0.2-6.7,0.4c-5.8,0.3-14.1,0.8-24.1,1.3
	s-21.6,0.9-34,1.3c-6.2,0.1-12.7,0.4-19.2,0.4c-6.5,0.1-13.2,0.1-19.8,0.2c-6.6,0-13.3,0-19.8-0.2c-6.5-0.1-13-0.3-19.2-0.4
	c-6.2-0.2-12.3-0.4-18-0.8c-2.9-0.2-5.6-0.3-8.3-0.5c-2.7-0.2-5.3-0.4-7.8-0.5c-2.5-0.2-4.9-0.3-7.1-0.5c-2.3-0.2-4.4-0.4-6.4-0.6
	c-4-0.4-7.6-0.7-10.4-1c-2.9-0.3-5.2-0.6-6.7-0.7C6374.9-937.1,6374.1-937.2,6374.1-937.2L6374.1-937.2z"/>
<path class="st2" d="M223.8,63.6c-0.9,1.9-1.9,3.7-2.7,5.3c-3.1,7.2-4.3,14.9-8.5,21.5c-0.4,0.7-0.9,1.4-0.7,2.2
	c0.1,0.6,0.5,1,0.9,1.4c1.8,2.2,2.8,5.1,2.7,7.9c0,0.5,0,1,0.2,1.4c0.9,1.4,3,2.4,4.1,3.9c4.5,6.3,13,9.9,20.2,7.3
	c2.6-0.9,4.9-2.7,6.3-5c1.1-1.8,1.7-3.8,2.3-5.9c1.3-4.2,2.5-10.8,5.4-14.2c2.8-3.2,1.8-8.9,5.7-11c1.1-0.6,2.5-0.8,3.1-1.8
	c1-1.7-0.8-4,0-5.7c0.7-1.5,2.8-1.6,3.9-2.9c1.6-1.9,0-5.4,1.9-7.1c1.4-1.3,3.8-0.5,5.5-1.3c3.7-1.8,3.6-6.5,8.9-7.1
	c0.8-0.1,1.6-0.1,2.1-0.8c0.3-0.4,0.3-0.9,0.3-1.4c0.3-3.6,4.6-5.5,7.2-7.6c5.1-4.1,10.4-8.1,16.4-10.7c2.1-0.9,4.3-1.6,5.9-3.2
	c2.8-2.7,2.8-7.1,2.6-11c-0.3-4.9-1.2-10.7-5.6-12.9c-1.6-0.8-3.5-1-5.3-1.1c-4.5-0.4-8.2-1.6-12.2-2.4c-2.9-0.6-1.9-0.6-4.4,0.4
	c-1.1,0.4-1.4,2.2-2.9,1.7c-0.4-0.2-0.7-0.5-1.1-0.7c-1.3-0.9-3.4-0.1-3.9,1.4c-0.2,0.5-0.2,1.2-0.6,1.6c-0.5,0.6-1.5,0.5-2.2,0.6
	c-3.8,0.4-10.4,7.8-13.6,10c-6.3,4.3-12.4,8.9-18.2,13.9c-2,1.8-4,4.3-6.3,5.7c-1.1,0.7-2.9,0.5-3.9,1.3c-1.4,1.2-1,3-2.1,4.5
	c-1,1.4-3.1,1.6-4.3,2.9c-1.7,2-0.6,5.7-2.9,7c-1,0.6-2.4,0.5-2.9,1.5c-0.4,0.7-0.1,1.7,0.1,2.5C225.9,58.4,225,61,223.8,63.6
	L223.8,63.6z"/>
<path class="st3" d="M224.8,67.6c-0.9,1.9-1.9,3.7-2.7,5.3c-3.1,7.2-4.3,14.9-8.5,21.5c-0.4,0.7-0.9,1.4-0.7,2.2
	c0.1,0.6,0.5,1,0.9,1.4c1.8,2.2,2.8,5.1,2.7,7.9c0,0.5,0,1,0.2,1.4c0.9,1.4,3,2.4,4.1,3.9c4.5,6.3,13,9.9,20.2,7.3
	c2.6-0.9,4.9-2.7,6.3-5c1.1-1.8,1.7-3.8,2.3-5.9c1.3-4.2,2.5-10.8,5.4-14.2c2.8-3.2,1.8-8.9,5.7-11c1.1-0.6,2.5-0.8,3.1-1.8
	c1-1.7-0.8-4,0-5.7c0.7-1.5,2.8-1.6,3.9-2.9c1.6-1.9,0-5.4,1.9-7.1c1.4-1.3,3.8-0.5,5.5-1.3c3.7-1.8,3.6-6.5,8.9-7.1
	c0.8-0.1,1.6-0.1,2.1-0.8c0.3-0.4,0.3-0.9,0.3-1.4c0.3-3.6,4.6-5.5,7.2-7.6c5.1-4.1,10.4-8.1,16.4-10.7c2.1-0.9,4.3-1.6,5.9-3.2
	c2.8-2.7,2.8-7.1,2.6-11c-0.3-4.9-1.2-10.7-5.6-12.9c-1.6-0.8-3.5-1-5.3-1.1c-4.5-0.4-8.2-1.6-12.2-2.4c-2.9-0.6-1.9-0.6-4.4,0.4
	c-1.1,0.4-1.4,2.2-2.9,1.7c-0.4-0.2-0.7-0.5-1.1-0.7c-1.3-0.9-3.4-0.1-3.9,1.4c-0.2,0.5-0.2,1.2-0.6,1.6c-0.5,0.6-1.5,0.5-2.2,0.6
	c-3.8,0.4-10.4,7.8-13.6,10c-6.3,4.3-12.4,8.9-18.2,13.9c-2,1.8-4,4.3-6.3,5.7c-1.1,0.7-2.9,0.5-3.9,1.3c-1.4,1.2-1,3-2.1,4.5
	c-1,1.4-3.1,1.6-4.3,2.9c-1.7,2-0.6,5.7-2.9,7c-1,0.6-2.4,0.5-2.9,1.5c-0.4,0.7-0.1,1.7,0.1,2.5C226.9,62.4,226,65.1,224.8,67.6
	L224.8,67.6z"/>
<path d="M224,96.3c0,0-0.1-0.1-0.3-0.4c-0.2-0.3-0.4-0.7-0.6-1.3c-0.3-1.2-0.2-3.1,0.7-5c0.4-1,1.1-1.9,1.8-2.9
	c0.7-0.9,1.4-1.9,2-2.9s1-2.1,1.1-3.3c0.1-1.1-0.2-2.5,0-4.1c0.1-0.8,0.4-1.6,0.9-2.3c0.5-0.7,1.3-1.3,2.2-1.5c0.5-0.1,0.9,0,1.1,0
	h0.1c-0.1,0,0,0,0,0c0.2-0.2,0.3-0.8,0.3-1.4c0-0.4,0.1-0.6,0.1-1c0.1-0.3,0.1-0.7,0.2-1c0.2-0.6,0.4-1.2,0.7-1.8
	c0.5-1.1,1.2-2,1.9-2.8c1.4-1.6,2.7-2.6,3.7-3.4c0.9-0.7,1.5-1.1,1.5-1.1s-0.5,0.5-1.2,1.4c-0.8,0.9-1.9,2.1-3,3.8
	c-0.5,0.8-1.1,1.7-1.5,2.7c-0.2,0.5-0.3,1-0.5,1.6c0,0.3-0.1,0.5-0.1,0.8s0,0.7-0.1,0.9c0,0.6,0,1.4-0.5,2.3
	c-0.2,0.2-0.3,0.4-0.7,0.6c-0.2,0.1-0.5,0.2-0.8,0.3h-0.9c-0.7,0.1-1.4,1.1-1.5,2.2c-0.2,1.1,0,2.4-0.1,3.9s-0.8,2.9-1.5,4
	s-1.6,2.1-2.3,2.9c-0.7,0.9-1.4,1.7-1.9,2.5s-0.9,1.6-1.1,2.4c-0.2,0.7-0.3,1.4-0.2,2c0,0.6,0.2,1,0.3,1.3
	C223.9,96.1,224,96.3,224,96.3L224,96.3z M245.4,77.6c0,0,0-0.1-0.1-0.4c-0.1-0.2-0.2-0.6-0.2-1.1c-0.1-0.9,0-2.4,0.9-3.8
	c0.4-0.7,1.1-1.4,1.7-2s1.3-1.2,1.8-1.9c0.3-0.3,0.4-0.7,0.6-1c0.1-0.2,0.1-0.3,0.1-0.6v-0.6c0-0.9-0.2-1.9-0.1-3.1
	c0.1-0.6,0.3-1.3,0.7-1.9L251,61l0.1-0.1l0.1-0.1l0.1-0.1l0.2-0.2c0.3-0.3,0.6-0.4,0.9-0.5c1.2-0.5,2.2-0.5,3-0.8
	c0.4-0.1,0.8-0.3,1-0.5l0.3-0.2l0.2-0.2c0.1-0.1,0.2-0.3,0.3-0.4c0.4-0.6,0.7-1.4,1-2.1s0.6-1.4,0.9-2s0.7-1.1,1.1-1.4
	c0.2-0.2,0.4-0.3,0.5-0.3c0.2-0.1,0.3-0.1,0.4-0.2c0.2-0.1,0.4-0.1,0.4-0.1s-0.1,0.1-0.3,0.2c-0.1,0-0.2,0.1-0.3,0.3
	c-0.1,0.1-0.3,0.2-0.4,0.4c-0.3,0.3-0.5,0.8-0.6,1.4c-0.2,0.6-0.3,1.3-0.5,2c-0.2,0.8-0.4,1.6-0.9,2.5c-0.1,0.2-0.2,0.4-0.4,0.7
	l-0.3,0.3l-0.3,0.2c-0.5,0.4-1,0.7-1.5,0.9c-1,0.4-2,0.5-2.7,0.9c-0.2,0.1-0.3,0.2-0.4,0.3h-0.1l-0.1,0.1l-0.1,0.1c0.1-0.1,0,0,0,0
	l-0.1,0.1c-0.2,0.3-0.3,0.6-0.3,1c-0.1,0.8,0.1,1.9,0,3v0.4l-0.1,0.5c0,0.2-0.1,0.6-0.3,0.8c-0.2,0.6-0.6,1.1-0.9,1.5
	c-0.7,0.8-1.5,1.4-2.2,1.9s-1.3,1-1.8,1.6c-0.9,1.1-1.3,2.3-1.5,3.2L245.4,77.6L245.4,77.6z M262.8,38.4c0,0,0-0.1-0.1-0.3
	c0-0.2-0.1-0.6,0-1c0.2-0.9,0.9-2.1,2.1-3c0.6-0.5,1.4-0.9,2.1-1.2c0.8-0.4,1.5-0.7,2.3-1.1c0.7-0.4,1.4-0.9,1.8-1.5
	c0.1-0.1,0.3-0.4,0.3-0.5c0.1-0.2,0.2-0.3,0.3-0.5c0.2-0.4,0.3-0.8,0.5-1.2c0.3-0.9,0.6-1.8,1.2-2.8c0.3-0.5,0.7-0.9,1.2-1.3
	s1.1-0.6,1.6-0.7c1.1-0.2,1.9,0,2.5-0.1s1.2-0.6,1.7-1c0.6-0.5,1.1-0.9,1.5-1.2c0.5-0.4,0.9-0.7,1.2-1c0.7-0.5,1.1-0.8,1.1-0.8
	s-0.3,0.4-0.8,1.1c-0.3,0.3-0.6,0.8-0.9,1.2c-0.4,0.5-0.8,1-1.3,1.5c-0.5,0.6-1.1,1.2-2.1,1.6s-2,0.3-2.6,0.4
	c-0.6,0.2-1.1,0.6-1.5,1.3c-0.4,0.7-0.7,1.6-1,2.5c-0.2,0.5-0.4,0.9-0.6,1.4c-0.1,0.2-0.3,0.5-0.4,0.7c-0.2,0.3-0.2,0.3-0.5,0.6
	c-0.7,0.9-1.7,1.4-2.6,1.8s-1.7,0.6-2.5,0.9s-1.4,0.5-2,0.8c-1.2,0.6-2,1.4-2.4,2.2c-0.2,0.4-0.3,0.7-0.3,0.9
	C262.9,38.3,262.8,38.4,262.8,38.4L262.8,38.4z M278.5,39.7c0,0,0-0.1-0.1-0.3c-0.1-0.2-0.2-0.5-0.1-0.9c0-0.8,0.6-1.9,1.7-2.7
	c0.5-0.4,1.2-0.8,2-1c0.7-0.2,1.5-0.4,2.2-0.6s1.4-0.4,2-0.7c0.3-0.2,0.5-0.3,0.8-0.6l0.1-0.1l0.2-0.2c0.1-0.1,0.1-0.2,0.2-0.4
	c0.3-0.6,0.6-1.4,0.9-2.2c0.3-0.8,0.8-1.7,1.7-2.3c0.3-0.2,0.8-0.5,1.2-0.7c0.4-0.2,0.8-0.3,1.2-0.3c0.7-0.2,1.4-0.2,2-0.3
	c0.6-0.1,1.1-0.1,1.6-0.3c0.4-0.1,0.8-0.3,1.1-0.5c0.3-0.2,0.5-0.4,0.6-0.6s0.2-0.2,0.2-0.2s0,0.1-0.1,0.3c0,0.2-0.2,0.5-0.4,0.8
	c-0.2,0.3-0.6,0.6-1.1,0.9s-1,0.5-1.7,0.7c-0.6,0.2-1.3,0.4-1.9,0.6c-0.3,0.1-0.6,0.2-0.9,0.4c-0.3,0.2-0.4,0.2-0.8,0.5
	s-0.7,1-0.9,1.7c-0.3,0.7-0.5,1.5-1,2.4c-0.1,0.2-0.3,0.4-0.4,0.7l-0.2,0.2c-0.1,0.2-0.2,0.2-0.3,0.3c-0.4,0.4-0.8,0.6-1.2,0.9
	c-0.9,0.4-1.8,0.6-2.5,0.7c-0.8,0.1-1.5,0.2-2.2,0.3c-0.6,0.1-1.2,0.3-1.7,0.5c-1,0.5-1.7,1.2-1.9,1.8
	C278.4,39.2,278.6,39.7,278.5,39.7L278.5,39.7z M231.9,106.4c0,0,0.2,0.5,0.8,0.7c0.3,0.1,0.8,0.1,1.1-0.1c0.4-0.2,0.7-0.5,0.9-1
	c0.2-0.5,0.4-1.1,0.5-1.8c0.1-0.7,0.1-1.5,0.5-2.4c0.1-0.2,0.2-0.4,0.3-0.7l0.1-0.3l0.2-0.3c0.3-0.4,0.6-0.8,1-1.1
	c0.7-0.6,1.4-1.1,2-1.6s1-1,1.2-1.6s0.4-1.4,0.5-2.2c0.1-0.8,0.4-1.7,0.9-2.5s1.2-1.2,1.8-1.5c1.2-0.7,2.1-1.1,2.5-1.6
	c0.2-0.3,0.3-0.5,0.4-0.7v-0.3c0,0,0,0.1,0.1,0.3c0,0.2,0,0.5-0.1,0.9c-0.2,0.4-0.5,0.8-0.9,1.2c-0.4,0.4-0.9,0.8-1.3,1.2
	c-0.5,0.4-0.9,0.9-1.2,1.4c-0.3,0.5-0.3,1.2-0.4,2s-0.1,1.6-0.4,2.7c-0.2,0.5-0.4,1-0.7,1.4c-0.3,0.4-0.7,0.8-1,1.1
	c-0.7,0.6-1.4,1.1-2,1.6c-0.3,0.2-0.6,0.5-0.8,0.7l-0.1,0.2l-0.2,0.3c-0.1,0.1-0.2,0.3-0.2,0.4c-0.3,0.6-0.4,1.3-0.6,2.1
	c-0.2,0.7-0.5,1.5-0.9,2.1s-1.1,1.1-1.7,1.2s-1.2-0.1-1.5-0.3c-0.4-0.2-0.5-0.5-0.6-0.7C231.9,106.5,231.9,106.4,231.9,106.4
	L231.9,106.4z"/>
<path class="st0" d="M145.8,57.6c-2.6,27.8-4.1,55.6-4.5,83.5c-0.1,6.6-0.1,13.3,0.7,19.8c2.4,20.7,13.2,40.4,29.3,53.6
	c6.8,5.6,7.8,16.1,3.4,23.7c-5.7,9.9-21.6,11.2-25.3,22c-1.1,3.1-0.9,6.6-0.6,9.9c0.6,8.7,1.2,13.7,1.9,22.1
	c0.1,0.7,0.5,1.4,1.1,1.7c53.4,26.4,129.8,4.5,135.3-4.3c0.1-0.2,0.1-0.3,0.2-0.5c1.4-9.4-1.1-30-2.6-33c-1.5-3.2-4.5-5.5-7.5-7.6
	c-3.5-2.4-17.1-8.5-19.1-12.3c-3.7-6.9-1.9-13.4,2.1-19.8c1-1.5,2.2-2.9,3.5-4.2c10.3-10.1,18-22.5,23.1-35.9
	c5.2-13.7,5.4-28.1,6.3-42.5c1.3-22.8-0.9-46.1-2.9-68.9c-0.3-3.2-0.6-6.4-2-9.2C257.8,60.3,156.5,58.8,145.8,57.6L145.8,57.6z"/>
<path d="M211.4,125.7l2.3,15.2l0.1,0.9l-0.5-0.7l-12.8-16.7l0.8-0.5c1.5,3.2,3.2,6.3,5.1,9.3c0.5,0.7,0.9,1.5,1.4,2.2s1,1.5,1.5,2.2
	c1,1.4,2.2,2.6,3.7,3.3l2.9,1.2h-3.2l-17.1,0.1l0.1-1.6c5.5,1,11,1.7,16.5,2.1l2.5,0.2l-2,1.4c-2.4,1.6-4.7,3.3-6.8,5.2
	c-1.1,1-2.1,2-3,3c-0.4,0.5-0.9,1.1-1.3,1.7c-0.4,0.6-0.8,1.2-1.1,1.8l-1.4-1.2c4.7-3.8,9.2-7.9,13.2-12.4l1.5-1.7l0.1,2.3
	c0.4,5.9,1.2,11.7,2.5,17.5h-1.9l0.2-1.1l0.1-1.1c0.1-0.8,0.1-1.5,0.1-2.3s0-1.6-0.1-2.3c-0.1-0.8-0.2-1.6-0.3-2.3
	c-0.4-3.1-1.2-6.2-2.1-9.3l1.8-0.6c0.7,1.5,1.6,2.8,2.7,4.1s2.3,2.4,3.6,3.6c1.3,1.1,2.6,2.2,3.9,3.4l4,3.3l-1.5,0.9
	c-0.3-1.5-1.4-2.9-2.6-4.2l-3.8-4l-7.7-8l-2-2.1l2.8,0.7c5.5,1.4,11,2.4,16.7,3l5.3,0.6l-5.3,0.8c-0.8,0.1-1.7,0-2.4-0.2
	c-0.8-0.2-1.4-0.5-2.1-0.8l-1-0.4c-0.3-0.1-0.7-0.3-1-0.4c-0.6-0.3-1.3-0.5-2-0.7c-2.7-0.8-5.5-1-8.3-0.8l-2.6,0.2l2.3-1.3
	c2.3-1.3,4.5-2.6,6.6-4.1c1-0.8,2.1-1.6,3-2.4c0.5-0.4,0.9-0.9,1.3-1.4l1.2-1.5l0.2,0.6c-0.4-0.2-1-0.1-1.5,0.1
	c-0.5,0.3-0.9,0.6-1.3,1.1c-0.8,0.9-1.4,1.9-2.1,3c-0.7,1-1.4,2.1-2.2,3c-0.4,0.5-0.9,0.9-1.4,1.3c-0.5,0.4-1.1,0.7-1.8,0.7
	s-1.3-0.4-1.7-1c-0.3-0.6-0.5-1.2-0.6-1.8c-0.3-1.2-0.5-2.4-0.7-3.7C211.9,130.6,211.6,128.1,211.4,125.7L211.4,125.7z M211.4,125.7
	c0.3,2.5,0.7,4.9,1.1,7.4c0.2,1.2,0.5,2.4,0.8,3.6c0.2,0.6,0.3,1.2,0.6,1.7c0.3,0.4,0.9,0.8,1.4,0.8s1.1-0.3,1.5-0.7
	c0.5-0.4,0.9-0.8,1.3-1.3c0.8-1,1.4-2,2.1-3s1.3-2.1,2.1-3.1c0.4-0.5,0.9-0.9,1.5-1.3c0.6-0.3,1.4-0.5,2.1-0.2l0.5,0.2l-0.3,0.4
	c-0.4,0.5-0.8,1.1-1.2,1.6c-0.4,0.5-0.9,1-1.4,1.5c-0.9,0.9-2,1.8-3,2.6c-2.1,1.6-4.4,2.9-6.6,4.3l-0.3-1.1c2.9-0.3,5.9-0.1,8.8,0.7
	c0.7,0.2,1.4,0.4,2.1,0.7c0.4,0.1,0.7,0.3,1,0.4l1,0.4c1.3,0.6,2.6,1,3.8,0.8v1.4c-5.7-0.5-11.4-1.5-16.9-2.8l0.8-1.4l7.7,7.9l3.9,4
	c0.6,0.7,1.3,1.4,1.8,2.3c0.6,0.8,1,1.8,1.2,2.8l0.5,2.5l-2-1.6l-4-3.3c-1.3-1.1-2.7-2.2-4-3.4s-2.6-2.4-3.8-3.7
	c-1.2-1.4-2.2-2.9-3-4.5l1.8-0.6c0.8,3.1,1.7,6.3,2.1,9.5c0.2,1.6,0.4,3.3,0.4,5c0,0.8,0,1.7-0.1,2.5l-0.2,1.3l-0.2,1.2l-0.9,4.9
	l-1.1-4.9c-1.3-5.8-2.1-11.8-2.4-17.8l1.7,0.6c-4.1,4.5-8.7,8.7-13.5,12.5l-3.7,2.9l2.4-4.1c0.4-0.7,0.8-1.3,1.2-1.9
	c0.4-0.6,0.9-1.2,1.4-1.8c1-1.1,2-2.2,3.1-3.2c2.2-2,4.6-3.7,7-5.4l0.4,1.6c-5.6-0.4-11.2-1.2-16.7-2.2l0.1-1.6l17.1,0.2l-0.3,1.3
	c-1.8-0.8-3.1-2.3-4.1-3.7c-0.5-0.7-1-1.5-1.5-2.2s-0.9-1.5-1.4-2.3c-1.8-3.1-3.5-6.2-5-9.4l0.8-0.5l12.3,17l-0.4,0.2L211.4,125.7
	L211.4,125.7z M195.4,80.8c-0.4,1.2-0.8,2.4-1.1,3.6c-0.3,1.2-0.7,2.4-1,3.6c-0.6,2.4-1.2,4.9-1.7,7.3s-1,4.9-1.5,7.3l-1.4,7.4
	l-1.3,7.2l-0.2-7.3l-0.3-15.3l-0.2-15.3h2c0,5.2-0.2,10.3-0.5,15.4s-0.5,10.2-0.4,15.3l-1.6-0.1l0.3-1.9c0.1-0.6,0.2-1.3,0.4-1.9
	c0.3-1.3,0.6-2.5,1-3.7c0.7-2.4,1.6-4.8,2.5-7.2c0.9-2.4,1.8-4.7,2.7-7.1l1.2-3.6C194.7,83.2,195.1,82,195.4,80.8L195.4,80.8z
	 M195.4,80.8c-0.2,1.2-0.5,2.5-0.8,3.7s-0.7,2.5-1,3.7c-0.7,2.4-1.5,4.8-2.3,7.3c-0.8,2.4-1.5,4.8-2.2,7.2c-0.3,1.2-0.6,2.4-0.8,3.7
	l-0.3,1.8l-0.2,1.8l-1.6-0.1c-0.1-2.6-0.2-5.1-0.1-7.7c0-2.6,0.1-5.1,0.2-7.7l0.3-7.6c0.1-2.5,0.1-5.1,0.1-7.6h2l0.1,15.3v15.3
	l-1.5-0.1c1-4.9,2.1-9.8,3.4-14.6l2.1-7.2l1.2-3.6C194.5,83.1,194.9,82,195.4,80.8L195.4,80.8z M163.7,109l0.5,1.7l0.6,1.7
	c0.4,1.1,0.8,2.2,1.3,3.3c0.5,1.1,0.9,2.2,1.4,3.3s1,2.2,1.5,3.2c0.5,1.1,1.1,2.1,1.6,3.2l1.7,3.2l3.5,6.3l3.4,6l-4.8-5
	c-2.3-2.4-4.5-4.9-6.5-7.5c-2.1-2.6-4-5.3-5.8-8.1l1.7-1l1.2,2.1c0.4,0.7,0.8,1.3,1.2,2c0.8,1.3,1.7,2.6,2.6,3.8
	c0.5,0.6,1,1.2,1.5,1.7c0.3,0.2,0.5,0.5,0.8,0.6s0.4,0.1,0.4,0.1s0.2-0.2,0.3-0.4c0-0.1,0-0.2,0.1-0.2v-0.2v0.1l0.1-0.6v-1
	c-0.1-0.3-0.2-0.7-0.2-1.1c-0.2-0.7-0.4-1.4-0.7-2.2l-0.9-2.1c-0.6-1.4-1.4-2.8-2-4.2l-2.2-4.2C165,111.9,164.3,110.5,163.7,109
	L163.7,109z M163.7,109c0.8,1.4,1.7,2.7,2.5,4l2.5,4c0.8,1.3,1.6,2.7,2.4,4.1c0.4,0.7,0.7,1.4,1.1,2.2c0.3,0.7,0.6,1.5,0.9,2.3
	l0.3,1.2l0.1,0.7c0,0.2,0.1,0.5,0,0.7v1c0,0.1-0.1,0.2-0.1,0.3c-0.2,0.4-0.4,1-1.1,1.4c-0.2,0.1-0.3,0.1-0.5,0.2h-0.5
	c-0.3,0-0.6-0.2-0.8-0.3c-0.5-0.2-0.8-0.5-1.1-0.8c-0.7-0.6-1.2-1.2-1.7-1.8c-1-1.3-1.9-2.6-2.8-3.9c-0.4-0.7-0.8-1.4-1.3-2l-1.2-2
	l1.7-1c1.8,2.7,3.7,5.4,5.7,8c1,1.3,2,2.6,3.1,3.8c1,1.3,2.1,2.5,3.2,3.7l-1.4,1c-1.1-2.1-2.2-4.2-3.3-6.4c-1.1-2.2-2.1-4.3-3-6.5
	c-0.5-1.1-0.9-2.2-1.3-3.4c-0.4-1.1-0.8-2.3-1.2-3.4c-0.4-1.1-0.7-2.3-1-3.5C164.1,111.4,163.9,110.2,163.7,109L163.7,109z
	 M166.2,163.4l5.6-0.1l5.6-0.2c1.9-0.1,3.7-0.2,5.6-0.2c1.9-0.1,3.7-0.2,5.6-0.3l1.8-0.1l-1.1,1.5c-0.3,0.4-0.6,0.7-0.9,1
	s-0.7,0.6-1.1,0.8c-0.7,0.5-1.5,0.8-2.3,1.1s-1.5,0.5-2.3,0.7l-1.1,0.3c-0.4,0.1-0.7,0.2-1.1,0.4c-1.4,0.5-2.7,1.2-4,2
	s-2.6,1.7-3.8,2.6l-1.1-1.6l0.9-0.6c0.3-0.2,0.6-0.3,1-0.5c0.7-0.3,1.3-0.5,2-0.8c1.3-0.4,2.7-0.7,4-1.1c1.3-0.3,2.6-0.7,3.7-1.1
	c0.6-0.2,1.2-0.5,1.7-0.8l0.8-0.5l0.7-0.6l-0.2,1c-0.2-0.5-0.8-0.9-1.6-1.2c-0.8-0.3-1.6-0.5-2.4-0.7c-1.7-0.3-3.5-0.5-5.3-0.6
	s-3.6-0.2-5.4-0.2C169.8,163.6,168,163.6,166.2,163.4L166.2,163.4z M166.2,163.4c0.9,0,1.8-0.1,2.7-0.2l2.7-0.2
	c1.8-0.1,3.6-0.3,5.4-0.3s3.6,0,5.5,0.2c0.9,0.1,1.8,0.3,2.8,0.6c0.5,0.2,0.9,0.4,1.4,0.7c0.4,0.3,0.9,0.7,1.2,1.3l0.3,0.6l-0.5,0.4
	l-0.8,0.7l-0.9,0.6c-0.6,0.4-1.3,0.7-1.9,1c-1.3,0.6-2.6,1-3.9,1.3c-1.3,0.4-2.6,0.7-3.8,1.1c-0.6,0.2-1.2,0.4-1.8,0.7
	c-0.3,0.1-0.6,0.3-0.8,0.4l-0.8,0.5l-1.1-1.6c1.3-0.9,2.6-1.8,4-2.6s2.8-1.6,4.4-2.2c0.4-0.1,0.8-0.3,1.1-0.4l1.1-0.3
	c0.8-0.2,1.5-0.4,2.2-0.7c0.7-0.2,1.4-0.5,2-0.9c0.3-0.2,0.6-0.4,0.8-0.6c0.3-0.2,0.5-0.5,0.7-0.7l0.7,1.3c-3.8,0.1-7.5,0.1-11.3,0
	c-1.9-0.1-3.7-0.2-5.6-0.3C169.9,163.8,168.1,163.7,166.2,163.4L166.2,163.4z M194.8,190.3c0.9,0.3,1.8-0.1,2.5-0.5
	c0.7-0.5,1.4-1,2.1-1.6c1.4-1.1,2.7-2.3,4-3.5l4-3.6l3.9-3.6l1,1.1c-0.6,0.5-1.2,1.1-1.8,1.6c-0.6,0.6-1.2,1.1-1.7,1.7
	c-1.1,1.2-2.1,2.4-3.1,3.8c-0.5,0.7-0.9,1.3-1.3,2l-1.2,2.1c-0.8,1.4-1.4,2.9-2,4.4l-1.7-1c2.7-3.1,5.5-6.2,8.2-9.2
	c1.4-1.5,2.7-3,3.8-4.7c0.6-0.8,1-1.7,1.4-2.6c0.2-0.4,0.4-0.9,0.5-1.4s0.3-0.9,0.4-1.4l1.4,0.7c-1.5,1.6-3.2,3-5,4.3l-2.7,1.8
	l-1.3,0.8l-1.2,0.9l-5,4l-2.5,2l-1.3,1C195.7,189.8,195.3,190.1,194.8,190.3L194.8,190.3z M194.8,190.3c0.5-0.2,0.8-0.6,1.2-1
	l1.2-1.1l2.3-2.2c1.6-1.4,3.1-2.9,4.7-4.3c0.4-0.4,0.8-0.7,1.3-1.1l1.3-0.9c0.9-0.6,1.7-1.2,2.6-1.9c1.7-1.3,3.2-2.7,4.5-4.2
	l1.9-2.2l-0.5,3c-0.1,0.5-0.2,1.1-0.4,1.6s-0.3,1-0.5,1.5c-0.4,1-0.9,2-1.5,2.9c-1.2,1.8-2.5,3.4-3.9,5c-2.7,3.1-5.4,6.2-8.2,9.2
	l-3.6,4l1.9-5c0.6-1.6,1.3-3.1,2.2-4.6c0.4-0.7,0.9-1.5,1.3-2.2l1.5-2.1c1-1.4,2.1-2.6,3.3-3.9c1.2-1.2,2.5-2.3,3.8-3.3l1,1.1
	c-1.3,1.2-2.7,2.3-4.1,3.5l-4.2,3.3c-1.4,1.1-2.9,2.1-4.3,3.2c-0.7,0.5-1.4,1.1-2.3,1.5c-0.4,0.2-0.8,0.4-1.3,0.4
	C195.7,190.5,195.2,190.5,194.8,190.3L194.8,190.3z M246.3,171c0.5,3,1,6,1.6,9l0.9,4.5l1,4.5h-1.4c0.3-1.5,0.3-3.1,0.2-4.7
	c-0.2-1.6-0.4-3.3-0.6-4.9l-1.2-9.9l-0.5-4.3l2.3,3.7c1.6,2.5,3.1,5.1,4.8,7.5c1.7,2.4,3.6,4.7,5.7,6.6l-1.4,1
	c-1.5-3.4-3-6.7-4.6-10.1c-0.8-1.7-1.6-3.3-2.4-5s-1.6-3.3-2.5-5l0.5-0.1c-0.3,1.8-0.5,3.6-0.4,5.4c-0.2-1.8-0.3-3.7-0.1-5.5
	l0.1-0.8l0.4,0.7c2,3.1,3.8,6.4,5.6,9.6c1.8,3.3,3.5,6.6,5,10l1.8,3.9l-3.2-2.8c-1.2-1-2.2-2.1-3.3-3.2c-1-1.2-1.9-2.4-2.8-3.6
	c-1.8-2.5-3.4-5-4.9-7.6l1.8-0.6c0.4,3.3,0.7,6.6,1,9.9c0.1,1.7,0.3,3.3,0.4,5s0.1,3.5-0.4,5.2l-0.9,3.1l-0.5-3.2
	c-0.5-3-1-6.1-1.3-9.1C246.7,177.1,246.4,174,246.3,171L246.3,171z M220,89.8c0.3-0.5,0.6-1,1-1.4s0.9-0.8,1.5-0.9
	c-0.3,0.9-0.6,1.7-0.9,2.6s-0.7,1.7-1.1,2.6c-0.4,0.8-0.8,1.7-1.2,2.5c-0.4,0.8-0.8,1.7-1.3,2.5c-1.8,3.3-3.8,6.4-6.1,9.3l-0.8-0.7
	c1.1-1.4,2.3-2.7,3.5-4.1c2.4-2.6,5.1-5.1,7.9-7.3c1.4-1.1,2.9-2.1,4.4-3.1l4.9-3.3l-3.6,4.7c-1.3,1.7-2.7,3.3-4.1,4.9
	s-3,3.1-4.5,4.6c-1.6,1.5-3.2,2.8-4.9,4.1c-1.7,1.3-3.5,2.5-5.3,3.6l-1.4,0.9l0.7-1.5l2.5-5.2c0.8-1.7,1.7-3.5,2.6-5.2
	c0.4-0.9,0.9-1.7,1.4-2.5s1-1.7,1.4-2.5C217.7,92.9,218.8,91.3,220,89.8z M220,89.8c-1.1,1.5-2.2,3.2-3.2,4.8
	c-1,1.7-1.8,3.4-2.6,5.1c-0.8,1.7-1.5,3.5-2.3,5.3l-2.2,5.3l-0.7-0.6c1.7-1.2,3.4-2.5,5-3.9c0.8-0.7,1.6-1.4,2.3-2.1
	c0.8-0.7,1.5-1.5,2.2-2.2c1.5-1.5,2.9-3,4.3-4.6c0.7-0.8,1.4-1.6,2-2.4l2-2.5l1.3,1.4c-1.5,1-2.9,2-4.3,3l-2.1,1.6
	c-0.7,0.5-1.4,1.1-2,1.7c-1.3,1.1-2.7,2.3-4,3.5s-2.5,2.5-3.7,3.8l-0.8-0.7c2.4-2.8,4.6-5.7,6.6-8.9c1-1.6,1.9-3.2,2.7-4.8
	c0.4-0.8,0.8-1.7,1.1-2.5c0.3-0.9,0.7-1.7,1-2.6c-0.6,0.1-1.1,0.4-1.5,0.8C220.6,88.8,220.3,89.3,220,89.8L220,89.8z M257.2,107.4
	c-0.8,0.6-1.7,1.2-2.6,1.8c-0.9,0.6-1.8,1.1-2.7,1.6c-1.8,1-3.7,2-5.6,2.9c-3.8,1.7-7.7,3.2-11.6,4.7l-0.2-1.5l1.5,0.1h1.5l1.5-0.1
	l1.5-0.2c1-0.1,2-0.3,3-0.5l3.1-0.6c1-0.2,2.1-0.4,3.1-0.5c1-0.2,2.1-0.3,3.2-0.4l1.6-0.1h1.6l1.6,0.1l1.6,0.2l1.5,0.2l-0.8,1.3
	c-0.6,1-1.6,1.8-2.6,2.3s-2.1,0.7-3.1,0.9s-2.1,0.2-3.1,0.3l-3,0.2c-4,0.2-8.1,0.4-12.1-0.5l-0.9-0.2l0.4-0.8c0.2-0.5,0.5-1,0.7-1.5
	c0.3-0.4,0.6-0.9,1-1.3s0.7-0.8,1.2-1.1c0.4-0.3,0.8-0.7,1.3-0.9c0.5-0.3,0.9-0.6,1.4-0.8c0.5-0.2,0.9-0.5,1.4-0.6
	c1-0.4,1.9-0.7,2.9-1c2-0.6,3.9-1,5.9-1.5c0.5-0.1,1-0.3,1.5-0.4s1-0.3,1.4-0.5c0.5-0.1,0.9-0.4,1.4-0.5
	C256.3,107.9,256.8,107.6,257.2,107.4L257.2,107.4z M257.2,107.4c-0.4,0.3-0.8,0.6-1.3,0.8c-0.5,0.2-0.9,0.5-1.4,0.7
	s-0.9,0.4-1.4,0.6s-1,0.4-1.4,0.5c-1.9,0.7-3.9,1.2-5.7,1.9c-0.9,0.4-1.9,0.7-2.8,1.1c-0.5,0.2-0.9,0.4-1.3,0.7
	c-0.4,0.2-0.8,0.5-1.2,0.8c-0.4,0.3-0.7,0.6-1.1,0.9s-0.6,0.7-1,1c-0.3,0.4-0.5,0.8-0.8,1.1l-0.5,1.3l-0.6-1
	c3.8,0.7,7.7,0.5,11.7,0.1l3-0.2c1-0.1,1.9-0.1,2.9-0.3c1.8-0.3,3.6-1,4.4-2.3l0.7,1.5l-1.5-0.2l-1.5-0.1h-1.5l-1.5,0.1
	c-1,0.1-2,0.2-3,0.4l-3.1,0.5l-3.1,0.5c-1,0.2-2.1,0.3-3.1,0.4l-1.6,0.1l-1.6,0.1h-1.6l-1.6-0.1l-3.8-0.3l3.6-1.2l5.9-2
	c2-0.7,3.9-1.4,5.8-2.1s3.8-1.5,5.7-2.4c0.9-0.4,1.9-0.9,2.8-1.4C255.4,108.4,256.3,107.9,257.2,107.4z M262,146
	c-1-1.4-1.9-3-2.7-4.5c-0.8-1.6-1.5-3.2-2.3-4.8l0.3-0.1l0.5,1.6l0.6,1.6l0.7,1.5l0.8,1.5c0.5,1,1.1,2,1.7,2.9l1.8,2.9l1.8,2.9
	c0.6,1,1.1,2,1.7,3l0.8,1.6l0.7,1.6l0.6,1.7l0.5,1.7l0.2,0.7l-0.6,0.4c-0.3,0.2-0.6,0.2-0.9,0.2c-0.2,0-0.2,0-0.3-0.1
	c-0.1,0-0.2-0.1-0.2-0.1c-0.1-0.1-0.3-0.2-0.3-0.2c-0.1-0.1-0.2-0.1-0.2-0.2c-0.3-0.3-0.5-0.6-0.7-0.8c-0.4-0.5-0.7-1.1-1-1.6
	c-0.6-1.1-1.1-2.2-1.5-3.3c-0.9-2.2-1.6-4.5-2-6.9c-0.1-0.6-0.2-1.2-0.2-1.8v-1c0-0.3,0.1-0.7,0.4-1.1c0.1-0.2,0.4-0.4,0.7-0.4
	c0.3,0,0.5,0,0.7,0.1c0.4,0.1,0.7,0.3,0.9,0.5c0.5,0.4,0.9,0.8,1.3,1.3c1.6,1.8,2.9,3.8,4.2,5.8l0.2,0.4l-0.4-0.1
	c-0.8-0.3-1.6-0.6-2.4-1.1c-0.7-0.4-1.4-1-2.1-1.5C264.2,148.7,263,147.4,262,146L262,146z M262,146c1,1.4,2.2,2.7,3.5,3.8
	s2.9,1.9,4.5,2.3l-0.2,0.2c-1.5-1.9-2.9-3.7-4.6-5.3c-0.4-0.4-0.9-0.8-1.3-1.1c-0.2-0.1-0.5-0.3-0.6-0.3h-0.2c0,0.1-0.1,0.3-0.1,0.5
	s0,0.5,0.1,0.8c0.1,0.5,0.2,1.1,0.3,1.7c0.3,1.1,0.7,2.2,1.1,3.3s0.8,2.2,1.3,3.2c0.5,1.1,1,2.1,1.5,3.1c0.3,0.5,0.6,1,0.9,1.4
	c0.1,0.2,0.3,0.4,0.4,0.5l0.1,0.1h-0.1c-0.1,0-0.3,0-0.4,0.1l-0.4,1.1l-0.4-1.6l-0.5-1.6c-0.4-1-0.8-2-1.3-3.1l-1.5-3l-1.6-3l-1.6-3
	c-0.5-1-1-2-1.5-3.1l-0.7-1.6l-0.6-1.6l-0.5-1.6l-0.4-1.7l0.3-0.1c0.7,1.6,1.3,3.3,2.1,4.9C260.2,143,261,144.6,262,146L262,146z
	 M181.6,239.2c0,0,0.3,0.1,0.8,0.2c0.5,0.2,1.3,0.4,2.2,0.6c1,0.2,2.2,0.5,3.5,0.8c1.4,0.3,2.9,0.5,4.6,0.7
	c3.4,0.4,7.4,0.7,11.7,0.8c2.1,0.1,4.4,0.1,6.6,0.1s4.5,0,6.8-0.1s4.6-0.2,6.8-0.3l3.3-0.3c1.1-0.1,2.2-0.2,3.2-0.3
	c2.1-0.3,4.2-0.5,6.1-0.9c1.9-0.3,3.8-0.7,5.4-1.1c1.7-0.4,3.2-0.7,4.6-1.1c1.4-0.3,2.5-0.7,3.5-1c1.9-0.6,3-1,3-1s-0.3,0.1-0.7,0.4
	c-0.5,0.2-1.2,0.6-2.1,1s-2.1,0.9-3.4,1.3c-0.7,0.2-1.4,0.5-2.1,0.8c-0.8,0.2-1.5,0.5-2.4,0.7c-3.3,1-7.3,1.9-11.6,2.6
	c-2.1,0.3-4.4,0.6-6.6,0.8c-2.3,0.2-4.6,0.3-6.9,0.4c-2.3,0.1-4.6,0.1-6.9,0c-2.3,0-4.5-0.1-6.7-0.3c-4.3-0.3-8.4-0.8-11.8-1.4
	c-3.4-0.7-6.2-1.6-8.1-2.3c-1-0.4-1.7-0.7-2.2-0.9L181.6,239.2L181.6,239.2z"/>
<path d="M150.8,64.2c0,0-0.2,1.4-0.5,4.1c-0.2,1.3-0.4,3-0.6,5s-0.4,4.2-0.6,6.7c-0.9,10.1-1.5,24.5-0.9,41.8c0.3,8.6,1,18,2.1,27.8
	c0.6,4.9,1.2,10,2,15.1c0.5,2.4,1.4,4.8,2.4,7.2s2.2,4.7,3.6,7c0.7,1.1,1.4,2.2,2.2,3.2c0.8,1.1,1.6,2,2.6,3c1.9,2,3.9,3.8,5.9,5.6
	c4.2,3.6,8.8,6.7,13.8,8.8c2.5,1.1,5.2,1.9,7.9,2.4l1,0.2l0.5,0.1l0.5,0.1l2.1,0.3c1.4,0.2,2.8,0.3,4.2,0.5
	c5.7,0.5,11.4,0.6,17.1,0.3s11.4-1.1,16.9-2.2c5.6-1.2,11.1-2.6,16.4-4.4c5.3-1.9,10.3-4.2,14.9-7.2l1.7-1.1l1.7-1.2l1.5-1.3
	l1.5-1.3c1.9-1.8,3.7-3.9,5.2-6c3-4.3,5.1-9.1,6.7-14c1.5-4.9,2.4-9.9,3-14.7c0.6-4.9,0.9-9.7,1.1-14.3c0.1-2.3,0.2-4.6,0.2-6.9
	c0-2.2,0.1-4.4,0.1-6.6c0-4.3-0.1-8.5-0.3-12.4c-0.1-3.9-0.4-7.7-0.6-11.2c-0.5-7-1.1-13.1-1.6-18.1c-1-10.1-1.6-15.8-1.6-15.8
	s0.2,1.4,0.6,4.1s1,6.6,1.6,11.6s1.4,11.1,2.1,18.1s1.3,14.9,1.5,23.6c0.1,2.2,0.1,4.4,0.1,6.7c0,2.2-0.1,4.6-0.1,6.9
	c-0.1,4.7-0.3,9.5-0.8,14.5s-1.3,10.1-2.8,15.2c-1.5,5.1-3.7,10.2-6.9,14.8c-1.6,2.3-3.4,4.4-5.5,6.4l-1.6,1.4l-1.7,1.4l-1.7,1.3
	l-1.8,1.2c-4.7,3.2-10,5.6-15.4,7.6s-11,3.4-16.7,4.6c-5.7,1.2-11.5,2-17.3,2.4c-5.8,0.3-11.7,0.2-17.5-0.4
	c-1.4-0.1-2.9-0.3-4.3-0.5l-2.1-0.3l-0.5-0.1l-0.6-0.1l-1.1-0.2c-2.9-0.6-5.7-1.5-8.4-2.7c-5.4-2.3-10.2-5.6-14.5-9.3
	c-2.1-1.8-4.2-3.8-6.1-5.8c-0.9-1-2-2.1-2.8-3.2c-0.9-1.1-1.6-2.3-2.4-3.5c-1.4-2.4-2.7-4.9-3.7-7.4s-1.9-5-2.5-7.8
	c-0.7-5.2-1.3-10.3-1.8-15.2c-1-9.9-1.5-19.3-1.6-28c-0.2-8.7,0-16.6,0.4-23.7c0.4-7,0.9-13.2,1.5-18.2c0.1-1.3,0.3-2.4,0.4-3.6
	c0.2-1.1,0.3-2.2,0.4-3.1c0.3-1.9,0.5-3.6,0.7-4.9C150.6,65.6,150.8,64.2,150.8,64.2L150.8,64.2z M153.2,262.3c0,0,0.5,0.2,1.4,0.5
	c0.9,0.4,2.2,0.9,3.9,1.5c1.7,0.6,3.7,1.3,6.1,2.1c2.4,0.7,5.1,1.5,8.1,2.3c3,0.7,6.2,1.5,9.7,2.1s7.1,1.2,10.9,1.6
	c3.8,0.4,7.7,0.7,11.8,0.9c4,0.2,8.1,0.2,12.2,0.1s8.2-0.3,12.2-0.7s7.9-0.9,11.7-1.5c7.6-1.2,14.6-2.8,20.5-4.4
	c5.9-1.7,10.7-3.4,14-4.9c1.6-0.8,2.9-1.4,3.6-2c0.4-0.3,0.7-0.5,0.8-0.7c0.1-0.2,0.2-0.3,0.2-0.3s0,0.1-0.2,0.3
	c-0.1,0.2-0.4,0.5-0.7,0.8c-0.7,0.6-1.9,1.4-3.5,2.3c-3.2,1.7-7.9,3.8-13.8,5.7s-12.9,3.7-20.5,5.1c-3.8,0.7-7.8,1.2-11.8,1.6
	c-4,0.4-8.2,0.7-12.3,0.8c-4.1,0.1-8.3,0-12.3-0.2c-4.1-0.2-8-0.6-11.9-1.1c-7.7-1-14.7-2.6-20.7-4.4c-3-0.9-5.6-1.8-8-2.7
	c-2.3-0.9-4.4-1.7-6-2.4c-1.7-0.7-2.9-1.3-3.8-1.7C153.6,262.5,153.2,262.3,153.2,262.3L153.2,262.3z"/>
<path d="M149.9,80c0,0,2.1,0.1,5.8,0.1c1.8,0,4.1,0,6.6,0.1H181c3.5,0,7.4,0.1,11.3,0.1c3.9,0.1,8,0.1,12.2-0.1
	c4.1-0.2,8.3-0.5,12.5-0.8c4.2-0.4,8.4-0.7,12.5-1c4.1-0.2,8.2-0.5,12.1-0.7c2-0.1,3.9-0.2,5.8-0.3c1.9-0.1,3.7-0.1,5.6-0.2
	c3.6-0.1,7-0.1,10.2-0.1c6.3,0,11.6,0.1,15.3,0.2c1.8,0.1,3.3,0.1,4.3,0.2s1.5,0.1,1.5,0.1v0.3c0,0-0.5,0.1-1.5,0.2
	s-2.4,0.3-4.3,0.5c-3.7,0.4-8.9,0.9-15.2,1.3c-3.1,0.2-6.6,0.4-10.2,0.6c-1.8,0.1-3.7,0.2-5.6,0.2c-1.9,0.1-3.8,0.1-5.8,0.2
	c-3.9,0.1-8,0.1-12.1,0.2s-8.3,0-12.6,0c-4.2-0.1-8.4-0.1-12.5,0.1c-4.1,0.1-8.2,0.4-12.1,0.8c-3.9,0.3-7.7,0.8-11.4,0.9
	c-3.6,0.1-7.1,0-10.2-0.1c-3.2-0.2-6.1-0.3-8.6-0.6c-2.6-0.2-4.8-0.5-6.6-0.8c-1.8-0.3-3.3-0.5-4.2-0.8l-1.5-0.3L149.9,80L149.9,80z
	"/>
</svg>
