<?xml version="1.0" encoding="utf-8"?>
<!-- Generator: Adobe Illustrator 19.2.0, SVG Export Plug-In . SVG Version: 6.00 Build 0)  -->
<svg version="1.1" id="Layer_1" xmlns="http://www.w3.org/2000/svg" xmlns:xlink="http://www.w3.org/1999/xlink" x="0px" y="0px"
	 viewBox="0 0 460 360" style="enable-background:new 0 0 460 360;" xml:space="preserve">
<style type="text/css">
	.st0{fill:none;stroke:#000000;stroke-width:5;stroke-miterlimit:10;}
	.st1{opacity:0.9;fill:url(#SVGID_1_);enable-background:new    ;}
	.st2{fill:url(#SVGID_2_);stroke:#000000;stroke-width:2;stroke-miterlimit:10;}
</style>
<path class="st0" d="M6588.6-910.6c0.3,38.5,0.2,82.4-5.7,120.5c-2.3,14.7-3.7,31.7-10.6,44.9c-9.4,17.9-18.6,35.9-34,49.5
	c-5.5,4.9-11.5,9.2-17.9,12.8c-4.2,2.3-15.3,5.1-15.9,10.8c-0.4,3.6,3.8,5.7,6.9,7.6c6.9,4.3,10.9,12.3,11.6,20.4
	c1.5,15.4-5.6,30.7-18.9,38.8c-0.8,0.5-1.6,1-1.9,1.8c-0.7,2.1,2.1,3.4,4.2,3.8c12.1,2.1,24,5,35.7,8.7c7.7,2.4,24.3,10.6,12,18.5
	c-7.7,4.9-17,6.2-26,7.3c-24.7,3.1-49.7,6.2-74.5,3.9c-5.6-0.5-11.2-1.4-16.8-2.2l-22.5-3.3c-5.3-0.8-11.8-2.7-12.7-7.9
	c-1.7-10.2,16.6-15.1,23.6-17.2c4.9-1.5,36.5-4.6,35.6-9.3c-0.5-2.4-2.8-3.9-4.8-5.4c-8.9-6.4-15-16.4-16.6-27.2
	c-1.6-10.8,1.3-22.2,7.9-30.9c2.2-2.9,4.9-6,4.4-9.6c-0.2-1.5-1-2.9-2-4.1c-5.1-6.7-15.9-9.5-22.8-14.7c-7.9-6-15.2-12.8-21.6-20.4
	c-12.5-14.5-22.1-31.5-27.6-49.9c-5.2-17.2-6.9-35.3-8.2-53.2c-2.3-31-3.6-62-3.8-93.1c20.2-2.4,42-1.8,62.4-1.4
	C6480.9-910,6588.6-912.7,6588.6-910.6L6588.6-910.6z"/>
<path d="M6462-595.7v1.9c0,0.6,0.1,1.3,0.6,1.9c0.4,0.6,1.2,0.8,2.2,0.8c2.1-0.1,4.5-0.2,7.1-0.2c1.3,0,2.7-0.1,4-0.1
	c1.4-0.1,2.8-0.1,4.1-0.2c1.4-0.1,2.8-0.1,4.1-0.2c1.4-0.1,2.7-0.1,4-0.2c2.6-0.1,5-0.2,7.1-0.3c2-0.1,3.7-0.6,4.6-1.3
	c0.4-0.4,0.7-0.8,0.8-1.1c0.1-0.3,0.2-0.5,0.2-0.5v0.5c-0.1,0.3-0.2,0.8-0.6,1.3s-1.1,1-1.9,1.4c-0.8,0.4-1.8,0.7-2.8,0.8
	c-2.1,0.4-4.5,0.7-7.1,0.9c-1.3,0.1-2.7,0.3-4,0.4c-1.4,0.1-2.8,0.2-4.2,0.2c-1.4,0-2.8,0.1-4.2,0.1h-4.1c-2.6-0.1-5.1-0.2-7.2-0.4
	c-0.5-0.1-1.1-0.1-1.6-0.4s-0.9-0.7-1.1-1.1c-0.4-0.9-0.4-1.7-0.3-2.3c0.1-0.6,0.2-1.1,0.3-1.4C6461.9-595.5,6462-595.7,6462-595.7
	L6462-595.7z M6461.6-680.3c0,0,0.6,0.2,1.6,0.5c0.5,0.2,1.2,0.3,1.9,0.5s1.6,0.4,2.4,0.5c0.9,0.2,1.9,0.3,2.9,0.5
	c1,0.1,2.1,0.2,3.3,0.3c1.1,0.1,2.3,0.1,3.5,0.2h3.6c1.2,0,2.5,0,3.7-0.1c1.2,0,2.4-0.1,3.6-0.1c2.3-0.1,4.5-0.1,6.3-0.3
	s3.2-0.6,4.1-1.2c0.4-0.3,0.8-0.6,1-0.8l0.3-0.3c0,0-0.1,0.1-0.2,0.4c-0.2,0.3-0.4,0.6-0.8,1c-0.8,0.8-2.3,1.6-4.2,2
	c-0.9,0.2-2,0.4-3,0.5c-1.1,0.1-2.2,0.3-3.3,0.4l-3.6,0.3c-1.2,0.1-2.5,0.1-3.7,0.2c-1.3,0-2.5,0-3.7-0.1c-0.6,0-1.2-0.1-1.8-0.1
	c-0.6-0.1-1.2-0.1-1.8-0.2c-1.2-0.1-2.3-0.4-3.4-0.6c-0.5-0.1-1-0.3-1.5-0.4c-0.5-0.2-1-0.3-1.4-0.4c-1.8-0.6-3.2-1.3-4.2-1.8
	C6462.2-680,6461.6-680.3,6461.6-680.3L6461.6-680.3z M6411.5-578.2l0.3,0.3c0.2,0.2,0.5,0.4,1,0.6c0.9,0.5,2.3,1,4.2,1.4
	c1.9,0.4,4.2,0.7,6.8,1.1c2.6,0.4,5.6,0.7,8.9,1.1c3.3,0.3,6.8,0.7,10.6,1c3.7,0.3,7.7,0.5,11.8,0.7c8.2,0.3,17,0.5,25.7,0.6
	c4.4,0.1,8.8,0.1,13.1,0.2c4.3,0,8.5,0.1,12.6,0c4.1-0.1,8-0.4,11.7-0.8c3.7-0.5,7.2-1.1,10.4-1.7c6.4-1.4,11.6-3,15.2-4.3
	c1.8-0.7,3.2-1.2,4.2-1.6l1.5-0.6c0,0-0.5,0.2-1.4,0.7c-0.9,0.4-2.3,1.1-4.1,1.8c-3.5,1.5-8.7,3.5-15.1,5.1
	c-6.4,1.6-14.1,2.9-22.3,3.2c-4.1,0.2-8.4,0.2-12.7,0.2c-4.3,0-8.7-0.1-13.1-0.1c-4.4-0.1-8.8-0.2-13.1-0.3
	c-4.3-0.1-8.6-0.4-12.7-0.6c-4.1-0.3-8.1-0.6-11.8-1c-3.8-0.4-7.3-0.8-10.6-1.3c-1.6-0.3-3.2-0.5-4.7-0.7c-1.5-0.3-2.9-0.5-4.2-0.8
	c-2.6-0.5-4.9-1-6.8-1.5s-3.3-1.1-4.1-1.7c-0.4-0.3-0.7-0.5-0.9-0.7C6411.6-578.1,6411.5-578.2,6411.5-578.2L6411.5-578.2z"/>
<linearGradient id="SVGID_1_" gradientUnits="userSpaceOnUse" x1="6378.7998" y1="304.7888" x2="6584.7002" y2="304.7888" gradientTransform="matrix(1 0 0 -1 0 -484)">
	<stop  offset="1.800000e-02" style="stop-color:#801FE3"/>
	<stop  offset="1" style="stop-color:#B7A7FF"/>
</linearGradient>
<path class="st1" d="M6378.8-882.4c1.4,24.4,2.7,48.8,4.1,73.2c0.4,7.9,0.9,15.9,2.2,23.7c1.8,11.1,5.4,21.8,8.9,32.5
	c3,9.1,6,18.2,11.1,26.3c17.8,28.1,51.5,32.7,81.9,31.3c10.6-0.5,21.3-1.5,31.5-4.7c66.9-21.3,65.2-117,66.1-172.7
	c0-2.6,0.1-5.1,0.1-7.7C6516-878.3,6447.2-876.5,6378.8-882.4L6378.8-882.4z"/>
<path d="M6373.7-902.1c0,0,0.6,8.1,1.5,22.2c0.5,7.1,1,15.6,1.7,25.5c0.6,9.8,1.4,20.9,2.1,33.1c0.4,6.1,0.7,12.4,1.3,18.9
	c0.5,6.5,1.4,13.2,3,19.9c1.6,6.7,3.7,13.5,6,20.4c2.4,6.9,4.5,14,7.5,20.9c0.8,1.7,1.5,3.4,2.4,5.1c0.9,1.6,1.8,3.3,2.8,4.8
	c1.1,1.6,2.2,3.1,3.4,4.7c1.2,1.4,2.5,2.8,3.7,4.3c5.3,5.5,11.7,10,18.8,13.2c7.1,3.3,14.8,5.4,22.6,6.6c7.9,1.3,15.9,1.7,23.9,1.7
	c8-0.1,16.1-0.4,24-1.5c3.9-0.5,7.9-1.2,11.7-2.2c1-0.3,1.9-0.5,2.8-0.8l0.7-0.2h0.1l0.2-0.1l0.4-0.1l1.4-0.5l2.8-1
	c0.5-0.2,0.9-0.3,1.4-0.5l1.3-0.6c7.1-3.1,13.7-7.4,19.4-12.5c5.7-5.1,10.5-11.1,14.4-17.5c4-6.3,7.1-13.1,9.7-19.8
	c2.6-6.8,4.6-13.6,6.3-20.3c3.2-13.5,5-26.5,6.2-38.5c1.1-12.1,1.7-23.2,2-33c0.3-9.9,0.5-18.4,0.7-25.5c0.2-14.2,0.4-22.2,0.4-22.2
	s0,2,0.1,5.8c0,3.8,0.1,9.4,0.2,16.4c0,7.1,0,15.7-0.2,25.5c-0.1,9.9-0.5,21-1.5,33.1c-1,12.1-2.6,25.2-5.7,38.9
	c-1.6,6.8-3.6,13.7-6.1,20.6c-2.5,6.9-5.7,13.8-9.8,20.3c-4,6.5-9,12.7-14.8,18.1c-5.9,5.4-12.7,9.8-20.2,13.1l-1.4,0.6
	c-0.5,0.2-0.9,0.4-1.4,0.5l-2.8,1l-1.4,0.5l-0.4,0.1l-0.2,0.1l-0.2,0.1l-0.7,0.2c-1,0.3-2,0.6-2.9,0.8c-3.9,1-8,1.8-12,2.4
	c-8.1,1.1-16.2,1.5-24.4,1.6c-8.2,0-16.3-0.5-24.4-1.8c-8-1.3-16-3.5-23.3-7c-7.4-3.4-14.1-8.1-19.6-13.9c-1.3-1.5-2.6-3.1-3.9-4.6
	c-1.1-1.6-2.2-3.2-3.3-4.7c-2.2-3.4-3.9-6.8-5.4-10.4c-3-7.1-5.2-14.2-7.5-21.2c-2.2-7-4.3-13.9-5.8-20.7
	c-1.6-6.9-2.4-13.6-2.8-20.2c-0.5-6.6-0.7-12.9-1-18.9c-0.6-12.1-1.1-23.2-1.6-33.1c-0.5-9.9-0.8-18.4-1.2-25.5
	C6374-894.1,6373.7-902.1,6373.7-902.1L6373.7-902.1z"/>
<path d="M6374.1-886.7c0,0,0.8,0,2.4,0.1s3.8,0.2,6.7,0.3c2.9,0.2,6.4,0.3,10.5,0.5c4,0.2,8.6,0.3,13.6,0.5s10.4,0.3,16.1,0.5
	s11.7,0.2,17.9,0.4c6.2,0.1,12.6,0.1,19.2,0.2c6.5,0.1,13.2,0,19.8,0.1c6.6,0,13.3,0,19.8-0.1s13-0.1,19.2-0.2
	c12.5-0.1,24.1-0.2,34-0.3c10-0.1,18.3-0.1,24.1-0.1h9.1c0,0-0.8,0.1-2.4,0.2c-1.6,0.1-3.8,0.2-6.7,0.4c-5.8,0.3-14.1,0.8-24.1,1.3
	s-21.6,0.9-34,1.3c-6.2,0.1-12.7,0.4-19.2,0.4c-6.5,0.1-13.2,0.1-19.8,0.2c-6.6,0-13.3,0-19.8-0.2c-6.5-0.1-13-0.3-19.2-0.4
	c-6.2-0.2-12.3-0.4-18-0.8c-2.9-0.2-5.6-0.3-8.3-0.5c-2.7-0.2-5.3-0.4-7.8-0.5c-2.5-0.2-4.9-0.3-7.1-0.5c-2.3-0.2-4.4-0.4-6.4-0.6
	c-4-0.4-7.6-0.7-10.4-1c-2.9-0.3-5.2-0.6-6.7-0.7C6374.9-886.6,6374.1-886.7,6374.1-886.7L6374.1-886.7z"/>
<radialGradient id="SVGID_2_" cx="323.7846" cy="-393.2568" r="110.019" gradientTransform="matrix(0.8597 0.5108 -0.4205 0.7077 -118.2299 224.374)" gradientUnits="userSpaceOnUse">
	<stop  offset="0.843" style="stop-color:#FFFFFF"/>
	<stop  offset="1" style="stop-color:#3F0D00"/>
</radialGradient>
<path class="st2" d="M444.9,125.3c0.3-7.2,0-44.9-33.1-76.6c-21.4-20.5-49.1-37.4-78.3-42.3c-29.2-4.9-62.5-0.6-88,14.6
	c-12.3,7.4-30.2,26.2-35.5,36.1c9.2,6,25.2,19.7,33.6,26.8c10.7-19,25.1-33.7,46-40c35.3-10.7,58.9-8.8,88,15.8
	c35.5,30,26.8,57.1,25.3,69.6c-1.8,15-12.2,23.7-12.7,23.4c5.9,3.3,34.6,23.5,40.5,26.8C431.8,180,444.2,143.8,444.9,125.3
	L444.9,125.3z"/>
<path d="M221.5,62.2c0,0,3.3-4.1,9-11.3c2.9-3.6,6.4-8,11.1-12.5c4.7-4.4,10.6-8.8,17.6-12.6c3.5-1.9,7.3-3.6,11.2-5.2l3-1.2
	c1.1-0.4,2.1-0.7,3.1-1c2.1-0.7,4.2-1.4,6.4-1.9c8.9-2.3,18.5-3.6,28.4-3.4s20.2,1.5,30.3,4.4c10.1,2.8,19.9,7,29.1,12.3
	c1.2,0.6,2.3,1.4,3.4,2.1l3.4,2.1c2.2,1.5,4.4,2.9,6.6,4.4c4.4,2.9,8.8,5.7,13,8.8c4.2,3.1,8.3,6.3,11.9,10c3.7,3.6,6.8,7.7,9.3,12
	c1.3,2.1,2.4,4.3,3.5,6.5c1,2.3,2,4.4,2.9,6.6c1.8,4.5,3.3,8.9,4.4,13.3c2.3,8.8,3.4,17.4,3.5,25.4c0.2,7.9-0.6,15.2-1.8,21.6
	c-0.3,1.6-0.7,3.1-1,4.6c-0.2,0.7-0.3,1.5-0.5,2.2s-0.4,1.4-0.6,2c-0.4,1.3-0.8,2.6-1.2,3.8c-0.4,1.2-0.9,2.3-1.3,3.4
	c-0.7,2.2-1.7,4-2.4,5.7c-0.4,0.8-0.7,1.6-1.1,2.3c-0.4,0.7-0.7,1.3-1,1.8l-1.8,3.3l1.7-3.4l0.9-1.8c0.3-0.7,0.6-1.5,1-2.3
	c0.7-1.7,1.6-3.5,2.3-5.7c0.4-1.1,0.8-2.2,1.2-3.4c0.4-1.2,0.7-2.5,1.1-3.8c0.2-0.7,0.4-1.3,0.6-2c0.2-0.7,0.3-1.4,0.5-2.2
	c0.3-1.5,0.6-3,0.9-4.6c1.1-6.3,1.6-13.5,1.4-21.4c-0.3-7.9-1.4-16.3-3.8-25c-1.2-4.4-2.7-8.7-4.5-13.1c-0.4-1.1-1-2.2-1.5-3.3
	l-1.5-3.3c-1.1-2.2-2.2-4.3-3.5-6.4c-2.5-4.2-5.5-8.2-9.1-11.7s-7.6-6.7-11.8-9.7s-8.6-5.8-13-8.7c-2.2-1.4-4.4-2.9-6.6-4.3
	l-3.3-2.1c-1.1-0.7-2.2-1.4-3.3-2c-9-5.3-18.7-9.4-28.6-12.3s-20-4.3-29.8-4.5s-19.3,0.9-28,3.1c-2.2,0.5-4.3,1.2-6.4,1.8
	c-1,0.3-2.1,0.6-3.1,1s-2,0.7-3,1.1c-4,1.5-7.7,3.2-11.2,5c-7,3.6-12.9,7.8-17.6,12.1c-4.7,4.3-8.3,8.6-11.3,12.2
	C224.9,58.2,221.5,62.2,221.5,62.2L221.5,62.2z"/>
<path d="M89.6,108.5c0,0,4.2-0.1,11.5-0.2s17.7-0.3,30.3-0.4c6.3,0,13-0.1,20.2-0.2c7.2,0,14.7-0.1,22.6-0.1h24.1
	c8.2,0,16.6,0,24.9,0.1s16.7,0.1,24.9,0.2s16.3,0.2,24.1,0.2c7.8,0.1,15.4,0.2,22.6,0.3c7.2,0.1,14,0.2,20.2,0.3
	c12.5,0.2,23,0.5,30.3,0.7s11.5,0.3,11.5,0.3s-4.2,0.1-11.5,0.2s-17.7,0.3-30.3,0.4c-6.3,0-13,0.1-20.2,0.2
	c-7.2,0-14.7,0.1-22.6,0.1h-24.1c-8.2,0-16.6,0-24.9-0.1s-16.7-0.1-24.9-0.2s-16.3-0.2-24.1-0.2c-7.8-0.1-15.4-0.2-22.6-0.3
	c-7.2-0.1-14-0.2-20.2-0.3c-12.5-0.2-23-0.5-30.3-0.7C93.8,108.7,89.6,108.5,89.6,108.5z"/>
<path class="st0" d="M77.8,68.7c0.3,13.1-0.1,26.3-1.2,39.4c-9.5,2.5-17,11.1-18.4,20.8c-1.5,10.6,4.6,22,14.5,26.3
	c1.4,0.6,2.8,1.6,3.7,2.8c4.7,5.9-1.7,11.2-5.8,15.8c-6,6.7-8,16.7-5.2,25.2s10.3,15.2,19.1,17.1c-7.5,2.3-10.2,12-10.6,19.6
	c-0.4,7.3,1.1,14.6,10.7,19.6c-5,1.8-6.1,6-7.5,9.2c-1.7,3.7-2.3,7.9-1.5,11.9c1.8,9,9.7,16,18.5,18.7c-5.2,15.2,4.3,32.4,17.4,41.8
	c13,9.4,29.4,12.8,45.1,16c12.1,2.4,105.8,5.6,118.7,3.4c38.3-6.4,88.4-17.5,86-65.7c7.9-2.5,14.1-9.8,15.3-18
	c1.2-8.2-1.8-19.6-9.5-21.6c6.8-1.2,10.2-7.4,11.1-13.4c1.9-13.6-6.2-20-14.6-23.2c7.3-1.7,14.8-6.8,16.6-8.6
	c4.8-4.9,9-11.6,7.9-18.8c-1.2-7.9-7.8-13.8-14.3-18.4c-2.5-1.8-5.3-5.1-3.3-7.4c6.1-6.6,13.6-5.4,18.4-14.2
	c4.7-8.5,4.7-17.4,1.5-26.6c-2.8-7.9-9.4-15.6-17.7-15.2c-0.4-14.2,0.5-27.5,1.9-41.6c0.3-3.3-2.5-6-5.7-5.7
	c-95.1,8.4-189.2-0.6-284.7,4.1C80.6,62.2,77.8,65.2,77.8,68.7L77.8,68.7z"/>
<path d="M91.9,78.1l0.7,28.6v0.2l-0.1,0.1c-3.5,1.9-7,4-10.2,6.5c-3.1,2.5-6,5.4-8,8.8c-1.9,3.4-3,7.4-2.9,11.3s1.6,7.8,4.5,10.5
	c2.8,2.7,6.4,4.6,9.8,6.9c1.7,1.1,3.4,2.3,4.9,3.8s2.7,3.3,3.3,5.4c0.1,0.5,0.3,1,0.3,1.6l0.1,0.8v0.8c0,0.6-0.1,1.1-0.1,1.6
	c-0.1,0.5-0.2,1.1-0.4,1.6c-0.6,2.1-1.7,3.9-3,5.5c-2.5,3.3-5.5,6-8.2,9c-1.3,1.5-2.6,3-3.6,4.7c-1,1.6-1.7,3.4-1.8,5.3
	c-0.1,1.8,0.4,3.7,1.3,5.3c0.9,1.6,2.3,3,3.8,4.2c3.1,2.4,6.7,4.1,10.2,6.3c1.8,1.2,3.3,2.7,4.7,4.3c1.3,1.7,2.4,3.5,3,5.7
	c0.6,2.1,0.5,4.6-0.7,6.7c-0.3,0.5-0.7,1-1.1,1.4l-0.6,0.6c-0.2,0.2-0.4,0.4-0.7,0.5c-0.9,0.7-1.8,1.2-2.6,1.7
	c-0.9,0.5-1.6,1-2.3,1.6c-0.1,0.2-0.3,0.3-0.4,0.5l-0.1,0.1l-0.1,0.1l-0.2,0.3c-0.1,0.2-0.3,0.4-0.4,0.6c-0.1,0.2-0.1,0.3-0.2,0.5
	c-0.3,0.8-0.4,1.6-0.3,2.5c0.1,0.9,0.3,1.8,0.6,2.6c0.6,1.7,1.6,3.4,2.8,4.9c0.6,0.8,1.2,1.5,1.9,2.2s1.4,1.5,2.1,2.3
	c1.3,1.6,2.6,3.3,3.5,5.4c0.4,1,0.7,2.2,0.7,3.4s-0.2,2.4-0.6,3.4c-0.2,0.5-0.5,1.1-0.8,1.5l-0.2,0.4l-0.1,0.2
	c-0.1,0.1,0,0.1-0.1,0.2l-0.5,0.6c-0.3,0.4-0.8,0.9-1.1,1.3c-0.4,0.4-0.8,0.7-1.2,1.1c-1.6,1.3-3.3,2.4-4.5,3.8
	c-1.2,1.3-2,2.9-2.2,4.7c-0.1,0.4-0.1,0.9-0.1,1.4v0.6l0.1,0.8c0,0.5,0.1,0.9,0.2,1.3s0.3,0.9,0.4,1.3c1.2,3.4,4.1,6.3,7.2,8.6
	c1.6,1.2,3.2,2.2,4.9,3.2c0.8,0.5,1.8,1,2.7,1.7c0.5,0.4,0.9,0.8,1.3,1.2c0.1,0.1,0.2,0.2,0.3,0.4l0.2,0.3l0.4,0.6l0.4,0.6l0.4,0.7
	c0.2,0.5,0.6,1,0.8,1.5l0.6,1.5l0.5,1.5c0.6,2,1,4.1,1.4,6c0.4,2,0.9,3.8,1.6,5.6c0.7,1.7,1.8,3.3,3,4.6l1,1l1.1,0.9l0.5,0.4
	l0.6,0.4c0.4,0.3,0.8,0.6,1.2,0.8c1.6,1,3.4,2,5.1,2.8c3.6,1.7,7.3,3,11.1,4.1s7.7,2,11.7,2.8s7.9,1.6,11.8,2.2
	c7.9,1.2,15.9,2.1,23.9,2.8s16.1,1.2,24.1,1.7l6,0.4l1.5,0.1l1.5,0.1c1,0,2,0.1,3,0.1c4,0.1,8,0.1,12-0.1c16-0.7,31.9-3.4,47.9-5.6
	c8-1.1,16-2.1,23.7-3.9c7.7-1.8,15.3-4.6,21.5-9.3c3.1-2.3,5.8-5.2,8-8.4c1-1.6,2-3.3,2.8-5.1c0.8-1.7,1.4-3.6,2-5.5s1.2-3.9,2-5.8
	c0.4-1,0.9-1.9,1.4-2.9c0.3-0.5,0.6-0.9,0.9-1.4l0.2-0.3l0.1-0.2l0.1-0.1c0.2-0.2,0.3-0.4,0.5-0.6c1.5-1.7,3-3,4.5-4.3
	s2.8-2.7,3.8-4.2c0.9-1.5,1.4-3.3,1.6-5.2s0.3-3.9,0.2-5.8c-0.1-1.9-0.4-3.8-1.1-5.5c-0.2-0.4-0.4-0.9-0.6-1.2l-0.2-0.3l-0.2-0.2
	c-0.1-0.2-0.2-0.3-0.4-0.5c-0.6-0.7-1.3-1.4-2-2c-0.7-0.7-1.5-1.4-2.2-2.3c-0.7-0.9-1.3-1.9-1.6-3.1l-0.1-0.4c0,0-0.1-0.2-0.1-0.3
	v-1.1c0-0.7,0.1-1.2,0.3-1.8c0.3-1.1,0.9-2.2,1.5-3.1c0.6-0.9,1.3-1.7,2.1-2.5l2.1-2.2c1.3-1.4,2.5-2.9,3.4-4.6
	c0.9-1.6,1.4-3.4,1.3-5.2s-0.8-3.5-1.8-5.2c-0.5-0.8-1.1-1.6-1.7-2.3l-2-2.3c-0.3-0.4-0.7-0.9-1-1.4l-0.1-0.2l-0.1-0.2l-0.1-0.3
	c-0.1-0.2-0.2-0.6-0.3-0.9c-0.3-1.2-0.3-2.4,0-3.5c0.5-2.2,1.7-4.2,3.2-5.7c0.4-0.4,0.8-0.8,1.2-1.1l1.2-0.9
	c0.8-0.6,1.7-1.2,2.5-1.8c1.7-1.2,3.3-2.3,4.8-3.5s2.9-2.6,3.7-4.2c0.9-1.6,1.3-3.5,1.2-5.4c0-0.5-0.1-0.9-0.1-1.4
	c0-0.2,0-0.5-0.1-0.7l-0.2-0.7l-0.3-1.4l-0.5-1.4c-0.2-0.5-0.4-0.9-0.6-1.3c-0.2-0.4-0.4-0.8-0.7-1.2l-0.8-1.2l-0.9-1.2
	c-1.2-1.5-2.6-2.9-4-4.4s-2.8-3-4-4.7c-0.3-0.4-0.6-0.9-0.8-1.3l-0.7-1.4c-0.4-1-0.7-2-0.9-3.1c-0.3-1-0.2-2.1-0.3-3.2l0.1-1.6
	l0.1-0.8c0-0.3,0.1-0.5,0.1-0.8l0.3-1.5l0.5-1.5c0.4-1,0.8-2,1.4-2.8c1.2-1.8,2.8-3.2,4.5-4.4c1.7-1.2,3.5-2.1,5.2-3.1
	s3.3-2.2,4.7-3.6l0.5-0.5c0.1-0.1,0.3-0.4,0.4-0.6c0.2-0.3,0.4-0.8,0.6-1.2c0.3-0.9,0.5-1.8,0.7-2.8c0.4-3.9-0.3-7.9-1.6-11.7
	c-1.3-3.7-3.4-7.3-6.5-9.8c-0.8-0.6-1.6-1.1-2.5-1.6l-1.3-0.8c-0.4-0.3-0.8-0.7-1.2-1.1c-1.4-1.6-2-3.7-2.2-5.7
	c-0.5-4.1,0.1-8.1,0.6-12.1c0.6-4,0.8-8,1.2-12l1-12.1l-0.8,12.1c-0.3,4-0.5,8.1-1,12.1c-0.4,4-1,8-0.5,12c0.3,2,0.9,3.9,2.2,5.4
	c0.3,0.3,0.7,0.6,1,0.9l1.3,0.7c0.9,0.4,1.8,1,2.6,1.6c3.3,2.6,5.4,6.2,6.9,10.1c1.4,3.8,2.2,8,1.8,12.1c-0.1,1-0.3,2.1-0.7,3.1
	c-0.2,0.5-0.4,1-0.7,1.5c-0.2,0.2-0.3,0.4-0.5,0.6l-0.5,0.6c-1.4,1.5-3.1,2.8-4.8,3.8c-1.7,1.1-3.5,2-5.1,3.2
	c-1.6,1.1-3.1,2.4-4.1,4c-0.5,0.8-0.9,1.7-1.3,2.6l0.2,1.3l-0.3,1.5c0,0.2-0.1,0.5-0.1,0.7l-0.1,0.7l-0.1,1.4c0.1,1,0,1.9,0.3,2.8
	c0.1,0.9,0.5,1.8,0.8,2.7l0.7,1.3c0.2,0.4,0.5,0.8,0.8,1.2c1.1,1.6,2.5,3,3.9,4.4c2.8,2.8,5.9,5.8,7.5,9.9l0.5,1.4
	c0.2,0.6,0.3,1,0.4,1.6l0.2,0.8c0,0.3,0.1,0.5,0.1,0.8c0.1,0.5,0.2,1.1,0.2,1.6c0.1,2.1-0.3,4.4-1.4,6.3c-1,1.9-2.6,3.5-4.2,4.8
	s-3.3,2.5-4.9,3.6c-0.8,0.6-1.6,1.2-2.4,1.7l-1.2,0.9c-0.4,0.3-0.7,0.6-1,0.9c-1.3,1.3-2.3,3-2.6,4.7c-0.4,1.8,0,3.4,1.3,4.8l2,2.3
	c0.7,0.8,1.3,1.6,1.9,2.6c1.1,1.8,2,3.9,2.2,6.1c0.2,2.3-0.5,4.5-1.5,6.4s-2.3,3.6-3.8,5.1l-2.1,2.2c-0.7,0.7-1.3,1.4-1.8,2.2
	s-0.9,1.6-1.2,2.3c-0.1,0.4-0.2,0.8-0.2,1.2v1l0.1,0.3c0.4,1.6,1.7,2.9,3.2,4.2c0.7,0.7,1.5,1.4,2.2,2.2c0.3,0.4,0.8,1,1,1.4
	c0.3,0.5,0.5,1,0.8,1.5c0.9,2,1.2,4.2,1.4,6.3c0.1,2.1,0,4.2-0.2,6.3c-0.3,2.1-0.8,4.3-2,6.2c-2.4,3.9-6.1,6-8.5,8.8
	c-2.5,2.8-3.5,6.6-4.7,10.5c-0.6,1.9-1.2,3.9-2.2,5.8c-0.8,1.9-1.9,3.7-3,5.5c-2.3,3.5-5.2,6.6-8.6,9.1c-6.7,5.1-14.6,8-22.5,9.9
	c-8,1.9-16,2.9-24,4c-15.9,2.3-31.9,5-48.2,5.8c-4.1,0.2-8.1,0.2-12.2,0.1c-1,0-2-0.1-3-0.1l-1.5-0.1l-1.5-0.1l-6-0.4
	c-8.1-0.5-16.1-1.1-24.2-1.8s-16.1-1.6-24.1-2.9c-4-0.6-8-1.4-12-2.3c-4-0.9-7.9-1.8-11.9-2.9c-3.9-1.1-7.8-2.5-11.5-4.3
	c-1.9-0.9-3.7-1.9-5.5-3.1c-0.5-0.3-0.8-0.6-1.3-0.9l-0.6-0.4l-0.7-0.5l-1.2-1l-1.1-1.2c-1.5-1.6-2.7-3.4-3.5-5.4s-1.3-4.1-1.7-6.1
	s-0.8-3.9-1.3-5.8l-0.4-1.4l-0.5-1.3c-0.2-0.5-0.4-0.8-0.6-1.2l-0.3-0.6l-0.4-0.6l-0.4-0.6l-0.2-0.3l-0.1-0.2l-0.9-0.9
	c-0.7-0.5-1.5-1-2.4-1.5c-1.8-1-3.5-2.2-5.2-3.4c-1.7-1.3-3.3-2.6-4.7-4.3c-1.4-1.6-2.6-3.5-3.4-5.6c-0.2-0.5-0.4-1-0.5-1.6
	s-0.2-1.2-0.3-1.7l-0.1-0.8v-0.9c0-0.6,0-1.1,0.1-1.7l0.1-0.8l0.2-0.8c0.1-0.6,0.4-1.1,0.6-1.6c0.5-1,1.2-2,1.9-2.8
	c1.5-1.7,3.3-2.8,4.7-4c0.4-0.3,0.7-0.6,1.1-0.9c0.3-0.3,0.6-0.6,0.9-1l0.5-0.6l0.3-0.5c0.3-0.4,0.4-0.8,0.6-1.2
	c0.3-0.8,0.5-1.6,0.5-2.5c0-0.8-0.2-1.7-0.5-2.5c-0.6-1.7-1.8-3.2-3-4.8c-0.6-0.7-1.3-1.5-2-2.2c-0.7-0.8-1.4-1.6-2-2.4
	c-1.3-1.7-2.4-3.5-3.1-5.6c-0.4-1-0.6-2.1-0.7-3.3c-0.1-1.1,0.1-2.3,0.5-3.4l0.4-0.9c0.1-0.3,0.3-0.4,0.4-0.7l0.2-0.3l0.2-0.2
	l0.1-0.2l0.6-0.6c0.8-0.8,1.8-1.4,2.7-1.9c1.8-1,3.4-2,4.3-3.4c0.9-1.5,1-3.3,0.5-5c-1-3.5-3.7-6.7-6.8-8.9c-3.3-2.2-7-3.9-10.3-6.5
	c-1.6-1.3-3.2-2.8-4.3-4.7c-0.2-0.5-0.5-0.9-0.7-1.5l-0.3-0.8c-0.1-0.3-0.1-0.5-0.2-0.7c-0.3-1.1-0.3-2.2-0.3-3.3
	c0.2-2.2,1-4.3,2.1-6.1s2.4-3.4,3.8-4.9c2.8-3,5.8-5.7,8.2-8.8c1.2-1.6,2.2-3.2,2.8-5c0.2-0.4,0.2-0.9,0.3-1.4
	c0-0.5,0.1-0.9,0.1-1.4v-0.7l-0.1-0.8c0-0.4-0.2-0.9-0.3-1.4c-0.5-1.8-1.5-3.4-2.9-4.8c-1.3-1.4-2.9-2.6-4.6-3.7
	c-3.3-2.2-6.9-4.2-9.9-7.2c-1.5-1.5-2.7-3.2-3.5-5.1s-1.2-4-1.2-6.1c-0.1-4.1,1.1-8.2,3.2-11.8c2.1-3.5,5-6.5,8.3-8.9
	c3.2-2.5,6.8-4.5,10.3-6.4l-0.1,0.2L91.9,78.1L91.9,78.1z"/>
<path d="M98.7,163.6c0,0,3.9,0.8,10.8,2.2c1.7,0.3,3.6,0.7,5.7,1.2c2.1,0.4,4.3,0.8,6.7,1.2c4.8,0.8,10.2,1.8,16.1,2.7
	c3,0.5,6,0.9,9.2,1.4c3.2,0.4,6.5,0.8,9.9,1.3c6.8,0.9,14,1.5,21.5,2.3c3.7,0.4,7.5,0.6,11.4,0.9c1.9,0.1,3.9,0.3,5.8,0.4
	c1.9,0.1,3.9,0.2,5.9,0.2c3.9,0.1,7.9,0.4,11.9,0.4s8,0.1,12,0.1h3l3-0.1c2,0,4-0.1,6-0.1s4-0.1,6-0.1c2-0.1,3.9-0.2,5.9-0.3
	c3.9-0.2,7.8-0.4,11.7-0.7c3.8-0.3,7.6-0.7,11.4-1c0.9-0.1,1.9-0.2,2.8-0.3l2.7-0.3c1.8-0.2,3.6-0.4,5.4-0.7
	c3.6-0.4,7.1-0.8,10.5-1.4c3.4-0.5,6.7-1,9.9-1.5c0.8-0.1,1.6-0.3,2.4-0.4c0.8-0.2,1.6-0.3,2.3-0.4l4.5-0.9c2.9-0.6,5.8-1.1,8.4-1.6
	c2.7-0.6,5.2-1.2,7.6-1.7s4.6-1,6.7-1.5s3.9-1,5.6-1.4c6.8-1.8,10.6-2.8,10.6-2.8s-3.8,1.1-10.5,3.1c-1.7,0.5-3.5,1.1-5.6,1.6
	c-2,0.5-4.3,1.1-6.6,1.7c-2.4,0.6-4.9,1.2-7.5,1.9c-2.7,0.6-5.5,1.2-8.4,1.8l-4.5,0.9c-0.8,0.2-1.5,0.3-2.3,0.5
	c-0.8,0.1-1.6,0.3-2.4,0.4c-3.2,0.6-6.5,1.1-9.9,1.7c-3.4,0.6-6.9,1.1-10.5,1.6c-1.8,0.2-3.6,0.5-5.4,0.7c-0.9,0.1-1.8,0.2-2.8,0.4
	c-0.9,0.1-1.9,0.2-2.8,0.3c-3.7,0.4-7.5,0.7-11.4,1.1c-3.9,0.3-7.8,0.5-11.7,0.8c-2,0.1-3.9,0.2-5.9,0.3s-4,0.1-6,0.2s-4,0.1-6,0.2
	s-4,0.1-6,0.1c-4-0.1-8-0.1-12-0.2s-8-0.3-11.9-0.5c-2-0.1-3.9-0.2-5.9-0.3c-1.9-0.1-3.9-0.3-5.8-0.4c-3.9-0.3-7.7-0.5-11.4-0.9
	c-7.5-0.8-14.7-1.5-21.5-2.6c-3.4-0.5-6.7-0.9-9.9-1.4c-3.2-0.5-6.3-1.1-9.2-1.6c-5.9-0.9-11.3-2.1-16.1-3.1c-2.4-0.5-4.6-1-6.7-1.4
	c-2.1-0.5-3.9-0.9-5.6-1.3C102.6,164.5,98.7,163.6,98.7,163.6L98.7,163.6z M104.4,222.5c0,0,0.9,0.2,2.6,0.5
	c1.7,0.4,4.3,0.9,7.5,1.5c6.4,1.4,15.6,3.3,26.7,5.2c5.5,1,11.6,1.8,17.9,2.7c6.4,0.7,13.1,1.4,20.1,2c1.7,0.1,3.5,0.3,5.3,0.4
	l5.4,0.3c3.6,0.2,7.3,0.4,10.9,0.6c3.7,0.2,7.4,0.3,11.1,0.4c3.7,0.1,7.5,0.2,11.2,0.2l5.6,0.1h5.6c3.7,0,7.5,0,11.1-0.1
	c3.7-0.1,7.3-0.2,10.9-0.4s7.2-0.3,10.7-0.6c1.7-0.1,3.5-0.3,5.2-0.4c1.7-0.2,3.4-0.3,5.1-0.5s3.3-0.3,5-0.5
	c1.6-0.2,3.3-0.4,4.9-0.6c6.4-0.7,12.4-1.7,17.9-2.7c5.5-1.1,10.5-2.2,14.9-3.4c1.1-0.3,2.2-0.6,3.2-0.9c1-0.3,2-0.6,2.9-0.9
	c1.9-0.6,3.6-1.3,5.1-1.8c1.5-0.6,2.9-1.2,4-1.7c1.1-0.6,2.1-1,2.9-1.4c1.5-0.9,2.3-1.4,2.3-1.4s-0.8,0.5-2.3,1.5
	c-0.8,0.4-1.7,0.9-2.8,1.6c-1.2,0.5-2.5,1.2-4,1.8s-3.2,1.4-5.1,2c-0.9,0.3-1.9,0.7-2.9,1s-2.1,0.7-3.2,1c-2.2,0.7-4.5,1.3-7,2
	s-5.1,1.2-7.9,1.8c-5.5,1.1-11.5,2.2-17.9,3.1c-1.6,0.2-3.2,0.4-4.9,0.7c-1.6,0.2-3.3,0.4-5,0.6c-1.7,0.2-3.4,0.4-5.1,0.5
	s-3.5,0.3-5.2,0.4c-3.5,0.3-7.1,0.5-10.7,0.7s-7.3,0.3-11,0.4c-3.7,0.1-7.4,0.2-11.2,0.2h-5.6l-5.6-0.1c-3.8-0.1-7.5-0.1-11.2-0.3
	c-3.7-0.1-7.5-0.2-11.2-0.4s-7.4-0.4-11-0.6c-1.8-0.1-3.6-0.2-5.4-0.4s-3.6-0.3-5.3-0.5c-7-0.6-13.8-1.4-20.2-2.3
	c-6.4-0.9-12.4-1.9-17.9-3c-5.5-1-10.6-2.2-15-3.2c-4.4-1.1-8.3-2-11.5-2.7C108,223.3,104.4,222.5,104.4,222.5L104.4,222.5z
	 M112.3,254.9c0,0,3.6,0.9,9.9,2.4c1.6,0.4,3.3,0.8,5.2,1.3c1.9,0.4,4,0.9,6.2,1.3c4.4,0.9,9.3,2.1,14.8,3c2.7,0.5,5.5,1,8.5,1.6
	c2.9,0.5,6,0.9,9.1,1.4c6.2,1.1,12.9,1.7,19.7,2.6c3.4,0.4,6.9,0.6,10.5,0.9c1.8,0.1,3.5,0.3,5.3,0.4c1.8,0.1,3.6,0.2,5.4,0.2
	c1.8,0.1,3.6,0.2,5.4,0.2l2.7,0.1h13.7c3.7-0.1,7.4-0.2,11-0.3l2.7-0.1l2.7-0.2c1.8-0.1,3.6-0.3,5.4-0.4c1.8-0.1,3.6-0.3,5.4-0.4
	c1.8-0.2,3.6-0.4,5.3-0.6c3.5-0.4,7-0.7,10.4-1.2c6.8-1,13.4-1.9,19.7-3.1c3.1-0.6,6.2-1.1,9.1-1.6c2.9-0.6,5.7-1.2,8.4-1.8
	c5.4-1.1,10.3-2.4,14.7-3.4c2.2-0.5,4.2-1,6.1-1.5s3.6-1,5.2-1.4c6.2-1.6,9.8-2.6,9.8-2.6s-3.5,1.1-9.7,3c-1.5,0.5-3.3,1-5.1,1.5
	c-1.9,0.5-3.9,1.1-6.1,1.7c-4.3,1.2-9.2,2.6-14.6,3.7c-2.7,0.6-5.5,1.3-8.4,1.9c-2.9,0.7-6,1.2-9.1,1.8c-6.2,1.3-12.8,2.3-19.7,3.3
	c-3.4,0.5-6.9,0.8-10.5,1.3c-1.8,0.2-3.6,0.4-5.3,0.6c-1.8,0.1-3.6,0.3-5.4,0.4c-1.8,0.1-3.6,0.3-5.5,0.4l-2.7,0.2l-2.8,0.1
	c-3.7,0.1-7.4,0.3-11.1,0.4c-3.7,0-7.4-0.1-11.1-0.1h-2.8l-2.8-0.1c-1.8-0.1-3.7-0.2-5.5-0.3l-5.4-0.3c-1.8-0.1-3.6-0.3-5.4-0.5
	c-3.6-0.3-7.1-0.6-10.5-1c-6.9-0.9-13.5-1.7-19.8-2.8c-3.1-0.6-6.2-1-9.1-1.6s-5.8-1.2-8.5-1.7c-5.4-1-10.4-2.3-14.7-3.4
	c-2.2-0.5-4.2-1-6.1-1.5c-1.9-0.5-3.6-1-5.2-1.4C115.9,255.9,112.3,254.9,112.3,254.9L112.3,254.9z M116.2,292.4
	c0,0,3.4,0.9,9.4,2.4c3,0.7,6.6,1.7,10.8,2.6c4.2,1,8.9,2,14.1,3.1c5.2,1,10.8,2.1,16.8,3c6,1,12.3,1.7,18.9,2.5
	c13.1,1.5,27.2,2.3,41.4,3c3.5,0.2,7.1,0.4,10.6,0.5c1.8,0.1,3.5,0.2,5.2,0.1c1.7,0,3.5-0.1,5.2-0.2c6.9-0.5,13.7-1.2,20.3-2
	c13.1-1.6,25.4-3.4,35.8-5.4c5.2-1,10-1.9,14.2-2.9s7.8-1.9,10.8-2.8c2.9-0.9,5.2-1.7,6.7-2.5c0.8-0.3,1.3-0.6,1.7-0.8l0.6-0.3
	l-0.6,0.3c-0.4,0.2-0.9,0.6-1.7,0.9c-1.5,0.8-3.7,1.7-6.7,2.7c-5.9,2-14.4,4.3-24.8,6.4c-5.2,1.1-10.9,2.1-16.9,3.1
	s-12.3,2-18.9,2.8s-13.4,1.6-20.4,2.2c-1.7,0.1-3.5,0.2-5.3,0.3s-3.6,0-5.3-0.1c-3.5-0.2-7.1-0.3-10.6-0.5
	c-14.1-0.7-28.3-1.7-41.5-3.3c-6.6-0.8-13-1.7-18.9-2.8c-6-1-11.6-2.2-16.8-3.4c-5.2-1.2-9.9-2.3-14.1-3.5c-4.2-1.1-7.8-2.2-10.8-3
	c-3-0.9-5.3-1.6-6.9-2.1C117.1,292.7,116.2,292.4,116.2,292.4L116.2,292.4z"/>
</svg>
