<svg id="Layer_1" xmlns="http://www.w3.org/2000/svg" viewBox="0 0 460 360"><style>.st0{fill:none;stroke:#000;stroke-width:5;stroke-miterlimit:10}.st1{opacity:.9;fill:url(#SVGID_1_);enable-background:new}.st2{fill:url(#SVGID_2_);stroke:#000;stroke-width:2;stroke-miterlimit:10}</style><path class="st0" d="M6588.6-910.6c.3 38.5.2 82.4-5.7 120.5-2.3 14.7-3.7 31.7-10.6 44.9-9.4 17.9-18.6 35.9-34 49.5-5.5 4.9-11.5 9.2-17.9 12.8-4.2 2.3-15.3 5.1-15.9 10.8-.4 3.6 3.8 5.7 6.9 7.6 6.9 4.3 10.9 12.3 11.6 20.4 1.5 15.4-5.6 30.7-18.9 38.8-.8.5-1.6 1-1.9 1.8-.7 2.1 2.1 3.4 4.2 3.8 12.1 2.1 24 5 35.7 8.7 7.7 2.4 24.3 10.6 12 18.5-7.7 4.9-17 6.2-26 7.3-24.7 3.1-49.7 6.2-74.5 3.9-5.6-.5-11.2-1.4-16.8-2.2l-22.5-3.3c-5.3-.8-11.8-2.7-12.7-7.9-1.7-10.2 16.6-15.1 23.6-17.2 4.9-1.5 36.5-4.6 35.6-9.3-.5-2.4-2.8-3.9-4.8-5.4-8.9-6.4-15-16.4-16.6-27.2-1.6-10.8 1.3-22.2 7.9-30.9 2.2-2.9 4.9-6 4.4-9.6-.2-1.5-1-2.9-2-4.1-5.1-6.7-15.9-9.5-22.8-14.7-7.9-6-15.2-12.8-21.6-20.4-12.5-14.5-22.1-31.5-27.6-49.9-5.2-17.2-6.9-35.3-8.2-53.2-2.3-31-3.6-62-3.8-93.1 20.2-2.4 42-1.8 62.4-1.4 52.8 1.1 160.5-1.6 160.5.5z"/><path d="M6462-595.7v1.9c0 .6.1 1.3.6 1.9.4.6 1.2.8 2.2.8 2.1-.1 4.5-.2 7.1-.2 1.3 0 2.7-.1 4-.1 1.4-.1 2.8-.1 4.1-.2 1.4-.1 2.8-.1 4.1-.2 1.4-.1 2.7-.1 4-.2 2.6-.1 5-.2 7.1-.3 2-.1 3.7-.6 4.6-1.3.4-.4.7-.8.8-1.1.1-.3.2-.5.2-.5v.5c-.1.3-.2.8-.6 1.3s-1.1 1-1.9 1.4c-.8.4-1.8.7-2.8.8-2.1.4-4.5.7-7.1.9-1.3.1-2.7.3-4 .4-1.4.1-2.8.2-4.2.2-1.4 0-2.8.1-4.2.1h-4.1c-2.6-.1-5.1-.2-7.2-.4-.5-.1-1.1-.1-1.6-.4s-.9-.7-1.1-1.1c-.4-.9-.4-1.7-.3-2.3.1-.6.2-1.1.3-1.4-.1-.3 0-.5 0-.5zm-.4-84.6s.6.2 1.6.5c.5.2 1.2.3 1.9.5s1.6.4 2.4.5c.9.2 1.9.3 2.9.5 1 .1 2.1.2 3.3.3 1.1.1 2.3.1 3.5.2h3.6c1.2 0 2.5 0 3.7-.1 1.2 0 2.4-.1 3.6-.1 2.3-.1 4.5-.1 6.3-.3s3.2-.6 4.1-1.2c.4-.3.8-.6 1-.8l.3-.3s-.1.1-.2.4c-.2.3-.4.6-.8 1-.8.8-2.3 1.6-4.2 2-.9.2-2 .4-3 .5-1.1.1-2.2.3-3.3.4l-3.6.3c-1.2.1-2.5.1-3.7.2-1.3 0-2.5 0-3.7-.1-.6 0-1.2-.1-1.8-.1-.6-.1-1.2-.1-1.8-.2-1.2-.1-2.3-.4-3.4-.6-.5-.1-1-.3-1.5-.4-.5-.2-1-.3-1.4-.4-1.8-.6-3.2-1.3-4.2-1.8-1-.6-1.6-.9-1.6-.9zm-50.1 102.1l.3.3c.2.2.5.4 1 .6.9.5 2.3 1 4.2 1.4 1.9.4 4.2.7 6.8 1.1 2.6.4 5.6.7 8.9 1.1 3.3.3 6.8.7 10.6 1 3.7.3 7.7.5 11.8.7 8.2.3 17 .5 25.7.6 4.4.1 8.8.1 13.1.2 4.3 0 8.5.1 12.6 0s8-.4 11.7-.8c3.7-.5 7.2-1.1 10.4-1.7 6.4-1.4 11.6-3 15.2-4.3 1.8-.7 3.2-1.2 4.2-1.6l1.5-.6s-.5.2-1.4.7c-.9.4-2.3 1.1-4.1 1.8-3.5 1.5-8.7 3.5-15.1 5.1-6.4 1.6-14.1 2.9-22.3 3.2-4.1.2-8.4.2-12.7.2-4.3 0-8.7-.1-13.1-.1-4.4-.1-8.8-.2-13.1-.3-4.3-.1-8.6-.4-12.7-.6-4.1-.3-8.1-.6-11.8-1-3.8-.4-7.3-.8-10.6-1.3-1.6-.3-3.2-.5-4.7-.7-1.5-.3-2.9-.5-4.2-.8-2.6-.5-4.9-1-6.8-1.5s-3.3-1.1-4.1-1.7c-.4-.3-.7-.5-.9-.7-.3-.2-.4-.3-.4-.3z"/><linearGradient id="SVGID_1_" gradientUnits="userSpaceOnUse" x1="6378.8" y1="304.789" x2="6584.7" y2="304.789" gradientTransform="matrix(1 0 0 -1 0 -484)"><stop offset=".018" stop-color="#801fe3"/><stop offset="1" stop-color="#b7a7ff"/></linearGradient><path class="st1" d="M6378.8-882.4c1.4 24.4 2.7 48.8 4.1 73.2.4 7.9.9 15.9 2.2 23.7 1.8 11.1 5.4 21.8 8.9 32.5 3 9.1 6 18.2 11.1 26.3 17.8 28.1 51.5 32.7 81.9 31.3 10.6-.5 21.3-1.5 31.5-4.7 66.9-21.3 65.2-117 66.1-172.7 0-2.6.1-5.1.1-7.7-68.7 2.2-137.5 4-205.9-1.9z"/><path d="M6373.7-902.1s.6 8.1 1.5 22.2c.5 7.1 1 15.6 1.7 25.5.6 9.8 1.4 20.9 2.1 33.1.4 6.1.7 12.4 1.3 18.9.5 6.5 1.4 13.2 3 19.9 1.6 6.7 3.7 13.5 6 20.4 2.4 6.9 4.5 14 7.5 20.9.8 1.7 1.5 3.4 2.4 5.1.9 1.6 1.8 3.3 2.8 4.8 1.1 1.6 2.2 3.1 3.4 4.7 1.2 1.4 2.5 2.8 3.7 4.3 5.3 5.5 11.7 10 18.8 13.2 7.1 3.3 14.8 5.4 22.6 6.6 7.9 1.3 15.9 1.7 23.9 1.7 8-.1 16.1-.4 24-1.5 3.9-.5 7.9-1.2 11.7-2.2 1-.3 1.9-.5 2.8-.8l.7-.2h.1l.2-.1.4-.1 1.4-.5 2.8-1c.5-.2.9-.3 1.4-.5l1.3-.6c7.1-3.1 13.7-7.4 19.4-12.5 5.7-5.1 10.5-11.1 14.4-17.5 4-6.3 7.1-13.1 9.7-19.8 2.6-6.8 4.6-13.6 6.3-20.3 3.2-13.5 5-26.5 6.2-38.5 1.1-12.1 1.7-23.2 2-33 .3-9.9.5-18.4.7-25.5.2-14.2.4-22.2.4-22.2s0 2 .1 5.8c0 3.8.1 9.4.2 16.4 0 7.1 0 15.7-.2 25.5-.1 9.9-.5 21-1.5 33.1-1 12.1-2.6 25.2-5.7 38.9-1.6 6.8-3.6 13.7-6.1 20.6-2.5 6.9-5.7 13.8-9.8 20.3-4 6.5-9 12.7-14.8 18.1-5.9 5.4-12.7 9.8-20.2 13.1l-1.4.6c-.5.2-.9.4-1.4.5l-2.8 1-1.4.5-.4.1-.2.1-.2.1-.7.2c-1 .3-2 .6-2.9.8-3.9 1-8 1.8-12 2.4-8.1 1.1-16.2 1.5-24.4 1.6-8.2 0-16.3-.5-24.4-1.8-8-1.3-16-3.5-23.3-7-7.4-3.4-14.1-8.1-19.6-13.9-1.3-1.5-2.6-3.1-3.9-4.6-1.1-1.6-2.2-3.2-3.3-4.7-2.2-3.4-3.9-6.8-5.4-10.4-3-7.1-5.2-14.2-7.5-21.2-2.2-7-4.3-13.9-5.8-20.7-1.6-6.9-2.4-13.6-2.8-20.2-.5-6.6-.7-12.9-1-18.9-.6-12.1-1.1-23.2-1.6-33.1-.5-9.9-.8-18.4-1.2-25.5-.7-14.2-1-22.2-1-22.2z"/><path d="M6374.1-886.7s.8 0 2.4.1 3.8.2 6.7.3c2.9.2 6.4.3 10.5.5 4 .2 8.6.3 13.6.5s10.4.3 16.1.5 11.7.2 17.9.4c6.2.1 12.6.1 19.2.2 6.5.1 13.2 0 19.8.1 6.6 0 13.3 0 19.8-.1s13-.1 19.2-.2c12.5-.1 24.1-.2 34-.3 10-.1 18.3-.1 24.1-.1h9.1s-.8.1-2.4.2c-1.6.1-3.8.2-6.7.4-5.8.3-14.1.8-24.1 1.3s-21.6.9-34 1.3c-6.2.1-12.7.4-19.2.4-6.5.1-13.2.1-19.8.2-6.6 0-13.3 0-19.8-.2-6.5-.1-13-.3-19.2-.4-6.2-.2-12.3-.4-18-.8-2.9-.2-5.6-.3-8.3-.5-2.7-.2-5.3-.4-7.8-.5-2.5-.2-4.9-.3-7.1-.5-2.3-.2-4.4-.4-6.4-.6-4-.4-7.6-.7-10.4-1-2.9-.3-5.2-.6-6.7-.7-1.7-.4-2.5-.5-2.5-.5z"/><radialGradient id="SVGID_2_" cx="323.785" cy="-393.257" r="110.019" gradientTransform="matrix(.8597 .5108 -.4205 .7077 -118.23 224.374)" gradientUnits="userSpaceOnUse"><stop offset=".843" stop-color="#fff"/><stop offset="1" stop-color="#3f0d00"/></radialGradient><path class="st2" d="M444.9 125.3c.3-7.2 0-44.9-33.1-76.6-21.4-20.5-49.1-37.4-78.3-42.3-29.2-4.9-62.5-.6-88 14.6-12.3 7.4-30.2 26.2-35.5 36.1 9.2 6 25.2 19.7 33.6 26.8 10.7-19 25.1-33.7 46-40 35.3-10.7 58.9-8.8 88 15.8 35.5 30 26.8 57.1 25.3 69.6-1.8 15-12.2 23.7-12.7 23.4 5.9 3.3 34.6 23.5 40.5 26.8 1.1.5 13.5-35.7 14.2-54.2z"/><path d="M221.5 62.2s3.3-4.1 9-11.3c2.9-3.6 6.4-8 11.1-12.5 4.7-4.4 10.6-8.8 17.6-12.6 3.5-1.9 7.3-3.6 11.2-5.2l3-1.2c1.1-.4 2.1-.7 3.1-1 2.1-.7 4.2-1.4 6.4-1.9 8.9-2.3 18.5-3.6 28.4-3.4s20.2 1.5 30.3 4.4c10.1 2.8 19.9 7 29.1 12.3 1.2.6 2.3 1.4 3.4 2.1l3.4 2.1c2.2 1.5 4.4 2.9 6.6 4.4 4.4 2.9 8.8 5.7 13 8.8 4.2 3.1 8.3 6.3 11.9 10 3.7 3.6 6.8 7.7 9.3 12 1.3 2.1 2.4 4.3 3.5 6.5 1 2.3 2 4.4 2.9 6.6 1.8 4.5 3.3 8.9 4.4 13.3 2.3 8.8 3.4 17.4 3.5 25.4.2 7.9-.6 15.2-1.8 21.6-.3 1.6-.7 3.1-1 4.6-.2.7-.3 1.5-.5 2.2s-.4 1.4-.6 2c-.4 1.3-.8 2.6-1.2 3.8-.4 1.2-.9 2.3-1.3 3.4-.7 2.2-1.7 4-2.4 5.7-.4.8-.7 1.6-1.1 2.3-.4.7-.7 1.3-1 1.8l-1.8 3.3 1.7-3.4.9-1.8c.3-.7.6-1.5 1-2.3.7-1.7 1.6-3.5 2.3-5.7.4-1.1.8-2.2 1.2-3.4.4-1.2.7-2.5 1.1-3.8.2-.7.4-1.3.6-2 .2-.7.3-1.4.5-2.2.3-1.5.6-3 .9-4.6 1.1-6.3 1.6-13.5 1.4-21.4-.3-7.9-1.4-16.3-3.8-25-1.2-4.4-2.7-8.7-4.5-13.1-.4-1.1-1-2.2-1.5-3.3l-1.5-3.3c-1.1-2.2-2.2-4.3-3.5-6.4-2.5-4.2-5.5-8.2-9.1-11.7s-7.6-6.7-11.8-9.7-8.6-5.8-13-8.7c-2.2-1.4-4.4-2.9-6.6-4.3l-3.3-2.1c-1.1-.7-2.2-1.4-3.3-2-9-5.3-18.7-9.4-28.6-12.3s-20-4.3-29.8-4.5-19.3.9-28 3.1c-2.2.5-4.3 1.2-6.4 1.8-1 .3-2.1.6-3.1 1s-2 .7-3 1.1c-4 1.5-7.7 3.2-11.2 5-7 3.6-12.9 7.8-17.6 12.1-4.7 4.3-8.3 8.6-11.3 12.2-5.7 7.2-9.1 11.2-9.1 11.2z"/><path d="M89.6 108.5s4.2-.1 11.5-.2 17.7-.3 30.3-.4c6.3 0 13-.1 20.2-.2 7.2 0 14.7-.1 22.6-.1h24.1c8.2 0 16.6 0 24.9.1s16.7.1 24.9.2 16.3.2 24.1.2c7.8.1 15.4.2 22.6.3 7.2.1 14 .2 20.2.3 12.5.2 23 .5 30.3.7s11.5.3 11.5.3-4.2.1-11.5.2-17.7.3-30.3.4c-6.3 0-13 .1-20.2.2-7.2 0-14.7.1-22.6.1h-24.1c-8.2 0-16.6 0-24.9-.1s-16.7-.1-24.9-.2-16.3-.2-24.1-.2c-7.8-.1-15.4-.2-22.6-.3-7.2-.1-14-.2-20.2-.3-12.5-.2-23-.5-30.3-.7-7.3-.1-11.5-.3-11.5-.3z"/><path class="st0" d="M77.8 68.7c.3 13.1-.1 26.3-1.2 39.4-9.5 2.5-17 11.1-18.4 20.8-1.5 10.6 4.6 22 14.5 26.3 1.4.6 2.8 1.6 3.7 2.8 4.7 5.9-1.7 11.2-5.8 15.8-6 6.7-8 16.7-5.2 25.2s10.3 15.2 19.1 17.1c-7.5 2.3-10.2 12-10.6 19.6-.4 7.3 1.1 14.6 10.7 19.6-5 1.8-6.1 6-7.5 9.2-1.7 3.7-2.3 7.9-1.5 11.9 1.8 9 9.7 16 18.5 18.7-5.2 15.2 4.3 32.4 17.4 41.8 13 9.4 29.4 12.8 45.1 16 12.1 2.4 105.8 5.6 118.7 3.4 38.3-6.4 88.4-17.5 86-65.7 7.9-2.5 14.1-9.8 15.3-18 1.2-8.2-1.8-19.6-9.5-21.6 6.8-1.2 10.2-7.4 11.1-13.4 1.9-13.6-6.2-20-14.6-23.2 7.3-1.7 14.8-6.8 16.6-8.6 4.8-4.9 9-11.6 7.9-18.8-1.2-7.9-7.8-13.8-14.3-18.4-2.5-1.8-5.3-5.1-3.3-7.4 6.1-6.6 13.6-5.4 18.4-14.2 4.7-8.5 4.7-17.4 1.5-26.6-2.8-7.9-9.4-15.6-17.7-15.2-.4-14.2.5-27.5 1.9-41.6.3-3.3-2.5-6-5.7-5.7-95.1 8.4-189.2-.6-284.7 4.1-3.6.2-6.4 3.2-6.4 6.7z"/><path d="M91.9 78.1l.7 28.6v.2l-.1.1c-3.5 1.9-7 4-10.2 6.5-3.1 2.5-6 5.4-8 8.8-1.9 3.4-3 7.4-2.9 11.3s1.6 7.8 4.5 10.5c2.8 2.7 6.4 4.6 9.8 6.9 1.7 1.1 3.4 2.3 4.9 3.8s2.7 3.3 3.3 5.4c.1.5.3 1 .3 1.6l.1.8v.8c0 .6-.1 1.1-.1 1.6-.1.5-.2 1.1-.4 1.6-.6 2.1-1.7 3.9-3 5.5-2.5 3.3-5.5 6-8.2 9-1.3 1.5-2.6 3-3.6 4.7-1 1.6-1.7 3.4-1.8 5.3-.1 1.8.4 3.7 1.3 5.3.9 1.6 2.3 3 3.8 4.2 3.1 2.4 6.7 4.1 10.2 6.3 1.8 1.2 3.3 2.7 4.7 4.3 1.3 1.7 2.4 3.5 3 5.7.6 2.1.5 4.6-.7 6.7-.3.5-.7 1-1.1 1.4l-.6.6c-.2.2-.4.4-.7.5-.9.7-1.8 1.2-2.6 1.7-.9.5-1.6 1-2.3 1.6-.1.2-.3.3-.4.5l-.1.1-.1.1-.2.3c-.1.2-.3.4-.4.6-.1.2-.1.3-.2.5-.3.8-.4 1.6-.3 2.5.1.9.3 1.8.6 2.6.6 1.7 1.6 3.4 2.8 4.9.6.8 1.2 1.5 1.9 2.2s1.4 1.5 2.1 2.3c1.3 1.6 2.6 3.3 3.5 5.4.4 1 .7 2.2.7 3.4s-.2 2.4-.6 3.4c-.2.5-.5 1.1-.8 1.5l-.2.4-.1.2c-.1.1 0 .1-.1.2l-.5.6c-.3.4-.8.9-1.1 1.3-.4.4-.8.7-1.2 1.1-1.6 1.3-3.3 2.4-4.5 3.8-1.2 1.3-2 2.9-2.2 4.7-.1.4-.1.9-.1 1.4v.6l.1.8c0 .5.1.9.2 1.3s.3.9.4 1.3c1.2 3.4 4.1 6.3 7.2 8.6 1.6 1.2 3.2 2.2 4.9 3.2.8.5 1.8 1 2.7 1.7.5.4.9.8 1.3 1.2.1.1.2.2.3.4l.2.3.4.6.4.6.4.7c.2.5.6 1 .8 1.5l.6 1.5.5 1.5c.6 2 1 4.1 1.4 6 .4 2 .9 3.8 1.6 5.6.7 1.7 1.8 3.3 3 4.6l1 1 1.1.9.5.4.6.4c.4.3.8.6 1.2.8 1.6 1 3.4 2 5.1 2.8 3.6 1.7 7.3 3 11.1 4.1s7.7 2 11.7 2.8 7.9 1.6 11.8 2.2c7.9 1.2 15.9 2.1 23.9 2.8s16.1 1.2 24.1 1.7l6 .4 1.5.1 1.5.1c1 0 2 .1 3 .1 4 .1 8 .1 12-.1 16-.7 31.9-3.4 47.9-5.6 8-1.1 16-2.1 23.7-3.9 7.7-1.8 15.3-4.6 21.5-9.3 3.1-2.3 5.8-5.2 8-8.4 1-1.6 2-3.3 2.8-5.1.8-1.7 1.4-3.6 2-5.5s1.2-3.9 2-5.8c.4-1 .9-1.9 1.4-2.9.3-.5.6-.9.9-1.4l.2-.3.1-.2.1-.1c.2-.2.3-.4.5-.6 1.5-1.7 3-3 4.5-4.3s2.8-2.7 3.8-4.2c.9-1.5 1.4-3.3 1.6-5.2s.3-3.9.2-5.8c-.1-1.9-.4-3.8-1.1-5.5-.2-.4-.4-.9-.6-1.2l-.2-.3-.2-.2c-.1-.2-.2-.3-.4-.5-.6-.7-1.3-1.4-2-2-.7-.7-1.5-1.4-2.2-2.3-.7-.9-1.3-1.9-1.6-3.1l-.1-.4s-.1-.2-.1-.3v-1.1c0-.7.1-1.2.3-1.8.3-1.1.9-2.2 1.5-3.1.6-.9 1.3-1.7 2.1-2.5l2.1-2.2c1.3-1.4 2.5-2.9 3.4-4.6.9-1.6 1.4-3.4 1.3-5.2s-.8-3.5-1.8-5.2c-.5-.8-1.1-1.6-1.7-2.3l-2-2.3c-.3-.4-.7-.9-1-1.4l-.1-.2-.1-.2-.1-.3c-.1-.2-.2-.6-.3-.9-.3-1.2-.3-2.4 0-3.5.5-2.2 1.7-4.2 3.2-5.7.4-.4.8-.8 1.2-1.1l1.2-.9c.8-.6 1.7-1.2 2.5-1.8 1.7-1.2 3.3-2.3 4.8-3.5s2.9-2.6 3.7-4.2c.9-1.6 1.3-3.5 1.2-5.4 0-.5-.1-.9-.1-1.4 0-.2 0-.5-.1-.7l-.2-.7-.3-1.4-.5-1.4c-.2-.5-.4-.9-.6-1.3-.2-.4-.4-.8-.7-1.2l-.8-1.2-.9-1.2c-1.2-1.5-2.6-2.9-4-4.4s-2.8-3-4-4.7c-.3-.4-.6-.9-.8-1.3l-.7-1.4c-.4-1-.7-2-.9-3.1-.3-1-.2-2.1-.3-3.2l.1-1.6.1-.8c0-.3.1-.5.1-.8l.3-1.5.5-1.5c.4-1 .8-2 1.4-2.8 1.2-1.8 2.8-3.2 4.5-4.4 1.7-1.2 3.5-2.1 5.2-3.1s3.3-2.2 4.7-3.6l.5-.5c.1-.1.3-.4.4-.6.2-.3.4-.8.6-1.2.3-.9.5-1.8.7-2.8.4-3.9-.3-7.9-1.6-11.7-1.3-3.7-3.4-7.3-6.5-9.8-.8-.6-1.6-1.1-2.5-1.6l-1.3-.8c-.4-.3-.8-.7-1.2-1.1-1.4-1.6-2-3.7-2.2-5.7-.5-4.1.1-8.1.6-12.1.6-4 .8-8 1.2-12l1-12.1-.8 12.1c-.3 4-.5 8.1-1 12.1-.4 4-1 8-.5 12 .3 2 .9 3.9 2.2 5.4.3.3.7.6 1 .9l1.3.7c.9.4 1.8 1 2.6 1.6 3.3 2.6 5.4 6.2 6.9 10.1 1.4 3.8 2.2 8 1.8 12.1-.1 1-.3 2.1-.7 3.1-.2.5-.4 1-.7 1.5-.2.2-.3.4-.5.6l-.5.6c-1.4 1.5-3.1 2.8-4.8 3.8-1.7 1.1-3.5 2-5.1 3.2-1.6 1.1-3.1 2.4-4.1 4-.5.8-.9 1.7-1.3 2.6l.2 1.3-.3 1.5c0 .2-.1.5-.1.7l-.1.7-.1 1.4c.1 1 0 1.9.3 2.8.1.9.5 1.8.8 2.7l.7 1.3c.2.4.5.8.8 1.2 1.1 1.6 2.5 3 3.9 4.4 2.8 2.8 5.9 5.8 7.5 9.9l.5 1.4c.2.6.3 1 .4 1.6l.2.8c0 .3.1.5.1.8.1.5.2 1.1.2 1.6.1 2.1-.3 4.4-1.4 6.3-1 1.9-2.6 3.5-4.2 4.8s-3.3 2.5-4.9 3.6c-.8.6-1.6 1.2-2.4 1.7l-1.2.9c-.4.3-.7.6-1 .9-1.3 1.3-2.3 3-2.6 4.7-.4 1.8 0 3.4 1.3 4.8l2 2.3c.7.8 1.3 1.6 1.9 2.6 1.1 1.8 2 3.9 2.2 6.1.2 2.3-.5 4.5-1.5 6.4s-2.3 3.6-3.8 5.1l-2.1 2.2c-.7.7-1.3 1.4-1.8 2.2s-.9 1.6-1.2 2.3c-.1.4-.2.8-.2 1.2v1l.1.3c.4 1.6 1.7 2.9 3.2 4.2.7.7 1.5 1.4 2.2 2.2.3.4.8 1 1 1.4.3.5.5 1 .8 1.5.9 2 1.2 4.2 1.4 6.3.1 2.1 0 4.2-.2 6.3-.3 2.1-.8 4.3-2 6.2-2.4 3.9-6.1 6-8.5 8.8-2.5 2.8-3.5 6.6-4.7 10.5-.6 1.9-1.2 3.9-2.2 5.8-.8 1.9-1.9 3.7-3 5.5-2.3 3.5-5.2 6.6-8.6 9.1-6.7 5.1-14.6 8-22.5 9.9-8 1.9-16 2.9-24 4-15.9 2.3-31.9 5-48.2 5.8-4.1.2-8.1.2-12.2.1-1 0-2-.1-3-.1l-1.5-.1-1.5-.1-6-.4c-8.1-.5-16.1-1.1-24.2-1.8s-16.1-1.6-24.1-2.9c-4-.6-8-1.4-12-2.3-4-.9-7.9-1.8-11.9-2.9-3.9-1.1-7.8-2.5-11.5-4.3-1.9-.9-3.7-1.9-5.5-3.1-.5-.3-.8-.6-1.3-.9l-.6-.4-.7-.5-1.2-1-1.1-1.2c-1.5-1.6-2.7-3.4-3.5-5.4s-1.3-4.1-1.7-6.1-.8-3.9-1.3-5.8l-.4-1.4-.5-1.3c-.2-.5-.4-.8-.6-1.2l-.3-.6-.4-.6-.4-.6-.2-.3-.1-.2-.9-.9c-.7-.5-1.5-1-2.4-1.5-1.8-1-3.5-2.2-5.2-3.4-1.7-1.3-3.3-2.6-4.7-4.3-1.4-1.6-2.6-3.5-3.4-5.6-.2-.5-.4-1-.5-1.6s-.2-1.2-.3-1.7l-.1-.8v-.9c0-.6 0-1.1.1-1.7l.1-.8.2-.8c.1-.6.4-1.1.6-1.6.5-1 1.2-2 1.9-2.8 1.5-1.7 3.3-2.8 4.7-4 .4-.3.7-.6 1.1-.9.3-.3.6-.6.9-1l.5-.6.3-.5c.3-.4.4-.8.6-1.2.3-.8.5-1.6.5-2.5 0-.8-.2-1.7-.5-2.5-.6-1.7-1.8-3.2-3-4.8-.6-.7-1.3-1.5-2-2.2-.7-.8-1.4-1.6-2-2.4-1.3-1.7-2.4-3.5-3.1-5.6-.4-1-.6-2.1-.7-3.3-.1-1.1.1-2.3.5-3.4l.4-.9c.1-.3.3-.4.4-.7l.2-.3.2-.2.1-.2.6-.6c.8-.8 1.8-1.4 2.7-1.9 1.8-1 3.4-2 4.3-3.4.9-1.5 1-3.3.5-5-1-3.5-3.7-6.7-6.8-8.9-3.3-2.2-7-3.9-10.3-6.5-1.6-1.3-3.2-2.8-4.3-4.7-.2-.5-.5-.9-.7-1.5l-.3-.8c-.1-.3-.1-.5-.2-.7-.3-1.1-.3-2.2-.3-3.3.2-2.2 1-4.3 2.1-6.1s2.4-3.4 3.8-4.9c2.8-3 5.8-5.7 8.2-8.8 1.2-1.6 2.2-3.2 2.8-5 .2-.4.2-.9.3-1.4 0-.5.1-.9.1-1.4v-.7l-.1-.8c0-.4-.2-.9-.3-1.4-.5-1.8-1.5-3.4-2.9-4.8-1.3-1.4-2.9-2.6-4.6-3.7-3.3-2.2-6.9-4.2-9.9-7.2-1.5-1.5-2.7-3.2-3.5-5.1s-1.2-4-1.2-6.1c-.1-4.1 1.1-8.2 3.2-11.8 2.1-3.5 5-6.5 8.3-8.9 3.2-2.5 6.8-4.5 10.3-6.4l-.1.2-.3-28.1z"/><path d="M98.7 163.6s3.9.8 10.8 2.2c1.7.3 3.6.7 5.7 1.2 2.1.4 4.3.8 6.7 1.2 4.8.8 10.2 1.8 16.1 2.7 3 .5 6 .9 9.2 1.4 3.2.4 6.5.8 9.9 1.3 6.8.9 14 1.5 21.5 2.3 3.7.4 7.5.6 11.4.9 1.9.1 3.9.3 5.8.4 1.9.1 3.9.2 5.9.2 3.9.1 7.9.4 11.9.4s8 .1 12 .1h3l3-.1c2 0 4-.1 6-.1s4-.1 6-.1c2-.1 3.9-.2 5.9-.3 3.9-.2 7.8-.4 11.7-.7 3.8-.3 7.6-.7 11.4-1 .9-.1 1.9-.2 2.8-.3l2.7-.3c1.8-.2 3.6-.4 5.4-.7 3.6-.4 7.1-.8 10.5-1.4 3.4-.5 6.7-1 9.9-1.5.8-.1 1.6-.3 2.4-.4.8-.2 1.6-.3 2.3-.4l4.5-.9c2.9-.6 5.8-1.1 8.4-1.6 2.7-.6 5.2-1.2 7.6-1.7s4.6-1 6.7-1.5 3.9-1 5.6-1.4c6.8-1.8 10.6-2.8 10.6-2.8s-3.8 1.1-10.5 3.1c-1.7.5-3.5 1.1-5.6 1.6-2 .5-4.3 1.1-6.6 1.7-2.4.6-4.9 1.2-7.5 1.9-2.7.6-5.5 1.2-8.4 1.8l-4.5.9c-.8.2-1.5.3-2.3.5-.8.1-1.6.3-2.4.4-3.2.6-6.5 1.1-9.9 1.7-3.4.6-6.9 1.1-10.5 1.6-1.8.2-3.6.5-5.4.7-.9.1-1.8.2-2.8.4-.9.1-1.9.2-2.8.3-3.7.4-7.5.7-11.4 1.1-3.9.3-7.8.5-11.7.8-2 .1-3.9.2-5.9.3s-4 .1-6 .2-4 .1-6 .2-4 .1-6 .1c-4-.1-8-.1-12-.2s-8-.3-11.9-.5c-2-.1-3.9-.2-5.9-.3-1.9-.1-3.9-.3-5.8-.4-3.9-.3-7.7-.5-11.4-.9-7.5-.8-14.7-1.5-21.5-2.6-3.4-.5-6.7-.9-9.9-1.4-3.2-.5-6.3-1.1-9.2-1.6-5.9-.9-11.3-2.1-16.1-3.1-2.4-.5-4.6-1-6.7-1.4-2.1-.5-3.9-.9-5.6-1.3-7.2-1.8-11.1-2.7-11.1-2.7zm5.7 58.9s.9.2 2.6.5c1.7.4 4.3.9 7.5 1.5 6.4 1.4 15.6 3.3 26.7 5.2 5.5 1 11.6 1.8 17.9 2.7 6.4.7 13.1 1.4 20.1 2 1.7.1 3.5.3 5.3.4l5.4.3c3.6.2 7.3.4 10.9.6 3.7.2 7.4.3 11.1.4 3.7.1 7.5.2 11.2.2l5.6.1h5.6c3.7 0 7.5 0 11.1-.1 3.7-.1 7.3-.2 10.9-.4s7.2-.3 10.7-.6c1.7-.1 3.5-.3 5.2-.4 1.7-.2 3.4-.3 5.1-.5s3.3-.3 5-.5c1.6-.2 3.3-.4 4.9-.6 6.4-.7 12.4-1.7 17.9-2.7 5.5-1.1 10.5-2.2 14.9-3.4 1.1-.3 2.2-.6 3.2-.9 1-.3 2-.6 2.9-.9 1.9-.6 3.6-1.3 5.1-1.8 1.5-.6 2.9-1.2 4-1.7 1.1-.6 2.1-1 2.9-1.4 1.5-.9 2.3-1.4 2.3-1.4s-.8.5-2.3 1.5c-.8.4-1.7.9-2.8 1.6-1.2.5-2.5 1.2-4 1.8s-3.2 1.4-5.1 2c-.9.3-1.9.7-2.9 1s-2.1.7-3.2 1c-2.2.7-4.5 1.3-7 2s-5.1 1.2-7.9 1.8c-5.5 1.1-11.5 2.2-17.9 3.1-1.6.2-3.2.4-4.9.7-1.6.2-3.3.4-5 .6-1.7.2-3.4.4-5.1.5s-3.5.3-5.2.4c-3.5.3-7.1.5-10.7.7s-7.3.3-11 .4c-3.7.1-7.4.2-11.2.2h-5.6l-5.6-.1c-3.8-.1-7.5-.1-11.2-.3-3.7-.1-7.5-.2-11.2-.4s-7.4-.4-11-.6c-1.8-.1-3.6-.2-5.4-.4s-3.6-.3-5.3-.5c-7-.6-13.8-1.4-20.2-2.3-6.4-.9-12.4-1.9-17.9-3-5.5-1-10.6-2.2-15-3.2-4.4-1.1-8.3-2-11.5-2.7-6.3-1.6-9.9-2.4-9.9-2.4zm7.9 32.4s3.6.9 9.9 2.4c1.6.4 3.3.8 5.2 1.3 1.9.4 4 .9 6.2 1.3 4.4.9 9.3 2.1 14.8 3 2.7.5 5.5 1 8.5 1.6 2.9.5 6 .9 9.1 1.4 6.2 1.1 12.9 1.7 19.7 2.6 3.4.4 6.9.6 10.5.9 1.8.1 3.5.3 5.3.4 1.8.1 3.6.2 5.4.2 1.8.1 3.6.2 5.4.2l2.7.1h13.7c3.7-.1 7.4-.2 11-.3l2.7-.1 2.7-.2c1.8-.1 3.6-.3 5.4-.4 1.8-.1 3.6-.3 5.4-.4 1.8-.2 3.6-.4 5.3-.6 3.5-.4 7-.7 10.4-1.2 6.8-1 13.4-1.9 19.7-3.1 3.1-.6 6.2-1.1 9.1-1.6 2.9-.6 5.7-1.2 8.4-1.8 5.4-1.1 10.3-2.4 14.7-3.4 2.2-.5 4.2-1 6.1-1.5s3.6-1 5.2-1.4c6.2-1.6 9.8-2.6 9.8-2.6s-3.5 1.1-9.7 3c-1.5.5-3.3 1-5.1 1.5-1.9.5-3.9 1.1-6.1 1.7-4.3 1.2-9.2 2.6-14.6 3.7-2.7.6-5.5 1.3-8.4 1.9-2.9.7-6 1.2-9.1 1.8-6.2 1.3-12.8 2.3-19.7 3.3-3.4.5-6.9.8-10.5 1.3-1.8.2-3.6.4-5.3.6-1.8.1-3.6.3-5.4.4-1.8.1-3.6.3-5.5.4l-2.7.2-2.8.1c-3.7.1-7.4.3-11.1.4-3.7 0-7.4-.1-11.1-.1h-2.8l-2.8-.1c-1.8-.1-3.7-.2-5.5-.3l-5.4-.3c-1.8-.1-3.6-.3-5.4-.5-3.6-.3-7.1-.6-10.5-1-6.9-.9-13.5-1.7-19.8-2.8-3.1-.6-6.2-1-9.1-1.6s-5.8-1.2-8.5-1.7c-5.4-1-10.4-2.3-14.7-3.4-2.2-.5-4.2-1-6.1-1.5-1.9-.5-3.6-1-5.2-1.4-5.8-1.4-9.4-2.4-9.4-2.4zm3.9 37.5s3.4.9 9.4 2.4c3 .7 6.6 1.7 10.8 2.6 4.2 1 8.9 2 14.1 3.1 5.2 1 10.8 2.1 16.8 3 6 1 12.3 1.7 18.9 2.5 13.1 1.5 27.2 2.3 41.4 3 3.5.2 7.1.4 10.6.5 1.8.1 3.5.2 5.2.1 1.7 0 3.5-.1 5.2-.2 6.9-.5 13.7-1.2 20.3-2 13.1-1.6 25.4-3.4 35.8-5.4 5.2-1 10-1.9 14.2-2.9s7.8-1.9 10.8-2.8c2.9-.9 5.2-1.7 6.7-2.5.8-.3 1.3-.6 1.7-.8l.6-.3-.6.3c-.4.2-.9.6-1.7.9-1.5.8-3.7 1.7-6.7 2.7-5.9 2-14.4 4.3-24.8 6.4-5.2 1.1-10.9 2.1-16.9 3.1s-12.3 2-18.9 2.8-13.4 1.6-20.4 2.2c-1.7.1-3.5.2-5.3.3s-3.6 0-5.3-.1c-3.5-.2-7.1-.3-10.6-.5-14.1-.7-28.3-1.7-41.5-3.3-6.6-.8-13-1.7-18.9-2.8-6-1-11.6-2.2-16.8-3.4-5.2-1.2-9.9-2.3-14.1-3.5-4.2-1.1-7.8-2.2-10.8-3-3-.9-5.3-1.6-6.9-2.1-1.4 0-2.3-.3-2.3-.3z"/></svg>