<svg id="Layer_1" xmlns="http://www.w3.org/2000/svg" viewBox="0 0 460 365.3"><style>.st0{fill:none;stroke:#000;stroke-width:5;stroke-miterlimit:10}.st1{opacity:.9;fill:url(#SVGID_1_);enable-background:new}.st2{fill:url(#SVGID_2_)}.st3{fill:none;stroke:#000;stroke-miterlimit:10}</style><path class="st0" d="M6588.6-905.3c.3 38.5.2 82.4-5.7 120.5-2.3 14.7-3.7 31.7-10.6 44.9-9.4 17.9-18.6 35.9-34 49.5-5.5 4.9-11.5 9.2-17.9 12.8-4.2 2.3-15.3 5.1-15.9 10.8-.4 3.6 3.8 5.7 6.9 7.6 6.9 4.3 10.9 12.3 11.6 20.4 1.5 15.4-5.6 30.7-18.9 38.8-.8.5-1.6 1-1.9 1.8-.7 2.1 2.1 3.4 4.2 3.8 12.1 2.1 24 5 35.7 8.7 7.7 2.4 24.3 10.6 12 18.5-7.7 4.9-17 6.2-26 7.3-24.7 3.1-49.7 6.2-74.5 3.9-5.6-.5-11.2-1.4-16.8-2.2l-22.5-3.3c-5.3-.8-11.8-2.7-12.7-7.9-1.7-10.2 16.6-15.1 23.6-17.2 4.9-1.5 36.5-4.6 35.6-9.3-.5-2.4-2.8-3.9-4.8-5.4-8.9-6.4-15-16.4-16.6-27.2s1.3-22.2 7.9-30.9c2.2-2.9 4.9-6 4.4-9.6-.2-1.5-1-2.9-2-4.1-5.1-6.7-15.9-9.5-22.8-14.7-7.9-6-15.2-12.8-21.6-20.4-12.5-14.5-22.1-31.5-27.6-49.9-5.2-17.2-6.9-35.3-8.2-53.2-2.3-31-3.6-62-3.8-93.1 20.2-2.4 42-1.8 62.4-1.4 52.8 1.1 160.5-1.6 160.5.5z"/><path d="M6462-590.4v1.9c0 .6.1 1.3.6 1.9.4.6 1.2.8 2.2.8 2.1-.1 4.5-.2 7.1-.2 1.3 0 2.7-.1 4-.1 1.4-.1 2.8-.1 4.1-.2 1.4-.1 2.8-.1 4.1-.2 1.4-.1 2.7-.1 4-.2 2.6-.1 5-.2 7.1-.3 2-.1 3.7-.6 4.6-1.3.4-.4.7-.8.8-1.1.1-.3.2-.5.2-.5v.5c-.1.3-.2.8-.6 1.3s-1.1 1-1.9 1.4c-.8.4-1.8.7-2.8.8-2.1.4-4.5.7-7.1.9-1.3.1-2.7.3-4 .4-1.4.1-2.8.2-4.2.2-1.4 0-2.8.1-4.2.1h-4.1c-2.6-.1-5.1-.2-7.2-.4-.5-.1-1.1-.1-1.6-.4s-.9-.7-1.1-1.1c-.4-.9-.4-1.7-.3-2.3s.2-1.1.3-1.4c-.1-.3 0-.5 0-.5zm-.4-84.6s.6.2 1.6.5c.5.2 1.2.3 1.9.5s1.6.4 2.4.5c.9.2 1.9.3 2.9.5 1 .1 2.1.2 3.3.3 1.1.1 2.3.1 3.5.2h3.6c1.2 0 2.5 0 3.7-.1 1.2 0 2.4-.1 3.6-.1 2.3-.1 4.5-.1 6.3-.3 1.8-.2 3.2-.6 4.1-1.2.4-.3.8-.6 1-.8l.3-.3s-.1.1-.2.4c-.2.3-.4.6-.8 1-.8.8-2.3 1.6-4.2 2-.9.2-2 .4-3 .5-1.1.1-2.2.3-3.3.4l-3.6.3c-1.2.1-2.5.1-3.7.2-1.3 0-2.5 0-3.7-.1-.6 0-1.2-.1-1.8-.1-.6-.1-1.2-.1-1.8-.2-1.2-.1-2.3-.4-3.4-.6-.5-.1-1-.3-1.5-.4-.5-.2-1-.3-1.4-.4-1.8-.6-3.2-1.3-4.2-1.8-1-.6-1.6-.9-1.6-.9zm-50.1 102.1l.3.3c.2.2.5.4 1 .6.9.5 2.3 1 4.2 1.4 1.9.4 4.2.7 6.8 1.1 2.6.4 5.6.7 8.9 1.1 3.3.3 6.8.7 10.6 1 3.7.3 7.7.5 11.8.7 8.2.3 17 .5 25.7.6 4.4.1 8.8.1 13.1.2 4.3 0 8.5.1 12.6 0s8-.4 11.7-.8c3.7-.5 7.2-1.1 10.4-1.7 6.4-1.4 11.6-3 15.2-4.3 1.8-.7 3.2-1.2 4.2-1.6l1.5-.6s-.5.2-1.4.7c-.9.4-2.3 1.1-4.1 1.8-3.5 1.5-8.7 3.5-15.1 5.1-6.4 1.6-14.1 2.9-22.3 3.2-4.1.2-8.4.2-12.7.2-4.3 0-8.7-.1-13.1-.1-4.4-.1-8.8-.2-13.1-.3-4.3-.1-8.6-.4-12.7-.6-4.1-.3-8.1-.6-11.8-1-3.8-.4-7.3-.8-10.6-1.3-1.6-.3-3.2-.5-4.7-.7-1.5-.3-2.9-.5-4.2-.8-2.6-.5-4.9-1-6.8-1.5s-3.3-1.1-4.1-1.7c-.4-.3-.7-.5-.9-.7-.3-.2-.4-.3-.4-.3z"/><linearGradient id="SVGID_1_" gradientUnits="userSpaceOnUse" x1="6378.8" y1="1445.294" x2="6584.7" y2="1445.294" gradientTransform="matrix(1 0 0 -1 0 661.812)"><stop offset=".018" stop-color="#801fe3"/><stop offset="1" stop-color="#b7a7ff"/></linearGradient><path class="st1" d="M6378.8-877.1c1.4 24.4 2.7 48.8 4.1 73.2.4 7.9.9 15.9 2.2 23.7 1.8 11.1 5.4 21.8 8.9 32.5 3 9.1 6 18.2 11.1 26.3 17.8 28.1 51.5 32.7 81.9 31.3 10.6-.5 21.3-1.5 31.5-4.7 66.9-21.3 65.2-117 66.1-172.7 0-2.6.1-5.1.1-7.7-68.7 2.2-137.5 4-205.9-1.9z"/><path d="M6373.7-896.8s.6 8.1 1.5 22.2c.5 7.1 1 15.6 1.7 25.5.6 9.8 1.4 20.9 2.1 33.1.4 6.1.7 12.4 1.3 18.9.5 6.5 1.4 13.2 3 19.9s3.7 13.5 6 20.4c2.4 6.9 4.5 14 7.5 20.9.8 1.7 1.5 3.4 2.4 5.1.9 1.6 1.8 3.3 2.8 4.8 1.1 1.6 2.2 3.1 3.4 4.7 1.2 1.4 2.5 2.8 3.7 4.3 5.3 5.5 11.7 10 18.8 13.2 7.1 3.3 14.8 5.4 22.6 6.6 7.9 1.3 15.9 1.7 23.9 1.7 8-.1 16.1-.4 24-1.5 3.9-.5 7.9-1.2 11.7-2.2 1-.3 1.9-.5 2.8-.8l.7-.2h.1l.2-.1.4-.1 1.4-.5 2.8-1c.5-.2.9-.3 1.4-.5l1.3-.6c7.1-3.1 13.7-7.4 19.4-12.5 5.7-5.1 10.5-11.1 14.4-17.5 4-6.3 7.1-13.1 9.7-19.8 2.6-6.8 4.6-13.6 6.3-20.3 3.2-13.5 5-26.5 6.2-38.5 1.1-12.1 1.7-23.2 2-33 .3-9.9.5-18.4.7-25.5.2-14.2.4-22.2.4-22.2s0 2 .1 5.8c0 3.8.1 9.4.2 16.4 0 7.1 0 15.7-.2 25.5-.1 9.9-.5 21-1.5 33.1s-2.6 25.2-5.7 38.9c-1.6 6.8-3.6 13.7-6.1 20.6-2.5 6.9-5.7 13.8-9.8 20.3-4 6.5-9 12.7-14.8 18.1-5.9 5.4-12.7 9.8-20.2 13.1l-1.4.6c-.5.2-.9.4-1.4.5l-2.8 1-1.4.5-.4.1-.2.1-.2.1-.7.2c-1 .3-2 .6-2.9.8-3.9 1-8 1.8-12 2.4-8.1 1.1-16.2 1.5-24.4 1.6-8.2 0-16.3-.5-24.4-1.8-8-1.3-16-3.5-23.3-7-7.4-3.4-14.1-8.1-19.6-13.9-1.3-1.5-2.6-3.1-3.9-4.6-1.1-1.6-2.2-3.2-3.3-4.7-2.2-3.4-3.9-6.8-5.4-10.4-3-7.1-5.2-14.2-7.5-21.2-2.2-7-4.3-13.9-5.8-20.7-1.6-6.9-2.4-13.6-2.8-20.2-.5-6.6-.7-12.9-1-18.9-.6-12.1-1.1-23.2-1.6-33.1s-.8-18.4-1.2-25.5c-.7-14.2-1-22.2-1-22.2z"/><path d="M6374.1-881.4s.8 0 2.4.1 3.8.2 6.7.3c2.9.2 6.4.3 10.5.5 4 .2 8.6.3 13.6.5s10.4.3 16.1.5 11.7.2 17.9.4c6.2.1 12.6.1 19.2.2 6.5.1 13.2 0 19.8.1 6.6 0 13.3 0 19.8-.1s13-.1 19.2-.2c12.5-.1 24.1-.2 34-.3 10-.1 18.3-.1 24.1-.1h9.1s-.8.1-2.4.2c-1.6.1-3.8.2-6.7.4-5.8.3-14.1.8-24.1 1.3s-21.6.9-34 1.3c-6.2.1-12.7.4-19.2.4-6.5.1-13.2.1-19.8.2-6.6 0-13.3 0-19.8-.2-6.5-.1-13-.3-19.2-.4-6.2-.2-12.3-.4-18-.8-2.9-.2-5.6-.3-8.3-.5-2.7-.2-5.3-.4-7.8-.5-2.5-.2-4.9-.3-7.1-.5-2.3-.2-4.4-.4-6.4-.6-4-.4-7.6-.7-10.4-1-2.9-.3-5.2-.6-6.7-.7-1.7-.4-2.5-.5-2.5-.5z"/><path class="st0" d="M76.4 8.4c-1.1.4-1.9 1-2.4 2-1.4 2.5 3 12.3 3.9 15 3.2 10.2 7.2 20.1 12.3 29.6 10.2 18.9 24.5 35.9 43 47 12.7 7.7 26.7 12.4 40.7 17.1 12.3 4.1 31.3 7.4 39.6 17.8 14.9 18.7 11.9 39.1 11.6 60.7-.3 27.8-1.4 56.1-1.2 84 .1 7.3-.2 15.3-5.1 20.6-4.4 4.8-11.4 6-17.9 6.6-22.8 2.1-47.6 0-66.2 13.9-1.9 1.4-3.6 3.3-4.5 5.5-4.2 9.8 7.3 17.6 16.8 20.8 62.7 21.6 122.7 13.9 187.3-1.2 11.4-2.7 13.6-11.5 12.2-18.3-.9-4.4-4-8.1-8.2-9.7-22.1-8.5-42.5-11.4-69.4-14-6.3-.6-13.2-.3-18.1-4.3-12.5-10.2-9.2-40.8-9.5-54.8-.6-23.4.3-46.9 2.5-70.2 2.1-22.6 9.9-41.4 31.1-51 28.4-12.8 73.2-40.3 87.9-60.3C377 45.9 388.3 16 386.7 6.6 382.5 4 357 5.1 349.2 5.4c-27.6 1-56.3 1.7-83.9 2.1-55.2.6-110.5.5-165.8.6h-10c-3.4.1-9.5-1.1-13.1.3z"/><path d="M221.3 309.1l.8.8c.6.5 1.4 1.1 2.5 1.6.6.3 1.2.5 1.8.7.7.2 1.4.3 2.1.4 1.5.2 3.2.3 4.8.3h4.9c1.5-.1 2.9-.3 4-.9 1.1-.5 1.9-1.2 2.3-1.7.2-.3.4-.5.5-.7.1-.2.2-.3.2-.3s0 .1-.1.3c0 .2-.1.5-.3.9-.3.7-1 1.7-2.1 2.5s-2.7 1.4-4.4 1.6c-.8.1-1.7.2-2.5.2h-2.6c-.9 0-1.7-.1-2.6-.1-.9-.1-1.7-.2-2.5-.4s-1.6-.5-2.3-.8c-.7-.3-1.4-.7-1.9-1.1-1.1-.8-1.8-1.7-2.2-2.3-.2-.3-.3-.6-.4-.8v-.2zm-81.5 20.7s.1.2.3.5c.2.3.5.8 1 1.3.9 1.1 2.5 2.7 4.8 4.2s5.3 2.9 9 4 7.9 1.8 12.6 2.5c9.4 1.4 20.3 2.9 32 4.6 11.7 1.6 24.3 3 36.8 2 6.3-.4 12.5-1.2 18.7-1.9 6.2-.7 12.3-1.4 18.1-2.1 5.9-.7 11.6-1.3 17-1.9 5.4-.6 10.5-1.3 15.1-2 9.3-1.4 17.1-3.1 22.4-4.5 1.3-.3 2.5-.7 3.5-1 1-.3 1.9-.6 2.6-.8 1.4-.4 2.2-.7 2.2-.7s-.7.3-2.1.8c-.7.3-1.6.6-2.6.9-1 .4-2.2.7-3.5 1.1-2.6.8-5.9 1.7-9.6 2.6-3.7.9-8 1.8-12.7 2.6-9.4 1.6-20.3 3.1-32.1 4.5-5.9.7-11.9 1.5-18.1 2.2-6.2.7-12.4 1.6-18.8 2-6.3.4-12.7.3-19-.2-6.2-.5-12.3-1.3-18.2-2.1-5.9-.9-11.5-1.8-16.9-2.7-5.4-.9-10.4-1.7-15.1-2.5-4.7-.8-9-1.7-12.6-2.9-3.7-1.2-6.7-2.8-9-4.4-2.3-1.6-3.7-3.3-4.6-4.4-.5-.6-.7-1.1-1-1.4-.1-.2-.2-.3-.2-.3z"/><linearGradient id="SVGID_2_" gradientUnits="userSpaceOnUse" x1="233.908" y1="36.533" x2="233.908" y2="122.778"><stop offset="0" stop-color="#fff"/><stop offset=".044" stop-color="#f1ead5" stop-opacity=".996"/><stop offset=".099" stop-color="#e2d4a9" stop-opacity=".99"/><stop offset=".16" stop-color="#d5c081" stop-opacity=".984"/><stop offset=".225" stop-color="#c9af5e" stop-opacity=".978"/><stop offset=".295" stop-color="#bfa040" stop-opacity=".971"/><stop offset=".373" stop-color="#b89429" stop-opacity=".963"/><stop offset=".462" stop-color="#b18b16" stop-opacity=".954"/><stop offset=".566" stop-color="#ad850a" stop-opacity=".943"/><stop offset=".704" stop-color="#ab8102" stop-opacity=".93"/><stop offset="1" stop-color="#aa8000" stop-opacity=".9"/></linearGradient><path class="st2" d="M372.2 38.3c-12.4 0-249.1.5-275.4-1.5-.4 0-.8-.2-1.3-.3 2.3 6.8 4.9 13.5 8.5 19.7 10.4 18.3 28 31.8 47 41 16 7.8 33.3 12.8 50.5 17.2 12.3 3.1 29.1 10.1 41.9 7.8 11-1.9 68.9-18.4 96.5-42.6 15.5-13.5 24.9-27.3 32.3-41.3z"/><path d="M86.8 17s.4 1.4 1.2 4.1c.8 2.7 2 6.5 3.6 11.4 1.7 4.9 3.9 10.8 7.2 17.1.4.8.8 1.6 1.3 2.4.4.8.9 1.6 1.4 2.4 1 1.7 2.1 3.2 3.2 4.9 2.4 3.2 5 6.5 8.1 9.6 6.1 6.3 13.6 12.3 22.2 17.5 8.6 5.2 18.3 9.6 28.6 13.5 10.3 3.8 21.3 7 32.5 9.8 5.7 1.4 11.3 3.2 16.9 4.8 5.6 1.6 11.3 3 17 3.5 2.9.2 5.7.3 8.5-.2s5.6-1.2 8.5-1.9c5.6-1.5 11.2-3.2 16.7-5 11-3.6 21.7-7.7 31.8-12.1 10.1-4.5 19.6-9.3 28.1-14.7 4.2-2.7 8.2-5.6 11.8-8.7 1.8-1.6 3.6-3.1 5.2-4.7l2.4-2.4c.8-.8 1.5-1.6 2.3-2.4 1.5-1.6 2.9-3.2 4.3-4.8 1.3-1.6 2.7-3.2 3.9-4.8.6-.8 1.2-1.6 1.8-2.3.6-.8 1.1-1.6 1.7-2.3 1.1-1.5 2.1-3.1 3.2-4.6 4-6 7-11.5 9.4-16 2.4-4.6 4.2-8.2 5.4-10.7 1.2-2.5 1.9-3.8 1.9-3.8s-.6 1.3-1.7 3.9c-1.1 2.5-2.8 6.2-5 10.9-2.3 4.6-5.1 10.3-9 16.4-3.8 6.1-8.6 12.8-14.6 19.4-.8.8-1.5 1.6-2.3 2.5l-2.4 2.4c-1.6 1.7-3.4 3.2-5.1 4.8-3.6 3.3-7.6 6.2-11.9 9.1-8.5 5.7-18.1 10.7-28.2 15.3-10.1 4.6-20.9 8.7-31.9 12.4-5.5 1.8-11.2 3.6-16.9 5.1-2.9.8-5.7 1.5-8.8 2.1-3.1.5-6.2.5-9.2.2-12.1-1.2-23.2-5.9-34.4-8.7-11.3-2.9-22.3-6.2-32.8-10.1-10.4-3.9-20.2-8.6-28.9-14.1S117.6 76.6 111.5 70c-3-3.3-5.7-6.6-8-10-1.1-1.7-2.2-3.4-3.2-5-.5-.8-1-1.6-1.4-2.5-.4-.8-.9-1.6-1.3-2.5-3.2-6.5-5.2-12.5-6.8-17.4-1.5-4.9-2.5-8.9-3.2-11.6-.5-2.6-.8-4-.8-4z"/><path class="st3" d="M92.8 33.5c26.3 2 262.9 1.7 275.4 1.2"/></svg>