<?xml version="1.0" encoding="utf-8"?>
<!-- Generator: Adobe Illustrator 19.2.0, SVG Export Plug-In . SVG Version: 6.00 Build 0)  -->
<svg version="1.1" id="Layer_1" xmlns="http://www.w3.org/2000/svg" xmlns:xlink="http://www.w3.org/1999/xlink" x="0px" y="0px"
	 viewBox="0 0 460 365.3" style="enable-background:new 0 0 460 365.3;" xml:space="preserve">
<style type="text/css">
	.st0{fill:none;stroke:#000000;stroke-width:5;stroke-miterlimit:10;}
	.st1{opacity:0.9;fill:url(#SVGID_1_);enable-background:new    ;}
	.st2{fill:url(#SVGID_2_);}
	.st3{fill:none;stroke:#000000;stroke-miterlimit:10;}
</style>
<path class="st0" d="M6588.6-905.3c0.3,38.5,0.2,82.4-5.7,120.5c-2.3,14.7-3.7,31.7-10.6,44.9c-9.4,17.9-18.6,35.9-34,49.5
	c-5.5,4.9-11.5,9.2-17.9,12.8c-4.2,2.3-15.3,5.1-15.9,10.8c-0.4,3.6,3.8,5.7,6.9,7.6c6.9,4.3,10.9,12.3,11.6,20.4
	c1.5,15.4-5.6,30.7-18.9,38.8c-0.8,0.5-1.6,1-1.9,1.8c-0.7,2.1,2.1,3.4,4.2,3.8c12.1,2.1,24,5,35.7,8.7c7.7,2.4,24.3,10.6,12,18.5
	c-7.7,4.9-17,6.2-26,7.3c-24.7,3.1-49.7,6.2-74.5,3.9c-5.6-0.5-11.2-1.4-16.8-2.2l-22.5-3.3c-5.3-0.8-11.8-2.7-12.7-7.9
	c-1.7-10.2,16.6-15.1,23.6-17.2c4.9-1.5,36.5-4.6,35.6-9.3c-0.5-2.4-2.8-3.9-4.8-5.4c-8.9-6.4-15-16.4-16.6-27.2s1.3-22.2,7.9-30.9
	c2.2-2.9,4.9-6,4.4-9.6c-0.2-1.5-1-2.9-2-4.1c-5.1-6.7-15.9-9.5-22.8-14.7c-7.9-6-15.2-12.8-21.6-20.4
	c-12.5-14.5-22.1-31.5-27.6-49.9c-5.2-17.2-6.9-35.3-8.2-53.2c-2.3-31-3.6-62-3.8-93.1c20.2-2.4,42-1.8,62.4-1.4
	C6480.9-904.7,6588.6-907.4,6588.6-905.3L6588.6-905.3z"/>
<path d="M6462-590.4v1.9c0,0.6,0.1,1.3,0.6,1.9c0.4,0.6,1.2,0.8,2.2,0.8c2.1-0.1,4.5-0.2,7.1-0.2c1.3,0,2.7-0.1,4-0.1
	c1.4-0.1,2.8-0.1,4.1-0.2c1.4-0.1,2.8-0.1,4.1-0.2c1.4-0.1,2.7-0.1,4-0.2c2.6-0.1,5-0.2,7.1-0.3c2-0.1,3.7-0.6,4.6-1.3
	c0.4-0.4,0.7-0.8,0.8-1.1c0.1-0.3,0.2-0.5,0.2-0.5v0.5c-0.1,0.3-0.2,0.8-0.6,1.3s-1.1,1-1.9,1.4c-0.8,0.4-1.8,0.7-2.8,0.8
	c-2.1,0.4-4.5,0.7-7.1,0.9c-1.3,0.1-2.7,0.3-4,0.4c-1.4,0.1-2.8,0.2-4.2,0.2c-1.4,0-2.8,0.1-4.2,0.1h-4.1c-2.6-0.1-5.1-0.2-7.2-0.4
	c-0.5-0.1-1.1-0.1-1.6-0.4s-0.9-0.7-1.1-1.1c-0.4-0.9-0.4-1.7-0.3-2.3s0.2-1.1,0.3-1.4C6461.9-590.2,6462-590.4,6462-590.4
	L6462-590.4z M6461.6-675c0,0,0.6,0.2,1.6,0.5c0.5,0.2,1.2,0.3,1.9,0.5s1.6,0.4,2.4,0.5c0.9,0.2,1.9,0.3,2.9,0.5
	c1,0.1,2.1,0.2,3.3,0.3c1.1,0.1,2.3,0.1,3.5,0.2h3.6c1.2,0,2.5,0,3.7-0.1c1.2,0,2.4-0.1,3.6-0.1c2.3-0.1,4.5-0.1,6.3-0.3
	c1.8-0.2,3.2-0.6,4.1-1.2c0.4-0.3,0.8-0.6,1-0.8l0.3-0.3c0,0-0.1,0.1-0.2,0.4c-0.2,0.3-0.4,0.6-0.8,1c-0.8,0.8-2.3,1.6-4.2,2
	c-0.9,0.2-2,0.4-3,0.5c-1.1,0.1-2.2,0.3-3.3,0.4l-3.6,0.3c-1.2,0.1-2.5,0.1-3.7,0.2c-1.3,0-2.5,0-3.7-0.1c-0.6,0-1.2-0.1-1.8-0.1
	c-0.6-0.1-1.2-0.1-1.8-0.2c-1.2-0.1-2.3-0.4-3.4-0.6c-0.5-0.1-1-0.3-1.5-0.4c-0.5-0.2-1-0.3-1.4-0.4c-1.8-0.6-3.2-1.3-4.2-1.8
	C6462.2-674.7,6461.6-675,6461.6-675L6461.6-675z M6411.5-572.9l0.3,0.3c0.2,0.2,0.5,0.4,1,0.6c0.9,0.5,2.3,1,4.2,1.4
	c1.9,0.4,4.2,0.7,6.8,1.1c2.6,0.4,5.6,0.7,8.9,1.1c3.3,0.3,6.8,0.7,10.6,1c3.7,0.3,7.7,0.5,11.8,0.7c8.2,0.3,17,0.5,25.7,0.6
	c4.4,0.1,8.8,0.1,13.1,0.2c4.3,0,8.5,0.1,12.6,0c4.1-0.1,8-0.4,11.7-0.8c3.7-0.5,7.2-1.1,10.4-1.7c6.4-1.4,11.6-3,15.2-4.3
	c1.8-0.7,3.2-1.2,4.2-1.6l1.5-0.6c0,0-0.5,0.2-1.4,0.7c-0.9,0.4-2.3,1.1-4.1,1.8c-3.5,1.5-8.7,3.5-15.1,5.1
	c-6.4,1.6-14.1,2.9-22.3,3.2c-4.1,0.2-8.4,0.2-12.7,0.2c-4.3,0-8.7-0.1-13.1-0.1c-4.4-0.1-8.8-0.2-13.1-0.3
	c-4.3-0.1-8.6-0.4-12.7-0.6c-4.1-0.3-8.1-0.6-11.8-1c-3.8-0.4-7.3-0.8-10.6-1.3c-1.6-0.3-3.2-0.5-4.7-0.7c-1.5-0.3-2.9-0.5-4.2-0.8
	c-2.6-0.5-4.9-1-6.8-1.5s-3.3-1.1-4.1-1.7c-0.4-0.3-0.7-0.5-0.9-0.7C6411.6-572.8,6411.5-572.9,6411.5-572.9L6411.5-572.9z"/>
<linearGradient id="SVGID_1_" gradientUnits="userSpaceOnUse" x1="6378.7998" y1="1445.2944" x2="6584.7002" y2="1445.2944" gradientTransform="matrix(1 0 0 -1 0 661.8115)">
	<stop  offset="1.800000e-02" style="stop-color:#801FE3"/>
	<stop  offset="1" style="stop-color:#B7A7FF"/>
</linearGradient>
<path class="st1" d="M6378.8-877.1c1.4,24.4,2.7,48.8,4.1,73.2c0.4,7.9,0.9,15.9,2.2,23.7c1.8,11.1,5.4,21.8,8.9,32.5
	c3,9.1,6,18.2,11.1,26.3c17.8,28.1,51.5,32.7,81.9,31.3c10.6-0.5,21.3-1.5,31.5-4.7c66.9-21.3,65.2-117,66.1-172.7
	c0-2.6,0.1-5.1,0.1-7.7C6516-873,6447.2-871.2,6378.8-877.1L6378.8-877.1z"/>
<path d="M6373.7-896.8c0,0,0.6,8.1,1.5,22.2c0.5,7.1,1,15.6,1.7,25.5c0.6,9.8,1.4,20.9,2.1,33.1c0.4,6.1,0.7,12.4,1.3,18.9
	c0.5,6.5,1.4,13.2,3,19.9s3.7,13.5,6,20.4c2.4,6.9,4.5,14,7.5,20.9c0.8,1.7,1.5,3.4,2.4,5.1c0.9,1.6,1.8,3.3,2.8,4.8
	c1.1,1.6,2.2,3.1,3.4,4.7c1.2,1.4,2.5,2.8,3.7,4.3c5.3,5.5,11.7,10,18.8,13.2c7.1,3.3,14.8,5.4,22.6,6.6c7.9,1.3,15.9,1.7,23.9,1.7
	c8-0.1,16.1-0.4,24-1.5c3.9-0.5,7.9-1.2,11.7-2.2c1-0.3,1.9-0.5,2.8-0.8l0.7-0.2h0.1l0.2-0.1l0.4-0.1l1.4-0.5l2.8-1
	c0.5-0.2,0.9-0.3,1.4-0.5l1.3-0.6c7.1-3.1,13.7-7.4,19.4-12.5c5.7-5.1,10.5-11.1,14.4-17.5c4-6.3,7.1-13.1,9.7-19.8
	c2.6-6.8,4.6-13.6,6.3-20.3c3.2-13.5,5-26.5,6.2-38.5c1.1-12.1,1.7-23.2,2-33c0.3-9.9,0.5-18.4,0.7-25.5c0.2-14.2,0.4-22.2,0.4-22.2
	s0,2,0.1,5.8c0,3.8,0.1,9.4,0.2,16.4c0,7.1,0,15.7-0.2,25.5c-0.1,9.9-0.5,21-1.5,33.1s-2.6,25.2-5.7,38.9
	c-1.6,6.8-3.6,13.7-6.1,20.6c-2.5,6.9-5.7,13.8-9.8,20.3c-4,6.5-9,12.7-14.8,18.1c-5.9,5.4-12.7,9.8-20.2,13.1l-1.4,0.6
	c-0.5,0.2-0.9,0.4-1.4,0.5l-2.8,1l-1.4,0.5l-0.4,0.1l-0.2,0.1l-0.2,0.1l-0.7,0.2c-1,0.3-2,0.6-2.9,0.8c-3.9,1-8,1.8-12,2.4
	c-8.1,1.1-16.2,1.5-24.4,1.6c-8.2,0-16.3-0.5-24.4-1.8c-8-1.3-16-3.5-23.3-7c-7.4-3.4-14.1-8.1-19.6-13.9c-1.3-1.5-2.6-3.1-3.9-4.6
	c-1.1-1.6-2.2-3.2-3.3-4.7c-2.2-3.4-3.9-6.8-5.4-10.4c-3-7.1-5.2-14.2-7.5-21.2c-2.2-7-4.3-13.9-5.8-20.7
	c-1.6-6.9-2.4-13.6-2.8-20.2c-0.5-6.6-0.7-12.9-1-18.9c-0.6-12.1-1.1-23.2-1.6-33.1s-0.8-18.4-1.2-25.5
	C6374-888.8,6373.7-896.8,6373.7-896.8L6373.7-896.8z"/>
<path d="M6374.1-881.4c0,0,0.8,0,2.4,0.1s3.8,0.2,6.7,0.3c2.9,0.2,6.4,0.3,10.5,0.5c4,0.2,8.6,0.3,13.6,0.5s10.4,0.3,16.1,0.5
	s11.7,0.2,17.9,0.4c6.2,0.1,12.6,0.1,19.2,0.2c6.5,0.1,13.2,0,19.8,0.1c6.6,0,13.3,0,19.8-0.1s13-0.1,19.2-0.2
	c12.5-0.1,24.1-0.2,34-0.3c10-0.1,18.3-0.1,24.1-0.1h9.1c0,0-0.8,0.1-2.4,0.2c-1.6,0.1-3.8,0.2-6.7,0.4c-5.8,0.3-14.1,0.8-24.1,1.3
	s-21.6,0.9-34,1.3c-6.2,0.1-12.7,0.4-19.2,0.4c-6.5,0.1-13.2,0.1-19.8,0.2c-6.6,0-13.3,0-19.8-0.2c-6.5-0.1-13-0.3-19.2-0.4
	c-6.2-0.2-12.3-0.4-18-0.8c-2.9-0.2-5.6-0.3-8.3-0.5c-2.7-0.2-5.3-0.4-7.8-0.5c-2.5-0.2-4.9-0.3-7.1-0.5c-2.3-0.2-4.4-0.4-6.4-0.6
	c-4-0.4-7.6-0.7-10.4-1c-2.9-0.3-5.2-0.6-6.7-0.7C6374.9-881.3,6374.1-881.4,6374.1-881.4L6374.1-881.4z"/>
<g>
	<path class="st0" d="M76.4,8.4c-1.1,0.4-1.9,1-2.4,2c-1.4,2.5,3,12.3,3.9,15c3.2,10.2,7.2,20.1,12.3,29.6
		c10.2,18.9,24.5,35.9,43,47c12.7,7.7,26.7,12.4,40.7,17.1c12.3,4.1,31.3,7.4,39.6,17.8c14.9,18.7,11.9,39.1,11.6,60.7
		c-0.3,27.8-1.4,56.1-1.2,84c0.1,7.3-0.2,15.3-5.1,20.6c-4.4,4.8-11.4,6-17.9,6.6c-22.8,2.1-47.6,0-66.2,13.9
		c-1.9,1.4-3.6,3.3-4.5,5.5c-4.2,9.8,7.3,17.6,16.8,20.8c62.7,21.6,122.7,13.9,187.3-1.2c11.4-2.7,13.6-11.5,12.2-18.3
		c-0.9-4.4-4-8.1-8.2-9.7c-22.1-8.5-42.5-11.4-69.4-14c-6.3-0.6-13.2-0.3-18.1-4.3c-12.5-10.2-9.2-40.8-9.5-54.8
		c-0.6-23.4,0.3-46.9,2.5-70.2c2.1-22.6,9.9-41.4,31.1-51c28.4-12.8,73.2-40.3,87.9-60.3c14.2-19.3,25.5-49.2,23.9-58.6
		c-4.2-2.6-29.7-1.5-37.5-1.2c-27.6,1-56.3,1.7-83.9,2.1C210.1,8.1,154.8,8,99.5,8.1c-3.3,0-6.6,0-10,0C86.1,8.2,80,7,76.4,8.4z"/>
	<g>
		<path d="M221.3,309.1c0,0,0.3,0.3,0.8,0.8c0.6,0.5,1.4,1.1,2.5,1.6c0.6,0.3,1.2,0.5,1.8,0.7c0.7,0.2,1.4,0.3,2.1,0.4
			c1.5,0.2,3.2,0.3,4.8,0.3c0.8,0,1.7,0,2.5,0c0.8,0,1.6,0,2.4,0c1.5-0.1,2.9-0.3,4-0.9c1.1-0.5,1.9-1.2,2.3-1.7
			c0.2-0.3,0.4-0.5,0.5-0.7c0.1-0.2,0.2-0.3,0.2-0.3s0,0.1-0.1,0.3c0,0.2-0.1,0.5-0.3,0.9c-0.3,0.7-1,1.7-2.1,2.5
			c-1.1,0.8-2.7,1.4-4.4,1.6c-0.8,0.1-1.7,0.2-2.5,0.2c-0.8,0-1.7,0-2.6,0c-0.9,0-1.7-0.1-2.6-0.1c-0.9-0.1-1.7-0.2-2.5-0.4
			c-0.8-0.2-1.6-0.5-2.3-0.8c-0.7-0.3-1.4-0.7-1.9-1.1c-1.1-0.8-1.8-1.7-2.2-2.3c-0.2-0.3-0.3-0.6-0.4-0.8
			C221.3,309.2,221.3,309.1,221.3,309.1z"/>
	</g>
	<g>
		<path d="M139.8,329.8c0,0,0.1,0.2,0.3,0.5c0.2,0.3,0.5,0.8,1,1.3c0.9,1.1,2.5,2.7,4.8,4.2c2.3,1.5,5.3,2.9,9,4
			c3.7,1.1,7.9,1.8,12.6,2.5c9.4,1.4,20.3,2.9,32,4.6c11.7,1.6,24.3,3,36.8,2c6.3-0.4,12.5-1.2,18.7-1.9c6.2-0.7,12.3-1.4,18.1-2.1
			c5.9-0.7,11.6-1.3,17-1.9c5.4-0.6,10.5-1.3,15.1-2c9.3-1.4,17.1-3.1,22.4-4.5c1.3-0.3,2.5-0.7,3.5-1c1-0.3,1.9-0.6,2.6-0.8
			c1.4-0.4,2.2-0.7,2.2-0.7s-0.7,0.3-2.1,0.8c-0.7,0.3-1.6,0.6-2.6,0.9c-1,0.4-2.2,0.7-3.5,1.1c-2.6,0.8-5.9,1.7-9.6,2.6
			c-3.7,0.9-8,1.8-12.7,2.6c-9.4,1.6-20.3,3.1-32.1,4.5c-5.9,0.7-11.9,1.5-18.1,2.2c-6.2,0.7-12.4,1.6-18.8,2
			c-6.3,0.4-12.7,0.3-19-0.2c-6.2-0.5-12.3-1.3-18.2-2.1c-5.9-0.9-11.5-1.8-16.9-2.7c-5.4-0.9-10.4-1.7-15.1-2.5
			c-4.7-0.8-9-1.7-12.6-2.9c-3.7-1.2-6.7-2.8-9-4.4c-2.3-1.6-3.7-3.3-4.6-4.4c-0.5-0.6-0.7-1.1-1-1.4
			C139.9,329.9,139.8,329.8,139.8,329.8z"/>
	</g>
	<linearGradient id="SVGID_2_" gradientUnits="userSpaceOnUse" x1="233.9084" y1="36.5326" x2="233.9084" y2="122.7782">
		<stop  offset="0" style="stop-color:#FFFFFF"/>
		<stop  offset="4.425359e-02" style="stop-color:#F1EAD5;stop-opacity:0.9956"/>
		<stop  offset="9.923089e-02" style="stop-color:#E2D4A9;stop-opacity:0.9901"/>
		<stop  offset="0.1599" style="stop-color:#D5C081;stop-opacity:0.984"/>
		<stop  offset="0.2249" style="stop-color:#C9AF5E;stop-opacity:0.9775"/>
		<stop  offset="0.2953" style="stop-color:#BFA040;stop-opacity:0.9705"/>
		<stop  offset="0.3732" style="stop-color:#B89429;stop-opacity:0.9627"/>
		<stop  offset="0.4615" style="stop-color:#B18B16;stop-opacity:0.9539"/>
		<stop  offset="0.5663" style="stop-color:#AD850A;stop-opacity:0.9434"/>
		<stop  offset="0.7039" style="stop-color:#AB8102;stop-opacity:0.9296"/>
		<stop  offset="1" style="stop-color:#AA8000;stop-opacity:0.9"/>
	</linearGradient>
	<path class="st2" d="M372.2,38.3c-12.4,0-249.1,0.5-275.4-1.5c-0.4,0-0.8-0.2-1.3-0.3c2.3,6.8,4.9,13.5,8.5,19.7
		c10.4,18.3,28,31.8,47,41c16,7.8,33.3,12.8,50.5,17.2c12.3,3.1,29.1,10.1,41.9,7.8c11-1.9,68.9-18.4,96.5-42.6
		C355.4,66.1,364.8,52.3,372.2,38.3C372.2,38.3,372.2,38.3,372.2,38.3z"/>
	<g>
		<path d="M86.8,17c0,0,0.4,1.4,1.2,4.1c0.8,2.7,2,6.5,3.6,11.4c1.7,4.9,3.9,10.8,7.2,17.1c0.4,0.8,0.8,1.6,1.3,2.4
			c0.4,0.8,0.9,1.6,1.4,2.4c1,1.7,2.1,3.2,3.2,4.9c2.4,3.2,5,6.5,8.1,9.6c6.1,6.3,13.6,12.3,22.2,17.5c8.6,5.2,18.3,9.6,28.6,13.5
			c10.3,3.8,21.3,7,32.5,9.8c5.7,1.4,11.3,3.2,16.9,4.8c5.6,1.6,11.3,3,17,3.5c2.9,0.2,5.7,0.3,8.5-0.2c2.8-0.5,5.6-1.2,8.5-1.9
			c5.6-1.5,11.2-3.2,16.7-5c11-3.6,21.7-7.7,31.8-12.1c10.1-4.5,19.6-9.3,28.1-14.7c4.2-2.7,8.2-5.6,11.8-8.7
			c1.8-1.6,3.6-3.1,5.2-4.7c0.8-0.8,1.6-1.6,2.4-2.4c0.8-0.8,1.5-1.6,2.3-2.4c1.5-1.6,2.9-3.2,4.3-4.8c1.3-1.6,2.7-3.2,3.9-4.8
			c0.6-0.8,1.2-1.6,1.8-2.3c0.6-0.8,1.1-1.6,1.7-2.3c1.1-1.5,2.1-3.1,3.2-4.6c4-6,7-11.5,9.4-16c2.4-4.6,4.2-8.2,5.4-10.7
			c1.2-2.5,1.9-3.8,1.9-3.8s-0.6,1.3-1.7,3.9c-1.1,2.5-2.8,6.2-5,10.9c-2.3,4.6-5.1,10.3-9,16.4c-3.8,6.1-8.6,12.8-14.6,19.4
			c-0.8,0.8-1.5,1.6-2.3,2.5c-0.8,0.8-1.6,1.6-2.4,2.4c-1.6,1.7-3.4,3.2-5.1,4.8c-3.6,3.3-7.6,6.2-11.9,9.1
			c-8.5,5.7-18.1,10.7-28.2,15.3c-10.1,4.6-20.9,8.7-31.9,12.4c-5.5,1.8-11.2,3.6-16.9,5.1c-2.9,0.8-5.7,1.5-8.8,2.1
			c-3.1,0.5-6.2,0.5-9.2,0.2c-12.1-1.2-23.2-5.9-34.4-8.7c-11.3-2.9-22.3-6.2-32.8-10.1c-10.4-3.9-20.2-8.6-28.9-14.1
			c-8.7-5.5-16.2-11.6-22.3-18.2c-3-3.3-5.7-6.6-8-10c-1.1-1.7-2.2-3.4-3.2-5c-0.5-0.8-1-1.6-1.4-2.5c-0.4-0.8-0.9-1.6-1.3-2.5
			c-3.2-6.5-5.2-12.5-6.8-17.4c-1.5-4.9-2.5-8.9-3.2-11.6C87.1,18.4,86.8,17,86.8,17z"/>
	</g>
	<path class="st3" d="M92.8,33.5c26.3,2,262.9,1.7,275.4,1.2"/>
</g>
</svg>
